G04 Output by ViewMate Deluxe V11.0.9  PentaLogix LLC*
G04 Tue Nov 11 15:55:57 2014*
%FSLAX33Y33*%
%MOMM*%
%IPPOS*%
%ADD10R,1.651X1.651*%
%ADD11C,1.651*%
%ADD12C,1.3081*%
%ADD13C,1.209*%
%ADD14R,3.81X3.81*%
%ADD15C,0.6096*%
%ADD16C,1.016*%
%ADD17C,0.4064*%

%LPD*%
X0Y0D2*D15*G1X19368Y28258D2*X19368Y30162D1*X18098Y31432*X18098Y33338*X19368Y34608*X13018Y34608D2*X9842Y34608D1*X8572Y35878*X8572Y39688*X9842Y40958*X13018Y40958*X19368Y40958D2*X19368Y48578D1*X16828Y51118*D17*X16828Y37782D2*X18732Y37782D1*X19368Y38418*X23178Y37782D2*X25082Y37782D1*X25718Y38418*X65088Y39688D2*X65088Y44768D1*X64452Y45402*X59372Y45402*X58738Y44768*X57468Y45402D2*X58102Y46038D1*X70802Y46038*X71438Y45402*X76518Y38418D2*X75882Y37782D1*X73978Y37782*X70168Y38418D2*X69532Y37782D1*X67628Y37782*X66992Y20638D2*X66358Y21272D1*X66358Y29528*X60008Y29528D2*X60008Y20638D1*X60642Y20002*X87312Y20002*X87948Y19368*X87948Y13018*X89218Y11748D2*X89218Y20002D1*X88582Y20638*X66992Y20638*X72708Y29528D2*X72708Y21908D1*X76518Y32068D2*X75248Y30798D1*X73978Y30798*X72708Y29528*X70168Y32068D2*X68898Y30798D1*X67628Y30798*X66358Y29528*X63818Y32068D2*X62548Y30798D1*X61278Y30798*X60008Y29528*X47308Y29528D2*X47308Y19368D1*X47942Y18732*X82232Y18732*X82868Y18098*X82868Y13018*X85408Y10478D2*X84138Y11748D1*X84138Y18732*X83502Y19368*X54292Y19368*X53658Y20002*X53658Y29528*X54928Y30798*X57468Y32068D2*X56198Y30798D1*X54928Y30798*X52388Y37148D2*X52388Y33338D1*X52388Y39688D2*X54292Y41592D1*X56198Y41592*X58102Y43498*X59372Y43498*X60642Y44768*X63182Y44768*X63818Y44132*X62548Y43498D2*X62548Y42228D1*X60008Y39688*X58738Y39688*X61278Y37782D2*X63182Y37782D1*X63818Y38418*X65088Y37148*X65088Y33338*X65088Y26988*X61278Y23812D2*X61912Y23812D1*X63818Y25718*X67628Y23812D2*X68262Y23812D1*X70168Y25718*X71438Y26988D2*X71438Y33338D1*X71438Y37148*X70168Y38418*X71438Y45402D2*X71438Y39688D1*X77152Y46672D2*X56832Y46672D1*X56198Y46038*X54928Y46672D2*X55562Y47308D1*X83502Y47308*X84138Y46672*X84138Y39688*X109538Y39688D2*X109538Y49212D1*X108902Y49848*X50482Y49848*X49848Y49212*X51118Y48578D2*X51752Y49212D1*X102552Y49212*X103188Y48578*X103188Y39688*X105728Y37782D2*X107632Y37782D1*X108268Y38418*X109538Y37148*X109538Y33338*X101918Y25718D2*X100012Y23812D1*X99378Y23812*X95568Y22542D2*X96202Y23178D1*X97472Y23178*X98108Y23812*X98108Y29528*X99378Y30798*X101918Y32068D2*X100648Y30798D1*X99378Y30798*X96838Y37148D2*X96838Y33338D1*X96838Y39688D2*X96838Y47942D1*X96202Y48578*X53022Y48578*X52388Y47942*X53658Y47308D2*X54292Y47942D1*X89852Y47942*X90488Y47308*X90488Y39688*X90488Y33338D2*X90488Y37148D1*X86678Y30798D2*X85408Y29528D1*X85408Y23178*X86678Y23812D2*X87312Y23812D1*X89218Y25718*X90488Y33338D2*X90488Y26988D1*X89218Y32068D2*X87948Y30798D1*X86678Y30798*X84138Y37148D2*X84138Y33338D1*X80328Y37782D2*X82232Y37782D1*X82868Y38418*X84138Y37148*X86678Y37782D2*X88582Y37782D1*X89218Y38418*X90488Y37148*X93028Y37782D2*X94932Y37782D1*X95568Y38418*X96838Y37148*X99378Y37782D2*X101282Y37782D1*X101918Y38418*X103188Y37148*X103188Y33338*X103188Y26988*X105728Y23812D2*X106362Y23812D1*X108268Y25718*X109538Y33338D2*X109538Y26988D1*X108268Y32068D2*X106998Y30798D1*X105728Y30798*X104458Y29528*X104458Y23178*X103822Y22542*X100012Y22542*X99378Y21908*X99378Y11748*X98108Y10478*X95568Y22542D2*X95568Y13018D1*X93028Y23812D2*X93662Y23812D1*X95568Y25718*X96838Y33338D2*X96838Y26988D1*X95568Y32068D2*X94298Y30798D1*X93028Y30798*X91758Y29528*X91758Y23178*X94298Y20638*X94298Y11748*X95568Y10478*X93028Y13018D2*X93028Y20638D1*X91122Y22542*X86042Y22542*X85408Y23178*X80328Y23812D2*X80962Y23812D1*X82868Y25718*X84138Y33338D2*X84138Y26988D1*X82868Y32068D2*X81598Y30798D1*X80328Y30798*X79058Y29528*X79058Y23178*X80328Y21908*X90488Y21908*X91758Y20638*X91758Y11748*X93028Y10478*X89218Y11748D2*X90488Y10478D1*X90488Y13018D2*X90488Y20638D1*X89852Y21272*X73342Y21272*X72708Y21908*X73978Y23812D2*X74612Y23812D1*X76518Y25718*X77788Y26988D2*X77788Y33338D1*X77788Y37148*X76518Y38418*X77788Y39688D2*X77788Y46038D1*X77152Y46672*X68262Y53658D2*X68898Y53022D1*X65088Y51118D2*X64452Y51752D1*X46672Y51752*X46038Y51118*X46038Y39688*X48578Y37782D2*X50482Y37782D1*X51118Y38418*X52388Y37148*X54928Y37782D2*X56832Y37782D1*X57468Y38418*X58738Y37148*X58738Y33338*X58738Y26988*X57468Y25718D2*X55562Y23812D1*X54928Y23812*X48578Y23812D2*X49212Y23812D1*X51118Y25718*X52388Y33338D2*X52388Y26988D1*X51118Y32068D2*X49848Y30798D1*X48578Y30798*X47308Y29528*X44768Y32068D2*X43498Y30798D1*X42228Y30798*X40958Y29528*X40958Y18732*X41592Y18098*X80962Y18098*X81598Y17462*X81598Y11748*X82868Y10478*X75248Y13018D2*X75248Y14288D1*X74612Y14922*X9842Y14922*X9208Y15558*X9208Y29528*X10478Y30798*X11748Y30798*X13018Y32068*X16828Y30798D2*X15558Y29528D1*X15558Y16192*X16192Y15558*X75882Y15558*X76518Y14922*X76518Y11748*X77788Y10478*X77788Y13018D2*X77788Y15558D1*X77152Y16192*X22542Y16192*X21908Y16828*X21908Y29528*X23178Y30798*X24448Y30798*X25718Y32068*X32068Y32068D2*X30798Y30798D1*X29528Y30798*X28258Y29528*X28258Y17462*X28892Y16828*X78422Y16828*X79058Y16192*X79058Y11748*X80328Y10478*X80328Y13018D2*X80328Y16828D1*X79692Y17462*X35242Y17462*X34608Y18098*X34608Y29528*X35878Y30798*X37148Y30798*X38418Y32068*X35878Y37782D2*X37782Y37782D1*X38418Y38418*X42228Y37782D2*X44132Y37782D1*X44768Y38418*X46038Y37148*X46038Y33338*X46038Y26988*X44768Y25718D2*X42862Y23812D1*X42228Y23812*X35878Y23812D2*X36512Y23812D1*X38418Y25718*X39688Y26988D2*X39688Y33338D1*X39688Y37148*X38418Y38418*X39688Y39688D2*X39688Y51752D1*X40322Y52388*X65722Y52388*X66358Y51752*X67628Y52388D2*X66992Y53022D1*X33972Y53022*X33338Y52388*X33338Y39688*X29528Y37782D2*X31432Y37782D1*X32068Y38418*X33338Y37148*X33338Y33338*X33338Y26988*X32068Y25718D2*X30162Y23812D1*X29528Y23812*X23178Y23812D2*X23812Y23812D1*X25718Y25718*X26988Y26988D2*X26988Y33338D1*X26988Y37148*X25718Y38418*X26988Y39688D2*X26988Y53022D1*X27622Y53658*X68262Y53658*X71438Y56198D2*X71438Y55562D1*X70802Y54928*X14922Y54928*X14288Y54292*X14288Y39688*X10478Y37782D2*X12382Y37782D1*X13018Y38418*X14288Y37148*X14288Y33338*X14288Y26988*X10478Y23812D2*X11112Y23812D1*X13018Y25718*X16828Y23812D2*X17462Y23812D1*X19368Y25718*X20638Y26988D2*X20638Y33338D1*X20638Y37148*X19368Y38418*X20638Y39688D2*X20638Y53658D1*X21272Y54292*X69532Y54292*X70168Y53658*D10*X48578Y56198D3*X98108Y13018D3*X42228Y13018D3*D11*X56198Y56198D3*X53658Y56198D3*X51118Y56198D3*X48578Y58738D3*X51118Y58738D3*X53658Y58738D3*X56198Y58738D3*X71438Y58738D3*X68898Y58738D3*X66358Y58738D3*X63818Y58738D3*X61278Y58738D3*X58738Y58738D3*X58738Y56198D3*X61278Y56198D3*X63818Y56198D3*X66358Y56198D3*X68898Y56198D3*X71438Y56198D3*X98108Y10478D3*X90488Y10478D3*X93028Y10478D3*X95568Y10478D3*X95568Y13018D3*X93028Y13018D3*X90488Y13018D3*X75248Y13018D3*X77788Y13018D3*X80328Y13018D3*X82868Y13018D3*X85408Y13018D3*X87948Y13018D3*X87948Y10478D3*X85408Y10478D3*X82868Y10478D3*X80328Y10478D3*X77788Y10478D3*X75248Y10478D3*X42228Y10478D3*X29528Y10478D3*X32068Y10478D3*X34608Y10478D3*X37148Y10478D3*X39688Y10478D3*X39688Y13018D3*X37148Y13018D3*X34608Y13018D3*X32068Y13018D3*X29528Y13018D3*X19368Y13018D3*X21908Y13018D3*X24448Y13018D3*X26988Y13018D3*X26988Y10478D3*X24448Y10478D3*X21908Y10478D3*X19368Y10478D3*D12*X11748Y51118D3*X16828Y51118D3*X54928Y28892D3*X54928Y30798D3*X48578Y30798D3*X48578Y28892D3*X42228Y28892D3*X42228Y30798D3*X35878Y30798D3*X35878Y28892D3*X29528Y28892D3*X29528Y30798D3*X23178Y30798D3*X23178Y28892D3*X16828Y28892D3*X16828Y30798D3*X10478Y30798D3*X10478Y28892D3*X10478Y23812D3*X16828Y23812D3*X23178Y23812D3*X29528Y23812D3*X35878Y23812D3*X42228Y23812D3*X48578Y23812D3*X54928Y23812D3*X61278Y23812D3*X67628Y23812D3*X73978Y23812D3*X80328Y23812D3*X86678Y23812D3*X93028Y23812D3*X99378Y23812D3*X105728Y23812D3*X105728Y30798D3*X105728Y28892D3*X99378Y28892D3*X99378Y30798D3*X93028Y30798D3*X93028Y28892D3*X86678Y28892D3*X86678Y30798D3*X80328Y30798D3*X80328Y28892D3*X73978Y28892D3*X73978Y30798D3*X67628Y30798D3*X67628Y28892D3*X61278Y28892D3*X61278Y30798D3*X61278Y42862D3*X67628Y42862D3*X73978Y42862D3*X80328Y42862D3*X86678Y42862D3*X93028Y42862D3*X99378Y42862D3*X105728Y42862D3*X105728Y37782D3*X105728Y35878D3*X99378Y35878D3*X99378Y37782D3*X93028Y37782D3*X93028Y35878D3*X86678Y35878D3*X86678Y37782D3*X80328Y37782D3*X80328Y35878D3*X73978Y35878D3*X73978Y37782D3*X67628Y37782D3*X67628Y35878D3*X61278Y35878D3*X61278Y37782D3*X54928Y37782D3*X54928Y35878D3*X48578Y35878D3*X48578Y37782D3*X42228Y37782D3*X42228Y35878D3*X35878Y35878D3*X35878Y37782D3*X29528Y37782D3*X29528Y35878D3*X23178Y35878D3*X23178Y37782D3*X16828Y37782D3*X16828Y35878D3*X10478Y35878D3*X10478Y37782D3*X10478Y42862D3*X16828Y42862D3*X23178Y42862D3*X29528Y42862D3*X35878Y42862D3*X42228Y42862D3*X48578Y42862D3*X54928Y42862D3*D13*X108268Y40958D3*X109538Y39688D3*X108268Y38418D3*X108268Y34608D3*X109538Y33338D3*X108268Y32068D3*X108268Y25718D3*X109538Y26988D3*X108268Y28258D3*X101918Y28258D3*X103188Y26988D3*X101918Y25718D3*X95568Y25718D3*X96838Y26988D3*X95568Y28258D3*X95568Y34608D3*X95568Y32068D3*X96838Y33338D3*X101918Y32068D3*X103188Y33338D3*X101918Y34608D3*X101918Y38418D3*X103188Y39688D3*X101918Y40958D3*X95568Y40958D3*X96838Y39688D3*X95568Y38418D3*X89218Y38418D3*X90488Y39688D3*X89218Y40958D3*X82868Y40958D3*X84138Y39688D3*X82868Y38418D3*X70168Y32068D3*X71438Y33338D3*X70168Y34608D3*X63818Y34608D3*X65088Y33338D3*X63818Y32068D3*X57468Y32068D3*X58738Y33338D3*X57468Y34608D3*X57468Y40958D3*X57468Y38418D3*X58738Y39688D3*X63818Y40958D3*X63818Y38418D3*X65088Y39688D3*X70168Y40958D3*X70168Y38418D3*X71438Y39688D3*X76518Y40958D3*X77788Y39688D3*X76518Y38418D3*X76518Y34608D3*X76518Y32068D3*X77788Y33338D3*X82868Y34608D3*X82868Y32068D3*X84138Y33338D3*X89218Y34608D3*X90488Y33338D3*X89218Y32068D3*X89218Y28258D3*X90488Y26988D3*X89218Y25718D3*X82868Y25718D3*X84138Y26988D3*X82868Y28258D3*X76518Y28258D3*X77788Y26988D3*X76518Y25718D3*X70168Y25718D3*X71438Y26988D3*X70168Y28258D3*X63818Y28258D3*X65088Y26988D3*X63818Y25718D3*X57468Y25718D3*X58738Y26988D3*X57468Y28258D3*X51118Y28258D3*X52388Y26988D3*X51118Y25718D3*X44768Y25718D3*X46038Y26988D3*X44768Y28258D3*X44768Y34608D3*X44768Y32068D3*X46038Y33338D3*X51118Y32068D3*X52388Y33338D3*X51118Y34608D3*X51118Y38418D3*X52388Y39688D3*X51118Y40958D3*X44768Y40958D3*X46038Y39688D3*X44768Y38418D3*X38418Y38418D3*X39688Y39688D3*X38418Y40958D3*X32068Y40958D3*X33338Y39688D3*X32068Y38418D3*X32068Y34608D3*X32068Y32068D3*X33338Y33338D3*X38418Y34608D3*X39688Y33338D3*X38418Y32068D3*X38418Y28258D3*X39688Y26988D3*X38418Y25718D3*X32068Y25718D3*X33338Y26988D3*X32068Y28258D3*X13018Y28258D3*X13018Y25718D3*X14288Y26988D3*X19368Y28258D3*X19368Y25718D3*X20638Y26988D3*X25718Y25718D3*X26988Y26988D3*X25718Y28258D3*X25718Y32068D3*X26988Y33338D3*X25718Y34608D3*X25718Y38418D3*X26988Y39688D3*X25718Y40958D3*X19368Y40958D3*X20638Y39688D3*X19368Y38418D3*X19368Y34608D3*X20638Y33338D3*X19368Y32068D3*X13018Y32068D3*X14288Y33338D3*X13018Y34608D3*X13018Y38418D3*X14288Y39688D3*X13018Y40958D3*D14*X14922Y59372D3*X21908Y59372D3*D16*X70168Y53658D3*X68898Y53022D3*X67628Y52388D3*X66358Y51752D3*X65088Y51118D3*X63818Y44132D3*X62548Y43498D3*X58738Y44768D3*X57468Y45402D3*X56198Y46038D3*X54928Y46672D3*X53658Y47308D3*X49848Y49212D3*X51118Y48578D3*X52388Y47942D3*X0Y0D2*M02*