G04 Output by ViewMate Deluxe V11.0.9  PentaLogix LLC*
G04 Tue Nov 11 15:55:57 2014*
%FSLAX33Y33*%
%MOMM*%
%IPPOS*%
%ADD18C,0.13*%
%ADD110C,0.2032*%
%ADD112C,0.127*%
%ADD113C,0.1524*%

%LPD*%
X0Y0D2*D18*G1X105634Y38646D2*X105321Y38959D1*X106261Y38959*X106261Y39273D2*X106261Y38646D1*X106103Y39581D2*X105476Y39581D1*X105321Y39738*X105321Y40051*X105476Y40208*X106103Y40208D2*X106261Y40051D1*X106261Y39738*X106103Y39581*X105476Y40208*X106103Y40208*X106261Y40988D2*X105948Y40518D1*X105634Y40988*X105321Y40518D2*X106261Y40518D1*X99911Y40988D2*X99598Y40518D1*X99284Y40988*X98971Y40518D2*X99911Y40518D1*X99126Y40208D2*X98971Y40051D1*X98971Y39738*X99126Y39581*X99753Y39581*X99911Y39738*X99911Y40051*X99753Y40208*X99126Y40208*X99753Y39581*X99911Y38646D2*X99911Y39273D1*X99911Y38959D2*X98971Y38959D1*X99284Y38646*X92621Y38959D2*X92934Y38646D1*X93561Y40988D2*X93248Y40518D1*X92934Y40988*X92621Y40518D2*X93561Y40518D1*X92776Y40208D2*X93403Y40208D1*X93561Y40051*X93561Y39738*X93403Y39581*X92776Y40208*X92621Y40051*X92621Y39738*X92776Y39581*X93403Y39581*X93561Y38646D2*X93561Y39273D1*X92621Y38959D2*X93561Y38959D1*X86584Y38646D2*X86271Y38959D1*X87211Y38959*X87211Y39273D2*X87211Y38646D1*X87053Y39581D2*X86426Y39581D1*X86271Y39738*X86271Y40051*X86426Y40208*X87053Y40208D2*X87211Y40051D1*X87211Y39738*X87053Y39581*X86426Y40208*X87053Y40208*X87211Y40988D2*X86898Y40518D1*X86584Y40988*X86271Y40518D2*X87211Y40518D1*X80861Y40988D2*X80548Y40518D1*X80234Y40988*X79921Y40518D2*X80861Y40518D1*X80076Y40208D2*X79921Y40051D1*X79921Y39738*X80076Y39581*X80703Y39581*X80861Y39738*X80861Y40051*X80703Y40208*X80076Y40208*X80703Y39581*X80861Y38646D2*X80861Y39273D1*X80861Y38959D2*X79921Y38959D1*X80234Y38646*X73884Y38646D2*X73571Y38959D1*X74511Y38959*X74511Y39273D2*X74511Y38646D1*X74353Y39581D2*X73726Y39581D1*X73571Y39738*X73571Y40051*X73726Y40208*X74353Y40208D2*X74511Y40051D1*X74511Y39738*X74353Y39581*X73726Y40208*X74353Y40208*X74511Y40988D2*X74198Y40518D1*X73884Y40988*X73571Y40518D2*X74511Y40518D1*X68161Y40988D2*X67848Y40518D1*X67534Y40988*X67221Y40518D2*X68161Y40518D1*X67376Y40208D2*X67221Y40051D1*X67221Y39738*X67376Y39581*X68003Y39581*X68161Y39738*X68161Y40051*X68003Y40208*X67376Y40208*X68003Y39581*X68161Y38646D2*X68161Y39273D1*X68161Y38959D2*X67221Y38959D1*X67534Y38646*X60871Y38959D2*X61184Y38646D1*X61811Y40988D2*X61498Y40518D1*X61184Y40988*X60871Y40518D2*X61811Y40518D1*X61026Y40208D2*X61653Y40208D1*X61811Y40051*X61811Y39738*X61653Y39581*X61026Y40208*X60871Y40051*X60871Y39738*X61026Y39581*X61653Y39581*X61811Y38646D2*X61811Y39273D1*X60871Y38959D2*X61811Y38959D1*X54834Y38646D2*X54521Y38959D1*X55461Y38959*X55461Y39273D2*X55461Y38646D1*X55303Y39581D2*X54676Y39581D1*X54521Y39738*X54521Y40051*X54676Y40208*X55303Y40208D2*X55461Y40051D1*X55461Y39738*X55303Y39581*X54676Y40208*X55303Y40208*X55461Y40988D2*X55148Y40518D1*X54834Y40988*X54521Y40518D2*X55461Y40518D1*X49111Y40988D2*X48798Y40518D1*X48484Y40988*X48171Y40518D2*X49111Y40518D1*X48326Y40208D2*X48171Y40051D1*X48171Y39738*X48326Y39581*X48953Y39581*X49111Y39738*X49111Y40051*X48953Y40208*X48326Y40208*X48953Y39581*X49111Y38646D2*X49111Y39273D1*X49111Y38959D2*X48171Y38959D1*X48484Y38646*X48484Y31661D2*X48171Y31974D1*X49111Y31974*X49111Y32288D2*X49111Y31661D1*X49111Y34003D2*X48798Y33533D1*X48484Y34003*X48171Y33533D2*X49111Y33533D1*X48326Y33223D2*X48171Y33066D1*X48171Y32753*X48326Y32596*X48953Y32596*X49111Y32753D2*X49111Y33066D1*X48953Y33223*X48326Y33223*X48953Y32596*X49111Y32753*X55303Y32596D2*X54676Y32596D1*X55461Y34003D2*X55148Y33533D1*X54834Y34003*X54521Y33533D2*X55461Y33533D1*X54676Y33223D2*X55303Y33223D1*X55461Y33066*X55461Y32753*X55303Y32596*X54676Y33223*X54521Y33066*X54521Y32753*X54676Y32596*X54834Y31661D2*X54521Y31974D1*X55461Y31974*X55461Y31661D2*X55461Y32288D1*X61184Y31661D2*X60871Y31974D1*X61811Y31974*X61811Y32288D2*X61811Y31661D1*X61811Y34003D2*X61498Y33533D1*X61184Y34003*X60871Y33533D2*X61811Y33533D1*X61026Y33223D2*X60871Y33066D1*X60871Y32753*X61026Y32596*X61653Y32596*X61811Y32753D2*X61811Y33066D1*X61653Y33223*X61026Y33223*X61653Y32596*X61811Y32753*X68003Y32596D2*X67376Y32596D1*X68161Y34003D2*X67848Y33533D1*X67534Y34003*X67221Y33533D2*X68161Y33533D1*X67376Y33223D2*X68003Y33223D1*X68161Y33066*X68161Y32753*X68003Y32596*X67376Y33223*X67221Y33066*X67221Y32753*X67376Y32596*X67534Y31661D2*X67221Y31974D1*X68161Y31974*X68161Y31661D2*X68161Y32288D1*X73884Y31661D2*X73571Y31974D1*X74511Y31974*X74511Y32288D2*X74511Y31661D1*X74511Y34003D2*X74198Y33533D1*X73884Y34003*X73571Y33533D2*X74511Y33533D1*X73726Y33223D2*X73571Y33066D1*X73571Y32753*X73726Y32596*X74353Y32596*X74511Y32753D2*X74511Y33066D1*X74353Y33223*X73726Y33223*X74353Y32596*X74511Y32753*X80703Y32596D2*X80076Y32596D1*X80861Y34003D2*X80548Y33533D1*X80234Y34003*X79921Y33533D2*X80861Y33533D1*X80076Y33223D2*X80703Y33223D1*X80861Y33066*X80861Y32753*X80703Y32596*X80076Y33223*X79921Y33066*X79921Y32753*X80076Y32596*X80234Y31661D2*X79921Y31974D1*X80861Y31974*X80861Y31661D2*X80861Y32288D1*X86584Y31661D2*X86271Y31974D1*X87211Y31974*X87211Y32288D2*X87211Y31661D1*X87211Y34003D2*X86898Y33533D1*X86584Y34003*X86271Y33533D2*X87211Y33533D1*X86426Y33223D2*X86271Y33066D1*X86271Y32753*X86426Y32596*X87053Y32596*X87211Y32753D2*X87211Y33066D1*X87053Y33223*X86426Y33223*X87053Y32596*X87211Y32753*X93403Y32596D2*X92776Y32596D1*X93561Y34003D2*X93248Y33533D1*X92934Y34003*X92621Y33533D2*X93561Y33533D1*X92776Y33223D2*X93403Y33223D1*X93561Y33066*X93561Y32753*X93403Y32596*X92776Y33223*X92621Y33066*X92621Y32753*X92776Y32596*X92934Y31661D2*X92621Y31974D1*X93561Y31974*X93561Y31661D2*X93561Y32288D1*X99284Y31661D2*X98971Y31974D1*X99911Y31974*X99911Y32288D2*X99911Y31661D1*X99753Y32596D2*X99126Y32596D1*X98971Y32753*X98971Y33066*X99126Y33223*X99753Y33223D2*X99126Y33223D1*X99753Y32596*X99911Y32753*X99911Y33066*X99753Y33223*X98971Y33533D2*X99911Y33533D1*X99284Y34003D2*X99598Y33533D1*X99911Y34003*X106261Y34003D2*X105948Y33533D1*X105634Y34003*X105321Y33533D2*X106261Y33533D1*X105476Y33223D2*X106103Y33223D1*X106261Y33066*X106261Y32753*X106103Y32596*X105476Y33223*X105321Y33066*X105321Y32753*X105476Y32596*X106103Y32596*X106261Y31661D2*X106261Y32288D1*X106261Y31974D2*X105321Y31974D1*X105634Y31661*X105634Y24676D2*X105321Y24989D1*X106261Y24989*X106261Y25303D2*X106261Y24676D1*X106103Y25611D2*X105476Y25611D1*X105321Y25768*X105321Y26081*X105476Y26238*X106103Y26238D2*X106261Y26081D1*X106261Y25768*X106103Y25611*X105476Y26238*X106103Y26238*X106261Y27018D2*X105948Y26548D1*X105634Y27018*X105321Y26548D2*X106261Y26548D1*X99911Y27018D2*X99598Y26548D1*X99284Y27018*X98971Y26548D2*X99911Y26548D1*X99126Y26238D2*X98971Y26081D1*X98971Y25768*X99126Y25611*X99753Y25611*X99911Y25768*X99911Y26081*X99753Y26238*X99126Y26238*X99753Y25611*X99911Y24676D2*X99911Y25303D1*X99911Y24989D2*X98971Y24989D1*X99284Y24676*X92621Y24989D2*X92934Y24676D1*X93561Y27018D2*X93248Y26548D1*X92934Y27018*X92621Y26548D2*X93561Y26548D1*X92776Y26238D2*X92621Y26081D1*X92621Y25768*X92776Y25611*X93403Y25611*X93561Y25768*X93561Y26081*X93403Y26238*X92776Y26238*X93403Y25611*X93561Y24676D2*X93561Y25303D1*X92621Y24989D2*X93561Y24989D1*X86584Y24676D2*X86271Y24989D1*X87211Y24989*X87211Y25303D2*X87211Y24676D1*X87053Y25611D2*X86426Y25611D1*X86271Y25768*X86271Y26081*X86426Y26238*X87053Y26238D2*X87211Y26081D1*X87211Y25768*X87053Y25611*X86426Y26238*X87053Y26238*X87211Y27018D2*X86898Y26548D1*X86584Y27018*X86271Y26548D2*X87211Y26548D1*X80861Y27018D2*X80548Y26548D1*X80234Y27018*X79921Y26548D2*X80861Y26548D1*X80076Y26238D2*X79921Y26081D1*X79921Y25768*X80076Y25611*X80703Y25611*X80861Y25768*X80861Y26081*X80703Y26238*X80076Y26238*X80703Y25611*X80861Y24676D2*X80861Y25303D1*X80861Y24989D2*X79921Y24989D1*X80234Y24676*X73884Y24676D2*X73571Y24989D1*X74511Y24989*X74511Y25303D2*X74511Y24676D1*X74353Y25611D2*X73726Y25611D1*X73571Y25768*X73571Y26081*X73726Y26238*X74353Y26238D2*X74511Y26081D1*X74511Y25768*X74353Y25611*X73726Y26238*X74353Y26238*X74511Y27018D2*X74198Y26548D1*X73884Y27018*X73571Y26548D2*X74511Y26548D1*X68161Y27018D2*X67848Y26548D1*X67534Y27018*X67221Y26548D2*X68161Y26548D1*X67376Y26238D2*X67221Y26081D1*X67221Y25768*X67376Y25611*X68003Y25611*X68161Y25768*X68161Y26081*X68003Y26238*X67376Y26238*X68003Y25611*X68161Y24676D2*X68161Y25303D1*X68161Y24989D2*X67221Y24989D1*X67534Y24676*X60871Y24989D2*X61184Y24676D1*X61811Y27018D2*X61498Y26548D1*X61184Y27018*X60871Y26548D2*X61811Y26548D1*X61026Y26238D2*X60871Y26081D1*X60871Y25768*X61026Y25611*X61653Y25611*X61811Y25768*X61811Y26081*X61653Y26238*X61026Y26238*X61653Y25611*X61811Y24676D2*X61811Y25303D1*X60871Y24989D2*X61811Y24989D1*X54834Y24676D2*X54521Y24989D1*X55461Y24989*X55461Y25303D2*X55461Y24676D1*X55303Y25611D2*X54676Y25611D1*X54521Y25768*X54521Y26081*X54676Y26238*X55303Y26238D2*X55461Y26081D1*X55461Y25768*X55303Y25611*X54676Y26238*X55303Y26238*X55461Y27018D2*X55148Y26548D1*X54834Y27018*X54521Y26548D2*X55461Y26548D1*X49111Y27018D2*X48798Y26548D1*X48484Y27018*X48171Y26548D2*X49111Y26548D1*X48326Y26238D2*X48171Y26081D1*X48171Y25768*X48326Y25611*X48953Y25611*X49111Y25768*X49111Y26081*X48953Y26238*X48326Y26238*X48953Y25611*X49111Y24676D2*X49111Y25303D1*X49111Y24989D2*X48171Y24989D1*X48484Y24676*X42134Y24676D2*X41821Y24989D1*X42761Y24989*X42761Y25303D2*X42761Y24676D1*X42603Y25611D2*X41976Y25611D1*X41821Y25768*X41821Y26081*X41976Y26238*X42603Y26238D2*X42761Y26081D1*X42761Y25768*X42603Y25611*X41976Y26238*X42603Y26238*X42761Y27018D2*X42448Y26548D1*X42134Y27018*X41821Y26548D2*X42761Y26548D1*X36411Y27018D2*X36098Y26548D1*X35784Y27018*X35471Y26548D2*X36411Y26548D1*X35626Y26238D2*X35471Y26081D1*X35471Y25768*X35626Y25611*X36253Y25611*X36411Y25768*X36411Y26081*X36253Y26238*X35626Y26238*X36253Y25611*X36411Y24676D2*X36411Y25303D1*X36411Y24989D2*X35471Y24989D1*X35784Y24676*X29434Y24676D2*X29121Y24989D1*X30061Y24989*X30061Y25303D2*X30061Y24676D1*X29903Y25611D2*X29276Y25611D1*X29121Y25768*X29121Y26081*X29276Y26238*X29903Y26238D2*X30061Y26081D1*X30061Y25768*X29903Y25611*X29276Y26238*X29903Y26238*X30061Y27018D2*X29748Y26548D1*X29434Y27018*X29121Y26548D2*X30061Y26548D1*X23711Y27018D2*X23398Y26548D1*X23084Y27018*X22771Y26548D2*X23711Y26548D1*X22926Y26238D2*X22771Y26081D1*X22771Y25768*X22926Y25611*X23553Y25611*X23711Y25768*X23711Y26081*X23553Y26238*X22926Y26238*X23553Y25611*X23711Y24676D2*X23711Y25303D1*X23711Y24989D2*X22771Y24989D1*X23084Y24676*X16421Y24989D2*X16734Y24676D1*X17361Y27018D2*X17048Y26548D1*X16734Y27018*X16421Y26548D2*X17361Y26548D1*X16576Y26238D2*X16421Y26081D1*X16421Y25768*X16576Y25611*X17203Y25611*X17361Y25768*X17361Y26081*X17203Y26238*X16576Y26238*X17203Y25611*X17361Y24676D2*X17361Y25303D1*X16421Y24989D2*X17361Y24989D1*X10384Y24676D2*X10071Y24989D1*X11011Y24989*X11011Y25303D2*X11011Y24676D1*X10853Y25611D2*X10226Y25611D1*X10071Y25768*X10071Y26081*X10226Y26238*X10853Y26238*X11011Y26081*X11011Y25768*X10853Y25611*X10226Y26238*X11011Y26548D2*X10071Y26548D1*X11011Y27018D2*X10698Y26548D1*X10384Y27018*X10853Y32596D2*X10226Y32596D1*X11011Y34003D2*X10698Y33533D1*X10384Y34003*X10071Y33533D2*X11011Y33533D1*X10226Y33223D2*X10853Y33223D1*X11011Y33066*X11011Y32753*X10853Y32596*X10226Y33223*X10071Y33066*X10071Y32753*X10226Y32596*X10384Y31661D2*X10071Y31974D1*X11011Y31974*X11011Y31661D2*X11011Y32288D1*X16734Y31661D2*X16421Y31974D1*X17361Y31974*X17361Y32288D2*X17361Y31661D1*X17361Y34003D2*X17048Y33533D1*X16734Y34003*X16421Y33533D2*X17361Y33533D1*X16576Y33223D2*X16421Y33066D1*X16421Y32753*X16576Y32596*X17203Y32596*X17361Y32753D2*X17361Y33066D1*X17203Y33223*X16576Y33223*X17203Y32596*X17361Y32753*X23553Y32596D2*X22926Y32596D1*X23711Y34003D2*X23398Y33533D1*X23084Y34003*X22771Y33533D2*X23711Y33533D1*X22926Y33223D2*X23553Y33223D1*X23711Y33066*X23711Y32753*X23553Y32596*X22926Y33223*X22771Y33066*X22771Y32753*X22926Y32596*X23084Y31661D2*X22771Y31974D1*X23711Y31974*X23711Y31661D2*X23711Y32288D1*X29434Y31661D2*X29121Y31974D1*X30061Y31974*X30061Y32288D2*X30061Y31661D1*X30061Y34003D2*X29748Y33533D1*X29434Y34003*X29121Y33533D2*X30061Y33533D1*X29276Y33223D2*X29121Y33066D1*X29121Y32753*X29276Y32596*X29903Y32596*X30061Y32753D2*X30061Y33066D1*X29903Y33223*X29276Y33223*X29903Y32596*X30061Y32753*X36253Y32596D2*X35626Y32596D1*X36411Y34003D2*X36098Y33533D1*X35784Y34003*X35471Y33533D2*X36411Y33533D1*X35626Y33223D2*X36253Y33223D1*X36411Y33066*X36411Y32753*X36253Y32596*X35626Y33223*X35471Y33066*X35471Y32753*X35626Y32596*X35784Y31661D2*X35471Y31974D1*X36411Y31974*X36411Y31661D2*X36411Y32288D1*X42134Y31661D2*X41821Y31974D1*X42761Y31974*X42761Y32288D2*X42761Y31661D1*X42603Y32596D2*X41976Y32596D1*X41821Y32753*X41821Y33066*X41976Y33223*X42603Y33223*X42761Y33066*X42761Y32753*X42603Y32596*X41976Y33223*X42761Y33533D2*X41821Y33533D1*X42761Y34003D2*X42448Y33533D1*X42134Y34003*X42134Y38646D2*X41821Y38959D1*X42761Y38959*X42761Y39273D2*X42761Y38646D1*X42603Y39581D2*X41976Y39581D1*X41821Y39738*X41821Y40051*X41976Y40208*X42603Y40208D2*X42761Y40051D1*X42761Y39738*X42603Y39581*X41976Y40208*X42603Y40208*X42761Y40988D2*X42448Y40518D1*X42134Y40988*X41821Y40518D2*X42761Y40518D1*X36411Y40988D2*X36098Y40518D1*X35784Y40988*X35471Y40518D2*X36411Y40518D1*X35626Y40208D2*X35471Y40051D1*X35471Y39738*X35626Y39581*X36253Y39581*X36411Y39738*X36411Y40051*X36253Y40208*X35626Y40208*X36253Y39581*X36411Y38646D2*X36411Y39273D1*X36411Y38959D2*X35471Y38959D1*X35784Y38646*X29434Y38646D2*X29121Y38959D1*X30061Y38959*X30061Y39273D2*X30061Y38646D1*X29903Y39581D2*X29276Y39581D1*X29121Y39738*X29121Y40051*X29276Y40208*X29903Y40208D2*X30061Y40051D1*X30061Y39738*X29903Y39581*X29276Y40208*X29903Y40208*X30061Y40988D2*X29748Y40518D1*X29434Y40988*X29121Y40518D2*X30061Y40518D1*X23711Y40988D2*X23398Y40518D1*X23084Y40988*X22771Y40518D2*X23711Y40518D1*X22926Y40208D2*X23553Y40208D1*X23711Y40051*X23711Y39738*X23553Y39581*X22926Y40208*X22771Y40051*X22771Y39738*X22926Y39581*X23553Y39581*X23711Y38646D2*X23711Y39273D1*X23711Y38959D2*X22771Y38959D1*X23084Y38646*X16421Y38959D2*X16734Y38646D1*X17361Y40988D2*X17048Y40518D1*X16734Y40988*X16421Y40518D2*X17361Y40518D1*X16576Y40208D2*X16421Y40051D1*X16421Y39738*X16576Y39581*X17203Y39581*X17361Y39738*X17361Y40051*X17203Y40208*X16576Y40208*X17203Y39581*X17361Y38646D2*X17361Y39273D1*X16421Y38959D2*X17361Y38959D1*X10384Y38646D2*X10071Y38959D1*X11011Y38959*X11011Y39273D2*X11011Y38646D1*X10853Y39581D2*X10226Y39581D1*X10071Y39738*X10071Y40051*X10226Y40208*X10853Y40208D2*X10226Y40208D1*X10853Y39581*X11011Y39738*X11011Y40051*X10853Y40208*X10071Y40518D2*X11011Y40518D1*X10384Y40988D2*X10698Y40518D1*X11011Y40988*D18*X106904Y15558D2*X107099Y15558D1*X106515Y15169D2*X106708Y14973D1*X107099Y14973*X107295Y15169*X107295Y15362*X107099Y15558*X107295Y15753*X107295Y15949*X107099Y16142*X106708Y16142*X106515Y15949*X105735Y16142D2*X106124Y16142D1*X105928Y16142D2*X105928Y15169D1*X105735Y14973*X105540Y14973*X105344Y15169*X50635Y14973D2*X51415Y14973D1*X50635Y15949D2*X50828Y16142D1*X51219Y16142*X51415Y15949*X51415Y15753*X50635Y14973*X49464Y15169D2*X49660Y14973D1*X49855Y14973*X50048Y15169*X50048Y16142*X49855Y16142D2*X50244Y16142D1*X12560Y51333D2*X12865Y51638D1*X12865Y50724*X13170Y50724D2*X12560Y50724D1*X13495Y50876D2*X13495Y51486D1*X13647Y51638*X13952Y51638*X14107Y51486*X14107Y50876D2*X14107Y51486D1*X13495Y50876*X13647Y50724*X13952Y50724*X14107Y50876*X14432Y50876D2*X14432Y51486D1*X14585Y51638*X15367Y51333D2*X15824Y51333D1*X15977Y51181*X15977Y50724*X15367Y51333D2*X15367Y50724D1*X15042Y51486D2*X15042Y50876D1*X14889Y50724*X14585Y50724*X14432Y50876*X15042Y51486*X14889Y51638*X14585Y51638*X14338Y56198D2*X14338Y56782D1*X15118Y56782*X15118Y56198D2*X14922Y56393D1*X14727Y56393*X14338Y56198*X14338Y55809D2*X14534Y55613D1*X14922Y55613*X15118Y55809*X15118Y56198*X16286Y56002D2*X15898Y55613D1*X15507Y56002*X15507Y56782*X16286Y56002D2*X16286Y56782D1*X20688Y55809D2*X20688Y56589D1*X20884Y56782*X21272Y56782*X21468Y56589*X21468Y55809D2*X21272Y55613D1*X20884Y55613*X20688Y55809*X21468Y56589*X21468Y55809*X22636Y56002D2*X22248Y55613D1*X21857Y56002*X21857Y56782*X22636Y56002D2*X22636Y56782D1*X39103Y53269D2*X39299Y53073D1*X39492Y53073*X39688Y53269*X39688Y54242*X39883Y54242D2*X39492Y54242D1*X40272Y53853D2*X40663Y54242D1*X40663Y53073*X41051Y53073D2*X40272Y53073D1*X82918Y48824D2*X83114Y48628D1*X83307Y48628*X83502Y48824*X83502Y49797*X83698Y49797D2*X83307Y49797D1*X84282Y49408D2*X84673Y49408D1*X84866Y49212*X84866Y48628*X84282Y48628*X84087Y48824*X84282Y49017*X84866Y49017*X92273Y49408D2*X92273Y48824D1*X95781Y48628D2*X95781Y49408D1*X96561Y48628D2*X96561Y49212D1*X96368Y49408*X95781Y49408*X95392Y49212D2*X95197Y49408D1*X94808Y49408*X94612Y48824D2*X94808Y48628D1*X95392Y48628*X95392Y49212*X95392Y49017D2*X94808Y49017D1*X94612Y48824*X93444Y49408D2*X93444Y48628D1*X93833Y48628D2*X93833Y49212D1*X94221Y48628D2*X94221Y49212D1*X94028Y49408*X93833Y49212*X93637Y49408*X93444Y49408*X93053Y49408D2*X93053Y48824D1*X92857Y48628*X92664Y48824*X92469Y48628*X92273Y48824*X91689Y48628D2*X91298Y48628D1*X91105Y48824*X91105Y49017D2*X91884Y49017D1*X91884Y49212*X91689Y49408*X91298Y49408*X91105Y49212*X91105Y48824*X90714Y49797D2*X90714Y48628D1*X89934Y49797*X89934Y48628*X88374Y49408D2*X87790Y49408D1*X87597Y49212*X87790Y49017*X88181Y49017*X88374Y48824*X88181Y48628*X87597Y48628*X87010Y48628D2*X86622Y48628D1*X86426Y48824*X86426Y49017D2*X87206Y49017D1*X87206Y49212*X87010Y49408*X86622Y49408*X86426Y49212*X86426Y48824*X86037Y48628D2*X86037Y49212D1*X85842Y49408*X85646Y49212D2*X85453Y49408D1*X85258Y49408*X85258Y48628*X85646Y48628D2*X85646Y49212D1*X85842Y49408*D110*X85943Y52923D2*X85943Y50973D1*X95298Y50973D2*X95298Y52923D1*X104653Y51752D2*X105433Y51752D1*X106213Y52923D2*X104653Y52923D1*X106992Y51752D2*X107772Y51752D1*X106992Y50584D2*X106992Y52923D1*X108552Y52923*X111669Y52144D2*X112448Y52923D1*X112448Y50584*X111669Y50584D2*X113228Y50584D1*X109332Y50195D2*X110891Y50195D1*X106992Y50584D2*X108552Y50584D1*X106213Y50584D2*X104653Y50584D1*X104653Y52923*X102314Y52923D2*X103873Y52923D1*X103094Y50584D2*X103094Y52923D1*X99977Y50195D2*X101534Y50195D1*X99197Y52532D2*X98806Y52923D1*X98026Y52923*X97638Y52532*X97638Y50973D2*X98026Y50584D1*X98806Y50584*X99197Y50973*X99197Y51364*X98806Y51752*X98026Y51752*X97638Y52144*X97638Y52532*X96858Y52923D2*X96858Y50973D1*X96467Y50584*X95687Y50584*X95298Y50973*X94130Y51752D2*X94518Y52144D1*X94518Y52532*X94130Y52923*X92959Y52923*X92959Y50584*X92959Y51752D2*X94130Y51752D1*X94518Y51364*X94518Y50973*X94130Y50584*X92959Y50584*X90620Y50195D2*X92179Y50195D1*X88283Y51752D2*X89063Y51752D1*X88283Y50584D2*X88283Y52923D1*X89840Y52923*X87503Y52923D2*X87503Y50973D1*X87112Y50584*X86332Y50584*X85943Y50973*X84772Y51752D2*X85164Y52144D1*X85164Y52532*X84772Y52923*X83604Y52923*X83604Y50584*X83604Y51752D2*X84772Y51752D1*X85164Y51364*X85164Y50973*X84772Y50584*X83604Y50584*D112*X82232Y62548D2*X82232Y54928D1*X37782Y54928*X37782Y62548*X48486Y54836D2*X48669Y54836D1*X48793Y54712D2*X48362Y54712D1*X48240Y54590D2*X48915Y54590D1*X49040Y54465D2*X48115Y54465D1*X47993Y54343D2*X49162Y54343D1*X49286Y54219D2*X47869Y54219D1*X47747Y54097D2*X49408Y54097D1*X49533Y53972D2*X47622Y53972D1*X47501Y53851D2*X49654Y53851D1*X49779Y53726D2*X47376Y53726D1*X49848Y53658D2*X48578Y54928D1*X47308Y53658*X49848Y53658*X70422Y29528D2*X70576Y29492D1*X70726Y29446*X70876Y29393*X71021Y29329*X71161Y29258*X71298Y29177*X71430Y29088*X71554Y28992*X71674Y28890*X71785Y28778*X71892Y28661*X71991Y28537*X72080Y28407*X72164Y28273*X72238Y28133*X72304Y27988*X72360Y27841*X72408Y27691*X72446Y27536*X72474Y27381*X72494Y27224*X72504Y27066*X72504Y26909*X72494Y26751*X72474Y26594*X72446Y26439*X72408Y26284*X72360Y26134*X72304Y25987*X72238Y25842*X72164Y25702*X72080Y25568*X71991Y25438*X71892Y25314*X71785Y25197*X71674Y25085*X71554Y24983*X71430Y24887*X71298Y24798*X71161Y24717*X71021Y24646*X70876Y24582*X70726Y24529*X70576Y24483*X70422Y24448*X42210Y14305D2*X42245Y14305D1*X42370Y14430D2*X42085Y14430D1*X41963Y14552D2*X42492Y14552D1*X42616Y14676D2*X41839Y14676D1*X41717Y14798D2*X42738Y14798D1*X42862Y14922D2*X41592Y14922D1*X41471Y15044D2*X42984Y15044D1*X43109Y15169D2*X41346Y15169D1*X41224Y15291D2*X43231Y15291D1*X43355Y15415D2*X41100Y15415D1*X40978Y15537D2*X43477Y15537D1*X40958Y15558D2*X43498Y15558D1*X42228Y14288*X40958Y15558*X13272Y29528D2*X13426Y29492D1*X13576Y29446*X13726Y29393*X13871Y29329*X14011Y29258*X14148Y29177*X14280Y29088*X14404Y28992*X14524Y28890*X14635Y28778*X14742Y28661*X14841Y28537*X14930Y28407*X15014Y28273*X15088Y28133*X15154Y27988*X15210Y27841*X15258Y27691*X15296Y27536*X15324Y27381*X15344Y27224*X15354Y27066*X15354Y26909*X15344Y26751*X15324Y26594*X15296Y26439*X15258Y26284*X15210Y26134*X15154Y25987*X15088Y25842*X15014Y25702*X14930Y25568*X14841Y25438*X14742Y25314*X14635Y25197*X14524Y25085*X14404Y24983*X14280Y24887*X14148Y24798*X14011Y24717*X13871Y24646*X13726Y24582*X13576Y24529*X13426Y24483*X13272Y24448*X11748Y24448*X11748Y29528*X13272Y29528*X13272Y30798D2*X13426Y30833D1*X13576Y30879*X13726Y30932*X13871Y30996*X14011Y31067*X14148Y31148*X14280Y31237*X14404Y31333*X14524Y31435*X14635Y31547*X14742Y31664*X14841Y31788*X14930Y31918*X15014Y32052*X15088Y32192*X15154Y32337*X15210Y32484*X15258Y32634*X15296Y32789*X15324Y32944*X15344Y33101*X15354Y33259*X15354Y33416*X15344Y33574*X15324Y33731*X15296Y33886*X15258Y34041*X15210Y34191*X15154Y34338*X15088Y34483*X15014Y34623*X14930Y34757*X14841Y34887*X14742Y35011*X14635Y35128*X14524Y35240*X14404Y35342*X14280Y35438*X14148Y35527*X14011Y35608*X13871Y35679*X13726Y35743*X13576Y35796*X13426Y35842*X13272Y35878*X13272Y37148D2*X13426Y37183D1*X13576Y37229*X13726Y37282*X13871Y37346*X14011Y37417*X14148Y37498*X14280Y37587*X14404Y37683*X14524Y37785*X14635Y37897*X14742Y38014*X14841Y38138*X14930Y38268*X15014Y38402*X15088Y38542*X15154Y38687*X15210Y38834*X15258Y38984*X15296Y39139*X15324Y39294*X15344Y39451*X15354Y39609*X15354Y39766*X15344Y39924*X15324Y40081*X15296Y40236*X15258Y40391*X15210Y40541*X15154Y40688*X15088Y40833*X15014Y40973*X14930Y41107*X14841Y41237*X14742Y41361*X14635Y41478*X14524Y41590*X14404Y41692*X14280Y41788*X14148Y41877*X14011Y41958*X13871Y42029*X13726Y42093*X13576Y42146*X13426Y42192*X13272Y42228*X11748Y42228*X11748Y37148*X13272Y37148*X13272Y35878D2*X11748Y35878D1*X11748Y30798*X13272Y30798*X19622Y30798D2*X19776Y30833D1*X19926Y30879*X20076Y30932*X20221Y30996*X20361Y31067*X20498Y31148*X20630Y31237*X20754Y31333*X20874Y31435*X20985Y31547*X21092Y31664*X21191Y31788*X21280Y31918*X21364Y32052*X21438Y32192*X21504Y32337*X21560Y32484*X21608Y32634*X21646Y32789*X21674Y32944*X21694Y33101*X21704Y33259*X21704Y33416*X21694Y33574*X21674Y33731*X21646Y33886*X21608Y34041*X21560Y34191*X21504Y34338*X21438Y34483*X21364Y34623*X21280Y34757*X21191Y34887*X21092Y35011*X20985Y35128*X20874Y35240*X20754Y35342*X20630Y35438*X20498Y35527*X20361Y35608*X20221Y35679*X20076Y35743*X19926Y35796*X19776Y35842*X19622Y35878*X19622Y37148D2*X19776Y37183D1*X19926Y37229*X20076Y37282*X20221Y37346*X20361Y37417*X20498Y37498*X20630Y37587*X20754Y37683*X20874Y37785*X20985Y37897*X21092Y38014*X21191Y38138*X21280Y38268*X21364Y38402*X21438Y38542*X21504Y38687*X21560Y38834*X21608Y38984*X21646Y39139*X21674Y39294*X21694Y39451*X21704Y39609*X21704Y39766*X21694Y39924*X21674Y40081*X21646Y40236*X21608Y40391*X21560Y40541*X21504Y40688*X21438Y40833*X21364Y40973*X21280Y41107*X21191Y41237*X21092Y41361*X20985Y41478*X20874Y41590*X20754Y41692*X20630Y41788*X20498Y41877*X20361Y41958*X20221Y42029*X20076Y42093*X19926Y42146*X19776Y42192*X19622Y42228*X18098Y42228*X18098Y37148*X19622Y37148*X19622Y35878D2*X18098Y35878D1*X18098Y30798*X19622Y30798*X19622Y29528D2*X19776Y29492D1*X19926Y29446*X20076Y29393*X20221Y29329*X20361Y29258*X20498Y29177*X20630Y29088*X20754Y28992*X20874Y28890*X20985Y28778*X21092Y28661*X21191Y28537*X21280Y28407*X21364Y28273*X21438Y28133*X21504Y27988*X21560Y27841*X21608Y27691*X21646Y27536*X21674Y27381*X21694Y27224*X21704Y27066*X21704Y26909*X21694Y26751*X21674Y26594*X21646Y26439*X21608Y26284*X21560Y26134*X21504Y25987*X21438Y25842*X21364Y25702*X21280Y25568*X21191Y25438*X21092Y25314*X20985Y25197*X20874Y25085*X20754Y24983*X20630Y24887*X20498Y24798*X20361Y24717*X20221Y24646*X20076Y24582*X19926Y24529*X19776Y24483*X19622Y24448*X18098Y24448*X18098Y29528*X19622Y29528*X25972Y29528D2*X26126Y29492D1*X26276Y29446*X26426Y29393*X26571Y29329*X26711Y29258*X26848Y29177*X26980Y29088*X27104Y28992*X27224Y28890*X27335Y28778*X27442Y28661*X27541Y28537*X27630Y28407*X27714Y28273*X27788Y28133*X27854Y27988*X27910Y27841*X27958Y27691*X27996Y27536*X28024Y27381*X28044Y27224*X28054Y27066*X28054Y26909*X28044Y26751*X28024Y26594*X27996Y26439*X27958Y26284*X27910Y26134*X27854Y25987*X27788Y25842*X27714Y25702*X27630Y25568*X27541Y25438*X27442Y25314*X27335Y25197*X27224Y25085*X27104Y24983*X26980Y24887*X26848Y24798*X26711Y24717*X26571Y24646*X26426Y24582*X26276Y24529*X26126Y24483*X25972Y24448*X24448Y24448*X24448Y29528*X25972Y29528*X25972Y30798D2*X26126Y30833D1*X26276Y30879*X26426Y30932*X26571Y30996*X26711Y31067*X26848Y31148*X26980Y31237*X27104Y31333*X27224Y31435*X27335Y31547*X27442Y31664*X27541Y31788*X27630Y31918*X27714Y32052*X27788Y32192*X27854Y32337*X27910Y32484*X27958Y32634*X27996Y32789*X28024Y32944*X28044Y33101*X28054Y33259*X28054Y33416*X28044Y33574*X28024Y33731*X27996Y33886*X27958Y34041*X27910Y34191*X27854Y34338*X27788Y34483*X27714Y34623*X27630Y34757*X27541Y34887*X27442Y35011*X27335Y35128*X27224Y35240*X27104Y35342*X26980Y35438*X26848Y35527*X26711Y35608*X26571Y35679*X26426Y35743*X26276Y35796*X26126Y35842*X25972Y35878*X25972Y37148D2*X26126Y37183D1*X26276Y37229*X26426Y37282*X26571Y37346*X26711Y37417*X26848Y37498*X26980Y37587*X27104Y37683*X27224Y37785*X27335Y37897*X27442Y38014*X27541Y38138*X27630Y38268*X27714Y38402*X27788Y38542*X27854Y38687*X27910Y38834*X27958Y38984*X27996Y39139*X28024Y39294*X28044Y39451*X28054Y39609*X28054Y39766*X28044Y39924*X28024Y40081*X27996Y40236*X27958Y40391*X27910Y40541*X27854Y40688*X27788Y40833*X27714Y40973*X27630Y41107*X27541Y41237*X27442Y41361*X27335Y41478*X27224Y41590*X27104Y41692*X26980Y41788*X26848Y41877*X26711Y41958*X26571Y42029*X26426Y42093*X26276Y42146*X26126Y42192*X25972Y42228*X24448Y42228*X24448Y37148*X25972Y37148*X25972Y35878D2*X24448Y35878D1*X24448Y30798*X25972Y30798*X32322Y30798D2*X32476Y30833D1*X32626Y30879*X32776Y30932*X32921Y30996*X33061Y31067*X33198Y31148*X33330Y31237*X33454Y31333*X33574Y31435*X33685Y31547*X33792Y31664*X33891Y31788*X33980Y31918*X34064Y32052*X34138Y32192*X34204Y32337*X34260Y32484*X34308Y32634*X34346Y32789*X34374Y32944*X34394Y33101*X34404Y33259*X34404Y33416*X34394Y33574*X34374Y33731*X34346Y33886*X34308Y34041*X34260Y34191*X34204Y34338*X34138Y34483*X34064Y34623*X33980Y34757*X33891Y34887*X33792Y35011*X33685Y35128*X33574Y35240*X33454Y35342*X33330Y35438*X33198Y35527*X33061Y35608*X32921Y35679*X32776Y35743*X32626Y35796*X32476Y35842*X32322Y35878*X32322Y37148D2*X32476Y37183D1*X32626Y37229*X32776Y37282*X32921Y37346*X33061Y37417*X33198Y37498*X33330Y37587*X33454Y37683*X33574Y37785*X33685Y37897*X33792Y38014*X33891Y38138*X33980Y38268*X34064Y38402*X34138Y38542*X34204Y38687*X34260Y38834*X34308Y38984*X34346Y39139*X34374Y39294*X34394Y39451*X34404Y39609*X34404Y39766*X34394Y39924*X34374Y40081*X34346Y40236*X34308Y40391*X34260Y40541*X34204Y40688*X34138Y40833*X34064Y40973*X33980Y41107*X33891Y41237*X33792Y41361*X33685Y41478*X33574Y41590*X33454Y41692*X33330Y41788*X33198Y41877*X33061Y41958*X32921Y42029*X32776Y42093*X32626Y42146*X32476Y42192*X32322Y42228*X30798Y42228*X30798Y37148*X32322Y37148*X32322Y35878D2*X30798Y35878D1*X30798Y30798*X32322Y30798*X32322Y29528D2*X32476Y29492D1*X32626Y29446*X32776Y29393*X32921Y29329*X33061Y29258*X33198Y29177*X33330Y29088*X33454Y28992*X33574Y28890*X33685Y28778*X33792Y28661*X33891Y28537*X33980Y28407*X34064Y28273*X34138Y28133*X34204Y27988*X34260Y27841*X34308Y27691*X34346Y27536*X34374Y27381*X34394Y27224*X34404Y27066*X34404Y26909*X34394Y26751*X34374Y26594*X34346Y26439*X34308Y26284*X34260Y26134*X34204Y25987*X34138Y25842*X34064Y25702*X33980Y25568*X33891Y25438*X33792Y25314*X33685Y25197*X33574Y25085*X33454Y24983*X33330Y24887*X33198Y24798*X33061Y24717*X32921Y24646*X32776Y24582*X32626Y24529*X32476Y24483*X32322Y24448*X30798Y24448*X30798Y29528*X32322Y29528*X38672Y29528D2*X38826Y29492D1*X38976Y29446*X39126Y29393*X39271Y29329*X39411Y29258*X39548Y29177*X39680Y29088*X39804Y28992*X39924Y28890*X40035Y28778*X40142Y28661*X40241Y28537*X40330Y28407*X40414Y28273*X40488Y28133*X40554Y27988*X40610Y27841*X40658Y27691*X40696Y27536*X40724Y27381*X40744Y27224*X40754Y27066*X40754Y26909*X40744Y26751*X40724Y26594*X40696Y26439*X40658Y26284*X40610Y26134*X40554Y25987*X40488Y25842*X40414Y25702*X40330Y25568*X40241Y25438*X40142Y25314*X40035Y25197*X39924Y25085*X39804Y24983*X39680Y24887*X39548Y24798*X39411Y24717*X39271Y24646*X39126Y24582*X38976Y24529*X38826Y24483*X38672Y24448*X37148Y24448*X37148Y29528*X38672Y29528*X38672Y30798D2*X38826Y30833D1*X38976Y30879*X39126Y30932*X39271Y30996*X39411Y31067*X39548Y31148*X39680Y31237*X39804Y31333*X39924Y31435*X40035Y31547*X40142Y31664*X40241Y31788*X40330Y31918*X40414Y32052*X40488Y32192*X40554Y32337*X40610Y32484*X40658Y32634*X40696Y32789*X40724Y32944*X40744Y33101*X40754Y33259*X40754Y33416*X40744Y33574*X40724Y33731*X40696Y33886*X40658Y34041*X40610Y34191*X40554Y34338*X40488Y34483*X40414Y34623*X40330Y34757*X40241Y34887*X40142Y35011*X40035Y35128*X39924Y35240*X39804Y35342*X39680Y35438*X39548Y35527*X39411Y35608*X39271Y35679*X39126Y35743*X38976Y35796*X38826Y35842*X38672Y35878*X38672Y37148D2*X38826Y37183D1*X38976Y37229*X39126Y37282*X39271Y37346*X39411Y37417*X39548Y37498*X39680Y37587*X39804Y37683*X39924Y37785*X40035Y37897*X40142Y38014*X40241Y38138*X40330Y38268*X40414Y38402*X40488Y38542*X40554Y38687*X40610Y38834*X40658Y38984*X40696Y39139*X40724Y39294*X40744Y39451*X40754Y39609*X40754Y39766*X40744Y39924*X40724Y40081*X40696Y40236*X40658Y40391*X40610Y40541*X40554Y40688*X40488Y40833*X40414Y40973*X40330Y41107*X40241Y41237*X40142Y41361*X40035Y41478*X39924Y41590*X39804Y41692*X39680Y41788*X39548Y41877*X39411Y41958*X39271Y42029*X39126Y42093*X38976Y42146*X38826Y42192*X38672Y42228*X37148Y42228*X37148Y37148*X38672Y37148*X38672Y35878D2*X37148Y35878D1*X37148Y30798*X38672Y30798*X45022Y30798D2*X45176Y30833D1*X45326Y30879*X45476Y30932*X45621Y30996*X45761Y31067*X45898Y31148*X46030Y31237*X46154Y31333*X46274Y31435*X46385Y31547*X46492Y31664*X46591Y31788*X46680Y31918*X46764Y32052*X46838Y32192*X46904Y32337*X46960Y32484*X47008Y32634*X47046Y32789*X47074Y32944*X47094Y33101*X47104Y33259*X47104Y33416*X47094Y33574*X47074Y33731*X47046Y33886*X47008Y34041*X46960Y34191*X46904Y34338*X46838Y34483*X46764Y34623*X46680Y34757*X46591Y34887*X46492Y35011*X46385Y35128*X46274Y35240*X46154Y35342*X46030Y35438*X45898Y35527*X45761Y35608*X45621Y35679*X45476Y35743*X45326Y35796*X45176Y35842*X45022Y35878*X45022Y37148D2*X45176Y37183D1*X45326Y37229*X45476Y37282*X45621Y37346*X45761Y37417*X45898Y37498*X46030Y37587*X46154Y37683*X46274Y37785*X46385Y37897*X46492Y38014*X46591Y38138*X46680Y38268*X46764Y38402*X46838Y38542*X46904Y38687*X46960Y38834*X47008Y38984*X47046Y39139*X47074Y39294*X47094Y39451*X47104Y39609*X47104Y39766*X47094Y39924*X47074Y40081*X47046Y40236*X47008Y40391*X46960Y40541*X46904Y40688*X46838Y40833*X46764Y40973*X46680Y41107*X46591Y41237*X46492Y41361*X46385Y41478*X46274Y41590*X46154Y41692*X46030Y41788*X45898Y41877*X45761Y41958*X45621Y42029*X45476Y42093*X45326Y42146*X45176Y42192*X45022Y42228*X43498Y42228*X43498Y37148*X45022Y37148*X45022Y35878D2*X43498Y35878D1*X43498Y30798*X45022Y30798*X45022Y29528D2*X45176Y29492D1*X45326Y29446*X45476Y29393*X45621Y29329*X45761Y29258*X45898Y29177*X46030Y29088*X46154Y28992*X46274Y28890*X46385Y28778*X46492Y28661*X46591Y28537*X46680Y28407*X46764Y28273*X46838Y28133*X46904Y27988*X46960Y27841*X47008Y27691*X47046Y27536*X47074Y27381*X47094Y27224*X47104Y27066*X47104Y26909*X47094Y26751*X47074Y26594*X47046Y26439*X47008Y26284*X46960Y26134*X46904Y25987*X46838Y25842*X46764Y25702*X46680Y25568*X46591Y25438*X46492Y25314*X46385Y25197*X46274Y25085*X46154Y24983*X46030Y24887*X45898Y24798*X45761Y24717*X45621Y24646*X45476Y24582*X45326Y24529*X45176Y24483*X45022Y24448*X43498Y24448*X43498Y29528*X45022Y29528*X51372Y29528D2*X51526Y29492D1*X51676Y29446*X51826Y29393*X51971Y29329*X52111Y29258*X52248Y29177*X52380Y29088*X52504Y28992*X52624Y28890*X52735Y28778*X52842Y28661*X52941Y28537*X53030Y28407*X53114Y28273*X53188Y28133*X53254Y27988*X53310Y27841*X53358Y27691*X53396Y27536*X53424Y27381*X53444Y27224*X53454Y27066*X53454Y26909*X53444Y26751*X53424Y26594*X53396Y26439*X53358Y26284*X53310Y26134*X53254Y25987*X53188Y25842*X53114Y25702*X53030Y25568*X52941Y25438*X52842Y25314*X52735Y25197*X52624Y25085*X52504Y24983*X52380Y24887*X52248Y24798*X52111Y24717*X51971Y24646*X51826Y24582*X51676Y24529*X51526Y24483*X51372Y24448*X49848Y24448*X49848Y29528*X51372Y29528*X51372Y30798D2*X51526Y30833D1*X51676Y30879*X51826Y30932*X51971Y30996*X52111Y31067*X52248Y31148*X52380Y31237*X52504Y31333*X52624Y31435*X52735Y31547*X52842Y31664*X52941Y31788*X53030Y31918*X53114Y32052*X53188Y32192*X53254Y32337*X53310Y32484*X53358Y32634*X53396Y32789*X53424Y32944*X53444Y33101*X53454Y33259*X53454Y33416*X53444Y33574*X53424Y33731*X53396Y33886*X53358Y34041*X53310Y34191*X53254Y34338*X53188Y34483*X53114Y34623*X53030Y34757*X52941Y34887*X52842Y35011*X52735Y35128*X52624Y35240*X52504Y35342*X52380Y35438*X52248Y35527*X52111Y35608*X51971Y35679*X51826Y35743*X51676Y35796*X51526Y35842*X51372Y35878*X51372Y37148D2*X51526Y37183D1*X51676Y37229*X51826Y37282*X51971Y37346*X52111Y37417*X52248Y37498*X52380Y37587*X52504Y37683*X52624Y37785*X52735Y37897*X52842Y38014*X52941Y38138*X53030Y38268*X53114Y38402*X53188Y38542*X53254Y38687*X53310Y38834*X53358Y38984*X53396Y39139*X53424Y39294*X53444Y39451*X53454Y39609*X53454Y39766*X53444Y39924*X53424Y40081*X53396Y40236*X53358Y40391*X53310Y40541*X53254Y40688*X53188Y40833*X53114Y40973*X53030Y41107*X52941Y41237*X52842Y41361*X52735Y41478*X52624Y41590*X52504Y41692*X52380Y41788*X52248Y41877*X52111Y41958*X51971Y42029*X51826Y42093*X51676Y42146*X51526Y42192*X51372Y42228*X49848Y42228*X49848Y37148*X51372Y37148*X51372Y35878D2*X49848Y35878D1*X49848Y30798*X51372Y30798*X57722Y30798D2*X57876Y30833D1*X58026Y30879*X58176Y30932*X58321Y30996*X58461Y31067*X58598Y31148*X58730Y31237*X58854Y31333*X58974Y31435*X59085Y31547*X59192Y31664*X59291Y31788*X59380Y31918*X59464Y32052*X59538Y32192*X59604Y32337*X59660Y32484*X59708Y32634*X59746Y32789*X59774Y32944*X59794Y33101*X59804Y33259*X59804Y33416*X59794Y33574*X59774Y33731*X59746Y33886*X59708Y34041*X59660Y34191*X59604Y34338*X59538Y34483*X59464Y34623*X59380Y34757*X59291Y34887*X59192Y35011*X59085Y35128*X58974Y35240*X58854Y35342*X58730Y35438*X58598Y35527*X58461Y35608*X58321Y35679*X58176Y35743*X58026Y35796*X57876Y35842*X57722Y35878*X57722Y37148D2*X57876Y37183D1*X58026Y37229*X58176Y37282*X58321Y37346*X58461Y37417*X58598Y37498*X58730Y37587*X58854Y37683*X58974Y37785*X59085Y37897*X59192Y38014*X59291Y38138*X59380Y38268*X59464Y38402*X59538Y38542*X59604Y38687*X59660Y38834*X59708Y38984*X59746Y39139*X59774Y39294*X59794Y39451*X59804Y39609*X59804Y39766*X59794Y39924*X59774Y40081*X59746Y40236*X59708Y40391*X59660Y40541*X59604Y40688*X59538Y40833*X59464Y40973*X59380Y41107*X59291Y41237*X59192Y41361*X59085Y41478*X58974Y41590*X58854Y41692*X58730Y41788*X58598Y41877*X58461Y41958*X58321Y42029*X58176Y42093*X58026Y42146*X57876Y42192*X57722Y42228*X56198Y42228*X56198Y37148*X57722Y37148*X57722Y35878D2*X56198Y35878D1*X56198Y30798*X57722Y30798*X57722Y29528D2*X57876Y29492D1*X58026Y29446*X58176Y29393*X58321Y29329*X58461Y29258*X58598Y29177*X58730Y29088*X58854Y28992*X58974Y28890*X59085Y28778*X59192Y28661*X59291Y28537*X59380Y28407*X59464Y28273*X59538Y28133*X59604Y27988*X59660Y27841*X59708Y27691*X59746Y27536*X59774Y27381*X59794Y27224*X59804Y27066*X59804Y26909*X59794Y26751*X59774Y26594*X59746Y26439*X59708Y26284*X59660Y26134*X59604Y25987*X59538Y25842*X59464Y25702*X59380Y25568*X59291Y25438*X59192Y25314*X59085Y25197*X58974Y25085*X58854Y24983*X58730Y24887*X58598Y24798*X58461Y24717*X58321Y24646*X58176Y24582*X58026Y24529*X57876Y24483*X57722Y24448*X56198Y24448*X56198Y29528*X57722Y29528*X64072Y29528D2*X64226Y29492D1*X64376Y29446*X64526Y29393*X64671Y29329*X64811Y29258*X64948Y29177*X65080Y29088*X65204Y28992*X65324Y28890*X65435Y28778*X65542Y28661*X65641Y28537*X65730Y28407*X65814Y28273*X65888Y28133*X65954Y27988*X66010Y27841*X66058Y27691*X66096Y27536*X66124Y27381*X66144Y27224*X66154Y27066*X66154Y26909*X66144Y26751*X66124Y26594*X66096Y26439*X66058Y26284*X66010Y26134*X65954Y25987*X65888Y25842*X65814Y25702*X65730Y25568*X65641Y25438*X65542Y25314*X65435Y25197*X65324Y25085*X65204Y24983*X65080Y24887*X64948Y24798*X64811Y24717*X64671Y24646*X64526Y24582*X64376Y24529*X64226Y24483*X64072Y24448*X62548Y24448*X62548Y29528*X64072Y29528*X64072Y30798D2*X64226Y30833D1*X64376Y30879*X64526Y30932*X64671Y30996*X64811Y31067*X64948Y31148*X65080Y31237*X65204Y31333*X65324Y31435*X65435Y31547*X65542Y31664*X65641Y31788*X65730Y31918*X65814Y32052*X65888Y32192*X65954Y32337*X66010Y32484*X66058Y32634*X66096Y32789*X66124Y32944*X66144Y33101*X66154Y33259*X66154Y33416*X66144Y33574*X66124Y33731*X66096Y33886*X66058Y34041*X66010Y34191*X65954Y34338*X65888Y34483*X65814Y34623*X65730Y34757*X65641Y34887*X65542Y35011*X65435Y35128*X65324Y35240*X65204Y35342*X65080Y35438*X64948Y35527*X64811Y35608*X64671Y35679*X64526Y35743*X64376Y35796*X64226Y35842*X64072Y35878*X64072Y37148D2*X64226Y37183D1*X64376Y37229*X64526Y37282*X64671Y37346*X64811Y37417*X64948Y37498*X65080Y37587*X65204Y37683*X65324Y37785*X65435Y37897*X65542Y38014*X65641Y38138*X65730Y38268*X65814Y38402*X65888Y38542*X65954Y38687*X66010Y38834*X66058Y38984*X66096Y39139*X66124Y39294*X66144Y39451*X66154Y39609*X66154Y39766*X66144Y39924*X66124Y40081*X66096Y40236*X66058Y40391*X66010Y40541*X65954Y40688*X65888Y40833*X65814Y40973*X65730Y41107*X65641Y41237*X65542Y41361*X65435Y41478*X65324Y41590*X65204Y41692*X65080Y41788*X64948Y41877*X64811Y41958*X64671Y42029*X64526Y42093*X64376Y42146*X64226Y42192*X64072Y42228*X62548Y42228*X62548Y37148*X64072Y37148*X64072Y35878D2*X62548Y35878D1*X62548Y30798*X64072Y30798*X70422Y30798D2*X70576Y30833D1*X70726Y30879*X70876Y30932*X71021Y30996*X71161Y31067*X71298Y31148*X71430Y31237*X71554Y31333*X71674Y31435*X71785Y31547*X71892Y31664*X71991Y31788*X72080Y31918*X72164Y32052*X72238Y32192*X72304Y32337*X72360Y32484*X72408Y32634*X72446Y32789*X72474Y32944*X72494Y33101*X72504Y33259*X72504Y33416*X72494Y33574*X72474Y33731*X72446Y33886*X72408Y34041*X72360Y34191*X72304Y34338*X72238Y34483*X72164Y34623*X72080Y34757*X71991Y34887*X71892Y35011*X71785Y35128*X71674Y35240*X71554Y35342*X71430Y35438*X71298Y35527*X71161Y35608*X71021Y35679*X70876Y35743*X70726Y35796*X70576Y35842*X70422Y35878*X70422Y37148D2*X70576Y37183D1*X70726Y37229*X70876Y37282*X71021Y37346*X71161Y37417*X71298Y37498*X71430Y37587*X71554Y37683*X71674Y37785*X71785Y37897*X71892Y38014*X71991Y38138*X72080Y38268*X72164Y38402*X72238Y38542*X72304Y38687*X72360Y38834*X72408Y38984*X72446Y39139*X72474Y39294*X72494Y39451*X72504Y39609*X72504Y39766*X72494Y39924*X72474Y40081*X72446Y40236*X72408Y40391*X72360Y40541*X72304Y40688*X72238Y40833*X72164Y40973*X72080Y41107*X71991Y41237*X71892Y41361*X71785Y41478*X71674Y41590*X71554Y41692*X71430Y41788*X71298Y41877*X71161Y41958*X71021Y42029*X70876Y42093*X70726Y42146*X70576Y42192*X70422Y42228*X68898Y42228*X68898Y37148*X70422Y37148*X70422Y35878D2*X68898Y35878D1*X68898Y30798*X70422Y30798*X70422Y29528D2*X68898Y29528D1*X68898Y24448*X70422Y24448*X83122Y24448D2*X83276Y24483D1*X83426Y24529*X83576Y24582*X83721Y24646*X83861Y24717*X83998Y24798*X84130Y24887*X84254Y24983*X84374Y25085*X84485Y25197*X84592Y25314*X84691Y25438*X84780Y25568*X84864Y25702*X84938Y25842*X85004Y25987*X85060Y26134*X85108Y26284*X85146Y26439*X85174Y26594*X85194Y26751*X85204Y26909*X85204Y27066*X85194Y27224*X85174Y27381*X85146Y27536*X85108Y27691*X85060Y27841*X85004Y27988*X84938Y28133*X84864Y28273*X84780Y28407*X84691Y28537*X84592Y28661*X84485Y28778*X84374Y28890*X84254Y28992*X84130Y29088*X83998Y29177*X83861Y29258*X83721Y29329*X83576Y29393*X83426Y29446*X83276Y29492*X83122Y29528*X76772Y29528D2*X76926Y29492D1*X77076Y29446*X77226Y29393*X77371Y29329*X77511Y29258*X77648Y29177*X77780Y29088*X77904Y28992*X78024Y28890*X78135Y28778*X78242Y28661*X78341Y28537*X78430Y28407*X78514Y28273*X78588Y28133*X78654Y27988*X78710Y27841*X78758Y27691*X78796Y27536*X78824Y27381*X78844Y27224*X78854Y27066*X78854Y26909*X78844Y26751*X78824Y26594*X78796Y26439*X78758Y26284*X78710Y26134*X78654Y25987*X78588Y25842*X78514Y25702*X78430Y25568*X78341Y25438*X78242Y25314*X78135Y25197*X78024Y25085*X77904Y24983*X77780Y24887*X77648Y24798*X77511Y24717*X77371Y24646*X77226Y24582*X77076Y24529*X76926Y24483*X76772Y24448*X75248Y24448*X75248Y29528*X76772Y29528*X76772Y30798D2*X76926Y30833D1*X77076Y30879*X77226Y30932*X77371Y30996*X77511Y31067*X77648Y31148*X77780Y31237*X77904Y31333*X78024Y31435*X78135Y31547*X78242Y31664*X78341Y31788*X78430Y31918*X78514Y32052*X78588Y32192*X78654Y32337*X78710Y32484*X78758Y32634*X78796Y32789*X78824Y32944*X78844Y33101*X78854Y33259*X78854Y33416*X78844Y33574*X78824Y33731*X78796Y33886*X78758Y34041*X78710Y34191*X78654Y34338*X78588Y34483*X78514Y34623*X78430Y34757*X78341Y34887*X78242Y35011*X78135Y35128*X78024Y35240*X77904Y35342*X77780Y35438*X77648Y35527*X77511Y35608*X77371Y35679*X77226Y35743*X77076Y35796*X76926Y35842*X76772Y35878*X76772Y37148D2*X76926Y37183D1*X77076Y37229*X77226Y37282*X77371Y37346*X77511Y37417*X77648Y37498*X77780Y37587*X77904Y37683*X78024Y37785*X78135Y37897*X78242Y38014*X78341Y38138*X78430Y38268*X78514Y38402*X78588Y38542*X78654Y38687*X78710Y38834*X78758Y38984*X78796Y39139*X78824Y39294*X78844Y39451*X78854Y39609*X78854Y39766*X78844Y39924*X78824Y40081*X78796Y40236*X78758Y40391*X78710Y40541*X78654Y40688*X78588Y40833*X78514Y40973*X78430Y41107*X78341Y41237*X78242Y41361*X78135Y41478*X78024Y41590*X77904Y41692*X77780Y41788*X77648Y41877*X77511Y41958*X77371Y42029*X77226Y42093*X77076Y42146*X76926Y42192*X76772Y42228*X75248Y42228*X75248Y37148*X76772Y37148*X76772Y35878D2*X75248Y35878D1*X75248Y30798*X76772Y30798*X83122Y30798D2*X83276Y30833D1*X83426Y30879*X83576Y30932*X83721Y30996*X83861Y31067*X83998Y31148*X84130Y31237*X84254Y31333*X84374Y31435*X84485Y31547*X84592Y31664*X84691Y31788*X84780Y31918*X84864Y32052*X84938Y32192*X85004Y32337*X85060Y32484*X85108Y32634*X85146Y32789*X85174Y32944*X85194Y33101*X85204Y33259*X85204Y33416*X85194Y33574*X85174Y33731*X85146Y33886*X85108Y34041*X85060Y34191*X85004Y34338*X84938Y34483*X84864Y34623*X84780Y34757*X84691Y34887*X84592Y35011*X84485Y35128*X84374Y35240*X84254Y35342*X84130Y35438*X83998Y35527*X83861Y35608*X83721Y35679*X83576Y35743*X83426Y35796*X83276Y35842*X83122Y35878*X83122Y37148D2*X83276Y37183D1*X83426Y37229*X83576Y37282*X83721Y37346*X83861Y37417*X83998Y37498*X84130Y37587*X84254Y37683*X84374Y37785*X84485Y37897*X84592Y38014*X84691Y38138*X84780Y38268*X84864Y38402*X84938Y38542*X85004Y38687*X85060Y38834*X85108Y38984*X85146Y39139*X85174Y39294*X85194Y39451*X85204Y39609*X85204Y39766*X85194Y39924*X85174Y40081*X85146Y40236*X85108Y40391*X85060Y40541*X85004Y40688*X84938Y40833*X84864Y40973*X84780Y41107*X84691Y41237*X84592Y41361*X84485Y41478*X84374Y41590*X84254Y41692*X84130Y41788*X83998Y41877*X83861Y41958*X83721Y42029*X83576Y42093*X83426Y42146*X83276Y42192*X83122Y42228*X81598Y42228*X81598Y37148*X83122Y37148*X83122Y35878D2*X81598Y35878D1*X81598Y30798*X83122Y30798*X83122Y29528D2*X81598Y29528D1*X81598Y24448*X83122Y24448*X95822Y24448D2*X95976Y24483D1*X96126Y24529*X96276Y24582*X96421Y24646*X96561Y24717*X96698Y24798*X96830Y24887*X96954Y24983*X97074Y25085*X97185Y25197*X97292Y25314*X97391Y25438*X97480Y25568*X97564Y25702*X97638Y25842*X97704Y25987*X97760Y26134*X97808Y26284*X97846Y26439*X97874Y26594*X97894Y26751*X97904Y26909*X97904Y27066*X97894Y27224*X97874Y27381*X97846Y27536*X97808Y27691*X97760Y27841*X97704Y27988*X97638Y28133*X97564Y28273*X97480Y28407*X97391Y28537*X97292Y28661*X97185Y28778*X97074Y28890*X96954Y28992*X96830Y29088*X96698Y29177*X96561Y29258*X96421Y29329*X96276Y29393*X96126Y29446*X95976Y29492*X95822Y29528*X89472Y29528D2*X89626Y29492D1*X89776Y29446*X89926Y29393*X90071Y29329*X90211Y29258*X90348Y29177*X90480Y29088*X90604Y28992*X90724Y28890*X90835Y28778*X90942Y28661*X91041Y28537*X91130Y28407*X91214Y28273*X91288Y28133*X91354Y27988*X91410Y27841*X91458Y27691*X91496Y27536*X91524Y27381*X91544Y27224*X91554Y27066*X91554Y26909*X91544Y26751*X91524Y26594*X91496Y26439*X91458Y26284*X91410Y26134*X91354Y25987*X91288Y25842*X91214Y25702*X91130Y25568*X91041Y25438*X90942Y25314*X90835Y25197*X90724Y25085*X90604Y24983*X90480Y24887*X90348Y24798*X90211Y24717*X90071Y24646*X89926Y24582*X89776Y24529*X89626Y24483*X89472Y24448*X87948Y24448*X87948Y29528*X89472Y29528*X89472Y30798D2*X89626Y30833D1*X89776Y30879*X89926Y30932*X90071Y30996*X90211Y31067*X90348Y31148*X90480Y31237*X90604Y31333*X90724Y31435*X90835Y31547*X90942Y31664*X91041Y31788*X91130Y31918*X91214Y32052*X91288Y32192*X91354Y32337*X91410Y32484*X91458Y32634*X91496Y32789*X91524Y32944*X91544Y33101*X91554Y33259*X91554Y33416*X91544Y33574*X91524Y33731*X91496Y33886*X91458Y34041*X91410Y34191*X91354Y34338*X91288Y34483*X91214Y34623*X91130Y34757*X91041Y34887*X90942Y35011*X90835Y35128*X90724Y35240*X90604Y35342*X90480Y35438*X90348Y35527*X90211Y35608*X90071Y35679*X89926Y35743*X89776Y35796*X89626Y35842*X89472Y35878*X89472Y37148D2*X89626Y37183D1*X89776Y37229*X89926Y37282*X90071Y37346*X90211Y37417*X90348Y37498*X90480Y37587*X90604Y37683*X90724Y37785*X90835Y37897*X90942Y38014*X91041Y38138*X91130Y38268*X91214Y38402*X91288Y38542*X91354Y38687*X91410Y38834*X91458Y38984*X91496Y39139*X91524Y39294*X91544Y39451*X91554Y39609*X91554Y39766*X91544Y39924*X91524Y40081*X91496Y40236*X91458Y40391*X91410Y40541*X91354Y40688*X91288Y40833*X91214Y40973*X91130Y41107*X91041Y41237*X90942Y41361*X90835Y41478*X90724Y41590*X90604Y41692*X90480Y41788*X90348Y41877*X90211Y41958*X90071Y42029*X89926Y42093*X89776Y42146*X89626Y42192*X89472Y42228*X87948Y42228*X87948Y37148*X89472Y37148*X89472Y35878D2*X87948Y35878D1*X87948Y30798*X89472Y30798*X95822Y30798D2*X95976Y30833D1*X96126Y30879*X96276Y30932*X96421Y30996*X96561Y31067*X96698Y31148*X96830Y31237*X96954Y31333*X97074Y31435*X97185Y31547*X97292Y31664*X97391Y31788*X97480Y31918*X97564Y32052*X97638Y32192*X97704Y32337*X97760Y32484*X97808Y32634*X97846Y32789*X97874Y32944*X97894Y33101*X97904Y33259*X97904Y33416*X97894Y33574*X97874Y33731*X97846Y33886*X97808Y34041*X97760Y34191*X97704Y34338*X97638Y34483*X97564Y34623*X97480Y34757*X97391Y34887*X97292Y35011*X97185Y35128*X97074Y35240*X96954Y35342*X96830Y35438*X96698Y35527*X96561Y35608*X96421Y35679*X96276Y35743*X96126Y35796*X95976Y35842*X95822Y35878*X102172Y35878D2*X102326Y35842D1*X102476Y35796*X102626Y35743*X102771Y35679*X102911Y35608*X103048Y35527*X103180Y35438*X103304Y35342*X103424Y35240*X103535Y35128*X103642Y35011*X103741Y34887*X103830Y34757*X103914Y34623*X103988Y34483*X104054Y34338*X104110Y34191*X104158Y34041*X104196Y33886*X104224Y33731*X104244Y33574*X104254Y33416*X104254Y33259*X104244Y33101*X104224Y32944*X104196Y32789*X104158Y32634*X104110Y32484*X104054Y32337*X103988Y32192*X103914Y32052*X103830Y31918*X103741Y31788*X103642Y31664*X103535Y31547*X103424Y31435*X103304Y31333*X103180Y31237*X103048Y31148*X102911Y31067*X102771Y30996*X102626Y30932*X102476Y30879*X102326Y30833*X102172Y30798*X108522Y30798D2*X108676Y30833D1*X108826Y30879*X108976Y30932*X109121Y30996*X109261Y31067*X109398Y31148*X109530Y31237*X109654Y31333*X109774Y31435*X109885Y31547*X109992Y31664*X110091Y31788*X110180Y31918*X110264Y32052*X110338Y32192*X110404Y32337*X110460Y32484*X110508Y32634*X110546Y32789*X110574Y32944*X110594Y33101*X110604Y33259*X110604Y33416*X110594Y33574*X110574Y33731*X110546Y33886*X110508Y34041*X110460Y34191*X110404Y34338*X110338Y34483*X110264Y34623*X110180Y34757*X110091Y34887*X109992Y35011*X109885Y35128*X109774Y35240*X109654Y35342*X109530Y35438*X109398Y35527*X109261Y35608*X109121Y35679*X108976Y35743*X108826Y35796*X108676Y35842*X108522Y35878*X108522Y37148D2*X108676Y37183D1*X108826Y37229*X108976Y37282*X109121Y37346*X109261Y37417*X109398Y37498*X109530Y37587*X109654Y37683*X109774Y37785*X109885Y37897*X109992Y38014*X110091Y38138*X110180Y38268*X110264Y38402*X110338Y38542*X110404Y38687*X110460Y38834*X110508Y38984*X110546Y39139*X110574Y39294*X110594Y39451*X110604Y39609*X110604Y39766*X110594Y39924*X110574Y40081*X110546Y40236*X110508Y40391*X110460Y40541*X110404Y40688*X110338Y40833*X110264Y40973*X110180Y41107*X110091Y41237*X109992Y41361*X109885Y41478*X109774Y41590*X109654Y41692*X109530Y41788*X109398Y41877*X109261Y41958*X109121Y42029*X108976Y42093*X108826Y42146*X108676Y42192*X108522Y42228*X106998Y42228*X106998Y37148*X108522Y37148*X108522Y35878D2*X106998Y35878D1*X106998Y30798*X108522Y30798*X108522Y29528D2*X108676Y29492D1*X108826Y29446*X108976Y29393*X109121Y29329*X109261Y29258*X109398Y29177*X109530Y29088*X109654Y28992*X109774Y28890*X109885Y28778*X109992Y28661*X110091Y28537*X110180Y28407*X110264Y28273*X110338Y28133*X110404Y27988*X110460Y27841*X110508Y27691*X110546Y27536*X110574Y27381*X110594Y27224*X110604Y27066*X110604Y26909*X110594Y26751*X110574Y26594*X110546Y26439*X110508Y26284*X110460Y26134*X110404Y25987*X110338Y25842*X110264Y25702*X110180Y25568*X110091Y25438*X109992Y25314*X109885Y25197*X109774Y25085*X109654Y24983*X109530Y24887*X109398Y24798*X109261Y24717*X109121Y24646*X108976Y24582*X108826Y24529*X108676Y24483*X108522Y24448*X106998Y24448*X106998Y29528*X108522Y29528*X102172Y29528D2*X102326Y29492D1*X102476Y29446*X102626Y29393*X102771Y29329*X102911Y29258*X103048Y29177*X103180Y29088*X103304Y28992*X103424Y28890*X103535Y28778*X103642Y28661*X103741Y28537*X103830Y28407*X103914Y28273*X103988Y28133*X104054Y27988*X104110Y27841*X104158Y27691*X104196Y27536*X104224Y27381*X104244Y27224*X104254Y27066*X104254Y26909*X104244Y26751*X104224Y26594*X104196Y26439*X104158Y26284*X104110Y26134*X104054Y25987*X103988Y25842*X103914Y25702*X103830Y25568*X103741Y25438*X103642Y25314*X103535Y25197*X103424Y25085*X103304Y24983*X103180Y24887*X103048Y24798*X102911Y24717*X102771Y24646*X102626Y24582*X102476Y24529*X102326Y24483*X102172Y24448*X100648Y24448*X100648Y29528*X102172Y29528*X102172Y30798D2*X100648Y30798D1*X100648Y35878*X102172Y35878*X102172Y37148D2*X102326Y37183D1*X102476Y37229*X102626Y37282*X102771Y37346*X102911Y37417*X103048Y37498*X103180Y37587*X103304Y37683*X103424Y37785*X103535Y37897*X103642Y38014*X103741Y38138*X103830Y38268*X103914Y38402*X103988Y38542*X104054Y38687*X104110Y38834*X104158Y38984*X104196Y39139*X104224Y39294*X104244Y39451*X104254Y39609*X104254Y39766*X104244Y39924*X104224Y40081*X104196Y40236*X104158Y40391*X104110Y40541*X104054Y40688*X103988Y40833*X103914Y40973*X103830Y41107*X103741Y41237*X103642Y41361*X103535Y41478*X103424Y41590*X103304Y41692*X103180Y41788*X103048Y41877*X102911Y41958*X102771Y42029*X102626Y42093*X102476Y42146*X102326Y42192*X102172Y42228*X100648Y42228*X100648Y37148*X102172Y37148*X95822Y37148D2*X95976Y37183D1*X96126Y37229*X96276Y37282*X96421Y37346*X96561Y37417*X96698Y37498*X96830Y37587*X96954Y37683*X97074Y37785*X97185Y37897*X97292Y38014*X97391Y38138*X97480Y38268*X97564Y38402*X97638Y38542*X97704Y38687*X97760Y38834*X97808Y38984*X97846Y39139*X97874Y39294*X97894Y39451*X97904Y39609*X97904Y39766*X97894Y39924*X97874Y40081*X97846Y40236*X97808Y40391*X97760Y40541*X97704Y40688*X97638Y40833*X97564Y40973*X97480Y41107*X97391Y41237*X97292Y41361*X97185Y41478*X97074Y41590*X96954Y41692*X96830Y41788*X96698Y41877*X96561Y41958*X96421Y42029*X96276Y42093*X96126Y42146*X95976Y42192*X95822Y42228*X94298Y42228*X94298Y37148*X95822Y37148*X95822Y35878D2*X94298Y35878D1*X94298Y30798*X95822Y30798*X95822Y29528D2*X94298Y29528D1*X94298Y24448*X95822Y24448*X98125Y14305D2*X98090Y14305D1*X97965Y14430D2*X98250Y14430D1*X98372Y14552D2*X97843Y14552D1*X97719Y14676D2*X98496Y14676D1*X98618Y14798D2*X97597Y14798D1*X97472Y14922D2*X98742Y14922D1*X98864Y15044D2*X97351Y15044D1*X97226Y15169D2*X98989Y15169D1*X99111Y15291D2*X97104Y15291D1*X96980Y15415D2*X99235Y15415D1*X99357Y15537D2*X96858Y15537D1*X99378Y15558D2*X96838Y15558D1*X98108Y14288*X99378Y15558*X108902Y6668D2*X108902Y14288D1*X64452Y14288*X64452Y6668*X53022Y6668D2*X53022Y14288D1*X8572Y14288*X8572Y6668*D113*X17208Y52260D2*X11366Y52260D1*X11366Y49974D2*X17208Y49974D1*X9588Y24511D2*X9588Y28194D1*X11366Y28194D2*X11366Y24511D1*X15938Y24511D2*X15938Y28194D1*X17716Y28194D2*X17716Y24511D1*X22288Y24511D2*X22288Y28194D1*X24066Y28194D2*X24066Y24511D1*X28638Y24511D2*X28638Y28194D1*X30416Y28194D2*X30416Y24511D1*X34988Y24511D2*X34988Y28194D1*X36766Y28194D2*X36766Y24511D1*X41338Y24511D2*X41338Y28194D1*X43116Y28194D2*X43116Y24511D1*X47688Y24511D2*X47688Y28194D1*X49466Y28194D2*X49466Y24511D1*X54038Y24511D2*X54038Y28194D1*X55816Y28194D2*X55816Y24511D1*X60388Y24511D2*X60388Y28194D1*X62166Y28194D2*X62166Y24511D1*X66738Y24511D2*X66738Y28194D1*X68516Y28194D2*X68516Y24511D1*X73088Y24511D2*X73088Y28194D1*X74866Y28194D2*X74866Y24511D1*X79438Y24511D2*X79438Y28194D1*X81216Y28194D2*X81216Y24511D1*X106616Y24511D2*X106616Y28194D1*X104838Y28194D2*X104838Y24511D1*X100266Y24511D2*X100266Y28194D1*X98488Y28194D2*X98488Y24511D1*X93916Y24511D2*X93916Y28194D1*X92138Y28194D2*X92138Y24511D1*X87566Y24511D2*X87566Y28194D1*X85788Y28194D2*X85788Y24511D1*X85788Y42164D2*X85788Y38481D1*X87566Y38481D2*X87566Y42164D1*X92138Y42164D2*X92138Y38481D1*X93916Y38481D2*X93916Y42164D1*X98488Y42164D2*X98488Y38481D1*X100266Y38481D2*X100266Y42164D1*X104838Y42164D2*X104838Y38481D1*X106616Y38481D2*X106616Y42164D1*X106616Y31496D2*X106616Y35179D1*X104838Y35179D2*X104838Y31496D1*X100266Y31496D2*X100266Y35179D1*X98488Y35179D2*X98488Y31496D1*X93916Y31496D2*X93916Y35179D1*X92138Y35179D2*X92138Y31496D1*X87566Y31496D2*X87566Y35179D1*X85788Y35179D2*X85788Y31496D1*X81216Y31496D2*X81216Y35179D1*X79438Y35179D2*X79438Y31496D1*X74866Y31496D2*X74866Y35179D1*X73088Y35179D2*X73088Y31496D1*X68516Y31496D2*X68516Y35179D1*X66738Y35179D2*X66738Y31496D1*X62166Y31496D2*X62166Y35179D1*X60388Y35179D2*X60388Y31496D1*X55816Y31496D2*X55816Y35179D1*X54038Y35179D2*X54038Y31496D1*X49466Y31496D2*X49466Y35179D1*X47688Y35179D2*X47688Y31496D1*X43116Y31496D2*X43116Y35179D1*X41338Y35179D2*X41338Y31496D1*X36766Y31496D2*X36766Y35179D1*X34988Y35179D2*X34988Y31496D1*X30416Y31496D2*X30416Y35179D1*X28638Y35179D2*X28638Y31496D1*X24066Y31496D2*X24066Y35179D1*X22288Y35179D2*X22288Y31496D1*X17716Y31496D2*X17716Y35179D1*X15938Y35179D2*X15938Y31496D1*X11366Y31496D2*X11366Y35179D1*X9588Y35179D2*X9588Y31496D1*X9588Y38481D2*X9588Y42164D1*X11366Y42164D2*X11366Y38481D1*X15938Y38481D2*X15938Y42164D1*X17716Y42164D2*X17716Y38481D1*X22288Y38481D2*X22288Y42164D1*X24066Y42164D2*X24066Y38481D1*X28638Y38481D2*X28638Y42164D1*X30416Y42164D2*X30416Y38481D1*X34988Y38481D2*X34988Y42164D1*X36766Y42164D2*X36766Y38481D1*X41338Y38481D2*X41338Y42164D1*X43116Y42164D2*X43116Y38481D1*X47688Y38481D2*X47688Y42164D1*X49466Y42164D2*X49466Y38481D1*X54038Y38481D2*X54038Y42164D1*X55816Y42164D2*X55816Y38481D1*X60388Y38481D2*X60388Y42164D1*X62166Y42164D2*X62166Y38481D1*X66738Y38481D2*X66738Y42164D1*X68516Y42164D2*X68516Y38481D1*X73088Y38481D2*X73088Y42164D1*X74866Y42164D2*X74866Y38481D1*X79438Y38481D2*X79438Y42164D1*X81216Y42164D2*X81216Y38481D1*X0Y0D2*M02*