
M48
METRIC,TZ,000.000
T01C0.5
T02C0.701
T03C0.8
T04C1.1
T05C1.501
T06C2.946
T07C3.2
%
M71
G90
T01
X070168Y053658
X068898Y053022
X067628Y052388
X066358Y051752
X065088Y051118
X049848Y049212
X051118Y048578
X052388Y047942
X053658Y047308
X054928Y046672
X056198Y046038
X057468Y045402
X058738Y044768
X063818Y044132
X062548Y043498
T02
X108268Y025718
X109538Y026988
X108268Y028258
X108268Y032068
X109538Y033338
X108268Y034608
X108268Y040958
X109538Y039688
X108268Y038418
X101918Y038418
X103188Y039688
X101918Y040958
X095568Y040958
X096838Y039688
X095568Y038418
X095568Y034608
X095568Y032068
X096838Y033338
X101918Y034608
X103188Y033338
X101918Y032068
X101918Y028258
X103188Y026988
X101918Y025718
X095568Y025718
X096838Y026988
X095568Y028258
X076518Y028258
X076518Y025718
X077788Y026988
X082868Y028258
X082868Y025718
X084138Y026988
X089218Y025718
X090488Y026988
X089218Y028258
X089218Y032068
X090488Y033338
X089218Y034608
X089218Y038418
X090488Y039688
X089218Y040958
X076518Y040958
X076518Y038418
X077788Y039688
X082868Y040958
X084138Y039688
X082868Y038418
X082868Y034608
X084138Y033338
X082868Y032068
X076518Y032068
X077788Y033338
X076518Y034608
X063818Y034608
X063818Y032068
X065088Y033338
X070168Y034608
X071438Y033338
X070168Y032068
X070168Y028258
X071438Y026988
X070168Y025718
X063818Y025718
X065088Y026988
X063818Y028258
X044768Y028258
X044768Y025718
X046038Y026988
X051118Y028258
X051118Y025718
X052388Y026988
X057468Y025718
X058738Y026988
X057468Y028258
X057468Y032068
X058738Y033338
X057468Y034608
X051118Y034608
X052388Y033338
X051118Y032068
X044768Y032068
X046038Y033338
X044768Y034608
X032068Y034608
X032068Y032068
X033338Y033338
X038418Y034608
X039688Y033338
X038418Y032068
X038418Y028258
X039688Y026988
X038418Y025718
X032068Y025718
X033338Y026988
X032068Y028258
X013018Y028258
X013018Y025718
X014288Y026988
X019368Y028258
X019368Y025718
X020638Y026988
X025718Y025718
X026988Y026988
X025718Y028258
X025718Y032068
X026988Y033338
X025718Y034608
X019368Y034608
X020638Y033338
X019368Y032068
X013018Y032068
X014288Y033338
X013018Y034608
X013018Y040958
X013018Y038418
X014288Y039688
X019368Y040958
X019368Y038418
X020638Y039688
X025718Y040958
X025718Y038418
X026988Y039688
X032068Y040958
X032068Y038418
X033338Y039688
X038418Y040958
X038418Y038418
X039688Y039688
X044768Y040958
X044768Y038418
X046038Y039688
X051118Y040958
X051118Y038418
X052388Y039688
X057468Y040958
X057468Y038418
X058738Y039688
X063818Y040958
X063818Y038418
X065088Y039688
X070168Y038418
X071438Y039688
X070168Y040958
T03
X011748Y051118
X016828Y051118
X105728Y042862
X099378Y042862
X093028Y042862
X086678Y042862
X080328Y042862
X073978Y042862
X067628Y042862
X061278Y042862
X054928Y042862
X048578Y042862
X042228Y042862
X035878Y042862
X029528Y042862
X023178Y042862
X016828Y042862
X010478Y042862
X010478Y035878
X010478Y037782
X016828Y037782
X016828Y035878
X023178Y035878
X023178Y037782
X029528Y037782
X029528Y035878
X035878Y035878
X035878Y037782
X042228Y037782
X042228Y035878
X048578Y035878
X048578Y037782
X054928Y037782
X054928Y035878
X061278Y035878
X061278Y037782
X067628Y037782
X067628Y035878
X073978Y035878
X073978Y037782
X080328Y037782
X080328Y035878
X086678Y035878
X086678Y037782
X093028Y037782
X093028Y035878
X099378Y035878
X099378Y037782
X105728Y037782
X105728Y035878
X105728Y028892
X105728Y030798
X099378Y030798
X099378Y028892
X093028Y028892
X093028Y030798
X086678Y030798
X086678Y028892
X080328Y028892
X080328Y030798
X073978Y030798
X073978Y028892
X067628Y028892
X067628Y030798
X061278Y030798
X061278Y028892
X054928Y028892
X054928Y030798
X048578Y030798
X048578Y028892
X042228Y028892
X042228Y030798
X035878Y030798
X035878Y028892
X029528Y028892
X029528Y030798
X023178Y030798
X023178Y028892
X016828Y028892
X016828Y030798
X010478Y030798
X010478Y028892
X010478Y023812
X016828Y023812
X023178Y023812
X029528Y023812
X035878Y023812
X042228Y023812
X048578Y023812
X054928Y023812
X061278Y023812
X067628Y023812
X073978Y023812
X080328Y023812
X086678Y023812
X093028Y023812
X099378Y023812
X105728Y023812
T04
X090488Y013018
X093028Y013018
X095568Y013018
X098108Y013018
X098108Y010478
X095568Y010478
X093028Y010478
X090488Y010478
X075248Y010478
X077788Y010478
X080328Y010478
X082868Y010478
X085408Y010478
X087948Y010478
X087948Y013018
X085408Y013018
X082868Y013018
X080328Y013018
X077788Y013018
X075248Y013018
X026988Y013018
X024448Y013018
X021908Y013018
X019368Y013018
X019368Y010478
X021908Y010478
X024448Y010478
X026988Y010478
X042228Y010478
X039688Y010478
X037148Y010478
X034608Y010478
X032068Y010478
X029528Y010478
X029528Y013018
X032068Y013018
X034608Y013018
X037148Y013018
X039688Y013018
X042228Y013018
X058738Y056198
X061278Y056198
X063818Y056198
X066358Y056198
X068898Y056198
X071438Y056198
X071438Y058738
X068898Y058738
X066358Y058738
X063818Y058738
X061278Y058738
X058738Y058738
X048578Y058738
X051118Y058738
X053658Y058738
X056198Y058738
X056198Y056198
X053658Y056198
X051118Y056198
X048578Y056198
T05
X014922Y059372
X021908Y059372
T06
X103924Y011214
X013551Y011214
X048044Y011214
X069431Y011214
X077254Y058001
X042761Y058001
T07
X112712Y011112
X112712Y058738
X004762Y058738
X004762Y010478
M30
