G75*
G70*
%OFA0B0*%
%FSLAX24Y24*%
%IPPOS*%
%LPD*%
%AMOC8*
5,1,8,0,0,1.08239X$1,22.5*
%
%ADD10C,0.0476*%
%ADD11C,0.0515*%
%ADD12R,0.0650X0.0650*%
%ADD13C,0.0650*%
%ADD14R,0.0709X0.0709*%
%ADD15C,0.0160*%
%ADD16C,0.0400*%
D10*
X016285Y009250D03*
X016785Y009750D03*
X017285Y009250D03*
X019285Y009250D03*
X019785Y009750D03*
X020285Y009250D03*
X022285Y009250D03*
X022785Y009750D03*
X023285Y009250D03*
X025285Y009250D03*
X025785Y009750D03*
X026285Y009250D03*
X028285Y009250D03*
X028785Y009750D03*
X029285Y009250D03*
X031285Y009250D03*
X031785Y009750D03*
X032285Y009250D03*
X034285Y009250D03*
X034785Y009750D03*
X035285Y009250D03*
X037285Y009250D03*
X037785Y009750D03*
X038285Y009250D03*
X038285Y015125D03*
X037785Y015625D03*
X037285Y015125D03*
X035285Y015125D03*
X034785Y015625D03*
X034285Y015125D03*
X032285Y015125D03*
X031785Y015625D03*
X031285Y015125D03*
X029285Y015125D03*
X028785Y015625D03*
X028285Y015125D03*
X026285Y015125D03*
X025785Y015625D03*
X025285Y015125D03*
X023285Y015125D03*
X022785Y015625D03*
X022285Y015125D03*
X020285Y015125D03*
X019785Y015625D03*
X019285Y015125D03*
X017285Y015125D03*
X016785Y015625D03*
X016285Y015125D03*
X016410Y021625D03*
X016910Y022125D03*
X016410Y022625D03*
X016410Y023625D03*
X016910Y024125D03*
X016410Y024625D03*
X016410Y025625D03*
X016910Y026125D03*
X016410Y026625D03*
X014660Y026125D03*
X014160Y025625D03*
X014160Y024625D03*
X014660Y024125D03*
X014160Y023625D03*
X014160Y022625D03*
X014660Y022125D03*
X014160Y021625D03*
X012410Y022125D03*
X011910Y021625D03*
X011910Y022625D03*
X011910Y023625D03*
X012410Y024125D03*
X011910Y024625D03*
X011910Y025625D03*
X012410Y026125D03*
X011910Y026625D03*
X010160Y026125D03*
X009660Y025625D03*
X009660Y024625D03*
X010160Y024125D03*
X009660Y023625D03*
X009660Y022625D03*
X010160Y022125D03*
X009660Y021625D03*
X009660Y026625D03*
X014160Y026625D03*
X018660Y026625D03*
X019160Y026125D03*
X018660Y025625D03*
X018660Y024625D03*
X019160Y024125D03*
X018660Y023625D03*
X018660Y022625D03*
X019160Y022125D03*
X018660Y021625D03*
X020910Y021625D03*
X021410Y022125D03*
X020910Y022625D03*
X020910Y023625D03*
X021410Y024125D03*
X020910Y024625D03*
X020910Y025625D03*
X021410Y026125D03*
X020910Y026625D03*
X023160Y026625D03*
X023660Y026125D03*
X023160Y025625D03*
X023160Y024625D03*
X023660Y024125D03*
X023160Y023625D03*
X023160Y022625D03*
X023660Y022125D03*
X023160Y021625D03*
X025410Y021625D03*
X025910Y022125D03*
X025410Y022625D03*
X025410Y023625D03*
X025910Y024125D03*
X025410Y024625D03*
X025410Y025625D03*
X025910Y026125D03*
X025410Y026625D03*
X029660Y026625D03*
X030160Y026125D03*
X029660Y025625D03*
X029660Y024625D03*
X030160Y024125D03*
X029660Y023625D03*
X029660Y022625D03*
X030160Y022125D03*
X029660Y021625D03*
X031910Y021625D03*
X032410Y022125D03*
X031910Y022625D03*
X031910Y023625D03*
X032410Y024125D03*
X031910Y024625D03*
X031910Y025625D03*
X032410Y026125D03*
X031910Y026625D03*
X034160Y026625D03*
X034660Y026125D03*
X034160Y025625D03*
X034160Y024625D03*
X034660Y024125D03*
X034160Y023625D03*
X034160Y022625D03*
X034660Y022125D03*
X034160Y021625D03*
X036410Y021625D03*
X036910Y022125D03*
X036410Y022625D03*
X036410Y023625D03*
X036910Y024125D03*
X036410Y024625D03*
X036410Y025625D03*
X036910Y026125D03*
X036410Y026625D03*
X038660Y026625D03*
X039160Y026125D03*
X038660Y025625D03*
X038660Y024625D03*
X039160Y024125D03*
X038660Y023625D03*
X038660Y022625D03*
X039160Y022125D03*
X038660Y021625D03*
X040910Y021625D03*
X041410Y022125D03*
X040910Y022625D03*
X040910Y023625D03*
X041410Y024125D03*
X040910Y024625D03*
X040910Y025625D03*
X041410Y026125D03*
X040910Y026625D03*
X043160Y026625D03*
X043660Y026125D03*
X043160Y025625D03*
X043160Y024625D03*
X043660Y024125D03*
X043160Y023625D03*
X043160Y022625D03*
X043660Y022125D03*
X043160Y021625D03*
X045410Y021625D03*
X045910Y022125D03*
X045410Y022625D03*
X045410Y023625D03*
X045910Y024125D03*
X045410Y024625D03*
X045410Y025625D03*
X045910Y026125D03*
X045410Y026625D03*
X045410Y032375D03*
X045910Y032875D03*
X045410Y033375D03*
X045410Y034375D03*
X045910Y034875D03*
X045410Y035375D03*
X045410Y036375D03*
X045910Y036875D03*
X045410Y037375D03*
X043660Y036875D03*
X043160Y036375D03*
X043160Y035375D03*
X043660Y034875D03*
X043160Y034375D03*
X043160Y033375D03*
X043660Y032875D03*
X043160Y032375D03*
X041410Y032875D03*
X040910Y032375D03*
X040910Y033375D03*
X040910Y034375D03*
X041410Y034875D03*
X040910Y035375D03*
X040910Y036375D03*
X041410Y036875D03*
X040910Y037375D03*
X039160Y036875D03*
X038660Y036375D03*
X038660Y035375D03*
X039160Y034875D03*
X038660Y034375D03*
X038660Y033375D03*
X039160Y032875D03*
X038660Y032375D03*
X036910Y032875D03*
X036410Y032375D03*
X036410Y033375D03*
X036410Y034375D03*
X036910Y034875D03*
X036410Y035375D03*
X036410Y036375D03*
X036910Y036875D03*
X036410Y037375D03*
X034660Y036875D03*
X034160Y036375D03*
X034160Y035375D03*
X034660Y034875D03*
X034160Y034375D03*
X034160Y033375D03*
X034660Y032875D03*
X034160Y032375D03*
X032410Y032875D03*
X031910Y032375D03*
X031910Y033375D03*
X031910Y034375D03*
X032410Y034875D03*
X031910Y035375D03*
X031910Y036375D03*
X032410Y036875D03*
X031910Y037375D03*
X030160Y036875D03*
X029660Y036375D03*
X029660Y035375D03*
X030160Y034875D03*
X029660Y034375D03*
X029660Y033375D03*
X030160Y032875D03*
X029660Y032375D03*
X025910Y032875D03*
X025410Y032375D03*
X025410Y033375D03*
X025410Y034375D03*
X025910Y034875D03*
X025410Y035375D03*
X025410Y036375D03*
X025910Y036875D03*
X025410Y037375D03*
X023660Y036875D03*
X023160Y036375D03*
X023160Y035375D03*
X023660Y034875D03*
X023160Y034375D03*
X023160Y033375D03*
X023660Y032875D03*
X023160Y032375D03*
X021410Y032875D03*
X020910Y032375D03*
X020910Y033375D03*
X020910Y034375D03*
X021410Y034875D03*
X020910Y035375D03*
X020910Y036375D03*
X021410Y036875D03*
X020910Y037375D03*
X019160Y036875D03*
X018660Y036375D03*
X018660Y035375D03*
X019160Y034875D03*
X018660Y034375D03*
X018660Y033375D03*
X019160Y032875D03*
X018660Y032375D03*
X016910Y032875D03*
X016410Y032375D03*
X016410Y033375D03*
X016410Y034375D03*
X016910Y034875D03*
X016410Y035375D03*
X016410Y036375D03*
X016910Y036875D03*
X016410Y037375D03*
X014660Y036875D03*
X014160Y036375D03*
X014160Y035375D03*
X014660Y034875D03*
X014160Y034375D03*
X014160Y033375D03*
X014660Y032875D03*
X014160Y032375D03*
X012410Y032875D03*
X011910Y032375D03*
X011910Y033375D03*
X011910Y034375D03*
X012410Y034875D03*
X011910Y035375D03*
X011910Y036375D03*
X012410Y036875D03*
X011910Y037375D03*
X010160Y036875D03*
X009660Y036375D03*
X009660Y035375D03*
X010160Y034875D03*
X009660Y034375D03*
X009660Y033375D03*
X010160Y032875D03*
X009660Y032375D03*
X009660Y037375D03*
X014160Y037375D03*
X018660Y037375D03*
X023160Y037375D03*
X029660Y037375D03*
X034160Y037375D03*
X038660Y037375D03*
X043160Y037375D03*
X004160Y036625D03*
X003660Y036125D03*
X003660Y037125D03*
X003660Y038125D03*
X004160Y038625D03*
X003660Y039125D03*
X003660Y040125D03*
X004160Y040625D03*
X003660Y041125D03*
X003660Y032000D03*
X004160Y031500D03*
X003660Y031000D03*
X003660Y030000D03*
X004160Y029500D03*
X003660Y029000D03*
X003660Y028000D03*
X004160Y027500D03*
X003660Y027000D03*
D11*
X015285Y007500D03*
X015285Y008250D03*
X015285Y009000D03*
X015285Y011000D03*
X016035Y011000D03*
X017035Y011000D03*
X018285Y011000D03*
X019035Y011000D03*
X020035Y011000D03*
X021285Y011000D03*
X022035Y011000D03*
X023035Y011000D03*
X024285Y011000D03*
X025035Y011000D03*
X026035Y011000D03*
X027285Y011000D03*
X028035Y011000D03*
X029035Y011000D03*
X030285Y011000D03*
X031035Y011000D03*
X032035Y011000D03*
X033285Y011000D03*
X034035Y011000D03*
X035035Y011000D03*
X036285Y011000D03*
X037035Y011000D03*
X038035Y011000D03*
X036285Y009000D03*
X036285Y008250D03*
X036285Y007500D03*
X035285Y007500D03*
X035285Y008250D03*
X033285Y008250D03*
X033285Y007500D03*
X032285Y007500D03*
X032285Y008250D03*
X033285Y009000D03*
X030285Y009000D03*
X030285Y008250D03*
X030285Y007500D03*
X029285Y007500D03*
X029285Y008250D03*
X027285Y008250D03*
X027285Y007500D03*
X026285Y007500D03*
X026285Y008250D03*
X027285Y009000D03*
X024285Y009000D03*
X024285Y008250D03*
X024285Y007500D03*
X023285Y007500D03*
X023285Y008250D03*
X021285Y008250D03*
X021285Y007500D03*
X020285Y007500D03*
X020285Y008250D03*
X021285Y009000D03*
X018285Y009000D03*
X018285Y008250D03*
X018285Y007500D03*
X017285Y007500D03*
X017285Y008250D03*
X017285Y013375D03*
X017285Y014125D03*
X018285Y014125D03*
X018285Y013375D03*
X018285Y014875D03*
X018285Y016875D03*
X019035Y016875D03*
X020035Y016875D03*
X021285Y016875D03*
X022035Y016875D03*
X023035Y016875D03*
X024285Y016875D03*
X025035Y016875D03*
X026035Y016875D03*
X027285Y016875D03*
X028035Y016875D03*
X029035Y016875D03*
X030285Y016875D03*
X031035Y016875D03*
X032035Y016875D03*
X033285Y016875D03*
X034035Y016875D03*
X035035Y016875D03*
X036285Y016875D03*
X037035Y016875D03*
X038035Y016875D03*
X036285Y014875D03*
X036285Y014125D03*
X036285Y013375D03*
X035285Y013375D03*
X035285Y014125D03*
X033285Y014125D03*
X033285Y013375D03*
X032285Y013375D03*
X032285Y014125D03*
X033285Y014875D03*
X030285Y014875D03*
X030285Y014125D03*
X030285Y013375D03*
X029285Y013375D03*
X029285Y014125D03*
X027285Y014125D03*
X027285Y013375D03*
X026285Y013375D03*
X026285Y014125D03*
X027285Y014875D03*
X024285Y014875D03*
X024285Y014125D03*
X024285Y013375D03*
X023285Y013375D03*
X023285Y014125D03*
X021285Y014125D03*
X021285Y013375D03*
X020285Y013375D03*
X020285Y014125D03*
X021285Y014875D03*
X017035Y016875D03*
X016035Y016875D03*
X015285Y016875D03*
X015285Y014875D03*
X015285Y014125D03*
X015285Y013375D03*
X012660Y016750D03*
X012660Y018750D03*
X013160Y021375D03*
X013160Y023375D03*
X013160Y024000D03*
X013160Y026000D03*
X013160Y026500D03*
X014160Y027500D03*
X014160Y028500D03*
X013160Y028500D03*
X011910Y028500D03*
X010910Y028500D03*
X011910Y027500D03*
X010910Y026500D03*
X010910Y026000D03*
X009660Y027500D03*
X009660Y028500D03*
X008660Y028500D03*
X008660Y026500D03*
X008660Y026000D03*
X008660Y024000D03*
X008660Y023375D03*
X008660Y021375D03*
X010910Y021375D03*
X010910Y023375D03*
X010910Y024000D03*
X015410Y024000D03*
X015410Y023375D03*
X015410Y021375D03*
X017660Y021375D03*
X017660Y023375D03*
X017660Y024000D03*
X017660Y026000D03*
X017660Y026500D03*
X018660Y027500D03*
X018660Y028500D03*
X017660Y028500D03*
X016410Y028500D03*
X015410Y028500D03*
X016410Y027500D03*
X015410Y026500D03*
X015410Y026000D03*
X019910Y026000D03*
X019910Y026500D03*
X020910Y027500D03*
X020910Y028500D03*
X019910Y028500D03*
X022160Y028500D03*
X023160Y028500D03*
X023160Y027500D03*
X022160Y026500D03*
X022160Y026000D03*
X022160Y024000D03*
X022160Y023375D03*
X022160Y021375D03*
X019910Y021375D03*
X019910Y023375D03*
X019910Y024000D03*
X024410Y024000D03*
X024410Y023375D03*
X024410Y021375D03*
X027160Y023125D03*
X028660Y023375D03*
X028660Y024000D03*
X027160Y025125D03*
X028660Y026000D03*
X028660Y026500D03*
X029660Y027500D03*
X029660Y028500D03*
X028660Y028500D03*
X030910Y028500D03*
X031910Y028500D03*
X031910Y027500D03*
X030910Y026500D03*
X030910Y026000D03*
X030910Y024000D03*
X030910Y023375D03*
X030910Y021375D03*
X028660Y021375D03*
X033160Y021375D03*
X033160Y023375D03*
X033160Y024000D03*
X033160Y026000D03*
X033160Y026500D03*
X034160Y027500D03*
X034160Y028500D03*
X033160Y028500D03*
X035410Y028500D03*
X036410Y028500D03*
X036410Y027500D03*
X035410Y026500D03*
X035410Y026000D03*
X035410Y024000D03*
X035410Y023375D03*
X035410Y021375D03*
X037660Y021375D03*
X037660Y023375D03*
X037660Y024000D03*
X037660Y026000D03*
X037660Y026500D03*
X038660Y027500D03*
X038660Y028500D03*
X037660Y028500D03*
X039910Y028500D03*
X040910Y028500D03*
X040910Y027500D03*
X042160Y026500D03*
X042160Y026000D03*
X043160Y027500D03*
X043160Y028500D03*
X042160Y028500D03*
X044410Y028500D03*
X045410Y028500D03*
X045410Y027500D03*
X044410Y026500D03*
X044410Y026000D03*
X044410Y024000D03*
X044410Y023375D03*
X044410Y021375D03*
X042160Y021375D03*
X042160Y023375D03*
X042160Y024000D03*
X039910Y024000D03*
X039910Y023375D03*
X039910Y021375D03*
X039910Y026000D03*
X039910Y026500D03*
X039910Y032125D03*
X039910Y034125D03*
X039910Y034750D03*
X039910Y036750D03*
X039910Y037250D03*
X038660Y038250D03*
X038660Y039250D03*
X037660Y039250D03*
X036410Y039250D03*
X035410Y039250D03*
X034160Y039250D03*
X033160Y039250D03*
X034160Y038250D03*
X033160Y037250D03*
X033160Y036750D03*
X031910Y038250D03*
X031910Y039250D03*
X030910Y039250D03*
X029660Y039250D03*
X028660Y039250D03*
X029660Y038250D03*
X028660Y037250D03*
X028660Y036750D03*
X027410Y035875D03*
X028660Y034750D03*
X028660Y034125D03*
X028660Y032125D03*
X030910Y032125D03*
X030910Y034125D03*
X030910Y034750D03*
X030910Y036750D03*
X030910Y037250D03*
X033160Y034750D03*
X033160Y034125D03*
X033160Y032125D03*
X035410Y032125D03*
X035410Y034125D03*
X035410Y034750D03*
X035410Y036750D03*
X035410Y037250D03*
X036410Y038250D03*
X037660Y037250D03*
X037660Y036750D03*
X037660Y034750D03*
X037660Y034125D03*
X037660Y032125D03*
X042160Y032125D03*
X042160Y034125D03*
X042160Y034750D03*
X042160Y036750D03*
X042160Y037250D03*
X043160Y038250D03*
X043160Y039250D03*
X042160Y039250D03*
X040910Y039250D03*
X040910Y038250D03*
X039910Y039250D03*
X043535Y042000D03*
X045535Y042000D03*
X047660Y041750D03*
X047660Y043750D03*
X045410Y039250D03*
X044410Y039250D03*
X045410Y038250D03*
X044410Y037250D03*
X044410Y036750D03*
X044410Y034750D03*
X044410Y034125D03*
X044410Y032125D03*
X031410Y042125D03*
X029410Y042125D03*
X028660Y042125D03*
X027660Y042125D03*
X025410Y039250D03*
X024410Y039250D03*
X025410Y038250D03*
X024410Y037250D03*
X024410Y036750D03*
X023160Y038250D03*
X023160Y039250D03*
X022160Y039250D03*
X020910Y039250D03*
X019910Y039250D03*
X020910Y038250D03*
X019910Y037250D03*
X019910Y036750D03*
X018660Y038250D03*
X018660Y039250D03*
X017660Y039250D03*
X016410Y039250D03*
X015410Y039250D03*
X016410Y038250D03*
X015410Y037250D03*
X015410Y036750D03*
X014160Y038250D03*
X014160Y039250D03*
X013160Y039250D03*
X011910Y039250D03*
X010910Y039250D03*
X011910Y038250D03*
X010910Y037250D03*
X010910Y036750D03*
X009660Y038250D03*
X009660Y039250D03*
X008660Y039250D03*
X008660Y037250D03*
X008660Y036750D03*
X008660Y034750D03*
X008660Y034125D03*
X008660Y032125D03*
X010910Y032125D03*
X010910Y034125D03*
X010910Y034750D03*
X013160Y034750D03*
X013160Y034125D03*
X013160Y032125D03*
X015410Y032125D03*
X015410Y034125D03*
X015410Y034750D03*
X017660Y034750D03*
X017660Y034125D03*
X017660Y032125D03*
X019910Y032125D03*
X019910Y034125D03*
X019910Y034750D03*
X022160Y034750D03*
X022160Y034125D03*
X022160Y032125D03*
X024410Y032125D03*
X024410Y034125D03*
X024410Y034750D03*
X022160Y036750D03*
X022160Y037250D03*
X017660Y037250D03*
X017660Y036750D03*
X013160Y036750D03*
X013160Y037250D03*
X011660Y042125D03*
X009660Y042125D03*
X008785Y042125D03*
X007785Y042125D03*
X007160Y043750D03*
X005660Y042125D03*
X004660Y042125D03*
X004910Y040875D03*
X005660Y040875D03*
X005660Y038875D03*
X005660Y038125D03*
X004910Y038125D03*
X004910Y038875D03*
X004910Y036125D03*
X005660Y036125D03*
X005660Y033000D03*
X004660Y033000D03*
X004910Y031750D03*
X005660Y031750D03*
X005660Y029750D03*
X004910Y029750D03*
X004910Y029000D03*
X005660Y029000D03*
X005660Y027000D03*
X004910Y027000D03*
X005160Y043750D03*
X024410Y028500D03*
X025410Y028500D03*
X025410Y027500D03*
X024410Y026500D03*
X024410Y026000D03*
X027410Y037875D03*
X044910Y014500D03*
X044910Y012500D03*
X045160Y009500D03*
X046160Y009500D03*
X038285Y008250D03*
X038285Y007500D03*
X038285Y013375D03*
X038285Y014125D03*
D12*
X031160Y005125D03*
X032660Y044250D03*
X012660Y044250D03*
D13*
X012660Y045250D03*
X013660Y045250D03*
X013660Y044250D03*
X014660Y044250D03*
X014660Y045250D03*
X015660Y045250D03*
X015660Y044250D03*
X016660Y044250D03*
X016660Y045250D03*
X017660Y045250D03*
X017660Y044250D03*
X018660Y044250D03*
X018660Y045250D03*
X019660Y045250D03*
X019660Y044250D03*
X020660Y044250D03*
X020660Y045250D03*
X021660Y045250D03*
X021660Y044250D03*
X032660Y045250D03*
X033660Y045250D03*
X033660Y044250D03*
X034660Y044250D03*
X034660Y045250D03*
X035660Y045250D03*
X035660Y044250D03*
X036660Y044250D03*
X036660Y045250D03*
X037660Y045250D03*
X037660Y044250D03*
X038660Y044250D03*
X038660Y045250D03*
X039660Y045250D03*
X039660Y044250D03*
X040660Y044250D03*
X040660Y045250D03*
X041660Y045250D03*
X041660Y044250D03*
X030160Y005125D03*
X029160Y005125D03*
X028160Y005125D03*
X027160Y005125D03*
X026160Y005125D03*
X025160Y005125D03*
X024160Y005125D03*
X024160Y004125D03*
X025160Y004125D03*
X026160Y004125D03*
X027160Y004125D03*
X028160Y004125D03*
X029160Y004125D03*
X030160Y004125D03*
X031160Y004125D03*
X023160Y004125D03*
X022160Y004125D03*
X022160Y005125D03*
X023160Y005125D03*
D14*
X047410Y013250D03*
X047410Y014875D03*
X003785Y033000D03*
X003785Y042125D03*
D15*
X004160Y041750D01*
X004160Y040625D01*
X003660Y040125D02*
X004160Y039625D01*
X004160Y039000D01*
X004285Y038875D01*
X004910Y038875D01*
X005660Y038875D01*
X005660Y039375D01*
X006035Y039750D01*
X029160Y039750D01*
X029660Y040250D01*
X031410Y042125D01*
X031410Y040750D02*
X032910Y042625D01*
X035410Y042625D01*
X035660Y042875D01*
X036410Y042875D01*
X036535Y042750D01*
X036660Y042750D01*
X036160Y042500D02*
X035785Y042500D01*
X035660Y042375D01*
X033785Y042375D01*
X033660Y042250D01*
X033285Y041750D02*
X033535Y041500D01*
X035160Y041500D01*
X035410Y041875D01*
X041035Y041875D01*
X041160Y042000D01*
X041160Y042250D01*
X040660Y042250D02*
X040535Y042125D01*
X034785Y042125D01*
X034660Y042000D01*
X034660Y041875D01*
X035160Y041000D02*
X033660Y041000D01*
X032410Y039875D01*
X030660Y039875D01*
X030160Y039375D01*
X030160Y036875D01*
X029660Y036375D02*
X029160Y036750D01*
X028660Y036750D01*
X028660Y037250D01*
X028660Y039250D02*
X029660Y039250D01*
X030910Y039250D02*
X031910Y039250D01*
X033160Y039250D02*
X034160Y039250D01*
X035410Y039250D02*
X036410Y039250D01*
X036910Y039750D02*
X037410Y040250D01*
X039535Y040250D01*
X039785Y040500D01*
X040160Y041000D02*
X040410Y040750D01*
X040160Y041000D02*
X036160Y041000D01*
X035410Y040250D01*
X035160Y040250D01*
X035285Y040625D02*
X034160Y040625D01*
X035160Y041000D02*
X035660Y041625D01*
X041660Y041625D01*
X042285Y042250D01*
X041660Y042500D02*
X041535Y042625D01*
X039410Y042625D01*
X039285Y042500D01*
X039160Y042500D01*
X038785Y042875D02*
X038660Y042750D01*
X038785Y042875D02*
X042785Y042875D01*
X043035Y042625D01*
X043035Y040750D01*
X043660Y040125D01*
X043660Y036875D01*
X043160Y036375D02*
X042785Y036750D01*
X042160Y036750D01*
X042160Y037250D01*
X040910Y036375D02*
X040535Y036750D01*
X039910Y036750D01*
X039910Y037250D01*
X038660Y036375D02*
X038285Y036750D01*
X037660Y036750D01*
X037660Y037250D01*
X036910Y036875D02*
X036910Y039750D01*
X037660Y039250D02*
X038660Y039250D01*
X039910Y039250D02*
X040910Y039250D01*
X042160Y039250D02*
X043160Y039250D01*
X044285Y040375D02*
X045535Y040375D01*
X045910Y039875D01*
X045910Y036875D01*
X045410Y036375D02*
X045910Y035875D01*
X045910Y034875D01*
X045410Y034375D02*
X045160Y034125D01*
X044410Y034125D01*
X045410Y033375D02*
X044910Y032875D01*
X044910Y030500D01*
X044285Y029875D01*
X025535Y029875D01*
X025410Y029750D01*
X025035Y029375D02*
X024785Y029625D01*
X018160Y029625D01*
X018660Y030250D02*
X019035Y030625D01*
X037535Y030625D01*
X038160Y031250D01*
X038160Y032875D01*
X038660Y033375D01*
X038410Y034125D02*
X037660Y034125D01*
X038410Y034125D02*
X038660Y034375D01*
X038660Y035375D02*
X036410Y035375D01*
X034160Y035375D01*
X031910Y035375D01*
X029660Y035375D01*
X026785Y035375D01*
X026285Y035875D01*
X007035Y035875D01*
X006785Y036125D01*
X005660Y036125D01*
X005660Y036000D01*
X005285Y035625D01*
X004160Y035625D01*
X003660Y036125D01*
X004160Y036625D02*
X004160Y038125D01*
X003660Y038125D01*
X004160Y038125D02*
X004910Y038125D01*
X004160Y038625D02*
X004160Y039000D01*
X004910Y040875D02*
X004910Y041875D01*
X004660Y042125D01*
X007160Y040500D02*
X010535Y040500D01*
X011660Y042125D01*
X012410Y041750D02*
X011410Y040625D01*
X012535Y040125D02*
X013660Y041375D01*
X021410Y041375D01*
X022160Y042250D01*
X021660Y042500D02*
X021535Y042625D01*
X019410Y042625D01*
X019285Y042500D01*
X019160Y042500D01*
X018785Y042875D02*
X018660Y042750D01*
X018785Y042875D02*
X023035Y042875D01*
X023660Y042250D01*
X023660Y040625D01*
X024535Y041875D02*
X023410Y043125D01*
X018285Y043125D01*
X018160Y043000D01*
X017535Y043000D02*
X015160Y043000D01*
X015410Y042625D02*
X013160Y042625D01*
X012410Y041750D01*
X013160Y041750D02*
X013285Y041625D01*
X020785Y041625D01*
X021160Y042000D01*
X021160Y042125D01*
X020660Y042250D02*
X020410Y042000D01*
X014660Y042000D01*
X014660Y041125D02*
X022160Y041125D01*
X022660Y040625D01*
X022160Y039250D02*
X023160Y039250D01*
X024410Y039250D02*
X025410Y039250D01*
X024410Y037250D02*
X024410Y036750D01*
X025035Y036750D01*
X025410Y036375D01*
X025410Y035375D02*
X023160Y035375D01*
X020910Y035375D01*
X018660Y035375D01*
X016410Y035375D01*
X014160Y035375D01*
X011910Y035375D01*
X009660Y035375D01*
X008035Y035375D01*
X007410Y034750D01*
X007410Y028750D01*
X005660Y027000D01*
X008035Y024625D01*
X009660Y024625D01*
X011910Y024625D01*
X014160Y024625D01*
X016410Y024625D01*
X018660Y024625D01*
X020910Y024625D01*
X023160Y024625D01*
X025410Y024625D01*
X025410Y023625D02*
X025910Y023125D01*
X025910Y022125D01*
X025160Y023375D02*
X024410Y023375D01*
X023660Y023125D02*
X023160Y023625D01*
X022910Y023375D01*
X022160Y023375D01*
X021410Y023125D02*
X020910Y023625D01*
X020660Y023375D01*
X019910Y023375D01*
X019160Y023125D02*
X018660Y023625D01*
X018410Y023375D01*
X017660Y023375D01*
X016910Y023125D02*
X016410Y023625D01*
X016160Y023375D01*
X015410Y023375D01*
X014660Y023125D02*
X014160Y023625D01*
X013910Y023375D01*
X013160Y023375D01*
X012410Y023125D02*
X011910Y023625D01*
X011660Y023375D01*
X010910Y023375D01*
X010160Y023125D02*
X009660Y023625D01*
X009410Y023375D01*
X008660Y023375D01*
X010160Y023125D02*
X010160Y022125D01*
X009660Y021625D02*
X009660Y020875D01*
X029160Y020875D01*
X029160Y022125D01*
X029660Y022625D01*
X030160Y022125D02*
X030160Y023125D01*
X029660Y023625D01*
X029410Y023375D01*
X028660Y023375D01*
X029660Y024625D02*
X031910Y024625D01*
X034160Y024625D01*
X036410Y024625D01*
X038660Y024625D01*
X040910Y024625D01*
X043160Y024625D01*
X045410Y024625D01*
X045910Y024125D02*
X045910Y025125D01*
X045410Y025625D01*
X045035Y026000D01*
X044410Y026000D01*
X044410Y026500D01*
X043160Y025625D02*
X042785Y026000D01*
X042160Y026000D01*
X042160Y026500D01*
X040910Y025625D02*
X040535Y026000D01*
X039910Y026000D01*
X039910Y026500D01*
X038660Y025625D02*
X038285Y026000D01*
X037660Y026000D01*
X037660Y026500D01*
X036410Y025625D02*
X036035Y026000D01*
X035410Y026000D01*
X035410Y026500D01*
X034160Y025625D02*
X033785Y026000D01*
X033160Y026000D01*
X033160Y026500D01*
X031910Y025625D02*
X031535Y026000D01*
X030910Y026000D01*
X030910Y026500D01*
X029660Y025625D02*
X029285Y026000D01*
X028660Y026000D01*
X028660Y026500D01*
X027410Y028000D02*
X028410Y029000D01*
X032660Y029000D01*
X033160Y029500D01*
X033160Y028500D02*
X034160Y028500D01*
X035410Y028500D02*
X036410Y028500D01*
X037660Y028500D02*
X038660Y028500D01*
X039910Y028500D02*
X040910Y028500D01*
X042160Y028500D02*
X043160Y028500D01*
X044410Y028500D02*
X045410Y028500D01*
X046535Y026625D02*
X046535Y040250D01*
X046160Y040625D01*
X045035Y040625D01*
X044535Y041250D01*
X044535Y043000D01*
X044160Y043375D01*
X033535Y043375D01*
X033160Y043750D01*
X033160Y044750D01*
X032660Y045250D01*
X033660Y044250D02*
X033660Y044125D01*
X034160Y043625D01*
X044660Y043625D01*
X044910Y043375D01*
X044910Y042875D01*
X044160Y042750D02*
X044160Y040625D01*
X044285Y040375D01*
X044410Y039250D02*
X045410Y039250D01*
X044410Y037250D02*
X044410Y036750D01*
X045035Y036750D01*
X045410Y036375D01*
X045410Y035375D02*
X043160Y035375D01*
X040910Y035375D01*
X038660Y035375D01*
X039910Y034125D02*
X040660Y034125D01*
X040910Y034375D01*
X040910Y033375D02*
X040410Y032875D01*
X040410Y030875D01*
X039910Y030375D01*
X021035Y030375D01*
X020910Y030250D01*
X022660Y029250D02*
X024785Y029250D01*
X024910Y029125D01*
X027785Y029125D01*
X028285Y029500D01*
X031285Y029500D01*
X030910Y028500D02*
X031910Y028500D01*
X029660Y028500D02*
X028660Y028500D01*
X027410Y028000D02*
X024910Y028000D01*
X025410Y028500D02*
X024410Y028500D01*
X025035Y029375D02*
X027035Y029375D01*
X027160Y029500D01*
X029160Y031625D02*
X029160Y032875D01*
X029660Y033375D01*
X029410Y034125D02*
X028660Y034125D01*
X029410Y034125D02*
X029660Y034375D01*
X030910Y034125D02*
X031660Y034125D01*
X031910Y034375D01*
X031910Y033375D02*
X031410Y032875D01*
X031410Y031750D01*
X031160Y031375D01*
X012285Y031375D01*
X012160Y031250D01*
X011910Y031250D01*
X012410Y032875D02*
X012410Y033875D01*
X011910Y034375D01*
X011660Y034125D01*
X010910Y034125D01*
X010160Y033875D02*
X009660Y034375D01*
X009410Y034125D01*
X008660Y034125D01*
X010160Y033875D02*
X010160Y032875D01*
X009660Y031625D02*
X029160Y031625D01*
X025910Y032875D02*
X025910Y033875D01*
X025410Y034375D01*
X025160Y034125D01*
X024410Y034125D01*
X023660Y033875D02*
X023160Y034375D01*
X022910Y034125D01*
X022160Y034125D01*
X021410Y033875D02*
X020910Y034375D01*
X020660Y034125D01*
X019910Y034125D01*
X019160Y033875D02*
X018660Y034375D01*
X018410Y034125D01*
X017660Y034125D01*
X016910Y033875D02*
X016410Y034375D01*
X016160Y034125D01*
X015410Y034125D01*
X014660Y033875D02*
X014160Y034375D01*
X013910Y034125D01*
X013160Y034125D01*
X014660Y033875D02*
X014660Y032875D01*
X014285Y031125D02*
X033160Y031125D01*
X033410Y031375D01*
X033660Y031750D01*
X033660Y032875D01*
X034160Y033375D01*
X033910Y034125D02*
X033160Y034125D01*
X033910Y034125D02*
X034160Y034375D01*
X035410Y034125D02*
X036160Y034125D01*
X036410Y034375D01*
X036410Y033375D02*
X035910Y032875D01*
X035910Y031375D01*
X035410Y030875D01*
X016660Y030875D01*
X016410Y030750D01*
X016910Y032875D02*
X016910Y033875D01*
X019160Y033875D02*
X019160Y032875D01*
X021410Y032875D02*
X021410Y033875D01*
X023660Y033875D02*
X023660Y032875D01*
X023285Y030125D02*
X042160Y030125D01*
X042660Y030625D01*
X042660Y032875D01*
X043160Y033375D01*
X042910Y034125D02*
X042160Y034125D01*
X042910Y034125D02*
X043160Y034375D01*
X042660Y040750D02*
X042035Y041375D01*
X035910Y041375D01*
X035285Y040625D01*
X035160Y043000D02*
X035285Y043125D01*
X037285Y043125D01*
X037410Y043000D01*
X038160Y043000D02*
X038285Y043000D01*
X038410Y043125D01*
X043785Y043125D01*
X044160Y042750D01*
X036410Y036375D02*
X036035Y036750D01*
X035410Y036750D01*
X035410Y037250D01*
X034160Y036375D02*
X033785Y036750D01*
X033160Y036750D01*
X033160Y037250D01*
X031910Y036375D02*
X031535Y036750D01*
X030910Y036750D01*
X030910Y037250D01*
X029410Y042125D02*
X028660Y042125D01*
X026660Y042250D02*
X024660Y042250D01*
X023660Y043375D01*
X013660Y043375D01*
X013160Y043875D01*
X013160Y044750D01*
X012660Y045250D01*
X013660Y044250D02*
X013660Y044125D01*
X014160Y043625D01*
X024035Y043625D01*
X024910Y042750D01*
X024535Y041875D02*
X025910Y041875D01*
X022160Y037250D02*
X022160Y036750D01*
X022785Y036750D01*
X023160Y036375D01*
X020910Y036375D02*
X020535Y036750D01*
X019910Y036750D01*
X019910Y037250D01*
X018660Y036375D02*
X018285Y036750D01*
X017660Y036750D01*
X017660Y037250D01*
X016410Y036375D02*
X016035Y036750D01*
X015410Y036750D01*
X015410Y037250D01*
X014160Y036375D02*
X013785Y036750D01*
X013160Y036750D01*
X013160Y037250D01*
X011910Y036375D02*
X011535Y036750D01*
X010910Y036750D01*
X010910Y037250D01*
X009660Y036375D02*
X009285Y036750D01*
X008660Y036750D01*
X008660Y037250D01*
X008660Y039250D02*
X009660Y039250D01*
X010160Y040125D02*
X012535Y040125D01*
X011910Y039250D02*
X010910Y039250D01*
X013160Y039250D02*
X014160Y039250D01*
X015410Y039250D02*
X016410Y039250D01*
X017660Y039250D02*
X018660Y039250D01*
X019910Y039250D02*
X020910Y039250D01*
X020410Y040750D02*
X020285Y040875D01*
X015410Y040875D01*
X015410Y040625D01*
X014660Y041125D02*
X014160Y040750D01*
X013660Y042125D02*
X013785Y042375D01*
X016160Y042375D01*
X016410Y042750D02*
X015535Y042750D01*
X015410Y042625D01*
X016410Y042750D02*
X016660Y042500D01*
X016910Y040500D02*
X019910Y040500D01*
X014285Y031125D02*
X014160Y031000D01*
X014160Y028500D02*
X013160Y028500D01*
X011910Y028500D02*
X010910Y028500D01*
X009660Y028500D02*
X008660Y028500D01*
X008660Y026500D02*
X008660Y026000D01*
X009285Y026000D01*
X009660Y025625D01*
X010910Y026000D02*
X010910Y026500D01*
X010910Y026000D02*
X011535Y026000D01*
X011910Y025625D01*
X013160Y026000D02*
X013160Y026500D01*
X013160Y026000D02*
X013785Y026000D01*
X014160Y025625D01*
X015410Y026000D02*
X015410Y026500D01*
X015410Y026000D02*
X016035Y026000D01*
X016410Y025625D01*
X017660Y026000D02*
X017660Y026500D01*
X017660Y026000D02*
X018285Y026000D01*
X018660Y025625D01*
X019910Y026000D02*
X019910Y026500D01*
X019910Y026000D02*
X020535Y026000D01*
X020910Y025625D01*
X022160Y026000D02*
X022160Y026500D01*
X022160Y026000D02*
X022785Y026000D01*
X023160Y025625D01*
X024410Y026000D02*
X024410Y026500D01*
X024410Y026000D02*
X025035Y026000D01*
X025410Y025625D01*
X025410Y023625D02*
X025160Y023375D01*
X023660Y023125D02*
X023660Y022125D01*
X021410Y022125D02*
X021410Y023125D01*
X019160Y023125D02*
X019160Y022125D01*
X016910Y022125D02*
X016910Y023125D01*
X014660Y023125D02*
X014660Y022125D01*
X014285Y020375D02*
X033160Y020375D01*
X033660Y020875D01*
X033660Y022125D01*
X034160Y022625D01*
X034660Y022125D02*
X034660Y023125D01*
X034160Y023625D01*
X033910Y023375D01*
X033160Y023375D01*
X032410Y023125D02*
X031910Y023625D01*
X031660Y023375D01*
X030910Y023375D01*
X031910Y022625D02*
X031410Y022125D01*
X031410Y021000D01*
X031035Y020625D01*
X012035Y020625D01*
X011910Y020500D01*
X012410Y022125D02*
X012410Y023125D01*
X014285Y020375D02*
X014160Y020250D01*
X016410Y020000D02*
X016535Y020125D01*
X033535Y020125D01*
X034160Y020750D01*
X035535Y020750D01*
X035910Y021125D01*
X035910Y022125D01*
X036410Y022625D01*
X036910Y022125D02*
X036910Y023125D01*
X036410Y023625D01*
X036160Y023375D01*
X035410Y023375D01*
X037660Y023375D02*
X038410Y023375D01*
X038660Y023625D01*
X039160Y023125D01*
X039160Y022125D01*
X038660Y022625D02*
X038160Y022125D01*
X038160Y021000D01*
X037660Y020500D01*
X034410Y020500D01*
X033660Y019875D01*
X018785Y019875D01*
X018660Y019750D01*
X018160Y019625D02*
X017660Y019125D01*
X017660Y016500D01*
X016785Y015625D01*
X016035Y015625D01*
X015285Y014875D01*
X015285Y014125D01*
X017785Y012125D02*
X017785Y010750D01*
X016785Y009750D01*
X016035Y009750D01*
X015285Y009000D01*
X015285Y008250D01*
X017285Y007500D02*
X017660Y007500D01*
X017785Y007375D01*
X017785Y006375D01*
X018285Y005750D01*
X026535Y005750D01*
X027160Y005125D01*
X027660Y004625D02*
X028160Y004125D01*
X027660Y004625D02*
X027660Y005625D01*
X027160Y006125D01*
X020910Y006125D01*
X020785Y006375D01*
X020785Y007375D01*
X020660Y007500D01*
X020285Y007500D01*
X020785Y007375D02*
X020785Y008750D01*
X020285Y009250D01*
X019785Y009750D02*
X020785Y010750D01*
X020785Y011750D01*
X021410Y012375D01*
X027410Y012375D01*
X027785Y012750D01*
X027785Y013750D01*
X027285Y014125D02*
X027285Y014875D01*
X028035Y015625D01*
X028785Y015625D01*
X029660Y016500D01*
X029660Y017250D01*
X030785Y018375D01*
X035660Y018375D01*
X036660Y019375D01*
X038160Y019375D01*
X038160Y019750D02*
X038785Y020250D01*
X042535Y020250D01*
X042910Y020625D01*
X043410Y020625D01*
X043785Y021000D01*
X043785Y021625D01*
X044660Y022625D01*
X045410Y022625D01*
X044910Y022125D02*
X044910Y020875D01*
X043535Y019500D01*
X042160Y019500D01*
X038285Y015625D01*
X037785Y015625D01*
X037035Y015625D01*
X036285Y014875D01*
X036285Y014125D01*
X034785Y015625D02*
X034035Y015625D01*
X033285Y014875D01*
X033285Y014125D01*
X033785Y013750D02*
X033785Y012375D01*
X033285Y011875D01*
X027535Y011875D01*
X026785Y011125D01*
X026785Y010750D01*
X025785Y009750D01*
X025035Y009750D01*
X024285Y009000D01*
X024285Y008250D01*
X023785Y008750D02*
X023785Y007375D01*
X023660Y007500D01*
X023285Y007500D01*
X023785Y007375D02*
X023785Y006875D01*
X024035Y006500D01*
X027785Y006500D01*
X028160Y006125D01*
X028160Y005125D01*
X028660Y004625D02*
X029160Y004125D01*
X028660Y004625D02*
X028660Y006375D01*
X028160Y006875D01*
X027035Y006875D01*
X026785Y007125D01*
X026785Y007375D01*
X026660Y007500D01*
X026285Y007500D01*
X026785Y007375D02*
X026785Y008750D01*
X026285Y009250D01*
X027285Y009000D02*
X027285Y008250D01*
X027285Y009000D02*
X028035Y009750D01*
X028785Y009750D01*
X029660Y010625D01*
X029660Y011125D01*
X030160Y011625D01*
X039410Y011625D01*
X038910Y010500D02*
X034785Y010500D01*
X034410Y010125D01*
X032160Y010125D01*
X031785Y009750D01*
X031035Y009750D01*
X030285Y009000D01*
X030285Y008250D01*
X031285Y008375D02*
X031285Y007500D01*
X032285Y007500D01*
X031285Y007500D02*
X031285Y007125D01*
X030910Y006750D01*
X030035Y006750D01*
X029660Y006375D01*
X029660Y004625D01*
X030160Y004125D01*
X030160Y005125D02*
X030160Y006125D01*
X030410Y006375D01*
X033910Y006375D01*
X034535Y007000D01*
X034535Y007500D01*
X035285Y007500D01*
X034535Y007500D02*
X034535Y008500D01*
X035285Y009250D01*
X034785Y009750D02*
X035285Y010250D01*
X039160Y010250D01*
X041285Y012375D01*
X041285Y013625D01*
X040910Y014375D02*
X040910Y012500D01*
X038910Y010500D01*
X039160Y009750D02*
X037785Y009750D01*
X037035Y009750D01*
X036285Y009000D01*
X036285Y008250D01*
X037410Y008375D02*
X037410Y007625D01*
X037535Y007500D01*
X038285Y007500D01*
X037410Y007625D02*
X037410Y006250D01*
X037160Y006000D01*
X032535Y006000D01*
X032285Y005625D01*
X032285Y004625D01*
X031785Y004125D01*
X031160Y004125D01*
X029160Y005125D02*
X029160Y006625D01*
X028785Y007000D01*
X028785Y007500D01*
X029285Y007500D01*
X028785Y007500D02*
X028785Y008750D01*
X029285Y009250D01*
X030285Y011000D02*
X031035Y011000D01*
X030285Y012125D02*
X024410Y012125D01*
X023785Y011500D01*
X023785Y010750D01*
X022785Y009750D01*
X022035Y009750D01*
X021285Y009000D01*
X021285Y008250D01*
X019785Y009750D02*
X019035Y009750D01*
X018285Y009000D01*
X018285Y008250D01*
X017785Y008750D02*
X017785Y007375D01*
X017785Y008750D02*
X017285Y009250D01*
X018285Y011000D02*
X019035Y011000D01*
X017785Y012125D02*
X018410Y012750D01*
X024535Y012750D01*
X024785Y013125D01*
X024785Y013750D01*
X024285Y014125D02*
X024285Y014875D01*
X025035Y015625D01*
X025785Y015625D01*
X026660Y016500D01*
X026660Y017500D01*
X027910Y018750D01*
X034160Y018750D01*
X034910Y019375D01*
X035910Y019375D01*
X034910Y019750D02*
X038160Y019750D01*
X038035Y020000D02*
X038535Y020500D01*
X042160Y020500D01*
X042660Y021000D01*
X042660Y022125D01*
X043160Y022625D01*
X043660Y022125D02*
X043660Y023125D01*
X043160Y023625D01*
X042910Y023375D01*
X042160Y023375D01*
X041410Y023125D02*
X040910Y023625D01*
X040660Y023375D01*
X039910Y023375D01*
X040910Y022625D02*
X040410Y022125D01*
X040410Y021000D01*
X040160Y020750D01*
X038410Y020750D01*
X037910Y020250D01*
X034535Y020250D01*
X033785Y019625D01*
X021035Y019625D01*
X020910Y019500D01*
X022660Y019250D02*
X020660Y017250D01*
X020660Y016500D01*
X019785Y015625D01*
X019035Y015625D01*
X018285Y014875D01*
X018285Y014125D01*
X018285Y016875D02*
X019035Y016875D01*
X021285Y016875D02*
X022035Y016875D01*
X022035Y015625D02*
X021285Y014875D01*
X021285Y014125D01*
X022035Y015625D02*
X022785Y015625D01*
X023660Y016500D01*
X023660Y017750D01*
X024910Y019000D01*
X025410Y019000D02*
X034035Y019000D01*
X034910Y019750D01*
X034660Y020000D02*
X038035Y020000D01*
X039285Y019875D02*
X037535Y018125D01*
X033660Y018125D01*
X032535Y017000D01*
X032535Y016375D01*
X031785Y015625D01*
X031035Y015625D01*
X030285Y014875D01*
X030285Y014125D01*
X030785Y013750D02*
X030785Y012750D01*
X030285Y012125D01*
X028035Y011000D02*
X027285Y011000D01*
X025035Y011000D02*
X024285Y011000D01*
X023285Y009250D02*
X023785Y008750D01*
X022035Y011000D02*
X021285Y011000D01*
X016035Y011000D02*
X015285Y011000D01*
X015285Y016875D02*
X016035Y016875D01*
X023160Y019250D02*
X023285Y019375D01*
X033910Y019375D01*
X034660Y020000D01*
X032410Y022125D02*
X032410Y023125D01*
X033285Y016875D02*
X034035Y016875D01*
X034785Y015625D02*
X035535Y016375D01*
X038410Y016375D01*
X041910Y019875D01*
X044035Y019000D02*
X042535Y017500D01*
X042535Y013125D01*
X039160Y009750D01*
X038285Y009250D02*
X037410Y008375D01*
X034785Y009750D02*
X034035Y009750D01*
X033285Y009000D01*
X033285Y008250D01*
X032285Y009250D02*
X032160Y009250D01*
X031285Y008375D01*
X033285Y011000D02*
X034035Y011000D01*
X036285Y011000D02*
X037035Y011000D01*
X037035Y016875D02*
X036285Y016875D01*
X031035Y016875D02*
X030285Y016875D01*
X028035Y016875D02*
X027285Y016875D01*
X025035Y016875D02*
X024285Y016875D01*
X023160Y028500D02*
X022160Y028500D01*
X020910Y028500D02*
X019910Y028500D01*
X018660Y028500D02*
X017660Y028500D01*
X016410Y028500D02*
X015410Y028500D01*
X023160Y030000D02*
X023285Y030125D01*
X009660Y042125D02*
X008785Y042125D01*
X004660Y033000D02*
X004910Y032750D01*
X004910Y031750D01*
X004160Y031500D02*
X004160Y032625D01*
X003785Y033000D01*
X003660Y031000D02*
X004160Y030500D01*
X004160Y029750D01*
X004910Y029750D01*
X005660Y029750D01*
X004910Y029000D02*
X004160Y029000D01*
X003660Y029000D01*
X004160Y029000D02*
X004160Y027500D01*
X003660Y027000D02*
X004160Y026500D01*
X005285Y026500D01*
X005660Y026875D01*
X005660Y027000D01*
X004160Y029500D02*
X004160Y029750D01*
X041410Y023125D02*
X041410Y022125D01*
X044410Y023375D02*
X045160Y023375D01*
X045410Y023625D01*
X045910Y023125D01*
X045910Y022125D01*
X045410Y021625D02*
X045410Y019375D01*
X045035Y019000D01*
X044035Y019000D01*
X045910Y026125D02*
X046535Y026625D01*
D16*
X044910Y022125D03*
X041910Y019875D03*
X039285Y019875D03*
X038160Y019375D03*
X035910Y019375D03*
X040910Y014375D03*
X041285Y013625D03*
X039410Y011625D03*
X033785Y013750D03*
X030785Y013750D03*
X027785Y013750D03*
X024785Y013750D03*
X024910Y019000D03*
X025410Y019000D03*
X023160Y019250D03*
X022660Y019250D03*
X020910Y019500D03*
X018660Y019750D03*
X018160Y019625D03*
X016410Y020000D03*
X014160Y020250D03*
X011910Y020500D03*
X018160Y029625D03*
X018660Y030250D03*
X016410Y030750D03*
X014160Y031000D03*
X011910Y031250D03*
X009660Y031625D03*
X010160Y040125D03*
X011410Y040625D03*
X013160Y041750D03*
X013660Y042125D03*
X014660Y042000D03*
X015160Y043000D03*
X016160Y042375D03*
X016660Y042500D03*
X017535Y043000D03*
X018160Y043000D03*
X018660Y042750D03*
X019160Y042500D03*
X020660Y042250D03*
X021160Y042125D03*
X021660Y042500D03*
X022160Y042250D03*
X022660Y040625D03*
X023660Y040625D03*
X024910Y042750D03*
X025910Y041875D03*
X026660Y042250D03*
X031410Y040750D03*
X033285Y041750D03*
X033660Y042250D03*
X034660Y041875D03*
X034160Y040625D03*
X035160Y040250D03*
X036160Y042500D03*
X036660Y042750D03*
X037410Y043000D03*
X038160Y043000D03*
X038660Y042750D03*
X039160Y042500D03*
X040660Y042250D03*
X041160Y042250D03*
X041660Y042500D03*
X042285Y042250D03*
X042660Y040750D03*
X040410Y040750D03*
X039785Y040500D03*
X035160Y043000D03*
X044910Y042875D03*
X033160Y029500D03*
X031285Y029500D03*
X027160Y029500D03*
X025410Y029750D03*
X024910Y028000D03*
X023160Y030000D03*
X022660Y029250D03*
X020910Y030250D03*
X019910Y040500D03*
X020410Y040750D03*
X016910Y040500D03*
X015410Y040625D03*
X014160Y040750D03*
X007160Y040500D03*
M02*
