G04 Output by ViewMate Deluxe V11.0.9  PentaLogix LLC*
G04 Wed Apr 16 06:41:37 2014*
%FSLAX33Y33*%
%MOMM*%
%IPPOS*%
%ADD17C,0.3048*%
%ADD18C,0.4064*%
%ADD19C,0.127*%
%ADD20C,0.254*%
%ADD21C,0.127*%
%ADD117C,0.2032*%
%ADD118C,0.1524*%
%ADD120C,0.8128*%
%ADD121C,0.1778*%
%ADD122C,1.27*%

%LPD*%
X0Y0D2*D21*G1X12522Y57348D2*X13691Y57348D1*D17*X67081Y77470D2*X20091Y77470D1*X119151Y77470D2*X71526Y77470D1*X111849Y104775D2*X111849Y53022D1*X106134Y53022D2*X106134Y104775D1*X100419Y104775D2*X100419Y53022D1*X94704Y53022D2*X94704Y104775D1*X88989Y104775D2*X88989Y53022D1*X83274Y53022D2*X83274Y104775D1*X77559Y104775D2*X77559Y53022D1*X61049Y53022D2*X61049Y104775D1*X55334Y104775D2*X55334Y53022D1*X49619Y53022D2*X49619Y104775D1*X43904Y104775D2*X43904Y53022D1*X26759Y53340D2*X26759Y104775D1*X32474Y104775D2*X32474Y53022D1*X38189Y53022D2*X38189Y104775D1*D18*X98831Y32702D2*X37554Y32702D1*X90894Y46990D2*X90894Y17462D1*X83274Y18415D2*X83274Y46672D1*X75654Y46672D2*X75654Y18415D1*X68034Y18415D2*X68034Y46672D1*X60414Y46672D2*X60414Y18415D1*X52794Y18415D2*X52794Y46672D1*X45174Y46990D2*X45174Y17462D1*D19*X83071Y111011D2*X82842Y111011D1*X82718Y110886D2*X83195Y110886D1*X83317Y110764D2*X82596Y110764D1*X82471Y110640D2*X83442Y110640D1*X83563Y110518D2*X82349Y110518D1*X82225Y110393D2*X83688Y110393D1*X83810Y110272D2*X82103Y110272D1*X81978Y110147D2*X83934Y110147D1*X84059Y110025D2*X81857Y110025D1*X81732Y109901D2*X84181Y109901D1*X81686Y109855D2*X82956Y111125D1*X84226Y109855*X81686Y109855*X9550Y105728D2*X9705Y105692D1*X9855Y105646*X10005Y105593*X10150Y105529*X10290Y105458*X10427Y105377*X10559Y105288*X10683Y105192*X10803Y105090*X10914Y104978*X11021Y104861*X11120Y104737*X11209Y104607*X11293Y104473*X11366Y104333*X11433Y104188*X11488Y104041*X11537Y103891*X11575Y103736*X11603Y103581*X11623Y103424*X11633Y103266*X11633Y103109*X11623Y102951*X11603Y102794*X11575Y102639*X11537Y102484*X11488Y102334*X11433Y102187*X11366Y102042*X11293Y101902*X11209Y101768*X11120Y101638*X11021Y101514*X10914Y101397*X10803Y101285*X10683Y101183*X10559Y101087*X10427Y100998*X10290Y100917*X10150Y100846*X10005Y100782*X9855Y100729*X9705Y100683*X9550Y100648*X9705Y100612*X9855Y100566*X10005Y100513*X10150Y100449*X10290Y100378*X10427Y100297*X10559Y100208*X10683Y100112*X10803Y100010*X10914Y99898*X11021Y99781*X11120Y99657*X11209Y99527*X11293Y99393*X11366Y99253*X11433Y99108*X11488Y98961*X11537Y98811*X11575Y98656*X11603Y98501*X11623Y98344*X11633Y98186*X11633Y98029*X11623Y97871*X11603Y97714*X11575Y97559*X11537Y97404*X11488Y97254*X11433Y97107*X11366Y96962*X11293Y96822*X11209Y96688*X11120Y96558*X11021Y96434*X10914Y96317*X10803Y96205*X10683Y96103*X10559Y96007*X10427Y95918*X10290Y95837*X10150Y95766*X10005Y95702*X9855Y95649*X9705Y95603*X9550Y95568*X9705Y95532*X9855Y95486*X10005Y95433*X10150Y95369*X10290Y95298*X10427Y95217*X10559Y95128*X10683Y95032*X10803Y94930*X10914Y94818*X11021Y94701*X11120Y94577*X11209Y94447*X11293Y94313*X11366Y94173*X11433Y94028*X11488Y93881*X11537Y93731*X11575Y93576*X11603Y93421*X11623Y93264*X11633Y93106*X11633Y92949*X11623Y92791*X11603Y92634*X11575Y92479*X11537Y92324*X11488Y92174*X11433Y92027*X11366Y91882*X11293Y91742*X11209Y91608*X11120Y91478*X11021Y91354*X10914Y91237*X10803Y91125*X10683Y91023*X10559Y90927*X10427Y90838*X10290Y90757*X10150Y90686*X10005Y90622*X9855Y90569*X9705Y90523*X9550Y90488*X8026Y90488*X8026Y95568*X9550Y95568*X8026Y95568*X8026Y100648*X9550Y100648*X8026Y100648*X8026Y105728*X9550Y105728*X32271Y111011D2*X32042Y111011D1*X31918Y110886D2*X32395Y110886D1*X32517Y110764D2*X31796Y110764D1*X31671Y110640D2*X32642Y110640D1*X32763Y110518D2*X31549Y110518D1*X31425Y110393D2*X32888Y110393D1*X33010Y110272D2*X31303Y110272D1*X31178Y110147D2*X33134Y110147D1*X33259Y110025D2*X31057Y110025D1*X30932Y109901D2*X33381Y109901D1*X30886Y109855D2*X32156Y111125D1*X33426Y109855*X30886Y109855*X21361Y118745D2*X21361Y111125D1*X65811Y111125*X65811Y118745*X72161Y118745D2*X72161Y111125D1*X116611Y111125*X116611Y118745*X114071Y80962D2*X115595Y80962D1*X115750Y80998*X115900Y81044*X116050Y81097*X116195Y81161*X116335Y81232*X116472Y81313*X116604Y81402*X116728Y81498*X116848Y81600*X116959Y81712*X117066Y81829*X117165Y81953*X117254Y82083*X117338Y82217*X117412Y82357*X117478Y82502*X117533Y82649*X117582Y82799*X117620Y82954*X117648Y83109*X117668Y83266*X117678Y83424*X117678Y83581*X117668Y83739*X117648Y83896*X117620Y84051*X117582Y84206*X117533Y84356*X117478Y84503*X117412Y84648*X117338Y84788*X117254Y84922*X117165Y85052*X117066Y85176*X116959Y85293*X116848Y85405*X116728Y85507*X116604Y85603*X116472Y85692*X116335Y85773*X116195Y85844*X116050Y85908*X115900Y85961*X115750Y86007*X115595Y86042*X115750Y86078*X115900Y86124*X116050Y86177*X116195Y86241*X116335Y86312*X116472Y86393*X116604Y86482*X116728Y86578*X116848Y86680*X116959Y86792*X117066Y86909*X117165Y87033*X117254Y87163*X117338Y87297*X117412Y87437*X117478Y87582*X117533Y87729*X117582Y87879*X117620Y88034*X117648Y88189*X117668Y88346*X117678Y88504*X117678Y88661*X117668Y88819*X117648Y88976*X117620Y89131*X117582Y89286*X117533Y89436*X117478Y89583*X117412Y89728*X117338Y89868*X117254Y90002*X117165Y90132*X117066Y90256*X116959Y90373*X116848Y90485*X116728Y90587*X116604Y90683*X116472Y90772*X116335Y90853*X116195Y90924*X116050Y90988*X115900Y91041*X115750Y91087*X115595Y91122*X115750Y91158*X115900Y91204*X116050Y91257*X116195Y91321*X116335Y91392*X116472Y91473*X116604Y91562*X116728Y91658*X116848Y91760*X116959Y91872*X117066Y91989*X117165Y92113*X117254Y92243*X117338Y92377*X117412Y92517*X117478Y92662*X117533Y92809*X117582Y92959*X117620Y93114*X117648Y93269*X117668Y93426*X117678Y93584*X117678Y93741*X117668Y93899*X117648Y94056*X117620Y94211*X117582Y94366*X117533Y94516*X117478Y94663*X117412Y94808*X117338Y94948*X117254Y95082*X117165Y95212*X117066Y95336*X116959Y95453*X116848Y95565*X116728Y95667*X116604Y95763*X116472Y95852*X116335Y95933*X116195Y96004*X116050Y96068*X115900Y96121*X115750Y96167*X115595Y96202*X114071Y96202*X114071Y91122*X115595Y91122*X114071Y91122*X114071Y86042*X115595Y86042*X114071Y86042*X114071Y80962*X109880Y80962D2*X110035Y80998D1*X110185Y81044*X110335Y81097*X110480Y81161*X110620Y81232*X110757Y81313*X110889Y81402*X111013Y81498*X111133Y81600*X111244Y81712*X111351Y81829*X111450Y81953*X111539Y82083*X111623Y82217*X111696Y82357*X111763Y82502*X111818Y82649*X111867Y82799*X111905Y82954*X111933Y83109*X111953Y83266*X111963Y83424*X111963Y83581*X111953Y83739*X111933Y83896*X111905Y84051*X111867Y84206*X111818Y84356*X111763Y84503*X111696Y84648*X111623Y84788*X111539Y84922*X111450Y85052*X111351Y85176*X111244Y85293*X111133Y85405*X111013Y85507*X110889Y85603*X110757Y85692*X110620Y85773*X110480Y85844*X110335Y85908*X110185Y85961*X110035Y86007*X109880Y86042*X110035Y86078*X110185Y86124*X110335Y86177*X110480Y86241*X110620Y86312*X110757Y86393*X110889Y86482*X111013Y86578*X111133Y86680*X111244Y86792*X111351Y86909*X111450Y87033*X111539Y87163*X111623Y87297*X111696Y87437*X111763Y87582*X111818Y87729*X111867Y87879*X111905Y88034*X111933Y88189*X111953Y88346*X111963Y88504*X111963Y88661*X111953Y88819*X111933Y88976*X111905Y89131*X111867Y89286*X111818Y89436*X111763Y89583*X111696Y89728*X111623Y89868*X111539Y90002*X111450Y90132*X111351Y90256*X111244Y90373*X111133Y90485*X111013Y90587*X110889Y90683*X110757Y90772*X110620Y90853*X110480Y90924*X110335Y90988*X110185Y91041*X110035Y91087*X109880Y91122*X110035Y91158*X110185Y91204*X110335Y91257*X110480Y91321*X110620Y91392*X110757Y91473*X110889Y91562*X111013Y91658*X111133Y91760*X111244Y91872*X111351Y91989*X111450Y92113*X111539Y92243*X111623Y92377*X111696Y92517*X111763Y92662*X111818Y92809*X111867Y92959*X111905Y93114*X111933Y93269*X111953Y93426*X111963Y93584*X111963Y93741*X111953Y93899*X111933Y94056*X111905Y94211*X111867Y94366*X111818Y94516*X111763Y94663*X111696Y94808*X111623Y94948*X111539Y95082*X111450Y95212*X111351Y95336*X111244Y95453*X111133Y95565*X111013Y95667*X110889Y95763*X110757Y95852*X110620Y95933*X110480Y96004*X110335Y96068*X110185Y96121*X110035Y96167*X109880Y96202*X108356Y96202*X108356Y91122*X109880Y91122*X108356Y91122*X108356Y86042*X109880Y86042*X108356Y86042*X108356Y80962*X109880Y80962*X104165Y80962D2*X104320Y80998D1*X104470Y81044*X104620Y81097*X104765Y81161*X104905Y81232*X105042Y81313*X105174Y81402*X105298Y81498*X105418Y81600*X105529Y81712*X105636Y81829*X105735Y81953*X105824Y82083*X105908Y82217*X105982Y82357*X106048Y82502*X106103Y82649*X106152Y82799*X106190Y82954*X106218Y83109*X106238Y83266*X106248Y83424*X106248Y83581*X106238Y83739*X106218Y83896*X106190Y84051*X106152Y84206*X106103Y84356*X106048Y84503*X105982Y84648*X105908Y84788*X105824Y84922*X105735Y85052*X105636Y85176*X105529Y85293*X105418Y85405*X105298Y85507*X105174Y85603*X105042Y85692*X104905Y85773*X104765Y85844*X104620Y85908*X104470Y85961*X104320Y86007*X104165Y86042*X104320Y86078*X104470Y86124*X104620Y86177*X104765Y86241*X104905Y86312*X105042Y86393*X105174Y86482*X105298Y86578*X105418Y86680*X105529Y86792*X105636Y86909*X105735Y87033*X105824Y87163*X105908Y87297*X105982Y87437*X106048Y87582*X106103Y87729*X106152Y87879*X106190Y88034*X106218Y88189*X106238Y88346*X106248Y88504*X106248Y88661*X106238Y88819*X106218Y88976*X106190Y89131*X106152Y89286*X106103Y89436*X106048Y89583*X105982Y89728*X105908Y89868*X105824Y90002*X105735Y90132*X105636Y90256*X105529Y90373*X105418Y90485*X105298Y90587*X105174Y90683*X105042Y90772*X104905Y90853*X104765Y90924*X104620Y90988*X104470Y91041*X104320Y91087*X104165Y91122*X104320Y91158*X104470Y91204*X104620Y91257*X104765Y91321*X104905Y91392*X105042Y91473*X105174Y91562*X105298Y91658*X105418Y91760*X105529Y91872*X105636Y91989*X105735Y92113*X105824Y92243*X105908Y92377*X105982Y92517*X106048Y92662*X106103Y92809*X106152Y92959*X106190Y93114*X106218Y93269*X106238Y93426*X106248Y93584*X106248Y93741*X106238Y93899*X106218Y94056*X106190Y94211*X106152Y94366*X106103Y94516*X106048Y94663*X105982Y94808*X105908Y94948*X105824Y95082*X105735Y95212*X105636Y95336*X105529Y95453*X105418Y95565*X105298Y95667*X105174Y95763*X105042Y95852*X104905Y95933*X104765Y96004*X104620Y96068*X104470Y96121*X104320Y96167*X104165Y96202*X102641Y96202*X102641Y91122*X104165Y91122*X102641Y91122*X102641Y86042*X104165Y86042*X102641Y86042*X102641Y80962*X104165Y80962*X98450Y80962D2*X98605Y80998D1*X98755Y81044*X98905Y81097*X99050Y81161*X99190Y81232*X99327Y81313*X99459Y81402*X99583Y81498*X99703Y81600*X99814Y81712*X99921Y81829*X100020Y81953*X100109Y82083*X100193Y82217*X100266Y82357*X100333Y82502*X100388Y82649*X100437Y82799*X100475Y82954*X100503Y83109*X100523Y83266*X100533Y83424*X100533Y83581*X100523Y83739*X100503Y83896*X100475Y84051*X100437Y84206*X100388Y84356*X100333Y84503*X100266Y84648*X100193Y84788*X100109Y84922*X100020Y85052*X99921Y85176*X99814Y85293*X99703Y85405*X99583Y85507*X99459Y85603*X99327Y85692*X99190Y85773*X99050Y85844*X98905Y85908*X98755Y85961*X98605Y86007*X98450Y86042*X98605Y86078*X98755Y86124*X98905Y86177*X99050Y86241*X99190Y86312*X99327Y86393*X99459Y86482*X99583Y86578*X99703Y86680*X99814Y86792*X99921Y86909*X100020Y87033*X100109Y87163*X100193Y87297*X100266Y87437*X100333Y87582*X100388Y87729*X100437Y87879*X100475Y88034*X100503Y88189*X100523Y88346*X100533Y88504*X100533Y88661*X100523Y88819*X100503Y88976*X100475Y89131*X100437Y89286*X100388Y89436*X100333Y89583*X100266Y89728*X100193Y89868*X100109Y90002*X100020Y90132*X99921Y90256*X99814Y90373*X99703Y90485*X99583Y90587*X99459Y90683*X99327Y90772*X99190Y90853*X99050Y90924*X98905Y90988*X98755Y91041*X98605Y91087*X98450Y91122*X98605Y91158*X98755Y91204*X98905Y91257*X99050Y91321*X99190Y91392*X99327Y91473*X99459Y91562*X99583Y91658*X99703Y91760*X99814Y91872*X99921Y91989*X100020Y92113*X100109Y92243*X100193Y92377*X100266Y92517*X100333Y92662*X100388Y92809*X100437Y92959*X100475Y93114*X100503Y93269*X100523Y93426*X100533Y93584*X100533Y93741*X100523Y93899*X100503Y94056*X100475Y94211*X100437Y94366*X100388Y94516*X100333Y94663*X100266Y94808*X100193Y94948*X100109Y95082*X100020Y95212*X99921Y95336*X99814Y95453*X99703Y95565*X99583Y95667*X99459Y95763*X99327Y95852*X99190Y95933*X99050Y96004*X98905Y96068*X98755Y96121*X98605Y96167*X98450Y96202*X96926Y96202*X96926Y91122*X98450Y91122*X96926Y91122*X96926Y86042*X98450Y86042*X96926Y86042*X96926Y80962*X98450Y80962*X91211Y80962D2*X92735Y80962D1*X92890Y80998*X93040Y81044*X93190Y81097*X93335Y81161*X93475Y81232*X93612Y81313*X93744Y81402*X93868Y81498*X93988Y81600*X94099Y81712*X94206Y81829*X94305Y81953*X94394Y82083*X94478Y82217*X94552Y82357*X94618Y82502*X94673Y82649*X94722Y82799*X94760Y82954*X94788Y83109*X94808Y83266*X94818Y83424*X94818Y83581*X94808Y83739*X94788Y83896*X94760Y84051*X94722Y84206*X94673Y84356*X94618Y84503*X94552Y84648*X94478Y84788*X94394Y84922*X94305Y85052*X94206Y85176*X94099Y85293*X93988Y85405*X93868Y85507*X93744Y85603*X93612Y85692*X93475Y85773*X93335Y85844*X93190Y85908*X93040Y85961*X92890Y86007*X92735Y86042*X92890Y86078*X93040Y86124*X93190Y86177*X93335Y86241*X93475Y86312*X93612Y86393*X93744Y86482*X93868Y86578*X93988Y86680*X94099Y86792*X94206Y86909*X94305Y87033*X94394Y87163*X94478Y87297*X94552Y87437*X94618Y87582*X94673Y87729*X94722Y87879*X94760Y88034*X94788Y88189*X94808Y88346*X94818Y88504*X94818Y88661*X94808Y88819*X94788Y88976*X94760Y89131*X94722Y89286*X94673Y89436*X94618Y89583*X94552Y89728*X94478Y89868*X94394Y90002*X94305Y90132*X94206Y90256*X94099Y90373*X93988Y90485*X93868Y90587*X93744Y90683*X93612Y90772*X93475Y90853*X93335Y90924*X93190Y90988*X93040Y91041*X92890Y91087*X92735Y91122*X92890Y91158*X93040Y91204*X93190Y91257*X93335Y91321*X93475Y91392*X93612Y91473*X93744Y91562*X93868Y91658*X93988Y91760*X94099Y91872*X94206Y91989*X94305Y92113*X94394Y92243*X94478Y92377*X94552Y92517*X94618Y92662*X94673Y92809*X94722Y92959*X94760Y93114*X94788Y93269*X94808Y93426*X94818Y93584*X94818Y93741*X94808Y93899*X94788Y94056*X94760Y94211*X94722Y94366*X94673Y94516*X94618Y94663*X94552Y94808*X94478Y94948*X94394Y95082*X94305Y95212*X94206Y95336*X94099Y95453*X93988Y95565*X93868Y95667*X93744Y95763*X93612Y95852*X93475Y95933*X93335Y96004*X93190Y96068*X93040Y96121*X92890Y96167*X92735Y96202*X91211Y96202*X91211Y91122*X92735Y91122*X91211Y91122*X91211Y86042*X92735Y86042*X91211Y86042*X91211Y80962*X85496Y80962D2*X87020Y80962D1*X87175Y80998*X87325Y81044*X87475Y81097*X87620Y81161*X87760Y81232*X87897Y81313*X88029Y81402*X88153Y81498*X88273Y81600*X88384Y81712*X88491Y81829*X88590Y81953*X88679Y82083*X88763Y82217*X88836Y82357*X88903Y82502*X88958Y82649*X89007Y82799*X89045Y82954*X89073Y83109*X89093Y83266*X89103Y83424*X89103Y83581*X89093Y83739*X89073Y83896*X89045Y84051*X89007Y84206*X88958Y84356*X88903Y84503*X88836Y84648*X88763Y84788*X88679Y84922*X88590Y85052*X88491Y85176*X88384Y85293*X88273Y85405*X88153Y85507*X88029Y85603*X87897Y85692*X87760Y85773*X87620Y85844*X87475Y85908*X87325Y85961*X87175Y86007*X87020Y86042*X87175Y86078*X87325Y86124*X87475Y86177*X87620Y86241*X87760Y86312*X87897Y86393*X88029Y86482*X88153Y86578*X88273Y86680*X88384Y86792*X88491Y86909*X88590Y87033*X88679Y87163*X88763Y87297*X88836Y87437*X88903Y87582*X88958Y87729*X89007Y87879*X89045Y88034*X89073Y88189*X89093Y88346*X89103Y88504*X89103Y88661*X89093Y88819*X89073Y88976*X89045Y89131*X89007Y89286*X88958Y89436*X88903Y89583*X88836Y89728*X88763Y89868*X88679Y90002*X88590Y90132*X88491Y90256*X88384Y90373*X88273Y90485*X88153Y90587*X88029Y90683*X87897Y90772*X87760Y90853*X87620Y90924*X87475Y90988*X87325Y91041*X87175Y91087*X87020Y91122*X87175Y91158*X87325Y91204*X87475Y91257*X87620Y91321*X87760Y91392*X87897Y91473*X88029Y91562*X88153Y91658*X88273Y91760*X88384Y91872*X88491Y91989*X88590Y92113*X88679Y92243*X88763Y92377*X88836Y92517*X88903Y92662*X88958Y92809*X89007Y92959*X89045Y93114*X89073Y93269*X89093Y93426*X89103Y93584*X89103Y93741*X89093Y93899*X89073Y94056*X89045Y94211*X89007Y94366*X88958Y94516*X88903Y94663*X88836Y94808*X88763Y94948*X88679Y95082*X88590Y95212*X88491Y95336*X88384Y95453*X88273Y95565*X88153Y95667*X88029Y95763*X87897Y95852*X87760Y95933*X87620Y96004*X87475Y96068*X87325Y96121*X87175Y96167*X87020Y96202*X85496Y96202*X85496Y91122*X87020Y91122*X85496Y91122*X85496Y86042*X87020Y86042*X85496Y86042*X85496Y80962*X81305Y80962D2*X81460Y80998D1*X81610Y81044*X81760Y81097*X81905Y81161*X82045Y81232*X82182Y81313*X82314Y81402*X82438Y81498*X82558Y81600*X82669Y81712*X82776Y81829*X82875Y81953*X82964Y82083*X83048Y82217*X83122Y82357*X83188Y82502*X83243Y82649*X83292Y82799*X83330Y82954*X83358Y83109*X83378Y83266*X83388Y83424*X83388Y83581*X83378Y83739*X83358Y83896*X83330Y84051*X83292Y84206*X83243Y84356*X83188Y84503*X83122Y84648*X83048Y84788*X82964Y84922*X82875Y85052*X82776Y85176*X82669Y85293*X82558Y85405*X82438Y85507*X82314Y85603*X82182Y85692*X82045Y85773*X81905Y85844*X81760Y85908*X81610Y85961*X81460Y86007*X81305Y86042*X81460Y86078*X81610Y86124*X81760Y86177*X81905Y86241*X82045Y86312*X82182Y86393*X82314Y86482*X82438Y86578*X82558Y86680*X82669Y86792*X82776Y86909*X82875Y87033*X82964Y87163*X83048Y87297*X83122Y87437*X83188Y87582*X83243Y87729*X83292Y87879*X83330Y88034*X83358Y88189*X83378Y88346*X83388Y88504*X83388Y88661*X83378Y88819*X83358Y88976*X83330Y89131*X83292Y89286*X83243Y89436*X83188Y89583*X83122Y89728*X83048Y89868*X82964Y90002*X82875Y90132*X82776Y90256*X82669Y90373*X82558Y90485*X82438Y90587*X82314Y90683*X82182Y90772*X82045Y90853*X81905Y90924*X81760Y90988*X81610Y91041*X81460Y91087*X81305Y91122*X81460Y91158*X81610Y91204*X81760Y91257*X81905Y91321*X82045Y91392*X82182Y91473*X82314Y91562*X82438Y91658*X82558Y91760*X82669Y91872*X82776Y91989*X82875Y92113*X82964Y92243*X83048Y92377*X83122Y92517*X83188Y92662*X83243Y92809*X83292Y92959*X83330Y93114*X83358Y93269*X83378Y93426*X83388Y93584*X83388Y93741*X83378Y93899*X83358Y94056*X83330Y94211*X83292Y94366*X83243Y94516*X83188Y94663*X83122Y94808*X83048Y94948*X82964Y95082*X82875Y95212*X82776Y95336*X82669Y95453*X82558Y95565*X82438Y95667*X82314Y95763*X82182Y95852*X82045Y95933*X81905Y96004*X81760Y96068*X81610Y96121*X81460Y96167*X81305Y96202*X79781Y96202*X79781Y91122*X81305Y91122*X79781Y91122*X79781Y86042*X81305Y86042*X79781Y86042*X79781Y80962*X81305Y80962*X75590Y80962D2*X75745Y80998D1*X75895Y81044*X76045Y81097*X76190Y81161*X76330Y81232*X76467Y81313*X76599Y81402*X76723Y81498*X76843Y81600*X76954Y81712*X77061Y81829*X77160Y81953*X77249Y82083*X77333Y82217*X77406Y82357*X77473Y82502*X77528Y82649*X77577Y82799*X77615Y82954*X77643Y83109*X77663Y83266*X77673Y83424*X77673Y83581*X77663Y83739*X77643Y83896*X77615Y84051*X77577Y84206*X77528Y84356*X77473Y84503*X77406Y84648*X77333Y84788*X77249Y84922*X77160Y85052*X77061Y85176*X76954Y85293*X76843Y85405*X76723Y85507*X76599Y85603*X76467Y85692*X76330Y85773*X76190Y85844*X76045Y85908*X75895Y85961*X75745Y86007*X75590Y86042*X75745Y86078*X75895Y86124*X76045Y86177*X76190Y86241*X76330Y86312*X76467Y86393*X76599Y86482*X76723Y86578*X76843Y86680*X76954Y86792*X77061Y86909*X77160Y87033*X77249Y87163*X77333Y87297*X77406Y87437*X77473Y87582*X77528Y87729*X77577Y87879*X77615Y88034*X77643Y88189*X77663Y88346*X77673Y88504*X77673Y88661*X77663Y88819*X77643Y88976*X77615Y89131*X77577Y89286*X77528Y89436*X77473Y89583*X77406Y89728*X77333Y89868*X77249Y90002*X77160Y90132*X77061Y90256*X76954Y90373*X76843Y90485*X76723Y90587*X76599Y90683*X76467Y90772*X76330Y90853*X76190Y90924*X76045Y90988*X75895Y91041*X75745Y91087*X75590Y91122*X75745Y91158*X75895Y91204*X76045Y91257*X76190Y91321*X76330Y91392*X76467Y91473*X76599Y91562*X76723Y91658*X76843Y91760*X76954Y91872*X77061Y91989*X77160Y92113*X77249Y92243*X77333Y92377*X77406Y92517*X77473Y92662*X77528Y92809*X77577Y92959*X77615Y93114*X77643Y93269*X77663Y93426*X77673Y93584*X77673Y93741*X77663Y93899*X77643Y94056*X77615Y94211*X77577Y94366*X77528Y94516*X77473Y94663*X77406Y94808*X77333Y94948*X77249Y95082*X77160Y95212*X77061Y95336*X76954Y95453*X76843Y95565*X76723Y95667*X76599Y95763*X76467Y95852*X76330Y95933*X76190Y96004*X76045Y96068*X75895Y96121*X75745Y96167*X75590Y96202*X74066Y96202*X74066Y91122*X75590Y91122*X74066Y91122*X74066Y86042*X75590Y86042*X74066Y86042*X74066Y80962*X75590Y80962*X64795Y80962D2*X64950Y80998D1*X65100Y81044*X65250Y81097*X65395Y81161*X65535Y81232*X65672Y81313*X65804Y81402*X65928Y81498*X66048Y81600*X66159Y81712*X66266Y81829*X66365Y81953*X66454Y82083*X66538Y82217*X66612Y82357*X66678Y82502*X66733Y82649*X66782Y82799*X66820Y82954*X66848Y83109*X66868Y83266*X66878Y83424*X66878Y83581*X66868Y83739*X66848Y83896*X66820Y84051*X66782Y84206*X66733Y84356*X66678Y84503*X66612Y84648*X66538Y84788*X66454Y84922*X66365Y85052*X66266Y85176*X66159Y85293*X66048Y85405*X65928Y85507*X65804Y85603*X65672Y85692*X65535Y85773*X65395Y85844*X65250Y85908*X65100Y85961*X64950Y86007*X64795Y86042*X64950Y86078*X65100Y86124*X65250Y86177*X65395Y86241*X65535Y86312*X65672Y86393*X65804Y86482*X65928Y86578*X66048Y86680*X66159Y86792*X66266Y86909*X66365Y87033*X66454Y87163*X66538Y87297*X66612Y87437*X66678Y87582*X66733Y87729*X66782Y87879*X66820Y88034*X66848Y88189*X66868Y88346*X66878Y88504*X66878Y88661*X66868Y88819*X66848Y88976*X66820Y89131*X66782Y89286*X66733Y89436*X66678Y89583*X66612Y89728*X66538Y89868*X66454Y90002*X66365Y90132*X66266Y90256*X66159Y90373*X66048Y90485*X65928Y90587*X65804Y90683*X65672Y90772*X65535Y90853*X65395Y90924*X65250Y90988*X65100Y91041*X64950Y91087*X64795Y91122*X64950Y91158*X65100Y91204*X65250Y91257*X65395Y91321*X65535Y91392*X65672Y91473*X65804Y91562*X65928Y91658*X66048Y91760*X66159Y91872*X66266Y91989*X66365Y92113*X66454Y92243*X66538Y92377*X66612Y92517*X66678Y92662*X66733Y92809*X66782Y92959*X66820Y93114*X66848Y93269*X66868Y93426*X66878Y93584*X66878Y93741*X66868Y93899*X66848Y94056*X66820Y94211*X66782Y94366*X66733Y94516*X66678Y94663*X66612Y94808*X66538Y94948*X66454Y95082*X66365Y95212*X66266Y95336*X66159Y95453*X66048Y95565*X65928Y95667*X65804Y95763*X65672Y95852*X65535Y95933*X65395Y96004*X65250Y96068*X65100Y96121*X64950Y96167*X64795Y96202*X63271Y96202*X63271Y91122*X64795Y91122*X63271Y91122*X63271Y86042*X64795Y86042*X63271Y86042*X63271Y80962*X64795Y80962*X59080Y80962D2*X59235Y80998D1*X59385Y81044*X59535Y81097*X59680Y81161*X59820Y81232*X59957Y81313*X60089Y81402*X60213Y81498*X60333Y81600*X60444Y81712*X60551Y81829*X60650Y81953*X60739Y82083*X60823Y82217*X60896Y82357*X60963Y82502*X61018Y82649*X61067Y82799*X61105Y82954*X61133Y83109*X61153Y83266*X61163Y83424*X61163Y83581*X61153Y83739*X61133Y83896*X61105Y84051*X61067Y84206*X61018Y84356*X60963Y84503*X60896Y84648*X60823Y84788*X60739Y84922*X60650Y85052*X60551Y85176*X60444Y85293*X60333Y85405*X60213Y85507*X60089Y85603*X59957Y85692*X59820Y85773*X59680Y85844*X59535Y85908*X59385Y85961*X59235Y86007*X59080Y86042*X59235Y86078*X59385Y86124*X59535Y86177*X59680Y86241*X59820Y86312*X59957Y86393*X60089Y86482*X60213Y86578*X60333Y86680*X60444Y86792*X60551Y86909*X60650Y87033*X60739Y87163*X60823Y87297*X60896Y87437*X60963Y87582*X61018Y87729*X61067Y87879*X61105Y88034*X61133Y88189*X61153Y88346*X61163Y88504*X61163Y88661*X61153Y88819*X61133Y88976*X61105Y89131*X61067Y89286*X61018Y89436*X60963Y89583*X60896Y89728*X60823Y89868*X60739Y90002*X60650Y90132*X60551Y90256*X60444Y90373*X60333Y90485*X60213Y90587*X60089Y90683*X59957Y90772*X59820Y90853*X59680Y90924*X59535Y90988*X59385Y91041*X59235Y91087*X59080Y91122*X59235Y91158*X59385Y91204*X59535Y91257*X59680Y91321*X59820Y91392*X59957Y91473*X60089Y91562*X60213Y91658*X60333Y91760*X60444Y91872*X60551Y91989*X60650Y92113*X60739Y92243*X60823Y92377*X60896Y92517*X60963Y92662*X61018Y92809*X61067Y92959*X61105Y93114*X61133Y93269*X61153Y93426*X61163Y93584*X61163Y93741*X61153Y93899*X61133Y94056*X61105Y94211*X61067Y94366*X61018Y94516*X60963Y94663*X60896Y94808*X60823Y94948*X60739Y95082*X60650Y95212*X60551Y95336*X60444Y95453*X60333Y95565*X60213Y95667*X60089Y95763*X59957Y95852*X59820Y95933*X59680Y96004*X59535Y96068*X59385Y96121*X59235Y96167*X59080Y96202*X57556Y96202*X57556Y91122*X59080Y91122*X57556Y91122*X57556Y86042*X59080Y86042*X57556Y86042*X57556Y80962*X59080Y80962*X53365Y80962D2*X53520Y80998D1*X53670Y81044*X53820Y81097*X53965Y81161*X54105Y81232*X54242Y81313*X54374Y81402*X54498Y81498*X54618Y81600*X54729Y81712*X54836Y81829*X54935Y81953*X55024Y82083*X55108Y82217*X55182Y82357*X55248Y82502*X55303Y82649*X55352Y82799*X55390Y82954*X55418Y83109*X55438Y83266*X55448Y83424*X55448Y83581*X55438Y83739*X55418Y83896*X55390Y84051*X55352Y84206*X55303Y84356*X55248Y84503*X55182Y84648*X55108Y84788*X55024Y84922*X54935Y85052*X54836Y85176*X54729Y85293*X54618Y85405*X54498Y85507*X54374Y85603*X54242Y85692*X54105Y85773*X53965Y85844*X53820Y85908*X53670Y85961*X53520Y86007*X53365Y86042*X53520Y86078*X53670Y86124*X53820Y86177*X53965Y86241*X54105Y86312*X54242Y86393*X54374Y86482*X54498Y86578*X54618Y86680*X54729Y86792*X54836Y86909*X54935Y87033*X55024Y87163*X55108Y87297*X55182Y87437*X55248Y87582*X55303Y87729*X55352Y87879*X55390Y88034*X55418Y88189*X55438Y88346*X55448Y88504*X55448Y88661*X55438Y88819*X55418Y88976*X55390Y89131*X55352Y89286*X55303Y89436*X55248Y89583*X55182Y89728*X55108Y89868*X55024Y90002*X54935Y90132*X54836Y90256*X54729Y90373*X54618Y90485*X54498Y90587*X54374Y90683*X54242Y90772*X54105Y90853*X53965Y90924*X53820Y90988*X53670Y91041*X53520Y91087*X53365Y91122*X53520Y91158*X53670Y91204*X53820Y91257*X53965Y91321*X54105Y91392*X54242Y91473*X54374Y91562*X54498Y91658*X54618Y91760*X54729Y91872*X54836Y91989*X54935Y92113*X55024Y92243*X55108Y92377*X55182Y92517*X55248Y92662*X55303Y92809*X55352Y92959*X55390Y93114*X55418Y93269*X55438Y93426*X55448Y93584*X55448Y93741*X55438Y93899*X55418Y94056*X55390Y94211*X55352Y94366*X55303Y94516*X55248Y94663*X55182Y94808*X55108Y94948*X55024Y95082*X54935Y95212*X54836Y95336*X54729Y95453*X54618Y95565*X54498Y95667*X54374Y95763*X54242Y95852*X54105Y95933*X53965Y96004*X53820Y96068*X53670Y96121*X53520Y96167*X53365Y96202*X51841Y96202*X51841Y91122*X53365Y91122*X51841Y91122*X51841Y86042*X53365Y86042*X51841Y86042*X51841Y80962*X53365Y80962*X47650Y80962D2*X47805Y80998D1*X47955Y81044*X48105Y81097*X48250Y81161*X48390Y81232*X48527Y81313*X48659Y81402*X48783Y81498*X48903Y81600*X49014Y81712*X49121Y81829*X49220Y81953*X49309Y82083*X49393Y82217*X49466Y82357*X49533Y82502*X49588Y82649*X49637Y82799*X49675Y82954*X49703Y83109*X49723Y83266*X49733Y83424*X49733Y83581*X49723Y83739*X49703Y83896*X49675Y84051*X49637Y84206*X49588Y84356*X49533Y84503*X49466Y84648*X49393Y84788*X49309Y84922*X49220Y85052*X49121Y85176*X49014Y85293*X48903Y85405*X48783Y85507*X48659Y85603*X48527Y85692*X48390Y85773*X48250Y85844*X48105Y85908*X47955Y85961*X47805Y86007*X47650Y86042*X47805Y86078*X47955Y86124*X48105Y86177*X48250Y86241*X48390Y86312*X48527Y86393*X48659Y86482*X48783Y86578*X48903Y86680*X49014Y86792*X49121Y86909*X49220Y87033*X49309Y87163*X49393Y87297*X49466Y87437*X49533Y87582*X49588Y87729*X49637Y87879*X49675Y88034*X49703Y88189*X49723Y88346*X49733Y88504*X49733Y88661*X49723Y88819*X49703Y88976*X49675Y89131*X49637Y89286*X49588Y89436*X49533Y89583*X49466Y89728*X49393Y89868*X49309Y90002*X49220Y90132*X49121Y90256*X49014Y90373*X48903Y90485*X48783Y90587*X48659Y90683*X48527Y90772*X48390Y90853*X48250Y90924*X48105Y90988*X47955Y91041*X47805Y91087*X47650Y91122*X47805Y91158*X47955Y91204*X48105Y91257*X48250Y91321*X48390Y91392*X48527Y91473*X48659Y91562*X48783Y91658*X48903Y91760*X49014Y91872*X49121Y91989*X49220Y92113*X49309Y92243*X49393Y92377*X49466Y92517*X49533Y92662*X49588Y92809*X49637Y92959*X49675Y93114*X49703Y93269*X49723Y93426*X49733Y93584*X49733Y93741*X49723Y93899*X49703Y94056*X49675Y94211*X49637Y94366*X49588Y94516*X49533Y94663*X49466Y94808*X49393Y94948*X49309Y95082*X49220Y95212*X49121Y95336*X49014Y95453*X48903Y95565*X48783Y95667*X48659Y95763*X48527Y95852*X48390Y95933*X48250Y96004*X48105Y96068*X47955Y96121*X47805Y96167*X47650Y96202*X46126Y96202*X46126Y91122*X47650Y91122*X46126Y91122*X46126Y86042*X47650Y86042*X46126Y86042*X46126Y80962*X47650Y80962*X41935Y80962D2*X42090Y80998D1*X42240Y81044*X42390Y81097*X42535Y81161*X42675Y81232*X42812Y81313*X42944Y81402*X43068Y81498*X43188Y81600*X43299Y81712*X43406Y81829*X43505Y81953*X43594Y82083*X43678Y82217*X43752Y82357*X43818Y82502*X43873Y82649*X43922Y82799*X43960Y82954*X43988Y83109*X44008Y83266*X44018Y83424*X44018Y83581*X44008Y83739*X43988Y83896*X43960Y84051*X43922Y84206*X43873Y84356*X43818Y84503*X43752Y84648*X43678Y84788*X43594Y84922*X43505Y85052*X43406Y85176*X43299Y85293*X43188Y85405*X43068Y85507*X42944Y85603*X42812Y85692*X42675Y85773*X42535Y85844*X42390Y85908*X42240Y85961*X42090Y86007*X41935Y86042*X42090Y86078*X42240Y86124*X42390Y86177*X42535Y86241*X42675Y86312*X42812Y86393*X42944Y86482*X43068Y86578*X43188Y86680*X43299Y86792*X43406Y86909*X43505Y87033*X43594Y87163*X43678Y87297*X43752Y87437*X43818Y87582*X43873Y87729*X43922Y87879*X43960Y88034*X43988Y88189*X44008Y88346*X44018Y88504*X44018Y88661*X44008Y88819*X43988Y88976*X43960Y89131*X43922Y89286*X43873Y89436*X43818Y89583*X43752Y89728*X43678Y89868*X43594Y90002*X43505Y90132*X43406Y90256*X43299Y90373*X43188Y90485*X43068Y90587*X42944Y90683*X42812Y90772*X42675Y90853*X42535Y90924*X42390Y90988*X42240Y91041*X42090Y91087*X41935Y91122*X42090Y91158*X42240Y91204*X42390Y91257*X42535Y91321*X42675Y91392*X42812Y91473*X42944Y91562*X43068Y91658*X43188Y91760*X43299Y91872*X43406Y91989*X43505Y92113*X43594Y92243*X43678Y92377*X43752Y92517*X43818Y92662*X43873Y92809*X43922Y92959*X43960Y93114*X43988Y93269*X44008Y93426*X44018Y93584*X44018Y93741*X44008Y93899*X43988Y94056*X43960Y94211*X43922Y94366*X43873Y94516*X43818Y94663*X43752Y94808*X43678Y94948*X43594Y95082*X43505Y95212*X43406Y95336*X43299Y95453*X43188Y95565*X43068Y95667*X42944Y95763*X42812Y95852*X42675Y95933*X42535Y96004*X42390Y96068*X42240Y96121*X42090Y96167*X41935Y96202*X40411Y96202*X40411Y91122*X41935Y91122*X40411Y91122*X40411Y86042*X41935Y86042*X40411Y86042*X40411Y80962*X41935Y80962*X34696Y80962D2*X36220Y80962D1*X36375Y80998*X36525Y81044*X36675Y81097*X36820Y81161*X36960Y81232*X37097Y81313*X37229Y81402*X37353Y81498*X37473Y81600*X37584Y81712*X37691Y81829*X37790Y81953*X37879Y82083*X37963Y82217*X38036Y82357*X38103Y82502*X38158Y82649*X38207Y82799*X38245Y82954*X38273Y83109*X38293Y83266*X38303Y83424*X38303Y83581*X38293Y83739*X38273Y83896*X38245Y84051*X38207Y84206*X38158Y84356*X38103Y84503*X38036Y84648*X37963Y84788*X37879Y84922*X37790Y85052*X37691Y85176*X37584Y85293*X37473Y85405*X37353Y85507*X37229Y85603*X37097Y85692*X36960Y85773*X36820Y85844*X36675Y85908*X36525Y85961*X36375Y86007*X36220Y86042*X36375Y86078*X36525Y86124*X36675Y86177*X36820Y86241*X36960Y86312*X37097Y86393*X37229Y86482*X37353Y86578*X37473Y86680*X37584Y86792*X37691Y86909*X37790Y87033*X37879Y87163*X37963Y87297*X38036Y87437*X38103Y87582*X38158Y87729*X38207Y87879*X38245Y88034*X38273Y88189*X38293Y88346*X38303Y88504*X38303Y88661*X38293Y88819*X38273Y88976*X38245Y89131*X38207Y89286*X38158Y89436*X38103Y89583*X38036Y89728*X37963Y89868*X37879Y90002*X37790Y90132*X37691Y90256*X37584Y90373*X37473Y90485*X37353Y90587*X37229Y90683*X37097Y90772*X36960Y90853*X36820Y90924*X36675Y90988*X36525Y91041*X36375Y91087*X36220Y91122*X36375Y91158*X36525Y91204*X36675Y91257*X36820Y91321*X36960Y91392*X37097Y91473*X37229Y91562*X37353Y91658*X37473Y91760*X37584Y91872*X37691Y91989*X37790Y92113*X37879Y92243*X37963Y92377*X38036Y92517*X38103Y92662*X38158Y92809*X38207Y92959*X38245Y93114*X38273Y93269*X38293Y93426*X38303Y93584*X38303Y93741*X38293Y93899*X38273Y94056*X38245Y94211*X38207Y94366*X38158Y94516*X38103Y94663*X38036Y94808*X37963Y94948*X37879Y95082*X37790Y95212*X37691Y95336*X37584Y95453*X37473Y95565*X37353Y95667*X37229Y95763*X37097Y95852*X36960Y95933*X36820Y96004*X36675Y96068*X36525Y96121*X36375Y96167*X36220Y96202*X34696Y96202*X34696Y91122*X36220Y91122*X34696Y91122*X34696Y86042*X36220Y86042*X34696Y86042*X34696Y80962*X28981Y80962D2*X30505Y80962D1*X30660Y80998*X30810Y81044*X30960Y81097*X31105Y81161*X31245Y81232*X31382Y81313*X31514Y81402*X31638Y81498*X31758Y81600*X31869Y81712*X31976Y81829*X32075Y81953*X32164Y82083*X32248Y82217*X32322Y82357*X32388Y82502*X32443Y82649*X32492Y82799*X32530Y82954*X32558Y83109*X32578Y83266*X32588Y83424*X32588Y83581*X32578Y83739*X32558Y83896*X32530Y84051*X32492Y84206*X32443Y84356*X32388Y84503*X32322Y84648*X32248Y84788*X32164Y84922*X32075Y85052*X31976Y85176*X31869Y85293*X31758Y85405*X31638Y85507*X31514Y85603*X31382Y85692*X31245Y85773*X31105Y85844*X30960Y85908*X30810Y85961*X30660Y86007*X30505Y86042*X30660Y86078*X30810Y86124*X30960Y86177*X31105Y86241*X31245Y86312*X31382Y86393*X31514Y86482*X31638Y86578*X31758Y86680*X31869Y86792*X31976Y86909*X32075Y87033*X32164Y87163*X32248Y87297*X32322Y87437*X32388Y87582*X32443Y87729*X32492Y87879*X32530Y88034*X32558Y88189*X32578Y88346*X32588Y88504*X32588Y88661*X32578Y88819*X32558Y88976*X32530Y89131*X32492Y89286*X32443Y89436*X32388Y89583*X32322Y89728*X32248Y89868*X32164Y90002*X32075Y90132*X31976Y90256*X31869Y90373*X31758Y90485*X31638Y90587*X31514Y90683*X31382Y90772*X31245Y90853*X31105Y90924*X30960Y90988*X30810Y91041*X30660Y91087*X30505Y91122*X30660Y91158*X30810Y91204*X30960Y91257*X31105Y91321*X31245Y91392*X31382Y91473*X31514Y91562*X31638Y91658*X31758Y91760*X31869Y91872*X31976Y91989*X32075Y92113*X32164Y92243*X32248Y92377*X32322Y92517*X32388Y92662*X32443Y92809*X32492Y92959*X32530Y93114*X32558Y93269*X32578Y93426*X32588Y93584*X32588Y93741*X32578Y93899*X32558Y94056*X32530Y94211*X32492Y94366*X32443Y94516*X32388Y94663*X32322Y94808*X32248Y94948*X32164Y95082*X32075Y95212*X31976Y95336*X31869Y95453*X31758Y95565*X31638Y95667*X31514Y95763*X31382Y95852*X31245Y95933*X31105Y96004*X30960Y96068*X30810Y96121*X30660Y96167*X30505Y96202*X28981Y96202*X28981Y91122*X30505Y91122*X28981Y91122*X28981Y86042*X30505Y86042*X28981Y86042*X28981Y80962*X24790Y80962D2*X24945Y80998D1*X25095Y81044*X25245Y81097*X25390Y81161*X25530Y81232*X25667Y81313*X25799Y81402*X25923Y81498*X26043Y81600*X26154Y81712*X26261Y81829*X26360Y81953*X26449Y82083*X26533Y82217*X26606Y82357*X26673Y82502*X26728Y82649*X26777Y82799*X26815Y82954*X26843Y83109*X26863Y83266*X26873Y83424*X26873Y83581*X26863Y83739*X26843Y83896*X26815Y84051*X26777Y84206*X26728Y84356*X26673Y84503*X26606Y84648*X26533Y84788*X26449Y84922*X26360Y85052*X26261Y85176*X26154Y85293*X26043Y85405*X25923Y85507*X25799Y85603*X25667Y85692*X25530Y85773*X25390Y85844*X25245Y85908*X25095Y85961*X24945Y86007*X24790Y86042*X24945Y86078*X25095Y86124*X25245Y86177*X25390Y86241*X25530Y86312*X25667Y86393*X25799Y86482*X25923Y86578*X26043Y86680*X26154Y86792*X26261Y86909*X26360Y87033*X26449Y87163*X26533Y87297*X26606Y87437*X26673Y87582*X26728Y87729*X26777Y87879*X26815Y88034*X26843Y88189*X26863Y88346*X26873Y88504*X26873Y88661*X26863Y88819*X26843Y88976*X26815Y89131*X26777Y89286*X26728Y89436*X26673Y89583*X26606Y89728*X26533Y89868*X26449Y90002*X26360Y90132*X26261Y90256*X26154Y90373*X26043Y90485*X25923Y90587*X25799Y90683*X25667Y90772*X25530Y90853*X25390Y90924*X25245Y90988*X25095Y91041*X24945Y91087*X24790Y91122*X24945Y91158*X25095Y91204*X25245Y91257*X25390Y91321*X25530Y91392*X25667Y91473*X25799Y91562*X25923Y91658*X26043Y91760*X26154Y91872*X26261Y91989*X26360Y92113*X26449Y92243*X26533Y92377*X26606Y92517*X26673Y92662*X26728Y92809*X26777Y92959*X26815Y93114*X26843Y93269*X26863Y93426*X26873Y93584*X26873Y93741*X26863Y93899*X26843Y94056*X26815Y94211*X26777Y94366*X26728Y94516*X26673Y94663*X26606Y94808*X26533Y94948*X26449Y95082*X26360Y95212*X26261Y95336*X26154Y95453*X26043Y95565*X25923Y95667*X25799Y95763*X25667Y95852*X25530Y95933*X25390Y96004*X25245Y96068*X25095Y96121*X24945Y96167*X24790Y96202*X23266Y96202*X23266Y91122*X24790Y91122*X23266Y91122*X23266Y86042*X24790Y86042*X23266Y86042*X23266Y80962*X24790Y80962*X9550Y67310D2*X9705Y67346D1*X9855Y67391*X10005Y67445*X10150Y67508*X10290Y67579*X10427Y67661*X10559Y67749*X10683Y67846*X10803Y67948*X10914Y68059*X11021Y68176*X11120Y68301*X11209Y68430*X11293Y68565*X11366Y68704*X11433Y68849*X11488Y68997*X11537Y69146*X11575Y69301*X11603Y69456*X11623Y69614*X11633Y69771*X11633Y69929*X11623Y70086*X11603Y70244*X11575Y70399*X11537Y70554*X11488Y70703*X11433Y70851*X11366Y70996*X11293Y71135*X11209Y71270*X11120Y71399*X11021Y71524*X10914Y71641*X10803Y71752*X10683Y71854*X10559Y71951*X10427Y72039*X10290Y72121*X10150Y72192*X10005Y72255*X9855Y72309*X9705Y72354*X9550Y72390*X9705Y72426*X9855Y72471*X10005Y72525*X10150Y72588*X10290Y72659*X10427Y72741*X10559Y72829*X10683Y72926*X10803Y73028*X10914Y73139*X11021Y73256*X11120Y73381*X11209Y73510*X11293Y73645*X11366Y73784*X11433Y73929*X11488Y74077*X11537Y74226*X11575Y74381*X11603Y74536*X11623Y74694*X11633Y74851*X11633Y75009*X11623Y75166*X11603Y75324*X11575Y75479*X11537Y75634*X11488Y75783*X11433Y75931*X11366Y76076*X11293Y76215*X11209Y76350*X11120Y76479*X11021Y76604*X10914Y76721*X10803Y76832*X10683Y76934*X10559Y77031*X10427Y77119*X10290Y77201*X10150Y77272*X10005Y77335*X9855Y77389*X9705Y77434*X9550Y77470*X9705Y77506*X9855Y77551*X10005Y77605*X10150Y77668*X10290Y77739*X10427Y77821*X10559Y77909*X10683Y78006*X10803Y78108*X10914Y78219*X11021Y78336*X11120Y78461*X11209Y78590*X11293Y78725*X11366Y78864*X11433Y79009*X11488Y79157*X11537Y79306*X11575Y79461*X11603Y79616*X11623Y79774*X11633Y79931*X11633Y80089*X11623Y80246*X11603Y80404*X11575Y80559*X11537Y80714*X11488Y80863*X11433Y81011*X11366Y81156*X11293Y81295*X11209Y81430*X11120Y81559*X11021Y81684*X10914Y81801*X10803Y81912*X10683Y82014*X10559Y82111*X10427Y82199*X10290Y82281*X10150Y82352*X10005Y82415*X9855Y82469*X9705Y82514*X9550Y82550*X8026Y82550*X8026Y77470*X9550Y77470*X8026Y77470*X8026Y72390*X9550Y72390*X8026Y72390*X8026Y67310*X9550Y67310*X24790Y53658D2*X24945Y53693D1*X25095Y53739*X25245Y53792*X25390Y53856*X25530Y53927*X25667Y54008*X25799Y54097*X25923Y54193*X26043Y54295*X26154Y54407*X26261Y54524*X26360Y54648*X26449Y54778*X26533Y54912*X26606Y55052*X26673Y55197*X26728Y55344*X26777Y55494*X26815Y55649*X26843Y55804*X26863Y55961*X26873Y56119*X26873Y56276*X26863Y56434*X26843Y56591*X26815Y56746*X26777Y56901*X26728Y57051*X26673Y57198*X26606Y57343*X26533Y57483*X26449Y57617*X26360Y57747*X26261Y57871*X26154Y57988*X26043Y58100*X25923Y58202*X25799Y58298*X25667Y58387*X25530Y58468*X25390Y58539*X25245Y58603*X25095Y58656*X24945Y58702*X24790Y58738*X24945Y58773*X25095Y58819*X25245Y58872*X25390Y58936*X25530Y59007*X25667Y59088*X25799Y59177*X25923Y59273*X26043Y59375*X26154Y59487*X26261Y59604*X26360Y59728*X26449Y59858*X26533Y59992*X26606Y60132*X26673Y60277*X26728Y60424*X26777Y60574*X26815Y60729*X26843Y60884*X26863Y61041*X26873Y61199*X26873Y61356*X26863Y61514*X26843Y61671*X26815Y61826*X26777Y61981*X26728Y62131*X26673Y62278*X26606Y62423*X26533Y62563*X26449Y62697*X26360Y62827*X26261Y62951*X26154Y63068*X26043Y63180*X25923Y63282*X25799Y63378*X25667Y63467*X25530Y63548*X25390Y63619*X25245Y63683*X25095Y63736*X24945Y63782*X24790Y63818*X24945Y63853*X25095Y63899*X25245Y63952*X25390Y64016*X25530Y64087*X25667Y64168*X25799Y64257*X25923Y64353*X26043Y64455*X26154Y64567*X26261Y64684*X26360Y64808*X26449Y64938*X26533Y65072*X26606Y65212*X26673Y65357*X26728Y65504*X26777Y65654*X26815Y65809*X26843Y65964*X26863Y66121*X26873Y66279*X26873Y66436*X26863Y66594*X26843Y66751*X26815Y66906*X26777Y67061*X26728Y67211*X26673Y67358*X26606Y67503*X26533Y67643*X26449Y67777*X26360Y67907*X26261Y68031*X26154Y68148*X26043Y68260*X25923Y68362*X25799Y68458*X25667Y68547*X25530Y68628*X25390Y68699*X25245Y68763*X25095Y68816*X24945Y68862*X24790Y68898*X23266Y68898*X23266Y63818*X24790Y63818*X23266Y63818*X23266Y58738*X24790Y58738*X23266Y58738*X23266Y53658*X24790Y53658*X30505Y53658D2*X30660Y53693D1*X30810Y53739*X30960Y53792*X31105Y53856*X31245Y53927*X31382Y54008*X31514Y54097*X31638Y54193*X31758Y54295*X31869Y54407*X31976Y54524*X32075Y54648*X32164Y54778*X32248Y54912*X32322Y55052*X32388Y55197*X32443Y55344*X32492Y55494*X32530Y55649*X32558Y55804*X32578Y55961*X32588Y56119*X32588Y56276*X32578Y56434*X32558Y56591*X32530Y56746*X32492Y56901*X32443Y57051*X32388Y57198*X32322Y57343*X32248Y57483*X32164Y57617*X32075Y57747*X31976Y57871*X31869Y57988*X31758Y58100*X31638Y58202*X31514Y58298*X31382Y58387*X31245Y58468*X31105Y58539*X30960Y58603*X30810Y58656*X30660Y58702*X30505Y58738*X30660Y58773*X30810Y58819*X30960Y58872*X31105Y58936*X31245Y59007*X31382Y59088*X31514Y59177*X31638Y59273*X31758Y59375*X31869Y59487*X31976Y59604*X32075Y59728*X32164Y59858*X32248Y59992*X32322Y60132*X32388Y60277*X32443Y60424*X32492Y60574*X32530Y60729*X32558Y60884*X32578Y61041*X32588Y61199*X32588Y61356*X32578Y61514*X32558Y61671*X32530Y61826*X32492Y61981*X32443Y62131*X32388Y62278*X32322Y62423*X32248Y62563*X32164Y62697*X32075Y62827*X31976Y62951*X31869Y63068*X31758Y63180*X31638Y63282*X31514Y63378*X31382Y63467*X31245Y63548*X31105Y63619*X30960Y63683*X30810Y63736*X30660Y63782*X30505Y63818*X30660Y63853*X30810Y63899*X30960Y63952*X31105Y64016*X31245Y64087*X31382Y64168*X31514Y64257*X31638Y64353*X31758Y64455*X31869Y64567*X31976Y64684*X32075Y64808*X32164Y64938*X32248Y65072*X32322Y65212*X32388Y65357*X32443Y65504*X32492Y65654*X32530Y65809*X32558Y65964*X32578Y66121*X32588Y66279*X32588Y66436*X32578Y66594*X32558Y66751*X32530Y66906*X32492Y67061*X32443Y67211*X32388Y67358*X32322Y67503*X32248Y67643*X32164Y67777*X32075Y67907*X31976Y68031*X31869Y68148*X31758Y68260*X31638Y68362*X31514Y68458*X31382Y68547*X31245Y68628*X31105Y68699*X30960Y68763*X30810Y68816*X30660Y68862*X30505Y68898*X28981Y68898*X28981Y63818*X30505Y63818*X28981Y63818*X28981Y58738*X30505Y58738*X28981Y58738*X28981Y53658*X30505Y53658*X36220Y53658D2*X36375Y53693D1*X36525Y53739*X36675Y53792*X36820Y53856*X36960Y53927*X37097Y54008*X37229Y54097*X37353Y54193*X37473Y54295*X37584Y54407*X37691Y54524*X37790Y54648*X37879Y54778*X37963Y54912*X38036Y55052*X38103Y55197*X38158Y55344*X38207Y55494*X38245Y55649*X38273Y55804*X38293Y55961*X38303Y56119*X38303Y56276*X38293Y56434*X38273Y56591*X38245Y56746*X38207Y56901*X38158Y57051*X38103Y57198*X38036Y57343*X37963Y57483*X37879Y57617*X37790Y57747*X37691Y57871*X37584Y57988*X37473Y58100*X37353Y58202*X37229Y58298*X37097Y58387*X36960Y58468*X36820Y58539*X36675Y58603*X36525Y58656*X36375Y58702*X36220Y58738*X36375Y58773*X36525Y58819*X36675Y58872*X36820Y58936*X36960Y59007*X37097Y59088*X37229Y59177*X37353Y59273*X37473Y59375*X37584Y59487*X37691Y59604*X37790Y59728*X37879Y59858*X37963Y59992*X38036Y60132*X38103Y60277*X38158Y60424*X38207Y60574*X38245Y60729*X38273Y60884*X38293Y61041*X38303Y61199*X38303Y61356*X38293Y61514*X38273Y61671*X38245Y61826*X38207Y61981*X38158Y62131*X38103Y62278*X38036Y62423*X37963Y62563*X37879Y62697*X37790Y62827*X37691Y62951*X37584Y63068*X37473Y63180*X37353Y63282*X37229Y63378*X37097Y63467*X36960Y63548*X36820Y63619*X36675Y63683*X36525Y63736*X36375Y63782*X36220Y63818*X36375Y63853*X36525Y63899*X36675Y63952*X36820Y64016*X36960Y64087*X37097Y64168*X37229Y64257*X37353Y64353*X37473Y64455*X37584Y64567*X37691Y64684*X37790Y64808*X37879Y64938*X37963Y65072*X38036Y65212*X38103Y65357*X38158Y65504*X38207Y65654*X38245Y65809*X38273Y65964*X38293Y66121*X38303Y66279*X38303Y66436*X38293Y66594*X38273Y66751*X38245Y66906*X38207Y67061*X38158Y67211*X38103Y67358*X38036Y67503*X37963Y67643*X37879Y67777*X37790Y67907*X37691Y68031*X37584Y68148*X37473Y68260*X37353Y68362*X37229Y68458*X37097Y68547*X36960Y68628*X36820Y68699*X36675Y68763*X36525Y68816*X36375Y68862*X36220Y68898*X34696Y68898*X34696Y63818*X36220Y63818*X34696Y63818*X34696Y58738*X36220Y58738*X34696Y58738*X34696Y53658*X36220Y53658*X41935Y53658D2*X42090Y53693D1*X42240Y53739*X42390Y53792*X42535Y53856*X42675Y53927*X42812Y54008*X42944Y54097*X43068Y54193*X43188Y54295*X43299Y54407*X43406Y54524*X43505Y54648*X43594Y54778*X43678Y54912*X43752Y55052*X43818Y55197*X43873Y55344*X43922Y55494*X43960Y55649*X43988Y55804*X44008Y55961*X44018Y56119*X44018Y56276*X44008Y56434*X43988Y56591*X43960Y56746*X43922Y56901*X43873Y57051*X43818Y57198*X43752Y57343*X43678Y57483*X43594Y57617*X43505Y57747*X43406Y57871*X43299Y57988*X43188Y58100*X43068Y58202*X42944Y58298*X42812Y58387*X42675Y58468*X42535Y58539*X42390Y58603*X42240Y58656*X42090Y58702*X41935Y58738*X42090Y58773*X42240Y58819*X42390Y58872*X42535Y58936*X42675Y59007*X42812Y59088*X42944Y59177*X43068Y59273*X43188Y59375*X43299Y59487*X43406Y59604*X43505Y59728*X43594Y59858*X43678Y59992*X43752Y60132*X43818Y60277*X43873Y60424*X43922Y60574*X43960Y60729*X43988Y60884*X44008Y61041*X44018Y61199*X44018Y61356*X44008Y61514*X43988Y61671*X43960Y61826*X43922Y61981*X43873Y62131*X43818Y62278*X43752Y62423*X43678Y62563*X43594Y62697*X43505Y62827*X43406Y62951*X43299Y63068*X43188Y63180*X43068Y63282*X42944Y63378*X42812Y63467*X42675Y63548*X42535Y63619*X42390Y63683*X42240Y63736*X42090Y63782*X41935Y63818*X42090Y63853*X42240Y63899*X42390Y63952*X42535Y64016*X42675Y64087*X42812Y64168*X42944Y64257*X43068Y64353*X43188Y64455*X43299Y64567*X43406Y64684*X43505Y64808*X43594Y64938*X43678Y65072*X43752Y65212*X43818Y65357*X43873Y65504*X43922Y65654*X43960Y65809*X43988Y65964*X44008Y66121*X44018Y66279*X44018Y66436*X44008Y66594*X43988Y66751*X43960Y66906*X43922Y67061*X43873Y67211*X43818Y67358*X43752Y67503*X43678Y67643*X43594Y67777*X43505Y67907*X43406Y68031*X43299Y68148*X43188Y68260*X43068Y68362*X42944Y68458*X42812Y68547*X42675Y68628*X42535Y68699*X42390Y68763*X42240Y68816*X42090Y68862*X41935Y68898*X40411Y68898*X40411Y63818*X41935Y63818*X40411Y63818*X40411Y58738*X41935Y58738*X40411Y58738*X40411Y53658*X41935Y53658*X47650Y53658D2*X47805Y53693D1*X47955Y53739*X48105Y53792*X48250Y53856*X48390Y53927*X48527Y54008*X48659Y54097*X48783Y54193*X48903Y54295*X49014Y54407*X49121Y54524*X49220Y54648*X49309Y54778*X49393Y54912*X49466Y55052*X49533Y55197*X49588Y55344*X49637Y55494*X49675Y55649*X49703Y55804*X49723Y55961*X49733Y56119*X49733Y56276*X49723Y56434*X49703Y56591*X49675Y56746*X49637Y56901*X49588Y57051*X49533Y57198*X49466Y57343*X49393Y57483*X49309Y57617*X49220Y57747*X49121Y57871*X49014Y57988*X48903Y58100*X48783Y58202*X48659Y58298*X48527Y58387*X48390Y58468*X48250Y58539*X48105Y58603*X47955Y58656*X47805Y58702*X47650Y58738*X47805Y58773*X47955Y58819*X48105Y58872*X48250Y58936*X48390Y59007*X48527Y59088*X48659Y59177*X48783Y59273*X48903Y59375*X49014Y59487*X49121Y59604*X49220Y59728*X49309Y59858*X49393Y59992*X49466Y60132*X49533Y60277*X49588Y60424*X49637Y60574*X49675Y60729*X49703Y60884*X49723Y61041*X49733Y61199*X49733Y61356*X49723Y61514*X49703Y61671*X49675Y61826*X49637Y61981*X49588Y62131*X49533Y62278*X49466Y62423*X49393Y62563*X49309Y62697*X49220Y62827*X49121Y62951*X49014Y63068*X48903Y63180*X48783Y63282*X48659Y63378*X48527Y63467*X48390Y63548*X48250Y63619*X48105Y63683*X47955Y63736*X47805Y63782*X47650Y63818*X47805Y63853*X47955Y63899*X48105Y63952*X48250Y64016*X48390Y64087*X48527Y64168*X48659Y64257*X48783Y64353*X48903Y64455*X49014Y64567*X49121Y64684*X49220Y64808*X49309Y64938*X49393Y65072*X49466Y65212*X49533Y65357*X49588Y65504*X49637Y65654*X49675Y65809*X49703Y65964*X49723Y66121*X49733Y66279*X49733Y66436*X49723Y66594*X49703Y66751*X49675Y66906*X49637Y67061*X49588Y67211*X49533Y67358*X49466Y67503*X49393Y67643*X49309Y67777*X49220Y67907*X49121Y68031*X49014Y68148*X48903Y68260*X48783Y68362*X48659Y68458*X48527Y68547*X48390Y68628*X48250Y68699*X48105Y68763*X47955Y68816*X47805Y68862*X47650Y68898*X46126Y68898*X46126Y63818*X47650Y63818*X46126Y63818*X46126Y58738*X47650Y58738*X46126Y58738*X46126Y53658*X47650Y53658*X53365Y53658D2*X53520Y53693D1*X53670Y53739*X53820Y53792*X53965Y53856*X54105Y53927*X54242Y54008*X54374Y54097*X54498Y54193*X54618Y54295*X54729Y54407*X54836Y54524*X54935Y54648*X55024Y54778*X55108Y54912*X55182Y55052*X55248Y55197*X55303Y55344*X55352Y55494*X55390Y55649*X55418Y55804*X55438Y55961*X55448Y56119*X55448Y56276*X55438Y56434*X55418Y56591*X55390Y56746*X55352Y56901*X55303Y57051*X55248Y57198*X55182Y57343*X55108Y57483*X55024Y57617*X54935Y57747*X54836Y57871*X54729Y57988*X54618Y58100*X54498Y58202*X54374Y58298*X54242Y58387*X54105Y58468*X53965Y58539*X53820Y58603*X53670Y58656*X53520Y58702*X53365Y58738*X53520Y58773*X53670Y58819*X53820Y58872*X53965Y58936*X54105Y59007*X54242Y59088*X54374Y59177*X54498Y59273*X54618Y59375*X54729Y59487*X54836Y59604*X54935Y59728*X55024Y59858*X55108Y59992*X55182Y60132*X55248Y60277*X55303Y60424*X55352Y60574*X55390Y60729*X55418Y60884*X55438Y61041*X55448Y61199*X55448Y61356*X55438Y61514*X55418Y61671*X55390Y61826*X55352Y61981*X55303Y62131*X55248Y62278*X55182Y62423*X55108Y62563*X55024Y62697*X54935Y62827*X54836Y62951*X54729Y63068*X54618Y63180*X54498Y63282*X54374Y63378*X54242Y63467*X54105Y63548*X53965Y63619*X53820Y63683*X53670Y63736*X53520Y63782*X53365Y63818*X53520Y63853*X53670Y63899*X53820Y63952*X53965Y64016*X54105Y64087*X54242Y64168*X54374Y64257*X54498Y64353*X54618Y64455*X54729Y64567*X54836Y64684*X54935Y64808*X55024Y64938*X55108Y65072*X55182Y65212*X55248Y65357*X55303Y65504*X55352Y65654*X55390Y65809*X55418Y65964*X55438Y66121*X55448Y66279*X55448Y66436*X55438Y66594*X55418Y66751*X55390Y66906*X55352Y67061*X55303Y67211*X55248Y67358*X55182Y67503*X55108Y67643*X55024Y67777*X54935Y67907*X54836Y68031*X54729Y68148*X54618Y68260*X54498Y68362*X54374Y68458*X54242Y68547*X54105Y68628*X53965Y68699*X53820Y68763*X53670Y68816*X53520Y68862*X53365Y68898*X51841Y68898*X51841Y63818*X53365Y63818*X51841Y63818*X51841Y58738*X53365Y58738*X51841Y58738*X51841Y53658*X53365Y53658*X59080Y53658D2*X59235Y53693D1*X59385Y53739*X59535Y53792*X59680Y53856*X59820Y53927*X59957Y54008*X60089Y54097*X60213Y54193*X60333Y54295*X60444Y54407*X60551Y54524*X60650Y54648*X60739Y54778*X60823Y54912*X60896Y55052*X60963Y55197*X61018Y55344*X61067Y55494*X61105Y55649*X61133Y55804*X61153Y55961*X61163Y56119*X61163Y56276*X61153Y56434*X61133Y56591*X61105Y56746*X61067Y56901*X61018Y57051*X60963Y57198*X60896Y57343*X60823Y57483*X60739Y57617*X60650Y57747*X60551Y57871*X60444Y57988*X60333Y58100*X60213Y58202*X60089Y58298*X59957Y58387*X59820Y58468*X59680Y58539*X59535Y58603*X59385Y58656*X59235Y58702*X59080Y58738*X59235Y58773*X59385Y58819*X59535Y58872*X59680Y58936*X59820Y59007*X59957Y59088*X60089Y59177*X60213Y59273*X60333Y59375*X60444Y59487*X60551Y59604*X60650Y59728*X60739Y59858*X60823Y59992*X60896Y60132*X60963Y60277*X61018Y60424*X61067Y60574*X61105Y60729*X61133Y60884*X61153Y61041*X61163Y61199*X61163Y61356*X61153Y61514*X61133Y61671*X61105Y61826*X61067Y61981*X61018Y62131*X60963Y62278*X60896Y62423*X60823Y62563*X60739Y62697*X60650Y62827*X60551Y62951*X60444Y63068*X60333Y63180*X60213Y63282*X60089Y63378*X59957Y63467*X59820Y63548*X59680Y63619*X59535Y63683*X59385Y63736*X59235Y63782*X59080Y63818*X59235Y63853*X59385Y63899*X59535Y63952*X59680Y64016*X59820Y64087*X59957Y64168*X60089Y64257*X60213Y64353*X60333Y64455*X60444Y64567*X60551Y64684*X60650Y64808*X60739Y64938*X60823Y65072*X60896Y65212*X60963Y65357*X61018Y65504*X61067Y65654*X61105Y65809*X61133Y65964*X61153Y66121*X61163Y66279*X61163Y66436*X61153Y66594*X61133Y66751*X61105Y66906*X61067Y67061*X61018Y67211*X60963Y67358*X60896Y67503*X60823Y67643*X60739Y67777*X60650Y67907*X60551Y68031*X60444Y68148*X60333Y68260*X60213Y68362*X60089Y68458*X59957Y68547*X59820Y68628*X59680Y68699*X59535Y68763*X59385Y68816*X59235Y68862*X59080Y68898*X57556Y68898*X57556Y63818*X59080Y63818*X57556Y63818*X57556Y58738*X59080Y58738*X57556Y58738*X57556Y53658*X59080Y53658*X64795Y53658D2*X64950Y53693D1*X65100Y53739*X65250Y53792*X65395Y53856*X65535Y53927*X65672Y54008*X65804Y54097*X65928Y54193*X66048Y54295*X66159Y54407*X66266Y54524*X66365Y54648*X66454Y54778*X66538Y54912*X66612Y55052*X66678Y55197*X66733Y55344*X66782Y55494*X66820Y55649*X66848Y55804*X66868Y55961*X66878Y56119*X66878Y56276*X66868Y56434*X66848Y56591*X66820Y56746*X66782Y56901*X66733Y57051*X66678Y57198*X66612Y57343*X66538Y57483*X66454Y57617*X66365Y57747*X66266Y57871*X66159Y57988*X66048Y58100*X65928Y58202*X65804Y58298*X65672Y58387*X65535Y58468*X65395Y58539*X65250Y58603*X65100Y58656*X64950Y58702*X64795Y58738*X64950Y58773*X65100Y58819*X65250Y58872*X65395Y58936*X65535Y59007*X65672Y59088*X65804Y59177*X65928Y59273*X66048Y59375*X66159Y59487*X66266Y59604*X66365Y59728*X66454Y59858*X66538Y59992*X66612Y60132*X66678Y60277*X66733Y60424*X66782Y60574*X66820Y60729*X66848Y60884*X66868Y61041*X66878Y61199*X66878Y61356*X66868Y61514*X66848Y61671*X66820Y61826*X66782Y61981*X66733Y62131*X66678Y62278*X66612Y62423*X66538Y62563*X66454Y62697*X66365Y62827*X66266Y62951*X66159Y63068*X66048Y63180*X65928Y63282*X65804Y63378*X65672Y63467*X65535Y63548*X65395Y63619*X65250Y63683*X65100Y63736*X64950Y63782*X64795Y63818*X64950Y63853*X65100Y63899*X65250Y63952*X65395Y64016*X65535Y64087*X65672Y64168*X65804Y64257*X65928Y64353*X66048Y64455*X66159Y64567*X66266Y64684*X66365Y64808*X66454Y64938*X66538Y65072*X66612Y65212*X66678Y65357*X66733Y65504*X66782Y65654*X66820Y65809*X66848Y65964*X66868Y66121*X66878Y66279*X66878Y66436*X66868Y66594*X66848Y66751*X66820Y66906*X66782Y67061*X66733Y67211*X66678Y67358*X66612Y67503*X66538Y67643*X66454Y67777*X66365Y67907*X66266Y68031*X66159Y68148*X66048Y68260*X65928Y68362*X65804Y68458*X65672Y68547*X65535Y68628*X65395Y68699*X65250Y68763*X65100Y68816*X64950Y68862*X64795Y68898*X63271Y68898*X63271Y63818*X64795Y63818*X63271Y63818*X63271Y58738*X64795Y58738*X63271Y58738*X63271Y53658*X64795Y53658*X75590Y53658D2*X75745Y53693D1*X75895Y53739*X76045Y53792*X76190Y53856*X76330Y53927*X76467Y54008*X76599Y54097*X76723Y54193*X76843Y54295*X76954Y54407*X77061Y54524*X77160Y54648*X77249Y54778*X77333Y54912*X77406Y55052*X77473Y55197*X77528Y55344*X77577Y55494*X77615Y55649*X77643Y55804*X77663Y55961*X77673Y56119*X77673Y56276*X77663Y56434*X77643Y56591*X77615Y56746*X77577Y56901*X77528Y57051*X77473Y57198*X77406Y57343*X77333Y57483*X77249Y57617*X77160Y57747*X77061Y57871*X76954Y57988*X76843Y58100*X76723Y58202*X76599Y58298*X76467Y58387*X76330Y58468*X76190Y58539*X76045Y58603*X75895Y58656*X75745Y58702*X75590Y58738*X75745Y58773*X75895Y58819*X76045Y58872*X76190Y58936*X76330Y59007*X76467Y59088*X76599Y59177*X76723Y59273*X76843Y59375*X76954Y59487*X77061Y59604*X77160Y59728*X77249Y59858*X77333Y59992*X77406Y60132*X77473Y60277*X77528Y60424*X77577Y60574*X77615Y60729*X77643Y60884*X77663Y61041*X77673Y61199*X77673Y61356*X77663Y61514*X77643Y61671*X77615Y61826*X77577Y61981*X77528Y62131*X77473Y62278*X77406Y62423*X77333Y62563*X77249Y62697*X77160Y62827*X77061Y62951*X76954Y63068*X76843Y63180*X76723Y63282*X76599Y63378*X76467Y63467*X76330Y63548*X76190Y63619*X76045Y63683*X75895Y63736*X75745Y63782*X75590Y63818*X75745Y63853*X75895Y63899*X76045Y63952*X76190Y64016*X76330Y64087*X76467Y64168*X76599Y64257*X76723Y64353*X76843Y64455*X76954Y64567*X77061Y64684*X77160Y64808*X77249Y64938*X77333Y65072*X77406Y65212*X77473Y65357*X77528Y65504*X77577Y65654*X77615Y65809*X77643Y65964*X77663Y66121*X77673Y66279*X77673Y66436*X77663Y66594*X77643Y66751*X77615Y66906*X77577Y67061*X77528Y67211*X77473Y67358*X77406Y67503*X77333Y67643*X77249Y67777*X77160Y67907*X77061Y68031*X76954Y68148*X76843Y68260*X76723Y68362*X76599Y68458*X76467Y68547*X76330Y68628*X76190Y68699*X76045Y68763*X75895Y68816*X75745Y68862*X75590Y68898*X74066Y68898*X74066Y63818*X75590Y63818*X74066Y63818*X74066Y58738*X75590Y58738*X74066Y58738*X74066Y53658*X75590Y53658*X81305Y53658D2*X81460Y53693D1*X81610Y53739*X81760Y53792*X81905Y53856*X82045Y53927*X82182Y54008*X82314Y54097*X82438Y54193*X82558Y54295*X82669Y54407*X82776Y54524*X82875Y54648*X82964Y54778*X83048Y54912*X83122Y55052*X83188Y55197*X83243Y55344*X83292Y55494*X83330Y55649*X83358Y55804*X83378Y55961*X83388Y56119*X83388Y56276*X83378Y56434*X83358Y56591*X83330Y56746*X83292Y56901*X83243Y57051*X83188Y57198*X83122Y57343*X83048Y57483*X82964Y57617*X82875Y57747*X82776Y57871*X82669Y57988*X82558Y58100*X82438Y58202*X82314Y58298*X82182Y58387*X82045Y58468*X81905Y58539*X81760Y58603*X81610Y58656*X81460Y58702*X81305Y58738*X81460Y58773*X81610Y58819*X81760Y58872*X81905Y58936*X82045Y59007*X82182Y59088*X82314Y59177*X82438Y59273*X82558Y59375*X82669Y59487*X82776Y59604*X82875Y59728*X82964Y59858*X83048Y59992*X83122Y60132*X83188Y60277*X83243Y60424*X83292Y60574*X83330Y60729*X83358Y60884*X83378Y61041*X83388Y61199*X83388Y61356*X83378Y61514*X83358Y61671*X83330Y61826*X83292Y61981*X83243Y62131*X83188Y62278*X83122Y62423*X83048Y62563*X82964Y62697*X82875Y62827*X82776Y62951*X82669Y63068*X82558Y63180*X82438Y63282*X82314Y63378*X82182Y63467*X82045Y63548*X81905Y63619*X81760Y63683*X81610Y63736*X81460Y63782*X81305Y63818*X81460Y63853*X81610Y63899*X81760Y63952*X81905Y64016*X82045Y64087*X82182Y64168*X82314Y64257*X82438Y64353*X82558Y64455*X82669Y64567*X82776Y64684*X82875Y64808*X82964Y64938*X83048Y65072*X83122Y65212*X83188Y65357*X83243Y65504*X83292Y65654*X83330Y65809*X83358Y65964*X83378Y66121*X83388Y66279*X83388Y66436*X83378Y66594*X83358Y66751*X83330Y66906*X83292Y67061*X83243Y67211*X83188Y67358*X83122Y67503*X83048Y67643*X82964Y67777*X82875Y67907*X82776Y68031*X82669Y68148*X82558Y68260*X82438Y68362*X82314Y68458*X82182Y68547*X82045Y68628*X81905Y68699*X81760Y68763*X81610Y68816*X81460Y68862*X81305Y68898*X79781Y68898*X79781Y63818*X81305Y63818*X79781Y63818*X79781Y58738*X81305Y58738*X79781Y58738*X79781Y53658*X81305Y53658*X87020Y53658D2*X87175Y53693D1*X87325Y53739*X87475Y53792*X87620Y53856*X87760Y53927*X87897Y54008*X88029Y54097*X88153Y54193*X88273Y54295*X88384Y54407*X88491Y54524*X88590Y54648*X88679Y54778*X88763Y54912*X88836Y55052*X88903Y55197*X88958Y55344*X89007Y55494*X89045Y55649*X89073Y55804*X89093Y55961*X89103Y56119*X89103Y56276*X89093Y56434*X89073Y56591*X89045Y56746*X89007Y56901*X88958Y57051*X88903Y57198*X88836Y57343*X88763Y57483*X88679Y57617*X88590Y57747*X88491Y57871*X88384Y57988*X88273Y58100*X88153Y58202*X88029Y58298*X87897Y58387*X87760Y58468*X87620Y58539*X87475Y58603*X87325Y58656*X87175Y58702*X87020Y58738*X87175Y58773*X87325Y58819*X87475Y58872*X87620Y58936*X87760Y59007*X87897Y59088*X88029Y59177*X88153Y59273*X88273Y59375*X88384Y59487*X88491Y59604*X88590Y59728*X88679Y59858*X88763Y59992*X88836Y60132*X88903Y60277*X88958Y60424*X89007Y60574*X89045Y60729*X89073Y60884*X89093Y61041*X89103Y61199*X89103Y61356*X89093Y61514*X89073Y61671*X89045Y61826*X89007Y61981*X88958Y62131*X88903Y62278*X88836Y62423*X88763Y62563*X88679Y62697*X88590Y62827*X88491Y62951*X88384Y63068*X88273Y63180*X88153Y63282*X88029Y63378*X87897Y63467*X87760Y63548*X87620Y63619*X87475Y63683*X87325Y63736*X87175Y63782*X87020Y63818*X87175Y63853*X87325Y63899*X87475Y63952*X87620Y64016*X87760Y64087*X87897Y64168*X88029Y64257*X88153Y64353*X88273Y64455*X88384Y64567*X88491Y64684*X88590Y64808*X88679Y64938*X88763Y65072*X88836Y65212*X88903Y65357*X88958Y65504*X89007Y65654*X89045Y65809*X89073Y65964*X89093Y66121*X89103Y66279*X89103Y66436*X89093Y66594*X89073Y66751*X89045Y66906*X89007Y67061*X88958Y67211*X88903Y67358*X88836Y67503*X88763Y67643*X88679Y67777*X88590Y67907*X88491Y68031*X88384Y68148*X88273Y68260*X88153Y68362*X88029Y68458*X87897Y68547*X87760Y68628*X87620Y68699*X87475Y68763*X87325Y68816*X87175Y68862*X87020Y68898*X85496Y68898*X85496Y63818*X87020Y63818*X85496Y63818*X85496Y58738*X87020Y58738*X85496Y58738*X85496Y53658*X87020Y53658*X92735Y53658D2*X92890Y53693D1*X93040Y53739*X93190Y53792*X93335Y53856*X93475Y53927*X93612Y54008*X93744Y54097*X93868Y54193*X93988Y54295*X94099Y54407*X94206Y54524*X94305Y54648*X94394Y54778*X94478Y54912*X94552Y55052*X94618Y55197*X94673Y55344*X94722Y55494*X94760Y55649*X94788Y55804*X94808Y55961*X94818Y56119*X94818Y56276*X94808Y56434*X94788Y56591*X94760Y56746*X94722Y56901*X94673Y57051*X94618Y57198*X94552Y57343*X94478Y57483*X94394Y57617*X94305Y57747*X94206Y57871*X94099Y57988*X93988Y58100*X93868Y58202*X93744Y58298*X93612Y58387*X93475Y58468*X93335Y58539*X93190Y58603*X93040Y58656*X92890Y58702*X92735Y58738*X92890Y58773*X93040Y58819*X93190Y58872*X93335Y58936*X93475Y59007*X93612Y59088*X93744Y59177*X93868Y59273*X93988Y59375*X94099Y59487*X94206Y59604*X94305Y59728*X94394Y59858*X94478Y59992*X94552Y60132*X94618Y60277*X94673Y60424*X94722Y60574*X94760Y60729*X94788Y60884*X94808Y61041*X94818Y61199*X94818Y61356*X94808Y61514*X94788Y61671*X94760Y61826*X94722Y61981*X94673Y62131*X94618Y62278*X94552Y62423*X94478Y62563*X94394Y62697*X94305Y62827*X94206Y62951*X94099Y63068*X93988Y63180*X93868Y63282*X93744Y63378*X93612Y63467*X93475Y63548*X93335Y63619*X93190Y63683*X93040Y63736*X92890Y63782*X92735Y63818*X92890Y63853*X93040Y63899*X93190Y63952*X93335Y64016*X93475Y64087*X93612Y64168*X93744Y64257*X93868Y64353*X93988Y64455*X94099Y64567*X94206Y64684*X94305Y64808*X94394Y64938*X94478Y65072*X94552Y65212*X94618Y65357*X94673Y65504*X94722Y65654*X94760Y65809*X94788Y65964*X94808Y66121*X94818Y66279*X94818Y66436*X94808Y66594*X94788Y66751*X94760Y66906*X94722Y67061*X94673Y67211*X94618Y67358*X94552Y67503*X94478Y67643*X94394Y67777*X94305Y67907*X94206Y68031*X94099Y68148*X93988Y68260*X93868Y68362*X93744Y68458*X93612Y68547*X93475Y68628*X93335Y68699*X93190Y68763*X93040Y68816*X92890Y68862*X92735Y68898*X91211Y68898*X91211Y63818*X92735Y63818*X91211Y63818*X91211Y58738*X92735Y58738*X91211Y58738*X91211Y53658*X92735Y53658*X98450Y53658D2*X98605Y53693D1*X98755Y53739*X98905Y53792*X99050Y53856*X99190Y53927*X99327Y54008*X99459Y54097*X99583Y54193*X99703Y54295*X99814Y54407*X99921Y54524*X100020Y54648*X100109Y54778*X100193Y54912*X100266Y55052*X100333Y55197*X100388Y55344*X100437Y55494*X100475Y55649*X100503Y55804*X100523Y55961*X100533Y56119*X100533Y56276*X100523Y56434*X100503Y56591*X100475Y56746*X100437Y56901*X100388Y57051*X100333Y57198*X100266Y57343*X100193Y57483*X100109Y57617*X100020Y57747*X99921Y57871*X99814Y57988*X99703Y58100*X99583Y58202*X99459Y58298*X99327Y58387*X99190Y58468*X99050Y58539*X98905Y58603*X98755Y58656*X98605Y58702*X98450Y58738*X98605Y58773*X98755Y58819*X98905Y58872*X99050Y58936*X99190Y59007*X99327Y59088*X99459Y59177*X99583Y59273*X99703Y59375*X99814Y59487*X99921Y59604*X100020Y59728*X100109Y59858*X100193Y59992*X100266Y60132*X100333Y60277*X100388Y60424*X100437Y60574*X100475Y60729*X100503Y60884*X100523Y61041*X100533Y61199*X100533Y61356*X100523Y61514*X100503Y61671*X100475Y61826*X100437Y61981*X100388Y62131*X100333Y62278*X100266Y62423*X100193Y62563*X100109Y62697*X100020Y62827*X99921Y62951*X99814Y63068*X99703Y63180*X99583Y63282*X99459Y63378*X99327Y63467*X99190Y63548*X99050Y63619*X98905Y63683*X98755Y63736*X98605Y63782*X98450Y63818*X98605Y63853*X98755Y63899*X98905Y63952*X99050Y64016*X99190Y64087*X99327Y64168*X99459Y64257*X99583Y64353*X99703Y64455*X99814Y64567*X99921Y64684*X100020Y64808*X100109Y64938*X100193Y65072*X100266Y65212*X100333Y65357*X100388Y65504*X100437Y65654*X100475Y65809*X100503Y65964*X100523Y66121*X100533Y66279*X100533Y66436*X100523Y66594*X100503Y66751*X100475Y66906*X100437Y67061*X100388Y67211*X100333Y67358*X100266Y67503*X100193Y67643*X100109Y67777*X100020Y67907*X99921Y68031*X99814Y68148*X99703Y68260*X99583Y68362*X99459Y68458*X99327Y68547*X99190Y68628*X99050Y68699*X98905Y68763*X98755Y68816*X98605Y68862*X98450Y68898*X96926Y68898*X96926Y63818*X98450Y63818*X96926Y63818*X96926Y58738*X98450Y58738*X96926Y58738*X96926Y53658*X98450Y53658*X104165Y53658D2*X104320Y53693D1*X104470Y53739*X104620Y53792*X104765Y53856*X104905Y53927*X105042Y54008*X105174Y54097*X105298Y54193*X105418Y54295*X105529Y54407*X105636Y54524*X105735Y54648*X105824Y54778*X105908Y54912*X105982Y55052*X106048Y55197*X106103Y55344*X106152Y55494*X106190Y55649*X106218Y55804*X106238Y55961*X106248Y56119*X106248Y56276*X106238Y56434*X106218Y56591*X106190Y56746*X106152Y56901*X106103Y57051*X106048Y57198*X105982Y57343*X105908Y57483*X105824Y57617*X105735Y57747*X105636Y57871*X105529Y57988*X105418Y58100*X105298Y58202*X105174Y58298*X105042Y58387*X104905Y58468*X104765Y58539*X104620Y58603*X104470Y58656*X104320Y58702*X104165Y58738*X104320Y58773*X104470Y58819*X104620Y58872*X104765Y58936*X104905Y59007*X105042Y59088*X105174Y59177*X105298Y59273*X105418Y59375*X105529Y59487*X105636Y59604*X105735Y59728*X105824Y59858*X105908Y59992*X105982Y60132*X106048Y60277*X106103Y60424*X106152Y60574*X106190Y60729*X106218Y60884*X106238Y61041*X106248Y61199*X106248Y61356*X106238Y61514*X106218Y61671*X106190Y61826*X106152Y61981*X106103Y62131*X106048Y62278*X105982Y62423*X105908Y62563*X105824Y62697*X105735Y62827*X105636Y62951*X105529Y63068*X105418Y63180*X105298Y63282*X105174Y63378*X105042Y63467*X104905Y63548*X104765Y63619*X104620Y63683*X104470Y63736*X104320Y63782*X104165Y63818*X104320Y63853*X104470Y63899*X104620Y63952*X104765Y64016*X104905Y64087*X105042Y64168*X105174Y64257*X105298Y64353*X105418Y64455*X105529Y64567*X105636Y64684*X105735Y64808*X105824Y64938*X105908Y65072*X105982Y65212*X106048Y65357*X106103Y65504*X106152Y65654*X106190Y65809*X106218Y65964*X106238Y66121*X106248Y66279*X106248Y66436*X106238Y66594*X106218Y66751*X106190Y66906*X106152Y67061*X106103Y67211*X106048Y67358*X105982Y67503*X105908Y67643*X105824Y67777*X105735Y67907*X105636Y68031*X105529Y68148*X105418Y68260*X105298Y68362*X105174Y68458*X105042Y68547*X104905Y68628*X104765Y68699*X104620Y68763*X104470Y68816*X104320Y68862*X104165Y68898*X102641Y68898*X102641Y63818*X104165Y63818*X102641Y63818*X102641Y58738*X104165Y58738*X102641Y58738*X102641Y53658*X104165Y53658*X109880Y53658D2*X110035Y53693D1*X110185Y53739*X110335Y53792*X110480Y53856*X110620Y53927*X110757Y54008*X110889Y54097*X111013Y54193*X111133Y54295*X111244Y54407*X111351Y54524*X111450Y54648*X111539Y54778*X111623Y54912*X111696Y55052*X111763Y55197*X111818Y55344*X111867Y55494*X111905Y55649*X111933Y55804*X111953Y55961*X111963Y56119*X111963Y56276*X111953Y56434*X111933Y56591*X111905Y56746*X111867Y56901*X111818Y57051*X111763Y57198*X111696Y57343*X111623Y57483*X111539Y57617*X111450Y57747*X111351Y57871*X111244Y57988*X111133Y58100*X111013Y58202*X110889Y58298*X110757Y58387*X110620Y58468*X110480Y58539*X110335Y58603*X110185Y58656*X110035Y58702*X109880Y58738*X110035Y58773*X110185Y58819*X110335Y58872*X110480Y58936*X110620Y59007*X110757Y59088*X110889Y59177*X111013Y59273*X111133Y59375*X111244Y59487*X111351Y59604*X111450Y59728*X111539Y59858*X111623Y59992*X111696Y60132*X111763Y60277*X111818Y60424*X111867Y60574*X111905Y60729*X111933Y60884*X111953Y61041*X111963Y61199*X111963Y61356*X111953Y61514*X111933Y61671*X111905Y61826*X111867Y61981*X111818Y62131*X111763Y62278*X111696Y62423*X111623Y62563*X111539Y62697*X111450Y62827*X111351Y62951*X111244Y63068*X111133Y63180*X111013Y63282*X110889Y63378*X110757Y63467*X110620Y63548*X110480Y63619*X110335Y63683*X110185Y63736*X110035Y63782*X109880Y63818*X110035Y63853*X110185Y63899*X110335Y63952*X110480Y64016*X110620Y64087*X110757Y64168*X110889Y64257*X111013Y64353*X111133Y64455*X111244Y64567*X111351Y64684*X111450Y64808*X111539Y64938*X111623Y65072*X111696Y65212*X111763Y65357*X111818Y65504*X111867Y65654*X111905Y65809*X111933Y65964*X111953Y66121*X111963Y66279*X111963Y66436*X111953Y66594*X111933Y66751*X111905Y66906*X111867Y67061*X111818Y67211*X111763Y67358*X111696Y67503*X111623Y67643*X111539Y67777*X111450Y67907*X111351Y68031*X111244Y68148*X111133Y68260*X111013Y68362*X110889Y68458*X110757Y68547*X110620Y68628*X110480Y68699*X110335Y68763*X110185Y68816*X110035Y68862*X109880Y68898*X108356Y68898*X108356Y63818*X109880Y63818*X108356Y63818*X108356Y58738*X109880Y58738*X108356Y58738*X108356Y53658*X109880Y53658*X115595Y53658D2*X115750Y53693D1*X115900Y53739*X116050Y53792*X116195Y53856*X116335Y53927*X116472Y54008*X116604Y54097*X116728Y54193*X116848Y54295*X116959Y54407*X117066Y54524*X117165Y54648*X117254Y54778*X117338Y54912*X117412Y55052*X117478Y55197*X117533Y55344*X117582Y55494*X117620Y55649*X117648Y55804*X117668Y55961*X117678Y56119*X117678Y56276*X117668Y56434*X117648Y56591*X117620Y56746*X117582Y56901*X117533Y57051*X117478Y57198*X117412Y57343*X117338Y57483*X117254Y57617*X117165Y57747*X117066Y57871*X116959Y57988*X116848Y58100*X116728Y58202*X116604Y58298*X116472Y58387*X116335Y58468*X116195Y58539*X116050Y58603*X115900Y58656*X115750Y58702*X115595Y58738*X115750Y58773*X115900Y58819*X116050Y58872*X116195Y58936*X116335Y59007*X116472Y59088*X116604Y59177*X116728Y59273*X116848Y59375*X116959Y59487*X117066Y59604*X117165Y59728*X117254Y59858*X117338Y59992*X117412Y60132*X117478Y60277*X117533Y60424*X117582Y60574*X117620Y60729*X117648Y60884*X117668Y61041*X117678Y61199*X117678Y61356*X117668Y61514*X117648Y61671*X117620Y61826*X117582Y61981*X117533Y62131*X117478Y62278*X117412Y62423*X117338Y62563*X117254Y62697*X117165Y62827*X117066Y62951*X116959Y63068*X116848Y63180*X116728Y63282*X116604Y63378*X116472Y63467*X116335Y63548*X116195Y63619*X116050Y63683*X115900Y63736*X115750Y63782*X115595Y63818*X115750Y63853*X115900Y63899*X116050Y63952*X116195Y64016*X116335Y64087*X116472Y64168*X116604Y64257*X116728Y64353*X116848Y64455*X116959Y64567*X117066Y64684*X117165Y64808*X117254Y64938*X117338Y65072*X117412Y65212*X117478Y65357*X117533Y65504*X117582Y65654*X117620Y65809*X117648Y65964*X117668Y66121*X117678Y66279*X117678Y66436*X117668Y66594*X117648Y66751*X117620Y66906*X117582Y67061*X117533Y67211*X117478Y67358*X117412Y67503*X117338Y67643*X117254Y67777*X117165Y67907*X117066Y68031*X116959Y68148*X116848Y68260*X116728Y68362*X116604Y68458*X116472Y68547*X116335Y68628*X116195Y68699*X116050Y68763*X115900Y68816*X115750Y68862*X115595Y68898*X114071Y68898*X114071Y63818*X115595Y63818*X114071Y63818*X114071Y58738*X115595Y58738*X114071Y58738*X114071Y53658*X115595Y53658*X117246Y26670D2*X117246Y25400D1*X116611Y26035D2*X117881Y26035D1*X112827Y24130D2*X112832Y23952D1*X112847Y23774*X112873Y23597*X112908Y23424*X112951Y23251*X113007Y23081*X113071Y22913*X113144Y22751*X113226Y22593*X113317Y22441*X113419Y22294*X113525Y22151*X113642Y22017*X113764Y21887*X113896Y21765*X114033Y21651*X114176Y21547*X114325Y21448*X114480Y21359*X114638Y21278*X114803Y21206*X114968Y21146*X115141Y21095*X115313Y21052*X115489Y21018*X115664Y20996*X115842Y20983*X116022Y20980*X116200Y20988*X116378Y21006*X116553Y21034*X116726Y21072*X116898Y21118*X117069Y21176*X117234Y21242*X117394Y21318*X117551Y21402*X117704Y21496*X117848Y21598*X117991Y21707*X118123Y21826*X118250Y21951*X118369Y22083*X118481Y22222*X118585Y22367*X118682Y22517*X118768Y22672*X118847Y22832*X118915Y22997*X118974Y23165*X119024Y23338*X119065Y23510*X119096Y23686*X119116Y23863*X119126Y24041*X119126Y24219*X119116Y24397*X119096Y24574*X119065Y24750*X119024Y24922*X118974Y25095*X118915Y25263*X118847Y25428*X118768Y25588*X118682Y25743*X118585Y25893*X118481Y26038*X118369Y26177*X118250Y26309*X118123Y26434*X117991Y26553*X117848Y26662*X117704Y26764*X117551Y26858*X117394Y26942*X117234Y27018*X117069Y27084*X116898Y27142*X116726Y27188*X116553Y27226*X116378Y27254*X116200Y27272*X116022Y27280*X115842Y27277*X115664Y27264*X115489Y27242*X115313Y27208*X115141Y27165*X114968Y27114*X114803Y27054*X114638Y26982*X114480Y26901*X114325Y26812*X114176Y26713*X114033Y26609*X113896Y26495*X113764Y26373*X113642Y26243*X113525Y26109*X113419Y25966*X113317Y25819*X113226Y25667*X113144Y25509*X113071Y25347*X113007Y25179*X112951Y25009*X112908Y24836*X112873Y24663*X112847Y24486*X112832Y24308*X112827Y24130*X79164Y14305D2*X79129Y14305D1*X79007Y14430D2*X79289Y14430D1*X79411Y14552D2*X78882Y14552D1*X78760Y14676D2*X79535Y14676D1*X79657Y14798D2*X78636Y14798D1*X78514Y14922D2*X79781Y14922D1*X79903Y15044D2*X78389Y15044D1*X78268Y15169D2*X80028Y15169D1*X80150Y15291D2*X78143Y15291D1*X78021Y15415D2*X80274Y15415D1*X80396Y15537D2*X77897Y15537D1*X80416Y15558D2*X79146Y14288D1*X77876Y15558*X80416Y15558*X89941Y6668D2*X89941Y14288D1*X45491Y14288*X45491Y6668*X40094Y23749D2*X40129Y23904D1*X40175Y24054*X40229Y24204*X40292Y24348*X40363Y24488*X40444Y24625*X40533Y24757*X40630Y24882*X40731Y25001*X40843Y25113*X40960Y25220*X41084Y25319*X41214Y25408*X41349Y25491*X41488Y25565*X41633Y25631*X41780Y25687*X41930Y25735*X42085Y25773*X42240Y25801*X42398Y25822*X42555Y25832*X42713Y25832*X42870Y25822*X43028Y25801*X43183Y25773*X43337Y25735*X43487Y25687*X43635Y25631*X43779Y25565*X43919Y25491*X44054Y25408*X44183Y25319*X44308Y25220*X44425Y25113*X44536Y25001*X44638Y24882*X44734Y24757*X44823Y24625*X44905Y24488*X44976Y24348*X45039Y24204*X45093Y24054*X45138Y23904*X45174Y23749*X47714Y23749D2*X47749Y23904D1*X47795Y24054*X47849Y24204*X47912Y24348*X47983Y24488*X48064Y24625*X48153Y24757*X48250Y24882*X48351Y25001*X48463Y25113*X48580Y25220*X48704Y25319*X48834Y25408*X48969Y25491*X49108Y25565*X49253Y25631*X49400Y25687*X49550Y25735*X49705Y25773*X49860Y25801*X50018Y25822*X50175Y25832*X50333Y25832*X50490Y25822*X50648Y25801*X50803Y25773*X50957Y25735*X51107Y25687*X51255Y25631*X51399Y25565*X51539Y25491*X51674Y25408*X51803Y25319*X51928Y25220*X52045Y25113*X52156Y25001*X52258Y24882*X52354Y24757*X52443Y24625*X52525Y24488*X52596Y24348*X52659Y24204*X52713Y24054*X52758Y23904*X52794Y23749*X55334Y23749D2*X55369Y23904D1*X55415Y24054*X55469Y24204*X55532Y24348*X55603Y24488*X55684Y24625*X55773Y24757*X55870Y24882*X55971Y25001*X56083Y25113*X56200Y25220*X56324Y25319*X56454Y25408*X56589Y25491*X56728Y25565*X56873Y25631*X57020Y25687*X57170Y25735*X57325Y25773*X57480Y25801*X57638Y25822*X57795Y25832*X57953Y25832*X58110Y25822*X58268Y25801*X58423Y25773*X58577Y25735*X58727Y25687*X58875Y25631*X59019Y25565*X59159Y25491*X59294Y25408*X59423Y25319*X59548Y25220*X59665Y25113*X59776Y25001*X59878Y24882*X59974Y24757*X60063Y24625*X60145Y24488*X60216Y24348*X60279Y24204*X60333Y24054*X60378Y23904*X60414Y23749*X62954Y23749D2*X62989Y23904D1*X63035Y24054*X63089Y24204*X63152Y24348*X63223Y24488*X63304Y24625*X63393Y24757*X63490Y24882*X63591Y25001*X63703Y25113*X63820Y25220*X63944Y25319*X64074Y25408*X64209Y25491*X64348Y25565*X64493Y25631*X64640Y25687*X64790Y25735*X64945Y25773*X65100Y25801*X65258Y25822*X65415Y25832*X65573Y25832*X65730Y25822*X65888Y25801*X66043Y25773*X66197Y25735*X66347Y25687*X66495Y25631*X66639Y25565*X66779Y25491*X66914Y25408*X67043Y25319*X67168Y25220*X67285Y25113*X67396Y25001*X67498Y24882*X67594Y24757*X67683Y24625*X67765Y24488*X67836Y24348*X67899Y24204*X67953Y24054*X67998Y23904*X68034Y23749*X70574Y23749D2*X70609Y23904D1*X70655Y24054*X70709Y24204*X70772Y24348*X70843Y24488*X70924Y24625*X71013Y24757*X71110Y24882*X71211Y25001*X71323Y25113*X71440Y25220*X71564Y25319*X71694Y25408*X71829Y25491*X71968Y25565*X72113Y25631*X72260Y25687*X72410Y25735*X72565Y25773*X72720Y25801*X72878Y25822*X73035Y25832*X73193Y25832*X73350Y25822*X73508Y25801*X73663Y25773*X73817Y25735*X73967Y25687*X74115Y25631*X74259Y25565*X74399Y25491*X74534Y25408*X74663Y25319*X74788Y25220*X74905Y25113*X75016Y25001*X75118Y24882*X75214Y24757*X75303Y24625*X75385Y24488*X75456Y24348*X75519Y24204*X75573Y24054*X75618Y23904*X75654Y23749*X78194Y23749D2*X78229Y23904D1*X78275Y24054*X78329Y24204*X78392Y24348*X78463Y24488*X78544Y24625*X78633Y24757*X78730Y24882*X78831Y25001*X78943Y25113*X79060Y25220*X79184Y25319*X79314Y25408*X79449Y25491*X79588Y25565*X79733Y25631*X79880Y25687*X80030Y25735*X80185Y25773*X80340Y25801*X80498Y25822*X80655Y25832*X80813Y25832*X80970Y25822*X81128Y25801*X81283Y25773*X81437Y25735*X81587Y25687*X81735Y25631*X81879Y25565*X82019Y25491*X82154Y25408*X82283Y25319*X82408Y25220*X82525Y25113*X82636Y25001*X82738Y24882*X82834Y24757*X82923Y24625*X83005Y24488*X83076Y24348*X83139Y24204*X83193Y24054*X83238Y23904*X83274Y23749*X85814Y23749D2*X85849Y23904D1*X85895Y24054*X85949Y24204*X86012Y24348*X86083Y24488*X86164Y24625*X86253Y24757*X86350Y24882*X86451Y25001*X86563Y25113*X86680Y25220*X86804Y25319*X86934Y25408*X87069Y25491*X87208Y25565*X87353Y25631*X87500Y25687*X87650Y25735*X87805Y25773*X87960Y25801*X88118Y25822*X88275Y25832*X88433Y25832*X88590Y25822*X88748Y25801*X88903Y25773*X89057Y25735*X89207Y25687*X89355Y25631*X89499Y25565*X89639Y25491*X89774Y25408*X89903Y25319*X90028Y25220*X90145Y25113*X90256Y25001*X90358Y24882*X90454Y24757*X90543Y24625*X90625Y24488*X90696Y24348*X90759Y24204*X90813Y24054*X90858Y23904*X90894Y23749*X93434Y23749D2*X93469Y23904D1*X93515Y24054*X93569Y24204*X93632Y24348*X93703Y24488*X93784Y24625*X93873Y24757*X93970Y24882*X94071Y25001*X94183Y25113*X94300Y25220*X94424Y25319*X94554Y25408*X94689Y25491*X94828Y25565*X94973Y25631*X95120Y25687*X95270Y25735*X95425Y25773*X95580Y25801*X95738Y25822*X95895Y25832*X96053Y25832*X96210Y25822*X96368Y25801*X96523Y25773*X96677Y25735*X96827Y25687*X96975Y25631*X97119Y25565*X97259Y25491*X97394Y25408*X97523Y25319*X97648Y25220*X97765Y25113*X97876Y25001*X97978Y24882*X98074Y24757*X98163Y24625*X98245Y24488*X98316Y24348*X98379Y24204*X98433Y24054*X98478Y23904*X98514Y23749*X98514Y22225*X93434Y22225*X93434Y23749*X90894Y23749D2*X90894Y22225D1*X85814Y22225*X85814Y23749*X83274Y23749D2*X83274Y22225D1*X78194Y22225*X78194Y23749*X75654Y23749D2*X75654Y22225D1*X70574Y22225*X70574Y23749*X68034Y23749D2*X68034Y22225D1*X62954Y22225*X62954Y23749*X60414Y23749D2*X60414Y22225D1*X55334Y22225*X55334Y23749*X52794Y23749D2*X52794Y22225D1*X47714Y22225*X47714Y23749*X45174Y23749D2*X45174Y22225D1*X40094Y22225*X40094Y23749*X40094Y38672D2*X40129Y38826D1*X40175Y38976*X40229Y39126*X40292Y39271*X40363Y39411*X40444Y39548*X40533Y39680*X40630Y39804*X40731Y39924*X40843Y40035*X40960Y40142*X41084Y40241*X41214Y40330*X41349Y40414*X41488Y40488*X41633Y40554*X41780Y40610*X41930Y40658*X42085Y40696*X42240Y40724*X42398Y40744*X42555Y40754*X42713Y40754*X42870Y40744*X43028Y40724*X43183Y40696*X43337Y40658*X43487Y40610*X43635Y40554*X43779Y40488*X43919Y40414*X44054Y40330*X44183Y40241*X44308Y40142*X44425Y40035*X44536Y39924*X44638Y39804*X44734Y39680*X44823Y39548*X44905Y39411*X44976Y39271*X45039Y39126*X45093Y38976*X45138Y38826*X45174Y38672*X47714Y38672D2*X47749Y38826D1*X47795Y38976*X47849Y39126*X47912Y39271*X47983Y39411*X48064Y39548*X48153Y39680*X48250Y39804*X48351Y39924*X48463Y40035*X48580Y40142*X48704Y40241*X48834Y40330*X48969Y40414*X49108Y40488*X49253Y40554*X49400Y40610*X49550Y40658*X49705Y40696*X49860Y40724*X50018Y40744*X50175Y40754*X50333Y40754*X50490Y40744*X50648Y40724*X50803Y40696*X50957Y40658*X51107Y40610*X51255Y40554*X51399Y40488*X51539Y40414*X51674Y40330*X51803Y40241*X51928Y40142*X52045Y40035*X52156Y39924*X52258Y39804*X52354Y39680*X52443Y39548*X52525Y39411*X52596Y39271*X52659Y39126*X52713Y38976*X52758Y38826*X52794Y38672*X55334Y38672D2*X55369Y38826D1*X55415Y38976*X55469Y39126*X55532Y39271*X55603Y39411*X55684Y39548*X55773Y39680*X55870Y39804*X55971Y39924*X56083Y40035*X56200Y40142*X56324Y40241*X56454Y40330*X56589Y40414*X56728Y40488*X56873Y40554*X57020Y40610*X57170Y40658*X57325Y40696*X57480Y40724*X57638Y40744*X57795Y40754*X57953Y40754*X58110Y40744*X58268Y40724*X58423Y40696*X58577Y40658*X58727Y40610*X58875Y40554*X59019Y40488*X59159Y40414*X59294Y40330*X59423Y40241*X59548Y40142*X59665Y40035*X59776Y39924*X59878Y39804*X59974Y39680*X60063Y39548*X60145Y39411*X60216Y39271*X60279Y39126*X60333Y38976*X60378Y38826*X60414Y38672*X62954Y38672D2*X62989Y38826D1*X63035Y38976*X63089Y39126*X63152Y39271*X63223Y39411*X63304Y39548*X63393Y39680*X63490Y39804*X63591Y39924*X63703Y40035*X63820Y40142*X63944Y40241*X64074Y40330*X64209Y40414*X64348Y40488*X64493Y40554*X64640Y40610*X64790Y40658*X64945Y40696*X65100Y40724*X65258Y40744*X65415Y40754*X65573Y40754*X65730Y40744*X65888Y40724*X66043Y40696*X66197Y40658*X66347Y40610*X66495Y40554*X66639Y40488*X66779Y40414*X66914Y40330*X67043Y40241*X67168Y40142*X67285Y40035*X67396Y39924*X67498Y39804*X67594Y39680*X67683Y39548*X67765Y39411*X67836Y39271*X67899Y39126*X67953Y38976*X67998Y38826*X68034Y38672*X70574Y38672D2*X70609Y38826D1*X70655Y38976*X70709Y39126*X70772Y39271*X70843Y39411*X70924Y39548*X71013Y39680*X71110Y39804*X71211Y39924*X71323Y40035*X71440Y40142*X71564Y40241*X71694Y40330*X71829Y40414*X71968Y40488*X72113Y40554*X72260Y40610*X72410Y40658*X72565Y40696*X72720Y40724*X72878Y40744*X73035Y40754*X73193Y40754*X73350Y40744*X73508Y40724*X73663Y40696*X73817Y40658*X73967Y40610*X74115Y40554*X74259Y40488*X74399Y40414*X74534Y40330*X74663Y40241*X74788Y40142*X74905Y40035*X75016Y39924*X75118Y39804*X75214Y39680*X75303Y39548*X75385Y39411*X75456Y39271*X75519Y39126*X75573Y38976*X75618Y38826*X75654Y38672*X78194Y38672D2*X78229Y38826D1*X78275Y38976*X78329Y39126*X78392Y39271*X78463Y39411*X78544Y39548*X78633Y39680*X78730Y39804*X78831Y39924*X78943Y40035*X79060Y40142*X79184Y40241*X79314Y40330*X79449Y40414*X79588Y40488*X79733Y40554*X79880Y40610*X80030Y40658*X80185Y40696*X80340Y40724*X80498Y40744*X80655Y40754*X80813Y40754*X80970Y40744*X81128Y40724*X81283Y40696*X81437Y40658*X81587Y40610*X81735Y40554*X81879Y40488*X82019Y40414*X82154Y40330*X82283Y40241*X82408Y40142*X82525Y40035*X82636Y39924*X82738Y39804*X82834Y39680*X82923Y39548*X83005Y39411*X83076Y39271*X83139Y39126*X83193Y38976*X83238Y38826*X83274Y38672*X85814Y38672D2*X85849Y38826D1*X85895Y38976*X85949Y39126*X86012Y39271*X86083Y39411*X86164Y39548*X86253Y39680*X86350Y39804*X86451Y39924*X86563Y40035*X86680Y40142*X86804Y40241*X86934Y40330*X87069Y40414*X87208Y40488*X87353Y40554*X87500Y40610*X87650Y40658*X87805Y40696*X87960Y40724*X88118Y40744*X88275Y40754*X88433Y40754*X88590Y40744*X88748Y40724*X88903Y40696*X89057Y40658*X89207Y40610*X89355Y40554*X89499Y40488*X89639Y40414*X89774Y40330*X89903Y40241*X90028Y40142*X90145Y40035*X90256Y39924*X90358Y39804*X90454Y39680*X90543Y39548*X90625Y39411*X90696Y39271*X90759Y39126*X90813Y38976*X90858Y38826*X90894Y38672*X93434Y38672D2*X93469Y38826D1*X93515Y38976*X93569Y39126*X93632Y39271*X93703Y39411*X93784Y39548*X93873Y39680*X93970Y39804*X94071Y39924*X94183Y40035*X94300Y40142*X94424Y40241*X94554Y40330*X94689Y40414*X94828Y40488*X94973Y40554*X95120Y40610*X95270Y40658*X95425Y40696*X95580Y40724*X95738Y40744*X95895Y40754*X96053Y40754*X96210Y40744*X96368Y40724*X96523Y40696*X96677Y40658*X96827Y40610*X96975Y40554*X97119Y40488*X97259Y40414*X97394Y40330*X97523Y40241*X97648Y40142*X97765Y40035*X97876Y39924*X97978Y39804*X98074Y39680*X98163Y39548*X98245Y39411*X98316Y39271*X98379Y39126*X98433Y38976*X98478Y38826*X98514Y38672*X98514Y37148*X93434Y37148*X93434Y38672*X90894Y38672D2*X90894Y37148D1*X85814Y37148*X85814Y38672*X83274Y38672D2*X83274Y37148D1*X78194Y37148*X78194Y38672*X75654Y38672D2*X75654Y37148D1*X70574Y37148*X70574Y38672*X68034Y38672D2*X68034Y37148D1*X62954Y37148*X62954Y38672*X60414Y38672D2*X60414Y37148D1*X55334Y37148*X55334Y38672*X52794Y38672D2*X52794Y37148D1*X47714Y37148*X47714Y38672*X45174Y38672D2*X45174Y37148D1*X40094Y37148*X40094Y38672*D20*X44158Y27496D2*X44158Y26352D1*X44729Y26924D2*X43586Y26924D1*X51778Y27496D2*X51778Y26352D1*X52349Y26924D2*X51206Y26924D1*X59398Y27496D2*X59398Y26352D1*X59969Y26924D2*X58826Y26924D1*X67018Y27496D2*X67018Y26352D1*X67589Y26924D2*X66446Y26924D1*X74638Y27496D2*X74638Y26352D1*X75209Y26924D2*X74066Y26924D1*X82258Y27496D2*X82258Y26352D1*X82829Y26924D2*X81686Y26924D1*X89878Y27496D2*X89878Y26352D1*X90449Y26924D2*X89306Y26924D1*X96926Y26924D2*X98069Y26924D1*X97498Y27496D2*X97498Y26352D1*X97498Y42418D2*X97498Y41275D1*X96926Y41846D2*X98069Y41846D1*X89878Y42418D2*X89878Y41275D1*X89306Y41846D2*X90449Y41846D1*X82258Y42418D2*X82258Y41275D1*X81686Y41846D2*X82829Y41846D1*X74638Y42418D2*X74638Y41275D1*X74066Y41846D2*X75209Y41846D1*X67018Y42418D2*X67018Y41275D1*X66446Y41846D2*X67589Y41846D1*X59398Y42418D2*X59398Y41275D1*X58826Y41846D2*X59969Y41846D1*X51778Y42418D2*X51778Y41275D1*X51206Y41846D2*X52349Y41846D1*X43586Y41846D2*X44729Y41846D1*X44158Y42418D2*X44158Y41275D1*X15265Y106553D2*X15265Y105410D1*X15837Y105982D2*X14694Y105982D1*X18885Y107442D2*X18885Y108585D1*X19456Y108014D2*X18313Y108014D1*X63525Y96838D2*X63525Y95694D1*X62954Y96266D2*X64097Y96266D1*X57810Y96838D2*X57810Y95694D1*X57239Y96266D2*X58382Y96266D1*X52095Y96838D2*X52095Y95694D1*X51524Y96266D2*X52667Y96266D1*X46380Y96838D2*X46380Y95694D1*X45809Y96266D2*X46952Y96266D1*X40665Y96838D2*X40665Y95694D1*X40094Y96266D2*X41237Y96266D1*X34950Y96838D2*X34950Y95694D1*X34379Y96266D2*X35522Y96266D1*X29235Y96838D2*X29235Y95694D1*X28664Y96266D2*X29807Y96266D1*X24092Y96266D2*X22949Y96266D1*X23520Y95694D2*X23520Y96838D1*X14694Y82804D2*X15837Y82804D1*X15265Y82232D2*X15265Y83376D1*X23520Y69532D2*X23520Y68390D1*X24092Y68961D2*X22949Y68961D1*X29235Y69532D2*X29235Y68390D1*X29807Y68961D2*X28664Y68961D1*X34950Y69532D2*X34950Y68390D1*X35522Y68961D2*X34379Y68961D1*X40665Y69532D2*X40665Y68390D1*X41237Y68961D2*X40094Y68961D1*X46380Y69532D2*X46380Y68390D1*X46952Y68961D2*X45809Y68961D1*X52095Y69532D2*X52095Y68390D1*X52667Y68961D2*X51524Y68961D1*X57810Y69532D2*X57810Y68390D1*X58382Y68961D2*X57239Y68961D1*X63525Y69532D2*X63525Y68390D1*X64097Y68961D2*X62954Y68961D1*X74320Y69532D2*X74320Y68390D1*X74892Y68961D2*X73749Y68961D1*X80035Y69532D2*X80035Y68390D1*X80607Y68961D2*X79464Y68961D1*X85750Y69532D2*X85750Y68390D1*X86322Y68961D2*X85179Y68961D1*X91465Y69532D2*X91465Y68390D1*X92037Y68961D2*X90894Y68961D1*X97180Y69532D2*X97180Y68390D1*X97752Y68961D2*X96609Y68961D1*X102895Y69532D2*X102895Y68390D1*X103467Y68961D2*X102324Y68961D1*X108610Y69532D2*X108610Y68390D1*X109182Y68961D2*X108039Y68961D1*X114897Y68961D2*X113754Y68961D1*X114325Y69532D2*X114325Y68390D1*X114325Y96838D2*X114325Y95694D1*X113754Y96266D2*X114897Y96266D1*X108610Y96838D2*X108610Y95694D1*X108039Y96266D2*X109182Y96266D1*X102895Y96838D2*X102895Y95694D1*X102324Y96266D2*X103467Y96266D1*X97180Y96838D2*X97180Y95694D1*X96609Y96266D2*X97752Y96266D1*X91465Y96838D2*X91465Y95694D1*X90894Y96266D2*X92037Y96266D1*X85750Y96838D2*X85750Y95694D1*X85179Y96266D2*X86322Y96266D1*X80035Y96838D2*X80035Y95694D1*X79464Y96266D2*X80607Y96266D1*X74892Y96266D2*X73749Y96266D1*X74320Y96838D2*X74320Y95694D1*X69367Y107442D2*X69367Y108585D1*X69939Y108014D2*X68796Y108014D1*D21*X32093Y46774D2*X32550Y46774D1*X13691Y56960D2*X13691Y56180D1*X91290Y13602D2*X90902Y13602D1*X91097Y12629D2*X91097Y13602D1*X90510Y12629D2*X90706Y12433D1*X90902Y12433*X91097Y12629*X91681Y12629D2*X91877Y12433D1*X92266Y12433*X92461Y12629*X92461Y13018*X92266Y13213*X92070Y13213*X91681Y13018*X91681Y13602*X92461Y13602*X114313Y33498D2*X113703Y33498D1*X113703Y34435D2*X114313Y34435D1*X114465Y35370D2*X113856Y35370D1*X114465Y35979D2*X114008Y35979D1*X113856Y35827*X113856Y35370*X113703Y35044D2*X114313Y35044D1*X114465Y34892*X114465Y34587*X114313Y34435*X113703Y35044*X113551Y34892*X113551Y34587*X113703Y34435*X113703Y34110D2*X114313Y34110D1*X114465Y33955*X114465Y33650*X114313Y33498*X113703Y34110*X113551Y33955*X113551Y33650*X113703Y33498*X113856Y32563D2*X113551Y32868D1*X114465Y32868*X114465Y32563D2*X114465Y33172D1*X117881Y32189D2*X117881Y32581D1*X118270Y32581*X118466Y32385*X118466Y31996*X118270Y31801*X117493Y31801*X117297Y31996*X117297Y32385*X117493Y32581*X118466Y32969D2*X117297Y32969D1*X118466Y33749*X117297Y33749*X118270Y34920D2*X118466Y34724D1*X118466Y34140*X117297Y34140*X117297Y34724*X117493Y34920*X118270Y34920*X117493Y36634D2*X118270Y36634D1*X117881Y37026D2*X117881Y36246D1*X118270Y37414D2*X118466Y37610D1*X118466Y38001*X118270Y38194*X117881Y38194*X117686Y38001*X117686Y37805*X117881Y37414*X117297Y37414*X117297Y38194*X117297Y38585D2*X118077Y38585D1*X118466Y38974*X118077Y39365*X117297Y39365*X121450Y109664D2*X120840Y109664D1*X121450Y110274D2*X120993Y110274D1*X120840Y110122*X120840Y109664*X120536Y109187D2*X120688Y109339D1*X120840Y106858D2*X120536Y107163D1*X121450Y107163*X121450Y107467D2*X121450Y106858D1*X121298Y107793D2*X120688Y107793D1*X120536Y107945*X120536Y108250*X120688Y108405*X121298Y108405D2*X120688Y108405D1*X121298Y107793*X121450Y107945*X121450Y108250*X121298Y108405*X121298Y108730D2*X121450Y108882D1*X121450Y109187*X121298Y109339*X120688Y109339*X121298Y108730*X120688Y108730*X120536Y108882*X120536Y109187*X114953Y109588D2*X114757Y109784D1*X115928Y109588D2*X116708Y109588D1*X116317Y109588D2*X116317Y110757D1*X115928Y110368*X115148Y110757D2*X115537Y110757D1*X115341Y110757D2*X115341Y109784D1*X115148Y109588*X114953Y109588*X113264Y106439D2*X113264Y107048D1*X114808Y106286D2*X114808Y106744D1*X114656Y106896*X114198Y106896*X114198Y106286*X113873Y107048D2*X113873Y106439D1*X113721Y106286*X113416Y106286*X113264Y106439*X113873Y107048*X113721Y107201*X113416Y107201*X113264Y107048*X112939Y107048D2*X112786Y107201D1*X112481Y107201*X112329Y107048*X112329Y106439*X112481Y106286*X112786Y106286*X112939Y106439*X112939Y107048*X112329Y106439*X111392Y106286D2*X112001Y106286D1*X111696Y106286D2*X111696Y107201D1*X111392Y106896*X13919Y111341D2*X14224Y111646D1*X14224Y110731*X14529Y110731D2*X13919Y110731D1*X14856Y110884D2*X15009Y110731D1*X15314Y110731*X15466Y110884*X15466Y111493*X14856Y110884*X14856Y111493*X15009Y111646*X15314Y111646*X15466Y111493*X16401Y111493D2*X16248Y111646D1*X15944Y111646*X15791Y111493*X15791Y110884*X16401Y110884D2*X16401Y111493D1*X15791Y110884*X15944Y110731*X16248Y110731*X16401Y110884*X16726Y110731D2*X16726Y111341D1*X17183Y111341*X17336Y111188*X17336Y110731*X17551Y89974D2*X17551Y89586D1*X16967Y90366D2*X16967Y89586D1*X18136Y89586*X18136Y90366*X18136Y90754D2*X16967Y90754D1*X18136Y91534*X18136Y93094D2*X18136Y93678D1*X17940Y93873*X17747Y93873*X17551Y93678*X17163Y93873D2*X16967Y93678D1*X16967Y93094*X18136Y93094*X18136Y92705D2*X17356Y92705D1*X16967Y92314*X17356Y91925*X18136Y91534D2*X16967Y91534D1*X17356Y91925D2*X18136Y91925D1*X17551Y92705D2*X17551Y91925D1*X17551Y93094D2*X17551Y93678D1*X17356Y93873*X17163Y93873*X16967Y94264D2*X18136Y94264D1*X18136Y95042*X17551Y95822D2*X17551Y95433D1*X18136Y96213D2*X18136Y95433D1*X16967Y95433*X16967Y96213*X17163Y98552D2*X16967Y98356D1*X16967Y97965*X17163Y97772*X17940Y97772*X18136Y98356D2*X17940Y98552D1*X17163Y98552*X17940Y97772*X18136Y97965*X18136Y98356*X63322Y109784D2*X63518Y109588D1*X63713Y109588*X63906Y109784*X63906Y110757*X64102Y110757D2*X63713Y110757D1*X64493Y110564D2*X64686Y110757D1*X65077Y110757*X65273Y110564*X65273Y110368*X64493Y109588*X65273Y109588*X69253Y93807D2*X69863Y93807D1*X70015Y94742D2*X69406Y94742D1*X70015Y95352D2*X69558Y95352D1*X69406Y95199*X69406Y94742*X69253Y94417D2*X69863Y94417D1*X70015Y94264*X70015Y93960*X69863Y93807*X69253Y94417*X69101Y94264*X69101Y93960*X69253Y93807*X69253Y93482D2*X69101Y93327D1*X69101Y93022*X69253Y92870*X69863Y92870*X70015Y93022*X70015Y93327*X69863Y93482*X69253Y93482*X69863Y92870*X70015Y91935D2*X70015Y92545D1*X70015Y92240D2*X69101Y92240D1*X69406Y91935*X68466Y59855D2*X68770Y59550D1*X68618Y61422D2*X69228Y61422D1*X69380Y62357D2*X68770Y62357D1*X69380Y62967D2*X68923Y62967D1*X68770Y62814*X68770Y62357*X68618Y62032D2*X69228Y62032D1*X69380Y61879*X69380Y61575*X69228Y61422*X68618Y62032*X68466Y61879*X68466Y61575*X68618Y61422*X68618Y61097D2*X68466Y60942D1*X68466Y60637*X68618Y60485*X69228Y60485*X69380Y60637*X69380Y60942*X69228Y61097*X68618Y61097*X69228Y60485*X69380Y59550D2*X69380Y60160D1*X68466Y59855D2*X69380Y59855D1*X32550Y46164D2*X31940Y46164D1*X32093Y46774D2*X31940Y46622D1*X31940Y46164*X31940Y43358D2*X31636Y43663D1*X32550Y43663*X32550Y43967D2*X32550Y43358D1*X32398Y44293D2*X31788Y44293D1*X31636Y44445*X31636Y44750*X31788Y44905*X32398Y44905D2*X31788Y44905D1*X32398Y44293*X32550Y44445*X32550Y44750*X32398Y44905*X32398Y45230D2*X31788Y45230D1*X31636Y45382*X31636Y45687*X31788Y45839D2*X32398Y45839D1*X32550Y45687*X32550Y45382*X32398Y45230*X31788Y45839*X31636Y45687*X13495Y47993D2*X13691Y48189D1*X13691Y48382*X13495Y48578*X12522Y48382D2*X12522Y48773D1*X13495Y48578D2*X12522Y48578D1*X12911Y49162D2*X13691Y49162D1*X12911Y49941D2*X12522Y49553D1*X12911Y49162*X13106Y49941D2*X13106Y49162D1*X12911Y49941D2*X13691Y49941D1*X12522Y51112D2*X12911Y50721D1*X12522Y50333*X13691Y50333*X12522Y51112D2*X13691Y51112D1*X13106Y51892D2*X13106Y51501D1*X12522Y52281D2*X12522Y51501D1*X13691Y51501*X13691Y52281*X13495Y52672D2*X13691Y52865D1*X13691Y53256*X13495Y53449*X13302Y53449*X13106Y53256*X13106Y52865*X12911Y52672*X12718Y52672*X12522Y52865*X12522Y53256*X12718Y53449*X13691Y55009D2*X12522Y55009D1*X13691Y55789*X12522Y55789*X13106Y56568D2*X13106Y56180D1*X12522Y56960D2*X12522Y56180D1*X13691Y56180*X13691Y58128D2*X13302Y57739D1*X13691Y57348*X13691Y58128D2*X12522Y58128D1*X13691Y58519D2*X12522Y58519D1*X12911Y58908*X12522Y59296*X13691Y59296*X12911Y59687D2*X13691Y59687D1*X12911Y60467D2*X12522Y60076D1*X12911Y59687*X13106Y60467D2*X13106Y59687D1*X12911Y60467D2*X13691Y60467D1*X13691Y60856D2*X12522Y60856D1*X13691Y61636*X12522Y61636*X17551Y67114D2*X17551Y66726D1*X16967Y67506D2*X16967Y66726D1*X18136Y66726*X18136Y67506*X18136Y67894D2*X16967Y67894D1*X18136Y68674*X18136Y70234D2*X18136Y70818D1*X17940Y71013*X17747Y71013*X17551Y70818*X17163Y71013D2*X16967Y70818D1*X16967Y70234*X18136Y70234*X18136Y69845D2*X17356Y69845D1*X16967Y69454*X17356Y69065*X18136Y68674D2*X16967Y68674D1*X17356Y69065D2*X18136Y69065D1*X17551Y69845D2*X17551Y69065D1*X17551Y70234D2*X17551Y70818D1*X17356Y71013*X17163Y71013*X16967Y71404D2*X18136Y71404D1*X18136Y72182*X17551Y72962D2*X17551Y72573D1*X18136Y73353D2*X18136Y72573D1*X16967Y72573*X16967Y73353*X17356Y74912D2*X16967Y75301D1*X18136Y74912D2*X18136Y75692D1*X16967Y75301D2*X18136Y75301D1*X56380Y64473D2*X56693Y64943D1*X40780Y19583D2*X40467Y19271D1*X42807Y18644D2*X42337Y18956D1*X42807Y19271*X42337Y19583D2*X42337Y18644D1*X42029Y19428D2*X41872Y19583D1*X41559Y19583*X41402Y19428*X41402Y18801*X41559Y18644*X41872Y18644*X42029Y18801*X42029Y19428*X41402Y18801*X40467Y18644D2*X41095Y18644D1*X40780Y19583D2*X40780Y18644D1*X39688Y21049D2*X40002Y21361D1*X40002Y20422*X40315Y20422D2*X39688Y20422D1*X41250Y21206D2*X41095Y21361D1*X40780Y21361*X40625Y21206*X40625Y20579*X41250Y20579D2*X41250Y21206D1*X40625Y20579*X40780Y20422*X41095Y20422*X41250Y20579*X42029Y20422D2*X41559Y20734D1*X42029Y21049*X41559Y21361D2*X41559Y20422D1*X101150Y89906D2*X100838Y90221D1*X101778Y90221*X101778Y90533D2*X101778Y89906D1*X101620Y90843D2*X100995Y90843D1*X100838Y90998*X100838Y91313*X100995Y91470*X101620Y91470D2*X101778Y91313D1*X101778Y90998*X101620Y90843*X100995Y91470*X101620Y91470*X100838Y91778D2*X101778Y91778D1*X101150Y92248D2*X101465Y91778D1*X101778Y92248*X105179Y101788D2*X105021Y101943D1*X104709Y101943*X104551Y101788*X104551Y101161D2*X104709Y101003D1*X105021Y101003*X105179Y101161*X105179Y101788*X104551Y101161*X104551Y101788*X103617Y101630D2*X103929Y101943D1*X103929Y101003*X103617Y101003D2*X104242Y101003D1*X102680Y101003D2*X102680Y101943D1*X103149Y101943*X103307Y101788*X103307Y101161*X103149Y101003*X102680Y101003*X101122Y97041D2*X100965Y97041D1*X100965Y96413*X101435Y96106D2*X101435Y95479D1*X100965Y95948*X101905Y95948*X101905Y96413D2*X101747Y96413D1*X101122Y97041*X101747Y97351D2*X101122Y97351D1*X100965Y97506*X100965Y97820*X101122Y97978*X101747Y97978*X101905Y97820*X101905Y97506*X101747Y97351*X101122Y97978*X97902Y101630D2*X98214Y101943D1*X98214Y101003*X98836Y101630D2*X99149Y101943D1*X99149Y101003*X98836Y101003D2*X99464Y101003D1*X97902Y101003D2*X98527Y101003D1*X96964Y101003D2*X96964Y101943D1*X97434Y101943*X97592Y101788*X97592Y101161*X97434Y101003*X96964Y101003*X95407Y97351D2*X96032Y97351D1*X95407Y97978D2*X96032Y97978D1*X96190Y97820*X96190Y97506*X96032Y97351*X95407Y97978*X95250Y97820*X95250Y97506*X95407Y97351*X96190Y95948D2*X95250Y95948D1*X95720Y95479*X95250Y96413D2*X95250Y97041D1*X95407Y97041*X96032Y96413*X96190Y96413*X95720Y95479D2*X95720Y96106D1*X96063Y92248D2*X95750Y91778D1*X95435Y92248*X95123Y91778D2*X96063Y91778D1*X95280Y91470D2*X95123Y91313D1*X95123Y90998*X95280Y90843*X95905Y90843*X96063Y90998*X96063Y91313*X95905Y91470*X95280Y91470*X95905Y90843*X96063Y90533D2*X96063Y89906D1*X96063Y90221D2*X95123Y90221D1*X95435Y89906*X83977Y70046D2*X84602Y70046D1*X83977Y70673D2*X84602Y70673D1*X84760Y70515*X84760Y70201*X84602Y70046*X83977Y70673*X83820Y70515*X83820Y70201*X83977Y70046*X84290Y68801D2*X84290Y68174D1*X83820Y69108D2*X83820Y69736D1*X83977Y69736*X84602Y69108*X84760Y69108*X84760Y68644D2*X83820Y68644D1*X84290Y68174*X84475Y63538D2*X83850Y63538D1*X84633Y64943D2*X84320Y64473D1*X84005Y64943*X83693Y64473D2*X84633Y64473D1*X83850Y64165D2*X84475Y64165D1*X84633Y64008*X84633Y63693*X84475Y63538*X83850Y64165*X83693Y64008*X83693Y63693*X83850Y63538*X84005Y62601D2*X83693Y62916D1*X84633Y63228D2*X84633Y62601D1*X83693Y62916D2*X84633Y62916D1*X78290Y62601D2*X77978Y62916D1*X78918Y62916*X78918Y63228D2*X78918Y62601D1*X78760Y63538D2*X78135Y63538D1*X77978Y63693*X77978Y64008*X78135Y64165*X78760Y64165*X78918Y64008*X78918Y63693*X78760Y63538*X78135Y64165*X78918Y64473D2*X77978Y64473D1*X78918Y64943D2*X78605Y64473D1*X78290Y64943*X61780Y83238D2*X61468Y83553D1*X62408Y83553*X62408Y83866D2*X62408Y83238D1*X62250Y84176D2*X61625Y84176D1*X61468Y84331*X61468Y84646*X61625Y84803*X62250Y84803*X62408Y84646*X62408Y84331*X62250Y84176*X61625Y84803*X62408Y85110D2*X61468Y85110D1*X62408Y85580D2*X62095Y85110D1*X61780Y85580*X61780Y89906D2*X61468Y90221D1*X62408Y90221*X62408Y90533D2*X62408Y89906D1*X62250Y90843D2*X61625Y90843D1*X61468Y90998*X61468Y91313*X61625Y91470*X62250Y91470D2*X61625Y91470D1*X62250Y90843*X62408Y90998*X62408Y91313*X62250Y91470*X62408Y92248D2*X62095Y91778D1*X61780Y92248*X61468Y91778D2*X62408Y91778D1*X56693Y92248D2*X56380Y91778D1*X56065Y92248*X55753Y91778D2*X56693Y91778D1*X55910Y91470D2*X55753Y91313D1*X55753Y90998*X55910Y90843*X56535Y90843*X56693Y90998*X56693Y91313*X56535Y91470*X55910Y91470*X56535Y90843*X56693Y90533D2*X56693Y89906D1*X56693Y90221D2*X55753Y90221D1*X56065Y89906*X56535Y84176D2*X55910Y84176D1*X56693Y85580D2*X56380Y85110D1*X56065Y85580*X55753Y85110D2*X56693Y85110D1*X55910Y84803D2*X56535Y84803D1*X56693Y84646*X56693Y84331*X56535Y84176*X55910Y84803*X55753Y84646*X55753Y84331*X55910Y84176*X56065Y83238D2*X55753Y83553D1*X56693Y83553*X56693Y83238D2*X56693Y83866D1*X56380Y64473D2*X56065Y64943D1*X55753Y64473D2*X56693Y64473D1*X55910Y64165D2*X56535Y64165D1*X56693Y64008*X56693Y63693*X56535Y63538*X55910Y64165*X55753Y64008*X55753Y63693*X55910Y63538*X56535Y63538*X56693Y63228D2*X56693Y62601D1*X56693Y62916D2*X55753Y62916D1*X56065Y62601*X50350Y62601D2*X50038Y62916D1*X50978Y62916*X50978Y63228D2*X50978Y62601D1*X50820Y63538D2*X50195Y63538D1*X50038Y63693*X50038Y64008*X50195Y64165*X50820Y64165D2*X50195Y64165D1*X50820Y63538*X50978Y63693*X50978Y64008*X50820Y64165*X50978Y64943D2*X50665Y64473D1*X50350Y64943*X50038Y64473D2*X50978Y64473D1*X44607Y69736D2*X44450Y69736D1*X44450Y69108*X44920Y68801D2*X44920Y68174D1*X44450Y68644*X45390Y68644*X45390Y69108D2*X45232Y69108D1*X44607Y69736*X45232Y70046D2*X44607Y70046D1*X44450Y70201*X44450Y70515*X44607Y70673*X45232Y70673D2*X45390Y70515D1*X45390Y70201*X45232Y70046*X44607Y70673*X45232Y70673*X47737Y74483D2*X47892Y74638D1*X48207Y74638*X48362Y74483*X48362Y74325*X48207Y74168*X48207Y73698D2*X48362Y73856D1*X48362Y74011*X48207Y74168*X48049Y74168*X47427Y73856D2*X47269Y73698D1*X46800Y73698*X46800Y74638*X47269Y74638*X47427Y74483*X47427Y73856*X47737Y73856D2*X47892Y73698D1*X48207Y73698*X50322Y69736D2*X50165Y69736D1*X50165Y69108*X50635Y68801D2*X50635Y68174D1*X50165Y68644*X51105Y68644*X51105Y69108D2*X50947Y69108D1*X50322Y69736*X50947Y70046D2*X50322Y70046D1*X50165Y70201*X50165Y70515*X50322Y70673*X50947Y70673D2*X50322Y70673D1*X50947Y70046*X51105Y70201*X51105Y70515*X50947Y70673*X53142Y74483D2*X53142Y73856D1*X52984Y73698*X52514Y73698*X52514Y74638*X52984Y74638*X53142Y74483*X53452Y74483D2*X53607Y74638D1*X53922Y74638*X54077Y74483*X54077Y74325*X53452Y73698*X54077Y73698*X56037Y69736D2*X55880Y69736D1*X55880Y69108*X56350Y68801D2*X56350Y68174D1*X55880Y68644*X56820Y68644*X56820Y69108D2*X56662Y69108D1*X56037Y69736*X56662Y70046D2*X56037Y70046D1*X55880Y70201*X55880Y70515*X56037Y70673*X56662Y70673D2*X56820Y70515D1*X56820Y70201*X56662Y70046*X56037Y70673*X56662Y70673*X58857Y74483D2*X58857Y73856D1*X58699Y73698*X58230Y73698*X58230Y74638*X58699Y74638*X58857Y74483*X59167Y74325D2*X59479Y74638D1*X59479Y73698*X59792Y73698D2*X59167Y73698D1*X65507Y74483D2*X65352Y74638D1*X65037Y74638*X64882Y74483*X64882Y73856*X65037Y73698*X65352Y73698*X65507Y73856*X65507Y74483*X64882Y73856*X63944Y73698D2*X63944Y74638D1*X64414Y74638*X64572Y74483*X64572Y73856*X64414Y73698*X63944Y73698*X61752Y70046D2*X62377Y70046D1*X61752Y70673D2*X62377Y70673D1*X62535Y70515*X62535Y70201*X62377Y70046*X61752Y70673*X61595Y70515*X61595Y70201*X61752Y70046*X62535Y68644D2*X61595Y68644D1*X62065Y68174*X61595Y69108D2*X61595Y69736D1*X61752Y69736*X62377Y69108*X62535Y69108*X62065Y68174D2*X62065Y68801D1*X62408Y64943D2*X62095Y64473D1*X61780Y64943*X61468Y64473D2*X62408Y64473D1*X61625Y64165D2*X61468Y64008D1*X61468Y63693*X61625Y63538*X62250Y63538*X62408Y63693*X62408Y64008*X62250Y64165*X61625Y64165*X62250Y63538*X62408Y63228D2*X62408Y62601D1*X62408Y62916D2*X61468Y62916D1*X61780Y62601*X62250Y56871D2*X61625Y56871D1*X62408Y58275D2*X62095Y57805D1*X61780Y58275*X61468Y57805D2*X62408Y57805D1*X61625Y57498D2*X62250Y57498D1*X62408Y57340*X62408Y57026*X62250Y56871*X61625Y57498*X61468Y57340*X61468Y57026*X61625Y56871*X61780Y55933D2*X61468Y56248D1*X62408Y56561D2*X62408Y55933D1*X61468Y56248D2*X62408Y56248D1*X56065Y55933D2*X55753Y56248D1*X56693Y56561D2*X56693Y55933D1*X55753Y56248D2*X56693Y56248D1*X55753Y57026D2*X55910Y56871D1*X56535Y56871*X56693Y58275D2*X56380Y57805D1*X56065Y58275*X55753Y57805D2*X56693Y57805D1*X55910Y57498D2*X56535Y57498D1*X56693Y57340*X56693Y57026*X56535Y56871*X55910Y57498*X55753Y57340*X55753Y57026*X50820Y56871D2*X50195Y56871D1*X50978Y58275D2*X50665Y57805D1*X50350Y58275*X50038Y57805D2*X50978Y57805D1*X50195Y57498D2*X50820Y57498D1*X50978Y57340*X50978Y57026*X50820Y56871*X50195Y57498*X50038Y57340*X50038Y57026*X50195Y56871*X50350Y55933D2*X50038Y56248D1*X50978Y56561D2*X50978Y55933D1*X50038Y56248D2*X50978Y56248D1*X44635Y55933D2*X44323Y56248D1*X45263Y56248*X45263Y56561D2*X45263Y55933D1*X45105Y56871D2*X44480Y56871D1*X44323Y57026*X44323Y57340*X44480Y57498*X45105Y57498*X45263Y57340*X45263Y57026*X45105Y56871*X44480Y57498*X45263Y57805D2*X44323Y57805D1*X45263Y58275D2*X44950Y57805D1*X44635Y58275*X44635Y62601D2*X44323Y62916D1*X45263Y62916*X45263Y63228D2*X45263Y62601D1*X45105Y63538D2*X44480Y63538D1*X44323Y63693*X44323Y64008*X44480Y64165*X45105Y64165*X45263Y64008*X45263Y63693*X45105Y63538*X44480Y64165*X44635Y64943D2*X44950Y64473D1*X45263Y64943*X44323Y64473D2*X45263Y64473D1*X33205Y64943D2*X33520Y64473D1*X33833Y64943*X32893Y64473D2*X33833Y64473D1*X33050Y64165D2*X32893Y64008D1*X32893Y63693*X33050Y63538*X33675Y63538*X33833Y63693*X33833Y64008*X33675Y64165*X33050Y64165*X33675Y63538*X33833Y63228D2*X33833Y62601D1*X33833Y62916D2*X32893Y62916D1*X33205Y62601*X27490Y62601D2*X27178Y62916D1*X28118Y62916*X28118Y63228D2*X28118Y62601D1*X27960Y63538D2*X27335Y63538D1*X27178Y63693*X27178Y64008*X27335Y64165*X27960Y64165D2*X27335Y64165D1*X27960Y63538*X28118Y63693*X28118Y64008*X27960Y64165*X28118Y64943D2*X27805Y64473D1*X27490Y64943*X27178Y64473D2*X28118Y64473D1*X22403Y64943D2*X22090Y64473D1*X21775Y64943*X21463Y64473D2*X22403Y64473D1*X21620Y64165D2*X21463Y64008D1*X21463Y63693*X21620Y63538*X22245Y63538*X22403Y63693*X22403Y64008*X22245Y64165*X21620Y64165*X22245Y63538*X22403Y63228D2*X22403Y62601D1*X22403Y62916D2*X21463Y62916D1*X21775Y62601*X22245Y56871D2*X21620Y56871D1*X22403Y58275D2*X22090Y57805D1*X21775Y58275*X21463Y57805D2*X22403Y57805D1*X21620Y57498D2*X22245Y57498D1*X22403Y57340*X22403Y57026*X22245Y56871*X21620Y57498*X21463Y57340*X21463Y57026*X21620Y56871*X21775Y55933D2*X21463Y56248D1*X22403Y56248*X22403Y55933D2*X22403Y56561D1*X27490Y55933D2*X27178Y56248D1*X28118Y56248*X28118Y56561D2*X28118Y55933D1*X28118Y58275D2*X27805Y57805D1*X27490Y58275*X27178Y57805D2*X28118Y57805D1*X27335Y57498D2*X27178Y57340D1*X27178Y57026*X27335Y56871*X27960Y56871*X28118Y57026D2*X28118Y57340D1*X27960Y57498*X27335Y57498*X27960Y56871*X28118Y57026*X33050Y56871D2*X33675Y56871D1*X33205Y58275D2*X33520Y57805D1*X33833Y58275*X32893Y57805D2*X33833Y57805D1*X33050Y57498D2*X33675Y57498D1*X33833Y57340*X33833Y57026*X33675Y56871*X33050Y57498*X32893Y57340*X32893Y57026*X33050Y56871*X33205Y55933D2*X32893Y56248D1*X33833Y56248*X33833Y55933D2*X33833Y56561D1*X38920Y55933D2*X38608Y56248D1*X39548Y56248*X39548Y56561D2*X39548Y55933D1*X39390Y56871D2*X38765Y56871D1*X38608Y57026*X38608Y57340*X38765Y57498*X39390Y57498*X39548Y57340*X39548Y57026*X39390Y56871*X38765Y57498*X39548Y57805D2*X38608Y57805D1*X39548Y58275D2*X39235Y57805D1*X38920Y58275*X38920Y62601D2*X38608Y62916D1*X39548Y62916*X39548Y63228D2*X39548Y62601D1*X39390Y63538D2*X38765Y63538D1*X38608Y63693*X38608Y64008*X38765Y64165*X39390Y64165*X39548Y64008*X39548Y63693*X39390Y63538*X38765Y64165*X39548Y64473D2*X38608Y64473D1*X39548Y64943D2*X39235Y64473D1*X38920Y64943*X38892Y69736D2*X38735Y69736D1*X38735Y69108*X39205Y68801D2*X39205Y68174D1*X38735Y68644*X39675Y68644*X39675Y69108D2*X39517Y69108D1*X38892Y69736*X39517Y70046D2*X38892Y70046D1*X38735Y70201*X38735Y70515*X38892Y70673*X39517Y70673D2*X38892Y70673D1*X39517Y70046*X39675Y70201*X39675Y70515*X39517Y70673*X42022Y74168D2*X42492Y74638D1*X42492Y73698*X42022Y74168D2*X42647Y74168D1*X41084Y74638D2*X41554Y74638D1*X41712Y74483*X41712Y73856*X41554Y73698*X41084Y73698*X41084Y74638*X36932Y74638D2*X36307Y74638D1*X36307Y74168*X36619Y74325*X36777Y74325*X36932Y74168*X36932Y73856*X36777Y73698*X36462Y73698*X36307Y73856*X35370Y73698D2*X35370Y74638D1*X35839Y74638*X35997Y74483*X35997Y73856*X35839Y73698*X35370Y73698*X33177Y69736D2*X33020Y69736D1*X33020Y69108*X33490Y68801D2*X33490Y68174D1*X33020Y68644*X33960Y68644*X33960Y69108D2*X33802Y69108D1*X33177Y69736*X33802Y70046D2*X33177Y70046D1*X33020Y70201*X33020Y70515*X33177Y70673*X33802Y70673*X33960Y70515*X33960Y70201*X33802Y70046*X33177Y70673*X31217Y74638D2*X30904Y74483D1*X30592Y74168*X30592Y73856D2*X30747Y73698D1*X31062Y73698*X31217Y73856*X31217Y74011*X31062Y74168*X30592Y74168*X30592Y73856*X29654Y73698D2*X29654Y74638D1*X30124Y74638*X30282Y74483*X30282Y73856*X30124Y73698*X29654Y73698*X27462Y69736D2*X27305Y69736D1*X27305Y69108*X27775Y68801D2*X27775Y68174D1*X27305Y68644*X28245Y68644*X28245Y69108D2*X28087Y69108D1*X27462Y69736*X28087Y70046D2*X27462Y70046D1*X27305Y70201*X27305Y70515*X27462Y70673*X28087Y70673*X28245Y70515*X28245Y70201*X28087Y70046*X27462Y70673*X24877Y74638D2*X25502Y74638D1*X25502Y74483*X24877Y73856*X24877Y73698*X23940Y73698D2*X23940Y74638D1*X24409Y74638*X24567Y74483*X24567Y73856*X24409Y73698*X23940Y73698*X21747Y70046D2*X22372Y70046D1*X21747Y70673D2*X22372Y70673D1*X22530Y70515*X22530Y70201*X22372Y70046*X21747Y70673*X21590Y70515*X21590Y70201*X21747Y70046*X21590Y69108D2*X21590Y69736D1*X22060Y68801D2*X22060Y68174D1*X21590Y68644*X22530Y68644*X22530Y69108D2*X22372Y69108D1*X21747Y69736*X21590Y69736*X14282Y69444D2*X13970Y69756D1*X14910Y69444D2*X14910Y70071D1*X13970Y69756D2*X14910Y69756D1*X13970Y70536D2*X14127Y70378D1*X14752Y70378*X14910Y71785D2*X14597Y71316D1*X14282Y71785*X13970Y71316D2*X14910Y71316D1*X14127Y71006D2*X14752Y71006D1*X14910Y70848*X14910Y70536*X14752Y70378*X14127Y71006*X13970Y70848*X13970Y70536*X12250Y70221D2*X11938Y70536D1*X12878Y70536*X12878Y70848D2*X12878Y70221D1*X12720Y71158D2*X12095Y71158D1*X11938Y71313*X11938Y71628*X12095Y71785*X12720Y71785D2*X12095Y71785D1*X12720Y71158*X12878Y71313*X12878Y71628*X12720Y71785*X11938Y72093D2*X12878Y72093D1*X12250Y72563D2*X12565Y72093D1*X12878Y72563*X14910Y78770D2*X14597Y78301D1*X14282Y78770*X13970Y78301D2*X14910Y78301D1*X13970Y77833D2*X14127Y77991D1*X14282Y76429D2*X13970Y76741D1*X14910Y76741*X14910Y77056D2*X14910Y76429D1*X14752Y77363D2*X14910Y77521D1*X14910Y77833*X14752Y77991*X14127Y77991*X14752Y77363*X14127Y77363*X13970Y77521*X13970Y77833*X12222Y77991D2*X12065Y77991D1*X12065Y77363*X12535Y77056D2*X12535Y76429D1*X12065Y76898*X13005Y76898*X13005Y77363D2*X12847Y77363D1*X12222Y77991*X12847Y78301D2*X12222Y78301D1*X12065Y78456*X12065Y78770*X12222Y78928*X12847Y78928D2*X13005Y78770D1*X13005Y78456*X12847Y78301*X12222Y78928*X12847Y78928*X14282Y92621D2*X13970Y92934D1*X14910Y92621D2*X14910Y93248D1*X13970Y92934D2*X14910Y92934D1*X13970Y93713D2*X14127Y93556D1*X14752Y93556*X14910Y94963D2*X14597Y94493D1*X14282Y94963*X13970Y94493D2*X14910Y94493D1*X14127Y94183D2*X14752Y94183D1*X14910Y94026*X14910Y93713*X14752Y93556*X14127Y94183*X13970Y94026*X13970Y93713*X12250Y93398D2*X11938Y93713D1*X12878Y93713*X12878Y94026D2*X12878Y93398D1*X12720Y94336D2*X12095Y94336D1*X11938Y94491*X11938Y94806*X12095Y94963*X12720Y94963*X12878Y94806*X12878Y94491*X12720Y94336*X12095Y94963*X12878Y95270D2*X11938Y95270D1*X12878Y95740D2*X12565Y95270D1*X12250Y95740*X12222Y102105D2*X12065Y101948D1*X12065Y101633*X12222Y101478*X12847Y101478*X13005Y101633*X13005Y101948*X12847Y102105*X12222Y102105*X12847Y101478*X12847Y100541D2*X13005Y100541D1*X12065Y100541D2*X12065Y101168D1*X12222Y101168*X12847Y100541*X12535Y100233D2*X12535Y99606D1*X12065Y100076*X13005Y100076*X14282Y99606D2*X13970Y99919D1*X14910Y99919*X14910Y100233D2*X14910Y99606D1*X14752Y100541D2*X14127Y100541D1*X13970Y100698*X13970Y101011*X14127Y101168*X14752Y101168D2*X14127Y101168D1*X14752Y100541*X14910Y100698*X14910Y101011*X14752Y101168*X13970Y101478D2*X14910Y101478D1*X14282Y101948D2*X14597Y101478D1*X14910Y101948*X27584Y107376D2*X27584Y107531D1*X26960Y107531*X26650Y107061D2*X26022Y107061D1*X26492Y107531*X26492Y106591*X26960Y106591D2*X26960Y106749D1*X27584Y107376*X28522Y107376D2*X28364Y107531D1*X28052Y107531*X27894Y107376*X27894Y106749*X28052Y106591D2*X28364Y106591D1*X28522Y106749*X28522Y107376*X27894Y106749*X28052Y106591*X27462Y97351D2*X28087Y97351D1*X27462Y97978D2*X28087Y97978D1*X28245Y97820*X28245Y97506*X28087Y97351*X27462Y97978*X27305Y97820*X27305Y97506*X27462Y97351*X27775Y96106D2*X27775Y95479D1*X27305Y96413D2*X27305Y97041D1*X27462Y97041*X28087Y96413*X28245Y96413*X28245Y95948D2*X27305Y95948D1*X27775Y95479*X27960Y90843D2*X27335Y90843D1*X28118Y92248D2*X27805Y91778D1*X27490Y92248*X27178Y91778D2*X28118Y91778D1*X27335Y91470D2*X27960Y91470D1*X28118Y91313*X28118Y90998*X27960Y90843*X27335Y91470*X27178Y91313*X27178Y90998*X27335Y90843*X27490Y89906D2*X27178Y90221D1*X28118Y90221*X28118Y89906D2*X28118Y90533D1*X33205Y89906D2*X32893Y90221D1*X33833Y90221*X33833Y90533D2*X33833Y89906D1*X33205Y92248D2*X33520Y91778D1*X33833Y92248*X32893Y91778D2*X33833Y91778D1*X33050Y91470D2*X32893Y91313D1*X32893Y90998*X33050Y90843*X33675Y90843*X33833Y90998D2*X33833Y91313D1*X33675Y91470*X33050Y91470*X33675Y90843*X33833Y90998*X39390Y90843D2*X38765Y90843D1*X39548Y92248D2*X39235Y91778D1*X38920Y92248*X38608Y91778D2*X39548Y91778D1*X38765Y91470D2*X39390Y91470D1*X39548Y91313*X39548Y90998*X39390Y90843*X38765Y91470*X38608Y91313*X38608Y90998*X38765Y90843*X38920Y89906D2*X38608Y90221D1*X39548Y90221*X39548Y89906D2*X39548Y90533D1*X44635Y89906D2*X44323Y90221D1*X45263Y90221*X45263Y90533D2*X45263Y89906D1*X45105Y90843D2*X44480Y90843D1*X44323Y90998*X44323Y91313*X44480Y91470*X45105Y91470*X45263Y91313*X45263Y90998*X45105Y90843*X44480Y91470*X45263Y91778D2*X44323Y91778D1*X45263Y92248D2*X44950Y91778D1*X44635Y92248*X44607Y97041D2*X44450Y97041D1*X44450Y96413*X44920Y96106D2*X44920Y95479D1*X44450Y95948*X45390Y95948*X45390Y96413D2*X45232Y96413D1*X44607Y97041*X45232Y97351D2*X44607Y97351D1*X44450Y97506*X44450Y97820*X44607Y97978*X45232Y97978*X45390Y97820*X45390Y97506*X45232Y97351*X44607Y97978*X41699Y101943D2*X41387Y101630D1*X42321Y101003D2*X42949Y101003D1*X41699Y101943D2*X41699Y101003D1*X42321Y101788D2*X42479Y101943D1*X42791Y101943*X42949Y101788*X42949Y101630*X42321Y101003*X41387Y101003D2*X42012Y101003D1*X40450Y101003D2*X40450Y101943D1*X40919Y101943*X41077Y101788*X41077Y101161*X40919Y101003*X40450Y101003*X38892Y97041D2*X38735Y97041D1*X38735Y96413*X39205Y96106D2*X39205Y95479D1*X38735Y95948*X39675Y95948*X39675Y96413D2*X39517Y96413D1*X38892Y97041*X39517Y97351D2*X38892Y97351D1*X38735Y97506*X38735Y97820*X38892Y97978*X39517Y97978*X39675Y97820*X39675Y97506*X39517Y97351*X38892Y97978*X36919Y101473D2*X37076Y101473D1*X36606Y101161D2*X36764Y101003D1*X37076Y101003*X37234Y101161*X37234Y101316*X37076Y101473*X37234Y101630*X37234Y101788*X37076Y101943*X36764Y101943*X36606Y101788*X35672Y101630D2*X35984Y101943D1*X35984Y101003*X35672Y101003D2*X36297Y101003D1*X34734Y101003D2*X34734Y101943D1*X35204Y101943*X35362Y101788*X35362Y101161*X35204Y101003*X34734Y101003*X33177Y97041D2*X33020Y97041D1*X33020Y96413*X33490Y96106D2*X33490Y95479D1*X33020Y95948*X33960Y95948*X33960Y96413D2*X33802Y96413D1*X33177Y97041*X33802Y97351D2*X33177Y97351D1*X33020Y97506*X33020Y97820*X33177Y97978*X33802Y97978*X33960Y97820*X33960Y97506*X33802Y97351*X33177Y97978*X30891Y101473D2*X31361Y101943D1*X31361Y101003*X30891Y101473D2*X31519Y101473D1*X29957Y101003D2*X30582Y101003D1*X30269Y101003D2*X30269Y101943D1*X29957Y101630*X29020Y101943D2*X29489Y101943D1*X29647Y101788*X29647Y101161*X29489Y101003*X29020Y101003*X29020Y101943*X25804Y101943D2*X25176Y101943D1*X25176Y101473*X25176Y101161D2*X25334Y101003D1*X25646Y101003*X25804Y101161*X25804Y101473*X25646Y101630*X25489Y101630*X25176Y101473*X24242Y101630D2*X24554Y101943D1*X24554Y101003*X24242Y101003D2*X24867Y101003D1*X23304Y101003D2*X23304Y101943D1*X23774Y101943*X23932Y101788*X23932Y101161*X23774Y101003*X23304Y101003*X21747Y97351D2*X22372Y97351D1*X21747Y97978D2*X22372Y97978D1*X22530Y97820*X22530Y97506*X22372Y97351*X21747Y97978*X21590Y97820*X21590Y97506*X21747Y97351*X22530Y95948D2*X21590Y95948D1*X22060Y95479*X21590Y96413D2*X21590Y97041D1*X21747Y97041*X22372Y96413*X22530Y96413*X22060Y95479D2*X22060Y96106D1*X22403Y92248D2*X22090Y91778D1*X21775Y92248*X21463Y91778D2*X22403Y91778D1*X21620Y91470D2*X21463Y91313D1*X21463Y90998*X21620Y90843*X22245Y90843*X22403Y90998*X22403Y91313*X22245Y91470*X21620Y91470*X22245Y90843*X22403Y90533D2*X22403Y89906D1*X22403Y90221D2*X21463Y90221D1*X21775Y89906*X22245Y84176D2*X21620Y84176D1*X22403Y85580D2*X22090Y85110D1*X21775Y85580*X21463Y85110D2*X22403Y85110D1*X21620Y84803D2*X22245Y84803D1*X22403Y84646*X22403Y84331*X22245Y84176*X21620Y84803*X21463Y84646*X21463Y84331*X21620Y84176*X21775Y83238D2*X21463Y83553D1*X22403Y83553*X22403Y83238D2*X22403Y83866D1*X27490Y83238D2*X27178Y83553D1*X28118Y83553*X28118Y83866D2*X28118Y83238D1*X28118Y85580D2*X27805Y85110D1*X27490Y85580*X27178Y85110D2*X28118Y85110D1*X27335Y84803D2*X27178Y84646D1*X27178Y84331*X27335Y84176*X27960Y84176*X28118Y84331D2*X28118Y84646D1*X27960Y84803*X27335Y84803*X27960Y84176*X28118Y84331*X33675Y84176D2*X33050Y84176D1*X33833Y85580D2*X33520Y85110D1*X33205Y85580*X32893Y85110D2*X33833Y85110D1*X33050Y84803D2*X33675Y84803D1*X33833Y84646*X33833Y84331*X33675Y84176*X33050Y84803*X32893Y84646*X32893Y84331*X33050Y84176*X33205Y83238D2*X32893Y83553D1*X33833Y83553*X33833Y83238D2*X33833Y83866D1*X38920Y83238D2*X38608Y83553D1*X39548Y83553*X39548Y83866D2*X39548Y83238D1*X39548Y85580D2*X39235Y85110D1*X38920Y85580*X38608Y85110D2*X39548Y85110D1*X38765Y84803D2*X38608Y84646D1*X38608Y84331*X38765Y84176*X39390Y84176*X39548Y84331D2*X39548Y84646D1*X39390Y84803*X38765Y84803*X39390Y84176*X39548Y84331*X45105Y84176D2*X44480Y84176D1*X45263Y85580D2*X44950Y85110D1*X44635Y85580*X44323Y85110D2*X45263Y85110D1*X44480Y84803D2*X45105Y84803D1*X45263Y84646*X45263Y84331*X45105Y84176*X44480Y84803*X44323Y84646*X44323Y84331*X44480Y84176*X44635Y83238D2*X44323Y83553D1*X45263Y83553*X45263Y83238D2*X45263Y83866D1*X50350Y83238D2*X50038Y83553D1*X50978Y83553*X50978Y83866D2*X50978Y83238D1*X50820Y84176D2*X50978Y84331D1*X50978Y84646*X50820Y84803*X50195Y84803*X50820Y84176*X50195Y84176*X50038Y84331*X50038Y84646*X50195Y84803*X50978Y85110D2*X50038Y85110D1*X50978Y85580D2*X50665Y85110D1*X50350Y85580*X50350Y89906D2*X50038Y90221D1*X50978Y90221*X50978Y90533D2*X50978Y89906D1*X50820Y90843D2*X50978Y90998D1*X50978Y91313*X50820Y91470*X50195Y91470*X50820Y90843*X50195Y90843*X50038Y90998*X50038Y91313*X50195Y91470*X50978Y91778D2*X50038Y91778D1*X50978Y92248D2*X50665Y91778D1*X50350Y92248*X50322Y97041D2*X50165Y97041D1*X50165Y96413*X50635Y96106D2*X50635Y95479D1*X50165Y95948*X51105Y95948*X51105Y96413D2*X50947Y96413D1*X50322Y97041*X50947Y97351D2*X50322Y97351D1*X50165Y97506*X50165Y97820*X50322Y97978*X50947Y97978*X51105Y97820*X51105Y97506*X50947Y97351*X50322Y97978*X48349Y101003D2*X48349Y101943D1*X48036Y101630*X46792Y101788D2*X46792Y101161D1*X46634Y101003*X46164Y101003*X46164Y101943*X46634Y101943*X46792Y101788*X47102Y101630D2*X47414Y101943D1*X47414Y101003*X47727Y101003D2*X47102Y101003D1*X48664Y101003D2*X48036Y101003D1*X52507Y101788D2*X52349Y101943D1*X51880Y101943*X51880Y101003*X52349Y101003*X52507Y101161*X52507Y101788*X52817Y101630D2*X53129Y101943D1*X53129Y101003*X53442Y101003D2*X52817Y101003D1*X54379Y101788D2*X54221Y101943D1*X53909Y101943*X53751Y101788*X53751Y101161*X54221Y101003D2*X54379Y101161D1*X54379Y101788*X53751Y101161*X53909Y101003*X54221Y101003*X56037Y97041D2*X55880Y97041D1*X55880Y96413*X56350Y96106D2*X56350Y95479D1*X55880Y95948*X56820Y95948*X56820Y96413D2*X56662Y96413D1*X56037Y97041*X56662Y97351D2*X56037Y97351D1*X55880Y97506*X55880Y97820*X56037Y97978*X56662Y97978D2*X56820Y97820D1*X56820Y97506*X56662Y97351*X56037Y97978*X56662Y97978*X58539Y101161D2*X58382Y101003D1*X57912Y101003*X57912Y101943*X58382Y101943*X58539Y101788*X58539Y101161*X58849Y101161D2*X59004Y101003D1*X59319Y101003*X59474Y101473D2*X59004Y101473D1*X58849Y101630*X58849Y101788*X59004Y101943*X59319Y101943*X59474Y101788*X59474Y101161*X59319Y101003*X61752Y97041D2*X61595Y97041D1*X61595Y96413*X62065Y96106D2*X62065Y95479D1*X61595Y95948*X62535Y95948*X62535Y96413D2*X62377Y96413D1*X61752Y97041*X62377Y97351D2*X61752Y97351D1*X61595Y97506*X61595Y97820*X61752Y97978*X62377Y97978D2*X61752Y97978D1*X62377Y97351*X62535Y97506*X62535Y97820*X62377Y97978*X64254Y101161D2*X64097Y101003D1*X63627Y101003*X63627Y101943*X64097Y101943*X64254Y101788*X64254Y101161*X64719Y101473D2*X64564Y101316D1*X64564Y101161*X64719Y101003*X65034Y101003*X65189Y101161*X65189Y101316*X65034Y101473*X65189Y101788D2*X65034Y101943D1*X64719Y101943*X64564Y101788*X64564Y101630*X64719Y101473*X65034Y101473*X65189Y101630*X65189Y101788*X77749Y107376D2*X77749Y107531D1*X77125Y107531*X76815Y107061D2*X76187Y107061D1*X76657Y107531*X76657Y106591*X77125Y106591D2*X77125Y106749D1*X77749Y107376*X78687Y107376D2*X78529Y107531D1*X78217Y107531*X78059Y107376*X78059Y106749*X78217Y106591D2*X78529Y106591D1*X78687Y106749*X78687Y107376*X78059Y106749*X78217Y106591*X78262Y97978D2*X78887Y97978D1*X79045Y97820*X79045Y97506*X78887Y97351*X78262Y97978*X78105Y97820*X78105Y97506*X78262Y97351*X78887Y97351*X78887Y96413D2*X79045Y96413D1*X79045Y95948D2*X78105Y95948D1*X78575Y95479*X78105Y96413D2*X78105Y97041D1*X78262Y97041*X78887Y96413*X78575Y95479D2*X78575Y96106D1*X78290Y89906D2*X77978Y90221D1*X78918Y90221*X78918Y90533D2*X78918Y89906D1*X78290Y92248D2*X78605Y91778D1*X78918Y92248*X77978Y91778D2*X78918Y91778D1*X78135Y91470D2*X77978Y91313D1*X77978Y90998*X78135Y90843*X78760Y90843*X78918Y90998D2*X78918Y91313D1*X78760Y91470*X78135Y91470*X78760Y90843*X78918Y90998*X84475Y90843D2*X83850Y90843D1*X84633Y92248D2*X84320Y91778D1*X84005Y92248*X83693Y91778D2*X84633Y91778D1*X83850Y91470D2*X84475Y91470D1*X84633Y91313*X84633Y90998*X84475Y90843*X83850Y91470*X83693Y91313*X83693Y90998*X83850Y90843*X84005Y89906D2*X83693Y90221D1*X84633Y90221*X84633Y89906D2*X84633Y90533D1*X89720Y89906D2*X89408Y90221D1*X90348Y90221*X90348Y90533D2*X90348Y89906D1*X90190Y90843D2*X89565Y90843D1*X89408Y90998*X89408Y91313*X89565Y91470*X90190Y91470*X90348Y91313*X90348Y90998*X90190Y90843*X89565Y91470*X90348Y91778D2*X89408Y91778D1*X90348Y92248D2*X90035Y91778D1*X89720Y92248*X89692Y97041D2*X89535Y97041D1*X89535Y96413*X90005Y96106D2*X90005Y95479D1*X89535Y95948*X90475Y95948*X90475Y96413D2*X90317Y96413D1*X89692Y97041*X90317Y97351D2*X89692Y97351D1*X89535Y97506*X89535Y97820*X89692Y97978*X90317Y97978D2*X90475Y97820D1*X90475Y97506*X90317Y97351*X89692Y97978*X90317Y97978*X92499Y101943D2*X92187Y101630D1*X93121Y101003D2*X93749Y101003D1*X92499Y101943D2*X92499Y101003D1*X93121Y101788D2*X93279Y101943D1*X93591Y101943*X93749Y101788*X93749Y101630*X93121Y101003*X92187Y101003D2*X92812Y101003D1*X91250Y101003D2*X91250Y101943D1*X91719Y101943*X91877Y101788*X91877Y101161*X91719Y101003*X91250Y101003*X87719Y101473D2*X87876Y101473D1*X87406Y101161D2*X87564Y101003D1*X87876Y101003*X88034Y101161*X88034Y101316*X87876Y101473*X88034Y101630*X88034Y101788*X87876Y101943*X87564Y101943*X87406Y101788*X86472Y101630D2*X86784Y101943D1*X86784Y101003*X86472Y101003D2*X87097Y101003D1*X85534Y101003D2*X85534Y101943D1*X86004Y101943*X86162Y101788*X86162Y101161*X86004Y101003*X85534Y101003*X83977Y97041D2*X83820Y97041D1*X83820Y96413*X84290Y96106D2*X84290Y95479D1*X83820Y95948*X84760Y95948*X84760Y96413D2*X84602Y96413D1*X83977Y97041*X84602Y97351D2*X83977Y97351D1*X83820Y97506*X83820Y97820*X83977Y97978*X84602Y97978*X84760Y97820*X84760Y97506*X84602Y97351*X83977Y97978*X81691Y101473D2*X82161Y101943D1*X82161Y101003*X81691Y101473D2*X82319Y101473D1*X80757Y101003D2*X81382Y101003D1*X81069Y101003D2*X81069Y101943D1*X80757Y101630*X79820Y101943D2*X80289Y101943D1*X80447Y101788*X80447Y101161*X80289Y101003*X79820Y101003*X79820Y101943*X76604Y101943D2*X75976Y101943D1*X75976Y101473*X75976Y101161D2*X76134Y101003D1*X76446Y101003*X76604Y101161*X76604Y101473*X76446Y101630*X76289Y101630*X75976Y101473*X75042Y101630D2*X75354Y101943D1*X75354Y101003*X75042Y101003D2*X75667Y101003D1*X74104Y101003D2*X74104Y101943D1*X74574Y101943*X74732Y101788*X74732Y101161*X74574Y101003*X74104Y101003*X72547Y97351D2*X73172Y97351D1*X72547Y97978D2*X73172Y97978D1*X73330Y97820*X73330Y97506*X73172Y97351*X72547Y97978*X72390Y97820*X72390Y97506*X72547Y97351*X72860Y96106D2*X72860Y95479D1*X72390Y96413D2*X72390Y97041D1*X72547Y97041*X73172Y96413*X73330Y96413*X73330Y95948D2*X72390Y95948D1*X72860Y95479*X73203Y92248D2*X72890Y91778D1*X72575Y92248*X72263Y91778D2*X73203Y91778D1*X72420Y91470D2*X72263Y91313D1*X72263Y90998*X72420Y90843*X73045Y90843*X73203Y90998*X73203Y91313*X73045Y91470*X72420Y91470*X73045Y90843*X73203Y90533D2*X73203Y89906D1*X73203Y90221D2*X72263Y90221D1*X72575Y89906*X72575Y83238D2*X72263Y83553D1*X73203Y83553*X73203Y83866D2*X73203Y83238D1*X73203Y85580D2*X72890Y85110D1*X72575Y85580*X72263Y85110D2*X73203Y85110D1*X72420Y84803D2*X72263Y84646D1*X72263Y84331*X72420Y84176*X73045Y84176*X73203Y84331D2*X73203Y84646D1*X73045Y84803*X72420Y84803*X73045Y84176*X73203Y84331*X78760Y84176D2*X78135Y84176D1*X78918Y85580D2*X78605Y85110D1*X78290Y85580*X77978Y85110D2*X78918Y85110D1*X78135Y84803D2*X78760Y84803D1*X78918Y84646*X78918Y84331*X78760Y84176*X78135Y84803*X77978Y84646*X77978Y84331*X78135Y84176*X78290Y83238D2*X77978Y83553D1*X78918Y83553*X78918Y83238D2*X78918Y83866D1*X84005Y83238D2*X83693Y83553D1*X84633Y83553*X84633Y83866D2*X84633Y83238D1*X84633Y85580D2*X84320Y85110D1*X84005Y85580*X83693Y85110D2*X84633Y85110D1*X83850Y84803D2*X83693Y84646D1*X83693Y84331*X83850Y84176*X84475Y84176*X84633Y84331D2*X84633Y84646D1*X84475Y84803*X83850Y84803*X84475Y84176*X84633Y84331*X90190Y84176D2*X89565Y84176D1*X90348Y85580D2*X90035Y85110D1*X89720Y85580*X89408Y85110D2*X90348Y85110D1*X89565Y84803D2*X90190Y84803D1*X90348Y84646*X90348Y84331*X90190Y84176*X89565Y84803*X89408Y84646*X89408Y84331*X89565Y84176*X89720Y83238D2*X89408Y83553D1*X90348Y83553*X90348Y83238D2*X90348Y83866D1*X95435Y83238D2*X95123Y83553D1*X96063Y83553*X96063Y83866D2*X96063Y83238D1*X96063Y85580D2*X95750Y85110D1*X95435Y85580*X95123Y85110D2*X96063Y85110D1*X95280Y84803D2*X95123Y84646D1*X95123Y84331*X95280Y84176*X95905Y84176*X96063Y84331D2*X96063Y84646D1*X95905Y84803*X95280Y84803*X95905Y84176*X96063Y84331*X101620Y84176D2*X100995Y84176D1*X101778Y85580D2*X101465Y85110D1*X101150Y85580*X100838Y85110D2*X101778Y85110D1*X100995Y84803D2*X101620Y84803D1*X101778Y84646*X101778Y84331*X101620Y84176*X100995Y84803*X100838Y84646*X100838Y84331*X100995Y84176*X101150Y83238D2*X100838Y83553D1*X101778Y83553*X101778Y83238D2*X101778Y83866D1*X112580Y83238D2*X112268Y83553D1*X113208Y83553*X113208Y83866D2*X113208Y83238D1*X113050Y84176D2*X112425Y84176D1*X112268Y84331*X112268Y84646*X112425Y84803*X113050Y84803*X113208Y84646*X113208Y84331*X113050Y84176*X112425Y84803*X113208Y85110D2*X112268Y85110D1*X113208Y85580D2*X112895Y85110D1*X112580Y85580*X112580Y89906D2*X112268Y90221D1*X113208Y90221*X113208Y90533D2*X113208Y89906D1*X113050Y90843D2*X112425Y90843D1*X112268Y90998*X112268Y91313*X112425Y91470*X113050Y91470D2*X113208Y91313D1*X113208Y90998*X113050Y90843*X112425Y91470*X113050Y91470*X112268Y91778D2*X113208Y91778D1*X112580Y92248D2*X112895Y91778D1*X113208Y92248*X115834Y101473D2*X115989Y101630D1*X115989Y101788*X115834Y101943*X115519Y101943*X115364Y101788*X115364Y101630*X115519Y101473*X115364Y101161D2*X115519Y101003D1*X115834Y101003*X115989Y101161*X115989Y101316*X115834Y101473*X115519Y101473*X115364Y101316*X115364Y101161*X114427Y101003D2*X114427Y101943D1*X114897Y101943*X115054Y101788*X115054Y101161*X114897Y101003*X114427Y101003*X112552Y97041D2*X112395Y97041D1*X112395Y96413*X112865Y96106D2*X112865Y95479D1*X112395Y95948*X113335Y95948*X113335Y96413D2*X113177Y96413D1*X112552Y97041*X113177Y97351D2*X112552Y97351D1*X112395Y97506*X112395Y97820*X112552Y97978*X113177Y97978*X113335Y97820*X113335Y97506*X113177Y97351*X112552Y97978*X110274Y101473D2*X109804Y101473D1*X109649Y101630*X109649Y101788*X109804Y101943*X110119Y101943*X110274Y101788*X110274Y101161*X110119Y101003*X109804Y101003*X109649Y101161*X108712Y101003D2*X108712Y101943D1*X109182Y101943*X109339Y101788*X109339Y101161*X109182Y101003*X108712Y101003*X106837Y97351D2*X107462Y97351D1*X106837Y97978D2*X107462Y97978D1*X107620Y97820*X107620Y97506*X107462Y97351*X106837Y97978*X106680Y97820*X106680Y97506*X106837Y97351*X107620Y95948D2*X106680Y95948D1*X107150Y95479*X106680Y96413D2*X106680Y97041D1*X106837Y97041*X107462Y96413*X107620Y96413*X107150Y95479D2*X107150Y96106D1*X107335Y90843D2*X106710Y90843D1*X107493Y92248D2*X107180Y91778D1*X106865Y92248*X106553Y91778D2*X107493Y91778D1*X106710Y91470D2*X107335Y91470D1*X107493Y91313*X107493Y90998*X107335Y90843*X106710Y91470*X106553Y91313*X106553Y90998*X106710Y90843*X106865Y89906D2*X106553Y90221D1*X107493Y90221*X107493Y89906D2*X107493Y90533D1*X107493Y85580D2*X107180Y85110D1*X106865Y85580*X106553Y85110D2*X107493Y85110D1*X106710Y84803D2*X106553Y84646D1*X106553Y84331*X106710Y84176*X107335Y84176*X107493Y84331*X107493Y84646*X107335Y84803*X106710Y84803*X107335Y84176*X107493Y83866D2*X107493Y83238D1*X107493Y83553D2*X106553Y83553D1*X106865Y83238*X106865Y62601D2*X106553Y62916D1*X107493Y62916*X107493Y63228D2*X107493Y62601D1*X107335Y63538D2*X106710Y63538D1*X106553Y63693*X106553Y64008*X106710Y64165*X107335Y64165D2*X106710Y64165D1*X107335Y63538*X107493Y63693*X107493Y64008*X107335Y64165*X107493Y64943D2*X107180Y64473D1*X106865Y64943*X106553Y64473D2*X107493Y64473D1*X101778Y64943D2*X101465Y64473D1*X101150Y64943*X100838Y64473D2*X101778Y64473D1*X100995Y64165D2*X101620Y64165D1*X101778Y64008*X101778Y63693*X101620Y63538*X100995Y64165*X100838Y64008*X100838Y63693*X100995Y63538*X101620Y63538*X101778Y63228D2*X101778Y62601D1*X101778Y62916D2*X100838Y62916D1*X101150Y62601*X95435Y62601D2*X95123Y62916D1*X96063Y62916*X96063Y63228D2*X96063Y62601D1*X95905Y63538D2*X96063Y63693D1*X96063Y64008*X95905Y64165*X95280Y64165*X95905Y63538*X95280Y63538*X95123Y63693*X95123Y64008*X95280Y64165*X96063Y64473D2*X95123Y64473D1*X96063Y64943D2*X95750Y64473D1*X95435Y64943*X95407Y69736D2*X95250Y69736D1*X95250Y69108*X95720Y68801D2*X95720Y68174D1*X95250Y68644*X96190Y68644*X96190Y69108D2*X96032Y69108D1*X95407Y69736*X96032Y70046D2*X95407Y70046D1*X95250Y70201*X95250Y70515*X95407Y70673*X96032Y70673D2*X95407Y70673D1*X96032Y70046*X96190Y70201*X96190Y70515*X96032Y70673*X98537Y74483D2*X98692Y74638D1*X99007Y74638*X99162Y74483*X99162Y74325*X99007Y74168*X99007Y73698D2*X99162Y73856D1*X99162Y74011*X99007Y74168*X98849Y74168*X98227Y73856D2*X98069Y73698D1*X97600Y73698*X97600Y74638*X98069Y74638*X98227Y74483*X98227Y73856*X98537Y73856D2*X98692Y73698D1*X99007Y73698*X101122Y69736D2*X100965Y69736D1*X100965Y69108*X101435Y68801D2*X101435Y68174D1*X100965Y68644*X101905Y68644*X101905Y69108D2*X101747Y69108D1*X101122Y69736*X101747Y70046D2*X101122Y70046D1*X100965Y70201*X100965Y70515*X101122Y70673*X101747Y70673D2*X101905Y70515D1*X101905Y70201*X101747Y70046*X101122Y70673*X101747Y70673*X103942Y74483D2*X103942Y73856D1*X103784Y73698*X103314Y73698*X103314Y74638*X103784Y74638*X103942Y74483*X104252Y74483D2*X104407Y74638D1*X104722Y74638*X104877Y74483*X104877Y74325*X104252Y73698*X104877Y73698*X106837Y69736D2*X106680Y69736D1*X106680Y69108*X107150Y68801D2*X107150Y68174D1*X106680Y68644*X107620Y68644*X107620Y69108D2*X107462Y69108D1*X106837Y69736*X107462Y70046D2*X106837Y70046D1*X106680Y70201*X106680Y70515*X106837Y70673*X107462Y70673D2*X106837Y70673D1*X107462Y70046*X107620Y70201*X107620Y70515*X107462Y70673*X109657Y74483D2*X109657Y73856D1*X109499Y73698*X109030Y73698*X109030Y74638*X109499Y74638*X109657Y74483*X109967Y74325D2*X110279Y74638D1*X110279Y73698*X110592Y73698D2*X109967Y73698D1*X116307Y74483D2*X116152Y74638D1*X115837Y74638*X115682Y74483*X115682Y73856*X115837Y73698*X116152Y73698*X116307Y73856*X116307Y74483*X115682Y73856*X114744Y73698D2*X114744Y74638D1*X115214Y74638*X115372Y74483*X115372Y73856*X115214Y73698*X114744Y73698*X112552Y70046D2*X113177Y70046D1*X112552Y70673D2*X113177Y70673D1*X113335Y70515*X113335Y70201*X113177Y70046*X112552Y70673*X112395Y70515*X112395Y70201*X112552Y70046*X112865Y68801D2*X112865Y68174D1*X112395Y69108D2*X112395Y69736D1*X112552Y69736*X113177Y69108*X113335Y69108*X113335Y68644D2*X112395Y68644D1*X112865Y68174*X113208Y64943D2*X112895Y64473D1*X112580Y64943*X112268Y64473D2*X113208Y64473D1*X112425Y64165D2*X113050Y64165D1*X113208Y64008*X113208Y63693*X113050Y63538*X112425Y64165*X112268Y64008*X112268Y63693*X112425Y63538*X113050Y63538*X113208Y63228D2*X113208Y62601D1*X113208Y62916D2*X112268Y62916D1*X112580Y62601*X112580Y55933D2*X112268Y56248D1*X113208Y56561D2*X113208Y55933D1*X112268Y56248D2*X113208Y56248D1*X112268Y57026D2*X112425Y56871D1*X113050Y56871*X113208Y58275D2*X112895Y57805D1*X112580Y58275*X112268Y57805D2*X113208Y57805D1*X112425Y57498D2*X113050Y57498D1*X113208Y57340*X113208Y57026*X113050Y56871*X112425Y57498*X112268Y57340*X112268Y57026*X107335Y56871D2*X106710Y56871D1*X107493Y58275D2*X107180Y57805D1*X106865Y58275*X106553Y57805D2*X107493Y57805D1*X106710Y57498D2*X107335Y57498D1*X107493Y57340*X107493Y57026*X107335Y56871*X106710Y57498*X106553Y57340*X106553Y57026*X106710Y56871*X106865Y55933D2*X106553Y56248D1*X107493Y56561D2*X107493Y55933D1*X106553Y56248D2*X107493Y56248D1*X101150Y55933D2*X100838Y56248D1*X101778Y56561D2*X101778Y55933D1*X100838Y56248D2*X101778Y56248D1*X100838Y57026D2*X100995Y56871D1*X101620Y56871*X101778Y58275D2*X101465Y57805D1*X101150Y58275*X100838Y57805D2*X101778Y57805D1*X100995Y57498D2*X101620Y57498D1*X101778Y57340*X101778Y57026*X101620Y56871*X100995Y57498*X100838Y57340*X100838Y57026*X95905Y56871D2*X95280Y56871D1*X96063Y58275D2*X95750Y57805D1*X95435Y58275*X95123Y57805D2*X96063Y57805D1*X95280Y57498D2*X95905Y57498D1*X96063Y57340*X96063Y57026*X95905Y56871*X95280Y57498*X95123Y57340*X95123Y57026*X95280Y56871*X95435Y55933D2*X95123Y56248D1*X96063Y56561D2*X96063Y55933D1*X95123Y56248D2*X96063Y56248D1*X89720Y55933D2*X89408Y56248D1*X90348Y56248*X90348Y56561D2*X90348Y55933D1*X90190Y56871D2*X89565Y56871D1*X89408Y57026*X89408Y57340*X89565Y57498*X90190Y57498*X90348Y57340*X90348Y57026*X90190Y56871*X89565Y57498*X90348Y57805D2*X89408Y57805D1*X90348Y58275D2*X90035Y57805D1*X89720Y58275*X89720Y62601D2*X89408Y62916D1*X90348Y62916*X90348Y63228D2*X90348Y62601D1*X90190Y63538D2*X89565Y63538D1*X89408Y63693*X89408Y64008*X89565Y64165*X90190Y64165*X90348Y64008*X90348Y63693*X90190Y63538*X89565Y64165*X90348Y64473D2*X89408Y64473D1*X90348Y64943D2*X90035Y64473D1*X89720Y64943*X89692Y69736D2*X89535Y69736D1*X89535Y69108*X90005Y68801D2*X90005Y68174D1*X89535Y68644*X90475Y68644*X90475Y69108D2*X90317Y69108D1*X89692Y69736*X90317Y70046D2*X89692Y70046D1*X89535Y70201*X89535Y70515*X89692Y70673*X90317Y70673D2*X90475Y70515D1*X90475Y70201*X90317Y70046*X89692Y70673*X90317Y70673*X92822Y74168D2*X93292Y74638D1*X93292Y73698*X92822Y74168D2*X93447Y74168D1*X91884Y74638D2*X92354Y74638D1*X92512Y74483*X92512Y73856*X92354Y73698*X91884Y73698*X91884Y74638*X87107Y74638D2*X87732Y74638D1*X87107Y73856D2*X87262Y73698D1*X87577Y73698*X87732Y73856*X87732Y74168*X87577Y74325*X87419Y74325*X87107Y74168*X87107Y74638*X86170Y74638D2*X86639Y74638D1*X86797Y74483*X86797Y73856*X86639Y73698*X86170Y73698*X86170Y74638*X82017Y74638D2*X81704Y74483D1*X81392Y74168*X81392Y73856D2*X81547Y73698D1*X81862Y73698*X82017Y73856*X82017Y74011*X81862Y74168*X81392Y74168*X81392Y73856*X80454Y73698D2*X80454Y74638D1*X80924Y74638*X81082Y74483*X81082Y73856*X80924Y73698*X80454Y73698*X78262Y69736D2*X78105Y69736D1*X78105Y69108*X78575Y68801D2*X78575Y68174D1*X78105Y68644*X79045Y68644*X79045Y69108D2*X78887Y69108D1*X78262Y69736*X78887Y70046D2*X78262Y70046D1*X78105Y70201*X78105Y70515*X78262Y70673*X78887Y70673*X79045Y70515*X79045Y70201*X78887Y70046*X78262Y70673*X75677Y74638D2*X76302Y74638D1*X76302Y74483*X75677Y73856*X75677Y73698*X74740Y73698D2*X74740Y74638D1*X75209Y74638*X75367Y74483*X75367Y73856*X75209Y73698*X74740Y73698*X72547Y70046D2*X73172Y70046D1*X72547Y70673D2*X73172Y70673D1*X73330Y70515*X73330Y70201*X73172Y70046*X72547Y70673*X72390Y70515*X72390Y70201*X72547Y70046*X72860Y68801D2*X72860Y68174D1*X72390Y69108D2*X72390Y69736D1*X72547Y69736*X73172Y69108*X73330Y69108*X73330Y68644D2*X72390Y68644D1*X72860Y68174*X73203Y64943D2*X72890Y64473D1*X72575Y64943*X72263Y64473D2*X73203Y64473D1*X72420Y64165D2*X73045Y64165D1*X73203Y64008*X73203Y63693*X73045Y63538*X72420Y64165*X72263Y64008*X72263Y63693*X72420Y63538*X73045Y63538*X73203Y63228D2*X73203Y62601D1*X73203Y62916D2*X72263Y62916D1*X72575Y62601*X73045Y56871D2*X72420Y56871D1*X73203Y58275D2*X72890Y57805D1*X72575Y58275*X72263Y57805D2*X73203Y57805D1*X72420Y57498D2*X73045Y57498D1*X73203Y57340*X73203Y57026*X73045Y56871*X72420Y57498*X72263Y57340*X72263Y57026*X72420Y56871*X72575Y55933D2*X72263Y56248D1*X73203Y56248*X73203Y55933D2*X73203Y56561D1*X78290Y55933D2*X77978Y56248D1*X78918Y56248*X78918Y56561D2*X78918Y55933D1*X78290Y58275D2*X78605Y57805D1*X78918Y58275*X77978Y57805D2*X78918Y57805D1*X78135Y57498D2*X77978Y57340D1*X77978Y57026*X78135Y56871*X78760Y56871*X78918Y57026D2*X78918Y57340D1*X78760Y57498*X78135Y57498*X78760Y56871*X78918Y57026*X84475Y56871D2*X83850Y56871D1*X84633Y58275D2*X84320Y57805D1*X84005Y58275*X83693Y57805D2*X84633Y57805D1*X83850Y57498D2*X84475Y57498D1*X84633Y57340*X84633Y57026*X84475Y56871*X83850Y57498*X83693Y57340*X83693Y57026*X83850Y56871*X84005Y55933D2*X83693Y56248D1*X84633Y56248*X84633Y55933D2*X84633Y56561D1*X86479Y30668D2*X86479Y30041D1*X86322Y29883*X85852Y29883*X85852Y30823*X86322Y30823*X86479Y30668*X86789Y30510D2*X87102Y30823D1*X86789Y29883D2*X87414Y29883D1*X87102Y30823D2*X87102Y29883D1*X88527Y34193D2*X88057Y33879D1*X88527Y33566*X88057Y34506D2*X88057Y33566D1*X86345Y35502D2*X86345Y36129D1*X86187Y34193D2*X86500Y34506D1*X86500Y33566*X86815Y33566D2*X86187Y33566D1*X87122Y33724D2*X87122Y34351D1*X87279Y34506*X87592Y34506*X87749Y34351D2*X87749Y33724D1*X87592Y33566*X87279Y33566*X87122Y33724*X87749Y34351*X87592Y34506*X87749Y35344D2*X87279Y35657D1*X87749Y35971*X87279Y36284D2*X87279Y35344D1*X86970Y36129D2*X86970Y35502D1*X86815Y35344*X86500Y35344*X86345Y35502*X86970Y36129*X86815Y36284*X86500Y36284*X86345Y36129*X85408Y35971D2*X85722Y36284D1*X85722Y35344*X85408Y35344D2*X86035Y35344D1*X78567Y33566D2*X79195Y33566D1*X78880Y33566D2*X78880Y34506D1*X78567Y34193*X77788Y35971D2*X78102Y36284D1*X78102Y35344*X78415Y35344D2*X77788Y35344D1*X79350Y36129D2*X79195Y36284D1*X78880Y36284*X78725Y36129*X78725Y35502*X79350Y35502D2*X79350Y36129D1*X78725Y35502*X78880Y35344*X79195Y35344*X79350Y35502*X79659Y36284D2*X79659Y35344D1*X80129Y35971D2*X79659Y35657D1*X80129Y35344*X80907Y34193D2*X80437Y33879D1*X80907Y33566*X80437Y34506D2*X80437Y33566D1*X80129Y34351D2*X79972Y34506D1*X79659Y34506*X79502Y34351*X79502Y33724*X79659Y33566D2*X79972Y33566D1*X80129Y33724*X80129Y34351*X79502Y33724*X79659Y33566*X79794Y29883D2*X79169Y29883D1*X79794Y30510*X79794Y30668*X79639Y30823*X79324Y30823*X79169Y30668*X78232Y30823D2*X78702Y30823D1*X78859Y30668*X78859Y30041*X78702Y29883*X78232Y29883*X78232Y30823*X71549Y30668D2*X71704Y30823D1*X72019Y30823*X71862Y30353D2*X72019Y30353D1*X71239Y30041D2*X71082Y29883D1*X70612Y29883*X70612Y30823*X71082Y30823*X71239Y30668*X71239Y30041*X71549Y30041D2*X71704Y29883D1*X72019Y29883*X72174Y30041*X72174Y30196*X72019Y30353*X72174Y30510*X72174Y30668*X72019Y30823*X73287Y34193D2*X72817Y33879D1*X73287Y33566*X72817Y34506D2*X72817Y33566D1*X70947Y34193D2*X71260Y34506D1*X71260Y33566*X71575Y33566D2*X70947Y33566D1*X71882Y33724D2*X71882Y34351D1*X72039Y34506*X72352Y34506*X72509Y34351D2*X72509Y33724D1*X72352Y33566*X72039Y33566*X71882Y33724*X72509Y34351*X72352Y34506*X72509Y35344D2*X72039Y35657D1*X72509Y35971*X72039Y36284D2*X72039Y35344D1*X71730Y36129D2*X71575Y36284D1*X71260Y36284*X71105Y36129*X71105Y35502*X71260Y35344*X71575Y35344*X71730Y35502*X71730Y36129*X71105Y35502*X70795Y35344D2*X70168Y35344D1*X70482Y35344D2*X70482Y36284D1*X70168Y35971*X62548Y35971D2*X62862Y36284D1*X62862Y35344*X63175Y35344D2*X62548Y35344D1*X64110Y36129D2*X63955Y36284D1*X63640Y36284*X63485Y36129*X63485Y35502*X64110Y35502D2*X64110Y36129D1*X63485Y35502*X63640Y35344*X63955Y35344*X64110Y35502*X64419Y36284D2*X64419Y35344D1*X64889Y35971D2*X64419Y35657D1*X64889Y35344*X65667Y34193D2*X65197Y33879D1*X65667Y33566*X65197Y34506D2*X65197Y33566D1*X64889Y34351D2*X64732Y34506D1*X64419Y34506*X64262Y34351*X64262Y33724D2*X64419Y33566D1*X64732Y33566*X64889Y33724*X64889Y34351*X64262Y33724*X64262Y34351*X63327Y34193D2*X63640Y34506D1*X63640Y33566*X63955Y33566D2*X63327Y33566D1*X63929Y30353D2*X64399Y30823D1*X64399Y29883*X63929Y30353D2*X64554Y30353D1*X62992Y29883D2*X62992Y30823D1*X63462Y30823*X63619Y30668*X63619Y30041*X63462Y29883*X62992Y29883*X62217Y24194D2*X61278Y24194D1*X61435Y25596D2*X62060Y25596D1*X61435Y26223D2*X62060Y26223D1*X62217Y26065*X62217Y25751*X62060Y25596*X61435Y26223*X61278Y26065*X61278Y25751*X61435Y25596*X61278Y25286D2*X61435Y25286D1*X62060Y24658*X62217Y24658*X61747Y24351D2*X61747Y23724D1*X61278Y24194*X61278Y25286D2*X61278Y24658D1*X53815Y25286D2*X53658Y25286D1*X53658Y24658*X54127Y24351D2*X54127Y23724D1*X53658Y24194*X54597Y24194*X54597Y24658D2*X54440Y24658D1*X53815Y25286*X54440Y25596D2*X53815Y25596D1*X53658Y25751*X53658Y26065*X53815Y26223*X54440Y26223D2*X54597Y26065D1*X54597Y25751*X54440Y25596*X53815Y26223*X54440Y26223*X55999Y30041D2*X55842Y29883D1*X55372Y29883*X55372Y30823*X55842Y30823*X55999Y30668*X55999Y30041*X56309Y30041D2*X56464Y29883D1*X56779Y29883*X56934Y30041*X56934Y30353*X56779Y30510*X56622Y30510*X56309Y30353*X56309Y30823*X56934Y30823*X58047Y33566D2*X57577Y33879D1*X58047Y34193*X57577Y34506D2*X57577Y33566D1*X55707Y34193D2*X56020Y34506D1*X56020Y33566*X56335Y33566D2*X55707Y33566D1*X56642Y33724D2*X56642Y34351D1*X56799Y34506*X57112Y34506*X57269Y34351D2*X57269Y33724D1*X57112Y33566*X56799Y33566*X56642Y33724*X57269Y34351*X57112Y34506*X57269Y35344D2*X56799Y35657D1*X57269Y35971*X56799Y36284D2*X56799Y35344D1*X56490Y36129D2*X56335Y36284D1*X56020Y36284*X55865Y36129*X55865Y35502*X56020Y35344*X56335Y35344*X56490Y35502*X56490Y36129*X55865Y35502*X55555Y35344D2*X54928Y35344D1*X55242Y35344D2*X55242Y36284D1*X54928Y35971*X53815Y40208D2*X53658Y40208D1*X53658Y39581*X54127Y39273D2*X54127Y38646D1*X53658Y39116*X54597Y39116*X54597Y39581D2*X54440Y39581D1*X53815Y40208*X54440Y40518D2*X53815Y40518D1*X53658Y40673*X53658Y40988*X53815Y41145*X54440Y41145D2*X54597Y40988D1*X54597Y40673*X54440Y40518*X53815Y41145*X54440Y41145*X58031Y45593D2*X57874Y45593D1*X58031Y45123D2*X58189Y45281D1*X58189Y45436*X58031Y45593*X58189Y45750*X58189Y45908*X58031Y46063*X57719Y46063*X57561Y45908*X56317Y45908D2*X56317Y45281D1*X56159Y45123*X55690Y45123*X55690Y46063*X56159Y46063*X56317Y45908*X56627Y45750D2*X56939Y46063D1*X56939Y45123*X57252Y45123D2*X56627Y45123D1*X57561Y45281D2*X57719Y45123D1*X58031Y45123*X61435Y40208D2*X61278Y40208D1*X61278Y39581*X61747Y39273D2*X61747Y38646D1*X61278Y39116*X62217Y39116*X62217Y39581D2*X62060Y39581D1*X61435Y40208*X62060Y40518D2*X61435Y40518D1*X61278Y40673*X61278Y40988*X61435Y41145*X62060Y41145D2*X61435Y41145D1*X62060Y40518*X62217Y40673*X62217Y40988*X62060Y41145*X63619Y45908D2*X63619Y45281D1*X63462Y45123*X62992Y45123*X62992Y46063*X63462Y46063*X63619Y45908*X63929Y45750D2*X64242Y46063D1*X63929Y45123D2*X64554Y45123D1*X64242Y46063D2*X64242Y45123D1*X64864Y45908D2*X65021Y46063D1*X65334Y46063*X65491Y45908*X65491Y45750*X64864Y45123*X65491Y45123*X69055Y40208D2*X68898Y40208D1*X68898Y39581*X69367Y39273D2*X69367Y38646D1*X68898Y39116*X69837Y39116*X69837Y39581D2*X69680Y39581D1*X69055Y40208*X69680Y40518D2*X69055Y40518D1*X68898Y40673*X68898Y40988*X69055Y41145*X69680Y41145D2*X69055Y41145D1*X69680Y40518*X69837Y40673*X69837Y40988*X69680Y41145*X73114Y45123D2*X73114Y46063D1*X72801Y45750*X71557Y45908D2*X71557Y45281D1*X71399Y45123*X70930Y45123*X70930Y46063*X71399Y46063*X71557Y45908*X71867Y45750D2*X72179Y46063D1*X72179Y45123*X72492Y45123D2*X71867Y45123D1*X73429Y45123D2*X72801Y45123D1*X76675Y40208D2*X76518Y40208D1*X76518Y39581*X76987Y39273D2*X76987Y38646D1*X76518Y39116*X77457Y39116*X77457Y39581D2*X77300Y39581D1*X76675Y40208*X77300Y40518D2*X76675Y40518D1*X76518Y40673*X76518Y40988*X76675Y41145*X77300Y41145D2*X76675Y41145D1*X77300Y40518*X77457Y40673*X77457Y40988*X77300Y41145*X78859Y45908D2*X78859Y45281D1*X78702Y45123*X78232Y45123*X78232Y46063*X78702Y46063*X78859Y45908*X79169Y45750D2*X79482Y46063D1*X79482Y45123*X79794Y45123D2*X79169Y45123D1*X80731Y45908D2*X80574Y46063D1*X80261Y46063*X80104Y45908*X80104Y45281*X80574Y45123D2*X80731Y45281D1*X80731Y45908*X80104Y45281*X80261Y45123*X80574Y45123*X84295Y40208D2*X84138Y40208D1*X84138Y39581*X84607Y39273D2*X84607Y38646D1*X84138Y39116*X85077Y39116*X85077Y39581D2*X84920Y39581D1*X84295Y40208*X84920Y40518D2*X84295Y40518D1*X84138Y40673*X84138Y40988*X84295Y41145*X84920Y41145D2*X84295Y41145D1*X84920Y40518*X85077Y40673*X85077Y40988*X84920Y41145*X86479Y45281D2*X86322Y45123D1*X85852Y45123*X85852Y46063*X86322Y46063*X86479Y45908*X86479Y45281*X86789Y45281D2*X86944Y45123D1*X87259Y45123*X87414Y45281*X87414Y45908*X87259Y46063*X86944Y46063*X86789Y45908*X86789Y45750*X86944Y45593*X87414Y45593*X94879Y45593D2*X95034Y45750D1*X95034Y45908*X94879Y46063*X94564Y46063*X94409Y45908*X94409Y45750*X94564Y45593*X94409Y45281D2*X94564Y45123D1*X94879Y45123*X95034Y45281*X95034Y45436*X94879Y45593*X94564Y45593*X94409Y45436*X94409Y45281*X93472Y45123D2*X93472Y46063D1*X93942Y46063*X94099Y45908*X94099Y45281*X93942Y45123*X93472Y45123*X91915Y40518D2*X92540Y40518D1*X91915Y41145D2*X92540Y41145D1*X92697Y40988*X92697Y40673*X92540Y40518*X91915Y41145*X91758Y40988*X91758Y40673*X91915Y40518*X92697Y39116D2*X91758Y39116D1*X92227Y38646*X91758Y39581D2*X91758Y40208D1*X91915Y40208*X92540Y39581*X92697Y39581*X92227Y38646D2*X92227Y39273D1*X93028Y35971D2*X93342Y36284D1*X93342Y35344*X93655Y35344D2*X93028Y35344D1*X94590Y36129D2*X94435Y36284D1*X94120Y36284*X93965Y36129*X93965Y35502*X94590Y35502D2*X94590Y36129D1*X93965Y35502*X94120Y35344*X94435Y35344*X94590Y35502*X94899Y36284D2*X94899Y35344D1*X95369Y35971D2*X94899Y35657D1*X95369Y35344*X96147Y34193D2*X95677Y33879D1*X96147Y33566*X95677Y34506D2*X95677Y33566D1*X95369Y34351D2*X95212Y34506D1*X94899Y34506*X94742Y34351*X94742Y33724*X94899Y33566*X95212Y33566*X95369Y33724*X95369Y34351*X94742Y33724*X93807Y33566D2*X94435Y33566D1*X93807Y34193D2*X94120Y34506D1*X94120Y33566*X94099Y30668D2*X94099Y30041D1*X93942Y29883*X93472Y29883*X93472Y30823*X93942Y30823*X94099Y30668*X95034Y30668D2*X94879Y30823D1*X94564Y30823*X94409Y30668*X94409Y30041*X94879Y29883D2*X95034Y30041D1*X95034Y30668*X94409Y30041*X94564Y29883*X94879Y29883*X96147Y19271D2*X95677Y18956D1*X96147Y18644*X95677Y19583D2*X95677Y18644D1*X95212Y19583D2*X95369Y19428D1*X93965Y20579D2*X93965Y21206D1*X93807Y19271D2*X94120Y19583D1*X94120Y18644*X94435Y18644D2*X93807Y18644D1*X94742Y18801D2*X94899Y18644D1*X95212Y18644*X95369Y18801*X95369Y19428*X94742Y18801*X94742Y19428*X94899Y19583*X95212Y19583*X95369Y20422D2*X94899Y20734D1*X95369Y21049*X94899Y21361D2*X94899Y20422D1*X94590Y21206D2*X94590Y20579D1*X94435Y20422*X94120Y20422*X93965Y20579*X94590Y21206*X94435Y21361*X94120Y21361*X93965Y21206*X93028Y21049D2*X93342Y21361D1*X93655Y20422D2*X93028Y20422D1*X93342Y21361D2*X93342Y20422D1*X91915Y25596D2*X92540Y25596D1*X91915Y26223D2*X92540Y26223D1*X92697Y26065*X92697Y25751*X92540Y25596*X91915Y26223*X91758Y26065*X91758Y25751*X91915Y25596*X92697Y24194D2*X91758Y24194D1*X92227Y23724*X91758Y24658D2*X91758Y25286D1*X91915Y25286*X92540Y24658*X92697Y24658*X92227Y23724D2*X92227Y24351D1*X88527Y19271D2*X88057Y18956D1*X88527Y18644*X88057Y19583D2*X88057Y18644D1*X86345Y20579D2*X86345Y21206D1*X86187Y19271D2*X86500Y19583D1*X86500Y18644*X86815Y18644D2*X86187Y18644D1*X87122Y18801D2*X87122Y19428D1*X87279Y19583*X87592Y19583*X87749Y19428D2*X87749Y18801D1*X87592Y18644*X87279Y18644*X87122Y18801*X87749Y19428*X87592Y19583*X87749Y20422D2*X87279Y20734D1*X87749Y21049*X87279Y21361D2*X87279Y20422D1*X86970Y21206D2*X86970Y20579D1*X86815Y20422*X86500Y20422*X86345Y20579*X86970Y21206*X86815Y21361*X86500Y21361*X86345Y21206*X85408Y21049D2*X85722Y21361D1*X86035Y20422D2*X85408Y20422D1*X85722Y21361D2*X85722Y20422D1*X84295Y25596D2*X84920Y25596D1*X84295Y26223D2*X84920Y26223D1*X85077Y26065*X85077Y25751*X84920Y25596*X84295Y26223*X84138Y26065*X84138Y25751*X84295Y25596*X85077Y24194D2*X84138Y24194D1*X84607Y23724*X84138Y24658D2*X84138Y25286D1*X84295Y25286*X84920Y24658*X85077Y24658*X84607Y23724D2*X84607Y24351D1*X80907Y19271D2*X80437Y18956D1*X80907Y18644*X80437Y19583D2*X80437Y18644D1*X78725Y20579D2*X78725Y21206D1*X78567Y19271D2*X78880Y19583D1*X78880Y18644*X79195Y18644D2*X78567Y18644D1*X79502Y18801D2*X79502Y19428D1*X79659Y19583*X79972Y19583*X80129Y19428D2*X80129Y18801D1*X79972Y18644*X79659Y18644*X79502Y18801*X80129Y19428*X79972Y19583*X80129Y20422D2*X79659Y20734D1*X80129Y21049*X79659Y21361D2*X79659Y20422D1*X79350Y21206D2*X79350Y20579D1*X79195Y20422*X78880Y20422*X78725Y20579*X79350Y21206*X79195Y21361*X78880Y21361*X78725Y21206*X77788Y21049D2*X78102Y21361D1*X78415Y20422D2*X77788Y20422D1*X78102Y21361D2*X78102Y20422D1*X76675Y25596D2*X77300Y25596D1*X76675Y26223D2*X77300Y26223D1*X77457Y26065*X77457Y25751*X77300Y25596*X76675Y26223*X76518Y26065*X76518Y25751*X76675Y25596*X77457Y24194D2*X76518Y24194D1*X76987Y23724*X76518Y24658D2*X76518Y25286D1*X76675Y25286*X77300Y24658*X77457Y24658*X76987Y23724D2*X76987Y24351D1*X73287Y19271D2*X72817Y18956D1*X73287Y18644*X72817Y19583D2*X72817Y18644D1*X71105Y20579D2*X71105Y21206D1*X70947Y19271D2*X71260Y19583D1*X71260Y18644*X71575Y18644D2*X70947Y18644D1*X71882Y18801D2*X71882Y19428D1*X72039Y19583*X72352Y19583*X72509Y19428D2*X72509Y18801D1*X72352Y18644*X72039Y18644*X71882Y18801*X72509Y19428*X72352Y19583*X72509Y20422D2*X72039Y20734D1*X72509Y21049*X72039Y21361D2*X72039Y20422D1*X71730Y21206D2*X71730Y20579D1*X71575Y20422*X71260Y20422*X71105Y20579*X71730Y21206*X71575Y21361*X71260Y21361*X71105Y21206*X70168Y21049D2*X70482Y21361D1*X70795Y20422D2*X70168Y20422D1*X70482Y21361D2*X70482Y20422D1*X69055Y25596D2*X69680Y25596D1*X69055Y26223D2*X69680Y26223D1*X69837Y26065*X69837Y25751*X69680Y25596*X69055Y26223*X68898Y26065*X68898Y25751*X69055Y25596*X69837Y24194D2*X68898Y24194D1*X69367Y23724*X68898Y24658D2*X68898Y25286D1*X69055Y25286*X69680Y24658*X69837Y24658*X69367Y23724D2*X69367Y24351D1*X65667Y19271D2*X65197Y18956D1*X65667Y18644*X65197Y19583D2*X65197Y18644D1*X63485Y20579D2*X63485Y21206D1*X63327Y19271D2*X63640Y19583D1*X63640Y18644*X63955Y18644D2*X63327Y18644D1*X64262Y18801D2*X64262Y19428D1*X64419Y19583*X64732Y19583*X64889Y19428D2*X64889Y18801D1*X64732Y18644*X64419Y18644*X64262Y18801*X64889Y19428*X64732Y19583*X64889Y20422D2*X64419Y20734D1*X64889Y21049*X64419Y21361D2*X64419Y20422D1*X64110Y21206D2*X64110Y20579D1*X63955Y20422*X63640Y20422*X63485Y20579*X64110Y21206*X63955Y21361*X63640Y21361*X63485Y21206*X62548Y21049D2*X62862Y21361D1*X62862Y20422*X62548Y20422D2*X63175Y20422D1*X58047Y18644D2*X57577Y18956D1*X58047Y19271*X57577Y19583D2*X57577Y18644D1*X55865Y20579D2*X55865Y21206D1*X55707Y19271D2*X56020Y19583D1*X56020Y18644*X56335Y18644D2*X55707Y18644D1*X56642Y18801D2*X56642Y19428D1*X56799Y19583*X57112Y19583*X57269Y19428D2*X57269Y18801D1*X57112Y18644*X56799Y18644*X56642Y18801*X57269Y19428*X57112Y19583*X57269Y20422D2*X56799Y20734D1*X57269Y21049*X56799Y21361D2*X56799Y20422D1*X56490Y21206D2*X56490Y20579D1*X56335Y20422*X56020Y20422*X55865Y20579*X56490Y21206*X56335Y21361*X56020Y21361*X55865Y21206*X54928Y21049D2*X55242Y21361D1*X55242Y20422*X54928Y20422D2*X55555Y20422D1*X50427Y18644D2*X49957Y18956D1*X50427Y19271*X49957Y19583D2*X49957Y18644D1*X48245Y20579D2*X48245Y21206D1*X48087Y19271D2*X48400Y19583D1*X48400Y18644*X48715Y18644D2*X48087Y18644D1*X49022Y18801D2*X49022Y19428D1*X49179Y19583*X49492Y19583*X49649Y19428D2*X49649Y18801D1*X49492Y18644*X49179Y18644*X49022Y18801*X49649Y19428*X49492Y19583*X49649Y20422D2*X49179Y20734D1*X49649Y21049*X49179Y21361D2*X49179Y20422D1*X48870Y21206D2*X48870Y20579D1*X48715Y20422*X48400Y20422*X48245Y20579*X48870Y21206*X48715Y21361*X48400Y21361*X48245Y21206*X47308Y21049D2*X47622Y21361D1*X47935Y20422D2*X47308Y20422D1*X47622Y21361D2*X47622Y20422D1*X46195Y25286D2*X46038Y25286D1*X46038Y24658*X46507Y24351D2*X46507Y23724D1*X46038Y24194*X46977Y24194*X46977Y24658D2*X46820Y24658D1*X46195Y25286*X46820Y25596D2*X46195Y25596D1*X46038Y25751*X46038Y26065*X46195Y26223*X46820Y26223D2*X46977Y26065D1*X46977Y25751*X46820Y25596*X46195Y26223*X46820Y26223*X48379Y30041D2*X48222Y29883D1*X47752Y29883*X47752Y30823*X48222Y30823*X48379Y30668*X48379Y30041*X48689Y30353D2*X48689Y30041D1*X48844Y29883*X49159Y29883*X49314Y30041*X49314Y30196*X49159Y30353*X48689Y30353*X49002Y30668*X49314Y30823*X50427Y33566D2*X49957Y33879D1*X50427Y34193*X49957Y34506D2*X49957Y33566D1*X48087Y34193D2*X48400Y34506D1*X48400Y33566*X48715Y33566D2*X48087Y33566D1*X49022Y33724D2*X49022Y34351D1*X49179Y34506*X49492Y34506*X49649Y34351D2*X49649Y33724D1*X49492Y33566*X49179Y33566*X49022Y33724*X49649Y34351*X49492Y34506*X49649Y35344D2*X49179Y35657D1*X49649Y35971*X49179Y36284D2*X49179Y35344D1*X48870Y36129D2*X48715Y36284D1*X48400Y36284*X48245Y36129*X48245Y35502*X48400Y35344*X48715Y35344*X48870Y35502*X48870Y36129*X48245Y35502*X47935Y35344D2*X47308Y35344D1*X47622Y35344D2*X47622Y36284D1*X47308Y35971*X46195Y40208D2*X46038Y40208D1*X46038Y39581*X46507Y39273D2*X46507Y38646D1*X46038Y39116*X46977Y39116*X46977Y39581D2*X46820Y39581D1*X46195Y40208*X46820Y40518D2*X46195Y40518D1*X46038Y40673*X46038Y40988*X46195Y41145*X46820Y41145D2*X46977Y40988D1*X46977Y40673*X46820Y40518*X46195Y41145*X46820Y41145*X49941Y45593D2*X50411Y46063D1*X50411Y45123*X49941Y45593D2*X50569Y45593D1*X49007Y45123D2*X49632Y45123D1*X49319Y45123D2*X49319Y46063D1*X49007Y45750*X48070Y46063D2*X48539Y46063D1*X48697Y45908*X48697Y45281*X48539Y45123*X48070Y45123*X48070Y46063*X42949Y46063D2*X42321Y46063D1*X42321Y45593*X42321Y45281D2*X42479Y45123D1*X42791Y45123*X42949Y45281*X42949Y45593*X42791Y45750*X42634Y45750*X42321Y45593*X41387Y45750D2*X41699Y46063D1*X41699Y45123*X41387Y45123D2*X42012Y45123D1*X40450Y45123D2*X40450Y46063D1*X40919Y46063*X41077Y45908*X41077Y45281*X40919Y45123*X40450Y45123*X38575Y40518D2*X39200Y40518D1*X38575Y41145D2*X39200Y41145D1*X39357Y40988*X39357Y40673*X39200Y40518*X38575Y41145*X38418Y40988*X38418Y40673*X38575Y40518*X39357Y39116D2*X38418Y39116D1*X38887Y38646*X38418Y39581D2*X38418Y40208D1*X38575Y40208*X39200Y39581*X39357Y39581*X38887Y38646D2*X38887Y39273D1*X39688Y35971D2*X40002Y36284D1*X40002Y35344*X40315Y35344D2*X39688Y35344D1*X41250Y36129D2*X41095Y36284D1*X40780Y36284*X40625Y36129*X40625Y35502*X41250Y35502D2*X41250Y36129D1*X40625Y35502*X40780Y35344*X41095Y35344*X41250Y35502*X41559Y36284D2*X41559Y35344D1*X42029Y35971D2*X41559Y35657D1*X42029Y35344*X42807Y33566D2*X42337Y33879D1*X42807Y34193*X42337Y34506D2*X42337Y33566D1*X42029Y34351D2*X41872Y34506D1*X41559Y34506*X41402Y34351*X41402Y33724D2*X41559Y33566D1*X41872Y33566*X42029Y33724*X42029Y34351*X41402Y33724*X41402Y34351*X40467Y34193D2*X40780Y34506D1*X40780Y33566*X41095Y33566D2*X40467Y33566D1*X41069Y30823D2*X41694Y30823D1*X41694Y30668*X41069Y30041*X41069Y29883*X40132Y29883D2*X40132Y30823D1*X40602Y30823*X40759Y30668*X40759Y30041*X40602Y29883*X40132Y29883*X38575Y26223D2*X38418Y26065D1*X38418Y25751*X38575Y25596*X39200Y25596*X39357Y25751*X39357Y26065*X39200Y26223*X38575Y26223*X39200Y25596*X38418Y24194D2*X39357Y24194D1*X38418Y24658D2*X38418Y25286D1*X38575Y25286*X39200Y24658*X39357Y24658*X38887Y24351D2*X38887Y23724D1*X38418Y24194*D117*X10782Y54392D2*X9223Y55951D1*X9223Y54392D2*X10782Y55951D1*X9223Y53612D2*X10782Y53612D1*X10782Y52441*X10394Y52052*X9223Y52052*X10782Y51272D2*X8443Y51272D1*X9223Y50493*X8443Y49713*X10782Y49713*X10782Y45037D2*X10782Y46594D1*X10782Y45814D2*X8443Y45814D1*X9223Y45037*X9614Y43866D2*X9223Y43866D1*X9223Y44257*X9614Y44257*X9614Y43866*X10782Y43866D2*X10782Y44257D1*X10394Y44257*X10394Y43866*X10782Y43866*X10782Y41526D2*X10782Y43086D1*X8834Y41526D2*X8443Y41918D1*X8443Y42697*X8834Y43086*X9223Y43086*X10782Y41526*X10782Y38019D2*X10782Y37239D1*X10394Y36850*X9614Y36850*X10003Y36850D2*X10003Y38410D1*X9614Y38410*X9223Y38019*X9223Y37239*X9614Y36850*X8443Y33343D2*X8054Y33343D1*X10394Y34511D2*X10782Y34900D1*X10782Y36071*X8443Y36071*X9223Y36071D2*X9223Y34900D1*X9614Y34511*X10394Y34511*X10782Y33731D2*X10782Y32951D1*X10782Y33343D2*X9223Y33343D1*X9223Y32951*X8443Y32172D2*X10782Y32172D1*X10003Y31392*X10782Y30612*X8443Y30612*X8443Y27496D2*X8834Y26716D1*X9614Y25936*X10394Y25936D2*X9614Y25936D1*X9614Y27104*X10003Y27496*X10394Y27496*X10782Y27104*X10782Y26325*X10394Y25936*X10782Y23597D2*X10782Y25156D1*X10782Y24376D2*X8443Y24376D1*X9223Y23597*D118*X15265Y76264D2*X15265Y79946D1*X11582Y79946D2*X11582Y76264D1*X13360Y76264D2*X13360Y79946D1*X13487Y79946D2*X13487Y76264D1*X14326Y82906D2*X14252Y82814D1*X14171Y82728*X14082Y82649*X13990Y82578*X13891Y82514*X13787Y82456*X13680Y82408*X13571Y82367*X13457Y82337*X13340Y82314*X13223Y82301*X13106Y82296*X11902Y84755D2*X11979Y84844D1*X12057Y84927*X12146Y85004*X12238Y85072*X12334Y85133*X12436Y85189*X12543Y85235*X12652Y85275*X12764Y85306*X12875Y85326*X12992Y85339*X13106Y85344*X14310Y84755D2*X14234Y84844D1*X14155Y84927*X14067Y85004*X13975Y85072*X13879Y85133*X13777Y85189*X13670Y85235*X13561Y85275*X13449Y85306*X13338Y85326*X13221Y85339*X13106Y85344*X11867Y82934D2*X11941Y82840D1*X12022Y82751*X12111Y82667*X12205Y82591*X12304Y82525*X12408Y82466*X12520Y82413*X12631Y82372*X12748Y82339*X12865Y82316*X12987Y82301*X13106Y82296*X28918Y106108D2*X25235Y106108D1*X25235Y107886D2*X28918Y107886D1*X19825Y107912D2*X19898Y108003D1*X19980Y108090*X20069Y108168*X20160Y108240*X20259Y108303*X20363Y108361*X20470Y108410*X20579Y108450*X20693Y108481*X20810Y108504*X20927Y108516*X21044Y108522*X22248Y106063D2*X22172Y105974D1*X22093Y105890*X22004Y105814*X21913Y105745*X21816Y105684*X21714Y105628*X21608Y105583*X21499Y105542*X21387Y105512*X21275Y105491*X21158Y105479*X21044Y105474*X19840Y106063D2*X19916Y105974D1*X19995Y105890*X20084Y105814*X20175Y105745*X20272Y105684*X20373Y105628*X20480Y105583*X20589Y105542*X20701Y105512*X20813Y105491*X20930Y105479*X21044Y105474*X22283Y107884D2*X22210Y107978D1*X22128Y108067*X22040Y108151*X21946Y108227*X21847Y108293*X21742Y108351*X21631Y108405*X21519Y108445*X21402Y108478*X21285Y108501*X21163Y108516*X21044Y108522*X18567Y112268D2*X12725Y112268D1*X12725Y109982D2*X18567Y109982D1*X14326Y106083D2*X14252Y105992D1*X14171Y105905*X14082Y105827*X13990Y105755*X13891Y105692*X13787Y105634*X13680Y105585*X13571Y105545*X13457Y105514*X13340Y105491*X13223Y105479*X13106Y105474*X11902Y107932D2*X11979Y108021D1*X12057Y108105*X12146Y108181*X12238Y108250*X12334Y108311*X12436Y108367*X12543Y108412*X12652Y108453*X12764Y108483*X12875Y108504*X12992Y108516*X13106Y108522*X14310Y107932D2*X14234Y108021D1*X14155Y108105*X14067Y108181*X13975Y108250*X13879Y108311*X13777Y108367*X13670Y108412*X13561Y108453*X13449Y108483*X13338Y108504*X13221Y108516*X13106Y108522*X11867Y106111D2*X11941Y106017D1*X12022Y105928*X12111Y105844*X12205Y105768*X12304Y105702*X12408Y105644*X12520Y105590*X12631Y105550*X12748Y105517*X12865Y105494*X12987Y105479*X13106Y105474*X15265Y103124D2*X15265Y99441D1*X13487Y99441D2*X13487Y103124D1*X13360Y103124D2*X13360Y99441D1*X11582Y99441D2*X11582Y103124D1*X11582Y92456D2*X11582Y96139D1*X13360Y96139D2*X13360Y92456D1*X13487Y92456D2*X13487Y96139D1*X15265Y96139D2*X15265Y92456D1*X21107Y98996D2*X21107Y95314D1*X23012Y98425D2*X23017Y98544D1*X23033Y98666*X23056Y98783*X23089Y98900*X23129Y99012*X23183Y99124*X23241Y99228*X23307Y99327*X23383Y99421*X23467Y99510*X23556Y99591*X23650Y99665*X26060Y98425D2*X26055Y98539D1*X26043Y98656*X26022Y98768*X25992Y98880*X25951Y98989*X25905Y99096*X25850Y99197*X25789Y99294*X25720Y99385*X25644Y99474*X25560Y99553*X25471Y99629*X23012Y98425D2*X23017Y98308D1*X23030Y98191*X23053Y98074*X23084Y97960*X23124Y97851*X23172Y97744*X23231Y97640*X23294Y97541*X23365Y97450*X23444Y97361*X23531Y97279*X23622Y97206*X28727Y98425D2*X28732Y98544D1*X28748Y98666*X28771Y98783*X28804Y98900*X28844Y99012*X28898Y99124*X28956Y99228*X29022Y99327*X29098Y99421*X29182Y99510*X29271Y99591*X29365Y99665*X31775Y98425D2*X31770Y98539D1*X31758Y98656*X31737Y98768*X31707Y98880*X31666Y98989*X31620Y99096*X31565Y99197*X31504Y99294*X31435Y99385*X31359Y99474*X31275Y99553*X31186Y99629*X28727Y98425D2*X28732Y98308D1*X28745Y98191*X28768Y98074*X28799Y97960*X28839Y97851*X28887Y97744*X28946Y97640*X29009Y97541*X29080Y97450*X29159Y97361*X29246Y97279*X29337Y97206*X34442Y98425D2*X34447Y98544D1*X34463Y98666*X34486Y98783*X34519Y98900*X34559Y99012*X34613Y99124*X34671Y99228*X34737Y99327*X34813Y99421*X34897Y99510*X34986Y99591*X35080Y99665*X37490Y98425D2*X37485Y98539D1*X37473Y98656*X37452Y98768*X37422Y98880*X37381Y98989*X37335Y99096*X37280Y99197*X37219Y99294*X37150Y99385*X37074Y99474*X36990Y99553*X36901Y99629*X34442Y98425D2*X34447Y98308D1*X34460Y98191*X34483Y98074*X34514Y97960*X34554Y97851*X34602Y97744*X34661Y97640*X34724Y97541*X34795Y97450*X34874Y97361*X34961Y97279*X35052Y97206*X40157Y98425D2*X40162Y98544D1*X40178Y98666*X40201Y98783*X40234Y98900*X40274Y99012*X40328Y99124*X40386Y99228*X40452Y99327*X40528Y99421*X40612Y99510*X40701Y99591*X40795Y99665*X43205Y98425D2*X43200Y98539D1*X43188Y98656*X43167Y98768*X43137Y98880*X43096Y98989*X43050Y99096*X42995Y99197*X42934Y99294*X42865Y99385*X42789Y99474*X42705Y99553*X42616Y99629*X40157Y98425D2*X40162Y98308D1*X40175Y98191*X40198Y98074*X40229Y97960*X40269Y97851*X40317Y97744*X40376Y97640*X40439Y97541*X40510Y97450*X40589Y97361*X40676Y97279*X40767Y97206*X45872Y98425D2*X45877Y98544D1*X45893Y98666*X45916Y98783*X45949Y98900*X45989Y99012*X46043Y99124*X46101Y99228*X46167Y99327*X46243Y99421*X46327Y99510*X46416Y99591*X46510Y99665*X48920Y98425D2*X48915Y98539D1*X48903Y98656*X48882Y98768*X48852Y98880*X48811Y98989*X48765Y99096*X48710Y99197*X48649Y99294*X48580Y99385*X48504Y99474*X48420Y99553*X48331Y99629*X45872Y98425D2*X45877Y98308D1*X45890Y98191*X45913Y98074*X45944Y97960*X45984Y97851*X46032Y97744*X46091Y97640*X46154Y97541*X46225Y97450*X46304Y97361*X46391Y97279*X46482Y97206*X51587Y98425D2*X51592Y98544D1*X51608Y98666*X51631Y98783*X51664Y98900*X51704Y99012*X51758Y99124*X51816Y99228*X51882Y99327*X51958Y99421*X52042Y99510*X52131Y99591*X52225Y99665*X54635Y98425D2*X54630Y98539D1*X54618Y98656*X54597Y98768*X54567Y98880*X54526Y98989*X54480Y99096*X54425Y99197*X54364Y99294*X54295Y99385*X54219Y99474*X54135Y99553*X54046Y99629*X51587Y98425D2*X51592Y98308D1*X51605Y98191*X51628Y98074*X51659Y97960*X51699Y97851*X51747Y97744*X51806Y97640*X51869Y97541*X51940Y97450*X52019Y97361*X52106Y97279*X52197Y97206*X57302Y98425D2*X57307Y98544D1*X57323Y98666*X57346Y98783*X57379Y98900*X57419Y99012*X57473Y99124*X57531Y99228*X57597Y99327*X57673Y99421*X57757Y99510*X57846Y99591*X57940Y99665*X60350Y98425D2*X60345Y98539D1*X60333Y98656*X60312Y98768*X60282Y98880*X60241Y98989*X60195Y99096*X60140Y99197*X60079Y99294*X60010Y99385*X59934Y99474*X59850Y99553*X59761Y99629*X57302Y98425D2*X57307Y98308D1*X57320Y98191*X57343Y98074*X57374Y97960*X57414Y97851*X57462Y97744*X57521Y97640*X57584Y97541*X57655Y97450*X57734Y97361*X57821Y97279*X57912Y97206*X63017Y98425D2*X63022Y98544D1*X63038Y98666*X63061Y98783*X63094Y98900*X63134Y99012*X63188Y99124*X63246Y99228*X63312Y99327*X63388Y99421*X63472Y99510*X63561Y99591*X63655Y99665*X66065Y98425D2*X66060Y98539D1*X66048Y98656*X66027Y98768*X65997Y98880*X65956Y98989*X65910Y99096*X65855Y99197*X65794Y99294*X65725Y99385*X65649Y99474*X65565Y99553*X65476Y99629*X63017Y98425D2*X63022Y98308D1*X63035Y98191*X63058Y98074*X63089Y97960*X63129Y97851*X63177Y97744*X63236Y97640*X63299Y97541*X63370Y97450*X63449Y97361*X63536Y97279*X63627Y97206*X66065Y98425D2*X66060Y98311D1*X66048Y98194*X66027Y98082*X65997Y97970*X65956Y97861*X65910Y97754*X65855Y97653*X65794Y97556*X65725Y97465*X65649Y97376*X65565Y97297*X65476Y97221*X62890Y95314D2*X62890Y98996D1*X61112Y98996D2*X61112Y95314D1*X60350Y98425D2*X60345Y98311D1*X60333Y98194*X60312Y98082*X60282Y97970*X60241Y97861*X60195Y97754*X60140Y97653*X60079Y97556*X60010Y97465*X59934Y97376*X59850Y97297*X59761Y97221*X57175Y95314D2*X57175Y98996D1*X55397Y98996D2*X55397Y95314D1*X54635Y98425D2*X54630Y98311D1*X54618Y98194*X54597Y98082*X54567Y97970*X54526Y97861*X54480Y97754*X54425Y97653*X54364Y97556*X54295Y97465*X54219Y97376*X54135Y97297*X54046Y97221*X51460Y95314D2*X51460Y98996D1*X49682Y98996D2*X49682Y95314D1*X48920Y98425D2*X48915Y98311D1*X48903Y98194*X48882Y98082*X48852Y97970*X48811Y97861*X48765Y97754*X48710Y97653*X48649Y97556*X48580Y97465*X48504Y97376*X48420Y97297*X48331Y97221*X45745Y95314D2*X45745Y98996D1*X43967Y98996D2*X43967Y95314D1*X43205Y98425D2*X43200Y98311D1*X43188Y98194*X43167Y98082*X43137Y97970*X43096Y97861*X43050Y97754*X42995Y97653*X42934Y97556*X42865Y97465*X42789Y97376*X42705Y97297*X42616Y97221*X40030Y95314D2*X40030Y98996D1*X38252Y98996D2*X38252Y95314D1*X37490Y98425D2*X37485Y98311D1*X37473Y98194*X37452Y98082*X37422Y97970*X37381Y97861*X37335Y97754*X37280Y97653*X37219Y97556*X37150Y97465*X37074Y97376*X36990Y97297*X36901Y97221*X34315Y95314D2*X34315Y98996D1*X32537Y98996D2*X32537Y95314D1*X31775Y98425D2*X31770Y98311D1*X31758Y98194*X31737Y98082*X31707Y97970*X31666Y97861*X31620Y97754*X31565Y97653*X31504Y97556*X31435Y97465*X31359Y97376*X31275Y97297*X31186Y97221*X28600Y95314D2*X28600Y98996D1*X26822Y98996D2*X26822Y95314D1*X26060Y98425D2*X26055Y98311D1*X26043Y98194*X26022Y98082*X25992Y97970*X25951Y97861*X25905Y97754*X25850Y97653*X25789Y97556*X25720Y97465*X25644Y97376*X25560Y97297*X25471Y97221*X22885Y95314D2*X22885Y98996D1*X22885Y92646D2*X22885Y88964D1*X21107Y88964D2*X21107Y92646D1*X21107Y82296D2*X21107Y85979D1*X22885Y85979D2*X22885Y82296D1*X28600Y82296D2*X28600Y85979D1*X26822Y85979D2*X26822Y82296D1*X26822Y92646D2*X26822Y88964D1*X28600Y88964D2*X28600Y92646D1*X34315Y92646D2*X34315Y88964D1*X32537Y88964D2*X32537Y92646D1*X32537Y82296D2*X32537Y85979D1*X34315Y85979D2*X34315Y82296D1*X40030Y82296D2*X40030Y85979D1*X38252Y85979D2*X38252Y82296D1*X38252Y92646D2*X38252Y88964D1*X40030Y88964D2*X40030Y92646D1*X45745Y92646D2*X45745Y88964D1*X43967Y88964D2*X43967Y92646D1*X43967Y82296D2*X43967Y85979D1*X45745Y85979D2*X45745Y82296D1*X51460Y82296D2*X51460Y85979D1*X49682Y85979D2*X49682Y82296D1*X49682Y92646D2*X49682Y88964D1*X51460Y88964D2*X51460Y92646D1*X57175Y92646D2*X57175Y88964D1*X55397Y88964D2*X55397Y92646D1*X55397Y82296D2*X55397Y85979D1*X57175Y85979D2*X57175Y82296D1*X62890Y82296D2*X62890Y85979D1*X61112Y85979D2*X61112Y82296D1*X61112Y92646D2*X61112Y88964D1*X62890Y88964D2*X62890Y92646D1*X68478Y96584D2*X68478Y90742D1*X72730Y106063D2*X72654Y105974D1*X72575Y105890*X72487Y105814*X72395Y105745*X72299Y105684*X72197Y105628*X72090Y105583*X71981Y105542*X71869Y105512*X71758Y105491*X71641Y105479*X71526Y105474*X70307Y107912D2*X70381Y108003D1*X70462Y108090*X70551Y108168*X70642Y108240*X70742Y108303*X70846Y108361*X70952Y108410*X71062Y108450*X71176Y108481*X71293Y108504*X71410Y108516*X71526Y108522*X72766Y107884D2*X72692Y107978D1*X72611Y108067*X72522Y108151*X72428Y108227*X72329Y108293*X72225Y108351*X72113Y108405*X72001Y108445*X71885Y108478*X71768Y108501*X71646Y108516*X71526Y108522*X70322Y106063D2*X70399Y105974D1*X70477Y105890*X70566Y105814*X70658Y105745*X70754Y105684*X70856Y105628*X70963Y105583*X71072Y105542*X71184Y105512*X71295Y105491*X71412Y105479*X71526Y105474*X75400Y107886D2*X79083Y107886D1*X79083Y106108D2*X75400Y106108D1*X122199Y111506D2*X122199Y105664D1*X119913Y105664D2*X119913Y111506D1*X110198Y107823D2*X116040Y107823D1*X116040Y105537D2*X110198Y105537D1*X113690Y88964D2*X113690Y92646D1*X111912Y92646D2*X111912Y88964D1*X107975Y88964D2*X107975Y92646D1*X106197Y92646D2*X106197Y88964D1*X102260Y88964D2*X102260Y92646D1*X100482Y92646D2*X100482Y88964D1*X96545Y88964D2*X96545Y92646D1*X94767Y92646D2*X94767Y88964D1*X90830Y88964D2*X90830Y92646D1*X89052Y92646D2*X89052Y88964D1*X85115Y88964D2*X85115Y92646D1*X83337Y92646D2*X83337Y88964D1*X77622Y88964D2*X77622Y92646D1*X79400Y92646D2*X79400Y88964D1*X79527Y98425D2*X79532Y98544D1*X79548Y98666*X79571Y98783*X79604Y98900*X79644Y99012*X79698Y99124*X79756Y99228*X79822Y99327*X79898Y99421*X79982Y99510*X80071Y99591*X80165Y99665*X82575Y98425D2*X82570Y98539D1*X82558Y98656*X82537Y98768*X82507Y98880*X82466Y98989*X82420Y99096*X82365Y99197*X82304Y99294*X82235Y99385*X82159Y99474*X82075Y99553*X81986Y99629*X79527Y98425D2*X79532Y98308D1*X79545Y98191*X79568Y98074*X79599Y97960*X79639Y97851*X79687Y97744*X79746Y97640*X79809Y97541*X79880Y97450*X79959Y97361*X80046Y97279*X80137Y97206*X85242Y98425D2*X85247Y98544D1*X85263Y98666*X85286Y98783*X85319Y98900*X85359Y99012*X85413Y99124*X85471Y99228*X85537Y99327*X85613Y99421*X85697Y99510*X85786Y99591*X85880Y99665*X88290Y98425D2*X88285Y98539D1*X88273Y98656*X88252Y98768*X88222Y98880*X88181Y98989*X88135Y99096*X88080Y99197*X88019Y99294*X87950Y99385*X87874Y99474*X87790Y99553*X87701Y99629*X85242Y98425D2*X85247Y98308D1*X85260Y98191*X85283Y98074*X85314Y97960*X85354Y97851*X85402Y97744*X85461Y97640*X85524Y97541*X85595Y97450*X85674Y97361*X85761Y97279*X85852Y97206*X90957Y98425D2*X90962Y98544D1*X90978Y98666*X91001Y98783*X91034Y98900*X91074Y99012*X91128Y99124*X91186Y99228*X91252Y99327*X91328Y99421*X91412Y99510*X91501Y99591*X91595Y99665*X94005Y98425D2*X94000Y98539D1*X93988Y98656*X93967Y98768*X93937Y98880*X93896Y98989*X93850Y99096*X93795Y99197*X93734Y99294*X93665Y99385*X93589Y99474*X93505Y99553*X93416Y99629*X90957Y98425D2*X90962Y98308D1*X90975Y98191*X90998Y98074*X91029Y97960*X91069Y97851*X91117Y97744*X91176Y97640*X91239Y97541*X91310Y97450*X91389Y97361*X91476Y97279*X91567Y97206*X96672Y98425D2*X96677Y98544D1*X96693Y98666*X96716Y98783*X96749Y98900*X96789Y99012*X96843Y99124*X96901Y99228*X96967Y99327*X97043Y99421*X97127Y99510*X97216Y99591*X97310Y99665*X99720Y98425D2*X99715Y98539D1*X99703Y98656*X99682Y98768*X99652Y98880*X99611Y98989*X99565Y99096*X99510Y99197*X99449Y99294*X99380Y99385*X99304Y99474*X99220Y99553*X99131Y99629*X96672Y98425D2*X96677Y98308D1*X96690Y98191*X96713Y98074*X96744Y97960*X96784Y97851*X96832Y97744*X96891Y97640*X96954Y97541*X97025Y97450*X97104Y97361*X97191Y97279*X97282Y97206*X102387Y98425D2*X102392Y98544D1*X102408Y98666*X102431Y98783*X102464Y98900*X102504Y99012*X102558Y99124*X102616Y99228*X102682Y99327*X102758Y99421*X102842Y99510*X102931Y99591*X103025Y99665*X105435Y98425D2*X105430Y98539D1*X105418Y98656*X105397Y98768*X105367Y98880*X105326Y98989*X105280Y99096*X105225Y99197*X105164Y99294*X105095Y99385*X105019Y99474*X104935Y99553*X104846Y99629*X102387Y98425D2*X102392Y98308D1*X102405Y98191*X102428Y98074*X102459Y97960*X102499Y97851*X102547Y97744*X102606Y97640*X102669Y97541*X102740Y97450*X102819Y97361*X102906Y97279*X102997Y97206*X108102Y98425D2*X108107Y98544D1*X108123Y98666*X108146Y98783*X108179Y98900*X108219Y99012*X108273Y99124*X108331Y99228*X108397Y99327*X108473Y99421*X108557Y99510*X108646Y99591*X108740Y99665*X111150Y98425D2*X111145Y98539D1*X111133Y98656*X111112Y98768*X111082Y98880*X111041Y98989*X110995Y99096*X110940Y99197*X110879Y99294*X110810Y99385*X110734Y99474*X110650Y99553*X110561Y99629*X108102Y98425D2*X108107Y98308D1*X108120Y98191*X108143Y98074*X108174Y97960*X108214Y97851*X108262Y97744*X108321Y97640*X108384Y97541*X108455Y97450*X108534Y97361*X108621Y97279*X108712Y97206*X113817Y98425D2*X113822Y98544D1*X113838Y98666*X113861Y98783*X113894Y98900*X113934Y99012*X113988Y99124*X114046Y99228*X114112Y99327*X114188Y99421*X114272Y99510*X114361Y99591*X114455Y99665*X116865Y98425D2*X116860Y98539D1*X116848Y98656*X116827Y98768*X116797Y98880*X116756Y98989*X116710Y99096*X116655Y99197*X116594Y99294*X116525Y99385*X116449Y99474*X116365Y99553*X116276Y99629*X113817Y98425D2*X113822Y98308D1*X113835Y98191*X113858Y98074*X113889Y97960*X113929Y97851*X113977Y97744*X114036Y97640*X114099Y97541*X114170Y97450*X114249Y97361*X114336Y97279*X114427Y97206*X116865Y98425D2*X116860Y98311D1*X116848Y98194*X116827Y98082*X116797Y97970*X116756Y97861*X116710Y97754*X116655Y97653*X116594Y97556*X116525Y97465*X116449Y97376*X116365Y97297*X116276Y97221*X113690Y95314D2*X113690Y98996D1*X111912Y98996D2*X111912Y95314D1*X111150Y98425D2*X111145Y98311D1*X111133Y98194*X111112Y98082*X111082Y97970*X111041Y97861*X110995Y97754*X110940Y97653*X110879Y97556*X110810Y97465*X110734Y97376*X110650Y97297*X110561Y97221*X107975Y95314D2*X107975Y98996D1*X106197Y98996D2*X106197Y95314D1*X105435Y98425D2*X105430Y98311D1*X105418Y98194*X105397Y98082*X105367Y97970*X105326Y97861*X105280Y97754*X105225Y97653*X105164Y97556*X105095Y97465*X105019Y97376*X104935Y97297*X104846Y97221*X102260Y95314D2*X102260Y98996D1*X100482Y98996D2*X100482Y95314D1*X99720Y98425D2*X99715Y98311D1*X99703Y98194*X99682Y98082*X99652Y97970*X99611Y97861*X99565Y97754*X99510Y97653*X99449Y97556*X99380Y97465*X99304Y97376*X99220Y97297*X99131Y97221*X96545Y95314D2*X96545Y98996D1*X94767Y98996D2*X94767Y95314D1*X94005Y98425D2*X94000Y98311D1*X93988Y98194*X93967Y98082*X93937Y97970*X93896Y97861*X93850Y97754*X93795Y97653*X93734Y97556*X93665Y97465*X93589Y97376*X93505Y97297*X93416Y97221*X90830Y95314D2*X90830Y98996D1*X89052Y98996D2*X89052Y95314D1*X88290Y98425D2*X88285Y98311D1*X88273Y98194*X88252Y98082*X88222Y97970*X88181Y97861*X88135Y97754*X88080Y97653*X88019Y97556*X87950Y97465*X87874Y97376*X87790Y97297*X87701Y97221*X85115Y95314D2*X85115Y98996D1*X83337Y98996D2*X83337Y95314D1*X82575Y98425D2*X82570Y98311D1*X82558Y98194*X82537Y98082*X82507Y97970*X82466Y97861*X82420Y97754*X82365Y97653*X82304Y97556*X82235Y97465*X82159Y97376*X82075Y97297*X81986Y97221*X79400Y95314D2*X79400Y98996D1*X77622Y98996D2*X77622Y95314D1*X74422Y97206D2*X74331Y97279D1*X74244Y97361*X74165Y97450*X74094Y97541*X74031Y97640*X73972Y97744*X73924Y97851*X73884Y97960*X73853Y98074*X73830Y98191*X73817Y98308*X73812Y98425*X76271Y99629D2*X76360Y99553D1*X76444Y99474*X76520Y99385*X76589Y99294*X76650Y99197*X76705Y99096*X76751Y98989*X76792Y98880*X76822Y98768*X76843Y98656*X76855Y98539*X76860Y98425*X76271Y97221D2*X76360Y97297D1*X76444Y97376*X76520Y97465*X76589Y97556*X76650Y97653*X76705Y97754*X76751Y97861*X76792Y97970*X76822Y98082*X76843Y98194*X76855Y98311*X76860Y98425*X74450Y99665D2*X74356Y99591D1*X74267Y99510*X74183Y99421*X74107Y99327*X74041Y99228*X73983Y99124*X73929Y99012*X73889Y98900*X73856Y98783*X73833Y98666*X73817Y98544*X73812Y98425*X73685Y98996D2*X73685Y95314D1*X71907Y95314D2*X71907Y98996D1*X70764Y90742D2*X70764Y96584D1*X73685Y92646D2*X73685Y88964D1*X71907Y88964D2*X71907Y92646D1*X71907Y85979D2*X71907Y82296D1*X73685Y82296D2*X73685Y85979D1*X77622Y85979D2*X77622Y82296D1*X79400Y82296D2*X79400Y85979D1*X83337Y85979D2*X83337Y82296D1*X85115Y82296D2*X85115Y85979D1*X89052Y85979D2*X89052Y82296D1*X90830Y82296D2*X90830Y85979D1*X94767Y85979D2*X94767Y82296D1*X96545Y82296D2*X96545Y85979D1*X100482Y85979D2*X100482Y82296D1*X102260Y82296D2*X102260Y85979D1*X106197Y85979D2*X106197Y82296D1*X107975Y82296D2*X107975Y85979D1*X111912Y85979D2*X111912Y82296D1*X113690Y82296D2*X113690Y85979D1*X115214Y37211D2*X115214Y31369D1*X112928Y31369D2*X112928Y37211D1*X94135Y28875D2*X94211Y28964D1*X94290Y29047*X94379Y29124*X94470Y29192*X94567Y29253*X94668Y29309*X94775Y29355*X94884Y29395*X94996Y29426*X95108Y29446*X95225Y29459*X95339Y29464*X96558Y27026D2*X96484Y26934D1*X96403Y26848*X96314Y26769*X96223Y26698*X96124Y26634*X96020Y26576*X95913Y26528*X95804Y26487*X95689Y26457*X95573Y26434*X95456Y26421*X95339Y26416*X94099Y27054D2*X94173Y26960D1*X94254Y26871*X94343Y26787*X94437Y26711*X94536Y26645*X94640Y26586*X94752Y26533*X94864Y26492*X94981Y26459*X95098Y26436*X95220Y26421*X95339Y26416*X96543Y28875D2*X96467Y28964D1*X96388Y29047*X96299Y29124*X96208Y29192*X96111Y29253*X96009Y29309*X95903Y29355*X95794Y29395*X95682Y29426*X95570Y29446*X95453Y29459*X95339Y29464*X93053Y23558D2*X93053Y27242D1*X96545Y21844D2*X92862Y21844D1*X92862Y20066D2*X96545Y20066D1*X96545Y19939D2*X92862Y19939D1*X92862Y18161D2*X96545Y18161D1*X85242Y18161D2*X88925Y18161D1*X88925Y19939D2*X85242Y19939D1*X85242Y20066D2*X88925Y20066D1*X88925Y21844D2*X85242Y21844D1*X91275Y27242D2*X91275Y23558D1*X86515Y28875D2*X86591Y28964D1*X86670Y29047*X86759Y29124*X86850Y29192*X86947Y29253*X87048Y29309*X87155Y29355*X87264Y29395*X87376Y29426*X87488Y29446*X87605Y29459*X87719Y29464*X88938Y27026D2*X88864Y26934D1*X88783Y26848*X88694Y26769*X88603Y26698*X88504Y26634*X88400Y26576*X88293Y26528*X88184Y26487*X88069Y26457*X87953Y26434*X87836Y26421*X87719Y26416*X86479Y27054D2*X86553Y26960D1*X86634Y26871*X86723Y26787*X86817Y26711*X86916Y26645*X87020Y26586*X87132Y26533*X87244Y26492*X87361Y26459*X87478Y26436*X87600Y26421*X87719Y26416*X88923Y28875D2*X88847Y28964D1*X88768Y29047*X88679Y29124*X88588Y29192*X88491Y29253*X88389Y29309*X88283Y29355*X88174Y29395*X88062Y29426*X87950Y29446*X87833Y29459*X87719Y29464*X85433Y23558D2*X85433Y27242D1*X83655Y27242D2*X83655Y23558D1*X73698Y27026D2*X73624Y26934D1*X73543Y26848*X73454Y26769*X73363Y26698*X73264Y26634*X73160Y26576*X73053Y26528*X72944Y26487*X72829Y26457*X72713Y26434*X72596Y26421*X72479Y26416*X71275Y28875D2*X71351Y28964D1*X71430Y29047*X71519Y29124*X71610Y29192*X71707Y29253*X71808Y29309*X71915Y29355*X72024Y29395*X72136Y29426*X72248Y29446*X72365Y29459*X72479Y29464*X73683Y28875D2*X73607Y28964D1*X73528Y29047*X73439Y29124*X73348Y29192*X73251Y29253*X73149Y29309*X73043Y29355*X72934Y29395*X72822Y29426*X72710Y29446*X72593Y29459*X72479Y29464*X66078Y27026D2*X66004Y26934D1*X65923Y26848*X65834Y26769*X65743Y26698*X65644Y26634*X65540Y26576*X65433Y26528*X65324Y26487*X65209Y26457*X65093Y26434*X64976Y26421*X64859Y26416*X63655Y28875D2*X63731Y28964D1*X63810Y29047*X63899Y29124*X63990Y29192*X64087Y29253*X64188Y29309*X64295Y29355*X64404Y29395*X64516Y29426*X64628Y29446*X64745Y29459*X64859Y29464*X66063Y28875D2*X65987Y28964D1*X65908Y29047*X65819Y29124*X65728Y29192*X65631Y29253*X65529Y29309*X65423Y29355*X65314Y29395*X65202Y29426*X65090Y29446*X64973Y29459*X64859Y29464*X54762Y36766D2*X58445Y36766D1*X58445Y34988D2*X54762Y34988D1*X54762Y34862D2*X58445Y34862D1*X58445Y33084D2*X54762Y33084D1*X58458Y27026D2*X58384Y26934D1*X58303Y26848*X58214Y26769*X58123Y26698*X58024Y26634*X57920Y26576*X57813Y26528*X57704Y26487*X57589Y26457*X57473Y26434*X57356Y26421*X57239Y26416*X56035Y28875D2*X56111Y28964D1*X56190Y29047*X56279Y29124*X56370Y29192*X56467Y29253*X56568Y29309*X56675Y29355*X56784Y29395*X56896Y29426*X57008Y29446*X57125Y29459*X57239Y29464*X58443Y28875D2*X58367Y28964D1*X58288Y29047*X58199Y29124*X58108Y29192*X58011Y29253*X57909Y29309*X57803Y29355*X57694Y29395*X57582Y29426*X57470Y29446*X57353Y29459*X57239Y29464*X50838Y27026D2*X50764Y26934D1*X50683Y26848*X50594Y26769*X50503Y26698*X50404Y26634*X50300Y26576*X50193Y26528*X50084Y26487*X49969Y26457*X49853Y26434*X49736Y26421*X49619Y26416*X48415Y28875D2*X48491Y28964D1*X48570Y29047*X48659Y29124*X48750Y29192*X48847Y29253*X48948Y29309*X49055Y29355*X49164Y29395*X49276Y29426*X49388Y29446*X49505Y29459*X49619Y29464*X50823Y28875D2*X50747Y28964D1*X50668Y29047*X50579Y29124*X50488Y29192*X50391Y29253*X50289Y29309*X50183Y29355*X50074Y29395*X49962Y29426*X49850Y29446*X49733Y29459*X49619Y29464*X50825Y33084D2*X47142Y33084D1*X47142Y34862D2*X50825Y34862D1*X50825Y34988D2*X47142Y34988D1*X47142Y36766D2*X50825Y36766D1*X39522Y36766D2*X43205Y36766D1*X43205Y34988D2*X39522Y34988D1*X39522Y34862D2*X43205Y34862D1*X43205Y33084D2*X39522Y33084D1*X43218Y27026D2*X43144Y26934D1*X43063Y26848*X42974Y26769*X42883Y26698*X42784Y26634*X42680Y26576*X42573Y26528*X42464Y26487*X42349Y26457*X42233Y26434*X42116Y26421*X41999Y26416*X40795Y28875D2*X40871Y28964D1*X40950Y29047*X41039Y29124*X41130Y29192*X41227Y29253*X41328Y29309*X41435Y29355*X41544Y29395*X41656Y29426*X41768Y29446*X41885Y29459*X41999Y29464*X43203Y28875D2*X43127Y28964D1*X43048Y29047*X42959Y29124*X42868Y29192*X42771Y29253*X42669Y29309*X42563Y29355*X42454Y29395*X42342Y29426*X42230Y29446*X42113Y29459*X41999Y29464*X37935Y23558D2*X37935Y27242D1*X39713Y27242D2*X39713Y23558D1*X40759Y27054D2*X40833Y26960D1*X40914Y26871*X41003Y26787*X41097Y26711*X41196Y26645*X41300Y26586*X41412Y26533*X41524Y26492*X41641Y26459*X41758Y26436*X41880Y26421*X41999Y26416*X45555Y23558D2*X45555Y27242D1*X39522Y21844D2*X43205Y21844D1*X43205Y20066D2*X39522Y20066D1*X39522Y19939D2*X43205Y19939D1*X43205Y18161D2*X39522Y18161D1*X50825Y18161D2*X47142Y18161D1*X47142Y19939D2*X50825Y19939D1*X50825Y20066D2*X47142Y20066D1*X47142Y21844D2*X50825Y21844D1*X47333Y27242D2*X47333Y23558D1*X48379Y27054D2*X48453Y26960D1*X48534Y26871*X48623Y26787*X48717Y26711*X48816Y26645*X48920Y26586*X49032Y26533*X49144Y26492*X49261Y26459*X49378Y26436*X49500Y26421*X49619Y26416*X53175Y23558D2*X53175Y27242D1*X54953Y27242D2*X54953Y23558D1*X55999Y27054D2*X56073Y26960D1*X56154Y26871*X56243Y26787*X56337Y26711*X56436Y26645*X56540Y26586*X56652Y26533*X56764Y26492*X56881Y26459*X56998Y26436*X57120Y26421*X57239Y26416*X60795Y23558D2*X60795Y27242D1*X54762Y21844D2*X58445Y21844D1*X58445Y20066D2*X54762Y20066D1*X54762Y19939D2*X58445Y19939D1*X58445Y18161D2*X54762Y18161D1*X66065Y18161D2*X62382Y18161D1*X62382Y19939D2*X66065Y19939D1*X66065Y20066D2*X62382Y20066D1*X62382Y21844D2*X66065Y21844D1*X62573Y27242D2*X62573Y23558D1*X63619Y27054D2*X63693Y26960D1*X63774Y26871*X63863Y26787*X63957Y26711*X64056Y26645*X64160Y26586*X64272Y26533*X64384Y26492*X64501Y26459*X64618Y26436*X64740Y26421*X64859Y26416*X68415Y23558D2*X68415Y27242D1*X70193Y27242D2*X70193Y23558D1*X71239Y27054D2*X71313Y26960D1*X71394Y26871*X71483Y26787*X71577Y26711*X71676Y26645*X71780Y26586*X71892Y26533*X72004Y26492*X72121Y26459*X72238Y26436*X72360Y26421*X72479Y26416*X76035Y23558D2*X76035Y27242D1*X70002Y21844D2*X73685Y21844D1*X73685Y20066D2*X70002Y20066D1*X70002Y19939D2*X73685Y19939D1*X73685Y18161D2*X70002Y18161D1*X81305Y18161D2*X77622Y18161D1*X77622Y19939D2*X81305Y19939D1*X81305Y20066D2*X77622Y20066D1*X77622Y21844D2*X81305Y21844D1*X77813Y27242D2*X77813Y23558D1*X80099Y29464D2*X79985Y29459D1*X79868Y29446*X79756Y29426*X79644Y29395*X79535Y29355*X79428Y29309*X79327Y29253*X79230Y29192*X79139Y29124*X79050Y29047*X78971Y28964*X78895Y28875*X80099Y26416D2*X80216Y26421D1*X80333Y26434*X80449Y26457*X80564Y26487*X80673Y26528*X80780Y26576*X80884Y26634*X80983Y26698*X81074Y26769*X81163Y26848*X81244Y26934*X81318Y27026*X80099Y29464D2*X80213Y29459D1*X80330Y29446*X80442Y29426*X80554Y29395*X80663Y29355*X80769Y29309*X80871Y29253*X80968Y29192*X81059Y29124*X81148Y29047*X81227Y28964*X81303Y28875*X80099Y26416D2*X79980Y26421D1*X79858Y26436*X79741Y26459*X79624Y26492*X79512Y26533*X79400Y26586*X79296Y26645*X79197Y26711*X79103Y26787*X79014Y26871*X78933Y26960*X78859Y27054*X77622Y33084D2*X81305Y33084D1*X81305Y34862D2*X77622Y34862D1*X77622Y34988D2*X81305Y34988D1*X81305Y36766D2*X77622Y36766D1*X94135Y43797D2*X94211Y43886D1*X94290Y43970*X94379Y44046*X94470Y44115*X94567Y44176*X94668Y44232*X94775Y44277*X94884Y44318*X94996Y44348*X95108Y44369*X95225Y44381*X95339Y44386*X96558Y41948D2*X96484Y41857D1*X96403Y41770*X96314Y41692*X96223Y41620*X96124Y41557*X96020Y41499*X95913Y41450*X95804Y41410*X95689Y41379*X95573Y41356*X95456Y41344*X95339Y41338*X94099Y41976D2*X94173Y41882D1*X94254Y41793*X94343Y41709*X94437Y41633*X94536Y41567*X94640Y41509*X94752Y41455*X94864Y41415*X94981Y41382*X95098Y41359*X95220Y41344*X95339Y41338*X96543Y43797D2*X96467Y43886D1*X96388Y43970*X96299Y44046*X96208Y44115*X96111Y44176*X96009Y44232*X95903Y44277*X95794Y44318*X95682Y44348*X95570Y44369*X95453Y44381*X95339Y44386*X93053Y38481D2*X93053Y42164D1*X96545Y36766D2*X92862Y36766D1*X92862Y34988D2*X96545Y34988D1*X96545Y34862D2*X92862Y34862D1*X92862Y33084D2*X96545Y33084D1*X85242Y33084D2*X88925Y33084D1*X88925Y34862D2*X85242Y34862D1*X85242Y34988D2*X88925Y34988D1*X88925Y36766D2*X85242Y36766D1*X91275Y42164D2*X91275Y38481D1*X86515Y43797D2*X86591Y43886D1*X86670Y43970*X86759Y44046*X86850Y44115*X86947Y44176*X87048Y44232*X87155Y44277*X87264Y44318*X87376Y44348*X87488Y44369*X87605Y44381*X87719Y44386*X88938Y41948D2*X88864Y41857D1*X88783Y41770*X88694Y41692*X88603Y41620*X88504Y41557*X88400Y41499*X88293Y41450*X88184Y41410*X88069Y41379*X87953Y41356*X87836Y41344*X87719Y41338*X86479Y41976D2*X86553Y41882D1*X86634Y41793*X86723Y41709*X86817Y41633*X86916Y41567*X87020Y41509*X87132Y41455*X87244Y41415*X87361Y41382*X87478Y41359*X87600Y41344*X87719Y41338*X88923Y43797D2*X88847Y43886D1*X88768Y43970*X88679Y44046*X88588Y44115*X88491Y44176*X88389Y44232*X88283Y44277*X88174Y44318*X88062Y44348*X87950Y44369*X87833Y44381*X87719Y44386*X85433Y38481D2*X85433Y42164D1*X83655Y42164D2*X83655Y38481D1*X78895Y43797D2*X78971Y43886D1*X79050Y43970*X79139Y44046*X79230Y44115*X79327Y44176*X79428Y44232*X79535Y44277*X79644Y44318*X79756Y44348*X79868Y44369*X79985Y44381*X80099Y44386*X81318Y41948D2*X81244Y41857D1*X81163Y41770*X81074Y41692*X80983Y41620*X80884Y41557*X80780Y41499*X80673Y41450*X80564Y41410*X80449Y41379*X80333Y41356*X80216Y41344*X80099Y41338*X78859Y41976D2*X78933Y41882D1*X79014Y41793*X79103Y41709*X79197Y41633*X79296Y41567*X79400Y41509*X79512Y41455*X79624Y41415*X79741Y41382*X79858Y41359*X79980Y41344*X80099Y41338*X81303Y43797D2*X81227Y43886D1*X81148Y43970*X81059Y44046*X80968Y44115*X80871Y44176*X80769Y44232*X80663Y44277*X80554Y44318*X80442Y44348*X80330Y44369*X80213Y44381*X80099Y44386*X77813Y38481D2*X77813Y42164D1*X76035Y42164D2*X76035Y38481D1*X71275Y43797D2*X71351Y43886D1*X71430Y43970*X71519Y44046*X71610Y44115*X71707Y44176*X71808Y44232*X71915Y44277*X72024Y44318*X72136Y44348*X72248Y44369*X72365Y44381*X72479Y44386*X73698Y41948D2*X73624Y41857D1*X73543Y41770*X73454Y41692*X73363Y41620*X73264Y41557*X73160Y41499*X73053Y41450*X72944Y41410*X72829Y41379*X72713Y41356*X72596Y41344*X72479Y41338*X71239Y41976D2*X71313Y41882D1*X71394Y41793*X71483Y41709*X71577Y41633*X71676Y41567*X71780Y41509*X71892Y41455*X72004Y41415*X72121Y41382*X72238Y41359*X72360Y41344*X72479Y41338*X73683Y43797D2*X73607Y43886D1*X73528Y43970*X73439Y44046*X73348Y44115*X73251Y44176*X73149Y44232*X73043Y44277*X72934Y44318*X72822Y44348*X72710Y44369*X72593Y44381*X72479Y44386*X70193Y38481D2*X70193Y42164D1*X62382Y36766D2*X66065Y36766D1*X66065Y34988D2*X62382Y34988D1*X62382Y34862D2*X66065Y34862D1*X66065Y33084D2*X62382Y33084D1*X73685Y33084D2*X70002Y33084D1*X70002Y34862D2*X73685Y34862D1*X73685Y34988D2*X70002Y34988D1*X70002Y36766D2*X73685Y36766D1*X68415Y42164D2*X68415Y38481D1*X63655Y43797D2*X63731Y43886D1*X63810Y43970*X63899Y44046*X63990Y44115*X64087Y44176*X64188Y44232*X64295Y44277*X64404Y44318*X64516Y44348*X64628Y44369*X64745Y44381*X64859Y44386*X66078Y41948D2*X66004Y41857D1*X65923Y41770*X65834Y41692*X65743Y41620*X65644Y41557*X65540Y41499*X65433Y41450*X65324Y41410*X65209Y41379*X65093Y41356*X64976Y41344*X64859Y41338*X63619Y41976D2*X63693Y41882D1*X63774Y41793*X63863Y41709*X63957Y41633*X64056Y41567*X64160Y41509*X64272Y41455*X64384Y41415*X64501Y41382*X64618Y41359*X64740Y41344*X64859Y41338*X66063Y43797D2*X65987Y43886D1*X65908Y43970*X65819Y44046*X65728Y44115*X65631Y44176*X65529Y44232*X65423Y44277*X65314Y44318*X65202Y44348*X65090Y44369*X64973Y44381*X64859Y44386*X62573Y38481D2*X62573Y42164D1*X60795Y42164D2*X60795Y38481D1*X56035Y43797D2*X56111Y43886D1*X56190Y43970*X56279Y44046*X56370Y44115*X56467Y44176*X56568Y44232*X56675Y44277*X56784Y44318*X56896Y44348*X57008Y44369*X57125Y44381*X57239Y44386*X58458Y41948D2*X58384Y41857D1*X58303Y41770*X58214Y41692*X58123Y41620*X58024Y41557*X57920Y41499*X57813Y41450*X57704Y41410*X57589Y41379*X57473Y41356*X57356Y41344*X57239Y41338*X55999Y41976D2*X56073Y41882D1*X56154Y41793*X56243Y41709*X56337Y41633*X56436Y41567*X56540Y41509*X56652Y41455*X56764Y41415*X56881Y41382*X56998Y41359*X57120Y41344*X57239Y41338*X58443Y43797D2*X58367Y43886D1*X58288Y43970*X58199Y44046*X58108Y44115*X58011Y44176*X57909Y44232*X57803Y44277*X57694Y44318*X57582Y44348*X57470Y44369*X57353Y44381*X57239Y44386*X54953Y38481D2*X54953Y42164D1*X53175Y42164D2*X53175Y38481D1*X48415Y43797D2*X48491Y43886D1*X48570Y43970*X48659Y44046*X48750Y44115*X48847Y44176*X48948Y44232*X49055Y44277*X49164Y44318*X49276Y44348*X49388Y44369*X49505Y44381*X49619Y44386*X50838Y41948D2*X50764Y41857D1*X50683Y41770*X50594Y41692*X50503Y41620*X50404Y41557*X50300Y41499*X50193Y41450*X50084Y41410*X49969Y41379*X49853Y41356*X49736Y41344*X49619Y41338*X48379Y41976D2*X48453Y41882D1*X48534Y41793*X48623Y41709*X48717Y41633*X48816Y41567*X48920Y41509*X49032Y41455*X49144Y41415*X49261Y41382*X49378Y41359*X49500Y41344*X49619Y41338*X50823Y43797D2*X50747Y43886D1*X50668Y43970*X50579Y44046*X50488Y44115*X50391Y44176*X50289Y44232*X50183Y44277*X50074Y44318*X49962Y44348*X49850Y44369*X49733Y44381*X49619Y44386*X47333Y38481D2*X47333Y42164D1*X45555Y42164D2*X45555Y38481D1*X40795Y43797D2*X40871Y43886D1*X40950Y43970*X41039Y44046*X41130Y44115*X41227Y44176*X41328Y44232*X41435Y44277*X41544Y44318*X41656Y44348*X41768Y44369*X41885Y44381*X41999Y44386*X43218Y41948D2*X43144Y41857D1*X43063Y41770*X42974Y41692*X42883Y41620*X42784Y41557*X42680Y41499*X42573Y41450*X42464Y41410*X42349Y41379*X42233Y41356*X42116Y41344*X41999Y41338*X40759Y41976D2*X40833Y41882D1*X40914Y41793*X41003Y41709*X41097Y41633*X41196Y41567*X41300Y41509*X41412Y41455*X41524Y41415*X41641Y41382*X41758Y41359*X41880Y41344*X41999Y41338*X43203Y43797D2*X43127Y43886D1*X43048Y43970*X42959Y44046*X42868Y44115*X42771Y44176*X42669Y44232*X42563Y44277*X42454Y44318*X42342Y44348*X42230Y44369*X42113Y44381*X41999Y44386*X39713Y38481D2*X39713Y42164D1*X37935Y42164D2*X37935Y38481D1*X33299Y42164D2*X33299Y48006D1*X31013Y48006D2*X31013Y42164D1*X21107Y54991D2*X21107Y58674D1*X22885Y58674D2*X22885Y54991D1*X26822Y54991D2*X26822Y58674D1*X28600Y58674D2*X28600Y54991D1*X32537Y54991D2*X32537Y58674D1*X34315Y58674D2*X34315Y54991D1*X38252Y54991D2*X38252Y58674D1*X40030Y58674D2*X40030Y54991D1*X43967Y54991D2*X43967Y58674D1*X45745Y58674D2*X45745Y54991D1*X49682Y54991D2*X49682Y58674D1*X51460Y58674D2*X51460Y54991D1*X55397Y54991D2*X55397Y58674D1*X57175Y58674D2*X57175Y54991D1*X61112Y54991D2*X61112Y58674D1*X62890Y58674D2*X62890Y54991D1*X71907Y54991D2*X71907Y58674D1*X73685Y58674D2*X73685Y54991D1*X77622Y54991D2*X77622Y58674D1*X79400Y58674D2*X79400Y54991D1*X83337Y54991D2*X83337Y58674D1*X85115Y58674D2*X85115Y54991D1*X89052Y54991D2*X89052Y58674D1*X90830Y58674D2*X90830Y54991D1*X94767Y54991D2*X94767Y58674D1*X96545Y58674D2*X96545Y54991D1*X100482Y54991D2*X100482Y58674D1*X102260Y58674D2*X102260Y54991D1*X106197Y54991D2*X106197Y58674D1*X107975Y58674D2*X107975Y54991D1*X111912Y54991D2*X111912Y58674D1*X113690Y58674D2*X113690Y54991D1*X113690Y61658D2*X113690Y65342D1*X111912Y65342D2*X111912Y61658D1*X107975Y61658D2*X107975Y65342D1*X106197Y65342D2*X106197Y61658D1*X102260Y61658D2*X102260Y65342D1*X100482Y65342D2*X100482Y61658D1*X96545Y61658D2*X96545Y65342D1*X94767Y65342D2*X94767Y61658D1*X90830Y61658D2*X90830Y65342D1*X89052Y65342D2*X89052Y61658D1*X85115Y61658D2*X85115Y65342D1*X83337Y65342D2*X83337Y61658D1*X77622Y61658D2*X77622Y65342D1*X79400Y65342D2*X79400Y61658D1*X79527Y71120D2*X79532Y71239D1*X79548Y71361*X79571Y71478*X79604Y71595*X79644Y71707*X79698Y71818*X79756Y71923*X79822Y72022*X79898Y72116*X79982Y72205*X80071Y72286*X80165Y72360*X82575Y71120D2*X82570Y71234D1*X82558Y71351*X82537Y71463*X82507Y71575*X82466Y71684*X82420Y71791*X82365Y71892*X82304Y71989*X82235Y72080*X82159Y72169*X82075Y72248*X81986Y72324*X79527Y71120D2*X79532Y71003D1*X79545Y70886*X79568Y70769*X79599Y70655*X79639Y70546*X79687Y70439*X79746Y70335*X79809Y70236*X79880Y70145*X79959Y70056*X80046Y69974*X80137Y69901*X85242Y71120D2*X85247Y71239D1*X85263Y71361*X85286Y71478*X85319Y71595*X85359Y71707*X85413Y71818*X85471Y71923*X85537Y72022*X85613Y72116*X85697Y72205*X85786Y72286*X85880Y72360*X88290Y71120D2*X88285Y71234D1*X88273Y71351*X88252Y71463*X88222Y71575*X88181Y71684*X88135Y71791*X88080Y71892*X88019Y71989*X87950Y72080*X87874Y72169*X87790Y72248*X87701Y72324*X85242Y71120D2*X85247Y71003D1*X85260Y70886*X85283Y70769*X85314Y70655*X85354Y70546*X85402Y70439*X85461Y70335*X85524Y70236*X85595Y70145*X85674Y70056*X85761Y69974*X85852Y69901*X90957Y71120D2*X90962Y71239D1*X90978Y71361*X91001Y71478*X91034Y71595*X91074Y71707*X91128Y71818*X91186Y71923*X91252Y72022*X91328Y72116*X91412Y72205*X91501Y72286*X91595Y72360*X94005Y71120D2*X94000Y71234D1*X93988Y71351*X93967Y71463*X93937Y71575*X93896Y71684*X93850Y71791*X93795Y71892*X93734Y71989*X93665Y72080*X93589Y72169*X93505Y72248*X93416Y72324*X90957Y71120D2*X90962Y71003D1*X90975Y70886*X90998Y70769*X91029Y70655*X91069Y70546*X91117Y70439*X91176Y70335*X91239Y70236*X91310Y70145*X91389Y70056*X91476Y69974*X91567Y69901*X96672Y71120D2*X96677Y71239D1*X96693Y71361*X96716Y71478*X96749Y71595*X96789Y71707*X96843Y71818*X96901Y71923*X96967Y72022*X97043Y72116*X97127Y72205*X97216Y72286*X97310Y72360*X99720Y71120D2*X99715Y71234D1*X99703Y71351*X99682Y71463*X99652Y71575*X99611Y71684*X99565Y71791*X99510Y71892*X99449Y71989*X99380Y72080*X99304Y72169*X99220Y72248*X99131Y72324*X96672Y71120D2*X96677Y71003D1*X96690Y70886*X96713Y70769*X96744Y70655*X96784Y70546*X96832Y70439*X96891Y70335*X96954Y70236*X97025Y70145*X97104Y70056*X97191Y69974*X97282Y69901*X102387Y71120D2*X102392Y71239D1*X102408Y71361*X102431Y71478*X102464Y71595*X102504Y71707*X102558Y71818*X102616Y71923*X102682Y72022*X102758Y72116*X102842Y72205*X102931Y72286*X103025Y72360*X105435Y71120D2*X105430Y71234D1*X105418Y71351*X105397Y71463*X105367Y71575*X105326Y71684*X105280Y71791*X105225Y71892*X105164Y71989*X105095Y72080*X105019Y72169*X104935Y72248*X104846Y72324*X102387Y71120D2*X102392Y71003D1*X102405Y70886*X102428Y70769*X102459Y70655*X102499Y70546*X102547Y70439*X102606Y70335*X102669Y70236*X102740Y70145*X102819Y70056*X102906Y69974*X102997Y69901*X108102Y71120D2*X108107Y71239D1*X108123Y71361*X108146Y71478*X108179Y71595*X108219Y71707*X108273Y71818*X108331Y71923*X108397Y72022*X108473Y72116*X108557Y72205*X108646Y72286*X108740Y72360*X111150Y71120D2*X111145Y71234D1*X111133Y71351*X111112Y71463*X111082Y71575*X111041Y71684*X110995Y71791*X110940Y71892*X110879Y71989*X110810Y72080*X110734Y72169*X110650Y72248*X110561Y72324*X108102Y71120D2*X108107Y71003D1*X108120Y70886*X108143Y70769*X108174Y70655*X108214Y70546*X108262Y70439*X108321Y70335*X108384Y70236*X108455Y70145*X108534Y70056*X108621Y69974*X108712Y69901*X113817Y71120D2*X113822Y71239D1*X113838Y71361*X113861Y71478*X113894Y71595*X113934Y71707*X113988Y71818*X114046Y71923*X114112Y72022*X114188Y72116*X114272Y72205*X114361Y72286*X114455Y72360*X116865Y71120D2*X116860Y71234D1*X116848Y71351*X116827Y71463*X116797Y71575*X116756Y71684*X116710Y71791*X116655Y71892*X116594Y71989*X116525Y72080*X116449Y72169*X116365Y72248*X116276Y72324*X113817Y71120D2*X113822Y71003D1*X113835Y70886*X113858Y70769*X113889Y70655*X113929Y70546*X113977Y70439*X114036Y70335*X114099Y70236*X114170Y70145*X114249Y70056*X114336Y69974*X114427Y69901*X116865Y71120D2*X116860Y71006D1*X116848Y70889*X116827Y70777*X116797Y70665*X116756Y70556*X116710Y70449*X116655Y70348*X116594Y70251*X116525Y70160*X116449Y70071*X116365Y69992*X116276Y69916*X113690Y68008D2*X113690Y71692D1*X111912Y71692D2*X111912Y68008D1*X111150Y71120D2*X111145Y71006D1*X111133Y70889*X111112Y70777*X111082Y70665*X111041Y70556*X110995Y70449*X110940Y70348*X110879Y70251*X110810Y70160*X110734Y70071*X110650Y69992*X110561Y69916*X107975Y68008D2*X107975Y71692D1*X106197Y71692D2*X106197Y68008D1*X105435Y71120D2*X105430Y71006D1*X105418Y70889*X105397Y70777*X105367Y70665*X105326Y70556*X105280Y70449*X105225Y70348*X105164Y70251*X105095Y70160*X105019Y70071*X104935Y69992*X104846Y69916*X102260Y68008D2*X102260Y71692D1*X100482Y71692D2*X100482Y68008D1*X99720Y71120D2*X99715Y71006D1*X99703Y70889*X99682Y70777*X99652Y70665*X99611Y70556*X99565Y70449*X99510Y70348*X99449Y70251*X99380Y70160*X99304Y70071*X99220Y69992*X99131Y69916*X96545Y68008D2*X96545Y71692D1*X94767Y71692D2*X94767Y68008D1*X94005Y71120D2*X94000Y71006D1*X93988Y70889*X93967Y70777*X93937Y70665*X93896Y70556*X93850Y70449*X93795Y70348*X93734Y70251*X93665Y70160*X93589Y70071*X93505Y69992*X93416Y69916*X90830Y68008D2*X90830Y71692D1*X89052Y71692D2*X89052Y68008D1*X88290Y71120D2*X88285Y71006D1*X88273Y70889*X88252Y70777*X88222Y70665*X88181Y70556*X88135Y70449*X88080Y70348*X88019Y70251*X87950Y70160*X87874Y70071*X87790Y69992*X87701Y69916*X85115Y68008D2*X85115Y71692D1*X83337Y71692D2*X83337Y68008D1*X82575Y71120D2*X82570Y71006D1*X82558Y70889*X82537Y70777*X82507Y70665*X82466Y70556*X82420Y70449*X82365Y70348*X82304Y70251*X82235Y70160*X82159Y70071*X82075Y69992*X81986Y69916*X79400Y68008D2*X79400Y71692D1*X77622Y71692D2*X77622Y68008D1*X74422Y69901D2*X74331Y69974D1*X74244Y70056*X74165Y70145*X74094Y70236*X74031Y70335*X73972Y70439*X73924Y70546*X73884Y70655*X73853Y70769*X73830Y70886*X73817Y71003*X73812Y71120*X76271Y72324D2*X76360Y72248D1*X76444Y72169*X76520Y72080*X76589Y71989*X76650Y71892*X76705Y71791*X76751Y71684*X76792Y71575*X76822Y71463*X76843Y71351*X76855Y71234*X76860Y71120*X76271Y69916D2*X76360Y69992D1*X76444Y70071*X76520Y70160*X76589Y70251*X76650Y70348*X76705Y70449*X76751Y70556*X76792Y70665*X76822Y70777*X76843Y70889*X76855Y71006*X76860Y71120*X74450Y72360D2*X74356Y72286D1*X74267Y72205*X74183Y72116*X74107Y72022*X74041Y71923*X73983Y71818*X73929Y71707*X73889Y71595*X73856Y71478*X73833Y71361*X73817Y71239*X73812Y71120*X71907Y71692D2*X71907Y68008D1*X73685Y68008D2*X73685Y71692D1*X73685Y61658D2*X73685Y65342D1*X71907Y65342D2*X71907Y61658D1*X70129Y58356D2*X70129Y64198D1*X67843Y64198D2*X67843Y58356D1*X62890Y61658D2*X62890Y65342D1*X61112Y65342D2*X61112Y61658D1*X57175Y61658D2*X57175Y65342D1*X55397Y65342D2*X55397Y61658D1*X51460Y61658D2*X51460Y65342D1*X49682Y65342D2*X49682Y61658D1*X45745Y61658D2*X45745Y65342D1*X43967Y65342D2*X43967Y61658D1*X40030Y61658D2*X40030Y65342D1*X38252Y65342D2*X38252Y61658D1*X34315Y61658D2*X34315Y65342D1*X32537Y65342D2*X32537Y61658D1*X28600Y61658D2*X28600Y65342D1*X26822Y65342D2*X26822Y61658D1*X23012Y71120D2*X23017Y71003D1*X23030Y70886*X23053Y70769*X23084Y70655*X23124Y70546*X23172Y70439*X23231Y70335*X23294Y70236*X23365Y70145*X23444Y70056*X23531Y69974*X23622Y69901*X28727Y71120D2*X28732Y71239D1*X28748Y71361*X28771Y71478*X28804Y71595*X28844Y71707*X28898Y71818*X28956Y71923*X29022Y72022*X29098Y72116*X29182Y72205*X29271Y72286*X29365Y72360*X31775Y71120D2*X31770Y71234D1*X31758Y71351*X31737Y71463*X31707Y71575*X31666Y71684*X31620Y71791*X31565Y71892*X31504Y71989*X31435Y72080*X31359Y72169*X31275Y72248*X31186Y72324*X28727Y71120D2*X28732Y71003D1*X28745Y70886*X28768Y70769*X28799Y70655*X28839Y70546*X28887Y70439*X28946Y70335*X29009Y70236*X29080Y70145*X29159Y70056*X29246Y69974*X29337Y69901*X34442Y71120D2*X34447Y71239D1*X34463Y71361*X34486Y71478*X34519Y71595*X34559Y71707*X34613Y71818*X34671Y71923*X34737Y72022*X34813Y72116*X34897Y72205*X34986Y72286*X35080Y72360*X37490Y71120D2*X37485Y71234D1*X37473Y71351*X37452Y71463*X37422Y71575*X37381Y71684*X37335Y71791*X37280Y71892*X37219Y71989*X37150Y72080*X37074Y72169*X36990Y72248*X36901Y72324*X34442Y71120D2*X34447Y71003D1*X34460Y70886*X34483Y70769*X34514Y70655*X34554Y70546*X34602Y70439*X34661Y70335*X34724Y70236*X34795Y70145*X34874Y70056*X34961Y69974*X35052Y69901*X40157Y71120D2*X40162Y71239D1*X40178Y71361*X40201Y71478*X40234Y71595*X40274Y71707*X40328Y71818*X40386Y71923*X40452Y72022*X40528Y72116*X40612Y72205*X40701Y72286*X40795Y72360*X43205Y71120D2*X43200Y71234D1*X43188Y71351*X43167Y71463*X43137Y71575*X43096Y71684*X43050Y71791*X42995Y71892*X42934Y71989*X42865Y72080*X42789Y72169*X42705Y72248*X42616Y72324*X40157Y71120D2*X40162Y71003D1*X40175Y70886*X40198Y70769*X40229Y70655*X40269Y70546*X40317Y70439*X40376Y70335*X40439Y70236*X40510Y70145*X40589Y70056*X40676Y69974*X40767Y69901*X45872Y71120D2*X45877Y71239D1*X45893Y71361*X45916Y71478*X45949Y71595*X45989Y71707*X46043Y71818*X46101Y71923*X46167Y72022*X46243Y72116*X46327Y72205*X46416Y72286*X46510Y72360*X48920Y71120D2*X48915Y71234D1*X48903Y71351*X48882Y71463*X48852Y71575*X48811Y71684*X48765Y71791*X48710Y71892*X48649Y71989*X48580Y72080*X48504Y72169*X48420Y72248*X48331Y72324*X45872Y71120D2*X45877Y71003D1*X45890Y70886*X45913Y70769*X45944Y70655*X45984Y70546*X46032Y70439*X46091Y70335*X46154Y70236*X46225Y70145*X46304Y70056*X46391Y69974*X46482Y69901*X51587Y71120D2*X51592Y71239D1*X51608Y71361*X51631Y71478*X51664Y71595*X51704Y71707*X51758Y71818*X51816Y71923*X51882Y72022*X51958Y72116*X52042Y72205*X52131Y72286*X52225Y72360*X54635Y71120D2*X54630Y71234D1*X54618Y71351*X54597Y71463*X54567Y71575*X54526Y71684*X54480Y71791*X54425Y71892*X54364Y71989*X54295Y72080*X54219Y72169*X54135Y72248*X54046Y72324*X51587Y71120D2*X51592Y71003D1*X51605Y70886*X51628Y70769*X51659Y70655*X51699Y70546*X51747Y70439*X51806Y70335*X51869Y70236*X51940Y70145*X52019Y70056*X52106Y69974*X52197Y69901*X57302Y71120D2*X57307Y71239D1*X57323Y71361*X57346Y71478*X57379Y71595*X57419Y71707*X57473Y71818*X57531Y71923*X57597Y72022*X57673Y72116*X57757Y72205*X57846Y72286*X57940Y72360*X60350Y71120D2*X60345Y71234D1*X60333Y71351*X60312Y71463*X60282Y71575*X60241Y71684*X60195Y71791*X60140Y71892*X60079Y71989*X60010Y72080*X59934Y72169*X59850Y72248*X59761Y72324*X57302Y71120D2*X57307Y71003D1*X57320Y70886*X57343Y70769*X57374Y70655*X57414Y70546*X57462Y70439*X57521Y70335*X57584Y70236*X57655Y70145*X57734Y70056*X57821Y69974*X57912Y69901*X63017Y71120D2*X63022Y71239D1*X63038Y71361*X63061Y71478*X63094Y71595*X63134Y71707*X63188Y71818*X63246Y71923*X63312Y72022*X63388Y72116*X63472Y72205*X63561Y72286*X63655Y72360*X66065Y71120D2*X66060Y71234D1*X66048Y71351*X66027Y71463*X65997Y71575*X65956Y71684*X65910Y71791*X65855Y71892*X65794Y71989*X65725Y72080*X65649Y72169*X65565Y72248*X65476Y72324*X63017Y71120D2*X63022Y71003D1*X63035Y70886*X63058Y70769*X63089Y70655*X63129Y70546*X63177Y70439*X63236Y70335*X63299Y70236*X63370Y70145*X63449Y70056*X63536Y69974*X63627Y69901*X66065Y71120D2*X66060Y71006D1*X66048Y70889*X66027Y70777*X65997Y70665*X65956Y70556*X65910Y70449*X65855Y70348*X65794Y70251*X65725Y70160*X65649Y70071*X65565Y69992*X65476Y69916*X62890Y68008D2*X62890Y71692D1*X61112Y71692D2*X61112Y68008D1*X60350Y71120D2*X60345Y71006D1*X60333Y70889*X60312Y70777*X60282Y70665*X60241Y70556*X60195Y70449*X60140Y70348*X60079Y70251*X60010Y70160*X59934Y70071*X59850Y69992*X59761Y69916*X57175Y68008D2*X57175Y71692D1*X55397Y71692D2*X55397Y68008D1*X54635Y71120D2*X54630Y71006D1*X54618Y70889*X54597Y70777*X54567Y70665*X54526Y70556*X54480Y70449*X54425Y70348*X54364Y70251*X54295Y70160*X54219Y70071*X54135Y69992*X54046Y69916*X51460Y68008D2*X51460Y71692D1*X49682Y71692D2*X49682Y68008D1*X48920Y71120D2*X48915Y71006D1*X48903Y70889*X48882Y70777*X48852Y70665*X48811Y70556*X48765Y70449*X48710Y70348*X48649Y70251*X48580Y70160*X48504Y70071*X48420Y69992*X48331Y69916*X45745Y68008D2*X45745Y71692D1*X43967Y71692D2*X43967Y68008D1*X43205Y71120D2*X43200Y71006D1*X43188Y70889*X43167Y70777*X43137Y70665*X43096Y70556*X43050Y70449*X42995Y70348*X42934Y70251*X42865Y70160*X42789Y70071*X42705Y69992*X42616Y69916*X40030Y68008D2*X40030Y71692D1*X38252Y71692D2*X38252Y68008D1*X37490Y71120D2*X37485Y71006D1*X37473Y70889*X37452Y70777*X37422Y70665*X37381Y70556*X37335Y70449*X37280Y70348*X37219Y70251*X37150Y70160*X37074Y70071*X36990Y69992*X36901Y69916*X34315Y68008D2*X34315Y71692D1*X32537Y71692D2*X32537Y68008D1*X31775Y71120D2*X31770Y71006D1*X31758Y70889*X31737Y70777*X31707Y70665*X31666Y70556*X31620Y70449*X31565Y70348*X31504Y70251*X31435Y70160*X31359Y70071*X31275Y69992*X31186Y69916*X28600Y68008D2*X28600Y71692D1*X26822Y71692D2*X26822Y68008D1*X25471Y72324D2*X25560Y72248D1*X25644Y72169*X25720Y72080*X25789Y71989*X25850Y71892*X25905Y71791*X25951Y71684*X25992Y71575*X26022Y71463*X26043Y71351*X26055Y71234*X26060Y71120*X25471Y69916D2*X25560Y69992D1*X25644Y70071*X25720Y70160*X25789Y70251*X25850Y70348*X25905Y70449*X25951Y70556*X25992Y70665*X26022Y70777*X26043Y70889*X26055Y71006*X26060Y71120*X23650Y72360D2*X23556Y72286D1*X23467Y72205*X23383Y72116*X23307Y72022*X23241Y71923*X23183Y71818*X23129Y71707*X23089Y71595*X23056Y71478*X23033Y71361*X23017Y71239*X23012Y71120*X21107Y61658D2*X21107Y65342D1*X22885Y65342D2*X22885Y61658D1*X22885Y71692D2*X22885Y68008D1*X21107Y68008D2*X21107Y71692D1*X15265Y72962D2*X15265Y69278D1*X13487Y69278D2*X13487Y72962D1*X13360Y72962D2*X13360Y69278D1*X11582Y69278D2*X11582Y72962D1*X10490Y60589D2*X9949Y61133D1*X9406Y61133*X8865Y60589*X9406Y58953D2*X8865Y59494D1*X10490Y59494*X10490Y58953D2*X10490Y60038D1*X10490Y58405D2*X9949Y57861D1*X9406Y57861*X8865Y58405*D120*X119151Y53022D2*X83274Y53022D1*X71526Y53022*X71526Y77470*X71526Y104775*X67081Y104775D2*X67081Y77470D1*X67081Y53022*X61049Y53022*X55334Y53022*X49619Y53022*X43904Y53022*X38189Y53022*X15646Y89852D2*X15646Y108902D1*X8344Y108902*X8026Y108902D2*X8026Y89852D1*X15646Y89852*X15646Y85725D2*X15646Y66992D1*X15329Y85725D2*X8026Y85725D1*X8026Y66992*X15646Y66992*X19774Y53022D2*X32474Y53022D1*X38189Y53022*X37554Y17780D2*X37554Y32702D1*X37554Y46990*X98831Y46990*X98831Y32702*X98831Y19050*D121*X40292Y12807D2*X40292Y14481D1*X42972Y14481D2*X42972Y12471D1*X42304Y14481D2*X43642Y14481D1*X41631Y14481D2*X41631Y12807D1*X41295Y12471*X40625Y12471*X40292Y12807*X38280Y13142D2*X39284Y13142D1*X39619Y13475*X39619Y14145*X39284Y14481*X38280Y14481*X38280Y12471*X36939Y14481D2*X36939Y12471D1*X36269Y14481D2*X37607Y14481D1*X35596Y14481D2*X35596Y12807D1*X35260Y12471*X34592Y12471*X34257Y12807*X34257Y14481*X32581Y14481D2*X33251Y14481D1*X33584Y14145*X33584Y12807*X33251Y12471*X32581Y12471*X32245Y12807*X32245Y14145*X32581Y14481*X21201Y109677D2*X21201Y110348D1*X20869Y110683*X19863Y110683*X19863Y108674*X19863Y109344D2*X20869Y109344D1*X21201Y109677*X23213Y109009D2*X22878Y108674D1*X22210Y108674*X21874Y109009*X21874Y110348*X22210Y110683*X22878Y110683*X23213Y110348*X23213Y109009*X24889Y109344D2*X25225Y109677D1*X25225Y110348*X24889Y110683*X23886Y110683*X23886Y108674*X24889Y109344D2*X23886Y109344D1*X25225Y108674D2*X24557Y109344D1*X26566Y110683D2*X26566Y108674D1*X27236Y110683D2*X25898Y110683D1*X29921Y110012D2*X30589Y110683D1*X30589Y108674*X31260Y108674D2*X29921Y108674D1*X71366Y109677D2*X71366Y110348D1*X71034Y110683*X70028Y110683*X70028Y108674*X70028Y109344D2*X71034Y109344D1*X71366Y109677*X73378Y109009D2*X73043Y108674D1*X72375Y108674*X72039Y109009*X72039Y110348*X72375Y110683*X73043Y110683*X73378Y110348*X73378Y109009*X75054Y109344D2*X75390Y109677D1*X75390Y110348*X75054Y110683*X74051Y110683*X74051Y108674*X75054Y109344D2*X74051Y109344D1*X75390Y108674D2*X74722Y109344D1*X76731Y110683D2*X76731Y108674D1*X77401Y110683D2*X76063Y110683D1*X81425Y110348D2*X81090Y110683D1*X80419Y110683*X80086Y110348*X80086Y109009*X81090Y108674D2*X81425Y109009D1*X81425Y110348*X80086Y109009*X80419Y108674*X81090Y108674*D122*X37236Y17462D2*X19774Y53022D1*X19774Y104775*X26759Y104775*X32474Y104775*X38189Y104775*X43904Y104775*X49619Y104775*X55334Y104775*X61049Y104775*X67081Y104775*X71526Y104775*X77559Y104775*X83274Y104775*X88989Y104775*X94704Y104775*X100419Y104775*X106134Y104775*X111849Y104775*X119151Y104775*X119151Y77470*X119151Y53022*X99466Y17462*X90894Y17462*X45174Y17462*X37236Y17462*X0Y0D2*M02*