%
M48
M72
T01C0.0197
T02C0.0276
T03C0.0315
T04C0.0433
T05C0.0472
T06C0.1160
T07C0.1260
%
T01
X18160Y19625
X18660Y19750
X16410Y20000
X14160Y20250
X11910Y20500
X20910Y19500
X22660Y19250
X23160Y19250
X24910Y19000
X25410Y19000
X24785Y13750
X27785Y13750
X30785Y13750
X33785Y13750
X39410Y11625
X41285Y13625
X40910Y14375
X38160Y19375
X39285Y19875
X41910Y19875
X44910Y22125
X35910Y19375
X33160Y29500
X31285Y29500
X27160Y29500
X25410Y29750
X24910Y28000
X23160Y30000
X22660Y29250
X20910Y30250
X18660Y30250
X18160Y29625
X16410Y30750
X14160Y31000
X11910Y31250
X9660Y31625
X10160Y40125
X11410Y40625
X13160Y41750
X13660Y42125
X14660Y42000
X15160Y43000
X16160Y42375
X16660Y42500
X17535Y43000
X18160Y43000
X18660Y42750
X19160Y42500
X20660Y42250
X21160Y42125
X21660Y42500
X22160Y42250
X22660Y40625
X23660Y40625
X24910Y42750
X25910Y41875
X26660Y42250
X31410Y40750
X33285Y41750
X33660Y42250
X34660Y41875
X34160Y40625
X35160Y40250
X36160Y42500
X36660Y42750
X37410Y43000
X38160Y43000
X38660Y42750
X39160Y42500
X40660Y42250
X41160Y42250
X41660Y42500
X42285Y42250
X42660Y40750
X40410Y40750
X39785Y40500
X35160Y43000
X44910Y42875
X20410Y40750
X19910Y40500
X16910Y40500
X15410Y40625
X14160Y40750
X7160Y40500
T02
X4160Y40625
X3660Y40125
X3660Y39125
X4160Y38625
X3660Y38125
X3660Y37125
X4160Y36625
X3660Y36125
X3660Y32000
X4160Y31500
X3660Y31000
X3660Y30000
X4160Y29500
X3660Y29000
X3660Y28000
X4160Y27500
X3660Y27000
X9660Y26625
X10160Y26125
X9660Y25625
X9660Y24625
X10160Y24125
X9660Y23625
X9660Y22625
X10160Y22125
X9660Y21625
X11910Y21625
X12410Y22125
X11910Y22625
X11910Y23625
X12410Y24125
X11910Y24625
X11910Y25625
X12410Y26125
X11910Y26625
X14160Y26625
X14660Y26125
X14160Y25625
X14160Y24625
X14660Y24125
X14160Y23625
X14160Y22625
X14660Y22125
X14160Y21625
X16410Y21625
X16910Y22125
X16410Y22625
X16410Y23625
X16910Y24125
X16410Y24625
X16410Y25625
X16910Y26125
X16410Y26625
X18660Y26625
X19160Y26125
X18660Y25625
X18660Y24625
X19160Y24125
X18660Y23625
X18660Y22625
X19160Y22125
X18660Y21625
X20910Y21625
X21410Y22125
X20910Y22625
X20910Y23625
X21410Y24125
X20910Y24625
X20910Y25625
X21410Y26125
X20910Y26625
X23160Y26625
X23660Y26125
X23160Y25625
X23160Y24625
X23660Y24125
X23160Y23625
X23160Y22625
X23660Y22125
X23160Y21625
X25410Y21625
X25910Y22125
X25410Y22625
X25410Y23625
X25910Y24125
X25410Y24625
X25410Y25625
X25910Y26125
X25410Y26625
X29660Y26625
X30160Y26125
X29660Y25625
X29660Y24625
X30160Y24125
X29660Y23625
X29660Y22625
X30160Y22125
X29660Y21625
X31910Y21625
X32410Y22125
X31910Y22625
X31910Y23625
X32410Y24125
X31910Y24625
X31910Y25625
X32410Y26125
X31910Y26625
X34160Y26625
X34660Y26125
X34160Y25625
X34160Y24625
X34660Y24125
X34160Y23625
X34160Y22625
X34660Y22125
X34160Y21625
X36410Y21625
X36910Y22125
X36410Y22625
X36410Y23625
X36910Y24125
X36410Y24625
X36410Y25625
X36910Y26125
X36410Y26625
X38660Y26625
X39160Y26125
X38660Y25625
X38660Y24625
X39160Y24125
X38660Y23625
X38660Y22625
X39160Y22125
X38660Y21625
X40910Y21625
X41410Y22125
X40910Y22625
X40910Y23625
X41410Y24125
X40910Y24625
X40910Y25625
X41410Y26125
X40910Y26625
X43160Y26625
X43660Y26125
X43160Y25625
X43160Y24625
X43660Y24125
X43160Y23625
X43160Y22625
X43660Y22125
X43160Y21625
X45410Y21625
X45910Y22125
X45410Y22625
X45410Y23625
X45910Y24125
X45410Y24625
X45410Y25625
X45910Y26125
X45410Y26625
X45410Y32375
X45910Y32875
X45410Y33375
X45410Y34375
X45910Y34875
X45410Y35375
X45410Y36375
X45910Y36875
X45410Y37375
X43660Y36875
X43160Y36375
X43160Y35375
X43660Y34875
X43160Y34375
X43160Y33375
X43660Y32875
X43160Y32375
X41410Y32875
X40910Y32375
X40910Y33375
X40910Y34375
X41410Y34875
X40910Y35375
X40910Y36375
X41410Y36875
X40910Y37375
X39160Y36875
X38660Y36375
X38660Y35375
X39160Y34875
X38660Y34375
X38660Y33375
X39160Y32875
X38660Y32375
X36910Y32875
X36410Y32375
X36410Y33375
X36410Y34375
X36910Y34875
X36410Y35375
X36410Y36375
X36910Y36875
X36410Y37375
X34660Y36875
X34160Y36375
X34160Y35375
X34660Y34875
X34160Y34375
X34160Y33375
X34660Y32875
X34160Y32375
X32410Y32875
X31910Y32375
X31910Y33375
X31910Y34375
X32410Y34875
X31910Y35375
X31910Y36375
X32410Y36875
X31910Y37375
X30160Y36875
X29660Y36375
X29660Y35375
X30160Y34875
X29660Y34375
X29660Y33375
X30160Y32875
X29660Y32375
X25910Y32875
X25410Y32375
X25410Y33375
X25410Y34375
X25910Y34875
X25410Y35375
X25410Y36375
X25910Y36875
X25410Y37375
X23660Y36875
X23160Y36375
X23160Y35375
X23660Y34875
X23160Y34375
X23160Y33375
X23660Y32875
X23160Y32375
X21410Y32875
X20910Y32375
X20910Y33375
X20910Y34375
X21410Y34875
X20910Y35375
X20910Y36375
X21410Y36875
X20910Y37375
X19160Y36875
X18660Y36375
X18660Y35375
X19160Y34875
X18660Y34375
X18660Y33375
X19160Y32875
X18660Y32375
X16910Y32875
X16410Y32375
X16410Y33375
X16410Y34375
X16910Y34875
X16410Y35375
X16410Y36375
X16910Y36875
X16410Y37375
X14660Y36875
X14160Y36375
X14160Y35375
X14660Y34875
X14160Y34375
X14160Y33375
X14660Y32875
X14160Y32375
X12410Y32875
X11910Y32375
X11910Y33375
X11910Y34375
X12410Y34875
X11910Y35375
X11910Y36375
X12410Y36875
X11910Y37375
X10160Y36875
X9660Y36375
X9660Y35375
X10160Y34875
X9660Y34375
X9660Y33375
X10160Y32875
X9660Y32375
X9660Y37375
X14160Y37375
X18660Y37375
X23160Y37375
X29660Y37375
X34160Y37375
X38660Y37375
X43160Y37375
X37785Y15625
X37285Y15125
X38285Y15125
X35285Y15125
X34785Y15625
X34285Y15125
X32285Y15125
X31785Y15625
X31285Y15125
X29285Y15125
X28785Y15625
X28285Y15125
X26285Y15125
X25785Y15625
X25285Y15125
X23285Y15125
X22785Y15625
X22285Y15125
X20285Y15125
X19785Y15625
X19285Y15125
X17285Y15125
X16785Y15625
X16285Y15125
X16785Y9750
X16285Y9250
X17285Y9250
X19285Y9250
X19785Y9750
X20285Y9250
X22285Y9250
X22785Y9750
X23285Y9250
X25285Y9250
X25785Y9750
X26285Y9250
X28285Y9250
X28785Y9750
X29285Y9250
X31285Y9250
X31785Y9750
X32285Y9250
X34285Y9250
X34785Y9750
X35285Y9250
X37285Y9250
X37785Y9750
X38285Y9250
X3660Y41125
T03
X4910Y40875
X5660Y40875
X5660Y42125
X4660Y42125
X5160Y43750
X7160Y43750
X7785Y42125
X8785Y42125
X9660Y42125
X11660Y42125
X11910Y39250
X10910Y39250
X11910Y38250
X10910Y37250
X10910Y36750
X9660Y38250
X9660Y39250
X8660Y39250
X8660Y37250
X8660Y36750
X8660Y34750
X8660Y34125
X8660Y32125
X10910Y32125
X10910Y34125
X10910Y34750
X13160Y34750
X13160Y34125
X13160Y32125
X15410Y32125
X15410Y34125
X15410Y34750
X15410Y36750
X15410Y37250
X16410Y38250
X16410Y39250
X15410Y39250
X14160Y39250
X13160Y39250
X14160Y38250
X13160Y37250
X13160Y36750
X17660Y36750
X17660Y37250
X18660Y38250
X18660Y39250
X17660Y39250
X19910Y39250
X20910Y39250
X20910Y38250
X19910Y37250
X19910Y36750
X19910Y34750
X19910Y34125
X19910Y32125
X22160Y32125
X22160Y34125
X22160Y34750
X22160Y36750
X22160Y37250
X23160Y38250
X23160Y39250
X22160Y39250
X24410Y39250
X25410Y39250
X25410Y38250
X24410Y37250
X24410Y36750
X24410Y34750
X24410Y34125
X24410Y32125
X27410Y35875
X28660Y36750
X28660Y37250
X29660Y38250
X29660Y39250
X28660Y39250
X27410Y37875
X28660Y34750
X28660Y34125
X28660Y32125
X30910Y32125
X30910Y34125
X30910Y34750
X30910Y36750
X30910Y37250
X31910Y38250
X31910Y39250
X30910Y39250
X33160Y39250
X34160Y39250
X34160Y38250
X33160Y37250
X33160Y36750
X33160Y34750
X33160Y34125
X33160Y32125
X35410Y32125
X35410Y34125
X35410Y34750
X35410Y36750
X35410Y37250
X36410Y38250
X36410Y39250
X35410Y39250
X37660Y39250
X38660Y39250
X38660Y38250
X37660Y37250
X37660Y36750
X37660Y34750
X37660Y34125
X37660Y32125
X39910Y32125
X39910Y34125
X39910Y34750
X39910Y36750
X39910Y37250
X40910Y38250
X40910Y39250
X42160Y39250
X43160Y39250
X43160Y38250
X42160Y37250
X42160Y36750
X42160Y34750
X42160Y34125
X42160Y32125
X44410Y32125
X44410Y34125
X44410Y34750
X44410Y36750
X44410Y37250
X45410Y38250
X45410Y39250
X44410Y39250
X43535Y42000
X45535Y42000
X47660Y41750
X47660Y43750
X39910Y39250
X31410Y42125
X29410Y42125
X28660Y42125
X27660Y42125
X17660Y34750
X17660Y34125
X17660Y32125
X17660Y28500
X18660Y28500
X18660Y27500
X17660Y26500
X17660Y26000
X16410Y27500
X16410Y28500
X15410Y28500
X14160Y28500
X13160Y28500
X11910Y28500
X10910Y28500
X11910Y27500
X10910Y26500
X10910Y26000
X9660Y27500
X9660Y28500
X8660Y28500
X8660Y26500
X8660Y26000
X8660Y24000
X8660Y23375
X8660Y21375
X10910Y21375
X10910Y23375
X10910Y24000
X13160Y24000
X13160Y23375
X13160Y21375
X15410Y21375
X15410Y23375
X15410Y24000
X15410Y26000
X15410Y26500
X14160Y27500
X13160Y26500
X13160Y26000
X17660Y24000
X17660Y23375
X17660Y21375
X19910Y21375
X19910Y23375
X19910Y24000
X19910Y26000
X19910Y26500
X20910Y27500
X20910Y28500
X19910Y28500
X22160Y28500
X23160Y28500
X23160Y27500
X22160Y26500
X22160Y26000
X22160Y24000
X22160Y23375
X22160Y21375
X24410Y21375
X24410Y23375
X24410Y24000
X24410Y26000
X24410Y26500
X25410Y27500
X25410Y28500
X24410Y28500
X27160Y25125
X28660Y26000
X28660Y26500
X29660Y27500
X29660Y28500
X28660Y28500
X30910Y28500
X31910Y28500
X31910Y27500
X30910Y26500
X30910Y26000
X30910Y24000
X30910Y23375
X30910Y21375
X28660Y21375
X27160Y23125
X28660Y23375
X28660Y24000
X33160Y24000
X33160Y23375
X33160Y21375
X35410Y21375
X35410Y23375
X35410Y24000
X35410Y26000
X35410Y26500
X36410Y27500
X36410Y28500
X35410Y28500
X34160Y28500
X33160Y28500
X34160Y27500
X33160Y26500
X33160Y26000
X37660Y26000
X37660Y26500
X38660Y27500
X38660Y28500
X37660Y28500
X39910Y28500
X40910Y28500
X40910Y27500
X42160Y26500
X42160Y26000
X43160Y27500
X43160Y28500
X42160Y28500
X44410Y28500
X45410Y28500
X45410Y27500
X44410Y26500
X44410Y26000
X44410Y24000
X44410Y23375
X44410Y21375
X42160Y21375
X42160Y23375
X42160Y24000
X39910Y24000
X39910Y23375
X39910Y21375
X37660Y21375
X37660Y23375
X37660Y24000
X39910Y26000
X39910Y26500
X38035Y16875
X37035Y16875
X36285Y16875
X35035Y16875
X34035Y16875
X33285Y16875
X32035Y16875
X31035Y16875
X30285Y16875
X29035Y16875
X28035Y16875
X27285Y16875
X26035Y16875
X25035Y16875
X24285Y16875
X23035Y16875
X22035Y16875
X21285Y16875
X20035Y16875
X19035Y16875
X18285Y16875
X17035Y16875
X16035Y16875
X15285Y16875
X15285Y14875
X15285Y14125
X15285Y13375
X17285Y13375
X17285Y14125
X18285Y14125
X18285Y13375
X18285Y14875
X20285Y14125
X20285Y13375
X21285Y13375
X21285Y14125
X21285Y14875
X23285Y14125
X23285Y13375
X24285Y13375
X24285Y14125
X24285Y14875
X26285Y14125
X26285Y13375
X27285Y13375
X27285Y14125
X27285Y14875
X29285Y14125
X29285Y13375
X30285Y13375
X30285Y14125
X30285Y14875
X32285Y14125
X32285Y13375
X33285Y13375
X33285Y14125
X33285Y14875
X35285Y14125
X35285Y13375
X36285Y13375
X36285Y14125
X36285Y14875
X38285Y14125
X38285Y13375
X38035Y11000
X37035Y11000
X36285Y11000
X35035Y11000
X34035Y11000
X33285Y11000
X32035Y11000
X31035Y11000
X30285Y11000
X29035Y11000
X28035Y11000
X27285Y11000
X26035Y11000
X25035Y11000
X24285Y11000
X23035Y11000
X22035Y11000
X21285Y11000
X20035Y11000
X19035Y11000
X18285Y11000
X17035Y11000
X16035Y11000
X15285Y11000
X15285Y9000
X15285Y8250
X15285Y7500
X17285Y7500
X17285Y8250
X18285Y8250
X18285Y7500
X18285Y9000
X20285Y8250
X20285Y7500
X21285Y7500
X21285Y8250
X21285Y9000
X23285Y8250
X23285Y7500
X24285Y7500
X24285Y8250
X24285Y9000
X26285Y8250
X26285Y7500
X27285Y7500
X27285Y8250
X27285Y9000
X29285Y8250
X29285Y7500
X30285Y7500
X30285Y8250
X30285Y9000
X32285Y8250
X32285Y7500
X33285Y7500
X33285Y8250
X33285Y9000
X35285Y8250
X35285Y7500
X36285Y7500
X36285Y8250
X36285Y9000
X38285Y8250
X38285Y7500
X45160Y9500
X46160Y9500
X44910Y12500
X44910Y14500
X12660Y16750
X12660Y18750
X5660Y27000
X4910Y27000
X4910Y29000
X4910Y29750
X5660Y29750
X5660Y29000
X5660Y31750
X4910Y31750
X4660Y33000
X5660Y33000
X5660Y36125
X4910Y36125
X4910Y38125
X4910Y38875
X5660Y38875
X5660Y38125
T04
X12660Y44250
X12660Y45250
X13660Y45250
X13660Y44250
X14660Y44250
X14660Y45250
X15660Y45250
X15660Y44250
X16660Y44250
X16660Y45250
X17660Y45250
X17660Y44250
X18660Y44250
X18660Y45250
X19660Y45250
X19660Y44250
X20660Y44250
X20660Y45250
X21660Y45250
X21660Y44250
X32660Y44250
X32660Y45250
X33660Y45250
X33660Y44250
X34660Y44250
X34660Y45250
X35660Y45250
X35660Y44250
X36660Y44250
X36660Y45250
X37660Y45250
X37660Y44250
X38660Y44250
X38660Y45250
X39660Y45250
X39660Y44250
X40660Y44250
X40660Y45250
X41660Y45250
X41660Y44250
X31160Y5125
X30160Y5125
X29160Y5125
X28160Y5125
X27160Y5125
X26160Y5125
X25160Y5125
X24160Y5125
X24160Y4125
X25160Y4125
X26160Y4125
X27160Y4125
X28160Y4125
X29160Y4125
X30160Y4125
X31160Y4125
X23160Y4125
X22160Y4125
X22160Y5125
X23160Y5125
T05
X47410Y13250
X47410Y14875
X3785Y33000
X3785Y42125
T06
X10370Y44960
X23950Y44960
X30370Y44960
X43950Y44960
X33450Y4415
X19870Y4415
T07
X3910Y3875
X3910Y45625
X47410Y45625
X47410Y3875
M30
