G75*
G70*
%OFA0B0*%
%FSLAX24Y24*%
%IPPOS*%
%LPD*%
%AMOC8*
5,1,8,0,0,1.08239X$1,22.5*
%
%ADD10C,0.0556*%
%ADD11C,0.0595*%
%ADD12R,0.0730X0.0730*%
%ADD13C,0.0730*%
%ADD14C,0.1240*%
%ADD15R,0.0789X0.0789*%
%ADD16C,0.1340*%
D10*
X016285Y009250D03*
X016785Y009750D03*
X017285Y009250D03*
X019285Y009250D03*
X019785Y009750D03*
X020285Y009250D03*
X022285Y009250D03*
X022785Y009750D03*
X023285Y009250D03*
X025285Y009250D03*
X025785Y009750D03*
X026285Y009250D03*
X028285Y009250D03*
X028785Y009750D03*
X029285Y009250D03*
X031285Y009250D03*
X031785Y009750D03*
X032285Y009250D03*
X034285Y009250D03*
X034785Y009750D03*
X035285Y009250D03*
X037285Y009250D03*
X037785Y009750D03*
X038285Y009250D03*
X038285Y015125D03*
X037785Y015625D03*
X037285Y015125D03*
X035285Y015125D03*
X034785Y015625D03*
X034285Y015125D03*
X032285Y015125D03*
X031785Y015625D03*
X031285Y015125D03*
X029285Y015125D03*
X028785Y015625D03*
X028285Y015125D03*
X026285Y015125D03*
X025785Y015625D03*
X025285Y015125D03*
X023285Y015125D03*
X022785Y015625D03*
X022285Y015125D03*
X020285Y015125D03*
X019785Y015625D03*
X019285Y015125D03*
X017285Y015125D03*
X016785Y015625D03*
X016285Y015125D03*
X016410Y021625D03*
X016910Y022125D03*
X016410Y022625D03*
X016410Y023625D03*
X016910Y024125D03*
X016410Y024625D03*
X016410Y025625D03*
X016910Y026125D03*
X016410Y026625D03*
X014660Y026125D03*
X014160Y025625D03*
X014160Y024625D03*
X014660Y024125D03*
X014160Y023625D03*
X014160Y022625D03*
X014660Y022125D03*
X014160Y021625D03*
X012410Y022125D03*
X011910Y021625D03*
X011910Y022625D03*
X011910Y023625D03*
X012410Y024125D03*
X011910Y024625D03*
X011910Y025625D03*
X012410Y026125D03*
X011910Y026625D03*
X010160Y026125D03*
X009660Y025625D03*
X009660Y024625D03*
X010160Y024125D03*
X009660Y023625D03*
X009660Y022625D03*
X010160Y022125D03*
X009660Y021625D03*
X009660Y026625D03*
X014160Y026625D03*
X018660Y026625D03*
X019160Y026125D03*
X018660Y025625D03*
X018660Y024625D03*
X019160Y024125D03*
X018660Y023625D03*
X018660Y022625D03*
X019160Y022125D03*
X018660Y021625D03*
X020910Y021625D03*
X021410Y022125D03*
X020910Y022625D03*
X020910Y023625D03*
X021410Y024125D03*
X020910Y024625D03*
X020910Y025625D03*
X021410Y026125D03*
X020910Y026625D03*
X023160Y026625D03*
X023660Y026125D03*
X023160Y025625D03*
X023160Y024625D03*
X023660Y024125D03*
X023160Y023625D03*
X023160Y022625D03*
X023660Y022125D03*
X023160Y021625D03*
X025410Y021625D03*
X025910Y022125D03*
X025410Y022625D03*
X025410Y023625D03*
X025910Y024125D03*
X025410Y024625D03*
X025410Y025625D03*
X025910Y026125D03*
X025410Y026625D03*
X029660Y026625D03*
X030160Y026125D03*
X029660Y025625D03*
X029660Y024625D03*
X030160Y024125D03*
X029660Y023625D03*
X029660Y022625D03*
X030160Y022125D03*
X029660Y021625D03*
X031910Y021625D03*
X032410Y022125D03*
X031910Y022625D03*
X031910Y023625D03*
X032410Y024125D03*
X031910Y024625D03*
X031910Y025625D03*
X032410Y026125D03*
X031910Y026625D03*
X034160Y026625D03*
X034660Y026125D03*
X034160Y025625D03*
X034160Y024625D03*
X034660Y024125D03*
X034160Y023625D03*
X034160Y022625D03*
X034660Y022125D03*
X034160Y021625D03*
X036410Y021625D03*
X036910Y022125D03*
X036410Y022625D03*
X036410Y023625D03*
X036910Y024125D03*
X036410Y024625D03*
X036410Y025625D03*
X036910Y026125D03*
X036410Y026625D03*
X038660Y026625D03*
X039160Y026125D03*
X038660Y025625D03*
X038660Y024625D03*
X039160Y024125D03*
X038660Y023625D03*
X038660Y022625D03*
X039160Y022125D03*
X038660Y021625D03*
X040910Y021625D03*
X041410Y022125D03*
X040910Y022625D03*
X040910Y023625D03*
X041410Y024125D03*
X040910Y024625D03*
X040910Y025625D03*
X041410Y026125D03*
X040910Y026625D03*
X043160Y026625D03*
X043660Y026125D03*
X043160Y025625D03*
X043160Y024625D03*
X043660Y024125D03*
X043160Y023625D03*
X043160Y022625D03*
X043660Y022125D03*
X043160Y021625D03*
X045410Y021625D03*
X045910Y022125D03*
X045410Y022625D03*
X045410Y023625D03*
X045910Y024125D03*
X045410Y024625D03*
X045410Y025625D03*
X045910Y026125D03*
X045410Y026625D03*
X045410Y032375D03*
X045910Y032875D03*
X045410Y033375D03*
X045410Y034375D03*
X045910Y034875D03*
X045410Y035375D03*
X045410Y036375D03*
X045910Y036875D03*
X045410Y037375D03*
X043660Y036875D03*
X043160Y036375D03*
X043160Y035375D03*
X043660Y034875D03*
X043160Y034375D03*
X043160Y033375D03*
X043660Y032875D03*
X043160Y032375D03*
X041410Y032875D03*
X040910Y032375D03*
X040910Y033375D03*
X040910Y034375D03*
X041410Y034875D03*
X040910Y035375D03*
X040910Y036375D03*
X041410Y036875D03*
X040910Y037375D03*
X039160Y036875D03*
X038660Y036375D03*
X038660Y035375D03*
X039160Y034875D03*
X038660Y034375D03*
X038660Y033375D03*
X039160Y032875D03*
X038660Y032375D03*
X036910Y032875D03*
X036410Y032375D03*
X036410Y033375D03*
X036410Y034375D03*
X036910Y034875D03*
X036410Y035375D03*
X036410Y036375D03*
X036910Y036875D03*
X036410Y037375D03*
X034660Y036875D03*
X034160Y036375D03*
X034160Y035375D03*
X034660Y034875D03*
X034160Y034375D03*
X034160Y033375D03*
X034660Y032875D03*
X034160Y032375D03*
X032410Y032875D03*
X031910Y032375D03*
X031910Y033375D03*
X031910Y034375D03*
X032410Y034875D03*
X031910Y035375D03*
X031910Y036375D03*
X032410Y036875D03*
X031910Y037375D03*
X030160Y036875D03*
X029660Y036375D03*
X029660Y035375D03*
X030160Y034875D03*
X029660Y034375D03*
X029660Y033375D03*
X030160Y032875D03*
X029660Y032375D03*
X025910Y032875D03*
X025410Y032375D03*
X025410Y033375D03*
X025410Y034375D03*
X025910Y034875D03*
X025410Y035375D03*
X025410Y036375D03*
X025910Y036875D03*
X025410Y037375D03*
X023660Y036875D03*
X023160Y036375D03*
X023160Y035375D03*
X023660Y034875D03*
X023160Y034375D03*
X023160Y033375D03*
X023660Y032875D03*
X023160Y032375D03*
X021410Y032875D03*
X020910Y032375D03*
X020910Y033375D03*
X020910Y034375D03*
X021410Y034875D03*
X020910Y035375D03*
X020910Y036375D03*
X021410Y036875D03*
X020910Y037375D03*
X019160Y036875D03*
X018660Y036375D03*
X018660Y035375D03*
X019160Y034875D03*
X018660Y034375D03*
X018660Y033375D03*
X019160Y032875D03*
X018660Y032375D03*
X016910Y032875D03*
X016410Y032375D03*
X016410Y033375D03*
X016410Y034375D03*
X016910Y034875D03*
X016410Y035375D03*
X016410Y036375D03*
X016910Y036875D03*
X016410Y037375D03*
X014660Y036875D03*
X014160Y036375D03*
X014160Y035375D03*
X014660Y034875D03*
X014160Y034375D03*
X014160Y033375D03*
X014660Y032875D03*
X014160Y032375D03*
X012410Y032875D03*
X011910Y032375D03*
X011910Y033375D03*
X011910Y034375D03*
X012410Y034875D03*
X011910Y035375D03*
X011910Y036375D03*
X012410Y036875D03*
X011910Y037375D03*
X010160Y036875D03*
X009660Y036375D03*
X009660Y035375D03*
X010160Y034875D03*
X009660Y034375D03*
X009660Y033375D03*
X010160Y032875D03*
X009660Y032375D03*
X009660Y037375D03*
X014160Y037375D03*
X018660Y037375D03*
X023160Y037375D03*
X029660Y037375D03*
X034160Y037375D03*
X038660Y037375D03*
X043160Y037375D03*
X004160Y036625D03*
X003660Y036125D03*
X003660Y037125D03*
X003660Y038125D03*
X004160Y038625D03*
X003660Y039125D03*
X003660Y040125D03*
X004160Y040625D03*
X003660Y041125D03*
X003660Y032000D03*
X004160Y031500D03*
X003660Y031000D03*
X003660Y030000D03*
X004160Y029500D03*
X003660Y029000D03*
X003660Y028000D03*
X004160Y027500D03*
X003660Y027000D03*
D11*
X004910Y027000D03*
X005660Y027000D03*
X005660Y029000D03*
X004910Y029000D03*
X004910Y029750D03*
X005660Y029750D03*
X005660Y031750D03*
X004910Y031750D03*
X004660Y033000D03*
X005660Y033000D03*
X008660Y032125D03*
X008660Y034125D03*
X008660Y034750D03*
X008660Y036750D03*
X008660Y037250D03*
X009660Y038250D03*
X009660Y039250D03*
X008660Y039250D03*
X010910Y039250D03*
X011910Y039250D03*
X011910Y038250D03*
X010910Y037250D03*
X010910Y036750D03*
X010910Y034750D03*
X010910Y034125D03*
X010910Y032125D03*
X013160Y032125D03*
X013160Y034125D03*
X013160Y034750D03*
X013160Y036750D03*
X013160Y037250D03*
X014160Y038250D03*
X014160Y039250D03*
X013160Y039250D03*
X015410Y039250D03*
X016410Y039250D03*
X016410Y038250D03*
X015410Y037250D03*
X015410Y036750D03*
X015410Y034750D03*
X015410Y034125D03*
X015410Y032125D03*
X017660Y032125D03*
X017660Y034125D03*
X017660Y034750D03*
X017660Y036750D03*
X017660Y037250D03*
X018660Y038250D03*
X018660Y039250D03*
X017660Y039250D03*
X019910Y039250D03*
X020910Y039250D03*
X020910Y038250D03*
X019910Y037250D03*
X019910Y036750D03*
X019910Y034750D03*
X019910Y034125D03*
X019910Y032125D03*
X022160Y032125D03*
X022160Y034125D03*
X022160Y034750D03*
X022160Y036750D03*
X022160Y037250D03*
X023160Y038250D03*
X023160Y039250D03*
X022160Y039250D03*
X024410Y039250D03*
X025410Y039250D03*
X025410Y038250D03*
X024410Y037250D03*
X024410Y036750D03*
X024410Y034750D03*
X024410Y034125D03*
X024410Y032125D03*
X027410Y035875D03*
X028660Y036750D03*
X028660Y037250D03*
X029660Y038250D03*
X029660Y039250D03*
X028660Y039250D03*
X027410Y037875D03*
X028660Y034750D03*
X028660Y034125D03*
X028660Y032125D03*
X030910Y032125D03*
X030910Y034125D03*
X030910Y034750D03*
X030910Y036750D03*
X030910Y037250D03*
X031910Y038250D03*
X031910Y039250D03*
X030910Y039250D03*
X033160Y039250D03*
X034160Y039250D03*
X034160Y038250D03*
X033160Y037250D03*
X033160Y036750D03*
X033160Y034750D03*
X033160Y034125D03*
X033160Y032125D03*
X035410Y032125D03*
X035410Y034125D03*
X035410Y034750D03*
X035410Y036750D03*
X035410Y037250D03*
X036410Y038250D03*
X036410Y039250D03*
X035410Y039250D03*
X037660Y039250D03*
X038660Y039250D03*
X038660Y038250D03*
X037660Y037250D03*
X037660Y036750D03*
X037660Y034750D03*
X037660Y034125D03*
X037660Y032125D03*
X039910Y032125D03*
X039910Y034125D03*
X039910Y034750D03*
X039910Y036750D03*
X039910Y037250D03*
X040910Y038250D03*
X040910Y039250D03*
X042160Y039250D03*
X043160Y039250D03*
X043160Y038250D03*
X042160Y037250D03*
X042160Y036750D03*
X042160Y034750D03*
X042160Y034125D03*
X042160Y032125D03*
X044410Y032125D03*
X044410Y034125D03*
X044410Y034750D03*
X044410Y036750D03*
X044410Y037250D03*
X045410Y038250D03*
X045410Y039250D03*
X044410Y039250D03*
X043535Y042000D03*
X045535Y042000D03*
X047660Y041750D03*
X047660Y043750D03*
X039910Y039250D03*
X031410Y042125D03*
X029410Y042125D03*
X028660Y042125D03*
X027660Y042125D03*
X028660Y028500D03*
X029660Y028500D03*
X029660Y027500D03*
X028660Y026500D03*
X028660Y026000D03*
X027160Y025125D03*
X028660Y024000D03*
X028660Y023375D03*
X027160Y023125D03*
X028660Y021375D03*
X030910Y021375D03*
X030910Y023375D03*
X030910Y024000D03*
X030910Y026000D03*
X030910Y026500D03*
X031910Y027500D03*
X031910Y028500D03*
X030910Y028500D03*
X033160Y028500D03*
X034160Y028500D03*
X034160Y027500D03*
X033160Y026500D03*
X033160Y026000D03*
X033160Y024000D03*
X033160Y023375D03*
X033160Y021375D03*
X035410Y021375D03*
X035410Y023375D03*
X035410Y024000D03*
X035410Y026000D03*
X035410Y026500D03*
X036410Y027500D03*
X036410Y028500D03*
X035410Y028500D03*
X037660Y028500D03*
X038660Y028500D03*
X038660Y027500D03*
X037660Y026500D03*
X037660Y026000D03*
X037660Y024000D03*
X037660Y023375D03*
X037660Y021375D03*
X039910Y021375D03*
X039910Y023375D03*
X039910Y024000D03*
X039910Y026000D03*
X039910Y026500D03*
X040910Y027500D03*
X040910Y028500D03*
X042160Y028500D03*
X043160Y028500D03*
X043160Y027500D03*
X042160Y026500D03*
X042160Y026000D03*
X042160Y024000D03*
X042160Y023375D03*
X042160Y021375D03*
X044410Y021375D03*
X044410Y023375D03*
X044410Y024000D03*
X044410Y026000D03*
X044410Y026500D03*
X045410Y027500D03*
X045410Y028500D03*
X044410Y028500D03*
X039910Y028500D03*
X038035Y016875D03*
X037035Y016875D03*
X036285Y016875D03*
X035035Y016875D03*
X034035Y016875D03*
X033285Y016875D03*
X032035Y016875D03*
X031035Y016875D03*
X030285Y016875D03*
X029035Y016875D03*
X028035Y016875D03*
X027285Y016875D03*
X026035Y016875D03*
X025035Y016875D03*
X024285Y016875D03*
X023035Y016875D03*
X022035Y016875D03*
X021285Y016875D03*
X020035Y016875D03*
X019035Y016875D03*
X018285Y016875D03*
X017035Y016875D03*
X016035Y016875D03*
X015285Y016875D03*
X015285Y014875D03*
X015285Y014125D03*
X015285Y013375D03*
X017285Y013375D03*
X017285Y014125D03*
X018285Y014125D03*
X018285Y013375D03*
X018285Y014875D03*
X020285Y014125D03*
X020285Y013375D03*
X021285Y013375D03*
X021285Y014125D03*
X021285Y014875D03*
X023285Y014125D03*
X023285Y013375D03*
X024285Y013375D03*
X024285Y014125D03*
X024285Y014875D03*
X026285Y014125D03*
X026285Y013375D03*
X027285Y013375D03*
X027285Y014125D03*
X027285Y014875D03*
X029285Y014125D03*
X029285Y013375D03*
X030285Y013375D03*
X030285Y014125D03*
X030285Y014875D03*
X032285Y014125D03*
X032285Y013375D03*
X033285Y013375D03*
X033285Y014125D03*
X033285Y014875D03*
X035285Y014125D03*
X035285Y013375D03*
X036285Y013375D03*
X036285Y014125D03*
X036285Y014875D03*
X038285Y014125D03*
X038285Y013375D03*
X038035Y011000D03*
X037035Y011000D03*
X036285Y011000D03*
X035035Y011000D03*
X034035Y011000D03*
X033285Y011000D03*
X032035Y011000D03*
X031035Y011000D03*
X030285Y011000D03*
X029035Y011000D03*
X028035Y011000D03*
X027285Y011000D03*
X026035Y011000D03*
X025035Y011000D03*
X024285Y011000D03*
X023035Y011000D03*
X022035Y011000D03*
X021285Y011000D03*
X020035Y011000D03*
X019035Y011000D03*
X018285Y011000D03*
X017035Y011000D03*
X016035Y011000D03*
X015285Y011000D03*
X015285Y009000D03*
X015285Y008250D03*
X015285Y007500D03*
X017285Y007500D03*
X017285Y008250D03*
X018285Y008250D03*
X018285Y007500D03*
X018285Y009000D03*
X020285Y008250D03*
X020285Y007500D03*
X021285Y007500D03*
X021285Y008250D03*
X021285Y009000D03*
X023285Y008250D03*
X023285Y007500D03*
X024285Y007500D03*
X024285Y008250D03*
X024285Y009000D03*
X026285Y008250D03*
X026285Y007500D03*
X027285Y007500D03*
X027285Y008250D03*
X027285Y009000D03*
X029285Y008250D03*
X029285Y007500D03*
X030285Y007500D03*
X030285Y008250D03*
X030285Y009000D03*
X032285Y008250D03*
X032285Y007500D03*
X033285Y007500D03*
X033285Y008250D03*
X033285Y009000D03*
X035285Y008250D03*
X035285Y007500D03*
X036285Y007500D03*
X036285Y008250D03*
X036285Y009000D03*
X038285Y008250D03*
X038285Y007500D03*
X045160Y009500D03*
X046160Y009500D03*
X044910Y012500D03*
X044910Y014500D03*
X025410Y027500D03*
X025410Y028500D03*
X024410Y028500D03*
X023160Y028500D03*
X022160Y028500D03*
X020910Y028500D03*
X019910Y028500D03*
X020910Y027500D03*
X019910Y026500D03*
X019910Y026000D03*
X018660Y027500D03*
X018660Y028500D03*
X017660Y028500D03*
X016410Y028500D03*
X015410Y028500D03*
X016410Y027500D03*
X015410Y026500D03*
X015410Y026000D03*
X014160Y027500D03*
X014160Y028500D03*
X013160Y028500D03*
X011910Y028500D03*
X010910Y028500D03*
X011910Y027500D03*
X010910Y026500D03*
X010910Y026000D03*
X009660Y027500D03*
X009660Y028500D03*
X008660Y028500D03*
X008660Y026500D03*
X008660Y026000D03*
X008660Y024000D03*
X008660Y023375D03*
X008660Y021375D03*
X010910Y021375D03*
X010910Y023375D03*
X010910Y024000D03*
X013160Y024000D03*
X013160Y023375D03*
X013160Y021375D03*
X015410Y021375D03*
X015410Y023375D03*
X015410Y024000D03*
X017660Y024000D03*
X017660Y023375D03*
X017660Y021375D03*
X019910Y021375D03*
X019910Y023375D03*
X019910Y024000D03*
X022160Y024000D03*
X022160Y023375D03*
X022160Y021375D03*
X024410Y021375D03*
X024410Y023375D03*
X024410Y024000D03*
X024410Y026000D03*
X024410Y026500D03*
X023160Y027500D03*
X022160Y026500D03*
X022160Y026000D03*
X017660Y026000D03*
X017660Y026500D03*
X013160Y026500D03*
X013160Y026000D03*
X012660Y018750D03*
X012660Y016750D03*
X005660Y036125D03*
X004910Y036125D03*
X004910Y038125D03*
X004910Y038875D03*
X005660Y038875D03*
X005660Y038125D03*
X005660Y040875D03*
X004910Y040875D03*
X004660Y042125D03*
X005660Y042125D03*
X005160Y043750D03*
X007160Y043750D03*
X007785Y042125D03*
X008785Y042125D03*
X009660Y042125D03*
X011660Y042125D03*
D12*
X012660Y044250D03*
X032660Y044250D03*
X031160Y005125D03*
D13*
X030160Y005125D03*
X029160Y005125D03*
X028160Y005125D03*
X027160Y005125D03*
X026160Y005125D03*
X025160Y005125D03*
X024160Y005125D03*
X024160Y004125D03*
X025160Y004125D03*
X026160Y004125D03*
X027160Y004125D03*
X028160Y004125D03*
X029160Y004125D03*
X030160Y004125D03*
X031160Y004125D03*
X023160Y004125D03*
X022160Y004125D03*
X022160Y005125D03*
X023160Y005125D03*
X021660Y044250D03*
X020660Y044250D03*
X019660Y044250D03*
X018660Y044250D03*
X017660Y044250D03*
X016660Y044250D03*
X015660Y044250D03*
X014660Y044250D03*
X013660Y044250D03*
X013660Y045250D03*
X012660Y045250D03*
X014660Y045250D03*
X015660Y045250D03*
X016660Y045250D03*
X017660Y045250D03*
X018660Y045250D03*
X019660Y045250D03*
X020660Y045250D03*
X021660Y045250D03*
X032660Y045250D03*
X033660Y045250D03*
X033660Y044250D03*
X034660Y044250D03*
X034660Y045250D03*
X035660Y045250D03*
X035660Y044250D03*
X036660Y044250D03*
X036660Y045250D03*
X037660Y045250D03*
X037660Y044250D03*
X038660Y044250D03*
X038660Y045250D03*
X039660Y045250D03*
X039660Y044250D03*
X040660Y044250D03*
X040660Y045250D03*
X041660Y045250D03*
X041660Y044250D03*
D14*
X043950Y044960D03*
X030370Y044960D03*
X023950Y044960D03*
X010370Y044960D03*
X019870Y004415D03*
X033450Y004415D03*
D15*
X047410Y013250D03*
X047410Y014875D03*
X003785Y033000D03*
X003785Y042125D03*
D16*
X003910Y003875D03*
X003910Y045625D03*
X047410Y045625D03*
X047410Y003875D03*
M02*
