G04 Output by ViewMate Deluxe V11.0.9  PentaLogix LLC*
G04 Sun Feb 16 15:57:02 2014*
%FSLAX33Y33*%
%MOMM*%
%IPPOS*%
%ADD15C,0.0762*%
%ADD16C,0.127*%
%ADD105C,0.254*%
%ADD106C,0.4064*%
%ADD107C,0.1524*%
%ADD108C,0.1016*%
%ADD109C,1.016*%

%LPD*%
X0Y0D2*D15*G1X18844Y22692D2*X18687Y22850D1*X18372Y22850*X18217Y22692*X18217Y22065*X18372Y21908*X18687Y21908*X18844Y22065*X18844Y22692*X18217Y22065*X16815Y22850D2*X16815Y21908D1*X17280Y22850D2*X17907Y22850D1*X17907Y22692*X17280Y22065*X17280Y21908*X16972Y22377D2*X16345Y22377D1*X16815Y22850*X15367Y32217D2*X15367Y32375D1*X14740Y32375*X14432Y31902D2*X13805Y31902D1*X14275Y32375*X14275Y31432*X14740Y31432D2*X14740Y31590D1*X15367Y32217*X15677Y31590D2*X15677Y32217D1*X15832Y32375*X16147Y32375*X16304Y32217*X16304Y31590D2*X16304Y32217D1*X15677Y31590*X15832Y31432*X16147Y31432*X16304Y31590*X19553Y29182D2*X18926Y29182D1*X19240Y30274D2*X19710Y30744D1*X19398Y30117D2*X18771Y30744D1*X18771Y30117D2*X19710Y30117D1*X18926Y29807D2*X19553Y29807D1*X19710Y29652*X19710Y29337*X19553Y29182*X18926Y29807*X18771Y29652*X18771Y29337*X18926Y29182*X19083Y28245D2*X18771Y28560D1*X19710Y28560*X19710Y28245D2*X19710Y28872D1*X23782Y26060D2*X24254Y25590D1*X23627Y25905D2*X24254Y26533D1*X23627Y26533D2*X23627Y25590D1*X23160Y26533D2*X23317Y26375D1*X21755Y26218D2*X22068Y26533D1*X22068Y25590*X22382Y25590D2*X21755Y25590D1*X22690Y25748D2*X22847Y25590D1*X23160Y25590*X23317Y25748*X23317Y26375*X22690Y25748*X22690Y26375*X22847Y26533*X23160Y26533*X23012Y28250D2*X23325Y28565D1*X23325Y27622*X23640Y27622D2*X23012Y27622D1*X23947Y27780D2*X23947Y28407D1*X24105Y28565*X24420Y28565*X24574Y28407*X24574Y27780D2*X24574Y28407D1*X23947Y27780*X24105Y27622*X24420Y27622*X24574Y27780*X24884Y28565D2*X24884Y27622D1*X24884Y27937D2*X25512Y28565D1*X25512Y27622D2*X25039Y28092D1*X27625Y23779D2*X28252Y23779D1*X27625Y24407D2*X28252Y24407D1*X28410Y24249*X28410Y23937*X28252Y23779*X27625Y24407*X27470Y24249*X27470Y23937*X27625Y23779*X28410Y22377D2*X27470Y22377D1*X27940Y21908*X27470Y22845D2*X27470Y23470D1*X27625Y23470*X28252Y22845*X28410Y22845*X27940Y21908D2*X27940Y22535D1*X26860Y17892D2*X27330Y18362D1*X27018Y17734D2*X26391Y18362D1*X26391Y17734D2*X27330Y17734D1*X26546Y17424D2*X27173Y17424D1*X27330Y17269*X27330Y16954*X27173Y16800*X26546Y17424*X26391Y17269*X26391Y16954*X26546Y16800*X27173Y16800*X27330Y16490D2*X27330Y15862D1*X27330Y16177D2*X26391Y16177D1*X26703Y15862*X24633Y12990D2*X24006Y12990D1*X24320Y14082D2*X24790Y14552D1*X24478Y13924D2*X23851Y14552D1*X23851Y13924D2*X24790Y13924D1*X24006Y13614D2*X24633Y13614D1*X24790Y13459*X24790Y13144*X24633Y12990*X24006Y13614*X23851Y13459*X23851Y13144*X24006Y12990*X24163Y12052D2*X23851Y12367D1*X24790Y12680D2*X24790Y12052D1*X23851Y12367D2*X24790Y12367D1*X22258Y12052D2*X21946Y12367D1*X22885Y12367*X22885Y12680D2*X22885Y12052D1*X22728Y12990D2*X22885Y13144D1*X22885Y13459*X22728Y13614*X22101Y13614*X22728Y12990*X22101Y12990*X21946Y13144*X21946Y13459*X22101Y13614*X22885Y13924D2*X21946Y13924D1*X22416Y14082D2*X22885Y14552D1*X21946Y14552D2*X22573Y13924D1*X18209Y16342D2*X18052Y16500D1*X17737Y16500*X17582Y16342*X17582Y15715D2*X17737Y15558D1*X18052Y15558*X18209Y15715*X18209Y16342*X17582Y15715*X17582Y16342*X16645Y16500D2*X17272Y16500D1*X17272Y16342*X16645Y15715*X16645Y15558*X16337Y16027D2*X15710Y16027D1*X16180Y16500*X16180Y15558*X15669Y10627D2*X15512Y10785D1*X15197Y10785*X15042Y10627*X15042Y10000D2*X15197Y9842D1*X15512Y9842*X15669Y10000*X15669Y10627*X15042Y10000*X15042Y10627*X13170Y10312D2*X13640Y10785D1*X13640Y9842*X14105Y10785D2*X14732Y10785D1*X14732Y10627*X14105Y10000*X14105Y9842*X13170Y10312D2*X13797Y10312D1*D16*X21209Y30823D2*X21245Y30978D1*X21290Y31128*X21344Y31278*X21407Y31422*X21478Y31562*X21560Y31699*X21648Y31831*X21745Y31956*X21847Y32075*X21958Y32187*X22075Y32294*X22200Y32393*X22329Y32482*X22464Y32565*X22603Y32639*X22748Y32705*X22896Y32761*X23045Y32809*X23200Y32847*X23355Y32875*X23513Y32896*X23670Y32906*X23828Y32906*X23985Y32896*X24143Y32875*X24298Y32847*X24453Y32809*X24602Y32761*X24750Y32705*X24895Y32639*X25034Y32565*X25169Y32482*X25298Y32393*X25423Y32294*X25540Y32187*X25651Y32075*X25753Y31956*X25850Y31831*X25938Y31699*X26020Y31562*X26091Y31422*X26154Y31278*X26208Y31128*X26253Y30978*X26289Y30823*X26289Y29299*X21209Y29299*X21209Y30823*X18669Y18758D2*X18633Y18913D1*X18588Y19063*X18534Y19213*X18471Y19357*X18400Y19497*X18318Y19634*X18230Y19766*X18133Y19891*X18031Y20010*X17920Y20122*X17803Y20229*X17678Y20328*X17549Y20417*X17414Y20500*X17275Y20574*X17130Y20640*X16982Y20696*X16833Y20744*X16678Y20782*X16523Y20810*X16365Y20831*X16208Y20841*X16050Y20841*X15893Y20831*X15735Y20810*X15580Y20782*X15425Y20744*X15276Y20696*X15128Y20640*X14983Y20574*X14844Y20500*X14709Y20417*X14580Y20328*X14455Y20229*X14338Y20122*X14227Y20010*X14125Y19891*X14028Y19766*X13940Y19634*X13858Y19497*X13787Y19357*X13724Y19213*X13670Y19063*X13625Y18913*X13589Y18758*X13589Y17234*X18669Y17234*X18669Y18758*X20955Y21679D2*X20800Y21643D1*X20650Y21598*X20500Y21544*X20356Y21481*X20216Y21410*X20079Y21328*X19947Y21239*X19822Y21143*X19703Y21041*X19591Y20930*X19484Y20813*X19385Y20688*X19296Y20559*X19213Y20424*X19139Y20284*X19073Y20140*X19017Y19992*X18969Y19842*X18931Y19688*X18903Y19533*X18882Y19375*X18872Y19218*X18872Y19060*X18882Y18903*X18903Y18745*X18931Y18590*X18969Y18435*X19017Y18285*X19073Y18138*X19139Y17993*X19213Y17854*X19296Y17719*X19385Y17590*X19484Y17465*X19591Y17348*X19703Y17236*X19822Y17135*X19947Y17038*X20079Y16949*X20216Y16868*X20356Y16797*X20500Y16734*X20650Y16680*X20800Y16634*X20955Y16599*X24448Y16599D2*X24293Y16634D1*X24143Y16680*X23993Y16734*X23848Y16797*X23708Y16868*X23571Y16949*X23439Y17038*X23315Y17135*X23195Y17236*X23084Y17348*X22977Y17465*X22878Y17590*X22789Y17719*X22705Y17854*X22631Y17993*X22565Y18138*X22509Y18285*X22461Y18435*X22423Y18590*X22395Y18745*X22375Y18903*X22365Y19060*X22365Y19218*X22375Y19375*X22395Y19533*X22423Y19688*X22461Y19842*X22509Y19992*X22565Y20140*X22631Y20284*X22705Y20424*X22789Y20559*X22878Y20688*X22977Y20813*X23084Y20930*X23195Y21041*X23315Y21143*X23439Y21239*X23571Y21328*X23708Y21410*X23848Y21481*X23993Y21544*X24143Y21598*X24293Y21643*X24448Y21679*X25972Y23203D2*X25972Y21679D1*X25972Y16599*X24448Y16599*X19685Y9614D2*X19530Y9649D1*X19380Y9695*X19230Y9749*X19086Y9812*X18946Y9883*X18809Y9964*X18677Y10053*X18552Y10150*X18433Y10251*X18321Y10363*X18214Y10480*X18115Y10604*X18026Y10734*X17943Y10869*X17869Y11008*X17803Y11153*X17747Y11300*X17699Y11450*X17661Y11605*X17633Y11760*X17612Y11918*X17602Y12075*X17602Y12233*X17612Y12390*X17633Y12548*X17661Y12703*X17699Y12857*X17747Y13007*X17803Y13155*X17869Y13299*X17943Y13439*X18026Y13574*X18115Y13703*X18214Y13828*X18321Y13945*X18433Y14056*X18552Y14158*X18677Y14254*X18809Y14343*X18946Y14425*X19086Y14496*X19230Y14559*X19380Y14613*X19530Y14658*X19685Y14694*X17399Y13043D2*X17363Y13198D1*X17318Y13348*X17264Y13498*X17201Y13642*X17130Y13782*X17048Y13919*X16960Y14051*X16863Y14176*X16761Y14295*X16650Y14407*X16533Y14514*X16408Y14613*X16279Y14702*X16144Y14785*X16005Y14859*X15860Y14925*X15712Y14981*X15563Y15029*X15408Y15067*X15253Y15095*X15095Y15116*X14938Y15126*X14780Y15126*X14623Y15116*X14465Y15095*X14310Y15067*X14155Y15029*X14006Y14981*X13858Y14925*X13713Y14859*X13574Y14785*X13439Y14702*X13310Y14613*X13185Y14514*X13068Y14407*X12957Y14295*X12855Y14176*X12758Y14051*X12670Y13919*X12588Y13782*X12517Y13642*X12454Y13498*X12400Y13348*X12355Y13198*X12319Y13043*X12319Y11519*X17399Y11519*X17399Y13043*X19685Y9614D2*X21209Y9614D1*X21209Y14694*X19685Y14694*X20955Y16599D2*X22479Y16599D1*X22479Y21679*X20955Y21679*X20892Y23203D2*X20927Y23358D1*X20973Y23508*X21026Y23658*X21090Y23802*X21161Y23942*X21242Y24079*X21331Y24211*X21427Y24336*X21529Y24455*X21641Y24567*X21758Y24674*X21882Y24773*X22012Y24862*X22146Y24945*X22286Y25019*X22431Y25085*X22578Y25141*X22728Y25189*X22883Y25227*X23038Y25255*X23195Y25276*X23353Y25286*X23510Y25286*X23668Y25276*X23825Y25255*X23980Y25227*X24135Y25189*X24285Y25141*X24432Y25085*X24577Y25019*X24717Y24945*X24851Y24862*X24981Y24773*X25105Y24674*X25222Y24567*X25334Y24455*X25436Y24336*X25532Y24211*X25621Y24079*X25702Y23942*X25773Y23802*X25837Y23658*X25890Y23508*X25936Y23358*X25972Y23203*X24448Y21679D2*X25972Y21679D1*X20892Y21679*X20892Y23203*X18669Y25108D2*X18633Y25263D1*X18588Y25413*X18534Y25563*X18471Y25707*X18400Y25847*X18318Y25984*X18230Y26116*X18133Y26241*X18031Y26360*X17920Y26472*X17803Y26579*X17678Y26678*X17549Y26767*X17414Y26850*X17275Y26924*X17130Y26990*X16982Y27046*X16833Y27094*X16678Y27132*X16523Y27160*X16365Y27181*X16208Y27191*X16050Y27191*X15893Y27181*X15735Y27160*X15580Y27132*X15425Y27094*X15276Y27046*X15128Y26990*X14983Y26924*X14844Y26850*X14709Y26767*X14580Y26678*X14455Y26579*X14338Y26472*X14227Y26360*X14125Y26241*X14028Y26116*X13940Y25984*X13858Y25847*X13787Y25707*X13724Y25563*X13670Y25413*X13625Y25263*X13589Y25108*X12954Y28918D2*X12990Y29073D1*X13035Y29223*X13089Y29373*X13152Y29517*X13223Y29657*X13305Y29794*X13393Y29926*X13490Y30051*X13592Y30170*X13703Y30282*X13820Y30389*X13945Y30488*X14074Y30577*X14209Y30660*X14348Y30734*X14493Y30800*X14641Y30856*X14790Y30904*X14945Y30942*X15100Y30970*X15258Y30991*X15415Y31001*X15573Y31001*X15730Y30991*X15888Y30970*X16043Y30942*X16198Y30904*X16347Y30856*X16495Y30800*X16640Y30734*X16779Y30660*X16914Y30577*X17043Y30488*X17168Y30389*X17285Y30282*X17396Y30170*X17498Y30051*X17595Y29926*X17683Y29794*X17765Y29657*X17836Y29517*X17899Y29373*X17953Y29223*X17998Y29073*X18034Y28918*X18034Y27394*X12954Y27394*X12954Y28918*X13589Y25108D2*X13589Y23584D1*X18669Y23584*X18669Y25108*D105*X30988Y20091D2*X30988Y18948D1*X30416Y19520D2*X31560Y19520D1*X5588Y28029D2*X5588Y26886D1*X6160Y27457D2*X5016Y27457D1*X7048Y26378D2*X8192Y26378D1*X7620Y25806D2*X7620Y26949D1*X7048Y20663D2*X8192Y20663D1*X7620Y20091D2*X7620Y21234D1*X7048Y15265D2*X8192Y15265D1*X7620Y14694D2*X7620Y15837D1*X14077Y6058D2*X14839Y5296D1*X13315Y6058D2*X14458Y6058D1*X14839Y6441*X14839Y7203*X14458Y7584*X13315Y7584*X13315Y5296*X9779Y5296D2*X9779Y7584D1*X8636Y6441*X10975Y7203D2*X11356Y7584D1*X12118Y7584*X12499Y7203*X12499Y5677*X12118Y5296*X11356Y5296*X10975Y5677*X10975Y7203*X8636Y6441D2*X10163Y6441D1*D106*X31369Y28029D2*X33909Y28029D1*X32639Y26759D2*X32639Y29299D1*X31369Y15329D2*X33909Y15329D1*D107*X29723Y36718D2*X29723Y35634D1*X29180Y35090*X28638Y35634*X28638Y36718*X28085Y36446D2*X27813Y36718D1*X27272Y36718*X27000Y36446*X27000Y35362*X27272Y35090D2*X27813Y35090D1*X28085Y35362*X28085Y36446*X27000Y35362*X27272Y35090*X14922Y15075D2*X18606Y15075D1*X18606Y16853D2*X14922Y16853D1*X15558Y23203D2*X19240Y23203D1*X19240Y21425D2*X15558Y21425D1*X31090Y20460D2*X30998Y20533D1*X30912Y20615*X30833Y20704*X30762Y20795*X30698Y20894*X30640Y20998*X30592Y21105*X30551Y21214*X30521Y21328*X30498Y21445*X30485Y21562*X30480Y21679*X32939Y22883D2*X33028Y22807D1*X33111Y22728*X33188Y22639*X33256Y22548*X33317Y22451*X33373Y22349*X33419Y22243*X33459Y22134*X33490Y22022*X33510Y21910*X33523Y21793*X33528Y21679*X32939Y20475D2*X33028Y20551D1*X33111Y20630*X33188Y20719*X33256Y20810*X33317Y20907*X33373Y21008*X33419Y21115*X33459Y21224*X33490Y21336*X33510Y21448*X33523Y21565*X33528Y21679*X31118Y22918D2*X31024Y22845D1*X30935Y22763*X30851Y22675*X30775Y22581*X30709Y22482*X30650Y22377*X30597Y22266*X30556Y22154*X30523Y22037*X30500Y21920*X30485Y21798*X30480Y21679*X27813Y18758D2*X27813Y15075D1*X26035Y15075D2*X26035Y18758D1*X25273Y14948D2*X25273Y11265D1*X23495Y11265D2*X23495Y14948D1*X23368Y14948D2*X23368Y11265D1*X21590Y11265D2*X21590Y14948D1*X19251Y5245D2*X19794Y5789D1*X19794Y6330*X19251Y6873*X17066Y6873D2*X16523Y6330D1*X17615Y6330D2*X18156Y6873D1*X18156Y5245*X17615Y5245D2*X18699Y5245D1*X17066Y5245D2*X16523Y5789D1*X16523Y6330*X16066Y9360D2*X12382Y9360D1*X12382Y11138D2*X16066Y11138D1*X7518Y14326D2*X7610Y14252D1*X7696Y14171*X7775Y14082*X7846Y13990*X7910Y13891*X7968Y13787*X8016Y13680*X8057Y13571*X8087Y13457*X8110Y13340*X8123Y13223*X8128Y13106*X5669Y11902D2*X5580Y11979D1*X5497Y12057*X5420Y12146*X5352Y12238*X5291Y12334*X5235Y12436*X5189Y12543*X5149Y12652*X5118Y12764*X5098Y12875*X5085Y12992*X5080Y13106*X5669Y14310D2*X5580Y14234D1*X5497Y14155*X5420Y14067*X5352Y13975*X5291Y13879*X5235Y13777*X5189Y13670*X5149Y13561*X5118Y13449*X5098Y13338*X5085Y13221*X5080Y13106*X7490Y11867D2*X7584Y11941D1*X7673Y12022*X7757Y12111*X7833Y12205*X7899Y12304*X7958Y12408*X8011Y12520*X8052Y12631*X8085Y12748*X8108Y12865*X8123Y12987*X8128Y13106*X7518Y19723D2*X7610Y19649D1*X7696Y19568*X7775Y19479*X7846Y19388*X7910Y19289*X7968Y19185*X8016Y19078*X8057Y18969*X8087Y18854*X8110Y18738*X8123Y18621*X8128Y18504*X5669Y17300D2*X5580Y17376D1*X5497Y17455*X5420Y17544*X5352Y17635*X5291Y17732*X5235Y17833*X5189Y17940*X5149Y18049*X5118Y18161*X5098Y18273*X5085Y18390*X5080Y18504*X5669Y19708D2*X5580Y19632D1*X5497Y19553*X5420Y19464*X5352Y19373*X5291Y19276*X5235Y19174*X5189Y19068*X5149Y18959*X5118Y18847*X5098Y18735*X5085Y18618*X5080Y18504*X7490Y17264D2*X7584Y17338D1*X7673Y17419*X7757Y17508*X7833Y17602*X7899Y17701*X7958Y17805*X8011Y17917*X8052Y18029*X8085Y18146*X8108Y18263*X8123Y18385*X8128Y18504*X7518Y25438D2*X7610Y25364D1*X7696Y25283*X7775Y25194*X7846Y25103*X7910Y25004*X7968Y24900*X8016Y24793*X8057Y24684*X8087Y24569*X8110Y24453*X8123Y24336*X8128Y24219*X5669Y23015D2*X5580Y23091D1*X5497Y23170*X5420Y23259*X5352Y23350*X5291Y23447*X5235Y23548*X5189Y23655*X5149Y23764*X5118Y23876*X5098Y23988*X5085Y24105*X5080Y24219*X5669Y25423D2*X5580Y25347D1*X5497Y25268*X5420Y25179*X5352Y25088*X5291Y24991*X5235Y24889*X5189Y24783*X5149Y24674*X5118Y24562*X5098Y24450*X5085Y24333*X5080Y24219*X7490Y22979D2*X7584Y23053D1*X7673Y23134*X7757Y23223*X7833Y23317*X7899Y23416*X7958Y23520*X8011Y23632*X8052Y23744*X8085Y23861*X8108Y23978*X8123Y24100*X8128Y24219*X7539Y30820D2*X7628Y30744D1*X7711Y30665*X7788Y30577*X7856Y30485*X7917Y30389*X7973Y30287*X8019Y30180*X8059Y30071*X8090Y29959*X8110Y29848*X8123Y29731*X8128Y29616*X5690Y28397D2*X5598Y28471D1*X5512Y28552*X5433Y28641*X5362Y28732*X5298Y28832*X5240Y28936*X5192Y29042*X5151Y29152*X5121Y29266*X5098Y29383*X5085Y29500*X5080Y29616*X5718Y30856D2*X5624Y30782D1*X5535Y30701*X5451Y30612*X5375Y30518*X5309Y30419*X5250Y30315*X5197Y30203*X5156Y30091*X5123Y29975*X5100Y29858*X5085Y29736*X5080Y29616*X7539Y28412D2*X7628Y28489D1*X7711Y28567*X7788Y28656*X7856Y28748*X7917Y28844*X7973Y28946*X8019Y29053*X8059Y29162*X8090Y29274*X8110Y29385*X8123Y29502*X8128Y29616*X8128Y34506D2*X13970Y34506D1*X13970Y36792D2*X8128Y36792D1*X16114Y35362D2*X16114Y36446D1*X16655Y35903D2*X15570Y35903D1*X19929Y36718D2*X19929Y35634D1*X19388Y35090*X18844Y35634*X18844Y36718*X18293Y36718D2*X17208Y36718D1*X17208Y35903*X17750Y36175*X18021Y36175*X18293Y35903*X18293Y35362*X18021Y35090*X17478Y35090*X17208Y35362*X13018Y32728D2*X16700Y32728D1*X16700Y30950D2*X13018Y30950D1*X18415Y31140D2*X18415Y27457D1*X20193Y27457D2*X20193Y31140D1*X22225Y28918D2*X25908Y28918D1*X25908Y27140D2*X22225Y27140D1*X21590Y27013D2*X25273Y27013D1*X25273Y25235D2*X21590Y25235D1*X26988Y21742D2*X26988Y25425D1*X28766Y25425D2*X28766Y21742D1*D108*X24702Y7518D2*X25006Y7518D1*X21895Y5537D2*X21895Y6454D1*X23767Y6454D2*X23767Y5537D1*X22830Y5994D2*X23134Y5994D1*X23442Y6454D2*X22830Y6454D1*X22830Y7518D2*X23442Y7518D1*X22830Y7061D2*X22830Y7671D1*X23134Y7978*X23442Y7671*X23442Y7061*X23767Y7061D2*X23767Y7978D1*X24072Y7671*X24376Y7978*X24376Y7061*X24702Y7061D2*X24702Y7978D1*X25311Y7978*X26246Y7823D2*X26093Y7978D1*X25789Y7978*X25636Y7823*X25636Y7671*X25789Y7518*X26093Y7518*X26246Y7366*X26246Y7214*X26093Y7061*X25789Y7061*X25636Y7214*X24702Y7061D2*X25311Y7061D1*X24702Y5537D2*X24702Y6454D1*X26246Y5994D2*X25636Y5994D1*X27183Y6454D2*X27183Y5537D1*X26573Y6454*X26573Y5537*X26246Y5537D2*X26246Y6147D1*X25941Y6454*X25636Y6147*X25636Y5537*X25311Y5537D2*X25311Y6454D1*X25006Y6147*X24702Y6454*X24376Y6454D2*X24376Y5537D1*X24072Y5842*X23767Y5537*X23442Y5537D2*X22830Y5537D1*X22830Y6454*X22504Y6454D2*X22504Y5537D1*X21895Y6454*X21895Y7214D2*X22047Y7061D1*X22200Y7061*X22352Y7214*X22352Y7978*X22200Y7978D2*X22504Y7978D1*X9322Y35865D2*X9627Y36172D1*X9627Y35255*X9931Y35255D2*X9322Y35255D1*X10257Y35408D2*X10257Y36017D1*X10409Y36172*X10714Y36172*X10869Y36017*X10257Y35408*X10409Y35255*X10714Y35255*X10869Y35408*X10869Y36017*X11803Y36017D2*X11651Y36172D1*X11346Y36172*X11194Y36017*X11194Y35408*X11803Y35408D2*X11803Y36017D1*X11194Y35408*X11346Y35255*X11651Y35255*X11803Y35408*X12128Y35255D2*X12128Y35865D1*X12586Y35865*X12738Y35712*X12738Y35255*D109*X9144Y8979D2*X9726Y9738D1*X10269Y10523*X10775Y11336*X11240Y12172*X11664Y13028*X12045Y13904*X12385Y14798*X12680Y15705*X12931Y16627*X13139Y17562*X13299Y18504*X13416Y19451*X13485Y20406*X13508Y21361*X13485Y22316*X13416Y23271*X13299Y24219*X13139Y25161*X12931Y26096*X12680Y27018*X12385Y27925*X12045Y28819*X11664Y29695*X11240Y30551*X10775Y31387*X10269Y32200*X9726Y32984*X9144Y33744*X25019Y33744*X25596Y33084*X26142Y32395*X26652Y31684*X27130Y30947*X27569Y30188*X27973Y29411*X28339Y28613*X28666Y27800*X28956Y26972*X29202Y26129*X29411Y25278*X29578Y24417*X29703Y23548*X29787Y22677*X29830Y21801*X29830Y20922*X29787Y20046*X29703Y19174*X29578Y18306*X29411Y17445*X29202Y16594*X28956Y15751*X28666Y14922*X28339Y14110*X27973Y13312*X27569Y12535*X27130Y11775*X26652Y11039*X26142Y10328*X25596Y9639*X25019Y8979*X9144Y8979*X0Y0D2*M02*