G04 Output by ViewMate Deluxe V11.0.9  PentaLogix LLC*
G04 Sun Feb 16 15:57:02 2014*
%FSLAX33Y33*%
%MOMM*%
%IPPOS*%
%ADD10C,1.3081*%
%ADD11R,1.8009X1.8009*%
%ADD12C,1.209*%
%ADD13C,0.4064*%
%ADD14C,0.8128*%

%LPD*%
X0Y0D2*D13*G1X12319Y31839D2*X10414Y31839D1*X9462Y30886*X6604Y30886*X3746Y29616D2*X10096Y29616D1*X10414Y29934*X15494Y29934*X19939Y22314D2*X19939Y24219D1*X18669Y12154D2*X23432Y12154D1*X24384Y13106*X24384Y15646*X32004Y12154D2*X32004Y14376D1*X26924Y19456*X26924Y20091*X24066Y21679D2*X23432Y21044D1*X32004Y30886D2*X31686Y30569D1*X25019Y30569*X24384Y28346D2*X24384Y26124D1*X25972Y24536*X25972Y22314*X25336Y21679*X24066Y21679*X24702Y22949D2*X24702Y24536D1*X23432Y25806*X23432Y29616*X22479Y30569*X23749Y31839D2*X19304Y31839D1*X17399Y31839*X17399Y29299*X16764Y28664*X16129Y24536D2*X16129Y26124D1*X14859Y22314D2*X7874Y22314D1*X6604Y22949*X3746Y24219D2*X10096Y24219D1*X11366Y23584*X15176Y23584*X16129Y24536*X19304Y24854D2*X17399Y24854D1*X20892Y26124D2*X19622Y24854D1*X19304Y24854*X19939Y24219*X23432Y24219*X22162Y22949D2*X22162Y21361D1*X21209Y20409*X22479Y15646D2*X22479Y18504D1*X20574Y16916D2*X21209Y17551D1*X21209Y17869*X18986Y19139D2*X18034Y19139D1*X17399Y18504*X16129Y19774D2*X16129Y17869D1*X15494Y17234*X13272Y17234*X12002Y18504*X3746Y18504*X6604Y17234D2*X7874Y15964D1*X14224Y15964*X11684Y10249D2*X10414Y11836D1*X6604Y11836*X3746Y13106D2*X11366Y13106D1*X12319Y14059*X14859Y14059*X16129Y12789D2*X16764Y12154D1*X16764Y10249D2*X16764Y12154D1*X18669Y12154*X19939Y13424D2*X20574Y14059D1*X20574Y16916*X19304Y15964D2*X19304Y18821D1*X18986Y19139*X19939Y19139*X21844Y19139*X22479Y18504*X23432Y21044D2*X23432Y19139D1*X24702Y20409D2*X26606Y20409D1*X26924Y20091*X27876Y21044*X32004Y22949D2*X28829Y26124D1*X27876Y26124*X26606Y28029D2*X24702Y28029D1*X24384Y28346*X24384Y29934*X25019Y30569*D14*X25019Y35649D2*X24066Y34061D1*X13589Y34061*X13589Y35649D2*X13589Y34061D1*X7239Y34061*X4699Y31839*X1842Y31839*X1842Y27076*X1842Y21361D2*X1842Y27076D1*X14224Y27076*X14224Y28981D2*X14224Y28664D1*X14224Y27076*X14224Y25489*X14859Y24854*X24702Y17869D2*X26289Y17869D1*X29464Y14694*X29464Y11836*X25972Y8661*X20256Y8661*X19939Y10884D2*X19939Y8979D1*X20256Y8661*X13589Y8661*X13589Y12789*X14859Y18504D2*X14542Y18504D1*X11684Y21361*X1842Y21361*X1842Y10884*X4699Y10884*X7239Y8661*X13589Y8661*D10*X26924Y19456D3*X27876Y21044D3*X32004Y20409D3*X32004Y22949D3*X26606Y28029D3*X27876Y26124D3*X25972Y26124D3*X11684Y10249D3*X16764Y10249D3*X22479Y10566D3*X24384Y10566D3*X26924Y14376D3*X24384Y15646D3*X22479Y15646D3*X19304Y15964D3*X14224Y15964D3*X14859Y22314D3*X19939Y22314D3*X19304Y26759D3*X20892Y26124D3*X21526Y28029D3*X19304Y31839D3*X17399Y31839D3*X13589Y35649D3*X12319Y31839D3*X8509Y35649D3*X6604Y30886D3*X6604Y28346D3*X6604Y25489D3*X6604Y22949D3*X6604Y19774D3*X6604Y17234D3*X6604Y14376D3*X6604Y11836D3*D11*X3746Y13106D3*X3746Y18504D3*X3746Y24219D3*X3746Y29616D3*X21209Y35649D3*X25019Y35649D3*X32004Y30886D3*X32004Y12154D3*D12*X25019Y30569D3*X23749Y31839D3*X22479Y30569D3*X14224Y28664D3*X15494Y29934D3*X16764Y28664D3*X17399Y24854D3*X16129Y26124D3*X14859Y24854D3*X14859Y18504D3*X16129Y19774D3*X17399Y18504D3*X24702Y17869D3*X23432Y19139D3*X24702Y20409D3*X24702Y22949D3*X23432Y24219D3*X22162Y22949D3*X21209Y20409D3*X19939Y19139D3*X21209Y17869D3*X19939Y13424D3*X19939Y10884D3*X18669Y12154D3*X16129Y12789D3*X14859Y14059D3*X13589Y12789D3*X0Y0D2*M02*