G04 Output by ViewMate Deluxe V11.0.9  PentaLogix LLC*
G04 Sun Feb 16 15:57:02 2014*
%FSLAX33Y33*%
%MOMM*%
%IPPOS*%
%ADD100C,1.5113*%
%ADD101R,2.0041X2.0041*%
%ADD102C,1.4122*%

%LPD*%
X0Y0D2*D100*G1X26924Y19456D3*X27876Y21044D3*X32004Y20409D3*X32004Y22949D3*X26606Y28029D3*X27876Y26124D3*X25972Y26124D3*X11684Y10249D3*X16764Y10249D3*X22479Y10566D3*X24384Y10566D3*X26924Y14376D3*X24384Y15646D3*X22479Y15646D3*X19304Y15964D3*X14224Y15964D3*X14859Y22314D3*X19939Y22314D3*X19304Y26759D3*X20892Y26124D3*X21526Y28029D3*X19304Y31839D3*X17399Y31839D3*X13589Y35649D3*X12319Y31839D3*X8509Y35649D3*X6604Y30886D3*X6604Y28346D3*X6604Y25489D3*X6604Y22949D3*X6604Y19774D3*X6604Y17234D3*X6604Y14376D3*X6604Y11836D3*D101*X3746Y13106D3*X3746Y18504D3*X3746Y24219D3*X3746Y29616D3*X21209Y35649D3*X25019Y35649D3*X32004Y30886D3*X32004Y12154D3*D102*X25019Y30569D3*X23749Y31839D3*X22479Y30569D3*X14224Y28664D3*X15494Y29934D3*X16764Y28664D3*X17399Y24854D3*X16129Y26124D3*X14859Y24854D3*X14859Y18504D3*X16129Y19774D3*X17399Y18504D3*X24702Y17869D3*X23432Y19139D3*X24702Y20409D3*X24702Y22949D3*X23432Y24219D3*X22162Y22949D3*X21209Y20409D3*X19939Y19139D3*X21209Y17869D3*X19939Y13424D3*X19939Y10884D3*X18669Y12154D3*X16129Y12789D3*X14859Y14059D3*X13589Y12789D3*X0Y0D2*M02*