G04 Output by ViewMate Deluxe V11.0.9  PentaLogix LLC*
G04 Sun Feb 16 15:57:02 2014*
%FSLAX33Y33*%
%MOMM*%
%IPPOS*%
%ADD10C,1.3081*%
%ADD11R,1.8009X1.8009*%
%ADD12C,1.209*%
%ADD13C,0.4064*%

%LPD*%
X0Y0D2*D13*G1X34544Y29898D2*X33310Y29898D1*X33310Y30300D2*X34544Y30300D1*X34544Y30704D2*X33310Y30704D1*X33310Y31105D2*X34544Y31105D1*X34544Y31509D2*X33310Y31509D1*X33310Y31910D2*X34544Y31910D1*X34544Y32314D2*X33449Y32314D1*X34295Y32715D2*X34544Y32715D1*X26302Y36741D2*X30381Y36741D1*X30147Y36340D2*X26325Y36340D1*X26325Y35936D2*X29967Y35936D1*X29860Y35535D2*X26325Y35535D1*X26325Y35131D2*X29820Y35131D1*X29820Y34729D2*X26325Y34729D1*X24275Y32715D2*X30983Y32715D1*X31829Y32314D2*X24646Y32314D1*X34544Y27079D2*X28341Y27079D1*X28796Y26678D2*X34544Y26678D1*X34544Y26274D2*X28936Y26274D1*X28920Y25872D2*X34544Y25872D1*X34544Y25469D2*X28720Y25469D1*X28092Y25067D2*X34544Y25067D1*X26868Y25469D2*X27033Y25469D1*X26957Y26678D2*X26937Y26678D1*X27412Y27079D2*X27084Y27079D1*X34544Y27483D2*X27529Y27483D1*X27666Y27884D2*X34544Y27884D1*X34544Y28288D2*X27648Y28288D1*X27445Y28689D2*X34544Y28689D1*X30698Y29898D2*X25776Y29898D1*X26002Y30300D2*X30698Y30300D1*X30698Y30704D2*X26030Y30704D1*X25890Y31105D2*X30698Y31105D1*X30698Y31509D2*X25392Y31509D1*X30698Y31956D2*X30935Y32194D1*X33073Y32194*X33310Y31956*X33310Y29820*X33073Y29581*X30935Y29581*X30698Y29820*X30698Y31956*X24760Y31910D2*X30698Y31910D1*X23490Y30704D2*X24008Y30704D1*X24036Y30300D2*X23462Y30300D1*X23236Y29898D2*X24262Y29898D1*X19304Y26759D2*X19304Y27871D1*X19304Y26759*X15603Y17821D2*X16655Y17821D1*X16421Y18222D2*X15837Y18222D1*X15870Y18626D2*X16388Y18626D1*X13574Y27884D2*X7615Y27884D1*X7714Y28288D2*X13287Y28288D1*X13213Y28689D2*X7661Y28689D1*X7430Y29093D2*X13307Y29093D1*X1773Y32715D2*X1524Y32715D1*X1524Y32314D2*X2619Y32314D1*X15794Y27079D2*X1524Y27079D1*X14874Y27884D2*X16114Y27884D1*X15827Y28288D2*X15161Y28288D1*X15235Y28689D2*X15753Y28689D1*X7663Y30704D2*X14834Y30704D1*X14552Y30300D2*X7508Y30300D1*X6988Y29898D2*X14483Y29898D1*X5547Y28689D2*X5052Y28689D1*X5052Y29093D2*X5778Y29093D1*X13625Y29494D2*X5052Y29494D1*X7661Y31105D2*X11554Y31105D1*X11308Y31509D2*X7483Y31509D1*X6904Y31910D2*X11260Y31910D1*X1524Y31910D2*X6304Y31910D1*X5725Y31509D2*X1524Y31509D1*X1524Y31105D2*X5547Y31105D1*X2459Y30704D2*X1524Y30704D1*X1524Y30300D2*X2441Y30300D1*X2441Y29898D2*X1524Y29898D1*X1524Y29494D2*X2441Y29494D1*X2441Y29093D2*X1524Y29093D1*X1524Y28689D2*X2441Y28689D1*X5494Y28288D2*X1524Y28288D1*X1524Y27884D2*X5593Y27884D1*X5903Y27483D2*X1524Y27483D1*X5494Y25469D2*X4872Y25469D1*X5052Y25067D2*X5573Y25067D1*X5857Y24663D2*X5052Y24663D1*X6604Y25489D2*X6604Y26601D1*X6604Y25489*X14044Y25469D2*X7714Y25469D1*X7635Y25067D2*X13853Y25067D1*X13848Y24663D2*X7351Y24663D1*X5052Y24262D2*X14023Y24262D1*X5545Y23053D2*X4956Y23053D1*X5052Y23457D2*X5667Y23457D1*X6027Y23858D2*X5052Y23858D1*X13800Y22248D2*X7402Y22248D1*X7628Y22652D2*X13851Y22652D1*X14100Y23053D2*X7663Y23053D1*X19180Y23053D2*X15618Y23053D1*X15867Y22652D2*X18931Y22652D1*X18880Y22248D2*X15918Y22248D1*X15812Y21847D2*X18986Y21847D1*X19312Y21443D2*X15486Y21443D1*X16685Y20638D2*X20211Y20638D1*X20198Y20236D2*X17031Y20236D1*X17140Y19832D2*X19202Y19832D1*X18966Y19431D2*X17803Y19431D1*X18275Y19027D2*X18928Y19027D1*X19058Y18626D2*X18410Y18626D1*X18377Y18222D2*X19512Y18222D1*X20198Y17821D2*X18143Y17821D1*X23625Y11379D2*X23238Y11379D1*X25237Y15001D2*X26005Y15001D1*X26492Y15405D2*X25430Y15405D1*X26924Y14376D2*X26924Y15489D1*X26924Y14376*X34013Y10170D2*X34544Y10170D1*X25143Y11379D2*X30698Y11379D1*X24384Y10566D2*X24384Y11679D1*X24384Y10566*X23251Y9769D2*X23612Y9769D1*X22479Y11679D2*X22479Y10566D1*X22479Y11679*X26411Y13391D2*X20950Y13391D1*X20879Y13795D2*X25974Y13795D1*X25827Y14196D2*X20597Y14196D1*X24625Y14600D2*X25834Y14600D1*X23942Y16612D2*X22921Y16612D1*X23393Y16210D2*X23470Y16210D1*X23531Y15001D2*X23332Y15001D1*X22720Y14600D2*X24143Y14600D1*X15730Y14600D2*X22238Y14600D1*X17658Y12184D2*X16952Y12184D1*X17536Y10975D2*X18928Y10975D1*X18974Y10574D2*X17777Y10574D1*X17823Y10170D2*X19223Y10170D1*X21707Y9769D2*X17711Y9769D1*X21440Y10170D2*X20655Y10170D1*X20904Y10574D2*X21369Y10574D1*X21443Y10975D2*X20950Y10975D1*X20828Y11379D2*X21720Y11379D1*X30698Y11781D2*X20414Y11781D1*X34544Y13391D2*X33142Y13391D1*X33310Y12990D2*X34544Y12990D1*X34544Y12586D2*X33310Y12586D1*X33310Y12184D2*X34544Y12184D1*X34544Y11781D2*X33310Y11781D1*X33310Y11379D2*X34544Y11379D1*X34544Y10975D2*X33200Y10975D1*X25494Y10574D2*X34544Y10574D1*X25413Y10993D2*X25469Y10828D1*X25494Y10655*X25494Y10566*X24384Y10566*X22479Y10566*X21369Y10566*X22479Y10566*X22479Y9456*X22479Y10566*X23589Y10566*X24384Y10566*X24384Y9456*X24298Y9456*X24125Y9482*X23957Y9538*X23802Y9616*X23660Y9721*X23536Y9842*X23434Y9985*X23432Y9990*X23429Y9985*X23327Y9842*X23203Y9721*X23061Y9616*X22906Y9538*X22738Y9482*X22565Y9456*X22479Y9456*X22393Y9456*X22220Y9482*X22052Y9538*X21897Y9616*X21755Y9721*X21631Y9842*X21529Y9985*X21450Y10140*X21394Y10307*X21369Y10480*X21369Y10566*X21369Y10655*X21394Y10828*X21450Y10993*X21529Y11148*X21631Y11290*X21755Y11415*X21897Y11516*X22052Y11598*X22220Y11651*X22393Y11679*X22479Y11679*X22565Y11679*X22738Y11651*X22906Y11598*X23061Y11516*X23203Y11415*X23327Y11290*X23429Y11148*X23432Y11146*X23434Y11148*X23536Y11290*X23660Y11415*X23802Y11516*X23957Y11598*X24125Y11651*X24298Y11679*X24384Y11679*X24470Y11679*X24643Y11651*X24811Y11598*X24966Y11516*X25108Y11415*X25232Y11290*X25334Y11148*X25413Y10993*X30808Y10975D2*X25420Y10975D1*X25423Y10170D2*X31265Y10170D1*X25108Y9721D2*X24966Y9616D1*X24811Y9538*X24643Y9482*X24470Y9456*X24384Y9456*X24384Y10566*X25494Y10566*X25494Y10480*X25469Y10307*X25413Y10140*X25334Y9985*X25232Y9842*X25108Y9721*X30711Y9769D2*X25156Y9769D1*X17379Y9365D2*X30340Y9365D1*X12299Y9365D2*X16149Y9365D1*X15817Y9769D2*X12631Y9769D1*X12743Y10170D2*X15705Y10170D1*X15751Y10574D2*X12697Y10574D1*X15865Y10851D2*X15705Y10460D1*X15705Y10038*X15865Y9649*X16165Y9350*X16553Y9190*X16975Y9190*X17363Y9350*X17663Y9649*X17823Y10038*X17823Y10460*X17663Y10851*X17363Y11148*X16975Y11311*X16553Y11311*X16165Y11148*X15865Y10851*X12456Y10975D2*X15992Y10975D1*X7242Y10975D2*X10912Y10975D1*X2055Y10170D2*X1524Y10170D1*X1524Y12184D2*X2441Y12184D1*X2441Y12586D2*X1524Y12586D1*X1524Y12990D2*X2441Y12990D1*X2441Y13391D2*X1524Y13391D1*X1524Y13795D2*X2441Y13795D1*X2461Y14196D2*X1524Y14196D1*X1524Y16612D2*X5728Y16612D1*X6307Y16210D2*X1524Y16210D1*X5052Y13795D2*X5654Y13795D1*X5507Y14196D2*X5032Y14196D1*X1524Y14600D2*X5514Y14600D1*X5685Y15001D2*X1524Y15001D1*X12761Y13391D2*X7117Y13391D1*X13805Y13795D2*X13876Y13795D1*X7554Y13795D2*X13373Y13795D1*X13848Y14196D2*X7701Y14196D1*X7694Y14600D2*X13988Y14600D1*X13777Y15001D2*X7523Y15001D1*X7036Y15405D2*X13307Y15405D1*X6604Y15489D2*X6604Y14376D1*X6604Y15489*X6177Y15408D2*X6345Y15461D1*X6518Y15489*X6604Y15489*X6690Y15489*X6863Y15461*X7031Y15408*X7186Y15326*X7328Y15225*X7452Y15100*X7554Y14958*X7633Y14803*X7689Y14638*X7714Y14465*X7714Y14376*X6604Y14376*X5494Y14376*X5494Y14465*X5519Y14638*X5575Y14803*X5654Y14958*X5756Y15100*X5880Y15225*X6022Y15326*X6177Y15408*X1524Y15405D2*X6172Y15405D1*X13165Y15806D2*X1524Y15806D1*X6901Y16210D2*X13178Y16210D1*X13373Y16612D2*X7480Y16612D1*X7661Y17015D2*X13988Y17015D1*X5052Y19431D2*X5547Y19431D1*X5778Y19027D2*X5052Y19027D1*X15573Y20638D2*X7305Y20638D1*X7617Y20236D2*X15227Y20236D1*X15118Y19832D2*X7714Y19832D1*X7661Y19431D2*X14455Y19431D1*X13983Y19027D2*X7430Y19027D1*X5052Y18626D2*X13848Y18626D1*X6218Y18222D2*X5052Y18222D1*X5052Y17821D2*X5700Y17821D1*X5545Y17417D2*X5034Y17417D1*X1524Y17015D2*X5547Y17015D1*X2459Y17417D2*X1524Y17417D1*X1524Y17821D2*X2441Y17821D1*X2441Y18222D2*X1524Y18222D1*X1524Y18626D2*X2441Y18626D1*X2441Y19027D2*X1524Y19027D1*X2441Y19573D2*X2677Y19812D1*X4816Y19812*X5052Y19573*X5052Y17437*X4816Y17198*X2677Y17198*X2441Y17437*X2441Y19573*X1524Y19431D2*X2441Y19431D1*X5494Y19832D2*X1524Y19832D1*X1524Y20236D2*X5591Y20236D1*X5903Y20638D2*X1524Y20638D1*X6604Y19774D2*X6604Y20886D1*X6690Y20886*X6863Y20858*X7031Y20805*X7186Y20724*X7328Y20622*X7452Y20498*X7554Y20356*X7633Y20201*X7689Y20036*X7714Y19863*X7714Y19774*X6604Y19774*X6604Y20886*X6518Y20886*X6345Y20858*X6177Y20805*X6022Y20724*X5880Y20622*X5756Y20498*X5654Y20356*X5575Y20201*X5519Y20036*X5494Y19863*X5494Y19774*X6604Y19774*X6863Y18689D2*X7031Y18745D1*X7186Y18824*X7328Y18928*X7452Y19050*X7554Y19192*X7633Y19347*X7689Y19515*X7714Y19688*X7714Y19774*X6604Y19774*X5494Y19774*X5494Y19688*X5519Y19515*X5575Y19347*X5654Y19192*X5756Y19050*X5880Y18928*X6022Y18824*X6177Y18745*X6345Y18689*X6518Y18664*X6604Y18664*X6604Y19774*X6604Y18664*X6690Y18664*X6863Y18689*X13881Y18222D2*X6990Y18222D1*X14003Y17932D2*X13848Y18303D1*X13848Y18705*X14003Y19078*X14288Y19360*X14658Y19515*X15060Y19515*X15161Y19474*X15118Y19573*X15118Y19975*X15273Y20348*X15558Y20630*X15928Y20785*X16330Y20785*X16700Y20630*X16985Y20348*X17140Y19975*X17140Y19573*X17097Y19474*X17198Y19515*X17600Y19515*X17970Y19360*X18255Y19078*X18410Y18705*X18410Y18303*X18255Y17932*X17970Y17648*X17600Y17493*X17198Y17493*X16828Y17648*X16543Y17932*X16388Y18303*X16388Y18705*X16431Y18806*X16330Y18763*X15928Y18763*X15827Y18806*X15870Y18705*X15870Y18303*X15715Y17932*X15430Y17648*X15060Y17493*X14658Y17493*X14288Y17648*X14003Y17932*X7508Y17821D2*X14115Y17821D1*X7663Y17445D2*X7663Y17023D1*X7503Y16634*X7203Y16335*X6815Y16175*X6393Y16175*X6005Y16335*X5705Y16634*X5545Y17023*X5545Y17445*X5705Y17836*X6005Y18133*X6393Y18296*X6815Y18296*X7203Y18133*X7503Y17836*X7663Y17445*X20302Y17417D2*X7663Y17417D1*X19540Y17015D2*X20635Y17015D1*X14460Y17015D2*X19068Y17015D1*X18453Y16612D2*X15075Y16612D1*X15270Y16210D2*X18258Y16210D1*X18245Y15806D2*X15283Y15806D1*X15141Y15405D2*X18387Y15405D1*X18857Y15001D2*X15225Y15001D1*X21626Y15001D2*X19751Y15001D1*X20221Y15405D2*X21433Y15405D1*X21420Y15806D2*X20363Y15806D1*X20350Y16210D2*X21565Y16210D1*X20203Y16566D2*X20363Y16175D1*X20363Y15753*X20203Y15364*X19903Y15065*X19515Y14905*X19093Y14905*X18705Y15065*X18405Y15364*X18245Y15753*X18245Y16175*X18405Y16566*X18705Y16863*X19093Y17026*X19515Y17026*X19903Y16863*X20203Y16566*X22037Y16612D2*X20155Y16612D1*X24127Y17015D2*X21783Y17015D1*X22116Y17417D2*X23795Y17417D1*X23691Y17821D2*X22220Y17821D1*X22156Y18222D2*X23005Y18222D1*X22550Y18626D2*X21882Y18626D1*X20950Y19027D2*X22421Y19027D1*X20932Y19431D2*X20912Y19431D1*X22459Y19431D2*X21486Y19431D1*X22062Y19832D2*X22695Y19832D1*X23691Y20236D2*X22220Y20236D1*X22207Y20638D2*X23703Y20638D1*X23904Y21041D2*X22007Y21041D1*X22890Y22248D2*X23973Y22248D1*X23731Y22652D2*X23132Y22652D1*X23172Y23053D2*X23691Y23053D1*X21107Y25067D2*X22850Y25067D1*X17635Y23858D2*X21717Y23858D1*X22421Y24262D2*X18235Y24262D1*X18410Y24663D2*X22522Y24663D1*X20676Y25067D2*X18405Y25067D1*X18214Y25469D2*X20048Y25469D1*X17117Y25872D2*X18636Y25872D1*X18303Y26274D2*X17140Y26274D1*X18194Y26759D2*X19304Y26759D1*X19304Y25649*X19304Y26759*X18194Y26759*X16993Y26678D2*X18194Y26678D1*X18240Y27079D2*X16464Y27079D1*X18456Y27483D2*X18580Y27607D1*X18722Y27709*X18877Y27790*X19045Y27843*X19218Y27871*X19304Y27871*X19390Y27871*X19563Y27843*X19731Y27790*X19886Y27709*X20028Y27607*X20152Y27483*X20427Y27079D2*X20368Y27079D1*X25768Y28689D2*X22421Y28689D1*X22611Y28288D2*X25565Y28288D1*X25547Y27884D2*X22629Y27884D1*X22494Y27483D2*X25684Y27483D1*X25397Y27079D2*X22111Y27079D1*X21811Y26678D2*X25006Y26678D1*X24869Y26274D2*X21951Y26274D1*X21935Y25872D2*X24887Y25872D1*X21791Y25524D2*X21491Y25225D1*X21102Y25065*X20681Y25065*X20292Y25225*X19992Y25524*X19876Y25804*X19731Y25730*X19563Y25674*X19390Y25649*X19304Y25649*X19218Y25649*X19045Y25674*X18877Y25730*X18722Y25809*X18580Y25913*X18456Y26035*X18354Y26177*X18275Y26332*X18219Y26500*X18194Y26673*X18194Y26759*X18194Y26848*X18219Y27021*X18275Y27186*X18354Y27341*X18456Y27483*X7305Y27483*X6604Y29459D2*X6604Y28346D1*X6604Y29459*X6345Y29431D2*X6518Y29459D1*X6604Y29459*X6690Y29459*X6863Y29431*X7031Y29378*X7186Y29296*X7328Y29195*X7452Y29070*X7554Y28928*X7633Y28773*X7689Y28608*X7714Y28435*X7714Y28346*X6604Y28346*X5494Y28346*X6604Y28346*X6604Y27236*X6604Y28346*X7714Y28346*X7714Y28260*X7689Y28087*X7633Y27920*X7554Y27765*X7452Y27622*X7328Y27501*X7186Y27396*X7031Y27318*X6863Y27262*X6690Y27236*X6604Y27236*X6518Y27236*X6345Y27262*X6177Y27318*X6022Y27396*X5880Y27501*X5756Y27622*X5654Y27765*X5575Y27920*X5519Y28087*X5494Y28260*X5494Y28346*X5494Y28435*X5519Y28608*X5575Y28773*X5654Y28928*X5756Y29070*X5880Y29195*X6022Y29296*X6177Y29378*X6345Y29431*X5052Y29898D2*X6220Y29898D1*X5700Y30300D2*X5052Y30300D1*X5545Y30676D2*X5545Y31097D1*X5705Y31488*X6005Y31786*X6393Y31948*X6815Y31948*X7203Y31786*X7503Y31488*X7663Y31097*X7663Y30676*X7503Y30287*X7203Y29987*X6815Y29827*X6393Y29827*X6005Y29987*X5705Y30287*X5545Y30676*X5034Y30704D2*X5545Y30704D1*X4816Y30924D2*X5052Y30686D1*X5052Y28550*X4816Y28311*X2677Y28311*X2441Y28550*X2441Y30686*X2677Y30924*X4816Y30924*X11366Y32314D2*X4239Y32314D1*X12779Y36340D2*X9380Y36340D1*X9583Y35936D2*X12560Y35936D1*X12530Y35535D2*X9616Y35535D1*X9492Y35131D2*X12657Y35131D1*X13040Y34729D2*X9131Y34729D1*X19853Y34729D2*X14138Y34729D1*X14521Y35131D2*X19853Y35131D1*X19853Y35535D2*X14648Y35535D1*X14618Y35936D2*X19853Y35936D1*X14488Y36251D2*X14648Y35860D1*X14648Y35438*X14488Y35049*X14188Y34750*X13800Y34590*X13378Y34590*X12990Y34750*X12690Y35049*X12530Y35438*X12530Y35860*X12690Y36251*X12990Y36548*X13378Y36711*X13800Y36711*X14188Y36548*X14488Y36251*X19853Y36340D2*X14399Y36340D1*X8717Y36741D2*X19893Y36741D1*X7526Y35131D2*X6248Y35131D1*X6208Y35535D2*X7402Y35535D1*X7435Y35936D2*X6101Y35936D1*X5921Y36340D2*X7638Y36340D1*X8301Y36741D2*X5687Y36741D1*X8509Y35649D2*X8509Y36761D1*X8509Y35649*X7399Y35649*X7399Y35738*X7424Y35911*X7480Y36076*X7559Y36231*X7661Y36373*X7785Y36497*X7927Y36599*X8082Y36680*X8250Y36733*X8423Y36761*X8509Y36761*X8595Y36761*X8768Y36733*X8936Y36680*X9091Y36599*X9233Y36497*X9357Y36373*X9459Y36231*X9538Y36076*X9594Y35911*X9619Y35738*X9619Y35649*X8509Y35649*X7927Y34699D2*X8082Y34620D1*X8250Y34564*X8423Y34539*X8509Y34539*X8509Y35649*X9619Y35649*X9619Y35563*X9594Y35390*X9538Y35222*X9459Y35067*X9357Y34925*X9233Y34803*X9091Y34699*X8936Y34620*X8768Y34564*X8595Y34539*X8509Y34539*X8509Y35649*X7399Y35649*X7399Y35563*X7424Y35390*X7480Y35222*X7559Y35067*X7661Y34925*X7785Y34803*X7927Y34699*X6248Y34729D2*X7887Y34729D1*X20127Y34326D2*X6162Y34326D1*X21112Y34326D2*X21306Y34326D1*X21306Y34729D2*X21112Y34729D1*X21112Y35131D2*X21306Y35131D1*X21306Y35535D2*X21112Y35535D1*X23736Y36741D2*X22525Y36741D1*X22565Y36340D2*X23713Y36340D1*X23713Y35936D2*X22565Y35936D1*X22565Y35535D2*X23713Y35535D1*X23713Y35131D2*X22565Y35131D1*X22565Y34729D2*X23713Y34729D1*X29906Y34326D2*X22291Y34326D1*X6055Y33924D2*X30013Y33924D1*X30246Y33520D2*X5822Y33520D1*X5519Y33119D2*X30549Y33119D1*X11697Y32715D2*X5085Y32715D1*X16777Y32715D2*X12941Y32715D1*X13272Y32314D2*X16446Y32314D1*X16340Y31910D2*X13378Y31910D1*X13330Y31509D2*X16388Y31509D1*X13218Y31239D2*X12918Y30940D1*X12530Y30780*X12108Y30780*X11720Y30940*X11420Y31239*X11260Y31628*X11260Y32050*X11420Y32441*X11720Y32738*X12108Y32901*X12530Y32901*X12918Y32738*X13218Y32441*X13378Y32050*X13378Y31628*X13218Y31239*X16634Y31105D2*X13084Y31105D1*X18164Y31105D2*X18539Y31105D1*X18682Y32715D2*X18021Y32715D1*X23223Y32715D2*X19926Y32715D1*X20256Y32314D2*X22852Y32314D1*X22738Y31910D2*X20363Y31910D1*X20315Y31509D2*X22106Y31509D1*X20203Y31239D2*X20363Y31628D1*X20363Y32050*X20203Y32441*X19903Y32738*X19515Y32901*X19093Y32901*X18705Y32738*X18405Y32441*X18352Y32311*X18298Y32441*X17998Y32738*X17610Y32901*X17188Y32901*X16800Y32738*X16500Y32441*X16340Y32050*X16340Y31628*X16500Y31239*X16800Y30940*X17188Y30780*X17610Y30780*X17998Y30940*X18298Y31239*X18352Y31369*X18405Y31239*X18705Y30940*X19093Y30780*X19515Y30780*X19903Y30940*X20203Y31239*X21608Y31105D2*X20069Y31105D1*X16154Y30704D2*X21468Y30704D1*X21496Y30300D2*X16436Y30300D1*X21623Y29997D2*X21468Y30368D1*X21468Y30770*X21623Y31143*X21908Y31425*X22278Y31580*X22680Y31580*X22781Y31539*X22738Y31638*X22738Y32040*X22893Y32413*X23178Y32695*X23548Y32850*X23950Y32850*X24320Y32695*X24605Y32413*X24760Y32040*X24760Y31638*X24717Y31539*X24818Y31580*X25220Y31580*X25590Y31425*X25875Y31143*X26030Y30770*X26030Y30368*X25875Y29997*X25590Y29713*X25220Y29558*X24818Y29558*X24448Y29713*X24163Y29997*X24008Y30368*X24008Y30770*X24051Y30871*X23950Y30828*X23548Y30828*X23447Y30871*X23490Y30770*X23490Y30368*X23335Y29997*X23050Y29713*X22680Y29558*X22278Y29558*X21908Y29713*X21623Y29997*X16505Y29898D2*X21722Y29898D1*X34544Y29494D2*X17363Y29494D1*X21852Y29093D2*X34544Y29093D1*X21526Y29141D2*X21526Y28029D1*X21526Y29141*X17681Y29093D2*X21201Y29093D1*X20632Y28689D2*X17775Y28689D1*X20442Y28291D2*X20498Y28456D1*X20577Y28611*X20678Y28753*X20803Y28877*X20945Y28979*X21100Y29060*X21267Y29113*X21440Y29141*X21526Y29141*X21613Y29141*X21786Y29113*X21953Y29060*X22108Y28979*X22250Y28877*X22375Y28753*X22476Y28611*X22555Y28456*X22611Y28291*X22636Y28118*X22636Y28029*X21526Y28029*X20417Y28029*X20417Y28118*X20442Y28291*X17701Y28288D2*X20442Y28288D1*X17336Y27808D2*X16965Y27653D1*X16563Y27653*X16192Y27808*X15908Y28092*X15753Y28463*X15753Y28865*X15796Y28966*X15695Y28923*X15293Y28923*X15192Y28966*X15235Y28865*X15235Y28463*X15080Y28092*X14796Y27808*X14425Y27653*X14023Y27653*X13652Y27808*X13368Y28092*X13213Y28463*X13213Y28865*X13368Y29238*X13652Y29520*X14023Y29675*X14425Y29675*X14526Y29634*X14483Y29733*X14483Y30135*X14638Y30508*X14922Y30790*X15293Y30945*X15695Y30945*X16066Y30790*X16350Y30508*X16505Y30135*X16505Y29733*X16462Y29634*X16563Y29675*X16965Y29675*X17336Y29520*X17620Y29238*X17775Y28865*X17775Y28463*X17620Y28092*X17336Y27808*X20424Y27884D2*X17414Y27884D1*X20559Y27483D2*X20152Y27483D1*X20254Y27341*X20333Y27186*X20376Y27059*X20681Y27186*X20800Y27186*X20678Y27305*X20577Y27447*X20498Y27602*X20442Y27770*X20417Y27943*X20417Y28029*X21526Y28029*X22636Y28029*X22636Y27943*X22611Y27770*X22555Y27602*X22476Y27447*X22375Y27305*X22250Y27183*X22108Y27079*X21953Y27000*X21786Y26944*X21613Y26919*X21598Y26919*X21791Y26726*X21951Y26335*X21951Y25913*X21791Y25524*X25075Y25469D2*X21735Y25469D1*X34544Y24262D2*X24442Y24262D1*X24341Y24663D2*X34544Y24663D1*X25631Y25067D2*X24013Y25067D1*X27661Y25067D2*X26312Y25067D1*X27666Y25065D2*X28087Y25065D1*X28476Y25225*X28776Y25524*X28936Y25913*X28936Y26335*X28776Y26726*X28476Y27023*X28087Y27186*X27666Y27186*X27277Y27023*X26977Y26726*X26949Y26655*X26921Y26706*X26820Y26848*X26698Y26970*X26817Y26970*X27206Y27130*X27506Y27429*X27666Y27818*X27666Y28240*X27506Y28631*X27206Y28928*X26817Y29091*X26396Y29091*X26007Y28928*X25707Y28631*X25547Y28240*X25547Y27818*X25707Y27429*X25900Y27236*X25885Y27236*X25712Y27208*X25545Y27155*X25390Y27074*X25248Y26972*X25123Y26848*X25022Y26706*X24943Y26551*X24887Y26386*X24862Y26213*X24862Y26124*X25972Y26124*X24862Y26124*X24862Y26038*X24887Y25865*X24943Y25697*X25022Y25542*X25123Y25400*X25248Y25278*X25390Y25174*X25545Y25095*X25712Y25039*X25885Y25014*X25972Y25014*X25972Y26124*X25972Y25014*X26058Y25014*X26231Y25039*X26398Y25095*X26553Y25174*X26695Y25278*X26820Y25400*X26921Y25542*X26949Y25593*X26977Y25524*X27277Y25225*X27666Y25065*X20892Y21847D2*X27178Y21847D1*X20998Y22248D2*X21433Y22248D1*X20947Y22652D2*X21191Y22652D1*X21151Y23053D2*X20698Y23053D1*X7541Y23457D2*X21278Y23457D1*X14623Y23858D2*X7181Y23858D1*X17163Y23858D2*X15095Y23858D1*X15695Y24262D2*X16563Y24262D1*X16388Y24663D2*X15870Y24663D1*X15865Y25067D2*X16393Y25067D1*X7648Y25872D2*X15141Y25872D1*X15118Y26274D2*X7391Y26274D1*X15273Y26698D2*X15558Y26980D1*X15928Y27135*X16330Y27135*X16700Y26980*X16985Y26698*X17140Y26325*X17140Y25923*X17097Y25824*X17198Y25865*X17600Y25865*X17970Y25710*X18255Y25428*X18410Y25055*X18410Y24653*X18255Y24282*X17970Y23998*X17600Y23843*X17198Y23843*X16828Y23998*X16543Y24282*X16388Y24653*X16388Y25055*X16431Y25156*X16330Y25113*X15928Y25113*X15827Y25156*X15870Y25055*X15870Y24653*X15715Y24282*X15430Y23998*X15060Y23843*X14658Y23843*X14288Y23998*X14003Y24282*X13848Y24653*X13848Y25055*X14003Y25428*X14288Y25710*X14658Y25865*X15060Y25865*X15161Y25824*X15118Y25923*X15118Y26325*X15273Y26698*X1524Y26678D2*X15265Y26678D1*X5817Y26274D2*X1524Y26274D1*X5575Y25916D2*X5654Y26071D1*X5756Y26213*X5880Y26337*X6022Y26439*X6177Y26520*X6345Y26573*X6518Y26601*X6604Y26601*X6690Y26601*X6863Y26573*X7031Y26520*X7186Y26439*X7328Y26337*X7452Y26213*X7554Y26071*X7633Y25916*X7689Y25751*X7714Y25578*X7714Y25489*X6604Y25489*X5494Y25489*X6604Y25489*X6604Y24379*X6604Y25489*X7714Y25489*X7714Y25403*X7689Y25230*X7633Y25062*X7554Y24907*X7452Y24765*X7328Y24643*X7186Y24539*X7031Y24460*X6863Y24404*X6690Y24379*X6604Y24379*X6518Y24379*X6345Y24404*X6177Y24460*X6022Y24539*X5880Y24643*X5756Y24765*X5654Y24907*X5575Y25062*X5519Y25230*X5494Y25403*X5494Y25489*X5494Y25578*X5519Y25751*X5575Y25916*X1524Y25872D2*X5560Y25872D1*X1524Y25469D2*X2621Y25469D1*X2441Y25067D2*X1524Y25067D1*X1524Y24663D2*X2441Y24663D1*X2441Y24262D2*X1524Y24262D1*X1524Y23858D2*X2441Y23858D1*X2441Y23457D2*X1524Y23457D1*X2441Y23152D2*X2441Y25288D1*X2677Y25527*X4816Y25527*X5052Y25288*X5052Y23152*X4816Y22913*X2677Y22913*X2441Y23152*X1524Y23053D2*X2537Y23053D1*X5580Y22652D2*X1524Y22652D1*X5705Y22349D2*X6005Y22050D1*X6393Y21890*X6815Y21890*X7203Y22050*X7503Y22349*X7663Y22738*X7663Y23160*X7503Y23551*X7203Y23848*X6815Y24011*X6393Y24011*X6005Y23848*X5705Y23551*X5545Y23160*X5545Y22738*X5705Y22349*X1524Y22248D2*X5806Y22248D1*X13906Y21847D2*X1524Y21847D1*X14260Y21415D2*X13960Y21714D1*X13800Y22103*X13800Y22525*X13960Y22916*X14260Y23213*X14648Y23376*X15070Y23376*X15458Y23213*X15758Y22916*X15918Y22525*X15918Y22103*X15758Y21714*X15458Y21415*X15070Y21255*X14648Y21255*X14260Y21415*X1524Y21443D2*X14232Y21443D1*X20411Y21041D2*X1524Y21041D1*X20638Y21265D2*X21008Y21420D1*X21410Y21420*X21780Y21265*X22065Y20983*X22220Y20610*X22220Y20208*X22065Y19837*X21780Y19553*X21410Y19398*X21008Y19398*X20907Y19441*X20950Y19340*X20950Y18938*X20907Y18839*X21008Y18880*X21410Y18880*X21780Y18725*X22065Y18443*X22220Y18070*X22220Y17668*X22065Y17297*X21780Y17013*X21410Y16858*X21008Y16858*X20638Y17013*X20353Y17297*X20198Y17668*X20198Y18070*X20241Y18171*X20140Y18128*X19738Y18128*X19368Y18283*X19083Y18567*X18928Y18938*X18928Y19340*X19083Y19713*X19368Y19995*X19738Y20150*X20140Y20150*X20241Y20109*X20198Y20208*X20198Y20610*X20353Y20983*X20638Y21265*X20538Y21415D2*X20150Y21255D1*X19728Y21255*X19340Y21415*X19040Y21714*X18880Y22103*X18880Y22525*X19040Y22916*X19340Y23213*X19728Y23376*X20150Y23376*X20538Y23213*X20838Y22916*X20998Y22525*X20998Y22103*X20838Y21714*X20538Y21415*X26894Y21443D2*X20566Y21443D1*X34544Y18626D2*X27592Y18626D1*X27894Y19027D2*X34544Y19027D1*X31478Y19431D2*X27983Y19431D1*X27917Y19832D2*X31052Y19832D1*X30907Y20236D2*X28567Y20236D1*X28857Y20638D2*X30914Y20638D1*X31090Y21041D2*X28936Y21041D1*X34544Y19431D2*X32530Y19431D1*X32956Y19832D2*X34544Y19832D1*X34544Y20236D2*X33101Y20236D1*X33094Y20638D2*X34544Y20638D1*X34544Y21041D2*X32918Y21041D1*X32418Y21443D2*X34544Y21443D1*X32004Y21521D2*X32004Y20409D1*X32004Y21521*X31577Y21440D2*X31745Y21493D1*X31918Y21521*X32004Y21521*X32090Y21521*X32263Y21493*X32431Y21440*X32586Y21359*X32728Y21257*X32852Y21133*X32954Y20991*X33033Y20836*X33089Y20671*X33114Y20498*X33114Y20409*X32004Y20409*X30894Y20409*X32004Y20409*X32004Y19299*X32004Y20409*X33114Y20409*X33114Y20323*X33089Y20150*X33033Y19982*X32954Y19827*X32852Y19685*X32728Y19563*X32586Y19459*X32431Y19380*X32263Y19324*X32090Y19299*X32004Y19299*X31918Y19299*X31745Y19324*X31577Y19380*X31422Y19459*X31280Y19563*X31156Y19685*X31054Y19827*X30975Y19982*X30919Y20150*X30894Y20323*X30894Y20409*X30894Y20498*X30919Y20671*X30975Y20836*X31054Y20991*X31156Y21133*X31280Y21257*X31422Y21359*X31577Y21440*X28859Y21443D2*X31590Y21443D1*X34544Y21847D2*X28575Y21847D1*X32802Y22248D2*X34544Y22248D1*X34544Y22652D2*X33028Y22652D1*X33063Y23053D2*X34544Y23053D1*X34544Y23457D2*X32941Y23457D1*X32581Y23858D2*X34544Y23858D1*X25146Y23858D2*X31427Y23858D1*X31067Y23457D2*X25585Y23457D1*X25712Y23053D2*X30945Y23053D1*X30980Y22652D2*X25672Y22652D1*X31105Y22349D2*X30945Y22738D1*X30945Y23160*X31105Y23551*X31405Y23848*X31793Y24011*X32215Y24011*X32603Y23848*X32903Y23551*X33063Y23160*X33063Y22738*X32903Y22349*X32603Y22050*X32215Y21890*X31793Y21890*X31405Y22050*X31105Y22349*X25430Y22248D2*X31206Y22248D1*X25273Y22093D2*X25557Y22377D1*X25712Y22748*X25712Y23150*X25557Y23523*X25273Y23805*X24902Y23960*X24501Y23960*X24399Y23919*X24442Y24018*X24442Y24420*X24287Y24793*X24003Y25075*X23632Y25230*X23231Y25230*X22860Y25075*X22576Y24793*X22421Y24420*X22421Y24018*X22464Y23919*X22362Y23960*X21961Y23960*X21590Y23805*X21306Y23523*X21151Y23150*X21151Y22748*X21306Y22377*X21590Y22093*X21961Y21938*X22362Y21938*X22733Y22093*X23017Y22377*X23172Y22748*X23172Y23150*X23129Y23251*X23231Y23208*X23632Y23208*X23734Y23251*X23691Y23150*X23691Y22748*X23846Y22377*X24130Y22093*X24501Y21938*X24902Y21938*X25273Y22093*X26817Y21041D2*X25499Y21041D1*X25700Y20638D2*X26896Y20638D1*X25712Y20236D2*X26203Y20236D1*X25931Y19832D2*X25555Y19832D1*X24978Y19431D2*X25865Y19431D1*X24404Y19431D2*X24425Y19431D1*X25954Y19027D2*X24442Y19027D1*X26325Y18557D2*X26713Y18397D1*X27135Y18397*X27523Y18557*X27823Y18857*X27983Y19246*X27983Y19667*X27854Y19985*X28087Y19985*X28476Y20145*X28776Y20444*X28936Y20833*X28936Y21255*X28776Y21646*X28476Y21943*X28087Y22106*X27666Y22106*X27277Y21943*X26977Y21646*X26817Y21255*X26817Y20833*X26947Y20518*X26713Y20518*X26325Y20356*X26025Y20058*X25865Y19667*X25865Y19246*X26025Y18857*X26325Y18557*X25375Y18626D2*X26256Y18626D1*X34544Y18222D2*X25649Y18222D1*X25712Y17821D2*X34544Y17821D1*X34544Y17417D2*X25608Y17417D1*X25276Y17015D2*X34544Y17015D1*X24902Y16858D2*X25273Y17013D1*X25557Y17297*X25712Y17668*X25712Y18070*X25557Y18443*X25273Y18725*X24902Y18880*X24501Y18880*X24399Y18839*X24442Y18938*X24442Y19340*X24399Y19441*X24501Y19398*X24902Y19398*X25273Y19553*X25557Y19837*X25712Y20208*X25712Y20610*X25557Y20983*X25273Y21265*X24902Y21420*X24501Y21420*X24130Y21265*X23846Y20983*X23691Y20610*X23691Y20208*X23734Y20109*X23632Y20150*X23231Y20150*X22860Y19995*X22576Y19713*X22421Y19340*X22421Y18938*X22576Y18567*X22860Y18283*X23231Y18128*X23632Y18128*X23734Y18171*X23691Y18070*X23691Y17668*X23846Y17297*X24130Y17013*X24501Y16858*X24902Y16858*X34544Y16612D2*X24826Y16612D1*X25298Y16210D2*X34544Y16210D1*X25443Y15857D2*X25443Y15436D1*X25283Y15047*X24983Y14747*X24595Y14587*X24173Y14587*X23785Y14747*X23485Y15047*X23432Y15176*X23378Y15047*X23078Y14747*X22690Y14587*X22268Y14587*X21880Y14747*X21580Y15047*X21420Y15436*X21420Y15857*X21580Y16248*X21880Y16546*X22268Y16708*X22690Y16708*X23078Y16546*X23378Y16248*X23432Y16119*X23485Y16248*X23785Y16546*X24173Y16708*X24595Y16708*X24983Y16546*X25283Y16248*X25443Y15857*X34544Y15806D2*X25443Y15806D1*X27356Y15405D2*X34544Y15405D1*X34544Y15001D2*X27843Y15001D1*X28014Y14600D2*X34544Y14600D1*X28034Y14376D2*X26924Y14376D1*X25814Y14376*X26924Y14376*X26924Y13266*X26838Y13266*X26665Y13292*X26497Y13348*X26342Y13426*X26200Y13531*X26076Y13652*X25974Y13795*X25895Y13950*X25839Y14117*X25814Y14290*X25814Y14376*X25814Y14465*X25839Y14638*X25895Y14803*X25974Y14958*X26076Y15100*X26200Y15225*X26342Y15326*X26497Y15408*X26665Y15461*X26838Y15489*X26924Y15489*X27010Y15489*X27183Y15461*X27351Y15408*X27506Y15326*X27648Y15225*X27772Y15100*X27874Y14958*X27953Y14803*X28009Y14638*X28034Y14465*X28034Y14376*X34544Y14196D2*X28021Y14196D1*X27874Y13795D2*X34544Y13795D1*X27506Y13426D2*X27351Y13348D1*X27183Y13292*X27010Y13266*X26924Y13266*X26924Y14376*X28034Y14376*X28034Y14290*X28009Y14117*X27953Y13950*X27874Y13795*X27772Y13652*X27648Y13531*X27506Y13426*X30866Y13391D2*X27437Y13391D1*X30698Y13223D2*X30935Y13462D1*X33073Y13462*X33310Y13223*X33310Y11087*X33073Y10848*X30935Y10848*X30698Y11087*X30698Y13223*X20853Y12990D2*X30698Y12990D1*X30698Y12586D2*X20531Y12586D1*X19680Y12184D2*X30698Y12184D1*X16957Y13391D2*X18928Y13391D1*X18999Y13795D2*X16345Y13795D1*X15870Y14196D2*X19281Y14196D1*X15842Y13795D2*X15913Y13795D1*X15118Y12990D2*X15161Y13091D1*X15060Y13048*X14658Y13048*X14557Y13091*X14600Y12990*X15121Y12586D2*X14597Y12586D1*X14412Y12184D2*X15306Y12184D1*X15923Y11781D2*X13795Y11781D1*X17729Y11781D2*X16335Y11781D1*X7562Y11379D2*X18016Y11379D1*X13383Y11781D2*X7663Y11781D1*X7607Y12184D2*X12766Y12184D1*X12581Y12586D2*X7353Y12586D1*X12578Y12990D2*X12733Y13363D1*X13018Y13645*X13388Y13800*X13790Y13800*X13891Y13759*X13848Y13858*X13848Y14260*X14003Y14633*X14275Y14905*X14013Y14905*X13625Y15065*X13325Y15364*X13165Y15753*X13165Y16175*X13325Y16566*X13625Y16863*X14013Y17026*X14435Y17026*X14823Y16863*X15123Y16566*X15283Y16175*X15283Y15753*X15123Y15364*X14829Y15070*X15060Y15070*X15430Y14915*X15715Y14633*X15870Y14260*X15870Y13858*X15827Y13759*X15928Y13800*X16330Y13800*X16700Y13645*X16985Y13363*X17140Y12990*X17755Y12586D2*X17137Y12586D1*X18098Y13010D2*X18468Y13165D1*X18870Y13165*X18971Y13124*X18928Y13223*X18928Y13625*X19083Y13998*X19368Y14280*X19738Y14435*X20140Y14435*X20510Y14280*X20795Y13998*X20950Y13625*X20950Y13223*X20795Y12852*X20510Y12568*X20140Y12413*X19738Y12413*X19637Y12456*X19680Y12355*X19680Y11953*X19637Y11854*X19738Y11895*X20140Y11895*X20510Y11740*X20795Y11458*X20950Y11085*X20950Y10683*X20795Y10312*X20510Y10028*X20140Y9873*X19738Y9873*X19368Y10028*X19083Y10312*X18928Y10683*X18928Y11085*X18971Y11186*X18870Y11143*X18468Y11143*X18098Y11298*X17813Y11582*X17658Y11953*X17658Y12355*X17813Y12728*X18098Y13010*X18075Y12990D2*X17140Y12990D1*X17140Y12588*X16985Y12217*X16700Y11933*X16330Y11778*X15928Y11778*X15558Y11933*X15273Y12217*X15118Y12588*X15118Y12990*X14600Y12990*X14600Y12588*X14445Y12217*X14160Y11933*X13790Y11778*X13388Y11778*X13018Y11933*X12733Y12217*X12578Y12588*X12578Y12990*X5052Y12990*X6091Y13391D2*X5052Y13391D1*X6177Y13348D2*X6345Y13292D1*X6518Y13266*X6604Y13266*X6604Y14376*X7714Y14376*X7714Y14290*X7689Y14117*X7633Y13950*X7554Y13795*X7452Y13652*X7328Y13531*X7186Y13426*X7031Y13348*X6863Y13292*X6690Y13266*X6604Y13266*X6604Y14376*X5494Y14376*X5494Y14290*X5519Y14117*X5575Y13950*X5654Y13795*X5756Y13652*X5880Y13531*X6022Y13426*X6177Y13348*X5052Y12586D2*X5855Y12586D1*X5052Y12040D2*X5052Y14176D1*X4816Y14414*X2677Y14414*X2441Y14176*X2441Y12040*X2677Y11801*X4816Y11801*X5052Y12040*X5601Y12184D2*X5052Y12184D1*X1524Y11781D2*X5545Y11781D1*X5646Y11379D2*X1524Y11379D1*X6005Y10937D2*X5705Y11237D1*X5545Y11626*X5545Y12047*X5705Y12438*X6005Y12736*X6393Y12898*X6815Y12898*X7203Y12736*X7503Y12438*X7663Y12047*X7663Y11626*X7503Y11237*X7203Y10937*X6815Y10777*X6393Y10777*X6005Y10937*X1524Y10975D2*X5966Y10975D1*X10671Y10574D2*X1524Y10574D1*X4803Y10170D2*X10625Y10170D1*X10737Y9769D2*X5357Y9769D1*X11085Y9350D2*X10785Y9649D1*X10625Y10038*X10625Y10460*X10785Y10851*X11085Y11148*X11473Y11311*X11895Y11311*X12283Y11148*X12583Y10851*X12743Y10460*X12743Y10038*X12583Y9649*X12283Y9350*X11895Y9190*X11473Y9190*X11085Y9350*X5728Y9365D2*X11069Y9365D1*X29949Y8560D2*X6119Y8560D1*X5961Y8964D2*X30107Y8964D1*X6055Y8799D2*X5685Y9441D1*X5161Y9964*X4516Y10335*X3800Y10528*X3058Y10528*X2342Y10335*X1697Y9964*X1524Y9792*X1524Y32934*X1697Y32758*X2342Y32388*X3058Y32194*X3800Y32194*X4516Y32388*X5161Y32758*X5685Y33284*X6055Y33927*X6248Y34643*X6248Y35385*X6055Y36104*X5685Y36746*X5512Y36919*X20036Y36919*X20028Y36916*X19944Y36830*X19883Y36726*X19853Y36609*X19853Y35745*X21112Y35745*X21112Y35552*X19853Y35552*X19853Y34689*X19883Y34572*X19944Y34468*X20028Y34384*X20132Y34323*X20249Y34293*X21112Y34293*X21112Y35552*X21306Y35552*X22565Y35552*X22565Y34689*X22535Y34572*X22474Y34468*X22390Y34384*X22286Y34323*X22169Y34293*X21306Y34293*X21306Y35552*X21306Y35745*X22565Y35745*X22565Y36609*X22535Y36726*X22474Y36830*X22390Y36916*X22382Y36919*X23914Y36919*X23713Y36718*X23713Y34582*X23950Y34343*X26088Y34343*X26325Y34582*X26325Y36718*X26124Y36919*X30556Y36919*X30383Y36746*X30013Y36104*X29820Y35385*X29820Y34643*X30013Y33927*X30383Y33284*X30907Y32758*X31552Y32388*X32268Y32194*X33010Y32194*X33726Y32388*X34371Y32758*X34544Y32934*X34544Y9792*X34371Y9964*X33726Y10335*X33010Y10528*X32268Y10528*X31552Y10335*X30907Y9964*X30383Y9441*X30013Y8799*X29891Y8344*X6177Y8344*X6055Y8799*D10*X26924Y19456D3*X27876Y21044D3*X32004Y20409D3*X32004Y22949D3*X26606Y28029D3*X27876Y26124D3*X25972Y26124D3*X11684Y10249D3*X16764Y10249D3*X22479Y10566D3*X24384Y10566D3*X26924Y14376D3*X24384Y15646D3*X22479Y15646D3*X19304Y15964D3*X14224Y15964D3*X14859Y22314D3*X19939Y22314D3*X19304Y26759D3*X20892Y26124D3*X21526Y28029D3*X19304Y31839D3*X17399Y31839D3*X13589Y35649D3*X12319Y31839D3*X8509Y35649D3*X6604Y30886D3*X6604Y28346D3*X6604Y25489D3*X6604Y22949D3*X6604Y19774D3*X6604Y17234D3*X6604Y14376D3*X6604Y11836D3*D11*X3746Y13106D3*X3746Y18504D3*X3746Y24219D3*X3746Y29616D3*X21209Y35649D3*X25019Y35649D3*X32004Y30886D3*X32004Y12154D3*D12*X25019Y30569D3*X23749Y31839D3*X22479Y30569D3*X14224Y28664D3*X15494Y29934D3*X16764Y28664D3*X17399Y24854D3*X16129Y26124D3*X14859Y24854D3*X14859Y18504D3*X16129Y19774D3*X17399Y18504D3*X24702Y17869D3*X23432Y19139D3*X24702Y20409D3*X24702Y22949D3*X23432Y24219D3*X22162Y22949D3*X21209Y20409D3*X19939Y19139D3*X21209Y17869D3*X19939Y13424D3*X19939Y10884D3*X18669Y12154D3*X16129Y12789D3*X14859Y14059D3*X13589Y12789D3*D13*X25972Y25469D3*X25972Y25872D3*X19304Y27483D3*X19304Y27079D3*X19304Y26759D3*X19304Y26678D3*X19304Y26274D3*X19304Y25872D3*X6604Y24663D3*X6604Y25067D3*X6604Y26274D3*X6604Y25872D3*X6604Y25489D3*X6604Y25469D3*X26924Y15405D3*X26924Y15001D3*X26924Y14600D3*X26924Y14376D3*X26924Y14196D3*X26924Y13795D3*X26924Y13391D3*X24384Y11379D3*X24384Y10975D3*X24384Y10574D3*X24384Y10566D3*X24384Y10170D3*X24384Y9769D3*X22479Y9769D3*X22479Y10170D3*X22479Y10574D3*X22479Y10975D3*X22479Y11379D3*X22479Y10566D3*X24384Y10566D3*X22479Y10566D3*X22479Y10566D3*X22479Y10566D3*X24384Y10566D3*X24384Y10566D3*X6604Y15001D3*X6604Y14600D3*X6604Y14376D3*X6604Y14196D3*X6604Y13795D3*X6604Y13391D3*X6604Y15405D3*X6604Y14376D3*X6604Y14376D3*X6604Y20638D3*X6604Y20236D3*X6604Y19832D3*X6604Y19774D3*X6604Y19431D3*X6604Y19027D3*X6604Y19774D3*X6604Y19774D3*X6604Y19774D3*X19304Y26759D3*X19304Y26759D3*X21526Y28288D3*X21526Y28689D3*X6604Y27483D3*X6604Y27884D3*X6604Y28288D3*X6604Y28689D3*X6604Y29093D3*X6604Y28346D3*X6604Y28346D3*X6604Y28346D3*X6604Y28346D3*X8509Y36741D3*X8509Y36340D3*X8509Y35936D3*X8509Y35649D3*X8509Y35649D3*X8509Y35649D3*X8509Y35535D3*X8509Y35131D3*X8509Y34729D3*X8509Y35649D3*X18352Y32314D3*X21526Y28029D3*X21526Y29093D3*X21526Y28029D3*X21526Y28029D3*X25972Y25067D3*X25972Y26124D3*X25972Y26124D3*X6604Y25489D3*X6604Y25489D3*X6604Y25489D3*X32004Y21041D3*X32004Y20638D3*X32004Y20409D3*X32004Y20236D3*X32004Y19832D3*X32004Y19431D3*X32004Y21443D3*X32004Y20409D3*X32004Y20409D3*X32004Y20409D3*X26924Y14376D3*X26924Y14376D3*X26924Y14376D3*X6604Y14376D3*X0Y0D2*M02*