
M48
METRIC,TZ,000.000
T01C0.701
T02C0.8
T03C1.199
%
M71
G90
T01
X025019Y030569
X023749Y031839
X022479Y030569
X014224Y028664
X015494Y029934
X016764Y028664
X017399Y024854
X016129Y026124
X014859Y024854
X014859Y018504
X016129Y019774
X017399Y018504
X024702Y017869
X023432Y019139
X024702Y020409
X024702Y022949
X023432Y024219
X022162Y022949
X021209Y020409
X019939Y019139
X021209Y017869
X019939Y013424
X019939Y010884
X018669Y012154
X016129Y012789
X014859Y014059
X013589Y012789
T02
X014859Y022314
X014224Y015964
X016764Y010249
X011684Y010249
X006604Y011836
X006604Y014376
X006604Y017234
X006604Y019774
X006604Y022949
X006604Y025489
X006604Y028346
X006604Y030886
X008509Y035649
X012319Y031839
X013589Y035649
X017399Y031839
X019304Y031839
X021526Y028029
X019304Y026759
X020892Y026124
X019939Y022314
X026924Y014376
X024384Y010566
X022479Y010566
X019304Y015964
X022479Y015646
X024384Y015646
X026924Y019456
X027876Y021044
X032004Y020409
X032004Y022949
X027876Y026124
X025972Y026124
X026606Y028029
T03
X032004Y012154
X032004Y030886
X025019Y035649
X021209Y035649
X003746Y013106
X003746Y018504
X003746Y029616
X003746Y024219
M30
