G75*
G70*
%OFA0B0*%
%FSLAX24Y24*%
%IPPOS*%
%LPD*%
%AMOC8*
5,1,8,0,0,1.08239X$1,22.5*
%
%ADD10C,0.0000*%
D10*
X002625Y002625D02*
X002625Y038625D01*
X099625Y038625D01*
X099625Y002625D01*
X002625Y002625D01*
X003245Y003875D02*
X003247Y003925D01*
X003253Y003975D01*
X003263Y004024D01*
X003277Y004072D01*
X003294Y004119D01*
X003315Y004164D01*
X003340Y004208D01*
X003368Y004249D01*
X003400Y004288D01*
X003434Y004325D01*
X003471Y004359D01*
X003511Y004389D01*
X003553Y004416D01*
X003597Y004440D01*
X003643Y004461D01*
X003690Y004477D01*
X003738Y004490D01*
X003788Y004499D01*
X003837Y004504D01*
X003888Y004505D01*
X003938Y004502D01*
X003987Y004495D01*
X004036Y004484D01*
X004084Y004469D01*
X004130Y004451D01*
X004175Y004429D01*
X004218Y004403D01*
X004259Y004374D01*
X004298Y004342D01*
X004334Y004307D01*
X004366Y004269D01*
X004396Y004229D01*
X004423Y004186D01*
X004446Y004142D01*
X004465Y004096D01*
X004481Y004048D01*
X004493Y003999D01*
X004501Y003950D01*
X004505Y003900D01*
X004505Y003850D01*
X004501Y003800D01*
X004493Y003751D01*
X004481Y003702D01*
X004465Y003654D01*
X004446Y003608D01*
X004423Y003564D01*
X004396Y003521D01*
X004366Y003481D01*
X004334Y003443D01*
X004298Y003408D01*
X004259Y003376D01*
X004218Y003347D01*
X004175Y003321D01*
X004130Y003299D01*
X004084Y003281D01*
X004036Y003266D01*
X003987Y003255D01*
X003938Y003248D01*
X003888Y003245D01*
X003837Y003246D01*
X003788Y003251D01*
X003738Y003260D01*
X003690Y003273D01*
X003643Y003289D01*
X003597Y003310D01*
X003553Y003334D01*
X003511Y003361D01*
X003471Y003391D01*
X003434Y003425D01*
X003400Y003462D01*
X003368Y003501D01*
X003340Y003542D01*
X003315Y003586D01*
X003294Y003631D01*
X003277Y003678D01*
X003263Y003726D01*
X003253Y003775D01*
X003247Y003825D01*
X003245Y003875D01*
X008755Y004415D02*
X008757Y004463D01*
X008763Y004510D01*
X008773Y004557D01*
X008786Y004603D01*
X008804Y004648D01*
X008825Y004691D01*
X008849Y004732D01*
X008877Y004771D01*
X008908Y004808D01*
X008942Y004842D01*
X008979Y004873D01*
X009018Y004901D01*
X009059Y004925D01*
X009102Y004946D01*
X009147Y004964D01*
X009193Y004977D01*
X009240Y004987D01*
X009287Y004993D01*
X009335Y004995D01*
X009383Y004993D01*
X009430Y004987D01*
X009477Y004977D01*
X009523Y004964D01*
X009568Y004946D01*
X009611Y004925D01*
X009652Y004901D01*
X009691Y004873D01*
X009728Y004842D01*
X009762Y004808D01*
X009793Y004771D01*
X009821Y004732D01*
X009845Y004691D01*
X009866Y004648D01*
X009884Y004603D01*
X009897Y004557D01*
X009907Y004510D01*
X009913Y004463D01*
X009915Y004415D01*
X009913Y004367D01*
X009907Y004320D01*
X009897Y004273D01*
X009884Y004227D01*
X009866Y004182D01*
X009845Y004139D01*
X009821Y004098D01*
X009793Y004059D01*
X009762Y004022D01*
X009728Y003988D01*
X009691Y003957D01*
X009652Y003929D01*
X009611Y003905D01*
X009568Y003884D01*
X009523Y003866D01*
X009477Y003853D01*
X009430Y003843D01*
X009383Y003837D01*
X009335Y003835D01*
X009287Y003837D01*
X009240Y003843D01*
X009193Y003853D01*
X009147Y003866D01*
X009102Y003884D01*
X009059Y003905D01*
X009018Y003929D01*
X008979Y003957D01*
X008942Y003988D01*
X008908Y004022D01*
X008877Y004059D01*
X008849Y004098D01*
X008825Y004139D01*
X008804Y004182D01*
X008786Y004227D01*
X008773Y004273D01*
X008763Y004320D01*
X008757Y004367D01*
X008755Y004415D01*
X003835Y007335D02*
X003837Y007383D01*
X003843Y007430D01*
X003853Y007477D01*
X003866Y007523D01*
X003884Y007568D01*
X003905Y007611D01*
X003929Y007652D01*
X003957Y007691D01*
X003988Y007728D01*
X004022Y007762D01*
X004059Y007793D01*
X004098Y007821D01*
X004139Y007845D01*
X004182Y007866D01*
X004227Y007884D01*
X004273Y007897D01*
X004320Y007907D01*
X004367Y007913D01*
X004415Y007915D01*
X004463Y007913D01*
X004510Y007907D01*
X004557Y007897D01*
X004603Y007884D01*
X004648Y007866D01*
X004691Y007845D01*
X004732Y007821D01*
X004771Y007793D01*
X004808Y007762D01*
X004842Y007728D01*
X004873Y007691D01*
X004901Y007652D01*
X004925Y007611D01*
X004946Y007568D01*
X004964Y007523D01*
X004977Y007477D01*
X004987Y007430D01*
X004993Y007383D01*
X004995Y007335D01*
X004993Y007287D01*
X004987Y007240D01*
X004977Y007193D01*
X004964Y007147D01*
X004946Y007102D01*
X004925Y007059D01*
X004901Y007018D01*
X004873Y006979D01*
X004842Y006942D01*
X004808Y006908D01*
X004771Y006877D01*
X004732Y006849D01*
X004691Y006825D01*
X004648Y006804D01*
X004603Y006786D01*
X004557Y006773D01*
X004510Y006763D01*
X004463Y006757D01*
X004415Y006755D01*
X004367Y006757D01*
X004320Y006763D01*
X004273Y006773D01*
X004227Y006786D01*
X004182Y006804D01*
X004139Y006825D01*
X004098Y006849D01*
X004059Y006877D01*
X004022Y006908D01*
X003988Y006942D01*
X003957Y006979D01*
X003929Y007018D01*
X003905Y007059D01*
X003884Y007102D01*
X003866Y007147D01*
X003853Y007193D01*
X003843Y007240D01*
X003837Y007287D01*
X003835Y007335D01*
X037335Y004415D02*
X037337Y004463D01*
X037343Y004510D01*
X037353Y004557D01*
X037366Y004603D01*
X037384Y004648D01*
X037405Y004691D01*
X037429Y004732D01*
X037457Y004771D01*
X037488Y004808D01*
X037522Y004842D01*
X037559Y004873D01*
X037598Y004901D01*
X037639Y004925D01*
X037682Y004946D01*
X037727Y004964D01*
X037773Y004977D01*
X037820Y004987D01*
X037867Y004993D01*
X037915Y004995D01*
X037963Y004993D01*
X038010Y004987D01*
X038057Y004977D01*
X038103Y004964D01*
X038148Y004946D01*
X038191Y004925D01*
X038232Y004901D01*
X038271Y004873D01*
X038308Y004842D01*
X038342Y004808D01*
X038373Y004771D01*
X038401Y004732D01*
X038425Y004691D01*
X038446Y004648D01*
X038464Y004603D01*
X038477Y004557D01*
X038487Y004510D01*
X038493Y004463D01*
X038495Y004415D01*
X038493Y004367D01*
X038487Y004320D01*
X038477Y004273D01*
X038464Y004227D01*
X038446Y004182D01*
X038425Y004139D01*
X038401Y004098D01*
X038373Y004059D01*
X038342Y004022D01*
X038308Y003988D01*
X038271Y003957D01*
X038232Y003929D01*
X038191Y003905D01*
X038148Y003884D01*
X038103Y003866D01*
X038057Y003853D01*
X038010Y003843D01*
X037963Y003837D01*
X037915Y003835D01*
X037867Y003837D01*
X037820Y003843D01*
X037773Y003853D01*
X037727Y003866D01*
X037682Y003884D01*
X037639Y003905D01*
X037598Y003929D01*
X037559Y003957D01*
X037522Y003988D01*
X037488Y004022D01*
X037457Y004059D01*
X037429Y004098D01*
X037405Y004139D01*
X037384Y004182D01*
X037366Y004227D01*
X037353Y004273D01*
X037343Y004320D01*
X037337Y004367D01*
X037335Y004415D01*
X042245Y003875D02*
X042247Y003925D01*
X042253Y003975D01*
X042263Y004024D01*
X042277Y004072D01*
X042294Y004119D01*
X042315Y004164D01*
X042340Y004208D01*
X042368Y004249D01*
X042400Y004288D01*
X042434Y004325D01*
X042471Y004359D01*
X042511Y004389D01*
X042553Y004416D01*
X042597Y004440D01*
X042643Y004461D01*
X042690Y004477D01*
X042738Y004490D01*
X042788Y004499D01*
X042837Y004504D01*
X042888Y004505D01*
X042938Y004502D01*
X042987Y004495D01*
X043036Y004484D01*
X043084Y004469D01*
X043130Y004451D01*
X043175Y004429D01*
X043218Y004403D01*
X043259Y004374D01*
X043298Y004342D01*
X043334Y004307D01*
X043366Y004269D01*
X043396Y004229D01*
X043423Y004186D01*
X043446Y004142D01*
X043465Y004096D01*
X043481Y004048D01*
X043493Y003999D01*
X043501Y003950D01*
X043505Y003900D01*
X043505Y003850D01*
X043501Y003800D01*
X043493Y003751D01*
X043481Y003702D01*
X043465Y003654D01*
X043446Y003608D01*
X043423Y003564D01*
X043396Y003521D01*
X043366Y003481D01*
X043334Y003443D01*
X043298Y003408D01*
X043259Y003376D01*
X043218Y003347D01*
X043175Y003321D01*
X043130Y003299D01*
X043084Y003281D01*
X043036Y003266D01*
X042987Y003255D01*
X042938Y003248D01*
X042888Y003245D01*
X042837Y003246D01*
X042788Y003251D01*
X042738Y003260D01*
X042690Y003273D01*
X042643Y003289D01*
X042597Y003310D01*
X042553Y003334D01*
X042511Y003361D01*
X042471Y003391D01*
X042434Y003425D01*
X042400Y003462D01*
X042368Y003501D01*
X042340Y003542D01*
X042315Y003586D01*
X042294Y003631D01*
X042277Y003678D01*
X042263Y003726D01*
X042253Y003775D01*
X042247Y003825D01*
X042245Y003875D01*
X047005Y004415D02*
X047007Y004463D01*
X047013Y004510D01*
X047023Y004557D01*
X047036Y004603D01*
X047054Y004648D01*
X047075Y004691D01*
X047099Y004732D01*
X047127Y004771D01*
X047158Y004808D01*
X047192Y004842D01*
X047229Y004873D01*
X047268Y004901D01*
X047309Y004925D01*
X047352Y004946D01*
X047397Y004964D01*
X047443Y004977D01*
X047490Y004987D01*
X047537Y004993D01*
X047585Y004995D01*
X047633Y004993D01*
X047680Y004987D01*
X047727Y004977D01*
X047773Y004964D01*
X047818Y004946D01*
X047861Y004925D01*
X047902Y004901D01*
X047941Y004873D01*
X047978Y004842D01*
X048012Y004808D01*
X048043Y004771D01*
X048071Y004732D01*
X048095Y004691D01*
X048116Y004648D01*
X048134Y004603D01*
X048147Y004557D01*
X048157Y004510D01*
X048163Y004463D01*
X048165Y004415D01*
X048163Y004367D01*
X048157Y004320D01*
X048147Y004273D01*
X048134Y004227D01*
X048116Y004182D01*
X048095Y004139D01*
X048071Y004098D01*
X048043Y004059D01*
X048012Y004022D01*
X047978Y003988D01*
X047941Y003957D01*
X047902Y003929D01*
X047861Y003905D01*
X047818Y003884D01*
X047773Y003866D01*
X047727Y003853D01*
X047680Y003843D01*
X047633Y003837D01*
X047585Y003835D01*
X047537Y003837D01*
X047490Y003843D01*
X047443Y003853D01*
X047397Y003866D01*
X047352Y003884D01*
X047309Y003905D01*
X047268Y003929D01*
X047229Y003957D01*
X047192Y003988D01*
X047158Y004022D01*
X047127Y004059D01*
X047099Y004098D01*
X047075Y004139D01*
X047054Y004182D01*
X047036Y004227D01*
X047023Y004273D01*
X047013Y004320D01*
X047007Y004367D01*
X047005Y004415D01*
X060585Y004415D02*
X060587Y004463D01*
X060593Y004510D01*
X060603Y004557D01*
X060616Y004603D01*
X060634Y004648D01*
X060655Y004691D01*
X060679Y004732D01*
X060707Y004771D01*
X060738Y004808D01*
X060772Y004842D01*
X060809Y004873D01*
X060848Y004901D01*
X060889Y004925D01*
X060932Y004946D01*
X060977Y004964D01*
X061023Y004977D01*
X061070Y004987D01*
X061117Y004993D01*
X061165Y004995D01*
X061213Y004993D01*
X061260Y004987D01*
X061307Y004977D01*
X061353Y004964D01*
X061398Y004946D01*
X061441Y004925D01*
X061482Y004901D01*
X061521Y004873D01*
X061558Y004842D01*
X061592Y004808D01*
X061623Y004771D01*
X061651Y004732D01*
X061675Y004691D01*
X061696Y004648D01*
X061714Y004603D01*
X061727Y004557D01*
X061737Y004510D01*
X061743Y004463D01*
X061745Y004415D01*
X061743Y004367D01*
X061737Y004320D01*
X061727Y004273D01*
X061714Y004227D01*
X061696Y004182D01*
X061675Y004139D01*
X061651Y004098D01*
X061623Y004059D01*
X061592Y004022D01*
X061558Y003988D01*
X061521Y003957D01*
X061482Y003929D01*
X061441Y003905D01*
X061398Y003884D01*
X061353Y003866D01*
X061307Y003853D01*
X061260Y003843D01*
X061213Y003837D01*
X061165Y003835D01*
X061117Y003837D01*
X061070Y003843D01*
X061023Y003853D01*
X060977Y003866D01*
X060932Y003884D01*
X060889Y003905D01*
X060848Y003929D01*
X060809Y003957D01*
X060772Y003988D01*
X060738Y004022D01*
X060707Y004059D01*
X060679Y004098D01*
X060655Y004139D01*
X060634Y004182D01*
X060616Y004227D01*
X060603Y004273D01*
X060593Y004320D01*
X060587Y004367D01*
X060585Y004415D01*
X070005Y004415D02*
X070007Y004463D01*
X070013Y004510D01*
X070023Y004557D01*
X070036Y004603D01*
X070054Y004648D01*
X070075Y004691D01*
X070099Y004732D01*
X070127Y004771D01*
X070158Y004808D01*
X070192Y004842D01*
X070229Y004873D01*
X070268Y004901D01*
X070309Y004925D01*
X070352Y004946D01*
X070397Y004964D01*
X070443Y004977D01*
X070490Y004987D01*
X070537Y004993D01*
X070585Y004995D01*
X070633Y004993D01*
X070680Y004987D01*
X070727Y004977D01*
X070773Y004964D01*
X070818Y004946D01*
X070861Y004925D01*
X070902Y004901D01*
X070941Y004873D01*
X070978Y004842D01*
X071012Y004808D01*
X071043Y004771D01*
X071071Y004732D01*
X071095Y004691D01*
X071116Y004648D01*
X071134Y004603D01*
X071147Y004557D01*
X071157Y004510D01*
X071163Y004463D01*
X071165Y004415D01*
X071163Y004367D01*
X071157Y004320D01*
X071147Y004273D01*
X071134Y004227D01*
X071116Y004182D01*
X071095Y004139D01*
X071071Y004098D01*
X071043Y004059D01*
X071012Y004022D01*
X070978Y003988D01*
X070941Y003957D01*
X070902Y003929D01*
X070861Y003905D01*
X070818Y003884D01*
X070773Y003866D01*
X070727Y003853D01*
X070680Y003843D01*
X070633Y003837D01*
X070585Y003835D01*
X070537Y003837D01*
X070490Y003843D01*
X070443Y003853D01*
X070397Y003866D01*
X070352Y003884D01*
X070309Y003905D01*
X070268Y003929D01*
X070229Y003957D01*
X070192Y003988D01*
X070158Y004022D01*
X070127Y004059D01*
X070099Y004098D01*
X070075Y004139D01*
X070054Y004182D01*
X070036Y004227D01*
X070023Y004273D01*
X070013Y004320D01*
X070007Y004367D01*
X070005Y004415D01*
X083585Y004415D02*
X083587Y004463D01*
X083593Y004510D01*
X083603Y004557D01*
X083616Y004603D01*
X083634Y004648D01*
X083655Y004691D01*
X083679Y004732D01*
X083707Y004771D01*
X083738Y004808D01*
X083772Y004842D01*
X083809Y004873D01*
X083848Y004901D01*
X083889Y004925D01*
X083932Y004946D01*
X083977Y004964D01*
X084023Y004977D01*
X084070Y004987D01*
X084117Y004993D01*
X084165Y004995D01*
X084213Y004993D01*
X084260Y004987D01*
X084307Y004977D01*
X084353Y004964D01*
X084398Y004946D01*
X084441Y004925D01*
X084482Y004901D01*
X084521Y004873D01*
X084558Y004842D01*
X084592Y004808D01*
X084623Y004771D01*
X084651Y004732D01*
X084675Y004691D01*
X084696Y004648D01*
X084714Y004603D01*
X084727Y004557D01*
X084737Y004510D01*
X084743Y004463D01*
X084745Y004415D01*
X084743Y004367D01*
X084737Y004320D01*
X084727Y004273D01*
X084714Y004227D01*
X084696Y004182D01*
X084675Y004139D01*
X084651Y004098D01*
X084623Y004059D01*
X084592Y004022D01*
X084558Y003988D01*
X084521Y003957D01*
X084482Y003929D01*
X084441Y003905D01*
X084398Y003884D01*
X084353Y003866D01*
X084307Y003853D01*
X084260Y003843D01*
X084213Y003837D01*
X084165Y003835D01*
X084117Y003837D01*
X084070Y003843D01*
X084023Y003853D01*
X083977Y003866D01*
X083932Y003884D01*
X083889Y003905D01*
X083848Y003929D01*
X083809Y003957D01*
X083772Y003988D01*
X083738Y004022D01*
X083707Y004059D01*
X083679Y004098D01*
X083655Y004139D01*
X083634Y004182D01*
X083616Y004227D01*
X083603Y004273D01*
X083593Y004320D01*
X083587Y004367D01*
X083585Y004415D01*
X097255Y008085D02*
X097257Y008133D01*
X097263Y008180D01*
X097273Y008227D01*
X097286Y008273D01*
X097304Y008318D01*
X097325Y008361D01*
X097349Y008402D01*
X097377Y008441D01*
X097408Y008478D01*
X097442Y008512D01*
X097479Y008543D01*
X097518Y008571D01*
X097559Y008595D01*
X097602Y008616D01*
X097647Y008634D01*
X097693Y008647D01*
X097740Y008657D01*
X097787Y008663D01*
X097835Y008665D01*
X097883Y008663D01*
X097930Y008657D01*
X097977Y008647D01*
X098023Y008634D01*
X098068Y008616D01*
X098111Y008595D01*
X098152Y008571D01*
X098191Y008543D01*
X098228Y008512D01*
X098262Y008478D01*
X098293Y008441D01*
X098321Y008402D01*
X098345Y008361D01*
X098366Y008318D01*
X098384Y008273D01*
X098397Y008227D01*
X098407Y008180D01*
X098413Y008133D01*
X098415Y008085D01*
X098413Y008037D01*
X098407Y007990D01*
X098397Y007943D01*
X098384Y007897D01*
X098366Y007852D01*
X098345Y007809D01*
X098321Y007768D01*
X098293Y007729D01*
X098262Y007692D01*
X098228Y007658D01*
X098191Y007627D01*
X098152Y007599D01*
X098111Y007575D01*
X098068Y007554D01*
X098023Y007536D01*
X097977Y007523D01*
X097930Y007513D01*
X097883Y007507D01*
X097835Y007505D01*
X097787Y007507D01*
X097740Y007513D01*
X097693Y007523D01*
X097647Y007536D01*
X097602Y007554D01*
X097559Y007575D01*
X097518Y007599D01*
X097479Y007627D01*
X097442Y007658D01*
X097408Y007692D01*
X097377Y007729D01*
X097349Y007768D01*
X097325Y007809D01*
X097304Y007852D01*
X097286Y007897D01*
X097273Y007943D01*
X097263Y007990D01*
X097257Y008037D01*
X097255Y008085D01*
X097745Y003875D02*
X097747Y003925D01*
X097753Y003975D01*
X097763Y004024D01*
X097777Y004072D01*
X097794Y004119D01*
X097815Y004164D01*
X097840Y004208D01*
X097868Y004249D01*
X097900Y004288D01*
X097934Y004325D01*
X097971Y004359D01*
X098011Y004389D01*
X098053Y004416D01*
X098097Y004440D01*
X098143Y004461D01*
X098190Y004477D01*
X098238Y004490D01*
X098288Y004499D01*
X098337Y004504D01*
X098388Y004505D01*
X098438Y004502D01*
X098487Y004495D01*
X098536Y004484D01*
X098584Y004469D01*
X098630Y004451D01*
X098675Y004429D01*
X098718Y004403D01*
X098759Y004374D01*
X098798Y004342D01*
X098834Y004307D01*
X098866Y004269D01*
X098896Y004229D01*
X098923Y004186D01*
X098946Y004142D01*
X098965Y004096D01*
X098981Y004048D01*
X098993Y003999D01*
X099001Y003950D01*
X099005Y003900D01*
X099005Y003850D01*
X099001Y003800D01*
X098993Y003751D01*
X098981Y003702D01*
X098965Y003654D01*
X098946Y003608D01*
X098923Y003564D01*
X098896Y003521D01*
X098866Y003481D01*
X098834Y003443D01*
X098798Y003408D01*
X098759Y003376D01*
X098718Y003347D01*
X098675Y003321D01*
X098630Y003299D01*
X098584Y003281D01*
X098536Y003266D01*
X098487Y003255D01*
X098438Y003248D01*
X098388Y003245D01*
X098337Y003246D01*
X098288Y003251D01*
X098238Y003260D01*
X098190Y003273D01*
X098143Y003289D01*
X098097Y003310D01*
X098053Y003334D01*
X098011Y003361D01*
X097971Y003391D01*
X097934Y003425D01*
X097900Y003462D01*
X097868Y003501D01*
X097840Y003542D01*
X097815Y003586D01*
X097794Y003631D01*
X097777Y003678D01*
X097763Y003726D01*
X097753Y003775D01*
X097747Y003825D01*
X097745Y003875D01*
X097255Y026665D02*
X097257Y026713D01*
X097263Y026760D01*
X097273Y026807D01*
X097286Y026853D01*
X097304Y026898D01*
X097325Y026941D01*
X097349Y026982D01*
X097377Y027021D01*
X097408Y027058D01*
X097442Y027092D01*
X097479Y027123D01*
X097518Y027151D01*
X097559Y027175D01*
X097602Y027196D01*
X097647Y027214D01*
X097693Y027227D01*
X097740Y027237D01*
X097787Y027243D01*
X097835Y027245D01*
X097883Y027243D01*
X097930Y027237D01*
X097977Y027227D01*
X098023Y027214D01*
X098068Y027196D01*
X098111Y027175D01*
X098152Y027151D01*
X098191Y027123D01*
X098228Y027092D01*
X098262Y027058D01*
X098293Y027021D01*
X098321Y026982D01*
X098345Y026941D01*
X098366Y026898D01*
X098384Y026853D01*
X098397Y026807D01*
X098407Y026760D01*
X098413Y026713D01*
X098415Y026665D01*
X098413Y026617D01*
X098407Y026570D01*
X098397Y026523D01*
X098384Y026477D01*
X098366Y026432D01*
X098345Y026389D01*
X098321Y026348D01*
X098293Y026309D01*
X098262Y026272D01*
X098228Y026238D01*
X098191Y026207D01*
X098152Y026179D01*
X098111Y026155D01*
X098068Y026134D01*
X098023Y026116D01*
X097977Y026103D01*
X097930Y026093D01*
X097883Y026087D01*
X097835Y026085D01*
X097787Y026087D01*
X097740Y026093D01*
X097693Y026103D01*
X097647Y026116D01*
X097602Y026134D01*
X097559Y026155D01*
X097518Y026179D01*
X097479Y026207D01*
X097442Y026238D01*
X097408Y026272D01*
X097377Y026309D01*
X097349Y026348D01*
X097325Y026389D01*
X097304Y026432D01*
X097286Y026477D01*
X097273Y026523D01*
X097263Y026570D01*
X097257Y026617D01*
X097255Y026665D01*
X091835Y036835D02*
X091837Y036883D01*
X091843Y036930D01*
X091853Y036977D01*
X091866Y037023D01*
X091884Y037068D01*
X091905Y037111D01*
X091929Y037152D01*
X091957Y037191D01*
X091988Y037228D01*
X092022Y037262D01*
X092059Y037293D01*
X092098Y037321D01*
X092139Y037345D01*
X092182Y037366D01*
X092227Y037384D01*
X092273Y037397D01*
X092320Y037407D01*
X092367Y037413D01*
X092415Y037415D01*
X092463Y037413D01*
X092510Y037407D01*
X092557Y037397D01*
X092603Y037384D01*
X092648Y037366D01*
X092691Y037345D01*
X092732Y037321D01*
X092771Y037293D01*
X092808Y037262D01*
X092842Y037228D01*
X092873Y037191D01*
X092901Y037152D01*
X092925Y037111D01*
X092946Y037068D01*
X092964Y037023D01*
X092977Y036977D01*
X092987Y036930D01*
X092993Y036883D01*
X092995Y036835D01*
X092993Y036787D01*
X092987Y036740D01*
X092977Y036693D01*
X092964Y036647D01*
X092946Y036602D01*
X092925Y036559D01*
X092901Y036518D01*
X092873Y036479D01*
X092842Y036442D01*
X092808Y036408D01*
X092771Y036377D01*
X092732Y036349D01*
X092691Y036325D01*
X092648Y036304D01*
X092603Y036286D01*
X092557Y036273D01*
X092510Y036263D01*
X092463Y036257D01*
X092415Y036255D01*
X092367Y036257D01*
X092320Y036263D01*
X092273Y036273D01*
X092227Y036286D01*
X092182Y036304D01*
X092139Y036325D01*
X092098Y036349D01*
X092059Y036377D01*
X092022Y036408D01*
X091988Y036442D01*
X091957Y036479D01*
X091929Y036518D01*
X091905Y036559D01*
X091884Y036602D01*
X091866Y036647D01*
X091853Y036693D01*
X091843Y036740D01*
X091837Y036787D01*
X091835Y036835D01*
X097745Y037375D02*
X097747Y037425D01*
X097753Y037475D01*
X097763Y037524D01*
X097777Y037572D01*
X097794Y037619D01*
X097815Y037664D01*
X097840Y037708D01*
X097868Y037749D01*
X097900Y037788D01*
X097934Y037825D01*
X097971Y037859D01*
X098011Y037889D01*
X098053Y037916D01*
X098097Y037940D01*
X098143Y037961D01*
X098190Y037977D01*
X098238Y037990D01*
X098288Y037999D01*
X098337Y038004D01*
X098388Y038005D01*
X098438Y038002D01*
X098487Y037995D01*
X098536Y037984D01*
X098584Y037969D01*
X098630Y037951D01*
X098675Y037929D01*
X098718Y037903D01*
X098759Y037874D01*
X098798Y037842D01*
X098834Y037807D01*
X098866Y037769D01*
X098896Y037729D01*
X098923Y037686D01*
X098946Y037642D01*
X098965Y037596D01*
X098981Y037548D01*
X098993Y037499D01*
X099001Y037450D01*
X099005Y037400D01*
X099005Y037350D01*
X099001Y037300D01*
X098993Y037251D01*
X098981Y037202D01*
X098965Y037154D01*
X098946Y037108D01*
X098923Y037064D01*
X098896Y037021D01*
X098866Y036981D01*
X098834Y036943D01*
X098798Y036908D01*
X098759Y036876D01*
X098718Y036847D01*
X098675Y036821D01*
X098630Y036799D01*
X098584Y036781D01*
X098536Y036766D01*
X098487Y036755D01*
X098438Y036748D01*
X098388Y036745D01*
X098337Y036746D01*
X098288Y036751D01*
X098238Y036760D01*
X098190Y036773D01*
X098143Y036789D01*
X098097Y036810D01*
X098053Y036834D01*
X098011Y036861D01*
X097971Y036891D01*
X097934Y036925D01*
X097900Y036962D01*
X097868Y037001D01*
X097840Y037042D01*
X097815Y037086D01*
X097794Y037131D01*
X097777Y037178D01*
X097763Y037226D01*
X097753Y037275D01*
X097747Y037325D01*
X097745Y037375D01*
X078255Y036835D02*
X078257Y036883D01*
X078263Y036930D01*
X078273Y036977D01*
X078286Y037023D01*
X078304Y037068D01*
X078325Y037111D01*
X078349Y037152D01*
X078377Y037191D01*
X078408Y037228D01*
X078442Y037262D01*
X078479Y037293D01*
X078518Y037321D01*
X078559Y037345D01*
X078602Y037366D01*
X078647Y037384D01*
X078693Y037397D01*
X078740Y037407D01*
X078787Y037413D01*
X078835Y037415D01*
X078883Y037413D01*
X078930Y037407D01*
X078977Y037397D01*
X079023Y037384D01*
X079068Y037366D01*
X079111Y037345D01*
X079152Y037321D01*
X079191Y037293D01*
X079228Y037262D01*
X079262Y037228D01*
X079293Y037191D01*
X079321Y037152D01*
X079345Y037111D01*
X079366Y037068D01*
X079384Y037023D01*
X079397Y036977D01*
X079407Y036930D01*
X079413Y036883D01*
X079415Y036835D01*
X079413Y036787D01*
X079407Y036740D01*
X079397Y036693D01*
X079384Y036647D01*
X079366Y036602D01*
X079345Y036559D01*
X079321Y036518D01*
X079293Y036479D01*
X079262Y036442D01*
X079228Y036408D01*
X079191Y036377D01*
X079152Y036349D01*
X079111Y036325D01*
X079068Y036304D01*
X079023Y036286D01*
X078977Y036273D01*
X078930Y036263D01*
X078883Y036257D01*
X078835Y036255D01*
X078787Y036257D01*
X078740Y036263D01*
X078693Y036273D01*
X078647Y036286D01*
X078602Y036304D01*
X078559Y036325D01*
X078518Y036349D01*
X078479Y036377D01*
X078442Y036408D01*
X078408Y036442D01*
X078377Y036479D01*
X078349Y036518D01*
X078325Y036559D01*
X078304Y036602D01*
X078286Y036647D01*
X078273Y036693D01*
X078263Y036740D01*
X078257Y036787D01*
X078255Y036835D01*
X068335Y036835D02*
X068337Y036883D01*
X068343Y036930D01*
X068353Y036977D01*
X068366Y037023D01*
X068384Y037068D01*
X068405Y037111D01*
X068429Y037152D01*
X068457Y037191D01*
X068488Y037228D01*
X068522Y037262D01*
X068559Y037293D01*
X068598Y037321D01*
X068639Y037345D01*
X068682Y037366D01*
X068727Y037384D01*
X068773Y037397D01*
X068820Y037407D01*
X068867Y037413D01*
X068915Y037415D01*
X068963Y037413D01*
X069010Y037407D01*
X069057Y037397D01*
X069103Y037384D01*
X069148Y037366D01*
X069191Y037345D01*
X069232Y037321D01*
X069271Y037293D01*
X069308Y037262D01*
X069342Y037228D01*
X069373Y037191D01*
X069401Y037152D01*
X069425Y037111D01*
X069446Y037068D01*
X069464Y037023D01*
X069477Y036977D01*
X069487Y036930D01*
X069493Y036883D01*
X069495Y036835D01*
X069493Y036787D01*
X069487Y036740D01*
X069477Y036693D01*
X069464Y036647D01*
X069446Y036602D01*
X069425Y036559D01*
X069401Y036518D01*
X069373Y036479D01*
X069342Y036442D01*
X069308Y036408D01*
X069271Y036377D01*
X069232Y036349D01*
X069191Y036325D01*
X069148Y036304D01*
X069103Y036286D01*
X069057Y036273D01*
X069010Y036263D01*
X068963Y036257D01*
X068915Y036255D01*
X068867Y036257D01*
X068820Y036263D01*
X068773Y036273D01*
X068727Y036286D01*
X068682Y036304D01*
X068639Y036325D01*
X068598Y036349D01*
X068559Y036377D01*
X068522Y036408D01*
X068488Y036442D01*
X068457Y036479D01*
X068429Y036518D01*
X068405Y036559D01*
X068384Y036602D01*
X068366Y036647D01*
X068353Y036693D01*
X068343Y036740D01*
X068337Y036787D01*
X068335Y036835D01*
X054755Y036835D02*
X054757Y036883D01*
X054763Y036930D01*
X054773Y036977D01*
X054786Y037023D01*
X054804Y037068D01*
X054825Y037111D01*
X054849Y037152D01*
X054877Y037191D01*
X054908Y037228D01*
X054942Y037262D01*
X054979Y037293D01*
X055018Y037321D01*
X055059Y037345D01*
X055102Y037366D01*
X055147Y037384D01*
X055193Y037397D01*
X055240Y037407D01*
X055287Y037413D01*
X055335Y037415D01*
X055383Y037413D01*
X055430Y037407D01*
X055477Y037397D01*
X055523Y037384D01*
X055568Y037366D01*
X055611Y037345D01*
X055652Y037321D01*
X055691Y037293D01*
X055728Y037262D01*
X055762Y037228D01*
X055793Y037191D01*
X055821Y037152D01*
X055845Y037111D01*
X055866Y037068D01*
X055884Y037023D01*
X055897Y036977D01*
X055907Y036930D01*
X055913Y036883D01*
X055915Y036835D01*
X055913Y036787D01*
X055907Y036740D01*
X055897Y036693D01*
X055884Y036647D01*
X055866Y036602D01*
X055845Y036559D01*
X055821Y036518D01*
X055793Y036479D01*
X055762Y036442D01*
X055728Y036408D01*
X055691Y036377D01*
X055652Y036349D01*
X055611Y036325D01*
X055568Y036304D01*
X055523Y036286D01*
X055477Y036273D01*
X055430Y036263D01*
X055383Y036257D01*
X055335Y036255D01*
X055287Y036257D01*
X055240Y036263D01*
X055193Y036273D01*
X055147Y036286D01*
X055102Y036304D01*
X055059Y036325D01*
X055018Y036349D01*
X054979Y036377D01*
X054942Y036408D01*
X054908Y036442D01*
X054877Y036479D01*
X054849Y036518D01*
X054825Y036559D01*
X054804Y036602D01*
X054786Y036647D01*
X054773Y036693D01*
X054763Y036740D01*
X054757Y036787D01*
X054755Y036835D01*
X049745Y037375D02*
X049747Y037425D01*
X049753Y037475D01*
X049763Y037524D01*
X049777Y037572D01*
X049794Y037619D01*
X049815Y037664D01*
X049840Y037708D01*
X049868Y037749D01*
X049900Y037788D01*
X049934Y037825D01*
X049971Y037859D01*
X050011Y037889D01*
X050053Y037916D01*
X050097Y037940D01*
X050143Y037961D01*
X050190Y037977D01*
X050238Y037990D01*
X050288Y037999D01*
X050337Y038004D01*
X050388Y038005D01*
X050438Y038002D01*
X050487Y037995D01*
X050536Y037984D01*
X050584Y037969D01*
X050630Y037951D01*
X050675Y037929D01*
X050718Y037903D01*
X050759Y037874D01*
X050798Y037842D01*
X050834Y037807D01*
X050866Y037769D01*
X050896Y037729D01*
X050923Y037686D01*
X050946Y037642D01*
X050965Y037596D01*
X050981Y037548D01*
X050993Y037499D01*
X051001Y037450D01*
X051005Y037400D01*
X051005Y037350D01*
X051001Y037300D01*
X050993Y037251D01*
X050981Y037202D01*
X050965Y037154D01*
X050946Y037108D01*
X050923Y037064D01*
X050896Y037021D01*
X050866Y036981D01*
X050834Y036943D01*
X050798Y036908D01*
X050759Y036876D01*
X050718Y036847D01*
X050675Y036821D01*
X050630Y036799D01*
X050584Y036781D01*
X050536Y036766D01*
X050487Y036755D01*
X050438Y036748D01*
X050388Y036745D01*
X050337Y036746D01*
X050288Y036751D01*
X050238Y036760D01*
X050190Y036773D01*
X050143Y036789D01*
X050097Y036810D01*
X050053Y036834D01*
X050011Y036861D01*
X049971Y036891D01*
X049934Y036925D01*
X049900Y036962D01*
X049868Y037001D01*
X049840Y037042D01*
X049815Y037086D01*
X049794Y037131D01*
X049777Y037178D01*
X049763Y037226D01*
X049753Y037275D01*
X049747Y037325D01*
X049745Y037375D01*
X044835Y036835D02*
X044837Y036883D01*
X044843Y036930D01*
X044853Y036977D01*
X044866Y037023D01*
X044884Y037068D01*
X044905Y037111D01*
X044929Y037152D01*
X044957Y037191D01*
X044988Y037228D01*
X045022Y037262D01*
X045059Y037293D01*
X045098Y037321D01*
X045139Y037345D01*
X045182Y037366D01*
X045227Y037384D01*
X045273Y037397D01*
X045320Y037407D01*
X045367Y037413D01*
X045415Y037415D01*
X045463Y037413D01*
X045510Y037407D01*
X045557Y037397D01*
X045603Y037384D01*
X045648Y037366D01*
X045691Y037345D01*
X045732Y037321D01*
X045771Y037293D01*
X045808Y037262D01*
X045842Y037228D01*
X045873Y037191D01*
X045901Y037152D01*
X045925Y037111D01*
X045946Y037068D01*
X045964Y037023D01*
X045977Y036977D01*
X045987Y036930D01*
X045993Y036883D01*
X045995Y036835D01*
X045993Y036787D01*
X045987Y036740D01*
X045977Y036693D01*
X045964Y036647D01*
X045946Y036602D01*
X045925Y036559D01*
X045901Y036518D01*
X045873Y036479D01*
X045842Y036442D01*
X045808Y036408D01*
X045771Y036377D01*
X045732Y036349D01*
X045691Y036325D01*
X045648Y036304D01*
X045603Y036286D01*
X045557Y036273D01*
X045510Y036263D01*
X045463Y036257D01*
X045415Y036255D01*
X045367Y036257D01*
X045320Y036263D01*
X045273Y036273D01*
X045227Y036286D01*
X045182Y036304D01*
X045139Y036325D01*
X045098Y036349D01*
X045059Y036377D01*
X045022Y036408D01*
X044988Y036442D01*
X044957Y036479D01*
X044929Y036518D01*
X044905Y036559D01*
X044884Y036602D01*
X044866Y036647D01*
X044853Y036693D01*
X044843Y036740D01*
X044837Y036787D01*
X044835Y036835D01*
X031255Y036835D02*
X031257Y036883D01*
X031263Y036930D01*
X031273Y036977D01*
X031286Y037023D01*
X031304Y037068D01*
X031325Y037111D01*
X031349Y037152D01*
X031377Y037191D01*
X031408Y037228D01*
X031442Y037262D01*
X031479Y037293D01*
X031518Y037321D01*
X031559Y037345D01*
X031602Y037366D01*
X031647Y037384D01*
X031693Y037397D01*
X031740Y037407D01*
X031787Y037413D01*
X031835Y037415D01*
X031883Y037413D01*
X031930Y037407D01*
X031977Y037397D01*
X032023Y037384D01*
X032068Y037366D01*
X032111Y037345D01*
X032152Y037321D01*
X032191Y037293D01*
X032228Y037262D01*
X032262Y037228D01*
X032293Y037191D01*
X032321Y037152D01*
X032345Y037111D01*
X032366Y037068D01*
X032384Y037023D01*
X032397Y036977D01*
X032407Y036930D01*
X032413Y036883D01*
X032415Y036835D01*
X032413Y036787D01*
X032407Y036740D01*
X032397Y036693D01*
X032384Y036647D01*
X032366Y036602D01*
X032345Y036559D01*
X032321Y036518D01*
X032293Y036479D01*
X032262Y036442D01*
X032228Y036408D01*
X032191Y036377D01*
X032152Y036349D01*
X032111Y036325D01*
X032068Y036304D01*
X032023Y036286D01*
X031977Y036273D01*
X031930Y036263D01*
X031883Y036257D01*
X031835Y036255D01*
X031787Y036257D01*
X031740Y036263D01*
X031693Y036273D01*
X031647Y036286D01*
X031602Y036304D01*
X031559Y036325D01*
X031518Y036349D01*
X031479Y036377D01*
X031442Y036408D01*
X031408Y036442D01*
X031377Y036479D01*
X031349Y036518D01*
X031325Y036559D01*
X031304Y036602D01*
X031286Y036647D01*
X031273Y036693D01*
X031263Y036740D01*
X031257Y036787D01*
X031255Y036835D01*
X021335Y036835D02*
X021337Y036883D01*
X021343Y036930D01*
X021353Y036977D01*
X021366Y037023D01*
X021384Y037068D01*
X021405Y037111D01*
X021429Y037152D01*
X021457Y037191D01*
X021488Y037228D01*
X021522Y037262D01*
X021559Y037293D01*
X021598Y037321D01*
X021639Y037345D01*
X021682Y037366D01*
X021727Y037384D01*
X021773Y037397D01*
X021820Y037407D01*
X021867Y037413D01*
X021915Y037415D01*
X021963Y037413D01*
X022010Y037407D01*
X022057Y037397D01*
X022103Y037384D01*
X022148Y037366D01*
X022191Y037345D01*
X022232Y037321D01*
X022271Y037293D01*
X022308Y037262D01*
X022342Y037228D01*
X022373Y037191D01*
X022401Y037152D01*
X022425Y037111D01*
X022446Y037068D01*
X022464Y037023D01*
X022477Y036977D01*
X022487Y036930D01*
X022493Y036883D01*
X022495Y036835D01*
X022493Y036787D01*
X022487Y036740D01*
X022477Y036693D01*
X022464Y036647D01*
X022446Y036602D01*
X022425Y036559D01*
X022401Y036518D01*
X022373Y036479D01*
X022342Y036442D01*
X022308Y036408D01*
X022271Y036377D01*
X022232Y036349D01*
X022191Y036325D01*
X022148Y036304D01*
X022103Y036286D01*
X022057Y036273D01*
X022010Y036263D01*
X021963Y036257D01*
X021915Y036255D01*
X021867Y036257D01*
X021820Y036263D01*
X021773Y036273D01*
X021727Y036286D01*
X021682Y036304D01*
X021639Y036325D01*
X021598Y036349D01*
X021559Y036377D01*
X021522Y036408D01*
X021488Y036442D01*
X021457Y036479D01*
X021429Y036518D01*
X021405Y036559D01*
X021384Y036602D01*
X021366Y036647D01*
X021353Y036693D01*
X021343Y036740D01*
X021337Y036787D01*
X021335Y036835D01*
X007755Y036835D02*
X007757Y036883D01*
X007763Y036930D01*
X007773Y036977D01*
X007786Y037023D01*
X007804Y037068D01*
X007825Y037111D01*
X007849Y037152D01*
X007877Y037191D01*
X007908Y037228D01*
X007942Y037262D01*
X007979Y037293D01*
X008018Y037321D01*
X008059Y037345D01*
X008102Y037366D01*
X008147Y037384D01*
X008193Y037397D01*
X008240Y037407D01*
X008287Y037413D01*
X008335Y037415D01*
X008383Y037413D01*
X008430Y037407D01*
X008477Y037397D01*
X008523Y037384D01*
X008568Y037366D01*
X008611Y037345D01*
X008652Y037321D01*
X008691Y037293D01*
X008728Y037262D01*
X008762Y037228D01*
X008793Y037191D01*
X008821Y037152D01*
X008845Y037111D01*
X008866Y037068D01*
X008884Y037023D01*
X008897Y036977D01*
X008907Y036930D01*
X008913Y036883D01*
X008915Y036835D01*
X008913Y036787D01*
X008907Y036740D01*
X008897Y036693D01*
X008884Y036647D01*
X008866Y036602D01*
X008845Y036559D01*
X008821Y036518D01*
X008793Y036479D01*
X008762Y036442D01*
X008728Y036408D01*
X008691Y036377D01*
X008652Y036349D01*
X008611Y036325D01*
X008568Y036304D01*
X008523Y036286D01*
X008477Y036273D01*
X008430Y036263D01*
X008383Y036257D01*
X008335Y036255D01*
X008287Y036257D01*
X008240Y036263D01*
X008193Y036273D01*
X008147Y036286D01*
X008102Y036304D01*
X008059Y036325D01*
X008018Y036349D01*
X007979Y036377D01*
X007942Y036408D01*
X007908Y036442D01*
X007877Y036479D01*
X007849Y036518D01*
X007825Y036559D01*
X007804Y036602D01*
X007786Y036647D01*
X007773Y036693D01*
X007763Y036740D01*
X007757Y036787D01*
X007755Y036835D01*
X003245Y037375D02*
X003247Y037425D01*
X003253Y037475D01*
X003263Y037524D01*
X003277Y037572D01*
X003294Y037619D01*
X003315Y037664D01*
X003340Y037708D01*
X003368Y037749D01*
X003400Y037788D01*
X003434Y037825D01*
X003471Y037859D01*
X003511Y037889D01*
X003553Y037916D01*
X003597Y037940D01*
X003643Y037961D01*
X003690Y037977D01*
X003738Y037990D01*
X003788Y037999D01*
X003837Y038004D01*
X003888Y038005D01*
X003938Y038002D01*
X003987Y037995D01*
X004036Y037984D01*
X004084Y037969D01*
X004130Y037951D01*
X004175Y037929D01*
X004218Y037903D01*
X004259Y037874D01*
X004298Y037842D01*
X004334Y037807D01*
X004366Y037769D01*
X004396Y037729D01*
X004423Y037686D01*
X004446Y037642D01*
X004465Y037596D01*
X004481Y037548D01*
X004493Y037499D01*
X004501Y037450D01*
X004505Y037400D01*
X004505Y037350D01*
X004501Y037300D01*
X004493Y037251D01*
X004481Y037202D01*
X004465Y037154D01*
X004446Y037108D01*
X004423Y037064D01*
X004396Y037021D01*
X004366Y036981D01*
X004334Y036943D01*
X004298Y036908D01*
X004259Y036876D01*
X004218Y036847D01*
X004175Y036821D01*
X004130Y036799D01*
X004084Y036781D01*
X004036Y036766D01*
X003987Y036755D01*
X003938Y036748D01*
X003888Y036745D01*
X003837Y036746D01*
X003788Y036751D01*
X003738Y036760D01*
X003690Y036773D01*
X003643Y036789D01*
X003597Y036810D01*
X003553Y036834D01*
X003511Y036861D01*
X003471Y036891D01*
X003434Y036925D01*
X003400Y036962D01*
X003368Y037001D01*
X003340Y037042D01*
X003315Y037086D01*
X003294Y037131D01*
X003277Y037178D01*
X003263Y037226D01*
X003253Y037275D01*
X003247Y037325D01*
X003245Y037375D01*
X003835Y025915D02*
X003837Y025963D01*
X003843Y026010D01*
X003853Y026057D01*
X003866Y026103D01*
X003884Y026148D01*
X003905Y026191D01*
X003929Y026232D01*
X003957Y026271D01*
X003988Y026308D01*
X004022Y026342D01*
X004059Y026373D01*
X004098Y026401D01*
X004139Y026425D01*
X004182Y026446D01*
X004227Y026464D01*
X004273Y026477D01*
X004320Y026487D01*
X004367Y026493D01*
X004415Y026495D01*
X004463Y026493D01*
X004510Y026487D01*
X004557Y026477D01*
X004603Y026464D01*
X004648Y026446D01*
X004691Y026425D01*
X004732Y026401D01*
X004771Y026373D01*
X004808Y026342D01*
X004842Y026308D01*
X004873Y026271D01*
X004901Y026232D01*
X004925Y026191D01*
X004946Y026148D01*
X004964Y026103D01*
X004977Y026057D01*
X004987Y026010D01*
X004993Y025963D01*
X004995Y025915D01*
X004993Y025867D01*
X004987Y025820D01*
X004977Y025773D01*
X004964Y025727D01*
X004946Y025682D01*
X004925Y025639D01*
X004901Y025598D01*
X004873Y025559D01*
X004842Y025522D01*
X004808Y025488D01*
X004771Y025457D01*
X004732Y025429D01*
X004691Y025405D01*
X004648Y025384D01*
X004603Y025366D01*
X004557Y025353D01*
X004510Y025343D01*
X004463Y025337D01*
X004415Y025335D01*
X004367Y025337D01*
X004320Y025343D01*
X004273Y025353D01*
X004227Y025366D01*
X004182Y025384D01*
X004139Y025405D01*
X004098Y025429D01*
X004059Y025457D01*
X004022Y025488D01*
X003988Y025522D01*
X003957Y025559D01*
X003929Y025598D01*
X003905Y025639D01*
X003884Y025682D01*
X003866Y025727D01*
X003853Y025773D01*
X003843Y025820D01*
X003837Y025867D01*
X003835Y025915D01*
M02*
