G04 Output by ViewMate Deluxe V11.0.9  PentaLogix LLC*
G04 Thu May 29 07:25:40 2014*
%FSLAX33Y33*%
%MOMM*%
%IPPOS*%
%ADD18C,0.127*%
%ADD125C,0.2032*%
%ADD127C,0.1016*%
%ADD128C,0.4064*%
%ADD129C,0.254*%
%ADD130C,0.127*%
%ADD131C,0.1524*%

%LPD*%
X0Y0D2*D18*G1X115126Y46444D2*X115126Y46076D1*X17633Y61130D2*X16835Y61130D1*X16835Y60731D2*X17633Y61529D1*X17234Y61529D2*X17234Y60731D1*X17633Y60731D2*X16835Y61529D1*X32596Y54945D2*X32474Y55067D1*X32228Y55067*X32106Y54945*X32106Y54453*X32228Y54331*X32474Y54331*X32596Y54453*X32352Y54699D2*X32596Y54699D1*X32596Y54453*X32855Y54331D2*X32855Y54821D1*X33223Y54821*X33345Y54699*X33345Y54331*X34094Y55067D2*X34094Y54331D1*X34094Y54821D2*X33726Y54821D1*X33602Y54699*X33602Y54453*X33726Y54331*X34094Y54331*X104465Y22949D2*X104465Y22581D1*X103716Y23195D2*X103594Y23317D1*X103348Y23317*X103226Y23195*X103226Y22703*X103348Y22581*X103594Y22581*X103716Y22703*X103472Y22949D2*X103716Y22949D1*X103716Y22703*X103975Y22581D2*X103975Y23071D1*X104343Y23071*X104465Y22949*X105214Y23071D2*X104846Y23071D1*X104722Y22949*X104722Y22703*X104846Y22581*X105214Y22581*X105214Y23317*X203053Y51605D2*X202255Y51605D1*X202255Y51206D2*X203053Y52004D1*X202654Y52004D2*X202654Y51206D1*X203053Y51206D2*X202255Y52004D1*X212001Y43409D2*X212001Y42611D1*X212400Y42611D2*X211602Y43409D1*X211602Y43010D2*X212400Y43010D1*X212400Y43409D2*X211602Y42611D1*X234262Y43904D2*X234262Y43658D1*X234386Y43536*X234754Y43536*X234754Y44272*X234754Y44026D2*X234386Y44026D1*X234262Y43904*X233256Y44150D2*X233134Y44272D1*X232888Y44272*X232766Y44150*X232766Y43658*X232888Y43536*X233134Y43536*X233256Y43658*X233012Y43904D2*X233256Y43904D1*X233256Y43658*X233515Y43536D2*X233515Y44026D1*X233883Y44026*X234005Y43904*X234005Y43536*X233850Y35072D2*X233850Y35870D1*X233451Y35870D2*X234249Y35072D1*X234249Y35471D2*X233451Y35471D1*X233451Y35072D2*X234249Y35870D1*X223667Y29276D2*X224465Y30074D1*X224066Y30074D2*X224066Y29276D1*X224465Y29276D2*X223667Y30074D1*X223667Y29675D2*X224465Y29675D1*X194457Y29675D2*X195255Y29675D1*X195255Y30074D2*X194457Y29276D1*X194856Y29276D2*X194856Y30074D1*X194457Y30074D2*X195255Y29276D1*X163342Y29276D2*X164140Y30074D1*X163741Y30074D2*X163741Y29276D1*X164140Y29276D2*X163342Y30074D1*X163342Y29675D2*X164140Y29675D1*X134132Y29675D2*X134930Y29675D1*X134930Y30074D2*X134132Y29276D1*X134531Y29276D2*X134531Y30074D1*X134132Y30074D2*X134930Y29276D1*X112387Y46198D2*X112387Y46566D1*X114008Y46322D2*X113886Y46198D1*X114633Y46076D2*X114633Y46566D1*X115126Y46444D2*X115001Y46566D1*X114633Y46566*X114008Y46322D2*X114376Y46322D1*X114008Y46566D2*X114254Y46566D1*X114376Y46444*X114376Y46076*X114008Y46076*X113886Y46198*X113137Y46566D2*X113137Y46076D1*X113383Y46076D2*X113383Y46444D1*X113627Y46076D2*X113627Y46444D1*X113505Y46566*X113383Y46444*X113259Y46566*X113137Y46566*X112880Y46566D2*X112880Y46198D1*X112756Y46076*X112634Y46198*X112512Y46076*X112387Y46198*X112009Y46076D2*X111763Y46076D1*X111641Y46198*X111641Y46444*X111641Y46322D2*X112131Y46322D1*X112131Y46444*X112009Y46566*X111763Y46566*X111641Y46444*X111382Y46812D2*X111382Y46076D1*X110891Y46812*X110891Y46076*X108646Y46198D2*X108646Y46444D1*X109764Y46322D2*X109885Y46198D1*X109764Y46076*X109395Y46076*X109395Y46444D2*X109517Y46322D1*X109764Y46322*X109885Y46566D2*X109517Y46566D1*X109395Y46444*X109136Y46322D2*X109136Y46444D1*X109014Y46566*X108768Y46566*X108646Y46444*X109136Y46322D2*X108646Y46322D1*X109014Y46076D2*X108768Y46076D1*X108646Y46198*X107897Y46566D2*X107897Y46076D1*X108143Y46076D2*X108143Y46444D1*X108389Y46076D2*X108389Y46444D1*X108265Y46566*X108143Y46444*X108021Y46566*X107897Y46566*X107640Y46322D2*X107272Y46322D1*X107150Y46198*X107272Y46076*X107640Y46076*X107640Y46444*X107518Y46566*X107272Y46566*X106647Y46812D2*X106891Y46812D1*X106769Y46812D2*X106769Y46198D1*X106647Y46076*X106523Y46076*X106401Y46198*X74148Y59624D2*X73350Y58826D1*X73749Y58826D2*X73749Y59624D1*X73350Y59624D2*X74148Y58826D1*X74148Y59225D2*X73350Y59225D1*X97008Y59225D2*X96210Y59225D1*X96210Y58826D2*X97008Y59624D1*X96609Y59624D2*X96609Y58826D1*X97008Y58826D2*X96210Y59624D1*X119868Y59624D2*X119070Y58826D1*X119469Y58826D2*X119469Y59624D1*X119070Y59624D2*X119868Y58826D1*X119868Y59225D2*X119070Y59225D1*X142093Y59225D2*X141295Y59225D1*X141295Y58826D2*X142093Y59624D1*X141694Y59624D2*X141694Y58826D1*X142093Y58826D2*X141295Y59624D1*X152453Y57053D2*X152768Y57366D1*X152768Y56426*X153081Y56426D2*X152453Y56426D1*X153391Y56584D2*X153391Y57211D1*X153546Y57366*X153860Y57366*X154018Y57211*X154018Y56584*X153860Y56426*X153546Y56426*X153391Y56584*X154018Y57211*X154325Y56426D2*X154325Y57366D1*X154795Y56426D2*X154325Y56739D1*X154795Y57053*X167729Y59624D2*X167729Y58826D1*X168128Y58826D2*X167330Y59624D1*X167330Y59225D2*X168128Y59225D1*X168128Y59624D2*X167330Y58826D1*X219799Y75499D2*X219799Y74701D1*X219400Y74701D2*X220198Y75499D1*X220198Y75100D2*X219400Y75100D1*X219400Y75499D2*X220198Y74701D1*X190589Y74701D2*X190589Y75499D1*X190190Y75499D2*X190988Y74701D1*X190988Y75100D2*X190190Y75100D1*X190190Y74701D2*X190988Y75499D1*X160109Y75499D2*X160109Y74701D1*X159710Y74701D2*X160508Y75499D1*X160508Y75100D2*X159710Y75100D1*X159710Y75499D2*X160508Y74701D1*X130899Y74701D2*X130899Y75499D1*X130500Y75499D2*X131298Y74701D1*X131298Y75100D2*X130500Y75100D1*X130500Y74701D2*X131298Y75499D1*X100419Y75499D2*X100419Y74701D1*X100020Y74701D2*X100818Y75499D1*X100818Y75100D2*X100020Y75100D1*X100020Y75499D2*X100818Y74701D1*X71209Y74701D2*X71209Y75499D1*X70810Y75499D2*X71608Y74701D1*X71608Y75100D2*X70810Y75100D1*X70810Y74701D2*X71608Y75499D1*X69761Y70551D2*X69761Y71349D1*X69362Y71349D2*X70160Y70551D1*X70160Y70950D2*X69362Y70950D1*X69362Y70551D2*X70160Y71349D1*X45817Y67363D2*X45504Y67678D1*X46444Y67678*X46444Y67991D2*X46444Y67363D1*X46286Y68301D2*X45659Y68301D1*X45504Y68456*X45504Y68770*X45659Y68928*X46286Y68928*X46444Y68770*X46444Y68456*X46286Y68301*X45659Y68928*X46444Y69235D2*X45504Y69235D1*X46444Y69705D2*X46131Y69235D1*X45817Y69705*X40729Y74701D2*X40729Y75499D1*X40330Y75499D2*X41128Y74701D1*X41128Y75100D2*X40330Y75100D1*X40330Y74701D2*X41128Y75499D1*X11519Y75499D2*X11519Y74701D1*X11120Y74701D2*X11918Y75499D1*X11918Y75100D2*X11120Y75100D1*X11120Y75499D2*X11918Y74701D1*D125*X8240Y77914D2*X9809Y77914D1*X10122Y78227*X10122Y79832D2*X10122Y81087D1*X10122Y80460D2*X8240Y80460D1*X8867Y79832*X8240Y79169D2*X9809Y79169D1*X10122Y78854*X10122Y78227*X230490Y14440D2*X230490Y15695D1*X230490Y10604D2*X232059Y10604D1*X232372Y10917*X232372Y11544*X232059Y11859*X230490Y11859*X231117Y12522D2*X230490Y13150D1*X232372Y13150*X232372Y13777D2*X232372Y12522D1*X232372Y14440D2*X232059Y14440D1*X230805Y15695*X230490Y15695*X219202Y18453D2*X219202Y20335D1*X218262Y19393*X221435Y20335D2*X220807Y20020D1*X220180Y19393*X220180Y18766*X220495Y18453*X221120Y18453*X221435Y18766*X221435Y19080*X221120Y19393*X220180Y19393*X218262Y19393D2*X219517Y19393D1*X217599Y20335D2*X217599Y18766D1*X217284Y18453*X216657Y18453*X216344Y18766*X216344Y20335*X178892Y32093D2*X179832Y33035D1*X179832Y31153*X181750Y32093D2*X182065Y32408D1*X182065Y32720*X181750Y33035*X181125Y33035*X180810Y32720*X180810Y32408*X181125Y32093*X180810Y31780D2*X180810Y31466D1*X181125Y31153*X181750Y31153*X182065Y31466*X182065Y31780*X181750Y32093*X181125Y32093*X180810Y31780*X178892Y32093D2*X180147Y32093D1*X178229Y33035D2*X178229Y31466D1*X177914Y31153*X177287Y31153*X176974Y31466*X176974Y33035*X147130Y31466D2*X147130Y33035D1*X150302Y32093D2*X149047Y32093D1*X150965Y33035D2*X152220Y33035D1*X152220Y32720*X150965Y31466*X150965Y31153*X149987Y31153D2*X149987Y33035D1*X149047Y32093*X148384Y33035D2*X148384Y31466D1*X148069Y31153*X147442Y31153*X147130Y31466*X112865Y31153D2*X114120Y31153D1*X113492Y31153D2*X113492Y33035D1*X112865Y32408*X110947Y33035D2*X112202Y33035D1*X110947Y31466D2*X111260Y31153D1*X111887Y31153*X112202Y31466*X112202Y32093*X111887Y32408*X111575Y32408*X110947Y32093*X110947Y33035*X110284Y33035D2*X110284Y31466D1*X109969Y31153*X109342Y31153*X109030Y31466*X109030Y33035*X106464Y50383D2*X108024Y50383D1*X107244Y48044D2*X107244Y50383D1*X108803Y49212D2*X108803Y48433D1*X109192Y48044*X109972Y48044*X110363Y48824D2*X110363Y49212D1*X109972Y49604*X109192Y49604*X108803Y49212*X110363Y48824D2*X108803Y48824D1*X112700Y48433D2*X112311Y48824D1*X111531Y48824*X112700Y49604D2*X111531Y49604D1*X111143Y49212*X111531Y48824*X111143Y48044D2*X112311Y48044D1*X112700Y48433*X114259Y48044D2*X113871Y48433D1*X113871Y49992*X114259Y49604D2*X113480Y49604D1*X117378Y50383D2*X118158Y50383D1*X117767Y48044D2*X117767Y50383D1*X118158Y48044D2*X117378Y48044D1*X120498Y50383D2*X118938Y48044D1*X122837Y48433D2*X122837Y49992D1*X122446Y50383*X121666Y50383*X121277Y49992*X121277Y48433*X121666Y48044*X122446Y48044*X122837Y48433*X127513Y48824D2*X127124Y49212D1*X125954Y49212D2*X127124Y49212D1*X127513Y49604*X127513Y49992*X127124Y50383*X125954Y50383*X125954Y48044*X127124Y48044*X127513Y48433*X127513Y48824*X129852Y49212D2*X129852Y48433D1*X129461Y48044*X128681Y48044*X128293Y48433*X128293Y49212*X128681Y49604*X129461Y49604*X129852Y49212*X131021Y49604D2*X131801Y49604D1*X132192Y49212*X132192Y48824D2*X131021Y48824D1*X130632Y48433*X131021Y48044*X132192Y48044*X132192Y49212*X132972Y48044D2*X132972Y49604D1*X132972Y48824D2*X133751Y49604D1*X134140Y49604*X136479Y49604D2*X135308Y49604D1*X134920Y49212*X134920Y48433*X135308Y48044*X136479Y48044*X136479Y50383*X144275Y49604D2*X143495Y50383D1*X141935Y48044D2*X141935Y50383D1*X141155Y49604*X140376Y50383D2*X139596Y49604D1*X139596Y48824*X140376Y48044*X142715Y48044D2*X141155Y48044D1*X143495Y48044D2*X144275Y48824D1*X144275Y49604*X198740Y56335D2*X199055Y55707D1*X199682Y55080*X200309Y55080D2*X200622Y55395D1*X200622Y56020*X200309Y56335*X199995Y56335*X199682Y56020*X199682Y55080*X200309Y55080*X200622Y53162D2*X200622Y54417D1*X200622Y53790D2*X198740Y53790D1*X199367Y53162*X198740Y52499D2*X200309Y52499D1*X200622Y52184*X200622Y51557*X198740Y51244D2*X200309Y51244D1*X200622Y51557*X215915Y43370D2*X214346Y43370D1*X214033Y43058*X214033Y42431*X214346Y42116*X215915Y42116*X215915Y40198D2*X215915Y41453D1*X214973Y41453*X214346Y40198D2*X214973Y40198D1*X215288Y40513*X215288Y40825*X214973Y41453*X214346Y41453D2*X214033Y41140D1*X214033Y40513*X214346Y40198*X214346Y39535D2*X215600Y39535D1*X215915Y39220*X215915Y38595*X215600Y38280D2*X214346Y38280D1*X214033Y38595*X214033Y39220*X214346Y39535*X215600Y38280*X215915Y38595*X244361Y38570D2*X244691Y38240D1*X244691Y37249*X242707Y37249*X242707Y38240*X243037Y38570*X244361Y38570*X243700Y40582D2*X244361Y40582D1*X244691Y40251*X244691Y39591*X244361Y39261*X243700Y39261*X243370Y39591*X243370Y40251*X243700Y40582*X243370Y41272D2*X244361Y41272D1*X244691Y41603*X244361Y41933*X244691Y42263*X244361Y42593*X243370Y42593*X244691Y43284D2*X243370Y43284D1*X243370Y44275*X243700Y44605*X244691Y44605*X244691Y45296D2*X244691Y46286D1*X244361Y46617*X243370Y46617D2*X243370Y45626D1*X243700Y45296*X244030Y45626*X244030Y46286*X244361Y46617*X244691Y47968D2*X244361Y47635D1*X243037Y47635*X243370Y47968D2*X243370Y47305D1*X244691Y48646D2*X243370Y48646D1*X244030Y48646D2*X243370Y49309D1*X243370Y49639*X244361Y50322D2*X244691Y50653D1*X244691Y51316*X243700Y51646D2*X243370Y51316D1*X243370Y50653*X243700Y50322*X244361Y50322*X244030Y50322D2*X244030Y51646D1*X243700Y51646*X243370Y52664D2*X243370Y53325D1*X243700Y53658*X244030Y53658D2*X244030Y52664D1*X244361Y52334*X244691Y52664*X244691Y53658*X243700Y53658*X243700Y55006D2*X243370Y54676D1*X243370Y54346*X244691Y54346*X244691Y55006D2*X243700Y55006D1*X243370Y55336*X243700Y55667*X244691Y55667*X247460Y82718D2*X247460Y81394D1*X249390Y85258D2*X249060Y85588D1*X248399Y85588*X248069Y85258*X248069Y83934*X249390Y83934D2*X249390Y85258D1*X248069Y83934*X248399Y83604*X249060Y83604*X249390Y83934*X251402Y84264D2*X250741Y83604D1*X250081Y84264*X250081Y85588*X251402Y84264D2*X251402Y85588D1*X252143Y83048D2*X252143Y81724D1*X251483Y81064*X250822Y81724*X250822Y83048*X250132Y83048D2*X248811Y83048D1*X248811Y82055*X248811Y81394D2*X249141Y81064D1*X249801Y81064*X250132Y81394*X250132Y82055*X249801Y82385*X249471Y82385*X248811Y82055*X246799Y82055D2*X248120Y82055D1*X223091Y73309D2*X223406Y73622D1*X224033Y73622*X224346Y73309*X224346Y71740*X223091Y73309D2*X223091Y71740D1*X222428Y73309D2*X222115Y73622D1*X221488Y73622*X221173Y73309*X221173Y72682D2*X222115Y72682D1*X222428Y72367*X222428Y72055*X222115Y71740*X221488Y71740*X221173Y72055*X221173Y73309*X196421Y73309D2*X196736Y73622D1*X197363Y73622*X197676Y73309*X197676Y71740*X196421Y73309D2*X196421Y71740D1*X195445Y72682D2*X195758Y72995D1*X195758Y73309*X195445Y73622*X194818Y73622*X194503Y73309*X194503Y72995*X194818Y72682*X194503Y72055D2*X194818Y71740D1*X195445Y71740*X195758Y72055*X195758Y72367*X195445Y72682*X194818Y72682*X194503Y72367*X194503Y72055*X176985Y70500D2*X175730Y70500D1*X175730Y69558*X176357Y69873*X176670Y69873*X176985Y69558*X176985Y68931*X176670Y68618*X176045Y68618*X175730Y68931*X173812Y68618D2*X175067Y68618D1*X174440Y68618D2*X174440Y70500D1*X173812Y69873*X173149Y70500D2*X173149Y68931D1*X172834Y68618*X172207Y68618*X171894Y68931*X171894Y70500*X166548Y71740D2*X165293Y71740D1*X167211Y71740D2*X167211Y73309D1*X168466Y71740D2*X168466Y73309D1*X168153Y73622*X167526Y73622*X167211Y73309*X166548Y73622D2*X166548Y73309D1*X165293Y72055*X165293Y71740*X146520Y69873D2*X147147Y70500D1*X147147Y68618*X146520Y68618D2*X147775Y68618D1*X144602Y68618D2*X145857Y68618D1*X145230Y68618D2*X145230Y70500D1*X144602Y69873*X143939Y70500D2*X143939Y68931D1*X143624Y68618*X142997Y68618*X142684Y68931*X142684Y70500*X136731Y73309D2*X137046Y73622D1*X137673Y73622*X137986Y73309*X137986Y71740*X136731Y73309D2*X136731Y71740D1*X136068Y72682D2*X136068Y73309D1*X135755Y73622*X135128Y73622*X134813Y73309*X134813Y72995*X135128Y72682*X136068Y72682*X135440Y72055*X134813Y71740*X128740Y70185D2*X129055Y70500D1*X129680Y70500*X129995Y70185*X129995Y69873*X129680Y69558*X129367Y69558D2*X129680Y69558D1*X129995Y69245*X129995Y68931*X129680Y68618*X129055Y68618*X128740Y68931*X126822Y68618D2*X128077Y68618D1*X127450Y68618D2*X127450Y70500D1*X126822Y69873*X126159Y70500D2*X126159Y68931D1*X125844Y68618*X125217Y68618*X124904Y68931*X124904Y70500*X106251Y73309D2*X106566Y73622D1*X107193Y73622*X107506Y73309*X107506Y71740*X106251Y73309D2*X106251Y71740D1*X104648Y73622D2*X104648Y71740D1*X105588Y72682*X104333Y72682*X96330Y68931D2*X96330Y70500D1*X100165Y68618D2*X101420Y68618D1*X100165Y70185D2*X100480Y70500D1*X101105Y70500*X101420Y70185*X101420Y69873*X100165Y68618*X98247Y68618D2*X99502Y68618D1*X98875Y68618D2*X98875Y70500D1*X98247Y69873*X97584Y70500D2*X97584Y68931D1*X97269Y68618*X96642Y68618*X96330Y68931*X84925Y69558D2*X85865Y70500D1*X85865Y68618*X84925Y69558D2*X86180Y69558D1*X83007Y68618D2*X84262Y68618D1*X83635Y68618D2*X83635Y70500D1*X83007Y69873*X82344Y70500D2*X82344Y68931D1*X82029Y68618*X81402Y68618*X81090Y68931*X81090Y70500*X77660Y71740D2*X77660Y73309D1*X77348Y73622*X76721Y73622*X76406Y73309*X74803Y72682D2*X75115Y72682D1*X74488Y73309D2*X74488Y72995D1*X74803Y72682*X74488Y72367*X74488Y72055*X74803Y71740*X75430Y71740*X75743Y72055*X76406Y73309D2*X76406Y71740D1*X75743Y73309D2*X75430Y73622D1*X74803Y73622*X74488Y73309*X70940Y73360D2*X70625Y73675D1*X70000Y73675*X69685Y73360*X69685Y72106*X70000Y71793*X70625Y71793*X70940Y72106*X70940Y73360*X69685Y72106*X67767Y71793D2*X69022Y71793D1*X68395Y71793D2*X68395Y73675D1*X67767Y73048*X67104Y73675D2*X67104Y72106D1*X66789Y71793*X66162Y71793*X65850Y72106*X65850Y73675*X40833Y73622D2*X42088Y73622D1*X40833Y72055D2*X40833Y72367D1*X42088Y73622*X44006Y71740D2*X44006Y73309D1*X43693Y73622*X43066Y73622*X42751Y73309*X42751Y71740*X42088Y72055D2*X41775Y71740D1*X41148Y71740*X40833Y72055*X18621Y59339D2*X18936Y59652D1*X19563Y59652*X19876Y59339*X19876Y57770*X18621Y59339D2*X18621Y57770D1*X17958Y59339D2*X17645Y59652D1*X17018Y59652*X16703Y59339*X16703Y58712*X17018Y58397*X17330Y58397*X17958Y58712*X17958Y57770*X16703Y57770*X16396Y39418D2*X16726Y39088D1*X16726Y38097*X15735Y38097D2*X16066Y38428D1*X16066Y39088*X16396Y39418*X15405Y47147D2*X15405Y47478D1*X15735Y47808*X16726Y48471D2*X15735Y48471D1*X15405Y48141*X15735Y47808*X16726Y47808*X15405Y47147D2*X16726Y47147D1*X15735Y46459D2*X15405Y46129D1*X15405Y45466*X16396Y45136D2*X16726Y45466D1*X16726Y46459*X15735Y46459*X16066Y46459D2*X16066Y45466D1*X16396Y45136*X16726Y44117D2*X16726Y43457D1*X16396Y43124*X15735Y43124*X15405Y43457*X15405Y44117*X15735Y44447*X16066Y44447*X16066Y43124*X16066Y41450D2*X15405Y42111D1*X15405Y42441*X16726Y41450D2*X15405Y41450D1*X16726Y40770D2*X16396Y40439D1*X15072Y40439*X15405Y40109D2*X15405Y40770D1*X15405Y39418D2*X15405Y38428D1*X15735Y38097*X17386Y36086D2*X15405Y36086D1*X16726Y36086D2*X16726Y37076D1*X16396Y37407*X15735Y37407*X15405Y37076*X15405Y36086*X14742Y35395D2*X16396Y35395D1*X16726Y35065*X16726Y34404*X16396Y34074*X14742Y34074*D127*X237317Y38786D2*X237317Y38176D1*X238252Y38024D2*X238252Y38633D1*X238862Y38024D2*X238862Y38481D1*X238709Y38633*X238252Y38633*X237927Y38786D2*X237927Y38176D1*X237774Y38024*X237470Y38024*X237317Y38176*X237927Y38786*X237774Y38938*X237470Y38938*X237317Y38786*X236992Y38786D2*X236837Y38938D1*X236532Y38938*X236380Y38786*X236380Y38176*X236532Y38024*X236837Y38024*X236992Y38176*X236992Y38786*X236380Y38176*X235445Y38024D2*X236055Y38024D1*X235750Y38024D2*X235750Y38938D1*X235445Y38633*X196710Y59588D2*X197015Y59893D1*X197015Y58979*X197320Y58979D2*X196710Y58979D1*X197645Y59131D2*X197645Y59741D1*X197797Y59893*X198102Y59893*X198257Y59741*X198257Y59131D2*X198257Y59741D1*X197645Y59131*X197797Y58979*X198102Y58979*X198257Y59131*X198582Y59131D2*X198582Y59741D1*X198735Y59893*X199039Y59893*X199192Y59741*X199192Y59131D2*X199192Y59741D1*X198582Y59131*X198735Y58979*X199039Y58979*X199192Y59131*X199517Y58979D2*X199517Y59588D1*X199974Y59588*X200127Y59436*X200127Y58979*X244546Y67879D2*X244742Y68075D1*X244742Y68270*X244546Y68463*X243573Y68270D2*X243573Y68659D1*X244546Y68463D2*X243573Y68463D1*X244158Y69050D2*X244546Y69050D1*X244742Y69243*X244742Y69634*X244546Y69830*X244353Y69830*X244158Y69634*X244158Y69050*X243766Y69439*X243573Y69830*X229997Y70409D2*X229997Y71018D1*X230607Y70409D2*X230607Y70866D1*X230454Y71018*X229997Y71018*X227190Y71018D2*X227495Y71323D1*X227495Y70409*X227800Y70409D2*X227190Y70409D1*X228125Y70561D2*X228125Y71171D1*X228277Y71323*X228582Y71323*X228737Y71171*X228737Y70561D2*X228737Y71171D1*X228125Y70561*X228277Y70409*X228582Y70409*X228737Y70561*X229062Y70561D2*X229062Y71171D1*X229215Y71323*X229519Y71323*X229672Y71171D2*X229672Y70561D1*X229519Y70409*X229215Y70409*X229062Y70561*X229672Y71171*X229519Y71323*X240492Y85776D2*X240492Y85166D1*X241427Y85014D2*X241427Y85623D1*X242037Y85014D2*X242037Y85471D1*X241884Y85623*X241427Y85623*X241102Y85776D2*X241102Y85166D1*X240949Y85014*X240645Y85014*X240492Y85166*X241102Y85776*X240949Y85928*X240645Y85928*X240492Y85776*X240167Y85776D2*X240012Y85928D1*X239707Y85928*X239555Y85776*X239555Y85166*X239707Y85014*X240012Y85014*X240167Y85166*X240167Y85776*X239555Y85166*X238620Y85014D2*X239230Y85014D1*X238925Y85014D2*X238925Y85928D1*X238620Y85623*X197752Y89218D2*X198338Y89802D1*X198338Y88633*X197752Y89218D2*X198531Y89218D1*X196972Y89802D2*X197363Y89802D1*X197168Y89802D2*X197168Y88829D1*X196972Y88633*X196779Y88633*X196583Y88829*X187787Y85776D2*X187787Y85166D1*X188722Y85014D2*X188722Y85623D1*X189332Y85014D2*X189332Y85471D1*X189179Y85623*X188722Y85623*X188397Y85776D2*X188397Y85166D1*X188244Y85014*X187940Y85014*X187787Y85166*X188397Y85776*X188244Y85928*X187940Y85928*X187787Y85776*X187462Y85776D2*X187307Y85928D1*X187002Y85928*X186850Y85776*X186850Y85166*X187002Y85014*X187307Y85014*X187462Y85166*X187462Y85776*X186850Y85166*X185915Y85014D2*X186525Y85014D1*X186220Y85014D2*X186220Y85928D1*X185915Y85623*X138453Y89218D2*X138648Y89218D1*X138062Y88829D2*X138257Y88633D1*X138648Y88633*X138841Y88829*X138841Y89022*X138648Y89218*X138841Y89413*X138841Y89609*X138648Y89802*X138257Y89802*X138062Y89609*X137282Y89802D2*X137673Y89802D1*X137478Y89802D2*X137478Y88829D1*X137282Y88633*X137089Y88633*X136893Y88829*X128732Y86411D2*X128732Y85801D1*X129667Y85649D2*X129667Y86258D1*X130277Y85649D2*X130277Y86106D1*X130124Y86258*X129667Y86258*X129342Y86411D2*X129342Y85801D1*X129189Y85649*X128885Y85649*X128732Y85801*X129342Y86411*X129189Y86563*X128885Y86563*X128732Y86411*X128407Y86411D2*X128252Y86563D1*X127947Y86563*X127795Y86411*X127795Y85801*X127947Y85649*X128252Y85649*X128407Y85801*X128407Y86411*X127795Y85801*X126860Y85649D2*X127470Y85649D1*X127165Y85649D2*X127165Y86563D1*X126860Y86258*X77399Y88633D2*X77203Y88829D1*X79151Y88633D2*X78372Y88633D1*X79151Y89413*X79151Y89609*X78958Y89802*X78567Y89802*X78372Y89609*X77592Y89802D2*X77983Y89802D1*X77788Y89802D2*X77788Y88829D1*X77592Y88633*X77399Y88633*X74757Y85776D2*X74757Y85166D1*X75692Y85014D2*X75692Y85623D1*X76302Y85014D2*X76302Y85471D1*X76149Y85623*X75692Y85623*X75367Y85776D2*X75367Y85166D1*X75214Y85014*X74910Y85014*X74757Y85166*X75367Y85776*X75214Y85928*X74910Y85928*X74757Y85776*X74432Y85776D2*X74277Y85928D1*X73972Y85928*X73820Y85776*X73820Y85166*X73972Y85014*X74277Y85014*X74432Y85166*X74432Y85776*X73820Y85166*X72885Y85014D2*X73495Y85014D1*X73190Y85014D2*X73190Y85928D1*X72885Y85623*X19461Y88633D2*X18682Y88633D1*X19073Y88633D2*X19073Y89802D1*X18682Y89413*X17902Y89802D2*X18293Y89802D1*X18098Y89802D2*X18098Y88829D1*X17902Y88633*X17709Y88633*X17513Y88829*X11290Y86258D2*X11595Y86563D1*X11595Y85649*X11900Y85649D2*X11290Y85649D1*X12225Y85801D2*X12225Y86411D1*X12377Y86563*X12682Y86563*X12837Y86411*X12837Y85801D2*X12682Y85649D1*X12377Y85649*X12225Y85801*X12837Y86411*X12837Y85801*X13162Y85801D2*X13162Y86411D1*X13315Y86563*X13619Y86563*X13772Y86411*X13772Y85801D2*X13772Y86411D1*X13162Y85801*X13315Y85649*X13619Y85649*X13772Y85801*X14097Y85649D2*X14097Y86258D1*X14554Y86258*X14707Y86106*X14707Y85649*X16142Y16439D2*X15946Y16243D1*X14973Y17412D2*X14973Y18191D1*X15946Y17412D2*X16142Y17607D1*X16142Y17998*X15946Y18191*X15558Y18191*X15362Y17998*X15362Y17803*X15558Y17412*X14973Y17412*X14973Y16632D2*X14973Y17023D1*X14973Y16828D2*X15946Y16828D1*X16142Y16632*X16142Y16439*X97724Y15169D2*X97920Y14973D1*X98115Y14973*X98308Y15169*X98895Y16142D2*X99675Y16142D1*X98115Y16142D2*X98504Y16142D1*X98308Y15169D2*X98308Y16142D1*X98895Y14973D2*X98895Y15169D1*X99675Y15949*X99675Y16142*X117335Y32283D2*X117640Y32588D1*X117640Y31674*X117945Y31674D2*X117335Y31674D1*X118270Y31826D2*X118270Y32436D1*X118422Y32588*X118727Y32588*X118882Y32436*X118882Y31826D2*X118882Y32436D1*X118270Y31826*X118422Y31674*X118727Y31674*X118882Y31826*X119207Y31826D2*X119207Y32436D1*X119360Y32588*X119664Y32588*X119817Y32436*X119817Y31826D2*X119817Y32436D1*X119207Y31826*X119360Y31674*X119664Y31674*X119817Y31826*X120142Y31674D2*X120142Y32283D1*X120599Y32283*X120752Y32131*X120752Y31674*X162639Y10528D2*X161859Y10528D1*X162639Y11308*X160691Y10724D2*X160886Y10528D1*X161079Y10528*X161275Y10724*X161275Y11697*X161470Y11697D2*X161079Y11697D1*X161859Y11504D2*X162055Y11697D1*X162443Y11697*X162639Y11504*X162639Y11308*X163030Y11308D2*X163419Y11697D1*X163419Y10528*X163810Y10528D2*X163030Y10528D1*X216370Y14973D2*X217150Y14973D1*X216370Y15949D2*X216563Y16142D1*X216954Y16142*X217150Y15949*X217150Y15753*X216370Y14973*X215979Y14973D2*X215199Y14973D1*X215979Y15753*X215979Y15949*X215783Y16142*X215395Y16142*X215199Y15949*X214419Y16142D2*X214810Y16142D1*X214615Y16142D2*X214615Y15169D1*X214419Y14973*X214226Y14973*X214031Y15169*X195407Y19736D2*X195407Y19126D1*X196342Y18974D2*X196342Y19583D1*X196952Y18974D2*X196952Y19431D1*X196799Y19583*X196342Y19583*X196017Y19736D2*X196017Y19126D1*X195864Y18974*X195560Y18974*X195407Y19126*X196017Y19736*X195864Y19888*X195560Y19888*X195407Y19736*X195082Y19736D2*X194927Y19888D1*X194622Y19888*X194470Y19736*X194470Y19126*X194622Y18974*X194927Y18974*X195082Y19126*X195082Y19736*X194470Y19126*X193535Y18974D2*X194145Y18974D1*X193840Y18974D2*X193840Y19888D1*X193535Y19583*X169372Y33706D2*X169372Y33096D1*X170307Y32944D2*X170307Y33553D1*X170917Y32944D2*X170917Y33401D1*X170764Y33553*X170307Y33553*X169982Y33706D2*X169982Y33096D1*X169829Y32944*X169525Y32944*X169372Y33096*X169982Y33706*X169829Y33858*X169525Y33858*X169372Y33706*X169047Y33706D2*X168892Y33858D1*X168587Y33858*X168435Y33706*X168435Y33096*X168587Y32944*X168892Y32944*X169047Y33096*X169047Y33706*X168435Y33096*X167500Y32944D2*X168110Y32944D1*X167805Y32944D2*X167805Y33858D1*X167500Y33553*X138257Y57201D2*X138257Y56591D1*X139192Y56439D2*X139192Y57048D1*X139802Y56439D2*X139802Y56896D1*X139649Y57048*X139192Y57048*X138867Y57201D2*X138867Y56591D1*X138714Y56439*X138410Y56439*X138257Y56591*X138867Y57201*X138714Y57353*X138410Y57353*X138257Y57201*X137932Y57201D2*X137777Y57353D1*X137472Y57353*X137320Y57201*X137320Y56591*X137932Y57201*X137932Y56591*X137777Y56439*X137472Y56439*X137320Y56591*X136385Y56439D2*X136995Y56439D1*X136690Y56439D2*X136690Y57353D1*X136385Y57048*X117000Y56591D2*X117000Y57201D1*X117937Y57201D2*X117937Y56591D1*X118872Y56439D2*X118872Y57048D1*X119482Y56439D2*X119482Y56896D1*X119329Y57048*X118872Y57048*X118547Y57201D2*X118547Y56591D1*X118394Y56439*X118090Y56439*X117937Y56591*X118547Y57201*X118394Y57353*X118090Y57353*X117937Y57201*X117612Y57201D2*X117612Y56591D1*X117457Y56439*X117152Y56439*X117000Y56591*X117612Y57201*X117457Y57353*X117152Y57353*X117000Y57201*X116065Y57048D2*X116370Y57353D1*X116370Y56439*X116065Y56439D2*X116675Y56439D1*X72550Y54686D2*X72550Y55296D1*X73487Y55296D2*X73487Y54686D1*X74422Y54534D2*X74422Y55143D1*X75032Y54534D2*X75032Y54991D1*X74879Y55143*X74422Y55143*X74097Y55296D2*X74097Y54686D1*X73944Y54534*X73640Y54534*X73487Y54686*X74097Y55296*X73944Y55448*X73640Y55448*X73487Y55296*X73162Y55296D2*X73162Y54686D1*X73007Y54534*X72702Y54534*X72550Y54686*X73162Y55296*X73007Y55448*X72702Y55448*X72550Y55296*X71615Y55143D2*X71920Y55448D1*X71920Y54534*X71615Y54534D2*X72225Y54534D1*X65240Y53414D2*X65240Y52634D1*X66020Y53414D2*X66020Y52634D1*X65824Y52438*X65433Y52438*X65240Y52634*X66020Y53414*X65824Y53607*X65433Y53607*X65240Y53414*X62700Y53218D2*X63089Y53607D1*X63089Y52438*X62700Y52438D2*X63480Y52438D1*X60940Y52438D2*X60160Y52438D1*X60940Y53218*X60940Y53414*X60744Y53607*X60353Y53607*X60160Y53414*X57620Y53414D2*X57813Y53607D1*X58204Y53607*X58400Y53414*X58400Y53218*X58204Y53022*X58009Y53022D2*X58204Y53022D1*X58400Y52827*X58400Y52634*X58204Y52438*X57813Y52438*X57620Y52634*X55080Y53022D2*X55664Y53607D1*X55664Y52438*X55080Y53022D2*X55860Y53022D1*X52540Y53607D2*X53320Y53607D1*X52540Y52634D2*X52733Y52438D1*X53124Y52438*X53320Y52634*X53320Y53022*X53124Y53218*X52929Y53218*X52540Y53022*X52540Y53607*X50780Y53607D2*X50389Y53414D1*X50000Y53022*X50000Y52634D2*X50000Y53022D1*X50584Y53022*X50780Y52827*X50780Y52634*X50584Y52438*X50193Y52438*X50000Y52634*X39738Y51803D2*X40322Y51803D1*X40518Y51999*X40518Y52192*X40322Y52388*X40518Y52583D2*X40518Y52779D1*X40322Y52972*X39738Y52972*X39738Y51803*X39738Y52388D2*X40322Y52388D1*X40518Y52583*X40907Y51803D2*X40907Y52583D1*X40907Y52192D2*X41298Y52583D1*X41493Y52583*X42662Y52583D2*X42078Y52583D1*X41882Y52388*X41882Y51999*X42078Y51803*X42662Y51803*X42662Y52972*X44221Y51803D2*X44221Y52972D1*X45001Y51803*X45001Y52972*X46170Y51999D2*X45974Y51803D1*X45585Y51803*X45390Y51999*X45390Y52388*X45585Y52583*X45974Y52583*X46170Y52388*X46170Y51999*X46754Y51999D2*X46754Y51803D1*X46561Y51803*X46561Y51999*X46754Y51999*X47460Y52438D2*X47460Y52634D1*X48240Y53414*X48240Y53607*X47460Y53607*X45987Y61034D2*X46182Y61227D1*X46573Y61227*X46766Y61034*X46766Y60838*X46573Y60642*X46182Y60642D2*X45987Y60447D1*X45987Y60254*X46182Y60058*X46573Y60058*X46766Y60254*X46766Y60447*X46573Y60642*X46182Y60642*X45987Y60838*X45987Y61034*X45207Y61227D2*X45598Y61227D1*X45402Y61227D2*X45402Y60254D1*X45207Y60058*X45014Y60058*X44818Y60254*X40467Y57836D2*X40467Y57226D1*X41402Y57074D2*X41402Y57683D1*X42012Y57074D2*X42012Y57531D1*X41859Y57683*X41402Y57683*X41077Y57836D2*X41077Y57226D1*X40924Y57074*X40620Y57074*X40467Y57226*X41077Y57836*X40924Y57988*X40620Y57988*X40467Y57836*X40142Y57836D2*X39987Y57988D1*X39682Y57988*X39530Y57836*X39530Y57226*X39682Y57074*X39987Y57074*X40142Y57226*X40142Y57836*X39530Y57226*X38595Y57074D2*X39205Y57074D1*X38900Y57074D2*X38900Y57988D1*X38595Y57683*D128*X54292Y51118D2*X51752Y51118D1*X59372Y51118D2*X56832Y51118D1*X61912Y51118D2*X64452Y51118D1*X66992Y51118D2*X64452Y51118D1*X64452Y54292*X61912Y54292D2*X61912Y51118D1*X59372Y51118*X59372Y54292*X56832Y54292D2*X56832Y51118D1*X54292Y51118*X54292Y54292*X51752Y54292D2*X51752Y51118D1*X49212Y51118*X46672Y54292D2*X46672Y51118D1*X49212Y54292D2*X49212Y51118D1*X46672Y51118*X39052Y51118*X39052Y54292*X46672Y54292*X66992Y54292*X66992Y51118*D129*X162700Y8710D2*X163022Y9030D1*X163022Y9675*X162700Y9997*X161734Y9997*X161734Y8064*X162700Y8710D2*X161734Y8710D1*X163022Y8064D2*X162380Y8710D1*X163746Y8387D2*X163746Y9675D1*X164069Y9997*X164711Y9997*X165034Y9675*X165034Y8387*X164711Y8064*X164069Y8064*X163746Y8387*X165034Y9675*X178262Y16660D2*X177940Y16982D1*X176974Y16982*X176974Y15050*X177620Y15695D2*X178262Y15050D1*X176974Y15695D2*X177940Y15695D1*X178262Y16015*X178262Y16660*X178986Y16337D2*X179629Y16982D1*X178986Y15050D2*X180274Y15050D1*X179629Y16982D2*X179629Y15050D1*X238684Y89040D2*X239006Y89040D1*X238041Y88397D2*X238364Y88074D1*X239006Y88074*X239329Y88397*X239329Y88720*X239006Y89040*X239329Y89362*X239329Y89685*X239006Y90007*X238364Y90007*X238041Y89685*X237317Y90007D2*X237317Y88074D1*X236675Y88720*X236030Y88074*X236030Y90007*X176340Y88074D2*X176340Y90007D1*X179639Y88074D2*X178351Y88074D1*X179639Y89362*X179639Y89685*X179316Y90007*X178674Y90007*X178351Y89685*X177627Y90007D2*X177627Y88074D1*X176985Y88720*X176340Y88074*X119296Y88074D2*X120584Y88074D1*X119939Y88074D2*X119939Y90007D1*X119296Y89362*X118572Y90007D2*X118572Y88074D1*X117930Y88720*X117284Y88074*X117284Y90007*X56324Y88074D2*X56324Y90007D1*X58336Y89685D2*X58336Y88397D1*X59624Y89685D2*X59624Y88397D1*X59301Y88074*X58659Y88074*X58336Y88397*X59624Y89685*X59301Y90007*X58659Y90007*X58336Y89685*X57612Y90007D2*X57612Y88074D1*X56970Y88720*X56324Y88074*D130*X90505Y14305D2*X90470Y14305D1*X90345Y14430D2*X90630Y14430D1*X90752Y14552D2*X90223Y14552D1*X90099Y14676D2*X90876Y14676D1*X90998Y14798D2*X89977Y14798D1*X89852Y14922D2*X91122Y14922D1*X91244Y15044D2*X89731Y15044D1*X89606Y15169D2*X91369Y15169D1*X91491Y15291D2*X89484Y15291D1*X89360Y15415D2*X91615Y15415D1*X91737Y15537D2*X89238Y15537D1*X91758Y15558D2*X90488Y14288D1*X89218Y15558*X91758Y15558*X149560Y14305D2*X149525Y14305D1*X149400Y14430D2*X149685Y14430D1*X149807Y14552D2*X149278Y14552D1*X149154Y14676D2*X149931Y14676D1*X150053Y14798D2*X149032Y14798D1*X148908Y14922D2*X150178Y14922D1*X150299Y15044D2*X148786Y15044D1*X148661Y15169D2*X150424Y15169D1*X150546Y15291D2*X148539Y15291D1*X148415Y15415D2*X150670Y15415D1*X150792Y15537D2*X148293Y15537D1*X150812Y15558D2*X149542Y14288D1*X148272Y15558*X150812Y15558*X240373Y91758D2*X240378Y91580D1*X240393Y91402*X240419Y91224*X240454Y91051*X240497Y90879*X240553Y90708*X240617Y90541*X240690Y90378*X240772Y90221*X240863Y90068*X240965Y89921*X241071Y89779*X241188Y89644*X241310Y89515*X241442Y89393*X241579Y89278*X241722Y89174*X241872Y89075*X242026Y88986*X242184Y88905*X242349Y88834*X242514Y88773*X242687Y88722*X242860Y88679*X243035Y88646*X243210Y88623*X243388Y88610*X243568Y88608*X243746Y88616*X243924Y88633*X244099Y88661*X244272Y88699*X244445Y88745*X244615Y88803*X244780Y88870*X244940Y88946*X245097Y89030*X245250Y89124*X245394Y89225*X245537Y89334*X245669Y89454*X245796Y89578*X245915Y89710*X246027Y89850*X246131Y89995*X246228Y90145*X246314Y90300*X246393Y90460*X246461Y90625*X246520Y90792*X246570Y90965*X246611Y91138*X246642Y91313*X246662Y91491*X246672Y91669*X246672Y91846*X246662Y92024*X246642Y92202*X246611Y92377*X246570Y92550*X246520Y92723*X246461Y92890*X246393Y93055*X246314Y93215*X246228Y93370*X246131Y93520*X246027Y93665*X245915Y93805*X245796Y93937*X245669Y94061*X245537Y94181*X245394Y94290*X245250Y94391*X245097Y94485*X244940Y94569*X244780Y94645*X244615Y94712*X244445Y94770*X244272Y94816*X244099Y94854*X243924Y94882*X243746Y94899*X243568Y94907*X243388Y94905*X243210Y94892*X243035Y94869*X242860Y94836*X242687Y94793*X242514Y94742*X242349Y94681*X242184Y94610*X242026Y94529*X241872Y94440*X241722Y94341*X241579Y94237*X241442Y94122*X241310Y94000*X241188Y93871*X241071Y93736*X240965Y93594*X240863Y93447*X240772Y93294*X240690Y93137*X240617Y92974*X240553Y92807*X240497Y92636*X240454Y92464*X240419Y92291*X240393Y92113*X240378Y91935*X240373Y91758*X244158Y93662D2*X245428Y93662D1*X244792Y94298D2*X244792Y93028D1*X239712Y98108D2*X239712Y90488D1*X195262Y90488*X146418Y90437D2*X146317Y90437D1*X146195Y90315D2*X146540Y90315D1*X146665Y90190D2*X146070Y90190D1*X145948Y90068D2*X146787Y90068D1*X146911Y89944D2*X145824Y89944D1*X145702Y89822D2*X147033Y89822D1*X147157Y89698D2*X145578Y89698D1*X145456Y89576D2*X147279Y89576D1*X147404Y89451D2*X145331Y89451D1*X145209Y89329D2*X147526Y89329D1*X145098Y89218D2*X146368Y90488D1*X147638Y89218*X145098Y89218*X86728Y90437D2*X86627Y90437D1*X86505Y90315D2*X86850Y90315D1*X86975Y90190D2*X86380Y90190D1*X86258Y90068D2*X87097Y90068D1*X87221Y89944D2*X86134Y89944D1*X86012Y89822D2*X87343Y89822D1*X87467Y89698D2*X85888Y89698D1*X85766Y89576D2*X87589Y89576D1*X87714Y89451D2*X85641Y89451D1*X85519Y89329D2*X87836Y89329D1*X85408Y89218D2*X86678Y90488D1*X87948Y89218*X85408Y89218*X49212Y54292D2*X66992Y54292D1*X66992Y59372*X46672Y59372*X46672Y56832*X46672Y54292*X49212Y54292*X49212Y56832*X46672Y56832*X45428Y56807D2*X45402Y56807D1*X45402Y56683D2*X45552Y56683D1*X45674Y56561D2*X45402Y56561D1*X45402Y56436D2*X45799Y56436D1*X45921Y56314D2*X45402Y56314D1*X45402Y56190D2*X46045Y56190D1*X46167Y56068D2*X45402Y56068D1*X45402Y55944D2*X46292Y55944D1*X46413Y55822D2*X45402Y55822D1*X45402Y55697D2*X46538Y55697D1*X46660Y55575D2*X45402Y55575D1*X45402Y55451D2*X46561Y55451D1*X46439Y55329D2*X45402Y55329D1*X45402Y55204D2*X46314Y55204D1*X46192Y55082D2*X45402Y55082D1*X45402Y54958D2*X46068Y54958D1*X45946Y54836D2*X45402Y54836D1*X45402Y54712D2*X45822Y54712D1*X45700Y54590D2*X45402Y54590D1*X45402Y54465D2*X45575Y54465D1*X45402Y54343D2*X45453Y54343D1*X45402Y54292D2*X45402Y56832D1*X46672Y55562*X45402Y54292*X15479Y25639D2*X15558Y25639D1*X15558Y25517D2*X15357Y25517D1*X15232Y25392D2*X15558Y25392D1*X15558Y25270D2*X15110Y25270D1*X14986Y25146D2*X15558Y25146D1*X15558Y25024D2*X14864Y25024D1*X14740Y24900D2*X15558Y24900D1*X15558Y24778D2*X14618Y24778D1*X14493Y24653D2*X15558Y24653D1*X15558Y24531D2*X14371Y24531D1*X14328Y24407D2*X15558Y24407D1*X15558Y24285D2*X14450Y24285D1*X14575Y24160D2*X15558Y24160D1*X15558Y24039D2*X14696Y24039D1*X14821Y23914D2*X15558Y23914D1*X15558Y23792D2*X14943Y23792D1*X15067Y23668D2*X15558Y23668D1*X15558Y23546D2*X15189Y23546D1*X15314Y23421D2*X15558Y23421D1*X15558Y23299D2*X15436Y23299D1*X15558Y23178D2*X14288Y24448D1*X15558Y25718*X15558Y23178*X6668Y13652D2*X14288Y13652D1*X14288Y70802*X6668Y70802*X27038Y90437D2*X26937Y90437D1*X26815Y90315D2*X27160Y90315D1*X27285Y90190D2*X26690Y90190D1*X26568Y90068D2*X27407Y90068D1*X27531Y89944D2*X26444Y89944D1*X26322Y89822D2*X27653Y89822D1*X27777Y89698D2*X26198Y89698D1*X26076Y89576D2*X27899Y89576D1*X28024Y89451D2*X25951Y89451D1*X25829Y89329D2*X28146Y89329D1*X25718Y89218D2*X28258Y89218D1*X26988Y90488*X25718Y89218*X16192Y98108D2*X16192Y90488D1*X60642Y90488*X60642Y98108*X75882Y98108D2*X75882Y90488D1*X120332Y90488*X120332Y98108*X135572Y98108D2*X135572Y90488D1*X180022Y90488*X180022Y98108*X195262Y90488D2*X195262Y98108D1*X206007Y90437D2*X206108Y90437D1*X206230Y90315D2*X205885Y90315D1*X205760Y90190D2*X206355Y90190D1*X206477Y90068D2*X205638Y90068D1*X205514Y89944D2*X206601Y89944D1*X206723Y89822D2*X205392Y89822D1*X205268Y89698D2*X206847Y89698D1*X206969Y89576D2*X205146Y89576D1*X205021Y89451D2*X207094Y89451D1*X207216Y89329D2*X204899Y89329D1*X207328Y89218D2*X206058Y90488D1*X204788Y89218*X207328Y89218*X244158Y60749D2*X244264Y60749D1*X244386Y60871D2*X244158Y60871D1*X244158Y60996D2*X244511Y60996D1*X244632Y61117D2*X244158Y61117D1*X244158Y61242D2*X244757Y61242D1*X244879Y61364D2*X244158Y61364D1*X244158Y61488D2*X245003Y61488D1*X245125Y61610D2*X244158Y61610D1*X244158Y61735D2*X245250Y61735D1*X245372Y61857D2*X244158Y61857D1*X244158Y61981D2*X245359Y61981D1*X245237Y62103D2*X244158Y62103D1*X244158Y62227D2*X245113Y62227D1*X244991Y62349D2*X244158Y62349D1*X244158Y62474D2*X244866Y62474D1*X244744Y62596D2*X244158Y62596D1*X244158Y62720D2*X244620Y62720D1*X244498Y62842D2*X244158Y62842D1*X244158Y62967D2*X244373Y62967D1*X244158Y63089D2*X244251Y63089D1*X244158Y63182D2*X245428Y61912D1*X244158Y60642*X244158Y63182*X253048Y72708D2*X245428Y72708D1*X245428Y15558*X253048Y15558*X207980Y14305D2*X207945Y14305D1*X207820Y14430D2*X208105Y14430D1*X208227Y14552D2*X207698Y14552D1*X207574Y14676D2*X208351Y14676D1*X208473Y14798D2*X207452Y14798D1*X207328Y14922D2*X208598Y14922D1*X208719Y15044D2*X207206Y15044D1*X207081Y15169D2*X208844Y15169D1*X208966Y15291D2*X206959Y15291D1*X206835Y15415D2*X209090Y15415D1*X209212Y15537D2*X206713Y15537D1*X209232Y15558D2*X206692Y15558D1*X207962Y14288*X209232Y15558*X218758Y6668D2*X218758Y14288D1*X174308Y14288*X174308Y6668*X160338Y6668D2*X160338Y14288D1*X115888Y14288*X115888Y6668*X101282Y6668D2*X101282Y14288D1*X18732Y14288*X18732Y6668*D131*X16700Y64783D2*X16754Y64788D1*X16805Y64800*X16853Y64823*X16896Y64854*X16934Y64892*X16965Y64935*X16988Y64983*X17000Y65034*X17005Y65088*X17000Y65141*X16988Y65192*X16965Y65240*X16934Y65283*X16896Y65321*X16853Y65352*X16805Y65375*X16754Y65387*X16700Y65392*X10986Y78753D2*X11039Y78758D1*X11090Y78770*X11138Y78793*X11181Y78824*X11219Y78862*X11250Y78905*X11273Y78953*X11285Y79004*X11290Y79058*X11285Y79111*X11273Y79162*X11250Y79210*X11219Y79253*X11181Y79291*X11138Y79322*X11090Y79345*X11039Y79357*X10986Y79362*X10096Y87186D2*X15938Y87186D1*X15938Y84900D2*X10096Y84900D1*X40196Y79362D2*X40249Y79357D1*X40300Y79345*X40348Y79322*X40391Y79291*X40429Y79253*X40460Y79210*X40483Y79162*X40495Y79111*X40500Y79058*X40495Y79004*X40483Y78953*X40460Y78905*X40429Y78862*X40391Y78824*X40348Y78793*X40300Y78770*X40249Y78758*X40196Y78753*X34379Y75502D2*X34836Y75502D1*X31839Y75502D2*X32296Y75502D1*X29299Y75502D2*X29756Y75502D1*X26759Y75502D2*X27216Y75502D1*X24219Y75502D2*X24676Y75502D1*X21679Y75502D2*X22136Y75502D1*X19139Y75502D2*X19596Y75502D1*X16599Y75502D2*X17056Y75502D1*X14110Y75502D2*X14516Y75502D1*X11925Y75502D2*X10986Y75502D1*X10986Y78753*X10986Y79362*X10986Y82614*X11976Y82614*X14516Y82614D2*X14059Y82614D1*X17056Y82614D2*X16599Y82614D1*X19596Y82614D2*X19139Y82614D1*X22136Y82614D2*X21679Y82614D1*X24676Y82614D2*X24219Y82614D1*X27216Y82614D2*X26759Y82614D1*X29756Y82614D2*X29299Y82614D1*X32296Y82614D2*X31839Y82614D1*X34836Y82614D2*X34379Y82614D1*X36919Y82614D2*X37910Y82614D1*X37910Y75502*X36919Y75502*X76264Y53784D2*X70422Y53784D1*X70422Y56070D2*X76264Y56070D1*X73216Y62878D2*X73269Y62883D1*X73320Y62895*X73368Y62918*X73411Y62949*X73449Y62987*X73480Y63030*X73503Y63078*X73515Y63129*X73520Y63182*X73515Y63236*X73503Y63287*X73480Y63335*X73449Y63378*X73411Y63416*X73368Y63447*X73320Y63470*X73269Y63482*X73216Y63487*X74206Y66738D2*X73216Y66738D1*X76746Y66738D2*X76289Y66738D1*X79286Y66738D2*X78829Y66738D1*X81826Y66738D2*X81369Y66738D1*X84366Y66738D2*X83909Y66738D1*X86906Y66738D2*X86449Y66738D1*X89446Y66738D2*X88989Y66738D1*X91986Y66738D2*X91529Y66738D1*X96076Y63487D2*X96129Y63482D1*X96180Y63470*X96228Y63447*X96271Y63416*X96309Y63378*X96340Y63335*X96363Y63287*X96375Y63236*X96380Y63182*X96375Y63129*X96363Y63078*X96340Y63030*X96309Y62987*X96271Y62949*X96228Y62918*X96180Y62895*X96129Y62883*X96076Y62878*X91529Y59626D2*X91986Y59626D1*X88989Y59626D2*X89446Y59626D1*X86449Y59626D2*X86906Y59626D1*X83909Y59626D2*X84366Y59626D1*X81369Y59626D2*X81826Y59626D1*X78829Y59626D2*X79286Y59626D1*X76340Y59626D2*X76746Y59626D1*X74155Y59626D2*X73216Y59626D1*X73216Y62878*X73216Y63487*X73216Y66738*X70294Y66688D2*X70241Y66693D1*X70190Y66705*X70142Y66728*X70099Y66759*X70061Y66797*X70030Y66840*X70007Y66888*X69995Y66939*X69990Y66992*X69995Y67046*X70007Y67097*X70030Y67145*X70061Y67188*X70099Y67226*X70142Y67257*X70190Y67280*X70241Y67292*X70294Y67297*X66764Y70548D2*X67170Y70548D1*X64224Y70548D2*X64681Y70548D1*X61684Y70548D2*X62141Y70548D1*X59144Y70548D2*X59601Y70548D1*X56604Y70548D2*X57061Y70548D1*X54064Y70548D2*X54521Y70548D1*X51524Y70548D2*X51981Y70548D1*X48984Y70548D2*X49441Y70548D1*X46926Y70104D2*X46926Y66421D1*X45148Y66421D2*X45148Y70104D1*X37402Y56324D2*X43244Y56324D1*X43244Y58610D2*X37402Y58610D1*X40094Y61532D2*X40551Y61532D1*X37554Y61532D2*X38011Y61532D1*X35014Y61532D2*X35471Y61532D1*X32474Y61532D2*X32931Y61532D1*X29934Y61532D2*X30391Y61532D1*X27394Y61532D2*X27851Y61532D1*X24854Y61532D2*X25311Y61532D1*X22314Y61532D2*X22771Y61532D1*X19825Y61532D2*X20231Y61532D1*X17640Y61532D2*X16700Y61532D1*X16700Y64783*X16700Y65392*X16700Y68644*X17691Y68644*X20231Y68644D2*X19774Y68644D1*X22771Y68644D2*X22314Y68644D1*X25311Y68644D2*X24854Y68644D1*X27851Y68644D2*X27394Y68644D1*X30391Y68644D2*X29934Y68644D1*X32931Y68644D2*X32474Y68644D1*X35471Y68644D2*X35014Y68644D1*X38011Y68644D2*X37554Y68644D1*X40551Y68644D2*X40094Y68644D1*X42634Y68644D2*X43624Y68644D1*X43624Y61532*X42634Y61532*X49441Y63436D2*X48984Y63436D1*X51981Y63436D2*X51524Y63436D1*X54521Y63436D2*X54064Y63436D1*X57061Y63436D2*X56604Y63436D1*X59601Y63436D2*X59144Y63436D1*X62141Y63436D2*X61684Y63436D1*X64681Y63436D2*X64224Y63436D1*X67221Y63436D2*X66764Y63436D1*X69304Y63436D2*X70294Y63436D1*X70294Y66688*X70294Y67297*X70294Y70548*X69355Y70548*X70676Y78753D2*X70729Y78758D1*X70780Y78770*X70828Y78793*X70871Y78824*X70909Y78862*X70940Y78905*X70963Y78953*X70975Y79004*X70980Y79058*X70975Y79111*X70963Y79162*X70940Y79210*X70909Y79253*X70871Y79291*X70828Y79322*X70780Y79345*X70729Y79357*X70676Y79362*X63589Y82614D2*X64046Y82614D1*X61049Y82614D2*X61506Y82614D1*X58509Y82614D2*X58966Y82614D1*X55969Y82614D2*X56426Y82614D1*X53429Y82614D2*X53886Y82614D1*X50889Y82614D2*X51346Y82614D1*X48349Y82614D2*X48806Y82614D1*X45809Y82614D2*X46266Y82614D1*X43269Y82614D2*X43726Y82614D1*X41186Y82614D2*X40196Y82614D1*X40196Y79362*X40196Y78753*X40196Y75502*X41135Y75502*X43726Y75502D2*X43320Y75502D1*X46266Y75502D2*X45809Y75502D1*X48806Y75502D2*X48349Y75502D1*X51346Y75502D2*X50889Y75502D1*X53886Y75502D2*X53429Y75502D1*X56426Y75502D2*X55969Y75502D1*X58966Y75502D2*X58509Y75502D1*X61506Y75502D2*X61049Y75502D1*X64046Y75502D2*X63589Y75502D1*X66129Y75502D2*X67120Y75502D1*X67120Y82614*X66129Y82614*X71692Y86550D2*X77534Y86550D1*X77534Y84264D2*X71692Y84264D1*X96609Y82614D2*X97600Y82614D1*X94069Y82614D2*X94526Y82614D1*X91529Y82614D2*X91986Y82614D1*X88989Y82614D2*X89446Y82614D1*X86449Y82614D2*X86906Y82614D1*X83909Y82614D2*X84366Y82614D1*X81369Y82614D2*X81826Y82614D1*X78829Y82614D2*X79286Y82614D1*X76289Y82614D2*X76746Y82614D1*X73749Y82614D2*X74206Y82614D1*X71666Y82614D2*X70676Y82614D1*X70676Y79362*X70676Y78753*X70676Y75502*X71615Y75502*X74206Y75502D2*X73800Y75502D1*X76746Y75502D2*X76289Y75502D1*X79286Y75502D2*X78829Y75502D1*X81826Y75502D2*X81369Y75502D1*X84366Y75502D2*X83909Y75502D1*X86906Y75502D2*X86449Y75502D1*X89446Y75502D2*X88989Y75502D1*X91986Y75502D2*X91529Y75502D1*X94526Y75502D2*X94069Y75502D1*X96609Y75502D2*X97600Y75502D1*X97600Y82614*X99886Y79362D2*X99939Y79357D1*X99990Y79345*X100038Y79322*X100081Y79291*X100119Y79253*X100150Y79210*X100173Y79162*X100185Y79111*X100190Y79058*X100185Y79004*X100173Y78953*X100150Y78905*X100119Y78862*X100081Y78824*X100038Y78793*X99990Y78770*X99939Y78758*X99886Y78753*X130366Y78753D2*X130419Y78758D1*X130470Y78770*X130518Y78793*X130561Y78824*X130599Y78862*X130630Y78905*X130653Y78953*X130665Y79004*X130670Y79058*X130665Y79111*X130653Y79162*X130630Y79210*X130599Y79253*X130561Y79291*X130518Y79322*X130470Y79345*X130419Y79357*X130366Y79362*X123279Y82614D2*X123736Y82614D1*X120739Y82614D2*X121196Y82614D1*X118199Y82614D2*X118656Y82614D1*X115659Y82614D2*X116116Y82614D1*X113119Y82614D2*X113576Y82614D1*X110579Y82614D2*X111036Y82614D1*X108039Y82614D2*X108496Y82614D1*X105499Y82614D2*X105956Y82614D1*X102959Y82614D2*X103416Y82614D1*X100876Y82614D2*X99886Y82614D1*X99886Y79362*X99886Y78753*X99886Y75502*X100825Y75502*X103416Y75502D2*X103010Y75502D1*X105956Y75502D2*X105499Y75502D1*X108496Y75502D2*X108039Y75502D1*X111036Y75502D2*X110579Y75502D1*X113576Y75502D2*X113119Y75502D1*X116116Y75502D2*X115659Y75502D1*X118656Y75502D2*X118199Y75502D1*X121196Y75502D2*X120739Y75502D1*X123736Y75502D2*X123279Y75502D1*X125819Y75502D2*X126810Y75502D1*X126810Y82614*X125819Y82614*X125666Y87186D2*X131508Y87186D1*X131508Y84900D2*X125666Y84900D1*X159576Y79362D2*X159629Y79357D1*X159680Y79345*X159728Y79322*X159771Y79291*X159809Y79253*X159840Y79210*X159863Y79162*X159875Y79111*X159880Y79058*X159875Y79004*X159863Y78953*X159840Y78905*X159809Y78862*X159771Y78824*X159728Y78793*X159680Y78770*X159629Y78758*X159576Y78753*X153759Y75502D2*X154216Y75502D1*X151219Y75502D2*X151676Y75502D1*X148679Y75502D2*X149136Y75502D1*X146139Y75502D2*X146596Y75502D1*X143599Y75502D2*X144056Y75502D1*X141059Y75502D2*X141516Y75502D1*X138519Y75502D2*X138976Y75502D1*X135979Y75502D2*X136436Y75502D1*X133490Y75502D2*X133896Y75502D1*X131305Y75502D2*X130366Y75502D1*X130366Y78753*X130366Y79362*X130366Y82614*X131356Y82614*X133896Y82614D2*X133439Y82614D1*X136436Y82614D2*X135979Y82614D1*X138976Y82614D2*X138519Y82614D1*X141516Y82614D2*X141059Y82614D1*X144056Y82614D2*X143599Y82614D1*X146596Y82614D2*X146139Y82614D1*X149136Y82614D2*X148679Y82614D1*X151676Y82614D2*X151219Y82614D1*X154216Y82614D2*X153759Y82614D1*X156299Y82614D2*X157290Y82614D1*X157290Y75502*X156299Y75502*X167196Y63487D2*X167249Y63482D1*X167300Y63470*X167348Y63447*X167391Y63416*X167429Y63378*X167460Y63335*X167483Y63287*X167495Y63236*X167500Y63182*X167495Y63129*X167483Y63078*X167460Y63030*X167429Y62987*X167391Y62949*X167348Y62918*X167300Y62895*X167249Y62883*X167196Y62878*X137249Y59626D2*X137706Y59626D1*X141034Y55690D2*X135192Y55690D1*X155194Y55944D2*X151511Y55944D1*X162014Y59626D2*X162471Y59626D1*X159474Y59626D2*X159931Y59626D1*X156934Y59626D2*X157391Y59626D1*X154851Y59626D2*X154394Y59626D1*X151511Y57722D2*X155194Y57722D1*X151854Y59626D2*X152311Y59626D1*X149314Y59626D2*X149771Y59626D1*X146774Y59626D2*X147231Y59626D1*X144285Y59626D2*X144691Y59626D1*X141160Y62878D2*X141214Y62883D1*X141265Y62895*X141313Y62918*X141356Y62949*X141394Y62987*X141425Y63030*X141448Y63078*X141460Y63129*X141465Y63182*X141460Y63236*X141448Y63287*X141425Y63335*X141394Y63378*X141356Y63416*X141313Y63447*X141265Y63470*X141214Y63482*X141160Y63487*X137249Y66738D2*X137706Y66738D1*X134709Y66738D2*X135166Y66738D1*X132169Y66738D2*X132626Y66738D1*X129629Y66738D2*X130086Y66738D1*X127089Y66738D2*X127546Y66738D1*X124549Y66738D2*X125006Y66738D1*X122009Y66738D2*X122466Y66738D1*X118936Y66738D2*X119926Y66738D1*X118936Y63487D2*X118989Y63482D1*X119040Y63470*X119088Y63447*X119131Y63416*X119169Y63378*X119200Y63335*X119223Y63287*X119235Y63236*X119240Y63182*X119235Y63129*X119223Y63078*X119200Y63030*X119169Y62987*X119131Y62949*X119088Y62918*X119040Y62895*X118989Y62883*X118936Y62878*X120714Y55690D2*X114872Y55690D1*X119875Y59626D2*X118936Y59626D1*X118936Y62878*X118936Y63487*X118936Y66738*X114389Y66738D2*X114846Y66738D1*X111849Y66738D2*X112306Y66738D1*X109309Y66738D2*X109766Y66738D1*X106769Y66738D2*X107226Y66738D1*X104229Y66738D2*X104686Y66738D1*X101689Y66738D2*X102146Y66738D1*X99149Y66738D2*X99606Y66738D1*X97066Y66738D2*X96076Y66738D1*X96076Y63487*X96076Y62878*X96076Y59626*X97015Y59626*X99606Y59626D2*X99200Y59626D1*X102146Y59626D2*X101689Y59626D1*X104686Y59626D2*X104229Y59626D1*X107226Y59626D2*X106769Y59626D1*X109766Y59626D2*X109309Y59626D1*X112306Y59626D2*X111849Y59626D1*X114846Y59626D2*X114389Y59626D1*X120714Y57976D2*X114872Y57976D1*X122466Y59626D2*X122060Y59626D1*X125006Y59626D2*X124549Y59626D1*X127546Y59626D2*X127089Y59626D1*X130086Y59626D2*X129629Y59626D1*X132626Y59626D2*X132169Y59626D1*X135166Y59626D2*X134709Y59626D1*X141034Y57976D2*X135192Y57976D1*X142100Y59626D2*X141160Y59626D1*X141160Y62878*X141160Y63487*X141160Y66738*X142151Y66738*X144691Y66738D2*X144234Y66738D1*X147231Y66738D2*X146774Y66738D1*X149771Y66738D2*X149314Y66738D1*X152311Y66738D2*X151854Y66738D1*X154851Y66738D2*X154394Y66738D1*X157391Y66738D2*X156934Y66738D1*X159931Y66738D2*X159474Y66738D1*X162471Y66738D2*X162014Y66738D1*X190056Y78753D2*X190109Y78758D1*X190160Y78770*X190208Y78793*X190251Y78824*X190289Y78862*X190320Y78905*X190343Y78953*X190355Y79004*X190360Y79058*X190355Y79111*X190343Y79162*X190320Y79210*X190289Y79253*X190251Y79291*X190208Y79322*X190160Y79345*X190109Y79357*X190056Y79362*X182969Y82614D2*X183426Y82614D1*X180429Y82614D2*X180886Y82614D1*X177889Y82614D2*X178346Y82614D1*X175349Y82614D2*X175806Y82614D1*X172809Y82614D2*X173266Y82614D1*X170269Y82614D2*X170726Y82614D1*X167729Y82614D2*X168186Y82614D1*X165189Y82614D2*X165646Y82614D1*X162649Y82614D2*X163106Y82614D1*X160566Y82614D2*X159576Y82614D1*X159576Y79362*X159576Y78753*X159576Y75502*X160515Y75502*X163106Y75502D2*X162700Y75502D1*X165646Y75502D2*X165189Y75502D1*X168186Y75502D2*X167729Y75502D1*X170726Y75502D2*X170269Y75502D1*X173266Y75502D2*X172809Y75502D1*X175806Y75502D2*X175349Y75502D1*X178346Y75502D2*X177889Y75502D1*X180886Y75502D2*X180429Y75502D1*X183426Y75502D2*X182969Y75502D1*X185509Y75502D2*X186500Y75502D1*X186500Y82614*X185509Y82614*X184722Y84264D2*X190564Y84264D1*X190564Y86550D2*X184722Y86550D1*X243268Y86550D2*X237426Y86550D1*X237426Y84264D2*X243268Y84264D1*X215989Y82614D2*X216980Y82614D1*X213449Y82614D2*X213906Y82614D1*X210909Y82614D2*X211366Y82614D1*X208369Y82614D2*X208826Y82614D1*X205829Y82614D2*X206286Y82614D1*X203289Y82614D2*X203746Y82614D1*X200749Y82614D2*X201206Y82614D1*X198209Y82614D2*X198666Y82614D1*X195669Y82614D2*X196126Y82614D1*X193129Y82614D2*X193586Y82614D1*X191046Y82614D2*X190056Y82614D1*X190056Y79362*X190056Y78753*X190056Y75502*X190995Y75502*X193586Y75502D2*X193180Y75502D1*X196126Y75502D2*X195669Y75502D1*X198666Y75502D2*X198209Y75502D1*X201206Y75502D2*X200749Y75502D1*X203746Y75502D2*X203289Y75502D1*X206286Y75502D2*X205829Y75502D1*X208826Y75502D2*X208369Y75502D1*X211366Y75502D2*X210909Y75502D1*X213906Y75502D2*X213449Y75502D1*X215989Y75502D2*X216980Y75502D1*X216980Y82614*X219266Y79362D2*X219319Y79357D1*X219370Y79345*X219418Y79322*X219461Y79291*X219499Y79253*X219530Y79210*X219553Y79162*X219565Y79111*X219570Y79058*X219565Y79004*X219553Y78953*X219530Y78905*X219499Y78862*X219461Y78824*X219418Y78793*X219370Y78770*X219319Y78758*X219266Y78753*X227876Y75502D2*X227419Y75502D1*X230416Y75502D2*X229959Y75502D1*X232956Y75502D2*X232499Y75502D1*X235496Y75502D2*X235039Y75502D1*X238036Y75502D2*X237579Y75502D1*X240576Y75502D2*X240119Y75502D1*X243116Y75502D2*X242659Y75502D1*X245199Y75502D2*X246190Y75502D1*X246190Y82614*X245199Y82614*X242659Y82614D2*X243116Y82614D1*X240119Y82614D2*X240576Y82614D1*X237579Y82614D2*X238036Y82614D1*X235039Y82614D2*X235496Y82614D1*X232499Y82614D2*X232956Y82614D1*X229959Y82614D2*X230416Y82614D1*X227419Y82614D2*X227876Y82614D1*X224879Y82614D2*X225336Y82614D1*X222339Y82614D2*X222796Y82614D1*X220256Y82614D2*X219266Y82614D1*X219266Y79362*X219266Y78753*X219266Y75502*X220205Y75502*X222796Y75502D2*X222390Y75502D1*X225336Y75502D2*X224879Y75502D1*X231838Y71946D2*X225996Y71946D1*X225996Y69660D2*X231838Y69660D1*X195516Y60516D2*X201358Y60516D1*X190589Y59626D2*X191046Y59626D1*X188049Y59626D2*X188506Y59626D1*X185509Y59626D2*X185966Y59626D1*X182969Y59626D2*X183426Y59626D1*X180429Y59626D2*X180886Y59626D1*X177889Y59626D2*X178346Y59626D1*X175349Y59626D2*X175806Y59626D1*X172809Y59626D2*X173266Y59626D1*X170320Y59626D2*X170726Y59626D1*X168135Y59626D2*X167196Y59626D1*X167196Y62878*X167196Y63487*X167196Y66738*X168186Y66738*X170726Y66738D2*X170269Y66738D1*X173266Y66738D2*X172809Y66738D1*X175806Y66738D2*X175349Y66738D1*X178346Y66738D2*X177889Y66738D1*X180886Y66738D2*X180429Y66738D1*X183426Y66738D2*X182969Y66738D1*X185966Y66738D2*X185509Y66738D1*X188506Y66738D2*X188049Y66738D1*X191046Y66738D2*X190589Y66738D1*X193129Y66738D2*X194120Y66738D1*X194120Y59626*X193129Y59626*X201358Y58230D2*X195516Y58230D1*X202120Y55867D2*X202174Y55862D1*X202225Y55850*X202273Y55827*X202316Y55796*X202354Y55758*X202385Y55715*X202408Y55667*X202420Y55616*X202425Y55562*X202420Y55509*X202408Y55458*X202385Y55410*X202354Y55367*X202316Y55329*X202273Y55298*X202225Y55275*X202174Y55263*X202120Y55258*X210274Y52006D2*X210731Y52006D1*X207734Y52006D2*X208191Y52006D1*X205245Y52006D2*X205651Y52006D1*X203060Y52006D2*X202120Y52006D1*X202120Y55258*X202120Y55867*X202120Y59118*X203111Y59118*X205651Y59118D2*X205194Y59118D1*X208191Y59118D2*X207734Y59118D1*X210731Y59118D2*X210274Y59118D1*X213271Y59118D2*X212814Y59118D1*X215811Y59118D2*X215354Y59118D1*X218351Y59118D2*X217894Y59118D1*X220891Y59118D2*X220434Y59118D1*X223431Y59118D2*X222974Y59118D1*X225971Y59118D2*X225514Y59118D1*X228054Y59118D2*X229044Y59118D1*X229044Y52006*X228054Y52006*X225514Y52006D2*X225971Y52006D1*X222974Y52006D2*X223431Y52006D1*X220434Y52006D2*X220891Y52006D1*X217894Y52006D2*X218351Y52006D1*X215354Y52006D2*X215811Y52006D1*X212814Y52006D2*X213271Y52006D1*X212534Y39357D2*X212481Y39352D1*X212430Y39340*X212382Y39317*X212339Y39286*X212301Y39248*X212270Y39205*X212247Y39157*X212235Y39106*X212230Y39052*X212235Y38999*X212247Y38948*X212270Y38900*X212301Y38857*X212339Y38819*X212382Y38788*X212430Y38765*X212481Y38753*X212534Y38748*X234252Y27851D2*X234252Y27394D1*X234252Y30391D2*X234252Y29934D1*X234252Y32880D2*X234252Y32474D1*X234252Y39560D2*X240094Y39560D1*X240094Y37274D2*X234252Y37274D1*X238112Y36004D2*X238107Y35951D1*X238095Y35900*X238072Y35852*X238041Y35809*X238003Y35771*X237960Y35740*X237912Y35717*X237861Y35705*X237808Y35700*X237754Y35705*X237703Y35717*X237655Y35740*X237612Y35771*X237574Y35809*X237543Y35852*X237520Y35900*X237508Y35951*X237503Y36004*X234252Y35065D2*X234252Y36004D1*X237503Y36004*X238112Y36004*X241364Y36004*X241364Y35014*X241364Y32474D2*X241364Y32931D1*X241364Y29934D2*X241364Y30391D1*X241364Y27394D2*X241364Y27851D1*X241364Y24854D2*X241364Y25311D1*X241364Y22314D2*X241364Y22771D1*X241364Y19774D2*X241364Y20231D1*X241364Y17234D2*X241364Y17691D1*X241364Y14694D2*X241364Y15151D1*X241364Y12154D2*X241364Y12611D1*X241364Y10071D2*X241364Y9080D1*X234252Y9080*X234252Y10071*X234252Y12611D2*X234252Y12154D1*X234252Y15151D2*X234252Y14694D1*X234252Y17691D2*X234252Y17234D1*X234252Y20231D2*X234252Y19774D1*X234252Y22771D2*X234252Y22314D1*X234252Y25311D2*X234252Y24854D1*X224600Y26022D2*X224546Y26017D1*X224495Y26005*X224447Y25982*X224404Y25951*X224366Y25913*X224335Y25870*X224312Y25822*X224300Y25771*X224295Y25718*X224300Y25664*X224312Y25613*X224335Y25565*X224366Y25522*X224404Y25484*X224447Y25453*X224495Y25430*X224546Y25418*X224600Y25413*X192342Y18224D2*X198184Y18224D1*X198184Y20510D2*X192342Y20510D1*X195390Y25413D2*X195336Y25418D1*X195285Y25430*X195237Y25453*X195194Y25484*X195156Y25522*X195125Y25565*X195102Y25613*X195090Y25664*X195085Y25718*X195090Y25771*X195102Y25822*X195125Y25870*X195156Y25913*X195194Y25951*X195237Y25982*X195285Y26005*X195336Y26017*X195390Y26022*X201206Y29274D2*X200749Y29274D1*X203746Y29274D2*X203289Y29274D1*X206286Y29274D2*X205829Y29274D1*X208826Y29274D2*X208369Y29274D1*X211366Y29274D2*X210909Y29274D1*X213906Y29274D2*X213449Y29274D1*X216446Y29274D2*X215989Y29274D1*X218986Y29274D2*X218529Y29274D1*X221475Y29274D2*X221069Y29274D1*X223660Y29274D2*X224600Y29274D1*X224600Y26022*X224600Y25413*X224600Y22162*X223609Y22162*X221069Y22162D2*X221526Y22162D1*X218529Y22162D2*X218986Y22162D1*X215989Y22162D2*X216446Y22162D1*X213449Y22162D2*X213906Y22162D1*X210909Y22162D2*X211366Y22162D1*X208369Y22162D2*X208826Y22162D1*X205829Y22162D2*X206286Y22162D1*X203289Y22162D2*X203746Y22162D1*X200749Y22162D2*X201206Y22162D1*X198666Y22162D2*X197676Y22162D1*X197676Y29274*X198666Y29274*X189141Y35496D2*X188684Y35496D1*X191681Y35496D2*X191224Y35496D1*X194221Y35496D2*X193764Y35496D1*X196761Y35496D2*X196304Y35496D1*X199301Y35496D2*X198844Y35496D1*X201841Y35496D2*X201384Y35496D1*X204381Y35496D2*X203924Y35496D1*X206921Y35496D2*X206464Y35496D1*X209461Y35496D2*X209004Y35496D1*X211544Y35496D2*X212534Y35496D1*X212534Y38748*X212534Y39357*X212534Y42608*X211595Y42608*X209004Y42608D2*X209410Y42608D1*X206464Y42608D2*X206921Y42608D1*X203924Y42608D2*X204381Y42608D1*X201384Y42608D2*X201841Y42608D1*X198844Y42608D2*X199301Y42608D1*X196304Y42608D2*X196761Y42608D1*X193764Y42608D2*X194221Y42608D1*X191224Y42608D2*X191681Y42608D1*X188684Y42608D2*X189141Y42608D1*X186601Y42608D2*X185610Y42608D1*X185610Y35496*X186601Y35496*X172148Y34480D2*X166306Y34480D1*X166306Y32194D2*X172148Y32194D1*X169456Y29274D2*X168466Y29274D1*X171996Y29274D2*X171539Y29274D1*X174536Y29274D2*X174079Y29274D1*X177076Y29274D2*X176619Y29274D1*X179616Y29274D2*X179159Y29274D1*X182156Y29274D2*X181699Y29274D1*X184696Y29274D2*X184239Y29274D1*X187236Y29274D2*X186779Y29274D1*X189776Y29274D2*X189319Y29274D1*X192265Y29274D2*X191859Y29274D1*X194450Y29274D2*X195390Y29274D1*X195390Y26022*X195390Y25413*X195390Y22162*X194399Y22162*X191859Y22162D2*X192316Y22162D1*X189319Y22162D2*X189776Y22162D1*X186779Y22162D2*X187236Y22162D1*X184239Y22162D2*X184696Y22162D1*X181699Y22162D2*X182156Y22162D1*X179159Y22162D2*X179616Y22162D1*X176619Y22162D2*X177076Y22162D1*X174079Y22162D2*X174536Y22162D1*X171539Y22162D2*X171996Y22162D1*X169456Y22162D2*X168466Y22162D1*X168466Y29274*X164274Y26022D2*X164221Y26017D1*X164170Y26005*X164122Y25982*X164079Y25951*X164041Y25913*X164010Y25870*X163987Y25822*X163975Y25771*X163970Y25718*X163975Y25664*X163987Y25613*X164010Y25565*X164041Y25522*X164079Y25484*X164122Y25453*X164170Y25430*X164221Y25418*X164274Y25413*X140881Y22162D2*X140424Y22162D1*X143421Y22162D2*X142964Y22162D1*X145961Y22162D2*X145504Y22162D1*X148501Y22162D2*X148044Y22162D1*X151041Y22162D2*X150584Y22162D1*X153581Y22162D2*X153124Y22162D1*X156121Y22162D2*X155664Y22162D1*X158661Y22162D2*X158204Y22162D1*X161201Y22162D2*X160744Y22162D1*X163284Y22162D2*X164274Y22162D1*X164274Y25413*X164274Y26022*X164274Y29274*X163335Y29274*X160744Y29274D2*X161150Y29274D1*X158204Y29274D2*X158661Y29274D1*X155664Y29274D2*X156121Y29274D1*X153124Y29274D2*X153581Y29274D1*X150584Y29274D2*X151041Y29274D1*X148044Y29274D2*X148501Y29274D1*X145504Y29274D2*X145961Y29274D1*X142964Y29274D2*X143421Y29274D1*X140424Y29274D2*X140881Y29274D1*X138341Y29274D2*X137350Y29274D1*X137350Y22162*X138341Y22162*X135064Y25413D2*X135011Y25418D1*X134960Y25430*X134912Y25453*X134869Y25484*X134831Y25522*X134800Y25565*X134777Y25613*X134765Y25664*X134760Y25718*X134765Y25771*X134777Y25822*X134800Y25870*X134831Y25913*X134869Y25951*X134912Y25982*X134960Y26005*X135011Y26017*X135064Y26022*X121984Y33210D2*X116142Y33210D1*X116142Y30924D2*X121984Y30924D1*X111671Y22162D2*X111214Y22162D1*X114211Y22162D2*X113754Y22162D1*X116751Y22162D2*X116294Y22162D1*X119291Y22162D2*X118834Y22162D1*X121831Y22162D2*X121374Y22162D1*X124371Y22162D2*X123914Y22162D1*X126911Y22162D2*X126454Y22162D1*X129451Y22162D2*X128994Y22162D1*X131991Y22162D2*X131534Y22162D1*X134074Y22162D2*X135064Y22162D1*X135064Y25413*X135064Y26022*X135064Y29274*X134125Y29274*X131534Y29274D2*X131940Y29274D1*X128994Y29274D2*X129451Y29274D1*X126454Y29274D2*X126911Y29274D1*X123914Y29274D2*X124371Y29274D1*X121374Y29274D2*X121831Y29274D1*X118834Y29274D2*X119291Y29274D1*X116294Y29274D2*X116751Y29274D1*X113754Y29274D2*X114211Y29274D1*X111214Y29274D2*X111671Y29274D1*X109131Y29274D2*X108140Y29274D1*X108140Y22162*X109131Y22162*X0Y0D2*M02*