G75*
G70*
%OFA0B0*%
%FSLAX24Y24*%
%IPPOS*%
%LPD*%
%AMOC8*
5,1,8,0,0,1.08239X$1,22.5*
%
%ADD10R,0.0650X0.0650*%
%ADD11C,0.0650*%
%ADD12R,0.0515X0.0515*%
%ADD13C,0.0515*%
%ADD14R,0.1500X0.1500*%
%ADD15R,0.0709X0.0709*%
%ADD16C,0.0160*%
%ADD17C,0.0400*%
D10*
X005125Y009625D03*
X035625Y005125D03*
X058875Y005125D03*
X081875Y005125D03*
X097125Y024375D03*
X081125Y036125D03*
X057625Y036125D03*
X034125Y036125D03*
X010625Y036125D03*
X018875Y021875D03*
D11*
X011625Y004125D03*
X012625Y004125D03*
X013625Y004125D03*
X014625Y004125D03*
X015625Y004125D03*
X016625Y004125D03*
X017625Y004125D03*
X018625Y004125D03*
X019625Y004125D03*
X020625Y004125D03*
X021625Y004125D03*
X022625Y004125D03*
X023625Y004125D03*
X024625Y004125D03*
X025625Y004125D03*
X026625Y004125D03*
X027625Y004125D03*
X028625Y004125D03*
X029625Y004125D03*
X030625Y004125D03*
X031625Y004125D03*
X032625Y004125D03*
X033625Y004125D03*
X034625Y004125D03*
X035625Y004125D03*
X034625Y005125D03*
X033625Y005125D03*
X032625Y005125D03*
X031625Y005125D03*
X030625Y005125D03*
X029625Y005125D03*
X028625Y005125D03*
X027625Y005125D03*
X026625Y005125D03*
X025625Y005125D03*
X024625Y005125D03*
X023625Y005125D03*
X022625Y005125D03*
X021625Y005125D03*
X020625Y005125D03*
X019625Y005125D03*
X018625Y005125D03*
X017625Y005125D03*
X016625Y005125D03*
X015625Y005125D03*
X014625Y005125D03*
X013625Y005125D03*
X012625Y005125D03*
X011625Y005125D03*
X004125Y009625D03*
X004125Y010625D03*
X005125Y010625D03*
X005125Y011625D03*
X004125Y011625D03*
X004125Y012625D03*
X005125Y012625D03*
X005125Y013625D03*
X004125Y013625D03*
X004125Y014625D03*
X005125Y014625D03*
X005125Y015625D03*
X004125Y015625D03*
X004125Y016625D03*
X005125Y016625D03*
X005125Y017625D03*
X004125Y017625D03*
X004125Y018625D03*
X005125Y018625D03*
X005125Y019625D03*
X004125Y019625D03*
X004125Y020625D03*
X005125Y020625D03*
X005125Y021625D03*
X004125Y021625D03*
X004125Y022625D03*
X005125Y022625D03*
X005125Y023625D03*
X004125Y023625D03*
X018875Y022875D03*
X019875Y022875D03*
X020875Y022875D03*
X021875Y022875D03*
X022875Y022875D03*
X023875Y022875D03*
X024875Y022875D03*
X025875Y022875D03*
X025875Y021875D03*
X024875Y021875D03*
X023875Y021875D03*
X022875Y021875D03*
X021875Y021875D03*
X020875Y021875D03*
X019875Y021875D03*
X019625Y036125D03*
X018625Y036125D03*
X017625Y036125D03*
X016625Y036125D03*
X015625Y036125D03*
X014625Y036125D03*
X013625Y036125D03*
X012625Y036125D03*
X011625Y036125D03*
X011625Y037125D03*
X010625Y037125D03*
X012625Y037125D03*
X013625Y037125D03*
X014625Y037125D03*
X015625Y037125D03*
X016625Y037125D03*
X017625Y037125D03*
X018625Y037125D03*
X019625Y037125D03*
X034125Y037125D03*
X035125Y037125D03*
X036125Y037125D03*
X037125Y037125D03*
X038125Y037125D03*
X039125Y037125D03*
X040125Y037125D03*
X041125Y037125D03*
X042125Y037125D03*
X043125Y037125D03*
X043125Y036125D03*
X042125Y036125D03*
X041125Y036125D03*
X040125Y036125D03*
X039125Y036125D03*
X038125Y036125D03*
X037125Y036125D03*
X036125Y036125D03*
X035125Y036125D03*
X057625Y037125D03*
X058625Y037125D03*
X059625Y037125D03*
X060625Y037125D03*
X061625Y037125D03*
X062625Y037125D03*
X063625Y037125D03*
X064625Y037125D03*
X065625Y037125D03*
X066625Y037125D03*
X066625Y036125D03*
X065625Y036125D03*
X064625Y036125D03*
X063625Y036125D03*
X062625Y036125D03*
X061625Y036125D03*
X060625Y036125D03*
X059625Y036125D03*
X058625Y036125D03*
X081125Y037125D03*
X082125Y037125D03*
X083125Y037125D03*
X084125Y037125D03*
X085125Y037125D03*
X086125Y037125D03*
X087125Y037125D03*
X088125Y037125D03*
X089125Y037125D03*
X090125Y037125D03*
X090125Y036125D03*
X089125Y036125D03*
X088125Y036125D03*
X087125Y036125D03*
X086125Y036125D03*
X085125Y036125D03*
X084125Y036125D03*
X083125Y036125D03*
X082125Y036125D03*
X098125Y024375D03*
X098125Y023375D03*
X097125Y023375D03*
X097125Y022375D03*
X098125Y022375D03*
X098125Y021375D03*
X097125Y021375D03*
X097125Y020375D03*
X098125Y020375D03*
X098125Y019375D03*
X097125Y019375D03*
X097125Y018375D03*
X098125Y018375D03*
X098125Y017375D03*
X097125Y017375D03*
X097125Y016375D03*
X098125Y016375D03*
X098125Y015375D03*
X097125Y015375D03*
X097125Y014375D03*
X098125Y014375D03*
X098125Y013375D03*
X097125Y013375D03*
X097125Y012375D03*
X098125Y012375D03*
X098125Y011375D03*
X097125Y011375D03*
X097125Y010375D03*
X098125Y010375D03*
X081875Y004125D03*
X080875Y004125D03*
X079875Y004125D03*
X078875Y004125D03*
X077875Y004125D03*
X076875Y004125D03*
X075875Y004125D03*
X074875Y004125D03*
X073875Y004125D03*
X072875Y004125D03*
X072875Y005125D03*
X073875Y005125D03*
X074875Y005125D03*
X075875Y005125D03*
X076875Y005125D03*
X077875Y005125D03*
X078875Y005125D03*
X079875Y005125D03*
X080875Y005125D03*
X058875Y004125D03*
X057875Y004125D03*
X056875Y004125D03*
X055875Y004125D03*
X054875Y004125D03*
X053875Y004125D03*
X052875Y004125D03*
X051875Y004125D03*
X050875Y004125D03*
X049875Y004125D03*
X049875Y005125D03*
X050875Y005125D03*
X051875Y005125D03*
X052875Y005125D03*
X053875Y005125D03*
X054875Y005125D03*
X055875Y005125D03*
X056875Y005125D03*
X057875Y005125D03*
D12*
X052375Y011625D03*
X063875Y011625D03*
X076125Y011625D03*
X087625Y011625D03*
X092125Y013375D03*
X082875Y016875D03*
X080375Y020375D03*
X066625Y023375D03*
X056375Y023375D03*
X047625Y023375D03*
X038625Y023375D03*
X029625Y023375D03*
X026875Y027875D03*
X028625Y029625D03*
X016625Y029625D03*
X005125Y029625D03*
X007375Y024125D03*
X040125Y029625D03*
X052125Y029625D03*
X063625Y029625D03*
X075625Y029625D03*
X087125Y029625D03*
D13*
X088125Y029625D03*
X089125Y029625D03*
X090125Y029625D03*
X091125Y029625D03*
X092125Y029625D03*
X093125Y029625D03*
X094125Y029625D03*
X095125Y029625D03*
X096125Y029625D03*
X091125Y027875D03*
X089125Y027875D03*
X084625Y029625D03*
X083625Y029625D03*
X082625Y029625D03*
X081625Y029625D03*
X080625Y029625D03*
X079625Y029625D03*
X078625Y029625D03*
X077625Y029625D03*
X076625Y029625D03*
X072625Y029625D03*
X071625Y029625D03*
X070625Y029625D03*
X069625Y029625D03*
X068625Y029625D03*
X067625Y029625D03*
X066625Y029625D03*
X065625Y029625D03*
X064625Y029625D03*
X061125Y029625D03*
X060125Y029625D03*
X059125Y029625D03*
X058125Y029625D03*
X057125Y029625D03*
X056125Y029625D03*
X055125Y029625D03*
X054125Y029625D03*
X053125Y029625D03*
X049125Y029625D03*
X048125Y029625D03*
X047125Y029625D03*
X046125Y029625D03*
X045125Y029625D03*
X044125Y029625D03*
X043125Y029625D03*
X042125Y029625D03*
X041125Y029625D03*
X037625Y029625D03*
X036625Y029625D03*
X035625Y029625D03*
X034625Y029625D03*
X033625Y029625D03*
X032625Y029625D03*
X031625Y029625D03*
X030625Y029625D03*
X029625Y029625D03*
X025625Y029625D03*
X024625Y029625D03*
X023625Y029625D03*
X022625Y029625D03*
X021625Y029625D03*
X020625Y029625D03*
X019625Y029625D03*
X018625Y029625D03*
X017625Y029625D03*
X018125Y027875D03*
X019875Y027875D03*
X020875Y027875D03*
X021875Y027875D03*
X022875Y027875D03*
X023875Y027875D03*
X024875Y027875D03*
X025875Y027875D03*
X029625Y026375D03*
X030625Y026375D03*
X031625Y026375D03*
X032625Y026375D03*
X033625Y026375D03*
X034625Y026375D03*
X035625Y026375D03*
X038625Y026375D03*
X039625Y026375D03*
X040625Y026375D03*
X041625Y026375D03*
X042625Y026375D03*
X043625Y026375D03*
X044625Y026375D03*
X047625Y026375D03*
X048625Y026375D03*
X049625Y026375D03*
X050625Y026375D03*
X051625Y026375D03*
X052625Y026375D03*
X053625Y026375D03*
X056375Y026375D03*
X057375Y026375D03*
X058375Y026375D03*
X059375Y026375D03*
X060375Y026375D03*
X061375Y026375D03*
X062375Y026375D03*
X063375Y026375D03*
X066625Y026375D03*
X067625Y026375D03*
X068625Y026375D03*
X069625Y026375D03*
X070625Y026375D03*
X071625Y026375D03*
X072625Y026375D03*
X073625Y026375D03*
X074625Y026375D03*
X075625Y026375D03*
X075625Y023375D03*
X074625Y023375D03*
X073625Y023375D03*
X072625Y023375D03*
X071625Y023375D03*
X070625Y023375D03*
X069625Y023375D03*
X068625Y023375D03*
X067625Y023375D03*
X063375Y023375D03*
X062375Y023375D03*
X061375Y023375D03*
X060375Y023375D03*
X059375Y023375D03*
X058375Y023375D03*
X057375Y023375D03*
X055375Y022375D03*
X053375Y022375D03*
X053625Y023375D03*
X052625Y023375D03*
X051625Y023375D03*
X050625Y023375D03*
X049625Y023375D03*
X048625Y023375D03*
X047375Y022375D03*
X045375Y022375D03*
X044625Y023375D03*
X043625Y023375D03*
X042625Y023375D03*
X041625Y023375D03*
X040625Y023375D03*
X039625Y023375D03*
X035625Y023375D03*
X034625Y023375D03*
X033625Y023375D03*
X032625Y023375D03*
X031625Y023375D03*
X030625Y023375D03*
X029875Y021625D03*
X027875Y021625D03*
X026875Y024875D03*
X025875Y024875D03*
X024875Y024875D03*
X023875Y024875D03*
X022875Y024875D03*
X021875Y024875D03*
X020875Y024875D03*
X019875Y024875D03*
X018125Y025875D03*
X016375Y027125D03*
X015375Y027125D03*
X014375Y027125D03*
X013375Y027125D03*
X012375Y027125D03*
X011375Y027125D03*
X010375Y027125D03*
X009375Y027125D03*
X008375Y027125D03*
X007375Y027125D03*
X007125Y029625D03*
X006125Y029625D03*
X008125Y029625D03*
X009125Y029625D03*
X010125Y029625D03*
X011125Y029625D03*
X012125Y029625D03*
X013125Y029625D03*
X014125Y029625D03*
X014125Y032625D03*
X013125Y032625D03*
X012125Y032625D03*
X011125Y032625D03*
X010125Y032625D03*
X009125Y032625D03*
X008125Y032625D03*
X007125Y032625D03*
X006125Y032625D03*
X005125Y032625D03*
X004125Y033875D03*
X006125Y033875D03*
X016625Y032625D03*
X017625Y032625D03*
X018625Y032625D03*
X019625Y032625D03*
X020625Y032625D03*
X021625Y032625D03*
X022625Y032625D03*
X023625Y032625D03*
X024625Y032625D03*
X025625Y032625D03*
X028375Y033625D03*
X028625Y032625D03*
X029625Y032625D03*
X030625Y032625D03*
X031625Y032625D03*
X032625Y032625D03*
X033625Y032625D03*
X034625Y032625D03*
X035625Y032625D03*
X036625Y032625D03*
X037625Y032625D03*
X040125Y032625D03*
X041125Y032625D03*
X042125Y032625D03*
X043125Y032625D03*
X044125Y032625D03*
X045125Y032625D03*
X046125Y032625D03*
X047125Y032625D03*
X048125Y032625D03*
X049125Y032625D03*
X052125Y032625D03*
X053125Y032625D03*
X054125Y032625D03*
X055125Y032625D03*
X056125Y032625D03*
X057125Y032625D03*
X058125Y032625D03*
X059125Y032625D03*
X060125Y032625D03*
X061125Y032625D03*
X063625Y032625D03*
X064625Y032625D03*
X065625Y032625D03*
X066625Y032625D03*
X067625Y032625D03*
X068625Y032625D03*
X069625Y032625D03*
X070625Y032625D03*
X071625Y032625D03*
X072625Y032625D03*
X072875Y033625D03*
X074875Y033625D03*
X075625Y032625D03*
X076625Y032625D03*
X077625Y032625D03*
X078625Y032625D03*
X079625Y032625D03*
X080625Y032625D03*
X081625Y032625D03*
X082625Y032625D03*
X083625Y032625D03*
X084625Y032625D03*
X087125Y032625D03*
X088125Y032625D03*
X089125Y032625D03*
X090125Y032625D03*
X091125Y032625D03*
X092125Y032625D03*
X093125Y032625D03*
X094125Y032625D03*
X095125Y032625D03*
X096125Y032625D03*
X095625Y033625D03*
X093625Y033625D03*
X095375Y036125D03*
X096375Y036125D03*
X089375Y023375D03*
X088375Y023375D03*
X087375Y023375D03*
X086375Y023375D03*
X085375Y023375D03*
X084375Y023375D03*
X083375Y023375D03*
X082375Y023375D03*
X081375Y023375D03*
X080375Y023375D03*
X079125Y023375D03*
X077125Y023375D03*
X081375Y020375D03*
X082375Y020375D03*
X083375Y020375D03*
X084375Y020375D03*
X085375Y020375D03*
X086375Y020375D03*
X087375Y020375D03*
X088375Y020375D03*
X089375Y020375D03*
X081875Y016875D03*
X080875Y016875D03*
X079875Y016875D03*
X078875Y016875D03*
X077875Y016875D03*
X076875Y016875D03*
X075875Y016875D03*
X074875Y016875D03*
X073875Y016875D03*
X073875Y013875D03*
X074875Y013875D03*
X075875Y013875D03*
X076875Y013875D03*
X077875Y013875D03*
X078875Y013875D03*
X079875Y013875D03*
X080875Y013875D03*
X081875Y013875D03*
X082875Y013875D03*
X082625Y011625D03*
X081625Y011625D03*
X080625Y011625D03*
X079625Y011625D03*
X078625Y011625D03*
X075125Y011625D03*
X074125Y011625D03*
X073125Y011625D03*
X072125Y011625D03*
X071125Y011625D03*
X070125Y011625D03*
X069125Y011625D03*
X068125Y011625D03*
X067125Y011625D03*
X067625Y013125D03*
X065625Y013125D03*
X062875Y011625D03*
X061875Y011625D03*
X060875Y011625D03*
X059875Y011625D03*
X058875Y011625D03*
X057875Y011625D03*
X056875Y011625D03*
X055875Y011625D03*
X054875Y011625D03*
X051375Y011625D03*
X050375Y011625D03*
X049375Y011625D03*
X048375Y011625D03*
X047375Y011625D03*
X046375Y011625D03*
X045375Y011625D03*
X044375Y011625D03*
X043375Y011625D03*
X045875Y012625D03*
X047875Y012625D03*
X047375Y008625D03*
X046375Y008625D03*
X045375Y008625D03*
X044375Y008625D03*
X043375Y008625D03*
X048375Y008625D03*
X049375Y008625D03*
X050375Y008625D03*
X051375Y008625D03*
X052375Y008625D03*
X054875Y008625D03*
X055875Y008625D03*
X056875Y008625D03*
X057875Y008625D03*
X058875Y008625D03*
X059875Y008625D03*
X060875Y008625D03*
X061875Y008625D03*
X062875Y008625D03*
X063875Y008625D03*
X067125Y008625D03*
X068125Y008625D03*
X069125Y008625D03*
X070125Y008625D03*
X071125Y008625D03*
X072125Y008625D03*
X073125Y008625D03*
X074125Y008625D03*
X075125Y008625D03*
X076125Y008625D03*
X075875Y007625D03*
X077875Y007625D03*
X078625Y008625D03*
X079625Y008625D03*
X080625Y008625D03*
X081625Y008625D03*
X082625Y008625D03*
X083625Y008625D03*
X084625Y008625D03*
X085625Y008625D03*
X086625Y008625D03*
X087625Y008625D03*
X092125Y008375D03*
X092125Y009375D03*
X092125Y010375D03*
X092125Y011375D03*
X092125Y012375D03*
X095125Y012375D03*
X095125Y013375D03*
X094375Y015125D03*
X092375Y015125D03*
X086625Y011625D03*
X085625Y011625D03*
X084625Y011625D03*
X083625Y011625D03*
X092125Y007375D03*
X092125Y006375D03*
X092125Y005375D03*
X092125Y004375D03*
X095125Y004375D03*
X095125Y005375D03*
X095125Y006375D03*
X095125Y007375D03*
X095125Y008375D03*
X095125Y009375D03*
X095125Y010375D03*
X095125Y011375D03*
X061375Y022375D03*
X059375Y022375D03*
X051625Y033875D03*
X049625Y033875D03*
X030375Y033625D03*
X016375Y024125D03*
X015375Y024125D03*
X014375Y024125D03*
X013375Y024125D03*
X012375Y024125D03*
X011375Y024125D03*
X010375Y024125D03*
X009375Y024125D03*
X008375Y024125D03*
X014875Y022625D03*
X016875Y022625D03*
D14*
X098375Y030875D03*
X098375Y034625D03*
D15*
X091875Y018125D03*
X041125Y009875D03*
X013125Y022375D03*
D16*
X015125Y022125D02*
X015125Y018375D01*
X015875Y017625D01*
X015875Y008375D01*
X013875Y008875D02*
X013875Y024875D01*
X014375Y025375D01*
X014375Y027125D01*
X013875Y026875D02*
X013375Y026375D01*
X013375Y024125D01*
X012375Y024125D02*
X012375Y010875D01*
X014375Y010375D02*
X014375Y024125D01*
X015375Y024125D02*
X015375Y026125D01*
X014875Y026625D01*
X014875Y032375D01*
X015375Y032875D02*
X015375Y028875D01*
X016125Y028125D01*
X013875Y027875D02*
X013875Y026875D01*
X012375Y027125D02*
X011875Y026625D01*
X011875Y009375D01*
X009875Y009875D02*
X009875Y026625D01*
X010375Y027125D01*
X010875Y027625D02*
X010875Y024625D01*
X011375Y024125D01*
X010375Y024125D02*
X010375Y011375D01*
X008375Y011875D02*
X008375Y024125D01*
X008875Y024625D02*
X009375Y024125D01*
X008875Y024625D02*
X008875Y027625D01*
X008625Y027875D01*
X008625Y031125D01*
X009125Y031375D02*
X009125Y029625D01*
X009625Y030125D02*
X009625Y028875D01*
X010875Y027625D01*
X012125Y028625D02*
X012125Y029625D01*
X012625Y030125D02*
X013125Y029625D01*
X012625Y030125D02*
X012625Y033125D01*
X012125Y033625D01*
X012125Y036625D01*
X012625Y037125D01*
X013125Y036625D02*
X013625Y037125D01*
X013125Y036625D02*
X013125Y035125D01*
X012625Y034625D02*
X013125Y034125D01*
X013125Y032625D01*
X012125Y032625D02*
X012125Y031125D01*
X011625Y031125D02*
X010125Y029625D01*
X009625Y030125D02*
X010875Y031375D01*
X011125Y031375D01*
X011125Y032625D01*
X010125Y032625D02*
X010125Y033625D01*
X011125Y034625D01*
X011125Y036625D01*
X011625Y037125D01*
X010625Y037125D02*
X006125Y032625D01*
X008125Y032625D02*
X008125Y031625D01*
X008625Y031875D02*
X009125Y031375D01*
X008625Y031875D02*
X008625Y034375D01*
X011625Y034375D02*
X011625Y036125D01*
X012625Y036125D02*
X012625Y034625D01*
X013625Y034375D02*
X013625Y036125D01*
X017625Y037125D02*
X018125Y036625D01*
X018125Y034875D01*
X019125Y033625D02*
X019625Y034125D01*
X019625Y036125D01*
X019875Y036625D02*
X019125Y036625D01*
X018625Y037125D01*
X019875Y036625D02*
X020125Y036375D01*
X020125Y030125D01*
X020625Y029625D01*
X021125Y030125D02*
X021625Y029625D01*
X021125Y030125D02*
X021125Y033875D01*
X020625Y034375D01*
X020625Y036125D01*
X024125Y034875D02*
X024125Y030125D01*
X024625Y029625D01*
X023625Y029625D02*
X023625Y028625D01*
X024875Y027875D02*
X024875Y026375D01*
X025125Y026125D01*
X026875Y026125D01*
X027375Y025625D01*
X027375Y020625D01*
X029125Y018875D01*
X029125Y014875D01*
X029125Y004625D01*
X029625Y004125D01*
X030125Y004625D02*
X030625Y004125D01*
X030125Y004625D02*
X030125Y013875D01*
X030125Y019125D01*
X028875Y020375D01*
X028875Y025875D01*
X026875Y027625D01*
X026875Y027875D01*
X025875Y027875D02*
X025875Y027625D01*
X028375Y025375D01*
X028375Y020125D01*
X029625Y018875D01*
X029625Y014375D01*
X029625Y005125D01*
X028625Y005125D02*
X028625Y015375D01*
X028125Y015875D02*
X028125Y004625D01*
X028625Y004125D01*
X027625Y004125D02*
X027125Y004625D01*
X027125Y016875D01*
X027625Y016375D02*
X027625Y005125D01*
X026625Y005125D02*
X026625Y017375D01*
X026125Y017875D02*
X026125Y004625D01*
X026625Y004125D01*
X025625Y004125D02*
X025125Y004625D01*
X025125Y018875D01*
X024625Y019375D02*
X024625Y005125D01*
X024125Y004625D02*
X024125Y019875D01*
X025625Y018375D02*
X025625Y005125D01*
X024625Y004125D02*
X024125Y004625D01*
X030625Y005125D02*
X030625Y013375D01*
X031125Y012875D02*
X031125Y004625D01*
X031625Y004125D01*
X032125Y004625D02*
X032625Y004125D01*
X032125Y004625D02*
X032125Y011875D01*
X032625Y011375D02*
X032625Y005125D01*
X033125Y004625D02*
X033625Y004125D01*
X033125Y004625D02*
X033125Y010875D01*
X033625Y010375D02*
X033625Y005125D01*
X034125Y004625D02*
X034625Y004125D01*
X034125Y004625D02*
X034125Y009875D01*
X034625Y009375D02*
X034625Y005125D01*
X035125Y004625D02*
X035625Y004125D01*
X035125Y004625D02*
X035125Y008875D01*
X035625Y008375D02*
X035625Y005125D01*
X031625Y005125D02*
X031625Y012375D01*
X030625Y015375D02*
X030625Y022375D01*
X029625Y023375D01*
X034625Y023375D02*
X034625Y021375D01*
X043625Y013125D01*
X045375Y011625D02*
X045875Y011125D01*
X045875Y007125D01*
X046625Y006375D01*
X051375Y006375D01*
X051875Y005875D01*
X051875Y005125D01*
X052375Y004625D02*
X052875Y004125D01*
X052375Y004625D02*
X052375Y006625D01*
X051875Y007125D01*
X051125Y007125D01*
X049875Y008375D01*
X049875Y010375D01*
X049375Y010875D01*
X048125Y010875D01*
X047375Y011625D01*
X046375Y011625D02*
X046375Y010625D01*
X046375Y009625D02*
X046375Y008625D01*
X048375Y008625D02*
X048375Y009875D01*
X050375Y010125D02*
X050375Y008625D01*
X050875Y008125D02*
X051375Y007625D01*
X052125Y007625D01*
X052875Y006875D01*
X052875Y005125D01*
X053875Y004125D02*
X054375Y004625D01*
X054375Y006125D01*
X053625Y006875D01*
X053625Y010375D01*
X052375Y010375D02*
X052375Y011625D01*
X052375Y020875D01*
X057875Y021375D02*
X057875Y025875D01*
X057375Y026375D01*
X058375Y026375D02*
X058875Y025875D01*
X058875Y020875D01*
X060875Y021875D02*
X060875Y023875D01*
X060375Y024375D01*
X060375Y026375D01*
X059375Y026375D02*
X059375Y028125D01*
X059125Y028625D02*
X059125Y029625D01*
X059625Y030125D02*
X060125Y029625D01*
X059625Y030125D02*
X059625Y033375D01*
X059125Y033875D01*
X059125Y036625D01*
X059625Y037125D01*
X060125Y036625D02*
X060625Y037125D01*
X060125Y036625D02*
X060125Y034875D01*
X058625Y034375D02*
X058625Y036125D01*
X058125Y036625D02*
X058125Y034375D01*
X057125Y033375D01*
X057125Y032625D01*
X058125Y032625D02*
X058125Y031375D01*
X059125Y031125D02*
X059125Y032625D01*
X060125Y032625D02*
X060125Y033375D01*
X059625Y033875D01*
X059625Y036125D01*
X060625Y036125D02*
X060625Y033625D01*
X061125Y032625D02*
X060625Y032125D01*
X060625Y027625D01*
X060875Y027375D01*
X060875Y024875D01*
X059375Y024375D02*
X059375Y023375D01*
X058375Y023375D02*
X058375Y016625D01*
X057375Y016125D02*
X057375Y023375D01*
X056375Y023375D02*
X056375Y015375D01*
X063375Y013625D02*
X063375Y022625D01*
X064625Y024125D01*
X066625Y024125D01*
X067625Y023375D01*
X068625Y023375D02*
X068625Y024625D01*
X070625Y024375D02*
X070625Y023375D01*
X070125Y023125D02*
X070125Y025875D01*
X069625Y026375D01*
X071125Y025875D02*
X071625Y026375D01*
X071125Y025875D02*
X071125Y022875D01*
X070625Y022375D01*
X066375Y022375D01*
X065875Y021875D01*
X065875Y014875D01*
X066375Y015125D02*
X066375Y021625D01*
X066875Y022125D01*
X071625Y022125D01*
X072125Y022625D01*
X072125Y024875D01*
X073625Y026375D01*
X073875Y025625D02*
X074875Y025625D01*
X075625Y026375D01*
X073875Y025625D02*
X073125Y024875D01*
X073125Y022375D01*
X072625Y021875D01*
X067375Y021875D01*
X066875Y021375D01*
X066875Y015375D01*
X067375Y015625D02*
X067375Y021125D01*
X067875Y020875D02*
X067875Y015875D01*
X068375Y016125D02*
X068375Y020625D01*
X068875Y020375D02*
X068875Y016375D01*
X069375Y016625D02*
X069375Y017875D01*
X074375Y022875D01*
X082875Y022875D01*
X083375Y023375D01*
X084625Y022625D02*
X085375Y023375D01*
X084625Y022625D02*
X074625Y022625D01*
X069875Y017875D01*
X069875Y016875D01*
X070375Y017125D02*
X070375Y017875D01*
X074875Y022375D01*
X086375Y022375D01*
X087375Y023375D01*
X088125Y022125D02*
X089375Y023375D01*
X091125Y023875D02*
X091125Y020125D01*
X090375Y019375D01*
X088375Y019375D01*
X087625Y018625D01*
X087625Y011625D01*
X087625Y009625D01*
X086625Y008625D01*
X085625Y008625D02*
X085625Y010125D01*
X086125Y011125D02*
X086625Y011625D01*
X086125Y011125D02*
X086125Y006625D01*
X085375Y005875D01*
X083625Y005875D01*
X081875Y004125D01*
X081375Y004625D02*
X081375Y006625D01*
X082125Y007375D01*
X082125Y009375D01*
X082625Y009875D01*
X082625Y011625D01*
X082125Y012125D02*
X082125Y011125D01*
X081625Y011625D02*
X081625Y012375D01*
X080375Y013625D01*
X080375Y015125D01*
X079875Y015625D01*
X079875Y016875D01*
X080375Y016125D02*
X080875Y015625D01*
X080875Y013875D01*
X079875Y013875D02*
X079875Y013375D01*
X079125Y012625D01*
X079125Y009125D01*
X079625Y008625D01*
X078625Y008625D02*
X078625Y008125D01*
X078375Y007875D01*
X078375Y007375D01*
X077875Y006875D01*
X077875Y005125D01*
X076875Y004125D02*
X076375Y004625D01*
X076375Y006875D01*
X076125Y007125D01*
X075125Y007125D01*
X074625Y007625D01*
X074625Y011125D01*
X075125Y011625D01*
X074125Y011625D02*
X074125Y012625D01*
X074875Y012625D01*
X075375Y013125D01*
X075375Y015875D01*
X075875Y016375D01*
X075875Y016875D01*
X075375Y016375D02*
X074875Y015875D01*
X074875Y013875D01*
X073875Y013875D02*
X073875Y013625D01*
X073625Y013375D01*
X073625Y011375D01*
X074125Y010875D01*
X074125Y010125D01*
X074125Y008625D01*
X075125Y008625D02*
X075125Y010125D01*
X076125Y011125D01*
X076125Y011625D01*
X076375Y011875D01*
X076375Y021625D01*
X075125Y022125D02*
X088125Y022125D01*
X091125Y023875D02*
X086875Y028125D01*
X085625Y027625D02*
X085625Y030875D01*
X084625Y031875D01*
X084625Y032625D01*
X083625Y032625D02*
X083625Y033375D01*
X083125Y033875D01*
X083125Y036125D01*
X082625Y036625D02*
X082625Y033625D01*
X083125Y033125D01*
X083125Y030125D01*
X083625Y029625D01*
X082625Y029625D02*
X082625Y028625D01*
X081125Y030125D02*
X080625Y029625D01*
X079625Y029625D02*
X079125Y030125D01*
X079125Y035125D01*
X079375Y035625D02*
X077875Y035625D01*
X076625Y033875D01*
X076625Y032625D01*
X078625Y032625D02*
X078625Y031625D01*
X077625Y030625D02*
X077625Y029625D01*
X076625Y029625D02*
X076125Y030125D01*
X076125Y035125D01*
X079375Y035625D02*
X080125Y036375D01*
X080125Y036875D01*
X080375Y037125D01*
X081125Y037125D01*
X081625Y036625D02*
X082125Y037125D01*
X082625Y036625D02*
X083125Y037125D01*
X083625Y036625D02*
X084125Y037125D01*
X083625Y036625D02*
X083625Y035125D01*
X084125Y036125D02*
X084125Y034125D01*
X082125Y034625D02*
X082125Y036125D01*
X081625Y036625D02*
X081625Y034375D01*
X080625Y033375D01*
X080625Y032625D01*
X081125Y033125D02*
X081125Y030125D01*
X082625Y031125D02*
X082625Y032625D01*
X081625Y032625D02*
X081625Y031375D01*
X081125Y033125D02*
X081625Y033625D01*
X086625Y034125D02*
X088125Y032625D01*
X088625Y033375D02*
X088625Y030125D01*
X088125Y029625D01*
X089125Y029625D02*
X089125Y030625D01*
X089625Y031125D02*
X091125Y029625D01*
X092125Y029625D02*
X090625Y031125D01*
X090625Y034625D01*
X091125Y034375D02*
X091125Y032625D01*
X090125Y032625D02*
X090125Y031625D01*
X089625Y031125D02*
X089625Y036625D01*
X089125Y037125D01*
X088625Y036625D02*
X088125Y037125D01*
X088625Y036625D02*
X088625Y034375D01*
X088125Y033875D01*
X087125Y034375D02*
X087125Y036125D01*
X086625Y036625D02*
X086625Y034125D01*
X088125Y034875D02*
X088125Y036125D01*
X089125Y036125D02*
X089125Y034625D01*
X090125Y033375D02*
X090125Y036125D01*
X092125Y035625D02*
X092125Y032625D01*
X093125Y032625D02*
X093125Y031375D01*
X094125Y031125D02*
X094125Y032625D01*
X096125Y032625D02*
X096125Y031125D01*
X095625Y030625D01*
X095625Y027875D01*
X095625Y026875D02*
X095625Y022375D01*
X097125Y023375D02*
X096125Y024375D01*
X096125Y025375D01*
X097125Y025625D02*
X097625Y025125D01*
X097625Y023875D01*
X098125Y023375D01*
X094125Y028625D02*
X094125Y029625D01*
X086625Y036625D02*
X086125Y037125D01*
X072625Y032625D02*
X072125Y032125D01*
X072125Y025875D01*
X071625Y025375D01*
X071625Y024125D01*
X070125Y023125D02*
X069625Y022625D01*
X065875Y022625D01*
X065375Y022125D01*
X065375Y014625D01*
X064875Y014375D02*
X064875Y022375D01*
X064375Y022375D02*
X064375Y014125D01*
X063875Y013875D02*
X063875Y022625D01*
X064125Y022875D01*
X069125Y022875D01*
X069625Y023375D01*
X070875Y017875D02*
X075125Y022125D01*
X074875Y018625D02*
X075375Y018125D01*
X075375Y016375D01*
X076875Y015875D02*
X076875Y013875D01*
X077375Y013125D02*
X077875Y013625D01*
X077875Y013875D01*
X078875Y013875D02*
X078875Y015375D01*
X078375Y015875D01*
X078375Y018375D01*
X078125Y018625D01*
X077375Y018375D02*
X077375Y016625D01*
X076875Y015875D01*
X077875Y015125D02*
X078375Y014625D01*
X078375Y012375D01*
X077375Y013125D02*
X077375Y009125D01*
X080625Y010625D02*
X081625Y011625D01*
X082125Y012125D02*
X082375Y012375D01*
X082375Y014375D01*
X081875Y014875D01*
X081875Y016875D01*
X080375Y016125D02*
X080375Y018625D01*
X077375Y018375D02*
X077125Y018625D01*
X077875Y016875D02*
X077875Y015125D01*
X072625Y013375D02*
X072625Y010375D01*
X072125Y009875D01*
X072125Y008625D01*
X073125Y009625D02*
X073625Y009125D01*
X073625Y007375D01*
X074125Y006875D01*
X075375Y006875D01*
X075875Y006375D01*
X075875Y005125D01*
X075375Y004625D02*
X075375Y005875D01*
X074875Y006375D01*
X072125Y006375D01*
X071625Y006875D01*
X071625Y011125D01*
X071125Y011625D01*
X070125Y011625D02*
X070125Y011375D01*
X070875Y010625D01*
X069875Y009625D02*
X069875Y008875D01*
X070125Y008625D01*
X069625Y009125D02*
X069125Y009625D01*
X069125Y011625D01*
X073125Y011625D02*
X073125Y009625D01*
X069625Y009125D02*
X069625Y006375D01*
X070125Y005875D01*
X074625Y005875D01*
X074875Y005625D01*
X074875Y005125D01*
X075375Y004625D02*
X075875Y004125D01*
X079875Y005125D02*
X079875Y007375D01*
X080125Y007625D01*
X080125Y011125D01*
X080625Y011625D01*
X083625Y011625D02*
X083625Y009875D01*
X084125Y011125D02*
X084625Y011625D01*
X084125Y011125D02*
X084125Y006875D01*
X084625Y006625D02*
X084625Y008625D01*
X082625Y008625D02*
X082625Y007125D01*
X080875Y006625D02*
X080875Y005125D01*
X081375Y004625D02*
X080875Y004125D01*
X089125Y005375D02*
X089125Y011125D01*
X090125Y010625D02*
X090125Y007375D01*
X093875Y008375D02*
X093875Y012875D01*
X092875Y012375D02*
X092875Y013875D01*
X096125Y012875D02*
X096125Y010875D01*
X096125Y010125D02*
X097125Y011125D01*
X097125Y011375D01*
X097125Y010375D02*
X096625Y009875D01*
X096625Y005875D01*
X095125Y004375D01*
X095125Y006375D02*
X096125Y007375D01*
X096125Y008625D01*
X096125Y009375D02*
X095125Y008375D01*
X096125Y009375D02*
X096125Y010125D01*
X094375Y011875D02*
X094375Y006375D01*
X096125Y012875D02*
X096625Y013375D01*
X097125Y013375D01*
X070875Y017375D02*
X070875Y017875D01*
X062625Y020875D02*
X062625Y012625D01*
X063125Y012125D01*
X063625Y012125D01*
X063875Y011875D01*
X063875Y011625D01*
X063875Y011125D01*
X062875Y010125D01*
X062875Y008625D01*
X061875Y008625D02*
X061875Y010125D01*
X062375Y011125D02*
X062375Y006625D01*
X061875Y006125D01*
X060875Y006125D01*
X058875Y004125D01*
X058375Y004625D02*
X057875Y004125D01*
X058375Y004625D02*
X058375Y005875D01*
X059375Y006875D01*
X059375Y011125D01*
X058875Y011625D01*
X057875Y011625D02*
X057875Y011375D01*
X058625Y010625D01*
X057625Y009625D02*
X057875Y009375D01*
X057875Y008625D01*
X057375Y009125D02*
X056875Y009625D01*
X056875Y011625D01*
X060375Y011125D02*
X060875Y011625D01*
X061875Y011625D02*
X061875Y012625D01*
X062875Y011625D02*
X062375Y011125D01*
X060375Y011125D02*
X060375Y007125D01*
X059625Y006375D01*
X057875Y006375D02*
X057875Y005125D01*
X056875Y005125D02*
X056875Y006375D01*
X057375Y006875D01*
X057375Y009125D01*
X059875Y008625D02*
X059875Y009875D01*
X052375Y010375D02*
X051375Y009375D01*
X051375Y008625D01*
X050875Y008125D02*
X050875Y010375D01*
X050375Y010875D01*
X050125Y010875D01*
X049375Y011625D01*
X050375Y011625D02*
X050375Y012625D01*
X051375Y011625D02*
X051375Y010375D01*
X042625Y020875D02*
X042625Y023375D01*
X041625Y023375D02*
X041625Y026375D01*
X040625Y026375D02*
X040625Y025625D01*
X041125Y025125D01*
X041125Y021875D01*
X039625Y021375D02*
X039625Y023375D01*
X040625Y023375D02*
X040625Y024875D01*
X042625Y026375D02*
X040875Y028125D01*
X039875Y028125D01*
X038875Y029125D01*
X038875Y031625D01*
X037875Y032625D01*
X037625Y032625D01*
X036625Y032625D02*
X036625Y033625D01*
X036125Y034125D01*
X036125Y036125D01*
X035625Y036625D02*
X035625Y033625D01*
X036125Y033125D01*
X036125Y030125D01*
X036625Y029625D01*
X035625Y029625D02*
X035625Y028625D01*
X033625Y029625D02*
X033125Y030125D01*
X033125Y033875D01*
X033625Y033375D02*
X034625Y034375D01*
X034625Y036625D01*
X035125Y037125D01*
X035625Y036625D02*
X036125Y037125D01*
X036625Y036625D02*
X037125Y037125D01*
X036625Y036625D02*
X036625Y035125D01*
X037125Y036125D02*
X037125Y033875D01*
X035125Y034625D02*
X035125Y036125D01*
X034125Y037125D02*
X029625Y033875D01*
X029625Y032625D01*
X031625Y032625D02*
X031625Y031625D01*
X030625Y030625D02*
X030625Y029625D01*
X029625Y029625D02*
X029125Y030125D01*
X029125Y035625D01*
X032125Y034875D02*
X032125Y030125D01*
X032625Y029625D01*
X035625Y031125D02*
X035625Y032625D01*
X034625Y032625D02*
X034625Y031375D01*
X033625Y032625D02*
X033625Y033375D01*
X039625Y033875D02*
X041125Y032625D01*
X042125Y033625D02*
X042125Y035125D01*
X041625Y035625D01*
X041625Y036625D01*
X041125Y037125D01*
X040625Y036625D02*
X040125Y037125D01*
X039625Y036625D02*
X039125Y037125D01*
X039625Y036625D02*
X039625Y033875D01*
X040125Y034375D02*
X040125Y036125D01*
X040625Y036625D02*
X040625Y035625D01*
X041125Y036125D02*
X041125Y035125D01*
X041625Y034875D02*
X041625Y030125D01*
X041125Y029625D01*
X042125Y029625D02*
X042125Y030625D01*
X043625Y030125D02*
X044125Y029625D01*
X045125Y029625D02*
X045625Y030125D01*
X045625Y034625D01*
X044125Y033875D02*
X044125Y032625D01*
X043625Y033125D02*
X043625Y030125D01*
X043125Y031625D02*
X043125Y032625D01*
X043625Y033125D02*
X043125Y033625D01*
X043125Y035125D01*
X042625Y035625D01*
X042625Y036625D01*
X042125Y037125D01*
X042125Y036125D02*
X042125Y035625D01*
X042625Y035125D01*
X042625Y034625D01*
X043875Y034875D02*
X043875Y035375D01*
X043125Y036125D01*
X045125Y035625D02*
X045125Y032625D01*
X046125Y032625D02*
X046125Y031375D01*
X047125Y031125D02*
X047125Y032625D01*
X047625Y033625D02*
X047625Y030125D01*
X048125Y029625D01*
X047125Y029625D02*
X047125Y028625D01*
X048625Y027625D02*
X048625Y032125D01*
X049125Y032625D01*
X053125Y032625D02*
X053125Y033875D01*
X054125Y035125D01*
X054375Y035375D01*
X055375Y035375D01*
X057125Y037125D01*
X057625Y037125D01*
X058125Y036625D02*
X058625Y037125D01*
X062625Y037125D02*
X063125Y036625D01*
X063125Y034125D01*
X064625Y032625D01*
X065625Y033375D02*
X065625Y036125D01*
X065125Y036625D02*
X065125Y034875D01*
X064625Y035125D02*
X064625Y036125D01*
X065125Y036625D02*
X064625Y037125D01*
X065625Y037125D02*
X066125Y036625D01*
X066125Y031125D01*
X067625Y029625D01*
X068125Y030375D02*
X068625Y029875D01*
X068625Y029625D01*
X068125Y030375D02*
X068125Y033375D01*
X067625Y032625D02*
X067625Y034375D01*
X066625Y033875D02*
X066625Y036125D01*
X068625Y035625D02*
X068625Y032625D01*
X069625Y032625D02*
X069625Y031375D01*
X070625Y031125D02*
X070625Y032625D01*
X071625Y032625D02*
X071625Y035125D01*
X071125Y034625D02*
X071125Y030125D01*
X071625Y029625D01*
X070625Y029625D02*
X070625Y028625D01*
X065625Y029625D02*
X065625Y030625D01*
X065125Y030125D02*
X064625Y029625D01*
X065125Y030125D02*
X065125Y033875D01*
X063625Y034375D02*
X063625Y036125D01*
X056625Y033625D02*
X056625Y030125D01*
X057125Y029625D01*
X056125Y029625D02*
X055625Y030125D01*
X055625Y034625D01*
X052625Y035375D02*
X052625Y030125D01*
X053125Y029625D01*
X054125Y029625D02*
X054125Y030625D01*
X055125Y031625D02*
X055125Y032625D01*
X043625Y028125D02*
X043625Y026375D01*
X043625Y025375D02*
X043625Y023375D01*
X048625Y023375D02*
X048625Y025375D01*
X049625Y025375D02*
X049625Y026375D01*
X050625Y026375D02*
X050625Y023375D01*
X049625Y023375D02*
X049625Y024875D01*
X051625Y025125D02*
X051625Y023375D01*
X051625Y026375D02*
X051625Y027625D01*
X062375Y025375D02*
X062375Y023375D01*
X066625Y031625D02*
X066625Y032625D01*
X028625Y028625D02*
X028625Y028125D01*
X028625Y028625D02*
X027875Y029375D01*
X027375Y029375D01*
X026875Y029875D01*
X026875Y031375D01*
X025625Y032625D01*
X023625Y032625D02*
X023625Y031125D01*
X022625Y031375D02*
X022625Y032625D01*
X019625Y032625D02*
X019625Y031625D01*
X019125Y032125D02*
X017625Y030625D01*
X017625Y029625D01*
X018625Y029625D02*
X018625Y030625D01*
X019625Y030125D02*
X019625Y029625D01*
X020875Y027875D02*
X018875Y026125D01*
X018875Y022875D01*
X015875Y022875D02*
X015125Y022125D01*
X015875Y022875D02*
X015875Y026625D01*
X016375Y027125D01*
X013875Y027875D02*
X013625Y028125D01*
X013625Y031625D01*
X011625Y031125D02*
X011625Y033625D01*
X014125Y032625D02*
X014625Y033125D01*
X015125Y033125D01*
X015375Y032875D01*
X019125Y033625D02*
X019125Y032125D01*
X006125Y029625D02*
X005625Y030125D01*
X005625Y035625D01*
D17*
X005625Y035625D03*
X008625Y034375D03*
X011625Y034375D03*
X011625Y033625D03*
X013625Y034375D03*
X013125Y035125D03*
X018125Y034875D03*
X020625Y036125D03*
X024125Y034875D03*
X029125Y035625D03*
X032125Y034875D03*
X033125Y033875D03*
X035125Y034625D03*
X036625Y035125D03*
X037125Y033875D03*
X040125Y034375D03*
X041625Y034875D03*
X041125Y035125D03*
X040625Y035625D03*
X042625Y034625D03*
X043875Y034875D03*
X044125Y033875D03*
X045625Y034625D03*
X047625Y033625D03*
X046125Y031375D03*
X047125Y031125D03*
X043125Y031625D03*
X042125Y030625D03*
X047125Y028625D03*
X048625Y027625D03*
X051625Y027625D03*
X049625Y025375D03*
X049625Y024875D03*
X048625Y025375D03*
X051625Y025125D03*
X059375Y024375D03*
X060875Y024875D03*
X062375Y025375D03*
X068625Y024625D03*
X070625Y024375D03*
X071625Y024125D03*
X076375Y021625D03*
X077125Y018625D03*
X078125Y018625D03*
X080375Y018625D03*
X074875Y018625D03*
X070875Y017375D03*
X070375Y017125D03*
X069875Y016875D03*
X069375Y016625D03*
X068875Y016375D03*
X068375Y016125D03*
X067875Y015875D03*
X067375Y015625D03*
X066875Y015375D03*
X066375Y015125D03*
X065875Y014875D03*
X065375Y014625D03*
X064875Y014375D03*
X064375Y014125D03*
X063875Y013875D03*
X063375Y013625D03*
X061875Y012625D03*
X058625Y010625D03*
X057625Y009625D03*
X059875Y009875D03*
X061875Y010125D03*
X069875Y009625D03*
X070875Y010625D03*
X072125Y009875D03*
X074125Y010125D03*
X077375Y009125D03*
X080625Y010625D03*
X082125Y011125D03*
X083625Y009875D03*
X085625Y010125D03*
X089125Y011125D03*
X090125Y010625D03*
X094375Y011875D03*
X092875Y012375D03*
X093875Y012875D03*
X092875Y013875D03*
X096125Y010875D03*
X096125Y008625D03*
X093875Y008375D03*
X090125Y007375D03*
X089125Y005375D03*
X084625Y006625D03*
X084125Y006875D03*
X082625Y007125D03*
X080875Y006625D03*
X094375Y006375D03*
X078375Y012375D03*
X074125Y012625D03*
X072625Y013375D03*
X058375Y016625D03*
X057375Y016125D03*
X056375Y015375D03*
X050375Y012625D03*
X051375Y010375D03*
X050375Y010125D03*
X048375Y009875D03*
X046375Y009625D03*
X046375Y010625D03*
X043625Y013125D03*
X034625Y009375D03*
X034125Y009875D03*
X033625Y010375D03*
X033125Y010875D03*
X032625Y011375D03*
X032125Y011875D03*
X031625Y012375D03*
X031125Y012875D03*
X030625Y013375D03*
X030125Y013875D03*
X029625Y014375D03*
X029125Y014875D03*
X028625Y015375D03*
X028125Y015875D03*
X027625Y016375D03*
X027125Y016875D03*
X026625Y017375D03*
X026125Y017875D03*
X025625Y018375D03*
X025125Y018875D03*
X024625Y019375D03*
X024125Y019875D03*
X030625Y015375D03*
X042625Y020875D03*
X041125Y021875D03*
X039625Y021375D03*
X040625Y024875D03*
X043625Y025375D03*
X043625Y028125D03*
X035625Y028625D03*
X030625Y030625D03*
X031625Y031625D03*
X034625Y031375D03*
X035625Y031125D03*
X042125Y033625D03*
X045125Y035625D03*
X052625Y035375D03*
X055625Y034625D03*
X056625Y033625D03*
X058625Y034375D03*
X060125Y034875D03*
X060625Y033625D03*
X063625Y034375D03*
X065125Y033875D03*
X065625Y033375D03*
X066625Y033875D03*
X067625Y034375D03*
X068125Y033375D03*
X071125Y034625D03*
X071625Y035125D03*
X068625Y035625D03*
X065125Y034875D03*
X064625Y035125D03*
X066625Y031625D03*
X065625Y030625D03*
X069625Y031375D03*
X070625Y031125D03*
X070625Y028625D03*
X077625Y030625D03*
X078625Y031625D03*
X081625Y031375D03*
X082625Y031125D03*
X082625Y028625D03*
X085625Y027625D03*
X086875Y028125D03*
X089125Y030625D03*
X090125Y031625D03*
X093125Y031375D03*
X094125Y031125D03*
X090125Y033375D03*
X088625Y033375D03*
X088125Y033875D03*
X087125Y034375D03*
X088125Y034875D03*
X089125Y034625D03*
X090625Y034625D03*
X091125Y034375D03*
X092125Y035625D03*
X084125Y034125D03*
X082125Y034625D03*
X081625Y033625D03*
X083625Y035125D03*
X079125Y035125D03*
X076125Y035125D03*
X059125Y031125D03*
X058125Y031375D03*
X055125Y031625D03*
X054125Y030625D03*
X059125Y028625D03*
X059375Y028125D03*
X064375Y022375D03*
X064875Y022375D03*
X067375Y021125D03*
X067875Y020875D03*
X068375Y020625D03*
X068875Y020375D03*
X062625Y020875D03*
X060875Y021875D03*
X058875Y020875D03*
X057875Y021375D03*
X052375Y020875D03*
X028625Y028125D03*
X023625Y028625D03*
X019625Y030125D03*
X018625Y030625D03*
X019625Y031625D03*
X022625Y031375D03*
X023625Y031125D03*
X016125Y028125D03*
X012125Y028625D03*
X012125Y031125D03*
X011125Y031375D03*
X008625Y031125D03*
X008125Y031625D03*
X013625Y031625D03*
X014875Y032375D03*
X008375Y011875D03*
X010375Y011375D03*
X012375Y010875D03*
X014375Y010375D03*
X011875Y009375D03*
X013875Y008875D03*
X015875Y008375D03*
X009875Y009875D03*
X035125Y008875D03*
X035625Y008375D03*
X053625Y010375D03*
X057875Y006375D03*
X059625Y006375D03*
X095625Y022375D03*
X096125Y025375D03*
X097125Y025625D03*
X095625Y026875D03*
X095625Y027875D03*
X094125Y028625D03*
M02*
