G75*
G70*
%OFA0B0*%
%FSLAX24Y24*%
%IPPOS*%
%LPD*%
%AMOC8*
5,1,8,0,0,1.08239X$1,22.5*
%
%ADD10R,0.0730X0.0730*%
%ADD11C,0.0730*%
%ADD12C,0.1240*%
%ADD13R,0.0595X0.0595*%
%ADD14C,0.0595*%
%ADD15R,0.1580X0.1580*%
%ADD16C,0.1340*%
%ADD17R,0.0789X0.0789*%
D10*
X005125Y009625D03*
X035625Y005125D03*
X058875Y005125D03*
X081875Y005125D03*
X097125Y024375D03*
X081125Y036125D03*
X057625Y036125D03*
X034125Y036125D03*
X010625Y036125D03*
X018875Y021875D03*
D11*
X019875Y021875D03*
X020875Y021875D03*
X021875Y021875D03*
X022875Y021875D03*
X023875Y021875D03*
X024875Y021875D03*
X025875Y021875D03*
X025875Y022875D03*
X024875Y022875D03*
X023875Y022875D03*
X022875Y022875D03*
X021875Y022875D03*
X020875Y022875D03*
X019875Y022875D03*
X018875Y022875D03*
X005125Y022625D03*
X004125Y022625D03*
X004125Y021625D03*
X005125Y021625D03*
X005125Y020625D03*
X004125Y020625D03*
X004125Y019625D03*
X005125Y019625D03*
X005125Y018625D03*
X004125Y018625D03*
X004125Y017625D03*
X005125Y017625D03*
X005125Y016625D03*
X004125Y016625D03*
X004125Y015625D03*
X005125Y015625D03*
X005125Y014625D03*
X004125Y014625D03*
X004125Y013625D03*
X005125Y013625D03*
X005125Y012625D03*
X004125Y012625D03*
X004125Y011625D03*
X005125Y011625D03*
X005125Y010625D03*
X004125Y010625D03*
X004125Y009625D03*
X011625Y005125D03*
X012625Y005125D03*
X013625Y005125D03*
X014625Y005125D03*
X015625Y005125D03*
X016625Y005125D03*
X017625Y005125D03*
X018625Y005125D03*
X019625Y005125D03*
X020625Y005125D03*
X021625Y005125D03*
X022625Y005125D03*
X023625Y005125D03*
X024625Y005125D03*
X025625Y005125D03*
X026625Y005125D03*
X027625Y005125D03*
X028625Y005125D03*
X029625Y005125D03*
X030625Y005125D03*
X031625Y005125D03*
X032625Y005125D03*
X033625Y005125D03*
X034625Y005125D03*
X034625Y004125D03*
X033625Y004125D03*
X032625Y004125D03*
X031625Y004125D03*
X030625Y004125D03*
X029625Y004125D03*
X028625Y004125D03*
X027625Y004125D03*
X026625Y004125D03*
X025625Y004125D03*
X024625Y004125D03*
X023625Y004125D03*
X022625Y004125D03*
X021625Y004125D03*
X020625Y004125D03*
X019625Y004125D03*
X018625Y004125D03*
X017625Y004125D03*
X016625Y004125D03*
X015625Y004125D03*
X014625Y004125D03*
X013625Y004125D03*
X012625Y004125D03*
X011625Y004125D03*
X035625Y004125D03*
X049875Y004125D03*
X050875Y004125D03*
X051875Y004125D03*
X052875Y004125D03*
X053875Y004125D03*
X054875Y004125D03*
X055875Y004125D03*
X056875Y004125D03*
X057875Y004125D03*
X058875Y004125D03*
X057875Y005125D03*
X056875Y005125D03*
X055875Y005125D03*
X054875Y005125D03*
X053875Y005125D03*
X052875Y005125D03*
X051875Y005125D03*
X050875Y005125D03*
X049875Y005125D03*
X072875Y005125D03*
X073875Y005125D03*
X074875Y005125D03*
X075875Y005125D03*
X076875Y005125D03*
X077875Y005125D03*
X078875Y005125D03*
X079875Y005125D03*
X080875Y005125D03*
X080875Y004125D03*
X079875Y004125D03*
X078875Y004125D03*
X077875Y004125D03*
X076875Y004125D03*
X075875Y004125D03*
X074875Y004125D03*
X073875Y004125D03*
X072875Y004125D03*
X081875Y004125D03*
X097125Y010375D03*
X098125Y010375D03*
X098125Y011375D03*
X097125Y011375D03*
X097125Y012375D03*
X098125Y012375D03*
X098125Y013375D03*
X097125Y013375D03*
X097125Y014375D03*
X098125Y014375D03*
X098125Y015375D03*
X097125Y015375D03*
X097125Y016375D03*
X098125Y016375D03*
X098125Y017375D03*
X097125Y017375D03*
X097125Y018375D03*
X098125Y018375D03*
X098125Y019375D03*
X097125Y019375D03*
X097125Y020375D03*
X098125Y020375D03*
X098125Y021375D03*
X097125Y021375D03*
X097125Y022375D03*
X098125Y022375D03*
X098125Y023375D03*
X097125Y023375D03*
X098125Y024375D03*
X090125Y036125D03*
X089125Y036125D03*
X088125Y036125D03*
X087125Y036125D03*
X086125Y036125D03*
X085125Y036125D03*
X084125Y036125D03*
X083125Y036125D03*
X082125Y036125D03*
X082125Y037125D03*
X081125Y037125D03*
X083125Y037125D03*
X084125Y037125D03*
X085125Y037125D03*
X086125Y037125D03*
X087125Y037125D03*
X088125Y037125D03*
X089125Y037125D03*
X090125Y037125D03*
X066625Y037125D03*
X065625Y037125D03*
X064625Y037125D03*
X063625Y037125D03*
X062625Y037125D03*
X061625Y037125D03*
X060625Y037125D03*
X059625Y037125D03*
X058625Y037125D03*
X057625Y037125D03*
X058625Y036125D03*
X059625Y036125D03*
X060625Y036125D03*
X061625Y036125D03*
X062625Y036125D03*
X063625Y036125D03*
X064625Y036125D03*
X065625Y036125D03*
X066625Y036125D03*
X043125Y036125D03*
X042125Y036125D03*
X041125Y036125D03*
X040125Y036125D03*
X039125Y036125D03*
X038125Y036125D03*
X037125Y036125D03*
X036125Y036125D03*
X035125Y036125D03*
X035125Y037125D03*
X034125Y037125D03*
X036125Y037125D03*
X037125Y037125D03*
X038125Y037125D03*
X039125Y037125D03*
X040125Y037125D03*
X041125Y037125D03*
X042125Y037125D03*
X043125Y037125D03*
X019625Y037125D03*
X018625Y037125D03*
X017625Y037125D03*
X016625Y037125D03*
X015625Y037125D03*
X014625Y037125D03*
X013625Y037125D03*
X012625Y037125D03*
X011625Y037125D03*
X010625Y037125D03*
X011625Y036125D03*
X012625Y036125D03*
X013625Y036125D03*
X014625Y036125D03*
X015625Y036125D03*
X016625Y036125D03*
X017625Y036125D03*
X018625Y036125D03*
X019625Y036125D03*
X005125Y023625D03*
X004125Y023625D03*
D12*
X004415Y025915D03*
X008335Y036835D03*
X021915Y036835D03*
X031835Y036835D03*
X045415Y036835D03*
X055335Y036835D03*
X068915Y036835D03*
X078835Y036835D03*
X092415Y036835D03*
X097835Y026665D03*
X097835Y008085D03*
X084165Y004415D03*
X070585Y004415D03*
X061165Y004415D03*
X047585Y004415D03*
X037915Y004415D03*
X009335Y004415D03*
X004415Y007335D03*
D13*
X029625Y023375D03*
X038625Y023375D03*
X047625Y023375D03*
X056375Y023375D03*
X066625Y023375D03*
X080375Y020375D03*
X082875Y016875D03*
X092125Y013375D03*
X087625Y011625D03*
X076125Y011625D03*
X063875Y011625D03*
X052375Y011625D03*
X026875Y027875D03*
X028625Y029625D03*
X016625Y029625D03*
X005125Y029625D03*
X007375Y024125D03*
X040125Y029625D03*
X052125Y029625D03*
X063625Y029625D03*
X075625Y029625D03*
X087125Y029625D03*
D14*
X088125Y029625D03*
X089125Y029625D03*
X090125Y029625D03*
X091125Y029625D03*
X092125Y029625D03*
X093125Y029625D03*
X094125Y029625D03*
X095125Y029625D03*
X096125Y029625D03*
X091125Y027875D03*
X089125Y027875D03*
X084625Y029625D03*
X083625Y029625D03*
X082625Y029625D03*
X081625Y029625D03*
X080625Y029625D03*
X079625Y029625D03*
X078625Y029625D03*
X077625Y029625D03*
X076625Y029625D03*
X072625Y029625D03*
X071625Y029625D03*
X070625Y029625D03*
X069625Y029625D03*
X068625Y029625D03*
X067625Y029625D03*
X066625Y029625D03*
X065625Y029625D03*
X064625Y029625D03*
X061125Y029625D03*
X060125Y029625D03*
X059125Y029625D03*
X058125Y029625D03*
X057125Y029625D03*
X056125Y029625D03*
X055125Y029625D03*
X054125Y029625D03*
X053125Y029625D03*
X049125Y029625D03*
X048125Y029625D03*
X047125Y029625D03*
X046125Y029625D03*
X045125Y029625D03*
X044125Y029625D03*
X043125Y029625D03*
X042125Y029625D03*
X041125Y029625D03*
X037625Y029625D03*
X036625Y029625D03*
X035625Y029625D03*
X034625Y029625D03*
X033625Y029625D03*
X032625Y029625D03*
X031625Y029625D03*
X030625Y029625D03*
X029625Y029625D03*
X025625Y029625D03*
X024625Y029625D03*
X023625Y029625D03*
X022625Y029625D03*
X021625Y029625D03*
X020625Y029625D03*
X019625Y029625D03*
X018625Y029625D03*
X017625Y029625D03*
X018125Y027875D03*
X019875Y027875D03*
X020875Y027875D03*
X021875Y027875D03*
X022875Y027875D03*
X023875Y027875D03*
X024875Y027875D03*
X025875Y027875D03*
X029625Y026375D03*
X030625Y026375D03*
X031625Y026375D03*
X032625Y026375D03*
X033625Y026375D03*
X034625Y026375D03*
X035625Y026375D03*
X038625Y026375D03*
X039625Y026375D03*
X040625Y026375D03*
X041625Y026375D03*
X042625Y026375D03*
X043625Y026375D03*
X044625Y026375D03*
X047625Y026375D03*
X048625Y026375D03*
X049625Y026375D03*
X050625Y026375D03*
X051625Y026375D03*
X052625Y026375D03*
X053625Y026375D03*
X056375Y026375D03*
X057375Y026375D03*
X058375Y026375D03*
X059375Y026375D03*
X060375Y026375D03*
X061375Y026375D03*
X062375Y026375D03*
X063375Y026375D03*
X066625Y026375D03*
X067625Y026375D03*
X068625Y026375D03*
X069625Y026375D03*
X070625Y026375D03*
X071625Y026375D03*
X072625Y026375D03*
X073625Y026375D03*
X074625Y026375D03*
X075625Y026375D03*
X075625Y023375D03*
X074625Y023375D03*
X073625Y023375D03*
X072625Y023375D03*
X071625Y023375D03*
X070625Y023375D03*
X069625Y023375D03*
X068625Y023375D03*
X067625Y023375D03*
X063375Y023375D03*
X062375Y023375D03*
X061375Y023375D03*
X060375Y023375D03*
X059375Y023375D03*
X058375Y023375D03*
X057375Y023375D03*
X055375Y022375D03*
X053375Y022375D03*
X053625Y023375D03*
X052625Y023375D03*
X051625Y023375D03*
X050625Y023375D03*
X049625Y023375D03*
X048625Y023375D03*
X047375Y022375D03*
X045375Y022375D03*
X044625Y023375D03*
X043625Y023375D03*
X042625Y023375D03*
X041625Y023375D03*
X040625Y023375D03*
X039625Y023375D03*
X035625Y023375D03*
X034625Y023375D03*
X033625Y023375D03*
X032625Y023375D03*
X031625Y023375D03*
X030625Y023375D03*
X029875Y021625D03*
X027875Y021625D03*
X026875Y024875D03*
X025875Y024875D03*
X024875Y024875D03*
X023875Y024875D03*
X022875Y024875D03*
X021875Y024875D03*
X020875Y024875D03*
X019875Y024875D03*
X018125Y025875D03*
X016375Y027125D03*
X015375Y027125D03*
X014375Y027125D03*
X013375Y027125D03*
X012375Y027125D03*
X011375Y027125D03*
X010375Y027125D03*
X009375Y027125D03*
X008375Y027125D03*
X007375Y027125D03*
X007125Y029625D03*
X006125Y029625D03*
X008125Y029625D03*
X009125Y029625D03*
X010125Y029625D03*
X011125Y029625D03*
X012125Y029625D03*
X013125Y029625D03*
X014125Y029625D03*
X014125Y032625D03*
X013125Y032625D03*
X012125Y032625D03*
X011125Y032625D03*
X010125Y032625D03*
X009125Y032625D03*
X008125Y032625D03*
X007125Y032625D03*
X006125Y032625D03*
X005125Y032625D03*
X004125Y033875D03*
X006125Y033875D03*
X016625Y032625D03*
X017625Y032625D03*
X018625Y032625D03*
X019625Y032625D03*
X020625Y032625D03*
X021625Y032625D03*
X022625Y032625D03*
X023625Y032625D03*
X024625Y032625D03*
X025625Y032625D03*
X028375Y033625D03*
X028625Y032625D03*
X029625Y032625D03*
X030625Y032625D03*
X031625Y032625D03*
X032625Y032625D03*
X033625Y032625D03*
X034625Y032625D03*
X035625Y032625D03*
X036625Y032625D03*
X037625Y032625D03*
X040125Y032625D03*
X041125Y032625D03*
X042125Y032625D03*
X043125Y032625D03*
X044125Y032625D03*
X045125Y032625D03*
X046125Y032625D03*
X047125Y032625D03*
X048125Y032625D03*
X049125Y032625D03*
X052125Y032625D03*
X053125Y032625D03*
X054125Y032625D03*
X055125Y032625D03*
X056125Y032625D03*
X057125Y032625D03*
X058125Y032625D03*
X059125Y032625D03*
X060125Y032625D03*
X061125Y032625D03*
X063625Y032625D03*
X064625Y032625D03*
X065625Y032625D03*
X066625Y032625D03*
X067625Y032625D03*
X068625Y032625D03*
X069625Y032625D03*
X070625Y032625D03*
X071625Y032625D03*
X072625Y032625D03*
X072875Y033625D03*
X074875Y033625D03*
X075625Y032625D03*
X076625Y032625D03*
X077625Y032625D03*
X078625Y032625D03*
X079625Y032625D03*
X080625Y032625D03*
X081625Y032625D03*
X082625Y032625D03*
X083625Y032625D03*
X084625Y032625D03*
X087125Y032625D03*
X088125Y032625D03*
X089125Y032625D03*
X090125Y032625D03*
X091125Y032625D03*
X092125Y032625D03*
X093125Y032625D03*
X094125Y032625D03*
X095125Y032625D03*
X096125Y032625D03*
X095625Y033625D03*
X093625Y033625D03*
X095375Y036125D03*
X096375Y036125D03*
X089375Y023375D03*
X088375Y023375D03*
X087375Y023375D03*
X086375Y023375D03*
X085375Y023375D03*
X084375Y023375D03*
X083375Y023375D03*
X082375Y023375D03*
X081375Y023375D03*
X080375Y023375D03*
X079125Y023375D03*
X077125Y023375D03*
X081375Y020375D03*
X082375Y020375D03*
X083375Y020375D03*
X084375Y020375D03*
X085375Y020375D03*
X086375Y020375D03*
X087375Y020375D03*
X088375Y020375D03*
X089375Y020375D03*
X081875Y016875D03*
X080875Y016875D03*
X079875Y016875D03*
X078875Y016875D03*
X077875Y016875D03*
X076875Y016875D03*
X075875Y016875D03*
X074875Y016875D03*
X073875Y016875D03*
X073875Y013875D03*
X074875Y013875D03*
X075875Y013875D03*
X076875Y013875D03*
X077875Y013875D03*
X078875Y013875D03*
X079875Y013875D03*
X080875Y013875D03*
X081875Y013875D03*
X082875Y013875D03*
X082625Y011625D03*
X081625Y011625D03*
X080625Y011625D03*
X079625Y011625D03*
X078625Y011625D03*
X075125Y011625D03*
X074125Y011625D03*
X073125Y011625D03*
X072125Y011625D03*
X071125Y011625D03*
X070125Y011625D03*
X069125Y011625D03*
X068125Y011625D03*
X067125Y011625D03*
X067625Y013125D03*
X065625Y013125D03*
X062875Y011625D03*
X061875Y011625D03*
X060875Y011625D03*
X059875Y011625D03*
X058875Y011625D03*
X057875Y011625D03*
X056875Y011625D03*
X055875Y011625D03*
X054875Y011625D03*
X051375Y011625D03*
X050375Y011625D03*
X049375Y011625D03*
X048375Y011625D03*
X047375Y011625D03*
X046375Y011625D03*
X045375Y011625D03*
X044375Y011625D03*
X043375Y011625D03*
X045875Y012625D03*
X047875Y012625D03*
X047375Y008625D03*
X046375Y008625D03*
X045375Y008625D03*
X044375Y008625D03*
X043375Y008625D03*
X048375Y008625D03*
X049375Y008625D03*
X050375Y008625D03*
X051375Y008625D03*
X052375Y008625D03*
X054875Y008625D03*
X055875Y008625D03*
X056875Y008625D03*
X057875Y008625D03*
X058875Y008625D03*
X059875Y008625D03*
X060875Y008625D03*
X061875Y008625D03*
X062875Y008625D03*
X063875Y008625D03*
X067125Y008625D03*
X068125Y008625D03*
X069125Y008625D03*
X070125Y008625D03*
X071125Y008625D03*
X072125Y008625D03*
X073125Y008625D03*
X074125Y008625D03*
X075125Y008625D03*
X076125Y008625D03*
X075875Y007625D03*
X077875Y007625D03*
X078625Y008625D03*
X079625Y008625D03*
X080625Y008625D03*
X081625Y008625D03*
X082625Y008625D03*
X083625Y008625D03*
X084625Y008625D03*
X085625Y008625D03*
X086625Y008625D03*
X087625Y008625D03*
X092125Y008375D03*
X092125Y009375D03*
X092125Y010375D03*
X092125Y011375D03*
X092125Y012375D03*
X095125Y012375D03*
X095125Y013375D03*
X094375Y015125D03*
X092375Y015125D03*
X086625Y011625D03*
X085625Y011625D03*
X084625Y011625D03*
X083625Y011625D03*
X092125Y007375D03*
X092125Y006375D03*
X092125Y005375D03*
X092125Y004375D03*
X095125Y004375D03*
X095125Y005375D03*
X095125Y006375D03*
X095125Y007375D03*
X095125Y008375D03*
X095125Y009375D03*
X095125Y010375D03*
X095125Y011375D03*
X061375Y022375D03*
X059375Y022375D03*
X051625Y033875D03*
X049625Y033875D03*
X030375Y033625D03*
X016375Y024125D03*
X015375Y024125D03*
X014375Y024125D03*
X013375Y024125D03*
X012375Y024125D03*
X011375Y024125D03*
X010375Y024125D03*
X009375Y024125D03*
X008375Y024125D03*
X014875Y022625D03*
X016875Y022625D03*
D15*
X098375Y030875D03*
X098375Y034625D03*
D16*
X003875Y003875D03*
X042875Y003875D03*
X098375Y003875D03*
X098375Y037375D03*
X050375Y037375D03*
X003875Y037375D03*
D17*
X013125Y022375D03*
X041125Y009875D03*
X091875Y018125D03*
M02*
