%
M48
M72
T01C0.0197
T02C0.0315
T03C0.0433
T04C0.0472
T05C0.0512
T06C0.1160
T07C0.1260
%
T01
X15875Y8375
X13875Y8875
X11875Y9375
X9875Y9875
X12375Y10875
X14375Y10375
X10375Y11375
X8375Y11875
X25125Y18875
X24625Y19375
X24125Y19875
X25625Y18375
X26125Y17875
X26625Y17375
X27125Y16875
X27625Y16375
X28125Y15875
X28625Y15375
X29125Y14875
X30625Y15375
X29625Y14375
X30125Y13875
X30625Y13375
X31125Y12875
X31625Y12375
X32125Y11875
X32625Y11375
X33125Y10875
X33625Y10375
X34125Y9875
X34625Y9375
X35125Y8875
X35625Y8375
X43625Y13125
X46375Y10625
X46375Y9625
X48375Y9875
X50375Y10125
X51375Y10375
X53625Y10375
X57625Y9625
X58625Y10625
X59875Y9875
X61875Y10125
X61875Y12625
X63375Y13625
X63875Y13875
X64375Y14125
X64875Y14375
X65375Y14625
X65875Y14875
X66375Y15125
X66875Y15375
X67375Y15625
X67875Y15875
X68375Y16125
X68875Y16375
X69375Y16625
X69875Y16875
X70375Y17125
X70875Y17375
X74875Y18625
X77125Y18625
X78125Y18625
X80375Y18625
X76375Y21625
X71625Y24125
X70625Y24375
X68625Y24625
X64875Y22375
X64375Y22375
X67375Y21125
X67875Y20875
X68375Y20625
X68875Y20375
X62625Y20875
X60875Y21875
X58875Y20875
X57875Y21375
X52375Y20875
X59375Y24375
X60875Y24875
X62375Y25375
X59375Y28125
X59125Y28625
X54125Y30625
X55125Y31625
X58125Y31375
X59125Y31125
X60625Y33625
X58625Y34375
X60125Y34875
X56625Y33625
X55625Y34625
X52625Y35375
X47625Y33625
X45625Y34625
X44125Y33875
X43875Y34875
X42625Y34625
X41625Y34875
X41125Y35125
X40625Y35625
X40125Y34375
X42125Y33625
X43125Y31625
X42125Y30625
X46125Y31375
X47125Y31125
X47125Y28625
X48625Y27625
X51625Y27625
X49625Y25375
X49625Y24875
X48625Y25375
X51625Y25125
X43625Y25375
X40625Y24875
X41125Y21875
X39625Y21375
X42625Y20875
X56375Y15375
X57375Y16125
X58375Y16625
X50375Y12625
X57875Y6375
X59625Y6375
X69875Y9625
X70875Y10625
X72125Y9875
X74125Y10125
X77375Y9125
X80625Y10625
X82125Y11125
X83625Y9875
X85625Y10125
X89125Y11125
X90125Y10625
X94375Y11875
X92875Y12375
X93875Y12875
X92875Y13875
X96125Y10875
X96125Y8625
X93875Y8375
X90125Y7375
X89125Y5375
X84625Y6625
X84125Y6875
X82625Y7125
X80875Y6625
X94375Y6375
X78375Y12375
X74125Y12625
X72625Y13375
X95625Y22375
X96125Y25375
X97125Y25625
X95625Y26875
X95625Y27875
X94125Y28625
X89125Y30625
X90125Y31625
X93125Y31375
X94125Y31125
X90125Y33375
X88625Y33375
X88125Y33875
X87125Y34375
X88125Y34875
X89125Y34625
X90625Y34625
X91125Y34375
X92125Y35625
X84125Y34125
X82125Y34625
X81625Y33625
X83625Y35125
X79125Y35125
X76125Y35125
X71625Y35125
X71125Y34625
X68625Y35625
X67625Y34375
X66625Y33875
X65625Y33375
X65125Y33875
X63625Y34375
X65125Y34875
X64625Y35125
X68125Y33375
X66625Y31625
X65625Y30625
X69625Y31375
X70625Y31125
X70625Y28625
X77625Y30625
X78625Y31625
X81625Y31375
X82625Y31125
X82625Y28625
X85625Y27625
X86875Y28125
X45125Y35625
X37125Y33875
X35125Y34625
X36625Y35125
X33125Y33875
X32125Y34875
X29125Y35625
X24125Y34875
X20625Y36125
X18125Y34875
X13625Y34375
X13125Y35125
X11625Y34375
X11625Y33625
X8625Y34375
X5625Y35625
X14875Y32375
X13625Y31625
X12125Y31125
X11125Y31375
X8625Y31125
X8125Y31625
X12125Y28625
X16125Y28125
X19625Y30125
X18625Y30625
X19625Y31625
X22625Y31375
X23625Y31125
X23625Y28625
X28625Y28125
X30625Y30625
X31625Y31625
X34625Y31375
X35625Y31125
X35625Y28625
X43625Y28125
T02
X43125Y29625
X42125Y29625
X41125Y29625
X40125Y29625
X37625Y29625
X36625Y29625
X35625Y29625
X34625Y29625
X33625Y29625
X32625Y29625
X31625Y29625
X30625Y29625
X29625Y29625
X28625Y29625
X25625Y29625
X24625Y29625
X23625Y29625
X22625Y29625
X21625Y29625
X20625Y29625
X19625Y29625
X18625Y29625
X17625Y29625
X16625Y29625
X14125Y29625
X13125Y29625
X12125Y29625
X11125Y29625
X10125Y29625
X9125Y29625
X8125Y29625
X7125Y29625
X6125Y29625
X5125Y29625
X7375Y27125
X8375Y27125
X9375Y27125
X10375Y27125
X11375Y27125
X12375Y27125
X13375Y27125
X14375Y27125
X15375Y27125
X16375Y27125
X18125Y27875
X19875Y27875
X20875Y27875
X21875Y27875
X22875Y27875
X23875Y27875
X24875Y27875
X25875Y27875
X26875Y27875
X29625Y26375
X30625Y26375
X31625Y26375
X32625Y26375
X33625Y26375
X34625Y26375
X35625Y26375
X38625Y26375
X39625Y26375
X40625Y26375
X41625Y26375
X42625Y26375
X43625Y26375
X44625Y26375
X47625Y26375
X48625Y26375
X49625Y26375
X50625Y26375
X51625Y26375
X52625Y26375
X53625Y26375
X56375Y26375
X57375Y26375
X58375Y26375
X59375Y26375
X60375Y26375
X61375Y26375
X62375Y26375
X63375Y26375
X66625Y26375
X67625Y26375
X68625Y26375
X69625Y26375
X70625Y26375
X71625Y26375
X72625Y26375
X73625Y26375
X74625Y26375
X75625Y26375
X75625Y23375
X74625Y23375
X73625Y23375
X72625Y23375
X71625Y23375
X70625Y23375
X69625Y23375
X68625Y23375
X67625Y23375
X66625Y23375
X63375Y23375
X62375Y23375
X61375Y23375
X60375Y23375
X59375Y23375
X58375Y23375
X57375Y23375
X56375Y23375
X55375Y22375
X53375Y22375
X53625Y23375
X52625Y23375
X51625Y23375
X50625Y23375
X49625Y23375
X48625Y23375
X47625Y23375
X47375Y22375
X45375Y22375
X44625Y23375
X43625Y23375
X42625Y23375
X41625Y23375
X40625Y23375
X39625Y23375
X38625Y23375
X35625Y23375
X34625Y23375
X33625Y23375
X32625Y23375
X31625Y23375
X30625Y23375
X29625Y23375
X29875Y21625
X27875Y21625
X26875Y24875
X25875Y24875
X24875Y24875
X23875Y24875
X22875Y24875
X21875Y24875
X20875Y24875
X19875Y24875
X18125Y25875
X16375Y24125
X15375Y24125
X14375Y24125
X13375Y24125
X12375Y24125
X11375Y24125
X10375Y24125
X9375Y24125
X8375Y24125
X7375Y24125
X14875Y22625
X16875Y22625
X16625Y32625
X17625Y32625
X18625Y32625
X19625Y32625
X20625Y32625
X21625Y32625
X22625Y32625
X23625Y32625
X24625Y32625
X25625Y32625
X28375Y33625
X28625Y32625
X29625Y32625
X30625Y32625
X31625Y32625
X32625Y32625
X33625Y32625
X34625Y32625
X35625Y32625
X36625Y32625
X37625Y32625
X40125Y32625
X41125Y32625
X42125Y32625
X43125Y32625
X44125Y32625
X45125Y32625
X46125Y32625
X47125Y32625
X48125Y32625
X49125Y32625
X52125Y32625
X53125Y32625
X54125Y32625
X55125Y32625
X56125Y32625
X57125Y32625
X58125Y32625
X59125Y32625
X60125Y32625
X61125Y32625
X63625Y32625
X64625Y32625
X65625Y32625
X66625Y32625
X67625Y32625
X68625Y32625
X69625Y32625
X70625Y32625
X71625Y32625
X72625Y32625
X72875Y33625
X74875Y33625
X75625Y32625
X76625Y32625
X77625Y32625
X78625Y32625
X79625Y32625
X80625Y32625
X81625Y32625
X82625Y32625
X83625Y32625
X84625Y32625
X87125Y32625
X88125Y32625
X89125Y32625
X90125Y32625
X91125Y32625
X92125Y32625
X93125Y32625
X94125Y32625
X95125Y32625
X96125Y32625
X95625Y33625
X93625Y33625
X95375Y36125
X96375Y36125
X96125Y29625
X95125Y29625
X94125Y29625
X93125Y29625
X92125Y29625
X91125Y29625
X90125Y29625
X89125Y29625
X88125Y29625
X87125Y29625
X84625Y29625
X83625Y29625
X82625Y29625
X81625Y29625
X80625Y29625
X79625Y29625
X78625Y29625
X77625Y29625
X76625Y29625
X75625Y29625
X72625Y29625
X71625Y29625
X70625Y29625
X69625Y29625
X68625Y29625
X67625Y29625
X66625Y29625
X65625Y29625
X64625Y29625
X63625Y29625
X61125Y29625
X60125Y29625
X59125Y29625
X58125Y29625
X57125Y29625
X56125Y29625
X55125Y29625
X54125Y29625
X53125Y29625
X52125Y29625
X49125Y29625
X48125Y29625
X47125Y29625
X46125Y29625
X45125Y29625
X44125Y29625
X49625Y33875
X51625Y33875
X30375Y33625
X14125Y32625
X13125Y32625
X12125Y32625
X11125Y32625
X10125Y32625
X9125Y32625
X8125Y32625
X7125Y32625
X6125Y32625
X5125Y32625
X4125Y33875
X6125Y33875
X45875Y12625
X45375Y11625
X44375Y11625
X43375Y11625
X46375Y11625
X47375Y11625
X48375Y11625
X49375Y11625
X50375Y11625
X51375Y11625
X52375Y11625
X54875Y11625
X55875Y11625
X56875Y11625
X57875Y11625
X58875Y11625
X59875Y11625
X60875Y11625
X61875Y11625
X62875Y11625
X63875Y11625
X65625Y13125
X67625Y13125
X67125Y11625
X68125Y11625
X69125Y11625
X70125Y11625
X71125Y11625
X72125Y11625
X73125Y11625
X74125Y11625
X75125Y11625
X76125Y11625
X78625Y11625
X79625Y11625
X80625Y11625
X81625Y11625
X82625Y11625
X83625Y11625
X84625Y11625
X85625Y11625
X86625Y11625
X87625Y11625
X92125Y11375
X92125Y10375
X92125Y9375
X92125Y8375
X92125Y7375
X92125Y6375
X92125Y5375
X92125Y4375
X95125Y4375
X95125Y5375
X95125Y6375
X95125Y7375
X95125Y8375
X95125Y9375
X95125Y10375
X95125Y11375
X95125Y12375
X95125Y13375
X92125Y13375
X92125Y12375
X92375Y15125
X94375Y15125
X82875Y13875
X81875Y13875
X80875Y13875
X79875Y13875
X78875Y13875
X77875Y13875
X76875Y13875
X75875Y13875
X74875Y13875
X73875Y13875
X73875Y16875
X74875Y16875
X75875Y16875
X76875Y16875
X77875Y16875
X78875Y16875
X79875Y16875
X80875Y16875
X81875Y16875
X82875Y16875
X82375Y20375
X81375Y20375
X80375Y20375
X83375Y20375
X84375Y20375
X85375Y20375
X86375Y20375
X87375Y20375
X88375Y20375
X89375Y20375
X89375Y23375
X88375Y23375
X87375Y23375
X86375Y23375
X85375Y23375
X84375Y23375
X83375Y23375
X82375Y23375
X81375Y23375
X80375Y23375
X79125Y23375
X77125Y23375
X89125Y27875
X91125Y27875
X61375Y22375
X59375Y22375
X47875Y12625
X47375Y8625
X46375Y8625
X45375Y8625
X44375Y8625
X43375Y8625
X48375Y8625
X49375Y8625
X50375Y8625
X51375Y8625
X52375Y8625
X54875Y8625
X55875Y8625
X56875Y8625
X57875Y8625
X58875Y8625
X59875Y8625
X60875Y8625
X61875Y8625
X62875Y8625
X63875Y8625
X67125Y8625
X68125Y8625
X69125Y8625
X70125Y8625
X71125Y8625
X72125Y8625
X73125Y8625
X74125Y8625
X75125Y8625
X76125Y8625
X75875Y7625
X77875Y7625
X78625Y8625
X79625Y8625
X80625Y8625
X81625Y8625
X82625Y8625
X83625Y8625
X84625Y8625
X85625Y8625
X86625Y8625
X87625Y8625
T03
X81875Y5125
X80875Y5125
X79875Y5125
X78875Y5125
X77875Y5125
X76875Y5125
X75875Y5125
X74875Y5125
X73875Y5125
X72875Y5125
X72875Y4125
X73875Y4125
X74875Y4125
X75875Y4125
X76875Y4125
X77875Y4125
X78875Y4125
X79875Y4125
X80875Y4125
X81875Y4125
X97125Y10375
X98125Y10375
X98125Y11375
X97125Y11375
X97125Y12375
X98125Y12375
X98125Y13375
X97125Y13375
X97125Y14375
X98125Y14375
X98125Y15375
X97125Y15375
X97125Y16375
X98125Y16375
X98125Y17375
X97125Y17375
X97125Y18375
X98125Y18375
X98125Y19375
X97125Y19375
X97125Y20375
X98125Y20375
X98125Y21375
X97125Y21375
X97125Y22375
X98125Y22375
X98125Y23375
X97125Y23375
X97125Y24375
X98125Y24375
X90125Y36125
X89125Y36125
X88125Y36125
X87125Y36125
X86125Y36125
X85125Y36125
X84125Y36125
X83125Y36125
X82125Y36125
X81125Y36125
X81125Y37125
X82125Y37125
X83125Y37125
X84125Y37125
X85125Y37125
X86125Y37125
X87125Y37125
X88125Y37125
X89125Y37125
X90125Y37125
X66625Y37125
X65625Y37125
X64625Y37125
X63625Y37125
X62625Y37125
X61625Y37125
X60625Y37125
X59625Y37125
X58625Y37125
X57625Y37125
X57625Y36125
X58625Y36125
X59625Y36125
X60625Y36125
X61625Y36125
X62625Y36125
X63625Y36125
X64625Y36125
X65625Y36125
X66625Y36125
X43125Y36125
X42125Y36125
X41125Y36125
X40125Y36125
X39125Y36125
X38125Y36125
X37125Y36125
X36125Y36125
X35125Y36125
X34125Y36125
X34125Y37125
X35125Y37125
X36125Y37125
X37125Y37125
X38125Y37125
X39125Y37125
X40125Y37125
X41125Y37125
X42125Y37125
X43125Y37125
X19625Y37125
X18625Y37125
X17625Y37125
X16625Y37125
X15625Y37125
X14625Y37125
X13625Y37125
X12625Y37125
X11625Y37125
X10625Y37125
X10625Y36125
X11625Y36125
X12625Y36125
X13625Y36125
X14625Y36125
X15625Y36125
X16625Y36125
X17625Y36125
X18625Y36125
X19625Y36125
X5125Y23625
X4125Y23625
X4125Y22625
X5125Y22625
X5125Y21625
X4125Y21625
X4125Y20625
X5125Y20625
X5125Y19625
X4125Y19625
X4125Y18625
X5125Y18625
X5125Y17625
X4125Y17625
X4125Y16625
X5125Y16625
X5125Y15625
X4125Y15625
X4125Y14625
X5125Y14625
X5125Y13625
X4125Y13625
X4125Y12625
X5125Y12625
X5125Y11625
X4125Y11625
X4125Y10625
X5125Y10625
X5125Y9625
X4125Y9625
X11625Y5125
X12625Y5125
X13625Y5125
X14625Y5125
X15625Y5125
X16625Y5125
X17625Y5125
X18625Y5125
X19625Y5125
X20625Y5125
X21625Y5125
X22625Y5125
X23625Y5125
X24625Y5125
X25625Y5125
X26625Y5125
X27625Y5125
X28625Y5125
X29625Y5125
X30625Y5125
X31625Y5125
X32625Y5125
X33625Y5125
X34625Y5125
X35625Y5125
X35625Y4125
X34625Y4125
X33625Y4125
X32625Y4125
X31625Y4125
X30625Y4125
X29625Y4125
X28625Y4125
X27625Y4125
X26625Y4125
X25625Y4125
X24625Y4125
X23625Y4125
X22625Y4125
X21625Y4125
X20625Y4125
X19625Y4125
X18625Y4125
X17625Y4125
X16625Y4125
X15625Y4125
X14625Y4125
X13625Y4125
X12625Y4125
X11625Y4125
X49875Y4125
X50875Y4125
X51875Y4125
X52875Y4125
X53875Y4125
X54875Y4125
X55875Y4125
X56875Y4125
X57875Y4125
X58875Y4125
X58875Y5125
X57875Y5125
X56875Y5125
X55875Y5125
X54875Y5125
X53875Y5125
X52875Y5125
X51875Y5125
X50875Y5125
X49875Y5125
X25875Y21875
X24875Y21875
X23875Y21875
X22875Y21875
X21875Y21875
X20875Y21875
X19875Y21875
X18875Y21875
X18875Y22875
X19875Y22875
X20875Y22875
X21875Y22875
X22875Y22875
X23875Y22875
X24875Y22875
X25875Y22875
T04
X13125Y22375
X41125Y9875
X91875Y18125
T05
X98375Y30875
X98375Y34625
T06
X92415Y36835
X78835Y36835
X68915Y36835
X55335Y36835
X45415Y36835
X31835Y36835
X21915Y36835
X8335Y36835
X4415Y25915
X4415Y7335
X9335Y4415
X37915Y4415
X47585Y4415
X61165Y4415
X70585Y4415
X84165Y4415
X97835Y8085
X97835Y26665
T07
X3875Y3875
X42875Y3875
X98375Y3875
X98375Y37375
X50375Y37375
X3875Y37375
M30
