G04 Output by ViewMate Deluxe V11.0.9  PentaLogix LLC*
G04 Sun Jun 01 12:26:16 2014*
%FSLAX33Y33*%
%MOMM*%
%IPPOS*%
%ADD10R,1.651X1.651*%
%ADD11C,1.651*%
%ADD12C,0.6096*%
%ADD13C,0.4064*%
%ADD14C,1.016*%

%LPD*%
X0Y0D2*D12*G1X44768Y13018D2*X42228Y13018D1*X48578Y27622D2*X46672Y29528D1*X46672Y32068*X58738Y32068*X71438Y30162D2*X71438Y32068D1*X58738Y32068*X58738Y30162*X61278Y27622*X61278Y16828*X90488Y8572D2*X90488Y10478D1*X87948Y13018*X100648Y13018D2*X103188Y13018D1*X103188Y8572*X90488Y8572*X77788Y8572*X77788Y10478*X73978Y14288*X62548Y14288*X61278Y15558*X61278Y16828*X49212Y16828*X44768Y13018*X44768Y8572*X32068Y8572*X32068Y10478*X29528Y13018*X19368Y10478D2*X19368Y8572D1*X32068Y8572*D13*X58738Y27622D2*X58738Y20638D1*X68898Y30162D2*X70168Y28892D1*X70168Y16192*X71438Y27622D2*X71438Y15558D1*X68898Y16828D2*X68898Y27622D1*X67628Y17462D2*X67628Y28892D1*X66358Y30162*X63818Y30162D2*X65088Y28892D1*X65088Y18732*X66358Y27622D2*X66358Y18098D1*X63818Y19368D2*X63818Y27622D1*X62548Y20002D2*X62548Y28892D1*X61278Y30162*X56198Y30162D2*X57468Y28892D1*X57468Y21272*X54928Y22542D2*X54928Y28892D1*X53658Y30162*X51118Y24448D2*X51118Y27622D1*X49848Y25082D2*X49848Y28892D1*X48578Y30162*X51118Y30162D2*X52388Y28892D1*X52388Y23812*X53658Y27622D2*X53658Y23178D1*X56198Y21908D2*X56198Y27622D1*X21908Y10478D2*X20638Y11748D1*X20638Y16192*X21908Y16828D2*X21908Y13018D1*X25718Y18732D2*X25718Y11748D1*X26988Y10478*X24448Y10478D2*X23178Y11748D1*X23178Y17462*X24448Y13018D2*X24448Y18098D1*X26988Y19368D2*X26988Y13018D1*X28258Y20002D2*X28258Y11748D1*X29528Y10478*X32068Y20638D2*X32068Y13018D1*X35878Y22542D2*X35878Y11748D1*X37148Y10478*X34608Y10478D2*X33338Y11748D1*X33338Y21272*X34608Y13018D2*X34608Y21908D1*X37148Y23178D2*X37148Y13018D1*X38418Y23812D2*X38418Y11748D1*X39688Y10478*X42228Y10478D2*X40958Y11748D1*X40958Y25082*X39688Y13018D2*X39688Y24448D1*D10*X100648Y13018D3*X48578Y27622D3*X42228Y13018D3*D11*X42228Y10478D3*X39688Y10478D3*X37148Y10478D3*X34608Y10478D3*X32068Y10478D3*X29528Y10478D3*X26988Y10478D3*X24448Y10478D3*X21908Y10478D3*X19368Y10478D3*X19368Y13018D3*X21908Y13018D3*X24448Y13018D3*X26988Y13018D3*X29528Y13018D3*X32068Y13018D3*X34608Y13018D3*X37148Y13018D3*X39688Y13018D3*X71438Y30162D3*X68898Y30162D3*X66358Y30162D3*X63818Y30162D3*X61278Y30162D3*X58738Y30162D3*X56198Y30162D3*X53658Y30162D3*X48578Y30162D3*X51118Y30162D3*X51118Y27622D3*X53658Y27622D3*X56198Y27622D3*X58738Y27622D3*X61278Y27622D3*X63818Y27622D3*X66358Y27622D3*X68898Y27622D3*X71438Y27622D3*X100648Y10478D3*X98108Y10478D3*X95568Y10478D3*X93028Y10478D3*X90488Y10478D3*X87948Y10478D3*X85408Y10478D3*X82868Y10478D3*X80328Y10478D3*X77788Y10478D3*X77788Y13018D3*X80328Y13018D3*X82868Y13018D3*X85408Y13018D3*X87948Y13018D3*X90488Y13018D3*X93028Y13018D3*X95568Y13018D3*X98108Y13018D3*D14*X71438Y15558D3*X70168Y16192D3*X68898Y16828D3*X67628Y17462D3*X66358Y18098D3*X65088Y18732D3*X63818Y19368D3*X62548Y20002D3*X20638Y16192D3*X21908Y16828D3*X23178Y17462D3*X24448Y18098D3*X25718Y18732D3*X26988Y19368D3*X28258Y20002D3*X32068Y20638D3*X33338Y21272D3*X34608Y21908D3*X35878Y22542D3*X37148Y23178D3*X38418Y23812D3*X39688Y24448D3*X40958Y25082D3*X49848Y25082D3*X51118Y24448D3*X52388Y23812D3*X53658Y23178D3*X54928Y22542D3*X56198Y21908D3*X57468Y21272D3*X58738Y20638D3*X0Y0D2*M02*