
M48
METRIC,TZ,000.000
T01C0.5
T02C1.1
T03C2.946
T04C3.2
%
M71
G90
T01
X071438Y015558
X070168Y016192
X068898Y016828
X067628Y017462
X066358Y018098
X065088Y018732
X063818Y019368
X062548Y020002
X058738Y020638
X057468Y021272
X056198Y021908
X054928Y022542
X053658Y023178
X052388Y023812
X051118Y024448
X049848Y025082
X040958Y025082
X039688Y024448
X038418Y023812
X037148Y023178
X035878Y022542
X034608Y021908
X033338Y021272
X032068Y020638
X028258Y020002
X026988Y019368
X025718Y018732
X024448Y018098
X023178Y017462
X021908Y016828
X020638Y016192
T02
X077788Y010478
X080328Y010478
X082868Y010478
X085408Y010478
X087948Y010478
X090488Y010478
X093028Y010478
X095568Y010478
X098108Y010478
X100648Y010478
X100648Y013018
X098108Y013018
X095568Y013018
X093028Y013018
X090488Y013018
X087948Y013018
X085408Y013018
X082868Y013018
X080328Y013018
X077788Y013018
X048578Y030162
X051118Y030162
X053658Y030162
X056198Y030162
X058738Y030162
X061278Y030162
X063818Y030162
X066358Y030162
X068898Y030162
X071438Y030162
X071438Y027622
X068898Y027622
X066358Y027622
X063818Y027622
X061278Y027622
X058738Y027622
X056198Y027622
X053658Y027622
X051118Y027622
X048578Y027622
X019368Y013018
X021908Y013018
X024448Y013018
X026988Y013018
X029528Y013018
X032068Y013018
X034608Y013018
X037148Y013018
X039688Y013018
X042228Y013018
X042228Y010478
X039688Y010478
X037148Y010478
X034608Y010478
X032068Y010478
X029528Y010478
X026988Y010478
X024448Y010478
X021908Y010478
X019368Y010478
T03
X106464Y011214
X077254Y029426
X042761Y029426
X013551Y011214
X048044Y011214
X071971Y011214
T04
X108268Y030798
X011748Y030798
X060008Y009842
M30
