
M48
METRIC,TZ,000.000
T01C0.701
T02C0.8
T03C1.199
%
M71
G90
T01
X038672Y020091
X039942Y021361
X041212Y020091
X043116Y022314
X044386Y021044
X045656Y022314
X045656Y031839
X044386Y033109
X043116Y031839
X041212Y034061
X039942Y032791
X038672Y034061
X014542Y031521
X012002Y031521
X013272Y032791
X020574Y041364
X019304Y042634
X018034Y041364
X012002Y039459
X013272Y040729
X014542Y039459
X018352Y036284
X020892Y036284
X019622Y035014
X020574Y030569
X018034Y030569
X019304Y029299
X020574Y023266
X019304Y024536
X018034Y023266
X012002Y021361
X013272Y022631
X014542Y021361
X018352Y018186
X020892Y018186
X019622Y016916
X020574Y012471
X019304Y011201
X018034Y012471
X014542Y013424
X013272Y014694
X012002Y013424
T02
X021844Y014694
X023432Y015646
X023432Y020726
X021844Y021044
X021844Y032791
X023432Y033426
X018669Y046761
X015812Y042634
X013589Y046761
X010732Y042634
X006922Y041999
X006922Y039459
X010732Y036919
X010732Y035014
X006922Y032474
X006922Y029934
X010732Y029299
X010732Y024536
X006922Y023901
X006922Y021361
X010732Y018821
X010732Y016916
X006922Y014376
X006922Y011836
X010732Y011201
X015812Y011201
X016764Y014694
X015812Y016916
X015812Y018821
X016764Y021044
X015812Y024536
X015812Y029299
X016764Y032791
X015812Y035014
X015812Y036919
X016764Y039141
X021844Y039141
X023432Y038506
X036132Y039141
X031052Y039141
X027559Y037554
X027559Y035014
X032322Y032791
X034862Y032791
X040894Y029616
X043116Y029616
X045656Y029616
X047562Y029616
X051689Y028346
X051689Y025806
X047562Y024536
X045656Y024536
X043116Y024536
X040894Y024536
X036132Y015011
X036132Y011836
X031052Y011836
X031052Y015011
X027559Y016916
X027559Y019456
X032322Y021361
X034862Y021361
T03
X051372Y020409
X051372Y033426
X034544Y046761
X030734Y046761
X004064Y040729
X004064Y031204
X004064Y022631
X004064Y013106
M30
