G04 Output by ViewMate Deluxe V11.0.9  PentaLogix LLC*
G04 Sun Feb 16 15:40:48 2014*
%FSLAX33Y33*%
%MOMM*%
%IPPOS*%
%ADD111C,1.4122*%
%ADD112C,1.5113*%
%ADD113R,2.0041X2.0041*%

%LPD*%
X0Y0D2*D111*G1X38672Y20091D3*X39942Y21361D3*X41212Y20091D3*X43116Y22314D3*X44386Y21044D3*X45656Y22314D3*X45656Y31839D3*X44386Y33109D3*X43116Y31839D3*X41212Y34061D3*X39942Y32791D3*X38672Y34061D3*X14542Y31521D3*X12002Y31521D3*X13272Y32791D3*X20574Y41364D3*X19304Y42634D3*X18034Y41364D3*X12002Y39459D3*X13272Y40729D3*X14542Y39459D3*X18352Y36284D3*X20892Y36284D3*X19622Y35014D3*X20574Y30569D3*X18034Y30569D3*X19304Y29299D3*X20574Y23266D3*X19304Y24536D3*X18034Y23266D3*X12002Y21361D3*X13272Y22631D3*X14542Y21361D3*X18352Y18186D3*X20892Y18186D3*X19622Y16916D3*X20574Y12471D3*X19304Y11201D3*X18034Y12471D3*X14542Y13424D3*X13272Y14694D3*X12002Y13424D3*D112*X21844Y14694D3*X23432Y15646D3*X23432Y20726D3*X21844Y21044D3*X21844Y32791D3*X23432Y33426D3*X18669Y46761D3*X15812Y42634D3*X13589Y46761D3*X10732Y42634D3*X6922Y41999D3*X6922Y39459D3*X10732Y36919D3*X10732Y35014D3*X6922Y32474D3*X6922Y29934D3*X10732Y29299D3*X10732Y24536D3*X6922Y23901D3*X6922Y21361D3*X10732Y18821D3*X10732Y16916D3*X6922Y14376D3*X6922Y11836D3*X10732Y11201D3*X15812Y11201D3*X16764Y14694D3*X15812Y16916D3*X15812Y18821D3*X16764Y21044D3*X15812Y24536D3*X15812Y29299D3*X16764Y32791D3*X15812Y35014D3*X15812Y36919D3*X16764Y39141D3*X21844Y39141D3*X23432Y38506D3*X36132Y39141D3*X31052Y39141D3*X27559Y37554D3*X27559Y35014D3*X32322Y32791D3*X34862Y32791D3*X40894Y29616D3*X43116Y29616D3*X45656Y29616D3*X47562Y29616D3*X51689Y28346D3*X51689Y25806D3*X47562Y24536D3*X45656Y24536D3*X43116Y24536D3*X40894Y24536D3*X36132Y15011D3*X36132Y11836D3*X31052Y11836D3*X31052Y15011D3*X27559Y16916D3*X27559Y19456D3*X32322Y21361D3*X34862Y21361D3*D113*X51372Y20409D3*X51372Y33426D3*X34544Y46761D3*X30734Y46761D3*X4064Y40729D3*X4064Y31204D3*X4064Y22631D3*X4064Y13106D3*X0Y0D2*M02*