G04 Output by ViewMate Deluxe V11.0.9  PentaLogix LLC*
G04 Sun Feb 16 15:40:48 2014*
%FSLAX33Y33*%
%MOMM*%
%IPPOS*%
%ADD10C,1.209*%
%ADD11C,1.3081*%
%ADD12R,1.8009X1.8009*%
%ADD13C,0.4064*%

%LPD*%
X0Y0D2*D13*G1X52324Y11379D2*X37089Y11379D1*X37191Y11781D2*X52324Y11781D1*X52324Y12184D2*X37135Y12184D1*X36881Y12586D2*X52324Y12586D1*X42240Y30300D2*X41770Y30300D1*X41971Y29898D2*X42040Y29898D1*X42012Y29494D2*X41999Y29494D1*X41874Y29093D2*X42136Y29093D1*X42502Y28689D2*X41509Y28689D1*X44841Y30300D2*X43993Y30300D1*X44193Y29898D2*X44625Y29898D1*X44597Y29494D2*X44221Y29494D1*X44097Y29093D2*X44727Y29093D1*X45123Y28689D2*X43731Y28689D1*X46586Y29093D2*X46632Y29093D1*X47028Y28689D2*X46190Y28689D1*X46538Y23858D2*X46741Y23858D1*X45049Y25469D2*X43637Y25469D1*X44046Y25067D2*X44679Y25067D1*X44552Y24663D2*X44176Y24663D1*X44150Y24262D2*X44577Y24262D1*X44775Y23858D2*X43937Y23858D1*X43807Y23053D2*X44966Y23053D1*X44701Y22652D2*X44072Y22652D1*X44127Y22248D2*X44646Y22248D1*X50066Y19832D2*X42197Y19832D1*X41979Y19431D2*X50066Y19431D1*X39439Y19431D2*X40444Y19431D1*X40226Y19832D2*X39657Y19832D1*X39682Y20236D2*X40201Y20236D1*X34862Y22474D2*X34862Y21361D1*X39441Y22248D2*X35532Y22248D1*X35862Y21847D2*X39047Y21847D1*X35971Y21450D2*X35971Y21361D1*X34862Y21361*X34862Y22474*X33861Y21847D2*X33269Y21847D1*X34138Y22210D2*X34280Y22311D1*X34435Y22393*X34602Y22446*X34775Y22474*X34862Y22474*X34948Y22474*X35121Y22446*X35288Y22393*X35443Y22311*X35585Y22210*X35710Y22085*X35811Y21943*X35890Y21788*X35946Y21623*X35971Y21450*X38931Y21443D2*X35971Y21443D1*X35926Y21041D2*X38321Y21041D1*X35710Y20638D2*X35811Y20780D1*X35890Y20935*X35946Y21102*X35971Y21275*X35971Y21361*X34862Y21361*X34013Y20638D2*X34138Y20516D1*X34280Y20411*X34435Y20333*X34602Y20277*X34775Y20251*X34862Y20251*X34862Y21361*X33752Y21361*X33381Y21443D2*X33752Y21443D1*X12593Y12586D2*X13950Y12586D1*X13627Y12990D2*X12916Y12990D1*X13012Y13391D2*X13531Y13391D1*X2860Y39560D2*X2794Y39560D1*X9891Y41976D2*X7981Y41976D1*X7912Y42377D2*X9690Y42377D1*X9672Y42781D2*X7640Y42781D1*X15337Y43586D2*X11206Y43586D1*X11651Y43183D2*X14892Y43183D1*X14752Y42781D2*X11791Y42781D1*X11773Y42377D2*X14770Y42377D1*X14971Y41976D2*X11572Y41976D1*X17216Y41976D2*X16652Y41976D1*X16286Y43586D2*X18961Y43586D1*X18438Y43183D2*X16731Y43183D1*X16871Y42781D2*X18293Y42781D1*X16871Y42423D2*X16871Y42845D1*X16711Y43236*X16411Y43533*X16022Y43696*X15601Y43696*X15212Y43533*X14912Y43236*X14752Y42845*X14752Y42423*X14912Y42034*X15212Y41735*X15601Y41575*X16022Y41575*X16411Y41735*X16711Y42034*X16871Y42423*X18316Y42377D2*X16853Y42377D1*X19042Y41572D2*X19566Y41572D1*X19563Y41171D2*X19045Y41171D1*X18867Y40767D2*X19741Y40767D1*X13012Y31509D2*X13531Y31509D1*X13619Y31105D2*X12924Y31105D1*X12611Y30704D2*X13932Y30704D1*X9698Y24262D2*X7920Y24262D1*X7981Y23858D2*X9911Y23858D1*X12667Y23457D2*X7884Y23457D1*X7572Y23053D2*X12352Y23053D1*X6922Y21361D2*X6922Y22474D1*X6922Y21361*X8031Y21450D2*X8031Y21361D1*X6922Y21361*X5812Y21361*X2794Y21443D2*X2878Y21443D1*X5857Y21041D2*X2794Y21041D1*X6073Y20638D2*X6198Y20516D1*X6340Y20411*X6495Y20333*X6662Y20277*X6835Y20251*X6922Y20251*X6922Y21361*X5812Y21361*X5250Y21443D2*X5812Y21443D1*X5921Y21847D2*X5370Y21847D1*X5370Y22248D2*X6251Y22248D1*X2794Y23858D2*X2916Y23858D1*X10404Y28288D2*X2794Y28288D1*X11069Y31910D2*X7882Y31910D1*X8021Y32314D2*X11364Y32314D1*X12261Y32715D2*X8009Y32715D1*X7828Y33119D2*X12314Y33119D1*X5370Y31509D2*X6370Y31509D1*X5961Y31910D2*X5370Y31910D1*X5329Y32314D2*X5822Y32314D1*X2794Y32314D2*X2799Y32314D1*X5834Y32715D2*X2794Y32715D1*X2794Y33119D2*X6015Y33119D1*X6546Y33520D2*X2794Y33520D1*X6922Y33586D2*X6922Y32474D1*X6922Y33586*X7348Y33505D2*X7503Y33424D1*X7645Y33322*X7770Y33198*X7871Y33056*X7950Y32901*X8006Y32736*X8031Y32563*X8031Y32474*X6922Y32474*X5812Y32474*X6922Y32474*X6922Y31364*X6835Y31364*X6662Y31389*X6495Y31445*X6340Y31524*X6198Y31628*X6073Y31750*X5972Y31892*X5893Y32047*X5837Y32215*X5812Y32388*X5812Y32474*X5812Y32563*X5837Y32736*X5893Y32901*X5972Y33056*X6073Y33198*X6198Y33322*X6340Y33424*X6495Y33505*X6662Y33558*X6835Y33586*X6922Y33586*X7008Y33586*X7181Y33558*X7348Y33505*X12570Y33520D2*X7297Y33520D1*X15994Y33520D2*X13973Y33520D1*X14229Y33119D2*X15751Y33119D1*X15705Y32715D2*X14282Y32715D1*X15179Y32314D2*X15814Y32314D1*X16147Y31910D2*X15474Y31910D1*X19528Y30300D2*X19591Y30300D1*X19017Y30300D2*X19080Y30300D1*X19563Y30704D2*X19045Y30704D1*X18905Y31105D2*X19703Y31105D1*X20201Y31509D2*X18407Y31509D1*X22832Y34326D2*X23221Y34488D1*X23642Y34488*X24031Y34326*X22847Y32314D2*X31372Y32314D1*X31704Y31910D2*X22522Y31910D1*X35850Y47612D2*X48656Y47612D1*X48425Y47208D2*X35850Y47208D1*X35850Y46807D2*X48318Y46807D1*X48235Y46403D2*X35850Y46403D1*X35850Y46002D2*X48235Y46002D1*X48278Y45598D2*X35756Y45598D1*X52291Y43586D2*X52324Y43586D1*X19647Y43586D2*X49817Y43586D1*X52324Y43183D2*X20170Y43183D1*X20315Y42781D2*X52324Y42781D1*X52324Y42377D2*X20292Y42377D1*X21392Y41976D2*X52324Y41976D1*X52324Y41572D2*X21582Y41572D1*X21585Y41171D2*X52324Y41171D1*X17473Y38351D2*X21062Y38351D1*X20803Y38755D2*X17752Y38755D1*X17823Y39157D2*X20734Y39157D1*X20810Y39560D2*X17739Y39560D1*X17442Y39962D2*X21092Y39962D1*X14282Y40767D2*X17201Y40767D1*X17023Y41171D2*X14183Y41171D1*X13858Y41572D2*X17026Y41572D1*X7892Y41572D2*X12685Y41572D1*X12360Y41171D2*X7592Y41171D1*X7783Y38755D2*X11278Y38755D1*X11034Y39157D2*X7991Y39157D1*X8031Y39560D2*X10991Y39560D1*X11115Y39962D2*X7912Y39962D1*X7567Y40366D2*X11547Y40366D1*X2794Y38755D2*X6060Y38755D1*X5852Y39157D2*X2794Y39157D1*X5812Y39560D2*X5268Y39560D1*X5370Y39962D2*X5931Y39962D1*X9812Y43183D2*X2794Y43183D1*X10132Y43533D2*X10521Y43696D1*X10942Y43696*X11331Y43533*X11631Y43236*X11791Y42845*X11791Y42423*X11631Y42034*X11331Y41735*X10942Y41575*X10521Y41575*X10132Y41735*X9832Y42034*X9672Y42423*X9672Y42845*X9832Y43236*X10132Y43533*X4666Y43586D2*X10257Y43586D1*X12868Y47612D2*X5827Y47612D1*X6058Y47208D2*X12570Y47208D1*X12479Y46807D2*X6165Y46807D1*X6248Y46403D2*X12537Y46403D1*X12779Y46002D2*X6248Y46002D1*X17930Y46002D2*X14399Y46002D1*X14641Y46403D2*X17671Y46403D1*X17610Y46807D2*X14699Y46807D1*X14608Y47208D2*X17706Y47208D1*X18019Y47612D2*X14310Y47612D1*X29378Y47612D2*X19319Y47612D1*X30831Y46403D2*X30637Y46403D1*X30637Y46002D2*X30831Y46002D1*X30831Y45598D2*X30637Y45598D1*X33332Y45598D2*X32009Y45598D1*X32090Y46002D2*X33238Y46002D1*X33238Y46403D2*X32090Y46403D1*X32090Y47612D2*X33238Y47612D1*X33238Y47208D2*X32090Y47208D1*X30831Y46807D2*X33238Y46807D1*X19728Y46807D2*X30637Y46807D1*X29378Y47208D2*X19632Y47208D1*X19667Y46403D2*X29378Y46403D1*X29378Y46002D2*X19408Y46002D1*X29469Y45580D2*X29408Y45684D1*X29378Y45801*X29378Y46665*X30637Y46665*X30637Y45405*X29774Y45405*X29657Y45436*X29553Y45496*X29469Y45580*X6205Y45598D2*X29459Y45598D1*X48384Y45197D2*X6099Y45197D1*X5916Y44793D2*X48567Y44793D1*X48804Y44392D2*X5679Y44392D1*X5278Y43988D2*X49205Y43988D1*X2794Y42781D2*X6203Y42781D1*X2794Y41976D2*X2936Y41976D1*X5931Y42377D2*X2794Y42377D1*X5862Y41976D2*X5192Y41976D1*X5370Y41572D2*X5951Y41572D1*X6251Y41171D2*X5370Y41171D1*X6711Y40940D2*X6322Y41100D1*X6022Y41399*X5862Y41788*X5862Y42210*X6022Y42601*X6322Y42898*X6711Y43061*X7132Y43061*X7521Y42898*X7821Y42601*X7981Y42210*X7981Y41788*X7821Y41399*X7521Y41100*X7132Y40940*X6711Y40940*X6922Y40571D2*X6922Y39459D1*X6922Y40571*X6340Y40409D2*X6495Y40490D1*X6662Y40543*X6835Y40571*X6922Y40571*X7008Y40571*X7181Y40543*X7348Y40490*X7503Y40409*X7645Y40307*X7770Y40183*X7871Y40041*X7950Y39886*X8006Y39721*X8031Y39548*X8031Y39459*X6922Y39459*X5812Y39459*X5812Y39548*X5837Y39721*X5893Y39886*X5972Y40041*X6073Y40183*X6198Y40307*X6340Y40409*X5370Y40366D2*X6276Y40366D1*X12261Y40767D2*X5370Y40767D1*X13531Y39560D2*X13012Y39560D1*X12969Y39157D2*X13574Y39157D1*X13818Y38755D2*X12725Y38755D1*X11648Y37546D2*X14940Y37546D1*X14757Y37145D2*X11821Y37145D1*X11829Y36741D2*X14752Y36741D1*X14905Y36340D2*X11684Y36340D1*X11354Y35936D2*X15265Y35936D1*X14879Y35535D2*X11714Y35535D1*X11839Y35131D2*X14752Y35131D1*X14783Y34729D2*X11806Y34729D1*X11605Y34326D2*X15001Y34326D1*X10732Y38031D2*X10732Y36919D1*X10732Y38031*X15527Y37950D2*X11158Y37950D1*X15776Y38755D2*X15265Y38755D1*X15509Y39157D2*X15705Y39157D1*X15789Y39560D2*X15552Y39560D1*X15428Y39962D2*X16086Y39962D1*X15113Y40315D2*X15397Y40033D1*X15552Y39660*X15552Y39258*X15397Y38887*X15113Y38603*X14742Y38448*X14341Y38448*X13970Y38603*X13686Y38887*X13531Y39258*X13531Y39660*X13574Y39761*X13472Y39718*X13071Y39718*X12969Y39761*X13012Y39660*X13012Y39258*X12857Y38887*X12573Y38603*X12202Y38448*X11801Y38448*X11430Y38603*X11146Y38887*X10991Y39258*X10991Y39660*X11146Y40033*X11430Y40315*X11801Y40470*X12202Y40470*X12304Y40429*X12261Y40528*X12261Y40930*X12416Y41303*X12700Y41585*X13071Y41740*X13472Y41740*X13843Y41585*X14127Y41303*X14282Y40930*X14282Y40528*X14239Y40429*X14341Y40470*X14742Y40470*X15113Y40315*X17805Y40366D2*X14996Y40366D1*X20345Y40366D2*X18263Y40366D1*X20775Y40353D2*X20373Y40353D1*X20002Y40508*X19718Y40792*X19563Y41163*X19563Y41565*X19606Y41666*X19505Y41623*X19103Y41623*X19002Y41666*X19045Y41565*X19045Y41163*X18890Y40792*X18606Y40508*X18235Y40353*X17833Y40353*X17462Y40508*X17178Y40792*X17023Y41163*X17023Y41565*X17178Y41938*X17462Y42220*X17833Y42375*X18235Y42375*X18336Y42334*X18293Y42433*X18293Y42835*X18448Y43208*X18732Y43490*X19103Y43645*X19505Y43645*X19876Y43490*X20160Y43208*X20315Y42835*X20315Y42433*X20272Y42334*X20373Y42375*X20775Y42375*X21146Y42220*X21430Y41938*X21585Y41565*X21585Y41163*X21430Y40792*X21146Y40508*X20775Y40353*X52324Y40366D2*X20803Y40366D1*X21407Y40767D2*X52324Y40767D1*X21844Y40254D2*X21844Y39141D1*X20734Y39141*X21844Y39141*X21844Y38031*X21844Y39141*X21844Y40254*X22878Y39560D2*X23203Y39560D1*X30373Y39962D2*X22596Y39962D1*X23660Y39560D2*X30076Y39560D1*X29992Y39157D2*X24280Y39157D1*X24475Y38755D2*X30063Y38755D1*X26784Y38351D2*X24491Y38351D1*X24348Y37950D2*X26520Y37950D1*X26449Y37546D2*X23884Y37546D1*X21455Y37145D2*X26523Y37145D1*X18915Y37145D2*X20328Y37145D1*X19987Y36741D2*X19256Y36741D1*X19362Y36340D2*X19881Y36340D1*X16622Y34326D2*X18880Y34326D1*X18646Y34729D2*X16840Y34729D1*X16871Y35131D2*X18611Y35131D1*X16744Y35535D2*X17673Y35535D1*X17402Y35936D2*X16358Y35936D1*X16718Y36340D2*X17341Y36340D1*X17447Y36741D2*X16871Y36741D1*X16866Y37145D2*X17788Y37145D1*X22979Y37546D2*X16683Y37546D1*X22532Y37907D2*X22416Y38186D1*X22271Y38113*X22103Y38057*X21930Y38031*X21844Y38031*X21758Y38031*X21585Y38057*X21417Y38113*X21262Y38191*X21120Y38296*X20996Y38418*X20894Y38560*X20815Y38715*X20759Y38882*X20734Y39055*X20734Y39141*X20734Y39230*X20759Y39403*X20815Y39568*X20894Y39723*X20996Y39865*X21120Y39990*X21262Y40091*X21417Y40173*X21585Y40226*X21758Y40254*X21844Y40254*X21930Y40254*X22103Y40226*X22271Y40173*X22426Y40091*X22568Y39990*X22692Y39865*X22794Y39723*X22873Y39568*X22916Y39441*X23221Y39568*X23642Y39568*X24031Y39406*X24331Y39108*X24491Y38717*X24491Y38296*X24331Y37907*X24031Y37607*X23642Y37447*X23221Y37447*X22832Y37607*X22532Y37907*X16096Y37950D2*X22515Y37950D1*X16022Y37981D2*X16411Y37818D1*X16711Y37521*X16871Y37130*X16871Y36708*X16711Y36319*X16411Y36020*X16284Y35966*X16411Y35913*X16711Y35616*X16871Y35225*X16871Y34803*X16711Y34414*X16411Y34115*X16022Y33955*X15601Y33955*X15212Y34115*X14912Y34414*X14752Y34803*X14752Y35225*X14912Y35616*X15212Y35913*X15339Y35966*X15212Y36020*X14912Y36319*X14752Y36708*X14752Y37130*X14912Y37521*X15212Y37818*X15601Y37981*X16022Y37981*X16165Y38242D2*X15865Y38542D1*X15705Y38931*X15705Y39352*X15865Y39743*X16165Y40041*X16553Y40203*X16975Y40203*X17363Y40041*X17663Y39743*X17823Y39352*X17823Y38931*X17663Y38542*X17363Y38242*X16975Y38082*X16553Y38082*X16165Y38242*X7033Y38351D2*X16055Y38351D1*X6835Y38349D2*X6922Y38349D1*X6922Y39459*X8031Y39459*X8031Y39373*X8006Y39200*X7950Y39032*X7871Y38877*X7770Y38735*X7645Y38613*X7503Y38509*X7348Y38430*X7181Y38374*X7008Y38349*X6922Y38349*X6922Y39459*X5812Y39459*X5812Y39373*X5837Y39200*X5893Y39032*X5972Y38877*X6073Y38735*X6198Y38613*X6340Y38509*X6495Y38430*X6662Y38374*X6835Y38349*X2794Y38351D2*X6810Y38351D1*X10305Y37950D2*X2794Y37950D1*X2794Y37546D2*X9815Y37546D1*X9642Y37145D2*X2794Y37145D1*X9622Y36919D2*X9622Y37008D1*X9647Y37181*X9703Y37346*X9782Y37501*X9883Y37643*X10008Y37767*X10150Y37869*X10305Y37950*X10472Y38003*X10645Y38031*X10732Y38031*X10818Y38031*X10991Y38003*X11158Y37950*X11313Y37869*X11455Y37767*X11580Y37643*X11681Y37501*X11760Y37346*X11816Y37181*X11841Y37008*X11841Y36919*X10732Y36919*X9622Y36919*X2794Y36741D2*X9634Y36741D1*X9779Y36340D2*X2794Y36340D1*X2794Y35936D2*X10109Y35936D1*X9749Y35535D2*X2794Y35535D1*X9622Y35103D2*X9647Y35276D1*X9703Y35441*X9782Y35596*X9883Y35738*X10008Y35862*X10150Y35964*X10152Y35966*X10150Y35969*X10008Y36073*X9883Y36195*X9782Y36337*X9703Y36492*X9647Y36660*X9622Y36833*X9622Y36919*X10732Y36919*X10732Y35014*X10732Y35809*X10732Y36919*X11841Y36919*X11841Y36833*X11816Y36660*X11760Y36492*X11681Y36337*X11580Y36195*X11455Y36073*X11313Y35969*X11311Y35966*X11313Y35964*X11455Y35862*X11580Y35738*X11681Y35596*X11760Y35441*X11816Y35276*X11841Y35103*X11841Y35014*X10732Y35014*X9622Y35014*X9622Y35103*X2794Y35131D2*X9624Y35131D1*X9657Y34729D2*X2794Y34729D1*X2794Y34326D2*X9858Y34326D1*X10516Y33924D2*X2794Y33924D1*X10732Y33904D2*X10645Y33904D1*X10472Y33929*X10305Y33985*X10150Y34064*X10008Y34168*X9883Y34290*X9782Y34432*X9703Y34587*X9647Y34755*X9622Y34928*X9622Y35014*X10732Y35014*X10732Y33904*X10991Y33929D2*X10818Y33904D1*X10732Y33904*X10732Y35014*X11841Y35014*X11841Y34928*X11816Y34755*X11760Y34587*X11681Y34432*X11580Y34290*X11455Y34168*X11313Y34064*X11158Y33985*X10991Y33929*X22489Y33924D2*X10947Y33924D1*X21844Y32791D2*X21844Y33904D1*X21844Y32791*X17714Y32314D2*X20841Y32314D1*X20734Y32715D2*X17823Y32715D1*X17777Y33119D2*X20782Y33119D1*X21001Y33520D2*X17534Y33520D1*X20363Y34326D2*X22832Y34326D1*X22532Y34028*X22416Y33746*X22271Y33823*X22103Y33876*X21930Y33904*X21844Y33904*X21758Y33904*X21585Y33876*X21417Y33823*X21262Y33741*X21120Y33640*X20996Y33515*X20894Y33373*X20815Y33218*X20759Y33053*X20734Y32880*X20734Y32791*X21844Y32791*X21844Y31681*X21758Y31681*X21585Y31707*X21417Y31763*X21262Y31841*X17381Y31910D2*X21166Y31910D1*X17363Y31892D2*X16975Y31732D1*X16553Y31732*X16165Y31892*X15865Y32192*X15705Y32581*X15705Y33002*X15865Y33393*X16165Y33691*X16553Y33853*X16975Y33853*X17363Y33691*X17663Y33393*X17823Y33002*X17823Y32581*X17663Y32192*X17363Y31892*X15552Y31509D2*X17661Y31509D1*X17163Y31105D2*X15464Y31105D1*X15151Y30704D2*X17023Y30704D1*X11059Y28288D2*X15484Y28288D1*X14922Y28689D2*X11620Y28689D1*X11791Y29093D2*X14752Y29093D1*X14752Y29494D2*X11791Y29494D1*X11631Y29898D2*X14912Y29898D1*X7917Y30300D2*X10376Y30300D1*X9832Y29898D2*X7981Y29898D1*X7887Y29494D2*X9672Y29494D1*X9672Y29093D2*X7579Y29093D1*X2794Y28689D2*X9842Y28689D1*X6264Y29093D2*X2794Y29093D1*X2794Y29494D2*X5956Y29494D1*X5862Y29898D2*X2794Y29898D1*X5926Y30300D2*X5370Y30300D1*X5370Y30704D2*X6190Y30704D1*X11079Y31105D2*X5370Y31105D1*X10991Y31321D2*X10991Y31722D1*X11146Y32095*X11430Y32377*X11801Y32532*X12202Y32532*X12304Y32492*X12261Y32591*X12261Y32992*X12416Y33365*X12700Y33647*X13071Y33802*X13472Y33802*X13843Y33647*X14127Y33365*X14282Y32992*X14282Y32591*X14239Y32492*X14341Y32532*X14742Y32532*X15113Y32377*X15397Y32095*X15552Y31722*X15552Y31321*X15397Y30950*X15113Y30665*X14742Y30510*X14341Y30510*X13970Y30665*X13686Y30950*X13531Y31321*X13531Y31722*X13574Y31824*X13472Y31780*X13071Y31780*X12969Y31824*X13012Y31722*X13012Y31321*X12857Y30950*X12573Y30665*X12202Y30510*X11801Y30510*X11430Y30665*X11146Y30950*X10991Y31321*X7473Y31509D2*X10991Y31509D1*X7348Y31445D2*X7181Y31389D1*X7008Y31364*X6922Y31364*X6922Y32474*X8031Y32474*X8031Y32388*X8006Y32215*X7950Y32047*X7871Y31892*X7770Y31750*X7645Y31628*X7503Y31524*X7348Y31445*X7521Y30833D2*X7132Y30996D1*X6711Y30996*X6322Y30833*X6022Y30536*X5862Y30145*X5862Y29723*X6022Y29334*X6322Y29035*X6711Y28875*X7132Y28875*X7521Y29035*X7821Y29334*X7981Y29723*X7981Y30145*X7821Y30536*X7521Y30833*X11392Y30704D2*X7653Y30704D1*X10942Y30361D2*X11331Y30198D1*X11631Y29901*X11791Y29510*X11791Y29088*X11631Y28699*X11331Y28400*X10942Y28240*X10521Y28240*X10132Y28400*X9832Y28699*X9672Y29088*X9672Y29510*X9832Y29901*X10132Y30198*X10521Y30361*X10942Y30361*X15456Y30300D2*X11087Y30300D1*X17051Y30300D2*X16167Y30300D1*X16711Y29898D2*X17277Y29898D1*X18293Y29494D2*X16871Y29494D1*X16871Y29093D2*X18296Y29093D1*X18484Y28689D2*X16700Y28689D1*X40279Y28689D2*X20124Y28689D1*X20312Y29093D2*X39914Y29093D1*X39789Y29494D2*X20315Y29494D1*X21331Y29898D2*X39817Y29898D1*X40018Y30300D2*X21557Y30300D1*X39682Y33924D2*X40201Y33924D1*X40229Y34326D2*X39654Y34326D1*X39434Y34729D2*X40450Y34729D1*X28588Y34729D2*X37910Y34729D1*X37689Y34326D2*X28369Y34326D1*X24374Y33924D2*X37661Y33924D1*X31262Y32715D2*X24219Y32715D1*X24453Y33119D2*X31308Y33119D1*X31552Y33520D2*X24491Y33520D1*X34018Y33520D2*X33091Y33520D1*X33335Y33119D2*X33800Y33119D1*X33752Y32715D2*X33381Y32715D1*X33271Y32314D2*X33858Y32314D1*X32921Y31892D2*X32532Y31732D1*X32111Y31732*X31722Y31892*X31422Y32192*X31262Y32581*X31262Y33002*X31422Y33393*X31722Y33691*X32111Y33853*X32532Y33853*X32921Y33691*X33221Y33393*X33381Y33002*X33381Y32581*X33221Y32192*X32921Y31892*X34183Y31910D2*X32939Y31910D1*X34862Y33904D2*X34862Y32791D1*X34862Y33904*X37803Y33520D2*X35705Y33520D1*X35923Y33119D2*X38308Y33119D1*X35971Y32791D2*X34862Y32791D1*X33752Y32791*X34862Y32791*X34862Y31681*X34775Y31681*X34602Y31707*X34435Y31763*X34280Y31841*X34138Y31946*X34013Y32068*X33912Y32210*X33833Y32365*X33777Y32532*X33752Y32705*X33752Y32791*X33752Y32880*X33777Y33053*X33833Y33218*X33912Y33373*X34013Y33515*X34138Y33640*X34280Y33741*X34435Y33823*X34602Y33876*X34775Y33904*X34862Y33904*X34948Y33904*X35121Y33876*X35288Y33823*X35443Y33741*X35585Y33640*X35710Y33515*X35811Y33373*X35890Y33218*X35946Y33053*X35971Y32880*X35971Y32791*X38931Y32715D2*X35971Y32715D1*X35865Y32314D2*X39047Y32314D1*X35585Y31946D2*X35443Y31841D1*X35288Y31763*X35121Y31707*X34948Y31681*X34862Y31681*X34862Y32791*X35971Y32791*X35971Y32705*X35946Y32532*X35890Y32365*X35811Y32210*X35710Y32068*X35585Y31946*X39428Y31910D2*X35540Y31910D1*X42106Y31910D2*X40455Y31910D1*X40836Y32314D2*X42220Y32314D1*X42591Y32715D2*X40952Y32715D1*X43772Y33924D2*X42222Y33924D1*X42080Y33520D2*X43464Y33520D1*X43376Y33119D2*X41575Y33119D1*X44646Y31910D2*X44127Y31910D1*X44074Y31509D2*X44699Y31509D1*X44961Y31105D2*X43812Y31105D1*X52324Y31509D2*X46614Y31509D1*X46667Y31910D2*X52324Y31910D1*X50112Y32314D2*X46553Y32314D1*X46182Y32715D2*X50066Y32715D1*X50066Y33119D2*X45397Y33119D1*X45309Y33520D2*X50066Y33520D1*X50066Y33924D2*X45001Y33924D1*X42194Y34326D2*X50066Y34326D1*X42067Y34635D2*X42222Y34262D1*X42222Y33861*X42067Y33490*X41783Y33205*X41412Y33050*X41011Y33050*X40909Y33094*X40952Y32992*X40952Y32591*X40797Y32220*X40513Y31935*X40142Y31780*X39741Y31780*X39370Y31935*X39086Y32220*X38931Y32591*X38931Y32992*X38974Y33094*X38872Y33050*X38471Y33050*X38100Y33205*X37816Y33490*X37661Y33861*X37661Y34262*X37816Y34635*X38100Y34917*X38471Y35072*X38872Y35072*X39243Y34917*X39527Y34635*X39682Y34262*X39682Y33861*X39639Y33762*X39741Y33802*X40142Y33802*X40244Y33762*X40201Y33861*X40201Y34262*X40356Y34635*X40640Y34917*X41011Y35072*X41412Y35072*X41783Y34917*X42067Y34635*X50300Y34729D2*X41974Y34729D1*X28618Y35131D2*X52324Y35131D1*X52324Y35535D2*X28491Y35535D1*X28105Y35936D2*X52324Y35936D1*X27559Y38666D2*X27559Y37554D1*X27559Y38666*X30343Y38351D2*X28334Y38351D1*X35423Y38351D2*X31760Y38351D1*X32040Y38755D2*X35143Y38755D1*X35072Y39157D2*X32111Y39157D1*X32027Y39560D2*X35156Y39560D1*X31651Y40041D2*X31951Y39743D1*X32111Y39352*X32111Y38931*X31951Y38542*X31651Y38242*X31262Y38082*X30841Y38082*X30452Y38242*X30152Y38542*X29992Y38931*X29992Y39352*X30152Y39743*X30452Y40041*X30841Y40203*X31262Y40203*X31651Y40041*X35453Y39962D2*X31730Y39962D1*X52324Y39962D2*X36810Y39962D1*X37107Y39560D2*X52324Y39560D1*X52324Y39157D2*X37191Y39157D1*X37120Y38755D2*X52324Y38755D1*X36731Y38242D2*X36342Y38082D1*X35921Y38082*X35532Y38242*X35232Y38542*X35072Y38931*X35072Y39352*X35232Y39743*X35532Y40041*X35921Y40203*X36342Y40203*X36731Y40041*X37031Y39743*X37191Y39352*X37191Y38931*X37031Y38542*X36731Y38242*X52324Y38351D2*X36840Y38351D1*X28598Y37950D2*X52324Y37950D1*X28669Y37554D2*X27559Y37554D1*X26449Y37554*X26449Y37643*X26474Y37816*X26530Y37981*X26609Y38136*X26711Y38278*X26835Y38402*X26977Y38504*X27132Y38585*X27300Y38638*X27473Y38666*X27559Y38666*X27645Y38666*X27818Y38638*X27986Y38585*X28141Y38504*X28283Y38402*X28407Y38278*X28509Y38136*X28588Y37981*X28644Y37816*X28669Y37643*X28669Y37554*X52324Y37546D2*X28669Y37546D1*X28595Y37145D2*X52324Y37145D1*X52324Y36741D2*X28318Y36741D1*X21902Y36340D2*X52324Y36340D1*X26800Y36741D2*X21796Y36741D1*X27132Y36525D2*X26977Y36604D1*X26835Y36708*X26711Y36830*X26609Y36972*X26530Y37127*X26474Y37295*X26449Y37468*X26449Y37554*X27559Y37554*X27559Y36444*X27559Y37554*X28669Y37554*X28669Y37468*X28644Y37295*X28588Y37127*X28509Y36972*X28407Y36830*X28283Y36708*X28141Y36604*X27986Y36525*X27818Y36469*X27645Y36444*X27559Y36444*X27473Y36444*X27300Y36469*X27132Y36525*X21841Y35936D2*X27013Y35936D1*X26627Y35535D2*X21570Y35535D1*X20632Y35131D2*X26500Y35131D1*X20632Y34813D2*X20477Y34442D1*X20193Y34158*X19822Y34003*X19421Y34003*X19050Y34158*X18766Y34442*X18611Y34813*X18611Y35215*X18654Y35316*X18552Y35273*X18151Y35273*X17780Y35428*X17496Y35712*X17341Y36083*X17341Y36485*X17496Y36858*X17780Y37140*X18151Y37295*X18552Y37295*X18923Y37140*X19207Y36858*X19362Y36485*X19362Y36083*X19319Y35984*X19421Y36025*X19822Y36025*X19924Y35984*X19881Y36083*X19881Y36485*X20036Y36858*X20320Y37140*X20691Y37295*X21092Y37295*X21463Y37140*X21747Y36858*X21902Y36485*X21902Y36083*X21747Y35712*X21463Y35428*X21092Y35273*X20691Y35273*X20589Y35316*X20632Y35215*X20632Y34813*X26530Y34729D2*X20597Y34729D1*X26660Y34414D2*X26500Y34803D1*X26500Y35225*X26660Y35616*X26960Y35913*X27348Y36076*X27770Y36076*X28158Y35913*X28458Y35616*X28618Y35225*X28618Y34803*X28458Y34414*X28158Y34115*X27770Y33955*X27348Y33955*X26960Y34115*X26660Y34414*X26749Y34326D2*X24031Y34326D1*X24331Y34028*X24491Y33637*X24491Y33216*X24331Y32827*X24031Y32527*X23642Y32367*X23221Y32367*X22916Y32494*X22873Y32365*X22794Y32210*X22692Y32068*X22568Y31946*X22426Y31841*X22271Y31763*X22103Y31707*X21930Y31681*X21844Y31681*X21844Y32791*X20734Y32791*X20734Y32705*X20759Y32532*X20815Y32365*X20894Y32210*X20996Y32068*X21120Y31946*X21262Y31841*X42159Y31509D2*X20947Y31509D1*X21445Y31105D2*X42421Y31105D1*X21585Y30770D2*X21585Y30368D1*X21430Y29997*X21146Y29713*X20775Y29558*X20373Y29558*X20272Y29601*X20315Y29500*X20315Y29098*X20160Y28727*X19876Y28443*X19505Y28288*X19103Y28288*X18732Y28443*X18448Y28727*X18293Y29098*X18293Y29500*X18336Y29601*X18235Y29558*X17833Y29558*X17462Y29713*X17178Y29997*X17023Y30368*X17023Y30770*X17178Y31143*X17462Y31425*X17833Y31580*X18235Y31580*X18606Y31425*X18890Y31143*X19045Y30770*X19045Y30368*X19002Y30269*X19103Y30310*X19505Y30310*X19606Y30269*X19563Y30368*X19563Y30770*X19718Y31143*X20002Y31425*X20373Y31580*X20775Y31580*X21146Y31425*X21430Y31143*X21585Y30770*X40648Y30704D2*X21585Y30704D1*X40894Y30729D2*X40894Y29616D1*X40894Y30729*X41153Y30701D2*X41321Y30648D1*X41476Y30566*X41618Y30465*X41742Y30340*X41844Y30198*X41923Y30043*X41979Y29878*X42004Y29705*X42004Y29616*X40894Y29616*X39784Y29616*X40894Y29616*X40894Y28506*X40894Y29616*X42004Y29616*X42004Y29530*X41979Y29357*X41923Y29190*X41844Y29035*X41742Y28892*X41618Y28771*X41476Y28666*X41321Y28588*X41153Y28532*X40980Y28506*X40894Y28506*X40808Y28506*X40635Y28532*X40467Y28588*X40312Y28666*X40170Y28771*X40046Y28892*X39944Y29035*X39865Y29190*X39809Y29357*X39784Y29530*X39784Y29616*X39784Y29705*X39809Y29878*X39865Y30043*X39944Y30198*X40046Y30340*X40170Y30465*X40312Y30566*X40467Y30648*X40635Y30701*X40808Y30729*X40894Y30729*X40980Y30729*X41153Y30701*X42870Y30704D2*X41140Y30704D1*X43116Y30729D2*X43116Y29616D1*X43116Y30729*X43376Y30701D2*X43543Y30648D1*X43698Y30566*X43840Y30465*X43965Y30340*X44066Y30198*X44145Y30043*X44201Y29878*X44226Y29705*X44226Y29616*X43116Y29616*X42007Y29616*X43116Y29616*X43116Y28506*X43116Y29616*X44226Y29616*X44226Y29530*X44201Y29357*X44145Y29190*X44066Y29035*X43965Y28892*X43840Y28771*X43698Y28666*X43543Y28588*X43376Y28532*X43203Y28506*X43116Y28506*X43030Y28506*X42857Y28532*X42690Y28588*X42535Y28666*X42393Y28771*X42268Y28892*X42167Y29035*X42088Y29190*X42032Y29357*X42007Y29530*X42007Y29616*X42007Y29705*X42032Y29878*X42088Y30043*X42167Y30198*X42268Y30340*X42393Y30465*X42535Y30566*X42690Y30648*X42857Y30701*X43030Y30729*X43116Y30729*X43203Y30729*X43376Y30701*X52324Y30704D2*X43363Y30704D1*X46352Y31105D2*X52324Y31105D1*X46228Y30983D2*X45857Y30828D1*X45456Y30828*X45085Y30983*X44801Y31267*X44646Y31638*X44646Y32040*X44689Y32141*X44587Y32098*X44186Y32098*X44084Y32141*X44127Y32040*X44127Y31638*X43972Y31267*X43688Y30983*X43317Y30828*X42916Y30828*X42545Y30983*X42261Y31267*X42106Y31638*X42106Y32040*X42261Y32413*X42545Y32695*X42916Y32850*X43317Y32850*X43419Y32809*X43376Y32908*X43376Y33310*X43531Y33683*X43815Y33965*X44186Y34120*X44587Y34120*X44958Y33965*X45242Y33683*X45397Y33310*X45397Y32908*X45354Y32809*X45456Y32850*X45857Y32850*X46228Y32695*X46512Y32413*X46667Y32040*X46667Y31638*X46512Y31267*X46228Y30983*X46746Y30300D2*X46472Y30300D1*X52324Y30300D2*X48377Y30300D1*X48593Y29898D2*X52324Y29898D1*X52324Y29494D2*X48621Y29494D1*X2794Y26274D2*X50681Y26274D1*X50579Y25872D2*X2794Y25872D1*X51689Y26919D2*X51689Y25806D1*X50579Y25806*X51689Y25806*X51689Y24696*X51689Y25806*X51689Y26919*X2794Y27079D2*X52324Y27079D1*X50996Y26678D2*X2794Y26678D1*X2794Y27483D2*X51054Y27483D1*X50734Y27884D2*X2794Y27884D1*X48491Y29093D2*X50935Y29093D1*X48161Y28717D2*X47772Y28557D1*X47351Y28557*X46962Y28717*X46662Y29017*X46609Y29146*X46556Y29017*X46256Y28717*X45867Y28557*X45446Y28557*X45057Y28717*X44757Y29017*X44597Y29406*X44597Y29827*X44757Y30218*X45057Y30516*X45446Y30678*X45867Y30678*X46256Y30516*X46556Y30218*X46609Y30089*X46662Y30218*X46962Y30516*X47351Y30678*X47772Y30678*X48161Y30516*X48461Y30218*X48621Y29827*X48621Y29406*X48461Y29017*X48161Y28717*X50683Y28689D2*X48095Y28689D1*X16139Y28288D2*X50630Y28288D1*X16022Y28240D2*X16411Y28400D1*X16711Y28699*X16871Y29088*X16871Y29510*X16711Y29901*X16411Y30198*X16022Y30361*X15601Y30361*X15212Y30198*X14912Y29901*X14752Y29510*X14752Y29088*X14912Y28699*X15212Y28400*X15601Y28240*X16022Y28240*X18915Y25469D2*X16332Y25469D1*X16741Y25067D2*X18430Y25067D1*X17196Y23858D2*X16632Y23858D1*X16845Y24262D2*X17795Y24262D1*X18293Y24663D2*X16871Y24663D1*X18324Y24262D2*X18273Y24262D1*X19563Y23457D2*X19045Y23457D1*X19040Y23053D2*X19568Y23053D1*X19761Y22652D2*X18847Y22652D1*X40074Y23858D2*X21412Y23858D1*X20813Y24262D2*X39860Y24262D1*X20284Y24262D2*X20335Y24262D1*X39835Y24663D2*X20315Y24663D1*X20178Y25067D2*X39964Y25067D1*X40373Y25469D2*X19693Y25469D1*X42596Y25469D2*X41415Y25469D1*X41824Y25067D2*X42187Y25067D1*X42057Y24663D2*X41953Y24663D1*X41928Y24262D2*X42083Y24262D1*X41793Y23937D2*X41493Y23637D1*X41105Y23477*X40683Y23477*X40295Y23637*X39995Y23937*X39835Y24326*X39835Y24747*X39995Y25138*X40295Y25436*X40683Y25598*X41105Y25598*X41493Y25436*X41793Y25138*X41953Y24747*X41953Y24326*X41793Y23937*X42296Y23858D2*X41714Y23858D1*X42517Y23637D2*X42217Y23937D1*X42057Y24326*X42057Y24747*X42217Y25138*X42517Y25436*X42906Y25598*X43327Y25598*X43716Y25436*X44016Y25138*X44176Y24747*X44176Y24326*X44016Y23937*X43716Y23637*X43327Y23477*X42906Y23477*X42517Y23637*X21580Y23053D2*X42426Y23053D1*X45387Y23457D2*X21585Y23457D1*X45656Y25649D2*X45656Y24536D1*X44547Y24536*X45656Y24536*X45656Y23426*X45656Y24536*X45656Y25649*X47041Y25469D2*X46264Y25469D1*X50630Y25469D2*X48082Y25469D1*X48491Y25067D2*X50858Y25067D1*X52324Y24663D2*X48621Y24663D1*X48595Y24262D2*X52324Y24262D1*X52324Y23858D2*X48382Y23858D1*X45926Y23457D2*X52324Y23457D1*X46083Y23508D2*X45916Y23452D1*X45743Y23426*X45656Y23426*X45570Y23426*X45397Y23452*X45230Y23508*X45075Y23586*X44933Y23691*X44808Y23812*X44707Y23955*X44628Y24110*X44572Y24277*X44547Y24450*X44547Y24536*X44547Y24625*X44572Y24798*X44628Y24963*X44707Y25118*X44808Y25260*X44933Y25385*X45075Y25486*X45230Y25568*X45397Y25621*X45570Y25649*X45656Y25649*X45743Y25649*X45916Y25621*X46083Y25568*X46238Y25486*X46380Y25385*X46505Y25260*X46606Y25118*X46634Y25067*X46662Y25138*X46962Y25436*X47351Y25598*X47772Y25598*X48161Y25436*X48461Y25138*X48621Y24747*X48621Y24326*X48461Y23937*X48161Y23637*X47772Y23477*X47351Y23477*X46962Y23637*X46662Y23937*X46634Y24006*X46606Y23955*X46505Y23812*X46380Y23691*X46238Y23586*X46083Y23508*X52324Y23053D2*X46347Y23053D1*X46612Y22652D2*X52324Y22652D1*X52324Y22248D2*X46667Y22248D1*X46556Y21847D2*X52324Y21847D1*X50066Y21443D2*X46192Y21443D1*X45397Y21041D2*X50066Y21041D1*X50066Y20638D2*X45311Y20638D1*X45006Y20236D2*X50066Y20236D1*X42222Y20236D2*X43767Y20236D1*X43462Y20638D2*X42080Y20638D1*X41562Y21041D2*X43376Y21041D1*X42581Y21443D2*X40952Y21443D1*X40836Y21847D2*X42217Y21847D1*X42106Y22248D2*X40442Y22248D1*X42106Y22515D2*X42106Y22113D1*X42261Y21742*X42545Y21458*X42916Y21303*X43317Y21303*X43419Y21346*X43376Y21245*X43376Y20843*X43531Y20472*X43815Y20188*X44186Y20033*X44587Y20033*X44958Y20188*X45242Y20472*X45397Y20843*X45397Y21245*X45354Y21346*X45456Y21303*X45857Y21303*X46228Y21458*X46512Y21742*X46667Y22113*X46667Y22515*X46512Y22888*X46228Y23170*X45857Y23325*X45456Y23325*X45085Y23170*X44801Y22888*X44646Y22515*X44646Y22113*X44689Y22014*X44587Y22055*X44186Y22055*X44084Y22014*X44127Y22113*X44127Y22515*X43972Y22888*X43688Y23170*X43317Y23325*X42916Y23325*X42545Y23170*X42261Y22888*X42106Y22515*X21387Y22652D2*X42161Y22652D1*X26513Y19832D2*X24036Y19832D1*X52324Y18626D2*X28298Y18626D1*X28588Y19027D2*X52324Y19027D1*X37904Y19431D2*X28669Y19431D1*X28605Y19832D2*X37686Y19832D1*X37661Y20236D2*X28351Y20236D1*X37816Y20665D2*X38100Y20947D1*X38471Y21102*X38872Y21102*X38974Y21062*X38931Y21161*X38931Y21562*X39086Y21935*X39370Y22217*X39741Y22372*X40142Y22372*X40513Y22217*X40797Y21935*X40952Y21562*X40952Y21161*X40909Y21062*X41011Y21102*X41412Y21102*X41783Y20947*X42067Y20665*X42222Y20292*X42222Y19891*X42067Y19520*X41783Y19235*X41412Y19080*X41011Y19080*X40640Y19235*X40356Y19520*X40201Y19891*X40201Y20292*X40244Y20394*X40142Y20350*X39741Y20350*X39639Y20394*X39682Y20292*X39682Y19891*X39527Y19520*X39243Y19235*X38872Y19080*X38471Y19080*X38100Y19235*X37816Y19520*X37661Y19891*X37661Y20292*X37816Y20665*X37803Y20638D2*X35710Y20638D1*X35585Y20516*X35443Y20411*X35288Y20333*X35121Y20277*X34948Y20251*X34862Y20251*X34862Y21361*X33752Y21361*X33335Y21041D2*X33797Y21041D1*X33096Y20638D2*X34013Y20638D1*X33912Y20780*X33833Y20935*X33777Y21102*X33752Y21275*X33752Y21361*X33752Y21450*X33777Y21623*X33833Y21788*X33912Y21943*X34013Y22085*X34138Y22210*X32934Y22248D2*X34191Y22248D1*X24214Y21443D2*X31262Y21443D1*X31308Y21041D2*X24450Y21041D1*X24491Y20638D2*X31547Y20638D1*X26767Y20236D2*X24376Y20236D1*X27559Y19456D2*X27559Y20569D1*X27645Y20569*X27818Y20541*X27986Y20488*X28141Y20406*X28283Y20305*X28407Y20180*X28509Y20038*X28588Y19883*X28644Y19718*X28669Y19545*X28669Y19456*X27559Y19456*X27559Y20569*X27473Y20569*X27300Y20541*X27132Y20488*X26977Y20406*X26835Y20305*X26711Y20180*X26609Y20038*X26530Y19883*X26474Y19718*X26449Y19545*X26449Y19456*X27559Y19456*X23873Y16612D2*X26538Y16612D1*X20589Y16612D2*X22990Y16612D1*X22517Y16210D2*X20343Y16210D1*X52324Y13795D2*X22494Y13795D1*X36815Y14196D2*X52324Y14196D1*X52324Y14600D2*X37109Y14600D1*X37191Y15001D2*X52324Y15001D1*X52324Y15405D2*X37117Y15405D1*X36835Y15806D2*X52324Y15806D1*X31755Y15806D2*X35428Y15806D1*X35146Y15405D2*X32037Y15405D1*X32111Y15001D2*X35072Y15001D1*X35154Y14600D2*X32029Y14600D1*X35532Y14112D2*X35232Y14412D1*X35072Y14801*X35072Y15222*X35232Y15613*X35532Y15911*X35921Y16073*X36342Y16073*X36731Y15911*X37031Y15613*X37191Y15222*X37191Y14801*X37031Y14412*X36731Y14112*X36342Y13952*X35921Y13952*X35532Y14112*X31735Y14196D2*X35448Y14196D1*X22837Y14196D2*X30368Y14196D1*X23190Y14600D2*X22954Y14600D1*X30074Y14600D2*X23673Y14600D1*X24285Y15001D2*X29992Y15001D1*X30066Y15405D2*X24478Y15405D1*X30452Y15911D2*X30841Y16073D1*X31262Y16073*X31651Y15911*X31951Y15613*X32111Y15222*X32111Y14801*X31951Y14412*X31651Y14112*X31262Y13952*X30841Y13952*X30452Y14112*X30152Y14412*X29992Y14801*X29992Y15222*X30152Y15613*X30452Y15911*X24491Y15806D2*X30348Y15806D1*X26767Y16210D2*X24346Y16210D1*X52324Y16210D2*X28351Y16210D1*X28580Y16612D2*X52324Y16612D1*X52324Y17015D2*X28618Y17015D1*X28499Y17417D2*X52324Y17417D1*X52324Y17821D2*X28151Y17821D1*X21902Y18222D2*X52324Y18222D1*X26820Y18626D2*X21803Y18626D1*X21834Y17821D2*X26967Y17821D1*X26619Y17417D2*X21552Y17417D1*X26500Y17127D2*X26660Y17518D1*X26960Y17816*X27348Y17978*X27770Y17978*X28158Y17816*X28458Y17518*X28618Y17127*X28618Y16706*X28458Y16317*X28158Y16017*X27770Y15857*X27348Y15857*X26960Y16017*X26660Y16317*X26500Y16706*X26500Y17127*X20632Y17015D2*X26500Y17015D1*X19362Y18222D2*X19881Y18222D1*X19980Y18626D2*X19263Y18626D1*X18941Y19027D2*X20302Y19027D1*X14912Y18222D2*X15212Y17922D1*X15339Y17869*X15212Y17816*X11725Y17417D2*X14872Y17417D1*X14752Y17015D2*X11841Y17015D1*X11801Y16612D2*X14790Y16612D1*X15019Y16210D2*X11590Y16210D1*X14912Y16317D2*X14752Y16706D1*X14752Y17127*X14912Y17518*X15212Y17816*X11379Y17821D2*X15220Y17821D1*X5370Y13795D2*X5972Y13795D1*X5824Y14196D2*X5349Y14196D1*X2794Y14600D2*X5832Y14600D1*X6002Y15001D2*X2794Y15001D1*X10991Y13391D2*X7435Y13391D1*X7871Y13795D2*X11062Y13795D1*X11344Y14196D2*X8019Y14196D1*X8011Y14600D2*X12261Y14600D1*X12306Y15001D2*X7841Y15001D1*X7353Y15405D2*X12553Y15405D1*X6922Y15489D2*X6922Y14376D1*X6922Y15489*X6495Y15408D2*X6662Y15461D1*X6835Y15489*X6922Y15489*X7008Y15489*X7181Y15461*X7348Y15408*X7503Y15326*X7645Y15225*X7770Y15100*X7871Y14958*X7950Y14803*X8006Y14638*X8031Y14465*X8031Y14376*X6922Y14376*X5812Y14376*X5812Y14465*X5837Y14638*X5893Y14803*X5972Y14958*X6073Y15100*X6198Y15225*X6340Y15326*X6495Y15408*X2794Y15405D2*X6490Y15405D1*X10635Y15806D2*X2794Y15806D1*X22372Y15806D2*X10828Y15806D1*X21844Y14694D2*X21844Y15806D1*X21844Y14694*X19035Y12184D2*X19009Y12184D1*X19573Y12184D2*X19599Y12184D1*X19045Y12586D2*X19563Y12586D1*X19695Y12990D2*X18913Y12990D1*X18456Y13391D2*X20152Y13391D1*X20851Y14196D2*X17706Y14196D1*X17823Y14600D2*X20734Y14600D1*X20775Y15001D2*X17785Y15001D1*X20996Y15418D2*X21120Y15542D1*X21262Y15644*X21417Y15725*X21585Y15778*X21758Y15806*X21844Y15806*X21930Y15806*X22103Y15778*X22271Y15725*X22372Y15672*X22372Y15857*X22532Y16248*X22832Y16546*X23221Y16708*X23642Y16708*X24031Y16546*X24331Y16248*X24491Y15857*X24491Y15436*X24331Y15047*X24031Y14747*X23642Y14587*X23221Y14587*X22954Y14696*X22954Y14694*X21844Y14694*X20734Y14694*X20734Y14783*X20759Y14956*X20815Y15121*X20894Y15276*X20996Y15418*X17554Y15405D2*X20985Y15405D1*X16604Y16210D2*X18900Y16210D1*X18654Y16612D2*X16833Y16612D1*X16871Y17015D2*X18611Y17015D1*X17691Y17417D2*X16751Y17417D1*X16403Y17821D2*X17409Y17821D1*X16871Y18611D2*X16711Y18222D1*X16871Y19027D2*X17762Y19027D1*X26449Y19431D2*X16703Y19431D1*X26530Y19030D2*X26474Y19197D1*X26449Y19370*X26449Y19456*X27559Y19456*X27559Y18346*X27559Y19456*X28669Y19456*X28669Y19370*X28644Y19197*X28588Y19030*X28509Y18875*X28407Y18732*X28283Y18611*X28141Y18506*X27986Y18428*X27818Y18372*X27645Y18346*X27559Y18346*X27473Y18346*X27300Y18372*X27132Y18428*X26977Y18506*X26835Y18611*X26711Y18732*X26609Y18875*X26530Y19030*X21481Y19027D2*X26530Y19027D1*X17455Y20236D2*X21082Y20236D1*X20808Y20638D2*X17744Y20638D1*X17823Y21041D2*X20734Y21041D1*X20805Y21443D2*X17747Y21443D1*X17462Y21847D2*X21074Y21847D1*X14282Y22652D2*X17221Y22652D1*X17023Y23457D2*X13876Y23457D1*X17023Y23066D2*X17023Y23467D1*X17178Y23840*X17462Y24122*X17833Y24277*X18235Y24277*X18336Y24237*X18293Y24336*X18293Y24737*X18448Y25110*X18732Y25392*X19103Y25547*X19505Y25547*X19876Y25392*X20160Y25110*X20315Y24737*X20315Y24336*X20272Y24237*X20373Y24277*X20775Y24277*X21146Y24122*X21430Y23840*X21585Y23467*X21585Y23066*X21430Y22695*X21146Y22410*X20775Y22255*X20373Y22255*X20002Y22410*X19718Y22695*X19563Y23066*X19563Y23467*X19606Y23569*X19505Y23525*X19103Y23525*X19002Y23569*X19045Y23467*X19045Y23066*X18890Y22695*X18606Y22410*X18235Y22255*X17833Y22255*X17462Y22410*X17178Y22695*X17023Y23066*X14191Y23053D2*X17028Y23053D1*X11552Y23858D2*X14991Y23858D1*X14778Y24262D2*X11765Y24262D1*X11791Y24663D2*X14752Y24663D1*X14882Y25067D2*X11661Y25067D1*X15212Y25436D2*X14912Y25138D1*X14752Y24747*X14752Y24326*X14912Y23937*X15212Y23637*X15601Y23477*X16022Y23477*X16411Y23637*X16711Y23937*X16871Y24326*X16871Y24747*X16711Y25138*X16411Y25436*X16022Y25598*X15601Y25598*X15212Y25436*X11252Y25469D2*X15291Y25469D1*X2794Y25469D2*X10211Y25469D1*X9802Y25067D2*X2794Y25067D1*X9672Y24747D2*X9832Y25138D1*X10132Y25436*X10521Y25598*X10942Y25598*X11331Y25436*X11631Y25138*X11791Y24747*X11791Y24326*X11631Y23937*X11331Y23637*X10942Y23477*X10521Y23477*X10132Y23637*X9832Y23937*X9672Y24326*X9672Y24747*X7658Y24663D2*X9672Y24663D1*X2794Y24663D2*X6185Y24663D1*X5923Y24262D2*X2794Y24262D1*X5212Y23858D2*X5862Y23858D1*X5959Y23457D2*X5370Y23457D1*X6322Y23002D2*X6022Y23302D1*X5862Y23691*X5862Y24112*X6022Y24503*X6322Y24801*X6711Y24963*X7132Y24963*X7521Y24801*X7821Y24503*X7981Y24112*X7981Y23691*X7821Y23302*X7521Y23002*X7132Y22842*X6711Y22842*X6322Y23002*X5370Y23053D2*X6271Y23053D1*X12261Y22652D2*X5370Y22652D1*X7922Y21847D2*X11107Y21847D1*X11501Y22248D2*X7592Y22248D1*X13531Y21443D2*X13012Y21443D1*X12962Y21041D2*X13581Y21041D1*X13835Y20638D2*X12708Y20638D1*X15784Y20638D2*X15248Y20638D1*X15502Y21041D2*X15705Y21041D1*X15781Y21443D2*X15552Y21443D1*X15436Y21847D2*X16066Y21847D1*X31709Y22248D2*X15042Y22248D1*X31422Y21963D2*X31722Y22261D1*X32111Y22423*X32532Y22423*X32921Y22261*X33221Y21963*X33381Y21572*X33381Y21151*X33221Y20762*X32921Y20462*X32532Y20302*X32111Y20302*X31722Y20462*X31422Y20762*X31262Y21151*X31262Y21572*X31422Y21963*X22614Y21847D2*X31374Y21847D1*X21844Y21044D2*X21844Y22156D1*X21844Y21044*X20734Y21044*X21844Y21044*X21844Y19934D2*X21844Y21044D1*X21844Y19934*X22832Y19827D2*X22532Y20127D1*X22517Y20160*X22426Y20094*X22271Y20015*X22103Y19959*X21930Y19934*X21844Y19934*X21758Y19934*X21585Y19959*X21417Y20015*X21262Y20094*X21120Y20198*X20996Y20320*X20894Y20462*X20815Y20617*X20759Y20785*X20734Y20958*X20734Y21044*X20734Y21133*X20759Y21306*X20815Y21471*X20894Y21626*X20996Y21768*X21120Y21892*X21262Y21994*X21417Y22075*X21585Y22128*X21758Y22156*X21844Y22156*X21930Y22156*X22103Y22128*X22271Y22075*X22426Y21994*X22568Y21892*X22692Y21768*X22794Y21626*X22807Y21603*X22832Y21626*X23221Y21788*X23642Y21788*X24031Y21626*X24331Y21328*X24491Y20937*X24491Y20516*X24331Y20127*X24031Y19827*X23642Y19667*X23221Y19667*X22832Y19827*X16142Y19832D2*X22827Y19832D1*X16165Y20145D2*X15865Y20444D1*X15705Y20833*X15705Y21255*X15865Y21646*X16165Y21943*X16553Y22106*X16975Y22106*X17363Y21943*X17663Y21646*X17823Y21255*X17823Y20833*X17663Y20444*X17363Y20145*X16975Y19985*X16553Y19985*X16165Y20145*X2794Y20236D2*X16073Y20236D1*X2794Y20638D2*X6073Y20638D1*X5972Y20780*X5893Y20935*X5837Y21102*X5812Y21275*X5812Y21361*X5812Y21450*X5837Y21623*X5893Y21788*X5972Y21943*X6073Y22085*X6198Y22210*X6340Y22311*X6495Y22393*X6662Y22446*X6835Y22474*X6922Y22474*X7008Y22474*X7181Y22446*X7348Y22393*X7503Y22311*X7645Y22210*X7770Y22085*X7871Y21943*X7950Y21788*X8006Y21623*X8031Y21450*X10991Y21443D2*X8031Y21443D1*X7986Y21041D2*X11041Y21041D1*X7770Y20638D2*X7645Y20516D1*X7503Y20411*X7348Y20333*X7181Y20277*X7008Y20251*X6922Y20251*X6922Y21361*X8031Y21361*X8031Y21275*X8006Y21102*X7950Y20935*X7871Y20780*X7770Y20638*X11295Y20638*X11430Y20505D2*X11146Y20790D1*X10991Y21161*X10991Y21562*X11146Y21935*X11430Y22217*X11801Y22372*X12202Y22372*X12304Y22332*X12261Y22431*X12261Y22832*X12416Y23205*X12700Y23487*X13071Y23642*X13472Y23642*X13843Y23487*X14127Y23205*X14282Y22832*X14282Y22431*X14239Y22332*X14341Y22372*X14742Y22372*X15113Y22217*X15397Y21935*X15552Y21562*X15552Y21161*X15397Y20790*X15113Y20505*X14742Y20350*X14341Y20350*X13970Y20505*X13686Y20790*X13531Y21161*X13531Y21562*X13574Y21664*X13472Y21620*X13071Y21620*X12969Y21664*X13012Y21562*X13012Y21161*X12857Y20790*X12573Y20505*X12202Y20350*X11801Y20350*X11430Y20505*X2794Y16210D2*X9873Y16210D1*X9662Y16612D2*X2794Y16612D1*X2794Y17015D2*X9622Y17015D1*X9738Y17417D2*X2794Y17417D1*X2794Y17821D2*X10084Y17821D1*X9794Y18222D2*X2794Y18222D1*X2794Y18626D2*X9637Y18626D1*X9639Y19027D2*X2794Y19027D1*X2794Y19431D2*X9799Y19431D1*X10269Y19832D2*X2794Y19832D1*X10732Y19934D2*X10732Y18821D1*X10732Y19934*X15481Y19832D2*X11194Y19832D1*X11664Y19431D2*X14920Y19431D1*X11816Y19083D2*X11841Y18910D1*X11841Y18821*X10732Y18821*X9622Y18821*X10732Y18821*X10732Y16916*X9622Y16916*X9622Y17005*X9647Y17178*X9703Y17343*X9782Y17498*X9883Y17640*X10008Y17765*X10150Y17866*X10152Y17869*X10150Y17871*X10008Y17976*X9883Y18098*X9782Y18240*X9703Y18395*X9647Y18562*X9622Y18735*X9622Y18821*X9622Y18910*X9647Y19083*X9703Y19248*X9782Y19403*X9883Y19545*X10008Y19670*X10150Y19771*X10305Y19853*X10472Y19906*X10645Y19934*X10732Y19934*X10818Y19934*X10991Y19906*X11158Y19853*X11313Y19771*X11455Y19670*X11580Y19545*X11681Y19403*X11760Y19248*X11816Y19083*X14752Y19027D2*X11824Y19027D1*X11826Y18626D2*X14752Y18626D1*X11681Y18240D2*X11580Y18098D1*X11455Y17976*X11313Y17871*X11311Y17869*X11313Y17866*X11455Y17765*X11580Y17640*X11681Y17498*X11760Y17343*X11816Y17178*X11841Y17005*X11841Y16916*X10732Y16916*X9622Y16916*X9622Y16830*X9647Y16657*X9703Y16490*X9782Y16335*X9883Y16192*X10008Y16071*X10150Y15966*X10305Y15888*X10472Y15832*X10645Y15806*X10732Y15806*X10732Y16916*X11841Y16916*X11841Y16830*X11816Y16657*X11760Y16490*X11681Y16335*X11580Y16192*X11455Y16071*X11313Y15966*X11158Y15888*X10991Y15832*X10818Y15806*X10732Y15806*X10732Y16916*X10732Y17711*X10732Y18821*X11841Y18821*X11841Y18735*X11816Y18562*X11760Y18395*X11681Y18240*X11669Y18222D2*X14912Y18222D1*X14752Y18611*X14752Y19032*X14912Y19423*X15212Y19721*X15601Y19883*X16022Y19883*X16411Y19721*X16711Y19423*X16871Y19032*X16871Y18611*X17440Y18626D2*X16871Y18626D1*X17341Y18387D2*X17496Y18760D1*X17780Y19042*X18151Y19197*X18552Y19197*X18923Y19042*X19207Y18760*X19362Y18387*X19362Y17986*X19319Y17887*X19421Y17927*X19822Y17927*X19924Y17887*X19881Y17986*X19881Y18387*X20036Y18760*X20320Y19042*X20691Y19197*X21092Y19197*X21463Y19042*X21747Y18760*X21902Y18387*X21902Y17986*X21747Y17615*X21463Y17330*X21092Y17175*X20691Y17175*X20589Y17219*X20632Y17117*X20632Y16716*X20477Y16345*X20193Y16060*X19822Y15905*X19421Y15905*X19050Y16060*X18766Y16345*X18611Y16716*X18611Y17117*X18654Y17219*X18552Y17175*X18151Y17175*X17780Y17330*X17496Y17615*X17341Y17986*X17341Y18387*X17341Y18222D2*X16711Y18222D1*X16411Y17922*X16284Y17869*X16411Y17816*X16711Y17518*X16871Y17127*X16871Y16706*X16711Y16317*X16411Y16017*X16022Y15857*X15601Y15857*X15212Y16017*X14912Y16317*X15974Y15405D2*X13990Y15405D1*X14237Y15001D2*X15743Y15001D1*X15705Y14600D2*X14282Y14600D1*X15199Y14196D2*X15822Y14196D1*X16167Y13795D2*X15481Y13795D1*X17059Y12184D2*X16213Y12184D1*X16718Y11781D2*X17295Y11781D1*X18293Y11379D2*X16871Y11379D1*X16866Y10975D2*X18303Y10975D1*X18504Y10574D2*X16683Y10574D1*X52324Y10574D2*X20104Y10574D1*X36769Y10975D2*X52324Y10975D1*X31758Y10975D2*X35494Y10975D1*X35174Y11379D2*X32065Y11379D1*X32161Y11781D2*X35072Y11781D1*X35128Y12184D2*X32108Y12184D1*X35232Y12438D2*X35532Y12736D1*X35921Y12898*X36342Y12898*X36731Y12736*X37031Y12438*X37191Y12047*X37191Y11626*X37031Y11237*X36731Y10937*X36342Y10777*X35921Y10777*X35532Y10937*X35232Y11237*X35072Y11626*X35072Y12047*X35232Y12438*X31874Y12586D2*X35382Y12586D1*X31052Y11836D2*X31052Y12949D1*X31052Y11836*X20305Y10975D2*X30345Y10975D1*X30038Y11379D2*X20315Y11379D1*X21313Y11781D2*X29942Y11781D1*X29995Y12184D2*X21549Y12184D1*X30203Y12560D2*X30328Y12685D1*X30470Y12786*X30625Y12868*X30792Y12921*X30965Y12949*X31052Y12949*X31138Y12949*X31311Y12921*X31478Y12868*X31633Y12786*X31775Y12685*X31900Y12560*X32001Y12418*X32080Y12263*X32136Y12098*X32161Y11925*X32161Y11836*X31052Y11836*X29942Y11836*X31052Y11836*X31052Y10726*X31052Y11836*X32161Y11836*X32161Y11750*X32136Y11577*X32080Y11410*X32001Y11255*X31900Y11112*X31775Y10991*X31633Y10886*X31478Y10808*X31311Y10752*X31138Y10726*X31052Y10726*X30965Y10726*X30792Y10752*X30625Y10808*X30470Y10886*X30328Y10991*X30203Y11112*X30102Y11255*X30023Y11410*X29967Y11577*X29942Y11750*X29942Y11836*X29942Y11925*X29967Y12098*X30023Y12263*X30102Y12418*X30203Y12560*X21585Y12586D2*X30229Y12586D1*X52324Y12990D2*X21453Y12990D1*X20996Y13391D2*X52324Y13391D1*X21262Y13744D2*X21417Y13665D1*X21585Y13609*X21758Y13584*X21844Y13584*X21844Y14694*X22954Y14694*X22954Y14608*X22929Y14435*X22873Y14267*X22794Y14112*X22692Y13970*X22568Y13848*X22426Y13744*X22271Y13665*X22103Y13609*X21930Y13584*X21844Y13584*X21844Y14694*X20734Y14694*X20734Y14608*X20759Y14435*X20815Y14267*X20894Y14112*X20996Y13970*X21120Y13848*X21262Y13744*X17361Y13795D2*X21194Y13795D1*X17363Y13795D2*X16975Y13635D1*X16553Y13635*X16165Y13795*X15865Y14094*X15705Y14483*X15705Y14905*X15865Y15296*X16165Y15593*X16553Y15756*X16975Y15756*X17363Y15593*X17663Y15296*X17823Y14905*X17823Y14483*X17663Y14094*X17363Y13795*X15552Y13391D2*X17612Y13391D1*X17155Y12990D2*X15456Y12990D1*X17023Y12672D2*X17178Y13045D1*X17462Y13327*X17833Y13482*X18235Y13482*X18606Y13327*X18890Y13045*X19045Y12672*X19045Y12271*X19002Y12172*X19103Y12212*X19505Y12212*X19606Y12172*X19563Y12271*X19563Y12672*X19718Y13045*X20002Y13327*X20373Y13482*X20775Y13482*X21146Y13327*X21430Y13045*X21585Y12672*X21585Y12271*X21430Y11900*X21146Y11615*X20775Y11460*X20373Y11460*X20272Y11504*X20315Y11402*X20315Y11001*X20160Y10630*X19876Y10345*X19505Y10190*X19103Y10190*X18732Y10345*X18448Y10630*X18293Y11001*X18293Y11402*X18336Y11504*X18235Y11460*X17833Y11460*X17462Y11615*X17178Y11900*X17023Y12271*X17023Y12672*X15133Y12586D2*X17023Y12586D1*X11133Y12184D2*X15410Y12184D1*X14905Y11781D2*X11638Y11781D1*X11791Y11379D2*X14752Y11379D1*X14757Y10975D2*X11786Y10975D1*X11603Y10574D2*X14940Y10574D1*X2794Y10574D2*X9860Y10574D1*X6284Y10975D2*X2794Y10975D1*X9677Y10975D2*X7559Y10975D1*X7879Y11379D2*X9672Y11379D1*X9825Y11781D2*X7981Y11781D1*X7925Y12184D2*X10330Y12184D1*X11410Y12586D2*X7671Y12586D1*X11146Y12852D2*X11430Y12568D1*X11801Y12413*X12202Y12413*X12573Y12568*X12857Y12852*X13012Y13223*X13012Y13625*X12969Y13726*X13071Y13683*X13472Y13683*X13574Y13726*X13531Y13625*X13531Y13223*X13686Y12852*X13970Y12568*X14341Y12413*X14742Y12413*X15113Y12568*X15397Y12852*X15552Y13223*X15552Y13625*X15397Y13998*X15113Y14280*X14742Y14435*X14341Y14435*X14239Y14394*X14282Y14493*X14282Y14895*X14127Y15268*X13843Y15550*X13472Y15705*X13071Y15705*X12700Y15550*X12416Y15268*X12261Y14895*X12261Y14493*X12304Y14394*X12202Y14435*X11801Y14435*X11430Y14280*X11146Y13998*X10991Y13625*X10991Y13223*X11146Y12852*X5370Y12990D2*X11087Y12990D1*X6408Y13391D2*X5370Y13391D1*X6495Y13348D2*X6340Y13426D1*X6198Y13531*X6073Y13652*X5972Y13795*X5893Y13950*X5837Y14117*X5812Y14290*X5812Y14376*X6922Y14376*X6922Y13266*X6922Y14376*X8031Y14376*X8031Y14290*X8006Y14117*X7950Y13950*X7871Y13795*X7770Y13652*X7645Y13531*X7503Y13426*X7348Y13348*X7181Y13292*X7008Y13266*X6922Y13266*X6835Y13266*X6662Y13292*X6495Y13348*X5370Y12586D2*X6172Y12586D1*X5918Y12184D2*X5370Y12184D1*X2794Y11781D2*X5862Y11781D1*X5964Y11379D2*X2794Y11379D1*X6022Y11237D2*X6322Y10937D1*X6711Y10777*X7132Y10777*X7521Y10937*X7821Y11237*X7981Y11626*X7981Y12047*X7821Y12438*X7521Y12736*X7132Y12898*X6711Y12898*X6322Y12736*X6022Y12438*X5862Y12047*X5862Y11626*X6022Y11237*X10450Y10170D2*X4803Y10170D1*X10942Y10142D2*X10521Y10142D1*X10132Y10302*X9832Y10602*X9672Y10991*X9672Y11412*X9832Y11803*X10132Y12101*X10521Y12263*X10942Y12263*X11331Y12101*X11631Y11803*X11791Y11412*X11791Y10991*X11631Y10602*X11331Y10302*X10942Y10142*X15530Y10170D2*X11013Y10170D1*X16022Y10142D2*X15601Y10142D1*X15212Y10302*X14912Y10602*X14752Y10991*X14752Y11412*X14912Y11803*X15212Y12101*X15601Y12263*X16022Y12263*X16411Y12101*X16711Y11803*X16871Y11412*X16871Y10991*X16711Y10602*X16411Y10302*X16022Y10142*X49680Y10170D2*X16093Y10170D1*X5357Y9769D2*X49126Y9769D1*X48755Y9365D2*X5728Y9365D1*X5961Y8964D2*X48522Y8964D1*X6093Y8661D2*X48390Y8661D1*X48428Y8799*X48798Y9441*X49322Y9964*X49967Y10335*X50683Y10528*X51425Y10528*X52141Y10335*X52324Y10231*X52324Y19103*X50302Y19103*X50066Y19342*X50066Y21478*X50302Y21717*X52324Y21717*X52324Y24895*X52271Y24856*X52116Y24778*X51948Y24722*X51775Y24696*X51689Y24696*X51603Y24696*X51430Y24722*X51262Y24778*X51107Y24856*X50965Y24961*X50841Y25082*X50739Y25225*X50660Y25380*X50604Y25547*X50579Y25720*X50579Y25806*X50579Y25895*X50604Y26068*X50660Y26233*X50739Y26388*X50841Y26530*X50965Y26655*X51107Y26756*X51262Y26838*X51430Y26891*X51603Y26919*X51689Y26919*X51775Y26919*X51948Y26891*X52116Y26838*X52271Y26756*X52324Y26718*X52324Y27483*X52288Y27447*X51900Y27287*X51478Y27287*X51090Y27447*X50790Y27747*X50630Y28136*X50630Y28557*X50790Y28948*X51090Y29246*X51478Y29408*X51900Y29408*X52288Y29246*X52324Y29213*X52324Y32121*X50302Y32121*X50066Y32360*X50066Y34496*X50302Y34734*X52324Y34734*X52324Y43604*X52141Y43500*X51425Y43307*X50683Y43307*X49967Y43500*X49322Y43871*X48798Y44397*X48428Y45039*X48235Y45756*X48235Y46497*X48428Y47216*X48715Y47714*X35850Y47714*X35850Y45695*X35613Y45456*X33475Y45456*X33238Y45695*X33238Y47714*X32090Y47714*X32090Y46858*X30831Y46858*X30831Y46665*X32090Y46665*X32090Y45801*X32060Y45684*X31999Y45580*X31915Y45496*X31811Y45436*X31694Y45405*X30831Y45405*X30831Y46665*X30637Y46665*X30637Y46858*X29378Y46858*X29378Y47714*X19141Y47714*X19268Y47661*X19568Y47363*X19728Y46972*X19728Y46551*X19568Y46162*X19268Y45862*X18880Y45702*X18458Y45702*X18070Y45862*X17770Y46162*X17610Y46551*X17610Y46972*X17770Y47363*X18070Y47661*X18197Y47714*X14168Y47714*X14171Y47711*X14313Y47610*X14437Y47485*X14539Y47343*X14618Y47188*X14674Y47023*X14699Y46850*X14699Y46761*X13589Y46761*X12479Y46761*X13589Y46761*X13589Y45651*X13589Y46761*X14699Y46761*X14699Y46675*X14674Y46502*X14618Y46335*X14539Y46180*X14437Y46038*X14313Y45916*X14171Y45811*X14016Y45733*X13848Y45677*X13675Y45651*X13589Y45651*X13503Y45651*X13330Y45677*X13162Y45733*X13007Y45811*X12865Y45916*X12741Y46038*X12639Y46180*X12560Y46335*X12504Y46502*X12479Y46675*X12479Y46761*X12479Y46850*X12504Y47023*X12560Y47188*X12639Y47343*X12741Y47485*X12865Y47610*X13007Y47711*X13010Y47714*X5768Y47714*X6055Y47216*X6248Y46497*X6248Y45756*X6055Y45039*X5685Y44397*X5161Y43871*X4516Y43500*X3800Y43307*X3058Y43307*X2794Y43378*X2794Y41834*X2995Y42037*X5133Y42037*X5370Y41798*X5370Y39662*X5133Y39423*X2995Y39423*X2794Y39624*X2794Y32309*X2995Y32512*X5133Y32512*X5370Y32273*X5370Y30137*X5133Y29898*X2995Y29898*X2794Y30099*X2794Y23736*X2995Y23940*X5133Y23940*X5370Y23701*X5370Y21565*X5133Y21326*X2995Y21326*X2794Y21526*X2794Y14211*X2995Y14414*X5133Y14414*X5370Y14176*X5370Y12040*X5133Y11801*X2995Y11801*X2794Y12002*X2794Y10457*X3058Y10528*X3800Y10528*X4516Y10335*X5161Y9964*X5685Y9441*X6055Y8799*X6093Y8661*D10*X38672Y20091D3*X39942Y21361D3*X41212Y20091D3*X43116Y22314D3*X44386Y21044D3*X45656Y22314D3*X45656Y31839D3*X44386Y33109D3*X43116Y31839D3*X41212Y34061D3*X39942Y32791D3*X38672Y34061D3*X14542Y31521D3*X12002Y31521D3*X13272Y32791D3*X20574Y41364D3*X19304Y42634D3*X18034Y41364D3*X12002Y39459D3*X13272Y40729D3*X14542Y39459D3*X18352Y36284D3*X20892Y36284D3*X19622Y35014D3*X20574Y30569D3*X18034Y30569D3*X19304Y29299D3*X20574Y23266D3*X19304Y24536D3*X18034Y23266D3*X12002Y21361D3*X13272Y22631D3*X14542Y21361D3*X18352Y18186D3*X20892Y18186D3*X19622Y16916D3*X20574Y12471D3*X19304Y11201D3*X18034Y12471D3*X14542Y13424D3*X13272Y14694D3*X12002Y13424D3*D11*X21844Y14694D3*X23432Y15646D3*X23432Y20726D3*X21844Y21044D3*X21844Y32791D3*X23432Y33426D3*X18669Y46761D3*X15812Y42634D3*X13589Y46761D3*X10732Y42634D3*X6922Y41999D3*X6922Y39459D3*X10732Y36919D3*X10732Y35014D3*X6922Y32474D3*X6922Y29934D3*X10732Y29299D3*X10732Y24536D3*X6922Y23901D3*X6922Y21361D3*X10732Y18821D3*X10732Y16916D3*X6922Y14376D3*X6922Y11836D3*X10732Y11201D3*X15812Y11201D3*X16764Y14694D3*X15812Y16916D3*X15812Y18821D3*X16764Y21044D3*X15812Y24536D3*X15812Y29299D3*X16764Y32791D3*X15812Y35014D3*X15812Y36919D3*X16764Y39141D3*X21844Y39141D3*X23432Y38506D3*X36132Y39141D3*X31052Y39141D3*X27559Y37554D3*X27559Y35014D3*X32322Y32791D3*X34862Y32791D3*X40894Y29616D3*X43116Y29616D3*X45656Y29616D3*X47562Y29616D3*X51689Y28346D3*X51689Y25806D3*X47562Y24536D3*X45656Y24536D3*X43116Y24536D3*X40894Y24536D3*X36132Y15011D3*X36132Y11836D3*X31052Y11836D3*X31052Y15011D3*X27559Y16916D3*X27559Y19456D3*X32322Y21361D3*X34862Y21361D3*D12*X51372Y20409D3*X51372Y33426D3*X34544Y46761D3*X30734Y46761D3*X4064Y40729D3*X4064Y31204D3*X4064Y22631D3*X4064Y13106D3*D13*X40894Y28689D3*X40894Y29093D3*X40894Y29494D3*X40894Y29616D3*X40894Y29898D3*X40894Y30300D3*X43116Y28689D3*X43116Y29093D3*X43116Y29494D3*X43116Y29616D3*X43116Y29898D3*X43116Y30300D3*X34862Y21443D3*X34862Y21361D3*X34862Y21361D3*X34862Y22248D3*X34862Y21847D3*X34862Y21361D3*X34862Y21041D3*X34862Y20638D3*X34862Y21361D3*X6922Y22248D3*X6922Y21847D3*X6922Y20638D3*X6922Y21041D3*X6922Y21361D3*X6922Y21443D3*X6922Y21361D3*X6922Y21361D3*X6922Y21361D3*X6922Y33119D3*X6922Y32715D3*X6922Y32474D3*X6922Y32314D3*X6922Y31910D3*X6922Y31509D3*X6922Y33520D3*X6922Y32474D3*X6922Y32474D3*X6922Y32474D3*X21844Y31910D3*X21844Y39157D3*X21844Y38755D3*X21844Y38351D3*X6922Y39962D3*X6922Y39560D3*X6922Y39459D3*X6922Y39157D3*X6922Y38755D3*X13589Y46403D3*X13589Y46002D3*X6922Y40366D3*X6922Y39459D3*X6922Y39459D3*X10732Y34326D3*X10732Y34729D3*X10732Y35014D3*X10732Y35131D3*X10732Y35535D3*X10732Y35936D3*X10732Y36340D3*X10732Y36741D3*X10732Y37145D3*X10732Y37546D3*X10732Y36919D3*X10732Y37950D3*X21844Y39141D3*X21844Y39141D3*X21844Y39141D3*X21844Y39962D3*X21844Y39560D3*X6922Y38351D3*X6922Y39459D3*X10732Y36919D3*X10732Y36919D3*X10732Y36919D3*X10732Y35014D3*X10732Y35014D3*X10732Y35014D3*X10732Y33924D3*X21844Y33520D3*X21844Y33119D3*X21844Y32791D3*X21844Y32715D3*X21844Y32314D3*X21844Y32791D3*X21844Y32791D3*X34862Y31910D3*X34862Y32314D3*X34862Y32715D3*X34862Y33119D3*X34862Y32791D3*X34862Y33520D3*X34862Y32791D3*X34862Y32791D3*X34862Y32791D3*X27559Y36741D3*X27559Y37145D3*X27559Y37546D3*X27559Y37554D3*X27559Y37950D3*X27559Y38351D3*X27559Y37554D3*X27559Y37554D3*X27559Y37554D3*X40894Y30704D3*X40894Y29616D3*X40894Y29616D3*X40894Y29616D3*X43116Y30704D3*X43116Y29616D3*X43116Y29616D3*X43116Y29616D3*X51689Y25067D3*X51689Y25469D3*X51689Y25806D3*X51689Y25872D3*X51689Y26274D3*X51689Y26678D3*X51689Y25806D3*X51689Y25806D3*X52324Y27483D3*X45656Y23457D3*X45656Y23858D3*X45656Y24262D3*X45656Y24536D3*X45656Y24663D3*X45656Y25067D3*X45656Y24536D3*X45656Y24536D3*X45656Y25469D3*X27559Y20236D3*X27559Y19832D3*X27559Y19456D3*X27559Y19456D3*X27559Y19456D3*X27559Y19431D3*X27559Y19027D3*X27559Y18626D3*X6922Y15001D3*X6922Y14600D3*X6922Y14376D3*X6922Y14196D3*X6922Y13795D3*X6922Y13391D3*X6922Y15405D3*X6922Y14376D3*X6922Y14376D3*X21844Y15405D3*X21844Y15001D3*X21844Y14694D3*X21844Y14600D3*X21844Y14196D3*X21844Y13795D3*X21844Y14694D3*X21844Y14694D3*X27559Y19456D3*X21844Y21847D3*X21844Y21443D3*X21844Y21044D3*X21844Y21044D3*X21844Y21041D3*X21844Y20638D3*X21844Y20236D3*X21844Y21044D3*X10732Y19431D3*X10732Y19027D3*X10732Y18626D3*X10732Y18222D3*X10732Y17821D3*X10732Y17417D3*X10732Y17015D3*X10732Y16916D3*X10732Y16612D3*X10732Y16210D3*X10732Y18821D3*X10732Y19832D3*X10732Y18821D3*X10732Y18821D3*X10732Y18821D3*X10732Y16916D3*X10732Y16916D3*X10732Y16916D3*X10732Y15806D3*X31052Y12586D3*X31052Y12184D3*X31052Y11836D3*X31052Y11781D3*X31052Y11379D3*X31052Y10975D3*X31052Y11836D3*X31052Y11836D3*X31052Y11836D3*X21844Y14694D3*X6922Y14376D3*X13589Y46761D3*X13589Y46761D3*X13589Y46761D3*X0Y0D2*M02*