G04 Output by ViewMate Deluxe V11.0.9  PentaLogix LLC*
G04 Sun Feb 16 15:40:48 2014*
%FSLAX33Y33*%
%MOMM*%
%IPPOS*%
%ADD16C,0.127*%
%ADD17C,0.254*%
%ADD18C,0.1016*%
%ADD105C,1.27*%
%ADD106C,1.016*%
%ADD107C,0.1524*%
%ADD108C,0.2032*%
%ADD109C,0.0762*%
%ADD110C,0.4064*%

%LPD*%
X0Y0D2*D16*G1X21844Y23520D2*X21808Y23675D1*X21763Y23825*X21709Y23975*X21646Y24120*X21575Y24260*X21493Y24397*X21405Y24529*X21308Y24653*X21206Y24773*X21095Y24884*X20978Y24991*X20853Y25090*X20724Y25179*X20589Y25263*X20450Y25336*X20305Y25403*X20157Y25458*X20008Y25507*X19853Y25545*X19698Y25573*X19540Y25593*X19383Y25603*X19225Y25603*X19068Y25593*X18910Y25573*X18755Y25545*X18600Y25507*X18451Y25458*X18303Y25403*X18158Y25336*X18019Y25263*X17884Y25179*X17755Y25090*X17630Y24991*X17513Y24884*X17402Y24773*X17300Y24653*X17203Y24529*X17115Y24397*X17033Y24260*X16962Y24120*X16899Y23975*X16845Y23825*X16800Y23675*X16764Y23520*X15812Y13678D2*X15776Y13833D1*X15730Y13983*X15677Y14133*X15613Y14277*X15542Y14417*X15461Y14554*X15372Y14686*X15276Y14811*X15174Y14930*X15062Y15042*X14945Y15149*X14821Y15248*X14691Y15337*X14557Y15420*X14417Y15494*X14272Y15560*X14125Y15616*X13975Y15664*X13820Y15702*X13665Y15730*X13508Y15751*X13350Y15761*X13193Y15761*X13035Y15751*X12878Y15730*X12723Y15702*X12568Y15664*X12418Y15616*X12271Y15560*X12126Y15494*X11986Y15420*X11852Y15337*X11722Y15248*X11598Y15149*X11481Y15042*X11369Y14930*X11267Y14811*X11171Y14686*X11082Y14554*X11001Y14417*X10930Y14277*X10866Y14133*X10813Y13983*X10767Y13833*X10732Y13678*X10732Y12154*X15812Y12154*X16764Y12217D2*X16800Y12062D1*X16845Y11913*X16899Y11763*X16962Y11618*X17033Y11478*X17115Y11341*X17203Y11209*X17300Y11085*X17402Y10965*X17513Y10853*X17630Y10747*X17755Y10648*X17884Y10559*X18019Y10475*X18158Y10401*X18303Y10335*X18451Y10279*X18600Y10231*X18755Y10193*X18910Y10165*X19068Y10145*X19225Y10135*X19383Y10135*X19540Y10145*X19698Y10165*X19853Y10193*X20008Y10231*X20157Y10279*X20305Y10335*X20450Y10401*X20589Y10475*X20724Y10559*X20853Y10648*X20978Y10747*X21095Y10853*X21206Y10965*X21308Y11085*X21405Y11209*X21493Y11341*X21575Y11478*X21646Y11618*X21709Y11763*X21763Y11913*X21808Y12062*X21844Y12217*X21844Y13741*X16764Y13741*X15812Y12154D2*X15812Y13678D1*X16764Y13741D2*X16764Y12217D1*X17082Y17932D2*X17117Y17777D1*X17163Y17628*X17216Y17478*X17280Y17333*X17351Y17193*X17432Y17056*X17521Y16924*X17617Y16800*X17719Y16680*X17831Y16568*X17948Y16462*X18072Y16363*X18202Y16274*X18336Y16190*X18476Y16116*X18621Y16050*X18768Y15994*X18918Y15946*X19073Y15908*X19228Y15880*X19385Y15860*X19543Y15850*X19700Y15850*X19858Y15860*X20015Y15880*X20170Y15908*X20325Y15946*X20475Y15994*X20622Y16050*X20767Y16116*X20907Y16190*X21041Y16274*X21171Y16363*X21295Y16462*X21412Y16568*X21524Y16680*X21626Y16800*X21722Y16924*X21811Y17056*X21892Y17193*X21963Y17333*X22027Y17478*X22080Y17628*X22126Y17777*X22162Y17932*X22162Y19456*X17082Y19456*X17082Y17932*X15812Y21615D2*X15776Y21770D1*X15730Y21920*X15677Y22070*X15613Y22215*X15542Y22355*X15461Y22492*X15372Y22624*X15276Y22748*X15174Y22868*X15062Y22979*X14945Y23086*X14821Y23185*X14691Y23274*X14557Y23358*X14417Y23432*X14272Y23498*X14125Y23553*X13975Y23602*X13820Y23640*X13665Y23668*X13508Y23688*X13350Y23698*X13193Y23698*X13035Y23688*X12878Y23668*X12723Y23640*X12568Y23602*X12418Y23553*X12271Y23498*X12126Y23432*X11986Y23358*X11852Y23274*X11722Y23185*X11598Y23086*X11481Y22979*X11369Y22868*X11267Y22748*X11171Y22624*X11082Y22492*X11001Y22355*X10930Y22215*X10866Y22070*X10813Y21920*X10767Y21770*X10732Y21615*X10732Y20091*X15812Y20091*X15812Y21615*X16764Y23520D2*X16764Y21996D1*X21844Y21996*X21844Y23520*X22162Y36030D2*X22126Y35875D1*X22080Y35725*X22027Y35575*X21963Y35430*X21892Y35291*X21811Y35154*X21722Y35022*X21626Y34897*X21524Y34778*X21412Y34666*X21295Y34559*X21171Y34460*X21041Y34371*X20907Y34287*X20767Y34214*X20622Y34148*X20475Y34092*X20325Y34044*X20170Y34006*X20015Y33978*X19858Y33957*X19700Y33947*X19543Y33947*X19385Y33957*X19228Y33978*X19073Y34006*X18918Y34044*X18768Y34092*X18621Y34148*X18476Y34214*X18336Y34287*X18202Y34371*X18072Y34460*X17948Y34559*X17831Y34666*X17719Y34778*X17617Y34897*X17521Y35022*X17432Y35154*X17351Y35291*X17280Y35430*X17216Y35575*X17163Y35725*X17117Y35875*X17082Y36030*X15812Y38189D2*X10732Y38189D1*X10732Y39713*X10767Y39868*X10813Y40018*X10866Y40168*X10930Y40312*X11001Y40452*X11082Y40589*X11171Y40721*X11267Y40846*X11369Y40965*X11481Y41077*X11598Y41184*X11722Y41283*X11852Y41372*X11986Y41455*X12126Y41529*X12271Y41595*X12418Y41651*X12568Y41699*X12723Y41737*X12878Y41765*X13035Y41786*X13193Y41796*X13350Y41796*X13508Y41786*X13665Y41765*X13820Y41737*X13975Y41699*X14125Y41651*X14272Y41595*X14417Y41529*X14557Y41455*X14691Y41372*X14821Y41283*X14945Y41184*X15062Y41077*X15174Y40965*X15276Y40846*X15372Y40721*X15461Y40589*X15542Y40452*X15613Y40312*X15677Y40168*X15730Y40018*X15776Y39868*X15812Y39713*X16764Y41618D2*X16800Y41773D1*X16845Y41923*X16899Y42073*X16962Y42217*X17033Y42357*X17115Y42494*X17203Y42626*X17300Y42751*X17402Y42870*X17513Y42982*X17630Y43089*X17755Y43188*X17884Y43277*X18019Y43360*X18158Y43434*X18303Y43500*X18451Y43556*X18600Y43604*X18755Y43642*X18910Y43670*X19068Y43691*X19225Y43701*X19383Y43701*X19540Y43691*X19698Y43670*X19853Y43642*X20008Y43604*X20157Y43556*X20305Y43500*X20450Y43434*X20589Y43360*X20724Y43277*X20853Y43188*X20978Y43089*X21095Y42982*X21206Y42870*X21308Y42751*X21405Y42626*X21493Y42494*X21575Y42357*X21646Y42217*X21709Y42073*X21763Y41923*X21808Y41773*X21844Y41618*X21844Y40094*X16764Y40094*X16764Y41618*X15812Y38189D2*X15812Y39713D1*X17082Y36030D2*X17082Y37554D1*X22162Y37554*X22162Y36030*X21844Y30315D2*X21808Y30160D1*X21763Y30010*X21709Y29860*X21646Y29715*X21575Y29576*X21493Y29439*X21405Y29307*X21308Y29182*X21206Y29063*X21095Y28951*X20978Y28844*X20853Y28745*X20724Y28656*X20589Y28572*X20450Y28499*X20305Y28433*X20157Y28377*X20008Y28329*X19853Y28291*X19698Y28263*X19540Y28242*X19383Y28232*X19225Y28232*X19068Y28242*X18910Y28263*X18755Y28291*X18600Y28329*X18451Y28377*X18303Y28433*X18158Y28499*X18019Y28572*X17884Y28656*X17755Y28745*X17630Y28844*X17513Y28951*X17402Y29063*X17300Y29182*X17203Y29307*X17115Y29439*X17033Y29576*X16962Y29715*X16899Y29860*X16845Y30010*X16800Y30160*X16764Y30315*X15812Y31775D2*X15776Y31930D1*X15730Y32080*X15677Y32230*X15613Y32375*X15542Y32515*X15461Y32652*X15372Y32784*X15276Y32908*X15174Y33028*X15062Y33139*X14945Y33246*X14821Y33345*X14691Y33434*X14557Y33518*X14417Y33592*X14272Y33658*X14125Y33713*X13975Y33762*X13820Y33800*X13665Y33828*X13508Y33848*X13350Y33858*X13193Y33858*X13035Y33848*X12878Y33828*X12723Y33800*X12568Y33762*X12418Y33713*X12271Y33658*X12126Y33592*X11986Y33518*X11852Y33434*X11722Y33345*X11598Y33246*X11481Y33139*X11369Y33028*X11267Y32908*X11171Y32784*X11082Y32652*X11001Y32515*X10930Y32375*X10866Y32230*X10813Y32080*X10767Y31930*X10732Y31775*X10732Y30251*X15812Y30251*X15812Y31775*X16764Y30315D2*X16764Y31839D1*X21844Y31839*X21844Y30315*X46926Y30569D2*X46926Y32093D1*X46891Y32248*X46845Y32398*X46792Y32548*X46728Y32692*X46657Y32832*X46576Y32969*X46487Y33101*X46391Y33226*X46289Y33345*X46177Y33457*X46060Y33564*X45936Y33663*X45806Y33752*X45672Y33835*X45532Y33909*X45387Y33975*X45240Y34031*X45090Y34079*X44935Y34117*X44780Y34145*X44623Y34166*X44465Y34176*X44308Y34176*X44150Y34166*X43993Y34145*X43838Y34117*X43683Y34079*X43533Y34031*X43386Y33975*X43241Y33909*X43101Y33835*X42967Y33752*X42837Y33663*X42713Y33564*X42596Y33457*X42484Y33345*X42382Y33226*X42286Y33101*X42197Y32969*X42116Y32832*X42045Y32692*X41981Y32548*X41928Y32398*X41882Y32248*X41846Y32093*X42482Y33807D2*X42446Y33652D1*X42400Y33503*X42347Y33353*X42283Y33208*X42212Y33068*X42131Y32931*X42042Y32799*X41946Y32675*X41844Y32555*X41732Y32443*X41615Y32337*X41491Y32238*X41361Y32149*X41227Y32065*X41087Y31991*X40942Y31925*X40795Y31869*X40645Y31821*X40490Y31783*X40335Y31755*X40178Y31735*X40020Y31725*X39863Y31725*X39705Y31735*X39548Y31755*X39393Y31783*X39238Y31821*X39088Y31869*X38941Y31925*X38796Y31991*X38656Y32065*X38522Y32149*X38392Y32238*X38268Y32337*X38151Y32443*X38039Y32555*X37937Y32675*X37841Y32799*X37752Y32931*X37671Y33068*X37600Y33208*X37536Y33353*X37483Y33503*X37437Y33652*X37402Y33807*X37402Y35331*X42482Y35331*X42482Y33807*X41846Y32093D2*X41846Y30569D1*X46926Y30569*X46926Y22060D2*X46891Y21905D1*X46845Y21755*X46792Y21605*X46728Y21460*X46657Y21321*X46576Y21184*X46487Y21052*X46391Y20927*X46289Y20808*X46177Y20696*X46060Y20589*X45936Y20490*X45806Y20401*X45672Y20317*X45532Y20244*X45387Y20178*X45240Y20122*X45090Y20074*X44935Y20036*X44780Y20008*X44623Y19987*X44465Y19977*X44308Y19977*X44150Y19987*X43993Y20008*X43838Y20036*X43683Y20074*X43533Y20122*X43386Y20178*X43241Y20244*X43101Y20317*X42967Y20401*X42837Y20490*X42713Y20589*X42596Y20696*X42484Y20808*X42382Y20927*X42286Y21052*X42197Y21184*X42116Y21321*X42045Y21460*X41981Y21605*X41928Y21755*X41882Y21905*X41846Y22060*X42482Y20345D2*X42446Y20500D1*X42400Y20650*X42347Y20800*X42283Y20945*X42212Y21085*X42131Y21222*X42042Y21354*X41946Y21478*X41844Y21598*X41732Y21709*X41615Y21816*X41491Y21915*X41361Y22004*X41227Y22088*X41087Y22162*X40942Y22228*X40795Y22283*X40645Y22332*X40490Y22370*X40335Y22398*X40178Y22418*X40020Y22428*X39863Y22428*X39705Y22418*X39548Y22398*X39393Y22370*X39238Y22332*X39088Y22283*X38941Y22228*X38796Y22162*X38656Y22088*X38522Y22004*X38392Y21915*X38268Y21816*X38151Y21709*X38039Y21598*X37937Y21478*X37841Y21354*X37752Y21222*X37671Y21085*X37600Y20945*X37536Y20800*X37483Y20650*X37437Y20500*X37402Y20345*X37402Y18821*X42482Y18821*X42482Y20345*X41846Y22060D2*X41846Y23584D1*X46926Y23584*X46926Y22060*D17*X50673Y25489D2*X50673Y24346D1*X50102Y24917D2*X51244Y24917D1*X7366Y15265D2*X8509Y15265D1*X7938Y15837D2*X7938Y14694D1*X6477Y20472D2*X5334Y20472D1*X5906Y21044D2*X5906Y19901D1*X6477Y38570D2*X5334Y38570D1*X5906Y37998D2*X5906Y39141D1*X7938Y32791D2*X7938Y33934D1*X8509Y33363D2*X7366Y33363D1*X28575Y37871D2*X28575Y39014D1*X29146Y38443D2*X28004Y38443D1*X35179Y31775D2*X36322Y31775D1*X35750Y31204D2*X35750Y32347D1*X35750Y20917D2*X35750Y19774D1*X35179Y20345D2*X36322Y20345D1*X28575Y19774D2*X28575Y20917D1*X28004Y20345D2*X29146Y20345D1*D18*X14402Y46977D2*X14707Y47285D1*X14707Y46368*X15011Y46368D2*X14402Y46368D1*X15337Y46520D2*X15337Y47130D1*X15489Y47285*X15794Y47285*X15949Y47130*X15337Y46520*X15489Y46368*X15794Y46368*X15949Y46520*X15949Y47130*X16883Y47130D2*X16731Y47285D1*X16426Y47285*X16274Y47130*X16274Y46520*X16883Y46520D2*X16731Y46368D1*X16426Y46368*X16274Y46520*X16883Y47130*X16883Y46520*X17208Y46368D2*X17208Y46977D1*X17666Y46977*X17818Y46825*X17818Y46368*X31864Y12052D2*X32169Y12360D1*X32169Y11443*X32474Y11443D2*X31864Y11443D1*X32799Y11595D2*X32799Y12205D1*X32951Y12360*X33256Y12360*X33411Y12205*X33411Y11595D2*X33411Y12205D1*X32799Y11595*X32951Y11443*X33256Y11443*X33411Y11595*X33736Y11595D2*X33736Y12205D1*X33889Y12360*X34193Y12360*X34346Y12205*X34346Y11595D2*X34346Y12205D1*X33736Y11595*X33889Y11443*X34193Y11443*X34346Y11595*X34671Y11443D2*X34671Y12052D1*X35128Y12052*X35281Y11900*X35281Y11443*D105*X44069Y35649D2*X33909Y35649D1*X44066Y35649D2*X44480Y35453D1*X44884Y35240*X45276Y35004*X45654Y34752*X46022Y34480*X46378Y34193*X46716Y33886*X47041Y33566*X47351Y33231*X47643Y32878*X47917Y32515*X48174Y32136*X48412Y31747*X48631Y31346*X48832Y30937*X49012Y30516*X49169Y30089*X49309Y29654*X49426Y29213*X49522Y28766*X49596Y28316*X49649Y27861*X49680Y27407*X49687Y26949*X49675Y26492*X49639Y26038*X49581Y25585*X49502Y25136*X49400Y24691*X49279Y24249*X49134Y23818*X48971Y23391*X48786Y22972*X48583Y22565*X48359Y22167*X48115Y21780*X47854Y21405*X47574Y21044*X47280Y20696*X46967Y20363*X46639Y20046*X46297Y19743*X45938Y19461*X45568Y19192*X45184Y18946*X44790Y18715*X44384Y18504*X34226Y18504D2*X44386Y18504D1*X34224Y18504D2*X34630Y18715D1*X35024Y18946*X35408Y19192*X35778Y19461*X36137Y19743*X36479Y20046*X36807Y20363*X37120Y20696*X37414Y21044*X37694Y21405*X37955Y21780*X38199Y22167*X38423Y22565*X38626Y22972*X38811Y23391*X38974Y23818*X39119Y24249*X39240Y24691*X39342Y25136*X39421Y25585*X39479Y26038*X39515Y26492*X39527Y26949*X39520Y27407*X39489Y27861*X39436Y28316*X39362Y28766*X39266Y29213*X39149Y29654*X39009Y30089*X38852Y30516*X38672Y30937*X38471Y31346*X38252Y31747*X38014Y32136*X37757Y32515*X37483Y32878*X37191Y33231*X36881Y33566*X36556Y33886*X36218Y34193*X35862Y34480*X35494Y34752*X35116Y35004*X34724Y35240*X34320Y35453*X33906Y35649*X9144Y27711D2*X9144Y44221D1*X20256Y44221*X20254Y44221D2*X20648Y44026D1*X21034Y43810*X21405Y43579*X21768Y43327*X22116Y43061*X22451Y42776*X22774Y42476*X23081Y42161*X23371Y41834*X23645Y41491*X23904Y41135*X24145Y40767*X24366Y40386*X24572Y39997*X24755Y39599*X24922Y39192*X25067Y38778*X25192Y38357*X25298Y37930*X25382Y37498*X25446Y37064*X25489Y36624*X25509Y36187*X25509Y35745*X25489Y35309*X25446Y34869*X25382Y34435*X25298Y34003*X25192Y33576*X25067Y33155*X24922Y32741*X24755Y32334*X24572Y31935*X24366Y31547*X24145Y31166*X23904Y30798*X23645Y30442*X23371Y30099*X23081Y29771*X22774Y29456*X22451Y29157*X22116Y28872*X21768Y28605*X21405Y28354*X21034Y28123*X20648Y27907*X20254Y27711*X9144Y27711D2*X20256Y27711D1*X9144Y9614D2*X9144Y26124D1*X20256Y26124*X20254Y26124D2*X20648Y25928D1*X21034Y25712*X21405Y25481*X21768Y25230*X22116Y24963*X22451Y24679*X22774Y24379*X23081Y24064*X23371Y23736*X23645Y23393*X23904Y23038*X24145Y22670*X24366Y22288*X24572Y21900*X24755Y21501*X24922Y21095*X25067Y20681*X25192Y20259*X25298Y19832*X25382Y19401*X25446Y18966*X25489Y18527*X25509Y18090*X25509Y17648*X25489Y17211*X25446Y16772*X25382Y16337*X25298Y15905*X25192Y15479*X25067Y15057*X24922Y14643*X24755Y14237*X24572Y13838*X24366Y13449*X24145Y13068*X23904Y12700*X23645Y12344*X23371Y12002*X23081Y11674*X22774Y11359*X22451Y11059*X22116Y10775*X21768Y10508*X21405Y10257*X21034Y10025*X20648Y9809*X20254Y9614*X9144Y9614D2*X20256Y9614D1*D106*X29464Y18186D2*X30734Y18186D1*X30734Y21361*X31052Y21361*X30734Y36284D2*X29464Y36284D1*X31052Y32791D2*X30734Y32791D1*X30734Y36284*D107*X34811Y20447D2*X34737Y20356D1*X34656Y20269*X34567Y20190*X34475Y20119*X34376Y20056*X34272Y19997*X34166Y19949*X34056Y19909*X33942Y19878*X33825Y19855*X33708Y19842*X33592Y19837*X32388Y22296D2*X32464Y22385D1*X32542Y22469*X32631Y22545*X32723Y22614*X32819Y22675*X32921Y22730*X33028Y22776*X33137Y22817*X33249Y22847*X33360Y22868*X33477Y22880*X33592Y22885*X34795Y22296D2*X34719Y22385D1*X34641Y22469*X34552Y22545*X34460Y22614*X34364Y22675*X34262Y22730*X34155Y22776*X34046Y22817*X33934Y22847*X33823Y22868*X33706Y22880*X33592Y22885*X32352Y20475D2*X32426Y20381D1*X32507Y20292*X32596Y20208*X32690Y20132*X32789Y20066*X32893Y20008*X33005Y19954*X33117Y19914*X33233Y19881*X33350Y19858*X33472Y19842*X33592Y19837*X52624Y28280D2*X52713Y28204D1*X52796Y28125*X52873Y28037*X52941Y27945*X53002Y27849*X53058Y27747*X53104Y27640*X53144Y27531*X53175Y27419*X53195Y27308*X53208Y27191*X53213Y27076*X50775Y25857D2*X50683Y25931D1*X50597Y26012*X50518Y26101*X50447Y26192*X50383Y26292*X50325Y26396*X50277Y26502*X50236Y26612*X50206Y26726*X50183Y26843*X50170Y26960*X50165Y27076*X50803Y28316D2*X50709Y28242D1*X50620Y28161*X50536Y28072*X50460Y27978*X50394Y27879*X50335Y27775*X50282Y27663*X50241Y27551*X50208Y27435*X50185Y27318*X50170Y27196*X50165Y27076*X52624Y25872D2*X52713Y25949D1*X52796Y26027*X52873Y26116*X52941Y26208*X53002Y26304*X53058Y26406*X53104Y26513*X53144Y26622*X53175Y26734*X53195Y26845*X53208Y26962*X53213Y27076*X48450Y25235D2*X48450Y28918D1*X46672Y28918D2*X46672Y25235D1*X46546Y25235D2*X46546Y28918D1*X44768Y28918D2*X44768Y25235D1*X44006Y25235D2*X44006Y28918D1*X42228Y28918D2*X42228Y25235D1*X41783Y25235D2*X41783Y28918D1*X40005Y28918D2*X40005Y25235D1*X33592Y34315D2*X33477Y34310D1*X33360Y34298*X33249Y34277*X33137Y34247*X33028Y34206*X32921Y34160*X32819Y34105*X32723Y34044*X32631Y33975*X32542Y33899*X32464Y33815*X32388Y33726*X33592Y31267D2*X33708Y31272D1*X33825Y31285*X33942Y31308*X34056Y31339*X34166Y31379*X34272Y31427*X34376Y31486*X34475Y31549*X34567Y31620*X34656Y31699*X34737Y31786*X34811Y31877*X33592Y34315D2*X33706Y34310D1*X33823Y34298*X33934Y34277*X34046Y34247*X34155Y34206*X34262Y34160*X34364Y34105*X34460Y34044*X34552Y33975*X34641Y33899*X34719Y33815*X34795Y33726*X33592Y31267D2*X33472Y31272D1*X33350Y31288*X33233Y31311*X33117Y31344*X33005Y31384*X32893Y31438*X32789Y31496*X32690Y31562*X32596Y31638*X32507Y31722*X32426Y31811*X32352Y31905*X38829Y47640D2*X38829Y46556D1*X38288Y46012*X37744Y46556*X37744Y47640*X37193Y47368D2*X36921Y47640D1*X36380Y47640*X36109Y47368*X36109Y46284D2*X36380Y46012D1*X36921Y46012*X37193Y46284*X37193Y47368*X36109Y46284*X36109Y47368*X25171Y46284D2*X25171Y47368D1*X25712Y46825D2*X24628Y46825D1*X27351Y47640D2*X26266Y47640D1*X26266Y46825*X27351Y46284D2*X27351Y46825D1*X27079Y47097*X26807Y47097*X26266Y46825*X26266Y46284D2*X26538Y46012D1*X27079Y46012*X27351Y46284*X28445Y46012D2*X27902Y46556D1*X27902Y47640*X28986Y47640D2*X28986Y46556D1*X28445Y46012*X35433Y40030D2*X31750Y40030D1*X31750Y38252D2*X35433Y38252D1*X7836Y14326D2*X7927Y14252D1*X8014Y14171*X8092Y14082*X8164Y13990*X8227Y13891*X8285Y13787*X8334Y13680*X8374Y13571*X8405Y13457*X8428Y13340*X8440Y13223*X8446Y13106*X5987Y11902D2*X5898Y11979D1*X5814Y12057*X5738Y12146*X5669Y12238*X5608Y12334*X5552Y12436*X5507Y12543*X5466Y12652*X5436Y12764*X5415Y12875*X5403Y12992*X5398Y13106*X5987Y14310D2*X5898Y14234D1*X5814Y14155*X5738Y14067*X5669Y13975*X5608Y13879*X5552Y13777*X5507Y13670*X5466Y13561*X5436Y13449*X5415Y13338*X5403Y13221*X5398Y13106*X7808Y11867D2*X7902Y11941D1*X7991Y12022*X8075Y12111*X8151Y12205*X8217Y12304*X8275Y12408*X8329Y12520*X8369Y12631*X8402Y12748*X8425Y12865*X8440Y12987*X8446Y13106*X7856Y23835D2*X7945Y23759D1*X8029Y23680*X8105Y23592*X8174Y23500*X8235Y23404*X8291Y23302*X8336Y23195*X8377Y23086*X8407Y22974*X8428Y22863*X8440Y22746*X8446Y22631*X6007Y21412D2*X5916Y21486D1*X5829Y21567*X5751Y21656*X5679Y21747*X5616Y21847*X5558Y21951*X5509Y22057*X5469Y22167*X5438Y22281*X5415Y22398*X5403Y22515*X5398Y22631*X6035Y23871D2*X5941Y23797D1*X5852Y23716*X5768Y23627*X5692Y23533*X5626Y23434*X5568Y23330*X5514Y23218*X5474Y23106*X5441Y22990*X5418Y22873*X5403Y22751*X5398Y22631*X7856Y21427D2*X7945Y21504D1*X8029Y21582*X8105Y21671*X8174Y21763*X8235Y21859*X8291Y21961*X8336Y22068*X8377Y22177*X8407Y22288*X8428Y22400*X8440Y22517*X8446Y22631*X7836Y32423D2*X7927Y32349D1*X8014Y32268*X8092Y32179*X8164Y32088*X8227Y31989*X8285Y31885*X8334Y31778*X8374Y31669*X8405Y31554*X8428Y31438*X8440Y31321*X8446Y31204*X5987Y30000D2*X5898Y30076D1*X5814Y30155*X5738Y30244*X5669Y30335*X5608Y30432*X5552Y30533*X5507Y30640*X5466Y30749*X5436Y30861*X5415Y30973*X5403Y31090*X5398Y31204*X5987Y32408D2*X5898Y32332D1*X5814Y32253*X5738Y32164*X5669Y32073*X5608Y31976*X5552Y31874*X5507Y31768*X5466Y31659*X5436Y31547*X5415Y31435*X5403Y31318*X5398Y31204*X7808Y29964D2*X7902Y30038D1*X7991Y30119*X8075Y30208*X8151Y30302*X8217Y30401*X8275Y30505*X8329Y30617*X8369Y30729*X8402Y30846*X8425Y30963*X8440Y31085*X8446Y31204*X7856Y41933D2*X7945Y41857D1*X8029Y41778*X8105Y41689*X8174Y41598*X8235Y41501*X8291Y41399*X8336Y41293*X8377Y41184*X8407Y41072*X8428Y40960*X8440Y40843*X8446Y40729*X6007Y39510D2*X5916Y39583D1*X5829Y39665*X5751Y39754*X5679Y39845*X5616Y39944*X5558Y40048*X5509Y40155*X5469Y40264*X5438Y40378*X5415Y40495*X5403Y40612*X5398Y40729*X6035Y41968D2*X5941Y41895D1*X5852Y41813*X5768Y41725*X5692Y41631*X5626Y41532*X5568Y41427*X5514Y41316*X5474Y41204*X5441Y41087*X5418Y40970*X5403Y40848*X5398Y40729*X7856Y39525D2*X7945Y39601D1*X8029Y39680*X8105Y39769*X8174Y39860*X8235Y39957*X8291Y40058*X8336Y40165*X8377Y40274*X8407Y40386*X8428Y40498*X8440Y40615*X8446Y40729*X19050Y47904D2*X13208Y47904D1*X13208Y45618D2*X19050Y45618D1*X11430Y43523D2*X15113Y43523D1*X15113Y41745D2*X11430Y41745D1*X21146Y40030D2*X17462Y40030D1*X26035Y36284D2*X26040Y36170D1*X26053Y36053*X26073Y35941*X26104Y35829*X26144Y35720*X26190Y35613*X26246Y35512*X26307Y35415*X26375Y35324*X26452Y35235*X26535Y35156*X26624Y35080*X29083Y36284D2*X29078Y36401D1*X29065Y36518*X29042Y36634*X29012Y36749*X28971Y36858*X28923Y36965*X28865Y37069*X28801Y37168*X28730Y37259*X28651Y37348*X28565Y37429*X28473Y37503*X26035Y36284D2*X26040Y36398D1*X26053Y36515*X26073Y36627*X26104Y36739*X26144Y36848*X26190Y36954*X26246Y37056*X26307Y37153*X26375Y37244*X26452Y37333*X26535Y37412*X26624Y37488*X29083Y36284D2*X29078Y36165D1*X29063Y36043*X29040Y35926*X29007Y35809*X28966Y35697*X28913Y35585*X28854Y35481*X28788Y35382*X28712Y35288*X28628Y35199*X28539Y35118*X28445Y35044*X24320Y34125D2*X24320Y37808D1*X22542Y37808D2*X22542Y34125D1*X17462Y38252D2*X21146Y38252D1*X11430Y37808D2*X15113Y37808D1*X15113Y36030D2*X11430Y36030D1*X11430Y35903D2*X15113Y35903D1*X15113Y34125D2*X11430Y34125D1*X21146Y33680D2*X17462Y33680D1*X17462Y31902D2*X21146Y31902D1*X11430Y30188D2*X15113Y30188D1*X15113Y28410D2*X11430Y28410D1*X11430Y25425D2*X15113Y25425D1*X15113Y23647D2*X11430Y23647D1*X21146Y21933D2*X17462Y21933D1*X17462Y20155D2*X21146Y20155D1*X11430Y19710D2*X15113Y19710D1*X15113Y17932D2*X11430Y17932D1*X11430Y17805D2*X15113Y17805D1*X15113Y16027D2*X11430Y16027D1*X11430Y10312D2*X15113Y10312D1*X15113Y12090D2*X11430Y12090D1*X17462Y13805D2*X21146Y13805D1*X21146Y15583D2*X17462Y15583D1*X22542Y20028D2*X22542Y16345D1*X24320Y16345D2*X24320Y20028D1*X37348Y5880D2*X37892Y6424D1*X37892Y6965*X37348Y7508*X35712Y6965D2*X36253Y7508D1*X36253Y5880*X35712Y5880D2*X36797Y5880D1*X35164Y5880D2*X34620Y6424D1*X34620Y6965*X35164Y7508*X36512Y10693D2*X30670Y10693D1*X30670Y12979D2*X36512Y12979D1*X35433Y14122D2*X31750Y14122D1*X31750Y15900D2*X35433Y15900D1*X29083Y18186D2*X29078Y18067D1*X29063Y17945*X29040Y17828*X29007Y17711*X28966Y17600*X28913Y17488*X28854Y17384*X28788Y17285*X28712Y17191*X28628Y17102*X28539Y17021*X28445Y16947*X26035Y18186D2*X26040Y18072D1*X26053Y17955*X26073Y17844*X26104Y17732*X26144Y17623*X26190Y17516*X26246Y17414*X26307Y17318*X26375Y17226*X26452Y17137*X26535Y17059*X26624Y16982*X29083Y18186D2*X29078Y18303D1*X29065Y18420*X29042Y18537*X29012Y18651*X28971Y18760*X28923Y18867*X28865Y18971*X28801Y19070*X28730Y19162*X28651Y19251*X28565Y19332*X28473Y19406*X26035Y18186D2*X26040Y18301D1*X26053Y18418*X26073Y18529*X26104Y18641*X26144Y18750*X26190Y18857*X26246Y18959*X26307Y19055*X26375Y19147*X26452Y19235*X26535Y19314*X26624Y19390*D108*X30546Y6685D2*X31326Y5906D1*X29766Y8245D2*X30937Y8245D1*X31326Y7856*X31326Y7076*X30937Y6685*X29766Y6685*X29766Y8245D2*X29766Y5906D1*X27427Y7856D2*X27818Y8245D1*X28598Y8245*X28986Y7856*X28986Y6297*X28598Y5906*X27818Y5906*X27427Y6297*X27427Y7856*X25090Y5906D2*X26647Y8245D1*X18072Y7465D2*X18852Y8245D1*X19632Y7465*X22751Y8245D2*X22751Y5906D1*X23919Y5906*X24310Y6297*X24310Y7856*X23919Y8245*X22751Y8245*X21971Y8245D2*X21971Y5906D1*X20411Y8245*X20411Y5906*X19632Y7465D2*X19632Y5906D1*X18072Y7076D2*X19632Y7076D1*X18072Y7465D2*X18072Y5906D1*X8717Y7856D2*X9108Y8245D1*X9888Y8245*X10277Y7856*X10277Y7465*X12616Y5906D2*X11057Y7465D1*X14956Y5906D2*X13396Y5906D1*X14956Y7465*X14956Y7856*X14564Y8245*X13785Y8245*X13396Y7856*X11057Y5906D2*X12616Y7465D1*X10277Y5906D2*X8717Y5906D1*X10277Y7465*D109*X13780Y43012D2*X13780Y43170D1*X13152Y43170*X12845Y42697D2*X12217Y42697D1*X12687Y43170*X12687Y42228*X13152Y42228D2*X13152Y42385D1*X13780Y43012*X14717Y43012D2*X14559Y43170D1*X14244Y43170*X14089Y43012*X14089Y42385*X14244Y42228D2*X14559Y42228D1*X14717Y42385*X14717Y43012*X14089Y42385*X14244Y42228*X13780Y11580D2*X13780Y11737D1*X13152Y11737*X12845Y11265D2*X12217Y11265D1*X12687Y11737*X12687Y10795*X13152Y10795D2*X13152Y10952D1*X13780Y11580*X14089Y10952D2*X14089Y11580D1*X14244Y11737*X14559Y11737*X14717Y11580D2*X14717Y10952D1*X14559Y10795*X14244Y10795*X14089Y10952*X14717Y11580*X14559Y11737*X14714Y18415D2*X14244Y18730D1*X14714Y19042*X12372Y17137D2*X12687Y17452D1*X13000Y16510D2*X12372Y16510D1*X12687Y17452D2*X12687Y16510D1*X12372Y19042D2*X12687Y19357D1*X12687Y18415*X13000Y18415D2*X12372Y18415D1*X13310Y18572D2*X13310Y19200D1*X13465Y19357*X13780Y19357*X13937Y19200*X14244Y18415D2*X14244Y19357D1*X13780Y18415D2*X13937Y18572D1*X13937Y19200*X13310Y18572*X13465Y18415*X13780Y18415*X13937Y17295D2*X13780Y17452D1*X13465Y17452*X13310Y17295*X13310Y16667*X13937Y16667D2*X13937Y17295D1*X13310Y16667*X13465Y16510*X13780Y16510*X13937Y16667*X14244Y17452D2*X14244Y16510D1*X14714Y17137D2*X14244Y16825D1*X14714Y16510*X17628Y14788D2*X17940Y15103D1*X17940Y14160*X18255Y14160D2*X17628Y14160D1*X19190Y14945D2*X19032Y15103D1*X18720Y15103*X18562Y14945*X18562Y14318*X19190Y14318D2*X19032Y14160D1*X18720Y14160*X18562Y14318*X19190Y14945*X19190Y14318*X19969Y14160D2*X19500Y14475D1*X19969Y14788*X19500Y15103D2*X19500Y14160D1*X22898Y19474D2*X23053Y19632D1*X23053Y18694D2*X22898Y18694D1*X22898Y18070*X23368Y17760D2*X23368Y17132D1*X22898Y17602*X23838Y17602*X23838Y18070D2*X23680Y18070D1*X23053Y18694*X23680Y19004D2*X23838Y19162D1*X23838Y19474*X23680Y19632*X23053Y19632*X23680Y19004*X23053Y19004*X22898Y19162*X22898Y19474*X19969Y20510D2*X19500Y20825D1*X19969Y21138*X19500Y21453D2*X19500Y20510D1*X19190Y21295D2*X19190Y20668D1*X19032Y20510*X18720Y20510*X18562Y20668*X19190Y21295*X19032Y21453*X18720Y21453*X18562Y21295*X18562Y20668*X17628Y20510D2*X18255Y20510D1*X17940Y20510D2*X17940Y21453D1*X17628Y21138*X12687Y24130D2*X12687Y25072D1*X14089Y24915D2*X14089Y24287D1*X14717Y24915D2*X14717Y24287D1*X14559Y24130*X14244Y24130*X14089Y24287*X14717Y24915*X14559Y25072*X14244Y25072*X14089Y24915*X13780Y25072D2*X13780Y24915D1*X13152Y24287*X13152Y24130*X12845Y24600D2*X12217Y24600D1*X12687Y25072*X13780Y25072D2*X13152Y25072D1*X13780Y29677D2*X13780Y29835D1*X13152Y29835*X12845Y29362D2*X12217Y29362D1*X12687Y29835*X12687Y28892*X13152Y28892D2*X13152Y29050D1*X13780Y29677*X14089Y29050D2*X14089Y29677D1*X14244Y29835*X14559Y29835*X14717Y29677*X14089Y29050*X14244Y28892*X14559Y28892*X14717Y29050*X14717Y29677*X19969Y32258D2*X19500Y32573D1*X19969Y32885*X19500Y33200D2*X19500Y32258D1*X19190Y33043D2*X19032Y33200D1*X18720Y33200*X18562Y33043*X18562Y32415*X18720Y32258*X19032Y32258*X19190Y32415*X19190Y33043*X18562Y32415*X17628Y32258D2*X18255Y32258D1*X17940Y32258D2*X17940Y33200D1*X17628Y32885*X13310Y34765D2*X13310Y35392D1*X14714Y34608D2*X14244Y34922D1*X14714Y35235*X14244Y35550D2*X14244Y34608D1*X13937Y35392D2*X13937Y34765D1*X13780Y34608*X13465Y34608*X13310Y34765*X13937Y35392*X13780Y35550*X13465Y35550*X13310Y35392*X12372Y35235D2*X12687Y35550D1*X13000Y34608D2*X12372Y34608D1*X12687Y35550D2*X12687Y34608D1*X12372Y37140D2*X12687Y37455D1*X12687Y36512*X13000Y36512D2*X12372Y36512D1*X13310Y36670D2*X13310Y37297D1*X13465Y37455*X13780Y37455*X13937Y37297*X13310Y36670*X13465Y36512*X13780Y36512*X13937Y36670*X13937Y37297*X14244Y36512D2*X14244Y37455D1*X14714Y36512D2*X14244Y36827D1*X14714Y37140*X17628Y39235D2*X17940Y39550D1*X17940Y38608*X18255Y38608D2*X17628Y38608D1*X19190Y39393D2*X19032Y39550D1*X18720Y39550*X18562Y39393*X18562Y38765*X19190Y38765D2*X19190Y39393D1*X18562Y38765*X18720Y38608*X19032Y38608*X19190Y38765*X19500Y39550D2*X19500Y38608D1*X19969Y39235D2*X19500Y38923D1*X19969Y38608*X23053Y36474D2*X22898Y36474D1*X22898Y35850*X23368Y35540D2*X23368Y34912D1*X22898Y35382*X23838Y35382*X23838Y35850D2*X23680Y35850D1*X23053Y36474*X23053Y37412D2*X22898Y37254D1*X22898Y36942*X23053Y36784*X23680Y36784*X23838Y37254D2*X23680Y37412D1*X23053Y37412*X23680Y36784*X23838Y36942*X23838Y37254*X33477Y39393D2*X33477Y39550D1*X32850Y39550*X32542Y39078D2*X31915Y39078D1*X32385Y39550*X32385Y38608*X32850Y38608D2*X32850Y38765D1*X33477Y39393*X34414Y39393D2*X34257Y39550D1*X33942Y39550*X33787Y39393*X33787Y38765*X34257Y38608D2*X34414Y38765D1*X34414Y39393*X33787Y38765*X33942Y38608*X34257Y38608*X45436Y26180D2*X45123Y26492D1*X47155Y27742D2*X47310Y27899D1*X47310Y26962D2*X47155Y26962D1*X47155Y26337*X47625Y26027D2*X47625Y25400D1*X47155Y25870*X48095Y25870*X48095Y26337D2*X47937Y26337D1*X47310Y26962*X47937Y27272D2*X48095Y27429D1*X48095Y27742*X47937Y27899*X47310Y27899*X47937Y27272*X47310Y27272*X47155Y27429*X47155Y27742*X45436Y28519D2*X45750Y28049D1*X46063Y28519*X45123Y28049D2*X46063Y28049D1*X45278Y27742D2*X45905Y27742D1*X46063Y27584*X46063Y27272*X45905Y27114*X45278Y27742*X45123Y27584*X45123Y27272*X45278Y27114*X45905Y27114*X46063Y26180D2*X46063Y26807D1*X45123Y26492D2*X46063Y26492D1*X42865Y26337D2*X43492Y26337D1*X40800Y25400D2*X40488Y25715D1*X41427Y25715*X41427Y26027D2*X41427Y25400D1*X41270Y26337D2*X40643Y26337D1*X40488Y26492*X40488Y26807*X40643Y26962*X41270Y26962D2*X40643Y26962D1*X41270Y26337*X41427Y26492*X41427Y26807*X41270Y26962*X40488Y27272D2*X41427Y27272D1*X40800Y27742D2*X41115Y27272D1*X41427Y27742*X43023Y27742D2*X43337Y27272D1*X43650Y27742*X42710Y27272D2*X43650Y27272D1*X42865Y26962D2*X43492Y26962D1*X43650Y26807*X43650Y26492*X43492Y26337*X42865Y26962*X42710Y26807*X42710Y26492*X42865Y26337*X43023Y25400D2*X42710Y25715D1*X43650Y25715*X43650Y25400D2*X43650Y26027D1*X43205Y7836D2*X43518Y7836D1*X40399Y5842D2*X40399Y6784D1*X42271Y6784D2*X42271Y5842D1*X41333Y6312D2*X41648Y6312D1*X41961Y6784D2*X41333Y6784D1*X41333Y7836D2*X41961Y7836D1*X41333Y7366D2*X41333Y7993D1*X41648Y8308*X41961Y7993*X41961Y7366*X42271Y7366D2*X42271Y8308D1*X42583Y7993*X42898Y8308*X42898Y7366*X43205Y7366D2*X43205Y8308D1*X43833Y8308*X44768Y8151D2*X44613Y8308D1*X44298Y8308*X44140Y8151*X44140Y7993*X44298Y7836*X44613Y7836*X44768Y7681*X44768Y7523*X44613Y7366*X44298Y7366*X44140Y7523*X43205Y7366D2*X43833Y7366D1*X43205Y5842D2*X43205Y6784D1*X44768Y6312D2*X44140Y6312D1*X45705Y6784D2*X45705Y5842D1*X45077Y6784*X45077Y5842*X44768Y5842D2*X44768Y6469D1*X44455Y6784*X44140Y6469*X44140Y5842*X43833Y5842D2*X43833Y6784D1*X43518Y6469*X43205Y6784*X42898Y6784D2*X42898Y5842D1*X42583Y6157*X42271Y5842*X41961Y5842D2*X41333Y5842D1*X41333Y6784*X41026Y6784D2*X41026Y5842D1*X40399Y6784*X40399Y7523D2*X40556Y7366D1*X40714Y7366*X40869Y7523*X40869Y8308*X40714Y8308D2*X41026Y8308D1*X34414Y15263D2*X34257Y15420D1*X33942Y15420*X33787Y15263*X33787Y14635D2*X33942Y14478D1*X34257Y14478*X34414Y14635*X34414Y15263*X33787Y14635*X33787Y15263*X32850Y15420D2*X33477Y15420D1*X33477Y15263*X32850Y14635*X32850Y14478*X32542Y14948D2*X31915Y14948D1*X32385Y15420*X32385Y14478*D110*X50102Y17234D2*X52324Y17234D1*X51054Y37554D2*X51054Y35014D1*X49784Y36284D2*X52324Y36284D1*X0Y0D2*M02*