G75*
G70*
%OFA0B0*%
%FSLAX24Y24*%
%IPPOS*%
%LPD*%
%AMOC8*
5,1,8,0,0,1.08239X$1,22.5*
%
%ADD10C,0.0515*%
%ADD11C,0.0476*%
%ADD12C,0.0709*%
%ADD13C,0.0357*%
%ADD14C,0.0160*%
D10*
X004600Y002035D03*
X006600Y002035D03*
X006350Y004160D03*
X006350Y005160D03*
X006350Y006160D03*
X006350Y007160D03*
X006350Y008160D03*
X006350Y009160D03*
X004350Y009160D03*
X004350Y008160D03*
X004350Y007160D03*
X003350Y008160D03*
X002350Y008160D03*
X004350Y006160D03*
X004350Y005160D03*
X004350Y004160D03*
X003350Y005910D03*
X002350Y005910D03*
X002350Y012160D03*
X003350Y012160D03*
X003350Y013160D03*
X002850Y014160D03*
X001350Y013160D03*
X004850Y014160D03*
X005725Y014160D03*
X007725Y014160D03*
X013850Y013160D03*
X014600Y013160D03*
X015350Y013160D03*
X016350Y013660D03*
X016350Y014660D03*
X015350Y015160D03*
X014600Y015160D03*
X013850Y015160D03*
X014225Y017160D03*
X016225Y017160D03*
X015350Y012160D03*
X014600Y012160D03*
X013850Y012160D03*
X013850Y010160D03*
X014600Y010160D03*
X015350Y010160D03*
X016350Y010660D03*
X016350Y011660D03*
X015350Y009160D03*
X014600Y009160D03*
X013850Y009160D03*
X013850Y007160D03*
X014600Y007160D03*
X015350Y007160D03*
X016350Y007660D03*
X016350Y008660D03*
X015350Y006160D03*
X014600Y006160D03*
X013850Y006160D03*
X013850Y004160D03*
X014600Y004160D03*
X015350Y004160D03*
X016350Y004660D03*
X016350Y005660D03*
D11*
X012850Y005660D03*
X012350Y005160D03*
X012850Y004660D03*
X011600Y004160D03*
X011100Y004660D03*
X010600Y004160D03*
X011100Y005660D03*
X010600Y006160D03*
X011600Y006160D03*
X011600Y007160D03*
X011100Y007660D03*
X010600Y007160D03*
X011100Y008660D03*
X010600Y009160D03*
X011600Y009160D03*
X011600Y010160D03*
X011100Y010660D03*
X010600Y010160D03*
X011100Y011660D03*
X010600Y012160D03*
X011600Y012160D03*
X011600Y013160D03*
X011100Y013660D03*
X010600Y013160D03*
X011100Y014660D03*
X010600Y015160D03*
X011600Y015160D03*
X012350Y014160D03*
X012850Y013660D03*
X012850Y014660D03*
X012850Y011660D03*
X012350Y011160D03*
X012850Y010660D03*
X012725Y008660D03*
X012225Y008160D03*
X012725Y007660D03*
X008350Y007660D03*
X007850Y007160D03*
X007350Y007660D03*
X007850Y008660D03*
X007350Y009160D03*
X008350Y009160D03*
X007600Y012160D03*
X007100Y012660D03*
X007600Y013160D03*
X006100Y013160D03*
X005600Y012660D03*
X006100Y012160D03*
X004600Y012160D03*
X004100Y012660D03*
X004600Y013160D03*
X007350Y006160D03*
X007850Y005660D03*
X008350Y006160D03*
X008350Y004660D03*
X007850Y004160D03*
X007350Y004660D03*
D12*
X001225Y006410D03*
X001225Y008660D03*
X001225Y012160D03*
X005350Y017410D03*
X007850Y017410D03*
X017600Y014160D03*
X019100Y014160D03*
X019100Y011160D03*
X017600Y011160D03*
X017600Y008160D03*
X019100Y008160D03*
X019100Y005160D03*
X017600Y005160D03*
D13*
X009600Y006660D03*
X009225Y007035D03*
X009225Y009660D03*
X009600Y011660D03*
X009225Y014660D03*
D14*
X002238Y001479D02*
X002170Y001410D01*
X018530Y001410D01*
X018462Y001479D01*
X018316Y001732D01*
X018240Y002014D01*
X018240Y002306D01*
X018316Y002589D01*
X018462Y002842D01*
X018668Y003048D01*
X018922Y003194D01*
X019204Y003270D01*
X019496Y003270D01*
X019600Y003242D01*
X019600Y005023D01*
X019536Y004869D01*
X019391Y004724D01*
X019202Y004646D01*
X018998Y004646D01*
X018809Y004724D01*
X018664Y004869D01*
X018586Y005058D01*
X018586Y005263D01*
X018664Y005452D01*
X018809Y005596D01*
X018998Y005675D01*
X019202Y005675D01*
X019391Y005596D01*
X019536Y005452D01*
X019600Y005297D01*
X019600Y008023D01*
X019536Y007869D01*
X019391Y007724D01*
X019202Y007646D01*
X018998Y007646D01*
X018809Y007724D01*
X018664Y007869D01*
X018586Y008058D01*
X018586Y008263D01*
X018664Y008452D01*
X018809Y008596D01*
X018998Y008675D01*
X019202Y008675D01*
X019391Y008596D01*
X019536Y008452D01*
X019600Y008297D01*
X019600Y011023D01*
X019536Y010869D01*
X019391Y010724D01*
X019202Y010646D01*
X018998Y010646D01*
X018809Y010724D01*
X018664Y010869D01*
X018586Y011058D01*
X018586Y011263D01*
X018664Y011452D01*
X018809Y011596D01*
X018998Y011675D01*
X019202Y011675D01*
X019391Y011596D01*
X019536Y011452D01*
X019600Y011297D01*
X019600Y014023D01*
X019536Y013869D01*
X019391Y013724D01*
X019202Y013646D01*
X018998Y013646D01*
X018809Y013724D01*
X018664Y013869D01*
X018586Y014058D01*
X018586Y014263D01*
X018664Y014452D01*
X018809Y014596D01*
X018998Y014675D01*
X019202Y014675D01*
X019391Y014596D01*
X019536Y014452D01*
X019600Y014297D01*
X019600Y016078D01*
X019496Y016050D01*
X019204Y016050D01*
X018922Y016126D01*
X018668Y016272D01*
X018462Y016479D01*
X018316Y016732D01*
X018240Y017014D01*
X018240Y017306D01*
X018316Y017589D01*
X018462Y017842D01*
X018530Y017910D01*
X008040Y017910D01*
X008055Y017905D01*
X008130Y017867D01*
X008198Y017818D01*
X008258Y017758D01*
X008307Y017690D01*
X008345Y017615D01*
X008371Y017535D01*
X008384Y017452D01*
X008384Y017448D01*
X007888Y017448D01*
X007888Y017372D01*
X007888Y016876D01*
X007892Y016876D01*
X007975Y016889D01*
X008055Y016915D01*
X008130Y016953D01*
X008198Y017003D01*
X008258Y017062D01*
X008307Y017130D01*
X008345Y017205D01*
X008371Y017285D01*
X008384Y017368D01*
X008384Y017372D01*
X007888Y017372D01*
X007812Y017372D01*
X007812Y016876D01*
X007808Y016876D01*
X007725Y016889D01*
X007645Y016915D01*
X007570Y016953D01*
X007502Y017003D01*
X007442Y017062D01*
X007393Y017130D01*
X007355Y017205D01*
X007329Y017285D01*
X007316Y017368D01*
X007316Y017372D01*
X007812Y017372D01*
X007812Y017448D01*
X007316Y017448D01*
X007316Y017452D01*
X007329Y017535D01*
X007355Y017615D01*
X007393Y017690D01*
X007442Y017758D01*
X007502Y017818D01*
X007570Y017867D01*
X007645Y017905D01*
X007660Y017910D01*
X005487Y017910D01*
X005641Y017846D01*
X005786Y017702D01*
X005864Y017513D01*
X005864Y017308D01*
X005786Y017119D01*
X005641Y016974D01*
X005452Y016896D01*
X005248Y016896D01*
X005059Y016974D01*
X004914Y017119D01*
X004836Y017308D01*
X004836Y017513D01*
X004914Y017702D01*
X005059Y017846D01*
X005213Y017910D01*
X002170Y017910D01*
X002238Y017842D01*
X002384Y017589D01*
X002460Y017306D01*
X002460Y017014D01*
X002384Y016732D01*
X002238Y016479D01*
X002032Y016272D01*
X001778Y016126D01*
X001496Y016050D01*
X001204Y016050D01*
X000922Y016126D01*
X000668Y016272D01*
X000600Y016341D01*
X000600Y002980D01*
X000668Y003048D01*
X000922Y003194D01*
X001204Y003270D01*
X001496Y003270D01*
X001778Y003194D01*
X002032Y003048D01*
X002238Y002842D01*
X002384Y002589D01*
X002460Y002306D01*
X002460Y002014D01*
X002384Y001732D01*
X002238Y001479D01*
X002276Y001544D02*
X018424Y001544D01*
X018333Y001703D02*
X006886Y001703D01*
X006885Y001702D02*
X006934Y001750D01*
X006974Y001806D01*
X007005Y001867D01*
X007027Y001933D01*
X007037Y002001D01*
X007037Y002035D01*
X006600Y002035D01*
X006600Y001598D01*
X006634Y001598D01*
X006702Y001608D01*
X006768Y001630D01*
X006829Y001661D01*
X006885Y001702D01*
X007002Y001861D02*
X018281Y001861D01*
X018240Y002020D02*
X007037Y002020D01*
X007037Y002035D02*
X007037Y002070D01*
X007027Y002138D01*
X007005Y002203D01*
X006974Y002264D01*
X006934Y002320D01*
X006885Y002369D01*
X006829Y002409D01*
X006768Y002441D01*
X006702Y002462D01*
X006634Y002473D01*
X006600Y002473D01*
X006566Y002473D01*
X006498Y002462D01*
X006432Y002441D01*
X006371Y002409D01*
X006315Y002369D01*
X006266Y002320D01*
X006226Y002264D01*
X006195Y002203D01*
X006173Y002138D01*
X006163Y002070D01*
X006163Y002035D01*
X006163Y002001D01*
X006173Y001933D01*
X006195Y001867D01*
X006226Y001806D01*
X006266Y001750D01*
X006315Y001702D01*
X006371Y001661D01*
X006432Y001630D01*
X006498Y001608D01*
X006566Y001598D01*
X006600Y001598D01*
X006600Y002035D01*
X006600Y002035D01*
X006600Y002035D01*
X006163Y002035D01*
X006600Y002035D01*
X006600Y002035D01*
X007037Y002035D01*
X007014Y002178D02*
X018240Y002178D01*
X018248Y002337D02*
X006917Y002337D01*
X006600Y002337D02*
X006600Y002337D01*
X006600Y002473D02*
X006600Y002035D01*
X006600Y002035D01*
X006600Y002473D01*
X006283Y002337D02*
X004889Y002337D01*
X004836Y002389D02*
X004683Y002453D01*
X004517Y002453D01*
X004364Y002389D01*
X004246Y002272D01*
X004183Y002118D01*
X004183Y001952D01*
X004246Y001799D01*
X004364Y001681D01*
X004517Y001618D01*
X004683Y001618D01*
X004836Y001681D01*
X004954Y001799D01*
X005017Y001952D01*
X005017Y002118D01*
X004954Y002272D01*
X004836Y002389D01*
X004993Y002178D02*
X006186Y002178D01*
X006163Y002020D02*
X005017Y002020D01*
X004980Y001861D02*
X006198Y001861D01*
X006314Y001703D02*
X004858Y001703D01*
X004342Y001703D02*
X002367Y001703D01*
X002419Y001861D02*
X004220Y001861D01*
X004183Y002020D02*
X002460Y002020D01*
X002460Y002178D02*
X004207Y002178D01*
X004311Y002337D02*
X002452Y002337D01*
X002409Y002495D02*
X018291Y002495D01*
X018353Y002654D02*
X002347Y002654D01*
X002255Y002812D02*
X018445Y002812D01*
X018591Y002971D02*
X002109Y002971D01*
X001891Y003129D02*
X018809Y003129D01*
X019600Y003288D02*
X000600Y003288D01*
X000600Y003446D02*
X019600Y003446D01*
X019600Y003605D02*
X000600Y003605D01*
X000600Y003763D02*
X004218Y003763D01*
X004267Y003743D02*
X004433Y003743D01*
X004586Y003806D01*
X004704Y003924D01*
X004767Y004077D01*
X004767Y004243D01*
X004704Y004397D01*
X004586Y004514D01*
X004433Y004578D01*
X004267Y004578D01*
X004114Y004514D01*
X003996Y004397D01*
X003933Y004243D01*
X003933Y004077D01*
X003996Y003924D01*
X004114Y003806D01*
X004267Y003743D01*
X004482Y003763D02*
X006218Y003763D01*
X006267Y003743D02*
X006433Y003743D01*
X006586Y003806D01*
X006704Y003924D01*
X006767Y004077D01*
X006767Y004243D01*
X006704Y004397D01*
X006586Y004514D01*
X006433Y004578D01*
X006267Y004578D01*
X006114Y004514D01*
X005996Y004397D01*
X005933Y004243D01*
X005933Y004077D01*
X005996Y003924D01*
X006114Y003806D01*
X006267Y003743D01*
X006482Y003763D02*
X007769Y003763D01*
X007771Y003762D02*
X007929Y003762D01*
X008075Y003823D01*
X008187Y003935D01*
X008248Y004081D01*
X008248Y004239D01*
X010202Y004239D01*
X010202Y004081D01*
X010263Y003935D01*
X010375Y003823D01*
X010521Y003762D01*
X010679Y003762D01*
X010825Y003823D01*
X010937Y003935D01*
X010998Y004081D01*
X010998Y004239D01*
X011202Y004239D01*
X011202Y004081D01*
X011263Y003935D01*
X011375Y003823D01*
X011521Y003762D01*
X011679Y003762D01*
X011825Y003823D01*
X011937Y003935D01*
X011998Y004081D01*
X011998Y004239D01*
X013433Y004239D01*
X013433Y004243D02*
X013433Y004077D01*
X013496Y003924D01*
X013614Y003806D01*
X013767Y003743D01*
X013933Y003743D01*
X014086Y003806D01*
X014204Y003924D01*
X014225Y003975D01*
X014246Y003924D01*
X014364Y003806D01*
X014517Y003743D01*
X014683Y003743D01*
X014836Y003806D01*
X014954Y003924D01*
X014975Y003975D01*
X014996Y003924D01*
X015114Y003806D01*
X015267Y003743D01*
X015433Y003743D01*
X015586Y003806D01*
X015704Y003924D01*
X015767Y004077D01*
X015767Y004243D01*
X015704Y004397D01*
X015586Y004514D01*
X015433Y004578D01*
X015267Y004578D01*
X015114Y004514D01*
X014996Y004397D01*
X014975Y004346D01*
X014954Y004397D01*
X014836Y004514D01*
X014683Y004578D01*
X014517Y004578D01*
X014364Y004514D01*
X014246Y004397D01*
X014225Y004346D01*
X014204Y004397D01*
X014086Y004514D01*
X013933Y004578D01*
X013767Y004578D01*
X013614Y004514D01*
X013496Y004397D01*
X013433Y004243D01*
X013433Y004080D02*
X011997Y004080D01*
X011998Y004239D02*
X011937Y004386D01*
X011825Y004497D01*
X011679Y004558D01*
X011521Y004558D01*
X011481Y004542D01*
X011498Y004581D01*
X011498Y004739D01*
X011437Y004886D01*
X011325Y004997D01*
X011179Y005058D01*
X011021Y005058D01*
X010875Y004997D01*
X010763Y004886D01*
X010702Y004739D01*
X010702Y004581D01*
X010719Y004542D01*
X010679Y004558D01*
X010521Y004558D01*
X010375Y004497D01*
X010263Y004386D01*
X010202Y004239D01*
X010203Y004080D02*
X008247Y004080D01*
X008248Y004239D02*
X008241Y004256D01*
X008252Y004253D01*
X008317Y004242D01*
X008350Y004242D01*
X008383Y004242D01*
X008448Y004253D01*
X008510Y004273D01*
X008569Y004303D01*
X008622Y004342D01*
X008669Y004388D01*
X008707Y004441D01*
X008737Y004500D01*
X008758Y004562D01*
X008768Y004627D01*
X008768Y004660D01*
X008350Y004660D01*
X008350Y004242D01*
X008350Y004660D01*
X008350Y004660D01*
X007932Y004660D01*
X007932Y004627D01*
X007942Y004562D01*
X007946Y004551D01*
X007929Y004558D01*
X007771Y004558D01*
X007731Y004542D01*
X007748Y004581D01*
X007748Y004739D01*
X007687Y004886D01*
X007575Y004997D01*
X007429Y005058D01*
X007271Y005058D01*
X007125Y004997D01*
X007013Y004886D01*
X006952Y004739D01*
X006952Y004581D01*
X007013Y004435D01*
X007125Y004323D01*
X007271Y004262D01*
X007429Y004262D01*
X007469Y004279D01*
X007452Y004239D01*
X006767Y004239D01*
X006767Y004080D02*
X007453Y004080D01*
X007452Y004081D02*
X007513Y003935D01*
X007625Y003823D01*
X007771Y003762D01*
X007931Y003763D02*
X010519Y003763D01*
X010681Y003763D02*
X011519Y003763D01*
X011681Y003763D02*
X013718Y003763D01*
X013982Y003763D02*
X014468Y003763D01*
X014248Y003922D02*
X014202Y003922D01*
X014203Y004397D02*
X014247Y004397D01*
X014464Y004556D02*
X013986Y004556D01*
X013714Y004556D02*
X013255Y004556D01*
X013258Y004562D02*
X013268Y004627D01*
X013268Y004660D01*
X012850Y004660D01*
X012850Y004242D01*
X012883Y004242D01*
X012948Y004253D01*
X013010Y004273D01*
X013069Y004303D01*
X013122Y004342D01*
X013169Y004388D01*
X013207Y004441D01*
X013237Y004500D01*
X013258Y004562D01*
X013268Y004660D02*
X013268Y004693D01*
X013258Y004758D01*
X013237Y004821D01*
X013207Y004879D01*
X013169Y004932D01*
X013122Y004979D01*
X013069Y005018D01*
X013010Y005047D01*
X012948Y005068D01*
X012883Y005078D01*
X012850Y005078D01*
X012850Y004660D01*
X012850Y004660D01*
X012850Y004242D01*
X012817Y004242D01*
X012752Y004253D01*
X012690Y004273D01*
X012631Y004303D01*
X012578Y004342D01*
X012531Y004388D01*
X012493Y004441D01*
X012463Y004500D01*
X012442Y004562D01*
X012432Y004627D01*
X012432Y004660D01*
X012850Y004660D01*
X012850Y004660D01*
X012850Y004660D01*
X013268Y004660D01*
X013264Y004714D02*
X015933Y004714D01*
X015933Y004743D02*
X015933Y004577D01*
X015996Y004424D01*
X016114Y004306D01*
X016267Y004243D01*
X016433Y004243D01*
X016586Y004306D01*
X016704Y004424D01*
X016767Y004577D01*
X016767Y004743D01*
X016704Y004897D01*
X016586Y005014D01*
X016433Y005078D01*
X016267Y005078D01*
X016114Y005014D01*
X015996Y004897D01*
X015933Y004743D01*
X015986Y004873D02*
X013211Y004873D01*
X013042Y005031D02*
X016155Y005031D01*
X016545Y005031D02*
X017097Y005031D01*
X017086Y005058D02*
X017164Y004869D01*
X017309Y004724D01*
X017498Y004646D01*
X017702Y004646D01*
X017891Y004724D01*
X018036Y004869D01*
X018114Y005058D01*
X018114Y005263D01*
X018036Y005452D01*
X017891Y005596D01*
X017702Y005675D01*
X017498Y005675D01*
X017309Y005596D01*
X017164Y005452D01*
X017086Y005263D01*
X017086Y005058D01*
X017086Y005190D02*
X012748Y005190D01*
X012748Y005239D02*
X012748Y005081D01*
X012741Y005064D01*
X012752Y005068D01*
X012817Y005078D01*
X012850Y005078D01*
X012850Y004660D01*
X012432Y004660D01*
X012432Y004693D01*
X012442Y004758D01*
X012446Y004769D01*
X012429Y004762D01*
X012271Y004762D01*
X012125Y004823D01*
X012013Y004935D01*
X011952Y005081D01*
X011952Y005239D01*
X012013Y005386D01*
X012125Y005497D01*
X012271Y005558D01*
X012429Y005558D01*
X012469Y005542D01*
X012452Y005581D01*
X012452Y005739D01*
X012513Y005886D01*
X012625Y005997D01*
X012771Y006058D01*
X012929Y006058D01*
X013075Y005997D01*
X013187Y005886D01*
X013248Y005739D01*
X013248Y005581D01*
X013187Y005435D01*
X013075Y005323D01*
X012929Y005262D01*
X012771Y005262D01*
X012731Y005279D01*
X012748Y005239D01*
X012850Y005031D02*
X012850Y005031D01*
X012850Y004873D02*
X012850Y004873D01*
X012850Y004714D02*
X012850Y004714D01*
X012850Y004660D02*
X012850Y004660D01*
X012850Y004556D02*
X012850Y004556D01*
X012850Y004397D02*
X012850Y004397D01*
X013175Y004397D02*
X013497Y004397D01*
X013498Y003922D02*
X011924Y003922D01*
X011926Y004397D02*
X012525Y004397D01*
X012445Y004556D02*
X011685Y004556D01*
X011515Y004556D02*
X011487Y004556D01*
X011498Y004714D02*
X012436Y004714D01*
X012075Y004873D02*
X011443Y004873D01*
X011244Y005031D02*
X011973Y005031D01*
X011952Y005190D02*
X006767Y005190D01*
X006767Y005243D02*
X006767Y005077D01*
X006704Y004924D01*
X006586Y004806D01*
X006433Y004743D01*
X006267Y004743D01*
X006114Y004806D01*
X005996Y004924D01*
X005933Y005077D01*
X005933Y005243D01*
X005996Y005397D01*
X006114Y005514D01*
X006267Y005578D01*
X006433Y005578D01*
X006586Y005514D01*
X006704Y005397D01*
X006767Y005243D01*
X006724Y005348D02*
X007599Y005348D01*
X007625Y005323D02*
X007771Y005262D01*
X007929Y005262D01*
X008075Y005323D01*
X008187Y005435D01*
X008248Y005581D01*
X008248Y005739D01*
X008241Y005756D01*
X008252Y005753D01*
X008317Y005742D01*
X008350Y005742D01*
X008383Y005742D01*
X008448Y005753D01*
X008510Y005773D01*
X008569Y005803D01*
X008622Y005842D01*
X008669Y005888D01*
X008707Y005941D01*
X008737Y006000D01*
X008758Y006062D01*
X008768Y006127D01*
X008768Y006160D01*
X008350Y006160D01*
X008350Y005742D01*
X008350Y006160D01*
X008350Y006160D01*
X007932Y006160D01*
X007932Y006127D01*
X007942Y006062D01*
X007946Y006051D01*
X007929Y006058D01*
X007771Y006058D01*
X007731Y006042D01*
X007748Y006081D01*
X007748Y006239D01*
X007687Y006386D01*
X007575Y006497D01*
X007429Y006558D01*
X007271Y006558D01*
X007125Y006497D01*
X007013Y006386D01*
X006952Y006239D01*
X006952Y006081D01*
X007013Y005935D01*
X007125Y005823D01*
X007271Y005762D01*
X007429Y005762D01*
X007469Y005779D01*
X007452Y005739D01*
X007452Y005581D01*
X007513Y005435D01*
X007625Y005323D01*
X007483Y005507D02*
X006594Y005507D01*
X006433Y005743D02*
X006267Y005743D01*
X006114Y005806D01*
X005996Y005924D01*
X005933Y006077D01*
X005933Y006243D01*
X005996Y006397D01*
X006114Y006514D01*
X006267Y006578D01*
X006433Y006578D01*
X006586Y006514D01*
X006704Y006397D01*
X006767Y006243D01*
X006767Y006077D01*
X006704Y005924D01*
X006586Y005806D01*
X006433Y005743D01*
X006604Y005824D02*
X007124Y005824D01*
X006993Y005982D02*
X006728Y005982D01*
X006767Y006141D02*
X006952Y006141D01*
X006977Y006299D02*
X006744Y006299D01*
X006643Y006458D02*
X007085Y006458D01*
X007615Y006458D02*
X008057Y006458D01*
X008078Y006479D02*
X008031Y006432D01*
X007993Y006379D01*
X007963Y006321D01*
X007942Y006258D01*
X007932Y006193D01*
X007932Y006160D01*
X008350Y006160D01*
X008350Y006160D01*
X008350Y006160D01*
X008768Y006160D01*
X008768Y006193D01*
X008758Y006258D01*
X008737Y006321D01*
X008707Y006379D01*
X008669Y006432D01*
X008622Y006479D01*
X008569Y006518D01*
X008510Y006547D01*
X008448Y006568D01*
X008383Y006578D01*
X008350Y006578D01*
X008350Y006160D01*
X008350Y006578D01*
X008317Y006578D01*
X008252Y006568D01*
X008190Y006547D01*
X008131Y006518D01*
X008078Y006479D01*
X007956Y006299D02*
X007723Y006299D01*
X007748Y006141D02*
X007932Y006141D01*
X008350Y006141D02*
X008350Y006141D01*
X008350Y006160D02*
X008350Y006160D01*
X008350Y006299D02*
X008350Y006299D01*
X008350Y006458D02*
X008350Y006458D01*
X008643Y006458D02*
X009324Y006458D01*
X009313Y006469D02*
X009408Y006373D01*
X009533Y006322D01*
X009667Y006322D01*
X009792Y006373D01*
X009887Y006469D01*
X009938Y006593D01*
X009938Y006728D01*
X009887Y006852D01*
X009792Y006947D01*
X009667Y006999D01*
X009563Y006999D01*
X009563Y007103D01*
X009512Y007227D01*
X009417Y007322D01*
X009292Y007374D01*
X009158Y007374D01*
X009033Y007322D01*
X008938Y007227D01*
X008887Y007103D01*
X008887Y006968D01*
X008938Y006844D01*
X009033Y006748D01*
X009158Y006697D01*
X009262Y006697D01*
X009262Y006593D01*
X009313Y006469D01*
X009262Y006616D02*
X001696Y006616D01*
X001661Y006702D02*
X001516Y006846D01*
X001327Y006925D01*
X001123Y006925D01*
X000934Y006846D01*
X000789Y006702D01*
X000711Y006513D01*
X000711Y006308D01*
X000789Y006119D01*
X000934Y005974D01*
X001123Y005896D01*
X001327Y005896D01*
X001516Y005974D01*
X001661Y006119D01*
X001739Y006308D01*
X001739Y006513D01*
X001661Y006702D01*
X001588Y006775D02*
X004190Y006775D01*
X004114Y006806D02*
X004267Y006743D01*
X004433Y006743D01*
X004586Y006806D01*
X004704Y006924D01*
X004767Y007077D01*
X004767Y007243D01*
X004704Y007397D01*
X004586Y007514D01*
X004433Y007578D01*
X004267Y007578D01*
X004114Y007514D01*
X003996Y007397D01*
X003933Y007243D01*
X003933Y007077D01*
X003996Y006924D01*
X004114Y006806D01*
X003992Y006933D02*
X000600Y006933D01*
X000600Y006775D02*
X000862Y006775D01*
X000754Y006616D02*
X000600Y006616D01*
X000600Y006458D02*
X000711Y006458D01*
X000714Y006299D02*
X000600Y006299D01*
X000600Y006141D02*
X000780Y006141D01*
X000926Y005982D02*
X000600Y005982D01*
X000600Y005824D02*
X001934Y005824D01*
X001933Y005827D02*
X001996Y005674D01*
X002114Y005556D01*
X002267Y005493D01*
X002433Y005493D01*
X002586Y005556D01*
X002704Y005674D01*
X002767Y005827D01*
X002767Y005993D01*
X002704Y006147D01*
X002586Y006264D01*
X002433Y006328D01*
X002267Y006328D01*
X002114Y006264D01*
X001996Y006147D01*
X001933Y005993D01*
X001933Y005827D01*
X001933Y005982D02*
X001524Y005982D01*
X001670Y006141D02*
X001994Y006141D01*
X002198Y006299D02*
X001736Y006299D01*
X001739Y006458D02*
X004057Y006458D01*
X004114Y006514D02*
X003996Y006397D01*
X003933Y006243D01*
X003933Y006077D01*
X003996Y005924D01*
X004114Y005806D01*
X004267Y005743D01*
X004433Y005743D01*
X004586Y005806D01*
X004704Y005924D01*
X004767Y006077D01*
X004767Y006243D01*
X004704Y006397D01*
X004586Y006514D01*
X004433Y006578D01*
X004267Y006578D01*
X004114Y006514D01*
X003956Y006299D02*
X003502Y006299D01*
X003433Y006328D02*
X003267Y006328D01*
X003114Y006264D01*
X002996Y006147D01*
X002933Y005993D01*
X002933Y005827D01*
X002996Y005674D01*
X003114Y005556D01*
X003267Y005493D01*
X003433Y005493D01*
X003586Y005556D01*
X003704Y005674D01*
X003767Y005827D01*
X003767Y005993D01*
X003704Y006147D01*
X003586Y006264D01*
X003433Y006328D01*
X003198Y006299D02*
X002502Y006299D01*
X002706Y006141D02*
X002994Y006141D01*
X002933Y005982D02*
X002767Y005982D01*
X002766Y005824D02*
X002934Y005824D01*
X003005Y005665D02*
X002695Y005665D01*
X002467Y005507D02*
X003233Y005507D01*
X003467Y005507D02*
X004106Y005507D01*
X004114Y005514D02*
X003996Y005397D01*
X003933Y005243D01*
X003933Y005077D01*
X003996Y004924D01*
X004114Y004806D01*
X004267Y004743D01*
X004433Y004743D01*
X004586Y004806D01*
X004704Y004924D01*
X004767Y005077D01*
X004767Y005243D01*
X004704Y005397D01*
X004586Y005514D01*
X004433Y005578D01*
X004267Y005578D01*
X004114Y005514D01*
X003976Y005348D02*
X000600Y005348D01*
X000600Y005190D02*
X003933Y005190D01*
X003952Y005031D02*
X000600Y005031D01*
X000600Y004873D02*
X004047Y004873D01*
X004214Y004556D02*
X000600Y004556D01*
X000600Y004714D02*
X006952Y004714D01*
X006963Y004556D02*
X006486Y004556D01*
X006703Y004397D02*
X007050Y004397D01*
X007452Y004239D02*
X007452Y004081D01*
X007526Y003922D02*
X006702Y003922D01*
X005998Y003922D02*
X004702Y003922D01*
X004767Y004080D02*
X005933Y004080D01*
X005933Y004239D02*
X004767Y004239D01*
X004703Y004397D02*
X005997Y004397D01*
X006214Y004556D02*
X004486Y004556D01*
X004653Y004873D02*
X006047Y004873D01*
X005952Y005031D02*
X004748Y005031D01*
X004767Y005190D02*
X005933Y005190D01*
X005976Y005348D02*
X004724Y005348D01*
X004594Y005507D02*
X006106Y005507D01*
X006096Y005824D02*
X004604Y005824D01*
X004728Y005982D02*
X005972Y005982D01*
X005933Y006141D02*
X004767Y006141D01*
X004744Y006299D02*
X005956Y006299D01*
X006057Y006458D02*
X004643Y006458D01*
X004510Y006775D02*
X006190Y006775D01*
X006114Y006806D02*
X006267Y006743D01*
X006433Y006743D01*
X006586Y006806D01*
X006704Y006924D01*
X006767Y007077D01*
X006767Y007243D01*
X006704Y007397D01*
X006586Y007514D01*
X006433Y007578D01*
X006267Y007578D01*
X006114Y007514D01*
X005996Y007397D01*
X005933Y007243D01*
X005933Y007077D01*
X005996Y006924D01*
X006114Y006806D01*
X005992Y006933D02*
X004708Y006933D01*
X004767Y007092D02*
X005933Y007092D01*
X005935Y007250D02*
X004765Y007250D01*
X004692Y007409D02*
X006008Y007409D01*
X006242Y007567D02*
X004458Y007567D01*
X004433Y007743D02*
X004267Y007743D01*
X004114Y007806D01*
X003996Y007924D01*
X003933Y008077D01*
X003933Y008243D01*
X003996Y008397D01*
X004114Y008514D01*
X004267Y008578D01*
X004433Y008578D01*
X004586Y008514D01*
X004704Y008397D01*
X004767Y008243D01*
X004767Y008077D01*
X004704Y007924D01*
X004586Y007806D01*
X004433Y007743D01*
X004242Y007567D02*
X000600Y007567D01*
X000600Y007409D02*
X004008Y007409D01*
X003935Y007250D02*
X000600Y007250D01*
X000600Y007092D02*
X003933Y007092D01*
X003586Y007806D02*
X003433Y007743D01*
X003267Y007743D01*
X003114Y007806D01*
X002996Y007924D01*
X002933Y008077D01*
X002933Y008243D01*
X002996Y008397D01*
X003114Y008514D01*
X003267Y008578D01*
X003433Y008578D01*
X003586Y008514D01*
X003704Y008397D01*
X003767Y008243D01*
X003767Y008077D01*
X003704Y007924D01*
X003586Y007806D01*
X003664Y007884D02*
X004036Y007884D01*
X003947Y008043D02*
X003753Y008043D01*
X003767Y008201D02*
X003933Y008201D01*
X003981Y008360D02*
X003719Y008360D01*
X003577Y008518D02*
X004123Y008518D01*
X004267Y008743D02*
X004433Y008743D01*
X004586Y008806D01*
X004704Y008924D01*
X004767Y009077D01*
X004767Y009243D01*
X004704Y009397D01*
X004586Y009514D01*
X004433Y009578D01*
X004267Y009578D01*
X004114Y009514D01*
X003996Y009397D01*
X003933Y009243D01*
X003933Y009077D01*
X003996Y008924D01*
X004114Y008806D01*
X004267Y008743D01*
X004085Y008835D02*
X001709Y008835D01*
X001739Y008763D02*
X001661Y008952D01*
X001516Y009096D01*
X001327Y009175D01*
X001123Y009175D01*
X000934Y009096D01*
X000789Y008952D01*
X000711Y008763D01*
X000711Y008558D01*
X000789Y008369D01*
X000934Y008224D01*
X001123Y008146D01*
X001327Y008146D01*
X001516Y008224D01*
X001661Y008369D01*
X001739Y008558D01*
X001739Y008763D01*
X001739Y008677D02*
X007452Y008677D01*
X007452Y008739D02*
X007452Y008581D01*
X007513Y008435D01*
X007625Y008323D01*
X007771Y008262D01*
X007929Y008262D01*
X008075Y008323D01*
X008187Y008435D01*
X008248Y008581D01*
X008248Y008739D01*
X008241Y008756D01*
X008252Y008753D01*
X008317Y008742D01*
X008350Y008742D01*
X008383Y008742D01*
X008448Y008753D01*
X008510Y008773D01*
X008569Y008803D01*
X008622Y008842D01*
X008669Y008888D01*
X008707Y008941D01*
X008737Y009000D01*
X008758Y009062D01*
X008768Y009127D01*
X008768Y009160D01*
X008350Y009160D01*
X008350Y008742D01*
X008350Y009160D01*
X008350Y009160D01*
X007932Y009160D01*
X007932Y009127D01*
X007942Y009062D01*
X007946Y009051D01*
X007929Y009058D01*
X007771Y009058D01*
X007731Y009042D01*
X007748Y009081D01*
X007748Y009239D01*
X007687Y009386D01*
X007575Y009497D01*
X007429Y009558D01*
X007271Y009558D01*
X007125Y009497D01*
X007013Y009386D01*
X006952Y009239D01*
X006952Y009081D01*
X007013Y008935D01*
X007125Y008823D01*
X007271Y008762D01*
X007429Y008762D01*
X007469Y008779D01*
X007452Y008739D01*
X007478Y008518D02*
X006577Y008518D01*
X006586Y008514D02*
X006433Y008578D01*
X006267Y008578D01*
X006114Y008514D01*
X005996Y008397D01*
X005933Y008243D01*
X005933Y008077D01*
X005996Y007924D01*
X006114Y007806D01*
X006267Y007743D01*
X006433Y007743D01*
X006586Y007806D01*
X006704Y007924D01*
X006767Y008077D01*
X006767Y008243D01*
X006704Y008397D01*
X006586Y008514D01*
X006719Y008360D02*
X007588Y008360D01*
X007466Y008043D02*
X008180Y008043D01*
X008190Y008047D02*
X008131Y008018D01*
X008078Y007979D01*
X008031Y007932D01*
X007993Y007879D01*
X007963Y007821D01*
X007942Y007758D01*
X007932Y007693D01*
X007932Y007660D01*
X007932Y007627D01*
X007942Y007562D01*
X007946Y007551D01*
X007929Y007558D01*
X007771Y007558D01*
X007731Y007542D01*
X007748Y007581D01*
X007748Y007739D01*
X007687Y007886D01*
X007575Y007997D01*
X007429Y008058D01*
X007271Y008058D01*
X007125Y007997D01*
X007013Y007886D01*
X006952Y007739D01*
X006952Y007581D01*
X007013Y007435D01*
X007125Y007323D01*
X007271Y007262D01*
X007429Y007262D01*
X007469Y007279D01*
X007452Y007239D01*
X007452Y007081D01*
X007513Y006935D01*
X007625Y006823D01*
X007771Y006762D01*
X007929Y006762D01*
X008075Y006823D01*
X008187Y006935D01*
X008248Y007081D01*
X008248Y007239D01*
X008241Y007256D01*
X008252Y007253D01*
X008317Y007242D01*
X008350Y007242D01*
X008383Y007242D01*
X008448Y007253D01*
X008510Y007273D01*
X008569Y007303D01*
X008622Y007342D01*
X008669Y007388D01*
X008707Y007441D01*
X008737Y007500D01*
X008758Y007562D01*
X008768Y007627D01*
X008768Y007660D01*
X008350Y007660D01*
X008350Y007242D01*
X008350Y007660D01*
X008350Y007660D01*
X007932Y007660D01*
X008350Y007660D01*
X008350Y007660D01*
X008350Y007660D01*
X008768Y007660D01*
X008768Y007693D01*
X008758Y007758D01*
X008737Y007821D01*
X008707Y007879D01*
X008669Y007932D01*
X008622Y007979D01*
X008569Y008018D01*
X008510Y008047D01*
X008448Y008068D01*
X008383Y008078D01*
X008350Y008078D01*
X008350Y007660D01*
X008350Y008078D01*
X008317Y008078D01*
X008252Y008068D01*
X008190Y008047D01*
X008350Y008043D02*
X008350Y008043D01*
X008350Y007884D02*
X008350Y007884D01*
X008350Y007726D02*
X008350Y007726D01*
X008350Y007660D02*
X008350Y007660D01*
X008350Y007567D02*
X008350Y007567D01*
X008350Y007409D02*
X008350Y007409D01*
X008350Y007250D02*
X008350Y007250D01*
X008432Y007250D02*
X008961Y007250D01*
X008887Y007092D02*
X008248Y007092D01*
X008243Y007250D02*
X008268Y007250D01*
X008186Y006933D02*
X008901Y006933D01*
X009007Y006775D02*
X007959Y006775D01*
X007741Y006775D02*
X006510Y006775D01*
X006708Y006933D02*
X007514Y006933D01*
X007452Y007092D02*
X006767Y007092D01*
X006765Y007250D02*
X007457Y007250D01*
X007742Y007567D02*
X007942Y007567D01*
X007937Y007726D02*
X007748Y007726D01*
X007688Y007884D02*
X007996Y007884D01*
X008112Y008360D02*
X010838Y008360D01*
X010875Y008323D02*
X011021Y008262D01*
X011179Y008262D01*
X011325Y008323D01*
X011437Y008435D01*
X011498Y008581D01*
X011498Y008739D01*
X011481Y008779D01*
X011521Y008762D01*
X011679Y008762D01*
X011825Y008823D01*
X011937Y008935D01*
X011998Y009081D01*
X011998Y009239D01*
X011937Y009386D01*
X011825Y009497D01*
X011679Y009558D01*
X011521Y009558D01*
X011375Y009497D01*
X011263Y009386D01*
X011202Y009239D01*
X011202Y009081D01*
X011219Y009042D01*
X011179Y009058D01*
X011021Y009058D01*
X010981Y009042D01*
X010998Y009081D01*
X010998Y009239D01*
X010937Y009386D01*
X010825Y009497D01*
X010679Y009558D01*
X010521Y009558D01*
X010375Y009497D01*
X010263Y009386D01*
X010202Y009239D01*
X010202Y009081D01*
X010263Y008935D01*
X010375Y008823D01*
X010521Y008762D01*
X010679Y008762D01*
X010719Y008779D01*
X010702Y008739D01*
X010702Y008581D01*
X010763Y008435D01*
X010875Y008323D01*
X010728Y008518D02*
X008222Y008518D01*
X008248Y008677D02*
X010702Y008677D01*
X010362Y008835D02*
X008613Y008835D01*
X008734Y008994D02*
X010238Y008994D01*
X010202Y009152D02*
X008768Y009152D01*
X008768Y009160D02*
X008768Y009193D01*
X008758Y009258D01*
X008737Y009321D01*
X008707Y009379D01*
X008669Y009432D01*
X008622Y009479D01*
X008569Y009518D01*
X008510Y009547D01*
X008448Y009568D01*
X008383Y009578D01*
X008350Y009578D01*
X008350Y009160D01*
X008350Y009160D01*
X008350Y009160D01*
X007932Y009160D01*
X007932Y009193D01*
X007942Y009258D01*
X007963Y009321D01*
X007993Y009379D01*
X008031Y009432D01*
X008078Y009479D01*
X008131Y009518D01*
X008190Y009547D01*
X008252Y009568D01*
X008317Y009578D01*
X008350Y009578D01*
X008350Y009160D01*
X008768Y009160D01*
X008740Y009311D02*
X010232Y009311D01*
X010346Y009469D02*
X009512Y009469D01*
X009563Y009593D01*
X009563Y009728D01*
X009512Y009852D01*
X009417Y009947D01*
X009292Y009999D01*
X009158Y009999D01*
X009033Y009947D01*
X008938Y009852D01*
X008887Y009728D01*
X008887Y009593D01*
X008938Y009469D01*
X008632Y009469D01*
X008350Y009469D02*
X008350Y009469D01*
X008350Y009311D02*
X008350Y009311D01*
X008350Y009160D02*
X008350Y009160D01*
X008350Y009152D02*
X008350Y009152D01*
X008350Y008994D02*
X008350Y008994D01*
X008350Y008835D02*
X008350Y008835D01*
X007932Y009152D02*
X007748Y009152D01*
X007718Y009311D02*
X007960Y009311D01*
X008068Y009469D02*
X007604Y009469D01*
X007096Y009469D02*
X006631Y009469D01*
X006586Y009514D02*
X006704Y009397D01*
X006767Y009243D01*
X006767Y009077D01*
X006704Y008924D01*
X006586Y008806D01*
X006433Y008743D01*
X006267Y008743D01*
X006114Y008806D01*
X005996Y008924D01*
X005933Y009077D01*
X005933Y009243D01*
X005996Y009397D01*
X006114Y009514D01*
X006267Y009578D01*
X006433Y009578D01*
X006586Y009514D01*
X006740Y009311D02*
X006982Y009311D01*
X006952Y009152D02*
X006767Y009152D01*
X006733Y008994D02*
X006988Y008994D01*
X007112Y008835D02*
X006615Y008835D01*
X006085Y008835D02*
X004615Y008835D01*
X004733Y008994D02*
X005967Y008994D01*
X005933Y009152D02*
X004767Y009152D01*
X004740Y009311D02*
X005960Y009311D01*
X006069Y009469D02*
X004631Y009469D01*
X004069Y009469D02*
X000600Y009469D01*
X000600Y009311D02*
X003960Y009311D01*
X003933Y009152D02*
X001381Y009152D01*
X001619Y008994D02*
X003967Y008994D01*
X004577Y008518D02*
X006123Y008518D01*
X005981Y008360D02*
X004719Y008360D01*
X004767Y008201D02*
X005933Y008201D01*
X005947Y008043D02*
X004753Y008043D01*
X004664Y007884D02*
X006036Y007884D01*
X006458Y007567D02*
X006958Y007567D01*
X006952Y007726D02*
X000600Y007726D01*
X000600Y007884D02*
X002036Y007884D01*
X001996Y007924D02*
X002114Y007806D01*
X002267Y007743D01*
X002433Y007743D01*
X002586Y007806D01*
X002704Y007924D01*
X002767Y008077D01*
X002767Y008243D01*
X002704Y008397D01*
X002586Y008514D01*
X002433Y008578D01*
X002267Y008578D01*
X002114Y008514D01*
X001996Y008397D01*
X001933Y008243D01*
X001933Y008077D01*
X001996Y007924D01*
X001947Y008043D02*
X000600Y008043D01*
X000600Y008201D02*
X000989Y008201D01*
X000798Y008360D02*
X000600Y008360D01*
X000600Y008518D02*
X000727Y008518D01*
X000711Y008677D02*
X000600Y008677D01*
X000600Y008835D02*
X000741Y008835D01*
X000831Y008994D02*
X000600Y008994D01*
X000600Y009152D02*
X001069Y009152D01*
X000600Y009628D02*
X008887Y009628D01*
X008911Y009786D02*
X000600Y009786D01*
X000600Y009945D02*
X009031Y009945D01*
X009419Y009945D02*
X010259Y009945D01*
X010263Y009935D02*
X010375Y009823D01*
X010521Y009762D01*
X010679Y009762D01*
X010825Y009823D01*
X010937Y009935D01*
X010998Y010081D01*
X010998Y010239D01*
X010981Y010279D01*
X011021Y010262D01*
X011179Y010262D01*
X011219Y010279D01*
X011202Y010239D01*
X011202Y010081D01*
X011263Y009935D01*
X011375Y009823D01*
X011521Y009762D01*
X011679Y009762D01*
X011825Y009823D01*
X011937Y009935D01*
X011998Y010081D01*
X011998Y010239D01*
X011937Y010386D01*
X011825Y010497D01*
X011679Y010558D01*
X011521Y010558D01*
X011481Y010542D01*
X011498Y010581D01*
X011498Y010739D01*
X011437Y010886D01*
X011325Y010997D01*
X011179Y011058D01*
X011021Y011058D01*
X010875Y010997D01*
X010763Y010886D01*
X010702Y010739D01*
X010702Y010581D01*
X010719Y010542D01*
X010679Y010558D01*
X010521Y010558D01*
X010375Y010497D01*
X010263Y010386D01*
X010202Y010239D01*
X010202Y010081D01*
X010263Y009935D01*
X010202Y010103D02*
X000600Y010103D01*
X000600Y010262D02*
X010211Y010262D01*
X010297Y010420D02*
X000600Y010420D01*
X000600Y010579D02*
X010703Y010579D01*
X010702Y010737D02*
X000600Y010737D01*
X000600Y010896D02*
X010773Y010896D01*
X011012Y011054D02*
X000600Y011054D01*
X000600Y011213D02*
X011952Y011213D01*
X011952Y011239D02*
X011952Y011081D01*
X012013Y010935D01*
X012125Y010823D01*
X012271Y010762D01*
X012429Y010762D01*
X012446Y010769D01*
X012442Y010758D01*
X012432Y010693D01*
X012432Y010660D01*
X012432Y010627D01*
X012442Y010562D01*
X012463Y010500D01*
X012493Y010441D01*
X012531Y010388D01*
X012578Y010342D01*
X012631Y010303D01*
X012690Y010273D01*
X012752Y010253D01*
X012817Y010242D01*
X012850Y010242D01*
X012883Y010242D01*
X012948Y010253D01*
X013010Y010273D01*
X013069Y010303D01*
X013122Y010342D01*
X013169Y010388D01*
X013207Y010441D01*
X013237Y010500D01*
X013258Y010562D01*
X013268Y010627D01*
X013268Y010660D01*
X012850Y010660D01*
X012850Y010242D01*
X012850Y010660D01*
X012850Y010660D01*
X012850Y010660D01*
X012432Y010660D01*
X012850Y010660D01*
X012850Y010660D01*
X013268Y010660D01*
X013268Y010693D01*
X013258Y010758D01*
X013237Y010821D01*
X013207Y010879D01*
X013169Y010932D01*
X013122Y010979D01*
X013069Y011018D01*
X013010Y011047D01*
X012948Y011068D01*
X012883Y011078D01*
X012850Y011078D01*
X012850Y010660D01*
X012850Y011078D01*
X012817Y011078D01*
X012752Y011068D01*
X012741Y011064D01*
X012748Y011081D01*
X012748Y011239D01*
X012731Y011279D01*
X012771Y011262D01*
X012929Y011262D01*
X013075Y011323D01*
X013187Y011435D01*
X013248Y011581D01*
X013248Y011739D01*
X013187Y011886D01*
X013075Y011997D01*
X012929Y012058D01*
X012771Y012058D01*
X012625Y011997D01*
X012513Y011886D01*
X012452Y011739D01*
X012452Y011581D01*
X012469Y011542D01*
X012429Y011558D01*
X012271Y011558D01*
X012125Y011497D01*
X012013Y011386D01*
X011952Y011239D01*
X012007Y011371D02*
X011374Y011371D01*
X011325Y011323D02*
X011437Y011435D01*
X011498Y011581D01*
X011498Y011739D01*
X011481Y011779D01*
X011521Y011762D01*
X011679Y011762D01*
X011825Y011823D01*
X011937Y011935D01*
X011998Y012081D01*
X011998Y012239D01*
X011937Y012386D01*
X011825Y012497D01*
X011679Y012558D01*
X011521Y012558D01*
X011375Y012497D01*
X011263Y012386D01*
X011202Y012239D01*
X011202Y012081D01*
X011219Y012042D01*
X011179Y012058D01*
X011021Y012058D01*
X010981Y012042D01*
X010998Y012081D01*
X010998Y012239D01*
X010937Y012386D01*
X010825Y012497D01*
X010679Y012558D01*
X010521Y012558D01*
X010375Y012497D01*
X010263Y012386D01*
X010202Y012239D01*
X010202Y012081D01*
X010263Y011935D01*
X010375Y011823D01*
X010521Y011762D01*
X010679Y011762D01*
X010719Y011779D01*
X010702Y011739D01*
X010702Y011581D01*
X010763Y011435D01*
X010875Y011323D01*
X011021Y011262D01*
X011179Y011262D01*
X011325Y011323D01*
X011477Y011530D02*
X012203Y011530D01*
X012452Y011688D02*
X011498Y011688D01*
X011849Y011847D02*
X012497Y011847D01*
X012643Y012005D02*
X011966Y012005D01*
X011998Y012164D02*
X013433Y012164D01*
X013433Y012243D02*
X013433Y012077D01*
X013496Y011924D01*
X013614Y011806D01*
X013767Y011743D01*
X013933Y011743D01*
X014086Y011806D01*
X014204Y011924D01*
X014225Y011975D01*
X014246Y011924D01*
X014364Y011806D01*
X014517Y011743D01*
X014683Y011743D01*
X014836Y011806D01*
X014954Y011924D01*
X014975Y011975D01*
X014996Y011924D01*
X015114Y011806D01*
X015267Y011743D01*
X015433Y011743D01*
X015586Y011806D01*
X015704Y011924D01*
X015767Y012077D01*
X015767Y012243D01*
X015704Y012397D01*
X015586Y012514D01*
X015433Y012578D01*
X015267Y012578D01*
X015114Y012514D01*
X014996Y012397D01*
X014975Y012346D01*
X014954Y012397D01*
X014836Y012514D01*
X014683Y012578D01*
X014517Y012578D01*
X014364Y012514D01*
X014246Y012397D01*
X014225Y012346D01*
X014204Y012397D01*
X014086Y012514D01*
X013933Y012578D01*
X013767Y012578D01*
X013614Y012514D01*
X013496Y012397D01*
X013433Y012243D01*
X013465Y012322D02*
X011963Y012322D01*
X011842Y012481D02*
X013580Y012481D01*
X013634Y012798D02*
X011764Y012798D01*
X011825Y012823D02*
X011679Y012762D01*
X011521Y012762D01*
X011375Y012823D01*
X011263Y012935D01*
X011202Y013081D01*
X011202Y013239D01*
X011219Y013279D01*
X011179Y013262D01*
X011021Y013262D01*
X010981Y013279D01*
X010998Y013239D01*
X010998Y013081D01*
X010937Y012935D01*
X010825Y012823D01*
X010679Y012762D01*
X010521Y012762D01*
X010375Y012823D01*
X010263Y012935D01*
X010202Y013081D01*
X010202Y013239D01*
X010263Y013386D01*
X010375Y013497D01*
X010521Y013558D01*
X010679Y013558D01*
X010719Y013542D01*
X010702Y013581D01*
X010702Y013739D01*
X010763Y013886D01*
X010875Y013997D01*
X011021Y014058D01*
X011179Y014058D01*
X011325Y013997D01*
X011437Y013886D01*
X011498Y013739D01*
X011498Y013581D01*
X011481Y013542D01*
X011521Y013558D01*
X011679Y013558D01*
X011825Y013497D01*
X011937Y013386D01*
X011998Y013239D01*
X011998Y013081D01*
X011937Y012935D01*
X011825Y012823D01*
X011946Y012956D02*
X013483Y012956D01*
X013496Y012924D02*
X013614Y012806D01*
X013767Y012743D01*
X013933Y012743D01*
X014086Y012806D01*
X014204Y012924D01*
X014225Y012975D01*
X014246Y012924D01*
X014364Y012806D01*
X014517Y012743D01*
X014683Y012743D01*
X014836Y012806D01*
X014954Y012924D01*
X014975Y012975D01*
X014996Y012924D01*
X015114Y012806D01*
X015267Y012743D01*
X015433Y012743D01*
X015586Y012806D01*
X015704Y012924D01*
X015767Y013077D01*
X015767Y013243D01*
X015704Y013397D01*
X015586Y013514D01*
X015433Y013578D01*
X015267Y013578D01*
X015114Y013514D01*
X014996Y013397D01*
X014975Y013346D01*
X014954Y013397D01*
X014836Y013514D01*
X014683Y013578D01*
X014517Y013578D01*
X014364Y013514D01*
X014246Y013397D01*
X014225Y013346D01*
X014204Y013397D01*
X014086Y013514D01*
X013933Y013578D01*
X013767Y013578D01*
X013614Y013514D01*
X013496Y013397D01*
X013433Y013243D01*
X013433Y013077D01*
X013496Y012924D01*
X013433Y013115D02*
X011998Y013115D01*
X011984Y013273D02*
X012689Y013273D01*
X012690Y013273D02*
X012752Y013253D01*
X012817Y013242D01*
X012850Y013242D01*
X012883Y013242D01*
X012948Y013253D01*
X013010Y013273D01*
X013069Y013303D01*
X013122Y013342D01*
X013169Y013388D01*
X013207Y013441D01*
X013237Y013500D01*
X013258Y013562D01*
X013268Y013627D01*
X013268Y013660D01*
X012850Y013660D01*
X012850Y013242D01*
X012850Y013660D01*
X012850Y013660D01*
X012850Y013660D01*
X012432Y013660D01*
X012432Y013627D01*
X012442Y013562D01*
X012463Y013500D01*
X012493Y013441D01*
X012531Y013388D01*
X012578Y013342D01*
X012631Y013303D01*
X012690Y013273D01*
X012850Y013273D02*
X012850Y013273D01*
X012850Y013432D02*
X012850Y013432D01*
X012850Y013590D02*
X012850Y013590D01*
X012850Y013660D02*
X012850Y013660D01*
X013268Y013660D01*
X013268Y013693D01*
X013258Y013758D01*
X013237Y013821D01*
X013207Y013879D01*
X013169Y013932D01*
X013122Y013979D01*
X013069Y014018D01*
X013010Y014047D01*
X012948Y014068D01*
X012883Y014078D01*
X012850Y014078D01*
X012850Y013660D01*
X012432Y013660D01*
X012432Y013693D01*
X012442Y013758D01*
X012446Y013769D01*
X012429Y013762D01*
X012271Y013762D01*
X012125Y013823D01*
X012013Y013935D01*
X011952Y014081D01*
X011952Y014239D01*
X012013Y014386D01*
X012125Y014497D01*
X012271Y014558D01*
X012429Y014558D01*
X012469Y014542D01*
X012452Y014581D01*
X012452Y014739D01*
X012513Y014886D01*
X012625Y014997D01*
X012771Y015058D01*
X012929Y015058D01*
X013075Y014997D01*
X013187Y014886D01*
X013248Y014739D01*
X013248Y014581D01*
X013187Y014435D01*
X013075Y014323D01*
X012929Y014262D01*
X012771Y014262D01*
X012731Y014279D01*
X012748Y014239D01*
X012748Y014081D01*
X012741Y014064D01*
X012752Y014068D01*
X012817Y014078D01*
X012850Y014078D01*
X012850Y013660D01*
X012850Y013660D01*
X012850Y013749D02*
X012850Y013749D01*
X012850Y013907D02*
X012850Y013907D01*
X012850Y014066D02*
X012850Y014066D01*
X012746Y014066D02*
X012741Y014066D01*
X012748Y014224D02*
X017086Y014224D01*
X017086Y014263D02*
X017086Y014058D01*
X017164Y013869D01*
X017309Y013724D01*
X017498Y013646D01*
X017702Y013646D01*
X017891Y013724D01*
X018036Y013869D01*
X018114Y014058D01*
X018114Y014263D01*
X018036Y014452D01*
X017891Y014596D01*
X017702Y014675D01*
X017498Y014675D01*
X017309Y014596D01*
X017164Y014452D01*
X017086Y014263D01*
X017135Y014383D02*
X016663Y014383D01*
X016704Y014424D02*
X016767Y014577D01*
X016767Y014743D01*
X016704Y014897D01*
X016586Y015014D01*
X016433Y015078D01*
X016267Y015078D01*
X016114Y015014D01*
X015996Y014897D01*
X015933Y014743D01*
X015933Y014577D01*
X015996Y014424D01*
X016114Y014306D01*
X016267Y014243D01*
X016433Y014243D01*
X016586Y014306D01*
X016704Y014424D01*
X016753Y014541D02*
X017254Y014541D01*
X017086Y014066D02*
X016462Y014066D01*
X016433Y014078D02*
X016267Y014078D01*
X016114Y014014D01*
X015996Y013897D01*
X015933Y013743D01*
X015933Y013577D01*
X015996Y013424D01*
X016114Y013306D01*
X016267Y013243D01*
X016433Y013243D01*
X016586Y013306D01*
X016704Y013424D01*
X016767Y013577D01*
X016767Y013743D01*
X016704Y013897D01*
X016586Y014014D01*
X016433Y014078D01*
X016238Y014066D02*
X012954Y014066D01*
X013187Y013907D02*
X016007Y013907D01*
X015935Y013749D02*
X013259Y013749D01*
X013262Y013590D02*
X015933Y013590D01*
X015993Y013432D02*
X015669Y013432D01*
X015755Y013273D02*
X016193Y013273D01*
X016507Y013273D02*
X019600Y013273D01*
X019600Y013115D02*
X015767Y013115D01*
X015717Y012956D02*
X019600Y012956D01*
X019600Y012798D02*
X015566Y012798D01*
X015620Y012481D02*
X019600Y012481D01*
X019600Y012639D02*
X007498Y012639D01*
X007498Y012581D02*
X007498Y012739D01*
X007481Y012779D01*
X007521Y012762D01*
X007679Y012762D01*
X007825Y012823D01*
X007937Y012935D01*
X007998Y013081D01*
X007998Y013239D01*
X007937Y013386D01*
X007825Y013497D01*
X007679Y013558D01*
X007521Y013558D01*
X007375Y013497D01*
X007263Y013386D01*
X007202Y013239D01*
X007202Y013081D01*
X007219Y013042D01*
X007179Y013058D01*
X007021Y013058D01*
X006875Y012997D01*
X006763Y012886D01*
X006702Y012739D01*
X006702Y012581D01*
X006763Y012435D01*
X006875Y012323D01*
X007021Y012262D01*
X007179Y012262D01*
X007196Y012269D01*
X007192Y012258D01*
X007182Y012193D01*
X007182Y012160D01*
X007182Y012127D01*
X007192Y012062D01*
X007213Y012000D01*
X007243Y011941D01*
X007281Y011888D01*
X007328Y011842D01*
X007381Y011803D01*
X007440Y011773D01*
X007502Y011753D01*
X007567Y011742D01*
X007600Y011742D01*
X007633Y011742D01*
X007698Y011753D01*
X007760Y011773D01*
X007819Y011803D01*
X007872Y011842D01*
X007919Y011888D01*
X007957Y011941D01*
X007987Y012000D01*
X008008Y012062D01*
X008018Y012127D01*
X008018Y012160D01*
X007600Y012160D01*
X007600Y011742D01*
X007600Y012160D01*
X007600Y012160D01*
X007600Y012160D01*
X007182Y012160D01*
X007600Y012160D01*
X007600Y012160D01*
X008018Y012160D01*
X008018Y012193D01*
X008008Y012258D01*
X007987Y012321D01*
X007957Y012379D01*
X007919Y012432D01*
X007872Y012479D01*
X007819Y012518D01*
X007760Y012547D01*
X007698Y012568D01*
X007633Y012578D01*
X007600Y012578D01*
X007600Y012160D01*
X007600Y012578D01*
X007567Y012578D01*
X007502Y012568D01*
X007491Y012564D01*
X007498Y012581D01*
X007600Y012481D02*
X007600Y012481D01*
X007600Y012322D02*
X007600Y012322D01*
X007600Y012164D02*
X007600Y012164D01*
X007600Y012160D02*
X007600Y012160D01*
X007600Y012005D02*
X007600Y012005D01*
X007600Y011847D02*
X007600Y011847D01*
X007323Y011847D02*
X006377Y011847D01*
X006372Y011842D02*
X006419Y011888D01*
X006457Y011941D01*
X006487Y012000D01*
X006508Y012062D01*
X006518Y012127D01*
X006518Y012160D01*
X006100Y012160D01*
X006100Y011742D01*
X006133Y011742D01*
X006198Y011753D01*
X006260Y011773D01*
X006319Y011803D01*
X006372Y011842D01*
X006489Y012005D02*
X007211Y012005D01*
X007182Y012164D02*
X006518Y012164D01*
X006518Y012160D02*
X006518Y012193D01*
X006508Y012258D01*
X006487Y012321D01*
X006457Y012379D01*
X006419Y012432D01*
X006372Y012479D01*
X006319Y012518D01*
X006260Y012547D01*
X006198Y012568D01*
X006133Y012578D01*
X006100Y012578D01*
X006100Y012160D01*
X006100Y012160D01*
X006100Y011742D01*
X006067Y011742D01*
X006002Y011753D01*
X005940Y011773D01*
X005881Y011803D01*
X005828Y011842D01*
X005781Y011888D01*
X005743Y011941D01*
X005713Y012000D01*
X005692Y012062D01*
X005682Y012127D01*
X005682Y012160D01*
X006100Y012160D01*
X006100Y012160D01*
X006100Y012160D01*
X006518Y012160D01*
X006486Y012322D02*
X006876Y012322D01*
X006744Y012481D02*
X006370Y012481D01*
X006100Y012481D02*
X006100Y012481D01*
X006100Y012578D02*
X006100Y012160D01*
X005682Y012160D01*
X005682Y012193D01*
X005692Y012258D01*
X005696Y012269D01*
X005679Y012262D01*
X005521Y012262D01*
X005375Y012323D01*
X005263Y012435D01*
X005202Y012581D01*
X005202Y012739D01*
X005263Y012886D01*
X005375Y012997D01*
X005521Y013058D01*
X005679Y013058D01*
X005719Y013042D01*
X005702Y013081D01*
X005702Y013239D01*
X005763Y013386D01*
X005875Y013497D01*
X006021Y013558D01*
X006179Y013558D01*
X006325Y013497D01*
X006437Y013386D01*
X006498Y013239D01*
X006498Y013081D01*
X006437Y012935D01*
X006325Y012823D01*
X006179Y012762D01*
X006021Y012762D01*
X005981Y012779D01*
X005998Y012739D01*
X005998Y012581D01*
X005991Y012564D01*
X006002Y012568D01*
X006067Y012578D01*
X006100Y012578D01*
X005998Y012639D02*
X006702Y012639D01*
X006726Y012798D02*
X006264Y012798D01*
X006446Y012956D02*
X006833Y012956D01*
X006498Y013115D02*
X007202Y013115D01*
X007216Y013273D02*
X006484Y013273D01*
X006391Y013432D02*
X007309Y013432D01*
X007489Y013806D02*
X007642Y013743D01*
X007808Y013743D01*
X007961Y013806D01*
X008079Y013924D01*
X008142Y014077D01*
X008142Y014243D01*
X008079Y014397D01*
X007961Y014514D01*
X007808Y014578D01*
X007642Y014578D01*
X007489Y014514D01*
X007371Y014397D01*
X007308Y014243D01*
X007308Y014077D01*
X007371Y013924D01*
X007489Y013806D01*
X007388Y013907D02*
X006062Y013907D01*
X006079Y013924D02*
X006142Y014077D01*
X006142Y014243D01*
X006079Y014397D01*
X005961Y014514D01*
X005808Y014578D01*
X005642Y014578D01*
X005489Y014514D01*
X005371Y014397D01*
X005308Y014243D01*
X005308Y014077D01*
X005371Y013924D01*
X005489Y013806D01*
X005642Y013743D01*
X005808Y013743D01*
X005961Y013806D01*
X006079Y013924D01*
X006138Y014066D02*
X007312Y014066D01*
X007308Y014224D02*
X006142Y014224D01*
X006085Y014383D02*
X007365Y014383D01*
X007554Y014541D02*
X005896Y014541D01*
X005554Y014541D02*
X005021Y014541D01*
X005086Y014514D02*
X004933Y014578D01*
X004767Y014578D01*
X004614Y014514D01*
X004496Y014397D01*
X004433Y014243D01*
X004433Y014077D01*
X004496Y013924D01*
X004614Y013806D01*
X004767Y013743D01*
X004933Y013743D01*
X005086Y013806D01*
X005204Y013924D01*
X005267Y014077D01*
X005267Y014243D01*
X005204Y014397D01*
X005086Y014514D01*
X005210Y014383D02*
X005365Y014383D01*
X005308Y014224D02*
X005267Y014224D01*
X005263Y014066D02*
X005312Y014066D01*
X005388Y013907D02*
X005187Y013907D01*
X004948Y013749D02*
X005627Y013749D01*
X005823Y013749D02*
X007627Y013749D01*
X007823Y013749D02*
X010706Y013749D01*
X010702Y013590D02*
X000600Y013590D01*
X000600Y013432D02*
X001031Y013432D01*
X000996Y013397D02*
X000933Y013243D01*
X000933Y013077D01*
X000996Y012924D01*
X001114Y012806D01*
X001267Y012743D01*
X001433Y012743D01*
X001586Y012806D01*
X001704Y012924D01*
X001767Y013077D01*
X001767Y013243D01*
X001704Y013397D01*
X001586Y013514D01*
X001433Y013578D01*
X001267Y013578D01*
X001114Y013514D01*
X000996Y013397D01*
X000945Y013273D02*
X000600Y013273D01*
X000600Y013115D02*
X000933Y013115D01*
X000983Y012956D02*
X000600Y012956D01*
X000600Y012798D02*
X001134Y012798D01*
X001123Y012675D02*
X000934Y012596D01*
X000789Y012452D01*
X000711Y012263D01*
X000711Y012058D01*
X000789Y011869D01*
X000934Y011724D01*
X001123Y011646D01*
X001327Y011646D01*
X001516Y011724D01*
X001661Y011869D01*
X001739Y012058D01*
X001739Y012263D01*
X001661Y012452D01*
X001516Y012596D01*
X001327Y012675D01*
X001123Y012675D01*
X001037Y012639D02*
X000600Y012639D01*
X000600Y012481D02*
X000818Y012481D01*
X000735Y012322D02*
X000600Y012322D01*
X000600Y012164D02*
X000711Y012164D01*
X000732Y012005D02*
X000600Y012005D01*
X000600Y011847D02*
X000811Y011847D01*
X001020Y011688D02*
X000600Y011688D01*
X000600Y011530D02*
X009288Y011530D01*
X009313Y011469D02*
X009408Y011373D01*
X009533Y011322D01*
X009667Y011322D01*
X009792Y011373D01*
X009887Y011469D01*
X009938Y011593D01*
X009938Y011728D01*
X009887Y011852D01*
X009792Y011947D01*
X009667Y011999D01*
X009533Y011999D01*
X009408Y011947D01*
X009313Y011852D01*
X009262Y011728D01*
X009262Y011593D01*
X009313Y011469D01*
X009413Y011371D02*
X000600Y011371D01*
X001430Y011688D02*
X009262Y011688D01*
X009311Y011847D02*
X007877Y011847D01*
X007989Y012005D02*
X010234Y012005D01*
X010202Y012164D02*
X008018Y012164D01*
X007986Y012322D02*
X010237Y012322D01*
X010358Y012481D02*
X007870Y012481D01*
X007764Y012798D02*
X010436Y012798D01*
X010254Y012956D02*
X007946Y012956D01*
X007998Y013115D02*
X010202Y013115D01*
X010216Y013273D02*
X007984Y013273D01*
X007891Y013432D02*
X010309Y013432D01*
X010784Y013907D02*
X008062Y013907D01*
X008138Y014066D02*
X011959Y014066D01*
X011952Y014224D02*
X008142Y014224D01*
X008085Y014383D02*
X009024Y014383D01*
X009033Y014373D02*
X008938Y014469D01*
X008887Y014593D01*
X008887Y014728D01*
X008938Y014852D01*
X009033Y014947D01*
X009158Y014999D01*
X009292Y014999D01*
X009417Y014947D01*
X009512Y014852D01*
X009563Y014728D01*
X009563Y014593D01*
X009512Y014469D01*
X009417Y014373D01*
X009292Y014322D01*
X009158Y014322D01*
X009033Y014373D01*
X008908Y014541D02*
X007896Y014541D01*
X008887Y014700D02*
X000600Y014700D01*
X000600Y014858D02*
X008944Y014858D01*
X009506Y014858D02*
X010339Y014858D01*
X010375Y014823D02*
X010263Y014935D01*
X010202Y015081D01*
X010202Y015239D01*
X010263Y015386D01*
X010375Y015497D01*
X010521Y015558D01*
X010679Y015558D01*
X010825Y015497D01*
X010937Y015386D01*
X010998Y015239D01*
X010998Y015081D01*
X010981Y015042D01*
X011021Y015058D01*
X011179Y015058D01*
X011219Y015042D01*
X011202Y015081D01*
X011202Y015239D01*
X011263Y015386D01*
X011375Y015497D01*
X011521Y015558D01*
X011679Y015558D01*
X011825Y015497D01*
X011937Y015386D01*
X011998Y015239D01*
X011998Y015081D01*
X011937Y014935D01*
X011825Y014823D01*
X011679Y014762D01*
X011521Y014762D01*
X011481Y014779D01*
X011498Y014739D01*
X011498Y014581D01*
X011437Y014435D01*
X011325Y014323D01*
X011179Y014262D01*
X011021Y014262D01*
X010875Y014323D01*
X010763Y014435D01*
X010702Y014581D01*
X010702Y014739D01*
X010719Y014779D01*
X010679Y014762D01*
X010521Y014762D01*
X010375Y014823D01*
X010229Y015017D02*
X000600Y015017D01*
X000600Y015175D02*
X010202Y015175D01*
X010241Y015334D02*
X000600Y015334D01*
X000600Y015492D02*
X010369Y015492D01*
X010831Y015492D02*
X011369Y015492D01*
X011241Y015334D02*
X010959Y015334D01*
X010998Y015175D02*
X011202Y015175D01*
X011498Y014700D02*
X012452Y014700D01*
X012501Y014858D02*
X011861Y014858D01*
X011971Y015017D02*
X012671Y015017D01*
X013029Y015017D02*
X013458Y015017D01*
X013433Y015077D02*
X013433Y015243D01*
X013496Y015397D01*
X013614Y015514D01*
X013767Y015578D01*
X013933Y015578D01*
X014086Y015514D01*
X014204Y015397D01*
X014225Y015346D01*
X014246Y015397D01*
X014364Y015514D01*
X014517Y015578D01*
X014683Y015578D01*
X014836Y015514D01*
X014954Y015397D01*
X014975Y015346D01*
X014996Y015397D01*
X015114Y015514D01*
X015267Y015578D01*
X015433Y015578D01*
X015586Y015514D01*
X015704Y015397D01*
X015767Y015243D01*
X015767Y015077D01*
X015704Y014924D01*
X015586Y014806D01*
X015433Y014743D01*
X015267Y014743D01*
X015114Y014806D01*
X014996Y014924D01*
X014975Y014975D01*
X014954Y014924D01*
X014836Y014806D01*
X014683Y014743D01*
X014517Y014743D01*
X014364Y014806D01*
X014246Y014924D01*
X014225Y014975D01*
X014204Y014924D01*
X014086Y014806D01*
X013933Y014743D01*
X013767Y014743D01*
X013614Y014806D01*
X013496Y014924D01*
X013433Y015077D01*
X013433Y015175D02*
X011998Y015175D01*
X011959Y015334D02*
X013470Y015334D01*
X013592Y015492D02*
X011831Y015492D01*
X011481Y014541D02*
X012230Y014541D01*
X012012Y014383D02*
X011385Y014383D01*
X011416Y013907D02*
X012040Y013907D01*
X012441Y013749D02*
X011494Y013749D01*
X011498Y013590D02*
X012438Y013590D01*
X012500Y013432D02*
X011891Y013432D01*
X011216Y013273D02*
X011205Y013273D01*
X011202Y013115D02*
X010998Y013115D01*
X010984Y013273D02*
X010995Y013273D01*
X010946Y012956D02*
X011254Y012956D01*
X011436Y012798D02*
X010764Y012798D01*
X010842Y012481D02*
X011358Y012481D01*
X011237Y012322D02*
X010963Y012322D01*
X010998Y012164D02*
X011202Y012164D01*
X010702Y011688D02*
X009938Y011688D01*
X009912Y011530D02*
X010723Y011530D01*
X010826Y011371D02*
X009787Y011371D01*
X009889Y011847D02*
X010351Y011847D01*
X011188Y011054D02*
X011963Y011054D01*
X012052Y010896D02*
X011427Y010896D01*
X011498Y010737D02*
X012439Y010737D01*
X012440Y010579D02*
X011497Y010579D01*
X011211Y010262D02*
X010989Y010262D01*
X010998Y010103D02*
X011202Y010103D01*
X011259Y009945D02*
X010941Y009945D01*
X010737Y009786D02*
X011463Y009786D01*
X011737Y009786D02*
X013662Y009786D01*
X013614Y009806D02*
X013767Y009743D01*
X013933Y009743D01*
X014086Y009806D01*
X014204Y009924D01*
X014225Y009975D01*
X014246Y009924D01*
X014364Y009806D01*
X014517Y009743D01*
X014683Y009743D01*
X014836Y009806D01*
X014954Y009924D01*
X014975Y009975D01*
X014996Y009924D01*
X015114Y009806D01*
X015267Y009743D01*
X015433Y009743D01*
X015586Y009806D01*
X015704Y009924D01*
X015767Y010077D01*
X015767Y010243D01*
X015704Y010397D01*
X015586Y010514D01*
X015433Y010578D01*
X015267Y010578D01*
X015114Y010514D01*
X014996Y010397D01*
X014975Y010346D01*
X014954Y010397D01*
X014836Y010514D01*
X014683Y010578D01*
X014517Y010578D01*
X014364Y010514D01*
X014246Y010397D01*
X014225Y010346D01*
X014204Y010397D01*
X014086Y010514D01*
X013933Y010578D01*
X013767Y010578D01*
X013614Y010514D01*
X013496Y010397D01*
X013433Y010243D01*
X013433Y010077D01*
X013496Y009924D01*
X013614Y009806D01*
X013487Y009945D02*
X011941Y009945D01*
X011998Y010103D02*
X013433Y010103D01*
X013440Y010262D02*
X012976Y010262D01*
X012850Y010262D02*
X012850Y010262D01*
X012724Y010262D02*
X011989Y010262D01*
X011903Y010420D02*
X012508Y010420D01*
X012850Y010420D02*
X012850Y010420D01*
X012850Y010579D02*
X012850Y010579D01*
X012850Y010660D02*
X012850Y010660D01*
X012850Y010737D02*
X012850Y010737D01*
X012850Y010896D02*
X012850Y010896D01*
X012850Y011054D02*
X012850Y011054D01*
X012989Y011054D02*
X016210Y011054D01*
X016267Y011078D02*
X016114Y011014D01*
X015996Y010897D01*
X015933Y010743D01*
X015933Y010577D01*
X015996Y010424D01*
X016114Y010306D01*
X016267Y010243D01*
X016433Y010243D01*
X016586Y010306D01*
X016704Y010424D01*
X016767Y010577D01*
X016767Y010743D01*
X016704Y010897D01*
X016586Y011014D01*
X016433Y011078D01*
X016267Y011078D01*
X016267Y011243D02*
X016114Y011306D01*
X015996Y011424D01*
X015933Y011577D01*
X015933Y011743D01*
X015996Y011897D01*
X016114Y012014D01*
X016267Y012078D01*
X016433Y012078D01*
X016586Y012014D01*
X016704Y011897D01*
X016767Y011743D01*
X016767Y011577D01*
X016704Y011424D01*
X016586Y011306D01*
X016433Y011243D01*
X016267Y011243D01*
X016049Y011371D02*
X013124Y011371D01*
X013227Y011530D02*
X015952Y011530D01*
X015933Y011688D02*
X013248Y011688D01*
X013203Y011847D02*
X013573Y011847D01*
X013462Y012005D02*
X013057Y012005D01*
X012748Y011213D02*
X017086Y011213D01*
X017086Y011263D02*
X017086Y011058D01*
X017164Y010869D01*
X017309Y010724D01*
X017498Y010646D01*
X017702Y010646D01*
X017891Y010724D01*
X018036Y010869D01*
X018114Y011058D01*
X018114Y011263D01*
X018036Y011452D01*
X017891Y011596D01*
X017702Y011675D01*
X017498Y011675D01*
X017309Y011596D01*
X017164Y011452D01*
X017086Y011263D01*
X017131Y011371D02*
X016651Y011371D01*
X016748Y011530D02*
X017242Y011530D01*
X016767Y011688D02*
X019600Y011688D01*
X019600Y011530D02*
X019458Y011530D01*
X019569Y011371D02*
X019600Y011371D01*
X019600Y010896D02*
X019547Y010896D01*
X019600Y010737D02*
X019404Y010737D01*
X019600Y010579D02*
X016767Y010579D01*
X016767Y010737D02*
X017296Y010737D01*
X017153Y010896D02*
X016704Y010896D01*
X016490Y011054D02*
X017087Y011054D01*
X016700Y010420D02*
X019600Y010420D01*
X019600Y010262D02*
X016479Y010262D01*
X016221Y010262D02*
X015760Y010262D01*
X015767Y010103D02*
X019600Y010103D01*
X019600Y009945D02*
X015713Y009945D01*
X015538Y009786D02*
X019600Y009786D01*
X019600Y009628D02*
X009563Y009628D01*
X009539Y009786D02*
X010463Y009786D01*
X010854Y009469D02*
X011346Y009469D01*
X011232Y009311D02*
X010968Y009311D01*
X010998Y009152D02*
X011202Y009152D01*
X011498Y008677D02*
X012327Y008677D01*
X012327Y008739D02*
X012327Y008581D01*
X012344Y008542D01*
X012304Y008558D01*
X012146Y008558D01*
X012000Y008497D01*
X011888Y008386D01*
X011827Y008239D01*
X011827Y008081D01*
X011888Y007935D01*
X012000Y007823D01*
X012146Y007762D01*
X012304Y007762D01*
X012321Y007769D01*
X012317Y007758D01*
X012307Y007693D01*
X012307Y007660D01*
X012307Y007627D01*
X012317Y007562D01*
X012338Y007500D01*
X012368Y007441D01*
X012406Y007388D01*
X012453Y007342D01*
X012506Y007303D01*
X012565Y007273D01*
X012627Y007253D01*
X012692Y007242D01*
X012725Y007242D01*
X012758Y007242D01*
X012823Y007253D01*
X012885Y007273D01*
X012944Y007303D01*
X012997Y007342D01*
X013044Y007388D01*
X013082Y007441D01*
X013112Y007500D01*
X013133Y007562D01*
X013143Y007627D01*
X013143Y007660D01*
X012725Y007660D01*
X012725Y007242D01*
X012725Y007660D01*
X012725Y007660D01*
X012725Y007660D01*
X012307Y007660D01*
X012725Y007660D01*
X012725Y007660D01*
X013143Y007660D01*
X013143Y007693D01*
X013133Y007758D01*
X013112Y007821D01*
X013082Y007879D01*
X013044Y007932D01*
X012997Y007979D01*
X012944Y008018D01*
X012885Y008047D01*
X012823Y008068D01*
X012758Y008078D01*
X012725Y008078D01*
X012725Y007660D01*
X012725Y008078D01*
X012692Y008078D01*
X012627Y008068D01*
X012616Y008064D01*
X012623Y008081D01*
X012623Y008239D01*
X012606Y008279D01*
X012646Y008262D01*
X012804Y008262D01*
X012950Y008323D01*
X013062Y008435D01*
X013123Y008581D01*
X013123Y008739D01*
X013062Y008886D01*
X012950Y008997D01*
X012804Y009058D01*
X012646Y009058D01*
X012500Y008997D01*
X012388Y008886D01*
X012327Y008739D01*
X012367Y008835D02*
X011838Y008835D01*
X011962Y008994D02*
X012496Y008994D01*
X012954Y008994D02*
X013467Y008994D01*
X013496Y008924D02*
X013614Y008806D01*
X013767Y008743D01*
X013933Y008743D01*
X014086Y008806D01*
X014204Y008924D01*
X014225Y008975D01*
X014246Y008924D01*
X014364Y008806D01*
X014517Y008743D01*
X014683Y008743D01*
X014836Y008806D01*
X014954Y008924D01*
X014975Y008975D01*
X014996Y008924D01*
X015114Y008806D01*
X015267Y008743D01*
X015433Y008743D01*
X015586Y008806D01*
X015704Y008924D01*
X015767Y009077D01*
X015767Y009243D01*
X015704Y009397D01*
X015586Y009514D01*
X015433Y009578D01*
X015267Y009578D01*
X015114Y009514D01*
X014996Y009397D01*
X014975Y009346D01*
X014954Y009397D01*
X014836Y009514D01*
X014683Y009578D01*
X014517Y009578D01*
X014364Y009514D01*
X014246Y009397D01*
X014225Y009346D01*
X014204Y009397D01*
X014086Y009514D01*
X013933Y009578D01*
X013767Y009578D01*
X013614Y009514D01*
X013496Y009397D01*
X013433Y009243D01*
X013433Y009077D01*
X013496Y008924D01*
X013585Y008835D02*
X013083Y008835D01*
X013123Y008677D02*
X015933Y008677D01*
X015933Y008743D02*
X015933Y008577D01*
X015996Y008424D01*
X016114Y008306D01*
X016267Y008243D01*
X016433Y008243D01*
X016586Y008306D01*
X016704Y008424D01*
X016767Y008577D01*
X016767Y008743D01*
X016704Y008897D01*
X016586Y009014D01*
X016433Y009078D01*
X016267Y009078D01*
X016114Y009014D01*
X015996Y008897D01*
X015933Y008743D01*
X015971Y008835D02*
X015615Y008835D01*
X015733Y008994D02*
X016093Y008994D01*
X015767Y009152D02*
X019600Y009152D01*
X019600Y008994D02*
X016607Y008994D01*
X016729Y008835D02*
X019600Y008835D01*
X019600Y008677D02*
X016767Y008677D01*
X016743Y008518D02*
X017231Y008518D01*
X017164Y008452D02*
X017086Y008263D01*
X017086Y008058D01*
X017164Y007869D01*
X017309Y007724D01*
X017498Y007646D01*
X017702Y007646D01*
X017891Y007724D01*
X018036Y007869D01*
X018114Y008058D01*
X018114Y008263D01*
X018036Y008452D01*
X017891Y008596D01*
X017702Y008675D01*
X017498Y008675D01*
X017309Y008596D01*
X017164Y008452D01*
X017126Y008360D02*
X016640Y008360D01*
X016517Y008043D02*
X017092Y008043D01*
X017086Y008201D02*
X012623Y008201D01*
X012725Y008043D02*
X012725Y008043D01*
X012725Y007884D02*
X012725Y007884D01*
X012725Y007726D02*
X012725Y007726D01*
X012725Y007660D02*
X012725Y007660D01*
X012725Y007567D02*
X012725Y007567D01*
X012725Y007409D02*
X012725Y007409D01*
X012725Y007250D02*
X012725Y007250D01*
X012807Y007250D02*
X013435Y007250D01*
X013433Y007243D02*
X013433Y007077D01*
X013496Y006924D01*
X013614Y006806D01*
X013767Y006743D01*
X013933Y006743D01*
X014086Y006806D01*
X014204Y006924D01*
X014225Y006975D01*
X014246Y006924D01*
X014364Y006806D01*
X014517Y006743D01*
X014683Y006743D01*
X014836Y006806D01*
X014954Y006924D01*
X014975Y006975D01*
X014996Y006924D01*
X015114Y006806D01*
X015267Y006743D01*
X015433Y006743D01*
X015586Y006806D01*
X015704Y006924D01*
X015767Y007077D01*
X015767Y007243D01*
X015704Y007397D01*
X015586Y007514D01*
X015433Y007578D01*
X015267Y007578D01*
X015114Y007514D01*
X014996Y007397D01*
X014975Y007346D01*
X014954Y007397D01*
X014836Y007514D01*
X014683Y007578D01*
X014517Y007578D01*
X014364Y007514D01*
X014246Y007397D01*
X014225Y007346D01*
X014204Y007397D01*
X014086Y007514D01*
X013933Y007578D01*
X013767Y007578D01*
X013614Y007514D01*
X013496Y007397D01*
X013433Y007243D01*
X013433Y007092D02*
X011998Y007092D01*
X011998Y007081D02*
X011998Y007239D01*
X011937Y007386D01*
X011825Y007497D01*
X011679Y007558D01*
X011521Y007558D01*
X011481Y007542D01*
X011498Y007581D01*
X011498Y007739D01*
X011437Y007886D01*
X011325Y007997D01*
X011179Y008058D01*
X011021Y008058D01*
X010875Y007997D01*
X010763Y007886D01*
X010702Y007739D01*
X010702Y007581D01*
X010719Y007542D01*
X010679Y007558D01*
X010521Y007558D01*
X010375Y007497D01*
X010263Y007386D01*
X010202Y007239D01*
X010202Y007081D01*
X010263Y006935D01*
X010375Y006823D01*
X010521Y006762D01*
X010679Y006762D01*
X010825Y006823D01*
X010937Y006935D01*
X010998Y007081D01*
X010998Y007239D01*
X010981Y007279D01*
X011021Y007262D01*
X011179Y007262D01*
X011219Y007279D01*
X011202Y007239D01*
X011202Y007081D01*
X011263Y006935D01*
X011375Y006823D01*
X011521Y006762D01*
X011679Y006762D01*
X011825Y006823D01*
X011937Y006935D01*
X011998Y007081D01*
X011936Y006933D02*
X013492Y006933D01*
X013690Y006775D02*
X011709Y006775D01*
X011491Y006775D02*
X010709Y006775D01*
X010491Y006775D02*
X009919Y006775D01*
X009938Y006616D02*
X019600Y006616D01*
X019600Y006458D02*
X015643Y006458D01*
X015586Y006514D02*
X015433Y006578D01*
X015267Y006578D01*
X015114Y006514D01*
X014996Y006397D01*
X014975Y006346D01*
X014954Y006397D01*
X014836Y006514D01*
X014683Y006578D01*
X014517Y006578D01*
X014364Y006514D01*
X014246Y006397D01*
X014225Y006346D01*
X014204Y006397D01*
X014086Y006514D01*
X013933Y006578D01*
X013767Y006578D01*
X013614Y006514D01*
X013496Y006397D01*
X013433Y006243D01*
X013433Y006077D01*
X013496Y005924D01*
X013614Y005806D01*
X013767Y005743D01*
X013933Y005743D01*
X014086Y005806D01*
X014204Y005924D01*
X014225Y005975D01*
X014246Y005924D01*
X014364Y005806D01*
X014517Y005743D01*
X014683Y005743D01*
X014836Y005806D01*
X014954Y005924D01*
X014975Y005975D01*
X014996Y005924D01*
X015114Y005806D01*
X015267Y005743D01*
X015433Y005743D01*
X015586Y005806D01*
X015704Y005924D01*
X015767Y006077D01*
X015767Y006243D01*
X015704Y006397D01*
X015586Y006514D01*
X015744Y006299D02*
X019600Y006299D01*
X019600Y006141D02*
X015767Y006141D01*
X015728Y005982D02*
X016082Y005982D01*
X016114Y006014D02*
X015996Y005897D01*
X015933Y005743D01*
X015933Y005577D01*
X015996Y005424D01*
X016114Y005306D01*
X016267Y005243D01*
X016433Y005243D01*
X016586Y005306D01*
X016704Y005424D01*
X016767Y005577D01*
X016767Y005743D01*
X016704Y005897D01*
X016586Y006014D01*
X016433Y006078D01*
X016267Y006078D01*
X016114Y006014D01*
X015966Y005824D02*
X015604Y005824D01*
X015933Y005665D02*
X013248Y005665D01*
X013217Y005507D02*
X015962Y005507D01*
X016072Y005348D02*
X013101Y005348D01*
X013213Y005824D02*
X013596Y005824D01*
X013472Y005982D02*
X013091Y005982D01*
X013433Y006141D02*
X011998Y006141D01*
X011998Y006081D02*
X011937Y005935D01*
X011825Y005823D01*
X011679Y005762D01*
X011521Y005762D01*
X011481Y005779D01*
X011498Y005739D01*
X011498Y005581D01*
X011437Y005435D01*
X011325Y005323D01*
X011179Y005262D01*
X011021Y005262D01*
X010875Y005323D01*
X010763Y005435D01*
X010702Y005581D01*
X010702Y005739D01*
X010719Y005779D01*
X010679Y005762D01*
X010521Y005762D01*
X010375Y005823D01*
X010263Y005935D01*
X010202Y006081D01*
X010202Y006239D01*
X010263Y006386D01*
X010375Y006497D01*
X010521Y006558D01*
X010679Y006558D01*
X010825Y006497D01*
X010937Y006386D01*
X010998Y006239D01*
X010998Y006081D01*
X010981Y006042D01*
X011021Y006058D01*
X011179Y006058D01*
X011219Y006042D01*
X011202Y006081D01*
X011202Y006239D01*
X011263Y006386D01*
X011375Y006497D01*
X011521Y006558D01*
X011679Y006558D01*
X011825Y006497D01*
X011937Y006386D01*
X011998Y006239D01*
X011998Y006081D01*
X011957Y005982D02*
X012609Y005982D01*
X012487Y005824D02*
X011826Y005824D01*
X011498Y005665D02*
X012452Y005665D01*
X012147Y005507D02*
X011467Y005507D01*
X011351Y005348D02*
X011997Y005348D01*
X011202Y006141D02*
X010998Y006141D01*
X010973Y006299D02*
X011227Y006299D01*
X011335Y006458D02*
X010865Y006458D01*
X010936Y006933D02*
X011264Y006933D01*
X011202Y007092D02*
X010998Y007092D01*
X010993Y007250D02*
X011207Y007250D01*
X011492Y007567D02*
X012317Y007567D01*
X012312Y007726D02*
X011498Y007726D01*
X011438Y007884D02*
X011938Y007884D01*
X011843Y008043D02*
X011216Y008043D01*
X010984Y008043D02*
X008520Y008043D01*
X008704Y007884D02*
X010762Y007884D01*
X010702Y007726D02*
X008763Y007726D01*
X008758Y007567D02*
X010708Y007567D01*
X010286Y007409D02*
X008684Y007409D01*
X009489Y007250D02*
X010207Y007250D01*
X010202Y007092D02*
X009563Y007092D01*
X009806Y006933D02*
X010264Y006933D01*
X010335Y006458D02*
X009876Y006458D01*
X010227Y006299D02*
X008744Y006299D01*
X008768Y006141D02*
X010202Y006141D01*
X010243Y005982D02*
X008728Y005982D01*
X008598Y005824D02*
X010374Y005824D01*
X010702Y005665D02*
X008248Y005665D01*
X008217Y005507D02*
X010733Y005507D01*
X010849Y005348D02*
X008101Y005348D01*
X008190Y005047D02*
X008131Y005018D01*
X008078Y004979D01*
X008031Y004932D01*
X007993Y004879D01*
X007963Y004821D01*
X007942Y004758D01*
X007932Y004693D01*
X007932Y004660D01*
X008350Y004660D01*
X008350Y004660D01*
X008350Y004660D01*
X008768Y004660D01*
X008768Y004693D01*
X008758Y004758D01*
X008737Y004821D01*
X008707Y004879D01*
X008669Y004932D01*
X008622Y004979D01*
X008569Y005018D01*
X008510Y005047D01*
X008448Y005068D01*
X008383Y005078D01*
X008350Y005078D01*
X008350Y004660D01*
X008350Y005078D01*
X008317Y005078D01*
X008252Y005068D01*
X008190Y005047D01*
X008158Y005031D02*
X007494Y005031D01*
X007693Y004873D02*
X007989Y004873D01*
X007936Y004714D02*
X007748Y004714D01*
X007737Y004556D02*
X007765Y004556D01*
X007935Y004556D02*
X007945Y004556D01*
X008350Y004556D02*
X008350Y004556D01*
X008350Y004660D02*
X008350Y004660D01*
X008350Y004714D02*
X008350Y004714D01*
X008350Y004873D02*
X008350Y004873D01*
X008350Y005031D02*
X008350Y005031D01*
X008542Y005031D02*
X010956Y005031D01*
X010757Y004873D02*
X008711Y004873D01*
X008764Y004714D02*
X010702Y004714D01*
X010685Y004556D02*
X010713Y004556D01*
X010515Y004556D02*
X008755Y004556D01*
X008675Y004397D02*
X010274Y004397D01*
X010276Y003922D02*
X008174Y003922D01*
X008350Y004397D02*
X008350Y004397D01*
X007206Y005031D02*
X006748Y005031D01*
X006653Y004873D02*
X007007Y004873D01*
X007452Y005665D02*
X003695Y005665D01*
X003766Y005824D02*
X004096Y005824D01*
X003972Y005982D02*
X003767Y005982D01*
X003706Y006141D02*
X003933Y006141D01*
X003997Y004397D02*
X000600Y004397D01*
X000600Y004239D02*
X003933Y004239D01*
X003933Y004080D02*
X000600Y004080D01*
X000600Y003922D02*
X003998Y003922D01*
X002233Y005507D02*
X000600Y005507D01*
X000600Y005665D02*
X002005Y005665D01*
X002664Y007884D02*
X003036Y007884D01*
X002947Y008043D02*
X002753Y008043D01*
X002767Y008201D02*
X002933Y008201D01*
X002981Y008360D02*
X002719Y008360D01*
X002577Y008518D02*
X003123Y008518D01*
X002123Y008518D02*
X001723Y008518D01*
X001652Y008360D02*
X001981Y008360D01*
X001933Y008201D02*
X001461Y008201D01*
X002267Y011743D02*
X002433Y011743D01*
X002586Y011806D01*
X002704Y011924D01*
X002767Y012077D01*
X002767Y012243D01*
X002704Y012397D01*
X002586Y012514D01*
X002433Y012578D01*
X002267Y012578D01*
X002114Y012514D01*
X001996Y012397D01*
X001933Y012243D01*
X001933Y012077D01*
X001996Y011924D01*
X002114Y011806D01*
X002267Y011743D01*
X002073Y011847D02*
X001639Y011847D01*
X001718Y012005D02*
X001962Y012005D01*
X001933Y012164D02*
X001739Y012164D01*
X001715Y012322D02*
X001965Y012322D01*
X002080Y012481D02*
X001632Y012481D01*
X001413Y012639D02*
X003702Y012639D01*
X003702Y012581D02*
X003763Y012435D01*
X003875Y012323D01*
X004021Y012262D01*
X004179Y012262D01*
X004196Y012269D01*
X004192Y012258D01*
X004182Y012193D01*
X004182Y012160D01*
X004182Y012127D01*
X004192Y012062D01*
X004213Y012000D01*
X004243Y011941D01*
X004281Y011888D01*
X004328Y011842D01*
X004381Y011803D01*
X004440Y011773D01*
X004502Y011753D01*
X004567Y011742D01*
X004600Y011742D01*
X004633Y011742D01*
X004698Y011753D01*
X004760Y011773D01*
X004819Y011803D01*
X004872Y011842D01*
X004919Y011888D01*
X004957Y011941D01*
X004987Y012000D01*
X005008Y012062D01*
X005018Y012127D01*
X005018Y012160D01*
X004600Y012160D01*
X004600Y011742D01*
X004600Y012160D01*
X004600Y012160D01*
X004600Y012160D01*
X004182Y012160D01*
X004600Y012160D01*
X004600Y012160D01*
X005018Y012160D01*
X005018Y012193D01*
X005008Y012258D01*
X004987Y012321D01*
X004957Y012379D01*
X004919Y012432D01*
X004872Y012479D01*
X004819Y012518D01*
X004760Y012547D01*
X004698Y012568D01*
X004633Y012578D01*
X004600Y012578D01*
X004600Y012160D01*
X004600Y012578D01*
X004567Y012578D01*
X004502Y012568D01*
X004491Y012564D01*
X004498Y012581D01*
X004498Y012739D01*
X004481Y012779D01*
X004521Y012762D01*
X004679Y012762D01*
X004825Y012823D01*
X004937Y012935D01*
X004998Y013081D01*
X004998Y013239D01*
X004937Y013386D01*
X004825Y013497D01*
X004679Y013558D01*
X004521Y013558D01*
X004375Y013497D01*
X004263Y013386D01*
X004202Y013239D01*
X004202Y013081D01*
X004219Y013042D01*
X004179Y013058D01*
X004021Y013058D01*
X003875Y012997D01*
X003763Y012886D01*
X003702Y012739D01*
X003702Y012581D01*
X003744Y012481D02*
X003620Y012481D01*
X003586Y012514D02*
X003704Y012397D01*
X003767Y012243D01*
X003767Y012077D01*
X003704Y011924D01*
X003586Y011806D01*
X003433Y011743D01*
X003267Y011743D01*
X003114Y011806D01*
X002996Y011924D01*
X002933Y012077D01*
X002933Y012243D01*
X002996Y012397D01*
X003114Y012514D01*
X003267Y012578D01*
X003433Y012578D01*
X003586Y012514D01*
X003433Y012743D02*
X003586Y012806D01*
X003704Y012924D01*
X003767Y013077D01*
X003767Y013243D01*
X003704Y013397D01*
X003586Y013514D01*
X003433Y013578D01*
X003267Y013578D01*
X003114Y013514D01*
X002996Y013397D01*
X002933Y013243D01*
X002933Y013077D01*
X002996Y012924D01*
X003114Y012806D01*
X003267Y012743D01*
X003433Y012743D01*
X003566Y012798D02*
X003726Y012798D01*
X003717Y012956D02*
X003833Y012956D01*
X003767Y013115D02*
X004202Y013115D01*
X004216Y013273D02*
X003755Y013273D01*
X003669Y013432D02*
X004309Y013432D01*
X004752Y013749D02*
X002948Y013749D01*
X002933Y013743D02*
X003086Y013806D01*
X003204Y013924D01*
X003267Y014077D01*
X003267Y014243D01*
X003204Y014397D01*
X003086Y014514D01*
X002933Y014578D01*
X002767Y014578D01*
X002614Y014514D01*
X002496Y014397D01*
X002433Y014243D01*
X002433Y014077D01*
X002496Y013924D01*
X002614Y013806D01*
X002767Y013743D01*
X002933Y013743D01*
X002752Y013749D02*
X000600Y013749D01*
X000600Y013907D02*
X002513Y013907D01*
X002437Y014066D02*
X000600Y014066D01*
X000600Y014224D02*
X002433Y014224D01*
X002490Y014383D02*
X000600Y014383D01*
X000600Y014541D02*
X002679Y014541D01*
X003021Y014541D02*
X004679Y014541D01*
X004490Y014383D02*
X003210Y014383D01*
X003267Y014224D02*
X004433Y014224D01*
X004437Y014066D02*
X003263Y014066D01*
X003187Y013907D02*
X004513Y013907D01*
X004891Y013432D02*
X005809Y013432D01*
X005716Y013273D02*
X004984Y013273D01*
X004998Y013115D02*
X005702Y013115D01*
X005333Y012956D02*
X004946Y012956D01*
X004764Y012798D02*
X005226Y012798D01*
X005202Y012639D02*
X004498Y012639D01*
X004600Y012481D02*
X004600Y012481D01*
X004600Y012322D02*
X004600Y012322D01*
X004600Y012164D02*
X004600Y012164D01*
X004600Y012160D02*
X004600Y012160D01*
X004600Y012005D02*
X004600Y012005D01*
X004600Y011847D02*
X004600Y011847D01*
X004877Y011847D02*
X005823Y011847D01*
X005711Y012005D02*
X004989Y012005D01*
X005018Y012164D02*
X005682Y012164D01*
X005376Y012322D02*
X004986Y012322D01*
X004870Y012481D02*
X005244Y012481D01*
X006100Y012322D02*
X006100Y012322D01*
X006100Y012164D02*
X006100Y012164D01*
X006100Y012160D02*
X006100Y012160D01*
X006100Y012005D02*
X006100Y012005D01*
X006100Y011847D02*
X006100Y011847D01*
X004323Y011847D02*
X003627Y011847D01*
X003738Y012005D02*
X004211Y012005D01*
X004182Y012164D02*
X003767Y012164D01*
X003735Y012322D02*
X003876Y012322D01*
X003134Y012798D02*
X001566Y012798D01*
X001717Y012956D02*
X002983Y012956D01*
X002933Y013115D02*
X001767Y013115D01*
X001755Y013273D02*
X002945Y013273D01*
X003031Y013432D02*
X001669Y013432D01*
X002620Y012481D02*
X003080Y012481D01*
X002965Y012322D02*
X002735Y012322D01*
X002767Y012164D02*
X002933Y012164D01*
X002962Y012005D02*
X002738Y012005D01*
X002627Y011847D02*
X003073Y011847D01*
X000600Y015651D02*
X019600Y015651D01*
X019600Y015809D02*
X000600Y015809D01*
X000600Y015968D02*
X019600Y015968D01*
X019600Y015492D02*
X015608Y015492D01*
X015730Y015334D02*
X019600Y015334D01*
X019600Y015175D02*
X015767Y015175D01*
X015742Y015017D02*
X016120Y015017D01*
X015980Y014858D02*
X015638Y014858D01*
X015933Y014700D02*
X013248Y014700D01*
X013231Y014541D02*
X015947Y014541D01*
X016037Y014383D02*
X013135Y014383D01*
X013199Y014858D02*
X013562Y014858D01*
X014138Y014858D02*
X014312Y014858D01*
X014888Y014858D02*
X015062Y014858D01*
X015092Y015492D02*
X014858Y015492D01*
X014342Y015492D02*
X014108Y015492D01*
X014142Y016743D02*
X013989Y016806D01*
X013871Y016924D01*
X013808Y017077D01*
X013808Y017243D01*
X013871Y017397D01*
X013989Y017514D01*
X014142Y017578D01*
X014308Y017578D01*
X014461Y017514D01*
X014579Y017397D01*
X014642Y017243D01*
X014642Y017077D01*
X014579Y016924D01*
X014461Y016806D01*
X014308Y016743D01*
X014142Y016743D01*
X014100Y016760D02*
X002392Y016760D01*
X002434Y016919D02*
X005193Y016919D01*
X005507Y016919D02*
X007638Y016919D01*
X007812Y016919D02*
X007888Y016919D01*
X007888Y017077D02*
X007812Y017077D01*
X007812Y017236D02*
X007888Y017236D01*
X007888Y017394D02*
X013870Y017394D01*
X013808Y017236D02*
X008355Y017236D01*
X008269Y017077D02*
X013808Y017077D01*
X013876Y016919D02*
X008062Y016919D01*
X007812Y017394D02*
X005864Y017394D01*
X005848Y017553D02*
X007334Y017553D01*
X007408Y017711D02*
X005776Y017711D01*
X005585Y017870D02*
X007575Y017870D01*
X008125Y017870D02*
X018490Y017870D01*
X018387Y017711D02*
X008292Y017711D01*
X008366Y017553D02*
X014082Y017553D01*
X014368Y017553D02*
X016032Y017553D01*
X016057Y017566D02*
X015996Y017534D01*
X015940Y017494D01*
X015891Y017445D01*
X015851Y017389D01*
X015820Y017328D01*
X015798Y017263D01*
X015788Y017195D01*
X015788Y017160D01*
X015788Y017126D01*
X015798Y017058D01*
X015820Y016992D01*
X015851Y016931D01*
X015891Y016875D01*
X015940Y016827D01*
X015996Y016786D01*
X016057Y016755D01*
X016123Y016733D01*
X016191Y016723D01*
X016225Y016723D01*
X016259Y016723D01*
X016327Y016733D01*
X016393Y016755D01*
X016454Y016786D01*
X016510Y016827D01*
X016559Y016875D01*
X016599Y016931D01*
X016630Y016992D01*
X016652Y017058D01*
X016662Y017126D01*
X016662Y017160D01*
X016225Y017160D01*
X016225Y016723D01*
X016225Y017160D01*
X016225Y017160D01*
X016225Y017160D01*
X015788Y017160D01*
X016225Y017160D01*
X016225Y017160D01*
X016662Y017160D01*
X016662Y017195D01*
X016652Y017263D01*
X016630Y017328D01*
X016599Y017389D01*
X016559Y017445D01*
X016510Y017494D01*
X016454Y017534D01*
X016393Y017566D01*
X016327Y017587D01*
X016259Y017598D01*
X016225Y017598D01*
X016191Y017598D01*
X016123Y017587D01*
X016057Y017566D01*
X016225Y017553D02*
X016225Y017553D01*
X016225Y017598D02*
X016225Y017160D01*
X016225Y017160D01*
X016225Y017598D01*
X016418Y017553D02*
X018306Y017553D01*
X018264Y017394D02*
X016596Y017394D01*
X016656Y017236D02*
X018240Y017236D01*
X018240Y017077D02*
X016655Y017077D01*
X016590Y016919D02*
X018266Y016919D01*
X018308Y016760D02*
X016404Y016760D01*
X016225Y016760D02*
X016225Y016760D01*
X016225Y016919D02*
X016225Y016919D01*
X016225Y017077D02*
X016225Y017077D01*
X016225Y017236D02*
X016225Y017236D01*
X016225Y017394D02*
X016225Y017394D01*
X015854Y017394D02*
X014580Y017394D01*
X014642Y017236D02*
X015794Y017236D01*
X015795Y017077D02*
X014642Y017077D01*
X014574Y016919D02*
X015860Y016919D01*
X016046Y016760D02*
X014350Y016760D01*
X016580Y015017D02*
X019600Y015017D01*
X019600Y014858D02*
X016720Y014858D01*
X016767Y014700D02*
X019600Y014700D01*
X019600Y014541D02*
X019446Y014541D01*
X019565Y014383D02*
X019600Y014383D01*
X019600Y013907D02*
X019552Y013907D01*
X019600Y013749D02*
X019416Y013749D01*
X019600Y013590D02*
X016767Y013590D01*
X016765Y013749D02*
X017284Y013749D01*
X017148Y013907D02*
X016693Y013907D01*
X016707Y013432D02*
X019600Y013432D01*
X018784Y013749D02*
X017916Y013749D01*
X018052Y013907D02*
X018648Y013907D01*
X018586Y014066D02*
X018114Y014066D01*
X018114Y014224D02*
X018586Y014224D01*
X018635Y014383D02*
X018065Y014383D01*
X017946Y014541D02*
X018754Y014541D01*
X018921Y016126D02*
X001779Y016126D01*
X002044Y016285D02*
X018656Y016285D01*
X018497Y016443D02*
X002203Y016443D01*
X002309Y016602D02*
X018391Y016602D01*
X015031Y013432D02*
X014919Y013432D01*
X014967Y012956D02*
X014983Y012956D01*
X015134Y012798D02*
X014816Y012798D01*
X014870Y012481D02*
X015080Y012481D01*
X015073Y011847D02*
X014877Y011847D01*
X014323Y011847D02*
X014127Y011847D01*
X014120Y012481D02*
X014330Y012481D01*
X014384Y012798D02*
X014066Y012798D01*
X014217Y012956D02*
X014233Y012956D01*
X014281Y013432D02*
X014169Y013432D01*
X013531Y013432D02*
X013200Y013432D01*
X013011Y013273D02*
X013445Y013273D01*
X015627Y011847D02*
X015975Y011847D01*
X016105Y012005D02*
X015738Y012005D01*
X015767Y012164D02*
X019600Y012164D01*
X019600Y012322D02*
X015735Y012322D01*
X016595Y012005D02*
X019600Y012005D01*
X019600Y011847D02*
X016725Y011847D01*
X015996Y010896D02*
X013195Y010896D01*
X013261Y010737D02*
X015933Y010737D01*
X015933Y010579D02*
X013260Y010579D01*
X013192Y010420D02*
X013520Y010420D01*
X014180Y010420D02*
X014270Y010420D01*
X014237Y009945D02*
X014213Y009945D01*
X014038Y009786D02*
X014412Y009786D01*
X014319Y009469D02*
X014131Y009469D01*
X013569Y009469D02*
X011854Y009469D01*
X011968Y009311D02*
X013460Y009311D01*
X013433Y009152D02*
X011998Y009152D01*
X012050Y008518D02*
X011472Y008518D01*
X011362Y008360D02*
X011877Y008360D01*
X011827Y008201D02*
X006767Y008201D01*
X006753Y008043D02*
X007234Y008043D01*
X007012Y007884D02*
X006664Y007884D01*
X006692Y007409D02*
X007039Y007409D01*
X008350Y005982D02*
X008350Y005982D01*
X008350Y005824D02*
X008350Y005824D01*
X010924Y003922D02*
X011276Y003922D01*
X011203Y004080D02*
X010997Y004080D01*
X010998Y004239D02*
X010981Y004279D01*
X011021Y004262D01*
X011179Y004262D01*
X011219Y004279D01*
X011202Y004239D01*
X011973Y006299D02*
X013456Y006299D01*
X013557Y006458D02*
X011865Y006458D01*
X011993Y007250D02*
X012643Y007250D01*
X012391Y007409D02*
X011914Y007409D01*
X012895Y008043D02*
X016183Y008043D01*
X016114Y008014D02*
X016267Y008078D01*
X016433Y008078D01*
X016586Y008014D01*
X016704Y007897D01*
X016767Y007743D01*
X016767Y007577D01*
X016704Y007424D01*
X016586Y007306D01*
X016433Y007243D01*
X016267Y007243D01*
X016114Y007306D01*
X015996Y007424D01*
X015933Y007577D01*
X015933Y007743D01*
X015996Y007897D01*
X016114Y008014D01*
X015991Y007884D02*
X013079Y007884D01*
X013138Y007726D02*
X015933Y007726D01*
X015937Y007567D02*
X015458Y007567D01*
X015242Y007567D02*
X014708Y007567D01*
X014492Y007567D02*
X013958Y007567D01*
X013742Y007567D02*
X013133Y007567D01*
X013059Y007409D02*
X013508Y007409D01*
X014192Y007409D02*
X014258Y007409D01*
X014242Y006933D02*
X014208Y006933D01*
X014010Y006775D02*
X014440Y006775D01*
X014760Y006775D02*
X015190Y006775D01*
X014992Y006933D02*
X014958Y006933D01*
X014942Y007409D02*
X015008Y007409D01*
X015692Y007409D02*
X016011Y007409D01*
X016249Y007250D02*
X015765Y007250D01*
X015767Y007092D02*
X019600Y007092D01*
X019600Y007250D02*
X016451Y007250D01*
X016689Y007409D02*
X019600Y007409D01*
X019600Y007567D02*
X016763Y007567D01*
X016767Y007726D02*
X017307Y007726D01*
X017158Y007884D02*
X016709Y007884D01*
X016060Y008360D02*
X012987Y008360D01*
X013097Y008518D02*
X015957Y008518D01*
X015740Y009311D02*
X019600Y009311D01*
X019600Y009469D02*
X015631Y009469D01*
X015162Y009786D02*
X014788Y009786D01*
X014963Y009945D02*
X014987Y009945D01*
X015020Y010420D02*
X014930Y010420D01*
X015680Y010420D02*
X016000Y010420D01*
X015069Y009469D02*
X014881Y009469D01*
X014865Y008835D02*
X015085Y008835D01*
X014335Y008835D02*
X014115Y008835D01*
X015708Y006933D02*
X019600Y006933D01*
X019600Y006775D02*
X015510Y006775D01*
X015057Y006458D02*
X014893Y006458D01*
X014307Y006458D02*
X014143Y006458D01*
X014104Y005824D02*
X014346Y005824D01*
X014854Y005824D02*
X015096Y005824D01*
X015214Y004556D02*
X014736Y004556D01*
X014953Y004397D02*
X014997Y004397D01*
X015486Y004556D02*
X015941Y004556D01*
X016023Y004397D02*
X015703Y004397D01*
X015767Y004239D02*
X019600Y004239D01*
X019600Y004397D02*
X016677Y004397D01*
X016759Y004556D02*
X019600Y004556D01*
X019600Y004714D02*
X019367Y004714D01*
X019538Y004873D02*
X019600Y004873D01*
X019579Y005348D02*
X019600Y005348D01*
X019600Y005507D02*
X019481Y005507D01*
X019600Y005665D02*
X019225Y005665D01*
X018975Y005665D02*
X017725Y005665D01*
X017475Y005665D02*
X016767Y005665D01*
X016738Y005507D02*
X017219Y005507D01*
X017121Y005348D02*
X016628Y005348D01*
X016714Y004873D02*
X017162Y004873D01*
X017333Y004714D02*
X016767Y004714D01*
X017867Y004714D02*
X018833Y004714D01*
X018662Y004873D02*
X018038Y004873D01*
X018103Y005031D02*
X018597Y005031D01*
X018586Y005190D02*
X018114Y005190D01*
X018079Y005348D02*
X018621Y005348D01*
X018719Y005507D02*
X017981Y005507D01*
X016734Y005824D02*
X019600Y005824D01*
X019600Y005982D02*
X016618Y005982D01*
X017893Y007726D02*
X018807Y007726D01*
X018658Y007884D02*
X018042Y007884D01*
X018108Y008043D02*
X018592Y008043D01*
X018586Y008201D02*
X018114Y008201D01*
X018074Y008360D02*
X018626Y008360D01*
X018731Y008518D02*
X017969Y008518D01*
X019393Y007726D02*
X019600Y007726D01*
X019600Y007884D02*
X019542Y007884D01*
X019574Y008360D02*
X019600Y008360D01*
X019600Y008518D02*
X019469Y008518D01*
X018796Y010737D02*
X017904Y010737D01*
X018047Y010896D02*
X018653Y010896D01*
X018587Y011054D02*
X018113Y011054D01*
X018114Y011213D02*
X018586Y011213D01*
X018631Y011371D02*
X018069Y011371D01*
X017958Y011530D02*
X018742Y011530D01*
X010815Y014383D02*
X009426Y014383D01*
X009542Y014541D02*
X010719Y014541D01*
X010702Y014700D02*
X009563Y014700D01*
X007431Y017077D02*
X005744Y017077D01*
X005834Y017236D02*
X007345Y017236D01*
X005115Y017870D02*
X002210Y017870D01*
X002313Y017711D02*
X004924Y017711D01*
X004852Y017553D02*
X002394Y017553D01*
X002436Y017394D02*
X004836Y017394D01*
X004866Y017236D02*
X002460Y017236D01*
X002460Y017077D02*
X004956Y017077D01*
X000921Y016126D02*
X000600Y016126D01*
X000600Y016285D02*
X000656Y016285D01*
X008938Y009469D02*
X009033Y009373D01*
X009158Y009322D01*
X009292Y009322D01*
X009417Y009373D01*
X009512Y009469D01*
X014732Y003763D02*
X015218Y003763D01*
X015482Y003763D02*
X019600Y003763D01*
X019600Y003922D02*
X015702Y003922D01*
X015767Y004080D02*
X019600Y004080D01*
X014998Y003922D02*
X014952Y003922D01*
X006600Y002178D02*
X006600Y002178D01*
X006600Y002020D02*
X006600Y002020D01*
X006600Y001861D02*
X006600Y001861D01*
X006600Y001703D02*
X006600Y001703D01*
X000809Y003129D02*
X000600Y003129D01*
M02*
