G75*
G70*
%OFA0B0*%
%FSLAX24Y24*%
%IPPOS*%
%LPD*%
%AMOC8*
5,1,8,0,0,1.08239X$1,22.5*
%
%ADD10C,0.0515*%
%ADD11C,0.0476*%
%ADD12R,0.0709X0.0709*%
%ADD13C,0.0160*%
%ADD14C,0.0400*%
D10*
X004600Y002035D03*
X006600Y002035D03*
X006350Y004160D03*
X006350Y005160D03*
X006350Y006160D03*
X006350Y007160D03*
X006350Y008160D03*
X006350Y009160D03*
X004350Y009160D03*
X004350Y008160D03*
X004350Y007160D03*
X003350Y008160D03*
X002350Y008160D03*
X004350Y006160D03*
X004350Y005160D03*
X004350Y004160D03*
X003350Y005910D03*
X002350Y005910D03*
X002350Y012160D03*
X003350Y012160D03*
X003350Y013160D03*
X002850Y014160D03*
X001350Y013160D03*
X004850Y014160D03*
X005725Y014160D03*
X007725Y014160D03*
X013850Y013160D03*
X014600Y013160D03*
X015350Y013160D03*
X016350Y013660D03*
X016350Y014660D03*
X015350Y015160D03*
X014600Y015160D03*
X013850Y015160D03*
X014225Y017160D03*
X016225Y017160D03*
X015350Y012160D03*
X014600Y012160D03*
X013850Y012160D03*
X013850Y010160D03*
X014600Y010160D03*
X015350Y010160D03*
X016350Y010660D03*
X016350Y011660D03*
X015350Y009160D03*
X014600Y009160D03*
X013850Y009160D03*
X013850Y007160D03*
X014600Y007160D03*
X015350Y007160D03*
X016350Y007660D03*
X016350Y008660D03*
X015350Y006160D03*
X014600Y006160D03*
X013850Y006160D03*
X013850Y004160D03*
X014600Y004160D03*
X015350Y004160D03*
X016350Y004660D03*
X016350Y005660D03*
D11*
X012850Y005660D03*
X012350Y005160D03*
X012850Y004660D03*
X011600Y004160D03*
X011100Y004660D03*
X010600Y004160D03*
X011100Y005660D03*
X010600Y006160D03*
X011600Y006160D03*
X011600Y007160D03*
X011100Y007660D03*
X010600Y007160D03*
X011100Y008660D03*
X010600Y009160D03*
X011600Y009160D03*
X011600Y010160D03*
X011100Y010660D03*
X010600Y010160D03*
X011100Y011660D03*
X010600Y012160D03*
X011600Y012160D03*
X011600Y013160D03*
X011100Y013660D03*
X010600Y013160D03*
X011100Y014660D03*
X010600Y015160D03*
X011600Y015160D03*
X012350Y014160D03*
X012850Y013660D03*
X012850Y014660D03*
X012850Y011660D03*
X012350Y011160D03*
X012850Y010660D03*
X012725Y008660D03*
X012225Y008160D03*
X012725Y007660D03*
X008350Y007660D03*
X007850Y007160D03*
X007350Y007660D03*
X007850Y008660D03*
X007350Y009160D03*
X008350Y009160D03*
X007600Y012160D03*
X007100Y012660D03*
X007600Y013160D03*
X006100Y013160D03*
X005600Y012660D03*
X006100Y012160D03*
X004600Y012160D03*
X004100Y012660D03*
X004600Y013160D03*
X007350Y006160D03*
X007850Y005660D03*
X008350Y006160D03*
X008350Y004660D03*
X007850Y004160D03*
X007350Y004660D03*
D12*
X001225Y006410D03*
X001225Y008660D03*
X001225Y012160D03*
X005350Y017410D03*
X007850Y017410D03*
X017600Y014160D03*
X019100Y014160D03*
X019100Y011160D03*
X017600Y011160D03*
X017600Y008160D03*
X019100Y008160D03*
X019100Y005160D03*
X017600Y005160D03*
D13*
X014725Y005160D01*
X014600Y005285D01*
X014600Y006160D01*
X014850Y006660D02*
X015350Y006160D01*
X018100Y006160D01*
X019100Y005160D01*
X016350Y004660D02*
X015100Y004660D01*
X014600Y004160D01*
X013850Y004160D02*
X013850Y004660D01*
X014100Y004910D01*
X013850Y005160D01*
X012350Y005160D01*
X011600Y004410D01*
X011600Y004160D01*
X011100Y004660D02*
X011600Y005160D01*
X011600Y005535D01*
X012100Y006035D01*
X012100Y006410D01*
X011850Y006660D01*
X011350Y006660D01*
X011100Y006910D01*
X011100Y007660D01*
X010100Y008660D01*
X007850Y008660D01*
X007350Y008160D01*
X007350Y007660D01*
X006350Y007660D01*
X006350Y008160D01*
X006350Y007660D02*
X006350Y007160D01*
X007350Y006660D02*
X007850Y007160D01*
X007850Y006660D02*
X008850Y006660D01*
X009225Y007035D01*
X009600Y006660D02*
X008600Y005660D01*
X007850Y005660D01*
X007350Y005160D01*
X007350Y004660D01*
X006350Y004660D01*
X006350Y004160D01*
X006350Y004660D02*
X006350Y005160D01*
X006350Y006160D02*
X007350Y006160D01*
X007850Y006660D01*
X007350Y006660D02*
X004100Y006660D01*
X003475Y007410D01*
X002100Y007410D01*
X001225Y008660D01*
X003350Y008160D02*
X004350Y007160D01*
X003600Y006410D02*
X004100Y005660D01*
X005100Y005660D01*
X005350Y005410D01*
X005350Y003660D01*
X005600Y003410D01*
X007100Y003410D01*
X007850Y004160D01*
X009600Y006660D02*
X010850Y006660D01*
X011100Y006410D01*
X011100Y005660D01*
X011600Y007160D02*
X011600Y007535D01*
X012225Y008160D01*
X013725Y008160D01*
X014038Y007848D01*
X013850Y007660D01*
X013850Y007160D01*
X013225Y006660D02*
X014850Y006660D01*
X014600Y007160D02*
X015100Y007660D01*
X016350Y007660D01*
X017600Y008160D02*
X014600Y008160D01*
X014600Y009160D01*
X014850Y009660D02*
X015350Y009160D01*
X018100Y009160D01*
X019100Y008160D01*
X016350Y010660D02*
X015100Y010660D01*
X014600Y010160D01*
X014850Y009660D02*
X013225Y009660D01*
X012725Y009160D01*
X012725Y008660D01*
X014038Y007848D02*
X014350Y008160D01*
X014600Y008160D01*
X013225Y006660D02*
X012850Y006285D01*
X012850Y005660D01*
X014100Y004910D02*
X014350Y005160D01*
X014725Y005160D01*
X011100Y008660D02*
X011100Y009410D01*
X010850Y009660D01*
X009225Y009660D01*
X008850Y010660D02*
X007350Y009160D01*
X006350Y009160D01*
X008850Y010660D02*
X011100Y010660D01*
X011600Y011160D01*
X011600Y011410D01*
X012100Y011910D01*
X012100Y012410D01*
X011850Y012660D01*
X011350Y012660D01*
X011100Y012910D01*
X011100Y013660D01*
X011600Y013410D02*
X011600Y013160D01*
X011600Y013410D02*
X012350Y014160D01*
X013850Y014160D01*
X014100Y013910D01*
X013850Y013660D01*
X013850Y013160D01*
X013225Y012660D02*
X014850Y012660D01*
X015350Y012160D01*
X018100Y012160D01*
X019100Y011160D01*
X017600Y011160D02*
X014600Y011160D01*
X014600Y012160D01*
X014600Y013160D02*
X015100Y013660D01*
X016350Y013660D01*
X017600Y014160D02*
X014725Y014160D01*
X014600Y014285D01*
X014600Y015160D01*
X014850Y015660D02*
X015350Y015160D01*
X018100Y015160D01*
X019100Y014160D01*
X014725Y014160D02*
X014350Y014160D01*
X014100Y013910D01*
X012850Y014660D02*
X012850Y015285D01*
X013225Y015660D01*
X014850Y015660D01*
X011600Y015160D02*
X011100Y015660D01*
X009225Y015660D01*
X007725Y014160D01*
X007600Y014035D01*
X007600Y013160D01*
X007100Y012660D02*
X006600Y012660D01*
X006100Y013160D01*
X005850Y013160D01*
X004850Y014160D01*
X004100Y013660D02*
X001850Y013660D01*
X001350Y013160D01*
X001225Y012160D02*
X001600Y012160D01*
X002100Y011660D01*
X003850Y011660D01*
X004100Y011910D01*
X004100Y012660D01*
X004600Y013160D02*
X005100Y012660D01*
X005600Y012660D01*
X004600Y013160D02*
X004100Y013660D01*
X003350Y013160D02*
X003350Y012160D01*
X009225Y014660D02*
X011100Y014660D01*
X013225Y012660D02*
X012850Y012285D01*
X012850Y011660D01*
X012350Y011160D02*
X011600Y010410D01*
X011600Y010160D01*
X012350Y011160D02*
X013600Y011160D01*
X013975Y010785D01*
X013850Y010660D01*
X013850Y010160D01*
X013975Y010785D02*
X014350Y011160D01*
X014600Y011160D01*
X011100Y011660D02*
X009600Y011660D01*
X003600Y006410D02*
X001225Y006410D01*
X003350Y005910D02*
X003600Y005535D01*
X003600Y004660D01*
X004100Y004160D01*
X004350Y004160D01*
D14*
X009225Y007035D03*
X009600Y006660D03*
X009225Y009660D03*
X009600Y011660D03*
X009225Y014660D03*
M02*
