G75*
G70*
%OFA0B0*%
%FSLAX24Y24*%
%IPPOS*%
%LPD*%
%AMOC8*
5,1,8,0,0,1.08239X$1,22.5*
%
%ADD10C,0.0060*%
%ADD11C,0.0320*%
%ADD12C,0.0160*%
%ADD13C,0.0040*%
%ADD14C,0.0030*%
%ADD15C,0.0050*%
%ADD16C,0.0100*%
D10*
X004450Y001585D02*
X006750Y001585D01*
X006750Y002485D02*
X004450Y002485D01*
X004625Y003810D02*
X006075Y003810D01*
X006075Y004510D02*
X004625Y004510D01*
X004625Y004810D02*
X006075Y004810D01*
X006075Y005510D02*
X004625Y005510D01*
X004625Y005810D02*
X006075Y005810D01*
X006075Y006510D02*
X004625Y006510D01*
X004625Y006810D02*
X006075Y006810D01*
X006075Y007510D02*
X004625Y007510D01*
X004625Y007810D02*
X006075Y007810D01*
X006075Y008510D02*
X004625Y008510D01*
X004625Y008810D02*
X006075Y008810D01*
X006075Y009510D02*
X004625Y009510D01*
X004066Y010190D02*
X003852Y010190D01*
X003745Y010297D01*
X003745Y010510D01*
X003852Y010617D01*
X004066Y010617D01*
X004172Y010510D01*
X004172Y010404D01*
X003745Y010404D01*
X003528Y010617D02*
X003208Y010617D01*
X003101Y010510D01*
X003101Y010297D01*
X003208Y010190D01*
X003528Y010190D01*
X002884Y010617D02*
X002777Y010617D01*
X002564Y010404D01*
X002564Y010617D02*
X002564Y010190D01*
X002346Y010190D02*
X002346Y010617D01*
X002346Y010190D02*
X002026Y010190D01*
X001919Y010297D01*
X001919Y010617D01*
X001702Y010510D02*
X001702Y010297D01*
X001595Y010190D01*
X001381Y010190D01*
X001275Y010297D01*
X001275Y010510D01*
X001381Y010617D01*
X001595Y010617D01*
X001702Y010510D01*
X001057Y010404D02*
X001057Y010297D01*
X000950Y010190D01*
X000737Y010190D01*
X000630Y010297D01*
X000737Y010510D02*
X000950Y010510D01*
X001057Y010404D01*
X001057Y010724D02*
X000950Y010831D01*
X000737Y010831D01*
X000630Y010724D01*
X000630Y010617D01*
X000737Y010510D01*
X002850Y012760D02*
X002897Y012758D01*
X002945Y012752D01*
X002991Y012743D01*
X003037Y012730D01*
X003081Y012714D01*
X003125Y012693D01*
X003166Y012670D01*
X003205Y012644D01*
X003242Y012614D01*
X003277Y012581D01*
X003309Y012546D01*
X003338Y012509D01*
X003075Y012810D02*
X001625Y012810D01*
X001625Y013510D02*
X003075Y013510D01*
X003125Y013810D02*
X004575Y013810D01*
X004575Y014510D02*
X003125Y014510D01*
X003208Y015065D02*
X003422Y015065D01*
X003315Y015065D02*
X003315Y015706D01*
X003208Y015706D01*
X002991Y015385D02*
X002884Y015492D01*
X002564Y015492D01*
X002346Y015385D02*
X002346Y015065D01*
X002026Y015065D01*
X001919Y015172D01*
X002026Y015279D01*
X002346Y015279D01*
X002346Y015385D02*
X002239Y015492D01*
X002026Y015492D01*
X001702Y015385D02*
X001702Y015065D01*
X001702Y015385D02*
X001595Y015492D01*
X001275Y015492D01*
X001275Y015065D01*
X001057Y015065D02*
X000630Y015065D01*
X000630Y015706D01*
X001057Y015706D01*
X000844Y015385D02*
X000630Y015385D01*
X002564Y015065D02*
X002884Y015065D01*
X002991Y015172D01*
X002991Y015385D01*
X002564Y015065D02*
X002564Y015706D01*
X003638Y015385D02*
X003638Y015172D01*
X003745Y015065D01*
X003958Y015065D01*
X004065Y015279D02*
X003638Y015279D01*
X003638Y015385D02*
X003745Y015492D01*
X003958Y015492D01*
X004065Y015385D01*
X004065Y015279D01*
X005025Y016297D02*
X005131Y016190D01*
X005345Y016190D01*
X005452Y016297D01*
X005452Y016510D01*
X005345Y016617D01*
X005238Y016617D01*
X005025Y016510D01*
X005025Y016831D01*
X005452Y016831D01*
X005669Y016831D02*
X005669Y016404D01*
X005883Y016190D01*
X006096Y016404D01*
X006096Y016831D01*
X006880Y016724D02*
X006880Y016297D01*
X006987Y016190D01*
X007200Y016190D01*
X007307Y016297D01*
X007307Y016510D01*
X007094Y016510D01*
X007307Y016724D02*
X007200Y016831D01*
X006987Y016831D01*
X006880Y016724D01*
X007525Y016617D02*
X007525Y016190D01*
X007952Y016190D02*
X007952Y016510D01*
X007845Y016617D01*
X007525Y016617D01*
X008169Y016510D02*
X008169Y016297D01*
X008276Y016190D01*
X008596Y016190D01*
X008596Y016831D01*
X008596Y016617D02*
X008276Y016617D01*
X008169Y016510D01*
X009880Y016581D02*
X009880Y015940D01*
X010200Y015940D01*
X010307Y016047D01*
X010307Y016474D01*
X010200Y016581D01*
X009880Y016581D01*
X010525Y016260D02*
X010525Y016047D01*
X010631Y015940D01*
X010845Y015940D01*
X010952Y016154D02*
X010525Y016154D01*
X010525Y016260D02*
X010631Y016367D01*
X010845Y016367D01*
X010952Y016260D01*
X010952Y016154D01*
X011169Y016260D02*
X011169Y016047D01*
X011276Y015940D01*
X011596Y015940D01*
X011814Y016047D02*
X011920Y015940D01*
X012134Y015940D01*
X012241Y016047D01*
X012241Y016260D01*
X012134Y016367D01*
X011920Y016367D01*
X011814Y016260D01*
X011814Y016047D01*
X011596Y016367D02*
X011276Y016367D01*
X011169Y016260D01*
X012458Y016260D02*
X012458Y016047D01*
X012565Y015940D01*
X012885Y015940D01*
X012885Y016581D01*
X012885Y016367D02*
X012565Y016367D01*
X012458Y016260D01*
X013103Y016260D02*
X013103Y016047D01*
X013210Y015940D01*
X013423Y015940D01*
X013530Y016154D02*
X013103Y016154D01*
X013103Y016260D02*
X013210Y016367D01*
X013423Y016367D01*
X013530Y016260D01*
X013530Y016154D01*
X013747Y016154D02*
X013961Y016367D01*
X014068Y016367D01*
X013747Y016367D02*
X013747Y015940D01*
X014075Y016710D02*
X016375Y016710D01*
X016375Y017610D02*
X014075Y017610D01*
X014200Y014885D02*
X014200Y013435D01*
X014250Y013435D02*
X014250Y014885D01*
X013500Y014885D02*
X013500Y013435D01*
X014950Y013435D02*
X014950Y014885D01*
X015000Y014885D02*
X015000Y013435D01*
X015700Y013435D02*
X015700Y014885D01*
X016950Y014160D02*
X016948Y014113D01*
X016942Y014065D01*
X016933Y014019D01*
X016920Y013973D01*
X016904Y013929D01*
X016883Y013885D01*
X016860Y013844D01*
X016834Y013805D01*
X016804Y013768D01*
X016771Y013733D01*
X016736Y013701D01*
X016699Y013672D01*
X015750Y014160D02*
X015752Y014205D01*
X015757Y014251D01*
X015765Y014295D01*
X015777Y014339D01*
X015793Y014382D01*
X015811Y014424D01*
X015833Y014464D01*
X015857Y014502D01*
X015884Y014538D01*
X015914Y014573D01*
X015947Y014604D01*
X015982Y014634D01*
X015750Y014160D02*
X015752Y014115D01*
X015757Y014069D01*
X015765Y014025D01*
X015777Y013981D01*
X015793Y013938D01*
X015811Y013896D01*
X015833Y013856D01*
X015857Y013818D01*
X015884Y013782D01*
X015914Y013747D01*
X015947Y013716D01*
X015982Y013686D01*
X016950Y014160D02*
X016948Y014206D01*
X016943Y014252D01*
X016934Y014298D01*
X016922Y014343D01*
X016906Y014386D01*
X016887Y014428D01*
X016864Y014469D01*
X016839Y014508D01*
X016811Y014544D01*
X016780Y014579D01*
X016746Y014611D01*
X016710Y014640D01*
X015700Y011885D02*
X015700Y010435D01*
X015000Y010435D02*
X015000Y011885D01*
X014950Y011885D02*
X014950Y010435D01*
X014250Y010435D02*
X014250Y011885D01*
X014200Y011885D02*
X014200Y010435D01*
X013500Y010435D02*
X013500Y011885D01*
X016699Y010672D02*
X016736Y010701D01*
X016771Y010733D01*
X016804Y010768D01*
X016834Y010805D01*
X016860Y010844D01*
X016883Y010885D01*
X016904Y010929D01*
X016920Y010973D01*
X016933Y011019D01*
X016942Y011065D01*
X016948Y011113D01*
X016950Y011160D01*
X015982Y011634D02*
X015947Y011604D01*
X015914Y011573D01*
X015884Y011538D01*
X015857Y011502D01*
X015833Y011464D01*
X015811Y011424D01*
X015793Y011382D01*
X015777Y011339D01*
X015765Y011295D01*
X015757Y011251D01*
X015752Y011205D01*
X015750Y011160D01*
X016710Y011640D02*
X016746Y011611D01*
X016780Y011579D01*
X016811Y011544D01*
X016839Y011508D01*
X016864Y011469D01*
X016887Y011428D01*
X016906Y011386D01*
X016922Y011343D01*
X016934Y011298D01*
X016943Y011252D01*
X016948Y011206D01*
X016950Y011160D01*
X015982Y010686D02*
X015947Y010716D01*
X015914Y010747D01*
X015884Y010782D01*
X015857Y010818D01*
X015833Y010856D01*
X015811Y010896D01*
X015793Y010938D01*
X015777Y010981D01*
X015765Y011025D01*
X015757Y011069D01*
X015752Y011115D01*
X015750Y011160D01*
X015700Y008885D02*
X015700Y007435D01*
X015000Y007435D02*
X015000Y008885D01*
X014950Y008885D02*
X014950Y007435D01*
X014250Y007435D02*
X014250Y008885D01*
X014200Y008885D02*
X014200Y007435D01*
X013500Y007435D02*
X013500Y008885D01*
X016699Y007672D02*
X016736Y007701D01*
X016771Y007733D01*
X016804Y007768D01*
X016834Y007805D01*
X016860Y007844D01*
X016883Y007885D01*
X016904Y007929D01*
X016920Y007973D01*
X016933Y008019D01*
X016942Y008065D01*
X016948Y008113D01*
X016950Y008160D01*
X015982Y008634D02*
X015947Y008604D01*
X015914Y008573D01*
X015884Y008538D01*
X015857Y008502D01*
X015833Y008464D01*
X015811Y008424D01*
X015793Y008382D01*
X015777Y008339D01*
X015765Y008295D01*
X015757Y008251D01*
X015752Y008205D01*
X015750Y008160D01*
X016710Y008640D02*
X016746Y008611D01*
X016780Y008579D01*
X016811Y008544D01*
X016839Y008508D01*
X016864Y008469D01*
X016887Y008428D01*
X016906Y008386D01*
X016922Y008343D01*
X016934Y008298D01*
X016943Y008252D01*
X016948Y008206D01*
X016950Y008160D01*
X015982Y007686D02*
X015947Y007716D01*
X015914Y007747D01*
X015884Y007782D01*
X015857Y007818D01*
X015833Y007856D01*
X015811Y007896D01*
X015793Y007938D01*
X015777Y007981D01*
X015765Y008025D01*
X015757Y008069D01*
X015752Y008115D01*
X015750Y008160D01*
X015700Y005885D02*
X015700Y004435D01*
X015000Y004435D02*
X015000Y005885D01*
X014950Y005885D02*
X014950Y004435D01*
X014250Y004435D02*
X014250Y005885D01*
X014200Y005885D02*
X014200Y004435D01*
X013500Y004435D02*
X013500Y005885D01*
X016699Y004672D02*
X016736Y004701D01*
X016771Y004733D01*
X016804Y004768D01*
X016834Y004805D01*
X016860Y004844D01*
X016883Y004885D01*
X016904Y004929D01*
X016920Y004973D01*
X016933Y005019D01*
X016942Y005065D01*
X016948Y005113D01*
X016950Y005160D01*
X015982Y005634D02*
X015947Y005604D01*
X015914Y005573D01*
X015884Y005538D01*
X015857Y005502D01*
X015833Y005464D01*
X015811Y005424D01*
X015793Y005382D01*
X015777Y005339D01*
X015765Y005295D01*
X015757Y005251D01*
X015752Y005205D01*
X015750Y005160D01*
X016710Y005640D02*
X016746Y005611D01*
X016780Y005579D01*
X016811Y005544D01*
X016839Y005508D01*
X016864Y005469D01*
X016887Y005428D01*
X016906Y005386D01*
X016922Y005343D01*
X016934Y005298D01*
X016943Y005252D01*
X016948Y005206D01*
X016950Y005160D01*
X015982Y004686D02*
X015947Y004716D01*
X015914Y004747D01*
X015884Y004782D01*
X015857Y004818D01*
X015833Y004856D01*
X015811Y004896D01*
X015793Y004938D01*
X015777Y004981D01*
X015765Y005025D01*
X015757Y005069D01*
X015752Y005115D01*
X015750Y005160D01*
X015932Y003206D02*
X015932Y002565D01*
X015612Y002565D01*
X015505Y002672D01*
X015505Y002885D01*
X015612Y002992D01*
X015932Y002992D01*
X016150Y002885D02*
X016150Y002672D01*
X016257Y002565D01*
X016470Y002565D01*
X016577Y002779D02*
X016150Y002779D01*
X016150Y002885D02*
X016257Y002992D01*
X016470Y002992D01*
X016577Y002885D01*
X016577Y002779D01*
X016794Y002779D02*
X017008Y002992D01*
X017115Y002992D01*
X016794Y002992D02*
X016794Y002565D01*
X015288Y002672D02*
X015181Y002565D01*
X014967Y002565D01*
X014861Y002672D01*
X014861Y002885D01*
X014967Y002992D01*
X015181Y002992D01*
X015288Y002885D01*
X015288Y002672D01*
X014643Y002565D02*
X014323Y002565D01*
X014216Y002672D01*
X014216Y002885D01*
X014323Y002992D01*
X014643Y002992D01*
X013999Y002885D02*
X013999Y002779D01*
X013572Y002779D01*
X013572Y002885D02*
X013572Y002672D01*
X013678Y002565D01*
X013892Y002565D01*
X013999Y002885D02*
X013892Y002992D01*
X013678Y002992D01*
X013572Y002885D01*
X013354Y002672D02*
X013354Y003099D01*
X013247Y003206D01*
X012927Y003206D01*
X012927Y002565D01*
X013247Y002565D01*
X013354Y002672D01*
X012065Y002885D02*
X011638Y002885D01*
X011958Y003206D01*
X011958Y002565D01*
X011043Y001867D02*
X010829Y002081D01*
X010612Y001974D02*
X010505Y002081D01*
X010291Y002081D01*
X010185Y001974D01*
X009969Y002081D02*
X009755Y001867D01*
X009755Y001654D01*
X009969Y001440D01*
X010185Y001440D02*
X010612Y001867D01*
X010612Y001974D01*
X011043Y001867D02*
X011043Y001654D01*
X010829Y001440D01*
X010612Y001440D02*
X010185Y001440D01*
X010133Y002565D02*
X010026Y002672D01*
X010026Y003099D01*
X009919Y002992D02*
X010133Y002992D01*
X010349Y002885D02*
X010349Y002672D01*
X010456Y002565D01*
X010669Y002565D01*
X010776Y002672D01*
X010776Y002885D01*
X010669Y002992D01*
X010456Y002992D01*
X010349Y002885D01*
X009057Y002992D02*
X009057Y003099D01*
X008950Y003206D01*
X008737Y003206D01*
X008630Y003099D01*
X009057Y002992D02*
X008630Y002565D01*
X009057Y002565D01*
X002850Y005310D02*
X002805Y005312D01*
X002759Y005317D01*
X002715Y005325D01*
X002671Y005337D01*
X002628Y005353D01*
X002586Y005371D01*
X002546Y005393D01*
X002508Y005417D01*
X002472Y005444D01*
X002437Y005474D01*
X002406Y005507D01*
X002376Y005542D01*
X002850Y006510D02*
X002897Y006508D01*
X002945Y006502D01*
X002991Y006493D01*
X003037Y006480D01*
X003081Y006464D01*
X003125Y006443D01*
X003166Y006420D01*
X003205Y006394D01*
X003242Y006364D01*
X003277Y006331D01*
X003309Y006296D01*
X003338Y006259D01*
X002850Y006510D02*
X002804Y006508D01*
X002758Y006503D01*
X002712Y006494D01*
X002667Y006482D01*
X002624Y006466D01*
X002582Y006447D01*
X002541Y006424D01*
X002502Y006399D01*
X002466Y006371D01*
X002431Y006340D01*
X002399Y006306D01*
X002370Y006270D01*
X002850Y005310D02*
X002895Y005312D01*
X002941Y005317D01*
X002985Y005325D01*
X003029Y005337D01*
X003072Y005353D01*
X003114Y005371D01*
X003154Y005393D01*
X003192Y005417D01*
X003228Y005444D01*
X003263Y005474D01*
X003294Y005507D01*
X003324Y005542D01*
X002850Y007560D02*
X002805Y007562D01*
X002759Y007567D01*
X002715Y007575D01*
X002671Y007587D01*
X002628Y007603D01*
X002586Y007621D01*
X002546Y007643D01*
X002508Y007667D01*
X002472Y007694D01*
X002437Y007724D01*
X002406Y007757D01*
X002376Y007792D01*
X002850Y008760D02*
X002897Y008758D01*
X002945Y008752D01*
X002991Y008743D01*
X003037Y008730D01*
X003081Y008714D01*
X003125Y008693D01*
X003166Y008670D01*
X003205Y008644D01*
X003242Y008614D01*
X003277Y008581D01*
X003309Y008546D01*
X003338Y008509D01*
X002850Y008760D02*
X002804Y008758D01*
X002758Y008753D01*
X002712Y008744D01*
X002667Y008732D01*
X002624Y008716D01*
X002582Y008697D01*
X002541Y008674D01*
X002502Y008649D01*
X002466Y008621D01*
X002431Y008590D01*
X002399Y008556D01*
X002370Y008520D01*
X002850Y007560D02*
X002895Y007562D01*
X002941Y007567D01*
X002985Y007575D01*
X003029Y007587D01*
X003072Y007603D01*
X003114Y007621D01*
X003154Y007643D01*
X003192Y007667D01*
X003228Y007694D01*
X003263Y007724D01*
X003294Y007757D01*
X003324Y007792D01*
X002370Y012520D02*
X002399Y012556D01*
X002431Y012590D01*
X002466Y012621D01*
X002502Y012649D01*
X002541Y012674D01*
X002582Y012697D01*
X002624Y012716D01*
X002667Y012732D01*
X002712Y012744D01*
X002758Y012753D01*
X002804Y012758D01*
X002850Y012760D01*
X002376Y011792D02*
X002406Y011757D01*
X002437Y011724D01*
X002472Y011694D01*
X002508Y011667D01*
X002546Y011643D01*
X002586Y011621D01*
X002628Y011603D01*
X002671Y011587D01*
X002715Y011575D01*
X002759Y011567D01*
X002805Y011562D01*
X002850Y011560D01*
X002895Y011562D01*
X002941Y011567D01*
X002985Y011575D01*
X003029Y011587D01*
X003072Y011603D01*
X003114Y011621D01*
X003154Y011643D01*
X003192Y011667D01*
X003228Y011694D01*
X003263Y011724D01*
X003294Y011757D01*
X003324Y011792D01*
X006000Y013810D02*
X007450Y013810D01*
X007450Y014510D02*
X006000Y014510D01*
X004594Y016297D02*
X004594Y016724D01*
X004807Y016510D02*
X004380Y016510D01*
D11*
X000600Y009910D02*
X000600Y003660D01*
X008850Y003660D01*
X008850Y009910D01*
X000600Y009910D01*
X000600Y011410D02*
X000600Y014785D01*
X008350Y014785D01*
X008350Y011410D01*
X000600Y011410D01*
X010100Y012660D02*
X010100Y009660D01*
X010100Y006660D01*
X010100Y003660D01*
X020100Y003660D01*
X020100Y006660D01*
X020100Y009660D01*
X020100Y012660D01*
X020100Y015660D01*
X010100Y015660D01*
X010100Y012660D01*
D12*
X020100Y012660D01*
X019350Y013410D02*
X018850Y013410D01*
X019100Y013660D02*
X019100Y013160D01*
X017850Y013410D02*
X017350Y013410D01*
X019100Y010660D02*
X019100Y010160D01*
X019350Y010410D02*
X018850Y010410D01*
X017850Y010410D02*
X017350Y010410D01*
X020100Y009660D02*
X010100Y009660D01*
X010100Y006660D02*
X020100Y006660D01*
X019350Y007410D02*
X018850Y007410D01*
X019100Y007660D02*
X019100Y007160D01*
X017850Y007410D02*
X017350Y007410D01*
X019100Y004660D02*
X019100Y004160D01*
X019350Y004410D02*
X018850Y004410D01*
X017850Y004410D02*
X017350Y004410D01*
D13*
X019370Y006007D02*
X019370Y006314D01*
X019447Y006391D01*
X019600Y006391D01*
X019677Y006314D01*
X019370Y006007D01*
X019447Y005930D01*
X019600Y005930D01*
X019677Y006007D01*
X019677Y006314D01*
X019648Y008930D02*
X019648Y009391D01*
X019495Y009237D01*
X019495Y008930D02*
X019802Y008930D01*
X019677Y011930D02*
X019370Y011930D01*
X019677Y012237D01*
X019677Y012314D01*
X019600Y012391D01*
X019447Y012391D01*
X019370Y012314D01*
X019447Y014805D02*
X019370Y014882D01*
X019447Y014805D02*
X019600Y014805D01*
X019677Y014882D01*
X019677Y014959D01*
X019600Y015035D01*
X019523Y015035D01*
X019600Y015035D02*
X019677Y015112D01*
X019677Y015189D01*
X019600Y015266D01*
X019447Y015266D01*
X019370Y015189D01*
X015890Y017005D02*
X015890Y017185D01*
X015830Y017245D01*
X015650Y017245D01*
X015650Y017005D01*
X015522Y017065D02*
X015522Y017305D01*
X015282Y017065D01*
X015342Y017005D01*
X015462Y017005D01*
X015522Y017065D01*
X015282Y017065D02*
X015282Y017305D01*
X015342Y017366D01*
X015462Y017366D01*
X015522Y017305D01*
X015154Y017305D02*
X015154Y017065D01*
X015093Y017005D01*
X014973Y017005D01*
X014913Y017065D01*
X015154Y017305D01*
X015093Y017366D01*
X014973Y017366D01*
X014913Y017305D01*
X014913Y017065D01*
X014785Y017005D02*
X014545Y017005D01*
X014665Y017005D02*
X014665Y017366D01*
X014545Y017245D01*
X001887Y007680D02*
X001580Y007680D01*
X001427Y007680D02*
X001427Y007987D01*
X001273Y008141D01*
X001120Y007987D01*
X001120Y007680D01*
X001120Y007910D02*
X001427Y007910D01*
X001580Y007987D02*
X001734Y008141D01*
X001734Y007680D01*
X001811Y005891D02*
X001887Y005814D01*
X001580Y005507D01*
X001657Y005430D01*
X001811Y005430D01*
X001887Y005507D01*
X001887Y005814D01*
X001811Y005891D02*
X001657Y005891D01*
X001580Y005814D01*
X001580Y005507D01*
X001427Y005430D02*
X001427Y005737D01*
X001273Y005891D01*
X001120Y005737D01*
X001120Y005430D01*
X001120Y005660D02*
X001427Y005660D01*
X004920Y002120D02*
X005040Y002241D01*
X005040Y001880D01*
X004920Y001880D02*
X005160Y001880D01*
X005288Y001940D02*
X005288Y002180D01*
X005348Y002241D01*
X005468Y002241D01*
X005529Y002180D01*
X005288Y001940D01*
X005348Y001880D01*
X005468Y001880D01*
X005529Y001940D01*
X005529Y002180D01*
X005657Y002180D02*
X005657Y001940D01*
X005897Y002180D01*
X005897Y001940D01*
X005837Y001880D01*
X005717Y001880D01*
X005657Y001940D01*
X005657Y002180D02*
X005717Y002241D01*
X005837Y002241D01*
X005897Y002180D01*
X006025Y002120D02*
X006025Y001880D01*
X006265Y001880D02*
X006265Y002060D01*
X006205Y002120D01*
X006025Y002120D01*
D14*
X005857Y004000D02*
X005733Y004000D01*
X005672Y004062D01*
X005919Y004309D01*
X005919Y004062D01*
X005857Y004000D01*
X005672Y004062D02*
X005672Y004309D01*
X005733Y004371D01*
X005857Y004371D01*
X005919Y004309D01*
X005550Y004309D02*
X005303Y004062D01*
X005303Y004000D01*
X005120Y004000D02*
X005120Y004371D01*
X004935Y004185D01*
X005182Y004185D01*
X005303Y004371D02*
X005550Y004371D01*
X005550Y004309D01*
X005550Y005000D02*
X005426Y005000D01*
X005365Y005062D01*
X005612Y005309D01*
X005612Y005062D01*
X005550Y005000D01*
X005733Y005000D02*
X005733Y005371D01*
X005612Y005309D02*
X005550Y005371D01*
X005426Y005371D01*
X005365Y005309D01*
X005365Y005062D01*
X005243Y005000D02*
X004996Y005000D01*
X005120Y005000D02*
X005120Y005371D01*
X004996Y005247D01*
X005733Y005124D02*
X005918Y005247D01*
X005733Y005124D02*
X005918Y005000D01*
X005918Y006000D02*
X005733Y006124D01*
X005918Y006247D01*
X005733Y006371D02*
X005733Y006000D01*
X005612Y006062D02*
X005550Y006000D01*
X005426Y006000D01*
X005365Y006062D01*
X005612Y006309D01*
X005612Y006062D01*
X005612Y006309D02*
X005550Y006371D01*
X005426Y006371D01*
X005365Y006309D01*
X005365Y006062D01*
X005243Y006000D02*
X004996Y006000D01*
X005120Y006000D02*
X005120Y006371D01*
X004996Y006247D01*
X005120Y007000D02*
X005120Y007371D01*
X004935Y007185D01*
X005182Y007185D01*
X005303Y007062D02*
X005303Y007000D01*
X005303Y007062D02*
X005550Y007309D01*
X005550Y007371D01*
X005303Y007371D01*
X005672Y007309D02*
X005672Y007062D01*
X005919Y007309D01*
X005919Y007062D01*
X005857Y007000D01*
X005733Y007000D01*
X005672Y007062D01*
X005672Y007309D02*
X005733Y007371D01*
X005857Y007371D01*
X005919Y007309D01*
X005918Y008000D02*
X005733Y008124D01*
X005918Y008247D01*
X005733Y008371D02*
X005733Y008000D01*
X005612Y008062D02*
X005550Y008000D01*
X005426Y008000D01*
X005365Y008062D01*
X005612Y008309D01*
X005612Y008062D01*
X005612Y008309D02*
X005550Y008371D01*
X005426Y008371D01*
X005365Y008309D01*
X005365Y008062D01*
X005243Y008000D02*
X004996Y008000D01*
X005120Y008000D02*
X005120Y008371D01*
X004996Y008247D01*
X004996Y009000D02*
X005243Y009000D01*
X005120Y009000D02*
X005120Y009371D01*
X004996Y009247D01*
X005365Y009309D02*
X005365Y009062D01*
X005612Y009309D01*
X005612Y009062D01*
X005550Y009000D01*
X005426Y009000D01*
X005365Y009062D01*
X005365Y009309D02*
X005426Y009371D01*
X005550Y009371D01*
X005612Y009309D01*
X005733Y009371D02*
X005733Y009000D01*
X005733Y009124D02*
X005918Y009247D01*
X005733Y009124D02*
X005918Y009000D01*
X002612Y012950D02*
X002488Y012950D01*
X002427Y013012D01*
X002674Y013259D01*
X002674Y013012D01*
X002612Y012950D01*
X002427Y013012D02*
X002427Y013259D01*
X002488Y013321D01*
X002612Y013321D01*
X002674Y013259D01*
X002305Y013259D02*
X002305Y013321D01*
X002058Y013321D01*
X001875Y013321D02*
X001690Y013135D01*
X001937Y013135D01*
X002058Y013012D02*
X002058Y012950D01*
X002058Y013012D02*
X002305Y013259D01*
X001875Y013321D02*
X001875Y012950D01*
X003496Y014000D02*
X003743Y014000D01*
X003620Y014000D02*
X003620Y014371D01*
X003496Y014247D01*
X003865Y014309D02*
X003865Y014062D01*
X004112Y014309D01*
X004112Y014062D01*
X004050Y014000D01*
X003926Y014000D01*
X003865Y014062D01*
X003865Y014309D02*
X003926Y014371D01*
X004050Y014371D01*
X004112Y014309D01*
X004233Y014371D02*
X004233Y014000D01*
X004233Y014124D02*
X004418Y014247D01*
X004233Y014124D02*
X004418Y014000D01*
X006371Y014000D02*
X006618Y014000D01*
X006495Y014000D02*
X006495Y014371D01*
X006371Y014247D01*
X006740Y014309D02*
X006740Y014062D01*
X006987Y014309D01*
X006987Y014062D01*
X006925Y014000D01*
X006801Y014000D01*
X006740Y014062D01*
X006740Y014309D02*
X006801Y014371D01*
X006925Y014371D01*
X006987Y014309D01*
X007108Y014371D02*
X007108Y014000D01*
X007108Y014124D02*
X007293Y014247D01*
X007108Y014124D02*
X007293Y014000D01*
X013690Y013930D02*
X013690Y014054D01*
X013751Y014115D01*
X013998Y013869D01*
X014060Y013930D01*
X014060Y014054D01*
X013998Y014115D01*
X013751Y014115D01*
X013690Y014237D02*
X014060Y014237D01*
X013937Y014237D02*
X013813Y014422D01*
X013937Y014237D02*
X014060Y014422D01*
X014390Y014360D02*
X014390Y014114D01*
X014390Y013930D02*
X014575Y013745D01*
X014575Y013992D01*
X014698Y014114D02*
X014760Y014114D01*
X014698Y014114D02*
X014451Y014360D01*
X014390Y014360D01*
X014451Y014482D02*
X014390Y014544D01*
X014390Y014667D01*
X014451Y014729D01*
X014698Y014482D01*
X014760Y014544D01*
X014760Y014667D01*
X014698Y014729D01*
X014451Y014729D01*
X014451Y014482D02*
X014698Y014482D01*
X015140Y014543D02*
X015510Y014543D01*
X015387Y014543D02*
X015263Y014728D01*
X015387Y014543D02*
X015510Y014728D01*
X015448Y014422D02*
X015201Y014422D01*
X015448Y014175D01*
X015510Y014237D01*
X015510Y014360D01*
X015448Y014422D01*
X015201Y014422D02*
X015140Y014360D01*
X015140Y014237D01*
X015201Y014175D01*
X015448Y014175D01*
X015510Y014054D02*
X015510Y013807D01*
X015510Y013930D02*
X015140Y013930D01*
X015263Y013807D01*
X014760Y013930D02*
X014390Y013930D01*
X014060Y013747D02*
X014060Y013500D01*
X014060Y013624D02*
X013690Y013624D01*
X013813Y013500D01*
X013751Y013869D02*
X013690Y013930D01*
X013751Y013869D02*
X013998Y013869D01*
X014451Y011729D02*
X014698Y011482D01*
X014760Y011544D01*
X014760Y011667D01*
X014698Y011729D01*
X014451Y011729D01*
X014390Y011667D01*
X014390Y011544D01*
X014451Y011482D01*
X014698Y011482D01*
X014451Y011360D02*
X014698Y011114D01*
X014760Y011114D01*
X014760Y010930D02*
X014390Y010930D01*
X014575Y010745D01*
X014575Y010992D01*
X014390Y011114D02*
X014390Y011360D01*
X014451Y011360D01*
X014060Y011422D02*
X013937Y011237D01*
X013813Y011422D01*
X013690Y011237D02*
X014060Y011237D01*
X013998Y011115D02*
X013751Y011115D01*
X013998Y010869D01*
X014060Y010930D01*
X014060Y011054D01*
X013998Y011115D01*
X013998Y010869D02*
X013751Y010869D01*
X013690Y010930D01*
X013690Y011054D01*
X013751Y011115D01*
X014060Y010747D02*
X014060Y010500D01*
X014060Y010624D02*
X013690Y010624D01*
X013813Y010500D01*
X015140Y010930D02*
X015263Y010807D01*
X015140Y010930D02*
X015510Y010930D01*
X015510Y010807D02*
X015510Y011054D01*
X015448Y011175D02*
X015201Y011422D01*
X015448Y011422D01*
X015510Y011360D01*
X015510Y011237D01*
X015448Y011175D01*
X015201Y011175D01*
X015140Y011237D01*
X015140Y011360D01*
X015201Y011422D01*
X015140Y011543D02*
X015510Y011543D01*
X015387Y011543D02*
X015263Y011728D01*
X015387Y011543D02*
X015510Y011728D01*
X015510Y008728D02*
X015387Y008543D01*
X015263Y008728D01*
X015140Y008543D02*
X015510Y008543D01*
X015448Y008422D02*
X015510Y008360D01*
X015510Y008237D01*
X015448Y008175D01*
X015201Y008422D01*
X015448Y008422D01*
X015201Y008422D02*
X015140Y008360D01*
X015140Y008237D01*
X015201Y008175D01*
X015448Y008175D01*
X015510Y008054D02*
X015510Y007807D01*
X015510Y007930D02*
X015140Y007930D01*
X015263Y007807D01*
X014760Y007930D02*
X014390Y007930D01*
X014575Y007745D01*
X014575Y007992D01*
X014698Y008114D02*
X014760Y008114D01*
X014698Y008114D02*
X014451Y008360D01*
X014390Y008360D01*
X014390Y008114D01*
X014060Y008054D02*
X014060Y007930D01*
X013998Y007869D01*
X013751Y008115D01*
X013998Y008115D01*
X014060Y008054D01*
X014060Y008237D02*
X013690Y008237D01*
X013751Y008115D02*
X013690Y008054D01*
X013690Y007930D01*
X013751Y007869D01*
X013998Y007869D01*
X014060Y007747D02*
X014060Y007500D01*
X014060Y007624D02*
X013690Y007624D01*
X013813Y007500D01*
X013937Y008237D02*
X013813Y008422D01*
X013937Y008237D02*
X014060Y008422D01*
X014390Y008544D02*
X014390Y008667D01*
X014451Y008729D01*
X014698Y008482D01*
X014760Y008544D01*
X014760Y008667D01*
X014698Y008729D01*
X014451Y008729D01*
X014390Y008544D02*
X014451Y008482D01*
X014698Y008482D01*
X014698Y005729D02*
X014451Y005729D01*
X014698Y005482D01*
X014760Y005544D01*
X014760Y005667D01*
X014698Y005729D01*
X014698Y005482D02*
X014451Y005482D01*
X014390Y005544D01*
X014390Y005667D01*
X014451Y005729D01*
X014451Y005360D02*
X014698Y005114D01*
X014760Y005114D01*
X014760Y004930D02*
X014390Y004930D01*
X014575Y004745D01*
X014575Y004992D01*
X014390Y005114D02*
X014390Y005360D01*
X014451Y005360D01*
X014060Y005422D02*
X013937Y005237D01*
X013813Y005422D01*
X013690Y005237D02*
X014060Y005237D01*
X013998Y005115D02*
X013751Y005115D01*
X013998Y004869D01*
X014060Y004930D01*
X014060Y005054D01*
X013998Y005115D01*
X013998Y004869D02*
X013751Y004869D01*
X013690Y004930D01*
X013690Y005054D01*
X013751Y005115D01*
X014060Y004747D02*
X014060Y004500D01*
X014060Y004624D02*
X013690Y004624D01*
X013813Y004500D01*
X015140Y004930D02*
X015263Y004807D01*
X015140Y004930D02*
X015510Y004930D01*
X015510Y004807D02*
X015510Y005054D01*
X015448Y005175D02*
X015201Y005422D01*
X015448Y005422D01*
X015510Y005360D01*
X015510Y005237D01*
X015448Y005175D01*
X015201Y005175D01*
X015140Y005237D01*
X015140Y005360D01*
X015201Y005422D01*
X015140Y005543D02*
X015510Y005543D01*
X015387Y005543D02*
X015263Y005728D01*
X015387Y005543D02*
X015510Y005728D01*
X015197Y001921D02*
X015197Y001550D01*
X014950Y001921D01*
X014950Y001550D01*
X015318Y001612D02*
X015318Y001735D01*
X015380Y001797D01*
X015503Y001797D01*
X015565Y001735D01*
X015565Y001674D01*
X015318Y001674D01*
X015318Y001612D02*
X015380Y001550D01*
X015503Y001550D01*
X015687Y001612D02*
X015687Y001797D01*
X015687Y001612D02*
X015748Y001550D01*
X015810Y001612D01*
X015872Y001550D01*
X015933Y001612D01*
X015933Y001797D01*
X016055Y001797D02*
X016055Y001550D01*
X016178Y001550D02*
X016178Y001735D01*
X016240Y001797D01*
X016302Y001735D01*
X016302Y001550D01*
X016423Y001612D02*
X016485Y001674D01*
X016670Y001674D01*
X016670Y001735D02*
X016670Y001550D01*
X016485Y001550D01*
X016423Y001612D01*
X016485Y001797D02*
X016608Y001797D01*
X016670Y001735D01*
X016791Y001797D02*
X016791Y001550D01*
X016791Y001797D02*
X016977Y001797D01*
X017038Y001735D01*
X017038Y001550D01*
X016178Y001735D02*
X016117Y001797D01*
X016055Y001797D01*
X014460Y001797D02*
X014275Y001797D01*
X014213Y001735D01*
X014275Y001674D01*
X014398Y001674D01*
X014460Y001612D01*
X014398Y001550D01*
X014213Y001550D01*
X014092Y001674D02*
X013845Y001674D01*
X013845Y001735D02*
X013845Y001612D01*
X013907Y001550D01*
X014030Y001550D01*
X014092Y001674D02*
X014092Y001735D01*
X014030Y001797D01*
X013907Y001797D01*
X013845Y001735D01*
X013724Y001735D02*
X013724Y001550D01*
X013600Y001550D02*
X013600Y001735D01*
X013662Y001797D01*
X013724Y001735D01*
X013600Y001735D02*
X013538Y001797D01*
X013477Y001797D01*
X013477Y001550D01*
X013355Y001550D02*
X013355Y001735D01*
X013293Y001797D01*
X013170Y001797D01*
X013170Y001674D02*
X013355Y001674D01*
X013355Y001550D02*
X013170Y001550D01*
X013108Y001612D01*
X013170Y001674D01*
X012925Y001612D02*
X012925Y001921D01*
X012863Y001921D02*
X012987Y001921D01*
X012925Y001612D02*
X012863Y001550D01*
X012802Y001550D01*
X012740Y001612D01*
D15*
X012100Y003660D02*
X012100Y004260D01*
X012100Y003660D02*
X010100Y003660D01*
X010100Y004260D01*
X010114Y004321D01*
X010132Y004380D01*
X010153Y004439D01*
X010178Y004496D01*
X010206Y004551D01*
X010238Y004605D01*
X010273Y004657D01*
X010311Y004706D01*
X010351Y004753D01*
X010395Y004797D01*
X010441Y004839D01*
X010490Y004878D01*
X010541Y004913D01*
X010594Y004946D01*
X010649Y004975D01*
X010706Y005001D01*
X010764Y005023D01*
X010823Y005042D01*
X010884Y005057D01*
X010945Y005068D01*
X011007Y005076D01*
X011069Y005080D01*
X011131Y005080D01*
X011193Y005076D01*
X011255Y005068D01*
X011316Y005057D01*
X011377Y005042D01*
X011436Y005023D01*
X011494Y005001D01*
X011551Y004975D01*
X011606Y004946D01*
X011659Y004913D01*
X011710Y004878D01*
X011759Y004839D01*
X011805Y004797D01*
X011849Y004753D01*
X011889Y004706D01*
X011927Y004657D01*
X011962Y004605D01*
X011994Y004551D01*
X012022Y004496D01*
X012047Y004439D01*
X012068Y004380D01*
X012086Y004321D01*
X012100Y004260D01*
X012750Y004160D02*
X013350Y004160D01*
X013350Y006160D01*
X012750Y006160D01*
X012100Y006060D02*
X012100Y006660D01*
X010100Y006660D01*
X010100Y006060D01*
X010100Y006660D02*
X010100Y007260D01*
X010100Y006660D02*
X012100Y006660D01*
X012100Y007260D01*
X012625Y007160D02*
X013225Y007160D01*
X013225Y009160D01*
X012625Y009160D01*
X012100Y009060D02*
X012100Y009660D01*
X010100Y009660D01*
X010100Y009060D01*
X010100Y009660D02*
X010100Y010260D01*
X010100Y009660D02*
X012100Y009660D01*
X012100Y010260D01*
X012750Y010160D02*
X013350Y010160D01*
X013350Y012160D01*
X012750Y012160D01*
X012100Y012060D02*
X012100Y012660D01*
X010100Y012660D01*
X010100Y012060D01*
X010100Y012660D02*
X010100Y013260D01*
X010100Y012660D02*
X012100Y012660D01*
X012100Y013260D01*
X012750Y013160D02*
X013350Y013160D01*
X013350Y015160D01*
X012750Y015160D01*
X012100Y015060D02*
X012100Y015660D01*
X010100Y015660D01*
X010100Y015060D01*
X010114Y014999D01*
X010132Y014940D01*
X010153Y014881D01*
X010178Y014824D01*
X010206Y014769D01*
X010238Y014715D01*
X010273Y014663D01*
X010311Y014614D01*
X010351Y014567D01*
X010395Y014523D01*
X010441Y014481D01*
X010490Y014442D01*
X010541Y014407D01*
X010594Y014374D01*
X010649Y014345D01*
X010706Y014319D01*
X010764Y014297D01*
X010823Y014278D01*
X010884Y014263D01*
X010945Y014252D01*
X011007Y014244D01*
X011069Y014240D01*
X011131Y014240D01*
X011193Y014244D01*
X011255Y014252D01*
X011316Y014263D01*
X011377Y014278D01*
X011436Y014297D01*
X011494Y014319D01*
X011551Y014345D01*
X011606Y014374D01*
X011659Y014407D01*
X011710Y014442D01*
X011759Y014481D01*
X011805Y014523D01*
X011849Y014567D01*
X011889Y014614D01*
X011927Y014663D01*
X011962Y014715D01*
X011994Y014769D01*
X012022Y014824D01*
X012047Y014881D01*
X012068Y014940D01*
X012086Y014999D01*
X012100Y015060D01*
X012750Y015160D02*
X012689Y015146D01*
X012630Y015128D01*
X012571Y015107D01*
X012514Y015082D01*
X012459Y015054D01*
X012405Y015022D01*
X012353Y014987D01*
X012304Y014949D01*
X012257Y014909D01*
X012213Y014865D01*
X012171Y014819D01*
X012132Y014770D01*
X012097Y014719D01*
X012064Y014666D01*
X012035Y014611D01*
X012009Y014554D01*
X011987Y014496D01*
X011968Y014437D01*
X011953Y014376D01*
X011942Y014315D01*
X011934Y014253D01*
X011930Y014191D01*
X011930Y014129D01*
X011934Y014067D01*
X011942Y014005D01*
X011953Y013944D01*
X011968Y013883D01*
X011987Y013824D01*
X012009Y013766D01*
X012035Y013709D01*
X012064Y013654D01*
X012097Y013601D01*
X012132Y013550D01*
X012171Y013501D01*
X012213Y013455D01*
X012257Y013411D01*
X012304Y013371D01*
X012353Y013333D01*
X012405Y013298D01*
X012459Y013266D01*
X012514Y013238D01*
X012571Y013213D01*
X012630Y013192D01*
X012689Y013174D01*
X012750Y013160D01*
X012100Y013260D02*
X012086Y013321D01*
X012068Y013380D01*
X012047Y013439D01*
X012022Y013496D01*
X011994Y013551D01*
X011962Y013605D01*
X011927Y013657D01*
X011889Y013706D01*
X011849Y013753D01*
X011805Y013797D01*
X011759Y013839D01*
X011710Y013878D01*
X011659Y013913D01*
X011606Y013946D01*
X011551Y013975D01*
X011494Y014001D01*
X011436Y014023D01*
X011377Y014042D01*
X011316Y014057D01*
X011255Y014068D01*
X011193Y014076D01*
X011131Y014080D01*
X011069Y014080D01*
X011007Y014076D01*
X010945Y014068D01*
X010884Y014057D01*
X010823Y014042D01*
X010764Y014023D01*
X010706Y014001D01*
X010649Y013975D01*
X010594Y013946D01*
X010541Y013913D01*
X010490Y013878D01*
X010441Y013839D01*
X010395Y013797D01*
X010351Y013753D01*
X010311Y013706D01*
X010273Y013657D01*
X010238Y013605D01*
X010206Y013551D01*
X010178Y013496D01*
X010153Y013439D01*
X010132Y013380D01*
X010114Y013321D01*
X010100Y013260D01*
X010100Y012060D02*
X010114Y011999D01*
X010132Y011940D01*
X010153Y011881D01*
X010178Y011824D01*
X010206Y011769D01*
X010238Y011715D01*
X010273Y011663D01*
X010311Y011614D01*
X010351Y011567D01*
X010395Y011523D01*
X010441Y011481D01*
X010490Y011442D01*
X010541Y011407D01*
X010594Y011374D01*
X010649Y011345D01*
X010706Y011319D01*
X010764Y011297D01*
X010823Y011278D01*
X010884Y011263D01*
X010945Y011252D01*
X011007Y011244D01*
X011069Y011240D01*
X011131Y011240D01*
X011193Y011244D01*
X011255Y011252D01*
X011316Y011263D01*
X011377Y011278D01*
X011436Y011297D01*
X011494Y011319D01*
X011551Y011345D01*
X011606Y011374D01*
X011659Y011407D01*
X011710Y011442D01*
X011759Y011481D01*
X011805Y011523D01*
X011849Y011567D01*
X011889Y011614D01*
X011927Y011663D01*
X011962Y011715D01*
X011994Y011769D01*
X012022Y011824D01*
X012047Y011881D01*
X012068Y011940D01*
X012086Y011999D01*
X012100Y012060D01*
X012750Y012160D02*
X012689Y012146D01*
X012630Y012128D01*
X012571Y012107D01*
X012514Y012082D01*
X012459Y012054D01*
X012405Y012022D01*
X012353Y011987D01*
X012304Y011949D01*
X012257Y011909D01*
X012213Y011865D01*
X012171Y011819D01*
X012132Y011770D01*
X012097Y011719D01*
X012064Y011666D01*
X012035Y011611D01*
X012009Y011554D01*
X011987Y011496D01*
X011968Y011437D01*
X011953Y011376D01*
X011942Y011315D01*
X011934Y011253D01*
X011930Y011191D01*
X011930Y011129D01*
X011934Y011067D01*
X011942Y011005D01*
X011953Y010944D01*
X011968Y010883D01*
X011987Y010824D01*
X012009Y010766D01*
X012035Y010709D01*
X012064Y010654D01*
X012097Y010601D01*
X012132Y010550D01*
X012171Y010501D01*
X012213Y010455D01*
X012257Y010411D01*
X012304Y010371D01*
X012353Y010333D01*
X012405Y010298D01*
X012459Y010266D01*
X012514Y010238D01*
X012571Y010213D01*
X012630Y010192D01*
X012689Y010174D01*
X012750Y010160D01*
X012100Y010260D02*
X012086Y010321D01*
X012068Y010380D01*
X012047Y010439D01*
X012022Y010496D01*
X011994Y010551D01*
X011962Y010605D01*
X011927Y010657D01*
X011889Y010706D01*
X011849Y010753D01*
X011805Y010797D01*
X011759Y010839D01*
X011710Y010878D01*
X011659Y010913D01*
X011606Y010946D01*
X011551Y010975D01*
X011494Y011001D01*
X011436Y011023D01*
X011377Y011042D01*
X011316Y011057D01*
X011255Y011068D01*
X011193Y011076D01*
X011131Y011080D01*
X011069Y011080D01*
X011007Y011076D01*
X010945Y011068D01*
X010884Y011057D01*
X010823Y011042D01*
X010764Y011023D01*
X010706Y011001D01*
X010649Y010975D01*
X010594Y010946D01*
X010541Y010913D01*
X010490Y010878D01*
X010441Y010839D01*
X010395Y010797D01*
X010351Y010753D01*
X010311Y010706D01*
X010273Y010657D01*
X010238Y010605D01*
X010206Y010551D01*
X010178Y010496D01*
X010153Y010439D01*
X010132Y010380D01*
X010114Y010321D01*
X010100Y010260D01*
X010100Y009060D02*
X010114Y008999D01*
X010132Y008940D01*
X010153Y008881D01*
X010178Y008824D01*
X010206Y008769D01*
X010238Y008715D01*
X010273Y008663D01*
X010311Y008614D01*
X010351Y008567D01*
X010395Y008523D01*
X010441Y008481D01*
X010490Y008442D01*
X010541Y008407D01*
X010594Y008374D01*
X010649Y008345D01*
X010706Y008319D01*
X010764Y008297D01*
X010823Y008278D01*
X010884Y008263D01*
X010945Y008252D01*
X011007Y008244D01*
X011069Y008240D01*
X011131Y008240D01*
X011193Y008244D01*
X011255Y008252D01*
X011316Y008263D01*
X011377Y008278D01*
X011436Y008297D01*
X011494Y008319D01*
X011551Y008345D01*
X011606Y008374D01*
X011659Y008407D01*
X011710Y008442D01*
X011759Y008481D01*
X011805Y008523D01*
X011849Y008567D01*
X011889Y008614D01*
X011927Y008663D01*
X011962Y008715D01*
X011994Y008769D01*
X012022Y008824D01*
X012047Y008881D01*
X012068Y008940D01*
X012086Y008999D01*
X012100Y009060D01*
X012625Y009160D02*
X012564Y009146D01*
X012505Y009128D01*
X012446Y009107D01*
X012389Y009082D01*
X012334Y009054D01*
X012280Y009022D01*
X012228Y008987D01*
X012179Y008949D01*
X012132Y008909D01*
X012088Y008865D01*
X012046Y008819D01*
X012007Y008770D01*
X011972Y008719D01*
X011939Y008666D01*
X011910Y008611D01*
X011884Y008554D01*
X011862Y008496D01*
X011843Y008437D01*
X011828Y008376D01*
X011817Y008315D01*
X011809Y008253D01*
X011805Y008191D01*
X011805Y008129D01*
X011809Y008067D01*
X011817Y008005D01*
X011828Y007944D01*
X011843Y007883D01*
X011862Y007824D01*
X011884Y007766D01*
X011910Y007709D01*
X011939Y007654D01*
X011972Y007601D01*
X012007Y007550D01*
X012046Y007501D01*
X012088Y007455D01*
X012132Y007411D01*
X012179Y007371D01*
X012228Y007333D01*
X012280Y007298D01*
X012334Y007266D01*
X012389Y007238D01*
X012446Y007213D01*
X012505Y007192D01*
X012564Y007174D01*
X012625Y007160D01*
X012100Y007260D02*
X012086Y007321D01*
X012068Y007380D01*
X012047Y007439D01*
X012022Y007496D01*
X011994Y007551D01*
X011962Y007605D01*
X011927Y007657D01*
X011889Y007706D01*
X011849Y007753D01*
X011805Y007797D01*
X011759Y007839D01*
X011710Y007878D01*
X011659Y007913D01*
X011606Y007946D01*
X011551Y007975D01*
X011494Y008001D01*
X011436Y008023D01*
X011377Y008042D01*
X011316Y008057D01*
X011255Y008068D01*
X011193Y008076D01*
X011131Y008080D01*
X011069Y008080D01*
X011007Y008076D01*
X010945Y008068D01*
X010884Y008057D01*
X010823Y008042D01*
X010764Y008023D01*
X010706Y008001D01*
X010649Y007975D01*
X010594Y007946D01*
X010541Y007913D01*
X010490Y007878D01*
X010441Y007839D01*
X010395Y007797D01*
X010351Y007753D01*
X010311Y007706D01*
X010273Y007657D01*
X010238Y007605D01*
X010206Y007551D01*
X010178Y007496D01*
X010153Y007439D01*
X010132Y007380D01*
X010114Y007321D01*
X010100Y007260D01*
X010100Y006060D02*
X010114Y005999D01*
X010132Y005940D01*
X010153Y005881D01*
X010178Y005824D01*
X010206Y005769D01*
X010238Y005715D01*
X010273Y005663D01*
X010311Y005614D01*
X010351Y005567D01*
X010395Y005523D01*
X010441Y005481D01*
X010490Y005442D01*
X010541Y005407D01*
X010594Y005374D01*
X010649Y005345D01*
X010706Y005319D01*
X010764Y005297D01*
X010823Y005278D01*
X010884Y005263D01*
X010945Y005252D01*
X011007Y005244D01*
X011069Y005240D01*
X011131Y005240D01*
X011193Y005244D01*
X011255Y005252D01*
X011316Y005263D01*
X011377Y005278D01*
X011436Y005297D01*
X011494Y005319D01*
X011551Y005345D01*
X011606Y005374D01*
X011659Y005407D01*
X011710Y005442D01*
X011759Y005481D01*
X011805Y005523D01*
X011849Y005567D01*
X011889Y005614D01*
X011927Y005663D01*
X011962Y005715D01*
X011994Y005769D01*
X012022Y005824D01*
X012047Y005881D01*
X012068Y005940D01*
X012086Y005999D01*
X012100Y006060D01*
X012750Y006160D02*
X012689Y006146D01*
X012630Y006128D01*
X012571Y006107D01*
X012514Y006082D01*
X012459Y006054D01*
X012405Y006022D01*
X012353Y005987D01*
X012304Y005949D01*
X012257Y005909D01*
X012213Y005865D01*
X012171Y005819D01*
X012132Y005770D01*
X012097Y005719D01*
X012064Y005666D01*
X012035Y005611D01*
X012009Y005554D01*
X011987Y005496D01*
X011968Y005437D01*
X011953Y005376D01*
X011942Y005315D01*
X011934Y005253D01*
X011930Y005191D01*
X011930Y005129D01*
X011934Y005067D01*
X011942Y005005D01*
X011953Y004944D01*
X011968Y004883D01*
X011987Y004824D01*
X012009Y004766D01*
X012035Y004709D01*
X012064Y004654D01*
X012097Y004601D01*
X012132Y004550D01*
X012171Y004501D01*
X012213Y004455D01*
X012257Y004411D01*
X012304Y004371D01*
X012353Y004333D01*
X012405Y004298D01*
X012459Y004266D01*
X012514Y004238D01*
X012571Y004213D01*
X012630Y004192D01*
X012689Y004174D01*
X012750Y004160D01*
X008850Y004560D02*
X008850Y005160D01*
X006850Y005160D01*
X006850Y004560D01*
X006864Y004499D01*
X006882Y004440D01*
X006903Y004381D01*
X006928Y004324D01*
X006956Y004269D01*
X006988Y004215D01*
X007023Y004163D01*
X007061Y004114D01*
X007101Y004067D01*
X007145Y004023D01*
X007191Y003981D01*
X007240Y003942D01*
X007291Y003907D01*
X007344Y003874D01*
X007399Y003845D01*
X007456Y003819D01*
X007514Y003797D01*
X007573Y003778D01*
X007634Y003763D01*
X007695Y003752D01*
X007757Y003744D01*
X007819Y003740D01*
X007881Y003740D01*
X007943Y003744D01*
X008005Y003752D01*
X008066Y003763D01*
X008127Y003778D01*
X008186Y003797D01*
X008244Y003819D01*
X008301Y003845D01*
X008356Y003874D01*
X008409Y003907D01*
X008460Y003942D01*
X008509Y003981D01*
X008555Y004023D01*
X008599Y004067D01*
X008639Y004114D01*
X008677Y004163D01*
X008712Y004215D01*
X008744Y004269D01*
X008772Y004324D01*
X008797Y004381D01*
X008818Y004440D01*
X008836Y004499D01*
X008850Y004560D01*
X008850Y006060D02*
X008850Y006660D01*
X006850Y006660D01*
X006850Y006060D01*
X006864Y005999D01*
X006882Y005940D01*
X006903Y005881D01*
X006928Y005824D01*
X006956Y005769D01*
X006988Y005715D01*
X007023Y005663D01*
X007061Y005614D01*
X007101Y005567D01*
X007145Y005523D01*
X007191Y005481D01*
X007240Y005442D01*
X007291Y005407D01*
X007344Y005374D01*
X007399Y005345D01*
X007456Y005319D01*
X007514Y005297D01*
X007573Y005278D01*
X007634Y005263D01*
X007695Y005252D01*
X007757Y005244D01*
X007819Y005240D01*
X007881Y005240D01*
X007943Y005244D01*
X008005Y005252D01*
X008066Y005263D01*
X008127Y005278D01*
X008186Y005297D01*
X008244Y005319D01*
X008301Y005345D01*
X008356Y005374D01*
X008409Y005407D01*
X008460Y005442D01*
X008509Y005481D01*
X008555Y005523D01*
X008599Y005567D01*
X008639Y005614D01*
X008677Y005663D01*
X008712Y005715D01*
X008744Y005769D01*
X008772Y005824D01*
X008797Y005881D01*
X008818Y005940D01*
X008836Y005999D01*
X008850Y006060D01*
X008850Y007560D02*
X008850Y008160D01*
X006850Y008160D01*
X006850Y007560D01*
X006864Y007499D01*
X006882Y007440D01*
X006903Y007381D01*
X006928Y007324D01*
X006956Y007269D01*
X006988Y007215D01*
X007023Y007163D01*
X007061Y007114D01*
X007101Y007067D01*
X007145Y007023D01*
X007191Y006981D01*
X007240Y006942D01*
X007291Y006907D01*
X007344Y006874D01*
X007399Y006845D01*
X007456Y006819D01*
X007514Y006797D01*
X007573Y006778D01*
X007634Y006763D01*
X007695Y006752D01*
X007757Y006744D01*
X007819Y006740D01*
X007881Y006740D01*
X007943Y006744D01*
X008005Y006752D01*
X008066Y006763D01*
X008127Y006778D01*
X008186Y006797D01*
X008244Y006819D01*
X008301Y006845D01*
X008356Y006874D01*
X008409Y006907D01*
X008460Y006942D01*
X008509Y006981D01*
X008555Y007023D01*
X008599Y007067D01*
X008639Y007114D01*
X008677Y007163D01*
X008712Y007215D01*
X008744Y007269D01*
X008772Y007324D01*
X008797Y007381D01*
X008818Y007440D01*
X008836Y007499D01*
X008850Y007560D01*
X008850Y009060D02*
X008850Y009660D01*
X006850Y009660D01*
X006850Y009060D01*
X006864Y008999D01*
X006882Y008940D01*
X006903Y008881D01*
X006928Y008824D01*
X006956Y008769D01*
X006988Y008715D01*
X007023Y008663D01*
X007061Y008614D01*
X007101Y008567D01*
X007145Y008523D01*
X007191Y008481D01*
X007240Y008442D01*
X007291Y008407D01*
X007344Y008374D01*
X007399Y008345D01*
X007456Y008319D01*
X007514Y008297D01*
X007573Y008278D01*
X007634Y008263D01*
X007695Y008252D01*
X007757Y008244D01*
X007819Y008240D01*
X007881Y008240D01*
X007943Y008244D01*
X008005Y008252D01*
X008066Y008263D01*
X008127Y008278D01*
X008186Y008297D01*
X008244Y008319D01*
X008301Y008345D01*
X008356Y008374D01*
X008409Y008407D01*
X008460Y008442D01*
X008509Y008481D01*
X008555Y008523D01*
X008599Y008567D01*
X008639Y008614D01*
X008677Y008663D01*
X008712Y008715D01*
X008744Y008769D01*
X008772Y008824D01*
X008797Y008881D01*
X008818Y008940D01*
X008836Y008999D01*
X008850Y009060D01*
X008100Y011660D02*
X007500Y011660D01*
X008100Y011660D02*
X008100Y013660D01*
X007500Y013660D01*
X006600Y013660D02*
X006000Y013660D01*
X006600Y013660D02*
X006600Y011660D01*
X006000Y011660D01*
X005100Y011660D02*
X004500Y011660D01*
X005100Y011660D02*
X005100Y013660D01*
X004500Y013660D01*
X004439Y013646D01*
X004380Y013628D01*
X004321Y013607D01*
X004264Y013582D01*
X004209Y013554D01*
X004155Y013522D01*
X004103Y013487D01*
X004054Y013449D01*
X004007Y013409D01*
X003963Y013365D01*
X003921Y013319D01*
X003882Y013270D01*
X003847Y013219D01*
X003814Y013166D01*
X003785Y013111D01*
X003759Y013054D01*
X003737Y012996D01*
X003718Y012937D01*
X003703Y012876D01*
X003692Y012815D01*
X003684Y012753D01*
X003680Y012691D01*
X003680Y012629D01*
X003684Y012567D01*
X003692Y012505D01*
X003703Y012444D01*
X003718Y012383D01*
X003737Y012324D01*
X003759Y012266D01*
X003785Y012209D01*
X003814Y012154D01*
X003847Y012101D01*
X003882Y012050D01*
X003921Y012001D01*
X003963Y011955D01*
X004007Y011911D01*
X004054Y011871D01*
X004103Y011833D01*
X004155Y011798D01*
X004209Y011766D01*
X004264Y011738D01*
X004321Y011713D01*
X004380Y011692D01*
X004439Y011674D01*
X004500Y011660D01*
X006000Y011660D02*
X005939Y011674D01*
X005880Y011692D01*
X005821Y011713D01*
X005764Y011738D01*
X005709Y011766D01*
X005655Y011798D01*
X005603Y011833D01*
X005554Y011871D01*
X005507Y011911D01*
X005463Y011955D01*
X005421Y012001D01*
X005382Y012050D01*
X005347Y012101D01*
X005314Y012154D01*
X005285Y012209D01*
X005259Y012266D01*
X005237Y012324D01*
X005218Y012383D01*
X005203Y012444D01*
X005192Y012505D01*
X005184Y012567D01*
X005180Y012629D01*
X005180Y012691D01*
X005184Y012753D01*
X005192Y012815D01*
X005203Y012876D01*
X005218Y012937D01*
X005237Y012996D01*
X005259Y013054D01*
X005285Y013111D01*
X005314Y013166D01*
X005347Y013219D01*
X005382Y013270D01*
X005421Y013319D01*
X005463Y013365D01*
X005507Y013409D01*
X005554Y013449D01*
X005603Y013487D01*
X005655Y013522D01*
X005709Y013554D01*
X005764Y013582D01*
X005821Y013607D01*
X005880Y013628D01*
X005939Y013646D01*
X006000Y013660D01*
X007500Y013660D02*
X007439Y013646D01*
X007380Y013628D01*
X007321Y013607D01*
X007264Y013582D01*
X007209Y013554D01*
X007155Y013522D01*
X007103Y013487D01*
X007054Y013449D01*
X007007Y013409D01*
X006963Y013365D01*
X006921Y013319D01*
X006882Y013270D01*
X006847Y013219D01*
X006814Y013166D01*
X006785Y013111D01*
X006759Y013054D01*
X006737Y012996D01*
X006718Y012937D01*
X006703Y012876D01*
X006692Y012815D01*
X006684Y012753D01*
X006680Y012691D01*
X006680Y012629D01*
X006684Y012567D01*
X006692Y012505D01*
X006703Y012444D01*
X006718Y012383D01*
X006737Y012324D01*
X006759Y012266D01*
X006785Y012209D01*
X006814Y012154D01*
X006847Y012101D01*
X006882Y012050D01*
X006921Y012001D01*
X006963Y011955D01*
X007007Y011911D01*
X007054Y011871D01*
X007103Y011833D01*
X007155Y011798D01*
X007209Y011766D01*
X007264Y011738D01*
X007321Y011713D01*
X007380Y011692D01*
X007439Y011674D01*
X007500Y011660D01*
D16*
X002225Y012560D02*
X001775Y012560D01*
X002000Y012335D02*
X002000Y012785D01*
X002000Y008785D02*
X002000Y008335D01*
X002225Y008560D02*
X001775Y008560D01*
X002000Y006535D02*
X002000Y006085D01*
X002225Y006310D02*
X001775Y006310D01*
X016525Y006010D02*
X016975Y006010D01*
X016750Y005785D02*
X016750Y006235D01*
X016750Y008785D02*
X016750Y009235D01*
X016525Y009010D02*
X016975Y009010D01*
X016750Y011785D02*
X016750Y012235D01*
X016525Y012010D02*
X016975Y012010D01*
X016750Y014785D02*
X016750Y015235D01*
X016525Y015010D02*
X016975Y015010D01*
M02*
