%
M48
M72
T01C0.0197
T02C0.0276
T03C0.0315
T04C0.0472
T05C0.1260
%
T01
X9225Y7035
X9600Y6660
X9225Y9660
X9600Y11660
X9225Y14660
T02
X10600Y15160
X11100Y14660
X11600Y15160
X12350Y14160
X12850Y13660
X12850Y14660
X11600Y13160
X11100Y13660
X10600Y13160
X10600Y12160
X11100Y11660
X11600Y12160
X12350Y11160
X12850Y10660
X12850Y11660
X11600Y10160
X11100Y10660
X10600Y10160
X10600Y9160
X11100Y8660
X11600Y9160
X12725Y8660
X12225Y8160
X12725Y7660
X11600Y7160
X11100Y7660
X10600Y7160
X10600Y6160
X11100Y5660
X11600Y6160
X12350Y5160
X12850Y4660
X12850Y5660
X11600Y4160
X11100Y4660
X10600Y4160
X8350Y4660
X7850Y4160
X7350Y4660
X7850Y5660
X7350Y6160
X8350Y6160
X7850Y7160
X7350Y7660
X8350Y7660
X7850Y8660
X7350Y9160
X8350Y9160
X7600Y12160
X7100Y12660
X7600Y13160
X6100Y13160
X5600Y12660
X6100Y12160
X4600Y12160
X4100Y12660
X4600Y13160
T03
X4850Y14160
X5725Y14160
X7725Y14160
X3350Y13160
X3350Y12160
X2350Y12160
X1350Y13160
X2850Y14160
X4350Y9160
X4350Y8160
X4350Y7160
X3350Y8160
X2350Y8160
X4350Y6160
X4350Y5160
X4350Y4160
X6350Y4160
X6350Y5160
X6350Y6160
X6350Y7160
X6350Y8160
X6350Y9160
X3350Y5910
X2350Y5910
X4600Y2035
X6600Y2035
X13850Y4160
X14600Y4160
X15350Y4160
X16350Y4660
X16350Y5660
X15350Y6160
X14600Y6160
X13850Y6160
X13850Y7160
X14600Y7160
X15350Y7160
X16350Y7660
X16350Y8660
X15350Y9160
X14600Y9160
X13850Y9160
X13850Y10160
X14600Y10160
X15350Y10160
X16350Y10660
X16350Y11660
X15350Y12160
X14600Y12160
X13850Y12160
X13850Y13160
X14600Y13160
X15350Y13160
X16350Y13660
X16350Y14660
X15350Y15160
X14600Y15160
X13850Y15160
X14225Y17160
X16225Y17160
T04
X17600Y14160
X19100Y14160
X19100Y11160
X17600Y11160
X17600Y8160
X19100Y8160
X19100Y5160
X17600Y5160
X7850Y17410
X5350Y17410
X1225Y12160
X1225Y8660
X1225Y6410
T05
X1350Y2160
X1350Y17160
X19350Y17160
X19350Y2160
M30
