G04 Output by ViewMate Deluxe V11.0.9  PentaLogix LLC*
G04 Sun Jun 01 12:21:21 2014*
%FSLAX33Y33*%
%MOMM*%
%IPPOS*%
%ADD15C,0.127*%
%ADD105C,0.254*%
%ADD109C,0.127*%

%LPD*%
X0Y0D2*D15*G1X13294Y11100D2*X13294Y12268D1*D15*X67305Y9830D2*X67305Y10744D1*X64558Y8931D2*X64939Y8931D1*X64966Y10439D2*X65118Y10439D1*X8631Y12357D2*X8263Y12357D1*X8138Y12479*X8138Y12725*X8263Y12847*X8631Y12847*X7882Y12357D2*X7882Y12725D1*X7760Y12847*X7391Y12847*X7391Y12357*X7132Y12479D2*X7132Y12725D1*X6888Y12725*X7132Y12479D2*X7010Y12357D1*X6764Y12357*X6642Y12479*X6642Y12972*X6764Y13094*X7010Y13094*X7132Y12972*X8631Y13094D2*X8631Y12357D1*X61439Y8550D2*X61566Y8423D1*X61693Y8423*X61820Y8550*X61820Y9185*X61693Y9185D2*X61947Y9185D1*X62313Y8931D2*X62567Y8931D1*X62694Y8804*X62694Y8423*X62313Y8423*X62186Y8550*X62313Y8677*X62694Y8677*X62938Y8423D2*X62938Y8931D1*X63065Y8931*X63192Y8804*X63319Y8931*X63446Y8804*X63446Y8423*X63192Y8423D2*X63192Y8804D1*X63684Y8804D2*X63811Y8931D1*X64065Y8931*X64192Y8804*X64192Y8677*X63684Y8677*X63684Y8804D2*X63684Y8550D1*X63811Y8423*X64065Y8423*X64431Y8423D2*X64812Y8423D1*X64939Y8550*X64812Y8677*X64558Y8677*X64431Y8804*X64558Y8931*X65930Y9185D2*X66438Y8423D1*X66438Y9185*X66804Y8931D2*X67058Y8931D1*X67185Y8804*X67185Y8677*X66677Y8677*X66677Y8550D2*X66677Y8804D1*X66804Y8931*X66677Y8550D2*X66804Y8423D1*X67058Y8423*X67428Y8550D2*X67555Y8423D1*X67682Y8550*X67809Y8423*X67936Y8550*X67936Y8931*X68175Y8931D2*X68302Y8931D1*X68429Y8804*X68556Y8931*X68683Y8804*X68683Y8423*X68429Y8423D2*X68429Y8804D1*X68175Y8931D2*X68175Y8423D1*X68922Y8550D2*X69049Y8677D1*X69430Y8677*X69430Y8804D2*X69430Y8423D1*X69049Y8423*X68922Y8550*X69049Y8931D2*X69303Y8931D1*X69430Y8804*X69674Y8931D2*X69674Y8423D1*X70182Y8804D2*X70055Y8931D1*X69674Y8931*X67428Y8931D2*X67428Y8550D1*X65930Y8423D2*X65930Y9185D1*X70182Y8423D2*X70182Y8804D1*X61232Y10744D2*X61384Y10744D1*X59969Y10592D2*X59817Y10744D1*X59512Y10744*X59360Y10592*X59360Y10439*X59512Y10287*X59969Y9982D2*X59969Y10135D1*X59817Y10287*X59512Y10287*X59360Y9982D2*X59512Y9830D1*X59817Y9830*X59969Y9982*X60907Y9982D2*X60907Y10287D1*X60752Y10439*X60295Y10439*X60295Y9525*X60295Y9830D2*X60752Y9830D1*X60907Y9982*X61232Y9830D2*X61537Y9830D1*X61384Y10744D2*X61384Y9830D1*X62006Y10439D2*X61854Y10439D1*X67935Y9830D2*X68240Y10135D1*X68240Y10439*X67935Y10744*X66680Y10744D2*X66375Y10439D1*X67305Y10744D2*X67000Y10439D1*X67000Y9830D2*X67610Y9830D1*X66680Y9830D2*X66375Y10135D1*X66375Y10439*X64661Y10135D2*X64966Y10439D1*X64661Y9830D2*X64661Y10439D1*X64183Y9830D2*X63878Y9830D1*X63726Y9982*X63726Y10135D2*X64336Y10135D1*X64336Y10287*X64183Y10439*X63878Y10439*X63726Y10287*X63726Y9982*X63406Y9830D2*X63254Y9982D1*X63254Y10592*X63101Y10439D2*X63406Y10439D1*X62479Y10439D2*X62784Y10439D1*X62631Y10592D2*X62631Y9982D1*X62784Y9830*X61854Y9830D2*X62159Y9830D1*X62006Y10439D2*X62006Y9830D1*X62006Y10897D2*X62006Y10744D1*X60295Y11506D2*X60295Y11963D1*X61232Y11354D2*X61689Y11354D1*X61841Y11506*X61689Y11659*X61384Y11659*X61232Y11811*X61841Y11963D2*X61384Y11963D1*X61232Y11811*X60907Y11963D2*X60907Y11354D1*X60447Y11354*X60295Y11506*X59360Y11354D2*X59360Y12268D1*X59817Y12268*X59969Y12116*X59969Y11963*X59817Y11811*X59360Y11811D2*X59817Y11811D1*X59969Y11659*X59969Y11506*X59817Y11354*X59360Y11354*X11735Y11295D2*X11930Y11100D1*X12123Y11100*X12319Y11295*X12319Y12268*X12515Y12268D2*X12123Y12268D1*X13294Y12268D2*X12903Y11880D1*X13683Y11100D2*X12903Y11100D1*D105*X15878Y4826D2*X14351Y4826D1*X27308Y7115D2*X25781Y7115D1*X60071Y5969D2*X60833Y5969D1*X61598Y7115D2*X60071Y7115D1*X64643Y5969D2*X63881Y5969D1*X65408Y7115D2*X63881Y7115D1*X63881Y4826*X61598Y4826D2*X60071Y4826D1*X60071Y7115*X56261Y7115D2*X56261Y4826D1*X57404Y4826*X57788Y5207*X57788Y6734*X57404Y7115*X56261Y7115*X53978Y6734D2*X53594Y7115D1*X52832Y7115*X52451Y6734*X52451Y5207*X53978Y5207D2*X53594Y4826D1*X52832Y4826*X52451Y5207*X46358Y5969D2*X44831Y5969D1*X48641Y4826D2*X48641Y7115D1*X49784Y7115*X50168Y6734*X50168Y6353*X49784Y5969*X48641Y5969D2*X49784Y5969D1*X50168Y5588*X50168Y5207*X49784Y4826*X48641Y4826*X46358Y4826D2*X46358Y6353D1*X45593Y7115*X44831Y6353*X44831Y4826*X41021Y5207D2*X41402Y4826D1*X42164Y4826*X42548Y5207*X42548Y6734*X42164Y7115*X41402Y7115*X41021Y6734*X41021Y6353*X42548Y5969D2*X41402Y5969D1*X41021Y6353*X38354Y5969D2*X38738Y6353D1*X38738Y6734*X38354Y7115*X37592Y7115*X37211Y6734*X37211Y6353*X37592Y5969*X37211Y5207D2*X37592Y4826D1*X38354Y4826*X38738Y5207*X38738Y5588*X38354Y5969*X37592Y5969*X37211Y5588*X37211Y5207*X33401Y4826D2*X33401Y5207D1*X34928Y6734*X34928Y7115*X33401Y7115*X31118Y7115D2*X30353Y6734D1*X29591Y5969*X29591Y5207D2*X29591Y5969D1*X30734Y5969*X31118Y5588*X31118Y5207*X30734Y4826*X29972Y4826*X29591Y5207*X25781Y5207D2*X26162Y4826D1*X26924Y4826*X27308Y5207*X27308Y5969*X26924Y6353*X26543Y6353*X25781Y5969*X25781Y7115*X23114Y4826D2*X23114Y7115D1*X21971Y5969*X23498Y5969*X18923Y5969D2*X19304Y5969D1*X18161Y5207D2*X18542Y4826D1*X19304Y4826*X19688Y5207*X19688Y5588*X19304Y5969*X19688Y6353*X19688Y6734*X19304Y7115*X18542Y7115*X18161Y6734*X14351Y6734D2*X14732Y7115D1*X15494Y7115*X15878Y6734*X15878Y6353*X14351Y4826*X10541Y4826D2*X12068Y4826D1*X11303Y4826D2*X11303Y7115D1*X10541Y6353*X8258Y6734D2*X7874Y7115D1*X7112Y7115*X6731Y6734*X6731Y5207*X7112Y4826D2*X7874Y4826D1*X8258Y5207*X8258Y6734*X6731Y5207*X7112Y4826*D109*X25039Y9124D2*X24999Y9124D1*X24877Y9002D2*X25161Y9002D1*X25286Y8877D2*X24752Y8877D1*X24630Y8755D2*X25408Y8755D1*X25532Y8631D2*X24506Y8631D1*X24384Y8509D2*X25654Y8509D1*X25778Y8385D2*X24260Y8385D1*X24138Y8263D2*X25900Y8263D1*X26025Y8138D2*X24013Y8138D1*X23891Y8016D2*X26147Y8016D1*X26271Y7892D2*X23767Y7892D1*X26289Y7874D2*X23749Y7874D1*X25019Y9144*X26289Y7874*X58674Y16764D2*X58674Y9144D1*X14224Y9144*X14224Y16764*X0Y0D2*M02*