
M48
METRIC,TZ,000.000
T01C1.1
T02C1.199
T03C2.946
T04C3.2
%
M71
G90
T01
X025019Y012954
X027559Y012954
X030099Y012954
X032639Y012954
X035179Y012954
X037719Y012954
X040259Y012954
X042799Y012954
X045339Y012954
X047879Y012954
X047879Y010414
X045339Y010414
X042799Y010414
X040259Y010414
X037719Y010414
X035179Y010414
X032639Y010414
X030099Y010414
X027559Y010414
X025019Y010414
T02
X007874Y014224
X064389Y002794
X060579Y002794
X056769Y002794
X052959Y002794
X049149Y002794
X045339Y002794
X041529Y002794
X037719Y002794
X033909Y002794
X030099Y002794
X026289Y002794
X022479Y002794
X018669Y002794
X014859Y002794
X011049Y002794
X007239Y002794
T03
X053696Y012217
X019202Y012217
T04
X003429Y013589
X003429Y003429
X068199Y003429
X068199Y013589
M30
