G04 Output by ViewMate Deluxe V11.0.9  PentaLogix LLC*
G04 Sun Jun 01 12:21:21 2014*
%FSLAX33Y33*%
%MOMM*%
%IPPOS*%
%ADD10R,1.651X1.651*%
%ADD11C,1.651*%
%ADD12R,1.8009X1.8009*%
%ADD13C,0.4064*%

%LPD*%
X0Y0D2*D13*G1X1524Y5890D2*X2055Y5890D1*X2060Y11125D2*X1524Y11125D1*X26297Y9515D2*X26718Y9515D1*X24948Y10721D2*X25090Y10721D1*X25090Y10320D2*X24948Y10320D1*X26302Y10320D2*X26327Y10320D1*X26352Y10721D2*X26302Y10721D1*X26302Y11125D2*X26528Y11125D1*X26485Y12332D2*X26093Y12332D1*X26251Y12736D2*X26327Y12736D1*X26327Y13137D2*X26251Y13137D1*X26109Y13541D2*X26469Y13541D1*X26805Y13942D2*X25773Y13942D1*X28313Y13942D2*X29345Y13942D1*X29009Y13541D2*X28649Y13541D1*X28791Y13137D2*X28867Y13137D1*X28867Y12736D2*X28791Y12736D1*X28633Y12332D2*X29025Y12332D1*X29383Y11930D2*X28275Y11930D1*X28090Y11527D2*X29568Y11527D1*X29068Y11125D2*X28590Y11125D1*X28766Y10721D2*X28892Y10721D1*X28867Y10320D2*X28791Y10320D1*X28687Y9916D2*X28971Y9916D1*X29258Y9515D2*X28400Y9515D1*X30940Y9515D2*X31798Y9515D1*X31511Y9916D2*X31227Y9916D1*X31331Y10320D2*X31407Y10320D1*X31432Y10721D2*X31306Y10721D1*X31130Y11125D2*X31608Y11125D1*X30798Y11458D2*X31143Y11112D1*X31331Y10658*X31331Y10170*X31143Y9716*X30798Y9370*X30343Y9182*X29855Y9182*X29400Y9370*X29055Y9716*X28867Y10170*X28867Y10658*X29055Y11112*X29400Y11458*X29855Y11646*X30343Y11646*X30798Y11458*X32108Y11527D2*X30630Y11527D1*X30815Y11930D2*X31923Y11930D1*X31565Y12332D2*X31173Y12332D1*X31331Y12736D2*X31407Y12736D1*X31407Y13137D2*X31331Y13137D1*X31189Y13541D2*X31549Y13541D1*X30798Y13998D2*X31143Y13652D1*X31331Y13198*X31331Y12710*X31143Y12256*X30798Y11910*X30343Y11722*X29855Y11722*X29400Y11910*X29055Y12256*X28867Y12710*X28867Y13198*X29055Y13652*X29400Y13998*X29855Y14186*X30343Y14186*X30798Y13998*X31885Y13942D2*X30853Y13942D1*X35999Y13942D2*X36965Y13942D1*X35108Y13942D2*X35250Y13942D1*X33393Y13942D2*X34359Y13942D1*X34039Y13541D2*X33729Y13541D1*X33871Y13137D2*X33909Y13137D1*X33917Y12736D2*X33871Y12736D1*X33355Y11930D2*X34409Y11930D1*X33683Y12256D2*X33338Y11910D1*X32883Y11722*X32395Y11722*X31940Y11910*X31595Y12256*X31407Y12710*X31407Y13198*X31595Y13652*X31940Y13998*X32395Y14186*X32883Y14186*X33338Y13998*X33683Y13652*X33871Y13198*X33871Y12710*X33683Y12256*X34056Y12332D2*X33713Y12332D1*X35108Y12736D2*X35250Y12736D1*X35108Y13025D2*X33896Y13025D1*X33896Y13056*X33929Y13254*X33990Y13447*X34082Y13627*X34201Y13790*X34343Y13932*X34506Y14051*X34686Y14143*X34879Y14204*X35077Y14237*X35108Y14237*X35108Y13025*X35108Y13137D2*X35250Y13137D1*X35250Y13541D2*X35108Y13541D1*X36629Y13541D2*X36319Y13541D1*X36449Y13137D2*X36487Y13137D1*X36462Y13025D2*X36462Y13056D1*X36429Y13254*X36368Y13447*X36276Y13627*X36157Y13790*X36015Y13932*X35852Y14051*X35672Y14143*X35479Y14204*X35281Y14237*X35250Y14237*X35250Y13025*X36462Y13025*X36487Y12736D2*X36441Y12736D1*X39185Y12332D2*X38793Y12332D1*X38951Y12736D2*X39027Y12736D1*X39027Y13137D2*X38951Y13137D1*X38809Y13541D2*X39169Y13541D1*X39505Y13942D2*X38473Y13942D1*X48910Y11125D2*X51219Y11125D1*X51450Y10721D2*X49086Y10721D1*X49111Y10320D2*X51786Y10320D1*X46180Y9515D2*X47038Y9515D1*X41387Y9916D2*X41671Y9916D1*X41567Y10320D2*X41491Y10320D1*X41466Y10721D2*X41592Y10721D1*X41768Y11125D2*X41290Y11125D1*X43873Y12332D2*X44265Y12332D1*X44107Y12736D2*X44031Y12736D1*X44031Y13137D2*X44107Y13137D1*X44249Y13541D2*X43889Y13541D1*X43553Y13942D2*X44585Y13942D1*X41013Y13942D2*X42045Y13942D1*X41709Y13541D2*X41349Y13541D1*X41491Y13137D2*X41567Y13137D1*X41567Y12736D2*X41491Y12736D1*X41333Y12332D2*X41725Y12332D1*X42083Y11930D2*X40975Y11930D1*X40790Y11527D2*X42268Y11527D1*X37648Y10320D2*X37790Y10320D1*X37790Y10721D2*X37648Y10721D1*X37648Y11125D2*X37790Y11125D1*X36210Y11125D2*X36650Y11125D1*X36472Y10721D2*X36386Y10721D1*X36411Y10320D2*X36436Y10320D1*X36533Y9916D2*X36307Y9916D1*X37790Y9916D2*X37648Y9916D1*X37648Y9515D2*X37790Y9515D1*X36020Y9515D2*X36807Y9515D1*X33480Y9515D2*X34338Y9515D1*X34051Y9916D2*X33767Y9916D1*X33871Y10320D2*X33947Y10320D1*X33972Y10721D2*X33846Y10721D1*X33670Y11125D2*X34148Y11125D1*X33338Y11458D2*X33683Y11112D1*X33871Y10658*X33871Y10170*X33683Y9716*X33338Y9370*X32883Y9182*X32395Y9182*X31940Y9370*X31595Y9716*X31407Y10170*X31407Y10658*X31595Y11112*X31940Y11458*X32395Y11646*X32883Y11646*X33338Y11458*X34648Y11527D2*X33170Y11527D1*X35108Y11930D2*X35250Y11930D1*X35250Y12332D2*X35108Y12332D1*X36645Y12332D2*X36302Y12332D1*X35949Y11930D2*X37003Y11930D1*X35672Y11765D2*X35852Y11857D1*X36015Y11976*X36157Y12118*X36276Y12281*X36368Y12461*X36429Y12654*X36462Y12852*X36462Y12883*X35250Y12883*X35108Y12883*X35108Y11671*X35077Y11671*X34879Y11704*X34686Y11765*X34506Y11857*X34343Y11976*X34201Y12118*X34082Y12281*X33990Y12461*X33929Y12654*X33896Y12852*X33896Y12883*X35108Y12883*X35108Y13025*X35250Y13025*X35250Y12883*X35250Y11671*X35281Y11671*X35479Y11704*X35672Y11765*X35878Y11458D2*X36223Y11112D1*X36411Y10658*X36411Y10170*X36223Y9716*X35878Y9370*X35423Y9182*X34935Y9182*X34480Y9370*X34135Y9716*X33947Y10170*X33947Y10658*X34135Y11112*X34480Y11458*X34935Y11646*X35423Y11646*X35878Y11458*X37079Y11527D2*X35710Y11527D1*X37648Y11697D2*X37648Y10485D1*X36436Y10485*X36436Y10516*X36469Y10714*X36530Y10907*X36622Y11087*X36741Y11250*X36883Y11392*X37046Y11511*X37226Y11603*X37419Y11664*X37617Y11697*X37648Y11697*X37790Y11527D2*X37648Y11527D1*X38418Y11910D2*X37963Y11722D1*X37475Y11722*X37020Y11910*X36675Y12256*X36487Y12710*X36487Y13198*X36675Y13652*X37020Y13998*X37475Y14186*X37963Y14186*X38418Y13998*X38763Y13652*X38951Y13198*X38951Y12710*X38763Y12256*X38418Y11910*X39543Y11930D2*X38435Y11930D1*X40015Y11722D2*X39560Y11910D1*X39215Y12256*X39027Y12710*X39027Y13198*X39215Y13652*X39560Y13998*X40015Y14186*X40503Y14186*X40958Y13998*X41303Y13652*X41491Y13198*X41491Y12710*X41303Y12256*X40958Y11910*X40503Y11722*X40015Y11722*X38359Y11527D2*X39728Y11527D1*X39228Y11125D2*X38788Y11125D1*X38966Y10721D2*X39052Y10721D1*X39002Y10485D2*X37790Y10485D1*X37790Y11697*X37821Y11697*X38019Y11664*X38212Y11603*X38392Y11511*X38555Y11392*X38697Y11250*X38816Y11087*X38908Y10907*X38969Y10714*X39002Y10516*X39002Y10485*X39027Y10320D2*X39002Y10320D1*X38905Y9916D2*X39131Y9916D1*X38697Y9578D2*X38816Y9741D1*X38908Y9921*X38969Y10114*X39002Y10312*X39002Y10343*X37790Y10343*X37648Y10343*X37648Y9131*X37617Y9131*X37419Y9164*X37226Y9225*X37046Y9317*X36883Y9436*X36741Y9578*X36622Y9741*X36530Y9921*X36469Y10114*X36436Y10312*X36436Y10343*X37648Y10343*X37648Y10485*X37790Y10485*X37790Y10343*X37790Y9131*X37821Y9131*X38019Y9164*X38212Y9225*X38392Y9317*X38555Y9436*X38697Y9578*X39418Y9515D2*X38631Y9515D1*X40958Y9370D2*X41303Y9716D1*X41491Y10170*X41491Y10658*X41303Y11112*X40958Y11458*X40503Y11646*X40015Y11646*X39560Y11458*X39215Y11112*X39027Y10658*X39027Y10170*X39215Y9716*X39560Y9370*X40015Y9182*X40503Y9182*X40958Y9370*X41958Y9515D2*X41100Y9515D1*X44498Y9515D2*X43640Y9515D1*X43927Y9916D2*X44211Y9916D1*X44107Y10320D2*X44031Y10320D1*X44006Y10721D2*X44132Y10721D1*X43843Y11112D2*X44031Y10658D1*X44031Y10170*X43843Y9716*X43498Y9370*X43043Y9182*X42555Y9182*X42100Y9370*X41755Y9716*X41567Y10170*X41567Y10658*X41755Y11112*X42100Y11458*X42555Y11646*X43043Y11646*X43498Y11458*X43843Y11112*X44308Y11125D2*X43830Y11125D1*X43330Y11527D2*X44808Y11527D1*X43498Y11910D2*X43043Y11722D1*X42555Y11722*X42100Y11910*X41755Y12256*X41567Y12710*X41567Y13198*X41755Y13652*X42100Y13998*X42555Y14186*X43043Y14186*X43498Y13998*X43843Y13652*X44031Y13198*X44031Y12710*X43843Y12256*X43498Y11910*X44623Y11930D2*X43515Y11930D1*X46617Y12736D2*X46571Y12736D1*X47808Y12736D2*X47950Y12736D1*X47950Y13541D2*X47808Y13541D1*X47808Y13137D2*X47950Y13137D1*X46609Y13137D2*X46571Y13137D1*X46429Y13541D2*X46739Y13541D1*X47059Y13942D2*X46093Y13942D1*X47808Y14237D2*X47808Y13025D1*X46596Y13025*X46596Y13056*X46629Y13254*X46690Y13447*X46782Y13627*X46901Y13790*X47043Y13932*X47206Y14051*X47386Y14143*X47579Y14204*X47777Y14237*X47808Y14237*X47950Y13942D2*X47808Y13942D1*X48699Y13942D2*X51613Y13942D1*X51351Y13541D2*X49019Y13541D1*X49149Y13137D2*X51156Y13137D1*X49162Y13025D2*X47950Y13025D1*X47950Y14237*X47981Y14237*X48179Y14204*X48372Y14143*X48552Y14051*X48715Y13932*X48857Y13790*X48976Y13627*X49068Y13447*X49129Y13254*X49162Y13056*X49162Y13025*X51046Y12736D2*X49141Y12736D1*X49002Y12332D2*X51003Y12332D1*X51003Y11930D2*X48649Y11930D1*X48410Y11527D2*X51092Y11527D1*X47950Y11671D2*X47950Y12883D1*X47808Y12883*X47808Y13025*X47950Y13025*X47950Y12883*X49162Y12883*X49162Y12852*X49129Y12654*X49068Y12461*X48976Y12281*X48857Y12118*X48715Y11976*X48552Y11857*X48372Y11765*X48179Y11704*X47981Y11671*X47950Y11671*X47950Y11930D2*X47808Y11930D1*X47808Y12332D2*X47950Y12332D1*X46413Y12332D2*X46756Y12332D1*X46038Y11910D2*X45583Y11722D1*X45095Y11722*X44640Y11910*X44295Y12256*X44107Y12710*X44107Y13198*X44295Y13652*X44640Y13998*X45095Y14186*X45583Y14186*X46038Y13998*X46383Y13652*X46571Y13198*X46571Y12710*X46383Y12256*X46038Y11910*X47109Y11930D2*X46055Y11930D1*X47386Y11765D2*X47206Y11857D1*X47043Y11976*X46901Y12118*X46782Y12281*X46690Y12461*X46629Y12654*X46596Y12852*X46596Y12883*X47808Y12883*X47808Y11671*X47777Y11671*X47579Y11704*X47386Y11765*X45870Y11527D2*X47348Y11527D1*X46848Y11125D2*X46370Y11125D1*X46546Y10721D2*X46672Y10721D1*X46647Y10320D2*X46571Y10320D1*X46467Y9916D2*X46751Y9916D1*X46383Y9716D2*X46571Y10170D1*X46571Y10658*X46383Y11112*X46038Y11458*X45583Y11646*X45095Y11646*X44640Y11458*X44295Y11112*X44107Y10658*X44107Y10170*X44295Y9716*X44640Y9370*X45095Y9182*X45583Y9182*X46038Y9370*X46383Y9716*X63083Y1864D2*X61885Y1864D1*X61885Y2268D2*X63083Y2268D1*X63083Y2670D2*X61885Y2670D1*X61885Y3073D2*X63083Y3073D1*X63083Y3475D2*X61885Y3475D1*X61869Y3879D2*X63099Y3879D1*X59289Y3879D2*X58059Y3879D1*X58075Y3475D2*X59273Y3475D1*X59273Y3073D2*X58075Y3073D1*X58075Y2670D2*X59273Y2670D1*X59273Y2268D2*X58075Y2268D1*X58075Y1864D2*X59273Y1864D1*X55463Y1864D2*X54265Y1864D1*X54265Y2268D2*X55463Y2268D1*X55463Y2670D2*X54265Y2670D1*X54265Y3073D2*X55463Y3073D1*X55463Y3475D2*X54265Y3475D1*X54249Y3879D2*X55479Y3879D1*X51669Y3879D2*X50439Y3879D1*X50455Y3475D2*X51653Y3475D1*X51653Y3073D2*X50455Y3073D1*X50455Y2670D2*X51653Y2670D1*X51653Y2268D2*X50455Y2268D1*X50455Y1864D2*X51653Y1864D1*X47843Y1864D2*X46645Y1864D1*X46645Y2268D2*X47843Y2268D1*X47843Y2670D2*X46645Y2670D1*X46645Y3073D2*X47843Y3073D1*X47843Y3475D2*X46645Y3475D1*X46629Y3879D2*X47859Y3879D1*X44049Y3879D2*X42819Y3879D1*X42835Y3475D2*X44033Y3475D1*X44033Y3073D2*X42835Y3073D1*X42835Y2670D2*X44033Y2670D1*X44033Y2268D2*X42835Y2268D1*X42835Y1864D2*X44033Y1864D1*X40223Y1864D2*X39025Y1864D1*X39025Y2268D2*X40223Y2268D1*X40223Y2670D2*X39025Y2670D1*X39025Y3073D2*X40223Y3073D1*X40223Y3475D2*X39025Y3475D1*X39009Y3879D2*X40239Y3879D1*X36429Y3879D2*X35199Y3879D1*X35215Y3475D2*X36413Y3475D1*X36413Y3073D2*X35215Y3073D1*X35215Y2670D2*X36413Y2670D1*X36413Y2268D2*X35215Y2268D1*X35215Y1864D2*X36413Y1864D1*X32603Y1864D2*X31405Y1864D1*X31405Y2268D2*X32603Y2268D1*X32603Y2670D2*X31405Y2670D1*X31405Y3073D2*X32603Y3073D1*X32603Y3475D2*X31405Y3475D1*X31389Y3879D2*X32619Y3879D1*X28809Y3879D2*X27579Y3879D1*X27595Y3475D2*X28793Y3475D1*X28793Y3073D2*X27595Y3073D1*X27595Y2670D2*X28793Y2670D1*X28793Y2268D2*X27595Y2268D1*X27595Y1864D2*X28793Y1864D1*X24983Y1864D2*X23785Y1864D1*X23785Y2268D2*X24983Y2268D1*X24983Y2670D2*X23785Y2670D1*X23785Y3073D2*X24983Y3073D1*X24983Y3475D2*X23785Y3475D1*X23769Y3879D2*X24999Y3879D1*X21189Y3879D2*X19959Y3879D1*X19975Y3475D2*X21173Y3475D1*X21173Y3073D2*X19975Y3073D1*X19975Y2670D2*X21173Y2670D1*X21173Y2268D2*X19975Y2268D1*X19975Y1864D2*X21173Y1864D1*X17363Y1864D2*X16165Y1864D1*X16165Y2268D2*X17363Y2268D1*X17363Y2670D2*X16165Y2670D1*X16165Y3073D2*X17363Y3073D1*X17363Y3475D2*X16165Y3475D1*X16149Y3879D2*X17379Y3879D1*X13569Y3879D2*X12339Y3879D1*X12355Y3475D2*X13553Y3475D1*X13553Y3073D2*X12355Y3073D1*X12355Y2670D2*X13553Y2670D1*X13553Y2268D2*X12355Y2268D1*X12355Y1864D2*X13553Y1864D1*X9743Y1864D2*X8545Y1864D1*X8545Y2268D2*X9743Y2268D1*X9743Y2670D2*X8545Y2670D1*X8545Y3073D2*X9743Y3073D1*X9743Y3475D2*X8545Y3475D1*X8529Y3879D2*X9759Y3879D1*X65509Y4280D2*X6119Y4280D1*X5961Y4684D2*X65667Y4684D1*X65900Y5085D2*X5728Y5085D1*X5357Y5489D2*X66271Y5489D1*X66825Y5890D2*X4803Y5890D1*X70104Y5890D2*X69573Y5890D1*X1524Y6294D2*X70104Y6294D1*X70104Y6695D2*X1524Y6695D1*X1524Y7099D2*X70104Y7099D1*X70104Y7501D2*X1524Y7501D1*X1524Y7904D2*X70104Y7904D1*X70104Y8306D2*X1524Y8306D1*X1524Y8710D2*X70104Y8710D1*X70104Y9111D2*X1524Y9111D1*X48720Y9515D2*X70104Y9515D1*X48923Y9716D2*X48578Y9370D1*X48123Y9182*X47635Y9182*X47180Y9370*X46835Y9716*X46647Y10170*X46647Y10658*X46835Y11112*X47180Y11458*X47635Y11646*X48123Y11646*X48578Y11458*X48923Y11112*X49111Y10658*X49111Y10170*X48923Y9716*X52296Y9916D2*X49007Y9916D1*X70104Y9916D2*X55095Y9916D1*X55606Y10320D2*X70104Y10320D1*X70104Y10721D2*X55941Y10721D1*X69568Y11125D2*X70104Y11125D1*X56172Y11125D2*X66830Y11125D1*X66274Y11527D2*X56299Y11527D1*X56388Y11930D2*X65903Y11930D1*X65669Y12332D2*X56388Y12332D1*X56345Y12736D2*X65509Y12736D1*X65402Y13137D2*X56236Y13137D1*X56040Y13541D2*X65380Y13541D1*X65380Y13942D2*X55778Y13942D1*X55377Y14346D2*X65484Y14346D1*X65613Y14747D2*X54656Y14747D1*X9230Y15151D2*X65844Y15151D1*X6518Y15151D2*X5784Y15151D1*X6015Y14747D2*X6518Y14747D1*X6518Y14346D2*X6144Y14346D1*X7777Y13541D2*X7971Y13541D1*X7971Y13137D2*X7777Y13137D1*X16662Y13137D2*X9195Y13137D1*X9230Y13541D2*X16858Y13541D1*X17120Y13942D2*X9230Y13942D1*X9230Y14346D2*X17521Y14346D1*X18242Y14747D2*X9230Y14747D1*X52735Y14747D2*X20163Y14747D1*X52042Y14371D2*X52657Y14727D1*X53340Y14910*X54051Y14910*X54734Y14727*X55349Y14371*X55850Y13871*X56205Y13256*X56388Y12573*X56388Y11862*X56205Y11179*X55850Y10564*X55349Y10063*X54734Y9708*X54051Y9525*X53340Y9525*X52657Y9708*X52042Y10063*X51542Y10564*X51186Y11179*X51003Y11862*X51003Y12573*X51186Y13256*X51542Y13871*X52042Y14371*X20884Y14346D2*X52014Y14346D1*X24265Y13942D2*X21285Y13942D1*X21547Y13541D2*X23929Y13541D1*X23787Y13137D2*X21742Y13137D1*X21852Y12736D2*X23787Y12736D1*X23945Y12332D2*X21895Y12332D1*X21806Y11527D2*X23835Y11527D1*X24303Y11930D2*X21895Y11930D1*X25090Y11527D2*X24948Y11527D1*X25718Y11910D2*X25263Y11722D1*X24775Y11722*X24320Y11910*X23975Y12256*X23787Y12710*X23787Y13198*X23975Y13652*X24320Y13998*X24775Y14186*X25263Y14186*X25718Y13998*X26063Y13652*X26251Y13198*X26251Y12710*X26063Y12256*X25718Y11910*X26843Y11930D2*X25735Y11930D1*X27315Y11722D2*X27803Y11722D1*X28258Y11910*X28603Y12256*X28791Y12710*X28791Y13198*X28603Y13652*X28258Y13998*X27803Y14186*X27315Y14186*X26860Y13998*X26515Y13652*X26327Y13198*X26327Y12710*X26515Y12256*X26860Y11910*X27315Y11722*X26203Y11527D2*X27028Y11527D1*X26210Y11519D2*X26124Y11605D1*X26020Y11666*X25905Y11697*X25090Y11697*X25090Y10485*X26302Y10485*X26302Y11300*X26271Y11415*X26210Y11519*X24948Y11125D2*X25090Y11125D1*X21679Y11125D2*X23736Y11125D1*X23736Y10721D2*X21448Y10721D1*X21112Y10320D2*X23736Y10320D1*X23736Y9916D2*X20602Y9916D1*X25090Y9916D2*X24948Y9916D1*X26431Y9916D2*X26302Y9916D1*X26515Y9716D2*X26327Y10170D1*X26327Y10658*X26515Y11112*X26860Y11458*X27315Y11646*X27803Y11646*X28258Y11458*X28603Y11112*X28791Y10658*X28791Y10170*X28603Y9716*X28258Y9370*X27803Y9182*X27315Y9182*X26860Y9370*X26515Y9716*X25905Y9131D2*X25090Y9131D1*X25090Y10343*X26302Y10343*X26302Y9528*X26271Y9413*X26210Y9309*X26124Y9223*X26020Y9162*X25905Y9131*X24948Y9515D2*X25090Y9515D1*X23736Y9528D2*X23736Y10343D1*X24948Y10343*X24948Y10485*X23736Y10485*X23736Y11300*X23767Y11415*X23828Y11519*X23914Y11605*X24018Y11666*X24133Y11697*X24948Y11697*X24948Y10485*X25090Y10485*X25090Y10343*X24948Y10343*X24948Y9131*X24133Y9131*X24018Y9162*X23914Y9223*X23828Y9309*X23767Y9413*X23736Y9528*X1524Y9515D2*X23741Y9515D1*X17803Y9916D2*X1524Y9916D1*X1524Y10320D2*X17292Y10320D1*X16957Y10721D2*X1524Y10721D1*X4798Y11125D2*X16726Y11125D1*X16599Y11527D2*X5354Y11527D1*X5725Y11930D2*X16510Y11930D1*X16510Y12332D2*X5959Y12332D1*X16510Y12573D2*X16693Y13256D1*X17048Y13871*X17549Y14371*X18164Y14727*X18847Y14910*X19558Y14910*X20241Y14727*X20856Y14371*X21356Y13871*X21712Y13256*X21895Y12573*X21895Y11862*X21712Y11179*X21356Y10564*X20856Y10063*X20241Y9708*X19558Y9525*X18847Y9525*X18164Y9708*X17549Y10063*X17048Y10564*X16693Y11179*X16510Y11862*X16510Y12573*X6119Y12736D2*X16553Y12736D1*X6553Y13137D2*X6226Y13137D1*X6248Y13541D2*X6518Y13541D1*X6518Y13942D2*X6248Y13942D1*X7971Y13942D2*X7777Y13942D1*X7971Y14127D2*X7971Y12868D1*X8834Y12868*X8951Y12898*X9055Y12959*X9139Y13043*X9200Y13147*X9230Y13264*X9230Y14127*X7971Y14127*X7971Y14321D2*X7971Y14127D1*X7777Y14127*X7777Y12868*X6914Y12868*X6797Y12898*X6693Y12959*X6609Y13043*X6548Y13147*X6518Y13264*X6518Y14127*X7777Y14127*X7777Y14321*X6518Y14321*X6518Y15184*X6548Y15301*X6609Y15405*X6693Y15489*X6701Y15494*X5512Y15494*X5685Y15321*X6055Y14676*X6248Y13960*X6248Y13218*X6055Y12502*X5685Y11857*X5161Y11333*X4516Y10963*X3800Y10770*X3058Y10770*X2342Y10963*X1697Y11333*X1524Y11506*X1524Y5512*X1697Y5685*X2342Y6055*X3058Y6248*X3800Y6248*X4516Y6055*X5161Y5685*X5685Y5161*X6055Y4516*X6167Y4097*X6170Y4100*X8308Y4100*X8545Y3863*X8545Y1725*X8344Y1524*X9944Y1524*X9743Y1725*X9743Y3863*X9980Y4100*X12118Y4100*X12355Y3863*X12355Y1725*X12154Y1524*X13754Y1524*X13553Y1725*X13553Y3863*X13790Y4100*X15928Y4100*X16165Y3863*X16165Y1725*X15964Y1524*X17564Y1524*X17363Y1725*X17363Y3863*X17600Y4100*X19738Y4100*X19975Y3863*X19975Y1725*X19774Y1524*X21374Y1524*X21173Y1725*X21173Y3863*X21410Y4100*X23548Y4100*X23785Y3863*X23785Y1725*X23584Y1524*X25184Y1524*X24983Y1725*X24983Y3863*X25220Y4100*X27358Y4100*X27595Y3863*X27595Y1725*X27394Y1524*X28994Y1524*X28793Y1725*X28793Y3863*X29030Y4100*X31168Y4100*X31405Y3863*X31405Y1725*X31204Y1524*X32804Y1524*X32603Y1725*X32603Y3863*X32840Y4100*X34978Y4100*X35215Y3863*X35215Y1725*X35014Y1524*X36614Y1524*X36413Y1725*X36413Y3863*X36650Y4100*X38788Y4100*X39025Y3863*X39025Y1725*X38824Y1524*X40424Y1524*X40223Y1725*X40223Y3863*X40460Y4100*X42598Y4100*X42835Y3863*X42835Y1725*X42634Y1524*X44234Y1524*X44033Y1725*X44033Y3863*X44270Y4100*X46408Y4100*X46645Y3863*X46645Y1725*X46444Y1524*X48044Y1524*X47843Y1725*X47843Y3863*X48080Y4100*X50218Y4100*X50455Y3863*X50455Y1725*X50254Y1524*X51854Y1524*X51653Y1725*X51653Y3863*X51890Y4100*X54028Y4100*X54265Y3863*X54265Y1725*X54064Y1524*X55664Y1524*X55463Y1725*X55463Y3863*X55700Y4100*X57838Y4100*X58075Y3863*X58075Y1725*X57874Y1524*X59474Y1524*X59273Y1725*X59273Y3863*X59510Y4100*X61648Y4100*X61885Y3863*X61885Y1725*X61684Y1524*X63284Y1524*X63083Y1725*X63083Y3863*X63320Y4100*X65458Y4100*X65461Y4097*X65573Y4516*X65943Y5161*X66467Y5685*X67112Y6055*X67828Y6248*X68570Y6248*X69286Y6055*X69931Y5685*X70104Y5512*X70104Y11506*X69931Y11333*X69286Y10963*X68570Y10770*X67828Y10770*X67112Y10963*X66467Y11333*X65943Y11857*X65573Y12502*X65380Y13218*X65380Y13960*X65573Y14676*X65943Y15321*X66116Y15494*X9047Y15494*X9055Y15489*X9139Y15405*X9200Y15301*X9230Y15184*X9230Y14321*X7971Y14321*D10*X25019Y10414D3*D11*X25019Y12954D3*X27559Y12954D3*X30099Y12954D3*X32639Y12954D3*X35179Y12954D3*X37719Y12954D3*X40259Y12954D3*X42799Y12954D3*X45339Y12954D3*X47879Y12954D3*X47879Y10414D3*X45339Y10414D3*X42799Y10414D3*X40259Y10414D3*X37719Y10414D3*X35179Y10414D3*X32639Y10414D3*X30099Y10414D3*X27559Y10414D3*D12*X7874Y14224D3*X64389Y2794D3*X60579Y2794D3*X56769Y2794D3*X52959Y2794D3*X49149Y2794D3*X45339Y2794D3*X41529Y2794D3*X37719Y2794D3*X33909Y2794D3*X30099Y2794D3*X26289Y2794D3*X22479Y2794D3*X18669Y2794D3*X14859Y2794D3*X11049Y2794D3*X7239Y2794D3*X0Y0D2*M02*