G04 Output by ViewMate Deluxe V11.0.9  PentaLogix LLC*
G04 Wed Jul 08 13:39:12 2015*
%FSLAX24Y24*%
%MOIN*%
%IPPOS*%
%ADD16C,0.005118*%
%ADD106C,0.008*%
%ADD107C,0.006*%
%ADD109C,0.005*%

%LPD*%
X0Y0D2*D16*G1X25741Y9895D2*X25741Y10125D1*X5370Y10972D2*X5447Y10895D1*X5523Y10895*X5600Y10972*X5600Y11355*X5677Y11355D2*X5523Y11355D1*X5830Y11202D2*X5984Y11355D1*X5984Y10895*X6137Y10895D2*X5830Y10895D1*X21717Y5895D2*X21410Y5895D1*X21640Y6355D2*X21717Y6279D1*X21717Y6202*X21410Y5895*X20949Y5972D2*X21026Y5895D1*X21103Y5895*X21179Y5972*X21179Y6355*X21256Y6355D2*X21103Y6355D1*X21410Y6279D2*X21486Y6355D1*X21640Y6355*X25434Y10202D2*X25665Y10202D1*X25741Y10125*X25434Y10202D2*X25434Y9895D1*X25051Y10202D2*X25204Y10202D1*X25281Y10125*X24974Y9972D2*X25051Y9895D1*X25281Y9895*X25281Y10125*X25281Y10048D2*X25051Y10048D1*X24974Y9972*X23439Y9895D2*X23132Y10355D1*X24053Y9972D2*X24053Y10202D1*X24514Y10202D2*X24514Y9895D1*X24667Y9895D2*X24667Y10125D1*X24820Y9895D2*X24820Y10125D1*X24744Y10202*X24667Y10125*X24590Y10202*X24514Y10202*X24360Y10202D2*X24360Y9972D1*X24283Y9895*X24207Y9972*X24130Y9895*X24053Y9972*X23823Y9895D2*X23669Y9895D1*X23593Y9972*X23593Y10125*X23593Y10048D2*X23900Y10048D1*X23900Y10125*X23823Y10202*X23669Y10202*X23593Y10125*X23439Y9895D2*X23439Y10355D1*X23132Y10355D2*X23132Y9895D1*X22518Y10202D2*X22288Y10202D1*X22212Y10125*X22288Y10048*X22442Y10048*X22518Y9972*X22442Y9895*X22212Y9895*X21981Y9895D2*X21828Y9895D1*X21751Y9972*X21751Y10048D2*X22058Y10048D1*X22058Y10125*X21981Y10202*X21828Y10202*X21751Y10125*X21751Y9972*X21291Y10202D2*X21291Y9895D1*X21444Y9895D2*X21444Y10125D1*X21598Y9895D2*X21598Y10125D1*X21521Y10202*X21444Y10125*X21368Y10202*X21291Y10202*X20907Y10202D2*X21061Y10202D1*X21137Y10125*X20830Y9972D2*X20907Y9895D1*X21137Y9895*X21137Y10125*X21137Y10048D2*X20907Y10048D1*X20830Y9972*X20370Y9972D2*X20447Y9895D1*X20523Y9895*X20600Y9972*X20600Y10355*X20677Y10355D2*X20523Y10355D1*D106*X26640Y7875D2*X26947Y7875D1*X26640Y7415D2*X26640Y8336D1*X27254Y8336*X25140Y8336D2*X25754Y8336D1*X25447Y7875D2*X25140Y7875D1*X25754Y7415D2*X25140Y7415D1*X25140Y8336*X23640Y8336D2*X23640Y7415D1*X24100Y7415*X24254Y7568*X24254Y8182*X24100Y8336*X23640Y8336*X22754Y8182D2*X22600Y8336D1*X22293Y8336*X22140Y8182*X22140Y7568*X22754Y7568D2*X22600Y7415D1*X22293Y7415*X22140Y7568*X21100Y7875D2*X21254Y8029D1*X21254Y8182*X21100Y8336*X20640Y8336*X20640Y7415*X21100Y7415*X21254Y7568*X21254Y7722*X21100Y7875*X20640Y7875*X19754Y8029D2*X19447Y8336D1*X19140Y8029*X19140Y7415*X19754Y8029D2*X19754Y7415D1*X19140Y7875D2*X19754Y7875D1*X18254Y7875D2*X17793Y7875D1*X17640Y8029*X17640Y8182*X17793Y8336*X18100Y8336*X18254Y8182*X18254Y7568*X18100Y7415*X17793Y7415*X17640Y7568*X16140Y7568D2*X16140Y7722D1*X16293Y7875*X16600Y7875D2*X16754Y8029D1*X16754Y8182*X16600Y8336*X16293Y8336*X16140Y8182*X16140Y8029*X16293Y7875*X16600Y7875*X16754Y7722*X16754Y7568*X16600Y7415*X16293Y7415*X16140Y7568*X14640Y7415D2*X14640Y7568D1*X15254Y8182*X15254Y8336*X14640Y8336*X13754Y8336D2*X13447Y8182D1*X13140Y7875*X13140Y7568*X13293Y7415*X13600Y7415*X13754Y7568*X13754Y7722*X13600Y7875*X13140Y7875*X12254Y8336D2*X11640Y8336D1*X11640Y7875*X11640Y7568D2*X11793Y7415D1*X12100Y7415*X12254Y7568*X12254Y7875*X12100Y8029*X11947Y8029*X11640Y7875*X10140Y7875D2*X10600Y8336D1*X10600Y7415*X10140Y7875D2*X10754Y7875D1*X8640Y8182D2*X8793Y8336D1*X9100Y8336*X9254Y8182*X9254Y8029*X9100Y7875*X8947Y7875D2*X9100Y7875D1*X9254Y7722*X9254Y7568*X9100Y7415*X8793Y7415*X8640Y7568*X7140Y7415D2*X7754Y7415D1*X7140Y8182D2*X7293Y8336D1*X7600Y8336*X7754Y8182*X7754Y8029*X7140Y7415*X5640Y7415D2*X6254Y7415D1*X5947Y7415D2*X5947Y8336D1*X5640Y8029*X4754Y8182D2*X4600Y8336D1*X4293Y8336*X4140Y8182*X4140Y7568D2*X4293Y7415D1*X4600Y7415*X4754Y7568*X4754Y8182*X4140Y7568*X4140Y8182*X1754Y8182D2*X1600Y8336D1*X1293Y8336*X1140Y8182*X1140Y8029*X1293Y7875*X1754Y7568D2*X1754Y7722D1*X1600Y7875*X1293Y7875*X1140Y7568D2*X1293Y7415D1*X1600Y7415*X1754Y7568*X2640Y8336D2*X2640Y7415D1*X3254Y8336D2*X3254Y7415D1*X2947Y7722*X2640Y7415*X2504Y5932D2*X2350Y6086D1*X2043Y6086*X1890Y5932*X1890Y5318*X2043Y5165*X2197Y5625D2*X2504Y5625D1*X2504Y5318*X2350Y5165*X2043Y5165*D107*X20630Y10975D2*X21057Y10975D1*X20630Y10655D2*X20630Y11082D1*X20844Y11296*X21057Y11082*X21057Y10655*X21702Y10762D2*X21702Y11189D1*X21595Y11296*X21275Y11296*X21275Y10655*X21595Y10655*X21702Y10762*X23853Y10975D2*X24280Y10975D1*X22884Y10869D2*X22991Y10975D1*X22991Y11189*X22884Y11296*X22564Y11296*X22564Y10655*X22346Y10762D2*X22239Y10655D1*X21919Y10655*X21919Y11296*X22239Y11296*X22346Y11189*X22346Y10762*X22884Y10869D2*X22564Y10869D1*X22991Y10655D2*X22777Y10869D1*X23635Y10548D2*X23208Y10548D1*X23853Y10655D2*X23853Y11082D1*X24066Y11296*X24280Y11082*X24280Y10655*X24924Y10762D2*X24924Y11189D1*X24818Y11296*X24497Y11296*X24497Y10655*X24818Y10655*X24924Y10762*X27075Y10655D2*X27503Y10655D1*X27289Y10655D2*X27289Y11296D1*X27075Y11082*X26107Y10869D2*X26213Y10975D1*X26213Y11189*X26107Y11296*X25786Y11296*X25786Y10655*X25569Y10762D2*X25462Y10655D1*X25142Y10655*X25142Y11296*X25462Y11296*X25569Y11189*X25569Y10762*X26107Y10869D2*X25786Y10869D1*X26213Y10655D2*X26000Y10869D1*X26858Y10548D2*X26431Y10548D1*D109*X22350Y14625D2*X22350Y11625D1*X4850Y11625*X4850Y14625*X9073Y11598D2*X9127Y11598D1*X9176Y11549D2*X9024Y11549D1*X8976Y11501D2*X9224Y11501D1*X9273Y11452D2*X8927Y11452D1*X8879Y11404D2*X9321Y11404D1*X9370Y11355D2*X8830Y11355D1*X8782Y11307D2*X9418Y11307D1*X9467Y11258D2*X8733Y11258D1*X8685Y11210D2*X9515Y11210D1*X9564Y11161D2*X8636Y11161D1*X9600Y11125D2*X8600Y11125D1*X9100Y11625*X9600Y11125*X18107Y5632D2*X18093Y5632D1*X18044Y5681D2*X18156Y5681D1*X18204Y5729D2*X17996Y5729D1*X17947Y5778D2*X18253Y5778D1*X18301Y5826D2*X17899Y5826D1*X17850Y5875D2*X18350Y5875D1*X18398Y5923D2*X17802Y5923D1*X17753Y5972D2*X18447Y5972D1*X18495Y6020D2*X17705Y6020D1*X17656Y6069D2*X18544Y6069D1*X18592Y6117D2*X17608Y6117D1*X18600Y6125D2*X17600Y6125D1*X18100Y5625*X18600Y6125*X22350Y2625D2*X22350Y5625D1*X4850Y5625*X4850Y2625*X0Y0D2*M02*