
M48
METRIC,TZ,000.000
T01C0.5
T02C1.1
T03C1.199
T04C2.946
T05C3.2
%
M71
G90
T01
X066294Y024448
X058674Y024448
X051054Y024448
X047244Y024448
X043434Y024448
X039624Y020002
X017399Y028258
X018669Y027622
X019939Y026988
X021209Y026352
X022479Y025718
X024384Y025082
X032004Y023812
X028194Y020638
X026924Y020002
X025654Y019368
X024384Y018732
X023114Y018098
X021844Y017462
X020574Y016828
X019304Y016192
X018034Y015558
X016764Y014922
T02
X045974Y010478
X043434Y010478
X040894Y010478
X038354Y010478
X035814Y010478
X033274Y010478
X030734Y010478
X028194Y010478
X025654Y010478
X023114Y010478
X023114Y013018
X025654Y013018
X028194Y013018
X030734Y013018
X033274Y013018
X035814Y013018
X038354Y013018
X040894Y013018
X043434Y013018
X045974Y013018
X045974Y033338
X043434Y033338
X040894Y033338
X038354Y033338
X035814Y033338
X033274Y033338
X030734Y033338
X028194Y033338
X025654Y033338
X023114Y033338
X023114Y030798
X025654Y030798
X028194Y030798
X030734Y030798
X033274Y030798
X035814Y030798
X038354Y030798
X040894Y030798
X043434Y030798
X045974Y030798
T03
X005334Y016828
X003429Y022542
X007239Y022542
X011049Y022542
X014859Y022542
X018669Y022542
X022479Y022542
X026289Y022542
X030099Y022542
X033909Y022542
X037719Y022542
X041529Y022542
X068199Y022542
X064389Y022542
X060579Y022542
X056769Y022542
X052959Y022542
X049149Y022542
X045339Y022542
T04
X017297Y032601
X051791Y032601
X051791Y011214
X017297Y011214
T05
X068199Y009842
X068199Y033972
X003429Y033972
X003429Y009842
M30
