G04 Output by ViewMate Deluxe V11.0.9  PentaLogix LLC*
G04 Wed Jul 08 13:39:12 2015*
%FSLAX24Y24*%
%MOIN*%
%IPPOS*%
%ADD10R,0.065X0.065*%
%ADD11C,0.065*%
%ADD12R,0.0709X0.0709*%
%ADD13C,0.04*%
%ADD14C,0.016*%
%ADD15C,0.04*%

%LPD*%
X0Y0D2*D13*G1X10100Y13125D2*X9100Y13125D1*X8350Y14025*X4600Y14025*X3600Y13125*X3600Y6625*X2100Y6625D2*X3600Y6625D1*X3600Y4125*X17100Y3225D2*X18100Y3225D1*X18100Y4125*X17100Y4125D2*X17100Y3225D1*X4600Y3225*X3600Y4125*D14*X18850Y11375D2*X24850Y11375D1*X23600Y11125D2*X18100Y11125D1*X9100Y12125D2*X9100Y11625D1*X8850Y11375*X7100Y11375*X6850Y11125*X7350Y10875D2*X7600Y11125D1*X9850Y11125*X10100Y11375*X10100Y12125*X15100Y10125D2*X15100Y12125D1*X25350Y8875D2*X25350Y10875D1*X24850Y11375*X18100Y12125D2*X18850Y11375D1*X18100Y11125D2*X17600Y11625D1*X23600Y11125D2*X23850Y10875D1*X23850Y8875*X18100Y5125D2*X18100Y5375D1*X18350Y5625*X25850Y5625*X26100Y5875*X26100Y9625*X26850Y8875D2*X26850Y10875D1*X26100Y11625*X19600Y11625*X19100Y12125*X19100Y12375*X18100Y13125*X17100Y13125D2*X17600Y12625D1*X17600Y11625*X17100Y12125D2*X17100Y11125D1*X17350Y10875*X21850Y10875*X22350Y10375*X22350Y8875*X23100Y9625D2*X23100Y6375D1*X22600Y5875*X17850Y5875*X17100Y5125*X16100Y4125D2*X16600Y4625D1*X16600Y5375*X17600Y6375*X19850Y6375*X20100Y6625*X20100Y9625*X20850Y8875D2*X20850Y10125D1*X20350Y10625*X16850Y10625*X16600Y10875*X16600Y12625*X16100Y13125*X16100Y12125D2*X16100Y10625D1*X16350Y10375*X18850Y10375*X19350Y9875*X19350Y8875*X17850Y8875D2*X17850Y9875D1*X17600Y10125*X18600Y9625D2*X18600Y7625D1*X18100Y7125*X17600Y7125*X16100Y5625*X16100Y5125*X13100Y5125D2*X13100Y7375D1*X12850Y7625*X12100Y7625*X11850Y7875*X8600Y5375D2*X8600Y4625D1*X9100Y4125*X10100Y5125D2*X10100Y6125D1*X9850Y6375*X8350Y6375*X8100Y6625*X6600Y5875D2*X6850Y5625D1*X8350Y5625*X8600Y5375*X9100Y5125D2*X9100Y5625D1*X8850Y5875*X7350Y5875*X7100Y6125*X7600Y6375D2*X7850Y6125D1*X9350Y6125*X9600Y5875*X9600Y4625*X10100Y4125*X11100Y4125D2*X10600Y4625D1*X10600Y6375*X10350Y6625*X8850Y6625*X8600Y6875*X9100Y7125D2*X9350Y6875D1*X10850Y6875*X11100Y6625*X11100Y5125*X12100Y5125D2*X12100Y6875D1*X11850Y7125*X11600Y7125*X11350Y7375*X10350Y7375*X10100Y7625*X9600Y7375D2*X9850Y7125D1*X11100Y7125*X11600Y6625*X11600Y4625*X12100Y4125*X13100Y4125D2*X12600Y4625D1*X12600Y7125*X12350Y7375*X11850Y7375*X11600Y7625*X10850Y7625*X10600Y7875*X11100Y8125D2*X11350Y7875D1*X11850Y7875*X12600Y8375D2*X12850Y8125D1*X13600Y8125*X13850Y7875*X13850Y5375*X14100Y5125*X15100Y5125D2*X15100Y7375D1*X15600Y7875*X16350Y8875D2*X16350Y9625D1*X16100Y9875*X15350Y9875*X15100Y10125*X14100Y12125D2*X14100Y9625D1*X12600Y12625D2*X13100Y13125D1*X13100Y12125D2*X13100Y10375D1*X12600Y9875*X12600Y9375*X12600Y8375*X14100Y9625D2*X13350Y8875D1*X14850Y8875D2*X14600Y9125D1*X14600Y12625*X14100Y13125*X15100Y13125D2*X15600Y12625D1*X15600Y10375*X15850Y10125*X17600Y10125*X17100Y9625D2*X17100Y7625D1*X15600Y6125*X15600Y4625*X15100Y4125*X14100Y4125D2*X13600Y4625D1*X13600Y7625*X13350Y7875*X12350Y7875*X12100Y8125*X11850Y8125*X11850Y8875*X11850Y10125*X12600Y10875*X12600Y12625*X11600Y12625D2*X12100Y13125D1*X12100Y12125D2*X12100Y11125D1*X11100Y10125*X9850Y10125*X9600Y9875*X8850Y8875D2*X8850Y10125D1*X9100Y10375*X10850Y10375*X11600Y11125*X11600Y12625*X10600Y12625D2*X11100Y13125D1*X11100Y12125D2*X11100Y11125D1*X10600Y10625*X8600Y10625*X8350Y10375*X5850Y8875D2*X5850Y9875D1*X6100Y10125*X7350Y10125*X7850Y10625*X8100Y10875*X10100Y10875*X10600Y11375*X10600Y12625*D10*X9100Y12125D3*X18100Y5125D3*D11*X18100Y4125D3*X9100Y4125D3*X10100Y4125D3*X11100Y4125D3*X12100Y4125D3*X13100Y4125D3*X14100Y4125D3*X15100Y4125D3*X16100Y4125D3*X17100Y4125D3*X17100Y5125D3*X16100Y5125D3*X15100Y5125D3*X14100Y5125D3*X13100Y5125D3*X12100Y5125D3*X11100Y5125D3*X10100Y5125D3*X9100Y5125D3*X9100Y13125D3*X10100Y13125D3*X11100Y13125D3*X12100Y13125D3*X13100Y13125D3*X14100Y13125D3*X15100Y13125D3*X16100Y13125D3*X17100Y13125D3*X18100Y13125D3*X18100Y12125D3*X17100Y12125D3*X16100Y12125D3*X15100Y12125D3*X14100Y12125D3*X13100Y12125D3*X12100Y12125D3*X11100Y12125D3*X10100Y12125D3*D12*X2100Y6625D3*X1350Y8875D3*X2850Y8875D3*X4350Y8875D3*X5850Y8875D3*X7350Y8875D3*X8850Y8875D3*X10350Y8875D3*X11850Y8875D3*X13350Y8875D3*X14850Y8875D3*X16350Y8875D3*X26850Y8875D3*X25350Y8875D3*X23850Y8875D3*X22350Y8875D3*X20850Y8875D3*X19350Y8875D3*X17850Y8875D3*D15*X6850Y11125D3*X26100Y9625D3*X23100Y9625D3*X20100Y9625D3*X18600Y9625D3*X17100Y9625D3*X15600Y7875D3*X12600Y9375D3*X6600Y5875D3*X7100Y6125D3*X7600Y6375D3*X8100Y6625D3*X8600Y6875D3*X9100Y7125D3*X9600Y7375D3*X10100Y7625D3*X10600Y7875D3*X11100Y8125D3*X9600Y9875D3*X8850Y10125D3*X8350Y10375D3*X7850Y10625D3*X7350Y10875D3*X0Y0D2*M02*