%
M48
M72
T01C0.0276
T02C0.0315
T03C0.0472
T04C0.1260
%
T01
X4725Y5285
X5225Y5785
X5725Y5285
X7225Y4910
X7725Y4410
X8225Y4910
X7725Y6660
X7225Y7160
X8225Y7160
X8100Y9160
X7600Y9660
X7100Y9160
X5725Y8410
X5225Y8910
X4725Y8410
X7100Y12035
X7600Y11535
X8100Y12035
X7725Y13785
X7225Y14285
X8225Y14285
X8225Y16285
X7725Y16785
X7225Y16285
X5725Y15535
X5225Y16035
X4725Y15535
X5225Y12910
X4725Y12410
X5725Y12410
X7600Y18660
X7100Y19160
X7725Y20910
X7225Y21410
X8225Y21410
X8100Y23410
X7600Y23910
X7100Y23410
X5725Y22660
X5225Y23160
X4725Y22660
X5225Y20035
X4725Y19535
X5725Y19535
X8100Y19160
X7600Y25785
X7100Y26285
X8100Y26285
X7725Y28035
X7225Y28535
X8225Y28535
X8100Y30535
X7600Y31035
X7100Y30535
X5725Y29785
X5225Y30285
X4725Y29785
X5225Y27160
X4725Y26660
X5725Y26660
X15225Y20410
X15725Y20910
X16225Y20410
X17225Y19910
X17225Y20910
X17725Y20410
X17600Y18285
X17100Y17785
X18100Y17785
X18350Y16035
X17850Y15535
X18350Y15035
X16975Y15660
X16475Y16160
X15975Y15660
X15725Y14785
X15225Y14285
X16225Y14285
T02
X17350Y12160
X19350Y12160
X19225Y16410
X18100Y16910
X19225Y18410
X19100Y19035
X20725Y18160
X20725Y17160
X17100Y19035
X16100Y19535
X16100Y17535
X16100Y16910
X13850Y16660
X12850Y16660
X11600Y16910
X11725Y18535
X12850Y18535
X13850Y18535
X13850Y20285
X12850Y20285
X14475Y22410
X14475Y24410
X10850Y21910
X10850Y20910
X9725Y18535
X9600Y16910
X8600Y15410
X9225Y15160
X9225Y13160
X8600Y12910
X6600Y12910
X6225Y13785
X6225Y14535
X6600Y15410
X6225Y16785
X6225Y18660
X6600Y20035
X6225Y20910
X6225Y21660
X6600Y22535
X6225Y23910
X6225Y25785
X6600Y27160
X6225Y28035
X6225Y28785
X6600Y29660
X6225Y31035
X4225Y31035
X4225Y28785
X4225Y28035
X2725Y27035
X2725Y26035
X4225Y25785
X4225Y23910
X4225Y21660
X4225Y20910
X4225Y18660
X4225Y16785
X4225Y14535
X4225Y13785
X4225Y11535
X4225Y9660
X2725Y9410
X2725Y8410
X4225Y7410
X4225Y6660
X4225Y4410
X2725Y4660
X2725Y5660
X6225Y6660
X6225Y7410
X6600Y8285
X6225Y9660
X6225Y11535
X8600Y8285
X9225Y8160
X9600Y9785
X10725Y7535
X10725Y6535
X10975Y4410
X9225Y6160
X8725Y5785
X6725Y5785
X6225Y4410
X2725Y11785
X2725Y12785
X2725Y15535
X2725Y16535
X2725Y18910
X2725Y19910
X2725Y22660
X2725Y23660
X2725Y29785
X2725Y30785
X8600Y29660
X9225Y29410
X10350Y31035
X10850Y29035
X10850Y28035
X9225Y27410
X8600Y27160
X8600Y22535
X9225Y22410
X9225Y20410
X8600Y20035
X10725Y14660
X10725Y13660
X12850Y14785
X13850Y14785
X11600Y9785
X12975Y4410
X12350Y31035
T03
X12600Y32160
X13975Y32160
X20725Y19910
X20725Y15410
X1600Y16035
X1600Y19410
X1600Y23160
X1600Y26535
X1600Y30285
X1600Y12285
X1600Y8910
X1600Y5160
T04
X1350Y3535
X1350Y31910
X20350Y31910
X20350Y3535
M30
