G75*
G70*
%OFA0B0*%
%FSLAX24Y24*%
%IPPOS*%
%LPD*%
%AMOC8*
5,1,8,0,0,1.08239X$1,22.5*
%
%ADD10C,0.0000*%
D10*
X000100Y002285D02*
X000100Y033160D01*
X021600Y033160D01*
X021600Y002285D01*
X000100Y002285D01*
X000720Y003535D02*
X000722Y003585D01*
X000728Y003635D01*
X000738Y003684D01*
X000752Y003732D01*
X000769Y003779D01*
X000790Y003824D01*
X000815Y003868D01*
X000843Y003909D01*
X000875Y003948D01*
X000909Y003985D01*
X000946Y004019D01*
X000986Y004049D01*
X001028Y004076D01*
X001072Y004100D01*
X001118Y004121D01*
X001165Y004137D01*
X001213Y004150D01*
X001263Y004159D01*
X001312Y004164D01*
X001363Y004165D01*
X001413Y004162D01*
X001462Y004155D01*
X001511Y004144D01*
X001559Y004129D01*
X001605Y004111D01*
X001650Y004089D01*
X001693Y004063D01*
X001734Y004034D01*
X001773Y004002D01*
X001809Y003967D01*
X001841Y003929D01*
X001871Y003889D01*
X001898Y003846D01*
X001921Y003802D01*
X001940Y003756D01*
X001956Y003708D01*
X001968Y003659D01*
X001976Y003610D01*
X001980Y003560D01*
X001980Y003510D01*
X001976Y003460D01*
X001968Y003411D01*
X001956Y003362D01*
X001940Y003314D01*
X001921Y003268D01*
X001898Y003224D01*
X001871Y003181D01*
X001841Y003141D01*
X001809Y003103D01*
X001773Y003068D01*
X001734Y003036D01*
X001693Y003007D01*
X001650Y002981D01*
X001605Y002959D01*
X001559Y002941D01*
X001511Y002926D01*
X001462Y002915D01*
X001413Y002908D01*
X001363Y002905D01*
X001312Y002906D01*
X001263Y002911D01*
X001213Y002920D01*
X001165Y002933D01*
X001118Y002949D01*
X001072Y002970D01*
X001028Y002994D01*
X000986Y003021D01*
X000946Y003051D01*
X000909Y003085D01*
X000875Y003122D01*
X000843Y003161D01*
X000815Y003202D01*
X000790Y003246D01*
X000769Y003291D01*
X000752Y003338D01*
X000738Y003386D01*
X000728Y003435D01*
X000722Y003485D01*
X000720Y003535D01*
X000720Y031910D02*
X000722Y031960D01*
X000728Y032010D01*
X000738Y032059D01*
X000752Y032107D01*
X000769Y032154D01*
X000790Y032199D01*
X000815Y032243D01*
X000843Y032284D01*
X000875Y032323D01*
X000909Y032360D01*
X000946Y032394D01*
X000986Y032424D01*
X001028Y032451D01*
X001072Y032475D01*
X001118Y032496D01*
X001165Y032512D01*
X001213Y032525D01*
X001263Y032534D01*
X001312Y032539D01*
X001363Y032540D01*
X001413Y032537D01*
X001462Y032530D01*
X001511Y032519D01*
X001559Y032504D01*
X001605Y032486D01*
X001650Y032464D01*
X001693Y032438D01*
X001734Y032409D01*
X001773Y032377D01*
X001809Y032342D01*
X001841Y032304D01*
X001871Y032264D01*
X001898Y032221D01*
X001921Y032177D01*
X001940Y032131D01*
X001956Y032083D01*
X001968Y032034D01*
X001976Y031985D01*
X001980Y031935D01*
X001980Y031885D01*
X001976Y031835D01*
X001968Y031786D01*
X001956Y031737D01*
X001940Y031689D01*
X001921Y031643D01*
X001898Y031599D01*
X001871Y031556D01*
X001841Y031516D01*
X001809Y031478D01*
X001773Y031443D01*
X001734Y031411D01*
X001693Y031382D01*
X001650Y031356D01*
X001605Y031334D01*
X001559Y031316D01*
X001511Y031301D01*
X001462Y031290D01*
X001413Y031283D01*
X001363Y031280D01*
X001312Y031281D01*
X001263Y031286D01*
X001213Y031295D01*
X001165Y031308D01*
X001118Y031324D01*
X001072Y031345D01*
X001028Y031369D01*
X000986Y031396D01*
X000946Y031426D01*
X000909Y031460D01*
X000875Y031497D01*
X000843Y031536D01*
X000815Y031577D01*
X000790Y031621D01*
X000769Y031666D01*
X000752Y031713D01*
X000738Y031761D01*
X000728Y031810D01*
X000722Y031860D01*
X000720Y031910D01*
X019720Y031910D02*
X019722Y031960D01*
X019728Y032010D01*
X019738Y032059D01*
X019752Y032107D01*
X019769Y032154D01*
X019790Y032199D01*
X019815Y032243D01*
X019843Y032284D01*
X019875Y032323D01*
X019909Y032360D01*
X019946Y032394D01*
X019986Y032424D01*
X020028Y032451D01*
X020072Y032475D01*
X020118Y032496D01*
X020165Y032512D01*
X020213Y032525D01*
X020263Y032534D01*
X020312Y032539D01*
X020363Y032540D01*
X020413Y032537D01*
X020462Y032530D01*
X020511Y032519D01*
X020559Y032504D01*
X020605Y032486D01*
X020650Y032464D01*
X020693Y032438D01*
X020734Y032409D01*
X020773Y032377D01*
X020809Y032342D01*
X020841Y032304D01*
X020871Y032264D01*
X020898Y032221D01*
X020921Y032177D01*
X020940Y032131D01*
X020956Y032083D01*
X020968Y032034D01*
X020976Y031985D01*
X020980Y031935D01*
X020980Y031885D01*
X020976Y031835D01*
X020968Y031786D01*
X020956Y031737D01*
X020940Y031689D01*
X020921Y031643D01*
X020898Y031599D01*
X020871Y031556D01*
X020841Y031516D01*
X020809Y031478D01*
X020773Y031443D01*
X020734Y031411D01*
X020693Y031382D01*
X020650Y031356D01*
X020605Y031334D01*
X020559Y031316D01*
X020511Y031301D01*
X020462Y031290D01*
X020413Y031283D01*
X020363Y031280D01*
X020312Y031281D01*
X020263Y031286D01*
X020213Y031295D01*
X020165Y031308D01*
X020118Y031324D01*
X020072Y031345D01*
X020028Y031369D01*
X019986Y031396D01*
X019946Y031426D01*
X019909Y031460D01*
X019875Y031497D01*
X019843Y031536D01*
X019815Y031577D01*
X019790Y031621D01*
X019769Y031666D01*
X019752Y031713D01*
X019738Y031761D01*
X019728Y031810D01*
X019722Y031860D01*
X019720Y031910D01*
X019720Y003535D02*
X019722Y003585D01*
X019728Y003635D01*
X019738Y003684D01*
X019752Y003732D01*
X019769Y003779D01*
X019790Y003824D01*
X019815Y003868D01*
X019843Y003909D01*
X019875Y003948D01*
X019909Y003985D01*
X019946Y004019D01*
X019986Y004049D01*
X020028Y004076D01*
X020072Y004100D01*
X020118Y004121D01*
X020165Y004137D01*
X020213Y004150D01*
X020263Y004159D01*
X020312Y004164D01*
X020363Y004165D01*
X020413Y004162D01*
X020462Y004155D01*
X020511Y004144D01*
X020559Y004129D01*
X020605Y004111D01*
X020650Y004089D01*
X020693Y004063D01*
X020734Y004034D01*
X020773Y004002D01*
X020809Y003967D01*
X020841Y003929D01*
X020871Y003889D01*
X020898Y003846D01*
X020921Y003802D01*
X020940Y003756D01*
X020956Y003708D01*
X020968Y003659D01*
X020976Y003610D01*
X020980Y003560D01*
X020980Y003510D01*
X020976Y003460D01*
X020968Y003411D01*
X020956Y003362D01*
X020940Y003314D01*
X020921Y003268D01*
X020898Y003224D01*
X020871Y003181D01*
X020841Y003141D01*
X020809Y003103D01*
X020773Y003068D01*
X020734Y003036D01*
X020693Y003007D01*
X020650Y002981D01*
X020605Y002959D01*
X020559Y002941D01*
X020511Y002926D01*
X020462Y002915D01*
X020413Y002908D01*
X020363Y002905D01*
X020312Y002906D01*
X020263Y002911D01*
X020213Y002920D01*
X020165Y002933D01*
X020118Y002949D01*
X020072Y002970D01*
X020028Y002994D01*
X019986Y003021D01*
X019946Y003051D01*
X019909Y003085D01*
X019875Y003122D01*
X019843Y003161D01*
X019815Y003202D01*
X019790Y003246D01*
X019769Y003291D01*
X019752Y003338D01*
X019738Y003386D01*
X019728Y003435D01*
X019722Y003485D01*
X019720Y003535D01*
M02*
