G75*
G70*
%OFA0B0*%
%FSLAX24Y24*%
%IPPOS*%
%LPD*%
%AMOC8*
5,1,8,0,0,1.08239X$1,22.5*
%
%ADD10C,0.0476*%
%ADD11C,0.0515*%
%ADD12C,0.0709*%
%ADD13C,0.0160*%
D10*
X004725Y005285D03*
X005225Y005785D03*
X005725Y005285D03*
X007225Y004910D03*
X007725Y004410D03*
X008225Y004910D03*
X007725Y006660D03*
X007225Y007160D03*
X008225Y007160D03*
X008100Y009160D03*
X007600Y009660D03*
X007100Y009160D03*
X005725Y008410D03*
X005225Y008910D03*
X004725Y008410D03*
X007100Y012035D03*
X007600Y011535D03*
X008100Y012035D03*
X007725Y013785D03*
X007225Y014285D03*
X008225Y014285D03*
X008225Y016285D03*
X007725Y016785D03*
X007225Y016285D03*
X005725Y015535D03*
X005225Y016035D03*
X004725Y015535D03*
X005225Y012910D03*
X004725Y012410D03*
X005725Y012410D03*
X007600Y018660D03*
X007100Y019160D03*
X007725Y020910D03*
X007225Y021410D03*
X008225Y021410D03*
X008100Y023410D03*
X007600Y023910D03*
X007100Y023410D03*
X005725Y022660D03*
X005225Y023160D03*
X004725Y022660D03*
X005225Y020035D03*
X004725Y019535D03*
X005725Y019535D03*
X008100Y019160D03*
X007600Y025785D03*
X007100Y026285D03*
X008100Y026285D03*
X007725Y028035D03*
X007225Y028535D03*
X008225Y028535D03*
X008100Y030535D03*
X007600Y031035D03*
X007100Y030535D03*
X005725Y029785D03*
X005225Y030285D03*
X004725Y029785D03*
X005225Y027160D03*
X004725Y026660D03*
X005725Y026660D03*
X015225Y020410D03*
X015725Y020910D03*
X016225Y020410D03*
X017225Y019910D03*
X017225Y020910D03*
X017725Y020410D03*
X017600Y018285D03*
X017100Y017785D03*
X018100Y017785D03*
X018350Y016035D03*
X017850Y015535D03*
X018350Y015035D03*
X016975Y015660D03*
X016475Y016160D03*
X015975Y015660D03*
X015725Y014785D03*
X015225Y014285D03*
X016225Y014285D03*
D11*
X017350Y012160D03*
X019350Y012160D03*
X019225Y016410D03*
X018100Y016910D03*
X019225Y018410D03*
X019100Y019035D03*
X020725Y018160D03*
X020725Y017160D03*
X017100Y019035D03*
X016100Y019535D03*
X016100Y017535D03*
X016100Y016910D03*
X013850Y016660D03*
X012850Y016660D03*
X011600Y016910D03*
X011725Y018535D03*
X012850Y018535D03*
X013850Y018535D03*
X013850Y020285D03*
X012850Y020285D03*
X014475Y022410D03*
X014475Y024410D03*
X010850Y021910D03*
X010850Y020910D03*
X009725Y018535D03*
X009600Y016910D03*
X008600Y015410D03*
X009225Y015160D03*
X009225Y013160D03*
X008600Y012910D03*
X006600Y012910D03*
X006225Y013785D03*
X006225Y014535D03*
X006600Y015410D03*
X006225Y016785D03*
X006225Y018660D03*
X006600Y020035D03*
X006225Y020910D03*
X006225Y021660D03*
X006600Y022535D03*
X006225Y023910D03*
X006225Y025785D03*
X006600Y027160D03*
X006225Y028035D03*
X006225Y028785D03*
X006600Y029660D03*
X006225Y031035D03*
X004225Y031035D03*
X004225Y028785D03*
X004225Y028035D03*
X002725Y027035D03*
X002725Y026035D03*
X004225Y025785D03*
X004225Y023910D03*
X004225Y021660D03*
X004225Y020910D03*
X004225Y018660D03*
X004225Y016785D03*
X004225Y014535D03*
X004225Y013785D03*
X004225Y011535D03*
X004225Y009660D03*
X002725Y009410D03*
X002725Y008410D03*
X004225Y007410D03*
X004225Y006660D03*
X004225Y004410D03*
X002725Y004660D03*
X002725Y005660D03*
X006225Y006660D03*
X006225Y007410D03*
X006600Y008285D03*
X006225Y009660D03*
X006225Y011535D03*
X008600Y008285D03*
X009225Y008160D03*
X009600Y009785D03*
X010725Y007535D03*
X010725Y006535D03*
X010975Y004410D03*
X009225Y006160D03*
X008725Y005785D03*
X006725Y005785D03*
X006225Y004410D03*
X002725Y011785D03*
X002725Y012785D03*
X002725Y015535D03*
X002725Y016535D03*
X002725Y018910D03*
X002725Y019910D03*
X002725Y022660D03*
X002725Y023660D03*
X002725Y029785D03*
X002725Y030785D03*
X008600Y029660D03*
X009225Y029410D03*
X010350Y031035D03*
X010850Y029035D03*
X010850Y028035D03*
X009225Y027410D03*
X008600Y027160D03*
X008600Y022535D03*
X009225Y022410D03*
X009225Y020410D03*
X008600Y020035D03*
X010725Y014660D03*
X010725Y013660D03*
X012850Y014785D03*
X013850Y014785D03*
X011600Y009785D03*
X012975Y004410D03*
X012350Y031035D03*
D12*
X012600Y032160D03*
X013975Y032160D03*
X020725Y019910D03*
X020725Y015410D03*
X001600Y016035D03*
X001600Y019410D03*
X001600Y023160D03*
X001600Y026535D03*
X001600Y030285D03*
X001600Y012285D03*
X001600Y008910D03*
X001600Y005160D03*
D13*
X002238Y002854D02*
X002150Y002765D01*
X019550Y002765D01*
X019462Y002854D01*
X019316Y003107D01*
X019240Y003389D01*
X019240Y003681D01*
X019316Y003964D01*
X019462Y004217D01*
X019668Y004423D01*
X019922Y004569D01*
X020204Y004645D01*
X020496Y004645D01*
X020608Y004615D01*
X020651Y014896D01*
X020623Y014896D01*
X020434Y014974D01*
X020289Y015119D01*
X020211Y015308D01*
X020211Y015513D01*
X020289Y015702D01*
X020434Y015846D01*
X020623Y015925D01*
X020655Y015925D01*
X020659Y016728D01*
X020623Y016733D01*
X020557Y016755D01*
X020496Y016786D01*
X020440Y016827D01*
X020391Y016875D01*
X020351Y016931D01*
X020320Y016992D01*
X020298Y017058D01*
X020288Y017126D01*
X020288Y017160D01*
X020661Y017160D01*
X020661Y017160D01*
X020288Y017160D01*
X020288Y017195D01*
X020298Y017263D01*
X020320Y017328D01*
X020351Y017389D01*
X020391Y017445D01*
X020440Y017494D01*
X020496Y017534D01*
X020557Y017566D01*
X020623Y017587D01*
X020662Y017593D01*
X020663Y017743D01*
X020642Y017743D01*
X020489Y017806D01*
X020371Y017924D01*
X020308Y018077D01*
X020308Y018243D01*
X020371Y018397D01*
X020489Y018514D01*
X020642Y018578D01*
X020667Y018578D01*
X020670Y019396D01*
X020623Y019396D01*
X020434Y019474D01*
X020289Y019619D01*
X020211Y019808D01*
X020211Y020013D01*
X020289Y020202D01*
X020434Y020346D01*
X020623Y020425D01*
X020674Y020425D01*
X020718Y030860D01*
X020496Y030800D01*
X020204Y030800D01*
X019922Y030876D01*
X019668Y031022D01*
X019462Y031229D01*
X019316Y031482D01*
X019240Y031764D01*
X019240Y032056D01*
X019316Y032339D01*
X019434Y032543D01*
X014286Y032576D01*
X014411Y032452D01*
X014489Y032263D01*
X014489Y032058D01*
X014411Y031869D01*
X014266Y031724D01*
X014077Y031646D01*
X013873Y031646D01*
X013684Y031724D01*
X013539Y031869D01*
X013461Y032058D01*
X013461Y032263D01*
X013539Y032452D01*
X013668Y032580D01*
X012925Y032585D01*
X012948Y032568D01*
X013008Y032508D01*
X013057Y032440D01*
X013095Y032365D01*
X013121Y032285D01*
X013134Y032202D01*
X013134Y032198D01*
X012638Y032198D01*
X012638Y032122D01*
X012638Y031626D01*
X012642Y031626D01*
X012725Y031639D01*
X012805Y031665D01*
X012880Y031703D01*
X012948Y031753D01*
X013008Y031812D01*
X013057Y031880D01*
X013095Y031955D01*
X013121Y032035D01*
X013134Y032118D01*
X013134Y032122D01*
X012638Y032122D01*
X012562Y032122D01*
X012562Y031626D01*
X012558Y031626D01*
X012475Y031639D01*
X012395Y031665D01*
X012320Y031703D01*
X012252Y031753D01*
X012192Y031812D01*
X012143Y031880D01*
X012105Y031955D01*
X012079Y032035D01*
X012066Y032118D01*
X012066Y032122D01*
X012562Y032122D01*
X012562Y032198D01*
X012066Y032198D01*
X012066Y032202D01*
X012079Y032285D01*
X012105Y032365D01*
X012143Y032440D01*
X012192Y032508D01*
X012252Y032568D01*
X012281Y032589D01*
X002177Y032653D01*
X002238Y032592D01*
X002384Y032339D01*
X002460Y032056D01*
X002460Y031764D01*
X002384Y031482D01*
X002238Y031229D01*
X002032Y031022D01*
X001778Y030876D01*
X001496Y030800D01*
X001204Y030800D01*
X001100Y030828D01*
X001100Y030422D01*
X001164Y030577D01*
X001309Y030721D01*
X001498Y030800D01*
X001702Y030800D01*
X001891Y030721D01*
X002036Y030577D01*
X002114Y030388D01*
X002114Y030183D01*
X002036Y029994D01*
X001891Y029849D01*
X001702Y029771D01*
X001498Y029771D01*
X001309Y029849D01*
X001164Y029994D01*
X001100Y030148D01*
X001100Y026672D01*
X001164Y026827D01*
X001309Y026971D01*
X001498Y027050D01*
X001702Y027050D01*
X001891Y026971D01*
X002036Y026827D01*
X002114Y026638D01*
X002114Y026433D01*
X002036Y026244D01*
X001891Y026099D01*
X001702Y026021D01*
X001498Y026021D01*
X001309Y026099D01*
X001164Y026244D01*
X001100Y026398D01*
X001100Y023297D01*
X001164Y023452D01*
X001309Y023596D01*
X001498Y023675D01*
X001702Y023675D01*
X001891Y023596D01*
X002036Y023452D01*
X002114Y023263D01*
X002114Y023058D01*
X002036Y022869D01*
X001891Y022724D01*
X001702Y022646D01*
X001498Y022646D01*
X001309Y022724D01*
X001164Y022869D01*
X001100Y023023D01*
X001100Y019547D01*
X001164Y019702D01*
X001309Y019846D01*
X001498Y019925D01*
X001702Y019925D01*
X001891Y019846D01*
X002036Y019702D01*
X002114Y019513D01*
X002114Y019308D01*
X002036Y019119D01*
X001891Y018974D01*
X001702Y018896D01*
X001498Y018896D01*
X001309Y018974D01*
X001164Y019119D01*
X001100Y019273D01*
X001100Y016172D01*
X001164Y016327D01*
X001309Y016471D01*
X001498Y016550D01*
X001702Y016550D01*
X001891Y016471D01*
X002036Y016327D01*
X002114Y016138D01*
X002114Y015933D01*
X002036Y015744D01*
X001891Y015599D01*
X001702Y015521D01*
X001498Y015521D01*
X001309Y015599D01*
X001164Y015744D01*
X001100Y015898D01*
X001100Y012422D01*
X001164Y012577D01*
X001309Y012721D01*
X001498Y012800D01*
X001702Y012800D01*
X001891Y012721D01*
X002036Y012577D01*
X002114Y012388D01*
X002114Y012183D01*
X002036Y011994D01*
X001891Y011849D01*
X001702Y011771D01*
X001498Y011771D01*
X001309Y011849D01*
X001164Y011994D01*
X001100Y012148D01*
X001100Y009047D01*
X001164Y009202D01*
X001309Y009346D01*
X001498Y009425D01*
X001702Y009425D01*
X001891Y009346D01*
X002036Y009202D01*
X002114Y009013D01*
X002114Y008808D01*
X002036Y008619D01*
X001891Y008474D01*
X001702Y008396D01*
X001498Y008396D01*
X001309Y008474D01*
X001164Y008619D01*
X001100Y008773D01*
X001100Y005297D01*
X001164Y005452D01*
X001309Y005596D01*
X001498Y005675D01*
X001702Y005675D01*
X001891Y005596D01*
X002036Y005452D01*
X002114Y005263D01*
X002114Y005058D01*
X002036Y004869D01*
X001891Y004724D01*
X001702Y004646D01*
X001498Y004646D01*
X001309Y004724D01*
X001164Y004869D01*
X001100Y005023D01*
X001100Y004617D01*
X001204Y004645D01*
X001496Y004645D01*
X001778Y004569D01*
X002032Y004423D01*
X002238Y004217D01*
X002384Y003964D01*
X002460Y003681D01*
X002460Y003389D01*
X002384Y003107D01*
X002238Y002854D01*
X002276Y002919D02*
X019424Y002919D01*
X019333Y003078D02*
X002367Y003078D01*
X002419Y003236D02*
X019281Y003236D01*
X019240Y003395D02*
X002460Y003395D01*
X002460Y003553D02*
X019240Y003553D01*
X019248Y003712D02*
X002452Y003712D01*
X002409Y003870D02*
X019291Y003870D01*
X019353Y004029D02*
X013145Y004029D01*
X013211Y004056D02*
X013329Y004174D01*
X013392Y004327D01*
X013392Y004493D01*
X013329Y004647D01*
X013211Y004764D01*
X013058Y004828D01*
X012892Y004828D01*
X012739Y004764D01*
X012621Y004647D01*
X012558Y004493D01*
X012558Y004327D01*
X012621Y004174D01*
X012739Y004056D01*
X012892Y003993D01*
X013058Y003993D01*
X013211Y004056D01*
X013335Y004187D02*
X019445Y004187D01*
X019591Y004346D02*
X013392Y004346D01*
X013388Y004504D02*
X019809Y004504D01*
X020608Y004663D02*
X013313Y004663D01*
X013074Y004821D02*
X020609Y004821D01*
X020610Y004980D02*
X008623Y004980D01*
X008623Y004989D02*
X008562Y005136D01*
X008450Y005247D01*
X008304Y005308D01*
X008146Y005308D01*
X008000Y005247D01*
X007888Y005136D01*
X007827Y004989D01*
X007827Y004831D01*
X007844Y004792D01*
X007804Y004808D01*
X007646Y004808D01*
X007606Y004792D01*
X007623Y004831D01*
X007623Y004989D01*
X007562Y005136D01*
X007450Y005247D01*
X007304Y005308D01*
X007146Y005308D01*
X007000Y005247D01*
X006888Y005136D01*
X006827Y004989D01*
X006827Y004831D01*
X006888Y004685D01*
X007000Y004573D01*
X007146Y004512D01*
X007304Y004512D01*
X007344Y004529D01*
X007327Y004489D01*
X007327Y004331D01*
X007388Y004185D01*
X007500Y004073D01*
X007646Y004012D01*
X007804Y004012D01*
X007950Y004073D01*
X008062Y004185D01*
X008123Y004331D01*
X008123Y004489D01*
X008106Y004529D01*
X008146Y004512D01*
X008304Y004512D01*
X008450Y004573D01*
X008562Y004685D01*
X008623Y004831D01*
X008623Y004989D01*
X008560Y005138D02*
X020610Y005138D01*
X020611Y005297D02*
X008331Y005297D01*
X008440Y005452D02*
X008496Y005411D01*
X008557Y005380D01*
X008623Y005358D01*
X008691Y005348D01*
X008725Y005348D01*
X008759Y005348D01*
X008827Y005358D01*
X008893Y005380D01*
X008954Y005411D01*
X009010Y005452D01*
X009059Y005500D01*
X009099Y005556D01*
X009130Y005617D01*
X009152Y005683D01*
X009161Y005743D01*
X009308Y005743D01*
X009461Y005806D01*
X009579Y005924D01*
X009642Y006077D01*
X009642Y006243D01*
X009579Y006397D01*
X009461Y006514D01*
X009308Y006578D01*
X009142Y006578D01*
X008989Y006514D01*
X008871Y006397D01*
X008808Y006243D01*
X008808Y006215D01*
X008759Y006223D01*
X008725Y006223D01*
X008691Y006223D01*
X008623Y006212D01*
X008557Y006191D01*
X008496Y006159D01*
X008440Y006119D01*
X008391Y006070D01*
X008351Y006014D01*
X008320Y005953D01*
X008298Y005888D01*
X008288Y005820D01*
X008288Y005785D01*
X008288Y005751D01*
X008298Y005683D01*
X008320Y005617D01*
X008351Y005556D01*
X008391Y005500D01*
X008440Y005452D01*
X008436Y005455D02*
X006985Y005455D01*
X006961Y005431D02*
X007079Y005549D01*
X007142Y005702D01*
X007142Y005868D01*
X007079Y006022D01*
X006961Y006139D01*
X006808Y006203D01*
X006642Y006203D01*
X006489Y006139D01*
X006371Y006022D01*
X006308Y005868D01*
X006308Y005702D01*
X006371Y005549D01*
X006489Y005431D01*
X006642Y005368D01*
X006808Y005368D01*
X006961Y005431D01*
X007119Y005297D02*
X006123Y005297D01*
X006123Y005364D02*
X006123Y005206D01*
X006062Y005060D01*
X005950Y004948D01*
X005804Y004887D01*
X005646Y004887D01*
X005500Y004948D01*
X005388Y005060D01*
X005327Y005206D01*
X005327Y005364D01*
X005344Y005404D01*
X005304Y005387D01*
X005146Y005387D01*
X005106Y005404D01*
X005123Y005364D01*
X005123Y005206D01*
X005062Y005060D01*
X004950Y004948D01*
X004804Y004887D01*
X004646Y004887D01*
X004500Y004948D01*
X004388Y005060D01*
X004327Y005206D01*
X004327Y005364D01*
X004388Y005511D01*
X004500Y005622D01*
X004646Y005683D01*
X004804Y005683D01*
X004844Y005667D01*
X004827Y005706D01*
X004827Y005864D01*
X004888Y006011D01*
X005000Y006122D01*
X005146Y006183D01*
X005304Y006183D01*
X005450Y006122D01*
X005562Y006011D01*
X005623Y005864D01*
X005623Y005706D01*
X005606Y005667D01*
X005646Y005683D01*
X005804Y005683D01*
X005950Y005622D01*
X006062Y005511D01*
X006123Y005364D01*
X006085Y005455D02*
X006465Y005455D01*
X006344Y005614D02*
X005959Y005614D01*
X005623Y005772D02*
X006308Y005772D01*
X006333Y005931D02*
X005595Y005931D01*
X005484Y006089D02*
X006439Y006089D01*
X006320Y006248D02*
X008809Y006248D01*
X008725Y006223D02*
X008725Y005785D01*
X008725Y005348D01*
X008725Y005785D01*
X008725Y005785D01*
X008288Y005785D01*
X008725Y005785D01*
X008725Y005785D01*
X008725Y006223D01*
X008725Y006089D02*
X008725Y006089D01*
X008725Y005931D02*
X008725Y005931D01*
X008725Y005785D02*
X008725Y005785D01*
X008725Y005772D02*
X008725Y005772D01*
X008725Y005614D02*
X008725Y005614D01*
X008725Y005455D02*
X008725Y005455D01*
X008321Y005614D02*
X007106Y005614D01*
X007142Y005772D02*
X008288Y005772D01*
X008312Y005931D02*
X007117Y005931D01*
X007011Y006089D02*
X008410Y006089D01*
X008062Y006435D02*
X008123Y006581D01*
X008123Y006739D01*
X008106Y006779D01*
X008146Y006762D01*
X008304Y006762D01*
X008450Y006823D01*
X008562Y006935D01*
X008623Y007081D01*
X008623Y007239D01*
X008562Y007386D01*
X008450Y007497D01*
X008304Y007558D01*
X008146Y007558D01*
X008000Y007497D01*
X007888Y007386D01*
X007827Y007239D01*
X007827Y007081D01*
X007844Y007042D01*
X007804Y007058D01*
X007646Y007058D01*
X007606Y007042D01*
X007623Y007081D01*
X007623Y007239D01*
X007562Y007386D01*
X007450Y007497D01*
X007304Y007558D01*
X007146Y007558D01*
X007000Y007497D01*
X006888Y007386D01*
X006827Y007239D01*
X006827Y007081D01*
X006888Y006935D01*
X007000Y006823D01*
X007146Y006762D01*
X007304Y006762D01*
X007344Y006779D01*
X007327Y006739D01*
X007327Y006581D01*
X007388Y006435D01*
X007500Y006323D01*
X007646Y006262D01*
X007804Y006262D01*
X007950Y006323D01*
X008062Y006435D01*
X008034Y006406D02*
X008881Y006406D01*
X009111Y006565D02*
X008116Y006565D01*
X008123Y006723D02*
X010351Y006723D01*
X010371Y006772D02*
X010308Y006618D01*
X010308Y006452D01*
X010371Y006299D01*
X010489Y006181D01*
X010642Y006118D01*
X010808Y006118D01*
X010961Y006181D01*
X011079Y006299D01*
X011142Y006452D01*
X011142Y006618D01*
X011079Y006772D01*
X010961Y006889D01*
X010808Y006953D01*
X010642Y006953D01*
X010489Y006889D01*
X010371Y006772D01*
X010481Y006882D02*
X008509Y006882D01*
X008606Y007040D02*
X020618Y007040D01*
X020618Y006882D02*
X010969Y006882D01*
X011099Y006723D02*
X020617Y006723D01*
X020616Y006565D02*
X011142Y006565D01*
X011123Y006406D02*
X020616Y006406D01*
X020615Y006248D02*
X011028Y006248D01*
X010422Y006248D02*
X009641Y006248D01*
X009642Y006089D02*
X020614Y006089D01*
X020614Y005931D02*
X009582Y005931D01*
X009379Y005772D02*
X020613Y005772D01*
X020612Y005614D02*
X009129Y005614D01*
X009014Y005455D02*
X020612Y005455D01*
X020619Y007199D02*
X011006Y007199D01*
X011010Y007202D02*
X011059Y007250D01*
X011099Y007306D01*
X011130Y007367D01*
X011152Y007433D01*
X011162Y007501D01*
X011162Y007535D01*
X010725Y007535D01*
X010725Y007098D01*
X010759Y007098D01*
X010827Y007108D01*
X010893Y007130D01*
X010954Y007161D01*
X011010Y007202D01*
X011125Y007357D02*
X020620Y007357D01*
X020620Y007516D02*
X011162Y007516D01*
X011162Y007535D02*
X011162Y007570D01*
X011152Y007638D01*
X011130Y007703D01*
X011099Y007764D01*
X011059Y007820D01*
X011010Y007869D01*
X010954Y007909D01*
X010893Y007941D01*
X010827Y007962D01*
X010759Y007973D01*
X010725Y007973D01*
X010691Y007973D01*
X010623Y007962D01*
X010557Y007941D01*
X010496Y007909D01*
X010440Y007869D01*
X010391Y007820D01*
X010351Y007764D01*
X010320Y007703D01*
X010298Y007638D01*
X010288Y007570D01*
X010288Y007535D01*
X010288Y007501D01*
X010298Y007433D01*
X010320Y007367D01*
X010351Y007306D01*
X010391Y007250D01*
X010440Y007202D01*
X010496Y007161D01*
X010557Y007130D01*
X010623Y007108D01*
X010691Y007098D01*
X010725Y007098D01*
X010725Y007535D01*
X010725Y007535D01*
X010288Y007535D01*
X010725Y007535D01*
X010725Y007535D01*
X010725Y007535D01*
X011162Y007535D01*
X011140Y007674D02*
X020621Y007674D01*
X020622Y007833D02*
X011046Y007833D01*
X010725Y007833D02*
X010725Y007833D01*
X010725Y007973D02*
X010725Y007535D01*
X010725Y007973D01*
X010725Y007674D02*
X010725Y007674D01*
X010725Y007535D02*
X010725Y007535D01*
X010725Y007516D02*
X010725Y007516D01*
X010725Y007357D02*
X010725Y007357D01*
X010725Y007199D02*
X010725Y007199D01*
X010444Y007199D02*
X008623Y007199D01*
X008574Y007357D02*
X010325Y007357D01*
X010288Y007516D02*
X008406Y007516D01*
X008498Y007858D02*
X008566Y007848D01*
X008600Y007848D01*
X008634Y007848D01*
X008702Y007858D01*
X008768Y007880D01*
X008829Y007911D01*
X008865Y007937D01*
X008871Y007924D01*
X008989Y007806D01*
X009142Y007743D01*
X009308Y007743D01*
X009461Y007806D01*
X009579Y007924D01*
X009642Y008077D01*
X009642Y008243D01*
X009579Y008397D01*
X009461Y008514D01*
X009308Y008578D01*
X009142Y008578D01*
X008989Y008514D01*
X008979Y008505D01*
X008974Y008514D01*
X008934Y008570D01*
X008885Y008619D01*
X008829Y008659D01*
X008768Y008691D01*
X008702Y008712D01*
X008634Y008723D01*
X008600Y008723D01*
X008566Y008723D01*
X008498Y008712D01*
X008432Y008691D01*
X008371Y008659D01*
X008315Y008619D01*
X008266Y008570D01*
X008226Y008514D01*
X008195Y008453D01*
X008173Y008388D01*
X008163Y008320D01*
X008163Y008285D01*
X008163Y008251D01*
X008173Y008183D01*
X008195Y008117D01*
X008226Y008056D01*
X008266Y008000D01*
X008315Y007952D01*
X008371Y007911D01*
X008432Y007880D01*
X008498Y007858D01*
X008600Y007848D02*
X008600Y008285D01*
X008600Y007848D01*
X008600Y007991D02*
X008600Y007991D01*
X008600Y008150D02*
X008600Y008150D01*
X008600Y008285D02*
X008600Y008285D01*
X008163Y008285D01*
X008600Y008285D01*
X008600Y008285D01*
X008600Y008723D01*
X008600Y008285D01*
X008600Y008285D01*
X008600Y008308D02*
X008600Y008308D01*
X008600Y008467D02*
X008600Y008467D01*
X008600Y008625D02*
X008600Y008625D01*
X008324Y008625D02*
X006850Y008625D01*
X006836Y008639D02*
X006683Y008703D01*
X006517Y008703D01*
X006364Y008639D01*
X006246Y008522D01*
X006183Y008368D01*
X006183Y008202D01*
X006246Y008049D01*
X006364Y007931D01*
X006517Y007868D01*
X006683Y007868D01*
X006836Y007931D01*
X006954Y008049D01*
X007017Y008202D01*
X007017Y008368D01*
X006954Y008522D01*
X006836Y008639D01*
X006875Y008823D02*
X007021Y008762D01*
X007179Y008762D01*
X007325Y008823D01*
X007437Y008935D01*
X007498Y009081D01*
X007498Y009239D01*
X007481Y009279D01*
X007521Y009262D01*
X007679Y009262D01*
X007719Y009279D01*
X007702Y009239D01*
X007702Y009081D01*
X007763Y008935D01*
X007875Y008823D01*
X008021Y008762D01*
X008179Y008762D01*
X008325Y008823D01*
X008437Y008935D01*
X008498Y009081D01*
X008498Y009239D01*
X008437Y009386D01*
X008325Y009497D01*
X008179Y009558D01*
X008021Y009558D01*
X007981Y009542D01*
X007998Y009581D01*
X007998Y009739D01*
X007937Y009886D01*
X007825Y009997D01*
X007679Y010058D01*
X007521Y010058D01*
X007375Y009997D01*
X007263Y009886D01*
X007202Y009739D01*
X007202Y009581D01*
X007219Y009542D01*
X007179Y009558D01*
X007021Y009558D01*
X006875Y009497D01*
X006763Y009386D01*
X006702Y009239D01*
X006702Y009081D01*
X006763Y008935D01*
X006875Y008823D01*
X006969Y008784D02*
X005863Y008784D01*
X005804Y008808D02*
X005646Y008808D01*
X005606Y008792D01*
X005623Y008831D01*
X005623Y008989D01*
X005562Y009136D01*
X005450Y009247D01*
X005304Y009308D01*
X005146Y009308D01*
X005000Y009247D01*
X004888Y009136D01*
X004827Y008989D01*
X004827Y008831D01*
X004844Y008792D01*
X004804Y008808D01*
X004646Y008808D01*
X004500Y008747D01*
X004388Y008636D01*
X004327Y008489D01*
X004327Y008331D01*
X004388Y008185D01*
X004500Y008073D01*
X004646Y008012D01*
X004804Y008012D01*
X004950Y008073D01*
X005062Y008185D01*
X005123Y008331D01*
X005123Y008489D01*
X005106Y008529D01*
X005146Y008512D01*
X005304Y008512D01*
X005344Y008529D01*
X005327Y008489D01*
X005327Y008331D01*
X005388Y008185D01*
X005500Y008073D01*
X005646Y008012D01*
X005804Y008012D01*
X005950Y008073D01*
X006062Y008185D01*
X006123Y008331D01*
X006123Y008489D01*
X006062Y008636D01*
X005950Y008747D01*
X005804Y008808D01*
X005623Y008942D02*
X006760Y008942D01*
X006702Y009101D02*
X005577Y009101D01*
X005422Y009259D02*
X006102Y009259D01*
X006142Y009243D02*
X005989Y009306D01*
X005871Y009424D01*
X005808Y009577D01*
X005808Y009743D01*
X005871Y009897D01*
X005989Y010014D01*
X006142Y010078D01*
X006308Y010078D01*
X006461Y010014D01*
X006579Y009897D01*
X006642Y009743D01*
X006642Y009577D01*
X006579Y009424D01*
X006461Y009306D01*
X006308Y009243D01*
X006142Y009243D01*
X006348Y009259D02*
X006710Y009259D01*
X006795Y009418D02*
X006573Y009418D01*
X006642Y009576D02*
X007204Y009576D01*
X007202Y009735D02*
X006642Y009735D01*
X006580Y009893D02*
X007270Y009893D01*
X007506Y010052D02*
X006371Y010052D01*
X006079Y010052D02*
X004371Y010052D01*
X004308Y010078D02*
X004142Y010078D01*
X003989Y010014D01*
X003871Y009897D01*
X003808Y009743D01*
X003808Y009577D01*
X003871Y009424D01*
X003989Y009306D01*
X004142Y009243D01*
X004308Y009243D01*
X004461Y009306D01*
X004579Y009424D01*
X004642Y009577D01*
X004642Y009743D01*
X004579Y009897D01*
X004461Y010014D01*
X004308Y010078D01*
X004079Y010052D02*
X001100Y010052D01*
X001100Y010210D02*
X020632Y010210D01*
X020631Y010052D02*
X011924Y010052D01*
X011954Y010022D02*
X011836Y010139D01*
X011683Y010203D01*
X011517Y010203D01*
X011364Y010139D01*
X011246Y010022D01*
X011183Y009868D01*
X011183Y009702D01*
X011246Y009549D01*
X011364Y009431D01*
X011517Y009368D01*
X011683Y009368D01*
X011836Y009431D01*
X011954Y009549D01*
X012017Y009702D01*
X012017Y009868D01*
X011954Y010022D01*
X012007Y009893D02*
X020630Y009893D01*
X020630Y009735D02*
X012017Y009735D01*
X011965Y009576D02*
X020629Y009576D01*
X020628Y009418D02*
X011804Y009418D01*
X011396Y009418D02*
X009804Y009418D01*
X009836Y009431D02*
X009954Y009549D01*
X010017Y009702D01*
X010017Y009868D01*
X009954Y010022D01*
X009836Y010139D01*
X009683Y010203D01*
X009517Y010203D01*
X009364Y010139D01*
X009246Y010022D01*
X009183Y009868D01*
X009183Y009702D01*
X009246Y009549D01*
X009364Y009431D01*
X009517Y009368D01*
X009683Y009368D01*
X009836Y009431D01*
X009965Y009576D02*
X011235Y009576D01*
X011183Y009735D02*
X010017Y009735D01*
X010007Y009893D02*
X011193Y009893D01*
X011276Y010052D02*
X009924Y010052D01*
X009276Y010052D02*
X007694Y010052D01*
X007930Y009893D02*
X009193Y009893D01*
X009183Y009735D02*
X007998Y009735D01*
X007996Y009576D02*
X009235Y009576D01*
X009396Y009418D02*
X008405Y009418D01*
X008490Y009259D02*
X020628Y009259D01*
X020627Y009101D02*
X008498Y009101D01*
X008440Y008942D02*
X020626Y008942D01*
X020626Y008784D02*
X008231Y008784D01*
X007969Y008784D02*
X007231Y008784D01*
X007440Y008942D02*
X007760Y008942D01*
X007702Y009101D02*
X007498Y009101D01*
X007490Y009259D02*
X007710Y009259D01*
X008201Y008467D02*
X006977Y008467D01*
X007017Y008308D02*
X008163Y008308D01*
X008184Y008150D02*
X006996Y008150D01*
X006896Y007991D02*
X008275Y007991D01*
X008044Y007516D02*
X007406Y007516D01*
X007574Y007357D02*
X007876Y007357D01*
X007827Y007199D02*
X007623Y007199D01*
X007327Y006723D02*
X006642Y006723D01*
X006642Y006743D02*
X006642Y006577D01*
X006579Y006424D01*
X006461Y006306D01*
X006308Y006243D01*
X006142Y006243D01*
X005989Y006306D01*
X005871Y006424D01*
X005808Y006577D01*
X005808Y006743D01*
X005871Y006897D01*
X005989Y007014D01*
X006039Y007035D01*
X005989Y007056D01*
X005871Y007174D01*
X005808Y007327D01*
X005808Y007493D01*
X005871Y007647D01*
X005989Y007764D01*
X006142Y007828D01*
X006308Y007828D01*
X006461Y007764D01*
X006579Y007647D01*
X006642Y007493D01*
X006642Y007327D01*
X006579Y007174D01*
X006461Y007056D01*
X006411Y007035D01*
X006461Y007014D01*
X006579Y006897D01*
X006642Y006743D01*
X006585Y006882D02*
X006941Y006882D01*
X006844Y007040D02*
X006423Y007040D01*
X006589Y007199D02*
X006827Y007199D01*
X006876Y007357D02*
X006642Y007357D01*
X006633Y007516D02*
X007044Y007516D01*
X006551Y007674D02*
X010310Y007674D01*
X010404Y007833D02*
X009488Y007833D01*
X009607Y007991D02*
X020622Y007991D01*
X020623Y008150D02*
X009642Y008150D01*
X009616Y008308D02*
X020624Y008308D01*
X020624Y008467D02*
X009509Y008467D01*
X008876Y008625D02*
X020625Y008625D01*
X020632Y010369D02*
X001100Y010369D01*
X001100Y010527D02*
X020633Y010527D01*
X020634Y010686D02*
X001100Y010686D01*
X001100Y010844D02*
X020634Y010844D01*
X020635Y011003D02*
X001100Y011003D01*
X001100Y011161D02*
X004037Y011161D01*
X003989Y011181D02*
X004142Y011118D01*
X004308Y011118D01*
X004461Y011181D01*
X004579Y011299D01*
X004642Y011452D01*
X004642Y011618D01*
X004579Y011772D01*
X004461Y011889D01*
X004308Y011953D01*
X004142Y011953D01*
X003989Y011889D01*
X003871Y011772D01*
X003808Y011618D01*
X003808Y011452D01*
X003871Y011299D01*
X003989Y011181D01*
X003862Y011320D02*
X001100Y011320D01*
X001100Y011478D02*
X002442Y011478D01*
X002489Y011431D02*
X002642Y011368D01*
X002808Y011368D01*
X002961Y011431D01*
X003079Y011549D01*
X003142Y011702D01*
X003142Y011868D01*
X003079Y012022D01*
X002961Y012139D01*
X002808Y012203D01*
X002642Y012203D01*
X002489Y012139D01*
X002371Y012022D01*
X002308Y011868D01*
X002308Y011702D01*
X002371Y011549D01*
X002489Y011431D01*
X002335Y011637D02*
X001100Y011637D01*
X001100Y011795D02*
X001439Y011795D01*
X001204Y011954D02*
X001100Y011954D01*
X001100Y012112D02*
X001115Y012112D01*
X001100Y012429D02*
X001103Y012429D01*
X001100Y012588D02*
X001175Y012588D01*
X001100Y012746D02*
X001369Y012746D01*
X001100Y012905D02*
X002304Y012905D01*
X002298Y012888D02*
X002288Y012820D01*
X002288Y012785D01*
X002288Y012751D01*
X002298Y012683D01*
X002320Y012617D01*
X002351Y012556D01*
X002391Y012500D01*
X002440Y012452D01*
X002496Y012411D01*
X002557Y012380D01*
X002623Y012358D01*
X002691Y012348D01*
X002725Y012348D01*
X002759Y012348D01*
X002827Y012358D01*
X002893Y012380D01*
X002954Y012411D01*
X003010Y012452D01*
X003059Y012500D01*
X003099Y012556D01*
X003130Y012617D01*
X003152Y012683D01*
X003162Y012751D01*
X003162Y012785D01*
X002725Y012785D01*
X002725Y012348D01*
X002725Y012785D01*
X002725Y012785D01*
X002288Y012785D01*
X002725Y012785D01*
X002725Y012785D01*
X002725Y012785D01*
X003162Y012785D01*
X003162Y012820D01*
X003152Y012888D01*
X003130Y012953D01*
X003099Y013014D01*
X003059Y013070D01*
X003010Y013119D01*
X002954Y013159D01*
X002893Y013191D01*
X002827Y013212D01*
X002759Y013223D01*
X002725Y013223D01*
X002691Y013223D01*
X002623Y013212D01*
X002557Y013191D01*
X002496Y013159D01*
X002440Y013119D01*
X002391Y013070D01*
X002351Y013014D01*
X002320Y012953D01*
X002298Y012888D01*
X002288Y012746D02*
X001831Y012746D01*
X002025Y012588D02*
X002335Y012588D01*
X002471Y012429D02*
X002097Y012429D01*
X002114Y012271D02*
X004352Y012271D01*
X004327Y012331D02*
X004388Y012185D01*
X004500Y012073D01*
X004646Y012012D01*
X004804Y012012D01*
X004950Y012073D01*
X005062Y012185D01*
X005123Y012331D01*
X005123Y012489D01*
X005106Y012529D01*
X005146Y012512D01*
X005304Y012512D01*
X005344Y012529D01*
X005327Y012489D01*
X005327Y012331D01*
X005388Y012185D01*
X005500Y012073D01*
X005646Y012012D01*
X005804Y012012D01*
X005950Y012073D01*
X006062Y012185D01*
X006123Y012331D01*
X006123Y012489D01*
X006062Y012636D01*
X005950Y012747D01*
X005804Y012808D01*
X005646Y012808D01*
X005606Y012792D01*
X005623Y012831D01*
X005623Y012989D01*
X005562Y013136D01*
X005450Y013247D01*
X005304Y013308D01*
X005146Y013308D01*
X005000Y013247D01*
X004888Y013136D01*
X004827Y012989D01*
X004827Y012831D01*
X004844Y012792D01*
X004804Y012808D01*
X004646Y012808D01*
X004500Y012747D01*
X004388Y012636D01*
X004327Y012489D01*
X004327Y012331D01*
X004327Y012429D02*
X002979Y012429D01*
X003115Y012588D02*
X004368Y012588D01*
X004498Y012746D02*
X003162Y012746D01*
X003146Y012905D02*
X004827Y012905D01*
X004858Y013063D02*
X003064Y013063D01*
X002766Y013222D02*
X004974Y013222D01*
X004559Y013500D02*
X004599Y013556D01*
X004630Y013617D01*
X004652Y013683D01*
X004662Y013751D01*
X004662Y013785D01*
X004225Y013785D01*
X004225Y013348D01*
X004259Y013348D01*
X004327Y013358D01*
X004393Y013380D01*
X004454Y013411D01*
X004510Y013452D01*
X004559Y013500D01*
X004587Y013539D02*
X005881Y013539D01*
X005871Y013549D02*
X005989Y013431D01*
X006142Y013368D01*
X006308Y013368D01*
X006461Y013431D01*
X006579Y013549D01*
X006642Y013702D01*
X006642Y013868D01*
X006579Y014022D01*
X006461Y014139D01*
X006411Y014160D01*
X006461Y014181D01*
X006579Y014299D01*
X006642Y014452D01*
X006642Y014618D01*
X006579Y014772D01*
X006461Y014889D01*
X006308Y014953D01*
X006142Y014953D01*
X005989Y014889D01*
X005871Y014772D01*
X005808Y014618D01*
X005808Y014452D01*
X005871Y014299D01*
X005989Y014181D01*
X006039Y014160D01*
X005989Y014139D01*
X005871Y014022D01*
X005808Y013868D01*
X005808Y013702D01*
X005871Y013549D01*
X005810Y013697D02*
X004654Y013697D01*
X004662Y013785D02*
X004662Y013820D01*
X004652Y013888D01*
X004630Y013953D01*
X004599Y014014D01*
X005868Y014014D01*
X005808Y013856D02*
X004657Y013856D01*
X004662Y013785D02*
X004225Y013785D01*
X004225Y013785D01*
X004225Y013348D01*
X004191Y013348D01*
X004123Y013358D01*
X004057Y013380D01*
X003996Y013411D01*
X003940Y013452D01*
X003891Y013500D01*
X003851Y013556D01*
X003820Y013617D01*
X003798Y013683D01*
X003788Y013751D01*
X003788Y013785D01*
X004225Y013785D01*
X004225Y013785D01*
X004225Y013785D01*
X003788Y013785D01*
X003788Y013820D01*
X003798Y013888D01*
X003820Y013953D01*
X003851Y014014D01*
X001100Y014014D01*
X001100Y013856D02*
X003793Y013856D01*
X003796Y013697D02*
X001100Y013697D01*
X001100Y013539D02*
X003863Y013539D01*
X004056Y013380D02*
X001100Y013380D01*
X001100Y013222D02*
X002684Y013222D01*
X002725Y013222D02*
X002725Y013222D01*
X002725Y013223D02*
X002725Y012785D01*
X002725Y013223D01*
X002725Y013063D02*
X002725Y013063D01*
X002725Y012905D02*
X002725Y012905D01*
X002725Y012785D02*
X002725Y012785D01*
X002725Y012746D02*
X002725Y012746D01*
X002725Y012588D02*
X002725Y012588D01*
X002725Y012429D02*
X002725Y012429D01*
X002462Y012112D02*
X002085Y012112D01*
X001996Y011954D02*
X002343Y011954D01*
X002308Y011795D02*
X001761Y011795D01*
X002386Y013063D02*
X001100Y013063D01*
X001100Y014173D02*
X003980Y014173D01*
X003996Y014161D02*
X003997Y014160D01*
X003996Y014159D01*
X003940Y014119D01*
X003891Y014070D01*
X003851Y014014D01*
X003996Y014161D02*
X003940Y014202D01*
X003891Y014250D01*
X003851Y014306D01*
X003820Y014367D01*
X003798Y014433D01*
X003788Y014501D01*
X003788Y014535D01*
X004225Y014535D01*
X004225Y014098D01*
X004225Y013785D01*
X004225Y014535D01*
X004225Y014535D01*
X004225Y014535D01*
X004662Y014535D01*
X004662Y014501D01*
X004652Y014433D01*
X004630Y014367D01*
X004599Y014306D01*
X004559Y014250D01*
X004510Y014202D01*
X004454Y014161D01*
X004453Y014160D01*
X004454Y014159D01*
X004510Y014119D01*
X004559Y014070D01*
X004599Y014014D01*
X004470Y014173D02*
X006009Y014173D01*
X005858Y014331D02*
X004612Y014331D01*
X004661Y014490D02*
X005808Y014490D01*
X005820Y014648D02*
X004648Y014648D01*
X004652Y014638D02*
X004630Y014703D01*
X004599Y014764D01*
X004559Y014820D01*
X004510Y014869D01*
X004454Y014909D01*
X004393Y014941D01*
X004327Y014962D01*
X004259Y014973D01*
X004225Y014973D01*
X004191Y014973D01*
X004123Y014962D01*
X004057Y014941D01*
X003996Y014909D01*
X003940Y014869D01*
X003891Y014820D01*
X003851Y014764D01*
X003820Y014703D01*
X003798Y014638D01*
X003788Y014570D01*
X003788Y014535D01*
X004225Y014535D01*
X004225Y014535D01*
X004662Y014535D01*
X004662Y014570D01*
X004652Y014638D01*
X004568Y014807D02*
X005906Y014807D01*
X005804Y015137D02*
X005950Y015198D01*
X006062Y015310D01*
X006123Y015456D01*
X006123Y015614D01*
X006062Y015761D01*
X005950Y015872D01*
X005804Y015933D01*
X005646Y015933D01*
X005606Y015917D01*
X005623Y015956D01*
X005623Y016114D01*
X005562Y016261D01*
X005450Y016372D01*
X005304Y016433D01*
X005146Y016433D01*
X005000Y016372D01*
X004888Y016261D01*
X004827Y016114D01*
X004827Y015956D01*
X004844Y015917D01*
X004804Y015933D01*
X004646Y015933D01*
X004500Y015872D01*
X004388Y015761D01*
X004327Y015614D01*
X004327Y015456D01*
X004388Y015310D01*
X004500Y015198D01*
X004646Y015137D01*
X004804Y015137D01*
X004950Y015198D01*
X005062Y015310D01*
X005123Y015456D01*
X005123Y015614D01*
X005106Y015654D01*
X005146Y015637D01*
X005304Y015637D01*
X005344Y015654D01*
X005327Y015614D01*
X005327Y015456D01*
X005388Y015310D01*
X005500Y015198D01*
X005646Y015137D01*
X005804Y015137D01*
X006035Y015282D02*
X006201Y015282D01*
X006183Y015327D02*
X006246Y015174D01*
X006364Y015056D01*
X006517Y014993D01*
X006683Y014993D01*
X006836Y015056D01*
X006954Y015174D01*
X007017Y015327D01*
X007017Y015493D01*
X006954Y015647D01*
X006836Y015764D01*
X006683Y015828D01*
X006517Y015828D01*
X006364Y015764D01*
X006246Y015647D01*
X006183Y015493D01*
X006183Y015327D01*
X006183Y015441D02*
X006116Y015441D01*
X006123Y015599D02*
X006226Y015599D01*
X006357Y015758D02*
X006063Y015758D01*
X005845Y015916D02*
X007076Y015916D01*
X007146Y015887D02*
X007304Y015887D01*
X007450Y015948D01*
X007562Y016060D01*
X007623Y016206D01*
X007623Y016364D01*
X007606Y016404D01*
X007646Y016387D01*
X007804Y016387D01*
X007844Y016404D01*
X007827Y016364D01*
X007827Y016206D01*
X007888Y016060D01*
X008000Y015948D01*
X008146Y015887D01*
X008304Y015887D01*
X008450Y015948D01*
X008562Y016060D01*
X008623Y016206D01*
X008623Y016364D01*
X008562Y016511D01*
X008450Y016622D01*
X008304Y016683D01*
X008146Y016683D01*
X008106Y016667D01*
X008123Y016706D01*
X008123Y016864D01*
X008062Y017011D01*
X007950Y017122D01*
X007804Y017183D01*
X007646Y017183D01*
X007500Y017122D01*
X007388Y017011D01*
X007327Y016864D01*
X007327Y016706D01*
X007344Y016667D01*
X007304Y016683D01*
X007146Y016683D01*
X007000Y016622D01*
X006888Y016511D01*
X006827Y016364D01*
X006827Y016206D01*
X006888Y016060D01*
X007000Y015948D01*
X007146Y015887D01*
X007374Y015916D02*
X008076Y015916D01*
X007882Y016075D02*
X007568Y016075D01*
X007623Y016233D02*
X007827Y016233D01*
X007815Y016392D02*
X007839Y016392D01*
X007635Y016392D02*
X007611Y016392D01*
X007327Y016709D02*
X006642Y016709D01*
X006642Y016702D02*
X006579Y016549D01*
X006461Y016431D01*
X006308Y016368D01*
X006142Y016368D01*
X005989Y016431D01*
X005871Y016549D01*
X005808Y016702D01*
X005808Y016868D01*
X005871Y017022D01*
X005989Y017139D01*
X006142Y017203D01*
X006308Y017203D01*
X006461Y017139D01*
X006579Y017022D01*
X006642Y016868D01*
X006642Y016702D01*
X006580Y016550D02*
X006927Y016550D01*
X006839Y016392D02*
X006366Y016392D01*
X006642Y016867D02*
X007328Y016867D01*
X007403Y017026D02*
X006575Y017026D01*
X006353Y017184D02*
X009284Y017184D01*
X009246Y017147D02*
X009183Y016993D01*
X009183Y016827D01*
X009246Y016674D01*
X009364Y016556D01*
X009517Y016493D01*
X009683Y016493D01*
X009836Y016556D01*
X009954Y016674D01*
X010017Y016827D01*
X010017Y016993D01*
X009954Y017147D01*
X009836Y017264D01*
X009683Y017328D01*
X009517Y017328D01*
X009364Y017264D01*
X009246Y017147D01*
X009196Y017026D02*
X008047Y017026D01*
X008122Y016867D02*
X009183Y016867D01*
X009232Y016709D02*
X008123Y016709D01*
X008523Y016550D02*
X009378Y016550D01*
X009822Y016550D02*
X011378Y016550D01*
X011364Y016556D02*
X011517Y016493D01*
X011683Y016493D01*
X011836Y016556D01*
X011954Y016674D01*
X012017Y016827D01*
X012017Y016993D01*
X011954Y017147D01*
X011836Y017264D01*
X011683Y017328D01*
X011517Y017328D01*
X011364Y017264D01*
X011246Y017147D01*
X011183Y016993D01*
X011183Y016827D01*
X011246Y016674D01*
X011364Y016556D01*
X011232Y016709D02*
X009968Y016709D01*
X010017Y016867D02*
X011183Y016867D01*
X011196Y017026D02*
X010004Y017026D01*
X009916Y017184D02*
X011284Y017184D01*
X011916Y017184D02*
X015758Y017184D01*
X015766Y017195D02*
X015726Y017139D01*
X015695Y017078D01*
X015673Y017013D01*
X015663Y016945D01*
X015663Y016910D01*
X015663Y016876D01*
X015673Y016808D01*
X015695Y016742D01*
X015726Y016681D01*
X015766Y016625D01*
X015815Y016577D01*
X015871Y016536D01*
X015932Y016505D01*
X015998Y016483D01*
X016066Y016473D01*
X016100Y016473D01*
X016134Y016473D01*
X016202Y016483D01*
X016265Y016504D01*
X016250Y016497D01*
X016138Y016386D01*
X016077Y016239D01*
X016077Y016081D01*
X016094Y016042D01*
X016054Y016058D01*
X015896Y016058D01*
X015750Y015997D01*
X015638Y015886D01*
X015577Y015739D01*
X015577Y015581D01*
X015638Y015435D01*
X015750Y015323D01*
X015896Y015262D01*
X016054Y015262D01*
X016200Y015323D01*
X016312Y015435D01*
X016373Y015581D01*
X016373Y015739D01*
X016356Y015779D01*
X016396Y015762D01*
X016554Y015762D01*
X016594Y015779D01*
X016577Y015739D01*
X016577Y015581D01*
X016638Y015435D01*
X016750Y015323D01*
X016896Y015262D01*
X017054Y015262D01*
X017200Y015323D01*
X017312Y015435D01*
X017373Y015581D01*
X017373Y015739D01*
X017312Y015886D01*
X017200Y015997D01*
X017054Y016058D01*
X016896Y016058D01*
X016856Y016042D01*
X016873Y016081D01*
X016873Y016239D01*
X016812Y016386D01*
X016700Y016497D01*
X016554Y016558D01*
X016396Y016558D01*
X016270Y016506D01*
X016329Y016536D01*
X016385Y016577D01*
X016434Y016625D01*
X016474Y016681D01*
X016505Y016742D01*
X016527Y016808D01*
X016537Y016876D01*
X016537Y016910D01*
X016100Y016910D01*
X016100Y016473D01*
X016100Y016910D01*
X016100Y016910D01*
X015663Y016910D01*
X016100Y016910D01*
X016100Y016910D01*
X016100Y016910D01*
X016537Y016910D01*
X016537Y016945D01*
X016527Y017013D01*
X016505Y017078D01*
X016474Y017139D01*
X016434Y017195D01*
X016406Y017223D01*
X016434Y017250D01*
X016474Y017306D01*
X016505Y017367D01*
X016527Y017433D01*
X016537Y017501D01*
X016537Y017535D01*
X016100Y017535D01*
X016100Y016910D01*
X016100Y017348D01*
X016100Y017535D01*
X016100Y017535D01*
X015663Y017535D01*
X015663Y017501D01*
X015673Y017433D01*
X015695Y017367D01*
X015726Y017306D01*
X015766Y017250D01*
X015794Y017223D01*
X015766Y017195D01*
X015707Y017343D02*
X001100Y017343D01*
X001100Y017501D02*
X015663Y017501D01*
X015663Y017535D02*
X016100Y017535D01*
X016100Y017535D01*
X016100Y017535D01*
X016537Y017535D01*
X016537Y017570D01*
X016527Y017638D01*
X016505Y017703D01*
X016474Y017764D01*
X016434Y017820D01*
X016385Y017869D01*
X016329Y017909D01*
X016268Y017941D01*
X016202Y017962D01*
X016134Y017973D01*
X016100Y017973D01*
X016066Y017973D01*
X015998Y017962D01*
X015932Y017941D01*
X015871Y017909D01*
X015815Y017869D01*
X015766Y017820D01*
X015726Y017764D01*
X015695Y017703D01*
X015673Y017638D01*
X015663Y017570D01*
X015663Y017535D01*
X015680Y017660D02*
X001100Y017660D01*
X001100Y017818D02*
X015765Y017818D01*
X016100Y017818D02*
X016100Y017818D01*
X016100Y017973D02*
X016100Y017535D01*
X016100Y017973D01*
X016100Y017660D02*
X016100Y017660D01*
X016100Y017535D02*
X016100Y017535D01*
X016100Y017501D02*
X016100Y017501D01*
X016100Y017343D02*
X016100Y017343D01*
X016100Y017184D02*
X016100Y017184D01*
X016100Y017026D02*
X016100Y017026D01*
X016100Y016910D02*
X016100Y016910D01*
X016100Y016867D02*
X016100Y016867D01*
X016100Y016709D02*
X016100Y016709D01*
X016100Y016550D02*
X016100Y016550D01*
X016144Y016392D02*
X014196Y016392D01*
X014184Y016375D02*
X014224Y016431D01*
X014255Y016492D01*
X014277Y016558D01*
X014287Y016626D01*
X014287Y016660D01*
X013850Y016660D01*
X013850Y016223D01*
X013884Y016223D01*
X013952Y016233D01*
X014018Y016255D01*
X014079Y016286D01*
X014135Y016327D01*
X014184Y016375D01*
X014274Y016550D02*
X015851Y016550D01*
X015712Y016709D02*
X014285Y016709D01*
X014287Y016695D02*
X014277Y016763D01*
X014255Y016828D01*
X014224Y016889D01*
X014184Y016945D01*
X014135Y016994D01*
X014079Y017034D01*
X014018Y017066D01*
X013952Y017087D01*
X013884Y017098D01*
X013850Y017098D01*
X013816Y017098D01*
X013748Y017087D01*
X013682Y017066D01*
X013621Y017034D01*
X013565Y016994D01*
X013516Y016945D01*
X013476Y016889D01*
X013445Y016828D01*
X013423Y016763D01*
X013413Y016695D01*
X013413Y016660D01*
X013413Y016626D01*
X013423Y016558D01*
X013445Y016492D01*
X013476Y016431D01*
X013516Y016375D01*
X013565Y016327D01*
X013621Y016286D01*
X013682Y016255D01*
X013748Y016233D01*
X013816Y016223D01*
X013850Y016223D01*
X013850Y016660D01*
X013850Y016660D01*
X013850Y016660D01*
X013413Y016660D01*
X013850Y016660D01*
X013850Y016660D01*
X014287Y016660D01*
X014287Y016695D01*
X014236Y016867D02*
X015664Y016867D01*
X015678Y017026D02*
X014091Y017026D01*
X013850Y017026D02*
X013850Y017026D01*
X013850Y017098D02*
X013850Y016660D01*
X013850Y016660D01*
X013850Y017098D01*
X013850Y016867D02*
X013850Y016867D01*
X013850Y016709D02*
X013850Y016709D01*
X013850Y016550D02*
X013850Y016550D01*
X013850Y016392D02*
X013850Y016392D01*
X013850Y016233D02*
X013850Y016233D01*
X013951Y016233D02*
X016077Y016233D01*
X016080Y016075D02*
X008568Y016075D01*
X008623Y016233D02*
X013749Y016233D01*
X013504Y016392D02*
X013172Y016392D01*
X013204Y016424D02*
X013267Y016577D01*
X013267Y016743D01*
X013204Y016897D01*
X013086Y017014D01*
X012933Y017078D01*
X012767Y017078D01*
X012614Y017014D01*
X012496Y016897D01*
X012433Y016743D01*
X012433Y016577D01*
X012496Y016424D01*
X012614Y016306D01*
X012767Y016243D01*
X012933Y016243D01*
X013086Y016306D01*
X013204Y016424D01*
X013256Y016550D02*
X013426Y016550D01*
X013415Y016709D02*
X013267Y016709D01*
X013216Y016867D02*
X013464Y016867D01*
X013609Y017026D02*
X013058Y017026D01*
X012642Y017026D02*
X012004Y017026D01*
X012017Y016867D02*
X012484Y016867D01*
X012433Y016709D02*
X011968Y016709D01*
X011822Y016550D02*
X012444Y016550D01*
X012528Y016392D02*
X008611Y016392D01*
X008374Y015916D02*
X015668Y015916D01*
X015585Y015758D02*
X008866Y015758D01*
X008885Y015744D02*
X008829Y015784D01*
X008768Y015816D01*
X008702Y015837D01*
X008634Y015848D01*
X008600Y015848D01*
X008566Y015848D01*
X008498Y015837D01*
X008432Y015816D01*
X008371Y015784D01*
X008315Y015744D01*
X008266Y015695D01*
X008226Y015639D01*
X008195Y015578D01*
X008173Y015513D01*
X008163Y015445D01*
X008163Y015410D01*
X008163Y015376D01*
X008173Y015308D01*
X008195Y015242D01*
X008226Y015181D01*
X008266Y015125D01*
X008315Y015077D01*
X008371Y015036D01*
X008432Y015005D01*
X008498Y014983D01*
X008566Y014973D01*
X008600Y014973D01*
X008634Y014973D01*
X008702Y014983D01*
X008768Y015005D01*
X008825Y015034D01*
X008871Y014924D01*
X008989Y014806D01*
X009142Y014743D01*
X009308Y014743D01*
X009461Y014806D01*
X009579Y014924D01*
X009642Y015077D01*
X009642Y015243D01*
X009579Y015397D01*
X009461Y015514D01*
X009308Y015578D01*
X009142Y015578D01*
X009022Y015528D01*
X009005Y015578D01*
X008974Y015639D01*
X008934Y015695D01*
X008885Y015744D01*
X008995Y015599D02*
X015577Y015599D01*
X015635Y015441D02*
X009535Y015441D01*
X009626Y015282D02*
X015848Y015282D01*
X015804Y015183D02*
X015646Y015183D01*
X015500Y015122D01*
X015388Y015011D01*
X015327Y014864D01*
X015327Y014706D01*
X015344Y014667D01*
X015304Y014683D01*
X015146Y014683D01*
X015000Y014622D01*
X014888Y014511D01*
X014827Y014364D01*
X014827Y014206D01*
X014888Y014060D01*
X015000Y013948D01*
X015146Y013887D01*
X015304Y013887D01*
X015450Y013948D01*
X015562Y014060D01*
X015623Y014206D01*
X015623Y014364D01*
X015606Y014404D01*
X015646Y014387D01*
X015804Y014387D01*
X015844Y014404D01*
X015827Y014364D01*
X015827Y014206D01*
X015888Y014060D01*
X016000Y013948D01*
X016146Y013887D01*
X016304Y013887D01*
X016450Y013948D01*
X016562Y014060D01*
X016623Y014206D01*
X016623Y014364D01*
X016562Y014511D01*
X016450Y014622D01*
X016304Y014683D01*
X016146Y014683D01*
X016106Y014667D01*
X016123Y014706D01*
X016123Y014864D01*
X016062Y015011D01*
X015950Y015122D01*
X015804Y015183D01*
X015947Y015124D02*
X017956Y015124D01*
X017952Y015114D02*
X017952Y014956D01*
X018013Y014810D01*
X018125Y014698D01*
X018271Y014637D01*
X018429Y014637D01*
X018575Y014698D01*
X018687Y014810D01*
X018748Y014956D01*
X018748Y015114D01*
X018687Y015261D01*
X018575Y015372D01*
X018429Y015433D01*
X018271Y015433D01*
X018231Y015417D01*
X018248Y015456D01*
X018248Y015614D01*
X018231Y015654D01*
X018271Y015637D01*
X018429Y015637D01*
X018575Y015698D01*
X018687Y015810D01*
X018748Y015956D01*
X018748Y016114D01*
X018687Y016261D01*
X018575Y016372D01*
X018429Y016433D01*
X018271Y016433D01*
X018125Y016372D01*
X018013Y016261D01*
X017952Y016114D01*
X017952Y015956D01*
X017969Y015917D01*
X017929Y015933D01*
X017771Y015933D01*
X017625Y015872D01*
X017513Y015761D01*
X017452Y015614D01*
X017452Y015456D01*
X017513Y015310D01*
X017625Y015198D01*
X017771Y015137D01*
X017929Y015137D01*
X017969Y015154D01*
X017952Y015114D01*
X017952Y014965D02*
X016081Y014965D01*
X016123Y014807D02*
X018016Y014807D01*
X018245Y014648D02*
X016388Y014648D01*
X016571Y014490D02*
X020649Y014490D01*
X020650Y014648D02*
X018455Y014648D01*
X018684Y014807D02*
X020651Y014807D01*
X020455Y014965D02*
X018748Y014965D01*
X018744Y015124D02*
X020287Y015124D01*
X020221Y015282D02*
X018666Y015282D01*
X018635Y015758D02*
X020345Y015758D01*
X020247Y015599D02*
X018248Y015599D01*
X018241Y015441D02*
X020211Y015441D01*
X020603Y015916D02*
X018731Y015916D01*
X018748Y016075D02*
X018970Y016075D01*
X018989Y016056D02*
X019142Y015993D01*
X019308Y015993D01*
X019461Y016056D01*
X019579Y016174D01*
X019642Y016327D01*
X019642Y016493D01*
X019579Y016647D01*
X019461Y016764D01*
X019308Y016828D01*
X019142Y016828D01*
X018989Y016764D01*
X018871Y016647D01*
X018808Y016493D01*
X018808Y016327D01*
X018871Y016174D01*
X018989Y016056D01*
X018846Y016233D02*
X018699Y016233D01*
X018808Y016392D02*
X018529Y016392D01*
X018336Y016556D02*
X018454Y016674D01*
X018517Y016827D01*
X018517Y016993D01*
X018454Y017147D01*
X018336Y017264D01*
X018183Y017328D01*
X018017Y017328D01*
X017864Y017264D01*
X017746Y017147D01*
X017683Y016993D01*
X017683Y016827D01*
X017746Y016674D01*
X017864Y016556D01*
X018017Y016493D01*
X018183Y016493D01*
X018336Y016556D01*
X018322Y016550D02*
X018831Y016550D01*
X018933Y016709D02*
X018468Y016709D01*
X018517Y016867D02*
X020399Y016867D01*
X020309Y017026D02*
X018504Y017026D01*
X018416Y017184D02*
X020288Y017184D01*
X020327Y017343D02*
X016493Y017343D01*
X016537Y017501D02*
X016821Y017501D01*
X016875Y017448D02*
X016763Y017560D01*
X016702Y017706D01*
X016702Y017864D01*
X016763Y018011D01*
X016875Y018122D01*
X017021Y018183D01*
X017179Y018183D01*
X017219Y018167D01*
X017202Y018206D01*
X017202Y018364D01*
X017263Y018511D01*
X017375Y018622D01*
X017521Y018683D01*
X017679Y018683D01*
X017825Y018622D01*
X017937Y018511D01*
X017998Y018364D01*
X017998Y018206D01*
X017981Y018167D01*
X018021Y018183D01*
X018179Y018183D01*
X018325Y018122D01*
X018437Y018011D01*
X018498Y017864D01*
X018498Y017706D01*
X018437Y017560D01*
X018325Y017448D01*
X018179Y017387D01*
X018021Y017387D01*
X017875Y017448D01*
X017763Y017560D01*
X017702Y017706D01*
X017702Y017864D01*
X017719Y017904D01*
X017679Y017887D01*
X017521Y017887D01*
X017481Y017904D01*
X017498Y017864D01*
X017498Y017706D01*
X017437Y017560D01*
X017325Y017448D01*
X017179Y017387D01*
X017021Y017387D01*
X016875Y017448D01*
X016721Y017660D02*
X016520Y017660D01*
X016435Y017818D02*
X016702Y017818D01*
X016749Y017977D02*
X001100Y017977D01*
X001100Y018135D02*
X009600Y018135D01*
X009642Y018118D02*
X009489Y018181D01*
X009371Y018299D01*
X009308Y018452D01*
X009308Y018618D01*
X009371Y018772D01*
X009489Y018889D01*
X009642Y018953D01*
X009808Y018953D01*
X009961Y018889D01*
X010079Y018772D01*
X010142Y018618D01*
X010142Y018452D01*
X010079Y018299D01*
X009961Y018181D01*
X009808Y018118D01*
X009642Y018118D01*
X009850Y018135D02*
X011600Y018135D01*
X011642Y018118D02*
X011808Y018118D01*
X011961Y018181D01*
X012079Y018299D01*
X012142Y018452D01*
X012142Y018618D01*
X012079Y018772D01*
X011961Y018889D01*
X011808Y018953D01*
X011642Y018953D01*
X011489Y018889D01*
X011371Y018772D01*
X011308Y018618D01*
X011308Y018452D01*
X011371Y018299D01*
X011489Y018181D01*
X011642Y018118D01*
X011850Y018135D02*
X012725Y018135D01*
X012767Y018118D02*
X012933Y018118D01*
X013086Y018181D01*
X013204Y018299D01*
X013267Y018452D01*
X013267Y018618D01*
X013204Y018772D01*
X013086Y018889D01*
X012933Y018953D01*
X012767Y018953D01*
X012614Y018889D01*
X012496Y018772D01*
X012433Y018618D01*
X012433Y018452D01*
X012496Y018299D01*
X012614Y018181D01*
X012767Y018118D01*
X012975Y018135D02*
X013671Y018135D01*
X013682Y018130D02*
X013748Y018108D01*
X013816Y018098D01*
X013850Y018098D01*
X013884Y018098D01*
X013952Y018108D01*
X014018Y018130D01*
X014079Y018161D01*
X014135Y018202D01*
X014184Y018250D01*
X014224Y018306D01*
X014255Y018367D01*
X014277Y018433D01*
X014287Y018501D01*
X014287Y018535D01*
X013850Y018535D01*
X013850Y018098D01*
X013850Y018535D01*
X013850Y018535D01*
X013850Y018535D01*
X013413Y018535D01*
X013413Y018501D01*
X013423Y018433D01*
X013445Y018367D01*
X013476Y018306D01*
X013516Y018250D01*
X013565Y018202D01*
X013621Y018161D01*
X013682Y018130D01*
X013850Y018135D02*
X013850Y018135D01*
X013850Y018294D02*
X013850Y018294D01*
X013850Y018452D02*
X013850Y018452D01*
X013850Y018535D02*
X013850Y018535D01*
X014287Y018535D01*
X014287Y018570D01*
X014277Y018638D01*
X014255Y018703D01*
X014224Y018764D01*
X014184Y018820D01*
X014135Y018869D01*
X014079Y018909D01*
X014018Y018941D01*
X013952Y018962D01*
X013884Y018973D01*
X013850Y018973D01*
X013816Y018973D01*
X013748Y018962D01*
X013682Y018941D01*
X013621Y018909D01*
X013565Y018869D01*
X013516Y018820D01*
X013476Y018764D01*
X013445Y018703D01*
X013423Y018638D01*
X013413Y018570D01*
X013413Y018535D01*
X013850Y018535D01*
X013850Y018973D01*
X013850Y018535D01*
X013850Y018535D01*
X013850Y018611D02*
X013850Y018611D01*
X013850Y018769D02*
X013850Y018769D01*
X013850Y018928D02*
X013850Y018928D01*
X013657Y018928D02*
X012993Y018928D01*
X013205Y018769D02*
X013479Y018769D01*
X013419Y018611D02*
X013267Y018611D01*
X013267Y018452D02*
X013420Y018452D01*
X013485Y018294D02*
X013199Y018294D01*
X012707Y018928D02*
X011868Y018928D01*
X012080Y018769D02*
X012495Y018769D01*
X012433Y018611D02*
X012142Y018611D01*
X012142Y018452D02*
X012433Y018452D01*
X012501Y018294D02*
X012074Y018294D01*
X011376Y018294D02*
X010074Y018294D01*
X010142Y018452D02*
X011308Y018452D01*
X011308Y018611D02*
X010142Y018611D01*
X010080Y018769D02*
X011370Y018769D01*
X011582Y018928D02*
X009868Y018928D01*
X009582Y018928D02*
X008430Y018928D01*
X008437Y018935D02*
X008498Y019081D01*
X008498Y019239D01*
X008437Y019386D01*
X008325Y019497D01*
X008179Y019558D01*
X008021Y019558D01*
X007875Y019497D01*
X007763Y019386D01*
X007702Y019239D01*
X007702Y019081D01*
X007719Y019042D01*
X007679Y019058D01*
X007521Y019058D01*
X007481Y019042D01*
X007498Y019081D01*
X007498Y019239D01*
X007437Y019386D01*
X007325Y019497D01*
X007179Y019558D01*
X007021Y019558D01*
X006875Y019497D01*
X006763Y019386D01*
X006702Y019239D01*
X006702Y019081D01*
X006763Y018935D01*
X006875Y018823D01*
X007021Y018762D01*
X007179Y018762D01*
X007219Y018779D01*
X007202Y018739D01*
X007202Y018581D01*
X007263Y018435D01*
X007375Y018323D01*
X007521Y018262D01*
X007679Y018262D01*
X007825Y018323D01*
X007937Y018435D01*
X007998Y018581D01*
X007998Y018739D01*
X007981Y018779D01*
X008021Y018762D01*
X008179Y018762D01*
X008325Y018823D01*
X008437Y018935D01*
X008498Y019086D02*
X016665Y019086D01*
X016663Y019070D02*
X016663Y019035D01*
X016663Y019001D01*
X016673Y018933D01*
X016695Y018867D01*
X016726Y018806D01*
X016766Y018750D01*
X016815Y018702D01*
X016871Y018661D01*
X016932Y018630D01*
X016998Y018608D01*
X017066Y018598D01*
X017100Y018598D01*
X017134Y018598D01*
X017202Y018608D01*
X017268Y018630D01*
X017329Y018661D01*
X017385Y018702D01*
X017434Y018750D01*
X017474Y018806D01*
X017505Y018867D01*
X017527Y018933D01*
X017537Y019001D01*
X017537Y019035D01*
X017100Y019035D01*
X017100Y018598D01*
X017100Y019035D01*
X017100Y019035D01*
X017100Y019035D01*
X016663Y019035D01*
X017100Y019035D01*
X017100Y019035D01*
X017537Y019035D01*
X017537Y019070D01*
X017527Y019138D01*
X017505Y019203D01*
X017474Y019264D01*
X017434Y019320D01*
X017385Y019369D01*
X017329Y019409D01*
X017268Y019441D01*
X017202Y019462D01*
X017134Y019473D01*
X017100Y019473D01*
X017066Y019473D01*
X016998Y019462D01*
X016932Y019441D01*
X016871Y019409D01*
X016815Y019369D01*
X016766Y019320D01*
X016726Y019264D01*
X016695Y019203D01*
X016673Y019138D01*
X016663Y019070D01*
X016675Y018928D02*
X014043Y018928D01*
X014221Y018769D02*
X016752Y018769D01*
X016991Y018611D02*
X014281Y018611D01*
X014280Y018452D02*
X017239Y018452D01*
X017209Y018611D02*
X017363Y018611D01*
X017448Y018769D02*
X018776Y018769D01*
X018746Y018799D02*
X018864Y018681D01*
X018893Y018669D01*
X018871Y018647D01*
X018808Y018493D01*
X018808Y018327D01*
X018871Y018174D01*
X018989Y018056D01*
X019142Y017993D01*
X019308Y017993D01*
X019461Y018056D01*
X019579Y018174D01*
X019642Y018327D01*
X019642Y018493D01*
X019579Y018647D01*
X019461Y018764D01*
X019432Y018776D01*
X019454Y018799D01*
X019517Y018952D01*
X019517Y019118D01*
X019454Y019272D01*
X019336Y019389D01*
X019183Y019453D01*
X019017Y019453D01*
X018864Y019389D01*
X018746Y019272D01*
X018683Y019118D01*
X018683Y018952D01*
X018746Y018799D01*
X018693Y018928D02*
X017525Y018928D01*
X017535Y019086D02*
X018683Y019086D01*
X018735Y019245D02*
X017484Y019245D01*
X017338Y019403D02*
X018898Y019403D01*
X019302Y019403D02*
X020605Y019403D01*
X020669Y019245D02*
X019465Y019245D01*
X019517Y019086D02*
X020669Y019086D01*
X020668Y018928D02*
X019507Y018928D01*
X019449Y018769D02*
X020667Y018769D01*
X020667Y018611D02*
X019594Y018611D01*
X019642Y018452D02*
X020427Y018452D01*
X020328Y018294D02*
X019629Y018294D01*
X019540Y018135D02*
X020308Y018135D01*
X020349Y017977D02*
X018451Y017977D01*
X018498Y017818D02*
X020477Y017818D01*
X020663Y017660D02*
X018479Y017660D01*
X018379Y017501D02*
X020450Y017501D01*
X020659Y016709D02*
X019517Y016709D01*
X019619Y016550D02*
X020658Y016550D01*
X020657Y016392D02*
X019642Y016392D01*
X019604Y016233D02*
X020657Y016233D01*
X020656Y016075D02*
X019480Y016075D01*
X020649Y014331D02*
X016623Y014331D01*
X016609Y014173D02*
X020648Y014173D01*
X020648Y014014D02*
X016517Y014014D01*
X015933Y014014D02*
X015517Y014014D01*
X015609Y014173D02*
X015841Y014173D01*
X015827Y014331D02*
X015623Y014331D01*
X015327Y014807D02*
X014287Y014807D01*
X014287Y014820D02*
X014277Y014888D01*
X014255Y014953D01*
X014224Y015014D01*
X014184Y015070D01*
X014135Y015119D01*
X014079Y015159D01*
X014018Y015191D01*
X013952Y015212D01*
X013884Y015223D01*
X013850Y015223D01*
X013816Y015223D01*
X013748Y015212D01*
X013682Y015191D01*
X013621Y015159D01*
X013565Y015119D01*
X013516Y015070D01*
X013476Y015014D01*
X013445Y014953D01*
X013423Y014888D01*
X013413Y014820D01*
X013413Y014785D01*
X013413Y014751D01*
X013423Y014683D01*
X013445Y014617D01*
X013476Y014556D01*
X013516Y014500D01*
X013565Y014452D01*
X013621Y014411D01*
X013682Y014380D01*
X013748Y014358D01*
X013816Y014348D01*
X013850Y014348D01*
X013884Y014348D01*
X013952Y014358D01*
X014018Y014380D01*
X014079Y014411D01*
X014135Y014452D01*
X014184Y014500D01*
X014224Y014556D01*
X014255Y014617D01*
X014277Y014683D01*
X014287Y014751D01*
X014287Y014785D01*
X013850Y014785D01*
X013850Y014348D01*
X013850Y014785D01*
X013850Y014785D01*
X013850Y014785D01*
X013413Y014785D01*
X013850Y014785D01*
X013850Y014785D01*
X014287Y014785D01*
X014287Y014820D01*
X014249Y014965D02*
X015369Y014965D01*
X015503Y015124D02*
X014128Y015124D01*
X013850Y015124D02*
X013850Y015124D01*
X013850Y015223D02*
X013850Y014785D01*
X013850Y014785D01*
X013850Y015223D01*
X013850Y014965D02*
X013850Y014965D01*
X013850Y014807D02*
X013850Y014807D01*
X013850Y014648D02*
X013850Y014648D01*
X013850Y014490D02*
X013850Y014490D01*
X014173Y014490D02*
X014879Y014490D01*
X014827Y014331D02*
X011015Y014331D01*
X011010Y014327D02*
X011059Y014375D01*
X011099Y014431D01*
X011130Y014492D01*
X011152Y014558D01*
X011162Y014626D01*
X011162Y014660D01*
X010725Y014660D01*
X010725Y014223D01*
X010759Y014223D01*
X010827Y014233D01*
X010893Y014255D01*
X010954Y014286D01*
X011010Y014327D01*
X011129Y014490D02*
X012555Y014490D01*
X012614Y014431D02*
X012767Y014368D01*
X012933Y014368D01*
X013086Y014431D01*
X013204Y014549D01*
X013267Y014702D01*
X013267Y014868D01*
X013204Y015022D01*
X013086Y015139D01*
X012933Y015203D01*
X012767Y015203D01*
X012614Y015139D01*
X012496Y015022D01*
X012433Y014868D01*
X012433Y014702D01*
X012496Y014549D01*
X012614Y014431D01*
X012455Y014648D02*
X011162Y014648D01*
X011162Y014660D02*
X011162Y014695D01*
X011152Y014763D01*
X011130Y014828D01*
X011099Y014889D01*
X011059Y014945D01*
X011010Y014994D01*
X010954Y015034D01*
X010893Y015066D01*
X010827Y015087D01*
X010759Y015098D01*
X010725Y015098D01*
X010691Y015098D01*
X010623Y015087D01*
X010557Y015066D01*
X010496Y015034D01*
X010440Y014994D01*
X010391Y014945D01*
X010351Y014889D01*
X010320Y014828D01*
X010298Y014763D01*
X010288Y014695D01*
X010288Y014660D01*
X010288Y014626D01*
X010298Y014558D01*
X010320Y014492D01*
X010351Y014431D01*
X010391Y014375D01*
X010440Y014327D01*
X010496Y014286D01*
X010557Y014255D01*
X010623Y014233D01*
X010691Y014223D01*
X010725Y014223D01*
X010725Y014660D01*
X010725Y014660D01*
X010288Y014660D01*
X010725Y014660D01*
X010725Y014660D01*
X010725Y014660D01*
X011162Y014660D01*
X011137Y014807D02*
X012433Y014807D01*
X012473Y014965D02*
X011039Y014965D01*
X010725Y014965D02*
X010725Y014965D01*
X010725Y015098D02*
X010725Y014660D01*
X010725Y015098D01*
X010725Y014807D02*
X010725Y014807D01*
X010725Y014660D02*
X010725Y014660D01*
X010725Y014648D02*
X010725Y014648D01*
X010725Y014490D02*
X010725Y014490D01*
X010725Y014331D02*
X010725Y014331D01*
X010808Y014078D02*
X010642Y014078D01*
X010489Y014014D01*
X008517Y014014D01*
X008562Y014060D02*
X008450Y013948D01*
X008304Y013887D01*
X008146Y013887D01*
X008106Y013904D01*
X008123Y013864D01*
X008123Y013706D01*
X008062Y013560D01*
X007950Y013448D01*
X007804Y013387D01*
X007646Y013387D01*
X007500Y013448D01*
X007388Y013560D01*
X007327Y013706D01*
X007327Y013864D01*
X007344Y013904D01*
X007304Y013887D01*
X007146Y013887D01*
X007000Y013948D01*
X006888Y014060D01*
X006827Y014206D01*
X006827Y014364D01*
X006888Y014511D01*
X007000Y014622D01*
X007146Y014683D01*
X007304Y014683D01*
X007450Y014622D01*
X007562Y014511D01*
X007623Y014364D01*
X007623Y014206D01*
X007606Y014167D01*
X007646Y014183D01*
X007804Y014183D01*
X007844Y014167D01*
X007827Y014206D01*
X007827Y014364D01*
X007888Y014511D01*
X008000Y014622D01*
X008146Y014683D01*
X008304Y014683D01*
X008450Y014622D01*
X008562Y014511D01*
X008623Y014364D01*
X008623Y014206D01*
X008562Y014060D01*
X008609Y014173D02*
X014841Y014173D01*
X014933Y014014D02*
X010961Y014014D01*
X010808Y014078D01*
X010961Y014014D02*
X011079Y013897D01*
X011142Y013743D01*
X011142Y013577D01*
X011079Y013424D01*
X010961Y013306D01*
X010808Y013243D01*
X010642Y013243D01*
X010489Y013306D01*
X010371Y013424D01*
X010308Y013577D01*
X010308Y013743D01*
X010371Y013897D01*
X010489Y014014D01*
X010354Y013856D02*
X008123Y013856D01*
X008119Y013697D02*
X010308Y013697D01*
X010323Y013539D02*
X009402Y013539D01*
X009461Y013514D02*
X009308Y013578D01*
X009142Y013578D01*
X008989Y013514D01*
X008871Y013397D01*
X008825Y013286D01*
X008768Y013316D01*
X008702Y013337D01*
X008634Y013348D01*
X008600Y013348D01*
X008566Y013348D01*
X008498Y013337D01*
X008432Y013316D01*
X008371Y013284D01*
X008315Y013244D01*
X008266Y013195D01*
X008226Y013139D01*
X008195Y013078D01*
X008173Y013013D01*
X008163Y012945D01*
X008163Y012910D01*
X008163Y012876D01*
X008173Y012808D01*
X008195Y012742D01*
X008226Y012681D01*
X008266Y012625D01*
X008315Y012577D01*
X008371Y012536D01*
X008432Y012505D01*
X008498Y012483D01*
X008566Y012473D01*
X008600Y012473D01*
X008634Y012473D01*
X008702Y012483D01*
X008768Y012505D01*
X008829Y012536D01*
X008885Y012577D01*
X008934Y012625D01*
X008974Y012681D01*
X009005Y012742D01*
X009022Y012793D01*
X009142Y012743D01*
X009308Y012743D01*
X009461Y012806D01*
X009579Y012924D01*
X009642Y013077D01*
X009642Y013243D01*
X009579Y013397D01*
X009461Y013514D01*
X009586Y013380D02*
X010415Y013380D01*
X011035Y013380D02*
X020645Y013380D01*
X020644Y013222D02*
X009642Y013222D01*
X009637Y013063D02*
X020644Y013063D01*
X020643Y012905D02*
X009560Y012905D01*
X009316Y012746D02*
X020642Y012746D01*
X020642Y012588D02*
X017447Y012588D01*
X017452Y012587D02*
X017384Y012598D01*
X017350Y012598D01*
X017316Y012598D01*
X017248Y012587D01*
X017182Y012566D01*
X017121Y012534D01*
X017065Y012494D01*
X017016Y012445D01*
X016976Y012389D01*
X016945Y012328D01*
X016923Y012263D01*
X016913Y012195D01*
X016913Y012160D01*
X016913Y012126D01*
X016923Y012058D01*
X016945Y011992D01*
X016976Y011931D01*
X017016Y011875D01*
X017065Y011827D01*
X017121Y011786D01*
X017182Y011755D01*
X017248Y011733D01*
X017316Y011723D01*
X017350Y011723D01*
X017384Y011723D01*
X017452Y011733D01*
X017518Y011755D01*
X017579Y011786D01*
X017635Y011827D01*
X017684Y011875D01*
X017724Y011931D01*
X017755Y011992D01*
X017777Y012058D01*
X017787Y012126D01*
X017787Y012160D01*
X017350Y012160D01*
X017350Y011723D01*
X017350Y012160D01*
X017350Y012160D01*
X017350Y012160D01*
X016913Y012160D01*
X017350Y012160D01*
X017350Y012160D01*
X017787Y012160D01*
X017787Y012195D01*
X017777Y012263D01*
X017755Y012328D01*
X017724Y012389D01*
X017684Y012445D01*
X017635Y012494D01*
X017579Y012534D01*
X017518Y012566D01*
X017452Y012587D01*
X017350Y012588D02*
X017350Y012588D01*
X017350Y012598D02*
X017350Y012160D01*
X017350Y012160D01*
X017350Y012598D01*
X017253Y012588D02*
X008896Y012588D01*
X009007Y012746D02*
X009134Y012746D01*
X008600Y012746D02*
X008600Y012746D01*
X008600Y012588D02*
X008600Y012588D01*
X008600Y012473D02*
X008600Y012910D01*
X008600Y012910D01*
X008600Y012473D01*
X008427Y012271D02*
X016926Y012271D01*
X016915Y012112D02*
X008498Y012112D01*
X008498Y012114D02*
X008437Y012261D01*
X008325Y012372D01*
X008179Y012433D01*
X008021Y012433D01*
X007875Y012372D01*
X007763Y012261D01*
X007702Y012114D01*
X007702Y011956D01*
X007719Y011917D01*
X007679Y011933D01*
X007521Y011933D01*
X007481Y011917D01*
X007498Y011956D01*
X007498Y012114D01*
X007437Y012261D01*
X007325Y012372D01*
X007179Y012433D01*
X007021Y012433D01*
X006875Y012372D01*
X006763Y012261D01*
X006702Y012114D01*
X006702Y011956D01*
X006763Y011810D01*
X006875Y011698D01*
X007021Y011637D01*
X007179Y011637D01*
X007219Y011654D01*
X007202Y011614D01*
X007202Y011456D01*
X007263Y011310D01*
X007375Y011198D01*
X007521Y011137D01*
X007679Y011137D01*
X007825Y011198D01*
X007937Y011310D01*
X007998Y011456D01*
X007998Y011614D01*
X007981Y011654D01*
X008021Y011637D01*
X008179Y011637D01*
X008325Y011698D01*
X008437Y011810D01*
X008498Y011956D01*
X008498Y012114D01*
X008497Y011954D02*
X016964Y011954D01*
X017108Y011795D02*
X008423Y011795D01*
X007989Y011637D02*
X020638Y011637D01*
X020638Y011795D02*
X019560Y011795D01*
X019586Y011806D02*
X019704Y011924D01*
X019767Y012077D01*
X019767Y012243D01*
X019704Y012397D01*
X019586Y012514D01*
X019433Y012578D01*
X019267Y012578D01*
X019114Y012514D01*
X018996Y012397D01*
X018933Y012243D01*
X018933Y012077D01*
X018996Y011924D01*
X019114Y011806D01*
X019267Y011743D01*
X019433Y011743D01*
X019586Y011806D01*
X019716Y011954D02*
X020639Y011954D01*
X020640Y012112D02*
X019767Y012112D01*
X019756Y012271D02*
X020640Y012271D01*
X020641Y012429D02*
X019671Y012429D01*
X019140Y011795D02*
X017592Y011795D01*
X017736Y011954D02*
X018984Y011954D01*
X018933Y012112D02*
X017785Y012112D01*
X017774Y012271D02*
X018944Y012271D01*
X019029Y012429D02*
X017695Y012429D01*
X017350Y012429D02*
X017350Y012429D01*
X017350Y012271D02*
X017350Y012271D01*
X017350Y012112D02*
X017350Y012112D01*
X017350Y011954D02*
X017350Y011954D01*
X017350Y011795D02*
X017350Y011795D01*
X017005Y012429D02*
X008188Y012429D01*
X008012Y012429D02*
X007188Y012429D01*
X007012Y012429D02*
X006123Y012429D01*
X006098Y012271D02*
X006773Y012271D01*
X006702Y012112D02*
X005990Y012112D01*
X006142Y011953D02*
X005989Y011889D01*
X005871Y011772D01*
X005808Y011618D01*
X005808Y011452D01*
X005871Y011299D01*
X005989Y011181D01*
X006142Y011118D01*
X006308Y011118D01*
X006461Y011181D01*
X006579Y011299D01*
X006642Y011452D01*
X006642Y011618D01*
X006579Y011772D01*
X006461Y011889D01*
X006308Y011953D01*
X006142Y011953D01*
X006555Y011795D02*
X006777Y011795D01*
X006703Y011954D02*
X003107Y011954D01*
X003142Y011795D02*
X003895Y011795D01*
X003815Y011637D02*
X003115Y011637D01*
X003008Y011478D02*
X003808Y011478D01*
X004413Y011161D02*
X006037Y011161D01*
X005862Y011320D02*
X004588Y011320D01*
X004642Y011478D02*
X005808Y011478D01*
X005815Y011637D02*
X004635Y011637D01*
X004555Y011795D02*
X005895Y011795D01*
X005460Y012112D02*
X004990Y012112D01*
X005098Y012271D02*
X005352Y012271D01*
X005327Y012429D02*
X005123Y012429D01*
X005623Y012905D02*
X006183Y012905D01*
X006183Y012827D02*
X006246Y012674D01*
X006364Y012556D01*
X006517Y012493D01*
X006683Y012493D01*
X006836Y012556D01*
X006954Y012674D01*
X007017Y012827D01*
X007017Y012993D01*
X006954Y013147D01*
X006836Y013264D01*
X006683Y013328D01*
X006517Y013328D01*
X006364Y013264D01*
X006246Y013147D01*
X006183Y012993D01*
X006183Y012827D01*
X006216Y012746D02*
X005952Y012746D01*
X006082Y012588D02*
X006332Y012588D01*
X006212Y013063D02*
X005592Y013063D01*
X005476Y013222D02*
X006321Y013222D01*
X006338Y013380D02*
X008864Y013380D01*
X009048Y013539D02*
X008041Y013539D01*
X008293Y013222D02*
X006879Y013222D01*
X006988Y013063D02*
X008190Y013063D01*
X008163Y012910D02*
X008600Y012910D01*
X008163Y012910D01*
X008163Y012905D02*
X007017Y012905D01*
X006984Y012746D02*
X008193Y012746D01*
X008304Y012588D02*
X006868Y012588D01*
X007427Y012271D02*
X007773Y012271D01*
X007702Y012112D02*
X007498Y012112D01*
X007497Y011954D02*
X007703Y011954D01*
X007998Y011478D02*
X020637Y011478D01*
X020636Y011320D02*
X007941Y011320D01*
X007737Y011161D02*
X020636Y011161D01*
X020646Y013539D02*
X011127Y013539D01*
X011142Y013697D02*
X020646Y013697D01*
X020647Y013856D02*
X011096Y013856D01*
X010435Y014331D02*
X008623Y014331D01*
X008571Y014490D02*
X010321Y014490D01*
X010288Y014648D02*
X008388Y014648D01*
X008600Y014973D02*
X008600Y015410D01*
X008600Y014973D01*
X008600Y015124D02*
X008600Y015124D01*
X008600Y015282D02*
X008600Y015282D01*
X008600Y015410D02*
X008600Y015410D01*
X008163Y015410D01*
X008600Y015410D01*
X008600Y015410D01*
X008600Y015848D01*
X008600Y015410D01*
X008600Y015410D01*
X008600Y015441D02*
X008600Y015441D01*
X008600Y015599D02*
X008600Y015599D01*
X008600Y015758D02*
X008600Y015758D01*
X008334Y015758D02*
X006843Y015758D01*
X006974Y015599D02*
X008205Y015599D01*
X008163Y015441D02*
X007017Y015441D01*
X006999Y015282D02*
X008182Y015282D01*
X008268Y015124D02*
X006904Y015124D01*
X007062Y014648D02*
X006630Y014648D01*
X006642Y014490D02*
X006879Y014490D01*
X006827Y014331D02*
X006592Y014331D01*
X006441Y014173D02*
X006841Y014173D01*
X006933Y014014D02*
X006582Y014014D01*
X006642Y013856D02*
X007327Y013856D01*
X007331Y013697D02*
X006640Y013697D01*
X006569Y013539D02*
X007409Y013539D01*
X007609Y014173D02*
X007621Y014173D01*
X007623Y014331D02*
X007827Y014331D01*
X007829Y014173D02*
X007841Y014173D01*
X007879Y014490D02*
X007571Y014490D01*
X007388Y014648D02*
X008062Y014648D01*
X008854Y014965D02*
X004307Y014965D01*
X004225Y014965D02*
X004225Y014965D01*
X004225Y014973D02*
X004225Y014535D01*
X004225Y014535D01*
X004225Y014973D01*
X004143Y014965D02*
X001100Y014965D01*
X001100Y014807D02*
X003882Y014807D01*
X003802Y014648D02*
X001100Y014648D01*
X001100Y014490D02*
X003789Y014490D01*
X003838Y014331D02*
X001100Y014331D01*
X001100Y015124D02*
X002576Y015124D01*
X002557Y015130D02*
X002623Y015108D01*
X002691Y015098D01*
X002725Y015098D01*
X002759Y015098D01*
X002827Y015108D01*
X002893Y015130D01*
X002954Y015161D01*
X003010Y015202D01*
X003059Y015250D01*
X003099Y015306D01*
X003130Y015367D01*
X003152Y015433D01*
X003162Y015501D01*
X003162Y015535D01*
X002725Y015535D01*
X002725Y015098D01*
X002725Y015535D01*
X002725Y015535D01*
X002288Y015535D01*
X002288Y015501D01*
X002298Y015433D01*
X002320Y015367D01*
X002351Y015306D01*
X002391Y015250D01*
X002440Y015202D01*
X002496Y015161D01*
X002557Y015130D01*
X002725Y015124D02*
X002725Y015124D01*
X002874Y015124D02*
X006296Y015124D01*
X006544Y014807D02*
X008988Y014807D01*
X009462Y014807D02*
X010313Y014807D01*
X010411Y014965D02*
X009596Y014965D01*
X009642Y015124D02*
X012598Y015124D01*
X013102Y015124D02*
X013572Y015124D01*
X013451Y014965D02*
X013227Y014965D01*
X013267Y014807D02*
X013413Y014807D01*
X013435Y014648D02*
X013245Y014648D01*
X013145Y014490D02*
X013527Y014490D01*
X014265Y014648D02*
X015062Y014648D01*
X016102Y015282D02*
X016848Y015282D01*
X017102Y015282D02*
X017540Y015282D01*
X017459Y015441D02*
X017315Y015441D01*
X017373Y015599D02*
X017452Y015599D01*
X017512Y015758D02*
X017365Y015758D01*
X017282Y015916D02*
X017730Y015916D01*
X017952Y016075D02*
X016870Y016075D01*
X016873Y016233D02*
X018001Y016233D01*
X018171Y016392D02*
X016806Y016392D01*
X016573Y016550D02*
X017878Y016550D01*
X017732Y016709D02*
X016488Y016709D01*
X016536Y016867D02*
X017683Y016867D01*
X017696Y017026D02*
X016522Y017026D01*
X016442Y017184D02*
X017784Y017184D01*
X017821Y017501D02*
X017379Y017501D01*
X017479Y017660D02*
X017721Y017660D01*
X017702Y017818D02*
X017498Y017818D01*
X017202Y018294D02*
X014215Y018294D01*
X014029Y018135D02*
X016906Y018135D01*
X017100Y018611D02*
X017100Y018611D01*
X017100Y018769D02*
X017100Y018769D01*
X017100Y018928D02*
X017100Y018928D01*
X017100Y019035D02*
X017100Y019473D01*
X017100Y019035D01*
X017100Y019035D01*
X017100Y019086D02*
X017100Y019086D01*
X017100Y019245D02*
X017100Y019245D01*
X017100Y019403D02*
X017100Y019403D01*
X017146Y019512D02*
X017000Y019573D01*
X016888Y019685D01*
X016827Y019831D01*
X016827Y019989D01*
X016888Y020136D01*
X017000Y020247D01*
X017146Y020308D01*
X017304Y020308D01*
X017344Y020292D01*
X017327Y020331D01*
X017327Y020489D01*
X017344Y020529D01*
X017304Y020512D01*
X017146Y020512D01*
X017000Y020573D01*
X016888Y020685D01*
X016827Y020831D01*
X016827Y020989D01*
X016888Y021136D01*
X017000Y021247D01*
X017146Y021308D01*
X017304Y021308D01*
X017450Y021247D01*
X017562Y021136D01*
X017623Y020989D01*
X017623Y020831D01*
X017606Y020792D01*
X017646Y020808D01*
X017804Y020808D01*
X017950Y020747D01*
X018062Y020636D01*
X018123Y020489D01*
X018123Y020331D01*
X018062Y020185D01*
X017950Y020073D01*
X017804Y020012D01*
X017646Y020012D01*
X017606Y020029D01*
X017623Y019989D01*
X017623Y019831D01*
X017562Y019685D01*
X017450Y019573D01*
X017304Y019512D01*
X017146Y019512D01*
X017027Y019562D02*
X016517Y019562D01*
X016517Y019618D02*
X016454Y019772D01*
X016336Y019889D01*
X016183Y019953D01*
X016017Y019953D01*
X015864Y019889D01*
X015746Y019772D01*
X015683Y019618D01*
X015683Y019452D01*
X015746Y019299D01*
X015864Y019181D01*
X016017Y019118D01*
X016183Y019118D01*
X016336Y019181D01*
X016454Y019299D01*
X016517Y019452D01*
X016517Y019618D01*
X016475Y019720D02*
X016873Y019720D01*
X016827Y019879D02*
X016347Y019879D01*
X016304Y020012D02*
X016450Y020073D01*
X016562Y020185D01*
X016623Y020331D01*
X016623Y020489D01*
X016562Y020636D01*
X016450Y020747D01*
X016304Y020808D01*
X016146Y020808D01*
X016106Y020792D01*
X016123Y020831D01*
X016123Y020989D01*
X016062Y021136D01*
X015950Y021247D01*
X015804Y021308D01*
X015646Y021308D01*
X015500Y021247D01*
X015388Y021136D01*
X015327Y020989D01*
X015327Y020831D01*
X015344Y020792D01*
X015304Y020808D01*
X015146Y020808D01*
X015000Y020747D01*
X014888Y020636D01*
X014827Y020489D01*
X014827Y020331D01*
X014888Y020185D01*
X015000Y020073D01*
X015146Y020012D01*
X015304Y020012D01*
X015450Y020073D01*
X015562Y020185D01*
X015623Y020331D01*
X015623Y020489D01*
X015606Y020529D01*
X015646Y020512D01*
X015804Y020512D01*
X015844Y020529D01*
X015827Y020489D01*
X015827Y020331D01*
X015888Y020185D01*
X016000Y020073D01*
X016146Y020012D01*
X016304Y020012D01*
X016364Y020037D02*
X016847Y020037D01*
X016948Y020196D02*
X016567Y020196D01*
X016623Y020354D02*
X017327Y020354D01*
X017337Y020513D02*
X017305Y020513D01*
X017145Y020513D02*
X016613Y020513D01*
X016527Y020671D02*
X016901Y020671D01*
X016828Y020830D02*
X016122Y020830D01*
X016123Y020988D02*
X016827Y020988D01*
X016899Y021147D02*
X016051Y021147D01*
X015811Y021305D02*
X017139Y021305D01*
X017311Y021305D02*
X020678Y021305D01*
X020677Y021147D02*
X017551Y021147D01*
X017623Y020988D02*
X020677Y020988D01*
X020676Y020830D02*
X017622Y020830D01*
X018027Y020671D02*
X020675Y020671D01*
X020675Y020513D02*
X018113Y020513D01*
X018123Y020354D02*
X020453Y020354D01*
X020287Y020196D02*
X018067Y020196D01*
X017864Y020037D02*
X020221Y020037D01*
X020211Y019879D02*
X017623Y019879D01*
X017577Y019720D02*
X020247Y019720D01*
X020346Y019562D02*
X017423Y019562D01*
X016862Y019403D02*
X016497Y019403D01*
X016400Y019245D02*
X016716Y019245D01*
X016086Y020037D02*
X015364Y020037D01*
X015567Y020196D02*
X015883Y020196D01*
X015827Y020354D02*
X015623Y020354D01*
X015613Y020513D02*
X015645Y020513D01*
X015805Y020513D02*
X015837Y020513D01*
X015853Y019879D02*
X014015Y019879D01*
X014018Y019880D02*
X014079Y019911D01*
X014135Y019952D01*
X014184Y020000D01*
X014224Y020056D01*
X014255Y020117D01*
X014277Y020183D01*
X014287Y020251D01*
X014287Y020285D01*
X013850Y020285D01*
X013850Y019848D01*
X013884Y019848D01*
X013952Y019858D01*
X014018Y019880D01*
X013850Y019879D02*
X013850Y019879D01*
X013850Y019848D02*
X013850Y020285D01*
X013850Y020285D01*
X013850Y020285D01*
X013413Y020285D01*
X013413Y020251D01*
X013423Y020183D01*
X013445Y020117D01*
X013476Y020056D01*
X013516Y020000D01*
X013565Y019952D01*
X013621Y019911D01*
X013682Y019880D01*
X013748Y019858D01*
X013816Y019848D01*
X013850Y019848D01*
X013685Y019879D02*
X012960Y019879D01*
X012933Y019868D02*
X013086Y019931D01*
X013204Y020049D01*
X013267Y020202D01*
X013267Y020368D01*
X013204Y020522D01*
X013086Y020639D01*
X012933Y020703D01*
X012767Y020703D01*
X012614Y020639D01*
X012496Y020522D01*
X012433Y020368D01*
X012433Y020202D01*
X012496Y020049D01*
X012614Y019931D01*
X012767Y019868D01*
X012933Y019868D01*
X012740Y019879D02*
X009009Y019879D01*
X009005Y019867D02*
X009027Y019933D01*
X009037Y020001D01*
X009037Y020035D01*
X008600Y020035D01*
X008600Y019598D01*
X008634Y019598D01*
X008702Y019608D01*
X008768Y019630D01*
X008829Y019661D01*
X008885Y019702D01*
X008934Y019750D01*
X008974Y019806D01*
X009005Y019867D01*
X009037Y020035D02*
X009037Y020036D01*
X009142Y019993D01*
X009308Y019993D01*
X009461Y020056D01*
X009579Y020174D01*
X009642Y020327D01*
X009642Y020493D01*
X009579Y020647D01*
X009461Y020764D01*
X009308Y020828D01*
X009142Y020828D01*
X008989Y020764D01*
X008871Y020647D01*
X008808Y020493D01*
X008808Y020420D01*
X008768Y020441D01*
X008702Y020462D01*
X008634Y020473D01*
X008600Y020473D01*
X008566Y020473D01*
X008498Y020462D01*
X008432Y020441D01*
X008371Y020409D01*
X008315Y020369D01*
X008266Y020320D01*
X008226Y020264D01*
X008195Y020203D01*
X008173Y020138D01*
X008163Y020070D01*
X008163Y020035D01*
X008163Y020001D01*
X008173Y019933D01*
X008195Y019867D01*
X008226Y019806D01*
X008266Y019750D01*
X008315Y019702D01*
X008371Y019661D01*
X008432Y019630D01*
X008498Y019608D01*
X008566Y019598D01*
X008600Y019598D01*
X008600Y020035D01*
X008600Y020035D01*
X008600Y020035D01*
X008163Y020035D01*
X008600Y020035D01*
X008600Y020035D01*
X009037Y020035D01*
X008904Y019720D02*
X015725Y019720D01*
X015683Y019562D02*
X006123Y019562D01*
X006123Y019614D02*
X006062Y019761D01*
X005950Y019872D01*
X005804Y019933D01*
X005646Y019933D01*
X005606Y019917D01*
X005623Y019956D01*
X005623Y020114D01*
X005562Y020261D01*
X005450Y020372D01*
X005304Y020433D01*
X005146Y020433D01*
X005000Y020372D01*
X004888Y020261D01*
X004827Y020114D01*
X004827Y019956D01*
X004844Y019917D01*
X004804Y019933D01*
X004646Y019933D01*
X004500Y019872D01*
X004388Y019761D01*
X004327Y019614D01*
X004327Y019456D01*
X004388Y019310D01*
X004500Y019198D01*
X004646Y019137D01*
X004804Y019137D01*
X004950Y019198D01*
X005062Y019310D01*
X005123Y019456D01*
X005123Y019614D01*
X005106Y019654D01*
X005146Y019637D01*
X005304Y019637D01*
X005344Y019654D01*
X005327Y019614D01*
X005327Y019456D01*
X005388Y019310D01*
X005500Y019198D01*
X005646Y019137D01*
X005804Y019137D01*
X005950Y019198D01*
X006062Y019310D01*
X006123Y019456D01*
X006123Y019614D01*
X006079Y019720D02*
X006325Y019720D01*
X006364Y019681D02*
X006246Y019799D01*
X006183Y019952D01*
X006183Y020118D01*
X006246Y020272D01*
X006364Y020389D01*
X006517Y020453D01*
X006683Y020453D01*
X006836Y020389D01*
X006954Y020272D01*
X007017Y020118D01*
X007017Y019952D01*
X006954Y019799D01*
X006836Y019681D01*
X006683Y019618D01*
X006517Y019618D01*
X006364Y019681D01*
X006213Y019879D02*
X005935Y019879D01*
X006183Y020037D02*
X005623Y020037D01*
X005589Y020196D02*
X006215Y020196D01*
X006329Y020354D02*
X005469Y020354D01*
X005871Y020674D02*
X005989Y020556D01*
X006142Y020493D01*
X006308Y020493D01*
X006461Y020556D01*
X006579Y020674D01*
X006642Y020827D01*
X006642Y020993D01*
X006579Y021147D01*
X006926Y021147D01*
X006888Y021185D02*
X007000Y021073D01*
X007146Y021012D01*
X007304Y021012D01*
X007344Y021029D01*
X007327Y020989D01*
X007327Y020831D01*
X007388Y020685D01*
X007500Y020573D01*
X007646Y020512D01*
X007804Y020512D01*
X007950Y020573D01*
X008062Y020685D01*
X008123Y020831D01*
X008123Y020989D01*
X008106Y021029D01*
X008146Y021012D01*
X008304Y021012D01*
X008450Y021073D01*
X008562Y021185D01*
X008623Y021331D01*
X008623Y021489D01*
X008562Y021636D01*
X008450Y021747D01*
X008304Y021808D01*
X008146Y021808D01*
X008000Y021747D01*
X007888Y021636D01*
X007827Y021489D01*
X007827Y021331D01*
X007844Y021292D01*
X007804Y021308D01*
X007646Y021308D01*
X007606Y021292D01*
X007623Y021331D01*
X007623Y021489D01*
X007562Y021636D01*
X007450Y021747D01*
X007304Y021808D01*
X007146Y021808D01*
X007000Y021747D01*
X006888Y021636D01*
X006827Y021489D01*
X006827Y021331D01*
X006888Y021185D01*
X006838Y021305D02*
X006459Y021305D01*
X006461Y021306D02*
X006579Y021424D01*
X006642Y021577D01*
X006642Y021743D01*
X006579Y021897D01*
X006461Y022014D01*
X006308Y022078D01*
X006142Y022078D01*
X005989Y022014D01*
X005871Y021897D01*
X005808Y021743D01*
X005808Y021577D01*
X005871Y021424D01*
X005989Y021306D01*
X006039Y021285D01*
X005989Y021264D01*
X005871Y021147D01*
X004594Y021147D01*
X004599Y021139D02*
X004559Y021195D01*
X004510Y021244D01*
X004454Y021284D01*
X004453Y021285D01*
X004454Y021286D01*
X004510Y021327D01*
X004559Y021375D01*
X004599Y021431D01*
X004630Y021492D01*
X004652Y021558D01*
X004662Y021626D01*
X004662Y021660D01*
X004225Y021660D01*
X004225Y021223D01*
X004225Y020910D01*
X004225Y020473D01*
X004259Y020473D01*
X004327Y020483D01*
X004393Y020505D01*
X004454Y020536D01*
X004510Y020577D01*
X004559Y020625D01*
X004599Y020681D01*
X004630Y020742D01*
X004652Y020808D01*
X004662Y020876D01*
X004662Y020910D01*
X004225Y020910D01*
X004225Y020910D01*
X004225Y020473D01*
X004191Y020473D01*
X004123Y020483D01*
X004057Y020505D01*
X003996Y020536D01*
X003940Y020577D01*
X003891Y020625D01*
X003851Y020681D01*
X003820Y020742D01*
X003798Y020808D01*
X003788Y020876D01*
X003788Y020910D01*
X004225Y020910D01*
X004225Y020910D01*
X004225Y020910D01*
X004662Y020910D01*
X004662Y020945D01*
X004652Y021013D01*
X004630Y021078D01*
X004599Y021139D01*
X004656Y020988D02*
X005808Y020988D01*
X005808Y020993D02*
X005808Y020827D01*
X005871Y020674D01*
X005874Y020671D02*
X004592Y020671D01*
X004655Y020830D02*
X005808Y020830D01*
X005808Y020993D02*
X005871Y021147D01*
X005991Y021305D02*
X004481Y021305D01*
X004616Y021464D02*
X005855Y021464D01*
X005808Y021622D02*
X004662Y021622D01*
X004662Y021660D02*
X004662Y021695D01*
X004652Y021763D01*
X004630Y021828D01*
X004599Y021889D01*
X004559Y021945D01*
X004510Y021994D01*
X004454Y022034D01*
X004393Y022066D01*
X004327Y022087D01*
X004259Y022098D01*
X004225Y022098D01*
X004191Y022098D01*
X004123Y022087D01*
X004057Y022066D01*
X003996Y022034D01*
X003940Y021994D01*
X003891Y021945D01*
X003851Y021889D01*
X003820Y021828D01*
X003798Y021763D01*
X003788Y021695D01*
X003788Y021660D01*
X003788Y021626D01*
X003798Y021558D01*
X003820Y021492D01*
X003851Y021431D01*
X003891Y021375D01*
X003940Y021327D01*
X003996Y021286D01*
X003997Y021285D01*
X003996Y021284D01*
X003940Y021244D01*
X003891Y021195D01*
X003851Y021139D01*
X003820Y021078D01*
X003798Y021013D01*
X003788Y020945D01*
X003788Y020910D01*
X004225Y020910D01*
X004225Y021660D01*
X004225Y021660D01*
X004225Y021660D01*
X003788Y021660D01*
X004225Y021660D01*
X004225Y021660D01*
X004662Y021660D01*
X004646Y021781D02*
X005823Y021781D01*
X005914Y021939D02*
X004563Y021939D01*
X004646Y022262D02*
X004500Y022323D01*
X004388Y022435D01*
X004327Y022581D01*
X004327Y022739D01*
X004388Y022886D01*
X004500Y022997D01*
X004646Y023058D01*
X004804Y023058D01*
X004844Y023042D01*
X004827Y023081D01*
X004827Y023239D01*
X004888Y023386D01*
X005000Y023497D01*
X005146Y023558D01*
X005304Y023558D01*
X005450Y023497D01*
X005562Y023386D01*
X005623Y023239D01*
X005623Y023081D01*
X005606Y023042D01*
X005646Y023058D01*
X005804Y023058D01*
X005950Y022997D01*
X006062Y022886D01*
X006123Y022739D01*
X006123Y022581D01*
X006062Y022435D01*
X005950Y022323D01*
X005804Y022262D01*
X005646Y022262D01*
X005500Y022323D01*
X005388Y022435D01*
X005327Y022581D01*
X005327Y022739D01*
X005344Y022779D01*
X005304Y022762D01*
X005146Y022762D01*
X005106Y022779D01*
X005123Y022739D01*
X005123Y022581D01*
X005062Y022435D01*
X004950Y022323D01*
X004804Y022262D01*
X004646Y022262D01*
X004408Y022415D02*
X003087Y022415D01*
X003099Y022431D02*
X003130Y022492D01*
X003152Y022558D01*
X003162Y022626D01*
X003162Y022660D01*
X002725Y022660D01*
X002725Y022223D01*
X002759Y022223D01*
X002827Y022233D01*
X002893Y022255D01*
X002954Y022286D01*
X003010Y022327D01*
X003059Y022375D01*
X003099Y022431D01*
X003154Y022573D02*
X004330Y022573D01*
X004327Y022732D02*
X003157Y022732D01*
X003152Y022763D02*
X003130Y022828D01*
X003099Y022889D01*
X003059Y022945D01*
X003010Y022994D01*
X002954Y023034D01*
X002893Y023066D01*
X002827Y023087D01*
X002759Y023098D01*
X002725Y023098D01*
X002691Y023098D01*
X002623Y023087D01*
X002557Y023066D01*
X002496Y023034D01*
X002440Y022994D01*
X002391Y022945D01*
X002351Y022889D01*
X002320Y022828D01*
X002298Y022763D01*
X002288Y022695D01*
X002288Y022660D01*
X002288Y022626D01*
X002298Y022558D01*
X002320Y022492D01*
X002351Y022431D01*
X002391Y022375D01*
X002440Y022327D01*
X002496Y022286D01*
X002557Y022255D01*
X002623Y022233D01*
X002691Y022223D01*
X002725Y022223D01*
X002725Y022660D01*
X002725Y022660D01*
X002288Y022660D01*
X002725Y022660D01*
X002725Y022660D01*
X002725Y022660D01*
X003162Y022660D01*
X003162Y022695D01*
X003152Y022763D01*
X003099Y022890D02*
X004392Y022890D01*
X004624Y023049D02*
X002926Y023049D01*
X002725Y023049D02*
X002725Y023049D01*
X002725Y023098D02*
X002725Y022660D01*
X002725Y022660D01*
X002725Y023098D01*
X002808Y023243D02*
X002961Y023306D01*
X003079Y023424D01*
X003142Y023577D01*
X003142Y023743D01*
X003079Y023897D01*
X002961Y024014D01*
X002808Y024078D01*
X002642Y024078D01*
X002489Y024014D01*
X002371Y023897D01*
X002308Y023743D01*
X002308Y023577D01*
X002371Y023424D01*
X002489Y023306D01*
X002642Y023243D01*
X002808Y023243D01*
X003021Y023366D02*
X004880Y023366D01*
X004827Y023207D02*
X002114Y023207D01*
X002111Y023049D02*
X002524Y023049D01*
X002351Y022890D02*
X002045Y022890D01*
X001899Y022732D02*
X002293Y022732D01*
X002296Y022573D02*
X001100Y022573D01*
X001100Y022415D02*
X002363Y022415D01*
X002554Y022256D02*
X001100Y022256D01*
X001100Y022098D02*
X008565Y022098D01*
X008566Y022098D02*
X008600Y022098D01*
X008600Y022098D01*
X008634Y022098D01*
X008702Y022108D01*
X008768Y022130D01*
X008829Y022161D01*
X008865Y022187D01*
X008871Y022174D01*
X008989Y022056D01*
X009142Y021993D01*
X009308Y021993D01*
X009461Y022056D01*
X009579Y022174D01*
X009642Y022327D01*
X009642Y022493D01*
X009579Y022647D01*
X009461Y022764D01*
X009308Y022828D01*
X009142Y022828D01*
X008989Y022764D01*
X008979Y022755D01*
X008974Y022764D01*
X008934Y022820D01*
X008885Y022869D01*
X008829Y022909D01*
X008768Y022941D01*
X008702Y022962D01*
X008634Y022973D01*
X008600Y022973D01*
X008566Y022973D01*
X008498Y022962D01*
X008432Y022941D01*
X008371Y022909D01*
X008315Y022869D01*
X008266Y022820D01*
X008226Y022764D01*
X008195Y022703D01*
X008173Y022638D01*
X008163Y022570D01*
X008163Y022535D01*
X008163Y022501D01*
X008173Y022433D01*
X008195Y022367D01*
X008226Y022306D01*
X008266Y022250D01*
X008315Y022202D01*
X008371Y022161D01*
X008432Y022130D01*
X008498Y022108D01*
X008566Y022098D01*
X008600Y022098D02*
X008600Y022535D01*
X008600Y022098D01*
X008634Y022098D02*
X008947Y022098D01*
X008600Y022256D02*
X008600Y022256D01*
X008600Y022415D02*
X008600Y022415D01*
X008600Y022535D02*
X008600Y022535D01*
X008163Y022535D01*
X008600Y022535D01*
X008600Y022535D01*
X008600Y022973D01*
X008600Y022535D01*
X008600Y022535D01*
X008600Y022573D02*
X008600Y022573D01*
X008600Y022732D02*
X008600Y022732D01*
X008600Y022890D02*
X008600Y022890D01*
X008344Y022890D02*
X006834Y022890D01*
X006836Y022889D02*
X006683Y022953D01*
X006517Y022953D01*
X006364Y022889D01*
X006246Y022772D01*
X006183Y022618D01*
X006183Y022452D01*
X006246Y022299D01*
X006364Y022181D01*
X006517Y022118D01*
X006683Y022118D01*
X006836Y022181D01*
X006954Y022299D01*
X007017Y022452D01*
X007017Y022618D01*
X006954Y022772D01*
X006836Y022889D01*
X006933Y023049D02*
X005826Y023049D01*
X005624Y023049D02*
X005609Y023049D01*
X005623Y023207D02*
X006754Y023207D01*
X006763Y023185D02*
X006875Y023073D01*
X007021Y023012D01*
X007179Y023012D01*
X007325Y023073D01*
X007437Y023185D01*
X007498Y023331D01*
X007498Y023489D01*
X007481Y023529D01*
X007521Y023512D01*
X007679Y023512D01*
X007719Y023529D01*
X007702Y023489D01*
X007702Y023331D01*
X007763Y023185D01*
X007875Y023073D01*
X008021Y023012D01*
X008179Y023012D01*
X008325Y023073D01*
X008437Y023185D01*
X008498Y023331D01*
X008498Y023489D01*
X008437Y023636D01*
X008325Y023747D01*
X008179Y023808D01*
X008021Y023808D01*
X007981Y023792D01*
X007998Y023831D01*
X007998Y023989D01*
X007937Y024136D01*
X007825Y024247D01*
X007679Y024308D01*
X007521Y024308D01*
X007375Y024247D01*
X007263Y024136D01*
X007202Y023989D01*
X007202Y023831D01*
X007219Y023792D01*
X007179Y023808D01*
X007021Y023808D01*
X006875Y023747D01*
X006763Y023636D01*
X006702Y023489D01*
X006702Y023331D01*
X006763Y023185D01*
X006702Y023366D02*
X005570Y023366D01*
X005386Y023524D02*
X006066Y023524D01*
X006142Y023493D02*
X005989Y023556D01*
X005871Y023674D01*
X005808Y023827D01*
X005808Y023993D01*
X005871Y024147D01*
X005989Y024264D01*
X006142Y024328D01*
X006308Y024328D01*
X006461Y024264D01*
X006579Y024147D01*
X006642Y023993D01*
X006642Y023827D01*
X006579Y023674D01*
X006461Y023556D01*
X006308Y023493D01*
X006142Y023493D01*
X006384Y023524D02*
X006717Y023524D01*
X006810Y023683D02*
X006583Y023683D01*
X006642Y023841D02*
X007202Y023841D01*
X007207Y024000D02*
X006640Y024000D01*
X006567Y024158D02*
X007285Y024158D01*
X007483Y023524D02*
X007492Y023524D01*
X007498Y023366D02*
X007702Y023366D01*
X007708Y023524D02*
X007717Y023524D01*
X007754Y023207D02*
X007446Y023207D01*
X007267Y023049D02*
X007933Y023049D01*
X008267Y023049D02*
X020685Y023049D01*
X020686Y023207D02*
X008446Y023207D01*
X008498Y023366D02*
X020687Y023366D01*
X020687Y023524D02*
X008483Y023524D01*
X008390Y023683D02*
X020688Y023683D01*
X020689Y023841D02*
X007998Y023841D01*
X007993Y024000D02*
X014375Y024000D01*
X014392Y023993D02*
X014558Y023993D01*
X014711Y024056D01*
X014829Y024174D01*
X014892Y024327D01*
X014892Y024493D01*
X014829Y024647D01*
X014711Y024764D01*
X014558Y024828D01*
X014392Y024828D01*
X014239Y024764D01*
X014121Y024647D01*
X014058Y024493D01*
X014058Y024327D01*
X014121Y024174D01*
X014239Y024056D01*
X014392Y023993D01*
X014575Y024000D02*
X020689Y024000D01*
X020690Y024158D02*
X014813Y024158D01*
X014888Y024317D02*
X020691Y024317D01*
X020691Y024475D02*
X014892Y024475D01*
X014834Y024634D02*
X020692Y024634D01*
X020693Y024792D02*
X014644Y024792D01*
X014306Y024792D02*
X001100Y024792D01*
X001100Y024634D02*
X014116Y024634D01*
X014058Y024475D02*
X001100Y024475D01*
X001100Y024317D02*
X004116Y024317D01*
X004142Y024328D02*
X003989Y024264D01*
X003871Y024147D01*
X003808Y023993D01*
X003808Y023827D01*
X003871Y023674D01*
X003989Y023556D01*
X004142Y023493D01*
X004308Y023493D01*
X004461Y023556D01*
X004579Y023674D01*
X004642Y023827D01*
X004642Y023993D01*
X004579Y024147D01*
X004461Y024264D01*
X004308Y024328D01*
X004142Y024328D01*
X004334Y024317D02*
X006116Y024317D01*
X006334Y024317D02*
X014062Y024317D01*
X014137Y024158D02*
X007915Y024158D01*
X007679Y025387D02*
X007521Y025387D01*
X007375Y025448D01*
X007263Y025560D01*
X007202Y025706D01*
X007202Y025864D01*
X007219Y025904D01*
X007179Y025887D01*
X007021Y025887D01*
X006875Y025948D01*
X006763Y026060D01*
X006702Y026206D01*
X006702Y026364D01*
X006763Y026511D01*
X006875Y026622D01*
X007021Y026683D01*
X007179Y026683D01*
X007325Y026622D01*
X007437Y026511D01*
X007498Y026364D01*
X007498Y026206D01*
X007481Y026167D01*
X007521Y026183D01*
X007679Y026183D01*
X007719Y026167D01*
X007702Y026206D01*
X007702Y026364D01*
X007763Y026511D01*
X007875Y026622D01*
X008021Y026683D01*
X008179Y026683D01*
X008325Y026622D01*
X008437Y026511D01*
X008498Y026364D01*
X008498Y026206D01*
X008437Y026060D01*
X008325Y025948D01*
X008179Y025887D01*
X008021Y025887D01*
X007981Y025904D01*
X007998Y025864D01*
X007998Y025706D01*
X007937Y025560D01*
X007825Y025448D01*
X007679Y025387D01*
X007773Y025426D02*
X020695Y025426D01*
X020695Y025268D02*
X001100Y025268D01*
X001100Y025426D02*
X004001Y025426D01*
X003989Y025431D02*
X004142Y025368D01*
X004308Y025368D01*
X004461Y025431D01*
X004579Y025549D01*
X004642Y025702D01*
X004642Y025868D01*
X004579Y026022D01*
X004461Y026139D01*
X004308Y026203D01*
X004142Y026203D01*
X003989Y026139D01*
X003871Y026022D01*
X003808Y025868D01*
X003808Y025702D01*
X003871Y025549D01*
X003989Y025431D01*
X003856Y025585D02*
X001100Y025585D01*
X001100Y025743D02*
X002427Y025743D01*
X002371Y025799D02*
X002489Y025681D01*
X002642Y025618D01*
X002808Y025618D01*
X002961Y025681D01*
X003079Y025799D01*
X003142Y025952D01*
X003142Y026118D01*
X003079Y026272D01*
X002961Y026389D01*
X002808Y026453D01*
X002642Y026453D01*
X002489Y026389D01*
X002371Y026272D01*
X002308Y026118D01*
X002308Y025952D01*
X002371Y025799D01*
X002328Y025902D02*
X001100Y025902D01*
X001100Y026060D02*
X001403Y026060D01*
X001189Y026219D02*
X001100Y026219D01*
X001100Y026377D02*
X001109Y026377D01*
X001100Y026694D02*
X001109Y026694D01*
X001100Y026853D02*
X001190Y026853D01*
X001100Y027011D02*
X001405Y027011D01*
X001100Y027170D02*
X002309Y027170D01*
X002298Y027138D02*
X002288Y027070D01*
X002288Y027035D01*
X002288Y027001D01*
X002298Y026933D01*
X002320Y026867D01*
X002351Y026806D01*
X002391Y026750D01*
X002440Y026702D01*
X002496Y026661D01*
X002557Y026630D01*
X002623Y026608D01*
X002691Y026598D01*
X002725Y026598D01*
X002759Y026598D01*
X002827Y026608D01*
X002893Y026630D01*
X002954Y026661D01*
X003010Y026702D01*
X003059Y026750D01*
X003099Y026806D01*
X003130Y026867D01*
X003152Y026933D01*
X003162Y027001D01*
X003162Y027035D01*
X002725Y027035D01*
X002725Y026598D01*
X002725Y027035D01*
X002725Y027035D01*
X002288Y027035D01*
X002725Y027035D01*
X002725Y027035D01*
X002725Y027035D01*
X003162Y027035D01*
X003162Y027070D01*
X003152Y027138D01*
X003130Y027203D01*
X003099Y027264D01*
X003059Y027320D01*
X003010Y027369D01*
X002954Y027409D01*
X002893Y027441D01*
X002827Y027462D01*
X002759Y027473D01*
X002725Y027473D01*
X002691Y027473D01*
X002623Y027462D01*
X002557Y027441D01*
X002496Y027409D01*
X002440Y027369D01*
X002391Y027320D01*
X002351Y027264D01*
X002320Y027203D01*
X002298Y027138D01*
X002288Y027011D02*
X001795Y027011D01*
X002010Y026853D02*
X002327Y026853D01*
X002450Y026694D02*
X002091Y026694D01*
X002114Y026536D02*
X004346Y026536D01*
X004327Y026581D02*
X004388Y026435D01*
X004500Y026323D01*
X004646Y026262D01*
X004804Y026262D01*
X004950Y026323D01*
X005062Y026435D01*
X005123Y026581D01*
X005123Y026739D01*
X005106Y026779D01*
X005146Y026762D01*
X005304Y026762D01*
X005344Y026779D01*
X005327Y026739D01*
X005327Y026581D01*
X005388Y026435D01*
X005500Y026323D01*
X005646Y026262D01*
X005804Y026262D01*
X005950Y026323D01*
X006062Y026435D01*
X006123Y026581D01*
X006123Y026739D01*
X006062Y026886D01*
X005950Y026997D01*
X005804Y027058D01*
X005646Y027058D01*
X005606Y027042D01*
X005623Y027081D01*
X005623Y027239D01*
X005562Y027386D01*
X005450Y027497D01*
X005304Y027558D01*
X005146Y027558D01*
X005000Y027497D01*
X004888Y027386D01*
X004827Y027239D01*
X004827Y027081D01*
X004844Y027042D01*
X004804Y027058D01*
X004646Y027058D01*
X004500Y026997D01*
X004388Y026886D01*
X004327Y026739D01*
X004327Y026581D01*
X004327Y026694D02*
X003000Y026694D01*
X003123Y026853D02*
X004374Y026853D01*
X004533Y027011D02*
X003162Y027011D01*
X003141Y027170D02*
X004827Y027170D01*
X004864Y027328D02*
X003051Y027328D01*
X002725Y027328D02*
X002725Y027328D01*
X002725Y027473D02*
X002725Y027035D01*
X002725Y027035D01*
X002725Y027473D01*
X002725Y027170D02*
X002725Y027170D01*
X002725Y027011D02*
X002725Y027011D01*
X002725Y026853D02*
X002725Y026853D01*
X002725Y026694D02*
X002725Y026694D01*
X002973Y026377D02*
X004445Y026377D01*
X004540Y026060D02*
X005910Y026060D01*
X005871Y026022D02*
X005989Y026139D01*
X006142Y026203D01*
X006308Y026203D01*
X006461Y026139D01*
X006579Y026022D01*
X006642Y025868D01*
X006642Y025702D01*
X006579Y025549D01*
X006461Y025431D01*
X006308Y025368D01*
X006142Y025368D01*
X005989Y025431D01*
X005871Y025549D01*
X005808Y025702D01*
X005808Y025868D01*
X005871Y026022D01*
X005821Y025902D02*
X004629Y025902D01*
X004642Y025743D02*
X005808Y025743D01*
X005856Y025585D02*
X004594Y025585D01*
X004449Y025426D02*
X006001Y025426D01*
X006449Y025426D02*
X007427Y025426D01*
X007252Y025585D02*
X006594Y025585D01*
X006642Y025743D02*
X007202Y025743D01*
X007214Y025902D02*
X007218Y025902D01*
X006986Y025902D02*
X006629Y025902D01*
X006540Y026060D02*
X006763Y026060D01*
X006702Y026219D02*
X003101Y026219D01*
X003142Y026060D02*
X003910Y026060D01*
X003821Y025902D02*
X003122Y025902D01*
X003023Y025743D02*
X003808Y025743D01*
X003883Y024158D02*
X001100Y024158D01*
X001100Y024000D02*
X002474Y024000D01*
X002348Y023841D02*
X001100Y023841D01*
X001100Y023683D02*
X002308Y023683D01*
X002329Y023524D02*
X001963Y023524D01*
X002072Y023366D02*
X002429Y023366D01*
X002725Y022890D02*
X002725Y022890D01*
X002725Y022732D02*
X002725Y022732D01*
X002725Y022573D02*
X002725Y022573D01*
X002725Y022415D02*
X002725Y022415D01*
X002725Y022256D02*
X002725Y022256D01*
X002896Y022256D02*
X006289Y022256D01*
X006198Y022415D02*
X006042Y022415D01*
X006120Y022573D02*
X006183Y022573D01*
X006230Y022732D02*
X006123Y022732D01*
X006058Y022890D02*
X006366Y022890D01*
X006970Y022732D02*
X008209Y022732D01*
X008163Y022573D02*
X007017Y022573D01*
X007002Y022415D02*
X008179Y022415D01*
X008262Y022256D02*
X006911Y022256D01*
X007080Y021781D02*
X006627Y021781D01*
X006642Y021622D02*
X006882Y021622D01*
X006827Y021464D02*
X006595Y021464D01*
X006461Y021306D02*
X006411Y021285D01*
X006461Y021264D01*
X006579Y021147D01*
X006642Y020988D02*
X007327Y020988D01*
X007328Y020830D02*
X006642Y020830D01*
X006576Y020671D02*
X007401Y020671D01*
X007645Y020513D02*
X006356Y020513D01*
X006094Y020513D02*
X004409Y020513D01*
X004225Y020513D02*
X004225Y020513D01*
X004225Y020671D02*
X004225Y020671D01*
X004225Y020830D02*
X004225Y020830D01*
X004225Y020910D02*
X004225Y020910D01*
X004225Y020988D02*
X004225Y020988D01*
X004225Y021147D02*
X004225Y021147D01*
X004225Y021305D02*
X004225Y021305D01*
X004225Y021464D02*
X004225Y021464D01*
X004225Y021622D02*
X004225Y021622D01*
X004225Y021660D02*
X004225Y022098D01*
X004225Y021660D01*
X004225Y021660D01*
X004225Y021781D02*
X004225Y021781D01*
X004225Y021939D02*
X004225Y021939D01*
X003969Y021305D02*
X001100Y021305D01*
X001100Y021147D02*
X003856Y021147D01*
X003794Y020988D02*
X001100Y020988D01*
X001100Y020830D02*
X003795Y020830D01*
X003858Y020671D02*
X001100Y020671D01*
X001100Y020513D02*
X004041Y020513D01*
X004515Y019879D02*
X003162Y019879D01*
X003162Y019876D02*
X003162Y019910D01*
X002725Y019910D01*
X002725Y019473D01*
X002759Y019473D01*
X002827Y019483D01*
X002893Y019505D01*
X002954Y019536D01*
X003010Y019577D01*
X003059Y019625D01*
X003099Y019681D01*
X003130Y019742D01*
X003152Y019808D01*
X003162Y019876D01*
X003162Y019910D02*
X003162Y019945D01*
X003152Y020013D01*
X003130Y020078D01*
X003099Y020139D01*
X003059Y020195D01*
X003010Y020244D01*
X002954Y020284D01*
X002893Y020316D01*
X002827Y020337D01*
X002759Y020348D01*
X002725Y020348D01*
X002691Y020348D01*
X002623Y020337D01*
X002557Y020316D01*
X002496Y020284D01*
X002440Y020244D01*
X002391Y020195D01*
X002351Y020139D01*
X002320Y020078D01*
X002298Y020013D01*
X002288Y019945D01*
X002288Y019910D01*
X002288Y019876D01*
X002298Y019808D01*
X002320Y019742D01*
X002351Y019681D01*
X002391Y019625D01*
X002440Y019577D01*
X002496Y019536D01*
X002557Y019505D01*
X002623Y019483D01*
X002691Y019473D01*
X002725Y019473D01*
X002725Y019910D01*
X002725Y019910D01*
X002288Y019910D01*
X002725Y019910D01*
X002725Y019910D01*
X002725Y019910D01*
X003162Y019910D01*
X003144Y020037D02*
X004827Y020037D01*
X004861Y020196D02*
X003058Y020196D01*
X002725Y020196D02*
X002725Y020196D01*
X002725Y020348D02*
X002725Y019910D01*
X002725Y019910D01*
X002725Y020348D01*
X002725Y020037D02*
X002725Y020037D01*
X002725Y019879D02*
X002725Y019879D01*
X002725Y019720D02*
X002725Y019720D01*
X002725Y019562D02*
X002725Y019562D01*
X002642Y019328D02*
X002489Y019264D01*
X002371Y019147D01*
X002308Y018993D01*
X002308Y018827D01*
X002371Y018674D01*
X002489Y018556D01*
X002642Y018493D01*
X002808Y018493D01*
X002961Y018556D01*
X003079Y018674D01*
X003142Y018827D01*
X003142Y018993D01*
X003079Y019147D01*
X002961Y019264D01*
X002808Y019328D01*
X002642Y019328D01*
X002469Y019245D02*
X002088Y019245D01*
X002114Y019403D02*
X004349Y019403D01*
X004327Y019562D02*
X002990Y019562D01*
X003119Y019720D02*
X004371Y019720D01*
X004453Y019245D02*
X002981Y019245D01*
X003104Y019086D02*
X006702Y019086D01*
X006704Y019245D02*
X005997Y019245D01*
X006101Y019403D02*
X006780Y019403D01*
X006875Y019720D02*
X008296Y019720D01*
X008191Y019879D02*
X006987Y019879D01*
X007017Y020037D02*
X008163Y020037D01*
X008192Y020196D02*
X006985Y020196D01*
X006871Y020354D02*
X008300Y020354D01*
X008049Y020671D02*
X008896Y020671D01*
X008816Y020513D02*
X007805Y020513D01*
X008122Y020830D02*
X010433Y020830D01*
X010433Y020827D02*
X010496Y020674D01*
X010614Y020556D01*
X010767Y020493D01*
X010933Y020493D01*
X011086Y020556D01*
X011204Y020674D01*
X011267Y020827D01*
X011267Y020993D01*
X011204Y021147D01*
X015399Y021147D01*
X015327Y020988D02*
X011267Y020988D01*
X011267Y020830D02*
X015328Y020830D01*
X014923Y020671D02*
X014056Y020671D01*
X014079Y020659D02*
X014018Y020691D01*
X013952Y020712D01*
X013884Y020723D01*
X013850Y020723D01*
X013816Y020723D01*
X013748Y020712D01*
X013682Y020691D01*
X013621Y020659D01*
X013565Y020619D01*
X013516Y020570D01*
X013476Y020514D01*
X013445Y020453D01*
X013423Y020388D01*
X013413Y020320D01*
X013413Y020285D01*
X013850Y020285D01*
X013850Y020285D01*
X014287Y020285D01*
X014287Y020320D01*
X014277Y020388D01*
X014255Y020453D01*
X014224Y020514D01*
X014184Y020570D01*
X014135Y020619D01*
X014079Y020659D01*
X014225Y020513D02*
X014837Y020513D01*
X014827Y020354D02*
X014282Y020354D01*
X014279Y020196D02*
X014883Y020196D01*
X015086Y020037D02*
X014211Y020037D01*
X013850Y020037D02*
X013850Y020037D01*
X013850Y020196D02*
X013850Y020196D01*
X013850Y020285D02*
X013850Y020723D01*
X013850Y020285D01*
X013850Y020285D01*
X013850Y020354D02*
X013850Y020354D01*
X013850Y020513D02*
X013850Y020513D01*
X013850Y020671D02*
X013850Y020671D01*
X013644Y020671D02*
X013009Y020671D01*
X013208Y020513D02*
X013475Y020513D01*
X013418Y020354D02*
X013267Y020354D01*
X013265Y020196D02*
X013421Y020196D01*
X013489Y020037D02*
X013192Y020037D01*
X012691Y020671D02*
X011201Y020671D01*
X010981Y020513D02*
X012492Y020513D01*
X012433Y020354D02*
X009642Y020354D01*
X009634Y020513D02*
X010719Y020513D01*
X010499Y020671D02*
X009554Y020671D01*
X009588Y020196D02*
X012435Y020196D01*
X012508Y020037D02*
X009415Y020037D01*
X008600Y020037D02*
X008600Y020037D01*
X008600Y020035D02*
X008600Y020473D01*
X008600Y020035D01*
X008600Y020035D01*
X008600Y019879D02*
X008600Y019879D01*
X008600Y019720D02*
X008600Y019720D01*
X008420Y019403D02*
X015703Y019403D01*
X015800Y019245D02*
X008496Y019245D01*
X008196Y018769D02*
X009370Y018769D01*
X009308Y018611D02*
X007998Y018611D01*
X007985Y018769D02*
X008004Y018769D01*
X007944Y018452D02*
X009308Y018452D01*
X009376Y018294D02*
X007755Y018294D01*
X007445Y018294D02*
X006431Y018294D01*
X006461Y018306D02*
X006579Y018424D01*
X006642Y018577D01*
X006642Y018743D01*
X006579Y018897D01*
X006461Y019014D01*
X006308Y019078D01*
X006142Y019078D01*
X005989Y019014D01*
X005871Y018897D01*
X005808Y018743D01*
X005808Y018577D01*
X005871Y018424D01*
X005989Y018306D01*
X006142Y018243D01*
X006308Y018243D01*
X006461Y018306D01*
X006591Y018452D02*
X007256Y018452D01*
X007202Y018611D02*
X006642Y018611D01*
X006632Y018769D02*
X007004Y018769D01*
X007196Y018769D02*
X007215Y018769D01*
X007498Y019086D02*
X007702Y019086D01*
X007704Y019245D02*
X007496Y019245D01*
X007420Y019403D02*
X007780Y019403D01*
X008600Y020196D02*
X008600Y020196D01*
X008600Y020354D02*
X008600Y020354D01*
X008123Y020988D02*
X010433Y020988D01*
X010433Y020993D02*
X010433Y020827D01*
X010433Y020993D02*
X010496Y021147D01*
X008524Y021147D01*
X008612Y021305D02*
X010713Y021305D01*
X010767Y021328D02*
X010614Y021264D01*
X010496Y021147D01*
X010682Y021505D02*
X010748Y021483D01*
X010816Y021473D01*
X010850Y021473D01*
X010884Y021473D01*
X010952Y021483D01*
X011018Y021505D01*
X011079Y021536D01*
X011135Y021577D01*
X011184Y021625D01*
X011224Y021681D01*
X011255Y021742D01*
X011277Y021808D01*
X011287Y021876D01*
X011287Y021910D01*
X010850Y021910D01*
X010850Y021473D01*
X010850Y021910D01*
X010850Y021910D01*
X010413Y021910D01*
X010413Y021876D01*
X010423Y021808D01*
X010445Y021742D01*
X010476Y021681D01*
X010516Y021625D01*
X010565Y021577D01*
X010621Y021536D01*
X010682Y021505D01*
X010767Y021328D02*
X010933Y021328D01*
X011086Y021264D01*
X011204Y021147D01*
X010987Y021305D02*
X015639Y021305D01*
X014829Y022174D02*
X014892Y022327D01*
X014892Y022493D01*
X014829Y022647D01*
X014711Y022764D01*
X014558Y022828D01*
X014392Y022828D01*
X014239Y022764D01*
X014121Y022647D01*
X014058Y022493D01*
X014058Y022327D01*
X014121Y022174D01*
X014239Y022056D01*
X014392Y021993D01*
X014558Y021993D01*
X014711Y022056D01*
X014829Y022174D01*
X014863Y022256D02*
X020682Y022256D01*
X020681Y022098D02*
X014753Y022098D01*
X014892Y022415D02*
X020683Y022415D01*
X020683Y022573D02*
X014859Y022573D01*
X014744Y022732D02*
X020684Y022732D01*
X020685Y022890D02*
X008856Y022890D01*
X009494Y022732D02*
X014206Y022732D01*
X014091Y022573D02*
X009609Y022573D01*
X009642Y022415D02*
X014058Y022415D01*
X014087Y022256D02*
X011118Y022256D01*
X011135Y022244D02*
X011079Y022284D01*
X011018Y022316D01*
X010952Y022337D01*
X010884Y022348D01*
X010850Y022348D01*
X010816Y022348D01*
X010748Y022337D01*
X010682Y022316D01*
X010621Y022284D01*
X010565Y022244D01*
X010516Y022195D01*
X010476Y022139D01*
X010445Y022078D01*
X010423Y022013D01*
X010413Y021945D01*
X010413Y021910D01*
X010850Y021910D01*
X010850Y021910D01*
X010850Y021910D01*
X011287Y021910D01*
X011287Y021945D01*
X011277Y022013D01*
X011255Y022078D01*
X011224Y022139D01*
X011184Y022195D01*
X011135Y022244D01*
X011245Y022098D02*
X014197Y022098D01*
X011287Y021939D02*
X020681Y021939D01*
X020680Y021781D02*
X011268Y021781D01*
X011181Y021622D02*
X020679Y021622D01*
X020679Y021464D02*
X008623Y021464D01*
X008568Y021622D02*
X010519Y021622D01*
X010432Y021781D02*
X008370Y021781D01*
X008080Y021781D02*
X007370Y021781D01*
X007568Y021622D02*
X007882Y021622D01*
X007827Y021464D02*
X007623Y021464D01*
X007612Y021305D02*
X007639Y021305D01*
X007811Y021305D02*
X007838Y021305D01*
X006536Y021939D02*
X010413Y021939D01*
X010455Y022098D02*
X009503Y022098D01*
X009613Y022256D02*
X010582Y022256D01*
X010850Y022256D02*
X010850Y022256D01*
X010850Y022348D02*
X010850Y021910D01*
X010850Y021910D01*
X010850Y022348D01*
X010850Y022098D02*
X010850Y022098D01*
X010850Y021939D02*
X010850Y021939D01*
X010850Y021781D02*
X010850Y021781D01*
X010850Y021622D02*
X010850Y021622D01*
X008214Y025902D02*
X020697Y025902D01*
X020698Y026060D02*
X008437Y026060D01*
X008498Y026219D02*
X020699Y026219D01*
X020699Y026377D02*
X008492Y026377D01*
X008412Y026536D02*
X020700Y026536D01*
X020701Y026694D02*
X006123Y026694D01*
X006104Y026536D02*
X006788Y026536D01*
X006708Y026377D02*
X006005Y026377D01*
X006076Y026853D02*
X006317Y026853D01*
X006364Y026806D02*
X006246Y026924D01*
X006183Y027077D01*
X006183Y027243D01*
X006246Y027397D01*
X006364Y027514D01*
X006517Y027578D01*
X006683Y027578D01*
X006836Y027514D01*
X006954Y027397D01*
X007017Y027243D01*
X007017Y027077D01*
X006954Y026924D01*
X006836Y026806D01*
X006683Y026743D01*
X006517Y026743D01*
X006364Y026806D01*
X006210Y027011D02*
X005917Y027011D01*
X006183Y027170D02*
X005623Y027170D01*
X005586Y027328D02*
X006218Y027328D01*
X006336Y027487D02*
X005461Y027487D01*
X004989Y027487D02*
X001100Y027487D01*
X001100Y027645D02*
X004027Y027645D01*
X004057Y027630D02*
X004123Y027608D01*
X004191Y027598D01*
X004225Y027598D01*
X004259Y027598D01*
X004327Y027608D01*
X004393Y027630D01*
X004454Y027661D01*
X004510Y027702D01*
X004559Y027750D01*
X004599Y027806D01*
X004630Y027867D01*
X004652Y027933D01*
X004662Y028001D01*
X004662Y028035D01*
X004225Y028035D01*
X004225Y027598D01*
X004225Y028035D01*
X004225Y028035D01*
X004225Y028035D01*
X003788Y028035D01*
X003788Y028001D01*
X003798Y027933D01*
X003820Y027867D01*
X003851Y027806D01*
X003891Y027750D01*
X003940Y027702D01*
X003996Y027661D01*
X004057Y027630D01*
X004225Y027645D02*
X004225Y027645D01*
X004225Y027804D02*
X004225Y027804D01*
X004225Y027962D02*
X004225Y027962D01*
X004225Y028035D02*
X004225Y028035D01*
X004662Y028035D01*
X004662Y028070D01*
X004652Y028138D01*
X004630Y028203D01*
X004599Y028264D01*
X004559Y028320D01*
X004510Y028369D01*
X004454Y028409D01*
X004453Y028410D01*
X004454Y028411D01*
X004510Y028452D01*
X004559Y028500D01*
X004599Y028556D01*
X004630Y028617D01*
X004652Y028683D01*
X004662Y028751D01*
X004662Y028785D01*
X004225Y028785D01*
X004225Y028348D01*
X004225Y028035D01*
X003788Y028035D01*
X003788Y028070D01*
X003798Y028138D01*
X003820Y028203D01*
X003851Y028264D01*
X003891Y028320D01*
X003940Y028369D01*
X003996Y028409D01*
X003997Y028410D01*
X003996Y028411D01*
X003940Y028452D01*
X003891Y028500D01*
X003851Y028556D01*
X003820Y028617D01*
X003798Y028683D01*
X003788Y028751D01*
X003788Y028785D01*
X004225Y028785D01*
X004225Y028785D01*
X004225Y028035D01*
X004225Y028035D01*
X004225Y028121D02*
X004225Y028121D01*
X004225Y028279D02*
X004225Y028279D01*
X004225Y028438D02*
X004225Y028438D01*
X004225Y028596D02*
X004225Y028596D01*
X004225Y028755D02*
X004225Y028755D01*
X004225Y028785D02*
X004225Y028785D01*
X004225Y028785D01*
X004662Y028785D01*
X004662Y028820D01*
X004652Y028888D01*
X004630Y028953D01*
X004599Y029014D01*
X004559Y029070D01*
X004510Y029119D01*
X004454Y029159D01*
X004393Y029191D01*
X004327Y029212D01*
X004259Y029223D01*
X004225Y029223D01*
X004191Y029223D01*
X004123Y029212D01*
X004057Y029191D01*
X003996Y029159D01*
X003940Y029119D01*
X003891Y029070D01*
X003851Y029014D01*
X003820Y028953D01*
X003798Y028888D01*
X003788Y028820D01*
X003788Y028785D01*
X004225Y028785D01*
X004225Y029223D01*
X004225Y028785D01*
X004225Y028785D01*
X004225Y028913D02*
X004225Y028913D01*
X004225Y029072D02*
X004225Y029072D01*
X004557Y029072D02*
X005921Y029072D01*
X005871Y029022D02*
X005989Y029139D01*
X006142Y029203D01*
X006308Y029203D01*
X006461Y029139D01*
X006579Y029022D01*
X006642Y028868D01*
X006642Y028702D01*
X006579Y028549D01*
X006461Y028431D01*
X006411Y028410D01*
X006461Y028389D01*
X006579Y028272D01*
X006642Y028118D01*
X006642Y027952D01*
X006579Y027799D01*
X006461Y027681D01*
X006308Y027618D01*
X006142Y027618D01*
X005989Y027681D01*
X005871Y027799D01*
X005808Y027952D01*
X005808Y028118D01*
X005871Y028272D01*
X005989Y028389D01*
X006039Y028410D01*
X005989Y028431D01*
X005871Y028549D01*
X005808Y028702D01*
X005808Y028868D01*
X005871Y029022D01*
X005826Y028913D02*
X004643Y028913D01*
X004662Y028755D02*
X005808Y028755D01*
X005851Y028596D02*
X004620Y028596D01*
X004491Y028438D02*
X005982Y028438D01*
X005879Y028279D02*
X004588Y028279D01*
X004654Y028121D02*
X005809Y028121D01*
X005808Y027962D02*
X004656Y027962D01*
X004598Y027804D02*
X005869Y027804D01*
X006076Y027645D02*
X004423Y027645D01*
X003852Y027804D02*
X001100Y027804D01*
X001100Y027962D02*
X003794Y027962D01*
X003796Y028121D02*
X001100Y028121D01*
X001100Y028279D02*
X003862Y028279D01*
X003959Y028438D02*
X001100Y028438D01*
X001100Y028596D02*
X003830Y028596D01*
X003788Y028755D02*
X001100Y028755D01*
X001100Y028913D02*
X003807Y028913D01*
X003893Y029072D02*
X001100Y029072D01*
X001100Y029230D02*
X008518Y029230D01*
X008498Y029233D02*
X008566Y029223D01*
X008600Y029223D01*
X008634Y029223D01*
X008702Y029233D01*
X008768Y029255D01*
X008825Y029284D01*
X008871Y029174D01*
X008989Y029056D01*
X009142Y028993D01*
X009308Y028993D01*
X009461Y029056D01*
X009579Y029174D01*
X009642Y029327D01*
X009642Y029493D01*
X009579Y029647D01*
X009461Y029764D01*
X009308Y029828D01*
X009142Y029828D01*
X009022Y029778D01*
X009005Y029828D01*
X008974Y029889D01*
X008934Y029945D01*
X008885Y029994D01*
X008829Y030034D01*
X008768Y030066D01*
X008702Y030087D01*
X008634Y030098D01*
X008600Y030098D01*
X008566Y030098D01*
X008498Y030087D01*
X008432Y030066D01*
X008371Y030034D01*
X008315Y029994D01*
X008266Y029945D01*
X008226Y029889D01*
X008195Y029828D01*
X008173Y029763D01*
X008163Y029695D01*
X008163Y029660D01*
X008163Y029626D01*
X008173Y029558D01*
X008195Y029492D01*
X008226Y029431D01*
X008266Y029375D01*
X008315Y029327D01*
X008371Y029286D01*
X008432Y029255D01*
X008498Y029233D01*
X008600Y029230D02*
X008600Y029230D01*
X008600Y029223D02*
X008600Y029660D01*
X008600Y029660D01*
X008600Y029223D01*
X008682Y029230D02*
X008848Y029230D01*
X008973Y029072D02*
X006529Y029072D01*
X006517Y029243D02*
X006683Y029243D01*
X006836Y029306D01*
X006954Y029424D01*
X007017Y029577D01*
X007017Y029743D01*
X006954Y029897D01*
X006836Y030014D01*
X006683Y030078D01*
X006517Y030078D01*
X006364Y030014D01*
X006246Y029897D01*
X006183Y029743D01*
X006183Y029577D01*
X006246Y029424D01*
X006364Y029306D01*
X006517Y029243D01*
X006281Y029389D02*
X005807Y029389D01*
X005804Y029387D02*
X005950Y029448D01*
X006062Y029560D01*
X006123Y029706D01*
X006123Y029864D01*
X006233Y029864D01*
X006123Y029864D02*
X006062Y030011D01*
X005950Y030122D01*
X005804Y030183D01*
X005646Y030183D01*
X005606Y030167D01*
X005623Y030206D01*
X005623Y030364D01*
X005562Y030511D01*
X005450Y030622D01*
X005304Y030683D01*
X005146Y030683D01*
X005000Y030622D01*
X004888Y030511D01*
X004827Y030364D01*
X004827Y030206D01*
X004844Y030167D01*
X004804Y030183D01*
X004646Y030183D01*
X004500Y030122D01*
X004388Y030011D01*
X004327Y029864D01*
X003155Y029864D01*
X003152Y029888D02*
X003130Y029953D01*
X003099Y030014D01*
X003059Y030070D01*
X003010Y030119D01*
X002954Y030159D01*
X002893Y030191D01*
X002827Y030212D01*
X002759Y030223D01*
X002725Y030223D01*
X002691Y030223D01*
X002623Y030212D01*
X002557Y030191D01*
X002496Y030159D01*
X002440Y030119D01*
X002391Y030070D01*
X002351Y030014D01*
X002320Y029953D01*
X002298Y029888D01*
X002288Y029820D01*
X002288Y029785D01*
X002288Y029751D01*
X002298Y029683D01*
X002320Y029617D01*
X002351Y029556D01*
X002391Y029500D01*
X002440Y029452D01*
X002496Y029411D01*
X002557Y029380D01*
X002623Y029358D01*
X002691Y029348D01*
X002725Y029348D01*
X002759Y029348D01*
X002827Y029358D01*
X002893Y029380D01*
X002954Y029411D01*
X003010Y029452D01*
X003059Y029500D01*
X003099Y029556D01*
X003130Y029617D01*
X003152Y029683D01*
X003162Y029751D01*
X003162Y029785D01*
X002725Y029785D01*
X002725Y029348D01*
X002725Y029785D01*
X002725Y029785D01*
X002288Y029785D01*
X002725Y029785D01*
X002725Y029785D01*
X002725Y029785D01*
X003162Y029785D01*
X003162Y029820D01*
X003152Y029888D01*
X003093Y030023D02*
X004400Y030023D01*
X004327Y029864D02*
X004327Y029706D01*
X004388Y029560D01*
X004500Y029448D01*
X004646Y029387D01*
X004804Y029387D01*
X004950Y029448D01*
X005062Y029560D01*
X005123Y029706D01*
X005123Y029864D01*
X005327Y029864D01*
X005327Y029706D01*
X005388Y029560D01*
X005500Y029448D01*
X005646Y029387D01*
X005804Y029387D01*
X005643Y029389D02*
X004807Y029389D01*
X004643Y029389D02*
X002911Y029389D01*
X002725Y029389D02*
X002725Y029389D01*
X002725Y029547D02*
X002725Y029547D01*
X002725Y029706D02*
X002725Y029706D01*
X002725Y029785D02*
X002725Y030223D01*
X002725Y029785D01*
X002725Y029785D01*
X002725Y029864D02*
X002725Y029864D01*
X002725Y030023D02*
X002725Y030023D01*
X002725Y030181D02*
X002725Y030181D01*
X002539Y030181D02*
X002114Y030181D01*
X002114Y030340D02*
X004827Y030340D01*
X004837Y030181D02*
X004808Y030181D01*
X004642Y030181D02*
X002911Y030181D01*
X002808Y030368D02*
X002961Y030431D01*
X003079Y030549D01*
X003142Y030702D01*
X003142Y030868D01*
X003079Y031022D01*
X002961Y031139D01*
X002808Y031203D01*
X002642Y031203D01*
X002489Y031139D01*
X002371Y031022D01*
X002308Y030868D01*
X002308Y030702D01*
X002371Y030549D01*
X002489Y030431D01*
X002642Y030368D01*
X002808Y030368D01*
X003028Y030498D02*
X004883Y030498D01*
X005083Y030657D02*
X004402Y030657D01*
X004461Y030681D02*
X004579Y030799D01*
X004642Y030952D01*
X004642Y031118D01*
X004579Y031272D01*
X004461Y031389D01*
X004308Y031453D01*
X004142Y031453D01*
X003989Y031389D01*
X003871Y031272D01*
X003808Y031118D01*
X003808Y030952D01*
X003871Y030799D01*
X003989Y030681D01*
X004142Y030618D01*
X004308Y030618D01*
X004461Y030681D01*
X004586Y030815D02*
X005864Y030815D01*
X005871Y030799D02*
X005989Y030681D01*
X006142Y030618D01*
X006308Y030618D01*
X006461Y030681D01*
X006579Y030799D01*
X006642Y030952D01*
X006642Y031118D01*
X006579Y031272D01*
X006461Y031389D01*
X006308Y031453D01*
X006142Y031453D01*
X005989Y031389D01*
X005871Y031272D01*
X005808Y031118D01*
X005808Y030952D01*
X005871Y030799D01*
X005808Y030974D02*
X004642Y030974D01*
X004637Y031132D02*
X005813Y031132D01*
X005890Y031291D02*
X004560Y031291D01*
X004316Y031449D02*
X006134Y031449D01*
X006316Y031449D02*
X010209Y031449D01*
X010182Y031441D02*
X010121Y031409D01*
X010065Y031369D01*
X010016Y031320D01*
X009976Y031264D01*
X009945Y031203D01*
X009923Y031138D01*
X009913Y031070D01*
X009913Y031035D01*
X009913Y031001D01*
X009923Y030933D01*
X009945Y030867D01*
X009976Y030806D01*
X010016Y030750D01*
X010065Y030702D01*
X010121Y030661D01*
X010182Y030630D01*
X010248Y030608D01*
X010316Y030598D01*
X010350Y030598D01*
X010384Y030598D01*
X010452Y030608D01*
X010518Y030630D01*
X010579Y030661D01*
X010635Y030702D01*
X010684Y030750D01*
X010724Y030806D01*
X010755Y030867D01*
X010777Y030933D01*
X010787Y031001D01*
X010787Y031035D01*
X010350Y031035D01*
X010350Y030598D01*
X010350Y031035D01*
X010350Y031035D01*
X010350Y031035D01*
X009913Y031035D01*
X010350Y031035D01*
X010350Y031035D01*
X010787Y031035D01*
X010787Y031070D01*
X010777Y031138D01*
X010755Y031203D01*
X010724Y031264D01*
X010684Y031320D01*
X010635Y031369D01*
X010579Y031409D01*
X010518Y031441D01*
X010452Y031462D01*
X010384Y031473D01*
X010350Y031473D01*
X010316Y031473D01*
X010248Y031462D01*
X010182Y031441D01*
X010350Y031449D02*
X010350Y031449D01*
X010350Y031473D02*
X010350Y031035D01*
X010350Y031035D01*
X010350Y031473D01*
X010491Y031449D02*
X012259Y031449D01*
X012267Y031453D02*
X012114Y031389D01*
X011996Y031272D01*
X011933Y031118D01*
X011933Y030952D01*
X011996Y030799D01*
X012114Y030681D01*
X012267Y030618D01*
X012433Y030618D01*
X012586Y030681D01*
X012704Y030799D01*
X012767Y030952D01*
X012767Y031118D01*
X012704Y031272D01*
X012586Y031389D01*
X012433Y031453D01*
X012267Y031453D01*
X012441Y031449D02*
X019335Y031449D01*
X019282Y031608D02*
X002418Y031608D01*
X002460Y031766D02*
X012238Y031766D01*
X012120Y031925D02*
X002460Y031925D01*
X002453Y032083D02*
X012071Y032083D01*
X012072Y032242D02*
X002410Y032242D01*
X002349Y032400D02*
X012123Y032400D01*
X012243Y032559D02*
X002257Y032559D01*
X002365Y031449D02*
X004134Y031449D01*
X003890Y031291D02*
X002274Y031291D01*
X002142Y031132D02*
X002482Y031132D01*
X002351Y030974D02*
X001948Y030974D01*
X001956Y030657D02*
X002326Y030657D01*
X002308Y030815D02*
X001552Y030815D01*
X001244Y030657D02*
X001100Y030657D01*
X001100Y030815D02*
X001148Y030815D01*
X001132Y030498D02*
X001100Y030498D01*
X001100Y030023D02*
X001152Y030023D01*
X001100Y029864D02*
X001294Y029864D01*
X001100Y029706D02*
X002295Y029706D01*
X002295Y029864D02*
X001906Y029864D01*
X002048Y030023D02*
X002357Y030023D01*
X002357Y029547D02*
X001100Y029547D01*
X001100Y029389D02*
X002539Y029389D01*
X003093Y029547D02*
X004400Y029547D01*
X004327Y029706D02*
X003155Y029706D01*
X003124Y030657D02*
X004048Y030657D01*
X003864Y030815D02*
X003142Y030815D01*
X003099Y030974D02*
X003808Y030974D01*
X003813Y031132D02*
X002968Y031132D01*
X002422Y030498D02*
X002068Y030498D01*
X002399Y027328D02*
X001100Y027328D01*
X002091Y026377D02*
X002477Y026377D01*
X002349Y026219D02*
X002011Y026219D01*
X001797Y026060D02*
X002308Y026060D01*
X001100Y025109D02*
X020694Y025109D01*
X020693Y024951D02*
X001100Y024951D01*
X001100Y023524D02*
X001237Y023524D01*
X001128Y023366D02*
X001100Y023366D01*
X001100Y022890D02*
X001155Y022890D01*
X001100Y022732D02*
X001301Y022732D01*
X001100Y021939D02*
X003887Y021939D01*
X003804Y021781D02*
X001100Y021781D01*
X001100Y021622D02*
X003788Y021622D01*
X003834Y021464D02*
X001100Y021464D01*
X001100Y020354D02*
X004981Y020354D01*
X005123Y019562D02*
X005327Y019562D01*
X005349Y019403D02*
X005101Y019403D01*
X004997Y019245D02*
X005453Y019245D01*
X005902Y018928D02*
X004548Y018928D01*
X004579Y018897D02*
X004461Y019014D01*
X004308Y019078D01*
X004142Y019078D01*
X003989Y019014D01*
X003871Y018897D01*
X003808Y018743D01*
X003808Y018577D01*
X003871Y018424D01*
X003989Y018306D01*
X004142Y018243D01*
X004308Y018243D01*
X004461Y018306D01*
X004579Y018424D01*
X004642Y018577D01*
X004642Y018743D01*
X004579Y018897D01*
X004632Y018769D02*
X005818Y018769D01*
X005808Y018611D02*
X004642Y018611D01*
X004591Y018452D02*
X005859Y018452D01*
X006019Y018294D02*
X004431Y018294D01*
X004019Y018294D02*
X001100Y018294D01*
X001100Y018452D02*
X003859Y018452D01*
X003808Y018611D02*
X003016Y018611D01*
X003118Y018769D02*
X003818Y018769D01*
X003902Y018928D02*
X003142Y018928D01*
X002434Y018611D02*
X001100Y018611D01*
X001100Y018769D02*
X002332Y018769D01*
X002308Y018928D02*
X001779Y018928D01*
X002003Y019086D02*
X002346Y019086D01*
X002460Y019562D02*
X002094Y019562D01*
X002017Y019720D02*
X002331Y019720D01*
X002288Y019879D02*
X001813Y019879D01*
X001387Y019879D02*
X001100Y019879D01*
X001100Y020037D02*
X002306Y020037D01*
X002392Y020196D02*
X001100Y020196D01*
X001100Y019720D02*
X001183Y019720D01*
X001106Y019562D02*
X001100Y019562D01*
X001100Y019245D02*
X001112Y019245D01*
X001100Y019086D02*
X001197Y019086D01*
X001100Y018928D02*
X001421Y018928D01*
X001100Y017184D02*
X004097Y017184D01*
X004142Y017203D02*
X003989Y017139D01*
X003871Y017022D01*
X003808Y016868D01*
X003808Y016702D01*
X003871Y016549D01*
X003989Y016431D01*
X004142Y016368D01*
X004308Y016368D01*
X004461Y016431D01*
X004579Y016549D01*
X004642Y016702D01*
X004642Y016868D01*
X004579Y017022D01*
X004461Y017139D01*
X004308Y017203D01*
X004142Y017203D01*
X004353Y017184D02*
X006097Y017184D01*
X005875Y017026D02*
X004575Y017026D01*
X004642Y016867D02*
X005808Y016867D01*
X005808Y016709D02*
X004642Y016709D01*
X004580Y016550D02*
X005870Y016550D01*
X006084Y016392D02*
X005404Y016392D01*
X005574Y016233D02*
X006827Y016233D01*
X006882Y016075D02*
X005623Y016075D01*
X005327Y015599D02*
X005123Y015599D01*
X005116Y015441D02*
X005334Y015441D01*
X005415Y015282D02*
X005035Y015282D01*
X004605Y015916D02*
X002941Y015916D01*
X002954Y015909D02*
X002893Y015941D01*
X002827Y015962D01*
X002759Y015973D01*
X002725Y015973D01*
X002691Y015973D01*
X002623Y015962D01*
X002557Y015941D01*
X002496Y015909D01*
X002440Y015869D01*
X002391Y015820D01*
X002351Y015764D01*
X002320Y015703D01*
X002298Y015638D01*
X002288Y015570D01*
X002288Y015535D01*
X002725Y015535D01*
X002725Y015535D01*
X002725Y015535D01*
X003162Y015535D01*
X003162Y015570D01*
X003152Y015638D01*
X003130Y015703D01*
X003099Y015764D01*
X003059Y015820D01*
X003010Y015869D01*
X002954Y015909D01*
X003103Y015758D02*
X004387Y015758D01*
X004327Y015599D02*
X003158Y015599D01*
X003153Y015441D02*
X004334Y015441D01*
X004415Y015282D02*
X003082Y015282D01*
X002725Y015282D02*
X002725Y015282D01*
X002725Y015441D02*
X002725Y015441D01*
X002725Y015535D02*
X002725Y015973D01*
X002725Y015535D01*
X002725Y015535D01*
X002725Y015599D02*
X002725Y015599D01*
X002725Y015758D02*
X002725Y015758D01*
X002725Y015916D02*
X002725Y015916D01*
X002509Y015916D02*
X002107Y015916D01*
X002114Y016075D02*
X004827Y016075D01*
X004876Y016233D02*
X003013Y016233D01*
X002961Y016181D02*
X003079Y016299D01*
X003142Y016452D01*
X003142Y016618D01*
X003079Y016772D01*
X002961Y016889D01*
X002808Y016953D01*
X002642Y016953D01*
X002489Y016889D01*
X002371Y016772D01*
X002308Y016618D01*
X002308Y016452D01*
X002371Y016299D01*
X002489Y016181D01*
X002642Y016118D01*
X002808Y016118D01*
X002961Y016181D01*
X003117Y016392D02*
X004084Y016392D01*
X003870Y016550D02*
X003142Y016550D01*
X003105Y016709D02*
X003808Y016709D01*
X003808Y016867D02*
X002983Y016867D01*
X002467Y016867D02*
X001100Y016867D01*
X001100Y016709D02*
X002345Y016709D01*
X002308Y016550D02*
X001100Y016550D01*
X001100Y016392D02*
X001229Y016392D01*
X001125Y016233D02*
X001100Y016233D01*
X001100Y015758D02*
X001158Y015758D01*
X001100Y015599D02*
X001309Y015599D01*
X001100Y015441D02*
X002297Y015441D01*
X002292Y015599D02*
X001891Y015599D01*
X002042Y015758D02*
X002347Y015758D01*
X002368Y015282D02*
X001100Y015282D01*
X002075Y016233D02*
X002437Y016233D01*
X002333Y016392D02*
X001971Y016392D01*
X001100Y017026D02*
X003875Y017026D01*
X004366Y016392D02*
X005046Y016392D01*
X004225Y014807D02*
X004225Y014807D01*
X004225Y014648D02*
X004225Y014648D01*
X004225Y014490D02*
X004225Y014490D01*
X004225Y014331D02*
X004225Y014331D01*
X004225Y014173D02*
X004225Y014173D01*
X004225Y014014D02*
X004225Y014014D01*
X004225Y013856D02*
X004225Y013856D01*
X004225Y013785D02*
X004225Y013785D01*
X004225Y013697D02*
X004225Y013697D01*
X004225Y013539D02*
X004225Y013539D01*
X004225Y013380D02*
X004225Y013380D01*
X004394Y013380D02*
X006112Y013380D01*
X006635Y011637D02*
X007211Y011637D01*
X007202Y011478D02*
X006642Y011478D01*
X006588Y011320D02*
X007259Y011320D01*
X007463Y011161D02*
X006413Y011161D01*
X005870Y009893D02*
X004580Y009893D01*
X004642Y009735D02*
X005808Y009735D01*
X005808Y009576D02*
X004642Y009576D01*
X004573Y009418D02*
X005877Y009418D01*
X006067Y008625D02*
X006350Y008625D01*
X006223Y008467D02*
X006123Y008467D01*
X006113Y008308D02*
X006183Y008308D01*
X006204Y008150D02*
X006027Y008150D01*
X006304Y007991D02*
X002851Y007991D01*
X002827Y007983D02*
X002893Y008005D01*
X002954Y008036D01*
X003010Y008077D01*
X003059Y008125D01*
X003099Y008181D01*
X003130Y008242D01*
X003152Y008308D01*
X004337Y008308D01*
X004327Y008467D02*
X003159Y008467D01*
X003162Y008445D02*
X003152Y008513D01*
X003130Y008578D01*
X003099Y008639D01*
X003059Y008695D01*
X003010Y008744D01*
X002954Y008784D01*
X002893Y008816D01*
X002827Y008837D01*
X002759Y008848D01*
X002725Y008848D01*
X002691Y008848D01*
X002623Y008837D01*
X002557Y008816D01*
X002496Y008784D01*
X002440Y008744D01*
X002391Y008695D01*
X002351Y008639D01*
X002320Y008578D01*
X002298Y008513D01*
X002288Y008445D01*
X002288Y008410D01*
X002288Y008376D01*
X002298Y008308D01*
X001100Y008308D01*
X001100Y008150D02*
X002374Y008150D01*
X002391Y008125D02*
X002440Y008077D01*
X002496Y008036D01*
X002557Y008005D01*
X002623Y007983D01*
X002691Y007973D01*
X002725Y007973D01*
X002759Y007973D01*
X002827Y007983D01*
X002725Y007991D02*
X002725Y007991D01*
X002725Y007973D02*
X002725Y008410D01*
X002725Y008410D01*
X002725Y007973D01*
X002599Y007991D02*
X001100Y007991D01*
X001100Y007833D02*
X004110Y007833D01*
X004123Y007837D02*
X004057Y007816D01*
X003996Y007784D01*
X003940Y007744D01*
X003891Y007695D01*
X003851Y007639D01*
X003820Y007578D01*
X003798Y007513D01*
X003788Y007445D01*
X003788Y007410D01*
X003788Y007376D01*
X003798Y007308D01*
X003820Y007242D01*
X003851Y007181D01*
X003891Y007125D01*
X003940Y007077D01*
X003996Y007036D01*
X003997Y007035D01*
X003996Y007034D01*
X003940Y006994D01*
X003891Y006945D01*
X003851Y006889D01*
X003820Y006828D01*
X003798Y006763D01*
X003788Y006695D01*
X003788Y006660D01*
X003788Y006626D01*
X003798Y006558D01*
X003820Y006492D01*
X003851Y006431D01*
X003891Y006375D01*
X003940Y006327D01*
X003996Y006286D01*
X004057Y006255D01*
X004123Y006233D01*
X004191Y006223D01*
X004225Y006223D01*
X004259Y006223D01*
X004327Y006233D01*
X004393Y006255D01*
X004454Y006286D01*
X004510Y006327D01*
X004559Y006375D01*
X004599Y006431D01*
X004630Y006492D01*
X004652Y006558D01*
X004662Y006626D01*
X004662Y006660D01*
X004225Y006660D01*
X004225Y006223D01*
X004225Y006660D01*
X004225Y006660D01*
X004225Y006660D01*
X003788Y006660D01*
X004225Y006660D01*
X004225Y006660D01*
X004662Y006660D01*
X004662Y006695D01*
X004652Y006763D01*
X004630Y006828D01*
X004599Y006889D01*
X004559Y006945D01*
X004510Y006994D01*
X004454Y007034D01*
X004453Y007035D01*
X004454Y007036D01*
X004510Y007077D01*
X004559Y007125D01*
X004599Y007181D01*
X004630Y007242D01*
X004652Y007308D01*
X004662Y007376D01*
X004662Y007410D01*
X004225Y007410D01*
X004225Y006973D01*
X004225Y006660D01*
X004225Y007410D01*
X004225Y007410D01*
X004225Y007410D01*
X003788Y007410D01*
X004225Y007410D01*
X004225Y007410D01*
X004662Y007410D01*
X004662Y007445D01*
X004652Y007513D01*
X004630Y007578D01*
X004599Y007639D01*
X004559Y007695D01*
X004510Y007744D01*
X004454Y007784D01*
X004393Y007816D01*
X004327Y007837D01*
X004259Y007848D01*
X004225Y007848D01*
X004191Y007848D01*
X004123Y007837D01*
X004225Y007833D02*
X004225Y007833D01*
X004225Y007848D02*
X004225Y007410D01*
X004225Y007410D01*
X004225Y007848D01*
X004340Y007833D02*
X008962Y007833D01*
X009339Y006565D02*
X010308Y006565D01*
X010327Y006406D02*
X009569Y006406D01*
X008619Y004821D02*
X010824Y004821D01*
X010807Y004816D02*
X010746Y004784D01*
X010690Y004744D01*
X010641Y004695D01*
X010601Y004639D01*
X010570Y004578D01*
X010548Y004513D01*
X010538Y004445D01*
X010538Y004410D01*
X010538Y004376D01*
X010548Y004308D01*
X010570Y004242D01*
X010601Y004181D01*
X010641Y004125D01*
X010690Y004077D01*
X010746Y004036D01*
X010807Y004005D01*
X010873Y003983D01*
X010941Y003973D01*
X010975Y003973D01*
X011009Y003973D01*
X011077Y003983D01*
X011143Y004005D01*
X011204Y004036D01*
X011260Y004077D01*
X011309Y004125D01*
X011349Y004181D01*
X011380Y004242D01*
X011402Y004308D01*
X011412Y004376D01*
X011412Y004410D01*
X010975Y004410D01*
X010975Y003973D01*
X010975Y004410D01*
X010975Y004410D01*
X010975Y004410D01*
X010538Y004410D01*
X010975Y004410D01*
X010975Y004410D01*
X011412Y004410D01*
X011412Y004445D01*
X011402Y004513D01*
X011380Y004578D01*
X011349Y004639D01*
X011309Y004695D01*
X011260Y004744D01*
X011204Y004784D01*
X011143Y004816D01*
X011077Y004837D01*
X011009Y004848D01*
X010975Y004848D01*
X010941Y004848D01*
X010873Y004837D01*
X010807Y004816D01*
X010975Y004821D02*
X010975Y004821D01*
X010975Y004848D02*
X010975Y004410D01*
X010975Y004410D01*
X010975Y004848D01*
X011126Y004821D02*
X012876Y004821D01*
X012637Y004663D02*
X011332Y004663D01*
X011403Y004504D02*
X012562Y004504D01*
X012558Y004346D02*
X011408Y004346D01*
X011352Y004187D02*
X012615Y004187D01*
X012805Y004029D02*
X011190Y004029D01*
X010975Y004029D02*
X010975Y004029D01*
X010975Y004187D02*
X010975Y004187D01*
X010975Y004346D02*
X010975Y004346D01*
X010975Y004504D02*
X010975Y004504D01*
X010975Y004663D02*
X010975Y004663D01*
X010618Y004663D02*
X008540Y004663D01*
X008117Y004504D02*
X010547Y004504D01*
X010542Y004346D02*
X008123Y004346D01*
X008063Y004187D02*
X010598Y004187D01*
X010760Y004029D02*
X007843Y004029D01*
X007607Y004029D02*
X006395Y004029D01*
X006461Y004056D02*
X006579Y004174D01*
X006642Y004327D01*
X006642Y004493D01*
X006579Y004647D01*
X006461Y004764D01*
X006308Y004828D01*
X006142Y004828D01*
X005989Y004764D01*
X005871Y004647D01*
X005808Y004493D01*
X005808Y004327D01*
X005871Y004174D01*
X005989Y004056D01*
X006142Y003993D01*
X006308Y003993D01*
X006461Y004056D01*
X006585Y004187D02*
X007387Y004187D01*
X007327Y004346D02*
X006642Y004346D01*
X006638Y004504D02*
X007333Y004504D01*
X007619Y004821D02*
X007831Y004821D01*
X007827Y004980D02*
X007623Y004980D01*
X007560Y005138D02*
X007890Y005138D01*
X008119Y005297D02*
X007331Y005297D01*
X006890Y005138D02*
X006095Y005138D01*
X005982Y004980D02*
X006827Y004980D01*
X006831Y004821D02*
X006324Y004821D01*
X006126Y004821D02*
X004324Y004821D01*
X004308Y004828D02*
X004142Y004828D01*
X003989Y004764D01*
X003871Y004647D01*
X003808Y004493D01*
X003808Y004327D01*
X003871Y004174D01*
X003989Y004056D01*
X004142Y003993D01*
X004308Y003993D01*
X004461Y004056D01*
X004579Y004174D01*
X004642Y004327D01*
X004642Y004493D01*
X004579Y004647D01*
X004461Y004764D01*
X004308Y004828D01*
X004126Y004821D02*
X003110Y004821D01*
X003079Y004897D02*
X002961Y005014D01*
X002808Y005078D01*
X002642Y005078D01*
X002489Y005014D01*
X002371Y004897D01*
X002308Y004743D01*
X002308Y004577D01*
X002371Y004424D01*
X002489Y004306D01*
X002642Y004243D01*
X002808Y004243D01*
X002961Y004306D01*
X003079Y004424D01*
X003142Y004577D01*
X003142Y004743D01*
X003079Y004897D01*
X002996Y004980D02*
X004468Y004980D01*
X004355Y005138D02*
X002114Y005138D01*
X002100Y005297D02*
X002481Y005297D01*
X002496Y005286D02*
X002557Y005255D01*
X002623Y005233D01*
X002691Y005223D01*
X002725Y005223D01*
X002759Y005223D01*
X002827Y005233D01*
X002893Y005255D01*
X002954Y005286D01*
X003010Y005327D01*
X003059Y005375D01*
X003099Y005431D01*
X003130Y005492D01*
X003152Y005558D01*
X003162Y005626D01*
X003162Y005660D01*
X002725Y005660D01*
X002725Y005223D01*
X002725Y005660D01*
X002725Y005660D01*
X002288Y005660D01*
X002288Y005626D01*
X002298Y005558D01*
X002320Y005492D01*
X002351Y005431D01*
X002391Y005375D01*
X002440Y005327D01*
X002496Y005286D01*
X002725Y005297D02*
X002725Y005297D01*
X002725Y005455D02*
X002725Y005455D01*
X002725Y005614D02*
X002725Y005614D01*
X002725Y005660D02*
X002725Y005660D01*
X002725Y005660D01*
X002288Y005660D01*
X002288Y005695D01*
X002298Y005763D01*
X002320Y005828D01*
X002351Y005889D01*
X002391Y005945D01*
X002440Y005994D01*
X002496Y006034D01*
X002557Y006066D01*
X002623Y006087D01*
X002691Y006098D01*
X002725Y006098D01*
X002725Y005660D01*
X003162Y005660D01*
X003162Y005695D01*
X003152Y005763D01*
X003130Y005828D01*
X003099Y005889D01*
X003059Y005945D01*
X003010Y005994D01*
X002954Y006034D01*
X002893Y006066D01*
X002827Y006087D01*
X002759Y006098D01*
X002725Y006098D01*
X002725Y005660D01*
X002725Y005660D01*
X002725Y005772D02*
X002725Y005772D01*
X002725Y005931D02*
X002725Y005931D01*
X002725Y006089D02*
X002725Y006089D01*
X002813Y006089D02*
X004966Y006089D01*
X004855Y005931D02*
X003069Y005931D01*
X003149Y005772D02*
X004827Y005772D01*
X004491Y005614D02*
X003161Y005614D01*
X003112Y005455D02*
X004365Y005455D01*
X004327Y005297D02*
X002969Y005297D01*
X003142Y004663D02*
X003887Y004663D01*
X003812Y004504D02*
X003112Y004504D01*
X003001Y004346D02*
X003808Y004346D01*
X003865Y004187D02*
X002255Y004187D01*
X002347Y004029D02*
X004055Y004029D01*
X004395Y004029D02*
X006055Y004029D01*
X005865Y004187D02*
X004585Y004187D01*
X004642Y004346D02*
X005808Y004346D01*
X005812Y004504D02*
X004638Y004504D01*
X004563Y004663D02*
X005887Y004663D01*
X005468Y004980D02*
X004982Y004980D01*
X005095Y005138D02*
X005355Y005138D01*
X005327Y005297D02*
X005123Y005297D01*
X004371Y006248D02*
X006130Y006248D01*
X006561Y006406D02*
X007416Y006406D01*
X007334Y006565D02*
X006637Y006565D01*
X006027Y007040D02*
X004460Y007040D01*
X004603Y006882D02*
X005865Y006882D01*
X005808Y006723D02*
X004658Y006723D01*
X004653Y006565D02*
X005813Y006565D01*
X005889Y006406D02*
X004581Y006406D01*
X004225Y006406D02*
X004225Y006406D01*
X004225Y006248D02*
X004225Y006248D01*
X004079Y006248D02*
X001100Y006248D01*
X001100Y006406D02*
X003869Y006406D01*
X003797Y006565D02*
X001100Y006565D01*
X001100Y006723D02*
X003792Y006723D01*
X003847Y006882D02*
X001100Y006882D01*
X001100Y007040D02*
X003990Y007040D01*
X003842Y007199D02*
X001100Y007199D01*
X001100Y007357D02*
X003790Y007357D01*
X003799Y007516D02*
X001100Y007516D01*
X001100Y007674D02*
X003876Y007674D01*
X004225Y007674D02*
X004225Y007674D01*
X004225Y007516D02*
X004225Y007516D01*
X004225Y007357D02*
X004225Y007357D01*
X004225Y007199D02*
X004225Y007199D01*
X004225Y007040D02*
X004225Y007040D01*
X004225Y006882D02*
X004225Y006882D01*
X004225Y006723D02*
X004225Y006723D01*
X004225Y006660D02*
X004225Y006660D01*
X004225Y006565D02*
X004225Y006565D01*
X004608Y007199D02*
X005861Y007199D01*
X005808Y007357D02*
X004660Y007357D01*
X004651Y007516D02*
X005817Y007516D01*
X005899Y007674D02*
X004574Y007674D01*
X004423Y008150D02*
X003076Y008150D01*
X003152Y008308D02*
X003162Y008376D01*
X003162Y008410D01*
X002725Y008410D01*
X002288Y008410D01*
X002725Y008410D01*
X002725Y008410D01*
X002725Y008410D01*
X003162Y008410D01*
X003162Y008445D01*
X003106Y008625D02*
X004383Y008625D01*
X004587Y008784D02*
X002955Y008784D01*
X002725Y008784D02*
X002725Y008784D01*
X002725Y008848D02*
X002725Y008410D01*
X002725Y008848D01*
X002808Y008993D02*
X002961Y009056D01*
X003079Y009174D01*
X003142Y009327D01*
X003142Y009493D01*
X003079Y009647D01*
X002961Y009764D01*
X002808Y009828D01*
X002642Y009828D01*
X002489Y009764D01*
X002371Y009647D01*
X002308Y009493D01*
X002308Y009327D01*
X002371Y009174D01*
X002489Y009056D01*
X002642Y008993D01*
X002808Y008993D01*
X003006Y009101D02*
X004873Y009101D01*
X004827Y008942D02*
X002114Y008942D01*
X002104Y008784D02*
X002495Y008784D01*
X002344Y008625D02*
X002039Y008625D01*
X001873Y008467D02*
X002291Y008467D01*
X002298Y008308D02*
X002320Y008242D01*
X002351Y008181D01*
X002391Y008125D01*
X002725Y008150D02*
X002725Y008150D01*
X002725Y008308D02*
X002725Y008308D01*
X002725Y008410D02*
X002725Y008410D01*
X002725Y008467D02*
X002725Y008467D01*
X002725Y008625D02*
X002725Y008625D01*
X002444Y009101D02*
X002078Y009101D01*
X001978Y009259D02*
X002336Y009259D01*
X002308Y009418D02*
X001719Y009418D01*
X001481Y009418D02*
X001100Y009418D01*
X001100Y009576D02*
X002342Y009576D01*
X002459Y009735D02*
X001100Y009735D01*
X001100Y009893D02*
X003870Y009893D01*
X003808Y009735D02*
X002991Y009735D01*
X003108Y009576D02*
X003808Y009576D01*
X003877Y009418D02*
X003142Y009418D01*
X003114Y009259D02*
X004102Y009259D01*
X004348Y009259D02*
X005028Y009259D01*
X005123Y008467D02*
X005327Y008467D01*
X005337Y008308D02*
X005113Y008308D01*
X005027Y008150D02*
X005423Y008150D01*
X006563Y004663D02*
X006910Y004663D01*
X002637Y006089D02*
X001100Y006089D01*
X001100Y005931D02*
X002381Y005931D01*
X002301Y005772D02*
X001100Y005772D01*
X001100Y005614D02*
X001351Y005614D01*
X001168Y005455D02*
X001100Y005455D01*
X001100Y004980D02*
X001118Y004980D01*
X001100Y004821D02*
X001212Y004821D01*
X001100Y004663D02*
X001457Y004663D01*
X001743Y004663D02*
X002308Y004663D01*
X002340Y004821D02*
X001988Y004821D01*
X002082Y004980D02*
X002454Y004980D01*
X002338Y005455D02*
X002032Y005455D01*
X001849Y005614D02*
X002289Y005614D01*
X002338Y004504D02*
X001891Y004504D01*
X002109Y004346D02*
X002449Y004346D01*
X001327Y008467D02*
X001100Y008467D01*
X001100Y008625D02*
X001161Y008625D01*
X001122Y009101D02*
X001100Y009101D01*
X001100Y009259D02*
X001222Y009259D01*
X002988Y012112D02*
X004460Y012112D01*
X008600Y012905D02*
X008600Y012905D01*
X008600Y012910D02*
X008600Y012910D01*
X008600Y013348D01*
X008600Y012910D01*
X008600Y012910D01*
X008600Y013063D02*
X008600Y013063D01*
X008600Y013222D02*
X008600Y013222D01*
X006770Y018928D02*
X006548Y018928D01*
X005408Y022415D02*
X005042Y022415D01*
X005120Y022573D02*
X005330Y022573D01*
X005327Y022732D02*
X005123Y022732D01*
X004841Y023049D02*
X004826Y023049D01*
X005064Y023524D02*
X004384Y023524D01*
X004583Y023683D02*
X005867Y023683D01*
X005808Y023841D02*
X004642Y023841D01*
X004640Y024000D02*
X005810Y024000D01*
X005883Y024158D02*
X004567Y024158D01*
X004066Y023524D02*
X003121Y023524D01*
X003142Y023683D02*
X003867Y023683D01*
X003808Y023841D02*
X003102Y023841D01*
X002976Y024000D02*
X003810Y024000D01*
X005005Y026377D02*
X005445Y026377D01*
X005346Y026536D02*
X005104Y026536D01*
X005123Y026694D02*
X005327Y026694D01*
X006374Y027645D02*
X007627Y027645D01*
X007646Y027637D02*
X007804Y027637D01*
X007950Y027698D01*
X008062Y027810D01*
X008123Y027956D01*
X008123Y028114D01*
X008106Y028154D01*
X008146Y028137D01*
X008304Y028137D01*
X008450Y028198D01*
X008562Y028310D01*
X008623Y028456D01*
X008623Y028614D01*
X008562Y028761D01*
X008450Y028872D01*
X008304Y028933D01*
X008146Y028933D01*
X008000Y028872D01*
X007888Y028761D01*
X007827Y028614D01*
X007827Y028456D01*
X007844Y028417D01*
X007804Y028433D01*
X007646Y028433D01*
X007606Y028417D01*
X007623Y028456D01*
X007623Y028614D01*
X007562Y028761D01*
X007450Y028872D01*
X007304Y028933D01*
X007146Y028933D01*
X007000Y028872D01*
X006888Y028761D01*
X006827Y028614D01*
X006827Y028456D01*
X006888Y028310D01*
X007000Y028198D01*
X007146Y028137D01*
X007304Y028137D01*
X007344Y028154D01*
X007327Y028114D01*
X007327Y027956D01*
X007388Y027810D01*
X007500Y027698D01*
X007646Y027637D01*
X007823Y027645D02*
X008870Y027645D01*
X008871Y027647D02*
X008825Y027536D01*
X008768Y027566D01*
X008702Y027587D01*
X008634Y027598D01*
X008600Y027598D01*
X008566Y027598D01*
X008498Y027587D01*
X008432Y027566D01*
X008371Y027534D01*
X008315Y027494D01*
X008266Y027445D01*
X008226Y027389D01*
X008195Y027328D01*
X006982Y027328D01*
X007017Y027170D02*
X008163Y027170D01*
X008163Y027160D02*
X008600Y027160D01*
X008600Y026723D01*
X008634Y026723D01*
X008702Y026733D01*
X008768Y026755D01*
X008829Y026786D01*
X008885Y026827D01*
X008934Y026875D01*
X008974Y026931D01*
X009005Y026992D01*
X009022Y027043D01*
X009142Y026993D01*
X009308Y026993D01*
X009461Y027056D01*
X009579Y027174D01*
X009642Y027327D01*
X009642Y027493D01*
X009579Y027647D01*
X009461Y027764D01*
X009308Y027828D01*
X009142Y027828D01*
X008989Y027764D01*
X008871Y027647D01*
X009084Y027804D02*
X008056Y027804D01*
X008123Y027962D02*
X010433Y027962D01*
X010433Y027952D02*
X010496Y027799D01*
X010614Y027681D01*
X010767Y027618D01*
X010933Y027618D01*
X011086Y027681D01*
X011204Y027799D01*
X011267Y027952D01*
X011267Y028118D01*
X011204Y028272D01*
X011086Y028389D01*
X010933Y028453D01*
X010767Y028453D01*
X010614Y028389D01*
X010496Y028272D01*
X010433Y028118D01*
X010433Y027952D01*
X010494Y027804D02*
X009366Y027804D01*
X009580Y027645D02*
X010701Y027645D01*
X010999Y027645D02*
X020705Y027645D01*
X020704Y027487D02*
X009642Y027487D01*
X009642Y027328D02*
X020703Y027328D01*
X020703Y027170D02*
X009575Y027170D01*
X009353Y027011D02*
X020702Y027011D01*
X020701Y026853D02*
X008911Y026853D01*
X009012Y027011D02*
X009097Y027011D01*
X008600Y027011D02*
X008600Y027011D01*
X008600Y027160D02*
X008600Y027160D01*
X008600Y026723D01*
X008566Y026723D01*
X008498Y026733D01*
X008432Y026755D01*
X008371Y026786D01*
X008315Y026827D01*
X008266Y026875D01*
X008226Y026931D01*
X008195Y026992D01*
X008173Y027058D01*
X008163Y027126D01*
X008163Y027160D01*
X008600Y027160D01*
X008600Y027160D01*
X008600Y027598D01*
X008600Y027160D01*
X008600Y027160D01*
X008600Y027170D02*
X008600Y027170D01*
X008600Y027328D02*
X008600Y027328D01*
X008600Y027487D02*
X008600Y027487D01*
X008308Y027487D02*
X006864Y027487D01*
X006581Y027804D02*
X007394Y027804D01*
X007327Y027962D02*
X006642Y027962D01*
X006641Y028121D02*
X007330Y028121D01*
X007615Y028438D02*
X007835Y028438D01*
X007827Y028596D02*
X007623Y028596D01*
X007565Y028755D02*
X007885Y028755D01*
X008098Y028913D02*
X007352Y028913D01*
X007098Y028913D02*
X006624Y028913D01*
X006642Y028755D02*
X006885Y028755D01*
X006827Y028596D02*
X006599Y028596D01*
X006468Y028438D02*
X006835Y028438D01*
X006918Y028279D02*
X006571Y028279D01*
X006919Y029389D02*
X008256Y029389D01*
X008177Y029547D02*
X007005Y029547D01*
X007017Y029706D02*
X008164Y029706D01*
X008163Y029660D02*
X008600Y029660D01*
X008163Y029660D01*
X008213Y029864D02*
X006967Y029864D01*
X006816Y030023D02*
X008355Y030023D01*
X008285Y030181D02*
X020715Y030181D01*
X020714Y030023D02*
X008845Y030023D01*
X008987Y029864D02*
X020714Y029864D01*
X020713Y029706D02*
X009520Y029706D01*
X009620Y029547D02*
X020712Y029547D01*
X020712Y029389D02*
X011108Y029389D01*
X011135Y029369D02*
X011079Y029409D01*
X011018Y029441D01*
X010952Y029462D01*
X010884Y029473D01*
X010850Y029473D01*
X010816Y029473D01*
X010748Y029462D01*
X010682Y029441D01*
X010621Y029409D01*
X010565Y029369D01*
X010516Y029320D01*
X010476Y029264D01*
X010445Y029203D01*
X010423Y029138D01*
X010413Y029070D01*
X010413Y029035D01*
X010413Y029001D01*
X010423Y028933D01*
X010445Y028867D01*
X010476Y028806D01*
X010516Y028750D01*
X010565Y028702D01*
X010621Y028661D01*
X010682Y028630D01*
X010748Y028608D01*
X010816Y028598D01*
X010850Y028598D01*
X010884Y028598D01*
X010952Y028608D01*
X011018Y028630D01*
X011079Y028661D01*
X011135Y028702D01*
X011184Y028750D01*
X011224Y028806D01*
X011255Y028867D01*
X011277Y028933D01*
X011287Y029001D01*
X011287Y029035D01*
X010850Y029035D01*
X010850Y028598D01*
X010850Y029035D01*
X010850Y029035D01*
X010413Y029035D01*
X010850Y029035D01*
X010850Y029035D01*
X010850Y029035D01*
X011287Y029035D01*
X011287Y029070D01*
X011277Y029138D01*
X011255Y029203D01*
X011224Y029264D01*
X011184Y029320D01*
X011135Y029369D01*
X011242Y029230D02*
X020711Y029230D01*
X020711Y029072D02*
X011287Y029072D01*
X011270Y028913D02*
X020710Y028913D01*
X020709Y028755D02*
X011187Y028755D01*
X010969Y028438D02*
X020708Y028438D01*
X020709Y028596D02*
X008623Y028596D01*
X008615Y028438D02*
X010731Y028438D01*
X010504Y028279D02*
X008532Y028279D01*
X008120Y028121D02*
X010434Y028121D01*
X010513Y028755D02*
X008565Y028755D01*
X008352Y028913D02*
X010430Y028913D01*
X010413Y029072D02*
X009477Y029072D01*
X009602Y029230D02*
X010458Y029230D01*
X010592Y029389D02*
X009642Y029389D01*
X010129Y030657D02*
X008480Y030657D01*
X008498Y030614D02*
X008437Y030761D01*
X008325Y030872D01*
X008179Y030933D01*
X008021Y030933D01*
X007981Y030917D01*
X007998Y030956D01*
X007998Y031114D01*
X007937Y031261D01*
X007825Y031372D01*
X007679Y031433D01*
X007521Y031433D01*
X007375Y031372D01*
X007263Y031261D01*
X007202Y031114D01*
X007202Y030956D01*
X007219Y030917D01*
X007179Y030933D01*
X007021Y030933D01*
X006875Y030872D01*
X006763Y030761D01*
X006702Y030614D01*
X006702Y030456D01*
X006763Y030310D01*
X006875Y030198D01*
X007021Y030137D01*
X007179Y030137D01*
X007325Y030198D01*
X007437Y030310D01*
X007498Y030456D01*
X007498Y030614D01*
X007481Y030654D01*
X007521Y030637D01*
X007679Y030637D01*
X007719Y030654D01*
X007702Y030614D01*
X007702Y030456D01*
X007763Y030310D01*
X007875Y030198D01*
X008021Y030137D01*
X008179Y030137D01*
X008325Y030198D01*
X008437Y030310D01*
X008498Y030456D01*
X008498Y030614D01*
X008498Y030498D02*
X020716Y030498D01*
X020716Y030340D02*
X008450Y030340D01*
X008600Y030098D02*
X008600Y029660D01*
X008600Y029660D01*
X008600Y029660D01*
X008600Y030098D01*
X008600Y030023D02*
X008600Y030023D01*
X008600Y029864D02*
X008600Y029864D01*
X008600Y029706D02*
X008600Y029706D01*
X008600Y029547D02*
X008600Y029547D01*
X008600Y029389D02*
X008600Y029389D01*
X007915Y030181D02*
X007285Y030181D01*
X007450Y030340D02*
X007750Y030340D01*
X007702Y030498D02*
X007498Y030498D01*
X007202Y030974D02*
X006642Y030974D01*
X006637Y031132D02*
X007210Y031132D01*
X007293Y031291D02*
X006560Y031291D01*
X006586Y030815D02*
X006817Y030815D01*
X006720Y030657D02*
X006402Y030657D01*
X006702Y030498D02*
X005567Y030498D01*
X005623Y030340D02*
X006750Y030340D01*
X006915Y030181D02*
X005808Y030181D01*
X005642Y030181D02*
X005613Y030181D01*
X005344Y029904D02*
X005327Y029864D01*
X005304Y029887D02*
X005344Y029904D01*
X005304Y029887D02*
X005146Y029887D01*
X005106Y029904D01*
X005123Y029864D01*
X005123Y029706D02*
X005327Y029706D01*
X005400Y029547D02*
X005050Y029547D01*
X005368Y030657D02*
X006048Y030657D01*
X006050Y030023D02*
X006384Y030023D01*
X006183Y029706D02*
X006123Y029706D01*
X006050Y029547D02*
X006195Y029547D01*
X006990Y027011D02*
X008188Y027011D01*
X008163Y027160D02*
X008163Y027195D01*
X008173Y027263D01*
X008195Y027328D01*
X008289Y026853D02*
X006883Y026853D01*
X007412Y026536D02*
X007788Y026536D01*
X007708Y026377D02*
X007492Y026377D01*
X007498Y026219D02*
X007702Y026219D01*
X007982Y025902D02*
X007986Y025902D01*
X007998Y025743D02*
X020697Y025743D01*
X020696Y025585D02*
X007948Y025585D01*
X008600Y026853D02*
X008600Y026853D01*
X010850Y028755D02*
X010850Y028755D01*
X010850Y028913D02*
X010850Y028913D01*
X010850Y029035D02*
X010850Y029473D01*
X010850Y029035D01*
X010850Y029035D01*
X010850Y029072D02*
X010850Y029072D01*
X010850Y029230D02*
X010850Y029230D01*
X010850Y029389D02*
X010850Y029389D01*
X011196Y028279D02*
X020707Y028279D01*
X020707Y028121D02*
X011266Y028121D01*
X011267Y027962D02*
X020706Y027962D01*
X020705Y027804D02*
X011206Y027804D01*
X010571Y030657D02*
X012173Y030657D01*
X011989Y030815D02*
X010729Y030815D01*
X010783Y030974D02*
X011933Y030974D01*
X011938Y031132D02*
X010778Y031132D01*
X010705Y031291D02*
X012015Y031291D01*
X012685Y031291D02*
X019426Y031291D01*
X019558Y031132D02*
X012762Y031132D01*
X012767Y030974D02*
X019752Y030974D01*
X020148Y030815D02*
X012711Y030815D01*
X012527Y030657D02*
X020717Y030657D01*
X020718Y030815D02*
X020552Y030815D01*
X019290Y032242D02*
X014489Y032242D01*
X014489Y032083D02*
X019247Y032083D01*
X019240Y031925D02*
X014434Y031925D01*
X014308Y031766D02*
X019240Y031766D01*
X019351Y032400D02*
X014432Y032400D01*
X014304Y032559D02*
X017028Y032559D01*
X013646Y032559D02*
X012957Y032559D01*
X013077Y032400D02*
X013518Y032400D01*
X013461Y032242D02*
X013128Y032242D01*
X013129Y032083D02*
X013461Y032083D01*
X013516Y031925D02*
X013080Y031925D01*
X012962Y031766D02*
X013642Y031766D01*
X012638Y031766D02*
X012562Y031766D01*
X012562Y031925D02*
X012638Y031925D01*
X012638Y032083D02*
X012562Y032083D01*
X010350Y031291D02*
X010350Y031291D01*
X010350Y031132D02*
X010350Y031132D01*
X010350Y030974D02*
X010350Y030974D01*
X010350Y030815D02*
X010350Y030815D01*
X010350Y030657D02*
X010350Y030657D01*
X009971Y030815D02*
X008383Y030815D01*
X007998Y030974D02*
X009917Y030974D01*
X009922Y031132D02*
X007990Y031132D01*
X007907Y031291D02*
X009995Y031291D01*
X017837Y018611D02*
X018856Y018611D01*
X018808Y018452D02*
X017961Y018452D01*
X017998Y018294D02*
X018821Y018294D01*
X018910Y018135D02*
X018294Y018135D01*
X016585Y015758D02*
X016365Y015758D01*
X016373Y015599D02*
X016577Y015599D01*
X016635Y015441D02*
X016315Y015441D01*
X016349Y016550D02*
X016377Y016550D01*
M02*
