G04 Output by ViewMate Deluxe V11.0.9  PentaLogix LLC*
G04 Wed Mar 12 07:51:28 2014*
%FSLAX33Y33*%
%MOMM*%
%IPPOS*%
%ADD14C,0.8128*%
%ADD15C,0.4064*%
%ADD16C,0.127*%
%ADD17C,0.254*%
%ADD18C,0.1016*%
%ADD19C,0.127*%
%ADD107C,1.27*%
%ADD108C,0.1524*%
%ADD109C,0.2032*%

%LPD*%
X0Y0D2*D16*G1X22162Y55651D2*X17082Y55651D1*D14*X31369Y54381D2*X32639Y53111D1*X29464Y72161D2*X31369Y70256D1*X31369Y54381*X29146Y54064D2*X29782Y53429D1*X29782Y49301*X31369Y47714*X29782Y37236D2*X28829Y36284D1*X31369Y41999D2*X29782Y40411D1*X29782Y37236*X32639Y35966D2*X31052Y34379D1*X31052Y20409*X28829Y18186*D15*X51689Y36601D2*X53912Y36601D1*X52642Y54381D2*X52642Y52476D1*X51689Y53429D2*X53594Y53429D1*D16*X21844Y66510D2*X21808Y66355D1*X21763Y66205*X21709Y66055*X21646Y65910*X21575Y65771*X21493Y65634*X21405Y65502*X21308Y65377*X21206Y65258*X21095Y65146*X20978Y65039*X20853Y64940*X20724Y64851*X20589Y64767*X20450Y64694*X20305Y64628*X20157Y64572*X20008Y64524*X19853Y64486*X19698Y64458*X19540Y64437*X19383Y64427*X19225Y64427*X19068Y64437*X18910Y64458*X18755Y64486*X18600Y64524*X18451Y64572*X18303Y64628*X18158Y64694*X18019Y64767*X17884Y64851*X17755Y64940*X17630Y65039*X17513Y65146*X17402Y65258*X17300Y65377*X17203Y65502*X17115Y65634*X17033Y65771*X16962Y65910*X16899Y66055*X16845Y66205*X16800Y66355*X16764Y66510*X15812Y75908D2*X15776Y76063D1*X15730Y76213*X15677Y76363*X15613Y76507*X15542Y76647*X15461Y76784*X15372Y76916*X15276Y77041*X15174Y77160*X15062Y77272*X14945Y77379*X14821Y77478*X14691Y77567*X14557Y77650*X14417Y77724*X14272Y77790*X14125Y77846*X13975Y77894*X13820Y77932*X13665Y77960*X13508Y77981*X13350Y77991*X13193Y77991*X13035Y77981*X12878Y77960*X12723Y77932*X12568Y77894*X12418Y77846*X12271Y77790*X12126Y77724*X11986Y77650*X11852Y77567*X11722Y77478*X11598Y77379*X11481Y77272*X11369Y77160*X11267Y77041*X11171Y76916*X11082Y76784*X11001Y76647*X10930Y76507*X10866Y76363*X10813Y76213*X10767Y76063*X10732Y75908*X10732Y74384*X15812Y74384*X16764Y77813D2*X16800Y77968D1*X16845Y78118*X16899Y78268*X16962Y78412*X17033Y78552*X17115Y78689*X17203Y78821*X17300Y78946*X17402Y79065*X17513Y79177*X17630Y79284*X17755Y79383*X17884Y79472*X18019Y79555*X18158Y79629*X18303Y79695*X18451Y79751*X18600Y79799*X18755Y79837*X18910Y79865*X19068Y79886*X19225Y79896*X19383Y79896*X19540Y79886*X19698Y79865*X19853Y79837*X20008Y79799*X20157Y79751*X20305Y79695*X20450Y79629*X20589Y79555*X20724Y79472*X20853Y79383*X20978Y79284*X21095Y79177*X21206Y79065*X21308Y78946*X21405Y78821*X21493Y78689*X21575Y78552*X21646Y78412*X21709Y78268*X21763Y78118*X21808Y77968*X21844Y77813*X21844Y76289*X16764Y76289*X16764Y77813*X15812Y74384D2*X15812Y75908D1*X17082Y72225D2*X17117Y72070D1*X17163Y71920*X17216Y71770*X17280Y71625*X17351Y71486*X17432Y71349*X17521Y71217*X17617Y71092*X17719Y70973*X17831Y70861*X17948Y70754*X18072Y70655*X18202Y70566*X18336Y70482*X18476Y70409*X18621Y70343*X18768Y70287*X18918Y70239*X19073Y70201*X19228Y70173*X19385Y70152*X19543Y70142*X19700Y70142*X19858Y70152*X20015Y70173*X20170Y70201*X20325Y70239*X20475Y70287*X20622Y70343*X20767Y70409*X20907Y70482*X21041Y70566*X21171Y70655*X21295Y70754*X21412Y70861*X21524Y70973*X21626Y71092*X21722Y71217*X21811Y71349*X21892Y71486*X21963Y71625*X22027Y71770*X22080Y71920*X22126Y72070*X22162Y72225*X22162Y73749*X17082Y73749*X17082Y72225*X15812Y67970D2*X15776Y68125D1*X15730Y68275*X15677Y68425*X15613Y68570*X15542Y68710*X15461Y68847*X15372Y68979*X15276Y69103*X15174Y69223*X15062Y69334*X14945Y69441*X14821Y69540*X14691Y69629*X14557Y69713*X14417Y69786*X14272Y69853*X14125Y69908*X13975Y69957*X13820Y69995*X13665Y70023*X13508Y70043*X13350Y70053*X13193Y70053*X13035Y70043*X12878Y70023*X12723Y69995*X12568Y69957*X12418Y69908*X12271Y69853*X12126Y69786*X11986Y69713*X11852Y69629*X11722Y69540*X11598Y69441*X11481Y69334*X11369Y69223*X11267Y69103*X11171Y68979*X11082Y68847*X11001Y68710*X10930Y68570*X10866Y68425*X10813Y68275*X10767Y68125*X10732Y67970*X10732Y66446*X15812Y66446*X15812Y67970*X16764Y66510D2*X16764Y68034D1*X21844Y68034*X21844Y66510*X22162Y41618D2*X22126Y41773D1*X22080Y41923*X22027Y42073*X21963Y42217*X21892Y42357*X21811Y42494*X21722Y42626*X21626Y42751*X21524Y42870*X21412Y42982*X21295Y43089*X21171Y43188*X21041Y43277*X20907Y43360*X20767Y43434*X20622Y43500*X20475Y43556*X20325Y43604*X20170Y43642*X20015Y43670*X19858Y43691*X19700Y43701*X19543Y43701*X19385Y43691*X19228Y43670*X19073Y43642*X18918Y43604*X18768Y43556*X18621Y43500*X18476Y43434*X18336Y43360*X18202Y43277*X18072Y43188*X17948Y43089*X17831Y42982*X17719Y42870*X17617Y42751*X17521Y42626*X17432Y42494*X17351Y42357*X17280Y42217*X17216Y42073*X17163Y41923*X17117Y41773*X17082Y41618*X15812Y13678D2*X15776Y13833D1*X15730Y13983*X15677Y14133*X15613Y14277*X15542Y14417*X15461Y14554*X15372Y14686*X15276Y14811*X15174Y14930*X15062Y15042*X14945Y15149*X14821Y15248*X14691Y15337*X14557Y15420*X14417Y15494*X14272Y15560*X14125Y15616*X13975Y15664*X13820Y15702*X13665Y15730*X13508Y15751*X13350Y15761*X13193Y15761*X13035Y15751*X12878Y15730*X12723Y15702*X12568Y15664*X12418Y15616*X12271Y15560*X12126Y15494*X11986Y15420*X11852Y15337*X11722Y15248*X11598Y15149*X11481Y15042*X11369Y14930*X11267Y14811*X11171Y14686*X11082Y14554*X11001Y14417*X10930Y14277*X10866Y14133*X10813Y13983*X10767Y13833*X10732Y13678*X10732Y12154*X15812Y12154*X17082Y12217D2*X17117Y12062D1*X17163Y11913*X17216Y11763*X17280Y11618*X17351Y11478*X17432Y11341*X17521Y11209*X17617Y11085*X17719Y10965*X17831Y10853*X17948Y10747*X18072Y10648*X18202Y10559*X18336Y10475*X18476Y10401*X18621Y10335*X18768Y10279*X18918Y10231*X19073Y10193*X19228Y10165*X19385Y10145*X19543Y10135*X19700Y10135*X19858Y10145*X20015Y10165*X20170Y10193*X20325Y10231*X20475Y10279*X20622Y10335*X20767Y10401*X20907Y10475*X21041Y10559*X21171Y10648*X21295Y10747*X21412Y10853*X21524Y10965*X21626Y11085*X21722Y11209*X21811Y11341*X21892Y11478*X21963Y11618*X22027Y11763*X22080Y11913*X22126Y12062*X22162Y12217*X22162Y13741*X17082Y13741*X15812Y12154D2*X15812Y13678D1*X17082Y13741D2*X17082Y12217D1*X17082Y17932D2*X17117Y17777D1*X17163Y17628*X17216Y17478*X17280Y17333*X17351Y17193*X17432Y17056*X17521Y16924*X17617Y16800*X17719Y16680*X17831Y16568*X17948Y16462*X18072Y16363*X18202Y16274*X18336Y16190*X18476Y16116*X18621Y16050*X18768Y15994*X18918Y15946*X19073Y15908*X19228Y15880*X19385Y15860*X19543Y15850*X19700Y15850*X19858Y15860*X20015Y15880*X20170Y15908*X20325Y15946*X20475Y15994*X20622Y16050*X20767Y16116*X20907Y16190*X21041Y16274*X21171Y16363*X21295Y16462*X21412Y16568*X21524Y16680*X21626Y16800*X21722Y16924*X21811Y17056*X21892Y17193*X21963Y17333*X22027Y17478*X22080Y17628*X22126Y17777*X22162Y17932*X22162Y19456*X17082Y19456*X17082Y17932*X15812Y21615D2*X15776Y21770D1*X15730Y21920*X15677Y22070*X15613Y22215*X15542Y22355*X15461Y22492*X15372Y22624*X15276Y22748*X15174Y22868*X15062Y22979*X14945Y23086*X14821Y23185*X14691Y23274*X14557Y23358*X14417Y23432*X14272Y23498*X14125Y23553*X13975Y23602*X13820Y23640*X13665Y23668*X13508Y23688*X13350Y23698*X13193Y23698*X13035Y23688*X12878Y23668*X12723Y23640*X12568Y23602*X12418Y23553*X12271Y23498*X12126Y23432*X11986Y23358*X11852Y23274*X11722Y23185*X11598Y23086*X11481Y22979*X11369Y22868*X11267Y22748*X11171Y22624*X11082Y22492*X11001Y22355*X10930Y22215*X10866Y22070*X10813Y21920*X10767Y21770*X10732Y21615*X10732Y20091*X15812Y20091*X15812Y21615*X16764Y23520D2*X16800Y23675D1*X16845Y23825*X16899Y23975*X16962Y24120*X17033Y24260*X17115Y24397*X17203Y24529*X17300Y24653*X17402Y24773*X17513Y24884*X17630Y24991*X17755Y25090*X17884Y25179*X18019Y25263*X18158Y25336*X18303Y25403*X18451Y25458*X18600Y25507*X18755Y25545*X18910Y25573*X19068Y25593*X19225Y25603*X19383Y25603*X19540Y25593*X19698Y25573*X19853Y25545*X20008Y25507*X20157Y25458*X20305Y25403*X20450Y25336*X20589Y25263*X20724Y25179*X20853Y25090*X20978Y24991*X21095Y24884*X21206Y24773*X21308Y24653*X21405Y24529*X21493Y24397*X21575Y24260*X21646Y24120*X21709Y23975*X21763Y23825*X21808Y23675*X21844Y23520*X21844Y21996*X16764Y21996*X16764Y23520*X15812Y31775D2*X15776Y31930D1*X15730Y32080*X15677Y32230*X15613Y32375*X15542Y32515*X15461Y32652*X15372Y32784*X15276Y32908*X15174Y33028*X15062Y33139*X14945Y33246*X14821Y33345*X14691Y33434*X14557Y33518*X14417Y33592*X14272Y33658*X14125Y33713*X13975Y33762*X13820Y33800*X13665Y33828*X13508Y33848*X13350Y33858*X13193Y33858*X13035Y33848*X12878Y33828*X12723Y33800*X12568Y33762*X12418Y33713*X12271Y33658*X12126Y33592*X11986Y33518*X11852Y33434*X11722Y33345*X11598Y33246*X11481Y33139*X11369Y33028*X11267Y32908*X11171Y32784*X11082Y32652*X11001Y32515*X10930Y32375*X10866Y32230*X10813Y32080*X10767Y31930*X10732Y31775*X10732Y30251*X15812Y30251*X16764Y30315D2*X16800Y30160D1*X16845Y30010*X16899Y29860*X16962Y29715*X17033Y29576*X17115Y29439*X17203Y29307*X17300Y29182*X17402Y29063*X17513Y28951*X17630Y28844*X17755Y28745*X17884Y28656*X18019Y28572*X18158Y28499*X18303Y28433*X18451Y28377*X18600Y28329*X18755Y28291*X18910Y28263*X19068Y28242*X19225Y28232*X19383Y28232*X19540Y28242*X19698Y28263*X19853Y28291*X20008Y28329*X20157Y28377*X20305Y28433*X20450Y28499*X20589Y28572*X20724Y28656*X20853Y28745*X20978Y28844*X21095Y28951*X21206Y29063*X21308Y29182*X21405Y29307*X21493Y29439*X21575Y29576*X21646Y29715*X21709Y29860*X21763Y30010*X21808Y30160*X21844Y30315*X21844Y31839*X16764Y31839*X15812Y30251D2*X15812Y31775D1*X16764Y31839D2*X16764Y30315D1*X17082Y36030D2*X17117Y35875D1*X17163Y35725*X17216Y35575*X17280Y35430*X17351Y35291*X17432Y35154*X17521Y35022*X17617Y34897*X17719Y34778*X17831Y34666*X17948Y34559*X18072Y34460*X18202Y34371*X18336Y34287*X18476Y34214*X18621Y34148*X18768Y34092*X18918Y34044*X19073Y34006*X19228Y33978*X19385Y33957*X19543Y33947*X19700Y33947*X19858Y33957*X20015Y33978*X20170Y34006*X20325Y34044*X20475Y34092*X20622Y34148*X20767Y34214*X20907Y34287*X21041Y34371*X21171Y34460*X21295Y34559*X21412Y34666*X21524Y34778*X21626Y34897*X21722Y35022*X21811Y35154*X21892Y35291*X21963Y35430*X22027Y35575*X22080Y35725*X22126Y35875*X22162Y36030*X22162Y37554*X17082Y37554*X17082Y36030*X15812Y39713D2*X15776Y39868D1*X15730Y40018*X15677Y40168*X15613Y40312*X15542Y40452*X15461Y40589*X15372Y40721*X15276Y40846*X15174Y40965*X15062Y41077*X14945Y41184*X14821Y41283*X14691Y41372*X14557Y41455*X14417Y41529*X14272Y41595*X14125Y41651*X13975Y41699*X13820Y41737*X13665Y41765*X13508Y41786*X13350Y41796*X13193Y41796*X13035Y41786*X12878Y41765*X12723Y41737*X12568Y41699*X12418Y41651*X12271Y41595*X12126Y41529*X11986Y41455*X11852Y41372*X11722Y41283*X11598Y41184*X11481Y41077*X11369Y40965*X11267Y40846*X11171Y40721*X11082Y40589*X11001Y40452*X10930Y40312*X10866Y40168*X10813Y40018*X10767Y39868*X10732Y39713*X10732Y38189*X15812Y38189*X15812Y39713*X17082Y41618D2*X17082Y40094D1*X22162Y40094*X22162Y41618*X21844Y48412D2*X21808Y48257D1*X21763Y48108*X21709Y47958*X21646Y47813*X21575Y47673*X21493Y47536*X21405Y47404*X21308Y47280*X21206Y47160*X21095Y47048*X20978Y46942*X20853Y46843*X20724Y46754*X20589Y46670*X20450Y46596*X20305Y46530*X20157Y46474*X20008Y46426*X19853Y46388*X19698Y46360*X19540Y46340*X19383Y46330*X19225Y46330*X19068Y46340*X18910Y46360*X18755Y46388*X18600Y46426*X18451Y46474*X18303Y46530*X18158Y46596*X18019Y46670*X17884Y46754*X17755Y46843*X17630Y46942*X17513Y47048*X17402Y47160*X17300Y47280*X17203Y47404*X17115Y47536*X17033Y47673*X16962Y47813*X16899Y47958*X16845Y48108*X16800Y48257*X16764Y48412*X15812Y49873D2*X15776Y50028D1*X15730Y50178*X15677Y50328*X15613Y50472*X15542Y50612*X15461Y50749*X15372Y50881*X15276Y51006*X15174Y51125*X15062Y51237*X14945Y51344*X14821Y51443*X14691Y51532*X14557Y51615*X14417Y51689*X14272Y51755*X14125Y51811*X13975Y51859*X13820Y51897*X13665Y51925*X13508Y51946*X13350Y51956*X13193Y51956*X13035Y51946*X12878Y51925*X12723Y51897*X12568Y51859*X12418Y51811*X12271Y51755*X12126Y51689*X11986Y51615*X11852Y51532*X11722Y51443*X11598Y51344*X11481Y51237*X11369Y51125*X11267Y51006*X11171Y50881*X11082Y50749*X11001Y50612*X10930Y50472*X10866Y50328*X10813Y50178*X10767Y50028*X10732Y49873*X10732Y48349*X15812Y48349*X15812Y49873*X16764Y48412D2*X16764Y49936D1*X21844Y49936*X21844Y48412*X22162Y54127D2*X22126Y53972D1*X22080Y53823*X22027Y53673*X21963Y53528*X21892Y53388*X21811Y53251*X21722Y53119*X21626Y52995*X21524Y52875*X21412Y52763*X21295Y52657*X21171Y52558*X21041Y52469*X20907Y52385*X20767Y52311*X20622Y52245*X20475Y52189*X20325Y52141*X20170Y52103*X20015Y52075*X19858Y52055*X19700Y52045*X19543Y52045*X19385Y52055*X19228Y52075*X19073Y52103*X18918Y52141*X18768Y52189*X18621Y52245*X18476Y52311*X18336Y52385*X18202Y52469*X18072Y52558*X17948Y52657*X17831Y52763*X17719Y52875*X17617Y52995*X17521Y53119*X17432Y53251*X17351Y53388*X17280Y53528*X17216Y53673*X17163Y53823*X17117Y53972*X17082Y54127*X15812Y57810D2*X15776Y57965D1*X15730Y58115*X15677Y58265*X15613Y58410*X15542Y58550*X15461Y58687*X15372Y58819*X15276Y58943*X15174Y59063*X15062Y59174*X14945Y59281*X14821Y59380*X14691Y59469*X14557Y59553*X14417Y59626*X14272Y59693*X14125Y59748*X13975Y59797*X13820Y59835*X13665Y59863*X13508Y59883*X13350Y59893*X13193Y59893*X13035Y59883*X12878Y59863*X12723Y59835*X12568Y59797*X12418Y59748*X12271Y59693*X12126Y59626*X11986Y59553*X11852Y59469*X11722Y59380*X11598Y59281*X11481Y59174*X11369Y59063*X11267Y58943*X11171Y58819*X11082Y58687*X11001Y58550*X10930Y58410*X10866Y58265*X10813Y58115*X10767Y57965*X10732Y57810*X10732Y56286*X15812Y56286*X16764Y59715D2*X16800Y59870D1*X16845Y60020*X16899Y60170*X16962Y60315*X17033Y60455*X17115Y60592*X17203Y60724*X17300Y60848*X17402Y60968*X17513Y61079*X17630Y61186*X17755Y61285*X17884Y61374*X18019Y61458*X18158Y61532*X18303Y61598*X18451Y61653*X18600Y61702*X18755Y61740*X18910Y61768*X19068Y61788*X19225Y61798*X19383Y61798*X19540Y61788*X19698Y61768*X19853Y61740*X20008Y61702*X20157Y61653*X20305Y61598*X20450Y61532*X20589Y61458*X20724Y61374*X20853Y61285*X20978Y61186*X21095Y61079*X21206Y60968*X21308Y60848*X21405Y60724*X21493Y60592*X21575Y60455*X21646Y60315*X21709Y60170*X21763Y60020*X21808Y59870*X21844Y59715*X21844Y58191*X16764Y58191*X16764Y59715*X15812Y56286D2*X15812Y57810D1*X17082Y55651D2*X17082Y54127D1*X22162Y54127D2*X22162Y55651D1*X42482Y52095D2*X42446Y52250D1*X42400Y52400*X42347Y52550*X42283Y52695*X42212Y52835*X42131Y52972*X42042Y53104*X41946Y53228*X41844Y53348*X41732Y53459*X41615Y53566*X41491Y53665*X41361Y53754*X41227Y53838*X41087Y53912*X40942Y53978*X40795Y54033*X40645Y54082*X40490Y54120*X40335Y54148*X40178Y54168*X40020Y54178*X39863Y54178*X39705Y54168*X39548Y54148*X39393Y54120*X39238Y54082*X39088Y54033*X38941Y53978*X38796Y53912*X38656Y53838*X38522Y53754*X38392Y53665*X38268Y53566*X38151Y53459*X38039Y53348*X37937Y53228*X37841Y53104*X37752Y52972*X37671Y52835*X37600Y52695*X37536Y52550*X37483Y52400*X37437Y52250*X37402Y52095*X37402Y50571*X42482Y50571*X42482Y52095*X44006Y49301D2*X44160Y49337D1*X44310Y49383*X44460Y49436*X44605Y49500*X44745Y49571*X44882Y49652*X45014Y49741*X45138Y49837*X45258Y49939*X45369Y50051*X45476Y50168*X45575Y50292*X45664Y50422*X45748Y50556*X45822Y50696*X45888Y50841*X45944Y50988*X45992Y51138*X46030Y51293*X46058Y51448*X46078Y51605*X46088Y51763*X46088Y51920*X46078Y52078*X46058Y52235*X46030Y52390*X45992Y52545*X45944Y52695*X45888Y52842*X45822Y52987*X45748Y53127*X45664Y53261*X45575Y53391*X45476Y53515*X45369Y53632*X45258Y53744*X45138Y53845*X45014Y53942*X44882Y54031*X44745Y54112*X44605Y54183*X44460Y54247*X44310Y54300*X44160Y54346*X44006Y54381*X42482Y54381*X42482Y49301*X44006Y49301*X42164Y45428D2*X42200Y45583D1*X42245Y45733*X42299Y45883*X42362Y46027*X42433Y46167*X42515Y46304*X42603Y46436*X42700Y46561*X42802Y46680*X42913Y46792*X43030Y46899*X43155Y46998*X43284Y47087*X43419Y47170*X43558Y47244*X43703Y47310*X43851Y47366*X44000Y47414*X44155Y47452*X44310Y47480*X44468Y47501*X44625Y47511*X44783Y47511*X44940Y47501*X45098Y47480*X45253Y47452*X45408Y47414*X45557Y47366*X45705Y47310*X45850Y47244*X45989Y47170*X46124Y47087*X46253Y46998*X46378Y46899*X46495Y46792*X46606Y46680*X46708Y46561*X46805Y46436*X46893Y46304*X46975Y46167*X47046Y46027*X47109Y45883*X47163Y45733*X47208Y45583*X47244Y45428*X47244Y43904*X42164Y43904*X42164Y45428*X42482Y36538D2*X42446Y36693D1*X42400Y36843*X42347Y36993*X42283Y37137*X42212Y37277*X42131Y37414*X42042Y37546*X41946Y37671*X41844Y37790*X41732Y37902*X41615Y38009*X41491Y38108*X41361Y38197*X41227Y38280*X41087Y38354*X40942Y38420*X40795Y38476*X40645Y38524*X40490Y38562*X40335Y38590*X40178Y38611*X40020Y38621*X39863Y38621*X39705Y38611*X39548Y38590*X39393Y38562*X39238Y38524*X39088Y38476*X38941Y38420*X38796Y38354*X38656Y38280*X38522Y38197*X38392Y38108*X38268Y38009*X38151Y37902*X38039Y37790*X37937Y37671*X37841Y37546*X37752Y37414*X37671Y37277*X37600Y37137*X37536Y36993*X37483Y36843*X37437Y36693*X37402Y36538*X39306Y40030D2*X39342Y40185D1*X39388Y40335*X39441Y40485*X39505Y40630*X39576Y40770*X39657Y40907*X39746Y41039*X39842Y41163*X39944Y41283*X40056Y41394*X40173Y41501*X40297Y41600*X40427Y41689*X40561Y41773*X40701Y41846*X40846Y41913*X40993Y41968*X41143Y42017*X41298Y42055*X41453Y42083*X41610Y42103*X41768Y42113*X41925Y42113*X42083Y42103*X42240Y42083*X42395Y42055*X42550Y42017*X42700Y41968*X42847Y41913*X42992Y41846*X43132Y41773*X43266Y41689*X43396Y41600*X43520Y41501*X43637Y41394*X43749Y41283*X43851Y41163*X43947Y41039*X44036Y40907*X44117Y40770*X44188Y40630*X44252Y40485*X44305Y40335*X44351Y40185*X44386Y40030*X42482Y36538D2*X42482Y35014D1*X37402Y35014*X37402Y36538*X39306Y40030D2*X39306Y38506D1*X44386Y38506*X44386Y40030*X47879Y36919D2*X47879Y41999D1*X46355Y41999*X46200Y41963*X46050Y41918*X45900Y41864*X45756Y41801*X45616Y41730*X45479Y41648*X45347Y41559*X45222Y41463*X45103Y41361*X44991Y41250*X44884Y41133*X44785Y41008*X44696Y40879*X44613Y40744*X44539Y40604*X44473Y40460*X44417Y40312*X44369Y40162*X44331Y40008*X44303Y39853*X44282Y39695*X44272Y39538*X44272Y39380*X44282Y39223*X44303Y39065*X44331Y38910*X44369Y38755*X44417Y38605*X44473Y38458*X44539Y38313*X44613Y38174*X44696Y38039*X44785Y37910*X44884Y37785*X44991Y37668*X45103Y37556*X45222Y37455*X45347Y37358*X45479Y37269*X45616Y37188*X45756Y37117*X45900Y37054*X46050Y37000*X46200Y36954*X46355Y36919*X47879Y36919*D17*X51626Y43269D2*X51626Y42126D1*X51054Y42697D2*X52197Y42697D1*X6477Y74765D2*X5334Y74765D1*X5906Y74193D2*X5906Y75336D1*X7366Y69558D2*X8509Y69558D1*X7938Y68986D2*X7938Y70129D1*X6477Y56667D2*X5334Y56667D1*X5906Y56096D2*X5906Y57239D1*X7366Y51460D2*X8509Y51460D1*X7938Y50889D2*X7938Y52032D1*X6477Y38570D2*X5334Y38570D1*X5906Y37998D2*X5906Y39141D1*X7366Y33363D2*X8509Y33363D1*X7938Y32791D2*X7938Y33934D1*X6477Y20472D2*X5334Y20472D1*X5906Y19901D2*X5906Y21044D1*X7938Y14694D2*X7938Y15837D1*X8509Y15265D2*X7366Y15265D1*X27686Y20028D2*X28829Y20028D1*X28258Y20599D2*X28258Y19456D1*X28258Y37554D2*X28258Y38697D1*X28829Y38125D2*X27686Y38125D1*X35496Y36538D2*X36640Y36538D1*X36068Y37109D2*X36068Y35966D1*X35496Y41300D2*X36640Y41300D1*X36068Y41872D2*X36068Y40729D1*X35496Y46063D2*X36640Y46063D1*X36068Y46634D2*X36068Y45491D1*X36068Y51079D2*X36068Y49936D1*X35496Y50508D2*X36640Y50508D1*X28004Y56540D2*X29146Y56540D1*X28575Y57112D2*X28575Y55969D1*X28575Y74066D2*X28575Y75209D1*X28004Y74638D2*X29146Y74638D1*D18*X27102Y79045D2*X27407Y79352D1*X27407Y78435*X27711Y78435D2*X27102Y78435D1*X28974Y79197D2*X28974Y78588D1*X29908Y78435D2*X29908Y79045D1*X30518Y78435D2*X30518Y78892D1*X30366Y79045*X29908Y79045*X29583Y79197D2*X29583Y78588D1*X29431Y78435*X29126Y78435*X28974Y78588*X29583Y79197*X29431Y79352*X29126Y79352*X28974Y79197*X28649Y79197D2*X28494Y79352D1*X28189Y79352*X28037Y79197*X28037Y78588*X28494Y78435D2*X28649Y78588D1*X28649Y79197*X28037Y78588*X28189Y78435*X28494Y78435*X28689Y11417D2*X28994Y11725D1*X28994Y10808*X29299Y10808D2*X28689Y10808D1*X29624Y10960D2*X29624Y11570D1*X29776Y11725*X30081Y11725*X30236Y11570*X30236Y10960D2*X30236Y11570D1*X29624Y10960*X29776Y10808*X30081Y10808*X30236Y10960*X30561Y10960D2*X30561Y11570D1*X30714Y11725*X31018Y11725*X31171Y11570*X31171Y10960*X31018Y10808*X30714Y10808*X30561Y10960*X31171Y11570*X31953Y11417D2*X31496Y11417D1*X31496Y10808*X32106Y10808D2*X32106Y11265D1*X31953Y11417*X44882Y31102D2*X45187Y31410D1*X45187Y30493*X45491Y30493D2*X44882Y30493D1*X45817Y30645D2*X45817Y31255D1*X45969Y31410*X46274Y31410*X46429Y31255*X46429Y30645D2*X46429Y31255D1*X45817Y30645*X45969Y30493*X46274Y30493*X46429Y30645*X48298Y30493D2*X48298Y30950D1*X48146Y31102*X47363Y31255D2*X47211Y31410D1*X46906Y31410*X46754Y31255*X46754Y30645*X47363Y30645D2*X47363Y31255D1*X46754Y30645*X46906Y30493*X47211Y30493*X47363Y30645*X47688Y30493D2*X47688Y31102D1*X48146Y31102*D19*X44407Y43487D2*X44407Y42545D1*X39129Y6794D2*X39129Y7737D1*X42870Y6794D2*X42870Y7422D1*X43185Y7737*X43498Y7264D2*X42870Y7264D1*X44435Y7737D2*X44435Y6794D1*X43807Y7737*X43807Y6794*X43498Y6794D2*X43498Y7422D1*X43185Y7737*X41935Y8788D2*X42248Y8788D1*X41001Y7737D2*X41001Y6794D1*X40063Y7264D2*X40378Y7264D1*X40691Y7737D2*X40063Y7737D1*X40063Y8788D2*X40691Y8788D1*X40063Y8318D2*X40063Y8946D1*X40378Y9261*X40691Y8946*X40691Y8318*X41001Y8318D2*X41001Y9261D1*X41313Y8946*X41628Y9261*X41628Y8318*X41935Y8318D2*X41935Y9261D1*X42563Y9261*X43498Y9103D2*X43343Y9261D1*X43028Y9261*X42870Y9103*X42870Y8946*X43028Y8788*X43343Y8788*X43498Y8633*X43498Y8476*X43343Y8318*X43028Y8318*X42870Y8476*X41935Y8318D2*X42563Y8318D1*X41935Y7737D2*X42248Y7422D1*X42563Y7737*X42563Y6794*X41935Y7737D2*X41935Y6794D1*X41628Y7737D2*X41628Y6794D1*X41313Y7109*X41001Y6794*X40691Y6794D2*X40063Y6794D1*X40063Y7737*X39756Y7737D2*X39756Y6794D1*X39129Y7737*X39129Y8476D2*X39286Y8318D1*X39444Y8318*X39599Y8476*X39599Y9261*X39444Y9261D2*X39756Y9261D1*X26810Y25105D2*X26810Y25263D1*X26182Y25263*X25875Y24790D2*X25248Y24790D1*X25718Y25263*X25718Y24320*X26182Y24320D2*X26182Y24478D1*X26810Y25105*X27120Y24478D2*X27120Y25105D1*X27275Y25263*X27589Y25263*X27747Y25105*X27747Y24478*X27589Y24320*X27275Y24320*X27120Y24478*X27747Y25105*X48580Y44107D2*X48425Y44107D1*X48425Y43482*X48895Y43172D2*X48895Y42545D1*X48425Y43015*X49365Y43015*X49365Y43482D2*X49207Y43482D1*X48580Y44107*X49207Y44417D2*X49365Y44574D1*X49365Y44887*X49207Y45044*X48580Y45044*X49207Y44417*X48580Y44417*X48425Y44574*X48425Y44887*X48580Y45044*X46012Y48100D2*X46012Y48727D1*X47417Y47942D2*X46947Y48257D1*X47417Y48570*X46947Y48885D2*X46947Y47942D1*X46639Y48727D2*X46639Y48100D1*X46482Y47942*X46167Y47942*X46012Y48100*X46639Y48727*X46482Y48885*X46167Y48885*X46012Y48727*X45075Y48570D2*X45390Y48885D1*X45390Y47942*X45075Y47942D2*X45702Y47942D1*X44877Y42545D2*X44407Y42860D1*X44877Y43172*X44099Y43330D2*X43942Y43487D1*X43627Y43487*X43472Y43330*X43472Y42702*X43627Y42545*X43942Y42545*X44099Y42702*X44099Y43330*X43472Y42702*X43162Y42545D2*X42535Y42545D1*X42850Y42545D2*X42850Y43487D1*X42535Y43172*X40673Y46182D2*X40361Y46495D1*X41300Y46495*X41300Y46810D2*X41300Y46182D1*X41143Y47117D2*X40516Y47117D1*X40361Y47274*X40361Y47587*X40516Y47744*X41143Y47744*X41300Y47587*X41300Y47274*X41143Y47117*X40516Y47744*X41300Y48052D2*X40361Y48052D1*X41300Y48522D2*X40988Y48052D1*X40673Y48522*X36388Y60907D2*X37015Y60907D1*X37173Y60749*X37173Y60437*X37015Y60279*X36388Y60907*X36233Y60749*X36233Y60437*X36388Y60279*X37015Y60279*X36703Y59035D2*X36703Y58407D1*X36233Y59345D2*X36233Y59969D1*X36388Y59969*X37015Y59345*X37173Y59345*X37173Y58877D2*X36233Y58877D1*X36703Y58407*X26810Y43203D2*X26810Y43360D1*X26182Y43360*X25875Y42888D2*X25248Y42888D1*X25718Y43360*X25718Y42418*X26182Y42418D2*X26182Y42575D1*X26810Y43203*X27120Y42575D2*X27120Y43203D1*X27275Y43360*X27589Y43360*X27747Y43203D2*X27747Y42575D1*X27589Y42418*X27275Y42418*X27120Y42575*X27747Y43203*X27589Y43360*X28064Y47330D2*X27907Y47488D1*X27592Y47488*X27437Y47330*X27437Y46703*X27592Y46546*X27907Y46546*X28064Y46703*X28064Y47330*X27437Y46703*X26035Y47488D2*X26035Y46546D1*X26500Y47488D2*X27127Y47488D1*X27127Y47330*X26500Y46703*X26500Y46546*X26192Y47015D2*X25565Y47015D1*X26035Y47488*X13780Y79207D2*X13780Y79365D1*X13152Y79365*X12845Y78892D2*X12217Y78892D1*X12687Y79365*X12687Y78422*X13152Y78422D2*X13152Y78580D1*X13780Y79207*X14717Y79207D2*X14559Y79365D1*X14244Y79365*X14089Y79207*X14089Y78580*X14559Y78422D2*X14717Y78580D1*X14717Y79207*X14089Y78580*X14244Y78422*X14559Y78422*X17628Y75430D2*X17940Y75745D1*X17940Y74803*X18255Y74803D2*X17628Y74803D1*X19190Y75588D2*X19032Y75745D1*X18720Y75745*X18562Y75588*X18562Y74960*X19190Y74960D2*X19190Y75588D1*X18562Y74960*X18720Y74803*X19032Y74803*X19190Y74960*X19500Y75745D2*X19500Y74803D1*X19969Y75430D2*X19500Y75118D1*X19969Y74803*X23053Y73607D2*X22898Y73449D1*X22898Y73137*X23053Y72979*X23680Y72979*X23838Y73137*X23838Y73449*X23680Y73607*X23053Y73607*X23680Y72979*X23838Y72045D2*X23680Y72045D1*X22898Y71577D2*X23838Y71577D1*X22898Y72045D2*X22898Y72669D1*X23053Y72669*X23680Y72045*X23368Y71735D2*X23368Y71107D1*X22898Y71577*X19969Y68453D2*X19500Y68768D1*X19969Y69080*X19500Y69395D2*X19500Y68453D1*X19190Y69238D2*X19032Y69395D1*X18720Y69395*X18562Y69238*X18562Y68610*X18720Y68453*X19032Y68453*X19190Y68610*X19190Y69238*X18562Y68610*X17628Y68453D2*X18255Y68453D1*X17940Y68453D2*X17940Y69395D1*X17628Y69080*X14714Y70802D2*X14244Y71117D1*X14714Y71430*X14714Y72708D2*X14244Y73022D1*X14714Y73335*X14244Y73650D2*X14244Y72708D1*X13937Y73492D2*X13780Y73650D1*X13465Y73650*X13310Y73492*X13310Y72865D2*X13465Y72708D1*X13780Y72708*X13937Y72865*X13937Y73492*X13310Y72865*X13310Y73492*X12372Y73335D2*X12687Y73650D1*X12687Y72708*X12372Y72708D2*X13000Y72708D1*X12372Y71430D2*X12687Y71745D1*X12687Y70802*X13000Y70802D2*X12372Y70802D1*X13310Y70960D2*X13310Y71587D1*X13465Y71745*X13780Y71745*X13937Y71587*X14244Y70802D2*X14244Y71745D1*X13780Y70802D2*X13937Y70960D1*X13937Y71587*X13310Y70960*X13465Y70802*X13780Y70802*X13780Y65872D2*X13780Y66030D1*X13152Y66030*X12845Y65557D2*X12217Y65557D1*X12687Y66030*X12687Y65088*X13152Y65088D2*X13152Y65245D1*X13780Y65872*X14717Y65872D2*X14559Y66030D1*X14244Y66030*X14089Y65872*X14089Y65245*X14244Y65088D2*X14559Y65088D1*X14717Y65245*X14717Y65872*X14089Y65245*X14244Y65088*X13780Y61110D2*X13780Y61267D1*X13152Y61267*X12845Y60795D2*X12217Y60795D1*X12687Y61267*X12687Y60325*X13152Y60325D2*X13152Y60482D1*X13780Y61110*X14717Y61110D2*X14559Y61267D1*X14244Y61267*X14089Y61110*X14089Y60482*X14559Y60325D2*X14717Y60482D1*X14717Y61110*X14089Y60482*X14244Y60325*X14559Y60325*X17628Y57333D2*X17940Y57648D1*X17940Y56706*X18255Y56706D2*X17628Y56706D1*X19190Y57490D2*X19032Y57648D1*X18720Y57648*X18562Y57490*X18562Y56863*X19190Y56863D2*X19190Y57490D1*X18562Y56863*X18720Y56706*X19032Y56706*X19190Y56863*X19500Y57648D2*X19500Y56706D1*X19969Y57333D2*X19500Y57020D1*X19969Y56706*X23053Y55827D2*X23680Y55827D1*X23838Y55669*X23838Y55357*X23680Y55199*X23053Y55827*X22898Y55669*X22898Y55357*X23053Y55199*X23680Y55199*X23838Y54265D2*X23680Y54265D1*X22898Y53797D2*X23838Y53797D1*X22898Y54265D2*X22898Y54889D1*X23053Y54889*X23680Y54265*X23368Y53955D2*X23368Y53327D1*X22898Y53797*X19969Y50983D2*X19500Y50670D1*X19969Y50356*X19500Y51298D2*X19500Y50356D1*X19190Y51140D2*X19032Y51298D1*X18720Y51298*X18562Y51140*X18562Y50513*X18720Y50356*X19032Y50356*X19190Y50513*X19190Y51140*X18562Y50513*X17628Y50356D2*X18255Y50356D1*X17940Y50356D2*X17940Y51298D1*X17628Y50983*X14714Y52705D2*X14244Y53020D1*X14714Y53332*X14714Y54610D2*X14244Y54925D1*X14714Y55237*X14244Y55552D2*X14244Y54610D1*X13937Y55395D2*X13780Y55552D1*X13465Y55552*X13310Y55395*X13310Y54767D2*X13465Y54610D1*X13780Y54610*X13937Y54767*X13937Y55395*X13310Y54767*X13310Y55395*X12372Y55237D2*X12687Y55552D1*X12687Y54610*X12372Y54610D2*X13000Y54610D1*X12372Y53332D2*X12687Y53647D1*X12687Y52705*X13000Y52705D2*X12372Y52705D1*X13310Y52862D2*X13310Y53490D1*X13465Y53647*X13780Y53647*X13937Y53490*X14244Y52705D2*X14244Y53647D1*X13780Y52705D2*X13937Y52862D1*X13937Y53490*X13310Y52862*X13465Y52705*X13780Y52705*X13780Y47775D2*X13780Y47932D1*X13152Y47932*X12845Y47460D2*X12217Y47460D1*X12687Y47932*X12687Y46990*X13152Y46990D2*X13152Y47147D1*X13780Y47775*X14717Y47775D2*X14559Y47932D1*X14244Y47932*X14089Y47775*X14089Y47147*X14244Y46990D2*X14559Y46990D1*X14717Y47147*X14717Y47775*X14089Y47147*X14244Y46990*X13780Y43012D2*X13780Y43170D1*X13152Y43170*X12845Y42697D2*X12217Y42697D1*X12687Y43170*X12687Y42228*X13152Y42228D2*X13152Y42385D1*X13780Y43012*X14717Y43012D2*X14559Y43170D1*X14244Y43170*X14089Y43012*X14089Y42385*X14559Y42228D2*X14717Y42385D1*X14717Y43012*X14089Y42385*X14244Y42228*X14559Y42228*X17628Y39235D2*X17940Y39550D1*X17940Y38608*X18255Y38608D2*X17628Y38608D1*X19190Y39393D2*X19032Y39550D1*X18720Y39550*X18562Y39393*X18562Y38765*X19190Y38765D2*X19190Y39393D1*X18562Y38765*X18720Y38608*X19032Y38608*X19190Y38765*X19500Y39550D2*X19500Y38608D1*X19969Y39235D2*X19500Y38923D1*X19969Y38608*X23053Y37412D2*X23680Y37412D1*X23838Y37254*X23838Y36942*X23680Y36784*X23053Y37412*X22898Y37254*X22898Y36942*X23053Y36784*X23680Y36784*X22898Y35382D2*X23838Y35382D1*X22898Y35850D2*X22898Y36474D1*X23053Y36474*X23680Y35850*X23838Y35850*X23368Y35540D2*X23368Y34912D1*X22898Y35382*X19969Y32885D2*X19500Y32573D1*X19969Y32258*X19500Y33200D2*X19500Y32258D1*X19190Y33043D2*X19032Y33200D1*X18720Y33200*X18562Y33043*X18562Y32415*X18720Y32258*X19032Y32258*X19190Y32415*X19190Y33043*X18562Y32415*X17628Y32258D2*X18255Y32258D1*X17940Y32258D2*X17940Y33200D1*X17628Y32885*X14714Y34608D2*X14244Y34922D1*X14714Y35235*X14714Y36512D2*X14244Y36827D1*X14714Y37140*X14244Y37455D2*X14244Y36512D1*X13937Y37297D2*X13780Y37455D1*X13465Y37455*X13310Y37297*X13310Y36670D2*X13465Y36512D1*X13780Y36512*X13937Y36670*X13937Y37297*X13310Y36670*X13310Y37297*X12372Y37140D2*X12687Y37455D1*X12687Y36512*X12372Y36512D2*X13000Y36512D1*X12372Y35235D2*X12687Y35550D1*X12687Y34608*X13000Y34608D2*X12372Y34608D1*X13310Y34765D2*X13310Y35392D1*X13465Y35550*X13780Y35550*X13937Y35392*X14244Y34608D2*X14244Y35550D1*X13780Y34608D2*X13937Y34765D1*X13937Y35392*X13310Y34765*X13465Y34608*X13780Y34608*X13780Y29677D2*X13780Y29835D1*X13152Y29835*X12845Y29362D2*X12217Y29362D1*X12687Y29835*X12687Y28892*X13152Y28892D2*X13152Y29050D1*X13780Y29677*X14717Y29677D2*X14559Y29835D1*X14244Y29835*X14089Y29677*X14089Y29050*X14244Y28892D2*X14559Y28892D1*X14717Y29050*X14717Y29677*X14089Y29050*X14244Y28892*X13780Y24915D2*X13780Y25072D1*X13152Y25072*X12845Y24600D2*X12217Y24600D1*X12687Y25072*X12687Y24130*X13152Y24130D2*X13152Y24287D1*X13780Y24915*X14717Y24915D2*X14559Y25072D1*X14244Y25072*X14089Y24915*X14089Y24287*X14559Y24130D2*X14717Y24287D1*X14717Y24915*X14089Y24287*X14244Y24130*X14559Y24130*X17945Y14788D2*X18258Y15103D1*X18258Y14160*X18572Y14160D2*X17945Y14160D1*X18880Y14318D2*X18880Y14945D1*X19037Y15103*X19350Y15103*X19507Y14945*X19507Y14318*X19350Y14160*X19037Y14160*X18880Y14318*X19507Y14945*X19817Y14160D2*X19817Y15103D1*X20287Y14160D2*X19817Y14475D1*X20287Y14788*X23053Y18694D2*X22898Y18694D1*X22898Y18070*X23368Y17760D2*X23368Y17132D1*X22898Y17602*X23838Y17602*X23838Y18070D2*X23680Y18070D1*X23053Y18694*X23680Y19004D2*X23053Y19004D1*X22898Y19162*X22898Y19474*X23053Y19632D2*X23680Y19632D1*X23838Y19474*X23838Y19162*X23680Y19004*X23053Y19632*X22898Y19474*X19969Y21138D2*X19500Y20825D1*X19969Y20510*X19500Y21453D2*X19500Y20510D1*X19190Y21295D2*X19032Y21453D1*X18720Y21453*X18562Y21295*X18562Y20668D2*X18720Y20510D1*X19032Y20510*X19190Y20668*X19190Y21295*X18562Y20668*X18562Y21295*X17628Y21138D2*X17940Y21453D1*X17940Y20510*X17628Y20510D2*X18255Y20510D1*X14714Y16510D2*X14244Y16825D1*X14714Y17137*X14714Y18415D2*X14244Y18730D1*X14714Y19042*X14244Y19357D2*X14244Y18415D1*X13937Y19200D2*X13780Y19357D1*X13465Y19357*X13310Y19200*X13310Y18572D2*X13465Y18415D1*X13780Y18415*X13937Y18572*X13937Y19200*X13310Y18572*X13310Y19200*X12372Y19042D2*X12687Y19357D1*X12687Y18415*X12372Y18415D2*X13000Y18415D1*X12372Y17137D2*X12687Y17452D1*X12687Y16510*X13000Y16510D2*X12372Y16510D1*X13310Y16667D2*X13310Y17295D1*X13465Y17452*X13780Y17452*X13937Y17295*X14244Y16510D2*X14244Y17452D1*X13780Y16510D2*X13937Y16667D1*X13937Y17295*X13310Y16667*X13465Y16510*X13780Y16510*X13780Y11580D2*X13780Y11737D1*X13152Y11737*X12845Y11265D2*X12217Y11265D1*X12687Y11737*X12687Y10795*X13152Y10795D2*X13152Y10952D1*X13780Y11580*X14717Y11580D2*X14559Y11737D1*X14244Y11737*X14089Y11580*X14089Y10952*X14559Y10795D2*X14717Y10952D1*X14717Y11580*X14089Y10952*X14244Y10795*X14559Y10795*D107*X44069Y54699D2*X33909Y54699D1*X44066Y54699D2*X44552Y54475D1*X45024Y54232*X45486Y53965*X45933Y53675*X46368Y53365*X46784Y53033*X47186Y52682*X47569Y52314*X47935Y51925*X48280Y51519*X48608Y51100*X48913Y50663*X49197Y50211*X49459Y49748*X49698Y49271*X49914Y48786*X50107Y48288*X50274Y47782*X50419Y47269*X50538Y46749*X50632Y46225*X50698Y45697*X50742Y45166*X50759Y44633*X50749Y44099*X50716Y43569*X50655Y43040*X50569Y42512*X50460Y41991*X50322Y41476*X50162Y40968*X49977Y40470*X49769Y39980*X49538Y39500*X49281Y39032*X49004Y38578*X48704Y38136*X48384Y37709*X48047Y37300*X47686Y36906*X47308Y36530*X46911Y36172*X46500Y35837*X46071Y35519*X45629Y35222*X45171Y34948*X44701Y34696*X44704Y34696D2*X34544Y34696D1*X35004Y35060*X35448Y35443*X35872Y35850*X36276Y36274*X36657Y36718*X37020Y37178*X37358Y37658*X37673Y38151*X37965Y38659*X38232Y39182*X38473Y39715*X38689Y40262*X38877Y40815*X39040Y41379*X39174Y41951*X39281Y42527*X39362Y43106*X39413Y43691*X39436Y44277*X39434Y44864*X39400Y45448*X39340Y46032*X39251Y46612*X39134Y47186*X38992Y47755*X38819Y48313*X38623Y48867*X38397Y49408*X38148Y49939*X37874Y50457*X37574Y50960*X37252Y51450*X36906Y51923*X36538Y52380*X36147Y52817*X35738Y53236*X35306Y53635*X34859Y54011*X34392Y54366*X33909Y54699*X9144Y63906D2*X9144Y80416D1*X20256Y80416*X20254Y80416D2*X20648Y80221D1*X21034Y80005*X21405Y79774*X21768Y79522*X22116Y79256*X22451Y78971*X22774Y78671*X23081Y78356*X23371Y78029*X23645Y77686*X23904Y77330*X24145Y76962*X24366Y76581*X24572Y76192*X24755Y75794*X24922Y75387*X25067Y74973*X25192Y74552*X25298Y74125*X25382Y73693*X25446Y73259*X25489Y72819*X25509Y72382*X25509Y71940*X25489Y71504*X25446Y71064*X25382Y70630*X25298Y70198*X25192Y69771*X25067Y69350*X24922Y68936*X24755Y68529*X24572Y68130*X24366Y67742*X24145Y67361*X23904Y66992*X23645Y66637*X23371Y66294*X23081Y65966*X22774Y65651*X22451Y65352*X22116Y65067*X21768Y64800*X21405Y64549*X21034Y64318*X20648Y64102*X20254Y63906*X9144Y63906D2*X20256Y63906D1*X9144Y45809D2*X9144Y62319D1*X20256Y62319*X20254Y62319D2*X20648Y62123D1*X21034Y61907*X21405Y61676*X21768Y61425*X22116Y61158*X22451Y60874*X22774Y60574*X23081Y60259*X23371Y59931*X23645Y59588*X23904Y59233*X24145Y58864*X24366Y58484*X24572Y58095*X24755Y57696*X24922Y57290*X25067Y56876*X25192Y56454*X25298Y56027*X25382Y55596*X25446Y55161*X25489Y54722*X25509Y54285*X25509Y53843*X25489Y53406*X25446Y52967*X25382Y52532*X25298Y52100*X25192Y51674*X25067Y51252*X24922Y50838*X24755Y50432*X24572Y50033*X24366Y49644*X24145Y49263*X23904Y48895*X23645Y48539*X23371Y48196*X23081Y47869*X22774Y47554*X22451Y47254*X22116Y46970*X21768Y46703*X21405Y46452*X21034Y46220*X20648Y46004*X20254Y45809*X9144Y45809D2*X20256Y45809D1*X9144Y27711D2*X9144Y44221D1*X20256Y44221*X20254Y44221D2*X20648Y44026D1*X21034Y43810*X21405Y43579*X21768Y43327*X22116Y43061*X22451Y42776*X22774Y42476*X23081Y42161*X23371Y41834*X23645Y41491*X23904Y41135*X24145Y40767*X24366Y40386*X24572Y39997*X24755Y39599*X24922Y39192*X25067Y38778*X25192Y38357*X25298Y37930*X25382Y37498*X25446Y37064*X25489Y36624*X25509Y36187*X25509Y35745*X25489Y35309*X25446Y34869*X25382Y34435*X25298Y34003*X25192Y33576*X25067Y33155*X24922Y32741*X24755Y32334*X24572Y31935*X24366Y31547*X24145Y31166*X23904Y30798*X23645Y30442*X23371Y30099*X23081Y29771*X22774Y29456*X22451Y29157*X22116Y28872*X21768Y28605*X21405Y28354*X21034Y28123*X20648Y27907*X20254Y27711*X9144Y27711D2*X20256Y27711D1*X9144Y9614D2*X9144Y26124D1*X20256Y26124*X20254Y26124D2*X20648Y25928D1*X21034Y25712*X21405Y25481*X21768Y25230*X22116Y24963*X22451Y24679*X22774Y24379*X23081Y24064*X23371Y23736*X23645Y23393*X23904Y23038*X24145Y22670*X24366Y22288*X24572Y21900*X24755Y21501*X24922Y21095*X25067Y20681*X25192Y20259*X25298Y19832*X25382Y19401*X25446Y18966*X25489Y18527*X25509Y18090*X25509Y17648*X25489Y17211*X25446Y16772*X25382Y16337*X25298Y15905*X25192Y15479*X25067Y15057*X24922Y14643*X24755Y14237*X24572Y13838*X24366Y13449*X24145Y13068*X23904Y12700*X23645Y12344*X23371Y12002*X23081Y11674*X22774Y11359*X22451Y11059*X22116Y10775*X21768Y10508*X21405Y10257*X21034Y10025*X20648Y9809*X20254Y9614*X9144Y9614D2*X20256Y9614D1*D108*X39781Y82565D2*X39781Y81481D1*X39240Y80937*X38697Y81481*X38697Y82565*X38146Y82293D2*X37874Y82565D1*X37333Y82565*X37061Y82293*X37061Y81209*X37333Y80937D2*X37874Y80937D1*X38146Y81209*X38146Y82293*X37061Y81209*X37333Y80937*X33909Y39078D2*X33795Y39073D1*X33678Y39060*X33566Y39040*X33454Y39009*X33345Y38969*X33238Y38923*X33137Y38867*X33040Y38806*X32949Y38738*X32860Y38661*X32781Y38578*X32705Y38489*X33909Y36030D2*X33790Y36035D1*X33668Y36050*X33551Y36073*X33434Y36106*X33322Y36147*X33210Y36200*X33106Y36258*X33007Y36325*X32913Y36401*X32824Y36485*X32743Y36573*X32669Y36667*X33909Y39078D2*X34023Y39073D1*X34140Y39060*X34252Y39040*X34364Y39009*X34473Y38969*X34580Y38923*X34681Y38867*X34778Y38806*X34869Y38738*X34958Y38661*X35037Y38578*X35113Y38489*X33909Y36030D2*X34026Y36035D1*X34143Y36048*X34260Y36071*X34374Y36101*X34483Y36142*X34590Y36190*X34694Y36248*X34793Y36312*X34884Y36383*X34973Y36462*X35055Y36548*X35128Y36640*X33909Y43840D2*X33795Y43835D1*X33678Y43823*X33566Y43802*X33454Y43772*X33345Y43731*X33238Y43685*X33137Y43630*X33040Y43569*X32949Y43500*X32860Y43424*X32781Y43340*X32705Y43251*X33909Y40792D2*X33790Y40797D1*X33668Y40813*X33551Y40836*X33434Y40869*X33322Y40909*X33210Y40963*X33106Y41021*X33007Y41087*X32913Y41163*X32824Y41247*X32743Y41336*X32669Y41430*X33909Y43840D2*X34023Y43835D1*X34140Y43823*X34252Y43802*X34364Y43772*X34473Y43731*X34580Y43685*X34681Y43630*X34778Y43569*X34869Y43500*X34958Y43424*X35037Y43340*X35113Y43251*X33909Y40792D2*X34026Y40797D1*X34143Y40810*X34260Y40833*X34374Y40864*X34483Y40904*X34590Y40952*X34694Y41011*X34793Y41074*X34884Y41145*X34973Y41224*X35055Y41311*X35128Y41402*X32705Y48014D2*X32781Y48103D1*X32860Y48186*X32949Y48263*X33040Y48331*X33137Y48392*X33238Y48448*X33345Y48494*X33454Y48534*X33566Y48565*X33678Y48585*X33795Y48598*X33909Y48603*X35128Y46164D2*X35055Y46073D1*X34973Y45987*X34884Y45908*X34793Y45837*X34694Y45773*X34590Y45715*X34483Y45667*X34374Y45626*X34260Y45596*X34143Y45573*X34026Y45560*X33909Y45555*X32669Y46192D2*X32743Y46098D1*X32824Y46010*X32913Y45926*X33007Y45850*X33106Y45784*X33210Y45725*X33322Y45672*X33434Y45631*X33551Y45598*X33668Y45575*X33790Y45560*X33909Y45555*X35113Y48014D2*X35037Y48103D1*X34958Y48186*X34869Y48263*X34778Y48331*X34681Y48392*X34580Y48448*X34473Y48494*X34364Y48534*X34252Y48565*X34140Y48585*X34023Y48598*X33909Y48603*X26624Y53177D2*X26535Y53254D1*X26452Y53332*X26375Y53421*X26307Y53513*X26246Y53609*X26190Y53711*X26144Y53818*X26104Y53927*X26073Y54038*X26053Y54150*X26040Y54267*X26035Y54381*X28473Y55601D2*X28565Y55527D1*X28651Y55446*X28730Y55357*X28801Y55265*X28865Y55166*X28923Y55062*X28971Y54955*X29012Y54846*X29042Y54732*X29065Y54615*X29078Y54498*X29083Y54381*X28445Y53142D2*X28539Y53216D1*X28628Y53297*X28712Y53386*X28788Y53480*X28854Y53579*X28913Y53683*X28966Y53795*X29007Y53906*X29040Y54023*X29063Y54140*X29078Y54262*X29083Y54381*X26624Y55585D2*X26535Y55509D1*X26452Y55430*X26375Y55342*X26307Y55250*X26246Y55154*X26190Y55052*X26144Y54945*X26104Y54836*X26073Y54724*X26053Y54613*X26040Y54496*X26035Y54381*X5987Y48097D2*X5898Y48174D1*X5814Y48252*X5738Y48341*X5669Y48433*X5608Y48529*X5552Y48631*X5507Y48738*X5466Y48847*X5436Y48958*X5415Y49070*X5403Y49187*X5398Y49301*X7836Y50521D2*X7927Y50447D1*X8014Y50366*X8092Y50277*X8164Y50185*X8227Y50086*X8285Y49982*X8334Y49875*X8374Y49766*X8405Y49652*X8428Y49535*X8440Y49418*X8446Y49301*X7808Y48062D2*X7902Y48136D1*X7991Y48217*X8075Y48306*X8151Y48400*X8217Y48499*X8275Y48603*X8329Y48715*X8369Y48826*X8402Y48943*X8425Y49060*X8440Y49182*X8446Y49301*X5987Y50505D2*X5898Y50429D1*X5814Y50350*X5738Y50262*X5669Y50170*X5608Y50074*X5552Y49972*X5507Y49865*X5466Y49756*X5436Y49644*X5415Y49533*X5403Y49416*X5398Y49301*X6007Y39510D2*X5916Y39583D1*X5829Y39665*X5751Y39754*X5679Y39845*X5616Y39944*X5558Y40048*X5509Y40155*X5469Y40264*X5438Y40378*X5415Y40495*X5403Y40612*X5398Y40729*X7856Y41933D2*X7945Y41857D1*X8029Y41778*X8105Y41689*X8174Y41598*X8235Y41501*X8291Y41399*X8336Y41293*X8377Y41184*X8407Y41072*X8428Y40960*X8440Y40843*X8446Y40729*X7856Y39525D2*X7945Y39601D1*X8029Y39680*X8105Y39769*X8174Y39860*X8235Y39957*X8291Y40058*X8336Y40165*X8377Y40274*X8407Y40386*X8428Y40498*X8440Y40615*X8446Y40729*X6035Y41968D2*X5941Y41895D1*X5852Y41813*X5768Y41725*X5692Y41631*X5626Y41532*X5568Y41427*X5514Y41316*X5474Y41204*X5441Y41087*X5418Y40970*X5403Y40848*X5398Y40729*X5987Y30000D2*X5898Y30076D1*X5814Y30155*X5738Y30244*X5669Y30335*X5608Y30432*X5552Y30533*X5507Y30640*X5466Y30749*X5436Y30861*X5415Y30973*X5403Y31090*X5398Y31204*X7836Y32423D2*X7927Y32349D1*X8014Y32268*X8092Y32179*X8164Y32088*X8227Y31989*X8285Y31885*X8334Y31778*X8374Y31669*X8405Y31554*X8428Y31438*X8440Y31321*X8446Y31204*X7808Y29964D2*X7902Y30038D1*X7991Y30119*X8075Y30208*X8151Y30302*X8217Y30401*X8275Y30505*X8329Y30617*X8369Y30729*X8402Y30846*X8425Y30963*X8440Y31085*X8446Y31204*X5987Y32408D2*X5898Y32332D1*X5814Y32253*X5738Y32164*X5669Y32073*X5608Y31976*X5552Y31874*X5507Y31768*X5466Y31659*X5436Y31547*X5415Y31435*X5403Y31318*X5398Y31204*X6007Y21412D2*X5916Y21486D1*X5829Y21567*X5751Y21656*X5679Y21747*X5616Y21847*X5558Y21951*X5509Y22057*X5469Y22167*X5438Y22281*X5415Y22398*X5403Y22515*X5398Y22631*X7856Y23835D2*X7945Y23759D1*X8029Y23680*X8105Y23592*X8174Y23500*X8235Y23404*X8291Y23302*X8336Y23195*X8377Y23086*X8407Y22974*X8428Y22863*X8440Y22746*X8446Y22631*X7856Y21427D2*X7945Y21504D1*X8029Y21582*X8105Y21671*X8174Y21763*X8235Y21859*X8291Y21961*X8336Y22068*X8377Y22177*X8407Y22288*X8428Y22400*X8440Y22517*X8446Y22631*X6035Y23871D2*X5941Y23797D1*X5852Y23716*X5768Y23627*X5692Y23533*X5626Y23434*X5568Y23330*X5514Y23218*X5474Y23106*X5441Y22990*X5418Y22873*X5403Y22751*X5398Y22631*X5987Y11902D2*X5898Y11979D1*X5814Y12057*X5738Y12146*X5669Y12238*X5608Y12334*X5552Y12436*X5507Y12543*X5466Y12652*X5436Y12764*X5415Y12875*X5403Y12992*X5398Y13106*X7836Y14326D2*X7927Y14252D1*X8014Y14171*X8092Y14082*X8164Y13990*X8227Y13891*X8285Y13787*X8334Y13680*X8374Y13571*X8405Y13457*X8428Y13340*X8440Y13223*X8446Y13106*X7808Y11867D2*X7902Y11941D1*X7991Y12022*X8075Y12111*X8151Y12205*X8217Y12304*X8275Y12408*X8329Y12520*X8369Y12631*X8402Y12748*X8425Y12865*X8440Y12987*X8446Y13106*X5987Y14310D2*X5898Y14234D1*X5814Y14155*X5738Y14067*X5669Y13975*X5608Y13879*X5552Y13777*X5507Y13670*X5466Y13561*X5436Y13449*X5415Y13338*X5403Y13221*X5398Y13106*X15113Y10312D2*X11430Y10312D1*X11430Y12090D2*X15113Y12090D1*X15113Y16027D2*X11430Y16027D1*X11430Y17805D2*X15113Y17805D1*X15113Y17932D2*X11430Y17932D1*X11430Y19710D2*X15113Y19710D1*X15113Y23647D2*X11430Y23647D1*X11430Y25425D2*X15113Y25425D1*X15113Y28410D2*X11430Y28410D1*X11430Y30188D2*X15113Y30188D1*X15113Y34125D2*X11430Y34125D1*X11430Y35903D2*X15113Y35903D1*X15113Y36030D2*X11430Y36030D1*X11430Y37808D2*X15113Y37808D1*X15113Y41745D2*X11430Y41745D1*X11430Y43523D2*X15113Y43523D1*X15113Y46507D2*X11430Y46507D1*X11430Y48285D2*X15113Y48285D1*X15113Y52222D2*X11430Y52222D1*X11430Y54000D2*X15113Y54000D1*X15113Y54127D2*X11430Y54127D1*X11430Y55905D2*X15113Y55905D1*X7856Y60030D2*X7945Y59954D1*X8029Y59875*X8105Y59787*X8174Y59695*X8235Y59599*X8291Y59497*X8336Y59390*X8377Y59281*X8407Y59169*X8428Y59058*X8440Y58941*X8446Y58826*X6007Y57607D2*X5916Y57681D1*X5829Y57762*X5751Y57851*X5679Y57942*X5616Y58042*X5558Y58146*X5509Y58252*X5469Y58362*X5438Y58476*X5415Y58593*X5403Y58710*X5398Y58826*X6035Y60066D2*X5941Y59992D1*X5852Y59911*X5768Y59822*X5692Y59728*X5626Y59629*X5568Y59525*X5514Y59413*X5474Y59301*X5441Y59185*X5418Y59068*X5403Y58946*X5398Y58826*X7856Y57622D2*X7945Y57699D1*X8029Y57777*X8105Y57866*X8174Y57958*X8235Y58054*X8291Y58156*X8336Y58263*X8377Y58372*X8407Y58484*X8428Y58595*X8440Y58712*X8446Y58826*X7836Y68618D2*X7927Y68544D1*X8014Y68463*X8092Y68374*X8164Y68283*X8227Y68184*X8285Y68080*X8334Y67973*X8374Y67864*X8405Y67749*X8428Y67633*X8440Y67516*X8446Y67399*X5987Y66195D2*X5898Y66271D1*X5814Y66350*X5738Y66439*X5669Y66530*X5608Y66627*X5552Y66728*X5507Y66835*X5466Y66944*X5436Y67056*X5415Y67168*X5403Y67285*X5398Y67399*X5987Y68603D2*X5898Y68527D1*X5814Y68448*X5738Y68359*X5669Y68268*X5608Y68171*X5552Y68069*X5507Y67963*X5466Y67854*X5436Y67742*X5415Y67630*X5403Y67513*X5398Y67399*X7808Y66159D2*X7902Y66233D1*X7991Y66314*X8075Y66403*X8151Y66497*X8217Y66596*X8275Y66700*X8329Y66812*X8369Y66924*X8402Y67041*X8425Y67158*X8440Y67280*X8446Y67399*X7856Y78128D2*X7945Y78052D1*X8029Y77973*X8105Y77884*X8174Y77793*X8235Y77696*X8291Y77594*X8336Y77488*X8377Y77379*X8407Y77267*X8428Y77155*X8440Y77038*X8446Y76924*X6007Y75705D2*X5916Y75778D1*X5829Y75860*X5751Y75949*X5679Y76040*X5616Y76139*X5558Y76243*X5509Y76350*X5469Y76459*X5438Y76573*X5415Y76690*X5403Y76807*X5398Y76924*X6035Y78163D2*X5941Y78090D1*X5852Y78008*X5768Y77920*X5692Y77826*X5626Y77727*X5568Y77622*X5514Y77511*X5474Y77399*X5441Y77282*X5418Y77165*X5403Y77043*X5398Y76924*X7856Y75720D2*X7945Y75796D1*X8029Y75875*X8105Y75964*X8174Y76055*X8235Y76152*X8291Y76253*X8336Y76360*X8377Y76469*X8407Y76581*X8428Y76693*X8440Y76810*X8446Y76924*X11430Y79718D2*X15113Y79718D1*X15113Y77940D2*X11430Y77940D1*X21146Y76225D2*X17462Y76225D1*X28473Y73698D2*X28565Y73624D1*X28651Y73543*X28730Y73454*X28801Y73363*X28865Y73264*X28923Y73160*X28971Y73053*X29012Y72944*X29042Y72829*X29065Y72713*X29078Y72596*X29083Y72479*X26624Y71275D2*X26535Y71351D1*X26452Y71430*X26375Y71519*X26307Y71610*X26246Y71707*X26190Y71808*X26144Y71915*X26104Y72024*X26073Y72136*X26053Y72248*X26040Y72365*X26035Y72479*X26624Y73683D2*X26535Y73607D1*X26452Y73528*X26375Y73439*X26307Y73348*X26246Y73251*X26190Y73149*X26144Y73043*X26104Y72934*X26073Y72822*X26053Y72710*X26040Y72593*X26035Y72479*X28445Y71239D2*X28539Y71313D1*X28628Y71394*X28712Y71483*X28788Y71577*X28854Y71676*X28913Y71780*X28966Y71892*X29007Y72004*X29040Y72121*X29063Y72238*X29078Y72360*X29083Y72479*X30256Y82565D2*X30256Y81481D1*X29715Y80937*X29172Y81481*X29172Y82565*X28621Y82565D2*X27536Y82565D1*X27536Y81750*X27536Y81209D2*X27808Y80937D1*X28349Y80937*X28621Y81209*X28621Y81750*X28349Y82022*X28077Y82022*X27536Y81750*X26982Y81750D2*X25898Y81750D1*X26441Y81209D2*X26441Y82293D1*X31750Y79972D2*X25908Y79972D1*X25908Y77686D2*X31750Y77686D1*X24320Y70320D2*X24320Y74003D1*X22542Y74003D2*X22542Y70320D1*X17462Y74447D2*X21146Y74447D1*X11430Y74003D2*X15113Y74003D1*X15113Y72225D2*X11430Y72225D1*X11430Y72098D2*X15113Y72098D1*X15113Y70320D2*X11430Y70320D1*X21146Y69875D2*X17462Y69875D1*X17462Y68097D2*X21146Y68097D1*X11430Y66383D2*X15113Y66383D1*X15113Y64605D2*X11430Y64605D1*X11430Y61620D2*X15113Y61620D1*X15113Y59842D2*X11430Y59842D1*X17462Y58128D2*X21146Y58128D1*X21146Y56350D2*X17462Y56350D1*X17462Y50000D2*X21146Y50000D1*X21146Y51778D2*X17462Y51778D1*X22542Y56223D2*X22542Y52540D1*X24320Y52540D2*X24320Y56223D1*X29083Y47968D2*X25400Y47968D1*X25400Y46190D2*X29083Y46190D1*X28766Y43840D2*X25082Y43840D1*X25082Y42062D2*X28766Y42062D1*X26307Y34762D2*X26218Y34839D1*X26134Y34917*X26058Y35006*X25989Y35098*X25928Y35194*X25872Y35296*X25827Y35403*X25786Y35512*X25756Y35624*X25735Y35735*X25723Y35852*X25718Y35966*X28156Y37186D2*X28247Y37112D1*X28334Y37031*X28412Y36942*X28484Y36850*X28547Y36751*X28605Y36647*X28654Y36540*X28694Y36431*X28725Y36317*X28748Y36200*X28760Y36083*X28766Y35966*X28128Y34727D2*X28222Y34801D1*X28311Y34882*X28395Y34971*X28471Y35065*X28537Y35164*X28595Y35268*X28649Y35380*X28689Y35491*X28722Y35608*X28745Y35725*X28760Y35847*X28766Y35966*X26307Y37170D2*X26218Y37094D1*X26134Y37015*X26058Y36927*X25989Y36835*X25928Y36739*X25872Y36637*X25827Y36530*X25786Y36421*X25756Y36309*X25735Y36198*X25723Y36081*X25718Y35966*X24320Y37808D2*X24320Y34125D1*X17462Y40030D2*X21146Y40030D1*X21146Y38252D2*X17462Y38252D1*X22542Y34125D2*X22542Y37808D1*X17462Y33680D2*X21146Y33680D1*X21146Y31902D2*X17462Y31902D1*X28766Y25743D2*X25082Y25743D1*X25082Y23965D2*X28766Y23965D1*X17462Y21933D2*X21146Y21933D1*X21146Y20155D2*X17462Y20155D1*X17780Y13805D2*X21463Y13805D1*X21463Y15583D2*X17780Y15583D1*X22542Y20028D2*X22542Y16345D1*X24320Y16345D2*X24320Y20028D1*X26307Y16665D2*X26218Y16741D1*X26134Y16820*X26058Y16909*X25989Y17000*X25928Y17097*X25872Y17198*X25827Y17305*X25786Y17414*X25756Y17526*X25735Y17638*X25723Y17755*X25718Y17869*X28156Y19088D2*X28247Y19014D1*X28334Y18933*X28412Y18844*X28484Y18753*X28547Y18654*X28605Y18550*X28654Y18443*X28694Y18334*X28725Y18219*X28748Y18103*X28760Y17986*X28766Y17869*X28128Y16629D2*X28222Y16703D1*X28311Y16784*X28395Y16873*X28471Y16967*X28537Y17066*X28595Y17170*X28649Y17282*X28689Y17394*X28722Y17511*X28745Y17628*X28760Y17750*X28766Y17869*X26307Y19073D2*X26218Y18997D1*X26134Y18918*X26058Y18829*X25989Y18738*X25928Y18641*X25872Y18539*X25827Y18433*X25786Y18324*X25756Y18212*X25735Y18100*X25723Y17983*X25718Y17869*X27496Y12344D2*X33338Y12344D1*X33338Y10058D2*X27496Y10058D1*X33894Y6833D2*X33350Y7376D1*X33350Y7917*X33894Y8461*X34442Y7917D2*X34983Y8461D1*X34983Y6833*X35527Y6833D2*X34442Y6833D1*X36078Y6833D2*X36622Y7376D1*X36622Y7917*X36078Y8461*X43688Y29743D2*X49530Y29743D1*X49530Y32029D2*X43688Y32029D1*X51118Y44856D2*X51123Y44976D1*X51138Y45098*X51161Y45215*X51194Y45331*X51234Y45443*X51288Y45555*X51346Y45659*X51412Y45758*X51488Y45852*X51572Y45941*X51661Y46022*X51755Y46096*X54166Y44856D2*X54160Y44971D1*X54148Y45088*X54127Y45199*X54097Y45311*X54056Y45420*X54011Y45527*X53955Y45629*X53894Y45725*X53825Y45817*X53749Y45905*X53665Y45984*X53576Y46060*X51118Y44856D2*X51123Y44740D1*X51135Y44623*X51158Y44506*X51189Y44392*X51229Y44282*X51278Y44176*X51336Y44072*X51399Y43972*X51471Y43881*X51549Y43792*X51636Y43711*X51727Y43637*X54166Y44856D2*X54160Y44742D1*X54148Y44625*X54127Y44514*X54097Y44402*X54056Y44293*X54011Y44186*X53955Y44084*X53894Y43988*X53825Y43896*X53749Y43807*X53665Y43729*X53576Y43652*X49720Y42380D2*X49720Y46063D1*X47942Y46063D2*X47942Y42380D1*X47816Y47460D2*X44132Y47460D1*X44132Y49238D2*X47816Y49238D1*X41783Y45237D2*X41783Y48920D1*X45276Y42062D2*X41592Y42062D1*X41592Y43840D2*X45276Y43840D1*X40005Y48920D2*X40005Y45237D1*X37656Y61303D2*X37656Y57620D1*X35878Y57620D2*X35878Y61303D1*X33909Y53048D2*X33795Y53043D1*X33678Y53030*X33566Y53010*X33454Y52979*X33345Y52939*X33238Y52893*X33137Y52837*X33040Y52776*X32949Y52708*X32860Y52631*X32781Y52548*X32705Y52459*X33909Y50000D2*X33790Y50005D1*X33668Y50020*X33551Y50043*X33434Y50076*X33322Y50117*X33210Y50170*X33106Y50228*X33007Y50295*X32913Y50371*X32824Y50455*X32743Y50543*X32669Y50637*X33909Y53048D2*X34023Y53043D1*X34140Y53030*X34252Y53010*X34364Y52979*X34473Y52939*X34580Y52893*X34681Y52837*X34778Y52776*X34869Y52708*X34958Y52631*X35037Y52548*X35113Y52459*X33909Y50000D2*X34026Y50005D1*X34143Y50018*X34260Y50041*X34374Y50071*X34483Y50112*X34590Y50160*X34694Y50218*X34793Y50282*X34884Y50353*X34973Y50432*X35055Y50518*X35128Y50610*D109*X17330Y8100D2*X18110Y8880D1*X18890Y8100*X29804Y7320D2*X30584Y6540D1*X29025Y8880D2*X30193Y8880D1*X30584Y8491*X30584Y7711*X30193Y7320*X29025Y7320*X29025Y8880D2*X29025Y6540D1*X26685Y8491D2*X27076Y8880D1*X27856Y8880*X28245Y8491*X28245Y6932*X27856Y6540*X27076Y6540*X26685Y6932*X26685Y8491*X24348Y6540D2*X25905Y8880D1*X22009Y8880D2*X22009Y6540D1*X23178Y6540*X23569Y6932*X23569Y8491*X23178Y8880*X22009Y8880*X21229Y8880D2*X21229Y6540D1*X19670Y8880*X19670Y6540*X18890Y8100D2*X18890Y6540D1*X17330Y7711D2*X18890Y7711D1*X17330Y8100D2*X17330Y6540D1*X11874Y6540D2*X10315Y8100D1*X14211Y6540D2*X12654Y6540D1*X14211Y8100*X14211Y8491*X13823Y8880*X13043Y8880*X12654Y8491*X10315Y6540D2*X11874Y8100D1*X9144Y6540D2*X9144Y8880D1*X7976Y7711*X9535Y7711*X0Y0D2*M02*