G04 Output by ViewMate Deluxe V11.0.9  PentaLogix LLC*
G04 Sun Jun 14 09:42:27 2015*
%FSLAX33Y33*%
%MOMM*%
%IPPOS*%
%ADD10R,1.651X1.651*%
%ADD11C,1.651*%
%ADD12C,1.3208*%
%ADD13C,1.3081*%
%ADD14R,3.81X3.81*%
%ADD15C,0.4064*%
%ADD109C,0.6096*%
%ADD110C,1.016*%

%LPD*%
X0Y0D2*D15*G1X65659Y72644D2*X66929Y71374D1*X48514Y86614D2*X49784Y87884D1*X22479Y73279D2*X22479Y78994D1*X23114Y79629*X48514Y79629*X40259Y65659D2*X40894Y65659D1*X37719Y73279D2*X37719Y76454D1*X38354Y77089*X53594Y77089*X52324Y78359D2*X51689Y77724D1*X51689Y79629D2*X50419Y78359D1*X28194Y78359*X27559Y77724*X27559Y73279*X32639Y73279D2*X32639Y77089D1*X33274Y77724*X51689Y77724*X47879Y73279D2*X49149Y74549D1*X57404Y74549*X58674Y72009D2*X54229Y72009D1*X52959Y73279*X55499Y70739D2*X56134Y70104D1*X65659Y70104*X65659Y57404D2*X61849Y57404D1*X61214Y56769*X46609Y56769*X45339Y58039*X47879Y63119D2*X62484Y63119D1*X64389Y65024*X65659Y65024*X65659Y67564D2*X64389Y67564D1*X61214Y64389*X42799Y64389*X45339Y65659D2*X44704Y65659D1*X47879Y68199D2*X49149Y69469D1*X57404Y69469*X58039Y68834*X66929Y68834*X68199Y67564*X68199Y65024D2*X66929Y66294D1*X64389Y66294*X61849Y63754*X47244Y63754*X46609Y63119*X38354Y63119*X37719Y63754*X32639Y63119D2*X33274Y62484D1*X47244Y62484*X47879Y63119*X49149Y61849D2*X63754Y61849D1*X64389Y62484*X65659Y62484*X68199Y62484D2*X66929Y63754D1*X64389Y63754*X63119Y62484*X48514Y62484*X47879Y61849*X28194Y61849*X27559Y62484*X30099Y58039D2*X30099Y55499D1*X30734Y54864*X55499Y54864*X58039Y52324*X65659Y52324*X66929Y56134D2*X68199Y54864D1*X65659Y54864D2*X57404Y54864D1*X56769Y55499*X35814Y55499*X35179Y56134*X35179Y58039*X40259Y58039D2*X40259Y56769D1*X40894Y56134*X66929Y56134*X66929Y58674D2*X68199Y57404D1*X68199Y59944D2*X69469Y59944D1*X70739Y58674*X70739Y56134*X72644Y54229*X81534Y54229*X82804Y52959*X79629Y49149D2*X79629Y49784D1*X66929Y30734D2*X68199Y29464D1*X66929Y35814D2*X68199Y34544D1*X65659Y39624D2*X66929Y38354D1*X47879Y28829D2*X49149Y27559D1*X53594Y27559*X55499Y29464*X65659Y29464*X66929Y23749D2*X65659Y25019D1*X65659Y26924*X68199Y26924D2*X68834Y26924D1*X69469Y26289*X79629Y26289*X84709Y26289D2*X84709Y24384D1*X84074Y23749*X66929Y23749*X59944Y14224D2*X61214Y15494D1*X48514Y15494D2*X51054Y12954D1*X48514Y12954D2*X47244Y14224D1*X47244Y16764*X48514Y18034*X88519Y18034*X89154Y18669*X87249Y14224D2*X85979Y12954D1*X61214Y12954*X59944Y14224D2*X59944Y11049D1*X58674Y15494D2*X58674Y16129D1*X59944Y17399*X80899Y17399*X82169Y16129*X77089Y19304D2*X76454Y18669D1*X47244Y18669*X45974Y17399*X45974Y15494*X42164Y14224D2*X43434Y12954D1*X38989Y19304D2*X39624Y18669D1*X41529Y18669*X42164Y18034*X42164Y14224*X39624Y14224D2*X40894Y12954D1*X40894Y15494D2*X40894Y17399D1*X40259Y18034*X34544Y18034*X33909Y18669*X28829Y17399D2*X38989Y17399D1*X39624Y16764*X39624Y14224*X23749Y15494D2*X38354Y15494D1*X22479Y21209D2*X27559Y21209D1*X32639Y21209*X37719Y21209*X42799Y21209*X47879Y21209*X52324Y22479D2*X51689Y23114D1*X54864Y23749D2*X54229Y24384D1*X56134Y24384D2*X55499Y25019D1*X45974Y25019*X45339Y25654*X45339Y28829*X42799Y28829D2*X44069Y30099D1*X60579Y30099*X61214Y30734*X66929Y30734*X66929Y33274D2*X68199Y32004D1*X65659Y32004D2*X61214Y32004D1*X59944Y30734*X39624Y30734*X37719Y28829*X40259Y28829D2*X40259Y25019D1*X40894Y24384*X54229Y24384*X53594Y23114D2*X52959Y23749D1*X35814Y23749*X35179Y24384*X35179Y28829*X32639Y28829D2*X32639Y30099D1*X33909Y31369*X59309Y31369*X61214Y33274*X66929Y33274*X65659Y34544D2*X61214Y34544D1*X58674Y32004*X30734Y32004*X27559Y28829*X30099Y28829D2*X30099Y23749D1*X30734Y23114*X51689Y23114*X51054Y21844D2*X50419Y22479D1*X25654Y22479*X25019Y23114*X25019Y28829*X25019Y33909D2*X26289Y32639D1*X58039Y32639*X61214Y35814*X66929Y35814*X68199Y37084D2*X73279Y37084D1*X73914Y37719*X84074Y37719*X84709Y38354*X84709Y41529*X90424Y36449D2*X84709Y36449D1*X79629Y36449*X79629Y41529D2*X79629Y39624D1*X78359Y38354*X66929Y38354*X66929Y40894D2*X68199Y39624D1*X65659Y42164D2*X62484Y42164D1*X59309Y45339*X43434Y45339*X42799Y44069D2*X42799Y44704D1*X43434Y45339*X47879Y44069D2*X49149Y42799D1*X60579Y42799*X62484Y40894*X66929Y40894*X66929Y43434D2*X68199Y42164D1*X65659Y44704D2*X62484Y44704D1*X60579Y46609*X33274Y46609*X32639Y44069D2*X32639Y45974D1*X33274Y46609*X37719Y44069D2*X37719Y45339D1*X38354Y45974*X59944Y45974*X62484Y43434*X66929Y43434*X68199Y44704D2*X66929Y45974D1*X62484Y45974*X61214Y47244*X28829Y47244*X27559Y45974*X27559Y44069*X22479Y44069D2*X22479Y45974D1*X24384Y47879*X63754Y47879*X64389Y47244*X65659Y47244*X65659Y49784D2*X59309Y49784D1*X54864Y54229*X26289Y54229*X25019Y55499*X25019Y58039*X22479Y59944D2*X23114Y59309D1*X46609Y59309*X49149Y61849*X50419Y58039D2*X51054Y58674D1*X66929Y58674*X65659Y59944D2*X66929Y61214D1*X79629Y61214*X80264Y60579*X77724Y68199D2*X70739Y68199D1*X68834Y70104*X68199Y70104*X70739Y72644D2*X72644Y70739D1*X86614Y70739*X87884Y68199D2*X87884Y69469D1*X86614Y70739*X82804Y68199D2*X80899Y70104D1*X71374Y70104*X70104Y71374*X66929Y71374*X70739Y72644D2*X68199Y72644D1*X75819Y91059D2*X50419Y91059D1*X49784Y90424*X49784Y87884*X48514Y89154D2*X48514Y91694D1*X49149Y92329*X81534Y92329*X87884Y88519D2*X87249Y89154D1*X61214Y89154*X82804Y86614D2*X61214Y86614D1*X77724Y83439D2*X61214Y83439D1*X59944Y84709*X59944Y87884*X58674Y89154*X56134Y86614D2*X56134Y84709D1*X55499Y84074*X44704Y84074*X42799Y82169*D109*X40894Y89154D2*X38354Y89154D1*X38354Y95504*X36449Y102489D2*X36449Y95504D1*X25019Y102489D2*X30734Y102489D1*X36449Y102489*X45339Y102489*X50419Y102489D2*X59309Y102489D1*X65024Y102489*X70739Y102489*X90424Y80899D2*X85344Y80899D1*X80264Y80899*X84709Y35179D2*X80899Y35179D1*X79629Y33909*X47879Y33909D2*X47879Y35179D1*X22479Y35179D2*X22479Y33909D1*X14859Y51054D2*X14859Y35179D1*X22479Y51054D2*X22479Y49149D1*X25019Y68199D2*X25019Y66929D1*X19939Y80899D2*X25019Y80899D1*X30099Y80899*X35179Y80899*X40259Y80899*X45339Y80899*X50419Y80899*X55499Y80899*X80264Y80899*X80264Y68199D2*X80264Y66929D1*X85344Y66929*X90424Y68199D2*X90424Y66929D1*X94869Y66929D2*X90424Y66929D1*X90424Y65024D2*X90424Y66929D1*X85344Y66929*X85344Y68199*X80264Y65659D2*X85344Y65659D1*X80264Y52959D2*X80264Y51054D1*X85344Y52959D2*X85344Y51054D1*X94869Y51054D2*X85344Y51054D1*X84709Y51054*X84709Y49149D2*X84709Y51054D1*X80264Y51054*X79629Y50419*X79629Y49784*X68199Y49784*X65659Y37084D2*X58674Y37084D1*X56769Y35179*X47879Y35179*X42799Y35179*X42799Y33909D2*X42799Y35179D1*X37719Y35179*X37719Y33909D2*X37719Y35179D1*X32639Y35179*X32639Y33909D2*X32639Y35179D1*X27559Y35179*X27559Y33909D2*X27559Y35179D1*X22479Y35179*X14859Y35179*X18034Y31369D2*X14859Y31369D1*X14859Y35179*X18034Y36449D2*X22479Y36449D1*X27559Y36449*X32639Y36449*X37719Y36449*X42799Y36449*X47879Y36449*X50419Y52959D2*X50419Y51054D1*X47879Y51054*X47879Y49149D2*X47879Y51054D1*X45339Y51054*X45339Y52959D2*X45339Y51054D1*X42799Y51054*X42799Y49149D2*X42799Y51054D1*X40259Y51054*X40259Y52959D2*X40259Y51054D1*X37719Y51054*X37719Y49149D2*X37719Y51054D1*X35179Y51054*X35179Y52959D2*X35179Y51054D1*X32639Y51054*X32639Y49149D2*X32639Y51054D1*X30099Y51054*X30099Y52959D2*X30099Y51054D1*X27559Y51054*X27559Y49149D2*X27559Y51054D1*X25019Y51054*X25019Y52959D2*X25019Y51054D1*X22479Y51054*X14859Y51054*X14859Y66929*X18669Y65659D2*X25019Y65659D1*X30099Y65659*X35179Y65659*X40259Y65659*X44704Y65659D2*X40894Y65659D1*X50419Y65659D2*X45339Y65659D1*X55499Y68199D2*X54229Y66929D1*X50419Y66929*X50419Y68199D2*X50419Y66929D1*X45339Y66929*X45339Y68199D2*X45339Y66929D1*X40259Y66929*X40259Y68199D2*X40259Y66929D1*X35179Y66929*X35179Y68199D2*X35179Y66929D1*X30099Y66929*X30099Y68199D2*X30099Y66929D1*X25019Y66929*X14859Y66929*X14859Y70739*X18669Y70739D2*X14859Y70739D1*X14859Y95504*X36449Y95504*X38354Y95504*X65659Y95504*X82804Y95504*X86614Y91694*X94869Y84074*X94869Y66929*X94869Y51054*X94869Y35179*X84709Y35179*X84709Y33909*X90424Y21209D2*X84709Y21209D1*X79629Y21209*X59944Y11049D2*X51054Y11049D1*X51054Y12954D2*X51054Y11049D1*X38354Y11049*X38354Y12954D2*X38354Y11049D1*X14859Y11049*X14859Y31369*D10*X38354Y86614D3*X65659Y26924D3*X61214Y15494D3*D11*X38354Y12954D3*X38354Y15494D3*X40894Y15494D3*X40894Y12954D3*X43434Y12954D3*X43434Y15494D3*X45974Y15494D3*X45974Y12954D3*X48514Y12954D3*X48514Y15494D3*X51054Y15494D3*X51054Y12954D3*X53594Y12954D3*X53594Y15494D3*X56134Y15494D3*X56134Y12954D3*X61214Y12954D3*X58674Y12954D3*X58674Y15494D3*X65659Y29464D3*X68199Y26924D3*X68199Y29464D3*X68199Y37084D3*X68199Y34544D3*X68199Y32004D3*X65659Y32004D3*X65659Y34544D3*X65659Y37084D3*X65659Y44704D3*X65659Y42164D3*X65659Y39624D3*X68199Y39624D3*X68199Y42164D3*X68199Y44704D3*X68199Y49784D3*X68199Y47244D3*X65659Y47244D3*X65659Y49784D3*X65659Y57404D3*X65659Y54864D3*X65659Y52324D3*X68199Y52324D3*X68199Y54864D3*X68199Y57404D3*X68199Y62484D3*X68199Y59944D3*X65659Y59944D3*X65659Y62484D3*X65659Y70104D3*X65659Y67564D3*X65659Y65024D3*X68199Y65024D3*X68199Y67564D3*X68199Y70104D3*X68199Y75184D3*X68199Y72644D3*X65659Y72644D3*X65659Y75184D3*X61214Y86614D3*X61214Y89154D3*X58674Y89154D3*X58674Y86614D3*X56134Y86614D3*X56134Y89154D3*X53594Y89154D3*X53594Y86614D3*X51054Y86614D3*X51054Y89154D3*X48514Y89154D3*X48514Y86614D3*X45974Y86614D3*X45974Y89154D3*X43434Y89154D3*X43434Y86614D3*X40894Y86614D3*X40894Y89154D3*X38354Y89154D3*D12*X55499Y80899D3*X55499Y75819D3*X55499Y73279D3*X55499Y68199D3*X84709Y21209D3*X84709Y26289D3*X84709Y28829D3*X84709Y33909D3*X84709Y36449D3*X84709Y41529D3*X84709Y44069D3*X90424Y80899D3*X90424Y75819D3*X90424Y73279D3*X90424Y68199D3*X80264Y58039D3*X80264Y60579D3*X80264Y65659D3*X80264Y68199D3*X80264Y73279D3*X80264Y75819D3*X80264Y80899D3*X85344Y80899D3*X85344Y75819D3*X85344Y73279D3*X85344Y68199D3*X85344Y65659D3*X85344Y60579D3*X85344Y58039D3*X85344Y52959D3*X84709Y49149D3*X80264Y52959D3*X79629Y49149D3*X79629Y44069D3*X79629Y41529D3*X79629Y36449D3*X79629Y33909D3*X79629Y28829D3*X79629Y26289D3*X79629Y21209D3*X47879Y21209D3*X47879Y26289D3*X47879Y28829D3*X47879Y33909D3*X47879Y36449D3*X47879Y41529D3*X47879Y44069D3*X45339Y52959D3*X47879Y49149D3*X50419Y52959D3*X50419Y58039D3*X50419Y60579D3*X50419Y65659D3*X50419Y68199D3*X50419Y73279D3*X50419Y75819D3*X50419Y80899D3*X45339Y80899D3*X45339Y75819D3*X45339Y73279D3*X45339Y68199D3*X45339Y65659D3*X45339Y60579D3*X45339Y58039D3*X25019Y58039D3*X25019Y60579D3*X25019Y65659D3*X25019Y68199D3*X25019Y73279D3*X25019Y75819D3*X25019Y80899D3*X30099Y80899D3*X30099Y75819D3*X30099Y73279D3*X30099Y68199D3*X30099Y65659D3*X30099Y60579D3*X30099Y58039D3*X35179Y58039D3*X35179Y60579D3*X35179Y65659D3*X35179Y68199D3*X35179Y73279D3*X35179Y75819D3*X35179Y80899D3*X40259Y80899D3*X40259Y75819D3*X40259Y73279D3*X40259Y68199D3*X40259Y65659D3*X40259Y60579D3*X40259Y58039D3*X40259Y52959D3*X42799Y49149D3*X42799Y44069D3*X42799Y41529D3*X42799Y36449D3*X42799Y33909D3*X42799Y28829D3*X42799Y26289D3*X42799Y21209D3*X32639Y21209D3*X32639Y26289D3*X32639Y28829D3*X32639Y33909D3*X32639Y36449D3*X32639Y41529D3*X32639Y44069D3*X27559Y44069D3*X27559Y41529D3*X27559Y36449D3*X27559Y33909D3*X27559Y28829D3*X27559Y26289D3*X27559Y21209D3*X22479Y21209D3*X22479Y26289D3*X22479Y28829D3*X22479Y33909D3*X22479Y36449D3*X22479Y41529D3*X22479Y44069D3*X22479Y49149D3*X25019Y52959D3*X27559Y49149D3*X30099Y52959D3*X32639Y49149D3*X35179Y52959D3*X37719Y49149D3*X37719Y44069D3*X37719Y41529D3*X37719Y36449D3*X37719Y33909D3*X37719Y28829D3*X37719Y26289D3*X37719Y21209D3*D13*X87249Y33909D3*X87249Y28829D3*X82169Y28829D3*X82169Y33909D3*X77724Y58039D3*X77724Y52959D3*X87249Y49149D3*X87249Y44069D3*X82169Y44069D3*X82169Y49149D3*X82804Y52959D3*X82804Y58039D3*X90424Y59944D3*X90424Y65024D3*X87884Y68199D3*X87884Y73279D3*X82804Y73279D3*X82804Y68199D3*X77724Y68199D3*X77724Y73279D3*X50419Y98679D3*X50419Y102489D3*X45339Y102489D3*X45339Y98679D3*X27559Y58039D3*X32639Y58039D3*X37719Y58039D3*X42799Y58039D3*X47879Y58039D3*X50419Y28829D3*X50419Y33909D3*X45339Y33909D3*X45339Y28829D3*X40259Y28829D3*X40259Y33909D3*X35179Y33909D3*X35179Y28829D3*X30099Y28829D3*X30099Y33909D3*X25019Y33909D3*X25019Y28829D3*X18034Y31369D3*X18034Y36449D3*X25019Y44069D3*X30099Y44069D3*X35179Y44069D3*X40259Y44069D3*X45339Y44069D3*X50419Y44069D3*X50419Y49149D3*X47879Y52959D3*X45339Y49149D3*X42799Y52959D3*X40259Y49149D3*X37719Y52959D3*X35179Y49149D3*X32639Y52959D3*X30099Y49149D3*X27559Y52959D3*X25019Y49149D3*X22479Y52959D3*X22479Y58039D3*X18669Y65659D3*X22479Y68199D3*X18669Y70739D3*X22479Y73279D3*X27559Y73279D3*X27559Y68199D3*X32639Y68199D3*X32639Y73279D3*X37719Y73279D3*X37719Y68199D3*X42799Y68199D3*X42799Y73279D3*X47879Y73279D3*X47879Y68199D3*X52959Y68199D3*X52959Y73279D3*D14*X25019Y102489D3*X30734Y102489D3*X36449Y102489D3*X59309Y102489D3*X65024Y102489D3*X70739Y102489D3*D110*X23749Y15494D3*X28829Y17399D3*X33909Y18669D3*X38989Y19304D3*X51054Y21844D3*X52324Y22479D3*X53594Y23114D3*X54864Y23749D3*X56134Y24384D3*X77089Y19304D3*X82169Y16129D3*X87249Y14224D3*X89154Y18669D3*X90424Y21209D3*X90424Y36449D3*X77724Y83439D3*X87884Y88519D3*X82804Y86614D3*X81534Y92329D3*X75819Y91059D3*X65659Y95504D3*X19939Y80899D3*X22479Y59944D3*X27559Y62484D3*X32639Y63119D3*X37719Y63754D3*X42799Y64389D3*X55499Y70739D3*X58674Y72009D3*X57404Y74549D3*X53594Y77089D3*X52324Y78359D3*X51689Y79629D3*X48514Y79629D3*X42799Y82169D3*X0Y0D2*M02*