
M48
METRIC,TZ,000.000
T01C0.5
T02C0.8
T03C0.813
T04C1.1
T05C1.501
T06C5.499
%
M71
G90
T01
X077724Y083439
X087884Y088519
X082804Y086614
X081534Y092329
X075819Y091059
X065659Y095504
X019939Y080899
X022479Y059944
X027559Y062484
X032639Y063119
X037719Y063754
X042799Y064389
X042799Y082169
X048514Y079629
X051689Y079629
X052324Y078359
X053594Y077089
X055499Y070739
X057404Y074549
X058674Y072009
X090424Y036449
X090424Y021209
X089154Y018669
X087249Y014224
X082169Y016129
X077089Y019304
X056134Y024384
X054864Y023749
X053594Y023114
X052324Y022479
X051054Y021844
X038989Y019304
X033909Y018669
X028829Y017399
X023749Y015494
T02
X050419Y098679
X050419Y102489
X045339Y102489
X045339Y098679
X027559Y058039
X032639Y058039
X037719Y058039
X042799Y058039
X047879Y058039
X050419Y028829
X050419Y033909
X045339Y033909
X045339Y028829
X040259Y028829
X040259Y033909
X035179Y033909
X035179Y028829
X030099Y028829
X030099Y033909
X025019Y033909
X025019Y028829
X018034Y031369
X018034Y036449
X025019Y044069
X030099Y044069
X035179Y044069
X040259Y044069
X045339Y044069
X050419Y044069
X050419Y049149
X047879Y052959
X045339Y049149
X042799Y052959
X040259Y049149
X037719Y052959
X035179Y049149
X032639Y052959
X030099Y049149
X027559Y052959
X025019Y049149
X022479Y052959
X022479Y058039
X022479Y073279
X018669Y070739
X018669Y065659
X022479Y068199
X027559Y068199
X027559Y073279
X032639Y073279
X032639Y068199
X037719Y068199
X037719Y073279
X042799Y073279
X042799Y068199
X047879Y068199
X047879Y073279
X052959Y073279
X052959Y068199
X087249Y033909
X087249Y028829
X082169Y028829
X082169Y033909
X077724Y058039
X077724Y052959
X087249Y049149
X087249Y044069
X082169Y044069
X082169Y049149
X082804Y052959
X082804Y058039
X090424Y059944
X090424Y065024
X087884Y068199
X087884Y073279
X082804Y073279
X082804Y068199
X077724Y068199
X077724Y073279
T03
X079629Y044069
X079629Y041529
X079629Y036449
X079629Y033909
X079629Y028829
X079629Y026289
X079629Y021209
X084709Y021209
X084709Y026289
X084709Y028829
X084709Y033909
X084709Y036449
X084709Y041529
X084709Y044069
X090424Y080899
X090424Y075819
X090424Y073279
X090424Y068199
X080264Y058039
X080264Y060579
X080264Y065659
X080264Y068199
X080264Y073279
X080264Y075819
X080264Y080899
X085344Y080899
X085344Y075819
X085344Y073279
X085344Y068199
X085344Y065659
X085344Y060579
X085344Y058039
X085344Y052959
X084709Y049149
X080264Y052959
X079629Y049149
X055499Y068199
X055499Y073279
X055499Y075819
X055499Y080899
X025019Y080899
X025019Y075819
X025019Y073279
X025019Y068199
X025019Y065659
X025019Y060579
X025019Y058039
X030099Y058039
X030099Y060579
X030099Y065659
X030099Y068199
X030099Y073279
X030099Y075819
X030099Y080899
X035179Y080899
X035179Y075819
X035179Y073279
X035179Y068199
X035179Y065659
X035179Y060579
X035179Y058039
X040259Y058039
X040259Y060579
X040259Y065659
X040259Y068199
X040259Y073279
X040259Y075819
X040259Y080899
X045339Y080899
X045339Y075819
X045339Y073279
X045339Y068199
X045339Y065659
X045339Y060579
X045339Y058039
X047879Y044069
X047879Y041529
X047879Y036449
X047879Y033909
X047879Y028829
X047879Y026289
X047879Y021209
X042799Y021209
X042799Y026289
X042799Y028829
X042799Y033909
X042799Y036449
X042799Y041529
X042799Y044069
X037719Y044069
X037719Y041529
X037719Y036449
X037719Y033909
X037719Y028829
X037719Y026289
X037719Y021209
X032639Y021209
X032639Y026289
X032639Y028829
X032639Y033909
X032639Y036449
X032639Y041529
X032639Y044069
X027559Y044069
X027559Y041529
X027559Y036449
X027559Y033909
X027559Y028829
X027559Y026289
X027559Y021209
X022479Y021209
X022479Y026289
X022479Y028829
X022479Y033909
X022479Y036449
X022479Y041529
X022479Y044069
X022479Y049149
X025019Y052959
X027559Y049149
X030099Y052959
X032639Y049149
X035179Y052959
X037719Y049149
X040259Y052959
X042799Y049149
X045339Y052959
X047879Y049149
X050419Y052959
X050419Y058039
X050419Y060579
X050419Y065659
X050419Y068199
X050419Y073279
X050419Y075819
X050419Y080899
T04
X038354Y015494
X038354Y012954
X040894Y012954
X040894Y015494
X043434Y015494
X043434Y012954
X045974Y012954
X045974Y015494
X048514Y015494
X048514Y012954
X051054Y012954
X051054Y015494
X053594Y015494
X053594Y012954
X056134Y012954
X056134Y015494
X058674Y015494
X058674Y012954
X061214Y012954
X061214Y015494
X065659Y029464
X065659Y026924
X068199Y026924
X068199Y029464
X068199Y037084
X068199Y034544
X068199Y032004
X065659Y032004
X065659Y034544
X065659Y037084
X038354Y086614
X038354Y089154
X040894Y089154
X040894Y086614
X043434Y086614
X043434Y089154
X045974Y089154
X045974Y086614
X048514Y086614
X048514Y089154
X051054Y089154
X051054Y086614
X053594Y086614
X053594Y089154
X056134Y089154
X056134Y086614
X058674Y086614
X058674Y089154
X061214Y089154
X061214Y086614
X068199Y072644
X068199Y075184
X065659Y075184
X065659Y072644
X065659Y065024
X065659Y067564
X065659Y070104
X068199Y070104
X068199Y067564
X068199Y065024
X068199Y059944
X068199Y062484
X065659Y062484
X065659Y059944
X065659Y052324
X065659Y054864
X065659Y057404
X068199Y057404
X068199Y054864
X068199Y052324
X068199Y047244
X068199Y049784
X065659Y049784
X065659Y047244
X065659Y044704
X065659Y042164
X065659Y039624
X068199Y039624
X068199Y042164
X068199Y044704
T05
X070739Y102489
X065024Y102489
X059309Y102489
X025019Y102489
X030734Y102489
X036449Y102489
T06
X008984Y097409
X088984Y097409
X088984Y009144
X008984Y009144
M30
