G04 Output by ViewMate Deluxe V11.0.9  PentaLogix LLC*
G04 Sun Jun 14 09:42:27 2015*
%FSLAX33Y33*%
%MOMM*%
%IPPOS*%
%ADD111C,0.2032*%
%ADD112C,0.1524*%
%ADD113C,0.4064*%
%ADD114C,0.127*%
%ADD123C,0.13*%
%ADD124C,0.13*%

%LPD*%
X0Y0D2*D111*G1X30201Y4801D2*X30201Y7140D1*X30980Y6360*X31760Y7140*X31760Y4801*X32540Y4801D2*X34100Y4801D1*X34879Y4801D2*X34879Y7140D1*X35659Y6360*X36436Y7140*X36436Y4801*X37216Y4412D2*X38776Y4412D1*X39555Y4801D2*X39555Y7140D1*X40726Y7140*X41115Y6749*X41115Y5969*X40726Y5580*X39555Y5580*X41895Y4801D2*X43454Y6360D1*X43454Y6749*X43063Y7140*X42283Y7140*X41895Y6749*X41895Y4801D2*X43454Y4801D1*X44234Y4801D2*X44234Y7140D1*X45402Y7140*X45794Y6749*X45794Y5969*X45402Y5580*X44234Y5580*X46573Y4412D2*X48130Y4412D1*X48910Y4801D2*X50470Y4801D1*X49690Y4801D2*X49690Y7140D1*X48910Y6360*X34100Y7140D2*X32540Y7140D1*X32540Y4801*X32540Y5969D2*X33320Y5969D1*D112*X31260Y3228D2*X30719Y3228D1*X30988Y3228D2*X30988Y1872D1*X30719Y1600*X30447Y1600*X30175Y1872*X31814Y1872D2*X32083Y2144D1*X32898Y2144*X32898Y2413D2*X32898Y1600D1*X32083Y1600*X31814Y1872*X32083Y2685D2*X32626Y2685D1*X32898Y2413*X33449Y2685D2*X33449Y1600D1*X33993Y1600D2*X33993Y2413D1*X34262Y2685*X34534Y2413*X34534Y1600*X35088Y1872D2*X35088Y2413D1*X35357Y2685*X35900Y2685*X36172Y2413*X36172Y2144*X35088Y2144*X35088Y1872D2*X35357Y1600D1*X35900Y1600*X36723Y1600D2*X37536Y1600D1*X37808Y1872*X37536Y2144*X36995Y2144*X36723Y2413*X36995Y2685*X37808Y2685*X39997Y1600D2*X39997Y3228D1*X41082Y1600*X41082Y3228*X41636Y1872D2*X41636Y2413D1*X41907Y2685*X42448Y2685*X42720Y2413*X42720Y2144*X41636Y2144*X41636Y1872D2*X41907Y1600D1*X42448Y1600*X43271Y2685D2*X43271Y1872D1*X43543Y1600*X43815Y1872*X44087Y1600*X44356Y1872*X44356Y2685*X44910Y2685D2*X45182Y2685D1*X45451Y2413*X45723Y2685*X45994Y2413*X45994Y1600*X45451Y1600D2*X45451Y2413D1*X44910Y2685D2*X44910Y1600D1*X46546Y1872D2*X46817Y2144D1*X47633Y2144*X47633Y2413D2*X47633Y1600D1*X46817Y1600*X46546Y1872*X46817Y2685D2*X47361Y2685D1*X47633Y2413*X48184Y1600D2*X48184Y2685D1*X48997Y2685*X49268Y2413*X49268Y1600*X33993Y2413D2*X33721Y2685D1*X33449Y2685*X33528Y22225D2*X33528Y25273D1*X33147Y24257D2*X32639Y23241D1*X33147Y23241*X32131Y23241D2*X32639Y23241D1*X32131Y24257*X32258Y24257*X33147Y24257*X32639Y24638D2*X32639Y23749D1*X32639Y23495*X32639Y23241*X32639Y22860*X31750Y22225D2*X31750Y25273D1*X28448Y25273D2*X28448Y22225D1*X28067Y23241D2*X27559Y23241D1*X27051Y23241*X27559Y23241D2*X27051Y24257D1*X27178Y24257*X28067Y24257*X27559Y23241*X27559Y23495*X27559Y23749*X27559Y24638*X26670Y25273D2*X26670Y22225D1*X27559Y22860D2*X27559Y23241D1*X23368Y22225D2*X23368Y25273D1*X22987Y24257D2*X22098Y24257D1*X21971Y24257*X22479Y23241*X22987Y23241*X21971Y23241D2*X22479Y23241D1*X22479Y23495*X22479Y23749*X22479Y24638*X22987Y24257D2*X22479Y23241D1*X22479Y22860*X21590Y22225D2*X21590Y25273D1*X24130Y29528D2*X24130Y33210D1*X23368Y32893D2*X23368Y29845D1*X22987Y30861D2*X22479Y30861D1*X21971Y30861*X22479Y30861D2*X21971Y31877D1*X22098Y31877*X22987Y31877*X22479Y30861*X22479Y31115*X22479Y31369*X22479Y32258*X21590Y32893D2*X21590Y29845D1*X22479Y30480D2*X22479Y30861D1*X25908Y29528D2*X25908Y33210D1*X26670Y32893D2*X26670Y29845D1*X27051Y30861D2*X27559Y30861D1*X28067Y30861*X27559Y30861D2*X27051Y31877D1*X27178Y31877*X28067Y31877*X27559Y30861*X27559Y31115*X27559Y31369*X27559Y32258*X28448Y32893D2*X28448Y29845D1*X29210Y29528D2*X29210Y33210D1*X30988Y33210D2*X30988Y29528D1*X31750Y29845D2*X31750Y32893D1*X32131Y31877D2*X32639Y30861D1*X33147Y30861*X32131Y30861D2*X32639Y30861D1*X32639Y31115*X32639Y31369*X32639Y32258*X32131Y31877D2*X32258Y31877D1*X33147Y31877*X32639Y30861*X32639Y30480*X33528Y29845D2*X33528Y32893D1*X34290Y33210D2*X34290Y29528D1*X36068Y29528D2*X36068Y33210D1*X36830Y32893D2*X36830Y29845D1*X37211Y30861D2*X37719Y30861D1*X38227Y30861*X37719Y30861D2*X37211Y31877D1*X37338Y31877*X38227Y31877*X37719Y30861*X37719Y31115*X37719Y31369*X37719Y32258*X38608Y32893D2*X38608Y29845D1*X39370Y29528D2*X39370Y33210D1*X41148Y33210D2*X41148Y29528D1*X41910Y29845D2*X41910Y32893D1*X42291Y31877D2*X42799Y30861D1*X43307Y30861*X42799Y30861D2*X42799Y31115D1*X42799Y31369*X42799Y32258*X42418Y31877D2*X43307Y31877D1*X42799Y30861*X42291Y30861*X42799Y30480D2*X42799Y30861D1*X43688Y29845D2*X43688Y32893D1*X44450Y33210D2*X44450Y29528D1*X46228Y29528D2*X46228Y33210D1*X46990Y32893D2*X46990Y29845D1*X47371Y30861D2*X47879Y30861D1*X48387Y30861*X47879Y30861D2*X47371Y31877D1*X47498Y31877*X48387Y31877*X47879Y30861*X47879Y31115*X47879Y31369*X47879Y32258*X48768Y32893D2*X48768Y29845D1*X49530Y29528D2*X49530Y33210D1*X51308Y33210D2*X51308Y29528D1*X50673Y27358D2*X50132Y27358D1*X49860Y27087*X50673Y27358D2*X50945Y27087D1*X50945Y26815*X49860Y25730*X50945Y25730*X48768Y25273D2*X48768Y22225D1*X48387Y23241D2*X47879Y23241D1*X47371Y23241*X47879Y23241D2*X47371Y24257D1*X47498Y24257*X48387Y24257*X47879Y23241*X47879Y23495*X47879Y23749*X47879Y24638*X46990Y25273D2*X46990Y22225D1*X47879Y22860D2*X47879Y23241D1*X45593Y25730D2*X45052Y25730D1*X44780Y26002*X45324Y26543D2*X45593Y26543D1*X45865Y26274*X45865Y26002*X45593Y25730*X45593Y26543D2*X45865Y26815D1*X45865Y27087*X45593Y27358*X45052Y27358*X44780Y27087*X43688Y25273D2*X43688Y22225D1*X43307Y23241D2*X42799Y23241D1*X42291Y23241*X42799Y23241D2*X42291Y24257D1*X42418Y24257*X43307Y24257*X42799Y23241*X42799Y23495*X42799Y23749*X42799Y24638*X41910Y25273D2*X41910Y22225D1*X42799Y22860D2*X42799Y23241D1*X38608Y22225D2*X38608Y25273D1*X38227Y24257D2*X37338Y24257D1*X37211Y24257*X37719Y23241*X38227Y23241*X37719Y23241D2*X37719Y23495D1*X37719Y23749*X37719Y24638*X38227Y24257D2*X37719Y23241D1*X37211Y23241*X37719Y22860D2*X37719Y23241D1*X36830Y22225D2*X36830Y25273D1*X37719Y30480D2*X37719Y30861D1*X42291Y31877D2*X42418Y31877D1*X47879Y30861D2*X47879Y30480D1*X46990Y37465D2*X46990Y40513D1*X47371Y39497D2*X47879Y38481D1*X48387Y38481*X47371Y38481D2*X47879Y38481D1*X47879Y38100*X47879Y38481D2*X47879Y38735D1*X47879Y38989*X47879Y39878*X47498Y39497D2*X48387Y39497D1*X47879Y38481*X47498Y39497D2*X47371Y39497D1*X48768Y40513D2*X48768Y37465D1*X43688Y37465D2*X43688Y40513D1*X43307Y39497D2*X42418Y39497D1*X42291Y39497*X42799Y38481*X43307Y38481*X42799Y38100D2*X42799Y38481D1*X42291Y38481*X42799Y38481D2*X42799Y38735D1*X42799Y38989*X42799Y39878*X43307Y39497D2*X42799Y38481D1*X41910Y37465D2*X41910Y40513D1*X38608Y40513D2*X38608Y37465D1*X38227Y38481D2*X37719Y38481D1*X37211Y38481*X37719Y38481D2*X37211Y39497D1*X37338Y39497*X38227Y39497*X37719Y38481*X37719Y38735*X37719Y38989*X37719Y39878*X36830Y40513D2*X36830Y37465D1*X37719Y38100D2*X37719Y38481D1*X33528Y37465D2*X33528Y40513D1*X33147Y39497D2*X32639Y38481D1*X33147Y38481*X32131Y38481D2*X32639Y38481D1*X32131Y39497*X32258Y39497*X33147Y39497*X32639Y39878D2*X32639Y38989D1*X32639Y38735*X32639Y38481*X32639Y38100*X31750Y37465D2*X31750Y40513D1*X28448Y40513D2*X28448Y37465D1*X28067Y38481D2*X27559Y38481D1*X27051Y38481*X27559Y38481D2*X27051Y39497D1*X27178Y39497*X28067Y39497*X27559Y38481*X27559Y38735*X27559Y38989*X27559Y39878*X26670Y40513D2*X26670Y37465D1*X27559Y38100D2*X27559Y38481D1*X23368Y37465D2*X23368Y40513D1*X22987Y39497D2*X22098Y39497D1*X21971Y39497*X22479Y38481*X22987Y38481*X21971Y38481D2*X22479Y38481D1*X22479Y38100*X22479Y38481D2*X22479Y38735D1*X22479Y38989*X22479Y39878*X22987Y39497D2*X22479Y38481D1*X21590Y37465D2*X21590Y40513D1*X19177Y36830D2*X19177Y30988D1*X16891Y30988D2*X16891Y36830D1*X10973Y40335D2*X10429Y40879D1*X10973Y41420*X9345Y41420*X9345Y41974D2*X9345Y42786D1*X9616Y43058*X10160Y43058*X10429Y42786*X10429Y41974*X10429Y42515D2*X10973Y43058D1*X10973Y43609D2*X10973Y44153D1*X10973Y43881D2*X9345Y43881D1*X9345Y43609D2*X9345Y44153D1*X9345Y44701D2*X9345Y45786D1*X9345Y45242D2*X10973Y45242D1*X10973Y46337D2*X10973Y47422D1*X10160Y46881D2*X10160Y46337D1*X10973Y46337D2*X9345Y46337D1*X9345Y47422*X9345Y41974D2*X10973Y41974D1*X10973Y40335D2*X9345Y40335D1*X9616Y30457D2*X9345Y30185D1*X9345Y29373*X10973Y29373*X10973Y30185*X10701Y30457*X9616Y30457*X9888Y28819D2*X10973Y28819D1*X10160Y28819D2*X10160Y27734D1*X9888Y27734D2*X9345Y28278D1*X9888Y28819*X9888Y27734D2*X10973Y27734D1*X10973Y27183D2*X10973Y26098D1*X9345Y26098*X9345Y27183*X10160Y26640D2*X10160Y26098D1*X10160Y25545D2*X9616Y25545D1*X9345Y25273*X9345Y24460*X10973Y24460*X10429Y24460D2*X10429Y25273D1*X10160Y25545*X10429Y25004D2*X10973Y25545D1*X27559Y30480D2*X27559Y30861D1*X25908Y44768D2*X25908Y48450D1*X26670Y48133D2*X26670Y45085D1*X27051Y46101D2*X27559Y46101D1*X28067Y46101*X27559Y46101D2*X27051Y47117D1*X27178Y47117*X28067Y47117*X27559Y46101*X27559Y46355*X27559Y46609*X27559Y47498*X28448Y48133D2*X28448Y45085D1*X29210Y44768D2*X29210Y48450D1*X30988Y48450D2*X30988Y44768D1*X31750Y45085D2*X31750Y48133D1*X32131Y47117D2*X32639Y46101D1*X33147Y46101*X32131Y46101D2*X32639Y46101D1*X32639Y45720*X32639Y46101D2*X32639Y46355D1*X32639Y46609*X32639Y47498*X32258Y47117D2*X33147Y47117D1*X32639Y46101*X32258Y47117D2*X32131Y47117D1*X33528Y48133D2*X33528Y45085D1*X34290Y44768D2*X34290Y48450D1*X36068Y48450D2*X36068Y44768D1*X36830Y45085D2*X36830Y48133D1*X37211Y47117D2*X37719Y46101D1*X38227Y46101*X37719Y45720D2*X37719Y46101D1*X37211Y46101*X37719Y46101D2*X37719Y46355D1*X37719Y46609*X37719Y47498*X37338Y47117D2*X38227Y47117D1*X37719Y46101*X37338Y47117D2*X37211Y47117D1*X38608Y48133D2*X38608Y45085D1*X39370Y44768D2*X39370Y48450D1*X41148Y48450D2*X41148Y44768D1*X41910Y45085D2*X41910Y48133D1*X42291Y47117D2*X42799Y46101D1*X43307Y46101*X42799Y45720D2*X42799Y46101D1*X42291Y46101*X42799Y46101D2*X42799Y46355D1*X42799Y46609*X42799Y47498*X42418Y47117D2*X43307Y47117D1*X42799Y46101*X42418Y47117D2*X42291Y47117D1*X43688Y48133D2*X43688Y45085D1*X44450Y44768D2*X44450Y48450D1*X46228Y48450D2*X46228Y44768D1*X46990Y45085D2*X46990Y48133D1*X47371Y47117D2*X47879Y46101D1*X48387Y46101*X47371Y46101D2*X47879Y46101D1*X47879Y45720*X47879Y46101D2*X47879Y46355D1*X47879Y46609*X47879Y47498*X47498Y47117D2*X48387Y47117D1*X47879Y46101*X47498Y47117D2*X47371Y47117D1*X48768Y48133D2*X48768Y45085D1*X49530Y44768D2*X49530Y48450D1*X51308Y48450D2*X51308Y44768D1*X51308Y53975D2*X51308Y57023D1*X50927Y56007D2*X50419Y56007D1*X49911Y56007*X50419Y56007D2*X50927Y54991D1*X50800Y54991*X49911Y54991*X50419Y56007*X50419Y55753*X50419Y55499*X50419Y54610*X49530Y53975D2*X49530Y57023D1*X48768Y57340D2*X48768Y53658D1*X46990Y53658D2*X46990Y57340D1*X46228Y57023D2*X46228Y53975D1*X45847Y54991D2*X45339Y56007D1*X44831Y56007*X45339Y56007D2*X44831Y54991D1*X45720Y54991*X45847Y54991*X45339Y54610D2*X45339Y55499D1*X45339Y55753*X45339Y56007*X45847Y56007*X45339Y56388D2*X45339Y56007D1*X44450Y57023D2*X44450Y53975D1*X43688Y53658D2*X43688Y57340D1*X41910Y57340D2*X41910Y53658D1*X41148Y53975D2*X41148Y57023D1*X40767Y56007D2*X40259Y56007D1*X39751Y56007*X40259Y56007D2*X39751Y54991D1*X40640Y54991*X40767Y54991*X40259Y56007*X40259Y55753*X40259Y55499*X40259Y54610*X39370Y53975D2*X39370Y57023D1*X38608Y57340D2*X38608Y53658D1*X36830Y53658D2*X36830Y57340D1*X36068Y57023D2*X36068Y53975D1*X35687Y54991D2*X35179Y56007D1*X34671Y56007*X35179Y56007D2*X34671Y54991D1*X35560Y54991*X35687Y54991*X35179Y54610D2*X35179Y55499D1*X35179Y55753*X35179Y56007*X35687Y56007*X35179Y56388D2*X35179Y56007D1*X34290Y57023D2*X34290Y53975D1*X33528Y53658D2*X33528Y57340D1*X31750Y57340D2*X31750Y53658D1*X30988Y53975D2*X30988Y57023D1*X30607Y56007D2*X30099Y56007D1*X29591Y56007*X30099Y56007D2*X30607Y54991D1*X30480Y54991*X29591Y54991*X30099Y56007*X30099Y55753*X30099Y55499*X30099Y54610*X29210Y53975D2*X29210Y57023D1*X28448Y57340D2*X28448Y53658D1*X26670Y53658D2*X26670Y57340D1*X25908Y57023D2*X25908Y53975D1*X25527Y54991D2*X25019Y56007D1*X24511Y56007*X25527Y56007D2*X25019Y56007D1*X24511Y54991*X25400Y54991*X25527Y54991*X25019Y54610D2*X25019Y55499D1*X25019Y55753*X25019Y56007*X25019Y56388*X24130Y57023D2*X24130Y53975D1*X23368Y53658D2*X23368Y57340D1*X21590Y57340D2*X21590Y53658D1*X21590Y48133D2*X21590Y45085D1*X21971Y46101D2*X22479Y46101D1*X22987Y46101*X22479Y46101D2*X21971Y47117D1*X22098Y47117*X22987Y47117*X22479Y46101*X22479Y46355*X22479Y46609*X22479Y47498*X23368Y48133D2*X23368Y45085D1*X24130Y44768D2*X24130Y48450D1*X22479Y46101D2*X22479Y45720D1*X27559Y45720D2*X27559Y46101D1*X30099Y56007D2*X30099Y56388D1*X29210Y61595D2*X29210Y64643D1*X29591Y63627D2*X30099Y63627D1*X30607Y63627*X30099Y63627D2*X29591Y62611D1*X30480Y62611*X30607Y62611*X30099Y63627*X30099Y63373*X30099Y63119*X30099Y62230*X30988Y61595D2*X30988Y64643D1*X30099Y64008D2*X30099Y63627D1*X25908Y64643D2*X25908Y61595D1*X25527Y62611D2*X25019Y63627D1*X24511Y63627*X25527Y63627D2*X25019Y63627D1*X24511Y62611*X25400Y62611*X25527Y62611*X25019Y62230D2*X25019Y63119D1*X25019Y63373*X25019Y63627*X25019Y64008*X24130Y64643D2*X24130Y61595D1*X19812Y65278D2*X19812Y71120D1*X21590Y72580D2*X21590Y68898D1*X23368Y68898D2*X23368Y72580D1*X24130Y72263D2*X24130Y69215D1*X24511Y70231D2*X25019Y71247D1*X24511Y71247*X25527Y71247D2*X25019Y71247D1*X25019Y71628*X25019Y71247D2*X25527Y70231D1*X25400Y70231*X24511Y70231*X25019Y69850D2*X25019Y70739D1*X25019Y70993*X25019Y71247*X25908Y72263D2*X25908Y69215D1*X26670Y68898D2*X26670Y72580D1*X28448Y72580D2*X28448Y68898D1*X29210Y69215D2*X29210Y72263D1*X29591Y71247D2*X30099Y71247D1*X30607Y71247*X30099Y71247D2*X29591Y70231D1*X30480Y70231*X30607Y70231*X30099Y71247*X30099Y70993*X30099Y70739*X30099Y69850*X30988Y69215D2*X30988Y72263D1*X31750Y72580D2*X31750Y68898D1*X33528Y68898D2*X33528Y72580D1*X34290Y72263D2*X34290Y69215D1*X34671Y70231D2*X35179Y71247D1*X34671Y71247*X35179Y71247D2*X35687Y70231D1*X35560Y70231*X34671Y70231*X35179Y69850D2*X35179Y70739D1*X35179Y70993*X35179Y71247*X35687Y71247*X35179Y71628D2*X35179Y71247D1*X36068Y72263D2*X36068Y69215D1*X36830Y68898D2*X36830Y72580D1*X38608Y72580D2*X38608Y68898D1*X39370Y69215D2*X39370Y72263D1*X39751Y71247D2*X40259Y71247D1*X40767Y71247*X40259Y71247D2*X40767Y70231D1*X40640Y70231*X39751Y70231*X40259Y71247*X40259Y70993*X40259Y70739*X40259Y69850*X41148Y69215D2*X41148Y72263D1*X41910Y72580D2*X41910Y68898D1*X43688Y68898D2*X43688Y72580D1*X44450Y72263D2*X44450Y69215D1*X44831Y70231D2*X45339Y71247D1*X44831Y71247*X45339Y71247D2*X45847Y70231D1*X45720Y70231*X44831Y70231*X45339Y69850D2*X45339Y70739D1*X45339Y70993*X45339Y71247*X45847Y71247*X45339Y71628D2*X45339Y71247D1*X46228Y72263D2*X46228Y69215D1*X46990Y68898D2*X46990Y72580D1*X48768Y72580D2*X48768Y68898D1*X49530Y69215D2*X49530Y72263D1*X49911Y71247D2*X50419Y71247D1*X50927Y71247*X50419Y71247D2*X49911Y70231D1*X50800Y70231*X50927Y70231*X50419Y71247*X50419Y70993*X50419Y70739*X50419Y69850*X51308Y69215D2*X51308Y72263D1*X52070Y72580D2*X52070Y68898D1*X53848Y68898D2*X53848Y72580D1*X54610Y72263D2*X54610Y69215D1*X54991Y70231D2*X55499Y71247D1*X54991Y71247*X56007Y71247D2*X55499Y71247D1*X55499Y71628*X55499Y71247D2*X56007Y70231D1*X55880Y70231*X54991Y70231*X55499Y69850D2*X55499Y70739D1*X55499Y70993*X55499Y71247*X56388Y72263D2*X56388Y69215D1*X51308Y64643D2*X51308Y61595D1*X50927Y62611D2*X50419Y63627D1*X49911Y63627*X50927Y63627D2*X50419Y63627D1*X49911Y62611*X50800Y62611*X50927Y62611*X50419Y62230D2*X50419Y63119D1*X50419Y63373*X50419Y63627*X50419Y64008*X49530Y64643D2*X49530Y61595D1*X46228Y61595D2*X46228Y64643D1*X45847Y63627D2*X45339Y63627D1*X44831Y63627*X45339Y63627D2*X44831Y62611D1*X45720Y62611*X45847Y62611*X45339Y63627*X45339Y63373*X45339Y63119*X45339Y62230*X44450Y61595D2*X44450Y64643D1*X45339Y64008D2*X45339Y63627D1*X41148Y64643D2*X41148Y61595D1*X40767Y62611D2*X40259Y63627D1*X39751Y63627*X40259Y63627D2*X39751Y62611D1*X40640Y62611*X40767Y62611*X40259Y62230D2*X40259Y63119D1*X40259Y63373*X40259Y63627*X40767Y63627*X40259Y64008D2*X40259Y63627D1*X39370Y64643D2*X39370Y61595D1*X36068Y61595D2*X36068Y64643D1*X35687Y63627D2*X35179Y63627D1*X34671Y63627*X35179Y63627D2*X34671Y62611D1*X35560Y62611*X35687Y62611*X35179Y63627*X35179Y63373*X35179Y63119*X35179Y62230*X34290Y61595D2*X34290Y64643D1*X35179Y64008D2*X35179Y63627D1*X40259Y56388D2*X40259Y56007D1*X50419Y56007D2*X50419Y56388D1*X50419Y71247D2*X50419Y71628D1*X49530Y76835D2*X49530Y79883D1*X49911Y78867D2*X50419Y78867D1*X50927Y78867*X50419Y78867D2*X50419Y78613D1*X50419Y78359*X50419Y77470*X50800Y77851D2*X49911Y77851D1*X50419Y78867*X50927Y77851*X50800Y77851*X50419Y78867D2*X50419Y79248D1*X51308Y79883D2*X51308Y76835D1*X54610Y76835D2*X54610Y79883D1*X54991Y78867D2*X55499Y78867D1*X56007Y78867*X55499Y78867D2*X55499Y78613D1*X55499Y78359*X55499Y77470*X55880Y77851D2*X54991Y77851D1*X55499Y78867*X56007Y77851*X55880Y77851*X55499Y78867D2*X55499Y79248D1*X56388Y79883D2*X56388Y76835D1*X46228Y76835D2*X46228Y79883D1*X45847Y78867D2*X45339Y78867D1*X44831Y78867*X45339Y78867D2*X44831Y77851D1*X45720Y77851*X45847Y77851*X45339Y78867*X45339Y78613*X45339Y78359*X45339Y77470*X44450Y76835D2*X44450Y79883D1*X45339Y79248D2*X45339Y78867D1*X41148Y79883D2*X41148Y76835D1*X40767Y77851D2*X40259Y78867D1*X39751Y78867*X40259Y78867D2*X39751Y77851D1*X40640Y77851*X40767Y77851*X40259Y77470D2*X40259Y78359D1*X40259Y78613*X40259Y78867*X40767Y78867*X40259Y79248D2*X40259Y78867D1*X39370Y79883D2*X39370Y76835D1*X36068Y76835D2*X36068Y79883D1*X35687Y78867D2*X35179Y78867D1*X34671Y78867*X35179Y78867D2*X34671Y77851D1*X35560Y77851*X35687Y77851*X35179Y78867*X35179Y78613*X35179Y78359*X35179Y77470*X34290Y76835D2*X34290Y79883D1*X35179Y79248D2*X35179Y78867D1*X30988Y79883D2*X30988Y76835D1*X30607Y77851D2*X30099Y78867D1*X29591Y78867*X30607Y78867D2*X30099Y78867D1*X30099Y78613*X30099Y78359*X30099Y77470*X30480Y77851D2*X29591Y77851D1*X30099Y78867*X30099Y79248*X29210Y79883D2*X29210Y76835D1*X30480Y77851D2*X30607Y77851D1*X25908Y76835D2*X25908Y79883D1*X25527Y78867D2*X25019Y78867D1*X24511Y78867*X25019Y78867D2*X25527Y77851D1*X25400Y77851*X24511Y77851*X25019Y78867*X25019Y78613*X25019Y78359*X25019Y77470*X24130Y76835D2*X24130Y79883D1*X25019Y79248D2*X25019Y78867D1*X30099Y71628D2*X30099Y71247D1*X40259Y71247D2*X40259Y71628D1*X17526Y71120D2*X17526Y65278D1*X10973Y65011D2*X10973Y64198D1*X9345Y64198*X9345Y65011*X9616Y65283*X10701Y65283*X10973Y65011*X10973Y65834D2*X10973Y66647D1*X10701Y66919*X9616Y66919*X9345Y66647*X9345Y65834*X10973Y65834*X10973Y67473D2*X9345Y67473D1*X9345Y68285*X9616Y68557*X10160Y68557*X10429Y68285*X10429Y67473*X10429Y68014D2*X10973Y68557D1*X10973Y69108D2*X10973Y70193D1*X10701Y70747D2*X10973Y71018D1*X10973Y71559*X10701Y71831*X10429Y71831*X10160Y71559*X10160Y71018*X9888Y70747*X9616Y70747*X9345Y71018*X9345Y71559*X9616Y71831*X9616Y72382D2*X9888Y72382D1*X10160Y72654*X10160Y73198*X10429Y73467*X10701Y73467*X10973Y73198*X10973Y72654*X10701Y72382*X9616Y72382D2*X9345Y72654D1*X9345Y73198*X9616Y73467*X9345Y70193D2*X9345Y69108D1*X10973Y69108*X10160Y69108D2*X10160Y69652D1*X10160Y63645D2*X10160Y62560D1*X9888Y62560D2*X9345Y63104D1*X9888Y63645*X10973Y63645*X10973Y62560D2*X9888Y62560D1*X29812Y98120D2*X29540Y98392D1*X30625Y99477*X30625Y98392*X30353Y98120*X29812Y98120*X29540Y98392D2*X29540Y99477D1*X29812Y99748*X30353Y99748*X30625Y99477*X31178Y99748D2*X31178Y98664D1*X31720Y98120*X32263Y98664*X32263Y99748*X44958Y101346D2*X50800Y101346D1*X49720Y99568D2*X46038Y99568D1*X46038Y97790D2*X49720Y97790D1*X50800Y103632D2*X44958Y103632D1*X63195Y99748D2*X63195Y98933D1*X63739Y99205*X64008Y99205*X64280Y98933*X64280Y98392*X64008Y98120*X63467Y98120*X63195Y98392*X63195Y99748D2*X64280Y99748D1*X64834Y99748D2*X64834Y98664D1*X65375Y98120*X65918Y98664*X65918Y99748*X79375Y79883D2*X79375Y76835D1*X79756Y77851D2*X80264Y78867D1*X79756Y78867*X80264Y78867D2*X80772Y77851D1*X80645Y77851*X79756Y77851*X80264Y77470D2*X80264Y78359D1*X80264Y78613*X80264Y78867*X80772Y78867*X80264Y79248D2*X80264Y78867D1*X81153Y79883D2*X81153Y76835D1*X84455Y76835D2*X84455Y79883D1*X84836Y78867D2*X85344Y78867D1*X85852Y78867*X85344Y78867D2*X85852Y77851D1*X85725Y77851*X84836Y77851*X85344Y78867*X85344Y78613*X85344Y78359*X85344Y77470*X86233Y76835D2*X86233Y79883D1*X85344Y79248D2*X85344Y78867D1*X89535Y79883D2*X89535Y76835D1*X89916Y77851D2*X90424Y78867D1*X89916Y78867*X90932Y78867D2*X90424Y78867D1*X90424Y78613*X90424Y78359*X90424Y77470*X89916Y77851D2*X90805Y77851D1*X90932Y77851*X90424Y78867*X90424Y79248*X91313Y79883D2*X91313Y76835D1*X88773Y72580D2*X88773Y68898D1*X89535Y69215D2*X89535Y72263D1*X89916Y71247D2*X90424Y71247D1*X90932Y71247*X90424Y71247D2*X89916Y70231D1*X90805Y70231*X90932Y70231*X90424Y71247*X90424Y70993*X90424Y70739*X90424Y69850*X91313Y69215D2*X91313Y72263D1*X90424Y71628D2*X90424Y71247D1*X86995Y72580D2*X86995Y68898D1*X86233Y69215D2*X86233Y72263D1*X85852Y71247D2*X85344Y71247D1*X84836Y71247*X85344Y71247D2*X84836Y70231D1*X85725Y70231*X85852Y70231*X85344Y71247*X85344Y70993*X85344Y70739*X85344Y69850*X84455Y69215D2*X84455Y72263D1*X83693Y72580D2*X83693Y68898D1*X81915Y68898D2*X81915Y72580D1*X81153Y72263D2*X81153Y69215D1*X80772Y70231D2*X80264Y71247D1*X79756Y71247*X80264Y71247D2*X79756Y70231D1*X80645Y70231*X80772Y70231*X80264Y69850D2*X80264Y70739D1*X80264Y70993*X80264Y71247*X80772Y71247*X80264Y71628D2*X80264Y71247D1*X79375Y72263D2*X79375Y69215D1*X78613Y68898D2*X78613Y72580D1*X76835Y72580D2*X76835Y68898D1*X79375Y64643D2*X79375Y61595D1*X79756Y62611D2*X80264Y63627D1*X79756Y63627*X80264Y63627D2*X80772Y62611D1*X80645Y62611*X79756Y62611*X80264Y62230D2*X80264Y63119D1*X80264Y63373*X80264Y63627*X80772Y63627*X80264Y64008D2*X80264Y63627D1*X81153Y64643D2*X81153Y61595D1*X84455Y61595D2*X84455Y64643D1*X84836Y63627D2*X85344Y63627D1*X85852Y63627*X85344Y63627D2*X85852Y62611D1*X85725Y62611*X84836Y62611*X85344Y63627*X85344Y63373*X85344Y63119*X85344Y62230*X86233Y61595D2*X86233Y64643D1*X85344Y64008D2*X85344Y63627D1*X89281Y65405D2*X89281Y59563D1*X91567Y59563D2*X91567Y65405D1*X85344Y71247D2*X85344Y71628D1*X83693Y57340D2*X83693Y53658D1*X84455Y53975D2*X84455Y57023D1*X84836Y56007D2*X85344Y56007D1*X85852Y56007*X85344Y56007D2*X85852Y54991D1*X85725Y54991*X84836Y54991*X85344Y56007*X85344Y55753*X85344Y55499*X85344Y54610*X86233Y53975D2*X86233Y57023D1*X85344Y56388D2*X85344Y56007D1*X81915Y57340D2*X81915Y53658D1*X81153Y53975D2*X81153Y57023D1*X80772Y56007D2*X80264Y56007D1*X79756Y56007*X80264Y56007D2*X79756Y54991D1*X80645Y54991*X80772Y54991*X80264Y56007*X80264Y55753*X80264Y55499*X80264Y54610*X79375Y53975D2*X79375Y57023D1*X78613Y57340D2*X78613Y53658D1*X76835Y53658D2*X76835Y57340D1*X80264Y56388D2*X80264Y56007D1*X81280Y48450D2*X81280Y44768D1*X80518Y45085D2*X80518Y48133D1*X80137Y47117D2*X79248Y47117D1*X79121Y47117*X79629Y46101*X80137Y46101*X79629Y45720D2*X79629Y46101D1*X79121Y46101*X79629Y46101D2*X79629Y46355D1*X79629Y46609*X79629Y47498*X80137Y47117D2*X79629Y46101D1*X78740Y45085D2*X78740Y48133D1*X83058Y48450D2*X83058Y44768D1*X83820Y45085D2*X83820Y48133D1*X84201Y47117D2*X84709Y46101D1*X85217Y46101*X84709Y45720D2*X84709Y46101D1*X84201Y46101*X84709Y46101D2*X84709Y46355D1*X84709Y46609*X84709Y47498*X84328Y47117D2*X85217Y47117D1*X84709Y46101*X84328Y47117D2*X84201Y47117D1*X85598Y48133D2*X85598Y45085D1*X86360Y44768D2*X86360Y48450D1*X88138Y48450D2*X88138Y44768D1*X85598Y40513D2*X85598Y37465D1*X85217Y38481D2*X84709Y38481D1*X84201Y38481*X84709Y38481D2*X84201Y39497D1*X84328Y39497*X85217Y39497*X84709Y38481*X84709Y38735*X84709Y38989*X84709Y39878*X83820Y40513D2*X83820Y37465D1*X84709Y38100D2*X84709Y38481D1*X80518Y37465D2*X80518Y40513D1*X80137Y39497D2*X79248Y39497D1*X79121Y39497*X79629Y38481*X80137Y38481*X79629Y38100D2*X79629Y38481D1*X79121Y38481*X79629Y38481D2*X79629Y38735D1*X79629Y38989*X79629Y39878*X80137Y39497D2*X79629Y38481D1*X78740Y37465D2*X78740Y40513D1*X81280Y33210D2*X81280Y29528D1*X80518Y29845D2*X80518Y32893D1*X80137Y31877D2*X79248Y31877D1*X79121Y31877*X79629Y30861*X80137Y30861*X79629Y30861D2*X79629Y31115D1*X79629Y31369*X79629Y32258*X80137Y31877D2*X79629Y30861D1*X79121Y30861*X79629Y30480D2*X79629Y30861D1*X78740Y29845D2*X78740Y32893D1*X83058Y33210D2*X83058Y29528D1*X83820Y29845D2*X83820Y32893D1*X84201Y31877D2*X84709Y30861D1*X85217Y30861*X84709Y30861D2*X84709Y31115D1*X84709Y31369*X84709Y32258*X84328Y31877D2*X85217Y31877D1*X84709Y30861*X84201Y30861*X84709Y30480D2*X84709Y30861D1*X85598Y29845D2*X85598Y32893D1*X86360Y33210D2*X86360Y29528D1*X88138Y29528D2*X88138Y33210D1*X84328Y31877D2*X84201Y31877D1*X81610Y26815D2*X82154Y27358D1*X82154Y25730*X82695Y25730D2*X81610Y25730D1*X80518Y25273D2*X80518Y22225D1*X80137Y23241D2*X79629Y23241D1*X79121Y23241*X79629Y23241D2*X79121Y24257D1*X79248Y24257*X80137Y24257*X79629Y23241*X79629Y23495*X79629Y23749*X79629Y24638*X78740Y25273D2*X78740Y22225D1*X79629Y22860D2*X79629Y23241D1*X83820Y22225D2*X83820Y25273D1*X84201Y24257D2*X84709Y23241D1*X85217Y23241*X84709Y23241D2*X84709Y23495D1*X84709Y23749*X84709Y24638*X84328Y24257D2*X85217Y24257D1*X84709Y23241*X84201Y23241*X84709Y22860D2*X84709Y23241D1*X85598Y22225D2*X85598Y25273D1*X86690Y26002D2*X87775Y27087D1*X87775Y26002*X87503Y25730*X86962Y25730*X86690Y26002*X86690Y27087*X86962Y27358*X87503Y27358*X87775Y27087*X84328Y24257D2*X84201Y24257D1*D113*X14224Y20574D2*X7239Y20574D1*X7239Y35814D2*X14224Y35814D1*X14224Y51054D2*X7239Y51054D1*D114*X22098Y47117D2*X22479Y46355D1*X22606Y46863*X22733Y46863*X22479Y46355*X22606Y46482D2*X22860Y46990D1*X22225Y46990*X22479Y46609*X22352Y46863D2*X22606Y46863D1*X22225Y46990D2*X22098Y46990D1*X27178Y46990D2*X27305Y46990D1*X27559Y46609*X27686Y46482D2*X27940Y46990D1*X27305Y46990*X27178Y47117D2*X27559Y46355D1*X27686Y46863*X27813Y46863*X27559Y46355*X27432Y46863D2*X27686Y46863D1*X32258Y46990D2*X32385Y46990D1*X32639Y46609*X32766Y46482D2*X33020Y46990D1*X32385Y46990*X32258Y47117D2*X32639Y46355D1*X32766Y46863*X32893Y46863*X32639Y46355*X32512Y46863D2*X32766Y46863D1*X37338Y46990D2*X37465Y46990D1*X37719Y46609*X37846Y46482D2*X38100Y46990D1*X37465Y46990*X37338Y47117D2*X37719Y46355D1*X37846Y46863*X37973Y46863*X37719Y46355*X37592Y46863D2*X37846Y46863D1*X42418Y46990D2*X42545Y46990D1*X42799Y46609*X42926Y46482D2*X43180Y46990D1*X42545Y46990*X42418Y47117D2*X42799Y46355D1*X42926Y46863*X43053Y46863*X42799Y46355*X42672Y46863D2*X42926Y46863D1*X47498Y46990D2*X47625Y46990D1*X47879Y46609*X48006Y46482D2*X48260Y46990D1*X47625Y46990*X47498Y47117D2*X47879Y46355D1*X48006Y46863*X48133Y46863*X47879Y46355*X47752Y46863D2*X48006Y46863D1*X47498Y39497D2*X47879Y38735D1*X48006Y39243*X48133Y39243*X47879Y38735*X48006Y38862D2*X48260Y39370D1*X47625Y39370*X47879Y38989*X47752Y39243D2*X48006Y39243D1*X47625Y39370D2*X47498Y39370D1*X43180Y39370D2*X42926Y38862D1*X42799Y38735D2*X42926Y39243D1*X43053Y39243*X42799Y38735*X42418Y39497*X42418Y39370D2*X42545Y39370D1*X42799Y38989*X42672Y39243D2*X42926Y39243D1*X43180Y39370D2*X42545Y39370D1*X38100Y39370D2*X37846Y38862D1*X37719Y38735D2*X37846Y39243D1*X37973Y39243*X37719Y38735*X37338Y39497*X37338Y39370D2*X37465Y39370D1*X37719Y38989*X37592Y39243D2*X37846Y39243D1*X38100Y39370D2*X37465Y39370D1*X33020Y39370D2*X32766Y38862D1*X32639Y38735D2*X32766Y39243D1*X32893Y39243*X32639Y38735*X32258Y39497*X32258Y39370D2*X32385Y39370D1*X32639Y38989*X32512Y39243D2*X32766Y39243D1*X33020Y39370D2*X32385Y39370D1*X27940Y39370D2*X27686Y38862D1*X27559Y38735D2*X27686Y39243D1*X27813Y39243*X27559Y38735*X27178Y39497*X27178Y39370D2*X27305Y39370D1*X27559Y38989*X27432Y39243D2*X27686Y39243D1*X27940Y39370D2*X27305Y39370D1*X22860Y39370D2*X22606Y38862D1*X22479Y38735D2*X22606Y39243D1*X22733Y39243*X22479Y38735*X22098Y39497*X22098Y39370D2*X22225Y39370D1*X22479Y38989*X22352Y39243D2*X22606Y39243D1*X22860Y39370D2*X22225Y39370D1*X22098Y31877D2*X22479Y31115D1*X22606Y31623*X22733Y31623*X22479Y31115*X22606Y31242D2*X22860Y31750D1*X22225Y31750*X22479Y31369*X22352Y31623D2*X22606Y31623D1*X22225Y31750D2*X22098Y31750D1*X27178Y31750D2*X27305Y31750D1*X27559Y31369*X27686Y31242D2*X27940Y31750D1*X27305Y31750*X27178Y31877D2*X27559Y31115D1*X27686Y31623*X27813Y31623*X27559Y31115*X27432Y31623D2*X27686Y31623D1*X32258Y31750D2*X32385Y31750D1*X32639Y31369*X32766Y31242D2*X33020Y31750D1*X32385Y31750*X32512Y31623D2*X32766Y31623D1*X32639Y31115*X32893Y31623*X32766Y31623*X32639Y31115D2*X32258Y31877D1*X37338Y31877D2*X37719Y31115D1*X37846Y31623*X37973Y31623*X37719Y31115*X37846Y31242D2*X38100Y31750D1*X37465Y31750*X37719Y31369*X37592Y31623D2*X37846Y31623D1*X37465Y31750D2*X37338Y31750D1*X42418Y31750D2*X42545Y31750D1*X42799Y31369*X42926Y31242D2*X43180Y31750D1*X42545Y31750*X42672Y31623D2*X42926Y31623D1*X42799Y31115*X43053Y31623*X42926Y31623*X42799Y31115D2*X42418Y31877D1*X47498Y31877D2*X47879Y31115D1*X48006Y31623*X48133Y31623*X47879Y31115*X48006Y31242D2*X48260Y31750D1*X47625Y31750*X47879Y31369*X47752Y31623D2*X48006Y31623D1*X47625Y31750D2*X47498Y31750D1*X47498Y24257D2*X47879Y23495D1*X48006Y24003*X48133Y24003*X47879Y23495*X48006Y23622D2*X48260Y24130D1*X47625Y24130*X47879Y23749*X47752Y24003D2*X48006Y24003D1*X47625Y24130D2*X47498Y24130D1*X43180Y24130D2*X42926Y23622D1*X42799Y23495D2*X42926Y24003D1*X43053Y24003*X42799Y23495*X42418Y24257*X42418Y24130D2*X42545Y24130D1*X42799Y23749*X42672Y24003D2*X42926Y24003D1*X43180Y24130D2*X42545Y24130D1*X38100Y24130D2*X37846Y23622D1*X37719Y23495D2*X37846Y24003D1*X37973Y24003*X37719Y23495*X37338Y24257*X37338Y24130D2*X37465Y24130D1*X37719Y23749*X37592Y24003D2*X37846Y24003D1*X38100Y24130D2*X37465Y24130D1*X33020Y24130D2*X32766Y23622D1*X32639Y23495D2*X32766Y24003D1*X32893Y24003*X32639Y23495*X32258Y24257*X32258Y24130D2*X32385Y24130D1*X32639Y23749*X32512Y24003D2*X32766Y24003D1*X33020Y24130D2*X32385Y24130D1*X27940Y24130D2*X27686Y23622D1*X27559Y23495D2*X27686Y24003D1*X27813Y24003*X27559Y23495*X27178Y24257*X27178Y24130D2*X27305Y24130D1*X27559Y23749*X27432Y24003D2*X27686Y24003D1*X27940Y24130D2*X27305Y24130D1*X22860Y24130D2*X22606Y23622D1*X22479Y23495D2*X22606Y24003D1*X22733Y24003*X22479Y23495*X22098Y24257*X22098Y24130D2*X22225Y24130D1*X22479Y23749*X22352Y24003D2*X22606Y24003D1*X22860Y24130D2*X22225Y24130D1*X28194Y19304D2*X28194Y16764D1*X28194Y11684*X28194Y9144*X47244Y9144D2*X52324Y9144D1*X52324Y18034D2*X47244Y18034D1*X47244Y19304*X52324Y19304*X52324Y18034*X52324Y18118D2*X47244Y18118D1*X47244Y18240D2*X52324Y18240D1*X52324Y18364D2*X47244Y18364D1*X47244Y18486D2*X52324Y18486D1*X52324Y18611D2*X47244Y18611D1*X47244Y18732D2*X52324Y18732D1*X52324Y18857D2*X47244Y18857D1*X47244Y18979D2*X52324Y18979D1*X52324Y19103D2*X47244Y19103D1*X47244Y19225D2*X52324Y19225D1*X61214Y19939D2*X61849Y18669D1*X62484Y19939*X61214Y19939*X61262Y19842D2*X62436Y19842D1*X62375Y19718D2*X61323Y19718D1*X61387Y19596D2*X62311Y19596D1*X62250Y19472D2*X61448Y19472D1*X61509Y19350D2*X62189Y19350D1*X62128Y19225D2*X61570Y19225D1*X61633Y19103D2*X62065Y19103D1*X62004Y18979D2*X61694Y18979D1*X61755Y18857D2*X61943Y18857D1*X61882Y18732D2*X61816Y18732D1*X71374Y19304D2*X71374Y16764D1*X71374Y11684*X71374Y9144*X79629Y23495D2*X79756Y24003D1*X79883Y24003*X79629Y23495*X79248Y24257*X79248Y24130D2*X79375Y24130D1*X79629Y23749*X79756Y23622D2*X80010Y24130D1*X79375Y24130*X79502Y24003D2*X79756Y24003D1*X84328Y24130D2*X84455Y24130D1*X84709Y23749*X84836Y23622D2*X85090Y24130D1*X84455Y24130*X84582Y24003D2*X84836Y24003D1*X84709Y23495*X84963Y24003*X84836Y24003*X84709Y23495D2*X84328Y24257D1*X84709Y31115D2*X84836Y31623D1*X84963Y31623*X84709Y31115*X84328Y31877*X84328Y31750D2*X84455Y31750D1*X84709Y31369*X84836Y31242D2*X85090Y31750D1*X84455Y31750*X84582Y31623D2*X84836Y31623D1*X80010Y31750D2*X79756Y31242D1*X79629Y31115D2*X79756Y31623D1*X79883Y31623*X79629Y31115*X79248Y31877*X79248Y31750D2*X79375Y31750D1*X79629Y31369*X79502Y31623D2*X79756Y31623D1*X80010Y31750D2*X79375Y31750D1*X79629Y38735D2*X79756Y39243D1*X79883Y39243*X79629Y38735*X79248Y39497*X79248Y39370D2*X79375Y39370D1*X79629Y38989*X79756Y38862D2*X80010Y39370D1*X79375Y39370*X79502Y39243D2*X79756Y39243D1*X84328Y39370D2*X84455Y39370D1*X84709Y38989*X84836Y38862D2*X85090Y39370D1*X84455Y39370*X84582Y39243D2*X84836Y39243D1*X84709Y38735*X84963Y39243*X84836Y39243*X84709Y38735D2*X84328Y39497D1*X84709Y46355D2*X84836Y46863D1*X84963Y46863*X84709Y46355*X84328Y47117*X84328Y46990D2*X84455Y46990D1*X84709Y46609*X84836Y46482D2*X85090Y46990D1*X84455Y46990*X84582Y46863D2*X84836Y46863D1*X80010Y46990D2*X79756Y46482D1*X79629Y46355D2*X79756Y46863D1*X79883Y46863*X79629Y46355*X79248Y47117*X79248Y46990D2*X79375Y46990D1*X79629Y46609*X79502Y46863D2*X79756Y46863D1*X80010Y46990D2*X79375Y46990D1*X80645Y54991D2*X80264Y55753D1*X80137Y55245*X80010Y55245*X80264Y55753*X80137Y55626D2*X79883Y55118D1*X80518Y55118*X80264Y55499*X80391Y55245D2*X80137Y55245D1*X80518Y55118D2*X80645Y55118D1*X84963Y55118D2*X85217Y55626D1*X85344Y55753D2*X85217Y55245D1*X85090Y55245*X85344Y55753*X85725Y54991*X85725Y55118D2*X85598Y55118D1*X85344Y55499*X85471Y55245D2*X85217Y55245D1*X84963Y55118D2*X85598Y55118D1*X85725Y62611D2*X85344Y63373D1*X85217Y62865*X85090Y62865*X85344Y63373*X85217Y63246D2*X84963Y62738D1*X85598Y62738*X85344Y63119*X85471Y62865D2*X85217Y62865D1*X85598Y62738D2*X85725Y62738D1*X80645Y62738D2*X80518Y62738D1*X80264Y63119*X80137Y63246D2*X79883Y62738D1*X80518Y62738*X80391Y62865D2*X80137Y62865D1*X80264Y63373*X80010Y62865*X80137Y62865*X80264Y63373D2*X80645Y62611D1*X80645Y70231D2*X80264Y70993D1*X80137Y70485*X80010Y70485*X80264Y70993*X80137Y70866D2*X79883Y70358D1*X80518Y70358*X80264Y70739*X80391Y70485D2*X80137Y70485D1*X80518Y70358D2*X80645Y70358D1*X84963Y70358D2*X85217Y70866D1*X85344Y70993D2*X85217Y70485D1*X85090Y70485*X85344Y70993*X85725Y70231*X85725Y70358D2*X85598Y70358D1*X85344Y70739*X85471Y70485D2*X85217Y70485D1*X84963Y70358D2*X85598Y70358D1*X90043Y70358D2*X90297Y70866D1*X90424Y70993D2*X90297Y70485D1*X90170Y70485*X90424Y70993*X90805Y70231*X90805Y70358D2*X90678Y70358D1*X90424Y70739*X90551Y70485D2*X90297Y70485D1*X90043Y70358D2*X90678Y70358D1*X90805Y77851D2*X90424Y78613D1*X90297Y78105*X90170Y78105*X90424Y78613*X90297Y78486D2*X90043Y77978D1*X90678Y77978*X90424Y78359*X90551Y78105D2*X90297Y78105D1*X90678Y77978D2*X90805Y77978D1*X85725Y77978D2*X85598Y77978D1*X85344Y78359*X85217Y78486D2*X84963Y77978D1*X85598Y77978*X85471Y78105D2*X85217Y78105D1*X85344Y78613*X85090Y78105*X85217Y78105*X85344Y78613D2*X85725Y77851D1*X80645Y77851D2*X80264Y78613D1*X80137Y78105*X80010Y78105*X80264Y78613*X80137Y78486D2*X79883Y77978D1*X80518Y77978*X80264Y78359*X80391Y78105D2*X80137Y78105D1*X80518Y77978D2*X80645Y77978D1*X71374Y82804D2*X71374Y85344D1*X71374Y90424*X71374Y92964*X55499Y78613D2*X55880Y77851D1*X55880Y77978D2*X55753Y77978D1*X55499Y78359*X55372Y78486D2*X55118Y77978D1*X55753Y77978*X55626Y78105D2*X55372Y78105D1*X55499Y78613*X55245Y78105*X55372Y78105*X50800Y77978D2*X50673Y77978D1*X50419Y78359*X50292Y78486D2*X50038Y77978D1*X50673Y77978*X50546Y78105D2*X50292Y78105D1*X50419Y78613*X50165Y78105*X50292Y78105*X50419Y78613D2*X50800Y77851D1*X52324Y82804D2*X47244Y82804D1*X47244Y84074*X52324Y84074*X52324Y82804*X52324Y82916D2*X47244Y82916D1*X47244Y83038D2*X52324Y83038D1*X52324Y83162D2*X47244Y83162D1*X47244Y83284D2*X52324Y83284D1*X52324Y83409D2*X47244Y83409D1*X47244Y83530D2*X52324Y83530D1*X52324Y83655D2*X47244Y83655D1*X47244Y83777D2*X52324Y83777D1*X52324Y83901D2*X47244Y83901D1*X47244Y84023D2*X52324Y84023D1*X45339Y78613D2*X45212Y78105D1*X45085Y78105*X45339Y78613*X45720Y77851*X45720Y77978D2*X45593Y77978D1*X45339Y78359*X45212Y78486D2*X44958Y77978D1*X45593Y77978*X45466Y78105D2*X45212Y78105D1*X40640Y77978D2*X40513Y77978D1*X40259Y78359*X40132Y78486D2*X39878Y77978D1*X40513Y77978*X40386Y78105D2*X40132Y78105D1*X40259Y78613*X40005Y78105*X40132Y78105*X40259Y78613D2*X40640Y77851D1*X38354Y82169D2*X37084Y82169D1*X37719Y83439*X38354Y82169*X38351Y82177D2*X37087Y82177D1*X37150Y82299D2*X38288Y82299D1*X38227Y82423D2*X37211Y82423D1*X37272Y82545D2*X38166Y82545D1*X38105Y82669D2*X37333Y82669D1*X37396Y82791D2*X38042Y82791D1*X37981Y82916D2*X37457Y82916D1*X37518Y83038D2*X37920Y83038D1*X37859Y83162D2*X37579Y83162D1*X37643Y83284D2*X37795Y83284D1*X37734Y83409D2*X37704Y83409D1*X35179Y78613D2*X35052Y78105D1*X34925Y78105*X35179Y78613*X35560Y77851*X35560Y77978D2*X35433Y77978D1*X35179Y78359*X35052Y78486D2*X34798Y77978D1*X35433Y77978*X35306Y78105D2*X35052Y78105D1*X30480Y77978D2*X30353Y77978D1*X30099Y78359*X29972Y78486D2*X29718Y77978D1*X30353Y77978*X30480Y77851D2*X30099Y78613D1*X29972Y78105*X29845Y78105*X30099Y78613*X30226Y78105D2*X29972Y78105D1*X25400Y77978D2*X25273Y77978D1*X25019Y78359*X24892Y78486D2*X24638Y77978D1*X25273Y77978*X25146Y78105D2*X24892Y78105D1*X25019Y78613*X24765Y78105*X24892Y78105*X25019Y78613D2*X25400Y77851D1*X28194Y82804D2*X28194Y85344D1*X28194Y90424*X28194Y92964*X47244Y92964D2*X52324Y92964D1*X50419Y70993D2*X50292Y70485D1*X50165Y70485*X50419Y70993*X50800Y70231*X50800Y70358D2*X50673Y70358D1*X50419Y70739*X50292Y70866D2*X50038Y70358D1*X50673Y70358*X50546Y70485D2*X50292Y70485D1*X45720Y70358D2*X45593Y70358D1*X45339Y70739*X45212Y70866D2*X44958Y70358D1*X45593Y70358*X45466Y70485D2*X45212Y70485D1*X45339Y70993*X45085Y70485*X45212Y70485*X45339Y70993D2*X45720Y70231D1*X40640Y70231D2*X40259Y70993D1*X40132Y70485*X40005Y70485*X40259Y70993*X40132Y70866D2*X39878Y70358D1*X40513Y70358*X40259Y70739*X40386Y70485D2*X40132Y70485D1*X40513Y70358D2*X40640Y70358D1*X35560Y70358D2*X35433Y70358D1*X35179Y70739*X35052Y70866D2*X34798Y70358D1*X35433Y70358*X35306Y70485D2*X35052Y70485D1*X35179Y70993*X34925Y70485*X35052Y70485*X35179Y70993D2*X35560Y70231D1*X30480Y70231D2*X30099Y70993D1*X29972Y70485*X29845Y70485*X30099Y70993*X29972Y70866D2*X29718Y70358D1*X30353Y70358*X30099Y70739*X30226Y70485D2*X29972Y70485D1*X30353Y70358D2*X30480Y70358D1*X25400Y70358D2*X25273Y70358D1*X25019Y70739*X24892Y70866D2*X24638Y70358D1*X25273Y70358*X25146Y70485D2*X24892Y70485D1*X25019Y70993*X24765Y70485*X24892Y70485*X25019Y70993D2*X25400Y70231D1*X25019Y63373D2*X24892Y62865D1*X24765Y62865*X25019Y63373*X25400Y62611*X25400Y62738D2*X25273Y62738D1*X25019Y63119*X24892Y63246D2*X24638Y62738D1*X25273Y62738*X25146Y62865D2*X24892Y62865D1*X29718Y62738D2*X29972Y63246D1*X30099Y63373D2*X29972Y62865D1*X29845Y62865*X30099Y63373*X30480Y62611*X30480Y62738D2*X30353Y62738D1*X30099Y63119*X30226Y62865D2*X29972Y62865D1*X29718Y62738D2*X30353Y62738D1*X34798Y62738D2*X35052Y63246D1*X35179Y63373D2*X35052Y62865D1*X34925Y62865*X35179Y63373*X35560Y62611*X35560Y62738D2*X35433Y62738D1*X35179Y63119*X35306Y62865D2*X35052Y62865D1*X34798Y62738D2*X35433Y62738D1*X39878Y62738D2*X40132Y63246D1*X40259Y63373D2*X40132Y62865D1*X40005Y62865*X40259Y63373*X40640Y62611*X40640Y62738D2*X40513Y62738D1*X40259Y63119*X40386Y62865D2*X40132Y62865D1*X39878Y62738D2*X40513Y62738D1*X44958Y62738D2*X45212Y63246D1*X45339Y63373D2*X45212Y62865D1*X45085Y62865*X45339Y63373*X45720Y62611*X45720Y62738D2*X45593Y62738D1*X45339Y63119*X45466Y62865D2*X45212Y62865D1*X44958Y62738D2*X45593Y62738D1*X50038Y62738D2*X50292Y63246D1*X50419Y63373D2*X50292Y62865D1*X50165Y62865*X50419Y63373*X50800Y62611*X50800Y62738D2*X50673Y62738D1*X50419Y63119*X50546Y62865D2*X50292Y62865D1*X50038Y62738D2*X50673Y62738D1*X50419Y55753D2*X50292Y55245D1*X50165Y55245*X50419Y55753*X50800Y54991*X50800Y55118D2*X50673Y55118D1*X50419Y55499*X50292Y55626D2*X50038Y55118D1*X50673Y55118*X50546Y55245D2*X50292Y55245D1*X45720Y55118D2*X45593Y55118D1*X45339Y55499*X45212Y55626D2*X44958Y55118D1*X45593Y55118*X45466Y55245D2*X45212Y55245D1*X45339Y55753*X45085Y55245*X45212Y55245*X45339Y55753D2*X45720Y54991D1*X40640Y54991D2*X40259Y55753D1*X40132Y55245*X40005Y55245*X40259Y55753*X40132Y55626D2*X39878Y55118D1*X40513Y55118*X40259Y55499*X40386Y55245D2*X40132Y55245D1*X40513Y55118D2*X40640Y55118D1*X35560Y55118D2*X35433Y55118D1*X35179Y55499*X35052Y55626D2*X34798Y55118D1*X35433Y55118*X35306Y55245D2*X35052Y55245D1*X35179Y55753*X34925Y55245*X35052Y55245*X35179Y55753D2*X35560Y54991D1*X30480Y54991D2*X30099Y55753D1*X29972Y55245*X29845Y55245*X30099Y55753*X29972Y55626D2*X29718Y55118D1*X30353Y55118*X30099Y55499*X30226Y55245D2*X29972Y55245D1*X30353Y55118D2*X30480Y55118D1*X25400Y55118D2*X25273Y55118D1*X25019Y55499*X24892Y55626D2*X24638Y55118D1*X25273Y55118*X25146Y55245D2*X24892Y55245D1*X25019Y55753*X24765Y55245*X24892Y55245*X25019Y55753D2*X25400Y54991D1*X55118Y70358D2*X55372Y70866D1*X55499Y70993D2*X55372Y70485D1*X55245Y70485*X55499Y70993*X55880Y70231*X55880Y70358D2*X55753Y70358D1*X55499Y70739*X55626Y70485D2*X55372Y70485D1*X55118Y70358D2*X55753Y70358D1*D123*X34206Y81585D2*X33426Y81585D1*X34206Y82365*X34206Y82560*X34011Y82753*X33619Y82753*X33426Y82560*X33035Y82753D2*X32647Y82753D1*X32840Y82753D2*X32840Y81780D1*X32647Y81585*X32451Y81585*X32255Y81780*X19063Y69888D2*X18606Y69888D1*X18453Y69736*X18453Y69278*X19063Y69278*X18910Y68953D2*X18301Y68953D1*X18910Y68344*X19063Y68496*X19063Y68801*X18910Y68953*X18301Y68953D2*X18148Y68801D1*X18148Y68496*X18301Y68344*X18910Y68344*X18910Y68019D2*X18301Y68019D1*X18910Y67407*X19063Y67559*X19063Y67864*X18910Y68019*X18301Y68019D2*X18148Y67864D1*X18148Y67559*X18301Y67407*X18910Y67407*X19063Y67081D2*X19063Y66472D1*X19063Y66777D2*X18148Y66777D1*X18453Y66472*X18428Y35598D2*X17970Y35598D1*X17818Y35446*X17818Y34988*X18428Y34988*X18275Y34663D2*X18428Y34511D1*X18428Y34206*X18275Y34054*X17666Y34663*X18275Y34663*X17666Y34663D2*X17513Y34511D1*X17513Y34206*X17666Y34054*X18275Y34054*X18275Y33729D2*X18428Y33574D1*X18428Y33269*X18275Y33117*X17666Y33729*X18275Y33729*X17666Y33729D2*X17513Y33574D1*X17513Y33269*X17666Y33117*X18275Y33117*X18428Y32791D2*X18428Y32182D1*X18428Y32487D2*X17513Y32487D1*X17818Y32182*X65075Y19550D2*X65270Y19355D1*X65463Y19355*X65659Y19550*X65659Y20523*X65463Y20523D2*X65855Y20523D1*X66243Y20135D2*X66634Y20523D1*X66634Y19355*X67023Y19355D2*X66243Y19355D1*X90208Y60757D2*X89903Y61062D1*X90818Y61062*X90818Y60757D2*X90818Y61366D1*X90665Y61692D2*X90056Y62304D1*X90665Y62304*X90818Y62149*X90818Y61844*X90665Y61692*X90056Y61692*X89903Y61844*X89903Y62149*X90056Y62304*X90056Y62629D2*X89903Y62781D1*X89903Y63086*X90056Y63238*X90665Y62629*X90818Y62781*X90818Y63086*X90665Y63238*X90056Y63238*X90208Y63564D2*X90208Y64021D1*X90360Y64173*X90818Y64173*X90818Y63564D2*X90208Y63564D1*X90056Y62629D2*X90665Y62629D1*X49568Y102095D2*X49568Y102552D1*X49416Y102705*X48958Y102705*X48958Y102095*X48633Y102248D2*X48633Y102857D1*X48024Y102248*X48176Y102095*X48481Y102095*X48633Y102248*X48633Y102857D2*X48481Y103010D1*X48176Y103010*X48024Y102857*X48024Y102248*X47699Y102248D2*X47699Y102857D1*X47087Y102248*X47239Y102095*X47544Y102095*X47699Y102248*X47699Y102857D2*X47544Y103010D1*X47239Y103010*X47087Y102857*X47087Y102248*X46761Y102095D2*X46152Y102095D1*X46457Y102095D2*X46457Y103010D1*X46152Y102705*D124*X46515Y99085D2*X46515Y98146D1*X46203Y98146D2*X46830Y98146D1*X47137Y98303D2*X47765Y98930D1*X47765Y98303*X47607Y98146*X47295Y98146*X47137Y98303*X47137Y98930*X47295Y99085*X47607Y99085*X47765Y98930*X48075Y99085D2*X48075Y98146D1*X48544Y98773D2*X48075Y98458D1*X48544Y98146*X46515Y99085D2*X46203Y98773D1*X47658Y72182D2*X47973Y71712D1*X48285Y72182*X48285Y71712D2*X47346Y71712D1*X47346Y71090D2*X48285Y71090D1*X48285Y70777D2*X48285Y71404D1*X47658Y70777D2*X47346Y71090D1*X43205Y71090D2*X42266Y71090D1*X42578Y70777*X43205Y70777D2*X43205Y71404D1*X43205Y71712D2*X42266Y71712D1*X42578Y72182D2*X42893Y71712D1*X43205Y72182*X38125Y72182D2*X37813Y71712D1*X37498Y72182*X37186Y71712D2*X38125Y71712D1*X38125Y71404D2*X38125Y70777D1*X38125Y71090D2*X37186Y71090D1*X37498Y70777*X33045Y70777D2*X33045Y71404D1*X33045Y71712D2*X32106Y71712D1*X32418Y72182D2*X32733Y71712D1*X33045Y72182*X33045Y71090D2*X32106Y71090D1*X32418Y70777*X27965Y70777D2*X27965Y71404D1*X27965Y71712D2*X27026Y71712D1*X27338Y72182D2*X27653Y71712D1*X27965Y72182*X27965Y71090D2*X27026Y71090D1*X27338Y70777*X22885Y70777D2*X22885Y71404D1*X22885Y71712D2*X21946Y71712D1*X22258Y72182D2*X22573Y71712D1*X22885Y72182*X22885Y71090D2*X21946Y71090D1*X22258Y70777*X22258Y56942D2*X22573Y56472D1*X22885Y56942*X22885Y56472D2*X21946Y56472D1*X21946Y55850D2*X22885Y55850D1*X22885Y55537D2*X22885Y56164D1*X22258Y55537D2*X21946Y55850D1*X27026Y55850D2*X27965Y55850D1*X27965Y55537D2*X27965Y56164D1*X27965Y56472D2*X27026Y56472D1*X27338Y56942D2*X27653Y56472D1*X27965Y56942*X27026Y55850D2*X27338Y55537D1*X32106Y55850D2*X33045Y55850D1*X33045Y55537D2*X33045Y56164D1*X33045Y56472D2*X32106Y56472D1*X32418Y56942D2*X32733Y56472D1*X33045Y56942*X32106Y55850D2*X32418Y55537D1*X37186Y55850D2*X38125Y55850D1*X38125Y55537D2*X38125Y56164D1*X38125Y56472D2*X37186Y56472D1*X37498Y56942D2*X37813Y56472D1*X38125Y56942*X37186Y55850D2*X37498Y55537D1*X42266Y55850D2*X43205Y55850D1*X43205Y55537D2*X43205Y56164D1*X43205Y56472D2*X42266Y56472D1*X42578Y56942D2*X42893Y56472D1*X43205Y56942*X42266Y55850D2*X42578Y55537D1*X47346Y55850D2*X48285Y55850D1*X48285Y55537D2*X48285Y56164D1*X48285Y56472D2*X47346Y56472D1*X47658Y56942D2*X47973Y56472D1*X48285Y56942*X47346Y55850D2*X47658Y55537D1*X45872Y46337D2*X45560Y45867D1*X45245Y46337*X44933Y45867D2*X45872Y45867D1*X45872Y45560D2*X45872Y44933D1*X45872Y45245D2*X44933Y45245D1*X45245Y44933*X40792Y44933D2*X40792Y45560D1*X40792Y45867D2*X39853Y45867D1*X40165Y46337D2*X40480Y45867D1*X40792Y46337*X40792Y45245D2*X39853Y45245D1*X40165Y44933*X35712Y44933D2*X35712Y45560D1*X35712Y45867D2*X34773Y45867D1*X35085Y46337D2*X35400Y45867D1*X35712Y46337*X35712Y45245D2*X34773Y45245D1*X35085Y44933*X30632Y44933D2*X30632Y45560D1*X30632Y45867D2*X29693Y45867D1*X30005Y46337D2*X30320Y45867D1*X30632Y46337*X30632Y45245D2*X29693Y45245D1*X30005Y44933*X25552Y44933D2*X25552Y45560D1*X25552Y45867D2*X24613Y45867D1*X24925Y46337D2*X25240Y45867D1*X25552Y46337*X25552Y45245D2*X24613Y45245D1*X24925Y44933*X24925Y31097D2*X25240Y30627D1*X25552Y31097*X25552Y30627D2*X24613Y30627D1*X24613Y30005D2*X25552Y30005D1*X25552Y29693D2*X25552Y30320D1*X24925Y29693D2*X24613Y30005D1*X30005Y29693D2*X29693Y30005D1*X30632Y30005*X30632Y29693D2*X30632Y30320D1*X30632Y30627D2*X29693Y30627D1*X30005Y31097D2*X30320Y30627D1*X30632Y31097*X34773Y30627D2*X35712Y30627D1*X35712Y30320D2*X35712Y29693D1*X35712Y30005D2*X34773Y30005D1*X35085Y29693*X35085Y31097D2*X35400Y30627D1*X35712Y31097*X39853Y30627D2*X40792Y30627D1*X40792Y30320D2*X40792Y29693D1*X40792Y30005D2*X39853Y30005D1*X40165Y29693*X40165Y31097D2*X40480Y30627D1*X40792Y31097*X44933Y30627D2*X45872Y30627D1*X45872Y30320D2*X45872Y29693D1*X45872Y30005D2*X44933Y30005D1*X45245Y29693*X45245Y31097D2*X45560Y30627D1*X45872Y31097*X50013Y30627D2*X50952Y30627D1*X50952Y30320D2*X50952Y29693D1*X50952Y30005D2*X50013Y30005D1*X50325Y29693*X50325Y31097D2*X50640Y30627D1*X50952Y31097*X50952Y44933D2*X50952Y45560D1*X50952Y45867D2*X50013Y45867D1*X50325Y46337D2*X50640Y45867D1*X50952Y46337*X50952Y45245D2*X50013Y45245D1*X50325Y44933*X52738Y70777D2*X52426Y71090D1*X53365Y71090*X53365Y70777D2*X53365Y71404D1*X53365Y71712D2*X52426Y71712D1*X52738Y72182D2*X53053Y71712D1*X53365Y72182*X77191Y71712D2*X78130Y71712D1*X78130Y71404D2*X78130Y70777D1*X78130Y71090D2*X77191Y71090D1*X77503Y70777*X77503Y72182D2*X77818Y71712D1*X78130Y72182*X82271Y71712D2*X83210Y71712D1*X83210Y71404D2*X83210Y70777D1*X83210Y71090D2*X82271Y71090D1*X82583Y70777*X82583Y72182D2*X82898Y71712D1*X83210Y72182*X87351Y71712D2*X88290Y71712D1*X88290Y71404D2*X88290Y70777D1*X88290Y71090D2*X87351Y71090D1*X87663Y70777*X87663Y72182D2*X87978Y71712D1*X88290Y72182*X83210Y56942D2*X82898Y56472D1*X82583Y56942*X82271Y56472D2*X83210Y56472D1*X83210Y56164D2*X83210Y55537D1*X83210Y55850D2*X82271Y55850D1*X82583Y55537*X78130Y55537D2*X78130Y56164D1*X78130Y56472D2*X77191Y56472D1*X77503Y56942D2*X77818Y56472D1*X78130Y56942*X78130Y55850D2*X77191Y55850D1*X77503Y55537*X82075Y46337D2*X82390Y45867D1*X82702Y46337*X82702Y45867D2*X81763Y45867D1*X81763Y45245D2*X82702Y45245D1*X82702Y44933D2*X82702Y45560D1*X82075Y44933D2*X81763Y45245D1*X86843Y45245D2*X87782Y45245D1*X87782Y44933D2*X87782Y45560D1*X87782Y45867D2*X86843Y45867D1*X87155Y46337D2*X87470Y45867D1*X87782Y46337*X86843Y45245D2*X87155Y44933D1*X87155Y31097D2*X87470Y30627D1*X87782Y31097*X87782Y30627D2*X86843Y30627D1*X86843Y30005D2*X87782Y30005D1*X87782Y29693D2*X87782Y30320D1*X87155Y29693D2*X86843Y30005D1*X82702Y30005D2*X81763Y30005D1*X82075Y29693*X82702Y29693D2*X82702Y30320D1*X82702Y30627D2*X81763Y30627D1*X82075Y31097D2*X82390Y30627D1*X82702Y31097*X0Y0D2*M02*