G04 Output by ViewMate Deluxe V11.0.9  PentaLogix LLC*
G04 Sun Jun 14 09:42:27 2015*
%FSLAX33Y33*%
%MOMM*%
%IPPOS*%
%ADD10R,1.651X1.651*%
%ADD11C,1.651*%
%ADD12C,1.3208*%
%ADD13C,1.3081*%
%ADD14R,3.81X3.81*%
%ADD15C,0.4064*%
%ADD16C,1.016*%
%ADD17C,0.6096*%

%LPD*%
X0Y0D2*D15*G1X45339Y102489D2*X45339Y98679D1*X50419Y98679D2*X50419Y102489D1*X68199Y47244D2*X68199Y49784D1*X68199Y52324*X80264Y73279D2*X80264Y75819D1*X87884Y68199D2*X90424Y70739D1*X90424Y73279*X90424Y75819*X87884Y73279D2*X87884Y88519D1*X85344Y75819D2*X85344Y73279D1*X85344Y70739*X82804Y68199*X85344Y65024D2*X85344Y65659D1*X92964Y59944D2*X90424Y59944D1*X85344Y65024*X80264Y58039D2*X80264Y60579D1*X77724Y52959D2*X80264Y55499D1*X80264Y58039*X77724Y58039D2*X75819Y59944D1*X75819Y91059*X77724Y73279D2*X77724Y83439D1*X77724Y68199D2*X80264Y70739D1*X80264Y73279*X82804Y86614D2*X82804Y73279D1*X81534Y92329D2*X81534Y59309D1*X82804Y58039*X85344Y60579D2*X85344Y58039D1*X85344Y55499*X82804Y52959*X82169Y46609D2*X82169Y49149D1*X87249Y33909D2*X87249Y31369D1*X82169Y33909D2*X82169Y31369D1*X79629Y28829*X79629Y26289*X82169Y28829D2*X82169Y16129D1*X84709Y26289D2*X84709Y28829D1*X87249Y31369*X87249Y14224D2*X87249Y28829D1*X89154Y18669D2*X89154Y42164D1*X87249Y44069*X87249Y49149D2*X87249Y46609D1*X84709Y44069*X84709Y41529*X79629Y41529D2*X79629Y44069D1*X82169Y46609*X82169Y44069D2*X82169Y38989D1*X80899Y37719*X78359Y37719*X77089Y36449*X77089Y19304*X44704Y14224D2*X45974Y12954D1*X51054Y15494D2*X51054Y21844D1*X53594Y12954D2*X52324Y14224D1*X52324Y22479*X53594Y15494D2*X53594Y23114D1*X56134Y24384D2*X56134Y15494D1*X54864Y23749D2*X54864Y14224D1*X56134Y12954*X58674Y12954D2*X57404Y14224D1*X57404Y26924*X55499Y28829*X50419Y28829*X50419Y33909D2*X50419Y31369D1*X47879Y28829*X47879Y26289*X45339Y33909D2*X45339Y32639D1*X42799Y30099*X42799Y26289D2*X42799Y28829D1*X42799Y30099*X40259Y33909D2*X40259Y32639D1*X37719Y30099*X37719Y26289D2*X37719Y28829D1*X37719Y30099*X35179Y33909D2*X35179Y32639D1*X32639Y30099*X32639Y26289D2*X32639Y28829D1*X32639Y30099*X30099Y33909D2*X30099Y32639D1*X27559Y30099*X27559Y28829*X27559Y26289*X22479Y26289D2*X22479Y28829D1*X22479Y30099*X25019Y32639*X25019Y33909*X25019Y49149D2*X25019Y46609D1*X25019Y55499D2*X22479Y52959D1*X35179Y60579D2*X35179Y58039D1*X32639Y63119D2*X32639Y68199D1*X35179Y70739*X35179Y73279*X35179Y75819*X40259Y75819D2*X40259Y73279D1*X40259Y70739*X37719Y68199*X37719Y63754*X50419Y46609D2*X50419Y49149D1*X47879Y41529D2*X47879Y44069D1*X50419Y46609*X50419Y44069D2*X50419Y36449D1*X49149Y35179*X49149Y32004*X46609Y29464*X46609Y23114*X44704Y21209*X44704Y14224*X43434Y15494D2*X43434Y16764D1*X44069Y17399*X44069Y30099*X46609Y32639*X46609Y38354*X45339Y39624*X45339Y44069*X45339Y49149D2*X45339Y46609D1*X42799Y44069*X42799Y41529*X40259Y44069D2*X40259Y39624D1*X41529Y38354*X41529Y32639*X38989Y30099*X38989Y19304*X33909Y18669D2*X33909Y29464D1*X36449Y32004*X36449Y38354*X35179Y39624*X35179Y44069*X37719Y41529D2*X37719Y44069D1*X40259Y46609*X40259Y49149*X45339Y55499D2*X42799Y52959D1*X50419Y60579D2*X50419Y58039D1*X58674Y86614D2*X58674Y72009D1*X56134Y89154D2*X57404Y87884D1*X57404Y84709*X50419Y75819D2*X50419Y73279D1*X50419Y70739*X47879Y68199*X52959Y68199D2*X55499Y70739D1*X55499Y73279*X55499Y75819*X57404Y74549D2*X58039Y75184D1*X58039Y84074*X57404Y84709*X52959Y84709D2*X53594Y85344D1*X53594Y86614*X53594Y89154D2*X54864Y87884D1*X54864Y83439*X53594Y82169*X53594Y77089*X52324Y78359D2*X52959Y78994D1*X52959Y84709*X49149Y84709D2*X49784Y84709D1*X51054Y85979*X51054Y86614*X51054Y89154D2*X52324Y87884D1*X52324Y80264*X51689Y79629*X48514Y79629D2*X48514Y84074D1*X49149Y84709*X45974Y89154D2*X47244Y87884D1*X43434Y89154D2*X44704Y87884D1*X39624Y85344D2*X40894Y86614D1*X42799Y73279D2*X42799Y82169D1*X45339Y75819D2*X45339Y73279D1*X45339Y70739*X42799Y68199*X42799Y64389*X45339Y60579D2*X45339Y58039D1*X45339Y55499*X47879Y52959D2*X50419Y55499D1*X50419Y58039*X47879Y58039D2*X46609Y59309D1*X46609Y83439*X47244Y84074*X47244Y87884*X45974Y86614D2*X45974Y84074D1*X45339Y83439*X42164Y83439*X41529Y82804*X41529Y59309*X42799Y58039*X40259Y60579D2*X40259Y58039D1*X40259Y55499*X37719Y52959*X35179Y49149D2*X35179Y46609D1*X32639Y44069*X32639Y41529*X30099Y44069D2*X30099Y39624D1*X31369Y38354*X31369Y32004*X28829Y29464*X28829Y17399*X23749Y15494D2*X23749Y29464D1*X26289Y32004*X26289Y38989*X22479Y41529D2*X22479Y44069D1*X25019Y46609*X25019Y44069D2*X25019Y40259D1*X26289Y38989*X27559Y41529D2*X27559Y44069D1*X30099Y46609*X30099Y49149*X32639Y52959D2*X35179Y55499D1*X35179Y58039*X37719Y58039D2*X36449Y59309D1*X36449Y83439*X37084Y84074*X44069Y84074*X44704Y84709*X44704Y87884*X43434Y86614D2*X43434Y85979D1*X42164Y84709*X32004Y84709*X31369Y84074*X31369Y59309*X32639Y58039*X30099Y60579D2*X30099Y58039D1*X22479Y68199D2*X25019Y70739D1*X25019Y73279*X25019Y75819*X30099Y75819D2*X30099Y73279D1*X30099Y70739*X27559Y68199*X27559Y62484*X25019Y60579D2*X25019Y58039D1*X25019Y55499*X27559Y52959D2*X30099Y55499D1*X30099Y58039*X27559Y58039D2*X26289Y59309D1*X26289Y84709*X26924Y85344*X39624Y85344*X38354Y86614D2*X21844Y86614D1*X21209Y85979*X21209Y58674*X22479Y58039D2*X21844Y58039D1*X21209Y58674*X22479Y68199D2*X22479Y59944D1*X18669Y65659D2*X19939Y65659D1*X19939Y36449*X18034Y36449D2*X19939Y36449D1*X19939Y21844*X22479Y21209D2*X20574Y21209D1*X19939Y21844*D17*X90424Y21209D2*X90424Y36449D1*X90424Y42799*X92964Y45339*X92964Y59944*X92964Y80899*X90424Y80899*X80264Y80899D2*X80264Y100584D1*X78359Y102489*X70739Y102489*X65659Y75184D2*X65659Y95504D1*X19939Y65659D2*X19939Y80899D1*D10*X38354Y86614D3*X65659Y26924D3*X61214Y15494D3*D11*X38354Y12954D3*X38354Y15494D3*X40894Y15494D3*X40894Y12954D3*X43434Y12954D3*X43434Y15494D3*X45974Y15494D3*X45974Y12954D3*X48514Y12954D3*X48514Y15494D3*X51054Y15494D3*X51054Y12954D3*X53594Y12954D3*X53594Y15494D3*X56134Y15494D3*X56134Y12954D3*X61214Y12954D3*X58674Y12954D3*X58674Y15494D3*X65659Y29464D3*X68199Y26924D3*X68199Y29464D3*X68199Y37084D3*X68199Y34544D3*X68199Y32004D3*X65659Y32004D3*X65659Y34544D3*X65659Y37084D3*X65659Y44704D3*X65659Y42164D3*X65659Y39624D3*X68199Y39624D3*X68199Y42164D3*X68199Y44704D3*X68199Y49784D3*X68199Y47244D3*X65659Y47244D3*X65659Y49784D3*X65659Y57404D3*X65659Y54864D3*X65659Y52324D3*X68199Y52324D3*X68199Y54864D3*X68199Y57404D3*X68199Y62484D3*X68199Y59944D3*X65659Y59944D3*X65659Y62484D3*X65659Y70104D3*X65659Y67564D3*X65659Y65024D3*X68199Y65024D3*X68199Y67564D3*X68199Y70104D3*X68199Y75184D3*X68199Y72644D3*X65659Y72644D3*X65659Y75184D3*X61214Y86614D3*X61214Y89154D3*X58674Y89154D3*X58674Y86614D3*X56134Y86614D3*X56134Y89154D3*X53594Y89154D3*X53594Y86614D3*X51054Y86614D3*X51054Y89154D3*X48514Y89154D3*X48514Y86614D3*X45974Y86614D3*X45974Y89154D3*X43434Y89154D3*X43434Y86614D3*X40894Y86614D3*X40894Y89154D3*X38354Y89154D3*D12*X55499Y80899D3*X55499Y75819D3*X55499Y73279D3*X55499Y68199D3*X84709Y21209D3*X84709Y26289D3*X84709Y28829D3*X84709Y33909D3*X84709Y36449D3*X84709Y41529D3*X84709Y44069D3*X90424Y80899D3*X90424Y75819D3*X90424Y73279D3*X90424Y68199D3*X80264Y58039D3*X80264Y60579D3*X80264Y65659D3*X80264Y68199D3*X80264Y73279D3*X80264Y75819D3*X80264Y80899D3*X85344Y80899D3*X85344Y75819D3*X85344Y73279D3*X85344Y68199D3*X85344Y65659D3*X85344Y60579D3*X85344Y58039D3*X85344Y52959D3*X84709Y49149D3*X80264Y52959D3*X79629Y49149D3*X79629Y44069D3*X79629Y41529D3*X79629Y36449D3*X79629Y33909D3*X79629Y28829D3*X79629Y26289D3*X79629Y21209D3*X47879Y21209D3*X47879Y26289D3*X47879Y28829D3*X47879Y33909D3*X47879Y36449D3*X47879Y41529D3*X47879Y44069D3*X45339Y52959D3*X47879Y49149D3*X50419Y52959D3*X50419Y58039D3*X50419Y60579D3*X50419Y65659D3*X50419Y68199D3*X50419Y73279D3*X50419Y75819D3*X50419Y80899D3*X45339Y80899D3*X45339Y75819D3*X45339Y73279D3*X45339Y68199D3*X45339Y65659D3*X45339Y60579D3*X45339Y58039D3*X25019Y58039D3*X25019Y60579D3*X25019Y65659D3*X25019Y68199D3*X25019Y73279D3*X25019Y75819D3*X25019Y80899D3*X30099Y80899D3*X30099Y75819D3*X30099Y73279D3*X30099Y68199D3*X30099Y65659D3*X30099Y60579D3*X30099Y58039D3*X35179Y58039D3*X35179Y60579D3*X35179Y65659D3*X35179Y68199D3*X35179Y73279D3*X35179Y75819D3*X35179Y80899D3*X40259Y80899D3*X40259Y75819D3*X40259Y73279D3*X40259Y68199D3*X40259Y65659D3*X40259Y60579D3*X40259Y58039D3*X40259Y52959D3*X42799Y49149D3*X42799Y44069D3*X42799Y41529D3*X42799Y36449D3*X42799Y33909D3*X42799Y28829D3*X42799Y26289D3*X42799Y21209D3*X32639Y21209D3*X32639Y26289D3*X32639Y28829D3*X32639Y33909D3*X32639Y36449D3*X32639Y41529D3*X32639Y44069D3*X27559Y44069D3*X27559Y41529D3*X27559Y36449D3*X27559Y33909D3*X27559Y28829D3*X27559Y26289D3*X27559Y21209D3*X22479Y21209D3*X22479Y26289D3*X22479Y28829D3*X22479Y33909D3*X22479Y36449D3*X22479Y41529D3*X22479Y44069D3*X22479Y49149D3*X25019Y52959D3*X27559Y49149D3*X30099Y52959D3*X32639Y49149D3*X35179Y52959D3*X37719Y49149D3*X37719Y44069D3*X37719Y41529D3*X37719Y36449D3*X37719Y33909D3*X37719Y28829D3*X37719Y26289D3*X37719Y21209D3*D13*X87249Y33909D3*X87249Y28829D3*X82169Y28829D3*X82169Y33909D3*X77724Y58039D3*X77724Y52959D3*X87249Y49149D3*X87249Y44069D3*X82169Y44069D3*X82169Y49149D3*X82804Y52959D3*X82804Y58039D3*X90424Y59944D3*X90424Y65024D3*X87884Y68199D3*X87884Y73279D3*X82804Y73279D3*X82804Y68199D3*X77724Y68199D3*X77724Y73279D3*X50419Y98679D3*X50419Y102489D3*X45339Y102489D3*X45339Y98679D3*X27559Y58039D3*X32639Y58039D3*X37719Y58039D3*X42799Y58039D3*X47879Y58039D3*X50419Y28829D3*X50419Y33909D3*X45339Y33909D3*X45339Y28829D3*X40259Y28829D3*X40259Y33909D3*X35179Y33909D3*X35179Y28829D3*X30099Y28829D3*X30099Y33909D3*X25019Y33909D3*X25019Y28829D3*X18034Y31369D3*X18034Y36449D3*X25019Y44069D3*X30099Y44069D3*X35179Y44069D3*X40259Y44069D3*X45339Y44069D3*X50419Y44069D3*X50419Y49149D3*X47879Y52959D3*X45339Y49149D3*X42799Y52959D3*X40259Y49149D3*X37719Y52959D3*X35179Y49149D3*X32639Y52959D3*X30099Y49149D3*X27559Y52959D3*X25019Y49149D3*X22479Y52959D3*X22479Y58039D3*X18669Y65659D3*X22479Y68199D3*X18669Y70739D3*X22479Y73279D3*X27559Y73279D3*X27559Y68199D3*X32639Y68199D3*X32639Y73279D3*X37719Y73279D3*X37719Y68199D3*X42799Y68199D3*X42799Y73279D3*X47879Y73279D3*X47879Y68199D3*X52959Y68199D3*X52959Y73279D3*D14*X25019Y102489D3*X30734Y102489D3*X36449Y102489D3*X59309Y102489D3*X65024Y102489D3*X70739Y102489D3*D16*X23749Y15494D3*X28829Y17399D3*X33909Y18669D3*X38989Y19304D3*X51054Y21844D3*X52324Y22479D3*X53594Y23114D3*X54864Y23749D3*X56134Y24384D3*X77089Y19304D3*X82169Y16129D3*X87249Y14224D3*X89154Y18669D3*X90424Y21209D3*X90424Y36449D3*X77724Y83439D3*X87884Y88519D3*X82804Y86614D3*X81534Y92329D3*X75819Y91059D3*X65659Y95504D3*X19939Y80899D3*X22479Y59944D3*X27559Y62484D3*X32639Y63119D3*X37719Y63754D3*X42799Y64389D3*X55499Y70739D3*X58674Y72009D3*X57404Y74549D3*X53594Y77089D3*X52324Y78359D3*X51689Y79629D3*X48514Y79629D3*X42799Y82169D3*X0Y0D2*M02*