%
M48
M72
T01C0.0276
T02C0.0315
T03C0.0472
T04C0.1260
%
T01
X4850Y5410
X5350Y5910
X5850Y5410
X7850Y7410
X8350Y7910
X7850Y8410
X8100Y9660
X7600Y10160
X8100Y10660
X7600Y11660
X8100Y12160
X7600Y12660
X5850Y11410
X5350Y11910
X4850Y11410
X5350Y9660
X4850Y9160
X5850Y9160
X5350Y8160
X4850Y7660
X5850Y7660
X9100Y5910
X9600Y5410
X10100Y5910
X10600Y7160
X10100Y7660
X11100Y7660
T02
X10850Y8660
X10100Y9660
X10850Y10660
X10100Y11660
X9100Y12160
X9100Y10160
X9100Y9160
X9100Y7160
X8100Y6410
X7350Y6410
X6600Y6660
X6850Y7410
X6850Y9410
X6600Y10410
X4600Y10410
X2850Y10160
X2850Y9160
X2850Y7910
X2850Y6910
X2850Y5660
X2850Y4660
X4600Y4410
X6600Y4410
X7350Y4410
X8100Y4410
X4600Y6660
X2850Y11410
X2850Y12410
X3100Y14160
X4600Y12660
X5100Y14160
X6600Y12660
X12850Y8910
X12850Y7910
T03
X13100Y4910
X13100Y12160
X9850Y14160
X8600Y14160
X1600Y11910
X1600Y9660
X1600Y7410
X1600Y5160
T04
X1350Y3160
X1350Y13910
X12850Y13910
X12850Y3160
M30
