G75*
G70*
%OFA0B0*%
%FSLAX24Y24*%
%IPPOS*%
%LPD*%
%AMOC8*
5,1,8,0,0,1.08239X$1,22.5*
%
%ADD10C,0.0595*%
%ADD11R,0.0789X0.0789*%
%ADD12C,0.0556*%
%ADD13C,0.1340*%
D10*
X002850Y004660D03*
X002850Y005660D03*
X002850Y006910D03*
X002850Y007910D03*
X002850Y009160D03*
X002850Y010160D03*
X002850Y011410D03*
X002850Y012410D03*
X003100Y014160D03*
X004600Y012660D03*
X005100Y014160D03*
X006600Y012660D03*
X006600Y010410D03*
X006850Y009410D03*
X006850Y007410D03*
X006600Y006660D03*
X007350Y006410D03*
X008100Y006410D03*
X009100Y007160D03*
X010850Y008660D03*
X010100Y009660D03*
X010850Y010660D03*
X010100Y011660D03*
X009100Y012160D03*
X009100Y010160D03*
X009100Y009160D03*
X012850Y008910D03*
X012850Y007910D03*
X008100Y004410D03*
X007350Y004410D03*
X006600Y004410D03*
X004600Y004410D03*
X004600Y006660D03*
X004600Y010410D03*
D11*
X001600Y009660D03*
X001600Y007410D03*
X001600Y005160D03*
X001600Y011910D03*
X008600Y014160D03*
X009850Y014160D03*
X013100Y012160D03*
X013100Y004910D03*
D12*
X010600Y007160D03*
X010100Y007660D03*
X011100Y007660D03*
X010100Y005910D03*
X009600Y005410D03*
X009100Y005910D03*
X007850Y007410D03*
X008350Y007910D03*
X007850Y008410D03*
X008100Y009660D03*
X007600Y010160D03*
X008100Y010660D03*
X007600Y011660D03*
X008100Y012160D03*
X007600Y012660D03*
X005850Y011410D03*
X005350Y011910D03*
X004850Y011410D03*
X005350Y009660D03*
X004850Y009160D03*
X005850Y009160D03*
X005350Y008160D03*
X004850Y007660D03*
X005850Y007660D03*
X005350Y005910D03*
X004850Y005410D03*
X005850Y005410D03*
D13*
X001350Y003160D03*
X001350Y013910D03*
X012850Y013910D03*
X012850Y003160D03*
M02*
