G75*
G70*
%OFA0B0*%
%FSLAX24Y24*%
%IPPOS*%
%LPD*%
%AMOC8*
5,1,8,0,0,1.08239X$1,22.5*
%
%ADD10C,0.0515*%
%ADD11R,0.0709X0.0709*%
%ADD12C,0.0476*%
%ADD13C,0.0160*%
D10*
X002850Y004660D03*
X002850Y005660D03*
X002850Y006910D03*
X002850Y007910D03*
X002850Y009160D03*
X002850Y010160D03*
X002850Y011410D03*
X002850Y012410D03*
X003100Y014160D03*
X004600Y012660D03*
X005100Y014160D03*
X006600Y012660D03*
X006600Y010410D03*
X006850Y009410D03*
X006850Y007410D03*
X006600Y006660D03*
X007350Y006410D03*
X008100Y006410D03*
X009100Y007160D03*
X010850Y008660D03*
X010100Y009660D03*
X010850Y010660D03*
X010100Y011660D03*
X009100Y012160D03*
X009100Y010160D03*
X009100Y009160D03*
X012850Y008910D03*
X012850Y007910D03*
X008100Y004410D03*
X007350Y004410D03*
X006600Y004410D03*
X004600Y004410D03*
X004600Y006660D03*
X004600Y010410D03*
D11*
X001600Y009660D03*
X001600Y007410D03*
X001600Y005160D03*
X001600Y011910D03*
X008600Y014160D03*
X009850Y014160D03*
X013100Y012160D03*
X013100Y004910D03*
D12*
X010600Y007160D03*
X010100Y007660D03*
X011100Y007660D03*
X010100Y005910D03*
X009600Y005410D03*
X009100Y005910D03*
X007850Y007410D03*
X008350Y007910D03*
X007850Y008410D03*
X008100Y009660D03*
X007600Y010160D03*
X008100Y010660D03*
X007600Y011660D03*
X008100Y012160D03*
X007600Y012660D03*
X005850Y011410D03*
X005350Y011910D03*
X004850Y011410D03*
X005350Y009660D03*
X004850Y009160D03*
X005850Y009160D03*
X005350Y008160D03*
X004850Y007660D03*
X005850Y007660D03*
X005350Y005910D03*
X004850Y005410D03*
X005850Y005410D03*
D13*
X002384Y003589D02*
X002432Y003410D01*
X011768Y003410D01*
X011816Y003589D01*
X011962Y003842D01*
X012168Y004048D01*
X012422Y004194D01*
X012704Y004270D01*
X012996Y004270D01*
X013278Y004194D01*
X013532Y004048D01*
X013600Y003980D01*
X013600Y004475D01*
X013521Y004396D01*
X012679Y004396D01*
X012586Y004490D01*
X012586Y005331D01*
X012679Y005425D01*
X013521Y005425D01*
X013600Y005345D01*
X013600Y011725D01*
X013521Y011646D01*
X012679Y011646D01*
X012586Y011740D01*
X012586Y012581D01*
X012679Y012675D01*
X013521Y012675D01*
X013600Y012595D01*
X013600Y013091D01*
X013532Y013022D01*
X013278Y012876D01*
X012996Y012800D01*
X012704Y012800D01*
X012422Y012876D01*
X012168Y013022D01*
X011962Y013229D01*
X011816Y013482D01*
X011740Y013764D01*
X011740Y014056D01*
X011816Y014339D01*
X011962Y014592D01*
X012030Y014660D01*
X010285Y014660D01*
X010364Y014581D01*
X010364Y013740D01*
X010271Y013646D01*
X009429Y013646D01*
X009336Y013740D01*
X009336Y014581D01*
X009415Y014660D01*
X009062Y014660D01*
X009065Y014659D01*
X009098Y014625D01*
X009122Y014584D01*
X009134Y014538D01*
X009134Y014198D01*
X008638Y014198D01*
X008638Y014122D01*
X008638Y013626D01*
X008978Y013626D01*
X009024Y013638D01*
X009065Y013662D01*
X009098Y013695D01*
X009122Y013736D01*
X009134Y013782D01*
X009134Y014122D01*
X008638Y014122D01*
X008562Y014122D01*
X008562Y013626D01*
X008222Y013626D01*
X008176Y013638D01*
X008135Y013662D01*
X008102Y013695D01*
X008078Y013736D01*
X008066Y013782D01*
X008066Y014122D01*
X008562Y014122D01*
X008562Y014198D01*
X008066Y014198D01*
X008066Y014538D01*
X008078Y014584D01*
X008102Y014625D01*
X008135Y014659D01*
X008138Y014660D01*
X002170Y014660D01*
X002238Y014592D01*
X002384Y014339D01*
X002460Y014056D01*
X002460Y013764D01*
X002384Y013482D01*
X002238Y013229D01*
X002032Y013022D01*
X001778Y012876D01*
X001496Y012800D01*
X001204Y012800D01*
X000922Y012876D01*
X000668Y013022D01*
X000600Y013091D01*
X000600Y003980D01*
X000668Y004048D01*
X000922Y004194D01*
X001204Y004270D01*
X001496Y004270D01*
X001778Y004194D01*
X002032Y004048D01*
X002238Y003842D01*
X002384Y003589D01*
X002347Y003654D02*
X011853Y003654D01*
X011791Y003495D02*
X002409Y003495D01*
X002255Y003812D02*
X011945Y003812D01*
X012091Y003971D02*
X002109Y003971D01*
X001891Y004129D02*
X004291Y004129D01*
X004246Y004174D02*
X004183Y004327D01*
X004183Y004493D01*
X004246Y004647D01*
X004364Y004764D01*
X004517Y004828D01*
X004683Y004828D01*
X004836Y004764D01*
X004954Y004647D01*
X005017Y004493D01*
X005017Y004327D01*
X004954Y004174D01*
X004836Y004056D01*
X004683Y003993D01*
X004517Y003993D01*
X004364Y004056D01*
X004246Y004174D01*
X004199Y004288D02*
X003042Y004288D01*
X003086Y004306D02*
X003204Y004424D01*
X003267Y004577D01*
X003267Y004743D01*
X003204Y004897D01*
X003086Y005014D01*
X002933Y005078D01*
X002767Y005078D01*
X002614Y005014D01*
X002496Y004897D01*
X002433Y004743D01*
X002433Y004577D01*
X002496Y004424D01*
X002614Y004306D01*
X002767Y004243D01*
X002933Y004243D01*
X003086Y004306D01*
X003213Y004446D02*
X004183Y004446D01*
X004229Y004605D02*
X003267Y004605D01*
X003259Y004763D02*
X004363Y004763D01*
X004625Y005073D02*
X004513Y005185D01*
X004452Y005331D01*
X004452Y005489D01*
X004513Y005636D01*
X004625Y005747D01*
X004771Y005808D01*
X004929Y005808D01*
X004969Y005792D01*
X004952Y005831D01*
X004952Y005989D01*
X005013Y006136D01*
X005125Y006247D01*
X005271Y006308D01*
X005429Y006308D01*
X005575Y006247D01*
X005687Y006136D01*
X005748Y005989D01*
X005748Y005831D01*
X005731Y005792D01*
X005771Y005808D01*
X005929Y005808D01*
X006075Y005747D01*
X006187Y005636D01*
X006248Y005489D01*
X006248Y005331D01*
X006187Y005185D01*
X006075Y005073D01*
X005929Y005012D01*
X005771Y005012D01*
X005625Y005073D01*
X005513Y005185D01*
X005452Y005331D01*
X005452Y005489D01*
X005469Y005529D01*
X005429Y005512D01*
X005271Y005512D01*
X005231Y005529D01*
X005248Y005489D01*
X005248Y005331D01*
X005187Y005185D01*
X005075Y005073D01*
X004929Y005012D01*
X004771Y005012D01*
X004625Y005073D01*
X004617Y005080D02*
X002114Y005080D01*
X002114Y004922D02*
X002521Y004922D01*
X002441Y004763D02*
X002114Y004763D01*
X002114Y004740D02*
X002021Y004646D01*
X001179Y004646D01*
X001086Y004740D01*
X001086Y005581D01*
X001179Y005675D01*
X002021Y005675D01*
X002114Y005581D01*
X002114Y004740D01*
X002433Y004605D02*
X000600Y004605D01*
X000600Y004763D02*
X001086Y004763D01*
X001086Y004922D02*
X000600Y004922D01*
X000600Y005080D02*
X001086Y005080D01*
X001086Y005239D02*
X000600Y005239D01*
X000600Y005397D02*
X001086Y005397D01*
X001086Y005556D02*
X000600Y005556D01*
X000600Y005714D02*
X002416Y005714D01*
X002413Y005695D02*
X002423Y005763D01*
X002445Y005828D01*
X002476Y005889D01*
X002516Y005945D01*
X002565Y005994D01*
X002621Y006034D01*
X002682Y006066D01*
X002748Y006087D01*
X002816Y006098D01*
X002850Y006098D01*
X002850Y005660D01*
X002850Y005223D01*
X002884Y005223D01*
X002952Y005233D01*
X003018Y005255D01*
X003079Y005286D01*
X003135Y005327D01*
X003184Y005375D01*
X003224Y005431D01*
X003255Y005492D01*
X003277Y005558D01*
X003287Y005626D01*
X003287Y005660D01*
X002850Y005660D01*
X002850Y005660D01*
X002850Y005223D01*
X002816Y005223D01*
X002748Y005233D01*
X002682Y005255D01*
X002621Y005286D01*
X002565Y005327D01*
X002516Y005375D01*
X002476Y005431D01*
X002445Y005492D01*
X002423Y005558D01*
X002413Y005626D01*
X002413Y005660D01*
X002850Y005660D01*
X002850Y005660D01*
X002850Y005660D01*
X002413Y005660D01*
X002413Y005695D01*
X002424Y005556D02*
X002114Y005556D01*
X002114Y005397D02*
X002500Y005397D01*
X002732Y005239D02*
X002114Y005239D01*
X002467Y005873D02*
X000600Y005873D01*
X000600Y006031D02*
X002616Y006031D01*
X002850Y006031D02*
X002850Y006031D01*
X002850Y006098D02*
X002850Y005660D01*
X003287Y005660D01*
X003287Y005695D01*
X003277Y005763D01*
X003255Y005828D01*
X003224Y005889D01*
X003184Y005945D01*
X003135Y005994D01*
X003079Y006034D01*
X003018Y006066D01*
X002952Y006087D01*
X002884Y006098D01*
X002850Y006098D01*
X002850Y005873D02*
X002850Y005873D01*
X002850Y005714D02*
X002850Y005714D01*
X002850Y005660D02*
X002850Y005660D01*
X002850Y005556D02*
X002850Y005556D01*
X002850Y005397D02*
X002850Y005397D01*
X002850Y005239D02*
X002850Y005239D01*
X002968Y005239D02*
X004490Y005239D01*
X004452Y005397D02*
X003200Y005397D01*
X003276Y005556D02*
X004480Y005556D01*
X004591Y005714D02*
X003284Y005714D01*
X003233Y005873D02*
X004952Y005873D01*
X004970Y006031D02*
X003084Y006031D01*
X002933Y006493D02*
X002767Y006493D01*
X002614Y006556D01*
X002496Y006674D01*
X002433Y006827D01*
X002433Y006993D01*
X002496Y007147D01*
X002614Y007264D01*
X002767Y007328D01*
X002933Y007328D01*
X003086Y007264D01*
X003204Y007147D01*
X003267Y006993D01*
X003267Y006827D01*
X003204Y006674D01*
X003086Y006556D01*
X002933Y006493D01*
X002967Y006507D02*
X004212Y006507D01*
X004183Y006577D02*
X004246Y006424D01*
X004364Y006306D01*
X004517Y006243D01*
X004683Y006243D01*
X004836Y006306D01*
X004954Y006424D01*
X005017Y006577D01*
X005017Y006743D01*
X004954Y006897D01*
X004836Y007014D01*
X004683Y007078D01*
X004517Y007078D01*
X004364Y007014D01*
X004246Y006897D01*
X004183Y006743D01*
X004183Y006577D01*
X004183Y006665D02*
X003195Y006665D01*
X003266Y006824D02*
X004216Y006824D01*
X004332Y006982D02*
X003267Y006982D01*
X003206Y007141D02*
X006505Y007141D01*
X006516Y007125D02*
X006564Y007078D01*
X006517Y007078D01*
X006364Y007014D01*
X006246Y006897D01*
X006183Y006743D01*
X006183Y006577D01*
X006246Y006424D01*
X006364Y006306D01*
X006517Y006243D01*
X006683Y006243D01*
X006836Y006306D01*
X006933Y006402D01*
X006933Y006327D01*
X006996Y006174D01*
X007114Y006056D01*
X007267Y005993D01*
X007433Y005993D01*
X007586Y006056D01*
X007704Y006174D01*
X007725Y006225D01*
X007746Y006174D01*
X007864Y006056D01*
X008017Y005993D01*
X008183Y005993D01*
X008336Y006056D01*
X008454Y006174D01*
X008517Y006327D01*
X008517Y006493D01*
X008454Y006647D01*
X008336Y006764D01*
X008183Y006828D01*
X008017Y006828D01*
X007864Y006764D01*
X007746Y006647D01*
X007725Y006596D01*
X007704Y006647D01*
X007586Y006764D01*
X007433Y006828D01*
X007267Y006828D01*
X007114Y006764D01*
X007017Y006668D01*
X007017Y006743D01*
X006954Y006897D01*
X006878Y006973D01*
X006884Y006973D01*
X006952Y006983D01*
X007018Y007005D01*
X007079Y007036D01*
X007135Y007077D01*
X007184Y007125D01*
X007224Y007181D01*
X007255Y007242D01*
X007277Y007308D01*
X007287Y007376D01*
X007287Y007410D01*
X006850Y007410D01*
X006850Y007410D01*
X006413Y007410D01*
X006413Y007376D01*
X006423Y007308D01*
X006445Y007242D01*
X006476Y007181D01*
X006516Y007125D01*
X006426Y007299D02*
X006018Y007299D01*
X006075Y007323D02*
X006187Y007435D01*
X006248Y007581D01*
X006248Y007739D01*
X006187Y007886D01*
X006075Y007997D01*
X005929Y008058D01*
X005771Y008058D01*
X005731Y008042D01*
X005748Y008081D01*
X005748Y008239D01*
X005687Y008386D01*
X005575Y008497D01*
X005429Y008558D01*
X005271Y008558D01*
X005125Y008497D01*
X005013Y008386D01*
X004952Y008239D01*
X004952Y008081D01*
X004969Y008042D01*
X004929Y008058D01*
X004771Y008058D01*
X004625Y007997D01*
X004513Y007886D01*
X004452Y007739D01*
X004452Y007581D01*
X004513Y007435D01*
X004625Y007323D01*
X004771Y007262D01*
X004929Y007262D01*
X005075Y007323D01*
X005187Y007435D01*
X005248Y007581D01*
X005248Y007739D01*
X005231Y007779D01*
X005271Y007762D01*
X005429Y007762D01*
X005469Y007779D01*
X005452Y007739D01*
X005452Y007581D01*
X005513Y007435D01*
X005625Y007323D01*
X005771Y007262D01*
X005929Y007262D01*
X006075Y007323D01*
X006197Y007458D02*
X006415Y007458D01*
X006413Y007445D02*
X006413Y007410D01*
X006850Y007410D01*
X006850Y007410D01*
X007287Y007410D01*
X007287Y007445D01*
X007277Y007513D01*
X007255Y007578D01*
X007224Y007639D01*
X007184Y007695D01*
X007135Y007744D01*
X007079Y007784D01*
X007018Y007816D01*
X006952Y007837D01*
X006884Y007848D01*
X006850Y007848D01*
X006816Y007848D01*
X006748Y007837D01*
X006682Y007816D01*
X006621Y007784D01*
X006565Y007744D01*
X006516Y007695D01*
X006476Y007639D01*
X006445Y007578D01*
X006423Y007513D01*
X006413Y007445D01*
X006464Y007616D02*
X006248Y007616D01*
X006233Y007775D02*
X006607Y007775D01*
X006850Y007775D02*
X006850Y007775D01*
X006850Y007848D02*
X006850Y007410D01*
X006850Y007848D01*
X007093Y007775D02*
X007691Y007775D01*
X007625Y007747D02*
X007771Y007808D01*
X007929Y007808D01*
X007969Y007792D01*
X007952Y007831D01*
X007952Y007989D01*
X007969Y008029D01*
X007929Y008012D01*
X007771Y008012D01*
X007625Y008073D01*
X007513Y008185D01*
X007452Y008331D01*
X007452Y008489D01*
X007513Y008636D01*
X007625Y008747D01*
X007771Y008808D01*
X007929Y008808D01*
X008075Y008747D01*
X008187Y008636D01*
X008248Y008489D01*
X008248Y008331D01*
X008231Y008292D01*
X008271Y008308D01*
X008429Y008308D01*
X008575Y008247D01*
X008687Y008136D01*
X008748Y007989D01*
X008748Y007831D01*
X008687Y007685D01*
X008575Y007573D01*
X008429Y007512D01*
X008271Y007512D01*
X008231Y007529D01*
X008248Y007489D01*
X008248Y007331D01*
X008187Y007185D01*
X008075Y007073D01*
X007929Y007012D01*
X007771Y007012D01*
X007625Y007073D01*
X007513Y007185D01*
X007452Y007331D01*
X007452Y007489D01*
X007513Y007636D01*
X007625Y007747D01*
X007505Y007616D02*
X007236Y007616D01*
X007285Y007458D02*
X007452Y007458D01*
X007465Y007299D02*
X007274Y007299D01*
X007195Y007141D02*
X007557Y007141D01*
X007443Y006824D02*
X008007Y006824D01*
X008193Y006824D02*
X008846Y006824D01*
X008864Y006806D02*
X009017Y006743D01*
X009183Y006743D01*
X009336Y006806D01*
X009454Y006924D01*
X009517Y007077D01*
X009517Y007243D01*
X009454Y007397D01*
X009336Y007514D01*
X009183Y007578D01*
X009017Y007578D01*
X008864Y007514D01*
X008746Y007397D01*
X008683Y007243D01*
X008683Y007077D01*
X008746Y006924D01*
X008864Y006806D01*
X008722Y006982D02*
X006944Y006982D01*
X006984Y006824D02*
X007257Y006824D01*
X007685Y006665D02*
X007765Y006665D01*
X007739Y006190D02*
X007711Y006190D01*
X007526Y006031D02*
X007924Y006031D01*
X008276Y006031D02*
X008720Y006031D01*
X008702Y005989D02*
X008702Y005831D01*
X008763Y005685D01*
X008875Y005573D01*
X009021Y005512D01*
X009179Y005512D01*
X009219Y005529D01*
X009202Y005489D01*
X009202Y005331D01*
X009263Y005185D01*
X009375Y005073D01*
X009521Y005012D01*
X009679Y005012D01*
X009825Y005073D01*
X009937Y005185D01*
X009998Y005331D01*
X009998Y005489D01*
X009981Y005529D01*
X010021Y005512D01*
X010179Y005512D01*
X010325Y005573D01*
X010437Y005685D01*
X010498Y005831D01*
X010498Y005989D01*
X010437Y006136D01*
X010325Y006247D01*
X010179Y006308D01*
X010021Y006308D01*
X009875Y006247D01*
X009763Y006136D01*
X009702Y005989D01*
X009702Y005831D01*
X009719Y005792D01*
X009679Y005808D01*
X009521Y005808D01*
X009481Y005792D01*
X009498Y005831D01*
X009498Y005989D01*
X009437Y006136D01*
X009325Y006247D01*
X009179Y006308D01*
X009021Y006308D01*
X008875Y006247D01*
X008763Y006136D01*
X008702Y005989D01*
X008702Y005873D02*
X005748Y005873D01*
X005730Y006031D02*
X007174Y006031D01*
X006989Y006190D02*
X005633Y006190D01*
X005067Y006190D02*
X000600Y006190D01*
X000600Y006348D02*
X004322Y006348D01*
X004878Y006348D02*
X006322Y006348D01*
X006212Y006507D02*
X004988Y006507D01*
X005017Y006665D02*
X006183Y006665D01*
X006216Y006824D02*
X004984Y006824D01*
X004868Y006982D02*
X006332Y006982D01*
X006850Y007410D02*
X006850Y007410D01*
X006850Y007458D02*
X006850Y007458D01*
X006850Y007616D02*
X006850Y007616D01*
X006140Y007933D02*
X007952Y007933D01*
X007606Y008092D02*
X005748Y008092D01*
X005743Y008250D02*
X007486Y008250D01*
X007452Y008409D02*
X005664Y008409D01*
X005771Y008762D02*
X005625Y008823D01*
X005513Y008935D01*
X005452Y009081D01*
X005452Y009239D01*
X005469Y009279D01*
X005429Y009262D01*
X005271Y009262D01*
X005231Y009279D01*
X005248Y009239D01*
X005248Y009081D01*
X005187Y008935D01*
X005075Y008823D01*
X004929Y008762D01*
X004771Y008762D01*
X004625Y008823D01*
X004513Y008935D01*
X004452Y009081D01*
X004452Y009239D01*
X004513Y009386D01*
X004625Y009497D01*
X004771Y009558D01*
X004929Y009558D01*
X004969Y009542D01*
X004952Y009581D01*
X004952Y009739D01*
X005013Y009886D01*
X005125Y009997D01*
X005271Y010058D01*
X005429Y010058D01*
X005575Y009997D01*
X005687Y009886D01*
X005748Y009739D01*
X005748Y009581D01*
X005731Y009542D01*
X005771Y009558D01*
X005929Y009558D01*
X006075Y009497D01*
X006187Y009386D01*
X006248Y009239D01*
X006248Y009081D01*
X006187Y008935D01*
X006075Y008823D01*
X005929Y008762D01*
X005771Y008762D01*
X005563Y008884D02*
X005137Y008884D01*
X005232Y009043D02*
X005468Y009043D01*
X005452Y009201D02*
X005248Y009201D01*
X004952Y009677D02*
X002114Y009677D01*
X002114Y009835D02*
X002585Y009835D01*
X002614Y009806D02*
X002767Y009743D01*
X002933Y009743D01*
X003086Y009806D01*
X003204Y009924D01*
X003267Y010077D01*
X003267Y010243D01*
X003204Y010397D01*
X003086Y010514D01*
X002933Y010578D01*
X002767Y010578D01*
X002614Y010514D01*
X002496Y010397D01*
X002433Y010243D01*
X002433Y010077D01*
X002496Y009924D01*
X002614Y009806D01*
X002467Y009994D02*
X002114Y009994D01*
X002114Y010081D02*
X002021Y010175D01*
X001179Y010175D01*
X001086Y010081D01*
X001086Y009240D01*
X001179Y009146D01*
X002021Y009146D01*
X002114Y009240D01*
X002114Y010081D01*
X002043Y010152D02*
X002433Y010152D01*
X002460Y010311D02*
X000600Y010311D01*
X000600Y010469D02*
X002569Y010469D01*
X002748Y010983D02*
X002816Y010973D01*
X002850Y010973D01*
X002884Y010973D01*
X002952Y010983D01*
X003018Y011005D01*
X003079Y011036D01*
X003135Y011077D01*
X003184Y011125D01*
X003224Y011181D01*
X003255Y011242D01*
X003277Y011308D01*
X003287Y011376D01*
X003287Y011410D01*
X002850Y011410D01*
X002850Y010973D01*
X002850Y011410D01*
X002850Y011410D01*
X002413Y011410D01*
X002413Y011376D01*
X002423Y011308D01*
X002445Y011242D01*
X002476Y011181D01*
X002516Y011125D01*
X002565Y011077D01*
X002621Y011036D01*
X002682Y011005D01*
X002748Y010983D01*
X002850Y011103D02*
X002850Y011103D01*
X002850Y011262D02*
X002850Y011262D01*
X002850Y011410D02*
X002850Y011410D01*
X002850Y011410D01*
X002413Y011410D01*
X002413Y011445D01*
X002423Y011513D01*
X002445Y011578D01*
X002476Y011639D01*
X002516Y011695D01*
X002565Y011744D01*
X002621Y011784D01*
X002682Y011816D01*
X002748Y011837D01*
X002816Y011848D01*
X002850Y011848D01*
X002850Y011410D01*
X003287Y011410D01*
X003287Y011445D01*
X003277Y011513D01*
X003255Y011578D01*
X003224Y011639D01*
X003184Y011695D01*
X003135Y011744D01*
X003079Y011784D01*
X003018Y011816D01*
X002952Y011837D01*
X002884Y011848D01*
X002850Y011848D01*
X002850Y011410D01*
X002850Y011410D01*
X002850Y011420D02*
X002850Y011420D01*
X002850Y011579D02*
X002850Y011579D01*
X002850Y011737D02*
X002850Y011737D01*
X002767Y011993D02*
X002933Y011993D01*
X003086Y012056D01*
X003204Y012174D01*
X003267Y012327D01*
X003267Y012493D01*
X003204Y012647D01*
X003086Y012764D01*
X002933Y012828D01*
X002767Y012828D01*
X002614Y012764D01*
X002496Y012647D01*
X002433Y012493D01*
X002433Y012327D01*
X002496Y012174D01*
X002614Y012056D01*
X002767Y011993D01*
X002618Y012054D02*
X002114Y012054D01*
X002114Y011896D02*
X004952Y011896D01*
X004952Y011831D02*
X004969Y011792D01*
X004929Y011808D01*
X004771Y011808D01*
X004625Y011747D01*
X004513Y011636D01*
X004452Y011489D01*
X004452Y011331D01*
X004513Y011185D01*
X004625Y011073D01*
X004771Y011012D01*
X004929Y011012D01*
X005075Y011073D01*
X005187Y011185D01*
X005248Y011331D01*
X005248Y011489D01*
X005231Y011529D01*
X005271Y011512D01*
X005429Y011512D01*
X005469Y011529D01*
X005452Y011489D01*
X005452Y011331D01*
X005513Y011185D01*
X005625Y011073D01*
X005771Y011012D01*
X005929Y011012D01*
X006075Y011073D01*
X006187Y011185D01*
X006248Y011331D01*
X006248Y011489D01*
X006187Y011636D01*
X006075Y011747D01*
X005929Y011808D01*
X005771Y011808D01*
X005731Y011792D01*
X005748Y011831D01*
X005748Y011989D01*
X005687Y012136D01*
X005575Y012247D01*
X005429Y012308D01*
X005271Y012308D01*
X005125Y012247D01*
X005013Y012136D01*
X004952Y011989D01*
X004952Y011831D01*
X004979Y012054D02*
X003082Y012054D01*
X003220Y012213D02*
X005090Y012213D01*
X004901Y012371D02*
X006299Y012371D01*
X006246Y012424D02*
X006364Y012306D01*
X006517Y012243D01*
X006683Y012243D01*
X006836Y012306D01*
X006954Y012424D01*
X007017Y012577D01*
X007017Y012743D01*
X006954Y012897D01*
X006836Y013014D01*
X006683Y013078D01*
X006517Y013078D01*
X006364Y013014D01*
X006246Y012897D01*
X006183Y012743D01*
X006183Y012577D01*
X006246Y012424D01*
X006202Y012530D02*
X004998Y012530D01*
X005017Y012577D02*
X004954Y012424D01*
X004836Y012306D01*
X004683Y012243D01*
X004517Y012243D01*
X004364Y012306D01*
X004246Y012424D01*
X004183Y012577D01*
X004183Y012743D01*
X004246Y012897D01*
X004364Y013014D01*
X004517Y013078D01*
X004683Y013078D01*
X004836Y013014D01*
X004954Y012897D01*
X005017Y012743D01*
X005017Y012577D01*
X005017Y012688D02*
X006183Y012688D01*
X006225Y012847D02*
X004975Y012847D01*
X004845Y013005D02*
X006355Y013005D01*
X006845Y013005D02*
X007393Y013005D01*
X007375Y012997D02*
X007521Y013058D01*
X007679Y013058D01*
X007825Y012997D01*
X007937Y012886D01*
X007998Y012739D01*
X007998Y012581D01*
X007981Y012542D01*
X008021Y012558D01*
X008179Y012558D01*
X008325Y012497D01*
X008437Y012386D01*
X008498Y012239D01*
X008498Y012081D01*
X008437Y011935D01*
X008325Y011823D01*
X008179Y011762D01*
X008021Y011762D01*
X007981Y011779D01*
X007998Y011739D01*
X007998Y011581D01*
X007937Y011435D01*
X007825Y011323D01*
X007679Y011262D01*
X007521Y011262D01*
X007375Y011323D01*
X007263Y011435D01*
X007202Y011581D01*
X007202Y011739D01*
X007263Y011886D01*
X007375Y011997D01*
X007521Y012058D01*
X007679Y012058D01*
X007719Y012042D01*
X007702Y012081D01*
X007702Y012239D01*
X007719Y012279D01*
X007679Y012262D01*
X007521Y012262D01*
X007375Y012323D01*
X007263Y012435D01*
X007202Y012581D01*
X007202Y012739D01*
X007263Y012886D01*
X007375Y012997D01*
X007247Y012847D02*
X006975Y012847D01*
X007017Y012688D02*
X007202Y012688D01*
X007223Y012530D02*
X006998Y012530D01*
X006901Y012371D02*
X007326Y012371D01*
X007512Y012054D02*
X005721Y012054D01*
X005748Y011896D02*
X007273Y011896D01*
X007202Y011737D02*
X006086Y011737D01*
X006211Y011579D02*
X007203Y011579D01*
X007277Y011420D02*
X006248Y011420D01*
X006219Y011262D02*
X009971Y011262D01*
X010017Y011243D02*
X010183Y011243D01*
X010336Y011306D01*
X010454Y011424D01*
X010517Y011577D01*
X010517Y011743D01*
X010454Y011897D01*
X010336Y012014D01*
X010183Y012078D01*
X010017Y012078D01*
X009864Y012014D01*
X009746Y011897D01*
X009683Y011743D01*
X009683Y011577D01*
X009746Y011424D01*
X009864Y011306D01*
X010017Y011243D01*
X010229Y011262D02*
X013600Y011262D01*
X013600Y011420D02*
X010450Y011420D01*
X010517Y011579D02*
X013600Y011579D01*
X013600Y011103D02*
X006106Y011103D01*
X006364Y010764D02*
X006246Y010647D01*
X006183Y010493D01*
X006183Y010327D01*
X006246Y010174D01*
X006364Y010056D01*
X006517Y009993D01*
X006683Y009993D01*
X006836Y010056D01*
X006954Y010174D01*
X007017Y010327D01*
X007017Y010493D01*
X006954Y010647D01*
X006836Y010764D01*
X006683Y010828D01*
X006517Y010828D01*
X006364Y010764D01*
X006417Y010786D02*
X004783Y010786D01*
X004836Y010764D02*
X004954Y010647D01*
X005017Y010493D01*
X005017Y010327D01*
X004954Y010174D01*
X004836Y010056D01*
X004683Y009993D01*
X004517Y009993D01*
X004364Y010056D01*
X004246Y010174D01*
X004183Y010327D01*
X004183Y010493D01*
X004246Y010647D01*
X004364Y010764D01*
X004517Y010828D01*
X004683Y010828D01*
X004836Y010764D01*
X004962Y010628D02*
X006238Y010628D01*
X006183Y010469D02*
X005017Y010469D01*
X005011Y010311D02*
X006189Y010311D01*
X006268Y010152D02*
X004932Y010152D01*
X005121Y009994D02*
X004685Y009994D01*
X004515Y009994D02*
X003233Y009994D01*
X003267Y010152D02*
X004268Y010152D01*
X004189Y010311D02*
X003240Y010311D01*
X003131Y010469D02*
X004183Y010469D01*
X004238Y010628D02*
X000600Y010628D01*
X000600Y010786D02*
X004417Y010786D01*
X004594Y011103D02*
X003162Y011103D01*
X003262Y011262D02*
X004481Y011262D01*
X004452Y011420D02*
X003287Y011420D01*
X003255Y011579D02*
X004489Y011579D01*
X004614Y011737D02*
X003142Y011737D01*
X002558Y011737D02*
X002114Y011737D01*
X002114Y011579D02*
X002445Y011579D01*
X002413Y011420D02*
X002045Y011420D01*
X002021Y011396D02*
X002114Y011490D01*
X002114Y012331D01*
X002021Y012425D01*
X001179Y012425D01*
X001086Y012331D01*
X001086Y011490D01*
X001179Y011396D01*
X002021Y011396D01*
X002438Y011262D02*
X000600Y011262D01*
X000600Y011420D02*
X001155Y011420D01*
X001086Y011579D02*
X000600Y011579D01*
X000600Y011737D02*
X001086Y011737D01*
X001086Y011896D02*
X000600Y011896D01*
X000600Y012054D02*
X001086Y012054D01*
X001086Y012213D02*
X000600Y012213D01*
X000600Y012371D02*
X001126Y012371D01*
X001031Y012847D02*
X000600Y012847D01*
X000600Y013005D02*
X000698Y013005D01*
X000600Y012688D02*
X002538Y012688D01*
X002448Y012530D02*
X000600Y012530D01*
X001669Y012847D02*
X004225Y012847D01*
X004183Y012688D02*
X003162Y012688D01*
X003252Y012530D02*
X004202Y012530D01*
X004299Y012371D02*
X003267Y012371D01*
X002480Y012213D02*
X002114Y012213D01*
X002074Y012371D02*
X002433Y012371D01*
X002002Y013005D02*
X004355Y013005D01*
X004864Y013806D02*
X005017Y013743D01*
X005183Y013743D01*
X005336Y013806D01*
X005454Y013924D01*
X005517Y014077D01*
X005517Y014243D01*
X005454Y014397D01*
X005336Y014514D01*
X005183Y014578D01*
X005017Y014578D01*
X004864Y014514D01*
X004746Y014397D01*
X004683Y014243D01*
X004683Y014077D01*
X004746Y013924D01*
X004864Y013806D01*
X004884Y013798D02*
X003345Y013798D01*
X003329Y013786D02*
X003385Y013827D01*
X003434Y013875D01*
X003474Y013931D01*
X003505Y013992D01*
X003527Y014058D01*
X003537Y014126D01*
X003537Y014160D01*
X003100Y014160D01*
X003100Y013723D01*
X003134Y013723D01*
X003202Y013733D01*
X003268Y013755D01*
X003329Y013786D01*
X003487Y013956D02*
X004733Y013956D01*
X004683Y014115D02*
X003536Y014115D01*
X003537Y014160D02*
X003537Y014195D01*
X003527Y014263D01*
X003505Y014328D01*
X003474Y014389D01*
X003434Y014445D01*
X003385Y014494D01*
X003329Y014534D01*
X003268Y014566D01*
X003202Y014587D01*
X003134Y014598D01*
X003100Y014598D01*
X003066Y014598D01*
X002998Y014587D01*
X002932Y014566D01*
X002871Y014534D01*
X002815Y014494D01*
X002766Y014445D01*
X002726Y014389D01*
X002695Y014328D01*
X002673Y014263D01*
X002663Y014195D01*
X002663Y014160D01*
X002663Y014126D01*
X002673Y014058D01*
X002695Y013992D01*
X002726Y013931D01*
X002766Y013875D01*
X002815Y013827D01*
X002871Y013786D01*
X002932Y013755D01*
X002998Y013733D01*
X003066Y013723D01*
X003100Y013723D01*
X003100Y014160D01*
X003100Y014160D01*
X003100Y014160D01*
X002663Y014160D01*
X003100Y014160D01*
X003100Y014160D01*
X003537Y014160D01*
X003523Y014273D02*
X004695Y014273D01*
X004781Y014432D02*
X003443Y014432D01*
X003182Y014590D02*
X008082Y014590D01*
X008066Y014432D02*
X005419Y014432D01*
X005505Y014273D02*
X008066Y014273D01*
X008066Y014115D02*
X005517Y014115D01*
X005467Y013956D02*
X008066Y013956D01*
X008066Y013798D02*
X005316Y013798D01*
X005610Y012213D02*
X007702Y012213D01*
X007688Y012054D02*
X007713Y012054D01*
X007998Y011737D02*
X009683Y011737D01*
X009683Y011579D02*
X007997Y011579D01*
X007923Y011420D02*
X009750Y011420D01*
X009746Y011896D02*
X009426Y011896D01*
X009454Y011924D02*
X009517Y012077D01*
X009517Y012243D01*
X009454Y012397D01*
X009336Y012514D01*
X009183Y012578D01*
X009017Y012578D01*
X008864Y012514D01*
X008746Y012397D01*
X008683Y012243D01*
X008683Y012077D01*
X008746Y011924D01*
X008864Y011806D01*
X009017Y011743D01*
X009183Y011743D01*
X009336Y011806D01*
X009454Y011924D01*
X009508Y012054D02*
X009960Y012054D01*
X010240Y012054D02*
X012586Y012054D01*
X012586Y011896D02*
X010454Y011896D01*
X010517Y011737D02*
X012588Y011737D01*
X012586Y012213D02*
X009517Y012213D01*
X009464Y012371D02*
X012586Y012371D01*
X012586Y012530D02*
X009299Y012530D01*
X008901Y012530D02*
X008247Y012530D01*
X008443Y012371D02*
X008736Y012371D01*
X008683Y012213D02*
X008498Y012213D01*
X008487Y012054D02*
X008692Y012054D01*
X008774Y011896D02*
X008398Y011896D01*
X008179Y011058D02*
X008021Y011058D01*
X007875Y010997D01*
X007763Y010886D01*
X007702Y010739D01*
X007702Y010581D01*
X007719Y010542D01*
X007679Y010558D01*
X007521Y010558D01*
X007375Y010497D01*
X007263Y010386D01*
X007202Y010239D01*
X007202Y010081D01*
X007263Y009935D01*
X007375Y009823D01*
X007521Y009762D01*
X007679Y009762D01*
X007719Y009779D01*
X007702Y009739D01*
X007702Y009581D01*
X007763Y009435D01*
X007875Y009323D01*
X008021Y009262D01*
X008179Y009262D01*
X008325Y009323D01*
X008437Y009435D01*
X008498Y009581D01*
X008498Y009739D01*
X008437Y009886D01*
X008325Y009997D01*
X008179Y010058D01*
X008021Y010058D01*
X007981Y010042D01*
X007998Y010081D01*
X007998Y010239D01*
X007981Y010279D01*
X008021Y010262D01*
X008179Y010262D01*
X008325Y010323D01*
X008437Y010435D01*
X008498Y010581D01*
X008498Y010739D01*
X008437Y010886D01*
X008325Y010997D01*
X008179Y011058D01*
X008378Y010945D02*
X010544Y010945D01*
X010496Y010897D02*
X010433Y010743D01*
X010433Y010577D01*
X010496Y010424D01*
X010614Y010306D01*
X010767Y010243D01*
X010933Y010243D01*
X011086Y010306D01*
X011204Y010424D01*
X011267Y010577D01*
X011267Y010743D01*
X011204Y010897D01*
X011086Y011014D01*
X010933Y011078D01*
X010767Y011078D01*
X010614Y011014D01*
X010496Y010897D01*
X010450Y010786D02*
X008478Y010786D01*
X008498Y010628D02*
X010433Y010628D01*
X010477Y010469D02*
X009410Y010469D01*
X009434Y010445D02*
X009385Y010494D01*
X009329Y010534D01*
X009268Y010566D01*
X009202Y010587D01*
X009134Y010598D01*
X009100Y010598D01*
X009066Y010598D01*
X008998Y010587D01*
X008932Y010566D01*
X008871Y010534D01*
X008815Y010494D01*
X008766Y010445D01*
X008726Y010389D01*
X008695Y010328D01*
X008673Y010263D01*
X008663Y010195D01*
X008663Y010160D01*
X008663Y010126D01*
X008673Y010058D01*
X008695Y009992D01*
X008726Y009931D01*
X008766Y009875D01*
X008815Y009827D01*
X008871Y009786D01*
X008932Y009755D01*
X008998Y009733D01*
X009066Y009723D01*
X009100Y009723D01*
X009134Y009723D01*
X009202Y009733D01*
X009268Y009755D01*
X009329Y009786D01*
X009385Y009827D01*
X009434Y009875D01*
X009474Y009931D01*
X009505Y009992D01*
X009527Y010058D01*
X009537Y010126D01*
X009537Y010160D01*
X009100Y010160D01*
X009100Y009723D01*
X009100Y010160D01*
X009100Y010160D01*
X008663Y010160D01*
X009100Y010160D01*
X009100Y010160D01*
X009100Y010160D01*
X009537Y010160D01*
X009537Y010195D01*
X009527Y010263D01*
X009505Y010328D01*
X009474Y010389D01*
X009434Y010445D01*
X009511Y010311D02*
X010609Y010311D01*
X010385Y009994D02*
X010329Y010034D01*
X010268Y010066D01*
X010202Y010087D01*
X010134Y010098D01*
X010100Y010098D01*
X010066Y010098D01*
X009998Y010087D01*
X009932Y010066D01*
X009871Y010034D01*
X009815Y009994D01*
X009766Y009945D01*
X009726Y009889D01*
X009695Y009828D01*
X009673Y009763D01*
X009663Y009695D01*
X009663Y009660D01*
X009663Y009626D01*
X009673Y009558D01*
X009695Y009492D01*
X009726Y009431D01*
X009766Y009375D01*
X009815Y009327D01*
X009871Y009286D01*
X009932Y009255D01*
X009998Y009233D01*
X010066Y009223D01*
X010100Y009223D01*
X010134Y009223D01*
X010202Y009233D01*
X010268Y009255D01*
X010329Y009286D01*
X010385Y009327D01*
X010434Y009375D01*
X010474Y009431D01*
X010505Y009492D01*
X010527Y009558D01*
X010537Y009626D01*
X010537Y009660D01*
X010100Y009660D01*
X010100Y009223D01*
X010100Y009660D01*
X010100Y009660D01*
X009663Y009660D01*
X010100Y009660D01*
X010100Y009660D01*
X010100Y009660D01*
X010537Y009660D01*
X010537Y009695D01*
X010527Y009763D01*
X010505Y009828D01*
X010474Y009889D01*
X010434Y009945D01*
X010385Y009994D01*
X013600Y009994D01*
X013600Y010152D02*
X009537Y010152D01*
X009506Y009994D02*
X009815Y009994D01*
X009698Y009835D02*
X009394Y009835D01*
X009100Y009835D02*
X009100Y009835D01*
X009100Y009994D02*
X009100Y009994D01*
X009100Y010152D02*
X009100Y010152D01*
X009100Y010160D02*
X009100Y010598D01*
X009100Y010160D01*
X009100Y010160D01*
X009100Y010311D02*
X009100Y010311D01*
X009100Y010469D02*
X009100Y010469D01*
X008790Y010469D02*
X008451Y010469D01*
X008296Y010311D02*
X008689Y010311D01*
X008663Y010152D02*
X007998Y010152D01*
X008329Y009994D02*
X008694Y009994D01*
X008806Y009835D02*
X008458Y009835D01*
X008498Y009677D02*
X009663Y009677D01*
X009686Y009518D02*
X009352Y009518D01*
X009329Y009534D02*
X009268Y009566D01*
X009202Y009587D01*
X009134Y009598D01*
X009100Y009598D01*
X009066Y009598D01*
X008998Y009587D01*
X008932Y009566D01*
X008871Y009534D01*
X008815Y009494D01*
X008766Y009445D01*
X008726Y009389D01*
X008695Y009328D01*
X008673Y009263D01*
X008663Y009195D01*
X008663Y009160D01*
X008663Y009126D01*
X008673Y009058D01*
X008695Y008992D01*
X008726Y008931D01*
X008766Y008875D01*
X008815Y008827D01*
X008871Y008786D01*
X008932Y008755D01*
X008998Y008733D01*
X009066Y008723D01*
X009100Y008723D01*
X009134Y008723D01*
X009202Y008733D01*
X009268Y008755D01*
X009329Y008786D01*
X009385Y008827D01*
X009434Y008875D01*
X009474Y008931D01*
X009505Y008992D01*
X009527Y009058D01*
X009537Y009126D01*
X009537Y009160D01*
X009100Y009160D01*
X009100Y008723D01*
X009100Y009160D01*
X009100Y009160D01*
X008663Y009160D01*
X009100Y009160D01*
X009100Y009160D01*
X009100Y009160D01*
X009537Y009160D01*
X009537Y009195D01*
X009527Y009263D01*
X009505Y009328D01*
X009474Y009389D01*
X009434Y009445D01*
X009385Y009494D01*
X009329Y009534D01*
X009100Y009518D02*
X009100Y009518D01*
X009100Y009598D02*
X009100Y009160D01*
X009100Y009598D01*
X009100Y009360D02*
X009100Y009360D01*
X009100Y009201D02*
X009100Y009201D01*
X009100Y009160D02*
X009100Y009160D01*
X009100Y009043D02*
X009100Y009043D01*
X009100Y008884D02*
X009100Y008884D01*
X009100Y008726D02*
X009100Y008726D01*
X009153Y008726D02*
X010433Y008726D01*
X010433Y008743D02*
X010433Y008577D01*
X010496Y008424D01*
X010614Y008306D01*
X010767Y008243D01*
X010933Y008243D01*
X011086Y008306D01*
X011204Y008424D01*
X011267Y008577D01*
X011267Y008743D01*
X011204Y008897D01*
X011086Y009014D01*
X010933Y009078D01*
X010767Y009078D01*
X010614Y009014D01*
X010496Y008897D01*
X010433Y008743D01*
X010491Y008884D02*
X009440Y008884D01*
X009522Y009043D02*
X010683Y009043D01*
X011017Y009043D02*
X012433Y009043D01*
X012423Y009013D02*
X012413Y008945D01*
X012413Y008910D01*
X012413Y008876D01*
X012423Y008808D01*
X012445Y008742D01*
X012476Y008681D01*
X012516Y008625D01*
X012565Y008577D01*
X012621Y008536D01*
X012682Y008505D01*
X012748Y008483D01*
X012816Y008473D01*
X012850Y008473D01*
X012884Y008473D01*
X012952Y008483D01*
X013018Y008505D01*
X013079Y008536D01*
X013135Y008577D01*
X013184Y008625D01*
X013224Y008681D01*
X013255Y008742D01*
X013277Y008808D01*
X013287Y008876D01*
X013287Y008910D01*
X012850Y008910D01*
X012850Y008473D01*
X012850Y008910D01*
X012850Y008910D01*
X012413Y008910D01*
X012850Y008910D01*
X012850Y008910D01*
X012850Y008910D01*
X013287Y008910D01*
X013287Y008945D01*
X013277Y009013D01*
X013255Y009078D01*
X013224Y009139D01*
X013184Y009195D01*
X013135Y009244D01*
X013079Y009284D01*
X013018Y009316D01*
X012952Y009337D01*
X012884Y009348D01*
X012850Y009348D01*
X012816Y009348D01*
X012748Y009337D01*
X012682Y009316D01*
X012621Y009284D01*
X012565Y009244D01*
X012516Y009195D01*
X012476Y009139D01*
X012445Y009078D01*
X012423Y009013D01*
X012413Y008884D02*
X011209Y008884D01*
X011267Y008726D02*
X012453Y008726D01*
X012578Y008567D02*
X011263Y008567D01*
X011189Y008409D02*
X013600Y008409D01*
X013600Y008567D02*
X013122Y008567D01*
X013247Y008726D02*
X013600Y008726D01*
X013600Y008884D02*
X013287Y008884D01*
X013267Y009043D02*
X013600Y009043D01*
X013600Y009201D02*
X013178Y009201D01*
X012850Y009201D02*
X012850Y009201D01*
X012850Y009348D02*
X012850Y008910D01*
X012850Y009348D01*
X012850Y009043D02*
X012850Y009043D01*
X012850Y008910D02*
X012850Y008910D01*
X012850Y008884D02*
X012850Y008884D01*
X012850Y008726D02*
X012850Y008726D01*
X012850Y008567D02*
X012850Y008567D01*
X012933Y008328D02*
X012767Y008328D01*
X012614Y008264D01*
X012496Y008147D01*
X012433Y007993D01*
X012433Y007827D01*
X012496Y007674D01*
X012614Y007556D01*
X012767Y007493D01*
X012933Y007493D01*
X013086Y007556D01*
X013204Y007674D01*
X013267Y007827D01*
X013267Y007993D01*
X013204Y008147D01*
X013086Y008264D01*
X012933Y008328D01*
X013100Y008250D02*
X013600Y008250D01*
X013600Y008092D02*
X013227Y008092D01*
X013267Y007933D02*
X013600Y007933D01*
X013600Y007775D02*
X013246Y007775D01*
X013146Y007616D02*
X013600Y007616D01*
X013600Y007458D02*
X011447Y007458D01*
X011437Y007435D02*
X011498Y007581D01*
X011498Y007739D01*
X011437Y007886D01*
X011325Y007997D01*
X011179Y008058D01*
X011021Y008058D01*
X010875Y007997D01*
X010763Y007886D01*
X010702Y007739D01*
X010702Y007581D01*
X010719Y007542D01*
X010679Y007558D01*
X010521Y007558D01*
X010481Y007542D01*
X010498Y007581D01*
X010498Y007739D01*
X010437Y007886D01*
X010325Y007997D01*
X010179Y008058D01*
X010021Y008058D01*
X009875Y007997D01*
X009763Y007886D01*
X009702Y007739D01*
X009702Y007581D01*
X009763Y007435D01*
X009875Y007323D01*
X010021Y007262D01*
X010179Y007262D01*
X010219Y007279D01*
X010202Y007239D01*
X010202Y007081D01*
X010263Y006935D01*
X010375Y006823D01*
X010521Y006762D01*
X010679Y006762D01*
X010825Y006823D01*
X010937Y006935D01*
X010998Y007081D01*
X010998Y007239D01*
X010981Y007279D01*
X011021Y007262D01*
X011179Y007262D01*
X011325Y007323D01*
X011437Y007435D01*
X011498Y007616D02*
X012554Y007616D01*
X012454Y007775D02*
X011483Y007775D01*
X011390Y007933D02*
X012433Y007933D01*
X012473Y008092D02*
X008705Y008092D01*
X008569Y008250D02*
X010749Y008250D01*
X010511Y008409D02*
X008248Y008409D01*
X008216Y008567D02*
X010437Y008567D01*
X010951Y008250D02*
X012600Y008250D01*
X012522Y009201D02*
X009536Y009201D01*
X009489Y009360D02*
X009782Y009360D01*
X010100Y009360D02*
X010100Y009360D01*
X010100Y009518D02*
X010100Y009518D01*
X010100Y009660D02*
X010100Y010098D01*
X010100Y009660D01*
X010100Y009660D01*
X010100Y009677D02*
X010100Y009677D01*
X010100Y009835D02*
X010100Y009835D01*
X010100Y009994D02*
X010100Y009994D01*
X010502Y009835D02*
X013600Y009835D01*
X013600Y009677D02*
X010537Y009677D01*
X010514Y009518D02*
X013600Y009518D01*
X013600Y009360D02*
X010418Y009360D01*
X011091Y010311D02*
X013600Y010311D01*
X013600Y010469D02*
X011223Y010469D01*
X011267Y010628D02*
X013600Y010628D01*
X013600Y010786D02*
X011250Y010786D01*
X011156Y010945D02*
X013600Y010945D01*
X013600Y012688D02*
X007998Y012688D01*
X007953Y012847D02*
X012531Y012847D01*
X012198Y013005D02*
X007807Y013005D01*
X008174Y013639D02*
X002426Y013639D01*
X002460Y013798D02*
X002855Y013798D01*
X002713Y013956D02*
X002460Y013956D01*
X002444Y014115D02*
X002664Y014115D01*
X002677Y014273D02*
X002402Y014273D01*
X002331Y014432D02*
X002757Y014432D01*
X003018Y014590D02*
X002239Y014590D01*
X003100Y014590D02*
X003100Y014590D01*
X003100Y014598D02*
X003100Y014160D01*
X003100Y014160D01*
X003100Y014598D01*
X003100Y014432D02*
X003100Y014432D01*
X003100Y014273D02*
X003100Y014273D01*
X003100Y014115D02*
X003100Y014115D01*
X003100Y013956D02*
X003100Y013956D01*
X003100Y013798D02*
X003100Y013798D01*
X002384Y013481D02*
X011816Y013481D01*
X011774Y013639D02*
X009026Y013639D01*
X009134Y013798D02*
X009336Y013798D01*
X009336Y013956D02*
X009134Y013956D01*
X009134Y014115D02*
X009336Y014115D01*
X009336Y014273D02*
X009134Y014273D01*
X009134Y014432D02*
X009336Y014432D01*
X009345Y014590D02*
X009118Y014590D01*
X008638Y014115D02*
X008562Y014115D01*
X008562Y013956D02*
X008638Y013956D01*
X008638Y013798D02*
X008562Y013798D01*
X008562Y013639D02*
X008638Y013639D01*
X010355Y014590D02*
X011961Y014590D01*
X011869Y014432D02*
X010364Y014432D01*
X010364Y014273D02*
X011798Y014273D01*
X011756Y014115D02*
X010364Y014115D01*
X010364Y013956D02*
X011740Y013956D01*
X011740Y013798D02*
X010364Y013798D01*
X011908Y013322D02*
X002292Y013322D01*
X002173Y013164D02*
X012027Y013164D01*
X013169Y012847D02*
X013600Y012847D01*
X013600Y013005D02*
X013502Y013005D01*
X009047Y008726D02*
X008097Y008726D01*
X007603Y008726D02*
X002903Y008726D01*
X002884Y008723D02*
X002952Y008733D01*
X003018Y008755D01*
X003079Y008786D01*
X003135Y008827D01*
X003184Y008875D01*
X003224Y008931D01*
X003255Y008992D01*
X003277Y009058D01*
X003287Y009126D01*
X003287Y009160D01*
X002850Y009160D01*
X002850Y008723D01*
X002884Y008723D01*
X002850Y008723D02*
X002850Y009160D01*
X002850Y009160D01*
X002413Y009160D01*
X002413Y009126D01*
X002423Y009058D01*
X002445Y008992D01*
X002476Y008931D01*
X002516Y008875D01*
X002565Y008827D01*
X002621Y008786D01*
X002682Y008755D01*
X002748Y008733D01*
X002816Y008723D01*
X002850Y008723D01*
X002850Y008726D02*
X002850Y008726D01*
X002797Y008726D02*
X000600Y008726D01*
X000600Y008884D02*
X002510Y008884D01*
X002428Y009043D02*
X000600Y009043D01*
X000600Y009201D02*
X001124Y009201D01*
X001086Y009360D02*
X000600Y009360D01*
X000600Y009518D02*
X001086Y009518D01*
X001086Y009677D02*
X000600Y009677D01*
X000600Y009835D02*
X001086Y009835D01*
X001086Y009994D02*
X000600Y009994D01*
X000600Y010152D02*
X001157Y010152D01*
X000600Y010945D02*
X007822Y010945D01*
X007722Y010786D02*
X006783Y010786D01*
X006962Y010628D02*
X007702Y010628D01*
X007346Y010469D02*
X007017Y010469D01*
X007011Y010311D02*
X007232Y010311D01*
X007202Y010152D02*
X006932Y010152D01*
X006685Y009994D02*
X007238Y009994D01*
X007362Y009835D02*
X005708Y009835D01*
X005748Y009677D02*
X006526Y009677D01*
X006496Y009647D02*
X006433Y009493D01*
X006433Y009327D01*
X006496Y009174D01*
X006614Y009056D01*
X006767Y008993D01*
X006933Y008993D01*
X007086Y009056D01*
X007204Y009174D01*
X007267Y009327D01*
X007267Y009493D01*
X007204Y009647D01*
X007086Y009764D01*
X006933Y009828D01*
X006767Y009828D01*
X006614Y009764D01*
X006496Y009647D01*
X006443Y009518D02*
X006025Y009518D01*
X006198Y009360D02*
X006433Y009360D01*
X006485Y009201D02*
X006248Y009201D01*
X006232Y009043D02*
X006646Y009043D01*
X007054Y009043D02*
X008678Y009043D01*
X008664Y009201D02*
X007215Y009201D01*
X007267Y009360D02*
X007838Y009360D01*
X007728Y009518D02*
X007257Y009518D01*
X007174Y009677D02*
X007702Y009677D01*
X008362Y009360D02*
X008711Y009360D01*
X008848Y009518D02*
X008472Y009518D01*
X008760Y008884D02*
X006137Y008884D01*
X006515Y009994D02*
X005579Y009994D01*
X004992Y009835D02*
X003115Y009835D01*
X003018Y009566D02*
X002952Y009587D01*
X002884Y009598D01*
X002850Y009598D01*
X002816Y009598D01*
X002748Y009587D01*
X002682Y009566D01*
X002621Y009534D01*
X002565Y009494D01*
X002516Y009445D01*
X002476Y009389D01*
X002445Y009328D01*
X002423Y009263D01*
X002413Y009195D01*
X002413Y009160D01*
X002850Y009160D01*
X002850Y009160D01*
X002850Y009160D01*
X003287Y009160D01*
X003287Y009195D01*
X003277Y009263D01*
X003255Y009328D01*
X003224Y009389D01*
X003184Y009445D01*
X003135Y009494D01*
X003079Y009534D01*
X003018Y009566D01*
X003102Y009518D02*
X004675Y009518D01*
X004502Y009360D02*
X003239Y009360D01*
X003286Y009201D02*
X004452Y009201D01*
X004468Y009043D02*
X003272Y009043D01*
X003190Y008884D02*
X004563Y008884D01*
X005036Y008409D02*
X000600Y008409D01*
X000600Y008567D02*
X007484Y008567D01*
X008248Y007458D02*
X008807Y007458D01*
X008706Y007299D02*
X008235Y007299D01*
X008143Y007141D02*
X008683Y007141D01*
X008619Y007616D02*
X009702Y007616D01*
X009717Y007775D02*
X008724Y007775D01*
X008748Y007933D02*
X009810Y007933D01*
X009753Y007458D02*
X009393Y007458D01*
X009494Y007299D02*
X009932Y007299D01*
X010202Y007141D02*
X009517Y007141D01*
X009478Y006982D02*
X010243Y006982D01*
X010374Y006824D02*
X009354Y006824D01*
X009383Y006190D02*
X009817Y006190D01*
X009720Y006031D02*
X009480Y006031D01*
X009498Y005873D02*
X009702Y005873D01*
X009998Y005397D02*
X012652Y005397D01*
X012586Y005239D02*
X009960Y005239D01*
X009833Y005080D02*
X012586Y005080D01*
X012586Y004922D02*
X003179Y004922D01*
X002658Y004288D02*
X000600Y004288D01*
X000600Y004446D02*
X002487Y004446D01*
X000809Y004129D02*
X000600Y004129D01*
X000600Y006507D02*
X002733Y006507D01*
X002505Y006665D02*
X000600Y006665D01*
X000600Y006824D02*
X002434Y006824D01*
X002433Y006982D02*
X002107Y006982D01*
X002114Y006990D02*
X002021Y006896D01*
X001179Y006896D01*
X001086Y006990D01*
X001086Y007831D01*
X001179Y007925D01*
X002021Y007925D01*
X002114Y007831D01*
X002114Y006990D01*
X002114Y007141D02*
X002494Y007141D01*
X002698Y007299D02*
X002114Y007299D01*
X002114Y007458D02*
X004503Y007458D01*
X004452Y007616D02*
X003175Y007616D01*
X003184Y007625D02*
X003224Y007681D01*
X003255Y007742D01*
X003277Y007808D01*
X003287Y007876D01*
X003287Y007910D01*
X002850Y007910D01*
X002850Y007473D01*
X002884Y007473D01*
X002952Y007483D01*
X003018Y007505D01*
X003079Y007536D01*
X003135Y007577D01*
X003184Y007625D01*
X003266Y007775D02*
X004467Y007775D01*
X004560Y007933D02*
X003287Y007933D01*
X003287Y007945D02*
X003287Y007910D01*
X002850Y007910D01*
X002850Y007910D01*
X002850Y007473D01*
X002816Y007473D01*
X002748Y007483D01*
X002682Y007505D01*
X002621Y007536D01*
X002565Y007577D01*
X002516Y007625D01*
X002476Y007681D01*
X002445Y007742D01*
X002423Y007808D01*
X002413Y007876D01*
X002413Y007910D01*
X002850Y007910D01*
X002850Y007910D01*
X002850Y007910D01*
X002413Y007910D01*
X002413Y007945D01*
X002423Y008013D01*
X002445Y008078D01*
X002476Y008139D01*
X002516Y008195D01*
X002565Y008244D01*
X002621Y008284D01*
X002682Y008316D01*
X002748Y008337D01*
X002816Y008348D01*
X002850Y008348D01*
X002850Y007910D01*
X002850Y007910D01*
X002850Y008348D01*
X002884Y008348D01*
X002952Y008337D01*
X003018Y008316D01*
X003079Y008284D01*
X003135Y008244D01*
X003184Y008195D01*
X003224Y008139D01*
X003255Y008078D01*
X003277Y008013D01*
X003287Y007945D01*
X003249Y008092D02*
X004952Y008092D01*
X004957Y008250D02*
X003126Y008250D01*
X002850Y008250D02*
X002850Y008250D01*
X002850Y008092D02*
X002850Y008092D01*
X002850Y007933D02*
X002850Y007933D01*
X002850Y007775D02*
X002850Y007775D01*
X002850Y007616D02*
X002850Y007616D01*
X003002Y007299D02*
X004682Y007299D01*
X005018Y007299D02*
X005682Y007299D01*
X005503Y007458D02*
X005197Y007458D01*
X005248Y007616D02*
X005452Y007616D01*
X005459Y007775D02*
X005467Y007775D01*
X005241Y007775D02*
X005233Y007775D01*
X006878Y006348D02*
X006933Y006348D01*
X006109Y005714D02*
X008751Y005714D01*
X008916Y005556D02*
X006220Y005556D01*
X006248Y005397D02*
X009202Y005397D01*
X009240Y005239D02*
X006210Y005239D01*
X006083Y005080D02*
X009367Y005080D01*
X008505Y004578D02*
X008527Y004513D01*
X008537Y004445D01*
X008537Y004410D01*
X008100Y004410D01*
X008100Y003973D01*
X008134Y003973D01*
X008202Y003983D01*
X008268Y004005D01*
X008329Y004036D01*
X008385Y004077D01*
X008434Y004125D01*
X008474Y004181D01*
X008505Y004242D01*
X008527Y004308D01*
X008537Y004376D01*
X008537Y004410D01*
X008100Y004410D01*
X008100Y004410D01*
X008100Y003973D01*
X008066Y003973D01*
X007998Y003983D01*
X007932Y004005D01*
X007871Y004036D01*
X007815Y004077D01*
X007766Y004125D01*
X007726Y004181D01*
X007725Y004183D01*
X007724Y004181D01*
X007684Y004125D01*
X007635Y004077D01*
X007579Y004036D01*
X007518Y004005D01*
X007452Y003983D01*
X007384Y003973D01*
X007350Y003973D01*
X007350Y004410D01*
X007350Y004410D01*
X007350Y003973D01*
X007316Y003973D01*
X007248Y003983D01*
X007182Y004005D01*
X007121Y004036D01*
X007065Y004077D01*
X007016Y004125D01*
X006976Y004181D01*
X006965Y004201D01*
X006954Y004174D01*
X006836Y004056D01*
X006683Y003993D01*
X006517Y003993D01*
X006364Y004056D01*
X006246Y004174D01*
X006183Y004327D01*
X006183Y004493D01*
X006246Y004647D01*
X006364Y004764D01*
X006517Y004828D01*
X006683Y004828D01*
X006836Y004764D01*
X006954Y004647D01*
X006965Y004619D01*
X006976Y004639D01*
X007016Y004695D01*
X007065Y004744D01*
X007121Y004784D01*
X007182Y004816D01*
X007248Y004837D01*
X007316Y004848D01*
X007350Y004848D01*
X007350Y004410D01*
X007350Y004410D01*
X007787Y004410D01*
X008100Y004410D01*
X008100Y004410D01*
X008100Y004410D01*
X007350Y004410D01*
X007350Y004410D01*
X007350Y004848D01*
X007384Y004848D01*
X007452Y004837D01*
X007518Y004816D01*
X007579Y004784D01*
X007635Y004744D01*
X007684Y004695D01*
X007724Y004639D01*
X007725Y004638D01*
X007726Y004639D01*
X007766Y004695D01*
X007815Y004744D01*
X007871Y004784D01*
X007932Y004816D01*
X007998Y004837D01*
X008066Y004848D01*
X008100Y004848D01*
X008100Y004410D01*
X008100Y004410D01*
X008100Y004848D01*
X008134Y004848D01*
X008202Y004837D01*
X008268Y004816D01*
X008329Y004784D01*
X008385Y004744D01*
X008434Y004695D01*
X008474Y004639D01*
X008505Y004578D01*
X008492Y004605D02*
X012586Y004605D01*
X012586Y004763D02*
X008358Y004763D01*
X008100Y004763D02*
X008100Y004763D01*
X008100Y004605D02*
X008100Y004605D01*
X008100Y004446D02*
X008100Y004446D01*
X008100Y004288D02*
X008100Y004288D01*
X008100Y004129D02*
X008100Y004129D01*
X008437Y004129D02*
X012309Y004129D01*
X012629Y004446D02*
X008537Y004446D01*
X008520Y004288D02*
X013600Y004288D01*
X013600Y004446D02*
X013571Y004446D01*
X013600Y004129D02*
X013391Y004129D01*
X013548Y005397D02*
X013600Y005397D01*
X013600Y005556D02*
X010284Y005556D01*
X010449Y005714D02*
X013600Y005714D01*
X013600Y005873D02*
X010498Y005873D01*
X010480Y006031D02*
X013600Y006031D01*
X013600Y006190D02*
X010383Y006190D01*
X010826Y006824D02*
X013600Y006824D01*
X013600Y006982D02*
X010957Y006982D01*
X010998Y007141D02*
X013600Y007141D01*
X013600Y007299D02*
X011268Y007299D01*
X010702Y007616D02*
X010498Y007616D01*
X010483Y007775D02*
X010717Y007775D01*
X010810Y007933D02*
X010390Y007933D01*
X008817Y006190D02*
X008461Y006190D01*
X008517Y006348D02*
X013600Y006348D01*
X013600Y006507D02*
X008512Y006507D01*
X008435Y006665D02*
X013600Y006665D01*
X007842Y004763D02*
X007608Y004763D01*
X007350Y004763D02*
X007350Y004763D01*
X007350Y004605D02*
X007350Y004605D01*
X007350Y004446D02*
X007350Y004446D01*
X007350Y004288D02*
X007350Y004288D01*
X007350Y004129D02*
X007350Y004129D01*
X007013Y004129D02*
X006909Y004129D01*
X006291Y004129D02*
X004909Y004129D01*
X005001Y004288D02*
X006199Y004288D01*
X006183Y004446D02*
X005017Y004446D01*
X004971Y004605D02*
X006229Y004605D01*
X006363Y004763D02*
X004837Y004763D01*
X005083Y005080D02*
X005617Y005080D01*
X005490Y005239D02*
X005210Y005239D01*
X005248Y005397D02*
X005452Y005397D01*
X006837Y004763D02*
X007092Y004763D01*
X007687Y004129D02*
X007763Y004129D01*
X002850Y008884D02*
X002850Y008884D01*
X002850Y009043D02*
X002850Y009043D01*
X002850Y009160D02*
X002850Y009598D01*
X002850Y009160D01*
X002850Y009160D01*
X002850Y009201D02*
X002850Y009201D01*
X002850Y009360D02*
X002850Y009360D01*
X002850Y009518D02*
X002850Y009518D01*
X002598Y009518D02*
X002114Y009518D01*
X002114Y009360D02*
X002461Y009360D01*
X002414Y009201D02*
X002076Y009201D01*
X002574Y008250D02*
X000600Y008250D01*
X000600Y008092D02*
X002451Y008092D01*
X002413Y007933D02*
X000600Y007933D01*
X000600Y007775D02*
X001086Y007775D01*
X001086Y007616D02*
X000600Y007616D01*
X000600Y007458D02*
X001086Y007458D01*
X001086Y007299D02*
X000600Y007299D01*
X000600Y007141D02*
X001086Y007141D01*
X001093Y006982D02*
X000600Y006982D01*
X002114Y007616D02*
X002525Y007616D01*
X002434Y007775D02*
X002114Y007775D01*
X002538Y011103D02*
X000600Y011103D01*
X005106Y011103D02*
X005594Y011103D01*
X005481Y011262D02*
X005219Y011262D01*
X005248Y011420D02*
X005452Y011420D01*
M02*
