G04 Output by ViewMate Deluxe V11.0.9  PentaLogix LLC*
G04 Wed Apr 16 07:23:06 2014*
%FSLAX33Y33*%
%MOMM*%
%IPPOS*%
%ADD16C,0.127*%
%ADD105C,1.397*%
%ADD106C,0.254*%
%ADD107C,0.4064*%
%ADD108C,0.1524*%

%LPD*%
X0Y0D2*D16*G1X25646Y7061D2*X25646Y7978D1*X25972Y7518D2*X26276Y7518D1*X23165Y5537D2*X23165Y6454D1*X25037Y6454D2*X25037Y5537D1*X24100Y5994D2*X24404Y5994D1*X24712Y6454D2*X24100Y6454D1*X24100Y7518D2*X24712Y7518D1*X24100Y7061D2*X24100Y7671D1*X24404Y7978*X24712Y7671*X24712Y7061*X25037Y7061D2*X25037Y7978D1*X25342Y7671*X25646Y7978*X25972Y7061D2*X25972Y7978D1*X26581Y7978*X27516Y7823D2*X27363Y7978D1*X27059Y7978*X26906Y7823*X26906Y7671*X27059Y7518*X27363Y7518*X27516Y7366*X27516Y7214*X27363Y7061*X27059Y7061*X26906Y7214*X25972Y7061D2*X26581Y7061D1*X25972Y5537D2*X25972Y6454D1*X27516Y5994D2*X26906Y5994D1*X28453Y6454D2*X28453Y5537D1*X27843Y6454*X27843Y5537*X27516Y5537D2*X27516Y6147D1*X27211Y6454*X26906Y6147*X26906Y5537*X26581Y5537D2*X26581Y6454D1*X26276Y6147*X25972Y6454*X25646Y6454D2*X25646Y5537D1*X25342Y5842*X25037Y5537*X24712Y5537D2*X24100Y5537D1*X24100Y6454*X23774Y6454D2*X23774Y5537D1*X23165Y6454*X23165Y7214D2*X23317Y7061D1*X23470Y7061*X23622Y7214*X23622Y7978*X23470Y7978D2*X23774Y7978D1*X8687Y36182D2*X8992Y36490D1*X8992Y35573*X9296Y35573D2*X8687Y35573D1*X9622Y35725D2*X9622Y36335D1*X9774Y36490*X10079Y36490*X10234Y36335*X9622Y35725*X9774Y35573*X10079Y35573*X10234Y35725*X10234Y36335*X11168Y36335D2*X11016Y36490D1*X10711Y36490*X10559Y36335*X10559Y35725*X11168Y35725D2*X11168Y36335D1*X10559Y35725*X10711Y35573*X11016Y35573*X11168Y35725*X11494Y35573D2*X11494Y36182D1*X11951Y36182*X12103Y36030*X12103Y35573*X23050Y29322D2*X23520Y29792D1*X23020Y19050D2*X22708Y19365D1*X23647Y19365*X23647Y19677D2*X23647Y19050D1*X22863Y20612D2*X22708Y20457D1*X22708Y20142*X22863Y19987*X23490Y19987*X23490Y20612D2*X22863Y20612D1*X23490Y19987*X23647Y20142*X23647Y20457*X23490Y20612*X22708Y20922D2*X23647Y20922D1*X23335Y20922D2*X22708Y21549D1*X23647Y21549D2*X23178Y21079D1*X27181Y25044D2*X27026Y25044D1*X27026Y24420*X27965Y23952D2*X27026Y23952D1*X27496Y23482*X27496Y24110*X27965Y24420D2*X27808Y24420D1*X27181Y25044*X27808Y25354D2*X27181Y25354D1*X27026Y25512*X27026Y25824*X27181Y25982*X27808Y25982*X27965Y25824*X27965Y25512*X27808Y25354*X27181Y25982*X25590Y28052D2*X26060Y28522D1*X25748Y27894D2*X25121Y28522D1*X25121Y27894D2*X26060Y27894D1*X25121Y27429D2*X25276Y27584D1*X25433Y26022D2*X25121Y26337D1*X26060Y26337*X26060Y26650D2*X26060Y26022D1*X25903Y26960D2*X26060Y27114D1*X26060Y27429*X25903Y27584*X25276Y27584*X25903Y26960*X25276Y26960*X25121Y27114*X25121Y27429*X22893Y27292D2*X22581Y27607D1*X23520Y27607*X23520Y27920D2*X23520Y27292D1*X23363Y28230D2*X23520Y28384D1*X23520Y28699*X23363Y28854*X22736Y28854*X23363Y28230*X22736Y28230*X22581Y28384*X22581Y28699*X22736Y28854*X23520Y29164D2*X22581Y29164D1*X22581Y29792D2*X23208Y29164D1*X14732Y32535D2*X14732Y32692D1*X14105Y32692*X13797Y32220D2*X13170Y32220D1*X13640Y32692*X13640Y31750*X14105Y31750D2*X14105Y31907D1*X14732Y32535*X15669Y32535D2*X15512Y32692D1*X15197Y32692*X15042Y32535*X15042Y31907*X15197Y31750D2*X15512Y31750D1*X15669Y31907*X15669Y32535*X15042Y31907*X15197Y31750*X14732Y26820D2*X14732Y26977D1*X14105Y26977*X13640Y26035D2*X13640Y26977D1*X13170Y26505*X13797Y26505*X14105Y26035D2*X14105Y26192D1*X14732Y26820*X15669Y26820D2*X15512Y26977D1*X15197Y26977*X15042Y26820*X15042Y26192*X15512Y26035D2*X15669Y26192D1*X15669Y26820*X15042Y26192*X15197Y26035*X15512Y26035*X17336Y22337D2*X17805Y22807D1*X17493Y22179D2*X16866Y22807D1*X16866Y22179D2*X17805Y22179D1*X17021Y21869D2*X17648Y21869D1*X17805Y21714*X17805Y21400*X17648Y21245*X17021Y21869*X16866Y21714*X16866Y21400*X17021Y21245*X17648Y21245*X17805Y20935D2*X17805Y20307D1*X17805Y20622D2*X16866Y20622D1*X17178Y20307*X14732Y17295D2*X14732Y17452D1*X14105Y17452*X13640Y16510D2*X13640Y17452D1*X13170Y16980*X13797Y16980*X14105Y16510D2*X14105Y16667D1*X14732Y17295*X15669Y17295D2*X15512Y17452D1*X15197Y17452*X15042Y17295*X15042Y16667*X15197Y16510D2*X15512Y16510D1*X15669Y16667*X15669Y17295*X15042Y16667*X15197Y16510*X14732Y11580D2*X14732Y11737D1*X14105Y11737*X13797Y11265D2*X13170Y11265D1*X13640Y11737*X13640Y10795*X14105Y10795D2*X14105Y10952D1*X14732Y11580*X15042Y10952D2*X15042Y11580D1*X15197Y11737*X15512Y11737*X15669Y11580*X15042Y10952*X15197Y10795*X15512Y10795*X15669Y10952*X15669Y11580*X18448Y12687D2*X18136Y13002D1*X19075Y13002*X19075Y13315D2*X19075Y12687D1*X18606Y14717D2*X19075Y15187D1*X18763Y14559D2*X18136Y15187D1*X18136Y14559D2*X19075Y14559D1*X18291Y14249D2*X18136Y14094D1*X18136Y13780*X18291Y13625*X18918Y13625*X19075Y13780D2*X19075Y14094D1*X18918Y14249*X18291Y14249*X18918Y13625*X19075Y13780*X20823Y13625D2*X20196Y13625D1*X20510Y14717D2*X20980Y15187D1*X20668Y14559D2*X20041Y15187D1*X20041Y14559D2*X20980Y14559D1*X20196Y14249D2*X20823Y14249D1*X20980Y14094*X20980Y13780*X20823Y13625*X20196Y14249*X20041Y14094*X20041Y13780*X20196Y13625*X20353Y12687D2*X20041Y13002D1*X20980Y13002*X20980Y12687D2*X20980Y13315D1*X16129Y13995D2*X16093Y14150D1*X16048Y14300*X15994Y14450*X15931Y14595*X15860Y14735*X15778Y14872*X15690Y15004*X15593Y15128*X15491Y15248*X15380Y15359*X15263Y15466*X15138Y15565*X15009Y15654*X14874Y15738*X14735Y15812*X14590Y15878*X14442Y15933*X14293Y15982*X14138Y16020*X13983Y16048*X13825Y16068*X13668Y16078*X13510Y16078*X13353Y16068*X13195Y16048*X13040Y16020*X12885Y15982*X12736Y15933*X12588Y15878*X12443Y15812*X12304Y15738*X12169Y15654*X12040Y15565*X11915Y15466*X11798Y15359*X11687Y15248*X11585Y15128*X11488Y15004*X11400Y14872*X11318Y14735*X11247Y14595*X11184Y14450*X11130Y14300*X11085Y14150*X11049Y13995*X11049Y12471*X16129Y12471*X16129Y13995*X16129Y19710D2*X16093Y19865D1*X16048Y20015*X15994Y20165*X15931Y20310*X15860Y20450*X15778Y20587*X15690Y20719*X15593Y20843*X15491Y20963*X15380Y21074*X15263Y21181*X15138Y21280*X15009Y21369*X14874Y21453*X14735Y21526*X14590Y21593*X14442Y21648*X14293Y21697*X14138Y21735*X13983Y21763*X13825Y21783*X13668Y21793*X13510Y21793*X13353Y21783*X13195Y21763*X13040Y21735*X12885Y21697*X12736Y21648*X12588Y21593*X12443Y21526*X12304Y21453*X12169Y21369*X12040Y21280*X11915Y21181*X11798Y21074*X11687Y20963*X11585Y20843*X11488Y20719*X11400Y20587*X11318Y20450*X11247Y20310*X11184Y20165*X11130Y20015*X11085Y19865*X11049Y19710*X11049Y29235D2*X11085Y29390D1*X11130Y29540*X11184Y29690*X11247Y29835*X11318Y29975*X11400Y30112*X11488Y30244*X11585Y30368*X11687Y30488*X11798Y30599*X11915Y30706*X12040Y30805*X12169Y30894*X12304Y30978*X12443Y31052*X12588Y31118*X12736Y31173*X12885Y31222*X13040Y31260*X13195Y31288*X13353Y31308*X13510Y31318*X13668Y31318*X13825Y31308*X13983Y31288*X14138Y31260*X14293Y31222*X14442Y31173*X14590Y31118*X14735Y31052*X14874Y30978*X15009Y30894*X15138Y30805*X15263Y30706*X15380Y30599*X15491Y30488*X15593Y30368*X15690Y30244*X15778Y30112*X15860Y29975*X15931Y29835*X15994Y29690*X16048Y29540*X16093Y29390*X16129Y29235*X16129Y27711*X11049Y27711*X11049Y29235*X11049Y23520D2*X11085Y23675D1*X11130Y23825*X11184Y23975*X11247Y24120*X11318Y24260*X11400Y24397*X11488Y24529*X11585Y24653*X11687Y24773*X11798Y24884*X11915Y24991*X12040Y25090*X12169Y25179*X12304Y25263*X12443Y25336*X12588Y25403*X12736Y25458*X12885Y25507*X13040Y25545*X13195Y25573*X13353Y25593*X13510Y25603*X13668Y25603*X13825Y25593*X13983Y25573*X14138Y25545*X14293Y25507*X14442Y25458*X14590Y25403*X14735Y25336*X14874Y25263*X15009Y25179*X15138Y25090*X15263Y24991*X15380Y24884*X15491Y24773*X15593Y24653*X15690Y24529*X15778Y24397*X15860Y24260*X15931Y24120*X15994Y23975*X16048Y23825*X16093Y23675*X16129Y23520*X16129Y21996*X11049Y21996*X11049Y23520*X11049Y19710D2*X11049Y18186D1*X16129Y18186*X16129Y19710*X20193Y17551D2*X20348Y17587D1*X20498Y17633*X20648Y17686*X20792Y17750*X20932Y17821*X21069Y17902*X21201Y17991*X21326Y18087*X21445Y18189*X21557Y18301*X21664Y18418*X21763Y18542*X21852Y18672*X21935Y18806*X22009Y18946*X22075Y19091*X22131Y19238*X22179Y19388*X22217Y19543*X22245Y19698*X22266Y19855*X22276Y20013*X22276Y20170*X22266Y20328*X22245Y20485*X22217Y20640*X22179Y20795*X22131Y20945*X22075Y21092*X22009Y21237*X21935Y21377*X21852Y21511*X21763Y21641*X21664Y21765*X21557Y21882*X21445Y21994*X21326Y22095*X21201Y22192*X21069Y22281*X20932Y22362*X20792Y22433*X20648Y22497*X20498Y22550*X20348Y22596*X20193Y22631*X20320Y23266D2*X20165Y23302D1*X20015Y23348*X19865Y23401*X19721Y23465*X19581Y23536*X19444Y23617*X19312Y23706*X19187Y23802*X19068Y23904*X18956Y24016*X18849Y24133*X18750Y24257*X18661Y24387*X18578Y24521*X18504Y24661*X18438Y24806*X18382Y24953*X18334Y25103*X18296Y25258*X18268Y25413*X18247Y25570*X18237Y25728*X18237Y25885*X18247Y26043*X18268Y26200*X18296Y26355*X18334Y26510*X18382Y26660*X18438Y26807*X18504Y26952*X18578Y27092*X18661Y27226*X18750Y27356*X18849Y27480*X18956Y27597*X19068Y27709*X19187Y27810*X19312Y27907*X19444Y27996*X19581Y28077*X19721Y28148*X19865Y28212*X20015Y28265*X20165Y28311*X20320Y28346*X19558Y28346D2*X19713Y28382D1*X19863Y28428*X20013Y28481*X20157Y28545*X20297Y28616*X20434Y28697*X20566Y28786*X20691Y28882*X20810Y28984*X20922Y29096*X21029Y29213*X21128Y29337*X21217Y29467*X21300Y29601*X21374Y29741*X21440Y29886*X21496Y30033*X21544Y30183*X21582Y30338*X21610Y30493*X21631Y30650*X21641Y30808*X21641Y30965*X21631Y31123*X21610Y31280*X21582Y31435*X21544Y31590*X21496Y31740*X21440Y31887*X21374Y32032*X21300Y32172*X21217Y32306*X21128Y32436*X21029Y32560*X20922Y32677*X20810Y32789*X20691Y32890*X20566Y32987*X20434Y33076*X20297Y33157*X20157Y33228*X20013Y33292*X19863Y33345*X19713Y33391*X19558Y33426*X18034Y33426*X18034Y28346*X19558Y28346*X20320Y28346D2*X21844Y28346D1*X21844Y23266*X20320Y23266*X20193Y22631D2*X18669Y22631D1*X18669Y17551*X20193Y17551*X21844Y14757D2*X21880Y14602D1*X21925Y14453*X21979Y14303*X22042Y14158*X22113Y14018*X22195Y13881*X22283Y13749*X22380Y13625*X22482Y13505*X22593Y13393*X22710Y13287*X22835Y13188*X22964Y13099*X23099Y13015*X23238Y12941*X23383Y12875*X23531Y12819*X23680Y12771*X23835Y12733*X23990Y12705*X24148Y12685*X24305Y12675*X24463Y12675*X24620Y12685*X24778Y12705*X24933Y12733*X25088Y12771*X25237Y12819*X25385Y12875*X25530Y12941*X25669Y13015*X25804Y13099*X25933Y13188*X26058Y13287*X26175Y13393*X26286Y13505*X26388Y13625*X26485Y13749*X26573Y13881*X26655Y14018*X26726Y14158*X26789Y14303*X26843Y14453*X26888Y14602*X26924Y14757*X26924Y16281*X21844Y16281*X21844Y14757*X24384Y19202D2*X24420Y19047D1*X24465Y18898*X24519Y18748*X24582Y18603*X24653Y18463*X24735Y18326*X24823Y18194*X24920Y18070*X25022Y17950*X25133Y17838*X25250Y17732*X25375Y17633*X25504Y17544*X25639Y17460*X25778Y17386*X25923Y17320*X26071Y17264*X26220Y17216*X26375Y17178*X26530Y17150*X26688Y17130*X26845Y17120*X27003Y17120*X27160Y17130*X27318Y17150*X27473Y17178*X27628Y17216*X27777Y17264*X27925Y17320*X28070Y17386*X28209Y17460*X28344Y17544*X28473Y17633*X28598Y17732*X28715Y17838*X28826Y17950*X28928Y18070*X29025Y18194*X29113Y18326*X29195Y18463*X29266Y18603*X29329Y18748*X29383Y18898*X29428Y19047*X29464Y19202*X29464Y20726*X24384Y20726*X24384Y19202*D105*X9779Y9296D2*X19939Y9296D1*X20546Y9403*X21146Y9538*X21740Y9703*X22324Y9898*X22898Y10119*X23462Y10371*X24013Y10648*X24549Y10952*X25067Y11283*X25573Y11638*X26058Y12017*X26523Y12418*X26970Y12845*X27394Y13292*X27798Y13757*X28176Y14244*X28529Y14747*X28859Y15268*X29164Y15804*X29441Y16355*X29690Y16916*X29914Y17493*X30107Y18077*X30272Y18672*X30406Y19271*X30513Y19878*X30589Y20490*X30635Y21105*X30650Y21720*X30635Y22337*X30592Y22951*X30516Y23564*X30411Y24171*X30279Y24770*X30114Y25364*X29924Y25951*X29703Y26525*X29454Y27089*X29177Y27640*X28875Y28179*X28547Y28699*X28194Y29202*X27816Y29690*X27414Y30157*X26990Y30604*X26546Y31031*X26078Y31435*X25596Y31816*X25093Y32172*X24572Y32502*X24039Y32809*X23487Y33086*X22926Y33340*X22352Y33564*X21768Y33759*X21173Y33924*X20574Y34061*X9779Y34061*X9779Y9296*D106*X33655Y22949D2*X33655Y24092D1*X33084Y23520D2*X34226Y23520D1*X6794Y28092D2*X5652Y28092D1*X6223Y27521D2*X6223Y28664D1*X6223Y22949D2*X6223Y21806D1*X6794Y22377D2*X5652Y22377D1*X7684Y20980D2*X8826Y20980D1*X8255Y20409D2*X8255Y21552D1*X7684Y15265D2*X8826Y15265D1*X8255Y14694D2*X8255Y15837D1*X11864Y6759D2*X10340Y6759D1*X15016Y7902D2*X15016Y5613D1*X16162Y5613*X16543Y5994*X16543Y7521*X16162Y7902*X15016Y7902*X14204Y7902D2*X14204Y5613D1*X12680Y7902*X12680Y5613*X11864Y5613D2*X11864Y7140D1*X11102Y7902*X10340Y7140*X10340Y5613*X9144Y5613D2*X9144Y7902D1*X8001Y6759*X9528Y6759*D107*X34544Y16281D2*X32004Y16281D1*X32004Y27711D2*X34544Y27711D1*X33274Y26441D2*X33274Y28981D1*D108*X29088Y37036D2*X29088Y35951D1*X28545Y35408*X28004Y35951*X28004Y37036*X27450Y36764D2*X27178Y37036D1*X26637Y37036*X26365Y36764*X26365Y35679*X26637Y35408D2*X27178Y35408D1*X27450Y35679*X27450Y36764*X26365Y35679*X26637Y35408*X6304Y11902D2*X6215Y11979D1*X6132Y12057*X6055Y12146*X5987Y12238*X5926Y12334*X5870Y12436*X5824Y12543*X5784Y12652*X5753Y12764*X5733Y12875*X5720Y12992*X5715Y13106*X8153Y14326D2*X8245Y14252D1*X8331Y14171*X8410Y14082*X8481Y13990*X8545Y13891*X8603Y13787*X8651Y13680*X8692Y13571*X8722Y13457*X8745Y13340*X8758Y13223*X8763Y13106*X8125Y11867D2*X8219Y11941D1*X8308Y12022*X8392Y12111*X8468Y12205*X8534Y12304*X8593Y12408*X8646Y12520*X8687Y12631*X8720Y12748*X8743Y12865*X8758Y12987*X8763Y13106*X6304Y14310D2*X6215Y14234D1*X6132Y14155*X6055Y14067*X5987Y13975*X5926Y13879*X5870Y13777*X5824Y13670*X5784Y13561*X5753Y13449*X5733Y13338*X5720Y13221*X5715Y13106*X16066Y10312D2*X12382Y10312D1*X18019Y5563D2*X17475Y6106D1*X17475Y6647*X18019Y7191*X18567Y6647D2*X19108Y7191D1*X19108Y5563*X19652Y5563D2*X18567Y5563D1*X20203Y5563D2*X20747Y6106D1*X20747Y6647*X20203Y7191*X21463Y15583D2*X21463Y11900D1*X19685Y11900D2*X19685Y15583D1*X19558Y15583D2*X19558Y11900D1*X17780Y11900D2*X17780Y15583D1*X12382Y12090D2*X16066Y12090D1*X16066Y16027D2*X12382Y16027D1*X12382Y17805D2*X16066Y17805D1*X8153Y20041D2*X8245Y19967D1*X8331Y19886*X8410Y19797*X8481Y19705*X8545Y19606*X8603Y19502*X8651Y19395*X8692Y19286*X8722Y19172*X8745Y19055*X8758Y18938*X8763Y18821*X6304Y17617D2*X6215Y17694D1*X6132Y17772*X6055Y17861*X5987Y17953*X5926Y18049*X5870Y18151*X5824Y18258*X5784Y18367*X5753Y18478*X5733Y18590*X5720Y18707*X5715Y18821*X6304Y20025D2*X6215Y19949D1*X6132Y19870*X6055Y19782*X5987Y19690*X5926Y19594*X5870Y19492*X5824Y19385*X5784Y19276*X5753Y19164*X5733Y19053*X5720Y18936*X5715Y18821*X8125Y17582D2*X8219Y17656D1*X8308Y17737*X8392Y17826*X8468Y17920*X8534Y18019*X8593Y18123*X8646Y18235*X8687Y18346*X8720Y18463*X8743Y18580*X8758Y18702*X8763Y18821*X8174Y25740D2*X8263Y25664D1*X8346Y25585*X8423Y25497*X8491Y25405*X8552Y25309*X8608Y25207*X8654Y25100*X8694Y24991*X8725Y24879*X8745Y24768*X8758Y24651*X8763Y24536*X6325Y23317D2*X6233Y23391D1*X6147Y23472*X6068Y23561*X5997Y23652*X5933Y23752*X5875Y23856*X5827Y23962*X5786Y24072*X5756Y24186*X5733Y24303*X5720Y24420*X5715Y24536*X6353Y25776D2*X6259Y25702D1*X6170Y25621*X6086Y25532*X6010Y25438*X5944Y25339*X5885Y25235*X5832Y25123*X5791Y25011*X5758Y24895*X5735Y24778*X5720Y24656*X5715Y24536*X8174Y23332D2*X8263Y23409D1*X8346Y23487*X8423Y23576*X8491Y23668*X8552Y23764*X8608Y23866*X8654Y23973*X8694Y24082*X8725Y24194*X8745Y24305*X8758Y24422*X8763Y24536*X8174Y31455D2*X8263Y31379D1*X8346Y31300*X8423Y31212*X8491Y31120*X8552Y31024*X8608Y30922*X8654Y30815*X8694Y30706*X8725Y30594*X8745Y30483*X8758Y30366*X8763Y30251*X6325Y29032D2*X6233Y29106D1*X6147Y29187*X6068Y29276*X5997Y29367*X5933Y29467*X5875Y29571*X5827Y29677*X5786Y29787*X5756Y29901*X5733Y30018*X5720Y30135*X5715Y30251*X6353Y31491D2*X6259Y31417D1*X6170Y31336*X6086Y31247*X6010Y31153*X5944Y31054*X5885Y30950*X5832Y30838*X5791Y30726*X5758Y30610*X5735Y30493*X5720Y30371*X5715Y30251*X8174Y29047D2*X8263Y29124D1*X8346Y29202*X8423Y29291*X8491Y29383*X8552Y29479*X8608Y29581*X8654Y29688*X8694Y29797*X8725Y29908*X8745Y30020*X8758Y30137*X8763Y30251*X7493Y34823D2*X13335Y34823D1*X13335Y37109D2*X7493Y37109D1*X16749Y35679D2*X16749Y36764D1*X17290Y36220D2*X16205Y36220D1*X20564Y37036D2*X20564Y35951D1*X20023Y35408*X19479Y35951*X19479Y37036*X18928Y37036D2*X17844Y37036D1*X17844Y36220*X18385Y36492*X18656Y36492*X18928Y36220*X18928Y35679*X18656Y35408*X18113Y35408*X17844Y35679*X12382Y33045D2*X16066Y33045D1*X16066Y31267D2*X12382Y31267D1*X12382Y27330D2*X16066Y27330D1*X16066Y25552D2*X12382Y25552D1*X16510Y19520D2*X16510Y23203D1*X18288Y23203D2*X18288Y19520D1*X24003Y18885D2*X24003Y22568D1*X22225Y22568D2*X22225Y18885D1*X22225Y30188D2*X22225Y26505D1*X24003Y26505D2*X24003Y30188D1*X24765Y28918D2*X24765Y25235D1*X26543Y25235D2*X26543Y28918D1*X26670Y26378D2*X26670Y22695D1*X28448Y22695D2*X28448Y26378D1*X31704Y20157D2*X31615Y20234D1*X31532Y20312*X31455Y20401*X31387Y20493*X31326Y20589*X31270Y20691*X31224Y20798*X31184Y20907*X31153Y21018*X31133Y21130*X31120Y21247*X31115Y21361*X33553Y22581D2*X33645Y22507D1*X33731Y22426*X33810Y22337*X33881Y22245*X33945Y22146*X34003Y22042*X34051Y21935*X34092Y21826*X34122Y21712*X34145Y21595*X34158Y21478*X34163Y21361*X33525Y20122D2*X33619Y20196D1*X33708Y20277*X33792Y20366*X33868Y20460*X33934Y20559*X33993Y20663*X34046Y20775*X34087Y20886*X34120Y21003*X34143Y21120*X34158Y21242*X34163Y21361*X31704Y22565D2*X31615Y22489D1*X31532Y22410*X31455Y22322*X31387Y22230*X31326Y22134*X31270Y22032*X31224Y21925*X31184Y21816*X31153Y21704*X31133Y21593*X31120Y21476*X31115Y21361*X0Y0D2*M02*