G75*
G70*
%OFA0B0*%
%FSLAX24Y24*%
%IPPOS*%
%LPD*%
%AMOC8*
5,1,8,0,0,1.08239X$1,22.5*
%
%ADD10C,0.0000*%
D10*
X000100Y001910D02*
X000100Y015160D01*
X014092Y015160D01*
X014092Y001910D01*
X000100Y001910D01*
X000720Y003160D02*
X000722Y003210D01*
X000728Y003260D01*
X000738Y003309D01*
X000752Y003357D01*
X000769Y003404D01*
X000790Y003449D01*
X000815Y003493D01*
X000843Y003534D01*
X000875Y003573D01*
X000909Y003610D01*
X000946Y003644D01*
X000986Y003674D01*
X001028Y003701D01*
X001072Y003725D01*
X001118Y003746D01*
X001165Y003762D01*
X001213Y003775D01*
X001263Y003784D01*
X001312Y003789D01*
X001363Y003790D01*
X001413Y003787D01*
X001462Y003780D01*
X001511Y003769D01*
X001559Y003754D01*
X001605Y003736D01*
X001650Y003714D01*
X001693Y003688D01*
X001734Y003659D01*
X001773Y003627D01*
X001809Y003592D01*
X001841Y003554D01*
X001871Y003514D01*
X001898Y003471D01*
X001921Y003427D01*
X001940Y003381D01*
X001956Y003333D01*
X001968Y003284D01*
X001976Y003235D01*
X001980Y003185D01*
X001980Y003135D01*
X001976Y003085D01*
X001968Y003036D01*
X001956Y002987D01*
X001940Y002939D01*
X001921Y002893D01*
X001898Y002849D01*
X001871Y002806D01*
X001841Y002766D01*
X001809Y002728D01*
X001773Y002693D01*
X001734Y002661D01*
X001693Y002632D01*
X001650Y002606D01*
X001605Y002584D01*
X001559Y002566D01*
X001511Y002551D01*
X001462Y002540D01*
X001413Y002533D01*
X001363Y002530D01*
X001312Y002531D01*
X001263Y002536D01*
X001213Y002545D01*
X001165Y002558D01*
X001118Y002574D01*
X001072Y002595D01*
X001028Y002619D01*
X000986Y002646D01*
X000946Y002676D01*
X000909Y002710D01*
X000875Y002747D01*
X000843Y002786D01*
X000815Y002827D01*
X000790Y002871D01*
X000769Y002916D01*
X000752Y002963D01*
X000738Y003011D01*
X000728Y003060D01*
X000722Y003110D01*
X000720Y003160D01*
X000720Y013910D02*
X000722Y013960D01*
X000728Y014010D01*
X000738Y014059D01*
X000752Y014107D01*
X000769Y014154D01*
X000790Y014199D01*
X000815Y014243D01*
X000843Y014284D01*
X000875Y014323D01*
X000909Y014360D01*
X000946Y014394D01*
X000986Y014424D01*
X001028Y014451D01*
X001072Y014475D01*
X001118Y014496D01*
X001165Y014512D01*
X001213Y014525D01*
X001263Y014534D01*
X001312Y014539D01*
X001363Y014540D01*
X001413Y014537D01*
X001462Y014530D01*
X001511Y014519D01*
X001559Y014504D01*
X001605Y014486D01*
X001650Y014464D01*
X001693Y014438D01*
X001734Y014409D01*
X001773Y014377D01*
X001809Y014342D01*
X001841Y014304D01*
X001871Y014264D01*
X001898Y014221D01*
X001921Y014177D01*
X001940Y014131D01*
X001956Y014083D01*
X001968Y014034D01*
X001976Y013985D01*
X001980Y013935D01*
X001980Y013885D01*
X001976Y013835D01*
X001968Y013786D01*
X001956Y013737D01*
X001940Y013689D01*
X001921Y013643D01*
X001898Y013599D01*
X001871Y013556D01*
X001841Y013516D01*
X001809Y013478D01*
X001773Y013443D01*
X001734Y013411D01*
X001693Y013382D01*
X001650Y013356D01*
X001605Y013334D01*
X001559Y013316D01*
X001511Y013301D01*
X001462Y013290D01*
X001413Y013283D01*
X001363Y013280D01*
X001312Y013281D01*
X001263Y013286D01*
X001213Y013295D01*
X001165Y013308D01*
X001118Y013324D01*
X001072Y013345D01*
X001028Y013369D01*
X000986Y013396D01*
X000946Y013426D01*
X000909Y013460D01*
X000875Y013497D01*
X000843Y013536D01*
X000815Y013577D01*
X000790Y013621D01*
X000769Y013666D01*
X000752Y013713D01*
X000738Y013761D01*
X000728Y013810D01*
X000722Y013860D01*
X000720Y013910D01*
X012220Y013910D02*
X012222Y013960D01*
X012228Y014010D01*
X012238Y014059D01*
X012252Y014107D01*
X012269Y014154D01*
X012290Y014199D01*
X012315Y014243D01*
X012343Y014284D01*
X012375Y014323D01*
X012409Y014360D01*
X012446Y014394D01*
X012486Y014424D01*
X012528Y014451D01*
X012572Y014475D01*
X012618Y014496D01*
X012665Y014512D01*
X012713Y014525D01*
X012763Y014534D01*
X012812Y014539D01*
X012863Y014540D01*
X012913Y014537D01*
X012962Y014530D01*
X013011Y014519D01*
X013059Y014504D01*
X013105Y014486D01*
X013150Y014464D01*
X013193Y014438D01*
X013234Y014409D01*
X013273Y014377D01*
X013309Y014342D01*
X013341Y014304D01*
X013371Y014264D01*
X013398Y014221D01*
X013421Y014177D01*
X013440Y014131D01*
X013456Y014083D01*
X013468Y014034D01*
X013476Y013985D01*
X013480Y013935D01*
X013480Y013885D01*
X013476Y013835D01*
X013468Y013786D01*
X013456Y013737D01*
X013440Y013689D01*
X013421Y013643D01*
X013398Y013599D01*
X013371Y013556D01*
X013341Y013516D01*
X013309Y013478D01*
X013273Y013443D01*
X013234Y013411D01*
X013193Y013382D01*
X013150Y013356D01*
X013105Y013334D01*
X013059Y013316D01*
X013011Y013301D01*
X012962Y013290D01*
X012913Y013283D01*
X012863Y013280D01*
X012812Y013281D01*
X012763Y013286D01*
X012713Y013295D01*
X012665Y013308D01*
X012618Y013324D01*
X012572Y013345D01*
X012528Y013369D01*
X012486Y013396D01*
X012446Y013426D01*
X012409Y013460D01*
X012375Y013497D01*
X012343Y013536D01*
X012315Y013577D01*
X012290Y013621D01*
X012269Y013666D01*
X012252Y013713D01*
X012238Y013761D01*
X012228Y013810D01*
X012222Y013860D01*
X012220Y013910D01*
X012220Y003160D02*
X012222Y003210D01*
X012228Y003260D01*
X012238Y003309D01*
X012252Y003357D01*
X012269Y003404D01*
X012290Y003449D01*
X012315Y003493D01*
X012343Y003534D01*
X012375Y003573D01*
X012409Y003610D01*
X012446Y003644D01*
X012486Y003674D01*
X012528Y003701D01*
X012572Y003725D01*
X012618Y003746D01*
X012665Y003762D01*
X012713Y003775D01*
X012763Y003784D01*
X012812Y003789D01*
X012863Y003790D01*
X012913Y003787D01*
X012962Y003780D01*
X013011Y003769D01*
X013059Y003754D01*
X013105Y003736D01*
X013150Y003714D01*
X013193Y003688D01*
X013234Y003659D01*
X013273Y003627D01*
X013309Y003592D01*
X013341Y003554D01*
X013371Y003514D01*
X013398Y003471D01*
X013421Y003427D01*
X013440Y003381D01*
X013456Y003333D01*
X013468Y003284D01*
X013476Y003235D01*
X013480Y003185D01*
X013480Y003135D01*
X013476Y003085D01*
X013468Y003036D01*
X013456Y002987D01*
X013440Y002939D01*
X013421Y002893D01*
X013398Y002849D01*
X013371Y002806D01*
X013341Y002766D01*
X013309Y002728D01*
X013273Y002693D01*
X013234Y002661D01*
X013193Y002632D01*
X013150Y002606D01*
X013105Y002584D01*
X013059Y002566D01*
X013011Y002551D01*
X012962Y002540D01*
X012913Y002533D01*
X012863Y002530D01*
X012812Y002531D01*
X012763Y002536D01*
X012713Y002545D01*
X012665Y002558D01*
X012618Y002574D01*
X012572Y002595D01*
X012528Y002619D01*
X012486Y002646D01*
X012446Y002676D01*
X012409Y002710D01*
X012375Y002747D01*
X012343Y002786D01*
X012315Y002827D01*
X012290Y002871D01*
X012269Y002916D01*
X012252Y002963D01*
X012238Y003011D01*
X012228Y003060D01*
X012222Y003110D01*
X012220Y003160D01*
M02*
