G75*
G70*
%OFA0B0*%
%FSLAX24Y24*%
%IPPOS*%
%LPD*%
%AMOC8*
5,1,8,0,0,1.08239X$1,22.5*
%
%ADD10C,0.0060*%
%ADD11C,0.0320*%
%ADD12C,0.0160*%
%ADD13C,0.0040*%
%ADD14C,0.0030*%
%ADD15C,0.0050*%
%ADD16C,0.0100*%
D10*
X004237Y001630D02*
X004130Y001737D01*
X004237Y001630D02*
X004450Y001630D01*
X004557Y001737D01*
X004557Y001844D01*
X004450Y001950D01*
X004237Y001950D01*
X004130Y002057D01*
X004130Y002164D01*
X004237Y002271D01*
X004450Y002271D01*
X004557Y002164D01*
X004775Y001950D02*
X004775Y001737D01*
X004881Y001630D01*
X005095Y001630D01*
X005202Y001737D01*
X005202Y001950D01*
X005095Y002057D01*
X004881Y002057D01*
X004775Y001950D01*
X005419Y002057D02*
X005419Y001737D01*
X005526Y001630D01*
X005846Y001630D01*
X005846Y002057D01*
X006064Y002057D02*
X006064Y001630D01*
X006064Y001844D02*
X006277Y002057D01*
X006384Y002057D01*
X006601Y001950D02*
X006601Y001737D01*
X006708Y001630D01*
X007028Y001630D01*
X007245Y001737D02*
X007352Y001630D01*
X007566Y001630D01*
X007672Y001844D02*
X007245Y001844D01*
X007245Y001950D02*
X007245Y001737D01*
X007245Y001950D02*
X007352Y002057D01*
X007566Y002057D01*
X007672Y001950D01*
X007672Y001844D01*
X007028Y002057D02*
X006708Y002057D01*
X006601Y001950D01*
X006075Y002750D02*
X004625Y002750D01*
X004625Y003450D02*
X006075Y003450D01*
X006075Y003750D02*
X004625Y003750D01*
X004625Y004450D02*
X006075Y004450D01*
X006075Y004750D02*
X004625Y004750D01*
X002850Y004250D02*
X002805Y004252D01*
X002759Y004257D01*
X002715Y004265D01*
X002671Y004277D01*
X002628Y004293D01*
X002586Y004311D01*
X002546Y004333D01*
X002508Y004357D01*
X002472Y004384D01*
X002437Y004414D01*
X002406Y004447D01*
X002376Y004482D01*
X002850Y005450D02*
X002897Y005448D01*
X002945Y005442D01*
X002991Y005433D01*
X003037Y005420D01*
X003081Y005404D01*
X003125Y005383D01*
X003166Y005360D01*
X003205Y005334D01*
X003242Y005304D01*
X003277Y005271D01*
X003309Y005236D01*
X003338Y005199D01*
X002850Y005450D02*
X002804Y005448D01*
X002758Y005443D01*
X002712Y005434D01*
X002667Y005422D01*
X002624Y005406D01*
X002582Y005387D01*
X002541Y005364D01*
X002502Y005339D01*
X002466Y005311D01*
X002431Y005280D01*
X002399Y005246D01*
X002370Y005210D01*
X002850Y004250D02*
X002895Y004252D01*
X002941Y004257D01*
X002985Y004265D01*
X003029Y004277D01*
X003072Y004293D01*
X003114Y004311D01*
X003154Y004333D01*
X003192Y004357D01*
X003228Y004384D01*
X003263Y004414D01*
X003294Y004447D01*
X003324Y004482D01*
X004625Y005450D02*
X006075Y005450D01*
X006075Y005750D02*
X004625Y005750D01*
X004625Y006450D02*
X006075Y006450D01*
X006075Y006750D02*
X004625Y006750D01*
X002850Y006500D02*
X002805Y006502D01*
X002759Y006507D01*
X002715Y006515D01*
X002671Y006527D01*
X002628Y006543D01*
X002586Y006561D01*
X002546Y006583D01*
X002508Y006607D01*
X002472Y006634D01*
X002437Y006664D01*
X002406Y006697D01*
X002376Y006732D01*
X002850Y007700D02*
X002897Y007698D01*
X002945Y007692D01*
X002991Y007683D01*
X003037Y007670D01*
X003081Y007654D01*
X003125Y007633D01*
X003166Y007610D01*
X003205Y007584D01*
X003242Y007554D01*
X003277Y007521D01*
X003309Y007486D01*
X003338Y007449D01*
X002850Y007700D02*
X002804Y007698D01*
X002758Y007693D01*
X002712Y007684D01*
X002667Y007672D01*
X002624Y007656D01*
X002582Y007637D01*
X002541Y007614D01*
X002502Y007589D01*
X002466Y007561D01*
X002431Y007530D01*
X002399Y007496D01*
X002370Y007460D01*
X002850Y006500D02*
X002895Y006502D01*
X002941Y006507D01*
X002985Y006515D01*
X003029Y006527D01*
X003072Y006543D01*
X003114Y006561D01*
X003154Y006583D01*
X003192Y006607D01*
X003228Y006634D01*
X003263Y006664D01*
X003294Y006697D01*
X003324Y006732D01*
X004625Y007450D02*
X006075Y007450D01*
X006075Y007750D02*
X004625Y007750D01*
X004625Y008450D02*
X006075Y008450D01*
X006075Y008750D02*
X004625Y008750D01*
X004625Y009450D02*
X006075Y009450D01*
X006075Y009750D02*
X004625Y009750D01*
X002850Y008750D02*
X002805Y008752D01*
X002759Y008757D01*
X002715Y008765D01*
X002671Y008777D01*
X002628Y008793D01*
X002586Y008811D01*
X002546Y008833D01*
X002508Y008857D01*
X002472Y008884D01*
X002437Y008914D01*
X002406Y008947D01*
X002376Y008982D01*
X002850Y009950D02*
X002897Y009948D01*
X002945Y009942D01*
X002991Y009933D01*
X003037Y009920D01*
X003081Y009904D01*
X003125Y009883D01*
X003166Y009860D01*
X003205Y009834D01*
X003242Y009804D01*
X003277Y009771D01*
X003309Y009736D01*
X003338Y009699D01*
X002850Y009950D02*
X002804Y009948D01*
X002758Y009943D01*
X002712Y009934D01*
X002667Y009922D01*
X002624Y009906D01*
X002582Y009887D01*
X002541Y009864D01*
X002502Y009839D01*
X002466Y009811D01*
X002431Y009780D01*
X002399Y009746D01*
X002370Y009710D01*
X002850Y008750D02*
X002895Y008752D01*
X002941Y008757D01*
X002985Y008765D01*
X003029Y008777D01*
X003072Y008793D01*
X003114Y008811D01*
X003154Y008833D01*
X003192Y008857D01*
X003228Y008884D01*
X003263Y008914D01*
X003294Y008947D01*
X003324Y008982D01*
X004625Y010450D02*
X006075Y010450D01*
X006075Y010750D02*
X004625Y010750D01*
X004625Y011450D02*
X006075Y011450D01*
X006075Y011750D02*
X004625Y011750D01*
X002850Y011000D02*
X002805Y011002D01*
X002759Y011007D01*
X002715Y011015D01*
X002671Y011027D01*
X002628Y011043D01*
X002586Y011061D01*
X002546Y011083D01*
X002508Y011107D01*
X002472Y011134D01*
X002437Y011164D01*
X002406Y011197D01*
X002376Y011232D01*
X002850Y012200D02*
X002897Y012198D01*
X002945Y012192D01*
X002991Y012183D01*
X003037Y012170D01*
X003081Y012154D01*
X003125Y012133D01*
X003166Y012110D01*
X003205Y012084D01*
X003242Y012054D01*
X003277Y012021D01*
X003309Y011986D01*
X003338Y011949D01*
X002850Y012200D02*
X002804Y012198D01*
X002758Y012193D01*
X002712Y012184D01*
X002667Y012172D01*
X002624Y012156D01*
X002582Y012137D01*
X002541Y012114D01*
X002502Y012089D01*
X002466Y012061D01*
X002431Y012030D01*
X002399Y011996D01*
X002370Y011960D01*
X002850Y011000D02*
X002895Y011002D01*
X002941Y011007D01*
X002985Y011015D01*
X003029Y011027D01*
X003072Y011043D01*
X003114Y011061D01*
X003154Y011083D01*
X003192Y011107D01*
X003228Y011134D01*
X003263Y011164D01*
X003294Y011197D01*
X003324Y011232D01*
X004625Y012450D02*
X006075Y012450D01*
X006075Y012750D02*
X004625Y012750D01*
X004625Y013450D02*
X006075Y013450D01*
X006075Y013750D02*
X004625Y013750D01*
X004625Y014450D02*
X006075Y014450D01*
X006450Y015400D02*
X008750Y015400D01*
X008750Y016300D02*
X006450Y016300D01*
X011600Y013450D02*
X011647Y013448D01*
X011695Y013442D01*
X011741Y013433D01*
X011787Y013420D01*
X011831Y013404D01*
X011875Y013383D01*
X011916Y013360D01*
X011955Y013334D01*
X011992Y013304D01*
X012027Y013271D01*
X012059Y013236D01*
X012088Y013199D01*
X011600Y012250D02*
X011555Y012252D01*
X011509Y012257D01*
X011465Y012265D01*
X011421Y012277D01*
X011378Y012293D01*
X011336Y012311D01*
X011296Y012333D01*
X011258Y012357D01*
X011222Y012384D01*
X011187Y012414D01*
X011156Y012447D01*
X011126Y012482D01*
X010875Y012200D02*
X012325Y012200D01*
X013875Y012200D02*
X015325Y012200D01*
X016875Y012200D02*
X018325Y012200D01*
X019875Y012200D02*
X021325Y012200D01*
X022875Y012200D02*
X024325Y012200D01*
X025875Y012200D02*
X027325Y012200D01*
X028875Y012200D02*
X030325Y012200D01*
X031875Y012200D02*
X033325Y012200D01*
X034875Y012200D02*
X036325Y012200D01*
X037875Y012200D02*
X039325Y012200D01*
X040875Y012200D02*
X042325Y012200D01*
X043875Y012200D02*
X045325Y012200D01*
X046875Y012200D02*
X048325Y012200D01*
X049875Y012200D02*
X051325Y012200D01*
X052875Y012200D02*
X054325Y012200D01*
X055875Y012450D02*
X057325Y012450D01*
X056600Y012250D02*
X056555Y012252D01*
X056509Y012257D01*
X056465Y012265D01*
X056421Y012277D01*
X056378Y012293D01*
X056336Y012311D01*
X056296Y012333D01*
X056258Y012357D01*
X056222Y012384D01*
X056187Y012414D01*
X056156Y012447D01*
X056126Y012482D01*
X056600Y013450D02*
X056647Y013448D01*
X056695Y013442D01*
X056741Y013433D01*
X056787Y013420D01*
X056831Y013404D01*
X056875Y013383D01*
X056916Y013360D01*
X056955Y013334D01*
X056992Y013304D01*
X057027Y013271D01*
X057059Y013236D01*
X057088Y013199D01*
X056600Y013450D02*
X056554Y013448D01*
X056508Y013443D01*
X056462Y013434D01*
X056417Y013422D01*
X056374Y013406D01*
X056332Y013387D01*
X056291Y013364D01*
X056252Y013339D01*
X056216Y013311D01*
X056181Y013280D01*
X056149Y013246D01*
X056120Y013210D01*
X056600Y012250D02*
X056645Y012252D01*
X056691Y012257D01*
X056735Y012265D01*
X056779Y012277D01*
X056822Y012293D01*
X056864Y012311D01*
X056904Y012333D01*
X056942Y012357D01*
X056978Y012384D01*
X057013Y012414D01*
X057044Y012447D01*
X057074Y012482D01*
X057325Y011750D02*
X055875Y011750D01*
X055875Y011450D02*
X057325Y011450D01*
X057325Y010750D02*
X055875Y010750D01*
X055875Y010700D02*
X057325Y010700D01*
X057325Y010000D02*
X055875Y010000D01*
X054325Y010000D02*
X052875Y010000D01*
X051325Y010000D02*
X049875Y010000D01*
X048325Y010000D02*
X046875Y010000D01*
X045325Y010000D02*
X043875Y010000D01*
X042325Y010000D02*
X040875Y010000D01*
X039325Y010000D02*
X037875Y010000D01*
X036325Y010000D02*
X034875Y010000D01*
X033325Y010000D02*
X031875Y010000D01*
X030325Y010000D02*
X028875Y010000D01*
X027325Y010000D02*
X025875Y010000D01*
X024325Y010000D02*
X022875Y010000D01*
X021325Y010000D02*
X019875Y010000D01*
X018325Y010000D02*
X016875Y010000D01*
X015325Y010000D02*
X013875Y010000D01*
X012325Y010000D02*
X010875Y010000D01*
X010875Y010700D02*
X012325Y010700D01*
X012325Y010750D02*
X010875Y010750D01*
X010875Y011450D02*
X012325Y011450D01*
X012325Y011500D02*
X010875Y011500D01*
X013875Y011500D02*
X015325Y011500D01*
X015325Y011450D02*
X013875Y011450D01*
X013875Y010750D02*
X015325Y010750D01*
X015325Y010700D02*
X013875Y010700D01*
X016875Y010700D02*
X018325Y010700D01*
X018325Y010750D02*
X016875Y010750D01*
X016875Y011450D02*
X018325Y011450D01*
X018325Y011500D02*
X016875Y011500D01*
X019875Y011500D02*
X021325Y011500D01*
X021325Y011450D02*
X019875Y011450D01*
X019875Y010750D02*
X021325Y010750D01*
X021325Y010700D02*
X019875Y010700D01*
X022875Y010700D02*
X024325Y010700D01*
X024325Y010750D02*
X022875Y010750D01*
X022875Y011450D02*
X024325Y011450D01*
X024325Y011500D02*
X022875Y011500D01*
X025875Y011500D02*
X027325Y011500D01*
X027325Y011450D02*
X025875Y011450D01*
X025875Y010750D02*
X027325Y010750D01*
X027325Y010700D02*
X025875Y010700D01*
X028875Y010700D02*
X030325Y010700D01*
X030325Y010750D02*
X028875Y010750D01*
X028875Y011450D02*
X030325Y011450D01*
X030325Y011500D02*
X028875Y011500D01*
X031875Y011500D02*
X033325Y011500D01*
X033325Y011450D02*
X031875Y011450D01*
X031875Y010750D02*
X033325Y010750D01*
X033325Y010700D02*
X031875Y010700D01*
X034875Y010700D02*
X036325Y010700D01*
X036325Y010750D02*
X034875Y010750D01*
X034875Y011450D02*
X036325Y011450D01*
X036325Y011500D02*
X034875Y011500D01*
X037875Y011500D02*
X039325Y011500D01*
X039325Y011450D02*
X037875Y011450D01*
X037875Y010750D02*
X039325Y010750D01*
X039325Y010700D02*
X037875Y010700D01*
X040875Y010700D02*
X042325Y010700D01*
X042325Y010750D02*
X040875Y010750D01*
X040875Y011450D02*
X042325Y011450D01*
X042325Y011500D02*
X040875Y011500D01*
X043875Y011500D02*
X045325Y011500D01*
X045325Y011450D02*
X043875Y011450D01*
X043875Y010750D02*
X045325Y010750D01*
X045325Y010700D02*
X043875Y010700D01*
X046875Y010700D02*
X048325Y010700D01*
X048325Y010750D02*
X046875Y010750D01*
X046875Y011450D02*
X048325Y011450D01*
X048325Y011500D02*
X046875Y011500D01*
X049875Y011500D02*
X051325Y011500D01*
X051325Y011450D02*
X049875Y011450D01*
X049875Y010750D02*
X051325Y010750D01*
X051325Y010700D02*
X049875Y010700D01*
X052875Y010700D02*
X054325Y010700D01*
X054325Y010750D02*
X052875Y010750D01*
X052875Y011450D02*
X054325Y011450D01*
X054325Y011500D02*
X052875Y011500D01*
X053600Y013450D02*
X053647Y013448D01*
X053695Y013442D01*
X053741Y013433D01*
X053787Y013420D01*
X053831Y013404D01*
X053875Y013383D01*
X053916Y013360D01*
X053955Y013334D01*
X053992Y013304D01*
X054027Y013271D01*
X054059Y013236D01*
X054088Y013199D01*
X053600Y012250D02*
X053555Y012252D01*
X053509Y012257D01*
X053465Y012265D01*
X053421Y012277D01*
X053378Y012293D01*
X053336Y012311D01*
X053296Y012333D01*
X053258Y012357D01*
X053222Y012384D01*
X053187Y012414D01*
X053156Y012447D01*
X053126Y012482D01*
X053600Y012250D02*
X053645Y012252D01*
X053691Y012257D01*
X053735Y012265D01*
X053779Y012277D01*
X053822Y012293D01*
X053864Y012311D01*
X053904Y012333D01*
X053942Y012357D01*
X053978Y012384D01*
X054013Y012414D01*
X054044Y012447D01*
X054074Y012482D01*
X053600Y013450D02*
X053554Y013448D01*
X053508Y013443D01*
X053462Y013434D01*
X053417Y013422D01*
X053374Y013406D01*
X053332Y013387D01*
X053291Y013364D01*
X053252Y013339D01*
X053216Y013311D01*
X053181Y013280D01*
X053149Y013246D01*
X053120Y013210D01*
X050600Y012250D02*
X050555Y012252D01*
X050509Y012257D01*
X050465Y012265D01*
X050421Y012277D01*
X050378Y012293D01*
X050336Y012311D01*
X050296Y012333D01*
X050258Y012357D01*
X050222Y012384D01*
X050187Y012414D01*
X050156Y012447D01*
X050126Y012482D01*
X050600Y013450D02*
X050647Y013448D01*
X050695Y013442D01*
X050741Y013433D01*
X050787Y013420D01*
X050831Y013404D01*
X050875Y013383D01*
X050916Y013360D01*
X050955Y013334D01*
X050992Y013304D01*
X051027Y013271D01*
X051059Y013236D01*
X051088Y013199D01*
X050600Y013450D02*
X050554Y013448D01*
X050508Y013443D01*
X050462Y013434D01*
X050417Y013422D01*
X050374Y013406D01*
X050332Y013387D01*
X050291Y013364D01*
X050252Y013339D01*
X050216Y013311D01*
X050181Y013280D01*
X050149Y013246D01*
X050120Y013210D01*
X050600Y012250D02*
X050645Y012252D01*
X050691Y012257D01*
X050735Y012265D01*
X050779Y012277D01*
X050822Y012293D01*
X050864Y012311D01*
X050904Y012333D01*
X050942Y012357D01*
X050978Y012384D01*
X051013Y012414D01*
X051044Y012447D01*
X051074Y012482D01*
X047600Y012250D02*
X047555Y012252D01*
X047509Y012257D01*
X047465Y012265D01*
X047421Y012277D01*
X047378Y012293D01*
X047336Y012311D01*
X047296Y012333D01*
X047258Y012357D01*
X047222Y012384D01*
X047187Y012414D01*
X047156Y012447D01*
X047126Y012482D01*
X047600Y013450D02*
X047647Y013448D01*
X047695Y013442D01*
X047741Y013433D01*
X047787Y013420D01*
X047831Y013404D01*
X047875Y013383D01*
X047916Y013360D01*
X047955Y013334D01*
X047992Y013304D01*
X048027Y013271D01*
X048059Y013236D01*
X048088Y013199D01*
X047600Y013450D02*
X047554Y013448D01*
X047508Y013443D01*
X047462Y013434D01*
X047417Y013422D01*
X047374Y013406D01*
X047332Y013387D01*
X047291Y013364D01*
X047252Y013339D01*
X047216Y013311D01*
X047181Y013280D01*
X047149Y013246D01*
X047120Y013210D01*
X047600Y012250D02*
X047645Y012252D01*
X047691Y012257D01*
X047735Y012265D01*
X047779Y012277D01*
X047822Y012293D01*
X047864Y012311D01*
X047904Y012333D01*
X047942Y012357D01*
X047978Y012384D01*
X048013Y012414D01*
X048044Y012447D01*
X048074Y012482D01*
X044600Y012250D02*
X044555Y012252D01*
X044509Y012257D01*
X044465Y012265D01*
X044421Y012277D01*
X044378Y012293D01*
X044336Y012311D01*
X044296Y012333D01*
X044258Y012357D01*
X044222Y012384D01*
X044187Y012414D01*
X044156Y012447D01*
X044126Y012482D01*
X044600Y013450D02*
X044647Y013448D01*
X044695Y013442D01*
X044741Y013433D01*
X044787Y013420D01*
X044831Y013404D01*
X044875Y013383D01*
X044916Y013360D01*
X044955Y013334D01*
X044992Y013304D01*
X045027Y013271D01*
X045059Y013236D01*
X045088Y013199D01*
X044600Y013450D02*
X044554Y013448D01*
X044508Y013443D01*
X044462Y013434D01*
X044417Y013422D01*
X044374Y013406D01*
X044332Y013387D01*
X044291Y013364D01*
X044252Y013339D01*
X044216Y013311D01*
X044181Y013280D01*
X044149Y013246D01*
X044120Y013210D01*
X044600Y012250D02*
X044645Y012252D01*
X044691Y012257D01*
X044735Y012265D01*
X044779Y012277D01*
X044822Y012293D01*
X044864Y012311D01*
X044904Y012333D01*
X044942Y012357D01*
X044978Y012384D01*
X045013Y012414D01*
X045044Y012447D01*
X045074Y012482D01*
X041600Y012250D02*
X041555Y012252D01*
X041509Y012257D01*
X041465Y012265D01*
X041421Y012277D01*
X041378Y012293D01*
X041336Y012311D01*
X041296Y012333D01*
X041258Y012357D01*
X041222Y012384D01*
X041187Y012414D01*
X041156Y012447D01*
X041126Y012482D01*
X041600Y013450D02*
X041647Y013448D01*
X041695Y013442D01*
X041741Y013433D01*
X041787Y013420D01*
X041831Y013404D01*
X041875Y013383D01*
X041916Y013360D01*
X041955Y013334D01*
X041992Y013304D01*
X042027Y013271D01*
X042059Y013236D01*
X042088Y013199D01*
X041600Y013450D02*
X041554Y013448D01*
X041508Y013443D01*
X041462Y013434D01*
X041417Y013422D01*
X041374Y013406D01*
X041332Y013387D01*
X041291Y013364D01*
X041252Y013339D01*
X041216Y013311D01*
X041181Y013280D01*
X041149Y013246D01*
X041120Y013210D01*
X041600Y012250D02*
X041645Y012252D01*
X041691Y012257D01*
X041735Y012265D01*
X041779Y012277D01*
X041822Y012293D01*
X041864Y012311D01*
X041904Y012333D01*
X041942Y012357D01*
X041978Y012384D01*
X042013Y012414D01*
X042044Y012447D01*
X042074Y012482D01*
X038600Y012250D02*
X038555Y012252D01*
X038509Y012257D01*
X038465Y012265D01*
X038421Y012277D01*
X038378Y012293D01*
X038336Y012311D01*
X038296Y012333D01*
X038258Y012357D01*
X038222Y012384D01*
X038187Y012414D01*
X038156Y012447D01*
X038126Y012482D01*
X038600Y013450D02*
X038647Y013448D01*
X038695Y013442D01*
X038741Y013433D01*
X038787Y013420D01*
X038831Y013404D01*
X038875Y013383D01*
X038916Y013360D01*
X038955Y013334D01*
X038992Y013304D01*
X039027Y013271D01*
X039059Y013236D01*
X039088Y013199D01*
X038600Y013450D02*
X038554Y013448D01*
X038508Y013443D01*
X038462Y013434D01*
X038417Y013422D01*
X038374Y013406D01*
X038332Y013387D01*
X038291Y013364D01*
X038252Y013339D01*
X038216Y013311D01*
X038181Y013280D01*
X038149Y013246D01*
X038120Y013210D01*
X038600Y012250D02*
X038645Y012252D01*
X038691Y012257D01*
X038735Y012265D01*
X038779Y012277D01*
X038822Y012293D01*
X038864Y012311D01*
X038904Y012333D01*
X038942Y012357D01*
X038978Y012384D01*
X039013Y012414D01*
X039044Y012447D01*
X039074Y012482D01*
X035600Y012250D02*
X035555Y012252D01*
X035509Y012257D01*
X035465Y012265D01*
X035421Y012277D01*
X035378Y012293D01*
X035336Y012311D01*
X035296Y012333D01*
X035258Y012357D01*
X035222Y012384D01*
X035187Y012414D01*
X035156Y012447D01*
X035126Y012482D01*
X035600Y013450D02*
X035647Y013448D01*
X035695Y013442D01*
X035741Y013433D01*
X035787Y013420D01*
X035831Y013404D01*
X035875Y013383D01*
X035916Y013360D01*
X035955Y013334D01*
X035992Y013304D01*
X036027Y013271D01*
X036059Y013236D01*
X036088Y013199D01*
X035600Y013450D02*
X035554Y013448D01*
X035508Y013443D01*
X035462Y013434D01*
X035417Y013422D01*
X035374Y013406D01*
X035332Y013387D01*
X035291Y013364D01*
X035252Y013339D01*
X035216Y013311D01*
X035181Y013280D01*
X035149Y013246D01*
X035120Y013210D01*
X035600Y012250D02*
X035645Y012252D01*
X035691Y012257D01*
X035735Y012265D01*
X035779Y012277D01*
X035822Y012293D01*
X035864Y012311D01*
X035904Y012333D01*
X035942Y012357D01*
X035978Y012384D01*
X036013Y012414D01*
X036044Y012447D01*
X036074Y012482D01*
X032600Y012250D02*
X032555Y012252D01*
X032509Y012257D01*
X032465Y012265D01*
X032421Y012277D01*
X032378Y012293D01*
X032336Y012311D01*
X032296Y012333D01*
X032258Y012357D01*
X032222Y012384D01*
X032187Y012414D01*
X032156Y012447D01*
X032126Y012482D01*
X032600Y013450D02*
X032647Y013448D01*
X032695Y013442D01*
X032741Y013433D01*
X032787Y013420D01*
X032831Y013404D01*
X032875Y013383D01*
X032916Y013360D01*
X032955Y013334D01*
X032992Y013304D01*
X033027Y013271D01*
X033059Y013236D01*
X033088Y013199D01*
X032600Y013450D02*
X032554Y013448D01*
X032508Y013443D01*
X032462Y013434D01*
X032417Y013422D01*
X032374Y013406D01*
X032332Y013387D01*
X032291Y013364D01*
X032252Y013339D01*
X032216Y013311D01*
X032181Y013280D01*
X032149Y013246D01*
X032120Y013210D01*
X032600Y012250D02*
X032645Y012252D01*
X032691Y012257D01*
X032735Y012265D01*
X032779Y012277D01*
X032822Y012293D01*
X032864Y012311D01*
X032904Y012333D01*
X032942Y012357D01*
X032978Y012384D01*
X033013Y012414D01*
X033044Y012447D01*
X033074Y012482D01*
X029600Y012250D02*
X029555Y012252D01*
X029509Y012257D01*
X029465Y012265D01*
X029421Y012277D01*
X029378Y012293D01*
X029336Y012311D01*
X029296Y012333D01*
X029258Y012357D01*
X029222Y012384D01*
X029187Y012414D01*
X029156Y012447D01*
X029126Y012482D01*
X029600Y013450D02*
X029647Y013448D01*
X029695Y013442D01*
X029741Y013433D01*
X029787Y013420D01*
X029831Y013404D01*
X029875Y013383D01*
X029916Y013360D01*
X029955Y013334D01*
X029992Y013304D01*
X030027Y013271D01*
X030059Y013236D01*
X030088Y013199D01*
X029600Y013450D02*
X029554Y013448D01*
X029508Y013443D01*
X029462Y013434D01*
X029417Y013422D01*
X029374Y013406D01*
X029332Y013387D01*
X029291Y013364D01*
X029252Y013339D01*
X029216Y013311D01*
X029181Y013280D01*
X029149Y013246D01*
X029120Y013210D01*
X029600Y012250D02*
X029645Y012252D01*
X029691Y012257D01*
X029735Y012265D01*
X029779Y012277D01*
X029822Y012293D01*
X029864Y012311D01*
X029904Y012333D01*
X029942Y012357D01*
X029978Y012384D01*
X030013Y012414D01*
X030044Y012447D01*
X030074Y012482D01*
X026600Y012250D02*
X026555Y012252D01*
X026509Y012257D01*
X026465Y012265D01*
X026421Y012277D01*
X026378Y012293D01*
X026336Y012311D01*
X026296Y012333D01*
X026258Y012357D01*
X026222Y012384D01*
X026187Y012414D01*
X026156Y012447D01*
X026126Y012482D01*
X026600Y013450D02*
X026647Y013448D01*
X026695Y013442D01*
X026741Y013433D01*
X026787Y013420D01*
X026831Y013404D01*
X026875Y013383D01*
X026916Y013360D01*
X026955Y013334D01*
X026992Y013304D01*
X027027Y013271D01*
X027059Y013236D01*
X027088Y013199D01*
X026600Y013450D02*
X026554Y013448D01*
X026508Y013443D01*
X026462Y013434D01*
X026417Y013422D01*
X026374Y013406D01*
X026332Y013387D01*
X026291Y013364D01*
X026252Y013339D01*
X026216Y013311D01*
X026181Y013280D01*
X026149Y013246D01*
X026120Y013210D01*
X026600Y012250D02*
X026645Y012252D01*
X026691Y012257D01*
X026735Y012265D01*
X026779Y012277D01*
X026822Y012293D01*
X026864Y012311D01*
X026904Y012333D01*
X026942Y012357D01*
X026978Y012384D01*
X027013Y012414D01*
X027044Y012447D01*
X027074Y012482D01*
X023600Y012250D02*
X023555Y012252D01*
X023509Y012257D01*
X023465Y012265D01*
X023421Y012277D01*
X023378Y012293D01*
X023336Y012311D01*
X023296Y012333D01*
X023258Y012357D01*
X023222Y012384D01*
X023187Y012414D01*
X023156Y012447D01*
X023126Y012482D01*
X023600Y013450D02*
X023647Y013448D01*
X023695Y013442D01*
X023741Y013433D01*
X023787Y013420D01*
X023831Y013404D01*
X023875Y013383D01*
X023916Y013360D01*
X023955Y013334D01*
X023992Y013304D01*
X024027Y013271D01*
X024059Y013236D01*
X024088Y013199D01*
X023600Y013450D02*
X023554Y013448D01*
X023508Y013443D01*
X023462Y013434D01*
X023417Y013422D01*
X023374Y013406D01*
X023332Y013387D01*
X023291Y013364D01*
X023252Y013339D01*
X023216Y013311D01*
X023181Y013280D01*
X023149Y013246D01*
X023120Y013210D01*
X023600Y012250D02*
X023645Y012252D01*
X023691Y012257D01*
X023735Y012265D01*
X023779Y012277D01*
X023822Y012293D01*
X023864Y012311D01*
X023904Y012333D01*
X023942Y012357D01*
X023978Y012384D01*
X024013Y012414D01*
X024044Y012447D01*
X024074Y012482D01*
X020600Y012250D02*
X020555Y012252D01*
X020509Y012257D01*
X020465Y012265D01*
X020421Y012277D01*
X020378Y012293D01*
X020336Y012311D01*
X020296Y012333D01*
X020258Y012357D01*
X020222Y012384D01*
X020187Y012414D01*
X020156Y012447D01*
X020126Y012482D01*
X020600Y013450D02*
X020647Y013448D01*
X020695Y013442D01*
X020741Y013433D01*
X020787Y013420D01*
X020831Y013404D01*
X020875Y013383D01*
X020916Y013360D01*
X020955Y013334D01*
X020992Y013304D01*
X021027Y013271D01*
X021059Y013236D01*
X021088Y013199D01*
X020600Y013450D02*
X020554Y013448D01*
X020508Y013443D01*
X020462Y013434D01*
X020417Y013422D01*
X020374Y013406D01*
X020332Y013387D01*
X020291Y013364D01*
X020252Y013339D01*
X020216Y013311D01*
X020181Y013280D01*
X020149Y013246D01*
X020120Y013210D01*
X020600Y012250D02*
X020645Y012252D01*
X020691Y012257D01*
X020735Y012265D01*
X020779Y012277D01*
X020822Y012293D01*
X020864Y012311D01*
X020904Y012333D01*
X020942Y012357D01*
X020978Y012384D01*
X021013Y012414D01*
X021044Y012447D01*
X021074Y012482D01*
X017600Y012250D02*
X017555Y012252D01*
X017509Y012257D01*
X017465Y012265D01*
X017421Y012277D01*
X017378Y012293D01*
X017336Y012311D01*
X017296Y012333D01*
X017258Y012357D01*
X017222Y012384D01*
X017187Y012414D01*
X017156Y012447D01*
X017126Y012482D01*
X017600Y013450D02*
X017647Y013448D01*
X017695Y013442D01*
X017741Y013433D01*
X017787Y013420D01*
X017831Y013404D01*
X017875Y013383D01*
X017916Y013360D01*
X017955Y013334D01*
X017992Y013304D01*
X018027Y013271D01*
X018059Y013236D01*
X018088Y013199D01*
X017600Y013450D02*
X017554Y013448D01*
X017508Y013443D01*
X017462Y013434D01*
X017417Y013422D01*
X017374Y013406D01*
X017332Y013387D01*
X017291Y013364D01*
X017252Y013339D01*
X017216Y013311D01*
X017181Y013280D01*
X017149Y013246D01*
X017120Y013210D01*
X017600Y012250D02*
X017645Y012252D01*
X017691Y012257D01*
X017735Y012265D01*
X017779Y012277D01*
X017822Y012293D01*
X017864Y012311D01*
X017904Y012333D01*
X017942Y012357D01*
X017978Y012384D01*
X018013Y012414D01*
X018044Y012447D01*
X018074Y012482D01*
X014600Y012250D02*
X014555Y012252D01*
X014509Y012257D01*
X014465Y012265D01*
X014421Y012277D01*
X014378Y012293D01*
X014336Y012311D01*
X014296Y012333D01*
X014258Y012357D01*
X014222Y012384D01*
X014187Y012414D01*
X014156Y012447D01*
X014126Y012482D01*
X014600Y013450D02*
X014647Y013448D01*
X014695Y013442D01*
X014741Y013433D01*
X014787Y013420D01*
X014831Y013404D01*
X014875Y013383D01*
X014916Y013360D01*
X014955Y013334D01*
X014992Y013304D01*
X015027Y013271D01*
X015059Y013236D01*
X015088Y013199D01*
X014600Y013450D02*
X014554Y013448D01*
X014508Y013443D01*
X014462Y013434D01*
X014417Y013422D01*
X014374Y013406D01*
X014332Y013387D01*
X014291Y013364D01*
X014252Y013339D01*
X014216Y013311D01*
X014181Y013280D01*
X014149Y013246D01*
X014120Y013210D01*
X014600Y012250D02*
X014645Y012252D01*
X014691Y012257D01*
X014735Y012265D01*
X014779Y012277D01*
X014822Y012293D01*
X014864Y012311D01*
X014904Y012333D01*
X014942Y012357D01*
X014978Y012384D01*
X015013Y012414D01*
X015044Y012447D01*
X015074Y012482D01*
X011600Y013450D02*
X011554Y013448D01*
X011508Y013443D01*
X011462Y013434D01*
X011417Y013422D01*
X011374Y013406D01*
X011332Y013387D01*
X011291Y013364D01*
X011252Y013339D01*
X011216Y013311D01*
X011181Y013280D01*
X011149Y013246D01*
X011120Y013210D01*
X011600Y012250D02*
X011645Y012252D01*
X011691Y012257D01*
X011735Y012265D01*
X011779Y012277D01*
X011822Y012293D01*
X011864Y012311D01*
X011904Y012333D01*
X011942Y012357D01*
X011978Y012384D01*
X012013Y012414D01*
X012044Y012447D01*
X012074Y012482D01*
X012200Y004271D02*
X011880Y004271D01*
X011880Y003630D01*
X012200Y003630D01*
X012307Y003737D01*
X012307Y004164D01*
X012200Y004271D01*
X012525Y003950D02*
X012631Y004057D01*
X012845Y004057D01*
X012952Y003950D01*
X012952Y003844D01*
X012525Y003844D01*
X012525Y003950D02*
X012525Y003737D01*
X012631Y003630D01*
X012845Y003630D01*
X013169Y003737D02*
X013169Y003950D01*
X013276Y004057D01*
X013596Y004057D01*
X013814Y003950D02*
X013920Y004057D01*
X014134Y004057D01*
X014241Y003950D01*
X014241Y003737D01*
X014134Y003630D01*
X013920Y003630D01*
X013814Y003737D01*
X013814Y003950D01*
X013596Y003630D02*
X013276Y003630D01*
X013169Y003737D01*
X014458Y003737D02*
X014458Y003950D01*
X014565Y004057D01*
X014885Y004057D01*
X014885Y004271D02*
X014885Y003630D01*
X014565Y003630D01*
X014458Y003737D01*
X015103Y003737D02*
X015103Y003950D01*
X015210Y004057D01*
X015423Y004057D01*
X015530Y003950D01*
X015530Y003844D01*
X015103Y003844D01*
X015103Y003737D02*
X015210Y003630D01*
X015423Y003630D01*
X015747Y003630D02*
X015747Y004057D01*
X015747Y003844D02*
X015961Y004057D01*
X016068Y004057D01*
X017643Y003833D02*
X017643Y003620D01*
X017750Y003513D01*
X017963Y003513D01*
X018070Y003620D01*
X018070Y003833D01*
X017856Y003940D02*
X017856Y003513D01*
X018070Y003297D02*
X018070Y003083D01*
X018070Y003190D02*
X017429Y003190D01*
X017429Y003083D01*
X017750Y002866D02*
X017643Y002759D01*
X017643Y002439D01*
X017429Y002439D02*
X018070Y002439D01*
X018070Y002759D01*
X017963Y002866D01*
X017750Y002866D01*
X019625Y002700D02*
X021075Y002700D01*
X021075Y002000D02*
X019625Y002000D01*
X018070Y001901D02*
X017963Y001794D01*
X017856Y001901D01*
X017856Y002221D01*
X017750Y002221D02*
X018070Y002221D01*
X018070Y001901D01*
X017643Y001901D02*
X017643Y002114D01*
X017750Y002221D01*
X017750Y001577D02*
X018070Y001577D01*
X017750Y001577D02*
X017643Y001470D01*
X017643Y001150D01*
X018070Y001150D01*
X018070Y000932D02*
X018070Y000505D01*
X017429Y000505D01*
X017429Y000932D01*
X017750Y000719D02*
X017750Y000505D01*
X020850Y001950D02*
X020897Y001948D01*
X020945Y001942D01*
X020991Y001933D01*
X021037Y001920D01*
X021081Y001904D01*
X021125Y001883D01*
X021166Y001860D01*
X021205Y001834D01*
X021242Y001804D01*
X021277Y001771D01*
X021309Y001736D01*
X021338Y001699D01*
X020850Y000750D02*
X020805Y000752D01*
X020759Y000757D01*
X020715Y000765D01*
X020671Y000777D01*
X020628Y000793D01*
X020586Y000811D01*
X020546Y000833D01*
X020508Y000857D01*
X020472Y000884D01*
X020437Y000914D01*
X020406Y000947D01*
X020376Y000982D01*
X020850Y000750D02*
X020895Y000752D01*
X020941Y000757D01*
X020985Y000765D01*
X021029Y000777D01*
X021072Y000793D01*
X021114Y000811D01*
X021154Y000833D01*
X021192Y000857D01*
X021228Y000884D01*
X021263Y000914D01*
X021294Y000947D01*
X021324Y000982D01*
X020850Y001950D02*
X020804Y001948D01*
X020758Y001943D01*
X020712Y001934D01*
X020667Y001922D01*
X020624Y001906D01*
X020582Y001887D01*
X020541Y001864D01*
X020502Y001839D01*
X020466Y001811D01*
X020431Y001780D01*
X020399Y001746D01*
X020370Y001710D01*
X017856Y003940D02*
X017750Y003940D01*
X017643Y003833D01*
X011250Y001550D02*
X008950Y001550D01*
X008950Y000650D02*
X011250Y000650D01*
X028375Y000750D02*
X029825Y000750D01*
X029825Y001450D02*
X028375Y001450D01*
X028375Y001500D02*
X029825Y001500D01*
X031880Y001700D02*
X032307Y001700D01*
X032200Y001380D02*
X032200Y002021D01*
X031880Y001700D01*
X033169Y001807D02*
X033383Y001807D01*
X033276Y001914D02*
X033276Y001487D01*
X033383Y001380D01*
X033599Y001487D02*
X033706Y001380D01*
X033919Y001380D01*
X034026Y001487D01*
X034026Y001700D01*
X033919Y001807D01*
X033706Y001807D01*
X033599Y001700D01*
X033599Y001487D01*
X034888Y001380D02*
X035315Y001380D01*
X035101Y001380D02*
X035101Y002021D01*
X034888Y001807D01*
X035532Y001700D02*
X035853Y001700D01*
X035959Y001594D01*
X035959Y001487D01*
X035853Y001380D01*
X035639Y001380D01*
X035532Y001487D01*
X035532Y001700D01*
X035746Y001914D01*
X035959Y002021D01*
X036822Y002021D02*
X037142Y002021D01*
X037249Y001914D01*
X037249Y001487D01*
X037142Y001380D01*
X036822Y001380D01*
X036822Y002021D01*
X037466Y001700D02*
X037573Y001807D01*
X037786Y001807D01*
X037893Y001700D01*
X037893Y001594D01*
X037466Y001594D01*
X037466Y001700D02*
X037466Y001487D01*
X037573Y001380D01*
X037786Y001380D01*
X038111Y001487D02*
X038217Y001380D01*
X038538Y001380D01*
X038755Y001487D02*
X038862Y001380D01*
X039075Y001380D01*
X039182Y001487D01*
X039182Y001700D01*
X039075Y001807D01*
X038862Y001807D01*
X038755Y001700D01*
X038755Y001487D01*
X038217Y001807D02*
X038111Y001700D01*
X038111Y001487D01*
X038217Y001807D02*
X038538Y001807D01*
X039400Y001700D02*
X039507Y001807D01*
X039827Y001807D01*
X039827Y002021D02*
X039827Y001380D01*
X039507Y001380D01*
X039400Y001487D01*
X039400Y001700D01*
X040044Y001700D02*
X040044Y001487D01*
X040151Y001380D01*
X040365Y001380D01*
X040471Y001594D02*
X040044Y001594D01*
X040044Y001700D02*
X040151Y001807D01*
X040365Y001807D01*
X040471Y001700D01*
X040471Y001594D01*
X040689Y001594D02*
X040902Y001807D01*
X041009Y001807D01*
X040689Y001807D02*
X040689Y001380D01*
X041871Y001594D02*
X041871Y001807D01*
X042084Y002021D01*
X042300Y001807D02*
X042514Y002021D01*
X042514Y001380D01*
X042727Y001380D02*
X042300Y001380D01*
X042084Y001380D02*
X041871Y001594D01*
X042945Y001380D02*
X043158Y001594D01*
X043158Y001807D01*
X042945Y002021D01*
X044950Y002300D02*
X047250Y002300D01*
X047250Y001400D02*
X044950Y001400D01*
X049005Y000700D02*
X049432Y000700D01*
X049650Y000700D02*
X049863Y000807D01*
X049970Y000807D01*
X050077Y000700D01*
X050077Y000487D01*
X049970Y000380D01*
X049756Y000380D01*
X049650Y000487D01*
X049219Y000487D02*
X049219Y000914D01*
X049650Y001021D02*
X049650Y000700D01*
X049650Y001021D02*
X050077Y001021D01*
X050294Y001021D02*
X050294Y000594D01*
X050508Y000380D01*
X050721Y000594D01*
X050721Y001021D01*
X051755Y000914D02*
X051755Y000487D01*
X051862Y000380D01*
X052075Y000380D01*
X052182Y000487D01*
X052182Y000700D01*
X051969Y000700D01*
X052182Y000914D02*
X052075Y001021D01*
X051862Y001021D01*
X051755Y000914D01*
X052400Y000807D02*
X052720Y000807D01*
X052827Y000700D01*
X052827Y000380D01*
X053044Y000487D02*
X053044Y000700D01*
X053151Y000807D01*
X053471Y000807D01*
X053471Y001021D02*
X053471Y000380D01*
X053151Y000380D01*
X053044Y000487D01*
X052400Y000380D02*
X052400Y000807D01*
X029825Y002200D02*
X028375Y002200D01*
X028375Y002250D02*
X029825Y002250D01*
X029825Y002950D02*
X028375Y002950D01*
X059400Y007450D02*
X059400Y009750D01*
X060300Y009750D02*
X060300Y007450D01*
D11*
X058100Y004600D02*
X055100Y004600D01*
X052100Y004600D01*
X049100Y004600D01*
X046100Y004600D01*
X043100Y004600D01*
X040100Y004600D01*
X037100Y004600D01*
X034100Y004600D01*
X031100Y004600D01*
X028100Y004600D01*
X025100Y004600D01*
X022100Y004600D01*
X019100Y004600D01*
X016100Y004600D01*
X013100Y004600D01*
X010100Y004600D01*
X010100Y016600D01*
X013100Y016600D01*
X016100Y016600D01*
X019100Y016600D01*
X022100Y016600D01*
X025100Y016600D01*
X028100Y016600D01*
X031100Y016600D01*
X034100Y016600D01*
X037100Y016600D01*
X040100Y016600D01*
X043100Y016600D01*
X046100Y016600D01*
X049100Y016600D01*
X052100Y016600D01*
X055100Y016600D01*
X058100Y016600D01*
X058100Y004600D01*
X030600Y003100D02*
X030600Y000600D01*
X018600Y000600D01*
X018600Y003100D01*
X030600Y003100D01*
X008850Y002600D02*
X000600Y002600D01*
X000600Y014600D01*
X008850Y014600D01*
X008850Y002600D01*
D12*
X013100Y004600D02*
X013100Y016600D01*
X012350Y015850D02*
X012350Y015350D01*
X012100Y015600D02*
X012600Y015600D01*
X015100Y015600D02*
X015600Y015600D01*
X015350Y015850D02*
X015350Y015350D01*
X018100Y015600D02*
X018600Y015600D01*
X018350Y015850D02*
X018350Y015350D01*
X021100Y015600D02*
X021600Y015600D01*
X021350Y015850D02*
X021350Y015350D01*
X024100Y015600D02*
X024600Y015600D01*
X024350Y015850D02*
X024350Y015350D01*
X027100Y015600D02*
X027600Y015600D01*
X027350Y015850D02*
X027350Y015350D01*
X030100Y015600D02*
X030600Y015600D01*
X030350Y015850D02*
X030350Y015350D01*
X033100Y015600D02*
X033600Y015600D01*
X033350Y015850D02*
X033350Y015350D01*
X036100Y015600D02*
X036600Y015600D01*
X036350Y015850D02*
X036350Y015350D01*
X039100Y015600D02*
X039600Y015600D01*
X039350Y015850D02*
X039350Y015350D01*
X042100Y015600D02*
X042600Y015600D01*
X042350Y015850D02*
X042350Y015350D01*
X045100Y015600D02*
X045600Y015600D01*
X045350Y015850D02*
X045350Y015350D01*
X048100Y015600D02*
X048600Y015600D01*
X048350Y015850D02*
X048350Y015350D01*
X051100Y015600D02*
X051600Y015600D01*
X051350Y015850D02*
X051350Y015350D01*
X054100Y015600D02*
X054600Y015600D01*
X054350Y015850D02*
X054350Y015350D01*
X057100Y015600D02*
X057600Y015600D01*
X057350Y015850D02*
X057350Y015350D01*
X055100Y016600D02*
X055100Y004600D01*
X052100Y004600D02*
X052100Y016600D01*
X049100Y016600D02*
X049100Y004600D01*
X046100Y004600D02*
X046100Y016600D01*
X043100Y016600D02*
X043100Y004600D01*
X040100Y004600D02*
X040100Y016600D01*
X037100Y016600D02*
X037100Y004600D01*
X034100Y004600D02*
X034100Y016600D01*
X031100Y016600D02*
X031100Y004600D01*
X028100Y004600D02*
X028100Y016600D01*
X025100Y016600D02*
X025100Y004600D01*
X022100Y004600D02*
X022100Y016600D01*
X019100Y016600D02*
X019100Y004600D01*
X016100Y004600D02*
X016100Y016600D01*
X015600Y014100D02*
X015100Y014100D01*
X012600Y014100D02*
X012100Y014100D01*
X018100Y014100D02*
X018600Y014100D01*
X021100Y014100D02*
X021600Y014100D01*
X024100Y014100D02*
X024600Y014100D01*
X027100Y014100D02*
X027600Y014100D01*
X030100Y014100D02*
X030600Y014100D01*
X033100Y014100D02*
X033600Y014100D01*
X036100Y014100D02*
X036600Y014100D01*
X039100Y014100D02*
X039600Y014100D01*
X042100Y014100D02*
X042600Y014100D01*
X045100Y014100D02*
X045600Y014100D01*
X048100Y014100D02*
X048600Y014100D01*
X051100Y014100D02*
X051600Y014100D01*
X054100Y014100D02*
X054600Y014100D01*
X057100Y014100D02*
X057600Y014100D01*
D13*
X055850Y015870D02*
X055697Y015870D01*
X055620Y015947D01*
X055927Y016254D01*
X055927Y015947D01*
X055850Y015870D01*
X055620Y015947D02*
X055620Y016254D01*
X055697Y016330D01*
X055850Y016330D01*
X055927Y016254D01*
X052927Y015870D02*
X052620Y015870D01*
X052773Y015870D02*
X052773Y016330D01*
X052620Y016177D01*
X049927Y016177D02*
X049620Y015870D01*
X049927Y015870D01*
X049927Y016177D02*
X049927Y016254D01*
X049850Y016330D01*
X049697Y016330D01*
X049620Y016254D01*
X046927Y016254D02*
X046927Y016177D01*
X046850Y016100D01*
X046927Y016023D01*
X046927Y015947D01*
X046850Y015870D01*
X046697Y015870D01*
X046620Y015947D01*
X046773Y016100D02*
X046850Y016100D01*
X046927Y016254D02*
X046850Y016330D01*
X046697Y016330D01*
X046620Y016254D01*
X043927Y016100D02*
X043620Y016100D01*
X043850Y016330D01*
X043850Y015870D01*
X040927Y015947D02*
X040850Y015870D01*
X040697Y015870D01*
X040620Y015947D01*
X040620Y016100D02*
X040773Y016177D01*
X040850Y016177D01*
X040927Y016100D01*
X040927Y015947D01*
X040620Y016100D02*
X040620Y016330D01*
X040927Y016330D01*
X037927Y016330D02*
X037773Y016254D01*
X037620Y016100D01*
X037850Y016100D01*
X037927Y016023D01*
X037927Y015947D01*
X037850Y015870D01*
X037697Y015870D01*
X037620Y015947D01*
X037620Y016100D01*
X034927Y016254D02*
X034620Y015947D01*
X034620Y015870D01*
X034620Y016330D02*
X034927Y016330D01*
X034927Y016254D01*
X031927Y016254D02*
X031927Y016177D01*
X031850Y016100D01*
X031697Y016100D01*
X031620Y016177D01*
X031620Y016254D01*
X031697Y016330D01*
X031850Y016330D01*
X031927Y016254D01*
X031850Y016100D02*
X031927Y016023D01*
X031927Y015947D01*
X031850Y015870D01*
X031697Y015870D01*
X031620Y015947D01*
X031620Y016023D01*
X031697Y016100D01*
X028927Y016100D02*
X028697Y016100D01*
X028620Y016177D01*
X028620Y016254D01*
X028697Y016330D01*
X028850Y016330D01*
X028927Y016254D01*
X028927Y015947D01*
X028850Y015870D01*
X028697Y015870D01*
X028620Y015947D01*
X026137Y015947D02*
X026061Y015870D01*
X025907Y015870D01*
X025830Y015947D01*
X026137Y016254D01*
X026137Y015947D01*
X025830Y015947D02*
X025830Y016254D01*
X025907Y016330D01*
X026061Y016330D01*
X026137Y016254D01*
X025523Y016330D02*
X025523Y015870D01*
X025370Y015870D02*
X025677Y015870D01*
X025370Y016177D02*
X025523Y016330D01*
X023137Y015870D02*
X022830Y015870D01*
X022677Y015870D02*
X022370Y015870D01*
X022523Y015870D02*
X022523Y016330D01*
X022370Y016177D01*
X022830Y016177D02*
X022984Y016330D01*
X022984Y015870D01*
X020137Y015870D02*
X019830Y015870D01*
X020137Y016177D01*
X020137Y016254D01*
X020061Y016330D01*
X019907Y016330D01*
X019830Y016254D01*
X019523Y016330D02*
X019523Y015870D01*
X019370Y015870D02*
X019677Y015870D01*
X019370Y016177D02*
X019523Y016330D01*
X017137Y016254D02*
X017137Y016177D01*
X017061Y016100D01*
X017137Y016023D01*
X017137Y015947D01*
X017061Y015870D01*
X016907Y015870D01*
X016830Y015947D01*
X016677Y015870D02*
X016370Y015870D01*
X016523Y015870D02*
X016523Y016330D01*
X016370Y016177D01*
X016830Y016254D02*
X016907Y016330D01*
X017061Y016330D01*
X017137Y016254D01*
X017061Y016100D02*
X016984Y016100D01*
X014137Y016100D02*
X013830Y016100D01*
X014061Y016330D01*
X014061Y015870D01*
X013677Y015870D02*
X013370Y015870D01*
X013523Y015870D02*
X013523Y016330D01*
X013370Y016177D01*
X011137Y016100D02*
X011137Y015947D01*
X011061Y015870D01*
X010907Y015870D01*
X010830Y015947D01*
X010830Y016100D02*
X010984Y016177D01*
X011061Y016177D01*
X011137Y016100D01*
X011137Y016330D02*
X010830Y016330D01*
X010830Y016100D01*
X010677Y015870D02*
X010370Y015870D01*
X010523Y015870D02*
X010523Y016330D01*
X010370Y016177D01*
X008265Y015875D02*
X008265Y015695D01*
X008265Y015875D02*
X008205Y015935D01*
X008025Y015935D01*
X008025Y015695D01*
X007897Y015755D02*
X007837Y015695D01*
X007717Y015695D01*
X007657Y015755D01*
X007897Y015995D01*
X007897Y015755D01*
X007897Y015995D02*
X007837Y016055D01*
X007717Y016055D01*
X007657Y015995D01*
X007657Y015755D01*
X007529Y015755D02*
X007468Y015695D01*
X007348Y015695D01*
X007288Y015755D01*
X007529Y015995D01*
X007529Y015755D01*
X007529Y015995D02*
X007468Y016055D01*
X007348Y016055D01*
X007288Y015995D01*
X007288Y015755D01*
X007160Y015695D02*
X006920Y015695D01*
X007040Y015695D02*
X007040Y016055D01*
X006920Y015935D01*
X001887Y011504D02*
X001811Y011580D01*
X001657Y011580D01*
X001580Y011504D01*
X001427Y011427D02*
X001427Y011120D01*
X001580Y011197D02*
X001657Y011120D01*
X001811Y011120D01*
X001887Y011197D01*
X001887Y011273D01*
X001811Y011350D01*
X001734Y011350D01*
X001811Y011350D02*
X001887Y011427D01*
X001887Y011504D01*
X001427Y011427D02*
X001273Y011580D01*
X001120Y011427D01*
X001120Y011120D01*
X001120Y011350D02*
X001427Y011350D01*
X001273Y009330D02*
X001427Y009177D01*
X001427Y008870D01*
X001580Y008870D02*
X001887Y009177D01*
X001887Y009254D01*
X001811Y009330D01*
X001657Y009330D01*
X001580Y009254D01*
X001427Y009100D02*
X001120Y009100D01*
X001120Y009177D02*
X001120Y008870D01*
X001580Y008870D02*
X001887Y008870D01*
X001273Y009330D02*
X001120Y009177D01*
X001273Y007080D02*
X001427Y006927D01*
X001427Y006620D01*
X001580Y006620D02*
X001887Y006620D01*
X001734Y006620D02*
X001734Y007080D01*
X001580Y006927D01*
X001427Y006850D02*
X001120Y006850D01*
X001120Y006927D02*
X001120Y006620D01*
X001120Y006927D02*
X001273Y007080D01*
X001273Y004830D02*
X001427Y004677D01*
X001427Y004370D01*
X001580Y004447D02*
X001887Y004754D01*
X001887Y004447D01*
X001811Y004370D01*
X001657Y004370D01*
X001580Y004447D01*
X001580Y004754D01*
X001657Y004830D01*
X001811Y004830D01*
X001887Y004754D01*
X001427Y004600D02*
X001120Y004600D01*
X001120Y004677D02*
X001120Y004370D01*
X001120Y004677D02*
X001273Y004830D01*
X009420Y001185D02*
X009540Y001305D01*
X009540Y000945D01*
X009420Y000945D02*
X009660Y000945D01*
X009788Y001005D02*
X010029Y001245D01*
X010029Y001005D01*
X009968Y000945D01*
X009848Y000945D01*
X009788Y001005D01*
X009788Y001245D01*
X009848Y001305D01*
X009968Y001305D01*
X010029Y001245D01*
X010157Y001245D02*
X010217Y001305D01*
X010337Y001305D01*
X010397Y001245D01*
X010157Y001005D01*
X010217Y000945D01*
X010337Y000945D01*
X010397Y001005D01*
X010397Y001245D01*
X010525Y001185D02*
X010705Y001185D01*
X010765Y001125D01*
X010765Y000945D01*
X010525Y000945D02*
X010525Y001185D01*
X010157Y001245D02*
X010157Y001005D01*
X045420Y001695D02*
X045660Y001695D01*
X045540Y001695D02*
X045540Y002055D01*
X045420Y001935D01*
X045788Y001995D02*
X045788Y001755D01*
X046029Y001995D01*
X046029Y001755D01*
X045968Y001695D01*
X045848Y001695D01*
X045788Y001755D01*
X045788Y001995D02*
X045848Y002055D01*
X045968Y002055D01*
X046029Y001995D01*
X046157Y001995D02*
X046217Y002055D01*
X046337Y002055D01*
X046397Y001995D01*
X046157Y001755D01*
X046217Y001695D01*
X046337Y001695D01*
X046397Y001755D01*
X046397Y001995D01*
X046525Y001935D02*
X046705Y001935D01*
X046765Y001875D01*
X046765Y001695D01*
X046525Y001695D02*
X046525Y001935D01*
X046157Y001995D02*
X046157Y001755D01*
X059645Y008040D02*
X060005Y008040D01*
X060005Y007920D02*
X060005Y008160D01*
X059945Y008288D02*
X059705Y008288D01*
X059645Y008348D01*
X059645Y008468D01*
X059705Y008529D01*
X059945Y008288D01*
X060005Y008348D01*
X060005Y008468D01*
X059945Y008529D01*
X059705Y008529D01*
X059705Y008657D02*
X059645Y008717D01*
X059645Y008837D01*
X059705Y008897D01*
X059945Y008657D01*
X060005Y008717D01*
X060005Y008837D01*
X059945Y008897D01*
X059705Y008897D01*
X059765Y009025D02*
X059765Y009205D01*
X059825Y009265D01*
X060005Y009265D01*
X060005Y009025D02*
X059765Y009025D01*
X059705Y008657D02*
X059945Y008657D01*
X059645Y008040D02*
X059765Y007920D01*
D14*
X057168Y010190D02*
X056983Y010313D01*
X057168Y010437D01*
X056983Y010560D02*
X056983Y010190D01*
X056862Y010252D02*
X056800Y010190D01*
X056676Y010190D01*
X056615Y010252D01*
X056862Y010499D01*
X056862Y010252D01*
X056615Y010252D02*
X056615Y010499D01*
X056676Y010560D01*
X056800Y010560D01*
X056862Y010499D01*
X056370Y010560D02*
X056246Y010437D01*
X056370Y010560D02*
X056370Y010190D01*
X056493Y010190D02*
X056246Y010190D01*
X056308Y010890D02*
X056308Y010952D01*
X056555Y011199D01*
X056555Y011260D01*
X056308Y011260D01*
X056125Y011260D02*
X055940Y011075D01*
X056187Y011075D01*
X056125Y010890D02*
X056125Y011260D01*
X056677Y011199D02*
X056738Y011260D01*
X056862Y011260D01*
X056924Y011199D01*
X056677Y010952D01*
X056738Y010890D01*
X056862Y010890D01*
X056924Y010952D01*
X056924Y011199D01*
X056677Y011199D02*
X056677Y010952D01*
X054168Y010437D02*
X053983Y010313D01*
X054168Y010190D01*
X053983Y010190D02*
X053983Y010560D01*
X053862Y010499D02*
X053615Y010252D01*
X053676Y010190D01*
X053800Y010190D01*
X053862Y010252D01*
X053862Y010499D01*
X053800Y010560D01*
X053676Y010560D01*
X053615Y010499D01*
X053615Y010252D01*
X053493Y010190D02*
X053246Y010190D01*
X053370Y010190D02*
X053370Y010560D01*
X053246Y010437D01*
X053308Y010890D02*
X053308Y010952D01*
X053555Y011199D01*
X053555Y011260D01*
X053308Y011260D01*
X053125Y011260D02*
X052940Y011075D01*
X053187Y011075D01*
X053125Y010890D02*
X053125Y011260D01*
X053677Y011199D02*
X053738Y011260D01*
X053862Y011260D01*
X053924Y011199D01*
X053677Y010952D01*
X053738Y010890D01*
X053862Y010890D01*
X053924Y010952D01*
X053924Y011199D01*
X053677Y011199D02*
X053677Y010952D01*
X053677Y011640D02*
X053677Y012010D01*
X053555Y011949D02*
X053308Y011702D01*
X053370Y011640D01*
X053493Y011640D01*
X053555Y011702D01*
X053555Y011949D01*
X053493Y012010D01*
X053370Y012010D01*
X053308Y011949D01*
X053308Y011702D01*
X053187Y011640D02*
X052940Y011640D01*
X053063Y011640D02*
X053063Y012010D01*
X052940Y011887D01*
X053677Y011763D02*
X053862Y011887D01*
X053677Y011763D02*
X053862Y011640D01*
X055940Y011890D02*
X056187Y011890D01*
X056063Y011890D02*
X056063Y012260D01*
X055940Y012137D01*
X056308Y012199D02*
X056308Y011952D01*
X056555Y012199D01*
X056555Y011952D01*
X056493Y011890D01*
X056370Y011890D01*
X056308Y011952D01*
X056308Y012199D02*
X056370Y012260D01*
X056493Y012260D01*
X056555Y012199D01*
X056677Y012260D02*
X056677Y011890D01*
X056677Y012013D02*
X056862Y012137D01*
X056677Y012013D02*
X056862Y011890D01*
X051168Y010437D02*
X050983Y010313D01*
X051168Y010190D01*
X050983Y010190D02*
X050983Y010560D01*
X050862Y010499D02*
X050615Y010252D01*
X050676Y010190D01*
X050800Y010190D01*
X050862Y010252D01*
X050862Y010499D01*
X050800Y010560D01*
X050676Y010560D01*
X050615Y010499D01*
X050615Y010252D01*
X050493Y010190D02*
X050246Y010190D01*
X050370Y010190D02*
X050370Y010560D01*
X050246Y010437D01*
X050308Y010890D02*
X050308Y010952D01*
X050555Y011199D01*
X050555Y011260D01*
X050308Y011260D01*
X050125Y011260D02*
X049940Y011075D01*
X050187Y011075D01*
X050125Y010890D02*
X050125Y011260D01*
X050677Y011199D02*
X050738Y011260D01*
X050862Y011260D01*
X050924Y011199D01*
X050677Y010952D01*
X050738Y010890D01*
X050862Y010890D01*
X050924Y010952D01*
X050924Y011199D01*
X050677Y011199D02*
X050677Y010952D01*
X050677Y011640D02*
X050677Y012010D01*
X050555Y011949D02*
X050308Y011702D01*
X050370Y011640D01*
X050493Y011640D01*
X050555Y011702D01*
X050555Y011949D01*
X050493Y012010D01*
X050370Y012010D01*
X050308Y011949D01*
X050308Y011702D01*
X050187Y011640D02*
X049940Y011640D01*
X050063Y011640D02*
X050063Y012010D01*
X049940Y011887D01*
X050677Y011763D02*
X050862Y011640D01*
X050677Y011763D02*
X050862Y011887D01*
X047862Y011887D02*
X047677Y011763D01*
X047862Y011640D01*
X047677Y011640D02*
X047677Y012010D01*
X047555Y011949D02*
X047308Y011702D01*
X047370Y011640D01*
X047493Y011640D01*
X047555Y011702D01*
X047555Y011949D01*
X047493Y012010D01*
X047370Y012010D01*
X047308Y011949D01*
X047308Y011702D01*
X047187Y011640D02*
X046940Y011640D01*
X047063Y011640D02*
X047063Y012010D01*
X046940Y011887D01*
X047125Y011260D02*
X046940Y011075D01*
X047187Y011075D01*
X047308Y010952D02*
X047308Y010890D01*
X047308Y010952D02*
X047555Y011199D01*
X047555Y011260D01*
X047308Y011260D01*
X047125Y011260D02*
X047125Y010890D01*
X047677Y010952D02*
X047924Y011199D01*
X047924Y010952D01*
X047862Y010890D01*
X047738Y010890D01*
X047677Y010952D01*
X047677Y011199D01*
X047738Y011260D01*
X047862Y011260D01*
X047924Y011199D01*
X047983Y010560D02*
X047983Y010190D01*
X047983Y010313D02*
X048168Y010437D01*
X047983Y010313D02*
X048168Y010190D01*
X047862Y010252D02*
X047800Y010190D01*
X047676Y010190D01*
X047615Y010252D01*
X047862Y010499D01*
X047862Y010252D01*
X047615Y010252D02*
X047615Y010499D01*
X047676Y010560D01*
X047800Y010560D01*
X047862Y010499D01*
X047370Y010560D02*
X047246Y010437D01*
X047370Y010560D02*
X047370Y010190D01*
X047493Y010190D02*
X047246Y010190D01*
X045168Y010190D02*
X044983Y010313D01*
X045168Y010437D01*
X044983Y010560D02*
X044983Y010190D01*
X044862Y010252D02*
X044800Y010190D01*
X044676Y010190D01*
X044615Y010252D01*
X044862Y010499D01*
X044862Y010252D01*
X044615Y010252D02*
X044615Y010499D01*
X044676Y010560D01*
X044800Y010560D01*
X044862Y010499D01*
X044370Y010560D02*
X044246Y010437D01*
X044370Y010560D02*
X044370Y010190D01*
X044493Y010190D02*
X044246Y010190D01*
X042168Y010190D02*
X041983Y010313D01*
X042168Y010437D01*
X041983Y010560D02*
X041983Y010190D01*
X041862Y010252D02*
X041800Y010190D01*
X041676Y010190D01*
X041615Y010252D01*
X041862Y010499D01*
X041862Y010252D01*
X041615Y010252D02*
X041615Y010499D01*
X041676Y010560D01*
X041800Y010560D01*
X041862Y010499D01*
X041370Y010560D02*
X041246Y010437D01*
X041370Y010560D02*
X041370Y010190D01*
X041493Y010190D02*
X041246Y010190D01*
X039168Y010190D02*
X038983Y010313D01*
X039168Y010437D01*
X038983Y010560D02*
X038983Y010190D01*
X038862Y010252D02*
X038800Y010190D01*
X038676Y010190D01*
X038615Y010252D01*
X038862Y010499D01*
X038862Y010252D01*
X038615Y010252D02*
X038615Y010499D01*
X038676Y010560D01*
X038800Y010560D01*
X038862Y010499D01*
X038370Y010560D02*
X038370Y010190D01*
X038493Y010190D02*
X038246Y010190D01*
X038246Y010437D02*
X038370Y010560D01*
X038308Y010890D02*
X038308Y010952D01*
X038555Y011199D01*
X038555Y011260D01*
X038308Y011260D01*
X038125Y011260D02*
X037940Y011075D01*
X038187Y011075D01*
X038125Y010890D02*
X038125Y011260D01*
X038677Y011199D02*
X038738Y011260D01*
X038862Y011260D01*
X038924Y011199D01*
X038677Y010952D01*
X038738Y010890D01*
X038862Y010890D01*
X038924Y010952D01*
X038924Y011199D01*
X038677Y011199D02*
X038677Y010952D01*
X038677Y011640D02*
X038677Y012010D01*
X038555Y011949D02*
X038308Y011702D01*
X038370Y011640D01*
X038493Y011640D01*
X038555Y011702D01*
X038555Y011949D01*
X038493Y012010D01*
X038370Y012010D01*
X038308Y011949D01*
X038308Y011702D01*
X038187Y011640D02*
X037940Y011640D01*
X038063Y011640D02*
X038063Y012010D01*
X037940Y011887D01*
X038677Y011763D02*
X038862Y011887D01*
X038677Y011763D02*
X038862Y011640D01*
X040940Y011640D02*
X041187Y011640D01*
X041063Y011640D02*
X041063Y012010D01*
X040940Y011887D01*
X041308Y011949D02*
X041370Y012010D01*
X041493Y012010D01*
X041555Y011949D01*
X041308Y011702D01*
X041370Y011640D01*
X041493Y011640D01*
X041555Y011702D01*
X041555Y011949D01*
X041677Y012010D02*
X041677Y011640D01*
X041677Y011763D02*
X041862Y011640D01*
X041677Y011763D02*
X041862Y011887D01*
X041308Y011949D02*
X041308Y011702D01*
X041308Y011260D02*
X041555Y011260D01*
X041555Y011199D01*
X041308Y010952D01*
X041308Y010890D01*
X041125Y010890D02*
X041125Y011260D01*
X040940Y011075D01*
X041187Y011075D01*
X041677Y010952D02*
X041924Y011199D01*
X041924Y010952D01*
X041862Y010890D01*
X041738Y010890D01*
X041677Y010952D01*
X041677Y011199D01*
X041738Y011260D01*
X041862Y011260D01*
X041924Y011199D01*
X043940Y011075D02*
X044187Y011075D01*
X044308Y010952D02*
X044308Y010890D01*
X044308Y010952D02*
X044555Y011199D01*
X044555Y011260D01*
X044308Y011260D01*
X044125Y011260D02*
X043940Y011075D01*
X044125Y010890D02*
X044125Y011260D01*
X044677Y011199D02*
X044738Y011260D01*
X044862Y011260D01*
X044924Y011199D01*
X044677Y010952D01*
X044738Y010890D01*
X044862Y010890D01*
X044924Y010952D01*
X044924Y011199D01*
X044677Y011199D02*
X044677Y010952D01*
X044677Y011640D02*
X044677Y012010D01*
X044555Y011949D02*
X044308Y011702D01*
X044370Y011640D01*
X044493Y011640D01*
X044555Y011702D01*
X044555Y011949D01*
X044493Y012010D01*
X044370Y012010D01*
X044308Y011949D01*
X044308Y011702D01*
X044187Y011640D02*
X043940Y011640D01*
X044063Y011640D02*
X044063Y012010D01*
X043940Y011887D01*
X044677Y011763D02*
X044862Y011887D01*
X044677Y011763D02*
X044862Y011640D01*
X036168Y010437D02*
X035983Y010313D01*
X036168Y010190D01*
X035983Y010190D02*
X035983Y010560D01*
X035862Y010499D02*
X035615Y010252D01*
X035676Y010190D01*
X035800Y010190D01*
X035862Y010252D01*
X035862Y010499D01*
X035800Y010560D01*
X035676Y010560D01*
X035615Y010499D01*
X035615Y010252D01*
X035493Y010190D02*
X035246Y010190D01*
X035370Y010190D02*
X035370Y010560D01*
X035246Y010437D01*
X035308Y010890D02*
X035308Y010952D01*
X035555Y011199D01*
X035555Y011260D01*
X035308Y011260D01*
X035125Y011260D02*
X034940Y011075D01*
X035187Y011075D01*
X035125Y010890D02*
X035125Y011260D01*
X035677Y011199D02*
X035738Y011260D01*
X035862Y011260D01*
X035924Y011199D01*
X035677Y010952D01*
X035738Y010890D01*
X035862Y010890D01*
X035924Y010952D01*
X035924Y011199D01*
X035677Y011199D02*
X035677Y010952D01*
X035677Y011640D02*
X035677Y012010D01*
X035555Y011949D02*
X035308Y011702D01*
X035370Y011640D01*
X035493Y011640D01*
X035555Y011702D01*
X035555Y011949D01*
X035493Y012010D01*
X035370Y012010D01*
X035308Y011949D01*
X035308Y011702D01*
X035187Y011640D02*
X034940Y011640D01*
X035063Y011640D02*
X035063Y012010D01*
X034940Y011887D01*
X035677Y011763D02*
X035862Y011887D01*
X035677Y011763D02*
X035862Y011640D01*
X032924Y011199D02*
X032924Y010952D01*
X032862Y010890D01*
X032738Y010890D01*
X032677Y010952D01*
X032924Y011199D01*
X032862Y011260D01*
X032738Y011260D01*
X032677Y011199D01*
X032677Y010952D01*
X032555Y011199D02*
X032308Y010952D01*
X032308Y010890D01*
X032125Y010890D02*
X032125Y011260D01*
X031940Y011075D01*
X032187Y011075D01*
X032308Y011260D02*
X032555Y011260D01*
X032555Y011199D01*
X032493Y011640D02*
X032370Y011640D01*
X032308Y011702D01*
X032555Y011949D01*
X032555Y011702D01*
X032493Y011640D01*
X032677Y011640D02*
X032677Y012010D01*
X032555Y011949D02*
X032493Y012010D01*
X032370Y012010D01*
X032308Y011949D01*
X032308Y011702D01*
X032187Y011640D02*
X031940Y011640D01*
X032063Y011640D02*
X032063Y012010D01*
X031940Y011887D01*
X032677Y011763D02*
X032862Y011887D01*
X032677Y011763D02*
X032862Y011640D01*
X029924Y011199D02*
X029677Y010952D01*
X029738Y010890D01*
X029862Y010890D01*
X029924Y010952D01*
X029924Y011199D01*
X029862Y011260D01*
X029738Y011260D01*
X029677Y011199D01*
X029677Y010952D01*
X029555Y011199D02*
X029308Y010952D01*
X029308Y010890D01*
X029125Y010890D02*
X029125Y011260D01*
X028940Y011075D01*
X029187Y011075D01*
X029308Y011260D02*
X029555Y011260D01*
X029555Y011199D01*
X029493Y011640D02*
X029370Y011640D01*
X029308Y011702D01*
X029555Y011949D01*
X029555Y011702D01*
X029493Y011640D01*
X029677Y011640D02*
X029677Y012010D01*
X029555Y011949D02*
X029493Y012010D01*
X029370Y012010D01*
X029308Y011949D01*
X029308Y011702D01*
X029187Y011640D02*
X028940Y011640D01*
X029063Y011640D02*
X029063Y012010D01*
X028940Y011887D01*
X029677Y011763D02*
X029862Y011640D01*
X029677Y011763D02*
X029862Y011887D01*
X026862Y011887D02*
X026677Y011763D01*
X026862Y011640D01*
X026677Y011640D02*
X026677Y012010D01*
X026555Y011949D02*
X026308Y011702D01*
X026370Y011640D01*
X026493Y011640D01*
X026555Y011702D01*
X026555Y011949D01*
X026493Y012010D01*
X026370Y012010D01*
X026308Y011949D01*
X026308Y011702D01*
X026187Y011640D02*
X025940Y011640D01*
X026063Y011640D02*
X026063Y012010D01*
X025940Y011887D01*
X026125Y011260D02*
X025940Y011075D01*
X026187Y011075D01*
X026308Y010952D02*
X026308Y010890D01*
X026308Y010952D02*
X026555Y011199D01*
X026555Y011260D01*
X026308Y011260D01*
X026125Y011260D02*
X026125Y010890D01*
X026677Y010952D02*
X026924Y011199D01*
X026924Y010952D01*
X026862Y010890D01*
X026738Y010890D01*
X026677Y010952D01*
X026677Y011199D01*
X026738Y011260D01*
X026862Y011260D01*
X026924Y011199D01*
X026983Y010560D02*
X026983Y010190D01*
X026983Y010313D02*
X027168Y010437D01*
X026983Y010313D02*
X027168Y010190D01*
X026862Y010252D02*
X026800Y010190D01*
X026676Y010190D01*
X026615Y010252D01*
X026862Y010499D01*
X026862Y010252D01*
X026615Y010252D02*
X026615Y010499D01*
X026676Y010560D01*
X026800Y010560D01*
X026862Y010499D01*
X026370Y010560D02*
X026246Y010437D01*
X026370Y010560D02*
X026370Y010190D01*
X026493Y010190D02*
X026246Y010190D01*
X024168Y010190D02*
X023983Y010313D01*
X024168Y010437D01*
X023983Y010560D02*
X023983Y010190D01*
X023862Y010252D02*
X023800Y010190D01*
X023676Y010190D01*
X023615Y010252D01*
X023862Y010499D01*
X023862Y010252D01*
X023615Y010252D02*
X023615Y010499D01*
X023676Y010560D01*
X023800Y010560D01*
X023862Y010499D01*
X023370Y010560D02*
X023246Y010437D01*
X023370Y010560D02*
X023370Y010190D01*
X023493Y010190D02*
X023246Y010190D01*
X021168Y010190D02*
X020983Y010313D01*
X021168Y010437D01*
X020983Y010560D02*
X020983Y010190D01*
X020862Y010252D02*
X020800Y010190D01*
X020676Y010190D01*
X020615Y010252D01*
X020862Y010499D01*
X020862Y010252D01*
X020615Y010252D02*
X020615Y010499D01*
X020676Y010560D01*
X020800Y010560D01*
X020862Y010499D01*
X020370Y010560D02*
X020246Y010437D01*
X020370Y010560D02*
X020370Y010190D01*
X020493Y010190D02*
X020246Y010190D01*
X018168Y010190D02*
X017983Y010313D01*
X018168Y010437D01*
X017983Y010560D02*
X017983Y010190D01*
X017862Y010252D02*
X017800Y010190D01*
X017676Y010190D01*
X017615Y010252D01*
X017862Y010499D01*
X017862Y010252D01*
X017615Y010252D02*
X017615Y010499D01*
X017676Y010560D01*
X017800Y010560D01*
X017862Y010499D01*
X017370Y010560D02*
X017370Y010190D01*
X017493Y010190D02*
X017246Y010190D01*
X017246Y010437D02*
X017370Y010560D01*
X017308Y010890D02*
X017308Y010952D01*
X017555Y011199D01*
X017555Y011260D01*
X017308Y011260D01*
X017125Y011260D02*
X016940Y011075D01*
X017187Y011075D01*
X017125Y010890D02*
X017125Y011260D01*
X017677Y011199D02*
X017738Y011260D01*
X017862Y011260D01*
X017924Y011199D01*
X017677Y010952D01*
X017738Y010890D01*
X017862Y010890D01*
X017924Y010952D01*
X017924Y011199D01*
X017677Y011199D02*
X017677Y010952D01*
X017677Y011640D02*
X017677Y012010D01*
X017555Y011949D02*
X017308Y011702D01*
X017370Y011640D01*
X017493Y011640D01*
X017555Y011702D01*
X017555Y011949D01*
X017493Y012010D01*
X017370Y012010D01*
X017308Y011949D01*
X017308Y011702D01*
X017187Y011640D02*
X016940Y011640D01*
X017063Y011640D02*
X017063Y012010D01*
X016940Y011887D01*
X017677Y011763D02*
X017862Y011887D01*
X017677Y011763D02*
X017862Y011640D01*
X019940Y011640D02*
X020187Y011640D01*
X020063Y011640D02*
X020063Y012010D01*
X019940Y011887D01*
X020308Y011949D02*
X020370Y012010D01*
X020493Y012010D01*
X020555Y011949D01*
X020308Y011702D01*
X020370Y011640D01*
X020493Y011640D01*
X020555Y011702D01*
X020555Y011949D01*
X020677Y012010D02*
X020677Y011640D01*
X020677Y011763D02*
X020862Y011640D01*
X020677Y011763D02*
X020862Y011887D01*
X020308Y011949D02*
X020308Y011702D01*
X020308Y011260D02*
X020555Y011260D01*
X020555Y011199D01*
X020308Y010952D01*
X020308Y010890D01*
X020125Y010890D02*
X020125Y011260D01*
X019940Y011075D01*
X020187Y011075D01*
X020677Y010952D02*
X020924Y011199D01*
X020924Y010952D01*
X020862Y010890D01*
X020738Y010890D01*
X020677Y010952D01*
X020677Y011199D01*
X020738Y011260D01*
X020862Y011260D01*
X020924Y011199D01*
X022940Y011075D02*
X023187Y011075D01*
X023308Y010952D02*
X023308Y010890D01*
X023308Y010952D02*
X023555Y011199D01*
X023555Y011260D01*
X023308Y011260D01*
X023125Y011260D02*
X022940Y011075D01*
X023125Y010890D02*
X023125Y011260D01*
X023677Y011199D02*
X023738Y011260D01*
X023862Y011260D01*
X023924Y011199D01*
X023677Y010952D01*
X023738Y010890D01*
X023862Y010890D01*
X023924Y010952D01*
X023924Y011199D01*
X023677Y011199D02*
X023677Y010952D01*
X023677Y011640D02*
X023677Y012010D01*
X023555Y011949D02*
X023308Y011702D01*
X023370Y011640D01*
X023493Y011640D01*
X023555Y011702D01*
X023555Y011949D01*
X023493Y012010D01*
X023370Y012010D01*
X023308Y011949D01*
X023308Y011702D01*
X023187Y011640D02*
X022940Y011640D01*
X023063Y011640D02*
X023063Y012010D01*
X022940Y011887D01*
X023677Y011763D02*
X023862Y011887D01*
X023677Y011763D02*
X023862Y011640D01*
X029246Y010437D02*
X029370Y010560D01*
X029370Y010190D01*
X029493Y010190D02*
X029246Y010190D01*
X029615Y010252D02*
X029862Y010499D01*
X029862Y010252D01*
X029800Y010190D01*
X029676Y010190D01*
X029615Y010252D01*
X029615Y010499D01*
X029676Y010560D01*
X029800Y010560D01*
X029862Y010499D01*
X029983Y010560D02*
X029983Y010190D01*
X029983Y010313D02*
X030168Y010437D01*
X029983Y010313D02*
X030168Y010190D01*
X032246Y010190D02*
X032493Y010190D01*
X032370Y010190D02*
X032370Y010560D01*
X032246Y010437D01*
X032615Y010499D02*
X032615Y010252D01*
X032862Y010499D01*
X032862Y010252D01*
X032800Y010190D01*
X032676Y010190D01*
X032615Y010252D01*
X032983Y010313D02*
X033168Y010437D01*
X032983Y010560D02*
X032983Y010190D01*
X032983Y010313D02*
X033168Y010190D01*
X032862Y010499D02*
X032800Y010560D01*
X032676Y010560D01*
X032615Y010499D01*
X015168Y010437D02*
X014983Y010313D01*
X015168Y010190D01*
X014983Y010190D02*
X014983Y010560D01*
X014862Y010499D02*
X014615Y010252D01*
X014676Y010190D01*
X014800Y010190D01*
X014862Y010252D01*
X014862Y010499D01*
X014800Y010560D01*
X014676Y010560D01*
X014615Y010499D01*
X014615Y010252D01*
X014493Y010190D02*
X014246Y010190D01*
X014370Y010190D02*
X014370Y010560D01*
X014246Y010437D01*
X014308Y010890D02*
X014308Y010952D01*
X014555Y011199D01*
X014555Y011260D01*
X014308Y011260D01*
X014125Y011260D02*
X013940Y011075D01*
X014187Y011075D01*
X014125Y010890D02*
X014125Y011260D01*
X014677Y011199D02*
X014738Y011260D01*
X014862Y011260D01*
X014924Y011199D01*
X014677Y010952D01*
X014738Y010890D01*
X014862Y010890D01*
X014924Y010952D01*
X014924Y011199D01*
X014677Y011199D02*
X014677Y010952D01*
X014677Y011640D02*
X014677Y012010D01*
X014555Y011949D02*
X014308Y011702D01*
X014370Y011640D01*
X014493Y011640D01*
X014555Y011702D01*
X014555Y011949D01*
X014493Y012010D01*
X014370Y012010D01*
X014308Y011949D01*
X014308Y011702D01*
X014187Y011640D02*
X013940Y011640D01*
X014063Y011640D02*
X014063Y012010D01*
X013940Y011887D01*
X014677Y011763D02*
X014862Y011887D01*
X014677Y011763D02*
X014862Y011640D01*
X011924Y011199D02*
X011924Y010952D01*
X011862Y010890D01*
X011738Y010890D01*
X011677Y010952D01*
X011924Y011199D01*
X011862Y011260D01*
X011738Y011260D01*
X011677Y011199D01*
X011677Y010952D01*
X011555Y011199D02*
X011308Y010952D01*
X011308Y010890D01*
X011125Y010890D02*
X011125Y011260D01*
X010940Y011075D01*
X011187Y011075D01*
X011308Y011260D02*
X011555Y011260D01*
X011555Y011199D01*
X011493Y011640D02*
X011370Y011640D01*
X011308Y011702D01*
X011555Y011949D01*
X011555Y011702D01*
X011493Y011640D01*
X011677Y011640D02*
X011677Y012010D01*
X011555Y011949D02*
X011493Y012010D01*
X011370Y012010D01*
X011308Y011949D01*
X011308Y011702D01*
X011187Y011640D02*
X010940Y011640D01*
X011063Y011640D02*
X011063Y012010D01*
X010940Y011887D01*
X011677Y011763D02*
X011862Y011887D01*
X011677Y011763D02*
X011862Y011640D01*
X011800Y010560D02*
X011676Y010560D01*
X011615Y010499D01*
X011615Y010252D01*
X011862Y010499D01*
X011862Y010252D01*
X011800Y010190D01*
X011676Y010190D01*
X011615Y010252D01*
X011493Y010190D02*
X011246Y010190D01*
X011370Y010190D02*
X011370Y010560D01*
X011246Y010437D01*
X011800Y010560D02*
X011862Y010499D01*
X011983Y010560D02*
X011983Y010190D01*
X011983Y010313D02*
X012168Y010437D01*
X011983Y010313D02*
X012168Y010190D01*
X005918Y010187D02*
X005733Y010063D01*
X005918Y009940D01*
X005733Y009940D02*
X005733Y010310D01*
X005612Y010249D02*
X005365Y010002D01*
X005426Y009940D01*
X005550Y009940D01*
X005612Y010002D01*
X005612Y010249D01*
X005550Y010310D01*
X005426Y010310D01*
X005365Y010249D01*
X005365Y010002D01*
X005243Y009940D02*
X004996Y009940D01*
X005120Y009940D02*
X005120Y010310D01*
X004996Y010187D01*
X004996Y010940D02*
X005243Y010940D01*
X005120Y010940D02*
X005120Y011310D01*
X004996Y011187D01*
X005365Y011249D02*
X005426Y011310D01*
X005550Y011310D01*
X005612Y011249D01*
X005365Y011002D01*
X005426Y010940D01*
X005550Y010940D01*
X005612Y011002D01*
X005612Y011249D01*
X005733Y011310D02*
X005733Y010940D01*
X005733Y011063D02*
X005918Y010940D01*
X005733Y011063D02*
X005918Y011187D01*
X005365Y011249D02*
X005365Y011002D01*
X005303Y011940D02*
X005303Y012002D01*
X005550Y012249D01*
X005550Y012310D01*
X005303Y012310D01*
X005120Y012310D02*
X004935Y012125D01*
X005182Y012125D01*
X005120Y011940D02*
X005120Y012310D01*
X005672Y012249D02*
X005733Y012310D01*
X005857Y012310D01*
X005919Y012249D01*
X005672Y012002D01*
X005733Y011940D01*
X005857Y011940D01*
X005919Y012002D01*
X005919Y012249D01*
X005672Y012249D02*
X005672Y012002D01*
X005733Y012940D02*
X005733Y013310D01*
X005612Y013249D02*
X005365Y013002D01*
X005426Y012940D01*
X005550Y012940D01*
X005612Y013002D01*
X005612Y013249D01*
X005550Y013310D01*
X005426Y013310D01*
X005365Y013249D01*
X005365Y013002D01*
X005243Y012940D02*
X004996Y012940D01*
X005120Y012940D02*
X005120Y013310D01*
X004996Y013187D01*
X005733Y013063D02*
X005918Y013187D01*
X005733Y013063D02*
X005918Y012940D01*
X005918Y013940D02*
X005733Y014063D01*
X005918Y014187D01*
X005733Y014310D02*
X005733Y013940D01*
X005612Y014002D02*
X005550Y013940D01*
X005426Y013940D01*
X005365Y014002D01*
X005612Y014249D01*
X005612Y014002D01*
X005612Y014249D02*
X005550Y014310D01*
X005426Y014310D01*
X005365Y014249D01*
X005365Y014002D01*
X005243Y013940D02*
X004996Y013940D01*
X005120Y013940D02*
X005120Y014310D01*
X004996Y014187D01*
X005120Y009310D02*
X004935Y009125D01*
X005182Y009125D01*
X005303Y009002D02*
X005550Y009249D01*
X005550Y009310D01*
X005303Y009310D01*
X005120Y009310D02*
X005120Y008940D01*
X005303Y008940D02*
X005303Y009002D01*
X005672Y009002D02*
X005733Y008940D01*
X005857Y008940D01*
X005919Y009002D01*
X005919Y009249D01*
X005672Y009002D01*
X005672Y009249D01*
X005733Y009310D01*
X005857Y009310D01*
X005919Y009249D01*
X005733Y008310D02*
X005733Y007940D01*
X005733Y008063D02*
X005918Y008187D01*
X005733Y008063D02*
X005918Y007940D01*
X005612Y008002D02*
X005550Y007940D01*
X005426Y007940D01*
X005365Y008002D01*
X005612Y008249D01*
X005612Y008002D01*
X005612Y008249D02*
X005550Y008310D01*
X005426Y008310D01*
X005365Y008249D01*
X005365Y008002D01*
X005243Y007940D02*
X004996Y007940D01*
X005120Y007940D02*
X005120Y008310D01*
X004996Y008187D01*
X005120Y007310D02*
X005120Y006940D01*
X005243Y006940D02*
X004996Y006940D01*
X004996Y007187D02*
X005120Y007310D01*
X005365Y007249D02*
X005426Y007310D01*
X005550Y007310D01*
X005612Y007249D01*
X005365Y007002D01*
X005426Y006940D01*
X005550Y006940D01*
X005612Y007002D01*
X005612Y007249D01*
X005733Y007310D02*
X005733Y006940D01*
X005733Y007063D02*
X005918Y006940D01*
X005733Y007063D02*
X005918Y007187D01*
X005365Y007249D02*
X005365Y007002D01*
X005303Y006310D02*
X005550Y006310D01*
X005550Y006249D01*
X005303Y006002D01*
X005303Y005940D01*
X005120Y005940D02*
X005120Y006310D01*
X004935Y006125D01*
X005182Y006125D01*
X005672Y006002D02*
X005919Y006249D01*
X005919Y006002D01*
X005857Y005940D01*
X005733Y005940D01*
X005672Y006002D01*
X005672Y006249D01*
X005733Y006310D01*
X005857Y006310D01*
X005919Y006249D01*
X005733Y005310D02*
X005733Y004940D01*
X005733Y005063D02*
X005918Y004940D01*
X005733Y005063D02*
X005918Y005187D01*
X005612Y005249D02*
X005365Y005002D01*
X005426Y004940D01*
X005550Y004940D01*
X005612Y005002D01*
X005612Y005249D01*
X005550Y005310D01*
X005426Y005310D01*
X005365Y005249D01*
X005365Y005002D01*
X005243Y004940D02*
X004996Y004940D01*
X005120Y004940D02*
X005120Y005310D01*
X004996Y005187D01*
X005120Y004310D02*
X005120Y003940D01*
X005243Y003940D02*
X004996Y003940D01*
X005365Y004002D02*
X005426Y003940D01*
X005550Y003940D01*
X005612Y004002D01*
X005612Y004249D01*
X005365Y004002D01*
X005365Y004249D01*
X005426Y004310D01*
X005550Y004310D01*
X005612Y004249D01*
X005733Y004310D02*
X005733Y003940D01*
X005733Y004063D02*
X005918Y003940D01*
X005733Y004063D02*
X005918Y004187D01*
X005120Y004310D02*
X004996Y004187D01*
X005120Y003310D02*
X004935Y003125D01*
X005182Y003125D01*
X005303Y003002D02*
X005550Y003249D01*
X005550Y003310D01*
X005303Y003310D01*
X005120Y003310D02*
X005120Y002940D01*
X005303Y002940D02*
X005303Y003002D01*
X005672Y003002D02*
X005919Y003249D01*
X005919Y003002D01*
X005857Y002940D01*
X005733Y002940D01*
X005672Y003002D01*
X005672Y003249D01*
X005733Y003310D01*
X005857Y003310D01*
X005919Y003249D01*
X019690Y002325D02*
X019937Y002325D01*
X020058Y002202D02*
X020058Y002140D01*
X020058Y002202D02*
X020305Y002449D01*
X020305Y002510D01*
X020058Y002510D01*
X019875Y002510D02*
X019690Y002325D01*
X019875Y002140D02*
X019875Y002510D01*
X020427Y002449D02*
X020488Y002510D01*
X020612Y002510D01*
X020674Y002449D01*
X020427Y002202D01*
X020488Y002140D01*
X020612Y002140D01*
X020674Y002202D01*
X020674Y002449D01*
X020427Y002449D02*
X020427Y002202D01*
X028440Y002390D02*
X028687Y002390D01*
X028563Y002390D02*
X028563Y002760D01*
X028440Y002637D01*
X028808Y002699D02*
X028870Y002760D01*
X028993Y002760D01*
X029055Y002699D01*
X028808Y002452D01*
X028870Y002390D01*
X028993Y002390D01*
X029055Y002452D01*
X029055Y002699D01*
X029177Y002760D02*
X029177Y002390D01*
X029177Y002513D02*
X029362Y002390D01*
X029177Y002513D02*
X029362Y002637D01*
X028808Y002699D02*
X028808Y002452D01*
X028870Y002010D02*
X028993Y002010D01*
X029055Y001949D01*
X028808Y001702D01*
X028870Y001640D01*
X028993Y001640D01*
X029055Y001702D01*
X029055Y001949D01*
X029177Y002010D02*
X029177Y001640D01*
X029177Y001763D02*
X029362Y001640D01*
X029177Y001763D02*
X029362Y001887D01*
X028870Y002010D02*
X028808Y001949D01*
X028808Y001702D01*
X028687Y001640D02*
X028440Y001640D01*
X028563Y001640D02*
X028563Y002010D01*
X028440Y001887D01*
X028563Y001260D02*
X028563Y000890D01*
X028440Y000890D02*
X028687Y000890D01*
X028808Y000952D02*
X029055Y001199D01*
X029055Y000952D01*
X028993Y000890D01*
X028870Y000890D01*
X028808Y000952D01*
X028808Y001199D01*
X028870Y001260D01*
X028993Y001260D01*
X029055Y001199D01*
X029177Y001260D02*
X029177Y000890D01*
X029177Y001013D02*
X029362Y001137D01*
X029177Y001013D02*
X029362Y000890D01*
X028563Y001260D02*
X028440Y001137D01*
X039115Y000927D02*
X039177Y000865D01*
X039238Y000865D01*
X039300Y000927D01*
X039300Y001235D01*
X039238Y001235D02*
X039362Y001235D01*
X039545Y001112D02*
X039668Y001112D01*
X039730Y001050D01*
X039730Y000865D01*
X039545Y000865D01*
X039483Y000927D01*
X039545Y000988D01*
X039730Y000988D01*
X039852Y000865D02*
X039852Y001112D01*
X039913Y001112D01*
X039975Y001050D01*
X040037Y001112D01*
X040099Y001050D01*
X040099Y000865D01*
X039975Y000865D02*
X039975Y001050D01*
X040220Y001050D02*
X040220Y000927D01*
X040282Y000865D01*
X040405Y000865D01*
X040467Y000988D02*
X040220Y000988D01*
X040220Y001050D02*
X040282Y001112D01*
X040405Y001112D01*
X040467Y001050D01*
X040467Y000988D01*
X040588Y001050D02*
X040650Y000988D01*
X040773Y000988D01*
X040835Y000927D01*
X040773Y000865D01*
X040588Y000865D01*
X040588Y001050D02*
X040650Y001112D01*
X040835Y001112D01*
X041325Y001235D02*
X041325Y000865D01*
X041572Y000865D02*
X041572Y001235D01*
X041755Y001112D02*
X041878Y001112D01*
X041940Y001050D01*
X041940Y000988D01*
X041693Y000988D01*
X041693Y000927D02*
X041693Y001050D01*
X041755Y001112D01*
X041693Y000927D02*
X041755Y000865D01*
X041878Y000865D01*
X042062Y000927D02*
X042062Y001112D01*
X042062Y000927D02*
X042123Y000865D01*
X042185Y000927D01*
X042247Y000865D01*
X042308Y000927D01*
X042308Y001112D01*
X042430Y001112D02*
X042492Y001112D01*
X042553Y001050D01*
X042615Y001112D01*
X042677Y001050D01*
X042677Y000865D01*
X042553Y000865D02*
X042553Y001050D01*
X042430Y001112D02*
X042430Y000865D01*
X042798Y000927D02*
X042860Y000988D01*
X043045Y000988D01*
X043045Y001050D02*
X043045Y000865D01*
X042860Y000865D01*
X042798Y000927D01*
X042860Y001112D02*
X042983Y001112D01*
X043045Y001050D01*
X043166Y001112D02*
X043352Y001112D01*
X043413Y001050D01*
X043413Y000865D01*
X043166Y000865D02*
X043166Y001112D01*
X041572Y000865D02*
X041325Y001235D01*
D15*
X040700Y004600D02*
X040100Y004600D01*
X040100Y006600D01*
X040700Y006600D01*
X040100Y006600D01*
X040100Y008600D01*
X040700Y008600D01*
X040100Y008600D02*
X039500Y008600D01*
X040100Y008600D02*
X040100Y006600D01*
X039500Y006600D01*
X040100Y006600D01*
X040100Y004600D01*
X039500Y004600D01*
X037700Y004600D02*
X037100Y004600D01*
X037100Y006600D01*
X037700Y006600D01*
X037100Y006600D01*
X037100Y008600D01*
X037700Y008600D01*
X037100Y008600D02*
X036500Y008600D01*
X037100Y008600D02*
X037100Y006600D01*
X036500Y006600D01*
X037100Y006600D01*
X037100Y004600D01*
X036500Y004600D01*
X034700Y004600D02*
X034100Y004600D01*
X033500Y004600D01*
X034100Y004600D02*
X034100Y006600D01*
X034700Y006600D01*
X034100Y006600D01*
X034100Y008600D01*
X034700Y008600D01*
X034100Y008600D02*
X033500Y008600D01*
X034100Y008600D02*
X034100Y006600D01*
X033500Y006600D01*
X034100Y006600D01*
X034100Y004600D01*
X031700Y004600D02*
X031100Y004600D01*
X031100Y006600D01*
X031700Y006600D01*
X031100Y006600D01*
X031100Y008600D01*
X031700Y008600D01*
X031100Y008600D02*
X030500Y008600D01*
X031100Y008600D02*
X031100Y006600D01*
X030500Y006600D01*
X031100Y006600D01*
X031100Y004600D01*
X030500Y004600D01*
X028700Y004600D02*
X028100Y004600D01*
X028100Y006600D01*
X028700Y006600D01*
X028100Y006600D01*
X028100Y008600D01*
X028700Y008600D01*
X028100Y008600D02*
X027500Y008600D01*
X028100Y008600D02*
X028100Y006600D01*
X027500Y006600D01*
X028100Y006600D01*
X028100Y004600D01*
X027500Y004600D01*
X025700Y004600D02*
X025100Y004600D01*
X025100Y006600D01*
X025700Y006600D01*
X025100Y006600D01*
X025100Y008600D01*
X025700Y008600D01*
X025100Y008600D02*
X024500Y008600D01*
X025100Y008600D02*
X025100Y006600D01*
X024500Y006600D01*
X025100Y006600D01*
X025100Y004600D01*
X024500Y004600D01*
X022700Y004600D02*
X022100Y004600D01*
X022100Y006600D01*
X022700Y006600D01*
X022100Y006600D01*
X022100Y008600D01*
X022700Y008600D01*
X022100Y008600D02*
X021500Y008600D01*
X022100Y008600D02*
X022100Y006600D01*
X021500Y006600D01*
X022100Y006600D01*
X022100Y004600D01*
X021500Y004600D01*
X019700Y004600D02*
X019100Y004600D01*
X019100Y006600D01*
X019700Y006600D01*
X019100Y006600D01*
X019100Y008600D01*
X019700Y008600D01*
X019100Y008600D02*
X018500Y008600D01*
X019100Y008600D02*
X019100Y006600D01*
X018500Y006600D01*
X019100Y006600D01*
X019100Y004600D01*
X018500Y004600D01*
X016700Y004600D02*
X016100Y004600D01*
X016100Y006600D01*
X016700Y006600D01*
X016100Y006600D01*
X016100Y008600D01*
X016700Y008600D01*
X016100Y008600D02*
X015500Y008600D01*
X016100Y008600D02*
X016100Y006600D01*
X015500Y006600D01*
X016100Y006600D01*
X016100Y004600D01*
X015500Y004600D01*
X013700Y004600D02*
X013100Y004600D01*
X013100Y006600D01*
X013700Y006600D01*
X013100Y006600D01*
X013100Y008600D01*
X013700Y008600D01*
X013100Y008600D02*
X012500Y008600D01*
X013100Y008600D02*
X013100Y006600D01*
X012500Y006600D01*
X013100Y006600D01*
X013100Y004600D01*
X012500Y004600D01*
X010700Y004600D02*
X010100Y004600D01*
X010100Y006600D01*
X010700Y006600D01*
X010100Y006600D01*
X010100Y008600D01*
X010700Y008600D01*
X010600Y009250D02*
X010600Y009850D01*
X012600Y009850D01*
X012600Y009250D01*
X013600Y009250D02*
X013600Y009850D01*
X015600Y009850D01*
X015600Y009250D01*
X016600Y009250D02*
X016600Y009850D01*
X018600Y009850D01*
X018600Y009250D01*
X019600Y009250D02*
X019600Y009850D01*
X021600Y009850D01*
X021600Y009250D01*
X021586Y009189D01*
X021568Y009130D01*
X021547Y009071D01*
X021522Y009014D01*
X021494Y008959D01*
X021462Y008905D01*
X021427Y008853D01*
X021389Y008804D01*
X021349Y008757D01*
X021305Y008713D01*
X021259Y008671D01*
X021210Y008632D01*
X021159Y008597D01*
X021106Y008564D01*
X021051Y008535D01*
X020994Y008509D01*
X020936Y008487D01*
X020877Y008468D01*
X020816Y008453D01*
X020755Y008442D01*
X020693Y008434D01*
X020631Y008430D01*
X020569Y008430D01*
X020507Y008434D01*
X020445Y008442D01*
X020384Y008453D01*
X020323Y008468D01*
X020264Y008487D01*
X020206Y008509D01*
X020149Y008535D01*
X020094Y008564D01*
X020041Y008597D01*
X019990Y008632D01*
X019941Y008671D01*
X019895Y008713D01*
X019851Y008757D01*
X019811Y008804D01*
X019773Y008853D01*
X019738Y008905D01*
X019706Y008959D01*
X019678Y009014D01*
X019653Y009071D01*
X019632Y009130D01*
X019614Y009189D01*
X019600Y009250D01*
X018600Y009250D02*
X018586Y009189D01*
X018568Y009130D01*
X018547Y009071D01*
X018522Y009014D01*
X018494Y008959D01*
X018462Y008905D01*
X018427Y008853D01*
X018389Y008804D01*
X018349Y008757D01*
X018305Y008713D01*
X018259Y008671D01*
X018210Y008632D01*
X018159Y008597D01*
X018106Y008564D01*
X018051Y008535D01*
X017994Y008509D01*
X017936Y008487D01*
X017877Y008468D01*
X017816Y008453D01*
X017755Y008442D01*
X017693Y008434D01*
X017631Y008430D01*
X017569Y008430D01*
X017507Y008434D01*
X017445Y008442D01*
X017384Y008453D01*
X017323Y008468D01*
X017264Y008487D01*
X017206Y008509D01*
X017149Y008535D01*
X017094Y008564D01*
X017041Y008597D01*
X016990Y008632D01*
X016941Y008671D01*
X016895Y008713D01*
X016851Y008757D01*
X016811Y008804D01*
X016773Y008853D01*
X016738Y008905D01*
X016706Y008959D01*
X016678Y009014D01*
X016653Y009071D01*
X016632Y009130D01*
X016614Y009189D01*
X016600Y009250D01*
X015600Y009250D02*
X015586Y009189D01*
X015568Y009130D01*
X015547Y009071D01*
X015522Y009014D01*
X015494Y008959D01*
X015462Y008905D01*
X015427Y008853D01*
X015389Y008804D01*
X015349Y008757D01*
X015305Y008713D01*
X015259Y008671D01*
X015210Y008632D01*
X015159Y008597D01*
X015106Y008564D01*
X015051Y008535D01*
X014994Y008509D01*
X014936Y008487D01*
X014877Y008468D01*
X014816Y008453D01*
X014755Y008442D01*
X014693Y008434D01*
X014631Y008430D01*
X014569Y008430D01*
X014507Y008434D01*
X014445Y008442D01*
X014384Y008453D01*
X014323Y008468D01*
X014264Y008487D01*
X014206Y008509D01*
X014149Y008535D01*
X014094Y008564D01*
X014041Y008597D01*
X013990Y008632D01*
X013941Y008671D01*
X013895Y008713D01*
X013851Y008757D01*
X013811Y008804D01*
X013773Y008853D01*
X013738Y008905D01*
X013706Y008959D01*
X013678Y009014D01*
X013653Y009071D01*
X013632Y009130D01*
X013614Y009189D01*
X013600Y009250D01*
X012600Y009250D02*
X012586Y009189D01*
X012568Y009130D01*
X012547Y009071D01*
X012522Y009014D01*
X012494Y008959D01*
X012462Y008905D01*
X012427Y008853D01*
X012389Y008804D01*
X012349Y008757D01*
X012305Y008713D01*
X012259Y008671D01*
X012210Y008632D01*
X012159Y008597D01*
X012106Y008564D01*
X012051Y008535D01*
X011994Y008509D01*
X011936Y008487D01*
X011877Y008468D01*
X011816Y008453D01*
X011755Y008442D01*
X011693Y008434D01*
X011631Y008430D01*
X011569Y008430D01*
X011507Y008434D01*
X011445Y008442D01*
X011384Y008453D01*
X011323Y008468D01*
X011264Y008487D01*
X011206Y008509D01*
X011149Y008535D01*
X011094Y008564D01*
X011041Y008597D01*
X010990Y008632D01*
X010941Y008671D01*
X010895Y008713D01*
X010851Y008757D01*
X010811Y008804D01*
X010773Y008853D01*
X010738Y008905D01*
X010706Y008959D01*
X010678Y009014D01*
X010653Y009071D01*
X010632Y009130D01*
X010614Y009189D01*
X010600Y009250D01*
X008850Y009500D02*
X008850Y010100D01*
X006850Y010100D01*
X006850Y009500D01*
X006864Y009439D01*
X006882Y009380D01*
X006903Y009321D01*
X006928Y009264D01*
X006956Y009209D01*
X006988Y009155D01*
X007023Y009103D01*
X007061Y009054D01*
X007101Y009007D01*
X007145Y008963D01*
X007191Y008921D01*
X007240Y008882D01*
X007291Y008847D01*
X007344Y008814D01*
X007399Y008785D01*
X007456Y008759D01*
X007514Y008737D01*
X007573Y008718D01*
X007634Y008703D01*
X007695Y008692D01*
X007757Y008684D01*
X007819Y008680D01*
X007881Y008680D01*
X007943Y008684D01*
X008005Y008692D01*
X008066Y008703D01*
X008127Y008718D01*
X008186Y008737D01*
X008244Y008759D01*
X008301Y008785D01*
X008356Y008814D01*
X008409Y008847D01*
X008460Y008882D01*
X008509Y008921D01*
X008555Y008963D01*
X008599Y009007D01*
X008639Y009054D01*
X008677Y009103D01*
X008712Y009155D01*
X008744Y009209D01*
X008772Y009264D01*
X008797Y009321D01*
X008818Y009380D01*
X008836Y009439D01*
X008850Y009500D01*
X008850Y008600D02*
X006850Y008600D01*
X006850Y008000D01*
X006864Y007939D01*
X006882Y007880D01*
X006903Y007821D01*
X006928Y007764D01*
X006956Y007709D01*
X006988Y007655D01*
X007023Y007603D01*
X007061Y007554D01*
X007101Y007507D01*
X007145Y007463D01*
X007191Y007421D01*
X007240Y007382D01*
X007291Y007347D01*
X007344Y007314D01*
X007399Y007285D01*
X007456Y007259D01*
X007514Y007237D01*
X007573Y007218D01*
X007634Y007203D01*
X007695Y007192D01*
X007757Y007184D01*
X007819Y007180D01*
X007881Y007180D01*
X007943Y007184D01*
X008005Y007192D01*
X008066Y007203D01*
X008127Y007218D01*
X008186Y007237D01*
X008244Y007259D01*
X008301Y007285D01*
X008356Y007314D01*
X008409Y007347D01*
X008460Y007382D01*
X008509Y007421D01*
X008555Y007463D01*
X008599Y007507D01*
X008639Y007554D01*
X008677Y007603D01*
X008712Y007655D01*
X008744Y007709D01*
X008772Y007764D01*
X008797Y007821D01*
X008818Y007880D01*
X008836Y007939D01*
X008850Y008000D01*
X008850Y008600D01*
X010700Y008600D02*
X010761Y008586D01*
X010820Y008568D01*
X010879Y008547D01*
X010936Y008522D01*
X010991Y008494D01*
X011045Y008462D01*
X011097Y008427D01*
X011146Y008389D01*
X011193Y008349D01*
X011237Y008305D01*
X011279Y008259D01*
X011318Y008210D01*
X011353Y008159D01*
X011386Y008106D01*
X011415Y008051D01*
X011441Y007994D01*
X011463Y007936D01*
X011482Y007877D01*
X011497Y007816D01*
X011508Y007755D01*
X011516Y007693D01*
X011520Y007631D01*
X011520Y007569D01*
X011516Y007507D01*
X011508Y007445D01*
X011497Y007384D01*
X011482Y007323D01*
X011463Y007264D01*
X011441Y007206D01*
X011415Y007149D01*
X011386Y007094D01*
X011353Y007041D01*
X011318Y006990D01*
X011279Y006941D01*
X011237Y006895D01*
X011193Y006851D01*
X011146Y006811D01*
X011097Y006773D01*
X011045Y006738D01*
X010991Y006706D01*
X010936Y006678D01*
X010879Y006653D01*
X010820Y006632D01*
X010761Y006614D01*
X010700Y006600D01*
X008850Y006500D02*
X008850Y007100D01*
X006850Y007100D01*
X006850Y006500D01*
X006864Y006439D01*
X006882Y006380D01*
X006903Y006321D01*
X006928Y006264D01*
X006956Y006209D01*
X006988Y006155D01*
X007023Y006103D01*
X007061Y006054D01*
X007101Y006007D01*
X007145Y005963D01*
X007191Y005921D01*
X007240Y005882D01*
X007291Y005847D01*
X007344Y005814D01*
X007399Y005785D01*
X007456Y005759D01*
X007514Y005737D01*
X007573Y005718D01*
X007634Y005703D01*
X007695Y005692D01*
X007757Y005684D01*
X007819Y005680D01*
X007881Y005680D01*
X007943Y005684D01*
X008005Y005692D01*
X008066Y005703D01*
X008127Y005718D01*
X008186Y005737D01*
X008244Y005759D01*
X008301Y005785D01*
X008356Y005814D01*
X008409Y005847D01*
X008460Y005882D01*
X008509Y005921D01*
X008555Y005963D01*
X008599Y006007D01*
X008639Y006054D01*
X008677Y006103D01*
X008712Y006155D01*
X008744Y006209D01*
X008772Y006264D01*
X008797Y006321D01*
X008818Y006380D01*
X008836Y006439D01*
X008850Y006500D01*
X008850Y005600D02*
X006850Y005600D01*
X006850Y005000D01*
X006864Y004939D01*
X006882Y004880D01*
X006903Y004821D01*
X006928Y004764D01*
X006956Y004709D01*
X006988Y004655D01*
X007023Y004603D01*
X007061Y004554D01*
X007101Y004507D01*
X007145Y004463D01*
X007191Y004421D01*
X007240Y004382D01*
X007291Y004347D01*
X007344Y004314D01*
X007399Y004285D01*
X007456Y004259D01*
X007514Y004237D01*
X007573Y004218D01*
X007634Y004203D01*
X007695Y004192D01*
X007757Y004184D01*
X007819Y004180D01*
X007881Y004180D01*
X007943Y004184D01*
X008005Y004192D01*
X008066Y004203D01*
X008127Y004218D01*
X008186Y004237D01*
X008244Y004259D01*
X008301Y004285D01*
X008356Y004314D01*
X008409Y004347D01*
X008460Y004382D01*
X008509Y004421D01*
X008555Y004463D01*
X008599Y004507D01*
X008639Y004554D01*
X008677Y004603D01*
X008712Y004655D01*
X008744Y004709D01*
X008772Y004764D01*
X008797Y004821D01*
X008818Y004880D01*
X008836Y004939D01*
X008850Y005000D01*
X008850Y005600D01*
X010700Y004600D02*
X010761Y004614D01*
X010820Y004632D01*
X010879Y004653D01*
X010936Y004678D01*
X010991Y004706D01*
X011045Y004738D01*
X011097Y004773D01*
X011146Y004811D01*
X011193Y004851D01*
X011237Y004895D01*
X011279Y004941D01*
X011318Y004990D01*
X011353Y005041D01*
X011386Y005094D01*
X011415Y005149D01*
X011441Y005206D01*
X011463Y005264D01*
X011482Y005323D01*
X011497Y005384D01*
X011508Y005445D01*
X011516Y005507D01*
X011520Y005569D01*
X011520Y005631D01*
X011516Y005693D01*
X011508Y005755D01*
X011497Y005816D01*
X011482Y005877D01*
X011463Y005936D01*
X011441Y005994D01*
X011415Y006051D01*
X011386Y006106D01*
X011353Y006159D01*
X011318Y006210D01*
X011279Y006259D01*
X011237Y006305D01*
X011193Y006349D01*
X011146Y006389D01*
X011097Y006427D01*
X011045Y006462D01*
X010991Y006494D01*
X010936Y006522D01*
X010879Y006547D01*
X010820Y006568D01*
X010761Y006586D01*
X010700Y006600D01*
X012500Y006600D02*
X012439Y006586D01*
X012380Y006568D01*
X012321Y006547D01*
X012264Y006522D01*
X012209Y006494D01*
X012155Y006462D01*
X012103Y006427D01*
X012054Y006389D01*
X012007Y006349D01*
X011963Y006305D01*
X011921Y006259D01*
X011882Y006210D01*
X011847Y006159D01*
X011814Y006106D01*
X011785Y006051D01*
X011759Y005994D01*
X011737Y005936D01*
X011718Y005877D01*
X011703Y005816D01*
X011692Y005755D01*
X011684Y005693D01*
X011680Y005631D01*
X011680Y005569D01*
X011684Y005507D01*
X011692Y005445D01*
X011703Y005384D01*
X011718Y005323D01*
X011737Y005264D01*
X011759Y005206D01*
X011785Y005149D01*
X011814Y005094D01*
X011847Y005041D01*
X011882Y004990D01*
X011921Y004941D01*
X011963Y004895D01*
X012007Y004851D01*
X012054Y004811D01*
X012103Y004773D01*
X012155Y004738D01*
X012209Y004706D01*
X012264Y004678D01*
X012321Y004653D01*
X012380Y004632D01*
X012439Y004614D01*
X012500Y004600D01*
X013700Y004600D02*
X013761Y004614D01*
X013820Y004632D01*
X013879Y004653D01*
X013936Y004678D01*
X013991Y004706D01*
X014045Y004738D01*
X014097Y004773D01*
X014146Y004811D01*
X014193Y004851D01*
X014237Y004895D01*
X014279Y004941D01*
X014318Y004990D01*
X014353Y005041D01*
X014386Y005094D01*
X014415Y005149D01*
X014441Y005206D01*
X014463Y005264D01*
X014482Y005323D01*
X014497Y005384D01*
X014508Y005445D01*
X014516Y005507D01*
X014520Y005569D01*
X014520Y005631D01*
X014516Y005693D01*
X014508Y005755D01*
X014497Y005816D01*
X014482Y005877D01*
X014463Y005936D01*
X014441Y005994D01*
X014415Y006051D01*
X014386Y006106D01*
X014353Y006159D01*
X014318Y006210D01*
X014279Y006259D01*
X014237Y006305D01*
X014193Y006349D01*
X014146Y006389D01*
X014097Y006427D01*
X014045Y006462D01*
X013991Y006494D01*
X013936Y006522D01*
X013879Y006547D01*
X013820Y006568D01*
X013761Y006586D01*
X013700Y006600D01*
X013761Y006614D01*
X013820Y006632D01*
X013879Y006653D01*
X013936Y006678D01*
X013991Y006706D01*
X014045Y006738D01*
X014097Y006773D01*
X014146Y006811D01*
X014193Y006851D01*
X014237Y006895D01*
X014279Y006941D01*
X014318Y006990D01*
X014353Y007041D01*
X014386Y007094D01*
X014415Y007149D01*
X014441Y007206D01*
X014463Y007264D01*
X014482Y007323D01*
X014497Y007384D01*
X014508Y007445D01*
X014516Y007507D01*
X014520Y007569D01*
X014520Y007631D01*
X014516Y007693D01*
X014508Y007755D01*
X014497Y007816D01*
X014482Y007877D01*
X014463Y007936D01*
X014441Y007994D01*
X014415Y008051D01*
X014386Y008106D01*
X014353Y008159D01*
X014318Y008210D01*
X014279Y008259D01*
X014237Y008305D01*
X014193Y008349D01*
X014146Y008389D01*
X014097Y008427D01*
X014045Y008462D01*
X013991Y008494D01*
X013936Y008522D01*
X013879Y008547D01*
X013820Y008568D01*
X013761Y008586D01*
X013700Y008600D01*
X012500Y008600D02*
X012439Y008586D01*
X012380Y008568D01*
X012321Y008547D01*
X012264Y008522D01*
X012209Y008494D01*
X012155Y008462D01*
X012103Y008427D01*
X012054Y008389D01*
X012007Y008349D01*
X011963Y008305D01*
X011921Y008259D01*
X011882Y008210D01*
X011847Y008159D01*
X011814Y008106D01*
X011785Y008051D01*
X011759Y007994D01*
X011737Y007936D01*
X011718Y007877D01*
X011703Y007816D01*
X011692Y007755D01*
X011684Y007693D01*
X011680Y007631D01*
X011680Y007569D01*
X011684Y007507D01*
X011692Y007445D01*
X011703Y007384D01*
X011718Y007323D01*
X011737Y007264D01*
X011759Y007206D01*
X011785Y007149D01*
X011814Y007094D01*
X011847Y007041D01*
X011882Y006990D01*
X011921Y006941D01*
X011963Y006895D01*
X012007Y006851D01*
X012054Y006811D01*
X012103Y006773D01*
X012155Y006738D01*
X012209Y006706D01*
X012264Y006678D01*
X012321Y006653D01*
X012380Y006632D01*
X012439Y006614D01*
X012500Y006600D01*
X015500Y006600D02*
X015439Y006586D01*
X015380Y006568D01*
X015321Y006547D01*
X015264Y006522D01*
X015209Y006494D01*
X015155Y006462D01*
X015103Y006427D01*
X015054Y006389D01*
X015007Y006349D01*
X014963Y006305D01*
X014921Y006259D01*
X014882Y006210D01*
X014847Y006159D01*
X014814Y006106D01*
X014785Y006051D01*
X014759Y005994D01*
X014737Y005936D01*
X014718Y005877D01*
X014703Y005816D01*
X014692Y005755D01*
X014684Y005693D01*
X014680Y005631D01*
X014680Y005569D01*
X014684Y005507D01*
X014692Y005445D01*
X014703Y005384D01*
X014718Y005323D01*
X014737Y005264D01*
X014759Y005206D01*
X014785Y005149D01*
X014814Y005094D01*
X014847Y005041D01*
X014882Y004990D01*
X014921Y004941D01*
X014963Y004895D01*
X015007Y004851D01*
X015054Y004811D01*
X015103Y004773D01*
X015155Y004738D01*
X015209Y004706D01*
X015264Y004678D01*
X015321Y004653D01*
X015380Y004632D01*
X015439Y004614D01*
X015500Y004600D01*
X016700Y004600D02*
X016761Y004614D01*
X016820Y004632D01*
X016879Y004653D01*
X016936Y004678D01*
X016991Y004706D01*
X017045Y004738D01*
X017097Y004773D01*
X017146Y004811D01*
X017193Y004851D01*
X017237Y004895D01*
X017279Y004941D01*
X017318Y004990D01*
X017353Y005041D01*
X017386Y005094D01*
X017415Y005149D01*
X017441Y005206D01*
X017463Y005264D01*
X017482Y005323D01*
X017497Y005384D01*
X017508Y005445D01*
X017516Y005507D01*
X017520Y005569D01*
X017520Y005631D01*
X017516Y005693D01*
X017508Y005755D01*
X017497Y005816D01*
X017482Y005877D01*
X017463Y005936D01*
X017441Y005994D01*
X017415Y006051D01*
X017386Y006106D01*
X017353Y006159D01*
X017318Y006210D01*
X017279Y006259D01*
X017237Y006305D01*
X017193Y006349D01*
X017146Y006389D01*
X017097Y006427D01*
X017045Y006462D01*
X016991Y006494D01*
X016936Y006522D01*
X016879Y006547D01*
X016820Y006568D01*
X016761Y006586D01*
X016700Y006600D01*
X016761Y006614D01*
X016820Y006632D01*
X016879Y006653D01*
X016936Y006678D01*
X016991Y006706D01*
X017045Y006738D01*
X017097Y006773D01*
X017146Y006811D01*
X017193Y006851D01*
X017237Y006895D01*
X017279Y006941D01*
X017318Y006990D01*
X017353Y007041D01*
X017386Y007094D01*
X017415Y007149D01*
X017441Y007206D01*
X017463Y007264D01*
X017482Y007323D01*
X017497Y007384D01*
X017508Y007445D01*
X017516Y007507D01*
X017520Y007569D01*
X017520Y007631D01*
X017516Y007693D01*
X017508Y007755D01*
X017497Y007816D01*
X017482Y007877D01*
X017463Y007936D01*
X017441Y007994D01*
X017415Y008051D01*
X017386Y008106D01*
X017353Y008159D01*
X017318Y008210D01*
X017279Y008259D01*
X017237Y008305D01*
X017193Y008349D01*
X017146Y008389D01*
X017097Y008427D01*
X017045Y008462D01*
X016991Y008494D01*
X016936Y008522D01*
X016879Y008547D01*
X016820Y008568D01*
X016761Y008586D01*
X016700Y008600D01*
X015500Y008600D02*
X015439Y008586D01*
X015380Y008568D01*
X015321Y008547D01*
X015264Y008522D01*
X015209Y008494D01*
X015155Y008462D01*
X015103Y008427D01*
X015054Y008389D01*
X015007Y008349D01*
X014963Y008305D01*
X014921Y008259D01*
X014882Y008210D01*
X014847Y008159D01*
X014814Y008106D01*
X014785Y008051D01*
X014759Y007994D01*
X014737Y007936D01*
X014718Y007877D01*
X014703Y007816D01*
X014692Y007755D01*
X014684Y007693D01*
X014680Y007631D01*
X014680Y007569D01*
X014684Y007507D01*
X014692Y007445D01*
X014703Y007384D01*
X014718Y007323D01*
X014737Y007264D01*
X014759Y007206D01*
X014785Y007149D01*
X014814Y007094D01*
X014847Y007041D01*
X014882Y006990D01*
X014921Y006941D01*
X014963Y006895D01*
X015007Y006851D01*
X015054Y006811D01*
X015103Y006773D01*
X015155Y006738D01*
X015209Y006706D01*
X015264Y006678D01*
X015321Y006653D01*
X015380Y006632D01*
X015439Y006614D01*
X015500Y006600D01*
X018500Y006600D02*
X018439Y006586D01*
X018380Y006568D01*
X018321Y006547D01*
X018264Y006522D01*
X018209Y006494D01*
X018155Y006462D01*
X018103Y006427D01*
X018054Y006389D01*
X018007Y006349D01*
X017963Y006305D01*
X017921Y006259D01*
X017882Y006210D01*
X017847Y006159D01*
X017814Y006106D01*
X017785Y006051D01*
X017759Y005994D01*
X017737Y005936D01*
X017718Y005877D01*
X017703Y005816D01*
X017692Y005755D01*
X017684Y005693D01*
X017680Y005631D01*
X017680Y005569D01*
X017684Y005507D01*
X017692Y005445D01*
X017703Y005384D01*
X017718Y005323D01*
X017737Y005264D01*
X017759Y005206D01*
X017785Y005149D01*
X017814Y005094D01*
X017847Y005041D01*
X017882Y004990D01*
X017921Y004941D01*
X017963Y004895D01*
X018007Y004851D01*
X018054Y004811D01*
X018103Y004773D01*
X018155Y004738D01*
X018209Y004706D01*
X018264Y004678D01*
X018321Y004653D01*
X018380Y004632D01*
X018439Y004614D01*
X018500Y004600D01*
X019700Y004600D02*
X019761Y004614D01*
X019820Y004632D01*
X019879Y004653D01*
X019936Y004678D01*
X019991Y004706D01*
X020045Y004738D01*
X020097Y004773D01*
X020146Y004811D01*
X020193Y004851D01*
X020237Y004895D01*
X020279Y004941D01*
X020318Y004990D01*
X020353Y005041D01*
X020386Y005094D01*
X020415Y005149D01*
X020441Y005206D01*
X020463Y005264D01*
X020482Y005323D01*
X020497Y005384D01*
X020508Y005445D01*
X020516Y005507D01*
X020520Y005569D01*
X020520Y005631D01*
X020516Y005693D01*
X020508Y005755D01*
X020497Y005816D01*
X020482Y005877D01*
X020463Y005936D01*
X020441Y005994D01*
X020415Y006051D01*
X020386Y006106D01*
X020353Y006159D01*
X020318Y006210D01*
X020279Y006259D01*
X020237Y006305D01*
X020193Y006349D01*
X020146Y006389D01*
X020097Y006427D01*
X020045Y006462D01*
X019991Y006494D01*
X019936Y006522D01*
X019879Y006547D01*
X019820Y006568D01*
X019761Y006586D01*
X019700Y006600D01*
X019761Y006614D01*
X019820Y006632D01*
X019879Y006653D01*
X019936Y006678D01*
X019991Y006706D01*
X020045Y006738D01*
X020097Y006773D01*
X020146Y006811D01*
X020193Y006851D01*
X020237Y006895D01*
X020279Y006941D01*
X020318Y006990D01*
X020353Y007041D01*
X020386Y007094D01*
X020415Y007149D01*
X020441Y007206D01*
X020463Y007264D01*
X020482Y007323D01*
X020497Y007384D01*
X020508Y007445D01*
X020516Y007507D01*
X020520Y007569D01*
X020520Y007631D01*
X020516Y007693D01*
X020508Y007755D01*
X020497Y007816D01*
X020482Y007877D01*
X020463Y007936D01*
X020441Y007994D01*
X020415Y008051D01*
X020386Y008106D01*
X020353Y008159D01*
X020318Y008210D01*
X020279Y008259D01*
X020237Y008305D01*
X020193Y008349D01*
X020146Y008389D01*
X020097Y008427D01*
X020045Y008462D01*
X019991Y008494D01*
X019936Y008522D01*
X019879Y008547D01*
X019820Y008568D01*
X019761Y008586D01*
X019700Y008600D01*
X022600Y009250D02*
X022600Y009850D01*
X024600Y009850D01*
X024600Y009250D01*
X024586Y009189D01*
X024568Y009130D01*
X024547Y009071D01*
X024522Y009014D01*
X024494Y008959D01*
X024462Y008905D01*
X024427Y008853D01*
X024389Y008804D01*
X024349Y008757D01*
X024305Y008713D01*
X024259Y008671D01*
X024210Y008632D01*
X024159Y008597D01*
X024106Y008564D01*
X024051Y008535D01*
X023994Y008509D01*
X023936Y008487D01*
X023877Y008468D01*
X023816Y008453D01*
X023755Y008442D01*
X023693Y008434D01*
X023631Y008430D01*
X023569Y008430D01*
X023507Y008434D01*
X023445Y008442D01*
X023384Y008453D01*
X023323Y008468D01*
X023264Y008487D01*
X023206Y008509D01*
X023149Y008535D01*
X023094Y008564D01*
X023041Y008597D01*
X022990Y008632D01*
X022941Y008671D01*
X022895Y008713D01*
X022851Y008757D01*
X022811Y008804D01*
X022773Y008853D01*
X022738Y008905D01*
X022706Y008959D01*
X022678Y009014D01*
X022653Y009071D01*
X022632Y009130D01*
X022614Y009189D01*
X022600Y009250D01*
X025600Y009250D02*
X025600Y009850D01*
X027600Y009850D01*
X027600Y009250D01*
X027586Y009189D01*
X027568Y009130D01*
X027547Y009071D01*
X027522Y009014D01*
X027494Y008959D01*
X027462Y008905D01*
X027427Y008853D01*
X027389Y008804D01*
X027349Y008757D01*
X027305Y008713D01*
X027259Y008671D01*
X027210Y008632D01*
X027159Y008597D01*
X027106Y008564D01*
X027051Y008535D01*
X026994Y008509D01*
X026936Y008487D01*
X026877Y008468D01*
X026816Y008453D01*
X026755Y008442D01*
X026693Y008434D01*
X026631Y008430D01*
X026569Y008430D01*
X026507Y008434D01*
X026445Y008442D01*
X026384Y008453D01*
X026323Y008468D01*
X026264Y008487D01*
X026206Y008509D01*
X026149Y008535D01*
X026094Y008564D01*
X026041Y008597D01*
X025990Y008632D01*
X025941Y008671D01*
X025895Y008713D01*
X025851Y008757D01*
X025811Y008804D01*
X025773Y008853D01*
X025738Y008905D01*
X025706Y008959D01*
X025678Y009014D01*
X025653Y009071D01*
X025632Y009130D01*
X025614Y009189D01*
X025600Y009250D01*
X028600Y009250D02*
X028600Y009850D01*
X030600Y009850D01*
X030600Y009250D01*
X031600Y009250D02*
X031600Y009850D01*
X033600Y009850D01*
X033600Y009250D01*
X034600Y009250D02*
X034600Y009850D01*
X036600Y009850D01*
X036600Y009250D01*
X037600Y009250D02*
X037600Y009850D01*
X039600Y009850D01*
X039600Y009250D01*
X040600Y009250D02*
X040600Y009850D01*
X042600Y009850D01*
X042600Y009250D01*
X042586Y009189D01*
X042568Y009130D01*
X042547Y009071D01*
X042522Y009014D01*
X042494Y008959D01*
X042462Y008905D01*
X042427Y008853D01*
X042389Y008804D01*
X042349Y008757D01*
X042305Y008713D01*
X042259Y008671D01*
X042210Y008632D01*
X042159Y008597D01*
X042106Y008564D01*
X042051Y008535D01*
X041994Y008509D01*
X041936Y008487D01*
X041877Y008468D01*
X041816Y008453D01*
X041755Y008442D01*
X041693Y008434D01*
X041631Y008430D01*
X041569Y008430D01*
X041507Y008434D01*
X041445Y008442D01*
X041384Y008453D01*
X041323Y008468D01*
X041264Y008487D01*
X041206Y008509D01*
X041149Y008535D01*
X041094Y008564D01*
X041041Y008597D01*
X040990Y008632D01*
X040941Y008671D01*
X040895Y008713D01*
X040851Y008757D01*
X040811Y008804D01*
X040773Y008853D01*
X040738Y008905D01*
X040706Y008959D01*
X040678Y009014D01*
X040653Y009071D01*
X040632Y009130D01*
X040614Y009189D01*
X040600Y009250D01*
X042500Y008600D02*
X043100Y008600D01*
X043700Y008600D01*
X043100Y008600D02*
X043100Y006600D01*
X043700Y006600D01*
X043100Y006600D01*
X043100Y004600D01*
X043700Y004600D01*
X043100Y004600D02*
X042500Y004600D01*
X043100Y004600D02*
X043100Y006600D01*
X042500Y006600D01*
X043100Y006600D01*
X043100Y008600D01*
X043600Y009250D02*
X043600Y009850D01*
X045600Y009850D01*
X045600Y009250D01*
X045586Y009189D01*
X045568Y009130D01*
X045547Y009071D01*
X045522Y009014D01*
X045494Y008959D01*
X045462Y008905D01*
X045427Y008853D01*
X045389Y008804D01*
X045349Y008757D01*
X045305Y008713D01*
X045259Y008671D01*
X045210Y008632D01*
X045159Y008597D01*
X045106Y008564D01*
X045051Y008535D01*
X044994Y008509D01*
X044936Y008487D01*
X044877Y008468D01*
X044816Y008453D01*
X044755Y008442D01*
X044693Y008434D01*
X044631Y008430D01*
X044569Y008430D01*
X044507Y008434D01*
X044445Y008442D01*
X044384Y008453D01*
X044323Y008468D01*
X044264Y008487D01*
X044206Y008509D01*
X044149Y008535D01*
X044094Y008564D01*
X044041Y008597D01*
X043990Y008632D01*
X043941Y008671D01*
X043895Y008713D01*
X043851Y008757D01*
X043811Y008804D01*
X043773Y008853D01*
X043738Y008905D01*
X043706Y008959D01*
X043678Y009014D01*
X043653Y009071D01*
X043632Y009130D01*
X043614Y009189D01*
X043600Y009250D01*
X045500Y008600D02*
X046100Y008600D01*
X046700Y008600D01*
X046100Y008600D02*
X046100Y006600D01*
X046700Y006600D01*
X046100Y006600D01*
X046100Y004600D01*
X046700Y004600D01*
X046100Y004600D02*
X045500Y004600D01*
X046100Y004600D02*
X046100Y006600D01*
X045500Y006600D01*
X046100Y006600D01*
X046100Y008600D01*
X046600Y009250D02*
X046600Y009850D01*
X048600Y009850D01*
X048600Y009250D01*
X048586Y009189D01*
X048568Y009130D01*
X048547Y009071D01*
X048522Y009014D01*
X048494Y008959D01*
X048462Y008905D01*
X048427Y008853D01*
X048389Y008804D01*
X048349Y008757D01*
X048305Y008713D01*
X048259Y008671D01*
X048210Y008632D01*
X048159Y008597D01*
X048106Y008564D01*
X048051Y008535D01*
X047994Y008509D01*
X047936Y008487D01*
X047877Y008468D01*
X047816Y008453D01*
X047755Y008442D01*
X047693Y008434D01*
X047631Y008430D01*
X047569Y008430D01*
X047507Y008434D01*
X047445Y008442D01*
X047384Y008453D01*
X047323Y008468D01*
X047264Y008487D01*
X047206Y008509D01*
X047149Y008535D01*
X047094Y008564D01*
X047041Y008597D01*
X046990Y008632D01*
X046941Y008671D01*
X046895Y008713D01*
X046851Y008757D01*
X046811Y008804D01*
X046773Y008853D01*
X046738Y008905D01*
X046706Y008959D01*
X046678Y009014D01*
X046653Y009071D01*
X046632Y009130D01*
X046614Y009189D01*
X046600Y009250D01*
X048500Y008600D02*
X049100Y008600D01*
X049700Y008600D01*
X049100Y008600D02*
X049100Y006600D01*
X049700Y006600D01*
X049100Y006600D01*
X049100Y004600D01*
X049700Y004600D01*
X049100Y004600D02*
X048500Y004600D01*
X049100Y004600D02*
X049100Y006600D01*
X048500Y006600D01*
X049100Y006600D01*
X049100Y008600D01*
X049600Y009250D02*
X049600Y009850D01*
X051600Y009850D01*
X051600Y009250D01*
X052600Y009250D02*
X052600Y009850D01*
X054600Y009850D01*
X054600Y009250D01*
X055600Y009250D02*
X055600Y009850D01*
X057600Y009850D01*
X057600Y009250D01*
X057586Y009189D01*
X057568Y009130D01*
X057547Y009071D01*
X057522Y009014D01*
X057494Y008959D01*
X057462Y008905D01*
X057427Y008853D01*
X057389Y008804D01*
X057349Y008757D01*
X057305Y008713D01*
X057259Y008671D01*
X057210Y008632D01*
X057159Y008597D01*
X057106Y008564D01*
X057051Y008535D01*
X056994Y008509D01*
X056936Y008487D01*
X056877Y008468D01*
X056816Y008453D01*
X056755Y008442D01*
X056693Y008434D01*
X056631Y008430D01*
X056569Y008430D01*
X056507Y008434D01*
X056445Y008442D01*
X056384Y008453D01*
X056323Y008468D01*
X056264Y008487D01*
X056206Y008509D01*
X056149Y008535D01*
X056094Y008564D01*
X056041Y008597D01*
X055990Y008632D01*
X055941Y008671D01*
X055895Y008713D01*
X055851Y008757D01*
X055811Y008804D01*
X055773Y008853D01*
X055738Y008905D01*
X055706Y008959D01*
X055678Y009014D01*
X055653Y009071D01*
X055632Y009130D01*
X055614Y009189D01*
X055600Y009250D01*
X055700Y008600D02*
X055100Y008600D01*
X055100Y006600D01*
X055700Y006600D01*
X055100Y006600D01*
X055100Y004600D01*
X055700Y004600D01*
X055100Y004600D02*
X054500Y004600D01*
X055100Y004600D02*
X055100Y006600D01*
X054500Y006600D01*
X055100Y006600D01*
X055100Y008600D01*
X054500Y008600D01*
X052700Y008600D02*
X052100Y008600D01*
X052100Y006600D01*
X052700Y006600D01*
X052100Y006600D01*
X052100Y004600D01*
X052700Y004600D01*
X052100Y004600D02*
X051500Y004600D01*
X052100Y004600D02*
X052100Y006600D01*
X051500Y006600D01*
X052100Y006600D01*
X052100Y008600D01*
X051500Y008600D01*
X051600Y009250D02*
X051586Y009189D01*
X051568Y009130D01*
X051547Y009071D01*
X051522Y009014D01*
X051494Y008959D01*
X051462Y008905D01*
X051427Y008853D01*
X051389Y008804D01*
X051349Y008757D01*
X051305Y008713D01*
X051259Y008671D01*
X051210Y008632D01*
X051159Y008597D01*
X051106Y008564D01*
X051051Y008535D01*
X050994Y008509D01*
X050936Y008487D01*
X050877Y008468D01*
X050816Y008453D01*
X050755Y008442D01*
X050693Y008434D01*
X050631Y008430D01*
X050569Y008430D01*
X050507Y008434D01*
X050445Y008442D01*
X050384Y008453D01*
X050323Y008468D01*
X050264Y008487D01*
X050206Y008509D01*
X050149Y008535D01*
X050094Y008564D01*
X050041Y008597D01*
X049990Y008632D01*
X049941Y008671D01*
X049895Y008713D01*
X049851Y008757D01*
X049811Y008804D01*
X049773Y008853D01*
X049738Y008905D01*
X049706Y008959D01*
X049678Y009014D01*
X049653Y009071D01*
X049632Y009130D01*
X049614Y009189D01*
X049600Y009250D01*
X052600Y009250D02*
X052614Y009189D01*
X052632Y009130D01*
X052653Y009071D01*
X052678Y009014D01*
X052706Y008959D01*
X052738Y008905D01*
X052773Y008853D01*
X052811Y008804D01*
X052851Y008757D01*
X052895Y008713D01*
X052941Y008671D01*
X052990Y008632D01*
X053041Y008597D01*
X053094Y008564D01*
X053149Y008535D01*
X053206Y008509D01*
X053264Y008487D01*
X053323Y008468D01*
X053384Y008453D01*
X053445Y008442D01*
X053507Y008434D01*
X053569Y008430D01*
X053631Y008430D01*
X053693Y008434D01*
X053755Y008442D01*
X053816Y008453D01*
X053877Y008468D01*
X053936Y008487D01*
X053994Y008509D01*
X054051Y008535D01*
X054106Y008564D01*
X054159Y008597D01*
X054210Y008632D01*
X054259Y008671D01*
X054305Y008713D01*
X054349Y008757D01*
X054389Y008804D01*
X054427Y008853D01*
X054462Y008905D01*
X054494Y008959D01*
X054522Y009014D01*
X054547Y009071D01*
X054568Y009130D01*
X054586Y009189D01*
X054600Y009250D01*
X057500Y008600D02*
X058100Y008600D01*
X058100Y006600D01*
X057500Y006600D01*
X058100Y006600D01*
X058100Y004600D01*
X057500Y004600D01*
X057439Y004614D01*
X057380Y004632D01*
X057321Y004653D01*
X057264Y004678D01*
X057209Y004706D01*
X057155Y004738D01*
X057103Y004773D01*
X057054Y004811D01*
X057007Y004851D01*
X056963Y004895D01*
X056921Y004941D01*
X056882Y004990D01*
X056847Y005041D01*
X056814Y005094D01*
X056785Y005149D01*
X056759Y005206D01*
X056737Y005264D01*
X056718Y005323D01*
X056703Y005384D01*
X056692Y005445D01*
X056684Y005507D01*
X056680Y005569D01*
X056680Y005631D01*
X056684Y005693D01*
X056692Y005755D01*
X056703Y005816D01*
X056718Y005877D01*
X056737Y005936D01*
X056759Y005994D01*
X056785Y006051D01*
X056814Y006106D01*
X056847Y006159D01*
X056882Y006210D01*
X056921Y006259D01*
X056963Y006305D01*
X057007Y006349D01*
X057054Y006389D01*
X057103Y006427D01*
X057155Y006462D01*
X057209Y006494D01*
X057264Y006522D01*
X057321Y006547D01*
X057380Y006568D01*
X057439Y006586D01*
X057500Y006600D01*
X057439Y006614D01*
X057380Y006632D01*
X057321Y006653D01*
X057264Y006678D01*
X057209Y006706D01*
X057155Y006738D01*
X057103Y006773D01*
X057054Y006811D01*
X057007Y006851D01*
X056963Y006895D01*
X056921Y006941D01*
X056882Y006990D01*
X056847Y007041D01*
X056814Y007094D01*
X056785Y007149D01*
X056759Y007206D01*
X056737Y007264D01*
X056718Y007323D01*
X056703Y007384D01*
X056692Y007445D01*
X056684Y007507D01*
X056680Y007569D01*
X056680Y007631D01*
X056684Y007693D01*
X056692Y007755D01*
X056703Y007816D01*
X056718Y007877D01*
X056737Y007936D01*
X056759Y007994D01*
X056785Y008051D01*
X056814Y008106D01*
X056847Y008159D01*
X056882Y008210D01*
X056921Y008259D01*
X056963Y008305D01*
X057007Y008349D01*
X057054Y008389D01*
X057103Y008427D01*
X057155Y008462D01*
X057209Y008494D01*
X057264Y008522D01*
X057321Y008547D01*
X057380Y008568D01*
X057439Y008586D01*
X057500Y008600D01*
X055700Y008600D02*
X055761Y008586D01*
X055820Y008568D01*
X055879Y008547D01*
X055936Y008522D01*
X055991Y008494D01*
X056045Y008462D01*
X056097Y008427D01*
X056146Y008389D01*
X056193Y008349D01*
X056237Y008305D01*
X056279Y008259D01*
X056318Y008210D01*
X056353Y008159D01*
X056386Y008106D01*
X056415Y008051D01*
X056441Y007994D01*
X056463Y007936D01*
X056482Y007877D01*
X056497Y007816D01*
X056508Y007755D01*
X056516Y007693D01*
X056520Y007631D01*
X056520Y007569D01*
X056516Y007507D01*
X056508Y007445D01*
X056497Y007384D01*
X056482Y007323D01*
X056463Y007264D01*
X056441Y007206D01*
X056415Y007149D01*
X056386Y007094D01*
X056353Y007041D01*
X056318Y006990D01*
X056279Y006941D01*
X056237Y006895D01*
X056193Y006851D01*
X056146Y006811D01*
X056097Y006773D01*
X056045Y006738D01*
X055991Y006706D01*
X055936Y006678D01*
X055879Y006653D01*
X055820Y006632D01*
X055761Y006614D01*
X055700Y006600D01*
X055761Y006586D01*
X055820Y006568D01*
X055879Y006547D01*
X055936Y006522D01*
X055991Y006494D01*
X056045Y006462D01*
X056097Y006427D01*
X056146Y006389D01*
X056193Y006349D01*
X056237Y006305D01*
X056279Y006259D01*
X056318Y006210D01*
X056353Y006159D01*
X056386Y006106D01*
X056415Y006051D01*
X056441Y005994D01*
X056463Y005936D01*
X056482Y005877D01*
X056497Y005816D01*
X056508Y005755D01*
X056516Y005693D01*
X056520Y005631D01*
X056520Y005569D01*
X056516Y005507D01*
X056508Y005445D01*
X056497Y005384D01*
X056482Y005323D01*
X056463Y005264D01*
X056441Y005206D01*
X056415Y005149D01*
X056386Y005094D01*
X056353Y005041D01*
X056318Y004990D01*
X056279Y004941D01*
X056237Y004895D01*
X056193Y004851D01*
X056146Y004811D01*
X056097Y004773D01*
X056045Y004738D01*
X055991Y004706D01*
X055936Y004678D01*
X055879Y004653D01*
X055820Y004632D01*
X055761Y004614D01*
X055700Y004600D01*
X054500Y004600D02*
X054439Y004614D01*
X054380Y004632D01*
X054321Y004653D01*
X054264Y004678D01*
X054209Y004706D01*
X054155Y004738D01*
X054103Y004773D01*
X054054Y004811D01*
X054007Y004851D01*
X053963Y004895D01*
X053921Y004941D01*
X053882Y004990D01*
X053847Y005041D01*
X053814Y005094D01*
X053785Y005149D01*
X053759Y005206D01*
X053737Y005264D01*
X053718Y005323D01*
X053703Y005384D01*
X053692Y005445D01*
X053684Y005507D01*
X053680Y005569D01*
X053680Y005631D01*
X053684Y005693D01*
X053692Y005755D01*
X053703Y005816D01*
X053718Y005877D01*
X053737Y005936D01*
X053759Y005994D01*
X053785Y006051D01*
X053814Y006106D01*
X053847Y006159D01*
X053882Y006210D01*
X053921Y006259D01*
X053963Y006305D01*
X054007Y006349D01*
X054054Y006389D01*
X054103Y006427D01*
X054155Y006462D01*
X054209Y006494D01*
X054264Y006522D01*
X054321Y006547D01*
X054380Y006568D01*
X054439Y006586D01*
X054500Y006600D01*
X054439Y006614D01*
X054380Y006632D01*
X054321Y006653D01*
X054264Y006678D01*
X054209Y006706D01*
X054155Y006738D01*
X054103Y006773D01*
X054054Y006811D01*
X054007Y006851D01*
X053963Y006895D01*
X053921Y006941D01*
X053882Y006990D01*
X053847Y007041D01*
X053814Y007094D01*
X053785Y007149D01*
X053759Y007206D01*
X053737Y007264D01*
X053718Y007323D01*
X053703Y007384D01*
X053692Y007445D01*
X053684Y007507D01*
X053680Y007569D01*
X053680Y007631D01*
X053684Y007693D01*
X053692Y007755D01*
X053703Y007816D01*
X053718Y007877D01*
X053737Y007936D01*
X053759Y007994D01*
X053785Y008051D01*
X053814Y008106D01*
X053847Y008159D01*
X053882Y008210D01*
X053921Y008259D01*
X053963Y008305D01*
X054007Y008349D01*
X054054Y008389D01*
X054103Y008427D01*
X054155Y008462D01*
X054209Y008494D01*
X054264Y008522D01*
X054321Y008547D01*
X054380Y008568D01*
X054439Y008586D01*
X054500Y008600D01*
X052700Y008600D02*
X052761Y008586D01*
X052820Y008568D01*
X052879Y008547D01*
X052936Y008522D01*
X052991Y008494D01*
X053045Y008462D01*
X053097Y008427D01*
X053146Y008389D01*
X053193Y008349D01*
X053237Y008305D01*
X053279Y008259D01*
X053318Y008210D01*
X053353Y008159D01*
X053386Y008106D01*
X053415Y008051D01*
X053441Y007994D01*
X053463Y007936D01*
X053482Y007877D01*
X053497Y007816D01*
X053508Y007755D01*
X053516Y007693D01*
X053520Y007631D01*
X053520Y007569D01*
X053516Y007507D01*
X053508Y007445D01*
X053497Y007384D01*
X053482Y007323D01*
X053463Y007264D01*
X053441Y007206D01*
X053415Y007149D01*
X053386Y007094D01*
X053353Y007041D01*
X053318Y006990D01*
X053279Y006941D01*
X053237Y006895D01*
X053193Y006851D01*
X053146Y006811D01*
X053097Y006773D01*
X053045Y006738D01*
X052991Y006706D01*
X052936Y006678D01*
X052879Y006653D01*
X052820Y006632D01*
X052761Y006614D01*
X052700Y006600D01*
X052761Y006586D01*
X052820Y006568D01*
X052879Y006547D01*
X052936Y006522D01*
X052991Y006494D01*
X053045Y006462D01*
X053097Y006427D01*
X053146Y006389D01*
X053193Y006349D01*
X053237Y006305D01*
X053279Y006259D01*
X053318Y006210D01*
X053353Y006159D01*
X053386Y006106D01*
X053415Y006051D01*
X053441Y005994D01*
X053463Y005936D01*
X053482Y005877D01*
X053497Y005816D01*
X053508Y005755D01*
X053516Y005693D01*
X053520Y005631D01*
X053520Y005569D01*
X053516Y005507D01*
X053508Y005445D01*
X053497Y005384D01*
X053482Y005323D01*
X053463Y005264D01*
X053441Y005206D01*
X053415Y005149D01*
X053386Y005094D01*
X053353Y005041D01*
X053318Y004990D01*
X053279Y004941D01*
X053237Y004895D01*
X053193Y004851D01*
X053146Y004811D01*
X053097Y004773D01*
X053045Y004738D01*
X052991Y004706D01*
X052936Y004678D01*
X052879Y004653D01*
X052820Y004632D01*
X052761Y004614D01*
X052700Y004600D01*
X051500Y004600D02*
X051439Y004614D01*
X051380Y004632D01*
X051321Y004653D01*
X051264Y004678D01*
X051209Y004706D01*
X051155Y004738D01*
X051103Y004773D01*
X051054Y004811D01*
X051007Y004851D01*
X050963Y004895D01*
X050921Y004941D01*
X050882Y004990D01*
X050847Y005041D01*
X050814Y005094D01*
X050785Y005149D01*
X050759Y005206D01*
X050737Y005264D01*
X050718Y005323D01*
X050703Y005384D01*
X050692Y005445D01*
X050684Y005507D01*
X050680Y005569D01*
X050680Y005631D01*
X050684Y005693D01*
X050692Y005755D01*
X050703Y005816D01*
X050718Y005877D01*
X050737Y005936D01*
X050759Y005994D01*
X050785Y006051D01*
X050814Y006106D01*
X050847Y006159D01*
X050882Y006210D01*
X050921Y006259D01*
X050963Y006305D01*
X051007Y006349D01*
X051054Y006389D01*
X051103Y006427D01*
X051155Y006462D01*
X051209Y006494D01*
X051264Y006522D01*
X051321Y006547D01*
X051380Y006568D01*
X051439Y006586D01*
X051500Y006600D01*
X051439Y006614D01*
X051380Y006632D01*
X051321Y006653D01*
X051264Y006678D01*
X051209Y006706D01*
X051155Y006738D01*
X051103Y006773D01*
X051054Y006811D01*
X051007Y006851D01*
X050963Y006895D01*
X050921Y006941D01*
X050882Y006990D01*
X050847Y007041D01*
X050814Y007094D01*
X050785Y007149D01*
X050759Y007206D01*
X050737Y007264D01*
X050718Y007323D01*
X050703Y007384D01*
X050692Y007445D01*
X050684Y007507D01*
X050680Y007569D01*
X050680Y007631D01*
X050684Y007693D01*
X050692Y007755D01*
X050703Y007816D01*
X050718Y007877D01*
X050737Y007936D01*
X050759Y007994D01*
X050785Y008051D01*
X050814Y008106D01*
X050847Y008159D01*
X050882Y008210D01*
X050921Y008259D01*
X050963Y008305D01*
X051007Y008349D01*
X051054Y008389D01*
X051103Y008427D01*
X051155Y008462D01*
X051209Y008494D01*
X051264Y008522D01*
X051321Y008547D01*
X051380Y008568D01*
X051439Y008586D01*
X051500Y008600D01*
X049700Y008600D02*
X049761Y008586D01*
X049820Y008568D01*
X049879Y008547D01*
X049936Y008522D01*
X049991Y008494D01*
X050045Y008462D01*
X050097Y008427D01*
X050146Y008389D01*
X050193Y008349D01*
X050237Y008305D01*
X050279Y008259D01*
X050318Y008210D01*
X050353Y008159D01*
X050386Y008106D01*
X050415Y008051D01*
X050441Y007994D01*
X050463Y007936D01*
X050482Y007877D01*
X050497Y007816D01*
X050508Y007755D01*
X050516Y007693D01*
X050520Y007631D01*
X050520Y007569D01*
X050516Y007507D01*
X050508Y007445D01*
X050497Y007384D01*
X050482Y007323D01*
X050463Y007264D01*
X050441Y007206D01*
X050415Y007149D01*
X050386Y007094D01*
X050353Y007041D01*
X050318Y006990D01*
X050279Y006941D01*
X050237Y006895D01*
X050193Y006851D01*
X050146Y006811D01*
X050097Y006773D01*
X050045Y006738D01*
X049991Y006706D01*
X049936Y006678D01*
X049879Y006653D01*
X049820Y006632D01*
X049761Y006614D01*
X049700Y006600D01*
X049761Y006586D01*
X049820Y006568D01*
X049879Y006547D01*
X049936Y006522D01*
X049991Y006494D01*
X050045Y006462D01*
X050097Y006427D01*
X050146Y006389D01*
X050193Y006349D01*
X050237Y006305D01*
X050279Y006259D01*
X050318Y006210D01*
X050353Y006159D01*
X050386Y006106D01*
X050415Y006051D01*
X050441Y005994D01*
X050463Y005936D01*
X050482Y005877D01*
X050497Y005816D01*
X050508Y005755D01*
X050516Y005693D01*
X050520Y005631D01*
X050520Y005569D01*
X050516Y005507D01*
X050508Y005445D01*
X050497Y005384D01*
X050482Y005323D01*
X050463Y005264D01*
X050441Y005206D01*
X050415Y005149D01*
X050386Y005094D01*
X050353Y005041D01*
X050318Y004990D01*
X050279Y004941D01*
X050237Y004895D01*
X050193Y004851D01*
X050146Y004811D01*
X050097Y004773D01*
X050045Y004738D01*
X049991Y004706D01*
X049936Y004678D01*
X049879Y004653D01*
X049820Y004632D01*
X049761Y004614D01*
X049700Y004600D01*
X048500Y004600D02*
X048439Y004614D01*
X048380Y004632D01*
X048321Y004653D01*
X048264Y004678D01*
X048209Y004706D01*
X048155Y004738D01*
X048103Y004773D01*
X048054Y004811D01*
X048007Y004851D01*
X047963Y004895D01*
X047921Y004941D01*
X047882Y004990D01*
X047847Y005041D01*
X047814Y005094D01*
X047785Y005149D01*
X047759Y005206D01*
X047737Y005264D01*
X047718Y005323D01*
X047703Y005384D01*
X047692Y005445D01*
X047684Y005507D01*
X047680Y005569D01*
X047680Y005631D01*
X047684Y005693D01*
X047692Y005755D01*
X047703Y005816D01*
X047718Y005877D01*
X047737Y005936D01*
X047759Y005994D01*
X047785Y006051D01*
X047814Y006106D01*
X047847Y006159D01*
X047882Y006210D01*
X047921Y006259D01*
X047963Y006305D01*
X048007Y006349D01*
X048054Y006389D01*
X048103Y006427D01*
X048155Y006462D01*
X048209Y006494D01*
X048264Y006522D01*
X048321Y006547D01*
X048380Y006568D01*
X048439Y006586D01*
X048500Y006600D01*
X048439Y006614D01*
X048380Y006632D01*
X048321Y006653D01*
X048264Y006678D01*
X048209Y006706D01*
X048155Y006738D01*
X048103Y006773D01*
X048054Y006811D01*
X048007Y006851D01*
X047963Y006895D01*
X047921Y006941D01*
X047882Y006990D01*
X047847Y007041D01*
X047814Y007094D01*
X047785Y007149D01*
X047759Y007206D01*
X047737Y007264D01*
X047718Y007323D01*
X047703Y007384D01*
X047692Y007445D01*
X047684Y007507D01*
X047680Y007569D01*
X047680Y007631D01*
X047684Y007693D01*
X047692Y007755D01*
X047703Y007816D01*
X047718Y007877D01*
X047737Y007936D01*
X047759Y007994D01*
X047785Y008051D01*
X047814Y008106D01*
X047847Y008159D01*
X047882Y008210D01*
X047921Y008259D01*
X047963Y008305D01*
X048007Y008349D01*
X048054Y008389D01*
X048103Y008427D01*
X048155Y008462D01*
X048209Y008494D01*
X048264Y008522D01*
X048321Y008547D01*
X048380Y008568D01*
X048439Y008586D01*
X048500Y008600D01*
X046700Y008600D02*
X046761Y008586D01*
X046820Y008568D01*
X046879Y008547D01*
X046936Y008522D01*
X046991Y008494D01*
X047045Y008462D01*
X047097Y008427D01*
X047146Y008389D01*
X047193Y008349D01*
X047237Y008305D01*
X047279Y008259D01*
X047318Y008210D01*
X047353Y008159D01*
X047386Y008106D01*
X047415Y008051D01*
X047441Y007994D01*
X047463Y007936D01*
X047482Y007877D01*
X047497Y007816D01*
X047508Y007755D01*
X047516Y007693D01*
X047520Y007631D01*
X047520Y007569D01*
X047516Y007507D01*
X047508Y007445D01*
X047497Y007384D01*
X047482Y007323D01*
X047463Y007264D01*
X047441Y007206D01*
X047415Y007149D01*
X047386Y007094D01*
X047353Y007041D01*
X047318Y006990D01*
X047279Y006941D01*
X047237Y006895D01*
X047193Y006851D01*
X047146Y006811D01*
X047097Y006773D01*
X047045Y006738D01*
X046991Y006706D01*
X046936Y006678D01*
X046879Y006653D01*
X046820Y006632D01*
X046761Y006614D01*
X046700Y006600D01*
X046761Y006586D01*
X046820Y006568D01*
X046879Y006547D01*
X046936Y006522D01*
X046991Y006494D01*
X047045Y006462D01*
X047097Y006427D01*
X047146Y006389D01*
X047193Y006349D01*
X047237Y006305D01*
X047279Y006259D01*
X047318Y006210D01*
X047353Y006159D01*
X047386Y006106D01*
X047415Y006051D01*
X047441Y005994D01*
X047463Y005936D01*
X047482Y005877D01*
X047497Y005816D01*
X047508Y005755D01*
X047516Y005693D01*
X047520Y005631D01*
X047520Y005569D01*
X047516Y005507D01*
X047508Y005445D01*
X047497Y005384D01*
X047482Y005323D01*
X047463Y005264D01*
X047441Y005206D01*
X047415Y005149D01*
X047386Y005094D01*
X047353Y005041D01*
X047318Y004990D01*
X047279Y004941D01*
X047237Y004895D01*
X047193Y004851D01*
X047146Y004811D01*
X047097Y004773D01*
X047045Y004738D01*
X046991Y004706D01*
X046936Y004678D01*
X046879Y004653D01*
X046820Y004632D01*
X046761Y004614D01*
X046700Y004600D01*
X045500Y004600D02*
X045439Y004614D01*
X045380Y004632D01*
X045321Y004653D01*
X045264Y004678D01*
X045209Y004706D01*
X045155Y004738D01*
X045103Y004773D01*
X045054Y004811D01*
X045007Y004851D01*
X044963Y004895D01*
X044921Y004941D01*
X044882Y004990D01*
X044847Y005041D01*
X044814Y005094D01*
X044785Y005149D01*
X044759Y005206D01*
X044737Y005264D01*
X044718Y005323D01*
X044703Y005384D01*
X044692Y005445D01*
X044684Y005507D01*
X044680Y005569D01*
X044680Y005631D01*
X044684Y005693D01*
X044692Y005755D01*
X044703Y005816D01*
X044718Y005877D01*
X044737Y005936D01*
X044759Y005994D01*
X044785Y006051D01*
X044814Y006106D01*
X044847Y006159D01*
X044882Y006210D01*
X044921Y006259D01*
X044963Y006305D01*
X045007Y006349D01*
X045054Y006389D01*
X045103Y006427D01*
X045155Y006462D01*
X045209Y006494D01*
X045264Y006522D01*
X045321Y006547D01*
X045380Y006568D01*
X045439Y006586D01*
X045500Y006600D01*
X045439Y006614D01*
X045380Y006632D01*
X045321Y006653D01*
X045264Y006678D01*
X045209Y006706D01*
X045155Y006738D01*
X045103Y006773D01*
X045054Y006811D01*
X045007Y006851D01*
X044963Y006895D01*
X044921Y006941D01*
X044882Y006990D01*
X044847Y007041D01*
X044814Y007094D01*
X044785Y007149D01*
X044759Y007206D01*
X044737Y007264D01*
X044718Y007323D01*
X044703Y007384D01*
X044692Y007445D01*
X044684Y007507D01*
X044680Y007569D01*
X044680Y007631D01*
X044684Y007693D01*
X044692Y007755D01*
X044703Y007816D01*
X044718Y007877D01*
X044737Y007936D01*
X044759Y007994D01*
X044785Y008051D01*
X044814Y008106D01*
X044847Y008159D01*
X044882Y008210D01*
X044921Y008259D01*
X044963Y008305D01*
X045007Y008349D01*
X045054Y008389D01*
X045103Y008427D01*
X045155Y008462D01*
X045209Y008494D01*
X045264Y008522D01*
X045321Y008547D01*
X045380Y008568D01*
X045439Y008586D01*
X045500Y008600D01*
X043700Y008600D02*
X043761Y008586D01*
X043820Y008568D01*
X043879Y008547D01*
X043936Y008522D01*
X043991Y008494D01*
X044045Y008462D01*
X044097Y008427D01*
X044146Y008389D01*
X044193Y008349D01*
X044237Y008305D01*
X044279Y008259D01*
X044318Y008210D01*
X044353Y008159D01*
X044386Y008106D01*
X044415Y008051D01*
X044441Y007994D01*
X044463Y007936D01*
X044482Y007877D01*
X044497Y007816D01*
X044508Y007755D01*
X044516Y007693D01*
X044520Y007631D01*
X044520Y007569D01*
X044516Y007507D01*
X044508Y007445D01*
X044497Y007384D01*
X044482Y007323D01*
X044463Y007264D01*
X044441Y007206D01*
X044415Y007149D01*
X044386Y007094D01*
X044353Y007041D01*
X044318Y006990D01*
X044279Y006941D01*
X044237Y006895D01*
X044193Y006851D01*
X044146Y006811D01*
X044097Y006773D01*
X044045Y006738D01*
X043991Y006706D01*
X043936Y006678D01*
X043879Y006653D01*
X043820Y006632D01*
X043761Y006614D01*
X043700Y006600D01*
X043761Y006586D01*
X043820Y006568D01*
X043879Y006547D01*
X043936Y006522D01*
X043991Y006494D01*
X044045Y006462D01*
X044097Y006427D01*
X044146Y006389D01*
X044193Y006349D01*
X044237Y006305D01*
X044279Y006259D01*
X044318Y006210D01*
X044353Y006159D01*
X044386Y006106D01*
X044415Y006051D01*
X044441Y005994D01*
X044463Y005936D01*
X044482Y005877D01*
X044497Y005816D01*
X044508Y005755D01*
X044516Y005693D01*
X044520Y005631D01*
X044520Y005569D01*
X044516Y005507D01*
X044508Y005445D01*
X044497Y005384D01*
X044482Y005323D01*
X044463Y005264D01*
X044441Y005206D01*
X044415Y005149D01*
X044386Y005094D01*
X044353Y005041D01*
X044318Y004990D01*
X044279Y004941D01*
X044237Y004895D01*
X044193Y004851D01*
X044146Y004811D01*
X044097Y004773D01*
X044045Y004738D01*
X043991Y004706D01*
X043936Y004678D01*
X043879Y004653D01*
X043820Y004632D01*
X043761Y004614D01*
X043700Y004600D01*
X042500Y004600D02*
X042439Y004614D01*
X042380Y004632D01*
X042321Y004653D01*
X042264Y004678D01*
X042209Y004706D01*
X042155Y004738D01*
X042103Y004773D01*
X042054Y004811D01*
X042007Y004851D01*
X041963Y004895D01*
X041921Y004941D01*
X041882Y004990D01*
X041847Y005041D01*
X041814Y005094D01*
X041785Y005149D01*
X041759Y005206D01*
X041737Y005264D01*
X041718Y005323D01*
X041703Y005384D01*
X041692Y005445D01*
X041684Y005507D01*
X041680Y005569D01*
X041680Y005631D01*
X041684Y005693D01*
X041692Y005755D01*
X041703Y005816D01*
X041718Y005877D01*
X041737Y005936D01*
X041759Y005994D01*
X041785Y006051D01*
X041814Y006106D01*
X041847Y006159D01*
X041882Y006210D01*
X041921Y006259D01*
X041963Y006305D01*
X042007Y006349D01*
X042054Y006389D01*
X042103Y006427D01*
X042155Y006462D01*
X042209Y006494D01*
X042264Y006522D01*
X042321Y006547D01*
X042380Y006568D01*
X042439Y006586D01*
X042500Y006600D01*
X042439Y006614D01*
X042380Y006632D01*
X042321Y006653D01*
X042264Y006678D01*
X042209Y006706D01*
X042155Y006738D01*
X042103Y006773D01*
X042054Y006811D01*
X042007Y006851D01*
X041963Y006895D01*
X041921Y006941D01*
X041882Y006990D01*
X041847Y007041D01*
X041814Y007094D01*
X041785Y007149D01*
X041759Y007206D01*
X041737Y007264D01*
X041718Y007323D01*
X041703Y007384D01*
X041692Y007445D01*
X041684Y007507D01*
X041680Y007569D01*
X041680Y007631D01*
X041684Y007693D01*
X041692Y007755D01*
X041703Y007816D01*
X041718Y007877D01*
X041737Y007936D01*
X041759Y007994D01*
X041785Y008051D01*
X041814Y008106D01*
X041847Y008159D01*
X041882Y008210D01*
X041921Y008259D01*
X041963Y008305D01*
X042007Y008349D01*
X042054Y008389D01*
X042103Y008427D01*
X042155Y008462D01*
X042209Y008494D01*
X042264Y008522D01*
X042321Y008547D01*
X042380Y008568D01*
X042439Y008586D01*
X042500Y008600D01*
X040700Y008600D02*
X040761Y008586D01*
X040820Y008568D01*
X040879Y008547D01*
X040936Y008522D01*
X040991Y008494D01*
X041045Y008462D01*
X041097Y008427D01*
X041146Y008389D01*
X041193Y008349D01*
X041237Y008305D01*
X041279Y008259D01*
X041318Y008210D01*
X041353Y008159D01*
X041386Y008106D01*
X041415Y008051D01*
X041441Y007994D01*
X041463Y007936D01*
X041482Y007877D01*
X041497Y007816D01*
X041508Y007755D01*
X041516Y007693D01*
X041520Y007631D01*
X041520Y007569D01*
X041516Y007507D01*
X041508Y007445D01*
X041497Y007384D01*
X041482Y007323D01*
X041463Y007264D01*
X041441Y007206D01*
X041415Y007149D01*
X041386Y007094D01*
X041353Y007041D01*
X041318Y006990D01*
X041279Y006941D01*
X041237Y006895D01*
X041193Y006851D01*
X041146Y006811D01*
X041097Y006773D01*
X041045Y006738D01*
X040991Y006706D01*
X040936Y006678D01*
X040879Y006653D01*
X040820Y006632D01*
X040761Y006614D01*
X040700Y006600D01*
X040761Y006586D01*
X040820Y006568D01*
X040879Y006547D01*
X040936Y006522D01*
X040991Y006494D01*
X041045Y006462D01*
X041097Y006427D01*
X041146Y006389D01*
X041193Y006349D01*
X041237Y006305D01*
X041279Y006259D01*
X041318Y006210D01*
X041353Y006159D01*
X041386Y006106D01*
X041415Y006051D01*
X041441Y005994D01*
X041463Y005936D01*
X041482Y005877D01*
X041497Y005816D01*
X041508Y005755D01*
X041516Y005693D01*
X041520Y005631D01*
X041520Y005569D01*
X041516Y005507D01*
X041508Y005445D01*
X041497Y005384D01*
X041482Y005323D01*
X041463Y005264D01*
X041441Y005206D01*
X041415Y005149D01*
X041386Y005094D01*
X041353Y005041D01*
X041318Y004990D01*
X041279Y004941D01*
X041237Y004895D01*
X041193Y004851D01*
X041146Y004811D01*
X041097Y004773D01*
X041045Y004738D01*
X040991Y004706D01*
X040936Y004678D01*
X040879Y004653D01*
X040820Y004632D01*
X040761Y004614D01*
X040700Y004600D01*
X039500Y004600D02*
X039439Y004614D01*
X039380Y004632D01*
X039321Y004653D01*
X039264Y004678D01*
X039209Y004706D01*
X039155Y004738D01*
X039103Y004773D01*
X039054Y004811D01*
X039007Y004851D01*
X038963Y004895D01*
X038921Y004941D01*
X038882Y004990D01*
X038847Y005041D01*
X038814Y005094D01*
X038785Y005149D01*
X038759Y005206D01*
X038737Y005264D01*
X038718Y005323D01*
X038703Y005384D01*
X038692Y005445D01*
X038684Y005507D01*
X038680Y005569D01*
X038680Y005631D01*
X038684Y005693D01*
X038692Y005755D01*
X038703Y005816D01*
X038718Y005877D01*
X038737Y005936D01*
X038759Y005994D01*
X038785Y006051D01*
X038814Y006106D01*
X038847Y006159D01*
X038882Y006210D01*
X038921Y006259D01*
X038963Y006305D01*
X039007Y006349D01*
X039054Y006389D01*
X039103Y006427D01*
X039155Y006462D01*
X039209Y006494D01*
X039264Y006522D01*
X039321Y006547D01*
X039380Y006568D01*
X039439Y006586D01*
X039500Y006600D01*
X039439Y006614D01*
X039380Y006632D01*
X039321Y006653D01*
X039264Y006678D01*
X039209Y006706D01*
X039155Y006738D01*
X039103Y006773D01*
X039054Y006811D01*
X039007Y006851D01*
X038963Y006895D01*
X038921Y006941D01*
X038882Y006990D01*
X038847Y007041D01*
X038814Y007094D01*
X038785Y007149D01*
X038759Y007206D01*
X038737Y007264D01*
X038718Y007323D01*
X038703Y007384D01*
X038692Y007445D01*
X038684Y007507D01*
X038680Y007569D01*
X038680Y007631D01*
X038684Y007693D01*
X038692Y007755D01*
X038703Y007816D01*
X038718Y007877D01*
X038737Y007936D01*
X038759Y007994D01*
X038785Y008051D01*
X038814Y008106D01*
X038847Y008159D01*
X038882Y008210D01*
X038921Y008259D01*
X038963Y008305D01*
X039007Y008349D01*
X039054Y008389D01*
X039103Y008427D01*
X039155Y008462D01*
X039209Y008494D01*
X039264Y008522D01*
X039321Y008547D01*
X039380Y008568D01*
X039439Y008586D01*
X039500Y008600D01*
X039600Y009250D02*
X039586Y009189D01*
X039568Y009130D01*
X039547Y009071D01*
X039522Y009014D01*
X039494Y008959D01*
X039462Y008905D01*
X039427Y008853D01*
X039389Y008804D01*
X039349Y008757D01*
X039305Y008713D01*
X039259Y008671D01*
X039210Y008632D01*
X039159Y008597D01*
X039106Y008564D01*
X039051Y008535D01*
X038994Y008509D01*
X038936Y008487D01*
X038877Y008468D01*
X038816Y008453D01*
X038755Y008442D01*
X038693Y008434D01*
X038631Y008430D01*
X038569Y008430D01*
X038507Y008434D01*
X038445Y008442D01*
X038384Y008453D01*
X038323Y008468D01*
X038264Y008487D01*
X038206Y008509D01*
X038149Y008535D01*
X038094Y008564D01*
X038041Y008597D01*
X037990Y008632D01*
X037941Y008671D01*
X037895Y008713D01*
X037851Y008757D01*
X037811Y008804D01*
X037773Y008853D01*
X037738Y008905D01*
X037706Y008959D01*
X037678Y009014D01*
X037653Y009071D01*
X037632Y009130D01*
X037614Y009189D01*
X037600Y009250D01*
X036600Y009250D02*
X036586Y009189D01*
X036568Y009130D01*
X036547Y009071D01*
X036522Y009014D01*
X036494Y008959D01*
X036462Y008905D01*
X036427Y008853D01*
X036389Y008804D01*
X036349Y008757D01*
X036305Y008713D01*
X036259Y008671D01*
X036210Y008632D01*
X036159Y008597D01*
X036106Y008564D01*
X036051Y008535D01*
X035994Y008509D01*
X035936Y008487D01*
X035877Y008468D01*
X035816Y008453D01*
X035755Y008442D01*
X035693Y008434D01*
X035631Y008430D01*
X035569Y008430D01*
X035507Y008434D01*
X035445Y008442D01*
X035384Y008453D01*
X035323Y008468D01*
X035264Y008487D01*
X035206Y008509D01*
X035149Y008535D01*
X035094Y008564D01*
X035041Y008597D01*
X034990Y008632D01*
X034941Y008671D01*
X034895Y008713D01*
X034851Y008757D01*
X034811Y008804D01*
X034773Y008853D01*
X034738Y008905D01*
X034706Y008959D01*
X034678Y009014D01*
X034653Y009071D01*
X034632Y009130D01*
X034614Y009189D01*
X034600Y009250D01*
X033600Y009250D02*
X033586Y009189D01*
X033568Y009130D01*
X033547Y009071D01*
X033522Y009014D01*
X033494Y008959D01*
X033462Y008905D01*
X033427Y008853D01*
X033389Y008804D01*
X033349Y008757D01*
X033305Y008713D01*
X033259Y008671D01*
X033210Y008632D01*
X033159Y008597D01*
X033106Y008564D01*
X033051Y008535D01*
X032994Y008509D01*
X032936Y008487D01*
X032877Y008468D01*
X032816Y008453D01*
X032755Y008442D01*
X032693Y008434D01*
X032631Y008430D01*
X032569Y008430D01*
X032507Y008434D01*
X032445Y008442D01*
X032384Y008453D01*
X032323Y008468D01*
X032264Y008487D01*
X032206Y008509D01*
X032149Y008535D01*
X032094Y008564D01*
X032041Y008597D01*
X031990Y008632D01*
X031941Y008671D01*
X031895Y008713D01*
X031851Y008757D01*
X031811Y008804D01*
X031773Y008853D01*
X031738Y008905D01*
X031706Y008959D01*
X031678Y009014D01*
X031653Y009071D01*
X031632Y009130D01*
X031614Y009189D01*
X031600Y009250D01*
X030600Y009250D02*
X030586Y009189D01*
X030568Y009130D01*
X030547Y009071D01*
X030522Y009014D01*
X030494Y008959D01*
X030462Y008905D01*
X030427Y008853D01*
X030389Y008804D01*
X030349Y008757D01*
X030305Y008713D01*
X030259Y008671D01*
X030210Y008632D01*
X030159Y008597D01*
X030106Y008564D01*
X030051Y008535D01*
X029994Y008509D01*
X029936Y008487D01*
X029877Y008468D01*
X029816Y008453D01*
X029755Y008442D01*
X029693Y008434D01*
X029631Y008430D01*
X029569Y008430D01*
X029507Y008434D01*
X029445Y008442D01*
X029384Y008453D01*
X029323Y008468D01*
X029264Y008487D01*
X029206Y008509D01*
X029149Y008535D01*
X029094Y008564D01*
X029041Y008597D01*
X028990Y008632D01*
X028941Y008671D01*
X028895Y008713D01*
X028851Y008757D01*
X028811Y008804D01*
X028773Y008853D01*
X028738Y008905D01*
X028706Y008959D01*
X028678Y009014D01*
X028653Y009071D01*
X028632Y009130D01*
X028614Y009189D01*
X028600Y009250D01*
X028700Y008600D02*
X028761Y008586D01*
X028820Y008568D01*
X028879Y008547D01*
X028936Y008522D01*
X028991Y008494D01*
X029045Y008462D01*
X029097Y008427D01*
X029146Y008389D01*
X029193Y008349D01*
X029237Y008305D01*
X029279Y008259D01*
X029318Y008210D01*
X029353Y008159D01*
X029386Y008106D01*
X029415Y008051D01*
X029441Y007994D01*
X029463Y007936D01*
X029482Y007877D01*
X029497Y007816D01*
X029508Y007755D01*
X029516Y007693D01*
X029520Y007631D01*
X029520Y007569D01*
X029516Y007507D01*
X029508Y007445D01*
X029497Y007384D01*
X029482Y007323D01*
X029463Y007264D01*
X029441Y007206D01*
X029415Y007149D01*
X029386Y007094D01*
X029353Y007041D01*
X029318Y006990D01*
X029279Y006941D01*
X029237Y006895D01*
X029193Y006851D01*
X029146Y006811D01*
X029097Y006773D01*
X029045Y006738D01*
X028991Y006706D01*
X028936Y006678D01*
X028879Y006653D01*
X028820Y006632D01*
X028761Y006614D01*
X028700Y006600D01*
X028761Y006586D01*
X028820Y006568D01*
X028879Y006547D01*
X028936Y006522D01*
X028991Y006494D01*
X029045Y006462D01*
X029097Y006427D01*
X029146Y006389D01*
X029193Y006349D01*
X029237Y006305D01*
X029279Y006259D01*
X029318Y006210D01*
X029353Y006159D01*
X029386Y006106D01*
X029415Y006051D01*
X029441Y005994D01*
X029463Y005936D01*
X029482Y005877D01*
X029497Y005816D01*
X029508Y005755D01*
X029516Y005693D01*
X029520Y005631D01*
X029520Y005569D01*
X029516Y005507D01*
X029508Y005445D01*
X029497Y005384D01*
X029482Y005323D01*
X029463Y005264D01*
X029441Y005206D01*
X029415Y005149D01*
X029386Y005094D01*
X029353Y005041D01*
X029318Y004990D01*
X029279Y004941D01*
X029237Y004895D01*
X029193Y004851D01*
X029146Y004811D01*
X029097Y004773D01*
X029045Y004738D01*
X028991Y004706D01*
X028936Y004678D01*
X028879Y004653D01*
X028820Y004632D01*
X028761Y004614D01*
X028700Y004600D01*
X027500Y004600D02*
X027439Y004614D01*
X027380Y004632D01*
X027321Y004653D01*
X027264Y004678D01*
X027209Y004706D01*
X027155Y004738D01*
X027103Y004773D01*
X027054Y004811D01*
X027007Y004851D01*
X026963Y004895D01*
X026921Y004941D01*
X026882Y004990D01*
X026847Y005041D01*
X026814Y005094D01*
X026785Y005149D01*
X026759Y005206D01*
X026737Y005264D01*
X026718Y005323D01*
X026703Y005384D01*
X026692Y005445D01*
X026684Y005507D01*
X026680Y005569D01*
X026680Y005631D01*
X026684Y005693D01*
X026692Y005755D01*
X026703Y005816D01*
X026718Y005877D01*
X026737Y005936D01*
X026759Y005994D01*
X026785Y006051D01*
X026814Y006106D01*
X026847Y006159D01*
X026882Y006210D01*
X026921Y006259D01*
X026963Y006305D01*
X027007Y006349D01*
X027054Y006389D01*
X027103Y006427D01*
X027155Y006462D01*
X027209Y006494D01*
X027264Y006522D01*
X027321Y006547D01*
X027380Y006568D01*
X027439Y006586D01*
X027500Y006600D01*
X027439Y006614D01*
X027380Y006632D01*
X027321Y006653D01*
X027264Y006678D01*
X027209Y006706D01*
X027155Y006738D01*
X027103Y006773D01*
X027054Y006811D01*
X027007Y006851D01*
X026963Y006895D01*
X026921Y006941D01*
X026882Y006990D01*
X026847Y007041D01*
X026814Y007094D01*
X026785Y007149D01*
X026759Y007206D01*
X026737Y007264D01*
X026718Y007323D01*
X026703Y007384D01*
X026692Y007445D01*
X026684Y007507D01*
X026680Y007569D01*
X026680Y007631D01*
X026684Y007693D01*
X026692Y007755D01*
X026703Y007816D01*
X026718Y007877D01*
X026737Y007936D01*
X026759Y007994D01*
X026785Y008051D01*
X026814Y008106D01*
X026847Y008159D01*
X026882Y008210D01*
X026921Y008259D01*
X026963Y008305D01*
X027007Y008349D01*
X027054Y008389D01*
X027103Y008427D01*
X027155Y008462D01*
X027209Y008494D01*
X027264Y008522D01*
X027321Y008547D01*
X027380Y008568D01*
X027439Y008586D01*
X027500Y008600D01*
X025700Y008600D02*
X025761Y008586D01*
X025820Y008568D01*
X025879Y008547D01*
X025936Y008522D01*
X025991Y008494D01*
X026045Y008462D01*
X026097Y008427D01*
X026146Y008389D01*
X026193Y008349D01*
X026237Y008305D01*
X026279Y008259D01*
X026318Y008210D01*
X026353Y008159D01*
X026386Y008106D01*
X026415Y008051D01*
X026441Y007994D01*
X026463Y007936D01*
X026482Y007877D01*
X026497Y007816D01*
X026508Y007755D01*
X026516Y007693D01*
X026520Y007631D01*
X026520Y007569D01*
X026516Y007507D01*
X026508Y007445D01*
X026497Y007384D01*
X026482Y007323D01*
X026463Y007264D01*
X026441Y007206D01*
X026415Y007149D01*
X026386Y007094D01*
X026353Y007041D01*
X026318Y006990D01*
X026279Y006941D01*
X026237Y006895D01*
X026193Y006851D01*
X026146Y006811D01*
X026097Y006773D01*
X026045Y006738D01*
X025991Y006706D01*
X025936Y006678D01*
X025879Y006653D01*
X025820Y006632D01*
X025761Y006614D01*
X025700Y006600D01*
X025761Y006586D01*
X025820Y006568D01*
X025879Y006547D01*
X025936Y006522D01*
X025991Y006494D01*
X026045Y006462D01*
X026097Y006427D01*
X026146Y006389D01*
X026193Y006349D01*
X026237Y006305D01*
X026279Y006259D01*
X026318Y006210D01*
X026353Y006159D01*
X026386Y006106D01*
X026415Y006051D01*
X026441Y005994D01*
X026463Y005936D01*
X026482Y005877D01*
X026497Y005816D01*
X026508Y005755D01*
X026516Y005693D01*
X026520Y005631D01*
X026520Y005569D01*
X026516Y005507D01*
X026508Y005445D01*
X026497Y005384D01*
X026482Y005323D01*
X026463Y005264D01*
X026441Y005206D01*
X026415Y005149D01*
X026386Y005094D01*
X026353Y005041D01*
X026318Y004990D01*
X026279Y004941D01*
X026237Y004895D01*
X026193Y004851D01*
X026146Y004811D01*
X026097Y004773D01*
X026045Y004738D01*
X025991Y004706D01*
X025936Y004678D01*
X025879Y004653D01*
X025820Y004632D01*
X025761Y004614D01*
X025700Y004600D01*
X024500Y004600D02*
X024439Y004614D01*
X024380Y004632D01*
X024321Y004653D01*
X024264Y004678D01*
X024209Y004706D01*
X024155Y004738D01*
X024103Y004773D01*
X024054Y004811D01*
X024007Y004851D01*
X023963Y004895D01*
X023921Y004941D01*
X023882Y004990D01*
X023847Y005041D01*
X023814Y005094D01*
X023785Y005149D01*
X023759Y005206D01*
X023737Y005264D01*
X023718Y005323D01*
X023703Y005384D01*
X023692Y005445D01*
X023684Y005507D01*
X023680Y005569D01*
X023680Y005631D01*
X023684Y005693D01*
X023692Y005755D01*
X023703Y005816D01*
X023718Y005877D01*
X023737Y005936D01*
X023759Y005994D01*
X023785Y006051D01*
X023814Y006106D01*
X023847Y006159D01*
X023882Y006210D01*
X023921Y006259D01*
X023963Y006305D01*
X024007Y006349D01*
X024054Y006389D01*
X024103Y006427D01*
X024155Y006462D01*
X024209Y006494D01*
X024264Y006522D01*
X024321Y006547D01*
X024380Y006568D01*
X024439Y006586D01*
X024500Y006600D01*
X024439Y006614D01*
X024380Y006632D01*
X024321Y006653D01*
X024264Y006678D01*
X024209Y006706D01*
X024155Y006738D01*
X024103Y006773D01*
X024054Y006811D01*
X024007Y006851D01*
X023963Y006895D01*
X023921Y006941D01*
X023882Y006990D01*
X023847Y007041D01*
X023814Y007094D01*
X023785Y007149D01*
X023759Y007206D01*
X023737Y007264D01*
X023718Y007323D01*
X023703Y007384D01*
X023692Y007445D01*
X023684Y007507D01*
X023680Y007569D01*
X023680Y007631D01*
X023684Y007693D01*
X023692Y007755D01*
X023703Y007816D01*
X023718Y007877D01*
X023737Y007936D01*
X023759Y007994D01*
X023785Y008051D01*
X023814Y008106D01*
X023847Y008159D01*
X023882Y008210D01*
X023921Y008259D01*
X023963Y008305D01*
X024007Y008349D01*
X024054Y008389D01*
X024103Y008427D01*
X024155Y008462D01*
X024209Y008494D01*
X024264Y008522D01*
X024321Y008547D01*
X024380Y008568D01*
X024439Y008586D01*
X024500Y008600D01*
X022700Y008600D02*
X022761Y008586D01*
X022820Y008568D01*
X022879Y008547D01*
X022936Y008522D01*
X022991Y008494D01*
X023045Y008462D01*
X023097Y008427D01*
X023146Y008389D01*
X023193Y008349D01*
X023237Y008305D01*
X023279Y008259D01*
X023318Y008210D01*
X023353Y008159D01*
X023386Y008106D01*
X023415Y008051D01*
X023441Y007994D01*
X023463Y007936D01*
X023482Y007877D01*
X023497Y007816D01*
X023508Y007755D01*
X023516Y007693D01*
X023520Y007631D01*
X023520Y007569D01*
X023516Y007507D01*
X023508Y007445D01*
X023497Y007384D01*
X023482Y007323D01*
X023463Y007264D01*
X023441Y007206D01*
X023415Y007149D01*
X023386Y007094D01*
X023353Y007041D01*
X023318Y006990D01*
X023279Y006941D01*
X023237Y006895D01*
X023193Y006851D01*
X023146Y006811D01*
X023097Y006773D01*
X023045Y006738D01*
X022991Y006706D01*
X022936Y006678D01*
X022879Y006653D01*
X022820Y006632D01*
X022761Y006614D01*
X022700Y006600D01*
X022761Y006586D01*
X022820Y006568D01*
X022879Y006547D01*
X022936Y006522D01*
X022991Y006494D01*
X023045Y006462D01*
X023097Y006427D01*
X023146Y006389D01*
X023193Y006349D01*
X023237Y006305D01*
X023279Y006259D01*
X023318Y006210D01*
X023353Y006159D01*
X023386Y006106D01*
X023415Y006051D01*
X023441Y005994D01*
X023463Y005936D01*
X023482Y005877D01*
X023497Y005816D01*
X023508Y005755D01*
X023516Y005693D01*
X023520Y005631D01*
X023520Y005569D01*
X023516Y005507D01*
X023508Y005445D01*
X023497Y005384D01*
X023482Y005323D01*
X023463Y005264D01*
X023441Y005206D01*
X023415Y005149D01*
X023386Y005094D01*
X023353Y005041D01*
X023318Y004990D01*
X023279Y004941D01*
X023237Y004895D01*
X023193Y004851D01*
X023146Y004811D01*
X023097Y004773D01*
X023045Y004738D01*
X022991Y004706D01*
X022936Y004678D01*
X022879Y004653D01*
X022820Y004632D01*
X022761Y004614D01*
X022700Y004600D01*
X021500Y004600D02*
X021439Y004614D01*
X021380Y004632D01*
X021321Y004653D01*
X021264Y004678D01*
X021209Y004706D01*
X021155Y004738D01*
X021103Y004773D01*
X021054Y004811D01*
X021007Y004851D01*
X020963Y004895D01*
X020921Y004941D01*
X020882Y004990D01*
X020847Y005041D01*
X020814Y005094D01*
X020785Y005149D01*
X020759Y005206D01*
X020737Y005264D01*
X020718Y005323D01*
X020703Y005384D01*
X020692Y005445D01*
X020684Y005507D01*
X020680Y005569D01*
X020680Y005631D01*
X020684Y005693D01*
X020692Y005755D01*
X020703Y005816D01*
X020718Y005877D01*
X020737Y005936D01*
X020759Y005994D01*
X020785Y006051D01*
X020814Y006106D01*
X020847Y006159D01*
X020882Y006210D01*
X020921Y006259D01*
X020963Y006305D01*
X021007Y006349D01*
X021054Y006389D01*
X021103Y006427D01*
X021155Y006462D01*
X021209Y006494D01*
X021264Y006522D01*
X021321Y006547D01*
X021380Y006568D01*
X021439Y006586D01*
X021500Y006600D01*
X021439Y006614D01*
X021380Y006632D01*
X021321Y006653D01*
X021264Y006678D01*
X021209Y006706D01*
X021155Y006738D01*
X021103Y006773D01*
X021054Y006811D01*
X021007Y006851D01*
X020963Y006895D01*
X020921Y006941D01*
X020882Y006990D01*
X020847Y007041D01*
X020814Y007094D01*
X020785Y007149D01*
X020759Y007206D01*
X020737Y007264D01*
X020718Y007323D01*
X020703Y007384D01*
X020692Y007445D01*
X020684Y007507D01*
X020680Y007569D01*
X020680Y007631D01*
X020684Y007693D01*
X020692Y007755D01*
X020703Y007816D01*
X020718Y007877D01*
X020737Y007936D01*
X020759Y007994D01*
X020785Y008051D01*
X020814Y008106D01*
X020847Y008159D01*
X020882Y008210D01*
X020921Y008259D01*
X020963Y008305D01*
X021007Y008349D01*
X021054Y008389D01*
X021103Y008427D01*
X021155Y008462D01*
X021209Y008494D01*
X021264Y008522D01*
X021321Y008547D01*
X021380Y008568D01*
X021439Y008586D01*
X021500Y008600D01*
X018500Y008600D02*
X018439Y008586D01*
X018380Y008568D01*
X018321Y008547D01*
X018264Y008522D01*
X018209Y008494D01*
X018155Y008462D01*
X018103Y008427D01*
X018054Y008389D01*
X018007Y008349D01*
X017963Y008305D01*
X017921Y008259D01*
X017882Y008210D01*
X017847Y008159D01*
X017814Y008106D01*
X017785Y008051D01*
X017759Y007994D01*
X017737Y007936D01*
X017718Y007877D01*
X017703Y007816D01*
X017692Y007755D01*
X017684Y007693D01*
X017680Y007631D01*
X017680Y007569D01*
X017684Y007507D01*
X017692Y007445D01*
X017703Y007384D01*
X017718Y007323D01*
X017737Y007264D01*
X017759Y007206D01*
X017785Y007149D01*
X017814Y007094D01*
X017847Y007041D01*
X017882Y006990D01*
X017921Y006941D01*
X017963Y006895D01*
X018007Y006851D01*
X018054Y006811D01*
X018103Y006773D01*
X018155Y006738D01*
X018209Y006706D01*
X018264Y006678D01*
X018321Y006653D01*
X018380Y006632D01*
X018439Y006614D01*
X018500Y006600D01*
X008850Y004100D02*
X008850Y003500D01*
X008836Y003439D01*
X008818Y003380D01*
X008797Y003321D01*
X008772Y003264D01*
X008744Y003209D01*
X008712Y003155D01*
X008677Y003103D01*
X008639Y003054D01*
X008599Y003007D01*
X008555Y002963D01*
X008509Y002921D01*
X008460Y002882D01*
X008409Y002847D01*
X008356Y002814D01*
X008301Y002785D01*
X008244Y002759D01*
X008186Y002737D01*
X008127Y002718D01*
X008066Y002703D01*
X008005Y002692D01*
X007943Y002684D01*
X007881Y002680D01*
X007819Y002680D01*
X007757Y002684D01*
X007695Y002692D01*
X007634Y002703D01*
X007573Y002718D01*
X007514Y002737D01*
X007456Y002759D01*
X007399Y002785D01*
X007344Y002814D01*
X007291Y002847D01*
X007240Y002882D01*
X007191Y002921D01*
X007145Y002963D01*
X007101Y003007D01*
X007061Y003054D01*
X007023Y003103D01*
X006988Y003155D01*
X006956Y003209D01*
X006928Y003264D01*
X006903Y003321D01*
X006882Y003380D01*
X006864Y003439D01*
X006850Y003500D01*
X006850Y004100D01*
X008850Y004100D01*
X022500Y002850D02*
X023100Y002850D01*
X023100Y000850D01*
X022500Y000850D01*
X024000Y000850D02*
X024600Y000850D01*
X024600Y002850D01*
X024000Y002850D01*
X025500Y002850D02*
X026100Y002850D01*
X026100Y000850D01*
X025500Y000850D01*
X027000Y000850D02*
X027600Y000850D01*
X027600Y002850D01*
X027000Y002850D01*
X026939Y002836D01*
X026880Y002818D01*
X026821Y002797D01*
X026764Y002772D01*
X026709Y002744D01*
X026655Y002712D01*
X026603Y002677D01*
X026554Y002639D01*
X026507Y002599D01*
X026463Y002555D01*
X026421Y002509D01*
X026382Y002460D01*
X026347Y002409D01*
X026314Y002356D01*
X026285Y002301D01*
X026259Y002244D01*
X026237Y002186D01*
X026218Y002127D01*
X026203Y002066D01*
X026192Y002005D01*
X026184Y001943D01*
X026180Y001881D01*
X026180Y001819D01*
X026184Y001757D01*
X026192Y001695D01*
X026203Y001634D01*
X026218Y001573D01*
X026237Y001514D01*
X026259Y001456D01*
X026285Y001399D01*
X026314Y001344D01*
X026347Y001291D01*
X026382Y001240D01*
X026421Y001191D01*
X026463Y001145D01*
X026507Y001101D01*
X026554Y001061D01*
X026603Y001023D01*
X026655Y000988D01*
X026709Y000956D01*
X026764Y000928D01*
X026821Y000903D01*
X026880Y000882D01*
X026939Y000864D01*
X027000Y000850D01*
X025500Y000850D02*
X025439Y000864D01*
X025380Y000882D01*
X025321Y000903D01*
X025264Y000928D01*
X025209Y000956D01*
X025155Y000988D01*
X025103Y001023D01*
X025054Y001061D01*
X025007Y001101D01*
X024963Y001145D01*
X024921Y001191D01*
X024882Y001240D01*
X024847Y001291D01*
X024814Y001344D01*
X024785Y001399D01*
X024759Y001456D01*
X024737Y001514D01*
X024718Y001573D01*
X024703Y001634D01*
X024692Y001695D01*
X024684Y001757D01*
X024680Y001819D01*
X024680Y001881D01*
X024684Y001943D01*
X024692Y002005D01*
X024703Y002066D01*
X024718Y002127D01*
X024737Y002186D01*
X024759Y002244D01*
X024785Y002301D01*
X024814Y002356D01*
X024847Y002409D01*
X024882Y002460D01*
X024921Y002509D01*
X024963Y002555D01*
X025007Y002599D01*
X025054Y002639D01*
X025103Y002677D01*
X025155Y002712D01*
X025209Y002744D01*
X025264Y002772D01*
X025321Y002797D01*
X025380Y002818D01*
X025439Y002836D01*
X025500Y002850D01*
X024000Y002850D02*
X023939Y002836D01*
X023880Y002818D01*
X023821Y002797D01*
X023764Y002772D01*
X023709Y002744D01*
X023655Y002712D01*
X023603Y002677D01*
X023554Y002639D01*
X023507Y002599D01*
X023463Y002555D01*
X023421Y002509D01*
X023382Y002460D01*
X023347Y002409D01*
X023314Y002356D01*
X023285Y002301D01*
X023259Y002244D01*
X023237Y002186D01*
X023218Y002127D01*
X023203Y002066D01*
X023192Y002005D01*
X023184Y001943D01*
X023180Y001881D01*
X023180Y001819D01*
X023184Y001757D01*
X023192Y001695D01*
X023203Y001634D01*
X023218Y001573D01*
X023237Y001514D01*
X023259Y001456D01*
X023285Y001399D01*
X023314Y001344D01*
X023347Y001291D01*
X023382Y001240D01*
X023421Y001191D01*
X023463Y001145D01*
X023507Y001101D01*
X023554Y001061D01*
X023603Y001023D01*
X023655Y000988D01*
X023709Y000956D01*
X023764Y000928D01*
X023821Y000903D01*
X023880Y000882D01*
X023939Y000864D01*
X024000Y000850D01*
X022500Y000850D02*
X022439Y000864D01*
X022380Y000882D01*
X022321Y000903D01*
X022264Y000928D01*
X022209Y000956D01*
X022155Y000988D01*
X022103Y001023D01*
X022054Y001061D01*
X022007Y001101D01*
X021963Y001145D01*
X021921Y001191D01*
X021882Y001240D01*
X021847Y001291D01*
X021814Y001344D01*
X021785Y001399D01*
X021759Y001456D01*
X021737Y001514D01*
X021718Y001573D01*
X021703Y001634D01*
X021692Y001695D01*
X021684Y001757D01*
X021680Y001819D01*
X021680Y001881D01*
X021684Y001943D01*
X021692Y002005D01*
X021703Y002066D01*
X021718Y002127D01*
X021737Y002186D01*
X021759Y002244D01*
X021785Y002301D01*
X021814Y002356D01*
X021847Y002409D01*
X021882Y002460D01*
X021921Y002509D01*
X021963Y002555D01*
X022007Y002599D01*
X022054Y002639D01*
X022103Y002677D01*
X022155Y002712D01*
X022209Y002744D01*
X022264Y002772D01*
X022321Y002797D01*
X022380Y002818D01*
X022439Y002836D01*
X022500Y002850D01*
X030500Y004600D02*
X030439Y004614D01*
X030380Y004632D01*
X030321Y004653D01*
X030264Y004678D01*
X030209Y004706D01*
X030155Y004738D01*
X030103Y004773D01*
X030054Y004811D01*
X030007Y004851D01*
X029963Y004895D01*
X029921Y004941D01*
X029882Y004990D01*
X029847Y005041D01*
X029814Y005094D01*
X029785Y005149D01*
X029759Y005206D01*
X029737Y005264D01*
X029718Y005323D01*
X029703Y005384D01*
X029692Y005445D01*
X029684Y005507D01*
X029680Y005569D01*
X029680Y005631D01*
X029684Y005693D01*
X029692Y005755D01*
X029703Y005816D01*
X029718Y005877D01*
X029737Y005936D01*
X029759Y005994D01*
X029785Y006051D01*
X029814Y006106D01*
X029847Y006159D01*
X029882Y006210D01*
X029921Y006259D01*
X029963Y006305D01*
X030007Y006349D01*
X030054Y006389D01*
X030103Y006427D01*
X030155Y006462D01*
X030209Y006494D01*
X030264Y006522D01*
X030321Y006547D01*
X030380Y006568D01*
X030439Y006586D01*
X030500Y006600D01*
X030439Y006614D01*
X030380Y006632D01*
X030321Y006653D01*
X030264Y006678D01*
X030209Y006706D01*
X030155Y006738D01*
X030103Y006773D01*
X030054Y006811D01*
X030007Y006851D01*
X029963Y006895D01*
X029921Y006941D01*
X029882Y006990D01*
X029847Y007041D01*
X029814Y007094D01*
X029785Y007149D01*
X029759Y007206D01*
X029737Y007264D01*
X029718Y007323D01*
X029703Y007384D01*
X029692Y007445D01*
X029684Y007507D01*
X029680Y007569D01*
X029680Y007631D01*
X029684Y007693D01*
X029692Y007755D01*
X029703Y007816D01*
X029718Y007877D01*
X029737Y007936D01*
X029759Y007994D01*
X029785Y008051D01*
X029814Y008106D01*
X029847Y008159D01*
X029882Y008210D01*
X029921Y008259D01*
X029963Y008305D01*
X030007Y008349D01*
X030054Y008389D01*
X030103Y008427D01*
X030155Y008462D01*
X030209Y008494D01*
X030264Y008522D01*
X030321Y008547D01*
X030380Y008568D01*
X030439Y008586D01*
X030500Y008600D01*
X031700Y008600D02*
X031761Y008586D01*
X031820Y008568D01*
X031879Y008547D01*
X031936Y008522D01*
X031991Y008494D01*
X032045Y008462D01*
X032097Y008427D01*
X032146Y008389D01*
X032193Y008349D01*
X032237Y008305D01*
X032279Y008259D01*
X032318Y008210D01*
X032353Y008159D01*
X032386Y008106D01*
X032415Y008051D01*
X032441Y007994D01*
X032463Y007936D01*
X032482Y007877D01*
X032497Y007816D01*
X032508Y007755D01*
X032516Y007693D01*
X032520Y007631D01*
X032520Y007569D01*
X032516Y007507D01*
X032508Y007445D01*
X032497Y007384D01*
X032482Y007323D01*
X032463Y007264D01*
X032441Y007206D01*
X032415Y007149D01*
X032386Y007094D01*
X032353Y007041D01*
X032318Y006990D01*
X032279Y006941D01*
X032237Y006895D01*
X032193Y006851D01*
X032146Y006811D01*
X032097Y006773D01*
X032045Y006738D01*
X031991Y006706D01*
X031936Y006678D01*
X031879Y006653D01*
X031820Y006632D01*
X031761Y006614D01*
X031700Y006600D01*
X031761Y006586D01*
X031820Y006568D01*
X031879Y006547D01*
X031936Y006522D01*
X031991Y006494D01*
X032045Y006462D01*
X032097Y006427D01*
X032146Y006389D01*
X032193Y006349D01*
X032237Y006305D01*
X032279Y006259D01*
X032318Y006210D01*
X032353Y006159D01*
X032386Y006106D01*
X032415Y006051D01*
X032441Y005994D01*
X032463Y005936D01*
X032482Y005877D01*
X032497Y005816D01*
X032508Y005755D01*
X032516Y005693D01*
X032520Y005631D01*
X032520Y005569D01*
X032516Y005507D01*
X032508Y005445D01*
X032497Y005384D01*
X032482Y005323D01*
X032463Y005264D01*
X032441Y005206D01*
X032415Y005149D01*
X032386Y005094D01*
X032353Y005041D01*
X032318Y004990D01*
X032279Y004941D01*
X032237Y004895D01*
X032193Y004851D01*
X032146Y004811D01*
X032097Y004773D01*
X032045Y004738D01*
X031991Y004706D01*
X031936Y004678D01*
X031879Y004653D01*
X031820Y004632D01*
X031761Y004614D01*
X031700Y004600D01*
X033500Y004600D02*
X033439Y004614D01*
X033380Y004632D01*
X033321Y004653D01*
X033264Y004678D01*
X033209Y004706D01*
X033155Y004738D01*
X033103Y004773D01*
X033054Y004811D01*
X033007Y004851D01*
X032963Y004895D01*
X032921Y004941D01*
X032882Y004990D01*
X032847Y005041D01*
X032814Y005094D01*
X032785Y005149D01*
X032759Y005206D01*
X032737Y005264D01*
X032718Y005323D01*
X032703Y005384D01*
X032692Y005445D01*
X032684Y005507D01*
X032680Y005569D01*
X032680Y005631D01*
X032684Y005693D01*
X032692Y005755D01*
X032703Y005816D01*
X032718Y005877D01*
X032737Y005936D01*
X032759Y005994D01*
X032785Y006051D01*
X032814Y006106D01*
X032847Y006159D01*
X032882Y006210D01*
X032921Y006259D01*
X032963Y006305D01*
X033007Y006349D01*
X033054Y006389D01*
X033103Y006427D01*
X033155Y006462D01*
X033209Y006494D01*
X033264Y006522D01*
X033321Y006547D01*
X033380Y006568D01*
X033439Y006586D01*
X033500Y006600D01*
X033439Y006614D01*
X033380Y006632D01*
X033321Y006653D01*
X033264Y006678D01*
X033209Y006706D01*
X033155Y006738D01*
X033103Y006773D01*
X033054Y006811D01*
X033007Y006851D01*
X032963Y006895D01*
X032921Y006941D01*
X032882Y006990D01*
X032847Y007041D01*
X032814Y007094D01*
X032785Y007149D01*
X032759Y007206D01*
X032737Y007264D01*
X032718Y007323D01*
X032703Y007384D01*
X032692Y007445D01*
X032684Y007507D01*
X032680Y007569D01*
X032680Y007631D01*
X032684Y007693D01*
X032692Y007755D01*
X032703Y007816D01*
X032718Y007877D01*
X032737Y007936D01*
X032759Y007994D01*
X032785Y008051D01*
X032814Y008106D01*
X032847Y008159D01*
X032882Y008210D01*
X032921Y008259D01*
X032963Y008305D01*
X033007Y008349D01*
X033054Y008389D01*
X033103Y008427D01*
X033155Y008462D01*
X033209Y008494D01*
X033264Y008522D01*
X033321Y008547D01*
X033380Y008568D01*
X033439Y008586D01*
X033500Y008600D01*
X034700Y008600D02*
X034761Y008586D01*
X034820Y008568D01*
X034879Y008547D01*
X034936Y008522D01*
X034991Y008494D01*
X035045Y008462D01*
X035097Y008427D01*
X035146Y008389D01*
X035193Y008349D01*
X035237Y008305D01*
X035279Y008259D01*
X035318Y008210D01*
X035353Y008159D01*
X035386Y008106D01*
X035415Y008051D01*
X035441Y007994D01*
X035463Y007936D01*
X035482Y007877D01*
X035497Y007816D01*
X035508Y007755D01*
X035516Y007693D01*
X035520Y007631D01*
X035520Y007569D01*
X035516Y007507D01*
X035508Y007445D01*
X035497Y007384D01*
X035482Y007323D01*
X035463Y007264D01*
X035441Y007206D01*
X035415Y007149D01*
X035386Y007094D01*
X035353Y007041D01*
X035318Y006990D01*
X035279Y006941D01*
X035237Y006895D01*
X035193Y006851D01*
X035146Y006811D01*
X035097Y006773D01*
X035045Y006738D01*
X034991Y006706D01*
X034936Y006678D01*
X034879Y006653D01*
X034820Y006632D01*
X034761Y006614D01*
X034700Y006600D01*
X034761Y006586D01*
X034820Y006568D01*
X034879Y006547D01*
X034936Y006522D01*
X034991Y006494D01*
X035045Y006462D01*
X035097Y006427D01*
X035146Y006389D01*
X035193Y006349D01*
X035237Y006305D01*
X035279Y006259D01*
X035318Y006210D01*
X035353Y006159D01*
X035386Y006106D01*
X035415Y006051D01*
X035441Y005994D01*
X035463Y005936D01*
X035482Y005877D01*
X035497Y005816D01*
X035508Y005755D01*
X035516Y005693D01*
X035520Y005631D01*
X035520Y005569D01*
X035516Y005507D01*
X035508Y005445D01*
X035497Y005384D01*
X035482Y005323D01*
X035463Y005264D01*
X035441Y005206D01*
X035415Y005149D01*
X035386Y005094D01*
X035353Y005041D01*
X035318Y004990D01*
X035279Y004941D01*
X035237Y004895D01*
X035193Y004851D01*
X035146Y004811D01*
X035097Y004773D01*
X035045Y004738D01*
X034991Y004706D01*
X034936Y004678D01*
X034879Y004653D01*
X034820Y004632D01*
X034761Y004614D01*
X034700Y004600D01*
X036500Y004600D02*
X036439Y004614D01*
X036380Y004632D01*
X036321Y004653D01*
X036264Y004678D01*
X036209Y004706D01*
X036155Y004738D01*
X036103Y004773D01*
X036054Y004811D01*
X036007Y004851D01*
X035963Y004895D01*
X035921Y004941D01*
X035882Y004990D01*
X035847Y005041D01*
X035814Y005094D01*
X035785Y005149D01*
X035759Y005206D01*
X035737Y005264D01*
X035718Y005323D01*
X035703Y005384D01*
X035692Y005445D01*
X035684Y005507D01*
X035680Y005569D01*
X035680Y005631D01*
X035684Y005693D01*
X035692Y005755D01*
X035703Y005816D01*
X035718Y005877D01*
X035737Y005936D01*
X035759Y005994D01*
X035785Y006051D01*
X035814Y006106D01*
X035847Y006159D01*
X035882Y006210D01*
X035921Y006259D01*
X035963Y006305D01*
X036007Y006349D01*
X036054Y006389D01*
X036103Y006427D01*
X036155Y006462D01*
X036209Y006494D01*
X036264Y006522D01*
X036321Y006547D01*
X036380Y006568D01*
X036439Y006586D01*
X036500Y006600D01*
X036439Y006614D01*
X036380Y006632D01*
X036321Y006653D01*
X036264Y006678D01*
X036209Y006706D01*
X036155Y006738D01*
X036103Y006773D01*
X036054Y006811D01*
X036007Y006851D01*
X035963Y006895D01*
X035921Y006941D01*
X035882Y006990D01*
X035847Y007041D01*
X035814Y007094D01*
X035785Y007149D01*
X035759Y007206D01*
X035737Y007264D01*
X035718Y007323D01*
X035703Y007384D01*
X035692Y007445D01*
X035684Y007507D01*
X035680Y007569D01*
X035680Y007631D01*
X035684Y007693D01*
X035692Y007755D01*
X035703Y007816D01*
X035718Y007877D01*
X035737Y007936D01*
X035759Y007994D01*
X035785Y008051D01*
X035814Y008106D01*
X035847Y008159D01*
X035882Y008210D01*
X035921Y008259D01*
X035963Y008305D01*
X036007Y008349D01*
X036054Y008389D01*
X036103Y008427D01*
X036155Y008462D01*
X036209Y008494D01*
X036264Y008522D01*
X036321Y008547D01*
X036380Y008568D01*
X036439Y008586D01*
X036500Y008600D01*
X037700Y008600D02*
X037761Y008586D01*
X037820Y008568D01*
X037879Y008547D01*
X037936Y008522D01*
X037991Y008494D01*
X038045Y008462D01*
X038097Y008427D01*
X038146Y008389D01*
X038193Y008349D01*
X038237Y008305D01*
X038279Y008259D01*
X038318Y008210D01*
X038353Y008159D01*
X038386Y008106D01*
X038415Y008051D01*
X038441Y007994D01*
X038463Y007936D01*
X038482Y007877D01*
X038497Y007816D01*
X038508Y007755D01*
X038516Y007693D01*
X038520Y007631D01*
X038520Y007569D01*
X038516Y007507D01*
X038508Y007445D01*
X038497Y007384D01*
X038482Y007323D01*
X038463Y007264D01*
X038441Y007206D01*
X038415Y007149D01*
X038386Y007094D01*
X038353Y007041D01*
X038318Y006990D01*
X038279Y006941D01*
X038237Y006895D01*
X038193Y006851D01*
X038146Y006811D01*
X038097Y006773D01*
X038045Y006738D01*
X037991Y006706D01*
X037936Y006678D01*
X037879Y006653D01*
X037820Y006632D01*
X037761Y006614D01*
X037700Y006600D01*
X037761Y006586D01*
X037820Y006568D01*
X037879Y006547D01*
X037936Y006522D01*
X037991Y006494D01*
X038045Y006462D01*
X038097Y006427D01*
X038146Y006389D01*
X038193Y006349D01*
X038237Y006305D01*
X038279Y006259D01*
X038318Y006210D01*
X038353Y006159D01*
X038386Y006106D01*
X038415Y006051D01*
X038441Y005994D01*
X038463Y005936D01*
X038482Y005877D01*
X038497Y005816D01*
X038508Y005755D01*
X038516Y005693D01*
X038520Y005631D01*
X038520Y005569D01*
X038516Y005507D01*
X038508Y005445D01*
X038497Y005384D01*
X038482Y005323D01*
X038463Y005264D01*
X038441Y005206D01*
X038415Y005149D01*
X038386Y005094D01*
X038353Y005041D01*
X038318Y004990D01*
X038279Y004941D01*
X038237Y004895D01*
X038193Y004851D01*
X038146Y004811D01*
X038097Y004773D01*
X038045Y004738D01*
X037991Y004706D01*
X037936Y004678D01*
X037879Y004653D01*
X037820Y004632D01*
X037761Y004614D01*
X037700Y004600D01*
X055610Y001725D02*
X055612Y001795D01*
X055618Y001865D01*
X055628Y001935D01*
X055642Y002003D01*
X055659Y002071D01*
X055681Y002138D01*
X055706Y002204D01*
X055735Y002268D01*
X055767Y002330D01*
X055803Y002390D01*
X055843Y002448D01*
X055885Y002504D01*
X055931Y002557D01*
X055979Y002608D01*
X056031Y002656D01*
X056085Y002701D01*
X056141Y002742D01*
X056200Y002781D01*
X056261Y002816D01*
X056323Y002848D01*
X056388Y002876D01*
X056453Y002900D01*
X056521Y002920D01*
X056589Y002937D01*
X056658Y002950D01*
X056727Y002959D01*
X056797Y002964D01*
X056868Y002965D01*
X056938Y002962D01*
X057008Y002955D01*
X057077Y002944D01*
X057145Y002929D01*
X057213Y002911D01*
X057280Y002888D01*
X057345Y002862D01*
X057408Y002832D01*
X057470Y002799D01*
X057530Y002762D01*
X057587Y002722D01*
X057643Y002679D01*
X057695Y002632D01*
X057745Y002583D01*
X057792Y002531D01*
X057836Y002476D01*
X057877Y002419D01*
X057915Y002360D01*
X057949Y002299D01*
X057980Y002236D01*
X058007Y002171D01*
X058030Y002105D01*
X058050Y002037D01*
X058066Y001969D01*
X058078Y001900D01*
X058086Y001830D01*
X058090Y001760D01*
X058090Y001690D01*
X058086Y001620D01*
X058078Y001550D01*
X058066Y001481D01*
X058050Y001413D01*
X058030Y001345D01*
X058007Y001279D01*
X057980Y001214D01*
X057949Y001151D01*
X057915Y001090D01*
X057877Y001031D01*
X057836Y000974D01*
X057792Y000919D01*
X057745Y000867D01*
X057695Y000818D01*
X057643Y000771D01*
X057587Y000728D01*
X057530Y000688D01*
X057470Y000651D01*
X057408Y000618D01*
X057345Y000588D01*
X057280Y000562D01*
X057213Y000539D01*
X057145Y000521D01*
X057077Y000506D01*
X057008Y000495D01*
X056938Y000488D01*
X056868Y000485D01*
X056797Y000486D01*
X056727Y000491D01*
X056658Y000500D01*
X056589Y000513D01*
X056521Y000530D01*
X056453Y000550D01*
X056388Y000574D01*
X056323Y000602D01*
X056261Y000634D01*
X056200Y000669D01*
X056141Y000708D01*
X056085Y000749D01*
X056031Y000794D01*
X055979Y000842D01*
X055931Y000893D01*
X055885Y000946D01*
X055843Y001002D01*
X055803Y001060D01*
X055767Y001120D01*
X055735Y001182D01*
X055706Y001246D01*
X055681Y001312D01*
X055659Y001379D01*
X055642Y001447D01*
X055628Y001515D01*
X055618Y001585D01*
X055612Y001655D01*
X055610Y001725D01*
X057350Y002225D02*
X057350Y002725D01*
X057100Y002475D02*
X057600Y002475D01*
X008850Y011000D02*
X008850Y011600D01*
X006850Y011600D01*
X006850Y011000D01*
X006864Y010939D01*
X006882Y010880D01*
X006903Y010821D01*
X006928Y010764D01*
X006956Y010709D01*
X006988Y010655D01*
X007023Y010603D01*
X007061Y010554D01*
X007101Y010507D01*
X007145Y010463D01*
X007191Y010421D01*
X007240Y010382D01*
X007291Y010347D01*
X007344Y010314D01*
X007399Y010285D01*
X007456Y010259D01*
X007514Y010237D01*
X007573Y010218D01*
X007634Y010203D01*
X007695Y010192D01*
X007757Y010184D01*
X007819Y010180D01*
X007881Y010180D01*
X007943Y010184D01*
X008005Y010192D01*
X008066Y010203D01*
X008127Y010218D01*
X008186Y010237D01*
X008244Y010259D01*
X008301Y010285D01*
X008356Y010314D01*
X008409Y010347D01*
X008460Y010382D01*
X008509Y010421D01*
X008555Y010463D01*
X008599Y010507D01*
X008639Y010554D01*
X008677Y010603D01*
X008712Y010655D01*
X008744Y010709D01*
X008772Y010764D01*
X008797Y010821D01*
X008818Y010880D01*
X008836Y010939D01*
X008850Y011000D01*
X008850Y012500D02*
X008850Y013100D01*
X006850Y013100D01*
X006850Y012500D01*
X006864Y012439D01*
X006882Y012380D01*
X006903Y012321D01*
X006928Y012264D01*
X006956Y012209D01*
X006988Y012155D01*
X007023Y012103D01*
X007061Y012054D01*
X007101Y012007D01*
X007145Y011963D01*
X007191Y011921D01*
X007240Y011882D01*
X007291Y011847D01*
X007344Y011814D01*
X007399Y011785D01*
X007456Y011759D01*
X007514Y011737D01*
X007573Y011718D01*
X007634Y011703D01*
X007695Y011692D01*
X007757Y011684D01*
X007819Y011680D01*
X007881Y011680D01*
X007943Y011684D01*
X008005Y011692D01*
X008066Y011703D01*
X008127Y011718D01*
X008186Y011737D01*
X008244Y011759D01*
X008301Y011785D01*
X008356Y011814D01*
X008409Y011847D01*
X008460Y011882D01*
X008509Y011921D01*
X008555Y011963D01*
X008599Y012007D01*
X008639Y012054D01*
X008677Y012103D01*
X008712Y012155D01*
X008744Y012209D01*
X008772Y012264D01*
X008797Y012321D01*
X008818Y012380D01*
X008836Y012439D01*
X008850Y012500D01*
X008850Y014000D02*
X008850Y014600D01*
X006850Y014600D01*
X006850Y014000D01*
X006864Y013939D01*
X006882Y013880D01*
X006903Y013821D01*
X006928Y013764D01*
X006956Y013709D01*
X006988Y013655D01*
X007023Y013603D01*
X007061Y013554D01*
X007101Y013507D01*
X007145Y013463D01*
X007191Y013421D01*
X007240Y013382D01*
X007291Y013347D01*
X007344Y013314D01*
X007399Y013285D01*
X007456Y013259D01*
X007514Y013237D01*
X007573Y013218D01*
X007634Y013203D01*
X007695Y013192D01*
X007757Y013184D01*
X007819Y013180D01*
X007881Y013180D01*
X007943Y013184D01*
X008005Y013192D01*
X008066Y013203D01*
X008127Y013218D01*
X008186Y013237D01*
X008244Y013259D01*
X008301Y013285D01*
X008356Y013314D01*
X008409Y013347D01*
X008460Y013382D01*
X008509Y013421D01*
X008555Y013463D01*
X008599Y013507D01*
X008639Y013554D01*
X008677Y013603D01*
X008712Y013655D01*
X008744Y013709D01*
X008772Y013764D01*
X008797Y013821D01*
X008818Y013880D01*
X008836Y013939D01*
X008850Y014000D01*
D16*
X010750Y013475D02*
X010750Y013025D01*
X010975Y013250D02*
X010525Y013250D01*
X013525Y013250D02*
X013975Y013250D01*
X013750Y013025D02*
X013750Y013475D01*
X016525Y013250D02*
X016975Y013250D01*
X016750Y013025D02*
X016750Y013475D01*
X019525Y013250D02*
X019975Y013250D01*
X019750Y013025D02*
X019750Y013475D01*
X022525Y013250D02*
X022975Y013250D01*
X022750Y013025D02*
X022750Y013475D01*
X025525Y013250D02*
X025975Y013250D01*
X025750Y013025D02*
X025750Y013475D01*
X028525Y013250D02*
X028975Y013250D01*
X028750Y013025D02*
X028750Y013475D01*
X031525Y013250D02*
X031975Y013250D01*
X031750Y013025D02*
X031750Y013475D01*
X034525Y013250D02*
X034975Y013250D01*
X034750Y013025D02*
X034750Y013475D01*
X037525Y013250D02*
X037975Y013250D01*
X037750Y013025D02*
X037750Y013475D01*
X040525Y013250D02*
X040975Y013250D01*
X040750Y013025D02*
X040750Y013475D01*
X043525Y013250D02*
X043975Y013250D01*
X043750Y013025D02*
X043750Y013475D01*
X046525Y013250D02*
X046975Y013250D01*
X046750Y013025D02*
X046750Y013475D01*
X049525Y013250D02*
X049975Y013250D01*
X049750Y013025D02*
X049750Y013475D01*
X052525Y013250D02*
X052975Y013250D01*
X052750Y013025D02*
X052750Y013475D01*
X055525Y013250D02*
X055975Y013250D01*
X055750Y013025D02*
X055750Y013475D01*
X020000Y001975D02*
X020000Y001525D01*
X020225Y001750D02*
X019775Y001750D01*
X002225Y005250D02*
X001775Y005250D01*
X002000Y005025D02*
X002000Y005475D01*
X002000Y007275D02*
X002000Y007725D01*
X002225Y007500D02*
X001775Y007500D01*
X002000Y009525D02*
X002000Y009975D01*
X002225Y009750D02*
X001775Y009750D01*
X002000Y011775D02*
X002000Y012225D01*
X002225Y012000D02*
X001775Y012000D01*
M02*
