%
M48
M72
T01C0.0197
T02C0.0276
T03C0.0315
T04C0.0472
T05C0.0512
T06C0.1260
%
T01
X9600Y3600
X11100Y4100
X16725Y4100
X17225Y3600
X20600Y3600
X23100Y3850
X24100Y4100
X27100Y4100
X29100Y3850
X31100Y3350
X32600Y3600
X33850Y3850
X35350Y3350
X36600Y2850
X36600Y4100
X39100Y4100
X41100Y3850
X46850Y3850
X47600Y3350
X48600Y4100
X51100Y4100
X53100Y4100
X47600Y6100
X35600Y6100
X20600Y6100
T02
X21600Y6100
X22600Y6100
X23100Y5600
X24100Y5600
X24600Y5100
X25600Y5100
X26100Y5600
X27100Y5600
X27600Y5100
X28600Y5100
X29100Y5600
X30100Y5600
X30600Y5100
X31600Y5100
X32100Y5600
X33100Y5600
X33600Y5100
X34600Y5100
X35100Y5600
X36100Y5600
X36600Y5100
X37600Y5100
X38100Y5600
X39100Y5600
X39600Y5100
X40600Y5100
X41100Y5600
X42100Y5600
X42600Y5100
X43600Y5100
X44100Y5600
X45100Y5600
X45600Y5100
X46600Y5100
X47100Y5600
X48100Y5600
X48600Y5100
X49600Y5100
X50100Y5600
X51100Y5600
X51600Y5100
X52600Y5100
X53100Y5600
X54100Y5600
X54600Y5100
X55600Y5100
X56100Y5600
X57100Y5600
X57600Y5100
X57600Y6100
X55600Y6100
X54600Y6100
X52600Y6100
X51600Y6100
X49600Y6100
X48600Y6100
X46600Y6100
X45600Y6100
X43600Y6100
X42600Y6100
X40600Y6100
X39600Y6100
X37600Y6100
X36600Y6100
X34600Y6100
X33600Y6100
X31600Y6100
X30600Y6100
X28600Y6100
X27600Y6100
X25600Y6100
X24600Y6100
X21100Y5600
X20100Y5600
X19600Y5100
X18600Y5100
X18100Y5600
X17100Y5600
X16600Y5100
X15600Y5100
X15100Y5600
X14100Y5600
X13600Y5100
X12600Y5100
X12100Y5600
X11100Y5600
X10600Y5100
X8350Y5100
X7350Y5100
X7850Y4600
X7350Y3600
X7850Y3100
X8350Y3600
X7850Y6100
X7350Y6600
X8350Y6600
X10600Y6100
X12600Y6100
X13600Y6100
X15600Y6100
X16600Y6100
X18600Y6100
X19600Y6100
X19600Y7100
X18600Y7100
X18100Y7600
X17100Y7600
X16600Y7100
X15600Y7100
X15100Y7600
X14100Y7600
X13600Y7100
X12600Y7100
X12100Y7600
X11100Y7600
X10600Y7100
X7850Y7600
X7350Y8100
X8350Y8100
X10600Y8100
X12600Y8100
X13600Y8100
X15600Y8100
X16600Y8100
X17600Y8850
X17100Y9350
X18100Y9350
X20100Y9350
X21100Y9350
X20600Y8850
X19600Y8100
X18600Y8100
X20100Y7600
X21100Y7600
X21600Y7100
X22600Y7100
X23100Y7600
X24100Y7600
X24600Y7100
X25600Y7100
X26100Y7600
X27100Y7600
X27600Y7100
X28600Y7100
X29100Y7600
X30100Y7600
X30600Y7100
X31600Y7100
X32100Y7600
X33100Y7600
X33600Y7100
X34600Y7100
X35100Y7600
X36100Y7600
X36600Y7100
X37600Y7100
X38100Y7600
X39100Y7600
X39600Y7100
X40600Y7100
X41100Y7600
X42100Y7600
X42600Y7100
X43600Y7100
X44100Y7600
X45100Y7600
X45600Y7100
X46600Y7100
X47100Y7600
X48100Y7600
X48600Y7100
X49600Y7100
X50100Y7600
X51100Y7600
X51600Y7100
X52600Y7100
X53100Y7600
X54100Y7600
X54600Y7100
X55600Y7100
X56100Y7600
X57100Y7600
X57600Y7100
X57600Y8100
X55600Y8100
X54600Y8100
X52600Y8100
X51600Y8100
X49600Y8100
X48600Y8100
X46600Y8100
X45600Y8100
X43600Y8100
X42600Y8100
X40600Y8100
X39600Y8100
X38600Y8850
X38100Y9350
X39100Y9350
X41100Y9350
X42100Y9350
X41600Y8850
X44100Y9350
X45100Y9350
X44600Y8850
X47100Y9350
X48100Y9350
X47600Y8850
X50100Y9350
X51100Y9350
X50600Y8850
X53100Y9350
X54100Y9350
X53600Y8850
X56100Y9350
X57100Y9350
X56600Y8850
X37600Y8100
X36600Y8100
X34600Y8100
X33600Y8100
X31600Y8100
X30600Y8100
X28600Y8100
X27600Y8100
X25600Y8100
X24600Y8100
X22600Y8100
X21600Y8100
X23600Y8850
X23100Y9350
X24100Y9350
X26100Y9350
X27100Y9350
X26600Y8850
X29100Y9350
X30100Y9350
X29600Y8850
X32100Y9350
X33100Y9350
X32600Y8850
X35100Y9350
X36100Y9350
X35600Y8850
X22600Y5100
X21600Y5100
X22600Y2350
X22100Y1850
X22600Y1350
X23600Y1850
X25100Y1850
X25600Y1350
X24100Y1350
X26600Y1850
X27100Y1350
X27100Y2350
X25600Y2350
X24100Y2350
X14600Y8850
X14100Y9350
X15100Y9350
X12100Y9350
X11100Y9350
X11600Y8850
X8350Y9600
X7350Y9600
X7850Y9100
X7850Y10600
X7350Y11100
X8350Y11100
X7850Y12100
X7350Y12600
X8350Y12600
X7850Y13600
X7350Y14100
X8350Y14100
T03
X6350Y14100
X4350Y14100
X4350Y13100
X6350Y13100
X6350Y12100
X4350Y12100
X3350Y11600
X2350Y11600
X4350Y11100
X6350Y11100
X6350Y10100
X4350Y10100
X3350Y9350
X2350Y9350
X4350Y9100
X6350Y9100
X6350Y8100
X4350Y8100
X4350Y7100
X3350Y7100
X2350Y7100
X4350Y6100
X6350Y6100
X6350Y5100
X4350Y5100
X3350Y4850
X2350Y4850
X4350Y4100
X6350Y4100
X6350Y3100
X4350Y3100
X9100Y1100
X11100Y1100
X19350Y2350
X21350Y2350
X21350Y1350
X20350Y1350
X28100Y1100
X30100Y1100
X30100Y1850
X28100Y1850
X28100Y2600
X30100Y2600
X45100Y1850
X47100Y1850
X56350Y1725
X57350Y1725
X59850Y7600
X59850Y9600
X57600Y10350
X55600Y10350
X54600Y10350
X52600Y10350
X51600Y10350
X49600Y10350
X48600Y10350
X46600Y10350
X45600Y10350
X43600Y10350
X42600Y10350
X40600Y10350
X39600Y10350
X39600Y11100
X40600Y11100
X42600Y11100
X43600Y11100
X45600Y11100
X46600Y11100
X48600Y11100
X49600Y11100
X51600Y11100
X52600Y11100
X54600Y11100
X55600Y11100
X57600Y11100
X54600Y11850
X55600Y12100
X57600Y12100
X57100Y12850
X56100Y12850
X54100Y12850
X53100Y12850
X51100Y12850
X50100Y12850
X48100Y12850
X47100Y12850
X45100Y12850
X44100Y12850
X42100Y12850
X41100Y12850
X39100Y12850
X38100Y12850
X36100Y12850
X35100Y12850
X33100Y12850
X32100Y12850
X30100Y12850
X29100Y12850
X27100Y12850
X26100Y12850
X24100Y12850
X23100Y12850
X21100Y12850
X20100Y12850
X18100Y12850
X17100Y12850
X15100Y12850
X14100Y12850
X12100Y12850
X11100Y12850
X10600Y11850
X12600Y11850
X13600Y11850
X15600Y11850
X16600Y11850
X16600Y11100
X15600Y11100
X13600Y11100
X12600Y11100
X10600Y11100
X10600Y10350
X12600Y10350
X13600Y10350
X15600Y10350
X16600Y10350
X18600Y10350
X19600Y10350
X21600Y10350
X22600Y10350
X24600Y10350
X25600Y10350
X27600Y10350
X28600Y10350
X30600Y10350
X31600Y10350
X33600Y10350
X34600Y10350
X36600Y10350
X37600Y10350
X37600Y11100
X36600Y11100
X34600Y11100
X33600Y11100
X31600Y11100
X30600Y11100
X28600Y11100
X27600Y11100
X25600Y11100
X24600Y11100
X22600Y11100
X21600Y11100
X19600Y11100
X18600Y11100
X18600Y11850
X19600Y11850
X21600Y11850
X22600Y11850
X24600Y11850
X25600Y11850
X27600Y11850
X28600Y11850
X30600Y11850
X31600Y11850
X33600Y11850
X34600Y11850
X36600Y11850
X37600Y11850
X39600Y11850
X40600Y11850
X42600Y11850
X43600Y11850
X45600Y11850
X46600Y11850
X48600Y11850
X49600Y11850
X51600Y11850
X52600Y11850
X8600Y15850
X6600Y15850
X6350Y7100
T04
X1225Y7600
X1225Y5350
X1225Y9850
X1225Y12100
X11600Y14100
X14600Y14100
X17600Y14100
X20600Y14100
X23600Y14100
X26600Y14100
X29600Y14100
X32600Y14100
X35600Y14350
X38600Y14100
X41600Y14100
X44600Y14100
X47600Y14100
X50600Y14100
X53600Y14100
X56600Y14100
X56600Y15600
X53600Y15600
X50600Y15600
X47600Y15600
X44600Y15600
X41600Y15600
X38600Y15600
X35600Y15600
X32600Y15600
X29600Y15600
X26600Y15600
X23600Y15600
X20600Y15600
X17600Y15600
X14600Y15600
X11600Y15600
X19225Y1350
T05
X49975Y2100
X52475Y2100
T06
X1350Y1350
X1350Y15850
X59600Y15850
X59600Y1350
M30
