G75*
G70*
%OFA0B0*%
%FSLAX24Y24*%
%IPPOS*%
%LPD*%
%AMOC8*
5,1,8,0,0,1.08239X$1,22.5*
%
%ADD10C,0.0515*%
%ADD11C,0.0476*%
%ADD12R,0.0709X0.0709*%
%ADD13R,0.1500X0.1500*%
%ADD14C,0.0160*%
%ADD15C,0.0400*%
D10*
X009100Y001100D03*
X011100Y001100D03*
X006350Y003100D03*
X004350Y003100D03*
X004350Y004100D03*
X006350Y004100D03*
X003350Y004850D03*
X002350Y004850D03*
X004350Y005100D03*
X006350Y005100D03*
X006350Y006100D03*
X004350Y006100D03*
X004350Y007100D03*
X003350Y007100D03*
X002350Y007100D03*
X004350Y008100D03*
X006350Y008100D03*
X006350Y009100D03*
X004350Y009100D03*
X003350Y009350D03*
X002350Y009350D03*
X004350Y010100D03*
X006350Y010100D03*
X006350Y011100D03*
X004350Y011100D03*
X003350Y011600D03*
X002350Y011600D03*
X004350Y012100D03*
X006350Y012100D03*
X006350Y013100D03*
X004350Y013100D03*
X004350Y014100D03*
X006350Y014100D03*
X011100Y012850D03*
X012100Y012850D03*
X014100Y012850D03*
X015100Y012850D03*
X017100Y012850D03*
X018100Y012850D03*
X020100Y012850D03*
X021100Y012850D03*
X023100Y012850D03*
X024100Y012850D03*
X026100Y012850D03*
X027100Y012850D03*
X029100Y012850D03*
X030100Y012850D03*
X032100Y012850D03*
X033100Y012850D03*
X035100Y012850D03*
X036100Y012850D03*
X038100Y012850D03*
X039100Y012850D03*
X041100Y012850D03*
X042100Y012850D03*
X044100Y012850D03*
X045100Y012850D03*
X047100Y012850D03*
X048100Y012850D03*
X050100Y012850D03*
X051100Y012850D03*
X053100Y012850D03*
X054100Y012850D03*
X056100Y012850D03*
X057100Y012850D03*
X057600Y012100D03*
X055600Y012100D03*
X054600Y011850D03*
X052600Y011850D03*
X051600Y011850D03*
X049600Y011850D03*
X048600Y011850D03*
X046600Y011850D03*
X045600Y011850D03*
X043600Y011850D03*
X042600Y011850D03*
X040600Y011850D03*
X039600Y011850D03*
X039600Y011100D03*
X040600Y011100D03*
X042600Y011100D03*
X043600Y011100D03*
X045600Y011100D03*
X046600Y011100D03*
X048600Y011100D03*
X049600Y011100D03*
X051600Y011100D03*
X052600Y011100D03*
X054600Y011100D03*
X055600Y011100D03*
X057600Y011100D03*
X057600Y010350D03*
X055600Y010350D03*
X054600Y010350D03*
X052600Y010350D03*
X051600Y010350D03*
X049600Y010350D03*
X048600Y010350D03*
X046600Y010350D03*
X045600Y010350D03*
X043600Y010350D03*
X042600Y010350D03*
X040600Y010350D03*
X039600Y010350D03*
X037600Y010350D03*
X036600Y010350D03*
X034600Y010350D03*
X033600Y010350D03*
X031600Y010350D03*
X030600Y010350D03*
X028600Y010350D03*
X027600Y010350D03*
X025600Y010350D03*
X024600Y010350D03*
X022600Y010350D03*
X021600Y010350D03*
X019600Y010350D03*
X018600Y010350D03*
X018600Y011100D03*
X019600Y011100D03*
X021600Y011100D03*
X022600Y011100D03*
X024600Y011100D03*
X025600Y011100D03*
X027600Y011100D03*
X028600Y011100D03*
X030600Y011100D03*
X031600Y011100D03*
X033600Y011100D03*
X034600Y011100D03*
X036600Y011100D03*
X037600Y011100D03*
X037600Y011850D03*
X036600Y011850D03*
X034600Y011850D03*
X033600Y011850D03*
X031600Y011850D03*
X030600Y011850D03*
X028600Y011850D03*
X027600Y011850D03*
X025600Y011850D03*
X024600Y011850D03*
X022600Y011850D03*
X021600Y011850D03*
X019600Y011850D03*
X018600Y011850D03*
X016600Y011850D03*
X015600Y011850D03*
X013600Y011850D03*
X012600Y011850D03*
X010600Y011850D03*
X010600Y011100D03*
X012600Y011100D03*
X013600Y011100D03*
X015600Y011100D03*
X016600Y011100D03*
X016600Y010350D03*
X015600Y010350D03*
X013600Y010350D03*
X012600Y010350D03*
X010600Y010350D03*
X006350Y007100D03*
X019350Y002350D03*
X021350Y002350D03*
X021350Y001350D03*
X020350Y001350D03*
X028100Y001100D03*
X030100Y001100D03*
X030100Y001850D03*
X028100Y001850D03*
X028100Y002600D03*
X030100Y002600D03*
X045100Y001850D03*
X047100Y001850D03*
X056350Y001725D03*
X057350Y001725D03*
X059850Y007600D03*
X059850Y009600D03*
X008600Y015850D03*
X006600Y015850D03*
D11*
X007350Y014100D03*
X007850Y013600D03*
X008350Y014100D03*
X008350Y012600D03*
X007350Y012600D03*
X007850Y012100D03*
X007350Y011100D03*
X008350Y011100D03*
X007850Y010600D03*
X007350Y009600D03*
X008350Y009600D03*
X007850Y009100D03*
X007350Y008100D03*
X008350Y008100D03*
X007850Y007600D03*
X010600Y007100D03*
X011100Y007600D03*
X012100Y007600D03*
X012600Y007100D03*
X013600Y007100D03*
X014100Y007600D03*
X015100Y007600D03*
X015600Y007100D03*
X016600Y007100D03*
X017100Y007600D03*
X018100Y007600D03*
X018600Y007100D03*
X019600Y007100D03*
X020100Y007600D03*
X021100Y007600D03*
X021600Y007100D03*
X022600Y007100D03*
X023100Y007600D03*
X024100Y007600D03*
X024600Y007100D03*
X025600Y007100D03*
X026100Y007600D03*
X027100Y007600D03*
X027600Y007100D03*
X028600Y007100D03*
X029100Y007600D03*
X030100Y007600D03*
X030600Y007100D03*
X031600Y007100D03*
X032100Y007600D03*
X033100Y007600D03*
X033600Y007100D03*
X034600Y007100D03*
X035100Y007600D03*
X036100Y007600D03*
X036600Y007100D03*
X037600Y007100D03*
X038100Y007600D03*
X039100Y007600D03*
X039600Y007100D03*
X040600Y007100D03*
X041100Y007600D03*
X042100Y007600D03*
X042600Y007100D03*
X043600Y007100D03*
X044100Y007600D03*
X045100Y007600D03*
X045600Y007100D03*
X046600Y007100D03*
X047100Y007600D03*
X048100Y007600D03*
X048600Y007100D03*
X049600Y007100D03*
X050100Y007600D03*
X051100Y007600D03*
X051600Y007100D03*
X052600Y007100D03*
X053100Y007600D03*
X054100Y007600D03*
X054600Y007100D03*
X055600Y007100D03*
X056100Y007600D03*
X057100Y007600D03*
X057600Y007100D03*
X057600Y006100D03*
X057100Y005600D03*
X056100Y005600D03*
X055600Y005100D03*
X054600Y005100D03*
X054100Y005600D03*
X053100Y005600D03*
X052600Y005100D03*
X051600Y005100D03*
X051100Y005600D03*
X050100Y005600D03*
X049600Y005100D03*
X048600Y005100D03*
X048100Y005600D03*
X047100Y005600D03*
X046600Y005100D03*
X045600Y005100D03*
X045100Y005600D03*
X044100Y005600D03*
X043600Y005100D03*
X042600Y005100D03*
X042100Y005600D03*
X041100Y005600D03*
X040600Y005100D03*
X039600Y005100D03*
X039100Y005600D03*
X038100Y005600D03*
X037600Y005100D03*
X036600Y005100D03*
X036100Y005600D03*
X035100Y005600D03*
X034600Y005100D03*
X033600Y005100D03*
X033100Y005600D03*
X032100Y005600D03*
X031600Y005100D03*
X030600Y005100D03*
X030100Y005600D03*
X029100Y005600D03*
X028600Y005100D03*
X027600Y005100D03*
X027100Y005600D03*
X026100Y005600D03*
X025600Y005100D03*
X024600Y005100D03*
X024100Y005600D03*
X023100Y005600D03*
X022600Y005100D03*
X021600Y005100D03*
X021100Y005600D03*
X020100Y005600D03*
X019600Y005100D03*
X018600Y005100D03*
X018100Y005600D03*
X017100Y005600D03*
X016600Y005100D03*
X015600Y005100D03*
X015100Y005600D03*
X014100Y005600D03*
X013600Y005100D03*
X012600Y005100D03*
X012100Y005600D03*
X011100Y005600D03*
X010600Y005100D03*
X008350Y005100D03*
X007350Y005100D03*
X007850Y004600D03*
X007350Y003600D03*
X007850Y003100D03*
X008350Y003600D03*
X007850Y006100D03*
X007350Y006600D03*
X008350Y006600D03*
X010600Y006100D03*
X012600Y006100D03*
X013600Y006100D03*
X015600Y006100D03*
X016600Y006100D03*
X018600Y006100D03*
X019600Y006100D03*
X021600Y006100D03*
X022600Y006100D03*
X024600Y006100D03*
X025600Y006100D03*
X027600Y006100D03*
X028600Y006100D03*
X030600Y006100D03*
X031600Y006100D03*
X033600Y006100D03*
X034600Y006100D03*
X036600Y006100D03*
X037600Y006100D03*
X039600Y006100D03*
X040600Y006100D03*
X042600Y006100D03*
X043600Y006100D03*
X045600Y006100D03*
X046600Y006100D03*
X048600Y006100D03*
X049600Y006100D03*
X051600Y006100D03*
X052600Y006100D03*
X054600Y006100D03*
X055600Y006100D03*
X057600Y005100D03*
X057600Y008100D03*
X055600Y008100D03*
X054600Y008100D03*
X052600Y008100D03*
X051600Y008100D03*
X049600Y008100D03*
X048600Y008100D03*
X046600Y008100D03*
X045600Y008100D03*
X043600Y008100D03*
X042600Y008100D03*
X040600Y008100D03*
X039600Y008100D03*
X038600Y008850D03*
X038100Y009350D03*
X039100Y009350D03*
X041100Y009350D03*
X042100Y009350D03*
X041600Y008850D03*
X044100Y009350D03*
X045100Y009350D03*
X044600Y008850D03*
X047100Y009350D03*
X048100Y009350D03*
X047600Y008850D03*
X050100Y009350D03*
X051100Y009350D03*
X050600Y008850D03*
X053100Y009350D03*
X054100Y009350D03*
X053600Y008850D03*
X056100Y009350D03*
X057100Y009350D03*
X056600Y008850D03*
X037600Y008100D03*
X036600Y008100D03*
X034600Y008100D03*
X033600Y008100D03*
X031600Y008100D03*
X030600Y008100D03*
X028600Y008100D03*
X027600Y008100D03*
X025600Y008100D03*
X024600Y008100D03*
X022600Y008100D03*
X021600Y008100D03*
X019600Y008100D03*
X018600Y008100D03*
X017600Y008850D03*
X017100Y009350D03*
X018100Y009350D03*
X020100Y009350D03*
X021100Y009350D03*
X020600Y008850D03*
X023100Y009350D03*
X024100Y009350D03*
X023600Y008850D03*
X026100Y009350D03*
X027100Y009350D03*
X026600Y008850D03*
X029100Y009350D03*
X030100Y009350D03*
X029600Y008850D03*
X032100Y009350D03*
X033100Y009350D03*
X032600Y008850D03*
X035100Y009350D03*
X036100Y009350D03*
X035600Y008850D03*
X016600Y008100D03*
X015600Y008100D03*
X013600Y008100D03*
X012600Y008100D03*
X010600Y008100D03*
X011600Y008850D03*
X011100Y009350D03*
X012100Y009350D03*
X014100Y009350D03*
X015100Y009350D03*
X014600Y008850D03*
X022600Y002350D03*
X022100Y001850D03*
X022600Y001350D03*
X023600Y001850D03*
X025100Y001850D03*
X025600Y001350D03*
X024100Y001350D03*
X026600Y001850D03*
X027100Y001350D03*
X027100Y002350D03*
X025600Y002350D03*
X024100Y002350D03*
D12*
X019225Y001350D03*
X001225Y005350D03*
X001225Y007600D03*
X001225Y009850D03*
X001225Y012100D03*
X011600Y014100D03*
X014600Y014100D03*
X017600Y014100D03*
X020600Y014100D03*
X023600Y014100D03*
X026600Y014100D03*
X029600Y014100D03*
X032600Y014100D03*
X035600Y014350D03*
X038600Y014100D03*
X041600Y014100D03*
X044600Y014100D03*
X047600Y014100D03*
X050600Y014100D03*
X053600Y014100D03*
X056600Y014100D03*
X056600Y015600D03*
X053600Y015600D03*
X050600Y015600D03*
X047600Y015600D03*
X044600Y015600D03*
X041600Y015600D03*
X038600Y015600D03*
X035600Y015600D03*
X032600Y015600D03*
X029600Y015600D03*
X026600Y015600D03*
X023600Y015600D03*
X020600Y015600D03*
X017600Y015600D03*
X014600Y015600D03*
X011600Y015600D03*
D13*
X049975Y002100D03*
X052475Y002100D03*
D14*
X048600Y003600D02*
X047850Y002850D01*
X044100Y002850D01*
X038100Y002850D01*
X037600Y002350D01*
X032100Y002350D01*
X031100Y002350D01*
X030350Y003350D01*
X026100Y003350D01*
X026100Y005600D01*
X027100Y005600D02*
X027100Y004100D01*
X026100Y003350D02*
X021350Y003350D01*
X021100Y003100D01*
X020100Y003100D01*
X020100Y005600D01*
X019600Y006100D02*
X019600Y006600D01*
X016600Y006600D01*
X016600Y006100D01*
X016600Y006600D02*
X013600Y006600D01*
X013600Y006100D01*
X013600Y006600D02*
X011600Y006600D01*
X011100Y006100D01*
X010600Y006100D01*
X010350Y006600D02*
X010850Y006600D01*
X011850Y007600D01*
X012100Y007600D01*
X011850Y008350D02*
X011350Y008350D01*
X010350Y009350D01*
X010100Y009350D01*
X009350Y010100D01*
X009350Y010350D01*
X009100Y010600D01*
X007850Y010600D01*
X007350Y010350D02*
X007600Y010100D01*
X008850Y010100D01*
X009100Y009850D01*
X009100Y009350D01*
X009850Y008600D01*
X009850Y007100D01*
X010350Y006600D01*
X009600Y007350D02*
X009350Y007600D01*
X007850Y007600D01*
X009600Y007350D02*
X009600Y003600D01*
X009100Y003350D02*
X009350Y003100D01*
X011475Y003100D01*
X020100Y003100D01*
X020600Y003600D02*
X020600Y006100D01*
X019600Y006600D02*
X022600Y006600D01*
X022600Y006100D01*
X022600Y006600D02*
X025600Y006600D01*
X025600Y006100D01*
X025600Y006600D02*
X028600Y006600D01*
X028600Y006100D01*
X028600Y006600D02*
X031600Y006600D01*
X031600Y006100D01*
X031100Y005600D01*
X031100Y003350D01*
X032600Y003600D02*
X032600Y007100D01*
X033100Y007600D01*
X034600Y006600D02*
X034600Y006100D01*
X035600Y006100D02*
X035600Y003600D01*
X035350Y003350D01*
X034350Y003850D02*
X033850Y003850D01*
X034350Y003850D02*
X035100Y004600D01*
X035100Y005600D01*
X036100Y005600D02*
X036100Y004600D01*
X036600Y004100D01*
X037100Y003350D02*
X037100Y005600D01*
X037600Y006100D01*
X037600Y006600D01*
X034600Y006600D01*
X037600Y006600D02*
X040600Y006600D01*
X040600Y006100D01*
X040600Y006600D02*
X043600Y006600D01*
X043600Y006100D01*
X043600Y006600D02*
X046600Y006600D01*
X046600Y006100D01*
X047600Y006100D02*
X047600Y003350D01*
X048600Y003600D02*
X050100Y003600D01*
X053350Y003600D01*
X054100Y004350D01*
X056100Y004350D01*
X056100Y005600D01*
X055600Y006100D02*
X055600Y006600D01*
X052600Y006600D01*
X052600Y006100D01*
X052600Y006600D02*
X049600Y006600D01*
X049600Y006100D01*
X049600Y006600D02*
X046600Y006600D01*
X047100Y005600D02*
X047100Y004100D01*
X046850Y003850D01*
X048100Y004600D02*
X048600Y004100D01*
X048100Y004600D02*
X048100Y005600D01*
X050100Y005600D02*
X050100Y003600D01*
X051100Y004100D02*
X051100Y005600D01*
X053100Y005600D02*
X053100Y004100D01*
X044100Y002850D02*
X044100Y005600D01*
X041100Y005600D02*
X041100Y003850D01*
X039100Y004100D02*
X039100Y005600D01*
X038100Y005600D02*
X038100Y002850D01*
X037100Y003350D02*
X036600Y002850D01*
X032100Y002350D02*
X032100Y005600D01*
X029100Y005600D02*
X029100Y003850D01*
X027850Y002225D02*
X027225Y002850D01*
X026100Y002850D01*
X025600Y002350D01*
X027850Y002225D02*
X027850Y002100D01*
X028100Y001850D01*
X023100Y003850D02*
X023100Y005600D01*
X024100Y005600D02*
X024100Y004100D01*
X018100Y004725D02*
X017225Y003850D01*
X017225Y003600D01*
X016725Y004100D02*
X016725Y004350D01*
X017100Y004725D01*
X017100Y005600D01*
X018100Y005600D02*
X018100Y004725D01*
X014100Y004850D02*
X013725Y004475D01*
X011725Y004475D01*
X011475Y004225D01*
X011475Y003100D01*
X009100Y003350D02*
X009100Y004350D01*
X008850Y004600D01*
X007850Y004600D01*
X011100Y004100D02*
X011100Y005600D01*
X014100Y005600D02*
X014100Y004850D01*
X023100Y008600D02*
X024100Y007600D01*
X023100Y008600D02*
X021100Y008600D01*
X020850Y008350D01*
X020350Y008350D01*
X020100Y008600D01*
X018100Y008600D01*
X017850Y008350D01*
X017350Y008350D01*
X017100Y008600D01*
X015100Y008600D01*
X014850Y008350D01*
X014350Y008350D01*
X014100Y008600D01*
X012100Y008600D01*
X011850Y008350D01*
X011600Y008850D02*
X011600Y009600D01*
X011350Y009850D01*
X010100Y009850D01*
X009850Y010100D01*
X009850Y011350D01*
X009100Y011850D01*
X009100Y012850D01*
X008850Y013100D01*
X007600Y013100D01*
X007350Y013350D01*
X007350Y014100D01*
X007850Y013600D02*
X009350Y013600D01*
X009600Y013350D01*
X009600Y012600D01*
X009850Y012350D01*
X032475Y012350D01*
X032725Y012100D01*
X032725Y010350D01*
X034350Y008850D01*
X035600Y008850D01*
X038600Y008850D01*
X041600Y008850D01*
X044600Y008850D01*
X047600Y008850D01*
X050600Y008850D01*
X053600Y008850D01*
X056600Y008850D01*
X032600Y008850D02*
X029600Y008850D01*
X026600Y008850D01*
X023600Y008850D01*
X020600Y008850D01*
X017600Y008850D01*
X014600Y008850D01*
X011600Y008850D01*
X007350Y010350D02*
X007350Y011100D01*
D15*
X020600Y006100D03*
X024100Y004100D03*
X023100Y003850D03*
X020600Y003600D03*
X017225Y003600D03*
X016725Y004100D03*
X011100Y004100D03*
X009600Y003600D03*
X027100Y004100D03*
X029100Y003850D03*
X031100Y003350D03*
X032600Y003600D03*
X033850Y003850D03*
X035350Y003350D03*
X036600Y002850D03*
X036600Y004100D03*
X039100Y004100D03*
X041100Y003850D03*
X046850Y003850D03*
X047600Y003350D03*
X048600Y004100D03*
X051100Y004100D03*
X053100Y004100D03*
X047600Y006100D03*
X035600Y006100D03*
M02*
