G75*
G70*
%OFA0B0*%
%FSLAX24Y24*%
%IPPOS*%
%LPD*%
%AMOC8*
5,1,8,0,0,1.08239X$1,22.5*
%
%ADD10C,0.0595*%
%ADD11C,0.0556*%
%ADD12C,0.1340*%
%ADD13R,0.0789X0.0789*%
%ADD14R,0.1580X0.1580*%
D10*
X009100Y001100D03*
X011100Y001100D03*
X006350Y003100D03*
X004350Y003100D03*
X004350Y004100D03*
X006350Y004100D03*
X003350Y004850D03*
X002350Y004850D03*
X004350Y005100D03*
X006350Y005100D03*
X006350Y006100D03*
X004350Y006100D03*
X004350Y007100D03*
X003350Y007100D03*
X002350Y007100D03*
X004350Y008100D03*
X006350Y008100D03*
X006350Y009100D03*
X004350Y009100D03*
X003350Y009350D03*
X002350Y009350D03*
X004350Y010100D03*
X006350Y010100D03*
X006350Y011100D03*
X004350Y011100D03*
X003350Y011600D03*
X002350Y011600D03*
X004350Y012100D03*
X006350Y012100D03*
X006350Y013100D03*
X004350Y013100D03*
X004350Y014100D03*
X006350Y014100D03*
X011100Y012850D03*
X012100Y012850D03*
X014100Y012850D03*
X015100Y012850D03*
X017100Y012850D03*
X018100Y012850D03*
X020100Y012850D03*
X021100Y012850D03*
X023100Y012850D03*
X024100Y012850D03*
X026100Y012850D03*
X027100Y012850D03*
X029100Y012850D03*
X030100Y012850D03*
X032100Y012850D03*
X033100Y012850D03*
X035100Y012850D03*
X036100Y012850D03*
X038100Y012850D03*
X039100Y012850D03*
X041100Y012850D03*
X042100Y012850D03*
X044100Y012850D03*
X045100Y012850D03*
X047100Y012850D03*
X048100Y012850D03*
X050100Y012850D03*
X051100Y012850D03*
X053100Y012850D03*
X054100Y012850D03*
X056100Y012850D03*
X057100Y012850D03*
X057600Y012100D03*
X055600Y012100D03*
X054600Y011850D03*
X052600Y011850D03*
X051600Y011850D03*
X049600Y011850D03*
X048600Y011850D03*
X046600Y011850D03*
X045600Y011850D03*
X043600Y011850D03*
X042600Y011850D03*
X040600Y011850D03*
X039600Y011850D03*
X039600Y011100D03*
X040600Y011100D03*
X042600Y011100D03*
X043600Y011100D03*
X045600Y011100D03*
X046600Y011100D03*
X048600Y011100D03*
X049600Y011100D03*
X051600Y011100D03*
X052600Y011100D03*
X054600Y011100D03*
X055600Y011100D03*
X057600Y011100D03*
X057600Y010350D03*
X055600Y010350D03*
X054600Y010350D03*
X052600Y010350D03*
X051600Y010350D03*
X049600Y010350D03*
X048600Y010350D03*
X046600Y010350D03*
X045600Y010350D03*
X043600Y010350D03*
X042600Y010350D03*
X040600Y010350D03*
X039600Y010350D03*
X037600Y010350D03*
X036600Y010350D03*
X034600Y010350D03*
X033600Y010350D03*
X031600Y010350D03*
X030600Y010350D03*
X028600Y010350D03*
X027600Y010350D03*
X025600Y010350D03*
X024600Y010350D03*
X022600Y010350D03*
X021600Y010350D03*
X019600Y010350D03*
X018600Y010350D03*
X018600Y011100D03*
X019600Y011100D03*
X021600Y011100D03*
X022600Y011100D03*
X024600Y011100D03*
X025600Y011100D03*
X027600Y011100D03*
X028600Y011100D03*
X030600Y011100D03*
X031600Y011100D03*
X033600Y011100D03*
X034600Y011100D03*
X036600Y011100D03*
X037600Y011100D03*
X037600Y011850D03*
X036600Y011850D03*
X034600Y011850D03*
X033600Y011850D03*
X031600Y011850D03*
X030600Y011850D03*
X028600Y011850D03*
X027600Y011850D03*
X025600Y011850D03*
X024600Y011850D03*
X022600Y011850D03*
X021600Y011850D03*
X019600Y011850D03*
X018600Y011850D03*
X016600Y011850D03*
X015600Y011850D03*
X013600Y011850D03*
X012600Y011850D03*
X010600Y011850D03*
X010600Y011100D03*
X012600Y011100D03*
X013600Y011100D03*
X015600Y011100D03*
X016600Y011100D03*
X016600Y010350D03*
X015600Y010350D03*
X013600Y010350D03*
X012600Y010350D03*
X010600Y010350D03*
X006350Y007100D03*
X019350Y002350D03*
X021350Y002350D03*
X021350Y001350D03*
X020350Y001350D03*
X028100Y001100D03*
X030100Y001100D03*
X030100Y001850D03*
X028100Y001850D03*
X028100Y002600D03*
X030100Y002600D03*
X045100Y001850D03*
X047100Y001850D03*
X056350Y001725D03*
X057350Y001725D03*
X059850Y007600D03*
X059850Y009600D03*
X008600Y015850D03*
X006600Y015850D03*
D11*
X007350Y014100D03*
X007850Y013600D03*
X008350Y014100D03*
X008350Y012600D03*
X007350Y012600D03*
X007850Y012100D03*
X007350Y011100D03*
X008350Y011100D03*
X007850Y010600D03*
X007350Y009600D03*
X008350Y009600D03*
X007850Y009100D03*
X007350Y008100D03*
X008350Y008100D03*
X007850Y007600D03*
X010600Y007100D03*
X011100Y007600D03*
X012100Y007600D03*
X012600Y007100D03*
X013600Y007100D03*
X014100Y007600D03*
X015100Y007600D03*
X015600Y007100D03*
X016600Y007100D03*
X017100Y007600D03*
X018100Y007600D03*
X018600Y007100D03*
X019600Y007100D03*
X020100Y007600D03*
X021100Y007600D03*
X021600Y007100D03*
X022600Y007100D03*
X023100Y007600D03*
X024100Y007600D03*
X024600Y007100D03*
X025600Y007100D03*
X026100Y007600D03*
X027100Y007600D03*
X027600Y007100D03*
X028600Y007100D03*
X029100Y007600D03*
X030100Y007600D03*
X030600Y007100D03*
X031600Y007100D03*
X032100Y007600D03*
X033100Y007600D03*
X033600Y007100D03*
X034600Y007100D03*
X035100Y007600D03*
X036100Y007600D03*
X036600Y007100D03*
X037600Y007100D03*
X038100Y007600D03*
X039100Y007600D03*
X039600Y007100D03*
X040600Y007100D03*
X041100Y007600D03*
X042100Y007600D03*
X042600Y007100D03*
X043600Y007100D03*
X044100Y007600D03*
X045100Y007600D03*
X045600Y007100D03*
X046600Y007100D03*
X047100Y007600D03*
X048100Y007600D03*
X048600Y007100D03*
X049600Y007100D03*
X050100Y007600D03*
X051100Y007600D03*
X051600Y007100D03*
X052600Y007100D03*
X053100Y007600D03*
X054100Y007600D03*
X054600Y007100D03*
X055600Y007100D03*
X056100Y007600D03*
X057100Y007600D03*
X057600Y007100D03*
X057600Y006100D03*
X057100Y005600D03*
X056100Y005600D03*
X055600Y005100D03*
X054600Y005100D03*
X054100Y005600D03*
X053100Y005600D03*
X052600Y005100D03*
X051600Y005100D03*
X051100Y005600D03*
X050100Y005600D03*
X049600Y005100D03*
X048600Y005100D03*
X048100Y005600D03*
X047100Y005600D03*
X046600Y005100D03*
X045600Y005100D03*
X045100Y005600D03*
X044100Y005600D03*
X043600Y005100D03*
X042600Y005100D03*
X042100Y005600D03*
X041100Y005600D03*
X040600Y005100D03*
X039600Y005100D03*
X039100Y005600D03*
X038100Y005600D03*
X037600Y005100D03*
X036600Y005100D03*
X036100Y005600D03*
X035100Y005600D03*
X034600Y005100D03*
X033600Y005100D03*
X033100Y005600D03*
X032100Y005600D03*
X031600Y005100D03*
X030600Y005100D03*
X030100Y005600D03*
X029100Y005600D03*
X028600Y005100D03*
X027600Y005100D03*
X027100Y005600D03*
X026100Y005600D03*
X025600Y005100D03*
X024600Y005100D03*
X024100Y005600D03*
X023100Y005600D03*
X022600Y005100D03*
X021600Y005100D03*
X021100Y005600D03*
X020100Y005600D03*
X019600Y005100D03*
X018600Y005100D03*
X018100Y005600D03*
X017100Y005600D03*
X016600Y005100D03*
X015600Y005100D03*
X015100Y005600D03*
X014100Y005600D03*
X013600Y005100D03*
X012600Y005100D03*
X012100Y005600D03*
X011100Y005600D03*
X010600Y005100D03*
X008350Y005100D03*
X007350Y005100D03*
X007850Y004600D03*
X007350Y003600D03*
X007850Y003100D03*
X008350Y003600D03*
X007850Y006100D03*
X007350Y006600D03*
X008350Y006600D03*
X010600Y006100D03*
X012600Y006100D03*
X013600Y006100D03*
X015600Y006100D03*
X016600Y006100D03*
X018600Y006100D03*
X019600Y006100D03*
X021600Y006100D03*
X022600Y006100D03*
X024600Y006100D03*
X025600Y006100D03*
X027600Y006100D03*
X028600Y006100D03*
X030600Y006100D03*
X031600Y006100D03*
X033600Y006100D03*
X034600Y006100D03*
X036600Y006100D03*
X037600Y006100D03*
X039600Y006100D03*
X040600Y006100D03*
X042600Y006100D03*
X043600Y006100D03*
X045600Y006100D03*
X046600Y006100D03*
X048600Y006100D03*
X049600Y006100D03*
X051600Y006100D03*
X052600Y006100D03*
X054600Y006100D03*
X055600Y006100D03*
X057600Y005100D03*
X057600Y008100D03*
X055600Y008100D03*
X054600Y008100D03*
X052600Y008100D03*
X051600Y008100D03*
X049600Y008100D03*
X048600Y008100D03*
X046600Y008100D03*
X045600Y008100D03*
X043600Y008100D03*
X042600Y008100D03*
X040600Y008100D03*
X039600Y008100D03*
X038600Y008850D03*
X038100Y009350D03*
X039100Y009350D03*
X041100Y009350D03*
X042100Y009350D03*
X041600Y008850D03*
X044100Y009350D03*
X045100Y009350D03*
X044600Y008850D03*
X047100Y009350D03*
X048100Y009350D03*
X047600Y008850D03*
X050100Y009350D03*
X051100Y009350D03*
X050600Y008850D03*
X053100Y009350D03*
X054100Y009350D03*
X053600Y008850D03*
X056100Y009350D03*
X057100Y009350D03*
X056600Y008850D03*
X037600Y008100D03*
X036600Y008100D03*
X034600Y008100D03*
X033600Y008100D03*
X031600Y008100D03*
X030600Y008100D03*
X028600Y008100D03*
X027600Y008100D03*
X025600Y008100D03*
X024600Y008100D03*
X022600Y008100D03*
X021600Y008100D03*
X019600Y008100D03*
X018600Y008100D03*
X017600Y008850D03*
X017100Y009350D03*
X018100Y009350D03*
X020100Y009350D03*
X021100Y009350D03*
X020600Y008850D03*
X023100Y009350D03*
X024100Y009350D03*
X023600Y008850D03*
X026100Y009350D03*
X027100Y009350D03*
X026600Y008850D03*
X029100Y009350D03*
X030100Y009350D03*
X029600Y008850D03*
X032100Y009350D03*
X033100Y009350D03*
X032600Y008850D03*
X035100Y009350D03*
X036100Y009350D03*
X035600Y008850D03*
X016600Y008100D03*
X015600Y008100D03*
X013600Y008100D03*
X012600Y008100D03*
X010600Y008100D03*
X011600Y008850D03*
X011100Y009350D03*
X012100Y009350D03*
X014100Y009350D03*
X015100Y009350D03*
X014600Y008850D03*
X022600Y002350D03*
X022100Y001850D03*
X022600Y001350D03*
X023600Y001850D03*
X025100Y001850D03*
X025600Y001350D03*
X024100Y001350D03*
X026600Y001850D03*
X027100Y001350D03*
X027100Y002350D03*
X025600Y002350D03*
X024100Y002350D03*
D12*
X001350Y001350D03*
X001350Y015850D03*
X059600Y015850D03*
X059600Y001350D03*
D13*
X019225Y001350D03*
X001225Y005350D03*
X001225Y007600D03*
X001225Y009850D03*
X001225Y012100D03*
X011600Y014100D03*
X014600Y014100D03*
X017600Y014100D03*
X020600Y014100D03*
X023600Y014100D03*
X026600Y014100D03*
X029600Y014100D03*
X032600Y014100D03*
X035600Y014350D03*
X038600Y014100D03*
X041600Y014100D03*
X044600Y014100D03*
X047600Y014100D03*
X050600Y014100D03*
X053600Y014100D03*
X056600Y014100D03*
X056600Y015600D03*
X053600Y015600D03*
X050600Y015600D03*
X047600Y015600D03*
X044600Y015600D03*
X041600Y015600D03*
X038600Y015600D03*
X035600Y015600D03*
X032600Y015600D03*
X029600Y015600D03*
X026600Y015600D03*
X023600Y015600D03*
X020600Y015600D03*
X017600Y015600D03*
X014600Y015600D03*
X011600Y015600D03*
D14*
X049975Y002100D03*
X052475Y002100D03*
M02*
