G75*
G70*
%OFA0B0*%
%FSLAX24Y24*%
%IPPOS*%
%LPD*%
%AMOC8*
5,1,8,0,0,1.08239X$1,22.5*
%
%ADD10C,0.0160*%
%ADD11C,0.0040*%
%ADD12C,0.0060*%
%ADD13C,0.0020*%
%ADD14C,0.0500*%
%ADD15C,0.0050*%
%ADD16C,0.0030*%
%ADD17C,0.0100*%
D10*
X008600Y003660D02*
X009600Y003660D01*
X009100Y006160D02*
X009100Y007160D01*
X008600Y006660D02*
X009600Y006660D01*
D11*
X007348Y008834D02*
X007348Y009141D01*
X007041Y009141D02*
X007041Y008834D01*
X007194Y008680D01*
X007348Y008834D01*
X006887Y008910D02*
X006887Y008757D01*
X006811Y008680D01*
X006657Y008680D01*
X006580Y008757D01*
X006580Y008910D02*
X006734Y008987D01*
X006811Y008987D01*
X006887Y008910D01*
X006887Y009141D02*
X006580Y009141D01*
X006580Y008910D01*
X006427Y008910D02*
X006120Y008910D01*
X006273Y008757D02*
X006273Y009064D01*
X003512Y009141D02*
X003512Y008834D01*
X003359Y008680D01*
X003205Y008834D01*
X003205Y009141D01*
X003052Y009064D02*
X002745Y008757D01*
X002822Y008680D01*
X002975Y008680D01*
X003052Y008757D01*
X003052Y009064D01*
X002975Y009141D01*
X002822Y009141D01*
X002745Y009064D01*
X002745Y008757D01*
D12*
X002755Y001440D02*
X003182Y001440D01*
X003400Y001440D02*
X003720Y001440D01*
X003827Y001547D01*
X003827Y001654D01*
X003720Y001760D01*
X003400Y001760D01*
X003400Y001440D02*
X003400Y002081D01*
X003720Y002081D01*
X003827Y001974D01*
X003827Y001867D01*
X003720Y001760D01*
X004044Y001547D02*
X004151Y001440D01*
X004364Y001440D01*
X004471Y001547D01*
X004471Y002081D01*
X004689Y002081D02*
X005116Y002081D01*
X004902Y001760D02*
X004689Y001760D01*
X004689Y001440D02*
X004689Y002081D01*
X004044Y002081D02*
X004044Y001547D01*
X002969Y001440D02*
X002969Y002081D01*
X002755Y001867D01*
X003875Y002935D02*
X005325Y002935D01*
X005325Y003635D02*
X003875Y003635D01*
X005250Y004560D02*
X005250Y006010D01*
X005950Y006010D02*
X005950Y004560D01*
X006000Y004560D02*
X006000Y006010D01*
X006700Y006010D02*
X006700Y004560D01*
X008375Y005160D02*
X008377Y005207D01*
X008383Y005255D01*
X008392Y005301D01*
X008405Y005347D01*
X008421Y005391D01*
X008442Y005435D01*
X008465Y005476D01*
X008491Y005515D01*
X008521Y005552D01*
X008554Y005587D01*
X008589Y005619D01*
X008626Y005648D01*
X009575Y005160D02*
X009573Y005115D01*
X009568Y005069D01*
X009560Y005025D01*
X009548Y004981D01*
X009532Y004938D01*
X009514Y004896D01*
X009492Y004856D01*
X009468Y004818D01*
X009441Y004782D01*
X009411Y004747D01*
X009378Y004716D01*
X009343Y004686D01*
X009575Y005160D02*
X009573Y005205D01*
X009568Y005251D01*
X009560Y005295D01*
X009548Y005339D01*
X009532Y005382D01*
X009514Y005424D01*
X009492Y005464D01*
X009468Y005502D01*
X009441Y005538D01*
X009411Y005573D01*
X009378Y005604D01*
X009343Y005634D01*
X008375Y005160D02*
X008377Y005114D01*
X008382Y005068D01*
X008391Y005022D01*
X008403Y004977D01*
X008419Y004934D01*
X008438Y004892D01*
X008461Y004851D01*
X008486Y004812D01*
X008514Y004776D01*
X008545Y004741D01*
X008579Y004709D01*
X008615Y004680D01*
X007052Y002081D02*
X007266Y001867D01*
X007266Y001654D01*
X007052Y001440D01*
X006834Y001440D02*
X006407Y001440D01*
X006621Y001440D02*
X006621Y002081D01*
X006407Y001867D01*
X006191Y002081D02*
X005978Y001867D01*
X005978Y001654D01*
X006191Y001440D01*
X001500Y005160D02*
X001502Y005205D01*
X001507Y005251D01*
X001515Y005295D01*
X001527Y005339D01*
X001543Y005382D01*
X001561Y005424D01*
X001583Y005464D01*
X001607Y005502D01*
X001634Y005538D01*
X001664Y005573D01*
X001697Y005604D01*
X001732Y005634D01*
X002700Y005160D02*
X002698Y005113D01*
X002692Y005065D01*
X002683Y005019D01*
X002670Y004973D01*
X002654Y004929D01*
X002633Y004885D01*
X002610Y004844D01*
X002584Y004805D01*
X002554Y004768D01*
X002521Y004733D01*
X002486Y004701D01*
X002449Y004672D01*
X002700Y005160D02*
X002698Y005206D01*
X002693Y005252D01*
X002684Y005298D01*
X002672Y005343D01*
X002656Y005386D01*
X002637Y005428D01*
X002614Y005469D01*
X002589Y005508D01*
X002561Y005544D01*
X002530Y005579D01*
X002496Y005611D01*
X002460Y005640D01*
X001500Y005160D02*
X001502Y005115D01*
X001507Y005069D01*
X001515Y005025D01*
X001527Y004981D01*
X001543Y004938D01*
X001561Y004896D01*
X001583Y004856D01*
X001607Y004818D01*
X001634Y004782D01*
X001664Y004747D01*
X001697Y004716D01*
X001732Y004686D01*
X003875Y007060D02*
X005325Y007060D01*
X005325Y007760D02*
X003875Y007760D01*
D13*
X003382Y001265D02*
X003308Y001265D01*
X003345Y001265D02*
X003345Y001082D01*
X003308Y001045D01*
X003272Y001045D01*
X003235Y001082D01*
X003456Y001082D02*
X003493Y001119D01*
X003603Y001119D01*
X003603Y001155D02*
X003603Y001045D01*
X003493Y001045D01*
X003456Y001082D01*
X003493Y001192D02*
X003566Y001192D01*
X003603Y001155D01*
X003677Y001192D02*
X003714Y001192D01*
X003750Y001155D01*
X003787Y001192D01*
X003824Y001155D01*
X003824Y001045D01*
X003750Y001045D02*
X003750Y001155D01*
X003677Y001192D02*
X003677Y001045D01*
X003898Y001082D02*
X003898Y001155D01*
X003935Y001192D01*
X004008Y001192D01*
X004045Y001155D01*
X004045Y001119D01*
X003898Y001119D01*
X003898Y001082D02*
X003935Y001045D01*
X004008Y001045D01*
X004119Y001045D02*
X004229Y001045D01*
X004266Y001082D01*
X004229Y001119D01*
X004156Y001119D01*
X004119Y001155D01*
X004156Y001192D01*
X004266Y001192D01*
X004561Y001265D02*
X004561Y001045D01*
X004708Y001045D02*
X004561Y001265D01*
X004708Y001265D02*
X004708Y001045D01*
X004782Y001082D02*
X004782Y001155D01*
X004819Y001192D01*
X004892Y001192D01*
X004929Y001155D01*
X004929Y001119D01*
X004782Y001119D01*
X004782Y001082D02*
X004819Y001045D01*
X004892Y001045D01*
X005003Y001082D02*
X005003Y001192D01*
X005003Y001082D02*
X005040Y001045D01*
X005076Y001082D01*
X005113Y001045D01*
X005150Y001082D01*
X005150Y001192D01*
X005224Y001192D02*
X005224Y001045D01*
X005297Y001045D02*
X005297Y001155D01*
X005334Y001192D01*
X005371Y001155D01*
X005371Y001045D01*
X005445Y001082D02*
X005482Y001119D01*
X005592Y001119D01*
X005592Y001155D02*
X005592Y001045D01*
X005482Y001045D01*
X005445Y001082D01*
X005482Y001192D02*
X005555Y001192D01*
X005592Y001155D01*
X005666Y001192D02*
X005776Y001192D01*
X005813Y001155D01*
X005813Y001045D01*
X005666Y001045D02*
X005666Y001192D01*
X005297Y001155D02*
X005261Y001192D01*
X005224Y001192D01*
D14*
X006100Y002535D02*
X007600Y005160D01*
X006100Y008035D01*
X002975Y008035D01*
X002975Y002535D01*
X006100Y002535D01*
D15*
X003950Y003660D02*
X003350Y003660D01*
X003350Y005660D01*
X003950Y005660D01*
X003225Y006260D02*
X003239Y006321D01*
X003257Y006380D01*
X003278Y006439D01*
X003303Y006496D01*
X003331Y006551D01*
X003363Y006605D01*
X003398Y006657D01*
X003436Y006706D01*
X003476Y006753D01*
X003520Y006797D01*
X003566Y006839D01*
X003615Y006878D01*
X003666Y006913D01*
X003719Y006946D01*
X003774Y006975D01*
X003831Y007001D01*
X003889Y007023D01*
X003948Y007042D01*
X004009Y007057D01*
X004070Y007068D01*
X004132Y007076D01*
X004194Y007080D01*
X004256Y007080D01*
X004318Y007076D01*
X004380Y007068D01*
X004441Y007057D01*
X004502Y007042D01*
X004561Y007023D01*
X004619Y007001D01*
X004676Y006975D01*
X004731Y006946D01*
X004784Y006913D01*
X004835Y006878D01*
X004884Y006839D01*
X004930Y006797D01*
X004974Y006753D01*
X005014Y006706D01*
X005052Y006657D01*
X005087Y006605D01*
X005119Y006551D01*
X005147Y006496D01*
X005172Y006439D01*
X005193Y006380D01*
X005211Y006321D01*
X005225Y006260D01*
X005225Y005660D01*
X003225Y005660D01*
X003225Y006260D01*
X003950Y005660D02*
X004011Y005646D01*
X004070Y005628D01*
X004129Y005607D01*
X004186Y005582D01*
X004241Y005554D01*
X004295Y005522D01*
X004347Y005487D01*
X004396Y005449D01*
X004443Y005409D01*
X004487Y005365D01*
X004529Y005319D01*
X004568Y005270D01*
X004603Y005219D01*
X004636Y005166D01*
X004665Y005111D01*
X004691Y005054D01*
X004713Y004996D01*
X004732Y004937D01*
X004747Y004876D01*
X004758Y004815D01*
X004766Y004753D01*
X004770Y004691D01*
X004770Y004629D01*
X004766Y004567D01*
X004758Y004505D01*
X004747Y004444D01*
X004732Y004383D01*
X004713Y004324D01*
X004691Y004266D01*
X004665Y004209D01*
X004636Y004154D01*
X004603Y004101D01*
X004568Y004050D01*
X004529Y004001D01*
X004487Y003955D01*
X004443Y003911D01*
X004396Y003871D01*
X004347Y003833D01*
X004295Y003798D01*
X004241Y003766D01*
X004186Y003738D01*
X004129Y003713D01*
X004070Y003692D01*
X004011Y003674D01*
X003950Y003660D01*
D16*
X004185Y003310D02*
X004432Y003310D01*
X004370Y003125D02*
X004370Y003496D01*
X004185Y003310D01*
X004553Y003187D02*
X004553Y003125D01*
X004553Y003187D02*
X004800Y003434D01*
X004800Y003496D01*
X004553Y003496D01*
X004922Y003434D02*
X004922Y003187D01*
X005169Y003434D01*
X005169Y003187D01*
X005107Y003125D01*
X004983Y003125D01*
X004922Y003187D01*
X004922Y003434D02*
X004983Y003496D01*
X005107Y003496D01*
X005169Y003434D01*
X005563Y004625D02*
X005440Y004749D01*
X005810Y004749D01*
X005810Y004872D02*
X005810Y004625D01*
X005748Y004994D02*
X005501Y004994D01*
X005440Y005055D01*
X005440Y005179D01*
X005501Y005240D01*
X005748Y004994D01*
X005810Y005055D01*
X005810Y005179D01*
X005748Y005240D01*
X005501Y005240D01*
X005440Y005362D02*
X005810Y005362D01*
X005687Y005362D02*
X005563Y005547D01*
X005687Y005362D02*
X005810Y005547D01*
X006190Y005547D02*
X006190Y005424D01*
X006251Y005362D01*
X006498Y005362D01*
X006251Y005609D01*
X006498Y005609D01*
X006560Y005547D01*
X006560Y005424D01*
X006498Y005362D01*
X006251Y005240D02*
X006498Y004994D01*
X006560Y004994D01*
X006375Y004872D02*
X006375Y004625D01*
X006190Y004810D01*
X006560Y004810D01*
X006190Y004994D02*
X006190Y005240D01*
X006251Y005240D01*
X006190Y005547D02*
X006251Y005609D01*
X005168Y007250D02*
X004983Y007374D01*
X005168Y007497D01*
X004983Y007621D02*
X004983Y007250D01*
X004862Y007312D02*
X004800Y007250D01*
X004676Y007250D01*
X004615Y007312D01*
X004862Y007559D01*
X004862Y007312D01*
X004615Y007312D02*
X004615Y007559D01*
X004676Y007621D01*
X004800Y007621D01*
X004862Y007559D01*
X004493Y007250D02*
X004246Y007250D01*
X004370Y007250D02*
X004370Y007621D01*
X004246Y007497D01*
D17*
X002725Y006010D02*
X002275Y006010D01*
X002500Y005785D02*
X002500Y006235D01*
X008350Y004310D02*
X008800Y004310D01*
X008575Y004535D02*
X008575Y004085D01*
M02*
