G75*
G70*
%OFA0B0*%
%FSLAX24Y24*%
%IPPOS*%
%LPD*%
%AMOC8*
5,1,8,0,0,1.08239X$1,22.5*
%
%ADD10C,0.0476*%
%ADD11C,0.0515*%
%ADD12R,0.0709X0.0709*%
%ADD13C,0.0160*%
D10*
X003850Y004160D03*
X004350Y004660D03*
X003850Y005160D03*
X003725Y006160D03*
X004225Y006660D03*
X004725Y006160D03*
D11*
X003600Y003285D03*
X002100Y004660D03*
X002100Y005660D03*
X003600Y007410D03*
X005600Y007410D03*
X005600Y006285D03*
X006350Y006285D03*
X006350Y004285D03*
X005600Y004285D03*
X005600Y003285D03*
X008975Y004660D03*
X008975Y005660D03*
D12*
X007850Y006660D03*
X005475Y008785D03*
X004225Y008785D03*
X000975Y005160D03*
X007850Y003660D03*
D13*
X006350Y004285D01*
X005600Y004285D01*
X005600Y004035D01*
X004975Y004035D01*
X004975Y005160D01*
X004225Y005910D01*
X004225Y006660D01*
X004725Y006535D02*
X004725Y006160D01*
X004725Y006535D02*
X005600Y007410D01*
X007350Y007410D01*
X007850Y006660D01*
X006975Y005660D02*
X008975Y005660D01*
X006975Y005660D02*
X006350Y006285D01*
X004350Y004660D02*
X003350Y004660D01*
X002850Y005160D01*
X000975Y005160D01*
X002100Y004660D02*
X002350Y004535D01*
X003600Y003285D01*
X003975Y004035D02*
X003850Y004160D01*
X003975Y004035D02*
X004975Y004035D01*
X005600Y004035D02*
X005600Y003285D01*
X003850Y005160D02*
X003725Y005285D01*
X003725Y006160D01*
X002850Y007035D01*
X002850Y007910D01*
X004225Y008785D01*
M02*
