%
M48
M72
T01C0.0276
T02C0.0315
T03C0.0472
T04C0.1260
%
T01
X3850Y4160
X4350Y4660
X3850Y5160
X3725Y6160
X4225Y6660
X4725Y6160
T02
X5600Y6285
X6350Y6285
X5600Y7410
X3600Y7410
X2100Y5660
X2100Y4660
X3600Y3285
X5600Y3285
X5600Y4285
X6350Y4285
X8975Y4660
X8975Y5660
T03
X7850Y6660
X5475Y8785
X4225Y8785
X975Y5160
X7850Y3660
T04
X1350Y1910
X1350Y8410
X8600Y8410
X8600Y1910
M30
