G75*
G70*
%OFA0B0*%
%FSLAX24Y24*%
%IPPOS*%
%LPD*%
%AMOC8*
5,1,8,0,0,1.08239X$1,22.5*
%
%ADD10C,0.0000*%
D10*
X000100Y000660D02*
X000100Y009655D01*
X009842Y009655D01*
X009842Y000660D01*
X000100Y000660D01*
X000720Y001910D02*
X000722Y001960D01*
X000728Y002010D01*
X000738Y002059D01*
X000752Y002107D01*
X000769Y002154D01*
X000790Y002199D01*
X000815Y002243D01*
X000843Y002284D01*
X000875Y002323D01*
X000909Y002360D01*
X000946Y002394D01*
X000986Y002424D01*
X001028Y002451D01*
X001072Y002475D01*
X001118Y002496D01*
X001165Y002512D01*
X001213Y002525D01*
X001263Y002534D01*
X001312Y002539D01*
X001363Y002540D01*
X001413Y002537D01*
X001462Y002530D01*
X001511Y002519D01*
X001559Y002504D01*
X001605Y002486D01*
X001650Y002464D01*
X001693Y002438D01*
X001734Y002409D01*
X001773Y002377D01*
X001809Y002342D01*
X001841Y002304D01*
X001871Y002264D01*
X001898Y002221D01*
X001921Y002177D01*
X001940Y002131D01*
X001956Y002083D01*
X001968Y002034D01*
X001976Y001985D01*
X001980Y001935D01*
X001980Y001885D01*
X001976Y001835D01*
X001968Y001786D01*
X001956Y001737D01*
X001940Y001689D01*
X001921Y001643D01*
X001898Y001599D01*
X001871Y001556D01*
X001841Y001516D01*
X001809Y001478D01*
X001773Y001443D01*
X001734Y001411D01*
X001693Y001382D01*
X001650Y001356D01*
X001605Y001334D01*
X001559Y001316D01*
X001511Y001301D01*
X001462Y001290D01*
X001413Y001283D01*
X001363Y001280D01*
X001312Y001281D01*
X001263Y001286D01*
X001213Y001295D01*
X001165Y001308D01*
X001118Y001324D01*
X001072Y001345D01*
X001028Y001369D01*
X000986Y001396D01*
X000946Y001426D01*
X000909Y001460D01*
X000875Y001497D01*
X000843Y001536D01*
X000815Y001577D01*
X000790Y001621D01*
X000769Y001666D01*
X000752Y001713D01*
X000738Y001761D01*
X000728Y001810D01*
X000722Y001860D01*
X000720Y001910D01*
X000720Y008410D02*
X000722Y008460D01*
X000728Y008510D01*
X000738Y008559D01*
X000752Y008607D01*
X000769Y008654D01*
X000790Y008699D01*
X000815Y008743D01*
X000843Y008784D01*
X000875Y008823D01*
X000909Y008860D01*
X000946Y008894D01*
X000986Y008924D01*
X001028Y008951D01*
X001072Y008975D01*
X001118Y008996D01*
X001165Y009012D01*
X001213Y009025D01*
X001263Y009034D01*
X001312Y009039D01*
X001363Y009040D01*
X001413Y009037D01*
X001462Y009030D01*
X001511Y009019D01*
X001559Y009004D01*
X001605Y008986D01*
X001650Y008964D01*
X001693Y008938D01*
X001734Y008909D01*
X001773Y008877D01*
X001809Y008842D01*
X001841Y008804D01*
X001871Y008764D01*
X001898Y008721D01*
X001921Y008677D01*
X001940Y008631D01*
X001956Y008583D01*
X001968Y008534D01*
X001976Y008485D01*
X001980Y008435D01*
X001980Y008385D01*
X001976Y008335D01*
X001968Y008286D01*
X001956Y008237D01*
X001940Y008189D01*
X001921Y008143D01*
X001898Y008099D01*
X001871Y008056D01*
X001841Y008016D01*
X001809Y007978D01*
X001773Y007943D01*
X001734Y007911D01*
X001693Y007882D01*
X001650Y007856D01*
X001605Y007834D01*
X001559Y007816D01*
X001511Y007801D01*
X001462Y007790D01*
X001413Y007783D01*
X001363Y007780D01*
X001312Y007781D01*
X001263Y007786D01*
X001213Y007795D01*
X001165Y007808D01*
X001118Y007824D01*
X001072Y007845D01*
X001028Y007869D01*
X000986Y007896D01*
X000946Y007926D01*
X000909Y007960D01*
X000875Y007997D01*
X000843Y008036D01*
X000815Y008077D01*
X000790Y008121D01*
X000769Y008166D01*
X000752Y008213D01*
X000738Y008261D01*
X000728Y008310D01*
X000722Y008360D01*
X000720Y008410D01*
X007970Y008410D02*
X007972Y008460D01*
X007978Y008510D01*
X007988Y008559D01*
X008002Y008607D01*
X008019Y008654D01*
X008040Y008699D01*
X008065Y008743D01*
X008093Y008784D01*
X008125Y008823D01*
X008159Y008860D01*
X008196Y008894D01*
X008236Y008924D01*
X008278Y008951D01*
X008322Y008975D01*
X008368Y008996D01*
X008415Y009012D01*
X008463Y009025D01*
X008513Y009034D01*
X008562Y009039D01*
X008613Y009040D01*
X008663Y009037D01*
X008712Y009030D01*
X008761Y009019D01*
X008809Y009004D01*
X008855Y008986D01*
X008900Y008964D01*
X008943Y008938D01*
X008984Y008909D01*
X009023Y008877D01*
X009059Y008842D01*
X009091Y008804D01*
X009121Y008764D01*
X009148Y008721D01*
X009171Y008677D01*
X009190Y008631D01*
X009206Y008583D01*
X009218Y008534D01*
X009226Y008485D01*
X009230Y008435D01*
X009230Y008385D01*
X009226Y008335D01*
X009218Y008286D01*
X009206Y008237D01*
X009190Y008189D01*
X009171Y008143D01*
X009148Y008099D01*
X009121Y008056D01*
X009091Y008016D01*
X009059Y007978D01*
X009023Y007943D01*
X008984Y007911D01*
X008943Y007882D01*
X008900Y007856D01*
X008855Y007834D01*
X008809Y007816D01*
X008761Y007801D01*
X008712Y007790D01*
X008663Y007783D01*
X008613Y007780D01*
X008562Y007781D01*
X008513Y007786D01*
X008463Y007795D01*
X008415Y007808D01*
X008368Y007824D01*
X008322Y007845D01*
X008278Y007869D01*
X008236Y007896D01*
X008196Y007926D01*
X008159Y007960D01*
X008125Y007997D01*
X008093Y008036D01*
X008065Y008077D01*
X008040Y008121D01*
X008019Y008166D01*
X008002Y008213D01*
X007988Y008261D01*
X007978Y008310D01*
X007972Y008360D01*
X007970Y008410D01*
X007970Y001910D02*
X007972Y001960D01*
X007978Y002010D01*
X007988Y002059D01*
X008002Y002107D01*
X008019Y002154D01*
X008040Y002199D01*
X008065Y002243D01*
X008093Y002284D01*
X008125Y002323D01*
X008159Y002360D01*
X008196Y002394D01*
X008236Y002424D01*
X008278Y002451D01*
X008322Y002475D01*
X008368Y002496D01*
X008415Y002512D01*
X008463Y002525D01*
X008513Y002534D01*
X008562Y002539D01*
X008613Y002540D01*
X008663Y002537D01*
X008712Y002530D01*
X008761Y002519D01*
X008809Y002504D01*
X008855Y002486D01*
X008900Y002464D01*
X008943Y002438D01*
X008984Y002409D01*
X009023Y002377D01*
X009059Y002342D01*
X009091Y002304D01*
X009121Y002264D01*
X009148Y002221D01*
X009171Y002177D01*
X009190Y002131D01*
X009206Y002083D01*
X009218Y002034D01*
X009226Y001985D01*
X009230Y001935D01*
X009230Y001885D01*
X009226Y001835D01*
X009218Y001786D01*
X009206Y001737D01*
X009190Y001689D01*
X009171Y001643D01*
X009148Y001599D01*
X009121Y001556D01*
X009091Y001516D01*
X009059Y001478D01*
X009023Y001443D01*
X008984Y001411D01*
X008943Y001382D01*
X008900Y001356D01*
X008855Y001334D01*
X008809Y001316D01*
X008761Y001301D01*
X008712Y001290D01*
X008663Y001283D01*
X008613Y001280D01*
X008562Y001281D01*
X008513Y001286D01*
X008463Y001295D01*
X008415Y001308D01*
X008368Y001324D01*
X008322Y001345D01*
X008278Y001369D01*
X008236Y001396D01*
X008196Y001426D01*
X008159Y001460D01*
X008125Y001497D01*
X008093Y001536D01*
X008065Y001577D01*
X008040Y001621D01*
X008019Y001666D01*
X008002Y001713D01*
X007988Y001761D01*
X007978Y001810D01*
X007972Y001860D01*
X007970Y001910D01*
M02*
