
M48
METRIC,TZ,000.000
T01C0.599
T02C0.701
T03C0.8
T04C0.813
T05C1.1
T06C1.199
T07C1.501
T08C1.6
T09C5.499
%
M71
G90
T01
X054229Y018669
T02
X144399Y012954
X145669Y014224
X144399Y015494
X139319Y015494
X140589Y014224
X139319Y012954
X134239Y012954
X135509Y014224
X134239Y015494
X127889Y015494
X129159Y014224
X127889Y012954
X122809Y012954
X124079Y014224
X122809Y015494
X117729Y015494
X118999Y014224
X117729Y012954
X111379Y012954
X112649Y014224
X111379Y015494
X106299Y015494
X107569Y014224
X106299Y012954
X101219Y012954
X102489Y014224
X101219Y015494
X094869Y015494
X096139Y014224
X094869Y012954
X089789Y012954
X091059Y014224
X089789Y015494
X084709Y015494
X085979Y014224
X084709Y012954
X078359Y012954
X079629Y014224
X078359Y015494
X073279Y015494
X074549Y014224
X073279Y012954
X068199Y012954
X069469Y014224
X068199Y015494
T03
X024384Y093599
X024384Y091059
X024384Y088519
X024384Y085979
X054864Y010414
X054864Y007239
X052324Y007239
X021844Y007239
X024384Y007239
X024384Y010414
X024384Y015494
X033274Y015494
X039624Y015494
X039624Y010414
X033274Y010414
X030734Y007239
X033274Y007239
X037084Y007239
X039624Y007239
X044704Y007239
X047244Y007239
X047244Y010414
X047244Y015494
X054864Y015494
X146304Y018669
X143764Y021209
X138684Y021209
X141224Y018669
X138684Y018669
X133604Y018669
X129794Y018669
X127254Y021209
X122174Y021209
X124714Y018669
X122174Y018669
X117094Y018669
X113284Y018669
X110744Y021209
X105664Y021209
X108204Y018669
X105664Y018669
X100584Y018669
X096774Y018669
X094234Y021209
X089154Y021209
X091694Y018669
X089154Y018669
X084074Y018669
X080264Y018669
X077724Y021209
X075184Y018669
X072644Y021209
X072644Y018669
X067564Y018669
X062484Y015494
X062484Y010414
X059944Y007239
X062484Y007239
X070104Y007239
X072644Y007239
X075184Y007239
X080264Y007239
X086614Y007239
X089154Y007239
X091694Y007239
X096774Y007239
X103124Y007239
X105664Y007239
X108204Y007239
X113284Y007239
X119634Y007239
X122174Y007239
X124714Y007239
X129794Y007239
X136144Y007239
X138684Y007239
X141224Y007239
X146304Y007239
T04
X028829Y089154
X031369Y089154
X033909Y089154
X036449Y089154
X036449Y094234
X033909Y094234
X031369Y094234
X028829Y094234
T05
X057404Y073914
X137414Y076454
X139954Y076454
X142494Y076454
X145034Y076454
X145034Y073914
X142494Y073914
X139954Y073914
X137414Y073914
X134874Y073914
X132334Y073914
X129794Y073914
X127254Y073914
X124714Y073914
X122174Y073914
X122174Y076454
X124714Y076454
X127254Y076454
X129794Y076454
X132334Y076454
X134874Y076454
X134239Y092964
X136779Y092964
X136779Y090424
X134239Y090424
X129159Y090424
X131699Y090424
X131699Y092964
X129159Y092964
X124079Y092964
X126619Y092964
X126619Y090424
X124079Y090424
X118999Y090424
X121539Y090424
X121539Y092964
X118999Y092964
X113919Y092964
X116459Y092964
X116459Y090424
X113919Y090424
X075184Y076454
X077724Y076454
X080264Y076454
X080264Y073914
X077724Y073914
X075184Y073914
X072644Y073914
X070104Y073914
X067564Y073914
X065024Y073914
X062484Y073914
X059944Y073914
X057404Y076454
X059944Y076454
X062484Y076454
X065024Y076454
X067564Y076454
X070104Y076454
X072644Y076454
X072009Y090424
X072009Y092964
X066929Y092964
X069469Y092964
X069469Y090424
X066929Y090424
X061849Y090424
X064389Y090424
X064389Y092964
X061849Y092964
X056769Y092964
X059309Y092964
X059309Y090424
X056769Y090424
X054229Y090424
X054229Y092964
X049149Y092964
X051689Y092964
X051689Y090424
X049149Y090424
T06
X051054Y058039
X032004Y072009
X032004Y067564
X143764Y004064
X127889Y004064
X111379Y004064
X094234Y004064
X078359Y004064
X032004Y028194
X032004Y033274
X032004Y041529
X032004Y045974
X039624Y047244
X043434Y047244
X047244Y047244
X051054Y047244
X054864Y047244
X058674Y047244
X062484Y047244
X066294Y047244
X070104Y047244
X073914Y047244
X096774Y058039
X092964Y058039
X089154Y058039
X085344Y058039
X081534Y058039
X077724Y058039
X073914Y058039
X070104Y058039
X066294Y058039
X062484Y058039
X058674Y058039
X054864Y058039
X047244Y058039
X043434Y058039
X039624Y058039
X032004Y059309
X032004Y054864
X039624Y052959
X043434Y052959
X047244Y052959
X051054Y052959
X054864Y052959
X058674Y052959
X062484Y052959
X066294Y052959
X070104Y052959
X073914Y052959
X077724Y052959
X081534Y052959
X085344Y052959
X089154Y052959
X092964Y052959
X096774Y052959
X098679Y043434
X095504Y043434
X095504Y047244
X098679Y047244
X134874Y058039
X131064Y058039
X127254Y058039
X123444Y058039
X119634Y058039
X119634Y052959
X123444Y052959
X127254Y052959
X131064Y052959
X134874Y052959
X138684Y052959
X142494Y052959
X146304Y052959
X150114Y052959
X153924Y052959
X157734Y052959
X161544Y052959
X161544Y058039
X157734Y058039
X153924Y058039
X150114Y058039
X146304Y058039
X142494Y058039
X138684Y058039
T07
X032004Y023749
X023114Y023749
X023114Y037084
X032004Y037084
X032004Y050419
X023114Y050419
X023114Y063119
X032004Y063119
X032004Y085344
X023114Y075819
X032004Y075819
T08
X006655Y075819
X012954Y075819
X009855Y070818
X006655Y063119
X012954Y063119
X009855Y058118
X006655Y050419
X012954Y050419
X009855Y045418
X006655Y037084
X012954Y037084
X009855Y032083
X009855Y018748
X006655Y023749
X012954Y023749
T09
X157734Y009246
X157734Y089154
X009144Y089154
X009144Y009246
M30
