G04 Output by ViewMate Deluxe V11.0.9  PentaLogix LLC*
G04 Fri Jan 30 18:24:21 2015*
%FSTAX26Y26*%
%MOIN*%
%IPPOS*%
%ADD10C,0.15*%
%ADD11C,0.1*%
%ADD12R,0.15X0.15*%
%ADD13R,0.0709X0.0709*%
%ADD14R,0.0515X0.0515*%
%ADD15C,0.0515*%
%ADD16C,0.0476*%
%ADD17R,0.065X0.065*%
%ADD18C,0.065*%
%ADD19C,0.052*%
%ADD20C,0.15*%
%ADD21C,0.024*%
%ADD22C,0.0396*%
%ADD23C,0.016*%
%ADD24C,0.05*%

%LPD*%
X0Y0D2*D20*G1X00435Y0216D2*X0126Y0216D1*X00262Y01985D2*X00262Y01987D1*X00435Y0216*X0091Y01985D2*X0051Y01985D1*X00435Y01635D2*X0126Y01635D1*X00262Y0146D2*X00262Y01462D1*X00435Y01635*X0091Y0146D2*X0051Y0146D1*X0051Y00935D2*X0091Y00935D1*X00262Y00935D2*X00262Y00937D1*X00435Y0111*X0126Y0111*X0126Y00935*X0126Y0131D2*X0126Y0146D1*X0126Y01635*X0126Y0181D2*X0126Y01985D1*X0126Y0216*X0126Y0266D2*X0126Y02485D1*X0126Y02335*X0051Y02485D2*X0091Y02485D1*X00262Y02485D2*X00262Y02487D1*X00435Y0266*X0126Y0266*X0126Y0316D2*X0126Y02985D1*X0126Y02835*X0051Y02985D2*X0091Y02985D1*X00262Y02985D2*X00262Y02987D1*X00435Y0316*X0096Y0316*X0126Y0316*D21*X01235Y0371D2*X01135Y0371D1*X01335Y0371D2*X01435Y0371D1*X01235Y0351D2*X01335Y0351D1*X01135Y0351D2*X01135Y03635D1*X01085Y03685*X0096Y03685*X0096Y03585D2*X0101Y03585D1*X0106Y03535*X0106Y03435*X0096Y0316D2*X0096Y03385D1*X0101Y03385*X0106Y03435*X0126Y0336D2*X01285Y0336D1*X01435Y0351*X0566Y0066D2*X0576Y0066D1*X0576Y00735*X0566Y00835D2*X0566Y0066D1*X0546Y0066*X0096Y0041D2*X0096Y00285D1*X0096Y00635D2*X0096Y0061D1*X0126Y0181D2*X0146Y0161D1*X0126Y02335D2*X01385Y02235D1*X01385Y0176*X0151Y01635*X0151Y0096*X0156Y0061D2*X0146Y0071D1*X0146Y0161*X0126Y0131D2*X01385Y01185D1*X01385Y00685*X0131Y0061*X0131Y00285D2*X0131Y0041D1*X0156Y0041D2*X0156Y00285D1*X0186Y00285D2*X0186Y0041D1*X0216Y0041D2*X0216Y00285D1*X0246Y00285D2*X0246Y0041D1*X0276Y00285D2*X0276Y0026D1*X0281Y0021*X02885Y0021*X0296Y00285*X03085Y0016D2*X03085Y0031D1*X02885Y0051*X03135Y0056D2*X02935Y0056D1*X02835Y0056*X02685Y0051D2*X02785Y0051D1*X02835Y0056*X0306Y0066D2*X0286Y0066D1*X0316Y00735D2*X0316Y0066D1*X0306Y00835D2*X0306Y0066D1*X0316Y0066*X0351Y0066*X0381Y0066D2*X0371Y0066D1*X03785Y0056D2*X03585Y0056D1*X03485Y0056*X03335Y0051D2*X03435Y0051D1*X03485Y0056*X03535Y0051D2*X0371Y00335D1*X0341Y00285D2*X0341Y0026D1*X0346Y0021*X03535Y0021*X0361Y00285*X0371Y00335D2*X0371Y0016D1*X0406Y00285D2*X0406Y0026D1*X0411Y0021*X04185Y0021*X0426Y00285*X04385Y0016D2*X04385Y0031D1*X04185Y0051*X0446Y0066D2*X0436Y0066D1*X04435Y0056D2*X04235Y0056D1*X04135Y0056*X03985Y0051D2*X04085Y0051D1*X04135Y0056*X0416Y0066D2*X0381Y0066D1*X0381Y00735*X0371Y00835D2*X0371Y0066D1*X0351Y0066*X0351Y00735*X0361Y00735D2*X0361Y0091D1*X0356Y0096*X0276Y0096*X0186Y0186*X0276Y0186D2*X0356Y0111D1*X0551Y0111*X0556Y0106*X0556Y00735*X0546Y00735D2*X0546Y0066D1*X0511Y0066*X0511Y00735*X0501Y0066D2*X0481Y0066D1*X0481Y00735D2*X0481Y0066D1*X0446Y0066*X0446Y00735*X0436Y00835D2*X0436Y0066D1*X0416Y0066*X0416Y00735*X0426Y00735D2*X0426Y0096D1*X0421Y0101*X0301Y0101*X0216Y0186*X0246Y0186D2*X0326Y0106D1*X0486Y0106*X0491Y0101*X0491Y00735*X0501Y00835D2*X0501Y0066D1*X0511Y0066*X05085Y0056D2*X04885Y0056D1*X04785Y0056*X04635Y0051D2*X04735Y0051D1*X04785Y0056*X04835Y0051D2*X05035Y0031D1*X0471Y00285D2*X0471Y0026D1*X0476Y0021*X04835Y0021*X0491Y00285*X05035Y0031D2*X05035Y0016D1*X0536Y00285D2*X0536Y0026D1*X0541Y0021*X05485Y0021*X0556Y00285*X0566Y0016D2*X0566Y00335D1*X05485Y0051*X05285Y0051D2*X05385Y0051D1*X05435Y0056*X05535Y0056*X05735Y0056*X05685Y0061D2*X05485Y0061D1*X05285Y0061*X05035Y0061*X04835Y0061*X04635Y0061*X04385Y0061*X04185Y0061*X03985Y0061*X03735Y0061*X03535Y0061*X03335Y0061*X03085Y0061*X02885Y0061*X02685Y0061*X0246Y0061*X0216Y0061*X02135Y00735D2*X0221Y0066D1*X0286Y0066*X0286Y00735*X0296Y00735D2*X0296Y0086D1*X0291Y0091*X0251Y0091*X0156Y0186*X01435Y0196D2*X01435Y01785D1*X0156Y0166*X0156Y0121*X0216Y0061*X0151Y0096D2*X0186Y0061D1*X0096Y00635D2*X0126Y00935D1*X0091Y00935D2*X0091Y0086D1*X0081Y0076*X0081Y00335*X0086Y00285*D23*X02835Y0366D2*X02835Y03735D1*X01935Y0356D2*X0191Y0356D1*X0296Y0291D2*X0296Y0271D1*X0301Y0266*X0316Y0266*X0321Y0261*X0321Y02285*X0571Y0291D2*X0571Y0276D1*X0576Y0271*X0631Y0271*X0636Y0266*X0636Y02285*X0621Y02285D2*X0621Y0261D1*X0616Y0266*X0571Y0266*X0566Y0271*X0566Y0296*X0546Y0296D2*X0541Y0301D1*X0556Y0296D2*X0551Y0301D1*X0561Y0291D2*X0561Y0266D1*X0566Y0261*X0601Y0261*X0606Y0256*X0606Y02285*X0561Y02285D2*X0561Y0236D1*X0546Y0251*X0546Y0296*X0551Y0291D2*X0551Y0256D1*X0556Y0251*X0571Y0251*X0576Y0246*X0576Y02285*X0591Y02285D2*X0591Y0251D1*X0586Y0256*X0561Y0256*X0556Y0261*X0556Y0296*X0566Y0296D2*X0561Y0301D1*X0571Y0301D2*X0571Y03035D1*X0566Y03085*X0521Y03085*X04785Y03085D2*X0521Y03085D1*X0521Y0301*X0536Y0296D2*X0531Y0301D1*X0541Y0291D2*X0541Y02435D1*X0546Y02385*X0546Y02285*X0531Y02285D2*X0531Y02385D1*X0536Y02435*X0536Y0296*X0521Y0301D2*X0531Y0291D1*X0516Y0296D2*X0511Y0301D1*X0521Y0291D2*X0521Y02335D1*X0516Y02285*X0501Y02285D2*X0501Y0236D1*X0516Y0251*X0516Y0296*X0511Y0291D2*X0511Y0256D1*X0506Y0251*X0491Y0251*X0486Y0246*X0486Y02285*X0471Y02285D2*X0471Y0251D1*X0476Y0256*X0501Y0256*X0506Y0261*X0506Y0296*X0501Y0301*X0481Y0291D2*X04735Y02985D1*X04735Y03035*X04785Y03085*X0441Y03735D2*X0441Y03585D1*X04435Y0356*X04485Y0356*X04885Y03735D2*X04885Y0366D1*X04985Y0356*X05385Y0366D2*X05385Y0371D1*X0536Y03735*X04885Y03735*X0441Y03735*X02835Y03735*X02335Y03735*X02435Y0356D2*X02335Y0366D1*X02335Y03735*X01885Y03735*X0186Y0371*X0186Y0361*X0191Y0356*X0186Y0351*X0126Y0316D2*X0181Y0351D1*X0186Y0351*X0221Y03085D2*X0216Y03035D1*X0216Y0296*X0221Y0291*X0226Y0291*X0231Y0296D2*X0231Y0271D1*X0226Y0266*X0161Y0266*X0156Y0261*X0156Y02285*X0171Y02285D2*X0171Y0256D1*X0176Y0261*X0231Y0261*X0236Y0266*X0236Y0291*X0266Y03085D2*X03085Y03085D1*X0316Y0301*X0306Y0301D2*X0311Y0296D1*X0311Y0286*X0316Y0291D2*X0321Y0286D1*X0366Y0286*X0381Y0271*X0381Y02285*X0366Y02285D2*X0366Y0276D1*X0361Y0281*X0316Y0281*X0311Y0286*X0306Y0291D2*X0306Y0281D1*X0311Y0276*X0346Y0276*X0351Y0271*X0351Y02285*X0336Y02285D2*X0336Y0266D1*X0331Y0271*X0306Y0271*X0301Y0276*X0301Y0296*X0296Y0301*X0286Y0301D2*X0291Y0296D1*X0291Y0266*X0296Y0261*X0301Y0261*X0306Y0256*X0306Y02285*X0291Y02285D2*X0291Y0256D1*X0286Y0261*X0286Y0291*X0276Y0301D2*X0281Y0296D1*X0266Y0291D2*X0266Y02335D1*X0261Y02285*X0276Y02285D2*X0281Y02335D1*X0281Y0296*X0276Y0291D2*X0266Y0301D1*X0266Y03085*X0221Y03085*X0231Y0296D2*X0226Y0301D1*X0236Y0301D2*X0241Y0296D1*X0241Y0261*X0236Y0256*X0191Y0256*X0186Y0251*X0186Y02285*X0201Y02285D2*X0201Y0246D1*X0206Y0251*X0241Y0251*X0246Y0256*X0246Y0291*X0256Y0291D2*X0256Y0246D1*X0251Y0241*X0236Y0241*X0231Y0236*X0231Y02285*X0246Y02285D2*X0246Y0231D1*X0251Y0236*X0256Y0236*X0261Y0241*X0261Y0296*X0256Y0301*X0246Y0301D2*X0251Y0296D1*X0251Y0251*X0246Y0246*X0221Y0246*X0216Y0241*X0216Y02285*D24*X0481Y0301D2*X0491Y0301D1*X0491Y0291*X0501Y0291D2*X0491Y0291D1*X0491Y02635*X0456Y02635*X0456Y0171*X03885Y0171*X0376Y0186D2*X0376Y0171D1*X0291Y0196D2*X0291Y0186D1*X0126Y02835D2*X01435Y0266D1*X01435Y0196*X0171Y0196*X0171Y0186D2*X0171Y0196D1*X0201Y0196*X0201Y0186D2*X0201Y0196D1*X02335Y0196*X0231Y0186D2*X0231Y01935D1*X02335Y0196*X0261Y0196*X0261Y0186D2*X0261Y0196D1*X0291Y0196*X0376Y0196*X0376Y0186*X03885Y0186D2*X0411Y0186D1*X0411Y0336*X04485Y0366D2*X04585Y0366D1*X04585Y0356*X04685Y0356D2*X04585Y0356D1*X04585Y0336*X0411Y0336*D10*X0051Y02985D3*X00262Y02985D3*X00262Y02485D3*X0051Y02485D3*X0051Y01985D3*X00262Y01985D3*X00262Y0146D3*X0051Y0146D3*X0051Y00935D3*X00262Y00935D3*D11*X00388Y007381D3*X00388Y012631D3*X00388Y017881D3*X00388Y022881D3*X00388Y027881D3*D12*X0126Y0336D3*X0126Y02985D3*X0091Y02985D3*X0091Y02485D3*X0126Y02485D3*X0126Y01985D3*X0091Y01985D3*X0091Y0146D3*X0126Y0146D3*X0126Y00935D3*X0091Y00935D3*D13*X0566Y0016D3*X05035Y0016D3*X04385Y0016D3*X0371Y0016D3*X03085Y0016D3*X0126Y0111D3*X0126Y0131D3*X0126Y01635D3*X0126Y0181D3*X0471Y02285D3*X0486Y02285D3*X0501Y02285D3*X0516Y02285D3*X0531Y02285D3*X0546Y02285D3*X0561Y02285D3*X0576Y02285D3*X0591Y02285D3*X0606Y02285D3*X0621Y02285D3*X0636Y02285D3*X0636Y02085D3*X0621Y02085D3*X0606Y02085D3*X0591Y02085D3*X0576Y02085D3*X0561Y02085D3*X0546Y02085D3*X0531Y02085D3*X0516Y02085D3*X0501Y02085D3*X0486Y02085D3*X0471Y02085D3*X0376Y0171D3*X03885Y0171D3*X03885Y0186D3*X0376Y0186D3*X0291Y0186D3*X0276Y0186D3*X0261Y0186D3*X0246Y0186D3*X0231Y0186D3*X0216Y0186D3*X0201Y0186D3*X0186Y0186D3*X0171Y0186D3*X0156Y0186D3*X0156Y02285D3*X0171Y02285D3*X0186Y02285D3*X0201Y02285D3*X0216Y02285D3*X0231Y02285D3*X0246Y02285D3*X0261Y02285D3*X0276Y02285D3*X0291Y02285D3*X0306Y02285D3*X0321Y02285D3*X0336Y02285D3*X0351Y02285D3*X0366Y02285D3*X0381Y02285D3*X0381Y02085D3*X0366Y02085D3*X0351Y02085D3*X0336Y02085D3*X0321Y02085D3*X0306Y02085D3*X0291Y02085D3*X0276Y02085D3*X0261Y02085D3*X0246Y02085D3*X0231Y02085D3*X0216Y02085D3*X0201Y02085D3*X0186Y02085D3*X0171Y02085D3*X0156Y02085D3*X0126Y0216D3*X0126Y02335D3*X0126Y0266D3*X0126Y02835D3*D14*X0096Y03385D3*D15*X0216Y0041D3*X0216Y00285D3*X0206Y00285D3*X0086Y00285D3*X0096Y00285D3*X0096Y0041D3*X0096Y0061D3*X0131Y0061D3*X0156Y0061D3*X0156Y0041D3*X0131Y0041D3*X0121Y00285D3*X0131Y00285D3*X0146Y00285D3*X0156Y00285D3*X0176Y00285D3*X0186Y00285D3*X0186Y0041D3*X0186Y0061D3*X0216Y0061D3*X0266Y00735D3*X0246Y0061D3*X0246Y0041D3*X0236Y00285D3*X0246Y00285D3*X0276Y00285D3*X0286Y00285D3*X0296Y00285D3*X0316Y00285D3*X0341Y00285D3*X0351Y00285D3*X0361Y00285D3*X0381Y00285D3*X0406Y00285D3*X0416Y00285D3*X0426Y00285D3*X0446Y00285D3*X0471Y00285D3*X0481Y00285D3*X0491Y00285D3*X0511Y00285D3*X0536Y00285D3*X0546Y00285D3*X0556Y00285D3*X0576Y00285D3*X0576Y00735D3*X0566Y00835D3*X0546Y00835D3*X0556Y00735D3*X0546Y00735D3*X0526Y00735D3*X0511Y00735D3*X0501Y00835D3*X0481Y00835D3*X0491Y00735D3*X0481Y00735D3*X0461Y00735D3*X0446Y00735D3*X0436Y00835D3*X0416Y00835D3*X0426Y00735D3*X0416Y00735D3*X0396Y00735D3*X0381Y00735D3*X0371Y00835D3*X0351Y00835D3*X0361Y00735D3*X0351Y00735D3*X0331Y00735D3*X0316Y00735D3*X0306Y00835D3*X0296Y00735D3*X0286Y00735D3*X0286Y00835D3*X0096Y03685D3*X0096Y03585D3*X0096Y03485D3*D16*X05685Y0061D3*X05735Y0056D3*X05685Y0051D3*X05485Y0051D3*X05535Y0056D3*X05485Y0061D3*X05285Y0061D3*X05335Y0056D3*X05285Y0051D3*X05035Y0051D3*X05085Y0056D3*X05035Y0061D3*X04835Y0061D3*X04885Y0056D3*X04835Y0051D3*X04635Y0051D3*X04685Y0056D3*X04635Y0061D3*X04385Y0061D3*X04435Y0056D3*X04385Y0051D3*X04185Y0051D3*X04235Y0056D3*X04185Y0061D3*X03985Y0061D3*X04035Y0056D3*X03985Y0051D3*X03735Y0051D3*X03785Y0056D3*X03735Y0061D3*X03535Y0061D3*X03585Y0056D3*X03535Y0051D3*X03335Y0051D3*X03385Y0056D3*X03335Y0061D3*X03085Y0061D3*X03135Y0056D3*X03085Y0051D3*X02885Y0051D3*X02935Y0056D3*X02885Y0061D3*X02685Y0061D3*X02735Y0056D3*X02685Y0051D3*D17*X01935Y0356D3*X0226Y0291D3*X04485Y0356D3*X0481Y0291D3*D18*X0541Y0301D3*X0551Y0301D3*X0561Y0301D3*X0571Y0301D3*X0571Y0291D3*X0561Y0291D3*X0551Y0291D3*X0541Y0291D3*X0531Y0291D3*X0521Y0291D3*X0511Y0291D3*X0501Y0291D3*X0491Y0291D3*X0481Y0301D3*X0491Y0301D3*X0501Y0301D3*X0511Y0301D3*X0521Y0301D3*X0531Y0301D3*X05285Y0356D3*X05385Y0356D3*X05385Y0366D3*X05285Y0366D3*X05085Y0366D3*X05185Y0366D3*X05185Y0356D3*X05085Y0356D3*X04885Y0356D3*X04985Y0356D3*X04985Y0366D3*X04885Y0366D3*X04685Y0366D3*X04785Y0366D3*X04785Y0356D3*X04685Y0356D3*X04585Y0356D3*X04585Y0366D3*X04485Y0366D3*X0296Y0301D3*X0306Y0301D3*X0316Y0301D3*X0316Y0291D3*X0306Y0291D3*X0296Y0291D3*X0286Y0291D3*X0276Y0291D3*X0266Y0291D3*X0256Y0291D3*X0246Y0291D3*X0236Y0291D3*X0226Y0301D3*X0236Y0301D3*X0246Y0301D3*X0256Y0301D3*X0266Y0301D3*X0276Y0301D3*X0286Y0301D3*X02835Y0356D3*X02835Y0366D3*X02635Y0366D3*X02735Y0366D3*X02735Y0356D3*X02635Y0356D3*X02435Y0356D3*X02535Y0356D3*X02535Y0366D3*X02435Y0366D3*X02235Y0366D3*X02335Y0366D3*X02335Y0356D3*X02235Y0356D3*X02135Y0356D3*X02135Y0366D3*X01935Y0366D3*X02035Y0366D3*X02035Y0356D3*D19*X01435Y0371D3*X01335Y0371D3*X01235Y0371D3*X01135Y0371D3*X01135Y0351D3*X01235Y0351D3*X01335Y0351D3*X01435Y0351D3*D22*X02135Y00735D3*X0Y0D2*M02*