G04 Output by ViewMate Deluxe V11.0.9  PentaLogix LLC*
G04 Fri Jan 30 18:24:21 2015*
%FSTAX26Y26*%
%MOIN*%
%IPPOS*%
%ADD10C,0.15*%
%ADD11C,0.1*%
%ADD12R,0.15X0.15*%
%ADD13R,0.0709X0.0709*%
%ADD14R,0.0515X0.0515*%
%ADD15C,0.0515*%
%ADD16C,0.0476*%
%ADD17R,0.065X0.065*%
%ADD18C,0.065*%
%ADD19C,0.052*%
%ADD113C,0.024*%
%ADD114C,0.0396*%
%ADD115C,0.016*%

%LPD*%
X0Y0D2*D113*G1X0286Y00835D2*X0281Y00785D1*X0296Y00735D2*X0301Y00685D1*X0301Y00535*X03035Y0051*X03085Y0051*X0331Y00735D2*X0326Y00685D1*X0346Y00585D2*X0346Y00785D1*X0351Y00835*X0361Y00735D2*X0366Y00685D1*X0366Y00535*X03685Y0051*X03735Y0051*X0396Y00735D2*X0391Y00685D1*X0411Y00585D2*X0411Y00785D1*X0416Y00835*X0426Y00735D2*X0431Y00685D1*X0431Y00535*X04335Y0051*X04385Y0051*X0461Y00735D2*X0456Y00685D1*X0476Y00585D2*X0476Y00785D1*X0481Y00835*X0491Y00735D2*X0496Y00685D1*X0496Y00535*X04985Y0051*X05035Y0051*X0526Y00735D2*X0521Y00685D1*X0546Y00835D2*X0541Y00785D1*X0541Y00585*X05685Y0051D2*X05635Y0051D1*X0561Y00535*X0561Y00685*X0556Y00735*X0576Y00735D2*X05785Y0071D1*X05785Y0031*X0576Y00285*X0546Y00285D2*X05535Y0036D1*X05535Y0056*X0541Y00585D2*X05485Y0051D1*X05285Y0051D2*X0521Y00585D1*X0521Y00685*X0511Y00735D2*X05135Y0071D1*X05135Y0031*X0511Y00285*X0481Y00285D2*X04885Y0036D1*X04885Y0056*X0476Y00585D2*X04835Y0051D1*X04635Y0051D2*X0456Y00585D1*X0456Y00685*X0446Y00735D2*X04485Y0071D1*X04485Y0031*X0446Y00285*X0416Y00285D2*X04235Y0036D1*X04235Y0056*X0411Y00585D2*X04185Y0051D1*X03985Y0051D2*X0391Y00585D1*X0391Y00685*X0381Y00735D2*X03835Y0071D1*X03835Y0031*X0381Y00285*X0351Y00285D2*X03585Y0036D1*X03585Y0056*X0346Y00585D2*X03535Y0051D1*X03335Y0051D2*X0326Y00585D1*X0326Y00685*X0316Y00735D2*X03185Y0071D1*X03185Y0031*X0316Y00285*X0286Y00285D2*X02935Y0036D1*X02935Y0056*X02885Y0051D2*X0281Y00585D1*X0281Y00785*X0266Y00735D2*X0261Y00685D1*X0261Y00585*X02685Y0051*X0121Y00285D2*X01035Y0046D1*X01035Y01335*X0091Y0146*X0091Y01985D2*X01085Y0181D1*X01085Y0081*X0116Y00735*X01385Y00735*X01435Y00685*X01435Y0031*X0146Y00285*X0176Y00285D2*X0176Y00685D1*X01635Y0081*X01185Y0081*X01135Y0086*X01135Y0226*X0091Y02485*X0106Y0361D2*X0096Y03685D1*X0096Y03485D2*X0091Y03435D1*X0091Y02985*X0091Y0296*X0111Y0276*X01335Y0276*X01385Y0271*X01385Y0141*X0206Y00735*X02135Y00735D2*X0206Y00735D1*X0206Y00285*X0236Y00285D2*X0236Y0081D1*X0231Y0086*X02035Y0086*X01435Y0146*X01435Y0321*X01385Y0326*X01135Y0326*X0106Y0336*X0106Y0361*D115*X06285Y0216D2*X0636Y02085D1*X05985Y0216D2*X0606Y02085D1*X0546Y02085D2*X05385Y0216D1*X05385Y0241*X0526Y02535*X0526Y0316*X05085Y03335*X05085Y0356*X05385Y0356D2*X05685Y0326D1*X05935Y0326*X05985Y0321*X05985Y02985*X06285Y02685*X06285Y0216*X0621Y02085D2*X06135Y0216D1*X06135Y0276*X05935Y0296*X05935Y0316*X05885Y0321*X05635Y0321*X05335Y0351*X05335Y0361*X05285Y0366*X05235Y0361D2*X05185Y0366D1*X05285Y0356D2*X05285Y03485D1*X0561Y0316*X05835Y0316*X05885Y0311*X05885Y02935*X05985Y02835*X05985Y0216*X0591Y02085D2*X05835Y0216D1*X05835Y0306*X05785Y0311*X05585Y0311*X05235Y0346*X05235Y0361*X05185Y0356D2*X05185Y03435D1*X0546Y0316*X0546Y02635*X05685Y0241*X05685Y0216*X0576Y02085*X0561Y02085D2*X05535Y0216D1*X05535Y0241*X0536Y02585*X0536Y0316*X05135Y03385*X05135Y0361*X05085Y0366*X04985Y0366D2*X05035Y0361D1*X05035Y03085*X0506Y0306*X0506Y02835*X05235Y0266*X05235Y0216*X0531Y02085*X0486Y02085D2*X04785Y0216D1*X04785Y02685*X0476Y0271*X0476Y0311*X04785Y03135*X04785Y0356*X04885Y0356D2*X0496Y03485D1*X0496Y02835*X05085Y0271*X05085Y0216*X0516Y02085*X0501Y02085D2*X04935Y0216D1*X04935Y02785*X0486Y0286*X0486Y03485*X04835Y0351*X04835Y0361*X04785Y0366*X04685Y0366D2*X04735Y0361D1*X04735Y02535*X04635Y02435*X04635Y0216*X0471Y02085*X0381Y02085D2*X03785Y02085D1*X03735Y02135*X0351Y02085D2*X03485Y02085D1*X03435Y02135*X0261Y0216D2*X0261Y02085D1*X0246Y02235D2*X0246Y02285D1*X0261Y0216D2*X02535Y02235D1*X0276Y02285D2*X0276Y02235D1*X02835Y0216*X02985Y02135D2*X03035Y02085D1*X0306Y02085*X0321Y02085D2*X03185Y02085D1*X03135Y02135*X03135Y0266*X0311Y02685*X0311Y03235*X0306Y03285*X02685Y03285*X02635Y03335*X02635Y0356*X02835Y0356D2*X02835Y03535D1*X02885Y03485*X0341Y03485*X0346Y03435*X0346Y02785*X03735Y0251*X03735Y02135*X0366Y02085D2*X03635Y02085D1*X03585Y02135*X03585Y0251*X0341Y02685*X0341Y03385*X0336Y03435*X02835Y03435*X02785Y03485*X02785Y0361*X02735Y0366*X02735Y0356D2*X02735Y03435D1*X02785Y03385*X0331Y03385*X0336Y03335*X0336Y02585*X03435Y0251*X03435Y02135*X0336Y02085D2*X03335Y02085D1*X03285Y02135*X03285Y03285*X03235Y03335*X02735Y03335*X02685Y03385*X02685Y0361*X02635Y0366*X02535Y0366D2*X02585Y0361D1*X02585Y03285*X02635Y03235*X0286Y03235*X0291Y03185*X0291Y02835*X02985Y0276*X02985Y02135*X0291Y02085D2*X0291Y0216D1*X02835Y02235*X02835Y0281*X0281Y02835*X0281Y03135*X0276Y03185*X02585Y03185*X02535Y03235*X02535Y0356*X02135Y0356D2*X02135Y03185D1*X01935Y02985*X01935Y02235*X0201Y0216*X0201Y02085*X0186Y02085D2*X0186Y0216D1*X01785Y02235*X0186Y02285D2*X0186Y02235D1*X01935Y0216*X01935Y0151*X01985Y0146*X03335Y0146*X03385Y0141*X03385Y0056*X05335Y0056D2*X05335Y0156D1*X05285Y0161*X02885Y0161*X02835Y0166*X02835Y0216*X0276Y02085D2*X02735Y02085D1*X02685Y02135*X02685Y0276*X0261Y02835*X0261Y03085*X02485Y0321*X02485Y0361*X02435Y0366*X02335Y0356D2*X02335Y03285D1*X0251Y0311*X0251Y02835*X02535Y0281*X02535Y02235*X0246Y02235D2*X02535Y0216D1*X0231Y02085D2*X0231Y0216D1*X02235Y02235*X02235Y0216D2*X02235Y0156D1*X02285Y0151*X03985Y0151*X04035Y0146*X04035Y0056*X04685Y0056D2*X04685Y0151D1*X04635Y0156*X02585Y0156*X02535Y0161*X02535Y0216*X0246Y02085D2*X02435Y02085D1*X02385Y02135*X02385Y02785*X0231Y0286*X0231Y0321*X02285Y03235*X02285Y0361*X02235Y0366*X02235Y0356D2*X02235Y0311D1*X02185Y0306*X02185Y0286*X02235Y0281*X02235Y02235*X0216Y02285D2*X0216Y02235D1*X02235Y0216*X0216Y02085D2*X0216Y0216D1*X02085Y02235*X02085Y03035*X02185Y03135*X02185Y0361*X02135Y0366*X02035Y0366D2*X02085Y0361D1*X02085Y0326*X01785Y0296*X01785Y02235*X01635Y02235D2*X0171Y0216D1*X0171Y02085*X0156Y02085D2*X01535Y02085D1*X01485Y02135*X01485Y0286*X01985Y0336*X01985Y0361*X01935Y0366*X02035Y0356D2*X02035Y0331D1*X01635Y0291*X01635Y02235*X0156Y02285D2*X0156Y02235D1*X01635Y0216*X01635Y0146*X01685Y0141*X02685Y0141*X02735Y0136*X02735Y0056*D10*X0051Y02985D3*X00262Y02985D3*X00262Y02485D3*X0051Y02485D3*X0051Y01985D3*X00262Y01985D3*X00262Y0146D3*X0051Y0146D3*X0051Y00935D3*X00262Y00935D3*D11*X00388Y007381D3*X00388Y012631D3*X00388Y017881D3*X00388Y022881D3*X00388Y027881D3*D12*X0126Y0336D3*X0126Y02985D3*X0091Y02985D3*X0091Y02485D3*X0126Y02485D3*X0126Y01985D3*X0091Y01985D3*X0091Y0146D3*X0126Y0146D3*X0126Y00935D3*X0091Y00935D3*D13*X0566Y0016D3*X05035Y0016D3*X04385Y0016D3*X0371Y0016D3*X03085Y0016D3*X0126Y0111D3*X0126Y0131D3*X0126Y01635D3*X0126Y0181D3*X0471Y02285D3*X0486Y02285D3*X0501Y02285D3*X0516Y02285D3*X0531Y02285D3*X0546Y02285D3*X0561Y02285D3*X0576Y02285D3*X0591Y02285D3*X0606Y02285D3*X0621Y02285D3*X0636Y02285D3*X0636Y02085D3*X0621Y02085D3*X0606Y02085D3*X0591Y02085D3*X0576Y02085D3*X0561Y02085D3*X0546Y02085D3*X0531Y02085D3*X0516Y02085D3*X0501Y02085D3*X0486Y02085D3*X0471Y02085D3*X0376Y0171D3*X03885Y0171D3*X03885Y0186D3*X0376Y0186D3*X0291Y0186D3*X0276Y0186D3*X0261Y0186D3*X0246Y0186D3*X0231Y0186D3*X0216Y0186D3*X0201Y0186D3*X0186Y0186D3*X0171Y0186D3*X0156Y0186D3*X0156Y02285D3*X0171Y02285D3*X0186Y02285D3*X0201Y02285D3*X0216Y02285D3*X0231Y02285D3*X0246Y02285D3*X0261Y02285D3*X0276Y02285D3*X0291Y02285D3*X0306Y02285D3*X0321Y02285D3*X0336Y02285D3*X0351Y02285D3*X0366Y02285D3*X0381Y02285D3*X0381Y02085D3*X0366Y02085D3*X0351Y02085D3*X0336Y02085D3*X0321Y02085D3*X0306Y02085D3*X0291Y02085D3*X0276Y02085D3*X0261Y02085D3*X0246Y02085D3*X0231Y02085D3*X0216Y02085D3*X0201Y02085D3*X0186Y02085D3*X0171Y02085D3*X0156Y02085D3*X0126Y0216D3*X0126Y02335D3*X0126Y0266D3*X0126Y02835D3*D14*X0096Y03385D3*D15*X0096Y03685D3*X0096Y03585D3*X0096Y03485D3*X0096Y0061D3*X0131Y0061D3*X0156Y0061D3*X0186Y0061D3*X0216Y0061D3*X0276Y00285D3*X0286Y00285D3*X0296Y00285D3*X0316Y00285D3*X0341Y00285D3*X0351Y00285D3*X0361Y00285D3*X0381Y00285D3*X0406Y00285D3*X0416Y00285D3*X0426Y00285D3*X0446Y00285D3*X0471Y00285D3*X0481Y00285D3*X0491Y00285D3*X0511Y00285D3*X0536Y00285D3*X0546Y00285D3*X0556Y00285D3*X0576Y00285D3*X0576Y00735D3*X0566Y00835D3*X0546Y00835D3*X0556Y00735D3*X0546Y00735D3*X0526Y00735D3*X0511Y00735D3*X0501Y00835D3*X0481Y00835D3*X0491Y00735D3*X0481Y00735D3*X0461Y00735D3*X0446Y00735D3*X0436Y00835D3*X0416Y00835D3*X0426Y00735D3*X0416Y00735D3*X0396Y00735D3*X0381Y00735D3*X0371Y00835D3*X0351Y00835D3*X0361Y00735D3*X0351Y00735D3*X0331Y00735D3*X0316Y00735D3*X0306Y00835D3*X0296Y00735D3*X0286Y00835D3*X0286Y00735D3*X0266Y00735D3*X0246Y0061D3*X0246Y0041D3*X0246Y00285D3*X0236Y00285D3*X0216Y0041D3*X0216Y00285D3*X0206Y00285D3*X0186Y0041D3*X0186Y00285D3*X0176Y00285D3*X0156Y0041D3*X0156Y00285D3*X0146Y00285D3*X0131Y0041D3*X0131Y00285D3*X0121Y00285D3*X0096Y0041D3*X0096Y00285D3*X0086Y00285D3*D16*X05685Y0051D3*X05735Y0056D3*X05685Y0061D3*X05485Y0061D3*X05535Y0056D3*X05485Y0051D3*X05285Y0051D3*X05335Y0056D3*X05285Y0061D3*X05035Y0061D3*X05085Y0056D3*X05035Y0051D3*X04835Y0051D3*X04885Y0056D3*X04835Y0061D3*X04635Y0061D3*X04685Y0056D3*X04635Y0051D3*X04385Y0051D3*X04435Y0056D3*X04385Y0061D3*X04185Y0061D3*X04235Y0056D3*X04185Y0051D3*X03985Y0051D3*X04035Y0056D3*X03985Y0061D3*X03735Y0061D3*X03785Y0056D3*X03735Y0051D3*X03535Y0051D3*X03585Y0056D3*X03535Y0061D3*X03335Y0061D3*X03385Y0056D3*X03335Y0051D3*X03085Y0051D3*X03135Y0056D3*X03085Y0061D3*X02885Y0061D3*X02935Y0056D3*X02885Y0051D3*X02685Y0051D3*X02735Y0056D3*X02685Y0061D3*D17*X01935Y0356D3*X0226Y0291D3*X04485Y0356D3*X0481Y0291D3*D18*X0541Y0301D3*X0551Y0301D3*X0561Y0301D3*X0571Y0301D3*X0571Y0291D3*X0561Y0291D3*X0551Y0291D3*X0541Y0291D3*X0531Y0291D3*X0521Y0291D3*X0511Y0291D3*X0501Y0291D3*X0491Y0291D3*X0481Y0301D3*X0491Y0301D3*X0501Y0301D3*X0511Y0301D3*X0521Y0301D3*X0531Y0301D3*X05285Y0356D3*X05385Y0356D3*X05385Y0366D3*X05285Y0366D3*X05085Y0366D3*X05185Y0366D3*X05185Y0356D3*X05085Y0356D3*X04885Y0356D3*X04985Y0356D3*X04985Y0366D3*X04885Y0366D3*X04685Y0366D3*X04785Y0366D3*X04785Y0356D3*X04685Y0356D3*X04585Y0356D3*X04585Y0366D3*X04485Y0366D3*X0296Y0301D3*X0306Y0301D3*X0316Y0301D3*X0316Y0291D3*X0306Y0291D3*X0296Y0291D3*X0286Y0291D3*X0276Y0291D3*X0266Y0291D3*X0256Y0291D3*X0246Y0291D3*X0236Y0291D3*X0226Y0301D3*X0236Y0301D3*X0246Y0301D3*X0256Y0301D3*X0266Y0301D3*X0276Y0301D3*X0286Y0301D3*X02835Y0356D3*X02835Y0366D3*X02635Y0366D3*X02735Y0366D3*X02735Y0356D3*X02635Y0356D3*X02435Y0356D3*X02535Y0356D3*X02535Y0366D3*X02435Y0366D3*X02235Y0366D3*X02335Y0366D3*X02335Y0356D3*X02235Y0356D3*X02135Y0356D3*X02135Y0366D3*X01935Y0366D3*X02035Y0366D3*X02035Y0356D3*D19*X01435Y0371D3*X01335Y0371D3*X01235Y0371D3*X01135Y0371D3*X01135Y0351D3*X01235Y0351D3*X01335Y0351D3*X01435Y0351D3*D114*X02135Y00735D3*X0Y0D2*M02*