
M48
METRIC,TZ,000.000
T01C0.701
T02C0.8
T03C1.199
T04C3.2
%
M71
G90
T01
X022479Y008085
X023749Y006815
X025019Y008085
X025019Y013165
X022479Y013165
X023749Y014435
X025019Y016975
X023749Y018245
X022479Y016975
X014224Y015705
X011684Y015705
X012954Y014435
X014224Y009355
X012954Y010625
X011684Y009355
T02
X027559Y015070
X032639Y013800
X032639Y011260
X027559Y009990
X025654Y010625
X016764Y009990
X018669Y006815
X016764Y006815
X011684Y006815
X007239Y007450
X007239Y009990
X007239Y015070
X007239Y017610
X011684Y018245
X007874Y022055
X012954Y022055
X019939Y018245
X016764Y018245
X016764Y015070
X019939Y013165
X018669Y011895
X020574Y010625
T03
X032639Y008402
X004064Y008720
X004064Y016340
X021209Y022055
X025019Y022055
X032639Y016657
T04
X032639Y003640
X032639Y021420
X003429Y021420
X003429Y003640
M30
