G04 Output by ViewMate Deluxe V11.0.9  PentaLogix LLC*
G04 Sun May 11 19:10:48 2014*
%FSLAX33Y33*%
%MOMM*%
%IPPOS*%
%ADD10C,1.3081*%
%ADD11R,1.8009X1.8009*%
%ADD12C,1.209*%
%ADD13C,0.4064*%
%ADD14C,0.8128*%

%LPD*%
X0Y0D2*D13*G1X16764Y6815D2*X16764Y8085D1*X11684Y6815D2*X11049Y7450D1*X7239Y7450*X4064Y8720D2*X8509Y8720D1*X10414Y10625*X12954Y10625*X11684Y18245D2*X11049Y17610D1*X7239Y17610*X4064Y16340D2*X8509Y16340D1*X10414Y14435*X12954Y14435*X11684Y15705D2*X14224Y18245D1*X16764Y18245*X19304Y15705*X23749Y18245D2*X21844Y18245D1*X19304Y15705*X19939Y15070*X19939Y13165*X20574Y10625D2*X18034Y10625D1*X16129Y12530*X22479Y11895D2*X18669Y11895D1*X25654Y12530D2*X25654Y10625D1*X26924Y10625*X27559Y9990*X32639Y8402D2*X34544Y10625D1*X34544Y11895*X33909Y12530*X25654Y12530*X25019Y13165*X27559Y15070D2*X28829Y13800D1*X32639Y13800*X32639Y16657D2*X32004Y16975D1*X25019Y16975*X25019Y15705*X23749Y14435*X23749Y12530*X23114Y11895*X22479Y11895*X22479Y8085*X23749Y6815D2*X21209Y6815D1*X19939Y8085*X16764Y8085*X16764Y9355*X16764Y9990D2*X16764Y9355D1*X14224Y9355*D14*X32639Y11260D2*X28194Y8085D1*X28194Y6815*X26924Y4910*X18669Y4910*X18669Y6815D2*X18669Y4910D1*X7239Y4910*X7239Y12530D2*X7239Y9990D1*X2159Y12530D2*X2159Y17610D1*X2794Y18245*X5334Y18245*X7239Y20150*X7874Y20150*X7874Y22055D2*X7874Y20150D1*X19939Y20150*X21209Y22055D2*X21209Y20785D1*X20574Y20150*X19939Y20150*X19939Y18245*X16764Y15070D2*X16129Y12530D1*X7239Y12530*X7239Y15070D2*X7239Y12530D1*X2159Y12530*X2159Y7450*X2794Y6815*X5334Y6815*X7239Y4910*D10*X27559Y15070D3*X32639Y13800D3*X32639Y11260D3*X27559Y9990D3*X25654Y10625D3*X20574Y10625D3*X7239Y15070D3*X7239Y17610D3*X11684Y18245D3*X7874Y22055D3*X12954Y22055D3*X19939Y18245D3*X16764Y18245D3*X16764Y15070D3*X19939Y13165D3*X18669Y11895D3*X16764Y9990D3*X18669Y6815D3*X16764Y6815D3*X11684Y6815D3*X7239Y9990D3*X7239Y7450D3*D11*X32639Y8402D3*X4064Y8720D3*X4064Y16340D3*X21209Y22055D3*X25019Y22055D3*X32639Y16657D3*D12*X14224Y9355D3*X11684Y9355D3*X12954Y10625D3*X11684Y15705D3*X12954Y14435D3*X14224Y15705D3*X22479Y16975D3*X23749Y18245D3*X25019Y16975D3*X25019Y13165D3*X23749Y14435D3*X22479Y13165D3*X22479Y8085D3*X23749Y6815D3*X25019Y8085D3*X0Y0D2*M02*