G04 Output by ViewMate Deluxe V11.0.9  PentaLogix LLC*
G04 Sun May 11 19:10:48 2014*
%FSLAX33Y33*%
%MOMM*%
%IPPOS*%
%ADD15C,0.0762*%
%ADD16C,0.127*%
%ADD105C,1.397*%
%ADD106C,0.254*%
%ADD107C,0.4064*%
%ADD108C,0.1524*%
%ADD109C,0.1016*%

%LPD*%
X0Y0D2*D15*G1X27308Y13353D2*X27935Y13353D1*X28092Y13195*X28092Y12883*X27935Y12725*X27308Y13353*X27153Y13195*X27153Y12883*X27308Y12725*X27935Y12725*X27153Y11323D2*X28092Y11323D1*X27153Y11791D2*X27153Y12418D1*X27308Y12418*X27935Y11791*X28092Y11791*X27622Y11481D2*X27622Y10853D1*X27153Y11323*X24087Y10688D2*X24559Y10218D1*X23932Y10533D2*X24559Y11161D1*X23932Y11161D2*X23932Y10218D1*X23622Y11003D2*X23467Y11161D1*X23152Y11161*X22995Y11003*X22995Y10376D2*X23152Y10218D1*X23467Y10218*X23622Y10376*X23622Y11003*X22995Y10376*X22995Y11003*X22060Y10846D2*X22372Y11161D1*X22372Y10218*X22060Y10218D2*X22687Y10218D1*X14732Y7193D2*X14732Y7351D1*X14105Y7351*X13797Y6878D2*X13170Y6878D1*X13640Y7351*X13640Y6408*X14105Y6408D2*X14105Y6566D1*X14732Y7193*X15042Y6566D2*X15042Y7193D1*X15197Y7351*X15512Y7351*X15669Y7193*X15042Y6566*X15197Y6408*X15512Y6408*X15669Y6566*X15669Y7193*X18448Y8301D2*X18136Y8616D1*X19075Y8616*X19075Y8928D2*X19075Y8301D1*X18918Y9238D2*X18291Y9238D1*X18136Y9393*X18136Y9708*X18291Y9865*X18918Y9865*X19075Y9708*X19075Y9393*X18918Y9238*X18291Y9865*X19075Y10173D2*X18136Y10173D1*X18606Y10330D2*X19075Y10800D1*X18136Y10800D2*X18763Y10173D1*X16670Y10853D2*X16358Y11168D1*X17297Y11168*X17297Y11481D2*X17297Y10853D1*X17140Y11791D2*X16513Y11791D1*X16358Y11946*X16358Y12261*X16513Y12418*X17140Y12418D2*X17297Y12261D1*X17297Y11946*X17140Y11791*X16513Y12418*X17140Y12418*X16358Y12725D2*X17297Y12725D1*X16985Y12725D2*X16358Y13353D1*X17297Y13353D2*X16828Y12883D1*X19845Y14028D2*X19533Y14343D1*X20472Y14343*X20472Y14656D2*X20472Y14028D1*X20315Y14966D2*X19688Y14966D1*X19533Y15121*X19533Y15436*X19688Y15593*X20315Y15593*X20472Y15436*X20472Y15121*X20315Y14966*X19688Y15593*X20472Y15900D2*X19533Y15900D1*X20002Y16058D2*X20472Y16528D1*X19533Y16528D2*X20160Y15900D1*X15669Y18623D2*X15512Y18781D1*X15197Y18781*X15042Y18623*X15042Y17996*X15197Y17838*X15512Y17838*X15669Y17996*X15669Y18623*X15042Y17996*X13797Y18308D2*X13170Y18308D1*X14105Y18781D2*X14732Y18781D1*X14732Y18623*X14105Y17996*X14105Y17838*X13640Y17838D2*X13640Y18781D1*X13170Y18308*D16*X21209Y7831D2*X21245Y7676D1*X21290Y7526*X21344Y7376*X21407Y7231*X21478Y7092*X21560Y6955*X21648Y6822*X21745Y6698*X21847Y6579*X21958Y6467*X22075Y6360*X22200Y6261*X22329Y6172*X22464Y6088*X22603Y6015*X22748Y5949*X22896Y5893*X23045Y5845*X23200Y5806*X23355Y5778*X23513Y5758*X23670Y5748*X23828Y5748*X23985Y5758*X24143Y5778*X24298Y5806*X24453Y5845*X24602Y5893*X24750Y5949*X24895Y6015*X25034Y6088*X25169Y6172*X25298Y6261*X25423Y6360*X25540Y6467*X25651Y6579*X25753Y6698*X25850Y6822*X25938Y6955*X26020Y7092*X26091Y7231*X26154Y7376*X26208Y7526*X26253Y7676*X26289Y7831*X26289Y9355*X21209Y9355*X21209Y7831*X15494Y9609D2*X15458Y9764D1*X15413Y9914*X15359Y10063*X15296Y10208*X15225Y10348*X15143Y10485*X15055Y10617*X14958Y10742*X14856Y10861*X14745Y10973*X14628Y11079*X14503Y11179*X14374Y11267*X14239Y11351*X14100Y11425*X13955Y11491*X13807Y11547*X13658Y11595*X13503Y11633*X13348Y11661*X13190Y11681*X13033Y11692*X12875Y11692*X12718Y11681*X12560Y11661*X12405Y11633*X12250Y11595*X12101Y11547*X11953Y11491*X11808Y11425*X11669Y11351*X11534Y11267*X11405Y11179*X11280Y11079*X11163Y10973*X11052Y10861*X10950Y10742*X10853Y10617*X10765Y10485*X10683Y10348*X10612Y10208*X10549Y10063*X10495Y9914*X10450Y9764*X10414Y9609*X10414Y8085*X15494Y8085*X15494Y9609*X15494Y15451D2*X15458Y15296D1*X15413Y15146*X15359Y14996*X15296Y14851*X15225Y14712*X15143Y14575*X15055Y14442*X14958Y14318*X14856Y14199*X14745Y14087*X14628Y13980*X14503Y13881*X14374Y13792*X14239Y13708*X14100Y13635*X13955Y13569*X13807Y13513*X13658Y13465*X13503Y13426*X13348Y13398*X13190Y13378*X13033Y13368*X12875Y13368*X12718Y13378*X12560Y13398*X12405Y13426*X12250Y13465*X12101Y13513*X11953Y13569*X11808Y13635*X11669Y13708*X11534Y13792*X11405Y13881*X11280Y13980*X11163Y14087*X11052Y14199*X10950Y14318*X10853Y14442*X10765Y14575*X10683Y14712*X10612Y14851*X10549Y14996*X10495Y15146*X10450Y15296*X10414Y15451*X10414Y16975*X15494Y16975*X15494Y15451*X26289Y17229D2*X26253Y17384D1*X26208Y17534*X26154Y17683*X26091Y17828*X26020Y17968*X25938Y18105*X25850Y18237*X25753Y18362*X25651Y18481*X25540Y18593*X25423Y18699*X25298Y18799*X25169Y18887*X25034Y18971*X24895Y19045*X24750Y19111*X24602Y19167*X24453Y19215*X24298Y19253*X24143Y19281*X23985Y19301*X23828Y19312*X23670Y19312*X23513Y19301*X23355Y19281*X23200Y19253*X23045Y19215*X22896Y19167*X22748Y19111*X22603Y19045*X22464Y18971*X22329Y18887*X22200Y18799*X22075Y18699*X21958Y18593*X21847Y18481*X21745Y18362*X21648Y18237*X21560Y18105*X21478Y17968*X21407Y17828*X21344Y17683*X21290Y17534*X21245Y17384*X21209Y17229*X21209Y15705*X26289Y15705*X26289Y17229*X26289Y13419D2*X26253Y13574D1*X26208Y13724*X26154Y13873*X26091Y14018*X26020Y14158*X25938Y14295*X25850Y14427*X25753Y14552*X25651Y14671*X25540Y14783*X25423Y14889*X25298Y14989*X25169Y15077*X25034Y15161*X24895Y15235*X24750Y15301*X24602Y15357*X24453Y15405*X24298Y15443*X24143Y15471*X23985Y15491*X23828Y15502*X23670Y15502*X23513Y15491*X23355Y15471*X23200Y15443*X23045Y15405*X22896Y15357*X22748Y15301*X22603Y15235*X22464Y15161*X22329Y15077*X22200Y14989*X22075Y14889*X21958Y14783*X21847Y14671*X21745Y14552*X21648Y14427*X21560Y14295*X21478Y14158*X21407Y14018*X21344Y13873*X21290Y13724*X21245Y13574*X21209Y13419*X21209Y11895*X26289Y11895*X26289Y13419*D105*X9779Y4910D2*X24384Y4910D1*X24752Y5052*X25116Y5215*X25469Y5395*X25811Y5593*X26147Y5806*X26469Y6035*X26779Y6281*X27079Y6540*X27366Y6815*X27638Y7102*X27894Y7404*X28138Y7717*X28367Y8042*X28578Y8377*X28771Y8722*X28948Y9075*X29108Y9439*X29251Y9809*X29375Y10185*X29479Y10569*X29566Y10955*X29634Y11346*X29682Y11737*X29710Y12134*X29721Y12530*X29710Y12926*X29682Y13322*X29634Y13713*X29566Y14105*X29479Y14491*X29375Y14874*X29251Y15250*X29108Y15621*X28948Y15984*X28771Y16337*X28578Y16683*X28367Y17018*X28138Y17343*X27894Y17656*X27638Y17958*X27366Y18245*X27079Y18519*X26779Y18778*X26469Y19025*X26147Y19253*X25811Y19467*X25469Y19665*X25116Y19845*X24752Y20008*X24384Y20150*X9779Y20150*X9779Y4910*D106*X31623Y10942D2*X31623Y9799D1*X31052Y10371D2*X32194Y10371D1*X6794Y14181D2*X5652Y14181D1*X6223Y13609D2*X6223Y14752D1*X7684Y10879D2*X8826Y10879D1*X8255Y10307D2*X8255Y11450D1*X7366Y3134D2*X7747Y3515D1*X8509Y3515*X8893Y3134*X8893Y2753*X11229Y2372D2*X9705Y2372D1*X14381Y3515D2*X14381Y1227D1*X15527Y1227*X15908Y1608*X15908Y3134*X15527Y3515*X14381Y3515*X13569Y3515D2*X13569Y1227D1*X12045Y3515*X12045Y1227*X11229Y1227D2*X11229Y2753D1*X10467Y3515*X9705Y2753*X9705Y1227*X8893Y1227D2*X7366Y1227D1*X8893Y2753*D107*X28829Y18245D2*X31369Y18245D1*X30099Y16975D2*X30099Y19515D1*X31369Y6815D2*X28829Y6815D1*D108*X31725Y11311D2*X31633Y11384D1*X31547Y11466*X31468Y11554*X31397Y11646*X31333Y11745*X31275Y11849*X31227Y11956*X31186Y12065*X31156Y12179*X31133Y12296*X31120Y12413*X31115Y12530*X33574Y13734D2*X33663Y13658D1*X33746Y13579*X33823Y13490*X33891Y13398*X33952Y13302*X34008Y13200*X34054Y13094*X34094Y12984*X34125Y12873*X34145Y12761*X34158Y12644*X34163Y12530*X33574Y11326D2*X33663Y11402D1*X33746Y11481*X33823Y11570*X33891Y11661*X33952Y11758*X34008Y11859*X34054Y11966*X34094Y12075*X34125Y12187*X34145Y12299*X34158Y12416*X34163Y12530*X31753Y13769D2*X31659Y13696D1*X31570Y13614*X31486Y13526*X31410Y13432*X31344Y13332*X31285Y13228*X31232Y13117*X31191Y13005*X31158Y12888*X31135Y12771*X31120Y12649*X31115Y12530*X6304Y7516D2*X6215Y7592D1*X6132Y7671*X6055Y7760*X5987Y7851*X5926Y7948*X5870Y8049*X5824Y8156*X5784Y8265*X5753Y8377*X5733Y8489*X5720Y8606*X5715Y8720*X8153Y9939D2*X8245Y9865D1*X8331Y9784*X8410Y9695*X8481Y9604*X8545Y9505*X8603Y9401*X8651Y9294*X8692Y9185*X8722Y9070*X8745Y8954*X8758Y8837*X8763Y8720*X8125Y7480D2*X8219Y7554D1*X8308Y7635*X8392Y7724*X8468Y7818*X8534Y7917*X8593Y8021*X8646Y8133*X8687Y8245*X8720Y8362*X8743Y8479*X8758Y8600*X8763Y8720*X6304Y9924D2*X6215Y9848D1*X6132Y9769*X6055Y9680*X5987Y9588*X5926Y9492*X5870Y9390*X5824Y9284*X5784Y9174*X5753Y9063*X5733Y8951*X5720Y8834*X5715Y8720*X19334Y1176D2*X18250Y1176D1*X19886Y1176D2*X20429Y1720D1*X20429Y2261*X19886Y2804*X18250Y2532D2*X18519Y2804D1*X19063Y2804*X19334Y2532*X19334Y2261*X18250Y1176*X17701Y1176D2*X17158Y1720D1*X17158Y2261*X17701Y2804*X12382Y5926D2*X16066Y5926D1*X16066Y7704D2*X12382Y7704D1*X17780Y7513D2*X17780Y11196D1*X19558Y11196D2*X19558Y7513D1*X24956Y9736D2*X21272Y9736D1*X28448Y14371D2*X28448Y10688D1*X26670Y10688D2*X26670Y14371D1*X21272Y11514D2*X24956Y11514D1*X17653Y10688D2*X17653Y14371D1*X15875Y14371D2*X15875Y10688D1*X8174Y17544D2*X8263Y17468D1*X8346Y17389*X8423Y17300*X8491Y17208*X8552Y17112*X8608Y17010*X8654Y16904*X8694Y16794*X8725Y16683*X8745Y16571*X8758Y16454*X8763Y16340*X6325Y15121D2*X6233Y15194D1*X6147Y15276*X6068Y15364*X5997Y15456*X5933Y15555*X5875Y15659*X5827Y15766*X5786Y15875*X5756Y15989*X5733Y16106*X5720Y16223*X5715Y16340*X6353Y17579D2*X6259Y17506D1*X6170Y17424*X6086Y17336*X6010Y17242*X5944Y17142*X5885Y17038*X5832Y16927*X5791Y16815*X5758Y16698*X5735Y16581*X5720Y16459*X5715Y16340*X8174Y15136D2*X8263Y15212D1*X8346Y15291*X8423Y15380*X8491Y15471*X8552Y15568*X8608Y15669*X8654Y15776*X8694Y15885*X8725Y15997*X8745Y16109*X8758Y16226*X8763Y16340*X15479Y22852D2*X15479Y21768D1*X19294Y23124D2*X19294Y22040D1*X18753Y21496*X18209Y22040*X18209Y23124*X17658Y23124D2*X16574Y23124D1*X16574Y22311*X16574Y21768D2*X16843Y21496D1*X17386Y21496*X17658Y21768*X17658Y22311*X17386Y22581*X17115Y22581*X16574Y22311*X14935Y22311D2*X16020Y22311D1*X7493Y23198D2*X13335Y23198D1*X13335Y20912D2*X7493Y20912D1*X12382Y19134D2*X16066Y19134D1*X16066Y17356D2*X12382Y17356D1*X19050Y13863D2*X19050Y17546D1*X20828Y17546D2*X20828Y13863D1*X27450Y22852D2*X27178Y23124D1*X26637Y23124*X26365Y22852*X26365Y21768*X27450Y21768D2*X27450Y22852D1*X26365Y21768*X26637Y21496*X27178Y21496*X27450Y21768*X28545Y21496D2*X28004Y22040D1*X28004Y23124*X29088Y23124D2*X29088Y22040D1*X28545Y21496*D109*X8687Y22273D2*X8992Y22578D1*X8992Y21661*X9296Y21661D2*X8687Y21661D1*X9622Y21814D2*X9622Y22426D1*X9774Y22578*X10079Y22578*X10234Y22426*X10234Y21814*X10079Y21661*X9774Y21661*X9622Y21814*X10234Y22426*X11168Y22426D2*X11016Y22578D1*X10711Y22578*X10559Y22426*X10559Y21814*X11168Y21814D2*X11168Y22426D1*X10559Y21814*X10711Y21661*X11016Y21661*X11168Y21814*X11494Y21661D2*X11494Y22273D1*X11951Y22273*X12103Y22118*X12103Y21661*X26411Y3592D2*X26563Y3439D1*X22212Y2068D2*X22212Y1151D1*X23147Y2068D2*X23759Y2068D1*X23452Y1608D2*X23147Y1608D1*X24084Y2068D2*X24084Y1151D1*X25019Y1151D2*X25019Y2068D1*X26563Y1608D2*X25954Y1608D1*X27501Y2068D2*X27501Y1151D1*X26891Y2068*X26891Y1151*X26563Y1151D2*X26563Y1763D1*X26259Y2068*X25954Y1763*X25954Y1151*X25629Y1151D2*X25629Y2068D1*X25324Y1763*X25019Y2068*X24694Y2068D2*X24694Y1151D1*X24389Y1455*X24084Y1151*X23759Y1151D2*X23147Y1151D1*X23147Y2068*X22822Y2068D2*X22822Y1151D1*X22212Y2068*X22212Y2827D2*X22365Y2675D1*X22517Y2675*X22670Y2827*X22670Y3592*X22822Y3592D2*X22517Y3592D1*X23147Y3132D2*X23759Y3132D1*X23147Y2675D2*X23147Y3287D1*X23452Y3592*X23759Y3287*X23759Y2675*X24084Y2675D2*X24084Y3592D1*X24389Y3287*X24694Y3592*X24694Y2675*X25324Y3132D2*X25019Y3132D1*X25629Y3592D2*X25019Y3592D1*X25019Y2675*X25629Y2675*X25954Y2827D2*X26106Y2675D1*X26411Y2675*X26563Y2827*X26563Y2979*X26411Y3132*X26106Y3132*X25954Y3287*X25954Y3439*X26106Y3592*X26411Y3592*X0Y0D2*M02*