G75*
G70*
%OFA0B0*%
%FSLAX24Y24*%
%IPPOS*%
%LPD*%
%AMOC8*
5,1,8,0,0,1.08239X$1,22.5*
%
%ADD10C,0.0476*%
%ADD11C,0.0515*%
%ADD12C,0.0709*%
%ADD13C,0.0160*%
D10*
X003975Y005160D03*
X004475Y005660D03*
X004975Y005160D03*
X006100Y005535D03*
X006600Y005035D03*
X007100Y005535D03*
X006600Y006410D03*
X007100Y006910D03*
X006100Y006910D03*
X004975Y006660D03*
X004475Y007160D03*
X003975Y006660D03*
X004100Y008785D03*
X004600Y009285D03*
X005100Y008785D03*
X007975Y009535D03*
X008475Y010035D03*
X008975Y009535D03*
X009225Y006660D03*
X009725Y006160D03*
X009225Y005660D03*
X015725Y008410D03*
X016225Y008910D03*
X016725Y008410D03*
X017475Y009285D03*
X017975Y008785D03*
X018475Y009285D03*
X018475Y013035D03*
X017975Y013535D03*
X017475Y013035D03*
X016725Y013910D03*
X016225Y013410D03*
X015725Y013910D03*
X009725Y013910D03*
X009225Y013410D03*
X009225Y014410D03*
X007100Y014660D03*
X006600Y014160D03*
X006100Y014660D03*
X004975Y014410D03*
X004475Y014910D03*
X003975Y014410D03*
X004475Y013410D03*
X003975Y012910D03*
X004975Y012910D03*
X006100Y013285D03*
X006600Y012785D03*
X007100Y013285D03*
X004975Y016535D03*
X004475Y017035D03*
X003975Y016535D03*
X007975Y017285D03*
X008475Y017785D03*
X008975Y017285D03*
D11*
X009850Y016285D03*
X010100Y015535D03*
X011475Y015535D03*
X011475Y014535D03*
X013225Y013410D03*
X014225Y013410D03*
X012100Y011785D03*
X012100Y010410D03*
X013225Y008910D03*
X014225Y008910D03*
X016600Y010160D03*
X017475Y010160D03*
X018475Y010160D03*
X019225Y010160D03*
X020850Y010660D03*
X020850Y011660D03*
X019225Y012160D03*
X018475Y012160D03*
X017475Y012160D03*
X016600Y012160D03*
X011475Y007785D03*
X011475Y006785D03*
X010100Y007785D03*
X009850Y008535D03*
X010100Y010410D03*
X010100Y011785D03*
X008225Y012035D03*
X008100Y012785D03*
X008100Y014785D03*
X008100Y015535D03*
X007850Y016285D03*
X006975Y015785D03*
X006225Y015785D03*
X005600Y015660D03*
X003600Y015660D03*
X002100Y015660D03*
X002100Y016660D03*
X002100Y017660D03*
X003600Y017910D03*
X003850Y019285D03*
X005600Y017910D03*
X006225Y017785D03*
X006975Y017785D03*
X005850Y019285D03*
X002100Y014660D03*
X002100Y013285D03*
X002100Y012285D03*
X003600Y012035D03*
X003600Y010160D03*
X002100Y010035D03*
X002100Y009035D03*
X002100Y007910D03*
X002100Y006910D03*
X002100Y005660D03*
X002100Y004660D03*
X003600Y004285D03*
X005600Y004285D03*
X006225Y004285D03*
X008225Y004285D03*
X008100Y005035D03*
X008100Y007035D03*
X008100Y007785D03*
X007850Y008535D03*
X006975Y008035D03*
X006225Y008035D03*
X005600Y007910D03*
X003600Y007910D03*
X005600Y010160D03*
X006225Y010035D03*
X006975Y010035D03*
X006225Y012035D03*
X005600Y012035D03*
X015600Y004785D03*
X017600Y004785D03*
D12*
X020725Y008535D03*
X020725Y013660D03*
X013100Y019285D03*
X011475Y019285D03*
X000975Y017160D03*
X000975Y015160D03*
X000975Y012785D03*
X000975Y009535D03*
X000975Y007410D03*
X000975Y005160D03*
D13*
X002460Y003431D02*
X002460Y003410D01*
X019240Y003410D01*
X019240Y003431D01*
X019316Y003714D01*
X019462Y003967D01*
X019668Y004173D01*
X019922Y004319D01*
X020204Y004395D01*
X020496Y004395D01*
X020600Y004367D01*
X020600Y008030D01*
X020434Y008099D01*
X020289Y008244D01*
X020211Y008433D01*
X020211Y008638D01*
X020289Y008827D01*
X020434Y008971D01*
X020600Y009040D01*
X020600Y010301D01*
X020565Y010327D01*
X020516Y010375D01*
X020476Y010431D01*
X020445Y010492D01*
X020423Y010558D01*
X020413Y010626D01*
X020413Y010660D01*
X020600Y010660D01*
X020600Y010660D01*
X020413Y010660D01*
X020413Y010695D01*
X020423Y010763D01*
X020445Y010828D01*
X020476Y010889D01*
X020516Y010945D01*
X020565Y010994D01*
X020600Y011019D01*
X020600Y011320D01*
X020496Y011424D01*
X020433Y011577D01*
X020433Y011743D01*
X020496Y011897D01*
X020600Y012001D01*
X020600Y013155D01*
X020434Y013224D01*
X020289Y013369D01*
X020211Y013558D01*
X020211Y013763D01*
X020289Y013952D01*
X020434Y014096D01*
X020600Y014165D01*
X020600Y017953D01*
X020496Y017925D01*
X020204Y017925D01*
X019922Y018001D01*
X019668Y018147D01*
X019462Y018354D01*
X019316Y018607D01*
X019240Y018889D01*
X019240Y019181D01*
X019316Y019464D01*
X019462Y019717D01*
X019530Y019785D01*
X013237Y019785D01*
X013391Y019721D01*
X013536Y019577D01*
X013614Y019388D01*
X013614Y019183D01*
X013536Y018994D01*
X013391Y018849D01*
X013202Y018771D01*
X012998Y018771D01*
X012809Y018849D01*
X012664Y018994D01*
X012586Y019183D01*
X012586Y019388D01*
X012664Y019577D01*
X012809Y019721D01*
X012963Y019785D01*
X011665Y019785D01*
X011680Y019780D01*
X011755Y019742D01*
X011823Y019693D01*
X011883Y019633D01*
X011932Y019565D01*
X011970Y019490D01*
X011996Y019410D01*
X012009Y019327D01*
X012009Y019323D01*
X011513Y019323D01*
X011513Y019247D01*
X011513Y018751D01*
X011517Y018751D01*
X011600Y018764D01*
X011680Y018790D01*
X011755Y018828D01*
X011823Y018878D01*
X011883Y018937D01*
X011932Y019005D01*
X011970Y019080D01*
X011996Y019160D01*
X012009Y019243D01*
X012009Y019247D01*
X011513Y019247D01*
X011437Y019247D01*
X011437Y018751D01*
X011433Y018751D01*
X011350Y018764D01*
X011270Y018790D01*
X011195Y018828D01*
X011127Y018878D01*
X011067Y018937D01*
X011018Y019005D01*
X010980Y019080D01*
X010954Y019160D01*
X010941Y019243D01*
X010941Y019247D01*
X011437Y019247D01*
X011437Y019323D01*
X010941Y019323D01*
X010941Y019327D01*
X010954Y019410D01*
X010980Y019490D01*
X011018Y019565D01*
X011067Y019633D01*
X011127Y019693D01*
X011195Y019742D01*
X011270Y019780D01*
X011285Y019785D01*
X002170Y019785D01*
X002238Y019717D01*
X002384Y019464D01*
X002460Y019181D01*
X002460Y018889D01*
X002384Y018607D01*
X002238Y018354D01*
X002032Y018147D01*
X001778Y018001D01*
X001496Y017925D01*
X001204Y017925D01*
X001100Y017953D01*
X001100Y017665D01*
X001266Y017596D01*
X001411Y017452D01*
X001489Y017263D01*
X001489Y017058D01*
X001411Y016869D01*
X001266Y016724D01*
X001100Y016655D01*
X001100Y015665D01*
X001266Y015596D01*
X001411Y015452D01*
X001489Y015263D01*
X001489Y015058D01*
X001411Y014869D01*
X001266Y014724D01*
X001100Y014655D01*
X001100Y013290D01*
X001266Y013221D01*
X001411Y013077D01*
X001489Y012888D01*
X001489Y012683D01*
X001411Y012494D01*
X001266Y012349D01*
X001100Y012280D01*
X001100Y010040D01*
X001266Y009971D01*
X001411Y009827D01*
X001489Y009638D01*
X001489Y009433D01*
X001411Y009244D01*
X001266Y009099D01*
X001100Y009030D01*
X001100Y007915D01*
X001266Y007846D01*
X001411Y007702D01*
X001489Y007513D01*
X001489Y007308D01*
X001411Y007119D01*
X001266Y006974D01*
X001100Y006905D01*
X001100Y005665D01*
X001266Y005596D01*
X001411Y005452D01*
X001489Y005263D01*
X001489Y005058D01*
X001411Y004869D01*
X001266Y004724D01*
X001100Y004655D01*
X001100Y004367D01*
X001204Y004395D01*
X001496Y004395D01*
X001778Y004319D01*
X002032Y004173D01*
X002238Y003967D01*
X002384Y003714D01*
X002460Y003431D01*
X002452Y003462D02*
X019248Y003462D01*
X019291Y003620D02*
X002409Y003620D01*
X002347Y003779D02*
X019353Y003779D01*
X019445Y003937D02*
X008490Y003937D01*
X008510Y003952D02*
X008559Y004000D01*
X008599Y004056D01*
X008630Y004117D01*
X008652Y004183D01*
X008662Y004251D01*
X008662Y004285D01*
X008225Y004285D01*
X008225Y003848D01*
X008259Y003848D01*
X008327Y003858D01*
X008393Y003880D01*
X008454Y003911D01*
X008510Y003952D01*
X008619Y004096D02*
X019591Y004096D01*
X019809Y004254D02*
X008662Y004254D01*
X008662Y004285D02*
X008662Y004320D01*
X008652Y004388D01*
X008630Y004453D01*
X008599Y004514D01*
X008559Y004570D01*
X008510Y004619D01*
X008454Y004659D01*
X008393Y004691D01*
X008377Y004696D01*
X008385Y004702D01*
X008434Y004750D01*
X008474Y004806D01*
X008505Y004867D01*
X008527Y004933D01*
X008537Y005001D01*
X008537Y005035D01*
X008100Y005035D01*
X008100Y005035D01*
X007663Y005035D01*
X007663Y005001D01*
X007673Y004933D01*
X007695Y004867D01*
X007726Y004806D01*
X007766Y004750D01*
X007815Y004702D01*
X007871Y004661D01*
X007932Y004630D01*
X007948Y004625D01*
X007940Y004619D01*
X007891Y004570D01*
X007851Y004514D01*
X007820Y004453D01*
X007798Y004388D01*
X007788Y004320D01*
X007788Y004285D01*
X007788Y004251D01*
X007798Y004183D01*
X007820Y004117D01*
X007851Y004056D01*
X007891Y004000D01*
X007940Y003952D01*
X007996Y003911D01*
X008057Y003880D01*
X008123Y003858D01*
X008191Y003848D01*
X008225Y003848D01*
X008225Y004285D01*
X008225Y004285D01*
X008225Y004285D01*
X007788Y004285D01*
X008225Y004285D01*
X008225Y004285D01*
X008662Y004285D01*
X008644Y004413D02*
X015368Y004413D01*
X015371Y004411D02*
X015432Y004380D01*
X015498Y004358D01*
X015566Y004348D01*
X015600Y004348D01*
X015634Y004348D01*
X015702Y004358D01*
X015768Y004380D01*
X015829Y004411D01*
X015885Y004452D01*
X015934Y004500D01*
X015974Y004556D01*
X016005Y004617D01*
X016027Y004683D01*
X016037Y004751D01*
X016037Y004785D01*
X015600Y004785D01*
X015600Y004348D01*
X015600Y004785D01*
X015600Y004785D01*
X015600Y004785D01*
X015163Y004785D01*
X015163Y004751D01*
X015173Y004683D01*
X015195Y004617D01*
X015226Y004556D01*
X015266Y004500D01*
X015315Y004452D01*
X015371Y004411D01*
X015218Y004571D02*
X008558Y004571D01*
X008413Y004730D02*
X015166Y004730D01*
X015163Y004785D02*
X015600Y004785D01*
X015600Y004785D01*
X016037Y004785D01*
X016037Y004820D01*
X016027Y004888D01*
X016005Y004953D01*
X015974Y005014D01*
X015934Y005070D01*
X015885Y005119D01*
X015829Y005159D01*
X015768Y005191D01*
X015702Y005212D01*
X015634Y005223D01*
X015600Y005223D01*
X015566Y005223D01*
X015498Y005212D01*
X015432Y005191D01*
X015371Y005159D01*
X015315Y005119D01*
X015266Y005070D01*
X015226Y005014D01*
X015195Y004953D01*
X015173Y004888D01*
X015163Y004820D01*
X015163Y004785D01*
X015173Y004888D02*
X008512Y004888D01*
X008537Y005035D02*
X008100Y005035D01*
X008100Y005035D01*
X007663Y005035D01*
X007663Y005070D01*
X007673Y005138D01*
X007695Y005203D01*
X007726Y005264D01*
X007766Y005320D01*
X007815Y005369D01*
X007871Y005409D01*
X007932Y005441D01*
X007998Y005462D01*
X008066Y005473D01*
X008100Y005473D01*
X008100Y005035D01*
X008100Y005035D01*
X008100Y005473D01*
X008134Y005473D01*
X008202Y005462D01*
X008268Y005441D01*
X008329Y005409D01*
X008385Y005369D01*
X008434Y005320D01*
X008474Y005264D01*
X008505Y005203D01*
X008527Y005138D01*
X008537Y005070D01*
X008537Y005035D01*
X008537Y005047D02*
X015249Y005047D01*
X015477Y005205D02*
X008504Y005205D01*
X008390Y005364D02*
X008959Y005364D01*
X009000Y005323D02*
X008888Y005435D01*
X008827Y005581D01*
X008827Y005739D01*
X008888Y005886D01*
X009000Y005997D01*
X009146Y006058D01*
X009304Y006058D01*
X009344Y006042D01*
X009327Y006081D01*
X009327Y006239D01*
X009344Y006279D01*
X009304Y006262D01*
X009146Y006262D01*
X009000Y006323D01*
X008888Y006435D01*
X008827Y006581D01*
X008827Y006739D01*
X008888Y006886D01*
X009000Y006997D01*
X009146Y007058D01*
X009304Y007058D01*
X009450Y006997D01*
X009562Y006886D01*
X009623Y006739D01*
X009623Y006581D01*
X009606Y006542D01*
X009646Y006558D01*
X009804Y006558D01*
X009950Y006497D01*
X010062Y006386D01*
X010123Y006239D01*
X010123Y006081D01*
X010062Y005935D01*
X009950Y005823D01*
X009804Y005762D01*
X009646Y005762D01*
X009606Y005779D01*
X009623Y005739D01*
X009623Y005581D01*
X009562Y005435D01*
X009450Y005323D01*
X009304Y005262D01*
X009146Y005262D01*
X009000Y005323D01*
X008852Y005522D02*
X007498Y005522D01*
X007498Y005456D02*
X007437Y005310D01*
X007325Y005198D01*
X007179Y005137D01*
X007021Y005137D01*
X006981Y005154D01*
X006998Y005114D01*
X006998Y004956D01*
X006937Y004810D01*
X006825Y004698D01*
X006679Y004637D01*
X006521Y004637D01*
X006375Y004698D01*
X006263Y004810D01*
X006202Y004956D01*
X006202Y005114D01*
X006219Y005154D01*
X006179Y005137D01*
X006021Y005137D01*
X005875Y005198D01*
X005763Y005310D01*
X005702Y005456D01*
X005702Y005614D01*
X005763Y005761D01*
X005875Y005872D01*
X006021Y005933D01*
X006179Y005933D01*
X006325Y005872D01*
X006437Y005761D01*
X006498Y005614D01*
X006498Y005456D01*
X006481Y005417D01*
X006521Y005433D01*
X006679Y005433D01*
X006719Y005417D01*
X006702Y005456D01*
X006702Y005614D01*
X006763Y005761D01*
X006875Y005872D01*
X007021Y005933D01*
X007179Y005933D01*
X007325Y005872D01*
X007437Y005761D01*
X007498Y005614D01*
X007498Y005456D01*
X007460Y005364D02*
X007810Y005364D01*
X007696Y005205D02*
X007333Y005205D01*
X007663Y005047D02*
X006998Y005047D01*
X006970Y004888D02*
X007688Y004888D01*
X007787Y004730D02*
X006857Y004730D01*
X006579Y004522D02*
X006461Y004639D01*
X006308Y004703D01*
X006142Y004703D01*
X005989Y004639D01*
X005912Y004563D01*
X005836Y004639D01*
X005683Y004703D01*
X005517Y004703D01*
X005364Y004639D01*
X005246Y004522D01*
X005183Y004368D01*
X005183Y004202D01*
X005246Y004049D01*
X005364Y003931D01*
X005517Y003868D01*
X005683Y003868D01*
X005836Y003931D01*
X005912Y004007D01*
X005989Y003931D01*
X006142Y003868D01*
X006308Y003868D01*
X006461Y003931D01*
X006579Y004049D01*
X006642Y004202D01*
X006642Y004368D01*
X006579Y004522D01*
X006529Y004571D02*
X007892Y004571D01*
X007806Y004413D02*
X006624Y004413D01*
X006642Y004254D02*
X007788Y004254D01*
X007831Y004096D02*
X006598Y004096D01*
X006467Y003937D02*
X007960Y003937D01*
X008225Y003937D02*
X008225Y003937D01*
X008225Y004096D02*
X008225Y004096D01*
X008225Y004254D02*
X008225Y004254D01*
X008100Y005047D02*
X008100Y005047D01*
X008100Y005205D02*
X008100Y005205D01*
X008100Y005364D02*
X008100Y005364D01*
X007470Y005681D02*
X008827Y005681D01*
X008869Y005839D02*
X007359Y005839D01*
X006841Y005839D02*
X006359Y005839D01*
X006470Y005681D02*
X006730Y005681D01*
X006702Y005522D02*
X006498Y005522D01*
X006521Y006012D02*
X006679Y006012D01*
X006825Y006073D01*
X006937Y006185D01*
X006998Y006331D01*
X006998Y006489D01*
X006981Y006529D01*
X007021Y006512D01*
X007179Y006512D01*
X007325Y006573D01*
X007437Y006685D01*
X007498Y006831D01*
X007498Y006989D01*
X007437Y007136D01*
X007325Y007247D01*
X007179Y007308D01*
X007021Y007308D01*
X006875Y007247D01*
X006763Y007136D01*
X006702Y006989D01*
X006702Y006831D01*
X006719Y006792D01*
X006679Y006808D01*
X006521Y006808D01*
X006481Y006792D01*
X006498Y006831D01*
X006498Y006989D01*
X006437Y007136D01*
X006325Y007247D01*
X006179Y007308D01*
X006021Y007308D01*
X005875Y007247D01*
X005763Y007136D01*
X005702Y006989D01*
X005702Y006831D01*
X005763Y006685D01*
X005875Y006573D01*
X006021Y006512D01*
X006179Y006512D01*
X006219Y006529D01*
X006202Y006489D01*
X006202Y006331D01*
X006263Y006185D01*
X006375Y006073D01*
X006521Y006012D01*
X006291Y006156D02*
X001100Y006156D01*
X001100Y005998D02*
X001820Y005998D01*
X001815Y005994D02*
X001766Y005945D01*
X001726Y005889D01*
X001695Y005828D01*
X001673Y005763D01*
X001663Y005695D01*
X001663Y005660D01*
X001663Y005626D01*
X001673Y005558D01*
X001695Y005492D01*
X001726Y005431D01*
X001766Y005375D01*
X001815Y005327D01*
X001871Y005286D01*
X001932Y005255D01*
X001998Y005233D01*
X002066Y005223D01*
X002100Y005223D01*
X002134Y005223D01*
X002202Y005233D01*
X002268Y005255D01*
X002329Y005286D01*
X002385Y005327D01*
X002434Y005375D01*
X002474Y005431D01*
X002505Y005492D01*
X002527Y005558D01*
X002537Y005626D01*
X002537Y005660D01*
X002100Y005660D01*
X002100Y005223D01*
X002100Y005660D01*
X002100Y005660D01*
X001663Y005660D01*
X002100Y005660D01*
X002100Y005660D01*
X002100Y005660D01*
X002537Y005660D01*
X002537Y005695D01*
X002527Y005763D01*
X002505Y005828D01*
X002474Y005889D01*
X002434Y005945D01*
X002385Y005994D01*
X002329Y006034D01*
X002268Y006066D01*
X002202Y006087D01*
X002134Y006098D01*
X002100Y006098D01*
X002066Y006098D01*
X001998Y006087D01*
X001932Y006066D01*
X001871Y006034D01*
X001815Y005994D01*
X001700Y005839D02*
X001100Y005839D01*
X001100Y005681D02*
X001663Y005681D01*
X001685Y005522D02*
X001340Y005522D01*
X001447Y005364D02*
X001778Y005364D01*
X002100Y005364D02*
X002100Y005364D01*
X002100Y005522D02*
X002100Y005522D01*
X002100Y005660D02*
X002100Y006098D01*
X002100Y005660D01*
X002100Y005660D01*
X002100Y005681D02*
X002100Y005681D01*
X002100Y005839D02*
X002100Y005839D01*
X002100Y005998D02*
X002100Y005998D01*
X002380Y005998D02*
X004250Y005998D01*
X004250Y005997D02*
X004138Y005886D01*
X004077Y005739D01*
X004077Y005581D01*
X004094Y005542D01*
X004054Y005558D01*
X003896Y005558D01*
X003750Y005497D01*
X003638Y005386D01*
X003577Y005239D01*
X003577Y005081D01*
X003638Y004935D01*
X003750Y004823D01*
X003896Y004762D01*
X004054Y004762D01*
X004200Y004823D01*
X004312Y004935D01*
X004373Y005081D01*
X004373Y005239D01*
X004356Y005279D01*
X004396Y005262D01*
X004554Y005262D01*
X004594Y005279D01*
X004577Y005239D01*
X004577Y005081D01*
X004638Y004935D01*
X004750Y004823D01*
X004896Y004762D01*
X005054Y004762D01*
X005200Y004823D01*
X005312Y004935D01*
X005373Y005081D01*
X005373Y005239D01*
X005312Y005386D01*
X005200Y005497D01*
X005054Y005558D01*
X004896Y005558D01*
X004856Y005542D01*
X004873Y005581D01*
X004873Y005739D01*
X004812Y005886D01*
X004700Y005997D01*
X004554Y006058D01*
X004396Y006058D01*
X004250Y005997D01*
X004119Y005839D02*
X002500Y005839D01*
X002537Y005681D02*
X004077Y005681D01*
X003809Y005522D02*
X002515Y005522D01*
X002422Y005364D02*
X003629Y005364D01*
X003577Y005205D02*
X001489Y005205D01*
X001485Y005047D02*
X001942Y005047D01*
X002017Y005078D02*
X001864Y005014D01*
X001746Y004897D01*
X001683Y004743D01*
X001683Y004577D01*
X001746Y004424D01*
X001864Y004306D01*
X002017Y004243D01*
X002183Y004243D01*
X002336Y004306D01*
X002454Y004424D01*
X002517Y004577D01*
X002517Y004743D01*
X002454Y004897D01*
X002336Y005014D01*
X002183Y005078D01*
X002017Y005078D01*
X002258Y005047D02*
X003591Y005047D01*
X003684Y004888D02*
X002457Y004888D01*
X002517Y004730D02*
X006343Y004730D01*
X006230Y004888D02*
X005266Y004888D01*
X005359Y005047D02*
X006202Y005047D01*
X005867Y005205D02*
X005373Y005205D01*
X005321Y005364D02*
X005740Y005364D01*
X005702Y005522D02*
X005141Y005522D01*
X004873Y005681D02*
X005730Y005681D01*
X005841Y005839D02*
X004831Y005839D01*
X004700Y005998D02*
X009000Y005998D01*
X009327Y006156D02*
X006909Y006156D01*
X006991Y006315D02*
X009020Y006315D01*
X008872Y006473D02*
X006998Y006473D01*
X007384Y006632D02*
X007983Y006632D01*
X008017Y006618D02*
X008183Y006618D01*
X008336Y006681D01*
X008454Y006799D01*
X008517Y006952D01*
X008517Y007118D01*
X008454Y007272D01*
X008336Y007389D01*
X008286Y007410D01*
X008336Y007431D01*
X008454Y007549D01*
X008517Y007702D01*
X008517Y007868D01*
X008454Y008022D01*
X008336Y008139D01*
X008183Y008203D01*
X008108Y008203D01*
X008204Y008299D01*
X008267Y008452D01*
X008267Y008618D01*
X008204Y008772D01*
X008086Y008889D01*
X007933Y008953D01*
X007767Y008953D01*
X007614Y008889D01*
X007496Y008772D01*
X007433Y008618D01*
X007433Y008452D01*
X007496Y008299D01*
X007614Y008181D01*
X007767Y008118D01*
X007842Y008118D01*
X007746Y008022D01*
X007683Y007868D01*
X007683Y007702D01*
X007746Y007549D01*
X007864Y007431D01*
X007914Y007410D01*
X007864Y007389D01*
X007746Y007272D01*
X007683Y007118D01*
X007683Y006952D01*
X007746Y006799D01*
X007864Y006681D01*
X008017Y006618D01*
X008217Y006632D02*
X008827Y006632D01*
X008848Y006790D02*
X008445Y006790D01*
X008516Y006949D02*
X008951Y006949D01*
X008517Y007107D02*
X011178Y007107D01*
X011190Y007119D02*
X011141Y007070D01*
X011101Y007014D01*
X011070Y006953D01*
X011048Y006888D01*
X011038Y006820D01*
X011038Y006785D01*
X011038Y006751D01*
X011048Y006683D01*
X011070Y006617D01*
X011101Y006556D01*
X011141Y006500D01*
X011190Y006452D01*
X011246Y006411D01*
X011307Y006380D01*
X011373Y006358D01*
X011441Y006348D01*
X011475Y006348D01*
X011509Y006348D01*
X011577Y006358D01*
X011643Y006380D01*
X011704Y006411D01*
X011760Y006452D01*
X011809Y006500D01*
X011849Y006556D01*
X011880Y006617D01*
X011902Y006683D01*
X011912Y006751D01*
X011912Y006785D01*
X011475Y006785D01*
X011475Y006348D01*
X011475Y006785D01*
X011475Y006785D01*
X011038Y006785D01*
X011475Y006785D01*
X011475Y006785D01*
X011475Y006785D01*
X011912Y006785D01*
X011912Y006820D01*
X011902Y006888D01*
X011880Y006953D01*
X011849Y007014D01*
X011809Y007070D01*
X011760Y007119D01*
X011704Y007159D01*
X011643Y007191D01*
X011577Y007212D01*
X011509Y007223D01*
X011475Y007223D01*
X011441Y007223D01*
X011373Y007212D01*
X011307Y007191D01*
X011246Y007159D01*
X011190Y007119D01*
X011068Y006949D02*
X009499Y006949D01*
X009602Y006790D02*
X011038Y006790D01*
X011065Y006632D02*
X009623Y006632D01*
X009975Y006473D02*
X011168Y006473D01*
X011475Y006473D02*
X011475Y006473D01*
X011475Y006632D02*
X011475Y006632D01*
X011475Y006785D02*
X011475Y007223D01*
X011475Y006785D01*
X011475Y006785D01*
X011475Y006790D02*
X011475Y006790D01*
X011475Y006949D02*
X011475Y006949D01*
X011475Y007107D02*
X011475Y007107D01*
X011772Y007107D02*
X020600Y007107D01*
X020600Y006949D02*
X011882Y006949D01*
X011912Y006790D02*
X020600Y006790D01*
X020600Y006632D02*
X011885Y006632D01*
X011782Y006473D02*
X020600Y006473D01*
X020600Y006315D02*
X010092Y006315D01*
X010123Y006156D02*
X020600Y006156D01*
X020600Y005998D02*
X010088Y005998D01*
X009967Y005839D02*
X020600Y005839D01*
X020600Y005681D02*
X009623Y005681D01*
X009598Y005522D02*
X020600Y005522D01*
X020600Y005364D02*
X009491Y005364D01*
X008456Y007266D02*
X020600Y007266D01*
X020600Y007424D02*
X011694Y007424D01*
X011711Y007431D02*
X011829Y007549D01*
X011892Y007702D01*
X011892Y007868D01*
X011829Y008022D01*
X011711Y008139D01*
X011558Y008203D01*
X011392Y008203D01*
X011239Y008139D01*
X011121Y008022D01*
X011058Y007868D01*
X011058Y007702D01*
X011121Y007549D01*
X011239Y007431D01*
X011392Y007368D01*
X011558Y007368D01*
X011711Y007431D01*
X011843Y007583D02*
X020600Y007583D01*
X020600Y007741D02*
X011892Y007741D01*
X011879Y007900D02*
X020600Y007900D01*
X020533Y008058D02*
X016915Y008058D01*
X016950Y008073D02*
X017062Y008185D01*
X017123Y008331D01*
X017123Y008489D01*
X017062Y008636D01*
X016950Y008747D01*
X016804Y008808D01*
X016646Y008808D01*
X016606Y008792D01*
X016623Y008831D01*
X016623Y008989D01*
X016562Y009136D01*
X016450Y009247D01*
X016304Y009308D01*
X016146Y009308D01*
X016000Y009247D01*
X015888Y009136D01*
X015827Y008989D01*
X015827Y008831D01*
X015844Y008792D01*
X015804Y008808D01*
X015646Y008808D01*
X015500Y008747D01*
X015388Y008636D01*
X015327Y008489D01*
X015327Y008331D01*
X015388Y008185D01*
X015500Y008073D01*
X015646Y008012D01*
X015804Y008012D01*
X015950Y008073D01*
X016062Y008185D01*
X016123Y008331D01*
X016123Y008489D01*
X016106Y008529D01*
X016146Y008512D01*
X016304Y008512D01*
X016344Y008529D01*
X016327Y008489D01*
X016327Y008331D01*
X016388Y008185D01*
X016500Y008073D01*
X016646Y008012D01*
X016804Y008012D01*
X016950Y008073D01*
X017075Y008217D02*
X020316Y008217D01*
X020235Y008375D02*
X017123Y008375D01*
X017104Y008534D02*
X017664Y008534D01*
X017638Y008560D02*
X017750Y008448D01*
X017896Y008387D01*
X018054Y008387D01*
X018200Y008448D01*
X018312Y008560D01*
X018373Y008706D01*
X018373Y008864D01*
X018356Y008904D01*
X018396Y008887D01*
X018554Y008887D01*
X018700Y008948D01*
X018812Y009060D01*
X018873Y009206D01*
X018873Y009364D01*
X018812Y009511D01*
X018700Y009622D01*
X018554Y009683D01*
X018396Y009683D01*
X018250Y009622D01*
X018138Y009511D01*
X018077Y009364D01*
X018077Y009206D01*
X018094Y009167D01*
X018054Y009183D01*
X017896Y009183D01*
X017856Y009167D01*
X017873Y009206D01*
X017873Y009364D01*
X017812Y009511D01*
X017700Y009622D01*
X017554Y009683D01*
X017396Y009683D01*
X017250Y009622D01*
X017138Y009511D01*
X017077Y009364D01*
X017077Y009206D01*
X017138Y009060D01*
X017250Y008948D01*
X017396Y008887D01*
X017554Y008887D01*
X017594Y008904D01*
X017577Y008864D01*
X017577Y008706D01*
X017638Y008560D01*
X017583Y008692D02*
X017006Y008692D01*
X017188Y009009D02*
X016615Y009009D01*
X016623Y008851D02*
X017577Y008851D01*
X017857Y009168D02*
X017859Y009168D01*
X017873Y009326D02*
X018077Y009326D01*
X018091Y009168D02*
X018093Y009168D01*
X018127Y009485D02*
X017823Y009485D01*
X017650Y009643D02*
X018300Y009643D01*
X018307Y009755D02*
X018373Y009733D01*
X018441Y009723D01*
X018475Y009723D01*
X018509Y009723D01*
X018577Y009733D01*
X018643Y009755D01*
X018704Y009786D01*
X018760Y009827D01*
X018809Y009875D01*
X018849Y009931D01*
X018860Y009951D01*
X018871Y009924D01*
X018989Y009806D01*
X019142Y009743D01*
X019308Y009743D01*
X019461Y009806D01*
X019579Y009924D01*
X019642Y010077D01*
X019642Y010243D01*
X019579Y010397D01*
X019461Y010514D01*
X019308Y010578D01*
X019142Y010578D01*
X018989Y010514D01*
X018871Y010397D01*
X018860Y010369D01*
X018849Y010389D01*
X018809Y010445D01*
X018760Y010494D01*
X018704Y010534D01*
X018643Y010566D01*
X018577Y010587D01*
X018509Y010598D01*
X018475Y010598D01*
X018441Y010598D01*
X018373Y010587D01*
X018307Y010566D01*
X018246Y010534D01*
X018190Y010494D01*
X018141Y010445D01*
X018101Y010389D01*
X018070Y010328D01*
X018048Y010263D01*
X018038Y010195D01*
X018038Y010160D01*
X018038Y010126D01*
X018048Y010058D01*
X018070Y009992D01*
X018101Y009931D01*
X018141Y009875D01*
X018190Y009827D01*
X018246Y009786D01*
X018307Y009755D01*
X018224Y009802D02*
X017700Y009802D01*
X017711Y009806D02*
X017829Y009924D01*
X017892Y010077D01*
X017892Y010243D01*
X017829Y010397D01*
X017711Y010514D01*
X017558Y010578D01*
X017392Y010578D01*
X017239Y010514D01*
X017121Y010397D01*
X017058Y010243D01*
X017058Y010077D01*
X017121Y009924D01*
X017239Y009806D01*
X017392Y009743D01*
X017558Y009743D01*
X017711Y009806D01*
X017844Y009960D02*
X018086Y009960D01*
X018039Y010119D02*
X017892Y010119D01*
X018038Y010160D02*
X018475Y010160D01*
X018475Y009723D01*
X018475Y010160D01*
X018475Y010160D01*
X018475Y010160D01*
X018038Y010160D01*
X018053Y010277D02*
X017878Y010277D01*
X017790Y010436D02*
X018134Y010436D01*
X018419Y010594D02*
X012476Y010594D01*
X012454Y010647D02*
X012517Y010493D01*
X012517Y010327D01*
X012454Y010174D01*
X012336Y010056D01*
X012183Y009993D01*
X012017Y009993D01*
X011864Y010056D01*
X011746Y010174D01*
X011683Y010327D01*
X011683Y010493D01*
X011746Y010647D01*
X011864Y010764D01*
X012017Y010828D01*
X012183Y010828D01*
X012336Y010764D01*
X012454Y010647D01*
X012348Y010753D02*
X020422Y010753D01*
X020418Y010594D02*
X018531Y010594D01*
X018475Y010594D02*
X018475Y010594D01*
X018475Y010598D02*
X018475Y010160D01*
X018475Y010598D01*
X018475Y010436D02*
X018475Y010436D01*
X018475Y010277D02*
X018475Y010277D01*
X018475Y010160D02*
X018475Y010160D01*
X018475Y010119D02*
X018475Y010119D01*
X018475Y009960D02*
X018475Y009960D01*
X018475Y009802D02*
X018475Y009802D01*
X018650Y009643D02*
X020600Y009643D01*
X020600Y009485D02*
X018823Y009485D01*
X018873Y009326D02*
X020600Y009326D01*
X020600Y009168D02*
X018857Y009168D01*
X018762Y009009D02*
X020525Y009009D01*
X020313Y008851D02*
X018373Y008851D01*
X018367Y008692D02*
X020233Y008692D01*
X020211Y008534D02*
X018286Y008534D01*
X018726Y009802D02*
X019000Y009802D01*
X019450Y009802D02*
X020600Y009802D01*
X020600Y009960D02*
X019594Y009960D01*
X019642Y010119D02*
X020600Y010119D01*
X020600Y010277D02*
X019628Y010277D01*
X019540Y010436D02*
X020473Y010436D01*
X020492Y010911D02*
X001100Y010911D01*
X001100Y010753D02*
X009852Y010753D01*
X009864Y010764D02*
X009746Y010647D01*
X009683Y010493D01*
X009683Y010327D01*
X009746Y010174D01*
X009864Y010056D01*
X010017Y009993D01*
X010183Y009993D01*
X010336Y010056D01*
X010454Y010174D01*
X010517Y010327D01*
X010517Y010493D01*
X010454Y010647D01*
X010336Y010764D01*
X010183Y010828D01*
X010017Y010828D01*
X009864Y010764D01*
X009724Y010594D02*
X001100Y010594D01*
X001100Y010436D02*
X001976Y010436D01*
X002017Y010453D02*
X001864Y010389D01*
X001746Y010272D01*
X001683Y010118D01*
X001683Y009952D01*
X001746Y009799D01*
X001864Y009681D01*
X002017Y009618D01*
X002183Y009618D01*
X002336Y009681D01*
X002454Y009799D01*
X002517Y009952D01*
X002517Y010118D01*
X002454Y010272D01*
X002336Y010389D01*
X002183Y010453D01*
X002017Y010453D01*
X002224Y010436D02*
X003285Y010436D01*
X003246Y010397D02*
X003183Y010243D01*
X003183Y010077D01*
X003246Y009924D01*
X003364Y009806D01*
X003517Y009743D01*
X003683Y009743D01*
X003836Y009806D01*
X003954Y009924D01*
X004017Y010077D01*
X004017Y010243D01*
X003954Y010397D01*
X003836Y010514D01*
X003683Y010578D01*
X003517Y010578D01*
X003364Y010514D01*
X003246Y010397D01*
X003197Y010277D02*
X002448Y010277D01*
X002517Y010119D02*
X003183Y010119D01*
X003231Y009960D02*
X002517Y009960D01*
X002455Y009802D02*
X003375Y009802D01*
X003825Y009802D02*
X005375Y009802D01*
X005364Y009806D02*
X005517Y009743D01*
X005683Y009743D01*
X005836Y009806D01*
X005846Y009816D01*
X005851Y009806D01*
X005891Y009750D01*
X005940Y009702D01*
X005996Y009661D01*
X006057Y009630D01*
X006123Y009608D01*
X006191Y009598D01*
X006225Y009598D01*
X006259Y009598D01*
X006327Y009608D01*
X006393Y009630D01*
X006454Y009661D01*
X006510Y009702D01*
X006559Y009750D01*
X006599Y009806D01*
X006610Y009826D01*
X006621Y009799D01*
X006739Y009681D01*
X006892Y009618D01*
X007058Y009618D01*
X007211Y009681D01*
X007329Y009799D01*
X007392Y009952D01*
X007392Y010118D01*
X007329Y010272D01*
X007211Y010389D01*
X007058Y010453D01*
X006892Y010453D01*
X006739Y010389D01*
X006621Y010272D01*
X006610Y010244D01*
X006599Y010264D01*
X006559Y010320D01*
X006510Y010369D01*
X006454Y010409D01*
X006393Y010441D01*
X006327Y010462D01*
X006259Y010473D01*
X006225Y010473D01*
X006191Y010473D01*
X006123Y010462D01*
X006057Y010441D01*
X005996Y010409D01*
X005960Y010383D01*
X005954Y010397D01*
X005836Y010514D01*
X005683Y010578D01*
X005517Y010578D01*
X005364Y010514D01*
X005246Y010397D01*
X005183Y010243D01*
X005183Y010077D01*
X005246Y009924D01*
X005364Y009806D01*
X005231Y009960D02*
X003969Y009960D01*
X004017Y010119D02*
X005183Y010119D01*
X005197Y010277D02*
X004003Y010277D01*
X003915Y010436D02*
X005285Y010436D01*
X005915Y010436D02*
X006047Y010436D01*
X006225Y010436D02*
X006225Y010436D01*
X006225Y010473D02*
X006225Y010035D01*
X006225Y009598D01*
X006225Y010035D01*
X006225Y010035D01*
X006225Y010473D01*
X006403Y010436D02*
X006851Y010436D01*
X007099Y010436D02*
X009683Y010436D01*
X009703Y010277D02*
X008796Y010277D01*
X008812Y010261D02*
X008700Y010372D01*
X008554Y010433D01*
X008396Y010433D01*
X008250Y010372D01*
X008138Y010261D01*
X008077Y010114D01*
X008077Y009956D01*
X008094Y009917D01*
X008054Y009933D01*
X007896Y009933D01*
X007750Y009872D01*
X007638Y009761D01*
X007577Y009614D01*
X007577Y009456D01*
X007638Y009310D01*
X007750Y009198D01*
X007896Y009137D01*
X008054Y009137D01*
X008200Y009198D01*
X008312Y009310D01*
X008373Y009456D01*
X008373Y009614D01*
X008356Y009654D01*
X008396Y009637D01*
X008554Y009637D01*
X008594Y009654D01*
X008577Y009614D01*
X008577Y009456D01*
X008638Y009310D01*
X008750Y009198D01*
X008896Y009137D01*
X009054Y009137D01*
X009200Y009198D01*
X009312Y009310D01*
X009373Y009456D01*
X009373Y009614D01*
X009312Y009761D01*
X009200Y009872D01*
X009054Y009933D01*
X008896Y009933D01*
X008856Y009917D01*
X008873Y009956D01*
X008873Y010114D01*
X008812Y010261D01*
X008871Y010119D02*
X009801Y010119D01*
X009271Y009802D02*
X016375Y009802D01*
X016364Y009806D02*
X016517Y009743D01*
X016683Y009743D01*
X016836Y009806D01*
X016954Y009924D01*
X017017Y010077D01*
X017017Y010243D01*
X016954Y010397D01*
X016836Y010514D01*
X016683Y010578D01*
X016517Y010578D01*
X016364Y010514D01*
X016246Y010397D01*
X016183Y010243D01*
X016183Y010077D01*
X016246Y009924D01*
X016364Y009806D01*
X016231Y009960D02*
X008873Y009960D01*
X008589Y009643D02*
X008568Y009643D01*
X008577Y009485D02*
X008373Y009485D01*
X008361Y009643D02*
X008382Y009643D01*
X008319Y009326D02*
X008631Y009326D01*
X008823Y009168D02*
X008127Y009168D01*
X007823Y009168D02*
X005216Y009168D01*
X005179Y009183D02*
X005021Y009183D01*
X004981Y009167D01*
X004998Y009206D01*
X004998Y009364D01*
X004937Y009511D01*
X004825Y009622D01*
X004679Y009683D01*
X004521Y009683D01*
X004375Y009622D01*
X004263Y009511D01*
X004202Y009364D01*
X004202Y009206D01*
X004219Y009167D01*
X004179Y009183D01*
X004021Y009183D01*
X003875Y009122D01*
X003763Y009011D01*
X003702Y008864D01*
X003702Y008706D01*
X003763Y008560D01*
X003875Y008448D01*
X004021Y008387D01*
X004179Y008387D01*
X004325Y008448D01*
X004437Y008560D01*
X004498Y008706D01*
X004498Y008864D01*
X004481Y008904D01*
X004521Y008887D01*
X004679Y008887D01*
X004719Y008904D01*
X004702Y008864D01*
X004702Y008706D01*
X004763Y008560D01*
X004875Y008448D01*
X005021Y008387D01*
X005179Y008387D01*
X005325Y008448D01*
X005437Y008560D01*
X005498Y008706D01*
X005498Y008864D01*
X005437Y009011D01*
X005325Y009122D01*
X005179Y009183D01*
X004984Y009168D02*
X004982Y009168D01*
X004998Y009326D02*
X007631Y009326D01*
X007577Y009485D02*
X004948Y009485D01*
X004775Y009643D02*
X006031Y009643D01*
X006225Y009643D02*
X006225Y009643D01*
X006225Y009802D02*
X006225Y009802D01*
X006225Y009960D02*
X006225Y009960D01*
X006225Y010035D02*
X006225Y010035D01*
X006225Y010119D02*
X006225Y010119D01*
X006225Y010277D02*
X006225Y010277D01*
X006590Y010277D02*
X006627Y010277D01*
X006620Y009802D02*
X006596Y009802D01*
X006419Y009643D02*
X006830Y009643D01*
X007120Y009643D02*
X007589Y009643D01*
X007679Y009802D02*
X007330Y009802D01*
X007392Y009960D02*
X008077Y009960D01*
X008079Y010119D02*
X007392Y010119D01*
X007323Y010277D02*
X008154Y010277D01*
X008191Y011598D02*
X008225Y011598D01*
X008259Y011598D01*
X008327Y011608D01*
X008393Y011630D01*
X008454Y011661D01*
X008510Y011702D01*
X008559Y011750D01*
X008599Y011806D01*
X008630Y011867D01*
X008652Y011933D01*
X008662Y012001D01*
X008662Y012035D01*
X008225Y012035D01*
X008225Y011598D01*
X008225Y012035D01*
X008225Y012035D01*
X008225Y012035D01*
X007788Y012035D01*
X007788Y012001D01*
X007798Y011933D01*
X007820Y011867D01*
X007851Y011806D01*
X007891Y011750D01*
X007940Y011702D01*
X007996Y011661D01*
X008057Y011630D01*
X008123Y011608D01*
X008191Y011598D01*
X008225Y011704D02*
X008225Y011704D01*
X008225Y011862D02*
X008225Y011862D01*
X008225Y012021D02*
X008225Y012021D01*
X008225Y012035D02*
X008225Y012035D01*
X008662Y012035D01*
X008662Y012070D01*
X008652Y012138D01*
X008630Y012203D01*
X008599Y012264D01*
X008559Y012320D01*
X008510Y012369D01*
X008454Y012409D01*
X008393Y012441D01*
X008377Y012446D01*
X008385Y012452D01*
X008434Y012500D01*
X008474Y012556D01*
X008505Y012617D01*
X008527Y012683D01*
X008537Y012751D01*
X008537Y012785D01*
X008100Y012785D01*
X008100Y012785D01*
X007663Y012785D01*
X007663Y012751D01*
X007673Y012683D01*
X007695Y012617D01*
X007726Y012556D01*
X007766Y012500D01*
X007815Y012452D01*
X007871Y012411D01*
X007932Y012380D01*
X007948Y012375D01*
X007940Y012369D01*
X007891Y012320D01*
X007851Y012264D01*
X007820Y012203D01*
X007798Y012138D01*
X007788Y012070D01*
X007788Y012035D01*
X008225Y012035D01*
X008512Y011704D02*
X009683Y011704D01*
X009683Y011702D02*
X009746Y011549D01*
X009864Y011431D01*
X010017Y011368D01*
X010183Y011368D01*
X010336Y011431D01*
X010454Y011549D01*
X010517Y011702D01*
X010517Y011868D01*
X010454Y012022D01*
X010336Y012139D01*
X010183Y012203D01*
X010017Y012203D01*
X009864Y012139D01*
X009746Y012022D01*
X009683Y011868D01*
X009683Y011702D01*
X009683Y011862D02*
X008628Y011862D01*
X008662Y012021D02*
X009746Y012021D01*
X009960Y012179D02*
X008638Y012179D01*
X008541Y012338D02*
X016199Y012338D01*
X016195Y012328D02*
X016173Y012263D01*
X016163Y012195D01*
X016163Y012160D01*
X016163Y012126D01*
X016173Y012058D01*
X016195Y011992D01*
X016226Y011931D01*
X016266Y011875D01*
X016315Y011827D01*
X016371Y011786D01*
X016432Y011755D01*
X016498Y011733D01*
X016566Y011723D01*
X016600Y011723D01*
X016634Y011723D01*
X016702Y011733D01*
X016768Y011755D01*
X016829Y011786D01*
X016885Y011827D01*
X016934Y011875D01*
X016974Y011931D01*
X017005Y011992D01*
X017027Y012058D01*
X017037Y012126D01*
X017037Y012160D01*
X016600Y012160D01*
X016600Y011723D01*
X016600Y012160D01*
X016600Y012160D01*
X016163Y012160D01*
X016600Y012160D01*
X016600Y012160D01*
X016600Y012160D01*
X017037Y012160D01*
X017037Y012195D01*
X017027Y012263D01*
X017005Y012328D01*
X016974Y012389D01*
X016934Y012445D01*
X016885Y012494D01*
X016829Y012534D01*
X016768Y012566D01*
X016702Y012587D01*
X016634Y012598D01*
X016600Y012598D01*
X016566Y012598D01*
X016498Y012587D01*
X016432Y012566D01*
X016371Y012534D01*
X016315Y012494D01*
X016266Y012445D01*
X016226Y012389D01*
X016195Y012328D01*
X016163Y012179D02*
X012240Y012179D01*
X012183Y012203D02*
X012017Y012203D01*
X011864Y012139D01*
X011746Y012022D01*
X011683Y011868D01*
X011683Y011702D01*
X011746Y011549D01*
X011864Y011431D01*
X012017Y011368D01*
X012183Y011368D01*
X012336Y011431D01*
X012454Y011549D01*
X012517Y011702D01*
X012517Y011868D01*
X012454Y012022D01*
X012336Y012139D01*
X012183Y012203D01*
X011960Y012179D02*
X010240Y012179D01*
X010454Y012021D02*
X011746Y012021D01*
X011683Y011862D02*
X010517Y011862D01*
X010517Y011704D02*
X011683Y011704D01*
X011750Y011545D02*
X010450Y011545D01*
X010229Y011387D02*
X011971Y011387D01*
X012229Y011387D02*
X020533Y011387D01*
X020600Y011228D02*
X001100Y011228D01*
X001100Y011070D02*
X020600Y011070D01*
X020446Y011545D02*
X012450Y011545D01*
X012517Y011704D02*
X020433Y011704D01*
X020482Y011862D02*
X019517Y011862D01*
X019461Y011806D02*
X019579Y011924D01*
X019642Y012077D01*
X019642Y012243D01*
X019579Y012397D01*
X019461Y012514D01*
X019308Y012578D01*
X019142Y012578D01*
X018989Y012514D01*
X018871Y012397D01*
X018850Y012346D01*
X018829Y012397D01*
X018711Y012514D01*
X018558Y012578D01*
X018392Y012578D01*
X018239Y012514D01*
X018121Y012397D01*
X018058Y012243D01*
X018058Y012077D01*
X018121Y011924D01*
X018239Y011806D01*
X018392Y011743D01*
X018558Y011743D01*
X018711Y011806D01*
X018829Y011924D01*
X018850Y011975D01*
X018871Y011924D01*
X018989Y011806D01*
X019142Y011743D01*
X019308Y011743D01*
X019461Y011806D01*
X019619Y012021D02*
X020600Y012021D01*
X020600Y012179D02*
X019642Y012179D01*
X019603Y012338D02*
X020600Y012338D01*
X020600Y012496D02*
X019479Y012496D01*
X018971Y012496D02*
X018729Y012496D01*
X018700Y012698D02*
X018554Y012637D01*
X018396Y012637D01*
X018250Y012698D01*
X018138Y012810D01*
X018077Y012956D01*
X018077Y013114D01*
X018094Y013154D01*
X018054Y013137D01*
X017896Y013137D01*
X017856Y013154D01*
X017873Y013114D01*
X017873Y012956D01*
X017812Y012810D01*
X017700Y012698D01*
X017554Y012637D01*
X017396Y012637D01*
X017250Y012698D01*
X017138Y012810D01*
X017077Y012956D01*
X017077Y013114D01*
X017138Y013261D01*
X017250Y013372D01*
X017396Y013433D01*
X017554Y013433D01*
X017594Y013417D01*
X017577Y013456D01*
X017577Y013614D01*
X017638Y013761D01*
X017750Y013872D01*
X017896Y013933D01*
X018054Y013933D01*
X018200Y013872D01*
X018312Y013761D01*
X018373Y013614D01*
X018373Y013456D01*
X018356Y013417D01*
X018396Y013433D01*
X018554Y013433D01*
X018700Y013372D01*
X018812Y013261D01*
X018873Y013114D01*
X018873Y012956D01*
X018812Y012810D01*
X018700Y012698D01*
X018596Y012655D02*
X020600Y012655D01*
X020600Y012813D02*
X018814Y012813D01*
X018873Y012972D02*
X020600Y012972D01*
X020600Y013130D02*
X018866Y013130D01*
X018784Y013289D02*
X020369Y013289D01*
X020257Y013447D02*
X018369Y013447D01*
X018373Y013606D02*
X020211Y013606D01*
X020211Y013764D02*
X018309Y013764D01*
X018079Y013923D02*
X020277Y013923D01*
X020419Y014081D02*
X017085Y014081D01*
X017062Y014136D02*
X016950Y014247D01*
X016804Y014308D01*
X016646Y014308D01*
X016500Y014247D01*
X016388Y014136D01*
X016327Y013989D01*
X016327Y013831D01*
X016344Y013792D01*
X016304Y013808D01*
X016146Y013808D01*
X016106Y013792D01*
X016123Y013831D01*
X016123Y013989D01*
X016062Y014136D01*
X015950Y014247D01*
X015804Y014308D01*
X015646Y014308D01*
X015500Y014247D01*
X015388Y014136D01*
X015327Y013989D01*
X015327Y013831D01*
X015388Y013685D01*
X015500Y013573D01*
X015646Y013512D01*
X015804Y013512D01*
X015844Y013529D01*
X015827Y013489D01*
X015827Y013331D01*
X015888Y013185D01*
X016000Y013073D01*
X016146Y013012D01*
X016304Y013012D01*
X016450Y013073D01*
X016562Y013185D01*
X016623Y013331D01*
X016623Y013489D01*
X016606Y013529D01*
X016646Y013512D01*
X016804Y013512D01*
X016950Y013573D01*
X017062Y013685D01*
X017123Y013831D01*
X017123Y013989D01*
X017062Y014136D01*
X016958Y014240D02*
X020600Y014240D01*
X020600Y014398D02*
X011890Y014398D01*
X011880Y014367D02*
X011902Y014433D01*
X011912Y014501D01*
X011912Y014535D01*
X011475Y014535D01*
X011475Y014098D01*
X011509Y014098D01*
X011577Y014108D01*
X011643Y014130D01*
X011704Y014161D01*
X011760Y014202D01*
X011809Y014250D01*
X011849Y014306D01*
X011880Y014367D01*
X011798Y014240D02*
X015492Y014240D01*
X015365Y014081D02*
X010085Y014081D01*
X010062Y014136D02*
X009950Y014247D01*
X009804Y014308D01*
X009646Y014308D01*
X009606Y014292D01*
X009623Y014331D01*
X009623Y014489D01*
X009562Y014636D01*
X009450Y014747D01*
X009304Y014808D01*
X009146Y014808D01*
X009000Y014747D01*
X008888Y014636D01*
X008827Y014489D01*
X008827Y014331D01*
X008888Y014185D01*
X009000Y014073D01*
X009146Y014012D01*
X009304Y014012D01*
X009344Y014029D01*
X009327Y013989D01*
X009327Y013831D01*
X009344Y013792D01*
X009304Y013808D01*
X009146Y013808D01*
X009000Y013747D01*
X008888Y013636D01*
X008827Y013489D01*
X008827Y013331D01*
X008888Y013185D01*
X009000Y013073D01*
X009146Y013012D01*
X009304Y013012D01*
X009450Y013073D01*
X009562Y013185D01*
X009623Y013331D01*
X009623Y013489D01*
X009606Y013529D01*
X009646Y013512D01*
X009804Y013512D01*
X009950Y013573D01*
X010062Y013685D01*
X010123Y013831D01*
X010123Y013989D01*
X010062Y014136D01*
X009958Y014240D02*
X011152Y014240D01*
X011141Y014250D02*
X011190Y014202D01*
X011246Y014161D01*
X011307Y014130D01*
X011373Y014108D01*
X011441Y014098D01*
X011475Y014098D01*
X011475Y014535D01*
X011475Y014535D01*
X011038Y014535D01*
X011038Y014501D01*
X011048Y014433D01*
X011070Y014367D01*
X011101Y014306D01*
X011141Y014250D01*
X011060Y014398D02*
X009623Y014398D01*
X009595Y014557D02*
X011038Y014557D01*
X011038Y014570D02*
X011038Y014535D01*
X011475Y014535D01*
X011475Y014535D01*
X011475Y014535D01*
X011912Y014535D01*
X011912Y014570D01*
X011902Y014638D01*
X011880Y014703D01*
X011849Y014764D01*
X011809Y014820D01*
X011760Y014869D01*
X011704Y014909D01*
X011643Y014941D01*
X011577Y014962D01*
X011509Y014973D01*
X011475Y014973D01*
X011441Y014973D01*
X011373Y014962D01*
X011307Y014941D01*
X011246Y014909D01*
X011190Y014869D01*
X011141Y014820D01*
X011101Y014764D01*
X011070Y014703D01*
X011048Y014638D01*
X011038Y014570D01*
X011076Y014715D02*
X009483Y014715D01*
X009864Y015181D02*
X010017Y015118D01*
X010183Y015118D01*
X010336Y015181D01*
X010454Y015299D01*
X010517Y015452D01*
X010517Y015618D01*
X010454Y015772D01*
X010336Y015889D01*
X010183Y015953D01*
X010136Y015953D01*
X010184Y016000D01*
X010224Y016056D01*
X010255Y016117D01*
X010277Y016183D01*
X010287Y016251D01*
X010287Y016285D01*
X009850Y016285D01*
X009850Y016285D01*
X009413Y016285D01*
X009413Y016251D01*
X009423Y016183D01*
X009445Y016117D01*
X009476Y016056D01*
X009516Y016000D01*
X009565Y015952D01*
X009621Y015911D01*
X009682Y015880D01*
X009748Y015858D01*
X009816Y015848D01*
X009822Y015848D01*
X009746Y015772D01*
X009683Y015618D01*
X009683Y015452D01*
X009746Y015299D01*
X009864Y015181D01*
X009854Y015191D02*
X008346Y015191D01*
X008336Y015181D02*
X008454Y015299D01*
X008517Y015452D01*
X008517Y015618D01*
X008454Y015772D01*
X008336Y015889D01*
X008183Y015953D01*
X008108Y015953D01*
X008204Y016049D01*
X008267Y016202D01*
X008267Y016368D01*
X008204Y016522D01*
X008086Y016639D01*
X007933Y016703D01*
X007767Y016703D01*
X007614Y016639D01*
X007496Y016522D01*
X007433Y016368D01*
X007433Y016202D01*
X007496Y016049D01*
X007614Y015931D01*
X007767Y015868D01*
X007842Y015868D01*
X007746Y015772D01*
X007683Y015618D01*
X007683Y015452D01*
X007746Y015299D01*
X007864Y015181D01*
X007914Y015160D01*
X007864Y015139D01*
X007746Y015022D01*
X007683Y014868D01*
X007683Y014702D01*
X007746Y014549D01*
X007864Y014431D01*
X008017Y014368D01*
X008183Y014368D01*
X008336Y014431D01*
X008454Y014549D01*
X008517Y014702D01*
X008517Y014868D01*
X008454Y015022D01*
X008336Y015139D01*
X008286Y015160D01*
X008336Y015181D01*
X008443Y015032D02*
X020600Y015032D01*
X020600Y014874D02*
X011753Y014874D01*
X011874Y014715D02*
X020600Y014715D01*
X020600Y014557D02*
X011912Y014557D01*
X011475Y014557D02*
X011475Y014557D01*
X011475Y014535D02*
X011475Y014973D01*
X011475Y014535D01*
X011475Y014535D01*
X011475Y014398D02*
X011475Y014398D01*
X011475Y014240D02*
X011475Y014240D01*
X011475Y014715D02*
X011475Y014715D01*
X011475Y014874D02*
X011475Y014874D01*
X011558Y015118D02*
X011711Y015181D01*
X011829Y015299D01*
X011892Y015452D01*
X011892Y015618D01*
X011829Y015772D01*
X011711Y015889D01*
X011558Y015953D01*
X011392Y015953D01*
X011239Y015889D01*
X011121Y015772D01*
X011058Y015618D01*
X011058Y015452D01*
X011121Y015299D01*
X011239Y015181D01*
X011392Y015118D01*
X011558Y015118D01*
X011721Y015191D02*
X020600Y015191D01*
X020600Y015349D02*
X011850Y015349D01*
X011892Y015508D02*
X020600Y015508D01*
X020600Y015666D02*
X011873Y015666D01*
X011776Y015825D02*
X020600Y015825D01*
X020600Y015983D02*
X010167Y015983D01*
X010263Y016142D02*
X020600Y016142D01*
X020600Y016300D02*
X010287Y016300D01*
X010287Y016285D02*
X010287Y016320D01*
X010277Y016388D01*
X010255Y016453D01*
X010224Y016514D01*
X010184Y016570D01*
X010135Y016619D01*
X010079Y016659D01*
X010018Y016691D01*
X009952Y016712D01*
X009884Y016723D01*
X009850Y016723D01*
X009816Y016723D01*
X009748Y016712D01*
X009682Y016691D01*
X009621Y016659D01*
X009565Y016619D01*
X009516Y016570D01*
X009476Y016514D01*
X009445Y016453D01*
X009423Y016388D01*
X009413Y016320D01*
X009413Y016285D01*
X009850Y016285D01*
X009850Y016285D01*
X010287Y016285D01*
X010253Y016459D02*
X020600Y016459D01*
X020600Y016617D02*
X010137Y016617D01*
X009850Y016617D02*
X009850Y016617D01*
X009850Y016723D02*
X009850Y016285D01*
X009850Y016285D01*
X009850Y016723D01*
X009850Y016459D02*
X009850Y016459D01*
X009850Y016300D02*
X009850Y016300D01*
X009563Y016617D02*
X008108Y016617D01*
X008230Y016459D02*
X009447Y016459D01*
X009413Y016300D02*
X008267Y016300D01*
X008242Y016142D02*
X009437Y016142D01*
X009533Y015983D02*
X008138Y015983D01*
X008401Y015825D02*
X009799Y015825D01*
X009702Y015666D02*
X008498Y015666D01*
X008517Y015508D02*
X009683Y015508D01*
X009725Y015349D02*
X008475Y015349D01*
X008515Y014874D02*
X011197Y014874D01*
X011229Y015191D02*
X010346Y015191D01*
X010475Y015349D02*
X011100Y015349D01*
X011058Y015508D02*
X010517Y015508D01*
X010498Y015666D02*
X011077Y015666D01*
X011174Y015825D02*
X010401Y015825D01*
X009200Y016948D02*
X009312Y017060D01*
X009373Y017206D01*
X009373Y017364D01*
X009312Y017511D01*
X009200Y017622D01*
X009054Y017683D01*
X008896Y017683D01*
X008856Y017667D01*
X008873Y017706D01*
X008873Y017864D01*
X008812Y018011D01*
X008700Y018122D01*
X008554Y018183D01*
X008396Y018183D01*
X008250Y018122D01*
X008138Y018011D01*
X008077Y017864D01*
X008077Y017706D01*
X008094Y017667D01*
X008054Y017683D01*
X007896Y017683D01*
X007750Y017622D01*
X007638Y017511D01*
X007577Y017364D01*
X007577Y017206D01*
X007638Y017060D01*
X007750Y016948D01*
X007896Y016887D01*
X008054Y016887D01*
X008200Y016948D01*
X008312Y017060D01*
X008373Y017206D01*
X008373Y017364D01*
X008356Y017404D01*
X008396Y017387D01*
X008554Y017387D01*
X008594Y017404D01*
X008577Y017364D01*
X008577Y017206D01*
X008638Y017060D01*
X008750Y016948D01*
X008896Y016887D01*
X009054Y016887D01*
X009200Y016948D01*
X009167Y016934D02*
X020600Y016934D01*
X020600Y016776D02*
X005297Y016776D01*
X005312Y016761D02*
X005200Y016872D01*
X005054Y016933D01*
X004896Y016933D01*
X004856Y016917D01*
X004873Y016956D01*
X004873Y017114D01*
X004812Y017261D01*
X004700Y017372D01*
X004554Y017433D01*
X004396Y017433D01*
X004250Y017372D01*
X004138Y017261D01*
X004077Y017114D01*
X004077Y016956D01*
X004094Y016917D01*
X004054Y016933D01*
X003896Y016933D01*
X003750Y016872D01*
X003638Y016761D01*
X003577Y016614D01*
X003577Y016456D01*
X003638Y016310D01*
X003750Y016198D01*
X003896Y016137D01*
X004054Y016137D01*
X004200Y016198D01*
X004312Y016310D01*
X004373Y016456D01*
X004373Y016614D01*
X004356Y016654D01*
X004396Y016637D01*
X004554Y016637D01*
X004594Y016654D01*
X004577Y016614D01*
X004577Y016456D01*
X004638Y016310D01*
X004750Y016198D01*
X004896Y016137D01*
X005054Y016137D01*
X005200Y016198D01*
X005312Y016310D01*
X005373Y016456D01*
X005373Y016614D01*
X005312Y016761D01*
X005372Y016617D02*
X007592Y016617D01*
X007470Y016459D02*
X005373Y016459D01*
X005303Y016300D02*
X007433Y016300D01*
X007458Y016142D02*
X007229Y016142D01*
X007204Y016159D02*
X007260Y016119D01*
X007309Y016070D01*
X007349Y016014D01*
X007380Y015953D01*
X007402Y015888D01*
X007412Y015820D01*
X007412Y015785D01*
X006975Y015785D01*
X006975Y015348D01*
X007009Y015348D01*
X007077Y015358D01*
X007143Y015380D01*
X007204Y015411D01*
X007260Y015452D01*
X007309Y015500D01*
X007349Y015556D01*
X007380Y015617D01*
X007402Y015683D01*
X007412Y015751D01*
X007412Y015785D01*
X006975Y015785D01*
X006975Y015785D01*
X006975Y015348D01*
X006941Y015348D01*
X006873Y015358D01*
X006807Y015380D01*
X006746Y015411D01*
X006690Y015452D01*
X006641Y015500D01*
X006601Y015556D01*
X006590Y015576D01*
X006579Y015549D01*
X006461Y015431D01*
X006308Y015368D01*
X006142Y015368D01*
X005989Y015431D01*
X005966Y015454D01*
X005954Y015424D01*
X005836Y015306D01*
X005683Y015243D01*
X005517Y015243D01*
X005364Y015306D01*
X005246Y015424D01*
X005183Y015577D01*
X005183Y015743D01*
X005246Y015897D01*
X005364Y016014D01*
X005517Y016078D01*
X005683Y016078D01*
X005836Y016014D01*
X005859Y015992D01*
X005871Y016022D01*
X005989Y016139D01*
X006142Y016203D01*
X006308Y016203D01*
X006461Y016139D01*
X006579Y016022D01*
X006590Y015994D01*
X006601Y016014D01*
X006641Y016070D01*
X006690Y016119D01*
X006746Y016159D01*
X006807Y016191D01*
X006873Y016212D01*
X006941Y016223D01*
X006975Y016223D01*
X006975Y015785D01*
X006975Y015785D01*
X006975Y015785D01*
X006975Y016223D01*
X007009Y016223D01*
X007077Y016212D01*
X007143Y016191D01*
X007204Y016159D01*
X006975Y016142D02*
X006975Y016142D01*
X006975Y015983D02*
X006975Y015983D01*
X006975Y015825D02*
X006975Y015825D01*
X006975Y015666D02*
X006975Y015666D01*
X006975Y015508D02*
X006975Y015508D01*
X006975Y015349D02*
X006975Y015349D01*
X007019Y015349D02*
X007725Y015349D01*
X007683Y015508D02*
X007314Y015508D01*
X007396Y015666D02*
X007702Y015666D01*
X007799Y015825D02*
X007412Y015825D01*
X007365Y015983D02*
X007562Y015983D01*
X007854Y015191D02*
X004757Y015191D01*
X004812Y015136D02*
X004700Y015247D01*
X004554Y015308D01*
X004396Y015308D01*
X004250Y015247D01*
X004138Y015136D01*
X004077Y014989D01*
X004077Y014831D01*
X004094Y014792D01*
X004054Y014808D01*
X003896Y014808D01*
X003750Y014747D01*
X003638Y014636D01*
X003577Y014489D01*
X003577Y014331D01*
X003638Y014185D01*
X003750Y014073D01*
X003896Y014012D01*
X004054Y014012D01*
X004200Y014073D01*
X004312Y014185D01*
X004373Y014331D01*
X004373Y014489D01*
X004356Y014529D01*
X004396Y014512D01*
X004554Y014512D01*
X004594Y014529D01*
X004577Y014489D01*
X004577Y014331D01*
X004638Y014185D01*
X004750Y014073D01*
X004896Y014012D01*
X005054Y014012D01*
X005200Y014073D01*
X005312Y014185D01*
X005373Y014331D01*
X005373Y014489D01*
X005312Y014636D01*
X005200Y014747D01*
X005054Y014808D01*
X004896Y014808D01*
X004856Y014792D01*
X004873Y014831D01*
X004873Y014989D01*
X004812Y015136D01*
X004855Y015032D02*
X005959Y015032D01*
X006021Y015058D02*
X005875Y014997D01*
X005763Y014886D01*
X005702Y014739D01*
X005702Y014581D01*
X005763Y014435D01*
X005875Y014323D01*
X006021Y014262D01*
X006179Y014262D01*
X006219Y014279D01*
X006202Y014239D01*
X006202Y014081D01*
X006263Y013935D01*
X006375Y013823D01*
X006521Y013762D01*
X006679Y013762D01*
X006825Y013823D01*
X006937Y013935D01*
X006998Y014081D01*
X006998Y014239D01*
X006981Y014279D01*
X007021Y014262D01*
X007179Y014262D01*
X007325Y014323D01*
X007437Y014435D01*
X007498Y014581D01*
X007498Y014739D01*
X007437Y014886D01*
X007325Y014997D01*
X007179Y015058D01*
X007021Y015058D01*
X006875Y014997D01*
X006763Y014886D01*
X006702Y014739D01*
X006702Y014581D01*
X006719Y014542D01*
X006679Y014558D01*
X006521Y014558D01*
X006481Y014542D01*
X006498Y014581D01*
X006498Y014739D01*
X006437Y014886D01*
X006325Y014997D01*
X006179Y015058D01*
X006021Y015058D01*
X006241Y015032D02*
X006959Y015032D01*
X006758Y014874D02*
X006442Y014874D01*
X006498Y014715D02*
X006702Y014715D01*
X006712Y014557D02*
X006682Y014557D01*
X006518Y014557D02*
X006488Y014557D01*
X006202Y014240D02*
X005335Y014240D01*
X005373Y014398D02*
X005799Y014398D01*
X005712Y014557D02*
X005345Y014557D01*
X005233Y014715D02*
X005702Y014715D01*
X005758Y014874D02*
X004873Y014874D01*
X004577Y014398D02*
X004373Y014398D01*
X004335Y014240D02*
X004615Y014240D01*
X004741Y014081D02*
X004209Y014081D01*
X004290Y013764D02*
X001100Y013764D01*
X001100Y013606D02*
X001802Y013606D01*
X001815Y013619D02*
X001766Y013570D01*
X001726Y013514D01*
X001695Y013453D01*
X001673Y013388D01*
X001663Y013320D01*
X001663Y013285D01*
X001663Y013251D01*
X001673Y013183D01*
X001695Y013117D01*
X001726Y013056D01*
X001766Y013000D01*
X001815Y012952D01*
X001871Y012911D01*
X001932Y012880D01*
X001998Y012858D01*
X002066Y012848D01*
X002100Y012848D01*
X002134Y012848D01*
X002202Y012858D01*
X002268Y012880D01*
X002329Y012911D01*
X002385Y012952D01*
X002434Y013000D01*
X002474Y013056D01*
X002505Y013117D01*
X002527Y013183D01*
X002537Y013251D01*
X002537Y013285D01*
X002100Y013285D01*
X002100Y012848D01*
X002100Y013285D01*
X002100Y013285D01*
X001663Y013285D01*
X002100Y013285D01*
X002100Y013285D01*
X002100Y013285D01*
X002537Y013285D01*
X002537Y013320D01*
X002527Y013388D01*
X002505Y013453D01*
X002474Y013514D01*
X002434Y013570D01*
X002385Y013619D01*
X002329Y013659D01*
X002268Y013691D01*
X002202Y013712D01*
X002134Y013723D01*
X002100Y013723D01*
X002066Y013723D01*
X001998Y013712D01*
X001932Y013691D01*
X001871Y013659D01*
X001815Y013619D01*
X001693Y013447D02*
X001100Y013447D01*
X001103Y013289D02*
X001663Y013289D01*
X001690Y013130D02*
X001357Y013130D01*
X001454Y012972D02*
X001795Y012972D01*
X002100Y012972D02*
X002100Y012972D01*
X002100Y013130D02*
X002100Y013130D01*
X002100Y013285D02*
X002100Y013723D01*
X002100Y013285D01*
X002100Y013285D01*
X002100Y013289D02*
X002100Y013289D01*
X002100Y013447D02*
X002100Y013447D01*
X002100Y013606D02*
X002100Y013606D01*
X002398Y013606D02*
X004125Y013606D01*
X004138Y013636D02*
X004077Y013489D01*
X004077Y013331D01*
X004094Y013292D01*
X004054Y013308D01*
X003896Y013308D01*
X003750Y013247D01*
X003638Y013136D01*
X003577Y012989D01*
X003577Y012831D01*
X003638Y012685D01*
X003750Y012573D01*
X003896Y012512D01*
X004054Y012512D01*
X004200Y012573D01*
X004312Y012685D01*
X004373Y012831D01*
X004373Y012989D01*
X004356Y013029D01*
X004396Y013012D01*
X004554Y013012D01*
X004594Y013029D01*
X004577Y012989D01*
X004577Y012831D01*
X004638Y012685D01*
X004750Y012573D01*
X004896Y012512D01*
X005054Y012512D01*
X005200Y012573D01*
X005312Y012685D01*
X005373Y012831D01*
X005373Y012989D01*
X005312Y013136D01*
X005200Y013247D01*
X005054Y013308D01*
X004896Y013308D01*
X004856Y013292D01*
X004873Y013331D01*
X004873Y013489D01*
X004812Y013636D01*
X004700Y013747D01*
X004554Y013808D01*
X004396Y013808D01*
X004250Y013747D01*
X004138Y013636D01*
X004077Y013447D02*
X002507Y013447D01*
X002537Y013289D02*
X003849Y013289D01*
X003636Y013130D02*
X002510Y013130D01*
X002405Y012972D02*
X003577Y012972D01*
X003585Y012813D02*
X001489Y012813D01*
X001478Y012655D02*
X001901Y012655D01*
X001864Y012639D02*
X001746Y012522D01*
X001683Y012368D01*
X001683Y012202D01*
X001746Y012049D01*
X001864Y011931D01*
X002017Y011868D01*
X002183Y011868D01*
X002336Y011931D01*
X002454Y012049D01*
X002517Y012202D01*
X002517Y012368D01*
X002454Y012522D01*
X002336Y012639D01*
X002183Y012703D01*
X002017Y012703D01*
X001864Y012639D01*
X001736Y012496D02*
X001412Y012496D01*
X001239Y012338D02*
X001683Y012338D01*
X001692Y012179D02*
X001100Y012179D01*
X001100Y012021D02*
X001774Y012021D01*
X002426Y012021D02*
X003183Y012021D01*
X003183Y011952D02*
X003246Y011799D01*
X003364Y011681D01*
X003517Y011618D01*
X003683Y011618D01*
X003836Y011681D01*
X003954Y011799D01*
X004017Y011952D01*
X004017Y012118D01*
X003954Y012272D01*
X003836Y012389D01*
X003683Y012453D01*
X003517Y012453D01*
X003364Y012389D01*
X003246Y012272D01*
X003183Y012118D01*
X003183Y011952D01*
X003220Y011862D02*
X001100Y011862D01*
X001100Y011704D02*
X003341Y011704D01*
X003208Y012179D02*
X002508Y012179D01*
X002517Y012338D02*
X003312Y012338D01*
X003668Y012655D02*
X002299Y012655D01*
X002464Y012496D02*
X006326Y012496D01*
X006308Y012453D02*
X006142Y012453D01*
X005989Y012389D01*
X005913Y012313D01*
X005836Y012389D01*
X005683Y012453D01*
X005517Y012453D01*
X005364Y012389D01*
X005246Y012272D01*
X005183Y012118D01*
X005183Y011952D01*
X005246Y011799D01*
X005364Y011681D01*
X005517Y011618D01*
X005683Y011618D01*
X005836Y011681D01*
X005913Y011757D01*
X005989Y011681D01*
X006142Y011618D01*
X006308Y011618D01*
X006461Y011681D01*
X006579Y011799D01*
X006642Y011952D01*
X006642Y012118D01*
X006579Y012272D01*
X006461Y012389D01*
X006308Y012453D01*
X006375Y012448D02*
X006263Y012560D01*
X006202Y012706D01*
X006202Y012864D01*
X006219Y012904D01*
X006179Y012887D01*
X006021Y012887D01*
X005875Y012948D01*
X005763Y013060D01*
X005702Y013206D01*
X005702Y013364D01*
X005763Y013511D01*
X005875Y013622D01*
X006021Y013683D01*
X006179Y013683D01*
X006325Y013622D01*
X006437Y013511D01*
X006498Y013364D01*
X006498Y013206D01*
X006481Y013167D01*
X006521Y013183D01*
X006679Y013183D01*
X006719Y013167D01*
X006702Y013206D01*
X006702Y013364D01*
X006763Y013511D01*
X006875Y013622D01*
X007021Y013683D01*
X007179Y013683D01*
X007325Y013622D01*
X007437Y013511D01*
X007498Y013364D01*
X007498Y013206D01*
X007437Y013060D01*
X007325Y012948D01*
X007179Y012887D01*
X007021Y012887D01*
X006981Y012904D01*
X006998Y012864D01*
X006998Y012706D01*
X006937Y012560D01*
X006825Y012448D01*
X006679Y012387D01*
X006521Y012387D01*
X006375Y012448D01*
X006513Y012338D02*
X007909Y012338D01*
X007812Y012179D02*
X006617Y012179D01*
X006642Y012021D02*
X007788Y012021D01*
X007822Y011862D02*
X006605Y011862D01*
X006484Y011704D02*
X007938Y011704D01*
X007770Y012496D02*
X006874Y012496D01*
X006977Y012655D02*
X007682Y012655D01*
X007663Y012785D02*
X008100Y012785D01*
X008100Y012785D01*
X008537Y012785D01*
X008537Y012820D01*
X008527Y012888D01*
X008505Y012953D01*
X008474Y013014D01*
X008434Y013070D01*
X008385Y013119D01*
X008329Y013159D01*
X008268Y013191D01*
X008202Y013212D01*
X008134Y013223D01*
X008100Y013223D01*
X008066Y013223D01*
X007998Y013212D01*
X007932Y013191D01*
X007871Y013159D01*
X007815Y013119D01*
X007766Y013070D01*
X007726Y013014D01*
X007695Y012953D01*
X007673Y012888D01*
X007663Y012820D01*
X007663Y012785D01*
X007663Y012813D02*
X006998Y012813D01*
X007349Y012972D02*
X007704Y012972D01*
X007831Y013130D02*
X007466Y013130D01*
X007498Y013289D02*
X008845Y013289D01*
X008827Y013447D02*
X007463Y013447D01*
X007342Y013606D02*
X008875Y013606D01*
X009040Y013764D02*
X006684Y013764D01*
X006516Y013764D02*
X004660Y013764D01*
X004825Y013606D02*
X005858Y013606D01*
X005737Y013447D02*
X004873Y013447D01*
X005101Y013289D02*
X005702Y013289D01*
X005734Y013130D02*
X005314Y013130D01*
X005373Y012972D02*
X005851Y012972D01*
X006202Y012813D02*
X005365Y012813D01*
X005282Y012655D02*
X006223Y012655D01*
X005937Y012338D02*
X005888Y012338D01*
X005312Y012338D02*
X003888Y012338D01*
X003992Y012179D02*
X005208Y012179D01*
X005183Y012021D02*
X004017Y012021D01*
X003980Y011862D02*
X005220Y011862D01*
X005341Y011704D02*
X003859Y011704D01*
X004282Y012655D02*
X004668Y012655D01*
X004585Y012813D02*
X004365Y012813D01*
X004373Y012972D02*
X004577Y012972D01*
X005209Y014081D02*
X006202Y014081D01*
X006275Y013923D02*
X001100Y013923D01*
X001100Y014081D02*
X003741Y014081D01*
X003615Y014240D02*
X002222Y014240D01*
X002202Y014233D02*
X002268Y014255D01*
X002329Y014286D01*
X002385Y014327D01*
X002434Y014375D01*
X002474Y014431D01*
X002505Y014492D01*
X002527Y014558D01*
X002537Y014626D01*
X002537Y014660D01*
X002100Y014660D01*
X002100Y014223D01*
X002134Y014223D01*
X002202Y014233D01*
X002100Y014240D02*
X002100Y014240D01*
X002100Y014223D02*
X002100Y014660D01*
X002100Y014660D01*
X001663Y014660D01*
X001663Y014626D01*
X001673Y014558D01*
X001695Y014492D01*
X001726Y014431D01*
X001766Y014375D01*
X001815Y014327D01*
X001871Y014286D01*
X001932Y014255D01*
X001998Y014233D01*
X002066Y014223D01*
X002100Y014223D01*
X001978Y014240D02*
X001100Y014240D01*
X001100Y014398D02*
X001750Y014398D01*
X001674Y014557D02*
X001100Y014557D01*
X001245Y014715D02*
X001666Y014715D01*
X001663Y014695D02*
X001663Y014660D01*
X002100Y014660D01*
X002100Y014660D01*
X002100Y014660D01*
X002537Y014660D01*
X002537Y014695D01*
X002527Y014763D01*
X002505Y014828D01*
X002474Y014889D01*
X002434Y014945D01*
X002385Y014994D01*
X002329Y015034D01*
X002268Y015066D01*
X002202Y015087D01*
X002134Y015098D01*
X002100Y015098D01*
X002066Y015098D01*
X001998Y015087D01*
X001932Y015066D01*
X001871Y015034D01*
X001815Y014994D01*
X001766Y014945D01*
X001726Y014889D01*
X001695Y014828D01*
X001673Y014763D01*
X001663Y014695D01*
X001718Y014874D02*
X001413Y014874D01*
X001479Y015032D02*
X001868Y015032D01*
X002100Y015032D02*
X002100Y015032D01*
X002100Y015098D02*
X002100Y014660D01*
X002100Y015098D01*
X002183Y015243D02*
X002336Y015306D01*
X002454Y015424D01*
X002517Y015577D01*
X002517Y015743D01*
X002454Y015897D01*
X002336Y016014D01*
X002183Y016078D01*
X002017Y016078D01*
X001864Y016014D01*
X001746Y015897D01*
X001683Y015743D01*
X001683Y015577D01*
X001746Y015424D01*
X001864Y015306D01*
X002017Y015243D01*
X002183Y015243D01*
X002379Y015349D02*
X003321Y015349D01*
X003364Y015306D02*
X003517Y015243D01*
X003683Y015243D01*
X003836Y015306D01*
X003954Y015424D01*
X004017Y015577D01*
X004017Y015743D01*
X003954Y015897D01*
X003836Y016014D01*
X003683Y016078D01*
X003517Y016078D01*
X003364Y016014D01*
X003246Y015897D01*
X003183Y015743D01*
X003183Y015577D01*
X003246Y015424D01*
X003364Y015306D01*
X003211Y015508D02*
X002489Y015508D01*
X002517Y015666D02*
X003183Y015666D01*
X003216Y015825D02*
X002484Y015825D01*
X002367Y015983D02*
X003333Y015983D01*
X003647Y016300D02*
X002349Y016300D01*
X002329Y016286D02*
X002385Y016327D01*
X002434Y016375D01*
X002474Y016431D01*
X002505Y016492D01*
X002527Y016558D01*
X002537Y016626D01*
X002537Y016660D01*
X002100Y016660D01*
X002100Y016223D01*
X002134Y016223D01*
X002202Y016233D01*
X002268Y016255D01*
X002329Y016286D01*
X002100Y016300D02*
X002100Y016300D01*
X002100Y016223D02*
X002100Y016660D01*
X002100Y016660D01*
X001663Y016660D01*
X001663Y016626D01*
X001673Y016558D01*
X001695Y016492D01*
X001726Y016431D01*
X001766Y016375D01*
X001815Y016327D01*
X001871Y016286D01*
X001932Y016255D01*
X001998Y016233D01*
X002066Y016223D01*
X002100Y016223D01*
X002100Y016459D02*
X002100Y016459D01*
X002100Y016617D02*
X002100Y016617D01*
X002100Y016660D02*
X002100Y016660D01*
X002100Y016660D01*
X001663Y016660D01*
X001663Y016695D01*
X001673Y016763D01*
X001695Y016828D01*
X001726Y016889D01*
X001766Y016945D01*
X001815Y016994D01*
X001871Y017034D01*
X001932Y017066D01*
X001998Y017087D01*
X002066Y017098D01*
X002100Y017098D01*
X002100Y016660D01*
X002537Y016660D01*
X002537Y016695D01*
X002527Y016763D01*
X002505Y016828D01*
X002474Y016889D01*
X002434Y016945D01*
X002385Y016994D01*
X002329Y017034D01*
X002268Y017066D01*
X002202Y017087D01*
X002134Y017098D01*
X002100Y017098D01*
X002100Y016660D01*
X002100Y016660D01*
X002100Y016776D02*
X002100Y016776D01*
X002100Y016934D02*
X002100Y016934D01*
X002100Y017093D02*
X002100Y017093D01*
X002166Y017093D02*
X004077Y017093D01*
X004086Y016934D02*
X002442Y016934D01*
X002522Y016776D02*
X003653Y016776D01*
X003578Y016617D02*
X002536Y016617D01*
X002488Y016459D02*
X003577Y016459D01*
X003885Y016142D02*
X001100Y016142D01*
X001100Y016300D02*
X001851Y016300D01*
X001712Y016459D02*
X001100Y016459D01*
X001100Y016617D02*
X001664Y016617D01*
X001678Y016776D02*
X001318Y016776D01*
X001438Y016934D02*
X001758Y016934D01*
X001489Y017093D02*
X002034Y017093D01*
X002017Y017243D02*
X001864Y017306D01*
X001746Y017424D01*
X001683Y017577D01*
X001683Y017743D01*
X001746Y017897D01*
X001864Y018014D01*
X002017Y018078D01*
X002183Y018078D01*
X002336Y018014D01*
X002454Y017897D01*
X002517Y017743D01*
X002517Y017577D01*
X002454Y017424D01*
X002336Y017306D01*
X002183Y017243D01*
X002017Y017243D01*
X001996Y017251D02*
X001489Y017251D01*
X001428Y017410D02*
X001760Y017410D01*
X001686Y017568D02*
X001294Y017568D01*
X001100Y017727D02*
X001683Y017727D01*
X001741Y017885D02*
X001100Y017885D01*
X001853Y018044D02*
X001935Y018044D01*
X002087Y018202D02*
X003302Y018202D01*
X003246Y018147D02*
X003364Y018264D01*
X003517Y018328D01*
X003683Y018328D01*
X003836Y018264D01*
X003954Y018147D01*
X004017Y017993D01*
X004017Y017827D01*
X003954Y017674D01*
X003836Y017556D01*
X003683Y017493D01*
X003517Y017493D01*
X003364Y017556D01*
X003246Y017674D01*
X003183Y017827D01*
X003183Y017993D01*
X003246Y018147D01*
X003203Y018044D02*
X002265Y018044D01*
X002459Y017885D02*
X003183Y017885D01*
X003224Y017727D02*
X002517Y017727D01*
X002514Y017568D02*
X003352Y017568D01*
X003848Y017568D02*
X005352Y017568D01*
X005364Y017556D02*
X005517Y017493D01*
X005683Y017493D01*
X005836Y017556D01*
X005846Y017566D01*
X005851Y017556D01*
X005891Y017500D01*
X005940Y017452D01*
X005996Y017411D01*
X006057Y017380D01*
X006123Y017358D01*
X006191Y017348D01*
X006225Y017348D01*
X006259Y017348D01*
X006327Y017358D01*
X006393Y017380D01*
X006454Y017411D01*
X006510Y017452D01*
X006559Y017500D01*
X006599Y017556D01*
X006610Y017576D01*
X006621Y017549D01*
X006739Y017431D01*
X006892Y017368D01*
X007058Y017368D01*
X007211Y017431D01*
X007329Y017549D01*
X007392Y017702D01*
X007392Y017868D01*
X007329Y018022D01*
X007211Y018139D01*
X007058Y018203D01*
X006892Y018203D01*
X006739Y018139D01*
X006621Y018022D01*
X006610Y017994D01*
X006599Y018014D01*
X006559Y018070D01*
X006510Y018119D01*
X006454Y018159D01*
X006393Y018191D01*
X006327Y018212D01*
X006259Y018223D01*
X006225Y018223D01*
X006191Y018223D01*
X006123Y018212D01*
X006057Y018191D01*
X005996Y018159D01*
X005960Y018133D01*
X005954Y018147D01*
X005836Y018264D01*
X005683Y018328D01*
X005517Y018328D01*
X005364Y018264D01*
X005246Y018147D01*
X005183Y017993D01*
X005183Y017827D01*
X005246Y017674D01*
X005364Y017556D01*
X005224Y017727D02*
X003976Y017727D01*
X004017Y017885D02*
X005183Y017885D01*
X005203Y018044D02*
X003997Y018044D01*
X003898Y018202D02*
X005302Y018202D01*
X005898Y018202D02*
X006093Y018202D01*
X006225Y018202D02*
X006225Y018202D01*
X006225Y018223D02*
X006225Y017785D01*
X006225Y017348D01*
X006225Y017785D01*
X006225Y017785D01*
X006225Y018223D01*
X006357Y018202D02*
X006891Y018202D01*
X007059Y018202D02*
X019613Y018202D01*
X019458Y018361D02*
X002242Y018361D01*
X002334Y018519D02*
X019366Y018519D01*
X019297Y018678D02*
X002403Y018678D01*
X002446Y018836D02*
X011184Y018836D01*
X011026Y018995D02*
X006150Y018995D01*
X006204Y019049D02*
X006267Y019202D01*
X006267Y019368D01*
X006204Y019522D01*
X006086Y019639D01*
X005933Y019703D01*
X005767Y019703D01*
X005614Y019639D01*
X005496Y019522D01*
X005433Y019368D01*
X005433Y019202D01*
X005496Y019049D01*
X005614Y018931D01*
X005767Y018868D01*
X005933Y018868D01*
X006086Y018931D01*
X006204Y019049D01*
X006247Y019153D02*
X010956Y019153D01*
X010973Y019470D02*
X006225Y019470D01*
X006267Y019312D02*
X011437Y019312D01*
X011513Y019312D02*
X012586Y019312D01*
X012598Y019153D02*
X011994Y019153D01*
X011924Y018995D02*
X012664Y018995D01*
X012840Y018836D02*
X011766Y018836D01*
X011513Y018836D02*
X011437Y018836D01*
X011437Y018995D02*
X011513Y018995D01*
X011513Y019153D02*
X011437Y019153D01*
X011064Y019629D02*
X006097Y019629D01*
X005603Y019629D02*
X004121Y019629D01*
X004135Y019619D02*
X004079Y019659D01*
X004018Y019691D01*
X003952Y019712D01*
X003884Y019723D01*
X003850Y019723D01*
X003816Y019723D01*
X003748Y019712D01*
X003682Y019691D01*
X003621Y019659D01*
X003565Y019619D01*
X003516Y019570D01*
X003476Y019514D01*
X003445Y019453D01*
X003423Y019388D01*
X003413Y019320D01*
X003413Y019285D01*
X003413Y019251D01*
X003423Y019183D01*
X003445Y019117D01*
X003476Y019056D01*
X003516Y019000D01*
X003565Y018952D01*
X003621Y018911D01*
X003682Y018880D01*
X003748Y018858D01*
X003816Y018848D01*
X003850Y018848D01*
X003884Y018848D01*
X003952Y018858D01*
X004018Y018880D01*
X004079Y018911D01*
X004135Y018952D01*
X004184Y019000D01*
X004224Y019056D01*
X004255Y019117D01*
X004277Y019183D01*
X004287Y019251D01*
X004287Y019285D01*
X003850Y019285D01*
X003850Y018848D01*
X003850Y019285D01*
X003850Y019285D01*
X003850Y019285D01*
X003413Y019285D01*
X003850Y019285D01*
X003850Y019285D01*
X004287Y019285D01*
X004287Y019320D01*
X004277Y019388D01*
X004255Y019453D01*
X004224Y019514D01*
X004184Y019570D01*
X004135Y019619D01*
X004247Y019470D02*
X005475Y019470D01*
X005433Y019312D02*
X004287Y019312D01*
X004267Y019153D02*
X005453Y019153D01*
X005550Y018995D02*
X004178Y018995D01*
X003850Y018995D02*
X003850Y018995D01*
X003850Y019153D02*
X003850Y019153D01*
X003850Y019285D02*
X003850Y019723D01*
X003850Y019285D01*
X003850Y019285D01*
X003850Y019312D02*
X003850Y019312D01*
X003850Y019470D02*
X003850Y019470D01*
X003850Y019629D02*
X003850Y019629D01*
X003579Y019629D02*
X002289Y019629D01*
X002380Y019470D02*
X003453Y019470D01*
X003413Y019312D02*
X002425Y019312D01*
X002460Y019153D02*
X003433Y019153D01*
X003522Y018995D02*
X002460Y018995D01*
X002440Y017410D02*
X004340Y017410D01*
X004134Y017251D02*
X002204Y017251D01*
X001833Y015983D02*
X001100Y015983D01*
X001100Y015825D02*
X001716Y015825D01*
X001683Y015666D02*
X001100Y015666D01*
X001355Y015508D02*
X001711Y015508D01*
X001821Y015349D02*
X001453Y015349D01*
X001489Y015191D02*
X004193Y015191D01*
X004095Y015032D02*
X002332Y015032D01*
X002482Y014874D02*
X004077Y014874D01*
X003717Y014715D02*
X002534Y014715D01*
X002526Y014557D02*
X003605Y014557D01*
X003577Y014398D02*
X002450Y014398D01*
X002100Y014398D02*
X002100Y014398D01*
X002100Y014557D02*
X002100Y014557D01*
X002100Y014660D02*
X002100Y014660D01*
X002100Y014715D02*
X002100Y014715D01*
X002100Y014874D02*
X002100Y014874D01*
X003879Y015349D02*
X005321Y015349D01*
X005211Y015508D02*
X003989Y015508D01*
X004017Y015666D02*
X005183Y015666D01*
X005216Y015825D02*
X003984Y015825D01*
X003867Y015983D02*
X005333Y015983D01*
X005065Y016142D02*
X005995Y016142D01*
X006455Y016142D02*
X006721Y016142D01*
X006636Y015508D02*
X006538Y015508D01*
X006931Y015349D02*
X005879Y015349D01*
X004885Y016142D02*
X004065Y016142D01*
X004303Y016300D02*
X004647Y016300D01*
X004577Y016459D02*
X004373Y016459D01*
X004372Y016617D02*
X004578Y016617D01*
X004864Y016934D02*
X007783Y016934D01*
X007624Y017093D02*
X004873Y017093D01*
X004816Y017251D02*
X007577Y017251D01*
X007596Y017410D02*
X007159Y017410D01*
X007337Y017568D02*
X007695Y017568D01*
X007392Y017727D02*
X008077Y017727D01*
X008086Y017885D02*
X007385Y017885D01*
X007307Y018044D02*
X008171Y018044D01*
X008779Y018044D02*
X019847Y018044D01*
X020600Y017885D02*
X008864Y017885D01*
X008873Y017727D02*
X020600Y017727D01*
X020600Y017568D02*
X009255Y017568D01*
X009354Y017410D02*
X020600Y017410D01*
X020600Y017251D02*
X009373Y017251D01*
X009326Y017093D02*
X020600Y017093D01*
X019254Y018836D02*
X013360Y018836D01*
X013536Y018995D02*
X019240Y018995D01*
X019240Y019153D02*
X013602Y019153D01*
X013614Y019312D02*
X019275Y019312D01*
X019320Y019470D02*
X013580Y019470D01*
X013484Y019629D02*
X019411Y019629D01*
X016492Y014240D02*
X015958Y014240D01*
X016085Y014081D02*
X016365Y014081D01*
X016327Y013923D02*
X016123Y013923D01*
X015827Y013447D02*
X014662Y013447D01*
X014662Y013445D02*
X014652Y013513D01*
X014630Y013578D01*
X014599Y013639D01*
X014559Y013695D01*
X014510Y013744D01*
X014454Y013784D01*
X014393Y013816D01*
X014327Y013837D01*
X014259Y013848D01*
X014225Y013848D01*
X014191Y013848D01*
X014123Y013837D01*
X014057Y013816D01*
X013996Y013784D01*
X013940Y013744D01*
X013891Y013695D01*
X013851Y013639D01*
X013820Y013578D01*
X013798Y013513D01*
X013788Y013445D01*
X013788Y013410D01*
X013788Y013376D01*
X013798Y013308D01*
X013820Y013242D01*
X013851Y013181D01*
X013891Y013125D01*
X013940Y013077D01*
X013996Y013036D01*
X014057Y013005D01*
X014123Y012983D01*
X014191Y012973D01*
X014225Y012973D01*
X014259Y012973D01*
X014327Y012983D01*
X014393Y013005D01*
X014454Y013036D01*
X014510Y013077D01*
X014559Y013125D01*
X014599Y013181D01*
X014630Y013242D01*
X014652Y013308D01*
X014662Y013376D01*
X014662Y013410D01*
X014225Y013410D01*
X014225Y012973D01*
X014225Y013410D01*
X014225Y013410D01*
X014225Y013410D01*
X013788Y013410D01*
X014225Y013410D01*
X014225Y013410D01*
X014662Y013410D01*
X014662Y013445D01*
X014646Y013289D02*
X015845Y013289D01*
X015942Y013130D02*
X014562Y013130D01*
X014225Y013130D02*
X014225Y013130D01*
X014225Y013289D02*
X014225Y013289D01*
X014225Y013410D02*
X014225Y013848D01*
X014225Y013410D01*
X014225Y013410D01*
X014225Y013447D02*
X014225Y013447D01*
X014225Y013606D02*
X014225Y013606D01*
X014225Y013764D02*
X014225Y013764D01*
X014482Y013764D02*
X015355Y013764D01*
X015327Y013923D02*
X010123Y013923D01*
X010095Y013764D02*
X012989Y013764D01*
X012871Y013647D01*
X012808Y013493D01*
X012808Y013327D01*
X012871Y013174D01*
X012989Y013056D01*
X013142Y012993D01*
X013308Y012993D01*
X013461Y013056D01*
X013579Y013174D01*
X013642Y013327D01*
X013642Y013493D01*
X013579Y013647D01*
X013461Y013764D01*
X013968Y013764D01*
X013834Y013606D02*
X013596Y013606D01*
X013642Y013447D02*
X013788Y013447D01*
X013804Y013289D02*
X013627Y013289D01*
X013535Y013130D02*
X013888Y013130D01*
X013461Y013764D02*
X013308Y013828D01*
X013142Y013828D01*
X012989Y013764D01*
X012854Y013606D02*
X009983Y013606D01*
X009623Y013447D02*
X012808Y013447D01*
X012823Y013289D02*
X009605Y013289D01*
X009508Y013130D02*
X012915Y013130D01*
X012454Y012021D02*
X016185Y012021D01*
X016279Y011862D02*
X012517Y011862D01*
X011852Y010753D02*
X010348Y010753D01*
X010476Y010594D02*
X011724Y010594D01*
X011683Y010436D02*
X010517Y010436D01*
X010497Y010277D02*
X011703Y010277D01*
X011801Y010119D02*
X010399Y010119D01*
X009361Y009643D02*
X017300Y009643D01*
X017250Y009802D02*
X016825Y009802D01*
X016969Y009960D02*
X017106Y009960D01*
X017058Y010119D02*
X017017Y010119D01*
X017003Y010277D02*
X017072Y010277D01*
X017160Y010436D02*
X016915Y010436D01*
X016285Y010436D02*
X012517Y010436D01*
X012497Y010277D02*
X016197Y010277D01*
X016183Y010119D02*
X012399Y010119D01*
X012989Y009264D02*
X012871Y009147D01*
X012808Y008993D01*
X012808Y008827D01*
X012871Y008674D01*
X012989Y008556D01*
X013142Y008493D01*
X013308Y008493D01*
X013461Y008556D01*
X013579Y008674D01*
X013642Y008827D01*
X013642Y008993D01*
X013579Y009147D01*
X013461Y009264D01*
X013308Y009328D01*
X013142Y009328D01*
X012989Y009264D01*
X012892Y009168D02*
X009127Y009168D01*
X009319Y009326D02*
X013138Y009326D01*
X013312Y009326D02*
X014090Y009326D01*
X014123Y009337D02*
X014057Y009316D01*
X013996Y009284D01*
X013940Y009244D01*
X013891Y009195D01*
X013851Y009139D01*
X013820Y009078D01*
X013798Y009013D01*
X013788Y008945D01*
X013788Y008910D01*
X013788Y008876D01*
X013798Y008808D01*
X013820Y008742D01*
X013851Y008681D01*
X013891Y008625D01*
X013940Y008577D01*
X013996Y008536D01*
X014057Y008505D01*
X014123Y008483D01*
X014191Y008473D01*
X014225Y008473D01*
X014259Y008473D01*
X014327Y008483D01*
X014393Y008505D01*
X014454Y008536D01*
X014510Y008577D01*
X014559Y008625D01*
X014599Y008681D01*
X014630Y008742D01*
X014652Y008808D01*
X014662Y008876D01*
X014662Y008910D01*
X014225Y008910D01*
X014225Y008473D01*
X014225Y008910D01*
X014225Y008910D01*
X014225Y008910D01*
X013788Y008910D01*
X014225Y008910D01*
X014225Y008910D01*
X014662Y008910D01*
X014662Y008945D01*
X014652Y009013D01*
X014630Y009078D01*
X014599Y009139D01*
X014559Y009195D01*
X014510Y009244D01*
X014454Y009284D01*
X014393Y009316D01*
X014327Y009337D01*
X014259Y009348D01*
X014225Y009348D01*
X014191Y009348D01*
X014123Y009337D01*
X014225Y009348D02*
X014225Y008910D01*
X014225Y008910D01*
X014225Y009348D01*
X014225Y009326D02*
X014225Y009326D01*
X014360Y009326D02*
X017077Y009326D01*
X017093Y009168D02*
X016530Y009168D01*
X015920Y009168D02*
X014579Y009168D01*
X014652Y009009D02*
X015835Y009009D01*
X015827Y008851D02*
X014659Y008851D01*
X014605Y008692D02*
X015444Y008692D01*
X015346Y008534D02*
X014450Y008534D01*
X014225Y008534D02*
X014225Y008534D01*
X014225Y008692D02*
X014225Y008692D01*
X014225Y008851D02*
X014225Y008851D01*
X014225Y009009D02*
X014225Y009009D01*
X014225Y009168D02*
X014225Y009168D01*
X013871Y009168D02*
X013558Y009168D01*
X013636Y009009D02*
X013798Y009009D01*
X013791Y008851D02*
X013642Y008851D01*
X013587Y008692D02*
X013845Y008692D01*
X014000Y008534D02*
X013407Y008534D01*
X013043Y008534D02*
X010287Y008534D01*
X010287Y008535D02*
X009850Y008535D01*
X009850Y008535D01*
X009413Y008535D01*
X009413Y008501D01*
X009423Y008433D01*
X009445Y008367D01*
X009476Y008306D01*
X009516Y008250D01*
X009565Y008202D01*
X009621Y008161D01*
X009682Y008130D01*
X009748Y008108D01*
X009816Y008098D01*
X009822Y008098D01*
X009746Y008022D01*
X009683Y007868D01*
X009683Y007702D01*
X009746Y007549D01*
X009864Y007431D01*
X010017Y007368D01*
X010183Y007368D01*
X010336Y007431D01*
X010454Y007549D01*
X010517Y007702D01*
X010517Y007868D01*
X010454Y008022D01*
X010336Y008139D01*
X010183Y008203D01*
X010136Y008203D01*
X010184Y008250D01*
X010224Y008306D01*
X010255Y008367D01*
X010277Y008433D01*
X010287Y008501D01*
X010287Y008535D01*
X010287Y008570D01*
X010277Y008638D01*
X010255Y008703D01*
X010224Y008764D01*
X010184Y008820D01*
X010135Y008869D01*
X010079Y008909D01*
X010018Y008941D01*
X009952Y008962D01*
X009884Y008973D01*
X009850Y008973D01*
X009816Y008973D01*
X009748Y008962D01*
X009682Y008941D01*
X009621Y008909D01*
X009565Y008869D01*
X009516Y008820D01*
X009476Y008764D01*
X009445Y008703D01*
X009423Y008638D01*
X009413Y008570D01*
X009413Y008535D01*
X009850Y008535D01*
X009850Y008535D01*
X010287Y008535D01*
X010259Y008692D02*
X012863Y008692D01*
X012808Y008851D02*
X010153Y008851D01*
X009850Y008851D02*
X009850Y008851D01*
X009850Y008973D02*
X009850Y008535D01*
X009850Y008535D01*
X009850Y008973D01*
X009850Y008692D02*
X009850Y008692D01*
X010258Y008375D02*
X015327Y008375D01*
X015375Y008217D02*
X010150Y008217D01*
X010417Y008058D02*
X011158Y008058D01*
X011071Y007900D02*
X010504Y007900D01*
X010517Y007741D02*
X011058Y007741D01*
X011107Y007583D02*
X010468Y007583D01*
X010319Y007424D02*
X011256Y007424D01*
X011792Y008058D02*
X015535Y008058D01*
X015915Y008058D02*
X016535Y008058D01*
X016375Y008217D02*
X016075Y008217D01*
X016123Y008375D02*
X016327Y008375D01*
X017127Y009485D02*
X009373Y009485D01*
X009547Y008851D02*
X008125Y008851D01*
X008237Y008692D02*
X009441Y008692D01*
X009413Y008534D02*
X008267Y008534D01*
X008236Y008375D02*
X009442Y008375D01*
X009550Y008217D02*
X008122Y008217D01*
X008417Y008058D02*
X009783Y008058D01*
X009696Y007900D02*
X008504Y007900D01*
X008517Y007741D02*
X009683Y007741D01*
X009732Y007583D02*
X008468Y007583D01*
X008319Y007424D02*
X009881Y007424D01*
X007881Y007424D02*
X004774Y007424D01*
X004812Y007386D02*
X004700Y007497D01*
X004554Y007558D01*
X004396Y007558D01*
X004250Y007497D01*
X004138Y007386D01*
X004077Y007239D01*
X004077Y007081D01*
X004094Y007042D01*
X004054Y007058D01*
X003896Y007058D01*
X003750Y006997D01*
X003638Y006886D01*
X003577Y006739D01*
X003577Y006581D01*
X003638Y006435D01*
X003750Y006323D01*
X003896Y006262D01*
X004054Y006262D01*
X004200Y006323D01*
X004312Y006435D01*
X004373Y006581D01*
X004373Y006739D01*
X004356Y006779D01*
X004396Y006762D01*
X004554Y006762D01*
X004594Y006779D01*
X004577Y006739D01*
X004577Y006581D01*
X004638Y006435D01*
X004750Y006323D01*
X004896Y006262D01*
X005054Y006262D01*
X005200Y006323D01*
X005312Y006435D01*
X005373Y006581D01*
X005373Y006739D01*
X005312Y006886D01*
X005200Y006997D01*
X005054Y007058D01*
X004896Y007058D01*
X004856Y007042D01*
X004873Y007081D01*
X004873Y007239D01*
X004812Y007386D01*
X004862Y007266D02*
X005919Y007266D01*
X005751Y007107D02*
X004873Y007107D01*
X005249Y006949D02*
X005702Y006949D01*
X005719Y006790D02*
X005352Y006790D01*
X005373Y006632D02*
X005816Y006632D01*
X006202Y006473D02*
X005328Y006473D01*
X005180Y006315D02*
X006209Y006315D01*
X006498Y006949D02*
X006702Y006949D01*
X006751Y007107D02*
X006449Y007107D01*
X006281Y007266D02*
X006919Y007266D01*
X006941Y007598D02*
X006873Y007608D01*
X006807Y007630D01*
X006746Y007661D01*
X006690Y007702D01*
X006641Y007750D01*
X006601Y007806D01*
X006590Y007826D01*
X006579Y007799D01*
X006461Y007681D01*
X006308Y007618D01*
X006142Y007618D01*
X005989Y007681D01*
X005966Y007704D01*
X005954Y007674D01*
X005836Y007556D01*
X005683Y007493D01*
X005517Y007493D01*
X005364Y007556D01*
X005246Y007674D01*
X005183Y007827D01*
X005183Y007993D01*
X005246Y008147D01*
X005364Y008264D01*
X005517Y008328D01*
X005683Y008328D01*
X005836Y008264D01*
X005859Y008242D01*
X005871Y008272D01*
X005989Y008389D01*
X006142Y008453D01*
X006308Y008453D01*
X006461Y008389D01*
X006579Y008272D01*
X006590Y008244D01*
X006601Y008264D01*
X006641Y008320D01*
X006690Y008369D01*
X006746Y008409D01*
X006807Y008441D01*
X006873Y008462D01*
X006941Y008473D01*
X006975Y008473D01*
X006975Y008035D01*
X006975Y007598D01*
X007009Y007598D01*
X007077Y007608D01*
X007143Y007630D01*
X007204Y007661D01*
X007260Y007702D01*
X007309Y007750D01*
X007349Y007806D01*
X007380Y007867D01*
X007402Y007933D01*
X007412Y008001D01*
X007412Y008035D01*
X006975Y008035D01*
X006975Y008035D01*
X006975Y007598D01*
X006941Y007598D01*
X006975Y007741D02*
X006975Y007741D01*
X006975Y007900D02*
X006975Y007900D01*
X006975Y008035D02*
X006975Y008035D01*
X007412Y008035D01*
X007412Y008070D01*
X007402Y008138D01*
X007380Y008203D01*
X007349Y008264D01*
X007309Y008320D01*
X007260Y008369D01*
X007204Y008409D01*
X007143Y008441D01*
X007077Y008462D01*
X007009Y008473D01*
X006975Y008473D01*
X006975Y008035D01*
X006975Y008035D01*
X006975Y008058D02*
X006975Y008058D01*
X006975Y008217D02*
X006975Y008217D01*
X006975Y008375D02*
X006975Y008375D01*
X006699Y008375D02*
X006475Y008375D01*
X005975Y008375D02*
X001100Y008375D01*
X001100Y008217D02*
X001816Y008217D01*
X001864Y008264D02*
X001746Y008147D01*
X001683Y007993D01*
X001683Y007827D01*
X001746Y007674D01*
X001864Y007556D01*
X002017Y007493D01*
X002183Y007493D01*
X002336Y007556D01*
X002454Y007674D01*
X002517Y007827D01*
X002517Y007993D01*
X002454Y008147D01*
X002336Y008264D01*
X002183Y008328D01*
X002017Y008328D01*
X001864Y008264D01*
X001709Y008058D02*
X001100Y008058D01*
X001137Y007900D02*
X001683Y007900D01*
X001718Y007741D02*
X001371Y007741D01*
X001460Y007583D02*
X001837Y007583D01*
X001932Y007316D02*
X001871Y007284D01*
X001815Y007244D01*
X001766Y007195D01*
X001726Y007139D01*
X001695Y007078D01*
X001673Y007013D01*
X001663Y006945D01*
X001663Y006910D01*
X001663Y006876D01*
X001673Y006808D01*
X001695Y006742D01*
X001726Y006681D01*
X001766Y006625D01*
X001815Y006577D01*
X001871Y006536D01*
X001932Y006505D01*
X001998Y006483D01*
X002066Y006473D01*
X002100Y006473D01*
X002100Y006473D01*
X002134Y006473D01*
X002202Y006483D01*
X002268Y006505D01*
X002329Y006536D01*
X002385Y006577D01*
X002434Y006625D01*
X002474Y006681D01*
X002505Y006742D01*
X002527Y006808D01*
X002537Y006876D01*
X002537Y006910D01*
X002100Y006910D01*
X002100Y006473D01*
X002100Y006910D01*
X002100Y006910D01*
X001663Y006910D01*
X002100Y006910D01*
X002100Y006910D01*
X002100Y006910D01*
X002537Y006910D01*
X002537Y006945D01*
X002527Y007013D01*
X002505Y007078D01*
X002474Y007139D01*
X002434Y007195D01*
X002385Y007244D01*
X002329Y007284D01*
X002268Y007316D01*
X002202Y007337D01*
X002134Y007348D01*
X002100Y007348D01*
X002066Y007348D01*
X001998Y007337D01*
X001932Y007316D01*
X001845Y007266D02*
X001472Y007266D01*
X001489Y007424D02*
X004176Y007424D01*
X004088Y007266D02*
X002355Y007266D01*
X002491Y007107D02*
X004077Y007107D01*
X003701Y006949D02*
X002537Y006949D01*
X002521Y006790D02*
X003598Y006790D01*
X003577Y006632D02*
X002438Y006632D01*
X002100Y006632D02*
X002100Y006632D01*
X002100Y006790D02*
X002100Y006790D01*
X002100Y006910D02*
X002100Y007348D01*
X002100Y006910D01*
X002100Y006910D01*
X002100Y006949D02*
X002100Y006949D01*
X002100Y007107D02*
X002100Y007107D01*
X002100Y007266D02*
X002100Y007266D01*
X002363Y007583D02*
X003337Y007583D01*
X003364Y007556D02*
X003517Y007493D01*
X003683Y007493D01*
X003836Y007556D01*
X003954Y007674D01*
X004017Y007827D01*
X004017Y007993D01*
X003954Y008147D01*
X003836Y008264D01*
X003683Y008328D01*
X003517Y008328D01*
X003364Y008264D01*
X003246Y008147D01*
X003183Y007993D01*
X003183Y007827D01*
X003246Y007674D01*
X003364Y007556D01*
X003218Y007741D02*
X002482Y007741D01*
X002517Y007900D02*
X003183Y007900D01*
X003209Y008058D02*
X002491Y008058D01*
X002384Y008217D02*
X003316Y008217D01*
X003884Y008217D02*
X005316Y008217D01*
X005209Y008058D02*
X003991Y008058D01*
X004017Y007900D02*
X005183Y007900D01*
X005218Y007741D02*
X003982Y007741D01*
X003863Y007583D02*
X005337Y007583D01*
X005863Y007583D02*
X007732Y007583D01*
X007683Y007741D02*
X007300Y007741D01*
X007391Y007900D02*
X007696Y007900D01*
X007783Y008058D02*
X007412Y008058D01*
X007374Y008217D02*
X007578Y008217D01*
X007464Y008375D02*
X007251Y008375D01*
X007433Y008534D02*
X005411Y008534D01*
X005492Y008692D02*
X007463Y008692D01*
X007575Y008851D02*
X005498Y008851D01*
X005438Y009009D02*
X012814Y009009D01*
X009971Y011387D02*
X001100Y011387D01*
X001100Y011545D02*
X009750Y011545D01*
X008430Y012496D02*
X016318Y012496D01*
X016600Y012496D02*
X016600Y012496D01*
X016600Y012598D02*
X016600Y012160D01*
X016600Y012598D01*
X016600Y012338D02*
X016600Y012338D01*
X016600Y012179D02*
X016600Y012179D01*
X016600Y012160D02*
X016600Y012160D01*
X016600Y012021D02*
X016600Y012021D01*
X016600Y011862D02*
X016600Y011862D01*
X016921Y011862D02*
X017154Y011862D01*
X017141Y011875D02*
X017190Y011827D01*
X017246Y011786D01*
X017307Y011755D01*
X017373Y011733D01*
X017441Y011723D01*
X017475Y011723D01*
X017509Y011723D01*
X017577Y011733D01*
X017643Y011755D01*
X017704Y011786D01*
X017760Y011827D01*
X017809Y011875D01*
X017849Y011931D01*
X017880Y011992D01*
X017902Y012058D01*
X017912Y012126D01*
X017912Y012160D01*
X017475Y012160D01*
X017475Y011723D01*
X017475Y012160D01*
X017475Y012160D01*
X017038Y012160D01*
X017038Y012126D01*
X017048Y012058D01*
X017070Y011992D01*
X017101Y011931D01*
X017141Y011875D01*
X017060Y012021D02*
X017015Y012021D01*
X017038Y012160D02*
X017475Y012160D01*
X017475Y012160D01*
X017475Y012160D01*
X017912Y012160D01*
X017912Y012195D01*
X017902Y012263D01*
X017880Y012328D01*
X017849Y012389D01*
X017809Y012445D01*
X017760Y012494D01*
X017704Y012534D01*
X017643Y012566D01*
X017577Y012587D01*
X017509Y012598D01*
X017475Y012598D01*
X017441Y012598D01*
X017373Y012587D01*
X017307Y012566D01*
X017246Y012534D01*
X017190Y012494D01*
X017141Y012445D01*
X017101Y012389D01*
X017070Y012328D01*
X017048Y012263D01*
X017038Y012195D01*
X017038Y012160D01*
X017037Y012179D02*
X017038Y012179D01*
X017001Y012338D02*
X017074Y012338D01*
X017193Y012496D02*
X016882Y012496D01*
X017136Y012813D02*
X008537Y012813D01*
X008518Y012655D02*
X017354Y012655D01*
X017475Y012598D02*
X017475Y012160D01*
X017475Y012160D01*
X017475Y012598D01*
X017475Y012496D02*
X017475Y012496D01*
X017475Y012338D02*
X017475Y012338D01*
X017475Y012179D02*
X017475Y012179D01*
X017475Y012021D02*
X017475Y012021D01*
X017475Y011862D02*
X017475Y011862D01*
X017796Y011862D02*
X018183Y011862D01*
X018081Y012021D02*
X017890Y012021D01*
X017912Y012179D02*
X018058Y012179D01*
X018097Y012338D02*
X017876Y012338D01*
X017757Y012496D02*
X018221Y012496D01*
X018354Y012655D02*
X017596Y012655D01*
X017814Y012813D02*
X018136Y012813D01*
X018077Y012972D02*
X017873Y012972D01*
X017866Y013130D02*
X018084Y013130D01*
X017581Y013447D02*
X016623Y013447D01*
X016605Y013289D02*
X017166Y013289D01*
X017084Y013130D02*
X016508Y013130D01*
X016983Y013606D02*
X017577Y013606D01*
X017641Y013764D02*
X017095Y013764D01*
X017123Y013923D02*
X017871Y013923D01*
X017077Y012972D02*
X008496Y012972D01*
X008369Y013130D02*
X008942Y013130D01*
X008100Y013130D02*
X008100Y013130D01*
X008100Y013223D02*
X008100Y012785D01*
X008100Y013223D01*
X008100Y012972D02*
X008100Y012972D01*
X008100Y012813D02*
X008100Y012813D01*
X008100Y012785D02*
X008100Y012785D01*
X006925Y013923D02*
X009327Y013923D01*
X008991Y014081D02*
X006998Y014081D01*
X006998Y014240D02*
X008865Y014240D01*
X008827Y014398D02*
X008257Y014398D01*
X008457Y014557D02*
X008855Y014557D01*
X008967Y014715D02*
X008517Y014715D01*
X007943Y014398D02*
X007401Y014398D01*
X007488Y014557D02*
X007743Y014557D01*
X007683Y014715D02*
X007498Y014715D01*
X007442Y014874D02*
X007685Y014874D01*
X007757Y015032D02*
X007241Y015032D01*
X006858Y013606D02*
X006342Y013606D01*
X006463Y013447D02*
X006737Y013447D01*
X006702Y013289D02*
X006498Y013289D01*
X005966Y011704D02*
X005859Y011704D01*
X005825Y009802D02*
X005854Y009802D01*
X004702Y008851D02*
X004498Y008851D01*
X004492Y008692D02*
X004708Y008692D01*
X004789Y008534D02*
X004411Y008534D01*
X003789Y008534D02*
X001100Y008534D01*
X001100Y008692D02*
X001828Y008692D01*
X001815Y008702D02*
X001871Y008661D01*
X001932Y008630D01*
X001998Y008608D01*
X002066Y008598D01*
X002100Y008598D01*
X002134Y008598D01*
X002202Y008608D01*
X002268Y008630D01*
X002329Y008661D01*
X002385Y008702D01*
X002434Y008750D01*
X002474Y008806D01*
X002505Y008867D01*
X002527Y008933D01*
X002537Y009001D01*
X002537Y009035D01*
X002100Y009035D01*
X002100Y008598D01*
X002100Y009035D01*
X002100Y009035D01*
X001663Y009035D01*
X001663Y009001D01*
X001673Y008933D01*
X001695Y008867D01*
X001726Y008806D01*
X001766Y008750D01*
X001815Y008702D01*
X001703Y008851D02*
X001100Y008851D01*
X001100Y009009D02*
X001663Y009009D01*
X001663Y009035D02*
X002100Y009035D01*
X002100Y009035D01*
X002100Y009035D01*
X002537Y009035D01*
X002537Y009070D01*
X002527Y009138D01*
X002505Y009203D01*
X002474Y009264D01*
X002434Y009320D01*
X002385Y009369D01*
X002329Y009409D01*
X002268Y009441D01*
X002202Y009462D01*
X002134Y009473D01*
X002100Y009473D01*
X002066Y009473D01*
X001998Y009462D01*
X001932Y009441D01*
X001871Y009409D01*
X001815Y009369D01*
X001766Y009320D01*
X001726Y009264D01*
X001695Y009203D01*
X001673Y009138D01*
X001663Y009070D01*
X001663Y009035D01*
X001683Y009168D02*
X001335Y009168D01*
X001445Y009326D02*
X001772Y009326D01*
X002100Y009326D02*
X002100Y009326D01*
X002100Y009473D02*
X002100Y009035D01*
X002100Y009473D01*
X002245Y009643D02*
X004425Y009643D01*
X004252Y009485D02*
X001489Y009485D01*
X001487Y009643D02*
X001955Y009643D01*
X001745Y009802D02*
X001421Y009802D01*
X001277Y009960D02*
X001683Y009960D01*
X001683Y010119D02*
X001100Y010119D01*
X001100Y010277D02*
X001752Y010277D01*
X002100Y009168D02*
X002100Y009168D01*
X002100Y009035D02*
X002100Y009035D01*
X002100Y009009D02*
X002100Y009009D01*
X002100Y008851D02*
X002100Y008851D01*
X002100Y008692D02*
X002100Y008692D01*
X002372Y008692D02*
X003708Y008692D01*
X003702Y008851D02*
X002497Y008851D01*
X002537Y009009D02*
X003762Y009009D01*
X003984Y009168D02*
X002517Y009168D01*
X002428Y009326D02*
X004202Y009326D01*
X004216Y009168D02*
X004218Y009168D01*
X006521Y007741D02*
X006650Y007741D01*
X007281Y007266D02*
X007744Y007266D01*
X007683Y007107D02*
X007449Y007107D01*
X007498Y006949D02*
X007684Y006949D01*
X007755Y006790D02*
X007481Y006790D01*
X005921Y004571D02*
X005904Y004571D01*
X005296Y004571D02*
X003904Y004571D01*
X003954Y004522D02*
X003836Y004639D01*
X003683Y004703D01*
X003517Y004703D01*
X003364Y004639D01*
X003246Y004522D01*
X003183Y004368D01*
X003183Y004202D01*
X003246Y004049D01*
X003364Y003931D01*
X003517Y003868D01*
X003683Y003868D01*
X003836Y003931D01*
X003954Y004049D01*
X004017Y004202D01*
X004017Y004368D01*
X003954Y004522D01*
X003999Y004413D02*
X005201Y004413D01*
X005183Y004254D02*
X004017Y004254D01*
X003973Y004096D02*
X005227Y004096D01*
X005358Y003937D02*
X003842Y003937D01*
X003358Y003937D02*
X002255Y003937D01*
X002109Y004096D02*
X003227Y004096D01*
X003183Y004254D02*
X002211Y004254D01*
X001989Y004254D02*
X001891Y004254D01*
X001757Y004413D02*
X001100Y004413D01*
X001100Y004571D02*
X001685Y004571D01*
X001683Y004730D02*
X001272Y004730D01*
X001419Y004888D02*
X001743Y004888D01*
X002515Y004571D02*
X003296Y004571D01*
X003201Y004413D02*
X002443Y004413D01*
X004266Y004888D02*
X004684Y004888D01*
X004591Y005047D02*
X004359Y005047D01*
X004373Y005205D02*
X004577Y005205D01*
X004770Y006315D02*
X004180Y006315D01*
X004328Y006473D02*
X004622Y006473D01*
X004577Y006632D02*
X004373Y006632D01*
X003770Y006315D02*
X001100Y006315D01*
X001100Y006473D02*
X002062Y006473D01*
X002138Y006473D02*
X003622Y006473D01*
X001762Y006632D02*
X001100Y006632D01*
X001100Y006790D02*
X001679Y006790D01*
X001663Y006949D02*
X001205Y006949D01*
X001399Y007107D02*
X001709Y007107D01*
X005842Y003937D02*
X005983Y003937D01*
X014616Y013606D02*
X015467Y013606D01*
X018767Y011862D02*
X018933Y011862D01*
X018910Y010436D02*
X018816Y010436D01*
X017683Y005203D02*
X017517Y005203D01*
X017364Y005139D01*
X017246Y005022D01*
X017183Y004868D01*
X017183Y004702D01*
X017246Y004549D01*
X017364Y004431D01*
X017517Y004368D01*
X017683Y004368D01*
X017836Y004431D01*
X017954Y004549D01*
X018017Y004702D01*
X018017Y004868D01*
X017954Y005022D01*
X017836Y005139D01*
X017683Y005203D01*
X017929Y005047D02*
X020600Y005047D01*
X020600Y005205D02*
X015723Y005205D01*
X015600Y005205D02*
X015600Y005205D01*
X015600Y005223D02*
X015600Y004785D01*
X015600Y004785D01*
X015600Y005223D01*
X015600Y005047D02*
X015600Y005047D01*
X015600Y004888D02*
X015600Y004888D01*
X015600Y004730D02*
X015600Y004730D01*
X015600Y004571D02*
X015600Y004571D01*
X015600Y004413D02*
X015600Y004413D01*
X015832Y004413D02*
X017408Y004413D01*
X017237Y004571D02*
X015982Y004571D01*
X016034Y004730D02*
X017183Y004730D01*
X017191Y004888D02*
X016027Y004888D01*
X015951Y005047D02*
X017271Y005047D01*
X017792Y004413D02*
X020600Y004413D01*
X020600Y004571D02*
X017963Y004571D01*
X018017Y004730D02*
X020600Y004730D01*
X020600Y004888D02*
X018009Y004888D01*
X008783Y016934D02*
X008167Y016934D01*
X008326Y017093D02*
X008624Y017093D01*
X008577Y017251D02*
X008373Y017251D01*
X006791Y017410D02*
X006452Y017410D01*
X006605Y017568D02*
X006613Y017568D01*
X006225Y017568D02*
X006225Y017568D01*
X006225Y017410D02*
X006225Y017410D01*
X005998Y017410D02*
X004610Y017410D01*
X006225Y017727D02*
X006225Y017727D01*
X006225Y017785D02*
X006225Y017785D01*
X006225Y017885D02*
X006225Y017885D01*
X006225Y018044D02*
X006225Y018044D01*
X006578Y018044D02*
X006643Y018044D01*
X011886Y019629D02*
X012716Y019629D01*
X012620Y019470D02*
X011977Y019470D01*
M02*
