%
M48
M72
T01C0.0276
T02C0.0315
T03C0.0472
T04C0.1260
%
T01
X3975Y5160
X4475Y5660
X4975Y5160
X6100Y5535
X6600Y5035
X7100Y5535
X6600Y6410
X7100Y6910
X6100Y6910
X4975Y6660
X4475Y7160
X3975Y6660
X4100Y8785
X4600Y9285
X5100Y8785
X7975Y9535
X8475Y10035
X8975Y9535
X9225Y6660
X9725Y6160
X9225Y5660
X15725Y8410
X16225Y8910
X16725Y8410
X17475Y9285
X17975Y8785
X18475Y9285
X18475Y13035
X17975Y13535
X17475Y13035
X16725Y13910
X16225Y13410
X15725Y13910
X9725Y13910
X9225Y13410
X9225Y14410
X7100Y14660
X6600Y14160
X6100Y14660
X4975Y14410
X4475Y14910
X3975Y14410
X4475Y13410
X3975Y12910
X4975Y12910
X6100Y13285
X6600Y12785
X7100Y13285
X4975Y16535
X4475Y17035
X3975Y16535
X7975Y17285
X8475Y17785
X8975Y17285
T02
X9850Y16285
X10100Y15535
X11475Y15535
X11475Y14535
X13225Y13410
X14225Y13410
X12100Y11785
X12100Y10410
X13225Y8910
X14225Y8910
X16600Y10160
X17475Y10160
X18475Y10160
X19225Y10160
X20850Y10660
X20850Y11660
X19225Y12160
X18475Y12160
X17475Y12160
X16600Y12160
X11475Y7785
X11475Y6785
X10100Y7785
X9850Y8535
X10100Y10410
X10100Y11785
X8225Y12035
X8100Y12785
X8100Y14785
X8100Y15535
X7850Y16285
X6975Y15785
X6225Y15785
X5600Y15660
X3600Y15660
X2100Y15660
X2100Y16660
X2100Y17660
X3600Y17910
X3850Y19285
X5600Y17910
X6225Y17785
X6975Y17785
X5850Y19285
X2100Y14660
X2100Y13285
X2100Y12285
X3600Y12035
X3600Y10160
X2100Y10035
X2100Y9035
X2100Y7910
X2100Y6910
X2100Y5660
X2100Y4660
X3600Y4285
X5600Y4285
X6225Y4285
X8225Y4285
X8100Y5035
X8100Y7035
X8100Y7785
X7850Y8535
X6975Y8035
X6225Y8035
X5600Y7910
X3600Y7910
X5600Y10160
X6225Y10035
X6975Y10035
X6225Y12035
X5600Y12035
X15600Y4785
X17600Y4785
T03
X20725Y8535
X20725Y13660
X13100Y19285
X11475Y19285
X975Y17160
X975Y15160
X975Y12785
X975Y9535
X975Y7410
X975Y5160
T04
X1350Y3285
X1350Y19035
X20350Y19035
X20350Y3285
M30
