G75*
G70*
%OFA0B0*%
%FSLAX24Y24*%
%IPPOS*%
%LPD*%
%AMOC8*
5,1,8,0,0,1.08239X$1,22.5*
%
%ADD10C,0.0000*%
D10*
X000100Y002035D02*
X000100Y020285D01*
X021600Y020285D01*
X021600Y002035D01*
X000100Y002035D01*
X000720Y003285D02*
X000722Y003335D01*
X000728Y003385D01*
X000738Y003434D01*
X000752Y003482D01*
X000769Y003529D01*
X000790Y003574D01*
X000815Y003618D01*
X000843Y003659D01*
X000875Y003698D01*
X000909Y003735D01*
X000946Y003769D01*
X000986Y003799D01*
X001028Y003826D01*
X001072Y003850D01*
X001118Y003871D01*
X001165Y003887D01*
X001213Y003900D01*
X001263Y003909D01*
X001312Y003914D01*
X001363Y003915D01*
X001413Y003912D01*
X001462Y003905D01*
X001511Y003894D01*
X001559Y003879D01*
X001605Y003861D01*
X001650Y003839D01*
X001693Y003813D01*
X001734Y003784D01*
X001773Y003752D01*
X001809Y003717D01*
X001841Y003679D01*
X001871Y003639D01*
X001898Y003596D01*
X001921Y003552D01*
X001940Y003506D01*
X001956Y003458D01*
X001968Y003409D01*
X001976Y003360D01*
X001980Y003310D01*
X001980Y003260D01*
X001976Y003210D01*
X001968Y003161D01*
X001956Y003112D01*
X001940Y003064D01*
X001921Y003018D01*
X001898Y002974D01*
X001871Y002931D01*
X001841Y002891D01*
X001809Y002853D01*
X001773Y002818D01*
X001734Y002786D01*
X001693Y002757D01*
X001650Y002731D01*
X001605Y002709D01*
X001559Y002691D01*
X001511Y002676D01*
X001462Y002665D01*
X001413Y002658D01*
X001363Y002655D01*
X001312Y002656D01*
X001263Y002661D01*
X001213Y002670D01*
X001165Y002683D01*
X001118Y002699D01*
X001072Y002720D01*
X001028Y002744D01*
X000986Y002771D01*
X000946Y002801D01*
X000909Y002835D01*
X000875Y002872D01*
X000843Y002911D01*
X000815Y002952D01*
X000790Y002996D01*
X000769Y003041D01*
X000752Y003088D01*
X000738Y003136D01*
X000728Y003185D01*
X000722Y003235D01*
X000720Y003285D01*
X000720Y019035D02*
X000722Y019085D01*
X000728Y019135D01*
X000738Y019184D01*
X000752Y019232D01*
X000769Y019279D01*
X000790Y019324D01*
X000815Y019368D01*
X000843Y019409D01*
X000875Y019448D01*
X000909Y019485D01*
X000946Y019519D01*
X000986Y019549D01*
X001028Y019576D01*
X001072Y019600D01*
X001118Y019621D01*
X001165Y019637D01*
X001213Y019650D01*
X001263Y019659D01*
X001312Y019664D01*
X001363Y019665D01*
X001413Y019662D01*
X001462Y019655D01*
X001511Y019644D01*
X001559Y019629D01*
X001605Y019611D01*
X001650Y019589D01*
X001693Y019563D01*
X001734Y019534D01*
X001773Y019502D01*
X001809Y019467D01*
X001841Y019429D01*
X001871Y019389D01*
X001898Y019346D01*
X001921Y019302D01*
X001940Y019256D01*
X001956Y019208D01*
X001968Y019159D01*
X001976Y019110D01*
X001980Y019060D01*
X001980Y019010D01*
X001976Y018960D01*
X001968Y018911D01*
X001956Y018862D01*
X001940Y018814D01*
X001921Y018768D01*
X001898Y018724D01*
X001871Y018681D01*
X001841Y018641D01*
X001809Y018603D01*
X001773Y018568D01*
X001734Y018536D01*
X001693Y018507D01*
X001650Y018481D01*
X001605Y018459D01*
X001559Y018441D01*
X001511Y018426D01*
X001462Y018415D01*
X001413Y018408D01*
X001363Y018405D01*
X001312Y018406D01*
X001263Y018411D01*
X001213Y018420D01*
X001165Y018433D01*
X001118Y018449D01*
X001072Y018470D01*
X001028Y018494D01*
X000986Y018521D01*
X000946Y018551D01*
X000909Y018585D01*
X000875Y018622D01*
X000843Y018661D01*
X000815Y018702D01*
X000790Y018746D01*
X000769Y018791D01*
X000752Y018838D01*
X000738Y018886D01*
X000728Y018935D01*
X000722Y018985D01*
X000720Y019035D01*
X019720Y019035D02*
X019722Y019085D01*
X019728Y019135D01*
X019738Y019184D01*
X019752Y019232D01*
X019769Y019279D01*
X019790Y019324D01*
X019815Y019368D01*
X019843Y019409D01*
X019875Y019448D01*
X019909Y019485D01*
X019946Y019519D01*
X019986Y019549D01*
X020028Y019576D01*
X020072Y019600D01*
X020118Y019621D01*
X020165Y019637D01*
X020213Y019650D01*
X020263Y019659D01*
X020312Y019664D01*
X020363Y019665D01*
X020413Y019662D01*
X020462Y019655D01*
X020511Y019644D01*
X020559Y019629D01*
X020605Y019611D01*
X020650Y019589D01*
X020693Y019563D01*
X020734Y019534D01*
X020773Y019502D01*
X020809Y019467D01*
X020841Y019429D01*
X020871Y019389D01*
X020898Y019346D01*
X020921Y019302D01*
X020940Y019256D01*
X020956Y019208D01*
X020968Y019159D01*
X020976Y019110D01*
X020980Y019060D01*
X020980Y019010D01*
X020976Y018960D01*
X020968Y018911D01*
X020956Y018862D01*
X020940Y018814D01*
X020921Y018768D01*
X020898Y018724D01*
X020871Y018681D01*
X020841Y018641D01*
X020809Y018603D01*
X020773Y018568D01*
X020734Y018536D01*
X020693Y018507D01*
X020650Y018481D01*
X020605Y018459D01*
X020559Y018441D01*
X020511Y018426D01*
X020462Y018415D01*
X020413Y018408D01*
X020363Y018405D01*
X020312Y018406D01*
X020263Y018411D01*
X020213Y018420D01*
X020165Y018433D01*
X020118Y018449D01*
X020072Y018470D01*
X020028Y018494D01*
X019986Y018521D01*
X019946Y018551D01*
X019909Y018585D01*
X019875Y018622D01*
X019843Y018661D01*
X019815Y018702D01*
X019790Y018746D01*
X019769Y018791D01*
X019752Y018838D01*
X019738Y018886D01*
X019728Y018935D01*
X019722Y018985D01*
X019720Y019035D01*
X019720Y003285D02*
X019722Y003335D01*
X019728Y003385D01*
X019738Y003434D01*
X019752Y003482D01*
X019769Y003529D01*
X019790Y003574D01*
X019815Y003618D01*
X019843Y003659D01*
X019875Y003698D01*
X019909Y003735D01*
X019946Y003769D01*
X019986Y003799D01*
X020028Y003826D01*
X020072Y003850D01*
X020118Y003871D01*
X020165Y003887D01*
X020213Y003900D01*
X020263Y003909D01*
X020312Y003914D01*
X020363Y003915D01*
X020413Y003912D01*
X020462Y003905D01*
X020511Y003894D01*
X020559Y003879D01*
X020605Y003861D01*
X020650Y003839D01*
X020693Y003813D01*
X020734Y003784D01*
X020773Y003752D01*
X020809Y003717D01*
X020841Y003679D01*
X020871Y003639D01*
X020898Y003596D01*
X020921Y003552D01*
X020940Y003506D01*
X020956Y003458D01*
X020968Y003409D01*
X020976Y003360D01*
X020980Y003310D01*
X020980Y003260D01*
X020976Y003210D01*
X020968Y003161D01*
X020956Y003112D01*
X020940Y003064D01*
X020921Y003018D01*
X020898Y002974D01*
X020871Y002931D01*
X020841Y002891D01*
X020809Y002853D01*
X020773Y002818D01*
X020734Y002786D01*
X020693Y002757D01*
X020650Y002731D01*
X020605Y002709D01*
X020559Y002691D01*
X020511Y002676D01*
X020462Y002665D01*
X020413Y002658D01*
X020363Y002655D01*
X020312Y002656D01*
X020263Y002661D01*
X020213Y002670D01*
X020165Y002683D01*
X020118Y002699D01*
X020072Y002720D01*
X020028Y002744D01*
X019986Y002771D01*
X019946Y002801D01*
X019909Y002835D01*
X019875Y002872D01*
X019843Y002911D01*
X019815Y002952D01*
X019790Y002996D01*
X019769Y003041D01*
X019752Y003088D01*
X019738Y003136D01*
X019728Y003185D01*
X019722Y003235D01*
X019720Y003285D01*
M02*
