
M48
METRIC,TZ,000.000
T01C0.701
T02C0.8
T03C1.199
T04C3.2
%
M71
G90
T01
X021209Y020574
X019939Y021844
X018669Y020574
X015176Y018352
X013906Y019622
X012636Y018352
X013589Y015494
X013589Y012954
X014859Y014224
X017716Y014859
X018986Y016129
X020256Y014859
X025654Y007239
X024384Y008509
X023114Y007239
X020256Y006922
X018986Y008192
X017716Y006922
X014859Y008826
X013589Y010096
X012319Y008826
T02
X007874Y025336
X021844Y010414
X023749Y011049
X024066Y013589
X021844Y012636
X016764Y012636
X016764Y010414
X015494Y006604
X010414Y006604
X006604Y006922
X006604Y009462
X006604Y012954
X006604Y015494
X006604Y018986
X006604Y021526
X011049Y021844
X012954Y025336
X016129Y021844
X017399Y018352
X024384Y021526
X026924Y020574
X032639Y015494
X032639Y012954
X028829Y011049
X029146Y013589
X026924Y015494
X024384Y016446
X022479Y018352
T03
X032639Y007874
X032639Y020892
X025019Y025654
X021209Y025654
X003429Y008192
X003429Y014224
X003429Y020256
T04
X032639Y003429
X032639Y025019
X003429Y025019
X003429Y003429
M30
