G04 Output by ViewMate Deluxe V11.0.9  PentaLogix LLC*
G04 Sun May 11 19:24:29 2014*
%FSLAX33Y33*%
%MOMM*%
%IPPOS*%
%ADD10C,1.3081*%
%ADD11R,1.8009X1.8009*%
%ADD12C,1.209*%
%ADD13C,0.4064*%

%LPD*%
X0Y0D2*D13*G1X33340Y16358D2*X34544Y16358D1*X34544Y15956D2*X33652Y15956D1*X33749Y15552D2*X34544Y15552D1*X34544Y15151D2*X33696Y15151D1*X33464Y14747D2*X34544Y14747D1*X32639Y15494D2*X32639Y14384D1*X32639Y15494*X25215Y20787D2*X25832Y20787D1*X25997Y21189D2*X25443Y21189D1*X31938Y16358D2*X27559Y16358D1*X27882Y15956D2*X31626Y15956D1*X31529Y15552D2*X27983Y15552D1*X31529Y15494D2*X31529Y15580D1*X31554Y15753*X31610Y15921*X31689Y16076*X31791Y16218*X31915Y16342*X32057Y16444*X32212Y16523*X32380Y16579*X32553Y16604*X32639Y16604*X32639Y15494*X31529Y15494*X27930Y15151D2*X31582Y15151D1*X31814Y14747D2*X27676Y14747D1*X31915Y14646D2*X31791Y14770D1*X31689Y14912*X31610Y15067*X31554Y15235*X31529Y15408*X31529Y15494*X32639Y15494*X33749Y15494*X32639Y15494*X32639Y16604*X32725Y16604*X32898Y16579*X33066Y16523*X33221Y16444*X33363Y16342*X33487Y16218*X33589Y16076*X33668Y15921*X33724Y15753*X33749Y15580*X33749Y15494*X33749Y15408*X33724Y15235*X33668Y15067*X33589Y14912*X33487Y14770*X33363Y14646*X33221Y14544*X33066Y14465*X32898Y14409*X32725Y14384*X32639Y14384*X32553Y14384*X32380Y14409*X32212Y14465*X32057Y14544*X31915Y14646*X31582Y12736D2*X29792Y12736D1*X30107Y13137D2*X31580Y13137D1*X31735Y13541D2*X30206Y13541D1*X30147Y13942D2*X32253Y13942D1*X34544Y14346D2*X29891Y14346D1*X33025Y13942D2*X34544Y13942D1*X34544Y13541D2*X33543Y13541D1*X33698Y13137D2*X34544Y13137D1*X34544Y12736D2*X33696Y12736D1*X33515Y12332D2*X34544Y12332D1*X34544Y11930D2*X32936Y11930D1*X33777Y9111D2*X34544Y9111D1*X34544Y8710D2*X33945Y8710D1*X33945Y8306D2*X34544Y8306D1*X34544Y7904D2*X33945Y7904D1*X33945Y7501D2*X34544Y7501D1*X34544Y7099D2*X33945Y7099D1*X33835Y6695D2*X34544Y6695D1*X34544Y5890D2*X34013Y5890D1*X26010Y6294D2*X34544Y6294D1*X18517Y6294D2*X19456Y6294D1*X19256Y6695D2*X18717Y6695D1*X18727Y7099D2*X19246Y7099D1*X20904Y13137D2*X17704Y13137D1*X17823Y12736D2*X20785Y12736D1*X20823Y12332D2*X17785Y12332D1*X17556Y11930D2*X21052Y11930D1*X1524Y5890D2*X2055Y5890D1*X5687Y6294D2*X1524Y6294D1*X6182Y5890D2*X4803Y5890D1*X6604Y6922D2*X6604Y5812D1*X6604Y6922*X5728Y12332D2*X1524Y12332D1*X12781Y12332D2*X7480Y12332D1*X7661Y12736D2*X12586Y12736D1*X12578Y13137D2*X7663Y13137D1*X7508Y13541D2*X12746Y13541D1*X13335Y13942D2*X6990Y13942D1*X13843Y13942D2*X13881Y13942D1*X4735Y14346D2*X13848Y14346D1*X2123Y15151D2*X1524Y15151D1*X1524Y14747D2*X2123Y14747D1*X2123Y14346D2*X1524Y14346D1*X1524Y13942D2*X2123Y13942D1*X2123Y13541D2*X1524Y13541D1*X1524Y13137D2*X2141Y13137D1*X5547Y12736D2*X1524Y12736D1*X5545Y13137D2*X4717Y13137D1*X4735Y13541D2*X5700Y13541D1*X6218Y13942D2*X4735Y13942D1*X4735Y14747D2*X5778Y14747D1*X4735Y15293D2*X4735Y13155D1*X4498Y12918*X2360Y12918*X2123Y13155*X2123Y15293*X2360Y15530*X4498Y15530*X4735Y15293*X5547Y15151D2*X4735Y15151D1*X1524Y15552D2*X5494Y15552D1*X5591Y15956D2*X1524Y15956D1*X1524Y16358D2*X5903Y16358D1*X2136Y19177D2*X1524Y19177D1*X1524Y19578D2*X2123Y19578D1*X2123Y19982D2*X1524Y19982D1*X1524Y20384D2*X2123Y20384D1*X2123Y20787D2*X1524Y20787D1*X1524Y21189D2*X2123Y21189D1*X1524Y22799D2*X1661Y22799D1*X2332Y22398D2*X1524Y22398D1*X1524Y21593D2*X5545Y21593D1*X5649Y21994D2*X1524Y21994D1*X10130Y22398D2*X7234Y22398D1*X7559Y21994D2*X9990Y21994D1*X10005Y21593D2*X7663Y21593D1*X7612Y21189D2*X10206Y21189D1*X10833Y20787D2*X7363Y20787D1*X15913Y20787D2*X11265Y20787D1*X16345Y20787D2*X17663Y20787D1*X17854Y21189D2*X16972Y21189D1*X21112Y25215D2*X21306Y25215D1*X21306Y24813D2*X21112Y24813D1*X21112Y24409D2*X21306Y24409D1*X16594Y22799D2*X19604Y22799D1*X19075Y22398D2*X17048Y22398D1*X17188Y21994D2*X18928Y21994D1*X18951Y21593D2*X17173Y21593D1*X20203Y20787D2*X19675Y20787D1*X19680Y20384D2*X20198Y20384D1*X20373Y19982D2*X19505Y19982D1*X25829Y20384D2*X22220Y20384D1*X22045Y19982D2*X25982Y19982D1*X18075Y19177D2*X21732Y19177D1*X21448Y18773D2*X18372Y18773D1*X21369Y18352D2*X22479Y18352D1*X22479Y17242*X22479Y18352*X22479Y19461*X22479Y18352*X21369Y18352*X18458Y18372D2*X21369Y18372D1*X21435Y17968D2*X18387Y17968D1*X18113Y17567D2*X21694Y17567D1*X15819Y17567D2*X16685Y17567D1*X16411Y17968D2*X16111Y17968D1*X16187Y18372D2*X16340Y18372D1*X16426Y18773D2*X16096Y18773D1*X16800Y19251D2*X17188Y19411D1*X17610Y19411*X17998Y19251*X18298Y18951*X18458Y18562*X18458Y18141*X18298Y17752*X17998Y17452*X17610Y17292*X17188Y17292*X16800Y17452*X16500Y17752*X16340Y18141*X16340Y18562*X16500Y18951*X16800Y19251*X15781Y19177D2*X16723Y19177D1*X13647Y18372D2*X14166Y18372D1*X14242Y17968D2*X13571Y17968D1*X13279Y17567D2*X14534Y17567D1*X7305Y16358D2*X13033Y16358D1*X12687Y15956D2*X7617Y15956D1*X7714Y15552D2*X12578Y15552D1*X12639Y15151D2*X7661Y15151D1*X7430Y14747D2*X12906Y14747D1*X6604Y15494D2*X6604Y14384D1*X6604Y15494*X6604Y16604D2*X6604Y15494D1*X5494Y15494*X6604Y15494*X7714Y15494*X7714Y15408*X7689Y15235*X7633Y15067*X7554Y14912*X7452Y14770*X7328Y14646*X7186Y14544*X7031Y14465*X6863Y14409*X6690Y14384*X6604Y14384*X6518Y14384*X6345Y14409*X6177Y14465*X6022Y14544*X5880Y14646*X5756Y14770*X5654Y14912*X5575Y15067*X5519Y15235*X5494Y15408*X5494Y15494*X5494Y15580*X5519Y15753*X5575Y15921*X5654Y16076*X5756Y16218*X5880Y16342*X6022Y16444*X6177Y16523*X6345Y16579*X6518Y16604*X6604Y16604*X6863Y16579D2*X7031Y16523D1*X7186Y16444*X7328Y16342*X7452Y16218*X7554Y16076*X7633Y15921*X7689Y15753*X7714Y15580*X7714Y15494*X6604Y15494*X6604Y16604*X6690Y16604*X6863Y16579*X11626Y18372D2*X7531Y18372D1*X7696Y18773D2*X11717Y18773D1*X12032Y19177D2*X7699Y19177D1*X7546Y19578D2*X12896Y19578D1*X6604Y17877D2*X6604Y18986D1*X6604Y17877*X11702Y17968D2*X7054Y17968D1*X1524Y17567D2*X11994Y17567D1*X6154Y17968D2*X1524Y17968D1*X1524Y18372D2*X5677Y18372D1*X5512Y18773D2*X1524Y18773D1*X5509Y19177D2*X4722Y19177D1*X4735Y19578D2*X5662Y19578D1*X6109Y19982D2*X4735Y19982D1*X6604Y20096D2*X6604Y18986D1*X5494Y18986*X6604Y18986*X7714Y18986*X7714Y18900*X7689Y18727*X7633Y18560*X7554Y18405*X7452Y18263*X7328Y18138*X7186Y18037*X7031Y17958*X6863Y17902*X6690Y17877*X6604Y17877*X6518Y17877*X6345Y17902*X6177Y17958*X6022Y18037*X5880Y18138*X5756Y18263*X5654Y18405*X5575Y18560*X5519Y18727*X5494Y18900*X5494Y18986*X5494Y19073*X5519Y19246*X5575Y19413*X5654Y19568*X5756Y19710*X5880Y19835*X6022Y19936*X6177Y20015*X6345Y20071*X6518Y20096*X6604Y20096*X7031Y20015D2*X7186Y19936D1*X7328Y19835*X7452Y19710*X7554Y19568*X7633Y19413*X7689Y19246*X7714Y19073*X7714Y18986*X6604Y18986*X6604Y20096*X6690Y20096*X6863Y20071*X7031Y20015*X12962Y19982D2*X7099Y19982D1*X4735Y20384D2*X13238Y20384D1*X5845Y20787D2*X4735Y20787D1*X4735Y21189D2*X5596Y21189D1*X4498Y21562D2*X4735Y21326D1*X4735Y19187*X4498Y18951*X2360Y18951*X2123Y19187*X2123Y21326*X2360Y21562*X4498Y21562*X5974Y22398D2*X4526Y22398D1*X6393Y22586D2*X6815Y22586D1*X7203Y22426*X7503Y22126*X7663Y21737*X7663Y21316*X7503Y20927*X7203Y20627*X6815Y20467*X6393Y20467*X6005Y20627*X5705Y20927*X5545Y21316*X5545Y21737*X5705Y22126*X6005Y22426*X6393Y22586*X6998Y26020D2*X6078Y26020D1*X6187Y25618D2*X6797Y25618D1*X6769Y25215D2*X6248Y25215D1*X6248Y24813D2*X6894Y24813D1*X7259Y24409D2*X6185Y24409D1*X7874Y25336D2*X6764Y25336D1*X7874Y25336*X7874Y24227*X7874Y25336*X12139Y26020D2*X8750Y26020D1*X8951Y25618D2*X11923Y25618D1*X11895Y25215D2*X8979Y25215D1*X8854Y24813D2*X12024Y24813D1*X12421Y24409D2*X8489Y24409D1*X20008Y24409D2*X13487Y24409D1*X13884Y24813D2*X19853Y24813D1*X19853Y25215D2*X14013Y25215D1*X5611Y26825D2*X19936Y26825D1*X7628Y26424D2*X5875Y26424D1*X7874Y26446D2*X7874Y25336D1*X7874Y26446*X8133Y26421D2*X8301Y26365D1*X8456Y26286*X8598Y26185*X8722Y26060*X8824Y25918*X8903Y25763*X8959Y25596*X8984Y25423*X8984Y25336*X7874Y25336*X8984Y25336*X8984Y25250*X8959Y25077*X8903Y24910*X8824Y24755*X8722Y24613*X8598Y24488*X8456Y24387*X8301Y24308*X8133Y24252*X7960Y24227*X7874Y24227*X7788Y24227*X7615Y24252*X7447Y24308*X7292Y24387*X7150Y24488*X7026Y24613*X6924Y24755*X6845Y24910*X6789Y25077*X6764Y25250*X6764Y25336*X6764Y25423*X6789Y25596*X6845Y25763*X6924Y25918*X7026Y26060*X7150Y26185*X7292Y26286*X7447Y26365*X7615Y26421*X7788Y26446*X7874Y26446*X7960Y26446*X8133Y26421*X19853Y26424D2*X8120Y26424D1*X13769Y26020D2*X19853Y26020D1*X14013Y25547D2*X14013Y25126D1*X13853Y24737*X13553Y24437*X13165Y24277*X12743Y24277*X12355Y24437*X12055Y24737*X11895Y25126*X11895Y25547*X12055Y25936*X12355Y26236*X12743Y26396*X13165Y26396*X13553Y26236*X13853Y25936*X14013Y25547*X21112Y25618D2*X13985Y25618D1*X23713Y25618D2*X21306Y25618D1*X22410Y24409D2*X23889Y24409D1*X23713Y24813D2*X22565Y24813D1*X22565Y25215D2*X23713Y25215D1*X23713Y26020D2*X22565Y26020D1*X22565Y26424D2*X23713Y26424D1*X23815Y26825D2*X22482Y26825D1*X30457Y26825D2*X26223Y26825D1*X26325Y26424D2*X30193Y26424D1*X29990Y26020D2*X26325Y26020D1*X26325Y25618D2*X29881Y25618D1*X29820Y25215D2*X26325Y25215D1*X26325Y24813D2*X29820Y24813D1*X29883Y24409D2*X26149Y24409D1*X6076Y24008D2*X29992Y24008D1*X30201Y23604D2*X5867Y23604D1*X34544Y22799D2*X34407Y22799D1*X33736Y22398D2*X34544Y22398D1*X34544Y21994D2*X33912Y21994D1*X33945Y21593D2*X34544Y21593D1*X34544Y21189D2*X33945Y21189D1*X33945Y20787D2*X34544Y20787D1*X34544Y20384D2*X33945Y20384D1*X33945Y19982D2*X34544Y19982D1*X27866Y19982D2*X31333Y19982D1*X31333Y20384D2*X28019Y20384D1*X28016Y20787D2*X31333Y20787D1*X31333Y21189D2*X27851Y21189D1*X27376Y21593D2*X31333Y21593D1*X25494Y21593D2*X26472Y21593D1*X31366Y21994D2*X25392Y21994D1*X31570Y22197D2*X33708Y22197D1*X33945Y21961*X33945Y19822*X33708Y19586*X31570Y19586*X31333Y19822*X31333Y21961*X31570Y22197*X25077Y22398D2*X31542Y22398D1*X24384Y20417D2*X24384Y21526D1*X24384Y20417*X22215Y20787D2*X23553Y20787D1*X23325Y21189D2*X22024Y21189D1*X20927Y21593D2*X23274Y21593D1*X23376Y21994D2*X20950Y21994D1*X23660Y22375D2*X23802Y22476D1*X23957Y22555*X24125Y22611*X24298Y22636*X24384Y22636*X24384Y21526*X23274Y21526*X24384Y21526*X25494Y21526*X24384Y21526*X24384Y22636*X24470Y22636*X24643Y22611*X24811Y22555*X24966Y22476*X25108Y22375*X25232Y22250*X25334Y22108*X25413Y21953*X25469Y21786*X25494Y21613*X25494Y21526*X25494Y21440*X25469Y21267*X25413Y21100*X25334Y20945*X25232Y20803*X25108Y20678*X24966Y20577*X24811Y20498*X24643Y20442*X24470Y20417*X24384Y20417*X24298Y20417*X24125Y20442*X23957Y20498*X23802Y20577*X23660Y20678*X23536Y20803*X23434Y20945*X23355Y21100*X23299Y21267*X23274Y21440*X23274Y21526*X23274Y21613*X23299Y21786*X23355Y21953*X23434Y22108*X23536Y22250*X23660Y22375*X20803Y22398D2*X23691Y22398D1*X30871Y22799D2*X20274Y22799D1*X5598Y23203D2*X30470Y23203D1*X10584Y22799D2*X5197Y22799D1*X15664Y22799D2*X11514Y22799D1*X11968Y22398D2*X15210Y22398D1*X15070Y21994D2*X12108Y21994D1*X15070Y21633D2*X15070Y22055D1*X15230Y22443*X15530Y22743*X15918Y22903*X16340Y22903*X16728Y22743*X17028Y22443*X17188Y22055*X17188Y21633*X17028Y21245*X16728Y20945*X16340Y20785*X15918Y20785*X15530Y20945*X15230Y21245*X15070Y21633*X12093Y21593D2*X15085Y21593D1*X11948Y21245D2*X12108Y21633D1*X12108Y22055*X11948Y22443*X11648Y22743*X11260Y22903*X10838Y22903*X10450Y22743*X10150Y22443*X9990Y22055*X9990Y21633*X10150Y21245*X10450Y20945*X10838Y20785*X11260Y20785*X11648Y20945*X11948Y21245*X15286Y21189D2*X11892Y21189D1*X17658Y20384D2*X14575Y20384D1*X14851Y19982D2*X17833Y19982D1*X14917Y19421D2*X14874Y19319D1*X14976Y19362*X15377Y19362*X15748Y19207*X16032Y18923*X16187Y18552*X16187Y18151*X16032Y17780*X15748Y17496*X15377Y17341*X14976Y17341*X14605Y17496*X14321Y17780*X14166Y18151*X14166Y18552*X14209Y18654*X14107Y18611*X13706Y18611*X13604Y18654*X13647Y18552*X13647Y18151*X13492Y17780*X13208Y17496*X12837Y17341*X12436Y17341*X12065Y17496*X11781Y17780*X11626Y18151*X11626Y18552*X11781Y18923*X12065Y19207*X12436Y19362*X12837Y19362*X12939Y19319*X12896Y19421*X12896Y19822*X13051Y20193*X13335Y20477*X13706Y20632*X14107Y20632*X14478Y20477*X14762Y20193*X14917Y19822*X14917Y19421*X18433Y19578D2*X14917Y19578D1*X20973Y19578D2*X18905Y19578D1*X21410Y19563D2*X21008Y19563D1*X20638Y19718*X20353Y20002*X20198Y20373*X20198Y20775*X20241Y20876*X20140Y20833*X19738Y20833*X19637Y20876*X19680Y20775*X19680Y20373*X19525Y20002*X19240Y19718*X18870Y19563*X18468Y19563*X18098Y19718*X17813Y20002*X17658Y20373*X17658Y20775*X17813Y21146*X18098Y21430*X18468Y21585*X18870Y21585*X18971Y21542*X18928Y21643*X18928Y22045*X19083Y22416*X19368Y22700*X19738Y22855*X20140Y22855*X20510Y22700*X20795Y22416*X20950Y22045*X20950Y21643*X20907Y21542*X21008Y21585*X21410Y21585*X21780Y21430*X22065Y21146*X22220Y20775*X22220Y20373*X22065Y20002*X21780Y19718*X21410Y19563*X26431Y19578D2*X21445Y19578D1*X26924Y19464D2*X26924Y20574D1*X25814Y20574*X25814Y20660*X25839Y20833*X25895Y21001*X25974Y21156*X26076Y21298*X26200Y21422*X26342Y21524*X26497Y21603*X26665Y21659*X26838Y21684*X26924Y21684*X26924Y20574*X26924Y19464*X27351Y19545D2*X27183Y19489D1*X27010Y19464*X26924Y19464*X26838Y19464*X26665Y19489*X26497Y19545*X26342Y19624*X26200Y19726*X26076Y19850*X25974Y19992*X25895Y20147*X25839Y20315*X25814Y20488*X25814Y20574*X26924Y20574*X28034Y20574*X26924Y20574*X26924Y21684*X27010Y21684*X27183Y21659*X27351Y21603*X27506Y21524*X27648Y21422*X27772Y21298*X27874Y21156*X27953Y21001*X28009Y20833*X28034Y20660*X28034Y20574*X28034Y20488*X28009Y20315*X27953Y20147*X27874Y19992*X27772Y19850*X27648Y19726*X27506Y19624*X27351Y19545*X34544Y19578D2*X27417Y19578D1*X23226Y19177D2*X34544Y19177D1*X34544Y18773D2*X23510Y18773D1*X23589Y18372D2*X34544Y18372D1*X34544Y17968D2*X23523Y17968D1*X23264Y17567D2*X34544Y17567D1*X23061Y17402D2*X22906Y17323D1*X22738Y17267*X22565Y17242*X22479Y17242*X22393Y17242*X22220Y17267*X22052Y17323*X21897Y17402*X21755Y17503*X21631Y17628*X21529Y17770*X21450Y17925*X21394Y18092*X21369Y18265*X21369Y18352*X21369Y18438*X21394Y18611*X21450Y18778*X21529Y18933*X21631Y19075*X21755Y19200*X21897Y19301*X22052Y19380*X22220Y19436*X22393Y19461*X22479Y19461*X22565Y19461*X22738Y19436*X22906Y19380*X23061Y19301*X23203Y19200*X23327Y19075*X23429Y18933*X23508Y18778*X23564Y18611*X23589Y18438*X23589Y18352*X22479Y18352*X23589Y18352*X23589Y18265*X23564Y18092*X23508Y17925*X23429Y17770*X23327Y17628*X23203Y17503*X23061Y17402*X19784Y16761D2*X23365Y16761D1*X23325Y16358D2*X19985Y16358D1*X21138Y14346D2*X23322Y14346D1*X26172Y14747D2*X21267Y14747D1*X21229Y15151D2*X25918Y15151D1*X23779Y15552D2*X20993Y15552D1*X19997Y15956D2*X23439Y15956D1*X18710Y15151D2*X18689Y15151D1*X19263Y15151D2*X19284Y15151D1*X18727Y14747D2*X19246Y14747D1*X19375Y14346D2*X18598Y14346D1*X18143Y13942D2*X19830Y13942D1*X15870Y14346D2*X16835Y14346D1*X16706Y14747D2*X15735Y14747D1*X15263Y15151D2*X16744Y15151D1*X16980Y15552D2*X14600Y15552D1*X14491Y15956D2*X17976Y15956D1*X17988Y16358D2*X14145Y16358D1*X1524Y16761D2*X18189Y16761D1*X23602Y17163D2*X1524Y17163D1*X34544Y17163D2*X25166Y17163D1*X25403Y16761D2*X34544Y16761D1*X25443Y16358D2*X26289Y16358D1*X25966Y15956D2*X25329Y15956D1*X25865Y15705D2*X26025Y16093D1*X26325Y16393*X26713Y16553*X27135Y16553*X27523Y16393*X27823Y16093*X27983Y15705*X27983Y15283*X27823Y14895*X27523Y14595*X27135Y14435*X26713Y14435*X26325Y14595*X26025Y14895*X25865Y15283*X25865Y15705*X24989Y15552D2*X25865Y15552D1*X24595Y15387D2*X24983Y15547D1*X25283Y15847*X25443Y16236*X25443Y16657*X25283Y17046*X24983Y17346*X24595Y17506*X24173Y17506*X23785Y17346*X23485Y17046*X23325Y16657*X23325Y16236*X23485Y15847*X23785Y15547*X24173Y15387*X24595Y15387*X28402Y14346D2*X24811Y14346D1*X25067Y13942D2*X28146Y13942D1*X28087Y13541D2*X25126Y13541D1*X25027Y13137D2*X28186Y13137D1*X28501Y12736D2*X24712Y12736D1*X28936Y12530D2*X28547Y12690D1*X28247Y12990*X28087Y13378*X28087Y13800*X28247Y14188*X28547Y14488*X28936Y14648*X29357Y14648*X29746Y14488*X30046Y14188*X30206Y13800*X30206Y13378*X30046Y12990*X29746Y12690*X29357Y12530*X28936Y12530*X24519Y10320D2*X27988Y10320D1*X27767Y10721D2*X24760Y10721D1*X27719Y11049D2*X28829Y11049D1*X28829Y9939*X28829Y11049*X28829Y12159*X28829Y11049*X27719Y11049*X24808Y11125D2*X27719Y11125D1*X27826Y11527D2*X24699Y11527D1*X24369Y11930D2*X28151Y11930D1*X31763Y12332D2*X22865Y12332D1*X32428Y11895D2*X32040Y12055D1*X31740Y12355*X31580Y12743*X31580Y13165*X31740Y13553*X32040Y13853*X32428Y14013*X32850Y14013*X33238Y13853*X33538Y13553*X33698Y13165*X33698Y12743*X33538Y12355*X33238Y12055*X32850Y11895*X32428Y11895*X29507Y11930D2*X32342Y11930D1*X34544Y11527D2*X29832Y11527D1*X29939Y11125D2*X34544Y11125D1*X34544Y10721D2*X29891Y10721D1*X29670Y10320D2*X34544Y10320D1*X29779Y10467D2*X29677Y10325D1*X29553Y10201*X29411Y10099*X29256Y10020*X29088Y9964*X28915Y9939*X28829Y9939*X28743Y9939*X28570Y9964*X28402Y10020*X28247Y10099*X28105Y10201*X27981Y10325*X27879Y10467*X27800Y10622*X27744Y10790*X27719Y10963*X27719Y11049*X27719Y11135*X27744Y11308*X27800Y11476*X27879Y11631*X27981Y11773*X28105Y11897*X28247Y11999*X28402Y12078*X28570Y12134*X28743Y12159*X28829Y12159*X28915Y12159*X29088Y12134*X29256Y12078*X29411Y11999*X29553Y11897*X29677Y11773*X29779Y11631*X29858Y11476*X29914Y11308*X29939Y11135*X29939Y11049*X28829Y11049*X29939Y11049*X29939Y10963*X29914Y10790*X29858Y10622*X29779Y10467*X25212Y9111D2*X31501Y9111D1*X31333Y8710D2*X25395Y8710D1*X31333Y6805D2*X31333Y8943D1*X31570Y9180*X33708Y9180*X33945Y8943*X33945Y6805*X33708Y6568*X31570Y6568*X31333Y6805*X26523Y6695D2*X31443Y6695D1*X31333Y7099D2*X26665Y7099D1*X26640Y7501D2*X31333Y7501D1*X31333Y7904D2*X26419Y7904D1*X25392Y8306D2*X31333Y8306D1*X24178Y7501D2*X24100Y7501D1*X24668Y7501D2*X24590Y7501D1*X24125Y7099D2*X24643Y7099D1*X24785Y6695D2*X23983Y6695D1*X23470Y6294D2*X25298Y6294D1*X21057Y6294D2*X22758Y6294D1*X22245Y6695D2*X21257Y6695D1*X21267Y7099D2*X22103Y7099D1*X22128Y7501D2*X21107Y7501D1*X20526Y7904D2*X22349Y7904D1*X19962Y7904D2*X19987Y7904D1*X23376Y8306D2*X19997Y8306D1*X19865Y8710D2*X23373Y8710D1*X23556Y9111D2*X19408Y9111D1*X22954Y10320D2*X22979Y10320D1*X34544Y9916D2*X22837Y9916D1*X24600Y9515D2*X34544Y9515D1*X24183Y9520D2*X24585Y9520D1*X24956Y9365*X25240Y9080*X25395Y8710*X25395Y8308*X25352Y8207*X25453Y8250*X25855Y8250*X26226Y8095*X26510Y7810*X26665Y7440*X26665Y7038*X26510Y6668*X26226Y6383*X25855Y6228*X25453Y6228*X25082Y6383*X24798Y6668*X24643Y7038*X24643Y7440*X24686Y7541*X24585Y7498*X24183Y7498*X24082Y7541*X24125Y7440*X24125Y7038*X23970Y6668*X23686Y6383*X23315Y6228*X22913Y6228*X22542Y6383*X22258Y6668*X22103Y7038*X22103Y7440*X22258Y7810*X22542Y8095*X22913Y8250*X23315Y8250*X23416Y8207*X23373Y8308*X23373Y8710*X23528Y9080*X23812Y9365*X24183Y9520*X22494Y9515D2*X24168Y9515D1*X17554Y11125D2*X20985Y11125D1*X20775Y10721D2*X17785Y10721D1*X20734Y10414D2*X21844Y10414D1*X21844Y9304*X21844Y10414*X21844Y11524*X21844Y10414*X20734Y10414*X17823Y10320D2*X20734Y10320D1*X20851Y9916D2*X17706Y9916D1*X17361Y9515D2*X21194Y9515D1*X13851Y9111D2*X13884Y9111D1*X13294Y9111D2*X13327Y9111D1*X13848Y8710D2*X13330Y8710D1*X13198Y8306D2*X13980Y8306D1*X14448Y7904D2*X12730Y7904D1*X11016Y7501D2*X14892Y7501D1*X14552Y7099D2*X11356Y7099D1*X11473Y6695D2*X14435Y6695D1*X14475Y6294D2*X11433Y6294D1*X11199Y5890D2*X14709Y5890D1*X7026Y5890D2*X9629Y5890D1*X9395Y6294D2*X7521Y6294D1*X7694Y6695D2*X9355Y6695D1*X9472Y7099D2*X7701Y7099D1*X9815Y7503D2*X10203Y7663D1*X10625Y7663*X11013Y7503*X11313Y7203*X11473Y6815*X11473Y6393*X11313Y6005*X11013Y5705*X10625Y5545*X10203Y5545*X9815Y5705*X9515Y6005*X9355Y6393*X9355Y6815*X9515Y7203*X9815Y7503*X7556Y7501D2*X9812Y7501D1*X4735Y8710D2*X5857Y8710D1*X5601Y9111D2*X4735Y9111D1*X1524Y10320D2*X5961Y10320D1*X5644Y9916D2*X1524Y9916D1*X1524Y9515D2*X5545Y9515D1*X2123Y9111D2*X1524Y9111D1*X1524Y8710D2*X2123Y8710D1*X2123Y8306D2*X1524Y8306D1*X1524Y7904D2*X2123Y7904D1*X2123Y7501D2*X1524Y7501D1*X1524Y7099D2*X2149Y7099D1*X5514Y6695D2*X1524Y6695D1*X4709Y7099D2*X5507Y7099D1*X4735Y7122D2*X4735Y9261D1*X4498Y9497*X2360Y9497*X2123Y9261*X2123Y7122*X2360Y6886*X4498Y6886*X4735Y7122*X5652Y7501D2*X4735Y7501D1*X4735Y7904D2*X6083Y7904D1*X11440Y8306D2*X4735Y8306D1*X7125Y7904D2*X11908Y7904D1*X6604Y8031D2*X6604Y6922D1*X5494Y6922*X6604Y6922*X7714Y6922*X7714Y6835*X7689Y6662*X7633Y6495*X7554Y6340*X7452Y6198*X7328Y6073*X7186Y5972*X7031Y5893*X6863Y5837*X6690Y5812*X6604Y5812*X6518Y5812*X6345Y5837*X6177Y5893*X6022Y5972*X5880Y6073*X5756Y6198*X5654Y6340*X5575Y6495*X5519Y6662*X5494Y6835*X5494Y6922*X5494Y7008*X5519Y7181*X5575Y7348*X5654Y7503*X5756Y7645*X5880Y7770*X6022Y7871*X6177Y7950*X6345Y8006*X6518Y8031*X6604Y8031*X6863Y8006D2*X7031Y7950D1*X7186Y7871*X7328Y7770*X7452Y7645*X7554Y7503*X7633Y7348*X7689Y7181*X7714Y7008*X7714Y6922*X6604Y6922*X6604Y8031*X6690Y8031*X6863Y8006*X11308Y8710D2*X7351Y8710D1*X7607Y9111D2*X11344Y9111D1*X11577Y9515D2*X7663Y9515D1*X7564Y9916D2*X12578Y9916D1*X7203Y10361D2*X6815Y10521D1*X6393Y10521*X6005Y10361*X5705Y10061*X5545Y9672*X5545Y9251*X5705Y8862*X6005Y8562*X6393Y8402*X6815Y8402*X7203Y8562*X7503Y8862*X7663Y9251*X7663Y9672*X7503Y10061*X7203Y10361*X12588Y10320D2*X7247Y10320D1*X1524Y10721D2*X12784Y10721D1*X15974Y11125D2*X1524Y11125D1*X6901Y11930D2*X15972Y11930D1*X6393Y11895D2*X6005Y12055D1*X5705Y12355*X5545Y12743*X5545Y13165*X5705Y13553*X6005Y13853*X6393Y14013*X6815Y14013*X7203Y13853*X7503Y13553*X7663Y13165*X7663Y12743*X7503Y12355*X7203Y12055*X6815Y11895*X6393Y11895*X1524Y11930D2*X6307Y11930D1*X22799Y11527D2*X1524Y11527D1*X23129Y11930D2*X22636Y11930D1*X23538Y12108D2*X23960Y12108D1*X24348Y11948*X24648Y11648*X24808Y11260*X24808Y10838*X24648Y10450*X24348Y10150*X23960Y9990*X23538Y9990*X23150Y10150*X22954Y10343*X22954Y10328*X22929Y10155*X22873Y9987*X22794Y9832*X22692Y9690*X22568Y9566*X22426Y9464*X22271Y9385*X22103Y9329*X21930Y9304*X21844Y9304*X21758Y9304*X21585Y9329*X21417Y9385*X21262Y9464*X21120Y9566*X20996Y9690*X20894Y9832*X20815Y9987*X20759Y10155*X20734Y10328*X20734Y10414*X20734Y10500*X20759Y10673*X20815Y10841*X20894Y10996*X20996Y11138*X21120Y11262*X21262Y11364*X21417Y11443*X21585Y11499*X21758Y11524*X21844Y11524*X21930Y11524*X22103Y11499*X22271Y11443*X22426Y11364*X22568Y11262*X22690Y11140*X22690Y11260*X22850Y11648*X23150Y11948*X23538Y12108*X22903Y12736D2*X23421Y12736D1*X22784Y13137D2*X23106Y13137D1*X23007Y13541D2*X22436Y13541D1*X23007Y13800D2*X23167Y14188D1*X23467Y14488*X23856Y14648*X24277Y14648*X24666Y14488*X24966Y14188*X25126Y13800*X25126Y13378*X24966Y12990*X24666Y12690*X24277Y12530*X23856Y12530*X23467Y12690*X23167Y12990*X23007Y13378*X23007Y13800*X20683Y13942D2*X23066Y13942D1*X21245Y13536D2*X21633Y13696D1*X22055Y13696*X22443Y13536*X22743Y13236*X22903Y12847*X22903Y12426*X22743Y12037*X22443Y11737*X22055Y11577*X21633Y11577*X21245Y11737*X20945Y12037*X20785Y12426*X20785Y12847*X20945Y13236*X21245Y13536*X17356Y13541D2*X21252Y13541D1*X17145Y14003D2*X16861Y14288D1*X16706Y14658*X16706Y15060*X16861Y15430*X17145Y15715*X17516Y15870*X17917Y15870*X18019Y15827*X17976Y15928*X17976Y16330*X18131Y16700*X18415Y16985*X18786Y17140*X19187Y17140*X19558Y16985*X19842Y16700*X19997Y16330*X19997Y15928*X19954Y15827*X20056Y15870*X20457Y15870*X20828Y15715*X21112Y15430*X21267Y15060*X21267Y14658*X21112Y14288*X20828Y14003*X20457Y13848*X20056Y13848*X19685Y14003*X19401Y14288*X19246Y14658*X19246Y15060*X19289Y15161*X19187Y15118*X18786Y15118*X18684Y15161*X18727Y15060*X18727Y14658*X18572Y14288*X18288Y14003*X17917Y13848*X17516Y13848*X17145Y14003*X15837Y13942D2*X17290Y13942D1*X15603Y13541D2*X16172Y13541D1*X14600Y13137D2*X15824Y13137D1*X15705Y12736D2*X14592Y12736D1*X15705Y12426D2*X15705Y12847D1*X15865Y13236*X16165Y13536*X16553Y13696*X16975Y13696*X17363Y13536*X17663Y13236*X17823Y12847*X17823Y12426*X17663Y12037*X17363Y11737*X16975Y11577*X16553Y11577*X16165Y11737*X15865Y12037*X15705Y12426*X14397Y12332D2*X15743Y12332D1*X13790Y11943D2*X14160Y12098D1*X14445Y12382*X14600Y12753*X14600Y13155*X14557Y13256*X14658Y13213*X15060Y13213*X15430Y13368*X15715Y13652*X15870Y14023*X15870Y14425*X15715Y14796*X15430Y15080*X15060Y15235*X14658Y15235*X14557Y15192*X14600Y15293*X14600Y15695*X14445Y16066*X14160Y16350*X13790Y16505*X13388Y16505*X13018Y16350*X12733Y16066*X12578Y15695*X12578Y15293*X12733Y14922*X13018Y14638*X13388Y14483*X13790Y14483*X13891Y14526*X13848Y14425*X13848Y14023*X13891Y13922*X13790Y13965*X13388Y13965*X13018Y13810*X12733Y13526*X12578Y13155*X12578Y12753*X12733Y12382*X13018Y12098*X13388Y11943*X13790Y11943*X15743Y10721D2*X14394Y10721D1*X14590Y10320D2*X15705Y10320D1*X15822Y9916D2*X14600Y9916D1*X16165Y9515D2*X15865Y9815D1*X15705Y10203*X15705Y10625*X15865Y11013*X16165Y11313*X16553Y11473*X16975Y11473*X17363Y11313*X17663Y11013*X17823Y10625*X17823Y10203*X17663Y9815*X17363Y9515*X16975Y9355*X16553Y9355*X16165Y9515*X15601Y9515D2*X16167Y9515D1*X18565Y9111D2*X15834Y9111D1*X15870Y8710D2*X18108Y8710D1*X17976Y8306D2*X15738Y8306D1*X17986Y7904D2*X18011Y7904D1*X15270Y7904D2*X17447Y7904D1*X15430Y7971D2*X15060Y7816D1*X14658Y7816*X14288Y7971*X14003Y8255*X13848Y8626*X13848Y9027*X13891Y9129*X13790Y9086*X13388Y9086*X13287Y9129*X13330Y9027*X13330Y8626*X13175Y8255*X12890Y7971*X12520Y7816*X12118Y7816*X11748Y7971*X11463Y8255*X11308Y8626*X11308Y9027*X11463Y9398*X11748Y9682*X12118Y9837*X12520Y9837*X12621Y9794*X12578Y9896*X12578Y10297*X12733Y10668*X13018Y10952*X13388Y11107*X13790Y11107*X14160Y10952*X14445Y10668*X14600Y10297*X14600Y9896*X14557Y9794*X14658Y9837*X15060Y9837*X15430Y9682*X15715Y9398*X15870Y9027*X15870Y8626*X15715Y8255*X15430Y7971*X16866Y7501D2*X16096Y7501D1*X16436Y7099D2*X16706Y7099D1*X16716Y6695D2*X16553Y6695D1*X16861Y6350D2*X16706Y6721D1*X16706Y7122*X16861Y7493*X17145Y7777*X17516Y7932*X17917Y7932*X18019Y7889*X17976Y7991*X17976Y8392*X18131Y8763*X18415Y9047*X18786Y9202*X19187Y9202*X19558Y9047*X19842Y8763*X19997Y8392*X19997Y7991*X19954Y7889*X20056Y7932*X20457Y7932*X20828Y7777*X21112Y7493*X21267Y7122*X21267Y6721*X21112Y6350*X20828Y6066*X20457Y5911*X20056Y5911*X19685Y6066*X19401Y6350*X19246Y6721*X19246Y7122*X19289Y7224*X19187Y7181*X18786Y7181*X18684Y7224*X18727Y7122*X18727Y6721*X18572Y6350*X18288Y6066*X17917Y5911*X17516Y5911*X17145Y6066*X16861Y6350*X16513Y6294D2*X16916Y6294D1*X16393Y6005D2*X16093Y5705D1*X15705Y5545*X15283Y5545*X14895Y5705*X14595Y6005*X14435Y6393*X14435Y6815*X14595Y7203*X14895Y7503*X15283Y7663*X15705Y7663*X16093Y7503*X16393Y7203*X16553Y6815*X16553Y6393*X16393Y6005*X31265Y5890D2*X16279Y5890D1*X5357Y5489D2*X30711Y5489D1*X30340Y5085D2*X5728Y5085D1*X5961Y4684D2*X30107Y4684D1*X6055Y4516D2*X5685Y5161D1*X5161Y5685*X4516Y6055*X3800Y6248*X3058Y6248*X2342Y6055*X1697Y5685*X1524Y5512*X1524Y22936*X1697Y22763*X2342Y22393*X3058Y22200*X3800Y22200*X4516Y22393*X5161Y22763*X5685Y23287*X6055Y23932*X6248Y24648*X6248Y25390*X6055Y26106*X5685Y26751*X5512Y26924*X20036Y26924*X20028Y26919*X19944Y26835*X19883Y26731*X19853Y26614*X19853Y25751*X21112Y25751*X21112Y25557*X21112Y24298*X20249Y24298*X20132Y24328*X20028Y24389*X19944Y24473*X19883Y24577*X19853Y24694*X19853Y25557*X21112Y25557*X21306Y25557*X21306Y24298*X22169Y24298*X22286Y24328*X22390Y24389*X22474Y24473*X22535Y24577*X22565Y24694*X22565Y25557*X21306Y25557*X21306Y25751*X22565Y25751*X22565Y26614*X22535Y26731*X22474Y26835*X22390Y26919*X22382Y26924*X23914Y26924*X23713Y26723*X23713Y24585*X23950Y24348*X26088Y24348*X26325Y24585*X26325Y26723*X26124Y26924*X30556Y26924*X30383Y26751*X30013Y26106*X29820Y25390*X29820Y24648*X30013Y23932*X30383Y23287*X30907Y22763*X31552Y22393*X32268Y22200*X33010Y22200*X33726Y22393*X34371Y22763*X34544Y22936*X34544Y5512*X34371Y5685*X33726Y6055*X33010Y6248*X32268Y6248*X31552Y6055*X30907Y5685*X30383Y5161*X30013Y4516*X29975Y4382*X6093Y4382*X6055Y4516*D10*X7874Y25336D3*X6604Y12954D3*X6604Y15494D3*X6604Y18986D3*X6604Y21526D3*X11049Y21844D3*X12954Y25336D3*X16129Y21844D3*X17399Y18352D3*X21844Y10414D3*X23749Y11049D3*X28829Y11049D3*X29146Y13589D3*X32639Y12954D3*X32639Y15494D3*X26924Y20574D3*X24384Y21526D3*X22479Y18352D3*X24384Y16446D3*X26924Y15494D3*X24066Y13589D3*X21844Y12636D3*X16764Y12636D3*X16764Y10414D3*X15494Y6604D3*X10414Y6604D3*X6604Y9462D3*X6604Y6922D3*D11*X32639Y7874D3*X32639Y20892D3*X25019Y25654D3*X21209Y25654D3*X3429Y8192D3*X3429Y14224D3*X3429Y20256D3*D12*X20256Y14859D3*X17716Y14859D3*X18986Y16129D3*X21209Y20574D3*X19939Y21844D3*X18669Y20574D3*X15176Y18352D3*X13906Y19622D3*X12636Y18352D3*X13589Y15494D3*X14859Y14224D3*X13589Y12954D3*X12319Y8826D3*X13589Y10096D3*X14859Y8826D3*X17716Y6922D3*X18986Y8192D3*X20256Y6922D3*X23114Y7239D3*X24384Y8509D3*X25654Y7239D3*D13*X32639Y14747D3*X32639Y15151D3*X32639Y15494D3*X32639Y15552D3*X32639Y15956D3*X32639Y16358D3*X26924Y21189D3*X26924Y20787D3*X26924Y20384D3*X26924Y19982D3*X32639Y15494D3*X32639Y15494D3*X32639Y15494D3*X6604Y5890D3*X6604Y6294D3*X6604Y6695D3*X6604Y6922D3*X6604Y7099D3*X22479Y17567D3*X22479Y17968D3*X22479Y18372D3*X22479Y18773D3*X22479Y19177D3*X22479Y18352D3*X22479Y18352D3*X22479Y18352D3*X22479Y18352D3*X6604Y14747D3*X6604Y15151D3*X6604Y15494D3*X6604Y15552D3*X6604Y15956D3*X6604Y16358D3*X6604Y15494D3*X6604Y15494D3*X6604Y15494D3*X6604Y19578D3*X6604Y19177D3*X6604Y18773D3*X6604Y18372D3*X6604Y18986D3*X6604Y17968D3*X6604Y18986D3*X6604Y18986D3*X6604Y19982D3*X6604Y18986D3*X7874Y24409D3*X7874Y24813D3*X7874Y25215D3*X7874Y25336D3*X7874Y25336D3*X7874Y25618D3*X7874Y26020D3*X7874Y25336D3*X7874Y25336D3*X7874Y26424D3*X26924Y21593D3*X24384Y22398D3*X24384Y21994D3*X24384Y21593D3*X24384Y21189D3*X24384Y21526D3*X24384Y20787D3*X24384Y21526D3*X24384Y21526D3*X24384Y21526D3*X26924Y20574D3*X26924Y19578D3*X26924Y20574D3*X26924Y20574D3*X26924Y20574D3*X28829Y11930D3*X28829Y11527D3*X28829Y11125D3*X28829Y10721D3*X28829Y10320D3*X28829Y11049D3*X28829Y11049D3*X28829Y11049D3*X28829Y11049D3*X21844Y9515D3*X21844Y9916D3*X21844Y10320D3*X21844Y10721D3*X21844Y11125D3*X21844Y10414D3*X21844Y10414D3*X21844Y10414D3*X6604Y7501D3*X6604Y7904D3*X6604Y6922D3*X6604Y6922D3*X6604Y6922D3*X0Y0D2*M02*