G04 Output by ViewMate Deluxe V11.0.9  PentaLogix LLC*
G04 Sun May 11 19:24:29 2014*
%FSLAX33Y33*%
%MOMM*%
%IPPOS*%
%ADD15C,0.0762*%
%ADD16C,0.127*%
%ADD105C,0.254*%
%ADD106C,0.4064*%
%ADD107C,0.1524*%
%ADD108C,0.1016*%
%ADD109C,1.016*%

%LPD*%
X0Y0D2*D15*G1X13462Y6982D2*X13462Y7137D1*X12835Y7137*X12527Y6668D2*X11900Y6668D1*X12370Y7137*X12370Y6198*X12835Y6198D2*X12835Y6355D1*X13462Y6982*X13772Y6355D2*X13772Y6982D1*X13927Y7137*X14399Y6982D2*X14399Y6355D1*X14242Y6198*X13927Y6198*X13772Y6355*X14399Y6982*X14242Y7137*X13927Y7137*X14097Y22222D2*X14097Y22377D1*X13470Y22377*X13162Y21908D2*X12535Y21908D1*X13005Y22377*X13005Y21438*X13470Y21438D2*X13470Y21595D1*X14097Y22222*X14407Y21595D2*X14407Y22222D1*X14562Y22377*X14877Y22377*X15034Y22222*X15034Y21595D2*X15034Y22222D1*X14407Y21595*X14562Y21438*X14877Y21438*X15034Y21595*X18263Y18445D2*X18575Y18758D1*X18575Y17818*X18890Y17818D2*X18263Y17818D1*X19197Y17976D2*X19197Y18603D1*X19355Y18758*X19667Y18758*X19825Y18603*X19825Y17976*X19667Y17818*X19355Y17818*X19197Y17976*X19825Y18603*X20135Y17818D2*X20135Y18758D1*X20290Y18288D2*X20762Y17818D1*X20762Y18758D2*X20135Y18131D1*X24448Y19337D2*X24917Y19809D1*X24605Y19182D2*X23978Y19809D1*X24290Y17310D2*X23978Y17623D1*X24917Y17623*X24917Y17937D2*X24917Y17310D1*X24760Y18245D2*X24133Y18245D1*X23978Y18402*X23978Y18715*X24133Y18872*X24917Y19182D2*X23978Y19182D1*X24917Y18715D2*X24760Y18872D1*X24133Y18872*X24760Y18245*X24917Y18402*X24917Y18715*X26988Y18385D2*X27457Y18857D1*X27145Y18230D2*X26518Y18857D1*X26518Y18230D2*X27457Y18230D1*X26673Y17920D2*X26518Y17762D1*X26518Y17450*X26673Y17292*X27300Y17292*X27457Y17450*X27457Y17762*X27300Y17920*X26673Y17920*X27300Y17292*X27457Y16358D2*X27457Y16985D1*X27457Y16670D2*X26518Y16670D1*X26830Y16358*X26492Y13840D2*X26492Y13995D1*X25865Y13995*X25557Y13526D2*X24930Y13526D1*X25400Y13995*X25400Y13056*X25865Y13056D2*X25865Y13213D1*X26492Y13840*X27429Y13840D2*X27272Y13995D1*X26957Y13995*X26802Y13840*X26802Y13213*X26957Y13056D2*X27272Y13056D1*X27429Y13213*X27429Y13840*X26802Y13213*X26957Y13056*X26640Y10986D2*X27112Y10516D1*X26485Y10828D2*X27112Y11455D1*X26485Y11455D2*X26485Y10516D1*X26175Y11300D2*X26017Y11455D1*X25705Y11455*X25547Y11300*X25547Y10673*X25705Y10516*X26017Y10516*X26175Y10673*X26175Y11300*X25547Y10673*X24613Y10516D2*X25240Y10516D1*X24925Y10516D2*X24925Y11455D1*X24613Y11143*X20749Y13015D2*X20592Y13170D1*X20277Y13170*X20122Y13015*X20122Y12388D2*X20277Y12230D1*X20592Y12230*X20749Y12388*X20749Y13015*X20122Y12388*X20122Y13015*X19185Y13170D2*X19812Y13170D1*X19812Y13015*X19185Y12388*X19185Y12230*X18877Y12700D2*X18250Y12700D1*X18720Y13170*X18720Y12230*X17628Y10508D2*X17940Y10820D1*X17940Y9881*X18255Y9881D2*X17628Y9881D1*X19190Y10665D2*X19032Y10820D1*X18720Y10820*X18562Y10665*X18562Y10038*X19190Y10038D2*X19190Y10665D1*X18562Y10038*X18720Y9881*X19032Y9881*X19190Y10038*X19500Y10820D2*X19500Y9881D1*X19500Y10193D2*X20127Y10820D1*X20127Y9881D2*X19655Y10350D1*D16*X17399Y20828D2*X17435Y20983D1*X17480Y21133*X17534Y21283*X17597Y21427*X17668Y21567*X17750Y21704*X17838Y21836*X17935Y21961*X18037Y22080*X18148Y22192*X18265Y22299*X18390Y22398*X18519Y22487*X18654Y22570*X18793Y22644*X18938Y22710*X19086Y22766*X19235Y22814*X19390Y22852*X19545Y22880*X19703Y22901*X19860Y22911*X20018Y22911*X20175Y22901*X20333Y22880*X20488Y22852*X20643Y22814*X20792Y22766*X20940Y22710*X21085Y22644*X21224Y22570*X21359Y22487*X21488Y22398*X21613Y22299*X21730Y22192*X21841Y22080*X21943Y21961*X22040Y21836*X22128Y21704*X22210Y21567*X22281Y21427*X22344Y21283*X22398Y21133*X22443Y20983*X22479Y20828*X22479Y19304*X17399Y19304*X17399Y20828*X16446Y7176D2*X16482Y7330D1*X16528Y7480*X16581Y7630*X16645Y7775*X16716Y7915*X16797Y8052*X16886Y8184*X16982Y8308*X17084Y8428*X17196Y8539*X17313Y8646*X17437Y8745*X17567Y8834*X17701Y8918*X17841Y8992*X17986Y9058*X18133Y9114*X18283Y9162*X18438Y9200*X18593Y9228*X18750Y9248*X18908Y9258*X19065Y9258*X19223Y9248*X19380Y9228*X19535Y9200*X19690Y9162*X19840Y9114*X19987Y9058*X20132Y8992*X20272Y8918*X20406Y8834*X20536Y8745*X20660Y8646*X20777Y8539*X20889Y8428*X20991Y8308*X21087Y8184*X21176Y8052*X21257Y7915*X21328Y7775*X21392Y7630*X21445Y7480*X21491Y7330*X21526Y7176*X21844Y7493D2*X21880Y7648D1*X21925Y7798*X21979Y7948*X22042Y8092*X22113Y8232*X22195Y8369*X22283Y8501*X22380Y8626*X22482Y8745*X22593Y8857*X22710Y8964*X22835Y9063*X22964Y9152*X23099Y9235*X23238Y9309*X23383Y9375*X23531Y9431*X23680Y9479*X23835Y9517*X23990Y9545*X24148Y9566*X24305Y9576*X24463Y9576*X24620Y9566*X24778Y9545*X24933Y9517*X25088Y9479*X25237Y9431*X25385Y9375*X25530Y9309*X25669Y9235*X25804Y9152*X25933Y9063*X26058Y8964*X26175Y8857*X26286Y8745*X26388Y8626*X26485Y8501*X26573Y8369*X26655Y8232*X26726Y8092*X26789Y7948*X26843Y7798*X26888Y7648*X26924Y7493*X26924Y5969*X21844Y5969*X21844Y7493*X21526Y7176D2*X21526Y5652D1*X16446Y5652*X16446Y7176*X13843Y11684D2*X13998Y11720D1*X14148Y11765*X14298Y11819*X14442Y11882*X14582Y11953*X14719Y12035*X14851Y12123*X14976Y12220*X15095Y12322*X15207Y12433*X15314Y12550*X15413Y12675*X15502Y12804*X15585Y12939*X15659Y13078*X15725Y13223*X15781Y13371*X15829Y13520*X15867Y13675*X15895Y13830*X15916Y13988*X15926Y14145*X15926Y14303*X15916Y14460*X15895Y14618*X15867Y14773*X15829Y14928*X15781Y15077*X15725Y15225*X15659Y15370*X15585Y15509*X15502Y15644*X15413Y15773*X15314Y15898*X15207Y16015*X15095Y16126*X14976Y16228*X14851Y16325*X14719Y16413*X14582Y16495*X14442Y16566*X14298Y16629*X14148Y16683*X13998Y16728*X13843Y16764*X16446Y15113D2*X16482Y15268D1*X16528Y15418*X16581Y15568*X16645Y15712*X16716Y15852*X16797Y15989*X16886Y16121*X16982Y16246*X17084Y16365*X17196Y16477*X17313Y16584*X17437Y16683*X17567Y16772*X17701Y16855*X17841Y16929*X17986Y16995*X18133Y17051*X18283Y17099*X18438Y17137*X18593Y17165*X18750Y17186*X18908Y17196*X19065Y17196*X19223Y17186*X19380Y17165*X19535Y17137*X19690Y17099*X19840Y17051*X19987Y16995*X20132Y16929*X20272Y16855*X20406Y16772*X20536Y16683*X20660Y16584*X20777Y16477*X20889Y16365*X20991Y16246*X21087Y16121*X21176Y15989*X21257Y15852*X21328Y15712*X21392Y15568*X21445Y15418*X21491Y15268*X21526Y15113*X21526Y13589*X16446Y13589*X16446Y15113*X11366Y18606D2*X11366Y17082D1*X16446Y17082*X16446Y18606*X16411Y18760*X16365Y18910*X16312Y19060*X16248Y19205*X16177Y19345*X16096Y19482*X16007Y19614*X15911Y19738*X15809Y19858*X15697Y19969*X15580Y20076*X15456Y20175*X15326Y20264*X15192Y20348*X15052Y20422*X14907Y20488*X14760Y20544*X14610Y20592*X14455Y20630*X14300Y20658*X14143Y20678*X13985Y20688*X13828Y20688*X13670Y20678*X13513Y20658*X13358Y20630*X13203Y20592*X13053Y20544*X12906Y20488*X12761Y20422*X12621Y20348*X12487Y20264*X12357Y20175*X12233Y20076*X12116Y19969*X12004Y19858*X11902Y19738*X11806Y19614*X11717Y19482*X11636Y19345*X11565Y19205*X11501Y19060*X11448Y18910*X11402Y18760*X11366Y18606*X13843Y16764D2*X12319Y16764D1*X12319Y11684*X13843Y11684*X11049Y9080D2*X11049Y7556D1*X16129Y7556*X16129Y9080*X16093Y9235*X16048Y9385*X15994Y9535*X15931Y9680*X15860Y9820*X15778Y9957*X15690Y10089*X15593Y10213*X15491Y10333*X15380Y10444*X15263Y10551*X15138Y10650*X15009Y10739*X14874Y10823*X14735Y10897*X14590Y10963*X14442Y11019*X14293Y11067*X14138Y11105*X13983Y11133*X13825Y11153*X13668Y11163*X13510Y11163*X13353Y11153*X13195Y11133*X13040Y11105*X12885Y11067*X12736Y11019*X12588Y10963*X12443Y10897*X12304Y10823*X12169Y10739*X12040Y10650*X11915Y10551*X11798Y10444*X11687Y10333*X11585Y10213*X11488Y10089*X11400Y9957*X11318Y9820*X11247Y9680*X11184Y9535*X11130Y9385*X11085Y9235*X11049Y9080*D105*X33655Y15812D2*X33655Y16954D1*X33084Y16383D2*X34226Y16383D1*X5588Y18669D2*X5588Y17526D1*X6160Y18098D2*X5016Y18098D1*X7048Y16383D2*X8192Y16383D1*X7620Y15812D2*X7620Y16954D1*X13315Y1651D2*X13315Y3940D1*X14077Y2413D2*X14839Y1651D1*X13315Y2413D2*X14458Y2413D1*X14839Y2794*X14839Y3559*X14458Y3940*X13315Y3940*X10975Y3559D2*X11356Y3940D1*X12118Y3940*X12499Y3559*X12499Y2032*X12118Y1651*X11356Y1651*X10975Y2032*X10975Y3559*X9398Y2794D2*X9779Y2794D1*X8636Y2032D2*X9017Y1651D1*X9779Y1651*X10163Y2032*X10163Y2413*X9779Y2794*X10163Y3178*X10163Y3559*X9779Y3940*X9017Y3940*X8636Y3559*X6160Y6032D2*X5016Y6032D1*X5588Y5461D2*X5588Y6604D1*D106*X33909Y10414D2*X31369Y10414D1*X31369Y18034D2*X33909Y18034D1*X32639Y16764D2*X32639Y19304D1*D107*X27767Y26134D2*X27496Y26406D1*X26954Y26406*X26683Y26134*X26683Y25049*X27767Y25049D2*X27767Y26134D1*X26683Y25049*X26954Y24778*X27496Y24778*X27767Y25049*X28862Y24778D2*X28321Y25321D1*X28321Y26406*X29406Y26406D2*X29406Y25321D1*X28862Y24778*X31115Y14224D2*X31120Y14110D1*X31133Y13993*X31153Y13881*X31184Y13769*X31224Y13660*X31270Y13553*X31326Y13452*X31387Y13355*X31455Y13264*X31532Y13175*X31615Y13096*X31704Y13020*X34163Y14224D2*X34158Y14105D1*X34143Y13983*X34120Y13866*X34087Y13749*X34046Y13637*X33993Y13526*X33934Y13421*X33868Y13322*X33792Y13228*X33708Y13139*X33619Y13058*X33525Y12984*X31115Y14224D2*X31120Y14338D1*X31133Y14455*X31153Y14567*X31184Y14679*X31224Y14788*X31270Y14895*X31326Y14996*X31387Y15093*X31455Y15184*X31532Y15273*X31615Y15352*X31704Y15428*X34163Y14224D2*X34158Y14341D1*X34145Y14458*X34122Y14575*X34092Y14689*X34051Y14798*X34003Y14905*X33945Y15009*X33881Y15108*X33810Y15199*X33731Y15288*X33645Y15370*X33553Y15443*X17462Y13526D2*X21146Y13526D1*X21146Y11748D2*X17462Y11748D1*X17462Y11303D2*X21146Y11303D1*X21146Y9525D2*X17462Y9525D1*X19568Y1600D2*X20112Y2144D1*X20112Y2685*X19568Y3228*X17384Y3228D2*X16840Y2685D1*X17932Y2685D2*X18473Y3228D1*X18473Y1600*X17932Y1600D2*X19017Y1600D1*X17384Y1600D2*X16840Y2144D1*X16840Y2685*X14796Y5715D2*X11112Y5715D1*X11112Y7493D2*X14796Y7493D1*X7539Y9395D2*X7628Y9319D1*X7711Y9241*X7788Y9152*X7856Y9060*X7917Y8964*X7973Y8862*X8019Y8755*X8059Y8646*X8090Y8534*X8110Y8423*X8123Y8306*X8128Y8192*X5690Y6972D2*X5598Y7046D1*X5512Y7127*X5433Y7216*X5362Y7308*X5298Y7407*X5240Y7511*X5192Y7617*X5151Y7727*X5121Y7841*X5098Y7958*X5085Y8075*X5080Y8192*X5718Y9431D2*X5624Y9357D1*X5535Y9276*X5451Y9187*X5375Y9093*X5309Y8994*X5250Y8890*X5197Y8778*X5156Y8666*X5123Y8550*X5100Y8433*X5085Y8311*X5080Y8192*X7539Y6988D2*X7628Y7064D1*X7711Y7142*X7788Y7231*X7856Y7323*X7917Y7419*X7973Y7521*X8019Y7628*X8059Y7737*X8090Y7849*X8110Y7960*X8123Y8077*X8128Y8192*X7518Y15443D2*X7610Y15370D1*X7696Y15288*X7775Y15199*X7846Y15108*X7910Y15009*X7968Y14905*X8016Y14798*X8057Y14689*X8087Y14575*X8110Y14458*X8123Y14341*X8128Y14224*X5669Y13020D2*X5580Y13096D1*X5497Y13175*X5420Y13264*X5352Y13355*X5291Y13452*X5235Y13553*X5189Y13660*X5149Y13769*X5118Y13881*X5098Y13993*X5085Y14110*X5080Y14224*X5669Y15428D2*X5580Y15352D1*X5497Y15273*X5420Y15184*X5352Y15093*X5291Y14996*X5235Y14895*X5189Y14788*X5149Y14679*X5118Y14567*X5098Y14455*X5085Y14338*X5080Y14224*X7490Y12984D2*X7584Y13058D1*X7673Y13139*X7757Y13228*X7833Y13322*X7899Y13421*X7958Y13526*X8011Y13637*X8052Y13749*X8085Y13866*X8108Y13983*X8123Y14105*X8128Y14224*X7539Y21460D2*X7628Y21384D1*X7711Y21306*X7788Y21217*X7856Y21125*X7917Y21029*X7973Y20927*X8019Y20820*X8059Y20711*X8090Y20599*X8110Y20488*X8123Y20371*X8128Y20256*X5690Y19037D2*X5598Y19111D1*X5512Y19192*X5433Y19281*X5362Y19373*X5298Y19472*X5240Y19576*X5192Y19682*X5151Y19792*X5121Y19906*X5098Y20023*X5085Y20140*X5080Y20256*X5718Y21496D2*X5624Y21422D1*X5535Y21341*X5451Y21252*X5375Y21158*X5309Y21059*X5250Y20955*X5197Y20843*X5156Y20731*X5123Y20615*X5100Y20498*X5085Y20376*X5080Y20256*X7539Y19053D2*X7628Y19129D1*X7711Y19207*X7788Y19296*X7856Y19388*X7917Y19484*X7973Y19586*X8019Y19693*X8059Y19802*X8090Y19914*X8110Y20025*X8123Y20142*X8128Y20256*X16114Y26134D2*X16114Y25049D1*X19929Y26406D2*X19929Y25321D1*X19388Y24778*X18844Y25321*X18844Y26406*X18293Y26406D2*X17208Y26406D1*X17208Y25590*X17208Y25049D2*X17478Y24778D1*X18021Y24778*X18293Y25049*X18293Y25590*X18021Y25862*X17750Y25862*X17208Y25590*X15570Y25590D2*X16655Y25590D1*X7493Y26480D2*X13335Y26480D1*X13335Y24194D2*X7493Y24194D1*X11748Y22733D2*X15430Y22733D1*X15430Y20955D2*X11748Y20955D1*X18098Y19240D2*X21780Y19240D1*X21780Y17462D2*X18098Y17462D1*X23495Y20828D2*X23495Y17145D1*X25273Y17145D2*X25273Y20828D1*X26035Y19876D2*X26035Y16192D1*X27813Y16192D2*X27813Y19876D1*X24765Y14478D2*X28448Y14478D1*X28448Y12700D2*X24765Y12700D1*X24448Y11938D2*X28130Y11938D1*X28130Y10160D2*X24448Y10160D1*D108*X25336Y3556D2*X25641Y3556D1*X22530Y1575D2*X22530Y2489D1*X24402Y2489D2*X24402Y1575D1*X23465Y2032D2*X23769Y2032D1*X24077Y2489D2*X23465Y2489D1*X23465Y3556D2*X24077Y3556D1*X23465Y3099D2*X23465Y3708D1*X23769Y4013*X24077Y3708*X24077Y3099*X24402Y3099D2*X24402Y4013D1*X24707Y3708*X25011Y4013*X25011Y3099*X25336Y3099D2*X25336Y4013D1*X25946Y4013*X26881Y3861D2*X26728Y4013D1*X26424Y4013*X26271Y3861*X26271Y3708*X26424Y3556*X26728Y3556*X26881Y3404*X26881Y3251*X26728Y3099*X26424Y3099*X26271Y3251*X25336Y3099D2*X25946Y3099D1*X25336Y1575D2*X25336Y2489D1*X26881Y2032D2*X26271Y2032D1*X27818Y2489D2*X27818Y1575D1*X27208Y2489*X27208Y1575*X26881Y1575D2*X26881Y2184D1*X26576Y2489*X26271Y2184*X26271Y1575*X25946Y1575D2*X25946Y2489D1*X25641Y2184*X25336Y2489*X25011Y2489D2*X25011Y1575D1*X24707Y1880*X24402Y1575*X24077Y1575D2*X23465Y1575D1*X23465Y2489*X23139Y2489D2*X23139Y1575D1*X22530Y2489*X22530Y3251D2*X22682Y3099D1*X22835Y3099*X22987Y3251*X22987Y4013*X22835Y4013D2*X23139Y4013D1*X8687Y25552D2*X8992Y25857D1*X8992Y24943*X9296Y24943D2*X8687Y24943D1*X9622Y25095D2*X9622Y25705D1*X9774Y25857*X10079Y25857*X10234Y25705*X9622Y25095*X9774Y24943*X10079Y24943*X10234Y25095*X10234Y25705*X11168Y25705D2*X11016Y25857D1*X10711Y25857*X10559Y25705*X10559Y25095*X11168Y25095D2*X11168Y25705D1*X10559Y25095*X10711Y24943*X11016Y24943*X11168Y25095*X11494Y24943D2*X11494Y25552D1*X11951Y25552*X12103Y25400*X12103Y24943*D109*X26289Y5016D2*X26726Y5403D1*X27142Y5809*X27541Y6233*X27917Y6678*X28273Y7140*X28605Y7620*X28913Y8113*X29197Y8623*X29456Y9144*X29690Y9677*X29896Y10224*X30076Y10777*X30231Y11339*X30356Y11908*X30455Y12482*X30526Y13061*X30566Y13642*X30582Y14224*X30566Y14806*X30526Y15387*X30455Y15966*X30356Y16540*X30231Y17109*X30076Y17671*X29896Y18224*X29690Y18771*X29456Y19304*X29197Y19825*X28913Y20335*X28605Y20828*X28273Y21308*X27917Y21770*X27541Y22215*X27142Y22639*X26726Y23045*X26289Y23432*X7239Y23432*X7676Y23045*X8092Y22639*X8491Y22215*X8867Y21770*X9223Y21308*X9555Y20828*X9863Y20335*X10147Y19825*X10406Y19304*X10640Y18771*X10846Y18224*X11026Y17671*X11181Y17109*X11306Y16540*X11405Y15966*X11476Y15387*X11516Y14806*X11532Y14224*X11516Y13642*X11476Y13061*X11405Y12482*X11306Y11908*X11181Y11339*X11026Y10777*X10846Y10224*X10640Y9677*X10406Y9144*X10147Y8623*X9863Y8113*X9555Y7620*X9223Y7140*X8867Y6678*X8491Y6233*X8092Y5809*X7676Y5403*X7239Y5016*X26289Y5016*X0Y0D2*M02*