G04 Output by ViewMate Deluxe V11.0.9  PentaLogix LLC*
G04 Sun May 11 19:24:29 2014*
%FSLAX33Y33*%
%MOMM*%
%IPPOS*%
%ADD110C,1.5113*%
%ADD111R,2.0041X2.0041*%
%ADD112C,1.4122*%
%ADD113C,3.4036*%

%LPD*%
X0Y0D2*D110*G1X7874Y25336D3*X6604Y12954D3*X6604Y15494D3*X6604Y18986D3*X6604Y21526D3*X11049Y21844D3*X12954Y25336D3*X16129Y21844D3*X17399Y18352D3*X21844Y10414D3*X23749Y11049D3*X28829Y11049D3*X29146Y13589D3*X32639Y12954D3*X32639Y15494D3*X26924Y20574D3*X24384Y21526D3*X22479Y18352D3*X24384Y16446D3*X26924Y15494D3*X24066Y13589D3*X21844Y12636D3*X16764Y12636D3*X16764Y10414D3*X15494Y6604D3*X10414Y6604D3*X6604Y9462D3*X6604Y6922D3*D111*X32639Y7874D3*X32639Y20892D3*X25019Y25654D3*X21209Y25654D3*X3429Y8192D3*X3429Y14224D3*X3429Y20256D3*D112*X20256Y14859D3*X17716Y14859D3*X18986Y16129D3*X21209Y20574D3*X19939Y21844D3*X18669Y20574D3*X15176Y18352D3*X13906Y19622D3*X12636Y18352D3*X13589Y15494D3*X14859Y14224D3*X13589Y12954D3*X12319Y8826D3*X13589Y10096D3*X14859Y8826D3*X17716Y6922D3*X18986Y8192D3*X20256Y6922D3*X23114Y7239D3*X24384Y8509D3*X25654Y7239D3*D113*X32639Y3429D3*X32639Y25019D3*X3429Y25019D3*X3429Y3429D3*X0Y0D2*M02*