G04 Output by ViewMate Deluxe V11.0.9  PentaLogix LLC*
G04 Mon Sep 14 11:20:40 2015*
%FSLAX33Y33*%
%MOMM*%
%IPPOS*%
%ADD11C,1.3081*%
%ADD12C,1.209*%
%ADD17C,1.016*%
%ADD114R,3.81X3.81*%
%ADD115R,1.651X1.651*%
%ADD116C,1.651*%
%ADD117R,1.8009X1.8009*%
%ADD118C,0.4064*%

%LPD*%
X0Y0D2*D118*G1X31521Y46038D2*X32156Y46038D1*X32791Y45402*X121691Y10478D2*X122961Y11748D1*X122961Y14288*X123596Y14922*X128676Y14922*X129311Y15558*X129311Y19368*X121691Y19368D2*X121691Y17462D1*X120421Y16192*X120421Y11748*X119151Y10478*X61366Y16192D2*X60731Y15558D1*X37236Y15558*X35331Y13652*X35331Y13018*X37871Y10478D2*X39141Y11748D1*X39141Y14288*X39776Y14922*X63906Y14922*X65176Y16192*X88036Y30162D2*X88036Y26988D1*X84226Y30162D2*X84226Y27622D1*X83591Y26988*X63906Y26988*X56286Y19368*X32791Y19368*X27711Y14288*X27711Y13018*X30251Y10478D2*X28981Y11748D1*X28981Y14288*X33426Y18732*X56921Y18732*X64541Y26352*X87401Y26352*X88036Y26988*X102641Y20002D2*X102641Y17462D1*X103276Y16828*X110896Y16828*X111531Y16192*X111531Y13018*X108991Y13018D2*X108991Y14922D1*X108356Y15558*X95656Y15558*X95021Y16192*X95021Y20002*X98831Y20002D2*X98831Y16828D1*X99466Y16192*X109626Y16192*X110261Y15558*X110261Y11748*X111531Y10478*X108991Y10478D2*X107721Y11748D1*X107721Y14288*X107086Y14922*X91846Y14922*X91211Y15558*X91211Y20002*X81051Y21272D2*X81051Y21908D1*X81686Y22542*X107086Y22542*X110261Y25718*X111531Y24448*X149631Y24448*X149631Y19368D2*X147091Y19368D1*X192176Y13018D2*X175666Y13018D1*X209956Y29528D2*X182651Y29528D1*X179476Y29528*X178206Y28258*X154711Y28258*X154076Y28892*X116611Y28892*X114706Y30798*X102006Y30798*X101371Y30162*X100101Y28892*X94386Y28892*X96926Y32068D2*X96291Y31432D1*X161061Y79692D2*X162331Y78422D1*X164236Y78422*X166776Y75882*X181381Y75882*X182651Y74612*X188366Y62548D2*X188366Y61278D1*X190906Y58738*X178841Y58102D2*X178841Y73978D1*X177571Y75248*X161061Y75248*X159791Y76518*X159791Y78422*X158521Y79692*X155981Y79692D2*X157251Y78422D1*X157251Y75248*X157886Y74612*X173761Y74612*X175031Y73342*X175031Y58102*X171221Y57468D2*X171221Y72708D1*X169951Y73978*X155981Y73978*X154711Y75248*X154711Y78422*X153441Y79692*X120421Y70168D2*X121691Y70168D1*X122961Y68898*X126771Y70168D2*X128041Y70168D1*X129311Y68898*X133121Y70168D2*X134391Y70168D1*X135661Y68898*X139471Y70168D2*X140741Y70168D1*X142011Y68898*X145821Y70168D2*X147091Y70168D1*X148361Y68898*X152171Y70168D2*X153441Y70168D1*X154711Y68898*X158521Y70168D2*X159791Y70168D1*X161061Y68898*X164871Y70168D2*X166141Y70168D1*X167411Y68898*X167411Y63182D2*X166776Y62548D1*X164871Y62548*X161061Y63182D2*X160426Y62548D1*X158521Y62548*X154711Y63182D2*X154076Y62548D1*X152171Y62548*X148361Y63182D2*X147726Y62548D1*X145821Y62548*X113436Y51752D2*X113436Y54928D1*X113436Y55562*X81686Y58738D2*X79146Y61278D1*X79146Y62548*X55651Y62548D2*X57556Y62548D1*X58191Y63182*X65811Y58102D2*X68351Y55562D1*X68351Y54928*X85496Y49848D2*X86766Y51118D1*X86766Y54928*X86766Y55562*X84226Y58102*X84226Y69532*X88671Y73978*X88671Y77152*X91211Y77152D2*X91211Y73342D1*X88036Y70168*X88036Y58102*X90576Y55562*X90576Y54928*X90576Y51752*X93116Y49848D2*X94386Y51118D1*X94386Y54928*X94386Y55562*X91846Y58102*X91846Y69532*X93751Y71438*X93751Y77152*X96291Y77152D2*X96291Y64452D1*X95656Y63818*X95656Y58102*X98196Y55562*X98196Y54928*X98196Y51752*X100736Y49848D2*X102006Y51118D1*X102006Y54928*X102006Y55562*X99466Y58102*X99466Y72708*X98831Y73342*X98831Y77152*X101371Y77152D2*X101371Y73342D1*X103276Y71438*X103276Y58102*X105816Y55562*X105816Y54928*X105816Y51752*X108356Y49848D2*X109626Y51118D1*X109626Y54928*X109626Y55562*X107086Y58102*X107086Y69532*X103911Y72708*X103911Y77152*X106451Y77152D2*X106451Y73342D1*X110896Y68898*X110896Y58102*X113436Y55562*X120421Y62548D2*X122326Y62548D1*X122961Y63182*X126771Y62548D2*X128676Y62548D1*X129311Y63182*X133121Y62548D2*X135026Y62548D1*X135661Y63182*X139471Y62548D2*X141376Y62548D1*X142011Y63182*X142011Y53022D2*X142011Y54928D1*X153441Y46672D2*X152806Y47308D1*X47396Y47308*X46761Y47942*X46761Y54292D2*X46761Y53658D1*X48031Y52388*X48031Y51118*X53111Y54292D2*X51206Y54292D1*X50571Y53658*X48666Y53658*X48031Y54292*X48031Y54928*X47396Y55562*X45491Y55562*X43586Y53658*X42316Y53658*X41681Y54292*X41681Y54928*X41046Y55562*X39141Y55562*X37236Y53658*X35966Y53658*X35331Y54292*X35331Y54928*X34696Y55562*X32791Y55562*X30886Y53658*X29616Y53658*X28981Y54292*X28981Y54928*X28346Y55562*X26441Y55562*X18186Y53022D2*X19456Y54292D1*X21361Y54292*X22631Y53022D2*X23266Y53658D1*X24536Y53658*X26441Y55562*X11201Y70168D2*X12471Y70168D1*X13741Y68898*X17551Y70168D2*X18821Y70168D1*X20091Y68898*X23901Y70168D2*X25171Y70168D1*X26441Y68898*X30251Y70168D2*X31521Y70168D1*X32791Y68898*X36601Y70168D2*X37871Y70168D1*X39141Y68898*X42951Y70168D2*X44221Y70168D1*X45491Y68898*X58191Y68898D2*X56921Y70168D1*X55651Y70168*X51841Y68898D2*X50571Y70168D1*X49301Y70168*X51841Y79692D2*X53111Y78422D1*X53111Y76518*X54381Y75248*X72161Y75248*X73431Y73978*X73431Y58102*X75971Y55562*X75971Y54928*X79146Y54928D2*X79781Y54292D1*X82956Y54292*X81686Y53022D2*X79146Y53022D1*X77241Y51118*X77241Y49848*X76606Y49212*X39141Y45402D2*X76606Y45402D1*X36601Y46038D2*X35966Y45402D1*X32791Y45402*X34061Y46672D2*X34696Y47308D1*X37236Y47308*X39141Y45402*X28981Y48578D2*X41681Y48578D1*X25806Y49848D2*X26441Y50482D1*X28346Y50482*X28981Y51118*X31521Y51118*X32156Y50482*X35331Y50482*X35966Y51118*X38506Y51118*X39141Y50482*X41046Y50482*X42316Y51752*X44221Y51752*X45491Y50482*X47396Y50482*X48031Y51118*X53111Y48578D2*X53746Y47942D1*X159156Y47942*X159791Y47308*X166141Y48578D2*X60096Y48578D1*X59461Y49212*X76606Y49212D2*X62001Y49212D1*X70891Y50482D2*X72161Y51752D1*X72161Y54928*X72161Y55562*X69621Y58102*X69621Y73342*X68351Y74612*X51841Y74612*X50571Y75882*X50571Y78422*X49301Y79692*X46761Y79692D2*X48031Y78422D1*X48031Y75248*X49301Y73978*X64541Y73978*X65811Y72708*X65811Y58102*X62001Y58102D2*X62001Y72072D1*X60731Y73342*X46761Y73342*X45491Y74612*X45491Y78422*X44221Y79692*X39141Y79692D2*X40411Y78422D1*X40411Y75248*X42951Y72708*X52476Y72708*X53111Y72072*X53111Y64452*X51841Y63182D2*X51206Y62548D1*X49301Y62548*X45491Y63182D2*X44856Y62548D1*X42951Y62548*X39141Y63182D2*X38506Y62548D1*X36601Y62548*X32791Y63182D2*X32156Y62548D1*X30251Y62548*X26441Y63182D2*X25806Y62548D1*X23901Y62548*X20091Y63182D2*X19456Y62548D1*X17551Y62548*X13741Y63182D2*X13106Y62548D1*X11201Y62548*X13741Y60008D2*X20091Y60008D1*X26441Y60008*X32791Y60008*X39141Y60008*X45491Y60008*X51841Y60008*X58191Y60008*X60731Y60008*X61366Y59372*X61366Y49848*X62001Y49212*X63271Y50482D2*X64541Y51752D1*X64541Y54928*X64541Y55562*X62001Y58102*X59461Y54292D2*X59461Y54928D1*X58191Y56198*X15646Y56198*X15011Y54292D2*X16281Y53022D1*X16281Y46672*X14376Y43498D2*X14376Y44768D1*X16281Y46672*X19456Y47942D2*X27711Y47942D1*X28346Y47308*X32156Y47308*X32791Y47942*X38506Y47942*X39141Y47308*X40411Y47308D2*X41046Y46672D1*X146456Y46672*X147091Y46038*X140741Y45402D2*X140106Y46038D1*X77241Y46038*X76606Y45402*X77241Y44768D2*X28981Y44768D1*X27711Y46038*X21361Y45402D2*X22631Y44132D1*X77876Y44132*X78511Y44768*X127406Y44768*X128041Y44132*X134391Y44768D2*X133756Y45402D1*X77876Y45402*X77241Y44768*X65811Y39688D2*X66446Y40322D1*X140106Y40322*X140741Y39688*X166776Y39688*X167411Y40322*X167411Y42228*X167411Y44132D2*X165506Y44132D1*X164871Y43498*X164871Y40958*X164236Y40322*X141376Y40322*X140741Y40958*X62001Y40958*X51206Y40322D2*X51206Y42228D1*X50571Y42862*X15011Y42862*X14376Y43498*X15646Y44132D2*X16281Y43498D1*X78511Y43498*X79146Y44132*X121056Y44132*X121691Y43498*X81686Y42862D2*X118516Y42862D1*X80416Y42228D2*X81051Y41592D1*X148361Y41592*X152171Y45402*X161061Y45402*X161061Y46672*X161696Y47308*X189636Y47308*X180111Y50482D2*X181381Y51752D1*X181381Y54928*X181381Y55562*X178841Y58102*X177571Y54928D2*X177571Y55562D1*X175031Y58102*X171221Y57468D2*X173761Y54928D1*X161061Y53022D2*X161061Y54928D1*X167411Y53022D2*X167411Y54928D1*X164871Y54928D2*X167411Y54928D1*X167411Y57468*X161061Y57468D2*X161061Y54928D1*X158521Y54928*X154711Y53022D2*X154711Y54928D1*X154711Y57468D2*X154711Y54928D1*X152171Y54928*X148361Y53022D2*X148361Y54928D1*X145821Y54928D2*X148361Y54928D1*X148361Y57468*X142011Y57468D2*X142011Y54928D1*X139471Y54928*X135661Y53022D2*X135661Y54928D1*X135661Y57468D2*X135661Y54928D1*X133121Y54928*X129311Y53022D2*X129311Y54928D1*X129311Y57468D2*X129311Y54928D1*X126771Y54928*X122961Y53022D2*X122961Y54928D1*X120421Y54928D2*X122961Y54928D1*X122961Y57468*X122961Y60008D2*X129311Y60008D1*X135661Y60008*X142011Y60008*X148361Y60008*X154711Y60008*X161061Y60008*X167411Y60008*X169951Y60008*X170586Y59372*X170586Y49848*X171221Y49212*X185826Y49212*X186461Y49848*X186461Y51752*X187731Y53022*X190906Y53022*X192176Y54292D2*X191541Y54928D1*X188366Y54928*X185191Y54928D2*X185191Y55562D1*X182651Y58102*X182651Y74612*X200431Y77152D2*X197256Y73978D1*X197256Y58102*X199796Y55562*X199796Y54928*X202336Y49848D2*X203606Y51118D1*X203606Y54928*X203606Y55562*X201066Y58102*X201066Y74612*X202971Y76518*X202971Y77152*X205511Y77152D2*X205511Y75248D1*X204876Y74612*X204876Y58102*X207416Y55562*X207416Y54928*X216306Y58102D2*X216306Y70168D1*X213131Y73342*X213131Y77152*X215671Y77152D2*X215671Y73978D1*X220116Y69532*X220116Y58102*X222656Y55562*X222656Y54928*X217576Y49848D2*X218846Y51118D1*X218846Y54928*X218846Y55562*X216306Y58102*X215036Y54928D2*X215036Y55562D1*X212496Y58102*X212496Y71438*X210591Y73342*X210591Y77152*X208051Y77152D2*X208051Y70168D1*X208686Y69532*X208686Y58102*X211226Y55562*X211226Y54928*X211226Y51118*X209956Y49848*X211226Y44132D2*X210591Y43498D1*X210591Y30162*X209956Y29528*X200431Y36512D2*X200431Y33972D1*X199796Y33338*X169316Y33338*X168046Y32068*X164871Y32068*X158521Y32068*X157886Y32702*X128041Y32702*X127406Y33338*X126771Y33338*X126136Y32702*X122326Y32702*X121056Y33972*X91846Y33972*X91211Y33338*X84861Y35242D2*X85496Y35878D1*X129946Y35878*X130581Y35242*X131851Y35242*X132486Y35878*X135661Y35878*X136296Y35242*X161696Y35242*X162331Y34608*X162966Y35242*X189636Y35242*X191541Y37148*X185191Y42228D2*X185191Y36512D1*X184556Y35878*X136931Y35878*X136296Y36512*X82956Y36512*X82321Y35878*X77241Y37148D2*X77876Y37782D1*X72796Y37782D2*X73431Y38418D1*X138201Y38418*X138836Y37782*X175666Y37782*X176301Y38418*X176301Y43498*X177571Y44132D2*X176936Y44132D1*X176301Y43498*X175031Y44132D2*X173126Y44132D1*X172491Y43498*X172491Y39688*X171856Y39052*X140106Y39052*X139471Y39688*X67716Y39688*X67081Y39052*X69621Y38418D2*X70256Y39052D1*X138836Y39052*X139471Y38418*X174396Y38418*X175031Y39052*X175031Y42228*X177571Y42228D2*X177571Y37782D1*X176936Y37148*X138201Y37148*X137566Y37782*X77876Y37782*X79781Y36512D2*X80416Y37148D1*X136931Y37148*X137566Y36512*X183286Y36512*X183921Y37148*X183921Y43498*X184556Y44132*X185191Y44132*X192811Y44132D2*X191541Y42862D1*X191541Y37148*X194716Y39052D2*X193446Y37782D1*X193446Y35242*X192176Y33972*X168046Y33972*X167411Y33338*X164236Y33338*X163601Y32702*X159156Y32702*X158521Y33338*X129311Y33338*X128041Y34608*X123596Y34608*X122961Y33972*X122326Y34608*X89306Y34608*X88671Y33972*X87401Y34608D2*X88036Y35242D1*X128676Y35242*X129946Y33972*X133756Y33972*X134391Y34608*X159156Y34608*X159791Y33972*X160426Y33338*X162966Y33338*X164236Y34608*X190906Y34608*X192176Y35878*X192176Y40958*X192811Y41592*X194081Y41592*X202336Y44132D2*X201701Y43498D1*X201701Y33338*X201066Y32702*X173126Y32702*X172491Y32068*X169316Y32068*X168046Y30798*X158521Y30798*X157251Y32068*X121691Y32068*X121056Y32702*X118516Y32702*X117881Y33338*X94386Y33338*X93751Y32702*X95021Y32068D2*X95656Y32702D1*X116611Y32702*X117881Y31432*X119151Y31432*X155981Y31432*X157251Y30162*X169316Y30162*X169951Y30798*X173126Y30798*X174396Y32068*X201701Y32068*X202336Y32702*X202336Y40958*X202971Y41592*X203606Y39052D2*X202971Y38418D1*X202971Y32068*X202336Y31432*X178206Y31432*X177571Y30798*X174396Y30798*X173126Y29528*X156616Y29528*X155981Y30162*X117881Y30162*X115976Y32068*X96926Y32068*X98831Y30798D2*X99466Y31432D1*X115341Y31432*X117246Y29528*X154711Y29528*X155346Y28892*X174396Y28892*X175031Y29528*X178206Y29528*X179476Y30798*X208686Y30798*X209321Y31432*X209321Y36512*X212496Y39052D2*X211861Y38418D1*X211861Y28892*X211226Y28258*X188366Y28258*X187731Y27622*X183921Y27622*X183286Y26988*X153441Y26988*X152806Y27622*X115341Y27622*X113436Y29528*X104546Y29528*X103911Y28892*X101371Y26352*X96926Y26352*X96291Y26988*X97561Y27622D2*X101371Y27622D1*X102641Y28892*X102641Y29528*X103276Y30162*X114071Y30162*X115976Y28258*X153441Y28258*X154076Y27622*X179476Y27622*X180111Y28258*X183286Y28258*X183921Y28892*X210591Y28892*X211226Y29528*X211226Y40958*X211861Y41592*X220116Y44132D2*X220116Y25718D1*X219481Y25082*X192811Y25082*X153441Y25082*X151536Y26352*X114071Y26352*X112166Y28258*X107086Y28258*X106451Y27622*X103276Y24448*X91211Y24448*X88671Y24448D2*X89306Y23812D1*X104546Y23812*X107721Y26988*X108356Y27622*X111531Y27622*X113436Y25718*X150901Y25718*X152806Y23812*X190271Y23812*X194716Y23812*X195351Y24448*X220751Y24448*X221386Y25082*X221386Y41592*X222656Y39052D2*X222656Y23812D1*X222021Y23178*X197891Y23178*X197256Y22542*X152806Y22542*X150266Y25082*X112801Y25082*X110896Y26988*X109626Y26988*X108991Y26352*X105816Y23178*X77876Y23178*X77241Y21272D2*X77241Y22542D1*X77876Y23178*X76606Y25082D2*X64541Y25082D1*X57556Y18098*X34061Y18098*X30251Y14288*X30251Y13018*X32791Y13018D2*X32791Y13652D1*X35966Y16828*X58826Y16828*X64541Y22542*X68986Y22542*X72796Y21272D2*X64541Y21272D1*X59461Y16192*X36601Y16192*X34061Y13652*X34061Y11748*X35331Y10478*X32791Y10478D2*X31521Y11748D1*X31521Y14288*X34696Y17462*X58191Y17462*X64541Y23812*X77241Y23812*X77876Y24448*X80416Y24448*X84861Y24448D2*X86131Y25718D1*X89941Y25718*X91211Y24448*X92481Y25718D2*X93116Y26988D1*X96291Y26988*X95656Y25718D2*X96291Y25082D1*X102006Y25082*X105181Y28258*X105816Y28892*X112801Y28892*X114706Y26988*X152171Y26988*X152806Y26352*X185191Y26352*X189001Y26352*X190271Y27622*X217576Y27622*X218211Y28258*X218211Y36512*X223926Y36512D2*X223926Y21908D1*X223291Y21272*X195351Y21272*X194716Y21908*X152171Y21908*X149631Y24448*X142646Y23178D2*X148996Y23178D1*X151536Y20638*X151536Y18732*X152806Y17462*X183286Y17462*X183921Y15558D2*X183921Y16828D1*X183286Y17462*X182016Y16192D2*X181381Y16828D1*X171856Y16828*X170586Y16192D2*X171221Y16192D1*X171856Y16828*X175031Y15558D2*X175031Y13652D1*X175666Y13018*X176936Y14288D2*X177571Y13652D1*X192811Y13652*X194081Y12382*X194081Y11112*X192811Y9842D2*X192811Y12382D1*X192176Y13018*X186461Y11112D2*X185191Y12382D1*X170586Y12382*X169316Y11112*D11*X55651Y62548D3*X55651Y65088D3*X42951Y65088D3*X49301Y65088D3*X49301Y62548D3*X42951Y62548D3*X36601Y62548D3*X36601Y65088D3*X13741Y71438D3*X11201Y70168D3*X13741Y68898D3*X20091Y68898D3*X17551Y70168D3*X20091Y71438D3*X32791Y71438D3*X39141Y71438D3*X45491Y71438D3*X51841Y71438D3*X58191Y71438D3*X58191Y68898D3*X55651Y70168D3*X51841Y68898D3*X49301Y70168D3*X45491Y68898D3*X42951Y70168D3*X39141Y68898D3*X36601Y70168D3*X32791Y68898D3*X30251Y70168D3*X26441Y71438D3*X23901Y70168D3*X26441Y68898D3*X23901Y65088D3*X30251Y65088D3*X30251Y62548D3*X23901Y62548D3*X17551Y62548D3*X17551Y65088D3*X11201Y65088D3*X11201Y62548D3*X11201Y54928D3*X11201Y57468D3*X17551Y57468D3*X17551Y54928D3*X30251Y54928D3*X23901Y54928D3*X23901Y57468D3*X30251Y57468D3*X36601Y57468D3*X36601Y54928D3*X49301Y54928D3*X42951Y54928D3*X42951Y57468D3*X49301Y57468D3*X55651Y57468D3*X55651Y54928D3*X55651Y49848D3*X49301Y49848D3*X42951Y49848D3*X36601Y49848D3*X30251Y49848D3*X23901Y49848D3*X17551Y49848D3*X11201Y49848D3*X11201Y40322D3*X13106Y40322D3*X15011Y40322D3*X16916Y40322D3*X18821Y40322D3*X20726Y40322D3*X22631Y40322D3*X24536Y40322D3*X26441Y40322D3*X28346Y40322D3*X30251Y40322D3*X32156Y40322D3*X34061Y40322D3*X35966Y40322D3*X37871Y40322D3*X39776Y40322D3*X41681Y40322D3*X43586Y40322D3*X45491Y40322D3*X47396Y40322D3*X49301Y40322D3*X51206Y40322D3*X53111Y40322D3*X55016Y40322D3*X60096Y39052D3*X60096Y33972D3*X55016Y35242D3*X53111Y35242D3*X51206Y35242D3*X49301Y35242D3*X47396Y35242D3*X45491Y35242D3*X43586Y35242D3*X41681Y35242D3*X39776Y35242D3*X37871Y35242D3*X35966Y35242D3*X34061Y35242D3*X32156Y35242D3*X30251Y35242D3*X28346Y35242D3*X26441Y35242D3*X24536Y35242D3*X22631Y35242D3*X20726Y35242D3*X18821Y35242D3*X16916Y35242D3*X15011Y35242D3*X13106Y35242D3*X11201Y35242D3*X11836Y27622D3*X14376Y27622D3*X17551Y27622D3*X20091Y27622D3*X23266Y27622D3*X25806Y27622D3*X28981Y27622D3*X31521Y27622D3*X34696Y27622D3*X37236Y27622D3*X40411Y27622D3*X42951Y27622D3*X46126Y27622D3*X48666Y27622D3*X51841Y27622D3*X54381Y27622D3*X74701Y10478D3*X79781Y10478D3*X206146Y11112D3*X208686Y11112D3*X232181Y61278D3*X232181Y66358D3*X215036Y68262D3*X217576Y68262D3*X222656Y68262D3*X222656Y65722D3*X217576Y65722D3*X215036Y65722D3*X164871Y49848D3*X158521Y49848D3*X152171Y49848D3*X145821Y49848D3*X139471Y49848D3*X133121Y49848D3*X126771Y49848D3*X120421Y49848D3*X113436Y51752D3*X113436Y49848D3*X105816Y49848D3*X108356Y49848D3*X108356Y51752D3*X105816Y51752D3*X98196Y51752D3*X100736Y51752D3*X100736Y49848D3*X98196Y49848D3*X90576Y49848D3*X93116Y49848D3*X93116Y51752D3*X90576Y51752D3*X85496Y51752D3*X85496Y49848D3*X79146Y49848D3*X75971Y50482D3*X70891Y50482D3*X68351Y50482D3*X63271Y50482D3*X63271Y52388D3*X68351Y52388D3*X70891Y52388D3*X75971Y52388D3*X79146Y54928D3*X79146Y57468D3*X108356Y68262D3*X105816Y68262D3*X100736Y68262D3*X98196Y68262D3*X93116Y68262D3*X90576Y68262D3*X85496Y68262D3*X82956Y68898D3*X75971Y68262D3*X70891Y68262D3*X68351Y68262D3*X63271Y68262D3*X63271Y65722D3*X68351Y65722D3*X70891Y65722D3*X75971Y65722D3*X79146Y62548D3*X82956Y63818D3*X85496Y65722D3*X90576Y65722D3*X93116Y65722D3*X98196Y65722D3*X100736Y65722D3*X105816Y65722D3*X108356Y65722D3*X126771Y65088D3*X126771Y62548D3*X133121Y62548D3*X133121Y65088D3*X145821Y65088D3*X139471Y65088D3*X139471Y62548D3*X145821Y62548D3*X152171Y62548D3*X152171Y65088D3*X158521Y65088D3*X164871Y65088D3*X164871Y62548D3*X158521Y62548D3*X158521Y57468D3*X164871Y57468D3*X164871Y54928D3*X158521Y54928D3*X152171Y54928D3*X152171Y57468D3*X139471Y57468D3*X145821Y57468D3*X145821Y54928D3*X139471Y54928D3*X133121Y54928D3*X133121Y57468D3*X126771Y57468D3*X126771Y54928D3*X120421Y54928D3*X120421Y57468D3*X115976Y60008D3*X120421Y62548D3*X120421Y65088D3*X115976Y65088D3*X113436Y65722D3*X113436Y68262D3*X129311Y71438D3*X122961Y71438D3*X120421Y70168D3*X122961Y68898D3*X126771Y70168D3*X129311Y68898D3*X135661Y68898D3*X133121Y70168D3*X135661Y71438D3*X148361Y71438D3*X142011Y71438D3*X139471Y70168D3*X142011Y68898D3*X145821Y70168D3*X148361Y68898D3*X154711Y68898D3*X152171Y70168D3*X154711Y71438D3*X167411Y71438D3*X161061Y71438D3*X158521Y70168D3*X161061Y68898D3*X164871Y70168D3*X167411Y68898D3*X185191Y65722D3*X180111Y65722D3*X177571Y65722D3*X172491Y65722D3*X172491Y68262D3*X177571Y68262D3*X180111Y68262D3*X185191Y68262D3*X192176Y68898D3*X194716Y68262D3*X199796Y68262D3*X202336Y68262D3*X207416Y68262D3*X209956Y68262D3*X209956Y65722D3*X207416Y65722D3*X202336Y65722D3*X199796Y65722D3*X194716Y65722D3*X192176Y63818D3*X188366Y62548D3*X188366Y57468D3*X188366Y54928D3*X185191Y52388D3*X180111Y52388D3*X177571Y52388D3*X172491Y52388D3*X172491Y50482D3*X177571Y50482D3*X180111Y50482D3*X185191Y50482D3*X188366Y49848D3*X194716Y51752D3*X194716Y49848D3*X202336Y49848D3*X199796Y49848D3*X199796Y51752D3*X202336Y51752D3*X209956Y51752D3*X207416Y51752D3*X207416Y49848D3*X209956Y49848D3*X217576Y49848D3*X215036Y49848D3*X215036Y51752D3*X217576Y51752D3*X222656Y51752D3*X222656Y49848D3*X229006Y36512D3*X223926Y36512D3*X212496Y39052D3*X208686Y39052D3*X203606Y39052D3*X199796Y39052D3*X194716Y39052D3*X195351Y36512D3*X200431Y36512D3*X204241Y36512D3*X209321Y36512D3*X213131Y36512D3*X218211Y36512D3*X217576Y39052D3*X222656Y39052D3*X227736Y39052D3*X226466Y41592D3*X225196Y44132D3*X221386Y41592D3*X220116Y44132D3*X216941Y41592D3*X216306Y44132D3*X211226Y44132D3*X211861Y41592D3*X208051Y41592D3*X207416Y44132D3*X202336Y44132D3*X202971Y41592D3*X199161Y41592D3*X197891Y44132D3*X194081Y41592D3*X192811Y44132D3*X190271Y44132D3*X190271Y42228D3*X182651Y42228D3*X185191Y42228D3*X185191Y44132D3*X182651Y44132D3*X175031Y44132D3*X177571Y44132D3*X177571Y42228D3*X175031Y42228D3*X167411Y42228D3*X169951Y42228D3*X169951Y44132D3*X167411Y44132D3*X162331Y44132D3*X162331Y42228D3*X138201Y20002D3*X143281Y20002D3*X154711Y19368D3*X149631Y19368D3*X149631Y13018D3*X154711Y13018D3*X175031Y15558D3*X180111Y15558D3*X183921Y15558D3*X189001Y15558D3*X191541Y15558D3*X196621Y15558D3*X205511Y16192D3*X210591Y16192D3*D12*X169316Y14922D3*X170586Y16192D3*X171856Y14922D3*X192811Y9842D3*X194081Y11112D3*X191541Y11112D3*X185191Y9842D3*X186461Y11112D3*X183921Y11112D3*X176936Y9842D3*X178206Y11112D3*X175666Y11112D3*X170586Y9842D3*X171856Y11112D3*X169316Y11112D3*X147091Y10478D3*X145821Y11748D3*X147091Y13018D3*X147091Y16828D3*X147091Y19368D3*X145821Y18098D3*X88671Y18732D3*X92481Y18732D3*X96291Y18732D3*X100101Y18732D3*X103911Y18732D3*X107721Y18732D3*X111531Y18732D3*X119151Y20638D3*X122961Y20638D3*X126771Y20638D3*X130581Y20638D3*X134391Y20638D3*X134391Y18098D3*X133121Y19368D3*X130581Y18098D3*X129311Y19368D3*X126771Y18098D3*X125501Y19368D3*X122961Y18098D3*X121691Y19368D3*X119151Y18098D3*X117881Y19368D3*X115341Y18098D3*X114071Y19368D3*X115341Y20638D3*X111531Y21272D3*X110261Y20002D3*X107721Y21272D3*X106451Y20002D3*X103911Y21272D3*X102641Y20002D3*X100101Y21272D3*X98831Y20002D3*X96291Y21272D3*X95021Y20002D3*X92481Y21272D3*X91211Y20002D3*X88671Y21272D3*X87401Y20002D3*X84861Y21272D3*X83591Y20002D3*X84861Y18732D3*X81051Y18732D3*X77241Y18732D3*X75971Y20002D3*X77241Y21272D3*X79781Y20002D3*X81051Y21272D3*X81686Y31432D3*X85496Y31432D3*X89306Y31432D3*X89306Y28892D3*X88036Y30162D3*X85496Y28892D3*X84226Y30162D3*X81686Y28892D3*X80416Y30162D3*X62636Y31432D3*X66446Y31432D3*X70256Y31432D3*X74066Y31432D3*X77876Y31432D3*X77876Y28892D3*X76606Y30162D3*X74066Y28892D3*X72796Y30162D3*X70256Y28892D3*X68986Y30162D3*X66446Y28892D3*X65176Y30162D3*X62636Y28892D3*X61366Y30162D3*X54381Y31432D3*X47396Y32702D3*X35966Y32702D3*X24536Y32702D3*X18821Y32702D3*X13106Y32702D3*X11836Y31432D3*X14376Y31432D3*X17551Y31432D3*X20091Y31432D3*X23266Y31432D3*X25806Y31432D3*X30251Y32702D3*X28981Y31432D3*X31521Y31432D3*X34696Y31432D3*X37236Y31432D3*X41681Y32702D3*X40411Y31432D3*X42951Y31432D3*X46126Y31432D3*X48666Y31432D3*X51841Y31432D3*X53111Y32702D3*X72161Y62548D3*X75971Y62548D3*X80416Y67628D3*X79146Y66358D3*X80416Y65088D3*X86766Y62548D3*X90576Y62548D3*X94386Y62548D3*X98196Y62548D3*X102006Y62548D3*X105816Y62548D3*X109626Y62548D3*X113436Y62548D3*X122961Y65722D3*X122961Y63182D3*X124231Y64452D3*X129311Y65722D3*X129311Y63182D3*X130581Y64452D3*X135661Y65722D3*X135661Y63182D3*X136931Y64452D3*X177571Y62548D3*X181381Y62548D3*X185191Y62548D3*X189636Y67628D3*X188366Y66358D3*X189636Y65088D3*X195986Y62548D3*X199796Y62548D3*X203606Y62548D3*X207416Y62548D3*X211226Y62548D3*X215036Y62548D3*X218846Y62548D3*X222656Y62548D3*X222656Y54928D3*X218846Y54928D3*X215036Y54928D3*X211226Y54928D3*X207416Y54928D3*X203606Y54928D3*X199796Y54928D3*X192176Y51752D3*X190906Y53022D3*X192176Y54292D3*X195986Y54928D3*X195986Y57468D3*X197256Y56198D3*X199796Y57468D3*X201066Y56198D3*X203606Y57468D3*X204876Y56198D3*X207416Y57468D3*X208686Y56198D3*X211226Y57468D3*X212496Y56198D3*X215036Y57468D3*X216306Y56198D3*X218846Y57468D3*X220116Y56198D3*X223926Y56198D3*X222656Y57468D3*X222656Y60008D3*X221386Y61278D3*X218846Y60008D3*X217576Y61278D3*X215036Y60008D3*X213766Y61278D3*X211226Y60008D3*X209956Y61278D3*X207416Y60008D3*X206146Y61278D3*X203606Y60008D3*X202336Y61278D3*X199796Y60008D3*X198526Y61278D3*X195986Y60008D3*X194716Y61278D3*X190906Y61278D3*X192176Y60008D3*X190906Y58738D3*X185191Y60008D3*X183921Y61278D3*X181381Y60008D3*X180111Y61278D3*X177571Y60008D3*X176301Y61278D3*X173761Y60008D3*X172491Y61278D3*X173761Y62548D3*X167411Y65722D3*X168681Y64452D3*X167411Y63182D3*X161061Y63182D3*X162331Y64452D3*X161061Y65722D3*X154711Y65722D3*X155981Y64452D3*X154711Y63182D3*X148361Y63182D3*X149631Y64452D3*X148361Y65722D3*X142011Y65722D3*X143281Y64452D3*X142011Y63182D3*X143281Y54292D3*X142011Y53022D3*X143281Y51752D3*X149631Y51752D3*X148361Y53022D3*X149631Y54292D3*X162331Y54292D3*X167411Y57468D3*X161061Y57468D3*X161061Y60008D3*X162331Y58738D3*X167411Y60008D3*X168681Y58738D3*X177571Y54928D3*X181381Y54928D3*X185191Y54928D3*X186461Y56198D3*X185191Y57468D3*X182651Y56198D3*X181381Y57468D3*X178841Y56198D3*X177571Y57468D3*X173761Y57468D3*X175031Y56198D3*X173761Y54928D3*X168681Y54292D3*X168681Y51752D3*X167411Y53022D3*X162331Y51752D3*X161061Y53022D3*X155981Y51752D3*X154711Y53022D3*X155981Y54292D3*X154711Y57468D3*X155981Y58738D3*X154711Y60008D3*X148361Y60008D3*X149631Y58738D3*X148361Y57468D3*X142011Y57468D3*X143281Y58738D3*X142011Y60008D3*X135661Y60008D3*X136931Y58738D3*X135661Y57468D3*X124231Y54292D3*X122961Y57468D3*X122961Y60008D3*X124231Y58738D3*X129311Y60008D3*X130581Y58738D3*X129311Y57468D3*X130581Y54292D3*X136931Y54292D3*X136931Y51752D3*X135661Y53022D3*X130581Y51752D3*X129311Y53022D3*X124231Y51752D3*X122961Y53022D3*X109626Y54928D3*X105816Y54928D3*X102006Y54928D3*X98196Y54928D3*X94386Y54928D3*X90576Y54928D3*X72161Y54928D3*X72161Y57468D3*X73431Y56198D3*X75971Y57468D3*X77241Y56198D3*X75971Y54928D3*X82956Y51752D3*X81686Y53022D3*X82956Y54292D3*X86766Y54928D3*X86766Y57468D3*X88036Y56198D3*X90576Y57468D3*X91846Y56198D3*X94386Y57468D3*X95656Y56198D3*X98196Y57468D3*X99466Y56198D3*X102006Y57468D3*X103276Y56198D3*X105816Y57468D3*X107086Y56198D3*X109626Y57468D3*X110896Y56198D3*X113436Y54928D3*X114706Y56198D3*X113436Y57468D3*X113436Y60008D3*X112166Y61278D3*X109626Y60008D3*X108356Y61278D3*X105816Y60008D3*X104546Y61278D3*X102006Y60008D3*X100736Y61278D3*X98196Y60008D3*X96926Y61278D3*X94386Y60008D3*X93116Y61278D3*X90576Y60008D3*X89306Y61278D3*X86766Y60008D3*X85496Y61278D3*X81686Y61278D3*X82956Y60008D3*X81686Y58738D3*X75971Y60008D3*X74701Y61278D3*X72161Y60008D3*X70891Y61278D3*X68351Y60008D3*X67081Y61278D3*X68351Y62548D3*X64541Y62548D3*X63271Y61278D3*X64541Y60008D3*X58191Y57468D3*X53111Y54292D3*X51841Y57468D3*X45491Y57468D3*X46761Y54292D3*X40411Y54292D3*X39141Y57468D3*X34061Y54292D3*X32791Y57468D3*X26441Y57468D3*X27711Y54292D3*X21361Y54292D3*X20091Y57468D3*X20091Y60008D3*X21361Y58738D3*X26441Y60008D3*X27711Y58738D3*X32791Y60008D3*X34061Y58738D3*X39141Y60008D3*X40411Y58738D3*X45491Y60008D3*X46761Y58738D3*X51841Y60008D3*X53111Y58738D3*X58191Y60008D3*X59461Y58738D3*X64541Y57468D3*X65811Y56198D3*X68351Y57468D3*X69621Y56198D3*X68351Y54928D3*X64541Y54928D3*X59461Y54292D3*X59461Y51752D3*X58191Y53022D3*X53111Y51752D3*X51841Y53022D3*X46761Y51752D3*X45491Y53022D3*X40411Y51752D3*X39141Y53022D3*X34061Y51752D3*X32791Y53022D3*X27711Y51752D3*X26441Y53022D3*X21361Y51752D3*X20091Y53022D3*X15011Y51752D3*X13741Y53022D3*X15011Y54292D3*X13741Y57468D3*X15011Y58738D3*X13741Y60008D3*X13741Y65722D3*X13741Y63182D3*X15011Y64452D3*X20091Y65722D3*X20091Y63182D3*X21361Y64452D3*X26441Y65722D3*X26441Y63182D3*X27711Y64452D3*X32791Y65722D3*X32791Y63182D3*X34061Y64452D3*X39141Y65722D3*X39141Y63182D3*X40411Y64452D3*X45491Y65722D3*X45491Y63182D3*X46761Y64452D3*X51841Y65722D3*X51841Y63182D3*X53111Y64452D3*X58191Y65722D3*X59461Y64452D3*X58191Y63182D3*D17*X15646Y44132D3*X15646Y56198D3*X18186Y53022D3*X22631Y53022D3*X25806Y49848D3*X19456Y47942D3*X21361Y45402D3*X27711Y46038D3*X28981Y48578D3*X80416Y42228D3*X81686Y42862D3*X142646Y23178D3*X176936Y14288D3*X182016Y16192D3*X195351Y21272D3*X197891Y23178D3*X192811Y25082D3*X190271Y23812D3*X185191Y26352D3*X187731Y27622D3*X182651Y29528D3*X180111Y28258D3*X175031Y29528D3*X177571Y30798D3*X172491Y32068D3*X169951Y30798D3*X167411Y33338D3*X164871Y32068D3*X159791Y33972D3*X162331Y34608D3*X189636Y47308D3*X166141Y48578D3*X159791Y47308D3*X153441Y46672D3*X147091Y46038D3*X118516Y42862D3*X121691Y43498D3*X128041Y44132D3*X134391Y44768D3*X140741Y45402D3*X148361Y41592D3*X134391Y34608D3*X130581Y35242D3*X126771Y33338D3*X122961Y33972D3*X119151Y31432D3*X118516Y32702D3*X94386Y28892D3*X61366Y16192D3*X65176Y16192D3*X72796Y21272D3*X68986Y22542D3*X76606Y25082D3*X80416Y24448D3*X84861Y24448D3*X88671Y24448D3*X92481Y25718D3*X95656Y25718D3*X97561Y27622D3*X110261Y25718D3*X108991Y26352D3*X107721Y26988D3*X106451Y27622D3*X105181Y28258D3*X103911Y28892D3*X102641Y29528D3*X101371Y30162D3*X98831Y30798D3*X96291Y31432D3*X95021Y32068D3*X93751Y32702D3*X91211Y33338D3*X88671Y33972D3*X87401Y34608D3*X84861Y35242D3*X82321Y35878D3*X79781Y36512D3*X77241Y37148D3*X72796Y37782D3*X69621Y38418D3*X67081Y39052D3*X65811Y39688D3*X62001Y40958D3*X59461Y49212D3*X53111Y48578D3*X46761Y47942D3*X41681Y48578D3*X40411Y47308D3*X39141Y47308D3*X36601Y46038D3*X34061Y46672D3*X31521Y46038D3*D114*X225831Y10478D3*X217576Y10478D3*D115*X192811Y77152D3*X140741Y77152D3*X83591Y77152D3*X31521Y77152D3*X50571Y13018D3*X126771Y13018D3*X159791Y19368D3*D116*X54381Y77152D3*X51841Y77152D3*X49301Y77152D3*X46761Y77152D3*X44221Y77152D3*X41681Y77152D3*X39141Y77152D3*X36601Y77152D3*X34061Y77152D3*X31521Y79692D3*X34061Y79692D3*X36601Y79692D3*X39141Y79692D3*X41681Y79692D3*X44221Y79692D3*X46761Y79692D3*X49301Y79692D3*X51841Y79692D3*X54381Y79692D3*X106451Y79692D3*X103911Y79692D3*X101371Y79692D3*X98831Y79692D3*X96291Y79692D3*X93751Y79692D3*X91211Y79692D3*X88671Y79692D3*X83591Y79692D3*X86131Y79692D3*X86131Y77152D3*X88671Y77152D3*X91211Y77152D3*X93751Y77152D3*X96291Y77152D3*X98831Y77152D3*X101371Y77152D3*X103911Y77152D3*X106451Y77152D3*X163601Y77152D3*X161061Y77152D3*X158521Y77152D3*X155981Y77152D3*X153441Y77152D3*X150901Y77152D3*X148361Y77152D3*X145821Y77152D3*X143281Y77152D3*X140741Y79692D3*X143281Y79692D3*X145821Y79692D3*X148361Y79692D3*X150901Y79692D3*X153441Y79692D3*X155981Y79692D3*X158521Y79692D3*X161061Y79692D3*X163601Y79692D3*X192811Y79692D3*X195351Y79692D3*X197891Y79692D3*X200431Y79692D3*X202971Y79692D3*X205511Y79692D3*X208051Y79692D3*X210591Y79692D3*X213131Y79692D3*X215671Y79692D3*X215671Y77152D3*X213131Y77152D3*X210591Y77152D3*X208051Y77152D3*X205511Y77152D3*X202971Y77152D3*X200431Y77152D3*X195351Y77152D3*X197891Y77152D3*X197891Y19368D3*X195351Y19368D3*X192811Y19368D3*X190271Y19368D3*X187731Y19368D3*X185191Y19368D3*X182651Y19368D3*X180111Y19368D3*X177571Y19368D3*X175031Y19368D3*X172491Y19368D3*X169951Y19368D3*X167411Y19368D3*X164871Y19368D3*X162331Y19368D3*X126771Y10478D3*X103911Y10478D3*X106451Y10478D3*X108991Y10478D3*X111531Y10478D3*X114071Y10478D3*X116611Y10478D3*X119151Y10478D3*X121691Y10478D3*X124231Y10478D3*X124231Y13018D3*X121691Y13018D3*X119151Y13018D3*X116611Y13018D3*X114071Y13018D3*X111531Y13018D3*X108991Y13018D3*X106451Y13018D3*X103911Y13018D3*X27711Y13018D3*X30251Y13018D3*X32791Y13018D3*X35331Y13018D3*X37871Y13018D3*X40411Y13018D3*X42951Y13018D3*X45491Y13018D3*X48031Y13018D3*X50571Y10478D3*X48031Y10478D3*X45491Y10478D3*X42951Y10478D3*X40411Y10478D3*X37871Y10478D3*X35331Y10478D3*X32791Y10478D3*X30251Y10478D3*X27711Y10478D3*D117*X162331Y15558D3*X0Y0D2*M02*