G04 Output by ViewMate Deluxe V11.0.9  PentaLogix LLC*
G04 Mon Sep 14 11:20:41 2015*
%FSLAX33Y33*%
%MOMM*%
%IPPOS*%
%ADD105C,3.4036*%
%ADD106R,4.0132X4.0132*%
%ADD107C,1.5113*%
%ADD108C,1.4122*%
%ADD109R,1.8542X1.8542*%
%ADD110C,1.8542*%
%ADD111C,3.1496*%
%ADD112R,2.0041X2.0041*%

%LPD*%
X0Y0D2*D105*G1X12471Y80328D3*X123596Y80328D3*X232816Y80328D3*X232816Y10478D3*X162331Y10478D3*X12471Y10478D3*D106*X225831Y10478D3*X217576Y10478D3*D107*X55651Y62548D3*X55651Y65088D3*X42951Y65088D3*X49301Y65088D3*X49301Y62548D3*X42951Y62548D3*X36601Y62548D3*X36601Y65088D3*X13741Y71438D3*X11201Y70168D3*X13741Y68898D3*X20091Y68898D3*X17551Y70168D3*X20091Y71438D3*X32791Y71438D3*X39141Y71438D3*X45491Y71438D3*X51841Y71438D3*X58191Y71438D3*X58191Y68898D3*X55651Y70168D3*X51841Y68898D3*X49301Y70168D3*X45491Y68898D3*X42951Y70168D3*X39141Y68898D3*X36601Y70168D3*X32791Y68898D3*X30251Y70168D3*X26441Y71438D3*X23901Y70168D3*X26441Y68898D3*X23901Y65088D3*X30251Y65088D3*X30251Y62548D3*X23901Y62548D3*X17551Y62548D3*X17551Y65088D3*X11201Y65088D3*X11201Y62548D3*X11201Y54928D3*X11201Y57468D3*X17551Y57468D3*X17551Y54928D3*X30251Y54928D3*X23901Y54928D3*X23901Y57468D3*X30251Y57468D3*X36601Y57468D3*X36601Y54928D3*X49301Y54928D3*X42951Y54928D3*X42951Y57468D3*X49301Y57468D3*X55651Y57468D3*X55651Y54928D3*X55651Y49848D3*X49301Y49848D3*X42951Y49848D3*X36601Y49848D3*X30251Y49848D3*X23901Y49848D3*X17551Y49848D3*X11201Y49848D3*X11201Y40322D3*X13106Y40322D3*X15011Y40322D3*X16916Y40322D3*X18821Y40322D3*X20726Y40322D3*X22631Y40322D3*X24536Y40322D3*X26441Y40322D3*X28346Y40322D3*X30251Y40322D3*X32156Y40322D3*X34061Y40322D3*X35966Y40322D3*X37871Y40322D3*X39776Y40322D3*X41681Y40322D3*X43586Y40322D3*X45491Y40322D3*X47396Y40322D3*X49301Y40322D3*X51206Y40322D3*X53111Y40322D3*X55016Y40322D3*X60096Y39052D3*X60096Y33972D3*X55016Y35242D3*X53111Y35242D3*X51206Y35242D3*X49301Y35242D3*X47396Y35242D3*X45491Y35242D3*X43586Y35242D3*X41681Y35242D3*X39776Y35242D3*X37871Y35242D3*X35966Y35242D3*X34061Y35242D3*X32156Y35242D3*X30251Y35242D3*X28346Y35242D3*X26441Y35242D3*X24536Y35242D3*X22631Y35242D3*X20726Y35242D3*X18821Y35242D3*X16916Y35242D3*X15011Y35242D3*X13106Y35242D3*X11201Y35242D3*X11836Y27622D3*X14376Y27622D3*X17551Y27622D3*X20091Y27622D3*X23266Y27622D3*X25806Y27622D3*X28981Y27622D3*X31521Y27622D3*X34696Y27622D3*X37236Y27622D3*X40411Y27622D3*X42951Y27622D3*X46126Y27622D3*X48666Y27622D3*X51841Y27622D3*X54381Y27622D3*X74701Y10478D3*X79781Y10478D3*X206146Y11112D3*X208686Y11112D3*X232181Y61278D3*X232181Y66358D3*X215036Y68262D3*X217576Y68262D3*X222656Y68262D3*X222656Y65722D3*X217576Y65722D3*X215036Y65722D3*X164871Y49848D3*X158521Y49848D3*X152171Y49848D3*X145821Y49848D3*X139471Y49848D3*X133121Y49848D3*X126771Y49848D3*X120421Y49848D3*X113436Y51752D3*X113436Y49848D3*X105816Y49848D3*X108356Y49848D3*X108356Y51752D3*X105816Y51752D3*X98196Y51752D3*X100736Y51752D3*X100736Y49848D3*X98196Y49848D3*X90576Y49848D3*X93116Y49848D3*X93116Y51752D3*X90576Y51752D3*X85496Y51752D3*X85496Y49848D3*X79146Y49848D3*X75971Y50482D3*X70891Y50482D3*X68351Y50482D3*X63271Y50482D3*X63271Y52388D3*X68351Y52388D3*X70891Y52388D3*X75971Y52388D3*X79146Y54928D3*X79146Y57468D3*X108356Y68262D3*X105816Y68262D3*X100736Y68262D3*X98196Y68262D3*X93116Y68262D3*X90576Y68262D3*X85496Y68262D3*X82956Y68898D3*X75971Y68262D3*X70891Y68262D3*X68351Y68262D3*X63271Y68262D3*X63271Y65722D3*X68351Y65722D3*X70891Y65722D3*X75971Y65722D3*X79146Y62548D3*X82956Y63818D3*X85496Y65722D3*X90576Y65722D3*X93116Y65722D3*X98196Y65722D3*X100736Y65722D3*X105816Y65722D3*X108356Y65722D3*X126771Y65088D3*X126771Y62548D3*X133121Y62548D3*X133121Y65088D3*X145821Y65088D3*X139471Y65088D3*X139471Y62548D3*X145821Y62548D3*X152171Y62548D3*X152171Y65088D3*X158521Y65088D3*X164871Y65088D3*X164871Y62548D3*X158521Y62548D3*X158521Y57468D3*X164871Y57468D3*X164871Y54928D3*X158521Y54928D3*X152171Y54928D3*X152171Y57468D3*X139471Y57468D3*X145821Y57468D3*X145821Y54928D3*X139471Y54928D3*X133121Y54928D3*X133121Y57468D3*X126771Y57468D3*X126771Y54928D3*X120421Y54928D3*X120421Y57468D3*X115976Y60008D3*X120421Y62548D3*X120421Y65088D3*X115976Y65088D3*X113436Y65722D3*X113436Y68262D3*X129311Y71438D3*X122961Y71438D3*X120421Y70168D3*X122961Y68898D3*X126771Y70168D3*X129311Y68898D3*X135661Y68898D3*X133121Y70168D3*X135661Y71438D3*X148361Y71438D3*X142011Y71438D3*X139471Y70168D3*X142011Y68898D3*X145821Y70168D3*X148361Y68898D3*X154711Y68898D3*X152171Y70168D3*X154711Y71438D3*X167411Y71438D3*X161061Y71438D3*X158521Y70168D3*X161061Y68898D3*X164871Y70168D3*X167411Y68898D3*X185191Y65722D3*X180111Y65722D3*X177571Y65722D3*X172491Y65722D3*X172491Y68262D3*X177571Y68262D3*X180111Y68262D3*X185191Y68262D3*X192176Y68898D3*X194716Y68262D3*X199796Y68262D3*X202336Y68262D3*X207416Y68262D3*X209956Y68262D3*X209956Y65722D3*X207416Y65722D3*X202336Y65722D3*X199796Y65722D3*X194716Y65722D3*X192176Y63818D3*X188366Y62548D3*X188366Y57468D3*X188366Y54928D3*X185191Y52388D3*X180111Y52388D3*X177571Y52388D3*X172491Y52388D3*X172491Y50482D3*X177571Y50482D3*X180111Y50482D3*X185191Y50482D3*X188366Y49848D3*X194716Y51752D3*X194716Y49848D3*X202336Y49848D3*X199796Y49848D3*X199796Y51752D3*X202336Y51752D3*X209956Y51752D3*X207416Y51752D3*X207416Y49848D3*X209956Y49848D3*X217576Y49848D3*X215036Y49848D3*X215036Y51752D3*X217576Y51752D3*X222656Y51752D3*X222656Y49848D3*X229006Y36512D3*X223926Y36512D3*X212496Y39052D3*X208686Y39052D3*X203606Y39052D3*X199796Y39052D3*X194716Y39052D3*X195351Y36512D3*X200431Y36512D3*X204241Y36512D3*X209321Y36512D3*X213131Y36512D3*X218211Y36512D3*X217576Y39052D3*X222656Y39052D3*X227736Y39052D3*X226466Y41592D3*X225196Y44132D3*X221386Y41592D3*X220116Y44132D3*X216941Y41592D3*X216306Y44132D3*X211226Y44132D3*X211861Y41592D3*X208051Y41592D3*X207416Y44132D3*X202336Y44132D3*X202971Y41592D3*X199161Y41592D3*X197891Y44132D3*X194081Y41592D3*X192811Y44132D3*X190271Y44132D3*X190271Y42228D3*X182651Y42228D3*X185191Y42228D3*X185191Y44132D3*X182651Y44132D3*X175031Y44132D3*X177571Y44132D3*X177571Y42228D3*X175031Y42228D3*X167411Y42228D3*X169951Y42228D3*X169951Y44132D3*X167411Y44132D3*X162331Y44132D3*X162331Y42228D3*X138201Y20002D3*X143281Y20002D3*X154711Y19368D3*X149631Y19368D3*X149631Y13018D3*X154711Y13018D3*X175031Y15558D3*X180111Y15558D3*X183921Y15558D3*X189001Y15558D3*X191541Y15558D3*X196621Y15558D3*X205511Y16192D3*X210591Y16192D3*D108*X169316Y14922D3*X170586Y16192D3*X171856Y14922D3*X192811Y9842D3*X194081Y11112D3*X191541Y11112D3*X185191Y9842D3*X186461Y11112D3*X183921Y11112D3*X176936Y9842D3*X178206Y11112D3*X175666Y11112D3*X170586Y9842D3*X171856Y11112D3*X169316Y11112D3*X147091Y10478D3*X145821Y11748D3*X147091Y13018D3*X147091Y16828D3*X147091Y19368D3*X145821Y18098D3*X88671Y18732D3*X92481Y18732D3*X96291Y18732D3*X100101Y18732D3*X103911Y18732D3*X107721Y18732D3*X111531Y18732D3*X119151Y20638D3*X122961Y20638D3*X126771Y20638D3*X130581Y20638D3*X134391Y20638D3*X134391Y18098D3*X133121Y19368D3*X130581Y18098D3*X129311Y19368D3*X126771Y18098D3*X125501Y19368D3*X122961Y18098D3*X121691Y19368D3*X119151Y18098D3*X117881Y19368D3*X115341Y18098D3*X114071Y19368D3*X115341Y20638D3*X111531Y21272D3*X110261Y20002D3*X107721Y21272D3*X106451Y20002D3*X103911Y21272D3*X102641Y20002D3*X100101Y21272D3*X98831Y20002D3*X96291Y21272D3*X95021Y20002D3*X92481Y21272D3*X91211Y20002D3*X88671Y21272D3*X87401Y20002D3*X84861Y21272D3*X83591Y20002D3*X84861Y18732D3*X81051Y18732D3*X77241Y18732D3*X75971Y20002D3*X77241Y21272D3*X79781Y20002D3*X81051Y21272D3*X81686Y31432D3*X85496Y31432D3*X89306Y31432D3*X89306Y28892D3*X88036Y30162D3*X85496Y28892D3*X84226Y30162D3*X81686Y28892D3*X80416Y30162D3*X62636Y31432D3*X66446Y31432D3*X70256Y31432D3*X74066Y31432D3*X77876Y31432D3*X77876Y28892D3*X76606Y30162D3*X74066Y28892D3*X72796Y30162D3*X70256Y28892D3*X68986Y30162D3*X66446Y28892D3*X65176Y30162D3*X62636Y28892D3*X61366Y30162D3*X54381Y31432D3*X47396Y32702D3*X35966Y32702D3*X24536Y32702D3*X18821Y32702D3*X13106Y32702D3*X11836Y31432D3*X14376Y31432D3*X17551Y31432D3*X20091Y31432D3*X23266Y31432D3*X25806Y31432D3*X30251Y32702D3*X28981Y31432D3*X31521Y31432D3*X34696Y31432D3*X37236Y31432D3*X41681Y32702D3*X40411Y31432D3*X42951Y31432D3*X46126Y31432D3*X48666Y31432D3*X51841Y31432D3*X53111Y32702D3*X72161Y62548D3*X75971Y62548D3*X80416Y67628D3*X79146Y66358D3*X80416Y65088D3*X86766Y62548D3*X90576Y62548D3*X94386Y62548D3*X98196Y62548D3*X102006Y62548D3*X105816Y62548D3*X109626Y62548D3*X113436Y62548D3*X122961Y65722D3*X122961Y63182D3*X124231Y64452D3*X129311Y65722D3*X129311Y63182D3*X130581Y64452D3*X135661Y65722D3*X135661Y63182D3*X136931Y64452D3*X177571Y62548D3*X181381Y62548D3*X185191Y62548D3*X189636Y67628D3*X188366Y66358D3*X189636Y65088D3*X195986Y62548D3*X199796Y62548D3*X203606Y62548D3*X207416Y62548D3*X211226Y62548D3*X215036Y62548D3*X218846Y62548D3*X222656Y62548D3*X222656Y54928D3*X218846Y54928D3*X215036Y54928D3*X211226Y54928D3*X207416Y54928D3*X203606Y54928D3*X199796Y54928D3*X192176Y51752D3*X190906Y53022D3*X192176Y54292D3*X195986Y54928D3*X195986Y57468D3*X197256Y56198D3*X199796Y57468D3*X201066Y56198D3*X203606Y57468D3*X204876Y56198D3*X207416Y57468D3*X208686Y56198D3*X211226Y57468D3*X212496Y56198D3*X215036Y57468D3*X216306Y56198D3*X218846Y57468D3*X220116Y56198D3*X223926Y56198D3*X222656Y57468D3*X222656Y60008D3*X221386Y61278D3*X218846Y60008D3*X217576Y61278D3*X215036Y60008D3*X213766Y61278D3*X211226Y60008D3*X209956Y61278D3*X207416Y60008D3*X206146Y61278D3*X203606Y60008D3*X202336Y61278D3*X199796Y60008D3*X198526Y61278D3*X195986Y60008D3*X194716Y61278D3*X190906Y61278D3*X192176Y60008D3*X190906Y58738D3*X185191Y60008D3*X183921Y61278D3*X181381Y60008D3*X180111Y61278D3*X177571Y60008D3*X176301Y61278D3*X173761Y60008D3*X172491Y61278D3*X173761Y62548D3*X167411Y65722D3*X168681Y64452D3*X167411Y63182D3*X161061Y63182D3*X162331Y64452D3*X161061Y65722D3*X154711Y65722D3*X155981Y64452D3*X154711Y63182D3*X148361Y63182D3*X149631Y64452D3*X148361Y65722D3*X142011Y65722D3*X143281Y64452D3*X142011Y63182D3*X143281Y54292D3*X142011Y53022D3*X143281Y51752D3*X149631Y51752D3*X148361Y53022D3*X149631Y54292D3*X162331Y54292D3*X167411Y57468D3*X161061Y57468D3*X161061Y60008D3*X162331Y58738D3*X167411Y60008D3*X168681Y58738D3*X177571Y54928D3*X181381Y54928D3*X185191Y54928D3*X186461Y56198D3*X185191Y57468D3*X182651Y56198D3*X181381Y57468D3*X178841Y56198D3*X177571Y57468D3*X173761Y57468D3*X175031Y56198D3*X173761Y54928D3*X168681Y54292D3*X168681Y51752D3*X167411Y53022D3*X162331Y51752D3*X161061Y53022D3*X155981Y51752D3*X154711Y53022D3*X155981Y54292D3*X154711Y57468D3*X155981Y58738D3*X154711Y60008D3*X148361Y60008D3*X149631Y58738D3*X148361Y57468D3*X142011Y57468D3*X143281Y58738D3*X142011Y60008D3*X135661Y60008D3*X136931Y58738D3*X135661Y57468D3*X124231Y54292D3*X122961Y57468D3*X122961Y60008D3*X124231Y58738D3*X129311Y60008D3*X130581Y58738D3*X129311Y57468D3*X130581Y54292D3*X136931Y54292D3*X136931Y51752D3*X135661Y53022D3*X130581Y51752D3*X129311Y53022D3*X124231Y51752D3*X122961Y53022D3*X109626Y54928D3*X105816Y54928D3*X102006Y54928D3*X98196Y54928D3*X94386Y54928D3*X90576Y54928D3*X72161Y54928D3*X72161Y57468D3*X73431Y56198D3*X75971Y57468D3*X77241Y56198D3*X75971Y54928D3*X82956Y51752D3*X81686Y53022D3*X82956Y54292D3*X86766Y54928D3*X86766Y57468D3*X88036Y56198D3*X90576Y57468D3*X91846Y56198D3*X94386Y57468D3*X95656Y56198D3*X98196Y57468D3*X99466Y56198D3*X102006Y57468D3*X103276Y56198D3*X105816Y57468D3*X107086Y56198D3*X109626Y57468D3*X110896Y56198D3*X113436Y54928D3*X114706Y56198D3*X113436Y57468D3*X113436Y60008D3*X112166Y61278D3*X109626Y60008D3*X108356Y61278D3*X105816Y60008D3*X104546Y61278D3*X102006Y60008D3*X100736Y61278D3*X98196Y60008D3*X96926Y61278D3*X94386Y60008D3*X93116Y61278D3*X90576Y60008D3*X89306Y61278D3*X86766Y60008D3*X85496Y61278D3*X81686Y61278D3*X82956Y60008D3*X81686Y58738D3*X75971Y60008D3*X74701Y61278D3*X72161Y60008D3*X70891Y61278D3*X68351Y60008D3*X67081Y61278D3*X68351Y62548D3*X64541Y62548D3*X63271Y61278D3*X64541Y60008D3*X58191Y57468D3*X53111Y54292D3*X51841Y57468D3*X45491Y57468D3*X46761Y54292D3*X40411Y54292D3*X39141Y57468D3*X34061Y54292D3*X32791Y57468D3*X26441Y57468D3*X27711Y54292D3*X21361Y54292D3*X20091Y57468D3*X20091Y60008D3*X21361Y58738D3*X26441Y60008D3*X27711Y58738D3*X32791Y60008D3*X34061Y58738D3*X39141Y60008D3*X40411Y58738D3*X45491Y60008D3*X46761Y58738D3*X51841Y60008D3*X53111Y58738D3*X58191Y60008D3*X59461Y58738D3*X64541Y57468D3*X65811Y56198D3*X68351Y57468D3*X69621Y56198D3*X68351Y54928D3*X64541Y54928D3*X59461Y54292D3*X59461Y51752D3*X58191Y53022D3*X53111Y51752D3*X51841Y53022D3*X46761Y51752D3*X45491Y53022D3*X40411Y51752D3*X39141Y53022D3*X34061Y51752D3*X32791Y53022D3*X27711Y51752D3*X26441Y53022D3*X21361Y51752D3*X20091Y53022D3*X15011Y51752D3*X13741Y53022D3*X15011Y54292D3*X13741Y57468D3*X15011Y58738D3*X13741Y60008D3*X13741Y65722D3*X13741Y63182D3*X15011Y64452D3*X20091Y65722D3*X20091Y63182D3*X21361Y64452D3*X26441Y65722D3*X26441Y63182D3*X27711Y64452D3*X32791Y65722D3*X32791Y63182D3*X34061Y64452D3*X39141Y65722D3*X39141Y63182D3*X40411Y64452D3*X45491Y65722D3*X45491Y63182D3*X46761Y64452D3*X51841Y65722D3*X51841Y63182D3*X53111Y64452D3*X58191Y65722D3*X59461Y64452D3*X58191Y63182D3*D109*X192811Y77152D3*X140741Y77152D3*X83591Y77152D3*X31521Y77152D3*X50571Y13018D3*X126771Y13018D3*X159791Y19368D3*D110*X48031Y13018D3*X45491Y13018D3*X42951Y13018D3*X40411Y13018D3*X37871Y13018D3*X35331Y13018D3*X32791Y13018D3*X30251Y13018D3*X27711Y13018D3*X27711Y10478D3*X30251Y10478D3*X32791Y10478D3*X35331Y10478D3*X37871Y10478D3*X40411Y10478D3*X42951Y10478D3*X45491Y10478D3*X48031Y10478D3*X50571Y10478D3*X124231Y13018D3*X121691Y13018D3*X119151Y13018D3*X116611Y13018D3*X114071Y13018D3*X111531Y13018D3*X108991Y13018D3*X106451Y13018D3*X103911Y13018D3*X103911Y10478D3*X106451Y10478D3*X108991Y10478D3*X111531Y10478D3*X114071Y10478D3*X116611Y10478D3*X119151Y10478D3*X121691Y10478D3*X124231Y10478D3*X126771Y10478D3*X197891Y19368D3*X195351Y19368D3*X192811Y19368D3*X190271Y19368D3*X187731Y19368D3*X185191Y19368D3*X182651Y19368D3*X180111Y19368D3*X177571Y19368D3*X175031Y19368D3*X172491Y19368D3*X169951Y19368D3*X167411Y19368D3*X164871Y19368D3*X162331Y19368D3*X54381Y77152D3*X51841Y77152D3*X49301Y77152D3*X46761Y77152D3*X44221Y77152D3*X41681Y77152D3*X39141Y77152D3*X36601Y77152D3*X34061Y77152D3*X31521Y79692D3*X34061Y79692D3*X36601Y79692D3*X39141Y79692D3*X41681Y79692D3*X44221Y79692D3*X46761Y79692D3*X49301Y79692D3*X51841Y79692D3*X54381Y79692D3*X106451Y79692D3*X103911Y79692D3*X101371Y79692D3*X98831Y79692D3*X96291Y79692D3*X93751Y79692D3*X91211Y79692D3*X88671Y79692D3*X83591Y79692D3*X86131Y79692D3*X86131Y77152D3*X88671Y77152D3*X91211Y77152D3*X93751Y77152D3*X96291Y77152D3*X98831Y77152D3*X101371Y77152D3*X103911Y77152D3*X106451Y77152D3*X163601Y77152D3*X161061Y77152D3*X158521Y77152D3*X155981Y77152D3*X153441Y77152D3*X150901Y77152D3*X148361Y77152D3*X145821Y77152D3*X143281Y77152D3*X140741Y79692D3*X143281Y79692D3*X145821Y79692D3*X148361Y79692D3*X150901Y79692D3*X153441Y79692D3*X155981Y79692D3*X158521Y79692D3*X161061Y79692D3*X163601Y79692D3*X192811Y79692D3*X195351Y79692D3*X197891Y79692D3*X200431Y79692D3*X202971Y79692D3*X205511Y79692D3*X208051Y79692D3*X210591Y79692D3*X213131Y79692D3*X215671Y79692D3*X215671Y77152D3*X213131Y77152D3*X210591Y77152D3*X208051Y77152D3*X205511Y77152D3*X202971Y77152D3*X200431Y77152D3*X197891Y77152D3*X195351Y77152D3*D111*X221488Y78956D3*X186995Y78956D3*X169418Y78956D3*X25705Y78956D3*X60198Y78956D3*X77775Y78956D3*X112268Y78956D3*X134925Y78956D3*X132588Y11214D3*X98095Y11214D3*X21895Y11214D3*X56388Y11214D3*D112*X162331Y15558D3*X0Y0D2*M02*