G04 Output by ViewMate Deluxe V11.0.9  PentaLogix LLC*
G04 Mon Sep 14 11:20:40 2015*
%FSLAX33Y33*%
%MOMM*%
%IPPOS*%
%ADD18C,0.13*%
%ADD119C,0.1524*%
%ADD120C,0.2032*%
%ADD122C,0.6096*%
%ADD124C,0.127*%
%ADD125C,0.254*%

%LPD*%
X0Y0D2*D18*G1X234213Y29688D2*X234683Y29688D1*D18*X78321Y10084D2*X78321Y10693D1*X209131Y15799D2*X209131Y16408D1*X209740Y15799D2*X209740Y16256D1*X209588Y16408*X209131Y16408*X208806Y16561D2*X208653Y16713D1*X208349Y16713*X208196Y16561*X208196Y15951D2*X208349Y15799D1*X208653Y15799*X208806Y15951*X208806Y16561*X208196Y15951*X208196Y16561*X207871Y16561D2*X207719Y16713D1*X207414Y16713*X207261Y16561*X207261Y15951*X207414Y15799*X207719Y15799*X207871Y15951*X207871Y16561*X207261Y15951*X206324Y15799D2*X206934Y15799D1*X206629Y15799D2*X206629Y16713D1*X206324Y16408*X160912Y16878D2*X161691Y16878D1*X160912Y17854D2*X161107Y18047D1*X161496Y18047*X161691Y17854*X161691Y17658*X160912Y16878*X159743Y16878D2*X160523Y16878D1*X160132Y16878D2*X160132Y18047D1*X159743Y17658*X158963Y18047D2*X159352Y18047D1*X159156Y18047D2*X159156Y17074D1*X158963Y16878*X158768Y16878*X158572Y17074*X140886Y19761D2*X140886Y20371D1*X142430Y19609D2*X142430Y20066D1*X142278Y20218*X141821Y20218*X141821Y19609*X141496Y20371D2*X141496Y19761D1*X141343Y19609*X141039Y19609*X140886Y19761*X141496Y20371*X141343Y20523*X141039Y20523*X140886Y20371*X140561Y20371D2*X140409Y20523D1*X140104Y20523*X139951Y20371*X139951Y19761D2*X140104Y19609D1*X140409Y19609*X140561Y19761*X140561Y20371*X139951Y19761*X139951Y20371*X139014Y20218D2*X139319Y20523D1*X139319Y19609*X139014Y19609D2*X139624Y19609D1*X135959Y15949D2*X135763Y16142D1*X135374Y16142*X135179Y15949*X135179Y15169*X135374Y14973*X135763Y14973*X135959Y15169*X135959Y15949*X135179Y15169*X134788Y14973D2*X134008Y14973D1*X134399Y14973D2*X134399Y16142D1*X134008Y15753*X133228Y16142D2*X133619Y16142D1*X133424Y16142D2*X133424Y15169D1*X133228Y14973*X133035Y14973*X132839Y15169*X77386Y10846D2*X77386Y10236D1*X78930Y10084D2*X78930Y10541D1*X78778Y10693*X78321Y10693*X77996Y10846D2*X77996Y10236D1*X77843Y10084*X77539Y10084*X77386Y10236*X77996Y10846*X77843Y10998*X77539Y10998*X77386Y10846*X77061Y10846D2*X76909Y10998D1*X76604Y10998*X76451Y10846*X76451Y10236*X76604Y10084*X76909Y10084*X77061Y10236*X77061Y10846*X76451Y10236*X75514Y10084D2*X76124Y10084D1*X75819Y10084D2*X75819Y10998D1*X75514Y10693*X59759Y15169D2*X59563Y14973D1*X59174Y14973*X58979Y15169*X57808Y15169D2*X58003Y14973D1*X58199Y14973*X58395Y15169*X58395Y16142*X58588Y16142D2*X58199Y16142D1*X59563Y16142D2*X59759Y15949D1*X59759Y15169*X59759Y15558D2*X59174Y15558D1*X58979Y15753*X58979Y15949*X59174Y16142*X59563Y16142*X59880Y34785D2*X59576Y35090D1*X60490Y35090*X60490Y35395D2*X60490Y34785D1*X60338Y35720D2*X59728Y35720D1*X59576Y35872*X59576Y36177*X59728Y36332*X60338Y36332D2*X59728Y36332D1*X60338Y35720*X60490Y35872*X60490Y36177*X60338Y36332*X60338Y36657D2*X59728Y36657D1*X59576Y36810*X59576Y37114*X59728Y37267*X60338Y37267*X60490Y37114*X60490Y36810*X60338Y36657*X59728Y37267*X59880Y38049D2*X59880Y37592D1*X60490Y37592*X60490Y38202D2*X60033Y38202D1*X59880Y38049*X18237Y76129D2*X18433Y75933D1*X18628Y75933*X18821Y76129*X18821Y77102*X19017Y77102D2*X18628Y77102D1*X19408Y76713D2*X19797Y77102D1*X19797Y75933*X20188Y75933D2*X19408Y75933D1*X70307Y76129D2*X70503Y75933D1*X70698Y75933*X70891Y76129*X70891Y77102*X71087Y77102D2*X70698Y77102D1*X71478Y76909D2*X71671Y77102D1*X72062Y77102*X72258Y76909*X72258Y76713*X71478Y75933*X72258Y75933*X115760Y60820D2*X115456Y61125D1*X116370Y61125*X116370Y61430D2*X116370Y60820D1*X116218Y61755D2*X115608Y61755D1*X115456Y61907*X115456Y62212*X115608Y62367*X116218Y62367D2*X115608Y62367D1*X116218Y61755*X116370Y61907*X116370Y62212*X116218Y62367*X116218Y62692D2*X115608Y62692D1*X115456Y62845*X115456Y63149*X115608Y63302*X116218Y63302D2*X115608Y63302D1*X116218Y62692*X116370Y62845*X116370Y63149*X116218Y63302*X116370Y63627D2*X115760Y63627D1*X115760Y64084*X115913Y64237*X116370Y64237*X127457Y76129D2*X127653Y75933D1*X127848Y75933*X128041Y76129*X128041Y77102*X128237Y77102D2*X127848Y77102D1*X128628Y76909D2*X128821Y77102D1*X129212Y77102*X129408Y76909*X129408Y76713*X129212Y76518*X129408Y76129D2*X129408Y76322D1*X129212Y76518*X129017Y76518*X128628Y76129D2*X128821Y75933D1*X129212Y75933*X129408Y76129*X179527Y76129D2*X179723Y75933D1*X179918Y75933*X180111Y76129*X179918Y77102D2*X180307Y77102D1*X180111Y76129D2*X180111Y77102D1*X181282Y75933D2*X181282Y77102D1*X180698Y76518*X181478Y76518*X231966Y62090D2*X231661Y62395D1*X232575Y62395*X232575Y62700D2*X232575Y62090D1*X232423Y63025D2*X231813Y63025D1*X231661Y63177*X231661Y63482*X231813Y63637*X232423Y63637D2*X231813Y63637D1*X232423Y63025*X232575Y63177*X232575Y63482*X232423Y63637*X232423Y63962D2*X231813Y63962D1*X231661Y64115*X231661Y64419*X231813Y64572*X232423Y64572D2*X231813Y64572D1*X232423Y63962*X232575Y64115*X232575Y64419*X232423Y64572*X232575Y64897D2*X231966Y64897D1*X231966Y65354*X232118Y65507*X232575Y65507*X36352Y67513D2*X36977Y66886D1*X193342Y15809D2*X193342Y15182D1*X194747Y15651D2*X194277Y15337D1*X194747Y15024*X194277Y15964D2*X194277Y15024D1*X193967Y15809D2*X193967Y15182D1*X193812Y15024*X193497Y15024*X193342Y15182*X193967Y15809*X193812Y15964*X193497Y15964*X193342Y15809*X192405Y15651D2*X192720Y15964D1*X192720Y15024*X192405Y15024D2*X193032Y15024D1*X185722Y15809D2*X185722Y15182D1*X187127Y15651D2*X186657Y15337D1*X187127Y15024*X186657Y15964D2*X186657Y15024D1*X186347Y15809D2*X186347Y15182D1*X186192Y15024*X185877Y15024*X185722Y15182*X186347Y15809*X186192Y15964*X185877Y15964*X185722Y15809*X184785Y15651D2*X185100Y15964D1*X185100Y15024*X184785Y15024D2*X185412Y15024D1*X176832Y15809D2*X176832Y15182D1*X178237Y15651D2*X177767Y15337D1*X178237Y15024*X177767Y15964D2*X177767Y15024D1*X177457Y15809D2*X177457Y15182D1*X177302Y15024*X176987Y15024*X176832Y15182*X177457Y15809*X177302Y15964*X176987Y15964*X176832Y15809*X175895Y15651D2*X176210Y15964D1*X176210Y15024*X175895Y15024D2*X176522Y15024D1*X150495Y13111D2*X150810Y13424D1*X150810Y12484*X151122Y12484D2*X150495Y12484D1*X151432Y12642D2*X151432Y13269D1*X151587Y13424*X151902Y13424*X152057Y13269*X152057Y12642*X151902Y12484*X151587Y12484*X151432Y12642*X152057Y13269*X152837Y13111D2*X152367Y12797D1*X152837Y12484*X152367Y13424D2*X152367Y12484D1*X152837Y19461D2*X152367Y19147D1*X152837Y18834*X152367Y19774D2*X152367Y18834D1*X152057Y19619D2*X151902Y19774D1*X151587Y19774*X151432Y19619*X151432Y18992*X151587Y18834*X151902Y18834*X152057Y18992*X152057Y19619*X151432Y18992*X151122Y18834D2*X150495Y18834D1*X150810Y18834D2*X150810Y19774D1*X150495Y19461*X14917Y36106D2*X14605Y36419D1*X20632Y36106D2*X20320Y36419D1*X23038Y37198D2*X22098Y37198D1*X26347Y36106D2*X26035Y36419D1*X32062Y36106D2*X31750Y36419D1*X34468Y37198D2*X33528Y37198D1*X37777Y36106D2*X37465Y36419D1*X43492Y36106D2*X43180Y36419D1*X45898Y37198D2*X44958Y37198D1*X49207Y36106D2*X48895Y36419D1*X51613Y37198D2*X50673Y37198D1*X54610Y36419D2*X54922Y36106D1*X55550Y38448D2*X55237Y37978D1*X54922Y38448*X54610Y37978D2*X55550Y37978D1*X54767Y37668D2*X54610Y37511D1*X54610Y37198*X54767Y37041*X55392Y37041*X55550Y37198*X55550Y37511*X55392Y37668*X54767Y37668*X55392Y37041*X55550Y36106D2*X55550Y36733D1*X54610Y36419D2*X55550Y36419D1*X53017Y36106D2*X52705Y36419D1*X53645Y36419*X53645Y36733D2*X53645Y36106D1*X53487Y37041D2*X52862Y37041D1*X52705Y37198*X52705Y37511*X52862Y37668*X53487Y37668D2*X52862Y37668D1*X53487Y37041*X53645Y37198*X53645Y37511*X53487Y37668*X53645Y38448D2*X53332Y37978D1*X53017Y38448*X52705Y37978D2*X53645Y37978D1*X50830Y38600D2*X51455Y38600D1*X50830Y39228D2*X51455Y39228D1*X51613Y39070*X51613Y38755*X51455Y38600*X50830Y39228*X50673Y39070*X50673Y38755*X50830Y38600*X50673Y38290D2*X50830Y38290D1*X51455Y37663*X51613Y37663*X51143Y37356D2*X51143Y36728D1*X50673Y37198*X50673Y38290D2*X50673Y37663D1*X49207Y38448D2*X49522Y37978D1*X49835Y38448*X48895Y37978D2*X49835Y37978D1*X49052Y37668D2*X48895Y37511D1*X48895Y37198*X49052Y37041*X49677Y37041*X49835Y37198*X49835Y37511*X49677Y37668*X49052Y37668*X49677Y37041*X49835Y36106D2*X49835Y36733D1*X48895Y36419D2*X49835Y36419D1*X47302Y36106D2*X46990Y36419D1*X47930Y36419*X47930Y36733D2*X47930Y36106D1*X47772Y37041D2*X47147Y37041D1*X46990Y37198*X46990Y37511*X47147Y37668*X47772Y37668D2*X47930Y37511D1*X47930Y37198*X47772Y37041*X47147Y37668*X47772Y37668*X47930Y38448D2*X47617Y37978D1*X47302Y38448*X46990Y37978D2*X47930Y37978D1*X45115Y38600D2*X45740Y38600D1*X45115Y39228D2*X45740Y39228D1*X45898Y39070*X45898Y38755*X45740Y38600*X45115Y39228*X44958Y39070*X44958Y38755*X45115Y38600*X44958Y38290D2*X45115Y38290D1*X45740Y37663*X45898Y37663*X45428Y37356D2*X45428Y36728D1*X44958Y37198*X44958Y38290D2*X44958Y37663D1*X44120Y38448D2*X43807Y37978D1*X43492Y38448*X43180Y37978D2*X44120Y37978D1*X43337Y37668D2*X43180Y37511D1*X43180Y37198*X43337Y37041*X43962Y37041*X44120Y37198*X44120Y37511*X43962Y37668*X43337Y37668*X43962Y37041*X44120Y36106D2*X44120Y36733D1*X43180Y36419D2*X44120Y36419D1*X41587Y36106D2*X41275Y36419D1*X42215Y36419*X42215Y36733D2*X42215Y36106D1*X42057Y37041D2*X41432Y37041D1*X41275Y37198*X41275Y37511*X41432Y37668*X42057Y37668D2*X41432Y37668D1*X42057Y37041*X42215Y37198*X42215Y37511*X42057Y37668*X42215Y38448D2*X41902Y37978D1*X41587Y38448*X41275Y37978D2*X42215Y37978D1*X39400Y38600D2*X40025Y38600D1*X39400Y39228D2*X40025Y39228D1*X40183Y39070*X40183Y38755*X40025Y38600*X39400Y39228*X39243Y39070*X39243Y38755*X39400Y38600*X39243Y37663D2*X39243Y38290D1*X39713Y37356D2*X39713Y36728D1*X39243Y37198*X40183Y37198*X40183Y37663D2*X40025Y37663D1*X39400Y38290*X39243Y38290*X38405Y38448D2*X38092Y37978D1*X37777Y38448*X37465Y37978D2*X38405Y37978D1*X37622Y37668D2*X37465Y37511D1*X37465Y37198*X37622Y37041*X38247Y37041*X38405Y37198*X38405Y37511*X38247Y37668*X37622Y37668*X38247Y37041*X38405Y36106D2*X38405Y36733D1*X37465Y36419D2*X38405Y36419D1*X35872Y36106D2*X35560Y36419D1*X36500Y36419*X36500Y36733D2*X36500Y36106D1*X36342Y37041D2*X35717Y37041D1*X35560Y37198*X35560Y37511*X35717Y37668*X36342Y37668D2*X35717Y37668D1*X36342Y37041*X36500Y37198*X36500Y37511*X36342Y37668*X36500Y38448D2*X36187Y37978D1*X35872Y38448*X35560Y37978D2*X36500Y37978D1*X33685Y38600D2*X34310Y38600D1*X33685Y39228D2*X34310Y39228D1*X34468Y39070*X34468Y38755*X34310Y38600*X33685Y39228*X33528Y39070*X33528Y38755*X33685Y38600*X33528Y38290D2*X33685Y38290D1*X34310Y37663*X34468Y37663*X33998Y37356D2*X33998Y36728D1*X33528Y37198*X33528Y38290D2*X33528Y37663D1*X32690Y38448D2*X32377Y37978D1*X32062Y38448*X31750Y37978D2*X32690Y37978D1*X31907Y37668D2*X31750Y37511D1*X31750Y37198*X31907Y37041*X32532Y37041*X32690Y37198*X32690Y37511*X32532Y37668*X31907Y37668*X32532Y37041*X32690Y36106D2*X32690Y36733D1*X31750Y36419D2*X32690Y36419D1*X30157Y36106D2*X29845Y36419D1*X30785Y36419*X30785Y36733D2*X30785Y36106D1*X30627Y37041D2*X30002Y37041D1*X29845Y37198*X29845Y37511*X30002Y37668*X30627Y37668*X30785Y37511*X30785Y37198*X30627Y37041*X30002Y37668*X30157Y38448D2*X30472Y37978D1*X30785Y38448*X29845Y37978D2*X30785Y37978D1*X27970Y38600D2*X28595Y38600D1*X27970Y39228D2*X28595Y39228D1*X28753Y39070*X28753Y38755*X28595Y38600*X27970Y39228*X27813Y39070*X27813Y38755*X27970Y38600*X27813Y37663D2*X27813Y38290D1*X28283Y37356D2*X28283Y36728D1*X27813Y37198*X28753Y37198*X28753Y37663D2*X28595Y37663D1*X27970Y38290*X27813Y38290*X26975Y38448D2*X26662Y37978D1*X26347Y38448*X26035Y37978D2*X26975Y37978D1*X26192Y37668D2*X26035Y37511D1*X26035Y37198*X26192Y37041*X26817Y37041*X26975Y37198*X26975Y37511*X26817Y37668*X26192Y37668*X26817Y37041*X26975Y36106D2*X26975Y36733D1*X26035Y36419D2*X26975Y36419D1*X24442Y36106D2*X24130Y36419D1*X25070Y36419*X25070Y36733D2*X25070Y36106D1*X24912Y37041D2*X24287Y37041D1*X24130Y37198*X24130Y37511*X24287Y37668*X24912Y37668D2*X24287Y37668D1*X24912Y37041*X25070Y37198*X25070Y37511*X24912Y37668*X25070Y38448D2*X24757Y37978D1*X24442Y38448*X24130Y37978D2*X25070Y37978D1*X22255Y38600D2*X22880Y38600D1*X22255Y39228D2*X22880Y39228D1*X23038Y39070*X23038Y38755*X22880Y38600*X22255Y39228*X22098Y39070*X22098Y38755*X22255Y38600*X22098Y38290D2*X22255Y38290D1*X22880Y37663*X23038Y37663*X22568Y37356D2*X22568Y36728D1*X22098Y37198*X22098Y38290D2*X22098Y37663D1*X21260Y38448D2*X20947Y37978D1*X20632Y38448*X20320Y37978D2*X21260Y37978D1*X20477Y37668D2*X20320Y37511D1*X20320Y37198*X20477Y37041*X21102Y37041*X21260Y37198*X21260Y37511*X21102Y37668*X20477Y37668*X21102Y37041*X21260Y36106D2*X21260Y36733D1*X20320Y36419D2*X21260Y36419D1*X18727Y36106D2*X18415Y36419D1*X19355Y36419*X19355Y36733D2*X19355Y36106D1*X19197Y37041D2*X18572Y37041D1*X18415Y37198*X18415Y37511*X18572Y37668*X19197Y37668D2*X19355Y37511D1*X19355Y37198*X19197Y37041*X18572Y37668*X19197Y37668*X19355Y38448D2*X19042Y37978D1*X18727Y38448*X18415Y37978D2*X19355Y37978D1*X16540Y38600D2*X17165Y38600D1*X16540Y39228D2*X17165Y39228D1*X17323Y39070*X17323Y38755*X17165Y38600*X16540Y39228*X16383Y39070*X16383Y38755*X16540Y38600*X16383Y37663D2*X16383Y38290D1*X16853Y37356D2*X16853Y36728D1*X16383Y37198*X17323Y37198*X17323Y37663D2*X17165Y37663D1*X16540Y38290*X16383Y38290*X15545Y38448D2*X15232Y37978D1*X14917Y38448*X14605Y37978D2*X15545Y37978D1*X14762Y37668D2*X14605Y37511D1*X14605Y37198*X14762Y37041*X15387Y37041*X15545Y37198*X15545Y37511*X15387Y37668*X14762Y37668*X15387Y37041*X15545Y36106D2*X15545Y36733D1*X14605Y36419D2*X15545Y36419D1*X13012Y36106D2*X12700Y36419D1*X13640Y36419*X13640Y36733D2*X13640Y36106D1*X13482Y37041D2*X12857Y37041D1*X12700Y37198*X12700Y37511*X12857Y37668*X13482Y37668D2*X12857Y37668D1*X13482Y37041*X13640Y37198*X13640Y37511*X13482Y37668*X13640Y38448D2*X13327Y37978D1*X13012Y38448*X12700Y37978D2*X13640Y37978D1*X10825Y38290D2*X10668Y38290D1*X10668Y37663*X11138Y37356D2*X11138Y36728D1*X10668Y37198*X11608Y37198*X11608Y37663D2*X11450Y37663D1*X10825Y38290*X11450Y38600D2*X10825Y38600D1*X10668Y38755*X10668Y39070*X10825Y39228*X11450Y39228*X11608Y39070*X11608Y38755*X11450Y38600*X10825Y39228*X10952Y67513D2*X10795Y67513D1*X10795Y66886*X11265Y66578D2*X11265Y65951D1*X10795Y66421*X11735Y66421*X11735Y66886D2*X11577Y66886D1*X10952Y67513*X10952Y68450D2*X10795Y68293D1*X10795Y67978*X10952Y67823*X11577Y67823*X11735Y67978D2*X11735Y68293D1*X11577Y68450*X10952Y68450*X11577Y67823*X11735Y67978*X17302Y67823D2*X17927Y67823D1*X17302Y68450D2*X17927Y68450D1*X18085Y68293*X18085Y67978*X17927Y67823*X17302Y68450*X17145Y68293*X17145Y67978*X17302Y67823*X17145Y66886D2*X17145Y67513D1*X17302Y67513*X17927Y66886*X18085Y66886*X17615Y66578D2*X17615Y65951D1*X17145Y66421*X18085Y66421*X23495Y66421D2*X24435Y66421D1*X23652Y67513D2*X24277Y66886D1*X24435Y66886*X23965Y66578D2*X23965Y65951D1*X23495Y66421*X23495Y66886D2*X23495Y67513D1*X23652Y67513*X23652Y68450D2*X23495Y68293D1*X23495Y67978*X23652Y67823*X24277Y67823*X24435Y67978D2*X24435Y68293D1*X24277Y68450*X23652Y68450*X24277Y67823*X24435Y67978*X30002Y67513D2*X29845Y67513D1*X29845Y66886*X30315Y66578D2*X30315Y65951D1*X29845Y66421*X30785Y66421*X30785Y66886D2*X30627Y66886D1*X30002Y67513*X30002Y68450D2*X29845Y68293D1*X29845Y67978*X30002Y67823*X30627Y67823*X30785Y67978D2*X30785Y68293D1*X30627Y68450*X30002Y68450*X30627Y67823*X30785Y67978*X36352Y67513D2*X36195Y67513D1*X36195Y66886*X36665Y66578D2*X36665Y65951D1*X36195Y66421*X37135Y66421*X36977Y66886D2*X37135Y66886D1*X36352Y68450D2*X36195Y68293D1*X36195Y67978*X36352Y67823*X36977Y67823*X37135Y67978D2*X37135Y68293D1*X36977Y68450*X36352Y68450*X36977Y67823*X37135Y67978*X42702Y67513D2*X42545Y67513D1*X42545Y66886*X43015Y66578D2*X43015Y65951D1*X42545Y66421*X43485Y66421*X43485Y66886D2*X43327Y66886D1*X42702Y67513*X42702Y68450D2*X42545Y68293D1*X42545Y67978*X42702Y67823*X43327Y67823*X43485Y67978D2*X43485Y68293D1*X43327Y68450*X42702Y68450*X43327Y67823*X43485Y67978*X49052Y67513D2*X48895Y67513D1*X48895Y66886*X49365Y66578D2*X49365Y65951D1*X48895Y66421*X49835Y66421*X49835Y66886D2*X49677Y66886D1*X49052Y67513*X49052Y68450D2*X48895Y68293D1*X48895Y67978*X49052Y67823*X49677Y67823*X49835Y67978D2*X49835Y68293D1*X49677Y68450*X49052Y68450*X49677Y67823*X49835Y67978*X55402Y67823D2*X56027Y67823D1*X55402Y68450D2*X56027Y68450D1*X56185Y68293*X56185Y67978*X56027Y67823*X55402Y68450*X55245Y68293*X55245Y67978*X55402Y67823*X55245Y66886D2*X55245Y67513D1*X55402Y67513*X56027Y66886*X56185Y66886*X55715Y66578D2*X55715Y65951D1*X55245Y66421*X56185Y66421*X120670Y60046D2*X120045Y60046D1*X120828Y61450D2*X120515Y60980D1*X120200Y61450*X119888Y60980D2*X120828Y60980D1*X120045Y60673D2*X120670Y60673D1*X120828Y60516*X120828Y60201*X120670Y60046*X120045Y60673*X119888Y60516*X119888Y60201*X120045Y60046*X120200Y59108D2*X119888Y59423D1*X120828Y59423*X120828Y59108D2*X120828Y59736D1*X126550Y59108D2*X126238Y59423D1*X127178Y59423*X127178Y59736D2*X127178Y59108D1*X127178Y61450D2*X126865Y60980D1*X126550Y61450*X126238Y60980D2*X127178Y60980D1*X126395Y60673D2*X126238Y60516D1*X126238Y60201*X126395Y60046*X127020Y60046*X127178Y60201D2*X127178Y60516D1*X127020Y60673*X126395Y60673*X127020Y60046*X127178Y60201*X133370Y60046D2*X132745Y60046D1*X133528Y61450D2*X133215Y60980D1*X132900Y61450*X132588Y60980D2*X133528Y60980D1*X132745Y60673D2*X133370Y60673D1*X133528Y60516*X133528Y60201*X133370Y60046*X132745Y60673*X132588Y60516*X132588Y60201*X132745Y60046*X132900Y59108D2*X132588Y59423D1*X133528Y59423*X133528Y59108D2*X133528Y59736D1*X139250Y59108D2*X138938Y59423D1*X139878Y59423*X139878Y59736D2*X139878Y59108D1*X139878Y61450D2*X139565Y60980D1*X139250Y61450*X138938Y60980D2*X139878Y60980D1*X139095Y60673D2*X138938Y60516D1*X138938Y60201*X139095Y60046*X139720Y60046*X139878Y60201D2*X139878Y60516D1*X139720Y60673*X139095Y60673*X139720Y60046*X139878Y60201*X146070Y60046D2*X145445Y60046D1*X146228Y61450D2*X145915Y60980D1*X145600Y61450*X145288Y60980D2*X146228Y60980D1*X145445Y60673D2*X146070Y60673D1*X146228Y60516*X146228Y60201*X146070Y60046*X145445Y60673*X145288Y60516*X145288Y60201*X145445Y60046*X145600Y59108D2*X145288Y59423D1*X146228Y59423*X146228Y59108D2*X146228Y59736D1*X151950Y59108D2*X151638Y59423D1*X152578Y59423*X152578Y59736D2*X152578Y59108D1*X152578Y61450D2*X152265Y60980D1*X151950Y61450*X151638Y60980D2*X152578Y60980D1*X151795Y60673D2*X151638Y60516D1*X151638Y60201*X151795Y60046*X152420Y60046*X152578Y60201D2*X152578Y60516D1*X152420Y60673*X151795Y60673*X152420Y60046*X152578Y60201*X158770Y60046D2*X158145Y60046D1*X158928Y61450D2*X158615Y60980D1*X158300Y61450*X157988Y60980D2*X158928Y60980D1*X158145Y60673D2*X158770Y60673D1*X158928Y60516*X158928Y60201*X158770Y60046*X158145Y60673*X157988Y60516*X157988Y60201*X158145Y60046*X158300Y59108D2*X157988Y59423D1*X158928Y59423*X158928Y59108D2*X158928Y59736D1*X164650Y59108D2*X164338Y59423D1*X165278Y59423*X165278Y59736D2*X165278Y59108D1*X165120Y60046D2*X164495Y60046D1*X164338Y60201*X164338Y60516*X164495Y60673*X165120Y60673D2*X164495Y60673D1*X165120Y60046*X165278Y60201*X165278Y60516*X165120Y60673*X164338Y60980D2*X165278Y60980D1*X164650Y61450D2*X164965Y60980D1*X165278Y61450*X219532Y66256D2*X219220Y65943D1*X221559Y65316D2*X221089Y65629D1*X221559Y65943*X221089Y66256D2*X221089Y65316D1*X220782Y66101D2*X220624Y66256D1*X220312Y66256*X220154Y66101*X220154Y65474*X220312Y65316*X220624Y65316*X220782Y65474*X220782Y66101*X220154Y65474*X219220Y65316D2*X219847Y65316D1*X219532Y66256D2*X219532Y65316D1*X219377Y67887D2*X219377Y68514D1*X220782Y67729D2*X220312Y68042D1*X220782Y68356*X220312Y68669D2*X220312Y67729D1*X220002Y68514D2*X220002Y67887D1*X219847Y67729*X219532Y67729*X219377Y67887*X220002Y68514*X219847Y68669*X219532Y68669*X219377Y68514*X218440Y68356D2*X218755Y68669D1*X218755Y67729*X218440Y67729D2*X219067Y67729D1*X211912Y66256D2*X211600Y65943D1*X213939Y65316D2*X213469Y65629D1*X213939Y65943*X213469Y66256D2*X213469Y65316D1*X213162Y66101D2*X213004Y66256D1*X212692Y66256*X212534Y66101*X212534Y65474*X212692Y65316*X213004Y65316*X213162Y65474*X213162Y66101*X212534Y65474*X211600Y65316D2*X212227Y65316D1*X211912Y66256D2*X211912Y65316D1*X211757Y67887D2*X211757Y68514D1*X213162Y67729D2*X212692Y68042D1*X213162Y68356*X212692Y68669D2*X212692Y67729D1*X212382Y68514D2*X212382Y67887D1*X212227Y67729*X211912Y67729*X211757Y67887*X212382Y68514*X212227Y68669*X211912Y68669*X211757Y68514*X210820Y68356D2*X211135Y68669D1*X211135Y67729*X210820Y67729D2*X211447Y67729D1*X204292Y66256D2*X203980Y65943D1*X206319Y65316D2*X205849Y65629D1*X206319Y65943*X205849Y66256D2*X205849Y65316D1*X205542Y66101D2*X205384Y66256D1*X205072Y66256*X204914Y66101*X204914Y65474*X205072Y65316*X205384Y65316*X205542Y65474*X205542Y66101*X204914Y65474*X203980Y65316D2*X204607Y65316D1*X204292Y66256D2*X204292Y65316D1*X204137Y67887D2*X204137Y68514D1*X205542Y67729D2*X205072Y68042D1*X205542Y68356*X205072Y68669D2*X205072Y67729D1*X204762Y68514D2*X204762Y67887D1*X204607Y67729*X204292Y67729*X204137Y67887*X204762Y68514*X204607Y68669*X204292Y68669*X204137Y68514*X203200Y68356D2*X203515Y68669D1*X203515Y67729*X203200Y67729D2*X203827Y67729D1*X196672Y66256D2*X196360Y65943D1*X198699Y65316D2*X198229Y65629D1*X198699Y65943*X198229Y66256D2*X198229Y65316D1*X197922Y66101D2*X197764Y66256D1*X197452Y66256*X197294Y66101*X197294Y65474*X197452Y65316*X197764Y65316*X197922Y65474*X197922Y66101*X197294Y65474*X196360Y65316D2*X196987Y65316D1*X196672Y66256D2*X196672Y65316D1*X196517Y67887D2*X196517Y68514D1*X197922Y67729D2*X197452Y68042D1*X197922Y68356*X197452Y68669D2*X197452Y67729D1*X197142Y68514D2*X197142Y67887D1*X196987Y67729*X196672Y67729*X196517Y67887*X197142Y68514*X196987Y68669*X196672Y68669*X196517Y68514*X195580Y68356D2*X195895Y68669D1*X195895Y67729*X195580Y67729D2*X196207Y67729D1*X192583Y67800D2*X192270Y67330D1*X191955Y67800*X191643Y67330D2*X192583Y67330D1*X191800Y67023D2*X191643Y66866D1*X191643Y66551*X191800Y66396*X192425Y66396*X192583Y66551*X192583Y66866*X192425Y67023*X191800Y67023*X192425Y66396*X192583Y66086D2*X192583Y65458D1*X192583Y65773D2*X191643Y65773D1*X191955Y65458*X188145Y59108D2*X187833Y59423D1*X188773Y59423*X188773Y59736D2*X188773Y59108D1*X188615Y60046D2*X187990Y60046D1*X187833Y60201*X187833Y60516*X187990Y60673*X188615Y60673*X188773Y60516*X188773Y60201*X188615Y60046*X187990Y60673*X188773Y60980D2*X187833Y60980D1*X188773Y61450D2*X188460Y60980D1*X188145Y61450*X184094Y65316D2*X183624Y65629D1*X184094Y65943*X183624Y66256D2*X183624Y65316D1*X183317Y66101D2*X183159Y66256D1*X182847Y66256*X182690Y66101*X182690Y65474*X182847Y65316*X183159Y65316*X183317Y65474*X183317Y66101*X182690Y65474*X181755Y65316D2*X182382Y65316D1*X182067Y65316D2*X182067Y66256D1*X181755Y65943*X181912Y67887D2*X181912Y68514D1*X183317Y67729D2*X182847Y68042D1*X183317Y68356*X182847Y68669D2*X182847Y67729D1*X182537Y68514D2*X182537Y67887D1*X182382Y67729*X182067Y67729*X181912Y67887*X182537Y68514*X182382Y68669*X182067Y68669*X181912Y68514*X180975Y68356D2*X181290Y68669D1*X181290Y67729*X180975Y67729D2*X181602Y67729D1*X174447Y66256D2*X174135Y65943D1*X176474Y65316D2*X176004Y65629D1*X176474Y65943*X176004Y66256D2*X176004Y65316D1*X175697Y66101D2*X175539Y66256D1*X175227Y66256*X175070Y66101*X175070Y65474*X175227Y65316*X175539Y65316*X175697Y65474*X175697Y66101*X175070Y65474*X174135Y65316D2*X174762Y65316D1*X174447Y66256D2*X174447Y65316D1*X174292Y67887D2*X174292Y68514D1*X175697Y67729D2*X175227Y68042D1*X175697Y68356*X175227Y68669D2*X175227Y67729D1*X174917Y68514D2*X174917Y67887D1*X174762Y67729*X174447Y67729*X174292Y67887*X174917Y68514*X174762Y68669*X174447Y68669*X174292Y68514*X173355Y68356D2*X173670Y68669D1*X173670Y67729*X173355Y67729D2*X173982Y67729D1*X164622Y67513D2*X164465Y67513D1*X164465Y66886*X164935Y66578D2*X164935Y65951D1*X164465Y66421*X165405Y66421*X165405Y66886D2*X165247Y66886D1*X164622Y67513*X165247Y67823D2*X164622Y67823D1*X164465Y67978*X164622Y68450D2*X165247Y68450D1*X165405Y68293*X165405Y67978*X165247Y67823*X164622Y68450*X164465Y68293*X164465Y67978*X158272Y67823D2*X158897Y67823D1*X158272Y68450D2*X158897Y68450D1*X159055Y68293*X159055Y67978*X158897Y67823*X158272Y68450*X158115Y68293*X158115Y67978*X158272Y67823*X158115Y66886D2*X158115Y67513D1*X158585Y66578D2*X158585Y65951D1*X158115Y66421*X159055Y66421*X159055Y66886D2*X158897Y66886D1*X158272Y67513*X158115Y67513*X151922Y67513D2*X151765Y67513D1*X151765Y66886*X152235Y66578D2*X152235Y65951D1*X151765Y66421*X152705Y66421*X152705Y66886D2*X152547Y66886D1*X151922Y67513*X152547Y67823D2*X151922Y67823D1*X151765Y67978*X151922Y68450D2*X152547Y68450D1*X152705Y68293*X152705Y67978*X152547Y67823*X151922Y68450*X151765Y68293*X151765Y67978*X145572Y67823D2*X146197Y67823D1*X145572Y68450D2*X146197Y68450D1*X146355Y68293*X146355Y67978*X146197Y67823*X145572Y68450*X145415Y68293*X145415Y67978*X145572Y67823*X145415Y66886D2*X145415Y67513D1*X145885Y66578D2*X145885Y65951D1*X145415Y66421*X146355Y66421*X146355Y66886D2*X146197Y66886D1*X145572Y67513*X145415Y67513*X139222Y67513D2*X139065Y67513D1*X139065Y66886*X139535Y66578D2*X139535Y65951D1*X139065Y66421*X140005Y66421*X140005Y66886D2*X139847Y66886D1*X139222Y67513*X139847Y67823D2*X139222Y67823D1*X139065Y67978*X139222Y68450D2*X139847Y68450D1*X140005Y68293*X140005Y67978*X139847Y67823*X139222Y68450*X139065Y68293*X139065Y67978*X132872Y67823D2*X133497Y67823D1*X132872Y68450D2*X133497Y68450D1*X133655Y68293*X133655Y67978*X133497Y67823*X132872Y68450*X132715Y68293*X132715Y67978*X132872Y67823*X132715Y66886D2*X132715Y67513D1*X133185Y66578D2*X133185Y65951D1*X132715Y66421*X133655Y66421*X133655Y66886D2*X133497Y66886D1*X132872Y67513*X132715Y67513*X126522Y67513D2*X126365Y67513D1*X126365Y66886*X126835Y66578D2*X126835Y65951D1*X126365Y66421*X127305Y66421*X127305Y66886D2*X127147Y66886D1*X126522Y67513*X127147Y67823D2*X126522Y67823D1*X126365Y67978*X126365Y68293*X126522Y68450D2*X127147Y68450D1*X127305Y68293*X127305Y67978*X127147Y67823*X126522Y68450*X126365Y68293*X120172Y68450D2*X120015Y68293D1*X120015Y67978*X120172Y67823*X120797Y67823*X120955Y67978*X120955Y68293*X120797Y68450*X120172Y68450*X120797Y67823*X120955Y66886D2*X120797Y66886D1*X120015Y66421D2*X120955Y66421D1*X120015Y66886D2*X120015Y67513D1*X120172Y67513*X120797Y66886*X120485Y66578D2*X120485Y65951D1*X120015Y66421*X110312Y66256D2*X110000Y65943D1*X112339Y65316D2*X111869Y65629D1*X112339Y65943*X111869Y66256D2*X111869Y65316D1*X111562Y66101D2*X111404Y66256D1*X111092Y66256*X110934Y66101*X110934Y65474*X111092Y65316*X111404Y65316*X111562Y65474*X111562Y66101*X110934Y65474*X110000Y65316D2*X110627Y65316D1*X110312Y66256D2*X110312Y65316D1*X110157Y67887D2*X110157Y68514D1*X111562Y67729D2*X111092Y68042D1*X111562Y68356*X111092Y68669D2*X111092Y67729D1*X110782Y68514D2*X110782Y67887D1*X110627Y67729*X110312Y67729*X110157Y67887*X110782Y68514*X110627Y68669*X110312Y68669*X110157Y68514*X109220Y68356D2*X109535Y68669D1*X109535Y67729*X109220Y67729D2*X109847Y67729D1*X102692Y66256D2*X102380Y65943D1*X104719Y65316D2*X104249Y65629D1*X104719Y65943*X104249Y66256D2*X104249Y65316D1*X103942Y66101D2*X103784Y66256D1*X103472Y66256*X103314Y66101*X103314Y65474*X103472Y65316*X103784Y65316*X103942Y65474*X103942Y66101*X103314Y65474*X102380Y65316D2*X103007Y65316D1*X102692Y66256D2*X102692Y65316D1*X102537Y67887D2*X102537Y68514D1*X103942Y67729D2*X103472Y68042D1*X103942Y68356*X103472Y68669D2*X103472Y67729D1*X103162Y68514D2*X103162Y67887D1*X103007Y67729*X102692Y67729*X102537Y67887*X103162Y68514*X103007Y68669*X102692Y68669*X102537Y68514*X101600Y68356D2*X101915Y68669D1*X101915Y67729*X101600Y67729D2*X102227Y67729D1*X96322Y67729D2*X95852Y68042D1*X96322Y68356*X93980Y68356D2*X94295Y68669D1*X94295Y67729*X94607Y67729D2*X93980Y67729D1*X94917Y67887D2*X95072Y67729D1*X95387Y67729*X95542Y67887*X95542Y68514*X94917Y67887*X94917Y68514*X95072Y68669*X95387Y68669*X95542Y68514*X95852Y67729D2*X95852Y68669D1*X95694Y65474D2*X95694Y66101D1*X97099Y65316D2*X96629Y65629D1*X97099Y65943*X96629Y66256D2*X96629Y65316D1*X96322Y66101D2*X96322Y65474D1*X96164Y65316*X95852Y65316*X95694Y65474*X96322Y66101*X96164Y66256*X95852Y66256*X95694Y66101*X94760Y65943D2*X95072Y66256D1*X95072Y65316*X94760Y65316D2*X95387Y65316D1*X78925Y59108D2*X78613Y59423D1*X79553Y59423*X79553Y59736D2*X79553Y59108D1*X79395Y60046D2*X78770Y60046D1*X78613Y60201*X78613Y60516*X78770Y60673*X79395Y60673D2*X78770Y60673D1*X79395Y60046*X79553Y60201*X79553Y60516*X79395Y60673*X78613Y60980D2*X79553Y60980D1*X78925Y61450D2*X79240Y60980D1*X79553Y61450*X83205Y66396D2*X82580Y66396D1*X89479Y65316D2*X89009Y65629D1*X89479Y65943*X89009Y66256D2*X89009Y65316D1*X88702Y66101D2*X88544Y66256D1*X88232Y66256*X88074Y66101*X88074Y65474*X88232Y65316*X88544Y65316*X88702Y65474*X88702Y66101*X88074Y65474*X87140Y65316D2*X87767Y65316D1*X87452Y65316D2*X87452Y66256D1*X87140Y65943*X87297Y67887D2*X87297Y68514D1*X88702Y67729D2*X88232Y68042D1*X88702Y68356*X88232Y68669D2*X88232Y67729D1*X87922Y68514D2*X87922Y67887D1*X87767Y67729*X87452Y67729*X87297Y67887*X87922Y68514*X87767Y68669*X87452Y68669*X87297Y68514*X86360Y68356D2*X86675Y68669D1*X86675Y67729*X86360Y67729D2*X86987Y67729D1*X83363Y67800D2*X83050Y67330D1*X82735Y67800*X82423Y67330D2*X83363Y67330D1*X82580Y67023D2*X83205Y67023D1*X83363Y66866*X83363Y66551*X83205Y66396*X82580Y67023*X82423Y66866*X82423Y66551*X82580Y66396*X82735Y65458D2*X82423Y65773D1*X83363Y66086D2*X83363Y65458D1*X82423Y65773D2*X83363Y65773D1*X72847Y66256D2*X72535Y65943D1*X74874Y65316D2*X74404Y65629D1*X74874Y65943*X74404Y66256D2*X74404Y65316D1*X74097Y66101D2*X73939Y66256D1*X73627Y66256*X73470Y66101*X73470Y65474*X73627Y65316*X73939Y65316*X74097Y65474*X74097Y66101*X73470Y65474*X72535Y65316D2*X73162Y65316D1*X72847Y66256D2*X72847Y65316D1*X72692Y67887D2*X72692Y68514D1*X74097Y67729D2*X73627Y68042D1*X74097Y68356*X73627Y68669D2*X73627Y67729D1*X73317Y68514D2*X73317Y67887D1*X73162Y67729*X72847Y67729*X72692Y67887*X73317Y68514*X73162Y68669*X72847Y68669*X72692Y68514*X71755Y68356D2*X72070Y68669D1*X72070Y67729*X71755Y67729D2*X72382Y67729D1*X66477Y67729D2*X66007Y68042D1*X66477Y68356*X64135Y68356D2*X64450Y68669D1*X64450Y67729*X64762Y67729D2*X64135Y67729D1*X65072Y67887D2*X65227Y67729D1*X65542Y67729*X65697Y67887*X65697Y68514*X65072Y67887*X65072Y68514*X65227Y68669*X65542Y68669*X65697Y68514*X66007Y67729D2*X66007Y68669D1*X65850Y65474D2*X65850Y66101D1*X67254Y65316D2*X66784Y65629D1*X67254Y65943*X66784Y66256D2*X66784Y65316D1*X66477Y66101D2*X66477Y65474D1*X66319Y65316*X66007Y65316*X65850Y65474*X66477Y66101*X66319Y66256*X66007Y66256*X65850Y66101*X64915Y65943D2*X65227Y66256D1*X65227Y65316*X64915Y65316D2*X65542Y65316D1*X55430Y59108D2*X55118Y59423D1*X56058Y59736D2*X56058Y59108D1*X55118Y59423D2*X56058Y59423D1*X55118Y60201D2*X55275Y60046D1*X55900Y60046*X56058Y61450D2*X55745Y60980D1*X55430Y61450*X55118Y60980D2*X56058Y60980D1*X55275Y60673D2*X55900Y60673D1*X56058Y60516*X56058Y60201*X55900Y60046*X55275Y60673*X55118Y60516*X55118Y60201*X49550Y60046D2*X48925Y60046D1*X49708Y61450D2*X49395Y60980D1*X49080Y61450*X48768Y60980D2*X49708Y60980D1*X48925Y60673D2*X49550Y60673D1*X49708Y60516*X49708Y60201*X49550Y60046*X48925Y60673*X48768Y60516*X48768Y60201*X48925Y60046*X49080Y59108D2*X48768Y59423D1*X49708Y59736D2*X49708Y59108D1*X48768Y59423D2*X49708Y59423D1*X42730Y59108D2*X42418Y59423D1*X43358Y59736D2*X43358Y59108D1*X42418Y59423D2*X43358Y59423D1*X42418Y60201D2*X42575Y60046D1*X43200Y60046*X43358Y61450D2*X43045Y60980D1*X42730Y61450*X42418Y60980D2*X43358Y60980D1*X42575Y60673D2*X43200Y60673D1*X43358Y60516*X43358Y60201*X43200Y60046*X42575Y60673*X42418Y60516*X42418Y60201*X36850Y60046D2*X36225Y60046D1*X37008Y61450D2*X36695Y60980D1*X36380Y61450*X36068Y60980D2*X37008Y60980D1*X36225Y60673D2*X36850Y60673D1*X37008Y60516*X37008Y60201*X36850Y60046*X36225Y60673*X36068Y60516*X36068Y60201*X36225Y60046*X36380Y59108D2*X36068Y59423D1*X37008Y59736D2*X37008Y59108D1*X36068Y59423D2*X37008Y59423D1*X30030Y59108D2*X29718Y59423D1*X30658Y59736D2*X30658Y59108D1*X29718Y59423D2*X30658Y59423D1*X29718Y60201D2*X29875Y60046D1*X30500Y60046*X30658Y61450D2*X30345Y60980D1*X30030Y61450*X29718Y60980D2*X30658Y60980D1*X29875Y60673D2*X30500Y60673D1*X30658Y60516*X30658Y60201*X30500Y60046*X29875Y60673*X29718Y60516*X29718Y60201*X24150Y60046D2*X23525Y60046D1*X24308Y61450D2*X23995Y60980D1*X23680Y61450*X23368Y60980D2*X24308Y60980D1*X23525Y60673D2*X24150Y60673D1*X24308Y60516*X24308Y60201*X24150Y60046*X23525Y60673*X23368Y60516*X23368Y60201*X23525Y60046*X23680Y59108D2*X23368Y59423D1*X24308Y59736D2*X24308Y59108D1*X23368Y59423D2*X24308Y59423D1*X17330Y59108D2*X17018Y59423D1*X17958Y59423*X17958Y59736D2*X17958Y59108D1*X17800Y60046D2*X17175Y60046D1*X17018Y60201*X17018Y60516*X17175Y60673*X17800Y60673D2*X17175Y60673D1*X17800Y60046*X17958Y60201*X17958Y60516*X17800Y60673*X17958Y61450D2*X17645Y60980D1*X17330Y61450*X17018Y60980D2*X17958Y60980D1*X11608Y61450D2*X11295Y60980D1*X10980Y61450*X10668Y60980D2*X11608Y60980D1*X10825Y60673D2*X10668Y60516D1*X10668Y60201*X10825Y60046*X11450Y60046*X11608Y60201*X11608Y60516*X11450Y60673*X10825Y60673*X11450Y60046*X11608Y59736D2*X11608Y59108D1*X11608Y59423D2*X10668Y59423D1*X10980Y59108*X10980Y51488D2*X10668Y51803D1*X11608Y51803*X11608Y52116D2*X11608Y51488D1*X11608Y53830D2*X11295Y53360D1*X10980Y53830*X10668Y53360D2*X11608Y53360D1*X10825Y53053D2*X10668Y52896D1*X10668Y52581*X10825Y52426*X11450Y52426*X11608Y52581D2*X11608Y52896D1*X11450Y53053*X10825Y53053*X11450Y52426*X11608Y52581*X17800Y52426D2*X17175Y52426D1*X17958Y53830D2*X17645Y53360D1*X17330Y53830*X17018Y53360D2*X17958Y53360D1*X17175Y53053D2*X17800Y53053D1*X17958Y52896*X17958Y52581*X17800Y52426*X17175Y53053*X17018Y52896*X17018Y52581*X17175Y52426*X17330Y51488D2*X17018Y51803D1*X17958Y51803*X17958Y51488D2*X17958Y52116D1*X23680Y51488D2*X23368Y51803D1*X24308Y51803*X24308Y52116D2*X24308Y51488D1*X24308Y53830D2*X23995Y53360D1*X23680Y53830*X23368Y53360D2*X24308Y53360D1*X23525Y53053D2*X23368Y52896D1*X23368Y52581*X23525Y52426*X24150Y52426*X24308Y52581D2*X24308Y52896D1*X24150Y53053*X23525Y53053*X24150Y52426*X24308Y52581*X30500Y52426D2*X29875Y52426D1*X30658Y53830D2*X30345Y53360D1*X30030Y53830*X29718Y53360D2*X30658Y53360D1*X29875Y53053D2*X30500Y53053D1*X30658Y52896*X30658Y52581*X30500Y52426*X29875Y53053*X29718Y52896*X29718Y52581*X29875Y52426*X30030Y51488D2*X29718Y51803D1*X30658Y51803*X30658Y51488D2*X30658Y52116D1*X36380Y51488D2*X36068Y51803D1*X37008Y51803*X37008Y52116D2*X37008Y51488D1*X37008Y53830D2*X36695Y53360D1*X36380Y53830*X36068Y53360D2*X37008Y53360D1*X36225Y53053D2*X36068Y52896D1*X36068Y52581*X36225Y52426*X36850Y52426*X37008Y52581D2*X37008Y52896D1*X36850Y53053*X36225Y53053*X36850Y52426*X37008Y52581*X43200Y52426D2*X42575Y52426D1*X43358Y53830D2*X43045Y53360D1*X42730Y53830*X42418Y53360D2*X43358Y53360D1*X42575Y53053D2*X43200Y53053D1*X43358Y52896*X43358Y52581*X43200Y52426*X42575Y53053*X42418Y52896*X42418Y52581*X42575Y52426*X42730Y51488D2*X42418Y51803D1*X43358Y51803*X43358Y51488D2*X43358Y52116D1*X49080Y51488D2*X48768Y51803D1*X49708Y51803*X49708Y52116D2*X49708Y51488D1*X49080Y53830D2*X49395Y53360D1*X49708Y53830*X48768Y53360D2*X49708Y53360D1*X48925Y53053D2*X48768Y52896D1*X48768Y52581*X48925Y52426*X49550Y52426*X49708Y52581D2*X49708Y52896D1*X49550Y53053*X48925Y53053*X49550Y52426*X49708Y52581*X55900Y52426D2*X55275Y52426D1*X56058Y53830D2*X55745Y53360D1*X55430Y53830*X55118Y53360D2*X56058Y53360D1*X55275Y53053D2*X55900Y53053D1*X56058Y52896*X56058Y52581*X55900Y52426*X55275Y53053*X55118Y52896*X55118Y52581*X55275Y52426*X55430Y51488D2*X55118Y51803D1*X56058Y51803*X56058Y51488D2*X56058Y52116D1*X64135Y50576D2*X64450Y50889D1*X64762Y49949D2*X64135Y49949D1*X64450Y50889D2*X64450Y49949D1*X65227Y50889D2*X65072Y50734D1*X65072Y50107*X66477Y49949D2*X66007Y50262D1*X66477Y50576*X66007Y50889D2*X66007Y49949D1*X65697Y50734D2*X65697Y50107D1*X65542Y49949*X65227Y49949*X65072Y50107*X65697Y50734*X65542Y50889*X65227Y50889*X64915Y52608D2*X65227Y52921D1*X65227Y51981*X65542Y51981D2*X64915Y51981D1*X65850Y52139D2*X65850Y52766D1*X66007Y52921*X66319Y52921*X66477Y52766*X66477Y52139D2*X66477Y52766D1*X65850Y52139*X66007Y51981*X66319Y51981*X66477Y52139*X66784Y52921D2*X66784Y51981D1*X67254Y52608D2*X66784Y52294D1*X67254Y51981*X71755Y50576D2*X72070Y50889D1*X72382Y49949D2*X71755Y49949D1*X72070Y50889D2*X72070Y49949D1*X72847Y50889D2*X72692Y50734D1*X72692Y50107*X74097Y49949D2*X73627Y50262D1*X74097Y50576*X73627Y50889D2*X73627Y49949D1*X73317Y50734D2*X73317Y50107D1*X73162Y49949*X72847Y49949*X72692Y50107*X73317Y50734*X73162Y50889*X72847Y50889*X72535Y52608D2*X72847Y52921D1*X72847Y51981*X73162Y51981D2*X72535Y51981D1*X73470Y52139D2*X73470Y52766D1*X73627Y52921*X73939Y52921*X74097Y52766*X74097Y52139*X73939Y51981*X73627Y51981*X73470Y52139*X74097Y52766*X74404Y51981D2*X74404Y52921D1*X74874Y51981D2*X74404Y52294D1*X74874Y52608*X79395Y52426D2*X78770Y52426D1*X79553Y53830D2*X79240Y53360D1*X78925Y53830*X78613Y53360D2*X79553Y53360D1*X78770Y53053D2*X79395Y53053D1*X79553Y52896*X79553Y52581*X79395Y52426*X78770Y53053*X78613Y52896*X78613Y52581*X78770Y52426*X78925Y51488D2*X78613Y51803D1*X79553Y51803*X79553Y51488D2*X79553Y52116D1*X88702Y49941D2*X88232Y49627D1*X88702Y49314*X88232Y50254D2*X88232Y49314D1*X87922Y50099D2*X87767Y50254D1*X87452Y50254*X86360Y49941D2*X86675Y50254D1*X86675Y49314*X86987Y49314D2*X86360Y49314D1*X87297Y49472D2*X87452Y49314D1*X87767Y49314*X87922Y49472*X87922Y50099*X87297Y49472*X87297Y50099*X87452Y50254*X87140Y51973D2*X87452Y52286D1*X87452Y51346*X87767Y51346D2*X87140Y51346D1*X88074Y51504D2*X88074Y52131D1*X88232Y52286*X88544Y52286*X88702Y52131*X88702Y51504D2*X88702Y52131D1*X88074Y51504*X88232Y51346*X88544Y51346*X88702Y51504*X89009Y52286D2*X89009Y51346D1*X89479Y51973D2*X89009Y51659D1*X89479Y51346*X93980Y49941D2*X94295Y50254D1*X94295Y49314*X94607Y49314D2*X93980Y49314D1*X94917Y49472D2*X94917Y50099D1*X95072Y50254*X96322Y49941D2*X95852Y49627D1*X96322Y49314*X95852Y50254D2*X95852Y49314D1*X95542Y50099D2*X95542Y49472D1*X95387Y49314*X95072Y49314*X94917Y49472*X95542Y50099*X95387Y50254*X95072Y50254*X94760Y51973D2*X95072Y52286D1*X95072Y51346*X95387Y51346D2*X94760Y51346D1*X95694Y51504D2*X95694Y52131D1*X95852Y52286*X96164Y52286*X96322Y52131*X96322Y51504D2*X96322Y52131D1*X95694Y51504*X95852Y51346*X96164Y51346*X96322Y51504*X96629Y52286D2*X96629Y51346D1*X97099Y51973D2*X96629Y51659D1*X97099Y51346*X101600Y49941D2*X101915Y50254D1*X102227Y49314D2*X101600Y49314D1*X101915Y50254D2*X101915Y49314D1*X102692Y50254D2*X102537Y50099D1*X102537Y49472*X103942Y49314D2*X103472Y49627D1*X103942Y49941*X103472Y50254D2*X103472Y49314D1*X103162Y50099D2*X103162Y49472D1*X103007Y49314*X102692Y49314*X102537Y49472*X103162Y50099*X103007Y50254*X102692Y50254*X102380Y51973D2*X102692Y52286D1*X102692Y51346*X103007Y51346D2*X102380Y51346D1*X103314Y51504D2*X103314Y52131D1*X103472Y52286*X103784Y52286*X103942Y52131*X103942Y51504D2*X103942Y52131D1*X103314Y51504*X103472Y51346*X103784Y51346*X103942Y51504*X104249Y52286D2*X104249Y51346D1*X104719Y51973D2*X104249Y51659D1*X104719Y51346*X109220Y49941D2*X109535Y50254D1*X109535Y49314*X109847Y49314D2*X109220Y49314D1*X110157Y49472D2*X110157Y50099D1*X110312Y50254*X111562Y49941D2*X111092Y49627D1*X111562Y49314*X111092Y50254D2*X111092Y49314D1*X110782Y50099D2*X110782Y49472D1*X110627Y49314*X110312Y49314*X110157Y49472*X110782Y50099*X110627Y50254*X110312Y50254*X110000Y51973D2*X110312Y52286D1*X110312Y51346*X110627Y51346D2*X110000Y51346D1*X110934Y51504D2*X110934Y52131D1*X111092Y52286*X111404Y52286*X111562Y52131*X111562Y51504D2*X111562Y52131D1*X110934Y51504*X111092Y51346*X111404Y51346*X111562Y51504*X111869Y52286D2*X111869Y51346D1*X112339Y51973D2*X111869Y51659D1*X112339Y51346*X120200Y51488D2*X119888Y51803D1*X120828Y51803*X120828Y52116D2*X120828Y51488D1*X120828Y53830D2*X120515Y53360D1*X120200Y53830*X119888Y53360D2*X120828Y53360D1*X120045Y53053D2*X119888Y52896D1*X119888Y52581*X120045Y52426*X120670Y52426*X120828Y52581D2*X120828Y52896D1*X120670Y53053*X120045Y53053*X120670Y52426*X120828Y52581*X127020Y52426D2*X126395Y52426D1*X127178Y53830D2*X126865Y53360D1*X126550Y53830*X126238Y53360D2*X127178Y53360D1*X126395Y53053D2*X127020Y53053D1*X127178Y52896*X127178Y52581*X127020Y52426*X126395Y53053*X126238Y52896*X126238Y52581*X126395Y52426*X126550Y51488D2*X126238Y51803D1*X127178Y51803*X127178Y51488D2*X127178Y52116D1*X132900Y51488D2*X132588Y51803D1*X133528Y51803*X133528Y52116D2*X133528Y51488D1*X133528Y53830D2*X133215Y53360D1*X132900Y53830*X132588Y53360D2*X133528Y53360D1*X132745Y53053D2*X132588Y52896D1*X132588Y52581*X132745Y52426*X133370Y52426*X133528Y52581D2*X133528Y52896D1*X133370Y53053*X132745Y53053*X133370Y52426*X133528Y52581*X139720Y52426D2*X139095Y52426D1*X139878Y53830D2*X139565Y53360D1*X139250Y53830*X138938Y53360D2*X139878Y53360D1*X139095Y53053D2*X139720Y53053D1*X139878Y52896*X139878Y52581*X139720Y52426*X139095Y53053*X138938Y52896*X138938Y52581*X139095Y52426*X139250Y51488D2*X138938Y51803D1*X139878Y51803*X139878Y51488D2*X139878Y52116D1*X145600Y51488D2*X145288Y51803D1*X146228Y51803*X146228Y52116D2*X146228Y51488D1*X146228Y53830D2*X145915Y53360D1*X145600Y53830*X145288Y53360D2*X146228Y53360D1*X145445Y53053D2*X145288Y52896D1*X145288Y52581*X145445Y52426*X146070Y52426*X146228Y52581D2*X146228Y52896D1*X146070Y53053*X145445Y53053*X146070Y52426*X146228Y52581*X152420Y52426D2*X151795Y52426D1*X152578Y53830D2*X152265Y53360D1*X151950Y53830*X151638Y53360D2*X152578Y53360D1*X151795Y53053D2*X152420Y53053D1*X152578Y52896*X152578Y52581*X152420Y52426*X151795Y53053*X151638Y52896*X151638Y52581*X151795Y52426*X151950Y51488D2*X151638Y51803D1*X152578Y51803*X152578Y51488D2*X152578Y52116D1*X158300Y51488D2*X157988Y51803D1*X158928Y51803*X158928Y52116D2*X158928Y51488D1*X158928Y53830D2*X158615Y53360D1*X158300Y53830*X157988Y53360D2*X158928Y53360D1*X158145Y53053D2*X157988Y52896D1*X157988Y52581*X158145Y52426*X158770Y52426*X158928Y52581D2*X158928Y52896D1*X158770Y53053*X158145Y53053*X158770Y52426*X158928Y52581*X165120Y52426D2*X164495Y52426D1*X165278Y53830D2*X164965Y53360D1*X164650Y53830*X164338Y53360D2*X165278Y53360D1*X164495Y53053D2*X165120Y53053D1*X165278Y52896*X165278Y52581*X165120Y52426*X164495Y53053*X164338Y52896*X164338Y52581*X164495Y52426*X164650Y51488D2*X164338Y51803D1*X165278Y51803*X165278Y51488D2*X165278Y52116D1*X197922Y39146D2*X197452Y38832D1*X197922Y38519*X195580Y39146D2*X195895Y39459D1*X195895Y38519*X196207Y38519D2*X195580Y38519D1*X196517Y38677D2*X196517Y39304D1*X196672Y39459*X196987Y39459*X197142Y39304*X197452Y38519D2*X197452Y39459D1*X196987Y38519D2*X197142Y38677D1*X197142Y39304*X196517Y38677*X196672Y38519*X196987Y38519*X196995Y36733D2*X197307Y37046D1*X197307Y36106*X197622Y36106D2*X196995Y36106D1*X197930Y36264D2*X197930Y36891D1*X198087Y37046*X198399Y37046*X198557Y36891*X198557Y36264*X198399Y36106*X198087Y36106*X197930Y36264*X198557Y36891*X198864Y36106D2*X198864Y37046D1*X199334Y36106D2*X198864Y36419D1*X199334Y36733*X206812Y39146D2*X206342Y38832D1*X206812Y38519*X204470Y39146D2*X204785Y39459D1*X204785Y38519*X205097Y38519D2*X204470Y38519D1*X205407Y38677D2*X205407Y39304D1*X205562Y39459*X205877Y39459*X206032Y39304*X206342Y38519D2*X206342Y39459D1*X205877Y38519D2*X206032Y38677D1*X206032Y39304*X205407Y38677*X205562Y38519*X205877Y38519*X205885Y36733D2*X206197Y37046D1*X206197Y36106*X206512Y36106D2*X205885Y36106D1*X206820Y36264D2*X206977Y36106D1*X207289Y36106*X207447Y36264*X207447Y36891*X206820Y36264*X206820Y36891*X206977Y37046*X207289Y37046*X207447Y36891*X207754Y36106D2*X207754Y37046D1*X208224Y36106D2*X207754Y36419D1*X208224Y36733*X215087Y37046D2*X214775Y36733D1*X217114Y36106D2*X216644Y36419D1*X217114Y36733*X216644Y37046D2*X216644Y36106D1*X216337Y36891D2*X216179Y37046D1*X215867Y37046*X215710Y36891*X215710Y36264*X215867Y36106*X216179Y36106*X216337Y36264*X216337Y36891*X215710Y36264*X214775Y36106D2*X215402Y36106D1*X215087Y37046D2*X215087Y36106D1*X213360Y39146D2*X213675Y39459D1*X213675Y38519*X213987Y38519D2*X213360Y38519D1*X214297Y38677D2*X214297Y39304D1*X214452Y39459*X214767Y39459*X214922Y39304*X214922Y38677*X214767Y38519*X214452Y38519*X214297Y38677*X214922Y39304*X215702Y39146D2*X215232Y38832D1*X215702Y38519*X215232Y39459D2*X215232Y38519D1*X221559Y51973D2*X221089Y51659D1*X221559Y51346*X219220Y51973D2*X219532Y52286D1*X219532Y51346*X219847Y51346D2*X219220Y51346D1*X220154Y51504D2*X220154Y52131D1*X220312Y52286*X220624Y52286*X220782Y52131*X221089Y51346D2*X221089Y52286D1*X220624Y51346D2*X220782Y51504D1*X220782Y52131*X220154Y51504*X220312Y51346*X220624Y51346*X220782Y49941D2*X220312Y49627D1*X220782Y49314*X220312Y50254D2*X220312Y49314D1*X220002Y50099D2*X219847Y50254D1*X219532Y50254*X219377Y50099*X219377Y49472*X219532Y49314*X219847Y49314*X220002Y49472*X220002Y50099*X219377Y49472*X219067Y49314D2*X218440Y49314D1*X218755Y49314D2*X218755Y50254D1*X218440Y49941*X213939Y51973D2*X213469Y51659D1*X213939Y51346*X211600Y51973D2*X211912Y52286D1*X211912Y51346*X212227Y51346D2*X211600Y51346D1*X212534Y51504D2*X212534Y52131D1*X212692Y52286*X213004Y52286*X213162Y52131*X213469Y51346D2*X213469Y52286D1*X213004Y51346D2*X213162Y51504D1*X213162Y52131*X212534Y51504*X212692Y51346*X213004Y51346*X213162Y49941D2*X212692Y49627D1*X213162Y49314*X212692Y50254D2*X212692Y49314D1*X212382Y50099D2*X212227Y50254D1*X211912Y50254*X211757Y50099*X211757Y49472*X211912Y49314*X212227Y49314*X212382Y49472*X212382Y50099*X211757Y49472*X211447Y49314D2*X210820Y49314D1*X211135Y49314D2*X211135Y50254D1*X210820Y49941*X206319Y51973D2*X205849Y51659D1*X206319Y51346*X203980Y51973D2*X204292Y52286D1*X204292Y51346*X204607Y51346D2*X203980Y51346D1*X204914Y51504D2*X204914Y52131D1*X205072Y52286*X205384Y52286*X205542Y52131*X205849Y51346D2*X205849Y52286D1*X205384Y51346D2*X205542Y51504D1*X205542Y52131*X204914Y51504*X205072Y51346*X205384Y51346*X205542Y49314D2*X205072Y49627D1*X205542Y49941*X205072Y50254D2*X205072Y49314D1*X204762Y50099D2*X204607Y50254D1*X204292Y50254*X204137Y50099*X204137Y49472*X204292Y49314*X204607Y49314*X204762Y49472*X204762Y50099*X204137Y49472*X203827Y49314D2*X203200Y49314D1*X203515Y49314D2*X203515Y50254D1*X203200Y49941*X198699Y51346D2*X198229Y51659D1*X198699Y51973*X196360Y51973D2*X196672Y52286D1*X196672Y51346*X196987Y51346D2*X196360Y51346D1*X197294Y51504D2*X197294Y52131D1*X197452Y52286*X197764Y52286*X197922Y52131*X198229Y51346D2*X198229Y52286D1*X197764Y51346D2*X197922Y51504D1*X197922Y52131*X197294Y51504*X197452Y51346*X197764Y51346*X197922Y49941D2*X197452Y49627D1*X197922Y49314*X197452Y50254D2*X197452Y49314D1*X197142Y50099D2*X196987Y50254D1*X196672Y50254*X196517Y50099*X196517Y49472*X196672Y49314*X196987Y49314*X197142Y49472*X197142Y50099*X196517Y49472*X196207Y49314D2*X195580Y49314D1*X195895Y49314D2*X195895Y50254D1*X195580Y49941*X188615Y52426D2*X187990Y52426D1*X188773Y53830D2*X188460Y53360D1*X188145Y53830*X187833Y53360D2*X188773Y53360D1*X187990Y53053D2*X188615Y53053D1*X188773Y52896*X188773Y52581*X188615Y52426*X187990Y53053*X187833Y52896*X187833Y52581*X187990Y52426*X188145Y51488D2*X187833Y51803D1*X188773Y52116D2*X188773Y51488D1*X187833Y51803D2*X188773Y51803D1*X184094Y51981D2*X183624Y52294D1*X184094Y52608*X181755Y52608D2*X182067Y52921D1*X182067Y51981*X182382Y51981D2*X181755Y51981D1*X182690Y52139D2*X182690Y52766D1*X182847Y52921*X183159Y52921*X183317Y52766*X183624Y51981D2*X183624Y52921D1*X183159Y51981D2*X183317Y52139D1*X183317Y52766*X182690Y52139*X182847Y51981*X183159Y51981*X183317Y49949D2*X182847Y50262D1*X183317Y50576*X182847Y50889D2*X182847Y49949D1*X182537Y50734D2*X182382Y50889D1*X182067Y50889*X181912Y50734*X181912Y50107*X182067Y49949*X182382Y49949*X182537Y50107*X182537Y50734*X181912Y50107*X181602Y49949D2*X180975Y49949D1*X181290Y49949D2*X181290Y50889D1*X180975Y50576*X176474Y51981D2*X176004Y52294D1*X176474Y52608*X176004Y52921D2*X176004Y51981D1*X175697Y52766D2*X175539Y52921D1*X175227Y52921*X175070Y52766*X175070Y52139*X175227Y51981*X175539Y51981*X175697Y52139*X175697Y52766*X175070Y52139*X174135Y51981D2*X174762Y51981D1*X174135Y52608D2*X174447Y52921D1*X174447Y51981*X174292Y50107D2*X174292Y50734D1*X175697Y49949D2*X175227Y50262D1*X175697Y50576*X175227Y50889D2*X175227Y49949D1*X174917Y50734D2*X174917Y50107D1*X174762Y49949*X174447Y49949*X174292Y50107*X174917Y50734*X174762Y50889*X174447Y50889*X174292Y50734*X173355Y50576D2*X173670Y50889D1*X173670Y49949*X173355Y49949D2*X173982Y49949D1*X164287Y42761D2*X163975Y42448D1*X166314Y41821D2*X165844Y42134D1*X166314Y42448*X165844Y42761D2*X165844Y41821D1*X165537Y42606D2*X165379Y42761D1*X165067Y42761*X164910Y42606*X164910Y41979*X165067Y41821*X165379Y41821*X165537Y41979*X165537Y42606*X164910Y41979*X163975Y41821D2*X164602Y41821D1*X164287Y42761D2*X164287Y41821D1*X163975Y44353D2*X164287Y44666D1*X164287Y43726*X164602Y43726D2*X163975Y43726D1*X164910Y43884D2*X164910Y44511D1*X165067Y44666*X165379Y44666*X165537Y44511*X165537Y43884D2*X165537Y44511D1*X164910Y43884*X165067Y43726*X165379Y43726*X165537Y43884*X165844Y44666D2*X165844Y43726D1*X166314Y44353D2*X165844Y44039D1*X166314Y43726*X173934Y43726D2*X173464Y44039D1*X173934Y44353*X173464Y44666D2*X173464Y43726D1*X173157Y44511D2*X172999Y44666D1*X172687Y44666*X172530Y44511*X172530Y43884D2*X172687Y43726D1*X172999Y43726*X173157Y43884*X173157Y44511*X172530Y43884*X172530Y44511*X171595Y44353D2*X171907Y44666D1*X171907Y43726*X171595Y43726D2*X172222Y43726D1*X171595Y42448D2*X171907Y42761D1*X171907Y41821*X172222Y41821D2*X171595Y41821D1*X172530Y41979D2*X172530Y42606D1*X172687Y42761*X172999Y42761*X173157Y42606*X173157Y41979*X172999Y41821*X172687Y41821*X172530Y41979*X173157Y42606*X173464Y41821D2*X173464Y42761D1*X173934Y41821D2*X173464Y42134D1*X173934Y42448*X178435Y42321D2*X178750Y42634D1*X179062Y41694D2*X178435Y41694D1*X178750Y42634D2*X178750Y41694D1*X180777Y43599D2*X180307Y43912D1*X180777Y44226*X178435Y44226D2*X178750Y44539D1*X178750Y43599*X179062Y43599D2*X178435Y43599D1*X179372Y43757D2*X179372Y44384D1*X179527Y44539*X179842Y44539*X179997Y44384*X180307Y43599D2*X180307Y44539D1*X179842Y43599D2*X179997Y43757D1*X179997Y44384*X179372Y43757*X179527Y43599*X179842Y43599*X179997Y42479D2*X179842Y42634D1*X179527Y42634*X179372Y42479*X179372Y41852*X179997Y41852D2*X179997Y42479D1*X179372Y41852*X179527Y41694*X179842Y41694*X179997Y41852*X180307Y42634D2*X180307Y41694D1*X180777Y42321D2*X180307Y42007D1*X180777Y41694*X188397Y41694D2*X187927Y42007D1*X188397Y42321*X187927Y42634D2*X187927Y41694D1*X187617Y42479D2*X187462Y42634D1*X187147Y42634*X186992Y42479*X186992Y41852D2*X187147Y41694D1*X187462Y41694*X187617Y41852*X187617Y42479*X186992Y41852*X186992Y42479*X186055Y42321D2*X186370Y42634D1*X186682Y41694D2*X186055Y41694D1*X186370Y42634D2*X186370Y41694D1*X186055Y44226D2*X186370Y44539D1*X186370Y43599*X186682Y43599D2*X186055Y43599D1*X187617Y44384D2*X187462Y44539D1*X187147Y44539*X186992Y44384*X186992Y43757*X187617Y43757D2*X187617Y44384D1*X186992Y43757*X187147Y43599*X187462Y43599*X187617Y43757*X187927Y44539D2*X187927Y43599D1*X188397Y44226D2*X187927Y43912D1*X188397Y43599*X196017Y43599D2*X195547Y43912D1*X196017Y44226*X193675Y44226D2*X193990Y44539D1*X193990Y43599*X194302Y43599D2*X193675Y43599D1*X194612Y43757D2*X194612Y44384D1*X194767Y44539*X195082Y44539*X195237Y44384*X195547Y43599D2*X195547Y44539D1*X195082Y43599D2*X195237Y43757D1*X195237Y44384*X194612Y43757*X194767Y43599*X195082Y43599*X194945Y41686D2*X195260Y41999D1*X195260Y41059*X195572Y41059D2*X194945Y41059D1*X195882Y41217D2*X195882Y41844D1*X196037Y41999*X196352Y41999*X196507Y41844*X196507Y41217*X196352Y41059*X196037Y41059*X195882Y41217*X196507Y41844*X196817Y41059D2*X196817Y41999D1*X197287Y41059D2*X196817Y41372D1*X197287Y41686*X204137Y43757D2*X204137Y44384D1*X205542Y43599D2*X205072Y43912D1*X205542Y44226*X205072Y44539D2*X205072Y43599D1*X204762Y44384D2*X204762Y43757D1*X204607Y43599*X204292Y43599*X204137Y43757*X204762Y44384*X204607Y44539*X204292Y44539*X204137Y44384*X203200Y44226D2*X203515Y44539D1*X203515Y43599*X203827Y43599D2*X203200Y43599D1*X203835Y41686D2*X204150Y41999D1*X204150Y41059*X204462Y41059D2*X203835Y41059D1*X204772Y41217D2*X204772Y41844D1*X204927Y41999*X205242Y41999*X205397Y41844*X205397Y41217*X205242Y41059*X204927Y41059*X204772Y41217*X205397Y41844*X205707Y41059D2*X205707Y41999D1*X206177Y41059D2*X205707Y41372D1*X206177Y41686*X214432Y43599D2*X213962Y43912D1*X214432Y44226*X213962Y44539D2*X213962Y43599D1*X213652Y44384D2*X213497Y44539D1*X213182Y44539*X213027Y44384*X213027Y43757D2*X213182Y43599D1*X213497Y43599*X213652Y43757*X213652Y44384*X213027Y43757*X213027Y44384*X212090Y44226D2*X212405Y44539D1*X212405Y43599*X212717Y43599D2*X212090Y43599D1*X212725Y41686D2*X213040Y41999D1*X213040Y41059*X213352Y41059D2*X212725Y41059D1*X213662Y41217D2*X213662Y41844D1*X213817Y41999*X214132Y41999*X214287Y41844*X214287Y41217*X214132Y41059*X213817Y41059*X213662Y41217*X214287Y41844*X214597Y41059D2*X214597Y41999D1*X215067Y41059D2*X214597Y41372D1*X215067Y41686*X223322Y43599D2*X222852Y43912D1*X223322Y44226*X220980Y44226D2*X221295Y44539D1*X221295Y43599*X221607Y43599D2*X220980Y43599D1*X221917Y43757D2*X221917Y44384D1*X222072Y44539*X222387Y44539*X222542Y44384*X222852Y43599D2*X222852Y44539D1*X222387Y43599D2*X222542Y43757D1*X222542Y44384*X221917Y43757*X222072Y43599*X222387Y43599*X222250Y41686D2*X222565Y41999D1*X222565Y41059*X222877Y41059D2*X222250Y41059D1*X223812Y41844D2*X223657Y41999D1*X223342Y41999*X223187Y41844*X223187Y41217*X223812Y41217D2*X223812Y41844D1*X223187Y41217*X223342Y41059*X223657Y41059*X223812Y41217*X224122Y41999D2*X224122Y41059D1*X224592Y41686D2*X224122Y41372D1*X224592Y41059*X225862Y39146D2*X225392Y38832D1*X225862Y38519*X223520Y39146D2*X223835Y39459D1*X223835Y38519*X224147Y38519D2*X223520Y38519D1*X224457Y38677D2*X224457Y39304D1*X224612Y39459*X224927Y39459*X225082Y39304*X225392Y38519D2*X225392Y39459D1*X224927Y38519D2*X225082Y38677D1*X225082Y39304*X224457Y38677*X224612Y38519*X224927Y38519*X224790Y36606D2*X225105Y36919D1*X225105Y35979*X225417Y35979D2*X224790Y35979D1*X226352Y36764D2*X226197Y36919D1*X225882Y36919*X225727Y36764*X225727Y36137*X226352Y36137D2*X226352Y36764D1*X225727Y36137*X225882Y35979*X226197Y35979*X226352Y36137*X226662Y36919D2*X226662Y35979D1*X227132Y36606D2*X226662Y36292D1*X227132Y35979*X234683Y24384D2*X233744Y24384D1*X234056Y26256D2*X234526Y26256D1*X234683Y29060D2*X234056Y29060D1*X234213Y29688D2*X234056Y29533D1*X234056Y29060*X234213Y28753D2*X234056Y28595D1*X234056Y28283*X234526Y28125D2*X234683Y28283D1*X234683Y28753*X234213Y28753*X234371Y28753D2*X234371Y28283D1*X234526Y28125*X234056Y27191D2*X234683Y27191D1*X234683Y27503D2*X234213Y27503D1*X234683Y27818D2*X234213Y27818D1*X234056Y27661*X234213Y27503*X234056Y27348*X234056Y27191*X234056Y26881D2*X234526Y26881D1*X234683Y26726*X234526Y26568*X234683Y26411*X234526Y26256*X234683Y25789D2*X234683Y25476D1*X234526Y25319*X234056Y25476D2*X234213Y25319D1*X234526Y25319*X234371Y25319D2*X234371Y25946D1*X234213Y25946*X234056Y25789*X234056Y25476*X233744Y25011D2*X234683Y25011D1*X233744Y24384*X234056Y23139D2*X234056Y22670D1*X234213Y22512*X234371Y22670*X234371Y22982*X234526Y23139*X234683Y22982*X234683Y22512*X234683Y22047D2*X234683Y21735D1*X234526Y21577*X234371Y21577D2*X234371Y22205D1*X234213Y22205*X234056Y22047*X234056Y21735*X234213Y21577*X234526Y21577*X234056Y20643D2*X234683Y20643D1*X234683Y20955D2*X234213Y20955D1*X234683Y21270D2*X234213Y21270D1*X234056Y21112*X234213Y20955*X234056Y20798*X234056Y20643*X234213Y20333D2*X234056Y20175D1*X234056Y19863*X234526Y19705D2*X234683Y19863D1*X234683Y20333*X234213Y20333*X234371Y20333D2*X234371Y19863D1*X234526Y19705*X234526Y18771D2*X234683Y18928D1*X234683Y19083*X234526Y19240*X233744Y19240*X233744Y19083D2*X233744Y19398D1*D119*X80162Y9334D2*X74320Y9334D1*X74320Y11620D2*X80162Y11620D1*X72687Y15270D2*X72415Y14999D1*X71874Y14999*X71603Y15270*X71603Y16627*X72687Y15270D2*X72687Y16627D1*X74325Y15270D2*X74325Y15812D1*X74054Y16083*X73241Y16083*X73241Y14455*X73241Y14999D2*X74054Y14999D1*X74325Y15270*X74877Y14999D2*X75692Y14999D1*X75961Y15270*X75692Y15542*X75148Y15542*X74877Y15812*X75148Y16083*X75961Y16083*X77056Y16083D2*X76515Y16083D1*X76787Y16355D2*X76787Y15270D1*X77056Y14999*X77607Y16083D2*X77607Y14999D1*X77607Y15542D2*X78148Y16083D1*X78420Y16083*X78971Y15812D2*X78971Y15270D1*X79240Y14999*X79784Y14999*X80056Y15812D2*X79784Y16083D1*X79240Y16083*X78971Y15812*X78971Y15542D2*X80056Y15542D1*X80056Y15812*X80879Y16083D2*X81422Y16083D1*X81691Y15812*X81691Y14999*X81691Y15542D2*X80879Y15542D1*X80607Y15270*X80879Y14999*X81691Y14999*X82245Y14999D2*X82245Y16083D1*X82517Y16083*X82786Y15812*X83330Y15812D2*X83058Y16083D1*X82786Y15812*X82786Y14999*X83330Y15812D2*X83330Y14999D1*X85519Y15812D2*X86604Y15812D1*X85519Y14999D2*X85519Y16083D1*X86060Y16627*X86604Y16083*X86604Y14999*X88240Y16627D2*X88240Y14999D1*X88240Y16083D2*X87427Y16083D1*X87155Y15812*X87155Y15270*X87427Y14999*X88240Y14999*X89878Y16627D2*X89878Y14999D1*X89878Y16083D2*X89065Y16083D1*X88793Y15812*X88793Y15270*X89065Y14999*X89878Y14999*X90432Y16083D2*X90432Y14999D1*X90432Y15542D2*X90973Y16083D1*X91244Y16083*X117155Y23703D2*X117155Y22619D1*X199733Y35624D2*X196050Y35624D1*X210655Y52642D2*X214338Y52642D1*X214338Y50864D2*X210655Y50864D1*X210655Y50736D2*X214338Y50736D1*X214338Y48958D2*X210655Y48958D1*X218275Y48958D2*X221958Y48958D1*X221958Y50736D2*X218275Y50736D1*X218275Y50864D2*X221958Y50864D1*X221958Y52642D2*X218275Y52642D1*X233324Y60896D2*X233324Y66738D1*X231038Y66738D2*X231038Y60896D1*X221958Y64834D2*X218275Y64834D1*X218275Y66612D2*X221958Y66612D1*X221958Y67374D2*X218275Y67374D1*X218275Y69152D2*X221958Y69152D1*X214338Y69152D2*X210655Y69152D1*X210655Y67374D2*X214338Y67374D1*X214338Y66612D2*X210655Y66612D1*X210655Y64834D2*X214338Y64834D1*X189255Y58166D2*X189255Y61849D1*X187477Y61849D2*X187477Y58166D1*X124485Y70168D2*X124480Y70048D1*X124465Y69926*X124442Y69809*X124409Y69693*X124369Y69581*X124315Y69469*X124257Y69365*X124191Y69266*X124115Y69172*X124031Y69083*X123942Y69002*X123848Y68928*X121437Y70168D2*X121442Y70053D1*X121455Y69936*X121476Y69825*X121506Y69713*X121547Y69604*X121592Y69497*X121648Y69395*X121709Y69299*X121778Y69207*X121854Y69118*X121938Y69040*X122027Y68964*X124485Y70168D2*X124480Y70284D1*X124468Y70401*X124445Y70518*X124414Y70632*X124374Y70742*X124325Y70848*X124267Y70952*X124203Y71051*X124132Y71143*X124054Y71232*X123967Y71313*X123876Y71387*X121437Y70168D2*X121442Y70282D1*X121455Y70399*X121476Y70510*X121506Y70622*X121547Y70731*X121592Y70838*X121648Y70940*X121709Y71036*X121778Y71128*X121854Y71217*X121938Y71295*X122027Y71371*X130835Y70168D2*X130830Y70048D1*X130815Y69926*X130792Y69809*X130759Y69693*X130719Y69581*X130665Y69469*X130607Y69365*X130541Y69266*X130465Y69172*X130381Y69083*X130292Y69002*X130198Y68928*X127787Y70168D2*X127792Y70053D1*X127805Y69936*X127826Y69825*X127856Y69713*X127897Y69604*X127942Y69497*X127998Y69395*X128059Y69299*X128128Y69207*X128204Y69118*X128288Y69040*X128377Y68964*X130835Y70168D2*X130830Y70284D1*X130818Y70401*X130795Y70518*X130764Y70632*X130724Y70742*X130675Y70848*X130617Y70952*X130553Y71051*X130482Y71143*X130404Y71232*X130317Y71313*X130226Y71387*X127787Y70168D2*X127792Y70282D1*X127805Y70399*X127826Y70510*X127856Y70622*X127897Y70731*X127942Y70838*X127998Y70940*X128059Y71036*X128128Y71128*X128204Y71217*X128288Y71295*X128377Y71371*X137185Y70168D2*X137180Y70048D1*X137165Y69926*X137142Y69809*X137109Y69693*X137069Y69581*X137015Y69469*X136957Y69365*X136891Y69266*X136815Y69172*X136731Y69083*X136642Y69002*X136548Y68928*X134137Y70168D2*X134142Y70053D1*X134155Y69936*X134176Y69825*X134206Y69713*X134247Y69604*X134292Y69497*X134348Y69395*X134409Y69299*X134478Y69207*X134554Y69118*X134638Y69040*X134727Y68964*X137185Y70168D2*X137180Y70284D1*X137168Y70401*X137145Y70518*X137114Y70632*X137074Y70742*X137025Y70848*X136967Y70952*X136903Y71051*X136832Y71143*X136754Y71232*X136667Y71313*X136576Y71387*X134137Y70168D2*X134142Y70282D1*X134155Y70399*X134176Y70510*X134206Y70622*X134247Y70731*X134292Y70838*X134348Y70940*X134409Y71036*X134478Y71128*X134554Y71217*X134638Y71295*X134727Y71371*X143535Y70168D2*X143530Y70048D1*X143515Y69926*X143492Y69809*X143459Y69693*X143419Y69581*X143365Y69469*X143307Y69365*X143241Y69266*X143165Y69172*X143081Y69083*X142992Y69002*X142898Y68928*X140487Y70168D2*X140492Y70053D1*X140505Y69936*X140526Y69825*X140556Y69713*X140597Y69604*X140642Y69497*X140698Y69395*X140759Y69299*X140828Y69207*X140904Y69118*X140988Y69040*X141077Y68964*X143535Y70168D2*X143530Y70284D1*X143518Y70401*X143495Y70518*X143464Y70632*X143424Y70742*X143375Y70848*X143317Y70952*X143253Y71051*X143182Y71143*X143104Y71232*X143017Y71313*X142926Y71387*X140487Y70168D2*X140492Y70282D1*X140505Y70399*X140526Y70510*X140556Y70622*X140597Y70731*X140642Y70838*X140698Y70940*X140759Y71036*X140828Y71128*X140904Y71217*X140988Y71295*X141077Y71371*X149885Y70168D2*X149880Y70048D1*X149865Y69926*X149842Y69809*X149809Y69693*X149769Y69581*X149715Y69469*X149657Y69365*X149591Y69266*X149515Y69172*X149431Y69083*X149342Y69002*X149248Y68928*X146837Y70168D2*X146842Y70053D1*X146855Y69936*X146876Y69825*X146906Y69713*X146947Y69604*X146992Y69497*X147048Y69395*X147109Y69299*X147178Y69207*X147254Y69118*X147338Y69040*X147427Y68964*X149885Y70168D2*X149880Y70284D1*X149868Y70401*X149845Y70518*X149814Y70632*X149774Y70742*X149725Y70848*X149667Y70952*X149603Y71051*X149532Y71143*X149454Y71232*X149367Y71313*X149276Y71387*X146837Y70168D2*X146842Y70282D1*X146855Y70399*X146876Y70510*X146906Y70622*X146947Y70731*X146992Y70838*X147048Y70940*X147109Y71036*X147178Y71128*X147254Y71217*X147338Y71295*X147427Y71371*X156235Y70168D2*X156230Y70048D1*X156215Y69926*X156192Y69809*X156159Y69693*X156119Y69581*X156065Y69469*X156007Y69365*X155941Y69266*X155865Y69172*X155781Y69083*X155692Y69002*X155598Y68928*X153187Y70168D2*X153192Y70053D1*X153205Y69936*X153226Y69825*X153256Y69713*X153297Y69604*X153342Y69497*X153398Y69395*X153459Y69299*X153528Y69207*X153604Y69118*X153688Y69040*X153777Y68964*X156235Y70168D2*X156230Y70284D1*X156218Y70401*X156195Y70518*X156164Y70632*X156124Y70742*X156075Y70848*X156017Y70952*X155953Y71051*X155882Y71143*X155804Y71232*X155717Y71313*X155626Y71387*X153187Y70168D2*X153192Y70282D1*X153205Y70399*X153226Y70510*X153256Y70622*X153297Y70731*X153342Y70838*X153398Y70940*X153459Y71036*X153528Y71128*X153604Y71217*X153688Y71295*X153777Y71371*X162585Y70168D2*X162580Y70048D1*X162565Y69926*X162542Y69809*X162509Y69693*X162469Y69581*X162415Y69469*X162357Y69365*X162291Y69266*X162215Y69172*X162131Y69083*X162042Y69002*X161948Y68928*X159537Y70168D2*X159542Y70282D1*X159555Y70399*X159576Y70510*X159606Y70622*X159647Y70731*X159692Y70838*X159748Y70940*X159809Y71036*X159878Y71128*X159954Y71217*X160038Y71295*X160127Y71371*X162585Y70168D2*X162580Y70284D1*X162568Y70401*X162545Y70518*X162514Y70632*X162474Y70742*X162425Y70848*X162367Y70952*X162303Y71051*X162232Y71143*X162154Y71232*X162067Y71313*X161976Y71387*X159537Y70168D2*X159542Y70053D1*X159555Y69936*X159576Y69825*X159606Y69713*X159647Y69604*X159692Y69497*X159748Y69395*X159809Y69299*X159878Y69207*X159954Y69118*X160038Y69040*X160127Y68964*X168326Y71387D2*X168417Y71313D1*X168504Y71232*X168582Y71143*X168653Y71051*X168717Y70952*X168775Y70848*X168824Y70742*X168864Y70632*X168895Y70518*X168918Y70401*X168930Y70284*X168935Y70168*X166477Y68964D2*X166388Y69040D1*X166304Y69118*X166228Y69207*X166159Y69299*X166098Y69395*X166042Y69497*X165997Y69604*X165956Y69713*X165926Y69825*X165905Y69936*X165892Y70053*X165887Y70168*X166477Y71371D2*X166388Y71295D1*X166304Y71217*X166228Y71128*X166159Y71036*X166098Y70940*X166042Y70838*X165997Y70731*X165956Y70622*X165926Y70510*X165905Y70399*X165892Y70282*X165887Y70168*X168298Y68928D2*X168392Y69002D1*X168481Y69083*X168565Y69172*X168641Y69266*X168707Y69365*X168765Y69469*X168819Y69581*X168859Y69693*X168892Y69809*X168915Y69926*X168930Y70048*X168935Y70168*X167488Y73419D2*X167488Y73690D1*X168572Y74775*X168572Y75047*X167488Y75047*X162222Y75047D2*X161681Y74775D1*X161138Y74232*X161950Y74232*X162222Y73962*X162222Y73690*X161950Y73419*X161409Y73419*X161138Y73690*X161138Y74232*X155872Y75047D2*X154788Y75047D1*X154788Y74232*X154788Y73690D2*X155059Y73419D1*X155600Y73419*X155872Y73690*X155872Y74232*X155600Y74503*X155331Y74503*X154788Y74232*X148438Y74232D2*X149250Y75047D1*X149250Y73419*X148438Y74232D2*X149522Y74232D1*X142088Y74775D2*X142359Y75047D1*X142900Y75047*X143172Y74775*X143172Y74503*X142900Y74232*X142631Y74232D2*X142900Y74232D1*X143172Y73962*X143172Y73690*X142900Y73419*X142359Y73419*X142088Y73690*X135738Y73419D2*X136822Y73419D1*X135738Y74775D2*X136009Y75047D1*X136550Y75047*X136822Y74775*X136822Y74503*X135738Y73419*X130472Y73419D2*X129388Y73419D1*X129931Y73419D2*X129931Y75047D1*X129388Y74503*X124757Y74775D2*X124485Y75047D1*X123944Y75047*X123673Y74775*X123673Y73690*X123944Y73419*X124485Y73419*X124757Y73690*X124757Y74775*X123673Y73690*X122502Y74232D2*X122773Y74232D1*X122773Y74503*X122502Y74503*X122502Y74232*X122502Y73690D2*X122773Y73690D1*X122773Y73419*X122502Y73419*X122502Y73690*X120866Y73690D2*X121138Y73419D1*X121950Y73419*X121950Y75047*X121950Y74503D2*X121138Y74503D1*X120866Y74232*X120866Y73690*X119771Y73962D2*X120312Y73419D1*X119228Y73962D2*X120040Y73962D1*X120312Y74232*X120312Y74775*X120040Y75047*X119228Y75047*X119228Y73419*X112738Y69152D2*X109055Y69152D1*X119532Y58166D2*X119532Y61849D1*X121310Y61849D2*X121310Y58166D1*X125882Y58166D2*X125882Y61849D1*X127660Y61849D2*X127660Y58166D1*X132232Y58166D2*X132232Y61849D1*X134010Y61849D2*X134010Y58166D1*X138582Y58166D2*X138582Y61849D1*X140360Y61849D2*X140360Y58166D1*X144932Y58166D2*X144932Y61849D1*X146710Y61849D2*X146710Y58166D1*X151282Y58166D2*X151282Y61849D1*X153060Y61849D2*X153060Y58166D1*X157632Y58166D2*X157632Y61849D1*X159410Y61849D2*X159410Y58166D1*X163982Y58166D2*X163982Y61849D1*X165760Y61849D2*X165760Y58166D1*X176873Y64834D2*X173190Y64834D1*X184493Y64834D2*X180810Y64834D1*X180810Y66612D2*X184493Y66612D1*X184493Y67374D2*X180810Y67374D1*X199098Y69152D2*X195415Y69152D1*X206718Y69152D2*X203035Y69152D1*X203035Y67374D2*X206718Y67374D1*X206718Y66612D2*X203035Y66612D1*X203035Y64834D2*X206718Y64834D1*X195415Y64834D2*X199098Y64834D1*X199098Y66612D2*X195415Y66612D1*X195415Y67374D2*X199098Y67374D1*X193065Y64516D2*X193065Y68199D1*X191287Y68199D2*X191287Y64516D1*X183634Y72276D2*X183363Y72547D1*X183363Y73632*X183634Y73904*X184175Y73904*X184447Y73632*X185273Y73360D2*X185001Y73088D1*X188275Y73360D2*X188275Y72276D1*X193187Y73904D2*X193457Y73904D1*X193457Y72276*X193187Y72276D2*X193728Y72276D1*X192362Y72276D2*X191821Y72276D1*X191549Y72547*X191549Y72819D2*X192634Y72819D1*X192634Y73088*X192362Y73360*X191821Y73360*X191549Y73088*X191549Y72547*X190995Y72276D2*X190995Y73088D1*X190726Y73360*X189911Y73360*X189911Y72276*X189360Y72276D2*X189360Y73088D1*X189088Y73360*X188275Y73360*X187721Y73088D2*X187452Y73360D1*X186908Y73360*X186637Y72547D2*X186908Y72276D1*X187721Y72276*X187721Y73088*X187721Y72819D2*X186908Y72819D1*X186637Y72547*X186085Y72276D2*X186085Y73088D1*X185814Y73360*X185273Y73360*X185001Y72276D2*X185001Y73904D1*X184447Y72547D2*X184175Y72276D1*X183634Y72276*X183363Y70693D2*X183906Y71237D1*X183906Y69609*X184447Y69609D2*X183363Y69609D1*X180810Y69152D2*X184493Y69152D1*X173190Y69152D2*X176873Y69152D1*X176873Y67374D2*X173190Y67374D1*X173190Y66612D2*X176873Y66612D1*X165760Y69469D2*X165760Y65786D1*X163982Y65786D2*X163982Y69469D1*X159410Y69469D2*X159410Y65786D1*X157632Y65786D2*X157632Y69469D1*X153060Y69469D2*X153060Y65786D1*X151282Y65786D2*X151282Y69469D1*X146710Y69469D2*X146710Y65786D1*X144932Y65786D2*X144932Y69469D1*X140360Y69469D2*X140360Y65786D1*X138582Y65786D2*X138582Y69469D1*X134010Y69469D2*X134010Y65786D1*X132232Y65786D2*X132232Y69469D1*X127660Y69469D2*X127660Y65786D1*X125882Y65786D2*X125882Y69469D1*X121310Y69469D2*X121310Y65786D1*X119532Y65786D2*X119532Y69469D1*X117119Y59626D2*X117119Y65468D1*X114833Y65468D2*X114833Y59626D1*X109055Y64834D2*X112738Y64834D1*X112738Y66612D2*X109055Y66612D1*X109055Y67374D2*X112738Y67374D1*X75273Y67374D2*X71590Y67374D1*X71590Y66612D2*X75273Y66612D1*X75273Y64834D2*X71590Y64834D1*X78257Y58166D2*X78257Y61849D1*X80035Y61849D2*X80035Y58166D1*X97498Y66612D2*X93815Y66612D1*X93815Y67374D2*X97498Y67374D1*X89878Y67374D2*X86195Y67374D1*X86195Y66612D2*X89878Y66612D1*X82067Y68199D2*X82067Y64516D1*X83845Y64516D2*X83845Y68199D1*X89878Y64834D2*X86195Y64834D1*X97498Y64834D2*X93815Y64834D1*X105118Y64834D2*X101435Y64834D1*X101435Y66612D2*X105118Y66612D1*X105118Y67374D2*X101435Y67374D1*X101435Y69152D2*X105118Y69152D1*X93815Y69152D2*X97498Y69152D1*X86195Y69152D2*X89878Y69152D1*X79690Y73360D2*X79690Y72276D1*X84602Y73904D2*X84872Y73904D1*X84872Y72276*X84602Y72276D2*X85143Y72276D1*X83777Y72276D2*X83236Y72276D1*X82964Y72547*X82964Y72819D2*X84049Y72819D1*X84049Y73088*X83777Y73360*X83236Y73360*X82964Y73088*X82964Y72547*X82410Y72276D2*X82410Y73088D1*X82141Y73360*X81326Y73360*X81326Y72276*X80775Y72276D2*X80775Y73088D1*X80503Y73360*X79690Y73360*X79136Y73088D2*X78867Y73360D1*X78323Y73360*X78052Y72547D2*X78323Y72276D1*X79136Y72276*X79136Y73088*X79136Y72819D2*X78323Y72819D1*X78052Y72547*X77500Y72276D2*X77500Y73088D1*X77229Y73360*X76688Y73360*X76416Y73088*X76416Y73904D2*X76416Y72276D1*X75862Y73632D2*X75590Y73904D1*X75049Y73904*X74778Y73632*X74778Y72547*X75049Y72276*X75590Y72276*X75862Y72547*X75862Y70965D2*X75590Y71237D1*X75049Y71237*X74778Y70965*X74778Y69880*X75049Y69609D2*X75590Y69609D1*X75862Y69880*X75862Y70965*X74778Y69880*X75049Y69609*X71590Y69152D2*X75273Y69152D1*X50907Y68964D2*X50818Y69040D1*X50734Y69118*X50658Y69207*X50589Y69299*X50528Y69395*X50472Y69497*X50427Y69604*X50386Y69713*X50356Y69825*X50335Y69936*X50322Y70053*X50317Y70168*X52756Y71387D2*X52847Y71313D1*X52934Y71232*X53012Y71143*X53083Y71051*X53147Y70952*X53205Y70848*X53254Y70742*X53294Y70632*X53325Y70518*X53348Y70401*X53360Y70284*X53365Y70168*X52728Y68928D2*X52822Y69002D1*X52911Y69083*X52995Y69172*X53071Y69266*X53137Y69365*X53195Y69469*X53249Y69581*X53289Y69693*X53322Y69809*X53345Y69926*X53360Y70048*X53365Y70168*X50907Y71371D2*X50818Y71295D1*X50734Y71217*X50658Y71128*X50589Y71036*X50528Y70940*X50472Y70838*X50427Y70731*X50386Y70622*X50356Y70510*X50335Y70399*X50322Y70282*X50317Y70168*X50190Y65786D2*X50190Y69469D1*X48412Y69469D2*X48412Y65786D1*X44557Y68964D2*X44468Y69040D1*X44384Y69118*X44308Y69207*X44239Y69299*X44178Y69395*X44122Y69497*X44077Y69604*X44036Y69713*X44006Y69825*X43985Y69936*X43972Y70053*X43967Y70168*X46406Y71387D2*X46497Y71313D1*X46584Y71232*X46662Y71143*X46733Y71051*X46797Y70952*X46855Y70848*X46904Y70742*X46944Y70632*X46975Y70518*X46998Y70401*X47010Y70284*X47015Y70168*X46378Y68928D2*X46472Y69002D1*X46561Y69083*X46645Y69172*X46721Y69266*X46787Y69365*X46845Y69469*X46899Y69581*X46939Y69693*X46972Y69809*X46995Y69926*X47010Y70048*X47015Y70168*X44557Y71371D2*X44468Y71295D1*X44384Y71217*X44308Y71128*X44239Y71036*X44178Y70940*X44122Y70838*X44077Y70731*X44036Y70622*X44006Y70510*X43985Y70399*X43972Y70282*X43967Y70168*X43840Y65786D2*X43840Y69469D1*X42062Y69469D2*X42062Y65786D1*X38207Y68964D2*X38118Y69040D1*X38034Y69118*X37958Y69207*X37889Y69299*X37828Y69395*X37772Y69497*X37727Y69604*X37686Y69713*X37656Y69825*X37635Y69936*X37622Y70053*X37617Y70168*X40056Y71387D2*X40147Y71313D1*X40234Y71232*X40312Y71143*X40383Y71051*X40447Y70952*X40505Y70848*X40554Y70742*X40594Y70632*X40625Y70518*X40648Y70401*X40660Y70284*X40665Y70168*X40028Y68928D2*X40122Y69002D1*X40211Y69083*X40295Y69172*X40371Y69266*X40437Y69365*X40495Y69469*X40549Y69581*X40589Y69693*X40622Y69809*X40645Y69926*X40660Y70048*X40665Y70168*X38207Y71371D2*X38118Y71295D1*X38034Y71217*X37958Y71128*X37889Y71036*X37828Y70940*X37772Y70838*X37727Y70731*X37686Y70622*X37656Y70510*X37635Y70399*X37622Y70282*X37617Y70168*X37490Y65786D2*X37490Y69469D1*X35712Y69469D2*X35712Y65786D1*X31857Y68964D2*X31768Y69040D1*X31684Y69118*X31608Y69207*X31539Y69299*X31478Y69395*X31422Y69497*X31377Y69604*X31336Y69713*X31306Y69825*X31285Y69936*X31272Y70053*X31267Y70168*X33706Y71387D2*X33797Y71313D1*X33884Y71232*X33962Y71143*X34033Y71051*X34097Y70952*X34155Y70848*X34204Y70742*X34244Y70632*X34275Y70518*X34298Y70401*X34310Y70284*X34315Y70168*X33678Y68928D2*X33772Y69002D1*X33861Y69083*X33945Y69172*X34021Y69266*X34087Y69365*X34145Y69469*X34199Y69581*X34239Y69693*X34272Y69809*X34295Y69926*X34310Y70048*X34315Y70168*X31857Y71371D2*X31768Y71295D1*X31684Y71217*X31608Y71128*X31539Y71036*X31478Y70940*X31422Y70838*X31377Y70731*X31336Y70622*X31306Y70510*X31285Y70399*X31272Y70282*X31267Y70168*X31140Y65786D2*X31140Y69469D1*X29362Y69469D2*X29362Y65786D1*X25507Y68964D2*X25418Y69040D1*X25334Y69118*X25258Y69207*X25189Y69299*X25128Y69395*X25072Y69497*X25027Y69604*X24986Y69713*X24956Y69825*X24935Y69936*X24922Y70053*X24917Y70168*X27356Y71387D2*X27447Y71313D1*X27534Y71232*X27612Y71143*X27683Y71051*X27747Y70952*X27805Y70848*X27854Y70742*X27894Y70632*X27925Y70518*X27948Y70401*X27960Y70284*X27965Y70168*X27328Y68928D2*X27422Y69002D1*X27511Y69083*X27595Y69172*X27671Y69266*X27737Y69365*X27795Y69469*X27849Y69581*X27889Y69693*X27922Y69809*X27945Y69926*X27960Y70048*X27965Y70168*X25507Y71371D2*X25418Y71295D1*X25334Y71217*X25258Y71128*X25189Y71036*X25128Y70940*X25072Y70838*X25027Y70731*X24986Y70622*X24956Y70510*X24935Y70399*X24922Y70282*X24917Y70168*X24790Y65786D2*X24790Y69469D1*X23012Y69469D2*X23012Y65786D1*X19157Y68964D2*X19068Y69040D1*X18984Y69118*X18908Y69207*X18839Y69299*X18778Y69395*X18722Y69497*X18677Y69604*X18636Y69713*X18606Y69825*X18585Y69936*X18572Y70053*X18567Y70168*X21006Y71387D2*X21097Y71313D1*X21184Y71232*X21262Y71143*X21333Y71051*X21397Y70952*X21455Y70848*X21504Y70742*X21544Y70632*X21575Y70518*X21598Y70401*X21610Y70284*X21615Y70168*X20978Y68928D2*X21072Y69002D1*X21161Y69083*X21245Y69172*X21321Y69266*X21387Y69365*X21445Y69469*X21499Y69581*X21539Y69693*X21572Y69809*X21595Y69926*X21610Y70048*X21615Y70168*X19157Y71371D2*X19068Y71295D1*X18984Y71217*X18908Y71128*X18839Y71036*X18778Y70940*X18722Y70838*X18677Y70731*X18636Y70622*X18606Y70510*X18585Y70399*X18572Y70282*X18567Y70168*X18440Y65786D2*X18440Y69469D1*X16662Y69469D2*X16662Y65786D1*X15265Y70168D2*X15260Y70284D1*X15248Y70401*X15225Y70518*X15194Y70632*X15154Y70742*X15105Y70848*X15047Y70952*X14983Y71051*X14912Y71143*X14834Y71232*X14747Y71313*X14656Y71387*X10312Y65786D2*X10312Y69469D1*X12090Y69469D2*X12090Y65786D1*X12807Y68964D2*X12718Y69040D1*X12634Y69118*X12558Y69207*X12489Y69299*X12428Y69395*X12372Y69497*X12327Y69604*X12286Y69713*X12256Y69825*X12235Y69936*X12222Y70053*X12217Y70168*X12807Y71371D2*X12718Y71295D1*X12634Y71217*X12558Y71128*X12489Y71036*X12428Y70940*X12372Y70838*X12327Y70731*X12286Y70622*X12256Y70510*X12235Y70399*X12222Y70282*X12217Y70168*X14628Y68928D2*X14722Y69002D1*X14811Y69083*X14895Y69172*X14971Y69266*X15037Y69365*X15095Y69469*X15149Y69581*X15189Y69693*X15222Y69809*X15245Y69926*X15260Y70048*X15265Y70168*X11092Y74775D2*X10820Y75047D1*X10008Y75047*X10008Y73419*X10551Y73962D2*X11092Y73419D1*X10008Y73962D2*X10820Y73962D1*X11092Y74232*X11092Y74775*X12730Y75047D2*X12730Y73419D1*X11918Y73419*X11646Y73690*X11646Y74232*X11918Y74503*X12730Y74503*X13553Y74232D2*X13553Y74503D1*X13282Y74503*X13282Y74232*X13553Y74232*X13553Y73690D2*X13282Y73690D1*X13282Y73419*X13553Y73419*X13553Y73690*X14453Y73690D2*X14453Y74775D1*X14724Y75047*X15265Y75047*X15537Y74775*X15537Y73690*X15265Y73419*X14724Y73419*X14453Y73690*X15537Y74775*X20168Y74503D2*X20711Y75047D1*X20711Y73419*X21252Y73419D2*X20168Y73419D1*X27602Y73419D2*X26518Y73419D1*X27602Y74503*X27602Y74775*X26518Y74775D2*X26789Y75047D1*X27330Y75047*X27602Y74775*X32868Y74775D2*X33139Y75047D1*X33680Y75047*X33952Y74775*X33952Y74503*X33680Y74232*X33952Y73690D2*X33952Y73962D1*X33680Y74232*X33411Y74232*X32868Y73690D2*X33139Y73419D1*X33680Y73419*X33952Y73690*X40030Y73419D2*X40030Y75047D1*X39218Y74232*X40302Y74232*X45568Y74232D2*X45568Y75047D1*X46652Y75047*X46652Y74232D2*X46380Y74503D1*X46111Y74503*X45568Y74232*X45568Y73690D2*X45839Y73419D1*X46380Y73419*X46652Y73690*X46652Y74232*X51918Y74232D2*X51918Y73690D1*X52189Y73419*X52730Y73419*X53002Y73690*X53002Y73962*X52730Y74232*X51918Y74232*X52461Y74775*X53002Y75047*X58268Y75047D2*X59352Y75047D1*X59352Y74775*X58268Y73690*X58268Y73419*X59715Y70168D2*X59710Y70048D1*X59695Y69926*X59672Y69809*X59639Y69693*X59599Y69581*X59545Y69469*X59487Y69365*X59421Y69266*X59345Y69172*X59261Y69083*X59172Y69002*X59078Y68928*X56667Y70168D2*X56672Y70053D1*X56685Y69936*X56706Y69825*X56736Y69713*X56777Y69604*X56822Y69497*X56878Y69395*X56939Y69299*X57008Y69207*X57084Y69118*X57168Y69040*X57257Y68964*X59715Y70168D2*X59710Y70284D1*X59698Y70401*X59675Y70518*X59644Y70632*X59604Y70742*X59555Y70848*X59497Y70952*X59433Y71051*X59362Y71143*X59284Y71232*X59197Y71313*X59106Y71387*X54762Y65786D2*X54762Y69469D1*X56540Y69469D2*X56540Y65786D1*X56667Y70168D2*X56672Y70282D1*X56685Y70399*X56706Y70510*X56736Y70622*X56777Y70731*X56822Y70838*X56878Y70940*X56939Y71036*X57008Y71128*X57084Y71217*X57168Y71295*X57257Y71371*X67653Y69152D2*X63970Y69152D1*X63970Y67374D2*X67653Y67374D1*X67653Y66612D2*X63970Y66612D1*X63970Y64834D2*X67653Y64834D1*X56540Y61849D2*X56540Y58166D1*X54762Y58166D2*X54762Y61849D1*X50190Y61849D2*X50190Y58166D1*X48412Y58166D2*X48412Y61849D1*X43840Y61849D2*X43840Y58166D1*X42062Y58166D2*X42062Y61849D1*X37490Y61849D2*X37490Y58166D1*X35712Y58166D2*X35712Y61849D1*X31140Y61849D2*X31140Y58166D1*X29362Y58166D2*X29362Y61849D1*X24790Y61849D2*X24790Y58166D1*X23012Y58166D2*X23012Y61849D1*X18440Y61849D2*X18440Y58166D1*X16662Y58166D2*X16662Y61849D1*X12090Y61849D2*X12090Y58166D1*X10312Y58166D2*X10312Y61849D1*X10312Y39624D2*X10312Y35941D1*X12217Y35941D2*X12217Y39624D1*X12090Y39624D2*X12090Y35941D1*X11278Y43932D2*X11278Y42304D1*X12916Y42575D2*X12916Y43388D1*X27922Y42575D2*X28194Y42847D1*X29007Y42847*X28194Y43388D2*X28735Y43388D1*X29007Y43116*X29007Y42304*X28194Y42304*X27922Y42575*X27374Y42304D2*X27102Y42575D1*X27102Y43660*X26830Y43388D2*X27374Y43388D1*X26279Y43116D2*X26007Y43388D1*X25466Y43388*X25194Y42575D2*X25466Y42304D1*X26279Y42304*X26279Y43116*X26279Y42847D2*X25466Y42847D1*X25194Y42575*X23556Y42304D2*X23556Y43932D1*X24371Y43932*X24641Y43660*X24641Y42575*X24371Y42304*X23556Y42304*X21102Y42575D2*X21102Y42304D1*X21372Y42304*X21372Y42575*X21102Y42575*X19464Y42575D2*X19464Y43116D1*X19736Y43388*X20549Y43388*X20549Y43932D2*X20549Y42304D1*X19736Y42304*X19464Y42575*X18369Y42847D2*X18910Y42304D1*X17826Y42304D2*X17826Y43932D1*X18641Y43932*X18910Y43660*X18910Y43116*X18641Y42847*X17826Y42847*X14552Y42304D2*X15636Y43388D1*X14552Y43388D2*X15636Y42304D1*X14000Y43388D2*X14000Y42304D1*X13188Y42304*X12916Y42575*X12362Y42304D2*X12362Y43932D1*X11821Y43388*X11278Y43932*X10312Y54229D2*X10312Y50546D1*X12090Y50546D2*X12090Y54229D1*X16662Y54229D2*X16662Y50546D1*X18440Y50546D2*X18440Y54229D1*X23012Y54229D2*X23012Y50546D1*X24790Y50546D2*X24790Y54229D1*X29362Y54229D2*X29362Y50546D1*X31140Y50546D2*X31140Y54229D1*X35712Y54229D2*X35712Y50546D1*X37490Y50546D2*X37490Y54229D1*X42062Y54229D2*X42062Y50546D1*X43840Y50546D2*X43840Y54229D1*X48412Y54229D2*X48412Y50546D1*X50190Y50546D2*X50190Y54229D1*X54762Y54229D2*X54762Y50546D1*X56540Y50546D2*X56540Y54229D1*X71590Y49594D2*X75273Y49594D1*X63970Y49594D2*X67653Y49594D1*X67653Y51372D2*X63970Y51372D1*X63970Y51498D2*X67653Y51498D1*X67653Y53276D2*X63970Y53276D1*X75273Y53276D2*X71590Y53276D1*X71590Y51498D2*X75273Y51498D1*X75273Y51372D2*X71590Y51372D1*X78257Y54229D2*X78257Y50546D1*X80035Y50546D2*X80035Y54229D1*X93815Y50864D2*X97498Y50864D1*X97498Y50736D2*X93815Y50736D1*X109055Y48958D2*X112738Y48958D1*X101435Y50864D2*X105118Y50864D1*X105118Y50736D2*X101435Y50736D1*X101435Y48958D2*X105118Y48958D1*X93815Y48958D2*X97498Y48958D1*X86195Y48958D2*X89878Y48958D1*X89878Y50736D2*X86195Y50736D1*X86195Y50864D2*X89878Y50864D1*X89878Y52642D2*X86195Y52642D1*X97498Y52642D2*X93815Y52642D1*X105118Y52642D2*X101435Y52642D1*X112738Y52642D2*X109055Y52642D1*X109055Y50864D2*X112738Y50864D1*X112738Y50736D2*X109055Y50736D1*X119532Y54229D2*X119532Y50546D1*X121310Y50546D2*X121310Y54229D1*X125882Y54229D2*X125882Y50546D1*X127660Y50546D2*X127660Y54229D1*X132232Y54229D2*X132232Y50546D1*X134010Y50546D2*X134010Y54229D1*X138582Y54229D2*X138582Y50546D1*X140360Y50546D2*X140360Y54229D1*X144932Y54229D2*X144932Y50546D1*X146710Y50546D2*X146710Y54229D1*X151282Y54229D2*X151282Y50546D1*X153060Y50546D2*X153060Y54229D1*X157632Y54229D2*X157632Y50546D1*X159410Y50546D2*X159410Y54229D1*X163982Y54229D2*X163982Y50546D1*X165760Y50546D2*X165760Y54229D1*X163030Y45022D2*X166713Y45022D1*X166713Y43244D2*X163030Y43244D1*X163030Y43116D2*X166713Y43116D1*X166713Y41338D2*X163030Y41338D1*X170650Y41338D2*X174333Y41338D1*X174333Y43116D2*X170650Y43116D1*X170650Y43244D2*X174333Y43244D1*X174333Y45022D2*X170650Y45022D1*X180810Y49594D2*X184493Y49594D1*X173190Y49594D2*X176873Y49594D1*X176873Y51372D2*X173190Y51372D1*X173190Y51498D2*X176873Y51498D1*X176873Y53276D2*X173190Y53276D1*X184493Y53276D2*X180810Y53276D1*X180810Y51498D2*X184493Y51498D1*X184493Y51372D2*X180810Y51372D1*X187477Y54229D2*X187477Y50546D1*X189255Y50546D2*X189255Y54229D1*X199098Y50736D2*X195415Y50736D1*X195415Y50864D2*X199098Y50864D1*X199098Y52642D2*X195415Y52642D1*X206718Y52642D2*X203035Y52642D1*X203035Y50864D2*X206718Y50864D1*X206718Y50736D2*X203035Y50736D1*X203035Y48958D2*X206718Y48958D1*X195415Y48958D2*X199098Y48958D1*X185890Y43244D2*X189573Y43244D1*X189573Y43116D2*X185890Y43116D1*X185890Y41338D2*X189573Y41338D1*X178270Y41338D2*X181953Y41338D1*X181953Y43116D2*X178270Y43116D1*X178270Y43244D2*X181953Y43244D1*X181953Y45022D2*X178270Y45022D1*X189573Y45022D2*X185890Y45022D1*X197193Y45022D2*X193510Y45022D1*X193510Y43244D2*X197193Y43244D1*X198463Y42482D2*X194780Y42482D1*X194780Y40704D2*X198463Y40704D1*X199098Y39942D2*X195415Y39942D1*X195415Y38164D2*X199098Y38164D1*X199733Y37402D2*X196050Y37402D1*X212560Y40704D2*X216243Y40704D1*X216878Y39942D2*X213195Y39942D1*X213195Y38164D2*X216878Y38164D1*X217513Y37402D2*X213830Y37402D1*X213830Y35624D2*X217513Y35624D1*X204940Y35624D2*X208623Y35624D1*X208623Y37402D2*X204940Y37402D1*X204305Y38164D2*X207988Y38164D1*X207988Y39942D2*X204305Y39942D1*X203670Y40704D2*X207353Y40704D1*X207353Y42482D2*X203670Y42482D1*X203035Y43244D2*X206718Y43244D1*X206718Y45022D2*X203035Y45022D1*X215608Y45022D2*X211925Y45022D1*X211925Y43244D2*X215608Y43244D1*X216243Y42482D2*X212560Y42482D1*X220815Y45022D2*X224498Y45022D1*X224498Y43244D2*X220815Y43244D1*X222085Y42482D2*X225768Y42482D1*X225768Y40704D2*X222085Y40704D1*X223355Y39942D2*X227038Y39942D1*X227038Y38164D2*X223355Y38164D1*X224625Y37402D2*X228308Y37402D1*X228308Y35624D2*X224625Y35624D1*X227360Y14722D2*X227360Y13637D1*X226817Y13094*X226276Y13637*X226276Y14722*X225722Y14450D2*X225450Y14722D1*X224909Y14722*X224638Y14450*X224638Y13365*X224909Y13094*X225450Y13094*X225722Y13365*X225722Y14450*X224638Y13365*X215656Y14450D2*X215656Y13365D1*X219471Y14722D2*X219471Y13637D1*X218930Y13094*X218387Y13637*X218387Y14722*X217835Y14722D2*X216751Y14722D1*X216751Y13906*X216751Y13365D2*X217023Y13094D1*X217564Y13094*X217835Y13365*X217835Y13906*X217564Y14178*X217292Y14178*X216751Y13906*X215113Y13906D2*X216197Y13906D1*X205130Y15050D2*X210972Y15050D1*X205420Y18809D2*X205420Y19893D1*X210972Y17336D2*X205130Y17336D1*X219337Y19080D2*X219337Y19622D1*X219606Y19893*X220421Y19893*X220972Y19893D2*X221516Y19893D1*X221244Y20165D2*X221244Y19080D1*X221516Y18809*X220421Y18809D2*X219606Y18809D1*X219337Y19080*X218511Y18809D2*X217970Y18809D1*X217698Y19080*X217698Y19622*X217698Y19352D2*X218783Y19352D1*X218783Y19622*X218511Y19893*X217970Y19893*X217698Y19622*X216606Y20437D2*X216878Y20437D1*X216878Y18809*X216606Y18809D2*X217150Y18809D1*X215783Y18809D2*X215240Y18809D1*X214970Y19080*X214970Y19622*X214970Y19352D2*X216055Y19352D1*X216055Y19622*X215783Y19893*X215240Y19893*X214970Y19622*X214417Y20165D2*X214145Y20437D1*X213604Y20437*X213332Y20165*X213332Y19893*X213604Y19622*X214145Y19622*X214417Y19352*X214417Y19080*X214145Y18809*X213604Y18809*X213332Y19080*X210871Y19352D2*X211143Y19080D1*X210871Y18809*X210058Y18809*X210058Y19622D2*X210330Y19352D1*X210871Y19352*X211143Y19893D2*X210330Y19893D1*X210058Y19622*X209507Y19893D2*X208691Y19893D1*X208422Y19622*X208691Y19352*X209235Y19352*X209507Y19080*X209235Y18809*X208422Y18809*X207597Y18809D2*X207056Y18809D1*X206784Y19080*X206784Y19622*X206784Y19352D2*X207869Y19352D1*X207869Y19622*X207597Y19893*X207056Y19893*X206784Y19622*X206233Y19893D2*X205961Y19893D1*X205420Y19352*X203782Y19622D2*X203782Y19080D1*X204053Y18809*X204866Y18809*X204866Y20437*X204866Y19893D2*X204053Y19893D1*X203782Y19622*X201592Y19622D2*X200508Y19622D1*X202146Y19080D2*X202146Y19622D1*X202418Y19893*X203230Y19893*X203230Y20437D2*X203230Y18809D1*X202418Y18809*X202146Y19080*X201592Y18809D2*X201592Y19893D1*X201051Y20437*X200508Y19893*X200508Y18809*X195923Y16446D2*X192240Y16446D1*X192240Y14668D2*X195923Y14668D1*X188303Y14668D2*X184620Y14668D1*X184620Y16446D2*X188303Y16446D1*X179413Y16446D2*X175730Y16446D1*X175730Y14668D2*X179413Y14668D1*X154013Y12128D2*X150330Y12128D1*X150330Y13906D2*X154013Y13906D1*X154013Y20256D2*X150330Y20256D1*X150330Y18478D2*X154013Y18478D1*X143662Y18860D2*X137820Y18860D1*X137820Y21146D2*X143662Y21146D1*X128885Y24247D2*X128613Y23975D1*X128613Y22619*X129705Y22619D2*X129705Y23975D1*X129974Y24247*X132977Y23703D2*X132705Y23703D1*X132161Y23162*X132161Y22619D2*X132161Y23703D1*X131338Y22619D2*X130795Y22619D1*X130526Y22890*X130526Y23432*X130526Y23162D2*X131610Y23162D1*X131610Y23432*X131338Y23703*X130795Y23703*X130526Y23432*X129433Y23432D2*X129974Y23432D1*X128341Y23432D2*X128885Y23432D1*X127790Y23703D2*X127790Y22619D1*X126975Y22619*X126705Y22890*X126705Y23703*X125880Y23432D2*X126152Y23703D1*X126152Y23975*X125880Y24247*X125067Y24247*X125067Y22619*X125880Y22619*X126152Y22890*X126152Y23162*X125880Y23432*X125067Y23432*X122606Y23162D2*X122878Y22890D1*X122606Y22619*X121793Y22619*X121793Y23432D2*X122065Y23162D1*X122606Y23162*X122878Y23703D2*X122065Y23703D1*X121793Y23432*X121242Y23703D2*X120426Y23703D1*X120157Y23432*X120426Y23162*X120970Y23162*X121242Y22890*X120970Y22619*X120157Y22619*X119332Y22619D2*X118791Y22619D1*X118519Y22890*X118519Y23432*X118519Y23162D2*X119604Y23162D1*X119604Y23432*X119332Y23703*X118791Y23703*X118519Y23432*X117968Y23703D2*X117696Y23703D1*X117155Y23162*X115517Y23432D2*X115517Y22890D1*X115788Y22619*X116601Y22619*X116601Y24247*X116601Y23703D2*X115788Y23703D1*X115517Y23432*X112243Y23703D2*X112786Y24247D1*X113327Y23703*X113881Y22890D2*X114153Y22619D1*X114965Y22619*X114965Y24247*X114965Y23703D2*X114153Y23703D1*X113881Y23432*X113881Y22890*X113327Y23703D2*X113327Y22619D1*X112243Y23432D2*X113327Y23432D1*X112243Y23703D2*X112243Y22619D1*X78720Y32779D2*X78720Y34135D1*X78991Y34407*X80084Y34407D2*X79812Y34135D1*X79812Y32779*X82271Y33863D2*X82271Y32779D1*X83083Y33863D2*X82812Y33863D1*X82271Y33322*X81717Y33322D2*X81717Y33592D1*X81445Y33863*X80904Y33863*X80632Y33592*X81717Y33322D2*X80632Y33322D1*X81445Y32779D2*X80904Y32779D1*X80632Y33050*X80632Y33592*X79540Y33592D2*X80084Y33592D1*X78450Y33592D2*X78991Y33592D1*X77897Y33863D2*X77897Y32779D1*X77084Y32779*X76812Y33050*X76812Y33863*X75989Y33592D2*X76261Y33863D1*X76261Y34135*X75989Y34407*X75176Y34407*X75176Y32779*X75989Y32779*X76261Y33050*X76261Y33322*X75989Y33592*X75176Y33592*X72987Y33592D2*X72715Y33863D1*X72172Y33863*X71902Y33050D2*X72172Y32779D1*X72987Y32779*X72987Y33592*X72987Y33322D2*X72172Y33322D1*X71902Y33050*X71351Y32779D2*X71082Y33050D1*X71082Y34135*X70810Y33863D2*X71351Y33863D1*X70256Y33592D2*X69987Y33863D1*X69444Y33863*X69172Y33050D2*X69444Y32779D1*X70256Y32779*X70256Y33592*X70256Y33322D2*X69444Y33322D1*X69172Y33050*X67536Y32779D2*X67536Y34407D1*X68349Y34407*X68621Y34135*X68621Y33050*X68349Y32779*X67536Y32779*X65080Y33050D2*X65080Y32779D1*X65352Y32779*X65352Y33050*X65080Y33050*X64529Y33863D2*X64257Y33863D1*X63716Y33322*X63716Y33863D2*X63716Y32779D1*X63162Y34407D2*X63162Y32779D1*X62621Y33322*X62078Y32779*X62078Y34407*X61239Y33592D2*X61239Y39434D1*X58953Y39434D2*X58953Y33592D1*X55905Y35941D2*X55905Y39624D1*X54127Y39624D2*X54127Y35941D1*X54000Y35941D2*X54000Y39624D1*X52222Y39624D2*X52222Y35941D1*X52095Y35941D2*X52095Y39624D1*X50317Y39624D2*X50317Y35941D1*X50190Y35941D2*X50190Y39624D1*X48412Y39624D2*X48412Y35941D1*X48285Y35941D2*X48285Y39624D1*X46507Y39624D2*X46507Y35941D1*X46380Y35941D2*X46380Y39624D1*X44602Y39624D2*X44602Y35941D1*X44475Y35941D2*X44475Y39624D1*X42697Y39624D2*X42697Y35941D1*X42570Y35941D2*X42570Y39624D1*X40792Y39624D2*X40792Y35941D1*X40665Y35941D2*X40665Y39624D1*X38887Y39624D2*X38887Y35941D1*X38760Y35941D2*X38760Y39624D1*X36982Y39624D2*X36982Y35941D1*X36855Y35941D2*X36855Y39624D1*X35077Y39624D2*X35077Y35941D1*X34950Y35941D2*X34950Y39624D1*X33172Y39624D2*X33172Y35941D1*X33045Y35941D2*X33045Y39624D1*X31267Y39624D2*X31267Y35941D1*X31140Y35941D2*X31140Y39624D1*X29362Y39624D2*X29362Y35941D1*X29235Y35941D2*X29235Y39624D1*X27457Y39624D2*X27457Y35941D1*X27330Y35941D2*X27330Y39624D1*X25552Y39624D2*X25552Y35941D1*X25425Y35941D2*X25425Y39624D1*X23647Y39624D2*X23647Y35941D1*X23520Y35941D2*X23520Y39624D1*X21742Y39624D2*X21742Y35941D1*X21615Y35941D2*X21615Y39624D1*X19837Y39624D2*X19837Y35941D1*X19710Y35941D2*X19710Y39624D1*X17932Y39624D2*X17932Y35941D1*X17805Y35941D2*X17805Y39624D1*X16027Y39624D2*X16027Y35941D1*X15900Y35941D2*X15900Y39624D1*X14122Y39624D2*X14122Y35941D1*X13995Y35941D2*X13995Y39624D1*X12548Y24882D2*X13632Y24882D1*X12548Y23254D2*X12548Y23525D1*X13632Y24610*X13632Y24882*X14326Y26708D2*X14252Y26617D1*X14171Y26530*X14082Y26452*X13990Y26380*X13891Y26317*X13787Y26259*X13680Y26210*X13571Y26170*X13457Y26139*X13340Y26116*X13223Y26104*X13106Y26098*X11902Y28557D2*X11979Y28646D1*X12057Y28730*X12146Y28806*X12238Y28875*X12334Y28936*X12436Y28992*X12543Y29037*X12652Y29078*X12764Y29108*X12875Y29129*X12992Y29141*X13106Y29146*X14310Y28557D2*X14234Y28646D1*X14155Y28730*X14067Y28806*X13975Y28875*X13879Y28936*X13777Y28992*X13670Y29037*X13561Y29078*X13449Y29108*X13338Y29129*X13221Y29141*X13106Y29146*X11867Y26736D2*X11941Y26642D1*X12022Y26553*X12111Y26469*X12205Y26393*X12304Y26327*X12408Y26269*X12520Y26215*X12631Y26175*X12748Y26142*X12865Y26119*X12987Y26104*X13106Y26098*X23332Y28557D2*X23409Y28646D1*X23487Y28730*X23576Y28806*X23668Y28875*X23764Y28936*X23866Y28992*X23973Y29037*X24082Y29078*X24194Y29108*X24305Y29129*X24422Y29141*X24536Y29146*X25756Y26708D2*X25682Y26617D1*X25601Y26530*X25512Y26452*X25420Y26380*X25321Y26317*X25217Y26259*X25110Y26210*X25001Y26170*X24887Y26139*X24770Y26116*X24653Y26104*X24536Y26098*X23297Y26736D2*X23371Y26642D1*X23452Y26553*X23541Y26469*X23635Y26393*X23734Y26327*X23838Y26269*X23950Y26215*X24061Y26175*X24178Y26142*X24295Y26119*X24417Y26104*X24536Y26098*X25740Y28557D2*X25664Y28646D1*X25585Y28730*X25497Y28806*X25405Y28875*X25309Y28936*X25207Y28992*X25100Y29037*X24991Y29078*X24879Y29108*X24768Y29129*X24651Y29141*X24536Y29146*X20041Y26708D2*X19967Y26617D1*X19886Y26530*X19797Y26452*X19705Y26380*X19606Y26317*X19502Y26259*X19395Y26210*X19286Y26170*X19172Y26139*X19055Y26116*X18938Y26104*X18821Y26098*X17617Y28557D2*X17694Y28646D1*X17772Y28730*X17861Y28806*X17953Y28875*X18049Y28936*X18151Y28992*X18258Y29037*X18367Y29078*X18478Y29108*X18590Y29129*X18707Y29141*X18821Y29146*X20025Y28557D2*X19949Y28646D1*X19870Y28730*X19782Y28806*X19690Y28875*X19594Y28936*X19492Y28992*X19385Y29037*X19276Y29078*X19164Y29108*X19053Y29129*X18936Y29141*X18821Y29146*X17582Y26736D2*X17656Y26642D1*X17737Y26553*X17826Y26469*X17920Y26393*X18019Y26327*X18123Y26269*X18235Y26215*X18346Y26175*X18463Y26142*X18580Y26119*X18702Y26104*X18821Y26098*X19347Y24882D2*X18806Y24610D1*X18263Y24066*X19347Y23525D2*X19347Y23797D1*X19075Y24066*X18263Y24066*X18263Y23525*X18534Y23254*X19075Y23254*X19347Y23525*X23978Y23525D2*X24249Y23254D1*X24790Y23254*X25062Y23525*X25062Y24066*X24790Y24338*X24521Y24338*X23978Y24066*X23978Y24882*X25062Y24882*X31471Y26708D2*X31397Y26617D1*X31316Y26530*X31227Y26452*X31135Y26380*X31036Y26317*X30932Y26259*X30825Y26210*X30716Y26170*X30602Y26139*X30485Y26116*X30368Y26104*X30251Y26098*X29047Y28557D2*X29124Y28646D1*X29202Y28730*X29291Y28806*X29383Y28875*X29479Y28936*X29581Y28992*X29688Y29037*X29797Y29078*X29908Y29108*X30020Y29129*X30137Y29141*X30251Y29146*X31455Y28557D2*X31379Y28646D1*X31300Y28730*X31212Y28806*X31120Y28875*X31024Y28936*X30922Y28992*X30815Y29037*X30706Y29078*X30594Y29108*X30483Y29129*X30366Y29141*X30251Y29146*X29012Y26736D2*X29086Y26642D1*X29167Y26553*X29256Y26469*X29350Y26393*X29449Y26327*X29553Y26269*X29665Y26215*X29776Y26175*X29893Y26142*X30010Y26119*X30132Y26104*X30251Y26098*X42901Y26708D2*X42827Y26617D1*X42746Y26530*X42657Y26452*X42565Y26380*X42466Y26317*X42362Y26259*X42255Y26210*X42146Y26170*X42032Y26139*X41915Y26116*X41798Y26104*X41681Y26098*X40477Y28557D2*X40554Y28646D1*X40632Y28730*X40721Y28806*X40813Y28875*X40909Y28936*X41011Y28992*X41118Y29037*X41227Y29078*X41338Y29108*X41450Y29129*X41567Y29141*X41681Y29146*X42885Y28557D2*X42809Y28646D1*X42730Y28730*X42642Y28806*X42550Y28875*X42454Y28936*X42352Y28992*X42245Y29037*X42136Y29078*X42024Y29108*X41913Y29129*X41796Y29141*X41681Y29146*X40442Y26736D2*X40516Y26642D1*X40597Y26553*X40686Y26469*X40780Y26393*X40879Y26327*X40983Y26269*X41095Y26215*X41206Y26175*X41323Y26142*X41440Y26119*X41562Y26104*X41681Y26098*X48616Y26708D2*X48542Y26617D1*X48461Y26530*X48372Y26452*X48280Y26380*X48181Y26317*X48077Y26259*X47970Y26210*X47861Y26170*X47747Y26139*X47630Y26116*X47513Y26104*X47396Y26098*X46192Y28557D2*X46269Y28646D1*X46347Y28730*X46436Y28806*X46528Y28875*X46624Y28936*X46726Y28992*X46833Y29037*X46942Y29078*X47054Y29108*X47165Y29129*X47282Y29141*X47396Y29146*X48600Y28557D2*X48524Y28646D1*X48445Y28730*X48357Y28806*X48265Y28875*X48169Y28936*X48067Y28992*X47960Y29037*X47851Y29078*X47739Y29108*X47628Y29129*X47511Y29141*X47396Y29146*X46157Y26736D2*X46231Y26642D1*X46312Y26553*X46401Y26469*X46495Y26393*X46594Y26327*X46698Y26269*X46810Y26215*X46921Y26175*X47038Y26142*X47155Y26119*X47277Y26104*X47396Y26098*X54331Y26708D2*X54257Y26617D1*X54176Y26530*X54087Y26452*X53995Y26380*X53896Y26317*X53792Y26259*X53685Y26210*X53576Y26170*X53462Y26139*X53345Y26116*X53228Y26104*X53111Y26098*X51907Y28557D2*X51984Y28646D1*X52062Y28730*X52151Y28806*X52243Y28875*X52339Y28936*X52441Y28992*X52548Y29037*X52657Y29078*X52768Y29108*X52880Y29129*X52997Y29141*X53111Y29146*X54315Y28557D2*X54239Y28646D1*X54160Y28730*X54072Y28806*X53980Y28875*X53884Y28936*X53782Y28992*X53675Y29037*X53566Y29078*X53454Y29108*X53343Y29129*X53226Y29141*X53111Y29146*X51872Y26736D2*X51946Y26642D1*X52027Y26553*X52116Y26469*X52210Y26393*X52309Y26327*X52413Y26269*X52525Y26215*X52636Y26175*X52753Y26142*X52870Y26119*X52992Y26104*X53111Y26098*X53637Y24610D2*X53365Y24882D1*X52824Y24882*X52553Y24610*X52553Y23525D2*X52824Y23254D1*X53365Y23254*X53637Y23525*X53637Y24610*X52553Y23525*X52553Y24610*X46838Y24338D2*X47381Y24882D1*X47381Y23254*X46838Y23254D2*X47922Y23254D1*X42207Y23254D2*X41123Y23254D1*X42207Y24338*X42207Y24610*X41935Y24882*X41394Y24882*X41123Y24610*X35966Y26098D2*X35847Y26104D1*X35725Y26119*X35608Y26142*X35491Y26175*X35380Y26215*X35268Y26269*X35164Y26327*X35065Y26393*X34971Y26469*X34882Y26553*X34801Y26642*X34727Y26736*X35966Y29146D2*X35852Y29141D1*X35735Y29129*X35624Y29108*X35512Y29078*X35403Y29037*X35296Y28992*X35194Y28936*X35098Y28875*X35006Y28806*X34917Y28730*X34839Y28646*X34762Y28557*X35966Y26098D2*X36083Y26104D1*X36200Y26116*X36317Y26139*X36431Y26170*X36540Y26210*X36647Y26259*X36751Y26317*X36850Y26380*X36942Y26452*X37031Y26530*X37112Y26617*X37186Y26708*X35966Y29146D2*X36081Y29141D1*X36198Y29129*X36309Y29108*X36421Y29078*X36530Y29037*X36637Y28992*X36739Y28936*X36835Y28875*X36927Y28806*X37015Y28730*X37094Y28646*X37170Y28557*X35408Y24610D2*X35679Y24882D1*X36220Y24882*X36492Y24610*X36492Y24338*X36220Y24066*X35951Y24066D2*X36220Y24066D1*X36492Y23797*X36492Y23525*X36220Y23254*X35679Y23254*X35408Y23525*X30777Y24066D2*X29693Y24066D1*X30505Y24882*X30505Y23254*X29375Y17082D2*X29103Y17353D1*X28560Y17353*X28291Y16540D2*X28560Y16269D1*X29375Y16269*X29375Y17082*X29375Y16812D2*X28560Y16812D1*X28291Y16540*X27739Y16269D2*X27470Y16540D1*X27470Y17625*X27198Y17353D2*X27739Y17353D1*X26645Y16812D2*X25832Y16812D1*X25560Y16540*X25832Y16269*X26645Y16269*X26645Y17082*X26375Y17353*X25832Y17353*X23924Y17897D2*X24737Y17897D1*X25009Y17625*X25009Y16540*X24737Y16269*X23924Y16269*X23924Y17897*X20650Y17353D2*X20922Y17353D1*X21191Y17082*X21735Y16269D2*X21735Y17082D1*X21463Y17353*X21191Y17082*X21191Y16269*X20650Y17353D2*X20650Y16269D1*X20096Y17082D2*X19827Y17353D1*X19284Y17353*X19012Y16540D2*X19284Y16269D1*X20096Y16269*X20096Y17082*X20096Y16812D2*X19284Y16812D1*X19012Y16540*X18189Y16269D2*X17645Y16269D1*X17376Y16540*X17376Y17082*X17376Y16812D2*X18461Y16812D1*X18461Y17082*X18189Y17353*X17645Y17353*X17376Y17082*X16825Y17353D2*X16553Y17353D1*X16012Y16812*X16012Y16269D2*X16012Y17353D1*X15461Y16269D2*X15192Y16540D1*X15192Y17625*X14920Y17353D2*X15461Y17353D1*X14366Y17353D2*X13553Y17353D1*X13282Y17082*X13553Y16812*X14097Y16812*X14366Y16540*X14097Y16269*X13282Y16269*X11092Y16540D2*X10820Y16269D1*X10279Y16269*X10008Y16540*X10008Y17897*X11092Y16540D2*X11092Y17897D1*X11646Y16269D2*X12459Y16269D1*X12730Y16540*X12730Y17082*X12459Y17353*X11646Y17353*X11646Y15725*D120*X232715Y18834D2*X230375Y18834D1*X231546Y21173D2*X231546Y21953D1*X232715Y22733D2*X232715Y21173D1*X232715Y23513D2*X230375Y23513D1*X230375Y34427D2*X232715Y32868D1*X231155Y44562D2*X230375Y45342D1*X232715Y45342*X232715Y44562D2*X232715Y46121D1*X233106Y42222D2*X233106Y43782D1*X232715Y39883D2*X231935Y40663D1*X232715Y41443*X230375Y41443*X232715Y39883D2*X230375Y39883D1*X232715Y37544D2*X232715Y39103D1*X230767Y37544D2*X230375Y37935D1*X230375Y38715*X230767Y39103*X231155Y39103*X232715Y37544*X233106Y35207D2*X233106Y36764D1*X230375Y32868D2*X232715Y34427D1*X230375Y32088D2*X232326Y32088D1*X232715Y31697*X232715Y30917*X232326Y30528*X230375Y30528*X232715Y29748D2*X230375Y29748D1*X231155Y28969*X230375Y28189*X232715Y28189*X233106Y25850D2*X233106Y27409D1*X232715Y25070D2*X230375Y25070D1*X231155Y24293*X230375Y23513*X230375Y22733D2*X230375Y21173D1*X232715Y21173*X232715Y20394D2*X230375Y20394D1*X231155Y19614*X230375Y18834*D122*X227101Y46038D2*X227101Y82868D1*X9931Y46038D2*X58191Y46038D1*X9931Y21272D2*X58191Y21272D1*X58191Y46038*X117881Y46038*X117881Y82868D2*X117881Y46038D1*X227101Y46038*D124*X137566Y14288D2*X137566Y6668D1*X148361Y9208D2*X148361Y14288D1*X140848Y75778D2*X140637Y75778D1*X140513Y75654D2*X140970Y75654D1*X141094Y75532D2*X140391Y75532D1*X140266Y75408D2*X141216Y75408D1*X141341Y75286D2*X140144Y75286D1*X140020Y75161D2*X141463Y75161D1*X141587Y75039D2*X139898Y75039D1*X139774Y74915D2*X141709Y74915D1*X141834Y74793D2*X139652Y74793D1*X139527Y74668D2*X141956Y74668D1*X139471Y74612D2*X140741Y75882D1*X142011Y74612*X139471Y74612*X83698Y75778D2*X83487Y75778D1*X83363Y75654D2*X83820Y75654D1*X83944Y75532D2*X83241Y75532D1*X83116Y75408D2*X84066Y75408D1*X84191Y75286D2*X82994Y75286D1*X82870Y75161D2*X84313Y75161D1*X84437Y75039D2*X82748Y75039D1*X82624Y74915D2*X84559Y74915D1*X84684Y74793D2*X82502Y74793D1*X82377Y74668D2*X84806Y74668D1*X82321Y74612D2*X83591Y75882D1*X84861Y74612*X82321Y74612*X55651Y31686D2*X55616Y31841D1*X55570Y31991*X55517Y32141*X55453Y32286*X55382Y32426*X55301Y32563*X55212Y32695*X55115Y32819*X55014Y32939*X54902Y33050*X54785Y33157*X54661Y33256*X54531Y33345*X54397Y33429*X54257Y33503*X54112Y33569*X53965Y33625*X53815Y33673*X53660Y33711*X53505Y33739*X53348Y33759*X53190Y33769*X53033Y33769*X52875Y33759*X52718Y33739*X52563Y33711*X52408Y33673*X52258Y33625*X52111Y33569*X51966Y33503*X51826Y33429*X51692Y33345*X51562Y33256*X51438Y33157*X51321Y33050*X51209Y32939*X51107Y32819*X51011Y32695*X50922Y32563*X50841Y32426*X50770Y32286*X50706Y32141*X50653Y31991*X50607Y31841*X50571Y31686*X49936Y31686D2*X49901Y31841D1*X49855Y31991*X49802Y32141*X49738Y32286*X49667Y32426*X49586Y32563*X49497Y32695*X49400Y32819*X49299Y32939*X49187Y33050*X49070Y33157*X48946Y33256*X48816Y33345*X48682Y33429*X48542Y33503*X48397Y33569*X48250Y33625*X48100Y33673*X47945Y33711*X47790Y33739*X47633Y33759*X47475Y33769*X47318Y33769*X47160Y33759*X47003Y33739*X46848Y33711*X46693Y33673*X46543Y33625*X46396Y33569*X46251Y33503*X46111Y33429*X45977Y33345*X45847Y33256*X45723Y33157*X45606Y33050*X45494Y32939*X45392Y32819*X45296Y32695*X45207Y32563*X45126Y32426*X45055Y32286*X44991Y32141*X44938Y31991*X44892Y31841*X44856Y31686*X44221Y31686D2*X44186Y31841D1*X44140Y31991*X44087Y32141*X44023Y32286*X43952Y32426*X43871Y32563*X43782Y32695*X43685Y32819*X43584Y32939*X43472Y33050*X43355Y33157*X43231Y33256*X43101Y33345*X42967Y33429*X42827Y33503*X42682Y33569*X42535Y33625*X42385Y33673*X42230Y33711*X42075Y33739*X41918Y33759*X41760Y33769*X41603Y33769*X41445Y33759*X41288Y33739*X41133Y33711*X40978Y33673*X40828Y33625*X40681Y33569*X40536Y33503*X40396Y33429*X40262Y33345*X40132Y33256*X40008Y33157*X39891Y33050*X39779Y32939*X39677Y32819*X39581Y32695*X39492Y32563*X39411Y32426*X39340Y32286*X39276Y32141*X39223Y31991*X39177Y31841*X39141Y31686*X38506Y31686D2*X38471Y31841D1*X38425Y31991*X38372Y32141*X38308Y32286*X38237Y32426*X38156Y32563*X38067Y32695*X37970Y32819*X37869Y32939*X37757Y33050*X37640Y33157*X37516Y33256*X37386Y33345*X37252Y33429*X37112Y33503*X36967Y33569*X36820Y33625*X36670Y33673*X36515Y33711*X36360Y33739*X36203Y33759*X36045Y33769*X35888Y33769*X35730Y33759*X35573Y33739*X35418Y33711*X35263Y33673*X35113Y33625*X34966Y33569*X34821Y33503*X34681Y33429*X34547Y33345*X34417Y33256*X34293Y33157*X34176Y33050*X34064Y32939*X33962Y32819*X33866Y32695*X33777Y32563*X33696Y32426*X33625Y32286*X33561Y32141*X33508Y31991*X33462Y31841*X33426Y31686*X32791Y31686D2*X32756Y31841D1*X32710Y31991*X32657Y32141*X32593Y32286*X32522Y32426*X32441Y32563*X32352Y32695*X32255Y32819*X32154Y32939*X32042Y33050*X31925Y33157*X31801Y33256*X31671Y33345*X31537Y33429*X31397Y33503*X31252Y33569*X31105Y33625*X30955Y33673*X30800Y33711*X30645Y33739*X30488Y33759*X30330Y33769*X30173Y33769*X30015Y33759*X29858Y33739*X29703Y33711*X29548Y33673*X29398Y33625*X29251Y33569*X29106Y33503*X28966Y33429*X28832Y33345*X28702Y33256*X28578Y33157*X28461Y33050*X28349Y32939*X28247Y32819*X28151Y32695*X28062Y32563*X27981Y32426*X27910Y32286*X27846Y32141*X27793Y31991*X27747Y31841*X27711Y31686*X27076Y31686D2*X27041Y31841D1*X26995Y31991*X26942Y32141*X26878Y32286*X26807Y32426*X26726Y32563*X26637Y32695*X26540Y32819*X26439Y32939*X26327Y33050*X26210Y33157*X26086Y33256*X25956Y33345*X25822Y33429*X25682Y33503*X25537Y33569*X25390Y33625*X25240Y33673*X25085Y33711*X24930Y33739*X24773Y33759*X24615Y33769*X24458Y33769*X24300Y33759*X24143Y33739*X23988Y33711*X23833Y33673*X23683Y33625*X23536Y33569*X23391Y33503*X23251Y33429*X23117Y33345*X22987Y33256*X22863Y33157*X22746Y33050*X22634Y32939*X22532Y32819*X22436Y32695*X22347Y32563*X22266Y32426*X22195Y32286*X22131Y32141*X22078Y31991*X22032Y31841*X21996Y31686*X21361Y31686D2*X21326Y31841D1*X21280Y31991*X21227Y32141*X21163Y32286*X21092Y32426*X21011Y32563*X20922Y32695*X20825Y32819*X20724Y32939*X20612Y33050*X20495Y33157*X20371Y33256*X20241Y33345*X20107Y33429*X19967Y33503*X19822Y33569*X19675Y33625*X19525Y33673*X19370Y33711*X19215Y33739*X19058Y33759*X18900Y33769*X18743Y33769*X18585Y33759*X18428Y33739*X18273Y33711*X18118Y33673*X17968Y33625*X17821Y33569*X17676Y33503*X17536Y33429*X17402Y33345*X17272Y33256*X17148Y33157*X17031Y33050*X16919Y32939*X16817Y32819*X16721Y32695*X16632Y32563*X16551Y32426*X16480Y32286*X16416Y32141*X16363Y31991*X16317Y31841*X16281Y31686*X15646Y31686D2*X15611Y31841D1*X15565Y31991*X15512Y32141*X15448Y32286*X15377Y32426*X15296Y32563*X15207Y32695*X15110Y32819*X15009Y32939*X14897Y33050*X14780Y33157*X14656Y33256*X14526Y33345*X14392Y33429*X14252Y33503*X14107Y33569*X13960Y33625*X13810Y33673*X13655Y33711*X13500Y33739*X13343Y33759*X13185Y33769*X13028Y33769*X12870Y33759*X12713Y33739*X12558Y33711*X12403Y33673*X12253Y33625*X12106Y33569*X11961Y33503*X11821Y33429*X11687Y33345*X11557Y33256*X11433Y33157*X11316Y33050*X11204Y32939*X11102Y32819*X11006Y32695*X10917Y32563*X10836Y32426*X10765Y32286*X10701Y32141*X10648Y31991*X10602Y31841*X10566Y31686*X10566Y30162*X15646Y30162*X15646Y31686*X16281Y31686D2*X16281Y30162D1*X21361Y30162*X21361Y31686*X21996Y31686D2*X21996Y30162D1*X27076Y30162*X27076Y31686*X27711Y31686D2*X27711Y30162D1*X32791Y30162*X32791Y31686*X33426Y31686D2*X33426Y30162D1*X38506Y30162*X38506Y31686*X39141Y31686D2*X39141Y30162D1*X44221Y30162*X44221Y31686*X44856Y31686D2*X44856Y30162D1*X49936Y30162*X49936Y31686*X50571Y31686D2*X50571Y30162D1*X55651Y30162*X55651Y31686*X89052Y32702D2*X88897Y32667D1*X88748Y32621*X88598Y32568*X88453Y32504*X88313Y32433*X88176Y32352*X88044Y32263*X87920Y32167*X87800Y32065*X87688Y31953*X87582Y31836*X87483Y31712*X87394Y31582*X87310Y31448*X87236Y31308*X87170Y31163*X87114Y31016*X87066Y30866*X87028Y30711*X87000Y30556*X86980Y30399*X86970Y30241*X86970Y30084*X86980Y29926*X87000Y29769*X87028Y29614*X87066Y29459*X87114Y29309*X87170Y29162*X87236Y29017*X87310Y28877*X87394Y28743*X87483Y28613*X87582Y28489*X87688Y28372*X87800Y28260*X87920Y28158*X88044Y28062*X88176Y27973*X88313Y27892*X88453Y27821*X88598Y27757*X88748Y27704*X88897Y27658*X89052Y27622*X85242Y27622D2*X85087Y27658D1*X84938Y27704*X84788Y27757*X84643Y27821*X84503Y27892*X84366Y27973*X84234Y28062*X84110Y28158*X83990Y28260*X83878Y28372*X83772Y28489*X83673Y28613*X83584Y28743*X83500Y28877*X83426Y29017*X83360Y29162*X83304Y29309*X83256Y29459*X83218Y29614*X83190Y29769*X83170Y29926*X83160Y30084*X83160Y30241*X83170Y30399*X83190Y30556*X83218Y30711*X83256Y30866*X83304Y31016*X83360Y31163*X83426Y31308*X83500Y31448*X83584Y31582*X83673Y31712*X83772Y31836*X83878Y31953*X83990Y32065*X84110Y32167*X84234Y32263*X84366Y32352*X84503Y32433*X84643Y32504*X84788Y32568*X84938Y32621*X85087Y32667*X85242Y32702*X81432Y32702D2*X81277Y32667D1*X81128Y32621*X80978Y32568*X80833Y32504*X80693Y32433*X80556Y32352*X80424Y32263*X80300Y32167*X80180Y32065*X80068Y31953*X79962Y31836*X79863Y31712*X79774Y31582*X79690Y31448*X79616Y31308*X79550Y31163*X79494Y31016*X79446Y30866*X79408Y30711*X79380Y30556*X79360Y30399*X79350Y30241*X79350Y30084*X79360Y29926*X79380Y29769*X79408Y29614*X79446Y29459*X79494Y29309*X79550Y29162*X79616Y29017*X79690Y28877*X79774Y28743*X79863Y28613*X79962Y28489*X80068Y28372*X80180Y28260*X80300Y28158*X80424Y28062*X80556Y27973*X80693Y27892*X80833Y27821*X80978Y27757*X81128Y27704*X81277Y27658*X81432Y27622*X77622Y27622D2*X77467Y27658D1*X77318Y27704*X77168Y27757*X77023Y27821*X76883Y27892*X76746Y27973*X76614Y28062*X76490Y28158*X76370Y28260*X76258Y28372*X76152Y28489*X76053Y28613*X75964Y28743*X75880Y28877*X75806Y29017*X75740Y29162*X75684Y29309*X75636Y29459*X75598Y29614*X75570Y29769*X75550Y29926*X75540Y30084*X75540Y30241*X75550Y30399*X75570Y30556*X75598Y30711*X75636Y30866*X75684Y31016*X75740Y31163*X75806Y31308*X75880Y31448*X75964Y31582*X76053Y31712*X76152Y31836*X76258Y31953*X76370Y32065*X76490Y32167*X76614Y32263*X76746Y32352*X76883Y32433*X77023Y32504*X77168Y32568*X77318Y32621*X77467Y32667*X77622Y32702*X73812Y32702D2*X73657Y32667D1*X73508Y32621*X73358Y32568*X73213Y32504*X73073Y32433*X72936Y32352*X72804Y32263*X72680Y32167*X72560Y32065*X72448Y31953*X72342Y31836*X72243Y31712*X72154Y31582*X72070Y31448*X71996Y31308*X71930Y31163*X71874Y31016*X71826Y30866*X71788Y30711*X71760Y30556*X71740Y30399*X71730Y30241*X71730Y30084*X71740Y29926*X71760Y29769*X71788Y29614*X71826Y29459*X71874Y29309*X71930Y29162*X71996Y29017*X72070Y28877*X72154Y28743*X72243Y28613*X72342Y28489*X72448Y28372*X72560Y28260*X72680Y28158*X72804Y28062*X72936Y27973*X73073Y27892*X73213Y27821*X73358Y27757*X73508Y27704*X73657Y27658*X73812Y27622*X70002Y27622D2*X69847Y27658D1*X69698Y27704*X69548Y27757*X69403Y27821*X69263Y27892*X69126Y27973*X68994Y28062*X68870Y28158*X68750Y28260*X68638Y28372*X68532Y28489*X68433Y28613*X68344Y28743*X68260Y28877*X68186Y29017*X68120Y29162*X68064Y29309*X68016Y29459*X67978Y29614*X67950Y29769*X67930Y29926*X67920Y30084*X67920Y30241*X67930Y30399*X67950Y30556*X67978Y30711*X68016Y30866*X68064Y31016*X68120Y31163*X68186Y31308*X68260Y31448*X68344Y31582*X68433Y31712*X68532Y31836*X68638Y31953*X68750Y32065*X68870Y32167*X68994Y32263*X69126Y32352*X69263Y32433*X69403Y32504*X69548Y32568*X69698Y32621*X69847Y32667*X70002Y32702*X66192Y32702D2*X66037Y32667D1*X65888Y32621*X65738Y32568*X65593Y32504*X65453Y32433*X65316Y32352*X65184Y32263*X65060Y32167*X64940Y32065*X64828Y31953*X64722Y31836*X64623Y31712*X64534Y31582*X64450Y31448*X64376Y31308*X64310Y31163*X64254Y31016*X64206Y30866*X64168Y30711*X64140Y30556*X64120Y30399*X64110Y30241*X64110Y30084*X64120Y29926*X64140Y29769*X64168Y29614*X64206Y29459*X64254Y29309*X64310Y29162*X64376Y29017*X64450Y28877*X64534Y28743*X64623Y28613*X64722Y28489*X64828Y28372*X64940Y28260*X65060Y28158*X65184Y28062*X65316Y27973*X65453Y27892*X65593Y27821*X65738Y27757*X65888Y27704*X66037Y27658*X66192Y27622*X62382Y27622D2*X62227Y27658D1*X62078Y27704*X61928Y27757*X61783Y27821*X61643Y27892*X61506Y27973*X61374Y28062*X61250Y28158*X61130Y28260*X61018Y28372*X60912Y28489*X60813Y28613*X60724Y28743*X60640Y28877*X60566Y29017*X60500Y29162*X60444Y29309*X60396Y29459*X60358Y29614*X60330Y29769*X60310Y29926*X60300Y30084*X60300Y30241*X60310Y30399*X60330Y30556*X60358Y30711*X60396Y30866*X60444Y31016*X60500Y31163*X60566Y31308*X60640Y31448*X60724Y31582*X60813Y31712*X60912Y31836*X61018Y31953*X61130Y32065*X61250Y32167*X61374Y32263*X61506Y32352*X61643Y32433*X61783Y32504*X61928Y32568*X62078Y32621*X62227Y32667*X62382Y32702*X63906Y32702*X63906Y27622*X62382Y27622*X66192Y27622D2*X67716Y27622D1*X67716Y32702*X66192Y32702*X70002Y32702D2*X71526Y32702D1*X71526Y27622*X70002Y27622*X73812Y27622D2*X75336Y27622D1*X75336Y32702*X73812Y32702*X77622Y32702D2*X79146Y32702D1*X79146Y27622*X77622Y27622*X81432Y27622D2*X82956Y27622D1*X82956Y32702*X81432Y32702*X85242Y32702D2*X86766Y32702D1*X86766Y27622*X85242Y27622*X89052Y27622D2*X90576Y27622D1*X90576Y32702*X89052Y32702*X113690Y53658D2*X113845Y53693D1*X113995Y53739*X114145Y53792*X114290Y53856*X114430Y53927*X114567Y54008*X114699Y54097*X114823Y54193*X114943Y54295*X115054Y54407*X115161Y54524*X115260Y54648*X115349Y54778*X115433Y54912*X115506Y55052*X115573Y55197*X115628Y55344*X115677Y55494*X115715Y55649*X115743Y55804*X115763Y55961*X115773Y56119*X115773Y56276*X115763Y56434*X115743Y56591*X115715Y56746*X115677Y56901*X115628Y57051*X115573Y57198*X115506Y57343*X115433Y57483*X115349Y57617*X115260Y57747*X115161Y57871*X115054Y57988*X114943Y58100*X114823Y58202*X114699Y58298*X114567Y58387*X114430Y58468*X114290Y58539*X114145Y58603*X113995Y58656*X113845Y58702*X113690Y58738*X109880Y58738D2*X110035Y58702D1*X110185Y58656*X110335Y58603*X110480Y58539*X110620Y58468*X110757Y58387*X110889Y58298*X111013Y58202*X111133Y58100*X111244Y57988*X111351Y57871*X111450Y57747*X111539Y57617*X111623Y57483*X111696Y57343*X111763Y57198*X111818Y57051*X111867Y56901*X111905Y56746*X111933Y56591*X111953Y56434*X111963Y56276*X111963Y56119*X111953Y55961*X111933Y55804*X111905Y55649*X111867Y55494*X111818Y55344*X111763Y55197*X111696Y55052*X111623Y54912*X111539Y54778*X111450Y54648*X111351Y54524*X111244Y54407*X111133Y54295*X111013Y54193*X110889Y54097*X110757Y54008*X110620Y53927*X110480Y53856*X110335Y53792*X110185Y53739*X110035Y53693*X109880Y53658*X106070Y53658D2*X106225Y53693D1*X106375Y53739*X106525Y53792*X106670Y53856*X106810Y53927*X106947Y54008*X107079Y54097*X107203Y54193*X107323Y54295*X107434Y54407*X107541Y54524*X107640Y54648*X107729Y54778*X107813Y54912*X107886Y55052*X107953Y55197*X108008Y55344*X108057Y55494*X108095Y55649*X108123Y55804*X108143Y55961*X108153Y56119*X108153Y56276*X108143Y56434*X108123Y56591*X108095Y56746*X108057Y56901*X108008Y57051*X107953Y57198*X107886Y57343*X107813Y57483*X107729Y57617*X107640Y57747*X107541Y57871*X107434Y57988*X107323Y58100*X107203Y58202*X107079Y58298*X106947Y58387*X106810Y58468*X106670Y58539*X106525Y58603*X106375Y58656*X106225Y58702*X106070Y58738*X102260Y58738D2*X102415Y58702D1*X102565Y58656*X102715Y58603*X102860Y58539*X103000Y58468*X103137Y58387*X103269Y58298*X103393Y58202*X103513Y58100*X103624Y57988*X103731Y57871*X103830Y57747*X103919Y57617*X104003Y57483*X104076Y57343*X104143Y57198*X104198Y57051*X104247Y56901*X104285Y56746*X104313Y56591*X104333Y56434*X104343Y56276*X104343Y56119*X104333Y55961*X104313Y55804*X104285Y55649*X104247Y55494*X104198Y55344*X104143Y55197*X104076Y55052*X104003Y54912*X103919Y54778*X103830Y54648*X103731Y54524*X103624Y54407*X103513Y54295*X103393Y54193*X103269Y54097*X103137Y54008*X103000Y53927*X102860Y53856*X102715Y53792*X102565Y53739*X102415Y53693*X102260Y53658*X98450Y53658D2*X98605Y53693D1*X98755Y53739*X98905Y53792*X99050Y53856*X99190Y53927*X99327Y54008*X99459Y54097*X99583Y54193*X99703Y54295*X99814Y54407*X99921Y54524*X100020Y54648*X100109Y54778*X100193Y54912*X100266Y55052*X100333Y55197*X100388Y55344*X100437Y55494*X100475Y55649*X100503Y55804*X100523Y55961*X100533Y56119*X100533Y56276*X100523Y56434*X100503Y56591*X100475Y56746*X100437Y56901*X100388Y57051*X100333Y57198*X100266Y57343*X100193Y57483*X100109Y57617*X100020Y57747*X99921Y57871*X99814Y57988*X99703Y58100*X99583Y58202*X99459Y58298*X99327Y58387*X99190Y58468*X99050Y58539*X98905Y58603*X98755Y58656*X98605Y58702*X98450Y58738*X94640Y58738D2*X94795Y58702D1*X94945Y58656*X95095Y58603*X95240Y58539*X95380Y58468*X95517Y58387*X95649Y58298*X95773Y58202*X95893Y58100*X96004Y57988*X96111Y57871*X96210Y57747*X96299Y57617*X96383Y57483*X96456Y57343*X96523Y57198*X96578Y57051*X96627Y56901*X96665Y56746*X96693Y56591*X96713Y56434*X96723Y56276*X96723Y56119*X96713Y55961*X96693Y55804*X96665Y55649*X96627Y55494*X96578Y55344*X96523Y55197*X96456Y55052*X96383Y54912*X96299Y54778*X96210Y54648*X96111Y54524*X96004Y54407*X95893Y54295*X95773Y54193*X95649Y54097*X95517Y54008*X95380Y53927*X95240Y53856*X95095Y53792*X94945Y53739*X94795Y53693*X94640Y53658*X90830Y53658D2*X90985Y53693D1*X91135Y53739*X91285Y53792*X91430Y53856*X91570Y53927*X91707Y54008*X91839Y54097*X91963Y54193*X92083Y54295*X92194Y54407*X92301Y54524*X92400Y54648*X92489Y54778*X92573Y54912*X92646Y55052*X92713Y55197*X92768Y55344*X92817Y55494*X92855Y55649*X92883Y55804*X92903Y55961*X92913Y56119*X92913Y56276*X92903Y56434*X92883Y56591*X92855Y56746*X92817Y56901*X92768Y57051*X92713Y57198*X92646Y57343*X92573Y57483*X92489Y57617*X92400Y57747*X92301Y57871*X92194Y57988*X92083Y58100*X91963Y58202*X91839Y58298*X91707Y58387*X91570Y58468*X91430Y58539*X91285Y58603*X91135Y58656*X90985Y58702*X90830Y58738*X90322Y63818D2*X90167Y63782D1*X90018Y63736*X89868Y63683*X89723Y63619*X89583Y63548*X89446Y63467*X89314Y63378*X89190Y63282*X89070Y63180*X88958Y63068*X88852Y62951*X88753Y62827*X88664Y62697*X88580Y62563*X88506Y62423*X88440Y62278*X88384Y62131*X88336Y61981*X88298Y61826*X88270Y61671*X88250Y61514*X88240Y61356*X88240Y61199*X88250Y61041*X88270Y60884*X88298Y60729*X88336Y60574*X88384Y60424*X88440Y60277*X88506Y60132*X88580Y59992*X88664Y59858*X88753Y59728*X88852Y59604*X88958Y59487*X89070Y59375*X89190Y59273*X89314Y59177*X89446Y59088*X89583Y59007*X89723Y58936*X89868Y58872*X90018Y58819*X90167Y58773*X90322Y58738*X94132Y58738D2*X93977Y58773D1*X93828Y58819*X93678Y58872*X93533Y58936*X93393Y59007*X93256Y59088*X93124Y59177*X93000Y59273*X92880Y59375*X92768Y59487*X92662Y59604*X92563Y59728*X92474Y59858*X92390Y59992*X92316Y60132*X92250Y60277*X92194Y60424*X92146Y60574*X92108Y60729*X92080Y60884*X92060Y61041*X92050Y61199*X92050Y61356*X92060Y61514*X92080Y61671*X92108Y61826*X92146Y61981*X92194Y62131*X92250Y62278*X92316Y62423*X92390Y62563*X92474Y62697*X92563Y62827*X92662Y62951*X92768Y63068*X92880Y63180*X93000Y63282*X93124Y63378*X93256Y63467*X93393Y63548*X93533Y63619*X93678Y63683*X93828Y63736*X93977Y63782*X94132Y63818*X97942Y63818D2*X97787Y63782D1*X97638Y63736*X97488Y63683*X97343Y63619*X97203Y63548*X97066Y63467*X96934Y63378*X96810Y63282*X96690Y63180*X96578Y63068*X96472Y62951*X96373Y62827*X96284Y62697*X96200Y62563*X96126Y62423*X96060Y62278*X96004Y62131*X95956Y61981*X95918Y61826*X95890Y61671*X95870Y61514*X95860Y61356*X95860Y61199*X95870Y61041*X95890Y60884*X95918Y60729*X95956Y60574*X96004Y60424*X96060Y60277*X96126Y60132*X96200Y59992*X96284Y59858*X96373Y59728*X96472Y59604*X96578Y59487*X96690Y59375*X96810Y59273*X96934Y59177*X97066Y59088*X97203Y59007*X97343Y58936*X97488Y58872*X97638Y58819*X97787Y58773*X97942Y58738*X101752Y58738D2*X101597Y58773D1*X101448Y58819*X101298Y58872*X101153Y58936*X101013Y59007*X100876Y59088*X100744Y59177*X100620Y59273*X100500Y59375*X100388Y59487*X100282Y59604*X100183Y59728*X100094Y59858*X100010Y59992*X99936Y60132*X99870Y60277*X99814Y60424*X99766Y60574*X99728Y60729*X99700Y60884*X99680Y61041*X99670Y61199*X99670Y61356*X99680Y61514*X99700Y61671*X99728Y61826*X99766Y61981*X99814Y62131*X99870Y62278*X99936Y62423*X100010Y62563*X100094Y62697*X100183Y62827*X100282Y62951*X100388Y63068*X100500Y63180*X100620Y63282*X100744Y63378*X100876Y63467*X101013Y63548*X101153Y63619*X101298Y63683*X101448Y63736*X101597Y63782*X101752Y63818*X105562Y63818D2*X105407Y63782D1*X105258Y63736*X105108Y63683*X104963Y63619*X104823Y63548*X104686Y63467*X104554Y63378*X104430Y63282*X104310Y63180*X104198Y63068*X104092Y62951*X103993Y62827*X103904Y62697*X103820Y62563*X103746Y62423*X103680Y62278*X103624Y62131*X103576Y61981*X103538Y61826*X103510Y61671*X103490Y61514*X103480Y61356*X103480Y61199*X103490Y61041*X103510Y60884*X103538Y60729*X103576Y60574*X103624Y60424*X103680Y60277*X103746Y60132*X103820Y59992*X103904Y59858*X103993Y59728*X104092Y59604*X104198Y59487*X104310Y59375*X104430Y59273*X104554Y59177*X104686Y59088*X104823Y59007*X104963Y58936*X105108Y58872*X105258Y58819*X105407Y58773*X105562Y58738*X109372Y58738D2*X109217Y58773D1*X109068Y58819*X108918Y58872*X108773Y58936*X108633Y59007*X108496Y59088*X108364Y59177*X108240Y59273*X108120Y59375*X108008Y59487*X107902Y59604*X107803Y59728*X107714Y59858*X107630Y59992*X107556Y60132*X107490Y60277*X107434Y60424*X107386Y60574*X107348Y60729*X107320Y60884*X107300Y61041*X107290Y61199*X107290Y61356*X107300Y61514*X107320Y61671*X107348Y61826*X107386Y61981*X107434Y62131*X107490Y62278*X107556Y62423*X107630Y62563*X107714Y62697*X107803Y62827*X107902Y62951*X108008Y63068*X108120Y63180*X108240Y63282*X108364Y63378*X108496Y63467*X108633Y63548*X108773Y63619*X108918Y63683*X109068Y63736*X109217Y63782*X109372Y63818*X113182Y63818D2*X113027Y63782D1*X112878Y63736*X112728Y63683*X112583Y63619*X112443Y63548*X112306Y63467*X112174Y63378*X112050Y63282*X111930Y63180*X111818Y63068*X111712Y62951*X111613Y62827*X111524Y62697*X111440Y62563*X111366Y62423*X111300Y62278*X111244Y62131*X111196Y61981*X111158Y61826*X111130Y61671*X111110Y61514*X111100Y61356*X111100Y61199*X111110Y61041*X111130Y60884*X111158Y60729*X111196Y60574*X111244Y60424*X111300Y60277*X111366Y60132*X111440Y59992*X111524Y59858*X111613Y59728*X111712Y59604*X111818Y59487*X111930Y59375*X112050Y59273*X112174Y59177*X112306Y59088*X112443Y59007*X112583Y58936*X112728Y58872*X112878Y58819*X113027Y58773*X113182Y58738*X114706Y58738D2*X114706Y63818D1*X113182Y63818*X123215Y66992D2*X123370Y66957D1*X123520Y66911*X123670Y66858*X123815Y66794*X123955Y66723*X124092Y66642*X124224Y66553*X124348Y66457*X124468Y66355*X124579Y66243*X124686Y66126*X124785Y66002*X124874Y65872*X124958Y65738*X125032Y65598*X125098Y65453*X125153Y65306*X125202Y65156*X125240Y65001*X125268Y64846*X125288Y64689*X125298Y64531*X125298Y64374*X125288Y64216*X125268Y64059*X125240Y63904*X125202Y63749*X125153Y63599*X125098Y63452*X125032Y63307*X124958Y63167*X124874Y63033*X124785Y62903*X124686Y62779*X124579Y62662*X124468Y62550*X124348Y62448*X124224Y62352*X124092Y62263*X123955Y62182*X123815Y62111*X123670Y62047*X123520Y61994*X123370Y61948*X123215Y61912*X129565Y61912D2*X129720Y61948D1*X129870Y61994*X130020Y62047*X130165Y62111*X130305Y62182*X130442Y62263*X130574Y62352*X130698Y62448*X130818Y62550*X130929Y62662*X131036Y62779*X131135Y62903*X131224Y63033*X131308Y63167*X131382Y63307*X131448Y63452*X131503Y63599*X131552Y63749*X131590Y63904*X131618Y64059*X131638Y64216*X131648Y64374*X131648Y64531*X131638Y64689*X131618Y64846*X131590Y65001*X131552Y65156*X131503Y65306*X131448Y65453*X131382Y65598*X131308Y65738*X131224Y65872*X131135Y66002*X131036Y66126*X130929Y66243*X130818Y66355*X130698Y66457*X130574Y66553*X130442Y66642*X130305Y66723*X130165Y66794*X130020Y66858*X129870Y66911*X129720Y66957*X129565Y66992*X142265Y66992D2*X142420Y66957D1*X142570Y66911*X142720Y66858*X142865Y66794*X143005Y66723*X143142Y66642*X143274Y66553*X143398Y66457*X143518Y66355*X143629Y66243*X143736Y66126*X143835Y66002*X143924Y65872*X144008Y65738*X144082Y65598*X144148Y65453*X144203Y65306*X144252Y65156*X144290Y65001*X144318Y64846*X144338Y64689*X144348Y64531*X144348Y64374*X144338Y64216*X144318Y64059*X144290Y63904*X144252Y63749*X144203Y63599*X144148Y63452*X144082Y63307*X144008Y63167*X143924Y63033*X143835Y62903*X143736Y62779*X143629Y62662*X143518Y62550*X143398Y62448*X143274Y62352*X143142Y62263*X143005Y62182*X142865Y62111*X142720Y62047*X142570Y61994*X142420Y61948*X142265Y61912*X148615Y61912D2*X148770Y61948D1*X148920Y61994*X149070Y62047*X149215Y62111*X149355Y62182*X149492Y62263*X149624Y62352*X149748Y62448*X149868Y62550*X149979Y62662*X150086Y62779*X150185Y62903*X150274Y63033*X150358Y63167*X150432Y63307*X150498Y63452*X150553Y63599*X150602Y63749*X150640Y63904*X150668Y64059*X150688Y64216*X150698Y64374*X150698Y64531*X150688Y64689*X150668Y64846*X150640Y65001*X150602Y65156*X150553Y65306*X150498Y65453*X150432Y65598*X150358Y65738*X150274Y65872*X150185Y66002*X150086Y66126*X149979Y66243*X149868Y66355*X149748Y66457*X149624Y66553*X149492Y66642*X149355Y66723*X149215Y66794*X149070Y66858*X148920Y66911*X148770Y66957*X148615Y66992*X161315Y66992D2*X161470Y66957D1*X161620Y66911*X161770Y66858*X161915Y66794*X162055Y66723*X162192Y66642*X162324Y66553*X162448Y66457*X162568Y66355*X162679Y66243*X162786Y66126*X162885Y66002*X162974Y65872*X163058Y65738*X163132Y65598*X163198Y65453*X163253Y65306*X163302Y65156*X163340Y65001*X163368Y64846*X163388Y64689*X163398Y64531*X163398Y64374*X163388Y64216*X163368Y64059*X163340Y63904*X163302Y63749*X163253Y63599*X163198Y63452*X163132Y63307*X163058Y63167*X162974Y63033*X162885Y62903*X162786Y62779*X162679Y62662*X162568Y62550*X162448Y62448*X162324Y62352*X162192Y62263*X162055Y62182*X161915Y62111*X161770Y62047*X161620Y61994*X161470Y61948*X161315Y61912*X167665Y61912D2*X167820Y61948D1*X167970Y61994*X168120Y62047*X168265Y62111*X168405Y62182*X168542Y62263*X168674Y62352*X168798Y62448*X168918Y62550*X169029Y62662*X169136Y62779*X169235Y62903*X169324Y63033*X169408Y63167*X169482Y63307*X169548Y63452*X169603Y63599*X169652Y63749*X169690Y63904*X169718Y64059*X169738Y64216*X169748Y64374*X169748Y64531*X169738Y64689*X169718Y64846*X169690Y65001*X169652Y65156*X169603Y65306*X169548Y65453*X169482Y65598*X169408Y65738*X169324Y65872*X169235Y66002*X169136Y66126*X169029Y66243*X168918Y66355*X168798Y66457*X168674Y66553*X168542Y66642*X168405Y66723*X168265Y66794*X168120Y66858*X167970Y66911*X167820Y66957*X167665Y66992*X192707Y75778D2*X192918Y75778D1*X193040Y75654D2*X192583Y75654D1*X192461Y75532D2*X193164Y75532D1*X193286Y75408D2*X192336Y75408D1*X192214Y75286D2*X193411Y75286D1*X193533Y75161D2*X192090Y75161D1*X191968Y75039D2*X193657Y75039D1*X193779Y74915D2*X191844Y74915D1*X191722Y74793D2*X193904Y74793D1*X194026Y74668D2*X191597Y74668D1*X194081Y74612D2*X191541Y74612D1*X192811Y75882*X194081Y74612*X226466Y83502D2*X226466Y75882D1*X182016Y75882*X182016Y83502*X174396Y83502D2*X174396Y75882D1*X129946Y75882*X129946Y83502*X117246Y83502D2*X117246Y75882D1*X72796Y75882*X72796Y83502*X65176Y83502D2*X65176Y75882D1*X20726Y75882*X20726Y83502*X31417Y75778D2*X31628Y75778D1*X31750Y75654D2*X31293Y75654D1*X31171Y75532D2*X31874Y75532D1*X31996Y75408D2*X31046Y75408D1*X30924Y75286D2*X32121Y75286D1*X32243Y75161D2*X30800Y75161D1*X30678Y75039D2*X32367Y75039D1*X32489Y74915D2*X30554Y74915D1*X30432Y74793D2*X32614Y74793D1*X32736Y74668D2*X30307Y74668D1*X32791Y74612D2*X31521Y75882D1*X30251Y74612*X32791Y74612*X33045Y61278D2*X33200Y61242D1*X33350Y61196*X33500Y61143*X33645Y61079*X33785Y61008*X33922Y60927*X34054Y60838*X34178Y60742*X34298Y60640*X34409Y60528*X34516Y60411*X34615Y60287*X34704Y60157*X34788Y60023*X34862Y59883*X34928Y59738*X34983Y59591*X35032Y59441*X35070Y59286*X35098Y59131*X35118Y58974*X35128Y58816*X35128Y58659*X35118Y58501*X35098Y58344*X35070Y58189*X35032Y58034*X34983Y57884*X34928Y57737*X34862Y57592*X34788Y57452*X34704Y57318*X34615Y57188*X34516Y57064*X34409Y56947*X34298Y56835*X34178Y56733*X34054Y56637*X33922Y56548*X33785Y56467*X33645Y56396*X33500Y56332*X33350Y56279*X33200Y56233*X33045Y56198*X26695Y56198D2*X26850Y56233D1*X27000Y56279*X27150Y56332*X27295Y56396*X27435Y56467*X27572Y56548*X27704Y56637*X27828Y56733*X27948Y56835*X28059Y56947*X28166Y57064*X28265Y57188*X28354Y57318*X28438Y57452*X28512Y57592*X28578Y57737*X28633Y57884*X28682Y58034*X28720Y58189*X28748Y58344*X28768Y58501*X28778Y58659*X28778Y58816*X28768Y58974*X28748Y59131*X28720Y59286*X28682Y59441*X28633Y59591*X28578Y59738*X28512Y59883*X28438Y60023*X28354Y60157*X28265Y60287*X28166Y60411*X28059Y60528*X27948Y60640*X27828Y60742*X27704Y60838*X27572Y60927*X27435Y61008*X27295Y61079*X27150Y61143*X27000Y61196*X26850Y61242*X26695Y61278*X26695Y61912D2*X26850Y61948D1*X27000Y61994*X27150Y62047*X27295Y62111*X27435Y62182*X27572Y62263*X27704Y62352*X27828Y62448*X27948Y62550*X28059Y62662*X28166Y62779*X28265Y62903*X28354Y63033*X28438Y63167*X28512Y63307*X28578Y63452*X28633Y63599*X28682Y63749*X28720Y63904*X28748Y64059*X28768Y64216*X28778Y64374*X28778Y64531*X28768Y64689*X28748Y64846*X28720Y65001*X28682Y65156*X28633Y65306*X28578Y65453*X28512Y65598*X28438Y65738*X28354Y65872*X28265Y66002*X28166Y66126*X28059Y66243*X27948Y66355*X27828Y66457*X27704Y66553*X27572Y66642*X27435Y66723*X27295Y66794*X27150Y66858*X27000Y66911*X26850Y66957*X26695Y66992*X33045Y66992D2*X33200Y66957D1*X33350Y66911*X33500Y66858*X33645Y66794*X33785Y66723*X33922Y66642*X34054Y66553*X34178Y66457*X34298Y66355*X34409Y66243*X34516Y66126*X34615Y66002*X34704Y65872*X34788Y65738*X34862Y65598*X34928Y65453*X34983Y65306*X35032Y65156*X35070Y65001*X35098Y64846*X35118Y64689*X35128Y64531*X35128Y64374*X35118Y64216*X35098Y64059*X35070Y63904*X35032Y63749*X34983Y63599*X34928Y63452*X34862Y63307*X34788Y63167*X34704Y63033*X34615Y62903*X34516Y62779*X34409Y62662*X34298Y62550*X34178Y62448*X34054Y62352*X33922Y62263*X33785Y62182*X33645Y62111*X33500Y62047*X33350Y61994*X33200Y61948*X33045Y61912*X58445Y61912D2*X58600Y61948D1*X58750Y61994*X58900Y62047*X59045Y62111*X59185Y62182*X59322Y62263*X59454Y62352*X59578Y62448*X59698Y62550*X59809Y62662*X59916Y62779*X60015Y62903*X60104Y63033*X60188Y63167*X60262Y63307*X60328Y63452*X60383Y63599*X60432Y63749*X60470Y63904*X60498Y64059*X60518Y64216*X60528Y64374*X60528Y64531*X60518Y64689*X60498Y64846*X60470Y65001*X60432Y65156*X60383Y65306*X60328Y65453*X60262Y65598*X60188Y65738*X60104Y65872*X60015Y66002*X59916Y66126*X59809Y66243*X59698Y66355*X59578Y66457*X59454Y66553*X59322Y66642*X59185Y66723*X59045Y66794*X58900Y66858*X58750Y66911*X58600Y66957*X58445Y66992*X52095Y66992D2*X52250Y66957D1*X52400Y66911*X52550Y66858*X52695Y66794*X52835Y66723*X52972Y66642*X53104Y66553*X53228Y66457*X53348Y66355*X53459Y66243*X53566Y66126*X53665Y66002*X53754Y65872*X53838Y65738*X53912Y65598*X53978Y65453*X54033Y65306*X54082Y65156*X54120Y65001*X54148Y64846*X54168Y64689*X54178Y64531*X54178Y64374*X54168Y64216*X54148Y64059*X54120Y63904*X54082Y63749*X54033Y63599*X53978Y63452*X53912Y63307*X53838Y63167*X53754Y63033*X53665Y62903*X53566Y62779*X53459Y62662*X53348Y62550*X53228Y62448*X53104Y62352*X52972Y62263*X52835Y62182*X52695Y62111*X52550Y62047*X52400Y61994*X52250Y61948*X52095Y61912*X52095Y56198D2*X52250Y56233D1*X52400Y56279*X52550Y56332*X52695Y56396*X52835Y56467*X52972Y56548*X53104Y56637*X53228Y56733*X53348Y56835*X53459Y56947*X53566Y57064*X53665Y57188*X53754Y57318*X53838Y57452*X53912Y57592*X53978Y57737*X54033Y57884*X54082Y58034*X54120Y58189*X54148Y58344*X54168Y58501*X54178Y58659*X54178Y58816*X54168Y58974*X54148Y59131*X54120Y59286*X54082Y59441*X54033Y59591*X53978Y59738*X53912Y59883*X53838Y60023*X53754Y60157*X53665Y60287*X53566Y60411*X53459Y60528*X53348Y60640*X53228Y60742*X53104Y60838*X52972Y60927*X52835Y61008*X52695Y61079*X52550Y61143*X52400Y61196*X52250Y61242*X52095Y61278*X58445Y61278D2*X58600Y61242D1*X58750Y61196*X58900Y61143*X59045Y61079*X59185Y61008*X59322Y60927*X59454Y60838*X59578Y60742*X59698Y60640*X59809Y60528*X59916Y60411*X60015Y60287*X60104Y60157*X60188Y60023*X60262Y59883*X60328Y59738*X60383Y59591*X60432Y59441*X60470Y59286*X60498Y59131*X60518Y58974*X60528Y58816*X60528Y58659*X60518Y58501*X60498Y58344*X60470Y58189*X60432Y58034*X60383Y57884*X60328Y57737*X60262Y57592*X60188Y57452*X60104Y57318*X60015Y57188*X59916Y57064*X59809Y56947*X59698Y56835*X59578Y56733*X59454Y56637*X59322Y56548*X59185Y56467*X59045Y56396*X58900Y56332*X58750Y56279*X58600Y56233*X58445Y56198*X59207Y55562D2*X59052Y55527D1*X58903Y55481*X58753Y55428*X58608Y55364*X58468Y55293*X58331Y55212*X58199Y55123*X58075Y55027*X57955Y54925*X57843Y54813*X57737Y54696*X57638Y54572*X57549Y54442*X57465Y54308*X57391Y54168*X57325Y54023*X57269Y53876*X57221Y53726*X57183Y53571*X57155Y53416*X57135Y53259*X57125Y53101*X57125Y52944*X57135Y52786*X57155Y52629*X57183Y52474*X57221Y52319*X57269Y52169*X57325Y52022*X57391Y51877*X57465Y51737*X57549Y51603*X57638Y51473*X57737Y51349*X57843Y51232*X57955Y51120*X58075Y51018*X58199Y50922*X58331Y50833*X58468Y50752*X58608Y50681*X58753Y50617*X58903Y50564*X59052Y50518*X59207Y50482*X60731Y50482*X60731Y55562*X59207Y55562*X52857Y55562D2*X52702Y55527D1*X52553Y55481*X52403Y55428*X52258Y55364*X52118Y55293*X51981Y55212*X51849Y55123*X51725Y55027*X51605Y54925*X51493Y54813*X51387Y54696*X51288Y54572*X51199Y54442*X51115Y54308*X51041Y54168*X50975Y54023*X50919Y53876*X50871Y53726*X50833Y53571*X50805Y53416*X50785Y53259*X50775Y53101*X50775Y52944*X50785Y52786*X50805Y52629*X50833Y52474*X50871Y52319*X50919Y52169*X50975Y52022*X51041Y51877*X51115Y51737*X51199Y51603*X51288Y51473*X51387Y51349*X51493Y51232*X51605Y51120*X51725Y51018*X51849Y50922*X51981Y50833*X52118Y50752*X52258Y50681*X52403Y50617*X52553Y50564*X52702Y50518*X52857Y50482*X46507Y50482D2*X46352Y50518D1*X46203Y50564*X46053Y50617*X45908Y50681*X45768Y50752*X45631Y50833*X45499Y50922*X45375Y51018*X45255Y51120*X45143Y51232*X45037Y51349*X44938Y51473*X44849Y51603*X44765Y51737*X44691Y51877*X44625Y52022*X44569Y52169*X44521Y52319*X44483Y52474*X44455Y52629*X44435Y52786*X44425Y52944*X44425Y53101*X44435Y53259*X44455Y53416*X44483Y53571*X44521Y53726*X44569Y53876*X44625Y54023*X44691Y54168*X44765Y54308*X44849Y54442*X44938Y54572*X45037Y54696*X45143Y54813*X45255Y54925*X45375Y55027*X45499Y55123*X45631Y55212*X45768Y55293*X45908Y55364*X46053Y55428*X46203Y55481*X46352Y55527*X46507Y55562*X40157Y55562D2*X40002Y55527D1*X39853Y55481*X39703Y55428*X39558Y55364*X39418Y55293*X39281Y55212*X39149Y55123*X39025Y55027*X38905Y54925*X38793Y54813*X38687Y54696*X38588Y54572*X38499Y54442*X38415Y54308*X38341Y54168*X38275Y54023*X38219Y53876*X38171Y53726*X38133Y53571*X38105Y53416*X38085Y53259*X38075Y53101*X38075Y52944*X38085Y52786*X38105Y52629*X38133Y52474*X38171Y52319*X38219Y52169*X38275Y52022*X38341Y51877*X38415Y51737*X38499Y51603*X38588Y51473*X38687Y51349*X38793Y51232*X38905Y51120*X39025Y51018*X39149Y50922*X39281Y50833*X39418Y50752*X39558Y50681*X39703Y50617*X39853Y50564*X40002Y50518*X40157Y50482*X33807Y50482D2*X33652Y50518D1*X33503Y50564*X33353Y50617*X33208Y50681*X33068Y50752*X32931Y50833*X32799Y50922*X32675Y51018*X32555Y51120*X32443Y51232*X32337Y51349*X32238Y51473*X32149Y51603*X32065Y51737*X31991Y51877*X31925Y52022*X31869Y52169*X31821Y52319*X31783Y52474*X31755Y52629*X31735Y52786*X31725Y52944*X31725Y53101*X31735Y53259*X31755Y53416*X31783Y53571*X31821Y53726*X31869Y53876*X31925Y54023*X31991Y54168*X32065Y54308*X32149Y54442*X32238Y54572*X32337Y54696*X32443Y54813*X32555Y54925*X32675Y55027*X32799Y55123*X32931Y55212*X33068Y55293*X33208Y55364*X33353Y55428*X33503Y55481*X33652Y55527*X33807Y55562*X27457Y55562D2*X27302Y55527D1*X27153Y55481*X27003Y55428*X26858Y55364*X26718Y55293*X26581Y55212*X26449Y55123*X26325Y55027*X26205Y54925*X26093Y54813*X25987Y54696*X25888Y54572*X25799Y54442*X25715Y54308*X25641Y54168*X25575Y54023*X25519Y53876*X25471Y53726*X25433Y53571*X25405Y53416*X25385Y53259*X25375Y53101*X25375Y52944*X25385Y52786*X25405Y52629*X25433Y52474*X25471Y52319*X25519Y52169*X25575Y52022*X25641Y51877*X25715Y51737*X25799Y51603*X25888Y51473*X25987Y51349*X26093Y51232*X26205Y51120*X26325Y51018*X26449Y50922*X26581Y50833*X26718Y50752*X26858Y50681*X27003Y50617*X27153Y50564*X27302Y50518*X27457Y50482*X21107Y50482D2*X20952Y50518D1*X20803Y50564*X20653Y50617*X20508Y50681*X20368Y50752*X20231Y50833*X20099Y50922*X19975Y51018*X19855Y51120*X19743Y51232*X19637Y51349*X19538Y51473*X19449Y51603*X19365Y51737*X19291Y51877*X19225Y52022*X19169Y52169*X19121Y52319*X19083Y52474*X19055Y52629*X19035Y52786*X19025Y52944*X19025Y53101*X19035Y53259*X19055Y53416*X19083Y53571*X19121Y53726*X19169Y53876*X19225Y54023*X19291Y54168*X19365Y54308*X19449Y54442*X19538Y54572*X19637Y54696*X19743Y54813*X19855Y54925*X19975Y55027*X20099Y55123*X20231Y55212*X20368Y55293*X20508Y55364*X20653Y55428*X20803Y55481*X20952Y55527*X21107Y55562*X14757Y55562D2*X14602Y55527D1*X14453Y55481*X14303Y55428*X14158Y55364*X14018Y55293*X13881Y55212*X13749Y55123*X13625Y55027*X13505Y54925*X13393Y54813*X13287Y54696*X13188Y54572*X13099Y54442*X13015Y54308*X12941Y54168*X12875Y54023*X12819Y53876*X12771Y53726*X12733Y53571*X12705Y53416*X12685Y53259*X12675Y53101*X12675Y52944*X12685Y52786*X12705Y52629*X12733Y52474*X12771Y52319*X12819Y52169*X12875Y52022*X12941Y51877*X13015Y51737*X13099Y51603*X13188Y51473*X13287Y51349*X13393Y51232*X13505Y51120*X13625Y51018*X13749Y50922*X13881Y50833*X14018Y50752*X14158Y50681*X14303Y50617*X14453Y50564*X14602Y50518*X14757Y50482*X16281Y50482*X16281Y55562*X13995Y56198D2*X14150Y56233D1*X14300Y56279*X14450Y56332*X14595Y56396*X14735Y56467*X14872Y56548*X15004Y56637*X15128Y56733*X15248Y56835*X15359Y56947*X15466Y57064*X15565Y57188*X15654Y57318*X15738Y57452*X15812Y57592*X15878Y57737*X15933Y57884*X15982Y58034*X16020Y58189*X16048Y58344*X16068Y58501*X16078Y58659*X16078Y58816*X16068Y58974*X16048Y59131*X16020Y59286*X15982Y59441*X15933Y59591*X15878Y59738*X15812Y59883*X15738Y60023*X15654Y60157*X15565Y60287*X15466Y60411*X15359Y60528*X15248Y60640*X15128Y60742*X15004Y60838*X14872Y60927*X14735Y61008*X14595Y61079*X14450Y61143*X14300Y61196*X14150Y61242*X13995Y61278*X13995Y61912D2*X14150Y61948D1*X14300Y61994*X14450Y62047*X14595Y62111*X14735Y62182*X14872Y62263*X15004Y62352*X15128Y62448*X15248Y62550*X15359Y62662*X15466Y62779*X15565Y62903*X15654Y63033*X15738Y63167*X15812Y63307*X15878Y63452*X15933Y63599*X15982Y63749*X16020Y63904*X16048Y64059*X16068Y64216*X16078Y64374*X16078Y64531*X16068Y64689*X16048Y64846*X16020Y65001*X15982Y65156*X15933Y65306*X15878Y65453*X15812Y65598*X15738Y65738*X15654Y65872*X15565Y66002*X15466Y66126*X15359Y66243*X15248Y66355*X15128Y66457*X15004Y66553*X14872Y66642*X14735Y66723*X14595Y66794*X14450Y66858*X14300Y66911*X14150Y66957*X13995Y66992*X12471Y66992*X12471Y61912*X13995Y61912*X13995Y61278D2*X12471Y61278D1*X12471Y56198*X13995Y56198*X16281Y55562D2*X14757Y55562D1*X20345Y56198D2*X20500Y56233D1*X20650Y56279*X20800Y56332*X20945Y56396*X21085Y56467*X21222Y56548*X21354Y56637*X21478Y56733*X21598Y56835*X21709Y56947*X21816Y57064*X21915Y57188*X22004Y57318*X22088Y57452*X22162Y57592*X22228Y57737*X22283Y57884*X22332Y58034*X22370Y58189*X22398Y58344*X22418Y58501*X22428Y58659*X22428Y58816*X22418Y58974*X22398Y59131*X22370Y59286*X22332Y59441*X22283Y59591*X22228Y59738*X22162Y59883*X22088Y60023*X22004Y60157*X21915Y60287*X21816Y60411*X21709Y60528*X21598Y60640*X21478Y60742*X21354Y60838*X21222Y60927*X21085Y61008*X20945Y61079*X20800Y61143*X20650Y61196*X20500Y61242*X20345Y61278*X20345Y61912D2*X20500Y61948D1*X20650Y61994*X20800Y62047*X20945Y62111*X21085Y62182*X21222Y62263*X21354Y62352*X21478Y62448*X21598Y62550*X21709Y62662*X21816Y62779*X21915Y62903*X22004Y63033*X22088Y63167*X22162Y63307*X22228Y63452*X22283Y63599*X22332Y63749*X22370Y63904*X22398Y64059*X22418Y64216*X22428Y64374*X22428Y64531*X22418Y64689*X22398Y64846*X22370Y65001*X22332Y65156*X22283Y65306*X22228Y65453*X22162Y65598*X22088Y65738*X22004Y65872*X21915Y66002*X21816Y66126*X21709Y66243*X21598Y66355*X21478Y66457*X21354Y66553*X21222Y66642*X21085Y66723*X20945Y66794*X20800Y66858*X20650Y66911*X20500Y66957*X20345Y66992*X18821Y66992*X18821Y61912*X20345Y61912*X20345Y61278D2*X18821Y61278D1*X18821Y56198*X20345Y56198*X21107Y55562D2*X22631Y55562D1*X22631Y50482*X21107Y50482*X27457Y50482D2*X28981Y50482D1*X28981Y55562*X27457Y55562*X26695Y56198D2*X25171Y56198D1*X25171Y61278*X26695Y61278*X26695Y61912D2*X25171Y61912D1*X25171Y66992*X26695Y66992*X33045Y66992D2*X31521Y66992D1*X31521Y61912*X33045Y61912*X33045Y61278D2*X31521Y61278D1*X31521Y56198*X33045Y56198*X33807Y55562D2*X35331Y55562D1*X35331Y50482*X33807Y50482*X40157Y50482D2*X41681Y50482D1*X41681Y55562*X39395Y56198D2*X39550Y56233D1*X39700Y56279*X39850Y56332*X39995Y56396*X40135Y56467*X40272Y56548*X40404Y56637*X40528Y56733*X40648Y56835*X40759Y56947*X40866Y57064*X40965Y57188*X41054Y57318*X41138Y57452*X41212Y57592*X41278Y57737*X41333Y57884*X41382Y58034*X41420Y58189*X41448Y58344*X41468Y58501*X41478Y58659*X41478Y58816*X41468Y58974*X41448Y59131*X41420Y59286*X41382Y59441*X41333Y59591*X41278Y59738*X41212Y59883*X41138Y60023*X41054Y60157*X40965Y60287*X40866Y60411*X40759Y60528*X40648Y60640*X40528Y60742*X40404Y60838*X40272Y60927*X40135Y61008*X39995Y61079*X39850Y61143*X39700Y61196*X39550Y61242*X39395Y61278*X39395Y61912D2*X39550Y61948D1*X39700Y61994*X39850Y62047*X39995Y62111*X40135Y62182*X40272Y62263*X40404Y62352*X40528Y62448*X40648Y62550*X40759Y62662*X40866Y62779*X40965Y62903*X41054Y63033*X41138Y63167*X41212Y63307*X41278Y63452*X41333Y63599*X41382Y63749*X41420Y63904*X41448Y64059*X41468Y64216*X41478Y64374*X41478Y64531*X41468Y64689*X41448Y64846*X41420Y65001*X41382Y65156*X41333Y65306*X41278Y65453*X41212Y65598*X41138Y65738*X41054Y65872*X40965Y66002*X40866Y66126*X40759Y66243*X40648Y66355*X40528Y66457*X40404Y66553*X40272Y66642*X40135Y66723*X39995Y66794*X39850Y66858*X39700Y66911*X39550Y66957*X39395Y66992*X37871Y66992*X37871Y61912*X39395Y61912*X39395Y61278D2*X37871Y61278D1*X37871Y56198*X39395Y56198*X41681Y55562D2*X40157Y55562D1*X45745Y56198D2*X45900Y56233D1*X46050Y56279*X46200Y56332*X46345Y56396*X46485Y56467*X46622Y56548*X46754Y56637*X46878Y56733*X46998Y56835*X47109Y56947*X47216Y57064*X47315Y57188*X47404Y57318*X47488Y57452*X47562Y57592*X47628Y57737*X47683Y57884*X47732Y58034*X47770Y58189*X47798Y58344*X47818Y58501*X47828Y58659*X47828Y58816*X47818Y58974*X47798Y59131*X47770Y59286*X47732Y59441*X47683Y59591*X47628Y59738*X47562Y59883*X47488Y60023*X47404Y60157*X47315Y60287*X47216Y60411*X47109Y60528*X46998Y60640*X46878Y60742*X46754Y60838*X46622Y60927*X46485Y61008*X46345Y61079*X46200Y61143*X46050Y61196*X45900Y61242*X45745Y61278*X45745Y61912D2*X45900Y61948D1*X46050Y61994*X46200Y62047*X46345Y62111*X46485Y62182*X46622Y62263*X46754Y62352*X46878Y62448*X46998Y62550*X47109Y62662*X47216Y62779*X47315Y62903*X47404Y63033*X47488Y63167*X47562Y63307*X47628Y63452*X47683Y63599*X47732Y63749*X47770Y63904*X47798Y64059*X47818Y64216*X47828Y64374*X47828Y64531*X47818Y64689*X47798Y64846*X47770Y65001*X47732Y65156*X47683Y65306*X47628Y65453*X47562Y65598*X47488Y65738*X47404Y65872*X47315Y66002*X47216Y66126*X47109Y66243*X46998Y66355*X46878Y66457*X46754Y66553*X46622Y66642*X46485Y66723*X46345Y66794*X46200Y66858*X46050Y66911*X45900Y66957*X45745Y66992*X44221Y66992*X44221Y61912*X45745Y61912*X45745Y61278D2*X44221Y61278D1*X44221Y56198*X45745Y56198*X46507Y55562D2*X48031Y55562D1*X48031Y50482*X46507Y50482*X52857Y50482D2*X54381Y50482D1*X54381Y55562*X52857Y55562*X52095Y56198D2*X50571Y56198D1*X50571Y61278*X52095Y61278*X52095Y61912D2*X50571Y61912D1*X50571Y66992*X52095Y66992*X58445Y66992D2*X56921Y66992D1*X56921Y61912*X58445Y61912*X58445Y61278D2*X56921Y61278D1*X56921Y56198*X58445Y56198*X64795Y58738D2*X64950Y58702D1*X65100Y58656*X65250Y58603*X65395Y58539*X65535Y58468*X65672Y58387*X65804Y58298*X65928Y58202*X66048Y58100*X66159Y57988*X66266Y57871*X66365Y57747*X66454Y57617*X66538Y57483*X66612Y57343*X66678Y57198*X66733Y57051*X66782Y56901*X66820Y56746*X66848Y56591*X66868Y56434*X66878Y56276*X66878Y56119*X66868Y55961*X66848Y55804*X66820Y55649*X66782Y55494*X66733Y55344*X66678Y55197*X66612Y55052*X66538Y54912*X66454Y54778*X66365Y54648*X66266Y54524*X66159Y54407*X66048Y54295*X65928Y54193*X65804Y54097*X65672Y54008*X65535Y53927*X65395Y53856*X65250Y53792*X65100Y53739*X64950Y53693*X64795Y53658*X68605Y53658D2*X68760Y53693D1*X68910Y53739*X69060Y53792*X69205Y53856*X69345Y53927*X69482Y54008*X69614Y54097*X69738Y54193*X69858Y54295*X69969Y54407*X70076Y54524*X70175Y54648*X70264Y54778*X70348Y54912*X70422Y55052*X70488Y55197*X70543Y55344*X70592Y55494*X70630Y55649*X70658Y55804*X70678Y55961*X70688Y56119*X70688Y56276*X70678Y56434*X70658Y56591*X70630Y56746*X70592Y56901*X70543Y57051*X70488Y57198*X70422Y57343*X70348Y57483*X70264Y57617*X70175Y57747*X70076Y57871*X69969Y57988*X69858Y58100*X69738Y58202*X69614Y58298*X69482Y58387*X69345Y58468*X69205Y58539*X69060Y58603*X68910Y58656*X68760Y58702*X68605Y58738*X72415Y58738D2*X72570Y58702D1*X72720Y58656*X72870Y58603*X73015Y58539*X73155Y58468*X73292Y58387*X73424Y58298*X73548Y58202*X73668Y58100*X73779Y57988*X73886Y57871*X73985Y57747*X74074Y57617*X74158Y57483*X74232Y57343*X74298Y57198*X74353Y57051*X74402Y56901*X74440Y56746*X74468Y56591*X74488Y56434*X74498Y56276*X74498Y56119*X74488Y55961*X74468Y55804*X74440Y55649*X74402Y55494*X74353Y55344*X74298Y55197*X74232Y55052*X74158Y54912*X74074Y54778*X73985Y54648*X73886Y54524*X73779Y54407*X73668Y54295*X73548Y54193*X73424Y54097*X73292Y54008*X73155Y53927*X73015Y53856*X72870Y53792*X72720Y53739*X72570Y53693*X72415Y53658*X76225Y53658D2*X76380Y53693D1*X76530Y53739*X76680Y53792*X76825Y53856*X76965Y53927*X77102Y54008*X77234Y54097*X77358Y54193*X77478Y54295*X77589Y54407*X77696Y54524*X77795Y54648*X77884Y54778*X77968Y54912*X78042Y55052*X78108Y55197*X78163Y55344*X78212Y55494*X78250Y55649*X78278Y55804*X78298Y55961*X78308Y56119*X78308Y56276*X78298Y56434*X78278Y56591*X78250Y56746*X78212Y56901*X78163Y57051*X78108Y57198*X78042Y57343*X77968Y57483*X77884Y57617*X77795Y57747*X77696Y57871*X77589Y57988*X77478Y58100*X77358Y58202*X77234Y58298*X77102Y58387*X76965Y58468*X76825Y58539*X76680Y58603*X76530Y58656*X76380Y58702*X76225Y58738*X81940Y57468D2*X82095Y57503D1*X82245Y57549*X82395Y57602*X82540Y57666*X82680Y57737*X82817Y57818*X82949Y57907*X83073Y58003*X83193Y58105*X83304Y58217*X83411Y58334*X83510Y58458*X83599Y58588*X83683Y58722*X83756Y58862*X83823Y59007*X83878Y59154*X83927Y59304*X83965Y59459*X83993Y59614*X84013Y59771*X84023Y59929*X84023Y60086*X84013Y60244*X83993Y60401*X83965Y60556*X83927Y60711*X83878Y60861*X83823Y61008*X83756Y61153*X83683Y61293*X83599Y61427*X83510Y61557*X83411Y61681*X83304Y61798*X83193Y61910*X83073Y62012*X82949Y62108*X82817Y62197*X82680Y62278*X82540Y62349*X82395Y62413*X82245Y62466*X82095Y62512*X81940Y62548*X75717Y63818D2*X75562Y63782D1*X75413Y63736*X75263Y63683*X75118Y63619*X74978Y63548*X74841Y63467*X74709Y63378*X74585Y63282*X74465Y63180*X74353Y63068*X74247Y62951*X74148Y62827*X74059Y62697*X73975Y62563*X73901Y62423*X73835Y62278*X73779Y62131*X73731Y61981*X73693Y61826*X73665Y61671*X73645Y61514*X73635Y61356*X73635Y61199*X73645Y61041*X73665Y60884*X73693Y60729*X73731Y60574*X73779Y60424*X73835Y60277*X73901Y60132*X73975Y59992*X74059Y59858*X74148Y59728*X74247Y59604*X74353Y59487*X74465Y59375*X74585Y59273*X74709Y59177*X74841Y59088*X74978Y59007*X75118Y58936*X75263Y58872*X75413Y58819*X75562Y58773*X75717Y58738*X71907Y58738D2*X71752Y58773D1*X71603Y58819*X71453Y58872*X71308Y58936*X71168Y59007*X71031Y59088*X70899Y59177*X70775Y59273*X70655Y59375*X70543Y59487*X70437Y59604*X70338Y59728*X70249Y59858*X70165Y59992*X70091Y60132*X70025Y60277*X69969Y60424*X69921Y60574*X69883Y60729*X69855Y60884*X69835Y61041*X69825Y61199*X69825Y61356*X69835Y61514*X69855Y61671*X69883Y61826*X69921Y61981*X69969Y62131*X70025Y62278*X70091Y62423*X70165Y62563*X70249Y62697*X70338Y62827*X70437Y62951*X70543Y63068*X70655Y63180*X70775Y63282*X70899Y63378*X71031Y63467*X71168Y63548*X71308Y63619*X71453Y63683*X71603Y63736*X71752Y63782*X71907Y63818*X68097Y63818D2*X67942Y63782D1*X67793Y63736*X67643Y63683*X67498Y63619*X67358Y63548*X67221Y63467*X67089Y63378*X66965Y63282*X66845Y63180*X66733Y63068*X66627Y62951*X66528Y62827*X66439Y62697*X66355Y62563*X66281Y62423*X66215Y62278*X66159Y62131*X66111Y61981*X66073Y61826*X66045Y61671*X66025Y61514*X66015Y61356*X66015Y61199*X66025Y61041*X66045Y60884*X66073Y60729*X66111Y60574*X66159Y60424*X66215Y60277*X66281Y60132*X66355Y59992*X66439Y59858*X66528Y59728*X66627Y59604*X66733Y59487*X66845Y59375*X66965Y59273*X67089Y59177*X67221Y59088*X67358Y59007*X67498Y58936*X67643Y58872*X67793Y58819*X67942Y58773*X68097Y58738*X64287Y58738D2*X64132Y58773D1*X63983Y58819*X63833Y58872*X63688Y58936*X63548Y59007*X63411Y59088*X63279Y59177*X63155Y59273*X63035Y59375*X62923Y59487*X62817Y59604*X62718Y59728*X62629Y59858*X62545Y59992*X62471Y60132*X62405Y60277*X62349Y60424*X62301Y60574*X62263Y60729*X62235Y60884*X62215Y61041*X62205Y61199*X62205Y61356*X62215Y61514*X62235Y61671*X62263Y61826*X62301Y61981*X62349Y62131*X62405Y62278*X62471Y62423*X62545Y62563*X62629Y62697*X62718Y62827*X62817Y62951*X62923Y63068*X63035Y63180*X63155Y63282*X63279Y63378*X63411Y63467*X63548Y63548*X63688Y63619*X63833Y63683*X63983Y63736*X64132Y63782*X64287Y63818*X65811Y63818*X65811Y58738*X64287Y58738*X64795Y58738D2*X63271Y58738D1*X63271Y53658*X64795Y53658*X68605Y53658D2*X67081Y53658D1*X67081Y58738*X68605Y58738*X68097Y58738D2*X69621Y58738D1*X69621Y63818*X68097Y63818*X71907Y63818D2*X73431Y63818D1*X73431Y58738*X71907Y58738*X72415Y58738D2*X70891Y58738D1*X70891Y53658*X72415Y53658*X76225Y53658D2*X74701Y53658D1*X74701Y58738*X76225Y58738*X75717Y58738D2*X77241Y58738D1*X77241Y63818*X75717Y63818*X80162Y63818D2*X80007Y63853D1*X79858Y63899*X79708Y63952*X79563Y64016*X79423Y64087*X79286Y64168*X79154Y64257*X79030Y64353*X78910Y64455*X78798Y64567*X78692Y64684*X78593Y64808*X78504Y64938*X78420Y65072*X78346Y65212*X78280Y65357*X78224Y65504*X78176Y65654*X78138Y65809*X78110Y65964*X78090Y66121*X78080Y66279*X78080Y66436*X78090Y66594*X78110Y66751*X78138Y66906*X78176Y67061*X78224Y67211*X78280Y67358*X78346Y67503*X78420Y67643*X78504Y67777*X78593Y67907*X78692Y68031*X78798Y68148*X78910Y68260*X79030Y68362*X79154Y68458*X79286Y68547*X79423Y68628*X79563Y68699*X79708Y68763*X79858Y68816*X80007Y68862*X80162Y68898*X81686Y68898*X81686Y63818*X80162Y63818*X86512Y63818D2*X86357Y63782D1*X86208Y63736*X86058Y63683*X85913Y63619*X85773Y63548*X85636Y63467*X85504Y63378*X85380Y63282*X85260Y63180*X85148Y63068*X85042Y62951*X84943Y62827*X84854Y62697*X84770Y62563*X84696Y62423*X84630Y62278*X84574Y62131*X84526Y61981*X84488Y61826*X84460Y61671*X84440Y61514*X84430Y61356*X84430Y61199*X84440Y61041*X84460Y60884*X84488Y60729*X84526Y60574*X84574Y60424*X84630Y60277*X84696Y60132*X84770Y59992*X84854Y59858*X84943Y59728*X85042Y59604*X85148Y59487*X85260Y59375*X85380Y59273*X85504Y59177*X85636Y59088*X85773Y59007*X85913Y58936*X86058Y58872*X86208Y58819*X86357Y58773*X86512Y58738*X87020Y58738D2*X87175Y58702D1*X87325Y58656*X87475Y58603*X87620Y58539*X87760Y58468*X87897Y58387*X88029Y58298*X88153Y58202*X88273Y58100*X88384Y57988*X88491Y57871*X88590Y57747*X88679Y57617*X88763Y57483*X88836Y57343*X88903Y57198*X88958Y57051*X89007Y56901*X89045Y56746*X89073Y56591*X89093Y56434*X89103Y56276*X89103Y56119*X89093Y55961*X89073Y55804*X89045Y55649*X89007Y55494*X88958Y55344*X88903Y55197*X88836Y55052*X88763Y54912*X88679Y54778*X88590Y54648*X88491Y54524*X88384Y54407*X88273Y54295*X88153Y54193*X88029Y54097*X87897Y54008*X87760Y53927*X87620Y53856*X87475Y53792*X87325Y53739*X87175Y53693*X87020Y53658*X82702Y55562D2*X82547Y55527D1*X82398Y55481*X82248Y55428*X82103Y55364*X81963Y55293*X81826Y55212*X81694Y55123*X81570Y55027*X81450Y54925*X81338Y54813*X81232Y54696*X81133Y54572*X81044Y54442*X80960Y54308*X80886Y54168*X80820Y54023*X80764Y53876*X80716Y53726*X80678Y53571*X80650Y53416*X80630Y53259*X80620Y53101*X80620Y52944*X80630Y52786*X80650Y52629*X80678Y52474*X80716Y52319*X80764Y52169*X80820Y52022*X80886Y51877*X80960Y51737*X81044Y51603*X81133Y51473*X81232Y51349*X81338Y51232*X81450Y51120*X81570Y51018*X81694Y50922*X81826Y50833*X81963Y50752*X82103Y50681*X82248Y50617*X82398Y50564*X82547Y50518*X82702Y50482*X84226Y50482*X84226Y55562*X82702Y55562*X81940Y57468D2*X80416Y57468D1*X80416Y62548*X81940Y62548*X86512Y63818D2*X88036Y63818D1*X88036Y58738*X86512Y58738*X87020Y58738D2*X85496Y58738D1*X85496Y53658*X87020Y53658*X90830Y53658D2*X89306Y53658D1*X89306Y58738*X90830Y58738*X90322Y58738D2*X91846Y58738D1*X91846Y63818*X90322Y63818*X94132Y63818D2*X95656Y63818D1*X95656Y58738*X94132Y58738*X94640Y58738D2*X93116Y58738D1*X93116Y53658*X94640Y53658*X98450Y53658D2*X96926Y53658D1*X96926Y58738*X98450Y58738*X97942Y58738D2*X99466Y58738D1*X99466Y63818*X97942Y63818*X101752Y63818D2*X103276Y63818D1*X103276Y58738*X101752Y58738*X102260Y58738D2*X100736Y58738D1*X100736Y53658*X102260Y53658*X106070Y53658D2*X104546Y53658D1*X104546Y58738*X106070Y58738*X105562Y58738D2*X107086Y58738D1*X107086Y63818*X105562Y63818*X109372Y63818D2*X110896Y63818D1*X110896Y58738*X109372Y58738*X109880Y58738D2*X108356Y58738D1*X108356Y53658*X109880Y53658*X113690Y53658D2*X112166Y53658D1*X112166Y58738*X113690Y58738*X114706Y58738D2*X113182Y58738D1*X123215Y56198D2*X123370Y56233D1*X123520Y56279*X123670Y56332*X123815Y56396*X123955Y56467*X124092Y56548*X124224Y56637*X124348Y56733*X124468Y56835*X124579Y56947*X124686Y57064*X124785Y57188*X124874Y57318*X124958Y57452*X125032Y57592*X125098Y57737*X125153Y57884*X125202Y58034*X125240Y58189*X125268Y58344*X125288Y58501*X125298Y58659*X125298Y58816*X125288Y58974*X125268Y59131*X125240Y59286*X125202Y59441*X125153Y59591*X125098Y59738*X125032Y59883*X124958Y60023*X124874Y60157*X124785Y60287*X124686Y60411*X124579Y60528*X124468Y60640*X124348Y60742*X124224Y60838*X124092Y60927*X123955Y61008*X123815Y61079*X123670Y61143*X123520Y61196*X123370Y61242*X123215Y61278*X129565Y61278D2*X129720Y61242D1*X129870Y61196*X130020Y61143*X130165Y61079*X130305Y61008*X130442Y60927*X130574Y60838*X130698Y60742*X130818Y60640*X130929Y60528*X131036Y60411*X131135Y60287*X131224Y60157*X131308Y60023*X131382Y59883*X131448Y59738*X131503Y59591*X131552Y59441*X131590Y59286*X131618Y59131*X131638Y58974*X131648Y58816*X131648Y58659*X131638Y58501*X131618Y58344*X131590Y58189*X131552Y58034*X131503Y57884*X131448Y57737*X131382Y57592*X131308Y57452*X131224Y57318*X131135Y57188*X131036Y57064*X130929Y56947*X130818Y56835*X130698Y56733*X130574Y56637*X130442Y56548*X130305Y56467*X130165Y56396*X130020Y56332*X129870Y56279*X129720Y56233*X129565Y56198*X142265Y56198D2*X142420Y56233D1*X142570Y56279*X142720Y56332*X142865Y56396*X143005Y56467*X143142Y56548*X143274Y56637*X143398Y56733*X143518Y56835*X143629Y56947*X143736Y57064*X143835Y57188*X143924Y57318*X144008Y57452*X144082Y57592*X144148Y57737*X144203Y57884*X144252Y58034*X144290Y58189*X144318Y58344*X144338Y58501*X144348Y58659*X144348Y58816*X144338Y58974*X144318Y59131*X144290Y59286*X144252Y59441*X144203Y59591*X144148Y59738*X144082Y59883*X144008Y60023*X143924Y60157*X143835Y60287*X143736Y60411*X143629Y60528*X143518Y60640*X143398Y60742*X143274Y60838*X143142Y60927*X143005Y61008*X142865Y61079*X142720Y61143*X142570Y61196*X142420Y61242*X142265Y61278*X148615Y61278D2*X148770Y61242D1*X148920Y61196*X149070Y61143*X149215Y61079*X149355Y61008*X149492Y60927*X149624Y60838*X149748Y60742*X149868Y60640*X149979Y60528*X150086Y60411*X150185Y60287*X150274Y60157*X150358Y60023*X150432Y59883*X150498Y59738*X150553Y59591*X150602Y59441*X150640Y59286*X150668Y59131*X150688Y58974*X150698Y58816*X150698Y58659*X150688Y58501*X150668Y58344*X150640Y58189*X150602Y58034*X150553Y57884*X150498Y57737*X150432Y57592*X150358Y57452*X150274Y57318*X150185Y57188*X150086Y57064*X149979Y56947*X149868Y56835*X149748Y56733*X149624Y56637*X149492Y56548*X149355Y56467*X149215Y56396*X149070Y56332*X148920Y56279*X148770Y56233*X148615Y56198*X161315Y56198D2*X161470Y56233D1*X161620Y56279*X161770Y56332*X161915Y56396*X162055Y56467*X162192Y56548*X162324Y56637*X162448Y56733*X162568Y56835*X162679Y56947*X162786Y57064*X162885Y57188*X162974Y57318*X163058Y57452*X163132Y57592*X163198Y57737*X163253Y57884*X163302Y58034*X163340Y58189*X163368Y58344*X163388Y58501*X163398Y58659*X163398Y58816*X163388Y58974*X163368Y59131*X163340Y59286*X163302Y59441*X163253Y59591*X163198Y59738*X163132Y59883*X163058Y60023*X162974Y60157*X162885Y60287*X162786Y60411*X162679Y60528*X162568Y60640*X162448Y60742*X162324Y60838*X162192Y60927*X162055Y61008*X161915Y61079*X161770Y61143*X161620Y61196*X161470Y61242*X161315Y61278*X167665Y61278D2*X167820Y61242D1*X167970Y61196*X168120Y61143*X168265Y61079*X168405Y61008*X168542Y60927*X168674Y60838*X168798Y60742*X168918Y60640*X169029Y60528*X169136Y60411*X169235Y60287*X169324Y60157*X169408Y60023*X169482Y59883*X169548Y59738*X169603Y59591*X169652Y59441*X169690Y59286*X169718Y59131*X169738Y58974*X169748Y58816*X169748Y58659*X169738Y58501*X169718Y58344*X169690Y58189*X169652Y58034*X169603Y57884*X169548Y57737*X169482Y57592*X169408Y57452*X169324Y57318*X169235Y57188*X169136Y57064*X169029Y56947*X168918Y56835*X168798Y56733*X168674Y56637*X168542Y56548*X168405Y56467*X168265Y56396*X168120Y56332*X167970Y56279*X167820Y56233*X167665Y56198*X169951Y55562D2*X169951Y50482D1*X168427Y50482*X168272Y50518*X168123Y50564*X167973Y50617*X167828Y50681*X167688Y50752*X167551Y50833*X167419Y50922*X167295Y51018*X167175Y51120*X167063Y51232*X166957Y51349*X166858Y51473*X166769Y51603*X166685Y51737*X166611Y51877*X166545Y52022*X166489Y52169*X166441Y52319*X166403Y52474*X166375Y52629*X166355Y52786*X166345Y52944*X166345Y53101*X166355Y53259*X166375Y53416*X166403Y53571*X166441Y53726*X166489Y53876*X166545Y54023*X166611Y54168*X166685Y54308*X166769Y54442*X166858Y54572*X166957Y54696*X167063Y54813*X167175Y54925*X167295Y55027*X167419Y55123*X167551Y55212*X167688Y55293*X167828Y55364*X167973Y55428*X168123Y55481*X168272Y55527*X168427Y55562*X162077Y55562D2*X161922Y55527D1*X161773Y55481*X161623Y55428*X161478Y55364*X161338Y55293*X161201Y55212*X161069Y55123*X160945Y55027*X160825Y54925*X160713Y54813*X160607Y54696*X160508Y54572*X160419Y54442*X160335Y54308*X160261Y54168*X160195Y54023*X160139Y53876*X160091Y53726*X160053Y53571*X160025Y53416*X160005Y53259*X159995Y53101*X159995Y52944*X160005Y52786*X160025Y52629*X160053Y52474*X160091Y52319*X160139Y52169*X160195Y52022*X160261Y51877*X160335Y51737*X160419Y51603*X160508Y51473*X160607Y51349*X160713Y51232*X160825Y51120*X160945Y51018*X161069Y50922*X161201Y50833*X161338Y50752*X161478Y50681*X161623Y50617*X161773Y50564*X161922Y50518*X162077Y50482*X155727Y50482D2*X155572Y50518D1*X155423Y50564*X155273Y50617*X155128Y50681*X154988Y50752*X154851Y50833*X154719Y50922*X154595Y51018*X154475Y51120*X154363Y51232*X154257Y51349*X154158Y51473*X154069Y51603*X153985Y51737*X153911Y51877*X153845Y52022*X153789Y52169*X153741Y52319*X153703Y52474*X153675Y52629*X153655Y52786*X153645Y52944*X153645Y53101*X153655Y53259*X153675Y53416*X153703Y53571*X153741Y53726*X153789Y53876*X153845Y54023*X153911Y54168*X153985Y54308*X154069Y54442*X154158Y54572*X154257Y54696*X154363Y54813*X154475Y54925*X154595Y55027*X154719Y55123*X154851Y55212*X154988Y55293*X155128Y55364*X155273Y55428*X155423Y55481*X155572Y55527*X155727Y55562*X150901Y55562D2*X150901Y50482D1*X149377Y50482*X149222Y50518*X149073Y50564*X148923Y50617*X148778Y50681*X148638Y50752*X148501Y50833*X148369Y50922*X148245Y51018*X148125Y51120*X148013Y51232*X147907Y51349*X147808Y51473*X147719Y51603*X147635Y51737*X147561Y51877*X147495Y52022*X147439Y52169*X147391Y52319*X147353Y52474*X147325Y52629*X147305Y52786*X147295Y52944*X147295Y53101*X147305Y53259*X147325Y53416*X147353Y53571*X147391Y53726*X147439Y53876*X147495Y54023*X147561Y54168*X147635Y54308*X147719Y54442*X147808Y54572*X147907Y54696*X148013Y54813*X148125Y54925*X148245Y55027*X148369Y55123*X148501Y55212*X148638Y55293*X148778Y55364*X148923Y55428*X149073Y55481*X149222Y55527*X149377Y55562*X143027Y55562D2*X142872Y55527D1*X142723Y55481*X142573Y55428*X142428Y55364*X142288Y55293*X142151Y55212*X142019Y55123*X141895Y55027*X141775Y54925*X141663Y54813*X141557Y54696*X141458Y54572*X141369Y54442*X141285Y54308*X141211Y54168*X141145Y54023*X141089Y53876*X141041Y53726*X141003Y53571*X140975Y53416*X140955Y53259*X140945Y53101*X140945Y52944*X140955Y52786*X140975Y52629*X141003Y52474*X141041Y52319*X141089Y52169*X141145Y52022*X141211Y51877*X141285Y51737*X141369Y51603*X141458Y51473*X141557Y51349*X141663Y51232*X141775Y51120*X141895Y51018*X142019Y50922*X142151Y50833*X142288Y50752*X142428Y50681*X142573Y50617*X142723Y50564*X142872Y50518*X143027Y50482*X136677Y50482D2*X136522Y50518D1*X136373Y50564*X136223Y50617*X136078Y50681*X135938Y50752*X135801Y50833*X135669Y50922*X135545Y51018*X135425Y51120*X135313Y51232*X135207Y51349*X135108Y51473*X135019Y51603*X134935Y51737*X134861Y51877*X134795Y52022*X134739Y52169*X134691Y52319*X134653Y52474*X134625Y52629*X134605Y52786*X134595Y52944*X134595Y53101*X134605Y53259*X134625Y53416*X134653Y53571*X134691Y53726*X134739Y53876*X134795Y54023*X134861Y54168*X134935Y54308*X135019Y54442*X135108Y54572*X135207Y54696*X135313Y54813*X135425Y54925*X135545Y55027*X135669Y55123*X135801Y55212*X135938Y55293*X136078Y55364*X136223Y55428*X136373Y55481*X136522Y55527*X136677Y55562*X131851Y55562D2*X131851Y50482D1*X130327Y50482*X130172Y50518*X130023Y50564*X129873Y50617*X129728Y50681*X129588Y50752*X129451Y50833*X129319Y50922*X129195Y51018*X129075Y51120*X128963Y51232*X128857Y51349*X128758Y51473*X128669Y51603*X128585Y51737*X128511Y51877*X128445Y52022*X128389Y52169*X128341Y52319*X128303Y52474*X128275Y52629*X128255Y52786*X128245Y52944*X128245Y53101*X128255Y53259*X128275Y53416*X128303Y53571*X128341Y53726*X128389Y53876*X128445Y54023*X128511Y54168*X128585Y54308*X128669Y54442*X128758Y54572*X128857Y54696*X128963Y54813*X129075Y54925*X129195Y55027*X129319Y55123*X129451Y55212*X129588Y55293*X129728Y55364*X129873Y55428*X130023Y55481*X130172Y55527*X130327Y55562*X123977Y55562D2*X123822Y55527D1*X123673Y55481*X123523Y55428*X123378Y55364*X123238Y55293*X123101Y55212*X122969Y55123*X122845Y55027*X122725Y54925*X122613Y54813*X122507Y54696*X122408Y54572*X122319Y54442*X122235Y54308*X122161Y54168*X122095Y54023*X122039Y53876*X121991Y53726*X121953Y53571*X121925Y53416*X121905Y53259*X121895Y53101*X121895Y52944*X121905Y52786*X121925Y52629*X121953Y52474*X121991Y52319*X122039Y52169*X122095Y52022*X122161Y51877*X122235Y51737*X122319Y51603*X122408Y51473*X122507Y51349*X122613Y51232*X122725Y51120*X122845Y51018*X122969Y50922*X123101Y50833*X123238Y50752*X123378Y50681*X123523Y50617*X123673Y50564*X123822Y50518*X123977Y50482*X125501Y50482*X125501Y55562*X123977Y55562*X123215Y56198D2*X121691Y56198D1*X121691Y61278*X123215Y61278*X123215Y61912D2*X121691Y61912D1*X121691Y66992*X123215Y66992*X129565Y66992D2*X128041Y66992D1*X128041Y61912*X129565Y61912*X129565Y61278D2*X128041Y61278D1*X128041Y56198*X129565Y56198*X131851Y55562D2*X130327Y55562D1*X135915Y56198D2*X136070Y56233D1*X136220Y56279*X136370Y56332*X136515Y56396*X136655Y56467*X136792Y56548*X136924Y56637*X137048Y56733*X137168Y56835*X137279Y56947*X137386Y57064*X137485Y57188*X137574Y57318*X137658Y57452*X137732Y57592*X137798Y57737*X137853Y57884*X137902Y58034*X137940Y58189*X137968Y58344*X137988Y58501*X137998Y58659*X137998Y58816*X137988Y58974*X137968Y59131*X137940Y59286*X137902Y59441*X137853Y59591*X137798Y59738*X137732Y59883*X137658Y60023*X137574Y60157*X137485Y60287*X137386Y60411*X137279Y60528*X137168Y60640*X137048Y60742*X136924Y60838*X136792Y60927*X136655Y61008*X136515Y61079*X136370Y61143*X136220Y61196*X136070Y61242*X135915Y61278*X135915Y61912D2*X136070Y61948D1*X136220Y61994*X136370Y62047*X136515Y62111*X136655Y62182*X136792Y62263*X136924Y62352*X137048Y62448*X137168Y62550*X137279Y62662*X137386Y62779*X137485Y62903*X137574Y63033*X137658Y63167*X137732Y63307*X137798Y63452*X137853Y63599*X137902Y63749*X137940Y63904*X137968Y64059*X137988Y64216*X137998Y64374*X137998Y64531*X137988Y64689*X137968Y64846*X137940Y65001*X137902Y65156*X137853Y65306*X137798Y65453*X137732Y65598*X137658Y65738*X137574Y65872*X137485Y66002*X137386Y66126*X137279Y66243*X137168Y66355*X137048Y66457*X136924Y66553*X136792Y66642*X136655Y66723*X136515Y66794*X136370Y66858*X136220Y66911*X136070Y66957*X135915Y66992*X134391Y66992*X134391Y61912*X135915Y61912*X135915Y61278D2*X134391Y61278D1*X134391Y56198*X135915Y56198*X136677Y55562D2*X138201Y55562D1*X138201Y50482*X136677Y50482*X143027Y50482D2*X144551Y50482D1*X144551Y55562*X143027Y55562*X142265Y56198D2*X140741Y56198D1*X140741Y61278*X142265Y61278*X142265Y61912D2*X140741Y61912D1*X140741Y66992*X142265Y66992*X148615Y66992D2*X147091Y66992D1*X147091Y61912*X148615Y61912*X148615Y61278D2*X147091Y61278D1*X147091Y56198*X148615Y56198*X150901Y55562D2*X149377Y55562D1*X154965Y56198D2*X155120Y56233D1*X155270Y56279*X155420Y56332*X155565Y56396*X155705Y56467*X155842Y56548*X155974Y56637*X156098Y56733*X156218Y56835*X156329Y56947*X156436Y57064*X156535Y57188*X156624Y57318*X156708Y57452*X156782Y57592*X156848Y57737*X156903Y57884*X156952Y58034*X156990Y58189*X157018Y58344*X157038Y58501*X157048Y58659*X157048Y58816*X157038Y58974*X157018Y59131*X156990Y59286*X156952Y59441*X156903Y59591*X156848Y59738*X156782Y59883*X156708Y60023*X156624Y60157*X156535Y60287*X156436Y60411*X156329Y60528*X156218Y60640*X156098Y60742*X155974Y60838*X155842Y60927*X155705Y61008*X155565Y61079*X155420Y61143*X155270Y61196*X155120Y61242*X154965Y61278*X154965Y61912D2*X155120Y61948D1*X155270Y61994*X155420Y62047*X155565Y62111*X155705Y62182*X155842Y62263*X155974Y62352*X156098Y62448*X156218Y62550*X156329Y62662*X156436Y62779*X156535Y62903*X156624Y63033*X156708Y63167*X156782Y63307*X156848Y63452*X156903Y63599*X156952Y63749*X156990Y63904*X157018Y64059*X157038Y64216*X157048Y64374*X157048Y64531*X157038Y64689*X157018Y64846*X156990Y65001*X156952Y65156*X156903Y65306*X156848Y65453*X156782Y65598*X156708Y65738*X156624Y65872*X156535Y66002*X156436Y66126*X156329Y66243*X156218Y66355*X156098Y66457*X155974Y66553*X155842Y66642*X155705Y66723*X155565Y66794*X155420Y66858*X155270Y66911*X155120Y66957*X154965Y66992*X153441Y66992*X153441Y61912*X154965Y61912*X154965Y61278D2*X153441Y61278D1*X153441Y56198*X154965Y56198*X155727Y55562D2*X157251Y55562D1*X157251Y50482*X155727Y50482*X162077Y50482D2*X163601Y50482D1*X163601Y55562*X162077Y55562*X161315Y56198D2*X159791Y56198D1*X159791Y61278*X161315Y61278*X161315Y61912D2*X159791Y61912D1*X159791Y66992*X161315Y66992*X167665Y66992D2*X166141Y66992D1*X166141Y61912*X167665Y61912*X167665Y61278D2*X166141Y61278D1*X166141Y56198*X167665Y56198*X169951Y55562D2*X168427Y55562D1*X174015Y53658D2*X174170Y53693D1*X174320Y53739*X174470Y53792*X174615Y53856*X174755Y53927*X174892Y54008*X175024Y54097*X175148Y54193*X175268Y54295*X175379Y54407*X175486Y54524*X175585Y54648*X175674Y54778*X175758Y54912*X175832Y55052*X175898Y55197*X175953Y55344*X176002Y55494*X176040Y55649*X176068Y55804*X176088Y55961*X176098Y56119*X176098Y56276*X176088Y56434*X176068Y56591*X176040Y56746*X176002Y56901*X175953Y57051*X175898Y57198*X175832Y57343*X175758Y57483*X175674Y57617*X175585Y57747*X175486Y57871*X175379Y57988*X175268Y58100*X175148Y58202*X175024Y58298*X174892Y58387*X174755Y58468*X174615Y58539*X174470Y58603*X174320Y58656*X174170Y58702*X174015Y58738*X177825Y58738D2*X177980Y58702D1*X178130Y58656*X178280Y58603*X178425Y58539*X178565Y58468*X178702Y58387*X178834Y58298*X178958Y58202*X179078Y58100*X179189Y57988*X179296Y57871*X179395Y57747*X179484Y57617*X179568Y57483*X179642Y57343*X179708Y57198*X179763Y57051*X179812Y56901*X179850Y56746*X179878Y56591*X179898Y56434*X179908Y56276*X179908Y56119*X179898Y55961*X179878Y55804*X179850Y55649*X179812Y55494*X179763Y55344*X179708Y55197*X179642Y55052*X179568Y54912*X179484Y54778*X179395Y54648*X179296Y54524*X179189Y54407*X179078Y54295*X178958Y54193*X178834Y54097*X178702Y54008*X178565Y53927*X178425Y53856*X178280Y53792*X178130Y53739*X177980Y53693*X177825Y53658*X181635Y53658D2*X181790Y53693D1*X181940Y53739*X182090Y53792*X182235Y53856*X182375Y53927*X182512Y54008*X182644Y54097*X182768Y54193*X182888Y54295*X182999Y54407*X183106Y54524*X183205Y54648*X183294Y54778*X183378Y54912*X183452Y55052*X183518Y55197*X183573Y55344*X183622Y55494*X183660Y55649*X183688Y55804*X183708Y55961*X183718Y56119*X183718Y56276*X183708Y56434*X183688Y56591*X183660Y56746*X183622Y56901*X183573Y57051*X183518Y57198*X183452Y57343*X183378Y57483*X183294Y57617*X183205Y57747*X183106Y57871*X182999Y57988*X182888Y58100*X182768Y58202*X182644Y58298*X182512Y58387*X182375Y58468*X182235Y58539*X182090Y58603*X181940Y58656*X181790Y58702*X181635Y58738*X185445Y58738D2*X185600Y58702D1*X185750Y58656*X185900Y58603*X186045Y58539*X186185Y58468*X186322Y58387*X186454Y58298*X186578Y58202*X186698Y58100*X186809Y57988*X186916Y57871*X187015Y57747*X187104Y57617*X187188Y57483*X187262Y57343*X187328Y57198*X187383Y57051*X187432Y56901*X187470Y56746*X187498Y56591*X187518Y56434*X187528Y56276*X187528Y56119*X187518Y55961*X187498Y55804*X187470Y55649*X187432Y55494*X187383Y55344*X187328Y55197*X187262Y55052*X187188Y54912*X187104Y54778*X187015Y54648*X186916Y54524*X186809Y54407*X186698Y54295*X186578Y54193*X186454Y54097*X186322Y54008*X186185Y53927*X186045Y53856*X185900Y53792*X185750Y53739*X185600Y53693*X185445Y53658*X191922Y50482D2*X191767Y50518D1*X191618Y50564*X191468Y50617*X191323Y50681*X191183Y50752*X191046Y50833*X190914Y50922*X190790Y51018*X190670Y51120*X190558Y51232*X190452Y51349*X190353Y51473*X190264Y51603*X190180Y51737*X190106Y51877*X190040Y52022*X189984Y52169*X189936Y52319*X189898Y52474*X189870Y52629*X189850Y52786*X189840Y52944*X189840Y53101*X189850Y53259*X189870Y53416*X189898Y53571*X189936Y53726*X189984Y53876*X190040Y54023*X190106Y54168*X190180Y54308*X190264Y54442*X190353Y54572*X190452Y54696*X190558Y54813*X190670Y54925*X190790Y55027*X190914Y55123*X191046Y55212*X191183Y55293*X191323Y55364*X191468Y55428*X191618Y55481*X191767Y55527*X191922Y55562*X200050Y53658D2*X200205Y53693D1*X200355Y53739*X200505Y53792*X200650Y53856*X200790Y53927*X200927Y54008*X201059Y54097*X201183Y54193*X201303Y54295*X201414Y54407*X201521Y54524*X201620Y54648*X201709Y54778*X201793Y54912*X201866Y55052*X201933Y55197*X201988Y55344*X202037Y55494*X202075Y55649*X202103Y55804*X202123Y55961*X202133Y56119*X202133Y56276*X202123Y56434*X202103Y56591*X202075Y56746*X202037Y56901*X201988Y57051*X201933Y57198*X201866Y57343*X201793Y57483*X201709Y57617*X201620Y57747*X201521Y57871*X201414Y57988*X201303Y58100*X201183Y58202*X201059Y58298*X200927Y58387*X200790Y58468*X200650Y58539*X200505Y58603*X200355Y58656*X200205Y58702*X200050Y58738*X219100Y58738D2*X219255Y58702D1*X219405Y58656*X219555Y58603*X219700Y58539*X219840Y58468*X219977Y58387*X220109Y58298*X220233Y58202*X220353Y58100*X220464Y57988*X220571Y57871*X220670Y57747*X220759Y57617*X220843Y57483*X220916Y57343*X220983Y57198*X221038Y57051*X221087Y56901*X221125Y56746*X221153Y56591*X221173Y56434*X221183Y56276*X221183Y56119*X221173Y55961*X221153Y55804*X221125Y55649*X221087Y55494*X221038Y55344*X220983Y55197*X220916Y55052*X220843Y54912*X220759Y54778*X220670Y54648*X220571Y54524*X220464Y54407*X220353Y54295*X220233Y54193*X220109Y54097*X219977Y54008*X219840Y53927*X219700Y53856*X219555Y53792*X219405Y53739*X219255Y53693*X219100Y53658*X215290Y53658D2*X215445Y53693D1*X215595Y53739*X215745Y53792*X215890Y53856*X216030Y53927*X216167Y54008*X216299Y54097*X216423Y54193*X216543Y54295*X216654Y54407*X216761Y54524*X216860Y54648*X216949Y54778*X217033Y54912*X217106Y55052*X217173Y55197*X217228Y55344*X217277Y55494*X217315Y55649*X217343Y55804*X217363Y55961*X217373Y56119*X217373Y56276*X217363Y56434*X217343Y56591*X217315Y56746*X217277Y56901*X217228Y57051*X217173Y57198*X217106Y57343*X217033Y57483*X216949Y57617*X216860Y57747*X216761Y57871*X216654Y57988*X216543Y58100*X216423Y58202*X216299Y58298*X216167Y58387*X216030Y58468*X215890Y58539*X215745Y58603*X215595Y58656*X215445Y58702*X215290Y58738*X211480Y58738D2*X211635Y58702D1*X211785Y58656*X211935Y58603*X212080Y58539*X212220Y58468*X212357Y58387*X212489Y58298*X212613Y58202*X212733Y58100*X212844Y57988*X212951Y57871*X213050Y57747*X213139Y57617*X213223Y57483*X213296Y57343*X213363Y57198*X213418Y57051*X213467Y56901*X213505Y56746*X213533Y56591*X213553Y56434*X213563Y56276*X213563Y56119*X213553Y55961*X213533Y55804*X213505Y55649*X213467Y55494*X213418Y55344*X213363Y55197*X213296Y55052*X213223Y54912*X213139Y54778*X213050Y54648*X212951Y54524*X212844Y54407*X212733Y54295*X212613Y54193*X212489Y54097*X212357Y54008*X212220Y53927*X212080Y53856*X211935Y53792*X211785Y53739*X211635Y53693*X211480Y53658*X207670Y53658D2*X207825Y53693D1*X207975Y53739*X208125Y53792*X208270Y53856*X208410Y53927*X208547Y54008*X208679Y54097*X208803Y54193*X208923Y54295*X209034Y54407*X209141Y54524*X209240Y54648*X209329Y54778*X209413Y54912*X209486Y55052*X209553Y55197*X209608Y55344*X209657Y55494*X209695Y55649*X209723Y55804*X209743Y55961*X209753Y56119*X209753Y56276*X209743Y56434*X209723Y56591*X209695Y56746*X209657Y56901*X209608Y57051*X209553Y57198*X209486Y57343*X209413Y57483*X209329Y57617*X209240Y57747*X209141Y57871*X209034Y57988*X208923Y58100*X208803Y58202*X208679Y58298*X208547Y58387*X208410Y58468*X208270Y58539*X208125Y58603*X207975Y58656*X207825Y58702*X207670Y58738*X203860Y58738D2*X204015Y58702D1*X204165Y58656*X204315Y58603*X204460Y58539*X204600Y58468*X204737Y58387*X204869Y58298*X204993Y58202*X205113Y58100*X205224Y57988*X205331Y57871*X205430Y57747*X205519Y57617*X205603Y57483*X205676Y57343*X205743Y57198*X205798Y57051*X205847Y56901*X205885Y56746*X205913Y56591*X205933Y56434*X205943Y56276*X205943Y56119*X205933Y55961*X205913Y55804*X205885Y55649*X205847Y55494*X205798Y55344*X205743Y55197*X205676Y55052*X205603Y54912*X205519Y54778*X205430Y54648*X205331Y54524*X205224Y54407*X205113Y54295*X204993Y54193*X204869Y54097*X204737Y54008*X204600Y53927*X204460Y53856*X204315Y53792*X204165Y53739*X204015Y53693*X203860Y53658*X202336Y53658*X202336Y58738*X203352Y58738D2*X203197Y58773D1*X203048Y58819*X202898Y58872*X202753Y58936*X202613Y59007*X202476Y59088*X202344Y59177*X202220Y59273*X202100Y59375*X201988Y59487*X201882Y59604*X201783Y59728*X201694Y59858*X201610Y59992*X201536Y60132*X201470Y60277*X201414Y60424*X201366Y60574*X201328Y60729*X201300Y60884*X201280Y61041*X201270Y61199*X201270Y61356*X201280Y61514*X201300Y61671*X201328Y61826*X201366Y61981*X201414Y62131*X201470Y62278*X201536Y62423*X201610Y62563*X201694Y62697*X201783Y62827*X201882Y62951*X201988Y63068*X202100Y63180*X202220Y63282*X202344Y63378*X202476Y63467*X202613Y63548*X202753Y63619*X202898Y63683*X203048Y63736*X203197Y63782*X203352Y63818*X207162Y63818D2*X207007Y63782D1*X206858Y63736*X206708Y63683*X206563Y63619*X206423Y63548*X206286Y63467*X206154Y63378*X206030Y63282*X205910Y63180*X205798Y63068*X205692Y62951*X205593Y62827*X205504Y62697*X205420Y62563*X205346Y62423*X205280Y62278*X205224Y62131*X205176Y61981*X205138Y61826*X205110Y61671*X205090Y61514*X205080Y61356*X205080Y61199*X205090Y61041*X205110Y60884*X205138Y60729*X205176Y60574*X205224Y60424*X205280Y60277*X205346Y60132*X205420Y59992*X205504Y59858*X205593Y59728*X205692Y59604*X205798Y59487*X205910Y59375*X206030Y59273*X206154Y59177*X206286Y59088*X206423Y59007*X206563Y58936*X206708Y58872*X206858Y58819*X207007Y58773*X207162Y58738*X210972Y58738D2*X210817Y58773D1*X210668Y58819*X210518Y58872*X210373Y58936*X210233Y59007*X210096Y59088*X209964Y59177*X209840Y59273*X209720Y59375*X209608Y59487*X209502Y59604*X209403Y59728*X209314Y59858*X209230Y59992*X209156Y60132*X209090Y60277*X209034Y60424*X208986Y60574*X208948Y60729*X208920Y60884*X208900Y61041*X208890Y61199*X208890Y61356*X208900Y61514*X208920Y61671*X208948Y61826*X208986Y61981*X209034Y62131*X209090Y62278*X209156Y62423*X209230Y62563*X209314Y62697*X209403Y62827*X209502Y62951*X209608Y63068*X209720Y63180*X209840Y63282*X209964Y63378*X210096Y63467*X210233Y63548*X210373Y63619*X210518Y63683*X210668Y63736*X210817Y63782*X210972Y63818*X214782Y63818D2*X214627Y63782D1*X214478Y63736*X214328Y63683*X214183Y63619*X214043Y63548*X213906Y63467*X213774Y63378*X213650Y63282*X213530Y63180*X213418Y63068*X213312Y62951*X213213Y62827*X213124Y62697*X213040Y62563*X212966Y62423*X212900Y62278*X212844Y62131*X212796Y61981*X212758Y61826*X212730Y61671*X212710Y61514*X212700Y61356*X212700Y61199*X212710Y61041*X212730Y60884*X212758Y60729*X212796Y60574*X212844Y60424*X212900Y60277*X212966Y60132*X213040Y59992*X213124Y59858*X213213Y59728*X213312Y59604*X213418Y59487*X213530Y59375*X213650Y59273*X213774Y59177*X213906Y59088*X214043Y59007*X214183Y58936*X214328Y58872*X214478Y58819*X214627Y58773*X214782Y58738*X218592Y58738D2*X218437Y58773D1*X218288Y58819*X218138Y58872*X217993Y58936*X217853Y59007*X217716Y59088*X217584Y59177*X217460Y59273*X217340Y59375*X217228Y59487*X217122Y59604*X217023Y59728*X216934Y59858*X216850Y59992*X216776Y60132*X216710Y60277*X216654Y60424*X216606Y60574*X216568Y60729*X216540Y60884*X216520Y61041*X216510Y61199*X216510Y61356*X216520Y61514*X216540Y61671*X216568Y61826*X216606Y61981*X216654Y62131*X216710Y62278*X216776Y62423*X216850Y62563*X216934Y62697*X217023Y62827*X217122Y62951*X217228Y63068*X217340Y63180*X217460Y63282*X217584Y63378*X217716Y63467*X217853Y63548*X217993Y63619*X218138Y63683*X218288Y63736*X218437Y63782*X218592Y63818*X222402Y63818D2*X222247Y63782D1*X222098Y63736*X221948Y63683*X221803Y63619*X221663Y63548*X221526Y63467*X221394Y63378*X221270Y63282*X221150Y63180*X221038Y63068*X220932Y62951*X220833Y62827*X220744Y62697*X220660Y62563*X220586Y62423*X220520Y62278*X220464Y62131*X220416Y61981*X220378Y61826*X220350Y61671*X220330Y61514*X220320Y61356*X220320Y61199*X220330Y61041*X220350Y60884*X220378Y60729*X220416Y60574*X220464Y60424*X220520Y60277*X220586Y60132*X220660Y59992*X220744Y59858*X220833Y59728*X220932Y59604*X221038Y59487*X221150Y59375*X221270Y59273*X221394Y59177*X221526Y59088*X221663Y59007*X221803Y58936*X221948Y58872*X222098Y58819*X222247Y58773*X222402Y58738*X222910Y58738D2*X223065Y58702D1*X223215Y58656*X223365Y58603*X223510Y58539*X223650Y58468*X223787Y58387*X223919Y58298*X224043Y58202*X224163Y58100*X224274Y57988*X224381Y57871*X224480Y57747*X224569Y57617*X224653Y57483*X224726Y57343*X224793Y57198*X224848Y57051*X224897Y56901*X224935Y56746*X224963Y56591*X224983Y56434*X224993Y56276*X224993Y56119*X224983Y55961*X224963Y55804*X224935Y55649*X224897Y55494*X224848Y55344*X224793Y55197*X224726Y55052*X224653Y54912*X224569Y54778*X224480Y54648*X224381Y54524*X224274Y54407*X224163Y54295*X224043Y54193*X223919Y54097*X223787Y54008*X223650Y53927*X223510Y53856*X223365Y53792*X223215Y53739*X223065Y53693*X222910Y53658*X221386Y53658*X221386Y58738*X222910Y58738*X222402Y58738D2*X223926Y58738D1*X223926Y63818*X222402Y63818*X218592Y63818D2*X220116Y63818D1*X220116Y58738*X218592Y58738*X219100Y58738D2*X217576Y58738D1*X217576Y53658*X219100Y53658*X215290Y53658D2*X213766Y53658D1*X213766Y58738*X215290Y58738*X214782Y58738D2*X216306Y58738D1*X216306Y63818*X214782Y63818*X210972Y63818D2*X212496Y63818D1*X212496Y58738*X210972Y58738*X211480Y58738D2*X209956Y58738D1*X209956Y53658*X211480Y53658*X207670Y53658D2*X206146Y53658D1*X206146Y58738*X207670Y58738*X207162Y58738D2*X208686Y58738D1*X208686Y63818*X207162Y63818*X203352Y63818D2*X204876Y63818D1*X204876Y58738*X203352Y58738*X202336Y58738D2*X203860Y58738D1*X199542Y58738D2*X199387Y58773D1*X199238Y58819*X199088Y58872*X198943Y58936*X198803Y59007*X198666Y59088*X198534Y59177*X198410Y59273*X198290Y59375*X198178Y59487*X198072Y59604*X197973Y59728*X197884Y59858*X197800Y59992*X197726Y60132*X197660Y60277*X197604Y60424*X197556Y60574*X197518Y60729*X197490Y60884*X197470Y61041*X197460Y61199*X197460Y61356*X197470Y61514*X197490Y61671*X197518Y61826*X197556Y61981*X197604Y62131*X197660Y62278*X197726Y62423*X197800Y62563*X197884Y62697*X197973Y62827*X198072Y62951*X198178Y63068*X198290Y63180*X198410Y63282*X198534Y63378*X198666Y63467*X198803Y63548*X198943Y63619*X199088Y63683*X199238Y63736*X199387Y63782*X199542Y63818*X189382Y63818D2*X189227Y63853D1*X189078Y63899*X188928Y63952*X188783Y64016*X188643Y64087*X188506Y64168*X188374Y64257*X188250Y64353*X188130Y64455*X188018Y64567*X187912Y64684*X187813Y64808*X187724Y64938*X187640Y65072*X187566Y65212*X187500Y65357*X187444Y65504*X187396Y65654*X187358Y65809*X187330Y65964*X187310Y66121*X187300Y66279*X187300Y66436*X187310Y66594*X187330Y66751*X187358Y66906*X187396Y67061*X187444Y67211*X187500Y67358*X187566Y67503*X187640Y67643*X187724Y67777*X187813Y67907*X187912Y68031*X188018Y68148*X188130Y68260*X188250Y68362*X188374Y68458*X188506Y68547*X188643Y68628*X188783Y68699*X188928Y68763*X189078Y68816*X189227Y68862*X189382Y68898*X190906Y68898*X190906Y63818*X189382Y63818*X191160Y62548D2*X191315Y62512D1*X191465Y62466*X191615Y62413*X191760Y62349*X191900Y62278*X192037Y62197*X192169Y62108*X192293Y62012*X192413Y61910*X192524Y61798*X192631Y61681*X192730Y61557*X192819Y61427*X192903Y61293*X192976Y61153*X193043Y61008*X193098Y60861*X193147Y60711*X193185Y60556*X193213Y60401*X193233Y60244*X193243Y60086*X193243Y59929*X193233Y59771*X193213Y59614*X193185Y59459*X193147Y59304*X193098Y59154*X193043Y59007*X192976Y58862*X192903Y58722*X192819Y58588*X192730Y58458*X192631Y58334*X192524Y58217*X192413Y58105*X192293Y58003*X192169Y57907*X192037Y57818*X191900Y57737*X191760Y57666*X191615Y57602*X191465Y57549*X191315Y57503*X191160Y57468*X186461Y58738D2*X186461Y63818D1*X184937Y63818*X184782Y63782*X184633Y63736*X184483Y63683*X184338Y63619*X184198Y63548*X184061Y63467*X183929Y63378*X183805Y63282*X183685Y63180*X183573Y63068*X183467Y62951*X183368Y62827*X183279Y62697*X183195Y62563*X183121Y62423*X183055Y62278*X182999Y62131*X182951Y61981*X182913Y61826*X182885Y61671*X182865Y61514*X182855Y61356*X182855Y61199*X182865Y61041*X182885Y60884*X182913Y60729*X182951Y60574*X182999Y60424*X183055Y60277*X183121Y60132*X183195Y59992*X183279Y59858*X183368Y59728*X183467Y59604*X183573Y59487*X183685Y59375*X183805Y59273*X183929Y59177*X184061Y59088*X184198Y59007*X184338Y58936*X184483Y58872*X184633Y58819*X184782Y58773*X184937Y58738*X181127Y58738D2*X180972Y58773D1*X180823Y58819*X180673Y58872*X180528Y58936*X180388Y59007*X180251Y59088*X180119Y59177*X179995Y59273*X179875Y59375*X179763Y59487*X179657Y59604*X179558Y59728*X179469Y59858*X179385Y59992*X179311Y60132*X179245Y60277*X179189Y60424*X179141Y60574*X179103Y60729*X179075Y60884*X179055Y61041*X179045Y61199*X179045Y61356*X179055Y61514*X179075Y61671*X179103Y61826*X179141Y61981*X179189Y62131*X179245Y62278*X179311Y62423*X179385Y62563*X179469Y62697*X179558Y62827*X179657Y62951*X179763Y63068*X179875Y63180*X179995Y63282*X180119Y63378*X180251Y63467*X180388Y63548*X180528Y63619*X180673Y63683*X180823Y63736*X180972Y63782*X181127Y63818*X177317Y63818D2*X177162Y63782D1*X177013Y63736*X176863Y63683*X176718Y63619*X176578Y63548*X176441Y63467*X176309Y63378*X176185Y63282*X176065Y63180*X175953Y63068*X175847Y62951*X175748Y62827*X175659Y62697*X175575Y62563*X175501Y62423*X175435Y62278*X175379Y62131*X175331Y61981*X175293Y61826*X175265Y61671*X175245Y61514*X175235Y61356*X175235Y61199*X175245Y61041*X175265Y60884*X175293Y60729*X175331Y60574*X175379Y60424*X175435Y60277*X175501Y60132*X175575Y59992*X175659Y59858*X175748Y59728*X175847Y59604*X175953Y59487*X176065Y59375*X176185Y59273*X176309Y59177*X176441Y59088*X176578Y59007*X176718Y58936*X176863Y58872*X177013Y58819*X177162Y58773*X177317Y58738*X173507Y58738D2*X173352Y58773D1*X173203Y58819*X173053Y58872*X172908Y58936*X172768Y59007*X172631Y59088*X172499Y59177*X172375Y59273*X172255Y59375*X172143Y59487*X172037Y59604*X171938Y59728*X171849Y59858*X171765Y59992*X171691Y60132*X171625Y60277*X171569Y60424*X171521Y60574*X171483Y60729*X171455Y60884*X171435Y61041*X171425Y61199*X171425Y61356*X171435Y61514*X171455Y61671*X171483Y61826*X171521Y61981*X171569Y62131*X171625Y62278*X171691Y62423*X171765Y62563*X171849Y62697*X171938Y62827*X172037Y62951*X172143Y63068*X172255Y63180*X172375Y63282*X172499Y63378*X172631Y63467*X172768Y63548*X172908Y63619*X173053Y63683*X173203Y63736*X173352Y63782*X173507Y63818*X175031Y63818*X175031Y58738*X173507Y58738*X174015Y58738D2*X172491Y58738D1*X172491Y53658*X174015Y53658*X177825Y53658D2*X176301Y53658D1*X176301Y58738*X177825Y58738*X177317Y58738D2*X178841Y58738D1*X178841Y63818*X177317Y63818*X181127Y63818D2*X182651Y63818D1*X182651Y58738*X181127Y58738*X181635Y58738D2*X180111Y58738D1*X180111Y53658*X181635Y53658*X185445Y53658D2*X183921Y53658D1*X183921Y58738*X185445Y58738*X186461Y58738D2*X184937Y58738D1*X191160Y57468D2*X189636Y57468D1*X189636Y62548*X191160Y62548*X195732Y63818D2*X195577Y63782D1*X195428Y63736*X195278Y63683*X195133Y63619*X194993Y63548*X194856Y63467*X194724Y63378*X194600Y63282*X194480Y63180*X194368Y63068*X194262Y62951*X194163Y62827*X194074Y62697*X193990Y62563*X193916Y62423*X193850Y62278*X193794Y62131*X193746Y61981*X193708Y61826*X193680Y61671*X193660Y61514*X193650Y61356*X193650Y61199*X193660Y61041*X193680Y60884*X193708Y60729*X193746Y60574*X193794Y60424*X193850Y60277*X193916Y60132*X193990Y59992*X194074Y59858*X194163Y59728*X194262Y59604*X194368Y59487*X194480Y59375*X194600Y59273*X194724Y59177*X194856Y59088*X194993Y59007*X195133Y58936*X195278Y58872*X195428Y58819*X195577Y58773*X195732Y58738*X197256Y58738*X197256Y63818*X195732Y63818*X199542Y63818D2*X201066Y63818D1*X201066Y58738*X199542Y58738*X200050Y58738D2*X198526Y58738D1*X198526Y53658*X200050Y53658*X196240Y53658D2*X194716Y53658D1*X194716Y58738*X196240Y58738*X196395Y58702*X196545Y58656*X196695Y58603*X196840Y58539*X196980Y58468*X197117Y58387*X197249Y58298*X197373Y58202*X197493Y58100*X197604Y57988*X197711Y57871*X197810Y57747*X197899Y57617*X197983Y57483*X198056Y57343*X198123Y57198*X198178Y57051*X198227Y56901*X198265Y56746*X198293Y56591*X198313Y56434*X198323Y56276*X198323Y56119*X198313Y55961*X198293Y55804*X198265Y55649*X198227Y55494*X198178Y55344*X198123Y55197*X198056Y55052*X197983Y54912*X197899Y54778*X197810Y54648*X197711Y54524*X197604Y54407*X197493Y54295*X197373Y54193*X197249Y54097*X197117Y54008*X196980Y53927*X196840Y53856*X196695Y53792*X196545Y53739*X196395Y53693*X196240Y53658*X191922Y55562D2*X193446Y55562D1*X193446Y50482*X191922Y50482*X208686Y13652D2*X208686Y12382D1*X208051Y13018D2*X209321Y13018D1*X204267Y11112D2*X204272Y10935D1*X204287Y10757*X204313Y10579*X204348Y10406*X204391Y10234*X204447Y10063*X204511Y9896*X204584Y9733*X204666Y9576*X204757Y9423*X204859Y9276*X204965Y9134*X205082Y8999*X205204Y8870*X205336Y8748*X205473Y8633*X205616Y8529*X205765Y8430*X205920Y8341*X206078Y8260*X206243Y8189*X206408Y8128*X206581Y8077*X206753Y8034*X206929Y8001*X207104Y7978*X207282Y7965*X207462Y7963*X207640Y7971*X207818Y7988*X207993Y8016*X208166Y8054*X208338Y8100*X208509Y8158*X208674Y8225*X208834Y8301*X208991Y8385*X209144Y8479*X209288Y8580*X209431Y8689*X209563Y8809*X209690Y8933*X209809Y9065*X209921Y9205*X210025Y9350*X210122Y9500*X210208Y9655*X210287Y9815*X210355Y9980*X210414Y10147*X210464Y10320*X210505Y10493*X210536Y10668*X210556Y10846*X210566Y11024*X210566Y11201*X210556Y11379*X210536Y11557*X210505Y11732*X210464Y11905*X210414Y12078*X210355Y12245*X210287Y12410*X210208Y12570*X210122Y12725*X210025Y12875*X209921Y13020*X209809Y13160*X209690Y13292*X209563Y13416*X209431Y13536*X209288Y13645*X209144Y13746*X208991Y13840*X208834Y13924*X208674Y14000*X208509Y14067*X208338Y14125*X208166Y14171*X207993Y14209*X207818Y14237*X207640Y14254*X207462Y14262*X207282Y14260*X207104Y14247*X206929Y14224*X206753Y14191*X206581Y14148*X206408Y14097*X206243Y14036*X206078Y13965*X205920Y13884*X205765Y13795*X205616Y13696*X205473Y13592*X205336Y13477*X205204Y13355*X205082Y13226*X204965Y13091*X204859Y12949*X204757Y12802*X204666Y12649*X204584Y12492*X204511Y12329*X204447Y12162*X204391Y11991*X204348Y11819*X204313Y11646*X204287Y11468*X204272Y11290*X204267Y11112*X182651Y10858D2*X182687Y10704D1*X182733Y10554*X182786Y10404*X182850Y10259*X182921Y10119*X183002Y9982*X183091Y9850*X183187Y9726*X183289Y9606*X183401Y9495*X183518Y9388*X183642Y9289*X183772Y9200*X183906Y9116*X184046Y9042*X184191Y8976*X184338Y8920*X184488Y8872*X184643Y8834*X184798Y8806*X184955Y8786*X185113Y8776*X185270Y8776*X185428Y8786*X185585Y8806*X185740Y8834*X185895Y8872*X186045Y8920*X186192Y8976*X186337Y9042*X186477Y9116*X186611Y9200*X186741Y9289*X186865Y9388*X186982Y9495*X187094Y9606*X187195Y9726*X187292Y9850*X187381Y9982*X187462Y10119*X187533Y10259*X187597Y10404*X187650Y10554*X187696Y10704*X187731Y10858*X190271Y10858D2*X190307Y10704D1*X190353Y10554*X190406Y10404*X190470Y10259*X190541Y10119*X190622Y9982*X190711Y9850*X190807Y9726*X190909Y9606*X191021Y9495*X191138Y9388*X191262Y9289*X191392Y9200*X191526Y9116*X191666Y9042*X191811Y8976*X191958Y8920*X192108Y8872*X192263Y8834*X192418Y8806*X192575Y8786*X192733Y8776*X192890Y8776*X193048Y8786*X193205Y8806*X193360Y8834*X193515Y8872*X193665Y8920*X193812Y8976*X193957Y9042*X194097Y9116*X194231Y9200*X194361Y9289*X194485Y9388*X194602Y9495*X194714Y9606*X194815Y9726*X194912Y9850*X195001Y9982*X195082Y10119*X195153Y10259*X195217Y10404*X195270Y10554*X195316Y10704*X195351Y10858*X195351Y12382*X190271Y12382*X190271Y10858*X187731Y10858D2*X187731Y12382D1*X182651Y12382*X182651Y10858*X157279Y18125D2*X157251Y18125D1*X157251Y18247D2*X157401Y18247D1*X157526Y18372D2*X157251Y18372D1*X157251Y18494D2*X157648Y18494D1*X157772Y18618D2*X157251Y18618D1*X157251Y18740D2*X157894Y18740D1*X158018Y18865D2*X157251Y18865D1*X157251Y18986D2*X158140Y18986D1*X158265Y19111D2*X157251Y19111D1*X157251Y19233D2*X158387Y19233D1*X157302Y20589D2*X157251Y20589D1*X157251Y20465D2*X157424Y20465D1*X157549Y20343D2*X157251Y20343D1*X157251Y20218D2*X157670Y20218D1*X157795Y20096D2*X157251Y20096D1*X157251Y19972D2*X157917Y19972D1*X158041Y19850D2*X157251Y19850D1*X157251Y19726D2*X158163Y19726D1*X158288Y19604D2*X157251Y19604D1*X157251Y19479D2*X158410Y19479D1*X158511Y19357D2*X157251Y19357D1*X158521Y19368D2*X157251Y20638D1*X157251Y18098*X158521Y19368*X161061Y20638D2*X199161Y20638D1*X199161Y18098*X161061Y18098*X161061Y20638*X158521Y20638*X158521Y18098*X161061Y18098*X168046Y15176D2*X168082Y15331D1*X168128Y15481*X168181Y15631*X168245Y15776*X168316Y15916*X168397Y16053*X168486Y16185*X168582Y16309*X168684Y16429*X168796Y16540*X168913Y16647*X169037Y16746*X169167Y16835*X169301Y16919*X169441Y16993*X169586Y17059*X169733Y17115*X169883Y17163*X170038Y17201*X170193Y17229*X170350Y17249*X170508Y17259*X170665Y17259*X170823Y17249*X170980Y17229*X171135Y17201*X171290Y17163*X171440Y17115*X171587Y17059*X171732Y16993*X171872Y16919*X172006Y16835*X172136Y16746*X172260Y16647*X172377Y16540*X172489Y16429*X172590Y16309*X172687Y16185*X172776Y16053*X172857Y15916*X172928Y15776*X172992Y15631*X173045Y15481*X173091Y15331*X173126Y15176*X173126Y13652*X168046Y13652*X168046Y15176*X168046Y10858D2*X168082Y10704D1*X168128Y10554*X168181Y10404*X168245Y10259*X168316Y10119*X168397Y9982*X168486Y9850*X168582Y9726*X168684Y9606*X168796Y9495*X168913Y9388*X169037Y9289*X169167Y9200*X169301Y9116*X169441Y9042*X169586Y8976*X169733Y8920*X169883Y8872*X170038Y8834*X170193Y8806*X170350Y8786*X170508Y8776*X170665Y8776*X170823Y8786*X170980Y8806*X171135Y8834*X171290Y8872*X171440Y8920*X171587Y8976*X171732Y9042*X171872Y9116*X172006Y9200*X172136Y9289*X172260Y9388*X172377Y9495*X172489Y9606*X172590Y9726*X172687Y9850*X172776Y9982*X172857Y10119*X172928Y10259*X172992Y10404*X173045Y10554*X173091Y10704*X173126Y10858*X174396Y10858D2*X174432Y10704D1*X174478Y10554*X174531Y10404*X174595Y10259*X174666Y10119*X174747Y9982*X174836Y9850*X174932Y9726*X175034Y9606*X175146Y9495*X175263Y9388*X175387Y9289*X175517Y9200*X175651Y9116*X175791Y9042*X175936Y8976*X176083Y8920*X176233Y8872*X176388Y8834*X176543Y8806*X176700Y8786*X176858Y8776*X177015Y8776*X177173Y8786*X177330Y8806*X177485Y8834*X177640Y8872*X177790Y8920*X177937Y8976*X178082Y9042*X178222Y9116*X178356Y9200*X178486Y9289*X178610Y9388*X178727Y9495*X178839Y9606*X178940Y9726*X179037Y9850*X179126Y9982*X179207Y10119*X179278Y10259*X179342Y10404*X179395Y10554*X179441Y10704*X179476Y10858*X179476Y12382*X174396Y12382*X174396Y10858*X173126Y10858D2*X173126Y12382D1*X168046Y12382*X168046Y10858*X146837Y9208D2*X146682Y9243D1*X146533Y9289*X146383Y9342*X146238Y9406*X146098Y9477*X145961Y9558*X145829Y9647*X145705Y9743*X145585Y9845*X145473Y9957*X145367Y10074*X145268Y10198*X145179Y10328*X145095Y10462*X145021Y10602*X144955Y10747*X144899Y10894*X144851Y11044*X144813Y11199*X144785Y11354*X144765Y11511*X144755Y11669*X144755Y11826*X144765Y11984*X144785Y12141*X144813Y12296*X144851Y12451*X144899Y12601*X144955Y12748*X145021Y12893*X145095Y13033*X145179Y13167*X145268Y13297*X145367Y13421*X145473Y13538*X145585Y13650*X145705Y13752*X145829Y13848*X145961Y13937*X146098Y14018*X146238Y14089*X146383Y14153*X146533Y14206*X146682Y14252*X146837Y14288*X146837Y15558D2*X146682Y15593D1*X146533Y15639*X146383Y15692*X146238Y15756*X146098Y15827*X145961Y15908*X145829Y15997*X145705Y16093*X145585Y16195*X145473Y16307*X145367Y16424*X145268Y16548*X145179Y16678*X145095Y16812*X145021Y16952*X144955Y17097*X144899Y17244*X144851Y17394*X144813Y17549*X144785Y17704*X144765Y17861*X144755Y18019*X144755Y18176*X144765Y18334*X144785Y18491*X144813Y18646*X144851Y18801*X144899Y18951*X144955Y19098*X145021Y19243*X145095Y19383*X145179Y19517*X145268Y19647*X145367Y19771*X145473Y19888*X145585Y20000*X145705Y20102*X145829Y20198*X145961Y20287*X146098Y20368*X146238Y20439*X146383Y20503*X146533Y20556*X146682Y20602*X146837Y20638*X148361Y20638*X148361Y15558*X146837Y15558*X148361Y14288D2*X146837Y14288D1*X146837Y9208D2*X148361Y9208D1*X137566Y14288D2*X93116Y14288D1*X93116Y6668*X76987Y17462D2*X76832Y17498D1*X76683Y17544*X76533Y17597*X76388Y17661*X76248Y17732*X76111Y17813*X75979Y17902*X75855Y17998*X75735Y18100*X75623Y18212*X75517Y18329*X75418Y18453*X75329Y18583*X75245Y18717*X75171Y18857*X75105Y19002*X75049Y19149*X75001Y19299*X74963Y19454*X74935Y19609*X74915Y19766*X74905Y19924*X74905Y20081*X74915Y20239*X74935Y20396*X74963Y20551*X75001Y20706*X75049Y20856*X75105Y21003*X75171Y21148*X75245Y21288*X75329Y21422*X75418Y21552*X75517Y21676*X75623Y21793*X75735Y21905*X75855Y22007*X75979Y22103*X76111Y22192*X76248Y22273*X76388Y22344*X76533Y22408*X76683Y22461*X76832Y22507*X76987Y22542*X80797Y22542D2*X80642Y22507D1*X80493Y22461*X80343Y22408*X80198Y22344*X80058Y22273*X79921Y22192*X79789Y22103*X79665Y22007*X79545Y21905*X79433Y21793*X79327Y21676*X79228Y21552*X79139Y21422*X79055Y21288*X78981Y21148*X78915Y21003*X78859Y20856*X78811Y20706*X78773Y20551*X78745Y20396*X78725Y20239*X78715Y20081*X78715Y19924*X78725Y19766*X78745Y19609*X78773Y19454*X78811Y19299*X78859Y19149*X78915Y19002*X78981Y18857*X79055Y18717*X79139Y18583*X79228Y18453*X79327Y18329*X79433Y18212*X79545Y18100*X79665Y17998*X79789Y17902*X79921Y17813*X80058Y17732*X80198Y17661*X80343Y17597*X80493Y17544*X80642Y17498*X80797Y17462*X84607Y17462D2*X84452Y17498D1*X84303Y17544*X84153Y17597*X84008Y17661*X83868Y17732*X83731Y17813*X83599Y17902*X83475Y17998*X83355Y18100*X83243Y18212*X83137Y18329*X83038Y18453*X82949Y18583*X82865Y18717*X82791Y18857*X82725Y19002*X82669Y19149*X82621Y19299*X82583Y19454*X82555Y19609*X82535Y19766*X82525Y19924*X82525Y20081*X82535Y20239*X82555Y20396*X82583Y20551*X82621Y20706*X82669Y20856*X82725Y21003*X82791Y21148*X82865Y21288*X82949Y21422*X83038Y21552*X83137Y21676*X83243Y21793*X83355Y21905*X83475Y22007*X83599Y22103*X83731Y22192*X83868Y22273*X84008Y22344*X84153Y22408*X84303Y22461*X84452Y22507*X84607Y22542*X88417Y22542D2*X88262Y22507D1*X88113Y22461*X87963Y22408*X87818Y22344*X87678Y22273*X87541Y22192*X87409Y22103*X87285Y22007*X87165Y21905*X87053Y21793*X86947Y21676*X86848Y21552*X86759Y21422*X86675Y21288*X86601Y21148*X86535Y21003*X86479Y20856*X86431Y20706*X86393Y20551*X86365Y20396*X86345Y20239*X86335Y20081*X86335Y19924*X86345Y19766*X86365Y19609*X86393Y19454*X86431Y19299*X86479Y19149*X86535Y19002*X86601Y18857*X86675Y18717*X86759Y18583*X86848Y18453*X86947Y18329*X87053Y18212*X87165Y18100*X87285Y17998*X87409Y17902*X87541Y17813*X87678Y17732*X87818Y17661*X87963Y17597*X88113Y17544*X88262Y17498*X88417Y17462*X92227Y17462D2*X92072Y17498D1*X91923Y17544*X91773Y17597*X91628Y17661*X91488Y17732*X91351Y17813*X91219Y17902*X91095Y17998*X90975Y18100*X90863Y18212*X90757Y18329*X90658Y18453*X90569Y18583*X90485Y18717*X90411Y18857*X90345Y19002*X90289Y19149*X90241Y19299*X90203Y19454*X90175Y19609*X90155Y19766*X90145Y19924*X90145Y20081*X90155Y20239*X90175Y20396*X90203Y20551*X90241Y20706*X90289Y20856*X90345Y21003*X90411Y21148*X90485Y21288*X90569Y21422*X90658Y21552*X90757Y21676*X90863Y21793*X90975Y21905*X91095Y22007*X91219Y22103*X91351Y22192*X91488Y22273*X91628Y22344*X91773Y22408*X91923Y22461*X92072Y22507*X92227Y22542*X96037Y22542D2*X95882Y22507D1*X95733Y22461*X95583Y22408*X95438Y22344*X95298Y22273*X95161Y22192*X95029Y22103*X94905Y22007*X94785Y21905*X94673Y21793*X94567Y21676*X94468Y21552*X94379Y21422*X94295Y21288*X94221Y21148*X94155Y21003*X94099Y20856*X94051Y20706*X94013Y20551*X93985Y20396*X93965Y20239*X93955Y20081*X93955Y19924*X93965Y19766*X93985Y19609*X94013Y19454*X94051Y19299*X94099Y19149*X94155Y19002*X94221Y18857*X94295Y18717*X94379Y18583*X94468Y18453*X94567Y18329*X94673Y18212*X94785Y18100*X94905Y17998*X95029Y17902*X95161Y17813*X95298Y17732*X95438Y17661*X95583Y17597*X95733Y17544*X95882Y17498*X96037Y17462*X99847Y17462D2*X99692Y17498D1*X99543Y17544*X99393Y17597*X99248Y17661*X99108Y17732*X98971Y17813*X98839Y17902*X98715Y17998*X98595Y18100*X98483Y18212*X98377Y18329*X98278Y18453*X98189Y18583*X98105Y18717*X98031Y18857*X97965Y19002*X97909Y19149*X97861Y19299*X97823Y19454*X97795Y19609*X97775Y19766*X97765Y19924*X97765Y20081*X97775Y20239*X97795Y20396*X97823Y20551*X97861Y20706*X97909Y20856*X97965Y21003*X98031Y21148*X98105Y21288*X98189Y21422*X98278Y21552*X98377Y21676*X98483Y21793*X98595Y21905*X98715Y22007*X98839Y22103*X98971Y22192*X99108Y22273*X99248Y22344*X99393Y22408*X99543Y22461*X99692Y22507*X99847Y22542*X103657Y22542D2*X103502Y22507D1*X103353Y22461*X103203Y22408*X103058Y22344*X102918Y22273*X102781Y22192*X102649Y22103*X102525Y22007*X102405Y21905*X102293Y21793*X102187Y21676*X102088Y21552*X101999Y21422*X101915Y21288*X101841Y21148*X101775Y21003*X101719Y20856*X101671Y20706*X101633Y20551*X101605Y20396*X101585Y20239*X101575Y20081*X101575Y19924*X101585Y19766*X101605Y19609*X101633Y19454*X101671Y19299*X101719Y19149*X101775Y19002*X101841Y18857*X101915Y18717*X101999Y18583*X102088Y18453*X102187Y18329*X102293Y18212*X102405Y18100*X102525Y17998*X102649Y17902*X102781Y17813*X102918Y17732*X103058Y17661*X103203Y17597*X103353Y17544*X103502Y17498*X103657Y17462*X107467Y17462D2*X107312Y17498D1*X107163Y17544*X107013Y17597*X106868Y17661*X106728Y17732*X106591Y17813*X106459Y17902*X106335Y17998*X106215Y18100*X106103Y18212*X105997Y18329*X105898Y18453*X105809Y18583*X105725Y18717*X105651Y18857*X105585Y19002*X105529Y19149*X105481Y19299*X105443Y19454*X105415Y19609*X105395Y19766*X105385Y19924*X105385Y20081*X105395Y20239*X105415Y20396*X105443Y20551*X105481Y20706*X105529Y20856*X105585Y21003*X105651Y21148*X105725Y21288*X105809Y21422*X105898Y21552*X105997Y21676*X106103Y21793*X106215Y21905*X106335Y22007*X106459Y22103*X106591Y22192*X106728Y22273*X106868Y22344*X107013Y22408*X107163Y22461*X107312Y22507*X107467Y22542*X111277Y22542D2*X111122Y22507D1*X110973Y22461*X110823Y22408*X110678Y22344*X110538Y22273*X110401Y22192*X110269Y22103*X110145Y22007*X110025Y21905*X109913Y21793*X109807Y21676*X109708Y21552*X109619Y21422*X109535Y21288*X109461Y21148*X109395Y21003*X109339Y20856*X109291Y20706*X109253Y20551*X109225Y20396*X109205Y20239*X109195Y20081*X109195Y19924*X109205Y19766*X109225Y19609*X109253Y19454*X109291Y19299*X109339Y19149*X109395Y19002*X109461Y18857*X109535Y18717*X109619Y18583*X109708Y18453*X109807Y18329*X109913Y18212*X110025Y18100*X110145Y17998*X110269Y17902*X110401Y17813*X110538Y17732*X110678Y17661*X110823Y17597*X110973Y17544*X111122Y17498*X111277Y17462*X115087Y16828D2*X114932Y16863D1*X114783Y16909*X114633Y16962*X114488Y17026*X114348Y17097*X114211Y17178*X114079Y17267*X113955Y17363*X113835Y17465*X113723Y17577*X113617Y17694*X113518Y17818*X113429Y17948*X113345Y18082*X113271Y18222*X113205Y18367*X113149Y18514*X113101Y18664*X113063Y18819*X113035Y18974*X113015Y19131*X113005Y19289*X113005Y19446*X113015Y19604*X113035Y19761*X113063Y19916*X113101Y20071*X113149Y20221*X113205Y20368*X113271Y20513*X113345Y20653*X113429Y20787*X113518Y20917*X113617Y21041*X113723Y21158*X113835Y21270*X113955Y21372*X114079Y21468*X114211Y21557*X114348Y21638*X114488Y21709*X114633Y21773*X114783Y21826*X114932Y21872*X115087Y21908*X118897Y21908D2*X118742Y21872D1*X118593Y21826*X118443Y21773*X118298Y21709*X118158Y21638*X118021Y21557*X117889Y21468*X117765Y21372*X117645Y21270*X117533Y21158*X117427Y21041*X117328Y20917*X117239Y20787*X117155Y20653*X117081Y20513*X117015Y20368*X116959Y20221*X116911Y20071*X116873Y19916*X116845Y19761*X116825Y19604*X116815Y19446*X116815Y19289*X116825Y19131*X116845Y18974*X116873Y18819*X116911Y18664*X116959Y18514*X117015Y18367*X117081Y18222*X117155Y18082*X117239Y17948*X117328Y17818*X117427Y17694*X117533Y17577*X117645Y17465*X117765Y17363*X117889Y17267*X118021Y17178*X118158Y17097*X118298Y17026*X118443Y16962*X118593Y16909*X118742Y16863*X118897Y16828*X122707Y16828D2*X122552Y16863D1*X122403Y16909*X122253Y16962*X122108Y17026*X121968Y17097*X121831Y17178*X121699Y17267*X121575Y17363*X121455Y17465*X121343Y17577*X121237Y17694*X121138Y17818*X121049Y17948*X120965Y18082*X120891Y18222*X120825Y18367*X120769Y18514*X120721Y18664*X120683Y18819*X120655Y18974*X120635Y19131*X120625Y19289*X120625Y19446*X120635Y19604*X120655Y19761*X120683Y19916*X120721Y20071*X120769Y20221*X120825Y20368*X120891Y20513*X120965Y20653*X121049Y20787*X121138Y20917*X121237Y21041*X121343Y21158*X121455Y21270*X121575Y21372*X121699Y21468*X121831Y21557*X121968Y21638*X122108Y21709*X122253Y21773*X122403Y21826*X122552Y21872*X122707Y21908*X126517Y21908D2*X126362Y21872D1*X126213Y21826*X126063Y21773*X125918Y21709*X125778Y21638*X125641Y21557*X125509Y21468*X125385Y21372*X125265Y21270*X125153Y21158*X125047Y21041*X124948Y20917*X124859Y20787*X124775Y20653*X124701Y20513*X124635Y20368*X124579Y20221*X124531Y20071*X124493Y19916*X124465Y19761*X124445Y19604*X124435Y19446*X124435Y19289*X124445Y19131*X124465Y18974*X124493Y18819*X124531Y18664*X124579Y18514*X124635Y18367*X124701Y18222*X124775Y18082*X124859Y17948*X124948Y17818*X125047Y17694*X125153Y17577*X125265Y17465*X125385Y17363*X125509Y17267*X125641Y17178*X125778Y17097*X125918Y17026*X126063Y16962*X126213Y16909*X126362Y16863*X126517Y16828*X130327Y16828D2*X130172Y16863D1*X130023Y16909*X129873Y16962*X129728Y17026*X129588Y17097*X129451Y17178*X129319Y17267*X129195Y17363*X129075Y17465*X128963Y17577*X128857Y17694*X128758Y17818*X128669Y17948*X128585Y18082*X128511Y18222*X128445Y18367*X128389Y18514*X128341Y18664*X128303Y18819*X128275Y18974*X128255Y19131*X128245Y19289*X128245Y19446*X128255Y19604*X128275Y19761*X128303Y19916*X128341Y20071*X128389Y20221*X128445Y20368*X128511Y20513*X128585Y20653*X128669Y20787*X128758Y20917*X128857Y21041*X128963Y21158*X129075Y21270*X129195Y21372*X129319Y21468*X129451Y21557*X129588Y21638*X129728Y21709*X129873Y21773*X130023Y21826*X130172Y21872*X130327Y21908*X134137Y21908D2*X133982Y21872D1*X133833Y21826*X133683Y21773*X133538Y21709*X133398Y21638*X133261Y21557*X133129Y21468*X133005Y21372*X132885Y21270*X132773Y21158*X132667Y21041*X132568Y20917*X132479Y20787*X132395Y20653*X132321Y20513*X132255Y20368*X132199Y20221*X132151Y20071*X132113Y19916*X132085Y19761*X132065Y19604*X132055Y19446*X132055Y19289*X132065Y19131*X132085Y18974*X132113Y18819*X132151Y18664*X132199Y18514*X132255Y18367*X132321Y18222*X132395Y18082*X132479Y17948*X132568Y17818*X132667Y17694*X132773Y17577*X132885Y17465*X133005Y17363*X133129Y17267*X133261Y17178*X133398Y17097*X133538Y17026*X133683Y16962*X133833Y16909*X133982Y16863*X134137Y16828*X135661Y16828*X135661Y21908*X134137Y21908*X130327Y21908D2*X131851Y21908D1*X131851Y16828*X130327Y16828*X126754Y14305D2*X126789Y14305D1*X126914Y14430D2*X126632Y14430D1*X126507Y14552D2*X127036Y14552D1*X127160Y14676D2*X126385Y14676D1*X126261Y14798D2*X127282Y14798D1*X127406Y14922D2*X126139Y14922D1*X126014Y15044D2*X127528Y15044D1*X127653Y15169D2*X125893Y15169D1*X125768Y15291D2*X127775Y15291D1*X127899Y15415D2*X125646Y15415D1*X125522Y15537D2*X128021Y15537D1*X125501Y15558D2*X128041Y15558D1*X126771Y14288*X125501Y15558*X126517Y16828D2*X128041Y16828D1*X128041Y21908*X126517Y21908*X122707Y21908D2*X124231Y21908D1*X124231Y16828*X122707Y16828*X118897Y16828D2*X120421Y16828D1*X120421Y21908*X118897Y21908*X115087Y21908D2*X116611Y21908D1*X116611Y16828*X115087Y16828*X111277Y17462D2*X112801Y17462D1*X112801Y22542*X111277Y22542*X107467Y22542D2*X108991Y22542D1*X108991Y17462*X107467Y17462*X103657Y17462D2*X105181Y17462D1*X105181Y22542*X103657Y22542*X99847Y22542D2*X101371Y22542D1*X101371Y17462*X99847Y17462*X96037Y17462D2*X97561Y17462D1*X97561Y22542*X96037Y22542*X92227Y22542D2*X93751Y22542D1*X93751Y17462*X92227Y17462*X88417Y17462D2*X89941Y17462D1*X89941Y22542*X88417Y22542*X84607Y22542D2*X86131Y22542D1*X86131Y17462*X84607Y17462*X80797Y17462D2*X82321Y17462D1*X82321Y22542*X80797Y22542*X76987Y22542D2*X78511Y22542D1*X78511Y17462*X76987Y17462*X50589Y14305D2*X50554Y14305D1*X50432Y14430D2*X50714Y14430D1*X50836Y14552D2*X50307Y14552D1*X50185Y14676D2*X50960Y14676D1*X51082Y14798D2*X50061Y14798D1*X49939Y14922D2*X51206Y14922D1*X51328Y15044D2*X49814Y15044D1*X49693Y15169D2*X51453Y15169D1*X51575Y15291D2*X49568Y15291D1*X49446Y15415D2*X51699Y15415D1*X51821Y15537D2*X49322Y15537D1*X51841Y15558D2*X49301Y15558D1*X50571Y14288*X51841Y15558*X61366Y6668D2*X61366Y14288D1*X16916Y14288*X16916Y6668*D125*X55270Y27178D2*X55270Y26035D1*X54699Y26606D2*X55842Y26606D1*X49555Y27178D2*X49555Y26035D1*X48984Y26606D2*X50127Y26606D1*X43840Y27178D2*X43840Y26035D1*X43269Y26606D2*X44412Y26606D1*X38125Y27178D2*X38125Y26035D1*X37554Y26606D2*X38697Y26606D1*X32410Y27178D2*X32410Y26035D1*X31839Y26606D2*X32982Y26606D1*X26695Y27178D2*X26695Y26035D1*X26124Y26606D2*X27267Y26606D1*X20980Y27178D2*X20980Y26035D1*X20409Y26606D2*X21552Y26606D1*X14694Y26606D2*X15837Y26606D1*X15265Y27178D2*X15265Y26035D1*X14757Y71755D2*X14757Y72898D1*X15329Y72326D2*X14186Y72326D1*X21107Y71755D2*X21107Y72898D1*X21679Y72326D2*X20536Y72326D1*X27457Y71755D2*X27457Y72898D1*X28029Y72326D2*X26886Y72326D1*X33807Y71755D2*X33807Y72898D1*X34379Y72326D2*X33236Y72326D1*X40157Y71755D2*X40157Y72898D1*X40729Y72326D2*X39586Y72326D1*X46507Y71755D2*X46507Y72898D1*X47079Y72326D2*X45936Y72326D1*X52857Y71755D2*X52857Y72898D1*X53429Y72326D2*X52286Y72326D1*X59207Y71755D2*X59207Y72898D1*X59779Y72326D2*X58636Y72326D1*X123977Y71755D2*X123977Y72898D1*X124549Y72326D2*X123406Y72326D1*X130327Y71755D2*X130327Y72898D1*X130899Y72326D2*X129756Y72326D1*X136677Y71755D2*X136677Y72898D1*X137249Y72326D2*X136106Y72326D1*X168427Y71755D2*X168427Y72898D1*X167856Y72326D2*X168999Y72326D1*X162077Y71755D2*X162077Y72898D1*X161506Y72326D2*X162649Y72326D1*X155727Y71755D2*X155727Y72898D1*X155156Y72326D2*X156299Y72326D1*X149377Y71755D2*X149377Y72898D1*X148806Y72326D2*X149949Y72326D1*X142456Y72326D2*X143599Y72326D1*X143027Y72898D2*X143027Y71755D1*X0Y0D2*M02*