G04 Output by ViewMate Deluxe V11.0.9  PentaLogix LLC*
G04 Mon Sep 14 11:20:41 2015*
%FSLAX33Y33*%
%MOMM*%
%IPPOS*%
%ADD113C,0.0*%

%LPD*%
X0Y0D2*D113*G1X10871Y80328D2*X10876Y80200D1*X10892Y80074*X10917Y79949*X10952Y79827*X10996Y79708*X11049Y79593*X11112Y79482*X11184Y79378*X11265Y79278*X11351Y79184*X11445Y79098*X11547Y79022*X11654Y78953*X11765Y78892*X11882Y78839*X12002Y78798*X12123Y78765*X12250Y78743*X12375Y78730*X12504Y78727*X12631Y78735*X12756Y78753*X12880Y78781*X13002Y78819*X13119Y78864*X13233Y78920*X13343Y78986*X13447Y79060*X13546Y79141*X13637Y79230*X13719Y79327*X13795Y79428*X13863Y79538*X13922Y79649*X13970Y79766*X14011Y79888*X14041Y80013*X14061Y80137*X14072Y80264*X14072Y80391*X14061Y80518*X14041Y80642*X14011Y80767*X13970Y80889*X13922Y81006*X13863Y81117*X13795Y81227*X13719Y81328*X13637Y81425*X13546Y81514*X13447Y81595*X13343Y81669*X13233Y81735*X13119Y81791*X13002Y81836*X12880Y81874*X12756Y81902*X12631Y81920*X12504Y81928*X12375Y81925*X12250Y81912*X12123Y81890*X12002Y81857*X11882Y81816*X11765Y81763*X11654Y81702*X11547Y81633*X11445Y81557*X11351Y81470*X11265Y81377*X11184Y81277*X11112Y81173*X11049Y81062*X10996Y80947*X10952Y80828*X10917Y80706*X10892Y80582*X10876Y80454*X10871Y80328*X24232Y78956D2*X24237Y78834D1*X24252Y78715*X24277Y78595*X24310Y78478*X24356Y78364*X24409Y78255*X24470Y78151*X24541Y78052*X24620Y77958*X24707Y77871*X24801Y77793*X24900Y77721*X25004Y77660*X25113Y77607*X25227Y77561*X25344Y77528*X25464Y77503*X25583Y77488*X25705Y77483*X25827Y77488*X25946Y77503*X26065Y77528*X26182Y77561*X26297Y77607*X26406Y77660*X26510Y77721*X26609Y77793*X26703Y77871*X26789Y77958*X26868Y78052*X26939Y78151*X27000Y78255*X27054Y78364*X27099Y78478*X27132Y78595*X27158Y78715*X27173Y78834*X27178Y78956*X27173Y79078*X27158Y79197*X27132Y79317*X27099Y79433*X27054Y79548*X27000Y79657*X26939Y79761*X26868Y79860*X26789Y79954*X26703Y80040*X26609Y80119*X26510Y80190*X26406Y80251*X26297Y80305*X26182Y80350*X26065Y80383*X25946Y80409*X25827Y80424*X25705Y80429*X25583Y80424*X25464Y80409*X25344Y80383*X25227Y80350*X25113Y80305*X25004Y80251*X24900Y80190*X24801Y80119*X24707Y80040*X24620Y79954*X24541Y79860*X24470Y79761*X24409Y79657*X24356Y79548*X24310Y79433*X24277Y79317*X24252Y79197*X24237Y79078*X24232Y78956*X58725Y78956D2*X58730Y78834D1*X58745Y78715*X58771Y78595*X58804Y78478*X58849Y78364*X58903Y78255*X58964Y78151*X59035Y78052*X59113Y77958*X59200Y77871*X59294Y77793*X59393Y77721*X59497Y77660*X59606Y77607*X59720Y77561*X59837Y77528*X59957Y77503*X60076Y77488*X60198Y77483*X60320Y77488*X60439Y77503*X60559Y77528*X60676Y77561*X60790Y77607*X60899Y77660*X61003Y77721*X61102Y77793*X61196Y77871*X61283Y77958*X61361Y78052*X61432Y78151*X61493Y78255*X61547Y78364*X61592Y78478*X61625Y78595*X61651Y78715*X61666Y78834*X61671Y78956*X61666Y79078*X61651Y79197*X61625Y79317*X61592Y79433*X61547Y79548*X61493Y79657*X61432Y79761*X61361Y79860*X61283Y79954*X61196Y80040*X61102Y80119*X61003Y80190*X60899Y80251*X60790Y80305*X60676Y80350*X60559Y80383*X60439Y80409*X60320Y80424*X60198Y80429*X60076Y80424*X59957Y80409*X59837Y80383*X59720Y80350*X59606Y80305*X59497Y80251*X59393Y80190*X59294Y80119*X59200Y80040*X59113Y79954*X59035Y79860*X58964Y79761*X58903Y79657*X58849Y79548*X58804Y79433*X58771Y79317*X58745Y79197*X58730Y79078*X58725Y78956*X76302Y78956D2*X76307Y78834D1*X76322Y78715*X76347Y78595*X76380Y78478*X76426Y78364*X76479Y78255*X76540Y78151*X76611Y78052*X76690Y77958*X76777Y77871*X76871Y77793*X76970Y77721*X77074Y77660*X77183Y77607*X77297Y77561*X77414Y77528*X77534Y77503*X77653Y77488*X77775Y77483*X77897Y77488*X78016Y77503*X78135Y77528*X78252Y77561*X78367Y77607*X78476Y77660*X78580Y77721*X78679Y77793*X78773Y77871*X78859Y77958*X78938Y78052*X79009Y78151*X79070Y78255*X79124Y78364*X79169Y78478*X79202Y78595*X79228Y78715*X79243Y78834*X79248Y78956*X79243Y79078*X79228Y79197*X79202Y79317*X79169Y79433*X79124Y79548*X79070Y79657*X79009Y79761*X78938Y79860*X78859Y79954*X78773Y80040*X78679Y80119*X78580Y80190*X78476Y80251*X78367Y80305*X78252Y80350*X78135Y80383*X78016Y80409*X77897Y80424*X77775Y80429*X77653Y80424*X77534Y80409*X77414Y80383*X77297Y80350*X77183Y80305*X77074Y80251*X76970Y80190*X76871Y80119*X76777Y80040*X76690Y79954*X76611Y79860*X76540Y79761*X76479Y79657*X76426Y79548*X76380Y79433*X76347Y79317*X76322Y79197*X76307Y79078*X76302Y78956*X110795Y78956D2*X110800Y78834D1*X110815Y78715*X110841Y78595*X110874Y78478*X110919Y78364*X110973Y78255*X111034Y78151*X111105Y78052*X111183Y77958*X111270Y77871*X111364Y77793*X111463Y77721*X111567Y77660*X111676Y77607*X111790Y77561*X111907Y77528*X112027Y77503*X112146Y77488*X112268Y77483*X112390Y77488*X112509Y77503*X112629Y77528*X112746Y77561*X112860Y77607*X112969Y77660*X113073Y77721*X113172Y77793*X113266Y77871*X113353Y77958*X113431Y78052*X113502Y78151*X113563Y78255*X113617Y78364*X113662Y78478*X113695Y78595*X113721Y78715*X113736Y78834*X113741Y78956*X113736Y79078*X113721Y79197*X113695Y79317*X113662Y79433*X113617Y79548*X113563Y79657*X113502Y79761*X113431Y79860*X113353Y79954*X113266Y80040*X113172Y80119*X113073Y80190*X112969Y80251*X112860Y80305*X112746Y80350*X112629Y80383*X112509Y80409*X112390Y80424*X112268Y80429*X112146Y80424*X112027Y80409*X111907Y80383*X111790Y80350*X111676Y80305*X111567Y80251*X111463Y80190*X111364Y80119*X111270Y80040*X111183Y79954*X111105Y79860*X111034Y79761*X110973Y79657*X110919Y79548*X110874Y79433*X110841Y79317*X110815Y79197*X110800Y79078*X110795Y78956*X121996Y80328D2*X122001Y80200D1*X122017Y80074*X122042Y79949*X122077Y79827*X122121Y79708*X122174Y79593*X122238Y79482*X122309Y79378*X122390Y79278*X122476Y79184*X122570Y79098*X122672Y79022*X122779Y78953*X122890Y78892*X123007Y78839*X123126Y78798*X123248Y78765*X123375Y78743*X123500Y78730*X123629Y78727*X123756Y78735*X123881Y78753*X124005Y78781*X124127Y78819*X124244Y78864*X124358Y78920*X124468Y78986*X124572Y79060*X124671Y79141*X124762Y79230*X124844Y79327*X124920Y79428*X124988Y79538*X125047Y79649*X125095Y79766*X125136Y79888*X125166Y80013*X125186Y80137*X125197Y80264*X125197Y80391*X125186Y80518*X125166Y80642*X125136Y80767*X125095Y80889*X125047Y81006*X124988Y81117*X124920Y81227*X124844Y81328*X124762Y81425*X124671Y81514*X124572Y81595*X124468Y81669*X124358Y81735*X124244Y81791*X124127Y81836*X124005Y81874*X123881Y81902*X123756Y81920*X123629Y81928*X123500Y81925*X123375Y81912*X123248Y81890*X123126Y81857*X123007Y81816*X122890Y81763*X122779Y81702*X122672Y81633*X122570Y81557*X122476Y81470*X122390Y81377*X122309Y81277*X122238Y81173*X122174Y81062*X122121Y80947*X122077Y80828*X122042Y80706*X122017Y80582*X122001Y80454*X121996Y80328*X133452Y78956D2*X133457Y78834D1*X133472Y78715*X133497Y78595*X133530Y78478*X133576Y78364*X133629Y78255*X133690Y78151*X133761Y78052*X133840Y77958*X133927Y77871*X134021Y77793*X134120Y77721*X134224Y77660*X134333Y77607*X134447Y77561*X134564Y77528*X134684Y77503*X134803Y77488*X134925Y77483*X135047Y77488*X135166Y77503*X135285Y77528*X135402Y77561*X135517Y77607*X135626Y77660*X135730Y77721*X135829Y77793*X135923Y77871*X136009Y77958*X136088Y78052*X136159Y78151*X136220Y78255*X136274Y78364*X136319Y78478*X136352Y78595*X136378Y78715*X136393Y78834*X136398Y78956*X136393Y79078*X136378Y79197*X136352Y79317*X136319Y79433*X136274Y79548*X136220Y79657*X136159Y79761*X136088Y79860*X136009Y79954*X135923Y80040*X135829Y80119*X135730Y80190*X135626Y80251*X135517Y80305*X135402Y80350*X135285Y80383*X135166Y80409*X135047Y80424*X134925Y80429*X134803Y80424*X134684Y80409*X134564Y80383*X134447Y80350*X134333Y80305*X134224Y80251*X134120Y80190*X134021Y80119*X133927Y80040*X133840Y79954*X133761Y79860*X133690Y79761*X133629Y79657*X133576Y79548*X133530Y79433*X133497Y79317*X133472Y79197*X133457Y79078*X133452Y78956*X167945Y78956D2*X167950Y78834D1*X167965Y78715*X167991Y78595*X168024Y78478*X168069Y78364*X168123Y78255*X168184Y78151*X168255Y78052*X168333Y77958*X168420Y77871*X168514Y77793*X168613Y77721*X168717Y77660*X168826Y77607*X168940Y77561*X169057Y77528*X169177Y77503*X169296Y77488*X169418Y77483*X169540Y77488*X169659Y77503*X169779Y77528*X169896Y77561*X170010Y77607*X170119Y77660*X170223Y77721*X170322Y77793*X170416Y77871*X170503Y77958*X170581Y78052*X170652Y78151*X170713Y78255*X170767Y78364*X170812Y78478*X170845Y78595*X170871Y78715*X170886Y78834*X170891Y78956*X170886Y79078*X170871Y79197*X170845Y79317*X170812Y79433*X170767Y79548*X170713Y79657*X170652Y79761*X170581Y79860*X170503Y79954*X170416Y80040*X170322Y80119*X170223Y80190*X170119Y80251*X170010Y80305*X169896Y80350*X169779Y80383*X169659Y80409*X169540Y80424*X169418Y80429*X169296Y80424*X169177Y80409*X169057Y80383*X168940Y80350*X168826Y80305*X168717Y80251*X168613Y80190*X168514Y80119*X168420Y80040*X168333Y79954*X168255Y79860*X168184Y79761*X168123Y79657*X168069Y79548*X168024Y79433*X167991Y79317*X167965Y79197*X167950Y79078*X167945Y78956*X185522Y78956D2*X185527Y78834D1*X185542Y78715*X185567Y78595*X185600Y78478*X185646Y78364*X185699Y78255*X185760Y78151*X185831Y78052*X185910Y77958*X185997Y77871*X186091Y77793*X186190Y77721*X186294Y77660*X186403Y77607*X186517Y77561*X186634Y77528*X186754Y77503*X186873Y77488*X186995Y77483*X187117Y77488*X187236Y77503*X187355Y77528*X187472Y77561*X187587Y77607*X187696Y77660*X187800Y77721*X187899Y77793*X187993Y77871*X188079Y77958*X188158Y78052*X188229Y78151*X188290Y78255*X188344Y78364*X188389Y78478*X188422Y78595*X188448Y78715*X188463Y78834*X188468Y78956*X188463Y79078*X188448Y79197*X188422Y79317*X188389Y79433*X188344Y79548*X188290Y79657*X188229Y79761*X188158Y79860*X188079Y79954*X187993Y80040*X187899Y80119*X187800Y80190*X187696Y80251*X187587Y80305*X187472Y80350*X187355Y80383*X187236Y80409*X187117Y80424*X186995Y80429*X186873Y80424*X186754Y80409*X186634Y80383*X186517Y80350*X186403Y80305*X186294Y80251*X186190Y80190*X186091Y80119*X185997Y80040*X185910Y79954*X185831Y79860*X185760Y79761*X185699Y79657*X185646Y79548*X185600Y79433*X185567Y79317*X185542Y79197*X185527Y79078*X185522Y78956*X231216Y80328D2*X231221Y80200D1*X231237Y80074*X231262Y79949*X231297Y79827*X231341Y79708*X231394Y79593*X231458Y79482*X231529Y79378*X231610Y79278*X231696Y79184*X231790Y79098*X231892Y79022*X231999Y78953*X232110Y78892*X232227Y78839*X232346Y78798*X232468Y78765*X232595Y78743*X232720Y78730*X232849Y78727*X232976Y78735*X233101Y78753*X233225Y78781*X233347Y78819*X233464Y78864*X233578Y78920*X233688Y78986*X233792Y79060*X233891Y79141*X233982Y79230*X234064Y79327*X234140Y79428*X234208Y79538*X234267Y79649*X234315Y79766*X234356Y79888*X234386Y80013*X234406Y80137*X234417Y80264*X234417Y80391*X234406Y80518*X234386Y80642*X234356Y80767*X234315Y80889*X234267Y81006*X234208Y81117*X234140Y81227*X234064Y81328*X233982Y81425*X233891Y81514*X233792Y81595*X233688Y81669*X233578Y81735*X233464Y81791*X233347Y81836*X233225Y81874*X233101Y81902*X232976Y81920*X232849Y81928*X232720Y81925*X232595Y81912*X232468Y81890*X232346Y81857*X232227Y81816*X232110Y81763*X231999Y81702*X231892Y81633*X231790Y81557*X231696Y81470*X231610Y81377*X231529Y81277*X231458Y81173*X231394Y81062*X231341Y80947*X231297Y80828*X231262Y80706*X231237Y80582*X231221Y80454*X231216Y80328*X220015Y78956D2*X220020Y78834D1*X220035Y78715*X220061Y78595*X220094Y78478*X220139Y78364*X220193Y78255*X220254Y78151*X220325Y78052*X220403Y77958*X220490Y77871*X220584Y77793*X220683Y77721*X220787Y77660*X220896Y77607*X221010Y77561*X221127Y77528*X221247Y77503*X221366Y77488*X221488Y77483*X221610Y77488*X221729Y77503*X221849Y77528*X221966Y77561*X222080Y77607*X222189Y77660*X222293Y77721*X222392Y77793*X222486Y77871*X222573Y77958*X222651Y78052*X222722Y78151*X222783Y78255*X222837Y78364*X222882Y78478*X222915Y78595*X222941Y78715*X222956Y78834*X222961Y78956*X222956Y79078*X222941Y79197*X222915Y79317*X222882Y79433*X222837Y79548*X222783Y79657*X222722Y79761*X222651Y79860*X222573Y79954*X222486Y80040*X222392Y80119*X222293Y80190*X222189Y80251*X222080Y80305*X221966Y80350*X221849Y80383*X221729Y80409*X221610Y80424*X221488Y80429*X221366Y80424*X221247Y80409*X221127Y80383*X221010Y80350*X220896Y80305*X220787Y80251*X220683Y80190*X220584Y80119*X220490Y80040*X220403Y79954*X220325Y79860*X220254Y79761*X220193Y79657*X220139Y79548*X220094Y79433*X220061Y79317*X220035Y79197*X220020Y79078*X220015Y78956*X231216Y10478D2*X231221Y10350D1*X231237Y10224*X231262Y10099*X231297Y9977*X231341Y9858*X231394Y9743*X231458Y9632*X231529Y9528*X231610Y9428*X231696Y9334*X231790Y9248*X231892Y9172*X231999Y9103*X232110Y9042*X232227Y8989*X232346Y8948*X232468Y8915*X232595Y8893*X232720Y8880*X232849Y8877*X232976Y8885*X233101Y8903*X233225Y8931*X233347Y8969*X233464Y9014*X233578Y9070*X233688Y9136*X233792Y9210*X233891Y9291*X233982Y9380*X234064Y9477*X234140Y9578*X234208Y9688*X234267Y9799*X234315Y9916*X234356Y10038*X234386Y10163*X234406Y10287*X234417Y10414*X234417Y10541*X234406Y10668*X234386Y10792*X234356Y10917*X234315Y11039*X234267Y11156*X234208Y11267*X234140Y11377*X234064Y11478*X233982Y11575*X233891Y11664*X233792Y11745*X233688Y11819*X233578Y11885*X233464Y11941*X233347Y11986*X233225Y12024*X233101Y12052*X232976Y12070*X232849Y12078*X232720Y12075*X232595Y12062*X232468Y12040*X232346Y12007*X232227Y11966*X232110Y11913*X231999Y11852*X231892Y11783*X231790Y11707*X231696Y11620*X231610Y11527*X231529Y11427*X231458Y11323*X231394Y11212*X231341Y11097*X231297Y10978*X231262Y10856*X231237Y10732*X231221Y10604*X231216Y10478*X160731Y10478D2*X160736Y10350D1*X160752Y10224*X160777Y10099*X160812Y9977*X160856Y9858*X160909Y9743*X160972Y9632*X161044Y9528*X161125Y9428*X161211Y9334*X161305Y9248*X161407Y9172*X161514Y9103*X161625Y9042*X161742Y8989*X161862Y8948*X161983Y8915*X162110Y8893*X162235Y8880*X162364Y8877*X162491Y8885*X162616Y8903*X162740Y8931*X162862Y8969*X162979Y9014*X163093Y9070*X163203Y9136*X163307Y9210*X163406Y9291*X163497Y9380*X163579Y9477*X163655Y9578*X163723Y9688*X163782Y9799*X163830Y9916*X163871Y10038*X163901Y10163*X163921Y10287*X163932Y10414*X163932Y10541*X163921Y10668*X163901Y10792*X163871Y10917*X163830Y11039*X163782Y11156*X163723Y11267*X163655Y11377*X163579Y11478*X163497Y11575*X163406Y11664*X163307Y11745*X163203Y11819*X163093Y11885*X162979Y11941*X162862Y11986*X162740Y12024*X162616Y12052*X162491Y12070*X162364Y12078*X162235Y12075*X162110Y12062*X161983Y12040*X161862Y12007*X161742Y11966*X161625Y11913*X161514Y11852*X161407Y11783*X161305Y11707*X161211Y11620*X161125Y11527*X161044Y11427*X160972Y11323*X160909Y11212*X160856Y11097*X160812Y10978*X160777Y10856*X160752Y10732*X160736Y10604*X160731Y10478*X131115Y11214D2*X131120Y11092D1*X131135Y10973*X131161Y10853*X131194Y10737*X131239Y10622*X131293Y10513*X131354Y10409*X131425Y10310*X131503Y10216*X131590Y10130*X131684Y10051*X131783Y9980*X131887Y9919*X131996Y9865*X132110Y9820*X132227Y9787*X132347Y9761*X132466Y9746*X132588Y9741*X132710Y9746*X132829Y9761*X132949Y9787*X133066Y9820*X133180Y9865*X133289Y9919*X133393Y9980*X133492Y10051*X133586Y10130*X133673Y10216*X133751Y10310*X133822Y10409*X133883Y10513*X133937Y10622*X133982Y10737*X134015Y10853*X134041Y10973*X134056Y11092*X134061Y11214*X134056Y11336*X134041Y11455*X134015Y11575*X133982Y11692*X133937Y11806*X133883Y11915*X133822Y12019*X133751Y12118*X133673Y12212*X133586Y12299*X133492Y12377*X133393Y12449*X133289Y12510*X133180Y12563*X133066Y12609*X132949Y12642*X132829Y12667*X132710Y12682*X132588Y12687*X132466Y12682*X132347Y12667*X132227Y12642*X132110Y12609*X131996Y12563*X131887Y12510*X131783Y12449*X131684Y12377*X131590Y12299*X131503Y12212*X131425Y12118*X131354Y12019*X131293Y11915*X131239Y11806*X131194Y11692*X131161Y11575*X131135Y11455*X131120Y11336*X131115Y11214*X96622Y11214D2*X96627Y11092D1*X96642Y10973*X96667Y10853*X96700Y10737*X96746Y10622*X96799Y10513*X96860Y10409*X96931Y10310*X97010Y10216*X97097Y10130*X97191Y10051*X97290Y9980*X97394Y9919*X97503Y9865*X97617Y9820*X97734Y9787*X97854Y9761*X97973Y9746*X98095Y9741*X98217Y9746*X98336Y9761*X98455Y9787*X98572Y9820*X98687Y9865*X98796Y9919*X98900Y9980*X98999Y10051*X99093Y10130*X99179Y10216*X99258Y10310*X99329Y10409*X99390Y10513*X99444Y10622*X99489Y10737*X99522Y10853*X99548Y10973*X99563Y11092*X99568Y11214*X99563Y11336*X99548Y11455*X99522Y11575*X99489Y11692*X99444Y11806*X99390Y11915*X99329Y12019*X99258Y12118*X99179Y12212*X99093Y12299*X98999Y12377*X98900Y12449*X98796Y12510*X98687Y12563*X98572Y12609*X98455Y12642*X98336Y12667*X98217Y12682*X98095Y12687*X97973Y12682*X97854Y12667*X97734Y12642*X97617Y12609*X97503Y12563*X97394Y12510*X97290Y12449*X97191Y12377*X97097Y12299*X97010Y12212*X96931Y12118*X96860Y12019*X96799Y11915*X96746Y11806*X96700Y11692*X96667Y11575*X96642Y11455*X96627Y11336*X96622Y11214*X54915Y11214D2*X54920Y11092D1*X54935Y10973*X54961Y10853*X54994Y10737*X55039Y10622*X55093Y10513*X55154Y10409*X55225Y10310*X55303Y10216*X55390Y10130*X55484Y10051*X55583Y9980*X55687Y9919*X55796Y9865*X55910Y9820*X56027Y9787*X56147Y9761*X56266Y9746*X56388Y9741*X56510Y9746*X56629Y9761*X56749Y9787*X56866Y9820*X56980Y9865*X57089Y9919*X57193Y9980*X57292Y10051*X57386Y10130*X57473Y10216*X57551Y10310*X57622Y10409*X57683Y10513*X57737Y10622*X57782Y10737*X57815Y10853*X57841Y10973*X57856Y11092*X57861Y11214*X57856Y11336*X57841Y11455*X57815Y11575*X57782Y11692*X57737Y11806*X57683Y11915*X57622Y12019*X57551Y12118*X57473Y12212*X57386Y12299*X57292Y12377*X57193Y12449*X57089Y12510*X56980Y12563*X56866Y12609*X56749Y12642*X56629Y12667*X56510Y12682*X56388Y12687*X56266Y12682*X56147Y12667*X56027Y12642*X55910Y12609*X55796Y12563*X55687Y12510*X55583Y12449*X55484Y12377*X55390Y12299*X55303Y12212*X55225Y12118*X55154Y12019*X55093Y11915*X55039Y11806*X54994Y11692*X54961Y11575*X54935Y11455*X54920Y11336*X54915Y11214*X20422Y11214D2*X20427Y11092D1*X20442Y10973*X20467Y10853*X20500Y10737*X20546Y10622*X20599Y10513*X20660Y10409*X20731Y10310*X20810Y10216*X20897Y10130*X20991Y10051*X21090Y9980*X21194Y9919*X21303Y9865*X21417Y9820*X21534Y9787*X21654Y9761*X21773Y9746*X21895Y9741*X22017Y9746*X22136Y9761*X22255Y9787*X22372Y9820*X22487Y9865*X22596Y9919*X22700Y9980*X22799Y10051*X22893Y10130*X22979Y10216*X23058Y10310*X23129Y10409*X23190Y10513*X23244Y10622*X23289Y10737*X23322Y10853*X23348Y10973*X23363Y11092*X23368Y11214*X23363Y11336*X23348Y11455*X23322Y11575*X23289Y11692*X23244Y11806*X23190Y11915*X23129Y12019*X23058Y12118*X22979Y12212*X22893Y12299*X22799Y12377*X22700Y12449*X22596Y12510*X22487Y12563*X22372Y12609*X22255Y12642*X22136Y12667*X22017Y12682*X21895Y12687*X21773Y12682*X21654Y12667*X21534Y12642*X21417Y12609*X21303Y12563*X21194Y12510*X21090Y12449*X20991Y12377*X20897Y12299*X20810Y12212*X20731Y12118*X20660Y12019*X20599Y11915*X20546Y11806*X20500Y11692*X20467Y11575*X20442Y11455*X20427Y11336*X20422Y11214*X10871Y10478D2*X10876Y10350D1*X10892Y10224*X10917Y10099*X10952Y9977*X10996Y9858*X11049Y9743*X11112Y9632*X11184Y9528*X11265Y9428*X11351Y9334*X11445Y9248*X11547Y9172*X11654Y9103*X11765Y9042*X11882Y8989*X12002Y8948*X12123Y8915*X12250Y8893*X12375Y8880*X12504Y8877*X12631Y8885*X12756Y8903*X12880Y8931*X13002Y8969*X13119Y9014*X13233Y9070*X13343Y9136*X13447Y9210*X13546Y9291*X13637Y9380*X13719Y9477*X13795Y9578*X13863Y9688*X13922Y9799*X13970Y9916*X14011Y10038*X14041Y10163*X14061Y10287*X14072Y10414*X14072Y10541*X14061Y10668*X14041Y10792*X14011Y10917*X13970Y11039*X13922Y11156*X13863Y11267*X13795Y11377*X13719Y11478*X13637Y11575*X13546Y11664*X13447Y11745*X13343Y11819*X13233Y11885*X13119Y11941*X13002Y11986*X12880Y12024*X12756Y12052*X12631Y12070*X12504Y12078*X12375Y12075*X12250Y12062*X12123Y12040*X12002Y12007*X11882Y11966*X11765Y11913*X11654Y11852*X11547Y11783*X11445Y11707*X11351Y11620*X11265Y11527*X11184Y11427*X11112Y11323*X11049Y11212*X10996Y11097*X10952Y10978*X10917Y10856*X10892Y10732*X10876Y10604*X10871Y10478*X8661Y6668D2*X235971Y6668D1*X235971Y83807*X8661Y83807*X8661Y6668*X0Y0D2*M02*