
M48
METRIC,TZ,000.000
T01C0.5
T02C0.701
T03C0.8
T04C1.1
T05C1.199
T06C1.501
T07C2.946
T08C3.2
%
M71
G90
T01
X142646Y023178
X176936Y014288
X182016Y016192
X195351Y021272
X197891Y023178
X192811Y025082
X190271Y023812
X185191Y026352
X187731Y027622
X182651Y029528
X180111Y028258
X175031Y029528
X177571Y030798
X172491Y032068
X169951Y030798
X167411Y033338
X164871Y032068
X159791Y033972
X162331Y034608
X189636Y047308
X166141Y048578
X159791Y047308
X153441Y046672
X147091Y046038
X118516Y042862
X121691Y043498
X128041Y044132
X134391Y044768
X140741Y045402
X148361Y041592
X134391Y034608
X130581Y035242
X126771Y033338
X122961Y033972
X118516Y032702
X119151Y031432
X110261Y025718
X108991Y026352
X107721Y026988
X106451Y027622
X105181Y028258
X103911Y028892
X102641Y029528
X101371Y030162
X098831Y030798
X081686Y042862
X080416Y042228
X059461Y049212
X015646Y044132
X015646Y056198
X018186Y053022
X022631Y053022
X025806Y049848
X019456Y047942
X021361Y045402
X027711Y046038
X028981Y048578
X031521Y046038
X034061Y046672
X036601Y046038
X039141Y047308
X040411Y047308
X041681Y048578
X046761Y047942
X053111Y048578
X062001Y040958
X065811Y039688
X067081Y039052
X069621Y038418
X072796Y037782
X077241Y037148
X079781Y036512
X082321Y035878
X084861Y035242
X087401Y034608
X088671Y033972
X091211Y033338
X093751Y032702
X095021Y032068
X096291Y031432
X094386Y028892
X097561Y027622
X095656Y025718
X092481Y025718
X088671Y024448
X084861Y024448
X080416Y024448
X076606Y025082
X068986Y022542
X072796Y021272
X065176Y016192
X061366Y016192
T02
X192811Y009842
X194081Y011112
X191541Y011112
X185191Y009842
X186461Y011112
X183921Y011112
X176936Y009842
X178206Y011112
X175666Y011112
X170586Y009842
X169316Y011112
X171856Y011112
X171856Y014922
X169316Y014922
X170586Y016192
X072161Y062548
X075971Y062548
X080416Y067628
X079146Y066358
X080416Y065088
X086766Y062548
X090576Y062548
X094386Y062548
X098196Y062548
X102006Y062548
X105816Y062548
X109626Y062548
X113436Y062548
X122961Y065722
X122961Y063182
X124231Y064452
X129311Y065722
X129311Y063182
X130581Y064452
X135661Y065722
X135661Y063182
X136931Y064452
X177571Y062548
X181381Y062548
X185191Y062548
X189636Y067628
X188366Y066358
X189636Y065088
X195986Y062548
X199796Y062548
X203606Y062548
X207416Y062548
X211226Y062548
X215036Y062548
X218846Y062548
X222656Y062548
X222656Y054928
X218846Y054928
X215036Y054928
X211226Y054928
X207416Y054928
X203606Y054928
X199796Y054928
X192176Y051752
X190906Y053022
X192176Y054292
X195986Y054928
X195986Y057468
X197256Y056198
X199796Y057468
X201066Y056198
X203606Y057468
X204876Y056198
X207416Y057468
X208686Y056198
X211226Y057468
X212496Y056198
X215036Y057468
X216306Y056198
X218846Y057468
X220116Y056198
X223926Y056198
X222656Y057468
X222656Y060008
X221386Y061278
X218846Y060008
X217576Y061278
X215036Y060008
X213766Y061278
X211226Y060008
X209956Y061278
X207416Y060008
X206146Y061278
X203606Y060008
X202336Y061278
X199796Y060008
X198526Y061278
X195986Y060008
X194716Y061278
X190906Y061278
X192176Y060008
X190906Y058738
X185191Y060008
X183921Y061278
X181381Y060008
X180111Y061278
X177571Y060008
X176301Y061278
X173761Y060008
X172491Y061278
X173761Y062548
X167411Y065722
X168681Y064452
X167411Y063182
X161061Y063182
X162331Y064452
X161061Y065722
X154711Y065722
X155981Y064452
X154711Y063182
X148361Y063182
X149631Y064452
X148361Y065722
X142011Y065722
X143281Y064452
X142011Y063182
X143281Y054292
X142011Y053022
X143281Y051752
X149631Y051752
X148361Y053022
X149631Y054292
X162331Y054292
X167411Y057468
X161061Y057468
X161061Y060008
X162331Y058738
X167411Y060008
X168681Y058738
X177571Y054928
X181381Y054928
X185191Y054928
X186461Y056198
X185191Y057468
X182651Y056198
X181381Y057468
X178841Y056198
X177571Y057468
X173761Y057468
X175031Y056198
X173761Y054928
X168681Y054292
X168681Y051752
X167411Y053022
X162331Y051752
X161061Y053022
X155981Y051752
X154711Y053022
X155981Y054292
X154711Y057468
X155981Y058738
X154711Y060008
X148361Y060008
X149631Y058738
X148361Y057468
X142011Y057468
X143281Y058738
X142011Y060008
X135661Y060008
X136931Y058738
X135661Y057468
X124231Y054292
X122961Y057468
X122961Y060008
X124231Y058738
X129311Y060008
X130581Y058738
X129311Y057468
X130581Y054292
X136931Y054292
X136931Y051752
X135661Y053022
X130581Y051752
X129311Y053022
X124231Y051752
X122961Y053022
X109626Y054928
X105816Y054928
X102006Y054928
X098196Y054928
X094386Y054928
X090576Y054928
X072161Y054928
X072161Y057468
X073431Y056198
X075971Y057468
X077241Y056198
X075971Y054928
X082956Y051752
X081686Y053022
X082956Y054292
X086766Y054928
X086766Y057468
X088036Y056198
X090576Y057468
X091846Y056198
X094386Y057468
X095656Y056198
X098196Y057468
X099466Y056198
X102006Y057468
X103276Y056198
X105816Y057468
X107086Y056198
X109626Y057468
X110896Y056198
X113436Y054928
X114706Y056198
X113436Y057468
X113436Y060008
X112166Y061278
X109626Y060008
X108356Y061278
X105816Y060008
X104546Y061278
X102006Y060008
X100736Y061278
X098196Y060008
X096926Y061278
X094386Y060008
X093116Y061278
X090576Y060008
X089306Y061278
X086766Y060008
X085496Y061278
X081686Y061278
X082956Y060008
X081686Y058738
X075971Y060008
X074701Y061278
X072161Y060008
X070891Y061278
X045491Y057468
X051841Y057468
X053111Y054292
X058191Y057468
X063271Y061278
X064541Y060008
X068351Y060008
X067081Y061278
X068351Y062548
X064541Y062548
X058191Y065722
X059461Y064452
X058191Y063182
X051841Y063182
X053111Y064452
X051841Y065722
X045491Y065722
X046761Y064452
X045491Y063182
X039141Y063182
X040411Y064452
X039141Y065722
X032791Y065722
X034061Y064452
X032791Y063182
X026441Y063182
X027711Y064452
X026441Y065722
X013741Y065722
X013741Y063182
X015011Y064452
X020091Y065722
X021361Y064452
X020091Y063182
X020091Y057468
X021361Y054292
X027711Y054292
X026441Y057468
X032791Y057468
X034061Y054292
X039141Y057468
X040411Y054292
X040411Y051752
X039141Y053022
X034061Y051752
X032791Y053022
X027711Y051752
X026441Y053022
X021361Y051752
X020091Y053022
X015011Y051752
X013741Y053022
X015011Y054292
X013741Y057468
X013741Y060008
X015011Y058738
X020091Y060008
X021361Y058738
X026441Y060008
X027711Y058738
X032791Y060008
X034061Y058738
X039141Y060008
X040411Y058738
X045491Y060008
X046761Y058738
X051841Y060008
X053111Y058738
X058191Y060008
X059461Y058738
X064541Y057468
X065811Y056198
X068351Y057468
X069621Y056198
X068351Y054928
X064541Y054928
X059461Y054292
X059461Y051752
X058191Y053022
X053111Y051752
X051841Y053022
X046761Y054292
X045491Y053022
X046761Y051752
X047396Y032702
X035966Y032702
X024536Y032702
X018821Y032702
X013106Y032702
X011836Y031432
X014376Y031432
X017551Y031432
X020091Y031432
X023266Y031432
X025806Y031432
X030251Y032702
X028981Y031432
X031521Y031432
X034696Y031432
X037236Y031432
X041681Y032702
X040411Y031432
X042951Y031432
X046126Y031432
X048666Y031432
X051841Y031432
X053111Y032702
X054381Y031432
X062636Y028892
X061366Y030162
X062636Y031432
X066446Y031432
X065176Y030162
X066446Y028892
X070256Y028892
X068986Y030162
X070256Y031432
X074066Y031432
X072796Y030162
X074066Y028892
X077876Y028892
X076606Y030162
X077876Y031432
X081686Y031432
X080416Y030162
X081686Y028892
X085496Y028892
X084226Y030162
X085496Y031432
X089306Y031432
X088036Y030162
X089306Y028892
X096291Y018732
X092481Y018732
X088671Y018732
X084861Y018732
X081051Y018732
X077241Y018732
X075971Y020002
X077241Y021272
X079781Y020002
X081051Y021272
X083591Y020002
X084861Y021272
X087401Y020002
X088671Y021272
X091211Y020002
X092481Y021272
X095021Y020002
X096291Y021272
X103911Y021272
X102641Y020002
X100101Y021272
X098831Y020002
X100101Y018732
X103911Y018732
X107721Y018732
X106451Y020002
X107721Y021272
X111531Y021272
X110261Y020002
X111531Y018732
X115341Y018098
X114071Y019368
X115341Y020638
X119151Y020638
X117881Y019368
X119151Y018098
X122961Y018098
X121691Y019368
X122961Y020638
X126771Y020638
X125501Y019368
X126771Y018098
X130581Y018098
X129311Y019368
X130581Y020638
X134391Y020638
X133121Y019368
X134391Y018098
X147091Y010478
X145821Y011748
X147091Y013018
X147091Y016828
X145821Y018098
X147091Y019368
T03
X055651Y062548
X055651Y065088
X042951Y065088
X049301Y065088
X049301Y062548
X042951Y062548
X036601Y062548
X036601Y065088
X013741Y071438
X011201Y070168
X013741Y068898
X020091Y068898
X017551Y070168
X020091Y071438
X032791Y071438
X039141Y071438
X045491Y071438
X051841Y071438
X058191Y071438
X058191Y068898
X055651Y070168
X051841Y068898
X049301Y070168
X045491Y068898
X042951Y070168
X039141Y068898
X036601Y070168
X032791Y068898
X030251Y070168
X026441Y071438
X023901Y070168
X026441Y068898
X023901Y065088
X030251Y065088
X030251Y062548
X023901Y062548
X017551Y062548
X017551Y065088
X011201Y065088
X011201Y062548
X011201Y054928
X011201Y057468
X017551Y057468
X017551Y054928
X030251Y054928
X023901Y054928
X023901Y057468
X030251Y057468
X036601Y057468
X036601Y054928
X049301Y054928
X042951Y054928
X042951Y057468
X049301Y057468
X055651Y057468
X055651Y054928
X055651Y049848
X049301Y049848
X042951Y049848
X036601Y049848
X030251Y049848
X023901Y049848
X017551Y049848
X011201Y049848
X011201Y040322
X013106Y040322
X015011Y040322
X016916Y040322
X018821Y040322
X020726Y040322
X022631Y040322
X024536Y040322
X026441Y040322
X028346Y040322
X030251Y040322
X032156Y040322
X034061Y040322
X035966Y040322
X037871Y040322
X039776Y040322
X041681Y040322
X043586Y040322
X045491Y040322
X047396Y040322
X049301Y040322
X051206Y040322
X053111Y040322
X055016Y040322
X060096Y039052
X060096Y033972
X055016Y035242
X053111Y035242
X051206Y035242
X049301Y035242
X047396Y035242
X045491Y035242
X043586Y035242
X041681Y035242
X039776Y035242
X037871Y035242
X035966Y035242
X034061Y035242
X032156Y035242
X030251Y035242
X028346Y035242
X026441Y035242
X024536Y035242
X022631Y035242
X020726Y035242
X018821Y035242
X016916Y035242
X015011Y035242
X013106Y035242
X011201Y035242
X011836Y027622
X014376Y027622
X017551Y027622
X020091Y027622
X023266Y027622
X025806Y027622
X028981Y027622
X031521Y027622
X034696Y027622
X037236Y027622
X040411Y027622
X042951Y027622
X046126Y027622
X048666Y027622
X051841Y027622
X054381Y027622
X074701Y010478
X079781Y010478
X232181Y061278
X232181Y066358
X215036Y068262
X217576Y068262
X222656Y068262
X222656Y065722
X217576Y065722
X215036Y065722
X164871Y049848
X158521Y049848
X152171Y049848
X145821Y049848
X139471Y049848
X133121Y049848
X126771Y049848
X120421Y049848
X113436Y051752
X113436Y049848
X105816Y049848
X108356Y049848
X108356Y051752
X105816Y051752
X098196Y051752
X100736Y051752
X100736Y049848
X098196Y049848
X090576Y049848
X093116Y049848
X093116Y051752
X090576Y051752
X085496Y051752
X085496Y049848
X079146Y049848
X075971Y050482
X070891Y050482
X068351Y050482
X063271Y050482
X063271Y052388
X068351Y052388
X070891Y052388
X075971Y052388
X079146Y054928
X079146Y057468
X108356Y068262
X105816Y068262
X100736Y068262
X098196Y068262
X093116Y068262
X090576Y068262
X085496Y068262
X082956Y068898
X075971Y068262
X070891Y068262
X068351Y068262
X063271Y068262
X063271Y065722
X068351Y065722
X070891Y065722
X075971Y065722
X079146Y062548
X082956Y063818
X085496Y065722
X090576Y065722
X093116Y065722
X098196Y065722
X100736Y065722
X105816Y065722
X108356Y065722
X126771Y065088
X126771Y062548
X133121Y062548
X133121Y065088
X145821Y065088
X139471Y065088
X139471Y062548
X145821Y062548
X152171Y062548
X152171Y065088
X158521Y065088
X164871Y065088
X164871Y062548
X158521Y062548
X158521Y057468
X164871Y057468
X164871Y054928
X158521Y054928
X152171Y054928
X152171Y057468
X139471Y057468
X145821Y057468
X145821Y054928
X139471Y054928
X133121Y054928
X133121Y057468
X126771Y057468
X126771Y054928
X120421Y054928
X120421Y057468
X115976Y060008
X120421Y062548
X120421Y065088
X115976Y065088
X113436Y065722
X113436Y068262
X129311Y071438
X122961Y071438
X120421Y070168
X122961Y068898
X126771Y070168
X129311Y068898
X135661Y068898
X133121Y070168
X135661Y071438
X148361Y071438
X142011Y071438
X139471Y070168
X142011Y068898
X145821Y070168
X148361Y068898
X154711Y068898
X152171Y070168
X154711Y071438
X167411Y071438
X161061Y071438
X158521Y070168
X161061Y068898
X164871Y070168
X167411Y068898
X185191Y065722
X180111Y065722
X177571Y065722
X172491Y065722
X172491Y068262
X177571Y068262
X180111Y068262
X185191Y068262
X192176Y068898
X194716Y068262
X199796Y068262
X202336Y068262
X207416Y068262
X209956Y068262
X209956Y065722
X207416Y065722
X202336Y065722
X199796Y065722
X194716Y065722
X192176Y063818
X188366Y062548
X188366Y057468
X188366Y054928
X185191Y052388
X180111Y052388
X177571Y052388
X172491Y052388
X172491Y050482
X177571Y050482
X180111Y050482
X185191Y050482
X188366Y049848
X194716Y051752
X194716Y049848
X202336Y049848
X199796Y049848
X199796Y051752
X202336Y051752
X209956Y051752
X207416Y051752
X207416Y049848
X209956Y049848
X217576Y049848
X215036Y049848
X215036Y051752
X217576Y051752
X222656Y051752
X222656Y049848
X229006Y036512
X223926Y036512
X212496Y039052
X208686Y039052
X203606Y039052
X199796Y039052
X194716Y039052
X195351Y036512
X200431Y036512
X204241Y036512
X209321Y036512
X213131Y036512
X218211Y036512
X217576Y039052
X222656Y039052
X227736Y039052
X226466Y041592
X225196Y044132
X221386Y041592
X220116Y044132
X216941Y041592
X216306Y044132
X211226Y044132
X211861Y041592
X208051Y041592
X207416Y044132
X202336Y044132
X202971Y041592
X199161Y041592
X197891Y044132
X194081Y041592
X192811Y044132
X190271Y044132
X190271Y042228
X182651Y042228
X185191Y042228
X185191Y044132
X182651Y044132
X175031Y044132
X177571Y044132
X177571Y042228
X175031Y042228
X167411Y042228
X169951Y042228
X169951Y044132
X167411Y044132
X162331Y044132
X162331Y042228
X138201Y020002
X143281Y020002
X154711Y019368
X149631Y019368
X149631Y013018
X154711Y013018
X175031Y015558
X180111Y015558
X183921Y015558
X189001Y015558
X191541Y015558
X196621Y015558
X205511Y016192
X210591Y016192
X208686Y011112
X206146Y011112
T04
X050571Y010478
X048031Y010478
X045491Y010478
X042951Y010478
X040411Y010478
X037871Y010478
X035331Y010478
X032791Y010478
X030251Y010478
X027711Y010478
X027711Y013018
X030251Y013018
X032791Y013018
X035331Y013018
X037871Y013018
X040411Y013018
X042951Y013018
X045491Y013018
X048031Y013018
X050571Y013018
X197891Y019368
X195351Y019368
X126771Y010478
X124231Y010478
X121691Y010478
X119151Y010478
X116611Y010478
X114071Y010478
X111531Y010478
X108991Y010478
X106451Y010478
X103911Y010478
X103911Y013018
X106451Y013018
X108991Y013018
X111531Y013018
X114071Y013018
X116611Y013018
X119151Y013018
X121691Y013018
X124231Y013018
X126771Y013018
X159791Y019368
X162331Y019368
X164871Y019368
X167411Y019368
X169951Y019368
X172491Y019368
X175031Y019368
X177571Y019368
X180111Y019368
X182651Y019368
X185191Y019368
X187731Y019368
X190271Y019368
X192811Y019368
X192811Y077152
X195351Y077152
X197891Y077152
X200431Y077152
X202971Y077152
X205511Y077152
X208051Y077152
X210591Y077152
X213131Y077152
X215671Y077152
X215671Y079692
X213131Y079692
X210591Y079692
X208051Y079692
X205511Y079692
X202971Y079692
X200431Y079692
X197891Y079692
X195351Y079692
X192811Y079692
X140741Y079692
X143281Y079692
X145821Y079692
X148361Y079692
X150901Y079692
X153441Y079692
X155981Y079692
X158521Y079692
X161061Y079692
X163601Y079692
X163601Y077152
X161061Y077152
X158521Y077152
X155981Y077152
X153441Y077152
X150901Y077152
X148361Y077152
X145821Y077152
X143281Y077152
X140741Y077152
X083591Y077152
X086131Y077152
X088671Y077152
X091211Y077152
X093751Y077152
X096291Y077152
X098831Y077152
X101371Y077152
X103911Y077152
X106451Y077152
X106451Y079692
X103911Y079692
X101371Y079692
X098831Y079692
X096291Y079692
X093751Y079692
X091211Y079692
X088671Y079692
X086131Y079692
X083591Y079692
X054381Y079692
X051841Y079692
X049301Y079692
X046761Y079692
X044221Y079692
X041681Y079692
X039141Y079692
X036601Y079692
X034061Y079692
X031521Y079692
X031521Y077152
X034061Y077152
X036601Y077152
X039141Y077152
X041681Y077152
X044221Y077152
X046761Y077152
X049301Y077152
X051841Y077152
X054381Y077152
T05
X162331Y015558
T06
X225831Y010478
X217576Y010478
T07
X221488Y078956
X186995Y078956
X169418Y078956
X134925Y078956
X112268Y078956
X077775Y078956
X060198Y078956
X025705Y078956
X021895Y011214
X056388Y011214
X098095Y011214
X132588Y011214
T08
X012471Y080328
X123596Y080328
X232816Y080328
X232816Y010478
X162331Y010478
X012471Y010478
M30
