G04 Output by ViewMate Deluxe V11.0.9  PentaLogix LLC*
G04 Sun Jun 14 09:31:17 2015*
%FSLAX33Y33*%
%MOMM*%
%IPPOS*%
%ADD108C,3.7592*%
%ADD109R,1.8542X1.8542*%
%ADD110C,1.8542*%
%ADD111C,3.1496*%
%ADD112R,2.0041X2.0041*%
%ADD113C,1.5113*%
%ADD114R,1.5113X1.5113*%
%ADD115C,3.0023*%
%ADD116C,1.6256*%
%ADD117C,1.4122*%

%LPD*%
X0Y0D2*D108*G1X11748Y134302D3*X33338Y98742D3*X161608Y134302D3*X99378Y98742D3*X161608Y11748D3*X99378Y31432D3*X33338Y30162D3*X11748Y11748D3*D109*X123508Y13018D3*X121602Y47308D3*X160338Y54292D3*X161608Y80328D3*X161608Y94298D3*X161608Y105728D3*X161608Y117158D3*X102552Y133032D3*X99378Y93662D3*X94298Y93662D3*X13018Y36512D3*X42228Y45402D3*X42228Y50482D3*X13018Y94932D3*X30798Y93662D3*X35878Y93662D3*X42228Y93662D3*X42228Y98742D3*X42862Y133032D3*D110*X10478Y36512D3*X10478Y39052D3*X13018Y39052D3*X13018Y41592D3*X10478Y41592D3*X10478Y46672D3*X10478Y44132D3*X13018Y44132D3*X13018Y46672D3*X13018Y49212D3*X10478Y49212D3*X10478Y51752D3*X13018Y51752D3*X13018Y56832D3*X13018Y54292D3*X10478Y54292D3*X10478Y56832D3*X10478Y59372D3*X13018Y59372D3*X62548Y98742D3*X65088Y98742D3*X65088Y101282D3*X62548Y101282D3*X57468Y101282D3*X60008Y101282D3*X60008Y98742D3*X57468Y98742D3*X52388Y98742D3*X54928Y98742D3*X54928Y101282D3*X52388Y101282D3*X47308Y101282D3*X49848Y101282D3*X49848Y98742D3*X47308Y98742D3*X44768Y98742D3*X44768Y101282D3*X42228Y101282D3*X33338Y93662D3*X10478Y94932D3*X10478Y97472D3*X13018Y97472D3*X13018Y100012D3*X10478Y100012D3*X10478Y105092D3*X10478Y102552D3*X13018Y102552D3*X13018Y105092D3*X13018Y107632D3*X10478Y107632D3*X10478Y110172D3*X13018Y110172D3*X13018Y115252D3*X13018Y112712D3*X10478Y112712D3*X10478Y115252D3*X10478Y117792D3*X13018Y117792D3*X42862Y135572D3*X45402Y133032D3*X45402Y135572D3*X47942Y135572D3*X47942Y133032D3*X50482Y133032D3*X50482Y135572D3*X53022Y135572D3*X53022Y133032D3*X55562Y133032D3*X55562Y135572D3*X58102Y135572D3*X58102Y133032D3*X60642Y133032D3*X60642Y135572D3*X63182Y135572D3*X63182Y133032D3*X65722Y133032D3*X65722Y135572D3*X102552Y135572D3*X105092Y135572D3*X105092Y133032D3*X107632Y133032D3*X107632Y135572D3*X110172Y135572D3*X110172Y133032D3*X112712Y133032D3*X112712Y135572D3*X115252Y135572D3*X115252Y133032D3*X117792Y133032D3*X117792Y135572D3*X120332Y135572D3*X120332Y133032D3*X122872Y133032D3*X122872Y135572D3*X125412Y135572D3*X125412Y133032D3*X161608Y122238D3*X161608Y119698D3*X161608Y110808D3*X161608Y108268D3*X161608Y99378D3*X161608Y96838D3*X161608Y87948D3*X161608Y85408D3*X161608Y82868D3*X162878Y31432D3*X160338Y31432D3*X160338Y33972D3*X162878Y33972D3*X162878Y39052D3*X162878Y36512D3*X160338Y36512D3*X160338Y39052D3*X160338Y41592D3*X162878Y41592D3*X162878Y54292D3*X162878Y51752D3*X160338Y51752D3*X160338Y49212D3*X162878Y49212D3*X162878Y46672D3*X162878Y44132D3*X160338Y44132D3*X160338Y46672D3*X134302Y47308D3*X131762Y47308D3*X129222Y47308D3*X126682Y47308D3*X124142Y47308D3*X77788Y53022D3*X75248Y53022D3*X75248Y50482D3*X77788Y50482D3*X82868Y50482D3*X80328Y50482D3*X80328Y53022D3*X82868Y53022D3*X87948Y53022D3*X85408Y53022D3*X85408Y50482D3*X87948Y50482D3*X90488Y50482D3*X90488Y53022D3*X96838Y70802D3*X94298Y70802D3*X94298Y65722D3*X94298Y68262D3*X96838Y68262D3*X96838Y65722D3*X96838Y63182D3*X94298Y63182D3*X94298Y60642D3*X96838Y60642D3*X101918Y60642D3*X99378Y60642D3*X99378Y63182D3*X101918Y63182D3*X101918Y68262D3*X101918Y65722D3*X99378Y65722D3*X99378Y68262D3*X99378Y70802D3*X101918Y70802D3*X101918Y80962D3*X99378Y80962D3*X99378Y78422D3*X101918Y78422D3*X101918Y75882D3*X101918Y73342D3*X99378Y73342D3*X99378Y75882D3*X96838Y75882D3*X96838Y73342D3*X94298Y73342D3*X94298Y75882D3*X94298Y78422D3*X96838Y78422D3*X96838Y80962D3*X94298Y80962D3*X90488Y101282D3*X90488Y98742D3*X96838Y93662D3*X101918Y93662D3*X101918Y91122D3*X99378Y91122D3*X99378Y88582D3*X101918Y88582D3*X101918Y86042D3*X101918Y83502D3*X99378Y83502D3*X99378Y86042D3*X96838Y86042D3*X96838Y83502D3*X94298Y83502D3*X94298Y86042D3*X94298Y88582D3*X96838Y88582D3*X96838Y91122D3*X94298Y91122D3*X90488Y93662D3*X90488Y96202D3*X87948Y96202D3*X87948Y93662D3*X85408Y93662D3*X85408Y96202D3*X85408Y98742D3*X87948Y98742D3*X87948Y101282D3*X85408Y101282D3*X82868Y101282D3*X80328Y101282D3*X80328Y98742D3*X82868Y98742D3*X82868Y96202D3*X82868Y93662D3*X80328Y93662D3*X80328Y96202D3*X77788Y96202D3*X77788Y93662D3*X75248Y93662D3*X75248Y96202D3*X75248Y98742D3*X77788Y98742D3*X77788Y101282D3*X75248Y101282D3*X72708Y101282D3*X70168Y101282D3*X67628Y101282D3*X67628Y98742D3*X70168Y98742D3*X72708Y98742D3*X72708Y96202D3*X72708Y93662D3*X70168Y93662D3*X70168Y96202D3*X67628Y96202D3*X67628Y93662D3*X65088Y93662D3*X65088Y96202D3*X62548Y96202D3*X62548Y93662D3*X60008Y93662D3*X60008Y96202D3*X57468Y96202D3*X57468Y93662D3*X54928Y93662D3*X54928Y96202D3*X52388Y96202D3*X52388Y93662D3*X49848Y93662D3*X49848Y96202D3*X47308Y96202D3*X47308Y93662D3*X44768Y93662D3*X44768Y96202D3*X42228Y96202D3*X38418Y93662D3*X38418Y91122D3*X38418Y88582D3*X35878Y80962D3*X33338Y80962D3*X33338Y78422D3*X35878Y78422D3*X35878Y73342D3*X35878Y75882D3*X33338Y75882D3*X33338Y73342D3*X33338Y70802D3*X35878Y70802D3*X35878Y65722D3*X35878Y68262D3*X33338Y68262D3*X33338Y65722D3*X33338Y63182D3*X35878Y63182D3*X35878Y60642D3*X33338Y60642D3*X33338Y55562D3*X33338Y58102D3*X35878Y58102D3*X35878Y55562D3*X35878Y53022D3*X33338Y53022D3*X33338Y50482D3*X35878Y50482D3*X38418Y50482D3*X38418Y53022D3*X38418Y55562D3*X38418Y58102D3*X38418Y60642D3*X38418Y63182D3*X38418Y65722D3*X38418Y68262D3*X38418Y70802D3*X38418Y73342D3*X38418Y75882D3*X38418Y78422D3*X38418Y80962D3*X38418Y83502D3*X38418Y86042D3*X35878Y86042D3*X35878Y83502D3*X33338Y83502D3*X33338Y86042D3*X33338Y88582D3*X35878Y88582D3*X35878Y91122D3*X33338Y91122D3*X30798Y91122D3*X30798Y88582D3*X30798Y86042D3*X30798Y83502D3*X30798Y80962D3*X30798Y78422D3*X30798Y75882D3*X30798Y73342D3*X30798Y70802D3*X30798Y68262D3*X30798Y65722D3*X30798Y63182D3*X30798Y60642D3*X30798Y58102D3*X30798Y55562D3*X30798Y53022D3*X30798Y50482D3*X30798Y47942D3*X30798Y45402D3*X33338Y45402D3*X33338Y47942D3*X35878Y47942D3*X35878Y45402D3*X38418Y45402D3*X38418Y47942D3*X42228Y47942D3*X44768Y45402D3*X44768Y47942D3*X44768Y50482D3*X42228Y53022D3*X44768Y53022D3*X47308Y53022D3*X49848Y53022D3*X49848Y50482D3*X47308Y50482D3*X47308Y47942D3*X47308Y45402D3*X49848Y45402D3*X49848Y47942D3*X52388Y47942D3*X52388Y45402D3*X54928Y45402D3*X54928Y47942D3*X54928Y50482D3*X52388Y50482D3*X52388Y53022D3*X54928Y53022D3*X57468Y53022D3*X60008Y53022D3*X60008Y50482D3*X57468Y50482D3*X57468Y47942D3*X57468Y45402D3*X60008Y45402D3*X60008Y47942D3*X62548Y47942D3*X62548Y45402D3*X65088Y45402D3*X65088Y47942D3*X65088Y50482D3*X62548Y50482D3*X62548Y53022D3*X65088Y53022D3*X67628Y53022D3*X70168Y53022D3*X72708Y53022D3*X72708Y50482D3*X70168Y50482D3*X67628Y50482D3*X67628Y47942D3*X67628Y45402D3*X70168Y45402D3*X70168Y47942D3*X72708Y47942D3*X72708Y45402D3*X75248Y45402D3*X75248Y47942D3*X77788Y47942D3*X77788Y45402D3*X80328Y45402D3*X80328Y47942D3*X82868Y47942D3*X82868Y45402D3*X85408Y45402D3*X85408Y47942D3*X87948Y47942D3*X87948Y45402D3*X90488Y45402D3*X90488Y47942D3*X96838Y47942D3*X96838Y45402D3*X94298Y45402D3*X94298Y47942D3*X94298Y50482D3*X96838Y50482D3*X96838Y53022D3*X94298Y53022D3*X94298Y55562D3*X94298Y58102D3*X96838Y58102D3*X96838Y55562D3*X99378Y55562D3*X99378Y58102D3*X101918Y58102D3*X101918Y55562D3*X101918Y53022D3*X99378Y53022D3*X99378Y50482D3*X101918Y50482D3*X101918Y45402D3*X101918Y47942D3*X99378Y47942D3*X99378Y45402D3*X100648Y13018D3*X100648Y10478D3*X103188Y10478D3*X103188Y13018D3*X105728Y13018D3*X105728Y10478D3*X108268Y10478D3*X108268Y13018D3*X110808Y13018D3*X110808Y10478D3*X113348Y10478D3*X113348Y13018D3*X115888Y13018D3*X115888Y10478D3*X118428Y10478D3*X118428Y13018D3*X120968Y13018D3*X120968Y10478D3*X123508Y10478D3*D111*X94831Y11214D3*X129324Y11214D3*X162141Y25616D3*X162141Y60109D3*X131229Y134836D3*X96736Y134836D3*X71539Y134836D3*X37046Y134836D3*X11214Y123609D3*X11214Y89116D3*X11214Y65189D3*X11214Y30696D3*D112*X28258Y9208D3*X23178Y9208D3*X18732Y9208D3*X20002Y136208D3*X144462Y136842D3*X161608Y73978D3*X151448Y10478D3*X147002Y10478D3*X142558Y10478D3*X138112Y10478D3*X112078Y32702D3*X74612Y10478D3*X79058Y10478D3*X83502Y10478D3*X87948Y10478D3*D113*X20002Y112078D3*X25082Y112078D3*X145098Y25718D3*X142558Y25718D3*X140018Y25718D3*X137478Y25718D3*X134938Y25718D3*X132398Y25718D3*X129858Y25718D3*X127318Y25718D3*X124778Y25718D3*X122238Y25718D3*X119698Y25718D3*X117158Y25718D3*X117158Y20638D3*X119698Y20638D3*X122238Y20638D3*X124778Y20638D3*X127318Y20638D3*X129858Y20638D3*X132398Y20638D3*X134938Y20638D3*X137478Y20638D3*X140018Y20638D3*X142558Y20638D3*X145098Y20638D3*X147638Y20638D3*X150178Y20638D3*X152718Y20638D3*X155258Y20638D3*X155258Y25718D3*X152718Y25718D3*X150178Y25718D3*X147638Y25718D3*X147002Y122238D3*X147002Y119698D3*X147002Y117158D3*X140652Y108902D3*X135572Y72072D3*X135572Y74612D3*X135572Y77152D3*X135572Y79692D3*X135572Y82232D3*X135572Y84772D3*X135572Y87312D3*X135572Y89852D3*X135572Y92392D3*X135572Y94932D3*X135572Y97472D3*X135572Y100012D3*X135572Y102552D3*X135572Y105092D3*X135572Y108902D3*X114618Y116522D3*X113348Y112712D3*X110172Y115252D3*X107632Y115252D3*X105092Y115252D3*X102552Y115252D3*X100012Y115252D3*X97472Y115252D3*X94932Y115252D3*X92392Y115252D3*X89852Y115252D3*X82868Y116522D3*X79058Y115252D3*X76518Y115252D3*X73978Y115252D3*X71438Y115252D3*X68898Y115252D3*X66358Y115252D3*X63818Y115252D3*X61278Y115252D3*X58738Y115252D3*X52388Y116522D3*X47942Y115252D3*X45402Y115252D3*X42862Y115252D3*X40322Y115252D3*X37782Y115252D3*X35242Y115252D3*X32702Y115252D3*X30162Y115252D3*X27622Y115252D3*X23178Y127952D3*X18098Y127952D3*X16828Y122872D3*X21908Y122872D3*X25082Y122872D3*X27622Y122872D3*X30162Y122872D3*X32702Y122872D3*X35242Y122872D3*X37782Y122872D3*X40322Y122872D3*X42862Y122872D3*X45402Y122872D3*X47942Y122872D3*X52388Y121602D3*X56198Y122872D3*X58738Y122872D3*X61278Y122872D3*X63818Y122872D3*X66358Y122872D3*X68898Y122872D3*X71438Y122872D3*X73978Y122872D3*X76518Y122872D3*X79058Y122872D3*X82868Y121602D3*X87312Y122872D3*X89852Y122872D3*X92392Y122872D3*X94932Y122872D3*X97472Y122872D3*X100012Y122872D3*X102552Y122872D3*X105092Y122872D3*X107632Y122872D3*X110172Y122872D3*X114618Y121602D3*X118428Y122872D3*X120968Y122872D3*X123508Y122872D3*X126048Y122872D3*X128588Y122872D3*X131128Y122872D3*X133668Y122872D3*X136208Y122872D3*X138748Y122872D3*X141288Y122872D3*X148272Y128588D3*X153352Y128588D3*X154622Y124778D3*X154622Y122238D3*X154622Y119698D3*X154622Y117158D3*X154622Y114618D3*X154622Y112078D3*X154622Y109538D3*X154622Y106998D3*X154622Y104458D3*X154622Y101918D3*X147002Y101918D3*X147002Y104458D3*X147002Y106998D3*X147002Y109538D3*X147002Y112078D3*X147002Y114618D3*X141288Y115252D3*X138748Y115252D3*X136208Y115252D3*X133668Y115252D3*X131128Y115252D3*X128588Y115252D3*X126048Y115252D3*X123508Y115252D3*X120968Y115252D3*X118428Y112712D3*X120332Y102552D3*X120332Y100012D3*X120332Y97472D3*X120332Y94932D3*X120332Y92392D3*X120332Y89852D3*X120332Y87312D3*X120332Y84772D3*X120332Y82232D3*X120332Y79692D3*X120332Y77152D3*X120332Y74612D3*X120332Y72072D3*X116522Y56832D3*X119062Y56832D3*X121602Y56832D3*X124142Y56832D3*X126682Y56832D3*X129222Y56832D3*X131762Y56832D3*X134302Y56832D3*X136842Y56832D3*X152082Y62548D3*X152082Y65088D3*X152082Y67628D3*X152082Y70168D3*X152082Y72708D3*X152082Y75248D3*X152082Y77788D3*X152082Y80328D3*X152082Y82868D3*X152082Y85408D3*X149542Y89852D3*X144462Y89852D3*X141922Y90488D3*X141922Y85408D3*X144462Y82868D3*X144462Y80328D3*X144462Y77788D3*X144462Y75248D3*X144462Y72708D3*X144462Y70168D3*X144462Y67628D3*X144462Y62548D3*X144462Y65088D3*X136842Y64452D3*X134302Y64452D3*X131762Y64452D3*X129222Y64452D3*X126682Y64452D3*X124142Y64452D3*X121602Y64452D3*X119062Y64452D3*X116522Y64452D3*X113982Y64452D3*X108902Y70802D3*X108902Y65722D3*X26352Y35242D3*X39688Y23178D3*X34608Y23178D3*X28892Y20638D3*X26352Y27622D3*X11748Y23178D3*X17462Y14288D3*X14922Y18732D3*X17462Y18732D3*X16828Y23178D3*X18732Y27622D3*X21908Y23812D3*X23812Y20638D3*X21908Y18732D3*X22542Y14288D3*X26352Y16828D3*X26352Y14288D3*D114*X18732Y35242D3*X147002Y124778D3*X113982Y56832D3*X144462Y85408D3*X120332Y105092D3*X118428Y115252D3*X87312Y115252D3*X56198Y115252D3*X25082Y115252D3*D115*X44996Y16828D3*X31839Y16828D3*D116*X34912Y14135D3*X37249Y14135D3*X39586Y14135D3*X41923Y14135D3*D117*X28892Y23178D3*X30162Y24448D3*X31432Y23178D3*X0Y0D2*M02*