G04 Output by ViewMate Deluxe V11.0.9  PentaLogix LLC*
G04 Sun Jun 14 09:31:16 2015*
%FSLAX33Y33*%
%MOMM*%
%IPPOS*%
%ADD127C,0.4064*%
%ADD128C,0.1524*%
%ADD129C,0.2032*%
%ADD130C,0.127*%
%ADD131C,0.13*%
%ADD132C,0.13*%

%LPD*%
X0Y0D2*D127*G1X49019Y107836D2*X52139Y107836D1*X50579Y107836D2*X50579Y112514D1*X49019Y110955*X27191Y112514D2*X28750Y112514D1*X27970Y107836D2*X27970Y112514D1*X28750Y107836D2*X27191Y107836D1*X33426Y108615D2*X32649Y107836D1*X31090Y107836*X30310Y108615*X30310Y111735*X31090Y112514*X32649Y112514*X33426Y111735*X31869Y110175D2*X33426Y110175D1*X33426Y108615*X38105Y108615D2*X38105Y111735D1*X37325Y112514*X35766Y112514*X34986Y111735*X34986Y108615*X35766Y107836*X37325Y107836*X38105Y108615*X39665Y109395D2*X42004Y109395D1*X39665Y107836D2*X39665Y112514D1*X42004Y112514*X42784Y111735*X42784Y110175*X42004Y109395*X42784Y107836D2*X41224Y109395D1*X47460Y107056D2*X44341Y107056D1*X58738Y26352D2*X65088Y26352D1*X68898Y26352D2*X65088Y26352D1*X65088Y33972*X58738Y33972*X58738Y26352*X54928Y26352*X29528Y26352D2*X29528Y102552D1*X103188Y102552*X103188Y26352*X68898Y26352*X68898Y13018*X54928Y13018*X54928Y26352*X29528Y26352*D128*X34061Y105618D2*X33249Y105618D1*X45522Y104534D2*X45522Y105346D1*X164671Y121854D2*X165214Y122395D1*X23050Y119367D2*X23104Y119362D1*X23155Y119350*X23203Y119327*X23246Y119296*X23284Y119258*X23315Y119215*X23338Y119167*X23350Y119116*X23355Y119062*X23350Y119009*X23338Y118958*X23315Y118910*X23284Y118867*X23246Y118829*X23203Y118798*X23155Y118775*X23104Y118763*X23050Y118758*X20701Y112966D2*X24384Y112966D1*X24384Y111188D2*X20701Y111188D1*X26429Y104805D2*X26700Y104534D1*X26972Y104534*X27242Y104805*X26972Y106162D2*X27513Y106162D1*X27242Y104805D2*X27242Y106162D1*X28336Y105077D2*X28067Y104805D1*X28336Y104534*X29152Y104534*X28336Y105077D2*X29152Y105077D1*X28336Y105618D2*X28880Y105618D1*X29152Y105346*X29152Y104534*X29703Y104534D2*X29703Y105618D1*X29975Y105618*X30246Y105346*X30787Y105346D2*X30516Y105618D1*X30246Y105346*X30246Y104534*X30787Y105346D2*X30787Y104534D1*X32426Y105077D2*X31341Y105077D1*X32154Y104534D2*X31610Y104534D1*X31341Y104805*X31341Y105346*X31610Y105618*X32154Y105618*X32426Y105346*X32426Y105077*X32977Y104534D2*X33790Y104534D1*X34061Y104805*X33790Y105077*X33249Y105077*X32977Y105346*X33249Y105618*X37335Y104534D2*X36251Y106162D1*X36251Y104534*X37335Y104534D2*X37335Y106162D1*X37889Y105346D2*X38161Y105618D1*X38702Y105618*X38974Y105346*X38702Y104534D2*X38161Y104534D1*X37889Y104805*X37889Y105346*X37889Y105077D2*X38974Y105077D1*X38974Y105346*X39525Y105618D2*X39525Y104805D1*X39797Y104534*X40068Y104805*X40340Y104534*X40610Y104805*X40610Y105618*X41163Y104534D2*X41163Y105618D1*X41435Y105618*X41704Y105346*X42248Y105346D2*X41976Y105618D1*X41704Y105346*X41704Y104534*X42248Y105346D2*X42248Y104534D1*X43071Y105618D2*X43614Y105618D1*X43886Y105346*X43886Y104534*X43886Y105077D2*X43071Y105077D1*X42799Y104805*X43071Y104534*X43886Y104534*X44437Y104534D2*X44437Y105618D1*X45250Y105618*X45522Y105346*X77559Y122618D2*X78016Y122618D1*X75019Y122618D2*X75476Y122618D1*X72479Y122618D2*X72936Y122618D1*X69939Y122618D2*X70396Y122618D1*X67399Y122618D2*X67856Y122618D1*X64859Y122618D2*X65316Y122618D1*X62319Y122618D2*X62776Y122618D1*X59779Y122618D2*X60236Y122618D1*X57239Y122618D2*X57696Y122618D1*X54166Y118758D2*X54219Y118763D1*X54270Y118775*X54318Y118798*X54361Y118829*X54399Y118867*X54430Y118910*X54453Y118958*X54465Y119009*X54470Y119062*X54465Y119116*X54453Y119167*X54430Y119215*X54399Y119258*X54361Y119296*X54318Y119327*X54270Y119350*X54219Y119362*X54166Y119367*X46444Y122618D2*X46901Y122618D1*X43904Y122618D2*X44361Y122618D1*X41364Y122618D2*X41821Y122618D1*X38824Y122618D2*X39281Y122618D1*X36284Y122618D2*X36741Y122618D1*X33744Y122618D2*X34201Y122618D1*X31204Y122618D2*X31661Y122618D1*X28664Y122618D2*X29121Y122618D1*X26124Y122618D2*X26581Y122618D1*X23081Y132474D2*X22812Y132745D1*X22812Y133830*X22540Y133558D2*X23081Y133558D1*X18174Y134102D2*X18174Y132745D1*X18445Y132474*X18986Y132474*X19258Y132745*X19258Y134102*X19812Y134102D2*X20353Y134102D1*X20081Y132474D2*X20081Y134102D1*X20353Y132474D2*X19812Y132474D1*X20902Y132474D2*X20902Y133558D1*X21717Y133558*X21986Y133286*X21986Y132474*X18796Y128842D2*X22479Y128842D1*X22479Y127064D2*X18796Y127064D1*X16446Y124016D2*X22288Y124016D1*X22288Y121730D2*X16446Y121730D1*X24041Y122618D2*X23050Y122618D1*X23050Y119367*X23050Y118758*X23050Y115506*X23990Y115506*X26581Y115506D2*X26175Y115506D1*X29121Y115506D2*X28664Y115506D1*X31661Y115506D2*X31204Y115506D1*X34201Y115506D2*X33744Y115506D1*X36741Y115506D2*X36284Y115506D1*X39281Y115506D2*X38824Y115506D1*X41821Y115506D2*X41364Y115506D1*X44361Y115506D2*X43904Y115506D1*X46901Y115506D2*X46444Y115506D1*X48984Y115506D2*X49974Y115506D1*X49974Y122618*X48984Y122618*X51244Y116142D2*X51244Y121984D1*X53530Y121984D2*X53530Y116142D1*X55156Y122618D2*X54166Y122618D1*X54166Y119367*X54166Y118758*X54166Y115506*X55105Y115506*X57696Y115506D2*X57290Y115506D1*X60236Y115506D2*X59779Y115506D1*X62776Y115506D2*X62319Y115506D1*X65316Y115506D2*X64859Y115506D1*X67856Y115506D2*X67399Y115506D1*X70396Y115506D2*X69939Y115506D1*X72936Y115506D2*X72479Y115506D1*X75476Y115506D2*X75019Y115506D1*X78016Y115506D2*X77559Y115506D1*X80099Y115506D2*X81090Y115506D1*X81090Y122618*X80099Y122618*X81724Y116142D2*X81724Y121984D1*X84010Y121984D2*X84010Y116142D1*X85280Y119367D2*X85334Y119362D1*X85385Y119350*X85433Y119327*X85476Y119296*X85514Y119258*X85545Y119215*X85568Y119167*X85580Y119116*X85585Y119062*X85580Y119009*X85568Y118958*X85545Y118910*X85514Y118867*X85476Y118829*X85433Y118798*X85385Y118775*X85334Y118763*X85280Y118758*X141034Y107760D2*X135192Y107760D1*X135192Y110046D2*X141034Y110046D1*X114046Y111824D2*X117729Y111824D1*X117729Y113602D2*X114046Y113602D1*X144722Y133744D2*X143906Y134556D1*X146357Y133744D2*X145273Y133744D1*X146357Y134828*X146357Y135100*X146086Y135372*X145545Y135372*X145273Y135100*X143637Y134287D2*X144722Y135372D1*X143083Y134015D2*X142812Y133744D1*X142270Y133744*X141999Y134015*X141999Y135100*X142270Y135372*X142812Y135372*X143083Y135100*X143637Y133744D2*X143637Y135372D1*X142329Y122618D2*X143320Y122618D1*X139789Y122618D2*X140246Y122618D1*X137249Y122618D2*X137706Y122618D1*X134709Y122618D2*X135166Y122618D1*X132169Y122618D2*X132626Y122618D1*X129629Y122618D2*X130086Y122618D1*X127089Y122618D2*X127546Y122618D1*X124549Y122618D2*X125006Y122618D1*X122009Y122618D2*X122466Y122618D1*X119469Y122618D2*X119926Y122618D1*X116396Y118758D2*X116449Y118763D1*X116500Y118775*X116548Y118798*X116591Y118829*X116629Y118867*X116660Y118910*X116683Y118958*X116695Y119009*X116700Y119062*X116695Y119116*X116683Y119167*X116660Y119215*X116629Y119258*X116591Y119296*X116548Y119327*X116500Y119350*X116449Y119362*X116396Y119367*X108674Y122618D2*X109131Y122618D1*X106134Y122618D2*X106591Y122618D1*X103594Y122618D2*X104051Y122618D1*X101054Y122618D2*X101511Y122618D1*X98514Y122618D2*X98971Y122618D1*X95974Y122618D2*X96431Y122618D1*X93434Y122618D2*X93891Y122618D1*X90894Y122618D2*X91351Y122618D1*X88354Y122618D2*X88811Y122618D1*X86271Y122618D2*X85280Y122618D1*X85280Y119367*X85280Y118758*X85280Y115506*X86220Y115506*X88811Y115506D2*X88405Y115506D1*X91351Y115506D2*X90894Y115506D1*X93891Y115506D2*X93434Y115506D1*X96431Y115506D2*X95974Y115506D1*X98971Y115506D2*X98514Y115506D1*X101511Y115506D2*X101054Y115506D1*X104051Y115506D2*X103594Y115506D1*X106591Y115506D2*X106134Y115506D1*X109131Y115506D2*X108674Y115506D1*X111214Y115506D2*X112204Y115506D1*X112204Y122618*X111214Y122618*X113474Y116142D2*X113474Y121984D1*X115760Y121984D2*X115760Y116142D1*X117386Y122618D2*X116396Y122618D1*X116396Y119367*X116396Y118758*X116396Y115506*X117335Y115506*X119926Y115506D2*X119520Y115506D1*X122466Y115506D2*X122009Y115506D1*X125006Y115506D2*X124549Y115506D1*X127546Y115506D2*X127089Y115506D1*X130086Y115506D2*X129629Y115506D1*X132626Y115506D2*X132169Y115506D1*X135166Y115506D2*X134709Y115506D1*X137706Y115506D2*X137249Y115506D1*X140246Y115506D2*X139789Y115506D1*X142329Y115506D2*X143320Y115506D1*X143320Y122618*X154368Y120739D2*X154368Y121196D1*X154368Y118199D2*X154368Y118656D1*X154368Y115659D2*X154368Y116116D1*X154368Y113119D2*X154368Y113576D1*X154368Y110579D2*X154368Y111036D1*X154368Y108039D2*X154368Y108496D1*X154368Y105499D2*X154368Y105956D1*X154368Y102959D2*X154368Y103416D1*X154368Y100876D2*X154368Y99886D1*X147256Y99886*X147256Y100876*X147256Y103416D2*X147256Y102959D1*X147256Y105956D2*X147256Y105499D1*X147256Y108496D2*X147256Y108039D1*X147256Y111036D2*X147256Y110579D1*X147256Y113576D2*X147256Y113119D1*X147256Y116116D2*X147256Y115659D1*X147256Y118656D2*X147256Y118199D1*X147256Y121196D2*X147256Y120739D1*X147256Y123685D2*X147256Y123279D1*X151117Y126810D2*X151112Y126756D1*X151100Y126705*X151077Y126657*X151046Y126614*X151008Y126576*X150965Y126545*X150917Y126522*X150866Y126510*X150812Y126505*X150759Y126510*X150708Y126522*X150660Y126545*X150617Y126576*X150579Y126614*X150548Y126657*X150525Y126705*X150513Y126756*X150508Y126810*X153734Y129730D2*X147892Y129730D1*X147892Y127444D2*X153734Y127444D1*X147256Y125870D2*X147256Y126810D1*X150508Y126810*X151117Y126810*X154368Y126810*X154368Y125819*X154368Y123279D2*X154368Y123736D1*X164671Y121310D2*X164671Y122126D1*X164402Y122395*X163858Y122395*X163586Y122126*X163586Y121310*X165214Y121310*X163713Y117142D2*X165341Y117142D1*X163713Y116599D2*X163713Y117683D1*X165070Y110249D2*X165341Y110520D1*X165341Y111062*X165070Y111333*X163985Y111333D2*X163713Y111062D1*X163713Y110520*X163985Y110249*X165070Y110249*X165341Y105169D2*X165341Y105982D1*X165070Y106253*X163985Y106253*X163713Y105982*X163713Y105169*X165341Y105169*X165070Y98819D2*X165341Y99090D1*X165341Y99632*X165070Y99903*X163985Y99903D2*X163713Y99632D1*X163713Y99090*X163985Y98819*X165070Y98819*X165341Y93739D2*X165341Y94552D1*X165070Y94823*X163985Y94823*X163713Y94552*X163713Y93739*X165341Y93739*X165070Y70879D2*X165341Y71150D1*X165341Y71692*X165070Y71963*X164798Y71963*X163985Y71963D2*X163713Y71692D1*X163713Y71150*X163985Y70879*X164257Y70879*X164528Y71150*X164528Y71692*X164798Y71963*X164528Y73602D2*X164257Y73330D1*X164257Y72517*X165885Y72517*X165341Y72517D2*X165341Y73330D1*X165070Y73602*X164528Y73602*X163713Y75237D2*X165341Y75237D1*X165341Y74425*X165070Y74153*X164528Y74153*X164257Y74425*X164257Y75237*X164528Y79769D2*X164528Y80853D1*X165341Y79769D2*X164257Y79769D1*X163713Y80312*X164257Y80853*X165341Y80853*X165341Y83393D2*X165341Y82309D1*X164257Y83393*X163985Y83393*X163985Y82309D2*X163713Y82580D1*X163713Y83122*X163985Y83393*X165341Y87389D2*X163713Y87389D1*X164798Y87932D2*X165341Y88473D1*X164798Y87389D2*X164798Y88202D1*X164528Y88473*X163985Y88473*X163713Y88202*X163713Y87389*X164257Y84849D2*X163713Y85392D1*X165341Y85933D2*X165341Y84849D1*X163713Y85392D2*X165341Y85392D1*X151828Y83909D2*X151828Y84366D1*X151828Y81369D2*X151828Y81826D1*X151828Y78829D2*X151828Y79286D1*X151828Y76289D2*X151828Y76746D1*X151828Y73749D2*X151828Y74206D1*X151828Y71209D2*X151828Y71666D1*X151828Y68669D2*X151828Y69126D1*X151828Y66129D2*X151828Y66586D1*X151828Y63589D2*X151828Y64046D1*X151828Y61506D2*X151828Y60516D1*X144716Y60516*X144716Y61506*X144716Y64046D2*X144716Y63589D1*X144716Y66586D2*X144716Y66129D1*X144716Y69126D2*X144716Y68669D1*X144716Y71666D2*X144716Y71209D1*X144716Y74206D2*X144716Y73749D1*X144716Y76746D2*X144716Y76289D1*X144716Y79286D2*X144716Y78829D1*X144716Y81826D2*X144716Y81369D1*X144716Y84315D2*X144716Y83909D1*X147968Y87440D2*X147973Y87386D1*X147985Y87335*X148008Y87287*X148039Y87244*X148077Y87206*X148120Y87175*X148168Y87152*X148219Y87140*X148272Y87135*X148326Y87140*X148377Y87152*X148425Y87175*X148468Y87206*X148506Y87244*X148537Y87287*X148560Y87335*X148572Y87386*X148577Y87440*X144082Y90996D2*X149924Y90996D1*X149924Y88710D2*X144082Y88710D1*X151828Y86449D2*X151828Y87440D1*X148577Y87440*X147968Y87440*X144716Y87440*X144716Y86500*X142812Y89789D2*X142812Y86106D1*X141034Y86106D2*X141034Y89789D1*X107760Y71184D2*X107760Y65342D1*X110046Y65342D2*X110046Y71184D1*X111950Y60947D2*X112004Y60942D1*X112055Y60930*X112103Y60907*X112146Y60876*X112184Y60838*X112215Y60795*X112238Y60747*X112250Y60696*X112255Y60642*X112250Y60589*X112238Y60538*X112215Y60490*X112184Y60447*X112146Y60409*X112103Y60378*X112055Y60355*X112004Y60343*X111950Y60338*X118021Y57086D2*X117564Y57086D1*X120561Y57086D2*X120104Y57086D1*X123101Y57086D2*X122644Y57086D1*X125641Y57086D2*X125184Y57086D1*X128181Y57086D2*X127724Y57086D1*X130721Y57086D2*X130264Y57086D1*X133261Y57086D2*X132804Y57086D1*X135801Y57086D2*X135344Y57086D1*X137884Y57086D2*X138874Y57086D1*X138874Y64198*X137884Y64198*X135344Y64198D2*X135801Y64198D1*X132804Y64198D2*X133261Y64198D1*X130264Y64198D2*X130721Y64198D1*X127724Y64198D2*X128181Y64198D1*X125184Y64198D2*X125641Y64198D1*X122644Y64198D2*X123101Y64198D1*X120104Y64198D2*X120561Y64198D1*X117564Y64198D2*X118021Y64198D1*X115024Y64198D2*X115481Y64198D1*X112941Y64198D2*X111950Y64198D1*X111950Y60947*X111950Y60338*X111950Y57086*X112890Y57086*X115481Y57086D2*X115075Y57086D1*X116268Y21336D2*X116268Y25019D1*X136919Y13452D2*X137462Y13452D1*X137190Y11824D2*X137190Y13452D1*X137462Y11824D2*X136919Y11824D1*X138011Y12095D2*X138011Y13180D1*X138280Y13452*X138824Y13452*X139095Y13180*X139095Y12095D2*X138824Y11824D1*X138280Y11824*X138011Y12095*X139095Y13180*X139095Y12095*X141364Y11824D2*X141907Y11824D1*X141635Y13452D2*X141635Y11824D1*X141907Y13452D2*X141364Y13452D1*X142456Y12908D2*X142997Y13452D1*X142997Y11824*X143540Y11824D2*X142456Y11824D1*X147985Y11824D2*X146901Y11824D1*X147985Y12908*X145809Y11824D2*X146352Y11824D1*X146080Y13452D2*X146080Y11824D1*X146352Y13452D2*X145809Y13452D1*X146901Y13180D2*X147170Y13452D1*X147714Y13452*X147985Y13180*X147985Y12908*X152159Y12636D2*X151887Y12636D1*X152159Y13452D2*X151615Y13452D1*X151346Y13180*X150254Y13452D2*X150797Y13452D1*X150525Y11824D2*X150525Y13452D1*X150797Y11824D2*X150254Y11824D1*X151346Y12095D2*X151615Y11824D1*X152159Y11824*X152430Y12095*X152430Y12367*X152159Y12636*X152430Y12908*X152430Y13180*X152159Y13452*X156146Y25019D2*X156146Y21336D1*X154368Y21336D2*X154368Y25019D1*X153606Y25019D2*X153606Y21336D1*X151828Y21336D2*X151828Y25019D1*X151066Y25019D2*X151066Y21336D1*X149288Y21336D2*X149288Y25019D1*X148526Y25019D2*X148526Y21336D1*X146748Y21336D2*X146748Y25019D1*X145986Y25019D2*X145986Y21336D1*X144208Y21336D2*X144208Y25019D1*X143446Y25019D2*X143446Y21336D1*X141668Y21336D2*X141668Y25019D1*X140906Y25019D2*X140906Y21336D1*X139128Y21336D2*X139128Y25019D1*X138366Y25019D2*X138366Y21336D1*X136588Y21336D2*X136588Y25019D1*X135826Y25019D2*X135826Y21336D1*X134048Y21336D2*X134048Y25019D1*X133286Y25019D2*X133286Y21336D1*X131508Y21336D2*X131508Y25019D1*X130746Y25019D2*X130746Y21336D1*X128968Y21336D2*X128968Y25019D1*X128206Y25019D2*X128206Y21336D1*X126428Y21336D2*X126428Y25019D1*X125666Y25019D2*X125666Y21336D1*X123888Y21336D2*X123888Y25019D1*X123126Y25019D2*X123126Y21336D1*X121348Y21336D2*X121348Y25019D1*X120586Y25019D2*X120586Y21336D1*X118808Y21336D2*X118808Y25019D1*X118046Y25019D2*X118046Y21336D1*X117333Y32415D2*X117605Y32144D1*X118417Y32144*X118417Y33772*X118417Y33228D2*X117605Y33228D1*X117333Y32956*X117333Y32415*X116782Y32144D2*X116782Y32956D1*X116510Y33228*X115697Y33228*X115697Y32144*X114059Y32415D2*X114059Y33500D1*X114330Y33772*X114872Y33772*X115143Y33500*X114602Y32956D2*X115143Y32956D1*X115143Y32415*X114872Y32144*X114330Y32144*X114059Y32415*X88392Y13180D2*X88661Y13452D1*X89205Y13452*X89477Y13180*X89477Y12908*X89205Y12636*X88933Y12636D2*X89205Y12636D1*X89477Y12367*X89477Y12095*X89205Y11824*X88661Y11824*X88392Y12095*X86754Y12095D2*X87025Y11824D1*X87566Y11824*X87838Y12095*X87838Y13180*X87566Y13452*X87025Y13452*X86754Y13180*X86754Y12095*X83947Y11824D2*X85032Y11824D1*X83947Y13180D2*X84216Y13452D1*X84760Y13452*X85032Y13180*X85032Y12908*X83947Y11824*X82309Y12095D2*X82580Y11824D1*X83122Y11824*X83393Y12095*X83393Y13180*X83122Y13452*X82580Y13452*X82309Y13180*X82309Y12095*X79502Y11824D2*X80587Y11824D1*X80043Y11824D2*X80043Y13452D1*X79502Y12908*X77864Y13180D2*X78135Y13452D1*X78676Y13452*X78948Y13180*X78948Y12095*X78676Y11824*X78135Y11824*X77864Y12095*X77864Y13180*X76142Y13180D2*X75870Y13452D1*X75326Y13452*X75057Y13180*X75057Y12095D2*X75326Y11824D1*X75870Y11824*X76142Y12095*X76142Y13180*X75057Y12095*X75057Y13180*X73419Y13180D2*X73690Y13452D1*X74232Y13452*X74503Y13180*X74503Y12095*X74232Y11824*X73690Y11824*X73419Y12095*X73419Y13180*X38989Y22288D2*X35306Y22288D1*X35306Y24066D2*X38989Y24066D1*X11366Y24320D2*X17208Y24320D1*X17208Y22034D2*X11366Y22034D1*X28194Y21526D2*X24511Y21526D1*X24511Y19748D2*X28194Y19748D1*X22796Y23114D2*X22796Y19431D1*X21018Y19431D2*X21018Y23114D1*X22924Y15430D2*X17082Y15430D1*X27607Y11910D2*X27607Y10825D1*X29787Y12182D2*X28702Y12182D1*X28702Y11366*X28702Y10825D2*X28971Y10554D1*X29515Y10554*X29787Y10825*X29787Y11366*X29515Y11638*X29243Y11638*X28702Y11366*X27064Y11366D2*X28148Y11366D1*X23805Y11910D2*X24077Y12182D1*X24618Y12182*X24889Y11910*X24889Y11638*X24618Y11366*X24346Y11366D2*X24618Y11366D1*X24889Y11097*X24889Y10825*X24618Y10554*X24077Y10554*X23805Y10825*X22987Y10825D2*X22987Y10554D1*X23256Y10554*X23256Y10825*X22987Y10825*X21349Y11910D2*X21620Y12182D1*X22162Y12182*X22433Y11910*X22433Y11638*X22162Y11366*X21892Y11366D2*X22162Y11366D1*X22433Y11097*X22433Y10825*X22162Y10554*X21620Y10554*X21349Y10825*X18174Y11910D2*X18174Y10825D1*X19258Y11910D2*X19258Y10825D1*X18986Y10554*X18445Y10554*X18174Y10825*X19258Y11910*X18986Y12182*X18445Y12182*X18174Y11910*X22924Y13144D2*X17082Y13144D1*D129*X108885Y57602D2*X108570Y57917D1*X108570Y58544*X108885Y58857*X109512Y60462D2*X109197Y60775D1*X108885Y60775*X108570Y60462*X108570Y59835*X108885Y59520*X109197Y59520*X109512Y59835*X110139Y59520D2*X110452Y59835D1*X110452Y60462*X110139Y60775*X109825Y60775*X109512Y60462*X109512Y59835*X109825Y59520*X110139Y59520*X110139Y58857D2*X110452Y58544D1*X110452Y57917*X110139Y57602*X108885Y57602*X108570Y56324D2*X108570Y56952D1*X110452Y56637D2*X108570Y56637D1*X110452Y56952D2*X110452Y56324D1*X149034Y57188D2*X149662Y57188D1*X149347Y59070D2*X149347Y57188D1*X149662Y59070D2*X149034Y59070D1*X153485Y59070D2*X153485Y58755D1*X152230Y57501*X152230Y57188*X151567Y57501D2*X151254Y57188D1*X150627Y57188*X150312Y57501*X150312Y58755*X150627Y59070*X151254Y59070*X151567Y58755*X153485Y59070D2*X152230Y59070D1*X158288Y81354D2*X157897Y80962D1*X157897Y80183*X158288Y79794*X159847Y79794*X160236Y80183*X160236Y80962*X159847Y81354*X157897Y82913D2*X160236Y82913D1*X157897Y83693D2*X157897Y82133D1*X158288Y86030D2*X157897Y85641D1*X157897Y84473*X160236Y84473*X159456Y85253D2*X160236Y86030D1*X159456Y84473D2*X159456Y85641D1*X159068Y86030*X158288Y86030*X157897Y86810D2*X160236Y86810D1*X160236Y88369*X158432Y117983D2*X158432Y116423D1*X157262Y121100D2*X157262Y122659D1*X159601Y121879D2*X157262Y121879D1*X158821Y119543D2*X159601Y120320D1*X158821Y118763D2*X158821Y119931D1*X158432Y120320*X157653Y120320*X157262Y119931*X157262Y118763*X159601Y118763*X159601Y117983D2*X158041Y117983D1*X157262Y117203*X158041Y116423*X159601Y116423*X159212Y114084D2*X159601Y114473D1*X159601Y115252*X159212Y115644*X157262Y115644*X159212Y114084D2*X157262Y114084D1*X158288Y107935D2*X159847Y107935D1*X158288Y109494D2*X159847Y109494D1*X160236Y109106*X160236Y108326*X159847Y107935*X158288Y109494*X157897Y109106*X157897Y108326*X158288Y107935*X158288Y107155D2*X157897Y106766D1*X157897Y105987*X158288Y105595*X158676Y105595*X159068Y105987*X159068Y106766*X159456Y107155*X159847Y107155*X160236Y106766*X160236Y105987*X159847Y105595*X160236Y103259D2*X159847Y103259D1*X158288Y104816*X157897Y104816*X157897Y103259*X160236Y98555D2*X157897Y98555D1*X160236Y97775D2*X160236Y99334D1*X158288Y94656D2*X157897Y94656D1*X157897Y93099*X160236Y93099D2*X159847Y93099D1*X158288Y94656*X159847Y95435D2*X160236Y95827D1*X160236Y96606*X159847Y96995*X159456Y96995*X159068Y96606*X159068Y95827*X158676Y95435*X158288Y95435*X157897Y95827*X157897Y96606*X158288Y96995*X157897Y98555D2*X158676Y97775D1*X152222Y98133D2*X152537Y98133D1*X149677Y97506D2*X149992Y97193D1*X150619Y97193*X150932Y97506*X151595Y97506D2*X151910Y97193D1*X152537Y97193*X152850Y97506*X152850Y97820*X152537Y98133*X152850Y98448*X152850Y98760*X152537Y99075*X151910Y99075*X151595Y98760*X150932Y98760D2*X150619Y99075D1*X149992Y99075*X149677Y98760*X149677Y97506*X148400Y97193D2*X149027Y97193D1*X148712Y99075D2*X148712Y97193D1*X148400Y99075D2*X149027Y99075D1*X120480Y124498D2*X121735Y124498D1*X118562Y126065D2*X118877Y126380D1*X119504Y126380*X119817Y126065*X120480Y126065D2*X120795Y126380D1*X121422Y126380*X121735Y126065*X121735Y125753*X120480Y124498*X119817Y124811D2*X119504Y124498D1*X118877Y124498*X118562Y124811*X118562Y126065*X117284Y126380D2*X117912Y126380D1*X117597Y124498D2*X117597Y126380D1*X117284Y124498D2*X117912Y124498D1*X85542Y124811D2*X85857Y124498D1*X86484Y124498*X86797Y124811*X88715Y125438D2*X87460Y125438D1*X88402Y124498D2*X88402Y126380D1*X87460Y125438*X86797Y126065D2*X86484Y126380D1*X85857Y126380*X85542Y126065*X85542Y124811*X84264Y124498D2*X84892Y124498D1*X84577Y126380D2*X84577Y124498D1*X84264Y126380D2*X84892Y126380D1*X68410Y126380D2*X69665Y126380D1*X66492Y124811D2*X66807Y124498D1*X67434Y124498*X67747Y124811*X68410Y124811D2*X68725Y124498D1*X69352Y124498*X69665Y124811*X69665Y125438*X69352Y125753*X69037Y125753*X68410Y125438*X68410Y126380*X67747Y126065D2*X67434Y126380D1*X66807Y126380*X66492Y126065*X66492Y124811*X65214Y124498D2*X65842Y124498D1*X65527Y126380D2*X65527Y124498D1*X65214Y126380D2*X65842Y126380D1*X29662Y126065D2*X29977Y126380D1*X30604Y126380*X30917Y126065*X31580Y125753D2*X32207Y126380D1*X32207Y124498*X31580Y124498D2*X32835Y124498D1*X30917Y124811D2*X30604Y124498D1*X29977Y124498*X29662Y124811*X29662Y126065*X28384Y126380D2*X29012Y126380D1*X28697Y124498D2*X28697Y126380D1*X28384Y124498D2*X29012Y124498D1*D130*X15486Y37711D2*X15558Y37711D1*X15558Y37589D2*X15364Y37589D1*X15240Y37465D2*X15558Y37465D1*X15558Y37343D2*X15118Y37343D1*X14994Y37219D2*X15558Y37219D1*X15558Y37097D2*X14872Y37097D1*X14747Y36972D2*X15558Y36972D1*X15558Y36850D2*X14625Y36850D1*X14501Y36726D2*X15558Y36726D1*X15558Y36604D2*X14379Y36604D1*X14321Y36479D2*X15558Y36479D1*X15558Y36358D2*X14442Y36358D1*X14567Y36233D2*X15558Y36233D1*X15558Y36111D2*X14689Y36111D1*X14813Y35987D2*X15558Y35987D1*X15558Y35865D2*X14935Y35865D1*X15060Y35740D2*X15558Y35740D1*X15558Y35618D2*X15182Y35618D1*X15306Y35494D2*X15558Y35494D1*X15558Y35372D2*X15428Y35372D1*X15552Y35248D2*X15558Y35248D1*X15558Y35242D2*X14288Y36512D1*X15558Y37782*X15558Y35242*X32702Y21908D2*X32702Y23432D1*X32667Y23586*X32621Y23736*X32568Y23886*X32504Y24031*X32433Y24171*X32352Y24308*X32263Y24440*X32167Y24564*X32065Y24684*X31953Y24795*X31836Y24902*X31712Y25001*X31582Y25090*X31448Y25174*X31308Y25248*X31163Y25314*X31016Y25370*X30866Y25418*X30711Y25456*X30556Y25484*X30399Y25504*X30241Y25514*X30084Y25514*X29926Y25504*X29769Y25484*X29614Y25456*X29459Y25418*X29309Y25370*X29162Y25314*X29017Y25248*X28877Y25174*X28743Y25090*X28613Y25001*X28489Y24902*X28372Y24795*X28260Y24684*X28158Y24564*X28062Y24440*X27973Y24308*X27892Y24171*X27821Y24031*X27757Y23886*X27704Y23736*X27658Y23586*X27622Y23432*X27622Y21908*X32702Y21908*X30798Y18098D2*X30798Y20638D1*X46038Y20638*X46038Y18098*X46038Y15558D2*X46038Y6668D1*X30798Y6668*X30798Y15558*X28258Y14922D2*X28258Y13652D1*X27622Y14288D2*X28892Y14288D1*X23203Y15558D2*X23208Y15380D1*X23223Y15202*X23249Y15024*X23284Y14851*X23327Y14679*X23383Y14508*X23447Y14341*X23520Y14178*X23602Y14021*X23693Y13868*X23795Y13721*X23901Y13579*X24018Y13444*X24140Y13315*X24272Y13193*X24409Y13078*X24552Y12974*X24702Y12875*X24856Y12786*X25014Y12705*X25179Y12634*X25344Y12573*X25517Y12522*X25690Y12479*X25865Y12446*X26040Y12423*X26218Y12410*X26398Y12408*X26576Y12416*X26754Y12433*X26929Y12461*X27102Y12499*X27275Y12545*X27445Y12603*X27610Y12670*X27770Y12746*X27927Y12830*X28080Y12924*X28224Y13025*X28367Y13134*X28499Y13254*X28626Y13378*X28745Y13510*X28857Y13650*X28961Y13795*X29058Y13945*X29144Y14100*X29223Y14260*X29291Y14425*X29350Y14592*X29400Y14765*X29441Y14938*X29472Y15113*X29492Y15291*X29502Y15469*X29502Y15646*X29492Y15824*X29472Y16002*X29441Y16177*X29400Y16350*X29350Y16523*X29291Y16690*X29223Y16855*X29144Y17015*X29058Y17170*X28961Y17320*X28857Y17465*X28745Y17605*X28626Y17737*X28499Y17861*X28367Y17981*X28224Y18090*X28080Y18191*X27927Y18285*X27770Y18369*X27610Y18445*X27445Y18512*X27275Y18570*X27102Y18616*X26929Y18654*X26754Y18682*X26576Y18699*X26398Y18707*X26218Y18705*X26040Y18692*X25865Y18669*X25690Y18636*X25517Y18593*X25344Y18542*X25179Y18481*X25014Y18410*X24856Y18329*X24702Y18240*X24552Y18141*X24409Y18037*X24272Y17922*X24140Y17800*X24018Y17671*X23901Y17536*X23795Y17394*X23693Y17247*X23602Y17094*X23520Y16937*X23447Y16774*X23383Y16607*X23327Y16436*X23284Y16264*X23249Y16091*X23223Y15913*X23208Y15735*X23203Y15558*X13043Y18732D2*X13048Y18555D1*X13063Y18377*X13089Y18199*X13124Y18026*X13167Y17854*X13223Y17683*X13287Y17516*X13360Y17353*X13442Y17196*X13533Y17043*X13635Y16896*X13741Y16754*X13858Y16619*X13980Y16490*X14112Y16368*X14249Y16253*X14392Y16149*X14542Y16050*X14696Y15961*X14854Y15880*X15019Y15809*X15184Y15748*X15357Y15697*X15530Y15654*X15705Y15621*X15880Y15598*X16058Y15585*X16238Y15583*X16416Y15591*X16594Y15608*X16769Y15636*X16942Y15674*X17115Y15720*X17285Y15778*X17450Y15845*X17610Y15921*X17767Y16005*X17920Y16099*X18064Y16200*X18207Y16309*X18339Y16429*X18466Y16553*X18585Y16685*X18697Y16825*X18801Y16970*X18898Y17120*X18984Y17275*X19063Y17435*X19131Y17600*X19190Y17767*X19240Y17940*X19281Y18113*X19312Y18288*X19332Y18466*X19342Y18644*X19342Y18821*X19332Y18999*X19312Y19177*X19281Y19352*X19240Y19525*X19190Y19698*X19131Y19865*X19063Y20030*X18984Y20190*X18898Y20345*X18801Y20495*X18697Y20640*X18585Y20780*X18466Y20912*X18339Y21036*X18207Y21156*X18064Y21265*X17920Y21366*X17767Y21460*X17610Y21544*X17450Y21620*X17285Y21687*X17115Y21745*X16942Y21791*X16769Y21829*X16594Y21857*X16416Y21874*X16238Y21882*X16058Y21880*X15880Y21867*X15705Y21844*X15530Y21811*X15357Y21768*X15184Y21717*X15019Y21656*X14854Y21585*X14696Y21504*X14542Y21415*X14392Y21316*X14249Y21212*X14112Y21097*X13980Y20975*X13858Y20846*X13741Y20711*X13635Y20569*X13533Y20422*X13442Y20269*X13360Y20112*X13287Y19949*X13223Y19782*X13167Y19611*X13124Y19439*X13089Y19266*X13063Y19088*X13048Y18910*X13043Y18732*X16828Y20638D2*X18098Y20638D1*X17462Y21272D2*X17462Y20002D1*X16192Y27622D2*X16198Y27470D1*X16210Y27315*X16233Y27165*X16266Y27015*X16307Y26866*X16358Y26721*X16416Y26581*X16485Y26441*X16558Y26309*X16642Y26180*X16734Y26055*X16830Y25938*X16937Y25827*X17048Y25720*X17165Y25624*X17290Y25532*X17419Y25448*X17551Y25375*X17691Y25306*X17831Y25248*X17976Y25197*X18125Y25156*X18275Y25123*X18425Y25100*X18580Y25088*X18732Y25082*X26352Y25082*X26505Y25088*X26660Y25100*X26810Y25123*X26960Y25156*X27109Y25197*X27254Y25248*X27394Y25306*X27534Y25375*X27666Y25448*X27795Y25532*X27920Y25624*X28037Y25720*X28148Y25827*X28255Y25938*X28351Y26055*X28443Y26180*X28527Y26309*X28600Y26441*X28669Y26581*X28727Y26721*X28778Y26866*X28819Y27015*X28852Y27165*X28875Y27315*X28887Y27470*X28892Y27622*X28892Y35242*X28887Y35395*X28875Y35550*X28852Y35700*X28819Y35850*X28778Y35999*X28727Y36144*X28669Y36284*X28600Y36424*X28527Y36556*X28443Y36685*X28351Y36810*X28255Y36927*X28148Y37038*X28037Y37145*X27920Y37241*X27795Y37333*X27666Y37417*X27534Y37490*X27394Y37559*X27254Y37617*X27109Y37668*X26960Y37709*X26810Y37742*X26660Y37765*X26505Y37777*X26352Y37782*X16192Y37782*X16192Y27622*X6668Y25718D2*X14288Y25718D1*X14288Y70168*X6668Y70168*X29528Y94932D2*X29528Y44132D1*X34608Y44132*X34608Y94932*X34608Y44132*X39688Y44132*X39688Y94932*X34608Y94932*X29528Y94932*X15558Y96103D2*X15458Y96103D1*X15337Y95982D2*X15558Y95982D1*X15558Y95857D2*X15212Y95857D1*X15090Y95735D2*X15558Y95735D1*X15558Y95611D2*X14966Y95611D1*X14844Y95489D2*X15558Y95489D1*X15558Y95364D2*X14719Y95364D1*X14597Y95242D2*X15558Y95242D1*X15558Y95118D2*X14473Y95118D1*X14351Y94996D2*X15558Y94996D1*X15558Y94872D2*X14348Y94872D1*X14470Y94750D2*X15558Y94750D1*X15558Y94625D2*X14595Y94625D1*X14717Y94503D2*X15558Y94503D1*X15558Y94379D2*X14841Y94379D1*X14963Y94257D2*X15558Y94257D1*X15558Y94132D2*X15088Y94132D1*X15210Y94010D2*X15558Y94010D1*X15558Y93886D2*X15334Y93886D1*X15558Y93764D2*X15456Y93764D1*X15558Y93662D2*X14288Y94932D1*X15558Y96202*X15558Y93662*X6668Y84138D2*X14288Y84138D1*X14288Y128588*X6668Y128588*X42918Y131707D2*X42807Y131707D1*X42682Y131582D2*X43043Y131582D1*X43165Y131460D2*X42560Y131460D1*X42436Y131336D2*X43289Y131336D1*X43411Y131214D2*X42314Y131214D1*X42189Y131089D2*X43536Y131089D1*X43658Y130967D2*X42067Y130967D1*X41943Y130843D2*X43782Y130843D1*X43904Y130721D2*X41821Y130721D1*X41697Y130597D2*X44028Y130597D1*X41592Y130492D2*X42862Y131762D1*X44132Y130492*X41592Y130492*X32068Y139382D2*X32068Y131762D1*X76518Y131762*X76518Y139382*X157798Y55451D2*X157909Y55451D1*X158031Y55329D2*X157798Y55329D1*X157798Y55204D2*X158156Y55204D1*X158278Y55082D2*X157798Y55082D1*X157798Y54958D2*X158402Y54958D1*X158524Y54836D2*X157798Y54836D1*X157798Y54712D2*X158648Y54712D1*X158770Y54590D2*X157798Y54590D1*X157798Y54465D2*X158895Y54465D1*X159017Y54343D2*X157798Y54343D1*X157798Y54219D2*X158994Y54219D1*X158872Y54097D2*X157798Y54097D1*X157798Y53972D2*X158747Y53972D1*X158626Y53851D2*X157798Y53851D1*X157798Y53726D2*X158501Y53726D1*X158379Y53604D2*X157798Y53604D1*X157798Y53480D2*X158255Y53480D1*X158133Y53358D2*X157798Y53358D1*X157798Y53233D2*X158008Y53233D1*X157798Y53111D2*X157886Y53111D1*X157798Y53022D2*X157798Y55562D1*X159068Y54292*X157798Y53022*X123490Y14305D2*X123525Y14305D1*X123650Y14430D2*X123365Y14430D1*X123243Y14552D2*X123772Y14552D1*X123896Y14676D2*X123119Y14676D1*X122997Y14798D2*X124018Y14798D1*X124142Y14922D2*X122872Y14922D1*X122751Y15044D2*X124264Y15044D1*X124389Y15169D2*X122626Y15169D1*X122504Y15291D2*X124511Y15291D1*X124635Y15415D2*X122380Y15415D1*X122258Y15537D2*X124757Y15537D1*X122238Y15558D2*X124778Y15558D1*X123508Y14288*X122238Y15558*X89852Y6668D2*X89852Y14288D1*X134302Y14288*X134302Y6668*X166688Y20638D2*X159068Y20638D1*X159068Y65088*X166688Y65088*X162794Y77871D2*X160421Y77871D1*X160546Y77996D2*X162669Y77996D1*X162547Y78118D2*X160668Y78118D1*X160792Y78242D2*X162423Y78242D1*X162301Y78364D2*X160914Y78364D1*X161039Y78489D2*X162176Y78489D1*X162055Y78610D2*X161160Y78610D1*X161285Y78735D2*X161930Y78735D1*X161808Y78857D2*X161407Y78857D1*X161531Y78981D2*X161684Y78981D1*X161608Y79058D2*X160338Y77788D1*X162878Y77788*X161608Y79058*X162878Y81598D2*X162878Y89218D1*X160338Y81598D2*X160338Y79058D1*X162878Y79058*X162878Y81598*X160338Y81598*X160338Y89218*X162878Y89218*X160373Y91793D2*X162842Y91793D1*X162720Y91915D2*X160495Y91915D1*X160619Y92039D2*X162596Y92039D1*X162474Y92161D2*X160741Y92161D1*X160866Y92286D2*X162349Y92286D1*X162227Y92408D2*X160988Y92408D1*X161112Y92532D2*X162103Y92532D1*X161981Y92654D2*X161234Y92654D1*X161359Y92779D2*X161856Y92779D1*X161734Y92900D2*X161480Y92900D1*X161605Y93025D2*X161610Y93025D1*X161608Y93028D2*X160338Y91758D1*X162878Y91758*X161608Y93028*X162878Y95568D2*X162878Y93028D1*X160338Y93028*X160338Y95568*X160338Y100648D2*X160338Y95568D1*X162878Y95568*X162878Y100648*X160338Y100648*X162817Y103248D2*X160398Y103248D1*X160523Y103373D2*X162692Y103373D1*X162570Y103495D2*X160645Y103495D1*X160769Y103619D2*X162446Y103619D1*X162324Y103741D2*X160891Y103741D1*X161016Y103866D2*X162199Y103866D1*X162077Y103988D2*X161138Y103988D1*X161262Y104112D2*X161953Y104112D1*X161831Y104234D2*X161384Y104234D1*X161508Y104358D2*X161707Y104358D1*X161608Y104458D2*X160338Y103188D1*X162878Y103188*X161608Y104458*X162878Y106998D2*X162878Y104458D1*X160338Y104458*X160338Y106998*X160338Y112078D2*X160338Y106998D1*X162878Y106998*X162878Y112078*X160338Y112078*X162789Y114706D2*X160426Y114706D1*X160548Y114828D2*X162667Y114828D1*X162542Y114953D2*X160673Y114953D1*X160795Y115075D2*X162420Y115075D1*X162296Y115199D2*X160919Y115199D1*X161041Y115321D2*X162174Y115321D1*X162049Y115446D2*X161166Y115446D1*X161287Y115567D2*X161928Y115567D1*X161803Y115692D2*X161412Y115692D1*X161534Y115814D2*X161681Y115814D1*X161608Y115888D2*X160338Y114618D1*X162878Y114618*X161608Y115888*X160338Y123508D2*X162878Y123508D1*X162878Y118428*X160338Y118428D2*X160338Y115888D1*X162878Y115888*X162878Y118428*X160338Y118428*X160338Y123508*X136208Y139382D2*X136208Y131762D1*X91758Y131762*X91758Y139382*X102497Y131707D2*X102608Y131707D1*X102733Y131582D2*X102372Y131582D1*X102250Y131460D2*X102855Y131460D1*X102979Y131336D2*X102126Y131336D1*X102004Y131214D2*X103101Y131214D1*X103226Y131089D2*X101879Y131089D1*X101757Y130967D2*X103348Y130967D1*X103472Y130843D2*X101633Y130843D1*X101511Y130721D2*X103594Y130721D1*X103718Y130597D2*X101387Y130597D1*X103822Y130492D2*X102552Y131762D1*X101282Y130492*X103822Y130492*X126682Y106362D2*X129222Y106362D1*X91758Y97472D2*X40958Y97472D1*X40958Y102552*X91758Y102552*X91758Y97472*X91758Y92392D2*X40958Y92392D1*X40958Y97472*X91758Y97472*X91758Y92392*X119062Y70802D2*X136842Y70802D1*X136842Y106362*X129222Y106362*X127952Y105092*X126682Y106362*X119062Y106362*X119062Y70802*X91758Y44132D2*X40958Y44132D1*X40958Y49212*X91758Y49212*X40958Y49212*X40958Y54292*X91758Y54292*X91758Y49212*X91758Y44132*X103188Y44132D2*X103188Y94932D1*X98108Y94932*X98108Y44132*X98108Y94932*X93028Y94932*X93028Y44132*X98108Y44132*X103188Y44132*X122872Y48578D2*X120332Y48578D1*X120332Y46038*X122872Y46038D2*X135572Y46038D1*X135572Y48578*X122872Y48578*X122872Y46038*X120332Y46038*X119113Y46088D2*X119062Y46088D1*X119062Y46213D2*X119238Y46213D1*X119360Y46335D2*X119062Y46335D1*X119062Y46459D2*X119484Y46459D1*X119606Y46581D2*X119062Y46581D1*X119062Y46706D2*X119731Y46706D1*X119852Y46827D2*X119062Y46827D1*X119062Y46952D2*X119977Y46952D1*X120099Y47074D2*X119062Y47074D1*X119062Y47198D2*X120223Y47198D1*X120320Y47320D2*X119062Y47320D1*X119062Y47445D2*X120195Y47445D1*X120073Y47567D2*X119062Y47567D1*X119062Y47691D2*X119949Y47691D1*X119827Y47813D2*X119062Y47813D1*X119062Y47937D2*X119703Y47937D1*X119581Y48059D2*X119062Y48059D1*X119062Y48184D2*X119456Y48184D1*X119334Y48306D2*X119062Y48306D1*X119062Y48430D2*X119210Y48430D1*X119062Y48552D2*X119088Y48552D1*X119062Y48578D2*X119062Y46038D1*X120332Y47308*X119062Y48578*D131*X44932Y103646D2*X44932Y104231D1*X45712Y104231*X44541Y104231D2*X44152Y104231D1*X43372Y102867D2*X42593Y102867D1*X41422Y104231D2*X41422Y103062D1*X42201Y103062*X43761Y103258D2*X43957Y103062D1*X44152Y103062*X44345Y103258*X45516Y103062D2*X45712Y103258D1*X45712Y103646*X45516Y103842*X45321Y103842*X44932Y103646*X44932Y103258D2*X45125Y103062D1*X45516Y103062*X44345Y104231D2*X44345Y103258D1*X130543Y15169D2*X130739Y14973D1*X130932Y14973*X131128Y15169*X131712Y15753D2*X132103Y16142D1*X130932Y16142D2*X131323Y16142D1*X131128Y15169D2*X131128Y16142D1*X132491Y14973D2*X131712Y14973D1*X132103Y16142D2*X132103Y14973D1*X132883Y15753D2*X133271Y16142D1*X132883Y14973D2*X133662Y14973D1*X133271Y16142D2*X133271Y14973D1*X159365Y124092D2*X158974Y123899D1*X158585Y123508*X158585Y123119*X158778Y122923*X159169Y122923*X159365Y123119*X159365Y123312*X159169Y123508*X158585Y123508*X157805Y124092D2*X158194Y124092D1*X157998Y124092D2*X157998Y123119D1*X157805Y122923*X157610Y122923*X157414Y123119*X150020Y128956D2*X150020Y128346D1*X151892Y128194D2*X151892Y128803D1*X152502Y128194D2*X152502Y128651D1*X152349Y128803*X151892Y128803*X151567Y128956D2*X151414Y129108D1*X151110Y129108*X150957Y128956*X150957Y128346D2*X151110Y128194D1*X151414Y128194*X151567Y128346*X151567Y128956*X150957Y128346*X150957Y128956*X150632Y128956D2*X150632Y128346D1*X150477Y128194*X150172Y128194*X150020Y128346*X150632Y128956*X150477Y129108*X150172Y129108*X150020Y128956*X149085Y128803D2*X149390Y129108D1*X149390Y128194*X149085Y128194D2*X149695Y128194D1*X105042Y93411D2*X104846Y93411D1*X104066Y94191*X103873Y94191*X103873Y93411*X103873Y89903D2*X105042Y89903D1*X105042Y90683*X105237Y91851D2*X105237Y91072D1*X104846Y92243D2*X105042Y92438D1*X105042Y92631*X104846Y92827*X103873Y92827*X103873Y92631D2*X103873Y93022D1*X91366Y91506D2*X91173Y91702D1*X91173Y92090*X91366Y92286*X91562Y92286*X91758Y92090*X91758Y91702D2*X91953Y91506D1*X92146Y91506*X92342Y91702*X92342Y92090*X92146Y92286*X91953Y92286*X91758Y92090*X91758Y91702*X91562Y91506*X91366Y91506*X91173Y90726D2*X91173Y91117D1*X91173Y90922D2*X92146Y90922D1*X92342Y90726*X92342Y90533*X92146Y90338*X92537Y89167D2*X92537Y89946D1*X92342Y88778D2*X92342Y87998D1*X91173Y87998*X109144Y67470D2*X108534Y67470D1*X108534Y68407D2*X109144Y68407D1*X109296Y69342D2*X108687Y69342D1*X109296Y69952D2*X108839Y69952D1*X108687Y69799*X108687Y69342*X108534Y69017D2*X109144Y69017D1*X109296Y68864*X109296Y68560*X109144Y68407*X108534Y69017*X108382Y68864*X108382Y68560*X108534Y68407*X108534Y68082D2*X109144Y68082D1*X109296Y67927*X109296Y67622*X109144Y67470*X108534Y68082*X108382Y67927*X108382Y67622*X108534Y67470*X108687Y66535D2*X108382Y66840D1*X109296Y66840*X109296Y66535D2*X109296Y67145D1*X123502Y44818D2*X122723Y44818D1*X123502Y45794D2*X123502Y45598D1*X122723Y44818*X122331Y44818D2*X121552Y44818D1*X122331Y45794D2*X122331Y45598D1*X121552Y44818*X120383Y45014D2*X120579Y44818D1*X120772Y44818*X120968Y45014*X120968Y45987*X121163Y45987D2*X120772Y45987D1*X121552Y45794D2*X121747Y45987D1*X122138Y45987*X122331Y45794*X122723Y45794D2*X122918Y45987D1*X123307Y45987*X123502Y45794*X158186Y61529D2*X158382Y61725D1*X158382Y61920*X158186Y62113*X157213Y61920D2*X157213Y62309D1*X158186Y62113D2*X157213Y62113D1*X158186Y62700D2*X158382Y62893D1*X158382Y63284*X158186Y63480*X157406Y63480*X157798Y63480D2*X157798Y62893D1*X157602Y62700*X157406Y62700*X157213Y62893*X157213Y63284*X157406Y63480*X145275Y90068D2*X145580Y90373D1*X145580Y89459*X145885Y89459D2*X145275Y89459D1*X146210Y89611D2*X146210Y90221D1*X146362Y90373*X146667Y90373*X146822Y90221*X146822Y89611D2*X146822Y90221D1*X146210Y89611*X146362Y89459*X146667Y89459*X146822Y89611*X147147Y89611D2*X147147Y90221D1*X147300Y90373*X147604Y90373*X147757Y90221*X147757Y89611D2*X147757Y90221D1*X147147Y89611*X147300Y89459*X147604Y89459*X147757Y89611*X148082Y89459D2*X148082Y90068D1*X148539Y90068*X148692Y89916*X148692Y89459*X158730Y88633D2*X157950Y88633D1*X158534Y89802D2*X158730Y89609D1*X158730Y89413*X157950Y88633*X156779Y88829D2*X156975Y88633D1*X157170Y88633*X157363Y88829*X157363Y89802*X157559Y89802D2*X157170Y89802D1*X157950Y89609D2*X158143Y89802D1*X158534Y89802*X159796Y101232D2*X159017Y101232D1*X159017Y100648*X159408Y100843*X159603Y100843*X159796Y100648*X159796Y100259*X159603Y100063*X159212Y100063*X159017Y100259*X157848Y100259D2*X158044Y100063D1*X158237Y100063*X158432Y100259*X158432Y101232*X158628Y101232D2*X158237Y101232D1*X159365Y112078D2*X158585Y112078D1*X159169Y111493D2*X159169Y112662D1*X158585Y112078*X157805Y112662D2*X158194Y112662D1*X157998Y112662D2*X157998Y111689D1*X157805Y111493*X157610Y111493*X157414Y111689*X137320Y108661D2*X137320Y109271D1*X138257Y109271D2*X138257Y108661D1*X139192Y108509D2*X139192Y109118D1*X139802Y108509D2*X139802Y108966D1*X139649Y109118*X139192Y109118*X138867Y109271D2*X138867Y108661D1*X138714Y108509*X138410Y108509*X138257Y108661*X138867Y109271*X138714Y109423*X138410Y109423*X138257Y109271*X137932Y109271D2*X137932Y108661D1*X137777Y108509*X137472Y108509*X137320Y108661*X137932Y109271*X137777Y109423*X137472Y109423*X137320Y109271*X136385Y109118D2*X136690Y109423D1*X136690Y108509*X136385Y108509D2*X136995Y108509D1*X121163Y106609D2*X121163Y107389D1*X121359Y107582*X121747Y107582*X121943Y107389*X123111Y107582D2*X122723Y107389D1*X122331Y106998*X122331Y106609D2*X122331Y106998D1*X122918Y106998*X123111Y106802*X123111Y106609*X122918Y106413*X122527Y106413*X122331Y106609*X121943Y106609D2*X121747Y106413D1*X121359Y106413*X121163Y106609*X120772Y106413D2*X120383Y106413D1*X120579Y107582D2*X120579Y106413D1*X120383Y107582D2*X120772Y107582D1*X114402Y117335D2*X114097Y117640D1*X115011Y117640*X115011Y117945D2*X115011Y117335D1*X114859Y118270D2*X114249Y118270D1*X114097Y118422*X114097Y118727*X114249Y118882*X114859Y118882D2*X114249Y118882D1*X114859Y118270*X115011Y118422*X115011Y118727*X114859Y118882*X114859Y119207D2*X114249Y119207D1*X114097Y119360*X114097Y119664*X114249Y119817*X114859Y119817*X115011Y119664*X115011Y119360*X114859Y119207*X114249Y119817*X114402Y120599D2*X114402Y120142D1*X115011Y120142*X115011Y120752D2*X114554Y120752D1*X114402Y120599*X95026Y129908D2*X94247Y129908D1*X94638Y129908D2*X94638Y131077D1*X94247Y130688*X93467Y131077D2*X93858Y131077D1*X93662Y131077D2*X93662Y130104D1*X93467Y129908*X93274Y129908*X93078Y130104*X83261Y120142D2*X82652Y120142D1*X83261Y120752D2*X82804Y120752D1*X82652Y120599*X82652Y120142*X82652Y117335D2*X82347Y117640D1*X83261Y117640*X83261Y117945D2*X83261Y117335D1*X83109Y118270D2*X82499Y118270D1*X82347Y118422*X82347Y118727*X82499Y118882*X83109Y118882D2*X82499Y118882D1*X83109Y118270*X83261Y118422*X83261Y118727*X83109Y118882*X83109Y119207D2*X82499Y119207D1*X82347Y119360*X82347Y119664*X82499Y119817D2*X83109Y119817D1*X83261Y119664*X83261Y119360*X83109Y119207*X82499Y119817*X82347Y119664*X17640Y123088D2*X17945Y123393D1*X17945Y122479*X18250Y122479D2*X17640Y122479D1*X18575Y122631D2*X18575Y123241D1*X18727Y123393*X19032Y123393*X19187Y123241*X19187Y122631D2*X19187Y123241D1*X18575Y122631*X18727Y122479*X19032Y122479*X19187Y122631*X19512Y122631D2*X19512Y123241D1*X19665Y123393*X19969Y123393*X20122Y123241*X20122Y122631D2*X20122Y123241D1*X19512Y122631*X19665Y122479*X19969Y122479*X20122Y122631*X20447Y122479D2*X20447Y123088D1*X20904Y123088*X21057Y122936*X21057Y122479*X35336Y130884D2*X35336Y131077D1*X34557Y131077*X33777Y131077D2*X34168Y131077D1*X33972Y130104D2*X33972Y131077D1*X33388Y130104D2*X33584Y129908D1*X33777Y129908*X33972Y130104*X34557Y129908D2*X34557Y130104D1*X35336Y130884*X51867Y117640D2*X52172Y117335D1*X52019Y119207D2*X52629Y119207D1*X52781Y120142D2*X52172Y120142D1*X52781Y120752D2*X52324Y120752D1*X52172Y120599*X52172Y120142*X52019Y119817D2*X52629Y119817D1*X52781Y119664*X52781Y119360*X52629Y119207*X52019Y119817*X51867Y119664*X51867Y119360*X52019Y119207*X52019Y118882D2*X51867Y118727D1*X51867Y118422*X52019Y118270*X52629Y118270*X52781Y118422*X52781Y118727*X52629Y118882*X52019Y118882*X52629Y118270*X52781Y117335D2*X52781Y117945D1*X51867Y117640D2*X52781Y117640D1*X15946Y85458D2*X16142Y85654D1*X16142Y85847*X15946Y86042*X15362Y86627D2*X14973Y87018D1*X14973Y85847D2*X14973Y86238D1*X15946Y86042D2*X14973Y86042D1*X16142Y87406D2*X16142Y86627D1*X14973Y87018D2*X16142Y87018D1*X15166Y87798D2*X14973Y87993D1*X14973Y88382*X15166Y88577*X15362Y88577*X16142Y87798*X16142Y88577*X27673Y89903D2*X28842Y89903D1*X28842Y90683*X29037Y91851D2*X29037Y91072D1*X28646Y92243D2*X28842Y92438D1*X28842Y92631*X28646Y92827*X27673Y92827*X27673Y93022D2*X27673Y92631D1*X27866Y93411D2*X27673Y93607D1*X27673Y93995*X27866Y94191*X28062Y94191*X28258Y93995*X28842Y93995D2*X28646Y94191D1*X28453Y94191*X28258Y93995*X28258Y93802*X28646Y93411D2*X28842Y93607D1*X28842Y93995*X48679Y91758D2*X48875Y91562D1*X48875Y91369*X48679Y91173*X48288Y91173*X48095Y91369*X48095Y91758*X48679Y91758*X48875Y92342D2*X48484Y92149D1*X48095Y91758*X47315Y92342D2*X47704Y92342D1*X47508Y92342D2*X47508Y91369D1*X47315Y91173*X47120Y91173*X46924Y91369*X45756Y90978D2*X46535Y90978D1*X45364Y91173D2*X44585Y91173D1*X44585Y92342*X40322Y90381D2*X40322Y89601D1*X40907Y90185D2*X39738Y90185D1*X40322Y89601*X39738Y88821D2*X39738Y89212D1*X39738Y89017D2*X40711Y89017D1*X40907Y88821*X40907Y88628*X40711Y88433*X41102Y87262D2*X41102Y88041D1*X40907Y86873D2*X40907Y86093D1*X39738Y86093*X46970Y55954D2*X46774Y56147D1*X46383Y56147*X46190Y55954*X46190Y55174D2*X46383Y54978D1*X46774Y54978*X46970Y55174*X46970Y55954*X46190Y55174*X46190Y55954*X41511Y56147D2*X41511Y54978D1*X42291Y54978*X43459Y54783D2*X42680Y54783D1*X43851Y55174D2*X44046Y54978D1*X44239Y54978*X44435Y55174*X44435Y56147*X44630Y56147D2*X44239Y56147D1*X45019Y55758D2*X45410Y56147D1*X45410Y54978*X45799Y54978D2*X45019Y54978D1*X45700Y43109D2*X45504Y42913D1*X45113Y42913*X44920Y43109*X44920Y43889D2*X45113Y44082D1*X45504Y44082*X45700Y43889*X45700Y43109*X45700Y43498D2*X45113Y43498D1*X44920Y43693*X44920Y43889*X44140Y44082D2*X44529Y44082D1*X44333Y44082D2*X44333Y43109D1*X44140Y42913*X43945Y42913*X43749Y43109*X41410Y44082D2*X41410Y42913D1*X42189Y42913*X43360Y42718D2*X42581Y42718D1*X44920Y21272D2*X45504Y21857D1*X45504Y20688*X44920Y21272D2*X45700Y21272D1*X42776Y20688D2*X42581Y20884D1*X44529Y20688D2*X43749Y20688D1*X44140Y20688D2*X44140Y21857D1*X43749Y21468*X42969Y21857D2*X43360Y21857D1*X43165Y21857D2*X43165Y20884D1*X42969Y20688*X42776Y20688*X40620Y7988D2*X40424Y8184D1*X40424Y8964*X40229Y8768D2*X40620Y8768D1*X39060Y8768D2*X39644Y8768D1*X39840Y8572*X39840Y7988*X39060Y8768D2*X39060Y7988D1*X36525Y9157D2*X36330Y8964D1*X36330Y7988*X36916Y8768D2*X36916Y7988D1*X37889Y8572D2*X37889Y8184D1*X38085Y7988*X38473Y7988*X38669Y8184*X38669Y8572*X38473Y8768*X38085Y8768*X37889Y8572*X37501Y8768D2*X37305Y8768D1*X36916Y8377*X36137Y8572D2*X36525Y8572D1*X18580Y14808D2*X18275Y14503D1*X20147Y14656D2*X20147Y14046D1*X21082Y13894D2*X21082Y14503D1*X21692Y13894D2*X21692Y14351D1*X21539Y14503*X21082Y14503*X20757Y14656D2*X20757Y14046D1*X20604Y13894*X20300Y13894*X20147Y14046*X20757Y14656*X20604Y14808*X20300Y14808*X20147Y14656*X19822Y14656D2*X19667Y14808D1*X19362Y14808*X19210Y14656*X19210Y14046*X19362Y13894*X19667Y13894*X19822Y14046*X19822Y14656*X19210Y14046*X18275Y13894D2*X18885Y13894D1*X18580Y14808D2*X18580Y13894D1*X15367Y23393D2*X15824Y23393D1*X15977Y23241*X15977Y22784*X15367Y23393D2*X15367Y22784D1*X12560Y23393D2*X12865Y23698D1*X12865Y22784*X13170Y22784D2*X12560Y22784D1*X13495Y22936D2*X13495Y23546D1*X13647Y23698*X13952Y23698*X14107Y23546*X14107Y22936D2*X14107Y23546D1*X13495Y22936*X13647Y22784*X13952Y22784*X14107Y22936*X14432Y22936D2*X14432Y23546D1*X14585Y23698*X14889Y23698*X15042Y23546D2*X15042Y22936D1*X14889Y22784*X14585Y22784*X14432Y22936*X15042Y23546*X14889Y23698*X15946Y27038D2*X16142Y27234D1*X16142Y27427*X15946Y27622*X14973Y27622*X14973Y27818D2*X14973Y27427D1*X15166Y28207D2*X14973Y28402D1*X14973Y28793*X15166Y28986*X15362Y28986*X15558Y28793*X15946Y28986D2*X15753Y28986D1*X15558Y28793*X15558Y28598*X15946Y28207D2*X16142Y28402D1*X16142Y28793*X15946Y28986*X23663Y38809D2*X23858Y39002D1*X24247Y39002*X24442Y38809*X24831Y38613D2*X25222Y39002D1*X25222Y37833*X24831Y37833D2*X25611Y37833D1*X24442Y38029D2*X24247Y37833D1*X23858Y37833*X23663Y38029*X23663Y38809*X23271Y38809D2*X23078Y39002D1*X22687Y39002*X22492Y38809*X22492Y38613*X22687Y38418*X23078Y38418*X23271Y38222*X23271Y38029*X23078Y37833*X22687Y37833*X22492Y38029*X21323Y38029D2*X21323Y38809D1*X21519Y39002*X21908Y39002*X22103Y38809*X22103Y38029*X21908Y37833*X21519Y37833*X21323Y38029*D132*X23985Y112298D2*X23515Y111984D1*X22441Y21938D2*X22128Y21468D1*X21814Y21938*X21814Y19596D2*X21501Y19909D1*X22441Y19909*X22441Y20223D2*X22441Y19596D1*X22283Y20531D2*X21656Y20531D1*X21501Y20688*X21501Y21001*X21656Y21158*X22441Y21468D2*X21501Y21468D1*X22441Y21001D2*X22283Y21158D1*X21656Y21158*X22283Y20531*X22441Y20688*X22441Y21001*X25453Y20858D2*X25768Y21171D1*X25768Y20231*X26081Y20231D2*X25453Y20231D1*X26391Y20389D2*X26391Y21016D1*X26546Y21171*X26860Y21171*X27018Y21016*X27018Y20389*X26860Y20231*X26546Y20231*X26391Y20389*X27018Y21016*X27325Y20231D2*X27325Y21171D1*X27795Y20231D2*X27325Y20544D1*X27795Y20858*X35784Y23584D2*X35471Y23271D1*X36876Y22644D2*X36406Y22957D1*X36876Y23271*X36406Y22644D2*X36406Y23584D1*X35471Y22644D2*X36098Y22644D1*X35784Y23584D2*X35784Y22644D1*X19738Y128173D2*X20053Y128486D1*X20053Y127546*X20366Y127546D2*X19738Y127546D1*X20676Y127704D2*X20676Y128331D1*X20831Y128486*X21146Y128486*X21303Y128331*X21303Y127704D2*X21303Y128331D1*X20676Y127704*X20831Y127546*X21146Y127546*X21303Y127704*X21610Y128486D2*X21610Y127546D1*X22080Y128173D2*X21610Y127859D1*X22080Y127546*X23515Y111984D2*X23985Y111671D1*X23515Y112611D2*X23515Y111671D1*X21643Y112298D2*X21958Y112611D1*X21958Y111671*X22271Y111671D2*X21643Y111671D1*X22581Y111829D2*X22581Y112456D1*X22736Y112611*X23050Y112611*X23208Y112456D2*X23208Y111829D1*X23050Y111671*X22736Y111671*X22581Y111829*X23208Y112456*X23050Y112611*X23983Y115504D2*X23185Y114706D1*X23584Y114706D2*X23584Y115504D1*X23185Y115504D2*X23983Y114706D1*X23983Y115105D2*X23185Y115105D1*X55098Y115105D2*X54300Y115105D1*X54300Y114706D2*X55098Y115504D1*X54699Y115504D2*X54699Y114706D1*X55098Y114706D2*X54300Y115504D1*X85814Y115504D2*X85814Y114706D1*X86213Y114706D2*X85415Y115504D1*X85415Y115105D2*X86213Y115105D1*X86213Y115504D2*X85415Y114706D1*X146855Y125877D2*X146855Y126675D1*X146456Y126675D2*X147254Y125877D1*X147254Y126276D2*X146456Y126276D1*X146456Y125877D2*X147254Y126675D1*X116929Y114706D2*X116929Y115504D1*X116530Y115504D2*X117328Y114706D1*X117328Y115105D2*X116530Y115105D1*X116530Y114706D2*X117328Y115504D1*X116705Y112464D2*X116705Y113091D1*X116860Y113246*X117175Y113246*X117333Y113091*X117333Y112464D2*X117333Y113091D1*X116705Y112464*X116860Y112306*X117175Y112306*X117333Y112464*X143916Y86906D2*X144714Y86906D1*X144714Y87305D2*X143916Y86507D1*X144315Y86507D2*X144315Y87305D1*X143916Y87305D2*X144714Y86507D1*X141829Y88613D2*X142143Y88143D1*X142456Y88613*X141516Y88143D2*X142456Y88143D1*X141671Y87833D2*X141516Y87676D1*X141516Y87363*X141671Y87206*X142298Y87206*X142456Y87363*X142456Y87676*X142298Y87833*X141671Y87833*X142298Y87206*X142456Y86271D2*X142456Y86898D1*X142456Y86584D2*X141516Y86584D1*X141829Y86271*X112883Y56685D2*X112085Y56685D1*X112085Y56286D2*X112883Y57084D1*X112484Y57084D2*X112484Y56286D1*X112883Y56286D2*X112085Y57084D1*X137384Y21501D2*X137071Y21814D1*X142464Y21501D2*X142151Y21814D1*X147544Y21501D2*X147231Y21814D1*X152624Y21501D2*X152311Y21814D1*X155164Y21501D2*X154851Y21814D1*X155791Y21814*X155791Y22128D2*X155791Y21501D1*X155633Y22436D2*X155006Y22436D1*X154851Y22593*X154851Y22906*X155006Y23063*X155633Y23063D2*X155006Y23063D1*X155633Y22436*X155791Y22593*X155791Y22906*X155633Y23063*X155791Y23843D2*X155478Y23373D1*X155164Y23843*X154851Y23373D2*X155791Y23373D1*X153251Y23843D2*X152938Y23373D1*X152624Y23843*X152311Y23373D2*X153251Y23373D1*X152466Y23063D2*X152311Y22906D1*X152311Y22593*X152466Y22436*X153093Y22436*X153251Y22593*X153251Y22906*X153093Y23063*X152466Y23063*X153093Y22436*X153251Y21501D2*X153251Y22128D1*X152311Y21814D2*X153251Y21814D1*X150084Y21501D2*X149771Y21814D1*X150711Y21814*X150711Y22128D2*X150711Y21501D1*X150553Y22436D2*X149926Y22436D1*X149771Y22593*X149771Y22906*X149926Y23063*X150553Y23063D2*X149926Y23063D1*X150553Y22436*X150711Y22593*X150711Y22906*X150553Y23063*X150711Y23843D2*X150398Y23373D1*X150084Y23843*X149771Y23373D2*X150711Y23373D1*X148171Y23843D2*X147858Y23373D1*X147544Y23843*X147231Y23373D2*X148171Y23373D1*X147386Y23063D2*X147231Y22906D1*X147231Y22593*X147386Y22436*X148013Y22436*X148171Y22593*X148171Y22906*X148013Y23063*X147386Y23063*X148013Y22436*X148171Y21501D2*X148171Y22128D1*X147231Y21814D2*X148171Y21814D1*X145004Y21501D2*X144691Y21814D1*X145631Y21814*X145631Y22128D2*X145631Y21501D1*X145473Y22436D2*X144846Y22436D1*X144691Y22593*X144691Y22906*X144846Y23063*X145473Y23063*X145631Y22906*X145631Y22593*X145473Y22436*X144846Y23063*X145004Y23843D2*X145318Y23373D1*X145631Y23843*X144691Y23373D2*X145631Y23373D1*X143091Y23843D2*X142778Y23373D1*X142464Y23843*X142151Y23373D2*X143091Y23373D1*X142306Y23063D2*X142151Y22906D1*X142151Y22593*X142306Y22436*X142933Y22436*X143091Y22593*X143091Y22906*X142933Y23063*X142306Y23063*X142933Y22436*X143091Y21501D2*X143091Y22128D1*X142151Y21814D2*X143091Y21814D1*X139924Y21501D2*X139611Y21814D1*X140551Y21814*X140551Y22128D2*X140551Y21501D1*X140393Y22436D2*X139766Y22436D1*X139611Y22593*X139611Y22906*X139766Y23063*X140393Y23063*X140551Y22906*X140551Y22593*X140393Y22436*X139766Y23063*X139924Y23843D2*X140238Y23373D1*X140551Y23843*X139611Y23373D2*X140551Y23373D1*X138011Y23843D2*X137698Y23373D1*X137384Y23843*X137071Y23373D2*X138011Y23373D1*X137226Y23063D2*X137071Y22906D1*X137071Y22593*X137226Y22436*X137853Y22436*X138011Y22593*X138011Y22906*X137853Y23063*X137226Y23063*X137853Y22436*X138011Y21501D2*X138011Y22128D1*X137071Y21814D2*X138011Y21814D1*X132304Y21501D2*X131991Y21814D1*X134844Y21501D2*X134531Y21814D1*X135471Y21814*X135471Y22128D2*X135471Y21501D1*X135313Y22436D2*X134686Y22436D1*X134531Y22593*X134531Y22906*X134686Y23063*X135313Y23063*X135471Y22906*X135471Y22593*X135313Y22436*X134686Y23063*X134844Y23843D2*X135158Y23373D1*X135471Y23843*X134531Y23373D2*X135471Y23373D1*X132931Y23843D2*X132618Y23373D1*X132304Y23843*X131991Y23373D2*X132931Y23373D1*X132146Y23063D2*X131991Y22906D1*X131991Y22593*X132146Y22436*X132773Y22436*X132931Y22593*X132931Y22906*X132773Y23063*X132146Y23063*X132773Y22436*X132931Y21501D2*X132931Y22128D1*X131991Y21814D2*X132931Y21814D1*X117064Y21501D2*X116751Y21814D1*X117691Y21814*X117691Y22128D2*X117691Y21501D1*X117691Y23843D2*X117378Y23373D1*X117064Y23843*X116751Y23373D2*X117691Y23373D1*X116906Y23063D2*X116751Y22906D1*X116751Y22593*X116906Y22436*X117533Y22436*X117691Y22593D2*X117691Y22906D1*X117533Y23063*X116906Y23063*X117533Y22436*X117691Y22593*X120073Y22436D2*X119446Y22436D1*X120231Y23843D2*X119918Y23373D1*X119604Y23843*X119291Y23373D2*X120231Y23373D1*X119446Y23063D2*X120073Y23063D1*X120231Y22906*X120231Y22593*X120073Y22436*X119446Y23063*X119291Y22906*X119291Y22593*X119446Y22436*X119604Y21501D2*X119291Y21814D1*X120231Y21814*X120231Y21501D2*X120231Y22128D1*X122144Y21501D2*X121831Y21814D1*X122771Y21814*X122771Y22128D2*X122771Y21501D1*X122771Y23843D2*X122458Y23373D1*X122144Y23843*X121831Y23373D2*X122771Y23373D1*X121986Y23063D2*X121831Y22906D1*X121831Y22593*X121986Y22436*X122613Y22436*X122771Y22593D2*X122771Y22906D1*X122613Y23063*X121986Y23063*X122613Y22436*X122771Y22593*X125153Y22436D2*X124526Y22436D1*X125311Y23843D2*X124998Y23373D1*X124684Y23843*X124371Y23373D2*X125311Y23373D1*X124526Y23063D2*X125153Y23063D1*X125311Y22906*X125311Y22593*X125153Y22436*X124526Y23063*X124371Y22906*X124371Y22593*X124526Y22436*X124684Y21501D2*X124371Y21814D1*X125311Y21814*X125311Y21501D2*X125311Y22128D1*X127224Y21501D2*X126911Y21814D1*X127851Y21814*X127851Y22128D2*X127851Y21501D1*X127851Y23843D2*X127538Y23373D1*X127224Y23843*X126911Y23373D2*X127851Y23373D1*X127066Y23063D2*X126911Y22906D1*X126911Y22593*X127066Y22436*X127693Y22436*X127851Y22593D2*X127851Y22906D1*X127693Y23063*X127066Y23063*X127693Y22436*X127851Y22593*X130233Y22436D2*X129606Y22436D1*X130391Y23843D2*X130078Y23373D1*X129764Y23843*X129451Y23373D2*X130391Y23373D1*X129606Y23063D2*X130233Y23063D1*X130391Y22906*X130391Y22593*X130233Y22436*X129606Y23063*X129451Y22906*X129451Y22593*X129606Y22436*X129764Y21501D2*X129451Y21814D1*X130391Y21814*X130391Y21501D2*X130391Y22128D1*X0Y0D2*M02*