
M48
METRIC,TZ,000.000
T01C0.5
T02C0.701
T03C0.8
T04C1.1
T05C1.199
T06C2.799
T07C2.946
T08C3.556
%
M71
G90
T01
X147638Y016192
X146368Y017462
X120332Y049848
X117792Y048578
X117158Y042228
X122238Y041592
X127318Y040958
X142558Y039052
X137478Y039688
X132398Y040322
X117158Y026988
X119698Y028258
X122238Y028892
X124778Y029528
X127318Y030162
X129858Y030798
X132398Y031432
X134938Y032068
X137478Y032702
X140018Y033338
X142558Y033972
X145098Y034608
X147638Y035878
X145732Y038418
X155258Y053022
X152718Y049848
X150178Y045402
X146368Y043498
X143192Y044768
X142558Y048578
X141288Y049848
X140652Y051118
X139382Y054928
X138748Y053022
X134938Y051752
X136842Y053022
X131762Y059372
X126682Y062548
X131128Y068262
X132398Y068898
X133668Y070168
X087312Y120332
X056198Y120332
X070802Y109538
X072708Y109538
X073978Y108902
X075248Y108268
X076518Y107632
X077788Y107632
X089852Y106998
X092392Y112078
X097472Y111442
X102552Y110808
X107632Y110172
X106362Y113348
X108902Y112712
X110172Y111442
X118428Y120332
X140018Y120332
X138748Y098742
X123508Y094932
X126048Y087312
X132398Y088582
X128588Y092392
X133668Y093662
X130492Y097472
X132398Y101282
X131762Y102552
X126048Y103822
X130492Y108268
X128588Y110172
X123508Y110808
X120968Y107632
X115252Y108268
X112078Y108268
X111442Y105728
X112712Y103188
X112712Y096202
X106362Y084772
X110808Y082232
X110808Y074612
X109538Y073342
X108268Y074612
X108268Y078422
X109538Y079692
X112078Y079692
X113982Y082232
X117158Y086042
X115252Y087312
X112078Y087312
X108902Y089852
X111442Y092392
X110172Y094932
X105092Y096202
X105092Y097472
X107632Y100012
X105092Y105092
X100012Y105728
X094932Y106362
X022542Y046672
X023812Y044132
X025082Y041592
X026352Y039052
X048578Y040958
X051118Y040958
X053658Y040958
X056198Y030162
X058738Y030162
X061278Y030162
X063818Y030162
X065088Y014922
X063818Y015558
X062548Y016192
X061278Y016828
X060008Y017462
X058738Y018098
X057468Y018732
X056198Y019368
X054928Y020002
X053658Y020638
X052388Y021272
X051118Y021908
X049848Y022542
X048578Y023178
X046038Y023812
X043498Y025082
T02
X028892Y023178
X030162Y024448
X031432Y023178
X034912Y014135
X037249Y014135
X039586Y014135
X041923Y014135
T03
X020002Y112078
X025082Y112078
X142558Y025718
X145098Y025718
X147638Y025718
X150178Y025718
X152718Y025718
X155258Y025718
X155258Y020638
X152718Y020638
X150178Y020638
X147638Y020638
X145098Y020638
X142558Y020638
X140018Y020638
X137478Y020638
X134938Y020638
X132398Y020638
X129858Y020638
X127318Y020638
X124778Y020638
X122238Y020638
X119698Y020638
X117158Y020638
X117158Y025718
X119698Y025718
X122238Y025718
X124778Y025718
X127318Y025718
X129858Y025718
X132398Y025718
X134938Y025718
X137478Y025718
X140018Y025718
X140652Y108902
X135572Y072072
X135572Y074612
X135572Y077152
X135572Y079692
X135572Y082232
X135572Y084772
X135572Y087312
X135572Y089852
X135572Y092392
X135572Y094932
X135572Y097472
X135572Y100012
X135572Y102552
X135572Y105092
X135572Y108902
X114618Y116522
X113348Y112712
X110172Y115252
X107632Y115252
X105092Y115252
X102552Y115252
X100012Y115252
X097472Y115252
X094932Y115252
X092392Y115252
X089852Y115252
X087312Y115252
X082868Y116522
X079058Y115252
X076518Y115252
X073978Y115252
X071438Y115252
X068898Y115252
X066358Y115252
X063818Y115252
X061278Y115252
X058738Y115252
X056198Y115252
X052388Y116522
X047942Y115252
X045402Y115252
X042862Y115252
X040322Y115252
X037782Y115252
X035242Y115252
X032702Y115252
X030162Y115252
X027622Y115252
X025082Y115252
X023178Y127952
X018098Y127952
X016828Y122872
X021908Y122872
X025082Y122872
X027622Y122872
X030162Y122872
X032702Y122872
X035242Y122872
X037782Y122872
X040322Y122872
X042862Y122872
X045402Y122872
X047942Y122872
X052388Y121602
X056198Y122872
X058738Y122872
X061278Y122872
X063818Y122872
X066358Y122872
X068898Y122872
X071438Y122872
X073978Y122872
X076518Y122872
X079058Y122872
X082868Y121602
X087312Y122872
X089852Y122872
X092392Y122872
X094932Y122872
X097472Y122872
X100012Y122872
X102552Y122872
X105092Y122872
X107632Y122872
X110172Y122872
X114618Y121602
X118428Y122872
X120968Y122872
X123508Y122872
X126048Y122872
X128588Y122872
X131128Y122872
X133668Y122872
X136208Y122872
X138748Y122872
X141288Y122872
X147002Y117158
X147002Y119698
X147002Y122238
X147002Y124778
X148272Y128588
X153352Y128588
X154622Y124778
X154622Y122238
X154622Y119698
X154622Y117158
X154622Y114618
X154622Y112078
X154622Y109538
X154622Y106998
X154622Y104458
X154622Y101918
X147002Y101918
X147002Y104458
X147002Y106998
X147002Y109538
X147002Y112078
X147002Y114618
X141288Y115252
X138748Y115252
X136208Y115252
X133668Y115252
X131128Y115252
X128588Y115252
X126048Y115252
X123508Y115252
X120968Y115252
X118428Y115252
X118428Y112712
X120332Y105092
X120332Y102552
X120332Y100012
X120332Y097472
X120332Y094932
X120332Y092392
X120332Y089852
X120332Y087312
X120332Y084772
X120332Y082232
X120332Y079692
X120332Y077152
X120332Y074612
X120332Y072072
X113982Y056832
X116522Y056832
X119062Y056832
X121602Y056832
X124142Y056832
X126682Y056832
X129222Y056832
X131762Y056832
X134302Y056832
X136842Y056832
X152082Y062548
X152082Y065088
X152082Y067628
X152082Y070168
X152082Y072708
X152082Y075248
X152082Y077788
X152082Y080328
X152082Y082868
X152082Y085408
X149542Y089852
X144462Y089852
X141922Y090488
X141922Y085408
X144462Y085408
X144462Y082868
X144462Y080328
X144462Y077788
X144462Y075248
X144462Y072708
X144462Y070168
X144462Y067628
X144462Y062548
X144462Y065088
X136842Y064452
X134302Y064452
X131762Y064452
X129222Y064452
X126682Y064452
X124142Y064452
X121602Y064452
X119062Y064452
X116522Y064452
X113982Y064452
X108902Y070802
X108902Y065722
X039688Y023178
X034608Y023178
X026352Y027622
X026352Y035242
X018732Y035242
X011748Y023178
X017462Y014288
X014922Y018732
X017462Y018732
X016828Y023178
X018732Y027622
X021908Y023812
X023812Y020638
X021908Y018732
X022542Y014288
X026352Y014288
X026352Y016828
X028892Y020638
T04
X102552Y133032
X102552Y135572
X105092Y135572
X105092Y133032
X107632Y133032
X107632Y135572
X110172Y135572
X110172Y133032
X112712Y133032
X112712Y135572
X115252Y135572
X115252Y133032
X117792Y133032
X117792Y135572
X120332Y135572
X120332Y133032
X122872Y133032
X122872Y135572
X125412Y135572
X125412Y133032
X161608Y122238
X161608Y119698
X161608Y117158
X161608Y110808
X161608Y108268
X161608Y105728
X161608Y099378
X161608Y096838
X161608Y094298
X161608Y087948
X161608Y085408
X161608Y082868
X161608Y080328
X121602Y047308
X124142Y047308
X126682Y047308
X129222Y047308
X131762Y047308
X134302Y047308
X160338Y054292
X162878Y054292
X162878Y051752
X160338Y051752
X160338Y049212
X162878Y049212
X162878Y044132
X162878Y046672
X160338Y046672
X160338Y044132
X160338Y041592
X162878Y041592
X162878Y036512
X162878Y039052
X160338Y039052
X160338Y036512
X160338Y033972
X162878Y033972
X162878Y031432
X160338Y031432
X123508Y013018
X123508Y010478
X120968Y010478
X120968Y013018
X118428Y013018
X118428Y010478
X115888Y010478
X115888Y013018
X113348Y013018
X113348Y010478
X110808Y010478
X110808Y013018
X108268Y013018
X108268Y010478
X105728Y010478
X105728Y013018
X103188Y013018
X103188Y010478
X100648Y010478
X100648Y013018
X044768Y053022
X042228Y053022
X013018Y039052
X013018Y036512
X010478Y036512
X010478Y039052
X010478Y041592
X013018Y041592
X013018Y046672
X013018Y044132
X010478Y044132
X010478Y046672
X010478Y049212
X013018Y049212
X013018Y051752
X010478Y051752
X010478Y056832
X010478Y054292
X013018Y054292
X013018Y056832
X013018Y059372
X010478Y059372
X010478Y117792
X013018Y117792
X042862Y133032
X042862Y135572
X045402Y135572
X045402Y133032
X047942Y133032
X047942Y135572
X050482Y135572
X050482Y133032
X053022Y133032
X053022Y135572
X055562Y135572
X055562Y133032
X058102Y133032
X058102Y135572
X060642Y135572
X060642Y133032
X063182Y133032
X063182Y135572
X065722Y135572
X065722Y133032
X067628Y098742
X070168Y098742
X072708Y098742
X072708Y101282
X070168Y101282
X067628Y101282
X062548Y101282
X065088Y101282
X065088Y098742
X062548Y098742
X057468Y098742
X060008Y098742
X060008Y101282
X057468Y101282
X052388Y101282
X054928Y101282
X054928Y098742
X052388Y098742
X047308Y098742
X049848Y098742
X049848Y101282
X047308Y101282
X042228Y101282
X044768Y101282
X044768Y098742
X042228Y098742
X042228Y093662
X042228Y096202
X044768Y096202
X044768Y093662
X047308Y093662
X047308Y096202
X049848Y096202
X049848Y093662
X052388Y093662
X052388Y096202
X054928Y096202
X054928Y093662
X057468Y093662
X057468Y096202
X060008Y096202
X060008Y093662
X062548Y093662
X062548Y096202
X065088Y096202
X065088Y093662
X067628Y093662
X067628Y096202
X070168Y096202
X070168Y093662
X072708Y093662
X072708Y096202
X075248Y096202
X075248Y093662
X077788Y093662
X077788Y096202
X077788Y098742
X075248Y098742
X075248Y101282
X077788Y101282
X080328Y101282
X082868Y101282
X082868Y098742
X080328Y098742
X080328Y096202
X080328Y093662
X082868Y093662
X082868Y096202
X085408Y096202
X085408Y093662
X087948Y093662
X087948Y096202
X087948Y098742
X085408Y098742
X085408Y101282
X087948Y101282
X090488Y101282
X090488Y098742
X090488Y096202
X090488Y093662
X101918Y088582
X099378Y088582
X099378Y091122
X101918Y091122
X101918Y093662
X099378Y093662
X096838Y093662
X094298Y093662
X094298Y091122
X096838Y091122
X096838Y088582
X094298Y088582
X094298Y070802
X096838Y070802
X096838Y075882
X096838Y073342
X094298Y073342
X094298Y075882
X094298Y078422
X096838Y078422
X096838Y080962
X094298Y080962
X094298Y083502
X094298Y086042
X096838Y086042
X096838Y083502
X099378Y083502
X099378Y086042
X101918Y086042
X101918Y083502
X101918Y080962
X099378Y080962
X099378Y078422
X101918Y078422
X101918Y073342
X101918Y075882
X099378Y075882
X099378Y073342
X099378Y070802
X101918Y070802
X101918Y060642
X099378Y060642
X099378Y063182
X101918Y063182
X101918Y065722
X101918Y068262
X099378Y068262
X099378Y065722
X096838Y065722
X096838Y068262
X094298Y068262
X094298Y065722
X094298Y063182
X096838Y063182
X096838Y060642
X094298Y060642
X094298Y055562
X094298Y058102
X096838Y058102
X096838Y055562
X099378Y055562
X099378Y058102
X101918Y058102
X101918Y055562
X101918Y053022
X099378Y053022
X099378Y050482
X101918Y050482
X101918Y047942
X101918Y045402
X099378Y045402
X099378Y047942
X096838Y047942
X096838Y045402
X094298Y045402
X094298Y047942
X094298Y050482
X096838Y050482
X096838Y053022
X094298Y053022
X072708Y053022
X070168Y053022
X067628Y053022
X067628Y050482
X070168Y050482
X072708Y050482
X077788Y050482
X075248Y050482
X075248Y053022
X077788Y053022
X082868Y053022
X080328Y053022
X080328Y050482
X082868Y050482
X087948Y050482
X085408Y050482
X085408Y053022
X087948Y053022
X090488Y053022
X090488Y050482
X090488Y047942
X090488Y045402
X087948Y045402
X087948Y047942
X085408Y047942
X085408Y045402
X082868Y045402
X082868Y047942
X080328Y047942
X080328Y045402
X077788Y045402
X077788Y047942
X075248Y047942
X075248Y045402
X072708Y045402
X072708Y047942
X070168Y047942
X070168Y045402
X067628Y045402
X067628Y047942
X065088Y047942
X065088Y045402
X062548Y045402
X062548Y047942
X062548Y050482
X065088Y050482
X065088Y053022
X062548Y053022
X060008Y053022
X057468Y053022
X057468Y050482
X060008Y050482
X060008Y047942
X060008Y045402
X057468Y045402
X057468Y047942
X054928Y047942
X054928Y045402
X052388Y045402
X052388Y047942
X052388Y050482
X054928Y050482
X054928Y053022
X052388Y053022
X049848Y053022
X047308Y053022
X047308Y050482
X049848Y050482
X049848Y047942
X049848Y045402
X047308Y045402
X047308Y047942
X042228Y047942
X042228Y045402
X044768Y045402
X044768Y047942
X044768Y050482
X042228Y050482
X035878Y050482
X033338Y050482
X033338Y053022
X035878Y053022
X035878Y058102
X035878Y055562
X033338Y055562
X033338Y058102
X033338Y060642
X035878Y060642
X035878Y063182
X033338Y063182
X033338Y068262
X033338Y065722
X035878Y065722
X035878Y068262
X035878Y070802
X033338Y070802
X033338Y075882
X033338Y073342
X035878Y073342
X035878Y075882
X035878Y078422
X033338Y078422
X033338Y080962
X035878Y080962
X035878Y086042
X035878Y083502
X033338Y083502
X033338Y086042
X033338Y088582
X035878Y088582
X035878Y091122
X033338Y091122
X033338Y093662
X035878Y093662
X038418Y093662
X038418Y091122
X038418Y088582
X038418Y086042
X038418Y083502
X038418Y080962
X038418Y078422
X038418Y075882
X038418Y073342
X038418Y070802
X038418Y068262
X038418Y065722
X038418Y063182
X038418Y060642
X038418Y058102
X038418Y055562
X038418Y053022
X038418Y050482
X038418Y047942
X038418Y045402
X035878Y045402
X035878Y047942
X033338Y047942
X033338Y045402
X030798Y045402
X030798Y047942
X030798Y050482
X030798Y053022
X030798Y055562
X030798Y058102
X030798Y060642
X030798Y063182
X030798Y065722
X030798Y068262
X030798Y070802
X030798Y073342
X030798Y075882
X030798Y078422
X030798Y080962
X030798Y083502
X030798Y086042
X030798Y088582
X030798Y091122
X030798Y093662
X013018Y097472
X013018Y094932
X010478Y094932
X010478Y097472
X010478Y100012
X013018Y100012
X013018Y105092
X013018Y102552
X010478Y102552
X010478Y105092
X010478Y107632
X013018Y107632
X013018Y110172
X010478Y110172
X010478Y112712
X010478Y115252
X013018Y115252
X013018Y112712
T05
X020002Y136208
X151448Y010478
X147002Y010478
X142558Y010478
X138112Y010478
X018732Y009208
X023178Y009208
X028258Y009208
X074612Y010478
X079058Y010478
X083502Y010478
X087948Y010478
X112078Y032702
X161608Y073978
X144462Y136842
T06
X044996Y016828
X031839Y016828
T07
X094831Y011214
X129324Y011214
X162141Y025616
X162141Y060109
X131229Y134836
X096736Y134836
X071539Y134836
X037046Y134836
X011214Y123609
X011214Y089116
X011214Y065189
X011214Y030696
T08
X011748Y134302
X033338Y098742
X161608Y134302
X099378Y098742
X161608Y011748
X099378Y031432
X033338Y030162
X011748Y011748
M30
