G04 Output by ViewMate Deluxe V11.0.9  PentaLogix LLC*
G04 Sun Jun 14 09:31:17 2015*
%FSLAX33Y33*%
%MOMM*%
%IPPOS*%
%ADD118C,0.0*%

%LPD*%
X0Y0D2*D118*G1X93358Y11214D2*X93363Y11092D1*X93378Y10973*X93403Y10853*X93436Y10737*X93482Y10622*X93536Y10513*X93596Y10409*X93668Y10310*X93746Y10216*X93833Y10130*X93927Y10051*X94026Y9980*X94130Y9919*X94239Y9865*X94353Y9820*X94470Y9787*X94590Y9761*X94709Y9746*X94831Y9741*X94953Y9746*X95072Y9761*X95192Y9787*X95308Y9820*X95423Y9865*X95532Y9919*X95636Y9980*X95735Y10051*X95829Y10130*X95915Y10216*X95994Y10310*X96065Y10409*X96126Y10513*X96180Y10622*X96225Y10737*X96258Y10853*X96284Y10973*X96299Y11092*X96304Y11214*X96299Y11336*X96284Y11455*X96258Y11575*X96225Y11692*X96180Y11806*X96126Y11915*X96065Y12019*X95994Y12118*X95915Y12212*X95829Y12299*X95735Y12377*X95636Y12449*X95532Y12510*X95423Y12563*X95308Y12609*X95192Y12642*X95072Y12667*X94953Y12682*X94831Y12687*X94709Y12682*X94590Y12667*X94470Y12642*X94353Y12609*X94239Y12563*X94130Y12510*X94026Y12449*X93927Y12377*X93833Y12299*X93746Y12212*X93668Y12118*X93596Y12019*X93536Y11915*X93482Y11806*X93436Y11692*X93403Y11575*X93378Y11455*X93363Y11336*X93358Y11214*X97600Y31432D2*X97605Y31300D1*X97620Y31168*X97645Y31036*X97678Y30909*X97721Y30782*X97775Y30660*X97838Y30544*X97909Y30432*X97988Y30325*X98074Y30223*X98168Y30129*X98270Y30043*X98377Y29964*X98488Y29893*X98605Y29830*X98727Y29776*X98854Y29733*X98981Y29700*X99113Y29675*X99245Y29660*X99378Y29654*X99510Y29660*X99642Y29675*X99774Y29700*X99901Y29733*X100028Y29776*X100150Y29830*X100266Y29893*X100378Y29964*X100485Y30043*X100587Y30129*X100681Y30223*X100767Y30325*X100846Y30432*X100917Y30544*X100980Y30660*X101034Y30782*X101077Y30909*X101110Y31036*X101135Y31168*X101150Y31300*X101156Y31432*X101150Y31565*X101135Y31697*X101110Y31829*X101077Y31956*X101034Y32083*X100980Y32205*X100917Y32322*X100846Y32433*X100767Y32540*X100681Y32642*X100587Y32736*X100485Y32822*X100378Y32901*X100266Y32972*X100150Y33035*X100028Y33089*X99901Y33132*X99774Y33165*X99642Y33190*X99510Y33205*X99378Y33210*X99245Y33205*X99113Y33190*X98981Y33165*X98854Y33132*X98727Y33089*X98605Y33035*X98488Y32972*X98377Y32901*X98270Y32822*X98168Y32736*X98074Y32642*X97988Y32540*X97909Y32433*X97838Y32322*X97775Y32205*X97721Y32083*X97678Y31956*X97645Y31829*X97620Y31697*X97605Y31565*X97600Y31432*X127851Y11214D2*X127856Y11092D1*X127871Y10973*X127897Y10853*X127930Y10737*X127975Y10622*X128029Y10513*X128090Y10409*X128161Y10310*X128240Y10216*X128326Y10130*X128420Y10051*X128519Y9980*X128623Y9919*X128732Y9865*X128847Y9820*X128963Y9787*X129083Y9761*X129202Y9746*X129324Y9741*X129446Y9746*X129565Y9761*X129685Y9787*X129802Y9820*X129916Y9865*X130025Y9919*X130129Y9980*X130228Y10051*X130322Y10130*X130409Y10216*X130487Y10310*X130559Y10409*X130620Y10513*X130673Y10622*X130719Y10737*X130752Y10853*X130777Y10973*X130792Y11092*X130797Y11214*X130792Y11336*X130777Y11455*X130752Y11575*X130719Y11692*X130673Y11806*X130620Y11915*X130559Y12019*X130487Y12118*X130409Y12212*X130322Y12299*X130228Y12377*X130129Y12449*X130025Y12510*X129916Y12563*X129802Y12609*X129685Y12642*X129565Y12667*X129446Y12682*X129324Y12687*X129202Y12682*X129083Y12667*X128963Y12642*X128847Y12609*X128732Y12563*X128623Y12510*X128519Y12449*X128420Y12377*X128326Y12299*X128240Y12212*X128161Y12118*X128090Y12019*X128029Y11915*X127975Y11806*X127930Y11692*X127897Y11575*X127871Y11455*X127856Y11336*X127851Y11214*X159830Y11748D2*X159835Y11615D1*X159850Y11483*X159875Y11351*X159908Y11224*X159951Y11097*X160005Y10975*X160068Y10858*X160139Y10747*X160218Y10640*X160304Y10538*X160398Y10444*X160500Y10358*X160607Y10279*X160718Y10208*X160835Y10145*X160957Y10091*X161084Y10048*X161211Y10015*X161343Y9990*X161475Y9975*X161608Y9970*X161740Y9975*X161872Y9990*X162004Y10015*X162131Y10048*X162258Y10091*X162380Y10145*X162496Y10208*X162608Y10279*X162715Y10358*X162817Y10444*X162911Y10538*X162997Y10640*X163076Y10747*X163147Y10858*X163210Y10975*X163264Y11097*X163307Y11224*X163340Y11351*X163365Y11483*X163380Y11615*X163386Y11748*X163380Y11880*X163365Y12012*X163340Y12144*X163307Y12271*X163264Y12398*X163210Y12520*X163147Y12636*X163076Y12748*X162997Y12855*X162911Y12957*X162817Y13051*X162715Y13137*X162608Y13216*X162496Y13287*X162380Y13350*X162258Y13404*X162131Y13447*X162004Y13480*X161872Y13505*X161740Y13520*X161608Y13526*X161475Y13520*X161343Y13505*X161211Y13480*X161084Y13447*X160957Y13404*X160835Y13350*X160718Y13287*X160607Y13216*X160500Y13137*X160398Y13051*X160304Y12957*X160218Y12855*X160139Y12748*X160068Y12636*X160005Y12520*X159951Y12398*X159908Y12271*X159875Y12144*X159850Y12012*X159835Y11880*X159830Y11748*X160668Y25616D2*X160673Y25494D1*X160688Y25375*X160713Y25255*X160746Y25138*X160792Y25024*X160846Y24915*X160906Y24811*X160978Y24712*X161056Y24618*X161143Y24531*X161237Y24453*X161336Y24381*X161440Y24320*X161549Y24267*X161663Y24221*X161780Y24188*X161900Y24163*X162019Y24148*X162141Y24143*X162263Y24148*X162382Y24163*X162502Y24188*X162618Y24221*X162733Y24267*X162842Y24320*X162946Y24381*X163045Y24453*X163139Y24531*X163225Y24618*X163304Y24712*X163375Y24811*X163436Y24915*X163490Y25024*X163535Y25138*X163568Y25255*X163594Y25375*X163609Y25494*X163614Y25616*X163609Y25738*X163594Y25857*X163568Y25977*X163535Y26093*X163490Y26208*X163436Y26317*X163375Y26421*X163304Y26520*X163225Y26614*X163139Y26700*X163045Y26779*X162946Y26850*X162842Y26911*X162733Y26965*X162618Y27010*X162502Y27043*X162382Y27069*X162263Y27084*X162141Y27089*X162019Y27084*X161900Y27069*X161780Y27043*X161663Y27010*X161549Y26965*X161440Y26911*X161336Y26850*X161237Y26779*X161143Y26700*X161056Y26614*X160978Y26520*X160906Y26421*X160846Y26317*X160792Y26208*X160746Y26093*X160713Y25977*X160688Y25857*X160673Y25738*X160668Y25616*X160668Y60109D2*X160673Y59987D1*X160688Y59868*X160713Y59748*X160746Y59632*X160792Y59517*X160846Y59408*X160906Y59304*X160978Y59205*X161056Y59111*X161143Y59025*X161237Y58946*X161336Y58875*X161440Y58814*X161549Y58760*X161663Y58715*X161780Y58682*X161900Y58656*X162019Y58641*X162141Y58636*X162263Y58641*X162382Y58656*X162502Y58682*X162618Y58715*X162733Y58760*X162842Y58814*X162946Y58875*X163045Y58946*X163139Y59025*X163225Y59111*X163304Y59205*X163375Y59304*X163436Y59408*X163490Y59517*X163535Y59632*X163568Y59748*X163594Y59868*X163609Y59987*X163614Y60109*X163609Y60231*X163594Y60350*X163568Y60470*X163535Y60587*X163490Y60701*X163436Y60810*X163375Y60914*X163304Y61013*X163225Y61107*X163139Y61194*X163045Y61272*X162946Y61344*X162842Y61404*X162733Y61458*X162618Y61504*X162502Y61537*X162382Y61562*X162263Y61577*X162141Y61582*X162019Y61577*X161900Y61562*X161780Y61537*X161663Y61504*X161549Y61458*X161440Y61404*X161336Y61344*X161237Y61272*X161143Y61194*X161056Y61107*X160978Y61013*X160906Y60914*X160846Y60810*X160792Y60701*X160746Y60587*X160713Y60470*X160688Y60350*X160673Y60231*X160668Y60109*X97600Y98742D2*X97605Y98610D1*X97620Y98478*X97645Y98346*X97678Y98219*X97721Y98092*X97775Y97970*X97838Y97854*X97909Y97742*X97988Y97635*X98074Y97533*X98168Y97439*X98270Y97353*X98377Y97274*X98488Y97203*X98605Y97140*X98727Y97086*X98854Y97043*X98981Y97010*X99113Y96985*X99245Y96970*X99378Y96964*X99510Y96970*X99642Y96985*X99774Y97010*X99901Y97043*X100028Y97086*X100150Y97140*X100266Y97203*X100378Y97274*X100485Y97353*X100587Y97439*X100681Y97533*X100767Y97635*X100846Y97742*X100917Y97854*X100980Y97970*X101034Y98092*X101077Y98219*X101110Y98346*X101135Y98478*X101150Y98610*X101156Y98742*X101150Y98875*X101135Y99007*X101110Y99139*X101077Y99266*X101034Y99393*X100980Y99515*X100917Y99632*X100846Y99743*X100767Y99850*X100681Y99952*X100587Y100046*X100485Y100132*X100378Y100211*X100266Y100282*X100150Y100345*X100028Y100399*X99901Y100442*X99774Y100475*X99642Y100500*X99510Y100515*X99378Y100520*X99245Y100515*X99113Y100500*X98981Y100475*X98854Y100442*X98727Y100399*X98605Y100345*X98488Y100282*X98377Y100211*X98270Y100132*X98168Y100046*X98074Y99952*X97988Y99850*X97909Y99743*X97838Y99632*X97775Y99515*X97721Y99393*X97678Y99266*X97645Y99139*X97620Y99007*X97605Y98875*X97600Y98742*X159830Y134302D2*X159835Y134170D1*X159850Y134038*X159875Y133906*X159908Y133779*X159951Y133652*X160005Y133530*X160068Y133414*X160139Y133302*X160218Y133195*X160304Y133093*X160398Y132999*X160500Y132913*X160607Y132834*X160718Y132763*X160835Y132700*X160957Y132646*X161084Y132603*X161211Y132570*X161343Y132545*X161475Y132530*X161608Y132524*X161740Y132530*X161872Y132545*X162004Y132570*X162131Y132603*X162258Y132646*X162380Y132700*X162496Y132763*X162608Y132834*X162715Y132913*X162817Y132999*X162911Y133093*X162997Y133195*X163076Y133302*X163147Y133414*X163210Y133530*X163264Y133652*X163307Y133779*X163340Y133906*X163365Y134038*X163380Y134170*X163386Y134302*X163380Y134435*X163365Y134567*X163340Y134699*X163307Y134826*X163264Y134953*X163210Y135075*X163147Y135192*X163076Y135303*X162997Y135410*X162911Y135512*X162817Y135606*X162715Y135692*X162608Y135771*X162496Y135842*X162380Y135905*X162258Y135959*X162131Y136002*X162004Y136035*X161872Y136060*X161740Y136075*X161608Y136080*X161475Y136075*X161343Y136060*X161211Y136035*X161084Y136002*X160957Y135959*X160835Y135905*X160718Y135842*X160607Y135771*X160500Y135692*X160398Y135606*X160304Y135512*X160218Y135410*X160139Y135303*X160068Y135192*X160005Y135075*X159951Y134953*X159908Y134826*X159875Y134699*X159850Y134567*X159835Y134435*X159830Y134302*X129756Y134836D2*X129761Y134714D1*X129776Y134595*X129802Y134475*X129835Y134358*X129880Y134244*X129934Y134135*X129995Y134031*X130066Y133932*X130145Y133838*X130231Y133751*X130325Y133673*X130424Y133601*X130528Y133540*X130637Y133487*X130752Y133441*X130868Y133408*X130988Y133383*X131107Y133368*X131229Y133363*X131351Y133368*X131470Y133383*X131590Y133408*X131707Y133441*X131821Y133487*X131930Y133540*X132034Y133601*X132133Y133673*X132227Y133751*X132314Y133838*X132392Y133932*X132464Y134031*X132524Y134135*X132578Y134244*X132624Y134358*X132657Y134475*X132682Y134595*X132697Y134714*X132702Y134836*X132697Y134958*X132682Y135077*X132657Y135197*X132624Y135313*X132578Y135428*X132524Y135537*X132464Y135641*X132392Y135740*X132314Y135834*X132227Y135920*X132133Y135999*X132034Y136070*X131930Y136131*X131821Y136185*X131707Y136230*X131590Y136263*X131470Y136289*X131351Y136304*X131229Y136309*X131107Y136304*X130988Y136289*X130868Y136263*X130752Y136230*X130637Y136185*X130528Y136131*X130424Y136070*X130325Y135999*X130231Y135920*X130145Y135834*X130066Y135740*X129995Y135641*X129934Y135537*X129880Y135428*X129835Y135313*X129802Y135197*X129776Y135077*X129761Y134958*X129756Y134836*X95263Y134836D2*X95268Y134714D1*X95283Y134595*X95308Y134475*X95341Y134358*X95387Y134244*X95440Y134135*X95501Y134031*X95573Y133932*X95651Y133838*X95738Y133751*X95832Y133673*X95931Y133601*X96035Y133540*X96144Y133487*X96258Y133441*X96375Y133408*X96495Y133383*X96614Y133368*X96736Y133363*X96858Y133368*X96977Y133383*X97097Y133408*X97213Y133441*X97328Y133487*X97437Y133540*X97541Y133601*X97640Y133673*X97734Y133751*X97820Y133838*X97899Y133932*X97970Y134031*X98031Y134135*X98085Y134244*X98130Y134358*X98163Y134475*X98189Y134595*X98204Y134714*X98209Y134836*X98204Y134958*X98189Y135077*X98163Y135197*X98130Y135313*X98085Y135428*X98031Y135537*X97970Y135641*X97899Y135740*X97820Y135834*X97734Y135920*X97640Y135999*X97541Y136070*X97437Y136131*X97328Y136185*X97213Y136230*X97097Y136263*X96977Y136289*X96858Y136304*X96736Y136309*X96614Y136304*X96495Y136289*X96375Y136263*X96258Y136230*X96144Y136185*X96035Y136131*X95931Y136070*X95832Y135999*X95738Y135920*X95651Y135834*X95573Y135740*X95501Y135641*X95440Y135537*X95387Y135428*X95341Y135313*X95308Y135197*X95283Y135077*X95268Y134958*X95263Y134836*X70066Y134836D2*X70071Y134714D1*X70086Y134595*X70112Y134475*X70145Y134358*X70190Y134244*X70244Y134135*X70305Y134031*X70376Y133932*X70455Y133838*X70541Y133751*X70635Y133673*X70734Y133601*X70838Y133540*X70947Y133487*X71062Y133441*X71178Y133408*X71298Y133383*X71417Y133368*X71539Y133363*X71661Y133368*X71780Y133383*X71900Y133408*X72017Y133441*X72131Y133487*X72240Y133540*X72344Y133601*X72443Y133673*X72537Y133751*X72624Y133838*X72702Y133932*X72774Y134031*X72834Y134135*X72888Y134244*X72934Y134358*X72967Y134475*X72992Y134595*X73007Y134714*X73012Y134836*X73007Y134958*X72992Y135077*X72967Y135197*X72934Y135313*X72888Y135428*X72834Y135537*X72774Y135641*X72702Y135740*X72624Y135834*X72537Y135920*X72443Y135999*X72344Y136070*X72240Y136131*X72131Y136185*X72017Y136230*X71900Y136263*X71780Y136289*X71661Y136304*X71539Y136309*X71417Y136304*X71298Y136289*X71178Y136263*X71062Y136230*X70947Y136185*X70838Y136131*X70734Y136070*X70635Y135999*X70541Y135920*X70455Y135834*X70376Y135740*X70305Y135641*X70244Y135537*X70190Y135428*X70145Y135313*X70112Y135197*X70086Y135077*X70071Y134958*X70066Y134836*X35573Y134836D2*X35578Y134714D1*X35593Y134595*X35618Y134475*X35651Y134358*X35697Y134244*X35750Y134135*X35811Y134031*X35883Y133932*X35961Y133838*X36048Y133751*X36142Y133673*X36241Y133601*X36345Y133540*X36454Y133487*X36568Y133441*X36685Y133408*X36805Y133383*X36924Y133368*X37046Y133363*X37168Y133368*X37287Y133383*X37407Y133408*X37523Y133441*X37638Y133487*X37747Y133540*X37851Y133601*X37950Y133673*X38044Y133751*X38130Y133838*X38209Y133932*X38280Y134031*X38341Y134135*X38395Y134244*X38440Y134358*X38473Y134475*X38499Y134595*X38514Y134714*X38519Y134836*X38514Y134958*X38499Y135077*X38473Y135197*X38440Y135313*X38395Y135428*X38341Y135537*X38280Y135641*X38209Y135740*X38130Y135834*X38044Y135920*X37950Y135999*X37851Y136070*X37747Y136131*X37638Y136185*X37523Y136230*X37407Y136263*X37287Y136289*X37168Y136304*X37046Y136309*X36924Y136304*X36805Y136289*X36685Y136263*X36568Y136230*X36454Y136185*X36345Y136131*X36241Y136070*X36142Y135999*X36048Y135920*X35961Y135834*X35883Y135740*X35811Y135641*X35750Y135537*X35697Y135428*X35651Y135313*X35618Y135197*X35593Y135077*X35578Y134958*X35573Y134836*X9970Y134302D2*X9975Y134170D1*X9990Y134038*X10015Y133906*X10048Y133779*X10091Y133652*X10145Y133530*X10208Y133414*X10279Y133302*X10358Y133195*X10444Y133093*X10538Y132999*X10640Y132913*X10747Y132834*X10858Y132763*X10975Y132700*X11097Y132646*X11224Y132603*X11351Y132570*X11483Y132545*X11615Y132530*X11748Y132524*X11880Y132530*X12012Y132545*X12144Y132570*X12271Y132603*X12398Y132646*X12520Y132700*X12636Y132763*X12748Y132834*X12855Y132913*X12957Y132999*X13051Y133093*X13137Y133195*X13216Y133302*X13287Y133414*X13350Y133530*X13404Y133652*X13447Y133779*X13480Y133906*X13505Y134038*X13520Y134170*X13526Y134302*X13520Y134435*X13505Y134567*X13480Y134699*X13447Y134826*X13404Y134953*X13350Y135075*X13287Y135192*X13216Y135303*X13137Y135410*X13051Y135512*X12957Y135606*X12855Y135692*X12748Y135771*X12636Y135842*X12520Y135905*X12398Y135959*X12271Y136002*X12144Y136035*X12012Y136060*X11880Y136075*X11748Y136080*X11615Y136075*X11483Y136060*X11351Y136035*X11224Y136002*X11097Y135959*X10975Y135905*X10858Y135842*X10747Y135771*X10640Y135692*X10538Y135606*X10444Y135512*X10358Y135410*X10279Y135303*X10208Y135192*X10145Y135075*X10091Y134953*X10048Y134826*X10015Y134699*X9990Y134567*X9975Y134435*X9970Y134302*X9741Y123609D2*X9746Y123487D1*X9761Y123368*X9787Y123248*X9820Y123132*X9865Y123017*X9919Y122908*X9980Y122804*X10051Y122705*X10130Y122611*X10216Y122525*X10310Y122446*X10409Y122375*X10513Y122314*X10622Y122260*X10737Y122215*X10853Y122182*X10973Y122156*X11092Y122141*X11214Y122136*X11336Y122141*X11455Y122156*X11575Y122182*X11692Y122215*X11806Y122260*X11915Y122314*X12019Y122375*X12118Y122446*X12212Y122525*X12299Y122611*X12377Y122705*X12449Y122804*X12510Y122908*X12563Y123017*X12609Y123132*X12642Y123248*X12667Y123368*X12682Y123487*X12687Y123609*X12682Y123731*X12667Y123850*X12642Y123970*X12609Y124087*X12563Y124201*X12510Y124310*X12449Y124414*X12377Y124513*X12299Y124607*X12212Y124694*X12118Y124772*X12019Y124844*X11915Y124904*X11806Y124958*X11692Y125004*X11575Y125037*X11455Y125062*X11336Y125077*X11214Y125082*X11092Y125077*X10973Y125062*X10853Y125037*X10737Y125004*X10622Y124958*X10513Y124904*X10409Y124844*X10310Y124772*X10216Y124694*X10130Y124607*X10051Y124513*X9980Y124414*X9919Y124310*X9865Y124201*X9820Y124087*X9787Y123970*X9761Y123850*X9746Y123731*X9741Y123609*X31560Y98742D2*X31565Y98610D1*X31580Y98478*X31605Y98346*X31638Y98219*X31681Y98092*X31735Y97970*X31798Y97854*X31869Y97742*X31948Y97635*X32034Y97533*X32128Y97439*X32230Y97353*X32337Y97274*X32448Y97203*X32565Y97140*X32687Y97086*X32814Y97043*X32941Y97010*X33073Y96985*X33205Y96970*X33338Y96964*X33470Y96970*X33602Y96985*X33734Y97010*X33861Y97043*X33988Y97086*X34110Y97140*X34226Y97203*X34338Y97274*X34445Y97353*X34547Y97439*X34641Y97533*X34727Y97635*X34806Y97742*X34877Y97854*X34940Y97970*X34994Y98092*X35037Y98219*X35070Y98346*X35095Y98478*X35110Y98610*X35116Y98742*X35110Y98875*X35095Y99007*X35070Y99139*X35037Y99266*X34994Y99393*X34940Y99515*X34877Y99632*X34806Y99743*X34727Y99850*X34641Y99952*X34547Y100046*X34445Y100132*X34338Y100211*X34226Y100282*X34110Y100345*X33988Y100399*X33861Y100442*X33734Y100475*X33602Y100500*X33470Y100515*X33338Y100520*X33205Y100515*X33073Y100500*X32941Y100475*X32814Y100442*X32687Y100399*X32565Y100345*X32448Y100282*X32337Y100211*X32230Y100132*X32128Y100046*X32034Y99952*X31948Y99850*X31869Y99743*X31798Y99632*X31735Y99515*X31681Y99393*X31638Y99266*X31605Y99139*X31580Y99007*X31565Y98875*X31560Y98742*X9741Y89116D2*X9746Y88994D1*X9761Y88875*X9787Y88755*X9820Y88638*X9865Y88524*X9919Y88415*X9980Y88311*X10051Y88212*X10130Y88118*X10216Y88031*X10310Y87953*X10409Y87881*X10513Y87820*X10622Y87767*X10737Y87721*X10853Y87688*X10973Y87663*X11092Y87648*X11214Y87643*X11336Y87648*X11455Y87663*X11575Y87688*X11692Y87721*X11806Y87767*X11915Y87820*X12019Y87881*X12118Y87953*X12212Y88031*X12299Y88118*X12377Y88212*X12449Y88311*X12510Y88415*X12563Y88524*X12609Y88638*X12642Y88755*X12667Y88875*X12682Y88994*X12687Y89116*X12682Y89238*X12667Y89357*X12642Y89477*X12609Y89593*X12563Y89708*X12510Y89817*X12449Y89921*X12377Y90020*X12299Y90114*X12212Y90200*X12118Y90279*X12019Y90350*X11915Y90411*X11806Y90465*X11692Y90510*X11575Y90543*X11455Y90569*X11336Y90584*X11214Y90589*X11092Y90584*X10973Y90569*X10853Y90543*X10737Y90510*X10622Y90465*X10513Y90411*X10409Y90350*X10310Y90279*X10216Y90200*X10130Y90114*X10051Y90020*X9980Y89921*X9919Y89817*X9865Y89708*X9820Y89593*X9787Y89477*X9761Y89357*X9746Y89238*X9741Y89116*X9741Y65189D2*X9746Y65067D1*X9761Y64948*X9787Y64828*X9820Y64712*X9865Y64597*X9919Y64488*X9980Y64384*X10051Y64285*X10130Y64191*X10216Y64105*X10310Y64026*X10409Y63955*X10513Y63894*X10622Y63840*X10737Y63795*X10853Y63762*X10973Y63736*X11092Y63721*X11214Y63716*X11336Y63721*X11455Y63736*X11575Y63762*X11692Y63795*X11806Y63840*X11915Y63894*X12019Y63955*X12118Y64026*X12212Y64105*X12299Y64191*X12377Y64285*X12449Y64384*X12510Y64488*X12563Y64597*X12609Y64712*X12642Y64828*X12667Y64948*X12682Y65067*X12687Y65189*X12682Y65311*X12667Y65430*X12642Y65550*X12609Y65667*X12563Y65781*X12510Y65890*X12449Y65994*X12377Y66093*X12299Y66187*X12212Y66274*X12118Y66352*X12019Y66424*X11915Y66484*X11806Y66538*X11692Y66584*X11575Y66617*X11455Y66642*X11336Y66657*X11214Y66662*X11092Y66657*X10973Y66642*X10853Y66617*X10737Y66584*X10622Y66538*X10513Y66484*X10409Y66424*X10310Y66352*X10216Y66274*X10130Y66187*X10051Y66093*X9980Y65994*X9919Y65890*X9865Y65781*X9820Y65667*X9787Y65550*X9761Y65430*X9746Y65311*X9741Y65189*X31560Y30162D2*X31565Y30030D1*X31580Y29898*X31605Y29766*X31638Y29639*X31681Y29512*X31735Y29390*X31798Y29274*X31869Y29162*X31948Y29055*X32034Y28953*X32128Y28859*X32230Y28773*X32337Y28694*X32448Y28623*X32565Y28560*X32687Y28506*X32814Y28463*X32941Y28430*X33073Y28405*X33205Y28390*X33338Y28384*X33470Y28390*X33602Y28405*X33734Y28430*X33861Y28463*X33988Y28506*X34110Y28560*X34226Y28623*X34338Y28694*X34445Y28773*X34547Y28859*X34641Y28953*X34727Y29055*X34806Y29162*X34877Y29274*X34940Y29390*X34994Y29512*X35037Y29639*X35070Y29766*X35095Y29898*X35110Y30030*X35116Y30162*X35110Y30295*X35095Y30427*X35070Y30559*X35037Y30686*X34994Y30813*X34940Y30935*X34877Y31052*X34806Y31163*X34727Y31270*X34641Y31372*X34547Y31466*X34445Y31552*X34338Y31631*X34226Y31702*X34110Y31765*X33988Y31819*X33861Y31862*X33734Y31895*X33602Y31920*X33470Y31935*X33338Y31940*X33205Y31935*X33073Y31920*X32941Y31895*X32814Y31862*X32687Y31819*X32565Y31765*X32448Y31702*X32337Y31631*X32230Y31552*X32128Y31466*X32034Y31372*X31948Y31270*X31869Y31163*X31798Y31052*X31735Y30935*X31681Y30813*X31638Y30686*X31605Y30559*X31580Y30427*X31565Y30295*X31560Y30162*X43597Y16828D2*X43602Y16708D1*X43617Y16591*X43642Y16474*X43675Y16360*X43721Y16251*X43774Y16144*X43835Y16043*X43906Y15949*X43985Y15860*X44072Y15776*X44163Y15702*X44262Y15636*X44366Y15578*X44475Y15530*X44587Y15489*X44701Y15458*X44818Y15438*X44938Y15428*X45055Y15428*X45174Y15438*X45291Y15458*X45405Y15489*X45517Y15530*X45626Y15578*X45730Y15636*X45829Y15702*X45921Y15776*X46007Y15860*X46086Y15949*X46157Y16043*X46218Y16144*X46271Y16251*X46317Y16360*X46350Y16474*X46375Y16591*X46391Y16708*X46396Y16828*X46391Y16947*X46375Y17064*X46350Y17181*X46317Y17295*X46271Y17404*X46218Y17511*X46157Y17612*X46086Y17706*X46007Y17795*X45921Y17879*X45829Y17953*X45730Y18019*X45626Y18077*X45517Y18125*X45405Y18166*X45291Y18197*X45174Y18217*X45055Y18227*X44938Y18227*X44818Y18217*X44701Y18197*X44587Y18166*X44475Y18125*X44366Y18077*X44262Y18019*X44163Y17953*X44072Y17879*X43985Y17795*X43906Y17706*X43835Y17612*X43774Y17511*X43721Y17404*X43675Y17295*X43642Y17181*X43617Y17064*X43602Y16947*X43597Y16828*X30439Y16828D2*X30444Y16708D1*X30460Y16591*X30485Y16474*X30518Y16360*X30564Y16251*X30617Y16144*X30678Y16043*X30749Y15949*X30828Y15860*X30914Y15776*X31006Y15702*X31105Y15636*X31209Y15578*X31318Y15530*X31430Y15489*X31544Y15458*X31661Y15438*X31780Y15428*X31897Y15428*X32017Y15438*X32134Y15458*X32248Y15489*X32360Y15530*X32469Y15578*X32573Y15636*X32672Y15702*X32763Y15776*X32850Y15860*X32929Y15949*X33000Y16043*X33061Y16144*X33114Y16251*X33160Y16360*X33193Y16474*X33218Y16591*X33233Y16708*X33238Y16828*X33233Y16947*X33218Y17064*X33193Y17181*X33160Y17295*X33114Y17404*X33061Y17511*X33000Y17612*X32929Y17706*X32850Y17795*X32763Y17879*X32672Y17953*X32573Y18019*X32469Y18077*X32360Y18125*X32248Y18166*X32134Y18197*X32017Y18217*X31897Y18227*X31780Y18227*X31661Y18217*X31544Y18197*X31430Y18166*X31318Y18125*X31209Y18077*X31105Y18019*X31006Y17953*X30914Y17879*X30828Y17795*X30749Y17706*X30678Y17612*X30617Y17511*X30564Y17404*X30518Y17295*X30485Y17181*X30460Y17064*X30444Y16947*X30439Y16828*X9741Y30696D2*X9746Y30574D1*X9761Y30455*X9787Y30335*X9820Y30218*X9865Y30104*X9919Y29995*X9980Y29891*X10051Y29792*X10130Y29698*X10216Y29611*X10310Y29533*X10409Y29461*X10513Y29400*X10622Y29347*X10737Y29301*X10853Y29268*X10973Y29243*X11092Y29228*X11214Y29223*X11336Y29228*X11455Y29243*X11575Y29268*X11692Y29301*X11806Y29347*X11915Y29400*X12019Y29461*X12118Y29533*X12212Y29611*X12299Y29698*X12377Y29792*X12449Y29891*X12510Y29995*X12563Y30104*X12609Y30218*X12642Y30335*X12667Y30455*X12682Y30574*X12687Y30696*X12682Y30818*X12667Y30937*X12642Y31057*X12609Y31173*X12563Y31288*X12510Y31397*X12449Y31501*X12377Y31600*X12299Y31694*X12212Y31780*X12118Y31859*X12019Y31930*X11915Y31991*X11806Y32045*X11692Y32090*X11575Y32123*X11455Y32149*X11336Y32164*X11214Y32169*X11092Y32164*X10973Y32149*X10853Y32123*X10737Y32090*X10622Y32045*X10513Y31991*X10409Y31930*X10310Y31859*X10216Y31780*X10130Y31694*X10051Y31600*X9980Y31501*X9919Y31397*X9865Y31288*X9820Y31173*X9787Y31057*X9761Y30937*X9746Y30818*X9741Y30696*X9970Y11748D2*X9975Y11615D1*X9990Y11483*X10015Y11351*X10048Y11224*X10091Y11097*X10145Y10975*X10208Y10858*X10279Y10747*X10358Y10640*X10444Y10538*X10538Y10444*X10640Y10358*X10747Y10279*X10858Y10208*X10975Y10145*X11097Y10091*X11224Y10048*X11351Y10015*X11483Y9990*X11615Y9975*X11748Y9970*X11880Y9975*X12012Y9990*X12144Y10015*X12271Y10048*X12398Y10091*X12520Y10145*X12636Y10208*X12748Y10279*X12855Y10358*X12957Y10444*X13051Y10538*X13137Y10640*X13216Y10747*X13287Y10858*X13350Y10975*X13404Y11097*X13447Y11224*X13480Y11351*X13505Y11483*X13520Y11615*X13526Y11748*X13520Y11880*X13505Y12012*X13480Y12144*X13447Y12271*X13404Y12398*X13350Y12520*X13287Y12636*X13216Y12748*X13137Y12855*X13051Y12957*X12957Y13051*X12855Y13137*X12748Y13216*X12636Y13287*X12520Y13350*X12398Y13404*X12271Y13447*X12144Y13480*X12012Y13505*X11880Y13520*X11748Y13526*X11615Y13520*X11483Y13505*X11351Y13480*X11224Y13447*X11097Y13404*X10975Y13350*X10858Y13287*X10747Y13216*X10640Y13137*X10538Y13051*X10444Y12957*X10358Y12855*X10279Y12748*X10208Y12636*X10145Y12520*X10091Y12398*X10048Y12271*X10015Y12144*X9990Y12012*X9975Y11880*X9970Y11748*X6668Y6668D2*X166688Y6668D1*X166688Y139382*X6668Y139382*X6668Y6668*X0Y0D2*M02*