%
M48
M72
T01C0.0197
T02C0.0276
T03C0.0315
T04C0.0433
T05C0.0472
T06C0.0512
T07C0.1160
T08C0.1260
%
T01
X17910Y6125
X18160Y6625
X18660Y7125
X20910Y7375
X41910Y9125
X48410Y9125
X54910Y9125
X61410Y9125
X67910Y9125
X68410Y8625
X68910Y8125
X69410Y7625
X69910Y7125
X70410Y6625
X70910Y6125
X93410Y21625
X51910Y26375
X51410Y25375
X50910Y25625
X50410Y25625
X49910Y25375
X49410Y25125
X47160Y26625
X46660Y26875
X46160Y27125
X45660Y27375
X45160Y27625
X44660Y27875
X44160Y28125
X43660Y28375
X43160Y28625
T02
X41660Y22875
X41160Y22375
X40660Y22875
X39410Y22125
X38910Y21625
X37910Y21625
X37410Y22125
X36910Y21625
X34660Y22375
X34160Y22875
X35160Y22875
X32910Y22125
X32410Y21625
X31410Y21625
X30910Y22125
X30410Y21625
X28160Y22375
X27660Y22875
X28660Y22875
X26410Y22125
X25910Y21625
X24910Y21625
X24410Y22125
X23910Y21625
X21660Y22375
X21160Y22875
X22160Y22875
X19910Y22125
X19410Y21625
X18410Y21625
X17910Y22125
X17410Y21625
X15160Y22375
X14660Y22875
X15660Y22875
X13410Y22125
X12910Y21625
X11910Y21625
X11410Y22125
X10910Y21625
X8660Y22375
X8160Y22875
X9160Y22875
X6910Y22125
X6410Y21625
X5410Y21625
X4910Y22125
X4410Y21625
X7410Y21625
X6910Y20625
X6410Y20125
X5410Y20125
X4410Y20125
X4910Y20625
X7410Y20125
X6910Y19125
X6410Y18625
X5410Y18625
X4410Y18625
X4910Y19125
X7410Y18625
X6910Y17625
X6410Y17125
X5410Y17125
X4910Y17625
X4410Y17125
X7410Y17125
X6910Y16125
X6410Y15625
X5410Y15625
X4410Y15625
X4910Y16125
X7410Y15625
X6910Y14625
X6410Y14125
X5410Y14125
X4410Y14125
X4910Y14625
X7410Y14125
X6910Y13125
X6410Y12625
X5410Y12625
X4910Y13125
X4410Y12625
X7410Y12625
X6910Y11625
X6410Y11125
X5410Y11125
X4910Y11625
X4410Y11125
X7410Y11125
X10910Y11125
X11410Y11625
X11910Y11125
X12910Y11125
X13410Y11625
X13910Y11125
X13910Y12625
X13410Y13125
X12910Y12625
X11910Y12625
X11410Y13125
X10910Y12625
X10910Y14125
X11910Y14125
X12910Y14125
X13910Y14125
X13410Y14625
X12910Y15625
X11910Y15625
X10910Y15625
X11410Y16125
X13410Y16125
X13910Y15625
X11410Y14625
X17410Y14125
X18410Y14125
X19410Y14125
X20410Y14125
X19910Y14625
X19410Y15625
X18410Y15625
X17410Y15625
X17910Y16125
X19910Y16125
X20410Y15625
X17910Y14625
X17910Y13125
X17410Y12625
X18410Y12625
X19410Y12625
X19910Y13125
X20410Y12625
X19910Y11625
X19410Y11125
X18410Y11125
X17910Y11625
X17410Y11125
X20410Y11125
X23910Y11125
X24410Y11625
X24910Y11125
X25910Y11125
X26410Y11625
X26910Y11125
X26910Y12625
X26410Y13125
X25910Y12625
X24910Y12625
X24410Y13125
X23910Y12625
X23910Y14125
X24910Y14125
X25910Y14125
X26910Y14125
X26410Y14625
X25910Y15625
X24910Y15625
X23910Y15625
X24410Y16125
X26410Y16125
X26910Y15625
X24410Y14625
X30410Y14125
X31410Y14125
X32410Y14125
X33410Y14125
X32910Y14625
X32410Y15625
X31410Y15625
X30410Y15625
X30910Y16125
X32910Y16125
X33410Y15625
X30910Y14625
X30910Y13125
X30410Y12625
X31410Y12625
X32410Y12625
X32910Y13125
X33410Y12625
X32910Y11625
X32410Y11125
X31410Y11125
X30910Y11625
X30410Y11125
X33410Y11125
X36910Y11125
X37410Y11625
X37910Y11125
X38910Y11125
X39410Y11625
X39910Y11125
X39910Y12625
X39410Y13125
X38910Y12625
X37910Y12625
X37410Y13125
X36910Y12625
X36910Y14125
X37910Y14125
X38910Y14125
X39910Y14125
X39410Y14625
X38910Y15625
X37910Y15625
X36910Y15625
X37410Y16125
X39410Y16125
X39910Y15625
X37410Y14625
X43410Y14125
X44410Y14125
X45410Y14125
X46410Y14125
X45910Y14625
X45410Y15625
X44410Y15625
X43410Y15625
X43910Y16125
X45910Y16125
X46410Y15625
X43910Y14625
X43910Y13125
X43410Y12625
X44410Y12625
X45410Y12625
X45910Y13125
X46410Y12625
X45910Y11625
X45410Y11125
X44410Y11125
X43910Y11625
X43410Y11125
X46410Y11125
X49910Y11125
X50410Y11625
X50910Y11125
X51910Y11125
X52410Y11625
X52910Y11125
X52910Y12625
X52410Y13125
X51910Y12625
X50910Y12625
X50410Y13125
X49910Y12625
X49910Y14125
X50910Y14125
X51910Y14125
X52910Y14125
X52410Y14625
X51910Y15625
X50910Y15625
X49910Y15625
X50410Y16125
X52410Y16125
X52910Y15625
X50410Y14625
X56410Y14125
X57410Y14125
X58410Y14125
X59410Y14125
X58910Y14625
X58410Y15625
X57410Y15625
X56410Y15625
X56910Y16125
X58910Y16125
X59410Y15625
X56910Y14625
X56910Y13125
X56410Y12625
X57410Y12625
X58410Y12625
X58910Y13125
X59410Y12625
X58910Y11625
X58410Y11125
X57410Y11125
X56910Y11625
X56410Y11125
X59410Y11125
X62910Y11125
X63410Y11625
X63910Y11125
X64910Y11125
X65410Y11625
X65910Y11125
X65910Y12625
X65410Y13125
X64910Y12625
X63910Y12625
X63410Y13125
X62910Y12625
X62910Y14125
X63910Y14125
X64910Y14125
X65910Y14125
X65410Y14625
X64910Y15625
X63910Y15625
X62910Y15625
X63410Y16125
X65410Y16125
X65910Y15625
X63410Y14625
X69410Y14125
X70410Y14125
X71410Y14125
X72410Y14125
X71910Y14625
X71410Y15625
X70410Y15625
X69410Y15625
X69910Y16125
X71910Y16125
X72410Y15625
X69910Y14625
X69910Y13125
X69410Y12625
X70410Y12625
X71410Y12625
X71910Y13125
X72410Y12625
X71910Y11625
X71410Y11125
X70410Y11125
X69910Y11625
X69410Y11125
X72410Y11125
X75910Y11125
X76410Y11625
X76910Y11125
X77910Y11125
X78410Y11625
X78910Y11125
X78910Y12625
X78410Y13125
X77910Y12625
X76910Y12625
X76410Y13125
X75910Y12625
X75910Y14125
X76910Y14125
X77910Y14125
X78910Y14125
X78410Y14625
X77910Y15625
X76910Y15625
X75910Y15625
X76410Y16125
X78410Y16125
X78910Y15625
X76410Y14625
X82410Y14125
X83410Y14125
X84410Y14125
X85410Y14125
X84910Y14625
X84410Y15625
X83410Y15625
X82410Y15625
X82910Y16125
X84910Y16125
X85410Y15625
X82910Y14625
X82910Y13125
X82410Y12625
X83410Y12625
X84410Y12625
X84910Y13125
X85410Y12625
X84910Y11625
X84410Y11125
X83410Y11125
X82910Y11625
X82410Y11125
X85410Y11125
X88910Y11125
X89410Y11625
X89910Y11125
X90910Y11125
X91410Y11625
X91910Y11125
X91910Y12625
X91410Y13125
X90910Y12625
X89910Y12625
X89410Y13125
X88910Y12625
X88910Y14125
X89910Y14125
X90910Y14125
X91910Y14125
X91410Y14625
X90910Y15625
X89910Y15625
X88910Y15625
X89410Y16125
X91410Y16125
X91910Y15625
X89410Y14625
X95410Y14125
X96410Y14125
X97410Y14125
X98410Y14125
X97910Y14625
X97410Y15625
X96410Y15625
X95410Y15625
X95910Y16125
X97910Y16125
X98410Y15625
X95910Y14625
X95910Y13125
X95410Y12625
X96410Y12625
X97410Y12625
X97910Y13125
X98410Y12625
X97910Y11625
X97410Y11125
X96410Y11125
X95910Y11625
X95410Y11125
X98410Y11125
X101910Y11125
X102410Y11625
X102910Y11125
X103910Y11125
X104410Y11625
X104910Y11125
X104910Y12625
X104410Y13125
X103910Y12625
X102910Y12625
X102410Y13125
X101910Y12625
X101910Y14125
X102910Y14125
X103910Y14125
X104910Y14125
X104410Y14625
X103910Y15625
X102910Y15625
X101910Y15625
X102410Y16125
X104410Y16125
X104910Y15625
X102410Y14625
X101910Y17125
X102410Y17625
X102910Y17125
X103910Y17125
X104410Y17625
X104910Y17125
X104910Y18625
X103910Y18625
X102910Y18625
X101910Y18625
X102410Y19125
X101910Y20125
X102910Y20125
X103910Y20125
X104910Y20125
X104410Y20625
X102410Y20625
X101910Y21625
X102410Y22125
X102910Y21625
X103910Y21625
X104410Y22125
X104910Y21625
X106160Y22375
X105660Y22875
X106660Y22875
X100160Y22875
X99660Y22375
X99160Y22875
X97910Y22125
X97410Y21625
X96410Y21625
X95910Y22125
X95410Y21625
X93410Y22375
X92910Y22875
X93910Y22875
X91410Y22125
X90910Y21625
X89910Y21625
X89410Y22125
X88910Y21625
X86660Y22375
X86160Y22875
X87160Y22875
X84910Y22125
X84410Y21625
X83410Y21625
X82910Y22125
X82410Y21625
X80160Y22375
X79660Y22875
X80660Y22875
X78410Y22125
X77910Y21625
X76910Y21625
X76410Y22125
X75910Y21625
X73660Y22375
X73160Y22875
X74160Y22875
X71910Y22125
X71410Y21625
X70410Y21625
X69910Y22125
X69410Y21625
X67160Y22375
X66660Y22875
X67660Y22875
X65410Y22125
X64910Y21625
X63910Y21625
X63410Y22125
X62910Y21625
X60660Y22375
X60160Y22875
X61160Y22875
X58910Y22125
X58410Y21625
X57410Y21625
X56910Y22125
X56410Y21625
X54160Y22375
X53660Y22875
X54660Y22875
X52410Y22125
X51910Y21625
X50910Y21625
X50410Y22125
X49910Y21625
X47660Y22375
X47160Y22875
X48160Y22875
X45910Y22125
X45410Y21625
X44410Y21625
X43910Y22125
X43410Y21625
X46410Y21625
X45910Y20625
X45410Y20125
X44410Y20125
X43410Y20125
X43910Y20625
X46410Y20125
X45910Y19125
X45410Y18625
X44410Y18625
X43410Y18625
X43910Y19125
X46410Y18625
X45910Y17625
X45410Y17125
X44410Y17125
X43910Y17625
X43410Y17125
X46410Y17125
X49910Y17125
X50410Y17625
X50910Y17125
X51910Y17125
X52410Y17625
X52910Y17125
X52910Y18625
X51910Y18625
X50910Y18625
X49910Y18625
X50410Y19125
X49910Y20125
X50910Y20125
X51910Y20125
X52910Y20125
X52410Y20625
X50410Y20625
X52910Y21625
X56910Y20625
X56410Y20125
X57410Y20125
X58410Y20125
X59410Y20125
X58910Y20625
X59410Y21625
X63410Y20625
X62910Y20125
X63910Y20125
X64910Y20125
X65910Y20125
X65410Y20625
X65910Y21625
X69910Y20625
X69410Y20125
X70410Y20125
X71410Y20125
X72410Y20125
X71910Y20625
X72410Y21625
X76410Y20625
X75910Y20125
X76910Y20125
X77910Y20125
X78910Y20125
X78410Y20625
X78910Y21625
X82910Y20625
X82410Y20125
X83410Y20125
X84410Y20125
X85410Y20125
X84910Y20625
X85410Y21625
X89410Y20625
X88910Y20125
X89910Y20125
X90910Y20125
X91910Y20125
X91410Y20625
X91910Y21625
X95910Y20625
X95410Y20125
X96410Y20125
X97410Y20125
X98410Y20125
X97910Y20625
X98410Y21625
X97910Y19125
X97410Y18625
X96410Y18625
X95410Y18625
X95910Y19125
X98410Y18625
X97910Y17625
X97410Y17125
X96410Y17125
X95910Y17625
X95410Y17125
X98410Y17125
X104410Y19125
X91910Y18625
X90910Y18625
X89910Y18625
X88910Y18625
X89410Y19125
X91410Y19125
X91410Y17625
X90910Y17125
X89910Y17125
X89410Y17625
X88910Y17125
X91910Y17125
X85410Y17125
X84910Y17625
X84410Y17125
X83410Y17125
X82910Y17625
X82410Y17125
X82410Y18625
X83410Y18625
X84410Y18625
X85410Y18625
X84910Y19125
X82910Y19125
X78910Y18625
X77910Y18625
X76910Y18625
X75910Y18625
X76410Y19125
X78410Y19125
X78410Y17625
X77910Y17125
X76910Y17125
X76410Y17625
X75910Y17125
X78910Y17125
X72410Y17125
X71910Y17625
X71410Y17125
X70410Y17125
X69910Y17625
X69410Y17125
X69410Y18625
X70410Y18625
X71410Y18625
X72410Y18625
X71910Y19125
X69910Y19125
X65910Y18625
X64910Y18625
X63910Y18625
X62910Y18625
X63410Y19125
X65410Y19125
X65410Y17625
X64910Y17125
X63910Y17125
X63410Y17625
X62910Y17125
X65910Y17125
X59410Y17125
X58910Y17625
X58410Y17125
X57410Y17125
X56910Y17625
X56410Y17125
X56410Y18625
X57410Y18625
X58410Y18625
X59410Y18625
X58910Y19125
X56910Y19125
X52410Y19125
X39910Y18625
X38910Y18625
X37910Y18625
X36910Y18625
X37410Y19125
X36910Y20125
X37910Y20125
X38910Y20125
X39910Y20125
X39410Y20625
X37410Y20625
X39910Y21625
X33410Y21625
X32910Y20625
X32410Y20125
X31410Y20125
X30410Y20125
X30910Y20625
X33410Y20125
X32910Y19125
X32410Y18625
X31410Y18625
X30410Y18625
X30910Y19125
X33410Y18625
X32910Y17625
X32410Y17125
X31410Y17125
X30910Y17625
X30410Y17125
X33410Y17125
X36910Y17125
X37410Y17625
X37910Y17125
X38910Y17125
X39410Y17625
X39910Y17125
X39410Y19125
X26910Y18625
X25910Y18625
X24910Y18625
X23910Y18625
X24410Y19125
X23910Y20125
X24910Y20125
X25910Y20125
X26910Y20125
X26410Y20625
X24410Y20625
X26910Y21625
X20410Y21625
X19910Y20625
X19410Y20125
X18410Y20125
X17410Y20125
X17910Y20625
X20410Y20125
X19910Y19125
X19410Y18625
X18410Y18625
X17410Y18625
X17910Y19125
X20410Y18625
X19910Y17625
X19410Y17125
X18410Y17125
X17910Y17625
X17410Y17125
X20410Y17125
X23910Y17125
X24410Y17625
X24910Y17125
X25910Y17125
X26410Y17625
X26910Y17125
X26410Y19125
X13910Y18625
X12910Y18625
X11910Y18625
X10910Y18625
X11410Y19125
X10910Y20125
X11910Y20125
X12910Y20125
X13910Y20125
X13410Y20625
X11410Y20625
X13910Y21625
X13410Y19125
X13410Y17625
X12910Y17125
X11910Y17125
X11410Y17625
X10910Y17125
X13910Y17125
X75160Y28625
X75660Y29125
X76660Y28625
X77160Y29125
X76660Y29625
X75160Y29625
X86660Y29625
X88160Y29625
X88660Y29125
X88160Y28625
X87160Y29125
X86660Y28625
T03
X85660Y28125
X84160Y28625
X84160Y29625
X85660Y30125
X89660Y30125
X90410Y30125
X90410Y28125
X89660Y28125
X79660Y28625
X78160Y28125
X74160Y28125
X73410Y28125
X73410Y30125
X74160Y30125
X78160Y30125
X79660Y29625
X76660Y25625
X74660Y25625
X76160Y24375
X77160Y24375
X76160Y23125
X78160Y23125
X82660Y23125
X84660Y23125
X83660Y24375
X82660Y24375
X89160Y24375
X90160Y24375
X89160Y23125
X91160Y23125
X95660Y23125
X97660Y23125
X96660Y24375
X95660Y24375
X101410Y26125
X103410Y26125
X103160Y24375
X102160Y24375
X102160Y23125
X104160Y23125
X105910Y21125
X106910Y21125
X106910Y19125
X105910Y19125
X105910Y18125
X106910Y18125
X106910Y16125
X105910Y16125
X105910Y15125
X106910Y15125
X106910Y13125
X105910Y13125
X105910Y12125
X106910Y12125
X106910Y10125
X105910Y10125
X104160Y10125
X102160Y10125
X100410Y10125
X99410Y10125
X97660Y10125
X95660Y10125
X93910Y10125
X92910Y10125
X91160Y10125
X89160Y10125
X87410Y10125
X86410Y10125
X84660Y10125
X82660Y10125
X80910Y10125
X79910Y10125
X78160Y10125
X76160Y10125
X74410Y10125
X73410Y10125
X71660Y10125
X69660Y10125
X67910Y10125
X66910Y10125
X65160Y10125
X63160Y10125
X61410Y10125
X60410Y10125
X58660Y10125
X56660Y10125
X54910Y10125
X53910Y10125
X52160Y10125
X50160Y10125
X48410Y10125
X47410Y10125
X45660Y10125
X43660Y10125
X41910Y10125
X40910Y10125
X39160Y10125
X37160Y10125
X35410Y10125
X34410Y10125
X32660Y10125
X30660Y10125
X28910Y10125
X27910Y10125
X26160Y10125
X24160Y10125
X22410Y10125
X21410Y10125
X19660Y10125
X17660Y10125
X15910Y10125
X14910Y10125
X13160Y10125
X11160Y10125
X9410Y10125
X8410Y10125
X6660Y10125
X4660Y10125
X6410Y9125
X7410Y9125
X12910Y9125
X13910Y9125
X19410Y9125
X20410Y9125
X25910Y9125
X26910Y9125
X32410Y9125
X33410Y9125
X38910Y9125
X39910Y9125
X45410Y9125
X46410Y9125
X51910Y9125
X52910Y9125
X58410Y9125
X59410Y9125
X64910Y9125
X65910Y9125
X71410Y9125
X72410Y9125
X77910Y9125
X78910Y9125
X84410Y9125
X85410Y9125
X90910Y9125
X91910Y9125
X97410Y9125
X98410Y9125
X103910Y9125
X104910Y9125
X104410Y6875
X102410Y6875
X100410Y12125
X99410Y12125
X99410Y13125
X100410Y13125
X100410Y15125
X99410Y15125
X99410Y16125
X100410Y16125
X100410Y18125
X99410Y18125
X99410Y19125
X100410Y19125
X100410Y21125
X99410Y21125
X93910Y21125
X92910Y21125
X92910Y19125
X93910Y19125
X93910Y18125
X92910Y18125
X87410Y18125
X86410Y18125
X86410Y19125
X87410Y19125
X87410Y21125
X86410Y21125
X80910Y21125
X79910Y21125
X79910Y19125
X80910Y19125
X80910Y18125
X79910Y18125
X74410Y18125
X73410Y18125
X73410Y19125
X74410Y19125
X74410Y21125
X73410Y21125
X67910Y21125
X66910Y21125
X66910Y19125
X67910Y19125
X67910Y18125
X66910Y18125
X61410Y18125
X60410Y18125
X60410Y19125
X61410Y19125
X61410Y21125
X60410Y21125
X54910Y21125
X53910Y21125
X53910Y19125
X54910Y19125
X54910Y18125
X53910Y18125
X48410Y18125
X47410Y18125
X47410Y19125
X48410Y19125
X48410Y21125
X47410Y21125
X41910Y21125
X40910Y21125
X40910Y19125
X41910Y19125
X41910Y18125
X40910Y18125
X35410Y18125
X34410Y18125
X34410Y19125
X35410Y19125
X35410Y21125
X34410Y21125
X28910Y21125
X27910Y21125
X27910Y19125
X28910Y19125
X28910Y18125
X27910Y18125
X22410Y18125
X21410Y18125
X21410Y19125
X22410Y19125
X22410Y21125
X21410Y21125
X15910Y21125
X14910Y21125
X14910Y19125
X15910Y19125
X15910Y18125
X14910Y18125
X9410Y18125
X8410Y18125
X8410Y19125
X9410Y19125
X9410Y21125
X8410Y21125
X6660Y23125
X4660Y23125
X4660Y24375
X5660Y24375
X11160Y24375
X12160Y24375
X11160Y23125
X13160Y23125
X17660Y23125
X19660Y23125
X18660Y24375
X17660Y24375
X24160Y24375
X25160Y24375
X24160Y23125
X26160Y23125
X30660Y23125
X32660Y23125
X31660Y24375
X30660Y24375
X37160Y24375
X38160Y24375
X37160Y23125
X39160Y23125
X43660Y23125
X45660Y23125
X44660Y24375
X43660Y24375
X50160Y24375
X51160Y24375
X50160Y23125
X52160Y23125
X56660Y23125
X58660Y23125
X57660Y24375
X56660Y24375
X63160Y24375
X64160Y24375
X63160Y23125
X65160Y23125
X69660Y23125
X71660Y23125
X70660Y24375
X69660Y24375
X67910Y16125
X66910Y16125
X66910Y15125
X67910Y15125
X73410Y15125
X74410Y15125
X74410Y16125
X73410Y16125
X79910Y16125
X80910Y16125
X80910Y15125
X79910Y15125
X79910Y13125
X80910Y13125
X80910Y12125
X79910Y12125
X74410Y12125
X73410Y12125
X73410Y13125
X74410Y13125
X67910Y13125
X66910Y13125
X66910Y12125
X67910Y12125
X61410Y12125
X60410Y12125
X60410Y13125
X61410Y13125
X61410Y15125
X60410Y15125
X60410Y16125
X61410Y16125
X54910Y16125
X53910Y16125
X53910Y15125
X54910Y15125
X54910Y13125
X53910Y13125
X53910Y12125
X54910Y12125
X48410Y12125
X47410Y12125
X47410Y13125
X48410Y13125
X48410Y15125
X47410Y15125
X47410Y16125
X48410Y16125
X41910Y16125
X40910Y16125
X40910Y15125
X41910Y15125
X41910Y13125
X40910Y13125
X40910Y12125
X41910Y12125
X35410Y12125
X34410Y12125
X34410Y13125
X35410Y13125
X35410Y15125
X34410Y15125
X34410Y16125
X35410Y16125
X28910Y16125
X27910Y16125
X27910Y15125
X28910Y15125
X28910Y13125
X27910Y13125
X27910Y12125
X28910Y12125
X22410Y12125
X21410Y12125
X21410Y13125
X22410Y13125
X22410Y15125
X21410Y15125
X21410Y16125
X22410Y16125
X15910Y16125
X14910Y16125
X14910Y15125
X15910Y15125
X15910Y13125
X14910Y13125
X14910Y12125
X15910Y12125
X9410Y12125
X8410Y12125
X8410Y13125
X9410Y13125
X9410Y15125
X8410Y15125
X8410Y16125
X9410Y16125
X9410Y27125
X11410Y27125
X16160Y28625
X17160Y28625
X39660Y27125
X41660Y27125
X86410Y16125
X87410Y16125
X87410Y15125
X86410Y15125
X86410Y13125
X87410Y13125
X87410Y12125
X86410Y12125
X92910Y12125
X93910Y12125
X93910Y13125
X92910Y13125
X92910Y15125
X93910Y15125
X93910Y16125
X92910Y16125
X79410Y5125
X77410Y5125
X40910Y5125
X38910Y5125
T04
X27910Y5125
X26910Y5125
X25910Y5125
X24910Y5125
X23910Y5125
X22910Y5125
X21910Y5125
X20910Y5125
X19910Y5125
X18910Y5125
X18910Y4125
X19910Y4125
X20910Y4125
X21910Y4125
X22910Y4125
X23910Y4125
X24910Y4125
X25910Y4125
X26910Y4125
X27910Y4125
X54660Y4125
X55660Y4125
X56660Y4125
X57660Y4125
X58660Y4125
X59660Y4125
X60660Y4125
X61660Y4125
X62660Y4125
X63660Y4125
X64660Y4125
X65660Y4125
X66660Y4125
X67660Y4125
X68660Y4125
X68660Y5125
X67660Y5125
X66660Y5125
X65660Y5125
X64660Y5125
X63660Y5125
X62660Y5125
X61660Y5125
X60660Y5125
X59660Y5125
X58660Y5125
X57660Y5125
X56660Y5125
X55660Y5125
X54660Y5125
X51910Y29625
X50910Y29625
X49910Y29625
X48910Y29625
X47910Y29625
X46910Y29625
X45910Y29625
X44910Y29625
X43910Y29625
X42910Y29625
X42910Y30625
X43910Y30625
X44910Y30625
X45910Y30625
X46910Y30625
X47910Y30625
X48910Y30625
X49910Y30625
X50910Y30625
X51910Y30625
T05
X80910Y29375
X82910Y29375
T06
X11910Y30875
X8660Y30875
T07
X40620Y30335
X54200Y30335
X52370Y4415
X70950Y4415
X30200Y4415
X16620Y4415
T08
X4660Y3875
X4660Y30875
X106660Y30875
X106660Y3875
M30
