G75*
G70*
%OFA0B0*%
%FSLAX24Y24*%
%IPPOS*%
%LPD*%
%AMOC8*
5,1,8,0,0,1.08239X$1,22.5*
%
%ADD10C,0.0595*%
%ADD11C,0.0556*%
%ADD12R,0.0730X0.0730*%
%ADD13C,0.0730*%
%ADD14C,0.1240*%
%ADD15R,0.1580X0.1580*%
%ADD16R,0.0789X0.0789*%
%ADD17C,0.1340*%
D10*
X006410Y009125D03*
X007410Y009125D03*
X006660Y010125D03*
X008410Y010125D03*
X009410Y010125D03*
X011160Y010125D03*
X013160Y010125D03*
X014910Y010125D03*
X015910Y010125D03*
X017660Y010125D03*
X019660Y010125D03*
X021410Y010125D03*
X022410Y010125D03*
X024160Y010125D03*
X026160Y010125D03*
X027910Y010125D03*
X028910Y010125D03*
X030660Y010125D03*
X032660Y010125D03*
X034410Y010125D03*
X035410Y010125D03*
X037160Y010125D03*
X039160Y010125D03*
X040910Y010125D03*
X041910Y010125D03*
X043660Y010125D03*
X045660Y010125D03*
X047410Y010125D03*
X048410Y010125D03*
X050160Y010125D03*
X052160Y010125D03*
X053910Y010125D03*
X054910Y010125D03*
X056660Y010125D03*
X058660Y010125D03*
X060410Y010125D03*
X061410Y010125D03*
X063160Y010125D03*
X065160Y010125D03*
X066910Y010125D03*
X067910Y010125D03*
X069660Y010125D03*
X071660Y010125D03*
X073410Y010125D03*
X074410Y010125D03*
X076160Y010125D03*
X078160Y010125D03*
X079910Y010125D03*
X080910Y010125D03*
X082660Y010125D03*
X084660Y010125D03*
X086410Y010125D03*
X087410Y010125D03*
X089160Y010125D03*
X091160Y010125D03*
X092910Y010125D03*
X093910Y010125D03*
X095660Y010125D03*
X097660Y010125D03*
X099410Y010125D03*
X100410Y010125D03*
X102160Y010125D03*
X104160Y010125D03*
X105910Y010125D03*
X106910Y010125D03*
X104910Y009125D03*
X103910Y009125D03*
X098410Y009125D03*
X097410Y009125D03*
X091910Y009125D03*
X090910Y009125D03*
X085410Y009125D03*
X084410Y009125D03*
X078910Y009125D03*
X077910Y009125D03*
X072410Y009125D03*
X071410Y009125D03*
X065910Y009125D03*
X064910Y009125D03*
X059410Y009125D03*
X058410Y009125D03*
X052910Y009125D03*
X051910Y009125D03*
X046410Y009125D03*
X045410Y009125D03*
X039910Y009125D03*
X038910Y009125D03*
X033410Y009125D03*
X032410Y009125D03*
X026910Y009125D03*
X025910Y009125D03*
X020410Y009125D03*
X019410Y009125D03*
X013910Y009125D03*
X012910Y009125D03*
X004660Y010125D03*
X008410Y012125D03*
X009410Y012125D03*
X009410Y013125D03*
X008410Y013125D03*
X008410Y015125D03*
X009410Y015125D03*
X009410Y016125D03*
X008410Y016125D03*
X008410Y018125D03*
X009410Y018125D03*
X009410Y019125D03*
X008410Y019125D03*
X008410Y021125D03*
X009410Y021125D03*
X014910Y021125D03*
X015910Y021125D03*
X015910Y019125D03*
X014910Y019125D03*
X014910Y018125D03*
X015910Y018125D03*
X021410Y018125D03*
X022410Y018125D03*
X022410Y019125D03*
X021410Y019125D03*
X021410Y021125D03*
X022410Y021125D03*
X027910Y021125D03*
X028910Y021125D03*
X028910Y019125D03*
X027910Y019125D03*
X027910Y018125D03*
X028910Y018125D03*
X034410Y018125D03*
X035410Y018125D03*
X035410Y019125D03*
X034410Y019125D03*
X034410Y021125D03*
X035410Y021125D03*
X040910Y021125D03*
X041910Y021125D03*
X041910Y019125D03*
X040910Y019125D03*
X040910Y018125D03*
X041910Y018125D03*
X047410Y018125D03*
X048410Y018125D03*
X048410Y019125D03*
X047410Y019125D03*
X047410Y021125D03*
X048410Y021125D03*
X053910Y021125D03*
X054910Y021125D03*
X054910Y019125D03*
X053910Y019125D03*
X053910Y018125D03*
X054910Y018125D03*
X060410Y018125D03*
X061410Y018125D03*
X061410Y019125D03*
X060410Y019125D03*
X060410Y021125D03*
X061410Y021125D03*
X066910Y021125D03*
X067910Y021125D03*
X067910Y019125D03*
X066910Y019125D03*
X066910Y018125D03*
X067910Y018125D03*
X073410Y018125D03*
X074410Y018125D03*
X074410Y019125D03*
X073410Y019125D03*
X073410Y021125D03*
X074410Y021125D03*
X079910Y021125D03*
X080910Y021125D03*
X080910Y019125D03*
X079910Y019125D03*
X079910Y018125D03*
X080910Y018125D03*
X086410Y018125D03*
X087410Y018125D03*
X087410Y019125D03*
X086410Y019125D03*
X086410Y021125D03*
X087410Y021125D03*
X092910Y021125D03*
X093910Y021125D03*
X093910Y019125D03*
X092910Y019125D03*
X092910Y018125D03*
X093910Y018125D03*
X099410Y018125D03*
X100410Y018125D03*
X100410Y019125D03*
X099410Y019125D03*
X099410Y021125D03*
X100410Y021125D03*
X105910Y021125D03*
X106910Y021125D03*
X106910Y019125D03*
X105910Y019125D03*
X105910Y018125D03*
X106910Y018125D03*
X106910Y016125D03*
X105910Y016125D03*
X105910Y015125D03*
X106910Y015125D03*
X106910Y013125D03*
X105910Y013125D03*
X105910Y012125D03*
X106910Y012125D03*
X100410Y012125D03*
X099410Y012125D03*
X099410Y013125D03*
X100410Y013125D03*
X100410Y015125D03*
X099410Y015125D03*
X099410Y016125D03*
X100410Y016125D03*
X093910Y016125D03*
X092910Y016125D03*
X092910Y015125D03*
X093910Y015125D03*
X093910Y013125D03*
X092910Y013125D03*
X092910Y012125D03*
X093910Y012125D03*
X087410Y012125D03*
X086410Y012125D03*
X086410Y013125D03*
X087410Y013125D03*
X087410Y015125D03*
X086410Y015125D03*
X086410Y016125D03*
X087410Y016125D03*
X080910Y016125D03*
X079910Y016125D03*
X079910Y015125D03*
X080910Y015125D03*
X080910Y013125D03*
X079910Y013125D03*
X079910Y012125D03*
X080910Y012125D03*
X074410Y012125D03*
X073410Y012125D03*
X073410Y013125D03*
X074410Y013125D03*
X074410Y015125D03*
X073410Y015125D03*
X073410Y016125D03*
X074410Y016125D03*
X067910Y016125D03*
X066910Y016125D03*
X066910Y015125D03*
X067910Y015125D03*
X067910Y013125D03*
X066910Y013125D03*
X066910Y012125D03*
X067910Y012125D03*
X061410Y012125D03*
X060410Y012125D03*
X060410Y013125D03*
X061410Y013125D03*
X061410Y015125D03*
X060410Y015125D03*
X060410Y016125D03*
X061410Y016125D03*
X054910Y016125D03*
X053910Y016125D03*
X053910Y015125D03*
X054910Y015125D03*
X054910Y013125D03*
X053910Y013125D03*
X053910Y012125D03*
X054910Y012125D03*
X048410Y012125D03*
X047410Y012125D03*
X047410Y013125D03*
X048410Y013125D03*
X048410Y015125D03*
X047410Y015125D03*
X047410Y016125D03*
X048410Y016125D03*
X041910Y016125D03*
X040910Y016125D03*
X040910Y015125D03*
X041910Y015125D03*
X041910Y013125D03*
X040910Y013125D03*
X040910Y012125D03*
X041910Y012125D03*
X035410Y012125D03*
X034410Y012125D03*
X034410Y013125D03*
X035410Y013125D03*
X035410Y015125D03*
X034410Y015125D03*
X034410Y016125D03*
X035410Y016125D03*
X028910Y016125D03*
X027910Y016125D03*
X027910Y015125D03*
X028910Y015125D03*
X028910Y013125D03*
X027910Y013125D03*
X027910Y012125D03*
X028910Y012125D03*
X022410Y012125D03*
X021410Y012125D03*
X021410Y013125D03*
X022410Y013125D03*
X022410Y015125D03*
X021410Y015125D03*
X021410Y016125D03*
X022410Y016125D03*
X015910Y016125D03*
X014910Y016125D03*
X014910Y015125D03*
X015910Y015125D03*
X015910Y013125D03*
X014910Y013125D03*
X014910Y012125D03*
X015910Y012125D03*
X038910Y005125D03*
X040910Y005125D03*
X077410Y005125D03*
X079410Y005125D03*
X102410Y006875D03*
X104410Y006875D03*
X104160Y023125D03*
X102160Y023125D03*
X102160Y024375D03*
X103160Y024375D03*
X103410Y026125D03*
X101410Y026125D03*
X096660Y024375D03*
X095660Y024375D03*
X095660Y023125D03*
X097660Y023125D03*
X091160Y023125D03*
X089160Y023125D03*
X089160Y024375D03*
X090160Y024375D03*
X084660Y023125D03*
X082660Y023125D03*
X082660Y024375D03*
X083660Y024375D03*
X078160Y023125D03*
X076160Y023125D03*
X076160Y024375D03*
X077160Y024375D03*
X076660Y025625D03*
X074660Y025625D03*
X070660Y024375D03*
X069660Y024375D03*
X069660Y023125D03*
X071660Y023125D03*
X065160Y023125D03*
X063160Y023125D03*
X063160Y024375D03*
X064160Y024375D03*
X058660Y023125D03*
X056660Y023125D03*
X056660Y024375D03*
X057660Y024375D03*
X052160Y023125D03*
X050160Y023125D03*
X050160Y024375D03*
X051160Y024375D03*
X045660Y023125D03*
X043660Y023125D03*
X043660Y024375D03*
X044660Y024375D03*
X039160Y023125D03*
X037160Y023125D03*
X037160Y024375D03*
X038160Y024375D03*
X032660Y023125D03*
X030660Y023125D03*
X030660Y024375D03*
X031660Y024375D03*
X026160Y023125D03*
X024160Y023125D03*
X024160Y024375D03*
X025160Y024375D03*
X019660Y023125D03*
X017660Y023125D03*
X017660Y024375D03*
X018660Y024375D03*
X013160Y023125D03*
X011160Y023125D03*
X011160Y024375D03*
X012160Y024375D03*
X006660Y023125D03*
X004660Y023125D03*
X004660Y024375D03*
X005660Y024375D03*
X009410Y027125D03*
X011410Y027125D03*
X016160Y028625D03*
X017160Y028625D03*
X039660Y027125D03*
X041660Y027125D03*
X073410Y028125D03*
X074160Y028125D03*
X078160Y028125D03*
X079660Y028625D03*
X079660Y029625D03*
X078160Y030125D03*
X074160Y030125D03*
X073410Y030125D03*
X084160Y029625D03*
X085660Y030125D03*
X089660Y030125D03*
X090410Y030125D03*
X090410Y028125D03*
X089660Y028125D03*
X085660Y028125D03*
X084160Y028625D03*
D11*
X086660Y028625D03*
X087160Y029125D03*
X088160Y028625D03*
X088660Y029125D03*
X088160Y029625D03*
X086660Y029625D03*
X077160Y029125D03*
X076660Y028625D03*
X075660Y029125D03*
X075160Y028625D03*
X075160Y029625D03*
X076660Y029625D03*
X074160Y022875D03*
X073660Y022375D03*
X073160Y022875D03*
X071910Y022125D03*
X071410Y021625D03*
X070410Y021625D03*
X069910Y022125D03*
X069410Y021625D03*
X067160Y022375D03*
X066660Y022875D03*
X067660Y022875D03*
X065410Y022125D03*
X064910Y021625D03*
X063910Y021625D03*
X063410Y022125D03*
X062910Y021625D03*
X060660Y022375D03*
X060160Y022875D03*
X061160Y022875D03*
X058910Y022125D03*
X058410Y021625D03*
X057410Y021625D03*
X056910Y022125D03*
X056410Y021625D03*
X054160Y022375D03*
X053660Y022875D03*
X054660Y022875D03*
X052410Y022125D03*
X051910Y021625D03*
X050910Y021625D03*
X050410Y022125D03*
X049910Y021625D03*
X047660Y022375D03*
X047160Y022875D03*
X048160Y022875D03*
X045910Y022125D03*
X045410Y021625D03*
X044410Y021625D03*
X043910Y022125D03*
X043410Y021625D03*
X041160Y022375D03*
X040660Y022875D03*
X041660Y022875D03*
X039410Y022125D03*
X038910Y021625D03*
X037910Y021625D03*
X037410Y022125D03*
X036910Y021625D03*
X034660Y022375D03*
X034160Y022875D03*
X035160Y022875D03*
X032910Y022125D03*
X032410Y021625D03*
X031410Y021625D03*
X030910Y022125D03*
X030410Y021625D03*
X028160Y022375D03*
X027660Y022875D03*
X028660Y022875D03*
X026410Y022125D03*
X025910Y021625D03*
X024910Y021625D03*
X024410Y022125D03*
X023910Y021625D03*
X021660Y022375D03*
X021160Y022875D03*
X022160Y022875D03*
X019910Y022125D03*
X019410Y021625D03*
X018410Y021625D03*
X017910Y022125D03*
X017410Y021625D03*
X015160Y022375D03*
X014660Y022875D03*
X015660Y022875D03*
X013410Y022125D03*
X012910Y021625D03*
X011910Y021625D03*
X011410Y022125D03*
X010910Y021625D03*
X008660Y022375D03*
X008160Y022875D03*
X009160Y022875D03*
X006910Y022125D03*
X006410Y021625D03*
X005410Y021625D03*
X004910Y022125D03*
X004410Y021625D03*
X007410Y021625D03*
X006910Y020625D03*
X006410Y020125D03*
X005410Y020125D03*
X004410Y020125D03*
X004910Y020625D03*
X007410Y020125D03*
X006910Y019125D03*
X006410Y018625D03*
X005410Y018625D03*
X004410Y018625D03*
X004910Y019125D03*
X007410Y018625D03*
X006910Y017625D03*
X006410Y017125D03*
X005410Y017125D03*
X004910Y017625D03*
X004410Y017125D03*
X007410Y017125D03*
X006910Y016125D03*
X006410Y015625D03*
X005410Y015625D03*
X004410Y015625D03*
X004910Y016125D03*
X007410Y015625D03*
X006910Y014625D03*
X006410Y014125D03*
X005410Y014125D03*
X004410Y014125D03*
X004910Y014625D03*
X007410Y014125D03*
X006910Y013125D03*
X006410Y012625D03*
X005410Y012625D03*
X004910Y013125D03*
X004410Y012625D03*
X007410Y012625D03*
X006910Y011625D03*
X006410Y011125D03*
X005410Y011125D03*
X004910Y011625D03*
X004410Y011125D03*
X007410Y011125D03*
X010910Y011125D03*
X011410Y011625D03*
X011910Y011125D03*
X012910Y011125D03*
X013410Y011625D03*
X013910Y011125D03*
X013910Y012625D03*
X013410Y013125D03*
X012910Y012625D03*
X011910Y012625D03*
X011410Y013125D03*
X010910Y012625D03*
X010910Y014125D03*
X011910Y014125D03*
X012910Y014125D03*
X013910Y014125D03*
X013410Y014625D03*
X012910Y015625D03*
X011910Y015625D03*
X010910Y015625D03*
X011410Y016125D03*
X013410Y016125D03*
X013910Y015625D03*
X011410Y014625D03*
X017410Y014125D03*
X018410Y014125D03*
X019410Y014125D03*
X020410Y014125D03*
X019910Y014625D03*
X019410Y015625D03*
X018410Y015625D03*
X017410Y015625D03*
X017910Y016125D03*
X019910Y016125D03*
X020410Y015625D03*
X017910Y014625D03*
X017910Y013125D03*
X017410Y012625D03*
X018410Y012625D03*
X019410Y012625D03*
X019910Y013125D03*
X020410Y012625D03*
X019910Y011625D03*
X019410Y011125D03*
X018410Y011125D03*
X017910Y011625D03*
X017410Y011125D03*
X020410Y011125D03*
X023910Y011125D03*
X024410Y011625D03*
X024910Y011125D03*
X025910Y011125D03*
X026410Y011625D03*
X026910Y011125D03*
X026910Y012625D03*
X026410Y013125D03*
X025910Y012625D03*
X024910Y012625D03*
X024410Y013125D03*
X023910Y012625D03*
X023910Y014125D03*
X024910Y014125D03*
X025910Y014125D03*
X026910Y014125D03*
X026410Y014625D03*
X025910Y015625D03*
X024910Y015625D03*
X023910Y015625D03*
X024410Y016125D03*
X026410Y016125D03*
X026910Y015625D03*
X024410Y014625D03*
X030410Y014125D03*
X031410Y014125D03*
X032410Y014125D03*
X033410Y014125D03*
X032910Y014625D03*
X032410Y015625D03*
X031410Y015625D03*
X030410Y015625D03*
X030910Y016125D03*
X032910Y016125D03*
X033410Y015625D03*
X030910Y014625D03*
X030910Y013125D03*
X030410Y012625D03*
X031410Y012625D03*
X032410Y012625D03*
X032910Y013125D03*
X033410Y012625D03*
X032910Y011625D03*
X032410Y011125D03*
X031410Y011125D03*
X030910Y011625D03*
X030410Y011125D03*
X033410Y011125D03*
X036910Y011125D03*
X037410Y011625D03*
X037910Y011125D03*
X038910Y011125D03*
X039410Y011625D03*
X039910Y011125D03*
X039910Y012625D03*
X039410Y013125D03*
X038910Y012625D03*
X037910Y012625D03*
X037410Y013125D03*
X036910Y012625D03*
X036910Y014125D03*
X037910Y014125D03*
X038910Y014125D03*
X039910Y014125D03*
X039410Y014625D03*
X038910Y015625D03*
X037910Y015625D03*
X036910Y015625D03*
X037410Y016125D03*
X039410Y016125D03*
X039910Y015625D03*
X037410Y014625D03*
X043410Y014125D03*
X044410Y014125D03*
X045410Y014125D03*
X046410Y014125D03*
X045910Y014625D03*
X045410Y015625D03*
X044410Y015625D03*
X043410Y015625D03*
X043910Y016125D03*
X045910Y016125D03*
X046410Y015625D03*
X043910Y014625D03*
X043910Y013125D03*
X043410Y012625D03*
X044410Y012625D03*
X045410Y012625D03*
X045910Y013125D03*
X046410Y012625D03*
X045910Y011625D03*
X045410Y011125D03*
X044410Y011125D03*
X043910Y011625D03*
X043410Y011125D03*
X046410Y011125D03*
X049910Y011125D03*
X050410Y011625D03*
X050910Y011125D03*
X051910Y011125D03*
X052410Y011625D03*
X052910Y011125D03*
X052910Y012625D03*
X052410Y013125D03*
X051910Y012625D03*
X050910Y012625D03*
X050410Y013125D03*
X049910Y012625D03*
X049910Y014125D03*
X050910Y014125D03*
X051910Y014125D03*
X052910Y014125D03*
X052410Y014625D03*
X051910Y015625D03*
X050910Y015625D03*
X049910Y015625D03*
X050410Y016125D03*
X052410Y016125D03*
X052910Y015625D03*
X050410Y014625D03*
X056410Y014125D03*
X057410Y014125D03*
X058410Y014125D03*
X059410Y014125D03*
X058910Y014625D03*
X058410Y015625D03*
X057410Y015625D03*
X056410Y015625D03*
X056910Y016125D03*
X058910Y016125D03*
X059410Y015625D03*
X056910Y014625D03*
X056910Y013125D03*
X056410Y012625D03*
X057410Y012625D03*
X058410Y012625D03*
X058910Y013125D03*
X059410Y012625D03*
X058910Y011625D03*
X058410Y011125D03*
X057410Y011125D03*
X056910Y011625D03*
X056410Y011125D03*
X059410Y011125D03*
X062910Y011125D03*
X063410Y011625D03*
X063910Y011125D03*
X064910Y011125D03*
X065410Y011625D03*
X065910Y011125D03*
X065910Y012625D03*
X065410Y013125D03*
X064910Y012625D03*
X063910Y012625D03*
X063410Y013125D03*
X062910Y012625D03*
X062910Y014125D03*
X063910Y014125D03*
X064910Y014125D03*
X065910Y014125D03*
X065410Y014625D03*
X064910Y015625D03*
X063910Y015625D03*
X062910Y015625D03*
X063410Y016125D03*
X065410Y016125D03*
X065910Y015625D03*
X063410Y014625D03*
X069410Y014125D03*
X070410Y014125D03*
X071410Y014125D03*
X072410Y014125D03*
X071910Y014625D03*
X071410Y015625D03*
X070410Y015625D03*
X069410Y015625D03*
X069910Y016125D03*
X071910Y016125D03*
X072410Y015625D03*
X069910Y014625D03*
X069910Y013125D03*
X069410Y012625D03*
X070410Y012625D03*
X071410Y012625D03*
X071910Y013125D03*
X072410Y012625D03*
X071910Y011625D03*
X071410Y011125D03*
X070410Y011125D03*
X069910Y011625D03*
X069410Y011125D03*
X072410Y011125D03*
X075910Y011125D03*
X076410Y011625D03*
X076910Y011125D03*
X077910Y011125D03*
X078410Y011625D03*
X078910Y011125D03*
X078910Y012625D03*
X078410Y013125D03*
X077910Y012625D03*
X076910Y012625D03*
X076410Y013125D03*
X075910Y012625D03*
X075910Y014125D03*
X076910Y014125D03*
X077910Y014125D03*
X078910Y014125D03*
X078410Y014625D03*
X077910Y015625D03*
X076910Y015625D03*
X075910Y015625D03*
X076410Y016125D03*
X078410Y016125D03*
X078910Y015625D03*
X076410Y014625D03*
X082410Y014125D03*
X083410Y014125D03*
X084410Y014125D03*
X085410Y014125D03*
X084910Y014625D03*
X084410Y015625D03*
X083410Y015625D03*
X082410Y015625D03*
X082910Y016125D03*
X084910Y016125D03*
X085410Y015625D03*
X082910Y014625D03*
X082910Y013125D03*
X082410Y012625D03*
X083410Y012625D03*
X084410Y012625D03*
X084910Y013125D03*
X085410Y012625D03*
X084910Y011625D03*
X084410Y011125D03*
X083410Y011125D03*
X082910Y011625D03*
X082410Y011125D03*
X085410Y011125D03*
X088910Y011125D03*
X089410Y011625D03*
X089910Y011125D03*
X090910Y011125D03*
X091410Y011625D03*
X091910Y011125D03*
X091910Y012625D03*
X091410Y013125D03*
X090910Y012625D03*
X089910Y012625D03*
X089410Y013125D03*
X088910Y012625D03*
X088910Y014125D03*
X089910Y014125D03*
X090910Y014125D03*
X091910Y014125D03*
X091410Y014625D03*
X090910Y015625D03*
X089910Y015625D03*
X088910Y015625D03*
X089410Y016125D03*
X091410Y016125D03*
X091910Y015625D03*
X089410Y014625D03*
X095410Y014125D03*
X096410Y014125D03*
X097410Y014125D03*
X098410Y014125D03*
X097910Y014625D03*
X097410Y015625D03*
X096410Y015625D03*
X095410Y015625D03*
X095910Y016125D03*
X097910Y016125D03*
X098410Y015625D03*
X095910Y014625D03*
X095910Y013125D03*
X095410Y012625D03*
X096410Y012625D03*
X097410Y012625D03*
X097910Y013125D03*
X098410Y012625D03*
X097910Y011625D03*
X097410Y011125D03*
X096410Y011125D03*
X095910Y011625D03*
X095410Y011125D03*
X098410Y011125D03*
X101910Y011125D03*
X102410Y011625D03*
X102910Y011125D03*
X103910Y011125D03*
X104410Y011625D03*
X104910Y011125D03*
X104910Y012625D03*
X104410Y013125D03*
X103910Y012625D03*
X102910Y012625D03*
X102410Y013125D03*
X101910Y012625D03*
X101910Y014125D03*
X102910Y014125D03*
X103910Y014125D03*
X104910Y014125D03*
X104410Y014625D03*
X103910Y015625D03*
X102910Y015625D03*
X101910Y015625D03*
X102410Y016125D03*
X104410Y016125D03*
X104910Y015625D03*
X102410Y014625D03*
X101910Y017125D03*
X102410Y017625D03*
X102910Y017125D03*
X103910Y017125D03*
X104410Y017625D03*
X104910Y017125D03*
X104910Y018625D03*
X103910Y018625D03*
X102910Y018625D03*
X101910Y018625D03*
X102410Y019125D03*
X101910Y020125D03*
X102910Y020125D03*
X103910Y020125D03*
X104910Y020125D03*
X104410Y020625D03*
X102410Y020625D03*
X101910Y021625D03*
X102410Y022125D03*
X102910Y021625D03*
X103910Y021625D03*
X104410Y022125D03*
X104910Y021625D03*
X106160Y022375D03*
X105660Y022875D03*
X106660Y022875D03*
X100160Y022875D03*
X099660Y022375D03*
X099160Y022875D03*
X097910Y022125D03*
X097410Y021625D03*
X096410Y021625D03*
X095910Y022125D03*
X095410Y021625D03*
X093410Y022375D03*
X092910Y022875D03*
X093910Y022875D03*
X091410Y022125D03*
X090910Y021625D03*
X089910Y021625D03*
X089410Y022125D03*
X088910Y021625D03*
X086660Y022375D03*
X086160Y022875D03*
X087160Y022875D03*
X084910Y022125D03*
X084410Y021625D03*
X083410Y021625D03*
X082910Y022125D03*
X082410Y021625D03*
X080160Y022375D03*
X079660Y022875D03*
X080660Y022875D03*
X078410Y022125D03*
X077910Y021625D03*
X076910Y021625D03*
X076410Y022125D03*
X075910Y021625D03*
X078910Y021625D03*
X078410Y020625D03*
X077910Y020125D03*
X076910Y020125D03*
X075910Y020125D03*
X076410Y020625D03*
X078910Y020125D03*
X078410Y019125D03*
X077910Y018625D03*
X076910Y018625D03*
X075910Y018625D03*
X076410Y019125D03*
X078910Y018625D03*
X078410Y017625D03*
X077910Y017125D03*
X076910Y017125D03*
X076410Y017625D03*
X075910Y017125D03*
X078910Y017125D03*
X082410Y017125D03*
X082910Y017625D03*
X083410Y017125D03*
X084410Y017125D03*
X084910Y017625D03*
X085410Y017125D03*
X085410Y018625D03*
X084410Y018625D03*
X083410Y018625D03*
X082410Y018625D03*
X082910Y019125D03*
X082410Y020125D03*
X083410Y020125D03*
X084410Y020125D03*
X085410Y020125D03*
X084910Y020625D03*
X082910Y020625D03*
X085410Y021625D03*
X089410Y020625D03*
X088910Y020125D03*
X089910Y020125D03*
X090910Y020125D03*
X091910Y020125D03*
X091410Y020625D03*
X091910Y021625D03*
X095910Y020625D03*
X095410Y020125D03*
X096410Y020125D03*
X097410Y020125D03*
X098410Y020125D03*
X097910Y020625D03*
X098410Y021625D03*
X097910Y019125D03*
X097410Y018625D03*
X096410Y018625D03*
X095410Y018625D03*
X095910Y019125D03*
X098410Y018625D03*
X097910Y017625D03*
X097410Y017125D03*
X096410Y017125D03*
X095910Y017625D03*
X095410Y017125D03*
X098410Y017125D03*
X104410Y019125D03*
X091910Y018625D03*
X090910Y018625D03*
X089910Y018625D03*
X088910Y018625D03*
X089410Y019125D03*
X091410Y019125D03*
X091410Y017625D03*
X090910Y017125D03*
X089910Y017125D03*
X089410Y017625D03*
X088910Y017125D03*
X091910Y017125D03*
X084910Y019125D03*
X072410Y018625D03*
X071410Y018625D03*
X070410Y018625D03*
X069410Y018625D03*
X069910Y019125D03*
X069410Y020125D03*
X070410Y020125D03*
X071410Y020125D03*
X072410Y020125D03*
X071910Y020625D03*
X069910Y020625D03*
X072410Y021625D03*
X065910Y021625D03*
X065410Y020625D03*
X064910Y020125D03*
X063910Y020125D03*
X062910Y020125D03*
X063410Y020625D03*
X065910Y020125D03*
X065410Y019125D03*
X064910Y018625D03*
X063910Y018625D03*
X062910Y018625D03*
X063410Y019125D03*
X065910Y018625D03*
X065410Y017625D03*
X064910Y017125D03*
X063910Y017125D03*
X063410Y017625D03*
X062910Y017125D03*
X065910Y017125D03*
X069410Y017125D03*
X069910Y017625D03*
X070410Y017125D03*
X071410Y017125D03*
X071910Y017625D03*
X072410Y017125D03*
X071910Y019125D03*
X059410Y018625D03*
X058410Y018625D03*
X057410Y018625D03*
X056410Y018625D03*
X056910Y019125D03*
X056410Y020125D03*
X057410Y020125D03*
X058410Y020125D03*
X059410Y020125D03*
X058910Y020625D03*
X056910Y020625D03*
X059410Y021625D03*
X052910Y021625D03*
X052410Y020625D03*
X051910Y020125D03*
X050910Y020125D03*
X049910Y020125D03*
X050410Y020625D03*
X052910Y020125D03*
X052410Y019125D03*
X051910Y018625D03*
X050910Y018625D03*
X049910Y018625D03*
X050410Y019125D03*
X052910Y018625D03*
X052410Y017625D03*
X051910Y017125D03*
X050910Y017125D03*
X050410Y017625D03*
X049910Y017125D03*
X052910Y017125D03*
X056410Y017125D03*
X056910Y017625D03*
X057410Y017125D03*
X058410Y017125D03*
X058910Y017625D03*
X059410Y017125D03*
X058910Y019125D03*
X046410Y018625D03*
X045410Y018625D03*
X044410Y018625D03*
X043410Y018625D03*
X043910Y019125D03*
X043410Y020125D03*
X044410Y020125D03*
X045410Y020125D03*
X046410Y020125D03*
X045910Y020625D03*
X043910Y020625D03*
X046410Y021625D03*
X039910Y021625D03*
X039410Y020625D03*
X038910Y020125D03*
X037910Y020125D03*
X036910Y020125D03*
X037410Y020625D03*
X039910Y020125D03*
X039410Y019125D03*
X038910Y018625D03*
X037910Y018625D03*
X036910Y018625D03*
X037410Y019125D03*
X039910Y018625D03*
X039410Y017625D03*
X038910Y017125D03*
X037910Y017125D03*
X037410Y017625D03*
X036910Y017125D03*
X039910Y017125D03*
X043410Y017125D03*
X043910Y017625D03*
X044410Y017125D03*
X045410Y017125D03*
X045910Y017625D03*
X046410Y017125D03*
X045910Y019125D03*
X033410Y018625D03*
X032410Y018625D03*
X031410Y018625D03*
X030410Y018625D03*
X030910Y019125D03*
X030410Y020125D03*
X031410Y020125D03*
X032410Y020125D03*
X033410Y020125D03*
X032910Y020625D03*
X030910Y020625D03*
X033410Y021625D03*
X026910Y021625D03*
X026410Y020625D03*
X025910Y020125D03*
X024910Y020125D03*
X023910Y020125D03*
X024410Y020625D03*
X026910Y020125D03*
X026410Y019125D03*
X025910Y018625D03*
X024910Y018625D03*
X023910Y018625D03*
X024410Y019125D03*
X026910Y018625D03*
X026410Y017625D03*
X025910Y017125D03*
X024910Y017125D03*
X024410Y017625D03*
X023910Y017125D03*
X026910Y017125D03*
X030410Y017125D03*
X030910Y017625D03*
X031410Y017125D03*
X032410Y017125D03*
X032910Y017625D03*
X033410Y017125D03*
X032910Y019125D03*
X020410Y018625D03*
X019410Y018625D03*
X018410Y018625D03*
X017410Y018625D03*
X017910Y019125D03*
X017410Y020125D03*
X018410Y020125D03*
X019410Y020125D03*
X020410Y020125D03*
X019910Y020625D03*
X017910Y020625D03*
X020410Y021625D03*
X013910Y021625D03*
X013410Y020625D03*
X012910Y020125D03*
X011910Y020125D03*
X010910Y020125D03*
X011410Y020625D03*
X013910Y020125D03*
X013410Y019125D03*
X012910Y018625D03*
X011910Y018625D03*
X010910Y018625D03*
X011410Y019125D03*
X013910Y018625D03*
X013410Y017625D03*
X012910Y017125D03*
X011910Y017125D03*
X011410Y017625D03*
X010910Y017125D03*
X013910Y017125D03*
X017410Y017125D03*
X017910Y017625D03*
X018410Y017125D03*
X019410Y017125D03*
X019910Y017625D03*
X020410Y017125D03*
X019910Y019125D03*
D12*
X042910Y029625D03*
X027910Y005125D03*
X068660Y005125D03*
D13*
X067660Y005125D03*
X066660Y005125D03*
X065660Y005125D03*
X064660Y005125D03*
X063660Y005125D03*
X062660Y005125D03*
X061660Y005125D03*
X060660Y005125D03*
X059660Y005125D03*
X058660Y005125D03*
X057660Y005125D03*
X056660Y005125D03*
X055660Y005125D03*
X054660Y005125D03*
X054660Y004125D03*
X055660Y004125D03*
X056660Y004125D03*
X057660Y004125D03*
X058660Y004125D03*
X059660Y004125D03*
X060660Y004125D03*
X061660Y004125D03*
X062660Y004125D03*
X063660Y004125D03*
X064660Y004125D03*
X065660Y004125D03*
X066660Y004125D03*
X067660Y004125D03*
X068660Y004125D03*
X027910Y004125D03*
X026910Y004125D03*
X025910Y004125D03*
X024910Y004125D03*
X023910Y004125D03*
X022910Y004125D03*
X021910Y004125D03*
X020910Y004125D03*
X019910Y004125D03*
X018910Y004125D03*
X018910Y005125D03*
X019910Y005125D03*
X020910Y005125D03*
X021910Y005125D03*
X022910Y005125D03*
X023910Y005125D03*
X024910Y005125D03*
X025910Y005125D03*
X026910Y005125D03*
X043910Y029625D03*
X044910Y029625D03*
X045910Y029625D03*
X046910Y029625D03*
X047910Y029625D03*
X048910Y029625D03*
X049910Y029625D03*
X050910Y029625D03*
X051910Y029625D03*
X051910Y030625D03*
X050910Y030625D03*
X049910Y030625D03*
X048910Y030625D03*
X047910Y030625D03*
X046910Y030625D03*
X045910Y030625D03*
X044910Y030625D03*
X043910Y030625D03*
X042910Y030625D03*
D14*
X040620Y030335D03*
X054200Y030335D03*
X052370Y004415D03*
X070950Y004415D03*
X030200Y004415D03*
X016620Y004415D03*
D15*
X011910Y030875D03*
X008660Y030875D03*
D16*
X080910Y029375D03*
X082910Y029375D03*
D17*
X004660Y003875D03*
X004660Y030875D03*
X106660Y030875D03*
X106660Y003875D03*
M02*
