G75*
G70*
%OFA0B0*%
%FSLAX24Y24*%
%IPPOS*%
%LPD*%
%AMOC8*
5,1,8,0,0,1.08239X$1,22.5*
%
%ADD10C,0.0000*%
D10*
X003410Y002625D02*
X003410Y032125D01*
X107910Y032125D01*
X107910Y002625D01*
X003410Y002625D01*
X004030Y003875D02*
X004032Y003925D01*
X004038Y003975D01*
X004048Y004024D01*
X004062Y004072D01*
X004079Y004119D01*
X004100Y004164D01*
X004125Y004208D01*
X004153Y004249D01*
X004185Y004288D01*
X004219Y004325D01*
X004256Y004359D01*
X004296Y004389D01*
X004338Y004416D01*
X004382Y004440D01*
X004428Y004461D01*
X004475Y004477D01*
X004523Y004490D01*
X004573Y004499D01*
X004622Y004504D01*
X004673Y004505D01*
X004723Y004502D01*
X004772Y004495D01*
X004821Y004484D01*
X004869Y004469D01*
X004915Y004451D01*
X004960Y004429D01*
X005003Y004403D01*
X005044Y004374D01*
X005083Y004342D01*
X005119Y004307D01*
X005151Y004269D01*
X005181Y004229D01*
X005208Y004186D01*
X005231Y004142D01*
X005250Y004096D01*
X005266Y004048D01*
X005278Y003999D01*
X005286Y003950D01*
X005290Y003900D01*
X005290Y003850D01*
X005286Y003800D01*
X005278Y003751D01*
X005266Y003702D01*
X005250Y003654D01*
X005231Y003608D01*
X005208Y003564D01*
X005181Y003521D01*
X005151Y003481D01*
X005119Y003443D01*
X005083Y003408D01*
X005044Y003376D01*
X005003Y003347D01*
X004960Y003321D01*
X004915Y003299D01*
X004869Y003281D01*
X004821Y003266D01*
X004772Y003255D01*
X004723Y003248D01*
X004673Y003245D01*
X004622Y003246D01*
X004573Y003251D01*
X004523Y003260D01*
X004475Y003273D01*
X004428Y003289D01*
X004382Y003310D01*
X004338Y003334D01*
X004296Y003361D01*
X004256Y003391D01*
X004219Y003425D01*
X004185Y003462D01*
X004153Y003501D01*
X004125Y003542D01*
X004100Y003586D01*
X004079Y003631D01*
X004062Y003678D01*
X004048Y003726D01*
X004038Y003775D01*
X004032Y003825D01*
X004030Y003875D01*
X016040Y004415D02*
X016042Y004463D01*
X016048Y004510D01*
X016058Y004557D01*
X016071Y004603D01*
X016089Y004648D01*
X016110Y004691D01*
X016134Y004732D01*
X016162Y004771D01*
X016193Y004808D01*
X016227Y004842D01*
X016264Y004873D01*
X016303Y004901D01*
X016344Y004925D01*
X016387Y004946D01*
X016432Y004964D01*
X016478Y004977D01*
X016525Y004987D01*
X016572Y004993D01*
X016620Y004995D01*
X016668Y004993D01*
X016715Y004987D01*
X016762Y004977D01*
X016808Y004964D01*
X016853Y004946D01*
X016896Y004925D01*
X016937Y004901D01*
X016976Y004873D01*
X017013Y004842D01*
X017047Y004808D01*
X017078Y004771D01*
X017106Y004732D01*
X017130Y004691D01*
X017151Y004648D01*
X017169Y004603D01*
X017182Y004557D01*
X017192Y004510D01*
X017198Y004463D01*
X017200Y004415D01*
X017198Y004367D01*
X017192Y004320D01*
X017182Y004273D01*
X017169Y004227D01*
X017151Y004182D01*
X017130Y004139D01*
X017106Y004098D01*
X017078Y004059D01*
X017047Y004022D01*
X017013Y003988D01*
X016976Y003957D01*
X016937Y003929D01*
X016896Y003905D01*
X016853Y003884D01*
X016808Y003866D01*
X016762Y003853D01*
X016715Y003843D01*
X016668Y003837D01*
X016620Y003835D01*
X016572Y003837D01*
X016525Y003843D01*
X016478Y003853D01*
X016432Y003866D01*
X016387Y003884D01*
X016344Y003905D01*
X016303Y003929D01*
X016264Y003957D01*
X016227Y003988D01*
X016193Y004022D01*
X016162Y004059D01*
X016134Y004098D01*
X016110Y004139D01*
X016089Y004182D01*
X016071Y004227D01*
X016058Y004273D01*
X016048Y004320D01*
X016042Y004367D01*
X016040Y004415D01*
X029620Y004415D02*
X029622Y004463D01*
X029628Y004510D01*
X029638Y004557D01*
X029651Y004603D01*
X029669Y004648D01*
X029690Y004691D01*
X029714Y004732D01*
X029742Y004771D01*
X029773Y004808D01*
X029807Y004842D01*
X029844Y004873D01*
X029883Y004901D01*
X029924Y004925D01*
X029967Y004946D01*
X030012Y004964D01*
X030058Y004977D01*
X030105Y004987D01*
X030152Y004993D01*
X030200Y004995D01*
X030248Y004993D01*
X030295Y004987D01*
X030342Y004977D01*
X030388Y004964D01*
X030433Y004946D01*
X030476Y004925D01*
X030517Y004901D01*
X030556Y004873D01*
X030593Y004842D01*
X030627Y004808D01*
X030658Y004771D01*
X030686Y004732D01*
X030710Y004691D01*
X030731Y004648D01*
X030749Y004603D01*
X030762Y004557D01*
X030772Y004510D01*
X030778Y004463D01*
X030780Y004415D01*
X030778Y004367D01*
X030772Y004320D01*
X030762Y004273D01*
X030749Y004227D01*
X030731Y004182D01*
X030710Y004139D01*
X030686Y004098D01*
X030658Y004059D01*
X030627Y004022D01*
X030593Y003988D01*
X030556Y003957D01*
X030517Y003929D01*
X030476Y003905D01*
X030433Y003884D01*
X030388Y003866D01*
X030342Y003853D01*
X030295Y003843D01*
X030248Y003837D01*
X030200Y003835D01*
X030152Y003837D01*
X030105Y003843D01*
X030058Y003853D01*
X030012Y003866D01*
X029967Y003884D01*
X029924Y003905D01*
X029883Y003929D01*
X029844Y003957D01*
X029807Y003988D01*
X029773Y004022D01*
X029742Y004059D01*
X029714Y004098D01*
X029690Y004139D01*
X029669Y004182D01*
X029651Y004227D01*
X029638Y004273D01*
X029628Y004320D01*
X029622Y004367D01*
X029620Y004415D01*
X051790Y004415D02*
X051792Y004463D01*
X051798Y004510D01*
X051808Y004557D01*
X051821Y004603D01*
X051839Y004648D01*
X051860Y004691D01*
X051884Y004732D01*
X051912Y004771D01*
X051943Y004808D01*
X051977Y004842D01*
X052014Y004873D01*
X052053Y004901D01*
X052094Y004925D01*
X052137Y004946D01*
X052182Y004964D01*
X052228Y004977D01*
X052275Y004987D01*
X052322Y004993D01*
X052370Y004995D01*
X052418Y004993D01*
X052465Y004987D01*
X052512Y004977D01*
X052558Y004964D01*
X052603Y004946D01*
X052646Y004925D01*
X052687Y004901D01*
X052726Y004873D01*
X052763Y004842D01*
X052797Y004808D01*
X052828Y004771D01*
X052856Y004732D01*
X052880Y004691D01*
X052901Y004648D01*
X052919Y004603D01*
X052932Y004557D01*
X052942Y004510D01*
X052948Y004463D01*
X052950Y004415D01*
X052948Y004367D01*
X052942Y004320D01*
X052932Y004273D01*
X052919Y004227D01*
X052901Y004182D01*
X052880Y004139D01*
X052856Y004098D01*
X052828Y004059D01*
X052797Y004022D01*
X052763Y003988D01*
X052726Y003957D01*
X052687Y003929D01*
X052646Y003905D01*
X052603Y003884D01*
X052558Y003866D01*
X052512Y003853D01*
X052465Y003843D01*
X052418Y003837D01*
X052370Y003835D01*
X052322Y003837D01*
X052275Y003843D01*
X052228Y003853D01*
X052182Y003866D01*
X052137Y003884D01*
X052094Y003905D01*
X052053Y003929D01*
X052014Y003957D01*
X051977Y003988D01*
X051943Y004022D01*
X051912Y004059D01*
X051884Y004098D01*
X051860Y004139D01*
X051839Y004182D01*
X051821Y004227D01*
X051808Y004273D01*
X051798Y004320D01*
X051792Y004367D01*
X051790Y004415D01*
X070370Y004415D02*
X070372Y004463D01*
X070378Y004510D01*
X070388Y004557D01*
X070401Y004603D01*
X070419Y004648D01*
X070440Y004691D01*
X070464Y004732D01*
X070492Y004771D01*
X070523Y004808D01*
X070557Y004842D01*
X070594Y004873D01*
X070633Y004901D01*
X070674Y004925D01*
X070717Y004946D01*
X070762Y004964D01*
X070808Y004977D01*
X070855Y004987D01*
X070902Y004993D01*
X070950Y004995D01*
X070998Y004993D01*
X071045Y004987D01*
X071092Y004977D01*
X071138Y004964D01*
X071183Y004946D01*
X071226Y004925D01*
X071267Y004901D01*
X071306Y004873D01*
X071343Y004842D01*
X071377Y004808D01*
X071408Y004771D01*
X071436Y004732D01*
X071460Y004691D01*
X071481Y004648D01*
X071499Y004603D01*
X071512Y004557D01*
X071522Y004510D01*
X071528Y004463D01*
X071530Y004415D01*
X071528Y004367D01*
X071522Y004320D01*
X071512Y004273D01*
X071499Y004227D01*
X071481Y004182D01*
X071460Y004139D01*
X071436Y004098D01*
X071408Y004059D01*
X071377Y004022D01*
X071343Y003988D01*
X071306Y003957D01*
X071267Y003929D01*
X071226Y003905D01*
X071183Y003884D01*
X071138Y003866D01*
X071092Y003853D01*
X071045Y003843D01*
X070998Y003837D01*
X070950Y003835D01*
X070902Y003837D01*
X070855Y003843D01*
X070808Y003853D01*
X070762Y003866D01*
X070717Y003884D01*
X070674Y003905D01*
X070633Y003929D01*
X070594Y003957D01*
X070557Y003988D01*
X070523Y004022D01*
X070492Y004059D01*
X070464Y004098D01*
X070440Y004139D01*
X070419Y004182D01*
X070401Y004227D01*
X070388Y004273D01*
X070378Y004320D01*
X070372Y004367D01*
X070370Y004415D01*
X106030Y003875D02*
X106032Y003925D01*
X106038Y003975D01*
X106048Y004024D01*
X106062Y004072D01*
X106079Y004119D01*
X106100Y004164D01*
X106125Y004208D01*
X106153Y004249D01*
X106185Y004288D01*
X106219Y004325D01*
X106256Y004359D01*
X106296Y004389D01*
X106338Y004416D01*
X106382Y004440D01*
X106428Y004461D01*
X106475Y004477D01*
X106523Y004490D01*
X106573Y004499D01*
X106622Y004504D01*
X106673Y004505D01*
X106723Y004502D01*
X106772Y004495D01*
X106821Y004484D01*
X106869Y004469D01*
X106915Y004451D01*
X106960Y004429D01*
X107003Y004403D01*
X107044Y004374D01*
X107083Y004342D01*
X107119Y004307D01*
X107151Y004269D01*
X107181Y004229D01*
X107208Y004186D01*
X107231Y004142D01*
X107250Y004096D01*
X107266Y004048D01*
X107278Y003999D01*
X107286Y003950D01*
X107290Y003900D01*
X107290Y003850D01*
X107286Y003800D01*
X107278Y003751D01*
X107266Y003702D01*
X107250Y003654D01*
X107231Y003608D01*
X107208Y003564D01*
X107181Y003521D01*
X107151Y003481D01*
X107119Y003443D01*
X107083Y003408D01*
X107044Y003376D01*
X107003Y003347D01*
X106960Y003321D01*
X106915Y003299D01*
X106869Y003281D01*
X106821Y003266D01*
X106772Y003255D01*
X106723Y003248D01*
X106673Y003245D01*
X106622Y003246D01*
X106573Y003251D01*
X106523Y003260D01*
X106475Y003273D01*
X106428Y003289D01*
X106382Y003310D01*
X106338Y003334D01*
X106296Y003361D01*
X106256Y003391D01*
X106219Y003425D01*
X106185Y003462D01*
X106153Y003501D01*
X106125Y003542D01*
X106100Y003586D01*
X106079Y003631D01*
X106062Y003678D01*
X106048Y003726D01*
X106038Y003775D01*
X106032Y003825D01*
X106030Y003875D01*
X053620Y030335D02*
X053622Y030383D01*
X053628Y030430D01*
X053638Y030477D01*
X053651Y030523D01*
X053669Y030568D01*
X053690Y030611D01*
X053714Y030652D01*
X053742Y030691D01*
X053773Y030728D01*
X053807Y030762D01*
X053844Y030793D01*
X053883Y030821D01*
X053924Y030845D01*
X053967Y030866D01*
X054012Y030884D01*
X054058Y030897D01*
X054105Y030907D01*
X054152Y030913D01*
X054200Y030915D01*
X054248Y030913D01*
X054295Y030907D01*
X054342Y030897D01*
X054388Y030884D01*
X054433Y030866D01*
X054476Y030845D01*
X054517Y030821D01*
X054556Y030793D01*
X054593Y030762D01*
X054627Y030728D01*
X054658Y030691D01*
X054686Y030652D01*
X054710Y030611D01*
X054731Y030568D01*
X054749Y030523D01*
X054762Y030477D01*
X054772Y030430D01*
X054778Y030383D01*
X054780Y030335D01*
X054778Y030287D01*
X054772Y030240D01*
X054762Y030193D01*
X054749Y030147D01*
X054731Y030102D01*
X054710Y030059D01*
X054686Y030018D01*
X054658Y029979D01*
X054627Y029942D01*
X054593Y029908D01*
X054556Y029877D01*
X054517Y029849D01*
X054476Y029825D01*
X054433Y029804D01*
X054388Y029786D01*
X054342Y029773D01*
X054295Y029763D01*
X054248Y029757D01*
X054200Y029755D01*
X054152Y029757D01*
X054105Y029763D01*
X054058Y029773D01*
X054012Y029786D01*
X053967Y029804D01*
X053924Y029825D01*
X053883Y029849D01*
X053844Y029877D01*
X053807Y029908D01*
X053773Y029942D01*
X053742Y029979D01*
X053714Y030018D01*
X053690Y030059D01*
X053669Y030102D01*
X053651Y030147D01*
X053638Y030193D01*
X053628Y030240D01*
X053622Y030287D01*
X053620Y030335D01*
X040040Y030335D02*
X040042Y030383D01*
X040048Y030430D01*
X040058Y030477D01*
X040071Y030523D01*
X040089Y030568D01*
X040110Y030611D01*
X040134Y030652D01*
X040162Y030691D01*
X040193Y030728D01*
X040227Y030762D01*
X040264Y030793D01*
X040303Y030821D01*
X040344Y030845D01*
X040387Y030866D01*
X040432Y030884D01*
X040478Y030897D01*
X040525Y030907D01*
X040572Y030913D01*
X040620Y030915D01*
X040668Y030913D01*
X040715Y030907D01*
X040762Y030897D01*
X040808Y030884D01*
X040853Y030866D01*
X040896Y030845D01*
X040937Y030821D01*
X040976Y030793D01*
X041013Y030762D01*
X041047Y030728D01*
X041078Y030691D01*
X041106Y030652D01*
X041130Y030611D01*
X041151Y030568D01*
X041169Y030523D01*
X041182Y030477D01*
X041192Y030430D01*
X041198Y030383D01*
X041200Y030335D01*
X041198Y030287D01*
X041192Y030240D01*
X041182Y030193D01*
X041169Y030147D01*
X041151Y030102D01*
X041130Y030059D01*
X041106Y030018D01*
X041078Y029979D01*
X041047Y029942D01*
X041013Y029908D01*
X040976Y029877D01*
X040937Y029849D01*
X040896Y029825D01*
X040853Y029804D01*
X040808Y029786D01*
X040762Y029773D01*
X040715Y029763D01*
X040668Y029757D01*
X040620Y029755D01*
X040572Y029757D01*
X040525Y029763D01*
X040478Y029773D01*
X040432Y029786D01*
X040387Y029804D01*
X040344Y029825D01*
X040303Y029849D01*
X040264Y029877D01*
X040227Y029908D01*
X040193Y029942D01*
X040162Y029979D01*
X040134Y030018D01*
X040110Y030059D01*
X040089Y030102D01*
X040071Y030147D01*
X040058Y030193D01*
X040048Y030240D01*
X040042Y030287D01*
X040040Y030335D01*
X004030Y030875D02*
X004032Y030925D01*
X004038Y030975D01*
X004048Y031024D01*
X004062Y031072D01*
X004079Y031119D01*
X004100Y031164D01*
X004125Y031208D01*
X004153Y031249D01*
X004185Y031288D01*
X004219Y031325D01*
X004256Y031359D01*
X004296Y031389D01*
X004338Y031416D01*
X004382Y031440D01*
X004428Y031461D01*
X004475Y031477D01*
X004523Y031490D01*
X004573Y031499D01*
X004622Y031504D01*
X004673Y031505D01*
X004723Y031502D01*
X004772Y031495D01*
X004821Y031484D01*
X004869Y031469D01*
X004915Y031451D01*
X004960Y031429D01*
X005003Y031403D01*
X005044Y031374D01*
X005083Y031342D01*
X005119Y031307D01*
X005151Y031269D01*
X005181Y031229D01*
X005208Y031186D01*
X005231Y031142D01*
X005250Y031096D01*
X005266Y031048D01*
X005278Y030999D01*
X005286Y030950D01*
X005290Y030900D01*
X005290Y030850D01*
X005286Y030800D01*
X005278Y030751D01*
X005266Y030702D01*
X005250Y030654D01*
X005231Y030608D01*
X005208Y030564D01*
X005181Y030521D01*
X005151Y030481D01*
X005119Y030443D01*
X005083Y030408D01*
X005044Y030376D01*
X005003Y030347D01*
X004960Y030321D01*
X004915Y030299D01*
X004869Y030281D01*
X004821Y030266D01*
X004772Y030255D01*
X004723Y030248D01*
X004673Y030245D01*
X004622Y030246D01*
X004573Y030251D01*
X004523Y030260D01*
X004475Y030273D01*
X004428Y030289D01*
X004382Y030310D01*
X004338Y030334D01*
X004296Y030361D01*
X004256Y030391D01*
X004219Y030425D01*
X004185Y030462D01*
X004153Y030501D01*
X004125Y030542D01*
X004100Y030586D01*
X004079Y030631D01*
X004062Y030678D01*
X004048Y030726D01*
X004038Y030775D01*
X004032Y030825D01*
X004030Y030875D01*
X106030Y030875D02*
X106032Y030925D01*
X106038Y030975D01*
X106048Y031024D01*
X106062Y031072D01*
X106079Y031119D01*
X106100Y031164D01*
X106125Y031208D01*
X106153Y031249D01*
X106185Y031288D01*
X106219Y031325D01*
X106256Y031359D01*
X106296Y031389D01*
X106338Y031416D01*
X106382Y031440D01*
X106428Y031461D01*
X106475Y031477D01*
X106523Y031490D01*
X106573Y031499D01*
X106622Y031504D01*
X106673Y031505D01*
X106723Y031502D01*
X106772Y031495D01*
X106821Y031484D01*
X106869Y031469D01*
X106915Y031451D01*
X106960Y031429D01*
X107003Y031403D01*
X107044Y031374D01*
X107083Y031342D01*
X107119Y031307D01*
X107151Y031269D01*
X107181Y031229D01*
X107208Y031186D01*
X107231Y031142D01*
X107250Y031096D01*
X107266Y031048D01*
X107278Y030999D01*
X107286Y030950D01*
X107290Y030900D01*
X107290Y030850D01*
X107286Y030800D01*
X107278Y030751D01*
X107266Y030702D01*
X107250Y030654D01*
X107231Y030608D01*
X107208Y030564D01*
X107181Y030521D01*
X107151Y030481D01*
X107119Y030443D01*
X107083Y030408D01*
X107044Y030376D01*
X107003Y030347D01*
X106960Y030321D01*
X106915Y030299D01*
X106869Y030281D01*
X106821Y030266D01*
X106772Y030255D01*
X106723Y030248D01*
X106673Y030245D01*
X106622Y030246D01*
X106573Y030251D01*
X106523Y030260D01*
X106475Y030273D01*
X106428Y030289D01*
X106382Y030310D01*
X106338Y030334D01*
X106296Y030361D01*
X106256Y030391D01*
X106219Y030425D01*
X106185Y030462D01*
X106153Y030501D01*
X106125Y030542D01*
X106100Y030586D01*
X106079Y030631D01*
X106062Y030678D01*
X106048Y030726D01*
X106038Y030775D01*
X106032Y030825D01*
X106030Y030875D01*
M02*
