
M48
METRIC,TZ,000.000
T01C0.5
T02C0.8
T03C1.199
T04C3.556
%
M71
G90
T01
X043223Y052324
X043858Y051054
X119423Y038354
X121963Y040894
X119423Y040894
X092753Y051689
X090213Y050419
X087673Y048514
X085133Y047244
X082593Y047244
X064178Y050419
X061638Y051689
X058463Y052324
X057193Y051054
X052748Y049784
X048303Y049784
X046398Y049149
X048938Y047244
X051478Y045974
X054018Y028829
X056558Y030099
X059098Y031369
X064178Y033274
X065448Y034544
X088308Y031369
X085768Y030099
X083228Y028829
X069258Y018669
X066718Y017399
X064178Y016129
X055923Y019939
X053383Y021209
X046398Y021209
X019093Y034544
X016553Y033274
X024173Y026924
X021633Y025654
X016553Y018669
X019093Y017399
X021633Y016129
T02
X127043Y013630
X124503Y013630
X121963Y013630
X119423Y013630
X116883Y013630
X024173Y054188
X021633Y054188
X019093Y054188
X016553Y054188
X014013Y054188
X014013Y013630
X016553Y013630
X019093Y013630
X021633Y013630
X024173Y013630
X048303Y013630
X050843Y013630
X053383Y013630
X055923Y013630
X058463Y013630
X082593Y013630
X085133Y013630
X087673Y013630
X092753Y013630
X090213Y013630
X089578Y023749
X087038Y023749
X084498Y023749
X081958Y023749
X079418Y023749
X076878Y023749
X074338Y023749
X071798Y023749
X069258Y023749
X066718Y023749
X064178Y023749
X061638Y023749
X059098Y023749
X056558Y023749
X054018Y023749
X051478Y023749
X048938Y023749
X046398Y023749
X043858Y023749
X041318Y023749
X041318Y038989
X043858Y038989
X046398Y038989
X048938Y038989
X051478Y038989
X054018Y038989
X056558Y038989
X059098Y038989
X061638Y038989
X064178Y038989
X066718Y038989
X069258Y038989
X071798Y038989
X074338Y038989
X076878Y038989
X079418Y038989
X081958Y038989
X094658Y038989
X089578Y038989
X087038Y038989
X084498Y038989
X084498Y044704
X087038Y042164
X089578Y044704
X092118Y042164
X094658Y044069
X127043Y054188
X124503Y054188
X121963Y054188
X119423Y054188
X116883Y054188
X101643Y064389
X094023Y063754
X094023Y061214
X101643Y059309
X092753Y054188
X090213Y054188
X087673Y054188
X085133Y054188
X082593Y054188
X057193Y064389
X064178Y063754
X064178Y061214
X057193Y059309
X058463Y054188
X055923Y054188
X053383Y054188
X050843Y054188
X048303Y054188
T03
X073068Y063754
X079418Y063754
X085768Y063754
X112438Y063119
X119423Y063119
T04
X131488Y005334
X131488Y062484
X009568Y062484
X009568Y005334
M30
