G04 Output by ViewMate Deluxe V11.0.9  PentaLogix LLC*
G04 Sun Jun 14 09:16:29 2015*
%FSLAX33Y33*%
%MOMM*%
%IPPOS*%
%ADD10R,1.3081X1.3081*%
%ADD11C,1.3081*%
%ADD12C,1.3081*%
%ADD13R,1.8009X1.8009*%
%ADD14C,1.27*%
%ADD15C,0.4064*%
%ADD16C,1.016*%

%LPD*%
X0Y0D2*D11*G1X119423Y12974D2*X119423Y14282D1*X121963Y14282D2*X121963Y12974D1*X124503Y12974D2*X124503Y14282D1*X127043Y14282D2*X127043Y12974D1*X127043Y54844D2*X127043Y53536D1*X124503Y53536D2*X124503Y54844D1*X121963Y54844D2*X121963Y53536D1*X119423Y53536D2*X119423Y54844D1*X116883Y54844D2*X116883Y53536D1*X14013Y53536D2*X14013Y54844D1*X16553Y54844D2*X16553Y53536D1*X19093Y53536D2*X19093Y54844D1*X21633Y54844D2*X21633Y53536D1*X24173Y53536D2*X24173Y54844D1*X48303Y54844D2*X48303Y53536D1*X50843Y53536D2*X50843Y54844D1*X53383Y54844D2*X53383Y53536D1*X55923Y53536D2*X55923Y54844D1*X58463Y54844D2*X58463Y53536D1*X82593Y53536D2*X82593Y54844D1*X85133Y54844D2*X85133Y53536D1*X87673Y53536D2*X87673Y54844D1*X92753Y54844D2*X92753Y53536D1*X90213Y53536D2*X90213Y54844D1*X89578Y38336D2*X89578Y39642D1*X87038Y39642D2*X87038Y38336D1*X84498Y38336D2*X84498Y39642D1*X81958Y39642D2*X81958Y38336D1*X79418Y38336D2*X79418Y39642D1*X76878Y39642D2*X76878Y38336D1*X74338Y38336D2*X74338Y39642D1*X71798Y39642D2*X71798Y38336D1*X69258Y38336D2*X69258Y39642D1*X66718Y39642D2*X66718Y38336D1*X64178Y38336D2*X64178Y39642D1*X61638Y39642D2*X61638Y38336D1*X59098Y38336D2*X59098Y39642D1*X56558Y39642D2*X56558Y38336D1*X54018Y38336D2*X54018Y39642D1*X43858Y39642D2*X43858Y38336D1*X46398Y38336D2*X46398Y39642D1*X48938Y39642D2*X48938Y38336D1*X51478Y38336D2*X51478Y39642D1*X50843Y12974D2*X50843Y14282D1*X53383Y14282D2*X53383Y12974D1*X55923Y12974D2*X55923Y14282D1*X58463Y14282D2*X58463Y12974D1*X85133Y12974D2*X85133Y14282D1*X87673Y14282D2*X87673Y12974D1*X92753Y12974D2*X92753Y14282D1*X90213Y14282D2*X90213Y12974D1*X89578Y24402D2*X89578Y23096D1*X87038Y23096D2*X87038Y24402D1*X84498Y24402D2*X84498Y23096D1*X81958Y23096D2*X81958Y24402D1*X79418Y24402D2*X79418Y23096D1*X76878Y23096D2*X76878Y24402D1*X74338Y24402D2*X74338Y23096D1*X71798Y23096D2*X71798Y24402D1*X69258Y24402D2*X69258Y23096D1*X66718Y23096D2*X66718Y24402D1*X64178Y24402D2*X64178Y23096D1*X61638Y23096D2*X61638Y24402D1*X59098Y24402D2*X59098Y23096D1*X56558Y23096D2*X56558Y24402D1*X54018Y24402D2*X54018Y23096D1*X51478Y23096D2*X51478Y24402D1*X48938Y24402D2*X48938Y23096D1*X46398Y23096D2*X46398Y24402D1*X43858Y24402D2*X43858Y23096D1*X41318Y23096D2*X41318Y24402D1*X24173Y12974D2*X24173Y14282D1*X21633Y14282D2*X21633Y12974D1*X19093Y12974D2*X19093Y14282D1*X16553Y14282D2*X16553Y12974D1*D14*X64178Y63754D2*X65448Y63754D1*X70528Y58674*X93388Y58674*X94658Y57404*X89578Y44704D2*X92118Y44704D1*X94658Y47244*X94658Y57404*D15*X65448Y34544D2*X19093Y34544D1*X16553Y33274D2*X64178Y33274D1*X69258Y18669D2*X16553Y18669D1*X19093Y17399D2*X66718Y17399D1*X64178Y16129D2*X21633Y16129D1*X55923Y19939D2*X43858Y19939D1*X43858Y23749*X53383Y21209D2*X46398Y21209D1*X58463Y25654D2*X59098Y25019D1*X59098Y23749*X61638Y23749D2*X61638Y25654D1*X60368Y26924*X24173Y26924*X58463Y25654D2*X21633Y25654D1*X83228Y28829D2*X54018Y28829D1*X56558Y30099D2*X85768Y30099D1*X88308Y31369D2*X59098Y31369D1*X124503Y42799D2*X112438Y54864D1*X112438Y63119*X119423Y63119D2*X119423Y59944D1*X120693Y58674*X120693Y50419*X126408Y44704*X126408Y25019*X125138Y23749*X89578Y23749*X87038Y23749D2*X87038Y26289D1*X91483Y30734*X121963Y30734*X124503Y33274*X124503Y42799*X119423Y38354D2*X114978Y33909D1*X70528Y33909*X69258Y35179*X69258Y38989*X66718Y38989D2*X66718Y33909D1*X67988Y32639*X119423Y32639*X121963Y35179*X121963Y40894*X119423Y40894D2*X114343Y35814D1*X72433Y35814*X71798Y36449*X71798Y38989*X48938Y47244D2*X82593Y47244D1*X51478Y45974D2*X83228Y45974D1*X84498Y47244*X85133Y47244*X87673Y48514D2*X47033Y48514D1*X46398Y49149*X52748Y49784D2*X48303Y49784D1*X90213Y50419D2*X64178Y50419D1*X61638Y51689D2*X92753Y51689D1*X43858Y51054D2*X57193Y51054D1*X58463Y52324D2*X43223Y52324D1*D10*X41318Y38989D3*X116883Y13630D3*X82593Y13630D3*X48303Y13630D3*X14013Y13630D3*D12*X57193Y64389D3*X57193Y59309D3*X64178Y61214D3*X64178Y63754D3*X101643Y64389D3*X94023Y63754D3*X94023Y61214D3*X101643Y59309D3*X84498Y44704D3*X87038Y42164D3*X89578Y44704D3*X94658Y44069D3*X92118Y42164D3*X94658Y38989D3*D13*X119423Y63119D3*X112438Y63119D3*X85768Y63754D3*X79418Y63754D3*X73068Y63754D3*D16*X43223Y52324D3*X43858Y51054D3*X119423Y38354D3*X121963Y40894D3*X119423Y40894D3*X92753Y51689D3*X90213Y50419D3*X87673Y48514D3*X85133Y47244D3*X82593Y47244D3*X64178Y50419D3*X61638Y51689D3*X58463Y52324D3*X57193Y51054D3*X52748Y49784D3*X48303Y49784D3*X46398Y49149D3*X48938Y47244D3*X51478Y45974D3*X54018Y28829D3*X56558Y30099D3*X59098Y31369D3*X64178Y33274D3*X65448Y34544D3*X88308Y31369D3*X85768Y30099D3*X83228Y28829D3*X69258Y18669D3*X66718Y17399D3*X64178Y16129D3*X55923Y19939D3*X53383Y21209D3*X46398Y21209D3*X21633Y16129D3*X19093Y17399D3*X16553Y18669D3*X21633Y25654D3*X24173Y26924D3*X16553Y33274D3*X19093Y34544D3*X0Y0D2*M02*