G04 Output by ViewMate Deluxe V11.0.9  PentaLogix LLC*
G04 Sun Jun 14 09:16:29 2015*
%FSLAX33Y33*%
%MOMM*%
%IPPOS*%
%ADD17C,0.13*%
%ADD100C,0.1524*%
%ADD102C,0.2032*%

%LPD*%
X0Y0D2*D17*G1X40216Y39535D2*X39421Y38738D1*X89314Y41643D2*X89314Y42558D1*X94874Y39802D2*X95179Y40107D1*X94264Y40107*X94264Y40411D2*X94264Y39802D1*X94417Y40737D2*X95026Y40737D1*X95179Y40889*X95179Y41194*X95026Y41349*X94417Y41349D2*X95026Y41349D1*X94417Y40737*X94264Y40889*X94264Y41194*X94417Y41349*X94417Y41674D2*X95026Y41674D1*X95179Y41826*X95179Y42131*X95026Y42283*X94264Y43218D2*X94722Y43218D1*X94874Y43066*X94874Y42608*X94264Y42608*X94264Y42131D2*X94417Y42283D1*X95026Y42283*X94417Y41674*X94264Y41826*X94264Y42131*X89314Y42558D2*X89619Y42253D1*X89009Y41643D2*X89619Y41643D1*X88684Y41643D2*X88684Y42253D1*X88227Y42253*X88074Y42100*X88074Y41643*X87777Y45237D2*X87777Y44298D1*X40216Y39136D2*X39421Y39136D1*X39421Y39535D2*X40216Y38738D1*X39817Y38738D2*X39817Y39535D1*X86063Y44768D2*X85593Y44298D1*X86220Y44610D2*X85593Y45237D1*X86220Y45237D2*X86220Y44298D1*X86528Y45082D2*X86685Y45237D1*X87000Y45237*X87155Y45082*X87155Y44455*X87000Y44298*X86685Y44298*X86528Y44455*X86528Y45082*X87155Y44455*X87465Y44298D2*X88092Y44298D1*X88092Y44925D2*X87777Y45237D1*D100*X57600Y38735D2*X58057Y38735D1*X39286Y31623D2*X39286Y38735D1*X42410Y38735D2*X42817Y38735D1*X85197Y45593D2*X88880Y45593D1*X92499Y41021D2*X86657Y41021D1*X95801Y38608D2*X95801Y44450D1*X93515Y44450D2*X93515Y38608D1*X86657Y43307D2*X92499Y43307D1*X85197Y43815D2*X88880Y43815D1*X62680Y38735D2*X63137Y38735D1*X60140Y38735D2*X60597Y38735D1*X55060Y38735D2*X55517Y38735D1*X52520Y38735D2*X52977Y38735D1*X49980Y38735D2*X50437Y38735D1*X47440Y38735D2*X47897Y38735D1*X44900Y38735D2*X45357Y38735D1*X39286Y38735D2*X40226Y38735D1*D102*X35905Y39497D2*X37473Y39497D1*X37788Y39185*X37788Y36325D2*X37788Y37579D1*X36533Y36325*X36218Y36325*X35905Y36640*X35905Y37267*X36218Y37579*X35905Y38242D2*X37473Y38242D1*X37788Y38557*X37788Y39185*X0Y0D2*M02*