G04 Output by ViewMate Deluxe V11.0.9  PentaLogix LLC*
G04 Sun Jun 14 09:16:29 2015*
%FSLAX33Y33*%
%MOMM*%
%IPPOS*%
%ADD17C,0.13*%
%ADD110C,0.1524*%
%ADD111C,0.2032*%
%ADD113C,0.4064*%
%ADD114C,0.127*%

%LPD*%
X0Y0D2*D17*G1X101272Y61994D2*X101884Y61994D1*D17*X57587Y60731D2*X57587Y60122D1*X57130Y63538D2*X57587Y63538D1*X107716Y2794D2*X107521Y2990D1*X56975Y60122D2*X56670Y60427D1*X57587Y60427*X57434Y61057D2*X56822Y61057D1*X56670Y61209*X56670Y61514*X56822Y61669*X57434Y61669*X57587Y61514*X57587Y61209*X57434Y61057*X56822Y61669*X57587Y62928D2*X56975Y62928D1*X57130Y63538D2*X56975Y63386D1*X56975Y62928*X56822Y62603D2*X56670Y62451D1*X56670Y62146*X56822Y61994*X57434Y61994*X57587Y62146D2*X57587Y62451D1*X57434Y62603*X56822Y62603*X57434Y61994*X57587Y62146*X102037Y62928D2*X101425Y62928D1*X102037Y63538D2*X101580Y63538D1*X101425Y63386*X101425Y62928*X101272Y62603D2*X101884Y62603D1*X102037Y62451*X102037Y62146*X101884Y61994*X101272Y62603*X101120Y62451*X101120Y62146*X101272Y61994*X101272Y61669D2*X101120Y61514D1*X101120Y61209*X101272Y61057*X101884Y61057*X102037Y61209*X102037Y61514*X101884Y61669*X101272Y61669*X101884Y61057*X102037Y60122D2*X102037Y60731D1*X102037Y60427D2*X101120Y60427D1*X101425Y60122*X94074Y2405D2*X94267Y2210D1*X94463Y2210*X94658Y2405*X94658Y3378*X94854Y3378D2*X94463Y3378D1*X95438Y2990D2*X95827Y2990D1*X96022Y2794*X96022Y2598D2*X95438Y2598D1*X95242Y2405*X95438Y2210*X96022Y2210*X96022Y2794*X96802Y2794D2*X96606Y2990D1*X96411Y2990*X96411Y2210*X96802Y2210D2*X96802Y2794D1*X96998Y2990*X97191Y2794*X97191Y2210*X97582Y2405D2*X97777Y2210D1*X98166Y2210*X98362Y2598D2*X98362Y2794D1*X98166Y2990*X97777Y2990*X97582Y2794*X97582Y2405*X98362Y2598D2*X97582Y2598D1*X98750Y2210D2*X99334Y2210D1*X99530Y2405*X99334Y2598*X98946Y2598*X98750Y2794*X98946Y2990*X99530Y2990*X101869Y2210D2*X101089Y3378D1*X101089Y2210*X101869Y2210D2*X101869Y3378D1*X102258Y2405D2*X102453Y2210D1*X102845Y2210*X103038Y2794D2*X102845Y2990D1*X102453Y2990*X102258Y2794*X102258Y2405*X102258Y2598D2*X103038Y2598D1*X103038Y2794*X103429Y2990D2*X103429Y2405D1*X103624Y2210*X103817Y2405*X104013Y2210*X104209Y2405*X104209Y2990*X104597Y2210D2*X104597Y2990D1*X104793Y2990*X104988Y2794*X105377Y2794D2*X105181Y2990D1*X104988Y2794*X104988Y2210*X105377Y2794D2*X105377Y2210D1*X105961Y2990D2*X106352Y2990D1*X106548Y2794*X106548Y2210*X106548Y2598D2*X105961Y2598D1*X105768Y2405*X105961Y2210*X106548Y2210*X106937Y2210D2*X106937Y2990D1*X107521Y2990*X107716Y2794D2*X107716Y2210D1*D110*X107343Y63645D2*X107615Y63373D1*X123312Y62560D2*X123312Y64188D1*X124945Y63645D2*X124132Y63104D1*X124132Y62560D2*X124132Y64188D1*X124132Y63104D2*X124945Y62560D1*X121404Y62832D2*X121404Y63917D1*X121674Y64188*X122217Y64188*X122489Y63917*X123312Y64188D2*X123040Y64188D1*X123040Y62560D2*X123584Y62560D1*X122489Y62832D2*X122217Y62560D1*X121674Y62560*X121404Y62832*X110343Y63373D2*X110073Y63645D1*X109530Y63645*X109258Y62832D2*X109530Y62560D1*X110343Y62560*X110343Y63373*X110343Y63104D2*X109530Y63104D1*X109258Y62832*X108709Y62560D2*X108440Y62832D1*X108440Y63917*X108168Y63645D2*X108709Y63645D1*X106802Y63645D2*X107343Y63645D1*X106530Y62832D2*X106802Y62560D1*X107615Y62560*X107615Y63373*X107615Y63104D2*X106802Y63104D1*X106530Y62832*X104894Y62560D2*X104894Y64188D1*X105707Y64188*X105979Y63917*X105979Y62832*X105707Y62560*X104894Y62560*X102786Y64770D2*X102786Y58928D1*X100500Y58928D2*X100500Y64770D1*X83939Y62283D2*X83939Y60655D1*X86660Y62283D2*X85575Y62283D1*X85575Y60655*X86119Y61468D2*X85575Y61468D1*X87213Y60655D2*X87213Y62283D1*X88026Y62283*X88298Y62012*X88298Y60927*X88026Y60655*X87213Y60655*X85575Y60655D2*X86660Y60655D1*X83939Y60655D2*X85024Y60655D1*X71145Y62012D2*X71145Y60927D1*X77955Y60655D2*X77955Y61740D1*X79593Y60927D2*X79865Y60655D1*X80678Y60655*X80678Y62283*X80678Y61740D2*X79865Y61740D1*X79593Y61468*X79593Y60927*X79040Y60655D2*X79040Y61468D1*X78768Y61740*X77955Y61740*X77404Y62012D2*X77132Y62283D1*X76589Y62283*X76319Y62012*X76860Y61468D2*X77404Y61468D1*X77404Y60927*X77132Y60655*X76589Y60655*X76319Y60927*X76319Y62012*X74963Y62283D2*X74963Y61199D1*X74419Y60655*X73878Y61199*X73878Y62283*X73325Y62283D2*X72240Y62283D1*X72240Y61468*X72240Y60927D2*X72512Y60655D1*X73053Y60655*X73325Y60927*X73325Y61468*X73053Y61740*X72784Y61740*X72240Y61468*X70604Y61468D2*X71689Y61468D1*X58336Y64770D2*X58336Y58928D1*X56050Y58928D2*X56050Y64770D1*D111*X118925Y3777D2*X120485Y3777D1*X96319Y6114D2*X96319Y6505D1*X94760Y6505*X94760Y4166D2*X94760Y4554D1*X96319Y6114*X98656Y6114D2*X98268Y6505D1*X97488Y6505*X97097Y6114*X97097Y5725*X97488Y5334*X98656Y4945D2*X98268Y5334D1*X97488Y5334*X97097Y4554D2*X97488Y4166D1*X98268Y4166*X98656Y4554*X98656Y4945*X100216Y5334D2*X99436Y5334D1*X100995Y6505D2*X99436Y6505D1*X99436Y4166*X100995Y4166*X103335Y4554D2*X103335Y5334D1*X102555Y5334*X103335Y6114D2*X102944Y6505D1*X102164Y6505*X101775Y6114*X101775Y4554*X102164Y4166*X102944Y4166*X103335Y4554*X105674Y3777D2*X104115Y3777D1*X107622Y4166D2*X107622Y6505D1*X106454Y5334*X108011Y5334*X110350Y6114D2*X110350Y4554D1*X109962Y4166*X108791Y4166*X108791Y6505*X109962Y6505*X110350Y6114*X111910Y6505D2*X111130Y6505D1*X111521Y4166D2*X111521Y6505D1*X111910Y4166D2*X111130Y4166D1*X113469Y5334D2*X114249Y5334D1*X114249Y4554*X113858Y4166*X113078Y4166*X112690Y4554*X112690Y6114*X113078Y6505*X113858Y6505*X114249Y6114*X115029Y6505D2*X115809Y6505D1*X115418Y4166D2*X115418Y6505D1*X115809Y4166D2*X115029Y4166D1*X117368Y6505D2*X117368Y4166D1*X118148Y6505D2*X116589Y6505D1*X121265Y5725D2*X122044Y6505D1*X121265Y4166D2*X122824Y4166D1*X122044Y6505D2*X122044Y4166D1*D113*X130853Y20574D2*X130858Y20495D1*X130874Y20417*X130899Y20340*X130932Y20269*X130975Y20201*X131026Y20140*X131084Y20084*X131148Y20038*X131219Y20000*X131293Y19969*X131369Y19949*X131448Y19939*X131529Y19939*X131608Y19949*X131684Y19969*X131757Y20000*X131829Y20038*X131892Y20084*X131950Y20140*X132001Y20201*X132044Y20269*X132077Y20340*X132103Y20417*X132118Y20495*X132123Y20574*X132118Y20653*X132103Y20731*X132077Y20808*X132044Y20879*X132001Y20947*X131950Y21008*X131892Y21064*X131829Y21110*X131757Y21148*X131684Y21179*X131608Y21199*X131529Y21209*X131448Y21209*X131369Y21199*X131293Y21179*X131219Y21148*X131148Y21110*X131084Y21064*X131026Y21008*X130975Y20947*X130932Y20879*X130899Y20808*X130874Y20731*X130858Y20653*X130853Y20574*X96563Y20574D2*X96568Y20495D1*X96584Y20417*X96609Y20340*X96642Y20269*X96685Y20201*X96736Y20140*X96794Y20084*X96858Y20038*X96929Y20000*X97003Y19969*X97079Y19949*X97158Y19939*X97239Y19939*X97318Y19949*X97394Y19969*X97467Y20000*X97539Y20038*X97602Y20084*X97660Y20140*X97711Y20201*X97754Y20269*X97787Y20340*X97813Y20417*X97828Y20495*X97833Y20574*X97828Y20653*X97813Y20731*X97787Y20808*X97754Y20879*X97711Y20947*X97660Y21008*X97602Y21064*X97539Y21110*X97467Y21148*X97394Y21179*X97318Y21199*X97239Y21209*X97158Y21209*X97079Y21199*X97003Y21179*X96929Y21148*X96858Y21110*X96794Y21064*X96736Y21008*X96685Y20947*X96642Y20879*X96609Y20808*X96584Y20731*X96568Y20653*X96563Y20574*X27983Y20574D2*X27988Y20495D1*X28004Y20417*X28029Y20340*X28062Y20269*X28105Y20201*X28156Y20140*X28214Y20084*X28278Y20038*X28349Y20000*X28423Y19969*X28499Y19949*X28578Y19939*X28659Y19939*X28738Y19949*X28814Y19969*X28887Y20000*X28959Y20038*X29022Y20084*X29080Y20140*X29131Y20201*X29174Y20269*X29207Y20340*X29233Y20417*X29248Y20495*X29253Y20574*X29248Y20653*X29233Y20731*X29207Y20808*X29174Y20879*X29131Y20947*X29080Y21008*X29022Y21064*X28959Y21110*X28887Y21148*X28814Y21179*X28738Y21199*X28659Y21209*X28578Y21209*X28499Y21199*X28423Y21179*X28349Y21148*X28278Y21110*X28214Y21064*X28156Y21008*X28105Y20947*X28062Y20879*X28029Y20808*X28004Y20731*X27988Y20653*X27983Y20574*X62273Y20574D2*X62278Y20495D1*X62294Y20417*X62319Y20340*X62352Y20269*X62395Y20201*X62446Y20140*X62504Y20084*X62568Y20038*X62639Y20000*X62713Y19969*X62789Y19949*X62868Y19939*X62949Y19939*X63028Y19949*X63104Y19969*X63177Y20000*X63249Y20038*X63312Y20084*X63370Y20140*X63421Y20201*X63464Y20269*X63497Y20340*X63523Y20417*X63538Y20495*X63543Y20574*X63538Y20653*X63523Y20731*X63497Y20808*X63464Y20879*X63421Y20947*X63370Y21008*X63312Y21064*X63249Y21110*X63177Y21148*X63104Y21179*X63028Y21199*X62949Y21209*X62868Y21209*X62789Y21199*X62713Y21179*X62639Y21148*X62568Y21110*X62504Y21064*X62446Y21008*X62395Y20947*X62352Y20879*X62319Y20808*X62294Y20731*X62278Y20653*X62273Y20574*D114*X108082Y8763D2*X107892Y8572D1*X107701Y9525D2*X108082Y9716D1*X73665Y8763D2*X74427Y9525D1*X61638Y63754D2*X62908Y63754D1*X62273Y63119D2*X62273Y64389D1*X61029Y62484D2*X61034Y62306D1*X61049Y62128*X61074Y61951*X61110Y61778*X61153Y61605*X61209Y61435*X61272Y61267*X61346Y61105*X61427Y60947*X61519Y60795*X61620Y60648*X61727Y60505*X61844Y60371*X61966Y60241*X62098Y60119*X62235Y60005*X62377Y59901*X62527Y59802*X62682Y59713*X62840Y59632*X63005Y59560*X63170Y59500*X63343Y59449*X63515Y59406*X63690Y59372*X63866Y59350*X64044Y59337*X64224Y59334*X64402Y59342*X64580Y59360*X64755Y59388*X64927Y59426*X65100Y59472*X65270Y59530*X65435Y59596*X65596Y59672*X65753Y59756*X65905Y59850*X66050Y59952*X66192Y60061*X66324Y60180*X66451Y60305*X66571Y60437*X66683Y60576*X66787Y60721*X66883Y60871*X66970Y61026*X67048Y61186*X67117Y61351*X67175Y61519*X67226Y61692*X67267Y61864*X67297Y62040*X67318Y62217*X67328Y62395*X67328Y62573*X67318Y62751*X67297Y62928*X67267Y63104*X67226Y63276*X67175Y63449*X67117Y63617*X67048Y63782*X66970Y63942*X66883Y64097*X66787Y64247*X66683Y64392*X66571Y64531*X66451Y64663*X66324Y64788*X66192Y64907*X66050Y65016*X65905Y65118*X65753Y65212*X65596Y65296*X65435Y65372*X65270Y65438*X65100Y65496*X64927Y65542*X64755Y65580*X64580Y65608*X64402Y65626*X64224Y65634*X64044Y65631*X63866Y65618*X63690Y65596*X63515Y65562*X63343Y65519*X63170Y65468*X63005Y65408*X62840Y65336*X62682Y65255*X62527Y65166*X62377Y65067*X62235Y64963*X62098Y64849*X61966Y64727*X61844Y64597*X61727Y64463*X61620Y64320*X61519Y64173*X61427Y64021*X61346Y63863*X61272Y63701*X61209Y63533*X61153Y63363*X61110Y63190*X61074Y63017*X61049Y62840*X61034Y62662*X61029Y62484*X91483Y63754D2*X92753Y63754D1*X92118Y63119D2*X92118Y64389D1*X90874Y62484D2*X90879Y62306D1*X90894Y62128*X90919Y61951*X90955Y61778*X90998Y61605*X91054Y61435*X91117Y61267*X91191Y61105*X91272Y60947*X91364Y60795*X91465Y60648*X91572Y60505*X91689Y60371*X91811Y60241*X91943Y60119*X92080Y60005*X92222Y59901*X92372Y59802*X92527Y59713*X92685Y59632*X92850Y59560*X93015Y59500*X93188Y59449*X93360Y59406*X93536Y59372*X93711Y59350*X93889Y59337*X94069Y59334*X94247Y59342*X94424Y59360*X94600Y59388*X94772Y59426*X94945Y59472*X95115Y59530*X95280Y59596*X95440Y59672*X95598Y59756*X95750Y59850*X95895Y59952*X96037Y60061*X96169Y60180*X96296Y60305*X96416Y60437*X96528Y60576*X96632Y60721*X96728Y60871*X96815Y61026*X96893Y61186*X96962Y61351*X97020Y61519*X97071Y61692*X97112Y61864*X97142Y62040*X97163Y62217*X97173Y62395*X97173Y62573*X97163Y62751*X97142Y62928*X97112Y63104*X97071Y63276*X97020Y63449*X96962Y63617*X96893Y63782*X96815Y63942*X96728Y64097*X96632Y64247*X96528Y64392*X96416Y64531*X96296Y64663*X96169Y64788*X96037Y64907*X95895Y65016*X95750Y65118*X95598Y65212*X95440Y65296*X95280Y65372*X95115Y65438*X94945Y65496*X94772Y65542*X94600Y65580*X94424Y65608*X94247Y65626*X94069Y65634*X93889Y65631*X93711Y65618*X93536Y65596*X93360Y65562*X93188Y65519*X93015Y65468*X92850Y65408*X92685Y65336*X92527Y65255*X92372Y65166*X92222Y65067*X92080Y64963*X91943Y64849*X91811Y64727*X91689Y64597*X91572Y64463*X91465Y64320*X91364Y64173*X91272Y64021*X91191Y63863*X91117Y63701*X91054Y63533*X90998Y63363*X90955Y63190*X90919Y63017*X90894Y62840*X90879Y62662*X90874Y62484*X107701Y9525D2*X107320Y9144D1*X107320Y8763*X107511Y8572*X107892Y8572*X108082Y8763D2*X108082Y8954D1*X107892Y9144*X107320Y9144*X106152Y9716D2*X106723Y9716D1*X106914Y9525*X106914Y8763*X106723Y8572*X106152Y8572*X106152Y9716*X73665Y9716D2*X74427Y9716D1*X74427Y9525*X73665Y8572D2*X73665Y8763D1*X72497Y8572D2*X72497Y9716D1*X73068Y9716*X73259Y9525*X73259Y8763*X73068Y8572*X72497Y8572*X40582Y9144D2*X40772Y9334D1*X40772Y9525*X40582Y9716*X40201Y9716*X40010Y9525*X40010Y9334*X40201Y9144*X40010Y8763D2*X40201Y8572D1*X40582Y8572*X40772Y8763*X40772Y8954*X40582Y9144*X40201Y9144*X40010Y8954*X40010Y8763*X38842Y8572D2*X38842Y9716D1*X39413Y9716*X39604Y9525*X39604Y8763*X39413Y8572*X38842Y8572*X17912Y8509D2*X17341Y8509D1*X17150Y8700*X17150Y8890*X17341Y9080*X17722Y9080*X17912Y8890*X17912Y8128*X17722Y7938*X17341Y7938*X17150Y8128*X16553Y7938D2*X16744Y8128D1*X16744Y8890*X16553Y9080*X15982Y9080*X15982Y7938*X16553Y7938*X0Y0D2*M02*