G75*
G70*
%OFA0B0*%
%FSLAX24Y24*%
%IPPOS*%
%LPD*%
%AMOC8*
5,1,8,0,0,1.08239X$1,22.5*
%
%ADD10C,0.0515*%
%ADD11C,0.0476*%
%ADD12R,0.0650X0.0650*%
%ADD13C,0.0650*%
%ADD14R,0.0709X0.0709*%
%ADD15R,0.1500X0.1500*%
%ADD16C,0.0240*%
%ADD17C,0.0400*%
%ADD18C,0.0160*%
D10*
X003600Y005375D03*
X004600Y005375D03*
X003600Y011625D03*
X003600Y012625D03*
X003850Y014625D03*
X003100Y014625D03*
X002350Y014625D03*
X001600Y014625D03*
X001600Y016625D03*
X002350Y016625D03*
X003100Y016625D03*
X003850Y016625D03*
X001850Y012625D03*
X001850Y011625D03*
X007100Y013625D03*
X008100Y013625D03*
X009100Y013625D03*
X011100Y013625D03*
X010600Y015875D03*
X010600Y016625D03*
X010600Y017375D03*
X011100Y019625D03*
X009100Y019625D03*
X008100Y019625D03*
X007100Y019625D03*
X003600Y027625D03*
X003600Y028625D03*
X003850Y030875D03*
X003100Y030875D03*
X002350Y030875D03*
X001600Y030875D03*
X001600Y032875D03*
X002350Y032875D03*
X003100Y032875D03*
X003850Y032875D03*
X001850Y028625D03*
X001850Y027625D03*
X007100Y029625D03*
X008100Y029625D03*
X009100Y029625D03*
X011100Y029625D03*
X010600Y031875D03*
X010600Y032625D03*
X010600Y033375D03*
X011100Y035625D03*
X009100Y035625D03*
X008100Y035625D03*
X007100Y035625D03*
X003600Y043625D03*
X003600Y044625D03*
X003850Y046625D03*
X003100Y046625D03*
X002350Y046625D03*
X001600Y046625D03*
X001600Y048625D03*
X002350Y048625D03*
X003100Y048625D03*
X003850Y048625D03*
X001850Y044625D03*
X001850Y043625D03*
X006850Y045625D03*
X007850Y045625D03*
X008850Y045625D03*
X010350Y047875D03*
X010350Y048625D03*
X010350Y049375D03*
X010850Y051625D03*
X012350Y049375D03*
X012350Y048625D03*
X012350Y047875D03*
X010850Y045625D03*
X008850Y051625D03*
X007850Y051625D03*
X006850Y051625D03*
X003600Y059625D03*
X003600Y060625D03*
X003850Y062625D03*
X003100Y062625D03*
X002350Y062625D03*
X001600Y062625D03*
X001600Y064625D03*
X002350Y064625D03*
X003100Y064625D03*
X003850Y064625D03*
X001850Y060625D03*
X001850Y059625D03*
X006850Y061625D03*
X007850Y061625D03*
X008850Y061625D03*
X010350Y063875D03*
X010350Y064625D03*
X010350Y065375D03*
X010850Y067625D03*
X012350Y065375D03*
X012350Y064625D03*
X012350Y063875D03*
X010850Y061625D03*
X008850Y067625D03*
X007850Y067625D03*
X006850Y067625D03*
X003600Y075625D03*
X003600Y076625D03*
X003850Y078625D03*
X003100Y078625D03*
X002350Y078625D03*
X001600Y078625D03*
X001850Y076625D03*
X001850Y075625D03*
X001600Y080625D03*
X002350Y080625D03*
X003100Y080625D03*
X003850Y080625D03*
X006850Y077625D03*
X007850Y077625D03*
X008850Y077625D03*
X010350Y079875D03*
X010350Y080625D03*
X010350Y081375D03*
X010850Y083625D03*
X012350Y081375D03*
X012350Y080625D03*
X012350Y079875D03*
X010850Y077625D03*
X008850Y083625D03*
X007850Y083625D03*
X006850Y083625D03*
X003600Y091625D03*
X003600Y092625D03*
X003850Y094625D03*
X003100Y094625D03*
X002350Y094625D03*
X001600Y094625D03*
X001850Y092625D03*
X001850Y091625D03*
X001600Y096625D03*
X002350Y096625D03*
X003100Y096625D03*
X003850Y096625D03*
X007100Y093625D03*
X008100Y093625D03*
X009100Y093625D03*
X011100Y093625D03*
X010600Y095875D03*
X010600Y096625D03*
X010600Y097375D03*
X011100Y099625D03*
X009100Y099625D03*
X008100Y099625D03*
X007100Y099625D03*
X003600Y107625D03*
X003600Y108625D03*
X003850Y110375D03*
X003100Y110375D03*
X002350Y110375D03*
X001600Y110375D03*
X001850Y108625D03*
X001850Y107625D03*
X001600Y112375D03*
X002350Y112375D03*
X003100Y112375D03*
X003850Y112375D03*
X006850Y109625D03*
X007850Y109625D03*
X008850Y109625D03*
X010350Y111875D03*
X010350Y112625D03*
X010350Y113375D03*
X010850Y115625D03*
X012350Y113375D03*
X012350Y112625D03*
X012350Y111875D03*
X010850Y109625D03*
X008850Y115625D03*
X007850Y115625D03*
X006850Y115625D03*
X003600Y123625D03*
X003600Y124625D03*
X003850Y126375D03*
X003100Y126375D03*
X002350Y126375D03*
X001600Y126375D03*
X001850Y124625D03*
X001850Y123625D03*
X001600Y128375D03*
X002350Y128375D03*
X003100Y128375D03*
X003850Y128375D03*
X004850Y133625D03*
X002850Y134625D03*
X001850Y134625D03*
X006850Y133625D03*
X007100Y131625D03*
X008100Y131625D03*
X009100Y131625D03*
X011100Y131625D03*
X010600Y129375D03*
X010600Y128625D03*
X010600Y127875D03*
X011100Y125625D03*
X009100Y125625D03*
X008100Y125625D03*
X007100Y125625D03*
X009850Y133875D03*
X010600Y133875D03*
X010600Y135875D03*
X009850Y135875D03*
X012600Y129375D03*
X012600Y128625D03*
X012600Y127875D03*
X015350Y128125D03*
X015350Y129125D03*
X017600Y136375D03*
X017600Y138375D03*
X014850Y138125D03*
X013850Y138125D03*
X020100Y128625D03*
X021100Y128625D03*
X022100Y128625D03*
X023600Y126375D03*
X023600Y125625D03*
X023600Y124875D03*
X024100Y122625D03*
X025600Y124875D03*
X025600Y125625D03*
X025600Y126375D03*
X024100Y128625D03*
X022100Y122625D03*
X021100Y122625D03*
X020100Y122625D03*
X020100Y112625D03*
X021100Y112625D03*
X022100Y112625D03*
X023600Y110375D03*
X023600Y109625D03*
X023600Y108875D03*
X024100Y106625D03*
X025600Y108875D03*
X025600Y109625D03*
X025600Y110375D03*
X024100Y112625D03*
X022100Y106625D03*
X021100Y106625D03*
X020100Y106625D03*
X015350Y112125D03*
X015350Y113125D03*
X012600Y097375D03*
X012600Y096625D03*
X012600Y095875D03*
X015350Y096125D03*
X015350Y097125D03*
X020100Y096625D03*
X021100Y096625D03*
X022100Y096625D03*
X023600Y094375D03*
X023600Y093625D03*
X023600Y092875D03*
X024100Y090625D03*
X025600Y092875D03*
X025600Y093625D03*
X025600Y094375D03*
X024100Y096625D03*
X022100Y090625D03*
X021100Y090625D03*
X020100Y090625D03*
X020100Y080625D03*
X021100Y080625D03*
X022100Y080625D03*
X023600Y078375D03*
X023600Y077625D03*
X023600Y076875D03*
X024100Y074625D03*
X025600Y076875D03*
X025600Y077625D03*
X025600Y078375D03*
X024100Y080625D03*
X022100Y074625D03*
X021100Y074625D03*
X020100Y074625D03*
X015100Y080125D03*
X015100Y081125D03*
X015100Y065125D03*
X015100Y064125D03*
X020100Y064625D03*
X021100Y064625D03*
X022100Y064625D03*
X023600Y062375D03*
X023600Y061625D03*
X023600Y060875D03*
X024100Y058625D03*
X025600Y060875D03*
X025600Y061625D03*
X025600Y062375D03*
X024100Y064625D03*
X022100Y058625D03*
X021100Y058625D03*
X020100Y058625D03*
X020100Y048625D03*
X021100Y048625D03*
X022100Y048625D03*
X023600Y046375D03*
X023600Y045625D03*
X023600Y044875D03*
X024100Y042625D03*
X025600Y044875D03*
X025600Y045625D03*
X025600Y046375D03*
X024100Y048625D03*
X022100Y042625D03*
X021100Y042625D03*
X020100Y042625D03*
X015350Y033125D03*
X015350Y032125D03*
X012600Y031875D03*
X012600Y032625D03*
X012600Y033375D03*
X020100Y032625D03*
X021100Y032625D03*
X022100Y032625D03*
X023600Y030375D03*
X023600Y029625D03*
X023600Y028875D03*
X024100Y026625D03*
X025600Y028875D03*
X025600Y029625D03*
X025600Y030375D03*
X024100Y032625D03*
X022100Y026625D03*
X021100Y026625D03*
X020100Y026625D03*
X020100Y016625D03*
X021100Y016625D03*
X022100Y016625D03*
X023600Y014375D03*
X023600Y013625D03*
X023600Y012875D03*
X024100Y010625D03*
X025600Y012875D03*
X025600Y013625D03*
X025600Y014375D03*
X024100Y016625D03*
X022100Y010625D03*
X021100Y010625D03*
X020100Y010625D03*
X015350Y016125D03*
X015350Y017125D03*
X012600Y017375D03*
X012600Y016625D03*
X012600Y015875D03*
X010850Y005875D03*
X010100Y005875D03*
X010100Y003875D03*
X010850Y003875D03*
X011850Y003625D03*
X013850Y003625D03*
X028350Y013125D03*
X028350Y014125D03*
X033350Y012125D03*
X034350Y012125D03*
X035350Y012125D03*
X036850Y014375D03*
X036850Y015125D03*
X036850Y015875D03*
X037350Y018125D03*
X038850Y015875D03*
X038850Y015125D03*
X038850Y014375D03*
X037350Y012125D03*
X035350Y018125D03*
X034350Y018125D03*
X033350Y018125D03*
X035100Y021875D03*
X037100Y021875D03*
X037350Y028125D03*
X036850Y030375D03*
X036850Y031125D03*
X036850Y031875D03*
X037350Y034125D03*
X038850Y031875D03*
X038850Y031125D03*
X038850Y030375D03*
X041600Y030625D03*
X041600Y031625D03*
X037350Y044125D03*
X036850Y046375D03*
X036850Y047125D03*
X036850Y047875D03*
X037350Y050125D03*
X038850Y047875D03*
X038850Y047125D03*
X038850Y046375D03*
X041600Y046625D03*
X041600Y047625D03*
X037100Y053875D03*
X035100Y053875D03*
X035350Y050125D03*
X034350Y050125D03*
X033350Y050125D03*
X033350Y044125D03*
X034350Y044125D03*
X035350Y044125D03*
X035350Y034125D03*
X034350Y034125D03*
X033350Y034125D03*
X033350Y028125D03*
X034350Y028125D03*
X035350Y028125D03*
X041600Y015625D03*
X041600Y014625D03*
X047850Y014625D03*
X048850Y014625D03*
X049850Y014625D03*
X050880Y015375D03*
X051350Y016125D03*
X051850Y014625D03*
X052880Y015375D03*
X051850Y012625D03*
X052880Y011875D03*
X051350Y011125D03*
X050880Y011875D03*
X049850Y012625D03*
X048850Y012625D03*
X047850Y012625D03*
X047850Y007625D03*
X048850Y007625D03*
X049850Y007625D03*
X050880Y008375D03*
X051350Y009125D03*
X051850Y007625D03*
X052880Y008375D03*
X054600Y009625D03*
X054600Y010625D03*
X057100Y010625D03*
X058100Y010625D03*
X059850Y010625D03*
X061850Y010625D03*
X062600Y011125D03*
X063600Y012625D03*
X062600Y013125D03*
X062600Y014125D03*
X063600Y014625D03*
X064850Y014125D03*
X064850Y013125D03*
X066600Y012875D03*
X066600Y013625D03*
X068600Y013625D03*
X068600Y012875D03*
X067850Y007625D03*
X066850Y007625D03*
X062600Y016125D03*
X061850Y016625D03*
X059850Y016625D03*
X058100Y016625D03*
X057100Y016625D03*
X054600Y016625D03*
X054600Y017625D03*
X052880Y018875D03*
X051850Y019625D03*
X051350Y018125D03*
X050880Y018875D03*
X049850Y019625D03*
X048850Y019625D03*
X047850Y019625D03*
X047850Y023625D03*
X048850Y023625D03*
X049850Y023625D03*
X050880Y024375D03*
X051350Y025125D03*
X051850Y023625D03*
X052880Y024375D03*
X051350Y027125D03*
X050880Y027875D03*
X049850Y028625D03*
X048850Y028625D03*
X047850Y028625D03*
X047850Y030625D03*
X048850Y030625D03*
X049850Y030625D03*
X050880Y031375D03*
X051350Y032125D03*
X051850Y030625D03*
X052880Y031375D03*
X051850Y028625D03*
X052880Y027875D03*
X054600Y026625D03*
X054600Y025625D03*
X057100Y026625D03*
X058100Y026625D03*
X059850Y026625D03*
X061850Y026625D03*
X062600Y027125D03*
X063600Y028625D03*
X062600Y029125D03*
X062600Y030125D03*
X063600Y030625D03*
X064850Y030125D03*
X064850Y029125D03*
X062600Y032125D03*
X061850Y032625D03*
X059850Y032625D03*
X058100Y032625D03*
X057100Y032625D03*
X054600Y032625D03*
X054600Y033625D03*
X052880Y034875D03*
X051850Y035625D03*
X051350Y034125D03*
X050880Y034875D03*
X049850Y035625D03*
X048850Y035625D03*
X047850Y035625D03*
X047850Y039625D03*
X048850Y039625D03*
X049850Y039625D03*
X050880Y040375D03*
X051350Y041125D03*
X051850Y039625D03*
X052880Y040375D03*
X051350Y043125D03*
X050880Y043875D03*
X049850Y044625D03*
X048850Y044625D03*
X048850Y046625D03*
X049850Y046625D03*
X050880Y047375D03*
X051350Y048125D03*
X051850Y046625D03*
X052880Y047375D03*
X051850Y044625D03*
X052880Y043875D03*
X054600Y042625D03*
X054600Y041625D03*
X057100Y042625D03*
X058100Y042625D03*
X060100Y042625D03*
X062100Y042625D03*
X062850Y043125D03*
X063850Y044625D03*
X062850Y045125D03*
X062850Y046125D03*
X063850Y046625D03*
X062850Y048125D03*
X062100Y048625D03*
X060100Y048625D03*
X058100Y048625D03*
X057100Y048625D03*
X054600Y048625D03*
X054600Y049625D03*
X052880Y050875D03*
X051850Y051625D03*
X051350Y050125D03*
X050880Y050875D03*
X049850Y051625D03*
X048850Y051625D03*
X047850Y051625D03*
X047850Y055625D03*
X048850Y055625D03*
X049850Y055625D03*
X050880Y056375D03*
X051350Y057125D03*
X051850Y055625D03*
X052880Y056375D03*
X051350Y059125D03*
X050880Y059875D03*
X049850Y060625D03*
X048850Y060625D03*
X048850Y062625D03*
X049850Y062625D03*
X050880Y063375D03*
X051350Y064125D03*
X051850Y062625D03*
X052880Y063375D03*
X051850Y060625D03*
X052880Y059875D03*
X054600Y058625D03*
X054600Y057625D03*
X057100Y058625D03*
X058100Y058625D03*
X060100Y058625D03*
X062100Y058625D03*
X062850Y059125D03*
X063850Y060625D03*
X062850Y061125D03*
X062850Y062125D03*
X063850Y062625D03*
X062850Y064125D03*
X062100Y064625D03*
X060100Y064625D03*
X058100Y064625D03*
X057100Y064625D03*
X054600Y064625D03*
X054600Y065625D03*
X052880Y066875D03*
X051850Y067625D03*
X051350Y066125D03*
X050880Y066875D03*
X049850Y067625D03*
X048850Y067625D03*
X047850Y067625D03*
X047850Y071625D03*
X048850Y071625D03*
X049850Y071625D03*
X050880Y072375D03*
X051350Y073125D03*
X051850Y071625D03*
X052880Y072375D03*
X051350Y075125D03*
X050880Y075875D03*
X049850Y076625D03*
X048850Y076625D03*
X048850Y078625D03*
X049850Y078625D03*
X050880Y079375D03*
X051350Y080125D03*
X051850Y078625D03*
X052880Y079375D03*
X051850Y076625D03*
X052880Y075875D03*
X054600Y074625D03*
X054600Y073625D03*
X057100Y074625D03*
X058100Y074625D03*
X060100Y074625D03*
X062100Y074625D03*
X062850Y075125D03*
X063850Y076625D03*
X062850Y077125D03*
X062850Y078125D03*
X063850Y078625D03*
X062850Y080125D03*
X062100Y080625D03*
X060100Y080625D03*
X058100Y080625D03*
X057100Y080625D03*
X054600Y080625D03*
X054600Y081625D03*
X052880Y082875D03*
X051850Y083625D03*
X051350Y082125D03*
X050880Y082875D03*
X049850Y083625D03*
X048850Y083625D03*
X047850Y083625D03*
X047850Y087625D03*
X048850Y087625D03*
X049850Y087625D03*
X050880Y088375D03*
X051350Y089125D03*
X051350Y091125D03*
X050880Y091875D03*
X049850Y092625D03*
X048850Y092625D03*
X048850Y094625D03*
X049850Y094625D03*
X050880Y095375D03*
X051350Y096125D03*
X051850Y094625D03*
X052880Y095375D03*
X051850Y092625D03*
X052880Y091875D03*
X052880Y088375D03*
X051850Y087625D03*
X054600Y089625D03*
X054600Y090625D03*
X057100Y090625D03*
X058100Y090625D03*
X060100Y090625D03*
X062100Y090625D03*
X062850Y091125D03*
X063850Y092625D03*
X062850Y093125D03*
X062850Y094125D03*
X063850Y094625D03*
X062850Y096125D03*
X062100Y096625D03*
X060100Y096625D03*
X058100Y096625D03*
X057100Y096625D03*
X054600Y096625D03*
X054600Y097625D03*
X052880Y098875D03*
X051850Y099625D03*
X051350Y098125D03*
X050880Y098875D03*
X049850Y099625D03*
X048850Y099625D03*
X047850Y099625D03*
X047850Y103625D03*
X048850Y103625D03*
X049850Y103625D03*
X050880Y104375D03*
X051350Y105125D03*
X051850Y103625D03*
X052880Y104375D03*
X051350Y107125D03*
X050880Y107875D03*
X049850Y108625D03*
X048850Y108625D03*
X048850Y110625D03*
X049850Y110625D03*
X050880Y111375D03*
X051350Y112125D03*
X051350Y114125D03*
X050880Y114875D03*
X049850Y115625D03*
X048850Y115625D03*
X047850Y115625D03*
X047850Y119625D03*
X048850Y119625D03*
X049850Y119625D03*
X050880Y120375D03*
X051350Y121125D03*
X051850Y119625D03*
X052880Y120375D03*
X051350Y123125D03*
X050880Y123875D03*
X049850Y124625D03*
X048850Y124625D03*
X047850Y124625D03*
X047850Y126625D03*
X048850Y126625D03*
X049850Y126625D03*
X050880Y127375D03*
X051350Y128125D03*
X051850Y126625D03*
X052880Y127375D03*
X051850Y124625D03*
X052880Y123875D03*
X054600Y122625D03*
X054600Y121625D03*
X057100Y122625D03*
X058100Y122625D03*
X060100Y122625D03*
X062100Y122625D03*
X062850Y123125D03*
X063850Y124625D03*
X062850Y125125D03*
X062850Y126125D03*
X063850Y126625D03*
X062850Y128125D03*
X062100Y128625D03*
X060100Y128625D03*
X058100Y128625D03*
X057100Y128625D03*
X054600Y128625D03*
X054600Y129625D03*
X052880Y130875D03*
X051850Y131625D03*
X051350Y130125D03*
X050880Y130875D03*
X049850Y131625D03*
X048850Y131625D03*
X047850Y131625D03*
X041600Y127625D03*
X041600Y126625D03*
X038850Y126375D03*
X038850Y127125D03*
X038850Y127875D03*
X037350Y130125D03*
X036850Y127875D03*
X036850Y127125D03*
X036850Y126375D03*
X037350Y124125D03*
X035350Y124125D03*
X034350Y124125D03*
X033350Y124125D03*
X033350Y130125D03*
X034350Y130125D03*
X035350Y130125D03*
X035100Y117875D03*
X037100Y117875D03*
X037350Y114125D03*
X036850Y111875D03*
X036850Y111125D03*
X036850Y110375D03*
X037350Y108125D03*
X038850Y110375D03*
X038850Y111125D03*
X038850Y111875D03*
X041600Y111625D03*
X041600Y110625D03*
X037350Y098125D03*
X036850Y095875D03*
X036850Y095125D03*
X036850Y094375D03*
X037350Y092125D03*
X038850Y094375D03*
X038850Y095125D03*
X038850Y095875D03*
X041600Y095625D03*
X041600Y094625D03*
X037100Y085875D03*
X037350Y082125D03*
X036850Y079875D03*
X036850Y079125D03*
X036850Y078375D03*
X037350Y076125D03*
X038850Y078375D03*
X038850Y079125D03*
X038850Y079875D03*
X041600Y079625D03*
X041600Y078625D03*
X037350Y066125D03*
X036850Y063875D03*
X036850Y063125D03*
X036850Y062375D03*
X037350Y060125D03*
X038850Y062375D03*
X038850Y063125D03*
X038850Y063875D03*
X041600Y063625D03*
X041600Y062625D03*
X047850Y062625D03*
X047850Y060625D03*
X047850Y046625D03*
X047850Y044625D03*
X035350Y060125D03*
X034350Y060125D03*
X033350Y060125D03*
X033350Y066125D03*
X034350Y066125D03*
X035350Y066125D03*
X035350Y076125D03*
X034350Y076125D03*
X033350Y076125D03*
X033350Y082125D03*
X034350Y082125D03*
X035350Y082125D03*
X035100Y085875D03*
X035350Y092125D03*
X034350Y092125D03*
X033350Y092125D03*
X033350Y098125D03*
X034350Y098125D03*
X035350Y098125D03*
X035350Y108125D03*
X034350Y108125D03*
X033350Y108125D03*
X033350Y114125D03*
X034350Y114125D03*
X035350Y114125D03*
X028350Y110125D03*
X028350Y109125D03*
X028350Y094125D03*
X028350Y093125D03*
X028350Y078125D03*
X028350Y077125D03*
X028350Y062125D03*
X028350Y061125D03*
X028350Y046125D03*
X028350Y045125D03*
X028350Y030125D03*
X028350Y029125D03*
X015100Y048125D03*
X015100Y049125D03*
X047850Y076625D03*
X047850Y078625D03*
X047850Y092625D03*
X047850Y094625D03*
X054600Y105625D03*
X054600Y106625D03*
X052880Y107875D03*
X051850Y108625D03*
X051850Y110625D03*
X052880Y111375D03*
X052880Y114875D03*
X051850Y115625D03*
X054600Y113625D03*
X054600Y112625D03*
X057100Y112625D03*
X058100Y112625D03*
X060100Y112625D03*
X062100Y112625D03*
X062850Y112125D03*
X063850Y110625D03*
X062850Y110125D03*
X062850Y109125D03*
X063850Y108625D03*
X062850Y107125D03*
X062100Y106625D03*
X060100Y106625D03*
X058100Y106625D03*
X057100Y106625D03*
X063600Y102125D03*
X065600Y102125D03*
X067850Y100125D03*
X067850Y099125D03*
X065100Y094125D03*
X065100Y093125D03*
X065600Y086125D03*
X063600Y086125D03*
X065100Y078125D03*
X065100Y077125D03*
X067850Y083125D03*
X067850Y084125D03*
X065600Y070125D03*
X063600Y070125D03*
X065100Y062125D03*
X065100Y061125D03*
X067850Y067125D03*
X067850Y068125D03*
X065600Y054125D03*
X063600Y054125D03*
X065100Y046125D03*
X065100Y045125D03*
X067850Y051125D03*
X067850Y052125D03*
X065600Y038125D03*
X063600Y038125D03*
X067850Y036125D03*
X067850Y035125D03*
X067850Y023125D03*
X067850Y022125D03*
X065600Y022125D03*
X063600Y022125D03*
X065100Y109125D03*
X065100Y110125D03*
X067850Y115125D03*
X067850Y116125D03*
X065600Y118125D03*
X063600Y118125D03*
X065350Y125125D03*
X065350Y126125D03*
X067850Y131125D03*
X067850Y132125D03*
X066100Y132625D03*
X064100Y132625D03*
X047850Y110625D03*
X047850Y108625D03*
X028350Y125125D03*
X028350Y126125D03*
D11*
X027100Y125625D03*
X026600Y126125D03*
X026600Y125125D03*
X026100Y123875D03*
X025600Y123375D03*
X025100Y123875D03*
X024100Y123625D03*
X023600Y124125D03*
X023100Y123625D03*
X023600Y127125D03*
X023100Y127625D03*
X024100Y127625D03*
X025100Y127375D03*
X025600Y127875D03*
X026100Y127375D03*
X025600Y111875D03*
X025100Y111375D03*
X026100Y111375D03*
X026600Y110125D03*
X027100Y109625D03*
X026600Y109125D03*
X026100Y107875D03*
X025600Y107375D03*
X025100Y107875D03*
X024100Y107625D03*
X023600Y108125D03*
X023100Y107625D03*
X023600Y111125D03*
X023100Y111625D03*
X024100Y111625D03*
X025600Y095875D03*
X025100Y095375D03*
X026100Y095375D03*
X026600Y094125D03*
X027100Y093625D03*
X026600Y093125D03*
X026100Y091875D03*
X025600Y091375D03*
X025100Y091875D03*
X024100Y091625D03*
X023600Y092125D03*
X023100Y091625D03*
X023600Y095125D03*
X023100Y095625D03*
X024100Y095625D03*
X025600Y079875D03*
X025100Y079375D03*
X026100Y079375D03*
X026600Y078125D03*
X027100Y077625D03*
X026600Y077125D03*
X026100Y075875D03*
X025600Y075375D03*
X025100Y075875D03*
X024100Y075625D03*
X023600Y076125D03*
X023100Y075625D03*
X023600Y079125D03*
X023100Y079625D03*
X024100Y079625D03*
X025600Y063875D03*
X025100Y063375D03*
X026100Y063375D03*
X026600Y062125D03*
X027100Y061625D03*
X026600Y061125D03*
X026100Y059875D03*
X025600Y059375D03*
X025100Y059875D03*
X024100Y059625D03*
X023600Y060125D03*
X023100Y059625D03*
X023600Y063125D03*
X023100Y063625D03*
X024100Y063625D03*
X025600Y047875D03*
X025100Y047375D03*
X026100Y047375D03*
X026600Y046125D03*
X027100Y045625D03*
X026600Y045125D03*
X026100Y043875D03*
X025600Y043375D03*
X025100Y043875D03*
X024100Y043625D03*
X023600Y044125D03*
X023100Y043625D03*
X023600Y047125D03*
X023100Y047625D03*
X024100Y047625D03*
X025600Y031875D03*
X025100Y031375D03*
X026100Y031375D03*
X026600Y030125D03*
X027100Y029625D03*
X026600Y029125D03*
X026100Y027875D03*
X025600Y027375D03*
X025100Y027875D03*
X024100Y027625D03*
X023600Y028125D03*
X023100Y027625D03*
X023600Y031125D03*
X023100Y031625D03*
X024100Y031625D03*
X025600Y015875D03*
X025100Y015375D03*
X026100Y015375D03*
X026600Y014125D03*
X027100Y013625D03*
X026600Y013125D03*
X026100Y011875D03*
X025600Y011375D03*
X025100Y011875D03*
X024100Y011625D03*
X023600Y012125D03*
X023100Y011625D03*
X023600Y015125D03*
X023100Y015625D03*
X024100Y015625D03*
X014100Y016625D03*
X013600Y017125D03*
X013600Y016125D03*
X013100Y014625D03*
X012600Y014125D03*
X012100Y014625D03*
X011100Y014625D03*
X010600Y015125D03*
X010100Y014625D03*
X010600Y018125D03*
X011100Y018625D03*
X010100Y018625D03*
X012100Y018625D03*
X012600Y019125D03*
X013100Y018625D03*
X012600Y030125D03*
X012100Y030625D03*
X013100Y030625D03*
X013600Y032125D03*
X014100Y032625D03*
X013600Y033125D03*
X013100Y034625D03*
X012600Y035125D03*
X012100Y034625D03*
X011100Y034625D03*
X010600Y034125D03*
X010100Y034625D03*
X010600Y031125D03*
X011100Y030625D03*
X010100Y030625D03*
X003850Y034375D03*
X003350Y034875D03*
X003350Y033875D03*
X002100Y034375D03*
X001600Y034875D03*
X001600Y033875D03*
X001600Y018625D03*
X002100Y018125D03*
X001600Y017625D03*
X003350Y017625D03*
X003850Y018125D03*
X003350Y018625D03*
X012350Y005625D03*
X011850Y005125D03*
X012350Y004625D03*
X013600Y005125D03*
X014100Y004625D03*
X014100Y005625D03*
X012350Y046125D03*
X011850Y046625D03*
X012850Y046625D03*
X013350Y048125D03*
X013850Y048625D03*
X013350Y049125D03*
X012850Y050625D03*
X012350Y051125D03*
X011850Y050625D03*
X010850Y050625D03*
X010350Y050125D03*
X009850Y050625D03*
X010350Y047125D03*
X009850Y046625D03*
X010850Y046625D03*
X003850Y050125D03*
X003350Y050625D03*
X003350Y049625D03*
X002100Y050125D03*
X001600Y050625D03*
X001600Y049625D03*
X001600Y065625D03*
X002100Y066125D03*
X001600Y066625D03*
X003350Y066625D03*
X003850Y066125D03*
X003350Y065625D03*
X009850Y066625D03*
X010350Y066125D03*
X010850Y066625D03*
X011850Y066625D03*
X012350Y067125D03*
X012850Y066625D03*
X013350Y065125D03*
X013850Y064625D03*
X013350Y064125D03*
X012850Y062625D03*
X012350Y062125D03*
X011850Y062625D03*
X010850Y062625D03*
X010350Y063125D03*
X009850Y062625D03*
X012350Y078125D03*
X011850Y078625D03*
X012850Y078625D03*
X013350Y080125D03*
X013850Y080625D03*
X013350Y081125D03*
X012850Y082625D03*
X012350Y083125D03*
X011850Y082625D03*
X010850Y082625D03*
X010350Y082125D03*
X009850Y082625D03*
X010350Y079125D03*
X009850Y078625D03*
X010850Y078625D03*
X003850Y082125D03*
X003350Y081625D03*
X003350Y082625D03*
X002100Y082125D03*
X001600Y081625D03*
X001600Y082625D03*
X001600Y097625D03*
X002100Y098125D03*
X001600Y098625D03*
X003350Y098625D03*
X003850Y098125D03*
X003350Y097625D03*
X010100Y098625D03*
X010600Y098125D03*
X011100Y098625D03*
X012100Y098625D03*
X012600Y099125D03*
X013100Y098625D03*
X013600Y097125D03*
X014100Y096625D03*
X013600Y096125D03*
X013100Y094625D03*
X012600Y094125D03*
X012100Y094625D03*
X011100Y094625D03*
X010600Y095125D03*
X010100Y094625D03*
X012350Y110125D03*
X011850Y110625D03*
X012850Y110625D03*
X013600Y112125D03*
X014100Y112625D03*
X013600Y113125D03*
X012850Y114625D03*
X012350Y115125D03*
X011850Y114625D03*
X010850Y114625D03*
X010350Y114125D03*
X009850Y114625D03*
X010350Y111125D03*
X009850Y110625D03*
X010850Y110625D03*
X003850Y113875D03*
X003350Y113375D03*
X003350Y114375D03*
X002100Y113875D03*
X001600Y113375D03*
X001600Y114375D03*
X001600Y129375D03*
X002100Y129875D03*
X001600Y130375D03*
X003350Y130375D03*
X003850Y129875D03*
X003350Y129375D03*
X007850Y134125D03*
X008350Y134625D03*
X008850Y134125D03*
X008850Y135625D03*
X008350Y136125D03*
X007850Y135625D03*
X010100Y130625D03*
X010600Y130125D03*
X011100Y130625D03*
X012100Y130625D03*
X012600Y131125D03*
X013100Y130625D03*
X013600Y129125D03*
X014100Y128625D03*
X013600Y128125D03*
X013100Y126625D03*
X012600Y126125D03*
X012100Y126625D03*
X011100Y126625D03*
X010600Y127125D03*
X010100Y126625D03*
X036350Y125125D03*
X036850Y125625D03*
X037350Y125125D03*
X038350Y125375D03*
X038850Y124875D03*
X039350Y125375D03*
X039850Y126625D03*
X040350Y127125D03*
X039850Y127625D03*
X039350Y128875D03*
X038850Y129375D03*
X038350Y128875D03*
X037350Y129125D03*
X036850Y128625D03*
X036350Y129125D03*
X038850Y113375D03*
X038350Y112875D03*
X039350Y112875D03*
X039850Y111625D03*
X040350Y111125D03*
X039850Y110625D03*
X039350Y109375D03*
X038850Y108875D03*
X038350Y109375D03*
X037350Y109125D03*
X036850Y109625D03*
X036350Y109125D03*
X036850Y112625D03*
X036350Y113125D03*
X037350Y113125D03*
X038850Y097375D03*
X038350Y096875D03*
X039350Y096875D03*
X039850Y095625D03*
X040350Y095125D03*
X039850Y094625D03*
X039350Y093375D03*
X038850Y092875D03*
X038350Y093375D03*
X037350Y093125D03*
X036850Y093625D03*
X036350Y093125D03*
X036850Y096625D03*
X036350Y097125D03*
X037350Y097125D03*
X038850Y081375D03*
X038350Y080875D03*
X039350Y080875D03*
X039850Y079625D03*
X040350Y079125D03*
X039850Y078625D03*
X039350Y077375D03*
X038850Y076875D03*
X038350Y077375D03*
X037350Y077125D03*
X036850Y077625D03*
X036350Y077125D03*
X036850Y080625D03*
X036350Y081125D03*
X037350Y081125D03*
X038850Y065375D03*
X038350Y064875D03*
X039350Y064875D03*
X039850Y063625D03*
X040350Y063125D03*
X039850Y062625D03*
X039350Y061375D03*
X038850Y060875D03*
X038350Y061375D03*
X037350Y061125D03*
X036850Y061625D03*
X036350Y061125D03*
X036850Y064625D03*
X036350Y065125D03*
X037350Y065125D03*
X038850Y049375D03*
X038350Y048875D03*
X039350Y048875D03*
X039850Y047625D03*
X040350Y047125D03*
X039850Y046625D03*
X039350Y045375D03*
X038850Y044875D03*
X038350Y045375D03*
X037350Y045125D03*
X036850Y045625D03*
X036350Y045125D03*
X036850Y048625D03*
X036350Y049125D03*
X037350Y049125D03*
X038850Y033375D03*
X038350Y032875D03*
X039350Y032875D03*
X039850Y031625D03*
X040350Y031125D03*
X039850Y030625D03*
X039350Y029375D03*
X038850Y028875D03*
X038350Y029375D03*
X037350Y029125D03*
X036850Y029625D03*
X036350Y029125D03*
X036850Y032625D03*
X036350Y033125D03*
X037350Y033125D03*
X038850Y017375D03*
X038350Y016875D03*
X039350Y016875D03*
X039850Y015625D03*
X040350Y015125D03*
X039850Y014625D03*
X039350Y013375D03*
X038850Y012875D03*
X038350Y013375D03*
X037350Y013125D03*
X036850Y013625D03*
X036350Y013125D03*
X036850Y016625D03*
X036350Y017125D03*
X037350Y017125D03*
X049850Y016625D03*
X050350Y016125D03*
X049850Y015625D03*
X049850Y017625D03*
X050350Y018125D03*
X049850Y018625D03*
X052350Y017125D03*
X052850Y016625D03*
X052850Y017625D03*
X049850Y011625D03*
X050350Y011125D03*
X049850Y010625D03*
X049850Y009625D03*
X050350Y009125D03*
X049850Y008625D03*
X052350Y010125D03*
X052850Y010625D03*
X052850Y009625D03*
X060600Y011625D03*
X061100Y012125D03*
X061600Y011625D03*
X061350Y013125D03*
X060850Y013625D03*
X061350Y014125D03*
X061100Y015125D03*
X060600Y015625D03*
X061600Y015625D03*
X067100Y014875D03*
X067600Y015375D03*
X068100Y014875D03*
X061600Y027625D03*
X061100Y028125D03*
X060600Y027625D03*
X060850Y029625D03*
X061350Y029125D03*
X061350Y030125D03*
X061100Y031125D03*
X060600Y031625D03*
X061600Y031625D03*
X061850Y043625D03*
X061350Y044125D03*
X060850Y043625D03*
X061600Y045125D03*
X061100Y045625D03*
X061600Y046125D03*
X061350Y047125D03*
X060850Y047625D03*
X061850Y047625D03*
X061850Y059625D03*
X061350Y060125D03*
X060850Y059625D03*
X061600Y061125D03*
X061100Y061625D03*
X061600Y062125D03*
X061350Y063125D03*
X060850Y063625D03*
X061850Y063625D03*
X061850Y075625D03*
X061350Y076125D03*
X060850Y075625D03*
X061600Y077125D03*
X061100Y077625D03*
X061600Y078125D03*
X061350Y079125D03*
X061850Y079625D03*
X060850Y079625D03*
X060850Y091625D03*
X061350Y092125D03*
X061850Y091625D03*
X061600Y093125D03*
X061100Y093625D03*
X061600Y094125D03*
X061350Y095125D03*
X061850Y095625D03*
X060850Y095625D03*
X060850Y107625D03*
X061350Y108125D03*
X061850Y107625D03*
X061600Y109125D03*
X061100Y109625D03*
X061600Y110125D03*
X061350Y111125D03*
X061850Y111625D03*
X060850Y111625D03*
X060850Y123625D03*
X061350Y124125D03*
X061850Y123625D03*
X061600Y125125D03*
X061100Y125625D03*
X061600Y126125D03*
X061350Y127125D03*
X061850Y127625D03*
X060850Y127625D03*
X052850Y128625D03*
X052350Y129125D03*
X052850Y129625D03*
X050350Y130125D03*
X049850Y130625D03*
X049850Y129625D03*
X049850Y128625D03*
X050350Y128125D03*
X049850Y127625D03*
X049850Y123625D03*
X050350Y123125D03*
X049850Y122625D03*
X049850Y121625D03*
X050350Y121125D03*
X049850Y120625D03*
X052350Y122125D03*
X052850Y121625D03*
X052850Y122625D03*
X049850Y114625D03*
X050350Y114125D03*
X049850Y113625D03*
X049850Y112625D03*
X050350Y112125D03*
X049850Y111625D03*
X049850Y107625D03*
X050350Y107125D03*
X049850Y106625D03*
X049850Y105625D03*
X050350Y105125D03*
X049850Y104625D03*
X052350Y106125D03*
X052850Y105625D03*
X052850Y106625D03*
X052850Y112625D03*
X052350Y113125D03*
X052850Y113625D03*
X049850Y098625D03*
X050350Y098125D03*
X049850Y097625D03*
X049850Y096625D03*
X050350Y096125D03*
X049850Y095625D03*
X049850Y091625D03*
X050350Y091125D03*
X049850Y090625D03*
X049850Y089625D03*
X050350Y089125D03*
X049850Y088625D03*
X052350Y090125D03*
X052850Y089625D03*
X052850Y090625D03*
X052850Y096625D03*
X052350Y097125D03*
X052850Y097625D03*
X049850Y082625D03*
X050350Y082125D03*
X049850Y081625D03*
X049850Y080625D03*
X050350Y080125D03*
X049850Y079625D03*
X049850Y075625D03*
X050350Y075125D03*
X049850Y074625D03*
X049850Y073625D03*
X050350Y073125D03*
X049850Y072625D03*
X052350Y074125D03*
X052850Y073625D03*
X052850Y074625D03*
X052850Y080625D03*
X052350Y081125D03*
X052850Y081625D03*
X049850Y066625D03*
X050350Y066125D03*
X049850Y065625D03*
X049850Y064625D03*
X050350Y064125D03*
X049850Y063625D03*
X049850Y059625D03*
X050350Y059125D03*
X049850Y058625D03*
X049850Y057625D03*
X050350Y057125D03*
X049850Y056625D03*
X052350Y058125D03*
X052850Y057625D03*
X052850Y058625D03*
X052850Y064625D03*
X052350Y065125D03*
X052850Y065625D03*
X049850Y050625D03*
X050350Y050125D03*
X049850Y049625D03*
X049850Y048625D03*
X050350Y048125D03*
X049850Y047625D03*
X049850Y043625D03*
X050350Y043125D03*
X049850Y042625D03*
X049850Y041625D03*
X050350Y041125D03*
X049850Y040625D03*
X052350Y042125D03*
X052850Y042625D03*
X052850Y041625D03*
X049850Y034625D03*
X050350Y034125D03*
X049850Y033625D03*
X049850Y032625D03*
X050350Y032125D03*
X049850Y031625D03*
X049850Y027625D03*
X050350Y027125D03*
X049850Y026625D03*
X049850Y025625D03*
X050350Y025125D03*
X049850Y024625D03*
X052350Y026125D03*
X052850Y026625D03*
X052850Y025625D03*
X052850Y032625D03*
X052350Y033125D03*
X052850Y033625D03*
X052850Y048625D03*
X052350Y049125D03*
X052850Y049625D03*
D12*
X059600Y005125D03*
X028350Y005125D03*
X024100Y138625D03*
X051600Y138625D03*
D13*
X051600Y139625D03*
X052600Y139625D03*
X052600Y138625D03*
X053600Y138625D03*
X053600Y139625D03*
X054600Y139625D03*
X054600Y138625D03*
X055600Y138625D03*
X055600Y139625D03*
X056600Y139625D03*
X056600Y138625D03*
X057600Y138625D03*
X057600Y139625D03*
X058600Y139625D03*
X058600Y138625D03*
X059600Y138625D03*
X059600Y139625D03*
X060600Y139625D03*
X060600Y138625D03*
X038100Y138625D03*
X038100Y139625D03*
X037100Y139625D03*
X037100Y138625D03*
X036100Y138625D03*
X036100Y139625D03*
X035100Y139625D03*
X035100Y138625D03*
X034100Y138625D03*
X034100Y139625D03*
X033100Y139625D03*
X033100Y138625D03*
X032100Y138625D03*
X032100Y139625D03*
X031100Y139625D03*
X031100Y138625D03*
X030100Y138625D03*
X030100Y139625D03*
X029100Y139625D03*
X029100Y138625D03*
X028100Y138625D03*
X028100Y139625D03*
X027100Y139625D03*
X027100Y138625D03*
X026100Y138625D03*
X026100Y139625D03*
X025100Y139625D03*
X025100Y138625D03*
X024100Y139625D03*
X024350Y005125D03*
X024350Y004125D03*
X023350Y004125D03*
X023350Y005125D03*
X022350Y005125D03*
X022350Y004125D03*
X021350Y004125D03*
X021350Y005125D03*
X020350Y005125D03*
X020350Y004125D03*
X019350Y004125D03*
X019350Y005125D03*
X025350Y005125D03*
X025350Y004125D03*
X026350Y004125D03*
X026350Y005125D03*
X027350Y005125D03*
X027350Y004125D03*
X028350Y004125D03*
X050600Y004125D03*
X050600Y005125D03*
X051600Y005125D03*
X051600Y004125D03*
X052600Y004125D03*
X052600Y005125D03*
X053600Y005125D03*
X053600Y004125D03*
X054600Y004125D03*
X054600Y005125D03*
X055600Y005125D03*
X055600Y004125D03*
X056600Y004125D03*
X056600Y005125D03*
X057600Y005125D03*
X057600Y004125D03*
X058600Y004125D03*
X058600Y005125D03*
X059600Y004125D03*
D14*
X067600Y006125D03*
X020850Y019625D03*
X020850Y051375D03*
X020850Y083375D03*
X023600Y115625D03*
X002100Y136125D03*
X003850Y004125D03*
D15*
X007100Y139375D03*
X010350Y139375D03*
D16*
X002850Y005125D02*
X003850Y004125D01*
X004600Y005125D02*
X006350Y003375D01*
X011600Y003375D01*
X011850Y003625D01*
X011350Y004625D02*
X008100Y004625D01*
X006600Y006125D01*
X003350Y006125D01*
X002850Y005625D01*
X002850Y005125D01*
X004600Y005125D02*
X004600Y005375D01*
X007850Y007375D02*
X007850Y012125D01*
X004350Y015625D01*
X002850Y015625D01*
X002350Y016125D01*
X002350Y016625D01*
X001600Y016625D01*
X001600Y017625D01*
X002100Y018125D02*
X002100Y020625D01*
X002600Y021125D01*
X006600Y021125D01*
X006600Y020625D02*
X004350Y020625D01*
X003850Y020125D01*
X003850Y018125D01*
X003350Y017625D02*
X003100Y017375D01*
X003100Y016625D01*
X003850Y016625D01*
X007100Y016625D01*
X010100Y013625D01*
X011100Y013625D01*
X010850Y014125D02*
X011600Y014125D01*
X011850Y013875D01*
X011850Y006125D01*
X011100Y006125D01*
X010850Y005875D01*
X010600Y005375D02*
X010100Y005875D01*
X010600Y005375D02*
X011100Y005375D01*
X011350Y005625D01*
X012350Y005625D01*
X013100Y005625D01*
X013600Y005125D01*
X014600Y005125D01*
X015100Y005625D01*
X015100Y006875D01*
X013850Y008125D01*
X013850Y014875D01*
X013600Y015125D01*
X012100Y015125D01*
X011600Y015625D01*
X011600Y017125D01*
X010600Y018125D01*
X011100Y018125D02*
X011350Y017875D01*
X012600Y017875D01*
X013100Y018625D01*
X012600Y019125D02*
X010850Y019125D01*
X009350Y020625D01*
X009100Y019625D02*
X008100Y019625D01*
X007600Y017125D02*
X007600Y025875D01*
X010600Y028375D01*
X011600Y029375D01*
X011600Y029875D01*
X011350Y030125D01*
X010600Y030125D01*
X010600Y031125D01*
X007600Y032625D01*
X007600Y041625D01*
X010350Y043875D01*
X011600Y044875D01*
X011600Y045875D01*
X011350Y046125D01*
X010600Y046125D01*
X010350Y046375D01*
X010350Y047125D01*
X007350Y049625D01*
X007350Y057875D01*
X010350Y060375D01*
X011600Y061375D01*
X011600Y061875D01*
X011350Y062125D01*
X010600Y062125D01*
X010350Y062375D01*
X010350Y063125D01*
X007350Y065125D01*
X007350Y073375D01*
X011600Y077625D01*
X011600Y077875D01*
X011350Y078125D01*
X010600Y078125D01*
X010350Y078375D01*
X010350Y079125D01*
X007350Y080875D01*
X007350Y089875D01*
X010600Y092125D01*
X011850Y093125D01*
X011850Y093875D01*
X011600Y094125D01*
X010850Y094125D01*
X010600Y094375D01*
X010600Y095125D01*
X007600Y097125D01*
X007600Y105625D01*
X010350Y108375D01*
X011600Y109375D01*
X011600Y109875D01*
X011350Y110125D01*
X010600Y110125D01*
X010350Y110375D01*
X010350Y111125D01*
X007350Y112875D01*
X007350Y121625D01*
X010600Y124625D01*
X011850Y125375D01*
X011850Y125875D01*
X011600Y126125D01*
X010850Y126125D01*
X010600Y126375D01*
X010600Y127125D01*
X011100Y127375D02*
X010600Y127875D01*
X010100Y128375D01*
X010100Y130625D01*
X009841Y131125D02*
X009772Y131194D01*
X008600Y129875D01*
X003850Y129875D01*
X003350Y129375D02*
X003100Y128875D01*
X003100Y128375D01*
X003850Y128375D01*
X007350Y128375D01*
X010100Y125625D01*
X011100Y125625D01*
X011100Y126625D02*
X011100Y127375D01*
X011600Y127875D02*
X011600Y129125D01*
X010600Y130125D01*
X011100Y130625D02*
X011600Y130125D01*
X012600Y130125D01*
X013100Y130625D01*
X012600Y131125D02*
X009841Y131125D01*
X009100Y131625D02*
X008100Y131625D01*
X006850Y133625D02*
X006850Y134125D01*
X007350Y134625D01*
X008350Y134625D01*
X008850Y135125D01*
X008850Y135625D01*
X009600Y135625D01*
X009850Y135875D01*
X009850Y136125D01*
X010350Y136625D01*
X012350Y136625D01*
X015100Y133875D01*
X016350Y132625D02*
X004600Y132625D01*
X002100Y130125D01*
X002100Y129875D01*
X001600Y129375D02*
X001600Y128375D01*
X002350Y128375D01*
X002850Y127625D01*
X004350Y127625D01*
X006100Y126375D01*
X006100Y118625D01*
X006350Y117125D02*
X002600Y117125D01*
X002100Y116625D01*
X002100Y113875D01*
X001600Y113375D02*
X001600Y112375D01*
X002350Y112375D01*
X002350Y112125D01*
X002850Y111375D01*
X004100Y111375D01*
X006100Y110125D01*
X006100Y102625D01*
X006600Y101125D02*
X002600Y101125D01*
X002100Y100625D01*
X002100Y098125D01*
X001600Y097625D02*
X001600Y096625D01*
X002350Y096625D01*
X002600Y096375D01*
X002850Y095875D01*
X004600Y095875D01*
X006100Y094375D01*
X006100Y086625D01*
X006350Y085125D02*
X002600Y085125D01*
X002100Y084625D01*
X002100Y082125D01*
X001600Y081625D02*
X001600Y080625D01*
X002350Y080625D01*
X003350Y079625D01*
X004600Y079625D01*
X006100Y078375D01*
X006100Y070625D01*
X006350Y069125D02*
X002600Y069125D01*
X002100Y068625D01*
X002100Y066125D01*
X001600Y065625D02*
X001600Y064625D01*
X002350Y064625D01*
X002850Y063875D01*
X004600Y063875D01*
X006100Y062375D01*
X006100Y054625D01*
X006350Y053125D02*
X002600Y053125D01*
X002100Y052625D01*
X002100Y050125D01*
X001600Y049625D02*
X001600Y048625D01*
X002350Y048625D01*
X003100Y047625D01*
X004600Y047625D01*
X006100Y046125D01*
X006100Y038625D01*
X006600Y037125D02*
X002600Y037125D01*
X002100Y036625D01*
X002100Y034375D01*
X001600Y033875D02*
X001600Y032875D01*
X002350Y032875D01*
X002850Y031875D01*
X004100Y031875D01*
X006100Y029875D01*
X006100Y022625D01*
X003600Y027625D02*
X003100Y028125D01*
X003100Y030875D01*
X003100Y032875D02*
X003850Y032875D01*
X005600Y032875D01*
X008600Y030125D01*
X009600Y030125D01*
X010100Y029625D01*
X011100Y029625D01*
X011100Y030625D02*
X011100Y031375D01*
X010600Y031875D01*
X010100Y032375D01*
X010100Y034625D01*
X010600Y034125D02*
X011600Y033125D01*
X011600Y031875D01*
X012350Y031125D01*
X013600Y031125D01*
X013600Y021125D01*
X011100Y019625D01*
X011100Y018625D02*
X011100Y018125D01*
X010100Y018625D02*
X010100Y016375D01*
X010600Y015875D01*
X011100Y015375D01*
X011100Y014625D01*
X010600Y014375D02*
X010850Y014125D01*
X010600Y014375D02*
X010600Y015125D01*
X007600Y017125D01*
X008100Y013625D02*
X009100Y013625D01*
X012600Y015875D02*
X012850Y015625D01*
X014850Y015625D01*
X015350Y016125D01*
X015100Y016625D02*
X016100Y016625D01*
X016850Y017625D01*
X016850Y018125D02*
X015100Y018125D01*
X014100Y017375D01*
X014100Y016625D01*
X014600Y016125D02*
X015100Y016625D01*
X014600Y016125D02*
X013600Y016125D01*
X013100Y016625D01*
X012600Y016625D01*
X012600Y017375D02*
X012850Y017625D01*
X013850Y017625D01*
X014100Y017375D01*
X013600Y006125D02*
X011850Y006125D01*
X011850Y005125D02*
X011350Y004625D01*
X013600Y005125D02*
X013600Y003875D01*
X013850Y003625D01*
X014100Y005625D02*
X013600Y006125D01*
X020600Y013375D02*
X021350Y012625D01*
X023100Y012625D01*
X023600Y012125D01*
X024100Y012375D02*
X023600Y012875D01*
X025100Y014375D01*
X025600Y014375D01*
X026100Y014625D01*
X026850Y014625D01*
X027100Y014375D01*
X027350Y014625D01*
X029600Y014625D01*
X029100Y014125D02*
X030100Y014125D01*
X031350Y014625D02*
X031350Y010625D01*
X032100Y009875D01*
X047350Y009875D01*
X048600Y011125D01*
X050350Y011125D01*
X049850Y010625D02*
X049850Y009625D01*
X049350Y009125D02*
X048850Y008625D01*
X046850Y008625D01*
X046350Y008125D01*
X030350Y008125D01*
X026850Y012125D01*
X026100Y012625D02*
X027850Y012625D01*
X028350Y013125D01*
X028600Y013625D02*
X027850Y013625D01*
X027350Y013125D01*
X026600Y013125D01*
X026100Y013625D01*
X025600Y013625D01*
X025600Y012875D02*
X026100Y012625D01*
X025100Y011875D02*
X024350Y011125D01*
X023600Y011125D01*
X023100Y011625D01*
X024100Y011625D02*
X024100Y012375D01*
X023600Y012875D02*
X023100Y013375D01*
X023100Y015625D01*
X023600Y016125D02*
X023600Y015125D01*
X024100Y015125D02*
X024350Y014875D01*
X025600Y014875D01*
X026100Y015375D01*
X025600Y015875D02*
X030100Y015875D01*
X031350Y014625D01*
X032100Y017125D02*
X032100Y011625D01*
X042350Y011625D01*
X044100Y013375D01*
X051100Y013375D01*
X051850Y012625D01*
X052880Y011875D02*
X053100Y012125D01*
X054600Y013625D01*
X054850Y010125D02*
X055100Y009875D01*
X055100Y009125D01*
X054600Y009625D02*
X054100Y009625D01*
X052880Y008375D01*
X051850Y007625D02*
X051600Y006875D01*
X028600Y006875D01*
X028600Y008375D01*
X025600Y011375D01*
X024850Y010625D01*
X024100Y010625D01*
X022100Y010625D02*
X021100Y010625D01*
X020600Y013375D02*
X020600Y017625D01*
X021100Y016625D02*
X022100Y016625D01*
X023600Y016125D02*
X024100Y016625D01*
X024100Y018125D01*
X024100Y015625D02*
X024100Y015125D01*
X025600Y015875D02*
X025600Y021125D01*
X025100Y022625D02*
X025100Y026625D01*
X025600Y027375D01*
X025100Y027875D02*
X024600Y027125D01*
X023600Y027125D01*
X023100Y027625D01*
X023600Y028125D02*
X020600Y030125D01*
X020600Y033625D01*
X021100Y032625D02*
X022100Y032625D01*
X023100Y031625D02*
X023100Y029375D01*
X023600Y028875D01*
X024100Y028625D01*
X024100Y027625D01*
X024100Y026625D02*
X025100Y026625D01*
X026100Y028625D02*
X027850Y028625D01*
X028350Y029125D01*
X028100Y029625D02*
X029100Y029625D01*
X029600Y030125D01*
X030100Y030125D01*
X029600Y030625D02*
X027350Y030625D01*
X027100Y030375D01*
X027100Y029625D01*
X026600Y029125D02*
X027600Y029125D01*
X028100Y029625D01*
X027100Y030375D02*
X026850Y030625D01*
X026100Y030625D01*
X025600Y030375D01*
X025100Y030375D01*
X023600Y028875D01*
X024600Y030875D02*
X024100Y031125D01*
X024100Y031625D01*
X023600Y032125D02*
X024100Y032625D01*
X024100Y034375D01*
X023600Y032125D02*
X023600Y031125D01*
X024600Y030875D02*
X025600Y030875D01*
X026100Y031375D01*
X025600Y031875D02*
X030600Y031875D01*
X031100Y031375D01*
X031100Y026875D01*
X033350Y024625D01*
X046100Y024625D01*
X046350Y024125D02*
X030100Y024125D01*
X026850Y028125D01*
X026100Y028625D02*
X025600Y028875D01*
X025600Y029625D02*
X026100Y029625D01*
X026600Y029125D01*
X025600Y031875D02*
X025600Y037125D01*
X025100Y038625D02*
X025100Y042625D01*
X024975Y042750D01*
X024850Y042625D01*
X024100Y042625D01*
X023600Y043125D02*
X024600Y043125D01*
X025100Y043875D01*
X025600Y043375D02*
X024975Y042750D01*
X024100Y043625D02*
X024100Y044375D01*
X023600Y044875D01*
X025100Y046375D01*
X025600Y046375D01*
X026100Y046625D01*
X026850Y046625D01*
X027100Y046375D01*
X027350Y046625D01*
X029600Y046625D01*
X030100Y046125D02*
X029600Y045625D01*
X027850Y045625D01*
X027350Y045125D01*
X026600Y045125D01*
X026100Y045625D01*
X025600Y045625D01*
X025600Y044875D02*
X026100Y044625D01*
X027850Y044625D01*
X028350Y045125D01*
X027100Y045625D02*
X027100Y046375D01*
X026100Y047375D02*
X025600Y046875D01*
X024350Y046875D01*
X024100Y047125D01*
X024100Y047625D01*
X023600Y048125D02*
X024100Y048625D01*
X024100Y050375D01*
X023600Y048125D02*
X023600Y047125D01*
X023100Y047625D02*
X023100Y045375D01*
X023600Y044875D01*
X023600Y044125D02*
X020600Y046125D01*
X020600Y049625D01*
X021100Y048625D02*
X022100Y048625D01*
X023100Y043625D02*
X023600Y043125D01*
X022100Y042625D02*
X021100Y042625D01*
X025600Y047875D02*
X031100Y047875D01*
X031600Y047375D01*
X031600Y041125D01*
X032100Y040625D01*
X046100Y040625D01*
X046600Y040125D02*
X029350Y040125D01*
X026850Y044125D01*
X025600Y047875D02*
X025600Y053125D01*
X024850Y054625D02*
X024880Y058835D01*
X025600Y059375D01*
X025100Y059875D02*
X024600Y059125D01*
X023600Y059125D01*
X023100Y059625D01*
X023600Y060125D02*
X020600Y062125D01*
X020600Y065625D01*
X021100Y064625D02*
X022100Y064625D01*
X023100Y063625D02*
X023100Y061375D01*
X023600Y060875D01*
X024100Y060375D01*
X024100Y059625D01*
X024100Y058625D02*
X024600Y058625D01*
X024880Y058835D01*
X025850Y060625D02*
X025600Y060875D01*
X025850Y060625D02*
X027850Y060625D01*
X028350Y061125D01*
X027850Y061625D02*
X029100Y061625D01*
X029600Y062125D01*
X030100Y062125D01*
X029600Y062625D02*
X027350Y062625D01*
X027100Y062375D01*
X027100Y061625D01*
X027350Y061125D02*
X026600Y061125D01*
X026100Y061625D01*
X025600Y062375D02*
X025850Y062625D01*
X026850Y062625D01*
X027100Y062375D01*
X027850Y061625D02*
X027350Y061125D01*
X026850Y060125D02*
X028850Y056125D01*
X046100Y056125D01*
X046100Y056625D02*
X031600Y056625D01*
X031100Y057125D01*
X031100Y063375D01*
X030600Y063875D01*
X025600Y063875D01*
X025600Y069125D01*
X024850Y070625D02*
X024850Y074625D01*
X025600Y075375D01*
X025100Y075875D02*
X024600Y075125D01*
X023600Y075125D01*
X023100Y075625D01*
X023600Y076125D02*
X020600Y078125D01*
X020600Y081625D01*
X021100Y080625D02*
X022100Y080625D01*
X023100Y079625D02*
X023100Y077375D01*
X023600Y076875D01*
X024100Y076375D01*
X024100Y075625D01*
X024100Y074625D02*
X024850Y074625D01*
X026100Y076625D02*
X025600Y076875D01*
X026100Y076625D02*
X027850Y076625D01*
X028350Y077125D01*
X028100Y077625D02*
X029600Y077625D01*
X030100Y078125D01*
X029600Y078625D02*
X027100Y078625D01*
X027100Y077625D01*
X026600Y077125D02*
X027600Y077125D01*
X028100Y077625D01*
X027100Y078625D02*
X026100Y078875D01*
X025600Y078375D01*
X025100Y078375D01*
X023600Y076875D01*
X024350Y078875D02*
X025600Y078875D01*
X026100Y079375D01*
X025600Y079875D02*
X030600Y079875D01*
X031100Y079375D01*
X031100Y073125D01*
X031600Y072625D01*
X046100Y072625D01*
X046100Y072125D02*
X029100Y072125D01*
X026850Y076125D01*
X026600Y077125D02*
X026100Y077625D01*
X025600Y077625D01*
X025600Y079875D02*
X025600Y085125D01*
X024850Y086625D02*
X024975Y090750D01*
X025600Y091375D01*
X025100Y091875D02*
X024350Y091125D01*
X023600Y091125D01*
X023100Y091625D01*
X023600Y092125D02*
X020600Y094625D01*
X020600Y097625D01*
X021100Y096625D02*
X022100Y096625D01*
X023100Y095625D02*
X023100Y093375D01*
X023600Y092875D01*
X025100Y094375D01*
X025600Y094375D01*
X025850Y094625D01*
X026850Y094625D01*
X027100Y094375D01*
X027350Y094625D01*
X029600Y094625D01*
X029100Y094125D02*
X030100Y094125D01*
X030850Y095375D02*
X030350Y095875D01*
X025600Y095875D01*
X025600Y101125D01*
X024850Y102625D02*
X024850Y106625D01*
X025600Y107375D01*
X025100Y107875D02*
X024350Y107125D01*
X023600Y107125D01*
X023100Y107625D01*
X023600Y108125D02*
X020850Y110375D01*
X020600Y110625D01*
X020600Y113625D01*
X021100Y112625D02*
X022100Y112625D01*
X023100Y111625D02*
X023100Y109375D01*
X023600Y108875D01*
X025100Y110375D01*
X025600Y110375D01*
X025850Y110625D01*
X026850Y110625D01*
X027100Y110375D01*
X027350Y110625D01*
X029350Y110625D01*
X029350Y110125D02*
X028850Y109625D01*
X028100Y109625D01*
X027600Y109125D01*
X026600Y109125D01*
X026100Y109625D01*
X025600Y109625D01*
X025600Y108875D02*
X026100Y108625D01*
X027850Y108625D01*
X028350Y109125D01*
X027100Y109625D02*
X027100Y110375D01*
X026100Y111375D02*
X025600Y110875D01*
X024350Y110875D01*
X024100Y111125D01*
X024100Y111625D01*
X023600Y112125D02*
X023600Y111125D01*
X023600Y112125D02*
X024100Y112625D01*
X024100Y114375D01*
X025600Y111875D02*
X025600Y117125D01*
X024850Y118625D02*
X024850Y122625D01*
X025600Y123375D01*
X025100Y123875D02*
X024350Y123125D01*
X023600Y123125D01*
X023100Y123625D01*
X023600Y124125D02*
X020600Y125875D01*
X020600Y129625D01*
X021100Y128625D02*
X022100Y128625D01*
X023100Y127625D02*
X023100Y125375D01*
X023600Y124875D01*
X024100Y124375D01*
X024100Y123625D01*
X024100Y122625D02*
X024850Y122625D01*
X026100Y124625D02*
X025600Y124875D01*
X026100Y124625D02*
X027600Y124625D01*
X028350Y125125D01*
X027600Y125375D02*
X027600Y126125D01*
X028350Y126875D01*
X028100Y127375D02*
X027850Y127375D01*
X027100Y126625D01*
X027100Y126375D01*
X027100Y125625D01*
X027350Y125125D02*
X026600Y125125D01*
X026100Y125625D01*
X025600Y125625D01*
X025600Y126375D02*
X026100Y126625D01*
X026850Y126625D01*
X027100Y126375D01*
X027600Y125375D02*
X027350Y125125D01*
X026850Y124125D02*
X030350Y120125D01*
X045350Y120125D01*
X045350Y120625D02*
X031600Y120625D01*
X031100Y121125D01*
X031100Y127375D01*
X030600Y127875D01*
X025600Y127875D01*
X025600Y132625D01*
X024100Y130125D02*
X024100Y128625D01*
X023600Y128125D01*
X023600Y127125D01*
X024100Y127125D02*
X024350Y126875D01*
X025600Y126875D01*
X026100Y127375D01*
X025600Y126375D02*
X025100Y126375D01*
X023600Y124875D01*
X024100Y127125D02*
X024100Y127625D01*
X022100Y122625D02*
X021100Y122625D01*
X016100Y128625D02*
X016850Y129625D01*
X016100Y128625D02*
X014850Y128625D01*
X014350Y128125D01*
X013600Y128125D01*
X013100Y128625D01*
X012600Y128625D01*
X012600Y127875D02*
X012850Y127625D01*
X014850Y127625D01*
X015350Y128125D01*
X014100Y129375D02*
X015100Y130125D01*
X015600Y130125D01*
X014100Y129375D02*
X014100Y128625D01*
X014100Y129375D02*
X013850Y129625D01*
X012850Y129625D01*
X012600Y129375D01*
X011600Y127875D02*
X012350Y127125D01*
X013600Y127125D01*
X013850Y126875D01*
X013850Y119375D01*
X010850Y116875D01*
X010850Y115625D01*
X010350Y115125D02*
X008850Y116625D01*
X008850Y115625D02*
X007850Y115625D01*
X006350Y116625D02*
X004350Y116625D01*
X003850Y116125D01*
X003850Y113875D01*
X003350Y113375D02*
X003100Y113125D01*
X003100Y112375D01*
X003850Y112375D01*
X005350Y112375D01*
X008100Y110125D01*
X009350Y110125D01*
X009850Y109625D01*
X010850Y109625D01*
X010850Y110625D02*
X010850Y111375D01*
X010350Y111875D01*
X009850Y112375D01*
X009850Y114625D01*
X010350Y114125D02*
X011350Y113125D01*
X011350Y111875D01*
X011850Y111125D01*
X013100Y111125D01*
X013600Y110625D01*
X013600Y102875D01*
X011100Y100875D01*
X011100Y099625D01*
X010850Y099125D02*
X009350Y100625D01*
X009100Y099625D02*
X008100Y099625D01*
X006600Y100625D02*
X004350Y100625D01*
X003850Y100125D01*
X003850Y098125D01*
X003350Y097625D02*
X003100Y097125D01*
X003100Y096625D01*
X003850Y096625D01*
X005100Y096625D01*
X007850Y094125D01*
X009600Y094125D01*
X010100Y093625D01*
X011100Y093625D01*
X011850Y095125D02*
X011350Y095875D01*
X011350Y097375D01*
X010600Y098125D01*
X011100Y098625D02*
X011600Y098125D01*
X012600Y098125D01*
X013100Y098625D01*
X012850Y097625D02*
X013850Y097625D01*
X014100Y097375D01*
X014350Y097625D01*
X016350Y098375D01*
X016350Y097625D02*
X016350Y097125D01*
X016100Y096875D01*
X016100Y096625D01*
X015100Y096625D01*
X014600Y096125D01*
X013600Y096125D01*
X013100Y096625D01*
X012600Y096625D01*
X012600Y097375D02*
X012850Y097625D01*
X012600Y095875D02*
X012850Y095625D01*
X014850Y095625D01*
X015350Y096125D01*
X014100Y096625D02*
X014100Y097375D01*
X013350Y095125D02*
X011850Y095125D01*
X010600Y095875D02*
X010100Y096375D01*
X010100Y098625D01*
X009100Y093625D02*
X008100Y093625D01*
X003600Y091625D02*
X003100Y092125D01*
X003100Y094625D01*
X001600Y094625D02*
X001100Y094125D01*
X001100Y092375D01*
X001850Y091625D01*
X004600Y084625D02*
X003850Y083875D01*
X003850Y082125D01*
X003350Y081625D02*
X003100Y081375D01*
X003100Y080625D01*
X003850Y080625D01*
X006100Y080625D01*
X008600Y078125D01*
X009350Y078125D01*
X009850Y077625D01*
X010850Y077625D01*
X010850Y078625D02*
X010850Y079375D01*
X010350Y079875D01*
X009850Y080375D01*
X009850Y082625D01*
X010350Y083125D02*
X008850Y084625D01*
X008850Y083625D02*
X007850Y083625D01*
X006350Y084625D02*
X004600Y084625D01*
X003100Y078625D02*
X003100Y076125D01*
X003600Y075625D01*
X001850Y075625D02*
X001100Y076375D01*
X001100Y078125D01*
X001600Y078625D01*
X004350Y068625D02*
X003850Y068125D01*
X003850Y066125D01*
X003350Y065625D02*
X003100Y065375D01*
X003100Y064625D01*
X003850Y064625D01*
X004850Y064625D01*
X007600Y062125D01*
X009350Y062125D01*
X009850Y061625D01*
X010850Y061625D01*
X010850Y062625D02*
X010850Y063375D01*
X010350Y063875D01*
X009850Y064375D01*
X009850Y066625D01*
X010350Y066125D02*
X011600Y064875D01*
X011600Y063625D01*
X011850Y063125D01*
X013350Y063125D01*
X013600Y062875D01*
X013600Y054625D01*
X010850Y052375D01*
X010850Y051625D01*
X010600Y051125D02*
X009100Y052625D01*
X008850Y051625D02*
X007850Y051625D01*
X006350Y052625D02*
X004350Y052625D01*
X003850Y052125D01*
X003850Y050125D01*
X003350Y049625D02*
X003100Y049375D01*
X003100Y048625D01*
X003850Y048625D01*
X006600Y048625D01*
X009600Y045625D01*
X010850Y045625D01*
X010850Y046625D02*
X010850Y047375D01*
X010350Y047875D01*
X009850Y048375D01*
X009850Y050625D01*
X010350Y050125D02*
X011350Y049375D01*
X011350Y047875D01*
X011850Y047125D01*
X013350Y047125D01*
X013600Y046875D01*
X013600Y038125D01*
X011100Y036375D01*
X011100Y035625D01*
X010850Y035125D02*
X009350Y036625D01*
X009100Y035625D02*
X008100Y035625D01*
X006600Y036625D02*
X004350Y036625D01*
X003850Y036125D01*
X003850Y034375D01*
X003350Y033875D02*
X003100Y033375D01*
X003100Y032875D01*
X001600Y030875D02*
X001100Y030375D01*
X001100Y028375D01*
X001850Y027625D01*
X008100Y029625D02*
X009100Y029625D01*
X011350Y033875D02*
X011100Y034125D01*
X011100Y034625D01*
X010850Y035125D02*
X012600Y035125D01*
X013100Y034625D02*
X012350Y033875D01*
X011350Y033875D01*
X012600Y033375D02*
X013100Y033625D01*
X013850Y033625D01*
X014100Y033375D01*
X015100Y034375D01*
X016850Y034375D01*
X016850Y033625D02*
X016850Y033125D01*
X016350Y032625D01*
X015100Y032625D01*
X014600Y032125D01*
X013600Y032125D01*
X013100Y032625D01*
X012600Y032625D01*
X012600Y031875D02*
X013100Y031625D01*
X014850Y031625D01*
X015350Y032125D01*
X014100Y032625D02*
X014100Y033375D01*
X008850Y045625D02*
X007850Y045625D01*
X011350Y050125D02*
X010850Y050625D01*
X010600Y051125D02*
X012350Y051125D01*
X012850Y050625D02*
X012350Y050125D01*
X011350Y050125D01*
X012350Y049375D02*
X012850Y049625D01*
X013600Y049625D01*
X013850Y049375D01*
X014850Y050375D01*
X016600Y050375D01*
X016600Y049625D02*
X016600Y049125D01*
X015850Y048625D01*
X014850Y048625D01*
X014350Y048125D01*
X013350Y048125D01*
X012850Y048625D01*
X012350Y048625D01*
X012350Y047875D02*
X012600Y047625D01*
X014600Y047625D01*
X015100Y048125D01*
X013850Y048625D02*
X013850Y049375D01*
X008850Y061625D02*
X007850Y061625D01*
X011350Y066125D02*
X010850Y066625D01*
X010600Y067125D02*
X009100Y068625D01*
X008850Y067625D02*
X007850Y067625D01*
X006350Y068625D02*
X004350Y068625D01*
X003100Y062625D02*
X003100Y060125D01*
X003600Y059625D01*
X001850Y059625D02*
X001100Y060375D01*
X001100Y062125D01*
X001600Y062625D01*
X001600Y046625D02*
X001100Y046125D01*
X001100Y044375D01*
X001850Y043625D01*
X003100Y044125D02*
X003100Y046625D01*
X003100Y044125D02*
X003600Y043625D01*
X012600Y063625D02*
X012350Y063875D01*
X012600Y063625D02*
X014600Y063625D01*
X015100Y064125D01*
X014850Y064625D02*
X015850Y064625D01*
X016350Y065125D01*
X016350Y065625D01*
X016350Y066375D02*
X014850Y066375D01*
X013850Y065375D01*
X013850Y064625D01*
X013350Y064125D02*
X014350Y064125D01*
X014850Y064625D01*
X013850Y065375D02*
X013600Y065625D01*
X012600Y065625D01*
X012350Y065375D01*
X012350Y066125D02*
X011350Y066125D01*
X012350Y066125D02*
X012850Y066625D01*
X012350Y067125D02*
X010600Y067125D01*
X010850Y067625D02*
X010850Y069125D01*
X013600Y070625D01*
X013600Y078625D01*
X013100Y079125D01*
X011850Y079125D01*
X011100Y080125D01*
X011100Y081375D01*
X010350Y082125D01*
X010850Y082625D02*
X011350Y082125D01*
X012350Y082125D01*
X012850Y082625D01*
X012350Y083125D02*
X010350Y083125D01*
X010850Y083625D02*
X010850Y085125D01*
X013600Y086875D01*
X013600Y094875D01*
X013350Y095125D01*
X014850Y082375D02*
X016350Y082375D01*
X016350Y081625D02*
X016350Y081125D01*
X015850Y080625D01*
X014850Y080625D01*
X014350Y080125D01*
X013350Y080125D01*
X012850Y080625D01*
X012350Y080625D01*
X012350Y081375D02*
X012850Y081625D01*
X013600Y081625D01*
X013850Y081375D01*
X014850Y082375D01*
X013850Y081375D02*
X013850Y080625D01*
X014600Y079625D02*
X012600Y079625D01*
X012350Y079875D01*
X014600Y079625D02*
X015100Y080125D01*
X008850Y077625D02*
X007850Y077625D01*
X012350Y064625D02*
X012850Y064625D01*
X013350Y064125D01*
X021100Y058625D02*
X022100Y058625D01*
X023600Y060875D02*
X025100Y062375D01*
X025600Y062375D01*
X025600Y062875D02*
X026100Y063375D01*
X025600Y062875D02*
X024600Y062875D01*
X024100Y063125D01*
X024100Y063625D01*
X023600Y064125D02*
X024100Y064625D01*
X024100Y066375D01*
X023600Y064125D02*
X023600Y063125D01*
X022100Y074625D02*
X021100Y074625D01*
X023600Y079125D02*
X023600Y080125D01*
X024100Y080625D01*
X024100Y082375D01*
X024100Y079625D02*
X024100Y079125D01*
X029100Y088125D02*
X026850Y092125D01*
X026600Y093125D02*
X027350Y093125D01*
X027850Y093625D01*
X028600Y093625D01*
X029100Y094125D01*
X028350Y093125D02*
X027850Y092625D01*
X025850Y092625D01*
X025600Y092875D01*
X025600Y093625D02*
X026100Y093625D01*
X026600Y093125D01*
X027100Y093625D02*
X027100Y094375D01*
X026100Y095375D02*
X025600Y094875D01*
X024350Y094875D01*
X024100Y095125D01*
X024100Y095625D01*
X023600Y096125D02*
X024100Y096625D01*
X024100Y098375D01*
X023600Y096125D02*
X023600Y095125D01*
X023600Y092875D02*
X024100Y092375D01*
X024100Y091625D01*
X024100Y090625D02*
X024850Y090625D01*
X024975Y090750D01*
X022100Y090625D02*
X021100Y090625D01*
X029100Y088125D02*
X045850Y088125D01*
X045850Y088625D02*
X031350Y088625D01*
X030850Y089125D01*
X030850Y095375D01*
X031850Y096625D02*
X031850Y091625D01*
X043350Y091625D01*
X044850Y093375D01*
X044850Y093875D02*
X044100Y093875D01*
X043100Y092875D01*
X038850Y092875D01*
X038100Y092125D01*
X037350Y092125D01*
X036600Y092125D01*
X036100Y092625D01*
X035850Y092625D01*
X033350Y094625D01*
X032850Y094125D02*
X032850Y097625D01*
X035850Y097625D01*
X035350Y098125D02*
X034350Y098125D01*
X036350Y097125D02*
X036350Y094875D01*
X036850Y094375D01*
X038350Y095875D01*
X038850Y095875D01*
X039100Y096125D01*
X040100Y096125D01*
X040350Y095875D01*
X040350Y095625D01*
X042100Y097375D01*
X044600Y097375D01*
X044850Y097625D01*
X044850Y102125D01*
X045600Y104125D02*
X028850Y104125D01*
X026850Y108125D01*
X028100Y111875D02*
X025600Y111875D01*
X023600Y108875D02*
X024100Y108375D01*
X024100Y107625D01*
X024100Y106625D02*
X024850Y106625D01*
X022100Y106625D02*
X021100Y106625D01*
X016100Y112625D02*
X016100Y112875D01*
X016350Y113125D01*
X016350Y113625D01*
X016350Y114375D02*
X015100Y114375D01*
X014100Y113375D01*
X014100Y112625D01*
X014350Y112125D02*
X014850Y112625D01*
X016100Y112625D01*
X015350Y112125D02*
X014850Y111625D01*
X012600Y111625D01*
X012350Y111875D01*
X012350Y112625D02*
X012850Y112625D01*
X013600Y112125D01*
X014350Y112125D01*
X014100Y113375D02*
X013850Y113625D01*
X012850Y113625D01*
X012350Y113375D01*
X012350Y114125D02*
X011350Y114125D01*
X010850Y114625D01*
X010350Y115125D02*
X012350Y115125D01*
X012850Y114625D02*
X012350Y114125D01*
X008850Y109625D02*
X007850Y109625D01*
X003600Y107625D02*
X003100Y108125D01*
X003100Y110375D01*
X001600Y110375D02*
X001100Y109875D01*
X001100Y108375D01*
X001850Y107625D01*
X001850Y123625D02*
X001350Y124375D01*
X001350Y125875D02*
X001600Y126375D01*
X003100Y126375D02*
X003100Y124125D01*
X003600Y123625D01*
X008100Y125625D02*
X009100Y125625D01*
X012850Y133125D02*
X012100Y133875D01*
X010600Y133875D01*
X009850Y134625D01*
X009350Y134625D01*
X008850Y134125D01*
X008350Y136125D02*
X002100Y136125D01*
X002850Y134625D02*
X003850Y134625D01*
X004850Y133625D01*
X027850Y132375D02*
X035100Y132375D01*
X037350Y130125D01*
X037850Y130625D01*
X044350Y130625D01*
X044350Y130125D02*
X039600Y130125D01*
X038850Y129375D01*
X039350Y128875D02*
X038850Y128375D01*
X037600Y128375D01*
X037350Y128625D01*
X037350Y129125D01*
X036850Y129375D02*
X036850Y128625D01*
X036350Y129125D02*
X036350Y126875D01*
X036850Y126375D01*
X037350Y125875D01*
X037350Y125125D01*
X036850Y124625D02*
X037850Y124625D01*
X038350Y125375D01*
X038850Y124875D02*
X038100Y124125D01*
X037350Y124125D01*
X036600Y124125D01*
X036100Y124625D01*
X035600Y124625D01*
X033600Y127375D01*
X033600Y128125D02*
X036100Y125625D01*
X036850Y125625D01*
X036350Y125125D02*
X036850Y124625D01*
X036850Y126375D02*
X038350Y127875D01*
X038850Y127875D01*
X039100Y128125D01*
X040100Y128125D01*
X040225Y128000D01*
X041850Y129375D01*
X044850Y129375D01*
X044850Y132625D01*
X044350Y128125D02*
X041850Y125625D01*
X040100Y125625D01*
X039350Y126125D02*
X041100Y126125D01*
X041600Y126625D01*
X040350Y127125D02*
X040350Y127875D01*
X040225Y128000D01*
X039350Y127125D02*
X039850Y126625D01*
X039350Y126125D02*
X038850Y126375D01*
X038850Y127125D02*
X039350Y127125D01*
X038850Y124875D02*
X042850Y124875D01*
X043850Y125875D01*
X044850Y125875D01*
X044850Y125375D02*
X043350Y123625D01*
X031850Y123625D01*
X031850Y128625D01*
X032850Y129625D02*
X032850Y126875D01*
X032850Y129625D02*
X035850Y129625D01*
X035350Y130125D02*
X034350Y130125D01*
X036850Y129375D02*
X037350Y130125D01*
X035350Y124125D02*
X034350Y124125D01*
X034350Y114125D02*
X035350Y114125D01*
X035850Y113625D02*
X032850Y113625D01*
X032850Y110125D01*
X033350Y110625D02*
X034600Y109625D01*
X035600Y108625D01*
X036100Y108625D01*
X036600Y108125D01*
X037350Y108125D01*
X038350Y108125D01*
X038850Y108875D01*
X041850Y108875D01*
X042850Y109875D01*
X044850Y109875D01*
X044850Y109375D02*
X043350Y109375D01*
X041600Y107625D01*
X031850Y107625D01*
X031850Y112625D01*
X031350Y111875D02*
X031350Y104625D01*
X045600Y104625D01*
X044350Y098625D02*
X037850Y098625D01*
X037350Y098125D01*
X036850Y097375D01*
X036850Y096625D01*
X037350Y096625D02*
X037850Y096375D01*
X038850Y096375D01*
X039350Y096875D01*
X038850Y097375D02*
X039600Y098125D01*
X044350Y098125D01*
X044350Y096125D02*
X041350Y093625D01*
X040100Y093625D01*
X039850Y094625D02*
X039350Y095125D01*
X038850Y095125D01*
X039100Y094125D02*
X041100Y094125D01*
X041600Y094625D01*
X040350Y095125D02*
X040350Y095625D01*
X038350Y093375D02*
X037600Y092625D01*
X036850Y092625D01*
X036350Y093125D01*
X037350Y093125D02*
X037350Y093875D01*
X036850Y094375D01*
X037350Y096625D02*
X037350Y097125D01*
X035350Y092125D02*
X034350Y092125D01*
X034350Y082125D02*
X035350Y082125D01*
X035850Y081625D02*
X032850Y081625D01*
X032850Y078125D01*
X033350Y078625D02*
X035600Y076625D01*
X036100Y076625D01*
X036600Y076125D01*
X037350Y076125D01*
X038100Y076125D01*
X038850Y076875D01*
X042600Y076875D01*
X043600Y077875D01*
X044850Y077875D01*
X044850Y077375D02*
X043100Y075625D01*
X031850Y075625D01*
X031850Y080625D01*
X034350Y076125D02*
X035350Y076125D01*
X036350Y077125D02*
X036850Y076625D01*
X037600Y076625D01*
X038350Y077375D01*
X038850Y078375D02*
X039350Y078125D01*
X041100Y078125D01*
X041600Y078625D01*
X042100Y077625D02*
X040100Y077625D01*
X039850Y078625D02*
X039350Y079125D01*
X038850Y079125D01*
X038850Y079875D02*
X039350Y080125D01*
X040100Y080125D01*
X040350Y079875D01*
X041850Y081375D01*
X044600Y081375D01*
X044850Y081625D01*
X044850Y086125D01*
X044350Y082625D02*
X038100Y082625D01*
X037350Y082125D01*
X036850Y081625D01*
X036850Y080625D01*
X037350Y080625D02*
X037850Y080375D01*
X038850Y080375D01*
X039350Y080875D01*
X038850Y081375D02*
X039600Y082125D01*
X044350Y082125D01*
X044350Y080125D02*
X044100Y079875D01*
X042100Y077625D01*
X040350Y079125D02*
X040350Y079875D01*
X038850Y079875D02*
X038350Y079875D01*
X036850Y078375D01*
X036350Y078875D01*
X036350Y081125D01*
X037350Y081125D02*
X037350Y080625D01*
X036850Y078375D02*
X037350Y077875D01*
X037350Y077125D01*
X038100Y066625D02*
X037350Y066125D01*
X036850Y065625D01*
X036850Y064625D01*
X037350Y064625D02*
X037350Y065125D01*
X037350Y064625D02*
X037850Y064375D01*
X038850Y064375D01*
X039350Y064875D01*
X038850Y065375D02*
X039850Y066125D01*
X044350Y066125D01*
X044350Y066625D02*
X038100Y066625D01*
X036350Y065125D02*
X036350Y062875D01*
X036850Y062375D01*
X037350Y061875D01*
X037350Y061125D01*
X036850Y060625D02*
X037850Y060625D01*
X038350Y061375D01*
X038850Y060875D02*
X043600Y060875D01*
X044350Y061875D01*
X044850Y061875D01*
X044850Y061375D02*
X043850Y059625D01*
X031850Y059625D01*
X031850Y064625D01*
X032850Y065625D02*
X032850Y062125D01*
X033350Y062625D02*
X033600Y062625D01*
X035600Y060625D01*
X035850Y060625D01*
X036350Y060125D01*
X037350Y060125D01*
X038100Y060125D01*
X038850Y060875D01*
X039100Y062125D02*
X038850Y062375D01*
X039100Y062125D02*
X041100Y062125D01*
X041600Y062625D01*
X042350Y061625D02*
X043100Y062375D01*
X044350Y064125D01*
X044600Y065375D02*
X041850Y065375D01*
X040350Y063875D01*
X040350Y063125D01*
X039850Y062625D02*
X039350Y063125D01*
X038850Y063125D01*
X038850Y063875D02*
X038350Y063875D01*
X036850Y062375D01*
X036350Y061125D02*
X036850Y060625D01*
X035350Y060125D02*
X034350Y060125D01*
X032850Y065625D02*
X035850Y065625D01*
X035350Y066125D02*
X034350Y066125D01*
X038850Y063875D02*
X039350Y064125D01*
X040100Y064125D01*
X040350Y063875D01*
X040100Y061625D02*
X042350Y061625D01*
X044600Y065375D02*
X044850Y065625D01*
X044850Y070125D01*
X048850Y071625D02*
X049850Y071625D01*
X049850Y072625D02*
X050880Y072375D01*
X051350Y073125D01*
X052350Y074125D01*
X054850Y074125D01*
X055100Y073875D01*
X055100Y073125D01*
X054600Y073625D02*
X054100Y073625D01*
X052880Y072375D01*
X051850Y071625D02*
X051850Y070625D01*
X052100Y068125D02*
X052100Y067875D01*
X051850Y067625D01*
X050600Y067625D01*
X050100Y067125D01*
X049350Y067125D01*
X048850Y066625D01*
X048850Y066125D02*
X050350Y066125D01*
X049850Y065625D02*
X049850Y064625D01*
X050350Y064125D02*
X048850Y064125D01*
X049850Y063625D02*
X050880Y063375D01*
X051350Y064125D01*
X052350Y065125D01*
X053100Y065125D01*
X054600Y066625D01*
X054600Y067125D02*
X053100Y067125D01*
X052880Y066875D01*
X052850Y065625D01*
X052100Y065875D02*
X052100Y066875D01*
X052600Y067625D01*
X054600Y067625D01*
X054600Y068125D02*
X052100Y068125D01*
X052100Y065875D02*
X050350Y064125D01*
X049850Y062625D02*
X048850Y062625D01*
X048850Y061875D02*
X051100Y061875D01*
X051850Y062625D01*
X052880Y063375D02*
X054100Y064625D01*
X054600Y064625D01*
X054600Y061625D02*
X052880Y059875D01*
X052350Y059125D02*
X051600Y058375D01*
X051100Y058375D01*
X050350Y059125D01*
X048850Y059125D01*
X049850Y058625D02*
X049850Y057625D01*
X049350Y057125D02*
X048850Y056625D01*
X049350Y057125D02*
X050350Y057125D01*
X049850Y056625D02*
X050880Y056375D01*
X051350Y057125D01*
X052350Y058125D01*
X054850Y058125D01*
X055100Y057875D01*
X055100Y057125D01*
X054600Y057625D02*
X054100Y057625D01*
X052880Y056375D01*
X051850Y055625D02*
X051850Y054625D01*
X052350Y052125D02*
X051850Y051625D01*
X050850Y051625D01*
X050350Y051125D01*
X049350Y051125D01*
X048850Y050625D01*
X048850Y050125D02*
X050350Y050125D01*
X049850Y049625D02*
X049850Y048625D01*
X050350Y048125D02*
X048850Y048125D01*
X049850Y047625D02*
X050880Y047375D01*
X051350Y048125D01*
X052350Y049125D01*
X053350Y049125D01*
X054600Y050625D01*
X054600Y051125D02*
X053100Y051125D01*
X052880Y050875D01*
X052850Y049625D01*
X052100Y049875D02*
X052100Y051125D01*
X052600Y051625D01*
X054600Y051625D01*
X054600Y052125D02*
X052350Y052125D01*
X052100Y049875D02*
X050350Y048125D01*
X049850Y046625D02*
X048850Y046625D01*
X048850Y045875D02*
X051100Y045875D01*
X051850Y046625D01*
X052880Y047375D02*
X054100Y048625D01*
X054600Y048625D01*
X054600Y045625D02*
X052880Y043875D01*
X053350Y043375D02*
X052350Y043375D01*
X051350Y042375D01*
X051100Y042375D01*
X050350Y043125D01*
X048850Y043125D01*
X049850Y042625D02*
X049850Y041625D01*
X049350Y041125D02*
X050350Y041125D01*
X049850Y040625D02*
X050880Y040375D01*
X051350Y041125D01*
X052350Y042125D01*
X054850Y042125D01*
X055100Y041875D01*
X055100Y041125D01*
X054600Y041625D02*
X054100Y041625D01*
X052880Y040375D01*
X051850Y039625D02*
X051850Y038625D01*
X052350Y036125D02*
X051850Y035625D01*
X050850Y035625D01*
X050100Y035125D01*
X049600Y035125D01*
X048850Y034625D01*
X048850Y034125D02*
X050350Y034125D01*
X049850Y033625D02*
X049850Y032625D01*
X050350Y032125D02*
X048850Y032125D01*
X049850Y031625D02*
X050880Y031375D01*
X051350Y032125D01*
X052350Y033125D01*
X053100Y033125D01*
X054600Y034625D01*
X054600Y035125D02*
X053100Y035125D01*
X052880Y034875D01*
X052850Y033625D01*
X052100Y034125D02*
X052100Y034875D01*
X052850Y035625D01*
X054600Y035625D01*
X054600Y036125D02*
X052350Y036125D01*
X052100Y034125D02*
X050350Y032125D01*
X049850Y030625D02*
X048850Y030625D01*
X048850Y029875D02*
X051100Y029875D01*
X051850Y030625D01*
X052880Y031375D02*
X054100Y032625D01*
X054600Y032625D01*
X054600Y029625D02*
X052880Y027875D01*
X053350Y027125D02*
X052350Y027125D01*
X051600Y026375D01*
X051100Y026375D01*
X050350Y027125D01*
X048850Y027125D01*
X049850Y026625D02*
X049850Y025625D01*
X049350Y025125D02*
X048850Y024625D01*
X049350Y025125D02*
X050350Y025125D01*
X049850Y024625D02*
X050880Y024375D01*
X051350Y025125D01*
X052350Y026125D01*
X054850Y026125D01*
X055100Y025875D01*
X055100Y025125D01*
X054600Y025625D02*
X054100Y025625D01*
X052880Y024375D01*
X051850Y023625D02*
X051850Y022625D01*
X052350Y020125D02*
X054600Y020125D01*
X054600Y019625D02*
X052850Y019625D01*
X052100Y018875D01*
X052100Y017875D01*
X050350Y016125D01*
X044350Y016125D01*
X041850Y013625D01*
X040100Y013625D01*
X039350Y014125D02*
X041100Y014125D01*
X041600Y014625D01*
X040350Y015875D02*
X041600Y017125D01*
X044350Y017125D01*
X044850Y017625D01*
X044850Y022125D01*
X044350Y018625D02*
X037850Y018625D01*
X037350Y018125D01*
X036850Y017625D01*
X036850Y016625D01*
X037350Y016625D02*
X037600Y016375D01*
X038850Y016375D01*
X039350Y016875D01*
X038850Y017375D02*
X039600Y018125D01*
X044350Y018125D01*
X042850Y013875D02*
X042728Y013777D01*
X042826Y013875D01*
X051100Y013875D01*
X051850Y014625D01*
X050880Y015375D02*
X051350Y016125D01*
X052350Y017125D01*
X053100Y017125D01*
X053600Y017625D01*
X053600Y018125D01*
X054100Y018625D01*
X054600Y018625D01*
X054600Y019125D02*
X053350Y019125D01*
X053100Y018875D01*
X052880Y018875D01*
X052850Y017625D01*
X051850Y019625D02*
X052350Y020125D01*
X051850Y019625D02*
X050600Y019625D01*
X050100Y019125D01*
X049600Y019125D01*
X048850Y018625D01*
X048850Y018125D02*
X050350Y018125D01*
X049850Y017625D02*
X049850Y016625D01*
X049850Y015625D02*
X050880Y015375D01*
X049850Y014625D02*
X048850Y014625D01*
X048850Y012625D02*
X049850Y012625D01*
X050350Y009125D02*
X049350Y009125D01*
X049850Y008625D02*
X050880Y008375D01*
X051350Y009125D01*
X052350Y010125D01*
X054850Y010125D01*
X049850Y007625D02*
X048850Y007625D01*
X048850Y019625D02*
X049850Y019625D01*
X049850Y023625D02*
X048850Y023625D01*
X048850Y028625D02*
X049850Y028625D01*
X048850Y029375D02*
X051100Y029375D01*
X051850Y028625D01*
X053350Y027125D02*
X054100Y028125D01*
X054600Y028125D01*
X059850Y029625D02*
X061100Y028375D01*
X061100Y028125D01*
X061600Y028375D02*
X061600Y027625D01*
X060600Y026625D01*
X060600Y020125D01*
X060600Y019625D02*
X063600Y019625D01*
X064850Y021125D01*
X064850Y027625D01*
X066100Y028625D01*
X066100Y030625D01*
X065100Y031375D01*
X063600Y031375D01*
X062850Y030875D01*
X062600Y030625D01*
X062600Y030125D01*
X061350Y030125D01*
X060850Y029625D02*
X060600Y030125D01*
X060600Y031625D01*
X061100Y031125D02*
X061850Y031125D01*
X062350Y031625D01*
X062850Y031625D01*
X063100Y031875D01*
X063100Y034625D01*
X062600Y035125D01*
X061100Y035125D01*
X061100Y034625D02*
X061850Y033875D01*
X061850Y032625D01*
X062100Y029625D02*
X060850Y029625D01*
X061600Y028375D02*
X062350Y029125D01*
X062600Y029125D01*
X062100Y029625D01*
X062600Y029125D02*
X063600Y030125D01*
X063600Y030625D01*
X064850Y029125D02*
X064100Y028625D01*
X063600Y028625D01*
X061850Y026625D02*
X061850Y025125D01*
X062600Y019125D02*
X060600Y019125D01*
X060600Y018625D02*
X061100Y018625D01*
X061350Y018375D01*
X061350Y017125D01*
X061850Y016625D01*
X062600Y015625D02*
X062850Y015625D01*
X063100Y015875D01*
X063100Y018625D01*
X062600Y019125D01*
X062600Y015625D02*
X062100Y015125D01*
X061100Y015125D01*
X060600Y015625D02*
X060600Y014125D01*
X060850Y013625D01*
X061850Y013625D01*
X062600Y013125D01*
X063600Y014125D01*
X063600Y014625D01*
X063600Y015375D02*
X067600Y015375D01*
X067600Y011625D01*
X068600Y010625D01*
X068600Y007125D01*
X067600Y006125D01*
X066850Y007625D02*
X066600Y008125D01*
X066600Y012875D01*
X064850Y013125D02*
X064350Y012625D01*
X063600Y012625D01*
X062600Y013125D02*
X061600Y011625D01*
X061100Y012125D02*
X059600Y013625D01*
X061350Y014125D02*
X062600Y014125D01*
X062600Y014375D01*
X063600Y015375D01*
X061850Y010625D02*
X061350Y010125D01*
X061350Y009125D01*
X068100Y014125D02*
X068600Y013625D01*
X068600Y012875D01*
X068100Y014125D02*
X068100Y014875D01*
X067850Y022125D02*
X065600Y022125D01*
X067850Y035125D02*
X065600Y038125D01*
X064850Y036375D02*
X064850Y042875D01*
X065600Y043625D01*
X065600Y046875D01*
X065100Y047375D01*
X063600Y047375D01*
X062850Y046125D01*
X061600Y046125D01*
X061100Y045625D02*
X060850Y046125D01*
X060850Y047625D01*
X061350Y047125D02*
X062100Y047125D01*
X062850Y047625D01*
X063100Y047625D01*
X063350Y047875D01*
X063350Y050375D01*
X062600Y051125D01*
X061100Y051125D01*
X061100Y050625D02*
X062100Y049625D01*
X062100Y048625D01*
X063850Y046625D02*
X062850Y045125D01*
X061850Y043625D01*
X061100Y042875D01*
X061100Y036125D01*
X061100Y035625D02*
X064100Y035625D01*
X064850Y036375D01*
X062100Y041125D02*
X062100Y042625D01*
X061350Y044125D02*
X061100Y044125D01*
X060100Y045625D01*
X061100Y045625D02*
X062350Y045625D01*
X062850Y045125D01*
X063850Y044625D02*
X065100Y045125D01*
X064350Y051625D02*
X064850Y052125D01*
X064850Y054875D01*
X065600Y055625D01*
X065600Y062375D01*
X064850Y063125D01*
X063350Y063125D01*
X062850Y062125D01*
X061600Y062125D01*
X061100Y061625D02*
X062600Y061625D01*
X062850Y061125D01*
X063850Y062625D01*
X063100Y063625D02*
X063350Y063875D01*
X063350Y066625D01*
X062850Y067125D01*
X061100Y067125D01*
X061100Y066625D02*
X062100Y065875D01*
X062100Y064625D01*
X062600Y063625D02*
X063100Y063625D01*
X062600Y063625D02*
X062100Y063125D01*
X061350Y063125D01*
X060850Y063625D02*
X060850Y062125D01*
X061100Y061625D01*
X060100Y061625D02*
X061350Y060375D01*
X061350Y060125D01*
X061850Y059625D02*
X061100Y058875D01*
X061100Y052125D01*
X061100Y051625D02*
X064350Y051625D01*
X065600Y054125D02*
X067850Y051125D01*
X063850Y060625D02*
X064600Y061125D01*
X065100Y061125D01*
X062850Y061125D02*
X061850Y059625D01*
X062100Y058625D02*
X062100Y057125D01*
X061100Y067625D02*
X064100Y067625D01*
X064850Y068375D01*
X064850Y073875D01*
X066100Y075125D01*
X066100Y078375D01*
X065350Y079125D01*
X063600Y079125D01*
X062850Y078125D01*
X061600Y078125D01*
X061100Y077625D02*
X062350Y077625D01*
X062850Y077125D01*
X063850Y078125D01*
X063850Y078625D01*
X063100Y079625D02*
X063350Y079875D01*
X063350Y082375D01*
X062600Y083125D01*
X061100Y083125D01*
X061100Y082625D02*
X062100Y081875D01*
X062100Y080625D01*
X062600Y079625D02*
X063100Y079625D01*
X062600Y079625D02*
X062100Y079125D01*
X061350Y079125D01*
X060850Y079625D02*
X060850Y078125D01*
X061100Y077625D01*
X060100Y078125D02*
X061350Y076125D01*
X061850Y075625D02*
X061100Y074875D01*
X061100Y068125D01*
X062100Y073125D02*
X062100Y074625D01*
X061850Y075625D02*
X062600Y077125D01*
X063850Y076625D02*
X064600Y076625D01*
X065100Y077125D01*
X067850Y083125D02*
X065600Y086125D01*
X064600Y084375D02*
X064600Y089875D01*
X065600Y090875D01*
X065600Y094625D01*
X065100Y095125D01*
X063600Y095125D01*
X062850Y094125D01*
X061600Y094125D01*
X061100Y093625D02*
X062350Y093625D01*
X062850Y093125D01*
X062850Y092625D01*
X061850Y091625D01*
X061100Y090625D01*
X061100Y084125D01*
X061100Y083625D02*
X063850Y083625D01*
X064600Y084375D01*
X062100Y089125D02*
X062100Y090625D01*
X061350Y092125D02*
X060100Y093625D01*
X060850Y094125D02*
X060850Y095625D01*
X061350Y095125D02*
X062100Y095125D01*
X062600Y095625D01*
X063100Y095625D01*
X063350Y095875D01*
X063350Y098625D01*
X062850Y099125D01*
X061100Y099125D01*
X061100Y098625D02*
X062100Y098125D01*
X062100Y096625D01*
X063850Y094625D02*
X063850Y094125D01*
X062850Y093125D01*
X063850Y092625D02*
X064600Y092625D01*
X065100Y093125D01*
X067850Y099125D02*
X065600Y102125D01*
X064850Y102125D02*
X066100Y103375D01*
X066100Y110625D01*
X065350Y111125D01*
X063600Y111125D01*
X062850Y110125D01*
X061600Y110125D01*
X061100Y109625D02*
X062350Y109625D01*
X062850Y109125D01*
X063850Y110125D01*
X063850Y110625D01*
X063100Y111625D02*
X063350Y111875D01*
X063350Y114625D01*
X062850Y115125D01*
X061100Y115125D01*
X061100Y115625D02*
X064100Y115625D01*
X064850Y116375D01*
X064850Y120875D01*
X066100Y122125D01*
X066100Y126625D01*
X065600Y127125D01*
X063600Y127125D01*
X062850Y126125D01*
X061600Y126125D01*
X061100Y125625D02*
X062350Y125625D01*
X062850Y125125D01*
X062850Y124625D01*
X061850Y123625D01*
X061100Y122625D01*
X061100Y116125D01*
X061100Y114625D02*
X062100Y113625D01*
X062100Y112625D01*
X062600Y111625D02*
X063100Y111625D01*
X062600Y111625D02*
X062100Y111125D01*
X061350Y111125D01*
X060850Y111625D02*
X060850Y110125D01*
X061100Y109625D01*
X060100Y109625D02*
X061350Y108375D01*
X061350Y108125D01*
X061850Y107625D02*
X061100Y106625D01*
X061100Y100125D01*
X061100Y099625D02*
X064100Y099625D01*
X064850Y100375D01*
X064850Y102125D01*
X062100Y105125D02*
X062100Y106625D01*
X061850Y107625D02*
X062850Y108625D01*
X062850Y109125D01*
X063850Y108625D02*
X064600Y108625D01*
X065100Y109125D01*
X067850Y115125D02*
X065600Y118125D01*
X063850Y124625D02*
X064850Y125125D01*
X065350Y125125D01*
X063850Y126125D02*
X063850Y126625D01*
X063850Y126125D02*
X062850Y125125D01*
X062100Y127125D02*
X062600Y127625D01*
X063100Y127625D01*
X063350Y127875D01*
X063350Y129875D01*
X062100Y131125D01*
X061600Y130625D02*
X062100Y130125D01*
X062100Y128625D01*
X062100Y127125D02*
X061350Y127125D01*
X060850Y127625D02*
X060850Y126125D01*
X061100Y125625D01*
X060100Y125625D02*
X061350Y124125D01*
X062100Y122625D02*
X062100Y121125D01*
X067850Y131125D02*
X066100Y132625D01*
X055100Y121875D02*
X055100Y121125D01*
X054600Y121625D02*
X054350Y121625D01*
X052880Y120375D01*
X051850Y119625D02*
X051850Y118625D01*
X050880Y120375D02*
X051350Y121125D01*
X052350Y122125D01*
X054850Y122125D01*
X055100Y121875D01*
X054600Y123625D02*
X054100Y123625D01*
X053600Y123125D01*
X052350Y123125D01*
X051600Y122375D01*
X051100Y122375D01*
X050350Y123125D01*
X048850Y123125D01*
X049850Y122625D02*
X049850Y121625D01*
X049350Y121125D02*
X048850Y120625D01*
X049350Y121125D02*
X050350Y121125D01*
X049850Y120625D02*
X050880Y120375D01*
X049850Y119625D02*
X048850Y119625D01*
X048850Y115625D02*
X049850Y115625D01*
X050100Y115125D02*
X050600Y115625D01*
X051850Y115625D01*
X052350Y116125D01*
X054600Y116125D01*
X054600Y115625D02*
X052850Y115625D01*
X052100Y114875D01*
X052100Y113875D01*
X050350Y112125D01*
X048850Y112125D01*
X049850Y111625D02*
X050880Y111375D01*
X051350Y112125D01*
X052350Y113125D01*
X053100Y113125D01*
X054600Y114625D01*
X054600Y115125D02*
X053100Y115125D01*
X052880Y114875D01*
X052850Y113625D01*
X054100Y112625D02*
X052880Y111375D01*
X051850Y110625D02*
X051350Y109875D01*
X048850Y109875D01*
X048850Y109375D02*
X051350Y109375D01*
X051850Y108625D01*
X052880Y107875D02*
X054600Y109625D01*
X054600Y107625D02*
X054100Y107125D01*
X052350Y107125D01*
X051600Y106375D01*
X051100Y106375D01*
X050350Y107125D01*
X048850Y107125D01*
X049850Y106625D02*
X049850Y105625D01*
X049350Y105125D02*
X048850Y104625D01*
X049350Y105125D02*
X050350Y105125D01*
X049850Y104625D02*
X050880Y104375D01*
X051350Y105125D01*
X052350Y106125D01*
X054850Y106125D01*
X055100Y105875D01*
X055100Y105125D01*
X054600Y105625D02*
X054100Y105625D01*
X052880Y104375D01*
X051850Y103625D02*
X051850Y102625D01*
X052350Y100125D02*
X051850Y099625D01*
X050850Y099625D01*
X050350Y099125D01*
X049600Y099125D01*
X048850Y098625D01*
X048850Y098125D02*
X050350Y098125D01*
X049850Y097625D02*
X049850Y096625D01*
X050350Y096125D02*
X048850Y096125D01*
X049850Y095625D02*
X050880Y095375D01*
X051350Y096125D01*
X052350Y097125D01*
X053600Y097125D01*
X054600Y098625D01*
X054600Y099125D02*
X053100Y099125D01*
X052880Y098875D01*
X052850Y098845D01*
X052850Y097625D01*
X052100Y098125D02*
X052100Y098875D01*
X052850Y099625D01*
X054600Y099625D01*
X054600Y100125D02*
X052350Y100125D01*
X052100Y098125D02*
X050350Y096125D01*
X049850Y094625D02*
X048850Y094625D01*
X048850Y093875D02*
X051100Y093875D01*
X051850Y094625D01*
X052880Y095375D02*
X054100Y096625D01*
X054600Y096625D01*
X054600Y093625D02*
X053100Y092125D01*
X052880Y091875D01*
X052600Y091125D02*
X051850Y090375D01*
X051100Y090375D01*
X050350Y091125D01*
X048350Y091125D01*
X048850Y092625D02*
X049850Y092625D01*
X048850Y093375D02*
X051100Y093375D01*
X051850Y092625D01*
X052600Y091125D02*
X053600Y091125D01*
X054600Y092125D01*
X054850Y090125D02*
X055100Y089875D01*
X055100Y089125D01*
X054600Y089625D02*
X054100Y089625D01*
X052880Y088375D01*
X051850Y087625D02*
X051850Y086625D01*
X050880Y088375D02*
X051350Y089125D01*
X052350Y090125D01*
X054850Y090125D01*
X054600Y084125D02*
X052350Y084125D01*
X051850Y083625D01*
X050600Y083625D01*
X050100Y083125D01*
X049350Y083125D01*
X048850Y082625D01*
X048850Y082125D02*
X050350Y082125D01*
X049850Y081625D02*
X049850Y080625D01*
X050350Y080125D02*
X048850Y080125D01*
X049850Y079625D02*
X050880Y079375D01*
X051350Y080125D01*
X052350Y081125D01*
X053600Y081125D01*
X054600Y082625D01*
X054600Y083125D02*
X053100Y083125D01*
X052880Y082875D01*
X052850Y081625D01*
X052100Y081875D02*
X052100Y083125D01*
X052600Y083625D01*
X054600Y083625D01*
X054600Y080625D02*
X054100Y080625D01*
X052880Y079375D01*
X051850Y078625D02*
X051100Y077875D01*
X048850Y077875D01*
X048850Y077375D02*
X051100Y077375D01*
X051850Y076625D01*
X052850Y075875D02*
X052880Y075875D01*
X052850Y075875D02*
X054600Y078125D01*
X054600Y075875D02*
X053850Y075125D01*
X052350Y075125D01*
X051600Y074375D01*
X051100Y074375D01*
X050350Y075125D01*
X048850Y075125D01*
X049850Y074625D02*
X049850Y073625D01*
X049350Y073125D02*
X048850Y072625D01*
X049350Y073125D02*
X050350Y073125D01*
X049850Y076625D02*
X048850Y076625D01*
X048850Y078625D02*
X049850Y078625D01*
X050350Y080125D02*
X052100Y081875D01*
X049850Y083625D02*
X048850Y083625D01*
X048850Y087625D02*
X049850Y087625D01*
X049850Y088625D02*
X050880Y088375D01*
X050350Y089125D02*
X049350Y089125D01*
X048850Y088625D01*
X049850Y089625D02*
X049850Y090625D01*
X049850Y099625D02*
X048850Y099625D01*
X048850Y103625D02*
X049850Y103625D01*
X049850Y108625D02*
X048850Y108625D01*
X048850Y110625D02*
X049850Y110625D01*
X049850Y112625D02*
X049850Y113625D01*
X050350Y114125D02*
X048850Y114125D01*
X048850Y114625D02*
X049350Y115125D01*
X050100Y115125D01*
X054100Y112625D02*
X054600Y112625D01*
X054600Y107625D02*
X055100Y107625D01*
X060850Y094125D02*
X061100Y093625D01*
X065600Y070125D02*
X067850Y067125D01*
X054600Y059625D02*
X054100Y059625D01*
X053600Y059125D01*
X052350Y059125D01*
X051850Y060625D02*
X051100Y061375D01*
X048850Y061375D01*
X048850Y060625D02*
X049850Y060625D01*
X049850Y055625D02*
X048850Y055625D01*
X048850Y051625D02*
X049850Y051625D01*
X048850Y045375D02*
X051100Y045375D01*
X051850Y044625D01*
X053350Y043375D02*
X053850Y043875D01*
X054600Y043875D01*
X049850Y044625D02*
X048850Y044625D01*
X049350Y041125D02*
X048850Y040625D01*
X048850Y039625D02*
X049850Y039625D01*
X049850Y035625D02*
X048850Y035625D01*
X044850Y033875D02*
X044350Y033375D01*
X041850Y033375D01*
X040350Y031875D01*
X040350Y031125D01*
X039850Y030625D02*
X039350Y031125D01*
X038850Y031125D01*
X038850Y030375D02*
X039100Y030125D01*
X041100Y030125D01*
X041600Y030625D01*
X042100Y029625D02*
X040100Y029625D01*
X038850Y028875D02*
X038350Y028125D01*
X037350Y028125D01*
X036600Y028125D01*
X036100Y028625D01*
X035100Y028625D01*
X033600Y030625D01*
X033100Y030125D02*
X033100Y033625D01*
X035850Y033625D01*
X035350Y034125D02*
X034350Y034125D01*
X036350Y033125D02*
X036350Y030875D01*
X036850Y030375D01*
X037350Y029875D01*
X037350Y029125D01*
X036850Y028625D02*
X037850Y028625D01*
X038350Y029375D01*
X038850Y028875D02*
X042100Y028875D01*
X043100Y029875D01*
X044850Y029875D01*
X044850Y029375D02*
X043850Y029375D01*
X042100Y027625D01*
X032100Y027625D01*
X032100Y032625D01*
X034350Y028125D02*
X035350Y028125D01*
X036350Y029125D02*
X036850Y028625D01*
X036850Y030375D02*
X038350Y031875D01*
X038850Y031875D01*
X039350Y032125D01*
X040100Y032125D01*
X040350Y031875D01*
X039350Y032875D02*
X038850Y032375D01*
X037600Y032375D01*
X037350Y032625D01*
X037350Y033125D01*
X036850Y033625D02*
X037350Y034125D01*
X038100Y034625D01*
X044350Y034625D01*
X044350Y034125D02*
X039600Y034125D01*
X038850Y033375D01*
X036850Y033625D02*
X036850Y032625D01*
X042100Y029625D02*
X044350Y032125D01*
X044850Y033875D02*
X044850Y038125D01*
X043850Y043625D02*
X032100Y043625D01*
X032100Y048625D01*
X033100Y049625D02*
X033100Y046125D01*
X033600Y046625D02*
X035600Y044625D01*
X036100Y044625D01*
X036350Y044125D01*
X037350Y044125D01*
X038100Y044125D01*
X038850Y044875D01*
X043100Y044875D01*
X043600Y045875D01*
X044850Y045875D01*
X044850Y045375D02*
X043850Y043625D01*
X042850Y045625D02*
X040100Y045625D01*
X039350Y046125D02*
X041100Y046125D01*
X041600Y046625D01*
X040350Y047875D02*
X040600Y048125D01*
X042600Y049625D01*
X044850Y049625D01*
X044850Y054125D01*
X044350Y050625D02*
X038100Y050625D01*
X037350Y050125D01*
X036850Y049625D01*
X036850Y048625D01*
X037350Y048625D02*
X037350Y049125D01*
X037350Y048625D02*
X037600Y048375D01*
X038850Y048375D01*
X039350Y048875D01*
X038850Y049375D02*
X039600Y050125D01*
X044350Y050125D01*
X044350Y048125D02*
X042850Y045625D01*
X040350Y047125D02*
X040350Y047875D01*
X040100Y048125D02*
X039100Y048125D01*
X038850Y047875D01*
X038350Y047875D01*
X036850Y046375D01*
X037350Y045875D01*
X037350Y045125D01*
X036850Y044625D02*
X037850Y044625D01*
X038350Y045375D01*
X038850Y046375D02*
X039350Y046125D01*
X039850Y046625D02*
X039350Y047125D01*
X038850Y047125D01*
X036850Y046375D02*
X036350Y046875D01*
X036350Y049125D01*
X035850Y049625D02*
X033100Y049625D01*
X034350Y050125D02*
X035350Y050125D01*
X036350Y045125D02*
X036850Y044625D01*
X035350Y044125D02*
X034350Y044125D01*
X022100Y026625D02*
X021100Y026625D01*
X027100Y014375D02*
X027100Y013625D01*
X028600Y013625D02*
X029100Y014125D01*
X033100Y014125D02*
X033100Y017625D01*
X035850Y017625D01*
X036350Y017125D02*
X036350Y014875D01*
X036850Y014375D01*
X037350Y014125D01*
X037350Y013125D01*
X037600Y012625D02*
X036850Y012625D01*
X036350Y013125D01*
X036600Y012125D02*
X033600Y014625D01*
X034350Y012125D02*
X035350Y012125D01*
X036600Y012125D02*
X037350Y012125D01*
X038100Y012125D01*
X038850Y012875D01*
X041600Y012875D01*
X042728Y013777D01*
X040350Y015125D02*
X040350Y015875D01*
X040100Y016125D01*
X039350Y016125D01*
X038850Y015875D01*
X038350Y015875D01*
X036850Y014375D01*
X037350Y016625D02*
X037350Y017125D01*
X038850Y015125D02*
X039350Y015125D01*
X039850Y014625D01*
X039350Y014125D02*
X038850Y014375D01*
X038350Y013375D02*
X037600Y012625D01*
X035350Y018125D02*
X034350Y018125D01*
X048850Y067625D02*
X049850Y067625D01*
X037850Y108625D02*
X036850Y108625D01*
X036350Y109125D01*
X037350Y109125D02*
X037350Y110125D01*
X036850Y110375D01*
X038350Y111875D01*
X038850Y111875D01*
X039100Y112125D01*
X040100Y112125D01*
X040225Y112000D01*
X040600Y112125D01*
X041100Y112125D01*
X041850Y113375D01*
X044350Y113375D01*
X044850Y113875D01*
X044850Y118125D01*
X044350Y114625D02*
X037850Y114625D01*
X037350Y114125D01*
X036850Y113625D01*
X036850Y112625D01*
X037350Y112625D02*
X037600Y112375D01*
X038850Y112375D01*
X039350Y112875D01*
X038850Y113375D02*
X039600Y114125D01*
X044350Y114125D01*
X044350Y112125D02*
X041850Y109625D01*
X040100Y109625D01*
X039850Y110625D02*
X039350Y111125D01*
X038850Y111125D01*
X038850Y110375D02*
X039100Y110125D01*
X041100Y110125D01*
X041600Y110625D01*
X040350Y111125D02*
X040350Y111875D01*
X040225Y112000D01*
X038350Y109375D02*
X037850Y108625D01*
X036850Y110375D02*
X036350Y110875D01*
X036350Y113125D01*
X037350Y113125D02*
X037350Y112625D01*
X035350Y108125D02*
X034350Y108125D01*
X048850Y124625D02*
X049850Y124625D01*
X048850Y125375D02*
X051350Y125375D01*
X051850Y124625D01*
X052880Y123875D02*
X054600Y125625D01*
X052880Y127375D02*
X054100Y128625D01*
X054600Y128625D01*
X053100Y129125D02*
X054600Y130625D01*
X054600Y131125D02*
X053100Y131125D01*
X052880Y130875D01*
X052850Y129625D01*
X053100Y129125D02*
X052350Y129125D01*
X051350Y128125D01*
X050880Y127375D01*
X049850Y127625D01*
X050350Y128125D02*
X048850Y128125D01*
X049850Y128625D02*
X049850Y129625D01*
X050350Y130125D02*
X048850Y130125D01*
X048850Y130625D02*
X049350Y131125D01*
X050100Y131125D01*
X050850Y131625D01*
X051850Y131625D01*
X049850Y131625D02*
X048850Y131625D01*
X048850Y126625D02*
X049850Y126625D01*
X048850Y125875D02*
X051350Y125875D01*
X051850Y126625D01*
X003100Y014625D02*
X003100Y012125D01*
X003600Y011625D01*
X001850Y011625D02*
X001100Y012375D01*
X001100Y014125D01*
X001600Y014625D01*
D17*
X006100Y022625D03*
X006600Y021125D03*
X006600Y020625D03*
X009350Y020625D03*
X007850Y007375D03*
X016850Y017625D03*
X016850Y018125D03*
X020600Y017625D03*
X024100Y018125D03*
X025600Y021125D03*
X025100Y022625D03*
X026850Y028125D03*
X029600Y030625D03*
X030100Y030125D03*
X032100Y032625D03*
X033600Y030625D03*
X033100Y030125D03*
X035850Y033625D03*
X040100Y029625D03*
X044350Y032125D03*
X044350Y034125D03*
X044350Y034625D03*
X044850Y038125D03*
X046600Y040125D03*
X046100Y040625D03*
X044850Y045375D03*
X044850Y045875D03*
X044350Y048125D03*
X044350Y050125D03*
X044350Y050625D03*
X044850Y054125D03*
X046100Y056125D03*
X046100Y056625D03*
X044850Y061375D03*
X044850Y061875D03*
X044350Y064125D03*
X044350Y066125D03*
X044350Y066625D03*
X044850Y070125D03*
X046100Y072125D03*
X046100Y072625D03*
X044850Y077375D03*
X044850Y077875D03*
X044350Y080125D03*
X044350Y082125D03*
X044350Y082625D03*
X044850Y086125D03*
X045850Y088125D03*
X045850Y088625D03*
X044850Y093375D03*
X044850Y093875D03*
X044350Y096125D03*
X044350Y098125D03*
X044350Y098625D03*
X044850Y102125D03*
X045600Y104125D03*
X045600Y104625D03*
X044850Y109375D03*
X044850Y109875D03*
X044350Y112125D03*
X044350Y114125D03*
X044350Y114625D03*
X044850Y118125D03*
X045350Y120125D03*
X045350Y120625D03*
X044850Y125375D03*
X044850Y125875D03*
X044350Y128125D03*
X044350Y130125D03*
X044350Y130625D03*
X044850Y132625D03*
X046350Y135375D03*
X045850Y135625D03*
X046850Y135125D03*
X047350Y134875D03*
X047850Y134625D03*
X048350Y134375D03*
X048850Y134125D03*
X049350Y133875D03*
X048850Y130625D03*
X048850Y130125D03*
X048850Y128125D03*
X048850Y125875D03*
X048850Y125375D03*
X048850Y123125D03*
X048850Y120625D03*
X051850Y118625D03*
X054600Y116125D03*
X054600Y115625D03*
X054600Y115125D03*
X054600Y114625D03*
X054600Y109625D03*
X055100Y107625D03*
X055100Y105125D03*
X054600Y100125D03*
X054600Y099625D03*
X054600Y099125D03*
X054600Y098625D03*
X054600Y093625D03*
X054600Y092125D03*
X055100Y089125D03*
X057600Y092125D03*
X060100Y093625D03*
X062100Y089125D03*
X061100Y084125D03*
X061100Y083625D03*
X061100Y083125D03*
X061100Y082625D03*
X060100Y078125D03*
X062100Y073125D03*
X061100Y068125D03*
X061100Y067625D03*
X061100Y067125D03*
X061100Y066625D03*
X060100Y061625D03*
X062100Y057125D03*
X061100Y052125D03*
X061100Y051625D03*
X061100Y051125D03*
X061100Y050625D03*
X060100Y045625D03*
X062100Y041125D03*
X061100Y036125D03*
X061100Y035625D03*
X061100Y035125D03*
X061100Y034625D03*
X059850Y029625D03*
X061850Y025125D03*
X060600Y020125D03*
X060600Y019625D03*
X060600Y019125D03*
X060600Y018625D03*
X059600Y013625D03*
X061350Y009125D03*
X055100Y009125D03*
X054600Y013625D03*
X054600Y018625D03*
X054600Y019125D03*
X054600Y019625D03*
X054600Y020125D03*
X055100Y025125D03*
X054600Y028125D03*
X054600Y029625D03*
X056100Y028125D03*
X054600Y034625D03*
X054600Y035125D03*
X054600Y035625D03*
X054600Y036125D03*
X055100Y041125D03*
X054600Y043875D03*
X054600Y045625D03*
X056350Y043875D03*
X054600Y050625D03*
X054600Y051125D03*
X054600Y051625D03*
X054600Y052125D03*
X055100Y057125D03*
X054600Y059625D03*
X054600Y061625D03*
X056600Y059625D03*
X054600Y066625D03*
X054600Y067125D03*
X054600Y067625D03*
X054600Y068125D03*
X055100Y073125D03*
X054600Y075875D03*
X054600Y078125D03*
X056850Y075875D03*
X054600Y082625D03*
X054600Y083125D03*
X054600Y083625D03*
X054600Y084125D03*
X051850Y086625D03*
X048850Y088625D03*
X048350Y091125D03*
X048850Y093375D03*
X048850Y093875D03*
X048850Y096125D03*
X048850Y098125D03*
X048850Y098625D03*
X051850Y102625D03*
X048850Y104625D03*
X048850Y107125D03*
X048850Y109375D03*
X048850Y109875D03*
X048850Y112125D03*
X048850Y114125D03*
X048850Y114625D03*
X054600Y123625D03*
X054600Y125625D03*
X055100Y121125D03*
X059100Y123625D03*
X060100Y125625D03*
X062100Y121125D03*
X061100Y116125D03*
X061100Y115625D03*
X061100Y115125D03*
X061100Y114625D03*
X060100Y109625D03*
X058600Y107625D03*
X062100Y105125D03*
X061100Y100125D03*
X061100Y099625D03*
X061100Y099125D03*
X061100Y098625D03*
X048850Y082625D03*
X048850Y082125D03*
X048850Y080125D03*
X048850Y077875D03*
X048850Y077375D03*
X048850Y075125D03*
X048850Y072625D03*
X051850Y070625D03*
X048850Y066625D03*
X048850Y066125D03*
X048850Y064125D03*
X048850Y061875D03*
X048850Y061375D03*
X048850Y059125D03*
X048850Y056625D03*
X051850Y054625D03*
X048850Y050625D03*
X048850Y050125D03*
X048850Y048125D03*
X048850Y045875D03*
X048850Y045375D03*
X048850Y043125D03*
X048850Y040625D03*
X051850Y038625D03*
X048850Y034625D03*
X048850Y034125D03*
X048850Y032125D03*
X048850Y029875D03*
X048850Y029375D03*
X048850Y027125D03*
X048850Y024625D03*
X046350Y024125D03*
X046100Y024625D03*
X044850Y022125D03*
X044350Y018625D03*
X044350Y018125D03*
X040100Y013625D03*
X035850Y017625D03*
X033600Y014625D03*
X033100Y014125D03*
X032100Y017125D03*
X030100Y014125D03*
X029600Y014625D03*
X026850Y012125D03*
X028600Y006875D03*
X024100Y034375D03*
X025600Y037125D03*
X025100Y038625D03*
X026850Y044125D03*
X029600Y046625D03*
X030100Y046125D03*
X032100Y048625D03*
X033100Y046125D03*
X033600Y046625D03*
X035850Y049625D03*
X040100Y045625D03*
X040100Y061625D03*
X035850Y065625D03*
X033350Y062625D03*
X032850Y062125D03*
X031850Y064625D03*
X030100Y062125D03*
X029600Y062625D03*
X026850Y060125D03*
X024850Y054625D03*
X025600Y053125D03*
X024100Y050375D03*
X020600Y049625D03*
X018350Y051125D03*
X016600Y051125D03*
X016600Y050375D03*
X016600Y049625D03*
X009100Y052625D03*
X006350Y052625D03*
X006350Y053125D03*
X006100Y054625D03*
X006350Y068625D03*
X006350Y069125D03*
X006100Y070625D03*
X009100Y068625D03*
X016350Y067125D03*
X016350Y066375D03*
X016350Y065625D03*
X018600Y067125D03*
X020600Y065625D03*
X024100Y066375D03*
X025600Y069125D03*
X024850Y070625D03*
X026850Y076125D03*
X029600Y078625D03*
X030100Y078125D03*
X031850Y080625D03*
X033350Y078625D03*
X032850Y078125D03*
X035850Y081625D03*
X040100Y077625D03*
X040100Y093625D03*
X035850Y097625D03*
X033350Y094625D03*
X032850Y094125D03*
X031850Y096625D03*
X030100Y094125D03*
X029600Y094625D03*
X026850Y092125D03*
X024850Y086625D03*
X025600Y085125D03*
X024100Y082375D03*
X020600Y081625D03*
X018850Y083125D03*
X016350Y083125D03*
X016350Y082375D03*
X016350Y081625D03*
X008850Y084625D03*
X006350Y084625D03*
X006350Y085125D03*
X006100Y086625D03*
X006600Y100625D03*
X006600Y101125D03*
X006100Y102625D03*
X009350Y100625D03*
X016350Y099125D03*
X016350Y098375D03*
X016350Y097625D03*
X019100Y099125D03*
X020600Y097625D03*
X024100Y098375D03*
X025600Y101125D03*
X024850Y102625D03*
X026850Y108125D03*
X028100Y111875D03*
X029350Y110625D03*
X029350Y110125D03*
X031350Y111875D03*
X031850Y112625D03*
X033350Y110625D03*
X032850Y110125D03*
X035850Y113625D03*
X040100Y109625D03*
X040100Y125625D03*
X037100Y133375D03*
X036600Y133625D03*
X036100Y133875D03*
X035600Y134125D03*
X035100Y134375D03*
X034600Y134625D03*
X034100Y134875D03*
X033600Y135125D03*
X035850Y129625D03*
X033600Y128125D03*
X033600Y127375D03*
X032850Y126875D03*
X031850Y128625D03*
X028350Y126875D03*
X028100Y127375D03*
X026850Y124125D03*
X024850Y118625D03*
X025600Y117125D03*
X024100Y114375D03*
X020600Y113625D03*
X019350Y115125D03*
X016350Y115125D03*
X016350Y114375D03*
X016350Y113625D03*
X008850Y116625D03*
X006350Y116625D03*
X006350Y117125D03*
X006100Y118625D03*
X012850Y133125D03*
X015100Y133875D03*
X016350Y132625D03*
X016850Y131625D03*
X016850Y129625D03*
X015600Y130125D03*
X019600Y131125D03*
X020600Y129625D03*
X024100Y130125D03*
X025600Y132625D03*
X027100Y136375D03*
X026600Y136625D03*
X026100Y136875D03*
X025600Y137125D03*
X025100Y137375D03*
X024600Y137625D03*
X027600Y136125D03*
X028100Y135875D03*
X027850Y132375D03*
X054600Y131125D03*
X054600Y130625D03*
X055350Y134375D03*
X055850Y134625D03*
X056350Y134875D03*
X056850Y135125D03*
X057350Y135375D03*
X057850Y135625D03*
X058350Y135875D03*
X058850Y136125D03*
X061600Y130625D03*
X062100Y131125D03*
X018100Y035125D03*
X016850Y035125D03*
X016850Y034375D03*
X016850Y033625D03*
X020600Y033625D03*
X009350Y036625D03*
X006600Y036625D03*
X006600Y037125D03*
X006100Y038625D03*
X044850Y029875D03*
X044850Y029375D03*
X048850Y018625D03*
X048850Y018125D03*
X051850Y022625D03*
D18*
X054100Y016625D02*
X054600Y016625D01*
X054100Y016625D02*
X052880Y015375D01*
X052600Y011375D02*
X051850Y010625D01*
X050850Y010625D01*
X050350Y011125D01*
X052600Y011375D02*
X055350Y011375D01*
X055600Y011125D01*
X055600Y005125D01*
X056100Y004625D02*
X056100Y005875D01*
X055850Y006125D01*
X055850Y027875D01*
X056100Y028125D01*
X055850Y028375D01*
X055850Y134625D01*
X056350Y134375D02*
X056350Y134875D01*
X056350Y134375D02*
X056100Y134125D01*
X056100Y044125D01*
X056350Y043875D01*
X056100Y043625D01*
X056100Y028875D01*
X056600Y028375D01*
X056600Y027875D01*
X056100Y027375D01*
X056100Y006375D01*
X056600Y005875D01*
X056600Y005125D01*
X057100Y004625D02*
X057100Y005875D01*
X056350Y006625D01*
X056350Y027125D01*
X056850Y027625D01*
X056850Y028625D01*
X056350Y029125D01*
X056350Y043125D01*
X056850Y043625D01*
X056850Y044125D01*
X056350Y044625D01*
X056350Y059375D01*
X056600Y059625D01*
X056350Y059875D01*
X056350Y133875D01*
X056850Y134375D01*
X056850Y135125D01*
X057350Y135375D02*
X057350Y134375D01*
X056600Y133625D01*
X056600Y076125D01*
X056850Y075875D01*
X056600Y075625D01*
X056600Y060375D01*
X057100Y059875D01*
X057100Y059375D01*
X056600Y058875D01*
X056600Y044875D01*
X057100Y044375D01*
X057100Y043375D01*
X056600Y042875D01*
X056600Y029375D01*
X057100Y028875D01*
X057100Y027375D01*
X056600Y026875D01*
X056600Y006875D01*
X057600Y005875D01*
X057600Y005125D01*
X057100Y004625D02*
X057600Y004125D01*
X058100Y004625D02*
X058100Y005875D01*
X057600Y006375D01*
X057600Y092125D01*
X057600Y134125D01*
X057850Y134375D01*
X057850Y135625D01*
X058350Y135875D02*
X058350Y133875D01*
X058600Y133625D01*
X058600Y107625D01*
X058600Y005125D01*
X059100Y004625D02*
X059100Y123625D01*
X059100Y133625D01*
X058850Y133875D01*
X058850Y136125D01*
X055600Y135375D02*
X055100Y134875D01*
X050350Y134875D01*
X049350Y133875D01*
X047350Y131875D01*
X047350Y017125D01*
X046850Y016625D01*
X043850Y016625D01*
X042350Y015125D01*
X041100Y015125D01*
X040600Y014625D01*
X039850Y014625D01*
X039850Y030625D02*
X040600Y030625D01*
X041100Y031125D01*
X042600Y031125D01*
X043850Y032625D01*
X046600Y032625D01*
X047100Y033125D01*
X047100Y132375D01*
X048850Y134125D01*
X049850Y135125D01*
X054600Y135125D01*
X055100Y135625D01*
X055100Y139125D01*
X054600Y139625D01*
X054100Y139125D02*
X054100Y136125D01*
X053600Y135625D01*
X048850Y135625D01*
X047850Y134625D01*
X046600Y133375D01*
X046600Y065375D01*
X046100Y064875D01*
X043850Y064875D01*
X042100Y063125D01*
X041350Y063125D01*
X040850Y062625D01*
X039850Y062625D01*
X043600Y048625D02*
X046350Y048625D01*
X046850Y049125D01*
X046850Y132875D01*
X048350Y134375D01*
X049350Y135375D01*
X054100Y135375D01*
X054600Y135875D01*
X054600Y138625D01*
X054100Y139125D02*
X053600Y139625D01*
X053100Y139125D02*
X053100Y136625D01*
X052600Y136125D01*
X047850Y136125D01*
X046850Y135125D01*
X046100Y134375D01*
X046100Y097125D01*
X045600Y096625D01*
X043850Y096625D01*
X042350Y095125D01*
X041350Y095125D01*
X040850Y094625D01*
X039850Y094625D01*
X039100Y094125D02*
X038850Y094375D01*
X043850Y080625D02*
X045850Y080625D01*
X046350Y081125D01*
X046350Y133875D01*
X047350Y134875D01*
X048350Y135875D01*
X053100Y135875D01*
X053600Y136375D01*
X053600Y138625D01*
X053100Y139125D02*
X052600Y139625D01*
X052100Y139125D02*
X052100Y137125D01*
X051600Y136625D01*
X046850Y136625D01*
X045850Y135625D01*
X045600Y135375D01*
X045600Y129125D01*
X045100Y128625D01*
X043850Y128625D01*
X042350Y127125D01*
X041350Y127125D01*
X040850Y126625D01*
X039850Y126625D01*
X037100Y133375D02*
X037100Y138625D01*
X036600Y139125D02*
X036100Y139625D01*
X035600Y139125D02*
X035100Y139625D01*
X034600Y139125D02*
X034100Y139625D01*
X033600Y139125D02*
X033100Y139625D01*
X032600Y139125D02*
X032100Y139625D01*
X031600Y139125D02*
X031600Y134125D01*
X031100Y133625D01*
X019600Y133625D01*
X018600Y132625D01*
X018600Y116125D01*
X018350Y115875D01*
X018350Y100125D01*
X018100Y099875D01*
X018100Y084125D01*
X017850Y083875D01*
X017850Y068125D01*
X017600Y067875D01*
X017600Y052125D01*
X016600Y051125D01*
X012350Y051125D01*
X017600Y051625D02*
X017850Y051875D01*
X017850Y067625D01*
X018100Y067875D01*
X018100Y083625D01*
X018350Y083875D01*
X018350Y099625D01*
X018600Y099875D01*
X018600Y115625D01*
X018850Y115875D01*
X018850Y132375D01*
X019850Y133375D01*
X031600Y133375D01*
X032100Y133875D01*
X032100Y138625D01*
X032600Y139125D02*
X032600Y133625D01*
X032100Y133125D01*
X020100Y133125D01*
X019100Y132125D01*
X019100Y115625D01*
X018850Y115375D01*
X018850Y099625D01*
X018600Y099375D01*
X018600Y083625D01*
X018350Y083375D01*
X018350Y067625D01*
X018100Y067375D01*
X018100Y051625D01*
X017850Y051375D01*
X017850Y035625D01*
X017600Y035375D01*
X017600Y019125D01*
X012600Y019125D01*
X017600Y019125D02*
X017600Y006375D01*
X018100Y005875D01*
X024100Y005875D01*
X024350Y005625D01*
X024350Y005125D01*
X024850Y004625D02*
X024850Y005875D01*
X024600Y006125D01*
X018350Y006125D01*
X017850Y006625D01*
X017850Y034875D01*
X018100Y035125D01*
X018600Y035375D02*
X018100Y035875D01*
X018100Y050875D01*
X018350Y051125D01*
X018850Y050875D02*
X018350Y050375D01*
X018350Y036125D01*
X018850Y035625D01*
X018850Y034625D01*
X018350Y034125D01*
X018350Y007125D01*
X018850Y006625D01*
X025600Y006625D01*
X025850Y006375D01*
X025850Y004625D01*
X026350Y004125D01*
X026850Y004625D02*
X026850Y006875D01*
X026600Y007125D01*
X019350Y007125D01*
X018850Y007625D01*
X018850Y033625D01*
X019350Y034125D01*
X019350Y036125D01*
X018850Y036625D01*
X018850Y049875D01*
X019350Y050375D01*
X019350Y051875D01*
X018850Y052375D01*
X018850Y066125D01*
X019350Y066625D01*
X019350Y067625D01*
X018850Y068125D01*
X018850Y082125D01*
X019350Y082625D01*
X019350Y083375D01*
X018850Y083875D01*
X018850Y098875D01*
X019100Y099125D01*
X019600Y099375D02*
X019100Y099875D01*
X019100Y114875D01*
X019350Y115125D01*
X019850Y115375D02*
X019350Y115875D01*
X019350Y130875D01*
X019600Y131125D01*
X018350Y132875D02*
X019350Y133875D01*
X030600Y133875D01*
X031100Y134375D01*
X031100Y138625D01*
X030600Y139125D02*
X030100Y139625D01*
X029600Y139125D02*
X029600Y135125D01*
X029100Y134625D01*
X018600Y134625D01*
X017600Y133625D01*
X017600Y117125D01*
X016350Y115875D01*
X016350Y115125D01*
X012350Y115125D01*
X017600Y116625D02*
X017850Y116875D01*
X017850Y133375D01*
X018850Y134375D01*
X029600Y134375D01*
X030100Y134875D01*
X030100Y138625D01*
X030600Y139125D02*
X030600Y134625D01*
X030100Y134125D01*
X019100Y134125D01*
X018100Y133125D01*
X018100Y116625D01*
X017850Y116375D01*
X017850Y100625D01*
X017600Y100375D01*
X017600Y084625D01*
X016350Y083375D01*
X016350Y083125D01*
X012350Y083125D01*
X017600Y084125D02*
X017850Y084375D01*
X017850Y100125D01*
X018100Y100375D01*
X018100Y116125D01*
X018350Y116375D01*
X018350Y132875D01*
X016850Y133375D02*
X018350Y134875D01*
X028600Y134875D01*
X029100Y135375D01*
X029100Y138625D01*
X029600Y139125D02*
X029100Y139625D01*
X028100Y138625D02*
X028100Y135875D01*
X027600Y136125D02*
X027600Y139125D01*
X027100Y139625D01*
X026600Y139125D02*
X026100Y139625D01*
X025600Y139125D02*
X025100Y139625D01*
X024600Y139125D02*
X024600Y137625D01*
X025100Y137375D02*
X025100Y138625D01*
X025600Y139125D02*
X025600Y137125D01*
X026100Y136875D02*
X026100Y138625D01*
X026600Y139125D02*
X026600Y136625D01*
X027100Y136375D02*
X027100Y138625D01*
X024600Y139125D02*
X024100Y139625D01*
X031100Y139625D02*
X031600Y139125D01*
X033600Y139125D02*
X033600Y135125D01*
X034100Y134875D02*
X034100Y138625D01*
X034600Y139125D02*
X034600Y134625D01*
X035100Y134375D02*
X035100Y138625D01*
X035600Y139125D02*
X035600Y134125D01*
X036100Y133875D02*
X036100Y138625D01*
X036600Y139125D02*
X036600Y133625D01*
X045850Y134875D02*
X046350Y135375D01*
X047350Y136375D01*
X052100Y136375D01*
X052600Y136875D01*
X052600Y138625D01*
X052100Y139125D02*
X051600Y139625D01*
X055600Y138625D02*
X055600Y135375D01*
X055350Y134375D02*
X055600Y134125D01*
X055600Y011625D01*
X055350Y011375D01*
X056100Y004625D02*
X056600Y004125D01*
X058100Y004625D02*
X058600Y004125D01*
X059100Y004625D02*
X059600Y004125D01*
X062350Y014125D02*
X062600Y014125D01*
X042100Y047125D02*
X043600Y048625D01*
X042100Y047125D02*
X041100Y047125D01*
X040600Y046625D01*
X039850Y046625D01*
X040350Y047875D02*
X040100Y048125D01*
X026100Y061625D02*
X025600Y061625D01*
X019850Y066125D02*
X019850Y068125D01*
X019350Y068625D01*
X019350Y081625D01*
X019850Y082125D01*
X019850Y083875D01*
X019350Y084375D01*
X019350Y097875D01*
X019850Y098375D01*
X019850Y099625D01*
X019350Y100125D01*
X019350Y114375D01*
X019850Y114875D01*
X019850Y115375D01*
X017600Y116625D02*
X017600Y100875D01*
X016350Y099625D01*
X016350Y099125D01*
X012600Y099125D01*
X010850Y099125D01*
X010600Y095875D02*
X011100Y095375D01*
X011100Y094625D01*
X017600Y084125D02*
X017600Y068375D01*
X016350Y067125D01*
X012350Y067125D01*
X018350Y066875D02*
X018600Y067125D01*
X018350Y066875D02*
X018350Y051875D01*
X018850Y051375D01*
X018850Y050875D01*
X019100Y050625D02*
X019100Y051625D01*
X018600Y052125D01*
X018600Y066375D01*
X019100Y066875D01*
X019100Y067375D01*
X018600Y067875D01*
X018600Y082875D01*
X018850Y083125D01*
X019600Y083625D02*
X019100Y084125D01*
X019100Y098125D01*
X019600Y098625D01*
X019600Y099375D01*
X019600Y083625D02*
X019600Y082375D01*
X019100Y081875D01*
X019100Y068375D01*
X019600Y067875D01*
X019600Y066375D01*
X019100Y065875D01*
X019100Y052625D01*
X019600Y052125D01*
X019600Y050125D01*
X019100Y049625D01*
X019100Y036875D01*
X019600Y036375D01*
X019600Y033875D01*
X019100Y033375D01*
X019100Y007875D01*
X019600Y007375D01*
X027100Y007375D01*
X027350Y007125D01*
X027350Y005125D01*
X027850Y004625D02*
X027850Y007375D01*
X027600Y007625D01*
X019850Y007625D01*
X019350Y008125D01*
X019350Y033125D01*
X019850Y033625D01*
X019850Y036625D01*
X019350Y037125D01*
X019350Y049375D01*
X019850Y049875D01*
X019850Y052375D01*
X019350Y052875D01*
X019350Y065625D01*
X019850Y066125D01*
X024350Y078875D02*
X024100Y079125D01*
X017600Y051625D02*
X017600Y035875D01*
X016850Y035125D01*
X012600Y035125D01*
X018100Y034375D02*
X018600Y034875D01*
X018600Y035375D01*
X019100Y035875D02*
X018600Y036375D01*
X018600Y050125D01*
X019100Y050625D01*
X019100Y035875D02*
X019100Y034375D01*
X018600Y033875D01*
X018600Y007375D01*
X019100Y006875D01*
X026100Y006875D01*
X026350Y006625D01*
X026350Y005125D01*
X026850Y004625D02*
X027350Y004125D01*
X027850Y004625D02*
X028350Y004125D01*
X025350Y004125D02*
X024850Y004625D01*
X025350Y005125D02*
X025350Y006125D01*
X025100Y006375D01*
X018600Y006375D01*
X018100Y006875D01*
X018100Y034375D01*
X039850Y078625D02*
X040600Y078625D01*
X041100Y079125D01*
X042600Y079125D01*
X043850Y080625D01*
X040850Y110625D02*
X039850Y110625D01*
X040850Y110625D02*
X041350Y111125D01*
X042350Y111125D01*
X043850Y112625D01*
X045350Y112625D01*
X045850Y113125D01*
X045850Y134875D01*
X062600Y077125D02*
X062850Y077125D01*
X016350Y131125D02*
X016850Y131625D01*
X016850Y133375D01*
X016350Y131125D02*
X012600Y131125D01*
X001350Y125875D02*
X001350Y124375D01*
M02*
