%
M48
M72
T01C0.0197
T02C0.0276
T03C0.0315
T04C0.0433
T05C0.0472
T06C0.0512
T07C0.1160
T08C0.1260
%
T01
X7850Y7375
X6600Y20625
X6600Y21125
X6100Y22625
X9350Y20625
X16850Y18125
X16850Y17625
X20600Y17625
X24100Y18125
X25600Y21125
X25100Y22625
X26850Y28125
X29600Y30625
X30100Y30125
X32100Y32625
X33600Y30625
X33100Y30125
X35850Y33625
X40100Y29625
X44350Y32125
X44350Y34125
X44350Y34625
X44850Y38125
X46600Y40125
X46100Y40625
X44850Y45375
X44850Y45875
X44350Y48125
X44350Y50125
X44350Y50625
X44850Y54125
X46100Y56125
X46100Y56625
X44850Y61375
X44850Y61875
X44350Y64125
X44350Y66125
X44350Y66625
X44850Y70125
X46100Y72125
X46100Y72625
X44850Y77375
X44850Y77875
X44350Y80125
X44350Y82125
X44350Y82625
X44850Y86125
X45850Y88125
X45850Y88625
X44850Y93375
X44850Y93875
X44350Y96125
X44350Y98125
X44350Y98625
X44850Y102125
X45600Y104125
X45600Y104625
X44850Y109375
X44850Y109875
X44350Y112125
X44350Y114125
X44350Y114625
X44850Y118125
X45350Y120125
X45350Y120625
X44850Y125375
X44850Y125875
X44350Y128125
X44350Y130125
X44350Y130625
X44850Y132625
X46350Y135375
X45850Y135625
X46850Y135125
X47350Y134875
X47850Y134625
X48350Y134375
X48850Y134125
X49350Y133875
X48850Y130625
X48850Y130125
X48850Y128125
X48850Y125875
X48850Y125375
X48850Y123125
X48850Y120625
X51850Y118625
X54600Y116125
X54600Y115625
X54600Y115125
X54600Y114625
X54600Y109625
X55100Y107625
X55100Y105125
X54600Y100125
X54600Y99625
X54600Y99125
X54600Y98625
X54600Y93625
X54600Y92125
X55100Y89125
X57600Y92125
X60100Y93625
X62100Y89125
X61100Y84125
X61100Y83625
X61100Y83125
X61100Y82625
X60100Y78125
X62100Y73125
X61100Y68125
X61100Y67625
X61100Y67125
X61100Y66625
X60100Y61625
X62100Y57125
X61100Y52125
X61100Y51625
X61100Y51125
X61100Y50625
X60100Y45625
X62100Y41125
X61100Y36125
X61100Y35625
X61100Y35125
X61100Y34625
X59850Y29625
X61850Y25125
X60600Y20125
X60600Y19625
X60600Y19125
X60600Y18625
X59600Y13625
X61350Y9125
X55100Y9125
X54600Y13625
X54600Y18625
X54600Y19125
X54600Y19625
X54600Y20125
X55100Y25125
X54600Y28125
X54600Y29625
X56100Y28125
X54600Y34625
X54600Y35125
X54600Y35625
X54600Y36125
X55100Y41125
X54600Y43875
X54600Y45625
X56350Y43875
X54600Y50625
X54600Y51125
X54600Y51625
X54600Y52125
X55100Y57125
X54600Y59625
X54600Y61625
X56600Y59625
X54600Y66625
X54600Y67125
X54600Y67625
X54600Y68125
X55100Y73125
X54600Y75875
X54600Y78125
X56850Y75875
X54600Y82625
X54600Y83125
X54600Y83625
X54600Y84125
X51850Y86625
X48850Y88625
X48350Y91125
X48850Y93375
X48850Y93875
X48850Y96125
X48850Y98125
X48850Y98625
X51850Y102625
X48850Y104625
X48850Y107125
X48850Y109375
X48850Y109875
X48850Y112125
X48850Y114125
X48850Y114625
X54600Y123625
X54600Y125625
X55100Y121125
X59100Y123625
X60100Y125625
X62100Y121125
X61100Y116125
X61100Y115625
X61100Y115125
X61100Y114625
X60100Y109625
X58600Y107625
X62100Y105125
X61100Y100125
X61100Y99625
X61100Y99125
X61100Y98625
X48850Y82625
X48850Y82125
X48850Y80125
X48850Y77875
X48850Y77375
X48850Y75125
X48850Y72625
X51850Y70625
X48850Y66625
X48850Y66125
X48850Y64125
X48850Y61875
X48850Y61375
X48850Y59125
X48850Y56625
X51850Y54625
X48850Y50625
X48850Y50125
X48850Y48125
X48850Y45875
X48850Y45375
X48850Y43125
X48850Y40625
X51850Y38625
X48850Y34625
X48850Y34125
X48850Y32125
X48850Y29875
X48850Y29375
X48850Y27125
X48850Y24625
X46350Y24125
X46100Y24625
X44850Y22125
X44350Y18625
X44350Y18125
X40100Y13625
X35850Y17625
X33600Y14625
X33100Y14125
X32100Y17125
X30100Y14125
X29600Y14625
X26850Y12125
X28600Y6875
X24100Y34375
X25600Y37125
X25100Y38625
X26850Y44125
X29600Y46625
X30100Y46125
X32100Y48625
X33100Y46125
X33600Y46625
X35850Y49625
X40100Y45625
X40100Y61625
X35850Y65625
X33350Y62625
X32850Y62125
X31850Y64625
X30100Y62125
X29600Y62625
X26850Y60125
X24850Y54625
X25600Y53125
X24100Y50375
X20600Y49625
X18350Y51125
X16600Y51125
X16600Y50375
X16600Y49625
X9100Y52625
X6350Y52625
X6350Y53125
X6100Y54625
X6350Y68625
X6350Y69125
X6100Y70625
X9100Y68625
X16350Y67125
X16350Y66375
X16350Y65625
X18600Y67125
X20600Y65625
X24100Y66375
X25600Y69125
X24850Y70625
X26850Y76125
X29600Y78625
X30100Y78125
X31850Y80625
X33350Y78625
X32850Y78125
X35850Y81625
X40100Y77625
X40100Y93625
X35850Y97625
X33350Y94625
X32850Y94125
X31850Y96625
X30100Y94125
X29600Y94625
X26850Y92125
X24850Y86625
X25600Y85125
X24100Y82375
X20600Y81625
X18850Y83125
X16350Y83125
X16350Y82375
X16350Y81625
X8850Y84625
X6350Y84625
X6350Y85125
X6100Y86625
X6600Y100625
X6600Y101125
X6100Y102625
X9350Y100625
X16350Y99125
X16350Y98375
X16350Y97625
X19100Y99125
X20600Y97625
X24100Y98375
X25600Y101125
X24850Y102625
X26850Y108125
X28100Y111875
X29350Y110625
X29350Y110125
X31350Y111875
X31850Y112625
X33350Y110625
X32850Y110125
X35850Y113625
X40100Y109625
X40100Y125625
X37100Y133375
X36600Y133625
X36100Y133875
X35600Y134125
X35100Y134375
X34600Y134625
X34100Y134875
X33600Y135125
X35850Y129625
X33600Y128125
X33600Y127375
X32850Y126875
X31850Y128625
X28350Y126875
X28100Y127375
X26850Y124125
X24850Y118625
X25600Y117125
X24100Y114375
X20600Y113625
X19350Y115125
X16350Y115125
X16350Y114375
X16350Y113625
X8850Y116625
X6350Y116625
X6350Y117125
X6100Y118625
X12850Y133125
X15100Y133875
X16350Y132625
X16850Y131625
X16850Y129625
X15600Y130125
X19600Y131125
X20600Y129625
X24100Y130125
X25600Y132625
X27100Y136375
X26600Y136625
X26100Y136875
X25600Y137125
X25100Y137375
X24600Y137625
X27600Y136125
X28100Y135875
X27850Y132375
X54600Y131125
X54600Y130625
X55350Y134375
X55850Y134625
X56350Y134875
X56850Y135125
X57350Y135375
X57850Y135625
X58350Y135875
X58850Y136125
X61600Y130625
X62100Y131125
X18100Y35125
X16850Y35125
X16850Y34375
X16850Y33625
X20600Y33625
X9350Y36625
X6600Y36625
X6600Y37125
X6100Y38625
X44850Y29875
X44850Y29375
X48850Y18625
X48850Y18125
X51850Y22625
T02
X50350Y25125
X49850Y25625
X49850Y24625
X49850Y26625
X50350Y27125
X49850Y27625
X49850Y31625
X50350Y32125
X49850Y32625
X49850Y33625
X50350Y34125
X49850Y34625
X52350Y33125
X52850Y33625
X52850Y32625
X52850Y26625
X52350Y26125
X52850Y25625
X49850Y18625
X50350Y18125
X49850Y17625
X49850Y16625
X50350Y16125
X49850Y15625
X49850Y11625
X50350Y11125
X49850Y10625
X49850Y9625
X50350Y9125
X49850Y8625
X52350Y10125
X52850Y10625
X52850Y9625
X52850Y16625
X52350Y17125
X52850Y17625
X60600Y15625
X61100Y15125
X61600Y15625
X61350Y14125
X60850Y13625
X61350Y13125
X61100Y12125
X60600Y11625
X61600Y11625
X67100Y14875
X67600Y15375
X68100Y14875
X61600Y27625
X61100Y28125
X60600Y27625
X60850Y29625
X61350Y29125
X61350Y30125
X61100Y31125
X60600Y31625
X61600Y31625
X61850Y43625
X61350Y44125
X60850Y43625
X61600Y45125
X61100Y45625
X61600Y46125
X61350Y47125
X60850Y47625
X61850Y47625
X61850Y59625
X61350Y60125
X60850Y59625
X61600Y61125
X61100Y61625
X61600Y62125
X61350Y63125
X60850Y63625
X61850Y63625
X61850Y75625
X61350Y76125
X60850Y75625
X61600Y77125
X61100Y77625
X61600Y78125
X61350Y79125
X61850Y79625
X60850Y79625
X60850Y91625
X61350Y92125
X61850Y91625
X61600Y93125
X61100Y93625
X61600Y94125
X61350Y95125
X61850Y95625
X60850Y95625
X60850Y107625
X61350Y108125
X61850Y107625
X61600Y109125
X61100Y109625
X61600Y110125
X61350Y111125
X61850Y111625
X60850Y111625
X60850Y123625
X61350Y124125
X61850Y123625
X61600Y125125
X61100Y125625
X61600Y126125
X61350Y127125
X61850Y127625
X60850Y127625
X52850Y128625
X52350Y129125
X52850Y129625
X50350Y130125
X49850Y130625
X49850Y129625
X49850Y128625
X50350Y128125
X49850Y127625
X49850Y123625
X50350Y123125
X49850Y122625
X49850Y121625
X50350Y121125
X49850Y120625
X52350Y122125
X52850Y121625
X52850Y122625
X49850Y114625
X50350Y114125
X49850Y113625
X49850Y112625
X50350Y112125
X49850Y111625
X49850Y107625
X50350Y107125
X49850Y106625
X49850Y105625
X50350Y105125
X49850Y104625
X52350Y106125
X52850Y105625
X52850Y106625
X52850Y112625
X52350Y113125
X52850Y113625
X49850Y98625
X50350Y98125
X49850Y97625
X49850Y96625
X50350Y96125
X49850Y95625
X49850Y91625
X50350Y91125
X49850Y90625
X49850Y89625
X50350Y89125
X49850Y88625
X52350Y90125
X52850Y89625
X52850Y90625
X52850Y96625
X52350Y97125
X52850Y97625
X49850Y82625
X50350Y82125
X49850Y81625
X49850Y80625
X50350Y80125
X49850Y79625
X49850Y75625
X50350Y75125
X49850Y74625
X49850Y73625
X50350Y73125
X49850Y72625
X52350Y74125
X52850Y73625
X52850Y74625
X52850Y80625
X52350Y81125
X52850Y81625
X49850Y66625
X50350Y66125
X49850Y65625
X49850Y64625
X50350Y64125
X49850Y63625
X49850Y59625
X50350Y59125
X49850Y58625
X49850Y57625
X50350Y57125
X49850Y56625
X52350Y58125
X52850Y57625
X52850Y58625
X52850Y64625
X52350Y65125
X52850Y65625
X49850Y50625
X50350Y50125
X49850Y49625
X49850Y48625
X50350Y48125
X49850Y47625
X49850Y43625
X50350Y43125
X49850Y42625
X49850Y41625
X50350Y41125
X49850Y40625
X52350Y42125
X52850Y42625
X52850Y41625
X52850Y48625
X52350Y49125
X52850Y49625
X40350Y47125
X39850Y46625
X39850Y47625
X39350Y48875
X38850Y49375
X38350Y48875
X37350Y49125
X36850Y48625
X36350Y49125
X36850Y45625
X36350Y45125
X37350Y45125
X38350Y45375
X38850Y44875
X39350Y45375
X38850Y33375
X38350Y32875
X39350Y32875
X39850Y31625
X40350Y31125
X39850Y30625
X39350Y29375
X38850Y28875
X38350Y29375
X37350Y29125
X36850Y29625
X36350Y29125
X36850Y32625
X36350Y33125
X37350Y33125
X38850Y17375
X38350Y16875
X39350Y16875
X39850Y15625
X40350Y15125
X39850Y14625
X39350Y13375
X38850Y12875
X38350Y13375
X37350Y13125
X36850Y13625
X36350Y13125
X36850Y16625
X36350Y17125
X37350Y17125
X27100Y13625
X26600Y14125
X26600Y13125
X26100Y11875
X25600Y11375
X25100Y11875
X24100Y11625
X23600Y12125
X23100Y11625
X23600Y15125
X23100Y15625
X24100Y15625
X25100Y15375
X25600Y15875
X26100Y15375
X25600Y27375
X25100Y27875
X26100Y27875
X26600Y29125
X27100Y29625
X26600Y30125
X26100Y31375
X25600Y31875
X25100Y31375
X24100Y31625
X23600Y31125
X23100Y31625
X23600Y28125
X23100Y27625
X24100Y27625
X25600Y43375
X25100Y43875
X26100Y43875
X26600Y45125
X27100Y45625
X26600Y46125
X26100Y47375
X25600Y47875
X25100Y47375
X24100Y47625
X23600Y47125
X23100Y47625
X23600Y44125
X23100Y43625
X24100Y43625
X25600Y59375
X25100Y59875
X26100Y59875
X26600Y61125
X27100Y61625
X26600Y62125
X26100Y63375
X25600Y63875
X25100Y63375
X24100Y63625
X23600Y63125
X23100Y63625
X23600Y60125
X23100Y59625
X24100Y59625
X25600Y75375
X25100Y75875
X26100Y75875
X26600Y77125
X27100Y77625
X26600Y78125
X26100Y79375
X25600Y79875
X25100Y79375
X24100Y79625
X23600Y79125
X23100Y79625
X23600Y76125
X23100Y75625
X24100Y75625
X25600Y91375
X25100Y91875
X26100Y91875
X26600Y93125
X27100Y93625
X26600Y94125
X26100Y95375
X25600Y95875
X25100Y95375
X24100Y95625
X23600Y95125
X23100Y95625
X23600Y92125
X23100Y91625
X24100Y91625
X25600Y107375
X25100Y107875
X26100Y107875
X26600Y109125
X27100Y109625
X26600Y110125
X26100Y111375
X25600Y111875
X25100Y111375
X24100Y111625
X23600Y111125
X23100Y111625
X23600Y108125
X23100Y107625
X24100Y107625
X25600Y123375
X25100Y123875
X26100Y123875
X26600Y125125
X27100Y125625
X26600Y126125
X26100Y127375
X25600Y127875
X25100Y127375
X24100Y127625
X23600Y127125
X23100Y127625
X23600Y124125
X23100Y123625
X24100Y123625
X14100Y128625
X13600Y129125
X13600Y128125
X13100Y126625
X12600Y126125
X12100Y126625
X11100Y126625
X10600Y127125
X10100Y126625
X10600Y130125
X11100Y130625
X10100Y130625
X12100Y130625
X12600Y131125
X13100Y130625
X8850Y134125
X8350Y134625
X7850Y134125
X7850Y135625
X8350Y136125
X8850Y135625
X3850Y129875
X3350Y130375
X3350Y129375
X2100Y129875
X1600Y130375
X1600Y129375
X1600Y114375
X2100Y113875
X1600Y113375
X3350Y113375
X3850Y113875
X3350Y114375
X9850Y114625
X10350Y114125
X10850Y114625
X11850Y114625
X12350Y115125
X12850Y114625
X13600Y113125
X14100Y112625
X13600Y112125
X12850Y110625
X12350Y110125
X11850Y110625
X10850Y110625
X10350Y111125
X9850Y110625
X12600Y99125
X13100Y98625
X12100Y98625
X11100Y98625
X10600Y98125
X10100Y98625
X10600Y95125
X10100Y94625
X11100Y94625
X12100Y94625
X12600Y94125
X13100Y94625
X13600Y96125
X14100Y96625
X13600Y97125
X12350Y83125
X11850Y82625
X12850Y82625
X13350Y81125
X13850Y80625
X13350Y80125
X12850Y78625
X12350Y78125
X11850Y78625
X10850Y78625
X10350Y79125
X9850Y78625
X10350Y82125
X9850Y82625
X10850Y82625
X3850Y82125
X3350Y81625
X3350Y82625
X2100Y82125
X1600Y81625
X1600Y82625
X1600Y97625
X2100Y98125
X1600Y98625
X3350Y98625
X3850Y98125
X3350Y97625
X3350Y66625
X3850Y66125
X3350Y65625
X2100Y66125
X1600Y65625
X1600Y66625
X1600Y50625
X2100Y50125
X1600Y49625
X3350Y49625
X3850Y50125
X3350Y50625
X9850Y50625
X10350Y50125
X10850Y50625
X11850Y50625
X12350Y51125
X12850Y50625
X13350Y49125
X13850Y48625
X13350Y48125
X12850Y46625
X12350Y46125
X11850Y46625
X10850Y46625
X10350Y47125
X9850Y46625
X12600Y35125
X13100Y34625
X12100Y34625
X11100Y34625
X10600Y34125
X10100Y34625
X10600Y31125
X11100Y30625
X10100Y30625
X12100Y30625
X12600Y30125
X13100Y30625
X13600Y32125
X14100Y32625
X13600Y33125
X12600Y19125
X12100Y18625
X13100Y18625
X13600Y17125
X14100Y16625
X13600Y16125
X13100Y14625
X12600Y14125
X12100Y14625
X11100Y14625
X10600Y15125
X10100Y14625
X10600Y18125
X11100Y18625
X10100Y18625
X3850Y18125
X3350Y18625
X3350Y17625
X2100Y18125
X1600Y18625
X1600Y17625
X1600Y33875
X2100Y34375
X1600Y34875
X3350Y34875
X3850Y34375
X3350Y33875
X9850Y62625
X10350Y63125
X10850Y62625
X11850Y62625
X12350Y62125
X12850Y62625
X13350Y64125
X13850Y64625
X13350Y65125
X12850Y66625
X12350Y67125
X11850Y66625
X10850Y66625
X10350Y66125
X9850Y66625
X36350Y65125
X36850Y64625
X37350Y65125
X38350Y64875
X38850Y65375
X39350Y64875
X39850Y63625
X40350Y63125
X39850Y62625
X39350Y61375
X38850Y60875
X38350Y61375
X37350Y61125
X36850Y61625
X36350Y61125
X38850Y76875
X38350Y77375
X39350Y77375
X39850Y78625
X40350Y79125
X39850Y79625
X39350Y80875
X38850Y81375
X38350Y80875
X37350Y81125
X36850Y80625
X36350Y81125
X36850Y77625
X36350Y77125
X37350Y77125
X38850Y92875
X38350Y93375
X39350Y93375
X39850Y94625
X40350Y95125
X39850Y95625
X39350Y96875
X38850Y97375
X38350Y96875
X37350Y97125
X36850Y96625
X36350Y97125
X36850Y93625
X36350Y93125
X37350Y93125
X38850Y108875
X38350Y109375
X39350Y109375
X39850Y110625
X40350Y111125
X39850Y111625
X39350Y112875
X38850Y113375
X38350Y112875
X37350Y113125
X36850Y112625
X36350Y113125
X36850Y109625
X36350Y109125
X37350Y109125
X38850Y124875
X38350Y125375
X39350Y125375
X39850Y126625
X40350Y127125
X39850Y127625
X39350Y128875
X38850Y129375
X38350Y128875
X37350Y129125
X36850Y128625
X36350Y129125
X36850Y125625
X36350Y125125
X37350Y125125
X14100Y5625
X13600Y5125
X14100Y4625
X12350Y4625
X11850Y5125
X12350Y5625
T03
X11850Y3625
X10850Y3875
X10100Y3875
X10100Y5875
X10850Y5875
X13850Y3625
X11100Y13625
X9100Y13625
X8100Y13625
X7100Y13625
X7100Y19625
X8100Y19625
X9100Y19625
X11100Y19625
X10600Y17375
X10600Y16625
X10600Y15875
X12600Y15875
X12600Y16625
X12600Y17375
X15350Y17125
X15350Y16125
X20100Y16625
X21100Y16625
X22100Y16625
X23600Y14375
X23600Y13625
X23600Y12875
X24100Y10625
X25600Y12875
X25600Y13625
X25600Y14375
X24100Y16625
X22100Y10625
X21100Y10625
X20100Y10625
X20100Y26625
X21100Y26625
X22100Y26625
X23600Y28875
X23600Y29625
X23600Y30375
X24100Y32625
X25600Y30375
X25600Y29625
X25600Y28875
X24100Y26625
X22100Y32625
X21100Y32625
X20100Y32625
X15350Y32125
X15350Y33125
X12600Y33375
X12600Y32625
X12600Y31875
X10600Y31875
X10600Y32625
X10600Y33375
X11100Y35625
X9100Y35625
X8100Y35625
X7100Y35625
X7100Y29625
X8100Y29625
X9100Y29625
X11100Y29625
X3850Y30875
X3100Y30875
X2350Y30875
X1600Y30875
X1600Y32875
X2350Y32875
X3100Y32875
X3850Y32875
X3600Y28625
X3600Y27625
X1850Y27625
X1850Y28625
X1600Y16625
X2350Y16625
X3100Y16625
X3850Y16625
X3850Y14625
X3100Y14625
X2350Y14625
X1600Y14625
X1850Y12625
X1850Y11625
X3600Y11625
X3600Y12625
X3600Y5375
X4600Y5375
X20100Y42625
X21100Y42625
X22100Y42625
X23600Y44875
X23600Y45625
X23600Y46375
X24100Y48625
X25600Y46375
X25600Y45625
X25600Y44875
X24100Y42625
X22100Y48625
X21100Y48625
X20100Y48625
X15100Y48125
X15100Y49125
X12350Y49375
X12350Y48625
X12350Y47875
X10850Y45625
X10350Y47875
X10350Y48625
X10350Y49375
X10850Y51625
X8850Y51625
X7850Y51625
X6850Y51625
X3850Y48625
X3100Y48625
X2350Y48625
X1600Y48625
X1600Y46625
X2350Y46625
X3100Y46625
X3850Y46625
X3600Y44625
X3600Y43625
X1850Y43625
X1850Y44625
X6850Y45625
X7850Y45625
X8850Y45625
X3600Y59625
X3600Y60625
X3850Y62625
X3100Y62625
X2350Y62625
X1600Y62625
X1600Y64625
X2350Y64625
X3100Y64625
X3850Y64625
X1850Y60625
X1850Y59625
X6850Y61625
X7850Y61625
X8850Y61625
X10350Y63875
X10350Y64625
X10350Y65375
X10850Y67625
X12350Y65375
X12350Y64625
X12350Y63875
X10850Y61625
X8850Y67625
X7850Y67625
X6850Y67625
X3600Y75625
X3600Y76625
X3850Y78625
X3100Y78625
X2350Y78625
X1600Y78625
X1850Y76625
X1850Y75625
X1600Y80625
X2350Y80625
X3100Y80625
X3850Y80625
X6850Y77625
X7850Y77625
X8850Y77625
X10350Y79875
X10350Y80625
X10350Y81375
X10850Y83625
X12350Y81375
X12350Y80625
X12350Y79875
X10850Y77625
X8850Y83625
X7850Y83625
X6850Y83625
X3600Y91625
X3600Y92625
X3850Y94625
X3100Y94625
X2350Y94625
X1600Y94625
X1850Y92625
X1850Y91625
X1600Y96625
X2350Y96625
X3100Y96625
X3850Y96625
X7100Y93625
X8100Y93625
X9100Y93625
X11100Y93625
X10600Y95875
X10600Y96625
X10600Y97375
X11100Y99625
X9100Y99625
X8100Y99625
X7100Y99625
X3600Y107625
X3600Y108625
X3850Y110375
X3100Y110375
X2350Y110375
X1600Y110375
X1850Y108625
X1850Y107625
X1600Y112375
X2350Y112375
X3100Y112375
X3850Y112375
X6850Y109625
X7850Y109625
X8850Y109625
X10350Y111875
X10350Y112625
X10350Y113375
X10850Y115625
X12350Y113375
X12350Y112625
X12350Y111875
X10850Y109625
X8850Y115625
X7850Y115625
X6850Y115625
X3600Y123625
X3600Y124625
X3850Y126375
X3100Y126375
X2350Y126375
X1600Y126375
X1850Y124625
X1850Y123625
X1600Y128375
X2350Y128375
X3100Y128375
X3850Y128375
X4850Y133625
X2850Y134625
X1850Y134625
X6850Y133625
X7100Y131625
X8100Y131625
X9100Y131625
X11100Y131625
X10600Y129375
X10600Y128625
X10600Y127875
X11100Y125625
X9100Y125625
X8100Y125625
X7100Y125625
X9850Y133875
X10600Y133875
X10600Y135875
X9850Y135875
X12600Y129375
X12600Y128625
X12600Y127875
X15350Y128125
X15350Y129125
X17600Y136375
X17600Y138375
X14850Y138125
X13850Y138125
X20100Y128625
X21100Y128625
X22100Y128625
X23600Y126375
X23600Y125625
X23600Y124875
X24100Y122625
X25600Y124875
X25600Y125625
X25600Y126375
X24100Y128625
X22100Y122625
X21100Y122625
X20100Y122625
X20100Y112625
X21100Y112625
X22100Y112625
X23600Y110375
X23600Y109625
X23600Y108875
X24100Y106625
X25600Y108875
X25600Y109625
X25600Y110375
X24100Y112625
X22100Y106625
X21100Y106625
X20100Y106625
X15350Y112125
X15350Y113125
X12600Y97375
X12600Y96625
X12600Y95875
X15350Y96125
X15350Y97125
X20100Y96625
X21100Y96625
X22100Y96625
X23600Y94375
X23600Y93625
X23600Y92875
X24100Y90625
X25600Y92875
X25600Y93625
X25600Y94375
X24100Y96625
X22100Y90625
X21100Y90625
X20100Y90625
X20100Y80625
X21100Y80625
X22100Y80625
X23600Y78375
X23600Y77625
X23600Y76875
X24100Y74625
X25600Y76875
X25600Y77625
X25600Y78375
X24100Y80625
X22100Y74625
X21100Y74625
X20100Y74625
X15100Y80125
X15100Y81125
X15100Y65125
X15100Y64125
X20100Y64625
X21100Y64625
X22100Y64625
X23600Y62375
X23600Y61625
X23600Y60875
X24100Y58625
X25600Y60875
X25600Y61625
X25600Y62375
X24100Y64625
X22100Y58625
X21100Y58625
X20100Y58625
X28350Y61125
X28350Y62125
X33350Y60125
X34350Y60125
X35350Y60125
X36850Y62375
X36850Y63125
X36850Y63875
X37350Y66125
X38850Y63875
X38850Y63125
X38850Y62375
X37350Y60125
X37100Y53875
X35100Y53875
X35350Y50125
X34350Y50125
X33350Y50125
X33350Y44125
X34350Y44125
X35350Y44125
X36850Y46375
X36850Y47125
X36850Y47875
X37350Y50125
X38850Y47875
X38850Y47125
X38850Y46375
X37350Y44125
X41600Y46625
X41600Y47625
X47850Y46625
X47850Y44625
X48850Y44625
X49850Y44625
X50880Y43875
X51350Y43125
X51850Y44625
X52880Y43875
X51850Y46625
X52880Y47375
X51350Y48125
X50880Y47375
X49850Y46625
X48850Y46625
X51350Y50125
X50880Y50875
X49850Y51625
X48850Y51625
X47850Y51625
X47850Y55625
X48850Y55625
X49850Y55625
X50880Y56375
X51350Y57125
X51850Y55625
X52880Y56375
X51350Y59125
X50880Y59875
X49850Y60625
X48850Y60625
X48850Y62625
X49850Y62625
X50880Y63375
X51350Y64125
X51850Y62625
X52880Y63375
X51850Y60625
X52880Y59875
X54600Y58625
X54600Y57625
X57100Y58625
X58100Y58625
X60100Y58625
X62100Y58625
X62850Y59125
X63850Y60625
X62850Y61125
X62850Y62125
X63850Y62625
X62850Y64125
X62100Y64625
X60100Y64625
X58100Y64625
X57100Y64625
X54600Y64625
X54600Y65625
X52880Y66875
X51850Y67625
X51350Y66125
X50880Y66875
X49850Y67625
X48850Y67625
X47850Y67625
X47850Y71625
X48850Y71625
X49850Y71625
X50880Y72375
X51350Y73125
X51850Y71625
X52880Y72375
X51350Y75125
X50880Y75875
X49850Y76625
X48850Y76625
X48850Y78625
X49850Y78625
X50880Y79375
X51350Y80125
X51850Y78625
X52880Y79375
X51850Y76625
X52880Y75875
X54600Y74625
X54600Y73625
X57100Y74625
X58100Y74625
X60100Y74625
X62100Y74625
X62850Y75125
X63850Y76625
X62850Y77125
X62850Y78125
X63850Y78625
X62850Y80125
X62100Y80625
X60100Y80625
X58100Y80625
X57100Y80625
X54600Y80625
X54600Y81625
X52880Y82875
X51850Y83625
X51350Y82125
X50880Y82875
X49850Y83625
X48850Y83625
X47850Y83625
X47850Y87625
X48850Y87625
X49850Y87625
X50880Y88375
X51350Y89125
X51350Y91125
X50880Y91875
X49850Y92625
X48850Y92625
X48850Y94625
X49850Y94625
X50880Y95375
X51350Y96125
X51850Y94625
X52880Y95375
X51850Y92625
X52880Y91875
X52880Y88375
X51850Y87625
X54600Y89625
X54600Y90625
X57100Y90625
X58100Y90625
X60100Y90625
X62100Y90625
X62850Y91125
X63850Y92625
X62850Y93125
X62850Y94125
X63850Y94625
X62850Y96125
X62100Y96625
X60100Y96625
X58100Y96625
X57100Y96625
X54600Y96625
X54600Y97625
X52880Y98875
X51850Y99625
X51350Y98125
X50880Y98875
X49850Y99625
X48850Y99625
X47850Y99625
X47850Y103625
X48850Y103625
X49850Y103625
X50880Y104375
X51350Y105125
X51850Y103625
X52880Y104375
X51350Y107125
X50880Y107875
X49850Y108625
X48850Y108625
X48850Y110625
X49850Y110625
X50880Y111375
X51350Y112125
X51350Y114125
X50880Y114875
X49850Y115625
X48850Y115625
X47850Y115625
X47850Y119625
X48850Y119625
X49850Y119625
X50880Y120375
X51350Y121125
X51850Y119625
X52880Y120375
X51350Y123125
X50880Y123875
X49850Y124625
X48850Y124625
X47850Y124625
X47850Y126625
X48850Y126625
X49850Y126625
X50880Y127375
X51350Y128125
X51850Y126625
X52880Y127375
X51850Y124625
X52880Y123875
X54600Y122625
X54600Y121625
X57100Y122625
X58100Y122625
X60100Y122625
X62100Y122625
X62850Y123125
X63850Y124625
X62850Y125125
X62850Y126125
X63850Y126625
X62850Y128125
X62100Y128625
X60100Y128625
X58100Y128625
X57100Y128625
X54600Y128625
X54600Y129625
X52880Y130875
X51850Y131625
X51350Y130125
X50880Y130875
X49850Y131625
X48850Y131625
X47850Y131625
X41600Y127625
X41600Y126625
X38850Y126375
X38850Y127125
X38850Y127875
X37350Y130125
X36850Y127875
X36850Y127125
X36850Y126375
X37350Y124125
X35350Y124125
X34350Y124125
X33350Y124125
X33350Y130125
X34350Y130125
X35350Y130125
X35100Y117875
X37100Y117875
X37350Y114125
X36850Y111875
X36850Y111125
X36850Y110375
X37350Y108125
X38850Y110375
X38850Y111125
X38850Y111875
X41600Y111625
X41600Y110625
X37350Y98125
X36850Y95875
X36850Y95125
X36850Y94375
X37350Y92125
X38850Y94375
X38850Y95125
X38850Y95875
X41600Y95625
X41600Y94625
X37100Y85875
X37350Y82125
X36850Y79875
X36850Y79125
X36850Y78375
X37350Y76125
X38850Y78375
X38850Y79125
X38850Y79875
X41600Y79625
X41600Y78625
X47850Y78625
X47850Y76625
X41600Y63625
X41600Y62625
X47850Y62625
X47850Y60625
X51850Y51625
X52880Y50875
X54600Y49625
X54600Y48625
X57100Y48625
X58100Y48625
X60100Y48625
X62100Y48625
X62850Y48125
X63850Y46625
X62850Y46125
X62850Y45125
X63850Y44625
X62850Y43125
X62100Y42625
X60100Y42625
X58100Y42625
X57100Y42625
X54600Y42625
X54600Y41625
X52880Y40375
X51850Y39625
X51350Y41125
X50880Y40375
X49850Y39625
X48850Y39625
X47850Y39625
X47850Y35625
X48850Y35625
X49850Y35625
X50880Y34875
X51350Y34125
X51850Y35625
X52880Y34875
X51350Y32125
X50880Y31375
X49850Y30625
X48850Y30625
X47850Y30625
X47850Y28625
X48850Y28625
X49850Y28625
X50880Y27875
X51350Y27125
X51850Y28625
X52880Y27875
X51850Y30625
X52880Y31375
X54600Y32625
X54600Y33625
X57100Y32625
X58100Y32625
X59850Y32625
X61850Y32625
X62600Y32125
X63600Y30625
X62600Y30125
X62600Y29125
X63600Y28625
X64850Y29125
X64850Y30125
X62600Y27125
X61850Y26625
X59850Y26625
X58100Y26625
X57100Y26625
X54600Y26625
X54600Y25625
X52880Y24375
X51850Y23625
X51350Y25125
X50880Y24375
X49850Y23625
X48850Y23625
X47850Y23625
X47850Y19625
X48850Y19625
X49850Y19625
X50880Y18875
X51350Y18125
X51850Y19625
X52880Y18875
X51350Y16125
X50880Y15375
X49850Y14625
X48850Y14625
X47850Y14625
X47850Y12625
X48850Y12625
X49850Y12625
X50880Y11875
X51350Y11125
X51850Y12625
X52880Y11875
X51850Y14625
X52880Y15375
X54600Y16625
X54600Y17625
X57100Y16625
X58100Y16625
X59850Y16625
X61850Y16625
X62600Y16125
X63600Y14625
X62600Y14125
X62600Y13125
X63600Y12625
X64850Y13125
X64850Y14125
X66600Y13625
X66600Y12875
X68600Y12875
X68600Y13625
X67850Y7625
X66850Y7625
X62600Y11125
X61850Y10625
X59850Y10625
X58100Y10625
X57100Y10625
X54600Y10625
X54600Y9625
X52880Y8375
X51850Y7625
X51350Y9125
X50880Y8375
X49850Y7625
X48850Y7625
X47850Y7625
X41600Y14625
X41600Y15625
X38850Y15875
X38850Y15125
X38850Y14375
X37350Y12125
X36850Y14375
X36850Y15125
X36850Y15875
X37350Y18125
X35350Y18125
X34350Y18125
X33350Y18125
X35100Y21875
X37100Y21875
X37350Y28125
X36850Y30375
X36850Y31125
X36850Y31875
X37350Y34125
X38850Y31875
X38850Y31125
X38850Y30375
X41600Y30625
X41600Y31625
X35350Y34125
X34350Y34125
X33350Y34125
X33350Y28125
X34350Y28125
X35350Y28125
X28350Y29125
X28350Y30125
X28350Y45125
X28350Y46125
X33350Y66125
X34350Y66125
X35350Y66125
X35350Y76125
X34350Y76125
X33350Y76125
X33350Y82125
X34350Y82125
X35350Y82125
X35100Y85875
X35350Y92125
X34350Y92125
X33350Y92125
X33350Y98125
X34350Y98125
X35350Y98125
X35350Y108125
X34350Y108125
X33350Y108125
X33350Y114125
X34350Y114125
X35350Y114125
X28350Y110125
X28350Y109125
X28350Y94125
X28350Y93125
X28350Y78125
X28350Y77125
X47850Y92625
X47850Y94625
X54600Y105625
X54600Y106625
X52880Y107875
X51850Y108625
X51850Y110625
X52880Y111375
X52880Y114875
X51850Y115625
X54600Y113625
X54600Y112625
X57100Y112625
X58100Y112625
X60100Y112625
X62100Y112625
X62850Y112125
X63850Y110625
X62850Y110125
X62850Y109125
X63850Y108625
X62850Y107125
X62100Y106625
X60100Y106625
X58100Y106625
X57100Y106625
X63600Y102125
X65600Y102125
X67850Y100125
X67850Y99125
X65100Y94125
X65100Y93125
X65600Y86125
X63600Y86125
X65100Y78125
X65100Y77125
X67850Y83125
X67850Y84125
X65600Y70125
X63600Y70125
X65100Y62125
X65100Y61125
X67850Y67125
X67850Y68125
X65600Y54125
X63600Y54125
X65100Y46125
X65100Y45125
X67850Y51125
X67850Y52125
X65600Y38125
X63600Y38125
X67850Y36125
X67850Y35125
X67850Y23125
X67850Y22125
X65600Y22125
X63600Y22125
X35350Y12125
X34350Y12125
X33350Y12125
X28350Y13125
X28350Y14125
X47850Y108625
X47850Y110625
X63600Y118125
X65600Y118125
X67850Y116125
X67850Y115125
X65100Y110125
X65100Y109125
X65350Y125125
X65350Y126125
X67850Y131125
X67850Y132125
X66100Y132625
X64100Y132625
X28350Y126125
X28350Y125125
T04
X28100Y138625
X28100Y139625
X29100Y139625
X29100Y138625
X30100Y138625
X30100Y139625
X31100Y139625
X31100Y138625
X32100Y138625
X32100Y139625
X33100Y139625
X33100Y138625
X34100Y138625
X34100Y139625
X35100Y139625
X35100Y138625
X36100Y138625
X36100Y139625
X37100Y139625
X37100Y138625
X38100Y138625
X38100Y139625
X27100Y139625
X27100Y138625
X26100Y138625
X26100Y139625
X25100Y139625
X25100Y138625
X24100Y138625
X24100Y139625
X51600Y139625
X51600Y138625
X52600Y138625
X52600Y139625
X53600Y139625
X53600Y138625
X54600Y138625
X54600Y139625
X55600Y139625
X55600Y138625
X56600Y138625
X56600Y139625
X57600Y139625
X57600Y138625
X58600Y138625
X58600Y139625
X59600Y139625
X59600Y138625
X60600Y138625
X60600Y139625
X59600Y5125
X59600Y4125
X58600Y4125
X58600Y5125
X57600Y5125
X57600Y4125
X56600Y4125
X56600Y5125
X55600Y5125
X55600Y4125
X54600Y4125
X54600Y5125
X53600Y5125
X53600Y4125
X52600Y4125
X52600Y5125
X51600Y5125
X51600Y4125
X50600Y4125
X50600Y5125
X28350Y5125
X28350Y4125
X27350Y4125
X27350Y5125
X26350Y5125
X26350Y4125
X25350Y4125
X25350Y5125
X24350Y5125
X24350Y4125
X23350Y4125
X23350Y5125
X22350Y5125
X22350Y4125
X21350Y4125
X21350Y5125
X20350Y5125
X20350Y4125
X19350Y4125
X19350Y5125
T05
X20850Y19625
X20850Y51375
X20850Y83375
X23600Y115625
X2100Y136125
X3850Y4125
X67600Y6125
T06
X10350Y139375
X7100Y139375
T07
X21810Y139335
X40390Y139335
X49310Y139335
X62890Y139335
X61890Y4415
X48310Y4415
X30640Y4415
X17060Y4415
T08
X1350Y3875
X10600Y56125
X10600Y88625
X1350Y139875
X65600Y97625
X68350Y139875
X65600Y49625
X68350Y3875
M30
