G75*
G70*
%OFA0B0*%
%FSLAX24Y24*%
%IPPOS*%
%LPD*%
%AMOC8*
5,1,8,0,0,1.08239X$1,22.5*
%
%ADD10C,0.0595*%
%ADD11C,0.0556*%
%ADD12R,0.0730X0.0730*%
%ADD13C,0.0730*%
%ADD14C,0.1240*%
%ADD15R,0.0789X0.0789*%
%ADD16R,0.1580X0.1580*%
%ADD17C,0.1340*%
D10*
X003600Y005375D03*
X004600Y005375D03*
X003600Y011625D03*
X003600Y012625D03*
X003850Y014625D03*
X003100Y014625D03*
X002350Y014625D03*
X001600Y014625D03*
X001600Y016625D03*
X002350Y016625D03*
X003100Y016625D03*
X003850Y016625D03*
X001850Y012625D03*
X001850Y011625D03*
X007100Y013625D03*
X008100Y013625D03*
X009100Y013625D03*
X011100Y013625D03*
X010600Y015875D03*
X010600Y016625D03*
X010600Y017375D03*
X011100Y019625D03*
X009100Y019625D03*
X008100Y019625D03*
X007100Y019625D03*
X003600Y027625D03*
X003600Y028625D03*
X003850Y030875D03*
X003100Y030875D03*
X002350Y030875D03*
X001600Y030875D03*
X001600Y032875D03*
X002350Y032875D03*
X003100Y032875D03*
X003850Y032875D03*
X001850Y028625D03*
X001850Y027625D03*
X007100Y029625D03*
X008100Y029625D03*
X009100Y029625D03*
X011100Y029625D03*
X010600Y031875D03*
X010600Y032625D03*
X010600Y033375D03*
X011100Y035625D03*
X009100Y035625D03*
X008100Y035625D03*
X007100Y035625D03*
X003600Y043625D03*
X003600Y044625D03*
X003850Y046625D03*
X003100Y046625D03*
X002350Y046625D03*
X001600Y046625D03*
X001600Y048625D03*
X002350Y048625D03*
X003100Y048625D03*
X003850Y048625D03*
X001850Y044625D03*
X001850Y043625D03*
X006850Y045625D03*
X007850Y045625D03*
X008850Y045625D03*
X010350Y047875D03*
X010350Y048625D03*
X010350Y049375D03*
X010850Y051625D03*
X012350Y049375D03*
X012350Y048625D03*
X012350Y047875D03*
X010850Y045625D03*
X008850Y051625D03*
X007850Y051625D03*
X006850Y051625D03*
X003600Y059625D03*
X003600Y060625D03*
X003850Y062625D03*
X003100Y062625D03*
X002350Y062625D03*
X001600Y062625D03*
X001600Y064625D03*
X002350Y064625D03*
X003100Y064625D03*
X003850Y064625D03*
X001850Y060625D03*
X001850Y059625D03*
X006850Y061625D03*
X007850Y061625D03*
X008850Y061625D03*
X010350Y063875D03*
X010350Y064625D03*
X010350Y065375D03*
X010850Y067625D03*
X012350Y065375D03*
X012350Y064625D03*
X012350Y063875D03*
X010850Y061625D03*
X008850Y067625D03*
X007850Y067625D03*
X006850Y067625D03*
X003600Y075625D03*
X003600Y076625D03*
X003850Y078625D03*
X003100Y078625D03*
X002350Y078625D03*
X001600Y078625D03*
X001850Y076625D03*
X001850Y075625D03*
X001600Y080625D03*
X002350Y080625D03*
X003100Y080625D03*
X003850Y080625D03*
X006850Y077625D03*
X007850Y077625D03*
X008850Y077625D03*
X010350Y079875D03*
X010350Y080625D03*
X010350Y081375D03*
X010850Y083625D03*
X012350Y081375D03*
X012350Y080625D03*
X012350Y079875D03*
X010850Y077625D03*
X008850Y083625D03*
X007850Y083625D03*
X006850Y083625D03*
X003600Y091625D03*
X003600Y092625D03*
X003850Y094625D03*
X003100Y094625D03*
X002350Y094625D03*
X001600Y094625D03*
X001850Y092625D03*
X001850Y091625D03*
X001600Y096625D03*
X002350Y096625D03*
X003100Y096625D03*
X003850Y096625D03*
X007100Y093625D03*
X008100Y093625D03*
X009100Y093625D03*
X011100Y093625D03*
X010600Y095875D03*
X010600Y096625D03*
X010600Y097375D03*
X011100Y099625D03*
X009100Y099625D03*
X008100Y099625D03*
X007100Y099625D03*
X003600Y107625D03*
X003600Y108625D03*
X003850Y110375D03*
X003100Y110375D03*
X002350Y110375D03*
X001600Y110375D03*
X001850Y108625D03*
X001850Y107625D03*
X001600Y112375D03*
X002350Y112375D03*
X003100Y112375D03*
X003850Y112375D03*
X006850Y109625D03*
X007850Y109625D03*
X008850Y109625D03*
X010350Y111875D03*
X010350Y112625D03*
X010350Y113375D03*
X010850Y115625D03*
X012350Y113375D03*
X012350Y112625D03*
X012350Y111875D03*
X010850Y109625D03*
X008850Y115625D03*
X007850Y115625D03*
X006850Y115625D03*
X003600Y123625D03*
X003600Y124625D03*
X003850Y126375D03*
X003100Y126375D03*
X002350Y126375D03*
X001600Y126375D03*
X001850Y124625D03*
X001850Y123625D03*
X001600Y128375D03*
X002350Y128375D03*
X003100Y128375D03*
X003850Y128375D03*
X004850Y133625D03*
X002850Y134625D03*
X001850Y134625D03*
X006850Y133625D03*
X007100Y131625D03*
X008100Y131625D03*
X009100Y131625D03*
X011100Y131625D03*
X010600Y129375D03*
X010600Y128625D03*
X010600Y127875D03*
X011100Y125625D03*
X009100Y125625D03*
X008100Y125625D03*
X007100Y125625D03*
X009850Y133875D03*
X010600Y133875D03*
X010600Y135875D03*
X009850Y135875D03*
X012600Y129375D03*
X012600Y128625D03*
X012600Y127875D03*
X015350Y128125D03*
X015350Y129125D03*
X017600Y136375D03*
X017600Y138375D03*
X014850Y138125D03*
X013850Y138125D03*
X020100Y128625D03*
X021100Y128625D03*
X022100Y128625D03*
X023600Y126375D03*
X023600Y125625D03*
X023600Y124875D03*
X024100Y122625D03*
X025600Y124875D03*
X025600Y125625D03*
X025600Y126375D03*
X024100Y128625D03*
X022100Y122625D03*
X021100Y122625D03*
X020100Y122625D03*
X020100Y112625D03*
X021100Y112625D03*
X022100Y112625D03*
X023600Y110375D03*
X023600Y109625D03*
X023600Y108875D03*
X024100Y106625D03*
X025600Y108875D03*
X025600Y109625D03*
X025600Y110375D03*
X024100Y112625D03*
X022100Y106625D03*
X021100Y106625D03*
X020100Y106625D03*
X015350Y112125D03*
X015350Y113125D03*
X012600Y097375D03*
X012600Y096625D03*
X012600Y095875D03*
X015350Y096125D03*
X015350Y097125D03*
X020100Y096625D03*
X021100Y096625D03*
X022100Y096625D03*
X023600Y094375D03*
X023600Y093625D03*
X023600Y092875D03*
X024100Y090625D03*
X025600Y092875D03*
X025600Y093625D03*
X025600Y094375D03*
X024100Y096625D03*
X022100Y090625D03*
X021100Y090625D03*
X020100Y090625D03*
X020100Y080625D03*
X021100Y080625D03*
X022100Y080625D03*
X023600Y078375D03*
X023600Y077625D03*
X023600Y076875D03*
X024100Y074625D03*
X025600Y076875D03*
X025600Y077625D03*
X025600Y078375D03*
X024100Y080625D03*
X022100Y074625D03*
X021100Y074625D03*
X020100Y074625D03*
X015100Y080125D03*
X015100Y081125D03*
X015100Y065125D03*
X015100Y064125D03*
X020100Y064625D03*
X021100Y064625D03*
X022100Y064625D03*
X023600Y062375D03*
X023600Y061625D03*
X023600Y060875D03*
X024100Y058625D03*
X025600Y060875D03*
X025600Y061625D03*
X025600Y062375D03*
X024100Y064625D03*
X022100Y058625D03*
X021100Y058625D03*
X020100Y058625D03*
X020100Y048625D03*
X021100Y048625D03*
X022100Y048625D03*
X023600Y046375D03*
X023600Y045625D03*
X023600Y044875D03*
X024100Y042625D03*
X025600Y044875D03*
X025600Y045625D03*
X025600Y046375D03*
X024100Y048625D03*
X022100Y042625D03*
X021100Y042625D03*
X020100Y042625D03*
X015350Y033125D03*
X015350Y032125D03*
X012600Y031875D03*
X012600Y032625D03*
X012600Y033375D03*
X020100Y032625D03*
X021100Y032625D03*
X022100Y032625D03*
X023600Y030375D03*
X023600Y029625D03*
X023600Y028875D03*
X024100Y026625D03*
X025600Y028875D03*
X025600Y029625D03*
X025600Y030375D03*
X024100Y032625D03*
X022100Y026625D03*
X021100Y026625D03*
X020100Y026625D03*
X020100Y016625D03*
X021100Y016625D03*
X022100Y016625D03*
X023600Y014375D03*
X023600Y013625D03*
X023600Y012875D03*
X024100Y010625D03*
X025600Y012875D03*
X025600Y013625D03*
X025600Y014375D03*
X024100Y016625D03*
X022100Y010625D03*
X021100Y010625D03*
X020100Y010625D03*
X015350Y016125D03*
X015350Y017125D03*
X012600Y017375D03*
X012600Y016625D03*
X012600Y015875D03*
X010850Y005875D03*
X010100Y005875D03*
X010100Y003875D03*
X010850Y003875D03*
X011850Y003625D03*
X013850Y003625D03*
X028350Y013125D03*
X028350Y014125D03*
X033350Y012125D03*
X034350Y012125D03*
X035350Y012125D03*
X036850Y014375D03*
X036850Y015125D03*
X036850Y015875D03*
X037350Y018125D03*
X038850Y015875D03*
X038850Y015125D03*
X038850Y014375D03*
X037350Y012125D03*
X035350Y018125D03*
X034350Y018125D03*
X033350Y018125D03*
X035100Y021875D03*
X037100Y021875D03*
X037350Y028125D03*
X036850Y030375D03*
X036850Y031125D03*
X036850Y031875D03*
X037350Y034125D03*
X038850Y031875D03*
X038850Y031125D03*
X038850Y030375D03*
X041600Y030625D03*
X041600Y031625D03*
X037350Y044125D03*
X036850Y046375D03*
X036850Y047125D03*
X036850Y047875D03*
X037350Y050125D03*
X038850Y047875D03*
X038850Y047125D03*
X038850Y046375D03*
X041600Y046625D03*
X041600Y047625D03*
X037100Y053875D03*
X035100Y053875D03*
X035350Y050125D03*
X034350Y050125D03*
X033350Y050125D03*
X033350Y044125D03*
X034350Y044125D03*
X035350Y044125D03*
X035350Y034125D03*
X034350Y034125D03*
X033350Y034125D03*
X033350Y028125D03*
X034350Y028125D03*
X035350Y028125D03*
X041600Y015625D03*
X041600Y014625D03*
X047850Y014625D03*
X048850Y014625D03*
X049850Y014625D03*
X050880Y015375D03*
X051350Y016125D03*
X051850Y014625D03*
X052880Y015375D03*
X051850Y012625D03*
X052880Y011875D03*
X051350Y011125D03*
X050880Y011875D03*
X049850Y012625D03*
X048850Y012625D03*
X047850Y012625D03*
X047850Y007625D03*
X048850Y007625D03*
X049850Y007625D03*
X050880Y008375D03*
X051350Y009125D03*
X051850Y007625D03*
X052880Y008375D03*
X054600Y009625D03*
X054600Y010625D03*
X057100Y010625D03*
X058100Y010625D03*
X059850Y010625D03*
X061850Y010625D03*
X062600Y011125D03*
X063600Y012625D03*
X062600Y013125D03*
X062600Y014125D03*
X063600Y014625D03*
X064850Y014125D03*
X064850Y013125D03*
X066600Y012875D03*
X066600Y013625D03*
X068600Y013625D03*
X068600Y012875D03*
X067850Y007625D03*
X066850Y007625D03*
X062600Y016125D03*
X061850Y016625D03*
X059850Y016625D03*
X058100Y016625D03*
X057100Y016625D03*
X054600Y016625D03*
X054600Y017625D03*
X052880Y018875D03*
X051850Y019625D03*
X051350Y018125D03*
X050880Y018875D03*
X049850Y019625D03*
X048850Y019625D03*
X047850Y019625D03*
X047850Y023625D03*
X048850Y023625D03*
X049850Y023625D03*
X050880Y024375D03*
X051350Y025125D03*
X051850Y023625D03*
X052880Y024375D03*
X051350Y027125D03*
X050880Y027875D03*
X049850Y028625D03*
X048850Y028625D03*
X047850Y028625D03*
X047850Y030625D03*
X048850Y030625D03*
X049850Y030625D03*
X050880Y031375D03*
X051350Y032125D03*
X051850Y030625D03*
X052880Y031375D03*
X051850Y028625D03*
X052880Y027875D03*
X054600Y026625D03*
X054600Y025625D03*
X057100Y026625D03*
X058100Y026625D03*
X059850Y026625D03*
X061850Y026625D03*
X062600Y027125D03*
X063600Y028625D03*
X062600Y029125D03*
X062600Y030125D03*
X063600Y030625D03*
X064850Y030125D03*
X064850Y029125D03*
X062600Y032125D03*
X061850Y032625D03*
X059850Y032625D03*
X058100Y032625D03*
X057100Y032625D03*
X054600Y032625D03*
X054600Y033625D03*
X052880Y034875D03*
X051850Y035625D03*
X051350Y034125D03*
X050880Y034875D03*
X049850Y035625D03*
X048850Y035625D03*
X047850Y035625D03*
X047850Y039625D03*
X048850Y039625D03*
X049850Y039625D03*
X050880Y040375D03*
X051350Y041125D03*
X051850Y039625D03*
X052880Y040375D03*
X051350Y043125D03*
X050880Y043875D03*
X049850Y044625D03*
X048850Y044625D03*
X048850Y046625D03*
X049850Y046625D03*
X050880Y047375D03*
X051350Y048125D03*
X051850Y046625D03*
X052880Y047375D03*
X051850Y044625D03*
X052880Y043875D03*
X054600Y042625D03*
X054600Y041625D03*
X057100Y042625D03*
X058100Y042625D03*
X060100Y042625D03*
X062100Y042625D03*
X062850Y043125D03*
X063850Y044625D03*
X062850Y045125D03*
X062850Y046125D03*
X063850Y046625D03*
X062850Y048125D03*
X062100Y048625D03*
X060100Y048625D03*
X058100Y048625D03*
X057100Y048625D03*
X054600Y048625D03*
X054600Y049625D03*
X052880Y050875D03*
X051850Y051625D03*
X051350Y050125D03*
X050880Y050875D03*
X049850Y051625D03*
X048850Y051625D03*
X047850Y051625D03*
X047850Y055625D03*
X048850Y055625D03*
X049850Y055625D03*
X050880Y056375D03*
X051350Y057125D03*
X051850Y055625D03*
X052880Y056375D03*
X051350Y059125D03*
X050880Y059875D03*
X049850Y060625D03*
X048850Y060625D03*
X048850Y062625D03*
X049850Y062625D03*
X050880Y063375D03*
X051350Y064125D03*
X051850Y062625D03*
X052880Y063375D03*
X051850Y060625D03*
X052880Y059875D03*
X054600Y058625D03*
X054600Y057625D03*
X057100Y058625D03*
X058100Y058625D03*
X060100Y058625D03*
X062100Y058625D03*
X062850Y059125D03*
X063850Y060625D03*
X062850Y061125D03*
X062850Y062125D03*
X063850Y062625D03*
X062850Y064125D03*
X062100Y064625D03*
X060100Y064625D03*
X058100Y064625D03*
X057100Y064625D03*
X054600Y064625D03*
X054600Y065625D03*
X052880Y066875D03*
X051850Y067625D03*
X051350Y066125D03*
X050880Y066875D03*
X049850Y067625D03*
X048850Y067625D03*
X047850Y067625D03*
X047850Y071625D03*
X048850Y071625D03*
X049850Y071625D03*
X050880Y072375D03*
X051350Y073125D03*
X051850Y071625D03*
X052880Y072375D03*
X051350Y075125D03*
X050880Y075875D03*
X049850Y076625D03*
X048850Y076625D03*
X048850Y078625D03*
X049850Y078625D03*
X050880Y079375D03*
X051350Y080125D03*
X051850Y078625D03*
X052880Y079375D03*
X051850Y076625D03*
X052880Y075875D03*
X054600Y074625D03*
X054600Y073625D03*
X057100Y074625D03*
X058100Y074625D03*
X060100Y074625D03*
X062100Y074625D03*
X062850Y075125D03*
X063850Y076625D03*
X062850Y077125D03*
X062850Y078125D03*
X063850Y078625D03*
X062850Y080125D03*
X062100Y080625D03*
X060100Y080625D03*
X058100Y080625D03*
X057100Y080625D03*
X054600Y080625D03*
X054600Y081625D03*
X052880Y082875D03*
X051850Y083625D03*
X051350Y082125D03*
X050880Y082875D03*
X049850Y083625D03*
X048850Y083625D03*
X047850Y083625D03*
X047850Y087625D03*
X048850Y087625D03*
X049850Y087625D03*
X050880Y088375D03*
X051350Y089125D03*
X051350Y091125D03*
X050880Y091875D03*
X049850Y092625D03*
X048850Y092625D03*
X048850Y094625D03*
X049850Y094625D03*
X050880Y095375D03*
X051350Y096125D03*
X051850Y094625D03*
X052880Y095375D03*
X051850Y092625D03*
X052880Y091875D03*
X052880Y088375D03*
X051850Y087625D03*
X054600Y089625D03*
X054600Y090625D03*
X057100Y090625D03*
X058100Y090625D03*
X060100Y090625D03*
X062100Y090625D03*
X062850Y091125D03*
X063850Y092625D03*
X062850Y093125D03*
X062850Y094125D03*
X063850Y094625D03*
X062850Y096125D03*
X062100Y096625D03*
X060100Y096625D03*
X058100Y096625D03*
X057100Y096625D03*
X054600Y096625D03*
X054600Y097625D03*
X052880Y098875D03*
X051850Y099625D03*
X051350Y098125D03*
X050880Y098875D03*
X049850Y099625D03*
X048850Y099625D03*
X047850Y099625D03*
X047850Y103625D03*
X048850Y103625D03*
X049850Y103625D03*
X050880Y104375D03*
X051350Y105125D03*
X051850Y103625D03*
X052880Y104375D03*
X051350Y107125D03*
X050880Y107875D03*
X049850Y108625D03*
X048850Y108625D03*
X048850Y110625D03*
X049850Y110625D03*
X050880Y111375D03*
X051350Y112125D03*
X051350Y114125D03*
X050880Y114875D03*
X049850Y115625D03*
X048850Y115625D03*
X047850Y115625D03*
X047850Y119625D03*
X048850Y119625D03*
X049850Y119625D03*
X050880Y120375D03*
X051350Y121125D03*
X051850Y119625D03*
X052880Y120375D03*
X051350Y123125D03*
X050880Y123875D03*
X049850Y124625D03*
X048850Y124625D03*
X047850Y124625D03*
X047850Y126625D03*
X048850Y126625D03*
X049850Y126625D03*
X050880Y127375D03*
X051350Y128125D03*
X051850Y126625D03*
X052880Y127375D03*
X051850Y124625D03*
X052880Y123875D03*
X054600Y122625D03*
X054600Y121625D03*
X057100Y122625D03*
X058100Y122625D03*
X060100Y122625D03*
X062100Y122625D03*
X062850Y123125D03*
X063850Y124625D03*
X062850Y125125D03*
X062850Y126125D03*
X063850Y126625D03*
X062850Y128125D03*
X062100Y128625D03*
X060100Y128625D03*
X058100Y128625D03*
X057100Y128625D03*
X054600Y128625D03*
X054600Y129625D03*
X052880Y130875D03*
X051850Y131625D03*
X051350Y130125D03*
X050880Y130875D03*
X049850Y131625D03*
X048850Y131625D03*
X047850Y131625D03*
X041600Y127625D03*
X041600Y126625D03*
X038850Y126375D03*
X038850Y127125D03*
X038850Y127875D03*
X037350Y130125D03*
X036850Y127875D03*
X036850Y127125D03*
X036850Y126375D03*
X037350Y124125D03*
X035350Y124125D03*
X034350Y124125D03*
X033350Y124125D03*
X033350Y130125D03*
X034350Y130125D03*
X035350Y130125D03*
X035100Y117875D03*
X037100Y117875D03*
X037350Y114125D03*
X036850Y111875D03*
X036850Y111125D03*
X036850Y110375D03*
X037350Y108125D03*
X038850Y110375D03*
X038850Y111125D03*
X038850Y111875D03*
X041600Y111625D03*
X041600Y110625D03*
X037350Y098125D03*
X036850Y095875D03*
X036850Y095125D03*
X036850Y094375D03*
X037350Y092125D03*
X038850Y094375D03*
X038850Y095125D03*
X038850Y095875D03*
X041600Y095625D03*
X041600Y094625D03*
X037100Y085875D03*
X037350Y082125D03*
X036850Y079875D03*
X036850Y079125D03*
X036850Y078375D03*
X037350Y076125D03*
X038850Y078375D03*
X038850Y079125D03*
X038850Y079875D03*
X041600Y079625D03*
X041600Y078625D03*
X037350Y066125D03*
X036850Y063875D03*
X036850Y063125D03*
X036850Y062375D03*
X037350Y060125D03*
X038850Y062375D03*
X038850Y063125D03*
X038850Y063875D03*
X041600Y063625D03*
X041600Y062625D03*
X047850Y062625D03*
X047850Y060625D03*
X047850Y046625D03*
X047850Y044625D03*
X035350Y060125D03*
X034350Y060125D03*
X033350Y060125D03*
X033350Y066125D03*
X034350Y066125D03*
X035350Y066125D03*
X035350Y076125D03*
X034350Y076125D03*
X033350Y076125D03*
X033350Y082125D03*
X034350Y082125D03*
X035350Y082125D03*
X035100Y085875D03*
X035350Y092125D03*
X034350Y092125D03*
X033350Y092125D03*
X033350Y098125D03*
X034350Y098125D03*
X035350Y098125D03*
X035350Y108125D03*
X034350Y108125D03*
X033350Y108125D03*
X033350Y114125D03*
X034350Y114125D03*
X035350Y114125D03*
X028350Y110125D03*
X028350Y109125D03*
X028350Y094125D03*
X028350Y093125D03*
X028350Y078125D03*
X028350Y077125D03*
X028350Y062125D03*
X028350Y061125D03*
X028350Y046125D03*
X028350Y045125D03*
X028350Y030125D03*
X028350Y029125D03*
X015100Y048125D03*
X015100Y049125D03*
X047850Y076625D03*
X047850Y078625D03*
X047850Y092625D03*
X047850Y094625D03*
X054600Y105625D03*
X054600Y106625D03*
X052880Y107875D03*
X051850Y108625D03*
X051850Y110625D03*
X052880Y111375D03*
X052880Y114875D03*
X051850Y115625D03*
X054600Y113625D03*
X054600Y112625D03*
X057100Y112625D03*
X058100Y112625D03*
X060100Y112625D03*
X062100Y112625D03*
X062850Y112125D03*
X063850Y110625D03*
X062850Y110125D03*
X062850Y109125D03*
X063850Y108625D03*
X062850Y107125D03*
X062100Y106625D03*
X060100Y106625D03*
X058100Y106625D03*
X057100Y106625D03*
X063600Y102125D03*
X065600Y102125D03*
X067850Y100125D03*
X067850Y099125D03*
X065100Y094125D03*
X065100Y093125D03*
X065600Y086125D03*
X063600Y086125D03*
X065100Y078125D03*
X065100Y077125D03*
X067850Y083125D03*
X067850Y084125D03*
X065600Y070125D03*
X063600Y070125D03*
X065100Y062125D03*
X065100Y061125D03*
X067850Y067125D03*
X067850Y068125D03*
X065600Y054125D03*
X063600Y054125D03*
X065100Y046125D03*
X065100Y045125D03*
X067850Y051125D03*
X067850Y052125D03*
X065600Y038125D03*
X063600Y038125D03*
X067850Y036125D03*
X067850Y035125D03*
X067850Y023125D03*
X067850Y022125D03*
X065600Y022125D03*
X063600Y022125D03*
X065100Y109125D03*
X065100Y110125D03*
X067850Y115125D03*
X067850Y116125D03*
X065600Y118125D03*
X063600Y118125D03*
X065350Y125125D03*
X065350Y126125D03*
X067850Y131125D03*
X067850Y132125D03*
X066100Y132625D03*
X064100Y132625D03*
X047850Y110625D03*
X047850Y108625D03*
X028350Y125125D03*
X028350Y126125D03*
D11*
X027100Y125625D03*
X026600Y126125D03*
X026600Y125125D03*
X026100Y123875D03*
X025600Y123375D03*
X025100Y123875D03*
X024100Y123625D03*
X023600Y124125D03*
X023100Y123625D03*
X023600Y127125D03*
X023100Y127625D03*
X024100Y127625D03*
X025100Y127375D03*
X025600Y127875D03*
X026100Y127375D03*
X025600Y111875D03*
X025100Y111375D03*
X026100Y111375D03*
X026600Y110125D03*
X027100Y109625D03*
X026600Y109125D03*
X026100Y107875D03*
X025600Y107375D03*
X025100Y107875D03*
X024100Y107625D03*
X023600Y108125D03*
X023100Y107625D03*
X023600Y111125D03*
X023100Y111625D03*
X024100Y111625D03*
X025600Y095875D03*
X025100Y095375D03*
X026100Y095375D03*
X026600Y094125D03*
X027100Y093625D03*
X026600Y093125D03*
X026100Y091875D03*
X025600Y091375D03*
X025100Y091875D03*
X024100Y091625D03*
X023600Y092125D03*
X023100Y091625D03*
X023600Y095125D03*
X023100Y095625D03*
X024100Y095625D03*
X025600Y079875D03*
X025100Y079375D03*
X026100Y079375D03*
X026600Y078125D03*
X027100Y077625D03*
X026600Y077125D03*
X026100Y075875D03*
X025600Y075375D03*
X025100Y075875D03*
X024100Y075625D03*
X023600Y076125D03*
X023100Y075625D03*
X023600Y079125D03*
X023100Y079625D03*
X024100Y079625D03*
X025600Y063875D03*
X025100Y063375D03*
X026100Y063375D03*
X026600Y062125D03*
X027100Y061625D03*
X026600Y061125D03*
X026100Y059875D03*
X025600Y059375D03*
X025100Y059875D03*
X024100Y059625D03*
X023600Y060125D03*
X023100Y059625D03*
X023600Y063125D03*
X023100Y063625D03*
X024100Y063625D03*
X025600Y047875D03*
X025100Y047375D03*
X026100Y047375D03*
X026600Y046125D03*
X027100Y045625D03*
X026600Y045125D03*
X026100Y043875D03*
X025600Y043375D03*
X025100Y043875D03*
X024100Y043625D03*
X023600Y044125D03*
X023100Y043625D03*
X023600Y047125D03*
X023100Y047625D03*
X024100Y047625D03*
X025600Y031875D03*
X025100Y031375D03*
X026100Y031375D03*
X026600Y030125D03*
X027100Y029625D03*
X026600Y029125D03*
X026100Y027875D03*
X025600Y027375D03*
X025100Y027875D03*
X024100Y027625D03*
X023600Y028125D03*
X023100Y027625D03*
X023600Y031125D03*
X023100Y031625D03*
X024100Y031625D03*
X025600Y015875D03*
X025100Y015375D03*
X026100Y015375D03*
X026600Y014125D03*
X027100Y013625D03*
X026600Y013125D03*
X026100Y011875D03*
X025600Y011375D03*
X025100Y011875D03*
X024100Y011625D03*
X023600Y012125D03*
X023100Y011625D03*
X023600Y015125D03*
X023100Y015625D03*
X024100Y015625D03*
X014100Y016625D03*
X013600Y017125D03*
X013600Y016125D03*
X013100Y014625D03*
X012600Y014125D03*
X012100Y014625D03*
X011100Y014625D03*
X010600Y015125D03*
X010100Y014625D03*
X010600Y018125D03*
X011100Y018625D03*
X010100Y018625D03*
X012100Y018625D03*
X012600Y019125D03*
X013100Y018625D03*
X012600Y030125D03*
X012100Y030625D03*
X013100Y030625D03*
X013600Y032125D03*
X014100Y032625D03*
X013600Y033125D03*
X013100Y034625D03*
X012600Y035125D03*
X012100Y034625D03*
X011100Y034625D03*
X010600Y034125D03*
X010100Y034625D03*
X010600Y031125D03*
X011100Y030625D03*
X010100Y030625D03*
X003850Y034375D03*
X003350Y034875D03*
X003350Y033875D03*
X002100Y034375D03*
X001600Y034875D03*
X001600Y033875D03*
X001600Y018625D03*
X002100Y018125D03*
X001600Y017625D03*
X003350Y017625D03*
X003850Y018125D03*
X003350Y018625D03*
X012350Y005625D03*
X011850Y005125D03*
X012350Y004625D03*
X013600Y005125D03*
X014100Y004625D03*
X014100Y005625D03*
X012350Y046125D03*
X011850Y046625D03*
X012850Y046625D03*
X013350Y048125D03*
X013850Y048625D03*
X013350Y049125D03*
X012850Y050625D03*
X012350Y051125D03*
X011850Y050625D03*
X010850Y050625D03*
X010350Y050125D03*
X009850Y050625D03*
X010350Y047125D03*
X009850Y046625D03*
X010850Y046625D03*
X003850Y050125D03*
X003350Y050625D03*
X003350Y049625D03*
X002100Y050125D03*
X001600Y050625D03*
X001600Y049625D03*
X001600Y065625D03*
X002100Y066125D03*
X001600Y066625D03*
X003350Y066625D03*
X003850Y066125D03*
X003350Y065625D03*
X009850Y066625D03*
X010350Y066125D03*
X010850Y066625D03*
X011850Y066625D03*
X012350Y067125D03*
X012850Y066625D03*
X013350Y065125D03*
X013850Y064625D03*
X013350Y064125D03*
X012850Y062625D03*
X012350Y062125D03*
X011850Y062625D03*
X010850Y062625D03*
X010350Y063125D03*
X009850Y062625D03*
X012350Y078125D03*
X011850Y078625D03*
X012850Y078625D03*
X013350Y080125D03*
X013850Y080625D03*
X013350Y081125D03*
X012850Y082625D03*
X012350Y083125D03*
X011850Y082625D03*
X010850Y082625D03*
X010350Y082125D03*
X009850Y082625D03*
X010350Y079125D03*
X009850Y078625D03*
X010850Y078625D03*
X003850Y082125D03*
X003350Y081625D03*
X003350Y082625D03*
X002100Y082125D03*
X001600Y081625D03*
X001600Y082625D03*
X001600Y097625D03*
X002100Y098125D03*
X001600Y098625D03*
X003350Y098625D03*
X003850Y098125D03*
X003350Y097625D03*
X010100Y098625D03*
X010600Y098125D03*
X011100Y098625D03*
X012100Y098625D03*
X012600Y099125D03*
X013100Y098625D03*
X013600Y097125D03*
X014100Y096625D03*
X013600Y096125D03*
X013100Y094625D03*
X012600Y094125D03*
X012100Y094625D03*
X011100Y094625D03*
X010600Y095125D03*
X010100Y094625D03*
X012350Y110125D03*
X011850Y110625D03*
X012850Y110625D03*
X013600Y112125D03*
X014100Y112625D03*
X013600Y113125D03*
X012850Y114625D03*
X012350Y115125D03*
X011850Y114625D03*
X010850Y114625D03*
X010350Y114125D03*
X009850Y114625D03*
X010350Y111125D03*
X009850Y110625D03*
X010850Y110625D03*
X003850Y113875D03*
X003350Y113375D03*
X003350Y114375D03*
X002100Y113875D03*
X001600Y113375D03*
X001600Y114375D03*
X001600Y129375D03*
X002100Y129875D03*
X001600Y130375D03*
X003350Y130375D03*
X003850Y129875D03*
X003350Y129375D03*
X007850Y134125D03*
X008350Y134625D03*
X008850Y134125D03*
X008850Y135625D03*
X008350Y136125D03*
X007850Y135625D03*
X010100Y130625D03*
X010600Y130125D03*
X011100Y130625D03*
X012100Y130625D03*
X012600Y131125D03*
X013100Y130625D03*
X013600Y129125D03*
X014100Y128625D03*
X013600Y128125D03*
X013100Y126625D03*
X012600Y126125D03*
X012100Y126625D03*
X011100Y126625D03*
X010600Y127125D03*
X010100Y126625D03*
X036350Y125125D03*
X036850Y125625D03*
X037350Y125125D03*
X038350Y125375D03*
X038850Y124875D03*
X039350Y125375D03*
X039850Y126625D03*
X040350Y127125D03*
X039850Y127625D03*
X039350Y128875D03*
X038850Y129375D03*
X038350Y128875D03*
X037350Y129125D03*
X036850Y128625D03*
X036350Y129125D03*
X038850Y113375D03*
X038350Y112875D03*
X039350Y112875D03*
X039850Y111625D03*
X040350Y111125D03*
X039850Y110625D03*
X039350Y109375D03*
X038850Y108875D03*
X038350Y109375D03*
X037350Y109125D03*
X036850Y109625D03*
X036350Y109125D03*
X036850Y112625D03*
X036350Y113125D03*
X037350Y113125D03*
X038850Y097375D03*
X038350Y096875D03*
X039350Y096875D03*
X039850Y095625D03*
X040350Y095125D03*
X039850Y094625D03*
X039350Y093375D03*
X038850Y092875D03*
X038350Y093375D03*
X037350Y093125D03*
X036850Y093625D03*
X036350Y093125D03*
X036850Y096625D03*
X036350Y097125D03*
X037350Y097125D03*
X038850Y081375D03*
X038350Y080875D03*
X039350Y080875D03*
X039850Y079625D03*
X040350Y079125D03*
X039850Y078625D03*
X039350Y077375D03*
X038850Y076875D03*
X038350Y077375D03*
X037350Y077125D03*
X036850Y077625D03*
X036350Y077125D03*
X036850Y080625D03*
X036350Y081125D03*
X037350Y081125D03*
X038850Y065375D03*
X038350Y064875D03*
X039350Y064875D03*
X039850Y063625D03*
X040350Y063125D03*
X039850Y062625D03*
X039350Y061375D03*
X038850Y060875D03*
X038350Y061375D03*
X037350Y061125D03*
X036850Y061625D03*
X036350Y061125D03*
X036850Y064625D03*
X036350Y065125D03*
X037350Y065125D03*
X038850Y049375D03*
X038350Y048875D03*
X039350Y048875D03*
X039850Y047625D03*
X040350Y047125D03*
X039850Y046625D03*
X039350Y045375D03*
X038850Y044875D03*
X038350Y045375D03*
X037350Y045125D03*
X036850Y045625D03*
X036350Y045125D03*
X036850Y048625D03*
X036350Y049125D03*
X037350Y049125D03*
X038850Y033375D03*
X038350Y032875D03*
X039350Y032875D03*
X039850Y031625D03*
X040350Y031125D03*
X039850Y030625D03*
X039350Y029375D03*
X038850Y028875D03*
X038350Y029375D03*
X037350Y029125D03*
X036850Y029625D03*
X036350Y029125D03*
X036850Y032625D03*
X036350Y033125D03*
X037350Y033125D03*
X038850Y017375D03*
X038350Y016875D03*
X039350Y016875D03*
X039850Y015625D03*
X040350Y015125D03*
X039850Y014625D03*
X039350Y013375D03*
X038850Y012875D03*
X038350Y013375D03*
X037350Y013125D03*
X036850Y013625D03*
X036350Y013125D03*
X036850Y016625D03*
X036350Y017125D03*
X037350Y017125D03*
X049850Y016625D03*
X050350Y016125D03*
X049850Y015625D03*
X049850Y017625D03*
X050350Y018125D03*
X049850Y018625D03*
X052350Y017125D03*
X052850Y016625D03*
X052850Y017625D03*
X049850Y011625D03*
X050350Y011125D03*
X049850Y010625D03*
X049850Y009625D03*
X050350Y009125D03*
X049850Y008625D03*
X052350Y010125D03*
X052850Y010625D03*
X052850Y009625D03*
X060600Y011625D03*
X061100Y012125D03*
X061600Y011625D03*
X061350Y013125D03*
X060850Y013625D03*
X061350Y014125D03*
X061100Y015125D03*
X060600Y015625D03*
X061600Y015625D03*
X067100Y014875D03*
X067600Y015375D03*
X068100Y014875D03*
X061600Y027625D03*
X061100Y028125D03*
X060600Y027625D03*
X060850Y029625D03*
X061350Y029125D03*
X061350Y030125D03*
X061100Y031125D03*
X060600Y031625D03*
X061600Y031625D03*
X061850Y043625D03*
X061350Y044125D03*
X060850Y043625D03*
X061600Y045125D03*
X061100Y045625D03*
X061600Y046125D03*
X061350Y047125D03*
X060850Y047625D03*
X061850Y047625D03*
X061850Y059625D03*
X061350Y060125D03*
X060850Y059625D03*
X061600Y061125D03*
X061100Y061625D03*
X061600Y062125D03*
X061350Y063125D03*
X060850Y063625D03*
X061850Y063625D03*
X061850Y075625D03*
X061350Y076125D03*
X060850Y075625D03*
X061600Y077125D03*
X061100Y077625D03*
X061600Y078125D03*
X061350Y079125D03*
X061850Y079625D03*
X060850Y079625D03*
X060850Y091625D03*
X061350Y092125D03*
X061850Y091625D03*
X061600Y093125D03*
X061100Y093625D03*
X061600Y094125D03*
X061350Y095125D03*
X061850Y095625D03*
X060850Y095625D03*
X060850Y107625D03*
X061350Y108125D03*
X061850Y107625D03*
X061600Y109125D03*
X061100Y109625D03*
X061600Y110125D03*
X061350Y111125D03*
X061850Y111625D03*
X060850Y111625D03*
X060850Y123625D03*
X061350Y124125D03*
X061850Y123625D03*
X061600Y125125D03*
X061100Y125625D03*
X061600Y126125D03*
X061350Y127125D03*
X061850Y127625D03*
X060850Y127625D03*
X052850Y128625D03*
X052350Y129125D03*
X052850Y129625D03*
X050350Y130125D03*
X049850Y130625D03*
X049850Y129625D03*
X049850Y128625D03*
X050350Y128125D03*
X049850Y127625D03*
X049850Y123625D03*
X050350Y123125D03*
X049850Y122625D03*
X049850Y121625D03*
X050350Y121125D03*
X049850Y120625D03*
X052350Y122125D03*
X052850Y121625D03*
X052850Y122625D03*
X049850Y114625D03*
X050350Y114125D03*
X049850Y113625D03*
X049850Y112625D03*
X050350Y112125D03*
X049850Y111625D03*
X049850Y107625D03*
X050350Y107125D03*
X049850Y106625D03*
X049850Y105625D03*
X050350Y105125D03*
X049850Y104625D03*
X052350Y106125D03*
X052850Y105625D03*
X052850Y106625D03*
X052850Y112625D03*
X052350Y113125D03*
X052850Y113625D03*
X049850Y098625D03*
X050350Y098125D03*
X049850Y097625D03*
X049850Y096625D03*
X050350Y096125D03*
X049850Y095625D03*
X049850Y091625D03*
X050350Y091125D03*
X049850Y090625D03*
X049850Y089625D03*
X050350Y089125D03*
X049850Y088625D03*
X052350Y090125D03*
X052850Y089625D03*
X052850Y090625D03*
X052850Y096625D03*
X052350Y097125D03*
X052850Y097625D03*
X049850Y082625D03*
X050350Y082125D03*
X049850Y081625D03*
X049850Y080625D03*
X050350Y080125D03*
X049850Y079625D03*
X049850Y075625D03*
X050350Y075125D03*
X049850Y074625D03*
X049850Y073625D03*
X050350Y073125D03*
X049850Y072625D03*
X052350Y074125D03*
X052850Y073625D03*
X052850Y074625D03*
X052850Y080625D03*
X052350Y081125D03*
X052850Y081625D03*
X049850Y066625D03*
X050350Y066125D03*
X049850Y065625D03*
X049850Y064625D03*
X050350Y064125D03*
X049850Y063625D03*
X049850Y059625D03*
X050350Y059125D03*
X049850Y058625D03*
X049850Y057625D03*
X050350Y057125D03*
X049850Y056625D03*
X052350Y058125D03*
X052850Y057625D03*
X052850Y058625D03*
X052850Y064625D03*
X052350Y065125D03*
X052850Y065625D03*
X049850Y050625D03*
X050350Y050125D03*
X049850Y049625D03*
X049850Y048625D03*
X050350Y048125D03*
X049850Y047625D03*
X049850Y043625D03*
X050350Y043125D03*
X049850Y042625D03*
X049850Y041625D03*
X050350Y041125D03*
X049850Y040625D03*
X052350Y042125D03*
X052850Y042625D03*
X052850Y041625D03*
X049850Y034625D03*
X050350Y034125D03*
X049850Y033625D03*
X049850Y032625D03*
X050350Y032125D03*
X049850Y031625D03*
X049850Y027625D03*
X050350Y027125D03*
X049850Y026625D03*
X049850Y025625D03*
X050350Y025125D03*
X049850Y024625D03*
X052350Y026125D03*
X052850Y026625D03*
X052850Y025625D03*
X052850Y032625D03*
X052350Y033125D03*
X052850Y033625D03*
X052850Y048625D03*
X052350Y049125D03*
X052850Y049625D03*
D12*
X059600Y005125D03*
X028350Y005125D03*
X024100Y138625D03*
X051600Y138625D03*
D13*
X051600Y139625D03*
X052600Y139625D03*
X052600Y138625D03*
X053600Y138625D03*
X053600Y139625D03*
X054600Y139625D03*
X054600Y138625D03*
X055600Y138625D03*
X055600Y139625D03*
X056600Y139625D03*
X056600Y138625D03*
X057600Y138625D03*
X057600Y139625D03*
X058600Y139625D03*
X058600Y138625D03*
X059600Y138625D03*
X059600Y139625D03*
X060600Y139625D03*
X060600Y138625D03*
X038100Y138625D03*
X038100Y139625D03*
X037100Y139625D03*
X037100Y138625D03*
X036100Y138625D03*
X036100Y139625D03*
X035100Y139625D03*
X035100Y138625D03*
X034100Y138625D03*
X034100Y139625D03*
X033100Y139625D03*
X033100Y138625D03*
X032100Y138625D03*
X032100Y139625D03*
X031100Y139625D03*
X031100Y138625D03*
X030100Y138625D03*
X030100Y139625D03*
X029100Y139625D03*
X029100Y138625D03*
X028100Y138625D03*
X028100Y139625D03*
X027100Y139625D03*
X027100Y138625D03*
X026100Y138625D03*
X026100Y139625D03*
X025100Y139625D03*
X025100Y138625D03*
X024100Y139625D03*
X024350Y005125D03*
X024350Y004125D03*
X023350Y004125D03*
X023350Y005125D03*
X022350Y005125D03*
X022350Y004125D03*
X021350Y004125D03*
X021350Y005125D03*
X020350Y005125D03*
X020350Y004125D03*
X019350Y004125D03*
X019350Y005125D03*
X025350Y005125D03*
X025350Y004125D03*
X026350Y004125D03*
X026350Y005125D03*
X027350Y005125D03*
X027350Y004125D03*
X028350Y004125D03*
X050600Y004125D03*
X050600Y005125D03*
X051600Y005125D03*
X051600Y004125D03*
X052600Y004125D03*
X052600Y005125D03*
X053600Y005125D03*
X053600Y004125D03*
X054600Y004125D03*
X054600Y005125D03*
X055600Y005125D03*
X055600Y004125D03*
X056600Y004125D03*
X056600Y005125D03*
X057600Y005125D03*
X057600Y004125D03*
X058600Y004125D03*
X058600Y005125D03*
X059600Y004125D03*
D14*
X061890Y004415D03*
X048310Y004415D03*
X030640Y004415D03*
X017060Y004415D03*
X021810Y139335D03*
X040390Y139335D03*
X049310Y139335D03*
X062890Y139335D03*
D15*
X023600Y115625D03*
X020850Y083375D03*
X020850Y051375D03*
X020850Y019625D03*
X003850Y004125D03*
X067600Y006125D03*
X002100Y136125D03*
D16*
X007100Y139375D03*
X010350Y139375D03*
D17*
X001350Y003875D03*
X010600Y056125D03*
X010600Y088625D03*
X001350Y139875D03*
X065600Y097625D03*
X068350Y139875D03*
X065600Y049625D03*
X068350Y003875D03*
M02*
