G75*
G70*
%OFA0B0*%
%FSLAX24Y24*%
%IPPOS*%
%LPD*%
%AMOC8*
5,1,8,0,0,1.08239X$1,22.5*
%
%ADD10C,0.0060*%
%ADD11C,0.0080*%
%ADD12C,0.0050*%
%ADD13C,0.0040*%
%ADD14C,0.0030*%
D10*
X004696Y005037D02*
X004803Y004930D01*
X005017Y004930D01*
X005123Y005037D01*
X005123Y005250D01*
X004910Y005250D01*
X004696Y005037D02*
X004696Y005464D01*
X004803Y005571D01*
X005017Y005571D01*
X005123Y005464D01*
X005341Y005571D02*
X005341Y004930D01*
X005768Y004930D02*
X005341Y005571D01*
X005768Y005571D02*
X005768Y004930D01*
X005985Y004930D02*
X005985Y005571D01*
X006306Y005571D01*
X006412Y005464D01*
X006412Y005037D01*
X006306Y004930D01*
X005985Y004930D01*
X012250Y005000D02*
X012250Y006200D01*
X012400Y005800D02*
X012600Y005400D01*
X012800Y005400D01*
X012600Y005400D02*
X012800Y005800D01*
X012450Y005800D01*
X012400Y005800D01*
X012600Y005950D02*
X012600Y005600D01*
X012600Y005500D01*
X012600Y005400D01*
X012400Y005400D01*
X012600Y005400D02*
X012600Y005250D01*
X012950Y005000D02*
X012950Y006200D01*
X013250Y006325D02*
X013250Y004875D01*
X013950Y004875D02*
X013950Y006325D01*
X014250Y006200D02*
X014250Y005000D01*
X014400Y005400D02*
X014600Y005400D01*
X014800Y005400D01*
X014600Y005400D02*
X014800Y005800D01*
X014450Y005800D01*
X014400Y005800D01*
X014600Y005400D01*
X014600Y005500D01*
X014600Y005600D01*
X014600Y005950D01*
X014950Y006200D02*
X014950Y005000D01*
X015250Y004875D02*
X015250Y006325D01*
X015950Y006325D02*
X015950Y004875D01*
X016250Y005000D02*
X016250Y006200D01*
X016400Y005800D02*
X016600Y005400D01*
X016800Y005400D01*
X016600Y005400D02*
X016800Y005800D01*
X016450Y005800D01*
X016400Y005800D01*
X016600Y005950D02*
X016600Y005600D01*
X016600Y005500D01*
X016600Y005400D01*
X016400Y005400D01*
X016600Y005400D02*
X016600Y005250D01*
X016950Y005000D02*
X016950Y006200D01*
X017250Y006325D02*
X017250Y004875D01*
X017950Y004875D02*
X017950Y006325D01*
X018250Y006200D02*
X018250Y005000D01*
X018400Y005400D02*
X018600Y005400D01*
X018800Y005400D01*
X018600Y005400D02*
X018800Y005800D01*
X018450Y005800D01*
X018400Y005800D01*
X018600Y005400D01*
X018600Y005500D01*
X018600Y005600D01*
X018600Y005950D01*
X018950Y006200D02*
X018950Y005000D01*
X019250Y004875D02*
X019250Y006325D01*
X019950Y006325D02*
X019950Y004875D01*
X020250Y005000D02*
X020250Y006200D01*
X020400Y005800D02*
X020600Y005400D01*
X020800Y005400D01*
X020600Y005400D02*
X020800Y005800D01*
X020450Y005800D01*
X020400Y005800D01*
X020600Y005950D02*
X020600Y005600D01*
X020600Y005500D01*
X020600Y005400D01*
X020400Y005400D01*
X020600Y005400D02*
X020600Y005250D01*
X020950Y005000D02*
X020950Y006200D01*
X021250Y006325D02*
X021250Y004875D01*
X021950Y004875D02*
X021950Y006325D01*
X022250Y006200D02*
X022250Y005000D01*
X022400Y005400D02*
X022600Y005400D01*
X022800Y005400D01*
X022600Y005400D02*
X022800Y005800D01*
X022450Y005800D01*
X022400Y005800D01*
X022600Y005400D01*
X022600Y005500D01*
X022600Y005600D01*
X022600Y005950D01*
X022950Y006200D02*
X022950Y005000D01*
X023250Y004875D02*
X023250Y006325D01*
X023950Y006325D02*
X023950Y004875D01*
X023700Y004021D02*
X023487Y004021D01*
X023380Y003914D01*
X023700Y004021D02*
X023807Y003914D01*
X023807Y003807D01*
X023380Y003380D01*
X023807Y003380D01*
X022950Y003200D02*
X022950Y002000D01*
X022800Y002400D02*
X022600Y002400D01*
X022400Y002400D01*
X022600Y002400D02*
X022400Y002800D01*
X022450Y002800D01*
X022800Y002800D01*
X022600Y002400D01*
X022600Y002500D01*
X022600Y002600D01*
X022600Y002950D01*
X022250Y003200D02*
X022250Y002000D01*
X022600Y002250D02*
X022600Y002400D01*
X021700Y003380D02*
X021487Y003380D01*
X021380Y003487D01*
X021594Y003700D02*
X021700Y003700D01*
X021807Y003594D01*
X021807Y003487D01*
X021700Y003380D01*
X021700Y003700D02*
X021807Y003807D01*
X021807Y003914D01*
X021700Y004021D01*
X021487Y004021D01*
X021380Y003914D01*
X020950Y003200D02*
X020950Y002000D01*
X020800Y002400D02*
X020600Y002400D01*
X020400Y002400D01*
X020600Y002400D02*
X020400Y002800D01*
X020450Y002800D01*
X020800Y002800D01*
X020600Y002400D01*
X020600Y002500D01*
X020600Y002600D01*
X020600Y002950D01*
X020250Y003200D02*
X020250Y002000D01*
X020600Y002250D02*
X020600Y002400D01*
X018950Y002000D02*
X018950Y003200D01*
X018800Y002800D02*
X018600Y002400D01*
X018800Y002400D01*
X018600Y002400D02*
X018600Y002250D01*
X018600Y002400D02*
X018400Y002400D01*
X018600Y002400D02*
X018400Y002800D01*
X018450Y002800D01*
X018800Y002800D01*
X018600Y002950D02*
X018600Y002600D01*
X018600Y002500D01*
X018600Y002400D01*
X018250Y002000D02*
X018250Y003200D01*
X016950Y003200D02*
X016950Y002000D01*
X016800Y002400D02*
X016600Y002400D01*
X016400Y002400D01*
X016600Y002400D02*
X016400Y002800D01*
X016450Y002800D01*
X016800Y002800D01*
X016600Y002400D01*
X016600Y002500D01*
X016600Y002600D01*
X016600Y002950D01*
X016250Y003200D02*
X016250Y002000D01*
X016600Y002250D02*
X016600Y002400D01*
X014950Y002000D02*
X014950Y003200D01*
X014800Y002800D02*
X014600Y002400D01*
X014800Y002400D01*
X014600Y002400D02*
X014600Y002250D01*
X014600Y002400D02*
X014400Y002400D01*
X014600Y002400D02*
X014400Y002800D01*
X014450Y002800D01*
X014800Y002800D01*
X014600Y002950D02*
X014600Y002600D01*
X014600Y002500D01*
X014600Y002400D01*
X014250Y002000D02*
X014250Y003200D01*
X012950Y003200D02*
X012950Y002000D01*
X012800Y002400D02*
X012600Y002400D01*
X012400Y002400D01*
X012600Y002400D02*
X012400Y002800D01*
X012450Y002800D01*
X012800Y002800D01*
X012600Y002400D01*
X012600Y002500D01*
X012600Y002600D01*
X012600Y002950D01*
X012250Y003200D02*
X012250Y002000D01*
X012600Y002250D02*
X012600Y002400D01*
X014600Y005250D02*
X014600Y005400D01*
X018600Y005400D02*
X018600Y005250D01*
X022600Y005250D02*
X022600Y005400D01*
X025400Y005750D02*
X025400Y003450D01*
X026300Y003450D02*
X026300Y005750D01*
X028250Y006200D02*
X028250Y005000D01*
X028400Y005400D02*
X028600Y005400D01*
X028800Y005400D01*
X028600Y005400D02*
X028400Y005800D01*
X028450Y005800D01*
X028800Y005800D01*
X028600Y005400D01*
X028600Y005500D01*
X028600Y005600D01*
X028600Y005950D01*
X028950Y006200D02*
X028950Y005000D01*
X029250Y004875D02*
X029250Y006325D01*
X028600Y005400D02*
X028600Y005250D01*
X029594Y004021D02*
X029594Y003380D01*
X029807Y003380D02*
X029380Y003380D01*
X029380Y003807D02*
X029594Y004021D01*
X029950Y004875D02*
X029950Y006325D01*
X030250Y006200D02*
X030250Y005000D01*
X030400Y005400D02*
X030600Y005400D01*
X030800Y005400D01*
X030600Y005400D02*
X030400Y005800D01*
X030450Y005800D01*
X030800Y005800D01*
X030600Y005400D01*
X030600Y005500D01*
X030600Y005600D01*
X030600Y005950D01*
X030950Y006200D02*
X030950Y005000D01*
X031250Y004875D02*
X031250Y006325D01*
X030600Y005400D02*
X030600Y005250D01*
X031487Y004021D02*
X031700Y004021D01*
X031807Y003914D01*
X031380Y003487D01*
X031487Y003380D01*
X031700Y003380D01*
X031807Y003487D01*
X031807Y003914D01*
X031487Y004021D02*
X031380Y003914D01*
X031380Y003487D01*
X030950Y003200D02*
X030950Y002000D01*
X030800Y002400D02*
X030600Y002400D01*
X030400Y002400D01*
X030600Y002400D02*
X030400Y002800D01*
X030450Y002800D01*
X030800Y002800D01*
X030600Y002400D01*
X030600Y002500D01*
X030600Y002600D01*
X030600Y002950D01*
X030250Y003200D02*
X030250Y002000D01*
X030600Y002250D02*
X030600Y002400D01*
X031950Y004875D02*
X031950Y006325D01*
X033929Y007344D02*
X033929Y007557D01*
X033929Y007450D02*
X034463Y007450D01*
X034570Y007344D01*
X034570Y007237D01*
X034463Y007130D01*
X034463Y007775D02*
X034356Y007881D01*
X034356Y008202D01*
X034250Y008202D02*
X034570Y008202D01*
X034570Y007881D01*
X034463Y007775D01*
X034143Y007881D02*
X034143Y008095D01*
X034250Y008202D01*
X034143Y008419D02*
X034143Y008526D01*
X034250Y008633D01*
X034143Y008739D01*
X034250Y008846D01*
X034570Y008846D01*
X034570Y008633D02*
X034250Y008633D01*
X034143Y008419D02*
X034570Y008419D01*
X034463Y009064D02*
X034250Y009064D01*
X034143Y009170D01*
X034143Y009384D01*
X034250Y009491D01*
X034356Y009491D01*
X034356Y009064D01*
X034463Y009064D02*
X034570Y009170D01*
X034570Y009384D01*
X034570Y009708D02*
X034570Y010028D01*
X034463Y010135D01*
X034356Y010028D01*
X034356Y009815D01*
X034250Y009708D01*
X034143Y009815D01*
X034143Y010135D01*
X033929Y010997D02*
X034570Y011424D01*
X033929Y011424D01*
X034250Y011642D02*
X034143Y011749D01*
X034143Y011962D01*
X034250Y012069D01*
X034356Y012069D01*
X034356Y011642D01*
X034250Y011642D02*
X034463Y011642D01*
X034570Y011749D01*
X034570Y011962D01*
X034463Y012286D02*
X034570Y012393D01*
X034463Y012500D01*
X034570Y012607D01*
X034463Y012713D01*
X034143Y012713D01*
X034143Y012931D02*
X034143Y013038D01*
X034250Y013144D01*
X034143Y013251D01*
X034250Y013358D01*
X034570Y013358D01*
X034570Y013144D02*
X034250Y013144D01*
X034143Y012931D02*
X034570Y012931D01*
X034463Y013575D02*
X034356Y013682D01*
X034356Y014003D01*
X034250Y014003D02*
X034570Y014003D01*
X034570Y013682D01*
X034463Y013575D01*
X034143Y013682D02*
X034143Y013896D01*
X034250Y014003D01*
X034143Y014220D02*
X034143Y014540D01*
X034250Y014647D01*
X034570Y014647D01*
X034570Y014220D02*
X034143Y014220D01*
X034143Y012286D02*
X034463Y012286D01*
X034570Y010997D02*
X033929Y010997D01*
X033450Y017750D02*
X033450Y018950D01*
X033300Y018550D02*
X033100Y018150D01*
X033300Y018150D01*
X033100Y018150D02*
X032900Y018150D01*
X033100Y018150D02*
X032900Y018550D01*
X032950Y018550D01*
X033300Y018550D01*
X033100Y018700D02*
X033100Y018350D01*
X033100Y018250D01*
X033100Y018150D01*
X033100Y018000D01*
X032750Y017750D02*
X032750Y018950D01*
X031450Y018950D02*
X031450Y017750D01*
X031300Y018150D02*
X031100Y018150D01*
X030900Y018150D01*
X031100Y018150D02*
X030900Y018550D01*
X030950Y018550D01*
X031300Y018550D01*
X031100Y018150D01*
X031100Y018250D01*
X031100Y018350D01*
X031100Y018700D01*
X030750Y018950D02*
X030750Y017750D01*
X031100Y018000D02*
X031100Y018150D01*
X031750Y020625D02*
X031750Y022075D01*
X031450Y021950D02*
X031450Y020750D01*
X031300Y021150D02*
X031100Y021150D01*
X030900Y021150D01*
X031100Y021150D02*
X030900Y021550D01*
X030950Y021550D01*
X031300Y021550D01*
X031100Y021150D01*
X031100Y021250D01*
X031100Y021350D01*
X031100Y021700D01*
X030750Y021950D02*
X030750Y020750D01*
X031100Y021000D02*
X031100Y021150D01*
X032450Y020625D02*
X032450Y022075D01*
X032750Y021950D02*
X032750Y020750D01*
X032900Y021150D02*
X033100Y021150D01*
X033300Y021150D01*
X033100Y021150D02*
X032900Y021550D01*
X032950Y021550D01*
X033300Y021550D01*
X033100Y021150D01*
X033100Y021250D01*
X033100Y021350D01*
X033100Y021700D01*
X033450Y021950D02*
X033450Y020750D01*
X033750Y020625D02*
X033750Y022075D01*
X034450Y022075D02*
X034450Y020625D01*
X034750Y020750D02*
X034750Y021950D01*
X034900Y021550D02*
X035100Y021150D01*
X035300Y021150D01*
X035100Y021150D02*
X034900Y021150D01*
X035100Y021150D02*
X035300Y021550D01*
X034950Y021550D01*
X034900Y021550D01*
X035100Y021700D02*
X035100Y021350D01*
X035100Y021250D01*
X035100Y021150D01*
X035100Y021000D01*
X035450Y020750D02*
X035450Y021950D01*
X035750Y022075D02*
X035750Y020625D01*
X036450Y020625D02*
X036450Y022075D01*
X035450Y018950D02*
X035450Y017750D01*
X035300Y018150D02*
X035100Y018150D01*
X034900Y018150D01*
X035100Y018150D02*
X034900Y018550D01*
X034950Y018550D01*
X035300Y018550D01*
X035100Y018150D01*
X035100Y018250D01*
X035100Y018350D01*
X035100Y018700D01*
X034750Y018950D02*
X034750Y017750D01*
X035100Y018000D02*
X035100Y018150D01*
X033100Y021000D02*
X033100Y021150D01*
X032950Y024500D02*
X032950Y025700D01*
X032800Y025300D02*
X032450Y025300D01*
X032400Y025300D01*
X032600Y024900D01*
X032800Y024900D01*
X032600Y024900D02*
X032400Y024900D01*
X032600Y024900D02*
X032800Y025300D01*
X032600Y025450D02*
X032600Y025100D01*
X032600Y025000D01*
X032600Y024900D01*
X032600Y024750D01*
X032250Y024500D02*
X032250Y025700D01*
X031950Y027375D02*
X031950Y028825D01*
X032250Y028700D02*
X032250Y027500D01*
X032400Y027900D02*
X032600Y027900D01*
X032800Y027900D01*
X032600Y027900D02*
X032400Y028300D01*
X032450Y028300D01*
X032800Y028300D01*
X032600Y027900D01*
X032600Y028000D01*
X032600Y028100D01*
X032600Y028450D01*
X032950Y028700D02*
X032950Y027500D01*
X033250Y027375D02*
X033250Y028825D01*
X033950Y028825D02*
X033950Y027375D01*
X032600Y027750D02*
X032600Y027900D01*
X031250Y027375D02*
X031250Y028825D01*
X030950Y028700D02*
X030950Y027500D01*
X030800Y027900D02*
X030600Y027900D01*
X030400Y027900D01*
X030600Y027900D02*
X030400Y028300D01*
X030450Y028300D01*
X030800Y028300D01*
X030600Y027900D01*
X030600Y028000D01*
X030600Y028100D01*
X030600Y028450D01*
X030250Y028700D02*
X030250Y027500D01*
X030600Y027750D02*
X030600Y027900D01*
X030250Y025700D02*
X030250Y024500D01*
X030400Y024900D02*
X030600Y024900D01*
X030800Y024900D01*
X030600Y024900D02*
X030400Y025300D01*
X030450Y025300D01*
X030800Y025300D01*
X030600Y024900D01*
X030600Y025000D01*
X030600Y025100D01*
X030600Y025450D01*
X030950Y025700D02*
X030950Y024500D01*
X030600Y024750D02*
X030600Y024900D01*
X030150Y030450D02*
X030150Y032750D01*
X030250Y034000D02*
X030250Y035200D01*
X030400Y034800D02*
X030600Y034400D01*
X030800Y034400D01*
X030600Y034400D02*
X030400Y034400D01*
X030600Y034400D02*
X030800Y034800D01*
X030450Y034800D01*
X030400Y034800D01*
X030600Y034950D02*
X030600Y034600D01*
X030600Y034500D01*
X030600Y034400D01*
X030600Y034250D01*
X030950Y034000D02*
X030950Y035200D01*
X031250Y036875D02*
X031250Y038325D01*
X030950Y038200D02*
X030950Y037000D01*
X030800Y037400D02*
X030600Y037400D01*
X030400Y037400D01*
X030600Y037400D02*
X030400Y037800D01*
X030450Y037800D01*
X030800Y037800D01*
X030600Y037400D01*
X030600Y037500D01*
X030600Y037600D01*
X030600Y037950D01*
X030250Y038200D02*
X030250Y037000D01*
X030600Y037250D02*
X030600Y037400D01*
X031950Y036875D02*
X031950Y038325D01*
X032250Y038200D02*
X032250Y037000D01*
X032400Y037400D02*
X032600Y037400D01*
X032800Y037400D01*
X032600Y037400D02*
X032400Y037800D01*
X032450Y037800D01*
X032800Y037800D01*
X032600Y037400D01*
X032600Y037500D01*
X032600Y037600D01*
X032600Y037950D01*
X032950Y038200D02*
X032950Y037000D01*
X033250Y036875D02*
X033250Y038325D01*
X033950Y038325D02*
X033950Y036875D01*
X034250Y037000D02*
X034250Y038200D01*
X034400Y037800D02*
X034600Y037400D01*
X034800Y037400D01*
X034600Y037400D02*
X034400Y037400D01*
X034600Y037400D02*
X034800Y037800D01*
X034450Y037800D01*
X034400Y037800D01*
X034600Y037950D02*
X034600Y037600D01*
X034600Y037500D01*
X034600Y037400D01*
X034600Y037250D01*
X034950Y037000D02*
X034950Y038200D01*
X035250Y038325D02*
X035250Y036875D01*
X035950Y036875D02*
X035950Y038325D01*
X036250Y038200D02*
X036250Y037000D01*
X036400Y037400D02*
X036600Y037400D01*
X036800Y037400D01*
X036600Y037400D02*
X036400Y037800D01*
X036450Y037800D01*
X036800Y037800D01*
X036600Y037400D01*
X036600Y037500D01*
X036600Y037600D01*
X036600Y037950D01*
X036950Y038200D02*
X036950Y037000D01*
X037250Y036875D02*
X037250Y038325D01*
X037950Y038325D02*
X037950Y036875D01*
X036600Y037250D02*
X036600Y037400D01*
X036250Y035200D02*
X036250Y034000D01*
X036400Y034400D02*
X036600Y034400D01*
X036800Y034400D01*
X036600Y034400D02*
X036400Y034800D01*
X036450Y034800D01*
X036800Y034800D01*
X036600Y034400D01*
X036600Y034500D01*
X036600Y034600D01*
X036600Y034950D01*
X036950Y035200D02*
X036950Y034000D01*
X036600Y034250D02*
X036600Y034400D01*
X034950Y034000D02*
X034950Y035200D01*
X034800Y034800D02*
X034600Y034400D01*
X034800Y034400D01*
X034600Y034400D02*
X034400Y034400D01*
X034600Y034400D02*
X034400Y034800D01*
X034450Y034800D01*
X034800Y034800D01*
X034600Y034950D02*
X034600Y034600D01*
X034600Y034500D01*
X034600Y034400D01*
X034600Y034250D01*
X034250Y034000D02*
X034250Y035200D01*
X032950Y035200D02*
X032950Y034000D01*
X032800Y034400D02*
X032600Y034400D01*
X032400Y034400D01*
X032600Y034400D02*
X032400Y034800D01*
X032450Y034800D01*
X032800Y034800D01*
X032600Y034400D01*
X032600Y034500D01*
X032600Y034600D01*
X032600Y034950D01*
X032250Y035200D02*
X032250Y034000D01*
X032600Y034250D02*
X032600Y034400D01*
X031050Y032750D02*
X031050Y030450D01*
X032600Y037250D02*
X032600Y037400D01*
X032250Y040500D02*
X032250Y041700D01*
X032400Y041300D02*
X032600Y040900D01*
X032800Y040900D01*
X032600Y040900D02*
X032400Y040900D01*
X032600Y040900D02*
X032800Y041300D01*
X032450Y041300D01*
X032400Y041300D01*
X032600Y041450D02*
X032600Y041100D01*
X032600Y041000D01*
X032600Y040900D01*
X032600Y040750D01*
X032950Y040500D02*
X032950Y041700D01*
X033250Y043375D02*
X033250Y044825D01*
X032950Y044700D02*
X032950Y043500D01*
X032800Y043900D02*
X032600Y043900D01*
X032400Y043900D01*
X032600Y043900D02*
X032400Y044300D01*
X032450Y044300D01*
X032800Y044300D01*
X032600Y043900D01*
X032600Y044000D01*
X032600Y044100D01*
X032600Y044450D01*
X032250Y044700D02*
X032250Y043500D01*
X031950Y043375D02*
X031950Y044825D01*
X031250Y044825D02*
X031250Y043375D01*
X030950Y043500D02*
X030950Y044700D01*
X030800Y044300D02*
X030600Y043900D01*
X030800Y043900D01*
X030600Y043900D02*
X030400Y043900D01*
X030600Y043900D02*
X030400Y044300D01*
X030450Y044300D01*
X030800Y044300D01*
X030600Y044450D02*
X030600Y044100D01*
X030600Y044000D01*
X030600Y043900D01*
X030600Y043750D01*
X030250Y043500D02*
X030250Y044700D01*
X030250Y041700D02*
X030250Y040500D01*
X030400Y040900D02*
X030600Y040900D01*
X030800Y040900D01*
X030600Y040900D02*
X030400Y041300D01*
X030450Y041300D01*
X030800Y041300D01*
X030600Y040900D01*
X030600Y041000D01*
X030600Y041100D01*
X030600Y041450D01*
X030950Y041700D02*
X030950Y040500D01*
X030600Y040750D02*
X030600Y040900D01*
X032600Y043750D02*
X032600Y043900D01*
X033950Y043375D02*
X033950Y044825D01*
X034250Y044700D02*
X034250Y043500D01*
X034400Y043900D02*
X034600Y043900D01*
X034800Y043900D01*
X034600Y043900D02*
X034400Y044300D01*
X034450Y044300D01*
X034800Y044300D01*
X034600Y043900D01*
X034600Y044000D01*
X034600Y044100D01*
X034600Y044450D01*
X034950Y044700D02*
X034950Y043500D01*
X035250Y043375D02*
X035250Y044825D01*
X035950Y044825D02*
X035950Y043375D01*
X034600Y043750D02*
X034600Y043900D01*
X034250Y041700D02*
X034250Y040500D01*
X034400Y040900D02*
X034600Y040900D01*
X034800Y040900D01*
X034600Y040900D02*
X034400Y041300D01*
X034450Y041300D01*
X034800Y041300D01*
X034600Y040900D01*
X034600Y041000D01*
X034600Y041100D01*
X034600Y041450D01*
X034950Y041700D02*
X034950Y040500D01*
X034600Y040750D02*
X034600Y040900D01*
X028950Y051500D02*
X028950Y052700D01*
X028800Y052300D02*
X028450Y052300D01*
X028400Y052300D01*
X028600Y051900D01*
X028800Y051900D01*
X028600Y051900D02*
X028400Y051900D01*
X028600Y051900D02*
X028600Y052000D01*
X028600Y052100D01*
X028600Y052450D01*
X028800Y052300D02*
X028600Y051900D01*
X028600Y051750D01*
X028250Y051500D02*
X028250Y052700D01*
X028250Y054500D02*
X028250Y055700D01*
X028400Y055300D02*
X028600Y054900D01*
X028800Y054900D01*
X028600Y054900D02*
X028400Y054900D01*
X028600Y054900D02*
X028600Y055000D01*
X028600Y055100D01*
X028600Y055450D01*
X028450Y055300D02*
X028800Y055300D01*
X028600Y054900D01*
X028600Y054750D01*
X028950Y054500D02*
X028950Y055700D01*
X029250Y055825D02*
X029250Y054375D01*
X029950Y054375D02*
X029950Y055825D01*
X028450Y055300D02*
X028400Y055300D01*
X025950Y055825D02*
X025950Y054375D01*
X025250Y054375D02*
X025250Y055825D01*
X024950Y055700D02*
X024950Y054500D01*
X024800Y054900D02*
X024600Y054900D01*
X024400Y054900D01*
X024600Y054900D02*
X024400Y055300D01*
X024450Y055300D01*
X024800Y055300D01*
X024600Y054900D01*
X024600Y055000D01*
X024600Y055100D01*
X024600Y055450D01*
X024250Y055700D02*
X024250Y054500D01*
X023950Y054375D02*
X023950Y055825D01*
X023250Y055825D02*
X023250Y054375D01*
X022950Y054500D02*
X022950Y055700D01*
X022800Y055300D02*
X022450Y055300D01*
X022400Y055300D01*
X022600Y054900D01*
X022800Y054900D01*
X022600Y054900D02*
X022600Y055000D01*
X022600Y055100D01*
X022600Y055450D01*
X022800Y055300D02*
X022600Y054900D01*
X022400Y054900D01*
X022600Y054900D02*
X022600Y054750D01*
X022250Y054500D02*
X022250Y055700D01*
X021950Y055825D02*
X021950Y054375D01*
X021250Y054375D02*
X021250Y055825D01*
X020950Y055700D02*
X020950Y054500D01*
X020800Y054900D02*
X020600Y054900D01*
X020400Y054900D01*
X020600Y054900D02*
X020400Y055300D01*
X020450Y055300D01*
X020800Y055300D01*
X020600Y054900D01*
X020600Y055000D01*
X020600Y055100D01*
X020600Y055450D01*
X020250Y055700D02*
X020250Y054500D01*
X019950Y054375D02*
X019950Y055825D01*
X019250Y055825D02*
X019250Y054375D01*
X018950Y054500D02*
X018950Y055700D01*
X018800Y055300D02*
X018450Y055300D01*
X018400Y055300D01*
X018600Y054900D01*
X018800Y054900D01*
X018600Y054900D02*
X018600Y055000D01*
X018600Y055100D01*
X018600Y055450D01*
X018800Y055300D02*
X018600Y054900D01*
X018400Y054900D01*
X018600Y054900D02*
X018600Y054750D01*
X018250Y054500D02*
X018250Y055700D01*
X017950Y055825D02*
X017950Y054375D01*
X017250Y054375D02*
X017250Y055825D01*
X016950Y055700D02*
X016950Y054500D01*
X016800Y054900D02*
X016600Y054900D01*
X016400Y054900D01*
X016600Y054900D02*
X016400Y055300D01*
X016450Y055300D01*
X016800Y055300D01*
X016600Y054900D01*
X016600Y055000D01*
X016600Y055100D01*
X016600Y055450D01*
X016250Y055700D02*
X016250Y054500D01*
X015950Y054375D02*
X015950Y055825D01*
X015250Y055825D02*
X015250Y054375D01*
X014950Y054500D02*
X014950Y055700D01*
X014800Y055300D02*
X014450Y055300D01*
X014400Y055300D01*
X014600Y054900D01*
X014800Y054900D01*
X014600Y054900D02*
X014600Y055000D01*
X014600Y055100D01*
X014600Y055450D01*
X014800Y055300D02*
X014600Y054900D01*
X014400Y054900D01*
X014600Y054900D02*
X014600Y054750D01*
X014250Y054500D02*
X014250Y055700D01*
X013950Y055825D02*
X013950Y054375D01*
X013250Y054375D02*
X013250Y055825D01*
X012950Y055700D02*
X012950Y054500D01*
X012800Y054900D02*
X012600Y054900D01*
X012400Y054900D01*
X012600Y054900D02*
X012400Y055300D01*
X012450Y055300D01*
X012800Y055300D01*
X012600Y054900D01*
X012600Y055000D01*
X012600Y055100D01*
X012600Y055450D01*
X012250Y055700D02*
X012250Y054500D01*
X012600Y054750D02*
X012600Y054900D01*
X012250Y052700D02*
X012250Y051500D01*
X012400Y051900D02*
X012600Y051900D01*
X012800Y051900D01*
X012600Y051900D02*
X012400Y052300D01*
X012450Y052300D01*
X012800Y052300D01*
X012600Y051900D01*
X012600Y052000D01*
X012600Y052100D01*
X012600Y052450D01*
X012950Y052700D02*
X012950Y051500D01*
X012600Y051750D02*
X012600Y051900D01*
X014250Y051500D02*
X014250Y052700D01*
X014400Y052300D02*
X014600Y051900D01*
X014800Y051900D01*
X014600Y051900D02*
X014600Y052000D01*
X014600Y052100D01*
X014600Y052450D01*
X014450Y052300D02*
X014800Y052300D01*
X014600Y051900D01*
X014400Y051900D01*
X014600Y051900D02*
X014600Y051750D01*
X014950Y051500D02*
X014950Y052700D01*
X014450Y052300D02*
X014400Y052300D01*
X016250Y052700D02*
X016250Y051500D01*
X016400Y051900D02*
X016600Y051900D01*
X016800Y051900D01*
X016600Y051900D02*
X016400Y052300D01*
X016450Y052300D01*
X016800Y052300D01*
X016600Y051900D01*
X016600Y052000D01*
X016600Y052100D01*
X016600Y052450D01*
X016950Y052700D02*
X016950Y051500D01*
X016600Y051750D02*
X016600Y051900D01*
X018250Y051500D02*
X018250Y052700D01*
X018400Y052300D02*
X018600Y051900D01*
X018800Y051900D01*
X018600Y051900D02*
X018600Y052000D01*
X018600Y052100D01*
X018600Y052450D01*
X018450Y052300D02*
X018800Y052300D01*
X018600Y051900D01*
X018400Y051900D01*
X018600Y051900D02*
X018600Y051750D01*
X018950Y051500D02*
X018950Y052700D01*
X018450Y052300D02*
X018400Y052300D01*
X020250Y052700D02*
X020250Y051500D01*
X020400Y051900D02*
X020600Y051900D01*
X020800Y051900D01*
X020600Y051900D02*
X020400Y052300D01*
X020450Y052300D01*
X020800Y052300D01*
X020600Y051900D01*
X020600Y052000D01*
X020600Y052100D01*
X020600Y052450D01*
X020950Y052700D02*
X020950Y051500D01*
X020600Y051750D02*
X020600Y051900D01*
X022250Y051500D02*
X022250Y052700D01*
X022400Y052300D02*
X022600Y051900D01*
X022800Y051900D01*
X022600Y051900D02*
X022600Y052000D01*
X022600Y052100D01*
X022600Y052450D01*
X022450Y052300D02*
X022800Y052300D01*
X022600Y051900D01*
X022400Y051900D01*
X022600Y051900D02*
X022600Y051750D01*
X022950Y051500D02*
X022950Y052700D01*
X022450Y052300D02*
X022400Y052300D01*
X024250Y052700D02*
X024250Y051500D01*
X024400Y051900D02*
X024600Y051900D01*
X024800Y051900D01*
X024600Y051900D02*
X024400Y052300D01*
X024450Y052300D01*
X024800Y052300D01*
X024600Y051900D01*
X024600Y052000D01*
X024600Y052100D01*
X024600Y052450D01*
X024950Y052700D02*
X024950Y051500D01*
X024600Y051750D02*
X024600Y051900D01*
X024600Y054750D02*
X024600Y054900D01*
X022488Y057880D02*
X022702Y058094D01*
X022702Y058521D01*
X022275Y058521D02*
X022275Y058094D01*
X022488Y057880D01*
X022057Y057987D02*
X021950Y057880D01*
X021737Y057880D01*
X021630Y057987D01*
X021630Y058200D02*
X021844Y058307D01*
X021950Y058307D01*
X022057Y058200D01*
X022057Y057987D01*
X021630Y058200D02*
X021630Y058521D01*
X022057Y058521D01*
X020500Y058550D02*
X018200Y058550D01*
X018200Y057650D02*
X020500Y057650D01*
X020600Y054900D02*
X020600Y054750D01*
X016952Y058094D02*
X016738Y057880D01*
X016525Y058094D01*
X016525Y058521D01*
X016307Y058414D02*
X015880Y057987D01*
X015987Y057880D01*
X016200Y057880D01*
X016307Y057987D01*
X016307Y058414D01*
X016200Y058521D01*
X015987Y058521D01*
X015880Y058414D01*
X015880Y057987D01*
X016952Y058094D02*
X016952Y058521D01*
X016600Y054900D02*
X016600Y054750D01*
X015950Y048825D02*
X015950Y047375D01*
X016250Y047500D02*
X016250Y048700D01*
X016400Y048300D02*
X016600Y047900D01*
X016800Y047900D01*
X016600Y047900D02*
X016800Y048300D01*
X016450Y048300D01*
X016400Y048300D01*
X016600Y048450D02*
X016600Y048100D01*
X016600Y048000D01*
X016600Y047900D01*
X016400Y047900D01*
X016600Y047900D02*
X016600Y047750D01*
X016950Y047500D02*
X016950Y048700D01*
X017250Y048825D02*
X017250Y047375D01*
X017950Y047375D02*
X017950Y048825D01*
X018250Y048700D02*
X018250Y047500D01*
X018400Y047900D02*
X018600Y047900D01*
X018800Y047900D01*
X018600Y047900D02*
X018800Y048300D01*
X018450Y048300D01*
X018400Y048300D01*
X018600Y047900D01*
X018600Y048000D01*
X018600Y048100D01*
X018600Y048450D01*
X018950Y048700D02*
X018950Y047500D01*
X019250Y047375D02*
X019250Y048825D01*
X019950Y048825D02*
X019950Y047375D01*
X020250Y047500D02*
X020250Y048700D01*
X020400Y048300D02*
X020600Y047900D01*
X020800Y047900D01*
X020600Y047900D02*
X020800Y048300D01*
X020450Y048300D01*
X020400Y048300D01*
X020600Y048450D02*
X020600Y048100D01*
X020600Y048000D01*
X020600Y047900D01*
X020400Y047900D01*
X020600Y047900D02*
X020600Y047750D01*
X020950Y047500D02*
X020950Y048700D01*
X021250Y048825D02*
X021250Y047375D01*
X021950Y047375D02*
X021950Y048825D01*
X020950Y045700D02*
X020950Y044500D01*
X020800Y044900D02*
X020600Y044900D01*
X020400Y044900D01*
X020600Y044900D02*
X020400Y045300D01*
X020450Y045300D01*
X020800Y045300D01*
X020600Y044900D01*
X020600Y045000D01*
X020600Y045100D01*
X020600Y045450D01*
X020250Y045700D02*
X020250Y044500D01*
X020600Y044750D02*
X020600Y044900D01*
X018950Y044500D02*
X018950Y045700D01*
X018800Y045300D02*
X018600Y044900D01*
X018800Y044900D01*
X018600Y044900D02*
X018600Y044750D01*
X018600Y044900D02*
X018400Y044900D01*
X018600Y044900D02*
X018400Y045300D01*
X018450Y045300D01*
X018800Y045300D01*
X018600Y045450D02*
X018600Y045100D01*
X018600Y045000D01*
X018600Y044900D01*
X018250Y044500D02*
X018250Y045700D01*
X016950Y045700D02*
X016950Y044500D01*
X016800Y044900D02*
X016600Y044900D01*
X016400Y044900D01*
X016600Y044900D02*
X016400Y045300D01*
X016450Y045300D01*
X016800Y045300D01*
X016600Y044900D01*
X016600Y045000D01*
X016600Y045100D01*
X016600Y045450D01*
X016250Y045700D02*
X016250Y044500D01*
X016600Y044750D02*
X016600Y044900D01*
X014950Y044500D02*
X014950Y045700D01*
X014800Y045300D02*
X014600Y044900D01*
X014800Y044900D01*
X014600Y044900D02*
X014600Y044750D01*
X014600Y044900D02*
X014400Y044900D01*
X014600Y044900D02*
X014400Y045300D01*
X014450Y045300D01*
X014800Y045300D01*
X014600Y045450D02*
X014600Y045100D01*
X014600Y045000D01*
X014600Y044900D01*
X014250Y044500D02*
X014250Y045700D01*
X012950Y045700D02*
X012950Y044500D01*
X012800Y044900D02*
X012600Y044900D01*
X012400Y044900D01*
X012600Y044900D02*
X012400Y045300D01*
X012450Y045300D01*
X012800Y045300D01*
X012600Y044900D01*
X012600Y045000D01*
X012600Y045100D01*
X012600Y045450D01*
X012250Y045700D02*
X012250Y044500D01*
X012600Y044750D02*
X012600Y044900D01*
X013250Y047375D02*
X013250Y048825D01*
X012950Y048700D02*
X012950Y047500D01*
X012800Y047900D02*
X012600Y047900D01*
X012400Y047900D01*
X012600Y047900D02*
X012400Y048300D01*
X012450Y048300D01*
X012800Y048300D01*
X012600Y047900D01*
X012600Y048000D01*
X012600Y048100D01*
X012600Y048450D01*
X012250Y048700D02*
X012250Y047500D01*
X012600Y047750D02*
X012600Y047900D01*
X013950Y047375D02*
X013950Y048825D01*
X014250Y048700D02*
X014250Y047500D01*
X014400Y047900D02*
X014600Y047900D01*
X014800Y047900D01*
X014600Y047900D02*
X014800Y048300D01*
X014450Y048300D01*
X014400Y048300D01*
X014600Y047900D01*
X014600Y048000D01*
X014600Y048100D01*
X014600Y048450D01*
X014950Y048700D02*
X014950Y047500D01*
X015250Y047375D02*
X015250Y048825D01*
X014600Y047900D02*
X014600Y047750D01*
X013950Y041825D02*
X013950Y040375D01*
X014250Y040500D02*
X014250Y041700D01*
X014400Y041300D02*
X014600Y040900D01*
X014800Y040900D01*
X014600Y040900D02*
X014800Y041300D01*
X014450Y041300D01*
X014400Y041300D01*
X014600Y041450D02*
X014600Y041100D01*
X014600Y041000D01*
X014600Y040900D01*
X014400Y040900D01*
X014600Y040900D02*
X014600Y040750D01*
X014950Y040500D02*
X014950Y041700D01*
X015250Y041825D02*
X015250Y040375D01*
X015950Y040375D02*
X015950Y041825D01*
X016250Y041700D02*
X016250Y040500D01*
X016400Y040900D02*
X016600Y040900D01*
X016800Y040900D01*
X016600Y040900D02*
X016400Y041300D01*
X016450Y041300D01*
X016800Y041300D01*
X016600Y040900D01*
X016600Y041000D01*
X016600Y041100D01*
X016600Y041450D01*
X016950Y041700D02*
X016950Y040500D01*
X017250Y040375D02*
X017250Y041825D01*
X017950Y041825D02*
X017950Y040375D01*
X018250Y040500D02*
X018250Y041700D01*
X018400Y041300D02*
X018600Y040900D01*
X018800Y040900D01*
X018600Y040900D02*
X018800Y041300D01*
X018450Y041300D01*
X018400Y041300D01*
X018600Y041450D02*
X018600Y041100D01*
X018600Y041000D01*
X018600Y040900D01*
X018400Y040900D01*
X018600Y040900D02*
X018600Y040750D01*
X018950Y040500D02*
X018950Y041700D01*
X019250Y041825D02*
X019250Y040375D01*
X019950Y040375D02*
X019950Y041825D01*
X020250Y041700D02*
X020250Y040500D01*
X020400Y040900D02*
X020600Y040900D01*
X020800Y040900D01*
X020600Y040900D02*
X020400Y041300D01*
X020450Y041300D01*
X020800Y041300D01*
X020600Y040900D01*
X020600Y041000D01*
X020600Y041100D01*
X020600Y041450D01*
X020950Y041700D02*
X020950Y040500D01*
X021250Y040375D02*
X021250Y041825D01*
X021950Y041825D02*
X021950Y040375D01*
X020950Y038700D02*
X020950Y037500D01*
X020800Y037900D02*
X020600Y037900D01*
X020400Y037900D01*
X020600Y037900D02*
X020400Y038300D01*
X020450Y038300D01*
X020800Y038300D01*
X020600Y037900D01*
X020600Y038000D01*
X020600Y038100D01*
X020600Y038450D01*
X020250Y038700D02*
X020250Y037500D01*
X020600Y037750D02*
X020600Y037900D01*
X019950Y035825D02*
X019950Y034375D01*
X020250Y034500D02*
X020250Y035700D01*
X020400Y035300D02*
X020600Y034900D01*
X020800Y034900D01*
X020600Y034900D02*
X020800Y035300D01*
X020450Y035300D01*
X020400Y035300D01*
X020600Y035450D02*
X020600Y035100D01*
X020600Y035000D01*
X020600Y034900D01*
X020400Y034900D01*
X020600Y034900D02*
X020600Y034750D01*
X020950Y034500D02*
X020950Y035700D01*
X021250Y035825D02*
X021250Y034375D01*
X021950Y034375D02*
X021950Y035825D01*
X020950Y032700D02*
X020950Y031500D01*
X020800Y031900D02*
X020600Y031900D01*
X020400Y031900D01*
X020600Y031900D02*
X020400Y032300D01*
X020450Y032300D01*
X020800Y032300D01*
X020600Y031900D01*
X020600Y032000D01*
X020600Y032100D01*
X020600Y032450D01*
X020250Y032700D02*
X020250Y031500D01*
X020600Y031750D02*
X020600Y031900D01*
X018950Y031500D02*
X018950Y032700D01*
X018800Y032300D02*
X018600Y031900D01*
X018800Y031900D01*
X018600Y031900D02*
X018400Y032300D01*
X018450Y032300D01*
X018800Y032300D01*
X018600Y032450D02*
X018600Y032100D01*
X018600Y032000D01*
X018600Y031900D01*
X018400Y031900D01*
X018600Y031900D02*
X018600Y031750D01*
X018250Y031500D02*
X018250Y032700D01*
X016950Y032700D02*
X016950Y031500D01*
X016800Y031900D02*
X016600Y031900D01*
X016400Y031900D01*
X016600Y031900D02*
X016400Y032300D01*
X016450Y032300D01*
X016800Y032300D01*
X016600Y031900D01*
X016600Y032000D01*
X016600Y032100D01*
X016600Y032450D01*
X016250Y032700D02*
X016250Y031500D01*
X016600Y031750D02*
X016600Y031900D01*
X014950Y031500D02*
X014950Y032700D01*
X014800Y032300D02*
X014600Y031900D01*
X014800Y031900D01*
X014600Y031900D02*
X014400Y032300D01*
X014450Y032300D01*
X014800Y032300D01*
X014600Y032450D02*
X014600Y032100D01*
X014600Y032000D01*
X014600Y031900D01*
X014400Y031900D01*
X014600Y031900D02*
X014600Y031750D01*
X014250Y031500D02*
X014250Y032700D01*
X012950Y032700D02*
X012950Y031500D01*
X012800Y031900D02*
X012600Y031900D01*
X012400Y031900D01*
X012600Y031900D02*
X012400Y032300D01*
X012450Y032300D01*
X012800Y032300D01*
X012600Y031900D01*
X012600Y032000D01*
X012600Y032100D01*
X012600Y032450D01*
X012250Y032700D02*
X012250Y031500D01*
X012600Y031750D02*
X012600Y031900D01*
X010950Y031500D02*
X010950Y032700D01*
X010800Y032300D02*
X010600Y031900D01*
X010800Y031900D01*
X010600Y031900D02*
X010400Y032300D01*
X010450Y032300D01*
X010800Y032300D01*
X010600Y032450D02*
X010600Y032100D01*
X010600Y032000D01*
X010600Y031900D01*
X010400Y031900D01*
X010600Y031900D02*
X010600Y031750D01*
X010250Y031500D02*
X010250Y032700D01*
X008950Y032700D02*
X008950Y031500D01*
X008800Y031900D02*
X008600Y031900D01*
X008400Y031900D01*
X008600Y031900D02*
X008400Y032300D01*
X008450Y032300D01*
X008800Y032300D01*
X008600Y031900D01*
X008600Y032000D01*
X008600Y032100D01*
X008600Y032450D01*
X008250Y032700D02*
X008250Y031500D01*
X008600Y031750D02*
X008600Y031900D01*
X007800Y030750D02*
X007800Y028450D01*
X008250Y028200D02*
X008250Y027000D01*
X008400Y027400D02*
X008600Y027400D01*
X008800Y027400D01*
X008600Y027400D02*
X008400Y027800D01*
X008450Y027800D01*
X008800Y027800D01*
X008600Y027400D01*
X008600Y027500D01*
X008600Y027600D01*
X008600Y027950D01*
X008950Y028200D02*
X008950Y027000D01*
X009250Y026875D02*
X009250Y028325D01*
X009950Y028325D02*
X009950Y026875D01*
X010250Y027000D02*
X010250Y028200D01*
X010400Y027800D02*
X010600Y027400D01*
X010800Y027400D01*
X010600Y027400D02*
X010600Y027500D01*
X010600Y027600D01*
X010600Y027950D01*
X010450Y027800D02*
X010800Y027800D01*
X010600Y027400D01*
X010400Y027400D01*
X010600Y027400D02*
X010600Y027250D01*
X010950Y027000D02*
X010950Y028200D01*
X011250Y028325D02*
X011250Y026875D01*
X011950Y026875D02*
X011950Y028325D01*
X012250Y028200D02*
X012250Y027000D01*
X012400Y027400D02*
X012600Y027400D01*
X012800Y027400D01*
X012600Y027400D02*
X012400Y027800D01*
X012450Y027800D01*
X012800Y027800D01*
X012600Y027400D01*
X012600Y027500D01*
X012600Y027600D01*
X012600Y027950D01*
X012950Y028200D02*
X012950Y027000D01*
X013250Y026875D02*
X013250Y028325D01*
X013950Y028325D02*
X013950Y026875D01*
X014250Y027000D02*
X014250Y028200D01*
X014400Y027800D02*
X014600Y027400D01*
X014800Y027400D01*
X014600Y027400D02*
X014600Y027500D01*
X014600Y027600D01*
X014600Y027950D01*
X014450Y027800D02*
X014800Y027800D01*
X014600Y027400D01*
X014400Y027400D01*
X014600Y027400D02*
X014600Y027250D01*
X014950Y027000D02*
X014950Y028200D01*
X015250Y028325D02*
X015250Y026875D01*
X015950Y026875D02*
X015950Y028325D01*
X016250Y028200D02*
X016250Y027000D01*
X016400Y027400D02*
X016600Y027400D01*
X016800Y027400D01*
X016600Y027400D02*
X016400Y027800D01*
X016450Y027800D01*
X016800Y027800D01*
X016600Y027400D01*
X016600Y027500D01*
X016600Y027600D01*
X016600Y027950D01*
X016950Y028200D02*
X016950Y027000D01*
X017250Y026875D02*
X017250Y028325D01*
X017950Y028325D02*
X017950Y026875D01*
X018250Y027000D02*
X018250Y028200D01*
X018400Y027800D02*
X018600Y027400D01*
X018800Y027400D01*
X018600Y027400D02*
X018600Y027500D01*
X018600Y027600D01*
X018600Y027950D01*
X018450Y027800D02*
X018800Y027800D01*
X018600Y027400D01*
X018400Y027400D01*
X018600Y027400D02*
X018600Y027250D01*
X018950Y027000D02*
X018950Y028200D01*
X019250Y028325D02*
X019250Y026875D01*
X019950Y026875D02*
X019950Y028325D01*
X020250Y028200D02*
X020250Y027000D01*
X020400Y027400D02*
X020600Y027400D01*
X020800Y027400D01*
X020600Y027400D02*
X020400Y027800D01*
X020450Y027800D01*
X020800Y027800D01*
X020600Y027400D01*
X020600Y027500D01*
X020600Y027600D01*
X020600Y027950D01*
X020950Y028200D02*
X020950Y027000D01*
X021250Y026875D02*
X021250Y028325D01*
X021950Y028325D02*
X021950Y026875D01*
X022250Y027000D02*
X022250Y028200D01*
X022400Y027800D02*
X022600Y027400D01*
X022800Y027400D01*
X022600Y027400D02*
X022600Y027500D01*
X022600Y027600D01*
X022600Y027950D01*
X022450Y027800D02*
X022800Y027800D01*
X022600Y027400D01*
X022400Y027400D01*
X022600Y027400D02*
X022600Y027250D01*
X022950Y027000D02*
X022950Y028200D01*
X023250Y028325D02*
X023250Y026875D01*
X023950Y026875D02*
X023950Y028325D01*
X022450Y027800D02*
X022400Y027800D01*
X022250Y025200D02*
X022250Y024000D01*
X022400Y024400D02*
X022600Y024400D01*
X022800Y024400D01*
X022600Y024400D02*
X022400Y024800D01*
X022450Y024800D01*
X022800Y024800D01*
X022600Y024400D01*
X022600Y024500D01*
X022600Y024600D01*
X022600Y024950D01*
X022950Y025200D02*
X022950Y024000D01*
X022600Y024250D02*
X022600Y024400D01*
X021950Y022325D02*
X021950Y020875D01*
X022250Y021000D02*
X022250Y022200D01*
X022400Y021800D02*
X022600Y021400D01*
X022800Y021400D01*
X022600Y021400D02*
X022600Y021500D01*
X022600Y021600D01*
X022600Y021950D01*
X022450Y021800D02*
X022800Y021800D01*
X022600Y021400D01*
X022400Y021400D01*
X022600Y021400D02*
X022600Y021250D01*
X022950Y021000D02*
X022950Y022200D01*
X023250Y022325D02*
X023250Y020875D01*
X023950Y020875D02*
X023950Y022325D01*
X022450Y021800D02*
X022400Y021800D01*
X021250Y022325D02*
X021250Y020875D01*
X020950Y021000D02*
X020950Y022200D01*
X020800Y021800D02*
X020450Y021800D01*
X020400Y021800D01*
X020600Y021400D01*
X020800Y021400D01*
X020600Y021400D02*
X020600Y021500D01*
X020600Y021600D01*
X020600Y021950D01*
X020800Y021800D02*
X020600Y021400D01*
X020400Y021400D01*
X020600Y021400D02*
X020600Y021250D01*
X020250Y021000D02*
X020250Y022200D01*
X019950Y022325D02*
X019950Y020875D01*
X019250Y020875D02*
X019250Y022325D01*
X018950Y022200D02*
X018950Y021000D01*
X018800Y021400D02*
X018600Y021400D01*
X018400Y021400D01*
X018600Y021400D02*
X018400Y021800D01*
X018450Y021800D01*
X018800Y021800D01*
X018600Y021400D01*
X018600Y021500D01*
X018600Y021600D01*
X018600Y021950D01*
X018250Y022200D02*
X018250Y021000D01*
X017950Y020875D02*
X017950Y022325D01*
X017250Y022325D02*
X017250Y020875D01*
X016950Y021000D02*
X016950Y022200D01*
X016800Y021800D02*
X016450Y021800D01*
X016400Y021800D01*
X016600Y021400D01*
X016800Y021400D01*
X016600Y021400D02*
X016600Y021500D01*
X016600Y021600D01*
X016600Y021950D01*
X016800Y021800D02*
X016600Y021400D01*
X016400Y021400D01*
X016600Y021400D02*
X016600Y021250D01*
X016250Y021000D02*
X016250Y022200D01*
X015950Y022325D02*
X015950Y020875D01*
X015250Y020875D02*
X015250Y022325D01*
X014950Y022200D02*
X014950Y021000D01*
X014800Y021400D02*
X014600Y021400D01*
X014400Y021400D01*
X014600Y021400D02*
X014400Y021800D01*
X014450Y021800D01*
X014800Y021800D01*
X014600Y021400D01*
X014600Y021500D01*
X014600Y021600D01*
X014600Y021950D01*
X014250Y022200D02*
X014250Y021000D01*
X013950Y020875D02*
X013950Y022325D01*
X013250Y022325D02*
X013250Y020875D01*
X012950Y021000D02*
X012950Y022200D01*
X012800Y021800D02*
X012450Y021800D01*
X012400Y021800D01*
X012600Y021400D01*
X012800Y021400D01*
X012600Y021400D02*
X012600Y021500D01*
X012600Y021600D01*
X012600Y021950D01*
X012800Y021800D02*
X012600Y021400D01*
X012400Y021400D01*
X012600Y021400D02*
X012600Y021250D01*
X012250Y021000D02*
X012250Y022200D01*
X012250Y024000D02*
X012250Y025200D01*
X012400Y024800D02*
X012600Y024400D01*
X012800Y024400D01*
X012600Y024400D02*
X012600Y024500D01*
X012600Y024600D01*
X012600Y024950D01*
X012450Y024800D02*
X012800Y024800D01*
X012600Y024400D01*
X012400Y024400D01*
X012600Y024400D02*
X012600Y024250D01*
X012950Y024000D02*
X012950Y025200D01*
X012450Y024800D02*
X012400Y024800D01*
X010950Y025200D02*
X010950Y024000D01*
X010800Y024400D02*
X010600Y024400D01*
X010400Y024400D01*
X010600Y024400D02*
X010400Y024800D01*
X010450Y024800D01*
X010800Y024800D01*
X010600Y024400D01*
X010600Y024500D01*
X010600Y024600D01*
X010600Y024950D01*
X010250Y025200D02*
X010250Y024000D01*
X010600Y024250D02*
X010600Y024400D01*
X008950Y024000D02*
X008950Y025200D01*
X008800Y024800D02*
X008450Y024800D01*
X008400Y024800D01*
X008600Y024400D01*
X008800Y024400D01*
X008600Y024400D02*
X008600Y024500D01*
X008600Y024600D01*
X008600Y024950D01*
X008800Y024800D02*
X008600Y024400D01*
X008400Y024400D01*
X008600Y024400D02*
X008600Y024250D01*
X008250Y024000D02*
X008250Y025200D01*
X008600Y027250D02*
X008600Y027400D01*
X006900Y028450D02*
X006900Y030750D01*
X006200Y030325D02*
X006200Y028875D01*
X005500Y028875D02*
X005500Y030325D01*
X008250Y034500D02*
X008250Y035700D01*
X008400Y035300D02*
X008600Y034900D01*
X008800Y034900D01*
X008600Y034900D02*
X008800Y035300D01*
X008450Y035300D01*
X008400Y035300D01*
X008600Y035450D02*
X008600Y035100D01*
X008600Y035000D01*
X008600Y034900D01*
X008400Y034900D01*
X008600Y034900D02*
X008600Y034750D01*
X008950Y034500D02*
X008950Y035700D01*
X009250Y035825D02*
X009250Y034375D01*
X009950Y034375D02*
X009950Y035825D01*
X010250Y035700D02*
X010250Y034500D01*
X010400Y034900D02*
X010600Y034900D01*
X010800Y034900D01*
X010600Y034900D02*
X010400Y035300D01*
X010450Y035300D01*
X010800Y035300D01*
X010600Y034900D01*
X010600Y035000D01*
X010600Y035100D01*
X010600Y035450D01*
X010950Y035700D02*
X010950Y034500D01*
X011250Y034375D02*
X011250Y035825D01*
X011950Y035825D02*
X011950Y034375D01*
X012250Y034500D02*
X012250Y035700D01*
X012400Y035300D02*
X012600Y034900D01*
X012800Y034900D01*
X012600Y034900D02*
X012800Y035300D01*
X012450Y035300D01*
X012400Y035300D01*
X012600Y035450D02*
X012600Y035100D01*
X012600Y035000D01*
X012600Y034900D01*
X012400Y034900D01*
X012600Y034900D02*
X012600Y034750D01*
X012950Y034500D02*
X012950Y035700D01*
X013250Y035825D02*
X013250Y034375D01*
X013950Y034375D02*
X013950Y035825D01*
X014250Y035700D02*
X014250Y034500D01*
X014400Y034900D02*
X014600Y034900D01*
X014800Y034900D01*
X014600Y034900D02*
X014400Y035300D01*
X014450Y035300D01*
X014800Y035300D01*
X014600Y034900D01*
X014600Y035000D01*
X014600Y035100D01*
X014600Y035450D01*
X014950Y035700D02*
X014950Y034500D01*
X015250Y034375D02*
X015250Y035825D01*
X015950Y035825D02*
X015950Y034375D01*
X016250Y034500D02*
X016250Y035700D01*
X016400Y035300D02*
X016600Y034900D01*
X016800Y034900D01*
X016600Y034900D02*
X016800Y035300D01*
X016450Y035300D01*
X016400Y035300D01*
X016600Y035450D02*
X016600Y035100D01*
X016600Y035000D01*
X016600Y034900D01*
X016400Y034900D01*
X016600Y034900D02*
X016600Y034750D01*
X016950Y034500D02*
X016950Y035700D01*
X017250Y035825D02*
X017250Y034375D01*
X017950Y034375D02*
X017950Y035825D01*
X018250Y035700D02*
X018250Y034500D01*
X018400Y034900D02*
X018600Y034900D01*
X018800Y034900D01*
X018600Y034900D02*
X018400Y035300D01*
X018450Y035300D01*
X018800Y035300D01*
X018600Y034900D01*
X018600Y035000D01*
X018600Y035100D01*
X018600Y035450D01*
X018950Y035700D02*
X018950Y034500D01*
X019250Y034375D02*
X019250Y035825D01*
X018600Y034900D02*
X018600Y034750D01*
X018250Y037500D02*
X018250Y038700D01*
X018400Y038300D02*
X018600Y037900D01*
X018800Y037900D01*
X018600Y037900D02*
X018800Y038300D01*
X018450Y038300D01*
X018400Y038300D01*
X018600Y038450D02*
X018600Y038100D01*
X018600Y038000D01*
X018600Y037900D01*
X018400Y037900D01*
X018600Y037900D02*
X018600Y037750D01*
X018950Y037500D02*
X018950Y038700D01*
X020600Y040750D02*
X020600Y040900D01*
X016950Y038700D02*
X016950Y037500D01*
X016800Y037900D02*
X016600Y037900D01*
X016400Y037900D01*
X016600Y037900D02*
X016400Y038300D01*
X016450Y038300D01*
X016800Y038300D01*
X016600Y037900D01*
X016600Y038000D01*
X016600Y038100D01*
X016600Y038450D01*
X016250Y038700D02*
X016250Y037500D01*
X016600Y037750D02*
X016600Y037900D01*
X014950Y037500D02*
X014950Y038700D01*
X014800Y038300D02*
X014600Y037900D01*
X014800Y037900D01*
X014600Y037900D02*
X014400Y038300D01*
X014450Y038300D01*
X014800Y038300D01*
X014600Y038450D02*
X014600Y038100D01*
X014600Y038000D01*
X014600Y037900D01*
X014400Y037900D01*
X014600Y037900D02*
X014600Y037750D01*
X014250Y037500D02*
X014250Y038700D01*
X012950Y038700D02*
X012950Y037500D01*
X012800Y037900D02*
X012600Y037900D01*
X012400Y037900D01*
X012600Y037900D02*
X012400Y038300D01*
X012450Y038300D01*
X012800Y038300D01*
X012600Y037900D01*
X012600Y038000D01*
X012600Y038100D01*
X012600Y038450D01*
X012250Y038700D02*
X012250Y037500D01*
X012600Y037750D02*
X012600Y037900D01*
X013250Y040375D02*
X013250Y041825D01*
X012950Y041700D02*
X012950Y040500D01*
X012800Y040900D02*
X012600Y040900D01*
X012400Y040900D01*
X012600Y040900D02*
X012400Y041300D01*
X012450Y041300D01*
X012800Y041300D01*
X012600Y040900D01*
X012600Y041000D01*
X012600Y041100D01*
X012600Y041450D01*
X012250Y041700D02*
X012250Y040500D01*
X012600Y040750D02*
X012600Y040900D01*
X016600Y040900D02*
X016600Y040750D01*
X014600Y034900D02*
X014600Y034750D01*
X010600Y034750D02*
X010600Y034900D01*
X010450Y027800D02*
X010400Y027800D01*
X012600Y027400D02*
X012600Y027250D01*
X014250Y025200D02*
X014250Y024000D01*
X014400Y024400D02*
X014600Y024400D01*
X014800Y024400D01*
X014600Y024400D02*
X014400Y024800D01*
X014450Y024800D01*
X014800Y024800D01*
X014600Y024400D01*
X014600Y024500D01*
X014600Y024600D01*
X014600Y024950D01*
X014950Y025200D02*
X014950Y024000D01*
X014600Y024250D02*
X014600Y024400D01*
X016250Y024000D02*
X016250Y025200D01*
X016400Y024800D02*
X016600Y024400D01*
X016800Y024400D01*
X016600Y024400D02*
X016600Y024500D01*
X016600Y024600D01*
X016600Y024950D01*
X016450Y024800D02*
X016800Y024800D01*
X016600Y024400D01*
X016400Y024400D01*
X016600Y024400D02*
X016600Y024250D01*
X016950Y024000D02*
X016950Y025200D01*
X016450Y024800D02*
X016400Y024800D01*
X018250Y025200D02*
X018250Y024000D01*
X018400Y024400D02*
X018600Y024400D01*
X018800Y024400D01*
X018600Y024400D02*
X018400Y024800D01*
X018450Y024800D01*
X018800Y024800D01*
X018600Y024400D01*
X018600Y024500D01*
X018600Y024600D01*
X018600Y024950D01*
X018950Y025200D02*
X018950Y024000D01*
X018600Y024250D02*
X018600Y024400D01*
X020250Y024000D02*
X020250Y025200D01*
X020400Y024800D02*
X020600Y024400D01*
X020800Y024400D01*
X020600Y024400D02*
X020600Y024500D01*
X020600Y024600D01*
X020600Y024950D01*
X020450Y024800D02*
X020800Y024800D01*
X020600Y024400D01*
X020400Y024400D01*
X020600Y024400D02*
X020600Y024250D01*
X020950Y024000D02*
X020950Y025200D01*
X020450Y024800D02*
X020400Y024800D01*
X020600Y027250D02*
X020600Y027400D01*
X018450Y027800D02*
X018400Y027800D01*
X016600Y027400D02*
X016600Y027250D01*
X014450Y027800D02*
X014400Y027800D01*
X014600Y021400D02*
X014600Y021250D01*
X014250Y019200D02*
X014250Y018000D01*
X014400Y018400D02*
X014600Y018400D01*
X014800Y018400D01*
X014600Y018400D02*
X014400Y018800D01*
X014450Y018800D01*
X014800Y018800D01*
X014600Y018400D01*
X014600Y018500D01*
X014600Y018600D01*
X014600Y018950D01*
X014950Y019200D02*
X014950Y018000D01*
X014600Y018250D02*
X014600Y018400D01*
X012950Y018000D02*
X012950Y019200D01*
X012800Y018800D02*
X012450Y018800D01*
X012400Y018800D01*
X012600Y018400D01*
X012800Y018400D01*
X012600Y018400D02*
X012800Y018800D01*
X012600Y018950D02*
X012600Y018600D01*
X012600Y018500D01*
X012600Y018400D01*
X012400Y018400D01*
X012600Y018400D02*
X012600Y018250D01*
X012250Y018000D02*
X012250Y019200D01*
X012250Y015700D02*
X012250Y014500D01*
X012400Y014900D02*
X012600Y014900D01*
X012800Y014900D01*
X012600Y014900D02*
X012400Y015300D01*
X012450Y015300D01*
X012800Y015300D01*
X012600Y014900D01*
X012600Y015000D01*
X012600Y015100D01*
X012600Y015450D01*
X012950Y015700D02*
X012950Y014500D01*
X013250Y014375D02*
X013250Y015825D01*
X013950Y015825D02*
X013950Y014375D01*
X014250Y014500D02*
X014250Y015700D01*
X014400Y015300D02*
X014600Y014900D01*
X014800Y014900D01*
X014600Y014900D02*
X014600Y015000D01*
X014600Y015100D01*
X014600Y015450D01*
X014450Y015300D02*
X014800Y015300D01*
X014600Y014900D01*
X014400Y014900D01*
X014600Y014900D02*
X014600Y014750D01*
X014950Y014500D02*
X014950Y015700D01*
X015250Y015825D02*
X015250Y014375D01*
X015950Y014375D02*
X015950Y015825D01*
X016250Y015700D02*
X016250Y014500D01*
X016400Y014900D02*
X016600Y014900D01*
X016800Y014900D01*
X016600Y014900D02*
X016400Y015300D01*
X016450Y015300D01*
X016800Y015300D01*
X016600Y014900D01*
X016600Y015000D01*
X016600Y015100D01*
X016600Y015450D01*
X016950Y015700D02*
X016950Y014500D01*
X017250Y014375D02*
X017250Y015825D01*
X017950Y015825D02*
X017950Y014375D01*
X018250Y014500D02*
X018250Y015700D01*
X018400Y015300D02*
X018600Y014900D01*
X018800Y014900D01*
X018600Y014900D02*
X018600Y015000D01*
X018600Y015100D01*
X018600Y015450D01*
X018450Y015300D02*
X018800Y015300D01*
X018600Y014900D01*
X018400Y014900D01*
X018600Y014900D02*
X018600Y014750D01*
X018950Y014500D02*
X018950Y015700D01*
X019250Y015825D02*
X019250Y014375D01*
X019950Y014375D02*
X019950Y015825D01*
X020250Y015700D02*
X020250Y014500D01*
X020400Y014900D02*
X020600Y014900D01*
X020800Y014900D01*
X020600Y014900D02*
X020400Y015300D01*
X020450Y015300D01*
X020800Y015300D01*
X020600Y014900D01*
X020600Y015000D01*
X020600Y015100D01*
X020600Y015450D01*
X020950Y015700D02*
X020950Y014500D01*
X021250Y014375D02*
X021250Y015825D01*
X021950Y015825D02*
X021950Y014375D01*
X020950Y012700D02*
X020950Y011500D01*
X020800Y011900D02*
X020600Y011900D01*
X020400Y011900D01*
X020600Y011900D02*
X020400Y012300D01*
X020450Y012300D01*
X020800Y012300D01*
X020600Y011900D01*
X020600Y012000D01*
X020600Y012100D01*
X020600Y012450D01*
X020250Y012700D02*
X020250Y011500D01*
X020600Y011750D02*
X020600Y011900D01*
X018950Y011500D02*
X018950Y012700D01*
X018800Y012300D02*
X018450Y012300D01*
X018400Y012300D01*
X018600Y011900D01*
X018800Y011900D01*
X018600Y011900D02*
X018600Y012000D01*
X018600Y012100D01*
X018600Y012450D01*
X018800Y012300D02*
X018600Y011900D01*
X018400Y011900D01*
X018600Y011900D02*
X018600Y011750D01*
X018250Y011500D02*
X018250Y012700D01*
X016950Y012700D02*
X016950Y011500D01*
X016800Y011900D02*
X016600Y011900D01*
X016400Y011900D01*
X016600Y011900D02*
X016400Y012300D01*
X016450Y012300D01*
X016800Y012300D01*
X016600Y011900D01*
X016600Y012000D01*
X016600Y012100D01*
X016600Y012450D01*
X016250Y012700D02*
X016250Y011500D01*
X016600Y011750D02*
X016600Y011900D01*
X014950Y011500D02*
X014950Y012700D01*
X014800Y012300D02*
X014450Y012300D01*
X014400Y012300D01*
X014600Y011900D01*
X014800Y011900D01*
X014600Y011900D02*
X014600Y012000D01*
X014600Y012100D01*
X014600Y012450D01*
X014800Y012300D02*
X014600Y011900D01*
X014400Y011900D01*
X014600Y011900D02*
X014600Y011750D01*
X014250Y011500D02*
X014250Y012700D01*
X012950Y012700D02*
X012950Y011500D01*
X012800Y011900D02*
X012600Y011900D01*
X012400Y011900D01*
X012600Y011900D02*
X012400Y012300D01*
X012450Y012300D01*
X012800Y012300D01*
X012600Y011900D01*
X012600Y012000D01*
X012600Y012100D01*
X012600Y012450D01*
X012250Y012700D02*
X012250Y011500D01*
X012600Y011750D02*
X012600Y011900D01*
X012600Y014750D02*
X012600Y014900D01*
X014400Y015300D02*
X014450Y015300D01*
X016600Y014900D02*
X016600Y014750D01*
X018400Y015300D02*
X018450Y015300D01*
X020600Y014900D02*
X020600Y014750D01*
X020250Y018000D02*
X020250Y019200D01*
X020400Y018800D02*
X020600Y018400D01*
X020800Y018400D01*
X020600Y018400D02*
X020800Y018800D01*
X020450Y018800D01*
X020400Y018800D01*
X020600Y018950D02*
X020600Y018600D01*
X020600Y018500D01*
X020600Y018400D01*
X020400Y018400D01*
X020600Y018400D02*
X020600Y018250D01*
X020950Y018000D02*
X020950Y019200D01*
X022250Y019200D02*
X022250Y018000D01*
X022400Y018400D02*
X022600Y018400D01*
X022800Y018400D01*
X022600Y018400D02*
X022400Y018800D01*
X022450Y018800D01*
X022800Y018800D01*
X022600Y018400D01*
X022600Y018500D01*
X022600Y018600D01*
X022600Y018950D01*
X022950Y019200D02*
X022950Y018000D01*
X022600Y018250D02*
X022600Y018400D01*
X018950Y018000D02*
X018950Y019200D01*
X018800Y018800D02*
X018450Y018800D01*
X018400Y018800D01*
X018600Y018400D01*
X018800Y018400D01*
X018600Y018400D02*
X018800Y018800D01*
X018600Y018950D02*
X018600Y018600D01*
X018600Y018500D01*
X018600Y018400D01*
X018400Y018400D01*
X018600Y018400D02*
X018600Y018250D01*
X018250Y018000D02*
X018250Y019200D01*
X016950Y019200D02*
X016950Y018000D01*
X016800Y018400D02*
X016600Y018400D01*
X016400Y018400D01*
X016600Y018400D02*
X016400Y018800D01*
X016450Y018800D01*
X016800Y018800D01*
X016600Y018400D01*
X016600Y018500D01*
X016600Y018600D01*
X016600Y018950D01*
X016250Y019200D02*
X016250Y018000D01*
X016600Y018250D02*
X016600Y018400D01*
X018600Y021250D02*
X018600Y021400D01*
X028250Y003200D02*
X028250Y002000D01*
X028400Y002400D02*
X028600Y002400D01*
X028800Y002400D01*
X028600Y002400D02*
X028400Y002800D01*
X028450Y002800D01*
X028800Y002800D01*
X028600Y002400D01*
X028600Y002500D01*
X028600Y002600D01*
X028600Y002950D01*
X028950Y003200D02*
X028950Y002000D01*
X028600Y002250D02*
X028600Y002400D01*
X018600Y047750D02*
X018600Y047900D01*
D11*
X032389Y015734D02*
X033310Y015734D01*
X033310Y015427D02*
X033310Y016041D01*
X032696Y015427D02*
X032389Y015734D01*
X033463Y015120D02*
X033463Y014506D01*
X033310Y013892D02*
X032389Y013892D01*
X032389Y013586D02*
X032389Y014199D01*
X032543Y013279D02*
X032389Y013125D01*
X032389Y012818D01*
X032543Y012665D01*
X033157Y012665D01*
X033310Y012818D01*
X033310Y013125D01*
X033157Y013279D01*
X032543Y013279D01*
X032543Y012358D02*
X032850Y012358D01*
X033003Y012204D01*
X033003Y011744D01*
X033003Y012051D02*
X033310Y012358D01*
X033310Y011744D02*
X032389Y011744D01*
X032389Y012204D01*
X032543Y012358D01*
X032543Y011437D02*
X032850Y011437D01*
X033003Y011284D01*
X033003Y010823D01*
X033310Y010823D02*
X032389Y010823D01*
X032389Y011284D01*
X032543Y011437D01*
X033463Y010516D02*
X033463Y009902D01*
X033003Y009442D02*
X033003Y008982D01*
X033310Y008982D02*
X032389Y008982D01*
X032389Y009442D01*
X032543Y009595D01*
X032850Y009595D01*
X033003Y009442D01*
X032696Y008675D02*
X032543Y008675D01*
X032389Y008521D01*
X032389Y008214D01*
X032543Y008061D01*
X032543Y007754D02*
X032850Y007754D01*
X033003Y007600D01*
X033003Y007140D01*
X033310Y007140D02*
X032389Y007140D01*
X032389Y007600D01*
X032543Y007754D01*
X033310Y008061D02*
X032696Y008675D01*
X033310Y008675D02*
X033310Y008061D01*
D12*
X030750Y005750D02*
X030650Y005550D01*
X030600Y005500D02*
X030650Y005700D01*
X030700Y005700D01*
X030600Y005500D01*
X030450Y005800D01*
X030450Y005750D02*
X030500Y005750D01*
X030600Y005600D01*
X030550Y005700D02*
X030650Y005700D01*
X030750Y005750D02*
X030500Y005750D01*
X028750Y005750D02*
X028650Y005550D01*
X028600Y005500D02*
X028650Y005700D01*
X028700Y005700D01*
X028600Y005500D01*
X028450Y005800D01*
X028450Y005750D02*
X028500Y005750D01*
X028600Y005600D01*
X028550Y005700D02*
X028650Y005700D01*
X028750Y005750D02*
X028500Y005750D01*
X028450Y002800D02*
X028600Y002500D01*
X028650Y002700D01*
X028700Y002700D01*
X028600Y002500D01*
X028650Y002550D02*
X028750Y002750D01*
X028500Y002750D01*
X028600Y002600D01*
X028550Y002700D02*
X028650Y002700D01*
X028500Y002750D02*
X028450Y002750D01*
X030450Y002750D02*
X030500Y002750D01*
X030600Y002600D01*
X030650Y002550D02*
X030750Y002750D01*
X030500Y002750D01*
X030550Y002700D02*
X030650Y002700D01*
X030600Y002500D01*
X030700Y002700D01*
X030650Y002700D01*
X030600Y002500D02*
X030450Y002800D01*
X022750Y002750D02*
X022650Y002550D01*
X022600Y002500D02*
X022650Y002700D01*
X022700Y002700D01*
X022600Y002500D01*
X022450Y002800D01*
X022450Y002750D02*
X022500Y002750D01*
X022600Y002600D01*
X022550Y002700D02*
X022650Y002700D01*
X022750Y002750D02*
X022500Y002750D01*
X020750Y002750D02*
X020650Y002550D01*
X020600Y002500D02*
X020650Y002700D01*
X020700Y002700D01*
X020600Y002500D01*
X020450Y002800D01*
X020450Y002750D02*
X020500Y002750D01*
X020600Y002600D01*
X020550Y002700D02*
X020650Y002700D01*
X020750Y002750D02*
X020500Y002750D01*
X018750Y002750D02*
X018650Y002550D01*
X018600Y002500D02*
X018650Y002700D01*
X018700Y002700D01*
X018600Y002500D01*
X018450Y002800D01*
X018450Y002750D02*
X018500Y002750D01*
X018600Y002600D01*
X018550Y002700D02*
X018650Y002700D01*
X018750Y002750D02*
X018500Y002750D01*
X016750Y002750D02*
X016650Y002550D01*
X016600Y002500D02*
X016650Y002700D01*
X016700Y002700D01*
X016600Y002500D01*
X016450Y002800D01*
X016450Y002750D02*
X016500Y002750D01*
X016600Y002600D01*
X016550Y002700D02*
X016650Y002700D01*
X016750Y002750D02*
X016500Y002750D01*
X014750Y002750D02*
X014650Y002550D01*
X014600Y002500D02*
X014650Y002700D01*
X014700Y002700D01*
X014600Y002500D01*
X014450Y002800D01*
X014450Y002750D02*
X014500Y002750D01*
X014600Y002600D01*
X014550Y002700D02*
X014650Y002700D01*
X014750Y002750D02*
X014500Y002750D01*
X012750Y002750D02*
X012650Y002550D01*
X012600Y002500D02*
X012650Y002700D01*
X012700Y002700D01*
X012600Y002500D01*
X012450Y002800D01*
X012450Y002750D02*
X012500Y002750D01*
X012600Y002600D01*
X012550Y002700D02*
X012650Y002700D01*
X012750Y002750D02*
X012500Y002750D01*
X012600Y005500D02*
X012650Y005700D01*
X012700Y005700D01*
X012600Y005500D01*
X012450Y005800D01*
X012450Y005750D02*
X012500Y005750D01*
X012600Y005600D01*
X012650Y005550D02*
X012750Y005750D01*
X012500Y005750D01*
X012550Y005700D02*
X012650Y005700D01*
X014450Y005750D02*
X014500Y005750D01*
X014600Y005600D01*
X014650Y005550D02*
X014750Y005750D01*
X014500Y005750D01*
X014550Y005700D02*
X014650Y005700D01*
X014600Y005500D01*
X014700Y005700D01*
X014650Y005700D01*
X014600Y005500D02*
X014450Y005800D01*
X016450Y005800D02*
X016600Y005500D01*
X016650Y005700D01*
X016700Y005700D01*
X016600Y005500D01*
X016650Y005550D02*
X016750Y005750D01*
X016500Y005750D01*
X016600Y005600D01*
X016550Y005700D02*
X016650Y005700D01*
X016500Y005750D02*
X016450Y005750D01*
X018450Y005750D02*
X018500Y005750D01*
X018600Y005600D01*
X018650Y005550D02*
X018750Y005750D01*
X018500Y005750D01*
X018550Y005700D02*
X018650Y005700D01*
X018600Y005500D01*
X018700Y005700D01*
X018650Y005700D01*
X018600Y005500D02*
X018450Y005800D01*
X020450Y005800D02*
X020600Y005500D01*
X020650Y005700D01*
X020700Y005700D01*
X020600Y005500D01*
X020650Y005550D02*
X020750Y005750D01*
X020500Y005750D01*
X020600Y005600D01*
X020550Y005700D02*
X020650Y005700D01*
X020500Y005750D02*
X020450Y005750D01*
X022450Y005750D02*
X022500Y005750D01*
X022600Y005600D01*
X022650Y005550D02*
X022750Y005750D01*
X022500Y005750D01*
X022550Y005700D02*
X022650Y005700D01*
X022600Y005500D01*
X022700Y005700D01*
X022650Y005700D01*
X022600Y005500D02*
X022450Y005800D01*
X020600Y012000D02*
X020650Y012200D01*
X020700Y012200D01*
X020600Y012000D01*
X020450Y012300D01*
X020450Y012250D02*
X020500Y012250D01*
X020600Y012100D01*
X020650Y012050D02*
X020750Y012250D01*
X020500Y012250D01*
X020550Y012200D02*
X020650Y012200D01*
X018750Y012250D02*
X018650Y012050D01*
X018600Y012000D02*
X018650Y012200D01*
X018700Y012200D01*
X018600Y012000D01*
X018450Y012300D01*
X018450Y012250D02*
X018500Y012250D01*
X018600Y012100D01*
X018550Y012200D02*
X018650Y012200D01*
X018750Y012250D02*
X018500Y012250D01*
X016750Y012250D02*
X016650Y012050D01*
X016600Y012000D02*
X016650Y012200D01*
X016700Y012200D01*
X016600Y012000D01*
X016450Y012300D01*
X016450Y012250D02*
X016500Y012250D01*
X016600Y012100D01*
X016550Y012200D02*
X016650Y012200D01*
X016750Y012250D02*
X016500Y012250D01*
X014750Y012250D02*
X014650Y012050D01*
X014600Y012000D02*
X014650Y012200D01*
X014700Y012200D01*
X014600Y012000D01*
X014450Y012300D01*
X014450Y012250D02*
X014500Y012250D01*
X014600Y012100D01*
X014550Y012200D02*
X014650Y012200D01*
X014750Y012250D02*
X014500Y012250D01*
X012750Y012250D02*
X012650Y012050D01*
X012600Y012000D02*
X012650Y012200D01*
X012700Y012200D01*
X012600Y012000D01*
X012450Y012300D01*
X012450Y012250D02*
X012500Y012250D01*
X012600Y012100D01*
X012550Y012200D02*
X012650Y012200D01*
X012750Y012250D02*
X012500Y012250D01*
X010350Y012850D02*
X010350Y014850D01*
X009850Y014850D01*
X009850Y012850D01*
X010350Y012850D01*
X010350Y012856D02*
X009850Y012856D01*
X009850Y012904D02*
X010350Y012904D01*
X010350Y012953D02*
X009850Y012953D01*
X009850Y013001D02*
X010350Y013001D01*
X010350Y013050D02*
X009850Y013050D01*
X009850Y013098D02*
X010350Y013098D01*
X010350Y013147D02*
X009850Y013147D01*
X009850Y013195D02*
X010350Y013195D01*
X010350Y013244D02*
X009850Y013244D01*
X009850Y013292D02*
X010350Y013292D01*
X010350Y013341D02*
X009850Y013341D01*
X009850Y013389D02*
X010350Y013389D01*
X010350Y013438D02*
X009850Y013438D01*
X009850Y013486D02*
X010350Y013486D01*
X010350Y013535D02*
X009850Y013535D01*
X009850Y013583D02*
X010350Y013583D01*
X010350Y013632D02*
X009850Y013632D01*
X009850Y013680D02*
X010350Y013680D01*
X010350Y013729D02*
X009850Y013729D01*
X009850Y013777D02*
X010350Y013777D01*
X010350Y013826D02*
X009850Y013826D01*
X009850Y013874D02*
X010350Y013874D01*
X010350Y013923D02*
X009850Y013923D01*
X009850Y013971D02*
X010350Y013971D01*
X010350Y014020D02*
X009850Y014020D01*
X009850Y014068D02*
X010350Y014068D01*
X010350Y014117D02*
X009850Y014117D01*
X009850Y014165D02*
X010350Y014165D01*
X010350Y014214D02*
X009850Y014214D01*
X009850Y014262D02*
X010350Y014262D01*
X010350Y014311D02*
X009850Y014311D01*
X009850Y014359D02*
X010350Y014359D01*
X010350Y014408D02*
X009850Y014408D01*
X009850Y014456D02*
X010350Y014456D01*
X010350Y014505D02*
X009850Y014505D01*
X009850Y014553D02*
X010350Y014553D01*
X010350Y014602D02*
X009850Y014602D01*
X009850Y014650D02*
X010350Y014650D01*
X010350Y014699D02*
X009850Y014699D01*
X009850Y014747D02*
X010350Y014747D01*
X010350Y014796D02*
X009850Y014796D01*
X009850Y014844D02*
X010350Y014844D01*
X012450Y015250D02*
X012500Y015250D01*
X012600Y015100D01*
X012650Y015050D02*
X012750Y015250D01*
X012500Y015250D01*
X012550Y015200D02*
X012650Y015200D01*
X012600Y015000D01*
X012700Y015200D01*
X012650Y015200D01*
X012600Y015000D02*
X012450Y015300D01*
X014450Y015300D02*
X014600Y015000D01*
X014650Y015200D01*
X014700Y015200D01*
X014600Y015000D01*
X014650Y015050D02*
X014750Y015250D01*
X014500Y015250D01*
X014600Y015100D01*
X014550Y015200D02*
X014650Y015200D01*
X014500Y015250D02*
X014450Y015250D01*
X016450Y015250D02*
X016500Y015250D01*
X016600Y015100D01*
X016650Y015050D02*
X016750Y015250D01*
X016500Y015250D01*
X016550Y015200D02*
X016650Y015200D01*
X016600Y015000D01*
X016700Y015200D01*
X016650Y015200D01*
X016600Y015000D02*
X016450Y015300D01*
X018450Y015300D02*
X018600Y015000D01*
X018650Y015200D01*
X018700Y015200D01*
X018600Y015000D01*
X018650Y015050D02*
X018750Y015250D01*
X018500Y015250D01*
X018600Y015100D01*
X018550Y015200D02*
X018650Y015200D01*
X018500Y015250D02*
X018450Y015250D01*
X020450Y015250D02*
X020500Y015250D01*
X020600Y015100D01*
X020650Y015050D02*
X020750Y015250D01*
X020500Y015250D01*
X020550Y015200D02*
X020650Y015200D01*
X020600Y015000D01*
X020700Y015200D01*
X020650Y015200D01*
X020600Y015000D02*
X020450Y015300D01*
X020600Y018500D02*
X020650Y018700D01*
X020700Y018700D01*
X020600Y018500D01*
X020450Y018800D01*
X020450Y018750D02*
X020500Y018750D01*
X020600Y018600D01*
X020650Y018550D02*
X020750Y018750D01*
X020500Y018750D01*
X020550Y018700D02*
X020650Y018700D01*
X022450Y018750D02*
X022500Y018750D01*
X022600Y018600D01*
X022650Y018550D02*
X022750Y018750D01*
X022500Y018750D01*
X022550Y018700D02*
X022650Y018700D01*
X022600Y018500D01*
X022700Y018700D01*
X022650Y018700D01*
X022600Y018500D02*
X022450Y018800D01*
X022600Y021500D02*
X022650Y021700D01*
X022700Y021700D01*
X022600Y021500D01*
X022450Y021800D01*
X022450Y021750D02*
X022500Y021750D01*
X022600Y021600D01*
X022650Y021550D02*
X022750Y021750D01*
X022500Y021750D01*
X022550Y021700D02*
X022650Y021700D01*
X020750Y021750D02*
X020650Y021550D01*
X020600Y021500D02*
X020650Y021700D01*
X020700Y021700D01*
X020600Y021500D01*
X020450Y021800D01*
X020450Y021750D02*
X020500Y021750D01*
X020600Y021600D01*
X020550Y021700D02*
X020650Y021700D01*
X020750Y021750D02*
X020500Y021750D01*
X018750Y021750D02*
X018650Y021550D01*
X018600Y021500D02*
X018650Y021700D01*
X018700Y021700D01*
X018600Y021500D01*
X018450Y021800D01*
X018450Y021750D02*
X018500Y021750D01*
X018600Y021600D01*
X018550Y021700D02*
X018650Y021700D01*
X018750Y021750D02*
X018500Y021750D01*
X016750Y021750D02*
X016650Y021550D01*
X016600Y021500D02*
X016650Y021700D01*
X016700Y021700D01*
X016600Y021500D01*
X016450Y021800D01*
X016450Y021750D02*
X016500Y021750D01*
X016600Y021600D01*
X016550Y021700D02*
X016650Y021700D01*
X016750Y021750D02*
X016500Y021750D01*
X014750Y021750D02*
X014650Y021550D01*
X014600Y021500D02*
X014650Y021700D01*
X014700Y021700D01*
X014600Y021500D01*
X014450Y021800D01*
X014450Y021750D02*
X014500Y021750D01*
X014600Y021600D01*
X014550Y021700D02*
X014650Y021700D01*
X014750Y021750D02*
X014500Y021750D01*
X012750Y021750D02*
X012650Y021550D01*
X012600Y021500D02*
X012650Y021700D01*
X012700Y021700D01*
X012600Y021500D01*
X012450Y021800D01*
X012450Y021750D02*
X012500Y021750D01*
X012600Y021600D01*
X012550Y021700D02*
X012650Y021700D01*
X012750Y021750D02*
X012500Y021750D01*
X010350Y022350D02*
X009350Y022350D01*
X007350Y022350D01*
X006350Y022350D01*
X004600Y020350D02*
X004600Y018350D01*
X004100Y018350D01*
X004100Y020350D01*
X004600Y020350D01*
X004600Y020325D02*
X004100Y020325D01*
X004100Y020276D02*
X004600Y020276D01*
X004600Y020228D02*
X004100Y020228D01*
X004100Y020179D02*
X004600Y020179D01*
X004600Y020131D02*
X004100Y020131D01*
X004100Y020082D02*
X004600Y020082D01*
X004600Y020034D02*
X004100Y020034D01*
X004100Y019985D02*
X004600Y019985D01*
X004600Y019937D02*
X004100Y019937D01*
X004100Y019888D02*
X004600Y019888D01*
X004600Y019840D02*
X004100Y019840D01*
X004100Y019791D02*
X004600Y019791D01*
X004600Y019743D02*
X004100Y019743D01*
X004100Y019694D02*
X004600Y019694D01*
X004600Y019646D02*
X004100Y019646D01*
X004100Y019597D02*
X004600Y019597D01*
X004600Y019549D02*
X004100Y019549D01*
X004100Y019500D02*
X004600Y019500D01*
X004600Y019452D02*
X004100Y019452D01*
X004100Y019403D02*
X004600Y019403D01*
X004600Y019355D02*
X004100Y019355D01*
X004100Y019306D02*
X004600Y019306D01*
X004600Y019258D02*
X004100Y019258D01*
X004100Y019209D02*
X004600Y019209D01*
X004600Y019161D02*
X004100Y019161D01*
X004100Y019112D02*
X004600Y019112D01*
X004600Y019064D02*
X004100Y019064D01*
X004100Y019015D02*
X004600Y019015D01*
X004600Y018967D02*
X004100Y018967D01*
X004100Y018918D02*
X004600Y018918D01*
X004600Y018870D02*
X004100Y018870D01*
X004100Y018821D02*
X004600Y018821D01*
X004600Y018773D02*
X004100Y018773D01*
X004100Y018724D02*
X004600Y018724D01*
X004600Y018676D02*
X004100Y018676D01*
X004100Y018627D02*
X004600Y018627D01*
X004600Y018579D02*
X004100Y018579D01*
X004100Y018530D02*
X004600Y018530D01*
X004600Y018482D02*
X004100Y018482D01*
X004100Y018433D02*
X004600Y018433D01*
X004600Y018385D02*
X004100Y018385D01*
X004850Y014850D02*
X004350Y014600D01*
X004850Y014350D01*
X004850Y014850D01*
X004850Y014844D02*
X004838Y014844D01*
X004850Y014796D02*
X004741Y014796D01*
X004644Y014747D02*
X004850Y014747D01*
X004850Y014699D02*
X004547Y014699D01*
X004450Y014650D02*
X004850Y014650D01*
X004850Y014602D02*
X004353Y014602D01*
X004444Y014553D02*
X004850Y014553D01*
X004850Y014505D02*
X004541Y014505D01*
X004638Y014456D02*
X004850Y014456D01*
X004850Y014408D02*
X004735Y014408D01*
X004832Y014359D02*
X004850Y014359D01*
X006350Y014850D02*
X006350Y012850D01*
X004600Y010850D02*
X003600Y010850D01*
X001600Y010850D01*
X000600Y010850D01*
X000600Y018350D02*
X000600Y020350D01*
X000600Y027850D02*
X001600Y027850D01*
X003600Y027850D01*
X004600Y027850D01*
X004600Y031600D02*
X003600Y031600D01*
X001600Y031600D01*
X000600Y031600D01*
X004350Y035350D02*
X004850Y035600D01*
X004850Y035100D01*
X004350Y035350D01*
X004369Y035360D02*
X004850Y035360D01*
X004850Y035408D02*
X004466Y035408D01*
X004428Y035311D02*
X004850Y035311D01*
X004850Y035263D02*
X004525Y035263D01*
X004622Y035214D02*
X004850Y035214D01*
X004850Y035166D02*
X004719Y035166D01*
X004816Y035117D02*
X004850Y035117D01*
X004850Y035457D02*
X004563Y035457D01*
X004660Y035505D02*
X004850Y035505D01*
X004850Y035554D02*
X004757Y035554D01*
X006100Y037100D02*
X007100Y037100D01*
X009100Y037100D01*
X010100Y037100D01*
X010450Y035300D02*
X010600Y035000D01*
X010650Y035200D01*
X010700Y035200D01*
X010600Y035000D01*
X010650Y035050D02*
X010750Y035250D01*
X010500Y035250D01*
X010600Y035100D01*
X010550Y035200D02*
X010650Y035200D01*
X010500Y035250D02*
X010450Y035250D01*
X008750Y035250D02*
X008650Y035050D01*
X008600Y035000D02*
X008650Y035200D01*
X008700Y035200D01*
X008600Y035000D01*
X008450Y035300D01*
X008450Y035250D02*
X008500Y035250D01*
X008600Y035100D01*
X008550Y035200D02*
X008650Y035200D01*
X008750Y035250D02*
X008500Y035250D01*
X008450Y032300D02*
X008600Y032000D01*
X008650Y032200D01*
X008700Y032200D01*
X008600Y032000D01*
X008650Y032050D02*
X008750Y032250D01*
X008500Y032250D01*
X008600Y032100D01*
X008550Y032200D02*
X008650Y032200D01*
X008500Y032250D02*
X008450Y032250D01*
X010450Y032250D02*
X010500Y032250D01*
X010600Y032100D01*
X010650Y032050D02*
X010750Y032250D01*
X010500Y032250D01*
X010450Y032300D02*
X010600Y032000D01*
X010650Y032200D01*
X010700Y032200D01*
X010600Y032000D01*
X010550Y032200D02*
X010650Y032200D01*
X012450Y032250D02*
X012500Y032250D01*
X012600Y032100D01*
X012650Y032050D02*
X012750Y032250D01*
X012500Y032250D01*
X012450Y032300D02*
X012600Y032000D01*
X012650Y032200D01*
X012700Y032200D01*
X012600Y032000D01*
X012550Y032200D02*
X012650Y032200D01*
X014450Y032250D02*
X014500Y032250D01*
X014600Y032100D01*
X014650Y032050D02*
X014750Y032250D01*
X014500Y032250D01*
X014450Y032300D02*
X014600Y032000D01*
X014650Y032200D01*
X014700Y032200D01*
X014600Y032000D01*
X014550Y032200D02*
X014650Y032200D01*
X016450Y032250D02*
X016500Y032250D01*
X016600Y032100D01*
X016650Y032050D02*
X016750Y032250D01*
X016500Y032250D01*
X016450Y032300D02*
X016600Y032000D01*
X016650Y032200D01*
X016700Y032200D01*
X016600Y032000D01*
X016550Y032200D02*
X016650Y032200D01*
X018450Y032250D02*
X018500Y032250D01*
X018600Y032100D01*
X018650Y032050D02*
X018750Y032250D01*
X018500Y032250D01*
X018450Y032300D02*
X018600Y032000D01*
X018650Y032200D01*
X018700Y032200D01*
X018600Y032000D01*
X018550Y032200D02*
X018650Y032200D01*
X020450Y032250D02*
X020500Y032250D01*
X020600Y032100D01*
X020650Y032050D02*
X020750Y032250D01*
X020500Y032250D01*
X020450Y032300D02*
X020600Y032000D01*
X020650Y032200D01*
X020700Y032200D01*
X020600Y032000D01*
X020550Y032200D02*
X020650Y032200D01*
X020600Y035000D02*
X020650Y035200D01*
X020700Y035200D01*
X020600Y035000D01*
X020450Y035300D01*
X020450Y035250D02*
X020500Y035250D01*
X020600Y035100D01*
X020650Y035050D02*
X020750Y035250D01*
X020500Y035250D01*
X020550Y035200D02*
X020650Y035200D01*
X018750Y035250D02*
X018650Y035050D01*
X018600Y035000D02*
X018650Y035200D01*
X018700Y035200D01*
X018600Y035000D01*
X018450Y035300D01*
X018450Y035250D02*
X018500Y035250D01*
X018600Y035100D01*
X018550Y035200D02*
X018650Y035200D01*
X018750Y035250D02*
X018500Y035250D01*
X016750Y035250D02*
X016650Y035050D01*
X016600Y035000D02*
X016650Y035200D01*
X016700Y035200D01*
X016600Y035000D01*
X016450Y035300D01*
X016450Y035250D02*
X016500Y035250D01*
X016600Y035100D01*
X016550Y035200D02*
X016650Y035200D01*
X016750Y035250D02*
X016500Y035250D01*
X014750Y035250D02*
X014650Y035050D01*
X014600Y035000D02*
X014650Y035200D01*
X014700Y035200D01*
X014600Y035000D01*
X014450Y035300D01*
X014450Y035250D02*
X014500Y035250D01*
X014600Y035100D01*
X014550Y035200D02*
X014650Y035200D01*
X014750Y035250D02*
X014500Y035250D01*
X012750Y035250D02*
X012650Y035050D01*
X012600Y035000D02*
X012650Y035200D01*
X012700Y035200D01*
X012600Y035000D01*
X012450Y035300D01*
X012450Y035250D02*
X012500Y035250D01*
X012600Y035100D01*
X012550Y035200D02*
X012650Y035200D01*
X012750Y035250D02*
X012500Y035250D01*
X012600Y038000D02*
X012650Y038200D01*
X012700Y038200D01*
X012600Y038000D01*
X012450Y038300D01*
X012450Y038250D02*
X012500Y038250D01*
X012600Y038100D01*
X012650Y038050D02*
X012750Y038250D01*
X012500Y038250D01*
X012550Y038200D02*
X012650Y038200D01*
X014450Y038250D02*
X014500Y038250D01*
X014600Y038100D01*
X014650Y038050D02*
X014750Y038250D01*
X014500Y038250D01*
X014450Y038300D02*
X014600Y038000D01*
X014650Y038200D01*
X014700Y038200D01*
X014600Y038000D01*
X014550Y038200D02*
X014650Y038200D01*
X016450Y038250D02*
X016500Y038250D01*
X016600Y038100D01*
X016650Y038050D02*
X016750Y038250D01*
X016500Y038250D01*
X016450Y038300D02*
X016600Y038000D01*
X016650Y038200D01*
X016700Y038200D01*
X016600Y038000D01*
X016550Y038200D02*
X016650Y038200D01*
X018450Y038250D02*
X018500Y038250D01*
X018600Y038100D01*
X018650Y038050D02*
X018750Y038250D01*
X018500Y038250D01*
X018450Y038300D02*
X018600Y038000D01*
X018650Y038200D01*
X018700Y038200D01*
X018600Y038000D01*
X018550Y038200D02*
X018650Y038200D01*
X020450Y038250D02*
X020500Y038250D01*
X020600Y038100D01*
X020650Y038050D02*
X020750Y038250D01*
X020500Y038250D01*
X020450Y038300D02*
X020600Y038000D01*
X020650Y038200D01*
X020700Y038200D01*
X020600Y038000D01*
X020550Y038200D02*
X020650Y038200D01*
X020600Y041000D02*
X020650Y041200D01*
X020700Y041200D01*
X020600Y041000D01*
X020450Y041300D01*
X020450Y041250D02*
X020500Y041250D01*
X020600Y041100D01*
X020650Y041050D02*
X020750Y041250D01*
X020500Y041250D01*
X020550Y041200D02*
X020650Y041200D01*
X018750Y041250D02*
X018650Y041050D01*
X018600Y041000D02*
X018650Y041200D01*
X018700Y041200D01*
X018600Y041000D01*
X018450Y041300D01*
X018450Y041250D02*
X018500Y041250D01*
X018600Y041100D01*
X018550Y041200D02*
X018650Y041200D01*
X018750Y041250D02*
X018500Y041250D01*
X016750Y041250D02*
X016650Y041050D01*
X016600Y041000D02*
X016650Y041200D01*
X016700Y041200D01*
X016600Y041000D01*
X016450Y041300D01*
X016450Y041250D02*
X016500Y041250D01*
X016600Y041100D01*
X016550Y041200D02*
X016650Y041200D01*
X016750Y041250D02*
X016500Y041250D01*
X014750Y041250D02*
X014650Y041050D01*
X014600Y041000D02*
X014650Y041200D01*
X014700Y041200D01*
X014600Y041000D01*
X014450Y041300D01*
X014450Y041250D02*
X014500Y041250D01*
X014600Y041100D01*
X014550Y041200D02*
X014650Y041200D01*
X014750Y041250D02*
X014500Y041250D01*
X012750Y041250D02*
X012650Y041050D01*
X012600Y041000D02*
X012650Y041200D01*
X012700Y041200D01*
X012600Y041000D01*
X012450Y041300D01*
X012450Y041250D02*
X012500Y041250D01*
X012600Y041100D01*
X012550Y041200D02*
X012650Y041200D01*
X012750Y041250D02*
X012500Y041250D01*
X010350Y041100D02*
X009850Y040850D01*
X010350Y040600D01*
X010350Y041100D01*
X010350Y041083D02*
X010315Y041083D01*
X010350Y041034D02*
X010218Y041034D01*
X010121Y040986D02*
X010350Y040986D01*
X010350Y040937D02*
X010024Y040937D01*
X009927Y040889D02*
X010350Y040889D01*
X010350Y040840D02*
X009870Y040840D01*
X009967Y040792D02*
X010350Y040792D01*
X010350Y040743D02*
X010064Y040743D01*
X010161Y040695D02*
X010350Y040695D01*
X010350Y040646D02*
X010258Y040646D01*
X010100Y044600D02*
X009600Y044600D01*
X009600Y046600D01*
X010100Y046600D01*
X010100Y044600D01*
X010100Y044623D02*
X009600Y044623D01*
X009600Y044672D02*
X010100Y044672D01*
X010100Y044720D02*
X009600Y044720D01*
X009600Y044769D02*
X010100Y044769D01*
X010100Y044817D02*
X009600Y044817D01*
X009600Y044866D02*
X010100Y044866D01*
X010100Y044914D02*
X009600Y044914D01*
X009600Y044963D02*
X010100Y044963D01*
X010100Y045011D02*
X009600Y045011D01*
X009600Y045060D02*
X010100Y045060D01*
X010100Y045108D02*
X009600Y045108D01*
X009600Y045157D02*
X010100Y045157D01*
X010100Y045205D02*
X009600Y045205D01*
X009600Y045254D02*
X010100Y045254D01*
X010100Y045302D02*
X009600Y045302D01*
X009600Y045351D02*
X010100Y045351D01*
X010100Y045399D02*
X009600Y045399D01*
X009600Y045448D02*
X010100Y045448D01*
X010100Y045496D02*
X009600Y045496D01*
X009600Y045545D02*
X010100Y045545D01*
X010100Y045593D02*
X009600Y045593D01*
X009600Y045642D02*
X010100Y045642D01*
X010100Y045690D02*
X009600Y045690D01*
X009600Y045739D02*
X010100Y045739D01*
X010100Y045787D02*
X009600Y045787D01*
X009600Y045836D02*
X010100Y045836D01*
X010100Y045884D02*
X009600Y045884D01*
X009600Y045933D02*
X010100Y045933D01*
X010100Y045981D02*
X009600Y045981D01*
X009600Y046030D02*
X010100Y046030D01*
X010100Y046078D02*
X009600Y046078D01*
X009600Y046127D02*
X010100Y046127D01*
X010100Y046175D02*
X009600Y046175D01*
X009600Y046224D02*
X010100Y046224D01*
X010100Y046272D02*
X009600Y046272D01*
X009600Y046321D02*
X010100Y046321D01*
X010100Y046369D02*
X009600Y046369D01*
X009600Y046418D02*
X010100Y046418D01*
X010100Y046466D02*
X009600Y046466D01*
X009600Y046515D02*
X010100Y046515D01*
X010100Y046563D02*
X009600Y046563D01*
X012450Y045300D02*
X012600Y045000D01*
X012650Y045200D01*
X012700Y045200D01*
X012600Y045000D01*
X012650Y045050D02*
X012750Y045250D01*
X012500Y045250D01*
X012600Y045100D01*
X012550Y045200D02*
X012650Y045200D01*
X012500Y045250D02*
X012450Y045250D01*
X014450Y045250D02*
X014500Y045250D01*
X014600Y045100D01*
X014650Y045050D02*
X014750Y045250D01*
X014500Y045250D01*
X014550Y045200D02*
X014650Y045200D01*
X014600Y045000D01*
X014700Y045200D01*
X014650Y045200D01*
X014600Y045000D02*
X014450Y045300D01*
X016450Y045300D02*
X016600Y045000D01*
X016650Y045200D01*
X016700Y045200D01*
X016600Y045000D01*
X016650Y045050D02*
X016750Y045250D01*
X016500Y045250D01*
X016600Y045100D01*
X016550Y045200D02*
X016650Y045200D01*
X016500Y045250D02*
X016450Y045250D01*
X018450Y045250D02*
X018500Y045250D01*
X018600Y045100D01*
X018650Y045050D02*
X018750Y045250D01*
X018500Y045250D01*
X018550Y045200D02*
X018650Y045200D01*
X018600Y045000D01*
X018700Y045200D01*
X018650Y045200D01*
X018600Y045000D02*
X018450Y045300D01*
X020450Y045300D02*
X020600Y045000D01*
X020650Y045200D01*
X020700Y045200D01*
X020600Y045000D01*
X020650Y045050D02*
X020750Y045250D01*
X020500Y045250D01*
X020600Y045100D01*
X020550Y045200D02*
X020650Y045200D01*
X020500Y045250D02*
X020450Y045250D01*
X020600Y048000D02*
X020650Y048200D01*
X020700Y048200D01*
X020600Y048000D01*
X020450Y048300D01*
X020450Y048250D02*
X020500Y048250D01*
X020600Y048100D01*
X020650Y048050D02*
X020750Y048250D01*
X020500Y048250D01*
X020550Y048200D02*
X020650Y048200D01*
X018750Y048250D02*
X018650Y048050D01*
X018600Y048000D02*
X018650Y048200D01*
X018700Y048200D01*
X018600Y048000D01*
X018450Y048300D01*
X018450Y048250D02*
X018500Y048250D01*
X018600Y048100D01*
X018550Y048200D02*
X018650Y048200D01*
X018750Y048250D02*
X018500Y048250D01*
X016750Y048250D02*
X016650Y048050D01*
X016600Y048000D02*
X016650Y048200D01*
X016700Y048200D01*
X016600Y048000D01*
X016450Y048300D01*
X016450Y048250D02*
X016500Y048250D01*
X016600Y048100D01*
X016550Y048200D02*
X016650Y048200D01*
X016750Y048250D02*
X016500Y048250D01*
X014750Y048250D02*
X014650Y048050D01*
X014600Y048000D02*
X014650Y048200D01*
X014700Y048200D01*
X014600Y048000D01*
X014450Y048300D01*
X014450Y048250D02*
X014500Y048250D01*
X014600Y048100D01*
X014550Y048200D02*
X014650Y048200D01*
X014750Y048250D02*
X014500Y048250D01*
X012750Y048250D02*
X012650Y048050D01*
X012600Y048000D02*
X012650Y048200D01*
X012700Y048200D01*
X012600Y048000D01*
X012450Y048300D01*
X012450Y048250D02*
X012500Y048250D01*
X012600Y048100D01*
X012550Y048200D02*
X012650Y048200D01*
X012750Y048250D02*
X012500Y048250D01*
X012600Y052000D02*
X012650Y052200D01*
X012700Y052200D01*
X012600Y052000D01*
X012450Y052300D01*
X012450Y052250D02*
X012500Y052250D01*
X012600Y052100D01*
X012650Y052050D02*
X012750Y052250D01*
X012500Y052250D01*
X012550Y052200D02*
X012650Y052200D01*
X014450Y052250D02*
X014500Y052250D01*
X014600Y052100D01*
X014650Y052050D02*
X014750Y052250D01*
X014500Y052250D01*
X014550Y052200D02*
X014650Y052200D01*
X014600Y052000D01*
X014700Y052200D01*
X014650Y052200D01*
X014600Y052000D02*
X014450Y052300D01*
X016450Y052300D02*
X016600Y052000D01*
X016650Y052200D01*
X016700Y052200D01*
X016600Y052000D01*
X016650Y052050D02*
X016750Y052250D01*
X016500Y052250D01*
X016600Y052100D01*
X016550Y052200D02*
X016650Y052200D01*
X016500Y052250D02*
X016450Y052250D01*
X018450Y052250D02*
X018500Y052250D01*
X018600Y052100D01*
X018650Y052050D02*
X018750Y052250D01*
X018500Y052250D01*
X018550Y052200D02*
X018650Y052200D01*
X018600Y052000D01*
X018700Y052200D01*
X018650Y052200D01*
X018600Y052000D02*
X018450Y052300D01*
X020450Y052300D02*
X020600Y052000D01*
X020650Y052200D01*
X020700Y052200D01*
X020600Y052000D01*
X020650Y052050D02*
X020750Y052250D01*
X020500Y052250D01*
X020600Y052100D01*
X020550Y052200D02*
X020650Y052200D01*
X020500Y052250D02*
X020450Y052250D01*
X022450Y052250D02*
X022500Y052250D01*
X022600Y052100D01*
X022650Y052050D02*
X022750Y052250D01*
X022500Y052250D01*
X022550Y052200D02*
X022650Y052200D01*
X022600Y052000D01*
X022700Y052200D01*
X022650Y052200D01*
X022600Y052000D02*
X022450Y052300D01*
X024450Y052300D02*
X024600Y052000D01*
X024650Y052200D01*
X024700Y052200D01*
X024600Y052000D01*
X024650Y052050D02*
X024750Y052250D01*
X024500Y052250D01*
X024600Y052100D01*
X024550Y052200D02*
X024650Y052200D01*
X024500Y052250D02*
X024450Y052250D01*
X024600Y055000D02*
X024650Y055200D01*
X024700Y055200D01*
X024600Y055000D01*
X024450Y055300D01*
X024450Y055250D02*
X024500Y055250D01*
X024600Y055100D01*
X024650Y055050D02*
X024750Y055250D01*
X024500Y055250D01*
X024550Y055200D02*
X024650Y055200D01*
X022750Y055250D02*
X022650Y055050D01*
X022600Y055000D02*
X022650Y055200D01*
X022700Y055200D01*
X022600Y055000D01*
X022450Y055300D01*
X022450Y055250D02*
X022500Y055250D01*
X022600Y055100D01*
X022550Y055200D02*
X022650Y055200D01*
X022750Y055250D02*
X022500Y055250D01*
X020750Y055250D02*
X020650Y055050D01*
X020600Y055000D02*
X020650Y055200D01*
X020700Y055200D01*
X020600Y055000D01*
X020450Y055300D01*
X020450Y055250D02*
X020500Y055250D01*
X020600Y055100D01*
X020550Y055200D02*
X020650Y055200D01*
X020750Y055250D02*
X020500Y055250D01*
X018750Y055250D02*
X018650Y055050D01*
X018600Y055000D02*
X018650Y055200D01*
X018700Y055200D01*
X018600Y055000D01*
X018450Y055300D01*
X018450Y055250D02*
X018500Y055250D01*
X018600Y055100D01*
X018550Y055200D02*
X018650Y055200D01*
X018750Y055250D02*
X018500Y055250D01*
X016750Y055250D02*
X016650Y055050D01*
X016600Y055000D02*
X016650Y055200D01*
X016700Y055200D01*
X016600Y055000D01*
X016450Y055300D01*
X016450Y055250D02*
X016500Y055250D01*
X016600Y055100D01*
X016550Y055200D02*
X016650Y055200D01*
X016750Y055250D02*
X016500Y055250D01*
X014750Y055250D02*
X014650Y055050D01*
X014600Y055000D02*
X014650Y055200D01*
X014700Y055200D01*
X014600Y055000D01*
X014450Y055300D01*
X014450Y055250D02*
X014500Y055250D01*
X014600Y055100D01*
X014550Y055200D02*
X014650Y055200D01*
X014750Y055250D02*
X014500Y055250D01*
X012750Y055250D02*
X012650Y055050D01*
X012600Y055000D02*
X012650Y055200D01*
X012700Y055200D01*
X012600Y055000D01*
X012450Y055300D01*
X012450Y055250D02*
X012500Y055250D01*
X012600Y055100D01*
X012550Y055200D02*
X012650Y055200D01*
X012750Y055250D02*
X012500Y055250D01*
X010100Y054100D02*
X009100Y054100D01*
X007100Y054100D01*
X006100Y054100D01*
X004600Y048600D02*
X003600Y048600D01*
X001600Y048600D01*
X000600Y048600D01*
X000600Y041100D02*
X000600Y039100D01*
X004100Y039100D02*
X004100Y041100D01*
X004600Y041100D01*
X004600Y039100D01*
X004100Y039100D01*
X004100Y039143D02*
X004600Y039143D01*
X004600Y039191D02*
X004100Y039191D01*
X004100Y039240D02*
X004600Y039240D01*
X004600Y039288D02*
X004100Y039288D01*
X004100Y039337D02*
X004600Y039337D01*
X004600Y039385D02*
X004100Y039385D01*
X004100Y039434D02*
X004600Y039434D01*
X004600Y039482D02*
X004100Y039482D01*
X004100Y039531D02*
X004600Y039531D01*
X004600Y039579D02*
X004100Y039579D01*
X004100Y039628D02*
X004600Y039628D01*
X004600Y039676D02*
X004100Y039676D01*
X004100Y039725D02*
X004600Y039725D01*
X004600Y039773D02*
X004100Y039773D01*
X004100Y039822D02*
X004600Y039822D01*
X004600Y039870D02*
X004100Y039870D01*
X004100Y039919D02*
X004600Y039919D01*
X004600Y039967D02*
X004100Y039967D01*
X004100Y040016D02*
X004600Y040016D01*
X004600Y040064D02*
X004100Y040064D01*
X004100Y040113D02*
X004600Y040113D01*
X004600Y040161D02*
X004100Y040161D01*
X004100Y040210D02*
X004600Y040210D01*
X004600Y040258D02*
X004100Y040258D01*
X004100Y040307D02*
X004600Y040307D01*
X004600Y040355D02*
X004100Y040355D01*
X004100Y040404D02*
X004600Y040404D01*
X004600Y040452D02*
X004100Y040452D01*
X004100Y040501D02*
X004600Y040501D01*
X004600Y040549D02*
X004100Y040549D01*
X004100Y040598D02*
X004600Y040598D01*
X004600Y040646D02*
X004100Y040646D01*
X004100Y040695D02*
X004600Y040695D01*
X004600Y040743D02*
X004100Y040743D01*
X004100Y040792D02*
X004600Y040792D01*
X004600Y040840D02*
X004100Y040840D01*
X004100Y040889D02*
X004600Y040889D01*
X004600Y040937D02*
X004100Y040937D01*
X004100Y040986D02*
X004600Y040986D01*
X004600Y041034D02*
X004100Y041034D01*
X004100Y041083D02*
X004600Y041083D01*
X006100Y044600D02*
X006100Y046600D01*
X008450Y027800D02*
X008600Y027500D01*
X008650Y027700D01*
X008700Y027700D01*
X008600Y027500D01*
X008650Y027550D02*
X008750Y027750D01*
X008500Y027750D01*
X008600Y027600D01*
X008550Y027700D02*
X008650Y027700D01*
X008500Y027750D02*
X008450Y027750D01*
X010450Y027750D02*
X010500Y027750D01*
X010600Y027600D01*
X010650Y027550D02*
X010750Y027750D01*
X010500Y027750D01*
X010550Y027700D02*
X010650Y027700D01*
X010600Y027500D01*
X010700Y027700D01*
X010650Y027700D01*
X010600Y027500D02*
X010450Y027800D01*
X012450Y027800D02*
X012600Y027500D01*
X012650Y027700D01*
X012700Y027700D01*
X012600Y027500D01*
X012650Y027550D02*
X012750Y027750D01*
X012500Y027750D01*
X012600Y027600D01*
X012550Y027700D02*
X012650Y027700D01*
X012500Y027750D02*
X012450Y027750D01*
X014450Y027750D02*
X014500Y027750D01*
X014600Y027600D01*
X014650Y027550D02*
X014750Y027750D01*
X014500Y027750D01*
X014550Y027700D02*
X014650Y027700D01*
X014600Y027500D01*
X014700Y027700D01*
X014650Y027700D01*
X014600Y027500D02*
X014450Y027800D01*
X016450Y027800D02*
X016600Y027500D01*
X016650Y027700D01*
X016700Y027700D01*
X016600Y027500D01*
X016650Y027550D02*
X016750Y027750D01*
X016500Y027750D01*
X016600Y027600D01*
X016550Y027700D02*
X016650Y027700D01*
X016500Y027750D02*
X016450Y027750D01*
X018450Y027750D02*
X018500Y027750D01*
X018600Y027600D01*
X018650Y027550D02*
X018750Y027750D01*
X018500Y027750D01*
X018550Y027700D02*
X018650Y027700D01*
X018600Y027500D01*
X018700Y027700D01*
X018650Y027700D01*
X018600Y027500D02*
X018450Y027800D01*
X020450Y027800D02*
X020600Y027500D01*
X020650Y027700D01*
X020700Y027700D01*
X020600Y027500D01*
X020650Y027550D02*
X020750Y027750D01*
X020500Y027750D01*
X020600Y027600D01*
X020550Y027700D02*
X020650Y027700D01*
X020500Y027750D02*
X020450Y027750D01*
X022450Y027750D02*
X022500Y027750D01*
X022600Y027600D01*
X022650Y027550D02*
X022750Y027750D01*
X022500Y027750D01*
X022550Y027700D02*
X022650Y027700D01*
X022600Y027500D01*
X022700Y027700D01*
X022650Y027700D01*
X022600Y027500D02*
X022450Y027800D01*
X022450Y024800D02*
X022600Y024500D01*
X022650Y024700D01*
X022700Y024700D01*
X022600Y024500D01*
X022650Y024550D02*
X022750Y024750D01*
X022500Y024750D01*
X022600Y024600D01*
X022550Y024700D02*
X022650Y024700D01*
X022500Y024750D02*
X022450Y024750D01*
X020750Y024750D02*
X020650Y024550D01*
X020600Y024500D02*
X020650Y024700D01*
X020700Y024700D01*
X020600Y024500D01*
X020450Y024800D01*
X020450Y024750D02*
X020500Y024750D01*
X020600Y024600D01*
X020550Y024700D02*
X020650Y024700D01*
X020750Y024750D02*
X020500Y024750D01*
X018750Y024750D02*
X018650Y024550D01*
X018600Y024500D02*
X018650Y024700D01*
X018700Y024700D01*
X018600Y024500D01*
X018450Y024800D01*
X018450Y024750D02*
X018500Y024750D01*
X018600Y024600D01*
X018550Y024700D02*
X018650Y024700D01*
X018750Y024750D02*
X018500Y024750D01*
X016750Y024750D02*
X016650Y024550D01*
X016600Y024500D02*
X016650Y024700D01*
X016700Y024700D01*
X016600Y024500D01*
X016450Y024800D01*
X016450Y024750D02*
X016500Y024750D01*
X016600Y024600D01*
X016550Y024700D02*
X016650Y024700D01*
X016750Y024750D02*
X016500Y024750D01*
X014750Y024750D02*
X014650Y024550D01*
X014600Y024500D02*
X014650Y024700D01*
X014700Y024700D01*
X014600Y024500D01*
X014450Y024800D01*
X014450Y024750D02*
X014500Y024750D01*
X014600Y024600D01*
X014550Y024700D02*
X014650Y024700D01*
X014750Y024750D02*
X014500Y024750D01*
X012750Y024750D02*
X012650Y024550D01*
X012600Y024500D02*
X012650Y024700D01*
X012700Y024700D01*
X012600Y024500D01*
X012450Y024800D01*
X012450Y024750D02*
X012500Y024750D01*
X012600Y024600D01*
X012550Y024700D02*
X012650Y024700D01*
X012750Y024750D02*
X012500Y024750D01*
X010750Y024750D02*
X010650Y024550D01*
X010600Y024500D02*
X010650Y024700D01*
X010700Y024700D01*
X010600Y024500D01*
X010450Y024800D01*
X010450Y024750D02*
X010500Y024750D01*
X010600Y024600D01*
X010550Y024700D02*
X010650Y024700D01*
X010750Y024750D02*
X010500Y024750D01*
X008750Y024750D02*
X008650Y024550D01*
X008600Y024500D02*
X008650Y024700D01*
X008700Y024700D01*
X008600Y024500D01*
X008450Y024800D01*
X008450Y024750D02*
X008500Y024750D01*
X008600Y024600D01*
X008550Y024700D02*
X008650Y024700D01*
X008750Y024750D02*
X008500Y024750D01*
X012450Y018800D02*
X012600Y018500D01*
X012650Y018700D01*
X012700Y018700D01*
X012600Y018500D01*
X012650Y018550D02*
X012750Y018750D01*
X012500Y018750D01*
X012600Y018600D01*
X012550Y018700D02*
X012650Y018700D01*
X012500Y018750D02*
X012450Y018750D01*
X014450Y018750D02*
X014500Y018750D01*
X014600Y018600D01*
X014650Y018550D02*
X014750Y018750D01*
X014500Y018750D01*
X014550Y018700D02*
X014650Y018700D01*
X014600Y018500D01*
X014700Y018700D01*
X014650Y018700D01*
X014600Y018500D02*
X014450Y018800D01*
X016450Y018800D02*
X016600Y018500D01*
X016650Y018700D01*
X016700Y018700D01*
X016600Y018500D01*
X016650Y018550D02*
X016750Y018750D01*
X016500Y018750D01*
X016600Y018600D01*
X016550Y018700D02*
X016650Y018700D01*
X016500Y018750D02*
X016450Y018750D01*
X018450Y018750D02*
X018500Y018750D01*
X018600Y018600D01*
X018650Y018550D02*
X018750Y018750D01*
X018500Y018750D01*
X018550Y018700D02*
X018650Y018700D01*
X018600Y018500D01*
X018700Y018700D01*
X018650Y018700D01*
X018600Y018500D02*
X018450Y018800D01*
X010600Y009350D02*
X010600Y008850D01*
X010100Y009100D01*
X010600Y009350D01*
X010600Y009315D02*
X010530Y009315D01*
X010600Y009267D02*
X010433Y009267D01*
X010336Y009218D02*
X010600Y009218D01*
X010600Y009170D02*
X010239Y009170D01*
X010142Y009121D02*
X010600Y009121D01*
X010600Y009073D02*
X010155Y009073D01*
X010252Y009024D02*
X010600Y009024D01*
X010600Y008976D02*
X010349Y008976D01*
X010446Y008927D02*
X010600Y008927D01*
X010600Y008879D02*
X010543Y008879D01*
X010350Y005350D02*
X009350Y005350D01*
X007350Y005350D01*
X006350Y005350D01*
X030600Y025000D02*
X030450Y025300D01*
X030450Y025250D02*
X030500Y025250D01*
X030600Y025100D01*
X030650Y025050D02*
X030750Y025250D01*
X030500Y025250D01*
X030550Y025200D02*
X030650Y025200D01*
X030600Y025000D01*
X030700Y025200D01*
X030650Y025200D01*
X032450Y025250D02*
X032500Y025250D01*
X032600Y025100D01*
X032650Y025050D02*
X032750Y025250D01*
X032500Y025250D01*
X032550Y025200D02*
X032650Y025200D01*
X032600Y025000D01*
X032700Y025200D01*
X032650Y025200D01*
X032600Y025000D02*
X032450Y025300D01*
X032600Y028000D02*
X032650Y028200D01*
X032700Y028200D01*
X032600Y028000D01*
X032450Y028300D01*
X032450Y028250D02*
X032500Y028250D01*
X032600Y028100D01*
X032650Y028050D02*
X032750Y028250D01*
X032500Y028250D01*
X032550Y028200D02*
X032650Y028200D01*
X030750Y028250D02*
X030650Y028050D01*
X030600Y028000D02*
X030650Y028200D01*
X030700Y028200D01*
X030600Y028000D01*
X030450Y028300D01*
X030450Y028250D02*
X030500Y028250D01*
X030600Y028100D01*
X030550Y028200D02*
X030650Y028200D01*
X030750Y028250D02*
X030500Y028250D01*
X030600Y034500D02*
X030650Y034700D01*
X030700Y034700D01*
X030600Y034500D01*
X030450Y034800D01*
X030450Y034750D02*
X030500Y034750D01*
X030600Y034600D01*
X030650Y034550D02*
X030750Y034750D01*
X030500Y034750D01*
X030550Y034700D02*
X030650Y034700D01*
X032450Y034750D02*
X032500Y034750D01*
X032600Y034600D01*
X032650Y034550D02*
X032750Y034750D01*
X032500Y034750D01*
X032550Y034700D02*
X032650Y034700D01*
X032600Y034500D01*
X032700Y034700D01*
X032650Y034700D01*
X032600Y034500D02*
X032450Y034800D01*
X032600Y037500D02*
X032650Y037700D01*
X032700Y037700D01*
X032600Y037500D01*
X032450Y037800D01*
X032450Y037750D02*
X032500Y037750D01*
X032600Y037600D01*
X032650Y037550D02*
X032750Y037750D01*
X032500Y037750D01*
X032550Y037700D02*
X032650Y037700D01*
X034450Y037750D02*
X034500Y037750D01*
X034600Y037600D01*
X034650Y037550D02*
X034750Y037750D01*
X034500Y037750D01*
X034450Y037800D02*
X034600Y037500D01*
X034650Y037700D01*
X034700Y037700D01*
X034600Y037500D01*
X034550Y037700D02*
X034650Y037700D01*
X036450Y037750D02*
X036500Y037750D01*
X036600Y037600D01*
X036650Y037550D02*
X036750Y037750D01*
X036500Y037750D01*
X036450Y037800D02*
X036600Y037500D01*
X036650Y037700D01*
X036700Y037700D01*
X036600Y037500D01*
X036550Y037700D02*
X036650Y037700D01*
X036450Y034800D02*
X036600Y034500D01*
X036650Y034700D01*
X036700Y034700D01*
X036600Y034500D01*
X036650Y034550D02*
X036750Y034750D01*
X036500Y034750D01*
X036600Y034600D01*
X036550Y034700D02*
X036650Y034700D01*
X036500Y034750D02*
X036450Y034750D01*
X034750Y034750D02*
X034650Y034550D01*
X034600Y034500D02*
X034650Y034700D01*
X034700Y034700D01*
X034600Y034500D01*
X034450Y034800D01*
X034450Y034750D02*
X034500Y034750D01*
X034600Y034600D01*
X034550Y034700D02*
X034650Y034700D01*
X034750Y034750D02*
X034500Y034750D01*
X030650Y037550D02*
X030750Y037750D01*
X030500Y037750D01*
X030600Y037600D01*
X030600Y037500D02*
X030650Y037700D01*
X030700Y037700D01*
X030600Y037500D01*
X030450Y037800D01*
X030450Y037750D02*
X030500Y037750D01*
X030550Y037700D02*
X030650Y037700D01*
X030600Y041000D02*
X030650Y041200D01*
X030700Y041200D01*
X030600Y041000D01*
X030450Y041300D01*
X030450Y041250D02*
X030500Y041250D01*
X030600Y041100D01*
X030650Y041050D02*
X030750Y041250D01*
X030500Y041250D01*
X030550Y041200D02*
X030650Y041200D01*
X032450Y041250D02*
X032500Y041250D01*
X032600Y041100D01*
X032650Y041050D02*
X032750Y041250D01*
X032500Y041250D01*
X032550Y041200D02*
X032650Y041200D01*
X032600Y041000D01*
X032700Y041200D01*
X032650Y041200D01*
X032600Y041000D02*
X032450Y041300D01*
X032600Y044000D02*
X032650Y044200D01*
X032700Y044200D01*
X032600Y044000D01*
X032450Y044300D01*
X032450Y044250D02*
X032500Y044250D01*
X032600Y044100D01*
X032650Y044050D02*
X032750Y044250D01*
X032500Y044250D01*
X032550Y044200D02*
X032650Y044200D01*
X034450Y044250D02*
X034500Y044250D01*
X034600Y044100D01*
X034650Y044050D02*
X034750Y044250D01*
X034500Y044250D01*
X034450Y044300D02*
X034600Y044000D01*
X034650Y044200D01*
X034700Y044200D01*
X034600Y044000D01*
X034550Y044200D02*
X034650Y044200D01*
X034450Y041300D02*
X034600Y041000D01*
X034650Y041200D01*
X034700Y041200D01*
X034600Y041000D01*
X034650Y041050D02*
X034750Y041250D01*
X034500Y041250D01*
X034600Y041100D01*
X034550Y041200D02*
X034650Y041200D01*
X034500Y041250D02*
X034450Y041250D01*
X030650Y044050D02*
X030750Y044250D01*
X030500Y044250D01*
X030600Y044100D01*
X030600Y044000D02*
X030650Y044200D01*
X030700Y044200D01*
X030600Y044000D01*
X030450Y044300D01*
X030450Y044250D02*
X030500Y044250D01*
X030550Y044200D02*
X030650Y044200D01*
X028600Y052000D02*
X028450Y052300D01*
X028450Y052250D02*
X028500Y052250D01*
X028600Y052100D01*
X028650Y052050D02*
X028750Y052250D01*
X028500Y052250D01*
X028550Y052200D02*
X028650Y052200D01*
X028600Y052000D01*
X028700Y052200D01*
X028650Y052200D01*
X028600Y055000D02*
X028450Y055300D01*
X028450Y055250D02*
X028500Y055250D01*
X028600Y055100D01*
X028650Y055050D02*
X028750Y055250D01*
X028500Y055250D01*
X028550Y055200D02*
X028650Y055200D01*
X028600Y055000D01*
X028700Y055200D01*
X028650Y055200D01*
X030950Y021550D02*
X031100Y021250D01*
X031150Y021450D01*
X031200Y021450D01*
X031100Y021250D01*
X031150Y021300D02*
X031250Y021500D01*
X031000Y021500D01*
X031100Y021350D01*
X031050Y021450D02*
X031150Y021450D01*
X031000Y021500D02*
X030950Y021500D01*
X032950Y021500D02*
X033000Y021500D01*
X033100Y021350D01*
X033150Y021300D02*
X033250Y021500D01*
X033000Y021500D01*
X033050Y021450D02*
X033150Y021450D01*
X033100Y021250D01*
X033200Y021450D01*
X033150Y021450D01*
X033100Y021250D02*
X032950Y021550D01*
X032950Y018550D02*
X033100Y018250D01*
X033150Y018450D01*
X033200Y018450D01*
X033100Y018250D01*
X033150Y018300D02*
X033250Y018500D01*
X033000Y018500D01*
X033100Y018350D01*
X033050Y018450D02*
X033150Y018450D01*
X033000Y018500D02*
X032950Y018500D01*
X031250Y018500D02*
X031150Y018300D01*
X031100Y018250D02*
X031150Y018450D01*
X031200Y018450D01*
X031100Y018250D01*
X030950Y018550D01*
X030950Y018500D02*
X031000Y018500D01*
X031100Y018350D01*
X031050Y018450D02*
X031150Y018450D01*
X031250Y018500D02*
X031000Y018500D01*
X034950Y018500D02*
X035000Y018500D01*
X035100Y018350D01*
X035150Y018300D02*
X035250Y018500D01*
X035000Y018500D01*
X035050Y018450D02*
X035150Y018450D01*
X035100Y018250D01*
X035200Y018450D01*
X035150Y018450D01*
X035100Y018250D02*
X034950Y018550D01*
X035100Y021250D02*
X035150Y021450D01*
X035200Y021450D01*
X035100Y021250D01*
X034950Y021550D01*
X034950Y021500D02*
X035000Y021500D01*
X035100Y021350D01*
X035150Y021300D02*
X035250Y021500D01*
X035000Y021500D01*
X035050Y021450D02*
X035150Y021450D01*
D13*
X030755Y030920D02*
X030755Y031160D01*
X030755Y031040D02*
X030395Y031040D01*
X030515Y030920D01*
X030455Y031288D02*
X030395Y031348D01*
X030395Y031468D01*
X030455Y031529D01*
X030695Y031288D01*
X030755Y031348D01*
X030755Y031468D01*
X030695Y031529D01*
X030455Y031529D01*
X030455Y031657D02*
X030395Y031717D01*
X030395Y031837D01*
X030455Y031897D01*
X030695Y031657D01*
X030755Y031717D01*
X030755Y031837D01*
X030695Y031897D01*
X030455Y031897D01*
X030515Y032025D02*
X030515Y032205D01*
X030575Y032265D01*
X030755Y032265D01*
X030755Y032025D02*
X030515Y032025D01*
X030455Y031657D02*
X030695Y031657D01*
X030695Y031288D02*
X030455Y031288D01*
X026005Y005265D02*
X025825Y005265D01*
X025765Y005205D01*
X025765Y005025D01*
X026005Y005025D01*
X025945Y004897D02*
X026005Y004837D01*
X026005Y004717D01*
X025945Y004657D01*
X025705Y004897D01*
X025945Y004897D01*
X025705Y004897D02*
X025645Y004837D01*
X025645Y004717D01*
X025705Y004657D01*
X025945Y004657D01*
X025945Y004529D02*
X026005Y004468D01*
X026005Y004348D01*
X025945Y004288D01*
X025705Y004529D01*
X025945Y004529D01*
X025705Y004529D02*
X025645Y004468D01*
X025645Y004348D01*
X025705Y004288D01*
X025945Y004288D01*
X026005Y004160D02*
X026005Y003920D01*
X026005Y004040D02*
X025645Y004040D01*
X025765Y003920D01*
X010830Y007026D02*
X010830Y007103D01*
X010753Y007179D01*
X010370Y007179D01*
X010370Y007103D02*
X010370Y007256D01*
X010523Y007410D02*
X010370Y007563D01*
X010830Y007563D01*
X010830Y007410D02*
X010830Y007717D01*
X010830Y007026D02*
X010753Y006949D01*
X005080Y012526D02*
X005080Y012603D01*
X005003Y012679D01*
X004620Y012679D01*
X004620Y012603D02*
X004620Y012756D01*
X004696Y012910D02*
X004620Y012986D01*
X004620Y013140D01*
X004696Y013217D01*
X004773Y013217D01*
X005080Y012910D01*
X005080Y013217D01*
X005080Y012526D02*
X005003Y012449D01*
X007265Y028920D02*
X007145Y029040D01*
X007505Y029040D01*
X007505Y028920D02*
X007505Y029160D01*
X007445Y029288D02*
X007205Y029529D01*
X007445Y029529D01*
X007505Y029468D01*
X007505Y029348D01*
X007445Y029288D01*
X007205Y029288D01*
X007145Y029348D01*
X007145Y029468D01*
X007205Y029529D01*
X007205Y029657D02*
X007145Y029717D01*
X007145Y029837D01*
X007205Y029897D01*
X007445Y029657D01*
X007505Y029717D01*
X007505Y029837D01*
X007445Y029897D01*
X007205Y029897D01*
X007265Y030025D02*
X007265Y030205D01*
X007325Y030265D01*
X007505Y030265D01*
X007505Y030025D02*
X007265Y030025D01*
X007205Y029657D02*
X007445Y029657D01*
X005003Y033199D02*
X005080Y033276D01*
X005080Y033353D01*
X005003Y033429D01*
X004620Y033429D01*
X004620Y033353D02*
X004620Y033506D01*
X004696Y033660D02*
X004620Y033736D01*
X004620Y033890D01*
X004696Y033967D01*
X004773Y033967D01*
X004850Y033890D01*
X004927Y033967D01*
X005003Y033967D01*
X005080Y033890D01*
X005080Y033736D01*
X005003Y033660D01*
X004850Y033813D02*
X004850Y033890D01*
X010120Y038853D02*
X010120Y039006D01*
X010120Y038929D02*
X010503Y038929D01*
X010580Y038853D01*
X010580Y038776D01*
X010503Y038699D01*
X010350Y039160D02*
X010120Y039390D01*
X010580Y039390D01*
X010350Y039467D02*
X010350Y039160D01*
X018670Y057945D02*
X018910Y057945D01*
X018790Y057945D02*
X018790Y058305D01*
X018670Y058185D01*
X019038Y058245D02*
X019098Y058305D01*
X019218Y058305D01*
X019279Y058245D01*
X019038Y058005D01*
X019098Y057945D01*
X019218Y057945D01*
X019279Y058005D01*
X019279Y058245D01*
X019407Y058245D02*
X019467Y058305D01*
X019587Y058305D01*
X019647Y058245D01*
X019407Y058005D01*
X019467Y057945D01*
X019587Y057945D01*
X019647Y058005D01*
X019647Y058245D01*
X019775Y058185D02*
X019955Y058185D01*
X020015Y058125D01*
X020015Y057945D01*
X019775Y057945D02*
X019775Y058185D01*
X019407Y058245D02*
X019407Y058005D01*
X019038Y058005D02*
X019038Y058245D01*
D14*
X019563Y054993D02*
X019687Y054808D01*
X019810Y054993D01*
X019810Y054808D02*
X019440Y054808D01*
X019440Y054563D02*
X019810Y054563D01*
X019810Y054440D02*
X019810Y054687D01*
X019563Y054440D02*
X019440Y054563D01*
X017810Y054563D02*
X017440Y054563D01*
X017563Y054440D01*
X017810Y054440D02*
X017810Y054687D01*
X017810Y054808D02*
X017440Y054808D01*
X017563Y054993D02*
X017687Y054808D01*
X017810Y054993D01*
X015810Y054993D02*
X015687Y054808D01*
X015563Y054993D01*
X015440Y054808D02*
X015810Y054808D01*
X015810Y054687D02*
X015810Y054440D01*
X015810Y054563D02*
X015440Y054563D01*
X015563Y054440D01*
X013810Y054440D02*
X013810Y054687D01*
X013810Y054808D02*
X013440Y054808D01*
X013563Y054993D02*
X013687Y054808D01*
X013810Y054993D01*
X013810Y054563D02*
X013440Y054563D01*
X013563Y054440D01*
X013563Y047993D02*
X013687Y047808D01*
X013810Y047993D01*
X013810Y047808D02*
X013440Y047808D01*
X013440Y047563D02*
X013810Y047563D01*
X013810Y047440D02*
X013810Y047687D01*
X013563Y047440D02*
X013440Y047563D01*
X015440Y047563D02*
X015810Y047563D01*
X015810Y047440D02*
X015810Y047687D01*
X015810Y047808D02*
X015440Y047808D01*
X015563Y047993D02*
X015687Y047808D01*
X015810Y047993D01*
X015440Y047563D02*
X015563Y047440D01*
X017440Y047563D02*
X017810Y047563D01*
X017810Y047440D02*
X017810Y047687D01*
X017810Y047808D02*
X017440Y047808D01*
X017563Y047993D02*
X017687Y047808D01*
X017810Y047993D01*
X017440Y047563D02*
X017563Y047440D01*
X019440Y047563D02*
X019810Y047563D01*
X019810Y047440D02*
X019810Y047687D01*
X019810Y047808D02*
X019440Y047808D01*
X019563Y047993D02*
X019687Y047808D01*
X019810Y047993D01*
X019440Y047563D02*
X019563Y047440D01*
X021440Y047563D02*
X021810Y047563D01*
X021810Y047440D02*
X021810Y047687D01*
X021810Y047808D02*
X021440Y047808D01*
X021563Y047993D02*
X021687Y047808D01*
X021810Y047993D01*
X021440Y047563D02*
X021563Y047440D01*
X021563Y040993D02*
X021687Y040808D01*
X021810Y040993D01*
X021810Y040808D02*
X021440Y040808D01*
X021440Y040563D02*
X021810Y040563D01*
X021810Y040440D02*
X021810Y040687D01*
X021563Y040440D02*
X021440Y040563D01*
X019810Y040563D02*
X019440Y040563D01*
X019563Y040440D01*
X019810Y040440D02*
X019810Y040687D01*
X019810Y040808D02*
X019440Y040808D01*
X019563Y040993D02*
X019687Y040808D01*
X019810Y040993D01*
X017810Y040993D02*
X017687Y040808D01*
X017563Y040993D01*
X017440Y040808D02*
X017810Y040808D01*
X017810Y040687D02*
X017810Y040440D01*
X017810Y040563D02*
X017440Y040563D01*
X017563Y040440D01*
X015810Y040440D02*
X015810Y040687D01*
X015810Y040808D02*
X015440Y040808D01*
X015563Y040993D02*
X015687Y040808D01*
X015810Y040993D01*
X015810Y040563D02*
X015440Y040563D01*
X015563Y040440D01*
X013810Y040440D02*
X013810Y040687D01*
X013810Y040808D02*
X013440Y040808D01*
X013563Y040993D02*
X013687Y040808D01*
X013810Y040993D01*
X013810Y040563D02*
X013440Y040563D01*
X013563Y040440D01*
X013563Y034993D02*
X013687Y034808D01*
X013810Y034993D01*
X013810Y034808D02*
X013440Y034808D01*
X013440Y034563D02*
X013810Y034563D01*
X013810Y034440D02*
X013810Y034687D01*
X013563Y034440D02*
X013440Y034563D01*
X011810Y034563D02*
X011440Y034563D01*
X011563Y034440D01*
X011810Y034440D02*
X011810Y034687D01*
X011810Y034808D02*
X011440Y034808D01*
X011563Y034993D02*
X011687Y034808D01*
X011810Y034993D01*
X009810Y034993D02*
X009687Y034808D01*
X009563Y034993D01*
X009440Y034808D02*
X009810Y034808D01*
X009810Y034687D02*
X009810Y034440D01*
X009810Y034563D02*
X009440Y034563D01*
X009563Y034440D01*
X006060Y029862D02*
X005937Y029677D01*
X005813Y029862D01*
X005690Y029677D02*
X006060Y029677D01*
X005998Y029555D02*
X006060Y029493D01*
X006060Y029370D01*
X005998Y029308D01*
X005751Y029555D01*
X005998Y029555D01*
X005751Y029555D02*
X005690Y029493D01*
X005690Y029370D01*
X005751Y029308D01*
X005998Y029308D01*
X006060Y029187D02*
X006060Y028940D01*
X006060Y029063D02*
X005690Y029063D01*
X005813Y028940D01*
X009440Y027308D02*
X009810Y027308D01*
X009810Y027187D02*
X009810Y026940D01*
X009810Y027063D02*
X009440Y027063D01*
X009563Y026940D01*
X009687Y027308D02*
X009563Y027493D01*
X009687Y027308D02*
X009810Y027493D01*
X011440Y027308D02*
X011810Y027308D01*
X011810Y027187D02*
X011810Y026940D01*
X011810Y027063D02*
X011440Y027063D01*
X011563Y026940D01*
X011687Y027308D02*
X011563Y027493D01*
X011687Y027308D02*
X011810Y027493D01*
X013440Y027308D02*
X013810Y027308D01*
X013810Y027187D02*
X013810Y026940D01*
X013810Y027063D02*
X013440Y027063D01*
X013563Y026940D01*
X013687Y027308D02*
X013563Y027493D01*
X013687Y027308D02*
X013810Y027493D01*
X015440Y027308D02*
X015810Y027308D01*
X015810Y027187D02*
X015810Y026940D01*
X015810Y027063D02*
X015440Y027063D01*
X015563Y026940D01*
X015687Y027308D02*
X015563Y027493D01*
X015687Y027308D02*
X015810Y027493D01*
X017440Y027308D02*
X017810Y027308D01*
X017810Y027187D02*
X017810Y026940D01*
X017810Y027063D02*
X017440Y027063D01*
X017563Y026940D01*
X017687Y027308D02*
X017563Y027493D01*
X017687Y027308D02*
X017810Y027493D01*
X019440Y027308D02*
X019810Y027308D01*
X019810Y027187D02*
X019810Y026940D01*
X019810Y027063D02*
X019440Y027063D01*
X019563Y026940D01*
X019687Y027308D02*
X019563Y027493D01*
X019687Y027308D02*
X019810Y027493D01*
X021440Y027308D02*
X021810Y027308D01*
X021810Y027187D02*
X021810Y026940D01*
X021810Y027063D02*
X021440Y027063D01*
X021563Y026940D01*
X021687Y027308D02*
X021563Y027493D01*
X021687Y027308D02*
X021810Y027493D01*
X023440Y027308D02*
X023810Y027308D01*
X023810Y027187D02*
X023810Y026940D01*
X023810Y027063D02*
X023440Y027063D01*
X023563Y026940D01*
X023687Y027308D02*
X023563Y027493D01*
X023687Y027308D02*
X023810Y027493D01*
X023810Y021493D02*
X023687Y021308D01*
X023563Y021493D01*
X023440Y021308D02*
X023810Y021308D01*
X023810Y021187D02*
X023810Y020940D01*
X023810Y021063D02*
X023440Y021063D01*
X023563Y020940D01*
X021810Y020940D02*
X021810Y021187D01*
X021810Y021308D02*
X021440Y021308D01*
X021563Y021493D02*
X021687Y021308D01*
X021810Y021493D01*
X021810Y021063D02*
X021440Y021063D01*
X021563Y020940D01*
X019810Y020940D02*
X019810Y021187D01*
X019810Y021308D02*
X019440Y021308D01*
X019563Y021493D02*
X019687Y021308D01*
X019810Y021493D01*
X019810Y021063D02*
X019440Y021063D01*
X019563Y020940D01*
X017810Y020940D02*
X017810Y021187D01*
X017810Y021308D02*
X017440Y021308D01*
X017563Y021493D02*
X017687Y021308D01*
X017810Y021493D01*
X017810Y021063D02*
X017440Y021063D01*
X017563Y020940D01*
X015810Y020940D02*
X015810Y021187D01*
X015810Y021308D02*
X015440Y021308D01*
X015563Y021493D02*
X015687Y021308D01*
X015810Y021493D01*
X015810Y021063D02*
X015440Y021063D01*
X015563Y020940D01*
X013810Y020940D02*
X013810Y021187D01*
X013810Y021308D02*
X013440Y021308D01*
X013563Y021493D02*
X013687Y021308D01*
X013810Y021493D01*
X013810Y021063D02*
X013440Y021063D01*
X013563Y020940D01*
X013563Y014993D02*
X013687Y014808D01*
X013810Y014993D01*
X013810Y014808D02*
X013440Y014808D01*
X013440Y014563D02*
X013810Y014563D01*
X013810Y014440D02*
X013810Y014687D01*
X013563Y014440D02*
X013440Y014563D01*
X015440Y014563D02*
X015810Y014563D01*
X015810Y014440D02*
X015810Y014687D01*
X015810Y014808D02*
X015440Y014808D01*
X015563Y014993D02*
X015687Y014808D01*
X015810Y014993D01*
X015440Y014563D02*
X015563Y014440D01*
X017440Y014563D02*
X017810Y014563D01*
X017810Y014440D02*
X017810Y014687D01*
X017810Y014808D02*
X017440Y014808D01*
X017563Y014993D02*
X017687Y014808D01*
X017810Y014993D01*
X017440Y014563D02*
X017563Y014440D01*
X019440Y014563D02*
X019810Y014563D01*
X019810Y014440D02*
X019810Y014687D01*
X019810Y014808D02*
X019440Y014808D01*
X019563Y014993D02*
X019687Y014808D01*
X019810Y014993D01*
X019440Y014563D02*
X019563Y014440D01*
X021440Y014563D02*
X021810Y014563D01*
X021810Y014440D02*
X021810Y014687D01*
X021810Y014808D02*
X021440Y014808D01*
X021563Y014993D02*
X021687Y014808D01*
X021810Y014993D01*
X021440Y014563D02*
X021563Y014440D01*
X021563Y005493D02*
X021687Y005308D01*
X021810Y005493D01*
X021810Y005308D02*
X021440Y005308D01*
X021440Y005063D02*
X021810Y005063D01*
X021810Y004940D02*
X021810Y005187D01*
X021563Y004940D02*
X021440Y005063D01*
X019810Y005063D02*
X019440Y005063D01*
X019563Y004940D01*
X019810Y004940D02*
X019810Y005187D01*
X019810Y005308D02*
X019440Y005308D01*
X019563Y005493D02*
X019687Y005308D01*
X019810Y005493D01*
X017810Y005493D02*
X017687Y005308D01*
X017563Y005493D01*
X017440Y005308D02*
X017810Y005308D01*
X017810Y005187D02*
X017810Y004940D01*
X017810Y005063D02*
X017440Y005063D01*
X017563Y004940D01*
X015810Y004940D02*
X015810Y005187D01*
X015810Y005308D02*
X015440Y005308D01*
X015563Y005493D02*
X015687Y005308D01*
X015810Y005493D01*
X015810Y005063D02*
X015440Y005063D01*
X015563Y004940D01*
X013810Y004940D02*
X013810Y005187D01*
X013810Y005308D02*
X013440Y005308D01*
X013563Y005493D02*
X013687Y005308D01*
X013810Y005493D01*
X013810Y005063D02*
X013440Y005063D01*
X013563Y004940D01*
X023440Y005063D02*
X023810Y005063D01*
X023810Y004940D02*
X023810Y005187D01*
X023810Y005308D02*
X023440Y005308D01*
X023563Y005493D02*
X023687Y005308D01*
X023810Y005493D01*
X023440Y005063D02*
X023563Y004940D01*
X029440Y005063D02*
X029810Y005063D01*
X029810Y004940D02*
X029810Y005187D01*
X029810Y005308D02*
X029440Y005308D01*
X029563Y005493D02*
X029687Y005308D01*
X029810Y005493D01*
X029440Y005063D02*
X029563Y004940D01*
X031440Y005063D02*
X031810Y005063D01*
X031810Y004940D02*
X031810Y005187D01*
X031810Y005308D02*
X031440Y005308D01*
X031563Y005493D02*
X031687Y005308D01*
X031810Y005493D01*
X031440Y005063D02*
X031563Y004940D01*
X032063Y020690D02*
X031940Y020813D01*
X032310Y020813D01*
X032310Y020690D02*
X032310Y020937D01*
X032310Y021058D02*
X031940Y021058D01*
X032063Y021243D02*
X032187Y021058D01*
X032310Y021243D01*
X033940Y021058D02*
X034310Y021058D01*
X034310Y020937D02*
X034310Y020690D01*
X034310Y020813D02*
X033940Y020813D01*
X034063Y020690D01*
X034187Y021058D02*
X034063Y021243D01*
X034187Y021058D02*
X034310Y021243D01*
X035940Y021058D02*
X036310Y021058D01*
X036310Y020937D02*
X036310Y020690D01*
X036310Y020813D02*
X035940Y020813D01*
X036063Y020690D01*
X036187Y021058D02*
X036063Y021243D01*
X036187Y021058D02*
X036310Y021243D01*
X033810Y027440D02*
X033810Y027687D01*
X033810Y027808D02*
X033440Y027808D01*
X033563Y027993D02*
X033687Y027808D01*
X033810Y027993D01*
X033810Y027563D02*
X033440Y027563D01*
X033563Y027440D01*
X031810Y027440D02*
X031810Y027687D01*
X031810Y027808D02*
X031440Y027808D01*
X031563Y027993D02*
X031687Y027808D01*
X031810Y027993D01*
X031810Y027563D02*
X031440Y027563D01*
X031563Y027440D01*
X031563Y036940D02*
X031440Y037063D01*
X031810Y037063D01*
X031810Y036940D02*
X031810Y037187D01*
X031810Y037308D02*
X031440Y037308D01*
X031563Y037493D02*
X031687Y037308D01*
X031810Y037493D01*
X033440Y037308D02*
X033810Y037308D01*
X033810Y037187D02*
X033810Y036940D01*
X033810Y037063D02*
X033440Y037063D01*
X033563Y036940D01*
X033687Y037308D02*
X033563Y037493D01*
X033687Y037308D02*
X033810Y037493D01*
X035440Y037308D02*
X035810Y037308D01*
X035810Y037187D02*
X035810Y036940D01*
X035810Y037063D02*
X035440Y037063D01*
X035563Y036940D01*
X035687Y037308D02*
X035563Y037493D01*
X035687Y037308D02*
X035810Y037493D01*
X037440Y037308D02*
X037810Y037308D01*
X037810Y037187D02*
X037810Y036940D01*
X037810Y037063D02*
X037440Y037063D01*
X037563Y036940D01*
X037687Y037308D02*
X037563Y037493D01*
X037687Y037308D02*
X037810Y037493D01*
X035810Y043440D02*
X035810Y043687D01*
X035810Y043808D02*
X035440Y043808D01*
X035563Y043993D02*
X035687Y043808D01*
X035810Y043993D01*
X035810Y043563D02*
X035440Y043563D01*
X035563Y043440D01*
X033810Y043440D02*
X033810Y043687D01*
X033810Y043808D02*
X033440Y043808D01*
X033563Y043993D02*
X033687Y043808D01*
X033810Y043993D01*
X033810Y043563D02*
X033440Y043563D01*
X033563Y043440D01*
X031810Y043440D02*
X031810Y043687D01*
X031810Y043808D02*
X031440Y043808D01*
X031563Y043993D02*
X031687Y043808D01*
X031810Y043993D01*
X031810Y043563D02*
X031440Y043563D01*
X031563Y043440D01*
X029810Y054440D02*
X029810Y054687D01*
X029810Y054808D02*
X029440Y054808D01*
X029563Y054993D02*
X029687Y054808D01*
X029810Y054993D01*
X029810Y054563D02*
X029440Y054563D01*
X029563Y054440D01*
X025810Y054440D02*
X025810Y054687D01*
X025810Y054808D02*
X025440Y054808D01*
X025563Y054993D02*
X025687Y054808D01*
X025810Y054993D01*
X025810Y054563D02*
X025440Y054563D01*
X025563Y054440D01*
X023810Y054440D02*
X023810Y054687D01*
X023810Y054808D02*
X023440Y054808D01*
X023563Y054993D02*
X023687Y054808D01*
X023810Y054993D01*
X023810Y054563D02*
X023440Y054563D01*
X023563Y054440D01*
X021810Y054440D02*
X021810Y054687D01*
X021810Y054808D02*
X021440Y054808D01*
X021563Y054993D02*
X021687Y054808D01*
X021810Y054993D01*
X021810Y054563D02*
X021440Y054563D01*
X021563Y054440D01*
X021563Y034993D02*
X021687Y034808D01*
X021810Y034993D01*
X021810Y034808D02*
X021440Y034808D01*
X021440Y034563D02*
X021810Y034563D01*
X021810Y034440D02*
X021810Y034687D01*
X021563Y034440D02*
X021440Y034563D01*
X019810Y034563D02*
X019440Y034563D01*
X019563Y034440D01*
X019810Y034440D02*
X019810Y034687D01*
X019810Y034808D02*
X019440Y034808D01*
X019563Y034993D02*
X019687Y034808D01*
X019810Y034993D01*
X017810Y034993D02*
X017687Y034808D01*
X017563Y034993D01*
X017440Y034808D02*
X017810Y034808D01*
X017810Y034687D02*
X017810Y034440D01*
X017810Y034563D02*
X017440Y034563D01*
X017563Y034440D01*
X015810Y034440D02*
X015810Y034687D01*
X015810Y034808D02*
X015440Y034808D01*
X015563Y034993D02*
X015687Y034808D01*
X015810Y034993D01*
X015810Y034563D02*
X015440Y034563D01*
X015563Y034440D01*
M02*
