G75*
G70*
%OFA0B0*%
%FSLAX24Y24*%
%IPPOS*%
%LPD*%
%AMOC8*
5,1,8,0,0,1.08239X$1,22.5*
%
%ADD10R,0.0650X0.0650*%
%ADD11C,0.0650*%
%ADD12C,0.0520*%
%ADD13C,0.0515*%
%ADD14R,0.1500X0.1500*%
%ADD15C,0.0160*%
%ADD16C,0.0400*%
%ADD17C,0.0240*%
D10*
X008850Y009350D03*
X003100Y014850D03*
X003100Y035600D03*
X008600Y041100D03*
X026350Y013600D03*
D11*
X026350Y014600D03*
X026350Y015600D03*
X026350Y016600D03*
X026350Y017600D03*
X026350Y018600D03*
X026350Y019600D03*
X026350Y020600D03*
X026350Y021600D03*
X026350Y022600D03*
X026350Y023600D03*
X026350Y024600D03*
X026350Y025600D03*
X026350Y026600D03*
X026350Y027600D03*
X026350Y028600D03*
X026350Y029600D03*
X026350Y030600D03*
X026350Y031600D03*
X026350Y032600D03*
X026350Y033600D03*
X026350Y034600D03*
X026350Y035600D03*
X026350Y036600D03*
X026350Y037600D03*
X026350Y038600D03*
X026350Y039600D03*
X026350Y040600D03*
X026350Y041600D03*
X026350Y042600D03*
X026350Y043600D03*
X026350Y044600D03*
X027350Y044600D03*
X027350Y043600D03*
X027350Y042600D03*
X027350Y041600D03*
X027350Y040600D03*
X027350Y039600D03*
X027350Y038600D03*
X027350Y037600D03*
X027350Y036600D03*
X027350Y035600D03*
X027350Y034600D03*
X027350Y033600D03*
X027350Y032600D03*
X027350Y031600D03*
X027350Y030600D03*
X027350Y029600D03*
X027350Y028600D03*
X027350Y027600D03*
X027350Y026600D03*
X027350Y025600D03*
X027350Y024600D03*
X027350Y023600D03*
X027350Y022600D03*
X027350Y021600D03*
X027350Y020600D03*
X027350Y019600D03*
X027350Y018600D03*
X027350Y017600D03*
X027350Y016600D03*
X027350Y015600D03*
X027350Y014600D03*
X027350Y013600D03*
X008850Y013350D03*
X008850Y012350D03*
X008850Y011350D03*
X008850Y010350D03*
X007850Y010350D03*
X007850Y009350D03*
X007850Y011350D03*
X007850Y012350D03*
X007850Y013350D03*
X007850Y014350D03*
X007850Y015350D03*
X007850Y016350D03*
X007850Y017350D03*
X007850Y018350D03*
X008850Y018350D03*
X008850Y017350D03*
X008850Y016350D03*
X008850Y015350D03*
X008850Y014350D03*
X003100Y015850D03*
X003100Y016850D03*
X003100Y017850D03*
X003100Y018850D03*
X003100Y019850D03*
X003100Y020850D03*
X003100Y021850D03*
X003100Y022850D03*
X003100Y023850D03*
X002100Y023850D03*
X002100Y022850D03*
X002100Y021850D03*
X002100Y020850D03*
X002100Y019850D03*
X002100Y018850D03*
X002100Y017850D03*
X002100Y016850D03*
X002100Y015850D03*
X002100Y014850D03*
X002100Y035600D03*
X002100Y036600D03*
X002100Y037600D03*
X002100Y038600D03*
X002100Y039600D03*
X002100Y040600D03*
X002100Y041600D03*
X002100Y042600D03*
X002100Y043600D03*
X002100Y044600D03*
X003100Y044600D03*
X003100Y043600D03*
X003100Y042600D03*
X003100Y041600D03*
X003100Y040600D03*
X003100Y039600D03*
X003100Y038600D03*
X003100Y037600D03*
X003100Y036600D03*
X007600Y041100D03*
X007600Y042100D03*
X007600Y043100D03*
X007600Y044100D03*
X007600Y045100D03*
X007600Y046100D03*
X007600Y047100D03*
X007600Y048100D03*
X007600Y049100D03*
X007600Y050100D03*
X008600Y050100D03*
X008600Y049100D03*
X008600Y048100D03*
X008600Y047100D03*
X008600Y046100D03*
X008600Y045100D03*
X008600Y044100D03*
X008600Y043100D03*
X008600Y042100D03*
D12*
X012600Y042100D03*
X012600Y040100D03*
X012600Y039100D03*
X012600Y037100D03*
X012600Y036100D03*
X012600Y034100D03*
X012600Y033100D03*
X012600Y031100D03*
X010600Y031100D03*
X010600Y033100D03*
X010600Y034100D03*
X010600Y036100D03*
X008600Y036100D03*
X008600Y034100D03*
X008600Y033100D03*
X008600Y031100D03*
X008600Y028600D03*
X008600Y026600D03*
X008600Y025600D03*
X008600Y023600D03*
X010600Y023600D03*
X010600Y025600D03*
X010600Y026600D03*
X010600Y028600D03*
X012600Y028600D03*
X012600Y026600D03*
X012600Y025600D03*
X012600Y023600D03*
X012600Y022600D03*
X012600Y020600D03*
X012600Y019600D03*
X012600Y017600D03*
X012600Y016100D03*
X012600Y014100D03*
X012600Y013100D03*
X012600Y011100D03*
X014600Y011100D03*
X014600Y013100D03*
X014600Y014100D03*
X014600Y016100D03*
X014600Y017600D03*
X014600Y019600D03*
X014600Y020600D03*
X014600Y022600D03*
X014600Y023600D03*
X014600Y025600D03*
X014600Y026600D03*
X014600Y028600D03*
X016600Y028600D03*
X016600Y026600D03*
X016600Y025600D03*
X016600Y023600D03*
X016600Y022600D03*
X016600Y020600D03*
X016600Y019600D03*
X016600Y017600D03*
X016600Y016100D03*
X016600Y014100D03*
X016600Y013100D03*
X016600Y011100D03*
X018600Y011100D03*
X018600Y013100D03*
X018600Y014100D03*
X018600Y016100D03*
X018600Y017600D03*
X018600Y019600D03*
X018600Y020600D03*
X018600Y022600D03*
X018600Y023600D03*
X018600Y025600D03*
X018600Y026600D03*
X018600Y028600D03*
X020600Y028600D03*
X020600Y026600D03*
X020600Y025600D03*
X020600Y023600D03*
X020600Y022600D03*
X020600Y020600D03*
X020600Y019600D03*
X020600Y017600D03*
X020600Y016100D03*
X020600Y014100D03*
X020600Y013100D03*
X020600Y011100D03*
X020600Y006600D03*
X020600Y004600D03*
X020600Y003600D03*
X020600Y001600D03*
X018600Y001600D03*
X018600Y003600D03*
X018600Y004600D03*
X018600Y006600D03*
X016600Y006600D03*
X016600Y004600D03*
X016600Y003600D03*
X016600Y001600D03*
X014600Y001600D03*
X014600Y003600D03*
X014600Y004600D03*
X014600Y006600D03*
X012600Y006600D03*
X012600Y004600D03*
X012600Y003600D03*
X012600Y001600D03*
X022600Y001600D03*
X022600Y003600D03*
X022600Y004600D03*
X022600Y006600D03*
X028600Y006600D03*
X028600Y004600D03*
X028600Y003600D03*
X028600Y001600D03*
X030600Y001600D03*
X030600Y003600D03*
X030600Y004600D03*
X030600Y006600D03*
X031100Y017350D03*
X031100Y019350D03*
X031100Y020350D03*
X031100Y022350D03*
X030600Y024100D03*
X030600Y026100D03*
X030600Y027100D03*
X030600Y029100D03*
X032600Y029100D03*
X032600Y027100D03*
X032600Y026100D03*
X032600Y024100D03*
X033100Y022350D03*
X033100Y020350D03*
X033100Y019350D03*
X033100Y017350D03*
X035100Y017350D03*
X035100Y019350D03*
X035100Y020350D03*
X035100Y022350D03*
X034600Y033600D03*
X034600Y035600D03*
X034600Y036600D03*
X034600Y038600D03*
X034600Y040100D03*
X034600Y042100D03*
X034600Y043100D03*
X034600Y045100D03*
X032600Y045100D03*
X032600Y043100D03*
X032600Y042100D03*
X032600Y040100D03*
X032600Y038600D03*
X032600Y036600D03*
X032600Y035600D03*
X032600Y033600D03*
X030600Y033600D03*
X030600Y035600D03*
X030600Y036600D03*
X030600Y038600D03*
X030600Y040100D03*
X030600Y042100D03*
X030600Y043100D03*
X030600Y045100D03*
X028600Y051100D03*
X028600Y053100D03*
X028600Y054100D03*
X028600Y056100D03*
X024600Y056100D03*
X024600Y054100D03*
X024600Y053100D03*
X024600Y051100D03*
X022600Y051100D03*
X022600Y053100D03*
X022600Y054100D03*
X022600Y056100D03*
X020600Y056100D03*
X020600Y054100D03*
X020600Y053100D03*
X020600Y051100D03*
X020600Y049100D03*
X020600Y047100D03*
X020600Y046100D03*
X020600Y044100D03*
X020600Y042100D03*
X020600Y040100D03*
X020600Y039100D03*
X020600Y037100D03*
X020600Y036100D03*
X020600Y034100D03*
X020600Y033100D03*
X020600Y031100D03*
X018600Y031100D03*
X018600Y033100D03*
X018600Y034100D03*
X018600Y036100D03*
X018600Y037100D03*
X018600Y039100D03*
X018600Y040100D03*
X018600Y042100D03*
X018600Y044100D03*
X018600Y046100D03*
X018600Y047100D03*
X018600Y049100D03*
X018600Y051100D03*
X018600Y053100D03*
X018600Y054100D03*
X018600Y056100D03*
X016600Y056100D03*
X016600Y054100D03*
X016600Y053100D03*
X016600Y051100D03*
X016600Y049100D03*
X016600Y047100D03*
X016600Y046100D03*
X016600Y044100D03*
X016600Y042100D03*
X016600Y040100D03*
X016600Y039100D03*
X016600Y037100D03*
X016600Y036100D03*
X016600Y034100D03*
X016600Y033100D03*
X016600Y031100D03*
X014600Y031100D03*
X014600Y033100D03*
X014600Y034100D03*
X014600Y036100D03*
X014600Y037100D03*
X014600Y039100D03*
X014600Y040100D03*
X014600Y042100D03*
X014600Y044100D03*
X014600Y046100D03*
X014600Y047100D03*
X014600Y049100D03*
X014600Y051100D03*
X014600Y053100D03*
X014600Y054100D03*
X014600Y056100D03*
X012600Y056100D03*
X012600Y054100D03*
X012600Y053100D03*
X012600Y051100D03*
X012600Y049100D03*
X012600Y047100D03*
X012600Y046100D03*
X012600Y044100D03*
X022600Y028600D03*
X022600Y026600D03*
X022600Y025600D03*
X022600Y023600D03*
X022600Y022600D03*
X022600Y020600D03*
X022600Y019600D03*
X022600Y017600D03*
X036600Y033600D03*
X036600Y035600D03*
X036600Y036600D03*
X036600Y038600D03*
D13*
X037600Y038600D03*
X037600Y036600D03*
X035600Y036600D03*
X035600Y038600D03*
X033600Y038600D03*
X033600Y036600D03*
X031600Y036600D03*
X031600Y038600D03*
X031600Y043100D03*
X031600Y045100D03*
X033600Y045100D03*
X033600Y043100D03*
X035600Y043100D03*
X035600Y045100D03*
X029600Y054100D03*
X029600Y056100D03*
X025600Y056100D03*
X025600Y054100D03*
X023600Y054100D03*
X023600Y056100D03*
X021600Y056100D03*
X021600Y054100D03*
X019600Y054100D03*
X019600Y056100D03*
X020350Y058100D03*
X018350Y058100D03*
X017600Y056100D03*
X017600Y054100D03*
X015600Y054100D03*
X015600Y056100D03*
X013600Y056100D03*
X013600Y054100D03*
X013600Y049100D03*
X013600Y047100D03*
X015600Y047100D03*
X015600Y049100D03*
X017600Y049100D03*
X017600Y047100D03*
X019600Y047100D03*
X019600Y049100D03*
X021600Y049100D03*
X021600Y047100D03*
X021600Y042100D03*
X021600Y040100D03*
X019600Y040100D03*
X019600Y042100D03*
X017600Y042100D03*
X017600Y040100D03*
X015600Y040100D03*
X015600Y042100D03*
X013600Y042100D03*
X013600Y040100D03*
X013600Y036100D03*
X013600Y034100D03*
X011600Y034100D03*
X011600Y036100D03*
X009600Y036100D03*
X009600Y034100D03*
X007350Y030600D03*
X005850Y030600D03*
X005850Y028600D03*
X007350Y028600D03*
X009600Y028600D03*
X009600Y026600D03*
X011600Y026600D03*
X011600Y028600D03*
X013600Y028600D03*
X013600Y026600D03*
X015600Y026600D03*
X015600Y028600D03*
X017600Y028600D03*
X017600Y026600D03*
X019600Y026600D03*
X019600Y028600D03*
X021600Y028600D03*
X021600Y026600D03*
X023600Y026600D03*
X023600Y028600D03*
X021600Y034100D03*
X021600Y036100D03*
X019600Y036100D03*
X019600Y034100D03*
X017600Y034100D03*
X017600Y036100D03*
X015600Y036100D03*
X015600Y034100D03*
X015600Y022600D03*
X015600Y020600D03*
X013600Y020600D03*
X013600Y022600D03*
X017600Y022600D03*
X017600Y020600D03*
X019600Y020600D03*
X019600Y022600D03*
X021600Y022600D03*
X021600Y020600D03*
X023600Y020600D03*
X023600Y022600D03*
X021600Y016100D03*
X021600Y014100D03*
X019600Y014100D03*
X019600Y016100D03*
X017600Y016100D03*
X017600Y014100D03*
X015600Y014100D03*
X015600Y016100D03*
X013600Y016100D03*
X013600Y014100D03*
X013600Y006600D03*
X013600Y004600D03*
X015600Y004600D03*
X015600Y006600D03*
X017600Y006600D03*
X017600Y004600D03*
X019600Y004600D03*
X019600Y006600D03*
X021600Y006600D03*
X021600Y004600D03*
X023600Y004600D03*
X023600Y006600D03*
X025850Y005600D03*
X025850Y003600D03*
X029600Y004600D03*
X029600Y006600D03*
X031600Y006600D03*
X031600Y004600D03*
X032100Y020350D03*
X032100Y022350D03*
X034100Y022350D03*
X034100Y020350D03*
X036100Y020350D03*
X036100Y022350D03*
X033600Y027100D03*
X033600Y029100D03*
X031600Y029100D03*
X030600Y030600D03*
X030600Y032600D03*
X031600Y027100D03*
D14*
X028350Y058100D03*
X026100Y058100D03*
X023850Y058100D03*
X014850Y058100D03*
X012600Y058100D03*
X010350Y058100D03*
D15*
X009850Y057100D02*
X028850Y057100D01*
X029100Y056850D01*
X029100Y055850D01*
X029600Y055350D01*
X029600Y054100D01*
X028600Y054100D02*
X028600Y053100D01*
X027350Y051850D01*
X027350Y044600D01*
X026850Y044100D02*
X027350Y043600D01*
X026850Y043100D02*
X027350Y042600D01*
X026850Y042100D02*
X027350Y041600D01*
X026850Y041100D02*
X027350Y040600D01*
X026850Y040100D02*
X027350Y039600D01*
X026850Y039100D02*
X027350Y038600D01*
X026850Y038100D02*
X028100Y038100D01*
X028600Y038600D01*
X028600Y041600D01*
X029100Y042100D01*
X030600Y042100D01*
X030600Y043100D01*
X031600Y044100D01*
X031600Y045100D01*
X032600Y043100D02*
X032600Y042100D01*
X032600Y041350D01*
X032350Y041100D01*
X029600Y041100D01*
X029100Y040600D01*
X029100Y038100D01*
X028600Y037600D01*
X027350Y037600D01*
X026850Y038100D02*
X026350Y038600D01*
X026850Y039100D02*
X023600Y039100D01*
X023350Y039350D01*
X023350Y041350D01*
X023100Y041600D01*
X023100Y047350D01*
X022850Y047600D01*
X020850Y047600D01*
X020600Y047350D01*
X020600Y047100D01*
X020600Y046100D01*
X019600Y047100D02*
X019600Y043850D01*
X019350Y043600D01*
X008100Y043600D01*
X007600Y043100D01*
X008100Y042600D02*
X011850Y042600D01*
X012100Y042850D01*
X021350Y042850D01*
X022600Y044100D01*
X022600Y043350D02*
X021850Y042600D01*
X012350Y042600D01*
X011850Y042100D01*
X008600Y042100D01*
X008100Y041600D02*
X022100Y041600D01*
X022600Y042100D01*
X022600Y042600D01*
X023350Y041850D02*
X023600Y041600D01*
X023600Y039850D01*
X023850Y039600D01*
X026350Y039600D01*
X026850Y040100D02*
X024100Y040100D01*
X023850Y040350D01*
X023850Y041850D01*
X023600Y042100D01*
X023600Y047850D01*
X023350Y048100D01*
X016850Y048100D01*
X016600Y047850D01*
X016600Y047100D01*
X016600Y046100D01*
X015600Y045350D02*
X015600Y047100D01*
X014600Y047850D02*
X015100Y048350D01*
X023600Y048350D01*
X023850Y048100D01*
X023850Y042350D01*
X024100Y042100D01*
X024100Y040850D01*
X024350Y040600D01*
X026350Y040600D01*
X026850Y041100D02*
X024600Y041100D01*
X024350Y041350D01*
X024350Y042350D01*
X024100Y042600D01*
X024100Y048350D01*
X023850Y048600D01*
X013850Y048600D01*
X013600Y048850D01*
X013600Y048100D01*
X012600Y047100D01*
X012600Y046100D01*
X012100Y045600D02*
X013100Y045600D01*
X013600Y046100D01*
X013600Y047100D01*
X014600Y047100D02*
X014600Y047850D01*
X014600Y047100D02*
X014600Y046100D01*
X015350Y045100D02*
X015600Y045350D01*
X015350Y045100D02*
X012100Y045100D01*
X011600Y044600D01*
X008100Y044600D01*
X007600Y044100D01*
X008600Y044100D02*
X011600Y044100D01*
X012100Y044600D01*
X017350Y044600D01*
X017600Y044850D01*
X017600Y047100D01*
X018600Y047100D02*
X018600Y046100D01*
X018600Y047100D02*
X018600Y047600D01*
X018850Y047850D01*
X023100Y047850D01*
X023350Y047600D01*
X023350Y041850D01*
X022850Y041350D02*
X013850Y041350D01*
X012600Y040100D01*
X012600Y039100D01*
X013350Y038600D02*
X013600Y038850D01*
X013600Y040100D01*
X014600Y040100D02*
X014600Y039100D01*
X014600Y040100D02*
X015600Y041100D01*
X022600Y041100D01*
X022850Y040850D01*
X022850Y038850D01*
X024850Y037100D01*
X024850Y035350D01*
X025100Y035100D01*
X026850Y035100D01*
X027350Y034600D01*
X026850Y034100D02*
X027350Y033600D01*
X026850Y034100D02*
X024600Y034100D01*
X024350Y034350D01*
X024350Y036600D01*
X022350Y038350D01*
X022350Y040350D01*
X022100Y040600D01*
X019100Y040600D01*
X018600Y040100D01*
X018600Y039100D01*
X017600Y038350D02*
X017600Y040100D01*
X017350Y040850D02*
X016600Y040100D01*
X016600Y039100D01*
X015600Y038600D02*
X015600Y040100D01*
X015600Y038600D02*
X015350Y038350D01*
X006600Y038350D01*
X006350Y038600D01*
X006350Y040100D01*
X006100Y040350D01*
X005100Y040350D01*
X004850Y040600D01*
X004850Y042350D01*
X004600Y042600D01*
X003100Y042600D01*
X002600Y042100D02*
X004350Y042100D01*
X004600Y041850D01*
X004600Y040350D01*
X004850Y040100D01*
X005850Y040100D01*
X006100Y039850D01*
X006100Y038350D01*
X006350Y038100D01*
X017350Y038100D01*
X017600Y038350D01*
X019350Y037850D02*
X019600Y038100D01*
X019600Y040100D01*
X020600Y040100D02*
X020600Y039600D01*
X020600Y039100D01*
X020600Y039600D02*
X021850Y039600D01*
X022100Y039350D01*
X022100Y038100D01*
X024100Y036350D01*
X024100Y033850D01*
X024350Y033600D01*
X026350Y033600D01*
X026350Y034600D02*
X024850Y034600D01*
X024600Y034850D01*
X024600Y036850D01*
X022600Y038600D01*
X022600Y040600D01*
X022350Y040850D01*
X017350Y040850D01*
X019350Y037850D02*
X006100Y037850D01*
X005850Y038100D01*
X005850Y039600D01*
X005600Y039850D01*
X004600Y039850D01*
X004350Y040100D01*
X004350Y041350D01*
X004100Y041600D01*
X003100Y041600D01*
X002600Y041100D02*
X003600Y041100D01*
X004100Y040600D01*
X004100Y039600D01*
X004350Y039350D01*
X005350Y039350D01*
X005600Y039100D01*
X005600Y037850D01*
X005850Y037600D01*
X021350Y037600D01*
X021600Y037850D01*
X022350Y037100D02*
X021850Y036600D01*
X007850Y036600D01*
X007600Y036350D01*
X006850Y036350D02*
X006850Y035850D01*
X007100Y035600D01*
X022350Y035600D01*
X022850Y036100D01*
X022850Y036600D01*
X023350Y036100D02*
X022600Y035350D01*
X006600Y035350D01*
X006350Y035600D01*
X006350Y035850D01*
X005850Y035100D02*
X023600Y035100D01*
X023100Y034600D02*
X022850Y034850D01*
X009350Y034850D01*
X008600Y034100D01*
X010600Y034100D02*
X011100Y034600D01*
X022350Y034600D01*
X022850Y034100D01*
X022850Y032350D01*
X023100Y032100D01*
X026850Y032100D01*
X027350Y031600D01*
X026850Y031100D02*
X027350Y030600D01*
X026850Y030100D02*
X027350Y029600D01*
X026850Y029100D02*
X025600Y029100D01*
X025350Y029350D01*
X010100Y029350D01*
X009600Y028600D01*
X009600Y026600D02*
X009600Y025600D01*
X009100Y025100D01*
X007350Y025100D01*
X005600Y023350D01*
X005100Y023350D01*
X004600Y023850D01*
X003100Y023850D01*
X002600Y023350D02*
X004600Y023350D01*
X004850Y023100D01*
X005850Y023100D01*
X007600Y024850D01*
X010850Y024850D01*
X011600Y025600D01*
X011600Y026600D01*
X012600Y026600D02*
X012600Y025600D01*
X012600Y024600D02*
X013600Y025600D01*
X013600Y026600D01*
X014600Y026600D02*
X014600Y025600D01*
X014350Y024850D02*
X016850Y024850D01*
X017600Y025600D01*
X017600Y026600D01*
X017350Y027350D02*
X016600Y026600D01*
X016600Y025600D01*
X015600Y025600D02*
X015600Y026600D01*
X015600Y025600D02*
X015100Y025100D01*
X013600Y025100D01*
X012850Y024350D01*
X008100Y024350D01*
X006100Y022350D01*
X002600Y022350D01*
X002100Y021850D01*
X002100Y022850D02*
X002600Y023350D01*
X003100Y022850D02*
X006100Y022850D01*
X007850Y024600D01*
X012600Y024600D01*
X013600Y024100D02*
X014350Y024850D01*
X014350Y024100D02*
X014100Y023850D01*
X014100Y023100D01*
X013600Y022600D01*
X013600Y021600D01*
X012600Y020600D01*
X012100Y020100D02*
X021600Y020100D01*
X021600Y020600D01*
X021600Y021600D02*
X021600Y022600D01*
X022100Y022100D01*
X024850Y022100D01*
X025850Y023100D01*
X026850Y023100D01*
X027350Y022600D01*
X026850Y022100D02*
X026350Y021600D01*
X026850Y021100D02*
X032350Y021100D01*
X033100Y020350D01*
X033100Y019350D01*
X033100Y020350D02*
X034100Y021350D01*
X034100Y022350D01*
X034100Y020350D02*
X034100Y018600D01*
X033600Y018100D01*
X012100Y018100D01*
X011850Y017850D01*
X008350Y017850D01*
X007850Y017350D01*
X008350Y016850D02*
X007850Y016350D01*
X008350Y015850D02*
X007850Y015350D01*
X008350Y014850D02*
X007850Y014350D01*
X008350Y014850D02*
X009100Y014850D01*
X009350Y014600D01*
X009350Y013850D01*
X009600Y013600D01*
X013600Y013600D01*
X013600Y014100D01*
X014600Y014100D02*
X014600Y013100D01*
X015600Y014100D02*
X015100Y014600D01*
X009850Y014600D01*
X009600Y014850D01*
X009600Y015100D01*
X009350Y015350D01*
X008850Y015350D01*
X008350Y015850D02*
X009600Y015850D01*
X009850Y015600D01*
X009850Y015100D01*
X010100Y014850D01*
X017350Y014850D01*
X017600Y014600D01*
X017600Y014100D01*
X018600Y014100D02*
X018600Y013100D01*
X019600Y014100D02*
X019600Y014850D01*
X019350Y015100D01*
X010350Y015100D01*
X010100Y015350D01*
X010100Y016100D01*
X009850Y016350D01*
X008850Y016350D01*
X008350Y016850D02*
X010100Y016850D01*
X010350Y016600D01*
X010350Y015600D01*
X010600Y015350D01*
X021350Y015350D01*
X021600Y015100D01*
X021600Y014100D01*
X020600Y014100D02*
X020600Y013100D01*
X022600Y015600D02*
X016100Y015600D01*
X015600Y016100D01*
X016600Y014100D02*
X016600Y013100D01*
X016100Y009600D02*
X024100Y009600D01*
X024350Y009850D01*
X024350Y016100D01*
X024850Y016600D01*
X026350Y016600D01*
X026850Y016100D02*
X027350Y015600D01*
X026850Y015100D02*
X027350Y014600D01*
X026850Y014100D02*
X027350Y013600D01*
X026850Y014100D02*
X025850Y014100D01*
X025600Y013850D01*
X025600Y009600D01*
X026100Y009100D01*
X029350Y009100D01*
X029600Y008850D01*
X029600Y006600D01*
X029600Y005600D01*
X028600Y004600D01*
X028600Y003600D01*
X029100Y004100D02*
X029600Y004600D01*
X029100Y004100D02*
X029100Y001350D01*
X028850Y001100D01*
X010600Y001100D01*
X010100Y001600D01*
X010100Y010100D01*
X009850Y010350D01*
X008850Y010350D01*
X008350Y009850D02*
X009350Y009850D01*
X009600Y009600D01*
X009600Y001100D01*
X009850Y000850D01*
X030600Y000850D01*
X031100Y001350D01*
X031100Y004100D01*
X031600Y004600D01*
X031600Y005600D02*
X030600Y004600D01*
X030600Y003600D01*
X031600Y005600D02*
X031600Y006600D01*
X031600Y009100D01*
X031350Y009350D01*
X028100Y009350D01*
X027600Y009850D01*
X027600Y012350D01*
X026350Y013600D01*
X026350Y014600D02*
X025600Y014600D01*
X025350Y014350D01*
X025350Y008850D01*
X025100Y008600D01*
X023850Y008600D01*
X023600Y008350D01*
X023600Y006600D01*
X023600Y005600D01*
X022600Y004600D01*
X022600Y003600D01*
X021600Y003100D02*
X021600Y004600D01*
X021600Y005600D02*
X020600Y004600D01*
X020600Y003600D01*
X019600Y003350D02*
X019600Y004600D01*
X019600Y005600D02*
X018600Y004600D01*
X018600Y003600D01*
X019100Y002850D02*
X019600Y003350D01*
X019100Y002850D02*
X011100Y002850D01*
X010850Y003100D01*
X010850Y011600D01*
X010600Y011850D01*
X008350Y011850D01*
X007850Y011350D01*
X007850Y012350D02*
X008350Y012850D01*
X011100Y012850D01*
X011350Y012600D01*
X011350Y004350D01*
X011600Y004100D01*
X015100Y004100D01*
X015600Y004600D01*
X015600Y005600D02*
X014600Y004600D01*
X013600Y004600D02*
X013100Y005100D01*
X011850Y005100D01*
X011600Y005350D01*
X011600Y013100D01*
X011350Y013350D01*
X008850Y013350D01*
X008850Y012350D02*
X010850Y012350D01*
X011100Y012100D01*
X011100Y003350D01*
X011350Y003100D01*
X017100Y003100D01*
X017600Y003600D01*
X017600Y004600D01*
X017600Y005600D02*
X016600Y004600D01*
X016600Y003600D01*
X015600Y005600D02*
X015600Y006600D01*
X015600Y009100D01*
X016100Y009600D01*
X017600Y009100D02*
X017850Y009350D01*
X024350Y009350D01*
X024600Y009600D01*
X024600Y015850D01*
X024850Y016100D01*
X026850Y016100D01*
X026350Y015600D02*
X025100Y015600D01*
X024850Y015350D01*
X024850Y009350D01*
X024600Y009100D01*
X019850Y009100D01*
X019600Y008850D01*
X019600Y006600D01*
X019600Y005600D01*
X017600Y005600D02*
X017600Y006600D01*
X017600Y009100D01*
X014100Y009850D02*
X013600Y009350D01*
X013600Y006600D01*
X014100Y009850D02*
X022600Y009850D01*
X022850Y010100D01*
X022850Y012850D01*
X025100Y014850D02*
X025100Y009100D01*
X024850Y008850D01*
X021850Y008850D01*
X021600Y008600D01*
X021600Y006600D01*
X021600Y005600D01*
X021600Y003100D02*
X021100Y002600D01*
X010850Y002600D01*
X010600Y002850D01*
X010600Y011100D01*
X010350Y011350D01*
X008850Y011350D01*
X008350Y010850D02*
X010100Y010850D01*
X010350Y010600D01*
X010350Y002600D01*
X010600Y002350D01*
X023350Y002350D01*
X023600Y002600D01*
X023600Y004600D01*
X025100Y014850D02*
X025350Y015100D01*
X026850Y015100D01*
X025350Y018350D02*
X026100Y019100D01*
X029850Y019100D01*
X030350Y018600D01*
X031600Y018600D01*
X032100Y019100D01*
X032100Y020350D01*
X031100Y020350D02*
X031100Y019350D01*
X031100Y020350D02*
X030850Y020600D01*
X027350Y020600D01*
X026850Y021100D02*
X026350Y020600D01*
X025850Y020100D02*
X029350Y020100D01*
X028600Y021600D02*
X029100Y022100D01*
X029100Y025100D01*
X029350Y025350D01*
X032350Y025350D01*
X032600Y025600D01*
X032600Y026100D01*
X032600Y027100D01*
X033600Y028100D01*
X033600Y029100D01*
X031600Y029100D02*
X031600Y028100D01*
X030600Y027100D01*
X030600Y026100D01*
X029350Y026100D01*
X028850Y025600D01*
X028850Y022600D01*
X028350Y022100D01*
X026850Y022100D01*
X027350Y021600D02*
X028600Y021600D01*
X027350Y023600D02*
X026850Y024100D01*
X018350Y024100D01*
X018100Y023850D01*
X018100Y023100D01*
X017600Y022600D01*
X017600Y021600D01*
X016600Y020600D01*
X015600Y021600D02*
X014600Y020600D01*
X015600Y021600D02*
X015600Y022600D01*
X016100Y023100D01*
X016850Y023100D01*
X017100Y023350D01*
X017100Y024100D01*
X017600Y024600D01*
X026350Y024600D01*
X026850Y025100D02*
X025600Y025100D01*
X025350Y024850D01*
X017350Y024850D01*
X016600Y024100D01*
X014350Y024100D01*
X013600Y024100D02*
X008350Y024100D01*
X006100Y021850D01*
X003100Y021850D01*
X004600Y020600D02*
X004850Y020850D01*
X008850Y020850D01*
X009350Y021350D01*
X010350Y021350D01*
X010600Y021100D01*
X010100Y020600D02*
X009850Y020350D01*
X005350Y020350D01*
X005100Y020100D01*
X005100Y018100D01*
X004850Y017850D01*
X003100Y017850D01*
X002600Y018350D02*
X004600Y018350D01*
X004850Y018600D01*
X004850Y020350D01*
X005100Y020600D01*
X009350Y020600D01*
X009600Y020850D01*
X009850Y019850D02*
X010350Y019350D01*
X011350Y019350D01*
X012100Y020100D01*
X010600Y019850D02*
X010350Y020100D01*
X005600Y020100D01*
X005350Y019850D01*
X005350Y017600D01*
X005100Y017350D01*
X002600Y017350D01*
X002100Y016850D01*
X002600Y016350D02*
X005600Y016350D01*
X005850Y016600D01*
X005850Y019350D01*
X006100Y019600D01*
X009600Y019600D01*
X010100Y019100D01*
X023100Y019100D01*
X023600Y019600D01*
X023600Y020600D01*
X022600Y020600D02*
X022600Y019600D01*
X023350Y017600D02*
X024600Y017600D01*
X025350Y018350D02*
X008850Y018350D01*
X009100Y019100D02*
X009600Y018600D01*
X025100Y018600D01*
X025600Y019100D01*
X025600Y019850D01*
X025850Y020100D01*
X025350Y020850D02*
X025600Y021100D01*
X025350Y020850D02*
X025350Y019350D01*
X024850Y018850D01*
X009850Y018850D01*
X009350Y019350D01*
X006350Y019350D01*
X006100Y019100D01*
X006100Y016100D01*
X005850Y015850D01*
X003100Y015850D01*
X002600Y015350D02*
X006100Y015350D01*
X006350Y015600D01*
X006350Y018850D01*
X006600Y019100D01*
X009100Y019100D01*
X009850Y019850D02*
X005850Y019850D01*
X005600Y019600D01*
X005600Y017100D01*
X005350Y016850D01*
X003100Y016850D01*
X002600Y016350D02*
X002100Y015850D01*
X002600Y015350D02*
X002100Y014850D01*
X002100Y017850D02*
X002600Y018350D01*
X003100Y018850D02*
X004350Y018850D01*
X004600Y019100D01*
X004600Y020600D01*
X008600Y025600D02*
X008600Y026600D01*
X010600Y026600D02*
X010600Y025600D01*
X011600Y028600D02*
X011850Y028600D01*
X012350Y029100D01*
X024100Y029100D01*
X024600Y028600D01*
X026350Y028600D01*
X026850Y029100D02*
X027350Y028600D01*
X026850Y028100D02*
X027350Y027600D01*
X026850Y027100D02*
X024850Y027100D01*
X024600Y027350D01*
X017350Y027350D01*
X018600Y026600D02*
X018600Y025600D01*
X018600Y026600D02*
X019100Y027100D01*
X023850Y027100D01*
X024350Y026600D01*
X026350Y026600D01*
X026850Y026100D02*
X020600Y026100D01*
X020600Y026600D01*
X020600Y026100D02*
X020600Y025600D01*
X020100Y023100D02*
X019600Y022600D01*
X019600Y021600D01*
X018600Y020600D01*
X020100Y023100D02*
X024850Y023100D01*
X025350Y023600D01*
X026350Y023600D01*
X027350Y024600D02*
X026850Y025100D01*
X027350Y025600D02*
X026850Y026100D01*
X026350Y025600D02*
X025600Y025600D01*
X025100Y025100D01*
X023100Y025100D01*
X022600Y025600D01*
X021600Y021600D02*
X020600Y020600D01*
X022100Y016600D02*
X024100Y016600D01*
X029350Y017100D02*
X030100Y017850D01*
X035600Y017850D01*
X036100Y018350D01*
X036100Y020350D01*
X036100Y021350D02*
X035100Y020350D01*
X035100Y019350D01*
X036100Y021350D02*
X036100Y022350D01*
X029350Y017100D02*
X012100Y017100D01*
X011850Y017350D01*
X008850Y017350D01*
X008350Y010850D02*
X007850Y010350D01*
X008350Y009850D02*
X007850Y009350D01*
X014600Y026600D02*
X015600Y027600D01*
X015600Y028600D01*
X016100Y028100D02*
X026850Y028100D01*
X026350Y027600D02*
X015600Y027600D01*
X015100Y029850D02*
X015850Y030600D01*
X025100Y030600D01*
X025600Y031100D01*
X026850Y031100D01*
X026350Y030600D02*
X025600Y030600D01*
X025350Y030350D01*
X017600Y030350D01*
X017100Y029850D01*
X017350Y032100D02*
X017600Y032350D01*
X017600Y034100D01*
X018600Y034100D02*
X018600Y033100D01*
X019600Y032100D02*
X019350Y031850D01*
X004350Y031850D01*
X004100Y032100D01*
X004100Y036350D01*
X003850Y036600D01*
X003100Y036600D01*
X002600Y036100D02*
X003600Y036100D01*
X003850Y035850D01*
X003850Y031850D01*
X004100Y031600D01*
X021350Y031600D01*
X021600Y031850D01*
X021600Y034100D01*
X022100Y033600D02*
X022100Y031850D01*
X022350Y031600D01*
X026350Y031600D01*
X026350Y032600D02*
X023350Y032600D01*
X023100Y032850D01*
X023100Y034600D01*
X025100Y035850D02*
X025100Y037350D01*
X023100Y039100D01*
X023100Y041100D01*
X022850Y041350D01*
X024600Y042350D02*
X025350Y041600D01*
X026350Y041600D01*
X026850Y042100D02*
X025350Y042100D01*
X024850Y042600D01*
X024850Y048850D01*
X023850Y049850D01*
X015350Y049850D01*
X015100Y050100D01*
X015100Y052600D01*
X014600Y053100D01*
X015600Y053600D02*
X015600Y054100D01*
X015600Y053600D02*
X011350Y053600D01*
X011100Y053350D01*
X011100Y047350D01*
X010850Y047100D01*
X008600Y047100D01*
X008100Y047600D02*
X010600Y047600D01*
X010850Y047850D01*
X010850Y054350D01*
X011100Y054600D01*
X017100Y054600D01*
X017600Y054100D01*
X018600Y054100D02*
X018600Y053100D01*
X019100Y052600D01*
X019100Y050600D01*
X019350Y050350D01*
X024350Y050350D01*
X025350Y049350D01*
X025350Y043350D01*
X025600Y043100D01*
X026850Y043100D01*
X026350Y042600D02*
X025350Y042600D01*
X025100Y042850D01*
X025100Y049100D01*
X024100Y050100D01*
X017350Y050100D01*
X017100Y050350D01*
X017100Y052600D01*
X016600Y053100D01*
X016600Y054100D01*
X018850Y054850D02*
X019600Y054100D01*
X020600Y054100D02*
X020600Y053100D01*
X021100Y052600D01*
X021100Y050850D01*
X021350Y050600D01*
X024600Y050600D01*
X025600Y049600D01*
X025600Y043850D01*
X025850Y043600D01*
X026350Y043600D01*
X026100Y044100D02*
X025850Y044350D01*
X025850Y049850D01*
X025100Y050600D01*
X025100Y051850D01*
X024850Y052100D01*
X023100Y052100D01*
X022600Y052600D01*
X022600Y053100D01*
X022600Y054100D01*
X021600Y054100D02*
X021600Y054850D01*
X021350Y055100D01*
X010600Y055100D01*
X010350Y054850D01*
X010350Y048850D01*
X010100Y048600D01*
X008100Y048600D01*
X007600Y048100D01*
X008100Y047600D02*
X007600Y047100D01*
X008100Y046600D02*
X007600Y046100D01*
X008100Y046600D02*
X011100Y046600D01*
X011350Y046850D01*
X011350Y052350D01*
X011600Y052600D01*
X012600Y053100D02*
X013100Y052600D01*
X013100Y049850D01*
X013350Y049600D01*
X023600Y049600D01*
X024600Y048600D01*
X024600Y042350D01*
X026100Y044100D02*
X026850Y044100D01*
X026350Y044600D02*
X026100Y044850D01*
X026100Y052350D01*
X025850Y052600D01*
X025100Y052600D01*
X024600Y053100D01*
X024600Y054100D01*
X023600Y054100D02*
X023600Y055100D01*
X023350Y055350D01*
X010350Y055350D01*
X010100Y055100D01*
X010100Y049350D01*
X009850Y049100D01*
X008600Y049100D01*
X008100Y049600D02*
X009600Y049600D01*
X009850Y049850D01*
X009850Y055350D01*
X010100Y055600D01*
X025350Y055600D01*
X025600Y055350D01*
X025600Y054100D01*
X021600Y047100D02*
X021600Y043850D01*
X020850Y043100D01*
X008600Y043100D01*
X008100Y042600D02*
X007600Y042100D01*
X008100Y041600D02*
X007600Y041100D01*
X006600Y040350D02*
X006600Y038850D01*
X006850Y038600D01*
X013350Y038600D01*
X013600Y034100D02*
X013600Y033100D01*
X013100Y032600D01*
X005100Y032600D01*
X004850Y032850D01*
X004850Y037850D01*
X004600Y038100D01*
X002600Y038100D01*
X002100Y037600D01*
X002600Y037100D02*
X002100Y036600D01*
X002600Y036100D02*
X002100Y035600D01*
X002600Y037100D02*
X004100Y037100D01*
X004350Y036850D01*
X004350Y032350D01*
X004600Y032100D01*
X017350Y032100D01*
X016600Y033100D02*
X016600Y034100D01*
X015600Y034100D02*
X015600Y032600D01*
X015350Y032350D01*
X004850Y032350D01*
X004600Y032600D01*
X004600Y037350D01*
X004350Y037600D01*
X003100Y037600D01*
X003100Y038600D02*
X004850Y038600D01*
X005100Y038350D01*
X005100Y033850D01*
X005350Y033600D01*
X011600Y033600D01*
X011600Y034100D01*
X014600Y034100D02*
X014600Y033100D01*
X019600Y032100D02*
X019600Y034100D01*
X020600Y034100D02*
X020600Y033100D01*
X019600Y029850D02*
X025600Y029850D01*
X025850Y030100D01*
X026850Y030100D01*
X027350Y032600D02*
X028600Y032600D01*
X030100Y034600D01*
X036100Y034600D01*
X036600Y035100D01*
X036600Y035600D01*
X036600Y036600D02*
X037600Y037600D01*
X037600Y038600D01*
X035600Y038600D02*
X035600Y037600D01*
X034600Y036600D01*
X034600Y035600D01*
X034100Y035100D01*
X030350Y035100D01*
X029850Y035600D01*
X027350Y035600D01*
X026850Y036100D02*
X032600Y036100D01*
X032600Y036600D01*
X033600Y037600D01*
X033600Y038600D01*
X034350Y040850D02*
X034600Y041100D01*
X034600Y042100D01*
X034600Y043100D01*
X035600Y044100D01*
X035600Y045100D01*
X033600Y045100D02*
X033600Y044100D01*
X032600Y043100D01*
X034350Y040850D02*
X030100Y040850D01*
X029600Y040350D01*
X029600Y037600D01*
X029100Y037100D01*
X026850Y037100D01*
X026350Y037600D01*
X026350Y036600D02*
X026850Y036100D01*
X026350Y035600D02*
X025350Y035600D01*
X025100Y035850D01*
X027350Y036600D02*
X030600Y036600D01*
X031600Y037600D01*
X031600Y038600D01*
X032600Y036100D02*
X032600Y035600D01*
X026850Y027100D02*
X027350Y026600D01*
X013600Y048850D02*
X013600Y049100D01*
X012100Y045600D02*
X011600Y045100D01*
X008600Y045100D01*
X008600Y048100D02*
X010350Y048100D01*
X010600Y048350D01*
X010600Y054600D01*
X010850Y054850D01*
X018850Y054850D01*
X009850Y057100D02*
X009600Y056850D01*
X009600Y050600D01*
X009100Y050100D01*
X008600Y050100D01*
X008100Y049600D02*
X007600Y049100D01*
X004850Y043100D02*
X005100Y042850D01*
X005100Y040850D01*
X005350Y040600D01*
X006350Y040600D01*
X006600Y040350D01*
X005350Y038850D02*
X005350Y034850D01*
X005600Y034600D01*
X005350Y038850D02*
X005100Y039100D01*
X002600Y039100D01*
X002100Y038600D01*
X002100Y040600D02*
X002600Y041100D01*
X002100Y041600D02*
X002600Y042100D01*
X002100Y042600D02*
X002600Y043100D01*
X004850Y043100D01*
D16*
X006850Y036350D03*
X006350Y035850D03*
X005850Y035100D03*
X005600Y034600D03*
X007600Y036350D03*
X015100Y029850D03*
X016100Y028100D03*
X017100Y029850D03*
X019600Y029850D03*
X022100Y033600D03*
X023600Y035100D03*
X023350Y036100D03*
X022850Y036600D03*
X022350Y037100D03*
X021600Y037850D03*
X022600Y042600D03*
X022600Y043350D03*
X022600Y044100D03*
X031350Y051100D03*
X011600Y052600D03*
X005600Y024100D03*
X009600Y020850D03*
X010100Y020600D03*
X010600Y021100D03*
X010600Y019850D03*
X011600Y016850D03*
X011600Y015850D03*
X022100Y016600D03*
X022600Y015600D03*
X023350Y017600D03*
X024100Y016600D03*
X024600Y017600D03*
X025600Y021100D03*
X029350Y020100D03*
X022850Y012850D03*
X024850Y007850D03*
D17*
X008100Y008600D02*
X007100Y008600D01*
X007100Y013350D01*
X007850Y013350D01*
X008850Y014350D01*
X007100Y014100D02*
X007100Y013350D01*
X007100Y014100D02*
X003100Y014100D01*
X003100Y014850D01*
X003100Y014100D02*
X001350Y014100D01*
X001350Y018850D01*
X002100Y018850D01*
X003100Y019850D01*
X001350Y018850D02*
X001350Y023850D01*
X001350Y028100D01*
X001850Y028600D01*
X005850Y028600D01*
X005850Y030600D02*
X006600Y030600D01*
X006600Y025350D01*
X005600Y024350D01*
X005600Y024100D01*
X002100Y023850D02*
X001350Y023850D01*
X001850Y028600D02*
X001850Y034850D01*
X002350Y034850D01*
X003100Y035600D01*
X001850Y034850D02*
X001350Y034850D01*
X001350Y039600D01*
X002100Y039600D01*
X003100Y040600D01*
X001350Y039600D02*
X001350Y044600D01*
X002100Y044600D01*
X003100Y045600D01*
X006850Y045600D01*
X006850Y045100D01*
X007600Y045100D01*
X008600Y046100D01*
X011350Y046100D01*
X011850Y046600D01*
X011850Y048350D01*
X012600Y049100D01*
X008850Y054100D02*
X008850Y057350D01*
X009600Y058100D01*
X010350Y058100D01*
X012600Y056600D02*
X012600Y056100D01*
X012600Y056600D02*
X014600Y056600D01*
X014600Y056100D01*
X014600Y056600D02*
X016600Y056600D01*
X016600Y056100D01*
X016600Y056600D02*
X018600Y056600D01*
X018600Y056100D01*
X018600Y056600D02*
X020600Y056600D01*
X020600Y056100D01*
X020600Y056600D02*
X022600Y056600D01*
X022600Y056100D01*
X022600Y056600D02*
X024600Y056600D01*
X024600Y056100D01*
X024600Y056600D02*
X028600Y056600D01*
X028600Y056100D01*
X028350Y058100D02*
X030850Y058100D01*
X031350Y057600D01*
X031350Y051100D01*
X028600Y051100D01*
X030600Y045600D02*
X032600Y045600D01*
X032600Y045100D01*
X032600Y045600D02*
X034600Y045600D01*
X036600Y045600D01*
X036600Y039100D01*
X038350Y039100D01*
X038350Y029600D01*
X035100Y029600D01*
X035100Y022850D01*
X033100Y022850D01*
X033100Y022350D01*
X033100Y022850D02*
X031100Y022850D01*
X031100Y022350D01*
X030600Y024100D02*
X032600Y024100D01*
X035100Y022850D02*
X035100Y022350D01*
X035100Y017350D02*
X033100Y017350D01*
X031100Y017350D01*
X024850Y007850D02*
X024850Y004600D01*
X025850Y003600D01*
X025850Y001600D01*
X028600Y001600D01*
X025850Y001600D02*
X022600Y001600D01*
X020600Y001600D01*
X018600Y001600D01*
X016600Y001600D01*
X014600Y001600D01*
X012600Y001600D01*
X008100Y008600D02*
X008850Y009350D01*
X007100Y014100D02*
X007100Y018350D01*
X007850Y018350D01*
X011600Y016850D02*
X011600Y015850D01*
X012600Y016100D02*
X012600Y016600D01*
X014600Y016600D01*
X014600Y016100D01*
X014600Y016600D02*
X016600Y016600D01*
X016600Y016100D01*
X016600Y016600D02*
X018600Y016600D01*
X018600Y016100D01*
X018600Y016600D02*
X020600Y016600D01*
X020600Y016100D01*
X020600Y017600D02*
X022600Y017600D01*
X020600Y017600D02*
X018600Y017600D01*
X016600Y017600D01*
X014600Y017600D01*
X012600Y017600D01*
X012600Y011100D02*
X014600Y011100D01*
X016600Y011100D01*
X018600Y011100D01*
X020600Y011100D01*
X030600Y029100D02*
X030600Y029600D01*
X030600Y030600D01*
X030600Y029600D02*
X032600Y029600D01*
X035100Y029600D01*
X032600Y029600D02*
X032600Y029100D01*
X030600Y032600D02*
X030600Y033600D01*
X032600Y033600D01*
X034600Y033600D01*
X036600Y033600D01*
X036600Y038600D02*
X036600Y039100D01*
X034600Y039100D01*
X034600Y038600D01*
X034600Y039100D02*
X032600Y039100D01*
X032600Y038600D01*
X032600Y039100D02*
X030600Y039100D01*
X030600Y038600D01*
X030600Y040100D02*
X032600Y040100D01*
X034600Y040100D01*
X034600Y045100D02*
X034600Y045600D01*
X030600Y045600D02*
X030600Y045100D01*
X028350Y058100D02*
X026100Y058100D01*
X023850Y058100D01*
X020350Y058100D01*
X018350Y058100D02*
X014850Y058100D01*
X008850Y054100D02*
X006850Y052100D01*
X006850Y050100D01*
X006850Y045600D01*
X006850Y045100D02*
X006850Y040600D01*
X007100Y040350D01*
X007850Y040350D01*
X008600Y041100D01*
X012600Y037100D02*
X014600Y037100D01*
X016600Y037100D01*
X018600Y037100D01*
X020600Y037100D01*
X020600Y031100D02*
X018600Y031100D01*
X016600Y031100D01*
X014600Y031100D01*
X012600Y031100D01*
X010600Y031100D01*
X008600Y031100D01*
X008100Y030600D01*
X007350Y030600D01*
X006600Y030600D01*
X006850Y050100D02*
X007600Y050100D01*
M02*
