%
M48
M72
T01C0.0197
T02C0.0315
T03C0.0320
T04C0.0433
T05C0.0591
T06C0.2165
%
T01
X11600Y15850
X11600Y16850
X10600Y19850
X10100Y20600
X9600Y20850
X10600Y21100
X5600Y24100
X5600Y34600
X5850Y35100
X6350Y35850
X6850Y36350
X7600Y36350
X15100Y29850
X16100Y28100
X17100Y29850
X19600Y29850
X22100Y33600
X23600Y35100
X23350Y36100
X22850Y36600
X22350Y37100
X21600Y37850
X22600Y42600
X22600Y43350
X22600Y44100
X31350Y51100
X11600Y52600
X25600Y21100
X24600Y17600
X24100Y16600
X23350Y17600
X22100Y16600
X22600Y15600
X22850Y12850
X24850Y7850
X29350Y20100
T02
X32100Y20350
X32100Y22350
X34100Y22350
X34100Y20350
X36100Y20350
X36100Y22350
X33600Y27100
X33600Y29100
X31600Y29100
X30600Y30600
X30600Y32600
X31600Y36600
X31600Y38600
X33600Y38600
X33600Y36600
X35600Y36600
X35600Y38600
X37600Y38600
X37600Y36600
X35600Y43100
X35600Y45100
X33600Y45100
X33600Y43100
X31600Y43100
X31600Y45100
X29600Y54100
X29600Y56100
X25600Y56100
X25600Y54100
X23600Y54100
X23600Y56100
X21600Y56100
X21600Y54100
X19600Y54100
X19600Y56100
X20350Y58100
X18350Y58100
X17600Y56100
X17600Y54100
X15600Y54100
X15600Y56100
X13600Y56100
X13600Y54100
X13600Y49100
X13600Y47100
X15600Y47100
X15600Y49100
X17600Y49100
X17600Y47100
X19600Y47100
X19600Y49100
X21600Y49100
X21600Y47100
X21600Y42100
X21600Y40100
X19600Y40100
X19600Y42100
X17600Y42100
X17600Y40100
X15600Y40100
X15600Y42100
X13600Y42100
X13600Y40100
X13600Y36100
X13600Y34100
X11600Y34100
X11600Y36100
X9600Y36100
X9600Y34100
X7350Y30600
X5850Y30600
X5850Y28600
X7350Y28600
X9600Y28600
X9600Y26600
X11600Y26600
X11600Y28600
X13600Y28600
X13600Y26600
X15600Y26600
X15600Y28600
X17600Y28600
X17600Y26600
X19600Y26600
X19600Y28600
X21600Y28600
X21600Y26600
X23600Y26600
X23600Y28600
X21600Y34100
X21600Y36100
X19600Y36100
X19600Y34100
X17600Y34100
X17600Y36100
X15600Y36100
X15600Y34100
X15600Y22600
X15600Y20600
X13600Y20600
X13600Y22600
X17600Y22600
X17600Y20600
X19600Y20600
X19600Y22600
X21600Y22600
X21600Y20600
X23600Y20600
X23600Y22600
X21600Y16100
X21600Y14100
X19600Y14100
X19600Y16100
X17600Y16100
X17600Y14100
X15600Y14100
X15600Y16100
X13600Y16100
X13600Y14100
X13600Y6600
X13600Y4600
X15600Y4600
X15600Y6600
X17600Y6600
X17600Y4600
X19600Y4600
X19600Y6600
X21600Y6600
X21600Y4600
X23600Y4600
X23600Y6600
X25850Y5600
X25850Y3600
X29600Y4600
X29600Y6600
X31600Y6600
X31600Y4600
X31600Y27100
T03
X30600Y27100
X30600Y26100
X30600Y24100
X31100Y22350
X31100Y20350
X31100Y19350
X31100Y17350
X33100Y17350
X33100Y19350
X33100Y20350
X33100Y22350
X32600Y24100
X32600Y26100
X32600Y27100
X32600Y29100
X30600Y29100
X30600Y33600
X30600Y35600
X30600Y36600
X30600Y38600
X30600Y40100
X30600Y42100
X30600Y43100
X30600Y45100
X32600Y45100
X32600Y43100
X32600Y42100
X32600Y40100
X32600Y38600
X32600Y36600
X32600Y35600
X32600Y33600
X34600Y33600
X34600Y35600
X34600Y36600
X34600Y38600
X34600Y40100
X34600Y42100
X34600Y43100
X34600Y45100
X36600Y38600
X36600Y36600
X36600Y35600
X36600Y33600
X35100Y22350
X35100Y20350
X35100Y19350
X35100Y17350
X30600Y6600
X30600Y4600
X30600Y3600
X30600Y1600
X28600Y1600
X28600Y3600
X28600Y4600
X28600Y6600
X22600Y6600
X22600Y4600
X22600Y3600
X22600Y1600
X20600Y1600
X20600Y3600
X20600Y4600
X20600Y6600
X18600Y6600
X18600Y4600
X18600Y3600
X18600Y1600
X16600Y1600
X16600Y3600
X16600Y4600
X16600Y6600
X14600Y6600
X14600Y4600
X14600Y3600
X14600Y1600
X12600Y1600
X12600Y3600
X12600Y4600
X12600Y6600
X12600Y11100
X12600Y13100
X12600Y14100
X12600Y16100
X12600Y17600
X12600Y19600
X12600Y20600
X12600Y22600
X12600Y23600
X12600Y25600
X12600Y26600
X12600Y28600
X10600Y28600
X10600Y26600
X10600Y25600
X10600Y23600
X8600Y23600
X8600Y25600
X8600Y26600
X8600Y28600
X8600Y31100
X8600Y33100
X8600Y34100
X8600Y36100
X10600Y36100
X10600Y34100
X10600Y33100
X10600Y31100
X12600Y31100
X12600Y33100
X12600Y34100
X12600Y36100
X12600Y37100
X12600Y39100
X12600Y40100
X12600Y42100
X12600Y44100
X12600Y46100
X12600Y47100
X12600Y49100
X12600Y51100
X12600Y53100
X12600Y54100
X12600Y56100
X14600Y56100
X14600Y54100
X14600Y53100
X14600Y51100
X14600Y49100
X14600Y47100
X14600Y46100
X14600Y44100
X14600Y42100
X14600Y40100
X14600Y39100
X14600Y37100
X14600Y36100
X14600Y34100
X14600Y33100
X14600Y31100
X16600Y31100
X16600Y33100
X16600Y34100
X16600Y36100
X16600Y37100
X16600Y39100
X16600Y40100
X16600Y42100
X16600Y44100
X16600Y46100
X16600Y47100
X16600Y49100
X16600Y51100
X16600Y53100
X16600Y54100
X16600Y56100
X18600Y56100
X18600Y54100
X18600Y53100
X18600Y51100
X18600Y49100
X18600Y47100
X18600Y46100
X18600Y44100
X18600Y42100
X18600Y40100
X18600Y39100
X18600Y37100
X18600Y36100
X18600Y34100
X18600Y33100
X18600Y31100
X20600Y31100
X20600Y33100
X20600Y34100
X20600Y36100
X20600Y37100
X20600Y39100
X20600Y40100
X20600Y42100
X20600Y44100
X20600Y46100
X20600Y47100
X20600Y49100
X20600Y51100
X20600Y53100
X20600Y54100
X20600Y56100
X22600Y56100
X22600Y54100
X22600Y53100
X22600Y51100
X24600Y51100
X24600Y53100
X24600Y54100
X24600Y56100
X28600Y56100
X28600Y54100
X28600Y53100
X28600Y51100
X22600Y28600
X22600Y26600
X22600Y25600
X22600Y23600
X22600Y22600
X22600Y20600
X22600Y19600
X22600Y17600
X20600Y17600
X20600Y16100
X20600Y14100
X20600Y13100
X20600Y11100
X18600Y11100
X18600Y13100
X18600Y14100
X18600Y16100
X18600Y17600
X18600Y19600
X18600Y20600
X18600Y22600
X18600Y23600
X18600Y25600
X18600Y26600
X18600Y28600
X16600Y28600
X16600Y26600
X16600Y25600
X16600Y23600
X16600Y22600
X16600Y20600
X16600Y19600
X16600Y17600
X16600Y16100
X16600Y14100
X16600Y13100
X16600Y11100
X14600Y11100
X14600Y13100
X14600Y14100
X14600Y16100
X14600Y17600
X14600Y19600
X14600Y20600
X14600Y22600
X14600Y23600
X14600Y25600
X14600Y26600
X14600Y28600
X20600Y28600
X20600Y26600
X20600Y25600
X20600Y23600
X20600Y22600
X20600Y20600
X20600Y19600
T04
X26350Y19600
X26350Y18600
X26350Y17600
X26350Y16600
X26350Y15600
X26350Y14600
X26350Y13600
X27350Y13600
X27350Y14600
X27350Y15600
X27350Y16600
X27350Y17600
X27350Y18600
X27350Y19600
X27350Y20600
X27350Y21600
X27350Y22600
X27350Y23600
X27350Y24600
X27350Y25600
X27350Y26600
X27350Y27600
X27350Y28600
X27350Y29600
X27350Y30600
X27350Y31600
X27350Y32600
X27350Y33600
X27350Y34600
X27350Y35600
X27350Y36600
X27350Y37600
X27350Y38600
X27350Y39600
X27350Y40600
X27350Y41600
X27350Y42600
X27350Y43600
X27350Y44600
X26350Y44600
X26350Y43600
X26350Y42600
X26350Y41600
X26350Y40600
X26350Y39600
X26350Y38600
X26350Y37600
X26350Y36600
X26350Y35600
X26350Y34600
X26350Y33600
X26350Y32600
X26350Y31600
X26350Y30600
X26350Y29600
X26350Y28600
X26350Y27600
X26350Y26600
X26350Y25600
X26350Y24600
X26350Y23600
X26350Y22600
X26350Y21600
X26350Y20600
X8850Y18350
X8850Y17350
X8850Y16350
X8850Y15350
X8850Y14350
X8850Y13350
X8850Y12350
X8850Y11350
X8850Y10350
X8850Y9350
X7850Y9350
X7850Y10350
X7850Y11350
X7850Y12350
X7850Y13350
X7850Y14350
X7850Y15350
X7850Y16350
X7850Y17350
X7850Y18350
X3100Y17850
X3100Y16850
X3100Y15850
X3100Y14850
X2100Y14850
X2100Y15850
X2100Y16850
X2100Y17850
X2100Y18850
X2100Y19850
X2100Y20850
X2100Y21850
X2100Y22850
X2100Y23850
X3100Y23850
X3100Y22850
X3100Y21850
X3100Y20850
X3100Y19850
X3100Y18850
X3100Y35600
X3100Y36600
X3100Y37600
X3100Y38600
X3100Y39600
X3100Y40600
X3100Y41600
X3100Y42600
X3100Y43600
X3100Y44600
X2100Y44600
X2100Y43600
X2100Y42600
X2100Y41600
X2100Y40600
X2100Y39600
X2100Y38600
X2100Y37600
X2100Y36600
X2100Y35600
X7600Y41100
X7600Y42100
X7600Y43100
X7600Y44100
X7600Y45100
X7600Y46100
X7600Y47100
X7600Y48100
X7600Y49100
X7600Y50100
X8600Y50100
X8600Y49100
X8600Y48100
X8600Y47100
X8600Y46100
X8600Y45100
X8600Y44100
X8600Y43100
X8600Y42100
X8600Y41100
T05
X10350Y58100
X12600Y58100
X14850Y58100
X23850Y58100
X26100Y58100
X28350Y58100
T06
X4037Y3600
X35533Y3600
X35533Y56100
X4037Y56100
M30
