G75*
G70*
%OFA0B0*%
%FSLAX24Y24*%
%IPPOS*%
%LPD*%
%AMOC8*
5,1,8,0,0,1.08239X$1,22.5*
%
%ADD10C,0.0050*%
%ADD11C,0.0040*%
D10*
X024600Y013100D02*
X024600Y013600D01*
X025100Y013350D01*
X024600Y013100D01*
X024600Y013147D02*
X024693Y013147D01*
X024600Y013195D02*
X024790Y013195D01*
X024887Y013244D02*
X024600Y013244D01*
X024600Y013292D02*
X024984Y013292D01*
X025022Y013389D02*
X024600Y013389D01*
X024600Y013341D02*
X025081Y013341D01*
X024925Y013438D02*
X024600Y013438D01*
X024600Y013486D02*
X024828Y013486D01*
X024731Y013535D02*
X024600Y013535D01*
X024600Y013583D02*
X024634Y013583D01*
X024850Y009600D02*
X024850Y048100D01*
X025850Y048100D01*
X027850Y048100D01*
X027850Y051100D01*
X025850Y051100D01*
X025850Y048100D01*
X027850Y048100D02*
X028850Y048100D01*
X028850Y009600D01*
X027850Y009600D01*
X027850Y006600D01*
X025850Y006600D01*
X025850Y009600D01*
X024850Y009600D01*
X025850Y009600D02*
X027850Y009600D01*
X025350Y028100D02*
X024850Y028100D01*
X024850Y030100D01*
X025350Y030100D01*
X025350Y028100D01*
X025350Y028133D02*
X024850Y028133D01*
X024850Y028182D02*
X025350Y028182D01*
X025350Y028230D02*
X024850Y028230D01*
X024850Y028279D02*
X025350Y028279D01*
X025350Y028327D02*
X024850Y028327D01*
X024850Y028376D02*
X025350Y028376D01*
X025350Y028424D02*
X024850Y028424D01*
X024850Y028473D02*
X025350Y028473D01*
X025350Y028521D02*
X024850Y028521D01*
X024850Y028570D02*
X025350Y028570D01*
X025350Y028618D02*
X024850Y028618D01*
X024850Y028667D02*
X025350Y028667D01*
X025350Y028715D02*
X024850Y028715D01*
X024850Y028764D02*
X025350Y028764D01*
X025350Y028812D02*
X024850Y028812D01*
X024850Y028861D02*
X025350Y028861D01*
X025350Y028909D02*
X024850Y028909D01*
X024850Y028958D02*
X025350Y028958D01*
X025350Y029006D02*
X024850Y029006D01*
X024850Y029055D02*
X025350Y029055D01*
X025350Y029103D02*
X024850Y029103D01*
X024850Y029152D02*
X025350Y029152D01*
X025350Y029200D02*
X024850Y029200D01*
X024850Y029249D02*
X025350Y029249D01*
X025350Y029297D02*
X024850Y029297D01*
X024850Y029346D02*
X025350Y029346D01*
X025350Y029394D02*
X024850Y029394D01*
X024850Y029443D02*
X025350Y029443D01*
X025350Y029491D02*
X024850Y029491D01*
X024850Y029540D02*
X025350Y029540D01*
X025350Y029588D02*
X024850Y029588D01*
X024850Y029637D02*
X025350Y029637D01*
X025350Y029685D02*
X024850Y029685D01*
X024850Y029734D02*
X025350Y029734D01*
X025350Y029782D02*
X024850Y029782D01*
X024850Y029831D02*
X025350Y029831D01*
X025350Y029879D02*
X024850Y029879D01*
X024850Y029928D02*
X025350Y029928D01*
X025350Y029976D02*
X024850Y029976D01*
X024850Y030025D02*
X025350Y030025D01*
X025350Y030073D02*
X024850Y030073D01*
D11*
X024370Y011353D02*
X024370Y011276D01*
X024447Y011199D01*
X024370Y011353D02*
X024447Y011429D01*
X024830Y011429D01*
X024830Y011353D02*
X024830Y011506D01*
X024830Y011660D02*
X024600Y011660D01*
X024677Y011813D01*
X024677Y011890D01*
X024600Y011967D01*
X024447Y011967D01*
X024370Y011890D01*
X024370Y011736D01*
X024447Y011660D01*
X024830Y011660D02*
X024830Y011967D01*
M02*
