G75*
G70*
%OFA0B0*%
%FSLAX24Y24*%
%IPPOS*%
%LPD*%
%AMOC8*
5,1,8,0,0,1.08239X$1,22.5*
%
%ADD10C,0.0000*%
D10*
X000100Y000100D02*
X039600Y000100D01*
X039600Y059600D01*
X000100Y059600D01*
X000100Y000100D01*
X002954Y003600D02*
X002956Y003665D01*
X002962Y003731D01*
X002972Y003795D01*
X002985Y003859D01*
X003003Y003922D01*
X003024Y003984D01*
X003049Y004044D01*
X003078Y004103D01*
X003110Y004160D01*
X003146Y004215D01*
X003184Y004268D01*
X003226Y004318D01*
X003271Y004366D01*
X003319Y004411D01*
X003369Y004453D01*
X003422Y004491D01*
X003477Y004527D01*
X003534Y004559D01*
X003593Y004588D01*
X003653Y004613D01*
X003715Y004634D01*
X003778Y004652D01*
X003842Y004665D01*
X003906Y004675D01*
X003972Y004681D01*
X004037Y004683D01*
X004102Y004681D01*
X004168Y004675D01*
X004232Y004665D01*
X004296Y004652D01*
X004359Y004634D01*
X004421Y004613D01*
X004481Y004588D01*
X004540Y004559D01*
X004597Y004527D01*
X004652Y004491D01*
X004705Y004453D01*
X004755Y004411D01*
X004803Y004366D01*
X004848Y004318D01*
X004890Y004268D01*
X004928Y004215D01*
X004964Y004160D01*
X004996Y004103D01*
X005025Y004044D01*
X005050Y003984D01*
X005071Y003922D01*
X005089Y003859D01*
X005102Y003795D01*
X005112Y003731D01*
X005118Y003665D01*
X005120Y003600D01*
X005118Y003535D01*
X005112Y003469D01*
X005102Y003405D01*
X005089Y003341D01*
X005071Y003278D01*
X005050Y003216D01*
X005025Y003156D01*
X004996Y003097D01*
X004964Y003040D01*
X004928Y002985D01*
X004890Y002932D01*
X004848Y002882D01*
X004803Y002834D01*
X004755Y002789D01*
X004705Y002747D01*
X004652Y002709D01*
X004597Y002673D01*
X004540Y002641D01*
X004481Y002612D01*
X004421Y002587D01*
X004359Y002566D01*
X004296Y002548D01*
X004232Y002535D01*
X004168Y002525D01*
X004102Y002519D01*
X004037Y002517D01*
X003972Y002519D01*
X003906Y002525D01*
X003842Y002535D01*
X003778Y002548D01*
X003715Y002566D01*
X003653Y002587D01*
X003593Y002612D01*
X003534Y002641D01*
X003477Y002673D01*
X003422Y002709D01*
X003369Y002747D01*
X003319Y002789D01*
X003271Y002834D01*
X003226Y002882D01*
X003184Y002932D01*
X003146Y002985D01*
X003110Y003040D01*
X003078Y003097D01*
X003049Y003156D01*
X003024Y003216D01*
X003003Y003278D01*
X002985Y003341D01*
X002972Y003405D01*
X002962Y003469D01*
X002956Y003535D01*
X002954Y003600D01*
X034450Y003600D02*
X034452Y003665D01*
X034458Y003731D01*
X034468Y003795D01*
X034481Y003859D01*
X034499Y003922D01*
X034520Y003984D01*
X034545Y004044D01*
X034574Y004103D01*
X034606Y004160D01*
X034642Y004215D01*
X034680Y004268D01*
X034722Y004318D01*
X034767Y004366D01*
X034815Y004411D01*
X034865Y004453D01*
X034918Y004491D01*
X034973Y004527D01*
X035030Y004559D01*
X035089Y004588D01*
X035149Y004613D01*
X035211Y004634D01*
X035274Y004652D01*
X035338Y004665D01*
X035402Y004675D01*
X035468Y004681D01*
X035533Y004683D01*
X035598Y004681D01*
X035664Y004675D01*
X035728Y004665D01*
X035792Y004652D01*
X035855Y004634D01*
X035917Y004613D01*
X035977Y004588D01*
X036036Y004559D01*
X036093Y004527D01*
X036148Y004491D01*
X036201Y004453D01*
X036251Y004411D01*
X036299Y004366D01*
X036344Y004318D01*
X036386Y004268D01*
X036424Y004215D01*
X036460Y004160D01*
X036492Y004103D01*
X036521Y004044D01*
X036546Y003984D01*
X036567Y003922D01*
X036585Y003859D01*
X036598Y003795D01*
X036608Y003731D01*
X036614Y003665D01*
X036616Y003600D01*
X036614Y003535D01*
X036608Y003469D01*
X036598Y003405D01*
X036585Y003341D01*
X036567Y003278D01*
X036546Y003216D01*
X036521Y003156D01*
X036492Y003097D01*
X036460Y003040D01*
X036424Y002985D01*
X036386Y002932D01*
X036344Y002882D01*
X036299Y002834D01*
X036251Y002789D01*
X036201Y002747D01*
X036148Y002709D01*
X036093Y002673D01*
X036036Y002641D01*
X035977Y002612D01*
X035917Y002587D01*
X035855Y002566D01*
X035792Y002548D01*
X035728Y002535D01*
X035664Y002525D01*
X035598Y002519D01*
X035533Y002517D01*
X035468Y002519D01*
X035402Y002525D01*
X035338Y002535D01*
X035274Y002548D01*
X035211Y002566D01*
X035149Y002587D01*
X035089Y002612D01*
X035030Y002641D01*
X034973Y002673D01*
X034918Y002709D01*
X034865Y002747D01*
X034815Y002789D01*
X034767Y002834D01*
X034722Y002882D01*
X034680Y002932D01*
X034642Y002985D01*
X034606Y003040D01*
X034574Y003097D01*
X034545Y003156D01*
X034520Y003216D01*
X034499Y003278D01*
X034481Y003341D01*
X034468Y003405D01*
X034458Y003469D01*
X034452Y003535D01*
X034450Y003600D01*
X034450Y056100D02*
X034452Y056165D01*
X034458Y056231D01*
X034468Y056295D01*
X034481Y056359D01*
X034499Y056422D01*
X034520Y056484D01*
X034545Y056544D01*
X034574Y056603D01*
X034606Y056660D01*
X034642Y056715D01*
X034680Y056768D01*
X034722Y056818D01*
X034767Y056866D01*
X034815Y056911D01*
X034865Y056953D01*
X034918Y056991D01*
X034973Y057027D01*
X035030Y057059D01*
X035089Y057088D01*
X035149Y057113D01*
X035211Y057134D01*
X035274Y057152D01*
X035338Y057165D01*
X035402Y057175D01*
X035468Y057181D01*
X035533Y057183D01*
X035598Y057181D01*
X035664Y057175D01*
X035728Y057165D01*
X035792Y057152D01*
X035855Y057134D01*
X035917Y057113D01*
X035977Y057088D01*
X036036Y057059D01*
X036093Y057027D01*
X036148Y056991D01*
X036201Y056953D01*
X036251Y056911D01*
X036299Y056866D01*
X036344Y056818D01*
X036386Y056768D01*
X036424Y056715D01*
X036460Y056660D01*
X036492Y056603D01*
X036521Y056544D01*
X036546Y056484D01*
X036567Y056422D01*
X036585Y056359D01*
X036598Y056295D01*
X036608Y056231D01*
X036614Y056165D01*
X036616Y056100D01*
X036614Y056035D01*
X036608Y055969D01*
X036598Y055905D01*
X036585Y055841D01*
X036567Y055778D01*
X036546Y055716D01*
X036521Y055656D01*
X036492Y055597D01*
X036460Y055540D01*
X036424Y055485D01*
X036386Y055432D01*
X036344Y055382D01*
X036299Y055334D01*
X036251Y055289D01*
X036201Y055247D01*
X036148Y055209D01*
X036093Y055173D01*
X036036Y055141D01*
X035977Y055112D01*
X035917Y055087D01*
X035855Y055066D01*
X035792Y055048D01*
X035728Y055035D01*
X035664Y055025D01*
X035598Y055019D01*
X035533Y055017D01*
X035468Y055019D01*
X035402Y055025D01*
X035338Y055035D01*
X035274Y055048D01*
X035211Y055066D01*
X035149Y055087D01*
X035089Y055112D01*
X035030Y055141D01*
X034973Y055173D01*
X034918Y055209D01*
X034865Y055247D01*
X034815Y055289D01*
X034767Y055334D01*
X034722Y055382D01*
X034680Y055432D01*
X034642Y055485D01*
X034606Y055540D01*
X034574Y055597D01*
X034545Y055656D01*
X034520Y055716D01*
X034499Y055778D01*
X034481Y055841D01*
X034468Y055905D01*
X034458Y055969D01*
X034452Y056035D01*
X034450Y056100D01*
X002954Y056100D02*
X002956Y056165D01*
X002962Y056231D01*
X002972Y056295D01*
X002985Y056359D01*
X003003Y056422D01*
X003024Y056484D01*
X003049Y056544D01*
X003078Y056603D01*
X003110Y056660D01*
X003146Y056715D01*
X003184Y056768D01*
X003226Y056818D01*
X003271Y056866D01*
X003319Y056911D01*
X003369Y056953D01*
X003422Y056991D01*
X003477Y057027D01*
X003534Y057059D01*
X003593Y057088D01*
X003653Y057113D01*
X003715Y057134D01*
X003778Y057152D01*
X003842Y057165D01*
X003906Y057175D01*
X003972Y057181D01*
X004037Y057183D01*
X004102Y057181D01*
X004168Y057175D01*
X004232Y057165D01*
X004296Y057152D01*
X004359Y057134D01*
X004421Y057113D01*
X004481Y057088D01*
X004540Y057059D01*
X004597Y057027D01*
X004652Y056991D01*
X004705Y056953D01*
X004755Y056911D01*
X004803Y056866D01*
X004848Y056818D01*
X004890Y056768D01*
X004928Y056715D01*
X004964Y056660D01*
X004996Y056603D01*
X005025Y056544D01*
X005050Y056484D01*
X005071Y056422D01*
X005089Y056359D01*
X005102Y056295D01*
X005112Y056231D01*
X005118Y056165D01*
X005120Y056100D01*
X005118Y056035D01*
X005112Y055969D01*
X005102Y055905D01*
X005089Y055841D01*
X005071Y055778D01*
X005050Y055716D01*
X005025Y055656D01*
X004996Y055597D01*
X004964Y055540D01*
X004928Y055485D01*
X004890Y055432D01*
X004848Y055382D01*
X004803Y055334D01*
X004755Y055289D01*
X004705Y055247D01*
X004652Y055209D01*
X004597Y055173D01*
X004540Y055141D01*
X004481Y055112D01*
X004421Y055087D01*
X004359Y055066D01*
X004296Y055048D01*
X004232Y055035D01*
X004168Y055025D01*
X004102Y055019D01*
X004037Y055017D01*
X003972Y055019D01*
X003906Y055025D01*
X003842Y055035D01*
X003778Y055048D01*
X003715Y055066D01*
X003653Y055087D01*
X003593Y055112D01*
X003534Y055141D01*
X003477Y055173D01*
X003422Y055209D01*
X003369Y055247D01*
X003319Y055289D01*
X003271Y055334D01*
X003226Y055382D01*
X003184Y055432D01*
X003146Y055485D01*
X003110Y055540D01*
X003078Y055597D01*
X003049Y055656D01*
X003024Y055716D01*
X003003Y055778D01*
X002985Y055841D01*
X002972Y055905D01*
X002962Y055969D01*
X002956Y056035D01*
X002954Y056100D01*
M02*
