G75*
G70*
%OFA0B0*%
%FSLAX24Y24*%
%IPPOS*%
%LPD*%
%AMOC8*
5,1,8,0,0,1.08239X$1,22.5*
%
%ADD10C,0.0000*%
D10*
X000100Y000660D02*
X000100Y030655D01*
X010342Y030655D01*
X010342Y000660D01*
X000100Y000660D01*
X000720Y001910D02*
X000722Y001960D01*
X000728Y002010D01*
X000738Y002059D01*
X000752Y002107D01*
X000769Y002154D01*
X000790Y002199D01*
X000815Y002243D01*
X000843Y002284D01*
X000875Y002323D01*
X000909Y002360D01*
X000946Y002394D01*
X000986Y002424D01*
X001028Y002451D01*
X001072Y002475D01*
X001118Y002496D01*
X001165Y002512D01*
X001213Y002525D01*
X001263Y002534D01*
X001312Y002539D01*
X001363Y002540D01*
X001413Y002537D01*
X001462Y002530D01*
X001511Y002519D01*
X001559Y002504D01*
X001605Y002486D01*
X001650Y002464D01*
X001693Y002438D01*
X001734Y002409D01*
X001773Y002377D01*
X001809Y002342D01*
X001841Y002304D01*
X001871Y002264D01*
X001898Y002221D01*
X001921Y002177D01*
X001940Y002131D01*
X001956Y002083D01*
X001968Y002034D01*
X001976Y001985D01*
X001980Y001935D01*
X001980Y001885D01*
X001976Y001835D01*
X001968Y001786D01*
X001956Y001737D01*
X001940Y001689D01*
X001921Y001643D01*
X001898Y001599D01*
X001871Y001556D01*
X001841Y001516D01*
X001809Y001478D01*
X001773Y001443D01*
X001734Y001411D01*
X001693Y001382D01*
X001650Y001356D01*
X001605Y001334D01*
X001559Y001316D01*
X001511Y001301D01*
X001462Y001290D01*
X001413Y001283D01*
X001363Y001280D01*
X001312Y001281D01*
X001263Y001286D01*
X001213Y001295D01*
X001165Y001308D01*
X001118Y001324D01*
X001072Y001345D01*
X001028Y001369D01*
X000986Y001396D01*
X000946Y001426D01*
X000909Y001460D01*
X000875Y001497D01*
X000843Y001536D01*
X000815Y001577D01*
X000790Y001621D01*
X000769Y001666D01*
X000752Y001713D01*
X000738Y001761D01*
X000728Y001810D01*
X000722Y001860D01*
X000720Y001910D01*
X008595Y001910D02*
X008597Y001960D01*
X008603Y002010D01*
X008613Y002059D01*
X008627Y002107D01*
X008644Y002154D01*
X008665Y002199D01*
X008690Y002243D01*
X008718Y002284D01*
X008750Y002323D01*
X008784Y002360D01*
X008821Y002394D01*
X008861Y002424D01*
X008903Y002451D01*
X008947Y002475D01*
X008993Y002496D01*
X009040Y002512D01*
X009088Y002525D01*
X009138Y002534D01*
X009187Y002539D01*
X009238Y002540D01*
X009288Y002537D01*
X009337Y002530D01*
X009386Y002519D01*
X009434Y002504D01*
X009480Y002486D01*
X009525Y002464D01*
X009568Y002438D01*
X009609Y002409D01*
X009648Y002377D01*
X009684Y002342D01*
X009716Y002304D01*
X009746Y002264D01*
X009773Y002221D01*
X009796Y002177D01*
X009815Y002131D01*
X009831Y002083D01*
X009843Y002034D01*
X009851Y001985D01*
X009855Y001935D01*
X009855Y001885D01*
X009851Y001835D01*
X009843Y001786D01*
X009831Y001737D01*
X009815Y001689D01*
X009796Y001643D01*
X009773Y001599D01*
X009746Y001556D01*
X009716Y001516D01*
X009684Y001478D01*
X009648Y001443D01*
X009609Y001411D01*
X009568Y001382D01*
X009525Y001356D01*
X009480Y001334D01*
X009434Y001316D01*
X009386Y001301D01*
X009337Y001290D01*
X009288Y001283D01*
X009238Y001280D01*
X009187Y001281D01*
X009138Y001286D01*
X009088Y001295D01*
X009040Y001308D01*
X008993Y001324D01*
X008947Y001345D01*
X008903Y001369D01*
X008861Y001396D01*
X008821Y001426D01*
X008784Y001460D01*
X008750Y001497D01*
X008718Y001536D01*
X008690Y001577D01*
X008665Y001621D01*
X008644Y001666D01*
X008627Y001713D01*
X008613Y001761D01*
X008603Y001810D01*
X008597Y001860D01*
X008595Y001910D01*
X008470Y029410D02*
X008472Y029460D01*
X008478Y029510D01*
X008488Y029559D01*
X008502Y029607D01*
X008519Y029654D01*
X008540Y029699D01*
X008565Y029743D01*
X008593Y029784D01*
X008625Y029823D01*
X008659Y029860D01*
X008696Y029894D01*
X008736Y029924D01*
X008778Y029951D01*
X008822Y029975D01*
X008868Y029996D01*
X008915Y030012D01*
X008963Y030025D01*
X009013Y030034D01*
X009062Y030039D01*
X009113Y030040D01*
X009163Y030037D01*
X009212Y030030D01*
X009261Y030019D01*
X009309Y030004D01*
X009355Y029986D01*
X009400Y029964D01*
X009443Y029938D01*
X009484Y029909D01*
X009523Y029877D01*
X009559Y029842D01*
X009591Y029804D01*
X009621Y029764D01*
X009648Y029721D01*
X009671Y029677D01*
X009690Y029631D01*
X009706Y029583D01*
X009718Y029534D01*
X009726Y029485D01*
X009730Y029435D01*
X009730Y029385D01*
X009726Y029335D01*
X009718Y029286D01*
X009706Y029237D01*
X009690Y029189D01*
X009671Y029143D01*
X009648Y029099D01*
X009621Y029056D01*
X009591Y029016D01*
X009559Y028978D01*
X009523Y028943D01*
X009484Y028911D01*
X009443Y028882D01*
X009400Y028856D01*
X009355Y028834D01*
X009309Y028816D01*
X009261Y028801D01*
X009212Y028790D01*
X009163Y028783D01*
X009113Y028780D01*
X009062Y028781D01*
X009013Y028786D01*
X008963Y028795D01*
X008915Y028808D01*
X008868Y028824D01*
X008822Y028845D01*
X008778Y028869D01*
X008736Y028896D01*
X008696Y028926D01*
X008659Y028960D01*
X008625Y028997D01*
X008593Y029036D01*
X008565Y029077D01*
X008540Y029121D01*
X008519Y029166D01*
X008502Y029213D01*
X008488Y029261D01*
X008478Y029310D01*
X008472Y029360D01*
X008470Y029410D01*
X000720Y029410D02*
X000722Y029460D01*
X000728Y029510D01*
X000738Y029559D01*
X000752Y029607D01*
X000769Y029654D01*
X000790Y029699D01*
X000815Y029743D01*
X000843Y029784D01*
X000875Y029823D01*
X000909Y029860D01*
X000946Y029894D01*
X000986Y029924D01*
X001028Y029951D01*
X001072Y029975D01*
X001118Y029996D01*
X001165Y030012D01*
X001213Y030025D01*
X001263Y030034D01*
X001312Y030039D01*
X001363Y030040D01*
X001413Y030037D01*
X001462Y030030D01*
X001511Y030019D01*
X001559Y030004D01*
X001605Y029986D01*
X001650Y029964D01*
X001693Y029938D01*
X001734Y029909D01*
X001773Y029877D01*
X001809Y029842D01*
X001841Y029804D01*
X001871Y029764D01*
X001898Y029721D01*
X001921Y029677D01*
X001940Y029631D01*
X001956Y029583D01*
X001968Y029534D01*
X001976Y029485D01*
X001980Y029435D01*
X001980Y029385D01*
X001976Y029335D01*
X001968Y029286D01*
X001956Y029237D01*
X001940Y029189D01*
X001921Y029143D01*
X001898Y029099D01*
X001871Y029056D01*
X001841Y029016D01*
X001809Y028978D01*
X001773Y028943D01*
X001734Y028911D01*
X001693Y028882D01*
X001650Y028856D01*
X001605Y028834D01*
X001559Y028816D01*
X001511Y028801D01*
X001462Y028790D01*
X001413Y028783D01*
X001363Y028780D01*
X001312Y028781D01*
X001263Y028786D01*
X001213Y028795D01*
X001165Y028808D01*
X001118Y028824D01*
X001072Y028845D01*
X001028Y028869D01*
X000986Y028896D01*
X000946Y028926D01*
X000909Y028960D01*
X000875Y028997D01*
X000843Y029036D01*
X000815Y029077D01*
X000790Y029121D01*
X000769Y029166D01*
X000752Y029213D01*
X000738Y029261D01*
X000728Y029310D01*
X000722Y029360D01*
X000720Y029410D01*
M02*
