%
M48
M72
T01C0.0276
T02C0.0315
T03C0.0472
T04C0.1260
%
T01
X4225Y6160
X4350Y5160
X4350Y4160
X4850Y4660
X5225Y6160
X4725Y6660
X4350Y10660
X4350Y11660
X4225Y12660
X4725Y13160
X5225Y12660
X4850Y11160
X4350Y17160
X4350Y18160
X4225Y19160
X4725Y19660
X5225Y19160
X4850Y17660
X4350Y23660
X4350Y24660
X4225Y25660
X4725Y26160
X5225Y25660
X4850Y24160
T02
X4100Y22785
X4100Y20410
X4100Y16285
X4100Y13910
X4100Y9785
X4100Y7410
X4100Y3285
X2600Y4660
X2600Y5660
X1975Y7785
X1975Y9785
X2600Y11160
X2600Y12160
X2600Y17785
X2600Y18785
X2600Y24160
X2600Y25160
X4100Y26910
X4850Y28285
X6100Y26910
X6100Y25785
X6850Y25785
X6850Y23785
X6100Y23785
X6100Y22785
X6100Y20410
X6100Y19285
X6850Y19285
X6850Y17285
X6100Y17285
X6100Y16285
X6100Y13910
X6100Y12785
X6850Y12785
X6850Y10785
X6100Y10785
X6100Y9785
X6100Y7410
X6100Y6285
X6850Y6285
X6850Y4285
X6100Y4285
X6100Y3285
X8975Y4785
X8975Y5785
X8975Y11285
X8975Y12285
X8975Y17785
X8975Y18785
X8975Y24285
X8975Y25285
X6850Y28285
T03
X6225Y29785
X4100Y29785
X1475Y24660
X1475Y18285
X1475Y11660
X1475Y5160
X8225Y3535
X8225Y7160
X8350Y10035
X8350Y13660
X8225Y16410
X8225Y20160
X8225Y22160
X8350Y26660
T04
X1350Y1910
X9225Y1910
X9100Y29410
X1350Y29410
M30
