G75*
G70*
%OFA0B0*%
%FSLAX24Y24*%
%IPPOS*%
%LPD*%
%AMOC8*
5,1,8,0,0,1.08239X$1,22.5*
%
%ADD10C,0.0476*%
%ADD11C,0.0515*%
%ADD12R,0.0709X0.0709*%
%ADD13C,0.0160*%
%ADD14C,0.0400*%
D10*
X004225Y006160D03*
X004350Y005160D03*
X004350Y004160D03*
X004850Y004660D03*
X005225Y006160D03*
X004725Y006660D03*
X004350Y010660D03*
X004350Y011660D03*
X004225Y012660D03*
X004725Y013160D03*
X005225Y012660D03*
X004850Y011160D03*
X004350Y017160D03*
X004350Y018160D03*
X004225Y019160D03*
X004725Y019660D03*
X005225Y019160D03*
X004850Y017660D03*
X004350Y023660D03*
X004350Y024660D03*
X004225Y025660D03*
X004725Y026160D03*
X005225Y025660D03*
X004850Y024160D03*
D11*
X004100Y022785D03*
X004100Y020410D03*
X004100Y016285D03*
X004100Y013910D03*
X004100Y009785D03*
X004100Y007410D03*
X004100Y003285D03*
X002600Y004660D03*
X002600Y005660D03*
X001975Y007785D03*
X001975Y009785D03*
X002600Y011160D03*
X002600Y012160D03*
X002600Y017785D03*
X002600Y018785D03*
X002600Y024160D03*
X002600Y025160D03*
X004100Y026910D03*
X004850Y028285D03*
X006100Y026910D03*
X006100Y025785D03*
X006850Y025785D03*
X006850Y023785D03*
X006100Y023785D03*
X006100Y022785D03*
X006100Y020410D03*
X006100Y019285D03*
X006850Y019285D03*
X006850Y017285D03*
X006100Y017285D03*
X006100Y016285D03*
X006100Y013910D03*
X006100Y012785D03*
X006850Y012785D03*
X006850Y010785D03*
X006100Y010785D03*
X006100Y009785D03*
X006100Y007410D03*
X006100Y006285D03*
X006850Y006285D03*
X006850Y004285D03*
X006100Y004285D03*
X006100Y003285D03*
X008975Y004785D03*
X008975Y005785D03*
X008975Y011285D03*
X008975Y012285D03*
X008975Y017785D03*
X008975Y018785D03*
X008975Y024285D03*
X008975Y025285D03*
X006850Y028285D03*
D12*
X001475Y005160D03*
X001475Y011660D03*
X001475Y018285D03*
X001475Y024660D03*
X004100Y029785D03*
X006225Y029785D03*
X008350Y026660D03*
X008225Y022160D03*
X008225Y020160D03*
X008225Y016410D03*
X008350Y013660D03*
X008350Y010035D03*
X008225Y007160D03*
X008225Y003535D03*
D13*
X006850Y004285D01*
X006100Y004285D01*
X006100Y004035D01*
X005475Y004035D01*
X005475Y005160D01*
X004725Y005910D01*
X004725Y006660D01*
X005225Y006535D02*
X005225Y006160D01*
X005225Y006535D02*
X006100Y007410D01*
X007850Y007410D01*
X008225Y007160D01*
X008475Y006285D02*
X008975Y005785D01*
X008475Y006285D02*
X006850Y006285D01*
X006100Y004035D02*
X006100Y003285D01*
X005475Y004035D02*
X004475Y004035D01*
X004350Y004160D01*
X004100Y003285D02*
X002850Y004535D01*
X002600Y004660D01*
X003350Y005160D02*
X003850Y004660D01*
X004850Y004660D01*
X004350Y005160D02*
X004225Y005285D01*
X004225Y006160D01*
X004225Y006285D01*
X003975Y006535D01*
X000850Y006535D01*
X000725Y006410D01*
X001475Y005160D02*
X003350Y005160D01*
X004100Y009785D02*
X002725Y011160D01*
X002600Y011160D01*
X003225Y011660D02*
X003725Y011160D01*
X004850Y011160D01*
X005475Y011535D02*
X004725Y012285D01*
X004725Y013160D01*
X005225Y013035D02*
X005225Y012660D01*
X005225Y013035D02*
X006100Y013910D01*
X008100Y013910D01*
X008350Y013660D01*
X008475Y012785D02*
X008975Y012285D01*
X008475Y012785D02*
X006850Y012785D01*
X006850Y010785D02*
X006100Y010785D01*
X005975Y010660D01*
X005475Y010660D01*
X005475Y011535D01*
X005475Y010660D02*
X004350Y010660D01*
X004350Y011660D02*
X004225Y011785D01*
X004225Y012660D01*
X003850Y013035D01*
X000725Y013035D01*
X001475Y011660D02*
X003225Y011660D01*
X001975Y009785D02*
X000725Y009785D01*
X004100Y016285D02*
X002600Y017785D01*
X003225Y018285D02*
X003850Y017660D01*
X004850Y017660D01*
X005475Y018160D02*
X004725Y018910D01*
X004725Y019660D01*
X005225Y019535D02*
X005225Y019160D01*
X005225Y019535D02*
X006100Y020410D01*
X007725Y020410D01*
X008225Y020160D01*
X008475Y019285D02*
X008975Y018785D01*
X008475Y019285D02*
X006850Y019285D01*
X006850Y017285D02*
X006100Y017285D01*
X005975Y017160D01*
X005475Y017160D01*
X005475Y018160D01*
X005475Y017160D02*
X004350Y017160D01*
X004350Y018160D02*
X004225Y018285D01*
X004225Y019160D01*
X004225Y019285D01*
X003975Y019535D01*
X000725Y019535D01*
X001475Y018285D02*
X003225Y018285D01*
X004100Y022785D02*
X002725Y024160D01*
X002600Y024160D01*
X003350Y024660D02*
X003850Y024160D01*
X004850Y024160D01*
X005475Y024660D02*
X004725Y025410D01*
X004725Y026160D01*
X005225Y026035D02*
X005225Y025660D01*
X005225Y026035D02*
X006100Y026910D01*
X007975Y026910D01*
X008350Y026660D01*
X008475Y025785D02*
X008975Y025285D01*
X008475Y025785D02*
X006850Y025785D01*
X006850Y023785D02*
X006100Y023785D01*
X005975Y023660D01*
X005475Y023660D01*
X005475Y024660D01*
X005475Y023660D02*
X004350Y023660D01*
X004350Y024660D02*
X004225Y024785D01*
X004225Y025660D01*
X003850Y026035D01*
X000725Y026035D01*
X001475Y024660D02*
X003350Y024660D01*
X006100Y023785D02*
X006100Y022785D01*
X006850Y023785D02*
X008225Y022410D01*
X008225Y022160D01*
X006850Y017285D02*
X007725Y016410D01*
X008225Y016410D01*
X006850Y010785D02*
X007850Y010035D01*
X008350Y010035D01*
X006100Y009785D02*
X006100Y010785D01*
X006100Y016285D02*
X006100Y017285D01*
D14*
X000725Y026035D02*
X002975Y028285D01*
X004100Y028285D01*
X004850Y028285D01*
X004100Y028285D02*
X004100Y029785D01*
X000725Y026035D02*
X000725Y019535D01*
X000725Y013035D01*
X000725Y009785D01*
X000725Y006410D01*
M02*
