G04 Output by ViewMate Deluxe V11.0.9  PentaLogix LLC*
G04 Wed Apr 16 07:32:27 2014*
%FSLAX33Y33*%
%MOMM*%
%IPPOS*%
%ADD15C,0.127*%
%ADD17C,0.254*%
%ADD105C,0.4064*%
%ADD106C,0.1016*%
%ADD107C,0.1524*%
%ADD109C,1.27*%

%LPD*%
X0Y0D2*D15*G1X12835Y8095D2*X12835Y7938D1*X17148Y46639D2*X17775Y46639D1*X17148Y47267D2*X17775Y47267D1*X17932Y47109*X17932Y46797*X17775Y46639*X17148Y47267*X16993Y47109*X16993Y46797*X17148Y46639*X17932Y45237D2*X16993Y45237D1*X17775Y45705D2*X17932Y45705D1*X16993Y45237D2*X17462Y44768D1*X16993Y45705D2*X16993Y46330D1*X17148Y46330*X17775Y45705*X17462Y44768D2*X17462Y45395D1*X17775Y29195D2*X17932Y29195D1*X17148Y30129D2*X17775Y30129D1*X17148Y30757D2*X17775Y30757D1*X17932Y30599*X17932Y30287*X17775Y30129*X17148Y30757*X16993Y30599*X16993Y30287*X17148Y30129*X17932Y28727D2*X16993Y28727D1*X17462Y28258*X16993Y29195D2*X16993Y29820D1*X17148Y29820*X17775Y29195*X17462Y28258D2*X17462Y28885D1*X17148Y14247D2*X16993Y14089D1*X16993Y13777*X17148Y13619*X17775Y13619*X17932Y13777*X17932Y14089*X17775Y14247*X17148Y14247*X17775Y13619*X17932Y12685D2*X17775Y12685D1*X16993Y12217D2*X17932Y12217D1*X16993Y12685D2*X16993Y13310D1*X17148Y13310*X17775Y12685*X17462Y12375D2*X17462Y11748D1*X16993Y12217*X13462Y8722D2*X13462Y8880D1*X12835Y8880*X12370Y7938D2*X12370Y8880D1*X11900Y8407*X12527Y8407*X13462Y8722D2*X12835Y8095D1*X13772Y8095D2*X13772Y8722D1*X13927Y8880*X14242Y8880*X14399Y8722D2*X14399Y8095D1*X14242Y7938*X13927Y7938*X13772Y8095*X14399Y8722*X14242Y8880*X15400Y11748D2*X15088Y12062D1*X16027Y12062*X16027Y12375D2*X16027Y11748D1*X15870Y12685D2*X16027Y12840D1*X16027Y13155*X15870Y13310*X15243Y13310*X15870Y12685*X15243Y12685*X15088Y12840*X15088Y13155*X15243Y13310*X16027Y13619D2*X15088Y13619D1*X16027Y14089D2*X15715Y13619D1*X15400Y14089*X14397Y18415D2*X13927Y18730D1*X14397Y19042*X13927Y19357D2*X13927Y18415D1*X13462Y19357D2*X13619Y19200D1*X12055Y19042D2*X12370Y19357D1*X12370Y18415*X12682Y18415D2*X12055Y18415D1*X12992Y18572D2*X13147Y18415D1*X13462Y18415*X13619Y18572*X13619Y19200*X12992Y18572*X12992Y19200*X13147Y19357*X13462Y19357*X13462Y25232D2*X12835Y24605D1*X12835Y24448*X12370Y24448D2*X12370Y25390D1*X11900Y24917*X12527Y24917*X12835Y25390D2*X13462Y25390D1*X13462Y25232*X13772Y24605D2*X13772Y25232D1*X13927Y25390*X14242Y25390*X14399Y25232D2*X14399Y24605D1*X14242Y24448*X13927Y24448*X13772Y24605*X14399Y25232*X14242Y25390*X15400Y28258D2*X15088Y28572D1*X16027Y28572*X16027Y28885D2*X16027Y28258D1*X15870Y29195D2*X16027Y29350D1*X16027Y29665*X15870Y29820*X15243Y29820*X15870Y29195*X15243Y29195*X15088Y29350*X15088Y29665*X15243Y29820*X16027Y30129D2*X15088Y30129D1*X16027Y30599D2*X15715Y30129D1*X15400Y30599*X14397Y34925D2*X13927Y35240D1*X14397Y35552*X13927Y35867D2*X13927Y34925D1*X13462Y35867D2*X13619Y35710D1*X12055Y35552D2*X12370Y35867D1*X12370Y34925*X12682Y34925D2*X12055Y34925D1*X12992Y35082D2*X13147Y34925D1*X13462Y34925*X13619Y35082*X13619Y35710*X12992Y35082*X12992Y35710*X13147Y35867*X13462Y35867*X13462Y41742D2*X12835Y41115D1*X12835Y40958*X12370Y40958D2*X12370Y41900D1*X11900Y41427*X12527Y41427*X12835Y41900D2*X13462Y41900D1*X13462Y41742*X13772Y41115D2*X13772Y41742D1*X13927Y41900*X14242Y41900*X14399Y41742D2*X14399Y41115D1*X14242Y40958*X13927Y40958*X13772Y41115*X14399Y41742*X14242Y41900*X15400Y44768D2*X15088Y45082D1*X16027Y45082*X16027Y45395D2*X16027Y44768D1*X15870Y45705D2*X16027Y45860D1*X16027Y46175*X15870Y46330*X15243Y46330*X15870Y45705*X15243Y45705*X15088Y45860*X15088Y46175*X15243Y46330*X16027Y46639D2*X15088Y46639D1*X16027Y47109D2*X15715Y46639D1*X15400Y47109*X14397Y51435D2*X13927Y51750D1*X14397Y52062*X13927Y52377D2*X13927Y51435D1*X13619Y52220D2*X13462Y52377D1*X13147Y52377*X12992Y52220*X12992Y51592*X13147Y51435*X13462Y51435*X13619Y51592*X13619Y52220*X12992Y51592*X12682Y51435D2*X12055Y51435D1*X12370Y51435D2*X12370Y52377D1*X12055Y52062*X12055Y68572D2*X12370Y68887D1*X12370Y67945*X12682Y67945D2*X12055Y67945D1*X12992Y68102D2*X12992Y68730D1*X13147Y68887*X13462Y68887*X13619Y68730*X13619Y68102D2*X13462Y67945D1*X13147Y67945*X12992Y68102*X13619Y68730*X13619Y68102*X13927Y68887D2*X13927Y67945D1*X14397Y68572D2*X13927Y68260D1*X14397Y67945*X16993Y62215D2*X16993Y62840D1*X17148Y62840*X17462Y61905D2*X17462Y61278D1*X16993Y61747*X17932Y61747*X17932Y62215D2*X17775Y62215D1*X17148Y62840*X17775Y63149D2*X17148Y63149D1*X16993Y63307*X16993Y63619*X17148Y63777D2*X17775Y63777D1*X17932Y63619*X17932Y63307*X17775Y63149*X17148Y63777*X16993Y63619*X15400Y63619D2*X15715Y63149D1*X16027Y63619*X15088Y63149D2*X16027Y63149D1*X15243Y62840D2*X15088Y62685D1*X15088Y62370*X15243Y62215*X15870Y62215*X16027Y62370*X16027Y62685*X15870Y62840*X15243Y62840*X15870Y62215*X16027Y61905D2*X16027Y61278D1*X16027Y61592D2*X15088Y61592D1*X15400Y61278*X14399Y58252D2*X14242Y58410D1*X13927Y58410*X13772Y58252*X13772Y57625*X13927Y57468*X14242Y57468*X14399Y57625*X14399Y58252*X13772Y57625*X12370Y58410D2*X12370Y57468D1*X12835Y58410D2*X13462Y58410D1*X13462Y58252*X12835Y57625*X12835Y57468*X12527Y57937D2*X11900Y57937D1*X12370Y58410*X8900Y3043D2*X9135Y3043D1*X9018Y3043D2*X9018Y2462D1*X8900Y2345*X8786Y2345*X8668Y2462*X9370Y2462D2*X9488Y2580D1*X9837Y2580*X9837Y2694D2*X9837Y2345D1*X9488Y2345*X9370Y2462*X9488Y2812D2*X9719Y2812D1*X9837Y2694*X10072Y2812D2*X10189Y2812D1*X10304Y2694*X10421Y2812*X10538Y2694*X10538Y2345*X10304Y2345D2*X10304Y2694D1*X10072Y2812D2*X10072Y2345D1*X10773Y2462D2*X10773Y2694D1*X10891Y2812*X11123Y2812*X11240Y2694*X11240Y2580*X10773Y2580*X10773Y2462D2*X10891Y2345D1*X11123Y2345*X11475Y2345D2*X11824Y2345D1*X11942Y2462*X11824Y2580*X11593Y2580*X11475Y2694*X11593Y2812*X11942Y2812*X12878Y2345D2*X12878Y3043D1*X13345Y2345*X13345Y3043*X13580Y2462D2*X13580Y2694D1*X13698Y2812*X13929Y2812*X14047Y2694*X14047Y2580*X13580Y2580*X13580Y2462D2*X13698Y2345D1*X13929Y2345*X14282Y2462D2*X14399Y2345D1*X14514Y2462*X14631Y2345*X14749Y2462*X14749Y2812*X14983Y2812D2*X15101Y2812D1*X15215Y2694*X15333Y2812*X15450Y2694*X15450Y2345*X15215Y2345D2*X15215Y2694D1*X14983Y2812D2*X14983Y2345D1*X15685Y2462D2*X15803Y2580D1*X16152Y2580*X16152Y2694D2*X16152Y2345D1*X15803Y2345*X15685Y2462*X15803Y2812D2*X16034Y2812D1*X16152Y2694*X16387Y2812D2*X16736Y2812D1*X16854Y2694*X16387Y2345D2*X16387Y2812D1*X14282Y2812D2*X14282Y2462D1*X16854Y2694D2*X16854Y2345D1*X9462Y65430D2*X9497Y65585D1*X9543Y65735*X9596Y65885*X9660Y66030*X9731Y66170*X9812Y66307*X9901Y66439*X9997Y66563*X10099Y66683*X10211Y66794*X10328Y66901*X10452Y67000*X10582Y67089*X10716Y67173*X10856Y67246*X11001Y67313*X11148Y67368*X11298Y67417*X11453Y67455*X11608Y67483*X11765Y67503*X11923Y67513*X12080Y67513*X12238Y67503*X12395Y67483*X12550Y67455*X12705Y67417*X12855Y67368*X13002Y67313*X13147Y67246*X13287Y67173*X13421Y67089*X13551Y67000*X13675Y66901*X13792Y66794*X13904Y66683*X14006Y66563*X14102Y66439*X14191Y66307*X14272Y66170*X14343Y66030*X14407Y65885*X14460Y65735*X14506Y65585*X14542Y65430*X14542Y63906*X9462Y63906*X9462Y65430*X9779Y58826D2*X9779Y63906D1*X11303Y63906*X11458Y63871*X11608Y63825*X11758Y63772*X11902Y63708*X12042Y63637*X12179Y63556*X12311Y63467*X12436Y63370*X12555Y63269*X12667Y63157*X12774Y63040*X12873Y62916*X12962Y62786*X13045Y62652*X13119Y62512*X13185Y62367*X13241Y62220*X13289Y62070*X13327Y61915*X13355Y61760*X13376Y61603*X13386Y61445*X13386Y61288*X13376Y61130*X13355Y60973*X13327Y60818*X13289Y60663*X13241Y60513*X13185Y60366*X13119Y60221*X13045Y60081*X12962Y59947*X12873Y59817*X12774Y59693*X12667Y59576*X12555Y59464*X12436Y59362*X12311Y59266*X12179Y59177*X12042Y59096*X11902Y59025*X11758Y58961*X11608Y58908*X11458Y58862*X11303Y58826*X9779Y58826*X9779Y14376D2*X9779Y9296D1*X11303Y9296*X11458Y9332*X11608Y9378*X11758Y9431*X11902Y9495*X12042Y9566*X12179Y9647*X12311Y9736*X12436Y9832*X12555Y9934*X12667Y10046*X12774Y10163*X12873Y10287*X12962Y10417*X13045Y10551*X13119Y10691*X13185Y10836*X13241Y10983*X13289Y11133*X13327Y11288*X13355Y11443*X13376Y11600*X13386Y11758*X13386Y11915*X13376Y12073*X13355Y12230*X13327Y12385*X13289Y12540*X13241Y12690*X13185Y12837*X13119Y12982*X13045Y13122*X12962Y13256*X12873Y13386*X12774Y13510*X12667Y13627*X12555Y13739*X12436Y13840*X12311Y13937*X12179Y14026*X12042Y14107*X11902Y14178*X11758Y14242*X11608Y14295*X11458Y14341*X11303Y14376*X9779Y14376*X9462Y15900D2*X9497Y16055D1*X9543Y16205*X9596Y16355*X9660Y16500*X9731Y16640*X9812Y16777*X9901Y16909*X9997Y17033*X10099Y17153*X10211Y17264*X10328Y17371*X10452Y17470*X10582Y17559*X10716Y17643*X10856Y17716*X11001Y17783*X11148Y17838*X11298Y17887*X11453Y17925*X11608Y17953*X11765Y17973*X11923Y17983*X12080Y17983*X12238Y17973*X12395Y17953*X12550Y17925*X12705Y17887*X12855Y17838*X13002Y17783*X13147Y17716*X13287Y17643*X13421Y17559*X13551Y17470*X13675Y17371*X13792Y17264*X13904Y17153*X14006Y17033*X14102Y16909*X14191Y16777*X14272Y16640*X14343Y16500*X14407Y16355*X14460Y16205*X14506Y16055*X14542Y15900*X14542Y14376*X9462Y14376*X9462Y15900*X9779Y30886D2*X9779Y25806D1*X11303Y25806*X11458Y25842*X11608Y25888*X11758Y25941*X11902Y26005*X12042Y26076*X12179Y26157*X12311Y26246*X12436Y26342*X12555Y26444*X12667Y26556*X12774Y26673*X12873Y26797*X12962Y26927*X13045Y27061*X13119Y27201*X13185Y27346*X13241Y27493*X13289Y27643*X13327Y27798*X13355Y27953*X13376Y28110*X13386Y28268*X13386Y28425*X13376Y28583*X13355Y28740*X13327Y28895*X13289Y29050*X13241Y29200*X13185Y29347*X13119Y29492*X13045Y29632*X12962Y29766*X12873Y29896*X12774Y30020*X12667Y30137*X12555Y30249*X12436Y30350*X12311Y30447*X12179Y30536*X12042Y30617*X11902Y30688*X11758Y30752*X11608Y30805*X11458Y30851*X11303Y30886*X9779Y30886*X9462Y32410D2*X9497Y32565D1*X9543Y32715*X9596Y32865*X9660Y33010*X9731Y33150*X9812Y33287*X9901Y33419*X9997Y33543*X10099Y33663*X10211Y33774*X10328Y33881*X10452Y33980*X10582Y34069*X10716Y34153*X10856Y34226*X11001Y34293*X11148Y34348*X11298Y34397*X11453Y34435*X11608Y34463*X11765Y34483*X11923Y34493*X12080Y34493*X12238Y34483*X12395Y34463*X12550Y34435*X12705Y34397*X12855Y34348*X13002Y34293*X13147Y34226*X13287Y34153*X13421Y34069*X13551Y33980*X13675Y33881*X13792Y33774*X13904Y33663*X14006Y33543*X14102Y33419*X14191Y33287*X14272Y33150*X14343Y33010*X14407Y32865*X14460Y32715*X14506Y32565*X14542Y32410*X14542Y30886*X9462Y30886*X9462Y32410*X11303Y42316D2*X11458Y42352D1*X11608Y42398*X11758Y42451*X11902Y42515*X12042Y42586*X12179Y42667*X12311Y42756*X12436Y42852*X12555Y42954*X12667Y43066*X12774Y43183*X12873Y43307*X12962Y43437*X13045Y43571*X13119Y43711*X13185Y43856*X13241Y44003*X13289Y44153*X13327Y44308*X13355Y44463*X13376Y44620*X13386Y44778*X13386Y44935*X13376Y45093*X13355Y45250*X13327Y45405*X13289Y45560*X13241Y45710*X13185Y45857*X13119Y46002*X13045Y46142*X12962Y46276*X12873Y46406*X12774Y46530*X12667Y46647*X12555Y46759*X12436Y46860*X12311Y46957*X12179Y47046*X12042Y47127*X11902Y47198*X11758Y47262*X11608Y47315*X11458Y47361*X11303Y47396*X9779Y47396D2*X9779Y42316D1*X11303Y42316*X14542Y48920D2*X14506Y49075D1*X14460Y49225*X14407Y49375*X14343Y49520*X14272Y49660*X14191Y49797*X14102Y49929*X14006Y50053*X13904Y50173*X13792Y50284*X13675Y50391*X13551Y50490*X13421Y50579*X13287Y50663*X13147Y50736*X13002Y50803*X12855Y50858*X12705Y50907*X12550Y50945*X12395Y50973*X12238Y50993*X12080Y51003*X11923Y51003*X11765Y50993*X11608Y50973*X11453Y50945*X11298Y50907*X11148Y50858*X11001Y50803*X10856Y50736*X10716Y50663*X10582Y50579*X10452Y50490*X10328Y50391*X10211Y50284*X10099Y50173*X9997Y50053*X9901Y49929*X9812Y49797*X9731Y49660*X9660Y49520*X9596Y49375*X9543Y49225*X9497Y49075*X9462Y48920*X9779Y47396D2*X11303Y47396D1*X9462Y48920D2*X9462Y47396D1*X14542Y47396*X14542Y48920*D17*X21780Y61366D2*X21780Y60223D1*X21209Y60795D2*X22352Y60795D1*X7048Y64795D2*X8192Y64795D1*X7620Y64224D2*X7620Y65367D1*X7048Y48603D2*X8192Y48603D1*X7620Y48031D2*X7620Y49174D1*X7048Y31775D2*X8192Y31775D1*X7620Y31204D2*X7620Y32347D1*X7620Y14694D2*X7620Y15837D1*X8192Y15265D2*X7048Y15265D1*X22352Y11265D2*X21209Y11265D1*X21780Y11836D2*X21780Y10693D1*X22352Y27775D2*X21209Y27775D1*X21780Y28346D2*X21780Y27203D1*X21780Y44856D2*X21780Y43713D1*X21209Y44285D2*X22352Y44285D1*D105*X25654Y8979D2*X23114Y8979D1*X23114Y34696D2*X25654Y34696D1*X25654Y41999D2*X23114Y41999D1*X23114Y67716D2*X25654Y67716D1*X24384Y66446D2*X24384Y68986D1*X25654Y58509D2*X23114Y58509D1*X23114Y51206D2*X25654Y51206D1*X24384Y52476D2*X24384Y49936D1*X1524Y54699D2*X24384Y54699D1*X24384Y38189D2*X1524Y38189D1*X24384Y33426D2*X24384Y35966D1*X25654Y25489D2*X23114Y25489D1*X23114Y18186D2*X25654Y18186D1*X24384Y19456D2*X24384Y16916D1*X1524Y21679D2*X24384Y21679D1*D106*X9195Y73360D2*X9195Y74140D1*X9390Y74336*X9779Y74336*X9975Y74140*X9195Y73360*X9390Y73165*X9779Y73165*X9975Y73360*X9975Y74140*X10363Y74336D2*X10363Y73556D1*X10754Y73165*X11143Y73556*X11143Y74336*X14346Y73360D2*X14346Y74140D1*X14737Y73749D2*X13957Y73749D1*X15126Y73360D2*X15321Y73165D1*X15712Y73165*X15905Y73360*X15905Y73749*X15712Y73944*X15517Y73944*X15126Y73749*X15126Y74336*X15905Y74336*X16297Y74336D2*X16297Y73556D1*X16685Y73165*X17076Y74336D2*X17076Y73556D1*X16685Y73165*X16548Y71450D2*X16548Y71907D1*X16396Y72060*X15938Y72060*X15938Y71450*X15613Y72212D2*X15461Y72367D1*X15156Y72367*X15004Y72212*X15004Y71603D2*X15156Y71450D1*X15461Y71450*X15613Y71603*X15613Y72212*X15004Y71603*X15004Y72212*X14679Y72212D2*X14524Y72367D1*X14219Y72367*X14067Y72212*X14067Y71603D2*X14219Y71450D1*X14524Y71450*X14679Y71603*X14679Y72212*X14067Y71603*X14067Y72212*X13132Y72060D2*X13437Y72367D1*X13437Y71450*X13132Y71450D2*X13741Y71450D1*X5258Y21524D2*X4648Y21524D1*X4648Y22459D2*X5258Y22459D1*X5410Y23393D2*X4801Y23393D1*X5410Y24003D2*X4953Y24003D1*X4801Y23851*X4801Y23393*X4648Y23068D2*X5258Y23068D1*X5410Y22916*X5410Y22611*X5258Y22459*X4648Y23068*X4496Y22916*X4496Y22611*X4648Y22459*X4648Y22134D2*X5258Y22134D1*X5410Y21981*X5410Y21676*X5258Y21524*X4648Y22134*X4496Y21981*X4496Y21676*X4648Y21524*X4801Y20587D2*X4496Y20892D1*X5410Y20892*X5410Y20587D2*X5410Y21196D1*D107*X5669Y61432D2*X5580Y61509D1*X5497Y61587*X5420Y61676*X5352Y61768*X5291Y61864*X5235Y61966*X5189Y62073*X5149Y62182*X5118Y62294*X5098Y62405*X5085Y62522*X5080Y62636*X7518Y63856D2*X7610Y63782D1*X7696Y63701*X7775Y63612*X7846Y63520*X7910Y63421*X7968Y63317*X8016Y63210*X8057Y63101*X8087Y62987*X8110Y62870*X8123Y62753*X8128Y62636*X7490Y61397D2*X7584Y61471D1*X7673Y61552*X7757Y61641*X7833Y61735*X7899Y61834*X7958Y61938*X8011Y62050*X8052Y62161*X8085Y62278*X8108Y62395*X8123Y62517*X8128Y62636*X5669Y63840D2*X5580Y63764D1*X5497Y63685*X5420Y63597*X5352Y63505*X5291Y63409*X5235Y63307*X5189Y63200*X5149Y63091*X5118Y62979*X5098Y62868*X5085Y62751*X5080Y62636*X5669Y45240D2*X5580Y45316D1*X5497Y45395*X5420Y45484*X5352Y45575*X5291Y45672*X5235Y45773*X5189Y45880*X5149Y45989*X5118Y46101*X5098Y46213*X5085Y46330*X5080Y46444*X7518Y47663D2*X7610Y47589D1*X7696Y47508*X7775Y47419*X7846Y47328*X7910Y47229*X7968Y47125*X8016Y47018*X8057Y46909*X8087Y46794*X8110Y46678*X8123Y46561*X8128Y46444*X7490Y45204D2*X7584Y45278D1*X7673Y45359*X7757Y45448*X7833Y45542*X7899Y45641*X7958Y45745*X8011Y45857*X8052Y45969*X8085Y46086*X8108Y46203*X8123Y46325*X8128Y46444*X5669Y47648D2*X5580Y47572D1*X5497Y47493*X5420Y47404*X5352Y47313*X5291Y47216*X5235Y47114*X5189Y47008*X5149Y46899*X5118Y46787*X5098Y46675*X5085Y46558*X5080Y46444*X10589Y5286D2*X10589Y3929D1*X21882Y45225D2*X21791Y45298D1*X21704Y45380*X21626Y45469*X21554Y45560*X21491Y45659*X21433Y45763*X21384Y45870*X21344Y45979*X21313Y46093*X21290Y46210*X21278Y46327*X21272Y46444*X23731Y47648D2*X23820Y47572D1*X23904Y47493*X23980Y47404*X24049Y47313*X24110Y47216*X24166Y47114*X24211Y47008*X24252Y46899*X24282Y46787*X24303Y46675*X24315Y46558*X24320Y46444*X23731Y45240D2*X23820Y45316D1*X23904Y45395*X23980Y45484*X24049Y45575*X24110Y45672*X24166Y45773*X24211Y45880*X24252Y45989*X24282Y46101*X24303Y46213*X24315Y46330*X24320Y46444*X21910Y47683D2*X21816Y47610D1*X21727Y47528*X21643Y47440*X21567Y47346*X21501Y47247*X21443Y47142*X21389Y47031*X21349Y46919*X21316Y46802*X21293Y46685*X21278Y46563*X21272Y46444*X21882Y28715D2*X21791Y28788D1*X21704Y28870*X21626Y28959*X21554Y29050*X21491Y29149*X21433Y29253*X21384Y29360*X21344Y29469*X21313Y29583*X21290Y29700*X21278Y29817*X21272Y29934*X23731Y31138D2*X23820Y31062D1*X23904Y30983*X23980Y30894*X24049Y30803*X24110Y30706*X24166Y30604*X24211Y30498*X24252Y30389*X24282Y30277*X24303Y30165*X24315Y30048*X24320Y29934*X23731Y28730D2*X23820Y28806D1*X23904Y28885*X23980Y28974*X24049Y29065*X24110Y29162*X24166Y29263*X24211Y29370*X24252Y29479*X24282Y29591*X24303Y29703*X24315Y29820*X24320Y29934*X21910Y31173D2*X21816Y31100D1*X21727Y31018*X21643Y30930*X21567Y30836*X21501Y30737*X21443Y30632*X21389Y30521*X21349Y30409*X21316Y30292*X21293Y30175*X21278Y30053*X21272Y29934*X21882Y12205D2*X21791Y12278D1*X21704Y12360*X21626Y12449*X21554Y12540*X21491Y12639*X21433Y12743*X21384Y12850*X21344Y12959*X21313Y13073*X21290Y13190*X21278Y13307*X21272Y13424*X23731Y14628D2*X23820Y14552D1*X23904Y14473*X23980Y14384*X24049Y14293*X24110Y14196*X24166Y14094*X24211Y13988*X24252Y13879*X24282Y13767*X24303Y13655*X24315Y13538*X24320Y13424*X23731Y12220D2*X23820Y12296D1*X23904Y12375*X23980Y12464*X24049Y12555*X24110Y12652*X24166Y12753*X24211Y12860*X24252Y12969*X24282Y13081*X24303Y13193*X24315Y13310*X24320Y13424*X21910Y14663D2*X21816Y14590D1*X21727Y14508*X21643Y14420*X21567Y14326*X21501Y14227*X21443Y14122*X21389Y14011*X21349Y13899*X21316Y13782*X21293Y13665*X21278Y13543*X21272Y13424*X18230Y3658D2*X18773Y4201D1*X18773Y4742*X18230Y5286*X16591Y4742D2*X17135Y5286D1*X17135Y3658*X16591Y3658D2*X17676Y3658D1*X16043Y3658D2*X15502Y4201D1*X15502Y4742*X16043Y5286*X16383Y15265D2*X16383Y11582D1*X16510Y11582D2*X16510Y15265D1*X18288Y15265D2*X18288Y11582D1*X18288Y31775D2*X18288Y28092D1*X16510Y28092D2*X16510Y31775D1*X16383Y31775D2*X16383Y28092D1*X16383Y48285D2*X16383Y44602D1*X16510Y44602D2*X16510Y48285D1*X18288Y48285D2*X18288Y44602D1*X23731Y64158D2*X23820Y64082D1*X23904Y64003*X23980Y63914*X24049Y63823*X24110Y63726*X24166Y63624*X24211Y63518*X24252Y63409*X24282Y63297*X24303Y63185*X24315Y63068*X24320Y62954*X21882Y61735D2*X21791Y61808D1*X21704Y61890*X21626Y61979*X21554Y62070*X21491Y62169*X21433Y62273*X21384Y62380*X21344Y62489*X21313Y62603*X21290Y62720*X21278Y62837*X21272Y62954*X21910Y64193D2*X21816Y64120D1*X21727Y64038*X21643Y63950*X21567Y63856*X21501Y63757*X21443Y63652*X21389Y63541*X21349Y63429*X21316Y63312*X21293Y63195*X21278Y63073*X21272Y62954*X23731Y61750D2*X23820Y61826D1*X23904Y61905*X23980Y61994*X24049Y62085*X24110Y62182*X24166Y62283*X24211Y62390*X24252Y62499*X24282Y62611*X24303Y62723*X24315Y62840*X24320Y62954*X11938Y72987D2*X17780Y72987D1*X17780Y70701D2*X11938Y70701D1*X18288Y64795D2*X18288Y61112D1*X16510Y61112D2*X16510Y64795D1*X16383Y64795D2*X16383Y61112D1*X11112Y69240D2*X14796Y69240D1*X14796Y67462D2*X11112Y67462D1*X14605Y61112D2*X14605Y64795D1*X11112Y58763D2*X14796Y58763D1*X14796Y56985D2*X11112Y56985D1*X11112Y52730D2*X14796Y52730D1*X14796Y50952D2*X11112Y50952D1*X14605Y44602D2*X14605Y48285D1*X11112Y42253D2*X14796Y42253D1*X14796Y40475D2*X11112Y40475D1*X11112Y36220D2*X14796Y36220D1*X14796Y34442D2*X11112Y34442D1*X14605Y28092D2*X14605Y31775D1*X11112Y25743D2*X14796Y25743D1*X14796Y23965D2*X11112Y23965D1*X11112Y19710D2*X14796Y19710D1*X14796Y17932D2*X11112Y17932D1*X14605Y11582D2*X14605Y15265D1*X11112Y9233D2*X14796Y9233D1*X14796Y7455D2*X11112Y7455D1*X12228Y5286D2*X13312Y5286D1*X12228Y4470D2*X12769Y4470D1*X12228Y5286D2*X12228Y3658D1*X11674Y5286D2*X11674Y3929D1*X11402Y3658*X10861Y3658*X10589Y3929*X9766Y4470D2*X10038Y4742D1*X10038Y5014*X9766Y5286*X8954Y5286*X8954Y4470D2*X9766Y4470D1*X10038Y4201*X10038Y3929*X9766Y3658*X8954Y3658*X8954Y5286*X8128Y3658D2*X8128Y5286D1*X8400Y4470D2*X7315Y4470D1*X8128Y5286*X3874Y25235D2*X3874Y19393D1*X5669Y28412D2*X5580Y28489D1*X5497Y28567*X5420Y28656*X5352Y28748*X5291Y28844*X5235Y28946*X5189Y29053*X5149Y29162*X5118Y29274*X5098Y29385*X5085Y29502*X5080Y29616*X7518Y30836D2*X7610Y30762D1*X7696Y30681*X7775Y30592*X7846Y30500*X7910Y30401*X7968Y30297*X8016Y30190*X8057Y30081*X8087Y29967*X8110Y29850*X8123Y29733*X8128Y29616*X7490Y28377D2*X7584Y28451D1*X7673Y28532*X7757Y28621*X7833Y28715*X7899Y28814*X7958Y28918*X8011Y29030*X8052Y29141*X8085Y29258*X8108Y29375*X8123Y29497*X8128Y29616*X5669Y30820D2*X5580Y30744D1*X5497Y30665*X5420Y30577*X5352Y30485*X5291Y30389*X5235Y30287*X5189Y30180*X5149Y30071*X5118Y29959*X5098Y29848*X5085Y29731*X5080Y29616*X6160Y19393D2*X6160Y25235D1*X8128Y13106D2*X8123Y12987D1*X8108Y12865*X8085Y12748*X8052Y12631*X8011Y12520*X7958Y12408*X7899Y12304*X7833Y12205*X7757Y12111*X7673Y12022*X7584Y11941*X7490Y11867*X5080Y13106D2*X5085Y12992D1*X5098Y12875*X5118Y12764*X5149Y12652*X5189Y12543*X5235Y12436*X5291Y12334*X5352Y12238*X5420Y12146*X5497Y12057*X5580Y11979*X5669Y11902*X8128Y13106D2*X8123Y13223D1*X8110Y13340*X8087Y13457*X8057Y13571*X8016Y13680*X7968Y13787*X7910Y13891*X7846Y13990*X7775Y14082*X7696Y14171*X7610Y14252*X7518Y14326*X5080Y13106D2*X5085Y13221D1*X5098Y13338*X5118Y13449*X5149Y13561*X5189Y13670*X5235Y13777*X5291Y13879*X5352Y13975*X5420Y14067*X5497Y14155*X5580Y14234*X5669Y14310*D109*X16446Y55969D2*X8826Y55969D1*X8826Y69621*X8826Y69939D2*X16446Y69939D1*X20574Y62954*X16446Y55969*X16446Y39459D2*X8826Y39459D1*X8826Y53429*X16446Y53429*X20574Y46444*X16446Y39459*X16446Y22949D2*X8826Y22949D1*X8826Y36919*X16446Y36919*X20574Y29934*X16446Y22949*X16764Y6439D2*X8826Y6439D1*X8826Y20409*X16764Y20409*X20574Y13424*X16764Y6439*X0Y0D2*M02*