G75*
G70*
%OFA0B0*%
%FSLAX24Y24*%
%IPPOS*%
%LPD*%
%AMOC8*
5,1,8,0,0,1.08239X$1,22.5*
%
%ADD10C,0.0476*%
%ADD11C,0.0515*%
%ADD12R,0.0709X0.0709*%
%ADD13C,0.0160*%
D10*
X004225Y006160D03*
X004350Y005160D03*
X004350Y004160D03*
X004850Y004660D03*
X005225Y006160D03*
X004725Y006660D03*
X004350Y010660D03*
X004350Y011660D03*
X004225Y012660D03*
X004725Y013160D03*
X005225Y012660D03*
X004850Y011160D03*
X004350Y017160D03*
X004350Y018160D03*
X004225Y019160D03*
X004725Y019660D03*
X005225Y019160D03*
X004850Y017660D03*
X004350Y023660D03*
X004350Y024660D03*
X004225Y025660D03*
X004725Y026160D03*
X005225Y025660D03*
X004850Y024160D03*
D11*
X004100Y022785D03*
X004100Y020410D03*
X004100Y016285D03*
X004100Y013910D03*
X004100Y009785D03*
X004100Y007410D03*
X004100Y003285D03*
X002600Y004660D03*
X002600Y005660D03*
X001975Y007785D03*
X001975Y009785D03*
X002600Y011160D03*
X002600Y012160D03*
X002600Y017785D03*
X002600Y018785D03*
X002600Y024160D03*
X002600Y025160D03*
X004100Y026910D03*
X004850Y028285D03*
X006100Y026910D03*
X006100Y025785D03*
X006850Y025785D03*
X006850Y023785D03*
X006100Y023785D03*
X006100Y022785D03*
X006100Y020410D03*
X006100Y019285D03*
X006850Y019285D03*
X006850Y017285D03*
X006100Y017285D03*
X006100Y016285D03*
X006100Y013910D03*
X006100Y012785D03*
X006850Y012785D03*
X006850Y010785D03*
X006100Y010785D03*
X006100Y009785D03*
X006100Y007410D03*
X006100Y006285D03*
X006850Y006285D03*
X006850Y004285D03*
X006100Y004285D03*
X006100Y003285D03*
X008975Y004785D03*
X008975Y005785D03*
X008975Y011285D03*
X008975Y012285D03*
X008975Y017785D03*
X008975Y018785D03*
X008975Y024285D03*
X008975Y025285D03*
X006850Y028285D03*
D12*
X006225Y029785D03*
X004100Y029785D03*
X001475Y024660D03*
X001475Y018285D03*
X001475Y011660D03*
X001475Y005160D03*
X008225Y003535D03*
X008225Y007160D03*
X008350Y010035D03*
X008350Y013660D03*
X008225Y016410D03*
X008225Y020160D03*
X008225Y022160D03*
X008350Y026660D03*
D13*
X000600Y028591D02*
X000600Y002730D01*
X000668Y002798D01*
X000922Y002944D01*
X001204Y003020D01*
X001496Y003020D01*
X001778Y002944D01*
X002032Y002798D01*
X002238Y002592D01*
X002384Y002339D01*
X002399Y002285D01*
X008176Y002285D01*
X008191Y002339D01*
X008337Y002592D01*
X008543Y002798D01*
X008797Y002944D01*
X009079Y003020D01*
X009371Y003020D01*
X009600Y002959D01*
X009600Y028417D01*
X009528Y028376D01*
X009246Y028300D01*
X008954Y028300D01*
X008672Y028376D01*
X008418Y028522D01*
X008212Y028729D01*
X008066Y028982D01*
X007990Y029264D01*
X007990Y029556D01*
X008066Y029839D01*
X008212Y030092D01*
X008280Y030160D01*
X006759Y030160D01*
X006759Y029823D01*
X006263Y029823D01*
X006263Y029747D01*
X006263Y029251D01*
X006603Y029251D01*
X006649Y029263D01*
X006690Y029287D01*
X006723Y029320D01*
X006747Y029361D01*
X006759Y029407D01*
X006759Y029747D01*
X006263Y029747D01*
X006187Y029747D01*
X006187Y029251D01*
X005847Y029251D01*
X005801Y029263D01*
X005760Y029287D01*
X005727Y029320D01*
X005703Y029361D01*
X005691Y029407D01*
X005691Y029747D01*
X006187Y029747D01*
X006187Y029823D01*
X005691Y029823D01*
X005691Y030160D01*
X004614Y030160D01*
X004614Y029365D01*
X004521Y029271D01*
X003679Y029271D01*
X003586Y029365D01*
X003586Y030160D01*
X002170Y030160D01*
X002238Y030092D01*
X002384Y029839D01*
X002460Y029556D01*
X002460Y029264D01*
X002384Y028982D01*
X002238Y028729D01*
X002032Y028522D01*
X001778Y028376D01*
X001496Y028300D01*
X001204Y028300D01*
X000922Y028376D01*
X000668Y028522D01*
X000600Y028591D01*
X000600Y028556D02*
X000634Y028556D01*
X000600Y028398D02*
X000884Y028398D01*
X000600Y028239D02*
X004433Y028239D01*
X004433Y028202D02*
X004496Y028049D01*
X004614Y027931D01*
X004767Y027868D01*
X004933Y027868D01*
X005086Y027931D01*
X005204Y028049D01*
X005267Y028202D01*
X005267Y028368D01*
X005204Y028522D01*
X005086Y028639D01*
X004933Y028703D01*
X004767Y028703D01*
X004614Y028639D01*
X004496Y028522D01*
X004433Y028368D01*
X004433Y028202D01*
X004483Y028081D02*
X000600Y028081D01*
X000600Y027922D02*
X004635Y027922D01*
X004445Y028398D02*
X001816Y028398D01*
X002066Y028556D02*
X004531Y028556D01*
X004598Y029349D02*
X005710Y029349D01*
X005691Y029507D02*
X004614Y029507D01*
X004614Y029666D02*
X005691Y029666D01*
X005691Y029824D02*
X004614Y029824D01*
X004614Y029983D02*
X005691Y029983D01*
X005691Y030141D02*
X004614Y030141D01*
X005169Y028556D02*
X006506Y028556D01*
X006516Y028570D02*
X006476Y028514D01*
X006445Y028453D01*
X006423Y028388D01*
X006413Y028320D01*
X006413Y028285D01*
X006413Y028251D01*
X006423Y028183D01*
X006445Y028117D01*
X006476Y028056D01*
X006516Y028000D01*
X006565Y027952D01*
X006621Y027911D01*
X006682Y027880D01*
X006748Y027858D01*
X006816Y027848D01*
X006850Y027848D01*
X006884Y027848D01*
X006952Y027858D01*
X007018Y027880D01*
X007079Y027911D01*
X007135Y027952D01*
X007184Y028000D01*
X007224Y028056D01*
X007255Y028117D01*
X007277Y028183D01*
X007287Y028251D01*
X007287Y028285D01*
X006850Y028285D01*
X006850Y027848D01*
X006850Y028285D01*
X006850Y028285D01*
X006850Y028285D01*
X006413Y028285D01*
X006850Y028285D01*
X006850Y028285D01*
X007287Y028285D01*
X007287Y028320D01*
X007277Y028388D01*
X007255Y028453D01*
X007224Y028514D01*
X007184Y028570D01*
X007135Y028619D01*
X007079Y028659D01*
X007018Y028691D01*
X006952Y028712D01*
X006884Y028723D01*
X006850Y028723D01*
X006816Y028723D01*
X006748Y028712D01*
X006682Y028691D01*
X006621Y028659D01*
X006565Y028619D01*
X006516Y028570D01*
X006427Y028398D02*
X005255Y028398D01*
X005267Y028239D02*
X006414Y028239D01*
X006463Y028081D02*
X005217Y028081D01*
X005065Y027922D02*
X006605Y027922D01*
X006850Y027922D02*
X006850Y027922D01*
X006850Y028081D02*
X006850Y028081D01*
X006850Y028239D02*
X006850Y028239D01*
X006850Y028285D02*
X006850Y028723D01*
X006850Y028285D01*
X006850Y028285D01*
X006850Y028398D02*
X006850Y028398D01*
X006850Y028556D02*
X006850Y028556D01*
X006850Y028715D02*
X006850Y028715D01*
X006765Y028715D02*
X002224Y028715D01*
X002322Y028873D02*
X008128Y028873D01*
X008052Y029032D02*
X002398Y029032D01*
X002440Y029190D02*
X008010Y029190D01*
X007990Y029349D02*
X006740Y029349D01*
X006759Y029507D02*
X007990Y029507D01*
X008019Y029666D02*
X006759Y029666D01*
X006759Y029824D02*
X008062Y029824D01*
X008149Y029983D02*
X006759Y029983D01*
X006759Y030141D02*
X008261Y030141D01*
X008226Y028715D02*
X006935Y028715D01*
X007194Y028556D02*
X008384Y028556D01*
X008634Y028398D02*
X007273Y028398D01*
X007286Y028239D02*
X009600Y028239D01*
X009600Y028081D02*
X007237Y028081D01*
X007095Y027922D02*
X009600Y027922D01*
X009600Y027764D02*
X000600Y027764D01*
X000600Y027605D02*
X009600Y027605D01*
X009600Y027447D02*
X000600Y027447D01*
X000600Y027288D02*
X003878Y027288D01*
X003871Y027284D02*
X003932Y027316D01*
X003998Y027337D01*
X004066Y027348D01*
X004100Y027348D01*
X004134Y027348D01*
X004202Y027337D01*
X004268Y027316D01*
X004329Y027284D01*
X004385Y027244D01*
X004434Y027195D01*
X004474Y027139D01*
X004505Y027078D01*
X004527Y027013D01*
X004537Y026945D01*
X004537Y026910D01*
X004100Y026910D01*
X004100Y026473D01*
X004134Y026473D01*
X004202Y026483D01*
X004268Y026505D01*
X004329Y026536D01*
X004385Y026577D01*
X004434Y026625D01*
X004474Y026681D01*
X004505Y026742D01*
X004527Y026808D01*
X004537Y026876D01*
X004537Y026910D01*
X004100Y026910D01*
X004100Y026910D01*
X004100Y026473D01*
X004066Y026473D01*
X003998Y026483D01*
X003932Y026505D01*
X003871Y026536D01*
X003815Y026577D01*
X003766Y026625D01*
X003726Y026681D01*
X003695Y026742D01*
X003673Y026808D01*
X003663Y026876D01*
X003663Y026910D01*
X004100Y026910D01*
X004100Y026910D01*
X004100Y026910D01*
X003663Y026910D01*
X003663Y026945D01*
X003673Y027013D01*
X003695Y027078D01*
X003726Y027139D01*
X003766Y027195D01*
X003815Y027244D01*
X003871Y027284D01*
X003721Y027130D02*
X000600Y027130D01*
X000600Y026971D02*
X003667Y026971D01*
X003673Y026813D02*
X000600Y026813D01*
X000600Y026654D02*
X003745Y026654D01*
X003960Y026496D02*
X000600Y026496D01*
X000600Y026337D02*
X004368Y026337D01*
X004388Y026386D02*
X004327Y026239D01*
X004327Y026081D01*
X004344Y026042D01*
X004304Y026058D01*
X004146Y026058D01*
X004000Y025997D01*
X003888Y025886D01*
X003827Y025739D01*
X003827Y025581D01*
X003888Y025435D01*
X004000Y025323D01*
X004146Y025262D01*
X004304Y025262D01*
X004450Y025323D01*
X004562Y025435D01*
X004623Y025581D01*
X004623Y025739D01*
X004606Y025779D01*
X004646Y025762D01*
X004804Y025762D01*
X004844Y025779D01*
X004827Y025739D01*
X004827Y025581D01*
X004888Y025435D01*
X005000Y025323D01*
X005146Y025262D01*
X005304Y025262D01*
X005450Y025323D01*
X005562Y025435D01*
X005623Y025581D01*
X005623Y025739D01*
X005562Y025886D01*
X005450Y025997D01*
X005304Y026058D01*
X005146Y026058D01*
X005106Y026042D01*
X005123Y026081D01*
X005123Y026239D01*
X005062Y026386D01*
X004950Y026497D01*
X004804Y026558D01*
X004646Y026558D01*
X004500Y026497D01*
X004388Y026386D01*
X004498Y026496D02*
X004240Y026496D01*
X004100Y026496D02*
X004100Y026496D01*
X004100Y026654D02*
X004100Y026654D01*
X004100Y026813D02*
X004100Y026813D01*
X004100Y026910D02*
X004100Y027348D01*
X004100Y026910D01*
X004100Y026910D01*
X004100Y026971D02*
X004100Y026971D01*
X004100Y027130D02*
X004100Y027130D01*
X004100Y027288D02*
X004100Y027288D01*
X004322Y027288D02*
X005922Y027288D01*
X005864Y027264D02*
X006017Y027328D01*
X006183Y027328D01*
X006336Y027264D01*
X006454Y027147D01*
X006517Y026993D01*
X006517Y026827D01*
X006454Y026674D01*
X006336Y026556D01*
X006183Y026493D01*
X006017Y026493D01*
X005864Y026556D01*
X005746Y026674D01*
X005683Y026827D01*
X005683Y026993D01*
X005746Y027147D01*
X005864Y027264D01*
X005739Y027130D02*
X004479Y027130D01*
X004533Y026971D02*
X005683Y026971D01*
X005688Y026813D02*
X004527Y026813D01*
X004455Y026654D02*
X005766Y026654D01*
X005932Y026191D02*
X005871Y026159D01*
X005815Y026119D01*
X005766Y026070D01*
X005726Y026014D01*
X005695Y025953D01*
X005673Y025888D01*
X005663Y025820D01*
X005663Y025785D01*
X005663Y025751D01*
X005673Y025683D01*
X005695Y025617D01*
X005726Y025556D01*
X005766Y025500D01*
X005815Y025452D01*
X005871Y025411D01*
X005932Y025380D01*
X005998Y025358D01*
X006066Y025348D01*
X006100Y025348D01*
X006134Y025348D01*
X006202Y025358D01*
X006268Y025380D01*
X006329Y025411D01*
X006385Y025452D01*
X006434Y025500D01*
X006474Y025556D01*
X006485Y025576D01*
X006496Y025549D01*
X006614Y025431D01*
X006767Y025368D01*
X006933Y025368D01*
X007086Y025431D01*
X007204Y025549D01*
X007267Y025702D01*
X007267Y025868D01*
X007204Y026022D01*
X007086Y026139D01*
X006933Y026203D01*
X006767Y026203D01*
X006614Y026139D01*
X006496Y026022D01*
X006485Y025994D01*
X006474Y026014D01*
X006434Y026070D01*
X006385Y026119D01*
X006329Y026159D01*
X006268Y026191D01*
X006202Y026212D01*
X006134Y026223D01*
X006100Y026223D01*
X006066Y026223D01*
X005998Y026212D01*
X005932Y026191D01*
X005909Y026179D02*
X005123Y026179D01*
X005082Y026337D02*
X007836Y026337D01*
X007836Y026240D02*
X007929Y026146D01*
X008771Y026146D01*
X008864Y026240D01*
X008864Y027081D01*
X008771Y027175D01*
X007929Y027175D01*
X007836Y027081D01*
X007836Y026240D01*
X007897Y026179D02*
X006991Y026179D01*
X007205Y026020D02*
X009600Y026020D01*
X009600Y025862D02*
X007267Y025862D01*
X007267Y025703D02*
X009600Y025703D01*
X009600Y025545D02*
X009306Y025545D01*
X009329Y025522D02*
X009392Y025368D01*
X009392Y025202D01*
X009329Y025049D01*
X009211Y024931D01*
X009058Y024868D01*
X008892Y024868D01*
X008739Y024931D01*
X008621Y025049D01*
X008558Y025202D01*
X008558Y025368D01*
X008621Y025522D01*
X008739Y025639D01*
X008892Y025703D01*
X009058Y025703D01*
X009211Y025639D01*
X009329Y025522D01*
X009385Y025386D02*
X009600Y025386D01*
X009600Y025228D02*
X009392Y025228D01*
X009337Y025069D02*
X009600Y025069D01*
X009600Y024911D02*
X009162Y024911D01*
X009077Y024712D02*
X009009Y024723D01*
X008975Y024723D01*
X008941Y024723D01*
X008873Y024712D01*
X008807Y024691D01*
X008746Y024659D01*
X008690Y024619D01*
X008641Y024570D01*
X008601Y024514D01*
X008570Y024453D01*
X008548Y024388D01*
X008538Y024320D01*
X008538Y024285D01*
X008538Y024251D01*
X008548Y024183D01*
X008570Y024117D01*
X008601Y024056D01*
X008641Y024000D01*
X008690Y023952D01*
X008746Y023911D01*
X008807Y023880D01*
X008873Y023858D01*
X008941Y023848D01*
X008975Y023848D01*
X009009Y023848D01*
X009077Y023858D01*
X009143Y023880D01*
X009204Y023911D01*
X009260Y023952D01*
X009309Y024000D01*
X009349Y024056D01*
X009380Y024117D01*
X009402Y024183D01*
X009412Y024251D01*
X009412Y024285D01*
X008975Y024285D01*
X008975Y023848D01*
X008975Y024285D01*
X008975Y024285D01*
X008538Y024285D01*
X008975Y024285D01*
X008975Y024285D01*
X008975Y024285D01*
X009412Y024285D01*
X009412Y024320D01*
X009402Y024388D01*
X009380Y024453D01*
X009349Y024514D01*
X009309Y024570D01*
X009260Y024619D01*
X009204Y024659D01*
X009143Y024691D01*
X009077Y024712D01*
X008975Y024723D02*
X008975Y024285D01*
X008975Y024723D01*
X008975Y024594D02*
X008975Y024594D01*
X008975Y024435D02*
X008975Y024435D01*
X008975Y024285D02*
X008975Y024285D01*
X008975Y024277D02*
X008975Y024277D01*
X008975Y024118D02*
X008975Y024118D01*
X008975Y023960D02*
X008975Y023960D01*
X009268Y023960D02*
X009600Y023960D01*
X009600Y024118D02*
X009381Y024118D01*
X009412Y024277D02*
X009600Y024277D01*
X009600Y024435D02*
X009386Y024435D01*
X009285Y024594D02*
X009600Y024594D01*
X009600Y024752D02*
X004742Y024752D01*
X004748Y024739D02*
X004687Y024886D01*
X004575Y024997D01*
X004429Y025058D01*
X004271Y025058D01*
X004125Y024997D01*
X004013Y024886D01*
X003952Y024739D01*
X003952Y024581D01*
X004013Y024435D01*
X004125Y024323D01*
X004271Y024262D01*
X004429Y024262D01*
X004469Y024279D01*
X004452Y024239D01*
X004452Y024081D01*
X004469Y024042D01*
X004429Y024058D01*
X004271Y024058D01*
X004125Y023997D01*
X004013Y023886D01*
X003952Y023739D01*
X003952Y023581D01*
X004013Y023435D01*
X004125Y023323D01*
X004271Y023262D01*
X004429Y023262D01*
X004575Y023323D01*
X004687Y023435D01*
X004748Y023581D01*
X004748Y023739D01*
X004731Y023779D01*
X004771Y023762D01*
X004929Y023762D01*
X005075Y023823D01*
X005187Y023935D01*
X005248Y024081D01*
X005248Y024239D01*
X005187Y024386D01*
X005075Y024497D01*
X004929Y024558D01*
X004771Y024558D01*
X004731Y024542D01*
X004748Y024581D01*
X004748Y024739D01*
X004748Y024594D02*
X008665Y024594D01*
X008564Y024435D02*
X005138Y024435D01*
X005232Y024277D02*
X008538Y024277D01*
X008569Y024118D02*
X007107Y024118D01*
X007086Y024139D02*
X006933Y024203D01*
X006767Y024203D01*
X006614Y024139D01*
X006496Y024022D01*
X006475Y023971D01*
X006454Y024022D01*
X006336Y024139D01*
X006183Y024203D01*
X006017Y024203D01*
X005864Y024139D01*
X005746Y024022D01*
X005683Y023868D01*
X005683Y023702D01*
X005746Y023549D01*
X005864Y023431D01*
X006017Y023368D01*
X006183Y023368D01*
X006336Y023431D01*
X006454Y023549D01*
X006475Y023600D01*
X006496Y023549D01*
X006614Y023431D01*
X006767Y023368D01*
X006933Y023368D01*
X007086Y023431D01*
X007204Y023549D01*
X007267Y023702D01*
X007267Y023868D01*
X007204Y024022D01*
X007086Y024139D01*
X007230Y023960D02*
X008682Y023960D01*
X008788Y024911D02*
X004662Y024911D01*
X004514Y025386D02*
X004936Y025386D01*
X004842Y025545D02*
X004608Y025545D01*
X004623Y025703D02*
X004827Y025703D01*
X004952Y026496D02*
X006010Y026496D01*
X006100Y026223D02*
X006100Y025785D01*
X006100Y025348D01*
X006100Y025785D01*
X006100Y025785D01*
X005663Y025785D01*
X006100Y025785D01*
X006100Y025785D01*
X006100Y025785D01*
X006100Y026223D01*
X006100Y026179D02*
X006100Y026179D01*
X006100Y026020D02*
X006100Y026020D01*
X006100Y025862D02*
X006100Y025862D01*
X006100Y025703D02*
X006100Y025703D01*
X006100Y025545D02*
X006100Y025545D01*
X006100Y025386D02*
X006100Y025386D01*
X006281Y025386D02*
X006722Y025386D01*
X006978Y025386D02*
X008565Y025386D01*
X008558Y025228D02*
X003032Y025228D01*
X003037Y025195D02*
X003027Y025263D01*
X003005Y025328D01*
X002974Y025389D01*
X002934Y025445D01*
X002885Y025494D01*
X002829Y025534D01*
X002768Y025566D01*
X002702Y025587D01*
X002634Y025598D01*
X002600Y025598D01*
X002566Y025598D01*
X002498Y025587D01*
X002432Y025566D01*
X002371Y025534D01*
X002315Y025494D01*
X002266Y025445D01*
X002226Y025389D01*
X002195Y025328D01*
X002173Y025263D01*
X002163Y025195D01*
X002163Y025160D01*
X002163Y025126D01*
X002173Y025058D01*
X002195Y024992D01*
X002226Y024931D01*
X002266Y024875D01*
X002315Y024827D01*
X002371Y024786D01*
X002432Y024755D01*
X002498Y024733D01*
X002566Y024723D01*
X002600Y024723D01*
X002634Y024723D01*
X002702Y024733D01*
X002768Y024755D01*
X002829Y024786D01*
X002885Y024827D01*
X002934Y024875D01*
X002974Y024931D01*
X003005Y024992D01*
X003027Y025058D01*
X003037Y025126D01*
X003037Y025160D01*
X002600Y025160D01*
X002600Y024723D01*
X002600Y025160D01*
X002600Y025160D01*
X002163Y025160D01*
X002600Y025160D01*
X002600Y025160D01*
X002600Y025160D01*
X003037Y025160D01*
X003037Y025195D01*
X003029Y025069D02*
X008613Y025069D01*
X008644Y025545D02*
X007200Y025545D01*
X006709Y026179D02*
X006291Y026179D01*
X006470Y026020D02*
X006495Y026020D01*
X006466Y025545D02*
X006500Y025545D01*
X006190Y026496D02*
X007836Y026496D01*
X007836Y026654D02*
X006434Y026654D01*
X006512Y026813D02*
X007836Y026813D01*
X007836Y026971D02*
X006517Y026971D01*
X006461Y027130D02*
X007885Y027130D01*
X008815Y027130D02*
X009600Y027130D01*
X009600Y027288D02*
X006278Y027288D01*
X005730Y026020D02*
X005395Y026020D01*
X005572Y025862D02*
X005669Y025862D01*
X005670Y025703D02*
X005623Y025703D01*
X005608Y025545D02*
X005734Y025545D01*
X005919Y025386D02*
X005514Y025386D01*
X005248Y024118D02*
X005843Y024118D01*
X005720Y023960D02*
X005198Y023960D01*
X005023Y023801D02*
X005683Y023801D01*
X005707Y023643D02*
X004748Y023643D01*
X004708Y023484D02*
X005811Y023484D01*
X005931Y023167D02*
X004269Y023167D01*
X004336Y023139D02*
X004183Y023203D01*
X004017Y023203D01*
X003864Y023139D01*
X003746Y023022D01*
X003683Y022868D01*
X003683Y022702D01*
X003746Y022549D01*
X003864Y022431D01*
X004017Y022368D01*
X004183Y022368D01*
X004336Y022431D01*
X004454Y022549D01*
X004517Y022702D01*
X004517Y022868D01*
X004454Y023022D01*
X004336Y023139D01*
X004459Y023009D02*
X005741Y023009D01*
X005746Y023022D02*
X005683Y022868D01*
X005683Y022702D01*
X005746Y022549D01*
X005864Y022431D01*
X006017Y022368D01*
X006183Y022368D01*
X006336Y022431D01*
X006454Y022549D01*
X006517Y022702D01*
X006517Y022868D01*
X006454Y023022D01*
X006336Y023139D01*
X006183Y023203D01*
X006017Y023203D01*
X005864Y023139D01*
X005746Y023022D01*
X005683Y022850D02*
X004517Y022850D01*
X004513Y022692D02*
X005687Y022692D01*
X005762Y022533D02*
X004438Y022533D01*
X004200Y022375D02*
X006000Y022375D01*
X006200Y022375D02*
X007711Y022375D01*
X007711Y022533D02*
X006438Y022533D01*
X006513Y022692D02*
X009600Y022692D01*
X009600Y022850D02*
X006517Y022850D01*
X006459Y023009D02*
X009600Y023009D01*
X009600Y023167D02*
X006269Y023167D01*
X006389Y023484D02*
X006561Y023484D01*
X006593Y024118D02*
X006357Y024118D01*
X007139Y023484D02*
X009600Y023484D01*
X009600Y023326D02*
X004578Y023326D01*
X004452Y024118D02*
X003017Y024118D01*
X003017Y024077D02*
X002954Y023924D01*
X002836Y023806D01*
X002683Y023743D01*
X002517Y023743D01*
X002364Y023806D01*
X002246Y023924D01*
X002183Y024077D01*
X002183Y024243D01*
X002246Y024397D01*
X002364Y024514D01*
X002517Y024578D01*
X002683Y024578D01*
X002836Y024514D01*
X002954Y024397D01*
X003017Y024243D01*
X003017Y024077D01*
X002969Y023960D02*
X004087Y023960D01*
X004236Y024277D02*
X003004Y024277D01*
X002915Y024435D02*
X004013Y024435D01*
X003952Y024594D02*
X001989Y024594D01*
X001989Y024752D02*
X002440Y024752D01*
X002600Y024752D02*
X002600Y024752D01*
X002600Y024911D02*
X002600Y024911D01*
X002600Y025069D02*
X002600Y025069D01*
X002600Y025160D02*
X002600Y025598D01*
X002600Y025160D01*
X002600Y025160D01*
X002600Y025228D02*
X002600Y025228D01*
X002600Y025386D02*
X002600Y025386D01*
X002600Y025545D02*
X002600Y025545D01*
X002391Y025545D02*
X000600Y025545D01*
X000600Y025703D02*
X003827Y025703D01*
X003842Y025545D02*
X002809Y025545D01*
X002976Y025386D02*
X003936Y025386D01*
X004038Y024911D02*
X002960Y024911D01*
X002760Y024752D02*
X003958Y024752D01*
X003978Y023801D02*
X002824Y023801D01*
X002376Y023801D02*
X000600Y023801D01*
X000600Y023643D02*
X003952Y023643D01*
X003992Y023484D02*
X000600Y023484D01*
X000600Y023326D02*
X004122Y023326D01*
X003931Y023167D02*
X000600Y023167D01*
X000600Y023009D02*
X003741Y023009D01*
X003683Y022850D02*
X000600Y022850D01*
X000600Y022692D02*
X003687Y022692D01*
X003762Y022533D02*
X000600Y022533D01*
X000600Y022375D02*
X004000Y022375D01*
X004066Y020848D02*
X003998Y020837D01*
X003932Y020816D01*
X003871Y020784D01*
X003815Y020744D01*
X003766Y020695D01*
X003726Y020639D01*
X003695Y020578D01*
X003673Y020513D01*
X003663Y020445D01*
X003663Y020410D01*
X003663Y020376D01*
X003673Y020308D01*
X003695Y020242D01*
X003726Y020181D01*
X003766Y020125D01*
X003815Y020077D01*
X003871Y020036D01*
X003932Y020005D01*
X003998Y019983D01*
X004066Y019973D01*
X004100Y019973D01*
X004134Y019973D01*
X004202Y019983D01*
X004268Y020005D01*
X004329Y020036D01*
X004385Y020077D01*
X004434Y020125D01*
X004474Y020181D01*
X004505Y020242D01*
X004527Y020308D01*
X004537Y020376D01*
X004537Y020410D01*
X004100Y020410D01*
X004100Y019973D01*
X004100Y020410D01*
X004100Y020410D01*
X004100Y020410D01*
X003663Y020410D01*
X004100Y020410D01*
X004100Y020410D01*
X004537Y020410D01*
X004537Y020445D01*
X004527Y020513D01*
X004505Y020578D01*
X004474Y020639D01*
X004434Y020695D01*
X004385Y020744D01*
X004329Y020784D01*
X004268Y020816D01*
X004202Y020837D01*
X004134Y020848D01*
X004100Y020848D01*
X004066Y020848D01*
X004100Y020848D02*
X004100Y020410D01*
X004100Y020410D01*
X004100Y020848D01*
X004100Y020790D02*
X004100Y020790D01*
X004100Y020631D02*
X004100Y020631D01*
X004100Y020473D02*
X004100Y020473D01*
X004100Y020314D02*
X004100Y020314D01*
X004100Y020156D02*
X004100Y020156D01*
X004100Y019997D02*
X004100Y019997D01*
X004245Y019997D02*
X004499Y019997D01*
X004500Y019997D02*
X004388Y019886D01*
X004327Y019739D01*
X004327Y019581D01*
X004344Y019542D01*
X004304Y019558D01*
X004146Y019558D01*
X004000Y019497D01*
X003888Y019386D01*
X003827Y019239D01*
X003827Y019081D01*
X003888Y018935D01*
X004000Y018823D01*
X004146Y018762D01*
X004304Y018762D01*
X004450Y018823D01*
X004562Y018935D01*
X004623Y019081D01*
X004623Y019239D01*
X004606Y019279D01*
X004646Y019262D01*
X004804Y019262D01*
X004844Y019279D01*
X004827Y019239D01*
X004827Y019081D01*
X004888Y018935D01*
X005000Y018823D01*
X005146Y018762D01*
X005304Y018762D01*
X005450Y018823D01*
X005562Y018935D01*
X005623Y019081D01*
X005623Y019239D01*
X005562Y019386D01*
X005450Y019497D01*
X005304Y019558D01*
X005146Y019558D01*
X005106Y019542D01*
X005123Y019581D01*
X005123Y019739D01*
X005062Y019886D01*
X004950Y019997D01*
X004804Y020058D01*
X004646Y020058D01*
X004500Y019997D01*
X004456Y020156D02*
X005764Y020156D01*
X005746Y020174D02*
X005864Y020056D01*
X006017Y019993D01*
X006183Y019993D01*
X006336Y020056D01*
X006454Y020174D01*
X006517Y020327D01*
X006517Y020493D01*
X006454Y020647D01*
X006336Y020764D01*
X006183Y020828D01*
X006017Y020828D01*
X005864Y020764D01*
X005746Y020647D01*
X005683Y020493D01*
X005683Y020327D01*
X005746Y020174D01*
X005688Y020314D02*
X004528Y020314D01*
X004533Y020473D02*
X005683Y020473D01*
X005740Y020631D02*
X004478Y020631D01*
X004319Y020790D02*
X005925Y020790D01*
X006006Y019997D02*
X004951Y019997D01*
X005082Y019839D02*
X007711Y019839D01*
X007711Y019740D02*
X007804Y019646D01*
X008646Y019646D01*
X008739Y019740D01*
X008739Y020581D01*
X008646Y020675D01*
X007804Y020675D01*
X007711Y020581D01*
X007711Y019740D01*
X007770Y019680D02*
X006987Y019680D01*
X006933Y019703D02*
X006767Y019703D01*
X006614Y019639D01*
X006496Y019522D01*
X006469Y019522D01*
X006474Y019514D02*
X006434Y019570D01*
X006385Y019619D01*
X006329Y019659D01*
X006268Y019691D01*
X006202Y019712D01*
X006134Y019723D01*
X006100Y019723D01*
X006066Y019723D01*
X005998Y019712D01*
X005932Y019691D01*
X005871Y019659D01*
X005815Y019619D01*
X005766Y019570D01*
X005726Y019514D01*
X005695Y019453D01*
X005673Y019388D01*
X005663Y019320D01*
X005663Y019285D01*
X005663Y019251D01*
X005673Y019183D01*
X005695Y019117D01*
X005726Y019056D01*
X005766Y019000D01*
X005815Y018952D01*
X005871Y018911D01*
X005932Y018880D01*
X005998Y018858D01*
X006066Y018848D01*
X006100Y018848D01*
X006134Y018848D01*
X006202Y018858D01*
X006268Y018880D01*
X006329Y018911D01*
X006385Y018952D01*
X006434Y019000D01*
X006474Y019056D01*
X006485Y019076D01*
X006496Y019049D01*
X006614Y018931D01*
X006767Y018868D01*
X006933Y018868D01*
X007086Y018931D01*
X007204Y019049D01*
X007267Y019202D01*
X007267Y019368D01*
X007204Y019522D01*
X009600Y019522D01*
X009600Y019680D02*
X008680Y019680D01*
X008739Y019839D02*
X009600Y019839D01*
X009600Y019997D02*
X008739Y019997D01*
X008739Y020156D02*
X009600Y020156D01*
X009600Y020314D02*
X008739Y020314D01*
X008739Y020473D02*
X009600Y020473D01*
X009600Y020631D02*
X008689Y020631D01*
X008646Y021646D02*
X008739Y021740D01*
X008739Y022581D01*
X008646Y022675D01*
X007804Y022675D01*
X007711Y022581D01*
X007711Y021740D01*
X007804Y021646D01*
X008646Y021646D01*
X008739Y021741D02*
X009600Y021741D01*
X009600Y021899D02*
X008739Y021899D01*
X008739Y022058D02*
X009600Y022058D01*
X009600Y022216D02*
X008739Y022216D01*
X008739Y022375D02*
X009600Y022375D01*
X009600Y022533D02*
X008739Y022533D01*
X009600Y021582D02*
X000600Y021582D01*
X000600Y021424D02*
X009600Y021424D01*
X009600Y021265D02*
X000600Y021265D01*
X000600Y021107D02*
X009600Y021107D01*
X009600Y020948D02*
X000600Y020948D01*
X000600Y020790D02*
X003881Y020790D01*
X003722Y020631D02*
X000600Y020631D01*
X000600Y020473D02*
X003667Y020473D01*
X003672Y020314D02*
X000600Y020314D01*
X000600Y020156D02*
X003744Y020156D01*
X003955Y019997D02*
X000600Y019997D01*
X000600Y019839D02*
X004368Y019839D01*
X004327Y019680D02*
X000600Y019680D01*
X000600Y019522D02*
X004058Y019522D01*
X003879Y019363D02*
X000600Y019363D01*
X000600Y019205D02*
X002475Y019205D01*
X002498Y019212D02*
X002432Y019191D01*
X002371Y019159D01*
X002315Y019119D01*
X002266Y019070D01*
X002226Y019014D01*
X002195Y018953D01*
X002173Y018888D01*
X000600Y018888D01*
X000600Y019046D02*
X002249Y019046D01*
X002173Y018888D02*
X002163Y018820D01*
X002163Y018785D01*
X002163Y018751D01*
X002173Y018683D01*
X002195Y018617D01*
X002226Y018556D01*
X002266Y018500D01*
X002315Y018452D01*
X002371Y018411D01*
X002432Y018380D01*
X002498Y018358D01*
X002566Y018348D01*
X002600Y018348D01*
X002634Y018348D01*
X002702Y018358D01*
X002768Y018380D01*
X002829Y018411D01*
X002885Y018452D01*
X002934Y018500D01*
X002974Y018556D01*
X003005Y018617D01*
X003027Y018683D01*
X003037Y018751D01*
X003037Y018785D01*
X002600Y018785D01*
X002600Y018348D01*
X002600Y018785D01*
X002600Y018785D01*
X002163Y018785D01*
X002600Y018785D01*
X002600Y018785D01*
X002600Y018785D01*
X003037Y018785D01*
X003037Y018820D01*
X003027Y018888D01*
X003935Y018888D01*
X003842Y019046D02*
X002951Y019046D01*
X002934Y019070D02*
X002885Y019119D01*
X002829Y019159D01*
X002768Y019191D01*
X002702Y019212D01*
X002634Y019223D01*
X002600Y019223D01*
X002566Y019223D01*
X002498Y019212D01*
X002600Y019205D02*
X002600Y019205D01*
X002600Y019223D02*
X002600Y018785D01*
X002600Y018785D01*
X002600Y019223D01*
X002600Y019046D02*
X002600Y019046D01*
X002600Y018888D02*
X002600Y018888D01*
X002600Y018729D02*
X002600Y018729D01*
X002600Y018571D02*
X002600Y018571D01*
X002600Y018412D02*
X002600Y018412D01*
X002683Y018203D02*
X002517Y018203D01*
X002364Y018139D01*
X002246Y018022D01*
X002183Y017868D01*
X002183Y017702D01*
X002246Y017549D01*
X002364Y017431D01*
X002517Y017368D01*
X002683Y017368D01*
X002836Y017431D01*
X002954Y017549D01*
X003017Y017702D01*
X003017Y017868D01*
X002954Y018022D01*
X002836Y018139D01*
X002683Y018203D01*
X002880Y018095D02*
X003952Y018095D01*
X003952Y018081D02*
X004013Y017935D01*
X004125Y017823D01*
X004271Y017762D01*
X004429Y017762D01*
X004469Y017779D01*
X004452Y017739D01*
X004452Y017581D01*
X004469Y017542D01*
X004429Y017558D01*
X004271Y017558D01*
X004125Y017497D01*
X004013Y017386D01*
X003952Y017239D01*
X003952Y017081D01*
X004013Y016935D01*
X004125Y016823D01*
X004271Y016762D01*
X004429Y016762D01*
X004575Y016823D01*
X004687Y016935D01*
X004748Y017081D01*
X004748Y017239D01*
X004731Y017279D01*
X004771Y017262D01*
X004929Y017262D01*
X005075Y017323D01*
X005187Y017435D01*
X005248Y017581D01*
X005248Y017739D01*
X005187Y017886D01*
X005075Y017997D01*
X004929Y018058D01*
X004771Y018058D01*
X004731Y018042D01*
X004748Y018081D01*
X004748Y018239D01*
X004687Y018386D01*
X004575Y018497D01*
X004429Y018558D01*
X004271Y018558D01*
X004125Y018497D01*
X004013Y018386D01*
X003952Y018239D01*
X003952Y018081D01*
X004012Y017937D02*
X002989Y017937D01*
X003017Y017778D02*
X004233Y017778D01*
X004088Y017461D02*
X002866Y017461D01*
X002983Y017620D02*
X004452Y017620D01*
X004467Y017778D02*
X004468Y017778D01*
X004661Y018412D02*
X008785Y018412D01*
X008739Y018431D02*
X008892Y018368D01*
X009058Y018368D01*
X009211Y018431D01*
X009329Y018549D01*
X009392Y018702D01*
X009392Y018868D01*
X009329Y019022D01*
X009211Y019139D01*
X009058Y019203D01*
X008892Y019203D01*
X008739Y019139D01*
X008621Y019022D01*
X008558Y018868D01*
X008558Y018702D01*
X008621Y018549D01*
X008739Y018431D01*
X008612Y018571D02*
X002982Y018571D01*
X003034Y018729D02*
X008558Y018729D01*
X008566Y018888D02*
X006981Y018888D01*
X006719Y018888D02*
X006284Y018888D01*
X006100Y018888D02*
X006100Y018888D01*
X006100Y018848D02*
X006100Y019285D01*
X006100Y019285D01*
X006100Y018848D01*
X006100Y019046D02*
X006100Y019046D01*
X006100Y019205D02*
X006100Y019205D01*
X006100Y019285D02*
X005663Y019285D01*
X006100Y019285D01*
X006100Y019285D01*
X006100Y019723D01*
X006100Y019285D01*
X006100Y019285D01*
X006100Y019363D02*
X006100Y019363D01*
X006100Y019522D02*
X006100Y019522D01*
X006100Y019680D02*
X006100Y019680D01*
X006194Y019997D02*
X007711Y019997D01*
X007711Y020156D02*
X006436Y020156D01*
X006512Y020314D02*
X007711Y020314D01*
X007711Y020473D02*
X006517Y020473D01*
X006460Y020631D02*
X007761Y020631D01*
X007711Y021741D02*
X000600Y021741D01*
X000600Y021899D02*
X007711Y021899D01*
X007711Y022058D02*
X000600Y022058D01*
X000600Y022216D02*
X007711Y022216D01*
X007243Y023643D02*
X009600Y023643D01*
X009600Y023801D02*
X007267Y023801D01*
X006275Y020790D02*
X009600Y020790D01*
X009600Y019363D02*
X007267Y019363D01*
X007267Y019205D02*
X009600Y019205D01*
X009600Y019046D02*
X009304Y019046D01*
X009384Y018888D02*
X009600Y018888D01*
X009600Y018729D02*
X009392Y018729D01*
X009338Y018571D02*
X009600Y018571D01*
X009600Y018412D02*
X009165Y018412D01*
X009077Y018212D02*
X009009Y018223D01*
X008975Y018223D01*
X008941Y018223D01*
X008873Y018212D01*
X008807Y018191D01*
X008746Y018159D01*
X008690Y018119D01*
X008641Y018070D01*
X008601Y018014D01*
X008570Y017953D01*
X008548Y017888D01*
X008538Y017820D01*
X008538Y017785D01*
X008538Y017751D01*
X008548Y017683D01*
X008570Y017617D01*
X008601Y017556D01*
X008641Y017500D01*
X008690Y017452D01*
X008746Y017411D01*
X008807Y017380D01*
X008873Y017358D01*
X008941Y017348D01*
X008975Y017348D01*
X009009Y017348D01*
X009077Y017358D01*
X009143Y017380D01*
X009204Y017411D01*
X009260Y017452D01*
X009309Y017500D01*
X009349Y017556D01*
X009380Y017617D01*
X009402Y017683D01*
X009412Y017751D01*
X009412Y017785D01*
X008975Y017785D01*
X008975Y017348D01*
X008975Y017785D01*
X008975Y017785D01*
X008538Y017785D01*
X008975Y017785D01*
X008975Y017785D01*
X008975Y017785D01*
X009412Y017785D01*
X009412Y017820D01*
X009402Y017888D01*
X009380Y017953D01*
X009349Y018014D01*
X009309Y018070D01*
X009260Y018119D01*
X009204Y018159D01*
X009143Y018191D01*
X009077Y018212D01*
X008975Y018223D02*
X008975Y017785D01*
X008975Y018223D01*
X008975Y018095D02*
X008975Y018095D01*
X008975Y017937D02*
X008975Y017937D01*
X008975Y017785D02*
X008975Y017785D01*
X008975Y017778D02*
X008975Y017778D01*
X008975Y017620D02*
X008975Y017620D01*
X008975Y017461D02*
X008975Y017461D01*
X008646Y016925D02*
X008739Y016831D01*
X008739Y015990D01*
X008646Y015896D01*
X007804Y015896D01*
X007711Y015990D01*
X007711Y016831D01*
X007804Y016925D01*
X008646Y016925D01*
X008739Y016827D02*
X009600Y016827D01*
X009600Y016669D02*
X008739Y016669D01*
X008739Y016510D02*
X009600Y016510D01*
X009600Y016352D02*
X008739Y016352D01*
X008739Y016193D02*
X009600Y016193D01*
X009600Y016035D02*
X008739Y016035D01*
X008680Y017461D02*
X007229Y017461D01*
X007204Y017522D02*
X007267Y017368D01*
X007267Y017202D01*
X007204Y017049D01*
X007086Y016931D01*
X006933Y016868D01*
X006767Y016868D01*
X006614Y016931D01*
X006496Y017049D01*
X006475Y017100D01*
X006454Y017049D01*
X006336Y016931D01*
X006183Y016868D01*
X006017Y016868D01*
X005864Y016931D01*
X005746Y017049D01*
X005683Y017202D01*
X005683Y017368D01*
X005746Y017522D01*
X005864Y017639D01*
X006017Y017703D01*
X006183Y017703D01*
X006336Y017639D01*
X006454Y017522D01*
X006475Y017471D01*
X006496Y017522D01*
X006614Y017639D01*
X006767Y017703D01*
X006933Y017703D01*
X007086Y017639D01*
X007204Y017522D01*
X007106Y017620D02*
X008569Y017620D01*
X008538Y017778D02*
X005232Y017778D01*
X005248Y017620D02*
X005844Y017620D01*
X005721Y017461D02*
X005198Y017461D01*
X005136Y017937D02*
X008564Y017937D01*
X008666Y018095D02*
X004748Y018095D01*
X004742Y018254D02*
X009600Y018254D01*
X009600Y018095D02*
X009284Y018095D01*
X009386Y017937D02*
X009600Y017937D01*
X009600Y017778D02*
X009412Y017778D01*
X009381Y017620D02*
X009600Y017620D01*
X009600Y017461D02*
X009270Y017461D01*
X009600Y017303D02*
X007267Y017303D01*
X007243Y017144D02*
X009600Y017144D01*
X009600Y016986D02*
X007141Y016986D01*
X007711Y016827D02*
X004580Y016827D01*
X004708Y016986D02*
X005809Y016986D01*
X005707Y017144D02*
X004748Y017144D01*
X005026Y017303D02*
X005683Y017303D01*
X005935Y016669D02*
X004265Y016669D01*
X004336Y016639D02*
X004183Y016703D01*
X004017Y016703D01*
X003864Y016639D01*
X003746Y016522D01*
X003683Y016368D01*
X003683Y016202D01*
X003746Y016049D01*
X003864Y015931D01*
X004017Y015868D01*
X004183Y015868D01*
X004336Y015931D01*
X004454Y016049D01*
X004517Y016202D01*
X004517Y016368D01*
X004454Y016522D01*
X004336Y016639D01*
X004459Y016510D02*
X005741Y016510D01*
X005746Y016522D02*
X005683Y016368D01*
X005683Y016202D01*
X005746Y016049D01*
X005864Y015931D01*
X006017Y015868D01*
X006183Y015868D01*
X006336Y015931D01*
X006454Y016049D01*
X006517Y016202D01*
X006517Y016368D01*
X006454Y016522D01*
X006336Y016639D01*
X006183Y016703D01*
X006017Y016703D01*
X005864Y016639D01*
X005746Y016522D01*
X005683Y016352D02*
X004517Y016352D01*
X004514Y016193D02*
X005686Y016193D01*
X005760Y016035D02*
X004440Y016035D01*
X004204Y015876D02*
X005996Y015876D01*
X006204Y015876D02*
X009600Y015876D01*
X009600Y015718D02*
X000600Y015718D01*
X000600Y015876D02*
X003996Y015876D01*
X003935Y016669D02*
X000600Y016669D01*
X000600Y016827D02*
X004120Y016827D01*
X003992Y016986D02*
X000600Y016986D01*
X000600Y017144D02*
X003952Y017144D01*
X003978Y017303D02*
X000600Y017303D01*
X000600Y017461D02*
X002334Y017461D01*
X002217Y017620D02*
X000600Y017620D01*
X000600Y017778D02*
X001047Y017778D01*
X001054Y017771D02*
X000961Y017865D01*
X000961Y018706D01*
X001054Y018800D01*
X001896Y018800D01*
X001989Y018706D01*
X001989Y017865D01*
X001896Y017771D01*
X001054Y017771D01*
X000961Y017937D02*
X000600Y017937D01*
X000600Y018095D02*
X000961Y018095D01*
X000961Y018254D02*
X000600Y018254D01*
X000600Y018412D02*
X000961Y018412D01*
X000961Y018571D02*
X000600Y018571D01*
X000600Y018729D02*
X000984Y018729D01*
X000600Y016510D02*
X003741Y016510D01*
X003683Y016352D02*
X000600Y016352D01*
X000600Y016193D02*
X003686Y016193D01*
X003760Y016035D02*
X000600Y016035D01*
X000600Y015559D02*
X009600Y015559D01*
X009600Y015401D02*
X000600Y015401D01*
X000600Y015242D02*
X009600Y015242D01*
X009600Y015084D02*
X000600Y015084D01*
X000600Y014925D02*
X009600Y014925D01*
X009600Y014767D02*
X000600Y014767D01*
X000600Y014608D02*
X009600Y014608D01*
X009600Y014450D02*
X000600Y014450D01*
X000600Y014291D02*
X003884Y014291D01*
X003871Y014284D02*
X003932Y014316D01*
X003998Y014337D01*
X004066Y014348D01*
X004100Y014348D01*
X004134Y014348D01*
X004202Y014337D01*
X004268Y014316D01*
X004329Y014284D01*
X004385Y014244D01*
X004434Y014195D01*
X004474Y014139D01*
X004505Y014078D01*
X004527Y014013D01*
X004537Y013945D01*
X004537Y013910D01*
X004100Y013910D01*
X004100Y013473D01*
X004134Y013473D01*
X004202Y013483D01*
X004268Y013505D01*
X004329Y013536D01*
X004385Y013577D01*
X004434Y013625D01*
X004474Y013681D01*
X004505Y013742D01*
X004527Y013808D01*
X004537Y013876D01*
X004537Y013910D01*
X004100Y013910D01*
X004100Y013910D01*
X004100Y013473D01*
X004066Y013473D01*
X003998Y013483D01*
X003932Y013505D01*
X003871Y013536D01*
X003815Y013577D01*
X003766Y013625D01*
X003726Y013681D01*
X003695Y013742D01*
X003673Y013808D01*
X003663Y013876D01*
X003663Y013910D01*
X004100Y013910D01*
X004100Y013910D01*
X004100Y013910D01*
X003663Y013910D01*
X003663Y013945D01*
X003673Y014013D01*
X003695Y014078D01*
X003726Y014139D01*
X003766Y014195D01*
X003815Y014244D01*
X003871Y014284D01*
X003722Y014133D02*
X000600Y014133D01*
X000600Y013974D02*
X003667Y013974D01*
X003672Y013816D02*
X000600Y013816D01*
X000600Y013657D02*
X003743Y013657D01*
X003951Y013499D02*
X000600Y013499D01*
X000600Y013340D02*
X004369Y013340D01*
X004388Y013386D02*
X004327Y013239D01*
X004327Y013081D01*
X004344Y013042D01*
X004304Y013058D01*
X004146Y013058D01*
X004000Y012997D01*
X003888Y012886D01*
X003827Y012739D01*
X003827Y012581D01*
X003888Y012435D01*
X004000Y012323D01*
X004146Y012262D01*
X004304Y012262D01*
X004450Y012323D01*
X004562Y012435D01*
X004623Y012581D01*
X004623Y012739D01*
X004606Y012779D01*
X004646Y012762D01*
X004804Y012762D01*
X004844Y012779D01*
X004827Y012739D01*
X004827Y012581D01*
X004888Y012435D01*
X005000Y012323D01*
X005146Y012262D01*
X005304Y012262D01*
X005450Y012323D01*
X005562Y012435D01*
X005623Y012581D01*
X005623Y012739D01*
X005562Y012886D01*
X005450Y012997D01*
X005304Y013058D01*
X005146Y013058D01*
X005106Y013042D01*
X005123Y013081D01*
X005123Y013239D01*
X005062Y013386D01*
X004950Y013497D01*
X004804Y013558D01*
X004646Y013558D01*
X004500Y013497D01*
X004388Y013386D01*
X004503Y013499D02*
X004249Y013499D01*
X004100Y013499D02*
X004100Y013499D01*
X004100Y013657D02*
X004100Y013657D01*
X004100Y013816D02*
X004100Y013816D01*
X004100Y013910D02*
X004100Y014348D01*
X004100Y013910D01*
X004100Y013910D01*
X004100Y013974D02*
X004100Y013974D01*
X004100Y014133D02*
X004100Y014133D01*
X004100Y014291D02*
X004100Y014291D01*
X004316Y014291D02*
X005929Y014291D01*
X005864Y014264D02*
X005746Y014147D01*
X005683Y013993D01*
X005683Y013827D01*
X005746Y013674D01*
X005864Y013556D01*
X006017Y013493D01*
X006183Y013493D01*
X006336Y013556D01*
X006454Y013674D01*
X006517Y013827D01*
X006517Y013993D01*
X006454Y014147D01*
X006336Y014264D01*
X006183Y014328D01*
X006017Y014328D01*
X005864Y014264D01*
X005740Y014133D02*
X004478Y014133D01*
X004533Y013974D02*
X005683Y013974D01*
X005687Y013816D02*
X004528Y013816D01*
X004457Y013657D02*
X005763Y013657D01*
X005932Y013191D02*
X005871Y013159D01*
X005815Y013119D01*
X005766Y013070D01*
X005726Y013014D01*
X005695Y012953D01*
X005673Y012888D01*
X005663Y012820D01*
X005663Y012785D01*
X005663Y012751D01*
X005673Y012683D01*
X005695Y012617D01*
X005726Y012556D01*
X005766Y012500D01*
X005815Y012452D01*
X005871Y012411D01*
X005932Y012380D01*
X005998Y012358D01*
X006066Y012348D01*
X006100Y012348D01*
X006134Y012348D01*
X006202Y012358D01*
X006268Y012380D01*
X006329Y012411D01*
X006385Y012452D01*
X006434Y012500D01*
X006474Y012556D01*
X006485Y012576D01*
X006496Y012549D01*
X006614Y012431D01*
X006767Y012368D01*
X006933Y012368D01*
X007086Y012431D01*
X007204Y012549D01*
X007267Y012702D01*
X007267Y012868D01*
X007204Y013022D01*
X007086Y013139D01*
X006933Y013203D01*
X006767Y013203D01*
X006614Y013139D01*
X006496Y013022D01*
X006485Y012994D01*
X006474Y013014D01*
X006434Y013070D01*
X006385Y013119D01*
X006329Y013159D01*
X006268Y013191D01*
X006202Y013212D01*
X006134Y013223D01*
X006100Y013223D01*
X006066Y013223D01*
X005998Y013212D01*
X005932Y013191D01*
X005915Y013182D02*
X005123Y013182D01*
X005081Y013340D02*
X007836Y013340D01*
X007836Y013240D02*
X007929Y013146D01*
X008771Y013146D01*
X008864Y013240D01*
X008864Y014081D01*
X008771Y014175D01*
X007929Y014175D01*
X007836Y014081D01*
X007836Y013240D01*
X007894Y013182D02*
X006984Y013182D01*
X006716Y013182D02*
X006285Y013182D01*
X006468Y013023D02*
X006498Y013023D01*
X006468Y012548D02*
X006497Y012548D01*
X006286Y012389D02*
X006715Y012389D01*
X006985Y012389D02*
X008566Y012389D01*
X008558Y012368D02*
X008558Y012202D01*
X008621Y012049D01*
X008739Y011931D01*
X008892Y011868D01*
X009058Y011868D01*
X009211Y011931D01*
X009329Y012049D01*
X009392Y012202D01*
X009392Y012368D01*
X009329Y012522D01*
X009211Y012639D01*
X009058Y012703D01*
X008892Y012703D01*
X008739Y012639D01*
X008621Y012522D01*
X008558Y012368D01*
X008558Y012231D02*
X003032Y012231D01*
X003027Y012263D02*
X003005Y012328D01*
X002974Y012389D01*
X003933Y012389D01*
X003841Y012548D02*
X002803Y012548D01*
X002829Y012534D02*
X002768Y012566D01*
X002702Y012587D01*
X002634Y012598D01*
X002600Y012598D01*
X002566Y012598D01*
X002498Y012587D01*
X002432Y012566D01*
X002371Y012534D01*
X002315Y012494D01*
X002266Y012445D01*
X002226Y012389D01*
X000600Y012389D01*
X000600Y012231D02*
X002168Y012231D01*
X002173Y012263D02*
X002163Y012195D01*
X002163Y012160D01*
X002163Y012126D01*
X002173Y012058D01*
X002195Y011992D01*
X002226Y011931D01*
X002266Y011875D01*
X002315Y011827D01*
X002371Y011786D01*
X002432Y011755D01*
X002498Y011733D01*
X002566Y011723D01*
X002600Y011723D01*
X002634Y011723D01*
X002702Y011733D01*
X002768Y011755D01*
X002829Y011786D01*
X002885Y011827D01*
X002934Y011875D01*
X002974Y011931D01*
X003005Y011992D01*
X003027Y012058D01*
X003037Y012126D01*
X003037Y012160D01*
X002600Y012160D01*
X002600Y011723D01*
X002600Y012160D01*
X002600Y012160D01*
X002163Y012160D01*
X002600Y012160D01*
X002600Y012160D01*
X002600Y012160D01*
X003037Y012160D01*
X003037Y012195D01*
X003027Y012263D01*
X002974Y012389D02*
X002934Y012445D01*
X002885Y012494D01*
X002829Y012534D01*
X003029Y012072D02*
X008611Y012072D01*
X008781Y011914D02*
X004659Y011914D01*
X004687Y011886D02*
X004575Y011997D01*
X004429Y012058D01*
X004271Y012058D01*
X004125Y011997D01*
X004013Y011886D01*
X003952Y011739D01*
X003952Y011581D01*
X004013Y011435D01*
X004125Y011323D01*
X004271Y011262D01*
X004429Y011262D01*
X004469Y011279D01*
X004452Y011239D01*
X004452Y011081D01*
X004469Y011042D01*
X004429Y011058D01*
X004271Y011058D01*
X004125Y010997D01*
X004013Y010886D01*
X003952Y010739D01*
X003952Y010581D01*
X004013Y010435D01*
X004125Y010323D01*
X004271Y010262D01*
X004429Y010262D01*
X004575Y010323D01*
X004687Y010435D01*
X004748Y010581D01*
X004748Y010739D01*
X004731Y010779D01*
X004771Y010762D01*
X004929Y010762D01*
X005075Y010823D01*
X005187Y010935D01*
X005248Y011081D01*
X005248Y011239D01*
X005187Y011386D01*
X005075Y011497D01*
X004929Y011558D01*
X004771Y011558D01*
X004731Y011542D01*
X004748Y011581D01*
X004748Y011739D01*
X004687Y011886D01*
X004741Y011755D02*
X009600Y011755D01*
X009600Y011597D02*
X009282Y011597D01*
X009260Y011619D02*
X009204Y011659D01*
X009143Y011691D01*
X009077Y011712D01*
X009009Y011723D01*
X008975Y011723D01*
X008941Y011723D01*
X008873Y011712D01*
X008807Y011691D01*
X008746Y011659D01*
X008690Y011619D01*
X008641Y011570D01*
X008601Y011514D01*
X008570Y011453D01*
X008548Y011388D01*
X008538Y011320D01*
X008538Y011285D01*
X008538Y011251D01*
X008548Y011183D01*
X008570Y011117D01*
X008601Y011056D01*
X008641Y011000D01*
X008690Y010952D01*
X008746Y010911D01*
X008807Y010880D01*
X008873Y010858D01*
X008941Y010848D01*
X008975Y010848D01*
X009009Y010848D01*
X009077Y010858D01*
X009143Y010880D01*
X009204Y010911D01*
X009260Y010952D01*
X009309Y011000D01*
X009349Y011056D01*
X009380Y011117D01*
X009402Y011183D01*
X009412Y011251D01*
X009412Y011285D01*
X008975Y011285D01*
X008975Y010848D01*
X008975Y011285D01*
X008975Y011285D01*
X008538Y011285D01*
X008975Y011285D01*
X008975Y011285D01*
X008975Y011285D01*
X009412Y011285D01*
X009412Y011320D01*
X009402Y011388D01*
X009380Y011453D01*
X009349Y011514D01*
X009309Y011570D01*
X009260Y011619D01*
X009385Y011438D02*
X009600Y011438D01*
X009600Y011280D02*
X009412Y011280D01*
X009382Y011121D02*
X009600Y011121D01*
X009600Y010963D02*
X009271Y010963D01*
X008975Y010963D02*
X008975Y010963D01*
X008975Y011121D02*
X008975Y011121D01*
X008975Y011280D02*
X008975Y011280D01*
X008975Y011285D02*
X008975Y011723D01*
X008975Y011285D01*
X008975Y011285D01*
X008975Y011438D02*
X008975Y011438D01*
X008975Y011597D02*
X008975Y011597D01*
X009169Y011914D02*
X009600Y011914D01*
X009600Y012072D02*
X009339Y012072D01*
X009392Y012231D02*
X009600Y012231D01*
X009600Y012389D02*
X009384Y012389D01*
X009303Y012548D02*
X009600Y012548D01*
X009600Y012706D02*
X007267Y012706D01*
X007267Y012865D02*
X009600Y012865D01*
X009600Y013023D02*
X007202Y013023D01*
X007203Y012548D02*
X008647Y012548D01*
X008806Y013182D02*
X009600Y013182D01*
X009600Y013340D02*
X008864Y013340D01*
X008864Y013499D02*
X009600Y013499D01*
X009600Y013657D02*
X008864Y013657D01*
X008864Y013816D02*
X009600Y013816D01*
X009600Y013974D02*
X008864Y013974D01*
X008812Y014133D02*
X009600Y014133D01*
X009600Y014291D02*
X006271Y014291D01*
X006460Y014133D02*
X007888Y014133D01*
X007836Y013974D02*
X006517Y013974D01*
X006513Y013816D02*
X007836Y013816D01*
X007836Y013657D02*
X006437Y013657D01*
X006198Y013499D02*
X007836Y013499D01*
X008565Y011438D02*
X005135Y011438D01*
X005231Y011280D02*
X008538Y011280D01*
X008568Y011121D02*
X007104Y011121D01*
X007086Y011139D02*
X006933Y011203D01*
X006767Y011203D01*
X006614Y011139D01*
X006496Y011022D01*
X006475Y010971D01*
X006454Y011022D01*
X006336Y011139D01*
X006183Y011203D01*
X006017Y011203D01*
X005864Y011139D01*
X005746Y011022D01*
X005683Y010868D01*
X005683Y010702D01*
X005746Y010549D01*
X005864Y010431D01*
X006017Y010368D01*
X006183Y010368D01*
X006336Y010431D01*
X006454Y010549D01*
X006475Y010600D01*
X006496Y010549D01*
X006614Y010431D01*
X006767Y010368D01*
X006933Y010368D01*
X007086Y010431D01*
X007204Y010549D01*
X007267Y010702D01*
X007267Y010868D01*
X007204Y011022D01*
X007086Y011139D01*
X007228Y010963D02*
X008679Y010963D01*
X008771Y010550D02*
X007929Y010550D01*
X007836Y010456D01*
X007836Y009615D01*
X007929Y009521D01*
X008771Y009521D01*
X008864Y009615D01*
X008864Y010456D01*
X008771Y010550D01*
X008833Y010487D02*
X009600Y010487D01*
X009600Y010329D02*
X008864Y010329D01*
X008864Y010170D02*
X009600Y010170D01*
X009600Y010012D02*
X008864Y010012D01*
X008864Y009853D02*
X009600Y009853D01*
X009600Y009695D02*
X008864Y009695D01*
X008786Y009536D02*
X009600Y009536D01*
X009600Y009378D02*
X006207Y009378D01*
X006183Y009368D02*
X006336Y009431D01*
X006454Y009549D01*
X006517Y009702D01*
X006517Y009868D01*
X006454Y010022D01*
X006336Y010139D01*
X006183Y010203D01*
X006017Y010203D01*
X005864Y010139D01*
X005746Y010022D01*
X005683Y009868D01*
X005683Y009702D01*
X005746Y009549D01*
X005864Y009431D01*
X006017Y009368D01*
X006183Y009368D01*
X005993Y009378D02*
X004207Y009378D01*
X004183Y009368D02*
X004336Y009431D01*
X004454Y009549D01*
X004517Y009702D01*
X004517Y009868D01*
X004454Y010022D01*
X004336Y010139D01*
X004183Y010203D01*
X004017Y010203D01*
X003864Y010139D01*
X003746Y010022D01*
X003683Y009868D01*
X003683Y009702D01*
X003746Y009549D01*
X003864Y009431D01*
X004017Y009368D01*
X004183Y009368D01*
X003993Y009378D02*
X002082Y009378D01*
X002058Y009368D02*
X002211Y009431D01*
X002329Y009549D01*
X002392Y009702D01*
X002392Y009868D01*
X002329Y010022D01*
X002211Y010139D01*
X002058Y010203D01*
X001892Y010203D01*
X001739Y010139D01*
X001621Y010022D01*
X001558Y009868D01*
X001558Y009702D01*
X001621Y009549D01*
X001739Y009431D01*
X001892Y009368D01*
X002058Y009368D01*
X001868Y009378D02*
X000600Y009378D01*
X000600Y009536D02*
X001634Y009536D01*
X001561Y009695D02*
X000600Y009695D01*
X000600Y009853D02*
X001558Y009853D01*
X001617Y010012D02*
X000600Y010012D01*
X000600Y010170D02*
X001814Y010170D01*
X002136Y010170D02*
X003939Y010170D01*
X003991Y010487D02*
X000600Y010487D01*
X000600Y010329D02*
X004119Y010329D01*
X004261Y010170D02*
X005939Y010170D01*
X005808Y010487D02*
X004709Y010487D01*
X004748Y010646D02*
X005706Y010646D01*
X005683Y010804D02*
X005030Y010804D01*
X005199Y010963D02*
X005722Y010963D01*
X005846Y011121D02*
X005248Y011121D01*
X005742Y010012D02*
X004458Y010012D01*
X004517Y009853D02*
X005683Y009853D01*
X005686Y009695D02*
X004514Y009695D01*
X004441Y009536D02*
X005759Y009536D01*
X006261Y010170D02*
X007836Y010170D01*
X007836Y010012D02*
X006458Y010012D01*
X006517Y009853D02*
X007836Y009853D01*
X007836Y009695D02*
X006514Y009695D01*
X006441Y009536D02*
X007914Y009536D01*
X007836Y010329D02*
X004581Y010329D01*
X004452Y011121D02*
X003017Y011121D01*
X003017Y011077D02*
X002954Y010924D01*
X002836Y010806D01*
X002683Y010743D01*
X002517Y010743D01*
X002364Y010806D01*
X002246Y010924D01*
X002183Y011077D01*
X002183Y011243D01*
X002246Y011397D01*
X002364Y011514D01*
X002517Y011578D01*
X002683Y011578D01*
X002836Y011514D01*
X002954Y011397D01*
X003017Y011243D01*
X003017Y011077D01*
X002970Y010963D02*
X004090Y010963D01*
X004229Y011280D02*
X003002Y011280D01*
X002912Y011438D02*
X004011Y011438D01*
X003952Y011597D02*
X001989Y011597D01*
X001989Y011755D02*
X002431Y011755D01*
X002600Y011755D02*
X002600Y011755D01*
X002600Y011914D02*
X002600Y011914D01*
X002600Y012072D02*
X002600Y012072D01*
X002600Y012160D02*
X002600Y012598D01*
X002600Y012160D01*
X002600Y012160D01*
X002600Y012231D02*
X002600Y012231D01*
X002600Y012389D02*
X002600Y012389D01*
X002600Y012548D02*
X002600Y012548D01*
X002397Y012548D02*
X000600Y012548D01*
X000600Y012706D02*
X003827Y012706D01*
X003879Y012865D02*
X000600Y012865D01*
X000600Y013023D02*
X004062Y013023D01*
X004327Y013182D02*
X000600Y013182D01*
X001054Y012175D02*
X000961Y012081D01*
X000961Y011240D01*
X001054Y011146D01*
X001896Y011146D01*
X001989Y011240D01*
X001989Y012081D01*
X001896Y012175D01*
X001054Y012175D01*
X000961Y012072D02*
X000600Y012072D01*
X000600Y011914D02*
X000961Y011914D01*
X000961Y011755D02*
X000600Y011755D01*
X000600Y011597D02*
X000961Y011597D01*
X000961Y011438D02*
X000600Y011438D01*
X000600Y011280D02*
X000961Y011280D01*
X000600Y011121D02*
X002183Y011121D01*
X002198Y011280D02*
X001989Y011280D01*
X001989Y011438D02*
X002288Y011438D01*
X002230Y010963D02*
X000600Y010963D01*
X000600Y010804D02*
X002368Y010804D01*
X002333Y010012D02*
X003742Y010012D01*
X003683Y009853D02*
X002392Y009853D01*
X002389Y009695D02*
X003686Y009695D01*
X003759Y009536D02*
X002316Y009536D01*
X002077Y008212D02*
X002009Y008223D01*
X001975Y008223D01*
X001941Y008223D01*
X001873Y008212D01*
X001807Y008191D01*
X001746Y008159D01*
X001690Y008119D01*
X001641Y008070D01*
X001601Y008014D01*
X001570Y007953D01*
X001548Y007888D01*
X001538Y007820D01*
X001538Y007785D01*
X001538Y007751D01*
X001548Y007683D01*
X001570Y007617D01*
X001601Y007556D01*
X001641Y007500D01*
X001690Y007452D01*
X001746Y007411D01*
X001807Y007380D01*
X001873Y007358D01*
X001941Y007348D01*
X001975Y007348D01*
X002009Y007348D01*
X002077Y007358D01*
X002143Y007380D01*
X002204Y007411D01*
X002260Y007452D01*
X002309Y007500D01*
X002349Y007556D01*
X002380Y007617D01*
X002402Y007683D01*
X002412Y007751D01*
X002412Y007785D01*
X001975Y007785D01*
X001975Y007348D01*
X001975Y007785D01*
X001975Y007785D01*
X001538Y007785D01*
X001975Y007785D01*
X001975Y007785D01*
X001975Y007785D01*
X002412Y007785D01*
X002412Y007820D01*
X002402Y007888D01*
X002380Y007953D01*
X002349Y008014D01*
X002309Y008070D01*
X002260Y008119D01*
X002204Y008159D01*
X002143Y008191D01*
X002077Y008212D01*
X001975Y008223D02*
X001975Y007785D01*
X001975Y008223D01*
X001975Y008110D02*
X001975Y008110D01*
X001975Y007951D02*
X001975Y007951D01*
X001975Y007793D02*
X001975Y007793D01*
X001975Y007785D02*
X001975Y007785D01*
X001975Y007634D02*
X001975Y007634D01*
X001975Y007476D02*
X001975Y007476D01*
X001681Y008110D02*
X000600Y008110D01*
X000600Y008268D02*
X009600Y008268D01*
X009600Y008110D02*
X002269Y008110D01*
X002381Y007951D02*
X009600Y007951D01*
X009600Y007793D02*
X006267Y007793D01*
X006336Y007764D02*
X006183Y007828D01*
X006017Y007828D01*
X005864Y007764D01*
X005746Y007647D01*
X005683Y007493D01*
X005683Y007327D01*
X005746Y007174D01*
X005864Y007056D01*
X006017Y006993D01*
X006183Y006993D01*
X006336Y007056D01*
X006454Y007174D01*
X006517Y007327D01*
X006517Y007493D01*
X006454Y007647D01*
X006336Y007764D01*
X006459Y007634D02*
X007764Y007634D01*
X007804Y007675D02*
X007711Y007581D01*
X007711Y006740D01*
X007804Y006646D01*
X008646Y006646D01*
X008739Y006740D01*
X008739Y007581D01*
X008646Y007675D01*
X007804Y007675D01*
X007711Y007476D02*
X006517Y007476D01*
X006513Y007317D02*
X007711Y007317D01*
X007711Y007159D02*
X006439Y007159D01*
X006201Y007000D02*
X007711Y007000D01*
X007711Y006842D02*
X005080Y006842D01*
X005062Y006886D02*
X004950Y006997D01*
X004804Y007058D01*
X004646Y007058D01*
X004500Y006997D01*
X004388Y006886D01*
X004327Y006739D01*
X004327Y006581D01*
X004344Y006542D01*
X004304Y006558D01*
X004146Y006558D01*
X004000Y006497D01*
X003888Y006386D01*
X003827Y006239D01*
X003827Y006081D01*
X003888Y005935D01*
X004000Y005823D01*
X004146Y005762D01*
X004304Y005762D01*
X004450Y005823D01*
X004562Y005935D01*
X004623Y006081D01*
X004623Y006239D01*
X004606Y006279D01*
X004646Y006262D01*
X004804Y006262D01*
X004844Y006279D01*
X004827Y006239D01*
X004827Y006081D01*
X004888Y005935D01*
X005000Y005823D01*
X005146Y005762D01*
X005304Y005762D01*
X005450Y005823D01*
X005562Y005935D01*
X005623Y006081D01*
X005623Y006239D01*
X005562Y006386D01*
X005450Y006497D01*
X005304Y006558D01*
X005146Y006558D01*
X005106Y006542D01*
X005123Y006581D01*
X005123Y006739D01*
X005062Y006886D01*
X004944Y007000D02*
X005999Y007000D01*
X006066Y006723D02*
X005998Y006712D01*
X005932Y006691D01*
X005871Y006659D01*
X005815Y006619D01*
X005766Y006570D01*
X005726Y006514D01*
X005695Y006453D01*
X005673Y006388D01*
X005663Y006320D01*
X005663Y006285D01*
X005663Y006251D01*
X005673Y006183D01*
X005695Y006117D01*
X005726Y006056D01*
X005766Y006000D01*
X005815Y005952D01*
X005871Y005911D01*
X005932Y005880D01*
X005998Y005858D01*
X006066Y005848D01*
X006100Y005848D01*
X006134Y005848D01*
X006202Y005858D01*
X006268Y005880D01*
X006329Y005911D01*
X006385Y005952D01*
X006434Y006000D01*
X006474Y006056D01*
X006485Y006076D01*
X006496Y006049D01*
X006469Y006049D01*
X006496Y006049D02*
X006614Y005931D01*
X006767Y005868D01*
X006933Y005868D01*
X007086Y005931D01*
X007204Y006049D01*
X008649Y006049D01*
X008621Y006022D02*
X008558Y005868D01*
X008558Y005702D01*
X008621Y005549D01*
X008739Y005431D01*
X008892Y005368D01*
X009058Y005368D01*
X009211Y005431D01*
X009329Y005549D01*
X009392Y005702D01*
X009392Y005868D01*
X009329Y006022D01*
X009211Y006139D01*
X009058Y006203D01*
X008892Y006203D01*
X008739Y006139D01*
X008621Y006022D01*
X008567Y005891D02*
X006989Y005891D01*
X007204Y006049D02*
X007267Y006202D01*
X007267Y006368D01*
X007204Y006522D01*
X007086Y006639D01*
X006933Y006703D01*
X006767Y006703D01*
X006614Y006639D01*
X006496Y006522D01*
X006485Y006494D01*
X006474Y006514D01*
X006434Y006570D01*
X006385Y006619D01*
X006329Y006659D01*
X006268Y006691D01*
X006202Y006712D01*
X006134Y006723D01*
X006100Y006723D01*
X006066Y006723D01*
X006100Y006723D02*
X006100Y006285D01*
X006100Y005848D01*
X006100Y006285D01*
X006100Y006285D01*
X005663Y006285D01*
X006100Y006285D01*
X006100Y006285D01*
X006100Y006285D01*
X006100Y006723D01*
X006100Y006683D02*
X006100Y006683D01*
X006100Y006525D02*
X006100Y006525D01*
X006100Y006366D02*
X006100Y006366D01*
X006100Y006208D02*
X006100Y006208D01*
X006100Y006049D02*
X006100Y006049D01*
X006100Y005891D02*
X006100Y005891D01*
X006289Y005891D02*
X006711Y005891D01*
X006499Y006525D02*
X006467Y006525D01*
X006282Y006683D02*
X006720Y006683D01*
X006980Y006683D02*
X007767Y006683D01*
X007267Y006366D02*
X009600Y006366D01*
X009600Y006208D02*
X007267Y006208D01*
X007201Y006525D02*
X009600Y006525D01*
X009600Y006683D02*
X008683Y006683D01*
X008739Y006842D02*
X009600Y006842D01*
X009600Y007000D02*
X008739Y007000D01*
X008739Y007159D02*
X009600Y007159D01*
X009600Y007317D02*
X008739Y007317D01*
X008739Y007476D02*
X009600Y007476D01*
X009600Y007634D02*
X008686Y007634D01*
X009301Y006049D02*
X009600Y006049D01*
X009600Y005891D02*
X009383Y005891D01*
X009392Y005732D02*
X009600Y005732D01*
X009600Y005574D02*
X009339Y005574D01*
X009204Y005159D02*
X009260Y005119D01*
X009309Y005070D01*
X009349Y005014D01*
X009380Y004953D01*
X009402Y004888D01*
X009412Y004820D01*
X009412Y004785D01*
X008975Y004785D01*
X008975Y004348D01*
X009009Y004348D01*
X009077Y004358D01*
X009143Y004380D01*
X009204Y004411D01*
X009260Y004452D01*
X009309Y004500D01*
X009349Y004556D01*
X009380Y004617D01*
X009402Y004683D01*
X009412Y004751D01*
X009412Y004785D01*
X008975Y004785D01*
X008975Y004785D01*
X008975Y004348D01*
X008941Y004348D01*
X008873Y004358D01*
X008807Y004380D01*
X008746Y004411D01*
X008690Y004452D01*
X008641Y004500D01*
X008601Y004556D01*
X008570Y004617D01*
X008548Y004683D01*
X008538Y004751D01*
X008538Y004785D01*
X008975Y004785D01*
X008975Y004785D01*
X008975Y004785D01*
X008538Y004785D01*
X008538Y004820D01*
X008548Y004888D01*
X008570Y004953D01*
X008601Y005014D01*
X008641Y005070D01*
X008690Y005119D01*
X008746Y005159D01*
X008807Y005191D01*
X008873Y005212D01*
X008941Y005223D01*
X008975Y005223D01*
X008975Y004785D01*
X008975Y004785D01*
X008975Y005223D01*
X009009Y005223D01*
X009077Y005212D01*
X009143Y005191D01*
X009204Y005159D01*
X009281Y005098D02*
X009600Y005098D01*
X009600Y004940D02*
X009385Y004940D01*
X009412Y004781D02*
X009600Y004781D01*
X009600Y004623D02*
X009382Y004623D01*
X009273Y004464D02*
X009600Y004464D01*
X009600Y004306D02*
X007267Y004306D01*
X007267Y004368D02*
X007267Y004202D01*
X007204Y004049D01*
X007086Y003931D01*
X006933Y003868D01*
X006767Y003868D01*
X006614Y003931D01*
X006496Y004049D01*
X006475Y004100D01*
X006454Y004049D01*
X006336Y003931D01*
X006183Y003868D01*
X006017Y003868D01*
X005864Y003931D01*
X005746Y004049D01*
X005683Y004202D01*
X005683Y004368D01*
X005746Y004522D01*
X005864Y004639D01*
X006017Y004703D01*
X006183Y004703D01*
X006336Y004639D01*
X006454Y004522D01*
X006475Y004471D01*
X006496Y004522D01*
X006614Y004639D01*
X006767Y004703D01*
X006933Y004703D01*
X007086Y004639D01*
X007204Y004522D01*
X007267Y004368D01*
X007228Y004464D02*
X008677Y004464D01*
X008568Y004623D02*
X007103Y004623D01*
X007245Y004147D02*
X009600Y004147D01*
X009600Y003989D02*
X008706Y003989D01*
X008739Y003956D02*
X008646Y004050D01*
X007804Y004050D01*
X007711Y003956D01*
X007711Y003115D01*
X007804Y003021D01*
X008646Y003021D01*
X008739Y003115D01*
X008739Y003956D01*
X008739Y003830D02*
X009600Y003830D01*
X009600Y003672D02*
X008739Y003672D01*
X008739Y003513D02*
X009600Y003513D01*
X009600Y003355D02*
X008739Y003355D01*
X008739Y003196D02*
X009600Y003196D01*
X009600Y003038D02*
X008662Y003038D01*
X008684Y002879D02*
X006211Y002879D01*
X006183Y002868D02*
X006336Y002931D01*
X006454Y003049D01*
X006517Y003202D01*
X006517Y003368D01*
X006454Y003522D01*
X006336Y003639D01*
X006183Y003703D01*
X006017Y003703D01*
X005864Y003639D01*
X005746Y003522D01*
X005683Y003368D01*
X005683Y003202D01*
X005746Y003049D01*
X005864Y002931D01*
X006017Y002868D01*
X006183Y002868D01*
X005989Y002879D02*
X004211Y002879D01*
X004183Y002868D02*
X004336Y002931D01*
X004454Y003049D01*
X004517Y003202D01*
X004517Y003368D01*
X004454Y003522D01*
X004336Y003639D01*
X004183Y003703D01*
X004017Y003703D01*
X003864Y003639D01*
X003746Y003522D01*
X003683Y003368D01*
X003683Y003202D01*
X003746Y003049D01*
X003864Y002931D01*
X004017Y002868D01*
X004183Y002868D01*
X003989Y002879D02*
X001891Y002879D01*
X002109Y002721D02*
X008466Y002721D01*
X008320Y002562D02*
X002255Y002562D01*
X002347Y002404D02*
X008228Y002404D01*
X007788Y003038D02*
X006443Y003038D01*
X006515Y003196D02*
X007711Y003196D01*
X007711Y003355D02*
X006517Y003355D01*
X006457Y003513D02*
X007711Y003513D01*
X007711Y003672D02*
X006258Y003672D01*
X006394Y003989D02*
X006556Y003989D01*
X006597Y004623D02*
X006353Y004623D01*
X005942Y003672D02*
X004258Y003672D01*
X004271Y003762D02*
X004125Y003823D01*
X004013Y003935D01*
X003952Y004081D01*
X003952Y004239D01*
X004013Y004386D01*
X004125Y004497D01*
X004271Y004558D01*
X004429Y004558D01*
X004469Y004542D01*
X004452Y004581D01*
X004452Y004739D01*
X004469Y004779D01*
X004429Y004762D01*
X004271Y004762D01*
X004125Y004823D01*
X004013Y004935D01*
X003952Y005081D01*
X003952Y005239D01*
X004013Y005386D01*
X004125Y005497D01*
X004271Y005558D01*
X004429Y005558D01*
X004575Y005497D01*
X004687Y005386D01*
X004748Y005239D01*
X004748Y005081D01*
X004731Y005042D01*
X004771Y005058D01*
X004929Y005058D01*
X005075Y004997D01*
X005187Y004886D01*
X005248Y004739D01*
X005248Y004581D01*
X005187Y004435D01*
X005075Y004323D01*
X004929Y004262D01*
X004771Y004262D01*
X004731Y004279D01*
X004748Y004239D01*
X004748Y004081D01*
X004687Y003935D01*
X004575Y003823D01*
X004429Y003762D01*
X004271Y003762D01*
X004117Y003830D02*
X000600Y003830D01*
X000600Y003672D02*
X003942Y003672D01*
X003990Y003989D02*
X000600Y003989D01*
X000600Y004147D02*
X003952Y004147D01*
X003980Y004306D02*
X002835Y004306D01*
X002836Y004306D02*
X002954Y004424D01*
X003017Y004577D01*
X003017Y004743D01*
X002954Y004897D01*
X002836Y005014D01*
X002683Y005078D01*
X002517Y005078D01*
X002364Y005014D01*
X002246Y004897D01*
X002183Y004743D01*
X002183Y004577D01*
X002246Y004424D01*
X002364Y004306D01*
X002517Y004243D01*
X002683Y004243D01*
X002836Y004306D01*
X002971Y004464D02*
X004091Y004464D01*
X004225Y004781D02*
X003002Y004781D01*
X003017Y004623D02*
X004452Y004623D01*
X004710Y003989D02*
X005806Y003989D01*
X005705Y004147D02*
X004748Y004147D01*
X004583Y003830D02*
X007711Y003830D01*
X007744Y003989D02*
X007144Y003989D01*
X005911Y005891D02*
X005518Y005891D01*
X005610Y006049D02*
X005731Y006049D01*
X005669Y006208D02*
X005623Y006208D01*
X005670Y006366D02*
X005570Y006366D01*
X005733Y006525D02*
X005384Y006525D01*
X005123Y006683D02*
X005918Y006683D01*
X005761Y007159D02*
X004458Y007159D01*
X004474Y007181D02*
X004505Y007242D01*
X004527Y007308D01*
X004537Y007376D01*
X004537Y007410D01*
X004100Y007410D01*
X004100Y006973D01*
X004134Y006973D01*
X004202Y006983D01*
X004268Y007005D01*
X004329Y007036D01*
X004385Y007077D01*
X004434Y007125D01*
X004474Y007181D01*
X004528Y007317D02*
X005687Y007317D01*
X005683Y007476D02*
X004533Y007476D01*
X004537Y007445D02*
X004527Y007513D01*
X004505Y007578D01*
X004474Y007639D01*
X004434Y007695D01*
X004385Y007744D01*
X004329Y007784D01*
X004268Y007816D01*
X004202Y007837D01*
X004134Y007848D01*
X004100Y007848D01*
X004066Y007848D01*
X003998Y007837D01*
X003932Y007816D01*
X003871Y007784D01*
X003815Y007744D01*
X003766Y007695D01*
X003726Y007639D01*
X003695Y007578D01*
X003673Y007513D01*
X003663Y007445D01*
X003663Y007410D01*
X003663Y007376D01*
X003673Y007308D01*
X003695Y007242D01*
X003726Y007181D01*
X003766Y007125D01*
X003815Y007077D01*
X003871Y007036D01*
X003932Y007005D01*
X003998Y006983D01*
X004066Y006973D01*
X004100Y006973D01*
X004100Y007410D01*
X004100Y007410D01*
X004100Y007410D01*
X003663Y007410D01*
X004100Y007410D01*
X004100Y007410D01*
X004537Y007410D01*
X004537Y007445D01*
X004477Y007634D02*
X005741Y007634D01*
X005933Y007793D02*
X004313Y007793D01*
X004100Y007793D02*
X004100Y007793D01*
X004100Y007848D02*
X004100Y007410D01*
X004100Y007410D01*
X004100Y007848D01*
X004100Y007634D02*
X004100Y007634D01*
X004100Y007476D02*
X004100Y007476D01*
X004100Y007317D02*
X004100Y007317D01*
X004100Y007159D02*
X004100Y007159D01*
X004100Y007000D02*
X004100Y007000D01*
X004254Y007000D02*
X004506Y007000D01*
X004370Y006842D02*
X000600Y006842D01*
X000600Y007000D02*
X003946Y007000D01*
X004066Y006525D02*
X000600Y006525D01*
X000600Y006683D02*
X004327Y006683D01*
X004623Y006208D02*
X004827Y006208D01*
X004840Y006049D02*
X004610Y006049D01*
X004518Y005891D02*
X004932Y005891D01*
X004741Y005257D02*
X009600Y005257D01*
X009600Y005415D02*
X009173Y005415D01*
X008975Y005098D02*
X008975Y005098D01*
X008975Y004940D02*
X008975Y004940D01*
X008975Y004781D02*
X008975Y004781D01*
X008975Y004623D02*
X008975Y004623D01*
X008975Y004464D02*
X008975Y004464D01*
X008669Y005098D02*
X004748Y005098D01*
X004658Y005415D02*
X008777Y005415D01*
X008611Y005574D02*
X003029Y005574D01*
X003027Y005558D02*
X003037Y005626D01*
X003037Y005660D01*
X002600Y005660D01*
X002600Y005223D01*
X002634Y005223D01*
X002702Y005233D01*
X002768Y005255D01*
X002829Y005286D01*
X002885Y005327D01*
X002934Y005375D01*
X002974Y005431D01*
X003005Y005492D01*
X003027Y005558D01*
X003037Y005660D02*
X003037Y005695D01*
X003027Y005763D01*
X003005Y005828D01*
X002974Y005889D01*
X002934Y005945D01*
X002885Y005994D01*
X002829Y006034D01*
X002768Y006066D01*
X002702Y006087D01*
X002634Y006098D01*
X002600Y006098D01*
X002566Y006098D01*
X002498Y006087D01*
X002432Y006066D01*
X002371Y006034D01*
X002315Y005994D01*
X002266Y005945D01*
X002226Y005889D01*
X002195Y005828D01*
X002173Y005763D01*
X002163Y005695D01*
X002163Y005660D01*
X002163Y005626D01*
X002173Y005558D01*
X002195Y005492D01*
X002226Y005431D01*
X002266Y005375D01*
X002315Y005327D01*
X002371Y005286D01*
X002432Y005255D01*
X002498Y005233D01*
X002566Y005223D01*
X002600Y005223D01*
X002600Y005660D01*
X002600Y005660D01*
X002163Y005660D01*
X002600Y005660D01*
X002600Y005660D01*
X002600Y005660D01*
X003037Y005660D01*
X003032Y005732D02*
X008558Y005732D01*
X008565Y004940D02*
X005133Y004940D01*
X005230Y004781D02*
X008538Y004781D01*
X009600Y008427D02*
X000600Y008427D01*
X000600Y008585D02*
X009600Y008585D01*
X009600Y008744D02*
X000600Y008744D01*
X000600Y008902D02*
X009600Y008902D01*
X009600Y009061D02*
X000600Y009061D01*
X000600Y009219D02*
X009600Y009219D01*
X009600Y010646D02*
X007244Y010646D01*
X007267Y010804D02*
X009600Y010804D01*
X008668Y011597D02*
X004748Y011597D01*
X004933Y012389D02*
X004517Y012389D01*
X004609Y012548D02*
X004841Y012548D01*
X004827Y012706D02*
X004623Y012706D01*
X004947Y013499D02*
X006002Y013499D01*
X006100Y013223D02*
X006100Y012785D01*
X006100Y012348D01*
X006100Y012785D01*
X006100Y012785D01*
X005663Y012785D01*
X006100Y012785D01*
X006100Y012785D01*
X006100Y012785D01*
X006100Y013223D01*
X006100Y013182D02*
X006100Y013182D01*
X006100Y013023D02*
X006100Y013023D01*
X006100Y012865D02*
X006100Y012865D01*
X006100Y012706D02*
X006100Y012706D01*
X006100Y012548D02*
X006100Y012548D01*
X006100Y012389D02*
X006100Y012389D01*
X005914Y012389D02*
X005517Y012389D01*
X005609Y012548D02*
X005732Y012548D01*
X005670Y012706D02*
X005623Y012706D01*
X005670Y012865D02*
X005571Y012865D01*
X005732Y013023D02*
X005388Y013023D01*
X006354Y011121D02*
X006596Y011121D01*
X006558Y010487D02*
X006392Y010487D01*
X007142Y010487D02*
X007867Y010487D01*
X007711Y016035D02*
X006440Y016035D01*
X006514Y016193D02*
X007711Y016193D01*
X007711Y016352D02*
X006517Y016352D01*
X006459Y016510D02*
X007711Y016510D01*
X007711Y016669D02*
X006265Y016669D01*
X006391Y016986D02*
X006559Y016986D01*
X006594Y017620D02*
X006356Y017620D01*
X005916Y018888D02*
X005515Y018888D01*
X005608Y019046D02*
X005733Y019046D01*
X005670Y019205D02*
X005623Y019205D01*
X005669Y019363D02*
X005571Y019363D01*
X005731Y019522D02*
X005392Y019522D01*
X005123Y019680D02*
X005912Y019680D01*
X006288Y019680D02*
X006713Y019680D01*
X006933Y019703D02*
X007086Y019639D01*
X007204Y019522D01*
X007201Y019046D02*
X008646Y019046D01*
X006499Y019046D02*
X006467Y019046D01*
X006485Y019494D02*
X006474Y019514D01*
X006485Y019494D02*
X006496Y019522D01*
X004935Y018888D02*
X004515Y018888D01*
X004608Y019046D02*
X004842Y019046D01*
X004827Y019205D02*
X004623Y019205D01*
X004039Y018412D02*
X002831Y018412D01*
X003027Y018888D02*
X003005Y018953D01*
X002974Y019014D01*
X002934Y019070D01*
X002725Y019205D02*
X003827Y019205D01*
X003958Y018254D02*
X001989Y018254D01*
X001989Y018412D02*
X002369Y018412D01*
X002218Y018571D02*
X001989Y018571D01*
X001966Y018729D02*
X002166Y018729D01*
X002320Y018095D02*
X001989Y018095D01*
X001989Y017937D02*
X002211Y017937D01*
X002183Y017778D02*
X001903Y017778D01*
X002226Y012389D02*
X002195Y012328D01*
X002173Y012263D01*
X002171Y012072D02*
X001989Y012072D01*
X001989Y011914D02*
X002238Y011914D01*
X002769Y011755D02*
X003959Y011755D01*
X004041Y011914D02*
X002962Y011914D01*
X002832Y010804D02*
X003979Y010804D01*
X003952Y010646D02*
X000600Y010646D01*
X000600Y007951D02*
X001569Y007951D01*
X001538Y007793D02*
X000600Y007793D01*
X000600Y007634D02*
X001564Y007634D01*
X001666Y007476D02*
X000600Y007476D01*
X000600Y007317D02*
X003672Y007317D01*
X003667Y007476D02*
X002284Y007476D01*
X002386Y007634D02*
X003723Y007634D01*
X003742Y007159D02*
X000600Y007159D01*
X000600Y006366D02*
X003880Y006366D01*
X003827Y006208D02*
X000600Y006208D01*
X000600Y006049D02*
X002400Y006049D01*
X002227Y005891D02*
X000600Y005891D01*
X000600Y005732D02*
X002168Y005732D01*
X002171Y005574D02*
X001989Y005574D01*
X001989Y005581D02*
X001896Y005675D01*
X001054Y005675D01*
X000961Y005581D01*
X000961Y004740D01*
X001054Y004646D01*
X001896Y004646D01*
X001989Y004740D01*
X001989Y005581D01*
X001989Y005415D02*
X002237Y005415D01*
X002428Y005257D02*
X001989Y005257D01*
X001989Y005098D02*
X003952Y005098D01*
X003959Y005257D02*
X002772Y005257D01*
X002911Y004940D02*
X004011Y004940D01*
X004042Y005415D02*
X002963Y005415D01*
X002973Y005891D02*
X003932Y005891D01*
X003840Y006049D02*
X002800Y006049D01*
X002600Y006049D02*
X002600Y006049D01*
X002600Y006098D02*
X002600Y005660D01*
X002600Y006098D01*
X002600Y005891D02*
X002600Y005891D01*
X002600Y005732D02*
X002600Y005732D01*
X002600Y005660D02*
X002600Y005660D01*
X002600Y005574D02*
X002600Y005574D01*
X002600Y005415D02*
X002600Y005415D01*
X002600Y005257D02*
X002600Y005257D01*
X002289Y004940D02*
X001989Y004940D01*
X001989Y004781D02*
X002198Y004781D01*
X002183Y004623D02*
X000600Y004623D01*
X000600Y004781D02*
X000961Y004781D01*
X000961Y004940D02*
X000600Y004940D01*
X000600Y005098D02*
X000961Y005098D01*
X000961Y005257D02*
X000600Y005257D01*
X000600Y005415D02*
X000961Y005415D01*
X000961Y005574D02*
X000600Y005574D01*
X000600Y004464D02*
X002229Y004464D01*
X002365Y004306D02*
X000600Y004306D01*
X000600Y003513D02*
X003743Y003513D01*
X003683Y003355D02*
X000600Y003355D01*
X000600Y003196D02*
X003685Y003196D01*
X003757Y003038D02*
X000600Y003038D01*
X000600Y002879D02*
X000809Y002879D01*
X002412Y007793D02*
X003887Y007793D01*
X005199Y004464D02*
X005722Y004464D01*
X005683Y004306D02*
X005034Y004306D01*
X005248Y004623D02*
X005847Y004623D01*
X005743Y003513D02*
X004457Y003513D01*
X004517Y003355D02*
X005683Y003355D01*
X005685Y003196D02*
X004515Y003196D01*
X004443Y003038D02*
X005757Y003038D01*
X002231Y023960D02*
X000600Y023960D01*
X000600Y024118D02*
X002183Y024118D01*
X002196Y024277D02*
X001989Y024277D01*
X001989Y024240D02*
X001896Y024146D01*
X001054Y024146D01*
X000961Y024240D01*
X000961Y025081D01*
X001054Y025175D01*
X001896Y025175D01*
X001989Y025081D01*
X001989Y024240D01*
X001989Y024435D02*
X002285Y024435D01*
X002240Y024911D02*
X001989Y024911D01*
X001989Y025069D02*
X002171Y025069D01*
X002168Y025228D02*
X000600Y025228D01*
X000600Y025386D02*
X002224Y025386D01*
X000961Y025069D02*
X000600Y025069D01*
X000600Y024911D02*
X000961Y024911D01*
X000961Y024752D02*
X000600Y024752D01*
X000600Y024594D02*
X000961Y024594D01*
X000961Y024435D02*
X000600Y024435D01*
X000600Y024277D02*
X000961Y024277D01*
X000600Y025862D02*
X003878Y025862D01*
X004055Y026020D02*
X000600Y026020D01*
X000600Y026179D02*
X004327Y026179D01*
X004464Y024277D02*
X004468Y024277D01*
X003602Y029349D02*
X002460Y029349D01*
X002460Y029507D02*
X003586Y029507D01*
X003586Y029666D02*
X002431Y029666D01*
X002388Y029824D02*
X003586Y029824D01*
X003586Y029983D02*
X002301Y029983D01*
X002189Y030141D02*
X003586Y030141D01*
X006187Y029666D02*
X006263Y029666D01*
X006263Y029507D02*
X006187Y029507D01*
X006187Y029349D02*
X006263Y029349D01*
X008864Y026971D02*
X009600Y026971D01*
X009600Y026813D02*
X008864Y026813D01*
X008864Y026654D02*
X009600Y026654D01*
X009600Y026496D02*
X008864Y026496D01*
X008864Y026337D02*
X009600Y026337D01*
X009600Y026179D02*
X008803Y026179D01*
X009566Y028398D02*
X009600Y028398D01*
M02*
