G04 Output by ViewMate Deluxe V11.0.9  PentaLogix LLC*
G04 Tue Dec 09 15:32:49 2014*
%FSLAX33Y33*%
%MOMM*%
%IPPOS*%
%ADD10R,1.651X1.651*%
%ADD11C,1.651*%
%ADD12C,1.3081*%
%ADD13C,1.209*%
%ADD14R,1.8009X1.8009*%
%ADD15C,0.4064*%
%ADD16C,1.016*%
%ADD17C,0.6096*%

%LPD*%
X0Y0D2*D15*G1X42164Y86042D2*X49784Y86042D1*X45339Y85408D2*X40259Y85408D1*X56769Y75882D2*X55499Y77152D1*X78994Y15558D2*X79629Y16192D1*X74549Y10478D2*X74549Y17462D1*X73279Y18732*X63119Y32068D2*X63119Y23178D1*X80264Y46672D2*X80899Y46038D1*X80899Y44132*X83439Y41592D2*X81534Y42862D1*X91059Y47308D2*X85979Y47308D1*X85344Y46672*X82804Y46672*X81534Y47942*X80264Y70802D2*X82169Y68898D1*X82169Y68262*X84709Y68898D2*X82169Y65722D1*X84709Y71438D2*X87884Y71438D1*X89154Y68898*X89154Y66358D2*X89789Y66992D1*X92329Y66992*X103124Y56198D2*X103124Y54928D1*X99314Y51118*X94869Y56198D2*X97409Y56198D1*X94869Y60008D2*X93599Y58738D1*X93599Y57468*X93599Y52388*X94869Y51118*X94869Y46672*X99314Y46038D2*X97409Y47942D1*X97409Y56198*X97409Y63818*X102489Y62548D2*X98679Y66358D1*X97409Y66358*X96139Y65088*X96139Y61278*X94869Y60008*X93599Y61278D2*X95504Y63182D1*X95504Y65722*X87249Y73342*X80899Y73342*X80582Y73025*X80264Y73025*X77724Y70802*X74549Y75248D2*X96139Y75248D1*X97409Y73978*X97409Y68898*X103124Y68898*X104394Y67628*X104394Y60642*X103124Y59372*X103124Y58738*X104394Y57468*X104394Y42862*X103124Y41592*X94869Y41592*X93599Y32702D2*X93599Y50482D1*X92329Y51752*X92329Y53658*X91059Y52388D2*X91059Y54928D1*X84709Y54928D2*X87249Y52388D1*X85979Y58738D2*X86614Y59372D1*X85344Y61278D2*X83439Y58738D1*X85344Y63818D2*X85979Y64452D1*X90424Y64452*X91694Y63182D2*X93599Y63182D1*X94234Y63818*X94234Y65088*X92329Y66992*X90424Y64452D2*X91694Y65722D1*X89154Y63182D2*X87249Y63182D1*X86614Y62548*X86614Y59372*X88519Y57468D2*X88519Y60008D1*X89154Y60642*X89789Y60008*X92329Y60008*X92329Y56198*X91059Y54928*X89789Y56198D2*X75819Y56198D1*X74549Y54928*X74549Y46672*X75819Y41592D2*X74549Y42862D1*X74549Y46672*X80264Y46672*X78359Y44132D2*X79629Y42862D1*X81534Y42862*X80899Y41592D2*X74549Y35878D1*X72644Y35878*X78994Y27622D2*X68834Y27622D1*X66294Y25082*X65659Y28258D2*X65659Y32068D1*X64389Y33338*X64389Y35878*X60579Y38418D2*X60579Y33338D1*X61849Y32068*X61849Y27622*X60579Y26352*X58039Y28258D2*X58039Y32068D1*X56769Y33338*X56769Y35878*X56769Y66992*X56769Y75882*X60579Y75248D2*X60579Y69532D1*X60579Y38418*X59309Y40958D2*X59309Y32068D1*X59309Y20002*X59309Y18098*X57404Y15558*X45339Y15558*X44069Y14288*X44069Y13018*X44069Y10478D2*X42799Y11748D1*X46609Y10478D2*X45339Y11748D1*X45339Y14288*X45974Y14922*X60579Y14922*X63119Y17462*X63119Y23178*X66294Y23178*X66294Y25082*X67564Y24448D2*X70104Y21908D1*X78994Y21908*X79629Y21272*X79629Y16192*X76454Y15558D2*X78359Y18732D1*X77724Y14288D2*X77724Y13018D1*X77724Y10478D2*X77724Y13018D1*X78994Y13018*X80264Y14288*X80264Y28892*X78994Y30162*X81534Y32702D2*X82804Y33972D1*X85344Y33972*X86614Y32702*X86614Y30162D2*X91059Y30162D1*X93599Y32702*X102489Y28892D2*X84709Y28892D1*X84074Y30162*X86614Y27622D2*X84074Y27622D1*X82804Y28892*X82804Y30798*X82169Y31432*X80264Y31432*X78994Y32702*X78359Y32702*X74549Y28892*X68834Y28892*X67564Y30162*X67564Y34608*X61849Y40322*X61849Y44768*X61849Y86042*X59944Y87948*X45339Y87948*X44069Y89218*X44069Y91122*X28829Y91122D2*X28829Y86042D1*X23749Y81598*X23749Y61278*X14859Y53658D2*X14859Y38418D1*X14859Y33338*X16129Y32068*X16129Y27622*X14859Y26352*X23749Y13018D2*X22479Y14288D1*X25019Y13652D2*X23749Y14922D1*X10414Y14922*X9779Y15558*X9779Y32068*X9779Y70802*X9779Y77152D2*X11049Y75882D1*X11049Y54928*X11049Y35878*X11049Y33338*X12319Y32068*X12319Y28258*X7239Y26352D2*X8509Y27622D1*X8509Y32068*X7239Y33338*X7239Y38418*X7239Y57468*X7239Y75248*X2159Y77152D2*X3429Y75882D1*X3429Y35878*X3429Y33338*X2159Y44768D2*X2159Y32068D1*X8509Y47308D2*X8509Y86678D1*X9779Y87948*X22479Y87948*X23749Y89218*X23749Y91122*X27559Y92392D2*X26289Y93662D1*X26289Y91122D2*X26289Y87312D1*X24384Y85408*X17399Y85408*X16129Y84138*X16129Y56198*X19939Y58738D2*X19939Y82868D1*X21209Y84138*X24384Y84138*X27559Y87312*X27559Y92392*X28829Y93662D2*X30099Y92392D1*X30099Y84772*X27559Y82232*X27559Y60008*X28829Y63818D2*X28829Y32068D1*X28829Y19368*X31369Y16828*X31369Y13018*X27559Y11748D2*X28829Y10478D1*X26289Y10478D2*X25019Y11748D1*X25019Y13652*X26289Y13018D2*X26289Y14922D1*X25654Y15558*X14224Y15558*X13589Y16192*X13589Y32068*X13589Y69532*X17399Y67628D2*X17399Y32068D1*X17399Y17462*X18669Y16192*X26924Y16192*X27559Y15558*X27559Y11748*X28829Y13018D2*X28829Y15558D1*X27559Y16828*X22479Y16828*X21209Y18098*X21209Y32068*X21209Y66358*X25019Y65088D2*X25019Y32068D1*X25019Y18732*X26289Y17462*X28829Y17462*X30099Y16192*X30099Y11748*X31369Y10478*X33909Y10478D2*X32639Y11748D1*X32639Y16828*X31369Y18098*X31369Y25718*X32639Y26988*X32639Y32068*X32639Y50482*X31369Y51752*X31369Y91122*X35179Y92392D2*X33909Y93662D1*X37719Y92392D2*X36449Y93662D1*X40259Y92392D2*X38989Y93662D1*X41529Y93662D2*X42799Y92392D1*X42799Y88582*X44069Y87312*X56134Y87312*X58039Y85408*X58039Y42862*X55499Y47308D2*X55499Y32068D1*X55499Y18732*X52959Y16192*X44069Y16192*X42799Y14922*X42799Y11748*X40259Y11748D2*X41529Y10478D1*X41529Y13018D2*X41529Y15558D1*X42799Y16828*X50419Y16828*X51689Y18098*X51689Y32068*X51689Y51118*X47879Y56198D2*X47879Y32068D1*X47879Y18732*X46609Y17462*X41529Y17462*X40259Y16192*X40259Y11748*X37719Y11748D2*X38989Y10478D1*X38989Y13018D2*X38989Y16828D1*X40259Y18098*X43434Y18098*X44069Y18732*X44069Y32068*X44069Y58738*X40259Y61278D2*X40259Y32068D1*X40259Y20002*X37719Y17462*X37719Y11748*X36449Y13018D2*X36449Y32068D1*X36449Y60008*X35179Y92392D2*X35179Y63818D1*X36449Y91122D2*X36449Y84138D1*X38989Y81598*X38989Y65088*X42799Y66358D2*X42799Y82868D1*X41529Y84138*X38989Y84138*X37719Y85408*X37719Y92392*X38989Y91122D2*X38989Y86678D1*X40259Y85408*X45339Y85408D2*X46609Y84138D1*X46609Y67628*X51054Y67628D2*X51054Y84772D1*X49784Y86042*X42164Y86042D2*X40259Y87948D1*X40259Y92392*X41529Y91122D2*X41529Y87948D1*X42799Y86678*X52959Y86678*X54229Y85408*X54229Y73342*X54864Y70168D2*X54864Y72708D1*X54229Y73342*X52959Y75248D2*X52959Y72708D1*X53594Y72072*X52959Y71438*X52959Y38418*X52959Y33338*X54229Y32068*X54229Y27622*X52959Y26352*X50419Y28258D2*X50419Y32068D1*X49149Y33338*X49149Y35878*X49149Y69532*X49149Y75882*X47879Y77152*X45339Y75248D2*X45339Y66358D1*X45339Y38418*X45339Y33338*X46609Y32068*X46609Y27622*X45339Y26352*X42799Y28258D2*X42799Y32068D1*X41529Y33338*X41529Y35878*X41529Y65088*X41529Y75882*X40259Y77152*X37719Y75248D2*X37719Y60008D1*X37719Y38418*X37719Y33338*X38989Y32068*X38989Y27622*X37719Y26352*X35179Y28258D2*X35179Y32068D1*X33909Y33338*X33909Y35878*X33909Y62548*X33909Y75882*X32639Y77152*X30099Y75248D2*X30099Y48578D1*X30099Y38418*X30099Y33338*X31369Y32068*X31369Y27622*X30099Y26352*X27559Y28258D2*X27559Y32068D1*X26289Y33338*X26289Y35878*X26289Y46038*X26289Y75882*X25019Y77152*X22479Y75248D2*X22479Y49848D1*X22479Y38418*X22479Y33338*X23749Y32068*X23749Y27622*X22479Y26352*X19939Y28258D2*X19939Y32068D1*X18669Y33338*X18669Y35878*X18669Y52388*X18669Y75882*X17399Y77152*X14859Y53658D2*X14859Y75248D1*X12319Y51118D2*X12319Y85408D1*X13589Y86678*X23749Y86678*X25019Y87948*X25019Y92392*X23749Y93662*X21209Y93662D2*X22479Y92392D1*X22479Y89852*X21844Y89218*X5334Y89218*X4699Y88582*X4699Y40958*X5969Y42862D2*X5969Y32068D1*X5969Y15558*X7239Y14288*X22479Y14288*D17*X64389Y21908D2*X64389Y18098D1*X72009Y10478*X23749Y10478D2*X25654Y8572D1*X36449Y8572*X46609Y13018D2*X47244Y13018D1*X48514Y11748*X48514Y8572*X36449Y8572*X36449Y10478*X33909Y13018*X33909Y17462*X32322Y19050*X32322Y25400*X33909Y26988*X33909Y30798*X21209Y91122D2*X20574Y91122D1*X19304Y92392*X19304Y94932*X19939Y95568*X31369Y95568*X33909Y91122D2*X31369Y93662D1*X31369Y95568*X44069Y95568*X44069Y93662*X44704Y93662*X45974Y92392*X45974Y89852*X46609Y89218*X79629Y87948D2*X79629Y93662D1*X77724Y95568*X71374Y95568*X73279Y93662D2*X74549Y92392D1*X74549Y87948*X75184Y73025D2*X74549Y73342D1*X74549Y75248*X74549Y87948*X72644Y86042*X72644Y35878*X69469Y30798D2*X71374Y32702D1*X71374Y54928*X71374Y95568*X66929Y95568*X60579Y89218*X46609Y89218*D10*X21209Y91122D3*X78994Y27622D3*X46609Y13018D3*D11*X23749Y13018D3*X23749Y10478D3*X26289Y10478D3*X26289Y13018D3*X28829Y13018D3*X28829Y10478D3*X31369Y10478D3*X31369Y13018D3*X33909Y13018D3*X33909Y10478D3*X36449Y10478D3*X36449Y13018D3*X38989Y13018D3*X38989Y10478D3*X41529Y10478D3*X41529Y13018D3*X44069Y13018D3*X44069Y10478D3*X46609Y10478D3*X84074Y32702D3*X86614Y32702D3*X86614Y30162D3*X86614Y27622D3*X84074Y27622D3*X84074Y30162D3*X78994Y30162D3*X81534Y27622D3*X81534Y30162D3*X81534Y32702D3*X78994Y32702D3*X44069Y91122D3*X44069Y93662D3*X41529Y93662D3*X41529Y91122D3*X38989Y91122D3*X38989Y93662D3*X36449Y93662D3*X36449Y91122D3*X33909Y91122D3*X33909Y93662D3*X31369Y93662D3*X31369Y91122D3*X28829Y91122D3*X28829Y93662D3*X26289Y93662D3*X26289Y91122D3*X23749Y91122D3*X23749Y93662D3*X21209Y93662D3*D12*X72009Y10478D3*X74549Y10478D3*X78359Y18732D3*X73279Y18732D3*X69469Y25718D3*X75819Y41592D3*X80899Y41592D3*X94869Y41592D3*X94869Y46672D3*X99314Y46038D3*X99314Y51118D3*X103124Y56198D3*X103124Y58738D3*X97409Y63818D3*X97409Y68898D3*X74549Y87948D3*X79629Y87948D3*X80264Y73025D3*X75184Y73025D3*X60579Y75248D3*X60579Y77152D3*X59944Y79058D3*X59944Y81598D3*X56134Y81598D3*X56134Y79058D3*X55499Y77152D3*X55499Y75248D3*X52959Y75248D3*X52959Y77152D3*X52324Y79058D3*X52324Y81598D3*X48514Y81598D3*X48514Y79058D3*X47879Y77152D3*X47879Y75248D3*X45339Y75248D3*X45339Y77152D3*X44704Y79058D3*X44704Y81598D3*X40894Y81598D3*X40894Y79058D3*X40259Y77152D3*X40259Y75248D3*X37719Y75248D3*X37719Y77152D3*X37084Y79058D3*X37084Y81598D3*X33274Y81598D3*X33274Y79058D3*X32639Y77152D3*X32639Y75248D3*X30099Y75248D3*X30099Y77152D3*X29464Y79058D3*X29464Y81598D3*X25654Y81598D3*X25654Y79058D3*X25019Y77152D3*X25019Y75248D3*X22479Y75248D3*X22479Y77152D3*X21844Y79058D3*X21844Y81598D3*X18034Y81598D3*X18034Y79058D3*X17399Y77152D3*X17399Y75248D3*X14859Y75248D3*X14859Y77152D3*X14224Y79058D3*X14224Y81598D3*X10414Y81598D3*X10414Y79058D3*X9779Y77152D3*X9779Y75248D3*X7239Y75248D3*X7239Y77152D3*X6604Y79058D3*X6604Y81598D3*X2794Y81598D3*X2794Y79058D3*X2159Y77152D3*X2159Y75248D3*X3429Y35878D3*X7239Y38418D3*X26289Y21908D3*X26289Y24448D3*X27559Y26352D3*X27559Y28258D3*X30099Y28258D3*X30099Y26352D3*X30099Y24448D3*X30099Y21908D3*X33909Y21908D3*X33909Y24448D3*X35179Y26352D3*X35179Y28258D3*X37719Y28258D3*X37719Y26352D3*X37719Y24448D3*X37719Y21908D3*X41529Y21908D3*X41529Y24448D3*X42799Y26352D3*X42799Y28258D3*X45339Y28258D3*X45339Y26352D3*X45339Y24448D3*X45339Y21908D3*X49149Y21908D3*X49149Y24448D3*X50419Y26352D3*X50419Y28258D3*X52959Y28258D3*X52959Y26352D3*X52959Y24448D3*X52959Y21908D3*X56769Y21908D3*X56769Y24448D3*X58039Y26352D3*X58039Y28258D3*X60579Y28258D3*X60579Y26352D3*X60579Y24448D3*X60579Y21908D3*X64389Y21908D3*X64389Y24448D3*X65659Y26352D3*X65659Y28258D3*X69469Y30798D3*X69469Y35878D3*X65659Y38418D3*X64389Y35878D3*X61849Y35878D3*X60579Y38418D3*X58039Y38418D3*X56769Y35878D3*X54229Y35878D3*X52959Y38418D3*X50419Y38418D3*X49149Y35878D3*X46609Y35878D3*X45339Y38418D3*X42799Y38418D3*X41529Y35878D3*X38989Y35878D3*X37719Y38418D3*X35179Y38418D3*X33909Y35878D3*X31369Y35878D3*X30099Y38418D3*X27559Y38418D3*X26289Y35878D3*X23749Y35878D3*X22479Y38418D3*X19939Y38418D3*X18669Y35878D3*X16129Y35878D3*X14859Y38418D3*X12319Y38418D3*X11049Y35878D3*X8509Y35878D3*X7239Y28258D3*X7239Y26352D3*X7239Y24448D3*X7239Y21908D3*X11049Y21908D3*X11049Y24448D3*X12319Y26352D3*X12319Y28258D3*X14859Y28258D3*X14859Y26352D3*X14859Y24448D3*X14859Y21908D3*X18669Y21908D3*X18669Y24448D3*X19939Y26352D3*X19939Y28258D3*X22479Y28258D3*X22479Y26352D3*X22479Y24448D3*X22479Y21908D3*D13*X92329Y60008D3*X93599Y61278D3*X94869Y60008D3*X94869Y56198D3*X93599Y57468D3*X92329Y56198D3*X93599Y52388D3*X92329Y53658D3*X91059Y52388D3*X91059Y47308D3*X92329Y48578D3*X91059Y49848D3*X87249Y49848D3*X88519Y51118D3*X87249Y52388D3*X88519Y54928D3*X89789Y56198D3*X88519Y57468D3*X85979Y58738D3*X80264Y70802D3*X77724Y70802D3*X78994Y69532D3*X82169Y65722D3*X80899Y66992D3*X82169Y68262D3*X84709Y71438D3*X84709Y68898D3*X85979Y70168D3*X89154Y68898D3*X87884Y67628D3*X89154Y66358D3*X91694Y65722D3*X92964Y64452D3*X91694Y63182D3*X89154Y63182D3*X89154Y60642D3*X87884Y61912D3*X85344Y63818D3*X84074Y62548D3*X85344Y61278D3*X83439Y58738D3*X84709Y57468D3*X84709Y54928D3*X83439Y53658D3*X84709Y52388D3*X81534Y47942D3*X82804Y49212D3*X84074Y47942D3*X87249Y46038D3*X88519Y44768D3*X87249Y43498D3*X83439Y41592D3*X84709Y42862D3*X83439Y44132D3*X80899Y44132D3*X79629Y45402D3*X78359Y44132D3*X3429Y33338D3*X2159Y32068D3*X3429Y30798D3*X7239Y30798D3*X5969Y32068D3*X7239Y33338D3*X11049Y33338D3*X9779Y32068D3*X11049Y30798D3*X14859Y30798D3*X13589Y32068D3*X14859Y33338D3*X18669Y33338D3*X17399Y32068D3*X18669Y30798D3*X22479Y30798D3*X21209Y32068D3*X22479Y33338D3*X26289Y33338D3*X25019Y32068D3*X26289Y30798D3*X30099Y30798D3*X28829Y32068D3*X30099Y33338D3*X33909Y33338D3*X32639Y32068D3*X33909Y30798D3*X37719Y30798D3*X36449Y32068D3*X37719Y33338D3*X41529Y33338D3*X40259Y32068D3*X41529Y30798D3*X45339Y30798D3*X44069Y32068D3*X45339Y33338D3*X49149Y33338D3*X47879Y32068D3*X49149Y30798D3*X52959Y30798D3*X51689Y32068D3*X52959Y33338D3*X56769Y33338D3*X55499Y32068D3*X56769Y30798D3*X60579Y30798D3*X59309Y32068D3*X60579Y33338D3*X64389Y33338D3*X63119Y32068D3*X64389Y30798D3*X78994Y15558D3*X77724Y14288D3*X76454Y15558D3*D14*X77724Y10478D3*X102489Y18732D3*X102489Y28892D3*X73279Y93662D3*X79629Y93662D3*X102489Y62548D3*D16*X28829Y63818D3*X27559Y60008D3*X2159Y44768D3*X4699Y40958D3*X5969Y42862D3*X8509Y47308D3*X12319Y51118D3*X11049Y54928D3*X7239Y57468D3*X9779Y70802D3*X13589Y69532D3*X17399Y67628D3*X21209Y66358D3*X25019Y65088D3*X23749Y61278D3*X19939Y58738D3*X16129Y56198D3*X14859Y53658D3*X18669Y52388D3*X22479Y49848D3*X26289Y46038D3*X30099Y48578D3*X59309Y20002D3*X67564Y24448D3*X72644Y35878D3*X71374Y54928D3*X61849Y44768D3*X59309Y40958D3*X58039Y42862D3*X55499Y47308D3*X51689Y51118D3*X47879Y56198D3*X44069Y58738D3*X40259Y61278D3*X37719Y60008D3*X36449Y60008D3*X33909Y62548D3*X35179Y63818D3*X38989Y65088D3*X41529Y65088D3*X42799Y66358D3*X45339Y66358D3*X46609Y67628D3*X49149Y69532D3*X51054Y67628D3*X60579Y69532D3*X56769Y66992D3*X54864Y70168D3*X53594Y72072D3*X0Y0D2*M02*