G04 Output by ViewMate Deluxe V11.0.9  PentaLogix LLC*
G04 Tue Dec 09 15:32:49 2014*
%FSLAX33Y33*%
%MOMM*%
%IPPOS*%
%ADD10R,1.651X1.651*%
%ADD11C,1.651*%
%ADD12C,1.3081*%
%ADD13C,1.209*%
%ADD14R,1.8009X1.8009*%
%ADD15C,0.4064*%
%ADD16C,1.016*%
%ADD17C,0.6096*%

%LPD*%
X0Y0D2*D15*G1X78994Y27622D2*X80264Y28892D1*X2794Y75248D2*X2159Y75248D1*X46609Y67628D2*X17399Y67628D1*X51054Y67628D2*X49149Y67628D1*X61214Y77788D2*X60579Y77152D1*X59944Y79058D2*X56134Y75248D1*X55499Y75248*X52959Y77152D2*X53594Y77788D1*X53594Y79692*X52324Y79058D2*X48514Y75248D1*X47879Y75248*X45974Y79692D2*X45339Y80328D1*X42164Y80328*X40894Y79058*X38354Y77788D2*X37719Y77152D1*X37084Y79058D2*X33274Y75248D1*X32639Y75248*X30734Y79692D2*X30099Y80328D1*X26924Y80328*X25654Y79058*X21844Y79058D2*X18034Y75248D1*X17399Y75248*X15494Y79692D2*X14859Y80328D1*X11684Y80328*X10414Y79058*X7874Y77788D2*X7239Y77152D1*X2794Y75248D2*X6604Y79058D1*X2794Y79058D2*X4064Y80328D1*X7239Y80328*X7874Y79692*X7874Y77788*X9779Y75248D2*X10414Y75248D1*X14224Y79058*X14859Y77152D2*X15494Y77788D1*X15494Y79692*X18034Y79058D2*X19304Y80328D1*X22479Y80328*X23114Y79692*X23114Y77788*X22479Y77152*X25019Y75248D2*X25654Y75248D1*X29464Y79058*X30099Y77152D2*X30734Y77788D1*X30734Y79692*X33274Y79058D2*X34544Y80328D1*X37719Y80328*X38354Y79692*X38354Y77788*X40259Y75248D2*X40894Y75248D1*X44704Y79058*X45339Y77152D2*X45974Y77788D1*X45974Y79692*X48514Y79058D2*X49784Y80328D1*X52959Y80328*X53594Y79692*X56134Y79058D2*X57404Y80328D1*X60579Y80328*X61214Y79692*X61214Y77788*X60579Y69532D2*X78994Y69532D1*X80899Y66992D2*X56769Y66992D1*X85979Y70168D2*X84074Y70168D1*X82169Y72072*X82169Y75248*X81534Y75882*X65659Y75882*X65024Y75248*X65024Y72708*X64389Y72072*X53594Y72072*X54864Y70168D2*X54229Y70802D1*X9779Y70802*X13589Y69532D2*X47244Y69532D1*X49149Y67628*X49149Y69532D2*X52959Y69532D1*X54229Y68262*X79629Y68262*X80899Y69532*X82804Y69532*X84074Y67628*X87884Y67628*X85979Y60008D2*X87884Y61912D1*X84074Y62548D2*X47244Y62548D1*X44704Y65088*X30099Y48578D2*X68199Y48578D1*X72009Y45402*X79629Y45402*X86614Y44768D2*X88519Y44768D1*X87249Y43498D2*X86614Y44132D1*X83439Y44132*X84709Y42862D2*X71374Y42862D1*X68199Y46038*X26289Y46038*X22479Y49848D2*X68834Y49848D1*X72009Y46672*X84709Y46672*X86614Y44768*X87249Y46038D2*X85344Y47942D1*X84074Y47942*X82804Y49212D2*X71374Y49212D1*X68199Y52388*X18669Y52388*X47879Y56198D2*X16129Y56198D1*X19939Y58738D2*X44069Y58738D1*X40259Y61278D2*X23749Y61278D1*X33909Y62548D2*X45339Y62548D1*X47879Y60008*X85979Y60008*X84709Y57468D2*X72644Y57468D1*X71374Y58738*X47244Y58738*X45974Y60008*X37719Y60008*X27559Y60008D2*X36449Y60008D1*X35179Y63818D2*X28829Y63818D1*X25019Y65088D2*X38989Y65088D1*X42799Y66358D2*X21209Y66358D1*X44704Y65088D2*X41529Y65088D1*X45339Y66358D2*X47244Y64452D1*X84074Y64452*X84709Y65088*X89789Y65088*X90424Y64452*X92964Y64452*X93599Y57468D2*X91059Y57468D1*X89789Y58738*X87884Y58738*X87249Y58102*X87249Y56198*X88519Y54928*X91059Y52388D2*X89789Y53658D1*X85979Y53658*X84709Y52388*X83439Y53658D2*X74549Y53658D1*X70739Y57468*X7239Y57468*X11049Y54928D2*X69469Y54928D1*X73279Y51118*X88519Y51118*X91059Y49848D2*X87249Y49848D1*X92329Y48578D2*X85979Y48578D1*X84074Y50482*X72644Y50482*X69469Y53658*X67564Y53658*X14859Y53658*X51689Y51118D2*X12319Y51118D1*X8509Y47308D2*X55499Y47308D1*X61849Y44768D2*X2159Y44768D1*X4699Y40958D2*X59309Y40958D1*X5969Y42862D2*X58039Y42862D1*X63119Y42862*X67564Y38418*X83439Y38418*X84074Y37782*X84074Y32702*X102489Y18732D2*X102489Y25082D1*X101854Y25718*X83439Y25718*X82804Y26352*X82804Y28892*X81534Y30162*X81534Y32702D2*X80264Y31432D1*X80264Y28892*X81534Y27622D2*X80899Y26352D1*X80264Y25718*X72644Y25718*X67564Y20002*X67564Y30798D2*X67564Y24448D1*X64389Y24448D2*X60579Y28258D1*X65659Y26352D2*X65659Y23812D1*X65024Y23178*X61849Y23178*X60579Y24448*X58039Y26352D2*X58039Y23812D1*X57404Y23178*X52959Y28258D2*X56769Y24448D1*X50419Y23812D2*X50419Y26352D1*X45339Y28258D2*X49149Y24448D1*X42799Y23812D2*X42164Y23178D1*X38989Y23178*X37719Y24448*X30099Y28258D2*X33909Y24448D1*X27559Y23812D2*X26924Y23178D1*X23749Y23178*X22479Y24448*X14859Y28258D2*X18669Y24448D1*X12319Y23812D2*X12319Y26352D1*X7239Y28258D2*X11049Y24448D1*X7239Y24448D2*X8509Y23178D1*X11684Y23178*X12319Y23812*X14859Y24448D2*X16129Y23178D1*X19304Y23178*X19939Y23812*X19939Y26352*X26289Y24448D2*X22479Y28258D1*X27559Y23812D2*X27559Y26352D1*X30099Y24448D2*X31369Y23178D1*X34544Y23178*X35179Y23812*X35179Y26352*X41529Y24448D2*X37719Y28258D1*X42799Y23812D2*X42799Y26352D1*X45339Y24448D2*X46609Y23178D1*X49784Y23178*X50419Y23812*X52959Y24448D2*X54229Y23178D1*X57404Y23178*X67564Y20002D2*X59309Y20002D1*D17*X7239Y21908D2*X11049Y21908D1*X14859Y21908*X18669Y21908*X22479Y21908*X26289Y21908*X30099Y21908*X33909Y21908*X37719Y21908*X41529Y21908*X45339Y21908*X49149Y21908*X52959Y21908*X56769Y21908*X60579Y21908*X64389Y21908*X66929Y21908*X69469Y24448*X69469Y25718*X71374Y27622*X71374Y33972*X69469Y30798D2*X67564Y30798D1*X64389Y30798*X60579Y30798*X56769Y30798*X52959Y30798*X49149Y30798*X45339Y30798*X41529Y30798*X37719Y30798*X33909Y30798*X30099Y30798*X26289Y30798*X22479Y30798*X18669Y30798*X14859Y30798*X11049Y30798*X7239Y30798*X3429Y30798*X8509Y35878D2*X11049Y38418D1*X12319Y38418*X14859Y35878*X16129Y35878*X18669Y38418*X19939Y38418*X22479Y35878*X23749Y35878*X26289Y38418*X27559Y38418*X30099Y35878*X31369Y35878*X33909Y38418*X35179Y38418*X37719Y35878*X38989Y35878*X41529Y38418*X42799Y38418*X45339Y35878*X46609Y35878*X49149Y38418*X50419Y38418*X52959Y35878*X54229Y35878*X56769Y38418*X58039Y38418*X60579Y35878*X61849Y35878*X64389Y38418*X65659Y38418*X68199Y35878*X69469Y35878*X71374Y33972*X71374Y34608*X72644Y35878*X84709Y52388D2*X73914Y52388D1*X71374Y54928*X74549Y87948D2*X68199Y81598D1*X59944Y81598*X56134Y81598*X52324Y81598*X48514Y81598*X44704Y81598*X40894Y81598*X37084Y81598*X33274Y81598*X29464Y81598*X2794Y81598D2*X6604Y81598D1*X10414Y81598*X14224Y81598*X18034Y81598*X21844Y81598*X25654Y81598*X29464Y81598*D10*X21209Y91122D3*X78994Y27622D3*X46609Y13018D3*D11*X23749Y13018D3*X23749Y10478D3*X26289Y10478D3*X26289Y13018D3*X28829Y13018D3*X28829Y10478D3*X31369Y10478D3*X31369Y13018D3*X33909Y13018D3*X33909Y10478D3*X36449Y10478D3*X36449Y13018D3*X38989Y13018D3*X38989Y10478D3*X41529Y10478D3*X41529Y13018D3*X44069Y13018D3*X44069Y10478D3*X46609Y10478D3*X84074Y32702D3*X86614Y32702D3*X86614Y30162D3*X86614Y27622D3*X84074Y27622D3*X84074Y30162D3*X78994Y30162D3*X81534Y27622D3*X81534Y30162D3*X81534Y32702D3*X78994Y32702D3*X44069Y91122D3*X44069Y93662D3*X41529Y93662D3*X41529Y91122D3*X38989Y91122D3*X38989Y93662D3*X36449Y93662D3*X36449Y91122D3*X33909Y91122D3*X33909Y93662D3*X31369Y93662D3*X31369Y91122D3*X28829Y91122D3*X28829Y93662D3*X26289Y93662D3*X26289Y91122D3*X23749Y91122D3*X23749Y93662D3*X21209Y93662D3*D12*X72009Y10478D3*X74549Y10478D3*X78359Y18732D3*X73279Y18732D3*X75819Y41592D3*X80899Y41592D3*X94869Y41592D3*X94869Y46672D3*X99314Y46038D3*X99314Y51118D3*X103124Y56198D3*X103124Y58738D3*X97409Y63818D3*X97409Y68898D3*X74549Y87948D3*X79629Y87948D3*X80264Y73025D3*X75184Y73025D3*X60579Y75248D3*X60579Y77152D3*X59944Y79058D3*X59944Y81598D3*X56134Y81598D3*X56134Y79058D3*X55499Y77152D3*X55499Y75248D3*X52959Y75248D3*X52959Y77152D3*X52324Y79058D3*X52324Y81598D3*X48514Y81598D3*X48514Y79058D3*X47879Y77152D3*X47879Y75248D3*X45339Y75248D3*X45339Y77152D3*X44704Y79058D3*X44704Y81598D3*X40894Y81598D3*X40894Y79058D3*X40259Y77152D3*X40259Y75248D3*X37719Y75248D3*X37719Y77152D3*X37084Y79058D3*X37084Y81598D3*X33274Y81598D3*X33274Y79058D3*X32639Y77152D3*X32639Y75248D3*X30099Y75248D3*X30099Y77152D3*X29464Y79058D3*X29464Y81598D3*X25654Y81598D3*X25654Y79058D3*X25019Y77152D3*X25019Y75248D3*X22479Y75248D3*X22479Y77152D3*X21844Y79058D3*X21844Y81598D3*X18034Y81598D3*X18034Y79058D3*X17399Y77152D3*X17399Y75248D3*X14859Y75248D3*X14859Y77152D3*X14224Y79058D3*X14224Y81598D3*X2794Y81598D3*X2794Y79058D3*X2159Y77152D3*X2159Y75248D3*X7239Y75248D3*X7239Y77152D3*X6604Y79058D3*X6604Y81598D3*X10414Y81598D3*X10414Y79058D3*X9779Y77152D3*X9779Y75248D3*X11049Y21908D3*X3429Y35878D3*X7239Y38418D3*X8509Y35878D3*X11049Y35878D3*X12319Y38418D3*X14859Y38418D3*X16129Y35878D3*X18669Y35878D3*X19939Y38418D3*X22479Y38418D3*X23749Y35878D3*X26289Y35878D3*X27559Y38418D3*X30099Y38418D3*X31369Y35878D3*X33909Y35878D3*X35179Y38418D3*X37719Y38418D3*X38989Y35878D3*X41529Y35878D3*X42799Y38418D3*X45339Y38418D3*X46609Y35878D3*X49149Y35878D3*X50419Y38418D3*X52959Y38418D3*X54229Y35878D3*X56769Y35878D3*X58039Y38418D3*X60579Y38418D3*X61849Y35878D3*X64389Y35878D3*X65659Y38418D3*X69469Y35878D3*X69469Y30798D3*X69469Y25718D3*X65659Y28258D3*X65659Y26352D3*X64389Y24448D3*X64389Y21908D3*X60579Y21908D3*X60579Y24448D3*X60579Y26352D3*X60579Y28258D3*X58039Y28258D3*X58039Y26352D3*X56769Y24448D3*X56769Y21908D3*X52959Y21908D3*X52959Y24448D3*X52959Y26352D3*X52959Y28258D3*X50419Y28258D3*X50419Y26352D3*X49149Y24448D3*X49149Y21908D3*X45339Y21908D3*X45339Y24448D3*X45339Y26352D3*X45339Y28258D3*X42799Y28258D3*X42799Y26352D3*X41529Y24448D3*X41529Y21908D3*X37719Y21908D3*X37719Y24448D3*X37719Y26352D3*X37719Y28258D3*X35179Y28258D3*X35179Y26352D3*X33909Y24448D3*X33909Y21908D3*X30099Y21908D3*X30099Y24448D3*X30099Y26352D3*X30099Y28258D3*X27559Y28258D3*X27559Y26352D3*X26289Y24448D3*X26289Y21908D3*X22479Y21908D3*X22479Y24448D3*X22479Y26352D3*X22479Y28258D3*X19939Y28258D3*X19939Y26352D3*X18669Y24448D3*X18669Y21908D3*X14859Y21908D3*X14859Y24448D3*X14859Y26352D3*X14859Y28258D3*X12319Y28258D3*X12319Y26352D3*X11049Y24448D3*X7239Y28258D3*X7239Y26352D3*X7239Y24448D3*X7239Y21908D3*D13*X92329Y60008D3*X93599Y61278D3*X94869Y60008D3*X94869Y56198D3*X93599Y57468D3*X92329Y56198D3*X93599Y52388D3*X92329Y53658D3*X91059Y52388D3*X91059Y47308D3*X92329Y48578D3*X91059Y49848D3*X87249Y49848D3*X88519Y51118D3*X87249Y52388D3*X88519Y54928D3*X89789Y56198D3*X88519Y57468D3*X85979Y58738D3*X80264Y70802D3*X77724Y70802D3*X78994Y69532D3*X82169Y65722D3*X80899Y66992D3*X82169Y68262D3*X84709Y71438D3*X84709Y68898D3*X85979Y70168D3*X89154Y68898D3*X87884Y67628D3*X89154Y66358D3*X91694Y65722D3*X92964Y64452D3*X91694Y63182D3*X89154Y63182D3*X89154Y60642D3*X87884Y61912D3*X85344Y63818D3*X84074Y62548D3*X85344Y61278D3*X83439Y58738D3*X84709Y57468D3*X84709Y54928D3*X83439Y53658D3*X84709Y52388D3*X81534Y47942D3*X82804Y49212D3*X84074Y47942D3*X87249Y46038D3*X88519Y44768D3*X87249Y43498D3*X83439Y41592D3*X84709Y42862D3*X83439Y44132D3*X80899Y44132D3*X79629Y45402D3*X78359Y44132D3*X3429Y33338D3*X2159Y32068D3*X3429Y30798D3*X7239Y30798D3*X5969Y32068D3*X7239Y33338D3*X11049Y33338D3*X9779Y32068D3*X11049Y30798D3*X14859Y30798D3*X13589Y32068D3*X14859Y33338D3*X18669Y33338D3*X17399Y32068D3*X18669Y30798D3*X22479Y30798D3*X21209Y32068D3*X22479Y33338D3*X26289Y33338D3*X25019Y32068D3*X26289Y30798D3*X30099Y30798D3*X28829Y32068D3*X30099Y33338D3*X33909Y33338D3*X32639Y32068D3*X33909Y30798D3*X37719Y30798D3*X36449Y32068D3*X37719Y33338D3*X41529Y33338D3*X40259Y32068D3*X41529Y30798D3*X45339Y30798D3*X44069Y32068D3*X45339Y33338D3*X49149Y33338D3*X47879Y32068D3*X49149Y30798D3*X52959Y30798D3*X51689Y32068D3*X52959Y33338D3*X56769Y33338D3*X55499Y32068D3*X56769Y30798D3*X60579Y30798D3*X59309Y32068D3*X60579Y33338D3*X64389Y33338D3*X63119Y32068D3*X64389Y30798D3*X78994Y15558D3*X77724Y14288D3*X76454Y15558D3*D14*X77724Y10478D3*X102489Y18732D3*X102489Y28892D3*X73279Y93662D3*X79629Y93662D3*X102489Y62548D3*D16*X28829Y63818D3*X27559Y60008D3*X2159Y44768D3*X4699Y40958D3*X5969Y42862D3*X8509Y47308D3*X12319Y51118D3*X11049Y54928D3*X7239Y57468D3*X9779Y70802D3*X13589Y69532D3*X17399Y67628D3*X21209Y66358D3*X25019Y65088D3*X23749Y61278D3*X19939Y58738D3*X16129Y56198D3*X14859Y53658D3*X18669Y52388D3*X22479Y49848D3*X26289Y46038D3*X30099Y48578D3*X59309Y20002D3*X67564Y24448D3*X71374Y54928D3*X60579Y69532D3*X56769Y66992D3*X53594Y72072D3*X54864Y70168D3*X51054Y67628D3*X49149Y69532D3*X46609Y67628D3*X45339Y66358D3*X42799Y66358D3*X41529Y65088D3*X38989Y65088D3*X35179Y63818D3*X33909Y62548D3*X36449Y60008D3*X37719Y60008D3*X40259Y61278D3*X44069Y58738D3*X47879Y56198D3*X51689Y51118D3*X55499Y47308D3*X58039Y42862D3*X59309Y40958D3*X61849Y44768D3*X72644Y35878D3*X0Y0D2*M02*