
M48
METRIC,TZ,000.000
T01C0.5
T02C0.701
T03C0.8
T04C1.1
T05C1.199
T06C2.946
T07C3.2
%
M71
G90
T01
X059309Y020002
X067564Y024448
X072644Y035878
X071374Y054928
X061849Y044768
X059309Y040958
X058039Y042862
X055499Y047308
X051689Y051118
X036449Y060008
X037719Y060008
X040259Y061278
X044069Y058738
X047879Y056198
X060579Y069532
X056769Y066992
X053594Y072072
X054864Y070168
X051054Y067628
X049149Y069532
X046609Y067628
X045339Y066358
X042799Y066358
X041529Y065088
X038989Y065088
X035179Y063818
X033909Y062548
X028829Y063818
X027559Y060008
X011049Y054928
X007239Y057468
X009779Y070802
X013589Y069532
X017399Y067628
X021209Y066358
X025019Y065088
X023749Y061278
X019939Y058738
X030099Y048578
X026289Y046038
X022479Y049848
X018669Y052388
X016129Y056198
X014859Y053658
X012319Y051118
X008509Y047308
X002159Y044768
X005969Y042862
X004699Y040958
T02
X094869Y056198
X084709Y054928
X083439Y053658
X084709Y052388
X087249Y049848
X091059Y052388
X093599Y052388
X092329Y053658
X092329Y056198
X093599Y057468
X094869Y060008
X093599Y061278
X092329Y060008
X080264Y070802
X077724Y070802
X078994Y069532
X082169Y065722
X080899Y066992
X082169Y068262
X084709Y071438
X084709Y068898
X085979Y070168
X089154Y068898
X087884Y067628
X089154Y066358
X091694Y065722
X092964Y064452
X091694Y063182
X089154Y063182
X089154Y060642
X087884Y061912
X085344Y063818
X084074Y062548
X085344Y061278
X083439Y058738
X084709Y057468
X085979Y058738
X088519Y057468
X089789Y056198
X088519Y054928
X087249Y052388
X088519Y051118
X091059Y049848
X092329Y048578
X091059Y047308
X087249Y043498
X088519Y044768
X087249Y046038
X084074Y047942
X082804Y049212
X081534Y047942
X078359Y044132
X079629Y045402
X080899Y044132
X083439Y044132
X084709Y042862
X083439Y041592
X078994Y015558
X077724Y014288
X076454Y015558
X003429Y030798
X002159Y032068
X003429Y033338
X007239Y033338
X005969Y032068
X007239Y030798
X011049Y030798
X009779Y032068
X011049Y033338
X014859Y033338
X013589Y032068
X014859Y030798
X018669Y030798
X017399Y032068
X018669Y033338
X022479Y033338
X021209Y032068
X022479Y030798
X026289Y030798
X025019Y032068
X026289Y033338
X030099Y033338
X028829Y032068
X030099Y030798
X033909Y030798
X032639Y032068
X033909Y033338
X037719Y033338
X036449Y032068
X037719Y030798
X041529Y030798
X040259Y032068
X041529Y033338
X045339Y033338
X044069Y032068
X045339Y030798
X049149Y030798
X047879Y032068
X049149Y033338
X052959Y033338
X051689Y032068
X052959Y030798
X056769Y030798
X055499Y032068
X056769Y033338
X064389Y033338
X064389Y030798
X063119Y032068
X060579Y033338
X059309Y032068
X060579Y030798
T03
X074549Y087948
X079629Y087948
X099314Y046038
X094869Y046672
X094869Y041592
X080899Y041592
X075819Y041592
X072009Y010478
X074549Y010478
X078359Y018732
X073279Y018732
X069469Y025718
X003429Y035878
X007239Y028258
X007239Y026352
X007239Y024448
X007239Y021908
X011049Y021908
X011049Y024448
X012319Y026352
X012319Y028258
X014859Y028258
X014859Y026352
X014859Y024448
X014859Y021908
X018669Y021908
X018669Y024448
X019939Y026352
X019939Y028258
X022479Y028258
X022479Y026352
X022479Y024448
X022479Y021908
X026289Y021908
X026289Y024448
X027559Y026352
X027559Y028258
X030099Y028258
X030099Y026352
X030099Y024448
X030099Y021908
X033909Y021908
X033909Y024448
X035179Y026352
X035179Y028258
X037719Y028258
X037719Y026352
X037719Y024448
X037719Y021908
X041529Y021908
X041529Y024448
X042799Y026352
X042799Y028258
X045339Y028258
X045339Y026352
X045339Y024448
X045339Y021908
X049149Y021908
X049149Y024448
X050419Y026352
X050419Y028258
X052959Y028258
X052959Y026352
X052959Y024448
X052959Y021908
X056769Y021908
X056769Y024448
X058039Y026352
X058039Y028258
X060579Y028258
X060579Y026352
X060579Y024448
X060579Y021908
X064389Y021908
X064389Y024448
X065659Y026352
X065659Y028258
X069469Y030798
X069469Y035878
X065659Y038418
X064389Y035878
X061849Y035878
X060579Y038418
X058039Y038418
X056769Y035878
X054229Y035878
X052959Y038418
X050419Y038418
X049149Y035878
X046609Y035878
X045339Y038418
X042799Y038418
X041529Y035878
X038989Y035878
X037719Y038418
X035179Y038418
X033909Y035878
X031369Y035878
X030099Y038418
X027559Y038418
X026289Y035878
X023749Y035878
X022479Y038418
X019939Y038418
X018669Y035878
X016129Y035878
X014859Y038418
X012319Y038418
X011049Y035878
X008509Y035878
X007239Y038418
X002159Y075248
X002159Y077152
X002794Y079058
X002794Y081598
X006604Y081598
X006604Y079058
X007239Y077152
X007239Y075248
X009779Y075248
X009779Y077152
X010414Y079058
X010414Y081598
X014224Y081598
X014224Y079058
X014859Y077152
X014859Y075248
X017399Y075248
X017399Y077152
X018034Y079058
X018034Y081598
X021844Y081598
X021844Y079058
X022479Y077152
X022479Y075248
X025019Y075248
X025019Y077152
X025654Y079058
X025654Y081598
X029464Y081598
X029464Y079058
X030099Y077152
X030099Y075248
X032639Y075248
X032639Y077152
X033274Y079058
X033274Y081598
X037084Y081598
X037084Y079058
X037719Y077152
X037719Y075248
X040259Y075248
X040259Y077152
X040894Y079058
X040894Y081598
X044704Y081598
X044704Y079058
X045339Y077152
X045339Y075248
X047879Y075248
X047879Y077152
X048514Y079058
X048514Y081598
X052324Y081598
X052324Y079058
X052959Y077152
X052959Y075248
X055499Y075248
X055499Y077152
X056134Y079058
X056134Y081598
X059944Y081598
X059944Y079058
X060579Y077152
X060579Y075248
X075184Y073025
X080264Y073025
X097409Y068898
X097409Y063818
X103124Y058738
X103124Y056198
X099314Y051118
T04
X023749Y013018
X023749Y010478
X026289Y010478
X026289Y013018
X028829Y013018
X028829Y010478
X031369Y010478
X031369Y013018
X033909Y013018
X033909Y010478
X036449Y010478
X036449Y013018
X038989Y013018
X038989Y010478
X041529Y010478
X041529Y013018
X044069Y013018
X044069Y010478
X046609Y010478
X046609Y013018
X084074Y032702
X086614Y032702
X086614Y030162
X086614Y027622
X084074Y027622
X084074Y030162
X078994Y030162
X078994Y027622
X081534Y027622
X081534Y030162
X081534Y032702
X078994Y032702
X021209Y091122
X021209Y093662
X023749Y093662
X023749Y091122
X026289Y091122
X026289Y093662
X028829Y093662
X028829Y091122
X031369Y091122
X031369Y093662
X033909Y093662
X033909Y091122
X036449Y091122
X036449Y093662
X038989Y093662
X038989Y091122
X041529Y091122
X041529Y093662
X044069Y093662
X044069Y091122
T05
X073279Y093662
X079629Y093662
X102489Y062548
X102489Y028892
X102489Y018732
X077724Y010478
T06
X052426Y011214
X017932Y011214
X015392Y092926
X049886Y092926
T07
X102489Y009842
X102489Y094298
X003429Y094298
X003429Y009842
M30
