%
M48
M72
T01C0.0197
T02C0.0276
T03C0.0315
T04C0.0433
T05C0.0472
T06C0.0512
T07C0.1160
T08C0.1260
%
T01
X15850Y15375
X15850Y17375
X15850Y18375
X17100Y19125
X17850Y14875
X18100Y13625
X18100Y13125
X19100Y14125
X21850Y14125
X21850Y13625
X21850Y13125
X21850Y14875
X21850Y23375
X21850Y23875
X21850Y24625
X21850Y25375
X19600Y24625
X18100Y23875
X18100Y23375
X17600Y24875
X17850Y25375
X15850Y25875
X15850Y27875
X15850Y28875
X17100Y29625
X18100Y33875
X18100Y34375
X17850Y35375
X18100Y35875
X19850Y35125
X21850Y35125
X21850Y35875
X21850Y34375
X21850Y33875
X26600Y36875
X27350Y36875
X27350Y37375
X27350Y37875
X27850Y35875
X27850Y35125
X29100Y35875
X31850Y34125
X31975Y34625
X31975Y35625
X31975Y36125
X31975Y36625
X31850Y32625
X31975Y26125
X31975Y25625
X31975Y25125
X32100Y24125
X31850Y23625
X31850Y22125
X28850Y25375
X27850Y25375
X27850Y24625
X27350Y26375
X27350Y26875
X27350Y27375
X26600Y26375
X27350Y16625
X27350Y16125
X27350Y15625
X26725Y15625
X28100Y14625
X28100Y14125
X28350Y15125
X31850Y13125
X31975Y13875
X31975Y14625
X31975Y15125
X31975Y15625
X31850Y11625
X35600Y16250
X38600Y17875
X39100Y16625
X41975Y13625
X39350Y8125
X45600Y17625
X46100Y18625
X46850Y13375
X46850Y8500
X50225Y17625
X46600Y24000
X45600Y28500
X45975Y29125
X46600Y34500
X45100Y38375
X45975Y39375
X46600Y45000
X46100Y49125
X45100Y49125
X41975Y45125
X37975Y48250
X37600Y49375
X35600Y47750
X31975Y47125
X31975Y46625
X31975Y46125
X31975Y45125
X31850Y44625
X31850Y43125
X29350Y46125
X27850Y46375
X27850Y45625
X27600Y47375
X27600Y47875
X27600Y48375
X26600Y47375
X30100Y55875
X31850Y55125
X31975Y55625
X31975Y56625
X31975Y57125
X31975Y57625
X31725Y53625
X28100Y56125
X28100Y56875
X27600Y57875
X27600Y58375
X27600Y58875
X26600Y57875
X30350Y66375
X31850Y65625
X31975Y66125
X31975Y67125
X31975Y67625
X31975Y68125
X31850Y64250
X28100Y66625
X28100Y67375
X27600Y68375
X27350Y68875
X27350Y69375
X26600Y68375
X28100Y77125
X28100Y77875
X27600Y78875
X27600Y79375
X27600Y79875
X26350Y78875
X21850Y77875
X21850Y77375
X21850Y76375
X21850Y75875
X20600Y77375
X18100Y76375
X18100Y75875
X17100Y77375
X17350Y77875
X15350Y78375
X15350Y80375
X15350Y81375
X17100Y82375
X18100Y86375
X18100Y86875
X17600Y88375
X17350Y87875
X15725Y88875
X15725Y90875
X15725Y91875
X18100Y95125
X18600Y94875
X19100Y94625
X19600Y94250
X20100Y94000
X20850Y93875
X21225Y93500
X21600Y93125
X21850Y88375
X21600Y87875
X21850Y86875
X21850Y86375
X26600Y89375
X27350Y89375
X27350Y89875
X27350Y90375
X28100Y88375
X28100Y87625
X30850Y87375
X31850Y86875
X31975Y88125
X31975Y88625
X31975Y89125
X31850Y85125
X31975Y78625
X31975Y78125
X31975Y77625
X31975Y76625
X31850Y76125
X31850Y74625
X30600Y76625
X35475Y78875
X38100Y79875
X38100Y80875
X41975Y76625
X45600Y81000
X46100Y81625
X48600Y81000
X46600Y76500
X46100Y71250
X45850Y70750
X46600Y66125
X48850Y70750
X45975Y60500
X45100Y59625
X46600Y55500
X49225Y59625
X49475Y49625
X49725Y39500
X49975Y28500
X42100Y34625
X38600Y37625
X38100Y38875
X35600Y37250
X38600Y28125
X38600Y27250
X35600Y26750
X41975Y24125
X41975Y55625
X38100Y58625
X37600Y59875
X35600Y58250
X35600Y68750
X37725Y70375
X38100Y69125
X41975Y66125
X41850Y87125
X39350Y89000
X38100Y91125
X35600Y89750
X31100Y93125
X30850Y93625
X30475Y94000
X30100Y94375
X29850Y94875
X29725Y95375
X29350Y95750
X28850Y96125
X36850Y97750
X37350Y98000
X37850Y98250
X38350Y98500
X38850Y98750
X39350Y99000
X39850Y99125
X40350Y99500
X46600Y87000
X21850Y67375
X21850Y66875
X21850Y65875
X21850Y65375
X20600Y66875
X18100Y67375
X17850Y66875
X18100Y65875
X18100Y65375
X17100Y61375
X15850Y60375
X15850Y59375
X15850Y57125
X17850Y56375
X18100Y56875
X18100Y55375
X18100Y54875
X17100Y50875
X15850Y49875
X15850Y48875
X15850Y46875
X17850Y45875
X18100Y46375
X18100Y44875
X18100Y44375
X20100Y45625
X21850Y45625
X21850Y46375
X21850Y44875
X21850Y44375
X17100Y40375
X15850Y39375
X15850Y38375
X15850Y36375
X21850Y54875
X21850Y55375
X21850Y56125
X21850Y56875
X20350Y56125
X15350Y67875
X15350Y69875
X15350Y70875
X17100Y71875
X16850Y8125
T02
X14100Y11875
X13600Y11375
X13100Y11875
X12100Y11625
X11600Y12125
X11100Y11625
X11600Y15125
X11100Y15625
X12100Y15625
X13100Y15375
X13600Y15875
X14100Y15375
X14600Y14125
X15100Y13625
X14600Y13125
X13350Y21875
X12850Y22375
X13850Y22375
X14350Y23625
X14850Y24125
X14350Y24625
X13850Y25875
X13350Y26375
X12850Y25875
X11850Y26125
X11350Y25625
X10850Y26125
X11350Y22625
X10850Y22125
X11850Y22125
X13350Y32375
X12850Y32875
X13850Y32875
X14350Y34125
X14850Y34625
X14350Y35125
X13850Y36375
X13350Y36875
X12850Y36375
X11850Y36625
X11350Y36125
X10850Y36625
X11350Y33125
X10850Y32625
X11850Y32625
X13350Y42875
X12850Y43375
X13850Y43375
X14350Y44625
X14850Y45125
X14350Y45625
X13850Y46875
X13350Y47375
X12850Y46875
X11850Y47125
X11350Y46625
X10850Y47125
X11350Y43625
X10850Y43125
X11850Y43125
X13350Y53375
X12850Y53875
X13850Y53875
X14350Y55125
X14850Y55625
X14350Y56125
X13850Y57375
X13350Y57875
X12850Y57375
X11850Y57625
X11350Y57125
X10850Y57625
X11350Y54125
X10850Y53625
X11850Y53625
X13350Y63875
X12850Y64375
X13850Y64375
X14350Y65625
X14850Y66125
X14350Y66625
X13850Y67875
X13350Y68375
X12850Y67875
X11850Y68125
X11350Y67625
X10850Y68125
X11350Y64625
X10850Y64125
X11850Y64125
X13350Y74375
X12850Y74875
X13850Y74875
X14350Y76125
X14850Y76625
X14350Y77125
X13850Y78375
X13350Y78875
X12850Y78375
X11850Y78625
X11350Y78125
X10850Y78625
X11350Y75125
X10850Y74625
X11850Y74625
X13350Y84875
X12850Y85375
X13850Y85375
X14350Y86625
X14850Y87125
X14350Y87625
X13850Y88875
X13350Y89375
X12850Y88875
X11850Y89125
X11350Y88625
X10850Y89125
X11350Y85625
X10850Y85125
X11850Y85125
X7600Y92875
X8100Y93375
X7600Y93875
X6600Y93875
X6100Y93375
X6600Y92875
X6600Y95375
X6100Y95875
X6600Y96375
X6600Y97875
X6100Y98375
X6600Y98875
X7600Y98875
X8100Y98375
X7600Y97875
X7600Y96375
X8100Y95875
X7600Y95375
X3350Y85875
X3850Y85375
X3350Y84875
X1600Y88625
X2100Y89125
X1600Y89625
X1600Y79125
X2100Y78625
X1600Y78125
X3350Y75375
X3850Y74875
X3350Y74375
X1600Y68625
X2100Y68125
X1600Y67625
X3350Y64875
X3850Y64375
X3350Y63875
X1600Y58125
X2100Y57625
X1600Y57125
X3350Y54375
X3850Y53875
X3350Y53375
X1600Y47375
X2100Y46875
X1600Y46375
X3350Y43875
X3850Y43375
X3350Y42875
X1600Y36875
X2100Y36375
X1600Y35875
X3350Y33375
X3850Y32875
X3350Y32375
X1600Y26375
X2100Y25875
X1600Y25375
X3350Y22875
X3850Y22375
X3350Y21875
X1600Y16125
X2100Y15625
X1600Y15125
X3350Y12375
X3850Y11875
X3350Y11375
X22850Y11625
X23350Y12125
X23850Y11625
X23600Y13125
X23100Y13625
X23600Y14125
X23350Y15125
X22850Y15625
X23850Y15625
X23850Y22125
X23350Y22625
X22850Y22125
X23600Y23625
X23100Y24125
X23600Y24625
X23350Y25625
X22850Y26125
X23850Y26125
X23850Y32625
X23350Y33125
X22850Y32625
X23600Y34125
X23100Y34625
X23600Y35125
X23350Y36125
X22850Y36625
X23850Y36625
X23850Y43125
X23350Y43625
X22850Y43125
X23600Y44625
X23100Y45125
X23600Y45625
X23350Y46625
X22850Y47125
X23850Y47125
X23850Y53625
X23350Y54125
X22850Y53625
X23600Y55125
X23100Y55625
X23600Y56125
X23350Y57125
X22850Y57625
X23850Y57625
X23850Y64125
X23350Y64625
X22850Y64125
X23600Y65625
X23100Y66125
X23600Y66625
X23350Y67625
X22850Y68125
X23850Y68125
X23850Y74625
X23350Y75125
X22850Y74625
X23600Y76125
X23100Y76625
X23600Y77125
X23350Y78125
X22850Y78625
X23850Y78625
X23850Y85125
X23350Y85625
X22850Y85125
X23600Y86625
X23100Y87125
X23600Y87625
X23350Y88625
X22850Y89125
X23850Y89125
X33100Y89125
X33600Y88625
X33100Y88125
X33100Y87125
X33600Y86625
X33100Y86125
X35600Y87625
X36100Y88125
X36100Y87125
X33100Y78625
X33600Y78125
X33100Y77625
X33100Y76625
X33600Y76125
X33100Y75625
X35600Y77125
X36100Y77625
X36100Y76625
X33100Y68125
X33600Y67625
X33100Y67125
X33100Y66125
X33600Y65625
X33100Y65125
X35600Y66625
X36100Y66125
X36100Y67125
X33100Y57625
X33600Y57125
X33100Y56625
X33100Y55625
X33600Y55125
X33100Y54625
X35600Y56125
X36100Y55625
X36100Y56625
X33100Y47125
X33600Y46625
X33100Y46125
X33100Y45125
X33600Y44625
X33100Y44125
X35600Y45625
X36100Y45125
X36100Y46125
X33100Y36625
X33600Y36125
X33100Y35625
X33100Y34625
X33600Y34125
X33100Y33625
X35600Y35125
X36100Y34625
X36100Y35625
X33100Y26125
X33600Y25625
X33100Y25125
X33100Y24125
X33600Y23625
X33100Y23125
X35600Y24625
X36100Y24125
X36100Y25125
X33100Y15625
X33600Y15125
X33100Y14625
X33100Y13625
X33600Y13125
X33100Y12625
X35600Y14125
X36100Y13625
X36100Y14625
X42475Y14375
X42975Y13875
X43475Y14375
X44600Y14375
X45100Y14875
X45600Y14375
X46475Y12875
X45975Y12375
X45975Y11375
X46475Y10875
X46975Y11375
X46975Y12375
X45600Y9500
X45100Y10000
X45100Y9000
X43725Y11125
X44225Y11625
X43725Y12125
X42850Y11625
X42350Y12125
X42350Y11125
X45100Y19500
X45600Y20000
X45100Y20500
X44225Y22125
X43725Y22625
X43725Y21625
X42850Y22125
X42350Y22625
X42350Y21625
X42975Y24375
X42475Y24875
X43475Y24875
X44600Y24875
X45100Y25375
X45600Y24875
X46475Y23375
X45975Y22875
X45975Y21875
X46475Y21375
X46975Y21875
X46975Y22875
X45100Y30000
X45600Y30500
X45100Y31000
X44225Y32625
X43725Y33125
X43725Y32125
X42850Y32625
X42350Y33125
X42350Y32125
X42975Y34875
X42475Y35375
X43475Y35375
X44600Y35375
X45100Y35875
X45600Y35375
X46475Y33875
X45975Y33375
X45975Y32375
X46475Y31875
X46975Y32375
X46975Y33375
X45100Y40500
X45600Y41000
X45100Y41500
X44225Y43125
X43725Y43625
X43725Y42625
X42850Y43125
X42350Y43625
X42350Y42625
X42850Y45375
X42350Y45875
X43350Y45875
X44600Y45875
X45100Y46375
X45600Y45875
X46475Y44375
X45975Y43875
X45975Y42875
X46475Y42375
X46975Y42875
X46975Y43875
X45100Y51000
X45600Y51500
X45100Y52000
X44225Y53625
X43725Y54125
X43725Y53125
X42850Y53625
X42350Y54125
X42350Y53125
X42850Y55875
X42350Y56375
X43350Y56375
X44600Y56375
X45100Y56875
X45600Y56375
X46475Y54875
X45975Y54375
X45975Y53375
X46475Y52875
X46975Y53375
X46975Y54375
X45100Y61375
X45600Y61875
X45100Y62375
X45975Y64000
X46475Y63500
X46975Y64000
X46975Y65000
X46475Y65500
X45975Y65000
X45600Y66875
X45100Y67375
X44600Y66875
X43350Y66875
X42850Y66375
X42350Y66875
X42350Y64625
X42850Y64125
X42350Y63625
X43725Y63625
X44225Y64125
X43725Y64625
X45100Y71875
X45600Y72375
X45100Y72875
X45975Y74375
X46475Y73875
X46975Y74375
X46975Y75375
X46475Y75875
X45975Y75375
X45600Y77375
X45100Y77875
X44600Y77375
X43350Y77375
X42850Y76875
X42350Y77375
X42350Y75125
X42850Y74625
X42350Y74125
X43725Y74125
X44225Y74625
X43725Y75125
X45100Y82375
X45600Y82875
X45100Y83375
X45975Y84875
X46475Y84375
X46975Y84875
X46975Y85875
X46475Y86375
X45975Y85875
X45600Y87875
X45100Y88375
X44600Y87875
X43350Y87875
X42850Y87375
X42350Y87875
X42350Y85625
X42850Y85125
X42350Y84625
X43725Y84625
X44225Y85125
X43725Y85625
T03
X44100Y86500
X45100Y86375
X45100Y84375
X44100Y83625
X44100Y82875
X44100Y82125
X42100Y82125
X42100Y82875
X42100Y83625
X42100Y86500
X40600Y85875
X40600Y84875
X40600Y82625
X40600Y81625
X40600Y78875
X40600Y77875
X40475Y75375
X40475Y74375
X40600Y72125
X40600Y71125
X42100Y71625
X42100Y72375
X42100Y73125
X42100Y76000
X44100Y76000
X45100Y75875
X45100Y73875
X44100Y73125
X44100Y72375
X44100Y71625
X44100Y67875
X42100Y67875
X40600Y67375
X40600Y68375
X42100Y65500
X42100Y62625
X42100Y61875
X42100Y61125
X40600Y60625
X40600Y61625
X40600Y63875
X40600Y64875
X37975Y66125
X37975Y67125
X36130Y68375
X35100Y69125
X34130Y68375
X34600Y67625
X34600Y65625
X34130Y64875
X35100Y64125
X36130Y64875
X33100Y64125
X31475Y63750
X31475Y64750
X31475Y68625
X31475Y69625
X32850Y70375
X33100Y69125
X34850Y70375
X35100Y74625
X34130Y75375
X34600Y76125
X36130Y75375
X34600Y78125
X34130Y78875
X35100Y79625
X34850Y80875
X36130Y78875
X37975Y77625
X37975Y76625
X42100Y78375
X44100Y78375
X48350Y75375
X48350Y74375
X51350Y74375
X51350Y75375
X51350Y73000
X51350Y71000
X51350Y64875
X51350Y63875
X51350Y62500
X51350Y60500
X48350Y63875
X48350Y64875
X45100Y65375
X44100Y65500
X45100Y63375
X44100Y62625
X44100Y61875
X44100Y61125
X44100Y57375
X44100Y55000
X45100Y54875
X45100Y52875
X44100Y52125
X44100Y51375
X44100Y50625
X42100Y50625
X42100Y51375
X42100Y52125
X40600Y51125
X40600Y50125
X40600Y47375
X40600Y46375
X40600Y43875
X40600Y42875
X40600Y40625
X40600Y39625
X42100Y40125
X42100Y40875
X42100Y41625
X44100Y41625
X44100Y40875
X44100Y40125
X45100Y42375
X45100Y44375
X44100Y44500
X44100Y46875
X42100Y46875
X42100Y44500
X37975Y45125
X37975Y46125
X36130Y47375
X35100Y48125
X34130Y47375
X34600Y46625
X34600Y44625
X34130Y43875
X35100Y43125
X36130Y43875
X33100Y43125
X31475Y42625
X31475Y43625
X31475Y47625
X31475Y48625
X32850Y49375
X33100Y48125
X34850Y49375
X35100Y53625
X34130Y54375
X34600Y55125
X36130Y54375
X34600Y57125
X34130Y57875
X35100Y58625
X34850Y59875
X36130Y57875
X37975Y56625
X37975Y55625
X40600Y54375
X40600Y53375
X42100Y55000
X42100Y57375
X40600Y56875
X40600Y57875
X33100Y58625
X32850Y59875
X31475Y59125
X31475Y58125
X31475Y54125
X31475Y53125
X33100Y53625
X27225Y55125
X27225Y56125
X25850Y56625
X24850Y56125
X24850Y55125
X25850Y54625
X24850Y53125
X24100Y52625
X22100Y52625
X20350Y52625
X19350Y52625
X19350Y48125
X20350Y48125
X22100Y48125
X24100Y48125
X24850Y47625
X25850Y46125
X24850Y45625
X24850Y44625
X25850Y44125
X24850Y42625
X24100Y42125
X22100Y42125
X20350Y42125
X19350Y42125
X19350Y37625
X20350Y37625
X22100Y37625
X24100Y37625
X24850Y37125
X25850Y35625
X24850Y35125
X24850Y34125
X25850Y33625
X24850Y32125
X24100Y31625
X22100Y31625
X20350Y31625
X19350Y31625
X19350Y27125
X20350Y27125
X22100Y27125
X24100Y27125
X24850Y26625
X25850Y25125
X24850Y24625
X24850Y23625
X25850Y23125
X24850Y21625
X24100Y21125
X22100Y21125
X20350Y21125
X19350Y21125
X19350Y16625
X20350Y16625
X22100Y16625
X24100Y16625
X24850Y16125
X25850Y14625
X24850Y14125
X24850Y13125
X25850Y12625
X24850Y11125
X24100Y10625
X22100Y10625
X20350Y10625
X19350Y10625
X16350Y13125
X16350Y14125
X13600Y14375
X13600Y13625
X13600Y12875
X12100Y10625
X11600Y12875
X11600Y13625
X11600Y14375
X12100Y16625
X10100Y16625
X8850Y16625
X7850Y16625
X7850Y21125
X8850Y21125
X9850Y21125
X11350Y23375
X11475Y24125
X11350Y24875
X11850Y27125
X13350Y24875
X13475Y24125
X13350Y23375
X11850Y21125
X9850Y27125
X8850Y27125
X7850Y27125
X7850Y31625
X8850Y31625
X9850Y31625
X11350Y33875
X11475Y34625
X11350Y35375
X11850Y37625
X13350Y35375
X13475Y34625
X13350Y33875
X11850Y31625
X9850Y37625
X8850Y37625
X7850Y37625
X7850Y42125
X8850Y42125
X9850Y42125
X11350Y44375
X11475Y45125
X11350Y45875
X11850Y48125
X13350Y45875
X13475Y45125
X13350Y44375
X11850Y42125
X9850Y48125
X8850Y48125
X7850Y48125
X7850Y52625
X8850Y52625
X9850Y52625
X11350Y54875
X11475Y55625
X11350Y56375
X11850Y58625
X13350Y56375
X13475Y55625
X13350Y54875
X11850Y52625
X9850Y58625
X8850Y58625
X7850Y58625
X7850Y63125
X8850Y63125
X9850Y63125
X11350Y65375
X11475Y66125
X11350Y66875
X11850Y69125
X13350Y66875
X13475Y66125
X13350Y65375
X11850Y63125
X9850Y69125
X8850Y69125
X7850Y69125
X7850Y73625
X8850Y73625
X9850Y73625
X11350Y75875
X11475Y76625
X11350Y77375
X11850Y79625
X13350Y77375
X13475Y76625
X13350Y75875
X11850Y73625
X9850Y79625
X8850Y79625
X7850Y79625
X7850Y84125
X8850Y84125
X9850Y84125
X11350Y86375
X11475Y87125
X11350Y87875
X11850Y90125
X10850Y92625
X10850Y93375
X10850Y94125
X10850Y95125
X10850Y95875
X10850Y96625
X10850Y97625
X10850Y98375
X10850Y99125
X8850Y99125
X8850Y98375
X8850Y97625
X8850Y96625
X8850Y95875
X8850Y95125
X8850Y94125
X8850Y93375
X8850Y92625
X8850Y90125
X7850Y90125
X9850Y90125
X11850Y84125
X13350Y86375
X13475Y87125
X13350Y87875
X16225Y87625
X16225Y86625
X19350Y84125
X20350Y84125
X22100Y84125
X24100Y84125
X24850Y84625
X24850Y86625
X24850Y87625
X25850Y88125
X24850Y89625
X24100Y90125
X22100Y90125
X20350Y90125
X19350Y90125
X19350Y79625
X20350Y79625
X22100Y79625
X24100Y79625
X24850Y79125
X25850Y77625
X24850Y77125
X24850Y76125
X24850Y74125
X24100Y73625
X25850Y75625
X27225Y76125
X27225Y77125
X24100Y69125
X24850Y68625
X24850Y66625
X24850Y65625
X25850Y65125
X24850Y63625
X24100Y63125
X22100Y63125
X20350Y63125
X19350Y63125
X19350Y58625
X20350Y58625
X22100Y58625
X24100Y58625
X24850Y58125
X27225Y65625
X27225Y66625
X25850Y67125
X22100Y69125
X20350Y69125
X19350Y69125
X19350Y73625
X20350Y73625
X22100Y73625
X16100Y76125
X16100Y77125
X16100Y66625
X16100Y65625
X16100Y56125
X16100Y55125
X16100Y45625
X16100Y44625
X16100Y35125
X16100Y34125
X16100Y24625
X16100Y23625
X10100Y10625
X8850Y10625
X7850Y10625
X3850Y13375
X3100Y13375
X2350Y13875
X1600Y14125
X3100Y15375
X3600Y16125
X3850Y15375
X3600Y17125
X1850Y20625
X1850Y21625
X1600Y22375
X2350Y22375
X3100Y23875
X2350Y24375
X1600Y24375
X3100Y25875
X3600Y26625
X3850Y25875
X3600Y27625
X1850Y31125
X1850Y32125
X1600Y32875
X2350Y32875
X3100Y34375
X2350Y34875
X1600Y34875
X3100Y36375
X3600Y37125
X3850Y36375
X3600Y38125
X1850Y41625
X1850Y42625
X1600Y43375
X2350Y43375
X3100Y44875
X2350Y45375
X1600Y45375
X3100Y46875
X3600Y47625
X3850Y46875
X3600Y48625
X3850Y44875
X1850Y52125
X1850Y53125
X1600Y54125
X2350Y54125
X3100Y55375
X2350Y56125
X1600Y56125
X3100Y57375
X3600Y58125
X3850Y57375
X3600Y59125
X3850Y55375
X1850Y62625
X1850Y63625
X1600Y64625
X2350Y64625
X3100Y65875
X2350Y66625
X1600Y66625
X3100Y67875
X3600Y68625
X3850Y67875
X3600Y69625
X3850Y65875
X1850Y73125
X1850Y74125
X1600Y75125
X2350Y75125
X3100Y76375
X2350Y77125
X1600Y77125
X3100Y78375
X3600Y79125
X3850Y78375
X3600Y80125
X3850Y76375
X1850Y83625
X1850Y84625
X1600Y85625
X2350Y85625
X3100Y86875
X2350Y87625
X1600Y87625
X3100Y88875
X3600Y89625
X3850Y88875
X3600Y90625
X2150Y92875
X2150Y93875
X2150Y95375
X2150Y96375
X2150Y97875
X2150Y98875
X3850Y86875
X25850Y86125
X27225Y86625
X27225Y87625
X31475Y85625
X31475Y84625
X33100Y85125
X34130Y85875
X34600Y86625
X35100Y85125
X36130Y85875
X34600Y88625
X34130Y89375
X35100Y90125
X34850Y91375
X36130Y89375
X37975Y88125
X37975Y87125
X40600Y88375
X40600Y89375
X40475Y90500
X40475Y91875
X40475Y93250
X42475Y93250
X42475Y91875
X42475Y90500
X42100Y88875
X44100Y88875
X47100Y90500
X47100Y91875
X48100Y91875
X48100Y90500
X47975Y93250
X46975Y93250
X46600Y96875
X46600Y97875
X51725Y94125
X51725Y92125
X51350Y85375
X51350Y84375
X51350Y83625
X51350Y81625
X48350Y84875
X48350Y85875
X33100Y90125
X32850Y91375
X31475Y90625
X31475Y89625
X32850Y80875
X33100Y79625
X31475Y79125
X31475Y80125
X31475Y75125
X31475Y74125
X33100Y74625
X27225Y45625
X27225Y44625
X31475Y38125
X31475Y37125
X32850Y38875
X33100Y37625
X34130Y36875
X34600Y36125
X35100Y37625
X34850Y38875
X36130Y36875
X34600Y34125
X34130Y33375
X35100Y32625
X36130Y33375
X37975Y34625
X37975Y35625
X40600Y35875
X40600Y36875
X42100Y36375
X42100Y34000
X40600Y33375
X40600Y32375
X40600Y30125
X40600Y29125
X42100Y29625
X42100Y30375
X42100Y31125
X44100Y31125
X44100Y30375
X44100Y29625
X45100Y31875
X45100Y33875
X44100Y34000
X44100Y36375
X48350Y33375
X48350Y32375
X51350Y32375
X51350Y33375
X51350Y31125
X51350Y29125
X51350Y22875
X51350Y21875
X51350Y20625
X51350Y18625
X48350Y21875
X48350Y22875
X45100Y23375
X44100Y23500
X45100Y21375
X44100Y20625
X44100Y19875
X44100Y19125
X42100Y19125
X42100Y19875
X42100Y20625
X40600Y19625
X40600Y18625
X40600Y15875
X40600Y14875
X42100Y15375
X42100Y13000
X40600Y12375
X40600Y11375
X40600Y9125
X40600Y8125
X42100Y8625
X42100Y9375
X42100Y10125
X44100Y10125
X44100Y9375
X44100Y8625
X45100Y10875
X45100Y12875
X44100Y13000
X44100Y15375
X40600Y21875
X40600Y22875
X40600Y25375
X40600Y26375
X42100Y25875
X42100Y23500
X44100Y25875
X37975Y25125
X37975Y24125
X36130Y22875
X35100Y22125
X34130Y22875
X34600Y23625
X34600Y25625
X34130Y26375
X35100Y27125
X34850Y28375
X36130Y26375
X33100Y27125
X32850Y28375
X31475Y27625
X31475Y26625
X31475Y22625
X31475Y21625
X33100Y22125
X32850Y17875
X33100Y16625
X34130Y15875
X34600Y15125
X35100Y16625
X34850Y17875
X36130Y15875
X34600Y13125
X34130Y12375
X35100Y11625
X36130Y12375
X37975Y13625
X37975Y14625
X33100Y11625
X31475Y11125
X31475Y12125
X31475Y16125
X31475Y17125
X27225Y14125
X27225Y13125
X27225Y23625
X27225Y24625
X31475Y32125
X31475Y33125
X33100Y32625
X27225Y34125
X27225Y35125
X48600Y42875
X48600Y43875
X51350Y43875
X51350Y42875
X51350Y41875
X51350Y39875
X51350Y50500
X51350Y52500
X51350Y53375
X51350Y54375
X48850Y54375
X48850Y53375
X48475Y12375
X48475Y11375
X51350Y11375
X51350Y10500
X51350Y8500
X51350Y12375
X3850Y23875
X3850Y34375
X1600Y12125
X2350Y11875
X1850Y11125
X1850Y10125
T04
X10850Y5125
X10850Y4125
X11850Y4125
X11850Y5125
X12850Y5125
X12850Y4125
X13850Y4125
X13850Y5125
X14850Y5125
X14850Y4125
X15850Y4125
X15850Y5125
X16850Y5125
X16850Y4125
X17850Y4125
X17850Y5125
X18850Y5125
X18850Y4125
X19850Y4125
X19850Y5125
X31850Y5125
X31850Y4125
X32850Y4125
X32850Y5125
X33850Y5125
X33850Y4125
X34850Y4125
X34850Y5125
X35850Y5125
X35850Y4125
X36850Y4125
X36850Y5125
X37850Y5125
X37850Y4125
X38850Y4125
X38850Y5125
X39850Y5125
X39850Y4125
X40850Y4125
X40850Y5125
X40350Y100625
X40350Y101625
X39350Y101625
X39350Y100625
X38350Y100625
X38350Y101625
X37350Y101625
X37350Y100625
X36350Y100625
X36350Y101625
X41350Y101625
X41350Y100625
X42350Y100625
X42350Y101625
X43350Y101625
X43350Y100625
X44350Y100625
X44350Y101625
X45350Y101625
X45350Y100625
X24100Y100625
X24100Y101625
X23100Y101625
X23100Y100625
X22100Y100625
X22100Y101625
X21100Y101625
X21100Y100625
X20100Y100625
X20100Y101625
X19100Y101625
X19100Y100625
X18100Y100625
X18100Y101625
X17100Y101625
X17100Y100625
X16100Y100625
X16100Y101625
X15100Y101625
X15100Y100625
X14100Y100625
X14100Y101625
X13100Y101625
X13100Y100625
X12100Y100625
X12100Y101625
X11100Y101625
X11100Y100625
X10100Y100625
X10100Y101625
T05
X6350Y87375
X1100Y93375
X1100Y95875
X1100Y98375
X6350Y66125
X6600Y45375
X6100Y23875
T06
X51350Y96250
X51350Y98375
T07
X47640Y101335
X34060Y101335
X26390Y101335
X7810Y101335
X8560Y4415
X22140Y4415
X29560Y4415
X43140Y4415
T08
X2100Y4625
X6600Y34875
X6600Y76625
X1975Y101375
X47850Y69375
X48600Y38000
X51100Y4625
X51350Y101375
M30
