
M48
METRIC,TZ,000.000
T01C0.701
T02C0.8
T03C1.199
T04C3.2
%
M71
G90
T01
X013272Y015705
X012002Y016975
X013272Y018245
X012319Y021102
X013589Y022372
X014859Y021102
X018986Y023325
X020256Y024595
X021526Y023325
X024702Y021420
X025972Y020150
X024702Y018880
X025019Y014117
X025019Y011577
X023749Y012847
X020892Y010942
X019622Y012212
X018352Y010942
X014859Y009355
X013589Y010625
X012319Y009355
T02
X008509Y028405
X023432Y008085
X027559Y013165
X032004Y014435
X032004Y016975
X027559Y018245
X022479Y020785
X022162Y018562
X022162Y016657
X022162Y014752
X007239Y009990
X007239Y007450
X011684Y006815
X016764Y006815
X018352Y008085
X016446Y012847
X017082Y014752
X017082Y016657
X017082Y018562
X017399Y020785
X016764Y024595
X013589Y028405
X011684Y024595
X007239Y023960
X007239Y021420
X007239Y016975
X007239Y014435
X011366Y012847
T03
X032639Y008085
X032639Y023007
X025019Y028405
X021844Y028405
X004382Y008720
X004382Y015705
X004382Y022690
T04
X032639Y003640
X032639Y027770
X003429Y027770
X003429Y003640
M30
