G04 Output by ViewMate Deluxe V11.0.9  PentaLogix LLC*
G04 Sun May 11 19:20:02 2014*
%FSLAX33Y33*%
%MOMM*%
%IPPOS*%
%ADD15C,0.0762*%
%ADD16C,0.127*%
%ADD105C,1.397*%
%ADD106C,0.254*%
%ADD107C,0.4064*%
%ADD108C,0.1524*%
%ADD109C,0.1016*%

%LPD*%
X0Y0D2*D15*G1X27153Y16370D2*X27308Y16528D1*X27308Y15593D2*X27153Y15593D1*X27153Y14966*X27622Y14656D2*X27622Y14028D1*X27153Y14498*X28092Y14498*X28092Y14966D2*X27935Y14966D1*X27308Y15593*X27935Y15900D2*X28092Y16058D1*X28092Y16370*X27935Y16528*X27308Y16528*X27935Y15900*X27308Y15900*X27153Y16058*X27153Y16370*X14732Y24973D2*X14732Y25131D1*X14105Y25131*X13797Y24658D2*X13170Y24658D1*X13640Y25131*X13640Y24188*X14105Y24188D2*X14105Y24346D1*X14732Y24973*X15042Y24346D2*X15042Y24973D1*X15197Y25131*X15512Y25131*X15669Y24973*X15669Y24346D2*X15669Y24973D1*X15042Y24346*X15197Y24188*X15512Y24188*X15669Y24346*X20912Y20848D2*X21384Y20378D1*X20757Y20693D2*X21384Y21321D1*X18885Y21006D2*X19197Y21321D1*X19197Y20378*X19512Y20378D2*X18885Y20378D1*X19820Y20536D2*X19820Y21163D1*X19977Y21321*X20292Y21321*X20447Y21163*X20447Y20536*X20292Y20378*X19977Y20378*X19820Y20536*X20447Y21163*X20757Y20378D2*X20757Y21321D1*X20594Y18626D2*X21067Y18156D1*X20439Y18471D2*X21067Y19098D1*X20439Y19098D2*X20439Y18156D1*X20130Y18941D2*X19975Y19098D1*X19660Y19098*X19502Y18941*X19502Y18313D2*X19660Y18156D1*X19975Y18156*X20130Y18313*X20130Y18941*X19502Y18313*X19502Y18941*X18567Y18783D2*X18880Y19098D1*X18880Y18156*X18567Y18156D2*X19195Y18156D1*X18567Y16878D2*X18880Y17193D1*X18880Y16251*X19195Y16251D2*X18567Y16251D1*X20130Y17036D2*X19975Y17193D1*X19660Y17193*X19502Y17036*X19502Y16408*X20130Y16408D2*X20130Y17036D1*X19502Y16408*X19660Y16251*X19975Y16251*X20130Y16408*X20439Y17193D2*X20439Y16251D1*X20439Y16566D2*X21067Y17193D1*X21067Y16251D2*X20594Y16721D1*X20594Y14816D2*X21067Y14346D1*X20439Y14661D2*X21067Y15288D1*X20439Y15288D2*X20439Y14346D1*X20130Y15131D2*X19975Y15288D1*X19660Y15288*X19502Y15131*X19502Y14503D2*X19660Y14346D1*X19975Y14346*X20130Y14503*X20130Y15131*X19502Y14503*X19502Y15131*X18567Y14973D2*X18880Y15288D1*X18880Y14346*X18567Y14346D2*X19195Y14346D1*X14414Y13226D2*X14414Y13383D1*X13787Y13383*X13480Y12911D2*X12852Y12911D1*X13322Y13383*X13322Y12441*X13787Y12441D2*X13787Y12598D1*X14414Y13226*X15352Y13226D2*X15194Y13383D1*X14879Y13383*X14724Y13226*X14724Y12598*X14879Y12441D2*X15194Y12441D1*X15352Y12598*X15352Y13226*X14724Y12598*X14879Y12441*X14732Y7193D2*X14732Y7351D1*X14105Y7351*X13797Y6878D2*X13170Y6878D1*X13640Y7351*X13640Y6408*X14105Y6408D2*X14105Y6566D1*X14732Y7193*X15042Y6566D2*X15042Y7193D1*X15197Y7351*X15512Y7351*X15669Y7193*X15042Y6566*X15197Y6408*X15512Y6408*X15669Y6566*X15669Y7193*X19837Y8306D2*X20150Y8621D1*X20150Y7678*X20465Y7678D2*X19837Y7678D1*X21400Y8463D2*X21245Y8621D1*X20930Y8621*X20772Y8463*X20772Y7836*X21400Y7836D2*X21400Y8463D1*X20772Y7836*X20930Y7678*X21245Y7678*X21400Y7836*X21709Y8621D2*X21709Y7678D1*X21709Y7993D2*X22337Y8621D1*X22337Y7678D2*X21864Y8148D1*D16*X16129Y21356D2*X16093Y21511D1*X16048Y21661*X15994Y21811*X15931Y21956*X15860Y22095*X15778Y22233*X15690Y22365*X15593Y22489*X15491Y22609*X15380Y22720*X15263Y22827*X15138Y22926*X15009Y23015*X14874Y23099*X14735Y23172*X14590Y23238*X14442Y23294*X14293Y23343*X14138Y23381*X13983Y23409*X13825Y23429*X13668Y23439*X13510Y23439*X13353Y23429*X13195Y23409*X13040Y23381*X12885Y23343*X12736Y23294*X12588Y23238*X12443Y23172*X12304Y23099*X12169Y23015*X12040Y22926*X11915Y22827*X11798Y22720*X11687Y22609*X11585Y22489*X11488Y22365*X11400Y22233*X11318Y22095*X11247Y21956*X11184Y21811*X11130Y21661*X11085Y21511*X11049Y21356*X13018Y19515D2*X12863Y19479D1*X12713Y19434*X12563Y19380*X12418Y19317*X12278Y19246*X12141Y19164*X12009Y19075*X11885Y18979*X11765Y18877*X11654Y18766*X11547Y18649*X11448Y18524*X11359Y18395*X11275Y18260*X11201Y18120*X11135Y17976*X11079Y17828*X11031Y17678*X10993Y17523*X10965Y17369*X10945Y17211*X10935Y17054*X10935Y16896*X10945Y16739*X10965Y16581*X10993Y16426*X11031Y16271*X11079Y16121*X11135Y15974*X11201Y15829*X11275Y15690*X11359Y15555*X11448Y15425*X11547Y15301*X11654Y15184*X11765Y15072*X11885Y14971*X12009Y14874*X12141Y14785*X12278Y14704*X12418Y14633*X12563Y14569*X12713Y14516*X12863Y14470*X13018Y14435*X14542Y14435*X14542Y19515*X13018Y19515*X11049Y21356D2*X11049Y19832D1*X16129Y19832*X16129Y21356*X24956Y17610D2*X25110Y17645D1*X25260Y17691*X25410Y17744*X25555Y17808*X25695Y17879*X25832Y17960*X25964Y18049*X26088Y18146*X26208Y18247*X26319Y18359*X26426Y18476*X26525Y18600*X26614Y18730*X26698Y18865*X26772Y19004*X26838Y19149*X26894Y19296*X26942Y19446*X26980Y19601*X27008Y19756*X27028Y19914*X27038Y20071*X27038Y20229*X27028Y20386*X27008Y20544*X26980Y20698*X26942Y20853*X26894Y21003*X26838Y21151*X26772Y21295*X26698Y21435*X26614Y21570*X26525Y21699*X26426Y21824*X26319Y21941*X26208Y22052*X26088Y22154*X25964Y22250*X25832Y22339*X25695Y22421*X25555Y22492*X25410Y22555*X25260Y22609*X25110Y22654*X24956Y22690*X22796Y23579D2*X22761Y23734D1*X22715Y23884*X22662Y24033*X22598Y24178*X22527Y24318*X22446Y24455*X22357Y24587*X22261Y24712*X22159Y24831*X22047Y24943*X21930Y25049*X21806Y25149*X21676Y25237*X21542Y25321*X21402Y25395*X21257Y25461*X21110Y25517*X20960Y25565*X20805Y25603*X20650Y25631*X20493Y25651*X20335Y25662*X20178Y25662*X20020Y25651*X19863Y25631*X19708Y25603*X19553Y25565*X19403Y25517*X19256Y25461*X19111Y25395*X18971Y25321*X18837Y25237*X18707Y25149*X18583Y25049*X18466Y24943*X18354Y24831*X18252Y24712*X18156Y24587*X18067Y24455*X17986Y24318*X17915Y24178*X17851Y24033*X17798Y23884*X17752Y23734*X17716Y23579*X17716Y22055*X22796Y22055*X22796Y23579*X24956Y22690D2*X23432Y22690D1*X23432Y17610*X24956Y17610*X24765Y15387D2*X24610Y15352D1*X24460Y15306*X24310Y15253*X24166Y15189*X24026Y15118*X23889Y15037*X23757Y14948*X23632Y14851*X23513Y14750*X23401Y14638*X23294Y14521*X23195Y14397*X23106Y14267*X23023Y14133*X22949Y13993*X22883Y13848*X22827Y13701*X22779Y13551*X22741Y13396*X22713Y13241*X22692Y13084*X22682Y12926*X22682Y12769*X22692Y12611*X22713Y12454*X22741Y12299*X22779Y12144*X22827Y11994*X22883Y11847*X22949Y11702*X23023Y11562*X23106Y11427*X23195Y11298*X23294Y11173*X23401Y11057*X23513Y10945*X23632Y10843*X23757Y10747*X23889Y10658*X24026Y10577*X24166Y10505*X24310Y10442*X24460Y10389*X24610Y10343*X24765Y10307*X22162Y11196D2*X22126Y11351D1*X22080Y11501*X22027Y11651*X21963Y11796*X21892Y11935*X21811Y12073*X21722Y12205*X21626Y12329*X21524Y12449*X21412Y12560*X21295Y12667*X21171Y12766*X21041Y12855*X20907Y12939*X20767Y13012*X20622Y13078*X20475Y13134*X20325Y13183*X20170Y13221*X20015Y13249*X19858Y13269*X19700Y13279*X19543Y13279*X19385Y13269*X19228Y13249*X19073Y13221*X18918Y13183*X18768Y13134*X18621Y13078*X18476Y13012*X18336Y12939*X18202Y12855*X18072Y12766*X17948Y12667*X17831Y12560*X17719Y12449*X17617Y12329*X17521Y12205*X17432Y12073*X17351Y11935*X17280Y11796*X17216Y11651*X17163Y11501*X17117Y11351*X17082Y11196*X16129Y9609D2*X16093Y9764D1*X16048Y9914*X15994Y10063*X15931Y10208*X15860Y10348*X15778Y10485*X15690Y10617*X15593Y10742*X15491Y10861*X15380Y10973*X15263Y11079*X15138Y11179*X15009Y11267*X14874Y11351*X14735Y11425*X14590Y11491*X14442Y11547*X14293Y11595*X14138Y11633*X13983Y11661*X13825Y11681*X13668Y11692*X13510Y11692*X13353Y11681*X13195Y11661*X13040Y11633*X12885Y11595*X12736Y11547*X12588Y11491*X12443Y11425*X12304Y11351*X12169Y11267*X12040Y11179*X11915Y11079*X11798Y10973*X11687Y10861*X11585Y10742*X11488Y10617*X11400Y10485*X11318Y10348*X11247Y10208*X11184Y10063*X11130Y9914*X11085Y9764*X11049Y9609*X11049Y8085*X16129Y8085*X16129Y9609*X17082Y11196D2*X17082Y9672D1*X22162Y9672*X22162Y11196*X24765Y10307D2*X26289Y10307D1*X26289Y15387*X24765Y15387*D105*X9779Y4910D2*X20574Y4910D1*X21102Y5014*X21623Y5146*X22136Y5304*X22642Y5486*X23137Y5692*X23622Y5923*X24094Y6177*X24554Y6454*X25001Y6754*X25430Y7074*X25847Y7417*X26243Y7777*X26622Y8158*X26982Y8555*X27323Y8971*X27643Y9403*X27940Y9850*X28214Y10310*X28468Y10785*X28697Y11270*X28903Y11768*X29083Y12273*X29238Y12786*X29370Y13307*X29474Y13835*X29553Y14366*X29604Y14900*X29632Y15436*X29632Y15974*X29604Y16510*X29553Y17043*X29474Y17574*X29370Y18103*X29238Y18623*X29083Y19136*X28903Y19642*X28697Y20140*X28468Y20625*X28214Y21100*X27940Y21560*X27643Y22007*X27323Y22438*X26982Y22855*X26622Y23251*X26243Y23632*X25847Y23993*X25430Y24336*X25001Y24656*X24554Y24956*X24094Y25232*X23622Y25486*X23137Y25718*X22642Y25923*X22136Y26106*X21623Y26264*X21102Y26396*X20574Y26500*X9779Y26500*X9779Y4910*D106*X30988Y14117D2*X30988Y12974D1*X30416Y13546D2*X31560Y13546D1*X6794Y20531D2*X5652Y20531D1*X6223Y19959D2*X6223Y21102D1*X6794Y13546D2*X5652Y13546D1*X6223Y12974D2*X6223Y14117D1*X7684Y10879D2*X8826Y10879D1*X8255Y10307D2*X8255Y11450D1*X9705Y2753D2*X9705Y1227D1*X11229Y2372D2*X9705Y2372D1*X14381Y3515D2*X14381Y1227D1*X15527Y1227*X15908Y1608*X15908Y3134*X15527Y3515*X14381Y3515*X13569Y3515D2*X13569Y1227D1*X12045Y3515*X12045Y1227*X11229Y1227D2*X11229Y2753D1*X10467Y3515*X9705Y2753*X7366Y3134D2*X7747Y3515D1*X8509Y3515*X8893Y3134*X8893Y2753*X8509Y2372*X8128Y2372D2*X8509Y2372D1*X8893Y1991*X8893Y1608*X8509Y1227*X7747Y1227*X7366Y1608*D107*X31369Y19832D2*X33909Y19832D1*X32639Y18562D2*X32639Y21102D1*X31369Y11260D2*X33909Y11260D1*D108*X29723Y29474D2*X29723Y28390D1*X29180Y27846*X28638Y28390*X28638Y29474*X28085Y29202D2*X27813Y29474D1*X27272Y29474*X27000Y29202*X27000Y28118*X27272Y27846D2*X27813Y27846D1*X28085Y28118*X28085Y29202*X27000Y28118*X27272Y27846*X18098Y21674D2*X21780Y21674D1*X16114Y29202D2*X16114Y28118D1*X19929Y29474D2*X19929Y28390D1*X19388Y27846*X18844Y28390*X18844Y29474*X18293Y29474D2*X17208Y29474D1*X17208Y28661*X17208Y28118D2*X17478Y27846D1*X18021Y27846*X18293Y28118*X18293Y28661*X18021Y28931*X17750Y28931*X17208Y28661*X15570Y28661D2*X16655Y28661D1*X8128Y29548D2*X13970Y29548D1*X13970Y27262D2*X8128Y27262D1*X16066Y25484D2*X12382Y25484D1*X12382Y23706D2*X16066Y23706D1*X6325Y21471D2*X6233Y21544D1*X6147Y21626*X6068Y21714*X5997Y21806*X5933Y21905*X5875Y22009*X5827Y22116*X5786Y22225*X5756Y22339*X5733Y22456*X5720Y22573*X5715Y22690*X8174Y23894D2*X8263Y23818D1*X8346Y23739*X8423Y23650*X8491Y23558*X8552Y23462*X8608Y23360*X8654Y23254*X8694Y23144*X8725Y23033*X8745Y22921*X8758Y22804*X8763Y22690*X8174Y21486D2*X8263Y21562D1*X8346Y21641*X8423Y21730*X8491Y21821*X8552Y21918*X8608Y22019*X8654Y22126*X8694Y22235*X8725Y22347*X8745Y22459*X8758Y22576*X8763Y22690*X6353Y23929D2*X6259Y23856D1*X6170Y23774*X6086Y23686*X6010Y23592*X5944Y23492*X5885Y23388*X5832Y23277*X5791Y23165*X5758Y23048*X5735Y22931*X5720Y22809*X5715Y22690*X6325Y14486D2*X6233Y14559D1*X6147Y14641*X6068Y14729*X5997Y14821*X5933Y14920*X5875Y15024*X5827Y15131*X5786Y15240*X5756Y15354*X5733Y15471*X5720Y15588*X5715Y15705*X8174Y16909D2*X8263Y16833D1*X8346Y16754*X8423Y16665*X8491Y16574*X8552Y16477*X8608Y16375*X8654Y16269*X8694Y16159*X8725Y16048*X8745Y15936*X8758Y15819*X8763Y15705*X8174Y14501D2*X8263Y14577D1*X8346Y14656*X8423Y14745*X8491Y14836*X8552Y14933*X8608Y15034*X8654Y15141*X8694Y15250*X8725Y15362*X8745Y15474*X8758Y15591*X8763Y15705*X6353Y16944D2*X6259Y16871D1*X6170Y16789*X6086Y16700*X6010Y16607*X5944Y16507*X5885Y16403*X5832Y16292*X5791Y16180*X5758Y16063*X5735Y15946*X5720Y15824*X5715Y15705*X8763Y8720D2*X8758Y8600D1*X8743Y8479*X8720Y8362*X8687Y8245*X8646Y8133*X8593Y8021*X8534Y7917*X8468Y7818*X8392Y7724*X8308Y7635*X8219Y7554*X8125Y7480*X5715Y8720D2*X5720Y8606D1*X5733Y8489*X5753Y8377*X5784Y8265*X5824Y8156*X5870Y8049*X5926Y7948*X5987Y7851*X6055Y7760*X6132Y7671*X6215Y7592*X6304Y7516*X8763Y8720D2*X8758Y8837D1*X8745Y8954*X8722Y9070*X8692Y9185*X8651Y9294*X8603Y9401*X8545Y9505*X8481Y9604*X8410Y9695*X8331Y9784*X8245Y9865*X8153Y9939*X5715Y8720D2*X5720Y8834D1*X5733Y8951*X5753Y9063*X5784Y9174*X5824Y9284*X5870Y9390*X5926Y9492*X5987Y9588*X6055Y9680*X6132Y9769*X6215Y9848*X6304Y9924*X20203Y2804D2*X20747Y2261D1*X20747Y1720*X20203Y1176*X18567Y1176D2*X19652Y1176D1*X18567Y2532D2*X18837Y2804D1*X19380Y2804*X19652Y2532*X19652Y2261*X18567Y1176*X18019Y1176D2*X17475Y1720D1*X17475Y2261*X18019Y2804*X12382Y5926D2*X16066Y5926D1*X16066Y7704D2*X12382Y7704D1*X22733Y7196D2*X19050Y7196D1*X19050Y8974D2*X22733Y8974D1*X12065Y11958D2*X15748Y11958D1*X15748Y13736D2*X12065Y13736D1*X21463Y13863D2*X17780Y13863D1*X17780Y15641D2*X21463Y15641D1*X21463Y15768D2*X17780Y15768D1*X17780Y17546D2*X21463Y17546D1*X21463Y17673D2*X17780Y17673D1*X17780Y19451D2*X21463Y19451D1*X21780Y19896D2*X18098Y19896D1*X26670Y13863D2*X26670Y17546D1*X28448Y17546D2*X28448Y13863D1*X32939Y16909D2*X33028Y16833D1*X33111Y16754*X33188Y16665*X33256Y16574*X33317Y16477*X33373Y16375*X33419Y16269*X33459Y16159*X33490Y16048*X33510Y15936*X33523Y15819*X33528Y15705*X31090Y14486D2*X30998Y14559D1*X30912Y14641*X30833Y14729*X30762Y14821*X30698Y14920*X30640Y15024*X30592Y15131*X30551Y15240*X30521Y15354*X30498Y15471*X30485Y15588*X30480Y15705*X31118Y16944D2*X31024Y16871D1*X30935Y16789*X30851Y16700*X30775Y16607*X30709Y16507*X30650Y16403*X30597Y16292*X30556Y16180*X30523Y16063*X30500Y15946*X30485Y15824*X30480Y15705*X32939Y14501D2*X33028Y14577D1*X33111Y14656*X33188Y14745*X33256Y14836*X33317Y14933*X33373Y15034*X33419Y15141*X33459Y15250*X33490Y15362*X33510Y15474*X33523Y15591*X33528Y15705*D109*X25336Y3132D2*X25641Y3132D1*X22530Y1151D2*X22530Y2068D1*X24402Y2068D2*X24402Y1151D1*X23465Y1608D2*X23769Y1608D1*X24077Y2068D2*X23465Y2068D1*X23465Y3132D2*X24077Y3132D1*X23465Y2675D2*X23465Y3287D1*X23769Y3592*X24077Y3287*X24077Y2675*X24402Y2675D2*X24402Y3592D1*X24707Y3287*X25011Y3592*X25011Y2675*X25336Y2675D2*X25336Y3592D1*X25946Y3592*X26881Y3439D2*X26728Y3592D1*X26424Y3592*X26271Y3439*X26271Y3287*X26424Y3132*X26728Y3132*X26881Y2979*X26881Y2827*X26728Y2675*X26424Y2675*X26271Y2827*X25336Y2675D2*X25946Y2675D1*X25336Y1151D2*X25336Y2068D1*X26881Y1608D2*X26271Y1608D1*X27818Y2068D2*X27818Y1151D1*X27208Y2068*X27208Y1151*X26881Y1151D2*X26881Y1763D1*X26576Y2068*X26271Y1763*X26271Y1151*X25946Y1151D2*X25946Y2068D1*X25641Y1763*X25336Y2068*X25011Y2068D2*X25011Y1151D1*X24707Y1455*X24402Y1151*X24077Y1151D2*X23465Y1151D1*X23465Y2068*X23139Y2068D2*X23139Y1151D1*X22530Y2068*X22530Y2827D2*X22682Y2675D1*X22835Y2675*X22987Y2827*X22987Y3592*X22835Y3592D2*X23139Y3592D1*X9322Y28623D2*X9627Y28928D1*X9627Y28011*X9931Y28011D2*X9322Y28011D1*X10257Y28164D2*X10257Y28776D1*X10409Y28928*X10714Y28928*X10869Y28776*X10257Y28164*X10409Y28011*X10714Y28011*X10869Y28164*X10869Y28776*X11803Y28776D2*X11651Y28928D1*X11346Y28928*X11194Y28776*X11194Y28164*X11803Y28164D2*X11803Y28776D1*X11194Y28164*X11346Y28011*X11651Y28011*X11803Y28164*X12128Y28011D2*X12128Y28623D1*X12586Y28623*X12738Y28468*X12738Y28011*X0Y0D2*M02*