G75*
G70*
%OFA0B0*%
%FSLAX24Y24*%
%IPPOS*%
%LPD*%
%AMOC8*
5,1,8,0,0,1.08239X$1,22.5*
%
%ADD10C,0.0515*%
%ADD11C,0.0709*%
%ADD12C,0.0476*%
%ADD13C,0.0160*%
D10*
X002600Y002600D03*
X002600Y003600D03*
X002600Y004600D03*
X002600Y005600D03*
X002600Y006600D03*
X002600Y007600D03*
X002600Y008600D03*
X002600Y009600D03*
X002600Y010600D03*
X002600Y011600D03*
X002600Y012600D03*
X002600Y013600D03*
X002600Y014850D03*
X002600Y015850D03*
X002600Y017100D03*
X002600Y018100D03*
X003850Y018350D03*
X005850Y018350D03*
X006850Y018350D03*
X007600Y018350D03*
X008350Y018350D03*
X008350Y016350D03*
X008100Y015600D03*
X007600Y016350D03*
X006850Y016350D03*
X008100Y013600D03*
X009600Y014850D03*
X011600Y014850D03*
X011600Y017600D03*
X011600Y019600D03*
X011850Y011850D03*
X012600Y011850D03*
X013850Y010850D03*
X013850Y009850D03*
X012600Y009850D03*
X011850Y009850D03*
X011850Y006850D03*
X009850Y006850D03*
X009600Y006100D03*
X009600Y005350D03*
X008350Y004350D03*
X007600Y005350D03*
X007600Y006100D03*
X006350Y004350D03*
X006850Y003350D03*
X006850Y002350D03*
X005850Y002350D03*
X003850Y002350D03*
X008850Y002350D03*
X008850Y003350D03*
X008850Y009350D03*
X008100Y009350D03*
X007100Y009350D03*
X007100Y011350D03*
X008100Y011350D03*
X008850Y011350D03*
X009600Y011350D03*
X009600Y009350D03*
D11*
X013850Y004850D03*
X013850Y015850D03*
X007850Y019600D03*
X006100Y019600D03*
X001350Y017600D03*
X001350Y015600D03*
X001350Y013100D03*
X001350Y011100D03*
X001350Y009100D03*
X001350Y007100D03*
X001350Y005100D03*
X001350Y003100D03*
X004100Y004850D03*
D12*
X004850Y003350D03*
X005350Y003850D03*
X005850Y003350D03*
X006600Y005350D03*
X006100Y005850D03*
X006600Y006350D03*
X007350Y007350D03*
X006850Y007850D03*
X007350Y008350D03*
X008350Y007850D03*
X008850Y007350D03*
X008850Y008350D03*
X010350Y010350D03*
X010850Y009850D03*
X010850Y010850D03*
X010600Y012850D03*
X010100Y013350D03*
X010600Y013850D03*
X009350Y012350D03*
X008850Y012850D03*
X008350Y012350D03*
X007100Y012850D03*
X006600Y013350D03*
X007100Y013850D03*
X006600Y014850D03*
X006100Y015350D03*
X007100Y015350D03*
X005850Y017350D03*
X005350Y016850D03*
X004850Y017350D03*
X009350Y017100D03*
X009850Y017600D03*
X009350Y018100D03*
X009850Y016100D03*
X010350Y015600D03*
X010850Y016100D03*
X011850Y013850D03*
X012350Y013350D03*
X011850Y012850D03*
X012100Y008850D03*
X012600Y008350D03*
X012100Y007850D03*
X011100Y007850D03*
X010600Y008350D03*
X011100Y008850D03*
X010600Y005600D03*
X011100Y005100D03*
X011600Y005600D03*
X010350Y003850D03*
X009850Y003350D03*
X009850Y004350D03*
D13*
X000600Y002170D02*
X000600Y018530D01*
X000668Y018462D01*
X000922Y018316D01*
X001204Y018240D01*
X001496Y018240D01*
X001778Y018316D01*
X002032Y018462D01*
X002238Y018668D01*
X002384Y018922D01*
X002460Y019204D01*
X002460Y019496D01*
X002384Y019778D01*
X002238Y020032D01*
X002170Y020100D01*
X005910Y020100D01*
X005895Y020095D01*
X005820Y020057D01*
X005752Y020008D01*
X005692Y019948D01*
X005643Y019880D01*
X005605Y019805D01*
X005579Y019725D01*
X005566Y019642D01*
X005566Y019638D01*
X006062Y019638D01*
X006062Y019562D01*
X005566Y019562D01*
X005566Y019558D01*
X005579Y019475D01*
X005605Y019395D01*
X005643Y019320D01*
X005692Y019252D01*
X005752Y019192D01*
X005820Y019143D01*
X005895Y019105D01*
X005975Y019079D01*
X006058Y019066D01*
X006062Y019066D01*
X006062Y019562D01*
X006138Y019562D01*
X006138Y019638D01*
X006634Y019638D01*
X006634Y019642D01*
X006621Y019725D01*
X006595Y019805D01*
X006557Y019880D01*
X006508Y019948D01*
X006448Y020008D01*
X006380Y020057D01*
X006305Y020095D01*
X006290Y020100D01*
X007713Y020100D01*
X007559Y020036D01*
X007414Y019891D01*
X007336Y019702D01*
X007336Y019498D01*
X007414Y019309D01*
X007559Y019164D01*
X007748Y019086D01*
X007952Y019086D01*
X008141Y019164D01*
X008286Y019309D01*
X008364Y019498D01*
X008364Y019702D01*
X008286Y019891D01*
X008141Y020036D01*
X007987Y020100D01*
X013030Y020100D01*
X012962Y020032D01*
X012816Y019778D01*
X012740Y019496D01*
X012740Y019204D01*
X012816Y018922D01*
X012962Y018668D01*
X013168Y018462D01*
X013422Y018316D01*
X013704Y018240D01*
X013996Y018240D01*
X014278Y018316D01*
X014532Y018462D01*
X014600Y018530D01*
X014600Y002170D01*
X014532Y002238D01*
X014278Y002384D01*
X013996Y002460D01*
X013704Y002460D01*
X013422Y002384D01*
X013168Y002238D01*
X012962Y002032D01*
X012816Y001778D01*
X012740Y001496D01*
X012740Y001204D01*
X012816Y000922D01*
X012962Y000668D01*
X013030Y000600D01*
X002170Y000600D01*
X002238Y000668D01*
X002384Y000922D01*
X002460Y001204D01*
X002460Y001496D01*
X002384Y001778D01*
X002238Y002032D01*
X002032Y002238D01*
X001778Y002384D01*
X001496Y002460D01*
X001204Y002460D01*
X000922Y002384D01*
X000668Y002238D01*
X000600Y002170D01*
X000600Y002319D02*
X000809Y002319D01*
X001059Y002664D02*
X001248Y002586D01*
X001452Y002586D01*
X001641Y002664D01*
X001786Y002809D01*
X001864Y002998D01*
X001864Y003202D01*
X001786Y003391D01*
X001641Y003536D01*
X001452Y003614D01*
X001248Y003614D01*
X001059Y003536D01*
X000914Y003391D01*
X000836Y003202D01*
X000836Y002998D01*
X000914Y002809D01*
X001059Y002664D01*
X001126Y002636D02*
X000600Y002636D01*
X000600Y002478D02*
X002180Y002478D01*
X002173Y002498D02*
X002195Y002432D01*
X002226Y002371D01*
X002266Y002315D01*
X002315Y002266D01*
X002371Y002226D01*
X002432Y002195D01*
X002498Y002173D01*
X002566Y002163D01*
X002600Y002163D01*
X002634Y002163D01*
X002702Y002173D01*
X002768Y002195D01*
X002829Y002226D01*
X002885Y002266D01*
X002934Y002315D01*
X002974Y002371D01*
X003005Y002432D01*
X003027Y002498D01*
X003037Y002566D01*
X003037Y002600D01*
X003037Y002634D01*
X003027Y002702D01*
X003005Y002768D01*
X002974Y002829D01*
X002934Y002885D01*
X002885Y002934D01*
X002829Y002974D01*
X002768Y003005D01*
X002702Y003027D01*
X002634Y003037D01*
X002600Y003037D01*
X002600Y002600D01*
X002600Y002600D01*
X003037Y002600D01*
X002600Y002600D01*
X002600Y002600D01*
X002600Y002600D01*
X002163Y002600D01*
X002163Y002566D01*
X002173Y002498D01*
X002163Y002600D02*
X002600Y002600D01*
X002600Y003037D01*
X002566Y003037D01*
X002498Y003027D01*
X002432Y003005D01*
X002371Y002974D01*
X002315Y002934D01*
X002266Y002885D01*
X002226Y002829D01*
X002195Y002768D01*
X002173Y002702D01*
X002163Y002634D01*
X002163Y002600D01*
X002163Y002636D02*
X001574Y002636D01*
X001772Y002795D02*
X002208Y002795D01*
X002342Y002953D02*
X001846Y002953D01*
X001864Y003112D02*
X004526Y003112D01*
X004513Y003125D02*
X004625Y003013D01*
X004771Y002952D01*
X004929Y002952D01*
X005075Y003013D01*
X005187Y003125D01*
X005248Y003271D01*
X005248Y003429D01*
X005231Y003469D01*
X005271Y003452D01*
X005429Y003452D01*
X005469Y003469D01*
X005452Y003429D01*
X005452Y003271D01*
X005513Y003125D01*
X005625Y003013D01*
X005771Y002952D01*
X005929Y002952D01*
X006075Y003013D01*
X006187Y003125D01*
X006248Y003271D01*
X006248Y003429D01*
X006187Y003575D01*
X006075Y003687D01*
X005929Y003748D01*
X005771Y003748D01*
X005731Y003731D01*
X005748Y003771D01*
X005748Y003929D01*
X005687Y004075D01*
X005575Y004187D01*
X005429Y004248D01*
X005271Y004248D01*
X005125Y004187D01*
X005013Y004075D01*
X004952Y003929D01*
X004952Y003771D01*
X004969Y003731D01*
X004929Y003748D01*
X004771Y003748D01*
X004625Y003687D01*
X004513Y003575D01*
X004452Y003429D01*
X004452Y003271D01*
X004513Y003125D01*
X004453Y003270D02*
X002860Y003270D01*
X002836Y003246D02*
X002954Y003364D01*
X003017Y003517D01*
X003017Y003683D01*
X002954Y003836D01*
X002836Y003954D01*
X002683Y004017D01*
X002517Y004017D01*
X002364Y003954D01*
X002246Y003836D01*
X002183Y003683D01*
X002183Y003517D01*
X002246Y003364D01*
X002364Y003246D01*
X002517Y003183D01*
X002683Y003183D01*
X002836Y003246D01*
X002981Y003429D02*
X004452Y003429D01*
X004524Y003587D02*
X003017Y003587D01*
X002992Y003746D02*
X004765Y003746D01*
X004935Y003746D02*
X004963Y003746D01*
X004952Y003904D02*
X002886Y003904D01*
X002768Y004195D02*
X002702Y004173D01*
X002634Y004163D01*
X002600Y004163D01*
X002600Y004600D01*
X002600Y004600D01*
X002600Y005037D01*
X002634Y005037D01*
X002702Y005027D01*
X002768Y005005D01*
X002829Y004974D01*
X002885Y004934D01*
X002934Y004885D01*
X002974Y004829D01*
X003005Y004768D01*
X003027Y004702D01*
X003037Y004634D01*
X003037Y004600D01*
X002600Y004600D01*
X002600Y004600D01*
X002600Y004600D01*
X002163Y004600D01*
X002163Y004566D01*
X002173Y004498D01*
X002195Y004432D01*
X002226Y004371D01*
X002266Y004315D01*
X002315Y004266D01*
X002371Y004226D01*
X002432Y004195D01*
X002498Y004173D01*
X002566Y004163D01*
X002600Y004163D01*
X002600Y004600D01*
X002600Y005037D01*
X002566Y005037D01*
X002498Y005027D01*
X002432Y005005D01*
X002371Y004974D01*
X002315Y004934D01*
X002266Y004885D01*
X002226Y004829D01*
X002195Y004768D01*
X002173Y004702D01*
X002163Y004634D01*
X002163Y004600D01*
X002600Y004600D01*
X003037Y004600D01*
X003037Y004566D01*
X003027Y004498D01*
X003005Y004432D01*
X002974Y004371D01*
X002934Y004315D01*
X002885Y004266D01*
X002829Y004226D01*
X002768Y004195D01*
X002820Y004221D02*
X005206Y004221D01*
X005007Y004063D02*
X000600Y004063D01*
X000600Y004221D02*
X002380Y004221D01*
X002221Y004380D02*
X000600Y004380D01*
X000600Y004538D02*
X002167Y004538D01*
X002172Y004697D02*
X001674Y004697D01*
X001641Y004664D02*
X001786Y004809D01*
X001864Y004998D01*
X001864Y005202D01*
X001786Y005391D01*
X001641Y005536D01*
X001452Y005614D01*
X001248Y005614D01*
X001059Y005536D01*
X000914Y005391D01*
X000836Y005202D01*
X000836Y004998D01*
X000914Y004809D01*
X001059Y004664D01*
X001248Y004586D01*
X001452Y004586D01*
X001641Y004664D01*
X001805Y004855D02*
X002245Y004855D01*
X002457Y005014D02*
X001864Y005014D01*
X001864Y005172D02*
X003695Y005172D01*
X003664Y005141D02*
X003586Y004952D01*
X003586Y004748D01*
X003664Y004559D01*
X003809Y004414D01*
X003998Y004336D01*
X004202Y004336D01*
X004391Y004414D01*
X004536Y004559D01*
X004614Y004748D01*
X004614Y004952D01*
X004536Y005141D01*
X004391Y005286D01*
X004202Y005364D01*
X003998Y005364D01*
X003809Y005286D01*
X003664Y005141D01*
X003611Y005014D02*
X002743Y005014D01*
X002600Y005014D02*
X002600Y005014D01*
X002600Y004855D02*
X002600Y004855D01*
X002600Y004697D02*
X002600Y004697D01*
X002600Y004600D02*
X002600Y004600D01*
X002600Y004538D02*
X002600Y004538D01*
X002600Y004380D02*
X002600Y004380D01*
X002600Y004221D02*
X002600Y004221D01*
X002979Y004380D02*
X003892Y004380D01*
X003685Y004538D02*
X003033Y004538D01*
X003028Y004697D02*
X003607Y004697D01*
X003586Y004855D02*
X002955Y004855D01*
X002836Y005246D02*
X002683Y005183D01*
X002517Y005183D01*
X002364Y005246D01*
X002246Y005364D01*
X002183Y005517D01*
X002183Y005683D01*
X002246Y005836D01*
X002364Y005954D01*
X002517Y006017D01*
X002683Y006017D01*
X002836Y005954D01*
X002954Y005836D01*
X003017Y005683D01*
X003017Y005517D01*
X002954Y005364D01*
X002836Y005246D01*
X002921Y005331D02*
X003916Y005331D01*
X004284Y005331D02*
X006202Y005331D01*
X006202Y005271D02*
X006263Y005125D01*
X006375Y005013D01*
X006521Y004952D01*
X006679Y004952D01*
X006825Y005013D01*
X006937Y005125D01*
X006998Y005271D01*
X006998Y005429D01*
X006937Y005575D01*
X006825Y005687D01*
X006679Y005748D01*
X006521Y005748D01*
X006481Y005731D01*
X006498Y005771D01*
X006498Y005929D01*
X006481Y005969D01*
X006521Y005952D01*
X006679Y005952D01*
X006825Y006013D01*
X006937Y006125D01*
X006998Y006271D01*
X006998Y006429D01*
X006937Y006575D01*
X006825Y006687D01*
X006679Y006748D01*
X006521Y006748D01*
X006375Y006687D01*
X006263Y006575D01*
X006202Y006429D01*
X006202Y006271D01*
X006219Y006231D01*
X006179Y006248D01*
X006021Y006248D01*
X005875Y006187D01*
X005763Y006075D01*
X005702Y005929D01*
X005702Y005771D01*
X005763Y005625D01*
X005875Y005513D01*
X006021Y005452D01*
X006179Y005452D01*
X006219Y005469D01*
X006202Y005429D01*
X006202Y005271D01*
X006243Y005172D02*
X004505Y005172D01*
X004589Y005014D02*
X006374Y005014D01*
X006433Y004767D02*
X006267Y004767D01*
X006114Y004704D01*
X005996Y004586D01*
X005933Y004433D01*
X005933Y004267D01*
X005996Y004114D01*
X006114Y003996D01*
X006267Y003933D01*
X006433Y003933D01*
X006586Y003996D01*
X006704Y004114D01*
X006767Y004267D01*
X006767Y004433D01*
X006704Y004586D01*
X006586Y004704D01*
X006433Y004767D01*
X006594Y004697D02*
X008106Y004697D01*
X008114Y004704D02*
X007996Y004586D01*
X007933Y004433D01*
X007933Y004267D01*
X007996Y004114D01*
X008114Y003996D01*
X008267Y003933D01*
X008433Y003933D01*
X008586Y003996D01*
X008704Y004114D01*
X008767Y004267D01*
X008767Y004433D01*
X008704Y004586D01*
X008586Y004704D01*
X008433Y004767D01*
X008267Y004767D01*
X008114Y004704D01*
X007976Y004538D02*
X006724Y004538D01*
X006767Y004380D02*
X007933Y004380D01*
X007952Y004221D02*
X006748Y004221D01*
X006653Y004063D02*
X008047Y004063D01*
X008516Y003635D02*
X008476Y003579D01*
X008445Y003518D01*
X008423Y003452D01*
X008413Y003384D01*
X008413Y003350D01*
X008413Y003316D01*
X008423Y003248D01*
X008445Y003182D01*
X008476Y003121D01*
X008516Y003065D01*
X008565Y003016D01*
X008621Y002976D01*
X008682Y002945D01*
X008748Y002923D01*
X008816Y002913D01*
X008850Y002913D01*
X008884Y002913D01*
X008952Y002923D01*
X009018Y002945D01*
X009079Y002976D01*
X009135Y003016D01*
X009184Y003065D01*
X009224Y003121D01*
X009255Y003182D01*
X009277Y003248D01*
X009287Y003316D01*
X009287Y003350D01*
X008850Y003350D01*
X009287Y003350D01*
X009287Y003384D01*
X009277Y003452D01*
X009255Y003518D01*
X009224Y003579D01*
X009184Y003635D01*
X009135Y003684D01*
X009079Y003724D01*
X009018Y003755D01*
X008952Y003777D01*
X008884Y003787D01*
X008850Y003787D01*
X008816Y003787D01*
X008748Y003777D01*
X008682Y003755D01*
X008621Y003724D01*
X008565Y003684D01*
X008516Y003635D01*
X008481Y003587D02*
X007203Y003587D01*
X007204Y003586D02*
X007086Y003704D01*
X006933Y003767D01*
X006767Y003767D01*
X006614Y003704D01*
X006496Y003586D01*
X006433Y003433D01*
X006433Y003267D01*
X006496Y003114D01*
X006614Y002996D01*
X006767Y002933D01*
X006933Y002933D01*
X007086Y002996D01*
X007204Y003114D01*
X007267Y003267D01*
X007267Y003433D01*
X007204Y003586D01*
X007267Y003429D02*
X008420Y003429D01*
X008413Y003350D02*
X008850Y003350D01*
X008850Y003350D01*
X008850Y003350D01*
X008850Y003787D01*
X008850Y003350D01*
X008850Y002913D01*
X008850Y003350D01*
X008850Y003350D01*
X008850Y003350D01*
X008413Y003350D01*
X008420Y003270D02*
X007267Y003270D01*
X007202Y003112D02*
X008483Y003112D01*
X008666Y002953D02*
X006982Y002953D01*
X006952Y002777D02*
X006884Y002787D01*
X006850Y002787D01*
X006816Y002787D01*
X006748Y002777D01*
X006682Y002755D01*
X006621Y002724D01*
X006565Y002684D01*
X006516Y002635D01*
X006476Y002579D01*
X006445Y002518D01*
X006423Y002452D01*
X006413Y002384D01*
X006413Y002350D01*
X006413Y002316D01*
X006423Y002248D01*
X006445Y002182D01*
X006476Y002121D01*
X006516Y002065D01*
X006565Y002016D01*
X006621Y001976D01*
X006682Y001945D01*
X006748Y001923D01*
X006816Y001913D01*
X006850Y001913D01*
X006884Y001913D01*
X006952Y001923D01*
X007018Y001945D01*
X007079Y001976D01*
X007135Y002016D01*
X007184Y002065D01*
X007224Y002121D01*
X007255Y002182D01*
X007277Y002248D01*
X007287Y002316D01*
X007287Y002350D01*
X006850Y002350D01*
X007287Y002350D01*
X007287Y002384D01*
X007277Y002452D01*
X007255Y002518D01*
X007224Y002579D01*
X007184Y002635D01*
X007135Y002684D01*
X007079Y002724D01*
X007018Y002755D01*
X006952Y002777D01*
X006850Y002787D02*
X006850Y002350D01*
X006850Y002350D01*
X006850Y002350D01*
X006850Y001913D01*
X006850Y002350D01*
X006850Y002350D01*
X006850Y002350D01*
X006413Y002350D01*
X006850Y002350D01*
X006850Y002787D01*
X006850Y002636D02*
X006850Y002636D01*
X006850Y002478D02*
X006850Y002478D01*
X006850Y002319D02*
X006850Y002319D01*
X006850Y002161D02*
X006850Y002161D01*
X006850Y002002D02*
X006850Y002002D01*
X007115Y002002D02*
X008608Y002002D01*
X008614Y001996D02*
X008767Y001933D01*
X008933Y001933D01*
X009086Y001996D01*
X009204Y002114D01*
X009267Y002267D01*
X009267Y002433D01*
X009204Y002586D01*
X009086Y002704D01*
X008933Y002767D01*
X008767Y002767D01*
X008614Y002704D01*
X008496Y002586D01*
X008433Y002433D01*
X008433Y002267D01*
X008496Y002114D01*
X008614Y001996D01*
X008477Y002161D02*
X007244Y002161D01*
X007287Y002319D02*
X008433Y002319D01*
X008451Y002478D02*
X007269Y002478D01*
X007183Y002636D02*
X008546Y002636D01*
X008850Y002953D02*
X008850Y002953D01*
X008850Y003112D02*
X008850Y003112D01*
X008850Y003270D02*
X008850Y003270D01*
X008850Y003429D02*
X008850Y003429D01*
X008850Y003587D02*
X008850Y003587D01*
X008850Y003746D02*
X008850Y003746D01*
X008663Y003746D02*
X006986Y003746D01*
X006714Y003746D02*
X005935Y003746D01*
X006176Y003587D02*
X006497Y003587D01*
X006433Y003429D02*
X006248Y003429D01*
X006247Y003270D02*
X006433Y003270D01*
X006498Y003112D02*
X006174Y003112D01*
X005931Y002953D02*
X006718Y002953D01*
X006517Y002636D02*
X006154Y002636D01*
X006204Y002586D02*
X006086Y002704D01*
X005933Y002767D01*
X005767Y002767D01*
X005614Y002704D01*
X005496Y002586D01*
X005433Y002433D01*
X005433Y002267D01*
X005496Y002114D01*
X005614Y001996D01*
X005767Y001933D01*
X005933Y001933D01*
X006086Y001996D01*
X006204Y002114D01*
X006267Y002267D01*
X006267Y002433D01*
X006204Y002586D01*
X006249Y002478D02*
X006431Y002478D01*
X006413Y002319D02*
X006267Y002319D01*
X006223Y002161D02*
X006456Y002161D01*
X006585Y002002D02*
X006092Y002002D01*
X005608Y002002D02*
X004092Y002002D01*
X004086Y001996D02*
X004204Y002114D01*
X004267Y002267D01*
X004267Y002433D01*
X004204Y002586D01*
X004086Y002704D01*
X003933Y002767D01*
X003767Y002767D01*
X003614Y002704D01*
X003496Y002586D01*
X003433Y002433D01*
X003433Y002267D01*
X003496Y002114D01*
X003614Y001996D01*
X003767Y001933D01*
X003933Y001933D01*
X004086Y001996D01*
X004223Y002161D02*
X005477Y002161D01*
X005433Y002319D02*
X004267Y002319D01*
X004249Y002478D02*
X005451Y002478D01*
X005546Y002636D02*
X004154Y002636D01*
X003546Y002636D02*
X003037Y002636D01*
X003020Y002478D02*
X003451Y002478D01*
X003433Y002319D02*
X002937Y002319D01*
X002600Y002319D02*
X002600Y002319D01*
X002600Y002163D02*
X002600Y002600D01*
X002600Y002600D01*
X002600Y002163D01*
X002600Y002478D02*
X002600Y002478D01*
X002600Y002636D02*
X002600Y002636D01*
X002600Y002795D02*
X002600Y002795D01*
X002600Y002953D02*
X002600Y002953D01*
X002858Y002953D02*
X004769Y002953D01*
X004931Y002953D02*
X005769Y002953D01*
X005526Y003112D02*
X005174Y003112D01*
X005247Y003270D02*
X005453Y003270D01*
X005452Y003429D02*
X005248Y003429D01*
X005737Y003746D02*
X005765Y003746D01*
X005748Y003904D02*
X009952Y003904D01*
X009952Y003929D02*
X009952Y003771D01*
X009969Y003731D01*
X009929Y003748D01*
X009771Y003748D01*
X009625Y003687D01*
X009513Y003575D01*
X009452Y003429D01*
X009452Y003271D01*
X009513Y003125D01*
X009625Y003013D01*
X009771Y002952D01*
X009929Y002952D01*
X010075Y003013D01*
X010187Y003125D01*
X010248Y003271D01*
X010248Y003429D01*
X010231Y003469D01*
X010271Y003452D01*
X010429Y003452D01*
X010575Y003513D01*
X010687Y003625D01*
X010748Y003771D01*
X010748Y003929D01*
X010687Y004075D01*
X010575Y004187D01*
X010429Y004248D01*
X010271Y004248D01*
X010231Y004231D01*
X010248Y004271D01*
X010248Y004429D01*
X010187Y004575D01*
X010075Y004687D01*
X009929Y004748D01*
X009771Y004748D01*
X009625Y004687D01*
X009513Y004575D01*
X009452Y004429D01*
X009452Y004271D01*
X009513Y004125D01*
X009625Y004013D01*
X009771Y003952D01*
X009929Y003952D01*
X009969Y003969D01*
X009952Y003929D01*
X009935Y003746D02*
X009963Y003746D01*
X009765Y003746D02*
X009037Y003746D01*
X009219Y003587D02*
X009524Y003587D01*
X009452Y003429D02*
X009280Y003429D01*
X009280Y003270D02*
X009453Y003270D01*
X009526Y003112D02*
X009217Y003112D01*
X009034Y002953D02*
X009769Y002953D01*
X009931Y002953D02*
X014600Y002953D01*
X014600Y002795D02*
X002992Y002795D01*
X003477Y002161D02*
X002109Y002161D01*
X002255Y002002D02*
X003608Y002002D01*
X002452Y001527D02*
X012748Y001527D01*
X012740Y001368D02*
X002460Y001368D01*
X002460Y001210D02*
X012740Y001210D01*
X012781Y001051D02*
X002419Y001051D01*
X002367Y000893D02*
X012833Y000893D01*
X012924Y000734D02*
X002276Y000734D01*
X002409Y001685D02*
X012791Y001685D01*
X012853Y001844D02*
X002347Y001844D01*
X002263Y002319D02*
X001891Y002319D01*
X001836Y003270D02*
X002340Y003270D01*
X002219Y003429D02*
X001749Y003429D01*
X001518Y003587D02*
X002183Y003587D01*
X002208Y003746D02*
X000600Y003746D01*
X000600Y003904D02*
X002314Y003904D01*
X002279Y005331D02*
X001811Y005331D01*
X001688Y005489D02*
X002194Y005489D01*
X002183Y005648D02*
X000600Y005648D01*
X000600Y005806D02*
X002233Y005806D01*
X002389Y005965D02*
X000600Y005965D01*
X000600Y006123D02*
X005810Y006123D01*
X005717Y005965D02*
X002811Y005965D01*
X002967Y005806D02*
X005702Y005806D01*
X005753Y005648D02*
X003017Y005648D01*
X003006Y005489D02*
X005932Y005489D01*
X006498Y005806D02*
X007304Y005806D01*
X007246Y005864D02*
X007183Y006017D01*
X007183Y006183D01*
X007246Y006336D01*
X007364Y006454D01*
X007517Y006517D01*
X007683Y006517D01*
X007836Y006454D01*
X007954Y006336D01*
X008017Y006183D01*
X008017Y006017D01*
X007954Y005864D01*
X007836Y005746D01*
X007786Y005725D01*
X007836Y005704D01*
X007954Y005586D01*
X008017Y005433D01*
X008017Y005267D01*
X007954Y005114D01*
X007836Y004996D01*
X007683Y004933D01*
X007517Y004933D01*
X007364Y004996D01*
X007246Y005114D01*
X007183Y005267D01*
X007183Y005433D01*
X007246Y005586D01*
X007364Y005704D01*
X007414Y005725D01*
X007364Y005746D01*
X007246Y005864D01*
X007204Y005965D02*
X006709Y005965D01*
X006936Y006123D02*
X007183Y006123D01*
X007223Y006282D02*
X006998Y006282D01*
X006993Y006440D02*
X007350Y006440D01*
X007271Y006952D02*
X007125Y007013D01*
X007013Y007125D01*
X006952Y007271D01*
X006952Y007429D01*
X006969Y007469D01*
X006929Y007452D01*
X006771Y007452D01*
X006625Y007513D01*
X006513Y007625D01*
X006452Y007771D01*
X006452Y007929D01*
X006513Y008075D01*
X006625Y008187D01*
X006771Y008248D01*
X006929Y008248D01*
X006969Y008231D01*
X006952Y008271D01*
X006952Y008429D01*
X007013Y008575D01*
X007125Y008687D01*
X007271Y008748D01*
X007429Y008748D01*
X007575Y008687D01*
X007687Y008575D01*
X007748Y008429D01*
X007748Y008271D01*
X007687Y008125D01*
X007575Y008013D01*
X007429Y007952D01*
X007271Y007952D01*
X007231Y007969D01*
X007248Y007929D01*
X007248Y007771D01*
X007231Y007731D01*
X007271Y007748D01*
X007429Y007748D01*
X007575Y007687D01*
X007687Y007575D01*
X007748Y007429D01*
X007748Y007271D01*
X007687Y007125D01*
X007575Y007013D01*
X007429Y006952D01*
X007271Y006952D01*
X007063Y007074D02*
X001864Y007074D01*
X001864Y006998D02*
X001864Y007202D01*
X001786Y007391D01*
X002235Y007391D01*
X002246Y007364D02*
X002364Y007246D01*
X002517Y007183D01*
X002683Y007183D01*
X002836Y007246D01*
X002954Y007364D01*
X003017Y007517D01*
X003017Y007683D01*
X002954Y007836D01*
X002836Y007954D01*
X002683Y008017D01*
X002517Y008017D01*
X002364Y007954D01*
X002246Y007836D01*
X002183Y007683D01*
X002183Y007517D01*
X002246Y007364D01*
X002183Y007550D02*
X001609Y007550D01*
X001641Y007536D02*
X001452Y007614D01*
X001248Y007614D01*
X001059Y007536D01*
X000914Y007391D01*
X000600Y007391D01*
X000600Y007233D02*
X000848Y007233D01*
X000836Y007202D02*
X000836Y006998D01*
X000914Y006809D01*
X001059Y006664D01*
X001248Y006586D01*
X001452Y006586D01*
X001641Y006664D01*
X001786Y006809D01*
X001864Y006998D01*
X001830Y006916D02*
X002297Y006916D01*
X002315Y006934D02*
X002266Y006885D01*
X002226Y006829D01*
X002195Y006768D01*
X002173Y006702D01*
X002163Y006634D01*
X002163Y006600D01*
X002163Y006566D01*
X002173Y006498D01*
X002195Y006432D01*
X002226Y006371D01*
X002266Y006315D01*
X002315Y006266D01*
X002371Y006226D01*
X002432Y006195D01*
X002498Y006173D01*
X002566Y006163D01*
X002600Y006163D01*
X002634Y006163D01*
X002702Y006173D01*
X002768Y006195D01*
X002829Y006226D01*
X002885Y006266D01*
X002934Y006315D01*
X002974Y006371D01*
X003005Y006432D01*
X003027Y006498D01*
X003037Y006566D01*
X003037Y006600D01*
X003037Y006634D01*
X003027Y006702D01*
X003005Y006768D01*
X002974Y006829D01*
X002934Y006885D01*
X002885Y006934D01*
X002829Y006974D01*
X002768Y007005D01*
X002702Y007027D01*
X002634Y007037D01*
X002600Y007037D01*
X002600Y006600D01*
X002600Y006600D01*
X003037Y006600D01*
X002600Y006600D01*
X002600Y006600D01*
X002600Y006600D01*
X002163Y006600D01*
X002600Y006600D01*
X002600Y007037D01*
X002566Y007037D01*
X002498Y007027D01*
X002432Y007005D01*
X002371Y006974D01*
X002315Y006934D01*
X002191Y006757D02*
X001734Y006757D01*
X001483Y006599D02*
X002163Y006599D01*
X002192Y006440D02*
X000600Y006440D01*
X000600Y006282D02*
X002300Y006282D01*
X002600Y006282D02*
X002600Y006282D01*
X002600Y006163D02*
X002600Y006600D01*
X002600Y006600D01*
X002600Y006163D01*
X002600Y006440D02*
X002600Y006440D01*
X002600Y006599D02*
X002600Y006599D01*
X002600Y006757D02*
X002600Y006757D01*
X002600Y006916D02*
X002600Y006916D01*
X002804Y007233D02*
X006968Y007233D01*
X006952Y007391D02*
X002965Y007391D01*
X003017Y007550D02*
X006588Y007550D01*
X006478Y007708D02*
X003007Y007708D01*
X002924Y007867D02*
X006452Y007867D01*
X006492Y008025D02*
X000600Y008025D01*
X000600Y007867D02*
X002276Y007867D01*
X002193Y007708D02*
X000600Y007708D01*
X000600Y007550D02*
X001091Y007550D01*
X000914Y007391D02*
X000836Y007202D01*
X000836Y007074D02*
X000600Y007074D01*
X000600Y006916D02*
X000870Y006916D01*
X000966Y006757D02*
X000600Y006757D01*
X000600Y006599D02*
X001217Y006599D01*
X001852Y007233D02*
X002396Y007233D01*
X002903Y006916D02*
X009433Y006916D01*
X009433Y006933D02*
X009433Y006767D01*
X009496Y006614D01*
X009592Y006517D01*
X009517Y006517D01*
X009364Y006454D01*
X009246Y006336D01*
X009183Y006183D01*
X009183Y006017D01*
X009246Y005864D01*
X009364Y005746D01*
X009391Y005735D01*
X009371Y005724D01*
X009315Y005684D01*
X009266Y005635D01*
X009226Y005579D01*
X009195Y005518D01*
X009173Y005452D01*
X009163Y005384D01*
X009163Y005350D01*
X009163Y005316D01*
X009173Y005248D01*
X009195Y005182D01*
X009226Y005121D01*
X009266Y005065D01*
X009315Y005016D01*
X009371Y004976D01*
X009432Y004945D01*
X009498Y004923D01*
X009566Y004913D01*
X009600Y004913D01*
X009634Y004913D01*
X009702Y004923D01*
X009768Y004945D01*
X009829Y004976D01*
X009885Y005016D01*
X009934Y005065D01*
X009974Y005121D01*
X010005Y005182D01*
X010027Y005248D01*
X010037Y005316D01*
X010037Y005350D01*
X009600Y005350D01*
X010037Y005350D01*
X010037Y005384D01*
X010027Y005452D01*
X010005Y005518D01*
X009974Y005579D01*
X009934Y005635D01*
X009885Y005684D01*
X009829Y005724D01*
X009809Y005735D01*
X009836Y005746D01*
X009954Y005864D01*
X010017Y006017D01*
X010017Y006183D01*
X009954Y006336D01*
X009858Y006433D01*
X009933Y006433D01*
X010086Y006496D01*
X010204Y006614D01*
X010267Y006767D01*
X010267Y006933D01*
X010204Y007086D01*
X010086Y007204D01*
X009933Y007267D01*
X009767Y007267D01*
X009614Y007204D01*
X009496Y007086D01*
X009433Y006933D01*
X009491Y007074D02*
X009137Y007074D01*
X009187Y007125D02*
X009248Y007271D01*
X009248Y007429D01*
X009187Y007575D01*
X009075Y007687D01*
X008929Y007748D01*
X008771Y007748D01*
X008731Y007731D01*
X008748Y007771D01*
X008748Y007929D01*
X008731Y007969D01*
X008771Y007952D01*
X008929Y007952D01*
X009075Y008013D01*
X009187Y008125D01*
X009248Y008271D01*
X009248Y008429D01*
X009187Y008575D01*
X009075Y008687D01*
X008929Y008748D01*
X008771Y008748D01*
X008625Y008687D01*
X008513Y008575D01*
X008452Y008429D01*
X008452Y008271D01*
X008469Y008231D01*
X008429Y008248D01*
X008271Y008248D01*
X008125Y008187D01*
X008013Y008075D01*
X007952Y007929D01*
X007952Y007771D01*
X008013Y007625D01*
X008125Y007513D01*
X008271Y007452D01*
X008429Y007452D01*
X008469Y007469D01*
X008452Y007429D01*
X008452Y007271D01*
X008513Y007125D01*
X008625Y007013D01*
X008771Y006952D01*
X008929Y006952D01*
X009075Y007013D01*
X009187Y007125D01*
X009232Y007233D02*
X009683Y007233D01*
X010017Y007233D02*
X011637Y007233D01*
X011621Y007224D02*
X011565Y007184D01*
X011516Y007135D01*
X011476Y007079D01*
X011445Y007018D01*
X011423Y006952D01*
X011413Y006884D01*
X011413Y006850D01*
X011413Y006816D01*
X011423Y006748D01*
X011445Y006682D01*
X011476Y006621D01*
X011516Y006565D01*
X011565Y006516D01*
X011621Y006476D01*
X011682Y006445D01*
X011748Y006423D01*
X011816Y006413D01*
X011850Y006413D01*
X011884Y006413D01*
X011952Y006423D01*
X012018Y006445D01*
X012079Y006476D01*
X012135Y006516D01*
X012184Y006565D01*
X012224Y006621D01*
X012255Y006682D01*
X012277Y006748D01*
X012287Y006816D01*
X012287Y006850D01*
X011850Y006850D01*
X012287Y006850D01*
X012287Y006884D01*
X012277Y006952D01*
X012255Y007018D01*
X012224Y007079D01*
X012184Y007135D01*
X012135Y007184D01*
X012079Y007224D01*
X012018Y007255D01*
X011952Y007277D01*
X011884Y007287D01*
X011850Y007287D01*
X011816Y007287D01*
X011748Y007277D01*
X011682Y007255D01*
X011621Y007224D01*
X011473Y007074D02*
X010209Y007074D01*
X010267Y006916D02*
X011417Y006916D01*
X011413Y006850D02*
X011850Y006850D01*
X011850Y006850D01*
X011850Y006850D01*
X011850Y007287D01*
X011850Y006850D01*
X011850Y006413D01*
X011850Y006850D01*
X011850Y006850D01*
X011850Y006850D01*
X011413Y006850D01*
X011422Y006757D02*
X010263Y006757D01*
X010189Y006599D02*
X011492Y006599D01*
X011696Y006440D02*
X009951Y006440D01*
X009977Y006282D02*
X014600Y006282D01*
X014600Y006440D02*
X012004Y006440D01*
X011850Y006440D02*
X011850Y006440D01*
X011850Y006599D02*
X011850Y006599D01*
X011850Y006757D02*
X011850Y006757D01*
X011850Y006916D02*
X011850Y006916D01*
X011850Y007074D02*
X011850Y007074D01*
X011850Y007233D02*
X011850Y007233D01*
X012063Y007233D02*
X014600Y007233D01*
X014600Y007391D02*
X009248Y007391D01*
X009198Y007550D02*
X010838Y007550D01*
X010875Y007513D02*
X011021Y007452D01*
X011179Y007452D01*
X011325Y007513D01*
X011437Y007625D01*
X011498Y007771D01*
X011498Y007929D01*
X011437Y008075D01*
X011325Y008187D01*
X011179Y008248D01*
X011021Y008248D01*
X010981Y008231D01*
X010998Y008271D01*
X010998Y008429D01*
X010981Y008469D01*
X011021Y008452D01*
X011179Y008452D01*
X011325Y008513D01*
X011437Y008625D01*
X011498Y008771D01*
X011498Y008929D01*
X011437Y009075D01*
X011325Y009187D01*
X011179Y009248D01*
X011021Y009248D01*
X010875Y009187D01*
X010763Y009075D01*
X010702Y008929D01*
X010702Y008771D01*
X010719Y008731D01*
X010679Y008748D01*
X010521Y008748D01*
X010375Y008687D01*
X010263Y008575D01*
X010202Y008429D01*
X010202Y008271D01*
X010263Y008125D01*
X010375Y008013D01*
X010521Y007952D01*
X010679Y007952D01*
X010719Y007969D01*
X010702Y007929D01*
X010702Y007771D01*
X010763Y007625D01*
X010875Y007513D01*
X010728Y007708D02*
X009025Y007708D01*
X009088Y008025D02*
X010362Y008025D01*
X010238Y008184D02*
X009212Y008184D01*
X009248Y008342D02*
X010202Y008342D01*
X010232Y008501D02*
X009218Y008501D01*
X009104Y008659D02*
X010346Y008659D01*
X010702Y008818D02*
X002980Y008818D01*
X002974Y008829D02*
X002934Y008885D01*
X002885Y008934D01*
X002829Y008974D01*
X002768Y009005D01*
X002702Y009027D01*
X002634Y009037D01*
X002600Y009037D01*
X002600Y008600D01*
X002600Y008600D01*
X003037Y008600D01*
X003037Y008634D01*
X003027Y008702D01*
X003005Y008768D01*
X002974Y008829D01*
X003034Y008659D02*
X007096Y008659D01*
X006982Y008501D02*
X003027Y008501D01*
X003027Y008498D02*
X003037Y008566D01*
X003037Y008600D01*
X002600Y008600D01*
X002600Y008600D01*
X002600Y008600D01*
X002163Y008600D01*
X002163Y008566D01*
X002173Y008498D01*
X002195Y008432D01*
X002226Y008371D01*
X002266Y008315D01*
X002315Y008266D01*
X002371Y008226D01*
X002432Y008195D01*
X002498Y008173D01*
X002566Y008163D01*
X002600Y008163D01*
X002634Y008163D01*
X002702Y008173D01*
X002768Y008195D01*
X002829Y008226D01*
X002885Y008266D01*
X002934Y008315D01*
X002974Y008371D01*
X003005Y008432D01*
X003027Y008498D01*
X002953Y008342D02*
X006952Y008342D01*
X006621Y008184D02*
X002734Y008184D01*
X002600Y008184D02*
X002600Y008184D01*
X002600Y008163D02*
X002600Y008600D01*
X002600Y009037D01*
X002566Y009037D01*
X002498Y009027D01*
X002432Y009005D01*
X002371Y008974D01*
X002315Y008934D01*
X002266Y008885D01*
X002226Y008829D01*
X002195Y008768D01*
X002173Y008702D01*
X002163Y008634D01*
X002163Y008600D01*
X002600Y008600D01*
X002600Y008600D01*
X002600Y008163D01*
X002466Y008184D02*
X000600Y008184D01*
X000600Y008342D02*
X002247Y008342D01*
X002173Y008501D02*
X000600Y008501D01*
X000600Y008659D02*
X001071Y008659D01*
X001059Y008664D02*
X000914Y008809D01*
X000836Y008998D01*
X000836Y009202D01*
X000914Y009391D01*
X001059Y009536D01*
X001248Y009614D01*
X001452Y009614D01*
X001641Y009536D01*
X001786Y009391D01*
X001864Y009202D01*
X001864Y008998D01*
X001786Y008809D01*
X001641Y008664D01*
X001452Y008586D01*
X001248Y008586D01*
X001059Y008664D01*
X000910Y008818D02*
X000600Y008818D01*
X000600Y008976D02*
X000845Y008976D01*
X000836Y009135D02*
X000600Y009135D01*
X000600Y009293D02*
X000873Y009293D01*
X000974Y009452D02*
X000600Y009452D01*
X000600Y009610D02*
X001237Y009610D01*
X001463Y009610D02*
X002183Y009610D01*
X002183Y009683D02*
X002183Y009517D01*
X002246Y009364D01*
X002364Y009246D01*
X002517Y009183D01*
X002683Y009183D01*
X002836Y009246D01*
X002954Y009364D01*
X003017Y009517D01*
X003017Y009683D01*
X002954Y009836D01*
X002836Y009954D01*
X002683Y010017D01*
X002517Y010017D01*
X002364Y009954D01*
X002246Y009836D01*
X002183Y009683D01*
X002218Y009769D02*
X000600Y009769D01*
X000600Y009927D02*
X002337Y009927D01*
X002432Y010195D02*
X002371Y010226D01*
X002315Y010266D01*
X002266Y010315D01*
X002226Y010371D01*
X002195Y010432D01*
X002173Y010498D01*
X002163Y010566D01*
X002163Y010600D01*
X002600Y010600D01*
X002600Y010600D01*
X002600Y011037D01*
X002634Y011037D01*
X002702Y011027D01*
X002768Y011005D01*
X002829Y010974D01*
X002885Y010934D01*
X002934Y010885D01*
X002974Y010829D01*
X003005Y010768D01*
X003027Y010702D01*
X003037Y010634D01*
X003037Y010600D01*
X002600Y010600D01*
X002600Y010600D01*
X002600Y010600D01*
X002163Y010600D01*
X002163Y010634D01*
X002173Y010702D01*
X002195Y010768D01*
X002226Y010829D01*
X002266Y010885D01*
X002315Y010934D01*
X002371Y010974D01*
X002432Y011005D01*
X002498Y011027D01*
X002566Y011037D01*
X002600Y011037D01*
X002600Y010600D01*
X003037Y010600D01*
X003037Y010566D01*
X003027Y010498D01*
X003005Y010432D01*
X002974Y010371D01*
X002934Y010315D01*
X002885Y010266D01*
X002829Y010226D01*
X002768Y010195D01*
X002702Y010173D01*
X002634Y010163D01*
X002600Y010163D01*
X002600Y010600D01*
X002600Y010600D01*
X002600Y010163D01*
X002566Y010163D01*
X002498Y010173D01*
X002432Y010195D01*
X002346Y010244D02*
X000600Y010244D01*
X000600Y010086D02*
X010052Y010086D01*
X010013Y010125D02*
X010125Y010013D01*
X010271Y009952D01*
X010429Y009952D01*
X010469Y009969D01*
X010452Y009929D01*
X010452Y009771D01*
X010513Y009625D01*
X010625Y009513D01*
X010771Y009452D01*
X010929Y009452D01*
X011075Y009513D01*
X011187Y009625D01*
X011248Y009771D01*
X011248Y009929D01*
X011187Y010075D01*
X011075Y010187D01*
X010929Y010248D01*
X010771Y010248D01*
X010731Y010231D01*
X010748Y010271D01*
X010748Y010429D01*
X010731Y010469D01*
X010771Y010452D01*
X010929Y010452D01*
X011075Y010513D01*
X011187Y010625D01*
X011248Y010771D01*
X011248Y010929D01*
X011187Y011075D01*
X011075Y011187D01*
X010929Y011248D01*
X010771Y011248D01*
X010625Y011187D01*
X010513Y011075D01*
X010452Y010929D01*
X010452Y010771D01*
X010469Y010731D01*
X010429Y010748D01*
X010271Y010748D01*
X010125Y010687D01*
X010013Y010575D01*
X009952Y010429D01*
X009952Y010271D01*
X010013Y010125D01*
X009963Y010244D02*
X002854Y010244D01*
X002990Y010403D02*
X009952Y010403D01*
X010007Y010561D02*
X003037Y010561D01*
X003021Y010720D02*
X010203Y010720D01*
X010452Y010878D02*
X002939Y010878D01*
X002641Y011037D02*
X006823Y011037D01*
X006864Y010996D02*
X006746Y011114D01*
X006683Y011267D01*
X006683Y011433D01*
X006746Y011586D01*
X006864Y011704D01*
X007017Y011767D01*
X007183Y011767D01*
X007336Y011704D01*
X007454Y011586D01*
X007517Y011433D01*
X007517Y011267D01*
X007454Y011114D01*
X007336Y010996D01*
X007183Y010933D01*
X007017Y010933D01*
X006864Y010996D01*
X006712Y011195D02*
X002713Y011195D01*
X002683Y011183D02*
X002836Y011246D01*
X002954Y011364D01*
X003017Y011517D01*
X003017Y011683D01*
X002954Y011836D01*
X002836Y011954D01*
X002683Y012017D01*
X002517Y012017D01*
X002364Y011954D01*
X002246Y011836D01*
X002183Y011683D01*
X002183Y011517D01*
X002246Y011364D01*
X002364Y011246D01*
X002517Y011183D01*
X002683Y011183D01*
X002600Y011037D02*
X002600Y011037D01*
X002559Y011037D02*
X001864Y011037D01*
X001864Y010998D02*
X001786Y010809D01*
X001641Y010664D01*
X001452Y010586D01*
X001248Y010586D01*
X001059Y010664D01*
X000914Y010809D01*
X000836Y010998D01*
X000836Y011202D01*
X000914Y011391D01*
X001059Y011536D01*
X001248Y011614D01*
X001452Y011614D01*
X001641Y011536D01*
X001786Y011391D01*
X001864Y011202D01*
X001864Y010998D01*
X001815Y010878D02*
X002261Y010878D01*
X002179Y010720D02*
X001697Y010720D01*
X002163Y010561D02*
X000600Y010561D01*
X000600Y010403D02*
X002210Y010403D01*
X002600Y010403D02*
X002600Y010403D01*
X002600Y010561D02*
X002600Y010561D01*
X002600Y010720D02*
X002600Y010720D01*
X002600Y010878D02*
X002600Y010878D01*
X002487Y011195D02*
X001864Y011195D01*
X001802Y011354D02*
X002256Y011354D01*
X002185Y011512D02*
X001665Y011512D01*
X002183Y011671D02*
X000600Y011671D01*
X000600Y011829D02*
X002243Y011829D01*
X002445Y011988D02*
X000600Y011988D01*
X000600Y012146D02*
X008004Y012146D01*
X008013Y012125D02*
X008125Y012013D01*
X008271Y011952D01*
X008429Y011952D01*
X008575Y012013D01*
X008687Y012125D01*
X008748Y012271D01*
X008748Y012429D01*
X008731Y012469D01*
X008771Y012452D01*
X008929Y012452D01*
X008969Y012469D01*
X008952Y012429D01*
X008952Y012271D01*
X009013Y012125D01*
X009125Y012013D01*
X009271Y011952D01*
X009429Y011952D01*
X009575Y012013D01*
X009687Y012125D01*
X009748Y012271D01*
X009748Y012429D01*
X009687Y012575D01*
X009575Y012687D01*
X009429Y012748D01*
X009271Y012748D01*
X009231Y012731D01*
X009248Y012771D01*
X009248Y012929D01*
X009187Y013075D01*
X009075Y013187D01*
X008929Y013248D01*
X008771Y013248D01*
X008625Y013187D01*
X008513Y013075D01*
X008452Y012929D01*
X008452Y012771D01*
X008469Y012731D01*
X008429Y012748D01*
X008271Y012748D01*
X008125Y012687D01*
X008013Y012575D01*
X007952Y012429D01*
X007952Y012271D01*
X008013Y012125D01*
X007952Y012305D02*
X002923Y012305D01*
X002934Y012315D02*
X002974Y012371D01*
X003005Y012432D01*
X003027Y012498D01*
X003037Y012566D01*
X003037Y012600D01*
X003037Y012634D01*
X003027Y012702D01*
X003005Y012768D01*
X002974Y012829D01*
X002934Y012885D01*
X002885Y012934D01*
X002829Y012974D01*
X002768Y013005D01*
X002702Y013027D01*
X002634Y013037D01*
X002600Y013037D01*
X002600Y012600D01*
X002600Y012600D01*
X003037Y012600D01*
X002600Y012600D01*
X002600Y012600D01*
X002600Y012600D01*
X002163Y012600D01*
X002163Y012566D01*
X002173Y012498D01*
X002195Y012432D01*
X002226Y012371D01*
X002266Y012315D01*
X002315Y012266D01*
X002371Y012226D01*
X002432Y012195D01*
X002498Y012173D01*
X002566Y012163D01*
X002600Y012163D01*
X002634Y012163D01*
X002702Y012173D01*
X002768Y012195D01*
X002829Y012226D01*
X002885Y012266D01*
X002934Y012315D01*
X003015Y012463D02*
X006995Y012463D01*
X007021Y012452D02*
X007179Y012452D01*
X007325Y012513D01*
X007437Y012625D01*
X007498Y012771D01*
X007498Y012929D01*
X007437Y013075D01*
X007325Y013187D01*
X007179Y013248D01*
X007021Y013248D01*
X006981Y013231D01*
X006998Y013271D01*
X006998Y013429D01*
X006981Y013469D01*
X007021Y013452D01*
X007179Y013452D01*
X007325Y013513D01*
X007437Y013625D01*
X007498Y013771D01*
X007498Y013929D01*
X007437Y014075D01*
X007325Y014187D01*
X007179Y014248D01*
X007021Y014248D01*
X006875Y014187D01*
X006763Y014075D01*
X006702Y013929D01*
X006702Y013771D01*
X006719Y013731D01*
X006679Y013748D01*
X006521Y013748D01*
X006375Y013687D01*
X006263Y013575D01*
X006202Y013429D01*
X006202Y013271D01*
X006263Y013125D01*
X006375Y013013D01*
X006521Y012952D01*
X006679Y012952D01*
X006719Y012969D01*
X006702Y012929D01*
X006702Y012771D01*
X006763Y012625D01*
X006875Y012513D01*
X007021Y012452D01*
X007205Y012463D02*
X007966Y012463D01*
X008059Y012622D02*
X007434Y012622D01*
X007498Y012780D02*
X008452Y012780D01*
X008456Y012939D02*
X007494Y012939D01*
X007416Y013097D02*
X008534Y013097D01*
X008336Y013246D02*
X008454Y013364D01*
X008517Y013517D01*
X008517Y013683D01*
X008454Y013836D01*
X008336Y013954D01*
X008183Y014017D01*
X008017Y014017D01*
X007864Y013954D01*
X007746Y013836D01*
X007683Y013683D01*
X007683Y013517D01*
X007746Y013364D01*
X007864Y013246D01*
X008017Y013183D01*
X008183Y013183D01*
X008336Y013246D01*
X008346Y013256D02*
X009709Y013256D01*
X009702Y013271D02*
X009763Y013125D01*
X009875Y013013D01*
X010021Y012952D01*
X010179Y012952D01*
X010219Y012969D01*
X010202Y012929D01*
X010202Y012771D01*
X010263Y012625D01*
X010375Y012513D01*
X010521Y012452D01*
X010679Y012452D01*
X010825Y012513D01*
X010937Y012625D01*
X010998Y012771D01*
X010998Y012929D01*
X010937Y013075D01*
X010825Y013187D01*
X010679Y013248D01*
X010521Y013248D01*
X010481Y013231D01*
X010498Y013271D01*
X010498Y013429D01*
X010481Y013469D01*
X010521Y013452D01*
X010679Y013452D01*
X010825Y013513D01*
X010937Y013625D01*
X010998Y013771D01*
X010998Y013929D01*
X010937Y014075D01*
X010825Y014187D01*
X010679Y014248D01*
X010521Y014248D01*
X010375Y014187D01*
X010263Y014075D01*
X010202Y013929D01*
X010202Y013771D01*
X010219Y013731D01*
X010179Y013748D01*
X010021Y013748D01*
X009875Y013687D01*
X009763Y013575D01*
X009702Y013429D01*
X009702Y013271D01*
X009702Y013414D02*
X008475Y013414D01*
X008517Y013573D02*
X009762Y013573D01*
X009980Y013731D02*
X008498Y013731D01*
X008401Y013890D02*
X010202Y013890D01*
X010251Y014048D02*
X007449Y014048D01*
X007498Y013890D02*
X007799Y013890D01*
X007702Y013731D02*
X007481Y013731D01*
X007385Y013573D02*
X007683Y013573D01*
X007725Y013414D02*
X006998Y013414D01*
X006991Y013256D02*
X007854Y013256D01*
X007279Y014207D02*
X010421Y014207D01*
X010779Y014207D02*
X011671Y014207D01*
X011625Y014187D02*
X011513Y014075D01*
X011452Y013929D01*
X011452Y013771D01*
X011513Y013625D01*
X011625Y013513D01*
X011771Y013452D01*
X011929Y013452D01*
X011969Y013469D01*
X011952Y013429D01*
X011952Y013271D01*
X011969Y013231D01*
X011929Y013248D01*
X011771Y013248D01*
X011625Y013187D01*
X011513Y013075D01*
X011452Y012929D01*
X011452Y012771D01*
X011513Y012625D01*
X011625Y012513D01*
X011771Y012452D01*
X011929Y012452D01*
X012075Y012513D01*
X012187Y012625D01*
X012248Y012771D01*
X012248Y012929D01*
X012231Y012969D01*
X012271Y012952D01*
X012429Y012952D01*
X012575Y013013D01*
X012687Y013125D01*
X012748Y013271D01*
X012748Y013429D01*
X012687Y013575D01*
X012575Y013687D01*
X012429Y013748D01*
X012271Y013748D01*
X012231Y013731D01*
X012248Y013771D01*
X012248Y013929D01*
X012187Y014075D01*
X012075Y014187D01*
X011929Y014248D01*
X011771Y014248D01*
X011625Y014187D01*
X011501Y014048D02*
X010949Y014048D01*
X010998Y013890D02*
X011452Y013890D01*
X011469Y013731D02*
X010981Y013731D01*
X010885Y013573D02*
X011565Y013573D01*
X011952Y013414D02*
X010498Y013414D01*
X010491Y013256D02*
X011959Y013256D01*
X012244Y012939D02*
X014600Y012939D01*
X014600Y013097D02*
X012660Y013097D01*
X012741Y013256D02*
X014600Y013256D01*
X014600Y013414D02*
X012748Y013414D01*
X012688Y013573D02*
X014600Y013573D01*
X014600Y013731D02*
X012470Y013731D01*
X012248Y013890D02*
X014600Y013890D01*
X014600Y014048D02*
X012199Y014048D01*
X012029Y014207D02*
X014600Y014207D01*
X014600Y014365D02*
X000600Y014365D01*
X000600Y014207D02*
X006921Y014207D01*
X006751Y014048D02*
X000600Y014048D01*
X000600Y013890D02*
X002299Y013890D01*
X002246Y013836D02*
X002364Y013954D01*
X002517Y014017D01*
X002683Y014017D01*
X002836Y013954D01*
X002954Y013836D01*
X003017Y013683D01*
X003017Y013517D01*
X002954Y013364D01*
X002836Y013246D01*
X002683Y013183D01*
X002517Y013183D01*
X002364Y013246D01*
X002246Y013364D01*
X002183Y013517D01*
X002183Y013683D01*
X002246Y013836D01*
X002202Y013731D02*
X000600Y013731D01*
X000600Y013573D02*
X001147Y013573D01*
X001059Y013536D02*
X000914Y013391D01*
X000836Y013202D01*
X000836Y012998D01*
X000914Y012809D01*
X001059Y012664D01*
X001248Y012586D01*
X001452Y012586D01*
X001641Y012664D01*
X001786Y012809D01*
X001864Y012998D01*
X001864Y013202D01*
X001786Y013391D01*
X001641Y013536D01*
X001452Y013614D01*
X001248Y013614D01*
X001059Y013536D01*
X000937Y013414D02*
X000600Y013414D01*
X000600Y013256D02*
X000858Y013256D01*
X000836Y013097D02*
X000600Y013097D01*
X000600Y012939D02*
X000860Y012939D01*
X000943Y012780D02*
X000600Y012780D01*
X000600Y012622D02*
X001161Y012622D01*
X001539Y012622D02*
X002163Y012622D01*
X002163Y012634D02*
X002163Y012600D01*
X002600Y012600D01*
X002600Y013037D01*
X002566Y013037D01*
X002498Y013027D01*
X002432Y013005D01*
X002371Y012974D01*
X002315Y012934D01*
X002266Y012885D01*
X002226Y012829D01*
X002195Y012768D01*
X002173Y012702D01*
X002163Y012634D01*
X002201Y012780D02*
X001757Y012780D01*
X001840Y012939D02*
X002322Y012939D01*
X002600Y012939D02*
X002600Y012939D01*
X002600Y012780D02*
X002600Y012780D01*
X002600Y012622D02*
X002600Y012622D01*
X002600Y012600D02*
X002600Y012163D01*
X002600Y012600D01*
X002600Y012600D01*
X002600Y012463D02*
X002600Y012463D01*
X002600Y012305D02*
X002600Y012305D01*
X002755Y011988D02*
X008186Y011988D01*
X008183Y011767D02*
X008017Y011767D01*
X007864Y011704D01*
X007746Y011586D01*
X007683Y011433D01*
X007683Y011267D01*
X007746Y011114D01*
X007864Y010996D01*
X008017Y010933D01*
X008183Y010933D01*
X008336Y010996D01*
X008454Y011114D01*
X008475Y011164D01*
X008496Y011114D01*
X008614Y010996D01*
X008767Y010933D01*
X008933Y010933D01*
X009086Y010996D01*
X009204Y011114D01*
X009225Y011164D01*
X009246Y011114D01*
X009364Y010996D01*
X009517Y010933D01*
X009683Y010933D01*
X009836Y010996D01*
X009954Y011114D01*
X010017Y011267D01*
X010017Y011433D01*
X009954Y011586D01*
X009836Y011704D01*
X009683Y011767D01*
X009517Y011767D01*
X009364Y011704D01*
X009246Y011586D01*
X009225Y011536D01*
X009204Y011586D01*
X009086Y011704D01*
X008933Y011767D01*
X008767Y011767D01*
X008614Y011704D01*
X008496Y011586D01*
X008475Y011536D01*
X008454Y011586D01*
X008336Y011704D01*
X008183Y011767D01*
X008370Y011671D02*
X008580Y011671D01*
X008514Y011988D02*
X009186Y011988D01*
X009004Y012146D02*
X008696Y012146D01*
X008748Y012305D02*
X008952Y012305D01*
X008955Y012463D02*
X008966Y012463D01*
X009248Y012780D02*
X010202Y012780D01*
X010206Y012939D02*
X009244Y012939D01*
X009166Y013097D02*
X009790Y013097D01*
X009641Y012622D02*
X010266Y012622D01*
X010495Y012463D02*
X009734Y012463D01*
X009748Y012305D02*
X014600Y012305D01*
X014600Y012463D02*
X011955Y012463D01*
X011933Y012267D02*
X011767Y012267D01*
X011614Y012204D01*
X011496Y012086D01*
X011433Y011933D01*
X011433Y011767D01*
X011496Y011614D01*
X011614Y011496D01*
X011767Y011433D01*
X011933Y011433D01*
X012086Y011496D01*
X012204Y011614D01*
X012225Y011664D01*
X012246Y011614D01*
X012364Y011496D01*
X012517Y011433D01*
X012683Y011433D01*
X012836Y011496D01*
X012954Y011614D01*
X013017Y011767D01*
X013017Y011933D01*
X012954Y012086D01*
X012836Y012204D01*
X012683Y012267D01*
X012517Y012267D01*
X012364Y012204D01*
X012246Y012086D01*
X012225Y012036D01*
X012204Y012086D01*
X012086Y012204D01*
X011933Y012267D01*
X012144Y012146D02*
X012306Y012146D01*
X012184Y012622D02*
X014600Y012622D01*
X014600Y012780D02*
X012248Y012780D01*
X011745Y012463D02*
X010705Y012463D01*
X010934Y012622D02*
X011516Y012622D01*
X011452Y012780D02*
X010998Y012780D01*
X010994Y012939D02*
X011456Y012939D01*
X011534Y013097D02*
X010916Y013097D01*
X011556Y012146D02*
X009696Y012146D01*
X009514Y011988D02*
X011455Y011988D01*
X011433Y011829D02*
X002957Y011829D01*
X003017Y011671D02*
X006830Y011671D01*
X006715Y011512D02*
X003015Y011512D01*
X002944Y011354D02*
X006683Y011354D01*
X007370Y011671D02*
X007830Y011671D01*
X007715Y011512D02*
X007485Y011512D01*
X007517Y011354D02*
X007683Y011354D01*
X007712Y011195D02*
X007488Y011195D01*
X007377Y011037D02*
X007823Y011037D01*
X008377Y011037D02*
X008573Y011037D01*
X009127Y011037D02*
X009323Y011037D01*
X009330Y011671D02*
X009120Y011671D01*
X009870Y011671D02*
X011472Y011671D01*
X011598Y011512D02*
X009985Y011512D01*
X010017Y011354D02*
X014600Y011354D01*
X014600Y011512D02*
X012852Y011512D01*
X012978Y011671D02*
X014600Y011671D01*
X014600Y011829D02*
X013017Y011829D01*
X012995Y011988D02*
X014600Y011988D01*
X014600Y012146D02*
X012894Y012146D01*
X012348Y011512D02*
X012102Y011512D01*
X011248Y010878D02*
X013413Y010878D01*
X013413Y010884D02*
X013413Y010850D01*
X013413Y010816D01*
X013423Y010748D01*
X013445Y010682D01*
X013476Y010621D01*
X013516Y010565D01*
X013565Y010516D01*
X013621Y010476D01*
X013682Y010445D01*
X013748Y010423D01*
X013816Y010413D01*
X013850Y010413D01*
X013884Y010413D01*
X013952Y010423D01*
X014018Y010445D01*
X014079Y010476D01*
X014135Y010516D01*
X014184Y010565D01*
X014224Y010621D01*
X014255Y010682D01*
X014277Y010748D01*
X014287Y010816D01*
X014287Y010850D01*
X014287Y010884D01*
X014277Y010952D01*
X014255Y011018D01*
X014224Y011079D01*
X014184Y011135D01*
X014135Y011184D01*
X014079Y011224D01*
X014018Y011255D01*
X013952Y011277D01*
X013884Y011287D01*
X013850Y011287D01*
X013850Y010850D01*
X013850Y010850D01*
X014287Y010850D01*
X013850Y010850D01*
X013850Y010850D01*
X013850Y010850D01*
X013413Y010850D01*
X013850Y010850D01*
X013850Y011287D01*
X013816Y011287D01*
X013748Y011277D01*
X013682Y011255D01*
X013621Y011224D01*
X013565Y011184D01*
X013516Y011135D01*
X013476Y011079D01*
X013445Y011018D01*
X013423Y010952D01*
X013413Y010884D01*
X013454Y011037D02*
X011203Y011037D01*
X011057Y011195D02*
X013581Y011195D01*
X013850Y011195D02*
X013850Y011195D01*
X013850Y011037D02*
X013850Y011037D01*
X013850Y010878D02*
X013850Y010878D01*
X013850Y010850D02*
X013850Y010413D01*
X013850Y010850D01*
X013850Y010850D01*
X013850Y010720D02*
X013850Y010720D01*
X013850Y010561D02*
X013850Y010561D01*
X013767Y010267D02*
X013614Y010204D01*
X013496Y010086D01*
X013433Y009933D01*
X013433Y009767D01*
X013496Y009614D01*
X013614Y009496D01*
X013767Y009433D01*
X013933Y009433D01*
X014086Y009496D01*
X014204Y009614D01*
X014267Y009767D01*
X014267Y009933D01*
X014204Y010086D01*
X014086Y010204D01*
X013933Y010267D01*
X013767Y010267D01*
X013710Y010244D02*
X012740Y010244D01*
X012683Y010267D02*
X012517Y010267D01*
X012364Y010204D01*
X012246Y010086D01*
X012235Y010059D01*
X012224Y010079D01*
X012184Y010135D01*
X012135Y010184D01*
X012079Y010224D01*
X012018Y010255D01*
X011952Y010277D01*
X011884Y010287D01*
X011850Y010287D01*
X011850Y009850D01*
X011850Y009850D01*
X011850Y009850D01*
X011413Y009850D01*
X011413Y009816D01*
X011423Y009748D01*
X011445Y009682D01*
X011476Y009621D01*
X011516Y009565D01*
X011565Y009516D01*
X011621Y009476D01*
X011682Y009445D01*
X011748Y009423D01*
X011816Y009413D01*
X011850Y009413D01*
X011884Y009413D01*
X011952Y009423D01*
X012018Y009445D01*
X012079Y009476D01*
X012135Y009516D01*
X012184Y009565D01*
X012224Y009621D01*
X012235Y009641D01*
X012246Y009614D01*
X012364Y009496D01*
X012517Y009433D01*
X012683Y009433D01*
X012836Y009496D01*
X012954Y009614D01*
X013017Y009767D01*
X013017Y009933D01*
X012954Y010086D01*
X012836Y010204D01*
X012683Y010267D01*
X012460Y010244D02*
X012040Y010244D01*
X011850Y010244D02*
X011850Y010244D01*
X011850Y010287D02*
X011816Y010287D01*
X011748Y010277D01*
X011682Y010255D01*
X011621Y010224D01*
X011565Y010184D01*
X011516Y010135D01*
X011476Y010079D01*
X011445Y010018D01*
X011423Y009952D01*
X011413Y009884D01*
X011413Y009850D01*
X011850Y009850D01*
X011850Y010287D01*
X011850Y010086D02*
X011850Y010086D01*
X011850Y009927D02*
X011850Y009927D01*
X011850Y009850D02*
X011850Y009413D01*
X011850Y009850D01*
X011850Y009850D01*
X011850Y009769D02*
X011850Y009769D01*
X011850Y009610D02*
X011850Y009610D01*
X011850Y009452D02*
X011850Y009452D01*
X012032Y009452D02*
X012471Y009452D01*
X012729Y009452D02*
X013721Y009452D01*
X013979Y009452D02*
X014600Y009452D01*
X014600Y009610D02*
X014200Y009610D01*
X014267Y009769D02*
X014600Y009769D01*
X014600Y009927D02*
X014267Y009927D01*
X014204Y010086D02*
X014600Y010086D01*
X014600Y010244D02*
X013990Y010244D01*
X014180Y010561D02*
X014600Y010561D01*
X014600Y010403D02*
X010748Y010403D01*
X010737Y010244D02*
X010762Y010244D01*
X010938Y010244D02*
X011660Y010244D01*
X011480Y010086D02*
X011177Y010086D01*
X011248Y009927D02*
X011419Y009927D01*
X011420Y009769D02*
X011247Y009769D01*
X011173Y009610D02*
X011484Y009610D01*
X011668Y009452D02*
X010027Y009452D01*
X010037Y009384D01*
X010037Y009350D01*
X009600Y009350D01*
X009600Y009350D01*
X009600Y009787D01*
X009634Y009787D01*
X009702Y009777D01*
X009768Y009755D01*
X009829Y009724D01*
X009885Y009684D01*
X009934Y009635D01*
X009974Y009579D01*
X010005Y009518D01*
X010027Y009452D01*
X010037Y009350D02*
X009600Y009350D01*
X009600Y009350D01*
X009600Y009787D01*
X009566Y009787D01*
X009498Y009777D01*
X009432Y009755D01*
X009371Y009724D01*
X009315Y009684D01*
X009266Y009635D01*
X009226Y009579D01*
X009225Y009578D01*
X009224Y009579D01*
X009184Y009635D01*
X009135Y009684D01*
X009079Y009724D01*
X009018Y009755D01*
X008952Y009777D01*
X008884Y009787D01*
X008850Y009787D01*
X008850Y009350D01*
X008850Y009350D01*
X009287Y009350D01*
X009600Y009350D01*
X009600Y008913D01*
X009634Y008913D01*
X009702Y008923D01*
X009768Y008945D01*
X009829Y008976D01*
X009885Y009016D01*
X009934Y009065D01*
X009974Y009121D01*
X010005Y009182D01*
X010027Y009248D01*
X010037Y009316D01*
X010037Y009350D01*
X010034Y009293D02*
X014600Y009293D01*
X014600Y009135D02*
X012378Y009135D01*
X012325Y009187D02*
X012179Y009248D01*
X012021Y009248D01*
X011875Y009187D01*
X011763Y009075D01*
X011702Y008929D01*
X011702Y008771D01*
X011763Y008625D01*
X011875Y008513D01*
X012021Y008452D01*
X012179Y008452D01*
X012219Y008469D01*
X012202Y008429D01*
X012202Y008271D01*
X012219Y008231D01*
X012179Y008248D01*
X012021Y008248D01*
X011875Y008187D01*
X011763Y008075D01*
X011702Y007929D01*
X011702Y007771D01*
X011763Y007625D01*
X011875Y007513D01*
X012021Y007452D01*
X012179Y007452D01*
X012325Y007513D01*
X012437Y007625D01*
X012498Y007771D01*
X012498Y007929D01*
X012481Y007969D01*
X012521Y007952D01*
X012679Y007952D01*
X012825Y008013D01*
X012937Y008125D01*
X012998Y008271D01*
X012998Y008429D01*
X012937Y008575D01*
X012825Y008687D01*
X012679Y008748D01*
X012521Y008748D01*
X012481Y008731D01*
X012498Y008771D01*
X012498Y008929D01*
X012437Y009075D01*
X012325Y009187D01*
X012478Y008976D02*
X014600Y008976D01*
X014600Y008818D02*
X012498Y008818D01*
X012854Y008659D02*
X014600Y008659D01*
X014600Y008501D02*
X012968Y008501D01*
X012998Y008342D02*
X014600Y008342D01*
X014600Y008184D02*
X012962Y008184D01*
X012838Y008025D02*
X014600Y008025D01*
X014600Y007867D02*
X012498Y007867D01*
X012472Y007708D02*
X014600Y007708D01*
X014600Y007550D02*
X012362Y007550D01*
X012227Y007074D02*
X014600Y007074D01*
X014600Y006916D02*
X012283Y006916D01*
X012278Y006757D02*
X014600Y006757D01*
X014600Y006599D02*
X012208Y006599D01*
X011825Y005937D02*
X011679Y005998D01*
X011521Y005998D01*
X011375Y005937D01*
X011263Y005825D01*
X011202Y005679D01*
X011202Y005521D01*
X011219Y005481D01*
X011179Y005498D01*
X011021Y005498D01*
X010981Y005481D01*
X010998Y005521D01*
X010998Y005679D01*
X010937Y005825D01*
X010825Y005937D01*
X010679Y005998D01*
X010521Y005998D01*
X010375Y005937D01*
X010263Y005825D01*
X010202Y005679D01*
X010202Y005521D01*
X010263Y005375D01*
X010375Y005263D01*
X010521Y005202D01*
X010679Y005202D01*
X010719Y005219D01*
X010702Y005179D01*
X010702Y005021D01*
X010763Y004875D01*
X010875Y004763D01*
X011021Y004702D01*
X011179Y004702D01*
X011325Y004763D01*
X011437Y004875D01*
X011498Y005021D01*
X011498Y005179D01*
X011481Y005219D01*
X011521Y005202D01*
X011679Y005202D01*
X011825Y005263D01*
X011937Y005375D01*
X011998Y005521D01*
X011998Y005679D01*
X011937Y005825D01*
X011825Y005937D01*
X011759Y005965D02*
X014600Y005965D01*
X014600Y006123D02*
X010017Y006123D01*
X009996Y005965D02*
X010441Y005965D01*
X010255Y005806D02*
X009896Y005806D01*
X009921Y005648D02*
X010202Y005648D01*
X010215Y005489D02*
X010015Y005489D01*
X010037Y005331D02*
X010307Y005331D01*
X010000Y005172D02*
X010702Y005172D01*
X010705Y005014D02*
X009881Y005014D01*
X009600Y005014D02*
X009600Y005014D01*
X009600Y004913D02*
X009600Y005350D01*
X009600Y005350D01*
X009600Y005350D01*
X009600Y005350D01*
X009163Y005350D01*
X009600Y005350D01*
X009600Y004913D01*
X009647Y004697D02*
X008594Y004697D01*
X008724Y004538D02*
X009497Y004538D01*
X009452Y004380D02*
X008767Y004380D01*
X008748Y004221D02*
X009473Y004221D01*
X009575Y004063D02*
X008653Y004063D01*
X009319Y005014D02*
X007854Y005014D01*
X007978Y005172D02*
X009200Y005172D01*
X009163Y005331D02*
X008017Y005331D01*
X007994Y005489D02*
X009185Y005489D01*
X009279Y005648D02*
X007893Y005648D01*
X007896Y005806D02*
X009304Y005806D01*
X009204Y005965D02*
X007996Y005965D01*
X008017Y006123D02*
X009183Y006123D01*
X009223Y006282D02*
X007977Y006282D01*
X007850Y006440D02*
X009350Y006440D01*
X009511Y006599D02*
X006914Y006599D01*
X006491Y005965D02*
X006483Y005965D01*
X006202Y006282D02*
X002900Y006282D01*
X003008Y006440D02*
X006207Y006440D01*
X006286Y006599D02*
X003037Y006599D01*
X003009Y006757D02*
X009437Y006757D01*
X008563Y007074D02*
X007637Y007074D01*
X007732Y007233D02*
X008468Y007233D01*
X008452Y007391D02*
X007748Y007391D01*
X007698Y007550D02*
X008088Y007550D01*
X007978Y007708D02*
X007525Y007708D01*
X007588Y008025D02*
X007992Y008025D01*
X007952Y007867D02*
X007248Y007867D01*
X007712Y008184D02*
X008121Y008184D01*
X008452Y008342D02*
X007748Y008342D01*
X007718Y008501D02*
X008482Y008501D01*
X008596Y008659D02*
X007604Y008659D01*
X007864Y008996D02*
X008017Y008933D01*
X008183Y008933D01*
X008336Y008996D01*
X008454Y009114D01*
X008465Y009141D01*
X008476Y009121D01*
X008516Y009065D01*
X008565Y009016D01*
X008621Y008976D01*
X008682Y008945D01*
X008748Y008923D01*
X008816Y008913D01*
X008850Y008913D01*
X008884Y008913D01*
X008952Y008923D01*
X009018Y008945D01*
X009079Y008976D01*
X009135Y009016D01*
X009184Y009065D01*
X009224Y009121D01*
X009225Y009122D01*
X009226Y009121D01*
X009266Y009065D01*
X009315Y009016D01*
X009371Y008976D01*
X009432Y008945D01*
X009498Y008923D01*
X009566Y008913D01*
X009600Y008913D01*
X009600Y009350D01*
X009600Y009350D01*
X009600Y009350D01*
X008850Y009350D01*
X008850Y009350D01*
X008850Y009787D01*
X008816Y009787D01*
X008748Y009777D01*
X008682Y009755D01*
X008621Y009724D01*
X008565Y009684D01*
X008516Y009635D01*
X008476Y009579D01*
X008465Y009559D01*
X008454Y009586D01*
X008336Y009704D01*
X008183Y009767D01*
X008017Y009767D01*
X007864Y009704D01*
X007746Y009586D01*
X007683Y009433D01*
X007683Y009267D01*
X007746Y009114D01*
X007864Y008996D01*
X007912Y008976D02*
X007288Y008976D01*
X007336Y008996D02*
X007183Y008933D01*
X007017Y008933D01*
X006864Y008996D01*
X006746Y009114D01*
X006683Y009267D01*
X006683Y009433D01*
X006746Y009586D01*
X006864Y009704D01*
X007017Y009767D01*
X007183Y009767D01*
X007336Y009704D01*
X007454Y009586D01*
X007517Y009433D01*
X007517Y009267D01*
X007454Y009114D01*
X007336Y008996D01*
X007463Y009135D02*
X007737Y009135D01*
X007683Y009293D02*
X007517Y009293D01*
X007510Y009452D02*
X007690Y009452D01*
X007770Y009610D02*
X007430Y009610D01*
X006912Y008976D02*
X002826Y008976D01*
X002600Y008976D02*
X002600Y008976D01*
X002600Y008818D02*
X002600Y008818D01*
X002600Y008659D02*
X002600Y008659D01*
X002600Y008501D02*
X002600Y008501D01*
X002600Y008342D02*
X002600Y008342D01*
X002166Y008659D02*
X001629Y008659D01*
X001790Y008818D02*
X002220Y008818D01*
X002374Y008976D02*
X001855Y008976D01*
X001864Y009135D02*
X006737Y009135D01*
X006683Y009293D02*
X002883Y009293D01*
X002990Y009452D02*
X006690Y009452D01*
X006770Y009610D02*
X003017Y009610D01*
X002982Y009769D02*
X008722Y009769D01*
X008850Y009769D02*
X008850Y009769D01*
X008978Y009769D02*
X009472Y009769D01*
X009600Y009769D02*
X009600Y009769D01*
X009728Y009769D02*
X010453Y009769D01*
X010452Y009927D02*
X002863Y009927D01*
X002600Y010244D02*
X002600Y010244D01*
X002210Y009452D02*
X001726Y009452D01*
X001827Y009293D02*
X002317Y009293D01*
X001641Y007536D02*
X001786Y007391D01*
X001012Y005489D02*
X000600Y005489D01*
X000600Y005331D02*
X000889Y005331D01*
X000836Y005172D02*
X000600Y005172D01*
X000600Y005014D02*
X000836Y005014D01*
X000895Y004855D02*
X000600Y004855D01*
X000600Y004697D02*
X001026Y004697D01*
X001182Y003587D02*
X000600Y003587D01*
X000600Y003429D02*
X000951Y003429D01*
X000864Y003270D02*
X000600Y003270D01*
X000600Y003112D02*
X000836Y003112D01*
X000854Y002953D02*
X000600Y002953D01*
X000600Y002795D02*
X000928Y002795D01*
X004308Y004380D02*
X005933Y004380D01*
X005952Y004221D02*
X005494Y004221D01*
X005693Y004063D02*
X006047Y004063D01*
X005976Y004538D02*
X004515Y004538D01*
X004593Y004697D02*
X006106Y004697D01*
X006826Y005014D02*
X007346Y005014D01*
X007222Y005172D02*
X006957Y005172D01*
X006998Y005331D02*
X007183Y005331D01*
X007206Y005489D02*
X006973Y005489D01*
X006865Y005648D02*
X007307Y005648D01*
X008748Y007867D02*
X010702Y007867D01*
X010998Y008342D02*
X012202Y008342D01*
X011904Y008501D02*
X011296Y008501D01*
X011451Y008659D02*
X011749Y008659D01*
X011702Y008818D02*
X011498Y008818D01*
X011478Y008976D02*
X011722Y008976D01*
X011822Y009135D02*
X011378Y009135D01*
X010822Y009135D02*
X009981Y009135D01*
X009830Y008976D02*
X010722Y008976D01*
X010527Y009610D02*
X009952Y009610D01*
X009600Y009610D02*
X009600Y009610D01*
X009600Y009452D02*
X009600Y009452D01*
X009600Y009293D02*
X009600Y009293D01*
X009600Y009135D02*
X009600Y009135D01*
X009600Y008976D02*
X009600Y008976D01*
X009370Y008976D02*
X009080Y008976D01*
X008850Y008976D02*
X008850Y008976D01*
X008850Y008913D02*
X008850Y009350D01*
X008850Y009350D01*
X008850Y008913D01*
X008850Y009135D02*
X008850Y009135D01*
X008850Y009293D02*
X008850Y009293D01*
X008850Y009452D02*
X008850Y009452D01*
X008850Y009610D02*
X008850Y009610D01*
X009202Y009610D02*
X009248Y009610D01*
X008620Y008976D02*
X008288Y008976D01*
X008463Y009135D02*
X008469Y009135D01*
X008498Y009610D02*
X008430Y009610D01*
X009877Y011037D02*
X010497Y011037D01*
X010643Y011195D02*
X009988Y011195D01*
X011124Y010561D02*
X013520Y010561D01*
X013432Y010720D02*
X011227Y010720D01*
X012220Y010086D02*
X012246Y010086D01*
X012216Y009610D02*
X012250Y009610D01*
X012950Y009610D02*
X013500Y009610D01*
X013433Y009769D02*
X013017Y009769D01*
X013017Y009927D02*
X013433Y009927D01*
X013496Y010086D02*
X012954Y010086D01*
X014119Y011195D02*
X014600Y011195D01*
X014600Y011037D02*
X014246Y011037D01*
X014287Y010878D02*
X014600Y010878D01*
X014600Y010720D02*
X014268Y010720D01*
X011871Y008184D02*
X011329Y008184D01*
X011458Y008025D02*
X011742Y008025D01*
X011702Y007867D02*
X011498Y007867D01*
X011472Y007708D02*
X011728Y007708D01*
X011838Y007550D02*
X011362Y007550D01*
X011441Y005965D02*
X010759Y005965D01*
X010945Y005806D02*
X011255Y005806D01*
X011202Y005648D02*
X010998Y005648D01*
X010985Y005489D02*
X011000Y005489D01*
X011200Y005489D02*
X011215Y005489D01*
X011498Y005172D02*
X013445Y005172D01*
X013414Y005141D02*
X013336Y004952D01*
X013336Y004748D01*
X013414Y004559D01*
X013559Y004414D01*
X013748Y004336D01*
X013952Y004336D01*
X014141Y004414D01*
X014286Y004559D01*
X014364Y004748D01*
X014364Y004952D01*
X014286Y005141D01*
X014141Y005286D01*
X013952Y005364D01*
X013748Y005364D01*
X013559Y005286D01*
X013414Y005141D01*
X013361Y005014D02*
X011495Y005014D01*
X011418Y004855D02*
X013336Y004855D01*
X013357Y004697D02*
X010053Y004697D01*
X010203Y004538D02*
X013435Y004538D01*
X013642Y004380D02*
X010248Y004380D01*
X010494Y004221D02*
X014600Y004221D01*
X014600Y004063D02*
X010693Y004063D01*
X010748Y003904D02*
X014600Y003904D01*
X014600Y003746D02*
X010737Y003746D01*
X010650Y003587D02*
X014600Y003587D01*
X014600Y003429D02*
X010248Y003429D01*
X010247Y003270D02*
X014600Y003270D01*
X014600Y003112D02*
X010174Y003112D01*
X009267Y002319D02*
X013309Y002319D01*
X013091Y002161D02*
X009223Y002161D01*
X009092Y002002D02*
X012945Y002002D01*
X014391Y002319D02*
X014600Y002319D01*
X014600Y002478D02*
X009249Y002478D01*
X009154Y002636D02*
X014600Y002636D01*
X014600Y004380D02*
X014058Y004380D01*
X014265Y004538D02*
X014600Y004538D01*
X014600Y004697D02*
X014343Y004697D01*
X014364Y004855D02*
X014600Y004855D01*
X014600Y005014D02*
X014339Y005014D01*
X014255Y005172D02*
X014600Y005172D01*
X014600Y005331D02*
X014034Y005331D01*
X013666Y005331D02*
X011893Y005331D01*
X011985Y005489D02*
X014600Y005489D01*
X014600Y005648D02*
X011998Y005648D01*
X011945Y005806D02*
X014600Y005806D01*
X010782Y004855D02*
X004614Y004855D01*
X001003Y010720D02*
X000600Y010720D01*
X000600Y010878D02*
X000885Y010878D01*
X000836Y011037D02*
X000600Y011037D01*
X000600Y011195D02*
X000836Y011195D01*
X000898Y011354D02*
X000600Y011354D01*
X000600Y011512D02*
X001035Y011512D01*
X000600Y012305D02*
X002277Y012305D01*
X002185Y012463D02*
X000600Y012463D01*
X001553Y013573D02*
X002183Y013573D01*
X002225Y013414D02*
X001763Y013414D01*
X001842Y013256D02*
X002354Y013256D01*
X002846Y013256D02*
X006209Y013256D01*
X006202Y013414D02*
X002975Y013414D01*
X003017Y013573D02*
X006262Y013573D01*
X006480Y013731D02*
X002998Y013731D01*
X002901Y013890D02*
X006702Y013890D01*
X006679Y014452D02*
X006521Y014452D01*
X006375Y014513D01*
X006263Y014625D01*
X006202Y014771D01*
X006202Y014929D01*
X006219Y014969D01*
X006179Y014952D01*
X006021Y014952D01*
X005875Y015013D01*
X005763Y015125D01*
X005702Y015271D01*
X005702Y015429D01*
X005763Y015575D01*
X005875Y015687D01*
X006021Y015748D01*
X006179Y015748D01*
X006325Y015687D01*
X006437Y015575D01*
X006498Y015429D01*
X006498Y015271D01*
X006481Y015231D01*
X006521Y015248D01*
X006679Y015248D01*
X006719Y015231D01*
X006702Y015271D01*
X006702Y015429D01*
X006763Y015575D01*
X006875Y015687D01*
X007021Y015748D01*
X007179Y015748D01*
X007325Y015687D01*
X007437Y015575D01*
X007498Y015429D01*
X007498Y015271D01*
X007437Y015125D01*
X007325Y015013D01*
X007179Y014952D01*
X007021Y014952D01*
X006981Y014969D01*
X006998Y014929D01*
X006998Y014771D01*
X006937Y014625D01*
X006825Y014513D01*
X006679Y014452D01*
X006836Y014524D02*
X009308Y014524D01*
X009315Y014516D02*
X009371Y014476D01*
X009432Y014445D01*
X009498Y014423D01*
X009566Y014413D01*
X009600Y014413D01*
X009634Y014413D01*
X009702Y014423D01*
X009768Y014445D01*
X009829Y014476D01*
X009885Y014516D01*
X009934Y014565D01*
X009974Y014621D01*
X010005Y014682D01*
X011218Y014682D01*
X011246Y014614D02*
X011183Y014767D01*
X011183Y014933D01*
X011246Y015086D01*
X011364Y015204D01*
X011517Y015267D01*
X011683Y015267D01*
X011836Y015204D01*
X011954Y015086D01*
X012017Y014933D01*
X012017Y014767D01*
X011954Y014614D01*
X011836Y014496D01*
X011683Y014433D01*
X011517Y014433D01*
X011364Y014496D01*
X011246Y014614D01*
X011336Y014524D02*
X009892Y014524D01*
X010005Y014682D02*
X010027Y014748D01*
X010037Y014816D01*
X010037Y014850D01*
X009600Y014850D01*
X010037Y014850D01*
X010037Y014884D01*
X010027Y014952D01*
X010005Y015018D01*
X009974Y015079D01*
X009934Y015135D01*
X009885Y015184D01*
X009829Y015224D01*
X009768Y015255D01*
X009702Y015277D01*
X009634Y015287D01*
X009600Y015287D01*
X009566Y015287D01*
X009498Y015277D01*
X009432Y015255D01*
X009371Y015224D01*
X009315Y015184D01*
X009266Y015135D01*
X009226Y015079D01*
X009195Y015018D01*
X009173Y014952D01*
X009163Y014884D01*
X009163Y014850D01*
X009163Y014816D01*
X009173Y014748D01*
X009195Y014682D01*
X006961Y014682D01*
X006998Y014841D02*
X009163Y014841D01*
X009163Y014850D02*
X009600Y014850D01*
X009600Y014850D01*
X009600Y014850D01*
X009600Y015287D01*
X009600Y014850D01*
X009600Y014413D01*
X009600Y014850D01*
X009600Y014850D01*
X009600Y014850D01*
X009163Y014850D01*
X009188Y014999D02*
X007292Y014999D01*
X007451Y015158D02*
X009289Y015158D01*
X009600Y015158D02*
X009600Y015158D01*
X009600Y014999D02*
X009600Y014999D01*
X009600Y014841D02*
X009600Y014841D01*
X009600Y014682D02*
X009600Y014682D01*
X009600Y014524D02*
X009600Y014524D01*
X009315Y014516D02*
X009266Y014565D01*
X009226Y014621D01*
X009195Y014682D01*
X008454Y015364D02*
X008517Y015517D01*
X008517Y015683D01*
X008454Y015836D01*
X008358Y015933D01*
X008433Y015933D01*
X008586Y015996D01*
X008704Y016114D01*
X008767Y016267D01*
X009489Y016267D01*
X009513Y016325D02*
X009452Y016179D01*
X009452Y016021D01*
X009513Y015875D01*
X009625Y015763D01*
X009771Y015702D01*
X009929Y015702D01*
X009969Y015719D01*
X009952Y015679D01*
X009952Y015521D01*
X010013Y015375D01*
X010125Y015263D01*
X010271Y015202D01*
X010429Y015202D01*
X010575Y015263D01*
X010687Y015375D01*
X010748Y015521D01*
X010748Y015679D01*
X010731Y015719D01*
X010771Y015702D01*
X010929Y015702D01*
X011075Y015763D01*
X011187Y015875D01*
X011248Y016021D01*
X011248Y016179D01*
X011187Y016325D01*
X011075Y016437D01*
X010929Y016498D01*
X010771Y016498D01*
X010625Y016437D01*
X010513Y016325D01*
X010452Y016179D01*
X010452Y016021D01*
X010469Y015981D01*
X010429Y015998D01*
X010271Y015998D01*
X010231Y015981D01*
X010248Y016021D01*
X010248Y016179D01*
X010187Y016325D01*
X010075Y016437D01*
X009929Y016498D01*
X009771Y016498D01*
X009625Y016437D01*
X009513Y016325D01*
X009613Y016426D02*
X008767Y016426D01*
X008767Y016433D02*
X008704Y016586D01*
X008586Y016704D01*
X008433Y016767D01*
X008267Y016767D01*
X008114Y016704D01*
X007996Y016586D01*
X007985Y016559D01*
X007974Y016579D01*
X007934Y016635D01*
X007885Y016684D01*
X007829Y016724D01*
X007768Y016755D01*
X007702Y016777D01*
X007634Y016787D01*
X007600Y016787D01*
X007600Y016350D01*
X007600Y016350D01*
X007600Y016787D01*
X007566Y016787D01*
X007498Y016777D01*
X007432Y016755D01*
X007371Y016724D01*
X007315Y016684D01*
X007266Y016635D01*
X007226Y016579D01*
X007215Y016559D01*
X007204Y016586D01*
X007086Y016704D01*
X006933Y016767D01*
X006767Y016767D01*
X006614Y016704D01*
X006496Y016586D01*
X006433Y016433D01*
X006433Y016267D01*
X002684Y016267D01*
X002683Y016267D02*
X002517Y016267D01*
X002364Y016204D01*
X002246Y016086D01*
X002183Y015933D01*
X002183Y015767D01*
X002246Y015614D01*
X002364Y015496D01*
X002517Y015433D01*
X002683Y015433D01*
X002836Y015496D01*
X002954Y015614D01*
X003017Y015767D01*
X003017Y015933D01*
X002954Y016086D01*
X002836Y016204D01*
X002683Y016267D01*
X002516Y016267D02*
X000600Y016267D01*
X000600Y016109D02*
X001234Y016109D01*
X001248Y016114D02*
X001059Y016036D01*
X000914Y015891D01*
X000836Y015702D01*
X000836Y015498D01*
X000914Y015309D01*
X001059Y015164D01*
X001248Y015086D01*
X001452Y015086D01*
X001641Y015164D01*
X001786Y015309D01*
X001864Y015498D01*
X001864Y015702D01*
X001786Y015891D01*
X001641Y016036D01*
X001452Y016114D01*
X001248Y016114D01*
X001466Y016109D02*
X002268Y016109D01*
X002190Y015950D02*
X001727Y015950D01*
X001827Y015792D02*
X002183Y015792D01*
X002238Y015633D02*
X001864Y015633D01*
X001855Y015475D02*
X002416Y015475D01*
X002498Y015277D02*
X002432Y015255D01*
X002371Y015224D01*
X002315Y015184D01*
X002266Y015135D01*
X002226Y015079D01*
X002195Y015018D01*
X002173Y014952D01*
X002163Y014884D01*
X002163Y014850D01*
X002163Y014816D01*
X002173Y014748D01*
X002195Y014682D01*
X000600Y014682D01*
X000600Y014524D02*
X002308Y014524D01*
X002315Y014516D02*
X002371Y014476D01*
X002432Y014445D01*
X002498Y014423D01*
X002566Y014413D01*
X002600Y014413D01*
X002634Y014413D01*
X002702Y014423D01*
X002768Y014445D01*
X002829Y014476D01*
X002885Y014516D01*
X002934Y014565D01*
X002974Y014621D01*
X003005Y014682D01*
X006239Y014682D01*
X006202Y014841D02*
X003037Y014841D01*
X003037Y014850D02*
X002600Y014850D01*
X002600Y014850D01*
X002600Y015287D01*
X002634Y015287D01*
X002702Y015277D01*
X002768Y015255D01*
X002829Y015224D01*
X002885Y015184D01*
X002934Y015135D01*
X002974Y015079D01*
X003005Y015018D01*
X003027Y014952D01*
X003037Y014884D01*
X003037Y014850D01*
X002600Y014850D01*
X002600Y014850D01*
X002600Y014850D01*
X002163Y014850D01*
X002600Y014850D01*
X002600Y015287D01*
X002566Y015287D01*
X002498Y015277D01*
X002600Y015158D02*
X002600Y015158D01*
X002600Y014999D02*
X002600Y014999D01*
X002600Y014850D02*
X002600Y014413D01*
X002600Y014850D01*
X002600Y014850D01*
X002600Y014841D02*
X002600Y014841D01*
X002600Y014682D02*
X002600Y014682D01*
X002600Y014524D02*
X002600Y014524D01*
X002315Y014516D02*
X002266Y014565D01*
X002226Y014621D01*
X002195Y014682D01*
X002163Y014841D02*
X000600Y014841D01*
X000600Y014999D02*
X002188Y014999D01*
X002289Y015158D02*
X001626Y015158D01*
X001789Y015316D02*
X005702Y015316D01*
X005721Y015475D02*
X002784Y015475D01*
X002962Y015633D02*
X005820Y015633D01*
X005749Y015158D02*
X002911Y015158D01*
X003012Y014999D02*
X005908Y014999D01*
X006364Y014524D02*
X002892Y014524D01*
X003005Y014682D02*
X003027Y014748D01*
X003037Y014816D01*
X003037Y014850D01*
X003017Y015792D02*
X007727Y015792D01*
X007746Y015836D02*
X007683Y015683D01*
X007683Y015517D01*
X007746Y015364D01*
X007864Y015246D01*
X008017Y015183D01*
X008183Y015183D01*
X008336Y015246D01*
X008454Y015364D01*
X008406Y015316D02*
X010071Y015316D01*
X009971Y015475D02*
X008500Y015475D01*
X008517Y015633D02*
X009952Y015633D01*
X009596Y015792D02*
X008473Y015792D01*
X008475Y015950D02*
X009482Y015950D01*
X009452Y016109D02*
X008699Y016109D01*
X008767Y016267D02*
X008767Y016433D01*
X008705Y016584D02*
X014600Y016584D01*
X014600Y016426D02*
X011087Y016426D01*
X011211Y016267D02*
X013540Y016267D01*
X013559Y016286D02*
X013414Y016141D01*
X013336Y015952D01*
X013336Y015748D01*
X013414Y015559D01*
X013559Y015414D01*
X013748Y015336D01*
X013952Y015336D01*
X014141Y015414D01*
X014286Y015559D01*
X014364Y015748D01*
X014364Y015952D01*
X014286Y016141D01*
X014141Y016286D01*
X013952Y016364D01*
X013748Y016364D01*
X013559Y016286D01*
X013400Y016109D02*
X011248Y016109D01*
X011218Y015950D02*
X013336Y015950D01*
X013336Y015792D02*
X011104Y015792D01*
X010748Y015633D02*
X013383Y015633D01*
X013498Y015475D02*
X010729Y015475D01*
X010629Y015316D02*
X014600Y015316D01*
X014600Y015158D02*
X011883Y015158D01*
X011990Y014999D02*
X014600Y014999D01*
X014600Y014841D02*
X012017Y014841D01*
X011982Y014682D02*
X014600Y014682D01*
X014600Y014524D02*
X011864Y014524D01*
X011317Y015158D02*
X009911Y015158D01*
X010012Y014999D02*
X011210Y014999D01*
X011183Y014841D02*
X010037Y014841D01*
X010248Y016109D02*
X010452Y016109D01*
X010489Y016267D02*
X010211Y016267D01*
X010087Y016426D02*
X010613Y016426D01*
X010075Y017263D02*
X009929Y017202D01*
X009771Y017202D01*
X009731Y017219D01*
X009748Y017179D01*
X009748Y017021D01*
X009687Y016875D01*
X009575Y016763D01*
X009429Y016702D01*
X009271Y016702D01*
X009125Y016763D01*
X009013Y016875D01*
X008952Y017021D01*
X008952Y017179D01*
X009013Y017325D01*
X009125Y017437D01*
X009271Y017498D01*
X009429Y017498D01*
X009469Y017481D01*
X009452Y017521D01*
X009452Y017679D01*
X009469Y017719D01*
X009429Y017702D01*
X009271Y017702D01*
X009125Y017763D01*
X009013Y017875D01*
X008952Y018021D01*
X008952Y018179D01*
X009013Y018325D01*
X009125Y018437D01*
X009271Y018498D01*
X009429Y018498D01*
X009575Y018437D01*
X009687Y018325D01*
X009748Y018179D01*
X009748Y018021D01*
X009731Y017981D01*
X009771Y017998D01*
X009929Y017998D01*
X010075Y017937D01*
X010187Y017825D01*
X010248Y017679D01*
X010248Y017521D01*
X010187Y017375D01*
X010075Y017263D01*
X009967Y017218D02*
X011386Y017218D01*
X011371Y017226D02*
X011432Y017195D01*
X011498Y017173D01*
X011566Y017163D01*
X011600Y017163D01*
X011634Y017163D01*
X011702Y017173D01*
X011768Y017195D01*
X011829Y017226D01*
X011885Y017266D01*
X011934Y017315D01*
X011974Y017371D01*
X012005Y017432D01*
X012027Y017498D01*
X012037Y017566D01*
X012037Y017600D01*
X012037Y017634D01*
X012027Y017702D01*
X012005Y017768D01*
X011974Y017829D01*
X011934Y017885D01*
X011885Y017934D01*
X011829Y017974D01*
X011768Y018005D01*
X011702Y018027D01*
X011634Y018037D01*
X011600Y018037D01*
X011600Y017600D01*
X011600Y017600D01*
X012037Y017600D01*
X011600Y017600D01*
X011600Y017600D01*
X011600Y017600D01*
X011163Y017600D01*
X011163Y017566D01*
X011173Y017498D01*
X011195Y017432D01*
X011226Y017371D01*
X011266Y017315D01*
X011315Y017266D01*
X011371Y017226D01*
X011223Y017377D02*
X010188Y017377D01*
X010248Y017535D02*
X011167Y017535D01*
X011163Y017600D02*
X011600Y017600D01*
X011600Y018037D01*
X011566Y018037D01*
X011498Y018027D01*
X011432Y018005D01*
X011371Y017974D01*
X011315Y017934D01*
X011266Y017885D01*
X011226Y017829D01*
X011195Y017768D01*
X011173Y017702D01*
X011163Y017634D01*
X011163Y017600D01*
X011172Y017694D02*
X010242Y017694D01*
X010161Y017852D02*
X011242Y017852D01*
X011448Y018011D02*
X009744Y018011D01*
X009748Y018169D02*
X014600Y018169D01*
X014600Y018011D02*
X011752Y018011D01*
X011600Y018011D02*
X011600Y018011D01*
X011600Y017852D02*
X011600Y017852D01*
X011600Y017694D02*
X011600Y017694D01*
X011600Y017600D02*
X011600Y017163D01*
X011600Y017600D01*
X011600Y017600D01*
X011600Y017535D02*
X011600Y017535D01*
X011600Y017377D02*
X011600Y017377D01*
X011600Y017218D02*
X011600Y017218D01*
X011814Y017218D02*
X014600Y017218D01*
X014600Y017060D02*
X009748Y017060D01*
X009732Y017218D02*
X009733Y017218D01*
X009698Y016901D02*
X014600Y016901D01*
X014600Y016743D02*
X009526Y016743D01*
X009174Y016743D02*
X008493Y016743D01*
X008207Y016743D02*
X007793Y016743D01*
X007600Y016743D02*
X007600Y016743D01*
X007600Y016584D02*
X007600Y016584D01*
X007600Y016426D02*
X007600Y016426D01*
X007600Y016350D02*
X007600Y015913D01*
X007634Y015913D01*
X007702Y015923D01*
X007768Y015945D01*
X007829Y015976D01*
X007885Y016016D01*
X007934Y016065D01*
X007974Y016121D01*
X007985Y016141D01*
X007996Y016114D01*
X008092Y016017D01*
X008017Y016017D01*
X007864Y015954D01*
X007746Y015836D01*
X007779Y015950D02*
X007860Y015950D01*
X007965Y016109D02*
X008001Y016109D01*
X007600Y016109D02*
X007600Y016109D01*
X007600Y016267D02*
X007600Y016267D01*
X007600Y016350D02*
X007600Y016350D01*
X007600Y015913D01*
X007566Y015913D01*
X007498Y015923D01*
X007432Y015945D01*
X007371Y015976D01*
X007315Y016016D01*
X007266Y016065D01*
X007226Y016121D01*
X007215Y016141D01*
X007204Y016114D01*
X007086Y015996D01*
X006933Y015933D01*
X006767Y015933D01*
X006614Y015996D01*
X006496Y016114D01*
X006433Y016267D01*
X006433Y016426D02*
X000600Y016426D01*
X000600Y016584D02*
X005053Y016584D01*
X005013Y016625D02*
X004952Y016771D01*
X004952Y016929D01*
X004969Y016969D01*
X004929Y016952D01*
X004771Y016952D01*
X004625Y017013D01*
X004513Y017125D01*
X004452Y017271D01*
X004452Y017429D01*
X004513Y017575D01*
X004625Y017687D01*
X004771Y017748D01*
X004929Y017748D01*
X005075Y017687D01*
X005187Y017575D01*
X005248Y017429D01*
X005248Y017271D01*
X005231Y017231D01*
X005271Y017248D01*
X005429Y017248D01*
X005469Y017231D01*
X005452Y017271D01*
X005452Y017429D01*
X005513Y017575D01*
X005625Y017687D01*
X005771Y017748D01*
X005929Y017748D01*
X006075Y017687D01*
X006187Y017575D01*
X006248Y017429D01*
X006248Y017271D01*
X006187Y017125D01*
X006075Y017013D01*
X005929Y016952D01*
X005771Y016952D01*
X005731Y016969D01*
X005748Y016929D01*
X005748Y016771D01*
X005687Y016625D01*
X005575Y016513D01*
X005429Y016452D01*
X005271Y016452D01*
X005125Y016513D01*
X005013Y016625D01*
X004964Y016743D02*
X002852Y016743D01*
X002829Y016726D02*
X002885Y016766D01*
X002934Y016815D01*
X002974Y016871D01*
X003005Y016932D01*
X003027Y016998D01*
X003037Y017066D01*
X003037Y017100D01*
X003037Y017134D01*
X003027Y017202D01*
X003005Y017268D01*
X002974Y017329D01*
X002934Y017385D01*
X002885Y017434D01*
X002829Y017474D01*
X002768Y017505D01*
X002702Y017527D01*
X002634Y017537D01*
X002600Y017537D01*
X002600Y017100D01*
X002600Y017100D01*
X003037Y017100D01*
X002600Y017100D01*
X002600Y017100D01*
X002600Y017100D01*
X002163Y017100D01*
X002163Y017066D01*
X002173Y016998D01*
X002195Y016932D01*
X002226Y016871D01*
X002266Y016815D01*
X002315Y016766D01*
X002371Y016726D01*
X002432Y016695D01*
X002498Y016673D01*
X002566Y016663D01*
X002600Y016663D01*
X002634Y016663D01*
X002702Y016673D01*
X002768Y016695D01*
X002829Y016726D01*
X002600Y016743D02*
X002600Y016743D01*
X002600Y016663D02*
X002600Y017100D01*
X002600Y017537D01*
X002566Y017537D01*
X002498Y017527D01*
X002432Y017505D01*
X002371Y017474D01*
X002315Y017434D01*
X002266Y017385D01*
X002226Y017329D01*
X002195Y017268D01*
X002173Y017202D01*
X002163Y017134D01*
X002163Y017100D01*
X002600Y017100D01*
X002600Y017100D01*
X002600Y016663D01*
X002600Y016901D02*
X002600Y016901D01*
X002600Y017060D02*
X002600Y017060D01*
X002600Y017218D02*
X002600Y017218D01*
X002600Y017377D02*
X002600Y017377D01*
X002600Y017535D02*
X002600Y017535D01*
X002650Y017535D02*
X004496Y017535D01*
X004452Y017377D02*
X002940Y017377D01*
X003022Y017218D02*
X004474Y017218D01*
X004578Y017060D02*
X003037Y017060D01*
X002990Y016901D02*
X004952Y016901D01*
X005248Y017377D02*
X005452Y017377D01*
X005496Y017535D02*
X005204Y017535D01*
X005060Y017694D02*
X005640Y017694D01*
X005767Y017933D02*
X005614Y017996D01*
X005496Y018114D01*
X005433Y018267D01*
X005433Y018433D01*
X005496Y018586D01*
X005614Y018704D01*
X005767Y018767D01*
X005933Y018767D01*
X006086Y018704D01*
X006204Y018586D01*
X006267Y018433D01*
X006267Y018267D01*
X006204Y018114D01*
X006086Y017996D01*
X005933Y017933D01*
X005767Y017933D01*
X005599Y018011D02*
X004101Y018011D01*
X004086Y017996D02*
X003933Y017933D01*
X003767Y017933D01*
X003614Y017996D01*
X003496Y018114D01*
X003433Y018267D01*
X003433Y018433D01*
X003496Y018586D01*
X003614Y018704D01*
X003767Y018767D01*
X003933Y018767D01*
X004086Y018704D01*
X004204Y018586D01*
X004267Y018433D01*
X004267Y018267D01*
X004204Y018114D01*
X004086Y017996D01*
X004227Y018169D02*
X005473Y018169D01*
X005433Y018328D02*
X004267Y018328D01*
X004246Y018486D02*
X005454Y018486D01*
X005554Y018645D02*
X004146Y018645D01*
X003554Y018645D02*
X002214Y018645D01*
X002316Y018803D02*
X012884Y018803D01*
X012805Y018962D02*
X002395Y018962D01*
X002437Y019120D02*
X005865Y019120D01*
X006062Y019120D02*
X006138Y019120D01*
X006138Y019066D02*
X006142Y019066D01*
X006225Y019079D01*
X006305Y019105D01*
X006380Y019143D01*
X006448Y019192D01*
X006508Y019252D01*
X006557Y019320D01*
X006595Y019395D01*
X006621Y019475D01*
X006634Y019558D01*
X006634Y019562D01*
X006138Y019562D01*
X006138Y019066D01*
X006335Y019120D02*
X007665Y019120D01*
X007444Y019279D02*
X006527Y019279D01*
X006609Y019437D02*
X007361Y019437D01*
X007336Y019596D02*
X006138Y019596D01*
X006062Y019596D02*
X002433Y019596D01*
X002460Y019437D02*
X005591Y019437D01*
X005673Y019279D02*
X002460Y019279D01*
X002391Y019754D02*
X005588Y019754D01*
X005667Y019913D02*
X002307Y019913D01*
X002199Y020071D02*
X005847Y020071D01*
X006353Y020071D02*
X007643Y020071D01*
X007435Y019913D02*
X006533Y019913D01*
X006612Y019754D02*
X007357Y019754D01*
X008035Y019120D02*
X012763Y019120D01*
X012740Y019279D02*
X011869Y019279D01*
X011836Y019246D02*
X011954Y019364D01*
X012017Y019517D01*
X012017Y019683D01*
X011954Y019836D01*
X011836Y019954D01*
X011683Y020017D01*
X011517Y020017D01*
X011364Y019954D01*
X011246Y019836D01*
X011183Y019683D01*
X011183Y019517D01*
X011246Y019364D01*
X011364Y019246D01*
X011517Y019183D01*
X011683Y019183D01*
X011836Y019246D01*
X011984Y019437D02*
X012740Y019437D01*
X012767Y019596D02*
X012017Y019596D01*
X011988Y019754D02*
X012809Y019754D01*
X012893Y019913D02*
X011878Y019913D01*
X011322Y019913D02*
X008265Y019913D01*
X008343Y019754D02*
X011212Y019754D01*
X011183Y019596D02*
X008364Y019596D01*
X008339Y019437D02*
X011216Y019437D01*
X011331Y019279D02*
X008256Y019279D01*
X008316Y018787D02*
X008248Y018777D01*
X008182Y018755D01*
X008121Y018724D01*
X008065Y018684D01*
X008016Y018635D01*
X007976Y018579D01*
X007965Y018559D01*
X007954Y018586D01*
X007836Y018704D01*
X007683Y018767D01*
X007517Y018767D01*
X007364Y018704D01*
X007246Y018586D01*
X007225Y018536D01*
X007204Y018586D01*
X007086Y018704D01*
X006933Y018767D01*
X006767Y018767D01*
X006614Y018704D01*
X006496Y018586D01*
X006433Y018433D01*
X006433Y018267D01*
X006496Y018114D01*
X006614Y017996D01*
X006767Y017933D01*
X006933Y017933D01*
X007086Y017996D01*
X007204Y018114D01*
X007225Y018164D01*
X007246Y018114D01*
X007364Y017996D01*
X007517Y017933D01*
X007683Y017933D01*
X007836Y017996D01*
X007954Y018114D01*
X007965Y018141D01*
X007976Y018121D01*
X008016Y018065D01*
X008065Y018016D01*
X008121Y017976D01*
X008182Y017945D01*
X008248Y017923D01*
X008316Y017913D01*
X008350Y017913D01*
X008384Y017913D01*
X008452Y017923D01*
X008518Y017945D01*
X008579Y017976D01*
X008635Y018016D01*
X008684Y018065D01*
X008724Y018121D01*
X008755Y018182D01*
X008777Y018248D01*
X008787Y018316D01*
X008787Y018350D01*
X008787Y018384D01*
X008777Y018452D01*
X008755Y018518D01*
X008724Y018579D01*
X008684Y018635D01*
X008635Y018684D01*
X008579Y018724D01*
X008518Y018755D01*
X008452Y018777D01*
X008384Y018787D01*
X008350Y018787D01*
X008350Y018350D01*
X008350Y018350D01*
X008787Y018350D01*
X008350Y018350D01*
X008350Y018350D01*
X008350Y018787D01*
X008316Y018787D01*
X008350Y018645D02*
X008350Y018645D01*
X008350Y018486D02*
X008350Y018486D01*
X008350Y018350D02*
X008350Y017913D01*
X008350Y018350D01*
X008350Y018350D01*
X008350Y018328D02*
X008350Y018328D01*
X008350Y018169D02*
X008350Y018169D01*
X008350Y018011D02*
X008350Y018011D01*
X008073Y018011D02*
X007851Y018011D01*
X007349Y018011D02*
X007101Y018011D01*
X006599Y018011D02*
X006101Y018011D01*
X006227Y018169D02*
X006473Y018169D01*
X006433Y018328D02*
X006267Y018328D01*
X006246Y018486D02*
X006454Y018486D01*
X006554Y018645D02*
X006146Y018645D01*
X006138Y019279D02*
X006062Y019279D01*
X006062Y019437D02*
X006138Y019437D01*
X007146Y018645D02*
X007304Y018645D01*
X007896Y018645D02*
X008026Y018645D01*
X008627Y018011D02*
X008956Y018011D01*
X008952Y018169D02*
X008749Y018169D01*
X008787Y018328D02*
X009015Y018328D01*
X009242Y018486D02*
X008766Y018486D01*
X008674Y018645D02*
X012986Y018645D01*
X013144Y018486D02*
X009458Y018486D01*
X009685Y018328D02*
X013401Y018328D01*
X014299Y018328D02*
X014600Y018328D01*
X014600Y018486D02*
X014556Y018486D01*
X014600Y017852D02*
X011958Y017852D01*
X012028Y017694D02*
X014600Y017694D01*
X014600Y017535D02*
X012033Y017535D01*
X011977Y017377D02*
X014600Y017377D01*
X014600Y016267D02*
X014160Y016267D01*
X014300Y016109D02*
X014600Y016109D01*
X014600Y015950D02*
X014364Y015950D01*
X014364Y015792D02*
X014600Y015792D01*
X014600Y015633D02*
X014317Y015633D01*
X014202Y015475D02*
X014600Y015475D01*
X013001Y020071D02*
X008057Y020071D01*
X009035Y017852D02*
X002942Y017852D01*
X002954Y017864D02*
X003017Y018017D01*
X003017Y018183D01*
X002954Y018336D01*
X002836Y018454D01*
X002683Y018517D01*
X002517Y018517D01*
X002364Y018454D01*
X002246Y018336D01*
X002183Y018183D01*
X002183Y018017D01*
X002246Y017864D01*
X002364Y017746D01*
X002517Y017683D01*
X002683Y017683D01*
X002836Y017746D01*
X002954Y017864D01*
X003015Y018011D02*
X003599Y018011D01*
X003473Y018169D02*
X003017Y018169D01*
X002958Y018328D02*
X003433Y018328D01*
X003454Y018486D02*
X002759Y018486D01*
X002441Y018486D02*
X002056Y018486D01*
X002242Y018328D02*
X001799Y018328D01*
X001641Y018036D02*
X001452Y018114D01*
X001248Y018114D01*
X001059Y018036D01*
X000914Y017891D01*
X000836Y017702D01*
X000836Y017498D01*
X000914Y017309D01*
X001059Y017164D01*
X001248Y017086D01*
X001452Y017086D01*
X001641Y017164D01*
X001786Y017309D01*
X001864Y017498D01*
X001864Y017702D01*
X001786Y017891D01*
X001641Y018036D01*
X001667Y018011D02*
X002185Y018011D01*
X002183Y018169D02*
X000600Y018169D01*
X000600Y018011D02*
X001033Y018011D01*
X000898Y017852D02*
X000600Y017852D01*
X000600Y017694D02*
X000836Y017694D01*
X000836Y017535D02*
X000600Y017535D01*
X000600Y017377D02*
X000886Y017377D01*
X001005Y017218D02*
X000600Y017218D01*
X000600Y017060D02*
X002163Y017060D01*
X002178Y017218D02*
X001695Y017218D01*
X001814Y017377D02*
X002260Y017377D01*
X002550Y017535D02*
X001864Y017535D01*
X001864Y017694D02*
X002490Y017694D01*
X002710Y017694D02*
X004640Y017694D01*
X005748Y016901D02*
X009002Y016901D01*
X008952Y017060D02*
X006122Y017060D01*
X006226Y017218D02*
X008968Y017218D01*
X009064Y017377D02*
X006248Y017377D01*
X006204Y017535D02*
X009452Y017535D01*
X009458Y017694D02*
X006060Y017694D01*
X005736Y016743D02*
X006707Y016743D01*
X006495Y016584D02*
X005647Y016584D01*
X006501Y016109D02*
X002932Y016109D01*
X003010Y015950D02*
X006725Y015950D01*
X006975Y015950D02*
X007421Y015950D01*
X007235Y016109D02*
X007199Y016109D01*
X007380Y015633D02*
X007683Y015633D01*
X007700Y015475D02*
X007479Y015475D01*
X007498Y015316D02*
X007794Y015316D01*
X007600Y015950D02*
X007600Y015950D01*
X007229Y016584D02*
X007205Y016584D01*
X007407Y016743D02*
X006993Y016743D01*
X006820Y015633D02*
X006380Y015633D01*
X006479Y015475D02*
X006721Y015475D01*
X006702Y015316D02*
X006498Y015316D01*
X007971Y016584D02*
X007995Y016584D01*
X006290Y013097D02*
X001864Y013097D01*
X002878Y012939D02*
X006706Y012939D01*
X006702Y012780D02*
X002999Y012780D01*
X003037Y012622D02*
X006766Y012622D01*
X008734Y012463D02*
X008745Y012463D01*
X009600Y005331D02*
X009600Y005331D01*
X009600Y005172D02*
X009600Y005172D01*
X001074Y015158D02*
X000600Y015158D01*
X000600Y015316D02*
X000911Y015316D01*
X000845Y015475D02*
X000600Y015475D01*
X000600Y015633D02*
X000836Y015633D01*
X000873Y015792D02*
X000600Y015792D01*
X000600Y015950D02*
X000973Y015950D01*
X000600Y016743D02*
X002348Y016743D01*
X002210Y016901D02*
X000600Y016901D01*
X000600Y018328D02*
X000901Y018328D01*
X000644Y018486D02*
X000600Y018486D01*
X001802Y017852D02*
X002258Y017852D01*
M02*
