G75*
G70*
%OFA0B0*%
%FSLAX24Y24*%
%IPPOS*%
%LPD*%
%AMOC8*
5,1,8,0,0,1.08239X$1,22.5*
%
%ADD10C,0.0515*%
%ADD11R,0.0709X0.0709*%
%ADD12C,0.0476*%
%ADD13C,0.0160*%
D10*
X002600Y002600D03*
X002600Y003600D03*
X002600Y004600D03*
X002600Y005600D03*
X002600Y006600D03*
X002600Y007600D03*
X002600Y008600D03*
X002600Y009600D03*
X002600Y010600D03*
X002600Y011600D03*
X002600Y012600D03*
X002600Y013600D03*
X002600Y014850D03*
X002600Y015850D03*
X002600Y017100D03*
X002600Y018100D03*
X003850Y018350D03*
X005850Y018350D03*
X006850Y018350D03*
X007600Y018350D03*
X008350Y018350D03*
X008350Y016350D03*
X008100Y015600D03*
X007600Y016350D03*
X006850Y016350D03*
X008100Y013600D03*
X009600Y014850D03*
X011600Y014850D03*
X011600Y017600D03*
X011600Y019600D03*
X011850Y011850D03*
X012600Y011850D03*
X013850Y010850D03*
X013850Y009850D03*
X012600Y009850D03*
X011850Y009850D03*
X011850Y006850D03*
X009850Y006850D03*
X009600Y006100D03*
X009600Y005350D03*
X008350Y004350D03*
X007600Y005350D03*
X007600Y006100D03*
X006350Y004350D03*
X006850Y003350D03*
X006850Y002350D03*
X005850Y002350D03*
X003850Y002350D03*
X008850Y002350D03*
X008850Y003350D03*
X008850Y009350D03*
X008100Y009350D03*
X007100Y009350D03*
X007100Y011350D03*
X008100Y011350D03*
X008850Y011350D03*
X009600Y011350D03*
X009600Y009350D03*
D11*
X001350Y003100D03*
X001350Y005100D03*
X001350Y007100D03*
X001350Y009100D03*
X001350Y011100D03*
X001350Y013100D03*
X001350Y015600D03*
X001350Y017600D03*
X006100Y019600D03*
X007850Y019600D03*
X013850Y015850D03*
X013850Y004850D03*
X004100Y004850D03*
D12*
X004850Y003350D03*
X005350Y003850D03*
X005850Y003350D03*
X006600Y005350D03*
X006100Y005850D03*
X006600Y006350D03*
X007350Y007350D03*
X006850Y007850D03*
X007350Y008350D03*
X008350Y007850D03*
X008850Y007350D03*
X008850Y008350D03*
X010350Y010350D03*
X010850Y009850D03*
X010850Y010850D03*
X010600Y012850D03*
X010100Y013350D03*
X010600Y013850D03*
X009350Y012350D03*
X008850Y012850D03*
X008350Y012350D03*
X007100Y012850D03*
X006600Y013350D03*
X007100Y013850D03*
X006600Y014850D03*
X006100Y015350D03*
X007100Y015350D03*
X005850Y017350D03*
X005350Y016850D03*
X004850Y017350D03*
X009350Y017100D03*
X009850Y017600D03*
X009350Y018100D03*
X009850Y016100D03*
X010350Y015600D03*
X010850Y016100D03*
X011850Y013850D03*
X012350Y013350D03*
X011850Y012850D03*
X012100Y008850D03*
X012600Y008350D03*
X012100Y007850D03*
X011100Y007850D03*
X010600Y008350D03*
X011100Y008850D03*
X010600Y005600D03*
X011100Y005100D03*
X011600Y005600D03*
X010350Y003850D03*
X009850Y003350D03*
X009850Y004350D03*
D13*
X010350Y003850D02*
X008600Y003850D01*
X008350Y003600D01*
X008350Y002850D01*
X008850Y002350D01*
X008350Y001850D01*
X006350Y001850D01*
X006350Y002850D01*
X005850Y003350D01*
X005350Y003850D02*
X005100Y004100D01*
X001850Y004100D01*
X001350Y003600D01*
X001350Y003100D01*
X002600Y003600D02*
X003350Y003600D01*
X004600Y002350D01*
X005850Y002350D01*
X006350Y001850D02*
X004350Y001850D01*
X003850Y002350D01*
X006350Y004350D02*
X005100Y005600D01*
X002600Y005600D01*
X002100Y006100D02*
X005850Y006100D01*
X006100Y005850D01*
X006600Y006350D02*
X007100Y005850D01*
X007100Y005100D01*
X007725Y004475D01*
X006850Y003600D01*
X006850Y003350D01*
X007850Y004350D02*
X007725Y004475D01*
X007850Y004350D02*
X008350Y004350D01*
X008850Y004850D01*
X010850Y004850D01*
X011100Y005100D01*
X011600Y004600D02*
X011600Y005600D01*
X011350Y006350D02*
X010600Y005600D01*
X009850Y006100D02*
X009600Y006100D01*
X008850Y005350D01*
X007600Y005350D01*
X008100Y005850D01*
X008100Y007350D01*
X007600Y007850D01*
X007600Y008100D01*
X007350Y008350D01*
X007350Y008850D02*
X003850Y008850D01*
X003600Y009100D01*
X001350Y009100D01*
X001850Y008100D02*
X006600Y008100D01*
X006850Y007850D01*
X006100Y007600D02*
X007600Y006100D01*
X008350Y007850D02*
X008350Y008100D01*
X007350Y008850D01*
X007100Y009350D02*
X008850Y008350D01*
X009850Y008350D01*
X009850Y006850D01*
X009850Y006100D02*
X011100Y007350D01*
X012350Y007350D01*
X012600Y007600D01*
X012600Y008350D01*
X012850Y008850D02*
X013100Y008600D01*
X013100Y007100D01*
X012350Y006350D01*
X011350Y006350D01*
X011100Y007850D02*
X012100Y007850D01*
X012100Y008850D02*
X012850Y008850D01*
X012600Y009850D02*
X013850Y009850D01*
X014350Y011600D02*
X014100Y011850D01*
X012600Y011850D01*
X011850Y011850D01*
X011850Y012850D01*
X012350Y013350D02*
X012350Y014100D01*
X011600Y014850D01*
X011350Y015100D01*
X011350Y015850D01*
X013850Y015850D01*
X011350Y015850D02*
X011350Y016600D01*
X010850Y017100D01*
X009350Y017100D01*
X008850Y017600D02*
X008850Y016350D01*
X009100Y016100D01*
X009850Y016100D01*
X010350Y015600D02*
X009100Y015600D01*
X008350Y016350D01*
X007850Y016850D01*
X007100Y016850D01*
X006850Y016600D01*
X006850Y016350D01*
X006850Y016100D01*
X006100Y015350D01*
X006600Y014850D02*
X003600Y014850D01*
X003100Y014350D01*
X001600Y014350D01*
X001350Y014600D01*
X001350Y015600D01*
X002100Y015600D02*
X002350Y015350D01*
X003850Y015350D01*
X005350Y016850D01*
X004850Y017350D02*
X005850Y018350D01*
X006600Y017600D01*
X006850Y017600D01*
X007600Y018350D01*
X008100Y018850D01*
X009350Y018850D01*
X009850Y018350D01*
X009850Y017600D01*
X009350Y018100D02*
X008850Y017600D01*
X008100Y015600D02*
X008100Y015100D01*
X007350Y014350D01*
X006350Y014350D01*
X005850Y013850D01*
X003100Y013850D01*
X002600Y013600D01*
X001850Y012100D02*
X007100Y012100D01*
X007850Y012850D01*
X008850Y012850D01*
X009350Y012350D02*
X008850Y011850D01*
X008850Y011350D01*
X008850Y010350D01*
X010350Y010350D01*
X010850Y010850D02*
X010600Y011100D01*
X010600Y012850D01*
X010100Y013350D02*
X010100Y011850D01*
X009600Y011350D01*
X008850Y010350D02*
X008850Y010100D01*
X008100Y009350D01*
X008100Y011350D02*
X007600Y011850D01*
X002850Y011850D01*
X002600Y011600D01*
X001850Y012100D02*
X001350Y011600D01*
X001350Y011100D01*
X002600Y009600D02*
X004350Y011350D01*
X007100Y011350D01*
X006350Y013100D02*
X006600Y013350D01*
X006350Y013100D02*
X001350Y013100D01*
X002100Y015600D02*
X002100Y016100D01*
X001350Y016850D01*
X001350Y017600D01*
X002600Y018100D02*
X002850Y018350D01*
X003850Y018350D01*
X005350Y018850D02*
X006350Y018850D01*
X006850Y018350D01*
X005350Y018850D02*
X002600Y016100D01*
X002600Y015850D01*
X007100Y013850D02*
X007850Y013850D01*
X008100Y013600D01*
X009850Y013600D01*
X010100Y013350D01*
X010600Y013850D02*
X010850Y014100D01*
X010850Y016100D01*
X014350Y011600D02*
X014350Y006600D01*
X013850Y006100D01*
X013850Y004850D01*
X011600Y004600D02*
X010600Y003350D01*
X009850Y003350D01*
X009850Y008350D02*
X010600Y008350D01*
X011100Y008850D02*
X010850Y009100D01*
X010850Y009850D01*
X006100Y007600D02*
X002600Y007600D01*
X001850Y008100D02*
X001350Y007600D01*
X001350Y007100D01*
X002100Y006100D02*
X001350Y005350D01*
X001350Y005100D01*
M02*
