G75*
G70*
%OFA0B0*%
%FSLAX24Y24*%
%IPPOS*%
%LPD*%
%AMOC8*
5,1,8,0,0,1.08239X$1,22.5*
%
%ADD10C,0.0000*%
D10*
X000100Y000100D02*
X000100Y020600D01*
X015092Y020600D01*
X015092Y000100D01*
X000100Y000100D01*
X000720Y001350D02*
X000722Y001400D01*
X000728Y001450D01*
X000738Y001499D01*
X000752Y001547D01*
X000769Y001594D01*
X000790Y001639D01*
X000815Y001683D01*
X000843Y001724D01*
X000875Y001763D01*
X000909Y001800D01*
X000946Y001834D01*
X000986Y001864D01*
X001028Y001891D01*
X001072Y001915D01*
X001118Y001936D01*
X001165Y001952D01*
X001213Y001965D01*
X001263Y001974D01*
X001312Y001979D01*
X001363Y001980D01*
X001413Y001977D01*
X001462Y001970D01*
X001511Y001959D01*
X001559Y001944D01*
X001605Y001926D01*
X001650Y001904D01*
X001693Y001878D01*
X001734Y001849D01*
X001773Y001817D01*
X001809Y001782D01*
X001841Y001744D01*
X001871Y001704D01*
X001898Y001661D01*
X001921Y001617D01*
X001940Y001571D01*
X001956Y001523D01*
X001968Y001474D01*
X001976Y001425D01*
X001980Y001375D01*
X001980Y001325D01*
X001976Y001275D01*
X001968Y001226D01*
X001956Y001177D01*
X001940Y001129D01*
X001921Y001083D01*
X001898Y001039D01*
X001871Y000996D01*
X001841Y000956D01*
X001809Y000918D01*
X001773Y000883D01*
X001734Y000851D01*
X001693Y000822D01*
X001650Y000796D01*
X001605Y000774D01*
X001559Y000756D01*
X001511Y000741D01*
X001462Y000730D01*
X001413Y000723D01*
X001363Y000720D01*
X001312Y000721D01*
X001263Y000726D01*
X001213Y000735D01*
X001165Y000748D01*
X001118Y000764D01*
X001072Y000785D01*
X001028Y000809D01*
X000986Y000836D01*
X000946Y000866D01*
X000909Y000900D01*
X000875Y000937D01*
X000843Y000976D01*
X000815Y001017D01*
X000790Y001061D01*
X000769Y001106D01*
X000752Y001153D01*
X000738Y001201D01*
X000728Y001250D01*
X000722Y001300D01*
X000720Y001350D01*
X013220Y001350D02*
X013222Y001400D01*
X013228Y001450D01*
X013238Y001499D01*
X013252Y001547D01*
X013269Y001594D01*
X013290Y001639D01*
X013315Y001683D01*
X013343Y001724D01*
X013375Y001763D01*
X013409Y001800D01*
X013446Y001834D01*
X013486Y001864D01*
X013528Y001891D01*
X013572Y001915D01*
X013618Y001936D01*
X013665Y001952D01*
X013713Y001965D01*
X013763Y001974D01*
X013812Y001979D01*
X013863Y001980D01*
X013913Y001977D01*
X013962Y001970D01*
X014011Y001959D01*
X014059Y001944D01*
X014105Y001926D01*
X014150Y001904D01*
X014193Y001878D01*
X014234Y001849D01*
X014273Y001817D01*
X014309Y001782D01*
X014341Y001744D01*
X014371Y001704D01*
X014398Y001661D01*
X014421Y001617D01*
X014440Y001571D01*
X014456Y001523D01*
X014468Y001474D01*
X014476Y001425D01*
X014480Y001375D01*
X014480Y001325D01*
X014476Y001275D01*
X014468Y001226D01*
X014456Y001177D01*
X014440Y001129D01*
X014421Y001083D01*
X014398Y001039D01*
X014371Y000996D01*
X014341Y000956D01*
X014309Y000918D01*
X014273Y000883D01*
X014234Y000851D01*
X014193Y000822D01*
X014150Y000796D01*
X014105Y000774D01*
X014059Y000756D01*
X014011Y000741D01*
X013962Y000730D01*
X013913Y000723D01*
X013863Y000720D01*
X013812Y000721D01*
X013763Y000726D01*
X013713Y000735D01*
X013665Y000748D01*
X013618Y000764D01*
X013572Y000785D01*
X013528Y000809D01*
X013486Y000836D01*
X013446Y000866D01*
X013409Y000900D01*
X013375Y000937D01*
X013343Y000976D01*
X013315Y001017D01*
X013290Y001061D01*
X013269Y001106D01*
X013252Y001153D01*
X013238Y001201D01*
X013228Y001250D01*
X013222Y001300D01*
X013220Y001350D01*
X013220Y019350D02*
X013222Y019400D01*
X013228Y019450D01*
X013238Y019499D01*
X013252Y019547D01*
X013269Y019594D01*
X013290Y019639D01*
X013315Y019683D01*
X013343Y019724D01*
X013375Y019763D01*
X013409Y019800D01*
X013446Y019834D01*
X013486Y019864D01*
X013528Y019891D01*
X013572Y019915D01*
X013618Y019936D01*
X013665Y019952D01*
X013713Y019965D01*
X013763Y019974D01*
X013812Y019979D01*
X013863Y019980D01*
X013913Y019977D01*
X013962Y019970D01*
X014011Y019959D01*
X014059Y019944D01*
X014105Y019926D01*
X014150Y019904D01*
X014193Y019878D01*
X014234Y019849D01*
X014273Y019817D01*
X014309Y019782D01*
X014341Y019744D01*
X014371Y019704D01*
X014398Y019661D01*
X014421Y019617D01*
X014440Y019571D01*
X014456Y019523D01*
X014468Y019474D01*
X014476Y019425D01*
X014480Y019375D01*
X014480Y019325D01*
X014476Y019275D01*
X014468Y019226D01*
X014456Y019177D01*
X014440Y019129D01*
X014421Y019083D01*
X014398Y019039D01*
X014371Y018996D01*
X014341Y018956D01*
X014309Y018918D01*
X014273Y018883D01*
X014234Y018851D01*
X014193Y018822D01*
X014150Y018796D01*
X014105Y018774D01*
X014059Y018756D01*
X014011Y018741D01*
X013962Y018730D01*
X013913Y018723D01*
X013863Y018720D01*
X013812Y018721D01*
X013763Y018726D01*
X013713Y018735D01*
X013665Y018748D01*
X013618Y018764D01*
X013572Y018785D01*
X013528Y018809D01*
X013486Y018836D01*
X013446Y018866D01*
X013409Y018900D01*
X013375Y018937D01*
X013343Y018976D01*
X013315Y019017D01*
X013290Y019061D01*
X013269Y019106D01*
X013252Y019153D01*
X013238Y019201D01*
X013228Y019250D01*
X013222Y019300D01*
X013220Y019350D01*
X000720Y019350D02*
X000722Y019400D01*
X000728Y019450D01*
X000738Y019499D01*
X000752Y019547D01*
X000769Y019594D01*
X000790Y019639D01*
X000815Y019683D01*
X000843Y019724D01*
X000875Y019763D01*
X000909Y019800D01*
X000946Y019834D01*
X000986Y019864D01*
X001028Y019891D01*
X001072Y019915D01*
X001118Y019936D01*
X001165Y019952D01*
X001213Y019965D01*
X001263Y019974D01*
X001312Y019979D01*
X001363Y019980D01*
X001413Y019977D01*
X001462Y019970D01*
X001511Y019959D01*
X001559Y019944D01*
X001605Y019926D01*
X001650Y019904D01*
X001693Y019878D01*
X001734Y019849D01*
X001773Y019817D01*
X001809Y019782D01*
X001841Y019744D01*
X001871Y019704D01*
X001898Y019661D01*
X001921Y019617D01*
X001940Y019571D01*
X001956Y019523D01*
X001968Y019474D01*
X001976Y019425D01*
X001980Y019375D01*
X001980Y019325D01*
X001976Y019275D01*
X001968Y019226D01*
X001956Y019177D01*
X001940Y019129D01*
X001921Y019083D01*
X001898Y019039D01*
X001871Y018996D01*
X001841Y018956D01*
X001809Y018918D01*
X001773Y018883D01*
X001734Y018851D01*
X001693Y018822D01*
X001650Y018796D01*
X001605Y018774D01*
X001559Y018756D01*
X001511Y018741D01*
X001462Y018730D01*
X001413Y018723D01*
X001363Y018720D01*
X001312Y018721D01*
X001263Y018726D01*
X001213Y018735D01*
X001165Y018748D01*
X001118Y018764D01*
X001072Y018785D01*
X001028Y018809D01*
X000986Y018836D01*
X000946Y018866D01*
X000909Y018900D01*
X000875Y018937D01*
X000843Y018976D01*
X000815Y019017D01*
X000790Y019061D01*
X000769Y019106D01*
X000752Y019153D01*
X000738Y019201D01*
X000728Y019250D01*
X000722Y019300D01*
X000720Y019350D01*
M02*
