%
M48
M72
T01C0.0276
T02C0.0315
T03C0.0472
T04C0.1260
%
T01
X4850Y3350
X5350Y3850
X5850Y3350
X6600Y5350
X6100Y5850
X6600Y6350
X7350Y7350
X6850Y7850
X7350Y8350
X8350Y7850
X8850Y7350
X8850Y8350
X10350Y10350
X10850Y9850
X10850Y10850
X10600Y12850
X10100Y13350
X10600Y13850
X9350Y12350
X8850Y12850
X8350Y12350
X7100Y12850
X6600Y13350
X7100Y13850
X6600Y14850
X6100Y15350
X7100Y15350
X5850Y17350
X5350Y16850
X4850Y17350
X9350Y17100
X9850Y17600
X9350Y18100
X9850Y16100
X10350Y15600
X10850Y16100
X11850Y13850
X12350Y13350
X11850Y12850
X12100Y8850
X12600Y8350
X12100Y7850
X11100Y7850
X10600Y8350
X11100Y8850
X10600Y5600
X11100Y5100
X11600Y5600
X10350Y3850
X9850Y3350
X9850Y4350
T02
X9600Y5350
X9600Y6100
X9850Y6850
X9600Y9350
X8850Y9350
X8100Y9350
X7100Y9350
X7100Y11350
X8100Y11350
X8850Y11350
X9600Y11350
X8100Y13600
X9600Y14850
X8350Y16350
X8100Y15600
X7600Y16350
X6850Y16350
X6850Y18350
X7600Y18350
X8350Y18350
X5850Y18350
X3850Y18350
X2600Y18100
X2600Y17100
X2600Y15850
X2600Y14850
X2600Y13600
X2600Y12600
X2600Y11600
X2600Y10600
X2600Y9600
X2600Y8600
X2600Y7600
X2600Y6600
X2600Y5600
X2600Y4600
X2600Y3600
X2600Y2600
X3850Y2350
X5850Y2350
X6850Y2350
X6850Y3350
X6350Y4350
X7600Y5350
X7600Y6100
X8350Y4350
X8850Y3350
X8850Y2350
X11850Y6850
X11850Y9850
X12600Y9850
X13850Y9850
X13850Y10850
X12600Y11850
X11850Y11850
X11600Y14850
X11600Y17600
X11600Y19600
T03
X13850Y15850
X7850Y19600
X6100Y19600
X1350Y17600
X1350Y15600
X1350Y13100
X1350Y11100
X1350Y9100
X1350Y7100
X1350Y5100
X1350Y3100
X4100Y4850
X13850Y4850
T04
X1350Y1350
X13850Y1350
X13850Y19350
X1350Y19350
M30
