G75*
G70*
%OFA0B0*%
%FSLAX24Y24*%
%IPPOS*%
%LPD*%
%AMOC8*
5,1,8,0,0,1.08239X$1,22.5*
%
%ADD10C,0.0515*%
%ADD11C,0.0709*%
%ADD12C,0.0476*%
%ADD13C,0.0160*%
D10*
X002600Y002600D03*
X002600Y003600D03*
X002600Y004600D03*
X002600Y005600D03*
X002600Y006600D03*
X002600Y007600D03*
X002600Y008600D03*
X002600Y009600D03*
X002600Y010600D03*
X002600Y011600D03*
X002600Y012600D03*
X002600Y013600D03*
X002600Y014850D03*
X002600Y015850D03*
X002600Y017100D03*
X002600Y018100D03*
X003850Y018350D03*
X005850Y018350D03*
X006850Y018350D03*
X007600Y018350D03*
X008350Y018350D03*
X008350Y016350D03*
X008100Y015600D03*
X007600Y016350D03*
X006850Y016350D03*
X008100Y013600D03*
X009600Y014850D03*
X011600Y014850D03*
X011600Y017600D03*
X011600Y019600D03*
X011850Y011850D03*
X012600Y011850D03*
X013850Y010850D03*
X013850Y009850D03*
X012600Y009850D03*
X011850Y009850D03*
X011850Y006850D03*
X009850Y006850D03*
X009600Y006100D03*
X009600Y005350D03*
X008350Y004350D03*
X007600Y005350D03*
X007600Y006100D03*
X006350Y004350D03*
X006850Y003350D03*
X006850Y002350D03*
X005850Y002350D03*
X003850Y002350D03*
X008850Y002350D03*
X008850Y003350D03*
X008850Y009350D03*
X008100Y009350D03*
X007100Y009350D03*
X007100Y011350D03*
X008100Y011350D03*
X008850Y011350D03*
X009600Y011350D03*
X009600Y009350D03*
D11*
X013850Y004850D03*
X013850Y015850D03*
X007850Y019600D03*
X006100Y019600D03*
X001350Y017600D03*
X001350Y015600D03*
X001350Y013100D03*
X001350Y011100D03*
X001350Y009100D03*
X001350Y007100D03*
X001350Y005100D03*
X001350Y003100D03*
X004100Y004850D03*
D12*
X004850Y003350D03*
X005350Y003850D03*
X005850Y003350D03*
X006600Y005350D03*
X006100Y005850D03*
X006600Y006350D03*
X007350Y007350D03*
X006850Y007850D03*
X007350Y008350D03*
X008350Y007850D03*
X008850Y007350D03*
X008850Y008350D03*
X010350Y010350D03*
X010850Y009850D03*
X010850Y010850D03*
X010600Y012850D03*
X010100Y013350D03*
X010600Y013850D03*
X009350Y012350D03*
X008850Y012850D03*
X008350Y012350D03*
X007100Y012850D03*
X006600Y013350D03*
X007100Y013850D03*
X006600Y014850D03*
X006100Y015350D03*
X007100Y015350D03*
X005850Y017350D03*
X005350Y016850D03*
X004850Y017350D03*
X009350Y017100D03*
X009850Y017600D03*
X009350Y018100D03*
X009850Y016100D03*
X010350Y015600D03*
X010850Y016100D03*
X011850Y013850D03*
X012350Y013350D03*
X011850Y012850D03*
X012100Y008850D03*
X012600Y008350D03*
X012100Y007850D03*
X011100Y007850D03*
X010600Y008350D03*
X011100Y008850D03*
X010600Y005600D03*
X011100Y005100D03*
X011600Y005600D03*
X010350Y003850D03*
X009850Y003350D03*
X009850Y004350D03*
D13*
X000600Y002170D02*
X000600Y018530D01*
X000668Y018462D01*
X000922Y018316D01*
X001204Y018240D01*
X001496Y018240D01*
X001778Y018316D01*
X002032Y018462D01*
X002238Y018668D01*
X002384Y018922D01*
X002460Y019204D01*
X002460Y019496D01*
X002384Y019778D01*
X002238Y020032D01*
X002170Y020100D01*
X005963Y020100D01*
X005809Y020036D01*
X005664Y019891D01*
X005586Y019702D01*
X005586Y019498D01*
X005664Y019309D01*
X005809Y019164D01*
X005998Y019086D01*
X006202Y019086D01*
X006391Y019164D01*
X006536Y019309D01*
X006614Y019498D01*
X006614Y019702D01*
X006536Y019891D01*
X006391Y020036D01*
X006237Y020100D01*
X007660Y020100D01*
X007645Y020095D01*
X007570Y020057D01*
X007502Y020008D01*
X007442Y019948D01*
X007393Y019880D01*
X007355Y019805D01*
X007329Y019725D01*
X007316Y019642D01*
X007316Y019638D01*
X007812Y019638D01*
X007812Y019562D01*
X007316Y019562D01*
X007316Y019558D01*
X007329Y019475D01*
X007355Y019395D01*
X007393Y019320D01*
X007442Y019252D01*
X007502Y019192D01*
X007570Y019143D01*
X007645Y019105D01*
X007725Y019079D01*
X007808Y019066D01*
X007812Y019066D01*
X007812Y019562D01*
X007888Y019562D01*
X007888Y019638D01*
X008384Y019638D01*
X008384Y019642D01*
X008371Y019725D01*
X008345Y019805D01*
X008307Y019880D01*
X008258Y019948D01*
X008198Y020008D01*
X008130Y020057D01*
X008055Y020095D01*
X008040Y020100D01*
X013030Y020100D01*
X012962Y020032D01*
X012816Y019778D01*
X012740Y019496D01*
X012740Y019204D01*
X012816Y018922D01*
X012962Y018668D01*
X013168Y018462D01*
X013422Y018316D01*
X013704Y018240D01*
X013996Y018240D01*
X014278Y018316D01*
X014532Y018462D01*
X014600Y018530D01*
X014600Y002170D01*
X014532Y002238D01*
X014278Y002384D01*
X013996Y002460D01*
X013704Y002460D01*
X013422Y002384D01*
X013168Y002238D01*
X012962Y002032D01*
X012816Y001778D01*
X012740Y001496D01*
X012740Y001204D01*
X012816Y000922D01*
X012962Y000668D01*
X013030Y000600D01*
X002170Y000600D01*
X002238Y000668D01*
X002384Y000922D01*
X002460Y001204D01*
X002460Y001496D01*
X002384Y001778D01*
X002238Y002032D01*
X002032Y002238D01*
X001778Y002384D01*
X001496Y002460D01*
X001204Y002460D01*
X000922Y002384D01*
X000668Y002238D01*
X000600Y002170D01*
X000600Y002319D02*
X000809Y002319D01*
X001059Y002664D02*
X001248Y002586D01*
X001452Y002586D01*
X001641Y002664D01*
X001786Y002809D01*
X001864Y002998D01*
X001864Y003202D01*
X001786Y003391D01*
X001641Y003536D01*
X001452Y003614D01*
X001248Y003614D01*
X001059Y003536D01*
X000914Y003391D01*
X000836Y003202D01*
X000836Y002998D01*
X000914Y002809D01*
X001059Y002664D01*
X001126Y002636D02*
X000600Y002636D01*
X000600Y002478D02*
X002199Y002478D01*
X002183Y002517D02*
X002246Y002364D01*
X002364Y002246D01*
X002517Y002183D01*
X002683Y002183D01*
X002836Y002246D01*
X002954Y002364D01*
X003017Y002517D01*
X003017Y002683D01*
X002954Y002836D01*
X002836Y002954D01*
X002683Y003017D01*
X002517Y003017D01*
X002364Y002954D01*
X002246Y002836D01*
X002183Y002683D01*
X002183Y002517D01*
X002183Y002636D02*
X001574Y002636D01*
X001772Y002795D02*
X002229Y002795D01*
X002363Y002953D02*
X001846Y002953D01*
X001864Y003112D02*
X004507Y003112D01*
X004493Y003131D02*
X004531Y003078D01*
X004578Y003031D01*
X004631Y002993D01*
X004690Y002963D01*
X004752Y002942D01*
X004817Y002932D01*
X004850Y002932D01*
X004883Y002932D01*
X004948Y002942D01*
X005010Y002963D01*
X005069Y002993D01*
X005122Y003031D01*
X005169Y003078D01*
X005207Y003131D01*
X005237Y003190D01*
X005258Y003252D01*
X005268Y003317D01*
X005268Y003350D01*
X005268Y003383D01*
X005258Y003448D01*
X005254Y003459D01*
X005271Y003452D01*
X005429Y003452D01*
X005469Y003469D01*
X005452Y003429D01*
X005452Y003271D01*
X005513Y003125D01*
X005625Y003013D01*
X005771Y002952D01*
X005929Y002952D01*
X006075Y003013D01*
X006187Y003125D01*
X006248Y003271D01*
X006248Y003429D01*
X006187Y003575D01*
X006075Y003687D01*
X005929Y003748D01*
X005771Y003748D01*
X005731Y003731D01*
X005748Y003771D01*
X005748Y003929D01*
X005687Y004075D01*
X005575Y004187D01*
X005429Y004248D01*
X005271Y004248D01*
X005125Y004187D01*
X005013Y004075D01*
X004952Y003929D01*
X004952Y003771D01*
X004959Y003754D01*
X004948Y003758D01*
X004883Y003768D01*
X004850Y003768D01*
X004817Y003768D01*
X004752Y003758D01*
X004690Y003737D01*
X004631Y003707D01*
X004578Y003669D01*
X004531Y003622D01*
X004493Y003569D01*
X004463Y003510D01*
X004442Y003448D01*
X004432Y003383D01*
X004432Y003350D01*
X004432Y003317D01*
X004442Y003252D01*
X004463Y003190D01*
X004493Y003131D01*
X004440Y003270D02*
X002860Y003270D01*
X002836Y003246D02*
X002954Y003364D01*
X003017Y003517D01*
X003017Y003683D01*
X002954Y003836D01*
X002836Y003954D01*
X002683Y004017D01*
X002517Y004017D01*
X002364Y003954D01*
X002246Y003836D01*
X002183Y003683D01*
X002183Y003517D01*
X002246Y003364D01*
X002364Y003246D01*
X002517Y003183D01*
X002683Y003183D01*
X002836Y003246D01*
X002981Y003429D02*
X004439Y003429D01*
X004432Y003350D02*
X004850Y003350D01*
X005268Y003350D01*
X004850Y003350D01*
X004850Y003350D01*
X004850Y003350D01*
X004850Y003768D01*
X004850Y003350D01*
X004850Y002932D01*
X004850Y003350D01*
X004850Y003350D01*
X004850Y003350D01*
X004432Y003350D01*
X004506Y003587D02*
X003017Y003587D01*
X002992Y003746D02*
X004715Y003746D01*
X004850Y003746D02*
X004850Y003746D01*
X004850Y003587D02*
X004850Y003587D01*
X004850Y003429D02*
X004850Y003429D01*
X004850Y003270D02*
X004850Y003270D01*
X004850Y003112D02*
X004850Y003112D01*
X004850Y002953D02*
X004850Y002953D01*
X004980Y002953D02*
X005769Y002953D01*
X005767Y002767D02*
X005614Y002704D01*
X005496Y002586D01*
X005433Y002433D01*
X005433Y002267D01*
X005496Y002114D01*
X005614Y001996D01*
X005767Y001933D01*
X005933Y001933D01*
X006086Y001996D01*
X006204Y002114D01*
X006267Y002267D01*
X006267Y002433D01*
X006204Y002586D01*
X006086Y002704D01*
X005933Y002767D01*
X005767Y002767D01*
X005546Y002636D02*
X004154Y002636D01*
X004204Y002586D02*
X004086Y002704D01*
X003933Y002767D01*
X003767Y002767D01*
X003614Y002704D01*
X003496Y002586D01*
X003433Y002433D01*
X003433Y002267D01*
X003496Y002114D01*
X003614Y001996D01*
X003767Y001933D01*
X003933Y001933D01*
X004086Y001996D01*
X004204Y002114D01*
X004267Y002267D01*
X004267Y002433D01*
X004204Y002586D01*
X004249Y002478D02*
X005451Y002478D01*
X005433Y002319D02*
X004267Y002319D01*
X004223Y002161D02*
X005477Y002161D01*
X005608Y002002D02*
X004092Y002002D01*
X003608Y002002D02*
X002255Y002002D01*
X002347Y001844D02*
X012853Y001844D01*
X012791Y001685D02*
X002409Y001685D01*
X002452Y001527D02*
X012748Y001527D01*
X012740Y001368D02*
X002460Y001368D01*
X002460Y001210D02*
X012740Y001210D01*
X012781Y001051D02*
X002419Y001051D01*
X002367Y000893D02*
X012833Y000893D01*
X012924Y000734D02*
X002276Y000734D01*
X002109Y002161D02*
X003477Y002161D01*
X003433Y002319D02*
X002909Y002319D01*
X003001Y002478D02*
X003451Y002478D01*
X003546Y002636D02*
X003017Y002636D01*
X002971Y002795D02*
X014600Y002795D01*
X014600Y002953D02*
X009931Y002953D01*
X009929Y002952D02*
X010075Y003013D01*
X010187Y003125D01*
X010248Y003271D01*
X010248Y003429D01*
X010231Y003469D01*
X010271Y003452D01*
X010429Y003452D01*
X010575Y003513D01*
X010687Y003625D01*
X010748Y003771D01*
X010748Y003929D01*
X010687Y004075D01*
X010575Y004187D01*
X010429Y004248D01*
X010271Y004248D01*
X010254Y004241D01*
X010258Y004252D01*
X010268Y004317D01*
X010268Y004350D01*
X010268Y004383D01*
X010258Y004448D01*
X010237Y004510D01*
X010207Y004569D01*
X010169Y004622D01*
X010122Y004669D01*
X010069Y004707D01*
X010010Y004737D01*
X009948Y004758D01*
X009883Y004768D01*
X009850Y004768D01*
X009817Y004768D01*
X009752Y004758D01*
X009690Y004737D01*
X009631Y004707D01*
X009578Y004669D01*
X009531Y004622D01*
X009493Y004569D01*
X009463Y004510D01*
X009442Y004448D01*
X009432Y004383D01*
X009432Y004350D01*
X009432Y004317D01*
X009442Y004252D01*
X009463Y004190D01*
X009493Y004131D01*
X009531Y004078D01*
X009578Y004031D01*
X009631Y003993D01*
X009690Y003963D01*
X009752Y003942D01*
X009817Y003932D01*
X009850Y003932D01*
X009883Y003932D01*
X009948Y003942D01*
X009959Y003946D01*
X009952Y003929D01*
X009952Y003771D01*
X009969Y003731D01*
X009929Y003748D01*
X009771Y003748D01*
X009625Y003687D01*
X009513Y003575D01*
X009452Y003429D01*
X009452Y003271D01*
X009513Y003125D01*
X009625Y003013D01*
X009771Y002952D01*
X009929Y002952D01*
X009769Y002953D02*
X008982Y002953D01*
X008933Y002933D02*
X009086Y002996D01*
X009204Y003114D01*
X009267Y003267D01*
X009267Y003433D01*
X009204Y003586D01*
X009086Y003704D01*
X008933Y003767D01*
X008767Y003767D01*
X008614Y003704D01*
X008496Y003586D01*
X008433Y003433D01*
X008433Y003267D01*
X008496Y003114D01*
X008614Y002996D01*
X008767Y002933D01*
X008933Y002933D01*
X008933Y002767D02*
X008767Y002767D01*
X008614Y002704D01*
X008496Y002586D01*
X008433Y002433D01*
X008433Y002267D01*
X008496Y002114D01*
X008614Y001996D01*
X008767Y001933D01*
X008933Y001933D01*
X009086Y001996D01*
X009204Y002114D01*
X009267Y002267D01*
X009267Y002433D01*
X009204Y002586D01*
X009086Y002704D01*
X008933Y002767D01*
X008718Y002953D02*
X006982Y002953D01*
X006933Y002933D02*
X007086Y002996D01*
X007204Y003114D01*
X007267Y003267D01*
X007267Y003433D01*
X007204Y003586D01*
X007086Y003704D01*
X006933Y003767D01*
X006767Y003767D01*
X006614Y003704D01*
X006496Y003586D01*
X006433Y003433D01*
X006433Y003267D01*
X006496Y003114D01*
X006614Y002996D01*
X006767Y002933D01*
X006933Y002933D01*
X006933Y002767D02*
X006767Y002767D01*
X006614Y002704D01*
X006496Y002586D01*
X006433Y002433D01*
X006433Y002267D01*
X006496Y002114D01*
X006614Y001996D01*
X006767Y001933D01*
X006933Y001933D01*
X007086Y001996D01*
X007204Y002114D01*
X007267Y002267D01*
X007267Y002433D01*
X007204Y002586D01*
X007086Y002704D01*
X006933Y002767D01*
X006718Y002953D02*
X005931Y002953D01*
X006174Y003112D02*
X006498Y003112D01*
X006433Y003270D02*
X006247Y003270D01*
X006248Y003429D02*
X006433Y003429D01*
X006497Y003587D02*
X006176Y003587D01*
X005935Y003746D02*
X006714Y003746D01*
X006986Y003746D02*
X008714Y003746D01*
X008586Y003996D02*
X008704Y004114D01*
X008767Y004267D01*
X008767Y004433D01*
X008704Y004586D01*
X008586Y004704D01*
X008433Y004767D01*
X008267Y004767D01*
X008114Y004704D01*
X007996Y004586D01*
X007933Y004433D01*
X007933Y004267D01*
X007996Y004114D01*
X008114Y003996D01*
X008267Y003933D01*
X008433Y003933D01*
X008586Y003996D01*
X008653Y004063D02*
X009547Y004063D01*
X009453Y004221D02*
X008748Y004221D01*
X008767Y004380D02*
X009432Y004380D01*
X009432Y004350D02*
X009850Y004350D01*
X009850Y004350D01*
X009850Y004768D01*
X009850Y004350D01*
X010268Y004350D01*
X009850Y004350D01*
X009850Y004350D01*
X009850Y003932D01*
X009850Y004350D01*
X009850Y004350D01*
X009850Y004350D01*
X009432Y004350D01*
X009477Y004538D02*
X008724Y004538D01*
X008594Y004697D02*
X009616Y004697D01*
X009850Y004697D02*
X009850Y004697D01*
X009850Y004538D02*
X009850Y004538D01*
X009850Y004380D02*
X009850Y004380D01*
X009850Y004221D02*
X009850Y004221D01*
X009850Y004063D02*
X009850Y004063D01*
X009952Y003904D02*
X005748Y003904D01*
X005737Y003746D02*
X005765Y003746D01*
X005693Y004063D02*
X006047Y004063D01*
X005996Y004114D02*
X006114Y003996D01*
X006267Y003933D01*
X006433Y003933D01*
X006586Y003996D01*
X006704Y004114D01*
X006767Y004267D01*
X006767Y004433D01*
X006704Y004586D01*
X006586Y004704D01*
X006433Y004767D01*
X006267Y004767D01*
X006114Y004704D01*
X005996Y004586D01*
X005933Y004433D01*
X005933Y004267D01*
X005996Y004114D01*
X005952Y004221D02*
X005494Y004221D01*
X005206Y004221D02*
X002776Y004221D01*
X002836Y004246D02*
X002954Y004364D01*
X003017Y004517D01*
X003017Y004683D01*
X002954Y004836D01*
X002836Y004954D01*
X002683Y005017D01*
X002517Y005017D01*
X002364Y004954D01*
X002246Y004836D01*
X002183Y004683D01*
X002183Y004517D01*
X002246Y004364D01*
X002364Y004246D01*
X002517Y004183D01*
X002683Y004183D01*
X002836Y004246D01*
X002961Y004380D02*
X003846Y004380D01*
X003820Y004393D02*
X003895Y004355D01*
X003975Y004329D01*
X004058Y004316D01*
X004062Y004316D01*
X004062Y004812D01*
X004138Y004812D01*
X004138Y004888D01*
X004634Y004888D01*
X004634Y004892D01*
X004621Y004975D01*
X004595Y005055D01*
X004557Y005130D01*
X004508Y005198D01*
X004448Y005258D01*
X004380Y005307D01*
X004305Y005345D01*
X004225Y005371D01*
X004142Y005384D01*
X004138Y005384D01*
X004138Y004888D01*
X004062Y004888D01*
X004062Y004812D01*
X003566Y004812D01*
X003566Y004808D01*
X003579Y004725D01*
X003605Y004645D01*
X003643Y004570D01*
X003692Y004502D01*
X003752Y004442D01*
X003820Y004393D01*
X003666Y004538D02*
X003017Y004538D01*
X003012Y004697D02*
X003588Y004697D01*
X003566Y004888D02*
X004062Y004888D01*
X004062Y005384D01*
X004058Y005384D01*
X003975Y005371D01*
X003895Y005345D01*
X003820Y005307D01*
X003752Y005258D01*
X003692Y005198D01*
X003643Y005130D01*
X003605Y005055D01*
X003579Y004975D01*
X003566Y004892D01*
X003566Y004888D01*
X003591Y005014D02*
X002693Y005014D01*
X002683Y005183D02*
X002517Y005183D01*
X002364Y005246D01*
X002246Y005364D01*
X002183Y005517D01*
X002183Y005683D01*
X002246Y005836D01*
X002364Y005954D01*
X002517Y006017D01*
X002683Y006017D01*
X002836Y005954D01*
X002954Y005836D01*
X003017Y005683D01*
X003017Y005517D01*
X002954Y005364D01*
X002836Y005246D01*
X002683Y005183D01*
X002507Y005014D02*
X001864Y005014D01*
X001864Y004998D02*
X001786Y004809D01*
X001641Y004664D01*
X001452Y004586D01*
X001248Y004586D01*
X001059Y004664D01*
X000914Y004809D01*
X000836Y004998D01*
X000836Y005202D01*
X000914Y005391D01*
X001059Y005536D01*
X001248Y005614D01*
X001452Y005614D01*
X001641Y005536D01*
X001786Y005391D01*
X001864Y005202D01*
X001864Y004998D01*
X001805Y004855D02*
X002265Y004855D01*
X002188Y004697D02*
X001674Y004697D01*
X001864Y005172D02*
X003673Y005172D01*
X003866Y005331D02*
X002921Y005331D01*
X003006Y005489D02*
X005932Y005489D01*
X005875Y005513D02*
X006021Y005452D01*
X006179Y005452D01*
X006196Y005459D01*
X006192Y005448D01*
X006182Y005383D01*
X006182Y005350D01*
X006182Y005317D01*
X006192Y005252D01*
X006213Y005190D01*
X006243Y005131D01*
X006281Y005078D01*
X006328Y005031D01*
X006381Y004993D01*
X006440Y004963D01*
X006502Y004942D01*
X006567Y004932D01*
X006600Y004932D01*
X006633Y004932D01*
X006698Y004942D01*
X006760Y004963D01*
X006819Y004993D01*
X006872Y005031D01*
X006919Y005078D01*
X006957Y005131D01*
X006987Y005190D01*
X007008Y005252D01*
X007018Y005317D01*
X007018Y005350D01*
X007018Y005383D01*
X007008Y005448D01*
X006987Y005510D01*
X006957Y005569D01*
X006919Y005622D01*
X006872Y005669D01*
X006819Y005707D01*
X006760Y005737D01*
X006698Y005758D01*
X006633Y005768D01*
X006600Y005768D01*
X006567Y005768D01*
X006502Y005758D01*
X006491Y005754D01*
X006498Y005771D01*
X006498Y005929D01*
X006481Y005969D01*
X006521Y005952D01*
X006679Y005952D01*
X006825Y006013D01*
X006937Y006125D01*
X006998Y006271D01*
X006998Y006429D01*
X006937Y006575D01*
X006825Y006687D01*
X006679Y006748D01*
X006521Y006748D01*
X006375Y006687D01*
X006263Y006575D01*
X006202Y006429D01*
X006202Y006271D01*
X006219Y006231D01*
X006179Y006248D01*
X006021Y006248D01*
X005875Y006187D01*
X005763Y006075D01*
X005702Y005929D01*
X005702Y005771D01*
X005763Y005625D01*
X005875Y005513D01*
X005753Y005648D02*
X003017Y005648D01*
X002967Y005806D02*
X005702Y005806D01*
X005717Y005965D02*
X002811Y005965D01*
X002683Y006183D02*
X002836Y006246D01*
X002954Y006364D01*
X003017Y006517D01*
X003017Y006683D01*
X002954Y006836D01*
X002836Y006954D01*
X002683Y007017D01*
X002517Y007017D01*
X002364Y006954D01*
X002246Y006836D01*
X002183Y006683D01*
X002183Y006517D01*
X002246Y006364D01*
X002364Y006246D01*
X002517Y006183D01*
X002683Y006183D01*
X002872Y006282D02*
X006202Y006282D01*
X006207Y006440D02*
X002986Y006440D01*
X003017Y006599D02*
X006286Y006599D01*
X006483Y005965D02*
X006491Y005965D01*
X006498Y005806D02*
X007304Y005806D01*
X007246Y005864D02*
X007183Y006017D01*
X007183Y006183D01*
X007246Y006336D01*
X007364Y006454D01*
X007517Y006517D01*
X007683Y006517D01*
X007836Y006454D01*
X007954Y006336D01*
X008017Y006183D01*
X008017Y006017D01*
X007954Y005864D01*
X007836Y005746D01*
X007786Y005725D01*
X007836Y005704D01*
X007954Y005586D01*
X008017Y005433D01*
X008017Y005267D01*
X007954Y005114D01*
X007836Y004996D01*
X007683Y004933D01*
X007517Y004933D01*
X007364Y004996D01*
X007246Y005114D01*
X007183Y005267D01*
X007183Y005433D01*
X007246Y005586D01*
X007364Y005704D01*
X007414Y005725D01*
X007364Y005746D01*
X007246Y005864D01*
X007204Y005965D02*
X006709Y005965D01*
X006600Y005768D02*
X006600Y005350D01*
X006600Y005350D01*
X007018Y005350D01*
X006600Y005350D01*
X006600Y005350D01*
X006600Y005768D01*
X006600Y005648D02*
X006600Y005648D01*
X006600Y005489D02*
X006600Y005489D01*
X006600Y005350D02*
X006600Y005350D01*
X006600Y004932D01*
X006600Y005350D01*
X006600Y005350D01*
X006182Y005350D01*
X006600Y005350D01*
X006600Y005331D02*
X006600Y005331D01*
X006600Y005172D02*
X006600Y005172D01*
X006600Y005014D02*
X006600Y005014D01*
X006848Y005014D02*
X007346Y005014D01*
X007222Y005172D02*
X006978Y005172D01*
X007018Y005331D02*
X007183Y005331D01*
X007206Y005489D02*
X006994Y005489D01*
X006893Y005648D02*
X007307Y005648D01*
X007183Y006123D02*
X006936Y006123D01*
X006998Y006282D02*
X007223Y006282D01*
X007350Y006440D02*
X006993Y006440D01*
X006914Y006599D02*
X009511Y006599D01*
X009496Y006614D02*
X009592Y006517D01*
X009517Y006517D01*
X009364Y006454D01*
X009246Y006336D01*
X009183Y006183D01*
X009183Y006017D01*
X009246Y005864D01*
X009364Y005746D01*
X009414Y005725D01*
X009364Y005704D01*
X009246Y005586D01*
X009183Y005433D01*
X009183Y005267D01*
X009246Y005114D01*
X009364Y004996D01*
X009517Y004933D01*
X009683Y004933D01*
X009836Y004996D01*
X009954Y005114D01*
X010017Y005267D01*
X010017Y005433D01*
X009954Y005586D01*
X009836Y005704D01*
X009786Y005725D01*
X009836Y005746D01*
X009954Y005864D01*
X010017Y006017D01*
X010017Y006183D01*
X009954Y006336D01*
X009858Y006433D01*
X009933Y006433D01*
X010086Y006496D01*
X010204Y006614D01*
X010267Y006767D01*
X010267Y006933D01*
X010204Y007086D01*
X010086Y007204D01*
X009933Y007267D01*
X009767Y007267D01*
X009614Y007204D01*
X009496Y007086D01*
X009433Y006933D01*
X009433Y006767D01*
X009496Y006614D01*
X009437Y006757D02*
X002987Y006757D01*
X002875Y006916D02*
X009433Y006916D01*
X009491Y007074D02*
X009165Y007074D01*
X009169Y007078D02*
X009207Y007131D01*
X009237Y007190D01*
X009258Y007252D01*
X009268Y007317D01*
X009268Y007350D01*
X009268Y007383D01*
X009258Y007448D01*
X009237Y007510D01*
X009207Y007569D01*
X009169Y007622D01*
X009122Y007669D01*
X009069Y007707D01*
X009010Y007737D01*
X008948Y007758D01*
X008883Y007768D01*
X008850Y007768D01*
X008817Y007768D01*
X008752Y007758D01*
X008741Y007754D01*
X008748Y007771D01*
X008748Y007929D01*
X008731Y007969D01*
X008771Y007952D01*
X008929Y007952D01*
X009075Y008013D01*
X009187Y008125D01*
X009248Y008271D01*
X009248Y008429D01*
X009187Y008575D01*
X009075Y008687D01*
X008929Y008748D01*
X008771Y008748D01*
X008625Y008687D01*
X008513Y008575D01*
X008452Y008429D01*
X008452Y008271D01*
X008469Y008231D01*
X008429Y008248D01*
X008271Y008248D01*
X008125Y008187D01*
X008013Y008075D01*
X007952Y007929D01*
X007952Y007771D01*
X008013Y007625D01*
X008125Y007513D01*
X008271Y007452D01*
X008429Y007452D01*
X008446Y007459D01*
X008442Y007448D01*
X008432Y007383D01*
X008432Y007350D01*
X008432Y007317D01*
X008442Y007252D01*
X008463Y007190D01*
X008493Y007131D01*
X008531Y007078D01*
X008578Y007031D01*
X008631Y006993D01*
X008690Y006963D01*
X008752Y006942D01*
X008817Y006932D01*
X008850Y006932D01*
X008883Y006932D01*
X008948Y006942D01*
X009010Y006963D01*
X009069Y006993D01*
X009122Y007031D01*
X009169Y007078D01*
X009251Y007233D02*
X009683Y007233D01*
X010017Y007233D02*
X011683Y007233D01*
X011614Y007204D02*
X011496Y007086D01*
X011433Y006933D01*
X011433Y006767D01*
X011496Y006614D01*
X011614Y006496D01*
X011767Y006433D01*
X011933Y006433D01*
X012086Y006496D01*
X012204Y006614D01*
X012267Y006767D01*
X012267Y006933D01*
X012204Y007086D01*
X012086Y007204D01*
X011933Y007267D01*
X011767Y007267D01*
X011614Y007204D01*
X011491Y007074D02*
X010209Y007074D01*
X010267Y006916D02*
X011433Y006916D01*
X011437Y006757D02*
X010263Y006757D01*
X010189Y006599D02*
X011511Y006599D01*
X011749Y006440D02*
X009951Y006440D01*
X009977Y006282D02*
X014600Y006282D01*
X014600Y006440D02*
X011951Y006440D01*
X012189Y006599D02*
X014600Y006599D01*
X014600Y006757D02*
X012263Y006757D01*
X012267Y006916D02*
X014600Y006916D01*
X014600Y007074D02*
X012209Y007074D01*
X012017Y007233D02*
X014600Y007233D01*
X014600Y007391D02*
X009267Y007391D01*
X009268Y007350D02*
X008850Y007350D01*
X008850Y007350D01*
X008850Y007768D01*
X008850Y007350D01*
X008850Y007350D01*
X009268Y007350D01*
X009217Y007550D02*
X010838Y007550D01*
X010875Y007513D02*
X011021Y007452D01*
X011179Y007452D01*
X011325Y007513D01*
X011437Y007625D01*
X011498Y007771D01*
X011498Y007929D01*
X011437Y008075D01*
X011325Y008187D01*
X011179Y008248D01*
X011021Y008248D01*
X010981Y008231D01*
X010998Y008271D01*
X010998Y008429D01*
X010981Y008469D01*
X011021Y008452D01*
X011179Y008452D01*
X011325Y008513D01*
X011437Y008625D01*
X011498Y008771D01*
X011498Y008929D01*
X011437Y009075D01*
X011325Y009187D01*
X011179Y009248D01*
X011021Y009248D01*
X010875Y009187D01*
X010763Y009075D01*
X010702Y008929D01*
X010702Y008771D01*
X010719Y008731D01*
X010679Y008748D01*
X010521Y008748D01*
X010375Y008687D01*
X010263Y008575D01*
X010202Y008429D01*
X010202Y008271D01*
X010263Y008125D01*
X010375Y008013D01*
X010521Y007952D01*
X010679Y007952D01*
X010719Y007969D01*
X010702Y007929D01*
X010702Y007771D01*
X010763Y007625D01*
X010875Y007513D01*
X010728Y007708D02*
X009068Y007708D01*
X008850Y007708D02*
X008850Y007708D01*
X008850Y007550D02*
X008850Y007550D01*
X008850Y007391D02*
X008850Y007391D01*
X008850Y007350D02*
X008850Y007350D01*
X008850Y006932D01*
X008850Y007350D01*
X008850Y007350D01*
X008432Y007350D01*
X008850Y007350D01*
X008850Y007233D02*
X008850Y007233D01*
X008850Y007074D02*
X008850Y007074D01*
X008535Y007074D02*
X007665Y007074D01*
X007669Y007078D02*
X007707Y007131D01*
X007737Y007190D01*
X007758Y007252D01*
X007768Y007317D01*
X007768Y007350D01*
X007768Y007383D01*
X007758Y007448D01*
X007737Y007510D01*
X007707Y007569D01*
X007669Y007622D01*
X007622Y007669D01*
X007569Y007707D01*
X007510Y007737D01*
X007448Y007758D01*
X007383Y007768D01*
X007350Y007768D01*
X007317Y007768D01*
X007252Y007758D01*
X007241Y007754D01*
X007248Y007771D01*
X007248Y007929D01*
X007231Y007969D01*
X007271Y007952D01*
X007429Y007952D01*
X007575Y008013D01*
X007687Y008125D01*
X007748Y008271D01*
X007748Y008429D01*
X007687Y008575D01*
X007575Y008687D01*
X007429Y008748D01*
X007271Y008748D01*
X007125Y008687D01*
X007013Y008575D01*
X006952Y008429D01*
X006952Y008271D01*
X006969Y008231D01*
X006929Y008248D01*
X006771Y008248D01*
X006625Y008187D01*
X006513Y008075D01*
X006452Y007929D01*
X006452Y007771D01*
X006513Y007625D01*
X006625Y007513D01*
X006771Y007452D01*
X006929Y007452D01*
X006946Y007459D01*
X006942Y007448D01*
X006932Y007383D01*
X006932Y007350D01*
X006932Y007317D01*
X006942Y007252D01*
X006963Y007190D01*
X006993Y007131D01*
X007031Y007078D01*
X007078Y007031D01*
X007131Y006993D01*
X007190Y006963D01*
X007252Y006942D01*
X007317Y006932D01*
X007350Y006932D01*
X007383Y006932D01*
X007448Y006942D01*
X007510Y006963D01*
X007569Y006993D01*
X007622Y007031D01*
X007669Y007078D01*
X007751Y007233D02*
X008449Y007233D01*
X008433Y007391D02*
X007767Y007391D01*
X007768Y007350D02*
X007350Y007350D01*
X007350Y007350D01*
X007350Y007768D01*
X007350Y007350D01*
X007350Y007350D01*
X007768Y007350D01*
X007717Y007550D02*
X008088Y007550D01*
X007978Y007708D02*
X007568Y007708D01*
X007350Y007708D02*
X007350Y007708D01*
X007350Y007550D02*
X007350Y007550D01*
X007350Y007391D02*
X007350Y007391D01*
X007350Y007350D02*
X007350Y007350D01*
X007350Y006932D01*
X007350Y007350D01*
X007350Y007350D01*
X006932Y007350D01*
X007350Y007350D01*
X007350Y007233D02*
X007350Y007233D01*
X007350Y007074D02*
X007350Y007074D01*
X007035Y007074D02*
X001864Y007074D01*
X001864Y006998D02*
X001864Y007202D01*
X001786Y007391D01*
X002235Y007391D01*
X002246Y007364D02*
X002364Y007246D01*
X002517Y007183D01*
X002683Y007183D01*
X002836Y007246D01*
X002954Y007364D01*
X003017Y007517D01*
X003017Y007683D01*
X002954Y007836D01*
X002836Y007954D01*
X002683Y008017D01*
X002517Y008017D01*
X002364Y007954D01*
X002246Y007836D01*
X002183Y007683D01*
X002183Y007517D01*
X002246Y007364D01*
X002183Y007550D02*
X001609Y007550D01*
X001641Y007536D02*
X001452Y007614D01*
X001248Y007614D01*
X001059Y007536D01*
X000914Y007391D01*
X000600Y007391D01*
X000600Y007233D02*
X000848Y007233D01*
X000836Y007202D02*
X000836Y006998D01*
X000914Y006809D01*
X001059Y006664D01*
X001248Y006586D01*
X001452Y006586D01*
X001641Y006664D01*
X001786Y006809D01*
X001864Y006998D01*
X001830Y006916D02*
X002325Y006916D01*
X002213Y006757D02*
X001734Y006757D01*
X001483Y006599D02*
X002183Y006599D01*
X002214Y006440D02*
X000600Y006440D01*
X000600Y006282D02*
X002328Y006282D01*
X002389Y005965D02*
X000600Y005965D01*
X000600Y006123D02*
X005810Y006123D01*
X006182Y005331D02*
X004334Y005331D01*
X004138Y005331D02*
X004062Y005331D01*
X004062Y005172D02*
X004138Y005172D01*
X004138Y005014D02*
X004062Y005014D01*
X004062Y004855D02*
X002935Y004855D01*
X002279Y005331D02*
X001811Y005331D01*
X001688Y005489D02*
X002194Y005489D01*
X002183Y005648D02*
X000600Y005648D01*
X000600Y005806D02*
X002233Y005806D01*
X001217Y006599D02*
X000600Y006599D01*
X000600Y006757D02*
X000966Y006757D01*
X000870Y006916D02*
X000600Y006916D01*
X000600Y007074D02*
X000836Y007074D01*
X000836Y007202D02*
X000914Y007391D01*
X001091Y007550D02*
X000600Y007550D01*
X000600Y007708D02*
X002193Y007708D01*
X002276Y007867D02*
X000600Y007867D01*
X000600Y008025D02*
X006492Y008025D01*
X006452Y007867D02*
X002924Y007867D01*
X003007Y007708D02*
X006478Y007708D01*
X006588Y007550D02*
X003017Y007550D01*
X002965Y007391D02*
X006933Y007391D01*
X006949Y007233D02*
X002804Y007233D01*
X002396Y007233D02*
X001852Y007233D01*
X001786Y007391D02*
X001641Y007536D01*
X002364Y008246D02*
X002246Y008364D01*
X002183Y008517D01*
X002183Y008683D01*
X002246Y008836D01*
X002364Y008954D01*
X002517Y009017D01*
X002683Y009017D01*
X002836Y008954D01*
X002954Y008836D01*
X003017Y008683D01*
X003017Y008517D01*
X002954Y008364D01*
X002836Y008246D01*
X002683Y008183D01*
X002517Y008183D01*
X002364Y008246D01*
X002268Y008342D02*
X000600Y008342D01*
X000600Y008184D02*
X002515Y008184D01*
X002685Y008184D02*
X006621Y008184D01*
X006952Y008342D02*
X002932Y008342D01*
X003011Y008501D02*
X006982Y008501D01*
X007096Y008659D02*
X003017Y008659D01*
X002962Y008818D02*
X010702Y008818D01*
X010722Y008976D02*
X009788Y008976D01*
X009836Y008996D02*
X009954Y009114D01*
X010017Y009267D01*
X010017Y009433D01*
X009954Y009586D01*
X009836Y009704D01*
X009683Y009767D01*
X009517Y009767D01*
X009364Y009704D01*
X009246Y009586D01*
X009225Y009536D01*
X009204Y009586D01*
X009086Y009704D01*
X008933Y009767D01*
X008767Y009767D01*
X008614Y009704D01*
X008496Y009586D01*
X008475Y009536D01*
X008454Y009586D01*
X008336Y009704D01*
X008183Y009767D01*
X008017Y009767D01*
X007864Y009704D01*
X007746Y009586D01*
X007683Y009433D01*
X007683Y009267D01*
X007746Y009114D01*
X007864Y008996D01*
X008017Y008933D01*
X008183Y008933D01*
X008336Y008996D01*
X008454Y009114D01*
X008475Y009164D01*
X008496Y009114D01*
X008614Y008996D01*
X008767Y008933D01*
X008933Y008933D01*
X009086Y008996D01*
X009204Y009114D01*
X009225Y009164D01*
X009246Y009114D01*
X009364Y008996D01*
X009517Y008933D01*
X009683Y008933D01*
X009836Y008996D01*
X009963Y009135D02*
X010822Y009135D01*
X010771Y009452D02*
X010929Y009452D01*
X011075Y009513D01*
X011187Y009625D01*
X011248Y009771D01*
X011248Y009929D01*
X011187Y010075D01*
X011075Y010187D01*
X010929Y010248D01*
X010771Y010248D01*
X010731Y010231D01*
X010748Y010271D01*
X010748Y010429D01*
X010731Y010469D01*
X010771Y010452D01*
X010929Y010452D01*
X011075Y010513D01*
X011187Y010625D01*
X011248Y010771D01*
X011248Y010929D01*
X011187Y011075D01*
X011075Y011187D01*
X010929Y011248D01*
X010771Y011248D01*
X010625Y011187D01*
X010513Y011075D01*
X010452Y010929D01*
X010452Y010771D01*
X010469Y010731D01*
X010429Y010748D01*
X010271Y010748D01*
X010125Y010687D01*
X010013Y010575D01*
X009952Y010429D01*
X009952Y010271D01*
X010013Y010125D01*
X010125Y010013D01*
X010271Y009952D01*
X010429Y009952D01*
X010469Y009969D01*
X010452Y009929D01*
X010452Y009771D01*
X010513Y009625D01*
X010625Y009513D01*
X010771Y009452D01*
X010527Y009610D02*
X009930Y009610D01*
X010010Y009452D02*
X011721Y009452D01*
X011767Y009433D02*
X011933Y009433D01*
X012086Y009496D01*
X012204Y009614D01*
X012225Y009664D01*
X012246Y009614D01*
X012364Y009496D01*
X012517Y009433D01*
X012683Y009433D01*
X012836Y009496D01*
X012954Y009614D01*
X013017Y009767D01*
X013017Y009933D01*
X012954Y010086D01*
X012836Y010204D01*
X012683Y010267D01*
X012517Y010267D01*
X012364Y010204D01*
X012246Y010086D01*
X012225Y010036D01*
X012204Y010086D01*
X012086Y010204D01*
X011933Y010267D01*
X011767Y010267D01*
X011614Y010204D01*
X011496Y010086D01*
X011433Y009933D01*
X011433Y009767D01*
X011496Y009614D01*
X011614Y009496D01*
X011767Y009433D01*
X011979Y009452D02*
X012471Y009452D01*
X012729Y009452D02*
X013721Y009452D01*
X013767Y009433D02*
X013933Y009433D01*
X014086Y009496D01*
X014204Y009614D01*
X014267Y009767D01*
X014267Y009933D01*
X014204Y010086D01*
X014086Y010204D01*
X013933Y010267D01*
X013767Y010267D01*
X013614Y010204D01*
X013496Y010086D01*
X013433Y009933D01*
X013433Y009767D01*
X013496Y009614D01*
X013614Y009496D01*
X013767Y009433D01*
X013979Y009452D02*
X014600Y009452D01*
X014600Y009610D02*
X014200Y009610D01*
X014267Y009769D02*
X014600Y009769D01*
X014600Y009927D02*
X014267Y009927D01*
X014204Y010086D02*
X014600Y010086D01*
X014600Y010244D02*
X013990Y010244D01*
X013933Y010433D02*
X014086Y010496D01*
X014204Y010614D01*
X014267Y010767D01*
X014267Y010933D01*
X014204Y011086D01*
X014086Y011204D01*
X013933Y011267D01*
X013767Y011267D01*
X013614Y011204D01*
X013496Y011086D01*
X013433Y010933D01*
X013433Y010767D01*
X013496Y010614D01*
X013614Y010496D01*
X013767Y010433D01*
X013933Y010433D01*
X013710Y010244D02*
X012740Y010244D01*
X012460Y010244D02*
X011990Y010244D01*
X011710Y010244D02*
X010938Y010244D01*
X010762Y010244D02*
X010737Y010244D01*
X010748Y010403D02*
X014600Y010403D01*
X014600Y010561D02*
X014151Y010561D01*
X014248Y010720D02*
X014600Y010720D01*
X014600Y010878D02*
X014267Y010878D01*
X014225Y011037D02*
X014600Y011037D01*
X014600Y011195D02*
X014095Y011195D01*
X013605Y011195D02*
X011057Y011195D01*
X011203Y011037D02*
X013475Y011037D01*
X013433Y010878D02*
X011248Y010878D01*
X011227Y010720D02*
X013452Y010720D01*
X013549Y010561D02*
X011124Y010561D01*
X011177Y010086D02*
X011496Y010086D01*
X011433Y009927D02*
X011248Y009927D01*
X011247Y009769D02*
X011433Y009769D01*
X011500Y009610D02*
X011173Y009610D01*
X011378Y009135D02*
X011822Y009135D01*
X011875Y009187D02*
X011763Y009075D01*
X011702Y008929D01*
X011702Y008771D01*
X011763Y008625D01*
X011875Y008513D01*
X012021Y008452D01*
X012179Y008452D01*
X012219Y008469D01*
X012202Y008429D01*
X012202Y008271D01*
X012219Y008231D01*
X012179Y008248D01*
X012021Y008248D01*
X011875Y008187D01*
X011763Y008075D01*
X011702Y007929D01*
X011702Y007771D01*
X011763Y007625D01*
X011875Y007513D01*
X012021Y007452D01*
X012179Y007452D01*
X012325Y007513D01*
X012437Y007625D01*
X012498Y007771D01*
X012498Y007929D01*
X012481Y007969D01*
X012521Y007952D01*
X012679Y007952D01*
X012825Y008013D01*
X012937Y008125D01*
X012998Y008271D01*
X012998Y008429D01*
X012937Y008575D01*
X012825Y008687D01*
X012679Y008748D01*
X012521Y008748D01*
X012481Y008731D01*
X012498Y008771D01*
X012498Y008929D01*
X012437Y009075D01*
X012325Y009187D01*
X012179Y009248D01*
X012021Y009248D01*
X011875Y009187D01*
X011722Y008976D02*
X011478Y008976D01*
X011498Y008818D02*
X011702Y008818D01*
X011749Y008659D02*
X011451Y008659D01*
X011296Y008501D02*
X011904Y008501D01*
X011871Y008184D02*
X011329Y008184D01*
X011458Y008025D02*
X011742Y008025D01*
X011702Y007867D02*
X011498Y007867D01*
X011472Y007708D02*
X011728Y007708D01*
X011838Y007550D02*
X011362Y007550D01*
X010702Y007867D02*
X008748Y007867D01*
X009088Y008025D02*
X010362Y008025D01*
X010238Y008184D02*
X009212Y008184D01*
X009248Y008342D02*
X010202Y008342D01*
X010232Y008501D02*
X009218Y008501D01*
X009104Y008659D02*
X010346Y008659D01*
X010017Y009293D02*
X014600Y009293D01*
X014600Y009135D02*
X012378Y009135D01*
X012478Y008976D02*
X014600Y008976D01*
X014600Y008818D02*
X012498Y008818D01*
X012854Y008659D02*
X014600Y008659D01*
X014600Y008501D02*
X012968Y008501D01*
X012998Y008342D02*
X014600Y008342D01*
X014600Y008184D02*
X012962Y008184D01*
X012838Y008025D02*
X014600Y008025D01*
X014600Y007867D02*
X012498Y007867D01*
X012472Y007708D02*
X014600Y007708D01*
X014600Y007550D02*
X012362Y007550D01*
X012202Y008342D02*
X010998Y008342D01*
X010453Y009769D02*
X002982Y009769D01*
X002954Y009836D02*
X002836Y009954D01*
X002683Y010017D01*
X002517Y010017D01*
X002364Y009954D01*
X002246Y009836D01*
X002183Y009683D01*
X002183Y009517D01*
X002246Y009364D01*
X002364Y009246D01*
X002517Y009183D01*
X002683Y009183D01*
X002836Y009246D01*
X002954Y009364D01*
X003017Y009517D01*
X003017Y009683D01*
X002954Y009836D01*
X002863Y009927D02*
X010452Y009927D01*
X010052Y010086D02*
X000600Y010086D01*
X000600Y010244D02*
X002368Y010244D01*
X002364Y010246D02*
X002517Y010183D01*
X002683Y010183D01*
X002836Y010246D01*
X002954Y010364D01*
X003017Y010517D01*
X003017Y010683D01*
X002954Y010836D01*
X002836Y010954D01*
X002683Y011017D01*
X002517Y011017D01*
X002364Y010954D01*
X002246Y010836D01*
X002183Y010683D01*
X002183Y010517D01*
X002246Y010364D01*
X002364Y010246D01*
X002230Y010403D02*
X000600Y010403D01*
X000600Y010561D02*
X002183Y010561D01*
X002198Y010720D02*
X001697Y010720D01*
X001641Y010664D02*
X001786Y010809D01*
X001864Y010998D01*
X001864Y011202D01*
X001786Y011391D01*
X001641Y011536D01*
X001452Y011614D01*
X001248Y011614D01*
X001059Y011536D01*
X000914Y011391D01*
X000836Y011202D01*
X000836Y010998D01*
X000914Y010809D01*
X001059Y010664D01*
X001248Y010586D01*
X001452Y010586D01*
X001641Y010664D01*
X001815Y010878D02*
X002288Y010878D01*
X002487Y011195D02*
X001864Y011195D01*
X001864Y011037D02*
X006823Y011037D01*
X006864Y010996D02*
X006746Y011114D01*
X006683Y011267D01*
X006683Y011433D01*
X006746Y011586D01*
X006864Y011704D01*
X007017Y011767D01*
X007183Y011767D01*
X007336Y011704D01*
X007454Y011586D01*
X007517Y011433D01*
X007517Y011267D01*
X007454Y011114D01*
X007336Y010996D01*
X007183Y010933D01*
X007017Y010933D01*
X006864Y010996D01*
X006712Y011195D02*
X002713Y011195D01*
X002683Y011183D02*
X002836Y011246D01*
X002954Y011364D01*
X003017Y011517D01*
X003017Y011683D01*
X002954Y011836D01*
X002836Y011954D01*
X002683Y012017D01*
X002517Y012017D01*
X002364Y011954D01*
X002246Y011836D01*
X002183Y011683D01*
X002183Y011517D01*
X002246Y011364D01*
X002364Y011246D01*
X002517Y011183D01*
X002683Y011183D01*
X002944Y011354D02*
X006683Y011354D01*
X006715Y011512D02*
X003015Y011512D01*
X003017Y011671D02*
X006830Y011671D01*
X007370Y011671D02*
X007830Y011671D01*
X007864Y011704D02*
X007746Y011586D01*
X007683Y011433D01*
X007683Y011267D01*
X007746Y011114D01*
X007864Y010996D01*
X008017Y010933D01*
X008183Y010933D01*
X008336Y010996D01*
X008454Y011114D01*
X008475Y011164D01*
X008496Y011114D01*
X008614Y010996D01*
X008767Y010933D01*
X008933Y010933D01*
X009086Y010996D01*
X009204Y011114D01*
X009225Y011164D01*
X009246Y011114D01*
X009364Y010996D01*
X009517Y010933D01*
X009683Y010933D01*
X009836Y010996D01*
X009954Y011114D01*
X010017Y011267D01*
X010017Y011433D01*
X009954Y011586D01*
X009836Y011704D01*
X009683Y011767D01*
X009517Y011767D01*
X009364Y011704D01*
X009246Y011586D01*
X009225Y011536D01*
X009204Y011586D01*
X009086Y011704D01*
X008933Y011767D01*
X008767Y011767D01*
X008614Y011704D01*
X008496Y011586D01*
X008475Y011536D01*
X008454Y011586D01*
X008336Y011704D01*
X008183Y011767D01*
X008017Y011767D01*
X007864Y011704D01*
X007715Y011512D02*
X007485Y011512D01*
X007517Y011354D02*
X007683Y011354D01*
X007712Y011195D02*
X007488Y011195D01*
X007377Y011037D02*
X007823Y011037D01*
X008377Y011037D02*
X008573Y011037D01*
X008580Y011671D02*
X008370Y011671D01*
X008350Y011932D02*
X008383Y011932D01*
X008448Y011942D01*
X008510Y011963D01*
X008569Y011993D01*
X008622Y012031D01*
X008669Y012078D01*
X008707Y012131D01*
X008737Y012190D01*
X008758Y012252D01*
X008768Y012317D01*
X008768Y012350D01*
X008768Y012383D01*
X008758Y012448D01*
X008754Y012459D01*
X008771Y012452D01*
X008929Y012452D01*
X008969Y012469D01*
X008952Y012429D01*
X008952Y012271D01*
X009013Y012125D01*
X009125Y012013D01*
X009271Y011952D01*
X009429Y011952D01*
X009575Y012013D01*
X009687Y012125D01*
X009748Y012271D01*
X009748Y012429D01*
X009687Y012575D01*
X009575Y012687D01*
X009429Y012748D01*
X009271Y012748D01*
X009231Y012731D01*
X009248Y012771D01*
X009248Y012929D01*
X009187Y013075D01*
X009075Y013187D01*
X008929Y013248D01*
X008771Y013248D01*
X008625Y013187D01*
X008513Y013075D01*
X008452Y012929D01*
X008452Y012771D01*
X008459Y012754D01*
X008448Y012758D01*
X008383Y012768D01*
X008350Y012768D01*
X008317Y012768D01*
X008252Y012758D01*
X008190Y012737D01*
X008131Y012707D01*
X008078Y012669D01*
X008031Y012622D01*
X007993Y012569D01*
X007963Y012510D01*
X007942Y012448D01*
X007932Y012383D01*
X007932Y012350D01*
X007932Y012317D01*
X007942Y012252D01*
X007963Y012190D01*
X007993Y012131D01*
X008031Y012078D01*
X008078Y012031D01*
X008131Y011993D01*
X008190Y011963D01*
X008252Y011942D01*
X008317Y011932D01*
X008350Y011932D01*
X008350Y012350D01*
X008768Y012350D01*
X008350Y012350D01*
X008350Y012350D01*
X008350Y012350D01*
X008350Y012768D01*
X008350Y012350D01*
X008350Y012350D01*
X008350Y012350D01*
X007932Y012350D01*
X008350Y012350D01*
X008350Y011932D01*
X008350Y011988D02*
X008350Y011988D01*
X008350Y012146D02*
X008350Y012146D01*
X008350Y012305D02*
X008350Y012305D01*
X008350Y012463D02*
X008350Y012463D01*
X008350Y012622D02*
X008350Y012622D01*
X008452Y012780D02*
X007512Y012780D01*
X007508Y012752D02*
X007518Y012817D01*
X007518Y012850D01*
X007518Y012883D01*
X007508Y012948D01*
X007487Y013010D01*
X007457Y013069D01*
X007419Y013122D01*
X007372Y013169D01*
X007319Y013207D01*
X007260Y013237D01*
X007198Y013258D01*
X007133Y013268D01*
X007100Y013268D01*
X007067Y013268D01*
X007002Y013258D01*
X006991Y013254D01*
X006998Y013271D01*
X006998Y013429D01*
X006981Y013469D01*
X007021Y013452D01*
X007179Y013452D01*
X007325Y013513D01*
X007437Y013625D01*
X007498Y013771D01*
X007498Y013929D01*
X007437Y014075D01*
X007325Y014187D01*
X007179Y014248D01*
X007021Y014248D01*
X006875Y014187D01*
X006763Y014075D01*
X006702Y013929D01*
X006702Y013771D01*
X006719Y013731D01*
X006679Y013748D01*
X006521Y013748D01*
X006375Y013687D01*
X006263Y013575D01*
X006202Y013429D01*
X006202Y013271D01*
X006263Y013125D01*
X006375Y013013D01*
X006521Y012952D01*
X006679Y012952D01*
X006696Y012959D01*
X006692Y012948D01*
X006682Y012883D01*
X006682Y012850D01*
X006682Y012817D01*
X006692Y012752D01*
X006713Y012690D01*
X006743Y012631D01*
X006781Y012578D01*
X006828Y012531D01*
X006881Y012493D01*
X006940Y012463D01*
X007002Y012442D01*
X007067Y012432D01*
X007100Y012432D01*
X007133Y012432D01*
X007198Y012442D01*
X007260Y012463D01*
X007319Y012493D01*
X007372Y012531D01*
X007419Y012578D01*
X007457Y012631D01*
X007487Y012690D01*
X007508Y012752D01*
X007518Y012850D02*
X007100Y012850D01*
X007100Y012850D01*
X007100Y013268D01*
X007100Y012850D01*
X007518Y012850D01*
X007509Y012939D02*
X008456Y012939D01*
X008534Y013097D02*
X007437Y013097D01*
X007204Y013256D02*
X007854Y013256D01*
X007864Y013246D02*
X008017Y013183D01*
X008183Y013183D01*
X008336Y013246D01*
X008454Y013364D01*
X008517Y013517D01*
X008517Y013683D01*
X008454Y013836D01*
X008336Y013954D01*
X008183Y014017D01*
X008017Y014017D01*
X007864Y013954D01*
X007746Y013836D01*
X007683Y013683D01*
X007683Y013517D01*
X007746Y013364D01*
X007864Y013246D01*
X007725Y013414D02*
X006998Y013414D01*
X006991Y013256D02*
X006996Y013256D01*
X007100Y013256D02*
X007100Y013256D01*
X007100Y013097D02*
X007100Y013097D01*
X007100Y012939D02*
X007100Y012939D01*
X007100Y012850D02*
X007100Y012850D01*
X007100Y012432D01*
X007100Y012850D01*
X007100Y012850D01*
X007100Y012850D01*
X006682Y012850D01*
X007100Y012850D01*
X007100Y012780D02*
X007100Y012780D01*
X007100Y012622D02*
X007100Y012622D01*
X007100Y012463D02*
X007100Y012463D01*
X007261Y012463D02*
X007947Y012463D01*
X007934Y012305D02*
X002895Y012305D01*
X002954Y012364D02*
X003017Y012517D01*
X003017Y012683D01*
X002954Y012836D01*
X002836Y012954D01*
X002683Y013017D01*
X002517Y013017D01*
X002364Y012954D01*
X002246Y012836D01*
X002183Y012683D01*
X002183Y012517D01*
X002246Y012364D01*
X002364Y012246D01*
X002517Y012183D01*
X002683Y012183D01*
X002836Y012246D01*
X002954Y012364D01*
X002995Y012463D02*
X006939Y012463D01*
X006750Y012622D02*
X003017Y012622D01*
X002977Y012780D02*
X006688Y012780D01*
X006691Y012939D02*
X002852Y012939D01*
X002683Y013183D02*
X002836Y013246D01*
X002954Y013364D01*
X003017Y013517D01*
X003017Y013683D01*
X002954Y013836D01*
X002836Y013954D01*
X002683Y014017D01*
X002517Y014017D01*
X002364Y013954D01*
X002246Y013836D01*
X002183Y013683D01*
X002183Y013517D01*
X002246Y013364D01*
X002364Y013246D01*
X002517Y013183D01*
X002683Y013183D01*
X002846Y013256D02*
X006209Y013256D01*
X006202Y013414D02*
X002975Y013414D01*
X003017Y013573D02*
X006262Y013573D01*
X006480Y013731D02*
X002998Y013731D01*
X002901Y013890D02*
X006702Y013890D01*
X006751Y014048D02*
X000600Y014048D01*
X000600Y013890D02*
X002299Y013890D01*
X002202Y013731D02*
X000600Y013731D01*
X000600Y013573D02*
X001147Y013573D01*
X001059Y013536D02*
X000914Y013391D01*
X000836Y013202D01*
X000836Y012998D01*
X000914Y012809D01*
X001059Y012664D01*
X001248Y012586D01*
X001452Y012586D01*
X001641Y012664D01*
X001786Y012809D01*
X001864Y012998D01*
X001864Y013202D01*
X001786Y013391D01*
X001641Y013536D01*
X001452Y013614D01*
X001248Y013614D01*
X001059Y013536D01*
X000937Y013414D02*
X000600Y013414D01*
X000600Y013256D02*
X000858Y013256D01*
X000836Y013097D02*
X000600Y013097D01*
X000600Y012939D02*
X000860Y012939D01*
X000943Y012780D02*
X000600Y012780D01*
X000600Y012622D02*
X001161Y012622D01*
X001539Y012622D02*
X002183Y012622D01*
X002205Y012463D02*
X000600Y012463D01*
X000600Y012305D02*
X002305Y012305D01*
X002445Y011988D02*
X000600Y011988D01*
X000600Y012146D02*
X007985Y012146D01*
X008141Y011988D02*
X002755Y011988D01*
X002957Y011829D02*
X011433Y011829D01*
X011433Y011767D02*
X011433Y011933D01*
X011496Y012086D01*
X011614Y012204D01*
X011767Y012267D01*
X011933Y012267D01*
X012086Y012204D01*
X012204Y012086D01*
X012225Y012036D01*
X012246Y012086D01*
X012364Y012204D01*
X012517Y012267D01*
X012683Y012267D01*
X012836Y012204D01*
X012954Y012086D01*
X013017Y011933D01*
X013017Y011767D01*
X012954Y011614D01*
X012836Y011496D01*
X012683Y011433D01*
X012517Y011433D01*
X012364Y011496D01*
X012246Y011614D01*
X012225Y011664D01*
X012204Y011614D01*
X012086Y011496D01*
X011933Y011433D01*
X011767Y011433D01*
X011614Y011496D01*
X011496Y011614D01*
X011433Y011767D01*
X011472Y011671D02*
X009870Y011671D01*
X009985Y011512D02*
X011598Y011512D01*
X011455Y011988D02*
X009514Y011988D01*
X009696Y012146D02*
X011556Y012146D01*
X011745Y012463D02*
X010705Y012463D01*
X010679Y012452D02*
X010825Y012513D01*
X010937Y012625D01*
X010998Y012771D01*
X010998Y012929D01*
X010937Y013075D01*
X010825Y013187D01*
X010679Y013248D01*
X010521Y013248D01*
X010481Y013231D01*
X010498Y013271D01*
X010498Y013429D01*
X010481Y013469D01*
X010521Y013452D01*
X010679Y013452D01*
X010825Y013513D01*
X010937Y013625D01*
X010998Y013771D01*
X010998Y013929D01*
X010937Y014075D01*
X010825Y014187D01*
X010679Y014248D01*
X010521Y014248D01*
X010375Y014187D01*
X010263Y014075D01*
X010202Y013929D01*
X010202Y013771D01*
X010219Y013731D01*
X010179Y013748D01*
X010021Y013748D01*
X009875Y013687D01*
X009763Y013575D01*
X009702Y013429D01*
X009702Y013271D01*
X009763Y013125D01*
X009875Y013013D01*
X010021Y012952D01*
X010179Y012952D01*
X010219Y012969D01*
X010202Y012929D01*
X010202Y012771D01*
X010263Y012625D01*
X010375Y012513D01*
X010521Y012452D01*
X010679Y012452D01*
X010495Y012463D02*
X009734Y012463D01*
X009748Y012305D02*
X014600Y012305D01*
X014600Y012463D02*
X011955Y012463D01*
X011929Y012452D02*
X012075Y012513D01*
X012187Y012625D01*
X012248Y012771D01*
X012248Y012929D01*
X012231Y012969D01*
X012271Y012952D01*
X012429Y012952D01*
X012575Y013013D01*
X012687Y013125D01*
X012748Y013271D01*
X012748Y013429D01*
X012687Y013575D01*
X012575Y013687D01*
X012429Y013748D01*
X012271Y013748D01*
X012254Y013741D01*
X012258Y013752D01*
X012268Y013817D01*
X012268Y013850D01*
X012268Y013883D01*
X012258Y013948D01*
X012237Y014010D01*
X012207Y014069D01*
X012169Y014122D01*
X012122Y014169D01*
X012069Y014207D01*
X012010Y014237D01*
X011948Y014258D01*
X011883Y014268D01*
X011850Y014268D01*
X011817Y014268D01*
X011752Y014258D01*
X011690Y014237D01*
X011631Y014207D01*
X011578Y014169D01*
X011531Y014122D01*
X011493Y014069D01*
X011463Y014010D01*
X011442Y013948D01*
X011432Y013883D01*
X011432Y013850D01*
X011432Y013817D01*
X011442Y013752D01*
X011463Y013690D01*
X011493Y013631D01*
X011531Y013578D01*
X011578Y013531D01*
X011631Y013493D01*
X011690Y013463D01*
X011752Y013442D01*
X011817Y013432D01*
X011850Y013432D01*
X011883Y013432D01*
X011948Y013442D01*
X011959Y013446D01*
X011952Y013429D01*
X011952Y013271D01*
X011969Y013231D01*
X011929Y013248D01*
X011771Y013248D01*
X011625Y013187D01*
X011513Y013075D01*
X011452Y012929D01*
X011452Y012771D01*
X011513Y012625D01*
X011625Y012513D01*
X011771Y012452D01*
X011929Y012452D01*
X012184Y012622D02*
X014600Y012622D01*
X014600Y012780D02*
X012248Y012780D01*
X012244Y012939D02*
X014600Y012939D01*
X014600Y013097D02*
X012660Y013097D01*
X012741Y013256D02*
X014600Y013256D01*
X014600Y013414D02*
X012748Y013414D01*
X012688Y013573D02*
X014600Y013573D01*
X014600Y013731D02*
X012470Y013731D01*
X012268Y013850D02*
X011850Y013850D01*
X011850Y013850D01*
X011850Y014268D01*
X011850Y013850D01*
X012268Y013850D01*
X012267Y013890D02*
X014600Y013890D01*
X014600Y014048D02*
X012218Y014048D01*
X012070Y014207D02*
X014600Y014207D01*
X014600Y014365D02*
X000600Y014365D01*
X000600Y014207D02*
X006921Y014207D01*
X006825Y014513D02*
X006937Y014625D01*
X006998Y014771D01*
X006998Y014929D01*
X006991Y014946D01*
X007002Y014942D01*
X007067Y014932D01*
X007100Y014932D01*
X007133Y014932D01*
X007198Y014942D01*
X007260Y014963D01*
X007319Y014993D01*
X007372Y015031D01*
X007419Y015078D01*
X007457Y015131D01*
X007487Y015190D01*
X007508Y015252D01*
X007518Y015317D01*
X007518Y015350D01*
X007518Y015383D01*
X007508Y015448D01*
X007487Y015510D01*
X007457Y015569D01*
X007419Y015622D01*
X007372Y015669D01*
X007319Y015707D01*
X007260Y015737D01*
X007198Y015758D01*
X007133Y015768D01*
X007100Y015768D01*
X007067Y015768D01*
X007002Y015758D01*
X006940Y015737D01*
X006881Y015707D01*
X006828Y015669D01*
X006781Y015622D01*
X006743Y015569D01*
X006713Y015510D01*
X006692Y015448D01*
X006682Y015383D01*
X006682Y015350D01*
X006682Y015317D01*
X006692Y015252D01*
X006696Y015241D01*
X006679Y015248D01*
X006521Y015248D01*
X006481Y015231D01*
X006498Y015271D01*
X006498Y015429D01*
X006437Y015575D01*
X006325Y015687D01*
X006179Y015748D01*
X006021Y015748D01*
X005875Y015687D01*
X005763Y015575D01*
X005702Y015429D01*
X005702Y015271D01*
X005763Y015125D01*
X005875Y015013D01*
X006021Y014952D01*
X006179Y014952D01*
X006219Y014969D01*
X006202Y014929D01*
X006202Y014771D01*
X006263Y014625D01*
X006375Y014513D01*
X006521Y014452D01*
X006679Y014452D01*
X006825Y014513D01*
X006836Y014524D02*
X009336Y014524D01*
X009364Y014496D02*
X009517Y014433D01*
X009683Y014433D01*
X009836Y014496D01*
X009954Y014614D01*
X010017Y014767D01*
X010017Y014933D01*
X009954Y015086D01*
X009836Y015204D01*
X009683Y015267D01*
X009517Y015267D01*
X009364Y015204D01*
X009246Y015086D01*
X009183Y014933D01*
X009183Y014767D01*
X009246Y014614D01*
X009364Y014496D01*
X009218Y014682D02*
X006961Y014682D01*
X006998Y014841D02*
X009183Y014841D01*
X009210Y014999D02*
X007328Y014999D01*
X007471Y015158D02*
X009317Y015158D01*
X009625Y015763D02*
X009513Y015875D01*
X009452Y016021D01*
X009452Y016179D01*
X009513Y016325D01*
X009625Y016437D01*
X009771Y016498D01*
X009929Y016498D01*
X010075Y016437D01*
X010187Y016325D01*
X010248Y016179D01*
X010248Y016021D01*
X010231Y015981D01*
X010271Y015998D01*
X010429Y015998D01*
X010469Y015981D01*
X010452Y016021D01*
X010452Y016179D01*
X010513Y016325D01*
X010625Y016437D01*
X010771Y016498D01*
X010929Y016498D01*
X011075Y016437D01*
X011187Y016325D01*
X011248Y016179D01*
X011248Y016021D01*
X011187Y015875D01*
X011075Y015763D01*
X010929Y015702D01*
X010771Y015702D01*
X010731Y015719D01*
X010748Y015679D01*
X010748Y015521D01*
X010687Y015375D01*
X010575Y015263D01*
X010429Y015202D01*
X010271Y015202D01*
X010125Y015263D01*
X010013Y015375D01*
X009952Y015521D01*
X009952Y015679D01*
X009969Y015719D01*
X009929Y015702D01*
X009771Y015702D01*
X009625Y015763D01*
X009596Y015792D02*
X008473Y015792D01*
X008454Y015836D02*
X008358Y015933D01*
X008433Y015933D01*
X008586Y015996D01*
X008704Y016114D01*
X008767Y016267D01*
X009489Y016267D01*
X009452Y016109D02*
X008699Y016109D01*
X008767Y016267D02*
X008767Y016433D01*
X008704Y016586D01*
X008586Y016704D01*
X008433Y016767D01*
X008267Y016767D01*
X008114Y016704D01*
X007996Y016586D01*
X007975Y016536D01*
X007954Y016586D01*
X007836Y016704D01*
X007683Y016767D01*
X007517Y016767D01*
X007364Y016704D01*
X007246Y016586D01*
X007225Y016536D01*
X007204Y016586D01*
X007086Y016704D01*
X006933Y016767D01*
X006767Y016767D01*
X006614Y016704D01*
X006496Y016586D01*
X006433Y016433D01*
X006433Y016267D01*
X002684Y016267D01*
X002683Y016267D02*
X002517Y016267D01*
X002364Y016204D01*
X002246Y016086D01*
X002183Y015933D01*
X002183Y015767D01*
X002246Y015614D01*
X002364Y015496D01*
X002517Y015433D01*
X002683Y015433D01*
X002836Y015496D01*
X002954Y015614D01*
X003017Y015767D01*
X003017Y015933D01*
X002954Y016086D01*
X002836Y016204D01*
X002683Y016267D01*
X002516Y016267D02*
X000600Y016267D01*
X000600Y016109D02*
X001234Y016109D01*
X001248Y016114D02*
X001059Y016036D01*
X000914Y015891D01*
X000836Y015702D01*
X000836Y015498D01*
X000914Y015309D01*
X001059Y015164D01*
X001248Y015086D01*
X001452Y015086D01*
X001641Y015164D01*
X001786Y015309D01*
X001864Y015498D01*
X001864Y015702D01*
X001786Y015891D01*
X001641Y016036D01*
X001452Y016114D01*
X001248Y016114D01*
X001466Y016109D02*
X002268Y016109D01*
X002190Y015950D02*
X001727Y015950D01*
X001827Y015792D02*
X002183Y015792D01*
X002238Y015633D02*
X001864Y015633D01*
X001855Y015475D02*
X002416Y015475D01*
X002517Y015267D02*
X002364Y015204D01*
X002246Y015086D01*
X002183Y014933D01*
X002183Y014767D01*
X002246Y014614D01*
X002364Y014496D01*
X002517Y014433D01*
X002683Y014433D01*
X002836Y014496D01*
X002954Y014614D01*
X003017Y014767D01*
X003017Y014933D01*
X002954Y015086D01*
X002836Y015204D01*
X002683Y015267D01*
X002517Y015267D01*
X002317Y015158D02*
X001626Y015158D01*
X001789Y015316D02*
X005702Y015316D01*
X005721Y015475D02*
X002784Y015475D01*
X002962Y015633D02*
X005820Y015633D01*
X005749Y015158D02*
X002883Y015158D01*
X002990Y014999D02*
X005908Y014999D01*
X006202Y014841D02*
X003017Y014841D01*
X002982Y014682D02*
X006239Y014682D01*
X006364Y014524D02*
X002864Y014524D01*
X002336Y014524D02*
X000600Y014524D01*
X000600Y014682D02*
X002218Y014682D01*
X002183Y014841D02*
X000600Y014841D01*
X000600Y014999D02*
X002210Y014999D01*
X003017Y015792D02*
X007727Y015792D01*
X007746Y015836D02*
X007683Y015683D01*
X007683Y015517D01*
X007746Y015364D01*
X007864Y015246D01*
X008017Y015183D01*
X008183Y015183D01*
X008336Y015246D01*
X008454Y015364D01*
X008517Y015517D01*
X008517Y015683D01*
X008454Y015836D01*
X008475Y015950D02*
X009482Y015950D01*
X009613Y016426D02*
X008767Y016426D01*
X008705Y016584D02*
X014600Y016584D01*
X014600Y016426D02*
X011087Y016426D01*
X011211Y016267D02*
X013540Y016267D01*
X013559Y016286D02*
X013414Y016141D01*
X013336Y015952D01*
X013336Y015748D01*
X013414Y015559D01*
X013559Y015414D01*
X013748Y015336D01*
X013952Y015336D01*
X014141Y015414D01*
X014286Y015559D01*
X014364Y015748D01*
X014364Y015952D01*
X014286Y016141D01*
X014141Y016286D01*
X013952Y016364D01*
X013748Y016364D01*
X013559Y016286D01*
X013400Y016109D02*
X011248Y016109D01*
X011218Y015950D02*
X013336Y015950D01*
X013336Y015792D02*
X011104Y015792D01*
X010748Y015633D02*
X013383Y015633D01*
X013498Y015475D02*
X010729Y015475D01*
X010629Y015316D02*
X014600Y015316D01*
X014600Y015158D02*
X011883Y015158D01*
X011836Y015204D02*
X011954Y015086D01*
X012017Y014933D01*
X012017Y014767D01*
X011954Y014614D01*
X011836Y014496D01*
X011683Y014433D01*
X011517Y014433D01*
X011364Y014496D01*
X011246Y014614D01*
X011183Y014767D01*
X011183Y014933D01*
X011246Y015086D01*
X011364Y015204D01*
X011517Y015267D01*
X011683Y015267D01*
X011836Y015204D01*
X011990Y014999D02*
X014600Y014999D01*
X014600Y014841D02*
X012017Y014841D01*
X011982Y014682D02*
X014600Y014682D01*
X014600Y014524D02*
X011864Y014524D01*
X011850Y014207D02*
X011850Y014207D01*
X011850Y014048D02*
X011850Y014048D01*
X011850Y013890D02*
X011850Y013890D01*
X011850Y013850D02*
X011850Y013850D01*
X011850Y013850D01*
X011850Y013432D01*
X011850Y013850D01*
X011850Y013850D01*
X011432Y013850D01*
X011850Y013850D01*
X011850Y013731D02*
X011850Y013731D01*
X011850Y013573D02*
X011850Y013573D01*
X011952Y013414D02*
X010498Y013414D01*
X010491Y013256D02*
X011959Y013256D01*
X011534Y013097D02*
X010916Y013097D01*
X010994Y012939D02*
X011456Y012939D01*
X011452Y012780D02*
X010998Y012780D01*
X010934Y012622D02*
X011516Y012622D01*
X012144Y012146D02*
X012306Y012146D01*
X012894Y012146D02*
X014600Y012146D01*
X014600Y011988D02*
X012995Y011988D01*
X013017Y011829D02*
X014600Y011829D01*
X014600Y011671D02*
X012978Y011671D01*
X012852Y011512D02*
X014600Y011512D01*
X014600Y011354D02*
X010017Y011354D01*
X009988Y011195D02*
X010643Y011195D01*
X010497Y011037D02*
X009877Y011037D01*
X010203Y010720D02*
X003002Y010720D01*
X003017Y010561D02*
X010007Y010561D01*
X009952Y010403D02*
X002970Y010403D01*
X002832Y010244D02*
X009963Y010244D01*
X010452Y010878D02*
X002912Y010878D01*
X002256Y011354D02*
X001802Y011354D01*
X001665Y011512D02*
X002185Y011512D01*
X002183Y011671D02*
X000600Y011671D01*
X000600Y011829D02*
X002243Y011829D01*
X002223Y012780D02*
X001757Y012780D01*
X001840Y012939D02*
X002348Y012939D01*
X002354Y013256D02*
X001842Y013256D01*
X001864Y013097D02*
X006290Y013097D01*
X007279Y014207D02*
X010421Y014207D01*
X010251Y014048D02*
X007449Y014048D01*
X007498Y013890D02*
X007799Y013890D01*
X007702Y013731D02*
X007481Y013731D01*
X007385Y013573D02*
X007683Y013573D01*
X008346Y013256D02*
X009709Y013256D01*
X009702Y013414D02*
X008475Y013414D01*
X008517Y013573D02*
X009762Y013573D01*
X009980Y013731D02*
X008498Y013731D01*
X008401Y013890D02*
X010202Y013890D01*
X010779Y014207D02*
X011630Y014207D01*
X011482Y014048D02*
X010949Y014048D01*
X010998Y013890D02*
X011433Y013890D01*
X011449Y013731D02*
X010981Y013731D01*
X010885Y013573D02*
X011537Y013573D01*
X011336Y014524D02*
X009864Y014524D01*
X009982Y014682D02*
X011218Y014682D01*
X011183Y014841D02*
X010017Y014841D01*
X009990Y014999D02*
X011210Y014999D01*
X011317Y015158D02*
X009883Y015158D01*
X010071Y015316D02*
X008406Y015316D01*
X008500Y015475D02*
X009971Y015475D01*
X009952Y015633D02*
X008517Y015633D01*
X008092Y016017D02*
X008017Y016017D01*
X007864Y015954D01*
X007746Y015836D01*
X007683Y015933D02*
X007836Y015996D01*
X007954Y016114D01*
X007975Y016164D01*
X007996Y016114D01*
X008092Y016017D01*
X008001Y016109D02*
X007949Y016109D01*
X007860Y015950D02*
X007725Y015950D01*
X007683Y015933D02*
X007517Y015933D01*
X007364Y015996D01*
X007246Y016114D01*
X007225Y016164D01*
X007204Y016114D01*
X007086Y015996D01*
X006933Y015933D01*
X006767Y015933D01*
X006614Y015996D01*
X006496Y016114D01*
X006433Y016267D01*
X006433Y016426D02*
X000600Y016426D01*
X000600Y016584D02*
X005053Y016584D01*
X005013Y016625D02*
X004952Y016771D01*
X004952Y016929D01*
X004969Y016969D01*
X004929Y016952D01*
X004771Y016952D01*
X004625Y017013D01*
X004513Y017125D01*
X004452Y017271D01*
X004452Y017429D01*
X004513Y017575D01*
X004625Y017687D01*
X004771Y017748D01*
X004929Y017748D01*
X005075Y017687D01*
X005187Y017575D01*
X005248Y017429D01*
X005248Y017271D01*
X005231Y017231D01*
X005271Y017248D01*
X005429Y017248D01*
X005446Y017241D01*
X005442Y017252D01*
X005432Y017317D01*
X005432Y017350D01*
X005850Y017350D01*
X005850Y017350D01*
X005850Y017768D01*
X005817Y017768D01*
X005752Y017758D01*
X005690Y017737D01*
X005631Y017707D01*
X005578Y017669D01*
X005531Y017622D01*
X005493Y017569D01*
X005463Y017510D01*
X005442Y017448D01*
X005432Y017383D01*
X005432Y017350D01*
X005850Y017350D01*
X006268Y017350D01*
X006268Y017383D01*
X006258Y017448D01*
X006237Y017510D01*
X006207Y017569D01*
X006169Y017622D01*
X006122Y017669D01*
X006069Y017707D01*
X006010Y017737D01*
X005948Y017758D01*
X005883Y017768D01*
X005850Y017768D01*
X005850Y017350D01*
X005850Y017350D01*
X005850Y017350D01*
X006268Y017350D01*
X006268Y017317D01*
X006258Y017252D01*
X006237Y017190D01*
X006207Y017131D01*
X006169Y017078D01*
X006122Y017031D01*
X006069Y016993D01*
X006010Y016963D01*
X005948Y016942D01*
X005883Y016932D01*
X005850Y016932D01*
X005850Y017350D01*
X005850Y017350D01*
X005850Y016932D01*
X005817Y016932D01*
X005752Y016942D01*
X005741Y016946D01*
X005748Y016929D01*
X005748Y016771D01*
X005687Y016625D01*
X005575Y016513D01*
X005429Y016452D01*
X005271Y016452D01*
X005125Y016513D01*
X005013Y016625D01*
X004964Y016743D02*
X002828Y016743D01*
X002836Y016746D02*
X002954Y016864D01*
X003017Y017017D01*
X003017Y017183D01*
X002954Y017336D01*
X002836Y017454D01*
X002683Y017517D01*
X002517Y017517D01*
X002364Y017454D01*
X002246Y017336D01*
X002183Y017183D01*
X002183Y017017D01*
X002246Y016864D01*
X002364Y016746D01*
X002517Y016683D01*
X002683Y016683D01*
X002836Y016746D01*
X002969Y016901D02*
X004952Y016901D01*
X004578Y017060D02*
X003017Y017060D01*
X003003Y017218D02*
X004474Y017218D01*
X004452Y017377D02*
X002914Y017377D01*
X002710Y017694D02*
X004640Y017694D01*
X004496Y017535D02*
X001864Y017535D01*
X001864Y017498D02*
X001786Y017309D01*
X001641Y017164D01*
X001452Y017086D01*
X001248Y017086D01*
X001059Y017164D01*
X000914Y017309D01*
X000836Y017498D01*
X000836Y017702D01*
X000914Y017891D01*
X001059Y018036D01*
X001248Y018114D01*
X001452Y018114D01*
X001641Y018036D01*
X001786Y017891D01*
X001864Y017702D01*
X001864Y017498D01*
X001814Y017377D02*
X002286Y017377D01*
X002197Y017218D02*
X001695Y017218D01*
X001864Y017694D02*
X002490Y017694D01*
X002517Y017683D02*
X002683Y017683D01*
X002836Y017746D01*
X002954Y017864D01*
X003017Y018017D01*
X003017Y018183D01*
X002954Y018336D01*
X002836Y018454D01*
X002683Y018517D01*
X002517Y018517D01*
X002364Y018454D01*
X002246Y018336D01*
X002183Y018183D01*
X002183Y018017D01*
X002246Y017864D01*
X002364Y017746D01*
X002517Y017683D01*
X002258Y017852D02*
X001802Y017852D01*
X001667Y018011D02*
X002185Y018011D01*
X002183Y018169D02*
X000600Y018169D01*
X000600Y018011D02*
X001033Y018011D01*
X000898Y017852D02*
X000600Y017852D01*
X000600Y017694D02*
X000836Y017694D01*
X000836Y017535D02*
X000600Y017535D01*
X000600Y017377D02*
X000886Y017377D01*
X001005Y017218D02*
X000600Y017218D01*
X000600Y017060D02*
X002183Y017060D01*
X002231Y016901D02*
X000600Y016901D01*
X000600Y016743D02*
X002372Y016743D01*
X002932Y016109D02*
X006501Y016109D01*
X006725Y015950D02*
X003010Y015950D01*
X002942Y017852D02*
X009035Y017852D01*
X009013Y017875D02*
X009125Y017763D01*
X009271Y017702D01*
X009429Y017702D01*
X009469Y017719D01*
X009452Y017679D01*
X009452Y017521D01*
X009469Y017481D01*
X009429Y017498D01*
X009271Y017498D01*
X009125Y017437D01*
X009013Y017325D01*
X008952Y017179D01*
X008952Y017021D01*
X009013Y016875D01*
X009125Y016763D01*
X009271Y016702D01*
X009429Y016702D01*
X009575Y016763D01*
X009687Y016875D01*
X009748Y017021D01*
X009748Y017179D01*
X009731Y017219D01*
X009771Y017202D01*
X009929Y017202D01*
X010075Y017263D01*
X010187Y017375D01*
X010248Y017521D01*
X010248Y017679D01*
X010187Y017825D01*
X010075Y017937D01*
X009929Y017998D01*
X009771Y017998D01*
X009731Y017981D01*
X009748Y018021D01*
X009748Y018179D01*
X009687Y018325D01*
X009575Y018437D01*
X009429Y018498D01*
X009271Y018498D01*
X009125Y018437D01*
X009013Y018325D01*
X008952Y018179D01*
X008952Y018021D01*
X009013Y017875D01*
X008956Y018011D02*
X008601Y018011D01*
X008586Y017996D02*
X008433Y017933D01*
X008267Y017933D01*
X008114Y017996D01*
X007996Y018114D01*
X007975Y018164D01*
X007954Y018114D01*
X007836Y017996D01*
X007683Y017933D01*
X007517Y017933D01*
X007364Y017996D01*
X007246Y018114D01*
X007225Y018164D01*
X007204Y018114D01*
X007086Y017996D01*
X006933Y017933D01*
X006767Y017933D01*
X006614Y017996D01*
X006496Y018114D01*
X006433Y018267D01*
X006433Y018433D01*
X006496Y018586D01*
X006614Y018704D01*
X006767Y018767D01*
X006933Y018767D01*
X007086Y018704D01*
X007204Y018586D01*
X007225Y018536D01*
X007246Y018586D01*
X007364Y018704D01*
X007517Y018767D01*
X007683Y018767D01*
X007836Y018704D01*
X007954Y018586D01*
X007975Y018536D01*
X007996Y018586D01*
X008114Y018704D01*
X008267Y018767D01*
X008433Y018767D01*
X008586Y018704D01*
X008704Y018586D01*
X008767Y018433D01*
X008767Y018267D01*
X008704Y018114D01*
X008586Y017996D01*
X008727Y018169D02*
X008952Y018169D01*
X009015Y018328D02*
X008767Y018328D01*
X008746Y018486D02*
X009242Y018486D01*
X009458Y018486D02*
X013144Y018486D01*
X012986Y018645D02*
X008646Y018645D01*
X008054Y018645D02*
X007896Y018645D01*
X007892Y019066D02*
X007975Y019079D01*
X008055Y019105D01*
X008130Y019143D01*
X008198Y019192D01*
X008258Y019252D01*
X008307Y019320D01*
X008345Y019395D01*
X008371Y019475D01*
X008384Y019558D01*
X008384Y019562D01*
X007888Y019562D01*
X007888Y019066D01*
X007892Y019066D01*
X007888Y019120D02*
X007812Y019120D01*
X007812Y019279D02*
X007888Y019279D01*
X007888Y019437D02*
X007812Y019437D01*
X007812Y019596D02*
X006614Y019596D01*
X006593Y019754D02*
X007338Y019754D01*
X007417Y019913D02*
X006515Y019913D01*
X006307Y020071D02*
X007597Y020071D01*
X007888Y019596D02*
X011163Y019596D01*
X011163Y019600D02*
X011163Y019566D01*
X011173Y019498D01*
X011195Y019432D01*
X011226Y019371D01*
X011266Y019315D01*
X011315Y019266D01*
X011371Y019226D01*
X011432Y019195D01*
X011498Y019173D01*
X011566Y019163D01*
X011600Y019163D01*
X011634Y019163D01*
X011702Y019173D01*
X011768Y019195D01*
X011829Y019226D01*
X011885Y019266D01*
X011934Y019315D01*
X011974Y019371D01*
X012005Y019432D01*
X012027Y019498D01*
X012037Y019566D01*
X012037Y019600D01*
X012037Y019634D01*
X012027Y019702D01*
X012005Y019768D01*
X011974Y019829D01*
X011934Y019885D01*
X011885Y019934D01*
X011829Y019974D01*
X011768Y020005D01*
X011702Y020027D01*
X011634Y020037D01*
X011600Y020037D01*
X011566Y020037D01*
X011498Y020027D01*
X011432Y020005D01*
X011371Y019974D01*
X011315Y019934D01*
X011266Y019885D01*
X011226Y019829D01*
X011195Y019768D01*
X011173Y019702D01*
X011163Y019634D01*
X011163Y019600D01*
X011600Y019600D01*
X011600Y019600D01*
X011600Y020037D01*
X011600Y019600D01*
X012037Y019600D01*
X011600Y019600D01*
X011600Y019600D01*
X011600Y019600D01*
X011163Y019600D01*
X011190Y019754D02*
X008362Y019754D01*
X008283Y019913D02*
X011294Y019913D01*
X011600Y019913D02*
X011600Y019913D01*
X011600Y019754D02*
X011600Y019754D01*
X011600Y019600D02*
X011600Y019163D01*
X011600Y019600D01*
X011600Y019600D01*
X011600Y019596D02*
X011600Y019596D01*
X011600Y019437D02*
X011600Y019437D01*
X011600Y019279D02*
X011600Y019279D01*
X011897Y019279D02*
X012740Y019279D01*
X012740Y019437D02*
X012007Y019437D01*
X012037Y019596D02*
X012767Y019596D01*
X012809Y019754D02*
X012010Y019754D01*
X011906Y019913D02*
X012893Y019913D01*
X013001Y020071D02*
X008103Y020071D01*
X008359Y019437D02*
X011193Y019437D01*
X011303Y019279D02*
X008277Y019279D01*
X008085Y019120D02*
X012763Y019120D01*
X012805Y018962D02*
X002395Y018962D01*
X002437Y019120D02*
X005915Y019120D01*
X005694Y019279D02*
X002460Y019279D01*
X002460Y019437D02*
X005611Y019437D01*
X005586Y019596D02*
X002433Y019596D01*
X002391Y019754D02*
X005607Y019754D01*
X005685Y019913D02*
X002307Y019913D01*
X002199Y020071D02*
X005893Y020071D01*
X006506Y019279D02*
X007423Y019279D01*
X007341Y019437D02*
X006589Y019437D01*
X006285Y019120D02*
X007615Y019120D01*
X007304Y018645D02*
X007146Y018645D01*
X007101Y018011D02*
X007349Y018011D01*
X007851Y018011D02*
X008099Y018011D01*
X008952Y017060D02*
X006150Y017060D01*
X006246Y017218D02*
X008968Y017218D01*
X009064Y017377D02*
X006268Y017377D01*
X006225Y017535D02*
X009452Y017535D01*
X009458Y017694D02*
X006088Y017694D01*
X005933Y017933D02*
X006086Y017996D01*
X006204Y018114D01*
X006267Y018267D01*
X006267Y018433D01*
X006204Y018586D01*
X006086Y018704D01*
X005933Y018767D01*
X005767Y018767D01*
X005614Y018704D01*
X005496Y018586D01*
X005433Y018433D01*
X005433Y018267D01*
X005496Y018114D01*
X005614Y017996D01*
X005767Y017933D01*
X005933Y017933D01*
X006101Y018011D02*
X006599Y018011D01*
X006473Y018169D02*
X006227Y018169D01*
X006267Y018328D02*
X006433Y018328D01*
X006454Y018486D02*
X006246Y018486D01*
X006146Y018645D02*
X006554Y018645D01*
X005850Y017694D02*
X005850Y017694D01*
X005850Y017535D02*
X005850Y017535D01*
X005850Y017377D02*
X005850Y017377D01*
X005850Y017218D02*
X005850Y017218D01*
X005850Y017060D02*
X005850Y017060D01*
X005748Y016901D02*
X009002Y016901D01*
X009174Y016743D02*
X008493Y016743D01*
X008207Y016743D02*
X007743Y016743D01*
X007457Y016743D02*
X006993Y016743D01*
X007205Y016584D02*
X007245Y016584D01*
X007251Y016109D02*
X007199Y016109D01*
X007100Y015768D02*
X007100Y015350D01*
X007100Y015350D01*
X007518Y015350D01*
X007100Y015350D01*
X007100Y015350D01*
X007100Y015350D01*
X006682Y015350D01*
X007100Y015350D01*
X007100Y015768D01*
X007100Y015633D02*
X007100Y015633D01*
X007100Y015475D02*
X007100Y015475D01*
X007100Y015350D02*
X007100Y014932D01*
X007100Y015350D01*
X007100Y015350D01*
X007100Y015316D02*
X007100Y015316D01*
X007100Y015158D02*
X007100Y015158D01*
X007100Y014999D02*
X007100Y014999D01*
X006701Y015475D02*
X006479Y015475D01*
X006498Y015316D02*
X006682Y015316D01*
X006792Y015633D02*
X006380Y015633D01*
X006975Y015950D02*
X007475Y015950D01*
X007408Y015633D02*
X007683Y015633D01*
X007700Y015475D02*
X007499Y015475D01*
X007518Y015316D02*
X007794Y015316D01*
X007955Y016584D02*
X007995Y016584D01*
X006707Y016743D02*
X005736Y016743D01*
X005647Y016584D02*
X006495Y016584D01*
X005475Y017535D02*
X005204Y017535D01*
X005248Y017377D02*
X005432Y017377D01*
X005612Y017694D02*
X005060Y017694D01*
X005599Y018011D02*
X004101Y018011D01*
X004086Y017996D02*
X003933Y017933D01*
X003767Y017933D01*
X003614Y017996D01*
X003496Y018114D01*
X003433Y018267D01*
X003433Y018433D01*
X003496Y018586D01*
X003614Y018704D01*
X003767Y018767D01*
X003933Y018767D01*
X004086Y018704D01*
X004204Y018586D01*
X004267Y018433D01*
X004267Y018267D01*
X004204Y018114D01*
X004086Y017996D01*
X004227Y018169D02*
X005473Y018169D01*
X005433Y018328D02*
X004267Y018328D01*
X004246Y018486D02*
X005454Y018486D01*
X005554Y018645D02*
X004146Y018645D01*
X003554Y018645D02*
X002214Y018645D01*
X002316Y018803D02*
X012884Y018803D01*
X013401Y018328D02*
X009685Y018328D01*
X009748Y018169D02*
X014600Y018169D01*
X014600Y018011D02*
X011700Y018011D01*
X011683Y018017D02*
X011836Y017954D01*
X011954Y017836D01*
X012017Y017683D01*
X012017Y017517D01*
X011954Y017364D01*
X011836Y017246D01*
X011683Y017183D01*
X011517Y017183D01*
X011364Y017246D01*
X011246Y017364D01*
X011183Y017517D01*
X011183Y017683D01*
X011246Y017836D01*
X011364Y017954D01*
X011517Y018017D01*
X011683Y018017D01*
X011500Y018011D02*
X009744Y018011D01*
X010161Y017852D02*
X011262Y017852D01*
X011187Y017694D02*
X010242Y017694D01*
X010248Y017535D02*
X011183Y017535D01*
X011241Y017377D02*
X010188Y017377D01*
X009967Y017218D02*
X011431Y017218D01*
X011769Y017218D02*
X014600Y017218D01*
X014600Y017060D02*
X009748Y017060D01*
X009732Y017218D02*
X009733Y017218D01*
X009698Y016901D02*
X014600Y016901D01*
X014600Y016743D02*
X009526Y016743D01*
X010087Y016426D02*
X010613Y016426D01*
X010489Y016267D02*
X010211Y016267D01*
X010248Y016109D02*
X010452Y016109D01*
X011959Y017377D02*
X014600Y017377D01*
X014600Y017535D02*
X012017Y017535D01*
X012013Y017694D02*
X014600Y017694D01*
X014600Y017852D02*
X011938Y017852D01*
X014160Y016267D02*
X014600Y016267D01*
X014600Y016109D02*
X014300Y016109D01*
X014364Y015950D02*
X014600Y015950D01*
X014600Y015792D02*
X014364Y015792D01*
X014317Y015633D02*
X014600Y015633D01*
X014600Y015475D02*
X014202Y015475D01*
X014299Y018328D02*
X014600Y018328D01*
X014600Y018486D02*
X014556Y018486D01*
X010206Y012939D02*
X009244Y012939D01*
X009248Y012780D02*
X010202Y012780D01*
X010266Y012622D02*
X009641Y012622D01*
X009790Y013097D02*
X009166Y013097D01*
X008966Y012463D02*
X008955Y012463D01*
X008952Y012305D02*
X008766Y012305D01*
X008715Y012146D02*
X009004Y012146D01*
X009186Y011988D02*
X008559Y011988D01*
X009120Y011671D02*
X009330Y011671D01*
X009323Y011037D02*
X009127Y011037D01*
X009180Y009610D02*
X009270Y009610D01*
X009237Y009135D02*
X009213Y009135D01*
X009038Y008976D02*
X009412Y008976D01*
X008662Y008976D02*
X008288Y008976D01*
X008463Y009135D02*
X008487Y009135D01*
X008520Y009610D02*
X008430Y009610D01*
X007912Y008976D02*
X007288Y008976D01*
X007336Y008996D02*
X007183Y008933D01*
X007017Y008933D01*
X006864Y008996D01*
X006746Y009114D01*
X006683Y009267D01*
X006683Y009433D01*
X006746Y009586D01*
X006864Y009704D01*
X007017Y009767D01*
X007183Y009767D01*
X007336Y009704D01*
X007454Y009586D01*
X007517Y009433D01*
X007517Y009267D01*
X007454Y009114D01*
X007336Y008996D01*
X007463Y009135D02*
X007737Y009135D01*
X007683Y009293D02*
X007517Y009293D01*
X007510Y009452D02*
X007690Y009452D01*
X007770Y009610D02*
X007430Y009610D01*
X006912Y008976D02*
X002783Y008976D01*
X002883Y009293D02*
X006683Y009293D01*
X006690Y009452D02*
X002990Y009452D01*
X003017Y009610D02*
X006770Y009610D01*
X006737Y009135D02*
X001864Y009135D01*
X001864Y009202D02*
X001786Y009391D01*
X001641Y009536D01*
X001452Y009614D01*
X001248Y009614D01*
X001059Y009536D01*
X000914Y009391D01*
X000836Y009202D01*
X000836Y008998D01*
X000914Y008809D01*
X001059Y008664D01*
X001248Y008586D01*
X001452Y008586D01*
X001641Y008664D01*
X001786Y008809D01*
X001864Y008998D01*
X001864Y009202D01*
X001827Y009293D02*
X002317Y009293D01*
X002210Y009452D02*
X001726Y009452D01*
X001463Y009610D02*
X002183Y009610D01*
X002218Y009769D02*
X000600Y009769D01*
X000600Y009927D02*
X002337Y009927D01*
X002417Y008976D02*
X001855Y008976D01*
X001790Y008818D02*
X002238Y008818D01*
X002183Y008659D02*
X001629Y008659D01*
X001071Y008659D02*
X000600Y008659D01*
X000600Y008501D02*
X002189Y008501D01*
X001237Y009610D02*
X000600Y009610D01*
X000600Y009452D02*
X000974Y009452D01*
X000873Y009293D02*
X000600Y009293D01*
X000600Y009135D02*
X000836Y009135D01*
X000845Y008976D02*
X000600Y008976D01*
X000600Y008818D02*
X000910Y008818D01*
X001003Y010720D02*
X000600Y010720D01*
X000600Y010878D02*
X000885Y010878D01*
X000836Y011037D02*
X000600Y011037D01*
X000600Y011195D02*
X000836Y011195D01*
X000898Y011354D02*
X000600Y011354D01*
X000600Y011512D02*
X001035Y011512D01*
X001763Y013414D02*
X002225Y013414D01*
X002183Y013573D02*
X001553Y013573D01*
X001074Y015158D02*
X000600Y015158D01*
X000600Y015316D02*
X000911Y015316D01*
X000845Y015475D02*
X000600Y015475D01*
X000600Y015633D02*
X000836Y015633D01*
X000873Y015792D02*
X000600Y015792D01*
X000600Y015950D02*
X000973Y015950D01*
X000901Y018328D02*
X000600Y018328D01*
X000600Y018486D02*
X000644Y018486D01*
X001799Y018328D02*
X002242Y018328D01*
X002056Y018486D02*
X002441Y018486D01*
X002759Y018486D02*
X003454Y018486D01*
X003433Y018328D02*
X002958Y018328D01*
X003017Y018169D02*
X003473Y018169D01*
X003599Y018011D02*
X003015Y018011D01*
X007450Y012622D02*
X008031Y012622D01*
X007604Y008659D02*
X008596Y008659D01*
X008482Y008501D02*
X007718Y008501D01*
X007748Y008342D02*
X008452Y008342D01*
X008121Y008184D02*
X007712Y008184D01*
X007588Y008025D02*
X007992Y008025D01*
X007952Y007867D02*
X007248Y007867D01*
X007850Y006440D02*
X009350Y006440D01*
X009223Y006282D02*
X007977Y006282D01*
X008017Y006123D02*
X009183Y006123D01*
X009204Y005965D02*
X007996Y005965D01*
X007896Y005806D02*
X009304Y005806D01*
X009307Y005648D02*
X007893Y005648D01*
X007994Y005489D02*
X009206Y005489D01*
X009183Y005331D02*
X008017Y005331D01*
X007978Y005172D02*
X009222Y005172D01*
X009346Y005014D02*
X007854Y005014D01*
X008106Y004697D02*
X006594Y004697D01*
X006724Y004538D02*
X007976Y004538D01*
X007933Y004380D02*
X006767Y004380D01*
X006748Y004221D02*
X007952Y004221D01*
X008047Y004063D02*
X006653Y004063D01*
X006106Y004697D02*
X004612Y004697D01*
X004621Y004725D02*
X004634Y004808D01*
X004634Y004812D01*
X004138Y004812D01*
X004138Y004316D01*
X004142Y004316D01*
X004225Y004329D01*
X004305Y004355D01*
X004380Y004393D01*
X004448Y004442D01*
X004508Y004502D01*
X004557Y004570D01*
X004595Y004645D01*
X004621Y004725D01*
X004534Y004538D02*
X005976Y004538D01*
X005933Y004380D02*
X004354Y004380D01*
X004138Y004380D02*
X004062Y004380D01*
X004062Y004538D02*
X004138Y004538D01*
X004138Y004697D02*
X004062Y004697D01*
X004138Y004855D02*
X010782Y004855D01*
X010763Y004875D02*
X010875Y004763D01*
X011021Y004702D01*
X011179Y004702D01*
X011325Y004763D01*
X011437Y004875D01*
X011498Y005021D01*
X011498Y005179D01*
X011481Y005219D01*
X011521Y005202D01*
X011679Y005202D01*
X011825Y005263D01*
X011937Y005375D01*
X011998Y005521D01*
X011998Y005679D01*
X011937Y005825D01*
X011825Y005937D01*
X011679Y005998D01*
X011521Y005998D01*
X011375Y005937D01*
X011263Y005825D01*
X011202Y005679D01*
X011202Y005521D01*
X011219Y005481D01*
X011179Y005498D01*
X011021Y005498D01*
X010981Y005481D01*
X010998Y005521D01*
X010998Y005679D01*
X010937Y005825D01*
X010825Y005937D01*
X010679Y005998D01*
X010521Y005998D01*
X010375Y005937D01*
X010263Y005825D01*
X010202Y005679D01*
X010202Y005521D01*
X010263Y005375D01*
X010375Y005263D01*
X010521Y005202D01*
X010679Y005202D01*
X010719Y005219D01*
X010702Y005179D01*
X010702Y005021D01*
X010763Y004875D01*
X010705Y005014D02*
X009854Y005014D01*
X009978Y005172D02*
X010702Y005172D01*
X010985Y005489D02*
X011000Y005489D01*
X010998Y005648D02*
X011202Y005648D01*
X011200Y005489D02*
X011215Y005489D01*
X011255Y005806D02*
X010945Y005806D01*
X010759Y005965D02*
X011441Y005965D01*
X011759Y005965D02*
X014600Y005965D01*
X014600Y006123D02*
X010017Y006123D01*
X009996Y005965D02*
X010441Y005965D01*
X010255Y005806D02*
X009896Y005806D01*
X009893Y005648D02*
X010202Y005648D01*
X010215Y005489D02*
X009994Y005489D01*
X010017Y005331D02*
X010307Y005331D01*
X010084Y004697D02*
X013357Y004697D01*
X013336Y004748D02*
X013414Y004559D01*
X013559Y004414D01*
X013748Y004336D01*
X013952Y004336D01*
X014141Y004414D01*
X014286Y004559D01*
X014364Y004748D01*
X014364Y004952D01*
X014286Y005141D01*
X014141Y005286D01*
X013952Y005364D01*
X013748Y005364D01*
X013559Y005286D01*
X013414Y005141D01*
X013336Y004952D01*
X013336Y004748D01*
X013336Y004855D02*
X011418Y004855D01*
X011495Y005014D02*
X013361Y005014D01*
X013445Y005172D02*
X011498Y005172D01*
X011893Y005331D02*
X013666Y005331D01*
X014034Y005331D02*
X014600Y005331D01*
X014600Y005489D02*
X011985Y005489D01*
X011998Y005648D02*
X014600Y005648D01*
X014600Y005806D02*
X011945Y005806D01*
X010693Y004063D02*
X014600Y004063D01*
X014600Y004221D02*
X010494Y004221D01*
X010268Y004380D02*
X013642Y004380D01*
X013435Y004538D02*
X010223Y004538D01*
X010748Y003904D02*
X014600Y003904D01*
X014600Y003746D02*
X010737Y003746D01*
X010650Y003587D02*
X014600Y003587D01*
X014600Y003429D02*
X010248Y003429D01*
X010247Y003270D02*
X014600Y003270D01*
X014600Y003112D02*
X010174Y003112D01*
X009963Y003746D02*
X009935Y003746D01*
X009765Y003746D02*
X008986Y003746D01*
X009203Y003587D02*
X009524Y003587D01*
X009452Y003429D02*
X009267Y003429D01*
X009267Y003270D02*
X009453Y003270D01*
X009526Y003112D02*
X009202Y003112D01*
X009154Y002636D02*
X014600Y002636D01*
X014600Y002478D02*
X009249Y002478D01*
X009267Y002319D02*
X013309Y002319D01*
X013091Y002161D02*
X009223Y002161D01*
X009092Y002002D02*
X012945Y002002D01*
X014391Y002319D02*
X014600Y002319D01*
X014600Y004380D02*
X014058Y004380D01*
X014265Y004538D02*
X014600Y004538D01*
X014600Y004697D02*
X014343Y004697D01*
X014364Y004855D02*
X014600Y004855D01*
X014600Y005014D02*
X014339Y005014D01*
X014255Y005172D02*
X014600Y005172D01*
X013500Y009610D02*
X012950Y009610D01*
X013017Y009769D02*
X013433Y009769D01*
X013433Y009927D02*
X013017Y009927D01*
X012954Y010086D02*
X013496Y010086D01*
X012348Y011512D02*
X012102Y011512D01*
X012204Y010086D02*
X012246Y010086D01*
X012250Y009610D02*
X012200Y009610D01*
X008497Y003587D02*
X007203Y003587D01*
X007267Y003429D02*
X008433Y003429D01*
X008433Y003270D02*
X007267Y003270D01*
X007202Y003112D02*
X008498Y003112D01*
X008546Y002636D02*
X007154Y002636D01*
X007249Y002478D02*
X008451Y002478D01*
X008433Y002319D02*
X007267Y002319D01*
X007223Y002161D02*
X008477Y002161D01*
X008608Y002002D02*
X007092Y002002D01*
X006608Y002002D02*
X006092Y002002D01*
X006223Y002161D02*
X006477Y002161D01*
X006433Y002319D02*
X006267Y002319D01*
X006249Y002478D02*
X006451Y002478D01*
X006546Y002636D02*
X006154Y002636D01*
X005526Y003112D02*
X005193Y003112D01*
X005260Y003270D02*
X005453Y003270D01*
X005452Y003429D02*
X005261Y003429D01*
X004952Y003904D02*
X002886Y003904D01*
X002424Y004221D02*
X000600Y004221D01*
X000600Y004063D02*
X005007Y004063D01*
X004609Y005014D02*
X006352Y005014D01*
X006222Y005172D02*
X004527Y005172D01*
X004720Y002953D02*
X002837Y002953D01*
X002340Y003270D02*
X001836Y003270D01*
X001749Y003429D02*
X002219Y003429D01*
X002183Y003587D02*
X001518Y003587D01*
X001182Y003587D02*
X000600Y003587D01*
X000600Y003429D02*
X000951Y003429D01*
X000864Y003270D02*
X000600Y003270D01*
X000600Y003112D02*
X000836Y003112D01*
X000854Y002953D02*
X000600Y002953D01*
X000600Y002795D02*
X000928Y002795D01*
X000600Y003746D02*
X002208Y003746D01*
X002314Y003904D02*
X000600Y003904D01*
X000600Y004380D02*
X002239Y004380D01*
X002183Y004538D02*
X000600Y004538D01*
X000600Y004697D02*
X001026Y004697D01*
X000895Y004855D02*
X000600Y004855D01*
X000600Y005014D02*
X000836Y005014D01*
X000836Y005172D02*
X000600Y005172D01*
X000600Y005331D02*
X000889Y005331D01*
X001012Y005489D02*
X000600Y005489D01*
X001891Y002319D02*
X002291Y002319D01*
M02*
