G75*
G70*
%OFA0B0*%
%FSLAX24Y24*%
%IPPOS*%
%LPD*%
%AMOC8*
5,1,8,0,0,1.08239X$1,22.5*
%
%ADD10R,0.0650X0.0650*%
%ADD11C,0.0650*%
%ADD12R,0.0709X0.0709*%
%ADD13C,0.0400*%
%ADD14C,0.0160*%
%ADD15C,0.0320*%
D10*
X007625Y009375D03*
X016625Y005125D03*
D11*
X015625Y005125D03*
X014625Y005125D03*
X013625Y005125D03*
X012625Y005125D03*
X011625Y005125D03*
X010625Y005125D03*
X009625Y005125D03*
X008625Y005125D03*
X007625Y005125D03*
X007625Y004125D03*
X008625Y004125D03*
X009625Y004125D03*
X010625Y004125D03*
X011625Y004125D03*
X012625Y004125D03*
X013625Y004125D03*
X014625Y004125D03*
X015625Y004125D03*
X016625Y004125D03*
X016625Y009375D03*
X015625Y009375D03*
X014625Y009375D03*
X013625Y009375D03*
X012625Y009375D03*
X011625Y009375D03*
X010625Y009375D03*
X009625Y009375D03*
X008625Y009375D03*
X008625Y010375D03*
X007625Y010375D03*
X009625Y010375D03*
X010625Y010375D03*
X011625Y010375D03*
X012625Y010375D03*
X013625Y010375D03*
X014625Y010375D03*
X015625Y010375D03*
X016625Y010375D03*
D12*
X006125Y007625D03*
X006125Y006625D03*
D13*
X007625Y006375D03*
X008125Y006625D03*
X008625Y006625D03*
X009125Y006875D03*
X008375Y007125D03*
X009875Y007875D03*
X010375Y007875D03*
X010875Y007875D03*
X009375Y008125D03*
X008875Y008125D03*
X012875Y007875D03*
X013375Y007875D03*
X013875Y007875D03*
X014375Y008125D03*
X014875Y008125D03*
X015375Y007125D03*
X015875Y007125D03*
X016375Y007125D03*
X016875Y007125D03*
X017375Y007125D03*
D14*
X017375Y006125D01*
X017125Y005875D01*
X007875Y005875D01*
X007625Y006125D01*
X007625Y006375D01*
X008125Y006375D02*
X008125Y006625D01*
X008125Y006375D02*
X008375Y006125D01*
X016625Y006125D01*
X016875Y006375D01*
X016875Y007125D01*
X016375Y007125D02*
X016375Y006625D01*
X016125Y006375D01*
X008875Y006375D01*
X008625Y006625D01*
X009125Y006875D02*
X009375Y006625D01*
X015625Y006625D01*
X015875Y006875D01*
X015875Y007125D01*
X015375Y007125D02*
X015125Y006875D01*
X009875Y006875D01*
X009375Y007375D01*
X008625Y007375D01*
X008375Y007125D01*
X009875Y007625D02*
X009875Y007875D01*
X009875Y007625D02*
X010375Y007125D01*
X013875Y007125D01*
X014375Y007625D01*
X014375Y008125D01*
X013875Y008125D02*
X013875Y007875D01*
X013875Y008125D02*
X013625Y008375D01*
X009625Y008375D01*
X009375Y008125D01*
X008875Y008125D02*
X008875Y008375D01*
X009125Y008625D01*
X014625Y008625D01*
X014875Y008375D01*
X014875Y008125D01*
X013375Y007875D02*
X013375Y007625D01*
X013125Y007375D01*
X010625Y007375D01*
X010375Y007625D01*
X010375Y007875D01*
X010875Y007875D02*
X012875Y007875D01*
X012625Y009375D02*
X011625Y010375D01*
X011625Y011125D01*
X008125Y011125D02*
X008125Y009875D01*
X007625Y009375D01*
X011625Y005125D02*
X012625Y004125D01*
X012625Y003375D01*
D15*
X007625Y004125D02*
X006125Y005625D01*
X006125Y006625D01*
X006125Y007625D02*
X006125Y008875D01*
X006625Y009375D01*
X006625Y011125D01*
X008125Y011125D01*
X011625Y011125D01*
X016125Y011125D01*
X016625Y010625D01*
X016625Y010375D01*
X016625Y005125D02*
X017125Y005125D01*
X017625Y004625D01*
X017625Y003375D01*
X012625Y003375D01*
X007625Y003375D01*
X007625Y004125D01*
M02*
