G75*
G70*
%OFA0B0*%
%FSLAX24Y24*%
%IPPOS*%
%LPD*%
%AMOC8*
5,1,8,0,0,1.08239X$1,22.5*
%
%ADD10C,0.0000*%
D10*
X000625Y002625D02*
X000625Y011875D01*
X023625Y011875D01*
X023625Y002625D01*
X000625Y002625D01*
X001245Y003875D02*
X001247Y003925D01*
X001253Y003975D01*
X001263Y004024D01*
X001277Y004072D01*
X001294Y004119D01*
X001315Y004164D01*
X001340Y004208D01*
X001368Y004249D01*
X001400Y004288D01*
X001434Y004325D01*
X001471Y004359D01*
X001511Y004389D01*
X001553Y004416D01*
X001597Y004440D01*
X001643Y004461D01*
X001690Y004477D01*
X001738Y004490D01*
X001788Y004499D01*
X001837Y004504D01*
X001888Y004505D01*
X001938Y004502D01*
X001987Y004495D01*
X002036Y004484D01*
X002084Y004469D01*
X002130Y004451D01*
X002175Y004429D01*
X002218Y004403D01*
X002259Y004374D01*
X002298Y004342D01*
X002334Y004307D01*
X002366Y004269D01*
X002396Y004229D01*
X002423Y004186D01*
X002446Y004142D01*
X002465Y004096D01*
X002481Y004048D01*
X002493Y003999D01*
X002501Y003950D01*
X002505Y003900D01*
X002505Y003850D01*
X002501Y003800D01*
X002493Y003751D01*
X002481Y003702D01*
X002465Y003654D01*
X002446Y003608D01*
X002423Y003564D01*
X002396Y003521D01*
X002366Y003481D01*
X002334Y003443D01*
X002298Y003408D01*
X002259Y003376D01*
X002218Y003347D01*
X002175Y003321D01*
X002130Y003299D01*
X002084Y003281D01*
X002036Y003266D01*
X001987Y003255D01*
X001938Y003248D01*
X001888Y003245D01*
X001837Y003246D01*
X001788Y003251D01*
X001738Y003260D01*
X001690Y003273D01*
X001643Y003289D01*
X001597Y003310D01*
X001553Y003334D01*
X001511Y003361D01*
X001471Y003391D01*
X001434Y003425D01*
X001400Y003462D01*
X001368Y003501D01*
X001340Y003542D01*
X001315Y003586D01*
X001294Y003631D01*
X001277Y003678D01*
X001263Y003726D01*
X001253Y003775D01*
X001247Y003825D01*
X001245Y003875D01*
X004755Y004415D02*
X004757Y004463D01*
X004763Y004510D01*
X004773Y004557D01*
X004786Y004603D01*
X004804Y004648D01*
X004825Y004691D01*
X004849Y004732D01*
X004877Y004771D01*
X004908Y004808D01*
X004942Y004842D01*
X004979Y004873D01*
X005018Y004901D01*
X005059Y004925D01*
X005102Y004946D01*
X005147Y004964D01*
X005193Y004977D01*
X005240Y004987D01*
X005287Y004993D01*
X005335Y004995D01*
X005383Y004993D01*
X005430Y004987D01*
X005477Y004977D01*
X005523Y004964D01*
X005568Y004946D01*
X005611Y004925D01*
X005652Y004901D01*
X005691Y004873D01*
X005728Y004842D01*
X005762Y004808D01*
X005793Y004771D01*
X005821Y004732D01*
X005845Y004691D01*
X005866Y004648D01*
X005884Y004603D01*
X005897Y004557D01*
X005907Y004510D01*
X005913Y004463D01*
X005915Y004415D01*
X005913Y004367D01*
X005907Y004320D01*
X005897Y004273D01*
X005884Y004227D01*
X005866Y004182D01*
X005845Y004139D01*
X005821Y004098D01*
X005793Y004059D01*
X005762Y004022D01*
X005728Y003988D01*
X005691Y003957D01*
X005652Y003929D01*
X005611Y003905D01*
X005568Y003884D01*
X005523Y003866D01*
X005477Y003853D01*
X005430Y003843D01*
X005383Y003837D01*
X005335Y003835D01*
X005287Y003837D01*
X005240Y003843D01*
X005193Y003853D01*
X005147Y003866D01*
X005102Y003884D01*
X005059Y003905D01*
X005018Y003929D01*
X004979Y003957D01*
X004942Y003988D01*
X004908Y004022D01*
X004877Y004059D01*
X004849Y004098D01*
X004825Y004139D01*
X004804Y004182D01*
X004786Y004227D01*
X004773Y004273D01*
X004763Y004320D01*
X004757Y004367D01*
X004755Y004415D01*
X004755Y010085D02*
X004757Y010133D01*
X004763Y010180D01*
X004773Y010227D01*
X004786Y010273D01*
X004804Y010318D01*
X004825Y010361D01*
X004849Y010402D01*
X004877Y010441D01*
X004908Y010478D01*
X004942Y010512D01*
X004979Y010543D01*
X005018Y010571D01*
X005059Y010595D01*
X005102Y010616D01*
X005147Y010634D01*
X005193Y010647D01*
X005240Y010657D01*
X005287Y010663D01*
X005335Y010665D01*
X005383Y010663D01*
X005430Y010657D01*
X005477Y010647D01*
X005523Y010634D01*
X005568Y010616D01*
X005611Y010595D01*
X005652Y010571D01*
X005691Y010543D01*
X005728Y010512D01*
X005762Y010478D01*
X005793Y010441D01*
X005821Y010402D01*
X005845Y010361D01*
X005866Y010318D01*
X005884Y010273D01*
X005897Y010227D01*
X005907Y010180D01*
X005913Y010133D01*
X005915Y010085D01*
X005913Y010037D01*
X005907Y009990D01*
X005897Y009943D01*
X005884Y009897D01*
X005866Y009852D01*
X005845Y009809D01*
X005821Y009768D01*
X005793Y009729D01*
X005762Y009692D01*
X005728Y009658D01*
X005691Y009627D01*
X005652Y009599D01*
X005611Y009575D01*
X005568Y009554D01*
X005523Y009536D01*
X005477Y009523D01*
X005430Y009513D01*
X005383Y009507D01*
X005335Y009505D01*
X005287Y009507D01*
X005240Y009513D01*
X005193Y009523D01*
X005147Y009536D01*
X005102Y009554D01*
X005059Y009575D01*
X005018Y009599D01*
X004979Y009627D01*
X004942Y009658D01*
X004908Y009692D01*
X004877Y009729D01*
X004849Y009768D01*
X004825Y009809D01*
X004804Y009852D01*
X004786Y009897D01*
X004773Y009943D01*
X004763Y009990D01*
X004757Y010037D01*
X004755Y010085D01*
X001245Y010625D02*
X001247Y010675D01*
X001253Y010725D01*
X001263Y010774D01*
X001277Y010822D01*
X001294Y010869D01*
X001315Y010914D01*
X001340Y010958D01*
X001368Y010999D01*
X001400Y011038D01*
X001434Y011075D01*
X001471Y011109D01*
X001511Y011139D01*
X001553Y011166D01*
X001597Y011190D01*
X001643Y011211D01*
X001690Y011227D01*
X001738Y011240D01*
X001788Y011249D01*
X001837Y011254D01*
X001888Y011255D01*
X001938Y011252D01*
X001987Y011245D01*
X002036Y011234D01*
X002084Y011219D01*
X002130Y011201D01*
X002175Y011179D01*
X002218Y011153D01*
X002259Y011124D01*
X002298Y011092D01*
X002334Y011057D01*
X002366Y011019D01*
X002396Y010979D01*
X002423Y010936D01*
X002446Y010892D01*
X002465Y010846D01*
X002481Y010798D01*
X002493Y010749D01*
X002501Y010700D01*
X002505Y010650D01*
X002505Y010600D01*
X002501Y010550D01*
X002493Y010501D01*
X002481Y010452D01*
X002465Y010404D01*
X002446Y010358D01*
X002423Y010314D01*
X002396Y010271D01*
X002366Y010231D01*
X002334Y010193D01*
X002298Y010158D01*
X002259Y010126D01*
X002218Y010097D01*
X002175Y010071D01*
X002130Y010049D01*
X002084Y010031D01*
X002036Y010016D01*
X001987Y010005D01*
X001938Y009998D01*
X001888Y009995D01*
X001837Y009996D01*
X001788Y010001D01*
X001738Y010010D01*
X001690Y010023D01*
X001643Y010039D01*
X001597Y010060D01*
X001553Y010084D01*
X001511Y010111D01*
X001471Y010141D01*
X001434Y010175D01*
X001400Y010212D01*
X001368Y010251D01*
X001340Y010292D01*
X001315Y010336D01*
X001294Y010381D01*
X001277Y010428D01*
X001263Y010476D01*
X001253Y010525D01*
X001247Y010575D01*
X001245Y010625D01*
X018335Y010085D02*
X018337Y010133D01*
X018343Y010180D01*
X018353Y010227D01*
X018366Y010273D01*
X018384Y010318D01*
X018405Y010361D01*
X018429Y010402D01*
X018457Y010441D01*
X018488Y010478D01*
X018522Y010512D01*
X018559Y010543D01*
X018598Y010571D01*
X018639Y010595D01*
X018682Y010616D01*
X018727Y010634D01*
X018773Y010647D01*
X018820Y010657D01*
X018867Y010663D01*
X018915Y010665D01*
X018963Y010663D01*
X019010Y010657D01*
X019057Y010647D01*
X019103Y010634D01*
X019148Y010616D01*
X019191Y010595D01*
X019232Y010571D01*
X019271Y010543D01*
X019308Y010512D01*
X019342Y010478D01*
X019373Y010441D01*
X019401Y010402D01*
X019425Y010361D01*
X019446Y010318D01*
X019464Y010273D01*
X019477Y010227D01*
X019487Y010180D01*
X019493Y010133D01*
X019495Y010085D01*
X019493Y010037D01*
X019487Y009990D01*
X019477Y009943D01*
X019464Y009897D01*
X019446Y009852D01*
X019425Y009809D01*
X019401Y009768D01*
X019373Y009729D01*
X019342Y009692D01*
X019308Y009658D01*
X019271Y009627D01*
X019232Y009599D01*
X019191Y009575D01*
X019148Y009554D01*
X019103Y009536D01*
X019057Y009523D01*
X019010Y009513D01*
X018963Y009507D01*
X018915Y009505D01*
X018867Y009507D01*
X018820Y009513D01*
X018773Y009523D01*
X018727Y009536D01*
X018682Y009554D01*
X018639Y009575D01*
X018598Y009599D01*
X018559Y009627D01*
X018522Y009658D01*
X018488Y009692D01*
X018457Y009729D01*
X018429Y009768D01*
X018405Y009809D01*
X018384Y009852D01*
X018366Y009897D01*
X018353Y009943D01*
X018343Y009990D01*
X018337Y010037D01*
X018335Y010085D01*
X021745Y010625D02*
X021747Y010675D01*
X021753Y010725D01*
X021763Y010774D01*
X021777Y010822D01*
X021794Y010869D01*
X021815Y010914D01*
X021840Y010958D01*
X021868Y010999D01*
X021900Y011038D01*
X021934Y011075D01*
X021971Y011109D01*
X022011Y011139D01*
X022053Y011166D01*
X022097Y011190D01*
X022143Y011211D01*
X022190Y011227D01*
X022238Y011240D01*
X022288Y011249D01*
X022337Y011254D01*
X022388Y011255D01*
X022438Y011252D01*
X022487Y011245D01*
X022536Y011234D01*
X022584Y011219D01*
X022630Y011201D01*
X022675Y011179D01*
X022718Y011153D01*
X022759Y011124D01*
X022798Y011092D01*
X022834Y011057D01*
X022866Y011019D01*
X022896Y010979D01*
X022923Y010936D01*
X022946Y010892D01*
X022965Y010846D01*
X022981Y010798D01*
X022993Y010749D01*
X023001Y010700D01*
X023005Y010650D01*
X023005Y010600D01*
X023001Y010550D01*
X022993Y010501D01*
X022981Y010452D01*
X022965Y010404D01*
X022946Y010358D01*
X022923Y010314D01*
X022896Y010271D01*
X022866Y010231D01*
X022834Y010193D01*
X022798Y010158D01*
X022759Y010126D01*
X022718Y010097D01*
X022675Y010071D01*
X022630Y010049D01*
X022584Y010031D01*
X022536Y010016D01*
X022487Y010005D01*
X022438Y009998D01*
X022388Y009995D01*
X022337Y009996D01*
X022288Y010001D01*
X022238Y010010D01*
X022190Y010023D01*
X022143Y010039D01*
X022097Y010060D01*
X022053Y010084D01*
X022011Y010111D01*
X021971Y010141D01*
X021934Y010175D01*
X021900Y010212D01*
X021868Y010251D01*
X021840Y010292D01*
X021815Y010336D01*
X021794Y010381D01*
X021777Y010428D01*
X021763Y010476D01*
X021753Y010525D01*
X021747Y010575D01*
X021745Y010625D01*
X018335Y004415D02*
X018337Y004463D01*
X018343Y004510D01*
X018353Y004557D01*
X018366Y004603D01*
X018384Y004648D01*
X018405Y004691D01*
X018429Y004732D01*
X018457Y004771D01*
X018488Y004808D01*
X018522Y004842D01*
X018559Y004873D01*
X018598Y004901D01*
X018639Y004925D01*
X018682Y004946D01*
X018727Y004964D01*
X018773Y004977D01*
X018820Y004987D01*
X018867Y004993D01*
X018915Y004995D01*
X018963Y004993D01*
X019010Y004987D01*
X019057Y004977D01*
X019103Y004964D01*
X019148Y004946D01*
X019191Y004925D01*
X019232Y004901D01*
X019271Y004873D01*
X019308Y004842D01*
X019342Y004808D01*
X019373Y004771D01*
X019401Y004732D01*
X019425Y004691D01*
X019446Y004648D01*
X019464Y004603D01*
X019477Y004557D01*
X019487Y004510D01*
X019493Y004463D01*
X019495Y004415D01*
X019493Y004367D01*
X019487Y004320D01*
X019477Y004273D01*
X019464Y004227D01*
X019446Y004182D01*
X019425Y004139D01*
X019401Y004098D01*
X019373Y004059D01*
X019342Y004022D01*
X019308Y003988D01*
X019271Y003957D01*
X019232Y003929D01*
X019191Y003905D01*
X019148Y003884D01*
X019103Y003866D01*
X019057Y003853D01*
X019010Y003843D01*
X018963Y003837D01*
X018915Y003835D01*
X018867Y003837D01*
X018820Y003843D01*
X018773Y003853D01*
X018727Y003866D01*
X018682Y003884D01*
X018639Y003905D01*
X018598Y003929D01*
X018559Y003957D01*
X018522Y003988D01*
X018488Y004022D01*
X018457Y004059D01*
X018429Y004098D01*
X018405Y004139D01*
X018384Y004182D01*
X018366Y004227D01*
X018353Y004273D01*
X018343Y004320D01*
X018337Y004367D01*
X018335Y004415D01*
X021745Y003875D02*
X021747Y003925D01*
X021753Y003975D01*
X021763Y004024D01*
X021777Y004072D01*
X021794Y004119D01*
X021815Y004164D01*
X021840Y004208D01*
X021868Y004249D01*
X021900Y004288D01*
X021934Y004325D01*
X021971Y004359D01*
X022011Y004389D01*
X022053Y004416D01*
X022097Y004440D01*
X022143Y004461D01*
X022190Y004477D01*
X022238Y004490D01*
X022288Y004499D01*
X022337Y004504D01*
X022388Y004505D01*
X022438Y004502D01*
X022487Y004495D01*
X022536Y004484D01*
X022584Y004469D01*
X022630Y004451D01*
X022675Y004429D01*
X022718Y004403D01*
X022759Y004374D01*
X022798Y004342D01*
X022834Y004307D01*
X022866Y004269D01*
X022896Y004229D01*
X022923Y004186D01*
X022946Y004142D01*
X022965Y004096D01*
X022981Y004048D01*
X022993Y003999D01*
X023001Y003950D01*
X023005Y003900D01*
X023005Y003850D01*
X023001Y003800D01*
X022993Y003751D01*
X022981Y003702D01*
X022965Y003654D01*
X022946Y003608D01*
X022923Y003564D01*
X022896Y003521D01*
X022866Y003481D01*
X022834Y003443D01*
X022798Y003408D01*
X022759Y003376D01*
X022718Y003347D01*
X022675Y003321D01*
X022630Y003299D01*
X022584Y003281D01*
X022536Y003266D01*
X022487Y003255D01*
X022438Y003248D01*
X022388Y003245D01*
X022337Y003246D01*
X022288Y003251D01*
X022238Y003260D01*
X022190Y003273D01*
X022143Y003289D01*
X022097Y003310D01*
X022053Y003334D01*
X022011Y003361D01*
X021971Y003391D01*
X021934Y003425D01*
X021900Y003462D01*
X021868Y003501D01*
X021840Y003542D01*
X021815Y003586D01*
X021794Y003631D01*
X021777Y003678D01*
X021763Y003726D01*
X021753Y003775D01*
X021747Y003825D01*
X021745Y003875D01*
M02*
