G75*
G70*
%OFA0B0*%
%FSLAX24Y24*%
%IPPOS*%
%LPD*%
%AMOC8*
5,1,8,0,0,1.08239X$1,22.5*
%
%ADD10C,0.1340*%
%ADD11R,0.0730X0.0730*%
%ADD12C,0.0730*%
%ADD13C,0.1240*%
%ADD14R,0.0789X0.0789*%
%ADD15C,0.0480*%
D10*
X001875Y003875D03*
X001875Y010625D03*
X022375Y010625D03*
X022375Y003875D03*
D11*
X016625Y005125D03*
X007625Y009375D03*
D12*
X008625Y009375D03*
X009625Y009375D03*
X010625Y009375D03*
X011625Y009375D03*
X012625Y009375D03*
X013625Y009375D03*
X014625Y009375D03*
X015625Y009375D03*
X016625Y009375D03*
X016625Y010375D03*
X015625Y010375D03*
X014625Y010375D03*
X013625Y010375D03*
X012625Y010375D03*
X011625Y010375D03*
X010625Y010375D03*
X009625Y010375D03*
X008625Y010375D03*
X007625Y010375D03*
X007625Y005125D03*
X008625Y005125D03*
X009625Y005125D03*
X010625Y005125D03*
X011625Y005125D03*
X012625Y005125D03*
X013625Y005125D03*
X014625Y005125D03*
X015625Y005125D03*
X015625Y004125D03*
X014625Y004125D03*
X013625Y004125D03*
X012625Y004125D03*
X011625Y004125D03*
X010625Y004125D03*
X009625Y004125D03*
X008625Y004125D03*
X007625Y004125D03*
X016625Y004125D03*
D13*
X018915Y004415D03*
X018915Y010085D03*
X005335Y010085D03*
X005335Y004415D03*
D14*
X006125Y006625D03*
X006125Y007625D03*
D15*
X008125Y006625D03*
X008625Y006625D03*
X009125Y006875D03*
X008375Y007125D03*
X007625Y006375D03*
X009875Y007875D03*
X010375Y007875D03*
X010875Y007875D03*
X009375Y008125D03*
X008875Y008125D03*
X012875Y007875D03*
X013375Y007875D03*
X013875Y007875D03*
X014375Y008125D03*
X014875Y008125D03*
X015375Y007125D03*
X015875Y007125D03*
X016375Y007125D03*
X016875Y007125D03*
X017375Y007125D03*
M02*
