G75*
G70*
%OFA0B0*%
%FSLAX24Y24*%
%IPPOS*%
%LPD*%
%AMOC8*
5,1,8,0,0,1.08239X$1,22.5*
%
%ADD10R,0.0650X0.0650*%
%ADD11C,0.0650*%
%ADD12R,0.0709X0.0709*%
%ADD13C,0.0160*%
%ADD14C,0.0400*%
D10*
X007625Y009375D03*
X016625Y005125D03*
D11*
X015625Y005125D03*
X014625Y005125D03*
X013625Y005125D03*
X012625Y005125D03*
X011625Y005125D03*
X010625Y005125D03*
X009625Y005125D03*
X008625Y005125D03*
X007625Y005125D03*
X007625Y004125D03*
X008625Y004125D03*
X009625Y004125D03*
X010625Y004125D03*
X011625Y004125D03*
X012625Y004125D03*
X013625Y004125D03*
X014625Y004125D03*
X015625Y004125D03*
X016625Y004125D03*
X016625Y009375D03*
X015625Y009375D03*
X014625Y009375D03*
X013625Y009375D03*
X012625Y009375D03*
X011625Y009375D03*
X010625Y009375D03*
X009625Y009375D03*
X008625Y009375D03*
X008625Y010375D03*
X007625Y010375D03*
X009625Y010375D03*
X010625Y010375D03*
X011625Y010375D03*
X012625Y010375D03*
X013625Y010375D03*
X014625Y010375D03*
X015625Y010375D03*
X016625Y010375D03*
D12*
X006125Y007625D03*
X006125Y006625D03*
D13*
X006875Y003625D02*
X007125Y003375D01*
X015375Y003375D01*
X015625Y003625D01*
X015625Y004125D01*
X015125Y003875D02*
X015125Y004625D01*
X015625Y005125D01*
X014625Y005125D02*
X014625Y005625D01*
X014875Y005875D01*
X014875Y008125D01*
X014375Y008125D02*
X014375Y008375D01*
X014125Y008625D01*
X014125Y009875D01*
X013625Y010375D01*
X013125Y009875D02*
X013125Y008625D01*
X012875Y008375D01*
X012875Y007875D01*
X013375Y007875D02*
X013375Y008375D01*
X013625Y008625D01*
X013625Y009375D01*
X013125Y009875D02*
X012625Y010375D01*
X011875Y009875D02*
X012125Y009625D01*
X012125Y008875D01*
X012375Y008625D01*
X012375Y007375D01*
X013625Y006125D01*
X013625Y005125D01*
X013125Y004625D02*
X013625Y004125D01*
X013125Y004625D02*
X012375Y004625D01*
X012125Y004875D01*
X012125Y006625D01*
X011375Y007375D01*
X011375Y008375D01*
X011125Y008625D01*
X010375Y008625D01*
X010125Y008875D01*
X010125Y009875D01*
X010625Y010375D01*
X011125Y009875D02*
X011875Y009875D01*
X011125Y009875D02*
X010625Y009375D01*
X011625Y009375D02*
X011625Y008875D01*
X011875Y008625D01*
X011875Y007375D01*
X012625Y006625D01*
X012625Y005125D01*
X014125Y004625D02*
X014625Y004125D01*
X014875Y003625D02*
X015125Y003875D01*
X014875Y003625D02*
X007375Y003625D01*
X007125Y003875D01*
X007125Y007875D01*
X008625Y009375D01*
X009125Y009125D02*
X008375Y008375D01*
X008375Y007875D01*
X008625Y007625D01*
X009125Y007625D01*
X009375Y007875D01*
X009375Y008125D01*
X008875Y008125D02*
X008875Y008375D01*
X009625Y009125D01*
X009625Y009375D01*
X009125Y009625D02*
X009125Y009125D01*
X009125Y009625D02*
X009625Y010375D01*
X008625Y010375D02*
X008125Y009875D01*
X007125Y009875D01*
X006875Y009625D01*
X006875Y003625D01*
X008125Y004625D02*
X008625Y004125D01*
X008125Y004625D02*
X008125Y006625D01*
X008625Y006625D02*
X008625Y005125D01*
X009125Y004625D02*
X009625Y004125D01*
X009125Y004625D02*
X009125Y006875D01*
X009625Y007125D02*
X009625Y005125D01*
X010125Y004625D02*
X010625Y004125D01*
X010125Y004625D02*
X010125Y007375D01*
X009875Y007625D01*
X009875Y007875D01*
X010375Y007875D02*
X010375Y007625D01*
X010625Y007375D01*
X010625Y005125D01*
X011125Y004625D02*
X011625Y004125D01*
X011125Y004625D02*
X011125Y007625D01*
X010875Y007875D01*
X009625Y007125D02*
X009375Y007375D01*
X008625Y007375D01*
X008375Y007125D01*
X007625Y006375D02*
X007625Y005125D01*
X013875Y007625D02*
X014125Y007375D01*
X014125Y004625D01*
X016625Y004125D02*
X017875Y005625D01*
X017875Y009125D01*
X017375Y009625D01*
X017375Y010875D01*
X017125Y011125D01*
X008375Y011125D01*
X007625Y010375D01*
X013875Y007875D02*
X013875Y007625D01*
X015375Y007125D02*
X015375Y008375D01*
X014625Y009125D01*
X014625Y009375D01*
X015125Y009125D02*
X015875Y008375D01*
X015875Y007125D01*
X016375Y007125D02*
X016375Y008375D01*
X015625Y009125D01*
X015625Y009375D01*
X015125Y009125D02*
X015125Y009875D01*
X014625Y010375D01*
X015625Y010375D02*
X016125Y009875D01*
X016125Y009125D01*
X016875Y008375D01*
X016875Y007125D01*
X017375Y007125D02*
X017375Y008625D01*
X016625Y009375D01*
D14*
X014875Y008125D03*
X014375Y008125D03*
X013875Y007875D03*
X013375Y007875D03*
X012875Y007875D03*
X010875Y007875D03*
X010375Y007875D03*
X009875Y007875D03*
X009375Y008125D03*
X008875Y008125D03*
X008375Y007125D03*
X009125Y006875D03*
X008625Y006625D03*
X008125Y006625D03*
X007625Y006375D03*
X015375Y007125D03*
X015875Y007125D03*
X016375Y007125D03*
X016875Y007125D03*
X017375Y007125D03*
M02*
