G04 Output by ViewMate Deluxe V11.0.9  PentaLogix LLC*
G04 Wed Mar 12 07:53:12 2014*
%FSLAX33Y33*%
%MOMM*%
%IPPOS*%
%ADD14C,0.8128*%
%ADD15C,0.4064*%
%ADD16C,0.127*%
%ADD17C,0.254*%
%ADD18C,0.1016*%
%ADD19C,0.127*%
%ADD107C,1.27*%
%ADD108C,0.1524*%
%ADD109C,0.2032*%

%LPD*%
X0Y0D2*D14*G1X28194Y54381D2*X31052Y57239D1*X31052Y70891*X37084Y66446D2*X34226Y63589D1*X34226Y24219*X28512Y18186*X28194Y36601D2*X32639Y40411D1*X32639Y68351*X35814Y71526*X31052Y70891D2*X35814Y75654D1*X28194Y72479D2*X30099Y74066D1*X30099Y75971*X35496Y79464*X32639Y94704D2*X32639Y122644D1*X28194Y126771*X28512Y144869D2*X34226Y139154D1*X34226Y98831*X37084Y96291*X32639Y94704D2*X35814Y91529D1*X27876Y90894D2*X30099Y88989D1*X30099Y86131*X35814Y83274*X35814Y87401D2*X31052Y90894D1*X31052Y105816*X27876Y108991*D15*X57404Y91211D2*X59309Y91211D1*X58356Y90259D2*X58356Y92481D1*X57086Y71526D2*X59309Y71526D1*D16*X14859Y13678D2*X14823Y13833D1*X14778Y13983*X14724Y14133*X14661Y14277*X14590Y14417*X14508Y14554*X14420Y14686*X14323Y14811*X14221Y14930*X14110Y15042*X13993Y15149*X13868Y15248*X13739Y15337*X13604Y15420*X13465Y15494*X13320Y15560*X13172Y15616*X13023Y15664*X12868Y15702*X12713Y15730*X12555Y15751*X12398Y15761*X12240Y15761*X12083Y15751*X11925Y15730*X11770Y15702*X11615Y15664*X11466Y15616*X11318Y15560*X11173Y15494*X11034Y15420*X10899Y15337*X10770Y15248*X10645Y15149*X10528Y15042*X10417Y14930*X10315Y14811*X10218Y14686*X10130Y14554*X10048Y14417*X9977Y14277*X9914Y14133*X9860Y13983*X9815Y13833*X9779Y13678*X9779Y12154*X14859Y12154*X15812Y12217D2*X15847Y12062D1*X15893Y11913*X15946Y11763*X16010Y11618*X16081Y11478*X16162Y11341*X16251Y11209*X16347Y11085*X16449Y10965*X16561Y10853*X16678Y10747*X16802Y10648*X16932Y10559*X17066Y10475*X17206Y10401*X17351Y10335*X17498Y10279*X17648Y10231*X17803Y10193*X17958Y10165*X18115Y10145*X18273Y10135*X18430Y10135*X18588Y10145*X18745Y10165*X18900Y10193*X19055Y10231*X19205Y10279*X19352Y10335*X19497Y10401*X19637Y10475*X19771Y10559*X19901Y10648*X20025Y10747*X20142Y10853*X20254Y10965*X20356Y11085*X20452Y11209*X20541Y11341*X20622Y11478*X20693Y11618*X20757Y11763*X20810Y11913*X20856Y12062*X20892Y12217*X20892Y13741*X15812Y13741*X14859Y12154D2*X14859Y13678D1*X15812Y13741D2*X15812Y12217D1*X16129Y17615D2*X16165Y17460D1*X16210Y17310*X16264Y17160*X16327Y17015*X16398Y16876*X16480Y16739*X16568Y16607*X16665Y16482*X16767Y16363*X16878Y16251*X16995Y16144*X17120Y16045*X17249Y15956*X17384Y15872*X17523Y15799*X17668Y15733*X17816Y15677*X17965Y15629*X18120Y15591*X18275Y15563*X18433Y15542*X18590Y15532*X18748Y15532*X18905Y15542*X19063Y15563*X19218Y15591*X19373Y15629*X19522Y15677*X19670Y15733*X19815Y15799*X19954Y15872*X20089Y15956*X20218Y16045*X20343Y16144*X20460Y16251*X20571Y16363*X20673Y16482*X20770Y16607*X20858Y16739*X20940Y16876*X21011Y17015*X21074Y17160*X21128Y17310*X21173Y17460*X21209Y17615*X20892Y23520D2*X20856Y23675D1*X20810Y23825*X20757Y23975*X20693Y24120*X20622Y24260*X20541Y24397*X20452Y24529*X20356Y24653*X20254Y24773*X20142Y24884*X20025Y24991*X19901Y25090*X19771Y25179*X19637Y25263*X19497Y25336*X19352Y25403*X19205Y25458*X19055Y25507*X18900Y25545*X18745Y25573*X18588Y25593*X18430Y25603*X18273Y25603*X18115Y25593*X17958Y25573*X17803Y25545*X17648Y25507*X17498Y25458*X17351Y25403*X17206Y25336*X17066Y25263*X16932Y25179*X16802Y25090*X16678Y24991*X16561Y24884*X16449Y24773*X16347Y24653*X16251Y24529*X16162Y24397*X16081Y24260*X16010Y24120*X15946Y23975*X15893Y23825*X15847Y23675*X15812Y23520*X14859Y21615D2*X14823Y21770D1*X14778Y21920*X14724Y22070*X14661Y22215*X14590Y22355*X14508Y22492*X14420Y22624*X14323Y22748*X14221Y22868*X14110Y22979*X13993Y23086*X13868Y23185*X13739Y23274*X13604Y23358*X13465Y23432*X13320Y23498*X13172Y23553*X13023Y23602*X12868Y23640*X12713Y23668*X12555Y23688*X12398Y23698*X12240Y23698*X12083Y23688*X11925Y23668*X11770Y23640*X11615Y23602*X11466Y23553*X11318Y23498*X11173Y23432*X11034Y23358*X10899Y23274*X10770Y23185*X10645Y23086*X10528Y22979*X10417Y22868*X10315Y22748*X10218Y22624*X10130Y22492*X10048Y22355*X9977Y22215*X9914Y22070*X9860Y21920*X9815Y21770*X9779Y21615*X9779Y20091*X14859Y20091*X14859Y21615*X16129Y17615D2*X16129Y19139D1*X21209Y19139*X21209Y17615*X20892Y23520D2*X20892Y21996D1*X15812Y21996*X15812Y23520*X14859Y32093D2*X14823Y32248D1*X14778Y32398*X14724Y32548*X14661Y32692*X14590Y32832*X14508Y32969*X14420Y33101*X14323Y33226*X14221Y33345*X14110Y33457*X13993Y33564*X13868Y33663*X13739Y33752*X13604Y33835*X13465Y33909*X13320Y33975*X13172Y34031*X13023Y34079*X12868Y34117*X12713Y34145*X12555Y34166*X12398Y34176*X12240Y34176*X12083Y34166*X11925Y34145*X11770Y34117*X11615Y34079*X11466Y34031*X11318Y33975*X11173Y33909*X11034Y33835*X10899Y33752*X10770Y33663*X10645Y33564*X10528Y33457*X10417Y33345*X10315Y33226*X10218Y33101*X10130Y32969*X10048Y32832*X9977Y32692*X9914Y32548*X9860Y32398*X9815Y32248*X9779Y32093*X9779Y30569*X14859Y30569*X15812Y30632D2*X15847Y30477D1*X15893Y30328*X15946Y30178*X16010Y30033*X16081Y29893*X16162Y29756*X16251Y29624*X16347Y29500*X16449Y29380*X16561Y29268*X16678Y29162*X16802Y29063*X16932Y28974*X17066Y28890*X17206Y28816*X17351Y28750*X17498Y28694*X17648Y28646*X17803Y28608*X17958Y28580*X18115Y28560*X18273Y28550*X18430Y28550*X18588Y28560*X18745Y28580*X18900Y28608*X19055Y28646*X19205Y28694*X19352Y28750*X19497Y28816*X19637Y28890*X19771Y28974*X19901Y29063*X20025Y29162*X20142Y29268*X20254Y29380*X20356Y29500*X20452Y29624*X20541Y29756*X20622Y29893*X20693Y30033*X20757Y30178*X20810Y30328*X20856Y30477*X20892Y30632*X20892Y32156*X15812Y32156*X14859Y30569D2*X14859Y32093D1*X15812Y32156D2*X15812Y30632D1*X16129Y36030D2*X16165Y35875D1*X16210Y35725*X16264Y35575*X16327Y35430*X16398Y35291*X16480Y35154*X16568Y35022*X16665Y34897*X16767Y34778*X16878Y34666*X16995Y34559*X17120Y34460*X17249Y34371*X17384Y34287*X17523Y34214*X17668Y34148*X17816Y34092*X17965Y34044*X18120Y34006*X18275Y33978*X18433Y33957*X18590Y33947*X18748Y33947*X18905Y33957*X19063Y33978*X19218Y34006*X19373Y34044*X19522Y34092*X19670Y34148*X19815Y34214*X19954Y34287*X20089Y34371*X20218Y34460*X20343Y34559*X20460Y34666*X20571Y34778*X20673Y34897*X20770Y35022*X20858Y35154*X20940Y35291*X21011Y35430*X21074Y35575*X21128Y35725*X21173Y35875*X21209Y36030*X20892Y41935D2*X20856Y42090D1*X20810Y42240*X20757Y42390*X20693Y42535*X20622Y42675*X20541Y42812*X20452Y42944*X20356Y43068*X20254Y43188*X20142Y43299*X20025Y43406*X19901Y43505*X19771Y43594*X19637Y43678*X19497Y43752*X19352Y43818*X19205Y43873*X19055Y43922*X18900Y43960*X18745Y43988*X18588Y44008*X18430Y44018*X18273Y44018*X18115Y44008*X17958Y43988*X17803Y43960*X17648Y43922*X17498Y43873*X17351Y43818*X17206Y43752*X17066Y43678*X16932Y43594*X16802Y43505*X16678Y43406*X16561Y43299*X16449Y43188*X16347Y43068*X16251Y42944*X16162Y42812*X16081Y42675*X16010Y42535*X15946Y42390*X15893Y42240*X15847Y42090*X15812Y41935*X14859Y40030D2*X14823Y40185D1*X14778Y40335*X14724Y40485*X14661Y40630*X14590Y40770*X14508Y40907*X14420Y41039*X14323Y41163*X14221Y41283*X14110Y41394*X13993Y41501*X13868Y41600*X13739Y41689*X13604Y41773*X13465Y41846*X13320Y41913*X13172Y41968*X13023Y42017*X12868Y42055*X12713Y42083*X12555Y42103*X12398Y42113*X12240Y42113*X12083Y42103*X11925Y42083*X11770Y42055*X11615Y42017*X11466Y41968*X11318Y41913*X11173Y41846*X11034Y41773*X10899Y41689*X10770Y41600*X10645Y41501*X10528Y41394*X10417Y41283*X10315Y41163*X10218Y41039*X10130Y40907*X10048Y40770*X9977Y40630*X9914Y40485*X9860Y40335*X9815Y40185*X9779Y40030*X9779Y38506*X14859Y38506*X14859Y40030*X16129Y36030D2*X16129Y37554D1*X21209Y37554*X21209Y36030*X20892Y41935D2*X20892Y40411D1*X15812Y40411*X15812Y41935*X16129Y108737D2*X16165Y108582D1*X16210Y108433*X16264Y108283*X16327Y108138*X16398Y107998*X16480Y107861*X16568Y107729*X16665Y107605*X16767Y107485*X16878Y107373*X16995Y107267*X17120Y107168*X17249Y107079*X17384Y106995*X17523Y106921*X17668Y106855*X17816Y106799*X17965Y106751*X18120Y106713*X18275Y106685*X18433Y106665*X18590Y106655*X18748Y106655*X18905Y106665*X19063Y106685*X19218Y106713*X19373Y106751*X19522Y106799*X19670Y106855*X19815Y106921*X19954Y106995*X20089Y107079*X20218Y107168*X20343Y107267*X20460Y107373*X20571Y107485*X20673Y107605*X20770Y107729*X20858Y107861*X20940Y107998*X21011Y108138*X21074Y108283*X21128Y108433*X21173Y108582*X21209Y108737*X21209Y114325D2*X21173Y114480D1*X21128Y114630*X21074Y114780*X21011Y114925*X20940Y115065*X20858Y115202*X20770Y115334*X20673Y115458*X20571Y115578*X20460Y115689*X20343Y115796*X20218Y115895*X20089Y115984*X19954Y116068*X19815Y116142*X19670Y116208*X19522Y116263*X19373Y116312*X19218Y116350*X19063Y116378*X18905Y116398*X18748Y116408*X18590Y116408*X18433Y116398*X18275Y116378*X18120Y116350*X17965Y116312*X17816Y116263*X17668Y116208*X17523Y116142*X17384Y116068*X17249Y115984*X17120Y115895*X16995Y115796*X16878Y115689*X16767Y115578*X16665Y115458*X16568Y115334*X16480Y115202*X16398Y115065*X16327Y114925*X16264Y114780*X16210Y114630*X16165Y114480*X16129Y114325*X16129Y144932D2*X16165Y144777D1*X16210Y144628*X16264Y144478*X16327Y144333*X16398Y144193*X16480Y144056*X16568Y143924*X16665Y143800*X16767Y143680*X16878Y143568*X16995Y143462*X17120Y143363*X17249Y143274*X17384Y143190*X17523Y143116*X17668Y143050*X17816Y142994*X17965Y142946*X18120Y142908*X18275Y142880*X18433Y142860*X18590Y142850*X18748Y142850*X18905Y142860*X19063Y142880*X19218Y142908*X19373Y142946*X19522Y142994*X19670Y143050*X19815Y143116*X19954Y143190*X20089Y143274*X20218Y143363*X20343Y143462*X20460Y143568*X20571Y143680*X20673Y143800*X20770Y143924*X20858Y144056*X20940Y144193*X21011Y144333*X21074Y144478*X21128Y144628*X21173Y144777*X21209Y144932*X20892Y150520D2*X20856Y150675D1*X20810Y150825*X20757Y150975*X20693Y151120*X20622Y151260*X20541Y151397*X20452Y151529*X20356Y151653*X20254Y151773*X20142Y151884*X20025Y151991*X19901Y152090*X19771Y152179*X19637Y152263*X19497Y152336*X19352Y152403*X19205Y152458*X19055Y152507*X18900Y152545*X18745Y152573*X18588Y152593*X18430Y152603*X18273Y152603*X18115Y152593*X17958Y152573*X17803Y152545*X17648Y152507*X17498Y152458*X17351Y152403*X17206Y152336*X17066Y152263*X16932Y152179*X16802Y152090*X16678Y151991*X16561Y151884*X16449Y151773*X16347Y151653*X16251Y151529*X16162Y151397*X16081Y151260*X16010Y151120*X15946Y150975*X15893Y150825*X15847Y150675*X15812Y150520*X14859Y148615D2*X14823Y148770D1*X14778Y148920*X14724Y149070*X14661Y149215*X14590Y149355*X14508Y149492*X14420Y149624*X14323Y149748*X14221Y149868*X14110Y149979*X13993Y150086*X13868Y150185*X13739Y150274*X13604Y150358*X13465Y150432*X13320Y150498*X13172Y150553*X13023Y150602*X12868Y150640*X12713Y150668*X12555Y150688*X12398Y150698*X12240Y150698*X12083Y150688*X11925Y150668*X11770Y150640*X11615Y150602*X11466Y150553*X11318Y150498*X11173Y150432*X11034Y150358*X10899Y150274*X10770Y150185*X10645Y150086*X10528Y149979*X10417Y149868*X10315Y149748*X10218Y149624*X10130Y149492*X10048Y149355*X9977Y149215*X9914Y149070*X9860Y148920*X9815Y148770*X9779Y148615*X9779Y140678D2*X9815Y140833D1*X9860Y140983*X9914Y141133*X9977Y141277*X10048Y141417*X10130Y141554*X10218Y141686*X10315Y141811*X10417Y141930*X10528Y142042*X10645Y142149*X10770Y142248*X10899Y142337*X11034Y142420*X11173Y142494*X11318Y142560*X11466Y142616*X11615Y142664*X11770Y142702*X11925Y142730*X12083Y142751*X12240Y142761*X12398Y142761*X12555Y142751*X12713Y142730*X12868Y142702*X13023Y142664*X13172Y142616*X13320Y142560*X13465Y142494*X13604Y142420*X13739Y142337*X13868Y142248*X13993Y142149*X14110Y142042*X14221Y141930*X14323Y141811*X14420Y141686*X14508Y141554*X14590Y141417*X14661Y141277*X14724Y141133*X14778Y140983*X14823Y140833*X14859Y140678*X15812Y139217D2*X15847Y139062D1*X15893Y138913*X15946Y138763*X16010Y138618*X16081Y138478*X16162Y138341*X16251Y138209*X16347Y138085*X16449Y137965*X16561Y137853*X16678Y137747*X16802Y137648*X16932Y137559*X17066Y137475*X17206Y137401*X17351Y137335*X17498Y137279*X17648Y137231*X17803Y137193*X17958Y137165*X18115Y137145*X18273Y137135*X18430Y137135*X18588Y137145*X18745Y137165*X18900Y137193*X19055Y137231*X19205Y137279*X19352Y137335*X19497Y137401*X19637Y137475*X19771Y137559*X19901Y137648*X20025Y137747*X20142Y137853*X20254Y137965*X20356Y138085*X20452Y138209*X20541Y138341*X20622Y138478*X20693Y138618*X20757Y138763*X20810Y138913*X20856Y139062*X20892Y139217*X20892Y140741*X15812Y140741*X16129Y144932D2*X16129Y146456D1*X21209Y146456*X21209Y144932*X20892Y150520D2*X20892Y148996D1*X15812Y148996*X15812Y150520*X14859Y148615D2*X14859Y147091D1*X9779Y147091*X9779Y148615*X9779Y140678D2*X9779Y139154D1*X14859Y139154*X15812Y140741D2*X15812Y139217D1*X14859Y139154D2*X14859Y140678D1*X16129Y126835D2*X16165Y126680D1*X16210Y126530*X16264Y126380*X16327Y126235*X16398Y126096*X16480Y125959*X16568Y125827*X16665Y125702*X16767Y125583*X16878Y125471*X16995Y125364*X17120Y125265*X17249Y125176*X17384Y125092*X17523Y125019*X17668Y124953*X17816Y124897*X17965Y124849*X18120Y124811*X18275Y124783*X18433Y124762*X18590Y124752*X18748Y124752*X18905Y124762*X19063Y124783*X19218Y124811*X19373Y124849*X19522Y124897*X19670Y124953*X19815Y125019*X19954Y125092*X20089Y125176*X20218Y125265*X20343Y125364*X20460Y125471*X20571Y125583*X20673Y125702*X20770Y125827*X20858Y125959*X20940Y126096*X21011Y126235*X21074Y126380*X21128Y126530*X21173Y126680*X21209Y126835*X20892Y132423D2*X20856Y132578D1*X20810Y132728*X20757Y132878*X20693Y133022*X20622Y133162*X20541Y133299*X20452Y133431*X20356Y133556*X20254Y133675*X20142Y133787*X20025Y133894*X19901Y133993*X19771Y134082*X19637Y134165*X19497Y134239*X19352Y134305*X19205Y134361*X19055Y134409*X18900Y134447*X18745Y134475*X18588Y134496*X18430Y134506*X18273Y134506*X18115Y134496*X17958Y134475*X17803Y134447*X17648Y134409*X17498Y134361*X17351Y134305*X17206Y134239*X17066Y134165*X16932Y134082*X16802Y133993*X16678Y133894*X16561Y133787*X16449Y133675*X16347Y133556*X16251Y133431*X16162Y133299*X16081Y133162*X16010Y133022*X15946Y132878*X15893Y132728*X15847Y132578*X15812Y132423*X14859Y130518D2*X14823Y130673D1*X14778Y130823*X14724Y130973*X14661Y131117*X14590Y131257*X14508Y131394*X14420Y131526*X14323Y131651*X14221Y131770*X14110Y131882*X13993Y131989*X13868Y132088*X13739Y132177*X13604Y132260*X13465Y132334*X13320Y132400*X13172Y132456*X13023Y132504*X12868Y132542*X12713Y132570*X12555Y132591*X12398Y132601*X12240Y132601*X12083Y132591*X11925Y132570*X11770Y132542*X11615Y132504*X11466Y132456*X11318Y132400*X11173Y132334*X11034Y132260*X10899Y132177*X10770Y132088*X10645Y131989*X10528Y131882*X10417Y131770*X10315Y131651*X10218Y131526*X10130Y131394*X10048Y131257*X9977Y131117*X9914Y130973*X9860Y130823*X9815Y130673*X9779Y130518*X9779Y122580D2*X9815Y122735D1*X9860Y122885*X9914Y123035*X9977Y123180*X10048Y123320*X10130Y123457*X10218Y123589*X10315Y123713*X10417Y123833*X10528Y123944*X10645Y124051*X10770Y124150*X10899Y124239*X11034Y124323*X11173Y124396*X11318Y124463*X11466Y124518*X11615Y124567*X11770Y124605*X11925Y124633*X12083Y124653*X12240Y124663*X12398Y124663*X12555Y124653*X12713Y124633*X12868Y124605*X13023Y124567*X13172Y124518*X13320Y124463*X13465Y124396*X13604Y124323*X13739Y124239*X13868Y124150*X13993Y124051*X14110Y123944*X14221Y123833*X14323Y123713*X14420Y123589*X14508Y123457*X14590Y123320*X14661Y123180*X14724Y123035*X14778Y122885*X14823Y122735*X14859Y122580*X15812Y121120D2*X15847Y120965D1*X15893Y120815*X15946Y120665*X16010Y120520*X16081Y120381*X16162Y120244*X16251Y120112*X16347Y119987*X16449Y119868*X16561Y119756*X16678Y119649*X16802Y119550*X16932Y119461*X17066Y119377*X17206Y119304*X17351Y119238*X17498Y119182*X17648Y119134*X17803Y119096*X17958Y119068*X18115Y119047*X18273Y119037*X18430Y119037*X18588Y119047*X18745Y119068*X18900Y119096*X19055Y119134*X19205Y119182*X19352Y119238*X19497Y119304*X19637Y119377*X19771Y119461*X19901Y119550*X20025Y119649*X20142Y119756*X20254Y119868*X20356Y119987*X20452Y120112*X20541Y120244*X20622Y120381*X20693Y120520*X20757Y120665*X20810Y120815*X20856Y120965*X20892Y121120*X20892Y122644*X15812Y122644*X16129Y126835D2*X16129Y128359D1*X21209Y128359*X21209Y126835*X20892Y132423D2*X20892Y130899D1*X15812Y130899*X15812Y132423*X14859Y130518D2*X14859Y128994D1*X9779Y128994*X9779Y130518*X9779Y122580D2*X9779Y121056D1*X14859Y121056*X15812Y122644D2*X15812Y121120D1*X14859Y121056D2*X14859Y122580D1*X14859Y112420D2*X14823Y112575D1*X14778Y112725*X14724Y112875*X14661Y113020*X14590Y113160*X14508Y113297*X14420Y113429*X14323Y113553*X14221Y113673*X14110Y113784*X13993Y113891*X13868Y113990*X13739Y114079*X13604Y114163*X13465Y114236*X13320Y114303*X13172Y114358*X13023Y114407*X12868Y114445*X12713Y114473*X12555Y114493*X12398Y114503*X12240Y114503*X12083Y114493*X11925Y114473*X11770Y114445*X11615Y114407*X11466Y114358*X11318Y114303*X11173Y114236*X11034Y114163*X10899Y114079*X10770Y113990*X10645Y113891*X10528Y113784*X10417Y113673*X10315Y113553*X10218Y113429*X10130Y113297*X10048Y113160*X9977Y113020*X9914Y112875*X9860Y112725*X9815Y112575*X9779Y112420*X9779Y104483D2*X9815Y104638D1*X9860Y104788*X9914Y104938*X9977Y105082*X10048Y105222*X10130Y105359*X10218Y105491*X10315Y105616*X10417Y105735*X10528Y105847*X10645Y105954*X10770Y106053*X10899Y106142*X11034Y106225*X11173Y106299*X11318Y106365*X11466Y106421*X11615Y106469*X11770Y106507*X11925Y106535*X12083Y106556*X12240Y106566*X12398Y106566*X12555Y106556*X12713Y106535*X12868Y106507*X13023Y106469*X13172Y106421*X13320Y106365*X13465Y106299*X13604Y106225*X13739Y106142*X13868Y106053*X13993Y105954*X14110Y105847*X14221Y105735*X14323Y105616*X14420Y105491*X14508Y105359*X14590Y105222*X14661Y105082*X14724Y104938*X14778Y104788*X14823Y104638*X14859Y104483*X15812Y103022D2*X15847Y102867D1*X15893Y102718*X15946Y102568*X16010Y102423*X16081Y102283*X16162Y102146*X16251Y102014*X16347Y101890*X16449Y101770*X16561Y101658*X16678Y101552*X16802Y101453*X16932Y101364*X17066Y101280*X17206Y101206*X17351Y101140*X17498Y101084*X17648Y101036*X17803Y100998*X17958Y100970*X18115Y100950*X18273Y100940*X18430Y100940*X18588Y100950*X18745Y100970*X18900Y100998*X19055Y101036*X19205Y101084*X19352Y101140*X19497Y101206*X19637Y101280*X19771Y101364*X19901Y101453*X20025Y101552*X20142Y101658*X20254Y101770*X20356Y101890*X20452Y102014*X20541Y102146*X20622Y102283*X20693Y102423*X20757Y102568*X20810Y102718*X20856Y102867*X20892Y103022*X20892Y104546*X15812Y104546*X16129Y108737D2*X16129Y110261D1*X21209Y110261*X21209Y108737*X21209Y114325D2*X21209Y112801D1*X16129Y112801*X16129Y114325*X14859Y112420D2*X14859Y110896D1*X9779Y110896*X9779Y112420*X9779Y104483D2*X9779Y102959D1*X14859Y102959*X15812Y104546D2*X15812Y103022D1*X14859Y102959D2*X14859Y104483D1*X16129Y90640D2*X16165Y90485D1*X16210Y90335*X16264Y90185*X16327Y90040*X16398Y89901*X16480Y89764*X16568Y89632*X16665Y89507*X16767Y89388*X16878Y89276*X16995Y89169*X17120Y89070*X17249Y88981*X17384Y88897*X17523Y88824*X17668Y88758*X17816Y88702*X17965Y88654*X18120Y88616*X18275Y88588*X18433Y88567*X18590Y88557*X18748Y88557*X18905Y88567*X19063Y88588*X19218Y88616*X19373Y88654*X19522Y88702*X19670Y88758*X19815Y88824*X19954Y88897*X20089Y88981*X20218Y89070*X20343Y89169*X20460Y89276*X20571Y89388*X20673Y89507*X20770Y89632*X20858Y89764*X20940Y89901*X21011Y90040*X21074Y90185*X21128Y90335*X21173Y90485*X21209Y90640*X20892Y96228D2*X20856Y96383D1*X20810Y96533*X20757Y96683*X20693Y96827*X20622Y96967*X20541Y97104*X20452Y97236*X20356Y97361*X20254Y97480*X20142Y97592*X20025Y97699*X19901Y97798*X19771Y97887*X19637Y97970*X19497Y98044*X19352Y98110*X19205Y98166*X19055Y98214*X18900Y98252*X18745Y98280*X18588Y98301*X18430Y98311*X18273Y98311*X18115Y98301*X17958Y98280*X17803Y98252*X17648Y98214*X17498Y98166*X17351Y98110*X17206Y98044*X17066Y97970*X16932Y97887*X16802Y97798*X16678Y97699*X16561Y97592*X16449Y97480*X16347Y97361*X16251Y97236*X16162Y97104*X16081Y96967*X16010Y96827*X15946Y96683*X15893Y96533*X15847Y96383*X15812Y96228*X14859Y94323D2*X14823Y94478D1*X14778Y94628*X14724Y94778*X14661Y94922*X14590Y95062*X14508Y95199*X14420Y95331*X14323Y95456*X14221Y95575*X14110Y95687*X13993Y95794*X13868Y95893*X13739Y95982*X13604Y96065*X13465Y96139*X13320Y96205*X13172Y96261*X13023Y96309*X12868Y96347*X12713Y96375*X12555Y96396*X12398Y96406*X12240Y96406*X12083Y96396*X11925Y96375*X11770Y96347*X11615Y96309*X11466Y96261*X11318Y96205*X11173Y96139*X11034Y96065*X10899Y95982*X10770Y95893*X10645Y95794*X10528Y95687*X10417Y95575*X10315Y95456*X10218Y95331*X10130Y95199*X10048Y95062*X9977Y94922*X9914Y94778*X9860Y94628*X9815Y94478*X9779Y94323*X9779Y86385D2*X9815Y86540D1*X9860Y86690*X9914Y86840*X9977Y86985*X10048Y87125*X10130Y87262*X10218Y87394*X10315Y87518*X10417Y87638*X10528Y87749*X10645Y87856*X10770Y87955*X10899Y88044*X11034Y88128*X11173Y88202*X11318Y88268*X11466Y88323*X11615Y88372*X11770Y88410*X11925Y88438*X12083Y88458*X12240Y88468*X12398Y88468*X12555Y88458*X12713Y88438*X12868Y88410*X13023Y88372*X13172Y88323*X13320Y88268*X13465Y88202*X13604Y88128*X13739Y88044*X13868Y87955*X13993Y87856*X14110Y87749*X14221Y87638*X14323Y87518*X14420Y87394*X14508Y87262*X14590Y87125*X14661Y86985*X14724Y86840*X14778Y86690*X14823Y86540*X14859Y86385*X14859Y84861*X16129Y84925D2*X16165Y84770D1*X16210Y84620*X16264Y84470*X16327Y84325*X16398Y84186*X16480Y84049*X16568Y83917*X16665Y83792*X16767Y83673*X16878Y83561*X16995Y83454*X17120Y83355*X17249Y83266*X17384Y83182*X17523Y83109*X17668Y83043*X17816Y82987*X17965Y82939*X18120Y82901*X18275Y82873*X18433Y82852*X18590Y82842*X18748Y82842*X18905Y82852*X19063Y82873*X19218Y82901*X19373Y82939*X19522Y82987*X19670Y83043*X19815Y83109*X19954Y83182*X20089Y83266*X20218Y83355*X20343Y83454*X20460Y83561*X20571Y83673*X20673Y83792*X20770Y83917*X20858Y84049*X20940Y84186*X21011Y84325*X21074Y84470*X21128Y84620*X21173Y84770*X21209Y84925*X21209Y86449*X16129Y86449*X16129Y84925*X16129Y90640D2*X16129Y92164D1*X21209Y92164*X21209Y90640*X20892Y96228D2*X20892Y94704D1*X15812Y94704*X15812Y96228*X14859Y94323D2*X14859Y92799D1*X9779Y92799*X9779Y94323*X9779Y86385D2*X9779Y84861D1*X14859Y84861*X14859Y68288D2*X14823Y68443D1*X14778Y68593*X14724Y68743*X14661Y68887*X14590Y69027*X14508Y69164*X14420Y69296*X14323Y69421*X14221Y69540*X14110Y69652*X13993Y69759*X13868Y69858*X13739Y69947*X13604Y70030*X13465Y70104*X13320Y70170*X13172Y70226*X13023Y70274*X12868Y70312*X12713Y70340*X12555Y70361*X12398Y70371*X12240Y70371*X12083Y70361*X11925Y70340*X11770Y70312*X11615Y70274*X11466Y70226*X11318Y70170*X11173Y70104*X11034Y70030*X10899Y69947*X10770Y69858*X10645Y69759*X10528Y69652*X10417Y69540*X10315Y69421*X10218Y69296*X10130Y69164*X10048Y69027*X9977Y68887*X9914Y68743*X9860Y68593*X9815Y68443*X9779Y68288*X9779Y66764*X14859Y66764*X20892Y60033D2*X20856Y60188D1*X20810Y60338*X20757Y60488*X20693Y60632*X20622Y60772*X20541Y60909*X20452Y61041*X20356Y61166*X20254Y61285*X20142Y61397*X20025Y61504*X19901Y61603*X19771Y61692*X19637Y61775*X19497Y61849*X19352Y61915*X19205Y61971*X19055Y62019*X18900Y62057*X18745Y62085*X18588Y62106*X18430Y62116*X18273Y62116*X18115Y62106*X17958Y62085*X17803Y62057*X17648Y62019*X17498Y61971*X17351Y61915*X17206Y61849*X17066Y61775*X16932Y61692*X16802Y61603*X16678Y61504*X16561Y61397*X16449Y61285*X16347Y61166*X16251Y61041*X16162Y60909*X16081Y60772*X16010Y60632*X15946Y60488*X15893Y60338*X15847Y60188*X15812Y60033*X16129Y54127D2*X16165Y53972D1*X16210Y53823*X16264Y53673*X16327Y53528*X16398Y53388*X16480Y53251*X16568Y53119*X16665Y52995*X16767Y52875*X16878Y52763*X16995Y52657*X17120Y52558*X17249Y52469*X17384Y52385*X17523Y52311*X17668Y52245*X17816Y52189*X17965Y52141*X18120Y52103*X18275Y52075*X18433Y52055*X18590Y52045*X18748Y52045*X18905Y52055*X19063Y52075*X19218Y52103*X19373Y52141*X19522Y52189*X19670Y52245*X19815Y52311*X19954Y52385*X20089Y52469*X20218Y52558*X20343Y52657*X20460Y52763*X20571Y52875*X20673Y52995*X20770Y53119*X20858Y53251*X20940Y53388*X21011Y53528*X21074Y53673*X21128Y53823*X21173Y53972*X21209Y54127*X20892Y48730D2*X20856Y48575D1*X20810Y48425*X20757Y48275*X20693Y48130*X20622Y47991*X20541Y47854*X20452Y47722*X20356Y47597*X20254Y47478*X20142Y47366*X20025Y47259*X19901Y47160*X19771Y47071*X19637Y46987*X19497Y46914*X19352Y46848*X19205Y46792*X19055Y46744*X18900Y46706*X18745Y46678*X18588Y46657*X18430Y46647*X18273Y46647*X18115Y46657*X17958Y46678*X17803Y46706*X17648Y46744*X17498Y46792*X17351Y46848*X17206Y46914*X17066Y46987*X16932Y47071*X16802Y47160*X16678Y47259*X16561Y47366*X16449Y47478*X16347Y47597*X16251Y47722*X16162Y47854*X16081Y47991*X16010Y48130*X15946Y48275*X15893Y48425*X15847Y48575*X15812Y48730*X14859Y50190D2*X14823Y50345D1*X14778Y50495*X14724Y50645*X14661Y50790*X14590Y50930*X14508Y51067*X14420Y51199*X14323Y51323*X14221Y51443*X14110Y51554*X13993Y51661*X13868Y51760*X13739Y51849*X13604Y51933*X13465Y52006*X13320Y52073*X13172Y52128*X13023Y52177*X12868Y52215*X12713Y52243*X12555Y52263*X12398Y52273*X12240Y52273*X12083Y52263*X11925Y52243*X11770Y52215*X11615Y52177*X11466Y52128*X11318Y52073*X11173Y52006*X11034Y51933*X10899Y51849*X10770Y51760*X10645Y51661*X10528Y51554*X10417Y51443*X10315Y51323*X10218Y51199*X10130Y51067*X10048Y50930*X9977Y50790*X9914Y50645*X9860Y50495*X9815Y50345*X9779Y50190*X9779Y48666*X14859Y48666*X14859Y50190*X15812Y48730D2*X15812Y50254D1*X20892Y50254*X20892Y48730*X21209Y54127D2*X21209Y55651D1*X16129Y55651*X16129Y54127*X14859Y58128D2*X14823Y58283D1*X14778Y58433*X14724Y58583*X14661Y58727*X14590Y58867*X14508Y59004*X14420Y59136*X14323Y59261*X14221Y59380*X14110Y59492*X13993Y59599*X13868Y59698*X13739Y59787*X13604Y59870*X13465Y59944*X13320Y60010*X13172Y60066*X13023Y60114*X12868Y60152*X12713Y60180*X12555Y60201*X12398Y60211*X12240Y60211*X12083Y60201*X11925Y60180*X11770Y60152*X11615Y60114*X11466Y60066*X11318Y60010*X11173Y59944*X11034Y59870*X10899Y59787*X10770Y59698*X10645Y59599*X10528Y59492*X10417Y59380*X10315Y59261*X10218Y59136*X10130Y59004*X10048Y58867*X9977Y58727*X9914Y58583*X9860Y58433*X9815Y58283*X9779Y58128*X9779Y56604*X14859Y56604*X14859Y58128*X15812Y60033D2*X15812Y58509D1*X20892Y58509*X20892Y60033*X20892Y66827D2*X20856Y66672D1*X20810Y66523*X20757Y66373*X20693Y66228*X20622Y66088*X20541Y65951*X20452Y65819*X20356Y65695*X20254Y65575*X20142Y65463*X20025Y65357*X19901Y65258*X19771Y65169*X19637Y65085*X19497Y65011*X19352Y64945*X19205Y64889*X19055Y64841*X18900Y64803*X18745Y64775*X18588Y64755*X18430Y64745*X18273Y64745*X18115Y64755*X17958Y64775*X17803Y64803*X17648Y64841*X17498Y64889*X17351Y64945*X17206Y65011*X17066Y65085*X16932Y65169*X16802Y65258*X16678Y65357*X16561Y65463*X16449Y65575*X16347Y65695*X16251Y65819*X16162Y65951*X16081Y66088*X16010Y66228*X15946Y66373*X15893Y66523*X15847Y66672*X15812Y66827*X16129Y72225D2*X16165Y72070D1*X16210Y71920*X16264Y71770*X16327Y71625*X16398Y71486*X16480Y71349*X16568Y71217*X16665Y71092*X16767Y70973*X16878Y70861*X16995Y70754*X17120Y70655*X17249Y70566*X17384Y70482*X17523Y70409*X17668Y70343*X17816Y70287*X17965Y70239*X18120Y70201*X18275Y70173*X18433Y70152*X18590Y70142*X18748Y70142*X18905Y70152*X19063Y70173*X19218Y70201*X19373Y70239*X19522Y70287*X19670Y70343*X19815Y70409*X19954Y70482*X20089Y70566*X20218Y70655*X20343Y70754*X20460Y70861*X20571Y70973*X20673Y71092*X20770Y71217*X20858Y71349*X20940Y71486*X21011Y71625*X21074Y71770*X21128Y71920*X21173Y72070*X21209Y72225*X20892Y66827D2*X20892Y68351D1*X15812Y68351*X14859Y66764D2*X14859Y68288D1*X15812Y68351D2*X15812Y66827D1*X14859Y76225D2*X14823Y76380D1*X14778Y76530*X14724Y76680*X14661Y76825*X14590Y76965*X14508Y77102*X14420Y77234*X14323Y77358*X14221Y77478*X14110Y77589*X13993Y77696*X13868Y77795*X13739Y77884*X13604Y77968*X13465Y78042*X13320Y78108*X13172Y78163*X13023Y78212*X12868Y78250*X12713Y78278*X12555Y78298*X12398Y78308*X12240Y78308*X12083Y78298*X11925Y78278*X11770Y78250*X11615Y78212*X11466Y78163*X11318Y78108*X11173Y78042*X11034Y77968*X10899Y77884*X10770Y77795*X10645Y77696*X10528Y77589*X10417Y77478*X10315Y77358*X10218Y77234*X10130Y77102*X10048Y76965*X9977Y76825*X9914Y76680*X9860Y76530*X9815Y76380*X9779Y76225*X9779Y74701*X14859Y74701*X15812Y78130D2*X15847Y78285D1*X15893Y78435*X15946Y78585*X16010Y78730*X16081Y78870*X16162Y79007*X16251Y79139*X16347Y79263*X16449Y79383*X16561Y79494*X16678Y79601*X16802Y79700*X16932Y79789*X17066Y79873*X17206Y79946*X17351Y80013*X17498Y80068*X17648Y80117*X17803Y80155*X17958Y80183*X18115Y80203*X18273Y80213*X18430Y80213*X18588Y80203*X18745Y80183*X18900Y80155*X19055Y80117*X19205Y80068*X19352Y80013*X19497Y79946*X19637Y79873*X19771Y79789*X19901Y79700*X20025Y79601*X20142Y79494*X20254Y79383*X20356Y79263*X20452Y79139*X20541Y79007*X20622Y78870*X20693Y78730*X20757Y78585*X20810Y78435*X20856Y78285*X20892Y78130*X20892Y76606*X15812Y76606*X15812Y78130*X14859Y74701D2*X14859Y76225D1*X16129Y72225D2*X16129Y73749D1*X21209Y73749*X21209Y72225*X48832Y71145D2*X48796Y71300D1*X48750Y71450*X48697Y71600*X48633Y71745*X48562Y71885*X48481Y72022*X48392Y72154*X48296Y72278*X48194Y72398*X48082Y72509*X47965Y72616*X47841Y72715*X47711Y72804*X47577Y72888*X47437Y72962*X47292Y73028*X47145Y73083*X46995Y73132*X46840Y73170*X46685Y73198*X46528Y73218*X46370Y73228*X46213Y73228*X46055Y73218*X45898Y73198*X45743Y73170*X45588Y73132*X45438Y73083*X45291Y73028*X45146Y72962*X45006Y72888*X44872Y72804*X44742Y72715*X44618Y72616*X44501Y72509*X44389Y72398*X44287Y72278*X44191Y72154*X44102Y72022*X44021Y71885*X43950Y71745*X43886Y71600*X43833Y71450*X43787Y71300*X43752Y71145*X41846Y67653D2*X41846Y66129D1*X46926Y66129*X46926Y67653*X46891Y67808*X46845Y67958*X46792Y68108*X46728Y68252*X46657Y68392*X46576Y68529*X46487Y68661*X46391Y68786*X46289Y68905*X46177Y69017*X46060Y69124*X45936Y69223*X45806Y69312*X45672Y69395*X45532Y69469*X45387Y69535*X45240Y69591*X45090Y69639*X44935Y69677*X44780Y69705*X44623Y69726*X44465Y69736*X44308Y69736*X44150Y69726*X43993Y69705*X43838Y69677*X43683Y69639*X43533Y69591*X43386Y69535*X43241Y69469*X43101Y69395*X42967Y69312*X42837Y69223*X42713Y69124*X42596Y69017*X42484Y68905*X42382Y68786*X42286Y68661*X42197Y68529*X42116Y68392*X42045Y68252*X41981Y68108*X41928Y67958*X41882Y67808*X41846Y67653*X43752Y71145D2*X43752Y69621D1*X48832Y69621*X48832Y71145*X50102Y74955D2*X50066Y75110D1*X50020Y75260*X49967Y75410*X49903Y75555*X49832Y75695*X49751Y75832*X49662Y75964*X49566Y76088*X49464Y76208*X49352Y76319*X49235Y76426*X49111Y76525*X48981Y76614*X48847Y76698*X48707Y76772*X48562Y76838*X48415Y76893*X48265Y76942*X48110Y76980*X47955Y77008*X47798Y77028*X47640Y77038*X47483Y77038*X47325Y77028*X47168Y77008*X47013Y76980*X46858Y76942*X46708Y76893*X46561Y76838*X46416Y76772*X46276Y76698*X46142Y76614*X46012Y76525*X45888Y76426*X45771Y76319*X45659Y76208*X45557Y76088*X45461Y75964*X45372Y75832*X45291Y75695*X45220Y75555*X45156Y75410*X45103Y75260*X45057Y75110*X45022Y74955*X45974Y78448D2*X46010Y78603D1*X46055Y78753*X46109Y78903*X46172Y79047*X46243Y79187*X46325Y79324*X46413Y79456*X46510Y79581*X46612Y79700*X46723Y79812*X46840Y79919*X46965Y80018*X47094Y80107*X47229Y80190*X47368Y80264*X47513Y80330*X47661Y80386*X47810Y80434*X47965Y80472*X48120Y80500*X48278Y80521*X48435Y80531*X48593Y80531*X48750Y80521*X48908Y80500*X49063Y80472*X49218Y80434*X49367Y80386*X49515Y80330*X49660Y80264*X49799Y80190*X49934Y80107*X50063Y80018*X50188Y79919*X50305Y79812*X50416Y79700*X50518Y79581*X50615Y79456*X50703Y79324*X50785Y79187*X50856Y79047*X50919Y78903*X50973Y78753*X51018Y78603*X51054Y78448*X50102Y74955D2*X50102Y73431D1*X45022Y73431*X45022Y74955*X45974Y78448D2*X45974Y76924D1*X51054Y76924*X51054Y78448*X51054Y82575D2*X51018Y82730D1*X50973Y82880*X50919Y83030*X50856Y83175*X50785Y83315*X50703Y83452*X50615Y83584*X50518Y83708*X50416Y83828*X50305Y83939*X50188Y84046*X50063Y84145*X49934Y84234*X49799Y84318*X49660Y84392*X49515Y84458*X49367Y84513*X49218Y84562*X49063Y84600*X48908Y84628*X48750Y84648*X48593Y84658*X48435Y84658*X48278Y84648*X48120Y84628*X47965Y84600*X47810Y84562*X47661Y84513*X47513Y84458*X47368Y84392*X47229Y84318*X47094Y84234*X46965Y84145*X46840Y84046*X46723Y83939*X46612Y83828*X46510Y83708*X46413Y83584*X46325Y83452*X46243Y83315*X46172Y83175*X46109Y83030*X46055Y82880*X46010Y82730*X45974Y82575*X45656Y86385D2*X45692Y86540D1*X45738Y86690*X45791Y86840*X45855Y86985*X45926Y87125*X46007Y87262*X46096Y87394*X46192Y87518*X46294Y87638*X46406Y87749*X46523Y87856*X46647Y87955*X46777Y88044*X46911Y88128*X47051Y88202*X47196Y88268*X47343Y88323*X47493Y88372*X47648Y88410*X47803Y88438*X47960Y88458*X48118Y88468*X48275Y88468*X48433Y88458*X48590Y88438*X48745Y88410*X48900Y88372*X49050Y88323*X49197Y88268*X49342Y88202*X49482Y88128*X49616Y88044*X49746Y87955*X49870Y87856*X49987Y87749*X50099Y87638*X50201Y87518*X50297Y87394*X50386Y87262*X50467Y87125*X50538Y86985*X50602Y86840*X50655Y86690*X50701Y86540*X50736Y86385*X49466Y90195D2*X49431Y90350D1*X49385Y90500*X49332Y90650*X49268Y90795*X49197Y90935*X49116Y91072*X49027Y91204*X48931Y91328*X48829Y91448*X48717Y91559*X48600Y91666*X48476Y91765*X48346Y91854*X48212Y91938*X48072Y92012*X47927Y92078*X47780Y92133*X47630Y92182*X47475Y92220*X47320Y92248*X47163Y92268*X47005Y92278*X46848Y92278*X46690Y92268*X46533Y92248*X46378Y92220*X46223Y92182*X46073Y92133*X45926Y92078*X45781Y92012*X45641Y91938*X45507Y91854*X45377Y91765*X45253Y91666*X45136Y91559*X45024Y91448*X44922Y91328*X44826Y91204*X44737Y91072*X44656Y90935*X44585Y90795*X44521Y90650*X44468Y90500*X44422Y90350*X44386Y90195*X42799Y94005D2*X42799Y92481D1*X47879Y92481*X47879Y94005*X47843Y94160*X47798Y94310*X47744Y94460*X47681Y94605*X47610Y94745*X47528Y94882*X47440Y95014*X47343Y95138*X47241Y95258*X47130Y95369*X47013Y95476*X46888Y95575*X46759Y95664*X46624Y95748*X46485Y95822*X46340Y95888*X46192Y95943*X46043Y95992*X45888Y96030*X45733Y96058*X45575Y96078*X45418Y96088*X45260Y96088*X45103Y96078*X44945Y96058*X44790Y96030*X44635Y95992*X44486Y95943*X44338Y95888*X44193Y95822*X44054Y95748*X43919Y95664*X43790Y95575*X43665Y95476*X43548Y95369*X43437Y95258*X43335Y95138*X43238Y95014*X43150Y94882*X43068Y94745*X42997Y94605*X42934Y94460*X42880Y94310*X42835Y94160*X42799Y94005*X44386Y90195D2*X44386Y88671D1*X49466Y88671*X49466Y90195*X50736Y86385D2*X50736Y84861D1*X45656Y84861*X45656Y86385*X45974Y82575D2*X45974Y81051D1*X51054Y81051*X51054Y82575*X55182Y80416D2*X55182Y75336D1*X53658Y75336*X53503Y75372*X53353Y75418*X53203Y75471*X53058Y75535*X52918Y75606*X52781Y75687*X52649Y75776*X52525Y75872*X52405Y75974*X52294Y76086*X52187Y76203*X52088Y76327*X51999Y76457*X51915Y76591*X51841Y76731*X51775Y76876*X51719Y77023*X51671Y77173*X51633Y77328*X51605Y77483*X51585Y77640*X51575Y77798*X51575Y77955*X51585Y78113*X51605Y78270*X51633Y78425*X51671Y78580*X51719Y78730*X51775Y78877*X51841Y79022*X51915Y79162*X51999Y79296*X52088Y79426*X52187Y79550*X52294Y79667*X52405Y79779*X52525Y79880*X52649Y79977*X52781Y80066*X52918Y80147*X53058Y80218*X53203Y80282*X53353Y80335*X53503Y80381*X53658Y80416*X53530Y80416D2*X53685Y80452D1*X53835Y80498*X53985Y80551*X54130Y80615*X54270Y80686*X54407Y80767*X54539Y80856*X54663Y80952*X54783Y81054*X54894Y81166*X55001Y81283*X55100Y81407*X55189Y81537*X55273Y81671*X55347Y81811*X55413Y81956*X55469Y82103*X55517Y82253*X55555Y82408*X55583Y82563*X55603Y82720*X55613Y82878*X55613Y83035*X55603Y83193*X55583Y83350*X55555Y83505*X55517Y83660*X55469Y83810*X55413Y83957*X55347Y84102*X55273Y84242*X55189Y84376*X55100Y84506*X55001Y84630*X54894Y84747*X54783Y84859*X54663Y84960*X54539Y85057*X54407Y85146*X54270Y85227*X54130Y85298*X53985Y85362*X53835Y85415*X53685Y85461*X53530Y85496*X52006Y85496*X52006Y80416*X53530Y80416*X55182Y80416D2*X53658Y80416D1*D17*X57658Y79781D2*X57658Y78638D1*X57086Y79210D2*X58230Y79210D1*X39942Y93688D2*X41084Y93688D1*X40513Y93116D2*X40513Y94259D1*X39942Y89878D2*X41084Y89878D1*X40513Y89306D2*X40513Y90449D1*X39942Y86068D2*X41084Y86068D1*X40513Y85496D2*X40513Y86639D1*X39942Y82258D2*X41084Y82258D1*X40513Y81686D2*X40513Y82829D1*X39942Y78448D2*X41084Y78448D1*X40513Y77876D2*X40513Y79019D1*X39942Y74638D2*X41084Y74638D1*X40513Y74066D2*X40513Y75209D1*X39942Y70828D2*X41084Y70828D1*X40513Y70256D2*X40513Y71399D1*X39942Y67018D2*X41084Y67018D1*X40513Y66446D2*X40513Y67589D1*X27051Y20028D2*X28194Y20028D1*X27622Y20599D2*X27622Y19456D1*X27051Y38443D2*X28194Y38443D1*X27622Y39014D2*X27622Y37871D1*X27051Y56223D2*X28194Y56223D1*X27622Y56794D2*X27622Y55651D1*X27051Y74638D2*X28194Y74638D1*X27622Y75209D2*X27622Y74066D1*X26734Y92735D2*X27876Y92735D1*X27305Y93307D2*X27305Y92164D1*X26734Y110833D2*X27876Y110833D1*X27305Y111404D2*X27305Y110261D1*X27051Y129248D2*X28194Y129248D1*X27622Y129819D2*X27622Y128676D1*X27622Y146774D2*X27622Y147917D1*X27051Y147345D2*X28194Y147345D1*X5524Y147472D2*X4382Y147472D1*X4953Y146901D2*X4953Y148044D1*X6414Y142265D2*X7556Y142265D1*X6985Y141694D2*X6985Y142837D1*X5524Y129375D2*X4382Y129375D1*X4953Y128803D2*X4953Y129946D1*X6414Y124168D2*X7556Y124168D1*X6985Y123596D2*X6985Y124739D1*X5524Y111277D2*X4382Y111277D1*X4953Y110706D2*X4953Y111849D1*X6414Y106070D2*X7556Y106070D1*X6985Y105499D2*X6985Y106642D1*X5524Y93180D2*X4382Y93180D1*X4953Y92608D2*X4953Y93751D1*X6414Y88290D2*X7556Y88290D1*X6985Y87719D2*X6985Y88862D1*X5524Y75082D2*X4382Y75082D1*X4953Y74511D2*X4953Y75654D1*X6414Y69875D2*X7556Y69875D1*X6985Y69304D2*X6985Y70447D1*X5524Y56985D2*X4382Y56985D1*X4953Y56413D2*X4953Y57556D1*X6414Y51778D2*X7556Y51778D1*X6985Y51206D2*X6985Y52349D1*X5524Y38887D2*X4382Y38887D1*X4953Y38316D2*X4953Y39459D1*X6414Y33998D2*X7556Y33998D1*X6985Y33426D2*X6985Y34569D1*X5524Y20472D2*X4382Y20472D1*X4953Y19901D2*X4953Y21044D1*X6985Y14694D2*X6985Y15837D1*X7556Y15265D2*X6414Y15265D1*D18*X31547Y152070D2*X31852Y152377D1*X31852Y151460*X32156Y151460D2*X31547Y151460D1*X33419Y152222D2*X33419Y151613D1*X34354Y151460D2*X34354Y152070D1*X34963Y151460D2*X34963Y151917D1*X34811Y152070*X34354Y152070*X34028Y152222D2*X34028Y151613D1*X33876Y151460*X33571Y151460*X33419Y151613*X34028Y152222*X33876Y152377*X33571Y152377*X33419Y152222*X33094Y152222D2*X32939Y152377D1*X32634Y152377*X32482Y152222*X32482Y151613*X32634Y151460D2*X32939Y151460D1*X33094Y151613*X33094Y152222*X32482Y151613*X32634Y151460*X32766Y12395D2*X32766Y13005D1*X33376Y12395D2*X33376Y12852D1*X33223Y13005*X32766Y13005*X32288Y13312D2*X32441Y13157D1*X29959Y13005D2*X30264Y13312D1*X30264Y12395*X30569Y12395D2*X29959Y12395D1*X30894Y12548D2*X30894Y13157D1*X31046Y13312*X31351Y13312*X31506Y13157*X31506Y12548D2*X31506Y13157D1*X30894Y12548*X31046Y12395*X31351Y12395*X31506Y12548*X31831Y12548D2*X31984Y12395D1*X32288Y12395*X32441Y12548*X32441Y13157*X31831Y12548*X31831Y13157*X31984Y13312*X32288Y13312*X42901Y56782D2*X42596Y57086D1*X43510Y57086*X43510Y57391D2*X43510Y56782D1*X43358Y57719D2*X42748Y57719D1*X42596Y57871*X42596Y58176*X42748Y58329*X43358Y58329*X43510Y58176*X43510Y57871*X43358Y57719*X42748Y58329*X42748Y59263D2*X42596Y59111D1*X42596Y58806*X42748Y58654*X43358Y58654*X43358Y59263D2*X42748Y59263D1*X43358Y58654*X43510Y58806*X43510Y59111*X43358Y59263*X43510Y59588D2*X42901Y59588D1*X42901Y60046*X43053Y60198*X43510Y60198*X53518Y101534D2*X52908Y101534D1*X52908Y102469D2*X53518Y102469D1*X53670Y103403D2*X53061Y103403D1*X53670Y104013D2*X53213Y104013D1*X53061Y103861*X53061Y103403*X52908Y103078D2*X53518Y103078D1*X53670Y102926*X53670Y102621*X53518Y102469*X52908Y103078*X52756Y102926*X52756Y102621*X52908Y102469*X52908Y102144D2*X53518Y102144D1*X53670Y101991*X53670Y101686*X53518Y101534*X52908Y102144*X52756Y101991*X52756Y101686*X52908Y101534*X53061Y100597D2*X52756Y100902D1*X53670Y100902*X53670Y100597D2*X53670Y101206D1*D19*X26220Y116812D2*X26378Y116812D1*X25593Y100919D2*X26220Y100919D1*X25593Y101547D2*X26220Y101547D1*X26378Y101389*X26378Y101077*X26220Y100919*X25593Y101547*X25438Y101389*X25438Y101077*X25593Y100919*X25438Y99985D2*X25438Y100609D1*X25593Y100609*X26220Y99985*X26378Y99985*X25908Y99675D2*X25908Y99047D1*X25438Y99517*X26378Y99517*X50952Y92829D2*X50640Y92359D1*X50325Y92829*X50013Y92359D2*X50952Y92359D1*X50168Y92050D2*X50013Y91895D1*X50013Y91580*X50168Y91425*X50795Y91425*X50952Y91580*X50952Y91895*X50795Y92050*X50168Y92050*X50795Y91425*X50952Y90488D2*X50952Y91115D1*X50325Y90488D2*X50013Y90802D1*X50952Y90802*X51946Y90752D2*X51791Y90594D1*X51791Y90282*X51946Y90124*X52573Y90124*X52730Y90282*X52730Y90594*X52573Y90752*X51946Y90752*X52573Y90124*X52573Y89190D2*X52730Y89190D1*X52730Y88722D2*X51791Y88722D1*X52260Y88252*X51791Y89190D2*X51791Y89814D1*X51946Y89814*X52573Y89190*X52260Y88252D2*X52260Y88880D1*X51156Y72212D2*X51468Y71900D1*X52095Y74239D2*X51783Y73769D1*X51468Y74239*X51156Y73769D2*X52095Y73769D1*X51311Y73462D2*X51156Y73304D1*X51156Y72992*X51311Y72834*X51938Y72834*X52095Y72992*X52095Y73304*X51938Y73462*X51311Y73462*X51938Y72834*X52095Y71900D2*X52095Y72527D1*X51156Y72212D2*X52095Y72212D1*X49563Y71382D2*X49878Y70912D1*X50190Y71382*X49251Y70912D2*X50190Y70912D1*X49406Y70604D2*X49251Y70447D1*X49251Y70134*X49406Y69977*X50033Y69977*X50190Y70134*X50190Y70447*X50033Y70604*X49406Y70604*X50033Y69977*X50190Y69042D2*X50190Y69670D1*X50190Y69355D2*X49251Y69355D1*X49563Y69042*X47480Y7737D2*X48108Y7737D1*X47795Y7264D2*X47480Y7264D1*X48417Y7737D2*X48417Y6794D1*X49352Y6794D2*X49352Y7737D1*X50914Y7264D2*X50287Y7264D1*X51849Y7737D2*X51849Y6794D1*X51222Y7737*X51222Y6794*X50914Y6794D2*X50914Y7422D1*X50602Y7737*X50287Y7422*X50287Y6794*X49980Y6794D2*X49980Y7737D1*X49665Y7422*X49352Y7737*X49042Y7737D2*X49042Y6794D1*X48730Y7109*X48417Y6794*X48108Y6794D2*X47480Y6794D1*X47480Y7737*X47173Y7737D2*X47173Y6794D1*X46546Y7737*X46546Y6794*X41867Y7422D2*X41867Y6794D1*X42494Y7264D2*X41867Y7264D1*X43739Y7264D2*X44051Y7264D1*X43739Y6794D2*X43739Y7737D1*X44366Y7737*X45301Y7579D2*X45143Y7737D1*X44831Y7737*X44674Y7579*X44674Y7422*X44831Y7264*X45143Y7264*X45301Y7109*X45301Y6952*X45143Y6794*X44831Y6794*X44674Y6952*X43739Y6794D2*X44366Y6794D1*X43431Y6794D2*X43431Y7737D1*X43116Y7422*X42804Y7737*X42804Y6794*X42494Y6794D2*X42494Y7422D1*X42182Y7737*X41867Y7422*X41245Y7737D2*X41559Y7737D1*X41402Y7737D2*X41402Y6952D1*X41245Y6794*X41090Y6794*X40932Y6952*X16988Y15103D2*X16675Y14788D1*X19017Y14160D2*X18547Y14475D1*X19017Y14788*X18547Y15103D2*X18547Y14160D1*X18237Y14945D2*X18080Y15103D1*X17767Y15103*X17610Y14945*X17610Y14318*X17767Y14160*X18080Y14160*X18237Y14318*X18237Y14945*X17610Y14318*X16675Y14160D2*X17302Y14160D1*X16988Y15103D2*X16988Y14160D1*X16675Y21138D2*X16988Y21453D1*X16988Y20510*X17302Y20510D2*X16675Y20510D1*X18237Y21295D2*X18080Y21453D1*X17767Y21453*X17610Y21295*X17610Y20668*X18237Y20668D2*X18080Y20510D1*X17767Y20510*X17610Y20668*X18237Y21295*X18237Y20668*X18547Y21453D2*X18547Y20510D1*X19017Y21138D2*X18547Y20825D1*X19017Y20510*X22101Y18377D2*X21946Y18377D1*X21946Y17752*X22416Y17442D2*X22416Y16815D1*X21946Y17285*X22885Y17285*X22885Y17752D2*X22728Y17752D1*X22101Y18377*X22728Y18687D2*X22101Y18687D1*X21946Y18844*X21946Y19157*X22101Y19314*X22728Y19314D2*X22101Y19314D1*X22728Y18687*X22885Y18844*X22885Y19157*X22728Y19314*X25720Y25057D2*X25565Y25057D1*X25565Y24432*X26035Y24122D2*X26035Y23495D1*X25565Y23965*X26505Y23965*X26505Y24432D2*X26347Y24432D1*X25720Y25057*X26347Y25367D2*X25720Y25367D1*X25565Y25524*X25565Y25837*X25720Y25994*X26347Y25994*X26505Y25837*X26505Y25524*X26347Y25367*X25720Y25994*X22101Y36792D2*X21946Y36792D1*X21946Y36167*X22416Y35857D2*X22416Y35230D1*X21946Y35700*X22885Y35700*X22885Y36167D2*X22728Y36167D1*X22101Y36792*X22728Y37102D2*X22101Y37102D1*X21946Y37259*X21946Y37572*X22101Y37729*X22728Y37729D2*X22101Y37729D1*X22728Y37102*X22885Y37259*X22885Y37572*X22728Y37729*X25720Y42837D2*X25565Y42837D1*X25565Y42212*X26035Y41902D2*X26035Y41275D1*X25565Y41745*X26505Y41745*X26505Y42212D2*X26347Y42212D1*X25720Y42837*X26347Y43147D2*X25720Y43147D1*X25565Y43304*X25565Y43617*X25720Y43774*X26347Y43774*X26505Y43617*X26505Y43304*X26347Y43147*X25720Y43774*X22101Y54572D2*X21946Y54572D1*X21946Y53947*X22416Y53637D2*X22416Y53010D1*X21946Y53480*X22885Y53480*X22885Y53947D2*X22728Y53947D1*X22101Y54572*X22728Y54882D2*X22101Y54882D1*X21946Y55039*X21946Y55352*X22101Y55509*X22728Y55509D2*X22101Y55509D1*X22728Y54882*X22885Y55039*X22885Y55352*X22728Y55509*X25720Y59982D2*X25565Y59982D1*X25565Y59357*X26035Y59047D2*X26035Y58420D1*X25565Y58890*X26505Y58890*X26505Y59357D2*X26347Y59357D1*X25720Y59982*X26347Y60292D2*X25720Y60292D1*X25565Y60449*X25565Y60762*X25720Y60919*X26347Y60919*X26505Y60762*X26505Y60449*X26347Y60292*X25720Y60919*X22101Y72669D2*X21946Y72669D1*X21946Y72045*X22416Y71735D2*X22416Y71107D1*X21946Y71577*X22885Y71577*X22885Y72045D2*X22728Y72045D1*X22101Y72669*X22728Y72979D2*X22101Y72979D1*X21946Y73137*X21946Y73449*X22101Y73607*X22728Y73607D2*X22101Y73607D1*X22728Y72979*X22885Y73137*X22885Y73449*X22728Y73607*X26794Y83525D2*X26637Y83683D1*X26322Y83683*X26167Y83525*X26167Y82898*X26637Y82740D2*X26794Y82898D1*X26794Y83525*X26167Y82898*X26322Y82740*X26637Y82740*X26794Y79715D2*X26637Y79873D1*X26322Y79873*X26167Y79715*X26167Y79088*X26322Y78930*X26637Y78930*X26794Y79088*X26794Y79715*X26167Y79088*X24765Y79873D2*X24765Y78930D1*X25230Y79873D2*X25857Y79873D1*X25857Y79715*X25230Y79088*X25230Y78930*X24922Y79400D2*X24295Y79400D1*X24765Y79873*X24765Y83683D2*X24765Y82740D1*X25230Y83683D2*X25857Y83683D1*X25857Y83525*X25230Y82898*X25230Y82740*X24922Y83210D2*X24295Y83210D1*X24765Y83683*X22101Y92339D2*X21946Y92182D1*X21946Y91869*X22101Y91712*X22728Y91712*X22885Y91869*X22885Y92182*X22728Y92339*X22101Y92339*X22728Y91712*X22416Y90467D2*X22416Y89840D1*X21946Y90777D2*X21946Y91402D1*X22101Y91402*X22728Y90777*X22885Y90777*X22885Y90310D2*X21946Y90310D1*X22416Y89840*X19334Y86868D2*X18865Y87183D1*X19334Y87495*X18865Y87810D2*X18865Y86868D1*X18555Y87653D2*X18397Y87810D1*X18085Y87810*X17927Y87653*X17927Y87025*X18085Y86868*X18397Y86868*X18555Y87025*X18555Y87653*X17927Y87025*X16993Y86868D2*X17620Y86868D1*X17305Y86868D2*X17305Y87810D1*X16993Y87495*X16988Y94160D2*X16675Y93845D1*X19017Y93218D2*X18547Y93533D1*X19017Y93845*X18547Y94160D2*X18547Y93218D1*X18237Y94003D2*X18080Y94160D1*X17767Y94160*X17610Y94003*X17610Y93375*X17767Y93218*X18080Y93218*X18237Y93375*X18237Y94003*X17610Y93375*X16675Y93218D2*X17302Y93218D1*X16988Y94160D2*X16988Y93218D1*X16988Y105908D2*X16675Y105593D1*X19017Y104966D2*X18547Y105280D1*X19017Y105593*X18547Y105908D2*X18547Y104966D1*X18237Y105750D2*X18080Y105908D1*X17767Y105908*X17610Y105750*X17610Y105123*X17767Y104966*X18080Y104966*X18237Y105123*X18237Y105750*X17610Y105123*X16675Y104966D2*X17302Y104966D1*X16988Y105908D2*X16988Y104966D1*X16675Y111943D2*X16988Y112258D1*X16988Y111316*X17302Y111316D2*X16675Y111316D1*X18237Y112100D2*X18080Y112258D1*X17767Y112258*X17610Y112100*X17610Y111473*X18237Y111473D2*X18237Y112100D1*X17610Y111473*X17767Y111316*X18080Y111316*X18237Y111473*X18547Y112258D2*X18547Y111316D1*X19017Y111943D2*X18547Y111630D1*X19017Y111316*X22101Y109182D2*X21946Y109182D1*X21946Y108557*X22416Y108247D2*X22416Y107620D1*X21946Y108090*X22885Y108090*X22885Y108557D2*X22728Y108557D1*X22101Y109182*X22728Y109492D2*X22101Y109492D1*X21946Y109649*X21946Y109962*X22101Y110119*X22728Y110119D2*X22101Y110119D1*X22728Y109492*X22885Y109649*X22885Y109962*X22728Y110119*X25593Y117437D2*X25438Y117437D1*X25438Y116812*X25908Y116502D2*X25908Y115875D1*X25438Y116345*X26378Y116345*X25593Y117437D2*X26220Y116812D1*X26220Y117747D2*X25593Y117747D1*X25438Y117904*X25438Y118217*X25593Y118374*X26220Y118374*X26378Y118217*X26378Y117904*X26220Y117747*X25593Y118374*X22101Y145687D2*X22728Y145687D1*X22101Y146314D2*X22728Y146314D1*X22885Y146157*X22885Y145844*X22728Y145687*X22101Y146314*X21946Y146157*X21946Y145844*X22101Y145687*X22885Y144285D2*X21946Y144285D1*X22416Y143815*X21946Y144752D2*X21946Y145377D1*X22101Y145377*X22728Y144752*X22885Y144752*X22416Y143815D2*X22416Y144442D1*X25593Y135837D2*X25438Y135679D1*X25438Y135367*X25593Y135209*X26220Y135209*X26378Y135367*X26378Y135679*X26220Y135837*X25593Y135837*X26220Y135209*X25908Y133965D2*X25908Y133337D1*X25438Y134275D2*X25438Y134899D1*X25593Y134899*X26220Y134275*X26378Y134275*X26378Y133807D2*X25438Y133807D1*X25908Y133337*X22101Y128534D2*X21946Y128377D1*X21946Y128064*X22101Y127907*X22728Y127907*X22885Y128064*X22885Y128377*X22728Y128534*X22101Y128534*X22728Y127907*X22885Y126972D2*X22728Y126972D1*X21946Y126505D2*X22885Y126505D1*X21946Y126972D2*X21946Y127597D1*X22101Y127597*X22728Y126972*X22416Y126662D2*X22416Y126035D1*X21946Y126505*X16988Y124005D2*X16675Y123690D1*X19017Y123063D2*X18547Y123378D1*X19017Y123690*X18547Y124005D2*X18547Y123063D1*X18237Y123848D2*X18080Y124005D1*X17767Y124005*X17610Y123848*X17610Y123220*X17767Y123063*X18080Y123063*X18237Y123220*X18237Y123848*X17610Y123220*X16675Y123063D2*X17302Y123063D1*X16988Y124005D2*X16988Y123063D1*X16988Y130355D2*X16675Y130040D1*X19017Y129413D2*X18547Y129728D1*X19017Y130040*X18547Y130355D2*X18547Y129413D1*X18237Y130198D2*X18080Y130355D1*X17767Y130355*X17610Y130198*X17610Y129570*X17767Y129413*X18080Y129413*X18237Y129570*X18237Y130198*X17610Y129570*X16675Y129413D2*X17302Y129413D1*X16988Y130355D2*X16988Y129413D1*X16988Y142103D2*X16675Y141788D1*X19017Y141160D2*X18547Y141475D1*X19017Y141788*X18547Y142103D2*X18547Y141160D1*X18237Y141945D2*X18080Y142103D1*X17767Y142103*X17610Y141945*X17610Y141318*X17767Y141160*X18080Y141160*X18237Y141318*X18237Y141945*X17610Y141318*X16675Y141160D2*X17302Y141160D1*X16988Y142103D2*X16988Y141160D1*X16988Y148453D2*X16675Y148138D1*X19017Y147510D2*X18547Y147825D1*X19017Y148138*X18547Y148453D2*X18547Y147510D1*X18237Y148295D2*X18080Y148453D1*X17767Y148453*X17610Y148295*X17610Y147668*X17767Y147510*X18080Y147510*X18237Y147668*X18237Y148295*X17610Y147668*X16675Y147510D2*X17302Y147510D1*X16988Y148453D2*X16988Y147510D1*X13764Y151915D2*X13607Y152072D1*X13292Y152072*X13137Y151915*X13137Y151287D2*X13292Y151130D1*X13607Y151130*X13764Y151287*X13764Y151915*X13137Y151287*X13137Y151915*X11735Y151130D2*X11735Y152072D1*X11892Y151600D2*X11265Y151600D1*X11735Y152072*X12200Y152072D2*X12827Y152072D1*X12827Y151915*X12200Y151287*X12200Y151130*X12357Y145572D2*X12357Y146200D1*X13762Y143510D2*X13292Y143825D1*X13762Y144137*X13762Y145415D2*X13292Y145730D1*X13762Y146042*X13292Y146357D2*X13292Y145415D1*X12984Y146200D2*X12984Y145572D1*X12827Y145415*X12512Y145415*X12357Y145572*X12984Y146200*X12827Y146357*X12512Y146357*X12357Y146200*X11420Y146042D2*X11735Y146357D1*X11735Y145415*X11420Y145415D2*X12047Y145415D1*X11420Y144137D2*X11735Y144452D1*X11735Y143510*X12047Y143510D2*X11420Y143510D1*X12357Y143667D2*X12357Y144295D1*X12512Y144452*X12827Y144452*X12984Y144295*X13292Y143510D2*X13292Y144452D1*X12827Y143510D2*X12984Y143667D1*X12984Y144295*X12357Y143667*X12512Y143510*X12827Y143510*X12827Y138580D2*X12827Y138737D1*X12200Y138737*X11892Y138265D2*X11265Y138265D1*X11735Y138737*X11735Y137795*X12200Y137795D2*X12200Y137952D1*X12827Y138580*X13764Y138580D2*X13607Y138737D1*X13292Y138737*X13137Y138580*X13137Y137952*X13607Y137795D2*X13764Y137952D1*X13764Y138580*X13137Y137952*X13292Y137795*X13607Y137795*X13764Y133817D2*X13607Y133975D1*X13292Y133975*X13137Y133817*X13137Y133190D2*X13292Y133032D1*X13607Y133032*X13764Y133190*X13764Y133817*X13137Y133190*X13137Y133817*X11735Y133032D2*X11735Y133975D1*X11892Y133502D2*X11265Y133502D1*X11735Y133975*X12200Y133975D2*X12827Y133975D1*X12827Y133817*X12200Y133190*X12200Y133032*X12357Y127475D2*X12357Y128102D1*X13762Y125412D2*X13292Y125727D1*X13762Y126040*X13762Y127318D2*X13292Y127632D1*X13762Y127945*X13292Y128260D2*X13292Y127318D1*X12984Y128102D2*X12984Y127475D1*X12827Y127318*X12512Y127318*X12357Y127475*X12984Y128102*X12827Y128260*X12512Y128260*X12357Y128102*X11420Y127945D2*X11735Y128260D1*X11735Y127318*X11420Y127318D2*X12047Y127318D1*X11420Y126040D2*X11735Y126355D1*X11735Y125412*X12047Y125412D2*X11420Y125412D1*X12357Y125570D2*X12357Y126197D1*X12512Y126355*X12827Y126355*X12984Y126197*X13292Y125412D2*X13292Y126355D1*X12827Y125412D2*X12984Y125570D1*X12984Y126197*X12357Y125570*X12512Y125412*X12827Y125412*X12827Y120482D2*X12827Y120640D1*X12200Y120640*X11892Y120167D2*X11265Y120167D1*X11735Y120640*X11735Y119698*X12200Y119698D2*X12200Y119855D1*X12827Y120482*X13764Y120482D2*X13607Y120640D1*X13292Y120640*X13137Y120482*X13137Y119855*X13607Y119698D2*X13764Y119855D1*X13764Y120482*X13137Y119855*X13292Y119698*X13607Y119698*X13764Y115720D2*X13607Y115877D1*X13292Y115877*X13137Y115720*X13137Y115092D2*X13292Y114935D1*X13607Y114935*X13764Y115092*X13764Y115720*X13137Y115092*X13137Y115720*X11735Y114935D2*X11735Y115877D1*X11892Y115405D2*X11265Y115405D1*X11735Y115877*X12200Y115877D2*X12827Y115877D1*X12827Y115720*X12200Y115092*X12200Y114935*X12357Y109377D2*X12357Y110005D1*X13762Y107315D2*X13292Y107630D1*X13762Y107942*X13762Y109220D2*X13292Y109535D1*X13762Y109847*X13292Y110162D2*X13292Y109220D1*X12984Y110005D2*X12984Y109377D1*X12827Y109220*X12512Y109220*X12357Y109377*X12984Y110005*X12827Y110162*X12512Y110162*X12357Y110005*X11420Y109847D2*X11735Y110162D1*X11735Y109220*X11420Y109220D2*X12047Y109220D1*X11420Y107942D2*X11735Y108257D1*X11735Y107315*X12047Y107315D2*X11420Y107315D1*X12357Y107472D2*X12357Y108100D1*X12512Y108257*X12827Y108257*X12984Y108100*X13292Y107315D2*X13292Y108257D1*X12827Y107315D2*X12984Y107472D1*X12984Y108100*X12357Y107472*X12512Y107315*X12827Y107315*X12827Y102385D2*X12827Y102542D1*X12200Y102542*X11892Y102070D2*X11265Y102070D1*X11735Y102542*X11735Y101600*X12200Y101600D2*X12200Y101757D1*X12827Y102385*X13764Y102385D2*X13607Y102542D1*X13292Y102542*X13137Y102385*X13137Y101757*X13292Y101600D2*X13607Y101600D1*X13764Y101757*X13764Y102385*X13137Y101757*X13292Y101600*X13137Y97622D2*X13137Y96995D1*X13764Y97622D2*X13764Y96995D1*X13607Y96838*X13292Y96838*X13137Y96995*X13764Y97622*X13607Y97780*X13292Y97780*X13137Y97622*X11735Y96838D2*X11735Y97780D1*X11892Y97307D2*X11265Y97307D1*X11735Y97780*X12200Y97780D2*X12827Y97780D1*X12827Y97622*X12200Y96995*X12200Y96838*X12357Y91280D2*X12357Y91907D1*X13762Y89218D2*X13292Y89532D1*X13762Y89845*X13762Y91122D2*X13292Y91437D1*X13762Y91750*X13292Y92065D2*X13292Y91122D1*X12984Y91907D2*X12984Y91280D1*X12827Y91122*X12512Y91122*X12357Y91280*X12984Y91907*X12827Y92065*X12512Y92065*X12357Y91907*X11420Y91750D2*X11735Y92065D1*X11735Y91122*X11420Y91122D2*X12047Y91122D1*X11420Y89845D2*X11735Y90160D1*X11735Y89218*X12047Y89218D2*X11420Y89218D1*X12357Y89375D2*X12357Y90002D1*X12512Y90160*X12827Y90160*X12984Y90002*X13292Y89218D2*X13292Y90160D1*X12827Y89218D2*X12984Y89375D1*X12984Y90002*X12357Y89375*X12512Y89218*X12827Y89218*X12827Y84287D2*X12827Y84445D1*X12200Y84445*X11892Y83972D2*X11265Y83972D1*X11735Y84445*X11735Y83502*X12200Y83502D2*X12200Y83660D1*X12827Y84287*X13764Y84287D2*X13607Y84445D1*X13292Y84445*X13137Y84287*X13137Y83660*X13292Y83502D2*X13607Y83502D1*X13764Y83660*X13764Y84287*X13137Y83660*X13292Y83502*X12827Y79525D2*X12827Y79682D1*X12200Y79682*X11892Y79210D2*X11265Y79210D1*X11735Y79682*X11735Y78740*X12200Y78740D2*X12200Y78897D1*X12827Y79525*X13764Y79525D2*X13607Y79682D1*X13292Y79682*X13137Y79525*X13137Y78897*X13607Y78740D2*X13764Y78897D1*X13764Y79525*X13137Y78897*X13292Y78740*X13607Y78740*X16675Y75748D2*X16988Y76063D1*X16988Y75120*X17302Y75120D2*X16675Y75120D1*X18237Y75905D2*X18080Y76063D1*X17767Y76063*X17610Y75905*X17610Y75278*X18237Y75278D2*X18237Y75905D1*X17610Y75278*X17767Y75120*X18080Y75120*X18237Y75278*X18547Y76063D2*X18547Y75120D1*X19017Y75748D2*X18547Y75435D1*X19017Y75120*X19017Y68770D2*X18547Y69085D1*X19017Y69398*X18547Y69713D2*X18547Y68770D1*X18237Y69555D2*X18080Y69713D1*X17767Y69713*X17610Y69555*X17610Y68928*X17767Y68770*X18080Y68770*X18237Y68928*X18237Y69555*X17610Y68928*X16675Y68770D2*X17302Y68770D1*X16988Y68770D2*X16988Y69713D1*X16675Y69398*X13762Y71120D2*X13292Y71435D1*X13762Y71747*X13762Y73025D2*X13292Y73340D1*X13762Y73652*X13292Y73967D2*X13292Y73025D1*X12984Y73810D2*X12827Y73967D1*X12512Y73967*X12357Y73810*X12357Y73182D2*X12512Y73025D1*X12827Y73025*X12984Y73182*X12984Y73810*X12357Y73182*X12357Y73810*X11420Y73652D2*X11735Y73967D1*X11735Y73025*X11420Y73025D2*X12047Y73025D1*X11420Y71747D2*X11735Y72062D1*X11735Y71120*X12047Y71120D2*X11420Y71120D1*X12357Y71277D2*X12357Y71905D1*X12512Y72062*X12827Y72062*X12984Y71905*X13292Y71120D2*X13292Y72062D1*X12827Y71120D2*X12984Y71277D1*X12984Y71905*X12357Y71277*X12512Y71120*X12827Y71120*X12827Y66190D2*X12827Y66347D1*X12200Y66347*X11892Y65875D2*X11265Y65875D1*X11735Y66347*X11735Y65405*X12200Y65405D2*X12200Y65562D1*X12827Y66190*X13764Y66190D2*X13607Y66347D1*X13292Y66347*X13137Y66190*X13137Y65562*X13292Y65405D2*X13607Y65405D1*X13764Y65562*X13764Y66190*X13137Y65562*X13292Y65405*X12827Y61427D2*X12827Y61585D1*X12200Y61585*X11892Y61112D2*X11265Y61112D1*X11735Y61585*X11735Y60642*X12200Y60642D2*X12200Y60800D1*X12827Y61427*X13764Y61427D2*X13607Y61585D1*X13292Y61585*X13137Y61427*X13137Y60800*X13607Y60642D2*X13764Y60800D1*X13764Y61427*X13137Y60800*X13292Y60642*X13607Y60642*X16675Y57650D2*X16988Y57965D1*X16988Y57023*X17302Y57023D2*X16675Y57023D1*X18237Y57808D2*X18080Y57965D1*X17767Y57965*X17610Y57808*X17610Y57180*X18237Y57180D2*X18237Y57808D1*X17610Y57180*X17767Y57023*X18080Y57023*X18237Y57180*X18547Y57965D2*X18547Y57023D1*X19017Y57650D2*X18547Y57338D1*X19017Y57023*X19017Y50673D2*X18547Y50988D1*X19017Y51300*X18547Y51615D2*X18547Y50673D1*X18237Y51458D2*X18080Y51615D1*X17767Y51615*X17610Y51458*X17610Y50830*X17767Y50673*X18080Y50673*X18237Y50830*X18237Y51458*X17610Y50830*X16675Y50673D2*X17302Y50673D1*X16988Y50673D2*X16988Y51615D1*X16675Y51300*X13762Y53022D2*X13292Y53337D1*X13762Y53650*X13762Y54928D2*X13292Y55242D1*X13762Y55555*X13292Y55870D2*X13292Y54928D1*X12984Y55712D2*X12827Y55870D1*X12512Y55870*X12357Y55712*X12357Y55085D2*X12512Y54928D1*X12827Y54928*X12984Y55085*X12984Y55712*X12357Y55085*X12357Y55712*X11420Y55555D2*X11735Y55870D1*X11735Y54928*X11420Y54928D2*X12047Y54928D1*X11420Y53650D2*X11735Y53965D1*X11735Y53022*X12047Y53022D2*X11420Y53022D1*X12357Y53180D2*X12357Y53807D1*X12512Y53965*X12827Y53965*X12984Y53807*X13292Y53022D2*X13292Y53965D1*X12827Y53022D2*X12984Y53180D1*X12984Y53807*X12357Y53180*X12512Y53022*X12827Y53022*X12827Y48092D2*X12827Y48250D1*X12200Y48250*X11892Y47777D2*X11265Y47777D1*X11735Y48250*X11735Y47308*X12200Y47308D2*X12200Y47465D1*X12827Y48092*X13764Y48092D2*X13607Y48250D1*X13292Y48250*X13137Y48092*X13137Y47465*X13292Y47308D2*X13607Y47308D1*X13764Y47465*X13764Y48092*X13137Y47465*X13292Y47308*X12827Y43330D2*X12827Y43487D1*X12200Y43487*X11892Y43015D2*X11265Y43015D1*X11735Y43487*X11735Y42545*X12200Y42545D2*X12200Y42702D1*X12827Y43330*X13764Y43330D2*X13607Y43487D1*X13292Y43487*X13137Y43330*X13137Y42702*X13607Y42545D2*X13764Y42702D1*X13764Y43330*X13137Y42702*X13292Y42545*X13607Y42545*X16675Y39553D2*X16988Y39868D1*X16988Y38926*X17302Y38926D2*X16675Y38926D1*X18237Y39710D2*X18080Y39868D1*X17767Y39868*X17610Y39710*X17610Y39083*X18237Y39083D2*X18237Y39710D1*X17610Y39083*X17767Y38926*X18080Y38926*X18237Y39083*X18547Y39868D2*X18547Y38926D1*X19017Y39553D2*X18547Y39240D1*X19017Y38926*X19017Y32576D2*X18547Y32890D1*X19017Y33203*X18547Y33518D2*X18547Y32576D1*X18237Y33360D2*X18080Y33518D1*X17767Y33518*X17610Y33360*X17610Y32733*X17767Y32576*X18080Y32576*X18237Y32733*X18237Y33360*X17610Y32733*X16675Y32576D2*X17302Y32576D1*X16988Y32576D2*X16988Y33518D1*X16675Y33203*X13762Y34925D2*X13292Y35240D1*X13762Y35552*X13762Y36830D2*X13292Y37145D1*X13762Y37457*X13292Y37772D2*X13292Y36830D1*X12984Y37615D2*X12827Y37772D1*X12512Y37772*X12357Y37615*X12357Y36987D2*X12512Y36830D1*X12827Y36830*X12984Y36987*X12984Y37615*X12357Y36987*X12357Y37615*X11420Y37457D2*X11735Y37772D1*X11735Y36830*X11420Y36830D2*X12047Y36830D1*X11420Y35552D2*X11735Y35867D1*X11735Y34925*X12047Y34925D2*X11420Y34925D1*X12357Y35082D2*X12357Y35710D1*X12512Y35867*X12827Y35867*X12984Y35710*X13292Y34925D2*X13292Y35867D1*X12827Y34925D2*X12984Y35082D1*X12984Y35710*X12357Y35082*X12512Y34925*X12827Y34925*X12827Y29995D2*X12827Y30152D1*X12200Y30152*X11892Y29680D2*X11265Y29680D1*X11735Y30152*X11735Y29210*X12200Y29210D2*X12200Y29367D1*X12827Y29995*X13764Y29995D2*X13607Y30152D1*X13292Y30152*X13137Y29995*X13137Y29367*X13607Y29210D2*X13764Y29367D1*X13764Y29995*X13137Y29367*X13292Y29210*X13607Y29210*X13764Y24915D2*X13607Y25072D1*X13292Y25072*X13137Y24915*X13137Y24287D2*X13292Y24130D1*X13607Y24130*X13764Y24287*X13764Y24915*X13137Y24287*X13137Y24915*X11735Y24130D2*X11735Y25072D1*X11892Y24600D2*X11265Y24600D1*X11735Y25072*X12200Y25072D2*X12827Y25072D1*X12827Y24915*X12200Y24287*X12200Y24130*X12357Y18572D2*X12357Y19200D1*X13762Y16510D2*X13292Y16825D1*X13762Y17137*X13762Y18415D2*X13292Y18730D1*X13762Y19042*X13292Y19357D2*X13292Y18415D1*X12984Y19200D2*X12984Y18572D1*X12827Y18415*X12512Y18415*X12357Y18572*X12984Y19200*X12827Y19357*X12512Y19357*X12357Y19200*X11420Y19042D2*X11735Y19357D1*X11735Y18415*X11420Y18415D2*X12047Y18415D1*X11420Y17137D2*X11735Y17452D1*X11735Y16510*X12047Y16510D2*X11420Y16510D1*X12357Y16667D2*X12357Y17295D1*X12512Y17452*X12827Y17452*X12984Y17295*X13292Y16510D2*X13292Y17452D1*X12827Y16510D2*X12984Y16667D1*X12984Y17295*X12357Y16667*X12512Y16510*X12827Y16510*X12827Y11580D2*X12827Y11737D1*X12200Y11737*X11892Y11265D2*X11265Y11265D1*X11735Y11737*X11735Y10795*X12200Y10795D2*X12200Y10952D1*X12827Y11580*X13764Y11580D2*X13607Y11737D1*X13292Y11737*X13137Y11580*X13137Y10952*X13292Y10795D2*X13607Y10795D1*X13764Y10952*X13764Y11580*X13137Y10952*X13292Y10795*D107*X19301Y82321D2*X19695Y82517D1*X20081Y82733*X20452Y82964*X20815Y83215*X21163Y83482*X21499Y83767*X21821Y84066*X22128Y84381*X22418Y84709*X22692Y85052*X22951Y85408*X23193Y85776*X23414Y86157*X23619Y86545*X23802Y86944*X23970Y87351*X24115Y87765*X24239Y88186*X24346Y88613*X24430Y89045*X24493Y89479*X24536Y89919*X24557Y90355*X24557Y90797*X24536Y91234*X24493Y91674*X24430Y92108*X24346Y92540*X24239Y92967*X24115Y93388*X23970Y93802*X23802Y94209*X23619Y94607*X23414Y94996*X23193Y95377*X22951Y95745*X22692Y96101*X22418Y96444*X22128Y96771*X21821Y97086*X21499Y97386*X21163Y97671*X20815Y97937*X20452Y98189*X20081Y98420*X19695Y98636*X19301Y98831*X8192Y136614D2*X8192Y153124D1*X19304Y153124*X19301Y153124D2*X19695Y152928D1*X20081Y152712*X20452Y152481*X20815Y152230*X21163Y151963*X21499Y151679*X21821Y151379*X22128Y151064*X22418Y150736*X22692Y150393*X22951Y150038*X23193Y149670*X23414Y149288*X23619Y148900*X23802Y148501*X23970Y148095*X24115Y147681*X24239Y147259*X24346Y146832*X24430Y146401*X24493Y145966*X24536Y145527*X24557Y145090*X24557Y144648*X24536Y144211*X24493Y143772*X24430Y143337*X24346Y142905*X24239Y142479*X24115Y142057*X23970Y141643*X23802Y141237*X23619Y140838*X23414Y140449*X23193Y140068*X22951Y139700*X22692Y139344*X22418Y139002*X22128Y138674*X21821Y138359*X21499Y138059*X21163Y137775*X20815Y137508*X20452Y137257*X20081Y137025*X19695Y136809*X19301Y136614*X8192Y136614D2*X19304Y136614D1*X8192Y118516D2*X8192Y135026D1*X19304Y135026*X19301Y135026D2*X19695Y134831D1*X20081Y134615*X20452Y134384*X20815Y134132*X21163Y133866*X21499Y133581*X21821Y133281*X22128Y132966*X22418Y132639*X22692Y132296*X22951Y131940*X23193Y131572*X23414Y131191*X23619Y130802*X23802Y130404*X23970Y129997*X24115Y129583*X24239Y129162*X24346Y128735*X24430Y128303*X24493Y127869*X24536Y127429*X24557Y126992*X24557Y126550*X24536Y126114*X24493Y125674*X24430Y125240*X24346Y124808*X24239Y124381*X24115Y123960*X23970Y123546*X23802Y123139*X23619Y122740*X23414Y122352*X23193Y121971*X22951Y121602*X22692Y121247*X22418Y120904*X22128Y120576*X21821Y120261*X21499Y119962*X21163Y119677*X20815Y119410*X20452Y119159*X20081Y118928*X19695Y118712*X19301Y118516*X8192Y118516D2*X19304Y118516D1*X8192Y100419D2*X8192Y116929D1*X19304Y116929*X19301Y116929D2*X19695Y116733D1*X20081Y116517*X20452Y116286*X20815Y116035*X21163Y115768*X21499Y115484*X21821Y115184*X22128Y114869*X22418Y114541*X22692Y114198*X22951Y113843*X23193Y113474*X23414Y113094*X23619Y112705*X23802Y112306*X23970Y111900*X24115Y111486*X24239Y111064*X24346Y110637*X24430Y110206*X24493Y109771*X24536Y109332*X24557Y108895*X24557Y108453*X24536Y108016*X24493Y107577*X24430Y107142*X24346Y106710*X24239Y106284*X24115Y105862*X23970Y105448*X23802Y105042*X23619Y104643*X23414Y104254*X23193Y103873*X22951Y103505*X22692Y103149*X22418Y102806*X22128Y102479*X21821Y102164*X21499Y101864*X21163Y101580*X20815Y101313*X20452Y101062*X20081Y100830*X19695Y100614*X19301Y100419*X8192Y100419D2*X19304Y100419D1*X8192Y82321D2*X8192Y98831D1*X19304Y98831*X50419Y65814D2*X51153Y66622D1*X51849Y67467*X52502Y68344*X53111Y69251*X53678Y70188*X54196Y71148*X54668Y72136*X55093Y73144*X55466Y74171*X55791Y75214*X56063Y76274*X56286Y77343*X56454Y78425*X56571Y79512*X56637Y80602*X56647Y81697*X56606Y82789*X56510Y83878*X56365Y84960*X56164Y86035*X55913Y87099*X55611Y88151*X55258Y89184*X54854Y90200*X54402Y91196*X53904Y92169*X53358Y93116*X52766Y94036*X52131Y94927*X51453Y95786*X50736Y96609*X39942Y96609*X39624Y65811D2*X50419Y65811D1*X39624Y65814D2*X40358Y66622D1*X41054Y67467*X41707Y68344*X42316Y69251*X42883Y70188*X43401Y71148*X43873Y72136*X44298Y73144*X44671Y74171*X44996Y75214*X45268Y76274*X45491Y77343*X45659Y78425*X45776Y79512*X45842Y80602*X45852Y81697*X45811Y82789*X45715Y83878*X45570Y84960*X45369Y86035*X45118Y87099*X44816Y88151*X44463Y89184*X44059Y90200*X43607Y91196*X43109Y92169*X42563Y93116*X41971Y94036*X41336Y94927*X40658Y95786*X39942Y96609*X8192Y82321D2*X19304Y82321D1*X8192Y64224D2*X8192Y80734D1*X19304Y80734*X19301Y80734D2*X19695Y80538D1*X20081Y80322*X20452Y80091*X20815Y79840*X21163Y79573*X21499Y79289*X21821Y78989*X22128Y78674*X22418Y78346*X22692Y78003*X22951Y77648*X23193Y77280*X23414Y76898*X23619Y76510*X23802Y76111*X23970Y75705*X24115Y75291*X24239Y74869*X24346Y74442*X24430Y74011*X24493Y73576*X24536Y73137*X24557Y72700*X24557Y72258*X24536Y71821*X24493Y71382*X24430Y70947*X24346Y70515*X24239Y70089*X24115Y69667*X23970Y69253*X23802Y68847*X23619Y68448*X23414Y68059*X23193Y67678*X22951Y67310*X22692Y66954*X22418Y66612*X22128Y66284*X21821Y65969*X21499Y65669*X21163Y65385*X20815Y65118*X20452Y64867*X20081Y64635*X19695Y64419*X19301Y64224*X8192Y64224D2*X19304Y64224D1*X8192Y46126D2*X8192Y62636D1*X19304Y62636*X19301Y62636D2*X19695Y62441D1*X20081Y62225*X20452Y61994*X20815Y61742*X21163Y61476*X21499Y61191*X21821Y60891*X22128Y60576*X22418Y60249*X22692Y59906*X22951Y59550*X23193Y59182*X23414Y58801*X23619Y58412*X23802Y58014*X23970Y57607*X24115Y57193*X24239Y56772*X24346Y56345*X24430Y55913*X24493Y55479*X24536Y55039*X24557Y54602*X24557Y54160*X24536Y53724*X24493Y53284*X24430Y52850*X24346Y52418*X24239Y51991*X24115Y51570*X23970Y51156*X23802Y50749*X23619Y50350*X23414Y49962*X23193Y49581*X22951Y49212*X22692Y48857*X22418Y48514*X22128Y48186*X21821Y47871*X21499Y47572*X21163Y47287*X20815Y47020*X20452Y46769*X20081Y46538*X19695Y46322*X19301Y46126*X8192Y46126D2*X19304Y46126D1*X8192Y28029D2*X8192Y44539D1*X19304Y44539*X19301Y44539D2*X19695Y44343D1*X20081Y44127*X20452Y43896*X20815Y43645*X21163Y43378*X21499Y43094*X21821Y42794*X22128Y42479*X22418Y42151*X22692Y41808*X22951Y41453*X23193Y41084*X23414Y40704*X23619Y40315*X23802Y39916*X23970Y39510*X24115Y39096*X24239Y38674*X24346Y38247*X24430Y37816*X24493Y37381*X24536Y36942*X24557Y36505*X24557Y36063*X24536Y35626*X24493Y35187*X24430Y34752*X24346Y34320*X24239Y33894*X24115Y33472*X23970Y33058*X23802Y32652*X23619Y32253*X23414Y31864*X23193Y31483*X22951Y31115*X22692Y30759*X22418Y30416*X22128Y30089*X21821Y29774*X21499Y29474*X21163Y29190*X20815Y28923*X20452Y28672*X20081Y28440*X19695Y28224*X19301Y28029*X8192Y28029D2*X19304Y28029D1*X8192Y9614D2*X8192Y26124D1*X19304Y26124*X19301Y26124D2*X19695Y25928D1*X20081Y25712*X20452Y25481*X20815Y25230*X21163Y24963*X21499Y24679*X21821Y24379*X22128Y24064*X22418Y23736*X22692Y23393*X22951Y23038*X23193Y22670*X23414Y22288*X23619Y21900*X23802Y21501*X23970Y21095*X24115Y20681*X24239Y20259*X24346Y19832*X24430Y19401*X24493Y18966*X24536Y18527*X24557Y18090*X24557Y17648*X24536Y17211*X24493Y16772*X24430Y16337*X24346Y15905*X24239Y15479*X24115Y15057*X23970Y14643*X23802Y14237*X23619Y13838*X23414Y13449*X23193Y13068*X22951Y12700*X22692Y12344*X22418Y12002*X22128Y11674*X21821Y11359*X21499Y11059*X21163Y10775*X20815Y10508*X20452Y10257*X20081Y10025*X19695Y9809*X19301Y9614*X8192Y9614D2*X19304Y9614D1*D108*X54420Y105245D2*X54420Y99403D1*X52134Y99403D2*X52134Y105245D1*X49530Y94005D2*X49530Y90322D1*X51308Y90322D2*X51308Y94005D1*X51435Y91148D2*X51435Y87465D1*X53213Y87465D2*X53213Y91148D1*X57760Y80150D2*X57668Y80223D1*X57582Y80305*X57503Y80394*X57432Y80485*X57368Y80584*X57310Y80688*X57262Y80795*X57221Y80904*X57191Y81018*X57168Y81135*X57155Y81252*X57150Y81369*X59609Y82573D2*X59698Y82497D1*X59781Y82418*X59858Y82329*X59926Y82238*X59987Y82141*X60043Y82039*X60089Y81933*X60129Y81824*X60160Y81712*X60180Y81600*X60193Y81483*X60198Y81369*X59609Y80165D2*X59698Y80241D1*X59781Y80320*X59858Y80409*X59926Y80500*X59987Y80597*X60043Y80698*X60089Y80805*X60129Y80914*X60160Y81026*X60180Y81138*X60193Y81255*X60198Y81369*X57788Y82608D2*X57694Y82535D1*X57605Y82453*X57521Y82365*X57445Y82271*X57379Y82172*X57320Y82067*X57267Y81956*X57226Y81844*X57193Y81727*X57170Y81610*X57155Y81488*X57150Y81369*X52578Y74638D2*X52578Y70955D1*X50800Y70955D2*X50800Y74638D1*X50673Y71780D2*X50673Y68097D1*X48895Y68097D2*X48895Y71780D1*X44260Y55588D2*X44260Y61430D1*X41974Y61430D2*X41974Y55588D1*X38354Y69558D2*X38240Y69553D1*X38123Y69540*X38011Y69520*X37899Y69489*X37790Y69449*X37683Y69403*X37582Y69347*X37485Y69286*X37394Y69218*X37305Y69141*X37226Y69058*X37150Y68969*X38354Y66510D2*X38235Y66515D1*X38113Y66530*X37996Y66553*X37879Y66586*X37767Y66627*X37656Y66680*X37551Y66738*X37452Y66805*X37358Y66881*X37269Y66965*X37188Y67053*X37114Y67147*X38354Y69558D2*X38468Y69553D1*X38585Y69540*X38697Y69520*X38809Y69489*X38918Y69449*X39025Y69403*X39126Y69347*X39223Y69286*X39314Y69218*X39403Y69141*X39482Y69058*X39558Y68969*X38354Y66510D2*X38471Y66515D1*X38588Y66528*X38705Y66551*X38819Y66581*X38928Y66622*X39035Y66670*X39139Y66728*X39238Y66792*X39329Y66863*X39418Y66942*X39500Y67028*X39573Y67120*X38354Y93180D2*X38235Y93185D1*X38113Y93200*X37996Y93223*X37879Y93256*X37767Y93297*X37656Y93350*X37551Y93408*X37452Y93475*X37358Y93551*X37269Y93635*X37188Y93723*X37114Y93817*X38354Y96228D2*X38240Y96223D1*X38123Y96210*X38011Y96190*X37899Y96159*X37790Y96119*X37683Y96073*X37582Y96017*X37485Y95956*X37394Y95888*X37305Y95811*X37226Y95728*X37150Y95639*X38354Y93180D2*X38471Y93185D1*X38588Y93198*X38705Y93221*X38819Y93251*X38928Y93292*X39035Y93340*X39139Y93398*X39238Y93462*X39329Y93533*X39418Y93612*X39500Y93698*X39573Y93790*X38354Y96228D2*X38468Y96223D1*X38585Y96210*X38697Y96190*X38809Y96159*X38918Y96119*X39025Y96073*X39126Y96017*X39223Y95956*X39314Y95888*X39403Y95811*X39482Y95728*X39558Y95639*X38354Y89370D2*X38235Y89375D1*X38113Y89390*X37996Y89413*X37879Y89446*X37767Y89487*X37656Y89540*X37551Y89598*X37452Y89665*X37358Y89741*X37269Y89825*X37188Y89913*X37114Y90007*X38354Y92418D2*X38240Y92413D1*X38123Y92400*X38011Y92380*X37899Y92349*X37790Y92309*X37683Y92263*X37582Y92207*X37485Y92146*X37394Y92078*X37305Y92001*X37226Y91918*X37150Y91829*X38354Y89370D2*X38471Y89375D1*X38588Y89388*X38705Y89411*X38819Y89441*X38928Y89482*X39035Y89530*X39139Y89588*X39238Y89652*X39329Y89723*X39418Y89802*X39500Y89888*X39573Y89980*X38354Y92418D2*X38468Y92413D1*X38585Y92400*X38697Y92380*X38809Y92349*X38918Y92309*X39025Y92263*X39126Y92207*X39223Y92146*X39314Y92078*X39403Y92001*X39482Y91918*X39558Y91829*X38354Y85560D2*X38235Y85565D1*X38113Y85580*X37996Y85603*X37879Y85636*X37767Y85677*X37656Y85730*X37551Y85788*X37452Y85855*X37358Y85931*X37269Y86015*X37188Y86103*X37114Y86197*X38354Y88608D2*X38240Y88603D1*X38123Y88590*X38011Y88570*X37899Y88539*X37790Y88499*X37683Y88453*X37582Y88397*X37485Y88336*X37394Y88268*X37305Y88191*X37226Y88108*X37150Y88019*X38354Y85560D2*X38471Y85565D1*X38588Y85578*X38705Y85601*X38819Y85631*X38928Y85672*X39035Y85720*X39139Y85778*X39238Y85842*X39329Y85913*X39418Y85992*X39500Y86078*X39573Y86170*X38354Y88608D2*X38468Y88603D1*X38585Y88590*X38697Y88570*X38809Y88539*X38918Y88499*X39025Y88453*X39126Y88397*X39223Y88336*X39314Y88268*X39403Y88191*X39482Y88108*X39558Y88019*X38354Y81750D2*X38235Y81755D1*X38113Y81770*X37996Y81793*X37879Y81826*X37767Y81867*X37656Y81920*X37551Y81978*X37452Y82045*X37358Y82121*X37269Y82205*X37188Y82293*X37114Y82387*X38354Y84798D2*X38240Y84793D1*X38123Y84780*X38011Y84760*X37899Y84729*X37790Y84689*X37683Y84643*X37582Y84587*X37485Y84526*X37394Y84458*X37305Y84381*X37226Y84298*X37150Y84209*X38354Y81750D2*X38471Y81755D1*X38588Y81768*X38705Y81791*X38819Y81821*X38928Y81862*X39035Y81910*X39139Y81968*X39238Y82032*X39329Y82103*X39418Y82182*X39500Y82268*X39573Y82360*X38354Y84798D2*X38468Y84793D1*X38585Y84780*X38697Y84760*X38809Y84729*X38918Y84689*X39025Y84643*X39126Y84587*X39223Y84526*X39314Y84458*X39403Y84381*X39482Y84298*X39558Y84209*X38354Y77940D2*X38235Y77945D1*X38113Y77960*X37996Y77983*X37879Y78016*X37767Y78057*X37656Y78110*X37551Y78168*X37452Y78235*X37358Y78311*X37269Y78395*X37188Y78483*X37114Y78577*X38354Y80988D2*X38240Y80983D1*X38123Y80970*X38011Y80950*X37899Y80919*X37790Y80879*X37683Y80833*X37582Y80777*X37485Y80716*X37394Y80648*X37305Y80571*X37226Y80488*X37150Y80399*X38354Y77940D2*X38471Y77945D1*X38588Y77958*X38705Y77981*X38819Y78011*X38928Y78052*X39035Y78100*X39139Y78158*X39238Y78222*X39329Y78293*X39418Y78372*X39500Y78458*X39573Y78550*X38354Y80988D2*X38468Y80983D1*X38585Y80970*X38697Y80950*X38809Y80919*X38918Y80879*X39025Y80833*X39126Y80777*X39223Y80716*X39314Y80648*X39403Y80571*X39482Y80488*X39558Y80399*X38354Y74130D2*X38235Y74135D1*X38113Y74150*X37996Y74173*X37879Y74206*X37767Y74247*X37656Y74300*X37551Y74358*X37452Y74425*X37358Y74501*X37269Y74585*X37188Y74673*X37114Y74767*X38354Y77178D2*X38240Y77173D1*X38123Y77160*X38011Y77140*X37899Y77109*X37790Y77069*X37683Y77023*X37582Y76967*X37485Y76906*X37394Y76838*X37305Y76761*X37226Y76678*X37150Y76589*X38354Y74130D2*X38471Y74135D1*X38588Y74148*X38705Y74171*X38819Y74201*X38928Y74242*X39035Y74290*X39139Y74348*X39238Y74412*X39329Y74483*X39418Y74562*X39500Y74648*X39573Y74740*X38354Y77178D2*X38468Y77173D1*X38585Y77160*X38697Y77140*X38809Y77109*X38918Y77069*X39025Y77023*X39126Y76967*X39223Y76906*X39314Y76838*X39403Y76761*X39482Y76678*X39558Y76589*X37150Y72779D2*X37226Y72868D1*X37305Y72951*X37394Y73028*X37485Y73096*X37582Y73157*X37683Y73213*X37790Y73259*X37899Y73299*X38011Y73330*X38123Y73350*X38240Y73363*X38354Y73368*X39573Y70930D2*X39500Y70838D1*X39418Y70752*X39329Y70673*X39238Y70602*X39139Y70538*X39035Y70480*X38928Y70432*X38819Y70391*X38705Y70361*X38588Y70338*X38471Y70325*X38354Y70320*X37114Y70957D2*X37188Y70863D1*X37269Y70775*X37358Y70691*X37452Y70615*X37551Y70548*X37656Y70490*X37767Y70437*X37879Y70396*X37996Y70363*X38113Y70340*X38235Y70325*X38354Y70320*X39558Y72779D2*X39482Y72868D1*X39403Y72951*X39314Y73028*X39223Y73096*X39126Y73157*X39025Y73213*X38918Y73259*X38809Y73299*X38697Y73330*X38585Y73350*X38468Y73363*X38354Y73368*X27521Y73698D2*X27612Y73624D1*X27699Y73543*X27777Y73454*X27849Y73363*X27912Y73264*X27970Y73160*X28019Y73053*X28059Y72944*X28090Y72829*X28113Y72713*X28125Y72596*X28130Y72479*X25672Y71275D2*X25583Y71351D1*X25499Y71430*X25423Y71519*X25354Y71610*X25293Y71707*X25237Y71808*X25192Y71915*X25151Y72024*X25121Y72136*X25100Y72248*X25088Y72365*X25082Y72479*X25672Y73683D2*X25583Y73607D1*X25499Y73528*X25423Y73439*X25354Y73348*X25293Y73251*X25237Y73149*X25192Y73043*X25151Y72934*X25121Y72822*X25100Y72710*X25088Y72593*X25082Y72479*X27493Y71239D2*X27587Y71313D1*X27676Y71394*X27760Y71483*X27836Y71577*X27902Y71676*X27960Y71780*X28014Y71892*X28054Y72004*X28087Y72121*X28110Y72238*X28125Y72360*X28130Y72479*X27203Y91796D2*X27295Y91722D1*X27381Y91641*X27460Y91552*X27531Y91460*X27595Y91361*X27653Y91257*X27701Y91150*X27742Y91041*X27772Y90927*X27795Y90810*X27808Y90693*X27813Y90576*X25354Y89372D2*X25265Y89449D1*X25182Y89527*X25105Y89616*X25037Y89708*X24976Y89804*X24920Y89906*X24874Y90013*X24834Y90122*X24803Y90234*X24783Y90345*X24770Y90462*X24765Y90576*X25354Y91780D2*X25265Y91704D1*X25182Y91625*X25105Y91537*X25037Y91445*X24976Y91349*X24920Y91247*X24874Y91140*X24834Y91031*X24803Y90919*X24783Y90808*X24770Y90691*X24765Y90576*X27175Y89337D2*X27269Y89411D1*X27358Y89492*X27442Y89581*X27518Y89675*X27584Y89774*X27643Y89878*X27696Y89990*X27737Y90101*X27770Y90218*X27793Y90335*X27808Y90457*X27813Y90576*X16510Y110960D2*X20193Y110960D1*X20193Y112738D2*X16510Y112738D1*X16510Y147155D2*X20193Y147155D1*X20193Y148933D2*X16510Y148933D1*X25806Y153916D2*X25806Y155001D1*X26347Y154457D2*X25263Y154457D1*X36195Y150711D2*X30353Y150711D1*X39464Y155273D2*X39464Y154188D1*X38923Y153645*X38379Y154188*X38379Y155273*X37828Y155001D2*X37556Y155273D1*X37015Y155273*X36744Y155001*X36744Y153916*X37015Y153645D2*X37556Y153645D1*X37828Y153916*X37828Y155001*X36744Y153916*X37015Y153645*X30353Y152997D2*X36195Y152997D1*X29621Y155273D2*X29621Y154188D1*X29080Y153645*X28537Y154188*X28537Y155273*X27986Y155273D2*X26901Y155273D1*X26901Y154457*X27442Y154729*X27714Y154729*X27986Y154457*X27986Y153916*X27714Y153645*X27173Y153645*X26901Y153916*X25672Y143982D2*X25583Y144059D1*X25499Y144137*X25423Y144226*X25354Y144318*X25293Y144414*X25237Y144516*X25192Y144623*X25151Y144732*X25121Y144844*X25100Y144955*X25088Y145072*X25082Y145186*X27521Y146406D2*X27612Y146332D1*X27699Y146251*X27777Y146162*X27849Y146070*X27912Y145971*X27970Y145867*X28019Y145760*X28059Y145651*X28090Y145537*X28113Y145420*X28125Y145303*X28130Y145186*X27493Y143947D2*X27587Y144021D1*X27676Y144102*X27760Y144191*X27836Y144285*X27902Y144384*X27960Y144488*X28014Y144600*X28054Y144711*X28087Y144828*X28110Y144945*X28125Y145067*X28130Y145186*X25672Y146390D2*X25583Y146314D1*X25499Y146235*X25423Y146147*X25354Y146055*X25293Y145959*X25237Y145857*X25192Y145750*X25151Y145641*X25121Y145529*X25100Y145418*X25088Y145301*X25082Y145186*X27521Y128308D2*X27612Y128234D1*X27699Y128153*X27777Y128064*X27849Y127973*X27912Y127874*X27970Y127770*X28019Y127663*X28059Y127554*X28090Y127439*X28113Y127323*X28125Y127206*X28130Y127089*X25672Y125885D2*X25583Y125961D1*X25499Y126040*X25423Y126129*X25354Y126220*X25293Y126317*X25237Y126418*X25192Y126525*X25151Y126634*X25121Y126746*X25100Y126858*X25088Y126975*X25082Y127089*X25672Y128293D2*X25583Y128217D1*X25499Y128138*X25423Y128049*X25354Y127958*X25293Y127861*X25237Y127759*X25192Y127653*X25151Y127544*X25121Y127432*X25100Y127320*X25088Y127203*X25082Y127089*X27493Y125849D2*X27587Y125923D1*X27676Y126004*X27760Y126093*X27836Y126187*X27902Y126286*X27960Y126390*X28014Y126502*X28054Y126614*X28087Y126731*X28110Y126848*X28125Y126970*X28130Y127089*X26860Y132550D2*X26860Y136233D1*X25082Y136233D2*X25082Y132550D1*X23368Y146710D2*X23368Y143027D1*X21590Y143027D2*X21590Y146710D1*X16510Y142583D2*X20193Y142583D1*X20193Y140805D2*X16510Y140805D1*X16510Y130835D2*X20193Y130835D1*X20193Y129057D2*X16510Y129057D1*X16510Y122707D2*X20193Y122707D1*X20193Y124485D2*X16510Y124485D1*X21590Y128930D2*X21590Y125247D1*X23368Y125247D2*X23368Y128930D1*X26860Y118770D2*X26860Y115087D1*X25082Y115087D2*X25082Y118770D1*X25354Y107470D2*X25265Y107546D1*X25182Y107625*X25105Y107714*X25037Y107805*X24976Y107902*X24920Y108003*X24874Y108110*X24834Y108219*X24803Y108331*X24783Y108443*X24770Y108560*X24765Y108674*X27203Y109893D2*X27295Y109819D1*X27381Y109738*X27460Y109649*X27531Y109558*X27595Y109459*X27653Y109355*X27701Y109248*X27742Y109139*X27772Y109024*X27795Y108908*X27808Y108791*X27813Y108674*X27175Y107434D2*X27269Y107508D1*X27358Y107589*X27442Y107678*X27518Y107772*X27584Y107871*X27643Y107975*X27696Y108087*X27737Y108199*X27770Y108316*X27793Y108433*X27808Y108555*X27813Y108674*X25354Y109878D2*X25265Y109802D1*X25182Y109723*X25105Y109634*X25037Y109543*X24976Y109446*X24920Y109344*X24874Y109238*X24834Y109129*X24803Y109017*X24783Y108905*X24770Y108788*X24765Y108674*X26860Y98260D2*X26860Y101943D1*X25082Y101943D2*X25082Y98260D1*X23368Y110515D2*X23368Y106832D1*X21590Y106832D2*X21590Y110515D1*X16510Y106388D2*X20193Y106388D1*X20193Y104610D2*X16510Y104610D1*X16510Y94640D2*X20193Y94640D1*X20193Y92862D2*X16510Y92862D1*X16828Y86512D2*X20510Y86512D1*X20510Y88290D2*X16828Y88290D1*X21590Y92735D2*X21590Y89052D1*X23368Y89052D2*X23368Y92735D1*X27813Y84163D2*X24130Y84163D1*X24130Y82385D2*X27813Y82385D1*X27813Y80353D2*X24130Y80353D1*X24130Y78575D2*X27813Y78575D1*X23368Y70320D2*X23368Y74003D1*X21590Y74003D2*X21590Y70320D1*X16510Y76543D2*X20193Y76543D1*X20193Y74765D2*X16510Y74765D1*X16510Y70193D2*X20193Y70193D1*X20193Y68415D2*X16510Y68415D1*X25082Y41110D2*X25082Y44793D1*X26860Y44793D2*X26860Y41110D1*X27521Y55283D2*X27612Y55209D1*X27699Y55128*X27777Y55039*X27849Y54948*X27912Y54849*X27970Y54745*X28019Y54638*X28059Y54529*X28090Y54414*X28113Y54298*X28125Y54181*X28130Y54064*X25672Y52860D2*X25583Y52936D1*X25499Y53015*X25423Y53104*X25354Y53195*X25293Y53292*X25237Y53393*X25192Y53500*X25151Y53609*X25121Y53721*X25100Y53833*X25088Y53950*X25082Y54064*X25672Y55268D2*X25583Y55192D1*X25499Y55113*X25423Y55024*X25354Y54933*X25293Y54836*X25237Y54734*X25192Y54628*X25151Y54519*X25121Y54407*X25100Y54295*X25088Y54178*X25082Y54064*X27493Y52824D2*X27587Y52898D1*X27676Y52979*X27760Y53068*X27836Y53162*X27902Y53261*X27960Y53365*X28014Y53477*X28054Y53589*X28087Y53706*X28110Y53823*X28125Y53945*X28130Y54064*X26860Y61938D2*X26860Y58255D1*X25082Y58255D2*X25082Y61938D1*X23368Y52222D2*X23368Y55905D1*X21590Y55905D2*X21590Y52222D1*X16510Y58445D2*X20193Y58445D1*X20193Y56667D2*X16510Y56667D1*X16510Y52095D2*X20193Y52095D1*X20193Y50317D2*X16510Y50317D1*X16510Y40348D2*X20193Y40348D1*X20193Y38570D2*X16510Y38570D1*X16510Y32220D2*X20193Y32220D1*X20193Y33998D2*X16510Y33998D1*X21590Y38125D2*X21590Y34442D1*X23368Y34442D2*X23368Y38125D1*X25672Y35080D2*X25583Y35156D1*X25499Y35235*X25423Y35324*X25354Y35415*X25293Y35512*X25237Y35613*X25192Y35720*X25151Y35829*X25121Y35941*X25100Y36053*X25088Y36170*X25082Y36284*X27521Y37503D2*X27612Y37429D1*X27699Y37348*X27777Y37259*X27849Y37168*X27912Y37069*X27970Y36965*X28019Y36858*X28059Y36749*X28090Y36634*X28113Y36518*X28125Y36401*X28130Y36284*X27493Y35044D2*X27587Y35118D1*X27676Y35199*X27760Y35288*X27836Y35382*X27902Y35481*X27960Y35585*X28014Y35697*X28054Y35809*X28087Y35926*X28110Y36043*X28125Y36165*X28130Y36284*X25672Y37488D2*X25583Y37412D1*X25499Y37333*X25423Y37244*X25354Y37153*X25293Y37056*X25237Y36954*X25192Y36848*X25151Y36739*X25121Y36627*X25100Y36515*X25088Y36398*X25082Y36284*X37031Y6833D2*X37574Y7376D1*X37574Y7917*X37031Y8461*X35395Y7917D2*X35936Y8461D1*X35936Y6833*X35395Y6833D2*X36479Y6833D1*X34846Y6833D2*X34303Y7376D1*X34303Y7917*X34846Y8461*X34608Y11646D2*X28766Y11646D1*X28766Y13932D2*X34608Y13932D1*X27521Y19088D2*X27612Y19014D1*X27699Y18933*X27777Y18844*X27849Y18753*X27912Y18654*X27970Y18550*X28019Y18443*X28059Y18334*X28090Y18219*X28113Y18103*X28125Y17986*X28130Y17869*X25672Y16665D2*X25583Y16741D1*X25499Y16820*X25423Y16909*X25354Y17000*X25293Y17097*X25237Y17198*X25192Y17305*X25151Y17414*X25121Y17526*X25100Y17638*X25088Y17755*X25082Y17869*X25672Y19073D2*X25583Y18997D1*X25499Y18918*X25423Y18829*X25354Y18738*X25293Y18641*X25237Y18539*X25192Y18433*X25151Y18324*X25121Y18212*X25100Y18100*X25088Y17983*X25082Y17869*X27493Y16629D2*X27587Y16703D1*X27676Y16784*X27760Y16873*X27836Y16967*X27902Y17066*X27960Y17170*X28014Y17282*X28054Y17394*X28087Y17511*X28110Y17628*X28125Y17750*X28130Y17869*X26860Y27013D2*X26860Y23330D1*X25082Y23330D2*X25082Y27013D1*X23368Y19710D2*X23368Y16027D1*X21590Y16027D2*X21590Y19710D1*X20193Y13805D2*X16510Y13805D1*X16510Y15583D2*X20193Y15583D1*X20193Y20155D2*X16510Y20155D1*X16510Y21933D2*X20193Y21933D1*X6904Y23835D2*X6993Y23759D1*X7076Y23680*X7153Y23592*X7221Y23500*X7282Y23404*X7338Y23302*X7384Y23195*X7424Y23086*X7455Y22974*X7475Y22863*X7488Y22746*X7493Y22631*X5055Y21412D2*X4963Y21486D1*X4877Y21567*X4798Y21656*X4727Y21747*X4663Y21847*X4605Y21951*X4557Y22057*X4516Y22167*X4486Y22281*X4463Y22398*X4450Y22515*X4445Y22631*X5083Y23871D2*X4989Y23797D1*X4900Y23716*X4816Y23627*X4740Y23533*X4674Y23434*X4615Y23330*X4562Y23218*X4521Y23106*X4488Y22990*X4465Y22873*X4450Y22751*X4445Y22631*X6904Y21427D2*X6993Y21504D1*X7076Y21582*X7153Y21671*X7221Y21763*X7282Y21859*X7338Y21961*X7384Y22068*X7424Y22177*X7455Y22288*X7475Y22400*X7488Y22517*X7493Y22631*X6883Y33058D2*X6975Y32984D1*X7061Y32903*X7140Y32814*X7211Y32723*X7275Y32624*X7333Y32520*X7381Y32413*X7422Y32304*X7452Y32189*X7475Y32073*X7488Y31956*X7493Y31839*X5034Y30635D2*X4945Y30711D1*X4862Y30790*X4785Y30879*X4717Y30970*X4656Y31067*X4600Y31168*X4554Y31275*X4514Y31384*X4483Y31496*X4463Y31608*X4450Y31725*X4445Y31839*X5034Y33043D2*X4945Y32967D1*X4862Y32888*X4785Y32799*X4717Y32708*X4656Y32611*X4600Y32509*X4554Y32403*X4514Y32294*X4483Y32182*X4463Y32070*X4450Y31953*X4445Y31839*X6855Y30599D2*X6949Y30673D1*X7038Y30754*X7122Y30843*X7198Y30937*X7264Y31036*X7323Y31140*X7376Y31252*X7417Y31364*X7450Y31481*X7473Y31598*X7488Y31720*X7493Y31839*X6904Y42250D2*X6993Y42174D1*X7076Y42095*X7153Y42007*X7221Y41915*X7282Y41819*X7338Y41717*X7384Y41610*X7424Y41501*X7455Y41389*X7475Y41278*X7488Y41161*X7493Y41046*X5055Y39827D2*X4963Y39901D1*X4877Y39982*X4798Y40071*X4727Y40162*X4663Y40262*X4605Y40366*X4557Y40472*X4516Y40582*X4486Y40696*X4463Y40813*X4450Y40930*X4445Y41046*X5083Y42286D2*X4989Y42212D1*X4900Y42131*X4816Y42042*X4740Y41948*X4674Y41849*X4615Y41745*X4562Y41633*X4521Y41521*X4488Y41405*X4465Y41288*X4450Y41166*X4445Y41046*X6904Y39842D2*X6993Y39919D1*X7076Y39997*X7153Y40086*X7221Y40178*X7282Y40274*X7338Y40376*X7384Y40483*X7424Y40592*X7455Y40704*X7475Y40815*X7488Y40932*X7493Y41046*X6883Y50838D2*X6975Y50764D1*X7061Y50683*X7140Y50594*X7211Y50503*X7275Y50404*X7333Y50300*X7381Y50193*X7422Y50084*X7452Y49969*X7475Y49853*X7488Y49736*X7493Y49619*X5034Y48415D2*X4945Y48491D1*X4862Y48570*X4785Y48659*X4717Y48750*X4656Y48847*X4600Y48948*X4554Y49055*X4514Y49164*X4483Y49276*X4463Y49388*X4450Y49505*X4445Y49619*X5034Y50823D2*X4945Y50747D1*X4862Y50668*X4785Y50579*X4717Y50488*X4656Y50391*X4600Y50289*X4554Y50183*X4514Y50074*X4483Y49962*X4463Y49850*X4450Y49733*X4445Y49619*X6855Y48379D2*X6949Y48453D1*X7038Y48534*X7122Y48623*X7198Y48717*X7264Y48816*X7323Y48920*X7376Y49032*X7417Y49144*X7450Y49261*X7473Y49378*X7488Y49500*X7493Y49619*X6904Y60348D2*X6993Y60272D1*X7076Y60193*X7153Y60104*X7221Y60013*X7282Y59916*X7338Y59814*X7384Y59708*X7424Y59599*X7455Y59487*X7475Y59375*X7488Y59258*X7493Y59144*X5055Y57925D2*X4963Y57998D1*X4877Y58080*X4798Y58169*X4727Y58260*X4663Y58359*X4605Y58463*X4557Y58570*X4516Y58679*X4486Y58793*X4463Y58910*X4450Y59027*X4445Y59144*X5083Y60383D2*X4989Y60310D1*X4900Y60228*X4816Y60140*X4740Y60046*X4674Y59947*X4615Y59842*X4562Y59731*X4521Y59619*X4488Y59502*X4465Y59385*X4450Y59263*X4445Y59144*X6904Y57940D2*X6993Y58016D1*X7076Y58095*X7153Y58184*X7221Y58275*X7282Y58372*X7338Y58473*X7384Y58580*X7424Y58689*X7455Y58801*X7475Y58913*X7488Y59030*X7493Y59144*X6883Y68936D2*X6975Y68862D1*X7061Y68781*X7140Y68692*X7211Y68600*X7275Y68501*X7333Y68397*X7381Y68290*X7422Y68181*X7452Y68067*X7475Y67950*X7488Y67833*X7493Y67716*X5034Y66512D2*X4945Y66589D1*X4862Y66667*X4785Y66756*X4717Y66848*X4656Y66944*X4600Y67046*X4554Y67153*X4514Y67262*X4483Y67374*X4463Y67485*X4450Y67602*X4445Y67716*X5034Y68920D2*X4945Y68844D1*X4862Y68765*X4785Y68677*X4717Y68585*X4656Y68489*X4600Y68387*X4554Y68280*X4514Y68171*X4483Y68059*X4463Y67948*X4450Y67831*X4445Y67716*X6855Y66477D2*X6949Y66551D1*X7038Y66632*X7122Y66721*X7198Y66815*X7264Y66914*X7323Y67018*X7376Y67130*X7417Y67241*X7450Y67358*X7473Y67475*X7488Y67597*X7493Y67716*X6904Y78445D2*X6993Y78369D1*X7076Y78290*X7153Y78202*X7221Y78110*X7282Y78014*X7338Y77912*X7384Y77805*X7424Y77696*X7455Y77584*X7475Y77473*X7488Y77356*X7493Y77241*X5055Y76022D2*X4963Y76096D1*X4877Y76177*X4798Y76266*X4727Y76357*X4663Y76457*X4605Y76561*X4557Y76667*X4516Y76777*X4486Y76891*X4463Y77008*X4450Y77125*X4445Y77241*X5083Y78481D2*X4989Y78407D1*X4900Y78326*X4816Y78237*X4740Y78143*X4674Y78044*X4615Y77940*X4562Y77828*X4521Y77716*X4488Y77600*X4465Y77483*X4450Y77361*X4445Y77241*X6904Y76037D2*X6993Y76114D1*X7076Y76192*X7153Y76281*X7221Y76373*X7282Y76469*X7338Y76571*X7384Y76678*X7424Y76787*X7455Y76898*X7475Y77010*X7488Y77127*X7493Y77241*X6883Y87351D2*X6975Y87277D1*X7061Y87196*X7140Y87107*X7211Y87015*X7275Y86916*X7333Y86812*X7381Y86705*X7422Y86596*X7452Y86482*X7475Y86365*X7488Y86248*X7493Y86131*X5034Y84927D2*X4945Y85004D1*X4862Y85082*X4785Y85171*X4717Y85263*X4656Y85359*X4600Y85461*X4554Y85568*X4514Y85677*X4483Y85788*X4463Y85900*X4450Y86017*X4445Y86131*X5034Y87335D2*X4945Y87259D1*X4862Y87180*X4785Y87092*X4717Y87000*X4656Y86904*X4600Y86802*X4554Y86695*X4514Y86586*X4483Y86474*X4463Y86363*X4450Y86246*X4445Y86131*X6855Y84892D2*X6949Y84966D1*X7038Y85047*X7122Y85136*X7198Y85230*X7264Y85329*X7323Y85433*X7376Y85545*X7417Y85656*X7450Y85773*X7473Y85890*X7488Y86012*X7493Y86131*X6904Y96543D2*X6993Y96467D1*X7076Y96388*X7153Y96299*X7221Y96208*X7282Y96111*X7338Y96009*X7384Y95903*X7424Y95794*X7455Y95682*X7475Y95570*X7488Y95453*X7493Y95339*X5055Y94120D2*X4963Y94193D1*X4877Y94275*X4798Y94364*X4727Y94455*X4663Y94554*X4605Y94658*X4557Y94765*X4516Y94874*X4486Y94988*X4463Y95105*X4450Y95222*X4445Y95339*X5083Y96578D2*X4989Y96505D1*X4900Y96423*X4816Y96335*X4740Y96241*X4674Y96142*X4615Y96037*X4562Y95926*X4521Y95814*X4488Y95697*X4465Y95580*X4450Y95458*X4445Y95339*X6904Y94135D2*X6993Y94211D1*X7076Y94290*X7153Y94379*X7221Y94470*X7282Y94567*X7338Y94668*X7384Y94775*X7424Y94884*X7455Y94996*X7475Y95108*X7488Y95225*X7493Y95339*X6883Y105131D2*X6975Y105057D1*X7061Y104976*X7140Y104887*X7211Y104795*X7275Y104696*X7333Y104592*X7381Y104485*X7422Y104376*X7452Y104262*X7475Y104145*X7488Y104028*X7493Y103911*X5034Y102707D2*X4945Y102784D1*X4862Y102862*X4785Y102951*X4717Y103043*X4656Y103139*X4600Y103241*X4554Y103348*X4514Y103457*X4483Y103568*X4463Y103680*X4450Y103797*X4445Y103911*X5034Y105115D2*X4945Y105039D1*X4862Y104960*X4785Y104872*X4717Y104780*X4656Y104684*X4600Y104582*X4554Y104475*X4514Y104366*X4483Y104254*X4463Y104143*X4450Y104026*X4445Y103911*X6855Y102672D2*X6949Y102746D1*X7038Y102827*X7122Y102916*X7198Y103010*X7264Y103109*X7323Y103213*X7376Y103325*X7417Y103436*X7450Y103553*X7473Y103670*X7488Y103792*X7493Y103911*X6904Y114640D2*X6993Y114564D1*X7076Y114485*X7153Y114397*X7221Y114305*X7282Y114209*X7338Y114107*X7384Y114000*X7424Y113891*X7455Y113779*X7475Y113668*X7488Y113551*X7493Y113436*X5055Y112217D2*X4963Y112291D1*X4877Y112372*X4798Y112461*X4727Y112552*X4663Y112652*X4605Y112756*X4557Y112862*X4516Y112972*X4486Y113086*X4463Y113203*X4450Y113320*X4445Y113436*X5083Y114676D2*X4989Y114602D1*X4900Y114521*X4816Y114432*X4740Y114338*X4674Y114239*X4615Y114135*X4562Y114023*X4521Y113911*X4488Y113795*X4465Y113678*X4450Y113556*X4445Y113436*X6904Y112232D2*X6993Y112309D1*X7076Y112387*X7153Y112476*X7221Y112568*X7282Y112664*X7338Y112766*X7384Y112873*X7424Y112982*X7455Y113094*X7475Y113205*X7488Y113322*X7493Y113436*X6883Y123228D2*X6975Y123154D1*X7061Y123073*X7140Y122984*X7211Y122893*X7275Y122794*X7333Y122690*X7381Y122583*X7422Y122474*X7452Y122359*X7475Y122243*X7488Y122126*X7493Y122009*X5034Y120805D2*X4945Y120881D1*X4862Y120960*X4785Y121049*X4717Y121140*X4656Y121237*X4600Y121338*X4554Y121445*X4514Y121554*X4483Y121666*X4463Y121778*X4450Y121895*X4445Y122009*X5034Y123213D2*X4945Y123137D1*X4862Y123058*X4785Y122969*X4717Y122878*X4656Y122781*X4600Y122679*X4554Y122573*X4514Y122464*X4483Y122352*X4463Y122240*X4450Y122123*X4445Y122009*X6855Y120769D2*X6949Y120843D1*X7038Y120924*X7122Y121013*X7198Y121107*X7264Y121206*X7323Y121310*X7376Y121422*X7417Y121534*X7450Y121651*X7473Y121768*X7488Y121890*X7493Y122009*X6904Y132738D2*X6993Y132662D1*X7076Y132583*X7153Y132494*X7221Y132403*X7282Y132306*X7338Y132204*X7384Y132098*X7424Y131989*X7455Y131877*X7475Y131765*X7488Y131648*X7493Y131534*X5055Y130315D2*X4963Y130388D1*X4877Y130470*X4798Y130559*X4727Y130650*X4663Y130749*X4605Y130853*X4557Y130960*X4516Y131069*X4486Y131183*X4463Y131300*X4450Y131417*X4445Y131534*X5083Y132773D2*X4989Y132700D1*X4900Y132618*X4816Y132530*X4740Y132436*X4674Y132337*X4615Y132232*X4562Y132121*X4521Y132009*X4488Y131892*X4465Y131775*X4450Y131653*X4445Y131534*X6904Y130330D2*X6993Y130406D1*X7076Y130485*X7153Y130574*X7221Y130665*X7282Y130762*X7338Y130863*X7384Y130970*X7424Y131079*X7455Y131191*X7475Y131303*X7488Y131420*X7493Y131534*X6883Y141326D2*X6975Y141252D1*X7061Y141171*X7140Y141082*X7211Y140990*X7275Y140891*X7333Y140787*X7381Y140680*X7422Y140571*X7452Y140457*X7475Y140340*X7488Y140223*X7493Y140106*X5034Y138902D2*X4945Y138979D1*X4862Y139057*X4785Y139146*X4717Y139238*X4656Y139334*X4600Y139436*X4554Y139543*X4514Y139652*X4483Y139764*X4463Y139875*X4450Y139992*X4445Y140106*X5034Y141310D2*X4945Y141234D1*X4862Y141155*X4785Y141067*X4717Y140975*X4656Y140879*X4600Y140777*X4554Y140670*X4514Y140561*X4483Y140449*X4463Y140338*X4450Y140221*X4445Y140106*X6855Y138867D2*X6949Y138941D1*X7038Y139022*X7122Y139111*X7198Y139205*X7264Y139304*X7323Y139408*X7376Y139520*X7417Y139631*X7450Y139748*X7473Y139865*X7488Y139987*X7493Y140106*X6904Y150835D2*X6993Y150759D1*X7076Y150680*X7153Y150592*X7221Y150500*X7282Y150404*X7338Y150302*X7384Y150195*X7424Y150086*X7455Y149974*X7475Y149863*X7488Y149746*X7493Y149631*X5055Y148412D2*X4963Y148486D1*X4877Y148567*X4798Y148656*X4727Y148747*X4663Y148847*X4605Y148951*X4557Y149057*X4516Y149167*X4486Y149281*X4463Y149398*X4450Y149515*X4445Y149631*X5083Y150871D2*X4989Y150797D1*X4900Y150716*X4816Y150627*X4740Y150533*X4674Y150434*X4615Y150330*X4562Y150218*X4521Y150106*X4488Y149990*X4465Y149873*X4450Y149751*X4445Y149631*X6904Y148427D2*X6993Y148504D1*X7076Y148582*X7153Y148671*X7221Y148763*X7282Y148859*X7338Y148961*X7384Y149068*X7424Y149177*X7455Y149288*X7475Y149400*X7488Y149517*X7493Y149631*X14160Y152425D2*X10478Y152425D1*X10478Y150647D2*X14160Y150647D1*X14160Y146710D2*X10478Y146710D1*X10478Y144932D2*X14160Y144932D1*X14160Y144805D2*X10478Y144805D1*X10478Y143027D2*X14160Y143027D1*X14160Y139090D2*X10478Y139090D1*X10478Y137312D2*X14160Y137312D1*X14160Y134328D2*X10478Y134328D1*X10478Y132550D2*X14160Y132550D1*X14160Y128613D2*X10478Y128613D1*X10478Y126835D2*X14160Y126835D1*X14160Y126708D2*X10478Y126708D1*X10478Y124930D2*X14160Y124930D1*X14160Y120993D2*X10478Y120993D1*X10478Y119215D2*X14160Y119215D1*X14160Y116230D2*X10478Y116230D1*X10478Y114452D2*X14160Y114452D1*X14160Y110515D2*X10478Y110515D1*X10478Y108737D2*X14160Y108737D1*X14160Y108610D2*X10478Y108610D1*X10478Y106832D2*X14160Y106832D1*X14160Y102895D2*X10478Y102895D1*X10478Y101117D2*X14160Y101117D1*X14160Y98133D2*X10478Y98133D1*X10478Y96355D2*X14160Y96355D1*X14160Y92418D2*X10478Y92418D1*X10478Y90640D2*X14160Y90640D1*X14160Y90513D2*X10478Y90513D1*X10478Y88735D2*X14160Y88735D1*X14160Y84798D2*X10478Y84798D1*X10478Y83020D2*X14160Y83020D1*X14160Y80035D2*X10478Y80035D1*X10478Y78257D2*X14160Y78257D1*X14160Y74320D2*X10478Y74320D1*X10478Y72542D2*X14160Y72542D1*X14160Y72415D2*X10478Y72415D1*X10478Y70637D2*X14160Y70637D1*X14160Y66700D2*X10478Y66700D1*X10478Y64922D2*X14160Y64922D1*X14160Y61938D2*X10478Y61938D1*X10478Y60160D2*X14160Y60160D1*X14160Y56223D2*X10478Y56223D1*X10478Y54445D2*X14160Y54445D1*X14160Y54318D2*X10478Y54318D1*X10478Y52540D2*X14160Y52540D1*X14160Y48603D2*X10478Y48603D1*X10478Y46825D2*X14160Y46825D1*X14160Y43840D2*X10478Y43840D1*X10478Y42062D2*X14160Y42062D1*X14160Y38125D2*X10478Y38125D1*X10478Y36347D2*X14160Y36347D1*X14160Y36220D2*X10478Y36220D1*X10478Y34442D2*X14160Y34442D1*X14160Y30505D2*X10478Y30505D1*X10478Y28727D2*X14160Y28727D1*X14160Y25425D2*X10478Y25425D1*X10478Y23647D2*X14160Y23647D1*X14160Y19710D2*X10478Y19710D1*X10478Y17932D2*X14160Y17932D1*X14160Y17805D2*X10478Y17805D1*X10478Y16027D2*X14160Y16027D1*X14160Y10312D2*X10478Y10312D1*X10478Y12090D2*X14160Y12090D1*X7493Y13106D2*X7488Y12987D1*X7473Y12865*X7450Y12748*X7417Y12631*X7376Y12520*X7323Y12408*X7264Y12304*X7198Y12205*X7122Y12111*X7038Y12022*X6949Y11941*X6855Y11867*X4445Y13106D2*X4450Y12992D1*X4463Y12875*X4483Y12764*X4514Y12652*X4554Y12543*X4600Y12436*X4656Y12334*X4717Y12238*X4785Y12146*X4862Y12057*X4945Y11979*X5034Y11902*X7493Y13106D2*X7488Y13223D1*X7475Y13340*X7452Y13457*X7422Y13571*X7381Y13680*X7333Y13787*X7275Y13891*X7211Y13990*X7140Y14082*X7061Y14171*X6975Y14252*X6883Y14326*X4445Y13106D2*X4450Y13221D1*X4463Y13338*X4483Y13449*X4514Y13561*X4554Y13670*X4600Y13777*X4656Y13879*X4717Y13975*X4785Y14067*X4862Y14155*X4945Y14234*X5034Y14310*D109*X11267Y8100D2*X12827Y6540D1*X9317Y7711D2*X8928Y8100D1*X8928Y8491*X9317Y8880*X10096Y8880*X10488Y8491*X10488Y8100*X10096Y7711*X10488Y6932D2*X10488Y7320D1*X10096Y7711*X9317Y7711*X8928Y7320*X8928Y6932*X9317Y6540*X10096Y6540*X10488Y6932*X12827Y8100D2*X11267Y6540D1*X13607Y8491D2*X13995Y8880D1*X14775Y8880*X15164Y8491*X15164Y8100*X13607Y6540*X15164Y6540*X18283Y8100D2*X18283Y6540D1*X19842Y8100D2*X19063Y8880D1*X18283Y8100*X19842Y7711D2*X18283Y7711D1*X19842Y8100D2*X19842Y6540D1*X20622Y6540D2*X20622Y8880D1*X22182Y6540*X22182Y8880*X24521Y6932D2*X24130Y6540D1*X22962Y6540*X22962Y8880*X24130Y8880*X24521Y8491*X24521Y6932*X26858Y8880D2*X25301Y6540D1*X29197Y6932D2*X28809Y6540D1*X28029Y6540*X27638Y6932*X27638Y8491*X28029Y8880*X28809Y8880*X29197Y8491*X29197Y6932*X30757Y7320D2*X31537Y6540D1*X31145Y8880D2*X31537Y8491D1*X31537Y7711*X31145Y7320*X29977Y7320*X29977Y6540D2*X29977Y8880D1*X31145Y8880*X0Y0D2*M02*