G75*
G70*
%OFA0B0*%
%FSLAX24Y24*%
%IPPOS*%
%LPD*%
%AMOC8*
5,1,8,0,0,1.08239X$1,22.5*
%
%ADD10C,0.0000*%
D10*
X000100Y002285D02*
X000100Y061785D01*
X023975Y061785D01*
X023975Y002285D01*
X000100Y002285D01*
X000720Y003535D02*
X000722Y003585D01*
X000728Y003635D01*
X000738Y003684D01*
X000752Y003732D01*
X000769Y003779D01*
X000790Y003824D01*
X000815Y003868D01*
X000843Y003909D01*
X000875Y003948D01*
X000909Y003985D01*
X000946Y004019D01*
X000986Y004049D01*
X001028Y004076D01*
X001072Y004100D01*
X001118Y004121D01*
X001165Y004137D01*
X001213Y004150D01*
X001263Y004159D01*
X001312Y004164D01*
X001363Y004165D01*
X001413Y004162D01*
X001462Y004155D01*
X001511Y004144D01*
X001559Y004129D01*
X001605Y004111D01*
X001650Y004089D01*
X001693Y004063D01*
X001734Y004034D01*
X001773Y004002D01*
X001809Y003967D01*
X001841Y003929D01*
X001871Y003889D01*
X001898Y003846D01*
X001921Y003802D01*
X001940Y003756D01*
X001956Y003708D01*
X001968Y003659D01*
X001976Y003610D01*
X001980Y003560D01*
X001980Y003510D01*
X001976Y003460D01*
X001968Y003411D01*
X001956Y003362D01*
X001940Y003314D01*
X001921Y003268D01*
X001898Y003224D01*
X001871Y003181D01*
X001841Y003141D01*
X001809Y003103D01*
X001773Y003068D01*
X001734Y003036D01*
X001693Y003007D01*
X001650Y002981D01*
X001605Y002959D01*
X001559Y002941D01*
X001511Y002926D01*
X001462Y002915D01*
X001413Y002908D01*
X001363Y002905D01*
X001312Y002906D01*
X001263Y002911D01*
X001213Y002920D01*
X001165Y002933D01*
X001118Y002949D01*
X001072Y002970D01*
X001028Y002994D01*
X000986Y003021D01*
X000946Y003051D01*
X000909Y003085D01*
X000875Y003122D01*
X000843Y003161D01*
X000815Y003202D01*
X000790Y003246D01*
X000769Y003291D01*
X000752Y003338D01*
X000738Y003386D01*
X000728Y003435D01*
X000722Y003485D01*
X000720Y003535D01*
X000720Y060535D02*
X000722Y060585D01*
X000728Y060635D01*
X000738Y060684D01*
X000752Y060732D01*
X000769Y060779D01*
X000790Y060824D01*
X000815Y060868D01*
X000843Y060909D01*
X000875Y060948D01*
X000909Y060985D01*
X000946Y061019D01*
X000986Y061049D01*
X001028Y061076D01*
X001072Y061100D01*
X001118Y061121D01*
X001165Y061137D01*
X001213Y061150D01*
X001263Y061159D01*
X001312Y061164D01*
X001363Y061165D01*
X001413Y061162D01*
X001462Y061155D01*
X001511Y061144D01*
X001559Y061129D01*
X001605Y061111D01*
X001650Y061089D01*
X001693Y061063D01*
X001734Y061034D01*
X001773Y061002D01*
X001809Y060967D01*
X001841Y060929D01*
X001871Y060889D01*
X001898Y060846D01*
X001921Y060802D01*
X001940Y060756D01*
X001956Y060708D01*
X001968Y060659D01*
X001976Y060610D01*
X001980Y060560D01*
X001980Y060510D01*
X001976Y060460D01*
X001968Y060411D01*
X001956Y060362D01*
X001940Y060314D01*
X001921Y060268D01*
X001898Y060224D01*
X001871Y060181D01*
X001841Y060141D01*
X001809Y060103D01*
X001773Y060068D01*
X001734Y060036D01*
X001693Y060007D01*
X001650Y059981D01*
X001605Y059959D01*
X001559Y059941D01*
X001511Y059926D01*
X001462Y059915D01*
X001413Y059908D01*
X001363Y059905D01*
X001312Y059906D01*
X001263Y059911D01*
X001213Y059920D01*
X001165Y059933D01*
X001118Y059949D01*
X001072Y059970D01*
X001028Y059994D01*
X000986Y060021D01*
X000946Y060051D01*
X000909Y060085D01*
X000875Y060122D01*
X000843Y060161D01*
X000815Y060202D01*
X000790Y060246D01*
X000769Y060291D01*
X000752Y060338D01*
X000738Y060386D01*
X000728Y060435D01*
X000722Y060485D01*
X000720Y060535D01*
X022095Y060535D02*
X022097Y060585D01*
X022103Y060635D01*
X022113Y060684D01*
X022127Y060732D01*
X022144Y060779D01*
X022165Y060824D01*
X022190Y060868D01*
X022218Y060909D01*
X022250Y060948D01*
X022284Y060985D01*
X022321Y061019D01*
X022361Y061049D01*
X022403Y061076D01*
X022447Y061100D01*
X022493Y061121D01*
X022540Y061137D01*
X022588Y061150D01*
X022638Y061159D01*
X022687Y061164D01*
X022738Y061165D01*
X022788Y061162D01*
X022837Y061155D01*
X022886Y061144D01*
X022934Y061129D01*
X022980Y061111D01*
X023025Y061089D01*
X023068Y061063D01*
X023109Y061034D01*
X023148Y061002D01*
X023184Y060967D01*
X023216Y060929D01*
X023246Y060889D01*
X023273Y060846D01*
X023296Y060802D01*
X023315Y060756D01*
X023331Y060708D01*
X023343Y060659D01*
X023351Y060610D01*
X023355Y060560D01*
X023355Y060510D01*
X023351Y060460D01*
X023343Y060411D01*
X023331Y060362D01*
X023315Y060314D01*
X023296Y060268D01*
X023273Y060224D01*
X023246Y060181D01*
X023216Y060141D01*
X023184Y060103D01*
X023148Y060068D01*
X023109Y060036D01*
X023068Y060007D01*
X023025Y059981D01*
X022980Y059959D01*
X022934Y059941D01*
X022886Y059926D01*
X022837Y059915D01*
X022788Y059908D01*
X022738Y059905D01*
X022687Y059906D01*
X022638Y059911D01*
X022588Y059920D01*
X022540Y059933D01*
X022493Y059949D01*
X022447Y059970D01*
X022403Y059994D01*
X022361Y060021D01*
X022321Y060051D01*
X022284Y060085D01*
X022250Y060122D01*
X022218Y060161D01*
X022190Y060202D01*
X022165Y060246D01*
X022144Y060291D01*
X022127Y060338D01*
X022113Y060386D01*
X022103Y060435D01*
X022097Y060485D01*
X022095Y060535D01*
X022095Y003535D02*
X022097Y003585D01*
X022103Y003635D01*
X022113Y003684D01*
X022127Y003732D01*
X022144Y003779D01*
X022165Y003824D01*
X022190Y003868D01*
X022218Y003909D01*
X022250Y003948D01*
X022284Y003985D01*
X022321Y004019D01*
X022361Y004049D01*
X022403Y004076D01*
X022447Y004100D01*
X022493Y004121D01*
X022540Y004137D01*
X022588Y004150D01*
X022638Y004159D01*
X022687Y004164D01*
X022738Y004165D01*
X022788Y004162D01*
X022837Y004155D01*
X022886Y004144D01*
X022934Y004129D01*
X022980Y004111D01*
X023025Y004089D01*
X023068Y004063D01*
X023109Y004034D01*
X023148Y004002D01*
X023184Y003967D01*
X023216Y003929D01*
X023246Y003889D01*
X023273Y003846D01*
X023296Y003802D01*
X023315Y003756D01*
X023331Y003708D01*
X023343Y003659D01*
X023351Y003610D01*
X023355Y003560D01*
X023355Y003510D01*
X023351Y003460D01*
X023343Y003411D01*
X023331Y003362D01*
X023315Y003314D01*
X023296Y003268D01*
X023273Y003224D01*
X023246Y003181D01*
X023216Y003141D01*
X023184Y003103D01*
X023148Y003068D01*
X023109Y003036D01*
X023068Y003007D01*
X023025Y002981D01*
X022980Y002959D01*
X022934Y002941D01*
X022886Y002926D01*
X022837Y002915D01*
X022788Y002908D01*
X022738Y002905D01*
X022687Y002906D01*
X022638Y002911D01*
X022588Y002920D01*
X022540Y002933D01*
X022493Y002949D01*
X022447Y002970D01*
X022403Y002994D01*
X022361Y003021D01*
X022321Y003051D01*
X022284Y003085D01*
X022250Y003122D01*
X022218Y003161D01*
X022190Y003202D01*
X022165Y003246D01*
X022144Y003291D01*
X022127Y003338D01*
X022113Y003386D01*
X022103Y003435D01*
X022097Y003485D01*
X022095Y003535D01*
M02*
