G75*
G70*
%OFA0B0*%
%FSLAX24Y24*%
%IPPOS*%
%LPD*%
%AMOC8*
5,1,8,0,0,1.08239X$1,22.5*
%
%ADD10C,0.0476*%
%ADD11C,0.0515*%
%ADD12R,0.0709X0.0709*%
%ADD13C,0.0160*%
D10*
X004350Y005285D03*
X004850Y005785D03*
X005350Y005285D03*
X006725Y004910D03*
X007225Y004410D03*
X007725Y004910D03*
X007350Y006535D03*
X006850Y007035D03*
X007850Y007035D03*
X007725Y009160D03*
X007225Y009660D03*
X006725Y009160D03*
X007225Y011660D03*
X006725Y012160D03*
X007350Y013785D03*
X006850Y014285D03*
X006725Y016410D03*
X007225Y016910D03*
X007725Y016410D03*
X007850Y014285D03*
X007725Y012160D03*
X005350Y012535D03*
X004850Y013035D03*
X004350Y012535D03*
X004350Y015660D03*
X004850Y016160D03*
X005350Y015660D03*
X006725Y019285D03*
X007225Y018785D03*
X007725Y019285D03*
X007350Y020910D03*
X006850Y021410D03*
X006725Y023535D03*
X007225Y024035D03*
X007725Y023535D03*
X007850Y021410D03*
X007225Y025910D03*
X006725Y026410D03*
X007350Y028035D03*
X006850Y028535D03*
X006725Y030660D03*
X007225Y031160D03*
X007725Y030660D03*
X007850Y028535D03*
X007725Y026410D03*
X005350Y026785D03*
X004850Y027285D03*
X004350Y026785D03*
X004350Y029910D03*
X004850Y030410D03*
X005350Y029910D03*
X006850Y033535D03*
X007350Y033035D03*
X007850Y033535D03*
X007350Y035285D03*
X006850Y035785D03*
X006725Y037785D03*
X007225Y038285D03*
X007725Y037785D03*
X007850Y035785D03*
X007225Y040160D03*
X006725Y040660D03*
X007350Y042410D03*
X006850Y042910D03*
X007725Y040660D03*
X007850Y042910D03*
X007850Y044910D03*
X007350Y045410D03*
X006850Y044910D03*
X007225Y047285D03*
X006725Y047785D03*
X007350Y049535D03*
X006850Y050035D03*
X006725Y052035D03*
X007225Y052535D03*
X007725Y052035D03*
X007850Y050035D03*
X007725Y047785D03*
X005350Y048160D03*
X004850Y048660D03*
X004350Y048160D03*
X004350Y051285D03*
X004850Y051785D03*
X005350Y051285D03*
X006725Y054910D03*
X007225Y054410D03*
X007725Y054910D03*
X007350Y056660D03*
X006850Y057160D03*
X006725Y059160D03*
X007225Y059660D03*
X007725Y059160D03*
X007850Y057160D03*
X005350Y058410D03*
X004850Y058910D03*
X004350Y058410D03*
X004850Y055785D03*
X005350Y055285D03*
X004350Y055285D03*
X004850Y044660D03*
X005350Y044160D03*
X004850Y041535D03*
X005350Y041035D03*
X004350Y041035D03*
X004350Y044160D03*
X004850Y037535D03*
X005350Y037035D03*
X004850Y034410D03*
X005350Y033910D03*
X004350Y033910D03*
X004350Y037035D03*
X004850Y023285D03*
X005350Y022785D03*
X004850Y020160D03*
X005350Y019660D03*
X004350Y019660D03*
X004350Y022785D03*
X004850Y008910D03*
X005350Y008410D03*
X004350Y008410D03*
X016975Y026535D03*
X017475Y027035D03*
X017725Y027910D03*
X018225Y028410D03*
X018225Y029410D03*
X018725Y029910D03*
X019225Y029410D03*
X018725Y027910D03*
X017975Y026535D03*
X018600Y030785D03*
X019100Y031285D03*
X019600Y030785D03*
X019600Y032410D03*
X019100Y032910D03*
X018600Y032410D03*
X018475Y033910D03*
X018975Y034410D03*
X019475Y033910D03*
X018975Y035410D03*
X018475Y035910D03*
X018350Y036910D03*
X017850Y037410D03*
X017350Y036910D03*
X017975Y035410D03*
X020725Y030660D03*
X021225Y030160D03*
X021225Y031160D03*
X020975Y032160D03*
X020975Y033160D03*
X021475Y032660D03*
D11*
X020600Y034160D03*
X019850Y035285D03*
X020600Y036160D03*
X019850Y037285D03*
X020975Y039285D03*
X020975Y041285D03*
X023100Y032535D03*
X023100Y031535D03*
X020350Y029660D03*
X019600Y028535D03*
X020350Y027660D03*
X019600Y026535D03*
X016975Y024035D03*
X016975Y022035D03*
X015600Y026785D03*
X015600Y028285D03*
X015600Y029785D03*
X015600Y031285D03*
X015600Y032785D03*
X015600Y034285D03*
X015600Y035785D03*
X015600Y037285D03*
X014600Y037285D03*
X014600Y035785D03*
X014600Y034285D03*
X014600Y032785D03*
X014600Y031285D03*
X014600Y029785D03*
X014600Y028285D03*
X014600Y026785D03*
X011225Y031285D03*
X011225Y032785D03*
X010350Y035160D03*
X010350Y036160D03*
X010225Y038410D03*
X010225Y040410D03*
X010350Y042285D03*
X010350Y043285D03*
X010225Y045035D03*
X010225Y047035D03*
X010475Y049535D03*
X010475Y050535D03*
X010225Y051910D03*
X010225Y053910D03*
X010475Y056660D03*
X010475Y057660D03*
X012100Y059785D03*
X014100Y059785D03*
X008850Y058035D03*
X008225Y058285D03*
X008850Y056035D03*
X008225Y055785D03*
X006225Y055785D03*
X005850Y056660D03*
X005850Y057410D03*
X006225Y058285D03*
X005850Y059660D03*
X003850Y059660D03*
X003850Y057410D03*
X003850Y056660D03*
X003850Y054410D03*
X003850Y052535D03*
X003850Y050285D03*
X003850Y049535D03*
X003850Y047285D03*
X003850Y045410D03*
X003850Y043160D03*
X003850Y042410D03*
X003850Y040160D03*
X003850Y038285D03*
X003850Y036035D03*
X003850Y035285D03*
X003850Y033035D03*
X003850Y031160D03*
X003850Y028910D03*
X003850Y028160D03*
X003850Y025910D03*
X003850Y024035D03*
X003850Y021785D03*
X003850Y021035D03*
X003850Y018785D03*
X003850Y016910D03*
X003850Y014660D03*
X003850Y013910D03*
X003850Y011660D03*
X003850Y009660D03*
X003850Y007410D03*
X003850Y006660D03*
X003850Y004410D03*
X002350Y004660D03*
X002350Y005660D03*
X002350Y008410D03*
X002350Y009410D03*
X002350Y012035D03*
X002350Y013035D03*
X002350Y015660D03*
X002350Y016660D03*
X002350Y019035D03*
X002350Y020035D03*
X002350Y022785D03*
X002350Y023785D03*
X002350Y026160D03*
X002350Y027160D03*
X002350Y029910D03*
X002350Y030910D03*
X002350Y033410D03*
X002350Y034410D03*
X002350Y037035D03*
X002350Y038035D03*
X002350Y040410D03*
X002350Y041410D03*
X002350Y044160D03*
X002350Y045160D03*
X002350Y047535D03*
X002350Y048535D03*
X002350Y051285D03*
X002350Y052285D03*
X002350Y054660D03*
X002350Y055660D03*
X002350Y058410D03*
X002350Y059410D03*
X005850Y054410D03*
X005850Y052535D03*
X006225Y051160D03*
X005850Y050285D03*
X005850Y049535D03*
X006225Y048660D03*
X005850Y047285D03*
X005850Y045410D03*
X006225Y044035D03*
X005850Y043160D03*
X005850Y042410D03*
X006225Y041535D03*
X005850Y040160D03*
X005850Y038285D03*
X006225Y036910D03*
X005850Y036035D03*
X005850Y035285D03*
X006350Y034410D03*
X005850Y033035D03*
X005850Y031160D03*
X006225Y029785D03*
X005850Y028910D03*
X005850Y028160D03*
X006225Y027285D03*
X005850Y025910D03*
X005850Y024035D03*
X006225Y022660D03*
X005850Y021785D03*
X005850Y021035D03*
X006225Y020160D03*
X005850Y018785D03*
X005850Y016910D03*
X006225Y015535D03*
X005850Y014660D03*
X005850Y013910D03*
X006225Y013035D03*
X005850Y011660D03*
X005850Y009660D03*
X006225Y008285D03*
X005850Y007410D03*
X005850Y006660D03*
X006225Y005785D03*
X005850Y004410D03*
X008225Y005785D03*
X008850Y006035D03*
X008850Y008035D03*
X008225Y008285D03*
X008225Y013035D03*
X008850Y013285D03*
X008850Y015285D03*
X008225Y015535D03*
X008225Y020160D03*
X008850Y020285D03*
X008850Y022285D03*
X008225Y022660D03*
X008225Y027285D03*
X008850Y027410D03*
X008850Y029410D03*
X008225Y029785D03*
X009225Y031285D03*
X009225Y032785D03*
X008850Y034785D03*
X008350Y034410D03*
X008850Y036785D03*
X008225Y036910D03*
X008225Y041535D03*
X008850Y041785D03*
X008850Y043785D03*
X008225Y044035D03*
X008225Y048660D03*
X008850Y049035D03*
X008850Y051035D03*
X008225Y051160D03*
X010475Y029035D03*
X010475Y028035D03*
X010225Y024660D03*
X010225Y022660D03*
X010475Y021785D03*
X010475Y020785D03*
X010225Y017910D03*
X010225Y015910D03*
X010475Y014785D03*
X010475Y013785D03*
X010225Y010910D03*
X010225Y008910D03*
X010475Y007535D03*
X010475Y006535D03*
X011475Y005035D03*
X013475Y005035D03*
D12*
X001225Y005160D03*
X001225Y008910D03*
X001225Y012535D03*
X001225Y016160D03*
X001225Y019535D03*
X001225Y023285D03*
X001225Y026660D03*
X001225Y030410D03*
X001225Y033910D03*
X001225Y037535D03*
X001225Y040910D03*
X001225Y044660D03*
X001225Y048035D03*
X001225Y051785D03*
X001225Y055160D03*
X001225Y058910D03*
X012350Y060785D03*
X013725Y060785D03*
X022975Y034660D03*
X023100Y029285D03*
D13*
X022225Y029410D01*
X022225Y031785D01*
X021975Y032160D01*
X020975Y032160D01*
X020538Y032598D02*
X020100Y033035D01*
X020100Y035035D01*
X019850Y035285D01*
X022475Y035285D01*
X022975Y034660D01*
X022475Y034160D02*
X023100Y033660D01*
X023100Y032535D01*
X022475Y034160D02*
X020600Y034160D01*
X020600Y032660D02*
X020538Y032598D01*
X020475Y032535D01*
X020475Y031660D01*
X020975Y031160D01*
X021225Y031160D01*
X020725Y030660D02*
X020475Y030785D01*
X019600Y030785D01*
X019225Y030410D01*
X019225Y029410D01*
X019225Y028535D01*
X019600Y028535D01*
X019225Y028535D02*
X018725Y027910D01*
X018725Y027285D01*
X017975Y026535D01*
X017475Y027035D02*
X016475Y027035D01*
X015850Y026285D01*
X015600Y025910D01*
X015600Y011035D01*
X014350Y010035D01*
X008600Y010035D01*
X007725Y009160D01*
X007725Y008910D01*
X006600Y007785D01*
X006100Y007785D01*
X005725Y007910D01*
X005600Y007910D01*
X005350Y007660D01*
X005350Y007160D01*
X005850Y006660D01*
X005975Y006535D01*
X006600Y006535D01*
X006725Y006410D01*
X006725Y004910D01*
X007225Y004410D02*
X005850Y004410D01*
X005850Y005285D01*
X006225Y005660D01*
X006225Y005785D01*
X005850Y005285D02*
X005350Y005285D01*
X004850Y005785D02*
X003850Y005785D01*
X003225Y005160D01*
X001225Y005160D01*
X002350Y004660D02*
X003850Y004410D01*
X005350Y008410D02*
X005850Y008410D01*
X005975Y008285D01*
X006225Y008285D01*
X006725Y008285D01*
X007225Y008785D01*
X007225Y009660D01*
X007225Y011660D02*
X005850Y011660D01*
X005850Y012535D01*
X006225Y012910D01*
X006225Y013035D01*
X005850Y012535D02*
X005350Y012535D01*
X004850Y013035D02*
X003850Y013035D01*
X003225Y012535D01*
X001225Y012535D01*
X002350Y012035D02*
X003850Y011660D01*
X003850Y009660D02*
X002350Y009410D01*
X001225Y008910D02*
X004850Y008910D01*
X005850Y008410D02*
X005850Y009660D01*
X006725Y012160D02*
X006725Y013785D01*
X005975Y013785D01*
X005850Y013910D01*
X005350Y014410D01*
X005350Y014910D01*
X005725Y015285D01*
X006225Y015035D01*
X006850Y015035D01*
X007725Y015910D01*
X007725Y016410D01*
X012350Y016410D01*
X013350Y017410D01*
X013350Y026910D01*
X013975Y027535D01*
X015725Y027535D01*
X016600Y028410D01*
X018225Y028410D01*
X018725Y029910D02*
X016975Y029910D01*
X016225Y028910D01*
X013225Y028910D01*
X012100Y027910D01*
X012100Y024535D01*
X010975Y023535D01*
X007725Y023535D01*
X007725Y023035D01*
X006725Y022035D01*
X006350Y022035D01*
X005850Y022410D01*
X005725Y022410D01*
X005225Y021910D01*
X005225Y021660D01*
X005850Y021035D01*
X005975Y020910D01*
X006725Y020910D01*
X006725Y019285D01*
X007225Y018785D02*
X005850Y018785D01*
X005850Y019660D01*
X006225Y020035D01*
X006225Y020160D01*
X005850Y019660D02*
X005350Y019660D01*
X004850Y020160D02*
X003975Y020160D01*
X003225Y019535D01*
X001225Y019535D01*
X002350Y019035D02*
X003850Y018785D01*
X003850Y016910D02*
X002350Y016660D01*
X001225Y016160D02*
X004850Y016160D01*
X005350Y015660D02*
X005850Y015660D01*
X005975Y015535D01*
X006225Y015535D01*
X006600Y015535D01*
X007225Y016160D01*
X007225Y016910D01*
X007475Y014785D02*
X008350Y014785D01*
X008850Y015285D01*
X009475Y015285D01*
X010225Y015910D01*
X010225Y017910D02*
X010225Y018035D01*
X011975Y018035D01*
X012975Y019160D01*
X012975Y027285D01*
X013975Y028285D01*
X014600Y028285D01*
X014600Y029785D02*
X012725Y029785D01*
X011725Y028910D01*
X011725Y025535D01*
X011100Y024785D01*
X010975Y024660D01*
X010225Y024660D01*
X010225Y022660D02*
X009225Y022660D01*
X008850Y022285D01*
X008475Y021910D01*
X007475Y021910D01*
X006975Y021410D01*
X006850Y021410D01*
X006225Y021410D01*
X005850Y021785D01*
X005975Y022660D02*
X005850Y022785D01*
X005350Y022785D01*
X005850Y022785D02*
X005850Y024035D01*
X005975Y022660D02*
X006225Y022660D01*
X006725Y022660D01*
X007225Y023160D01*
X007225Y024035D01*
X007225Y025910D02*
X005850Y025910D01*
X005850Y026785D01*
X006225Y027160D01*
X006225Y027285D01*
X005850Y026785D02*
X005350Y026785D01*
X004850Y027285D02*
X003850Y027285D01*
X003225Y026660D01*
X001225Y026660D01*
X002350Y026160D02*
X003850Y025910D01*
X003850Y024035D02*
X002350Y023785D01*
X001225Y023285D02*
X004850Y023285D01*
X006725Y020910D02*
X007350Y020910D01*
X008850Y020285D02*
X009975Y020285D01*
X010475Y020785D01*
X009850Y027410D02*
X008850Y027410D01*
X008475Y029035D02*
X008850Y029410D01*
X009225Y029785D01*
X009225Y031285D01*
X008850Y031910D02*
X007725Y030660D01*
X007725Y030410D01*
X006475Y029160D01*
X006225Y029160D01*
X005725Y029535D01*
X005600Y029535D01*
X005225Y029160D01*
X005225Y028785D01*
X005850Y028160D01*
X005975Y028035D01*
X006725Y028035D01*
X006725Y026410D01*
X006725Y028035D02*
X007350Y028035D01*
X006850Y028535D02*
X007350Y029035D01*
X008475Y029035D01*
X008850Y031910D02*
X018225Y031910D01*
X019100Y031285D01*
X019600Y030785D02*
X019600Y032410D01*
X019600Y033785D01*
X019475Y033910D01*
X019475Y034660D01*
X018975Y035410D01*
X018975Y036410D01*
X018475Y036910D01*
X018350Y036910D01*
X018475Y035910D02*
X017600Y035910D01*
X016100Y037285D01*
X016100Y051410D01*
X015225Y052410D01*
X008100Y052410D01*
X007725Y052035D01*
X007725Y051660D01*
X006725Y050660D01*
X006225Y050660D01*
X005725Y050910D01*
X005600Y050910D01*
X005350Y050660D01*
X005350Y050035D01*
X005850Y049535D01*
X006850Y049535D01*
X006725Y049410D01*
X006725Y047785D01*
X007225Y047285D02*
X005850Y047285D01*
X005850Y048160D01*
X006225Y048535D01*
X006225Y048660D01*
X005850Y048160D02*
X005350Y048160D01*
X004850Y048660D02*
X003850Y048660D01*
X003100Y047910D01*
X001225Y048035D01*
X002350Y047535D02*
X003850Y047285D01*
X003850Y045410D02*
X002350Y045160D01*
X001225Y044660D02*
X004850Y044660D01*
X005350Y044160D02*
X005850Y044160D01*
X005975Y044035D01*
X006225Y044035D01*
X006850Y044035D01*
X007350Y044535D01*
X007350Y045410D01*
X007850Y044910D02*
X007850Y044410D01*
X006975Y043535D01*
X006225Y043535D01*
X005725Y043785D01*
X005600Y043785D01*
X005225Y043410D01*
X005225Y043035D01*
X005850Y042410D01*
X006600Y042410D01*
X006725Y042285D01*
X006725Y040660D01*
X007225Y040160D02*
X005850Y040160D01*
X005850Y041160D01*
X005725Y041035D01*
X005350Y041035D01*
X005850Y041160D02*
X006225Y041535D01*
X006600Y042410D02*
X007350Y042410D01*
X006850Y042910D02*
X007475Y043535D01*
X008600Y043535D01*
X008850Y043785D01*
X010850Y043785D01*
X011225Y043410D01*
X011225Y041410D01*
X010225Y040410D01*
X009850Y041785D02*
X010350Y042285D01*
X009850Y041785D02*
X008850Y041785D01*
X007975Y044910D02*
X007850Y044910D01*
X007975Y044910D02*
X008975Y046035D01*
X012100Y046035D01*
X013100Y045285D01*
X013100Y037410D01*
X014100Y036410D01*
X015975Y036410D01*
X018350Y034410D01*
X018975Y034410D01*
X019100Y032910D02*
X017475Y032910D01*
X016975Y033410D01*
X014350Y033410D01*
X009975Y037785D01*
X007725Y037785D01*
X007725Y037410D01*
X006725Y036410D01*
X006100Y036410D01*
X005600Y036660D01*
X005225Y036160D01*
X005225Y035660D01*
X005850Y035285D01*
X006850Y035285D01*
X006850Y033535D01*
X007350Y033035D02*
X005850Y033035D01*
X005850Y033910D01*
X005350Y033910D01*
X005850Y033910D02*
X006350Y034410D01*
X006850Y035285D02*
X007350Y035285D01*
X006850Y035785D02*
X007475Y036410D01*
X008475Y036410D01*
X008850Y036785D01*
X008975Y036910D01*
X010225Y036910D01*
X011100Y036035D01*
X011100Y034160D01*
X009225Y032785D01*
X008850Y034785D02*
X009975Y034785D01*
X010350Y035160D01*
X011225Y032785D02*
X014600Y032785D01*
X014600Y034285D02*
X014225Y034410D01*
X010225Y038410D01*
X012225Y037285D02*
X012225Y044285D01*
X011600Y045035D01*
X010225Y045035D01*
X010225Y047035D02*
X011350Y048035D01*
X011350Y050785D01*
X011100Y051035D01*
X008850Y051035D01*
X008475Y050660D01*
X007475Y050660D01*
X006850Y050035D01*
X006100Y050035D01*
X005850Y050285D01*
X005975Y051160D02*
X005850Y051285D01*
X005350Y051285D01*
X005850Y051285D02*
X005850Y052535D01*
X005975Y051160D02*
X006225Y051160D01*
X006725Y051160D01*
X007225Y051535D01*
X007225Y052535D01*
X007225Y054410D02*
X005850Y054410D01*
X005850Y055285D01*
X006225Y055785D01*
X005850Y055285D02*
X005350Y055285D01*
X004850Y055785D02*
X004100Y055785D01*
X003350Y055160D01*
X001225Y055160D01*
X002350Y054660D02*
X003850Y054410D01*
X003850Y052535D02*
X002350Y052285D01*
X001225Y051785D02*
X004850Y051785D01*
X006725Y054910D02*
X006725Y056660D01*
X005850Y056660D01*
X005100Y057160D01*
X005100Y057535D01*
X005725Y058035D01*
X006475Y057535D01*
X007725Y058910D01*
X007725Y059160D01*
X016475Y059160D01*
X017850Y057410D01*
X017850Y037410D01*
X020600Y032660D02*
X021475Y032660D01*
X020350Y029660D02*
X020725Y029410D01*
X022225Y029410D01*
X014600Y031285D02*
X011225Y031285D01*
X010475Y028035D02*
X009850Y027410D01*
X007225Y030410D02*
X006600Y029785D01*
X006225Y029785D01*
X005975Y029785D01*
X005850Y029910D01*
X005350Y029910D01*
X005850Y029910D02*
X005850Y031160D01*
X005850Y028910D02*
X006225Y028535D01*
X006850Y028535D01*
X007225Y030410D02*
X007225Y031160D01*
X006850Y035785D02*
X006100Y035785D01*
X005850Y036035D01*
X005975Y036910D02*
X005850Y037035D01*
X005350Y037035D01*
X005850Y037035D02*
X005850Y038285D01*
X005975Y036910D02*
X006225Y036910D01*
X006725Y036910D01*
X007225Y037410D01*
X007225Y038285D01*
X006850Y042910D02*
X006100Y042910D01*
X005850Y043160D01*
X005850Y044160D02*
X005850Y045410D01*
X004850Y041535D02*
X003975Y041535D01*
X003350Y040910D01*
X001225Y040910D01*
X002350Y040410D02*
X003850Y040160D01*
X003850Y038285D02*
X002350Y038035D01*
X001225Y037535D02*
X004850Y037535D01*
X004725Y034535D02*
X003975Y034535D01*
X003100Y033910D01*
X001225Y033910D01*
X002350Y033410D02*
X003850Y033035D01*
X003850Y031160D02*
X002350Y030910D01*
X001225Y030410D02*
X004850Y030410D01*
X004850Y034410D02*
X004725Y034535D01*
X008850Y049035D02*
X009975Y049035D01*
X010475Y049535D01*
X010225Y051910D02*
X013600Y051910D01*
X014600Y050910D01*
X014600Y037285D01*
X014600Y035785D02*
X013725Y035785D01*
X012225Y037285D01*
X014600Y026785D02*
X014600Y011660D01*
X013850Y010910D01*
X010225Y010910D01*
X009975Y013285D02*
X010475Y013785D01*
X009975Y013285D02*
X008850Y013285D01*
X007350Y013785D02*
X006725Y013785D01*
X006850Y014285D02*
X006475Y014660D01*
X005850Y014660D01*
X005850Y015660D02*
X005850Y016910D01*
X007475Y014785D02*
X006975Y014285D01*
X006850Y014285D01*
X009725Y008910D02*
X008850Y008035D01*
X008350Y007535D01*
X007475Y007535D01*
X006975Y007035D01*
X006850Y007035D01*
X006225Y007035D01*
X005850Y007410D01*
X006600Y006535D02*
X007350Y006535D01*
X008850Y006035D02*
X009975Y006035D01*
X010475Y006535D01*
X010225Y008910D02*
X009725Y008910D01*
X007350Y049535D02*
X006850Y049535D01*
X008850Y056035D02*
X009975Y056035D01*
X010475Y056660D01*
X012100Y056535D02*
X010225Y054660D01*
X010225Y053910D01*
X012100Y057285D02*
X011225Y058160D01*
X009100Y058160D01*
X008850Y058035D01*
X008600Y057785D01*
X007725Y057785D01*
X007100Y057160D01*
X006850Y057160D01*
X006100Y057160D01*
X005850Y057410D01*
X006225Y058285D02*
X006100Y058410D01*
X005725Y058410D01*
X005850Y058535D01*
X005850Y059660D01*
X005725Y058410D02*
X005350Y058410D01*
X004850Y058910D02*
X001225Y058910D01*
X002350Y059410D02*
X003850Y059660D01*
X006225Y058285D02*
X006350Y058410D01*
X006725Y058410D01*
X007225Y058910D01*
X007225Y059660D01*
X007350Y056660D02*
X006725Y056660D01*
X012100Y056535D02*
X012100Y057285D01*
M02*
