%
M48
M72
T01C0.0276
T02C0.0315
T03C0.0472
T04C0.1260
%
T01
X4350Y5285
X4850Y5785
X5350Y5285
X6725Y4910
X7225Y4410
X7725Y4910
X7350Y6535
X6850Y7035
X7850Y7035
X7725Y9160
X7225Y9660
X6725Y9160
X7225Y11660
X6725Y12160
X7350Y13785
X6850Y14285
X6725Y16410
X7225Y16910
X7725Y16410
X7850Y14285
X7725Y12160
X5350Y12535
X4850Y13035
X4350Y12535
X4350Y15660
X4850Y16160
X5350Y15660
X6725Y19285
X7225Y18785
X7725Y19285
X7350Y20910
X6850Y21410
X6725Y23535
X7225Y24035
X7725Y23535
X7850Y21410
X7225Y25910
X6725Y26410
X7350Y28035
X6850Y28535
X6725Y30660
X7225Y31160
X7725Y30660
X7850Y28535
X7725Y26410
X5350Y26785
X4850Y27285
X4350Y26785
X4350Y29910
X4850Y30410
X5350Y29910
X6850Y33535
X7350Y33035
X7850Y33535
X7350Y35285
X6850Y35785
X6725Y37785
X7225Y38285
X7725Y37785
X7850Y35785
X7225Y40160
X6725Y40660
X7350Y42410
X6850Y42910
X7725Y40660
X7850Y42910
X7850Y44910
X7350Y45410
X6850Y44910
X7225Y47285
X6725Y47785
X7350Y49535
X6850Y50035
X6725Y52035
X7225Y52535
X7725Y52035
X7850Y50035
X7725Y47785
X5350Y48160
X4850Y48660
X4350Y48160
X4350Y51285
X4850Y51785
X5350Y51285
X6725Y54910
X7225Y54410
X7725Y54910
X7350Y56660
X6850Y57160
X6725Y59160
X7225Y59660
X7725Y59160
X7850Y57160
X5350Y58410
X4850Y58910
X4350Y58410
X4850Y55785
X5350Y55285
X4350Y55285
X4850Y44660
X5350Y44160
X4850Y41535
X5350Y41035
X4350Y41035
X4350Y44160
X4850Y37535
X5350Y37035
X4850Y34410
X5350Y33910
X4350Y33910
X4350Y37035
X4850Y23285
X5350Y22785
X4850Y20160
X5350Y19660
X4350Y19660
X4350Y22785
X4850Y8910
X5350Y8410
X4350Y8410
X16975Y26535
X17475Y27035
X17725Y27910
X18225Y28410
X18225Y29410
X18725Y29910
X19225Y29410
X18725Y27910
X17975Y26535
X18600Y30785
X19100Y31285
X19600Y30785
X19600Y32410
X19100Y32910
X18600Y32410
X18475Y33910
X18975Y34410
X19475Y33910
X18975Y35410
X18475Y35910
X18350Y36910
X17850Y37410
X17350Y36910
X17975Y35410
X20725Y30660
X21225Y30160
X21225Y31160
X20975Y32160
X20975Y33160
X21475Y32660
T02
X20600Y34160
X19850Y35285
X20600Y36160
X19850Y37285
X20975Y39285
X20975Y41285
X23100Y32535
X23100Y31535
X20350Y29660
X19600Y28535
X20350Y27660
X19600Y26535
X16975Y24035
X16975Y22035
X15600Y26785
X15600Y28285
X15600Y29785
X15600Y31285
X15600Y32785
X15600Y34285
X15600Y35785
X15600Y37285
X14600Y37285
X14600Y35785
X14600Y34285
X14600Y32785
X14600Y31285
X14600Y29785
X14600Y28285
X14600Y26785
X11225Y31285
X11225Y32785
X10350Y35160
X10350Y36160
X10225Y38410
X10225Y40410
X10350Y42285
X10350Y43285
X10225Y45035
X10225Y47035
X10475Y49535
X10475Y50535
X10225Y51910
X10225Y53910
X10475Y56660
X10475Y57660
X12100Y59785
X14100Y59785
X8850Y58035
X8225Y58285
X8850Y56035
X8225Y55785
X6225Y55785
X5850Y56660
X5850Y57410
X6225Y58285
X5850Y59660
X3850Y59660
X3850Y57410
X3850Y56660
X3850Y54410
X3850Y52535
X3850Y50285
X3850Y49535
X3850Y47285
X3850Y45410
X3850Y43160
X3850Y42410
X3850Y40160
X3850Y38285
X3850Y36035
X3850Y35285
X3850Y33035
X3850Y31160
X3850Y28910
X3850Y28160
X3850Y25910
X3850Y24035
X3850Y21785
X3850Y21035
X3850Y18785
X3850Y16910
X3850Y14660
X3850Y13910
X3850Y11660
X3850Y9660
X3850Y7410
X3850Y6660
X3850Y4410
X2350Y4660
X2350Y5660
X2350Y8410
X2350Y9410
X2350Y12035
X2350Y13035
X2350Y15660
X2350Y16660
X2350Y19035
X2350Y20035
X2350Y22785
X2350Y23785
X2350Y26160
X2350Y27160
X2350Y29910
X2350Y30910
X2350Y33410
X2350Y34410
X2350Y37035
X2350Y38035
X2350Y40410
X2350Y41410
X2350Y44160
X2350Y45160
X2350Y47535
X2350Y48535
X2350Y51285
X2350Y52285
X2350Y54660
X2350Y55660
X2350Y58410
X2350Y59410
X5850Y54410
X5850Y52535
X6225Y51160
X5850Y50285
X5850Y49535
X6225Y48660
X5850Y47285
X5850Y45410
X6225Y44035
X5850Y43160
X5850Y42410
X6225Y41535
X5850Y40160
X5850Y38285
X6225Y36910
X5850Y36035
X5850Y35285
X6350Y34410
X5850Y33035
X5850Y31160
X6225Y29785
X5850Y28910
X5850Y28160
X6225Y27285
X5850Y25910
X5850Y24035
X6225Y22660
X5850Y21785
X5850Y21035
X6225Y20160
X5850Y18785
X5850Y16910
X6225Y15535
X5850Y14660
X5850Y13910
X6225Y13035
X5850Y11660
X5850Y9660
X6225Y8285
X5850Y7410
X5850Y6660
X6225Y5785
X5850Y4410
X8225Y5785
X8850Y6035
X8850Y8035
X8225Y8285
X8225Y13035
X8850Y13285
X8850Y15285
X8225Y15535
X8225Y20160
X8850Y20285
X8850Y22285
X8225Y22660
X8225Y27285
X8850Y27410
X8850Y29410
X8225Y29785
X9225Y31285
X9225Y32785
X8850Y34785
X8350Y34410
X8850Y36785
X8225Y36910
X8225Y41535
X8850Y41785
X8850Y43785
X8225Y44035
X8225Y48660
X8850Y49035
X8850Y51035
X8225Y51160
X10475Y29035
X10475Y28035
X10225Y24660
X10225Y22660
X10475Y21785
X10475Y20785
X10225Y17910
X10225Y15910
X10475Y14785
X10475Y13785
X10225Y10910
X10225Y8910
X10475Y7535
X10475Y6535
X11475Y5035
X13475Y5035
T03
X23100Y29285
X22975Y34660
X13725Y60785
X12350Y60785
X1225Y58910
X1225Y55160
X1225Y51785
X1225Y48035
X1225Y44660
X1225Y40910
X1225Y37535
X1225Y33910
X1225Y30410
X1225Y26660
X1225Y23285
X1225Y19535
X1225Y16160
X1225Y12535
X1225Y8910
X1225Y5160
T04
X1350Y3535
X22725Y3535
X22725Y60535
X1350Y60535
M30
