G04 Output by ViewMate Deluxe V11.0.9  PentaLogix LLC*
G04 Sun May 11 19:32:23 2014*
%FSLAX33Y33*%
%MOMM*%
%IPPOS*%
%ADD10C,1.3081*%
%ADD11R,1.8009X1.8009*%
%ADD12C,1.209*%
%ADD13C,0.4064*%

%LPD*%
X0Y0D2*D13*G1X20203Y16929D2*X19520Y16929D1*X24768Y14514D2*X23597Y14514D1*X33266Y16124D2*X34544Y16124D1*X34544Y15723D2*X33310Y15723D1*X33310Y15319D2*X34544Y15319D1*X34544Y14917D2*X33310Y14917D1*X33310Y14514D2*X34544Y14514D1*X34544Y14112D2*X33310Y14112D1*X24404Y12098D2*X34544Y12098D1*X34544Y11697D2*X24745Y11697D1*X24859Y11293D2*X34544Y11293D1*X34544Y10892D2*X24816Y10892D1*X34013Y10488D2*X34544Y10488D1*X24605Y10488D2*X31265Y10488D1*X23749Y12314D2*X23749Y11201D1*X23749Y12314*X34544Y13307D2*X23823Y13307D1*X33076Y13708D2*X34544Y13708D1*X23906Y13708D2*X30932Y13708D1*X25187Y14112D2*X23846Y14112D1*X30698Y14112D2*X26121Y14112D1*X26540Y14514D2*X30698Y14514D1*X30698Y14917D2*X26665Y14917D1*X27242Y15319D2*X30698Y15319D1*X30698Y15723D2*X27785Y15723D1*X30698Y16081D2*X30935Y16320D1*X33073Y16320*X33310Y16081*X33310Y13945*X33073Y13706*X30935Y13706*X30698Y13945*X30698Y16081*X27935Y16124D2*X30742Y16124D1*X34544Y16528D2*X27917Y16528D1*X27706Y16929D2*X34544Y16929D1*X34544Y18943D2*X29180Y18943D1*X29301Y19345D2*X34544Y19345D1*X34544Y19748D2*X29268Y19748D1*X29063Y20150D2*X34544Y20150D1*X31651Y23774D2*X28931Y23774D1*X34544Y24176D2*X33279Y24176D1*X33627Y23774D2*X34544Y23774D1*X34544Y23371D2*X33746Y23371D1*X33711Y22969D2*X34544Y22969D1*X34544Y22565D2*X33503Y22565D1*X32774Y22164D2*X34544Y22164D1*X32639Y24379D2*X32639Y23266D1*X32639Y24379*X23713Y41890D2*X22565Y41890D1*X22565Y41488D2*X23713Y41488D1*X18517Y38268D2*X17234Y38268D1*X17465Y37864D2*X18285Y37864D1*X18245Y37462D2*X17506Y37462D1*X17389Y37059D2*X18362Y37059D1*X18702Y36657D2*X17048Y36657D1*X19304Y32474D2*X19304Y33586D1*X19304Y32474*X16388Y24580D2*X15870Y24580D1*X15804Y24176D2*X16454Y24176D1*X16734Y23774D2*X15524Y23774D1*X20216Y22565D2*X20798Y22565D1*X14648Y22969D2*X18880Y22969D1*X18392Y22565D2*X15136Y22565D1*X15283Y22164D2*X18245Y22164D1*X18255Y21760D2*X15273Y21760D1*X15085Y21359D2*X18443Y21359D1*X15255Y20955D2*X14481Y20955D1*X18971Y20955D2*X16368Y20955D1*X19619Y19345D2*X17958Y19345D1*X17485Y19748D2*X19047Y19748D1*X15552Y18943D2*X16071Y18943D1*X16104Y18539D2*X15519Y18539D1*X15286Y18138D2*X16337Y18138D1*X14166Y12903D2*X13647Y12903D1*X13612Y12502D2*X14201Y12502D1*X14437Y12098D2*X13376Y12098D1*X18067Y12098D2*X15916Y12098D1*X22893Y10488D2*X19454Y10488D1*X19688Y10892D2*X22682Y10892D1*X22639Y11293D2*X19728Y11293D1*X19611Y11697D2*X22753Y11697D1*X23094Y12098D2*X19271Y12098D1*X23025Y12050D2*X23167Y12151D1*X23322Y12233*X23490Y12286*X23663Y12314*X23749Y12314*X23835Y12314*X24008Y12286*X24176Y12233*X24331Y12151*X24473Y12050*X24597Y11925*X24699Y11783*X24778Y11628*X24834Y11463*X24859Y11290*X24859Y11201*X23749Y11201*X22639Y11201*X23749Y11201*X23749Y10091*X23749Y11201*X24859Y11201*X24859Y11115*X24834Y10942*X24778Y10775*X24699Y10620*X24597Y10478*X24473Y10356*X24331Y10251*X24176Y10173*X24008Y10117*X23835Y10091*X23749Y10091*X23663Y10091*X23490Y10117*X23322Y10173*X23167Y10251*X23025Y10356*X22901Y10478*X22799Y10620*X22720Y10775*X22664Y10942*X22639Y11115*X22639Y11201*X22639Y11290*X22664Y11463*X22720Y11628*X22799Y11783*X22901Y11925*X23025Y12050*X18377Y12903D2*X22062Y12903D1*X21770Y13307D2*X18684Y13307D1*X18776Y13708D2*X21687Y13708D1*X21747Y14112D2*X18712Y14112D1*X18443Y14514D2*X21996Y14514D1*X14036Y15319D2*X18222Y15319D1*X24643Y14917D2*X14478Y14917D1*X19116Y15319D2*X24689Y15319D1*X21323Y15723D2*X19586Y15723D1*X19728Y16124D2*X20947Y16124D1*X20833Y16528D2*X19715Y16528D1*X22103Y17734D2*X21585Y17734D1*X21557Y18138D2*X22131Y18138D1*X22355Y18539D2*X21333Y18539D1*X24846Y16929D2*X23485Y16929D1*X23985Y17333D2*X24651Y17333D1*X24643Y17734D2*X24125Y17734D1*X24097Y18138D2*X24811Y18138D1*X25400Y18539D2*X23873Y18539D1*X27567Y18539D2*X25908Y18539D1*X18092Y18943D2*X27208Y18943D1*X19815Y18539D2*X18059Y18539D1*X17826Y18138D2*X19591Y18138D1*X14440Y16929D2*X17818Y16929D1*X17623Y16528D2*X14635Y16528D1*X14648Y16124D2*X17610Y16124D1*X17752Y15723D2*X14506Y15723D1*X14811Y14514D2*X16990Y14514D1*X16721Y14112D2*X14917Y14112D1*X15598Y13708D2*X16657Y13708D1*X16749Y13307D2*X16055Y13307D1*X17117Y12842D2*X16817Y13142D1*X16657Y13531*X16657Y13952*X16817Y14343*X17117Y14641*X17506Y14803*X17927Y14803*X18316Y14641*X18616Y14343*X18776Y13952*X18776Y13531*X18616Y13142*X18316Y12842*X17927Y12682*X17506Y12682*X17117Y12842*X16187Y12903D2*X17056Y12903D1*X34544Y12502D2*X16152Y12502D1*X23531Y12903D2*X34544Y12903D1*X22796Y14854D2*X22796Y13741D1*X22796Y14854*X22537Y14826D2*X22710Y14854D1*X22796Y14854*X22883Y14854*X23056Y14826*X23223Y14773*X23378Y14691*X23520Y14590*X23645Y14465*X23746Y14323*X23825Y14168*X23881Y14003*X23906Y13830*X23906Y13741*X22796Y13741*X21687Y13741*X22796Y13741*X22796Y12631*X22796Y13741*X23906Y13741*X23906Y13655*X23881Y13482*X23825Y13315*X23746Y13160*X23645Y13018*X23520Y12896*X23378Y12791*X23223Y12713*X23056Y12657*X22883Y12631*X22796Y12631*X22710Y12631*X22537Y12657*X22370Y12713*X22215Y12791*X22073Y12896*X21948Y13018*X21847Y13160*X21768Y13315*X21712Y13482*X21687Y13655*X21687Y13741*X21687Y13830*X21712Y14003*X21768Y14168*X21847Y14323*X21948Y14465*X22073Y14590*X22215Y14691*X22370Y14773*X22537Y14826*X24935Y15723D2*X22365Y15723D1*X22741Y16124D2*X25913Y16124D1*X25931Y16528D2*X22855Y16528D1*X34544Y17333D2*X26657Y17333D1*X26665Y17734D2*X34544Y17734D1*X26510Y18125D2*X26665Y17752D1*X26665Y17351*X26622Y17252*X26723Y17292*X27125Y17292*X27496Y17137*X27780Y16855*X27935Y16482*X27935Y16081*X27780Y15710*X27496Y15425*X27125Y15270*X26723Y15270*X26622Y15314*X26665Y15212*X26665Y14811*X26510Y14440*X26226Y14155*X25855Y14000*X25453Y14000*X25082Y14155*X24798Y14440*X24643Y14811*X24643Y15212*X24798Y15585*X25082Y15867*X25453Y16022*X25855Y16022*X25956Y15982*X25913Y16081*X25913Y16482*X25956Y16584*X25855Y16540*X25453Y16540*X25082Y16695*X24798Y16980*X24643Y17351*X24643Y17752*X24798Y18125*X25082Y18407*X25453Y18562*X25855Y18562*X26226Y18407*X26510Y18125*X34544Y18138D2*X26497Y18138D1*X28821Y18539D2*X34544Y18539D1*X28194Y20569D2*X28194Y19456D1*X28194Y20569*X34544Y20554D2*X28377Y20554D1*X25941Y20955D2*X34544Y20955D1*X28011Y20554D2*X26078Y20554D1*X26060Y20150D2*X27325Y20150D1*X27120Y19748D2*X25857Y19748D1*X27084Y19456D2*X27084Y19545D1*X27109Y19718*X27165Y19883*X27244Y20038*X27346Y20180*X27470Y20305*X27612Y20406*X27767Y20488*X27935Y20541*X28108Y20569*X28194Y20569*X28280Y20569*X28453Y20541*X28621Y20488*X28776Y20406*X28918Y20305*X29042Y20180*X29144Y20038*X29223Y19883*X29279Y19718*X29304Y19545*X29304Y19456*X28194Y19456*X27084Y19456*X27084Y19370D2*X27084Y19456D1*X28194Y19456*X28194Y18346*X28194Y19456*X29304Y19456*X29304Y19370*X29279Y19197*X29223Y19030*X29144Y18875*X29042Y18732*X28918Y18611*X28776Y18506*X28621Y18428*X28453Y18372*X28280Y18346*X28194Y18346*X28108Y18346*X27935Y18372*X27767Y18428*X27612Y18506*X27470Y18611*X27346Y18732*X27244Y18875*X27165Y19030*X27109Y19197*X27084Y19370*X20259Y19345D2*X27087Y19345D1*X21049Y20498D2*X21049Y20409D1*X19939Y20409*X18829Y20409*X18854Y20150D2*X18910Y19982D1*X18989Y19827*X19091Y19685*X19215Y19563*X19357Y19459*X19512Y19380*X19680Y19324*X19853Y19299*X19939Y19299*X19939Y20409*X21049Y20409*X21049Y20323*X21024Y20150*X24181Y19748D2*X20831Y19748D1*X20907Y20955D2*X24097Y20955D1*X24539Y21359D2*X20523Y21359D1*X22461Y26190D2*X24608Y26190D1*X24366Y25786D2*X22537Y25786D1*X22446Y25385D2*X24326Y25385D1*X23398Y24981D2*X22131Y24981D1*X21267Y24580D2*X23122Y24580D1*X23056Y24176D2*X21971Y24176D1*X22410Y23774D2*X23157Y23774D1*X23485Y23371D2*X22537Y23371D1*X22497Y22969D2*X24326Y22969D1*X24402Y22565D2*X22255Y22565D1*X20363Y22164D2*X24694Y22164D1*X34544Y21760D2*X20353Y21760D1*X25499Y21359D2*X34544Y21359D1*X32504Y22164D2*X25979Y22164D1*X26271Y22565D2*X31775Y22565D1*X31532Y23371D2*X26256Y23371D1*X26347Y22969D2*X31567Y22969D1*X25941Y23774D2*X27457Y23774D1*X27196Y24176D2*X25077Y24176D1*X25778Y24580D2*X27135Y24580D1*X27231Y24981D2*X26220Y24981D1*X26347Y25385D2*X27541Y25385D1*X27033Y25786D2*X26307Y25786D1*X26065Y26190D2*X26833Y26190D1*X25908Y26345D2*X26192Y26063D1*X26347Y25690*X26347Y25288*X26192Y24917*X25908Y24633*X25537Y24478*X25136Y24478*X25034Y24521*X25077Y24420*X25077Y24018*X25034Y23919*X25136Y23960*X25537Y23960*X25908Y23805*X26192Y23523*X26347Y23150*X26347Y22748*X26192Y22377*X25908Y22093*X25537Y21938*X25136Y21938*X24765Y22093*X24481Y22377*X24326Y22748*X24326Y23150*X24369Y23251*X24267Y23208*X23866Y23208*X23495Y23363*X23211Y23647*X23056Y24018*X23056Y24420*X23211Y24793*X23495Y25075*X23866Y25230*X24267Y25230*X24369Y25189*X24326Y25288*X24326Y25690*X24481Y26063*X24765Y26345*X25136Y26500*X25537Y26500*X25908Y26345*X34544Y38268D2*X34480Y38268D1*X33866Y37864D2*X34544Y37864D1*X26325Y41890D2*X30236Y41890D1*X30008Y41488D2*X26325Y41488D1*X26325Y41084D2*X29901Y41084D1*X29820Y40683D2*X26325Y40683D1*X26325Y40279D2*X29820Y40279D1*X29863Y39878D2*X26223Y39878D1*X23917Y37864D2*X31412Y37864D1*X34544Y37462D2*X24115Y37462D1*X24125Y37059D2*X34544Y37059D1*X34544Y36657D2*X25123Y36657D1*X25359Y36253D2*X34544Y36253D1*X34544Y35852D2*X25395Y35852D1*X28669Y32228D2*X34544Y32228D1*X34544Y31826D2*X28898Y31826D1*X28936Y31422D2*X34544Y31422D1*X34544Y31021D2*X28816Y31021D1*X25471Y29007D2*X34544Y29007D1*X34544Y28605D2*X25690Y28605D1*X25712Y28202D2*X34544Y28202D1*X34544Y27800D2*X25568Y27800D1*X34544Y26591D2*X33353Y26591D1*X33630Y26190D2*X34544Y26190D1*X34544Y25786D2*X33698Y25786D1*X33612Y25385D2*X34544Y25385D1*X34544Y24981D2*X33312Y24981D1*X29253Y24580D2*X34544Y24580D1*X31999Y24176D2*X29192Y24176D1*X32212Y24298D2*X32380Y24351D1*X32553Y24379*X32639Y24379*X32725Y24379*X32898Y24351*X33066Y24298*X33221Y24216*X33363Y24115*X33487Y23990*X33589Y23848*X33668Y23693*X33724Y23528*X33749Y23355*X33749Y23266*X32639Y23266*X31529Y23266*X32639Y23266*X32639Y22156*X32639Y23266*X33749Y23266*X33749Y23180*X33724Y23007*X33668Y22840*X33589Y22685*X33487Y22542*X33363Y22421*X33221Y22316*X33066Y22238*X32898Y22182*X32725Y22156*X32639Y22156*X32553Y22156*X32380Y22182*X32212Y22238*X32057Y22316*X31915Y22421*X31791Y22542*X31689Y22685*X31610Y22840*X31554Y23007*X31529Y23180*X31529Y23266*X31529Y23355*X31554Y23528*X31610Y23693*X31689Y23848*X31791Y23990*X31915Y24115*X32057Y24216*X32212Y24298*X29157Y24981D2*X31966Y24981D1*X31666Y25385D2*X28847Y25385D1*X28720Y25786D2*X31580Y25786D1*X31648Y26190D2*X28920Y26190D1*X32040Y26706D2*X32428Y26868D1*X32850Y26868*X33238Y26706*X33538Y26408*X33698Y26017*X33698Y25596*X33538Y25207*X33238Y24907*X32850Y24747*X32428Y24747*X32040Y24907*X31740Y25207*X31580Y25596*X31580Y26017*X31740Y26408*X32040Y26706*X28936Y26591D2*X31925Y26591D1*X34544Y26995D2*X28796Y26995D1*X28341Y27396D2*X34544Y27396D1*X25049Y27396D2*X27412Y27396D1*X22509Y27396D2*X24354Y27396D1*X23835Y27800D2*X23028Y27800D1*X23172Y28202D2*X23691Y28202D1*X23713Y28605D2*X23150Y28605D1*X34544Y29411D2*X24440Y29411D1*X24442Y29812D2*X34544Y29812D1*X34544Y30216D2*X24262Y30216D1*X28466Y30617D2*X34544Y30617D1*X26617Y30617D2*X27287Y30617D1*X27084Y32228D2*X26833Y32228D1*X34544Y32631D2*X27310Y32631D1*X33310Y33033D2*X34544Y33033D1*X34544Y33437D2*X33310Y33437D1*X33310Y33838D2*X34544Y33838D1*X34544Y34242D2*X33310Y34242D1*X33310Y34643D2*X34544Y34643D1*X34544Y35047D2*X33310Y35047D1*X25263Y35448D2*X34544Y35448D1*X30698Y35047D2*X24801Y35047D1*X30698Y32995D2*X30698Y35131D1*X30935Y35370*X33073Y35370*X33310Y35131*X33310Y32995*X33073Y32756*X30935Y32756*X30698Y32995*X27592Y33033D2*X30698Y33033D1*X30698Y33437D2*X27666Y33437D1*X27584Y33838D2*X30698Y33838D1*X30698Y34242D2*X27292Y34242D1*X16977Y34643D2*X30698Y34643D1*X20770Y34242D2*X17140Y34242D1*X21526Y33426D2*X21526Y34539D1*X21526Y33426*X20404Y32631D2*X20752Y32631D1*X20267Y33033D2*X20485Y33033D1*X20417Y33437D2*X19865Y33437D1*X17130Y33838D2*X20493Y33838D1*X18743Y33437D2*X16932Y33437D1*X7460Y33033D2*X18341Y33033D1*X5662Y24580D2*X5052Y24580D1*X5042Y24981D2*X5509Y24981D1*X2441Y22969D2*X1524Y22969D1*X1524Y23371D2*X2441Y23371D1*X2441Y23774D2*X1524Y23774D1*X1524Y24176D2*X2441Y24176D1*X2441Y24580D2*X1524Y24580D1*X1524Y24981D2*X2451Y24981D1*X5512Y25385D2*X1524Y25385D1*X1524Y25786D2*X5677Y25786D1*X2441Y28605D2*X1524Y28605D1*X1524Y29007D2*X2441Y29007D1*X2441Y29411D2*X1524Y29411D1*X1524Y29812D2*X2441Y29812D1*X2441Y30216D2*X1524Y30216D1*X1524Y30617D2*X2441Y30617D1*X18204Y32631D2*X1524Y32631D1*X18194Y32474D2*X18194Y32563D1*X18219Y32736*X18275Y32901*X18354Y33056*X18456Y33198*X18580Y33322*X18722Y33424*X18877Y33505*X19045Y33558*X19218Y33586*X19304Y33586*X19390Y33586*X19563Y33558*X19731Y33505*X19886Y33424*X20028Y33322*X20152Y33198*X20254Y33056*X20333Y32901*X20389Y32736*X20414Y32563*X20414Y32474*X19304Y32474*X18194Y32474*X16853Y32228D2*X18217Y32228D1*X18402Y31826D2*X17097Y31826D1*X22601Y30216D2*X18410Y30216D1*X18311Y29812D2*X22421Y29812D1*X22423Y29411D2*X17986Y29411D1*X7442Y29007D2*X21392Y29007D1*X1524Y33033D2*X5748Y33033D1*X1524Y38268D2*X1588Y38268D1*X2202Y37864D2*X1524Y37864D1*X7780Y41890D2*X5832Y41890D1*X6060Y41488D2*X7485Y41488D1*X7399Y41084D2*X6167Y41084D1*X6248Y40683D2*X7460Y40683D1*X7704Y40279D2*X6248Y40279D1*X12857Y40279D2*X9314Y40279D1*X9558Y40683D2*X12593Y40683D1*X12530Y41084D2*X9619Y41084D1*X9533Y41488D2*X12624Y41488D1*X12934Y41890D2*X9238Y41890D1*X19853Y41890D2*X14244Y41890D1*X21306Y40683D2*X21112Y40683D1*X21112Y40279D2*X21306Y40279D1*X21306Y39878D2*X21112Y39878D1*X23815Y39878D2*X22482Y39878D1*X22565Y40279D2*X23713Y40279D1*X23713Y40683D2*X22565Y40683D1*X21306Y41084D2*X23713Y41084D1*X14648Y41084D2*X21112Y41084D1*X19853Y41488D2*X14554Y41488D1*X14585Y40683D2*X19853Y40683D1*X19853Y40279D2*X14321Y40279D1*X6205Y39878D2*X19936Y39878D1*X29972Y39474D2*X6096Y39474D1*X5911Y39073D2*X30157Y39073D1*X30394Y38669D2*X5674Y38669D1*X20091Y38268D2*X30798Y38268D1*X22311Y37864D2*X20323Y37864D1*X20363Y37462D2*X22113Y37462D1*X19906Y36657D2*X21105Y36657D1*X20203Y36954D2*X19903Y36655D1*X19515Y36495*X19093Y36495*X18705Y36655*X18405Y36954*X18245Y37343*X18245Y37765*X18405Y38156*X18705Y38453*X19093Y38616*X19515Y38616*X19903Y38453*X20203Y38156*X20363Y37765*X20363Y37343*X20203Y36954*X22103Y37059D2*X20246Y37059D1*X22847Y36253D2*X22819Y36253D1*X23381Y36253D2*X23409Y36253D1*X22855Y35852D2*X23373Y35852D1*X23505Y35448D2*X22723Y35448D1*X22261Y35047D2*X23967Y35047D1*X25921Y34242D2*X22283Y34242D1*X22560Y33838D2*X25629Y33838D1*X22636Y33426D2*X21526Y33426D1*X20417Y33426*X20417Y33515*X20442Y33688*X20498Y33853*X20577Y34008*X20678Y34150*X20803Y34275*X20945Y34376*X21100Y34458*X21267Y34511*X21440Y34539*X21526Y34539*X21613Y34539*X21786Y34511*X21953Y34458*X22108Y34376*X22250Y34275*X22375Y34150*X22476Y34008*X22555Y33853*X22611Y33688*X22636Y33515*X22636Y33426*X25547Y33437D2*X22636Y33437D1*X22568Y33033D2*X25621Y33033D1*X25867Y32631D2*X22301Y32631D1*X21684Y32228D2*X25110Y32228D1*X24902Y31826D2*X21913Y31826D1*X24862Y31521D2*X25972Y31521D1*X25972Y30411*X25972Y31521*X24862Y31521*X21951Y31422D2*X24862Y31422D1*X24981Y31021D2*X21831Y31021D1*X25390Y30571D2*X25248Y30676D1*X25123Y30798*X25022Y30940*X24943Y31095*X24887Y31262*X24862Y31435*X24862Y31521*X24862Y31610*X24887Y31783*X24943Y31948*X25022Y32103*X25123Y32245*X25248Y32370*X25390Y32471*X25545Y32553*X25712Y32606*X25885Y32634*X25900Y32634*X25707Y32827*X25547Y33216*X25547Y33637*X25707Y34028*X26007Y34326*X26396Y34488*X26817Y34488*X27206Y34326*X27506Y34028*X27666Y33637*X27666Y33216*X27506Y32827*X27206Y32527*X26817Y32367*X26698Y32367*X26820Y32245*X26921Y32103*X26949Y32052*X26977Y32123*X27277Y32421*X27666Y32583*X28087Y32583*X28476Y32421*X28776Y32123*X28936Y31732*X28936Y31311*X28776Y30922*X28476Y30622*X28087Y30462*X27666Y30462*X27277Y30622*X26977Y30922*X26949Y30991*X26921Y30940*X26820Y30798*X26695Y30676*X26553Y30571*X26398Y30493*X26231Y30437*X26058Y30411*X25972Y30411*X25885Y30411*X25712Y30437*X25545Y30493*X25390Y30571*X23655Y30617D2*X25326Y30617D1*X21481Y30617D2*X23208Y30617D1*X18341Y30617D2*X20302Y30617D1*X19952Y31021D2*X18059Y31021D1*X19665Y31422D2*X19832Y31422D1*X18877Y31445D2*X18722Y31524D1*X18580Y31628*X18456Y31750*X18354Y31892*X18275Y32047*X18219Y32215*X18194Y32388*X18194Y32474*X19304Y32474*X19304Y31364*X19304Y32474*X20414Y32474*X20414Y32471*X20681Y32583*X20800Y32583*X20678Y32702*X20577Y32845*X20498Y33000*X20442Y33167*X20417Y33340*X20417Y33426*X21526Y33426*X22636Y33426*X22636Y33340*X22611Y33167*X22555Y33000*X22476Y32845*X22375Y32702*X22250Y32581*X22108Y32476*X21953Y32398*X21786Y32342*X21613Y32316*X21598Y32316*X21791Y32123*X21951Y31732*X21951Y31311*X21791Y30922*X21491Y30622*X21102Y30462*X20681Y30462*X20292Y30622*X19992Y30922*X19832Y31311*X19832Y31496*X19731Y31445*X19563Y31389*X19390Y31364*X19304Y31364*X19218Y31364*X19045Y31389*X18877Y31445*X17140Y31422D2*X18943Y31422D1*X15870Y30216D2*X16388Y30216D1*X16487Y29812D2*X15771Y29812D1*X15446Y29411D2*X16812Y29411D1*X7082Y27396D2*X13840Y27396D1*X13800Y27800D2*X7526Y27800D1*X7663Y28202D2*X13914Y28202D1*X14252Y28605D2*X7645Y28605D1*X7490Y30216D2*X13848Y30216D1*X13917Y30617D2*X7686Y30617D1*X7709Y31021D2*X14199Y31021D1*X15118Y31422D2*X7577Y31422D1*X7257Y34643D2*X12741Y34643D1*X12578Y34242D2*X7597Y34242D1*X7714Y33838D2*X12588Y33838D1*X12786Y33437D2*X7673Y33437D1*X15326Y33437D2*X14392Y33437D1*X14590Y33838D2*X15128Y33838D1*X15118Y34242D2*X14600Y34242D1*X15865Y35047D2*X15834Y35047D1*X21427Y35047D2*X16393Y35047D1*X15870Y35448D2*X20965Y35448D1*X20833Y35852D2*X15738Y35852D1*X20833Y36167D2*X20988Y36540D1*X21272Y36822*X21643Y36977*X22045Y36977*X22146Y36937*X22103Y37036*X22103Y37437*X22258Y37810*X22542Y38092*X22913Y38247*X23315Y38247*X23686Y38092*X23970Y37810*X24125Y37437*X24125Y37036*X24082Y36937*X24183Y36977*X24585Y36977*X24956Y36822*X25240Y36540*X25395Y36167*X25395Y35766*X25240Y35395*X24956Y35110*X24585Y34955*X24183Y34955*X23812Y35110*X23528Y35395*X23373Y35766*X23373Y36167*X23416Y36269*X23315Y36225*X22913Y36225*X22812Y36269*X22855Y36167*X22855Y35766*X22700Y35395*X22416Y35110*X22045Y34955*X21643Y34955*X21272Y35110*X20988Y35395*X20833Y35766*X20833Y36167*X15273Y36253D2*X20869Y36253D1*X11968Y36657D2*X15845Y36657D1*X15504Y37059D2*X12309Y37059D1*X12426Y37462D2*X15387Y37462D1*X15428Y37864D2*X12385Y37864D1*X15547Y38156D2*X15387Y37765D1*X15387Y37343*X15547Y36954*X15847Y36655*X16236Y36495*X16657Y36495*X17046Y36655*X17346Y36954*X17506Y37343*X17506Y37765*X17346Y38156*X17046Y38453*X16657Y38616*X16236Y38616*X15847Y38453*X15547Y38156*X12154Y38268D2*X15659Y38268D1*X5270Y38268D2*X10579Y38268D1*X10348Y37864D2*X4656Y37864D1*X1524Y37462D2*X10307Y37462D1*X1524Y36253D2*X2611Y36253D1*X2441Y35852D2*X1524Y35852D1*X1524Y35448D2*X2441Y35448D1*X2441Y35047D2*X1524Y35047D1*X1524Y34643D2*X2441Y34643D1*X2441Y34242D2*X1524Y34242D1*X1524Y33838D2*X2548Y33838D1*X5535Y33437D2*X1524Y33437D1*X5494Y33838D2*X4945Y33838D1*X5052Y34242D2*X5611Y34242D1*X5951Y34643D2*X5052Y34643D1*X5052Y35852D2*X5636Y35852D1*X4816Y36322D2*X5052Y36083D1*X5052Y33947*X4816Y33708*X2677Y33708*X2441Y33947*X2441Y36083*X2677Y36322*X4816Y36322*X5545Y36253D2*X4882Y36253D1*X1524Y36657D2*X5611Y36657D1*X5880Y37059D2*X1524Y37059D1*X10424Y37059D2*X7328Y37059D1*X10767Y36655D2*X10467Y36954D1*X10307Y37343*X10307Y37765*X10467Y38156*X10767Y38453*X11156Y38616*X11577Y38616*X11966Y38453*X12266Y38156*X12426Y37765*X12426Y37343*X12266Y36954*X11966Y36655*X11577Y36495*X11156Y36495*X10767Y36655*X7597Y36657D2*X10765Y36657D1*X14445Y36253D2*X7663Y36253D1*X7572Y35852D2*X13980Y35852D1*X13848Y35448D2*X7267Y35448D1*X13853Y35047D2*X13884Y35047D1*X13388Y35072D2*X13790Y35072D1*X13891Y35032*X13848Y35131*X13848Y35532*X14003Y35905*X14288Y36187*X14658Y36342*X15060Y36342*X15430Y36187*X15715Y35905*X15870Y35532*X15870Y35131*X15827Y35032*X15928Y35072*X16330Y35072*X16700Y34917*X16985Y34635*X17140Y34262*X17140Y33861*X16985Y33490*X16700Y33205*X16330Y33050*X15928Y33050*X15558Y33205*X15273Y33490*X15118Y33861*X15118Y34262*X15161Y34364*X15060Y34320*X14658Y34320*X14557Y34364*X14600Y34262*X14600Y33861*X14445Y33490*X14160Y33205*X13790Y33050*X13388Y33050*X13018Y33205*X12733Y33490*X12578Y33861*X12578Y34262*X12733Y34635*X13018Y34917*X13388Y35072*X5052Y35047D2*X13325Y35047D1*X5941Y35448D2*X5052Y35448D1*X6393Y35225D2*X6005Y35385D1*X5705Y35684*X5545Y36073*X5545Y36495*X5705Y36886*X6005Y37183*X6393Y37346*X6815Y37346*X7203Y37183*X7503Y36886*X7663Y36495*X7663Y36073*X7503Y35684*X7203Y35385*X6815Y35225*X6393Y35225*X6604Y33744D2*X6604Y34856D1*X6690Y34856*X6863Y34828*X7031Y34775*X7186Y34694*X7328Y34592*X7452Y34468*X7554Y34326*X7633Y34171*X7689Y34006*X7714Y33833*X7714Y33744*X6604Y33744*X6604Y34856*X6518Y34856*X6345Y34828*X6177Y34775*X6022Y34694*X5880Y34592*X5756Y34468*X5654Y34326*X5575Y34171*X5519Y34006*X5494Y33833*X5494Y33744*X6604Y33744*X6604Y32634D2*X6518Y32634D1*X6345Y32659*X6177Y32715*X6022Y32794*X5880Y32898*X5756Y33020*X5654Y33162*X5575Y33317*X5519Y33485*X5494Y33658*X5494Y33744*X6604Y33744*X6604Y32634*X6604Y33744*X7714Y33744*X7714Y33658*X7689Y33485*X7633Y33317*X7554Y33162*X7452Y33020*X7328Y32898*X7186Y32794*X7031Y32715*X6863Y32659*X6690Y32634*X6604Y32634*X6604Y31999D2*X6604Y30886D1*X6604Y31999*X15161Y31826D2*X7203Y31826D1*X1524Y32228D2*X15405Y32228D1*X6005Y31826D2*X1524Y31826D1*X1524Y31422D2*X5631Y31422D1*X5499Y31021D2*X1524Y31021D1*X5494Y30886D2*X5494Y30975D1*X5519Y31148*X5575Y31313*X5654Y31468*X5756Y31610*X5880Y31735*X6022Y31836*X6177Y31918*X6345Y31971*X6518Y31999*X6604Y31999*X6690Y31999*X6863Y31971*X7031Y31918*X7186Y31836*X7328Y31735*X7452Y31610*X7554Y31468*X7633Y31313*X7689Y31148*X7714Y30975*X7714Y30886*X6604Y30886*X5494Y30886*X5522Y30617D2*X5052Y30617D1*X5052Y30216D2*X5718Y30216D1*X6314Y29812D2*X5052Y29812D1*X6604Y29776D2*X6518Y29776D1*X6345Y29802*X6177Y29858*X6022Y29936*X5880Y30041*X5756Y30162*X5654Y30305*X5575Y30460*X5519Y30627*X5494Y30800*X5494Y30886*X6604Y30886*X6604Y29776*X6863Y29802D2*X6690Y29776D1*X6604Y29776*X6604Y30886*X7714Y30886*X7714Y30800*X7689Y30627*X7633Y30460*X7554Y30305*X7452Y30162*X7328Y30041*X7186Y29936*X7031Y29858*X6863Y29802*X13947Y29812D2*X6894Y29812D1*X14288Y29395D2*X14003Y29680D1*X13848Y30051*X13848Y30452*X14003Y30825*X14288Y31107*X14658Y31262*X15060Y31262*X15161Y31222*X15118Y31321*X15118Y31722*X15273Y32095*X15558Y32377*X15928Y32532*X16330Y32532*X16700Y32377*X16985Y32095*X17140Y31722*X17140Y31321*X17097Y31222*X17198Y31262*X17600Y31262*X17970Y31107*X18255Y30825*X18410Y30452*X18410Y30051*X18255Y29680*X17970Y29395*X17600Y29240*X17198Y29240*X16828Y29395*X16543Y29680*X16388Y30051*X16388Y30452*X16431Y30554*X16330Y30510*X15928Y30510*X15827Y30554*X15870Y30452*X15870Y30051*X15715Y29680*X15430Y29395*X15060Y29240*X14658Y29240*X14288Y29395*X5052Y29411D2*X14272Y29411D1*X5052Y29007D2*X5766Y29007D1*X5052Y28550D2*X5052Y30686D1*X4816Y30924*X2677Y30924*X2441Y30686*X2441Y28550*X2677Y28311*X4816Y28311*X5052Y28550*X5563Y28605D2*X5052Y28605D1*X1524Y28202D2*X5545Y28202D1*X5682Y27800D2*X1524Y27800D1*X6005Y27447D2*X5705Y27747D1*X5545Y28136*X5545Y28557*X5705Y28948*X6005Y29246*X6393Y29408*X6815Y29408*X7203Y29246*X7503Y28948*X7663Y28557*X7663Y28136*X7503Y27747*X7203Y27447*X6815Y27287*X6393Y27287*X6005Y27447*X1524Y27396D2*X6126Y27396D1*X14077Y26995D2*X1524Y26995D1*X7056Y26190D2*X15194Y26190D1*X15118Y25786D2*X7531Y25786D1*X7696Y25385D2*X14277Y25385D1*X13950Y24981D2*X7699Y24981D1*X7546Y24580D2*X13848Y24580D1*X13665Y19345D2*X7633Y19345D1*X7714Y19748D2*X14138Y19748D1*X14801Y20150D2*X7650Y20150D1*X7396Y20554D2*X14910Y20554D1*X5494Y19748D2*X4877Y19748D1*X5052Y19345D2*X5575Y19345D1*X5865Y18943D2*X5052Y18943D1*X6604Y20886D2*X6604Y19774D1*X6604Y20886*X13175Y21760D2*X7231Y21760D1*X7556Y22164D2*X13165Y22164D1*X13312Y22565D2*X7663Y22565D1*X7612Y22969D2*X13800Y22969D1*X20516Y23371D2*X7363Y23371D1*X19728Y22969D2*X20556Y22969D1*X19515Y23058D2*X19903Y22896D1*X20203Y22598*X20363Y22207*X20363Y21786*X20239Y21481*X20366Y21440*X20521Y21359*X20663Y21257*X20787Y21133*X20889Y20991*X20968Y20836*X21024Y20671*X21049Y20498*X23960Y20554D2*X21041Y20554D1*X23960Y20198D2*X23960Y20620D1*X24120Y21011*X24420Y21308*X24808Y21471*X25230Y21471*X25618Y21308*X25918Y21011*X26078Y20620*X26078Y20198*X25918Y19809*X25618Y19510*X25230Y19350*X24808Y19350*X24420Y19510*X24120Y19809*X23960Y20198*X23978Y20150D2*X21024Y20150D1*X20968Y19982*X20889Y19827*X20787Y19685*X20663Y19563*X20521Y19459*X20366Y19380*X20198Y19324*X20025Y19299*X19939Y19299*X19939Y20409*X18829Y20409*X16713Y20554D2*X18837Y20554D1*X16822Y20150D2*X18854Y20150D1*X18829Y20323*X18829Y20409*X18829Y20498*X18854Y20671*X18910Y20836*X18984Y20983*X18705Y21097*X18405Y21397*X18245Y21786*X18245Y22207*X18405Y22598*X18705Y22896*X19093Y23058*X19515Y23058*X18064Y23774D2*X19591Y23774D1*X19312Y24176D2*X18344Y24176D1*X18410Y24580D2*X19246Y24580D1*X19347Y24981D2*X18308Y24981D1*X17981Y25385D2*X19675Y25385D1*X20516Y25786D2*X17140Y25786D1*X17064Y26190D2*X20592Y26190D1*X20881Y26591D2*X16774Y26591D1*X26957Y26995D2*X20721Y26995D1*X26817Y26652D2*X26977Y27043D1*X27277Y27341*X27666Y27503*X28087Y27503*X28476Y27341*X28776Y27043*X28936Y26652*X28936Y26231*X28776Y25842*X28494Y25560*X28793Y25436*X29093Y25138*X29253Y24747*X29253Y24326*X29093Y23937*X28793Y23637*X28405Y23477*X27983Y23477*X27595Y23637*X27295Y23937*X27135Y24326*X27135Y24747*X27295Y25138*X27577Y25418*X27277Y25542*X26977Y25842*X26817Y26231*X26817Y26652*X22172Y26591D2*X26817Y26591D1*X21727Y26817D2*X22098Y26662D1*X22382Y26380*X22537Y26007*X22537Y25606*X22382Y25235*X22098Y24950*X21727Y24795*X21326Y24795*X21224Y24839*X21267Y24737*X21267Y24336*X21224Y24237*X21326Y24277*X21727Y24277*X22098Y24122*X22382Y23840*X22537Y23467*X22537Y23066*X22382Y22695*X22098Y22410*X21727Y22255*X21326Y22255*X20955Y22410*X20671Y22695*X20516Y23066*X20516Y23467*X20559Y23569*X20457Y23525*X20056Y23525*X19685Y23680*X19401Y23965*X19246Y24336*X19246Y24737*X19401Y25110*X19685Y25392*X20056Y25547*X20457Y25547*X20559Y25507*X20516Y25606*X20516Y26007*X20671Y26380*X20955Y26662*X21326Y26817*X21727Y26817*X20958Y27396D2*X21814Y27396D1*X20998Y27800D2*X21295Y27800D1*X21151Y28202D2*X20884Y28202D1*X21151Y28547D2*X21306Y28920D1*X21590Y29202*X21961Y29357*X22362Y29357*X22464Y29317*X22421Y29416*X22421Y29817*X22576Y30190*X22860Y30472*X23231Y30627*X23632Y30627*X24003Y30472*X24287Y30190*X24442Y29817*X24442Y29416*X24399Y29317*X24501Y29357*X24902Y29357*X25273Y29202*X25557Y28920*X25712Y28547*X25712Y28146*X25557Y27775*X25273Y27490*X24902Y27335*X24501Y27335*X24130Y27490*X23846Y27775*X23691Y28146*X23691Y28547*X23734Y28649*X23632Y28605*X23231Y28605*X23129Y28649*X23172Y28547*X23172Y28146*X23017Y27775*X22733Y27490*X22362Y27335*X21961Y27335*X21590Y27490*X21306Y27775*X21151Y28146*X21151Y28547*X20546Y28605D2*X21173Y28605D1*X15466Y28605D2*X19332Y28605D1*X18994Y28202D2*X15804Y28202D1*X15918Y27800D2*X18880Y27800D1*X18920Y27396D2*X15878Y27396D1*X19040Y27112D2*X18880Y27501D1*X18880Y27922*X19040Y28313*X19340Y28611*X19728Y28773*X20150Y28773*X20538Y28611*X20838Y28313*X20998Y27922*X20998Y27501*X20838Y27112*X20538Y26812*X20150Y26652*X19728Y26652*X19340Y26812*X19040Y27112*X15641Y26995D2*X19157Y26995D1*X15458Y26812D2*X15758Y27112D1*X15918Y27501*X15918Y27922*X15758Y28313*X15458Y28611*X15070Y28773*X14648Y28773*X14260Y28611*X13960Y28313*X13800Y27922*X13800Y27501*X13960Y27112*X14260Y26812*X14648Y26652*X15070Y26652*X15458Y26812*X1524Y26591D2*X15484Y26591D1*X6152Y26190D2*X1524Y26190D1*X6604Y25171D2*X6604Y26284D1*X6690Y26284*X6863Y26256*X7031Y26203*X7186Y26121*X7328Y26020*X7452Y25895*X7554Y25753*X7633Y25598*X7689Y25433*X7714Y25260*X7714Y25171*X6604Y25171*X6604Y26284*X6518Y26284*X6345Y26256*X6177Y26203*X6022Y26121*X5880Y26020*X5756Y25895*X5654Y25753*X5575Y25598*X5519Y25433*X5494Y25260*X5494Y25171*X6604Y25171*X13914Y24176D2*X7097Y24176D1*X14288Y23680D2*X14003Y23965D1*X13848Y24336*X13848Y24737*X14003Y25110*X14288Y25392*X14658Y25547*X15060Y25547*X15161Y25507*X15118Y25606*X15118Y26007*X15273Y26380*X15558Y26662*X15928Y26817*X16330Y26817*X16700Y26662*X16985Y26380*X17140Y26007*X17140Y25606*X17097Y25507*X17198Y25547*X17600Y25547*X17970Y25392*X18255Y25110*X18410Y24737*X18410Y24336*X18255Y23965*X17970Y23680*X17600Y23525*X17198Y23525*X16828Y23680*X16543Y23965*X16388Y24336*X16388Y24737*X16431Y24839*X16330Y24795*X15928Y24795*X15827Y24839*X15870Y24737*X15870Y24336*X15715Y23965*X15430Y23680*X15060Y23525*X14658Y23525*X14288Y23680*X5052Y23774D2*X14194Y23774D1*X6111Y24176D2*X5052Y24176D1*X6177Y24143D2*X6345Y24087D1*X6518Y24061*X6604Y24061*X6604Y25171*X7714Y25171*X7714Y25085*X7689Y24912*X7633Y24745*X7554Y24590*X7452Y24448*X7328Y24326*X7186Y24221*X7031Y24143*X6863Y24087*X6690Y24061*X6604Y24061*X6604Y25171*X5494Y25171*X5494Y25085*X5519Y24912*X5575Y24745*X5654Y24590*X5756Y24448*X5880Y24326*X6022Y24221*X6177Y24143*X5052Y23371D2*X5845Y23371D1*X5052Y22835D2*X5052Y24971D1*X4816Y25210*X2677Y25210*X2441Y24971*X2441Y22835*X2677Y22596*X4816Y22596*X5052Y22835*X5596Y22969D2*X5052Y22969D1*X1524Y22565D2*X5545Y22565D1*X5652Y22164D2*X1524Y22164D1*X6005Y21732D2*X5705Y22032D1*X5545Y22421*X5545Y22842*X5705Y23233*X6005Y23531*X6393Y23693*X6815Y23693*X7203Y23531*X7503Y23233*X7663Y22842*X7663Y22421*X7503Y22032*X7203Y21732*X6815Y21572*X6393Y21572*X6005Y21732*X1524Y21760D2*X5977Y21760D1*X13363Y21359D2*X1524Y21359D1*X14013Y20937D2*X13625Y21097D1*X13325Y21397*X13165Y21786*X13165Y22207*X13325Y22598*X13625Y22896*X14013Y23058*X14435Y23058*X14823Y22896*X15123Y22598*X15283Y22207*X15283Y21786*X15123Y21397*X14823Y21097*X14435Y20937*X14013Y20937*X1524Y20955D2*X13967Y20955D1*X5812Y20554D2*X1524Y20554D1*X5575Y20201D2*X5654Y20356D1*X5756Y20498*X5880Y20622*X6022Y20724*X6177Y20805*X6345Y20858*X6518Y20886*X6604Y20886*X6690Y20886*X6863Y20858*X7031Y20805*X7186Y20724*X7328Y20622*X7452Y20498*X7554Y20356*X7633Y20201*X7689Y20036*X7714Y19863*X7714Y19774*X6604Y19774*X5494Y19774*X6604Y19774*X6604Y18664*X6518Y18664*X6345Y18689*X6177Y18745*X6022Y18824*X5880Y18928*X5756Y19050*X5654Y19192*X5575Y19347*X5519Y19515*X5494Y19688*X5494Y19774*X5494Y19863*X5519Y20036*X5575Y20201*X1524Y20150D2*X5558Y20150D1*X1524Y19748D2*X2616Y19748D1*X2441Y19345D2*X1524Y19345D1*X1524Y18943D2*X2441Y18943D1*X2441Y18539D2*X1524Y18539D1*X1524Y18138D2*X2441Y18138D1*X2441Y17734D2*X1524Y17734D1*X1524Y17333D2*X2545Y17333D1*X2055Y10488D2*X1524Y10488D1*X1524Y10892D2*X6116Y10892D1*X5682Y11293D2*X1524Y11293D1*X13335Y14917D2*X7577Y14917D1*X7706Y14514D2*X13002Y14514D1*X12896Y14112D2*X7686Y14112D1*X7493Y13708D2*X12215Y13708D1*X1524Y14917D2*X5631Y14917D1*X6010Y15319D2*X1524Y15319D1*X1524Y16528D2*X5812Y16528D1*X5583Y16929D2*X1524Y16929D1*X4948Y17333D2*X5545Y17333D1*X5052Y17437D2*X5052Y19573D1*X4816Y19812*X2677Y19812*X2441Y19573*X2441Y17437*X2677Y17198*X4816Y17198*X5052Y17437*X5664Y17734D2*X5052Y17734D1*X5052Y18138D2*X6012Y18138D1*X13564Y18539D2*X5052Y18539D1*X7343Y18943D2*X13531Y18943D1*X7031Y18745D2*X6863Y18689D1*X6690Y18664*X6604Y18664*X6604Y19774*X7714Y19774*X7714Y19688*X7689Y19515*X7633Y19347*X7554Y19192*X7452Y19050*X7328Y18928*X7186Y18824*X7031Y18745*X13797Y18138D2*X7196Y18138D1*X13970Y17965D2*X13686Y18250D1*X13531Y18621*X13531Y19022*X13686Y19395*X13970Y19677*X14341Y19832*X14742Y19832*X14844Y19792*X14801Y19891*X14801Y20292*X14956Y20665*X15240Y20947*X15611Y21102*X16012Y21102*X16383Y20947*X16667Y20665*X16822Y20292*X16822Y19891*X16779Y19792*X16881Y19832*X17282Y19832*X17653Y19677*X17937Y19395*X18092Y19022*X18092Y18621*X17937Y18250*X17653Y17965*X17282Y17810*X16881Y17810*X16510Y17965*X16226Y18250*X16071Y18621*X16071Y19022*X16114Y19124*X16012Y19080*X15611Y19080*X15509Y19124*X15552Y19022*X15552Y18621*X15397Y18250*X15113Y17965*X14742Y17810*X14341Y17810*X13970Y17965*X18433Y17333D2*X13825Y17333D1*X18880Y17343D2*X19268Y17181D1*X19568Y16883*X19728Y16492*X19728Y16071*X19568Y15682*X19268Y15382*X18880Y15222*X18458Y15222*X18070Y15382*X17770Y15682*X17610Y16071*X17610Y16492*X17770Y16883*X18070Y17181*X18458Y17343*X18880Y17343*X19703Y17333D2*X18905Y17333D1*X19563Y17668D2*X19563Y18070D1*X19718Y18443*X20002Y18725*X20373Y18880*X20775Y18880*X21146Y18725*X21430Y18443*X21585Y18070*X21585Y17668*X21542Y17569*X21643Y17610*X22045Y17610*X22146Y17569*X22103Y17668*X22103Y18070*X22258Y18443*X22542Y18725*X22913Y18880*X23315Y18880*X23686Y18725*X23970Y18443*X24125Y18070*X24125Y17668*X23970Y17297*X23686Y17013*X23315Y16858*X22913Y16858*X22812Y16901*X22855Y16800*X22855Y16398*X22700Y16027*X22416Y15743*X22045Y15588*X21643Y15588*X21272Y15743*X20988Y16027*X20833Y16398*X20833Y16800*X20876Y16901*X20775Y16858*X20373Y16858*X20002Y17013*X19718Y17297*X19563Y17668*X7544Y17734D2*X19563Y17734D1*X13353Y17333D2*X7663Y17333D1*X7625Y16929D2*X12738Y16929D1*X7503Y16634D2*X7203Y16335D1*X6815Y16175*X6393Y16175*X6005Y16335*X5705Y16634*X5545Y17023*X5545Y17445*X5705Y17836*X6005Y18133*X6393Y18296*X6815Y18296*X7203Y18133*X7503Y17836*X7663Y17445*X7663Y17023*X7503Y16634*X12543Y16528D2*X7396Y16528D1*X1524Y16124D2*X12530Y16124D1*X12672Y15723D2*X1524Y15723D1*X12990Y15382D2*X12690Y15682D1*X12530Y16071*X12530Y16492*X12690Y16883*X12990Y17181*X13378Y17343*X13800Y17343*X14188Y17181*X14488Y16883*X14648Y16492*X14648Y16071*X14488Y15682*X14188Y15382*X13800Y15222*X13378Y15222*X12990Y15382*X7198Y15319D2*X13142Y15319D1*X6604Y14376D2*X6604Y15489D1*X6604Y14376*X6304Y13307D2*X5052Y13307D1*X5052Y13708D2*X5715Y13708D1*X5522Y14112D2*X5052Y14112D1*X5494Y14465D2*X5519Y14638D1*X5575Y14803*X5654Y14958*X5756Y15100*X5880Y15225*X6022Y15326*X6177Y15408*X6345Y15461*X6518Y15489*X6604Y15489*X6690Y15489*X6863Y15461*X7031Y15408*X7186Y15326*X7328Y15225*X7452Y15100*X7554Y14958*X7633Y14803*X7689Y14638*X7714Y14465*X7714Y14376*X6604Y14376*X5494Y14376*X5494Y14465*X1524Y14514D2*X5502Y14514D1*X2441Y14112D2*X1524Y14112D1*X1524Y13708D2*X2441Y13708D1*X2441Y13307D2*X1524Y13307D1*X1524Y12903D2*X2441Y12903D1*X2441Y12502D2*X1524Y12502D1*X1524Y12098D2*X2441Y12098D1*X5545Y11697D2*X1524Y11697D1*X5052Y12040D2*X5052Y14176D1*X4816Y14414*X2677Y14414*X2441Y14176*X2441Y12040*X2677Y11801*X4816Y11801*X5052Y12040*X5565Y12098D2*X5052Y12098D1*X5052Y12502D2*X5768Y12502D1*X11626Y12903D2*X5052Y12903D1*X6904Y13307D2*X11758Y13307D1*X7031Y13348D2*X7186Y13426D1*X7328Y13531*X7452Y13652*X7554Y13795*X7633Y13950*X7689Y14117*X7714Y14290*X7714Y14376*X6604Y14376*X5494Y14376*X5494Y14290*X5519Y14117*X5575Y13950*X5654Y13795*X5756Y13652*X5880Y13531*X6022Y13426*X6177Y13348*X6345Y13292*X6518Y13266*X6604Y13266*X6604Y14376*X6604Y13266*X6690Y13266*X6863Y13292*X7031Y13348*X11661Y12502D2*X7440Y12502D1*X11781Y12217D2*X12065Y11933D1*X12436Y11778*X12837Y11778*X13208Y11933*X13492Y12217*X13647Y12588*X13647Y12990*X13604Y13091*X13706Y13048*X14107Y13048*X14209Y13091*X14166Y12990*X14166Y12588*X14321Y12217*X14605Y11933*X14976Y11778*X15377Y11778*X15748Y11933*X16032Y12217*X16187Y12588*X16187Y12990*X16032Y13363*X15748Y13645*X15377Y13800*X14976Y13800*X14874Y13759*X14917Y13858*X14917Y14260*X14762Y14633*X14478Y14915*X14107Y15070*X13706Y15070*X13335Y14915*X13051Y14633*X12896Y14260*X12896Y13858*X12939Y13759*X12837Y13800*X12436Y13800*X12065Y13645*X11781Y13363*X11626Y12990*X11626Y12588*X11781Y12217*X7643Y12098D2*X11897Y12098D1*X17727Y11697D2*X7663Y11697D1*X16901Y11293D2*X17610Y11293D1*X17650Y10892D2*X17142Y10892D1*X17770Y10602D2*X17610Y10991D1*X17610Y11412*X17770Y11803*X18070Y12101*X18458Y12263*X18880Y12263*X19268Y12101*X19568Y11803*X19728Y11412*X19728Y10991*X19568Y10602*X19268Y10302*X18880Y10142*X18458Y10142*X18070Y10302*X17770Y10602*X17188Y10488D2*X17884Y10488D1*X30711Y10086D2*X17076Y10086D1*X16744Y9682D2*X30340Y9682D1*X11664Y9682D2*X15514Y9682D1*X15182Y10086D2*X11996Y10086D1*X12108Y10488D2*X15070Y10488D1*X15116Y10892D2*X12062Y10892D1*X15230Y11168D2*X15530Y11466D1*X15918Y11628*X16340Y11628*X16728Y11466*X17028Y11168*X17188Y10777*X17188Y10356*X17028Y9967*X16728Y9667*X16340Y9507*X15918Y9507*X15530Y9667*X15230Y9967*X15070Y10356*X15070Y10777*X15230Y11168*X11821Y11293D2*X15357Y11293D1*X7526Y11293D2*X10277Y11293D1*X7203Y10937D2*X6815Y10777D1*X6393Y10777*X6005Y10937*X5705Y11237*X5545Y11626*X5545Y12047*X5705Y12438*X6005Y12736*X6393Y12898*X6815Y12898*X7203Y12736*X7503Y12438*X7663Y12047*X7663Y11626*X7503Y11237*X7203Y10937*X10036Y10892D2*X7092Y10892D1*X4803Y10488D2*X9990Y10488D1*X10102Y10086D2*X5357Y10086D1*X10450Y9667D2*X10150Y9967D1*X9990Y10356*X9990Y10777*X10150Y11168*X10450Y11466*X10838Y11628*X11260Y11628*X11648Y11466*X11948Y11168*X12108Y10777*X12108Y10356*X11948Y9967*X11648Y9667*X11260Y9507*X10838Y9507*X10450Y9667*X5728Y9682D2*X10434Y9682D1*X29949Y8877D2*X6119Y8877D1*X5961Y9281D2*X30107Y9281D1*X6055Y9116D2*X5685Y9759D1*X5161Y10282*X4516Y10653*X3800Y10846*X3058Y10846*X2342Y10653*X1697Y10282*X1524Y10109*X1524Y38331*X1697Y38156*X2342Y37785*X3058Y37592*X3800Y37592*X4516Y37785*X5161Y38156*X5685Y38682*X6055Y39324*X6248Y40041*X6248Y40782*X6055Y41501*X5768Y41999*X7930Y41999*X7927Y41996*X7785Y41895*X7661Y41770*X7559Y41628*X7480Y41473*X7424Y41308*X7399Y41135*X7399Y41046*X8509Y41046*X7399Y41046*X7399Y40960*X7424Y40787*X7480Y40620*X7559Y40465*X7661Y40322*X7785Y40201*X7927Y40096*X8082Y40018*X8250Y39962*X8423Y39936*X8509Y39936*X8509Y41046*X9619Y41046*X9619Y40960*X9594Y40787*X9538Y40620*X9459Y40465*X9357Y40322*X9233Y40201*X9091Y40096*X8936Y40018*X8768Y39962*X8595Y39936*X8509Y39936*X8509Y41046*X9619Y41046*X9619Y41135*X9594Y41308*X9538Y41473*X9459Y41628*X9357Y41770*X9233Y41895*X9091Y41996*X9088Y41999*X13117Y41999*X12990Y41946*X12690Y41648*X12530Y41257*X12530Y40836*X12690Y40447*X12990Y40147*X13378Y39987*X13800Y39987*X14188Y40147*X14488Y40447*X14648Y40836*X14648Y41257*X14488Y41648*X14188Y41946*X14061Y41999*X19853Y41999*X19853Y41143*X21112Y41143*X21112Y40950*X19853Y40950*X19853Y40086*X19883Y39969*X19944Y39865*X20028Y39781*X20132Y39721*X20249Y39690*X21112Y39690*X21112Y40950*X21306Y40950*X22565Y40950*X22565Y40086*X22535Y39969*X22474Y39865*X22390Y39781*X22286Y39721*X22169Y39690*X21306Y39690*X21306Y40950*X21306Y41143*X22565Y41143*X22565Y41999*X23713Y41999*X23713Y39980*X23950Y39741*X26088Y39741*X26325Y39980*X26325Y41999*X30300Y41999*X30013Y41501*X29820Y40782*X29820Y40041*X30013Y39324*X30383Y38682*X30907Y38156*X31552Y37785*X32268Y37592*X33010Y37592*X33726Y37785*X34371Y38156*X34544Y38331*X34544Y10109*X34371Y10282*X33726Y10653*X33010Y10846*X32268Y10846*X31552Y10653*X30907Y10282*X30383Y9759*X30013Y9116*X29891Y8661*X6177Y8661*X6055Y9116*D10*X11049Y10566D3*X23749Y11201D3*X22796Y13741D3*X32639Y23266D3*X32639Y25806D3*X25972Y31521D3*X26606Y33426D3*X27876Y31521D3*X27876Y26441D3*X28194Y24536D3*X28194Y19456D3*X25019Y20409D3*X14859Y27711D3*X14224Y21996D3*X13589Y16281D3*X16129Y10566D3*X18669Y11201D3*X17716Y13741D3*X18669Y16281D3*X19939Y20409D3*X19304Y21996D3*X19939Y27711D3*X19304Y32474D3*X20892Y31521D3*X21526Y33426D3*X19304Y37554D3*X16446Y37554D3*X13589Y41046D3*X11366Y37554D3*X8509Y41046D3*X6604Y36284D3*X6604Y33744D3*X6604Y30886D3*X6604Y28346D3*X6604Y25171D3*X6604Y22631D3*X6604Y19774D3*X6604Y17234D3*X6604Y14376D3*X6604Y11836D3*D11*X32004Y15011D3*X32004Y34061D3*X25019Y41046D3*X21209Y41046D3*X3746Y35014D3*X3746Y29616D3*X3746Y23901D3*X3746Y18504D3*X3746Y13106D3*D12*X24384Y35966D3*X23114Y37236D3*X21844Y35966D3*X13589Y34061D3*X14859Y35331D3*X16129Y34061D3*X17399Y30251D3*X16129Y31521D3*X14859Y30251D3*X14859Y24536D3*X16129Y25806D3*X17399Y24536D3*X25336Y22949D3*X24066Y24219D3*X25336Y25489D3*X24702Y28346D3*X23432Y29616D3*X22162Y28346D3*X21526Y25806D3*X20256Y24536D3*X21526Y23266D3*X15176Y12789D3*X12636Y12789D3*X13906Y14059D3*X14542Y18821D3*X15812Y20091D3*X17082Y18821D3*X20574Y17869D3*X21844Y16599D3*X23114Y17869D3*X25654Y17551D3*X25654Y15011D3*X26924Y16281D3*D13*X23749Y10488D3*X23749Y10892D3*X23749Y11201D3*X23749Y11293D3*X23749Y11697D3*X23749Y12098D3*X32639Y22164D3*X32639Y22565D3*X32639Y22969D3*X32639Y23371D3*X32639Y23774D3*X32639Y24176D3*X32639Y23266D3*X19304Y33437D3*X19304Y33033D3*X19304Y32631D3*X19304Y32474D3*X19304Y32228D3*X19304Y31826D3*X23749Y11201D3*X23749Y11201D3*X23749Y11201D3*X22796Y12903D3*X22796Y13307D3*X22796Y13708D3*X22796Y14112D3*X22796Y14514D3*X22796Y13741D3*X22796Y13741D3*X22796Y13741D3*X22796Y13741D3*X28194Y18539D3*X28194Y18943D3*X28194Y19345D3*X28194Y19456D3*X28194Y19748D3*X28194Y20150D3*X28194Y20554D3*X28194Y19456D3*X28194Y19456D3*X28194Y19456D3*X19939Y19345D3*X19939Y19748D3*X19939Y20150D3*X19939Y20409D3*X19939Y20409D3*X19939Y20409D3*X32639Y23266D3*X32639Y23266D3*X32639Y23266D3*X25972Y30617D3*X25972Y31021D3*X25972Y31422D3*X21526Y34242D3*X21526Y33838D3*X21526Y33437D3*X21526Y33426D3*X19304Y32474D3*X19304Y32474D3*X6604Y30216D3*X6604Y30617D3*X6604Y30886D3*X6604Y31021D3*X6604Y31422D3*X8509Y40683D3*X8509Y40279D3*X21526Y33426D3*X25972Y31521D3*X25972Y31521D3*X19304Y31422D3*X19304Y32474D3*X21526Y33426D3*X6604Y34643D3*X6604Y34242D3*X6604Y33838D3*X6604Y33744D3*X6604Y33744D3*X6604Y33744D3*X6604Y33437D3*X6604Y33033D3*X6604Y33744D3*X6604Y31826D3*X6604Y30886D3*X6604Y30886D3*X6604Y30886D3*X6604Y29812D3*X6604Y18943D3*X6604Y19345D3*X6604Y19748D3*X6604Y19774D3*X6604Y20150D3*X6604Y20554D3*X6604Y26190D3*X6604Y25786D3*X6604Y25385D3*X6604Y25171D3*X6604Y25171D3*X6604Y25171D3*X6604Y24981D3*X6604Y24580D3*X6604Y24176D3*X6604Y25171D3*X6604Y19774D3*X6604Y19774D3*X6604Y19774D3*X6604Y15319D3*X6604Y14917D3*X6604Y14514D3*X6604Y14376D3*X6604Y14112D3*X6604Y13708D3*X6604Y13307D3*X6604Y14376D3*X6604Y14376D3*X6604Y14376D3*X8509Y41046D3*X8509Y41046D3*X8509Y41046D3*X0Y0D2*M02*