G04 Output by ViewMate Deluxe V11.0.9  PentaLogix LLC*
G04 Sun May 11 19:32:23 2014*
%FSLAX33Y33*%
%MOMM*%
%IPPOS*%
%ADD10C,1.3081*%
%ADD11R,1.8009X1.8009*%
%ADD12C,1.209*%
%ADD13C,0.4064*%
%ADD14C,0.8128*%

%LPD*%
X0Y0D2*D13*G1X21526Y23266D2*X21526Y18821D1*X20574Y17869*X18669Y16281D2*X18669Y17234D1*X17082Y18821*X11049Y10566D2*X9779Y11836D1*X6604Y11836*X3746Y13106D2*X9462Y13106D1*X10414Y14059*X13906Y14059*X13589Y16281D2*X7874Y16281D1*X6604Y17234*X3746Y18504D2*X11684Y18504D1*X12636Y17551*X14859Y17551*X15812Y18186*X15812Y20091*X14224Y21996D2*X13272Y22631D1*X6604Y22631*X3746Y23901D2*X12002Y23901D1*X12954Y23266*X15494Y23266*X16129Y23901*X23432Y35014D2*X23432Y31204D1*X24702Y29934*X27876Y26441D2*X27876Y25489D1*X28194Y25171D2*X27876Y25489D1*X25336Y25489*X24066Y24219D2*X24066Y26441D1*X24702Y27076*X22162Y28346D2*X22162Y26759D1*X21526Y25806*X19939Y29616D2*X19939Y27711D1*X20892Y31521D2*X19622Y30251D1*X19304Y30251*X11366Y37554D2*X10096Y37554D1*X8826Y36284*X6604Y36284*X3746Y35014D2*X10096Y35014D1*X10414Y35331*X14859Y35331*X16129Y34061D2*X16446Y34696D1*X16446Y37554*X19304Y37554*X23114Y37236*X23432Y35014D2*X21844Y35966D1*X24384Y33426D2*X24384Y31521D1*X25972Y29934*X25972Y27711*X25336Y27076*X24702Y27076*X24702Y29934D2*X24702Y28346D1*X23432Y29616D2*X19939Y29616D1*X19304Y30251*X17399Y30251*X16129Y31521D2*X16129Y29934D1*X15176Y28981*X11366Y28981*X10096Y29616*X3746Y29616*X6604Y28346D2*X7874Y27711D1*X14859Y27711*X16129Y23901D2*X16129Y25806D1*X17399Y24536D2*X19304Y24536D1*X19304Y21996D2*X19304Y24536D1*X20256Y24536*X21844Y24536*X22479Y23901*X25019Y20409*X26924Y13741D2*X25654Y12471D1*X22162Y12471*X20892Y11201*X18669Y11201*X16129Y10566*X16129Y11836*X15176Y12789*X17716Y13741D2*X17716Y15329D1*X18669Y16281*X21526Y16281*X21844Y16599*X23114Y17869D2*X23114Y17551D1*X25654Y15011*X26924Y13741D2*X26924Y16281D1*X32004Y15011D2*X32004Y19774D1*X28194Y24536*X28194Y25171*X32639Y25806D2*X27876Y29299D1*X27876Y31521*X32004Y34061D2*X31369Y33426D1*X26606Y33426*X24384Y33426*X24384Y35966*D14*X12636Y8979D2*X7556Y8979D1*X25336Y22949D2*X26606Y21679D1*X26606Y19139*X26767Y18346*X25654Y17551D2*X26767Y18346D1*X29146Y16281*X29146Y10884*X27242Y8979*X12636Y8979*X12636Y12789*X1842Y32474D2*X13589Y32474D1*X13589Y34061D2*X13589Y32474D1*X13589Y31204*X14859Y30251*X25019Y41046D2*X24066Y39459D1*X13589Y39459*X13589Y41046D2*X13589Y39459D1*X7239Y39459*X4699Y37236*X1842Y37236*X1842Y32474*X1842Y26759*X1842Y21361D2*X1842Y26759D1*X11684Y26759*X13906Y24536*X14859Y24536*X14542Y18821D2*X12002Y21361D1*X1842Y21361*X1842Y11201*X5334Y11201*X7556Y8979*D10*X11049Y10566D3*X23749Y11201D3*X22796Y13741D3*X32639Y23266D3*X32639Y25806D3*X25972Y31521D3*X26606Y33426D3*X27876Y31521D3*X27876Y26441D3*X28194Y24536D3*X28194Y19456D3*X25019Y20409D3*X14859Y27711D3*X14224Y21996D3*X13589Y16281D3*X16129Y10566D3*X18669Y11201D3*X17716Y13741D3*X18669Y16281D3*X19939Y20409D3*X19304Y21996D3*X19939Y27711D3*X19304Y32474D3*X20892Y31521D3*X21526Y33426D3*X19304Y37554D3*X16446Y37554D3*X13589Y41046D3*X11366Y37554D3*X8509Y41046D3*X6604Y36284D3*X6604Y33744D3*X6604Y30886D3*X6604Y28346D3*X6604Y25171D3*X6604Y22631D3*X6604Y19774D3*X6604Y17234D3*X6604Y14376D3*X6604Y11836D3*D11*X32004Y15011D3*X32004Y34061D3*X25019Y41046D3*X21209Y41046D3*X3746Y35014D3*X3746Y29616D3*X3746Y23901D3*X3746Y18504D3*X3746Y13106D3*D12*X24384Y35966D3*X23114Y37236D3*X21844Y35966D3*X13589Y34061D3*X14859Y35331D3*X16129Y34061D3*X17399Y30251D3*X16129Y31521D3*X14859Y30251D3*X14859Y24536D3*X16129Y25806D3*X17399Y24536D3*X25336Y22949D3*X24066Y24219D3*X25336Y25489D3*X24702Y28346D3*X23432Y29616D3*X22162Y28346D3*X21526Y25806D3*X20256Y24536D3*X21526Y23266D3*X15176Y12789D3*X12636Y12789D3*X13906Y14059D3*X14542Y18821D3*X15812Y20091D3*X17082Y18821D3*X20574Y17869D3*X21844Y16599D3*X23114Y17869D3*X25654Y17551D3*X25654Y15011D3*X26924Y16281D3*X0Y0D2*M02*