G04 Output by ViewMate Deluxe V11.0.9  PentaLogix LLC*
G04 Sun May 11 19:32:23 2014*
%FSLAX33Y33*%
%MOMM*%
%IPPOS*%
%ADD15C,0.0762*%
%ADD16C,0.127*%
%ADD105C,0.254*%
%ADD106C,0.4064*%
%ADD107C,0.1524*%
%ADD108C,0.1016*%
%ADD109C,1.016*%

%LPD*%
X0Y0D2*D15*G1X18844Y28090D2*X18687Y28247D1*X18372Y28247*X18217Y28090*X18217Y27462*X18372Y27305*X18687Y27305*X18844Y27462*X18844Y28090*X18217Y27462*X16815Y28247D2*X16815Y27305D1*X17280Y28247D2*X17907Y28247D1*X17907Y28090*X17280Y27462*X17280Y27305*X16972Y27775D2*X16345Y27775D1*X16815Y28247*X14414Y37932D2*X14414Y38090D1*X13787Y38090*X13322Y37148D2*X13322Y38090D1*X12852Y37617*X13480Y37617*X13787Y37148D2*X13787Y37305D1*X14414Y37932*X14724Y37305D2*X14724Y37932D1*X14879Y38090*X15194Y38090*X15352Y37932*X15352Y37305D2*X15352Y37932D1*X14724Y37305*X14879Y37148*X15194Y37148*X15352Y37305*X19553Y34897D2*X18926Y34897D1*X19240Y35989D2*X19710Y36459D1*X19398Y35832D2*X18771Y36459D1*X18771Y35832D2*X19710Y35832D1*X18926Y35522D2*X19553Y35522D1*X19710Y35367*X19710Y35052*X19553Y34897*X18926Y35522*X18771Y35367*X18771Y35052*X18926Y34897*X19083Y33960D2*X18771Y34275D1*X19710Y34275*X19710Y33960D2*X19710Y34587D1*X23782Y31458D2*X24254Y30988D1*X23627Y31303D2*X24254Y31930D1*X23627Y31930D2*X23627Y30988D1*X23160Y31930D2*X23317Y31773D1*X21755Y31615D2*X22068Y31930D1*X22068Y30988*X22382Y30988D2*X21755Y30988D1*X22690Y31145D2*X22847Y30988D1*X23160Y30988*X23317Y31145*X23317Y31773*X22690Y31145*X22690Y31773*X22847Y31930*X23160Y31930*X23012Y33647D2*X23325Y33962D1*X23325Y33020*X23640Y33020D2*X23012Y33020D1*X24574Y33805D2*X24420Y33962D1*X24105Y33962*X23947Y33805*X23947Y33177*X24574Y33177D2*X24574Y33805D1*X23947Y33177*X24105Y33020*X24420Y33020*X24574Y33177*X24884Y33962D2*X24884Y33020D1*X24884Y33335D2*X25512Y33962D1*X25512Y33020D2*X25039Y33490D1*X27625Y29177D2*X28252Y29177D1*X27625Y29804D2*X28252Y29804D1*X28410Y29647*X28410Y29334*X28252Y29177*X27625Y29804*X27470Y29647*X27470Y29334*X27625Y29177*X28410Y27775D2*X27470Y27775D1*X27940Y27305*X27470Y28242D2*X27470Y28867D1*X27625Y28867*X28252Y28242*X28410Y28242*X27940Y27305D2*X27940Y27932D1*X28443Y21880D2*X27816Y21880D1*X28130Y22972D2*X28600Y23442D1*X28288Y22814D2*X27661Y23442D1*X27661Y22814D2*X28600Y22814D1*X27816Y22504D2*X28443Y22504D1*X28600Y22349*X28600Y22034*X28443Y21880*X27816Y22504*X27661Y22349*X27661Y22034*X27816Y21880*X27973Y20942D2*X27661Y21257D1*X28600Y21570D2*X28600Y20942D1*X27661Y21257D2*X28600Y21257D1*X23452Y20472D2*X23924Y20002D1*X23297Y20317D2*X23924Y20945D1*X23297Y20945D2*X23297Y20002D1*X22987Y20787D2*X22987Y20160D1*X22832Y20002*X22517Y20002*X22360Y20160*X22987Y20787*X22832Y20945*X22517Y20945*X22360Y20787*X22360Y20160*X21425Y20002D2*X22052Y20002D1*X21737Y20002D2*X21737Y20945D1*X21425Y20630*X18209Y22375D2*X18052Y22532D1*X17737Y22532*X17582Y22375*X17582Y21747*X17737Y21590*X18052Y21590*X18209Y21747*X18209Y22375*X17582Y21747*X16180Y21590D2*X16180Y22532D1*X15710Y22060*X16337Y22060*X16645Y22532D2*X17272Y22532D1*X17272Y22375*X16645Y21747*X16645Y21590*X16637Y16660D2*X16637Y16817D1*X16010Y16817*X15702Y16345D2*X15075Y16345D1*X15545Y16817*X15545Y15875*X16010Y15875D2*X16010Y16032D1*X16637Y16660*X17574Y16660D2*X17417Y16817D1*X17102Y16817*X16947Y16660*X16947Y16032*X17417Y15875D2*X17574Y16032D1*X17574Y16660*X16947Y16032*X17102Y15875*X17417Y15875*X21560Y11138D2*X22032Y10668D1*X21405Y10983D2*X22032Y11610D1*X21405Y11610D2*X21405Y10668D1*X20937Y11610D2*X21095Y11453D1*X19533Y11295D2*X19845Y11610D1*X19845Y10668*X20160Y10668D2*X19533Y10668D1*X20467Y10825D2*X20625Y10668D1*X20937Y10668*X21095Y10825*X21095Y11453*X20467Y10825*X20467Y11453*X20625Y11610*X20937Y11610*X20607Y13678D2*X21079Y13208D1*X20452Y13523D2*X21079Y14150D1*X20452Y14150D2*X20452Y13208D1*X20142Y13993D2*X19985Y14150D1*X19672Y14150*X19515Y13993*X19515Y13365D2*X19672Y13208D1*X19985Y13208*X20142Y13365*X20142Y13993*X19515Y13365*X19515Y13993*X18580Y13835D2*X18893Y14150D1*X18893Y13208*X18580Y13208D2*X19207Y13208D1*X15034Y10945D2*X14877Y11102D1*X14562Y11102*X14407Y10945*X14407Y10317D2*X14562Y10160D1*X14877Y10160*X15034Y10317*X15034Y10945*X14407Y10317*X14407Y10945*X13005Y10160D2*X13005Y11102D1*X12535Y10630*X13470Y11102D2*X14097Y11102D1*X14097Y10945*X13470Y10317*X13470Y10160*X12535Y10630D2*X13162Y10630D1*D16*X20574Y36220D2*X20610Y36375D1*X20655Y36525*X20709Y36675*X20772Y36820*X20843Y36960*X20925Y37097*X21013Y37229*X21110Y37353*X21212Y37473*X21323Y37584*X21440Y37691*X21565Y37790*X21694Y37879*X21829Y37963*X21968Y38036*X22113Y38103*X22261Y38158*X22410Y38207*X22565Y38245*X22720Y38273*X22878Y38293*X23035Y38303*X23193Y38303*X23350Y38293*X23508Y38273*X23663Y38245*X23818Y38207*X23967Y38158*X24115Y38103*X24260Y38036*X24399Y37963*X24534Y37879*X24663Y37790*X24788Y37691*X24905Y37584*X25016Y37473*X25118Y37353*X25215Y37229*X25303Y37097*X25385Y36960*X25456Y36820*X25519Y36675*X25573Y36525*X25618Y36375*X25654Y36220*X25654Y34696*X20574Y34696*X20574Y36220*X16446Y13043D2*X16411Y13198D1*X16365Y13348*X16312Y13498*X16248Y13642*X16177Y13782*X16096Y13919*X16007Y14051*X15911Y14176*X15809Y14295*X15697Y14407*X15580Y14514*X15456Y14613*X15326Y14702*X15192Y14785*X15052Y14859*X14907Y14925*X14760Y14981*X14610Y15029*X14455Y15067*X14300Y15095*X14143Y15116*X13985Y15126*X13828Y15126*X13670Y15116*X13513Y15095*X13358Y15067*X13203Y15029*X13053Y14981*X12906Y14925*X12761Y14859*X12621Y14785*X12487Y14702*X12357Y14613*X12233Y14514*X12116Y14407*X12004Y14295*X11902Y14176*X11806Y14051*X11717Y13919*X11636Y13782*X11565Y13642*X11501Y13498*X11448Y13348*X11402Y13198*X11366Y13043*X11366Y11519*X16446Y11519*X16446Y13043*X19304Y17615D2*X19340Y17460D1*X19385Y17310*X19439Y17160*X19502Y17015*X19573Y16876*X19655Y16739*X19743Y16607*X19840Y16482*X19942Y16363*X20053Y16251*X20170Y16144*X20295Y16045*X20424Y15956*X20559Y15872*X20698Y15799*X20843Y15733*X20991Y15677*X21140Y15629*X21295Y15591*X21450Y15563*X21608Y15542*X21765Y15532*X21923Y15532*X22080Y15542*X22238Y15563*X22393Y15591*X22548Y15629*X22697Y15677*X22845Y15733*X22990Y15799*X23129Y15872*X23264Y15956*X23393Y16045*X23518Y16144*X23635Y16251*X23746Y16363*X23848Y16482*X23945Y16607*X24033Y16739*X24115Y16876*X24186Y17015*X24249Y17160*X24303Y17310*X24348Y17460*X24384Y17615*X25082Y21679D2*X24928Y21714D1*X24778Y21760*X24628Y21814*X24483Y21877*X24343Y21948*X24206Y22029*X24074Y22118*X23950Y22215*X23830Y22316*X23719Y22428*X23612Y22545*X23513Y22670*X23424Y22799*X23340Y22934*X23266Y23073*X23200Y23218*X23144Y23365*X23096Y23515*X23058Y23670*X23030Y23825*X23010Y23983*X23000Y24140*X23000Y24298*X23010Y24455*X23030Y24613*X23058Y24768*X23096Y24922*X23144Y25072*X23200Y25220*X23266Y25364*X23340Y25504*X23424Y25639*X23513Y25768*X23612Y25893*X23719Y26010*X23830Y26121*X23950Y26223*X24074Y26319*X24206Y26408*X24343Y26490*X24483Y26561*X24628Y26624*X24778Y26678*X24928Y26723*X25082Y26759*X25972Y28600D2*X25936Y28755D1*X25890Y28905*X25837Y29055*X25773Y29200*X25702Y29340*X25621Y29477*X25532Y29609*X25436Y29733*X25334Y29853*X25222Y29964*X25105Y30071*X24981Y30170*X24851Y30259*X24717Y30343*X24577Y30416*X24432Y30483*X24285Y30538*X24135Y30587*X23980Y30625*X23825Y30653*X23668Y30673*X23510Y30683*X23353Y30683*X23195Y30673*X23038Y30653*X22883Y30625*X22728Y30587*X22578Y30538*X22431Y30483*X22286Y30416*X22146Y30343*X22012Y30259*X21882Y30170*X21758Y30071*X21641Y29964*X21529Y29853*X21427Y29733*X21331Y29609*X21242Y29477*X21161Y29340*X21090Y29200*X21026Y29055*X20973Y28905*X20927Y28755*X20892Y28600*X18669Y24790D2*X18633Y24945D1*X18588Y25095*X18534Y25245*X18471Y25390*X18400Y25530*X18318Y25667*X18230Y25799*X18133Y25923*X18031Y26043*X17920Y26154*X17803Y26261*X17678Y26360*X17549Y26449*X17414Y26533*X17275Y26606*X17130Y26673*X16982Y26728*X16833Y26777*X16678Y26815*X16523Y26843*X16365Y26863*X16208Y26873*X16050Y26873*X15893Y26863*X15735Y26843*X15580Y26815*X15425Y26777*X15276Y26728*X15128Y26673*X14983Y26606*X14844Y26533*X14709Y26449*X14580Y26360*X14455Y26261*X14338Y26154*X14227Y26043*X14125Y25923*X14028Y25799*X13940Y25667*X13858Y25530*X13787Y25390*X13724Y25245*X13670Y25095*X13625Y24945*X13589Y24790*X13589Y23266*X18669Y23266*X18669Y24790*X21272Y21996D2*X21118Y22032D1*X20968Y22078*X20818Y22131*X20673Y22195*X20533Y22266*X20396Y22347*X20264Y22436*X20140Y22532*X20020Y22634*X19909Y22746*X19802Y22863*X19703Y22987*X19614Y23117*X19530Y23251*X19456Y23391*X19390Y23536*X19334Y23683*X19286Y23833*X19248Y23988*X19220Y24143*X19200Y24300*X19190Y24458*X19190Y24615*X19200Y24773*X19220Y24930*X19248Y25085*X19286Y25240*X19334Y25390*X19390Y25537*X19456Y25682*X19530Y25822*X19614Y25956*X19703Y26086*X19802Y26210*X19909Y26327*X20020Y26439*X20140Y26540*X20264Y26637*X20396Y26726*X20533Y26807*X20673Y26878*X20818Y26942*X20968Y26995*X21118Y27041*X21272Y27076*X22796Y27076*X22796Y21996*X21272Y21996*X18352Y19075D2*X18316Y19230D1*X18270Y19380*X18217Y19530*X18153Y19675*X18082Y19815*X18001Y19952*X17912Y20084*X17816Y20208*X17714Y20328*X17602Y20439*X17485Y20546*X17361Y20645*X17231Y20734*X17097Y20818*X16957Y20892*X16812Y20958*X16665Y21013*X16515Y21062*X16360Y21100*X16205Y21128*X16048Y21148*X15890Y21158*X15733Y21158*X15575Y21148*X15418Y21128*X15263Y21100*X15108Y21062*X14958Y21013*X14811Y20958*X14666Y20892*X14526Y20818*X14392Y20734*X14262Y20645*X14138Y20546*X14021Y20439*X13909Y20328*X13807Y20208*X13711Y20084*X13622Y19952*X13541Y19815*X13470Y19675*X13406Y19530*X13353Y19380*X13307Y19230*X13272Y19075*X13272Y17551*X18352Y17551*X18352Y19075*X19304Y17615D2*X19304Y19139D1*X24384Y19139*X25908Y18821D2*X26063Y18786D1*X26213Y18740*X26363Y18687*X26507Y18623*X26647Y18552*X26784Y18471*X26916Y18382*X27041Y18285*X27160Y18184*X27272Y18072*X27379Y17955*X27478Y17831*X27567Y17701*X27650Y17567*X27724Y17427*X27790Y17282*X27846Y17135*X27894Y16985*X27932Y16830*X27960Y16675*X27981Y16518*X27991Y16360*X27991Y16203*X27981Y16045*X27960Y15888*X27932Y15733*X27894Y15578*X27846Y15428*X27790Y15281*X27724Y15136*X27650Y14996*X27567Y14862*X27478Y14732*X27379Y14608*X27272Y14491*X27160Y14379*X27041Y14277*X26916Y14181*X26784Y14092*X26647Y14011*X26507Y13940*X26363Y13876*X26213Y13823*X26063Y13777*X25908Y13741*X24384Y13741*X24384Y18821*X25908Y18821*X24384Y19139D2*X24384Y17615D1*X25082Y21679D2*X26606Y21679D1*X26606Y26759*X25082Y26759*X25972Y28600D2*X25972Y27076D1*X20892Y27076*X20892Y28600*X18669Y30505D2*X18633Y30660D1*X18588Y30810*X18534Y30960*X18471Y31105*X18400Y31245*X18318Y31382*X18230Y31514*X18133Y31638*X18031Y31758*X17920Y31869*X17803Y31976*X17678Y32075*X17549Y32164*X17414Y32248*X17275Y32322*X17130Y32388*X16982Y32443*X16833Y32492*X16678Y32530*X16523Y32558*X16365Y32578*X16208Y32588*X16050Y32588*X15893Y32578*X15735Y32558*X15580Y32530*X15425Y32492*X15276Y32443*X15128Y32388*X14983Y32322*X14844Y32248*X14709Y32164*X14580Y32075*X14455Y31976*X14338Y31869*X14227Y31758*X14125Y31638*X14028Y31514*X13940Y31382*X13858Y31245*X13787Y31105*X13724Y30960*X13670Y30810*X13625Y30660*X13589Y30505*X12319Y34315D2*X12355Y34470D1*X12400Y34620*X12454Y34770*X12517Y34915*X12588Y35055*X12670Y35192*X12758Y35324*X12855Y35448*X12957Y35568*X13068Y35679*X13185Y35786*X13310Y35885*X13439Y35974*X13574Y36058*X13713Y36132*X13858Y36198*X14006Y36253*X14155Y36302*X14310Y36340*X14465Y36368*X14623Y36388*X14780Y36398*X14938Y36398*X15095Y36388*X15253Y36368*X15408Y36340*X15563Y36302*X15712Y36253*X15860Y36198*X16005Y36132*X16144Y36058*X16279Y35974*X16408Y35885*X16533Y35786*X16650Y35679*X16761Y35568*X16863Y35448*X16960Y35324*X17048Y35192*X17130Y35055*X17201Y34915*X17264Y34770*X17318Y34620*X17363Y34470*X17399Y34315*X17399Y32791*X12319Y32791*X12319Y34315*X13589Y30505D2*X13589Y28981D1*X18669Y28981*X18669Y30505*D105*X31623Y22949D2*X31623Y21806D1*X31052Y22377D2*X32194Y22377D1*X5588Y33426D2*X5588Y32283D1*X6160Y32855D2*X5016Y32855D1*X7048Y31775D2*X8192Y31775D1*X7620Y31204D2*X7620Y32347D1*X7048Y26060D2*X8192Y26060D1*X7620Y25489D2*X7620Y26632D1*X7048Y20663D2*X8192Y20663D1*X7620Y20091D2*X7620Y21234D1*X7048Y15265D2*X8192Y15265D1*X7620Y14694D2*X7620Y15837D1*X14077Y6375D2*X14839Y5613D1*X13315Y7902D2*X14458Y7902D1*X14839Y7521*X14839Y6759*X14458Y6375*X13315Y6375*X13315Y7902D2*X13315Y5613D1*X10975Y7521D2*X11356Y7902D1*X12118Y7902*X12499Y7521*X12499Y5994*X12118Y5613*X11356Y5613*X10975Y5994*X10975Y7521*X10163Y7902D2*X8636Y7902D1*X8636Y6759*X9398Y7140*X9779Y7140*X10163Y6759*X10163Y5994*X9779Y5613*X9017Y5613*X8636Y5994*D106*X31369Y31521D2*X33909Y31521D1*X32639Y30251D2*X32639Y32791D1*X31369Y17551D2*X33909Y17551D1*D107*X31115Y24536D2*X31120Y24656D1*X31135Y24778*X31158Y24895*X31191Y25011*X31232Y25123*X31285Y25235*X31344Y25339*X31410Y25438*X31486Y25532*X31570Y25621*X31659Y25702*X31753Y25776*X34163Y24536D2*X34158Y24422D1*X34145Y24305*X34125Y24194*X34094Y24082*X34054Y23973*X34008Y23866*X33952Y23764*X33891Y23668*X33823Y23576*X33746Y23487*X33663Y23409*X33574Y23332*X31115Y24536D2*X31120Y24420D1*X31133Y24303*X31156Y24186*X31186Y24072*X31227Y23962*X31275Y23856*X31333Y23752*X31397Y23652*X31468Y23561*X31547Y23472*X31633Y23391*X31725Y23317*X34163Y24536D2*X34158Y24651D1*X34145Y24768*X34125Y24879*X34094Y24991*X34054Y25100*X34008Y25207*X33952Y25309*X33891Y25405*X33823Y25497*X33746Y25585*X33663Y25664*X33574Y25740*X29083Y20155D2*X29083Y23838D1*X27305Y23838D2*X27305Y20155D1*X15558Y28600D2*X19240Y28600D1*X19240Y26822D2*X15558Y26822D1*X14922Y22885D2*X18606Y22885D1*X18606Y21107D2*X14922Y21107D1*X24320Y21298D2*X20638Y21298D1*X20638Y19520D2*X24320Y19520D1*X14288Y17170D2*X17970Y17170D1*X17970Y15392D2*X14288Y15392D1*X22098Y14630D2*X18415Y14630D1*X18415Y12852D2*X22098Y12852D1*X23050Y12090D2*X19368Y12090D1*X19368Y10312D2*X23050Y10312D1*X19251Y5563D2*X19794Y6106D1*X19794Y6647*X19251Y7191*X17066Y7191D2*X16523Y6647D1*X17615Y6647D2*X18156Y7191D1*X18156Y5563*X17615Y5563D2*X18699Y5563D1*X17066Y5563D2*X16523Y6106D1*X16523Y6647*X15430Y9677D2*X11748Y9677D1*X11748Y11455D2*X15430Y11455D1*X7518Y14326D2*X7610Y14252D1*X7696Y14171*X7775Y14082*X7846Y13990*X7910Y13891*X7968Y13787*X8016Y13680*X8057Y13571*X8087Y13457*X8110Y13340*X8123Y13223*X8128Y13106*X5669Y11902D2*X5580Y11979D1*X5497Y12057*X5420Y12146*X5352Y12238*X5291Y12334*X5235Y12436*X5189Y12543*X5149Y12652*X5118Y12764*X5098Y12875*X5085Y12992*X5080Y13106*X5669Y14310D2*X5580Y14234D1*X5497Y14155*X5420Y14067*X5352Y13975*X5291Y13879*X5235Y13777*X5189Y13670*X5149Y13561*X5118Y13449*X5098Y13338*X5085Y13221*X5080Y13106*X7490Y11867D2*X7584Y11941D1*X7673Y12022*X7757Y12111*X7833Y12205*X7899Y12304*X7958Y12408*X8011Y12520*X8052Y12631*X8085Y12748*X8108Y12865*X8123Y12987*X8128Y13106*X7518Y19723D2*X7610Y19649D1*X7696Y19568*X7775Y19479*X7846Y19388*X7910Y19289*X7968Y19185*X8016Y19078*X8057Y18969*X8087Y18854*X8110Y18738*X8123Y18621*X8128Y18504*X5669Y17300D2*X5580Y17376D1*X5497Y17455*X5420Y17544*X5352Y17635*X5291Y17732*X5235Y17833*X5189Y17940*X5149Y18049*X5118Y18161*X5098Y18273*X5085Y18390*X5080Y18504*X5669Y19708D2*X5580Y19632D1*X5497Y19553*X5420Y19464*X5352Y19373*X5291Y19276*X5235Y19174*X5189Y19068*X5149Y18959*X5118Y18847*X5098Y18735*X5085Y18618*X5080Y18504*X7490Y17264D2*X7584Y17338D1*X7673Y17419*X7757Y17508*X7833Y17602*X7899Y17701*X7958Y17805*X8011Y17917*X8052Y18029*X8085Y18146*X8108Y18263*X8123Y18385*X8128Y18504*X7518Y25121D2*X7610Y25047D1*X7696Y24966*X7775Y24877*X7846Y24785*X7910Y24686*X7968Y24582*X8016Y24475*X8057Y24366*X8087Y24252*X8110Y24135*X8123Y24018*X8128Y23901*X5669Y22697D2*X5580Y22774D1*X5497Y22852*X5420Y22941*X5352Y23033*X5291Y23129*X5235Y23231*X5189Y23338*X5149Y23447*X5118Y23558*X5098Y23670*X5085Y23787*X5080Y23901*X5669Y25105D2*X5580Y25029D1*X5497Y24950*X5420Y24862*X5352Y24770*X5291Y24674*X5235Y24572*X5189Y24465*X5149Y24356*X5118Y24244*X5098Y24133*X5085Y24016*X5080Y23901*X7490Y22662D2*X7584Y22736D1*X7673Y22817*X7757Y22906*X7833Y23000*X7899Y23099*X7958Y23203*X8011Y23315*X8052Y23426*X8085Y23543*X8108Y23660*X8123Y23782*X8128Y23901*X7518Y30836D2*X7610Y30762D1*X7696Y30681*X7775Y30592*X7846Y30500*X7910Y30401*X7968Y30297*X8016Y30190*X8057Y30081*X8087Y29967*X8110Y29850*X8123Y29733*X8128Y29616*X5669Y28412D2*X5580Y28489D1*X5497Y28567*X5420Y28656*X5352Y28748*X5291Y28844*X5235Y28946*X5189Y29053*X5149Y29162*X5118Y29274*X5098Y29385*X5085Y29502*X5080Y29616*X5669Y30820D2*X5580Y30744D1*X5497Y30665*X5420Y30577*X5352Y30485*X5291Y30389*X5235Y30287*X5189Y30180*X5149Y30071*X5118Y29959*X5098Y29848*X5085Y29731*X5080Y29616*X7490Y28377D2*X7584Y28451D1*X7673Y28532*X7757Y28621*X7833Y28715*X7899Y28814*X7958Y28918*X8011Y29030*X8052Y29141*X8085Y29258*X8108Y29375*X8123Y29497*X8128Y29616*X7539Y36218D2*X7628Y36142D1*X7711Y36063*X7788Y35974*X7856Y35883*X7917Y35786*X7973Y35684*X8019Y35578*X8059Y35469*X8090Y35357*X8110Y35245*X8123Y35128*X8128Y35014*X5690Y33795D2*X5598Y33868D1*X5512Y33950*X5433Y34039*X5362Y34130*X5298Y34229*X5240Y34333*X5192Y34440*X5151Y34549*X5121Y34663*X5098Y34780*X5085Y34897*X5080Y35014*X5718Y36253D2*X5624Y36180D1*X5535Y36098*X5451Y36010*X5375Y35916*X5309Y35817*X5250Y35712*X5197Y35601*X5156Y35489*X5123Y35372*X5100Y35255*X5085Y35133*X5080Y35014*X7539Y33810D2*X7628Y33886D1*X7711Y33965*X7788Y34054*X7856Y34145*X7917Y34242*X7973Y34343*X8019Y34450*X8059Y34559*X8090Y34671*X8110Y34783*X8123Y34900*X8128Y35014*X16114Y40759D2*X16114Y41844D1*X18844Y42116D2*X18844Y41031D1*X19929Y42116D2*X19929Y41031D1*X19388Y40488*X18844Y41031*X18021Y41572D2*X17750Y41572D1*X17208Y41300*X17208Y40759D2*X17478Y40488D1*X18021Y40488*X18293Y40759*X18293Y41300*X18021Y41572*X18293Y42116D2*X17208Y42116D1*X17208Y41300*X15570Y41300D2*X16655Y41300D1*X8128Y42189D2*X13970Y42189D1*X13970Y39903D2*X8128Y39903D1*X12065Y38443D2*X15748Y38443D1*X15748Y36665D2*X12065Y36665D1*X18415Y33172D2*X18415Y36855D1*X20193Y36855D2*X20193Y33172D1*X29723Y42116D2*X29723Y41031D1*X29180Y40488*X28638Y41031*X28638Y42116*X28085Y41844D2*X27813Y42116D1*X27272Y42116*X27000Y41844*X27000Y40759*X27272Y40488D2*X27813Y40488D1*X28085Y40759*X28085Y41844*X27000Y40759*X27272Y40488*X22225Y34315D2*X25908Y34315D1*X25908Y32537D2*X22225Y32537D1*X21590Y32410D2*X25273Y32410D1*X25273Y30632D2*X21590Y30632D1*X26988Y27140D2*X26988Y30823D1*X28766Y30823D2*X28766Y27140D1*D108*X9322Y41262D2*X9627Y41570D1*X9627Y40653*X9931Y40653D2*X9322Y40653D1*X10257Y40805D2*X10257Y41415D1*X10409Y41570*X10714Y41570*X10869Y41415*X10257Y40805*X10409Y40653*X10714Y40653*X10869Y40805*X10869Y41415*X11803Y41415D2*X11651Y41570D1*X11346Y41570*X11194Y41415*X11194Y40805*X11803Y40805D2*X11803Y41415D1*X11194Y40805*X11346Y40653*X11651Y40653*X11803Y40805*X12128Y40653D2*X12128Y41262D1*X12586Y41262*X12738Y41110*X12738Y40653*X26093Y8296D2*X26246Y8141D1*X21895Y5855D2*X21895Y6772D1*X22504Y5855*X21895Y7531D2*X22047Y7379D1*X22200Y7379*X22200Y8296D2*X22504Y8296D1*X22352Y8296D2*X22352Y7531D1*X22200Y7379*X22504Y5855D2*X22504Y6772D1*X23134Y6312D2*X22830Y6312D1*X23767Y6772D2*X23767Y5855D1*X24702Y5855D2*X24702Y6772D1*X26246Y6312D2*X25636Y6312D1*X27183Y6772D2*X27183Y5855D1*X26573Y6772*X26573Y5855*X26246Y5855D2*X26246Y6464D1*X25941Y6772*X25636Y6464*X25636Y5855*X25311Y5855D2*X25311Y6772D1*X25006Y6464*X24702Y6772*X24376Y6772D2*X24376Y5855D1*X24072Y6160*X23767Y5855*X23442Y5855D2*X22830Y5855D1*X22830Y6772*X23442Y6772*X22830Y7836D2*X23442Y7836D1*X22830Y7379D2*X22830Y7988D1*X23134Y8296*X23442Y7988*X23442Y7379*X23767Y7379D2*X23767Y8296D1*X24072Y7988*X24376Y8296*X24376Y7379*X25006Y7836D2*X24702Y7836D1*X25311Y8296D2*X24702Y8296D1*X24702Y7379*X25311Y7379*X25636Y7531D2*X25789Y7379D1*X26093Y7379*X26246Y7531*X26246Y7684*X26093Y7836*X25789Y7836*X25636Y7988*X25636Y8141*X25789Y8296*X26093Y8296*D109*X7239Y9299D2*X7958Y10198D1*X8633Y11130*X9263Y12095*X9845Y13091*X10378Y14112*X10861Y15159*X11293Y16226*X11671Y17315*X11999Y18420*X12271Y19538*X12489Y20671*X12654Y21811*X12761Y22957*X12814Y24110*X12812Y25260*X12751Y26411*X12636Y27559*X12466Y28697*X12243Y29827*X11963Y30945*X11628Y32047*X11245Y33134*X10805Y34199*X10315Y35242*X9776Y36261*X9190Y37252*X8555Y38214*X7874Y39144*X25019Y39141D2*X7874Y39141D1*X25019Y39144D2*X25697Y38331D1*X26337Y37490*X26934Y36617*X27490Y35717*X28001Y34793*X28468Y33843*X28890Y32875*X29263Y31885*X29588Y30879*X29868Y29860*X30096Y28829*X30274Y27785*X30404Y26736*X30483Y25682*X30510Y24625*X30488Y23569*X30414Y22515*X30292Y21463*X30117Y20422*X29896Y19388*X29621Y18367*X29301Y17358*X28933Y16368*X28517Y15395*X28054Y14445*X27549Y13518*X26998Y12614*X26406Y11740*X25771Y10894*X25098Y10079*X24384Y9299*X7239Y9296D2*X24384Y9296D1*X0Y0D2*M02*