
M48
METRIC,TZ,000.000
T01C0.701
T02C0.8
T03C1.199
T04C3.2
%
M71
G90
T01
X024384Y035966
X023114Y037236
X021844Y035966
X013589Y034061
X014859Y035331
X016129Y034061
X017399Y030251
X016129Y031521
X014859Y030251
X014859Y024536
X016129Y025806
X017399Y024536
X021526Y023266
X020256Y024536
X021526Y025806
X022162Y028346
X023432Y029616
X024702Y028346
X025336Y025489
X024066Y024219
X025336Y022949
X025654Y015011
X026924Y016281
X025654Y017551
X023114Y017869
X021844Y016599
X020574Y017869
X017082Y018821
X015812Y020091
X014542Y018821
X015176Y012789
X013906Y014059
X012636Y012789
T02
X016129Y010566
X014859Y027711
X014224Y021996
X013589Y016281
X011049Y010566
X006604Y011836
X006604Y014376
X006604Y017234
X006604Y019774
X006604Y022631
X006604Y025171
X006604Y028346
X006604Y030886
X006604Y033744
X006604Y036284
X008509Y041046
X011366Y037554
X013589Y041046
X016446Y037554
X019304Y037554
X021526Y033426
X019304Y032474
X020892Y031521
X019939Y027711
X019304Y021996
X019939Y020409
X018669Y016281
X017716Y013741
X018669Y011201
X023749Y011201
X022796Y013741
X032639Y025806
X032639Y023266
X028194Y019456
X025019Y020409
X028194Y024536
X027876Y026441
X027876Y031521
X025972Y031521
X026606Y033426
T03
X032004Y015011
X032004Y034061
X025019Y041046
X021209Y041046
X003746Y035014
X003746Y029616
X003746Y023901
X003746Y018504
X003746Y013106
T04
X032639Y008026
X032639Y040411
X003429Y040411
X003429Y008026
M30
