%
M48
M72
T01C0.0197
T02C0.0276
T03C0.0315
T04C0.0433
T05C0.0512
T06C0.1160
T07C0.1260
%
T01
X6600Y4875
X16100Y4875
X25600Y4875
X35100Y5125
X44600Y4875
X54100Y4875
X63600Y4875
X73100Y4875
X82600Y4875
X92100Y4875
X101600Y4875
X111100Y4875
X120600Y4875
X130100Y4875
X139600Y4875
X149100Y4875
X150100Y16625
X140600Y16625
X131100Y16625
X121600Y16625
X112100Y16625
X102600Y16625
X98100Y18125
X93100Y16625
X88600Y17625
X83600Y16625
X79100Y17125
X74100Y16625
X69600Y16125
X64600Y16625
X60100Y15625
X55100Y16625
X50600Y15125
X45600Y16625
X36100Y16625
X41100Y14625
X31600Y14125
X22100Y13625
X12600Y13125
X3100Y12625
X7600Y16625
X17100Y16625
X26600Y16625
X107600Y18625
X117100Y19125
X126600Y19625
X136100Y20125
X145600Y20625
T02
X146600Y6625
X148100Y6625
X149600Y6625
X151100Y6625
X152600Y6625
X152100Y6125
X152600Y5625
X151100Y5625
X150600Y6125
X149600Y5625
X149100Y6125
X148100Y5625
X147600Y6125
X146600Y5625
X146100Y6125
X143100Y6625
X141600Y6625
X140100Y6625
X138600Y6625
X137100Y6625
X136600Y6125
X137100Y5625
X138100Y6125
X138600Y5625
X139600Y6125
X140100Y5625
X141100Y6125
X141600Y5625
X142600Y6125
X143100Y5625
X133600Y5625
X133100Y6125
X132100Y5625
X131600Y6125
X130600Y5625
X130100Y6125
X129100Y5625
X128600Y6125
X127600Y5625
X127100Y6125
X124100Y5625
X123600Y6125
X122600Y5625
X122100Y6125
X121100Y5625
X120600Y6125
X119600Y5625
X119100Y6125
X118100Y5625
X117600Y6125
X118100Y6625
X119600Y6625
X121100Y6625
X122600Y6625
X124100Y6625
X127600Y6625
X129100Y6625
X130600Y6625
X132100Y6625
X133600Y6625
X114600Y6625
X113100Y6625
X111600Y6625
X110100Y6625
X108600Y6625
X108100Y6125
X108600Y5625
X109600Y6125
X110100Y5625
X111100Y6125
X111600Y5625
X112600Y6125
X113100Y5625
X114100Y6125
X114600Y5625
X105100Y5625
X104600Y6125
X103600Y5625
X103100Y6125
X102100Y5625
X101600Y6125
X100600Y5625
X100100Y6125
X99100Y5625
X98600Y6125
X99100Y6625
X100600Y6625
X102100Y6625
X103600Y6625
X105100Y6625
X95600Y6625
X94100Y6625
X92600Y6625
X91100Y6625
X89600Y6625
X89100Y6125
X89600Y5625
X90600Y6125
X91100Y5625
X92100Y6125
X92600Y5625
X93600Y6125
X94100Y5625
X95100Y6125
X95600Y5625
X86100Y5625
X85600Y6125
X84600Y5625
X84100Y6125
X83100Y5625
X82600Y6125
X81600Y5625
X81100Y6125
X80100Y5625
X79600Y6125
X80100Y6625
X81600Y6625
X83100Y6625
X84600Y6625
X86100Y6625
X76600Y6625
X75100Y6625
X73600Y6625
X72100Y6625
X70600Y6625
X70100Y6125
X70600Y5625
X71600Y6125
X72100Y5625
X73100Y6125
X73600Y5625
X74600Y6125
X75100Y5625
X76100Y6125
X76600Y5625
X67100Y5625
X66600Y6125
X65600Y5625
X65100Y6125
X64100Y5625
X63600Y6125
X62600Y5625
X62100Y6125
X61100Y5625
X60600Y6125
X61100Y6625
X62600Y6625
X64100Y6625
X65600Y6625
X67100Y6625
X57600Y6625
X56100Y6625
X54600Y6625
X53100Y6625
X51600Y6625
X51100Y6125
X51600Y5625
X52600Y6125
X53100Y5625
X54100Y6125
X54600Y5625
X55600Y6125
X56100Y5625
X57100Y6125
X57600Y5625
X48100Y5625
X47600Y6125
X46600Y5625
X46100Y6125
X45100Y5625
X44600Y6125
X43600Y5625
X43100Y6125
X42100Y5625
X41600Y6125
X42100Y6625
X43600Y6625
X45100Y6625
X46600Y6625
X48100Y6625
X38600Y6625
X37100Y6625
X35600Y6625
X34100Y6625
X32600Y6625
X32100Y6125
X32600Y5625
X33600Y6125
X34100Y5625
X35100Y6125
X35600Y5625
X36600Y6125
X37100Y5625
X38100Y6125
X38600Y5625
X29100Y5625
X28600Y6125
X27600Y5625
X27100Y6125
X26100Y5625
X25600Y6125
X24600Y5625
X24100Y6125
X23100Y5625
X22600Y6125
X19600Y5625
X19100Y6125
X18100Y5625
X17600Y6125
X16600Y5625
X16100Y6125
X15100Y5625
X14600Y6125
X13600Y5625
X13100Y6125
X13600Y6625
X15100Y6625
X16600Y6625
X18100Y6625
X19600Y6625
X23100Y6625
X24600Y6625
X26100Y6625
X27600Y6625
X29100Y6625
X10100Y6625
X8600Y6625
X7100Y6625
X5600Y6625
X4100Y6625
X3600Y6125
X4100Y5625
X5100Y6125
X5600Y5625
X6600Y6125
X7100Y5625
X8100Y6125
X8600Y5625
X9600Y6125
X10100Y5625
T03
X10350Y7875
X9600Y7875
X8850Y7875
X8100Y7875
X7350Y7875
X6600Y7875
X5850Y7875
X5100Y7875
X4350Y7875
X3600Y7875
X13100Y7875
X13850Y7875
X14600Y7875
X15350Y7875
X16100Y7875
X16850Y7875
X17600Y7875
X18350Y7875
X19100Y7875
X19850Y7875
X22600Y7875
X23350Y7875
X24100Y7875
X24850Y7875
X25600Y7875
X26350Y7875
X27100Y7875
X27850Y7875
X28600Y7875
X29350Y7875
X32100Y7625
X32850Y7625
X33600Y7625
X34350Y7625
X35100Y7625
X35850Y7625
X36600Y7625
X37350Y7625
X38100Y7625
X38850Y7625
X41600Y7625
X42350Y7625
X43100Y7625
X43850Y7625
X44600Y7625
X45350Y7625
X46100Y7625
X46850Y7625
X47600Y7625
X48350Y7625
X51100Y7625
X51850Y7625
X52600Y7625
X53350Y7625
X54100Y7625
X54850Y7625
X55600Y7625
X56350Y7625
X57100Y7625
X57850Y7625
X60600Y7625
X61350Y7625
X62100Y7625
X62850Y7625
X63600Y7625
X64350Y7625
X65100Y7625
X65850Y7625
X66600Y7625
X67350Y7625
X70100Y7625
X70850Y7625
X71600Y7625
X72350Y7625
X73100Y7625
X73850Y7625
X74600Y7625
X75350Y7625
X76100Y7625
X76850Y7625
X80350Y7625
X81100Y7625
X81850Y7625
X82600Y7625
X83350Y7625
X84100Y7625
X84850Y7625
X85600Y7625
X86350Y7625
X87100Y7625
X89100Y7625
X89850Y7625
X90600Y7625
X91350Y7625
X92100Y7625
X92850Y7625
X93600Y7625
X94350Y7625
X95100Y7625
X95850Y7625
X98600Y7625
X99350Y7625
X100100Y7625
X100850Y7625
X101600Y7625
X102350Y7625
X103100Y7625
X103850Y7625
X104600Y7625
X105350Y7625
X108100Y7625
X108850Y7625
X109600Y7625
X110350Y7625
X111100Y7625
X111850Y7625
X112600Y7625
X113350Y7625
X114100Y7625
X114850Y7625
X117600Y7625
X118350Y7625
X119100Y7625
X119850Y7625
X120600Y7625
X121350Y7625
X122100Y7625
X122850Y7625
X123600Y7625
X124350Y7625
X127100Y7625
X127850Y7625
X128600Y7625
X129350Y7625
X130100Y7625
X130850Y7625
X131600Y7625
X132350Y7625
X133100Y7625
X133850Y7625
X136600Y7625
X137350Y7625
X138100Y7625
X138850Y7625
X139600Y7625
X140350Y7625
X141100Y7625
X141850Y7625
X142600Y7625
X143350Y7625
X146100Y7625
X146850Y7625
X147600Y7625
X148350Y7625
X149100Y7625
X149850Y7625
X150600Y7625
X151350Y7625
X152100Y7625
X152850Y7625
X152850Y9625
X152100Y9625
X151350Y9625
X150600Y9625
X149850Y9625
X149100Y9625
X148350Y9625
X147600Y9625
X146850Y9625
X146100Y9625
X143350Y9625
X142600Y9625
X141850Y9625
X141100Y9625
X140350Y9625
X139600Y9625
X138850Y9625
X138100Y9625
X137350Y9625
X136600Y9625
X133850Y9625
X133100Y9625
X132350Y9625
X131600Y9625
X130850Y9625
X130100Y9625
X129350Y9625
X128600Y9625
X127850Y9625
X127100Y9625
X124350Y9625
X123600Y9625
X122850Y9625
X122100Y9625
X121350Y9625
X120600Y9625
X119850Y9625
X119100Y9625
X118350Y9625
X117600Y9625
X114850Y9625
X114100Y9625
X113350Y9625
X112600Y9625
X111850Y9625
X111100Y9625
X110350Y9625
X109600Y9625
X108850Y9625
X108100Y9625
X105350Y9625
X104600Y9625
X103850Y9625
X103100Y9625
X102350Y9625
X101600Y9625
X100850Y9625
X100100Y9625
X99350Y9625
X98600Y9625
X95850Y9625
X95100Y9625
X94350Y9625
X93600Y9625
X92850Y9625
X92100Y9625
X91350Y9625
X90600Y9625
X89850Y9625
X89100Y9625
X87100Y9625
X86350Y9625
X85600Y9625
X84850Y9625
X84100Y9625
X83350Y9625
X82600Y9625
X81850Y9625
X81100Y9625
X80350Y9625
X76850Y9625
X76100Y9625
X75350Y9625
X74600Y9625
X73850Y9625
X73100Y9625
X72350Y9625
X71600Y9625
X70850Y9625
X70100Y9625
X67350Y9625
X66600Y9625
X65850Y9625
X65100Y9625
X64350Y9625
X63600Y9625
X62850Y9625
X62100Y9625
X61350Y9625
X60600Y9625
X57850Y9625
X57100Y9625
X56350Y9625
X55600Y9625
X54850Y9625
X54100Y9625
X53350Y9625
X52600Y9625
X51850Y9625
X51100Y9625
X48350Y9625
X47600Y9625
X46850Y9625
X46100Y9625
X45350Y9625
X44600Y9625
X43850Y9625
X43100Y9625
X42350Y9625
X41600Y9625
X38850Y9625
X38100Y9625
X37350Y9625
X36600Y9625
X35850Y9625
X35100Y9625
X34350Y9625
X33600Y9625
X32850Y9625
X32100Y9625
X29350Y9875
X28600Y9875
X27850Y9875
X27100Y9875
X26350Y9875
X25600Y9875
X24850Y9875
X24100Y9875
X23350Y9875
X22600Y9875
X19850Y9875
X19100Y9875
X18350Y9875
X17600Y9875
X16850Y9875
X16100Y9875
X15350Y9875
X14600Y9875
X13850Y9875
X13100Y9875
X10350Y9875
X9600Y9875
X8850Y9875
X8100Y9875
X7350Y9875
X6600Y9875
X5850Y9875
X5100Y9875
X4350Y9875
X3600Y9875
X5600Y10891
X6600Y10891
X7600Y10891
X8600Y10891
X9600Y10891
X15100Y10891
X16100Y10891
X17100Y10891
X18100Y10891
X19100Y10891
X24600Y10891
X25600Y10891
X26600Y10891
X27600Y10891
X28600Y10891
X34100Y10891
X35100Y10891
X36100Y10891
X37100Y10891
X38100Y10891
X43600Y10891
X44600Y10891
X45600Y10891
X46600Y10891
X47600Y10891
X53100Y10891
X54100Y10891
X55100Y10891
X56100Y10891
X57100Y10891
X62600Y10891
X63600Y10891
X64600Y10891
X65600Y10891
X66600Y10891
X72100Y10891
X73100Y10891
X74100Y10891
X75100Y10891
X76100Y10891
X81600Y10891
X82600Y10891
X83600Y10891
X84600Y10891
X85600Y10891
X91100Y10891
X92100Y10891
X93100Y10891
X94100Y10891
X95100Y10891
X100600Y10891
X101600Y10891
X102600Y10891
X103600Y10891
X104600Y10891
X110100Y10891
X111100Y10891
X112100Y10891
X113100Y10891
X114100Y10891
X119600Y10891
X120600Y10891
X121600Y10891
X122600Y10891
X123600Y10891
X129100Y10891
X130100Y10891
X131100Y10891
X132100Y10891
X133100Y10891
X138600Y10891
X139600Y10891
X140600Y10891
X141600Y10891
X142600Y10891
X148100Y10891
X149100Y10891
X150100Y10891
X151100Y10891
X152100Y10891
X152100Y22859
X151100Y22859
X150100Y22859
X149100Y22859
X148100Y22859
X142600Y22859
X141600Y22859
X140600Y22859
X139600Y22859
X138600Y22859
X133100Y22859
X132100Y22859
X131100Y22859
X130100Y22859
X129100Y22859
X123600Y22859
X122600Y22859
X121600Y22859
X120600Y22859
X119600Y22859
X114100Y22859
X113100Y22859
X112100Y22859
X111100Y22859
X110100Y22859
X104600Y22859
X103600Y22859
X102600Y22859
X101600Y22859
X100600Y22859
X95100Y22859
X94100Y22859
X93100Y22859
X92100Y22859
X91100Y22859
X85600Y22859
X84600Y22859
X83600Y22859
X82600Y22859
X81600Y22859
X76100Y22859
X75100Y22859
X74100Y22859
X73100Y22859
X72100Y22859
X66600Y22859
X65600Y22859
X64600Y22859
X63600Y22859
X62600Y22859
X57100Y22859
X56100Y22859
X55100Y22859
X54100Y22859
X53100Y22859
X47600Y22859
X46600Y22859
X45600Y22859
X44600Y22859
X43600Y22859
X38100Y22859
X37100Y22859
X36100Y22859
X35100Y22859
X34100Y22859
X28600Y22859
X27600Y22859
X26600Y22859
X25600Y22859
X24600Y22859
X19100Y22859
X18100Y22859
X17100Y22859
X16100Y22859
X15100Y22859
X9600Y22859
X8600Y22859
X7600Y22859
X6600Y22859
X5600Y22859
X2100Y22875
X2100Y20875
X1600Y19875
X1600Y18875
X2100Y15875
X2100Y13875
X1600Y12625
X1600Y11625
T04
X4100Y4125
X5100Y4125
X6100Y4125
X7850Y4125
X8850Y4125
X9850Y4125
X11600Y4625
X13600Y4125
X14600Y4125
X15600Y4125
X17350Y4125
X18350Y4125
X19350Y4125
X21100Y4625
X23100Y4125
X24100Y4125
X25100Y4125
X26850Y4125
X27850Y4125
X28850Y4125
X30600Y4625
X32600Y4125
X33600Y4125
X34600Y4125
X36350Y4125
X37350Y4125
X38350Y4125
X40100Y4625
X42100Y4125
X43100Y4125
X44100Y4125
X45850Y4125
X46850Y4125
X47850Y4125
X49600Y4625
X51600Y4125
X52600Y4125
X53600Y4125
X55350Y4125
X56350Y4125
X57350Y4125
X59100Y4625
X61100Y4125
X62100Y4125
X63100Y4125
X64850Y4125
X65850Y4125
X66850Y4125
X68600Y4625
X70600Y4125
X71600Y4125
X72600Y4125
X74350Y4125
X75350Y4125
X76350Y4125
X78100Y4625
X80100Y4125
X81100Y4125
X82100Y4125
X83850Y4125
X84850Y4125
X85850Y4125
X87600Y4625
X89600Y4125
X90600Y4125
X91600Y4125
X93350Y4125
X94350Y4125
X95350Y4125
X97100Y4625
X99100Y4125
X100100Y4125
X101100Y4125
X102850Y4125
X103850Y4125
X104850Y4125
X106600Y4625
X108600Y4125
X109600Y4125
X110600Y4125
X112350Y4125
X113350Y4125
X114350Y4125
X116100Y4625
X118100Y4125
X119100Y4125
X120100Y4125
X121850Y4125
X122850Y4125
X123850Y4125
X125600Y4625
X127600Y4125
X128600Y4125
X129600Y4125
X131350Y4125
X132350Y4125
X133350Y4125
X135100Y4625
X137100Y4125
X138100Y4125
X139100Y4125
X140850Y4125
X141850Y4125
X142850Y4125
X144600Y4625
X146600Y4125
X147600Y4125
X148600Y4125
X150350Y4125
X151350Y4125
X152350Y4125
X154100Y4625
X154100Y5625
X154100Y6625
X158100Y7625
X159100Y7625
X159100Y8625
X158100Y8625
X158100Y9625
X159100Y9625
X159100Y10625
X158100Y10625
X158100Y11625
X159100Y11625
X159100Y12625
X158100Y12625
X158100Y13625
X159100Y13625
X159100Y14625
X158100Y14625
X158100Y15625
X159100Y15625
X159100Y16625
X158100Y16625
X158100Y17625
X159100Y17625
X159100Y18625
X158100Y18625
X158100Y19625
X159100Y19625
X159100Y20625
X158100Y20625
X158100Y21625
X159100Y21625
X144600Y6625
X144600Y5625
X135100Y5625
X135100Y6625
X125600Y6625
X125600Y5625
X116100Y5625
X116100Y6625
X106600Y6625
X106600Y5625
X97100Y5625
X97100Y6625
X87600Y6625
X87600Y5625
X78100Y5625
X78100Y6625
X68600Y6625
X68600Y5625
X59100Y5625
X59100Y6625
X49600Y6625
X49600Y5625
X40100Y5625
X40100Y6625
X30600Y6625
X30600Y5625
X21100Y5625
X21100Y6625
X11600Y6625
X11600Y5625
T05
X1850Y6625
X1850Y9875
X1850Y17125
T06
X158810Y23915
X158810Y5335
T07
X156350Y4625
X78600Y8875
X1600Y4625
X1600Y24625
X78850Y24625
X156350Y24125
M30
