G04 Output by ViewMate Deluxe V11.0.9  PentaLogix LLC*
G04 Fri Nov 28 06:42:21 2014*
%FSLAX33Y33*%
%MOMM*%
%IPPOS*%
%ADD10C,1.3081*%
%ADD11C,1.209*%
%ADD16C,1.016*%
%ADD100R,1.651X1.651*%
%ADD101C,1.651*%
%ADD102R,3.81X3.81*%
%ADD103C,0.4064*%

%LPD*%
X0Y0D2*D103*G1X79146Y195199D2*X79146Y196469D1*D103*X108991Y147574D2*X108356Y146939D1*X108356Y144399*X109626Y143129*X110896Y144399D2*X113436Y141859D1*X110896Y139319*X110896Y118999*X113436Y116459*X110896Y113919*X110896Y93599*X113436Y91059*X110896Y88519*X110896Y78359*X110896Y68199*X113436Y65659*X110896Y63119*X110896Y42799*X113436Y40259*X110896Y37719*X110896Y17399*X113436Y14859*X110896Y12319*X110896Y4699*X113436Y6604D2*X112166Y9144D1*X112166Y11049D2*X114706Y13589D1*X114706Y16129*X115976Y17399*X113436Y19939*X109626Y20574D2*X108991Y20574D1*X108356Y19939*X108356Y17399*X109626Y16129*X109626Y13589D2*X109626Y11049D1*X105816Y11049D2*X105816Y13589D1*X104546Y14859D2*X103276Y16129D1*X103276Y38989*X104546Y40259*X103276Y41529*X103276Y52324*X103276Y64389*X104546Y65659*X103276Y66929*X103276Y89789*X104546Y91059*X103276Y92329*X103276Y115189*X104546Y116459*X103276Y117729*X103276Y141224*X103911Y141859*X104546Y141859*X103276Y143129*X103276Y165989*X104546Y167259*X103276Y168529*X103276Y191389*X104546Y192659*X105816Y191389D2*X105816Y188849D1*X109626Y188849D2*X109626Y191389D1*X110896Y190119D2*X110896Y169799D1*X113436Y167259*X112801Y167259*X110896Y165354*X110896Y144399*X109626Y147574D2*X108991Y147574D1*X113436Y146939D2*X115976Y144399D1*X114706Y143129*X114706Y140589*X112166Y138049*X112166Y136144D2*X113436Y133604D1*X115976Y137414D2*X115976Y138684D1*X116611Y139319*X121056Y139319*X122961Y137414*X122961Y136779*X124231Y138049D2*X124231Y140589D1*X128676Y141224D2*X128676Y131064D1*X129311Y130429*X129311Y125984*X128676Y125349*X128676Y117729*X129946Y116459*X128676Y115189*X128676Y92329*X129946Y91059*X128676Y89789*X128676Y66929*X129946Y65659*X128676Y64389*X128676Y41529*X129946Y40259*X128676Y38989*X128676Y25019*X128676Y16129*X129946Y14859*X131216Y16129D2*X129946Y17399D1*X129946Y18669*X135026Y16129D2*X133756Y17399D1*X133756Y19939*X134391Y20574*X135026Y20574*X132486Y23749D2*X131216Y25019D1*X129946Y26289D2*X135026Y26289D1*X133756Y27559D2*X133756Y35179D1*X135026Y36449D2*X135026Y38989D1*X136296Y37719D2*X136296Y31369D1*X136296Y17399*X138836Y14859*X136296Y12319*X136296Y4699*X138836Y6604D2*X137566Y9144D1*X137566Y11049D2*X140106Y13589D1*X140106Y16129*X141376Y17399*X138836Y19939*X142646Y18669D2*X145186Y18669D1*X144551Y18034*X144551Y14859*X145821Y16129D2*X145821Y16764D1*X146456Y17399*X146456Y19304*X145186Y20574*X144551Y20574*X150266Y26289D2*X152806Y26289D1*X153441Y26924*X153441Y49149*X152806Y49784*X151536Y47879D2*X152171Y47244D1*X152171Y28829*X148361Y35179D2*X148361Y35814D1*X146456Y37719*X142011Y37719*X141376Y37084*X141376Y35814*X142646Y34544*X140106Y37084D2*X143281Y40259D1*X143281Y41529*X143916Y42164*X143916Y45339*X142646Y46609*X138201Y46609*X137566Y45974*X137566Y44069*X136296Y42799D2*X138836Y40259D1*X136296Y37719*X137566Y36449D2*X140106Y38989D1*X140106Y41529*X141376Y42799*X138836Y45339*X136296Y42799D2*X136296Y63119D1*X138836Y65659*X136296Y68199*X136296Y88519*X138836Y91059*X136296Y93599*X136296Y113919*X138836Y116459*X136296Y118999*X136296Y125349*X136931Y125984*X136931Y131064*X136296Y131699*X136296Y139319*X138836Y141859*X136296Y144399*X136296Y164719*X138836Y167259*X136296Y169799*X136296Y190119*X138836Y192659*X140106Y191389D2*X137566Y188849D1*X137566Y186944D2*X138836Y184404D1*X141376Y188214D2*X141376Y189484D1*X142011Y190119*X146456Y190119*X148361Y188214*X148361Y187579*X149631Y188849D2*X149631Y191389D1*X154076Y191389D2*X154076Y168529D1*X155346Y167259*X154076Y165989*X154076Y143129*X155346Y141859*X154076Y140589*X154076Y117729*X155346Y116459*X154076Y115189*X154076Y92329*X155346Y91059*X154076Y89789*X154076Y66929*X155346Y65659*X154076Y64389*X154076Y54229*X154076Y41529*X155346Y40259*X154076Y38989*X154076Y16129*X155346Y14859*X156616Y16129D2*X155346Y17399D1*X155346Y18669*X159156Y19304D2*X159156Y17399D1*X160426Y16129*X161696Y17399D2*X164236Y14859D1*X163601Y14859*X161696Y12954*X161696Y4699*X164236Y6604D2*X162966Y9144D1*X162966Y11049D2*X164871Y13589D1*X165506Y13589*X165506Y16129*X166776Y17399*X164236Y19939*X161696Y17399D2*X161696Y37719D1*X164236Y40259*X161696Y42799*X161696Y63119*X164236Y65659*X161696Y68199*X161696Y74549*X161696Y88519*X164236Y91059*X161696Y93599*X161696Y113919*X164236Y116459*X161696Y118999*X161696Y139319*X164236Y141859*X161696Y144399*X161696Y164719*X164236Y167259*X161696Y169799*X161696Y190119*X164236Y192659*X165506Y193929D2*X166776Y195199D1*X164236Y197739*X162966Y196469D2*X162966Y199009D1*X163601Y199644*X168681Y199644*X169316Y199009*X169316Y194564*X168681Y193929*X168681Y192659*X165506Y189484*X165506Y181864*X163601Y179959*X164871Y178689D2*X166141Y178689D1*X169316Y175514*X169316Y169164*X168681Y168529*X168681Y167259*X165506Y164084*X165506Y152654*X168046Y150114*X171856Y150114*X173126Y148844*X173126Y145669*X174396Y144399*X176301Y144399*X176936Y143764*X176936Y134239*X175666Y132969*X169951Y132969*X165506Y128524*X164871Y128524*X168046Y125349*X170586Y125349*X173126Y122809*X173126Y120269*X174396Y118999*X175666Y118999*X176301Y118364*X176301Y109474*X173126Y106299*X173126Y99949*X173761Y99314*X175031Y99314*X177571Y96774*X177571Y84074*X173761Y79629*X172491Y79629D2*X172491Y76454D1*X176936Y72009*X176936Y57404*X175666Y56134*X175666Y54229D2*X177571Y56134D1*X177571Y72644*X175666Y74549*X175666Y78359*X178206Y80899*X178206Y101219*X176301Y103124*X176301Y107569*X177571Y108839*X177571Y124714*X176936Y125349*X175666Y125349*X174396Y126619*X174396Y127889*X173761Y128524*X170586Y128524*X171856Y129794D2*X176301Y129794D1*X177571Y128524D2*X178206Y127889D1*X178206Y107569*X178206Y105664D2*X178206Y102489D1*X178841Y101854*X178841Y78359*X178206Y77724*X178206Y76454*X178206Y52324*X178206Y26289*X179476Y30099D2*X179476Y16129D1*X180746Y14859*X182016Y16129D2*X180746Y17399D1*X180746Y18669*X185826Y16129D2*X184556Y17399D1*X184556Y19939*X185191Y20574*X185826Y20574*X187096Y17399D2*X189636Y14859D1*X187096Y12319*X187096Y4699*X189636Y6604D2*X188366Y9144D1*X188366Y11049D2*X190906Y13589D1*X190906Y16129*X192176Y17399*X189636Y19939*X187096Y17399D2*X187096Y37719D1*X189636Y40259*X187096Y42799*X187096Y49149*X187096Y63119*X189636Y65659*X187096Y68199*X187096Y88519*X189636Y91059*X187096Y93599*X187096Y113919*X189636Y116459*X187096Y118999*X187096Y139319*X189636Y141859*X187096Y144399*X187096Y164719*X189636Y167259*X187096Y169799*X187096Y190119*X189636Y192659*X190906Y191389D2*X188366Y188849D1*X188366Y186944D2*X189636Y184404D1*X192176Y188214D2*X192176Y189484D1*X192811Y190119*X197256Y190119*X199161Y188214*X199161Y187579*X200431Y188849D2*X200431Y191389D1*X196621Y193929D2*X196621Y194564D1*X197256Y195199*X197256Y197104*X195986Y198374*X195351Y198374*X195986Y196469D2*X193446Y196469D1*X189636Y197739D2*X192176Y195199D1*X190906Y193929*X190906Y191389*X192176Y188214D2*X193446Y186944D1*X195351Y192659D2*X195351Y195834D1*X195986Y196469*X185826Y198374D2*X185191Y198374D1*X184556Y197739*X184556Y195199*X185826Y193929*X185826Y191389D2*X185826Y188849D1*X182016Y188849D2*X182016Y191389D1*X180746Y192659D2*X179476Y191389D1*X179476Y168529*X180746Y167259*X179476Y165989*X179476Y143129*X180746Y141859*X179476Y140589*X179476Y117729*X180746Y116459*X179476Y115189*X179476Y92329*X180746Y91059*X179476Y89789*X179476Y66929*X180746Y65659*X179476Y64389*X179476Y41529*X180746Y40259*X179476Y38989*X179476Y30099*X176936Y30734D2*X175666Y29464D1*X174396Y29464*X173126Y28194*X173126Y26289*X170586Y26289D2*X170586Y29464D1*X171856Y30734*X175031Y30734*X176301Y32004*X176301Y42164*X175666Y42799*X173761Y42799*X173126Y43434*X173126Y47244*X171221Y49149*X168681Y49149*X168046Y49784*X168046Y52959*X165506Y55499*X165506Y62484*X168681Y65659*X168681Y66929*X169316Y67564*X169316Y73279*X168681Y73914*X166141Y73914*X164871Y75184*X164871Y77724*X163601Y78994D2*X165506Y80899D1*X165506Y87884*X168681Y91059*X168681Y92329*X169316Y92964*X169316Y96139*X168046Y97409*X163601Y97409*X162966Y96774*X162966Y94869*X164236Y96139D2*X166776Y93599D1*X165506Y92329*X165506Y89789*X162966Y87249*X162966Y85344D2*X164236Y82804D1*X168046Y80899D2*X168046Y76454D1*X170586Y76454*X173126Y73914*X173126Y69469*X174396Y68199*X175666Y68199*X176301Y67564*X176301Y58674*X173126Y55499*X173126Y52324*X175666Y54229D2*X175666Y49149D1*X176936Y47879*X176936Y30734*X173761Y35179D2*X173761Y35814D1*X171856Y37719*X167411Y37719*X166776Y37084*X166776Y35814*X168046Y34544*X165506Y37084D2*X165506Y31369D1*X169316Y27559*X164236Y32004D2*X162966Y34544D1*X162966Y36449D2*X165506Y38989D1*X165506Y41529*X166776Y42799*X164236Y45339*X162966Y45974D2*X163601Y46609D1*X168046Y46609*X169316Y45339*X169316Y42164*X168681Y41529*X168681Y40259*X165506Y37084*X169951Y40259D2*X169951Y43434D1*X170586Y44069*X170586Y45974D2*X171856Y44704D1*X171856Y42799*X171221Y42164*X171221Y41529*X175031Y38989D2*X175031Y36449D1*X182016Y36449D2*X182016Y38989D1*X182016Y41529D2*X180746Y42799D1*X180746Y44069*X185826Y41529D2*X184556Y42799D1*X184556Y45339*X185191Y45974*X185826Y45974*X189636Y45339D2*X192176Y42799D1*X190906Y41529*X190906Y38989*X188366Y36449*X188366Y34544D2*X189636Y32004D1*X192176Y35814D2*X192176Y37084D1*X192811Y37719*X197256Y37719*X199161Y35814*X199161Y35179*X200431Y36449D2*X200431Y38989D1*X196621Y41529D2*X196621Y42164D1*X197256Y42799*X197256Y44704*X195986Y45974*X195986Y44069D2*X193446Y44069D1*X195351Y40259D2*X195351Y43434D1*X195986Y44069*X192176Y35814D2*X193446Y34544D1*X185826Y36449D2*X185826Y38989D1*X189636Y57404D2*X188366Y59944D1*X188366Y61849D2*X190906Y64389D1*X190906Y66929*X192176Y68199*X189636Y70739*X185826Y71374D2*X185191Y71374D1*X184556Y70739*X184556Y68199*X185826Y66929*X185826Y64389D2*X185826Y61849D1*X182016Y61849D2*X182016Y64389D1*X182016Y66929D2*X180746Y68199D1*X180746Y69469*X175031Y64389D2*X175031Y61849D1*X173761Y60579D2*X173761Y61849D1*X172491Y63119*X167411Y63119*X166776Y62484*X166776Y61214*X168046Y59944*X164236Y57404D2*X162966Y59944D1*X162966Y61849D2*X165506Y64389D1*X165506Y66929*X166776Y68199*X164236Y70739*X160426Y71374D2*X159791Y71374D1*X159156Y70739*X159156Y68199*X160426Y66929*X160426Y64389D2*X160426Y61849D1*X156616Y61849D2*X156616Y64389D1*X156616Y66929D2*X155346Y68199D1*X155346Y69469*X157886Y73279D2*X157886Y52959D1*X158521Y52324*X160426Y52324*X160426Y45974D2*X159791Y45974D1*X159156Y45339*X159156Y42799*X160426Y41529*X160426Y38989D2*X160426Y36449D1*X156616Y36449D2*X156616Y38989D1*X156616Y41529D2*X155346Y42799D1*X155346Y44069*X151536Y47879D2*X151536Y51689D1*X152806Y52959*X152806Y77724*X151536Y78994*X151536Y103124*X150266Y104394D2*X152171Y106299D1*X152171Y108839*X152806Y111379D2*X152806Y128524D1*X152806Y146939*X147726Y152019*X147726Y153289*X147726Y155829*X150901Y159004*X150901Y169164*X151536Y169799*X151536Y178054*X149631Y179959*X145821Y179959*X144551Y172974D2*X145186Y172974D1*X146456Y171704*X146456Y169799*X145821Y169164*X145821Y168529*X144551Y167259D2*X144551Y170434D1*X145186Y171069*X142646Y171069*X138836Y172339D2*X141376Y169799D1*X140106Y168529*X140106Y165989*X137566Y163449*X137566Y161544D2*X138836Y159004D1*X141376Y162814D2*X141376Y164084D1*X142011Y164719*X146456Y164719*X148361Y162814*X148361Y162179*X149631Y163449D2*X149631Y165989D1*X152806Y160274D2*X152806Y156464D1*X150901Y154559*X157886Y154559D2*X157886Y174879D1*X155981Y176784D2*X157886Y178689D1*X160426Y178689*X160426Y172974D2*X159156Y171704D1*X159156Y169799*X160426Y168529*X160426Y165989D2*X160426Y163449D1*X162966Y163449D2*X165506Y165989D1*X165506Y168529*X166776Y169799*X164236Y172339*X169951Y170434D2*X169951Y167259D1*X171221Y168529D2*X171221Y169164D1*X171856Y169799*X171856Y171704*X170586Y172974*X170586Y171069D2*X169951Y170434D1*X167411Y164719D2*X172491Y164719D1*X173761Y163449*X173761Y162179*X175031Y163449D2*X175031Y165989D1*X182016Y168529D2*X180746Y169799D1*X180746Y171069*X185826Y168529D2*X184556Y169799D1*X184556Y172339*X185191Y172974*X185826Y172974*X189636Y172339D2*X192176Y169799D1*X190906Y168529*X190906Y165989*X188366Y163449*X188366Y161544D2*X189636Y159004D1*X192176Y162814D2*X192176Y164084D1*X192811Y164719*X197256Y164719*X199161Y162814*X199161Y162179*X200431Y163449D2*X200431Y165989D1*X196621Y168529D2*X196621Y169164D1*X197256Y169799*X197256Y171704*X195986Y172974*X195351Y172974*X195986Y171069D2*X193446Y171069D1*X195351Y167259D2*X195351Y170434D1*X195986Y171069*X192176Y162814D2*X193446Y161544D1*X185826Y163449D2*X185826Y165989D1*X182016Y165989D2*X182016Y163449D1*X176936Y159004D2*X176936Y174879D1*X173126Y178689*X170586Y178689*X171856Y179959D2*X176301Y179959D1*X177571Y178689D2*X178841Y177419D1*X178841Y155829*X177571Y154559*X177571Y153924*X178841Y152654*X178841Y129794*X177571Y128524*X180746Y120269D2*X180746Y118999D1*X182016Y117729*X182016Y115189D2*X182016Y112649D1*X185826Y112649D2*X185826Y115189D1*X185826Y117729D2*X184556Y118999D1*X184556Y121539*X185191Y122174*X185826Y122174*X189636Y121539D2*X192176Y118999D1*X190906Y117729*X190906Y115189*X188366Y112649*X188366Y110744D2*X189636Y108204D1*X192176Y112014D2*X192176Y113284D1*X192811Y113919*X197256Y113919*X199161Y112014*X199161Y111379*X200431Y112649D2*X200431Y115189D1*X197256Y118364D2*X197256Y120904D1*X195986Y122174*X195351Y122174*X195986Y120269D2*X193446Y120269D1*X195351Y119634D2*X195351Y116459D1*X196621Y117729D2*X197256Y118364D1*X195986Y120269D2*X195351Y119634D1*X192176Y112014D2*X193446Y110744D1*X195351Y96774D2*X195986Y96774D1*X197256Y95504*X197256Y93599*X196621Y92964*X196621Y92329*X195351Y91059D2*X195351Y94234D1*X195986Y94869*X193446Y94869*X189636Y96139D2*X192176Y93599D1*X190906Y92329*X190906Y89789*X188366Y87249*X188366Y85344D2*X189636Y82804D1*X192176Y86614D2*X192176Y87884D1*X192811Y88519*X197256Y88519*X199161Y86614*X199161Y85979*X200431Y87249D2*X200431Y89789D1*X193446Y85344D2*X192176Y86614D1*X185826Y87249D2*X185826Y89789D1*X185826Y92329D2*X184556Y93599D1*X184556Y96139*X185191Y96774*X185826Y96774*X182016Y92329D2*X180746Y93599D1*X180746Y94869*X176301Y92964D2*X176301Y84074D1*X172491Y79629*X173761Y85979D2*X173761Y87249D1*X172491Y88519*X167411Y88519*X166776Y87884*X166776Y86614*X168046Y85344*X169951Y91059D2*X169951Y94234D1*X170586Y94869*X170586Y96774D2*X171856Y95504D1*X171856Y93599*X171221Y92964*X171221Y92329*X172491Y95504D2*X174396Y93599D1*X175666Y93599*X176301Y92964*X175031Y89789D2*X175031Y87249D1*X182016Y87249D2*X182016Y89789D1*X172491Y95504D2*X172491Y98679D1*X171221Y99949*X165506Y99949*X164871Y100584*X164871Y105029*X163601Y105664D2*X165506Y107569D1*X165506Y113284*X168681Y116459*X168681Y117729*X169316Y118364*X169316Y122174*X168681Y122809*X163601Y122809*X162966Y122174*X162966Y120269*X164236Y121539D2*X166776Y118999D1*X165506Y117729*X165506Y115189*X162966Y112649*X162966Y110744D2*X164236Y109474D1*X164236Y108204*X163601Y105664D2*X163601Y103759D1*X159156Y104394D2*X159156Y111379D1*X160426Y112649D2*X160426Y115189D1*X160426Y117729D2*X159156Y118999D1*X159156Y121539*X159791Y122174*X160426Y122174*X155346Y120269D2*X155346Y118999D1*X156616Y117729*X156616Y115189D2*X156616Y112649D1*X152806Y111379D2*X145821Y105029D1*X142646Y101854*X144551Y96774D2*X145186Y96774D1*X146456Y95504*X146456Y93599*X145821Y92964*X145821Y92329*X144551Y91059D2*X144551Y94234D1*X145186Y94869*X142646Y94869*X138836Y96139D2*X141376Y93599D1*X140106Y92329*X140106Y89789*X137566Y87249*X137566Y85344D2*X138836Y82804D1*X141376Y86614D2*X141376Y87884D1*X142011Y88519*X147091Y88519*X148361Y87249*X148361Y85979*X149631Y87249D2*X149631Y89789D1*X156616Y92329D2*X155346Y93599D1*X155346Y94869*X160426Y92329D2*X159156Y93599D1*X159156Y96139*X159791Y96774*X160426Y96774*X155981Y100584D2*X155981Y103124D1*X157886Y105029*X157886Y148844*X159156Y150114*X159156Y153289*X159791Y147574D2*X159156Y146939D1*X159156Y144399*X160426Y143129*X160426Y140589D2*X160426Y138049D1*X159156Y136779D2*X159156Y129794D1*X163601Y129794D2*X165506Y131699D1*X165506Y138684*X168681Y141859*X168681Y143129*X169316Y143764*X169316Y146939*X168046Y148209*X163601Y148209*X162966Y147574*X162966Y145669*X164236Y146939D2*X166776Y144399D1*X165506Y143129*X165506Y140589*X162966Y138049*X162966Y136144D2*X164236Y133604D1*X166776Y137414D2*X166776Y138684D1*X167411Y139319*X171856Y139319*X173761Y137414*X173761Y136779*X175031Y138049D2*X175031Y140589D1*X171221Y143129D2*X171221Y143764D1*X171856Y144399*X171856Y146304*X170586Y147574*X170586Y145669D2*X169951Y145034D1*X169951Y141859*X166776Y137414D2*X168046Y136144D1*X160426Y147574D2*X159791Y147574D1*X155346Y145669D2*X155346Y144399D1*X156616Y143129*X156616Y140589D2*X156616Y138049D1*X149631Y138049D2*X149631Y140589D1*X146456Y139319D2*X148361Y137414D1*X148361Y136779*X146456Y139319D2*X142011Y139319D1*X141376Y138684*X141376Y137414*X142646Y136144*X138836Y133604D2*X137566Y136144D1*X137566Y138049D2*X140106Y140589D1*X140106Y143129*X141376Y144399*X138836Y146939*X135026Y147574D2*X134391Y147574D1*X133756Y146939*X133756Y144399*X135026Y143129*X135026Y140589D2*X135026Y138049D1*X131216Y138049D2*X131216Y140589D1*X129946Y141859D2*X128676Y143129D1*X128676Y165989*X129946Y167259*X128676Y168529*X128676Y191389*X129946Y192659*X131216Y193929D2*X129946Y195199D1*X129946Y196469*X135026Y193929D2*X133756Y195199D1*X133756Y197739*X134391Y198374*X135026Y198374*X138836Y197739D2*X141376Y195199D1*X140106Y193929*X140106Y191389*X141376Y188214D2*X142646Y186944D1*X144551Y192659D2*X144551Y195834D1*X145186Y196469*X142646Y196469*X144551Y198374D2*X145186Y198374D1*X146456Y197104*X146456Y195199*X145821Y194564*X145821Y193929*X154076Y191389D2*X155346Y192659D1*X156616Y191389D2*X156616Y188849D1*X160426Y188849D2*X160426Y191389D1*X160426Y193929D2*X159156Y195199D1*X159156Y197739*X159791Y198374*X160426Y198374*X155346Y196469D2*X155346Y195199D1*X156616Y193929*X162966Y188849D2*X165506Y191389D1*X165506Y193929*X167411Y190119D2*X166776Y189484D1*X166776Y188214*X168046Y186944*X167411Y190119D2*X171856Y190119D1*X173761Y188214*X173761Y187579*X175031Y188849D2*X175031Y191389D1*X171221Y193929D2*X171856Y194564D1*X171856Y197104*X170586Y198374*X170586Y196469D2*X169951Y195834D1*X169951Y192659*X162966Y186944D2*X164236Y184404D1*X155346Y171069D2*X155346Y169799D1*X156616Y168529*X156616Y165989D2*X156616Y163449D1*X162966Y161544D2*X164236Y159004D1*X166776Y162814D2*X166776Y164084D1*X167411Y164719*X166776Y162814D2*X168046Y161544D1*X169951Y156464D2*X174396Y156464D1*X176936Y159004*X176301Y155194D2*X175666Y154559D1*X170586Y154559*X169951Y156464D2*X169316Y155829D1*X169316Y153289*X180746Y145669D2*X180746Y144399D1*X182016Y143129*X182016Y140589D2*X182016Y138049D1*X185826Y138049D2*X185826Y140589D1*X185826Y143129D2*X184556Y144399D1*X184556Y146939*X185191Y147574*X185826Y147574*X189636Y146939D2*X192176Y144399D1*X190906Y143129*X190906Y140589*X188366Y138049*X188366Y136144D2*X189636Y133604D1*X192176Y137414D2*X192176Y138684D1*X192811Y139319*X197256Y139319*X199161Y137414*X199161Y136779*X200431Y138049D2*X200431Y140589D1*X196621Y143129D2*X196621Y143764D1*X197256Y144399*X197256Y146304*X195986Y147574*X195986Y145669D2*X193446Y145669D1*X195351Y141859D2*X195351Y145034D1*X195986Y145669*X192176Y137414D2*X193446Y136144D1*X171856Y120904D2*X171856Y118364D1*X171221Y117729*X169951Y116459D2*X169951Y119634D1*X170586Y120269*X171856Y120904D2*X170586Y122174D1*X175031Y115189D2*X175031Y112649D1*X173761Y111379D2*X173761Y112014D1*X171856Y113919*X167411Y113919*X166776Y113284*X166776Y112014*X168046Y110744*X169316Y107569D2*X169316Y103124D1*X160426Y89789D2*X160426Y87249D1*X159156Y85979D2*X159156Y78994D1*X156616Y87249D2*X156616Y89789D1*X149631Y79629D2*X146456Y79629D1*X145821Y78994*X144551Y77724*X140741Y77724*X138201Y74549D2*X140106Y76454D1*X142011Y76454*X143916Y74549*X143916Y67564*X143281Y66929*X143281Y65659*X140106Y62484*X140106Y56134*X138836Y57404D2*X137566Y59944D1*X137566Y61849D2*X140106Y64389D1*X140106Y66929*X141376Y68199*X138836Y70739*X135026Y71374D2*X134391Y71374D1*X133756Y70739*X133756Y68199*X135026Y66929*X135026Y64389D2*X135026Y61849D1*X131216Y61849D2*X131216Y64389D1*X131216Y66929D2*X129946Y68199D1*X129946Y69469*X124231Y64389D2*X124231Y61849D1*X122961Y60579D2*X122961Y61849D1*X121691Y63119*X116611Y63119*X115976Y62484*X115976Y60579*X116611Y59944*X117246Y59944*X113436Y57404D2*X112166Y59944D1*X112166Y61849D2*X114706Y64389D1*X114706Y66929*X115976Y68199*X113436Y70739*X109626Y71374D2*X108991Y71374D1*X108356Y70739*X108356Y68199*X109626Y66929*X109626Y64389D2*X109626Y61849D1*X105816Y61849D2*X105816Y64389D1*X105816Y66929D2*X104546Y68199D1*X104546Y69469*X98831Y64389D2*X98831Y61849D1*X97561Y60579D2*X97561Y61214D1*X95656Y63119*X91211Y63119*X90576Y62484*X90576Y61214*X91846Y59944*X88036Y57404D2*X86766Y59944D1*X86766Y61849D2*X89306Y64389D1*X89306Y66929*X90576Y68199*X88036Y70739*X85496Y68199D2*X88036Y65659D1*X85496Y63119*X85496Y42799*X88036Y40259*X85496Y37719*X85496Y17399*X88036Y14859*X85496Y12319*X85496Y4699*X88036Y6604D2*X86766Y9144D1*X86766Y11049D2*X89306Y13589D1*X89306Y16129*X90576Y17399*X88036Y19939*X84226Y20574D2*X82956Y19304D1*X82956Y17399*X84226Y16129*X84226Y13589D2*X84226Y11049D1*X80416Y11049D2*X80416Y13589D1*X79146Y14859D2*X78511Y14859D1*X77876Y15494*X77876Y38989*X79146Y40259*X77876Y41529*X77876Y49784*X79146Y51054*X77876Y52324*X77876Y64389*X79146Y65659*X77876Y66929*X77876Y89789*X79146Y91059*X77876Y92329*X77876Y115189*X79146Y116459*X77876Y117729*X77876Y140589*X79146Y141859*X77876Y143129*X77876Y165989*X79146Y167259*X77876Y168529*X77876Y191389*X79146Y192659*X80416Y193929D2*X79146Y195199D1*X84226Y193929D2*X82956Y195199D1*X82956Y197739*X83591Y198374*X84226Y198374*X88036Y197739D2*X90576Y195199D1*X89306Y193929*X89306Y191389*X86766Y188849*X85496Y190119D2*X85496Y169799D1*X88036Y167259*X85496Y164719*X85496Y144399*X88036Y141859*X85496Y139319*X85496Y118999*X88036Y116459*X85496Y113919*X85496Y93599*X88036Y91059*X88036Y90424*X85496Y87884*X85496Y77089*X84226Y77089D2*X85496Y77089D1*X85496Y68199*X84226Y66929D2*X82956Y68199D1*X82956Y70739*X83591Y71374*X84226Y71374*X81686Y74549D2*X81686Y53594D1*X81686Y51054D2*X81686Y23749D1*X79146Y18669D2*X79146Y17399D1*X80416Y16129*X73431Y13589D2*X73431Y11049D1*X72161Y9779D2*X72161Y10414D1*X70256Y12319*X65811Y12319*X65176Y11684*X65176Y10414*X66446Y9144*X62636Y6604D2*X61366Y9144D1*X61366Y11049D2*X63906Y13589D1*X63906Y16129*X65176Y17399*X62636Y19939*X60096Y17399D2*X62636Y14859D1*X60096Y12319*X60096Y4699*X58826Y11049D2*X58826Y13589D1*X58826Y16129D2*X57556Y17399D1*X57556Y19939*X58191Y20574*X58826Y20574*X60096Y17399D2*X60096Y37719D1*X62636Y40259*X60096Y42799*X60096Y63119*X62636Y65659*X60096Y68199*X60096Y77724*X62001Y77724*X63271Y76454D2*X64541Y77724D1*X67081Y77724*X65811Y78994D2*X67716Y78994D1*X69621Y77724*X71526Y76454*X71526Y74549*X70891Y73914*X70891Y70104*X72796Y68199*X74066Y68199*X75336Y66929*X75336Y59309*X73431Y57404*X70891Y57404*X68986Y55499*X68986Y53594*X68986Y51054D2*X68986Y50419D1*X71526Y48514*X71526Y44704*X73431Y42799*X74701Y42799*X75336Y42164*X75336Y32639*X74701Y32004*X72161Y32004*X70891Y30734*X72796Y30099D2*X70891Y28194D1*X68351Y28194*X66446Y28194*X65176Y26924*X61366Y28194D2*X63906Y28194D1*X63906Y37084*X67081Y40259*X67081Y42164*X67716Y42799*X67716Y47244*X63906Y51054*X65176Y52324D2*X65176Y54864D1*X63906Y56134*X63906Y62484*X67081Y65659*X67081Y66929*X67716Y67564*X67716Y75819*X68986Y71374D2*X70256Y70104D1*X70256Y67564*X69621Y66929*X68351Y65659D2*X68351Y68834D1*X68986Y69469*X62636Y70739D2*X65176Y68199D1*X63906Y66929*X63906Y64389*X61366Y61849*X61366Y59944D2*X62636Y57404D1*X61366Y56134D2*X63906Y53594D1*X65176Y52324D2*X66446Y51054D1*X68986Y45974D2*X70256Y44704D1*X70256Y42799*X69621Y42164*X69621Y41529*X68351Y40259D2*X68351Y43434D1*X68986Y44069*X62636Y45339D2*X65176Y42799D1*X63906Y41529*X63906Y38989*X61366Y36449*X61366Y34544D2*X62636Y32004D1*X65176Y35814D2*X65176Y37084D1*X65811Y37719*X70256Y37719*X72161Y35814*X72161Y35179*X73431Y36449D2*X73431Y38989D1*X80416Y41529D2*X79146Y42799D1*X79146Y44069*X84226Y41529D2*X82956Y42799D1*X82956Y45339*X83591Y45974*X84226Y45974*X88036Y45339D2*X90576Y42799D1*X89306Y41529*X89306Y38989*X86766Y36449*X86766Y34544D2*X88036Y32004D1*X90576Y35814D2*X90576Y37084D1*X91211Y37719*X95656Y37719*X97561Y35814*X97561Y35179*X98831Y36449D2*X98831Y38989D1*X95021Y41529D2*X95021Y42164D1*X95656Y42799*X95656Y44704*X94386Y45974*X94386Y44069D2*X91846Y44069D1*X93751Y40259D2*X93751Y43434D1*X94386Y44069*X90576Y35814D2*X91846Y34544D1*X84226Y36449D2*X84226Y38989D1*X80416Y38989D2*X80416Y36449D1*X75971Y31369D2*X75336Y30734D1*X75336Y26924*X76606Y25654D2*X76606Y51054D1*X75971Y49149D2*X75971Y31369D1*X66446Y34544D2*X65176Y35814D1*X58826Y36449D2*X58826Y38989D1*X58826Y41529D2*X57556Y42799D1*X57556Y45339*X58191Y45974*X58826Y45974*X53746Y44069D2*X53746Y42799D1*X55016Y41529*X53746Y40259D2*X53111Y40259D1*X52476Y40894*X52476Y64389*X53746Y65659*X52476Y66929*X52476Y74549*X52476Y89789*X53746Y91059*X52476Y92329*X52476Y115189*X53746Y116459*X52476Y117729*X52476Y140589*X53746Y141859*X52476Y143129*X52476Y165989*X53746Y167259*X52476Y168529*X52476Y189484*X53746Y192659*X55016Y193929D2*X53746Y195199D1*X53746Y196469*X58826Y193929D2*X57556Y195199D1*X57556Y197739*X58191Y198374*X58826Y198374*X62636Y197739D2*X65176Y195199D1*X63906Y193929*X63906Y191389*X61366Y188849*X60096Y190119D2*X60096Y169799D1*X62636Y167259*X60096Y164719*X60096Y144399*X62636Y141859*X60096Y139319*X60096Y118999*X62636Y116459*X60096Y113919*X60096Y93599*X62636Y91059*X60096Y88519*X60096Y77724*X57556Y80264D2*X57556Y73914D1*X56286Y72644*X56286Y52324*X55016Y61849D2*X55016Y64389D1*X55016Y66929D2*X53746Y68199D1*X53746Y69469*X58826Y66929D2*X57556Y68199D1*X57556Y70739*X58191Y71374*X58826Y71374*X58826Y64389D2*X58826Y61849D1*X66446Y59944D2*X65176Y61214D1*X65176Y62484*X65811Y63119*X70256Y63119*X72161Y61214*X72161Y60579*X73431Y61849D2*X73431Y64389D1*X80416Y66929D2*X79146Y68199D1*X79146Y69469*X77241Y70739D2*X77241Y80899D1*X75971Y82169*X72161Y85979D2*X72161Y86614D1*X70256Y88519*X65811Y88519*X65176Y87884*X65176Y86614*X66446Y85344*X62636Y82804D2*X61366Y85344D1*X61366Y87249D2*X63906Y89789D1*X63906Y92329*X65176Y93599*X62636Y96139*X58826Y96774D2*X58191Y96774D1*X57556Y96139*X57556Y93599*X58826Y92329*X58826Y89789D2*X58826Y87249D1*X55016Y87249D2*X55016Y89789D1*X55016Y92329D2*X53746Y93599D1*X53746Y94869*X48031Y89789D2*X48031Y87249D1*X46761Y86614D2*X44856Y88519D1*X40411Y88519*X39776Y87884*X39776Y86614*X41046Y85344*X37236Y82804D2*X35966Y85344D1*X35966Y87249D2*X38506Y89789D1*X38506Y91694*X39776Y92964*X39776Y93599*X37236Y96139*X34696Y93599D2*X37236Y91059D1*X34696Y88519*X34696Y68199*X37236Y65659*X34696Y63119*X34696Y42799*X37236Y40259*X34696Y37719*X34696Y28194*X39776Y28194*X41046Y26924D2*X42316Y26924D1*X43586Y25654*X44856Y28194*X47396Y28194*X46126Y29464D2*X48666Y29464D1*X49936Y30734*X46761Y35179D2*X46761Y35814D1*X44856Y37719*X40411Y37719*X39776Y37084*X39776Y35814*X41046Y34544*X37236Y32004D2*X35966Y34544D1*X35966Y36449D2*X38506Y38989D1*X38506Y41529*X39776Y42799*X37236Y45339*X33426Y45974D2*X32791Y45974D1*X32156Y45339*X32156Y42799*X33426Y41529*X33426Y38989D2*X33426Y36449D1*X29616Y36449D2*X29616Y38989D1*X28346Y40259D2*X27076Y41529D1*X27076Y65024*X27711Y65659*X28346Y65659*X27076Y66929*X27076Y89789*X28346Y91059*X27076Y92329*X27076Y115189*X28346Y116459*X27076Y117729*X27076Y140589*X28346Y141859*X27076Y143129*X27076Y164719*X28346Y167259*X27076Y168529*X27076Y191389*X28346Y192659*X29616Y193929D2*X28346Y195199D1*X28346Y196469*X33426Y193929D2*X32156Y195199D1*X32156Y197739*X32791Y198374*X33426Y198374*X37236Y197739D2*X39776Y195199D1*X38506Y193929*X38506Y191389*X35966Y188849*X35966Y186944D2*X37236Y184404D1*X39776Y188214D2*X39776Y189484D1*X40411Y190119*X45491Y190119*X46761Y188849*X46761Y187579*X48031Y188849D2*X48031Y191389D1*X44221Y193929D2*X44221Y194564D1*X44856Y195199*X44856Y197104*X43586Y198374*X42951Y198374*X41046Y196469D2*X43586Y196469D1*X42951Y195834*X42951Y192659*X39776Y188214D2*X41046Y186944D1*X37236Y192659D2*X36601Y192659D1*X34696Y190754*X34696Y169799*X37236Y167259*X34696Y164719*X34696Y144399*X37236Y141859*X34696Y139319*X34696Y118999*X37236Y116459*X34696Y113919*X34696Y93599*X33426Y92329D2*X32156Y93599D1*X32156Y96139*X32791Y96774*X33426Y96774*X29616Y92329D2*X28346Y93599D1*X28346Y94869*X29616Y89789D2*X29616Y87249D1*X33426Y87249D2*X33426Y89789D1*X41046Y94869D2*X43586Y94869D1*X42951Y94234*X42951Y91059*X44221Y92329D2*X44856Y92964D1*X44856Y95504*X43586Y96774*X42951Y96774*X46761Y86614D2*X46761Y85979D1*X42951Y71374D2*X43586Y71374D1*X44856Y70104*X44856Y68199*X44221Y67564*X44221Y66929*X42951Y65659D2*X42951Y68834D1*X43586Y69469*X41046Y69469*X37236Y70739D2*X39776Y68199D1*X38506Y66929*X38506Y64389*X35966Y61849*X35966Y59944D2*X37236Y57404D1*X39776Y61214D2*X39776Y62484D1*X40411Y63119*X44856Y63119*X46761Y61214*X46761Y60579*X48031Y61849D2*X48031Y64389D1*X41046Y59944D2*X39776Y61214D1*X33426Y61849D2*X33426Y64389D1*X33426Y66929D2*X32156Y68199D1*X32156Y70739*X32791Y71374*X33426Y71374*X28346Y69469D2*X28346Y68199D1*X29616Y66929*X29616Y64389D2*X29616Y61849D1*X22631Y61849D2*X22631Y64389D1*X19456Y63119D2*X21361Y61214D1*X21361Y60579*X19456Y63119D2*X15011Y63119D1*X14376Y62484*X14376Y61214*X15646Y59944*X11836Y57404D2*X10566Y59944D1*X10566Y61849D2*X13106Y64389D1*X13106Y66929*X14376Y68199*X11836Y70739*X9296Y68199D2*X11836Y65659D1*X9296Y63119*X9296Y42799*X11836Y40259*X9296Y37719*X9296Y17399*X11836Y14859*X9296Y12319*X9296Y5334*X9931Y4699*X17551Y4699*X15646Y9144D2*X14376Y10414D1*X14376Y11684*X15011Y12319*X20091Y12319*X21361Y11049*X21361Y9779*X22631Y11049D2*X22631Y13589D1*X18821Y16129D2*X18821Y16764D1*X19456Y17399*X19456Y19304*X18186Y20574*X17551Y20574*X18186Y18669D2*X15646Y18669D1*X11836Y19939D2*X14376Y17399D1*X13106Y16129*X13106Y13589*X10566Y11049*X10566Y9144D2*X11836Y6604D1*X8026Y11049D2*X8026Y13589D1*X8026Y16129D2*X6756Y17399D1*X6756Y19939*X7391Y20574*X8026Y20574*X2946Y18669D2*X2946Y17399D1*X4216Y16129*X2946Y14859D2*X1676Y16129D1*X1676Y38989*X2946Y40259*X1676Y41529*X1676Y51054*X2946Y52324*X1676Y53594*X1676Y64389*X2946Y65659*X1676Y66929*X1676Y89789*X2946Y91059*X1676Y92329*X1676Y115189*X2946Y116459*X1676Y117729*X1676Y140589*X2946Y141859*X1676Y143129*X1676Y165989*X2946Y167259*X1676Y168529*X1676Y191389*X2946Y192659*X4216Y193929D2*X2946Y195199D1*X2946Y196469*X8026Y193929D2*X6756Y195199D1*X6756Y197739*X7391Y198374*X8026Y198374*X11836Y197739D2*X14376Y195199D1*X13106Y193929*X13106Y191389*X10566Y188849*X9296Y190119D2*X9296Y169799D1*X11836Y167259*X9296Y164719*X9296Y144399*X11836Y141859*X9296Y139319*X9296Y118999*X11836Y116459*X9296Y113919*X9296Y93599*X11836Y91059*X9296Y88519*X9296Y77089*X11836Y77089*X13106Y75819D2*X14376Y77089D1*X16916Y77089*X17551Y76454*X19456Y76454*X19456Y78359D2*X15646Y78359D1*X11836Y82804D2*X10566Y85344D1*X10566Y87249D2*X13106Y89789D1*X13106Y92329*X14376Y93599*X11836Y96139*X8026Y96774D2*X7391Y96774D1*X6756Y96139*X6756Y93599*X8026Y92329*X8026Y89789D2*X8026Y87249D1*X4216Y87249D2*X4216Y89789D1*X4216Y92329D2*X2946Y93599D1*X2946Y94869*X15646Y94869D2*X18186Y94869D1*X17551Y94234*X17551Y91059*X18821Y92329D2*X19456Y92964D1*X19456Y95504*X18186Y96774*X17551Y96774*X22631Y89789D2*X22631Y87249D1*X21361Y85979D2*X21361Y86614D1*X19456Y88519*X15011Y88519*X14376Y87884*X14376Y86614*X15646Y85344*X9296Y77089D2*X9296Y68199D1*X8026Y66929D2*X6756Y68199D1*X6756Y70739*X7391Y71374*X8026Y71374*X2946Y69469D2*X2946Y68199D1*X4216Y66929*X4216Y64389D2*X4216Y61849D1*X8026Y61849D2*X8026Y64389D1*X15646Y69469D2*X18186Y69469D1*X17551Y68834*X17551Y65659*X18821Y66929D2*X20091Y68199D1*X20091Y69469*X18186Y71374*X17551Y71374*X17551Y45974D2*X18186Y45974D1*X19456Y44704*X19456Y42799*X18821Y42164*X18821Y41529*X17551Y40259D2*X17551Y43434D1*X18186Y44069*X15646Y44069*X11836Y45339D2*X14376Y42799D1*X13106Y41529*X13106Y38989*X10566Y36449*X10566Y34544D2*X11836Y32004D1*X14376Y35814D2*X14376Y37084D1*X15011Y37719*X19456Y37719*X21361Y35814*X21361Y35179*X22631Y36449D2*X22631Y38989D1*X27076Y38989D2*X27076Y23749D1*X27076Y16129*X28346Y14859*X29616Y16129D2*X28346Y17399D1*X28346Y18669*X33426Y16129D2*X32156Y17399D1*X32156Y19939*X32791Y20574*X33426Y20574*X34696Y17399D2*X37236Y14859D1*X34696Y12319*X34696Y4699*X37236Y6604D2*X35966Y9144D1*X35966Y11049D2*X38506Y13589D1*X38506Y16129*X39776Y17399*X37236Y19939*X34696Y17399D2*X34696Y28194D1*X42951Y20574D2*X43586Y20574D1*X44856Y19304*X44856Y17399*X44221Y16764*X44221Y16129*X42951Y14859D2*X42951Y18034D1*X43586Y18669*X41046Y18669*X40411Y12319D2*X45491Y12319D1*X46761Y11049*X46761Y9779*X48031Y11049D2*X48031Y13589D1*X52476Y16764D2*X53746Y14859D1*X55016Y16129D2*X53746Y17399D1*X53746Y18669*X52476Y16764D2*X52476Y38354D1*X53746Y40259*X55016Y38989D2*X55016Y36449D1*X48031Y36449D2*X48031Y38989D1*X44856Y42164D2*X44856Y44704D1*X43586Y45974*X42951Y45974*X43586Y44069D2*X41046Y44069D1*X42951Y42799D2*X42951Y40259D1*X44221Y41529D2*X44856Y42164D1*X42951Y42799D2*X43586Y43434D1*X43586Y44069*X29616Y41529D2*X28346Y42799D1*X28346Y44069*X28346Y40259D2*X27076Y38989D1*X15646Y34544D2*X14376Y35814D1*X8026Y36449D2*X8026Y38989D1*X8026Y41529D2*X6756Y42799D1*X6756Y45339*X7391Y45974*X8026Y45974*X2946Y44069D2*X2946Y42799D1*X4216Y41529*X4216Y38989D2*X4216Y36449D1*X18186Y18669D2*X17551Y18034D1*X17551Y14859*X29616Y13589D2*X29616Y11049D1*X33426Y11049D2*X33426Y13589D1*X40411Y12319D2*X39776Y11684D1*X39776Y10414*X41046Y9144*X55016Y11049D2*X55016Y13589D1*X66446Y18669D2*X68986Y18669D1*X68351Y18034*X68351Y14859*X69621Y16129D2*X70891Y17399D1*X70891Y18669*X68986Y20574*X68351Y20574*X90576Y11684D2*X91211Y12319D1*X95656Y12319*X97561Y10414*X97561Y9779*X98831Y11049D2*X98831Y13589D1*X95656Y16764D2*X95656Y19304D1*X94386Y20574*X93751Y20574*X94386Y18669D2*X91846Y18669D1*X93751Y18034D2*X93751Y14859D1*X95021Y16129D2*X95656Y16764D1*X94386Y18669D2*X93751Y18034D1*X90576Y11684D2*X90576Y10414D1*X91846Y9144*X105816Y16129D2*X104546Y17399D1*X104546Y18669*X115976Y11684D2*X116611Y12319D1*X121691Y12319*X122961Y11049*X122961Y9779*X124231Y11049D2*X124231Y13589D1*X120421Y16129D2*X120421Y16764D1*X121056Y17399*X121056Y19304*X119786Y20574*X119151Y20574*X119786Y18669D2*X117246Y18669D1*X119151Y14859D2*X119151Y18034D1*X119786Y18669*X115976Y11684D2*X115976Y10414D1*X117246Y9144*X131216Y11049D2*X131216Y13589D1*X132486Y11049D2*X132486Y23749D1*X140106Y26289D2*X140106Y37084D1*X137566Y34544D2*X138836Y32004D1*X131216Y36449D2*X131216Y38989D1*X131216Y41529D2*X129946Y42799D1*X129946Y44069*X135026Y41529D2*X133756Y42799D1*X133756Y45339*X134391Y45974*X135026Y45974*X144551Y43434D2*X144551Y40259D1*X145821Y41529D2*X146456Y42164D1*X146456Y44704*X145186Y45974*X145186Y44069D2*X144551Y43434D1*X149631Y38989D2*X149631Y36449D1*X162966Y44069D2*X162966Y45974D1*X148361Y60579D2*X148361Y61214D1*X146456Y63119*X142011Y63119*X141376Y62484*X141376Y61214*X142646Y59944*X144551Y65659D2*X144551Y68834D1*X145186Y69469*X145186Y71374D2*X146456Y70104D1*X146456Y68199*X145821Y67564*X145821Y66929*X149631Y64389D2*X149631Y61849D1*X169951Y65659D2*X169951Y68834D1*X170586Y69469*X170586Y71374D2*X171856Y70104D1*X171856Y68199*X171221Y67564*X171221Y66929*X192176Y62484D2*X192811Y63119D1*X197256Y63119*X199161Y61214*X199161Y60579*X200431Y61849D2*X200431Y64389D1*X197256Y67564D2*X197256Y70104D1*X195986Y71374*X195986Y69469D2*X193446Y69469D1*X195351Y68834D2*X195351Y65659D1*X196621Y66929D2*X197256Y67564D1*X195986Y69469D2*X195351Y68834D1*X192176Y62484D2*X192176Y61214D1*X193446Y59944*X195351Y20574D2*X195986Y20574D1*X197256Y19304*X197256Y16764*X196621Y16129*X195351Y14859D2*X195351Y18034D1*X195986Y18669*X193446Y18669*X192811Y12319D2*X197891Y12319D1*X199161Y11049*X199161Y9779*X200431Y11049D2*X200431Y13589D1*X193446Y9144D2*X192176Y10414D1*X192176Y11684*X192811Y12319*X185826Y13589D2*X185826Y11049D1*X182016Y11049D2*X182016Y13589D1*X175031Y13589D2*X175031Y11049D1*X173761Y9779D2*X173761Y10414D1*X171856Y12319*X167411Y12319*X166776Y11684*X166776Y10414*X168046Y9144*X169951Y14859D2*X169951Y17399D1*X170586Y18034*X170586Y18669*X168046Y18669*X169951Y20574D2*X170586Y20574D1*X171856Y19304*X171856Y17399*X171221Y16764*X171221Y16129*X160426Y13589D2*X160426Y11049D1*X156616Y11049D2*X156616Y13589D1*X159156Y19304D2*X160426Y20574D1*X149631Y13589D2*X149631Y11049D1*X148361Y9779D2*X148361Y10414D1*X146456Y12319*X142011Y12319*X141376Y11684*X141376Y10414*X142646Y9144*X135026Y11049D2*X135026Y13589D1*X132486Y11049D2*X133756Y9779D1*X113436Y32004D2*X112166Y34544D1*X112166Y36449D2*X114706Y38989D1*X114706Y41529*X115976Y42799*X113436Y45339*X109626Y45974D2*X108356Y44704D1*X108356Y42799*X109626Y41529*X109626Y38989D2*X109626Y36449D1*X105816Y36449D2*X105816Y38989D1*X105816Y41529D2*X104546Y42799D1*X104546Y44069*X112166Y49784D2*X115976Y49784D1*X117881Y49784*X119151Y51054*X119786Y45974D2*X121056Y44704D1*X121056Y42799*X120421Y42164*X120421Y41529*X119151Y40259D2*X119151Y43434D1*X119786Y44069*X117246Y44069*X116611Y37719D2*X115976Y37084D1*X115976Y35814*X117246Y34544*X116611Y37719D2*X121056Y37719D1*X122961Y35814*X122961Y35179*X124231Y36449D2*X124231Y38989D1*X119151Y65659D2*X119151Y68834D1*X119786Y69469*X117246Y69469*X119786Y71374D2*X121056Y70104D1*X121056Y68199*X120421Y67564*X120421Y66929*X126771Y80899D2*X126771Y98679D1*X124866Y100584*X124866Y102489*X124866Y106299*X126136Y107569*X126136Y118364*X125501Y118999*X123596Y118999*X123596Y120904*X117881Y126619*X117881Y127254*X119151Y128524*X119151Y131064*X120421Y132334*X126136Y132334*X127406Y133604*X127406Y157099*X122961Y162179D2*X122961Y162814D1*X121056Y164719*X116611Y164719*X115976Y164084*X115976Y162814*X117246Y161544*X113436Y159004D2*X112166Y161544D1*X112166Y163449D2*X114706Y165989D1*X114706Y168529*X115976Y169799*X113436Y172339*X109626Y172974D2*X108991Y172974D1*X108356Y172339*X108356Y169799*X109626Y168529*X109626Y165989D2*X109626Y163449D1*X105816Y163449D2*X105816Y165989D1*X105816Y168529D2*X104546Y169799D1*X104546Y171069*X98831Y165989D2*X98831Y163449D1*X97561Y162179D2*X97561Y162814D1*X95656Y164719*X91211Y164719*X90576Y164084*X90576Y162814*X91846Y161544*X88036Y159004D2*X86766Y161544D1*X86766Y163449D2*X89306Y165989D1*X89306Y168529*X90576Y169799*X88036Y172339*X84226Y172974D2*X83591Y172974D1*X82956Y172339*X82956Y169799*X84226Y168529*X84226Y165989D2*X84226Y163449D1*X80416Y163449D2*X80416Y165989D1*X80416Y168529D2*X79146Y169799D1*X79146Y171069*X73431Y165989D2*X73431Y163449D1*X72161Y162179D2*X72161Y163449D1*X70891Y164719*X65811Y164719*X65176Y164084*X65176Y162814*X66446Y161544*X62636Y159004D2*X61366Y161544D1*X61366Y163449D2*X63906Y165989D1*X63906Y168529*X65176Y169799*X62636Y172339*X58826Y172974D2*X58191Y172974D1*X57556Y172339*X57556Y169799*X58826Y168529*X58826Y165989D2*X58826Y163449D1*X55016Y163449D2*X55016Y165989D1*X55016Y168529D2*X53746Y169799D1*X53746Y171069*X48031Y165989D2*X48031Y163449D1*X46761Y162179D2*X46761Y163449D1*X45491Y164719*X40411Y164719*X39776Y164084*X39776Y162814*X41046Y161544*X37236Y159004D2*X35966Y161544D1*X35966Y163449D2*X38506Y165989D1*X38506Y168529*X39776Y169799*X37236Y172339*X33426Y172974D2*X32791Y172974D1*X32156Y172339*X32156Y169799*X33426Y168529*X33426Y165989D2*X33426Y163449D1*X29616Y163449D2*X29616Y165989D1*X29616Y168529D2*X28346Y169799D1*X28346Y171069*X22631Y165989D2*X22631Y163449D1*X21361Y162179D2*X21361Y162814D1*X19456Y164719*X15011Y164719*X14376Y164084*X14376Y162179*X15011Y161544*X15646Y161544*X11836Y159004D2*X10566Y161544D1*X10566Y163449D2*X13106Y165989D1*X13106Y168529*X14376Y169799*X11836Y172339*X8026Y172974D2*X7391Y172974D1*X6756Y172339*X6756Y169799*X8026Y168529*X8026Y165989D2*X8026Y163449D1*X4216Y163449D2*X4216Y165989D1*X4216Y168529D2*X2946Y169799D1*X2946Y171069*X15646Y171069D2*X18186Y171069D1*X17551Y170434*X17551Y167259*X18821Y168529D2*X18821Y169164D1*X19456Y169799*X19456Y171704*X18186Y172974*X17551Y172974*X11836Y184404D2*X10566Y186944D1*X9296Y190119D2*X11836Y192659D1*X8026Y191389D2*X8026Y188849D1*X4216Y188849D2*X4216Y191389D1*X14376Y189484D2*X14376Y188214D1*X15646Y186944*X14376Y189484D2*X15011Y190119D1*X19456Y190119*X21361Y188214*X21361Y187579*X22631Y188849D2*X22631Y191389D1*X18821Y193929D2*X18821Y194564D1*X19456Y195199*X19456Y197104*X18186Y198374*X15646Y196469D2*X18186Y196469D1*X18186Y195199*X17551Y194564*X17551Y192659*X29616Y191389D2*X29616Y188849D1*X33426Y188849D2*X33426Y191389D1*X42951Y172974D2*X43586Y172974D1*X44856Y171704*X44856Y169164*X44221Y168529*X42951Y167259D2*X42951Y170434D1*X43586Y171069*X41046Y171069*X55016Y188849D2*X55016Y191389D1*X58826Y191389D2*X58826Y188849D1*X60096Y190119D2*X62636Y192659D1*X65176Y189484D2*X65176Y188214D1*X66446Y186944*X65176Y189484D2*X65811Y190119D1*X70891Y190119*X72161Y188849*X72161Y187579*X73431Y188849D2*X73431Y191389D1*X70256Y194564D2*X70256Y197104D1*X68986Y198374*X68351Y198374*X66446Y196469D2*X68986Y196469D1*X68351Y195834*X68351Y192659*X69621Y193929D2*X70256Y194564D1*X61366Y186944D2*X62636Y184404D1*X68351Y172974D2*X68986Y172974D1*X70256Y171704*X70256Y169164*X69621Y168529*X68351Y167259D2*X68351Y170434D1*X68986Y171069*X66446Y171069*X80416Y188849D2*X80416Y191389D1*X84226Y191389D2*X84226Y188849D1*X85496Y190119D2*X88036Y192659D1*X90576Y189484D2*X91211Y190119D1*X95656Y190119*X97561Y188214*X97561Y187579*X98831Y188849D2*X98831Y191389D1*X95021Y193929D2*X95021Y194564D1*X95656Y195199*X95656Y197104*X94386Y198374*X93751Y198374*X94386Y196469D2*X91846Y196469D1*X93751Y192659D2*X93751Y195834D1*X94386Y196469*X90576Y189484D2*X90576Y188214D1*X91846Y186944*X88036Y184404D2*X88036Y185674D1*X86766Y186944*X93751Y172974D2*X94386Y172974D1*X95656Y171704*X95656Y169164*X95021Y168529*X93751Y167259D2*X93751Y170434D1*X94386Y171069*X91846Y171069*X110896Y190119D2*X113436Y192659D1*X114706Y193929D2*X115976Y195199D1*X113436Y197739*X109626Y198374D2*X108991Y198374D1*X108356Y197739*X108356Y195199*X109626Y193929*X105816Y193929D2*X104546Y195199D1*X104546Y196469*X112166Y188849D2*X114706Y191389D1*X114706Y193929*X117246Y196469D2*X119786Y196469D1*X119151Y195834*X119151Y192659*X120421Y193929D2*X120421Y194564D1*X121056Y195199*X121056Y197104*X119786Y198374*X119151Y198374*X124231Y191389D2*X124231Y188849D1*X122961Y187579D2*X122961Y188849D1*X121691Y190119*X116611Y190119*X115976Y189484*X115976Y188214*X117246Y186944*X113436Y184404D2*X113436Y185674D1*X112166Y186944*X119151Y172974D2*X119786Y172974D1*X121056Y171704*X121056Y169799*X120421Y169164*X120421Y168529*X119151Y167259D2*X119151Y170434D1*X119786Y171069*X117246Y171069*X124231Y165989D2*X124231Y163449D1*X131216Y163449D2*X131216Y165989D1*X131216Y168529D2*X129946Y169799D1*X129946Y171069*X135026Y168529D2*X133756Y169799D1*X133756Y172339*X134391Y172974*X135026Y172974*X135026Y165989D2*X135026Y163449D1*X141376Y162814D2*X142646Y161544D1*X144551Y147574D2*X145186Y147574D1*X146456Y146304*X146456Y144399*X145821Y143764*X145821Y143129*X144551Y141859D2*X144551Y145034D1*X145186Y145669*X142646Y145669*X131216Y143129D2*X129946Y144399D1*X129946Y145669*X129946Y141859D2*X129311Y141859D1*X128676Y141224*X121056Y144399D2*X120421Y143764D1*X120421Y143129*X121056Y144399D2*X121056Y146304D1*X119786Y147574*X119151Y147574*X119786Y145669D2*X117246Y145669D1*X119151Y141859D2*X119151Y145034D1*X119786Y145669*X115976Y137414D2*X117246Y136144D1*X117881Y129794D2*X116611Y128524D1*X116611Y124714*X118516Y122809*X118516Y118999*X117881Y118364*X117881Y116459*X114706Y113284*X114706Y103759*X115341Y103124*X120421Y103124*X119151Y104394D2*X120421Y105664D1*X122326Y105664*X122961Y111379D2*X122961Y112014D1*X121056Y113919*X116611Y113919*X115976Y113284*X115976Y112014*X117246Y110744*X113436Y108204D2*X113436Y109474D1*X112166Y110744*X112166Y112649D2*X114706Y115189D1*X114706Y117729*X115976Y118999*X113436Y121539*X109626Y122174D2*X108991Y122174D1*X108356Y121539*X108356Y118999*X109626Y117729*X109626Y115189D2*X109626Y112649D1*X105816Y112649D2*X105816Y115189D1*X105816Y117729D2*X104546Y118999D1*X104546Y120269*X98831Y115189D2*X98831Y112649D1*X97561Y111379D2*X97561Y112014D1*X95656Y113919*X91211Y113919*X90576Y113284*X90576Y112014*X91846Y110744*X88036Y108204D2*X86766Y110744D1*X86766Y112649D2*X89306Y115189D1*X89306Y117729*X90576Y118999*X88036Y121539*X84226Y122174D2*X83591Y122174D1*X82956Y121539*X82956Y118999*X84226Y117729*X84226Y115189D2*X84226Y112649D1*X80416Y112649D2*X80416Y115189D1*X80416Y117729D2*X79146Y118999D1*X79146Y120269*X73431Y115189D2*X73431Y112649D1*X72161Y111379D2*X72161Y112014D1*X70256Y113919*X65811Y113919*X65176Y113284*X65176Y112014*X66446Y110744*X62636Y108204D2*X61366Y110744D1*X61366Y112649D2*X63906Y115189D1*X63906Y117729*X65176Y118999*X62636Y121539*X58826Y122174D2*X58191Y122174D1*X57556Y121539*X57556Y118999*X58826Y117729*X58826Y115189D2*X58826Y112649D1*X55016Y112649D2*X55016Y115189D1*X55016Y117729D2*X53746Y118999D1*X53746Y120269*X48031Y115189D2*X48031Y112649D1*X46761Y111379D2*X46761Y112014D1*X44856Y113919*X40411Y113919*X39776Y113284*X39776Y112014*X41046Y110744*X37236Y108204D2*X35966Y110744D1*X35966Y112649D2*X38506Y115189D1*X38506Y117729*X39776Y118999*X37236Y121539*X33426Y122174D2*X32791Y122174D1*X32156Y121539*X32156Y118999*X33426Y117729*X33426Y115189D2*X33426Y112649D1*X29616Y112649D2*X29616Y115189D1*X29616Y117729D2*X28346Y118999D1*X28346Y120269*X22631Y115189D2*X22631Y112649D1*X21361Y111379D2*X21361Y112014D1*X19456Y113919*X15011Y113919*X14376Y113284*X14376Y112014*X15646Y110744*X11836Y108204D2*X10566Y110744D1*X10566Y112649D2*X13106Y115189D1*X13106Y117729*X14376Y118999*X11836Y121539*X8026Y122174D2*X7391Y122174D1*X6756Y121539*X6756Y118999*X8026Y117729*X8026Y115189D2*X8026Y112649D1*X4216Y112649D2*X4216Y115189D1*X4216Y117729D2*X2946Y118999D1*X2946Y120269*X15646Y120269D2*X18186Y120269D1*X17551Y119634*X17551Y116459*X18821Y117729D2*X19456Y118364D1*X19456Y120904*X18186Y122174*X17551Y122174*X11836Y133604D2*X10566Y136144D1*X10566Y138049D2*X13106Y140589D1*X13106Y143129*X14376Y144399*X11836Y146939*X8026Y147574D2*X7391Y147574D1*X6756Y146939*X6756Y144399*X8026Y143129*X8026Y140589D2*X8026Y138049D1*X4216Y138049D2*X4216Y140589D1*X4216Y143129D2*X2946Y144399D1*X2946Y145669*X15646Y145669D2*X18186Y145669D1*X17551Y145034*X17551Y141859*X18821Y143129D2*X19456Y143764D1*X19456Y146304*X18186Y147574*X17551Y147574*X22631Y140589D2*X22631Y138049D1*X21361Y136779D2*X21361Y137414D1*X19456Y139319*X15011Y139319*X14376Y138684*X14376Y137414*X15646Y136144*X29616Y143129D2*X28346Y144399D1*X28346Y145669*X33426Y143129D2*X32156Y144399D1*X32156Y146939*X32791Y147574*X33426Y147574*X37236Y146939D2*X39776Y144399D1*X38506Y143129*X38506Y140589*X35966Y138049*X35966Y136144D2*X37236Y133604D1*X39776Y137414D2*X39776Y138684D1*X40411Y139319*X44856Y139319*X46761Y137414*X46761Y136779*X48031Y138049D2*X48031Y140589D1*X44856Y143764D2*X44856Y146304D1*X43586Y147574*X42951Y147574*X43586Y145669D2*X41046Y145669D1*X42951Y145034D2*X42951Y141859D1*X44221Y143129D2*X44856Y143764D1*X43586Y145669D2*X42951Y145034D1*X39776Y137414D2*X41046Y136144D1*X33426Y138049D2*X33426Y140589D1*X29616Y140589D2*X29616Y138049D1*X42951Y122174D2*X43586Y122174D1*X44856Y120904*X44856Y118364*X44221Y117729*X42951Y116459D2*X42951Y119634D1*X43586Y120269*X41046Y120269*X55016Y138049D2*X55016Y140589D1*X55016Y143129D2*X53746Y144399D1*X53746Y145669*X58826Y143129D2*X57556Y144399D1*X57556Y146939*X58191Y147574*X58826Y147574*X62636Y146939D2*X65176Y144399D1*X63906Y143129*X63906Y140589*X61366Y138049*X61366Y136144D2*X62636Y133604D1*X65176Y137414D2*X65176Y138684D1*X65811Y139319*X70256Y139319*X72161Y137414*X72161Y136779*X73431Y138049D2*X73431Y140589D1*X70256Y143764D2*X70256Y146304D1*X68986Y147574*X68351Y147574*X68986Y145669D2*X66446Y145669D1*X68351Y145034D2*X68351Y141859D1*X69621Y143129D2*X70256Y143764D1*X68986Y145669D2*X68351Y145034D1*X65176Y137414D2*X66446Y136144D1*X58826Y138049D2*X58826Y140589D1*X68986Y122174D2*X70256Y120904D1*X70256Y118364*X69621Y117729*X68351Y116459D2*X68351Y119634D1*X68986Y120269*X66446Y120269*X79146Y129159D2*X79146Y131699D1*X80416Y127889D2*X84226Y127889D1*X86766Y131699D2*X88036Y129794D1*X91211Y129794*X88036Y133604D2*X86766Y136144D1*X86766Y138049D2*X89306Y140589D1*X89306Y143129*X90576Y144399*X88036Y146939*X84226Y147574D2*X83591Y147574D1*X82956Y146939*X82956Y144399*X84226Y143129*X84226Y140589D2*X84226Y138049D1*X80416Y138049D2*X80416Y140589D1*X80416Y143129D2*X79146Y144399D1*X79146Y145669*X90576Y138684D2*X90576Y137414D1*X91846Y136144*X90576Y138684D2*X91211Y139319D1*X95656Y139319*X97561Y137414*X97561Y136779*X98831Y138049D2*X98831Y140589D1*X95656Y143129D2*X96291Y143764D1*X96291Y145669*X94386Y147574*X93751Y147574*X94386Y145669D2*X91846Y145669D1*X93751Y145034D2*X93751Y141859D1*X95021Y143129D2*X95656Y143129D1*X93751Y145034D2*X94386Y145669D1*X104546Y145669D2*X104546Y144399D1*X105816Y143129*X105816Y140589D2*X105816Y138049D1*X109626Y138049D2*X109626Y140589D1*X119786Y122174D2*X121056Y120904D1*X121056Y118999*X120421Y118364*X120421Y117729*X119151Y116459D2*X119151Y119634D1*X119786Y119634*X119786Y120269*X124231Y115189D2*X124231Y112649D1*X131216Y112649D2*X131216Y115189D1*X131216Y117729D2*X129946Y118999D1*X129946Y120269*X135026Y117729D2*X133756Y118999D1*X133756Y121539*X134391Y122174*X135026Y122174*X132486Y125349D2*X131851Y125984D1*X131851Y131064*X132486Y125349D2*X132486Y106934D1*X133756Y105664*X133756Y104394*X138836Y108204D2*X137566Y110744D1*X137566Y112649D2*X140106Y115189D1*X140106Y117729*X141376Y118999*X138836Y121539*X142646Y120269D2*X145186Y120269D1*X144551Y119634*X144551Y116459*X145821Y117729D2*X145821Y118364D1*X146456Y118999*X146456Y120904*X145186Y122174*X144551Y122174*X142011Y113919D2*X147091Y113919D1*X148361Y112649*X148361Y111379*X149631Y112649D2*X149631Y115189D1*X142646Y110744D2*X141376Y112014D1*X141376Y113284*X142011Y113919*X135026Y115189D2*X135026Y112649D1*X135026Y96774D2*X134391Y96774D1*X133756Y96139*X133756Y93599*X135026Y92329*X135026Y89789D2*X135026Y87249D1*X131216Y87249D2*X131216Y89789D1*X131216Y92329D2*X129946Y93599D1*X129946Y94869*X124231Y89789D2*X124231Y87249D1*X122961Y85979D2*X122961Y86614D1*X121056Y88519*X116611Y88519*X115976Y87884*X115976Y86614*X117246Y85344*X113436Y82804D2*X112166Y85344D1*X112166Y87249D2*X114706Y89789D1*X114706Y92329*X115976Y93599*X113436Y96139*X109626Y96774D2*X108991Y96774D1*X108356Y96139*X108356Y93599*X109626Y92329*X109626Y89789D2*X109626Y87249D1*X105816Y87249D2*X105816Y89789D1*X105816Y92329D2*X104546Y93599D1*X104546Y94869*X98831Y89789D2*X98831Y87249D1*X97561Y86614D2*X95656Y88519D1*X91211Y88519*X90576Y87884*X90576Y86614*X91846Y85344*X88036Y82804D2*X86766Y85344D1*X86766Y87249D2*X89306Y89789D1*X89306Y92329*X90576Y93599*X88036Y96139*X84226Y96774D2*X83591Y96774D1*X82956Y96139*X82956Y93599*X84226Y92329*X84226Y89789D2*X84226Y87249D1*X80416Y87249D2*X80416Y89789D1*X80416Y92329D2*X79146Y93599D1*X79146Y94869*X73431Y89789D2*X73431Y87249D1*X68351Y91059D2*X68351Y94234D1*X68986Y94869*X66446Y94869*X68351Y96774D2*X68986Y96774D1*X70256Y95504*X70256Y92964*X69621Y92329*X84226Y80772D2*X82956Y79502D1*X82956Y78359*X77241Y70739D2*X75971Y69469D1*X75971Y58674*X71526Y54229*X71526Y53594*X74066Y51054D2*X75971Y49149D1*X80416Y61849D2*X80416Y64389D1*X84226Y64389D2*X84226Y61849D1*X91846Y69469D2*X94386Y69469D1*X93751Y68834*X93751Y65659*X95021Y66929D2*X95021Y67564D1*X95656Y68199*X95656Y70104*X94386Y71374*X95656Y77089D2*X91846Y77089D1*X94386Y78359D2*X94386Y78994D1*X92481Y80899*X94386Y78359D2*X97561Y78359D1*X98831Y79629*X97561Y85979D2*X97561Y86614D1*X93751Y91059D2*X93751Y94234D1*X94386Y94869*X91846Y94869*X93751Y96774D2*X94386Y96774D1*X95656Y95504*X95656Y92964*X95021Y92329*X117246Y94869D2*X119786Y94869D1*X119151Y94234*X119151Y91059*X120421Y92329D2*X121056Y92964D1*X121056Y95504*X119786Y96774*X119151Y96774*X141376Y86614D2*X142646Y85344D1*X95021Y117729D2*X95656Y118364D1*X95656Y120904*X94386Y122174*X93751Y122174*X94386Y120269D2*X91846Y120269D1*X93751Y116459D2*X93751Y119634D1*X94386Y120269*X131216Y188849D2*X131216Y191389D1*X135026Y191389D2*X135026Y188849D1*X182016Y193929D2*X180746Y195199D1*X180746Y196469*X4216Y13589D2*X4216Y11049D1*X195986Y147574D2*X195351Y147574D1*X18186Y198374D2*X17551Y198374D1*D10*X155981Y181864D3*X155981Y176784D3*X137566Y85344D3*X137566Y87249D3*X142646Y87249D3*X142646Y85344D3*X141376Y82804D3*X138836Y82804D3*X138201Y79629D3*X55016Y4699D3*X60096Y4699D3*X61366Y11049D3*X61366Y9144D3*X62636Y6604D3*X65176Y6604D3*X66446Y9144D3*X66446Y11049D3*X119786Y20574D3*X119786Y18669D3*X109626Y18669D3*X109626Y20574D3*X104546Y20574D3*X104546Y18669D3*X99466Y18669D3*X99466Y20574D3*X94386Y20574D3*X94386Y18669D3*X84226Y18669D3*X84226Y20574D3*X72796Y30099D3*X72796Y25019D3*X68986Y20574D3*X68986Y18669D3*X74066Y18669D3*X74066Y20574D3*X79146Y20574D3*X79146Y18669D3*X80416Y4699D3*X85496Y4699D3*X86766Y11049D3*X86766Y9144D3*X88036Y6604D3*X90576Y6604D3*X91846Y11049D3*X91846Y9144D3*X105816Y4699D3*X110896Y4699D3*X112166Y11049D3*X112166Y9144D3*X113436Y6604D3*X115976Y6604D3*X117246Y11049D3*X117246Y9144D3*X120421Y4699D3*X125501Y4699D3*X131216Y4699D3*X136296Y4699D3*X182016Y4699D3*X187096Y4699D3*X201066Y18669D3*X201066Y20574D3*X195986Y20574D3*X195986Y18669D3*X193446Y11049D3*X193446Y9144D3*X192176Y6604D3*X189636Y6604D3*X188366Y9144D3*X188366Y11049D3*X185826Y18669D3*X185826Y20574D3*X180746Y20574D3*X180746Y18669D3*X175666Y18669D3*X175666Y20574D3*X170586Y20574D3*X170586Y18669D3*X156616Y4699D3*X161696Y4699D3*X168046Y11049D3*X168046Y9144D3*X166776Y6604D3*X164236Y6604D3*X162966Y9144D3*X162966Y11049D3*X160426Y18669D3*X160426Y20574D3*X155346Y20574D3*X155346Y18669D3*X150266Y18669D3*X150266Y20574D3*X145186Y20574D3*X145186Y18669D3*X142646Y11049D3*X142646Y9144D3*X141376Y6604D3*X138836Y6604D3*X137566Y9144D3*X137566Y11049D3*X135026Y18669D3*X135026Y20574D3*X129946Y20574D3*X129946Y18669D3*X124866Y18669D3*X124866Y20574D3*X126136Y24384D3*X126136Y29464D3*X117246Y36449D3*X117246Y34544D3*X115976Y32004D3*X113436Y32004D3*X112166Y34544D3*X112166Y36449D3*X91846Y61849D3*X91846Y59944D3*X90576Y57404D3*X88036Y57404D3*X86766Y59944D3*X86766Y61849D3*X2946Y145669D3*X2946Y147574D3*X11836Y159004D3*X10566Y161544D3*X10566Y163449D3*X8026Y172974D3*X8026Y171069D3*X2946Y171069D3*X2946Y172974D3*X2946Y196469D3*X2946Y198374D3*X8026Y198374D3*X8026Y196469D3*X10566Y188849D3*X10566Y186944D3*X11836Y184404D3*X23266Y183134D3*X18186Y183134D3*X14376Y184404D3*X15646Y186944D3*X15646Y188849D3*X18186Y196469D3*X18186Y198374D3*X23266Y198374D3*X23266Y196469D3*X28346Y196469D3*X28346Y198374D3*X33426Y198374D3*X33426Y196469D3*X35966Y188849D3*X35966Y186944D3*X37236Y184404D3*X39776Y184404D3*X41046Y186944D3*X41046Y188849D3*X43586Y196469D3*X43586Y198374D3*X48666Y198374D3*X48666Y196469D3*X53746Y196469D3*X53746Y198374D3*X58826Y198374D3*X58826Y196469D3*X61366Y188849D3*X61366Y186944D3*X62636Y184404D3*X65176Y184404D3*X66446Y186944D3*X66446Y188849D3*X68986Y196469D3*X68986Y198374D3*X74066Y198374D3*X74066Y196469D3*X79146Y196469D3*X79146Y198374D3*X84226Y198374D3*X84226Y196469D3*X86766Y188849D3*X86766Y186944D3*X88036Y184404D3*X90576Y184404D3*X91846Y186944D3*X91846Y188849D3*X94386Y196469D3*X94386Y198374D3*X99466Y198374D3*X99466Y196469D3*X104546Y196469D3*X104546Y198374D3*X109626Y198374D3*X109626Y196469D3*X124866Y172974D3*X124866Y171069D3*X129946Y171069D3*X129946Y172974D3*X135026Y172974D3*X135026Y171069D3*X137566Y163449D3*X137566Y161544D3*X138836Y159004D3*X141376Y159004D3*X142646Y161544D3*X142646Y163449D3*X145186Y171069D3*X145186Y172974D3*X150266Y172974D3*X150266Y171069D3*X155346Y171069D3*X155346Y172974D3*X160426Y172974D3*X160426Y171069D3*X162966Y163449D3*X162966Y161544D3*X164236Y159004D3*X166776Y159004D3*X168046Y161544D3*X168046Y163449D3*X170586Y171069D3*X170586Y172974D3*X175666Y172974D3*X175666Y171069D3*X180746Y171069D3*X180746Y172974D3*X185826Y172974D3*X185826Y171069D3*X188366Y163449D3*X188366Y161544D3*X189636Y159004D3*X192176Y159004D3*X193446Y161544D3*X193446Y163449D3*X195986Y172974D3*X195986Y171069D3*X201066Y171069D3*X201066Y172974D3*X201066Y196469D3*X201066Y198374D3*X195986Y198374D3*X195986Y196469D3*X193446Y188849D3*X193446Y186944D3*X192176Y184404D3*X189636Y184404D3*X188366Y186944D3*X188366Y188849D3*X185826Y196469D3*X185826Y198374D3*X180746Y198374D3*X180746Y196469D3*X175666Y196469D3*X175666Y198374D3*X170586Y198374D3*X170586Y196469D3*X168046Y188849D3*X168046Y186944D3*X166776Y184404D3*X164236Y184404D3*X162966Y186944D3*X162966Y188849D3*X160426Y196469D3*X160426Y198374D3*X155346Y198374D3*X155346Y196469D3*X150266Y196469D3*X150266Y198374D3*X145186Y198374D3*X145186Y196469D3*X142646Y188849D3*X142646Y186944D3*X141376Y184404D3*X138836Y184404D3*X137566Y186944D3*X137566Y188849D3*X135026Y196469D3*X135026Y198374D3*X129946Y198374D3*X129946Y196469D3*X124866Y196469D3*X124866Y198374D3*X119786Y198374D3*X119786Y196469D3*X117246Y186944D3*X117246Y188849D3*X112166Y188849D3*X112166Y186944D3*X113436Y184404D3*X115976Y184404D3*X119786Y181864D3*X119786Y176784D3*X119786Y172974D3*X119786Y171069D3*X98196Y154559D3*X95656Y154559D3*X74066Y131699D3*X79146Y131699D3*X86766Y126619D3*X84226Y120269D3*X84226Y122174D3*X79146Y122174D3*X79146Y120269D3*X74066Y120269D3*X74066Y122174D3*X68986Y122174D3*X68986Y120269D3*X66446Y112649D3*X66446Y110744D3*X65176Y108204D3*X62636Y108204D3*X61366Y110744D3*X61366Y112649D3*X58826Y120269D3*X58826Y122174D3*X53746Y122174D3*X53746Y120269D3*X48666Y120269D3*X48666Y122174D3*X41681Y125349D3*X43586Y122174D3*X43586Y120269D3*X41046Y112649D3*X41046Y110744D3*X39776Y108204D3*X37236Y108204D3*X35966Y110744D3*X35966Y112649D3*X18186Y122174D3*X18186Y120269D3*X23266Y120269D3*X23266Y122174D3*X28346Y122174D3*X28346Y120269D3*X33426Y120269D3*X33426Y122174D3*X36601Y125349D3*X33426Y132334D3*X28346Y132334D3*X18186Y145669D3*X18186Y147574D3*X18186Y150749D3*X11201Y152019D3*X6121Y152019D3*X8026Y147574D3*X8026Y145669D3*X10566Y136144D3*X10566Y138049D3*X15646Y138049D3*X15646Y136144D3*X14376Y133604D3*X11836Y133604D3*X11836Y127889D3*X6756Y127889D3*X2946Y120269D3*X2946Y122174D3*X8026Y122174D3*X8026Y120269D3*X11836Y108204D3*X10566Y110744D3*X10566Y112649D3*X15646Y112649D3*X15646Y110744D3*X14376Y108204D3*X18186Y106934D3*X23266Y106934D3*X28346Y69469D3*X28346Y71374D3*X33426Y71374D3*X33426Y69469D3*X35966Y61849D3*X35966Y59944D3*X37236Y57404D3*X39776Y57404D3*X41046Y59944D3*X41046Y61849D3*X55651Y76454D3*X50571Y76454D3*X43586Y69469D3*X43586Y71374D3*X48666Y71374D3*X48666Y69469D3*X53746Y69469D3*X53746Y71374D3*X58826Y71374D3*X58826Y69469D3*X62636Y57404D3*X61366Y59944D3*X61366Y61849D3*X66446Y61849D3*X66446Y59944D3*X65176Y57404D3*X68986Y44069D3*X68986Y45974D3*X74066Y45974D3*X74066Y44069D3*X79146Y44069D3*X79146Y45974D3*X84226Y45974D3*X84226Y44069D3*X86766Y36449D3*X86766Y34544D3*X88036Y32004D3*X90576Y32004D3*X91846Y34544D3*X91846Y36449D3*X94386Y45974D3*X94386Y44069D3*X99466Y44069D3*X99466Y45974D3*X107086Y49784D3*X104546Y45974D3*X104546Y44069D3*X109626Y44069D3*X109626Y45974D3*X112166Y49784D3*X119786Y44069D3*X119786Y45974D3*X126771Y49149D3*X124866Y45974D3*X124866Y44069D3*X129946Y44069D3*X129946Y45974D3*X131851Y49149D3*X135026Y45974D3*X135026Y44069D3*X137566Y36449D3*X137566Y34544D3*X138836Y32004D3*X141376Y32004D3*X142646Y34544D3*X142646Y36449D3*X145186Y44069D3*X145186Y45974D3*X150266Y45974D3*X150266Y44069D3*X155346Y44069D3*X155346Y45974D3*X160426Y45974D3*X160426Y44069D3*X162966Y36449D3*X162966Y34544D3*X164236Y32004D3*X166776Y32004D3*X168046Y34544D3*X168046Y36449D3*X170586Y44069D3*X170586Y45974D3*X175666Y45974D3*X175666Y44069D3*X180746Y44069D3*X180746Y45974D3*X185826Y45974D3*X185826Y44069D3*X188366Y36449D3*X188366Y34544D3*X189636Y32004D3*X192176Y32004D3*X193446Y34544D3*X193446Y36449D3*X201066Y45974D3*X201066Y44069D3*X195986Y44069D3*X195986Y45974D3*X192176Y51689D3*X197256Y51689D3*X201066Y69469D3*X201066Y71374D3*X195986Y71374D3*X195986Y69469D3*X193446Y61849D3*X193446Y59944D3*X192176Y57404D3*X189636Y57404D3*X188366Y59944D3*X188366Y61849D3*X185826Y69469D3*X185826Y71374D3*X180746Y71374D3*X180746Y69469D3*X175666Y69469D3*X175666Y71374D3*X170586Y71374D3*X170586Y69469D3*X168046Y61849D3*X168046Y59944D3*X166776Y57404D3*X164236Y57404D3*X162966Y59944D3*X162966Y61849D3*X160426Y69469D3*X160426Y71374D3*X155346Y71374D3*X155346Y69469D3*X142646Y61849D3*X142646Y59944D3*X141376Y57404D3*X138836Y57404D3*X137566Y59944D3*X137566Y61849D3*X135026Y69469D3*X135026Y71374D3*X138201Y74549D3*X145186Y71374D3*X145186Y69469D3*X150266Y69469D3*X150266Y71374D3*X149631Y74549D3*X149631Y79629D3*X182016Y106299D3*X201066Y94869D3*X201066Y96774D3*X195986Y96774D3*X195986Y94869D3*X193446Y87249D3*X193446Y85344D3*X192176Y82804D3*X189636Y82804D3*X188366Y85344D3*X188366Y87249D3*X185826Y94869D3*X185826Y96774D3*X182016Y101219D3*X180746Y96774D3*X180746Y94869D3*X175666Y94869D3*X175666Y96774D3*X170586Y96774D3*X170586Y94869D3*X168046Y87249D3*X168046Y85344D3*X166776Y82804D3*X164236Y82804D3*X162966Y85344D3*X162966Y87249D3*X160426Y96774D3*X160426Y94869D3*X155346Y94869D3*X155346Y96774D3*X150266Y96774D3*X150266Y94869D3*X145186Y94869D3*X145186Y96774D3*X135026Y122174D3*X135026Y120269D3*X129946Y120269D3*X129946Y122174D3*X124866Y122174D3*X124866Y120269D3*X119786Y120269D3*X119786Y122174D3*X117246Y138049D3*X117246Y136144D3*X115976Y133604D3*X113436Y133604D3*X112166Y136144D3*X112166Y138049D3*X109626Y145669D3*X109626Y147574D3*X104546Y147574D3*X104546Y145669D3*X99466Y145669D3*X99466Y147574D3*X94386Y147574D3*X94386Y145669D3*X91846Y138049D3*X91846Y136144D3*X90576Y133604D3*X86766Y131699D3*X88036Y133604D3*X86766Y136144D3*X86766Y138049D3*X84226Y145669D3*X84226Y147574D3*X79146Y147574D3*X79146Y145669D3*X74066Y145669D3*X74066Y147574D3*X68986Y147574D3*X68986Y145669D3*X66446Y138049D3*X66446Y136144D3*X65176Y133604D3*X62636Y133604D3*X61366Y136144D3*X61366Y138049D3*X58826Y145669D3*X58826Y147574D3*X53746Y147574D3*X53746Y145669D3*X48666Y145669D3*X48666Y147574D3*X43586Y147574D3*X43586Y145669D3*X41046Y138049D3*X41046Y136144D3*X39776Y133604D3*X37236Y133604D3*X35966Y136144D3*X35966Y138049D3*X33426Y145669D3*X33426Y147574D3*X28346Y147574D3*X28346Y145669D3*X23266Y145669D3*X23266Y147574D3*X23266Y150749D3*X23266Y157734D3*X18186Y157734D3*X14376Y159004D3*X15646Y161544D3*X15646Y163449D3*X18186Y171069D3*X18186Y172974D3*X18186Y176149D3*X23266Y176149D3*X23266Y172974D3*X23266Y171069D3*X28346Y171069D3*X28346Y172974D3*X33426Y172974D3*X33426Y171069D3*X35966Y163449D3*X35966Y161544D3*X37236Y159004D3*X39776Y159004D3*X41046Y161544D3*X41046Y163449D3*X43586Y171069D3*X43586Y172974D3*X48666Y172974D3*X48666Y171069D3*X53746Y171069D3*X53746Y172974D3*X58826Y172974D3*X58826Y171069D3*X61366Y163449D3*X61366Y161544D3*X62636Y159004D3*X65176Y159004D3*X66446Y161544D3*X66446Y163449D3*X68986Y171069D3*X68986Y172974D3*X74066Y172974D3*X74066Y171069D3*X79146Y171069D3*X79146Y172974D3*X84226Y172974D3*X84226Y171069D3*X86766Y163449D3*X86766Y161544D3*X88036Y159004D3*X90576Y159004D3*X91846Y161544D3*X91846Y163449D3*X94386Y171069D3*X94386Y172974D3*X99466Y172974D3*X99466Y171069D3*X104546Y171069D3*X104546Y172974D3*X109626Y172974D3*X109626Y171069D3*X112166Y161544D3*X112166Y163449D3*X117246Y163449D3*X117246Y161544D3*X115976Y159004D3*X113436Y159004D3*X114071Y156464D3*X114071Y151384D3*X119786Y145669D3*X119786Y147574D3*X124866Y147574D3*X124866Y145669D3*X129946Y145669D3*X129946Y147574D3*X135026Y147574D3*X135026Y145669D3*X137566Y138049D3*X137566Y136144D3*X138836Y133604D3*X141376Y133604D3*X142646Y136144D3*X142646Y138049D3*X145186Y145669D3*X145186Y147574D3*X150266Y147574D3*X150266Y145669D3*X155346Y145669D3*X155346Y147574D3*X160426Y147574D3*X160426Y145669D3*X162966Y138049D3*X162966Y136144D3*X164236Y133604D3*X166776Y133604D3*X168046Y136144D3*X168046Y138049D3*X170586Y145669D3*X170586Y147574D3*X175666Y147574D3*X175666Y145669D3*X180746Y145669D3*X180746Y147574D3*X185826Y147574D3*X185826Y145669D3*X201066Y145669D3*X201066Y147574D3*X195986Y147574D3*X195986Y145669D3*X193446Y136144D3*X193446Y138049D3*X188366Y138049D3*X188366Y136144D3*X189636Y133604D3*X192176Y133604D3*X201066Y120269D3*X201066Y122174D3*X195986Y122174D3*X195986Y120269D3*X193446Y112649D3*X193446Y110744D3*X192176Y108204D3*X189636Y108204D3*X188366Y110744D3*X188366Y112649D3*X185826Y120269D3*X185826Y122174D3*X180746Y122174D3*X180746Y120269D3*X175666Y120269D3*X175666Y122174D3*X170586Y122174D3*X170586Y120269D3*X168046Y112649D3*X168046Y110744D3*X166776Y108204D3*X164236Y108204D3*X162966Y110744D3*X162966Y112649D3*X160426Y120269D3*X160426Y122174D3*X155346Y122174D3*X155346Y120269D3*X150266Y120269D3*X150266Y122174D3*X145186Y122174D3*X145186Y120269D3*X142646Y110744D3*X142646Y112649D3*X137566Y112649D3*X137566Y110744D3*X138836Y108204D3*X141376Y108204D3*X142646Y103759D3*X142646Y101854D3*X137566Y101854D3*X137566Y103759D3*X130581Y105029D3*X130581Y99949D3*X135026Y96774D3*X135026Y94869D3*X129946Y94869D3*X129946Y96774D3*X124866Y96774D3*X124866Y94869D3*X119786Y94869D3*X119786Y96774D3*X122326Y100584D3*X122326Y105664D3*X117246Y112649D3*X117246Y110744D3*X115976Y108204D3*X113436Y108204D3*X112166Y110744D3*X112166Y112649D3*X109626Y120269D3*X109626Y122174D3*X104546Y122174D3*X104546Y120269D3*X99466Y120269D3*X99466Y122174D3*X94386Y122174D3*X94386Y120269D3*X91846Y110744D3*X91846Y112649D3*X86766Y112649D3*X86766Y110744D3*X88036Y108204D3*X90576Y108204D3*X91846Y85344D3*X91846Y87249D3*X94386Y94869D3*X94386Y96774D3*X99466Y96774D3*X99466Y94869D3*X104546Y94869D3*X104546Y96774D3*X109626Y96774D3*X109626Y94869D3*X112166Y87249D3*X112166Y85344D3*X113436Y82804D3*X115976Y82804D3*X117246Y87249D3*X117246Y85344D3*X124231Y80264D3*X124231Y75184D3*X129946Y71374D3*X129946Y69469D3*X124866Y69469D3*X124866Y71374D3*X119786Y71374D3*X119786Y69469D3*X117246Y61849D3*X117246Y59944D3*X115976Y57404D3*X113436Y57404D3*X112166Y59944D3*X112166Y61849D3*X109626Y71374D3*X109626Y69469D3*X104546Y69469D3*X104546Y71374D3*X99466Y71374D3*X99466Y69469D3*X94386Y69469D3*X94386Y71374D3*X91846Y77089D3*X92481Y80899D3*X90576Y82804D3*X79146Y80772D3*X75336Y75184D3*X74701Y77724D3*X69621Y77724D3*X70256Y75184D3*X68986Y71374D3*X68986Y69469D3*X74066Y69469D3*X74066Y71374D3*X79146Y71374D3*X79146Y69469D3*X84226Y69469D3*X84226Y71374D3*X86766Y77089D3*X84226Y80772D3*X87401Y80899D3*X88036Y82804D3*X86766Y85344D3*X86766Y87249D3*X84226Y94869D3*X84226Y96774D3*X79146Y96774D3*X79146Y94869D3*X74066Y94869D3*X74066Y96774D3*X68986Y96774D3*X68986Y94869D3*X66446Y87249D3*X66446Y85344D3*X65176Y82804D3*X62636Y82804D3*X61366Y85344D3*X61366Y87249D3*X58826Y94869D3*X58826Y96774D3*X53746Y96774D3*X53746Y94869D3*X48666Y94869D3*X48666Y96774D3*X43586Y96774D3*X43586Y94869D3*X41046Y87249D3*X41046Y85344D3*X39776Y82804D3*X37236Y82804D3*X35966Y85344D3*X35966Y87249D3*X33426Y94869D3*X33426Y96774D3*X28346Y96774D3*X28346Y94869D3*X23266Y94869D3*X23266Y96774D3*X23266Y99949D3*X18186Y99949D3*X18186Y96774D3*X18186Y94869D3*X2946Y94869D3*X2946Y96774D3*X8026Y96774D3*X8026Y94869D3*X10566Y85344D3*X10566Y87249D3*X15646Y87249D3*X15646Y85344D3*X23266Y81534D3*X24536Y78359D3*X24536Y76454D3*X23266Y74549D3*X23266Y71374D3*X23266Y69469D3*X18186Y69469D3*X18186Y71374D3*X18186Y74549D3*X19456Y76454D3*X19456Y78359D3*X18186Y81534D3*X14376Y82804D3*X11836Y82804D3*X8026Y76454D3*X2946Y76454D3*X2946Y69469D3*X2946Y71374D3*X8026Y71374D3*X8026Y69469D3*X11836Y57404D3*X10566Y59944D3*X10566Y61849D3*X15646Y61849D3*X15646Y59944D3*X14376Y57404D3*X18186Y56134D3*X23266Y56134D3*X28346Y30099D3*X33426Y30099D3*X49936Y30734D3*X43586Y44069D3*X43586Y45974D3*X48666Y45974D3*X48666Y44069D3*X53746Y44069D3*X53746Y45974D3*X58826Y45974D3*X58826Y44069D3*X61366Y34544D3*X61366Y36449D3*X66446Y36449D3*X66446Y34544D3*X65176Y32004D3*X62636Y32004D3*X61366Y28194D3*X56286Y28194D3*X58826Y20574D3*X58826Y18669D3*X53746Y18669D3*X53746Y20574D3*X49936Y25654D3*X48666Y20574D3*X48666Y18669D3*X43586Y18669D3*X43586Y20574D3*X43586Y25654D3*X43586Y30734D3*X41046Y36449D3*X41046Y34544D3*X39776Y32004D3*X37236Y32004D3*X35966Y34544D3*X35966Y36449D3*X33426Y44069D3*X33426Y45974D3*X28346Y45974D3*X28346Y44069D3*X23266Y44069D3*X23266Y45974D3*X23266Y49149D3*X18186Y49149D3*X18186Y45974D3*X18186Y44069D3*X2946Y44069D3*X2946Y45974D3*X8026Y45974D3*X8026Y44069D3*X10566Y34544D3*X10566Y36449D3*X15646Y36449D3*X15646Y34544D3*X14376Y32004D3*X11836Y32004D3*X2946Y20574D3*X2946Y18669D3*X8026Y18669D3*X8026Y20574D3*X11836Y26289D3*X18186Y18669D3*X18186Y20574D3*X16916Y26289D3*X18186Y23749D3*X23266Y23749D3*X23266Y20574D3*X23266Y18669D3*X28346Y18669D3*X28346Y20574D3*X33426Y20574D3*X33426Y18669D3*X35966Y9144D3*X35966Y11049D3*X41046Y11049D3*X41046Y9144D3*X39776Y6604D3*X37236Y6604D3*X34696Y4699D3*X29616Y4699D3*X22631Y4699D3*X17551Y4699D3*X14376Y6604D3*X15646Y9144D3*X15646Y11049D3*X10566Y11049D3*X10566Y9144D3*X11836Y6604D3*D11*X156616Y193929D3*X155346Y192659D3*X156616Y191389D3*X159156Y179959D3*X159156Y177419D3*X160426Y178689D3*X163601Y177419D3*X163601Y179959D3*X164871Y178689D3*X182016Y193929D3*X180746Y192659D3*X182016Y191389D3*X189636Y192659D3*X190906Y191389D3*X192176Y192659D3*X196621Y188849D3*X195351Y187579D3*X196621Y186309D3*X200431Y186309D3*X199161Y187579D3*X200431Y188849D3*X200431Y191389D3*X200431Y193929D3*X199161Y192659D3*X196621Y191389D3*X195351Y192659D3*X196621Y193929D3*X192176Y197739D3*X193446Y196469D3*X192176Y195199D3*X189636Y195199D3*X189636Y197739D3*X188366Y196469D3*X185826Y193929D3*X184556Y192659D3*X185826Y191389D3*X185826Y188849D3*X185826Y186309D3*X184556Y187579D3*X182016Y188849D3*X180746Y187579D3*X182016Y186309D3*X176301Y179959D3*X177571Y178689D3*X176301Y177419D3*X171856Y177419D3*X170586Y178689D3*X171856Y179959D3*X171221Y188849D3*X169951Y187579D3*X171221Y186309D3*X175031Y186309D3*X173761Y187579D3*X175031Y188849D3*X175031Y191389D3*X175031Y193929D3*X173761Y192659D3*X171221Y191389D3*X171221Y193929D3*X169951Y192659D3*X164236Y192659D3*X165506Y191389D3*X166776Y192659D3*X166776Y195199D3*X168046Y196469D3*X166776Y197739D3*X164236Y197739D3*X164236Y195199D3*X162966Y196469D3*X160426Y193929D3*X159156Y192659D3*X160426Y191389D3*X160426Y186309D3*X160426Y188849D3*X159156Y187579D3*X156616Y186309D3*X156616Y188849D3*X155346Y187579D3*X8026Y186309D3*X8026Y188849D3*X6756Y187579D3*X4216Y186309D3*X2946Y187579D3*X4216Y188849D3*X4216Y191389D3*X2946Y192659D3*X4216Y193929D3*X8026Y193929D3*X6756Y192659D3*X8026Y191389D3*X14376Y192659D3*X13106Y191389D3*X11836Y192659D3*X11836Y195199D3*X10566Y196469D3*X11836Y197739D3*X14376Y197739D3*X14376Y195199D3*X15646Y196469D3*X18821Y193929D3*X17551Y192659D3*X18821Y191389D3*X18821Y188849D3*X17551Y187579D3*X18821Y186309D3*X22631Y186309D3*X21361Y187579D3*X22631Y188849D3*X22631Y191389D3*X21361Y192659D3*X22631Y193929D3*X29616Y193929D3*X28346Y192659D3*X29616Y191389D3*X29616Y188849D3*X28346Y187579D3*X29616Y186309D3*X33426Y186309D3*X32156Y187579D3*X33426Y188849D3*X33426Y191389D3*X32156Y192659D3*X33426Y193929D3*X37236Y195199D3*X35966Y196469D3*X37236Y197739D3*X39776Y197739D3*X41046Y196469D3*X39776Y195199D3*X39776Y192659D3*X37236Y192659D3*X38506Y191389D3*X44221Y186309D3*X42951Y187579D3*X44221Y188849D3*X44221Y191389D3*X42951Y192659D3*X44221Y193929D3*X48031Y193929D3*X46761Y192659D3*X48031Y191389D3*X48031Y188849D3*X46761Y187579D3*X48031Y186309D3*X58826Y186309D3*X58826Y188849D3*X57556Y187579D3*X55016Y186309D3*X53746Y187579D3*X55016Y188849D3*X55016Y191389D3*X53746Y192659D3*X55016Y193929D3*X58826Y193929D3*X57556Y192659D3*X58826Y191389D3*X65176Y192659D3*X63906Y191389D3*X62636Y192659D3*X62636Y195199D3*X61366Y196469D3*X62636Y197739D3*X65176Y197739D3*X65176Y195199D3*X66446Y196469D3*X69621Y193929D3*X68351Y192659D3*X69621Y191389D3*X69621Y188849D3*X68351Y187579D3*X69621Y186309D3*X73431Y186309D3*X72161Y187579D3*X73431Y188849D3*X73431Y191389D3*X72161Y192659D3*X73431Y193929D3*X80416Y193929D3*X79146Y192659D3*X80416Y191389D3*X80416Y188849D3*X79146Y187579D3*X80416Y186309D3*X84226Y186309D3*X82956Y187579D3*X84226Y188849D3*X84226Y191389D3*X82956Y192659D3*X84226Y193929D3*X88036Y195199D3*X86766Y196469D3*X88036Y197739D3*X90576Y197739D3*X91846Y196469D3*X90576Y195199D3*X90576Y192659D3*X88036Y192659D3*X89306Y191389D3*X95021Y186309D3*X93751Y187579D3*X95021Y188849D3*X95021Y191389D3*X93751Y192659D3*X95021Y193929D3*X98831Y193929D3*X97561Y192659D3*X98831Y191389D3*X98831Y188849D3*X97561Y187579D3*X98831Y186309D3*X109626Y186309D3*X109626Y188849D3*X108356Y187579D3*X105816Y186309D3*X104546Y187579D3*X105816Y188849D3*X105816Y191389D3*X104546Y192659D3*X105816Y193929D3*X109626Y193929D3*X108356Y192659D3*X109626Y191389D3*X113436Y192659D3*X114706Y191389D3*X115976Y192659D3*X115976Y195199D3*X113436Y195199D3*X112166Y196469D3*X113436Y197739D3*X115976Y197739D3*X117246Y196469D3*X120421Y193929D3*X119151Y192659D3*X120421Y191389D3*X120421Y188849D3*X119151Y187579D3*X120421Y186309D3*X124231Y186309D3*X122961Y187579D3*X124231Y188849D3*X124231Y191389D3*X122961Y192659D3*X124231Y193929D3*X131216Y193929D3*X129946Y192659D3*X131216Y191389D3*X131216Y188849D3*X129946Y187579D3*X131216Y186309D3*X135026Y186309D3*X133756Y187579D3*X135026Y188849D3*X135026Y191389D3*X133756Y192659D3*X135026Y193929D3*X141376Y195199D3*X142646Y196469D3*X141376Y197739D3*X138836Y197739D3*X137566Y196469D3*X138836Y195199D3*X138836Y192659D3*X140106Y191389D3*X141376Y192659D3*X145821Y191389D3*X144551Y192659D3*X145821Y193929D3*X149631Y193929D3*X148361Y192659D3*X149631Y191389D3*X149631Y188849D3*X149631Y186309D3*X148361Y187579D3*X145821Y188849D3*X144551Y187579D3*X145821Y186309D3*X144551Y181229D3*X145821Y179959D3*X144551Y178689D3*X131216Y66929D3*X115976Y49784D3*X114706Y51054D3*X115976Y52324D3*X120421Y52324D3*X119151Y51054D3*X120421Y49784D3*X131216Y16129D3*X182016Y16129D3*X196621Y16129D3*X200431Y16129D3*X199161Y14859D3*X200431Y13589D3*X200431Y8509D3*X200431Y11049D3*X199161Y9779D3*X196621Y8509D3*X195351Y9779D3*X196621Y11049D3*X196621Y13589D3*X195351Y14859D3*X189636Y19939D3*X192176Y19939D3*X193446Y18669D3*X192176Y17399D3*X192176Y14859D3*X190906Y13589D3*X189636Y14859D3*X189636Y17399D3*X188366Y18669D3*X185826Y16129D3*X184556Y14859D3*X185826Y13589D3*X185826Y8509D3*X185826Y11049D3*X184556Y9779D3*X182016Y8509D3*X180746Y9779D3*X182016Y11049D3*X182016Y13589D3*X180746Y14859D3*X171221Y16129D3*X175031Y16129D3*X173761Y14859D3*X175031Y13589D3*X175031Y8509D3*X175031Y11049D3*X173761Y9779D3*X171221Y8509D3*X169951Y9779D3*X171221Y11049D3*X171221Y13589D3*X169951Y14859D3*X166776Y19939D3*X168046Y18669D3*X166776Y17399D3*X166776Y14859D3*X165506Y13589D3*X164236Y14859D3*X164236Y17399D3*X164236Y19939D3*X162966Y18669D3*X160426Y16129D3*X159156Y14859D3*X160426Y13589D3*X160426Y11049D3*X160426Y8509D3*X159156Y9779D3*X156616Y8509D3*X155346Y9779D3*X156616Y11049D3*X156616Y13589D3*X156616Y16129D3*X155346Y14859D3*X149631Y16129D3*X148361Y14859D3*X149631Y13589D3*X149631Y8509D3*X149631Y11049D3*X148361Y9779D3*X145821Y8509D3*X144551Y9779D3*X145821Y11049D3*X145821Y13589D3*X144551Y14859D3*X145821Y16129D3*X145186Y27559D3*X143916Y26289D3*X145186Y25019D3*X148996Y25019D3*X150266Y26289D3*X148996Y27559D3*X174396Y51054D3*X173126Y52324D3*X174396Y53594D3*X176936Y53594D3*X178206Y52324D3*X176936Y51054D3*X182016Y41529D3*X180746Y40259D3*X182016Y38989D3*X189636Y40259D3*X190906Y38989D3*X192176Y40259D3*X196621Y36449D3*X195351Y35179D3*X196621Y33909D3*X200431Y33909D3*X199161Y35179D3*X200431Y36449D3*X200431Y38989D3*X200431Y41529D3*X199161Y40259D3*X196621Y38989D3*X195351Y40259D3*X196621Y41529D3*X192176Y45339D3*X193446Y44069D3*X192176Y42799D3*X189636Y42799D3*X189636Y45339D3*X188366Y44069D3*X185826Y41529D3*X184556Y40259D3*X185826Y38989D3*X185826Y36449D3*X185826Y33909D3*X184556Y35179D3*X182016Y36449D3*X182016Y33909D3*X180746Y35179D3*X171221Y33909D3*X169951Y35179D3*X171221Y36449D3*X171221Y38989D3*X169951Y40259D3*X171221Y41529D3*X175031Y41529D3*X173761Y40259D3*X175031Y38989D3*X175031Y36449D3*X173761Y35179D3*X175031Y33909D3*X176936Y25019D3*X178206Y26289D3*X176936Y27559D3*X174396Y27559D3*X174396Y25019D3*X173126Y26289D3*X169316Y25019D3*X170586Y26289D3*X169316Y27559D3*X165506Y27559D3*X166776Y26289D3*X165506Y25019D3*X159156Y25019D3*X157886Y26289D3*X159156Y27559D3*X160426Y33909D3*X160426Y36449D3*X159156Y35179D3*X156616Y33909D3*X155346Y35179D3*X156616Y36449D3*X156616Y38989D3*X155346Y40259D3*X156616Y41529D3*X160426Y41529D3*X159156Y40259D3*X160426Y38989D3*X164236Y40259D3*X165506Y38989D3*X166776Y40259D3*X166776Y45339D3*X168046Y44069D3*X166776Y42799D3*X164236Y42799D3*X162966Y44069D3*X164236Y45339D3*X163601Y51054D3*X164871Y52324D3*X163601Y53594D3*X159156Y53594D3*X160426Y52324D3*X159156Y51054D3*X156616Y51054D3*X155346Y52324D3*X156616Y53594D3*X145821Y66929D3*X144551Y65659D3*X145821Y64389D3*X145821Y61849D3*X144551Y60579D3*X145821Y59309D3*X149631Y59309D3*X148361Y60579D3*X149631Y61849D3*X149631Y64389D3*X148361Y65659D3*X149631Y66929D3*X156616Y66929D3*X155346Y65659D3*X156616Y64389D3*X156616Y61849D3*X155346Y60579D3*X156616Y59309D3*X160426Y59309D3*X159156Y60579D3*X160426Y61849D3*X160426Y64389D3*X159156Y65659D3*X160426Y66929D3*X182016Y92329D3*X180746Y91059D3*X182016Y89789D3*X189636Y91059D3*X190906Y89789D3*X192176Y91059D3*X196621Y87249D3*X195351Y85979D3*X196621Y84709D3*X200431Y84709D3*X199161Y85979D3*X200431Y87249D3*X200431Y89789D3*X200431Y92329D3*X199161Y91059D3*X196621Y89789D3*X195351Y91059D3*X196621Y92329D3*X192176Y96139D3*X193446Y94869D3*X192176Y93599D3*X189636Y93599D3*X189636Y96139D3*X188366Y94869D3*X185826Y92329D3*X184556Y91059D3*X185826Y89789D3*X185826Y87249D3*X185826Y84709D3*X184556Y85979D3*X182016Y87249D3*X182016Y84709D3*X180746Y85979D3*X171221Y84709D3*X169951Y85979D3*X171221Y87249D3*X171221Y89789D3*X169951Y91059D3*X171221Y92329D3*X175031Y92329D3*X173761Y91059D3*X175031Y89789D3*X175031Y87249D3*X173761Y85979D3*X175031Y84709D3*X176936Y77724D3*X178206Y76454D3*X176936Y75184D3*X182016Y66929D3*X196621Y66929D3*X200431Y66929D3*X199161Y65659D3*X200431Y64389D3*X200431Y59309D3*X200431Y61849D3*X199161Y60579D3*X196621Y59309D3*X195351Y60579D3*X196621Y61849D3*X196621Y64389D3*X195351Y65659D3*X189636Y70739D3*X192176Y70739D3*X193446Y69469D3*X192176Y68199D3*X192176Y65659D3*X190906Y64389D3*X189636Y65659D3*X189636Y68199D3*X188366Y69469D3*X185826Y66929D3*X184556Y65659D3*X185826Y64389D3*X185826Y59309D3*X185826Y61849D3*X184556Y60579D3*X182016Y59309D3*X180746Y60579D3*X182016Y61849D3*X182016Y64389D3*X180746Y65659D3*X171221Y66929D3*X175031Y66929D3*X173761Y65659D3*X175031Y64389D3*X175031Y59309D3*X175031Y61849D3*X173761Y60579D3*X171221Y59309D3*X169951Y60579D3*X171221Y61849D3*X171221Y64389D3*X169951Y65659D3*X166776Y65659D3*X165506Y64389D3*X164236Y65659D3*X164236Y70739D3*X162966Y69469D3*X164236Y68199D3*X166776Y68199D3*X168046Y69469D3*X166776Y70739D3*X169316Y75184D3*X169316Y77724D3*X168046Y76454D3*X163601Y78994D3*X164871Y77724D3*X163601Y76454D3*X155346Y76454D3*X155346Y78994D3*X156616Y77724D3*X159156Y76454D3*X160426Y77724D3*X159156Y78994D3*X160426Y84709D3*X160426Y87249D3*X159156Y85979D3*X156616Y84709D3*X155346Y85979D3*X156616Y87249D3*X156616Y89789D3*X155346Y91059D3*X156616Y92329D3*X160426Y92329D3*X159156Y91059D3*X160426Y89789D3*X164236Y91059D3*X165506Y89789D3*X166776Y91059D3*X166776Y93599D3*X164236Y93599D3*X162966Y94869D3*X164236Y96139D3*X166776Y96139D3*X168046Y94869D3*X175031Y101854D3*X176301Y103124D3*X175031Y104394D3*X170586Y104394D3*X170586Y101854D3*X169316Y103124D3*X166141Y103759D3*X164871Y105029D3*X163601Y103759D3*X159156Y104394D3*X160426Y103124D3*X159156Y101854D3*X150266Y101854D3*X151536Y103124D3*X150266Y104394D3*X145821Y138049D3*X144551Y136779D3*X145821Y135509D3*X149631Y135509D3*X148361Y136779D3*X149631Y138049D3*X149631Y140589D3*X149631Y143129D3*X148361Y141859D3*X145821Y143129D3*X145821Y140589D3*X144551Y141859D3*X138836Y144399D3*X137566Y145669D3*X138836Y146939D3*X141376Y146939D3*X142646Y145669D3*X141376Y144399D3*X141376Y141859D3*X140106Y140589D3*X138836Y141859D3*X131216Y138049D3*X129946Y136779D3*X131216Y135509D3*X135026Y135509D3*X133756Y136779D3*X135026Y138049D3*X135026Y140589D3*X135026Y143129D3*X133756Y141859D3*X131216Y140589D3*X131216Y143129D3*X129946Y141859D3*X105816Y143129D3*X104546Y141859D3*X105816Y140589D3*X105816Y138049D3*X104546Y136779D3*X105816Y135509D3*X109626Y135509D3*X108356Y136779D3*X109626Y138049D3*X109626Y140589D3*X108356Y141859D3*X109626Y143129D3*X113436Y144399D3*X112166Y145669D3*X113436Y146939D3*X115976Y146939D3*X117246Y145669D3*X115976Y144399D3*X115976Y141859D3*X113436Y141859D3*X114706Y140589D3*X120421Y135509D3*X119151Y136779D3*X120421Y138049D3*X120421Y140589D3*X119151Y141859D3*X120421Y143129D3*X124231Y143129D3*X122961Y141859D3*X124231Y140589D3*X124231Y138049D3*X122961Y136779D3*X124231Y135509D3*X124231Y117729D3*X115976Y121539D3*X117246Y120269D3*X115976Y118999D3*X115976Y116459D3*X114706Y115189D3*X113436Y116459D3*X113436Y118999D3*X113436Y121539D3*X112166Y120269D3*X109626Y117729D3*X108356Y116459D3*X109626Y115189D3*X109626Y112649D3*X109626Y110109D3*X108356Y111379D3*X105816Y110109D3*X104546Y111379D3*X105816Y112649D3*X105816Y115189D3*X105816Y117729D3*X104546Y116459D3*X98831Y117729D3*X97561Y116459D3*X98831Y115189D3*X98831Y110109D3*X98831Y112649D3*X97561Y111379D3*X95021Y110109D3*X93751Y111379D3*X95021Y112649D3*X95021Y115189D3*X95021Y117729D3*X93751Y116459D3*X80416Y117729D3*X82956Y126619D3*X84226Y127889D3*X82956Y129159D3*X79146Y129159D3*X80416Y127889D3*X79146Y126619D3*X75336Y126619D3*X75336Y129159D3*X74066Y127889D3*X4216Y110109D3*X2946Y111379D3*X4216Y112649D3*X4216Y115189D3*X2946Y116459D3*X4216Y117729D3*X8026Y117729D3*X6756Y116459D3*X8026Y115189D3*X8026Y112649D3*X6756Y111379D3*X8026Y110109D3*X33426Y66929D3*X18821Y66929D3*X22631Y66929D3*X21361Y65659D3*X22631Y64389D3*X22631Y59309D3*X22631Y61849D3*X21361Y60579D3*X18821Y59309D3*X17551Y60579D3*X18821Y61849D3*X18821Y64389D3*X17551Y65659D3*X4216Y66929D3*X2946Y65659D3*X4216Y64389D3*X4216Y61849D3*X2946Y60579D3*X4216Y59309D3*X8026Y59309D3*X6756Y60579D3*X8026Y61849D3*X8026Y64389D3*X6756Y65659D3*X8026Y66929D3*X11836Y70739D3*X10566Y69469D3*X11836Y68199D3*X11836Y65659D3*X13106Y64389D3*X14376Y65659D3*X14376Y68199D3*X15646Y69469D3*X14376Y70739D3*X15646Y78359D3*X16916Y77089D3*X15646Y75819D3*X13106Y75819D3*X11836Y77089D3*X13106Y78359D3*X8026Y84709D3*X8026Y87249D3*X6756Y85979D3*X4216Y84709D3*X2946Y85979D3*X4216Y87249D3*X4216Y92329D3*X2946Y91059D3*X4216Y89789D3*X8026Y89789D3*X6756Y91059D3*X8026Y92329D3*X14376Y93599D3*X15646Y94869D3*X14376Y96139D3*X11836Y96139D3*X10566Y94869D3*X11836Y93599D3*X11836Y91059D3*X13106Y89789D3*X14376Y91059D3*X22631Y89789D3*X22631Y92329D3*X21361Y91059D3*X18821Y92329D3*X17551Y91059D3*X18821Y89789D3*X18821Y87249D3*X17551Y85979D3*X18821Y84709D3*X22631Y84709D3*X21361Y85979D3*X22631Y87249D3*X33426Y87249D3*X33426Y84709D3*X32156Y85979D3*X29616Y84709D3*X28346Y85979D3*X29616Y87249D3*X29616Y89789D3*X28346Y91059D3*X29616Y92329D3*X33426Y92329D3*X32156Y91059D3*X33426Y89789D3*X37236Y91059D3*X38506Y89789D3*X39776Y91059D3*X44221Y87249D3*X42951Y85979D3*X44221Y84709D3*X48031Y84709D3*X46761Y85979D3*X48031Y87249D3*X48031Y89789D3*X48031Y92329D3*X46761Y91059D3*X44221Y89789D3*X42951Y91059D3*X44221Y92329D3*X39776Y96139D3*X41046Y94869D3*X39776Y93599D3*X37236Y93599D3*X35966Y94869D3*X37236Y96139D3*X29616Y117729D3*X29616Y143129D3*X28346Y141859D3*X29616Y140589D3*X29616Y138049D3*X28346Y136779D3*X29616Y135509D3*X33426Y135509D3*X32156Y136779D3*X33426Y138049D3*X33426Y140589D3*X32156Y141859D3*X33426Y143129D3*X37236Y144399D3*X35966Y145669D3*X37236Y146939D3*X39776Y146939D3*X41046Y145669D3*X39776Y144399D3*X39776Y141859D3*X37236Y141859D3*X38506Y140589D3*X44221Y135509D3*X42951Y136779D3*X44221Y138049D3*X44221Y140589D3*X42951Y141859D3*X44221Y143129D3*X48031Y143129D3*X46761Y141859D3*X48031Y140589D3*X48031Y138049D3*X46761Y136779D3*X48031Y135509D3*X58826Y135509D3*X58826Y138049D3*X57556Y136779D3*X55016Y135509D3*X53746Y136779D3*X55016Y138049D3*X55016Y140589D3*X53746Y141859D3*X55016Y143129D3*X58826Y143129D3*X57556Y141859D3*X58826Y140589D3*X65176Y141859D3*X63906Y140589D3*X62636Y141859D3*X62636Y144399D3*X61366Y145669D3*X62636Y146939D3*X65176Y146939D3*X65176Y144399D3*X66446Y145669D3*X69621Y143129D3*X68351Y141859D3*X69621Y140589D3*X69621Y138049D3*X68351Y136779D3*X69621Y135509D3*X73431Y135509D3*X72161Y136779D3*X73431Y138049D3*X73431Y140589D3*X72161Y141859D3*X73431Y143129D3*X80416Y143129D3*X79146Y141859D3*X80416Y140589D3*X80416Y138049D3*X79146Y136779D3*X80416Y135509D3*X84226Y135509D3*X82956Y136779D3*X84226Y138049D3*X84226Y140589D3*X82956Y141859D3*X84226Y143129D3*X90576Y144399D3*X91846Y145669D3*X90576Y146939D3*X88036Y146939D3*X86766Y145669D3*X88036Y144399D3*X88036Y141859D3*X89306Y140589D3*X90576Y141859D3*X95021Y140589D3*X93751Y141859D3*X95021Y143129D3*X98831Y143129D3*X97561Y141859D3*X98831Y140589D3*X98831Y138049D3*X98831Y135509D3*X97561Y136779D3*X95021Y138049D3*X93751Y136779D3*X95021Y135509D3*X91211Y129794D3*X92481Y128524D3*X91211Y127254D3*X88036Y121539D3*X90576Y121539D3*X91846Y120269D3*X90576Y118999D3*X90576Y116459D3*X89306Y115189D3*X88036Y116459D3*X88036Y118999D3*X86766Y120269D3*X84226Y117729D3*X82956Y116459D3*X84226Y115189D3*X84226Y110109D3*X84226Y112649D3*X82956Y111379D3*X80416Y110109D3*X79146Y111379D3*X80416Y112649D3*X80416Y115189D3*X79146Y116459D3*X73431Y117729D3*X72161Y116459D3*X73431Y115189D3*X73431Y110109D3*X73431Y112649D3*X72161Y111379D3*X69621Y110109D3*X68351Y111379D3*X69621Y112649D3*X69621Y115189D3*X68351Y116459D3*X69621Y117729D3*X65176Y121539D3*X66446Y120269D3*X65176Y118999D3*X65176Y116459D3*X63906Y115189D3*X62636Y116459D3*X62636Y118999D3*X62636Y121539D3*X61366Y120269D3*X55016Y117729D3*X58826Y117729D3*X57556Y116459D3*X58826Y115189D3*X58826Y112649D3*X58826Y110109D3*X57556Y111379D3*X55016Y110109D3*X53746Y111379D3*X55016Y112649D3*X55016Y115189D3*X53746Y116459D3*X48031Y117729D3*X46761Y116459D3*X48031Y115189D3*X48031Y110109D3*X48031Y112649D3*X46761Y111379D3*X44221Y110109D3*X42951Y111379D3*X44221Y112649D3*X44221Y115189D3*X44221Y117729D3*X42951Y116459D3*X37236Y121539D3*X39776Y121539D3*X41046Y120269D3*X39776Y118999D3*X39776Y116459D3*X38506Y115189D3*X37236Y116459D3*X37236Y118999D3*X35966Y120269D3*X33426Y117729D3*X32156Y116459D3*X33426Y115189D3*X33426Y110109D3*X33426Y112649D3*X32156Y111379D3*X29616Y110109D3*X28346Y111379D3*X29616Y112649D3*X29616Y115189D3*X28346Y116459D3*X22631Y117729D3*X21361Y116459D3*X22631Y115189D3*X22631Y110109D3*X22631Y112649D3*X21361Y111379D3*X18821Y110109D3*X17551Y111379D3*X18821Y112649D3*X18821Y115189D3*X17551Y116459D3*X18821Y117729D3*X14376Y121539D3*X15646Y120269D3*X14376Y118999D3*X14376Y116459D3*X13106Y115189D3*X11836Y116459D3*X11836Y118999D3*X10566Y120269D3*X11836Y121539D3*X8026Y135509D3*X8026Y138049D3*X6756Y136779D3*X4216Y135509D3*X2946Y136779D3*X4216Y138049D3*X4216Y143129D3*X2946Y141859D3*X4216Y140589D3*X8026Y140589D3*X6756Y141859D3*X8026Y143129D3*X14376Y146939D3*X15646Y145669D3*X14376Y144399D3*X18821Y138049D3*X17551Y136779D3*X18821Y135509D3*X22631Y135509D3*X21361Y136779D3*X22631Y138049D3*X22631Y140589D3*X22631Y143129D3*X21361Y141859D3*X18821Y140589D3*X18821Y143129D3*X17551Y141859D3*X14376Y141859D3*X13106Y140589D3*X11836Y141859D3*X11836Y144399D3*X10566Y145669D3*X11836Y146939D3*X8026Y163449D3*X8026Y160909D3*X6756Y162179D3*X4216Y160909D3*X2946Y162179D3*X4216Y163449D3*X4216Y165989D3*X2946Y167259D3*X4216Y168529D3*X8026Y168529D3*X6756Y167259D3*X8026Y165989D3*X14376Y167259D3*X14376Y169799D3*X15646Y171069D3*X14376Y172339D3*X11836Y172339D3*X10566Y171069D3*X11836Y169799D3*X11836Y167259D3*X13106Y165989D3*X18821Y160909D3*X17551Y162179D3*X18821Y163449D3*X18821Y165989D3*X17551Y167259D3*X18821Y168529D3*X22631Y168529D3*X21361Y167259D3*X22631Y165989D3*X22631Y163449D3*X21361Y162179D3*X22631Y160909D3*X33426Y160909D3*X33426Y163449D3*X32156Y162179D3*X29616Y160909D3*X28346Y162179D3*X29616Y163449D3*X29616Y165989D3*X28346Y167259D3*X29616Y168529D3*X33426Y168529D3*X32156Y167259D3*X33426Y165989D3*X37236Y167259D3*X38506Y165989D3*X39776Y167259D3*X39776Y172339D3*X37236Y172339D3*X35966Y171069D3*X37236Y169799D3*X39776Y169799D3*X41046Y171069D3*X48031Y168529D3*X48031Y165989D3*X46761Y167259D3*X44221Y168529D3*X42951Y167259D3*X44221Y165989D3*X44221Y163449D3*X42951Y162179D3*X44221Y160909D3*X48031Y160909D3*X46761Y162179D3*X48031Y163449D3*X58826Y163449D3*X58826Y160909D3*X57556Y162179D3*X55016Y160909D3*X53746Y162179D3*X55016Y163449D3*X55016Y165989D3*X53746Y167259D3*X55016Y168529D3*X58826Y168529D3*X57556Y167259D3*X58826Y165989D3*X65176Y167259D3*X65176Y169799D3*X66446Y171069D3*X65176Y172339D3*X62636Y172339D3*X61366Y171069D3*X62636Y169799D3*X62636Y167259D3*X63906Y165989D3*X69621Y160909D3*X68351Y162179D3*X69621Y163449D3*X69621Y165989D3*X68351Y167259D3*X69621Y168529D3*X73431Y168529D3*X72161Y167259D3*X73431Y165989D3*X73431Y163449D3*X72161Y162179D3*X73431Y160909D3*X84226Y160909D3*X84226Y163449D3*X82956Y162179D3*X80416Y160909D3*X79146Y162179D3*X80416Y163449D3*X80416Y165989D3*X79146Y167259D3*X80416Y168529D3*X84226Y168529D3*X82956Y167259D3*X84226Y165989D3*X88036Y167259D3*X89306Y165989D3*X90576Y167259D3*X90576Y172339D3*X88036Y172339D3*X86766Y171069D3*X88036Y169799D3*X90576Y169799D3*X91846Y171069D3*X98831Y168529D3*X98831Y165989D3*X97561Y167259D3*X95021Y168529D3*X93751Y167259D3*X95021Y165989D3*X95021Y163449D3*X93751Y162179D3*X95021Y160909D3*X98831Y160909D3*X97561Y162179D3*X98831Y163449D3*X109626Y163449D3*X109626Y160909D3*X108356Y162179D3*X105816Y160909D3*X104546Y162179D3*X105816Y163449D3*X105816Y165989D3*X104546Y167259D3*X105816Y168529D3*X109626Y168529D3*X108356Y167259D3*X109626Y165989D3*X115976Y167259D3*X115976Y169799D3*X117246Y171069D3*X115976Y172339D3*X113436Y172339D3*X112166Y171069D3*X113436Y169799D3*X113436Y167259D3*X114706Y165989D3*X120421Y160909D3*X119151Y162179D3*X120421Y163449D3*X120421Y165989D3*X119151Y167259D3*X120421Y168529D3*X124231Y168529D3*X122961Y167259D3*X124231Y165989D3*X124231Y163449D3*X122961Y162179D3*X124231Y160909D3*X135026Y160909D3*X135026Y163449D3*X133756Y162179D3*X131216Y160909D3*X129946Y162179D3*X131216Y163449D3*X131216Y165989D3*X129946Y167259D3*X131216Y168529D3*X135026Y168529D3*X133756Y167259D3*X135026Y165989D3*X138836Y167259D3*X140106Y165989D3*X141376Y167259D3*X141376Y172339D3*X138836Y172339D3*X137566Y171069D3*X138836Y169799D3*X141376Y169799D3*X142646Y171069D3*X149631Y168529D3*X149631Y160909D3*X148361Y162179D3*X149631Y163449D3*X149631Y165989D3*X148361Y167259D3*X145821Y168529D3*X144551Y167259D3*X145821Y165989D3*X145821Y163449D3*X144551Y162179D3*X145821Y160909D3*X146456Y154559D3*X146456Y152019D3*X147726Y153289D3*X150901Y154559D3*X150901Y152019D3*X152171Y153289D3*X157886Y152019D3*X159156Y153289D3*X157886Y154559D3*X160426Y163449D3*X160426Y160909D3*X159156Y162179D3*X156616Y160909D3*X155346Y162179D3*X156616Y163449D3*X156616Y165989D3*X155346Y167259D3*X156616Y168529D3*X160426Y168529D3*X159156Y167259D3*X160426Y165989D3*X164236Y167259D3*X165506Y165989D3*X166776Y167259D3*X166776Y172339D3*X164236Y172339D3*X162966Y171069D3*X164236Y169799D3*X166776Y169799D3*X168046Y171069D3*X175031Y168529D3*X182016Y165989D3*X180746Y167259D3*X182016Y168529D3*X196621Y168529D3*X200431Y168529D3*X199161Y167259D3*X200431Y165989D3*X200431Y160909D3*X200431Y163449D3*X199161Y162179D3*X196621Y160909D3*X195351Y162179D3*X196621Y163449D3*X196621Y165989D3*X195351Y167259D3*X189636Y172339D3*X192176Y172339D3*X193446Y171069D3*X192176Y169799D3*X192176Y167259D3*X190906Y165989D3*X189636Y167259D3*X189636Y169799D3*X188366Y171069D3*X185826Y168529D3*X184556Y167259D3*X185826Y165989D3*X185826Y160909D3*X185826Y163449D3*X184556Y162179D3*X182016Y160909D3*X182016Y163449D3*X180746Y162179D3*X175031Y160909D3*X173761Y162179D3*X175031Y163449D3*X175031Y165989D3*X173761Y167259D3*X171221Y168529D3*X169951Y167259D3*X171221Y165989D3*X171221Y163449D3*X169951Y162179D3*X171221Y160909D3*X170586Y154559D3*X169316Y153289D3*X170586Y152019D3*X176301Y152654D3*X176301Y155194D3*X177571Y153924D3*X189636Y144399D3*X188366Y145669D3*X189636Y146939D3*X192176Y146939D3*X193446Y145669D3*X192176Y144399D3*X196621Y138049D3*X195351Y136779D3*X196621Y135509D3*X200431Y135509D3*X199161Y136779D3*X200431Y138049D3*X200431Y140589D3*X200431Y143129D3*X199161Y141859D3*X196621Y140589D3*X196621Y143129D3*X195351Y141859D3*X192176Y141859D3*X190906Y140589D3*X189636Y141859D3*X182016Y138049D3*X180746Y136779D3*X182016Y135509D3*X185826Y135509D3*X184556Y136779D3*X185826Y138049D3*X185826Y140589D3*X185826Y143129D3*X184556Y141859D3*X182016Y140589D3*X182016Y143129D3*X180746Y141859D3*X171221Y140589D3*X169951Y141859D3*X171221Y143129D3*X175031Y143129D3*X173761Y141859D3*X175031Y140589D3*X175031Y138049D3*X175031Y135509D3*X173761Y136779D3*X171221Y138049D3*X171221Y135509D3*X169951Y136779D3*X160426Y135509D3*X159156Y136779D3*X160426Y138049D3*X164236Y141859D3*X165506Y140589D3*X166776Y141859D3*X166776Y144399D3*X168046Y145669D3*X166776Y146939D3*X164236Y146939D3*X164236Y144399D3*X162966Y145669D3*X160426Y143129D3*X160426Y140589D3*X159156Y141859D3*X156616Y143129D3*X155346Y141859D3*X156616Y140589D3*X156616Y138049D3*X155346Y136779D3*X156616Y135509D3*X155346Y127254D3*X155346Y129794D3*X156616Y128524D3*X159156Y127254D3*X159156Y129794D3*X160426Y128524D3*X163601Y129794D3*X163601Y127254D3*X164871Y128524D3*X171856Y127254D3*X170586Y128524D3*X171856Y129794D3*X176301Y129794D3*X177571Y128524D3*X176301Y127254D3*X182016Y117729D3*X196621Y117729D3*X200431Y117729D3*X199161Y116459D3*X200431Y115189D3*X200431Y110109D3*X200431Y112649D3*X199161Y111379D3*X196621Y110109D3*X195351Y111379D3*X196621Y112649D3*X196621Y115189D3*X195351Y116459D3*X189636Y121539D3*X192176Y121539D3*X193446Y120269D3*X192176Y118999D3*X192176Y116459D3*X190906Y115189D3*X189636Y116459D3*X189636Y118999D3*X188366Y120269D3*X185826Y117729D3*X184556Y116459D3*X185826Y115189D3*X185826Y110109D3*X185826Y112649D3*X184556Y111379D3*X182016Y110109D3*X180746Y111379D3*X182016Y112649D3*X182016Y115189D3*X180746Y116459D3*X171221Y117729D3*X175031Y117729D3*X173761Y116459D3*X175031Y115189D3*X175031Y110109D3*X175031Y112649D3*X173761Y111379D3*X171221Y110109D3*X169951Y111379D3*X171221Y112649D3*X171221Y115189D3*X169951Y116459D3*X166776Y121539D3*X168046Y120269D3*X166776Y118999D3*X166776Y116459D3*X165506Y115189D3*X164236Y116459D3*X164236Y118999D3*X164236Y121539D3*X162966Y120269D3*X160426Y117729D3*X159156Y116459D3*X160426Y115189D3*X160426Y112649D3*X160426Y110109D3*X159156Y111379D3*X156616Y110109D3*X155346Y111379D3*X156616Y112649D3*X156616Y115189D3*X156616Y117729D3*X155346Y116459D3*X149631Y117729D3*X148361Y116459D3*X149631Y115189D3*X149631Y110109D3*X149631Y112649D3*X148361Y111379D3*X145821Y110109D3*X144551Y111379D3*X145821Y112649D3*X145821Y115189D3*X145821Y117729D3*X144551Y116459D3*X138836Y121539D3*X141376Y121539D3*X142646Y120269D3*X141376Y118999D3*X141376Y116459D3*X140106Y115189D3*X138836Y116459D3*X138836Y118999D3*X137566Y120269D3*X135026Y117729D3*X135026Y115189D3*X133756Y116459D3*X131216Y117729D3*X129946Y116459D3*X131216Y115189D3*X126136Y101219D3*X124866Y102489D3*X126136Y103759D3*X135026Y103124D3*X133756Y104394D3*X135026Y105664D3*X135026Y110109D3*X135026Y112649D3*X133756Y111379D3*X131216Y110109D3*X131216Y112649D3*X129946Y111379D3*X124231Y110109D3*X122961Y111379D3*X124231Y112649D3*X124231Y115189D3*X122961Y116459D3*X120421Y117729D3*X119151Y116459D3*X120421Y115189D3*X120421Y112649D3*X119151Y111379D3*X120421Y110109D3*X119151Y104394D3*X120421Y103124D3*X119151Y101854D3*X98831Y79629D3*X95656Y79629D3*X94386Y78359D3*X95656Y77089D3*X98831Y77089D3*X100101Y78359D3*X109626Y84709D3*X109626Y87249D3*X108356Y85979D3*X105816Y84709D3*X104546Y85979D3*X105816Y87249D3*X105816Y89789D3*X104546Y91059D3*X105816Y92329D3*X109626Y92329D3*X108356Y91059D3*X109626Y89789D3*X113436Y91059D3*X114706Y89789D3*X115976Y91059D3*X115976Y93599D3*X113436Y93599D3*X112166Y94869D3*X113436Y96139D3*X115976Y96139D3*X117246Y94869D3*X120421Y92329D3*X119151Y91059D3*X120421Y89789D3*X120421Y87249D3*X119151Y85979D3*X120421Y84709D3*X124231Y84709D3*X122961Y85979D3*X124231Y87249D3*X124231Y89789D3*X122961Y91059D3*X124231Y92329D3*X131216Y92329D3*X129946Y91059D3*X131216Y89789D3*X131216Y87249D3*X129946Y85979D3*X131216Y84709D3*X135026Y84709D3*X133756Y85979D3*X135026Y87249D3*X135026Y89789D3*X133756Y91059D3*X135026Y92329D3*X141376Y93599D3*X142646Y94869D3*X141376Y96139D3*X138836Y96139D3*X137566Y94869D3*X138836Y93599D3*X138836Y91059D3*X140106Y89789D3*X141376Y91059D3*X145821Y89789D3*X144551Y91059D3*X145821Y92329D3*X149631Y92329D3*X148361Y91059D3*X149631Y89789D3*X149631Y87249D3*X149631Y84709D3*X148361Y85979D3*X145821Y87249D3*X144551Y85979D3*X145821Y84709D3*X145821Y76454D3*X147091Y77724D3*X145821Y78994D3*X142011Y78994D3*X140741Y77724D3*X142011Y76454D3*X138836Y70739D3*X141376Y70739D3*X142646Y69469D3*X141376Y68199D3*X141376Y65659D3*X140106Y64389D3*X138836Y65659D3*X138836Y68199D3*X137566Y69469D3*X135026Y66929D3*X133756Y65659D3*X135026Y64389D3*X135026Y59309D3*X135026Y61849D3*X133756Y60579D3*X131216Y59309D3*X129946Y60579D3*X131216Y61849D3*X131216Y64389D3*X129946Y65659D3*X120421Y66929D3*X124231Y66929D3*X122961Y65659D3*X124231Y64389D3*X124231Y59309D3*X124231Y61849D3*X122961Y60579D3*X120421Y59309D3*X119151Y60579D3*X120421Y61849D3*X120421Y64389D3*X119151Y65659D3*X115976Y70739D3*X117246Y69469D3*X115976Y68199D3*X115976Y65659D3*X114706Y64389D3*X113436Y65659D3*X113436Y68199D3*X113436Y70739D3*X112166Y69469D3*X109626Y66929D3*X108356Y65659D3*X109626Y64389D3*X109626Y61849D3*X109626Y59309D3*X108356Y60579D3*X105816Y59309D3*X104546Y60579D3*X105816Y61849D3*X105816Y64389D3*X105816Y66929D3*X104546Y65659D3*X98831Y66929D3*X97561Y65659D3*X98831Y64389D3*X98831Y59309D3*X98831Y61849D3*X97561Y60579D3*X95021Y59309D3*X93751Y60579D3*X95021Y61849D3*X95021Y64389D3*X95021Y66929D3*X93751Y65659D3*X80416Y66929D3*X65811Y78994D3*X67081Y77724D3*X65811Y76454D3*X63271Y76454D3*X62001Y77724D3*X63271Y78994D3*X58826Y84709D3*X58826Y87249D3*X57556Y85979D3*X55016Y84709D3*X53746Y85979D3*X55016Y87249D3*X55016Y89789D3*X53746Y91059D3*X55016Y92329D3*X58826Y92329D3*X57556Y91059D3*X58826Y89789D3*X65176Y91059D3*X63906Y89789D3*X62636Y91059D3*X62636Y93599D3*X61366Y94869D3*X62636Y96139D3*X65176Y96139D3*X65176Y93599D3*X66446Y94869D3*X69621Y92329D3*X68351Y91059D3*X69621Y89789D3*X69621Y87249D3*X68351Y85979D3*X69621Y84709D3*X73431Y84709D3*X72161Y85979D3*X73431Y87249D3*X73431Y89789D3*X72161Y91059D3*X73431Y92329D3*X80416Y92329D3*X79146Y91059D3*X80416Y89789D3*X88036Y91059D3*X89306Y89789D3*X90576Y91059D3*X95021Y87249D3*X93751Y85979D3*X95021Y84709D3*X98831Y84709D3*X97561Y85979D3*X98831Y87249D3*X98831Y89789D3*X98831Y92329D3*X97561Y91059D3*X95021Y89789D3*X93751Y91059D3*X95021Y92329D3*X90576Y96139D3*X91846Y94869D3*X90576Y93599D3*X88036Y93599D3*X88036Y96139D3*X86766Y94869D3*X84226Y92329D3*X82956Y91059D3*X84226Y89789D3*X84226Y87249D3*X84226Y84709D3*X82956Y85979D3*X80416Y87249D3*X79146Y85979D3*X80416Y84709D3*X80416Y75819D3*X79146Y77089D3*X80416Y78359D3*X82956Y78359D3*X84226Y77089D3*X82956Y75819D3*X88036Y70739D3*X90576Y70739D3*X91846Y69469D3*X90576Y68199D3*X90576Y65659D3*X89306Y64389D3*X88036Y65659D3*X88036Y68199D3*X86766Y69469D3*X84226Y66929D3*X82956Y65659D3*X84226Y64389D3*X84226Y59309D3*X84226Y61849D3*X82956Y60579D3*X80416Y59309D3*X79146Y60579D3*X80416Y61849D3*X80416Y64389D3*X79146Y65659D3*X73431Y66929D3*X72161Y65659D3*X73431Y64389D3*X73431Y59309D3*X73431Y61849D3*X72161Y60579D3*X69621Y59309D3*X68351Y60579D3*X69621Y61849D3*X69621Y64389D3*X68351Y65659D3*X69621Y66929D3*X65176Y70739D3*X66446Y69469D3*X65176Y68199D3*X65176Y65659D3*X63906Y64389D3*X62636Y65659D3*X62636Y68199D3*X62636Y70739D3*X61366Y69469D3*X55016Y66929D3*X58826Y66929D3*X57556Y65659D3*X58826Y64389D3*X58826Y61849D3*X58826Y59309D3*X57556Y60579D3*X55016Y59309D3*X53746Y60579D3*X55016Y61849D3*X55016Y64389D3*X53746Y65659D3*X48031Y66929D3*X46761Y65659D3*X48031Y64389D3*X48031Y59309D3*X48031Y61849D3*X46761Y60579D3*X44221Y59309D3*X42951Y60579D3*X44221Y61849D3*X44221Y64389D3*X44221Y66929D3*X42951Y65659D3*X39776Y65659D3*X39776Y68199D3*X41046Y69469D3*X39776Y70739D3*X37236Y70739D3*X35966Y69469D3*X37236Y68199D3*X37236Y65659D3*X38506Y64389D3*X33426Y59309D3*X32156Y60579D3*X33426Y61849D3*X33426Y64389D3*X32156Y65659D3*X29616Y66929D3*X28346Y65659D3*X29616Y64389D3*X29616Y61849D3*X28346Y60579D3*X29616Y59309D3*X29616Y16129D3*X8026Y33909D3*X8026Y36449D3*X6756Y35179D3*X4216Y33909D3*X2946Y35179D3*X4216Y36449D3*X4216Y38989D3*X2946Y40259D3*X4216Y41529D3*X8026Y41529D3*X6756Y40259D3*X8026Y38989D3*X14376Y40259D3*X13106Y38989D3*X11836Y40259D3*X11836Y42799D3*X10566Y44069D3*X11836Y45339D3*X14376Y45339D3*X14376Y42799D3*X15646Y44069D3*X18821Y41529D3*X17551Y40259D3*X18821Y38989D3*X18821Y36449D3*X17551Y35179D3*X18821Y33909D3*X22631Y33909D3*X21361Y35179D3*X22631Y36449D3*X22631Y38989D3*X21361Y40259D3*X22631Y41529D3*X29616Y41529D3*X28346Y40259D3*X29616Y38989D3*X29616Y36449D3*X28346Y35179D3*X29616Y33909D3*X33426Y33909D3*X32156Y35179D3*X33426Y36449D3*X33426Y38989D3*X32156Y40259D3*X33426Y41529D3*X39776Y42799D3*X41046Y44069D3*X39776Y45339D3*X37236Y45339D3*X35966Y44069D3*X37236Y42799D3*X37236Y40259D3*X38506Y38989D3*X39776Y40259D3*X44221Y38989D3*X42951Y40259D3*X44221Y41529D3*X48031Y41529D3*X46761Y40259D3*X48031Y38989D3*X48031Y36449D3*X48031Y33909D3*X46761Y35179D3*X44221Y36449D3*X42951Y35179D3*X44221Y33909D3*X41046Y29464D3*X39776Y28194D3*X41046Y26924D3*X46126Y26924D3*X46126Y29464D3*X47396Y28194D3*X80416Y16129D3*X68351Y28194D3*X69621Y26924D3*X68351Y25654D3*X63906Y25654D3*X65176Y26924D3*X63906Y28194D3*X58826Y33909D3*X58826Y36449D3*X57556Y35179D3*X55016Y33909D3*X53746Y35179D3*X55016Y36449D3*X55016Y41529D3*X53746Y40259D3*X55016Y38989D3*X58826Y38989D3*X57556Y40259D3*X58826Y41529D3*X65176Y42799D3*X66446Y44069D3*X65176Y45339D3*X62636Y45339D3*X61366Y44069D3*X62636Y42799D3*X62636Y40259D3*X63906Y38989D3*X65176Y40259D3*X73431Y38989D3*X73431Y41529D3*X72161Y40259D3*X69621Y41529D3*X68351Y40259D3*X69621Y38989D3*X69621Y36449D3*X68351Y35179D3*X69621Y33909D3*X73431Y33909D3*X72161Y35179D3*X73431Y36449D3*X84226Y36449D3*X84226Y33909D3*X82956Y35179D3*X80416Y33909D3*X79146Y35179D3*X80416Y36449D3*X80416Y38989D3*X79146Y40259D3*X80416Y41529D3*X84226Y41529D3*X82956Y40259D3*X84226Y38989D3*X88036Y40259D3*X89306Y38989D3*X90576Y40259D3*X90576Y42799D3*X88036Y42799D3*X86766Y44069D3*X88036Y45339D3*X90576Y45339D3*X91846Y44069D3*X95021Y41529D3*X93751Y40259D3*X95021Y38989D3*X95021Y36449D3*X93751Y35179D3*X95021Y33909D3*X98831Y33909D3*X97561Y35179D3*X98831Y36449D3*X98831Y38989D3*X97561Y40259D3*X98831Y41529D3*X105816Y41529D3*X104546Y40259D3*X105816Y38989D3*X105816Y36449D3*X104546Y35179D3*X105816Y33909D3*X109626Y33909D3*X108356Y35179D3*X109626Y36449D3*X109626Y38989D3*X108356Y40259D3*X109626Y41529D3*X113436Y42799D3*X112166Y44069D3*X113436Y45339D3*X115976Y45339D3*X117246Y44069D3*X115976Y42799D3*X115976Y40259D3*X113436Y40259D3*X114706Y38989D3*X120421Y33909D3*X119151Y35179D3*X120421Y36449D3*X120421Y38989D3*X119151Y40259D3*X120421Y41529D3*X124231Y41529D3*X122961Y40259D3*X124231Y38989D3*X124231Y36449D3*X122961Y35179D3*X124231Y33909D3*X131216Y33909D3*X129946Y35179D3*X131216Y36449D3*X131216Y41529D3*X129946Y40259D3*X131216Y38989D3*X138836Y40259D3*X140106Y38989D3*X141376Y40259D3*X145821Y36449D3*X144551Y35179D3*X145821Y33909D3*X149631Y33909D3*X148361Y35179D3*X149631Y36449D3*X149631Y38989D3*X149631Y41529D3*X148361Y40259D3*X145821Y38989D3*X144551Y40259D3*X145821Y41529D3*X141376Y45339D3*X142646Y44069D3*X141376Y42799D3*X138836Y42799D3*X138836Y45339D3*X137566Y44069D3*X135026Y41529D3*X133756Y40259D3*X135026Y38989D3*X135026Y36449D3*X133756Y35179D3*X135026Y33909D3*X133756Y25019D3*X131216Y25019D3*X129946Y26289D3*X131216Y27559D3*X133756Y27559D3*X135026Y26289D3*X138836Y27559D3*X140106Y26289D3*X138836Y25019D3*X138836Y19939D3*X141376Y19939D3*X142646Y18669D3*X141376Y17399D3*X141376Y14859D3*X140106Y13589D3*X138836Y14859D3*X138836Y17399D3*X137566Y18669D3*X135026Y16129D3*X133756Y14859D3*X135026Y13589D3*X135026Y8509D3*X135026Y11049D3*X133756Y9779D3*X131216Y8509D3*X129946Y9779D3*X131216Y11049D3*X131216Y13589D3*X129946Y14859D3*X120421Y16129D3*X124231Y16129D3*X122961Y14859D3*X124231Y13589D3*X124231Y8509D3*X124231Y11049D3*X122961Y9779D3*X120421Y8509D3*X119151Y9779D3*X120421Y11049D3*X120421Y13589D3*X119151Y14859D3*X115976Y19939D3*X117246Y18669D3*X115976Y17399D3*X115976Y14859D3*X114706Y13589D3*X113436Y14859D3*X113436Y17399D3*X113436Y19939D3*X112166Y18669D3*X109626Y16129D3*X108356Y14859D3*X109626Y13589D3*X109626Y11049D3*X109626Y8509D3*X108356Y9779D3*X105816Y8509D3*X104546Y9779D3*X105816Y11049D3*X105816Y13589D3*X105816Y16129D3*X104546Y14859D3*X98831Y16129D3*X97561Y14859D3*X98831Y13589D3*X98831Y8509D3*X98831Y11049D3*X97561Y9779D3*X95021Y8509D3*X93751Y9779D3*X95021Y11049D3*X95021Y13589D3*X95021Y16129D3*X93751Y14859D3*X88036Y19939D3*X90576Y19939D3*X91846Y18669D3*X90576Y17399D3*X90576Y14859D3*X89306Y13589D3*X88036Y14859D3*X88036Y17399D3*X86766Y18669D3*X84226Y16129D3*X82956Y14859D3*X84226Y13589D3*X84226Y8509D3*X84226Y11049D3*X82956Y9779D3*X80416Y8509D3*X79146Y9779D3*X80416Y11049D3*X80416Y13589D3*X79146Y14859D3*X73431Y16129D3*X72161Y14859D3*X73431Y13589D3*X73431Y8509D3*X73431Y11049D3*X72161Y9779D3*X69621Y8509D3*X68351Y9779D3*X69621Y11049D3*X69621Y13589D3*X68351Y14859D3*X69621Y16129D3*X65176Y19939D3*X66446Y18669D3*X65176Y17399D3*X65176Y14859D3*X63906Y13589D3*X62636Y14859D3*X62636Y17399D3*X62636Y19939D3*X61366Y18669D3*X55016Y16129D3*X58826Y16129D3*X57556Y14859D3*X58826Y13589D3*X58826Y11049D3*X58826Y8509D3*X57556Y9779D3*X55016Y8509D3*X53746Y9779D3*X55016Y11049D3*X55016Y13589D3*X53746Y14859D3*X48031Y16129D3*X46761Y14859D3*X48031Y13589D3*X48031Y8509D3*X48031Y11049D3*X46761Y9779D3*X44221Y8509D3*X42951Y9779D3*X44221Y11049D3*X44221Y13589D3*X44221Y16129D3*X42951Y14859D3*X37236Y19939D3*X39776Y19939D3*X41046Y18669D3*X39776Y17399D3*X39776Y14859D3*X38506Y13589D3*X37236Y14859D3*X37236Y17399D3*X35966Y18669D3*X33426Y16129D3*X32156Y14859D3*X33426Y13589D3*X33426Y8509D3*X33426Y11049D3*X32156Y9779D3*X29616Y8509D3*X28346Y9779D3*X29616Y11049D3*X29616Y13589D3*X28346Y14859D3*X18821Y16129D3*X22631Y16129D3*X21361Y14859D3*X22631Y13589D3*X22631Y8509D3*X22631Y11049D3*X21361Y9779D3*X18821Y8509D3*X17551Y9779D3*X18821Y11049D3*X18821Y13589D3*X17551Y14859D3*X14376Y14859D3*X14376Y17399D3*X15646Y18669D3*X14376Y19939D3*X11836Y19939D3*X10566Y18669D3*X11836Y17399D3*X11836Y14859D3*X13106Y13589D3*X8026Y8509D3*X6756Y9779D3*X8026Y11049D3*X8026Y13589D3*X8026Y16129D3*X6756Y14859D3*X4216Y16129D3*X2946Y14859D3*X4216Y13589D3*X4216Y11049D3*X2946Y9779D3*X4216Y8509D3*D16*X128676Y25019D3*X136296Y31369D3*X152171Y28829D3*X179476Y30099D3*X187096Y49149D3*X175666Y56134D3*X157886Y174879D3*X152806Y160274D3*X127406Y157099D3*X131851Y131064D3*X152806Y128524D3*X178206Y105664D3*X178206Y107569D3*X169316Y107569D3*X164871Y100584D3*X152171Y108839D3*X155981Y100584D3*X152806Y77724D3*X173761Y79629D3*X168046Y80899D3*X161696Y74549D3*X157886Y73279D3*X154076Y54229D3*X152806Y49784D3*X151536Y51689D3*X140106Y56134D3*X126771Y80899D3*X110896Y78359D3*X103276Y52324D3*X81686Y23749D3*X76606Y25654D3*X75336Y26924D3*X70891Y30734D3*X56286Y52324D3*X61366Y56134D3*X81686Y74549D3*X75971Y82169D3*X67716Y75819D3*X57556Y80264D3*X52476Y74549D3*X2946Y52324D3*X27076Y23749D3*D100*X61366Y53594D3*X112801Y129794D3*D101*X135661Y129794D3*X135661Y127254D3*X133121Y127254D3*X133121Y129794D3*X130581Y129794D3*X130581Y127254D3*X128041Y127254D3*X128041Y129794D3*X125501Y129794D3*X125501Y127254D3*X122961Y127254D3*X122961Y129794D3*X120421Y129794D3*X120421Y127254D3*X117881Y127254D3*X117881Y129794D3*X115341Y129794D3*X115341Y127254D3*X112801Y127254D3*X84226Y53594D3*X84226Y51054D3*X81686Y51054D3*X81686Y53594D3*X79146Y53594D3*X79146Y51054D3*X76606Y51054D3*X76606Y53594D3*X74066Y53594D3*X74066Y51054D3*X71526Y51054D3*X71526Y53594D3*X68986Y53594D3*X68986Y51054D3*X66446Y51054D3*X66446Y53594D3*X63906Y53594D3*X63906Y51054D3*X61366Y51054D3*D102*X107721Y153289D3*X119786Y153289D3*X0Y0D2*M02*