
M48
METRIC,TZ,000.000
T01C0.5
T02C0.701
T03C0.8
T04C1.1
T05C1.501
T06C4.0
%
M71
G90
T01
X128676Y025019
X136296Y031369
X152171Y028829
X179476Y030099
X187096Y049149
X175666Y056134
X157886Y174879
X152806Y160274
X127406Y157099
X131851Y131064
X152806Y128524
X178206Y105664
X178206Y107569
X169316Y107569
X164871Y100584
X152171Y108839
X155981Y100584
X152806Y077724
X173761Y079629
X168046Y080899
X161696Y074549
X157886Y073279
X154076Y054229
X152806Y049784
X151536Y051689
X140106Y056134
X126771Y080899
X110896Y078359
X103276Y052324
X081686Y023749
X076606Y025654
X075336Y026924
X070891Y030734
X056286Y052324
X061366Y056134
X081686Y074549
X075971Y082169
X067716Y075819
X057556Y080264
X052476Y074549
X002946Y052324
X027076Y023749
T02
X156616Y193929
X155346Y192659
X156616Y191389
X159156Y179959
X159156Y177419
X160426Y178689
X163601Y177419
X163601Y179959
X164871Y178689
X182016Y193929
X180746Y192659
X182016Y191389
X189636Y192659
X190906Y191389
X192176Y192659
X196621Y188849
X195351Y187579
X196621Y186309
X200431Y186309
X199161Y187579
X200431Y188849
X200431Y191389
X200431Y193929
X199161Y192659
X196621Y191389
X195351Y192659
X196621Y193929
X192176Y197739
X193446Y196469
X192176Y195199
X189636Y195199
X189636Y197739
X188366Y196469
X185826Y193929
X184556Y192659
X185826Y191389
X185826Y188849
X185826Y186309
X184556Y187579
X182016Y188849
X180746Y187579
X182016Y186309
X176301Y179959
X177571Y178689
X176301Y177419
X171856Y177419
X170586Y178689
X171856Y179959
X171221Y188849
X169951Y187579
X171221Y186309
X175031Y186309
X173761Y187579
X175031Y188849
X175031Y191389
X175031Y193929
X173761Y192659
X171221Y191389
X171221Y193929
X169951Y192659
X164236Y192659
X165506Y191389
X166776Y192659
X166776Y195199
X168046Y196469
X166776Y197739
X164236Y197739
X164236Y195199
X162966Y196469
X160426Y193929
X159156Y192659
X160426Y191389
X160426Y186309
X160426Y188849
X159156Y187579
X156616Y186309
X156616Y188849
X155346Y187579
X008026Y186309
X008026Y188849
X006756Y187579
X004216Y186309
X002946Y187579
X004216Y188849
X004216Y191389
X002946Y192659
X004216Y193929
X008026Y193929
X006756Y192659
X008026Y191389
X014376Y192659
X013106Y191389
X011836Y192659
X011836Y195199
X010566Y196469
X011836Y197739
X014376Y197739
X014376Y195199
X015646Y196469
X018821Y193929
X017551Y192659
X018821Y191389
X018821Y188849
X017551Y187579
X018821Y186309
X022631Y186309
X021361Y187579
X022631Y188849
X022631Y191389
X021361Y192659
X022631Y193929
X029616Y193929
X028346Y192659
X029616Y191389
X029616Y188849
X028346Y187579
X029616Y186309
X033426Y186309
X032156Y187579
X033426Y188849
X033426Y191389
X032156Y192659
X033426Y193929
X037236Y195199
X035966Y196469
X037236Y197739
X039776Y197739
X041046Y196469
X039776Y195199
X039776Y192659
X037236Y192659
X038506Y191389
X044221Y186309
X042951Y187579
X044221Y188849
X044221Y191389
X042951Y192659
X044221Y193929
X048031Y193929
X046761Y192659
X048031Y191389
X048031Y188849
X046761Y187579
X048031Y186309
X058826Y186309
X058826Y188849
X057556Y187579
X055016Y186309
X053746Y187579
X055016Y188849
X055016Y191389
X053746Y192659
X055016Y193929
X058826Y193929
X057556Y192659
X058826Y191389
X065176Y192659
X063906Y191389
X062636Y192659
X062636Y195199
X061366Y196469
X062636Y197739
X065176Y197739
X065176Y195199
X066446Y196469
X069621Y193929
X068351Y192659
X069621Y191389
X069621Y188849
X068351Y187579
X069621Y186309
X073431Y186309
X072161Y187579
X073431Y188849
X073431Y191389
X072161Y192659
X073431Y193929
X080416Y193929
X079146Y192659
X080416Y191389
X080416Y188849
X079146Y187579
X080416Y186309
X084226Y186309
X082956Y187579
X084226Y188849
X084226Y191389
X082956Y192659
X084226Y193929
X088036Y195199
X086766Y196469
X088036Y197739
X090576Y197739
X091846Y196469
X090576Y195199
X090576Y192659
X088036Y192659
X089306Y191389
X095021Y186309
X093751Y187579
X095021Y188849
X095021Y191389
X093751Y192659
X095021Y193929
X098831Y193929
X097561Y192659
X098831Y191389
X098831Y188849
X097561Y187579
X098831Y186309
X109626Y186309
X109626Y188849
X108356Y187579
X105816Y186309
X104546Y187579
X105816Y188849
X105816Y191389
X104546Y192659
X105816Y193929
X109626Y193929
X108356Y192659
X109626Y191389
X113436Y192659
X114706Y191389
X115976Y192659
X115976Y195199
X113436Y195199
X112166Y196469
X113436Y197739
X115976Y197739
X117246Y196469
X120421Y193929
X119151Y192659
X120421Y191389
X120421Y188849
X119151Y187579
X120421Y186309
X124231Y186309
X122961Y187579
X124231Y188849
X124231Y191389
X122961Y192659
X124231Y193929
X131216Y193929
X129946Y192659
X131216Y191389
X131216Y188849
X129946Y187579
X131216Y186309
X135026Y186309
X133756Y187579
X135026Y188849
X135026Y191389
X133756Y192659
X135026Y193929
X141376Y195199
X142646Y196469
X141376Y197739
X138836Y197739
X137566Y196469
X138836Y195199
X138836Y192659
X140106Y191389
X141376Y192659
X145821Y191389
X144551Y192659
X145821Y193929
X149631Y193929
X148361Y192659
X149631Y191389
X149631Y188849
X149631Y186309
X148361Y187579
X145821Y188849
X144551Y187579
X145821Y186309
X144551Y181229
X145821Y179959
X144551Y178689
X131216Y066929
X115976Y049784
X114706Y051054
X115976Y052324
X120421Y052324
X119151Y051054
X120421Y049784
X131216Y016129
X182016Y016129
X196621Y016129
X200431Y016129
X199161Y014859
X200431Y013589
X200431Y008509
X200431Y011049
X199161Y009779
X196621Y008509
X195351Y009779
X196621Y011049
X196621Y013589
X195351Y014859
X189636Y019939
X192176Y019939
X193446Y018669
X192176Y017399
X192176Y014859
X190906Y013589
X189636Y014859
X189636Y017399
X188366Y018669
X185826Y016129
X184556Y014859
X185826Y013589
X185826Y008509
X185826Y011049
X184556Y009779
X182016Y008509
X180746Y009779
X182016Y011049
X182016Y013589
X180746Y014859
X171221Y016129
X175031Y016129
X173761Y014859
X175031Y013589
X175031Y008509
X175031Y011049
X173761Y009779
X171221Y008509
X169951Y009779
X171221Y011049
X171221Y013589
X169951Y014859
X166776Y019939
X168046Y018669
X166776Y017399
X166776Y014859
X165506Y013589
X164236Y014859
X164236Y017399
X164236Y019939
X162966Y018669
X160426Y016129
X159156Y014859
X160426Y013589
X160426Y011049
X160426Y008509
X159156Y009779
X156616Y008509
X155346Y009779
X156616Y011049
X156616Y013589
X156616Y016129
X155346Y014859
X149631Y016129
X148361Y014859
X149631Y013589
X149631Y008509
X149631Y011049
X148361Y009779
X145821Y008509
X144551Y009779
X145821Y011049
X145821Y013589
X144551Y014859
X145821Y016129
X145186Y027559
X143916Y026289
X145186Y025019
X148996Y025019
X150266Y026289
X148996Y027559
X174396Y051054
X173126Y052324
X174396Y053594
X176936Y053594
X178206Y052324
X176936Y051054
X182016Y041529
X180746Y040259
X182016Y038989
X189636Y040259
X190906Y038989
X192176Y040259
X196621Y036449
X195351Y035179
X196621Y033909
X200431Y033909
X199161Y035179
X200431Y036449
X200431Y038989
X200431Y041529
X199161Y040259
X196621Y038989
X195351Y040259
X196621Y041529
X192176Y045339
X193446Y044069
X192176Y042799
X189636Y042799
X189636Y045339
X188366Y044069
X185826Y041529
X184556Y040259
X185826Y038989
X185826Y036449
X185826Y033909
X184556Y035179
X182016Y036449
X182016Y033909
X180746Y035179
X171221Y033909
X169951Y035179
X171221Y036449
X171221Y038989
X169951Y040259
X171221Y041529
X175031Y041529
X173761Y040259
X175031Y038989
X175031Y036449
X173761Y035179
X175031Y033909
X176936Y025019
X178206Y026289
X176936Y027559
X174396Y027559
X174396Y025019
X173126Y026289
X169316Y025019
X170586Y026289
X169316Y027559
X165506Y027559
X166776Y026289
X165506Y025019
X159156Y025019
X157886Y026289
X159156Y027559
X160426Y033909
X160426Y036449
X159156Y035179
X156616Y033909
X155346Y035179
X156616Y036449
X156616Y038989
X155346Y040259
X156616Y041529
X160426Y041529
X159156Y040259
X160426Y038989
X164236Y040259
X165506Y038989
X166776Y040259
X166776Y045339
X168046Y044069
X166776Y042799
X164236Y042799
X162966Y044069
X164236Y045339
X163601Y051054
X164871Y052324
X163601Y053594
X159156Y053594
X160426Y052324
X159156Y051054
X156616Y051054
X155346Y052324
X156616Y053594
X145821Y066929
X144551Y065659
X145821Y064389
X145821Y061849
X144551Y060579
X145821Y059309
X149631Y059309
X148361Y060579
X149631Y061849
X149631Y064389
X148361Y065659
X149631Y066929
X156616Y066929
X155346Y065659
X156616Y064389
X156616Y061849
X155346Y060579
X156616Y059309
X160426Y059309
X159156Y060579
X160426Y061849
X160426Y064389
X159156Y065659
X160426Y066929
X182016Y092329
X180746Y091059
X182016Y089789
X189636Y091059
X190906Y089789
X192176Y091059
X196621Y087249
X195351Y085979
X196621Y084709
X200431Y084709
X199161Y085979
X200431Y087249
X200431Y089789
X200431Y092329
X199161Y091059
X196621Y089789
X195351Y091059
X196621Y092329
X192176Y096139
X193446Y094869
X192176Y093599
X189636Y093599
X189636Y096139
X188366Y094869
X185826Y092329
X184556Y091059
X185826Y089789
X185826Y087249
X185826Y084709
X184556Y085979
X182016Y087249
X182016Y084709
X180746Y085979
X171221Y084709
X169951Y085979
X171221Y087249
X171221Y089789
X169951Y091059
X171221Y092329
X175031Y092329
X173761Y091059
X175031Y089789
X175031Y087249
X173761Y085979
X175031Y084709
X176936Y077724
X178206Y076454
X176936Y075184
X182016Y066929
X196621Y066929
X200431Y066929
X199161Y065659
X200431Y064389
X200431Y059309
X200431Y061849
X199161Y060579
X196621Y059309
X195351Y060579
X196621Y061849
X196621Y064389
X195351Y065659
X189636Y070739
X192176Y070739
X193446Y069469
X192176Y068199
X192176Y065659
X190906Y064389
X189636Y065659
X189636Y068199
X188366Y069469
X185826Y066929
X184556Y065659
X185826Y064389
X185826Y059309
X185826Y061849
X184556Y060579
X182016Y059309
X180746Y060579
X182016Y061849
X182016Y064389
X180746Y065659
X171221Y066929
X175031Y066929
X173761Y065659
X175031Y064389
X175031Y059309
X175031Y061849
X173761Y060579
X171221Y059309
X169951Y060579
X171221Y061849
X171221Y064389
X169951Y065659
X166776Y065659
X165506Y064389
X164236Y065659
X164236Y070739
X162966Y069469
X164236Y068199
X166776Y068199
X168046Y069469
X166776Y070739
X169316Y075184
X169316Y077724
X168046Y076454
X163601Y078994
X164871Y077724
X163601Y076454
X155346Y076454
X155346Y078994
X156616Y077724
X159156Y076454
X160426Y077724
X159156Y078994
X160426Y084709
X160426Y087249
X159156Y085979
X156616Y084709
X155346Y085979
X156616Y087249
X156616Y089789
X155346Y091059
X156616Y092329
X160426Y092329
X159156Y091059
X160426Y089789
X164236Y091059
X165506Y089789
X166776Y091059
X166776Y093599
X164236Y093599
X162966Y094869
X164236Y096139
X166776Y096139
X168046Y094869
X175031Y101854
X176301Y103124
X175031Y104394
X170586Y104394
X170586Y101854
X169316Y103124
X166141Y103759
X164871Y105029
X163601Y103759
X159156Y104394
X160426Y103124
X159156Y101854
X150266Y101854
X151536Y103124
X150266Y104394
X145821Y138049
X144551Y136779
X145821Y135509
X149631Y135509
X148361Y136779
X149631Y138049
X149631Y140589
X149631Y143129
X148361Y141859
X145821Y143129
X145821Y140589
X144551Y141859
X138836Y144399
X137566Y145669
X138836Y146939
X141376Y146939
X142646Y145669
X141376Y144399
X141376Y141859
X140106Y140589
X138836Y141859
X131216Y138049
X129946Y136779
X131216Y135509
X135026Y135509
X133756Y136779
X135026Y138049
X135026Y140589
X135026Y143129
X133756Y141859
X131216Y140589
X131216Y143129
X129946Y141859
X105816Y143129
X104546Y141859
X105816Y140589
X105816Y138049
X104546Y136779
X105816Y135509
X109626Y135509
X108356Y136779
X109626Y138049
X109626Y140589
X108356Y141859
X109626Y143129
X113436Y144399
X112166Y145669
X113436Y146939
X115976Y146939
X117246Y145669
X115976Y144399
X115976Y141859
X113436Y141859
X114706Y140589
X120421Y135509
X119151Y136779
X120421Y138049
X120421Y140589
X119151Y141859
X120421Y143129
X124231Y143129
X122961Y141859
X124231Y140589
X124231Y138049
X122961Y136779
X124231Y135509
X124231Y117729
X115976Y121539
X117246Y120269
X115976Y118999
X115976Y116459
X114706Y115189
X113436Y116459
X113436Y118999
X113436Y121539
X112166Y120269
X109626Y117729
X108356Y116459
X109626Y115189
X109626Y112649
X109626Y110109
X108356Y111379
X105816Y110109
X104546Y111379
X105816Y112649
X105816Y115189
X105816Y117729
X104546Y116459
X098831Y117729
X097561Y116459
X098831Y115189
X098831Y110109
X098831Y112649
X097561Y111379
X095021Y110109
X093751Y111379
X095021Y112649
X095021Y115189
X095021Y117729
X093751Y116459
X080416Y117729
X082956Y126619
X084226Y127889
X082956Y129159
X079146Y129159
X080416Y127889
X079146Y126619
X075336Y126619
X075336Y129159
X074066Y127889
X004216Y110109
X002946Y111379
X004216Y112649
X004216Y115189
X002946Y116459
X004216Y117729
X008026Y117729
X006756Y116459
X008026Y115189
X008026Y112649
X006756Y111379
X008026Y110109
X033426Y066929
X018821Y066929
X022631Y066929
X021361Y065659
X022631Y064389
X022631Y059309
X022631Y061849
X021361Y060579
X018821Y059309
X017551Y060579
X018821Y061849
X018821Y064389
X017551Y065659
X004216Y066929
X002946Y065659
X004216Y064389
X004216Y061849
X002946Y060579
X004216Y059309
X008026Y059309
X006756Y060579
X008026Y061849
X008026Y064389
X006756Y065659
X008026Y066929
X011836Y070739
X010566Y069469
X011836Y068199
X011836Y065659
X013106Y064389
X014376Y065659
X014376Y068199
X015646Y069469
X014376Y070739
X015646Y078359
X016916Y077089
X015646Y075819
X013106Y075819
X011836Y077089
X013106Y078359
X008026Y084709
X008026Y087249
X006756Y085979
X004216Y084709
X002946Y085979
X004216Y087249
X004216Y092329
X002946Y091059
X004216Y089789
X008026Y089789
X006756Y091059
X008026Y092329
X014376Y093599
X015646Y094869
X014376Y096139
X011836Y096139
X010566Y094869
X011836Y093599
X011836Y091059
X013106Y089789
X014376Y091059
X022631Y089789
X022631Y092329
X021361Y091059
X018821Y092329
X017551Y091059
X018821Y089789
X018821Y087249
X017551Y085979
X018821Y084709
X022631Y084709
X021361Y085979
X022631Y087249
X033426Y087249
X033426Y084709
X032156Y085979
X029616Y084709
X028346Y085979
X029616Y087249
X029616Y089789
X028346Y091059
X029616Y092329
X033426Y092329
X032156Y091059
X033426Y089789
X037236Y091059
X038506Y089789
X039776Y091059
X044221Y087249
X042951Y085979
X044221Y084709
X048031Y084709
X046761Y085979
X048031Y087249
X048031Y089789
X048031Y092329
X046761Y091059
X044221Y089789
X042951Y091059
X044221Y092329
X039776Y096139
X041046Y094869
X039776Y093599
X037236Y093599
X035966Y094869
X037236Y096139
X029616Y117729
X029616Y143129
X028346Y141859
X029616Y140589
X029616Y138049
X028346Y136779
X029616Y135509
X033426Y135509
X032156Y136779
X033426Y138049
X033426Y140589
X032156Y141859
X033426Y143129
X037236Y144399
X035966Y145669
X037236Y146939
X039776Y146939
X041046Y145669
X039776Y144399
X039776Y141859
X037236Y141859
X038506Y140589
X044221Y135509
X042951Y136779
X044221Y138049
X044221Y140589
X042951Y141859
X044221Y143129
X048031Y143129
X046761Y141859
X048031Y140589
X048031Y138049
X046761Y136779
X048031Y135509
X058826Y135509
X058826Y138049
X057556Y136779
X055016Y135509
X053746Y136779
X055016Y138049
X055016Y140589
X053746Y141859
X055016Y143129
X058826Y143129
X057556Y141859
X058826Y140589
X065176Y141859
X063906Y140589
X062636Y141859
X062636Y144399
X061366Y145669
X062636Y146939
X065176Y146939
X065176Y144399
X066446Y145669
X069621Y143129
X068351Y141859
X069621Y140589
X069621Y138049
X068351Y136779
X069621Y135509
X073431Y135509
X072161Y136779
X073431Y138049
X073431Y140589
X072161Y141859
X073431Y143129
X080416Y143129
X079146Y141859
X080416Y140589
X080416Y138049
X079146Y136779
X080416Y135509
X084226Y135509
X082956Y136779
X084226Y138049
X084226Y140589
X082956Y141859
X084226Y143129
X090576Y144399
X091846Y145669
X090576Y146939
X088036Y146939
X086766Y145669
X088036Y144399
X088036Y141859
X089306Y140589
X090576Y141859
X095021Y140589
X093751Y141859
X095021Y143129
X098831Y143129
X097561Y141859
X098831Y140589
X098831Y138049
X098831Y135509
X097561Y136779
X095021Y138049
X093751Y136779
X095021Y135509
X091211Y129794
X092481Y128524
X091211Y127254
X088036Y121539
X090576Y121539
X091846Y120269
X090576Y118999
X090576Y116459
X089306Y115189
X088036Y116459
X088036Y118999
X086766Y120269
X084226Y117729
X082956Y116459
X084226Y115189
X084226Y110109
X084226Y112649
X082956Y111379
X080416Y110109
X079146Y111379
X080416Y112649
X080416Y115189
X079146Y116459
X073431Y117729
X072161Y116459
X073431Y115189
X073431Y110109
X073431Y112649
X072161Y111379
X069621Y110109
X068351Y111379
X069621Y112649
X069621Y115189
X068351Y116459
X069621Y117729
X065176Y121539
X066446Y120269
X065176Y118999
X065176Y116459
X063906Y115189
X062636Y116459
X062636Y118999
X062636Y121539
X061366Y120269
X055016Y117729
X058826Y117729
X057556Y116459
X058826Y115189
X058826Y112649
X058826Y110109
X057556Y111379
X055016Y110109
X053746Y111379
X055016Y112649
X055016Y115189
X053746Y116459
X048031Y117729
X046761Y116459
X048031Y115189
X048031Y110109
X048031Y112649
X046761Y111379
X044221Y110109
X042951Y111379
X044221Y112649
X044221Y115189
X044221Y117729
X042951Y116459
X037236Y121539
X039776Y121539
X041046Y120269
X039776Y118999
X039776Y116459
X038506Y115189
X037236Y116459
X037236Y118999
X035966Y120269
X033426Y117729
X032156Y116459
X033426Y115189
X033426Y110109
X033426Y112649
X032156Y111379
X029616Y110109
X028346Y111379
X029616Y112649
X029616Y115189
X028346Y116459
X022631Y117729
X021361Y116459
X022631Y115189
X022631Y110109
X022631Y112649
X021361Y111379
X018821Y110109
X017551Y111379
X018821Y112649
X018821Y115189
X017551Y116459
X018821Y117729
X014376Y121539
X015646Y120269
X014376Y118999
X014376Y116459
X013106Y115189
X011836Y116459
X011836Y118999
X010566Y120269
X011836Y121539
X008026Y135509
X008026Y138049
X006756Y136779
X004216Y135509
X002946Y136779
X004216Y138049
X004216Y143129
X002946Y141859
X004216Y140589
X008026Y140589
X006756Y141859
X008026Y143129
X014376Y146939
X015646Y145669
X014376Y144399
X018821Y138049
X017551Y136779
X018821Y135509
X022631Y135509
X021361Y136779
X022631Y138049
X022631Y140589
X022631Y143129
X021361Y141859
X018821Y140589
X018821Y143129
X017551Y141859
X014376Y141859
X013106Y140589
X011836Y141859
X011836Y144399
X010566Y145669
X011836Y146939
X008026Y163449
X008026Y160909
X006756Y162179
X004216Y160909
X002946Y162179
X004216Y163449
X004216Y165989
X002946Y167259
X004216Y168529
X008026Y168529
X006756Y167259
X008026Y165989
X014376Y167259
X014376Y169799
X015646Y171069
X014376Y172339
X011836Y172339
X010566Y171069
X011836Y169799
X011836Y167259
X013106Y165989
X018821Y160909
X017551Y162179
X018821Y163449
X018821Y165989
X017551Y167259
X018821Y168529
X022631Y168529
X021361Y167259
X022631Y165989
X022631Y163449
X021361Y162179
X022631Y160909
X033426Y160909
X033426Y163449
X032156Y162179
X029616Y160909
X028346Y162179
X029616Y163449
X029616Y165989
X028346Y167259
X029616Y168529
X033426Y168529
X032156Y167259
X033426Y165989
X037236Y167259
X038506Y165989
X039776Y167259
X039776Y172339
X037236Y172339
X035966Y171069
X037236Y169799
X039776Y169799
X041046Y171069
X048031Y168529
X048031Y165989
X046761Y167259
X044221Y168529
X042951Y167259
X044221Y165989
X044221Y163449
X042951Y162179
X044221Y160909
X048031Y160909
X046761Y162179
X048031Y163449
X058826Y163449
X058826Y160909
X057556Y162179
X055016Y160909
X053746Y162179
X055016Y163449
X055016Y165989
X053746Y167259
X055016Y168529
X058826Y168529
X057556Y167259
X058826Y165989
X065176Y167259
X065176Y169799
X066446Y171069
X065176Y172339
X062636Y172339
X061366Y171069
X062636Y169799
X062636Y167259
X063906Y165989
X069621Y160909
X068351Y162179
X069621Y163449
X069621Y165989
X068351Y167259
X069621Y168529
X073431Y168529
X072161Y167259
X073431Y165989
X073431Y163449
X072161Y162179
X073431Y160909
X084226Y160909
X084226Y163449
X082956Y162179
X080416Y160909
X079146Y162179
X080416Y163449
X080416Y165989
X079146Y167259
X080416Y168529
X084226Y168529
X082956Y167259
X084226Y165989
X088036Y167259
X089306Y165989
X090576Y167259
X090576Y172339
X088036Y172339
X086766Y171069
X088036Y169799
X090576Y169799
X091846Y171069
X098831Y168529
X098831Y165989
X097561Y167259
X095021Y168529
X093751Y167259
X095021Y165989
X095021Y163449
X093751Y162179
X095021Y160909
X098831Y160909
X097561Y162179
X098831Y163449
X109626Y163449
X109626Y160909
X108356Y162179
X105816Y160909
X104546Y162179
X105816Y163449
X105816Y165989
X104546Y167259
X105816Y168529
X109626Y168529
X108356Y167259
X109626Y165989
X115976Y167259
X115976Y169799
X117246Y171069
X115976Y172339
X113436Y172339
X112166Y171069
X113436Y169799
X113436Y167259
X114706Y165989
X120421Y160909
X119151Y162179
X120421Y163449
X120421Y165989
X119151Y167259
X120421Y168529
X124231Y168529
X122961Y167259
X124231Y165989
X124231Y163449
X122961Y162179
X124231Y160909
X135026Y160909
X135026Y163449
X133756Y162179
X131216Y160909
X129946Y162179
X131216Y163449
X131216Y165989
X129946Y167259
X131216Y168529
X135026Y168529
X133756Y167259
X135026Y165989
X138836Y167259
X140106Y165989
X141376Y167259
X141376Y172339
X138836Y172339
X137566Y171069
X138836Y169799
X141376Y169799
X142646Y171069
X149631Y168529
X149631Y160909
X148361Y162179
X149631Y163449
X149631Y165989
X148361Y167259
X145821Y168529
X144551Y167259
X145821Y165989
X145821Y163449
X144551Y162179
X145821Y160909
X146456Y154559
X146456Y152019
X147726Y153289
X150901Y154559
X150901Y152019
X152171Y153289
X157886Y152019
X159156Y153289
X157886Y154559
X160426Y163449
X160426Y160909
X159156Y162179
X156616Y160909
X155346Y162179
X156616Y163449
X156616Y165989
X155346Y167259
X156616Y168529
X160426Y168529
X159156Y167259
X160426Y165989
X164236Y167259
X165506Y165989
X166776Y167259
X166776Y172339
X164236Y172339
X162966Y171069
X164236Y169799
X166776Y169799
X168046Y171069
X175031Y168529
X182016Y165989
X180746Y167259
X182016Y168529
X196621Y168529
X200431Y168529
X199161Y167259
X200431Y165989
X200431Y160909
X200431Y163449
X199161Y162179
X196621Y160909
X195351Y162179
X196621Y163449
X196621Y165989
X195351Y167259
X189636Y172339
X192176Y172339
X193446Y171069
X192176Y169799
X192176Y167259
X190906Y165989
X189636Y167259
X189636Y169799
X188366Y171069
X185826Y168529
X184556Y167259
X185826Y165989
X185826Y160909
X185826Y163449
X184556Y162179
X182016Y160909
X182016Y163449
X180746Y162179
X175031Y160909
X173761Y162179
X175031Y163449
X175031Y165989
X173761Y167259
X171221Y168529
X169951Y167259
X171221Y165989
X171221Y163449
X169951Y162179
X171221Y160909
X170586Y154559
X169316Y153289
X170586Y152019
X176301Y152654
X176301Y155194
X177571Y153924
X189636Y144399
X188366Y145669
X189636Y146939
X192176Y146939
X193446Y145669
X192176Y144399
X196621Y138049
X195351Y136779
X196621Y135509
X200431Y135509
X199161Y136779
X200431Y138049
X200431Y140589
X200431Y143129
X199161Y141859
X196621Y140589
X196621Y143129
X195351Y141859
X192176Y141859
X190906Y140589
X189636Y141859
X182016Y138049
X180746Y136779
X182016Y135509
X185826Y135509
X184556Y136779
X185826Y138049
X185826Y140589
X185826Y143129
X184556Y141859
X182016Y140589
X182016Y143129
X180746Y141859
X171221Y140589
X169951Y141859
X171221Y143129
X175031Y143129
X173761Y141859
X175031Y140589
X175031Y138049
X175031Y135509
X173761Y136779
X171221Y138049
X171221Y135509
X169951Y136779
X160426Y135509
X159156Y136779
X160426Y138049
X164236Y141859
X165506Y140589
X166776Y141859
X166776Y144399
X168046Y145669
X166776Y146939
X164236Y146939
X164236Y144399
X162966Y145669
X160426Y143129
X160426Y140589
X159156Y141859
X156616Y143129
X155346Y141859
X156616Y140589
X156616Y138049
X155346Y136779
X156616Y135509
X155346Y127254
X155346Y129794
X156616Y128524
X159156Y127254
X159156Y129794
X160426Y128524
X163601Y129794
X163601Y127254
X164871Y128524
X171856Y127254
X170586Y128524
X171856Y129794
X176301Y129794
X177571Y128524
X176301Y127254
X182016Y117729
X196621Y117729
X200431Y117729
X199161Y116459
X200431Y115189
X200431Y110109
X200431Y112649
X199161Y111379
X196621Y110109
X195351Y111379
X196621Y112649
X196621Y115189
X195351Y116459
X189636Y121539
X192176Y121539
X193446Y120269
X192176Y118999
X192176Y116459
X190906Y115189
X189636Y116459
X189636Y118999
X188366Y120269
X185826Y117729
X184556Y116459
X185826Y115189
X185826Y110109
X185826Y112649
X184556Y111379
X182016Y110109
X180746Y111379
X182016Y112649
X182016Y115189
X180746Y116459
X171221Y117729
X175031Y117729
X173761Y116459
X175031Y115189
X175031Y110109
X175031Y112649
X173761Y111379
X171221Y110109
X169951Y111379
X171221Y112649
X171221Y115189
X169951Y116459
X166776Y121539
X168046Y120269
X166776Y118999
X166776Y116459
X165506Y115189
X164236Y116459
X164236Y118999
X164236Y121539
X162966Y120269
X160426Y117729
X159156Y116459
X160426Y115189
X160426Y112649
X160426Y110109
X159156Y111379
X156616Y110109
X155346Y111379
X156616Y112649
X156616Y115189
X156616Y117729
X155346Y116459
X149631Y117729
X148361Y116459
X149631Y115189
X149631Y110109
X149631Y112649
X148361Y111379
X145821Y110109
X144551Y111379
X145821Y112649
X145821Y115189
X145821Y117729
X144551Y116459
X138836Y121539
X141376Y121539
X142646Y120269
X141376Y118999
X141376Y116459
X140106Y115189
X138836Y116459
X138836Y118999
X137566Y120269
X135026Y117729
X135026Y115189
X133756Y116459
X131216Y117729
X129946Y116459
X131216Y115189
X126136Y101219
X124866Y102489
X126136Y103759
X135026Y103124
X133756Y104394
X135026Y105664
X135026Y110109
X135026Y112649
X133756Y111379
X131216Y110109
X131216Y112649
X129946Y111379
X124231Y110109
X122961Y111379
X124231Y112649
X124231Y115189
X122961Y116459
X120421Y117729
X119151Y116459
X120421Y115189
X120421Y112649
X119151Y111379
X120421Y110109
X119151Y104394
X120421Y103124
X119151Y101854
X098831Y079629
X095656Y079629
X094386Y078359
X095656Y077089
X098831Y077089
X100101Y078359
X109626Y084709
X109626Y087249
X108356Y085979
X105816Y084709
X104546Y085979
X105816Y087249
X105816Y089789
X104546Y091059
X105816Y092329
X109626Y092329
X108356Y091059
X109626Y089789
X113436Y091059
X114706Y089789
X115976Y091059
X115976Y093599
X113436Y093599
X112166Y094869
X113436Y096139
X115976Y096139
X117246Y094869
X120421Y092329
X119151Y091059
X120421Y089789
X120421Y087249
X119151Y085979
X120421Y084709
X124231Y084709
X122961Y085979
X124231Y087249
X124231Y089789
X122961Y091059
X124231Y092329
X131216Y092329
X129946Y091059
X131216Y089789
X131216Y087249
X129946Y085979
X131216Y084709
X135026Y084709
X133756Y085979
X135026Y087249
X135026Y089789
X133756Y091059
X135026Y092329
X141376Y093599
X142646Y094869
X141376Y096139
X138836Y096139
X137566Y094869
X138836Y093599
X138836Y091059
X140106Y089789
X141376Y091059
X145821Y089789
X144551Y091059
X145821Y092329
X149631Y092329
X148361Y091059
X149631Y089789
X149631Y087249
X149631Y084709
X148361Y085979
X145821Y087249
X144551Y085979
X145821Y084709
X145821Y076454
X147091Y077724
X145821Y078994
X142011Y078994
X140741Y077724
X142011Y076454
X138836Y070739
X141376Y070739
X142646Y069469
X141376Y068199
X141376Y065659
X140106Y064389
X138836Y065659
X138836Y068199
X137566Y069469
X135026Y066929
X133756Y065659
X135026Y064389
X135026Y059309
X135026Y061849
X133756Y060579
X131216Y059309
X129946Y060579
X131216Y061849
X131216Y064389
X129946Y065659
X120421Y066929
X124231Y066929
X122961Y065659
X124231Y064389
X124231Y059309
X124231Y061849
X122961Y060579
X120421Y059309
X119151Y060579
X120421Y061849
X120421Y064389
X119151Y065659
X115976Y070739
X117246Y069469
X115976Y068199
X115976Y065659
X114706Y064389
X113436Y065659
X113436Y068199
X113436Y070739
X112166Y069469
X109626Y066929
X108356Y065659
X109626Y064389
X109626Y061849
X109626Y059309
X108356Y060579
X105816Y059309
X104546Y060579
X105816Y061849
X105816Y064389
X105816Y066929
X104546Y065659
X098831Y066929
X097561Y065659
X098831Y064389
X098831Y059309
X098831Y061849
X097561Y060579
X095021Y059309
X093751Y060579
X095021Y061849
X095021Y064389
X095021Y066929
X093751Y065659
X080416Y066929
X065811Y078994
X067081Y077724
X065811Y076454
X063271Y076454
X062001Y077724
X063271Y078994
X058826Y084709
X058826Y087249
X057556Y085979
X055016Y084709
X053746Y085979
X055016Y087249
X055016Y089789
X053746Y091059
X055016Y092329
X058826Y092329
X057556Y091059
X058826Y089789
X065176Y091059
X063906Y089789
X062636Y091059
X062636Y093599
X061366Y094869
X062636Y096139
X065176Y096139
X065176Y093599
X066446Y094869
X069621Y092329
X068351Y091059
X069621Y089789
X069621Y087249
X068351Y085979
X069621Y084709
X073431Y084709
X072161Y085979
X073431Y087249
X073431Y089789
X072161Y091059
X073431Y092329
X080416Y092329
X079146Y091059
X080416Y089789
X088036Y091059
X089306Y089789
X090576Y091059
X095021Y087249
X093751Y085979
X095021Y084709
X098831Y084709
X097561Y085979
X098831Y087249
X098831Y089789
X098831Y092329
X097561Y091059
X095021Y089789
X093751Y091059
X095021Y092329
X090576Y096139
X091846Y094869
X090576Y093599
X088036Y093599
X088036Y096139
X086766Y094869
X084226Y092329
X082956Y091059
X084226Y089789
X084226Y087249
X084226Y084709
X082956Y085979
X080416Y087249
X079146Y085979
X080416Y084709
X080416Y075819
X079146Y077089
X080416Y078359
X082956Y078359
X084226Y077089
X082956Y075819
X088036Y070739
X090576Y070739
X091846Y069469
X090576Y068199
X090576Y065659
X089306Y064389
X088036Y065659
X088036Y068199
X086766Y069469
X084226Y066929
X082956Y065659
X084226Y064389
X084226Y059309
X084226Y061849
X082956Y060579
X080416Y059309
X079146Y060579
X080416Y061849
X080416Y064389
X079146Y065659
X073431Y066929
X072161Y065659
X073431Y064389
X073431Y059309
X073431Y061849
X072161Y060579
X069621Y059309
X068351Y060579
X069621Y061849
X069621Y064389
X068351Y065659
X069621Y066929
X065176Y070739
X066446Y069469
X065176Y068199
X065176Y065659
X063906Y064389
X062636Y065659
X062636Y068199
X062636Y070739
X061366Y069469
X055016Y066929
X058826Y066929
X057556Y065659
X058826Y064389
X058826Y061849
X058826Y059309
X057556Y060579
X055016Y059309
X053746Y060579
X055016Y061849
X055016Y064389
X053746Y065659
X048031Y066929
X046761Y065659
X048031Y064389
X048031Y059309
X048031Y061849
X046761Y060579
X044221Y059309
X042951Y060579
X044221Y061849
X044221Y064389
X044221Y066929
X042951Y065659
X039776Y065659
X039776Y068199
X041046Y069469
X039776Y070739
X037236Y070739
X035966Y069469
X037236Y068199
X037236Y065659
X038506Y064389
X033426Y059309
X032156Y060579
X033426Y061849
X033426Y064389
X032156Y065659
X029616Y066929
X028346Y065659
X029616Y064389
X029616Y061849
X028346Y060579
X029616Y059309
X029616Y016129
X008026Y033909
X008026Y036449
X006756Y035179
X004216Y033909
X002946Y035179
X004216Y036449
X004216Y038989
X002946Y040259
X004216Y041529
X008026Y041529
X006756Y040259
X008026Y038989
X014376Y040259
X013106Y038989
X011836Y040259
X011836Y042799
X010566Y044069
X011836Y045339
X014376Y045339
X014376Y042799
X015646Y044069
X018821Y041529
X017551Y040259
X018821Y038989
X018821Y036449
X017551Y035179
X018821Y033909
X022631Y033909
X021361Y035179
X022631Y036449
X022631Y038989
X021361Y040259
X022631Y041529
X029616Y041529
X028346Y040259
X029616Y038989
X029616Y036449
X028346Y035179
X029616Y033909
X033426Y033909
X032156Y035179
X033426Y036449
X033426Y038989
X032156Y040259
X033426Y041529
X039776Y042799
X041046Y044069
X039776Y045339
X037236Y045339
X035966Y044069
X037236Y042799
X037236Y040259
X038506Y038989
X039776Y040259
X044221Y038989
X042951Y040259
X044221Y041529
X048031Y041529
X046761Y040259
X048031Y038989
X048031Y036449
X048031Y033909
X046761Y035179
X044221Y036449
X042951Y035179
X044221Y033909
X041046Y029464
X039776Y028194
X041046Y026924
X046126Y026924
X046126Y029464
X047396Y028194
X080416Y016129
X068351Y028194
X069621Y026924
X068351Y025654
X063906Y025654
X065176Y026924
X063906Y028194
X058826Y033909
X058826Y036449
X057556Y035179
X055016Y033909
X053746Y035179
X055016Y036449
X055016Y041529
X053746Y040259
X055016Y038989
X058826Y038989
X057556Y040259
X058826Y041529
X065176Y042799
X066446Y044069
X065176Y045339
X062636Y045339
X061366Y044069
X062636Y042799
X062636Y040259
X063906Y038989
X065176Y040259
X073431Y038989
X073431Y041529
X072161Y040259
X069621Y041529
X068351Y040259
X069621Y038989
X069621Y036449
X068351Y035179
X069621Y033909
X073431Y033909
X072161Y035179
X073431Y036449
X084226Y036449
X084226Y033909
X082956Y035179
X080416Y033909
X079146Y035179
X080416Y036449
X080416Y038989
X079146Y040259
X080416Y041529
X084226Y041529
X082956Y040259
X084226Y038989
X088036Y040259
X089306Y038989
X090576Y040259
X090576Y042799
X088036Y042799
X086766Y044069
X088036Y045339
X090576Y045339
X091846Y044069
X095021Y041529
X093751Y040259
X095021Y038989
X095021Y036449
X093751Y035179
X095021Y033909
X098831Y033909
X097561Y035179
X098831Y036449
X098831Y038989
X097561Y040259
X098831Y041529
X105816Y041529
X104546Y040259
X105816Y038989
X105816Y036449
X104546Y035179
X105816Y033909
X109626Y033909
X108356Y035179
X109626Y036449
X109626Y038989
X108356Y040259
X109626Y041529
X113436Y042799
X112166Y044069
X113436Y045339
X115976Y045339
X117246Y044069
X115976Y042799
X115976Y040259
X113436Y040259
X114706Y038989
X120421Y033909
X119151Y035179
X120421Y036449
X120421Y038989
X119151Y040259
X120421Y041529
X124231Y041529
X122961Y040259
X124231Y038989
X124231Y036449
X122961Y035179
X124231Y033909
X131216Y033909
X129946Y035179
X131216Y036449
X131216Y041529
X129946Y040259
X131216Y038989
X138836Y040259
X140106Y038989
X141376Y040259
X145821Y036449
X144551Y035179
X145821Y033909
X149631Y033909
X148361Y035179
X149631Y036449
X149631Y038989
X149631Y041529
X148361Y040259
X145821Y038989
X144551Y040259
X145821Y041529
X141376Y045339
X142646Y044069
X141376Y042799
X138836Y042799
X138836Y045339
X137566Y044069
X135026Y041529
X133756Y040259
X135026Y038989
X135026Y036449
X133756Y035179
X135026Y033909
X133756Y025019
X131216Y025019
X129946Y026289
X131216Y027559
X133756Y027559
X135026Y026289
X138836Y027559
X140106Y026289
X138836Y025019
X138836Y019939
X141376Y019939
X142646Y018669
X141376Y017399
X141376Y014859
X140106Y013589
X138836Y014859
X138836Y017399
X137566Y018669
X135026Y016129
X133756Y014859
X135026Y013589
X135026Y008509
X135026Y011049
X133756Y009779
X131216Y008509
X129946Y009779
X131216Y011049
X131216Y013589
X129946Y014859
X120421Y016129
X124231Y016129
X122961Y014859
X124231Y013589
X124231Y008509
X124231Y011049
X122961Y009779
X120421Y008509
X119151Y009779
X120421Y011049
X120421Y013589
X119151Y014859
X115976Y019939
X117246Y018669
X115976Y017399
X115976Y014859
X114706Y013589
X113436Y014859
X113436Y017399
X113436Y019939
X112166Y018669
X109626Y016129
X108356Y014859
X109626Y013589
X109626Y011049
X109626Y008509
X108356Y009779
X105816Y008509
X104546Y009779
X105816Y011049
X105816Y013589
X105816Y016129
X104546Y014859
X098831Y016129
X097561Y014859
X098831Y013589
X098831Y008509
X098831Y011049
X097561Y009779
X095021Y008509
X093751Y009779
X095021Y011049
X095021Y013589
X095021Y016129
X093751Y014859
X088036Y019939
X090576Y019939
X091846Y018669
X090576Y017399
X090576Y014859
X089306Y013589
X088036Y014859
X088036Y017399
X086766Y018669
X084226Y016129
X082956Y014859
X084226Y013589
X084226Y008509
X084226Y011049
X082956Y009779
X080416Y008509
X079146Y009779
X080416Y011049
X080416Y013589
X079146Y014859
X073431Y016129
X072161Y014859
X073431Y013589
X073431Y008509
X073431Y011049
X072161Y009779
X069621Y008509
X068351Y009779
X069621Y011049
X069621Y013589
X068351Y014859
X069621Y016129
X065176Y019939
X066446Y018669
X065176Y017399
X065176Y014859
X063906Y013589
X062636Y014859
X062636Y017399
X062636Y019939
X061366Y018669
X055016Y016129
X058826Y016129
X057556Y014859
X058826Y013589
X058826Y011049
X058826Y008509
X057556Y009779
X055016Y008509
X053746Y009779
X055016Y011049
X055016Y013589
X053746Y014859
X048031Y016129
X046761Y014859
X048031Y013589
X048031Y008509
X048031Y011049
X046761Y009779
X044221Y008509
X042951Y009779
X044221Y011049
X044221Y013589
X044221Y016129
X042951Y014859
X037236Y019939
X039776Y019939
X041046Y018669
X039776Y017399
X039776Y014859
X038506Y013589
X037236Y014859
X037236Y017399
X035966Y018669
X033426Y016129
X032156Y014859
X033426Y013589
X033426Y008509
X033426Y011049
X032156Y009779
X029616Y008509
X028346Y009779
X029616Y011049
X029616Y013589
X028346Y014859
X018821Y016129
X022631Y016129
X021361Y014859
X022631Y013589
X022631Y008509
X022631Y011049
X021361Y009779
X018821Y008509
X017551Y009779
X018821Y011049
X018821Y013589
X017551Y014859
X014376Y014859
X014376Y017399
X015646Y018669
X014376Y019939
X011836Y019939
X010566Y018669
X011836Y017399
X011836Y014859
X013106Y013589
X008026Y008509
X006756Y009779
X008026Y011049
X008026Y013589
X008026Y016129
X006756Y014859
X004216Y016129
X002946Y014859
X004216Y013589
X004216Y011049
X002946Y009779
X004216Y008509
T03
X185826Y018669
X185826Y020574
X114071Y156464
X117246Y163449
X117246Y161544
X115976Y159004
X113436Y159004
X112166Y163449
X112166Y161544
X095656Y154559
X098196Y154559
X112166Y138049
X112166Y136144
X113436Y133604
X115976Y133604
X117246Y136144
X117246Y138049
X150266Y145669
X150266Y147574
X145186Y147574
X145186Y145669
X142646Y138049
X142646Y136144
X141376Y133604
X138836Y133604
X137566Y136144
X137566Y138049
X135026Y147574
X135026Y145669
X129946Y145669
X129946Y147574
X124866Y147574
X124866Y145669
X119786Y145669
X119786Y147574
X114071Y151384
X109626Y145669
X109626Y147574
X104546Y147574
X104546Y145669
X099466Y145669
X099466Y147574
X094386Y147574
X094386Y145669
X084226Y145669
X084226Y147574
X079146Y147574
X079146Y145669
X074066Y145669
X074066Y147574
X068986Y147574
X068986Y145669
X002946Y145669
X002946Y147574
X023266Y183134
X018186Y171069
X018186Y172974
X018186Y176149
X023266Y176149
X023266Y172974
X023266Y171069
X028346Y171069
X028346Y172974
X033426Y172974
X033426Y171069
X035966Y163449
X035966Y161544
X037236Y159004
X039776Y159004
X041046Y161544
X041046Y163449
X043586Y171069
X043586Y172974
X048666Y172974
X048666Y171069
X053746Y171069
X053746Y172974
X058826Y172974
X058826Y171069
X061366Y163449
X061366Y161544
X062636Y159004
X065176Y159004
X066446Y161544
X066446Y163449
X068986Y171069
X068986Y172974
X074066Y172974
X074066Y171069
X079146Y171069
X079146Y172974
X084226Y172974
X084226Y171069
X086766Y163449
X086766Y161544
X088036Y159004
X090576Y159004
X091846Y161544
X091846Y163449
X094386Y172974
X094386Y171069
X099466Y171069
X099466Y172974
X104546Y172974
X104546Y171069
X109626Y171069
X109626Y172974
X109626Y196469
X109626Y198374
X104546Y198374
X104546Y196469
X099466Y196469
X099466Y198374
X094386Y198374
X094386Y196469
X091846Y188849
X091846Y186944
X090576Y184404
X088036Y184404
X086766Y186944
X086766Y188849
X084226Y196469
X084226Y198374
X079146Y198374
X079146Y196469
X074066Y196469
X074066Y198374
X068986Y198374
X068986Y196469
X066446Y188849
X066446Y186944
X065176Y184404
X062636Y184404
X061366Y186944
X061366Y188849
X058826Y196469
X058826Y198374
X053746Y198374
X053746Y196469
X048666Y196469
X048666Y198374
X043586Y198374
X043586Y196469
X041046Y188849
X041046Y186944
X039776Y184404
X037236Y184404
X035966Y186944
X035966Y188849
X033426Y196469
X033426Y198374
X028346Y198374
X028346Y196469
X023266Y196469
X023266Y198374
X018186Y198374
X018186Y196469
X002946Y196469
X002946Y198374
X008026Y198374
X008026Y196469
X010566Y186944
X010566Y188849
X015646Y188849
X015646Y186944
X018186Y183134
X014376Y184404
X011836Y184404
X002946Y171069
X002946Y172974
X008026Y172974
X008026Y171069
X011836Y159004
X010566Y161544
X010566Y163449
X015646Y163449
X015646Y161544
X014376Y159004
X018186Y157734
X023266Y157734
X033426Y147574
X033426Y145669
X028346Y145669
X028346Y147574
X023266Y150749
X023266Y147574
X023266Y145669
X018186Y145669
X018186Y147574
X018186Y150749
X011201Y152019
X006121Y152019
X008026Y147574
X008026Y145669
X010566Y136144
X010566Y138049
X015646Y138049
X015646Y136144
X014376Y133604
X011836Y133604
X002946Y096774
X002946Y094869
X008026Y094869
X008026Y096774
X018186Y099949
X018186Y096774
X018186Y094869
X061366Y061849
X061366Y059944
X062636Y057404
X065176Y057404
X066446Y061849
X066446Y059944
X091846Y059944
X091846Y061849
X086766Y061849
X086766Y059944
X088036Y057404
X090576Y057404
X112166Y036449
X112166Y034544
X113436Y032004
X115976Y032004
X117246Y034544
X117246Y036449
X150266Y045974
X150266Y044069
X145186Y044069
X145186Y045974
X135026Y045974
X135026Y044069
X137566Y036449
X137566Y034544
X138836Y032004
X141376Y032004
X142646Y036449
X142646Y034544
X160426Y020574
X160426Y018669
X155346Y018669
X155346Y020574
X150266Y020574
X150266Y018669
X145186Y018669
X145186Y020574
X135026Y020574
X135026Y018669
X129946Y018669
X129946Y020574
X126136Y029464
X126136Y024384
X124866Y020574
X124866Y018669
X119786Y018669
X119786Y020574
X109626Y020574
X109626Y018669
X104546Y018669
X104546Y020574
X099466Y020574
X099466Y018669
X094386Y018669
X094386Y020574
X084226Y020574
X084226Y018669
X066446Y011049
X066446Y009144
X065176Y006604
X055016Y004699
X060096Y004699
X062636Y006604
X061366Y009144
X061366Y011049
X058826Y020574
X058826Y018669
X053746Y018669
X053746Y020574
X049936Y030734
X043586Y030734
X043586Y025654
X043586Y020574
X043586Y018669
X048666Y018669
X048666Y020574
X049936Y025654
X056286Y028194
X061366Y028194
X072796Y030099
X072796Y025019
X068986Y020574
X068986Y018669
X074066Y018669
X074066Y020574
X079146Y020574
X079146Y018669
X080416Y004699
X085496Y004699
X086766Y011049
X086766Y009144
X088036Y006604
X090576Y006604
X091846Y011049
X091846Y009144
X105816Y004699
X110896Y004699
X112166Y011049
X112166Y009144
X113436Y006604
X115976Y006604
X117246Y011049
X117246Y009144
X120421Y004699
X125501Y004699
X131216Y004699
X136296Y004699
X137566Y011049
X137566Y009144
X138836Y006604
X141376Y006604
X142646Y011049
X142646Y009144
X156616Y004699
X161696Y004699
X162966Y011049
X162966Y009144
X164236Y006604
X166776Y006604
X168046Y009144
X168046Y011049
X170586Y020574
X170586Y018669
X175666Y018669
X175666Y020574
X180746Y020574
X180746Y018669
X182016Y004699
X187096Y004699
X188366Y011049
X188366Y009144
X189636Y006604
X192176Y006604
X193446Y009144
X193446Y011049
X201066Y020574
X201066Y018669
X195986Y018669
X195986Y020574
X192176Y051689
X197256Y051689
X201066Y044069
X201066Y045974
X195986Y045974
X195986Y044069
X193446Y036449
X193446Y034544
X192176Y032004
X189636Y032004
X188366Y034544
X188366Y036449
X185826Y044069
X185826Y045974
X180746Y045974
X180746Y044069
X175666Y044069
X175666Y045974
X170586Y045974
X170586Y044069
X168046Y036449
X168046Y034544
X166776Y032004
X164236Y032004
X162966Y034544
X162966Y036449
X160426Y045974
X160426Y044069
X155346Y044069
X155346Y045974
X155346Y069469
X155346Y071374
X160426Y071374
X160426Y069469
X162966Y061849
X162966Y059944
X164236Y057404
X166776Y057404
X168046Y059944
X168046Y061849
X170586Y069469
X170586Y071374
X175666Y071374
X175666Y069469
X180746Y069469
X180746Y071374
X185826Y071374
X185826Y069469
X188366Y061849
X188366Y059944
X189636Y057404
X192176Y057404
X193446Y059944
X193446Y061849
X195986Y071374
X195986Y069469
X201066Y069469
X201066Y071374
X201066Y094869
X201066Y096774
X195986Y096774
X195986Y094869
X193446Y087249
X193446Y085344
X192176Y082804
X189636Y082804
X188366Y085344
X188366Y087249
X185826Y094869
X185826Y096774
X185826Y120269
X185826Y122174
X180746Y122174
X180746Y120269
X175666Y120269
X175666Y122174
X170586Y122174
X170586Y120269
X168046Y112649
X168046Y110744
X166776Y108204
X164236Y108204
X162966Y110744
X162966Y112649
X160426Y120269
X160426Y122174
X155346Y122174
X155346Y120269
X150266Y120269
X150266Y122174
X145186Y122174
X145186Y120269
X135026Y120269
X135026Y122174
X129946Y122174
X129946Y120269
X124866Y120269
X124866Y122174
X119786Y122174
X119786Y120269
X117246Y112649
X117246Y110744
X115976Y108204
X113436Y108204
X112166Y110744
X112166Y112649
X109626Y122174
X109626Y120269
X104546Y120269
X104546Y122174
X099466Y122174
X099466Y120269
X094386Y120269
X094386Y122174
X079146Y122174
X079146Y120269
X074066Y120269
X074066Y122174
X068986Y122174
X068986Y120269
X066446Y112649
X066446Y110744
X065176Y108204
X062636Y108204
X061366Y110744
X061366Y112649
X058826Y120269
X058826Y122174
X053746Y122174
X053746Y120269
X048666Y120269
X048666Y122174
X041681Y125349
X043586Y122174
X043586Y120269
X035966Y110744
X035966Y112649
X041046Y112649
X041046Y110744
X039776Y108204
X037236Y108204
X033426Y094869
X033426Y096774
X028346Y096774
X028346Y094869
X023266Y094869
X023266Y096774
X023266Y099949
X023266Y106934
X018186Y106934
X015646Y112649
X015646Y110744
X014376Y108204
X011836Y108204
X010566Y110744
X010566Y112649
X002946Y122174
X002946Y120269
X008026Y120269
X008026Y122174
X006756Y127889
X011836Y127889
X018186Y122174
X018186Y120269
X023266Y120269
X023266Y122174
X028346Y122174
X028346Y120269
X033426Y120269
X033426Y122174
X036601Y125349
X028346Y132334
X033426Y132334
X035966Y138049
X035966Y136144
X037236Y133604
X039776Y133604
X041046Y136144
X041046Y138049
X043586Y145669
X043586Y147574
X048666Y147574
X048666Y145669
X053746Y145669
X053746Y147574
X058826Y147574
X058826Y145669
X061366Y138049
X061366Y136144
X062636Y133604
X065176Y133604
X066446Y138049
X066446Y136144
X074066Y131699
X079146Y131699
X086766Y136144
X086766Y138049
X091846Y138049
X091846Y136144
X090576Y133604
X088036Y133604
X086766Y131699
X086766Y126619
X084226Y122174
X084226Y120269
X086766Y110744
X086766Y112649
X091846Y112649
X091846Y110744
X090576Y108204
X088036Y108204
X084226Y094869
X084226Y096774
X079146Y096774
X079146Y094869
X074066Y094869
X074066Y096774
X068986Y096774
X068986Y094869
X066446Y087249
X066446Y085344
X065176Y082804
X062636Y082804
X061366Y085344
X061366Y087249
X058826Y094869
X058826Y096774
X053746Y096774
X053746Y094869
X048666Y094869
X048666Y096774
X043586Y096774
X043586Y094869
X041046Y085344
X041046Y087249
X035966Y087249
X035966Y085344
X037236Y082804
X039776Y082804
X050571Y076454
X055651Y076454
X058826Y069469
X058826Y071374
X053746Y071374
X053746Y069469
X048666Y069469
X048666Y071374
X043586Y071374
X043586Y069469
X041046Y061849
X041046Y059944
X039776Y057404
X037236Y057404
X035966Y059944
X035966Y061849
X033426Y069469
X033426Y071374
X028346Y071374
X028346Y069469
X023266Y069469
X023266Y071374
X023266Y074549
X024536Y076454
X024536Y078359
X023266Y081534
X015646Y085344
X015646Y087249
X010566Y087249
X010566Y085344
X011836Y082804
X014376Y082804
X018186Y081534
X019456Y078359
X019456Y076454
X018186Y074549
X018186Y071374
X018186Y069469
X008026Y069469
X008026Y071374
X008026Y076454
X002946Y076454
X002946Y071374
X002946Y069469
X002946Y045974
X002946Y044069
X008026Y044069
X008026Y045974
X011836Y057404
X010566Y059944
X010566Y061849
X015646Y061849
X015646Y059944
X014376Y057404
X018186Y056134
X023266Y056134
X033426Y044069
X033426Y045974
X028346Y045974
X028346Y044069
X023266Y044069
X023266Y045974
X023266Y049149
X018186Y049149
X018186Y045974
X018186Y044069
X015646Y034544
X015646Y036449
X010566Y036449
X010566Y034544
X011836Y032004
X014376Y032004
X018186Y018669
X018186Y020574
X018186Y023749
X016916Y026289
X011836Y026289
X002946Y018669
X002946Y020574
X008026Y020574
X008026Y018669
X011836Y006604
X010566Y009144
X010566Y011049
X015646Y011049
X015646Y009144
X014376Y006604
X017551Y004699
X022631Y004699
X029616Y004699
X034696Y004699
X041046Y011049
X041046Y009144
X039776Y006604
X037236Y006604
X035966Y009144
X035966Y011049
X033426Y018669
X033426Y020574
X028346Y020574
X028346Y018669
X023266Y018669
X023266Y020574
X023266Y023749
X028346Y030099
X033426Y030099
X035966Y036449
X035966Y034544
X037236Y032004
X039776Y032004
X041046Y034544
X041046Y036449
X043586Y044069
X043586Y045974
X048666Y045974
X048666Y044069
X053746Y044069
X053746Y045974
X058826Y045974
X058826Y044069
X061366Y036449
X061366Y034544
X062636Y032004
X065176Y032004
X066446Y034544
X066446Y036449
X068986Y044069
X068986Y045974
X074066Y045974
X074066Y044069
X079146Y044069
X079146Y045974
X084226Y045974
X084226Y044069
X086766Y036449
X086766Y034544
X088036Y032004
X090576Y032004
X091846Y034544
X091846Y036449
X094386Y045974
X094386Y044069
X099466Y044069
X099466Y045974
X107086Y049784
X104546Y045974
X104546Y044069
X109626Y044069
X109626Y045974
X112166Y049784
X119786Y044069
X119786Y045974
X126771Y049149
X124866Y045974
X124866Y044069
X129946Y044069
X129946Y045974
X131851Y049149
X137566Y061849
X137566Y059944
X138836Y057404
X141376Y057404
X142646Y059944
X142646Y061849
X145186Y071374
X145186Y069469
X150266Y069469
X150266Y071374
X149631Y074549
X149631Y079629
X137566Y085344
X137566Y087249
X142646Y087249
X142646Y085344
X141376Y082804
X138836Y082804
X138201Y079629
X138201Y074549
X135026Y069469
X135026Y071374
X124231Y080264
X124231Y075184
X129946Y071374
X129946Y069469
X124866Y069469
X124866Y071374
X119786Y071374
X119786Y069469
X117246Y061849
X117246Y059944
X115976Y057404
X113436Y057404
X112166Y059944
X112166Y061849
X109626Y071374
X109626Y069469
X104546Y069469
X104546Y071374
X099466Y071374
X099466Y069469
X094386Y069469
X094386Y071374
X091846Y077089
X092481Y080899
X086766Y087249
X086766Y085344
X079146Y080772
X075336Y075184
X074701Y077724
X069621Y077724
X070256Y075184
X068986Y071374
X068986Y069469
X074066Y069469
X074066Y071374
X079146Y071374
X079146Y069469
X084226Y069469
X084226Y071374
X086766Y077089
X084226Y080772
X087401Y080899
X088036Y082804
X090576Y082804
X091846Y085344
X091846Y087249
X094386Y094869
X094386Y096774
X099466Y096774
X099466Y094869
X104546Y094869
X104546Y096774
X109626Y096774
X109626Y094869
X112166Y087249
X112166Y085344
X113436Y082804
X115976Y082804
X117246Y085344
X117246Y087249
X124866Y096774
X124866Y094869
X119786Y094869
X119786Y096774
X122326Y100584
X122326Y105664
X130581Y105029
X130581Y099949
X129946Y096774
X129946Y094869
X135026Y094869
X135026Y096774
X137566Y101854
X137566Y103759
X142646Y110744
X142646Y112649
X137566Y112649
X137566Y110744
X138836Y108204
X141376Y108204
X142646Y103759
X142646Y101854
X145186Y094869
X145186Y096774
X150266Y096774
X150266Y094869
X155346Y094869
X155346Y096774
X160426Y096774
X160426Y094869
X162966Y087249
X162966Y085344
X164236Y082804
X166776Y082804
X168046Y085344
X168046Y087249
X170586Y094869
X170586Y096774
X175666Y096774
X175666Y094869
X180746Y094869
X180746Y096774
X182016Y101219
X182016Y106299
X188366Y112649
X188366Y110744
X189636Y108204
X192176Y108204
X193446Y110744
X193446Y112649
X195986Y122174
X195986Y120269
X201066Y120269
X201066Y122174
X201066Y145669
X201066Y147574
X195986Y147574
X195986Y145669
X193446Y138049
X193446Y136144
X192176Y133604
X189636Y133604
X188366Y136144
X188366Y138049
X185826Y145669
X185826Y147574
X180746Y147574
X180746Y145669
X175666Y145669
X175666Y147574
X170586Y147574
X170586Y145669
X168046Y138049
X168046Y136144
X166776Y133604
X164236Y133604
X162966Y136144
X162966Y138049
X160426Y147574
X160426Y145669
X155346Y145669
X155346Y147574
X155981Y176784
X155981Y181864
X150266Y196469
X150266Y198374
X145186Y198374
X145186Y196469
X142646Y188849
X142646Y186944
X141376Y184404
X138836Y184404
X137566Y186944
X137566Y188849
X135026Y196469
X135026Y198374
X129946Y198374
X129946Y196469
X124866Y196469
X124866Y198374
X119786Y198374
X119786Y196469
X117246Y186944
X117246Y188849
X112166Y188849
X112166Y186944
X113436Y184404
X115976Y184404
X119786Y181864
X119786Y176784
X119786Y171069
X119786Y172974
X124866Y172974
X124866Y171069
X129946Y171069
X129946Y172974
X135026Y172974
X135026Y171069
X137566Y163449
X137566Y161544
X138836Y159004
X141376Y159004
X142646Y161544
X142646Y163449
X145186Y171069
X145186Y172974
X150266Y172974
X150266Y171069
X155346Y171069
X155346Y172974
X160426Y172974
X160426Y171069
X162966Y163449
X162966Y161544
X164236Y159004
X166776Y159004
X168046Y161544
X168046Y163449
X170586Y171069
X170586Y172974
X175666Y172974
X175666Y171069
X180746Y171069
X180746Y172974
X185826Y172974
X185826Y171069
X188366Y163449
X188366Y161544
X189636Y159004
X192176Y159004
X193446Y161544
X193446Y163449
X195986Y172974
X195986Y171069
X201066Y171069
X201066Y172974
X201066Y196469
X201066Y198374
X195986Y198374
X195986Y196469
X193446Y188849
X193446Y186944
X192176Y184404
X189636Y184404
X188366Y186944
X188366Y188849
X185826Y196469
X185826Y198374
X180746Y198374
X180746Y196469
X175666Y196469
X175666Y198374
X170586Y198374
X170586Y196469
X168046Y188849
X168046Y186944
X166776Y184404
X164236Y184404
X162966Y186944
X162966Y188849
X160426Y196469
X160426Y198374
X155346Y198374
X155346Y196469
T04
X135661Y127254
X135661Y129794
X133121Y129794
X133121Y127254
X130581Y127254
X130581Y129794
X128041Y129794
X128041Y127254
X125501Y127254
X125501Y129794
X122961Y129794
X122961Y127254
X120421Y127254
X120421Y129794
X117881Y129794
X117881Y127254
X115341Y127254
X115341Y129794
X112801Y129794
X112801Y127254
X068986Y053594
X066446Y053594
X063906Y053594
X061366Y053594
X061366Y051054
X063906Y051054
X066446Y051054
X068986Y051054
X079146Y051054
X076606Y051054
X074066Y051054
X071526Y051054
X071526Y053594
X074066Y053594
X076606Y053594
X079146Y053594
X084226Y053594
X081686Y053594
X081686Y051054
X084226Y051054
T05
X107721Y153289
X119786Y153289
T06
X005486Y179324
X005486Y026924
X197891Y026924
X197891Y179324
M30
