G04 Output by ViewMate Deluxe V11.0.9  PentaLogix LLC*
G04 Fri Nov 28 06:42:21 2014*
%FSLAX33Y33*%
%MOMM*%
%IPPOS*%
%ADD126C,1.5113*%
%ADD127C,1.4122*%
%ADD128C,4.2037*%
%ADD129R,1.8542X1.8542*%
%ADD130C,1.8542*%
%ADD131R,4.0132X4.0132*%

%LPD*%
X0Y0D2*D126*G1X155981Y181864D3*X155981Y176784D3*X137566Y85344D3*X137566Y87249D3*X142646Y87249D3*X142646Y85344D3*X141376Y82804D3*X138836Y82804D3*X138201Y79629D3*X55016Y4699D3*X60096Y4699D3*X61366Y11049D3*X61366Y9144D3*X62636Y6604D3*X65176Y6604D3*X66446Y9144D3*X66446Y11049D3*X119786Y20574D3*X119786Y18669D3*X109626Y18669D3*X109626Y20574D3*X104546Y20574D3*X104546Y18669D3*X99466Y18669D3*X99466Y20574D3*X94386Y20574D3*X94386Y18669D3*X84226Y18669D3*X84226Y20574D3*X72796Y30099D3*X72796Y25019D3*X68986Y20574D3*X68986Y18669D3*X74066Y18669D3*X74066Y20574D3*X79146Y20574D3*X79146Y18669D3*X80416Y4699D3*X85496Y4699D3*X86766Y11049D3*X86766Y9144D3*X88036Y6604D3*X90576Y6604D3*X91846Y11049D3*X91846Y9144D3*X105816Y4699D3*X110896Y4699D3*X112166Y11049D3*X112166Y9144D3*X113436Y6604D3*X115976Y6604D3*X117246Y11049D3*X117246Y9144D3*X120421Y4699D3*X125501Y4699D3*X131216Y4699D3*X136296Y4699D3*X182016Y4699D3*X187096Y4699D3*X201066Y18669D3*X201066Y20574D3*X195986Y20574D3*X195986Y18669D3*X193446Y11049D3*X193446Y9144D3*X192176Y6604D3*X189636Y6604D3*X188366Y9144D3*X188366Y11049D3*X185826Y18669D3*X185826Y20574D3*X180746Y20574D3*X180746Y18669D3*X175666Y18669D3*X175666Y20574D3*X170586Y20574D3*X170586Y18669D3*X156616Y4699D3*X161696Y4699D3*X168046Y11049D3*X168046Y9144D3*X166776Y6604D3*X164236Y6604D3*X162966Y9144D3*X162966Y11049D3*X160426Y18669D3*X160426Y20574D3*X155346Y20574D3*X155346Y18669D3*X150266Y18669D3*X150266Y20574D3*X145186Y20574D3*X145186Y18669D3*X142646Y11049D3*X142646Y9144D3*X141376Y6604D3*X138836Y6604D3*X137566Y9144D3*X137566Y11049D3*X135026Y18669D3*X135026Y20574D3*X129946Y20574D3*X129946Y18669D3*X124866Y18669D3*X124866Y20574D3*X126136Y24384D3*X126136Y29464D3*X117246Y36449D3*X117246Y34544D3*X115976Y32004D3*X113436Y32004D3*X112166Y34544D3*X112166Y36449D3*X91846Y61849D3*X91846Y59944D3*X90576Y57404D3*X88036Y57404D3*X86766Y59944D3*X86766Y61849D3*X2946Y145669D3*X2946Y147574D3*X11836Y159004D3*X10566Y161544D3*X10566Y163449D3*X8026Y172974D3*X8026Y171069D3*X2946Y171069D3*X2946Y172974D3*X2946Y196469D3*X2946Y198374D3*X8026Y198374D3*X8026Y196469D3*X10566Y188849D3*X10566Y186944D3*X11836Y184404D3*X23266Y183134D3*X18186Y183134D3*X14376Y184404D3*X15646Y186944D3*X15646Y188849D3*X18186Y196469D3*X18186Y198374D3*X23266Y198374D3*X23266Y196469D3*X28346Y196469D3*X28346Y198374D3*X33426Y198374D3*X33426Y196469D3*X35966Y188849D3*X35966Y186944D3*X37236Y184404D3*X39776Y184404D3*X41046Y186944D3*X41046Y188849D3*X43586Y196469D3*X43586Y198374D3*X48666Y198374D3*X48666Y196469D3*X53746Y196469D3*X53746Y198374D3*X58826Y198374D3*X58826Y196469D3*X61366Y188849D3*X61366Y186944D3*X62636Y184404D3*X65176Y184404D3*X66446Y186944D3*X66446Y188849D3*X68986Y196469D3*X68986Y198374D3*X74066Y198374D3*X74066Y196469D3*X79146Y196469D3*X79146Y198374D3*X84226Y198374D3*X84226Y196469D3*X86766Y188849D3*X86766Y186944D3*X88036Y184404D3*X90576Y184404D3*X91846Y186944D3*X91846Y188849D3*X94386Y196469D3*X94386Y198374D3*X99466Y198374D3*X99466Y196469D3*X104546Y196469D3*X104546Y198374D3*X109626Y198374D3*X109626Y196469D3*X124866Y172974D3*X124866Y171069D3*X129946Y171069D3*X129946Y172974D3*X135026Y172974D3*X135026Y171069D3*X137566Y163449D3*X137566Y161544D3*X138836Y159004D3*X141376Y159004D3*X142646Y161544D3*X142646Y163449D3*X145186Y171069D3*X145186Y172974D3*X150266Y172974D3*X150266Y171069D3*X155346Y171069D3*X155346Y172974D3*X160426Y172974D3*X160426Y171069D3*X162966Y163449D3*X162966Y161544D3*X164236Y159004D3*X166776Y159004D3*X168046Y161544D3*X168046Y163449D3*X170586Y171069D3*X170586Y172974D3*X175666Y172974D3*X175666Y171069D3*X180746Y171069D3*X180746Y172974D3*X185826Y172974D3*X185826Y171069D3*X188366Y163449D3*X188366Y161544D3*X189636Y159004D3*X192176Y159004D3*X193446Y161544D3*X193446Y163449D3*X195986Y172974D3*X195986Y171069D3*X201066Y171069D3*X201066Y172974D3*X201066Y196469D3*X201066Y198374D3*X195986Y198374D3*X195986Y196469D3*X193446Y188849D3*X193446Y186944D3*X192176Y184404D3*X189636Y184404D3*X188366Y186944D3*X188366Y188849D3*X185826Y196469D3*X185826Y198374D3*X180746Y198374D3*X180746Y196469D3*X175666Y196469D3*X175666Y198374D3*X170586Y198374D3*X170586Y196469D3*X168046Y188849D3*X168046Y186944D3*X166776Y184404D3*X164236Y184404D3*X162966Y186944D3*X162966Y188849D3*X160426Y196469D3*X160426Y198374D3*X155346Y198374D3*X155346Y196469D3*X150266Y196469D3*X150266Y198374D3*X145186Y198374D3*X145186Y196469D3*X142646Y188849D3*X142646Y186944D3*X141376Y184404D3*X138836Y184404D3*X137566Y186944D3*X137566Y188849D3*X135026Y196469D3*X135026Y198374D3*X129946Y198374D3*X129946Y196469D3*X124866Y196469D3*X124866Y198374D3*X119786Y198374D3*X119786Y196469D3*X117246Y186944D3*X117246Y188849D3*X112166Y188849D3*X112166Y186944D3*X113436Y184404D3*X115976Y184404D3*X119786Y181864D3*X119786Y176784D3*X119786Y172974D3*X119786Y171069D3*X98196Y154559D3*X95656Y154559D3*X74066Y131699D3*X79146Y131699D3*X86766Y126619D3*X84226Y120269D3*X84226Y122174D3*X79146Y122174D3*X79146Y120269D3*X74066Y120269D3*X74066Y122174D3*X68986Y122174D3*X68986Y120269D3*X66446Y112649D3*X66446Y110744D3*X65176Y108204D3*X62636Y108204D3*X61366Y110744D3*X61366Y112649D3*X58826Y120269D3*X58826Y122174D3*X53746Y122174D3*X53746Y120269D3*X48666Y120269D3*X48666Y122174D3*X41681Y125349D3*X43586Y122174D3*X43586Y120269D3*X41046Y112649D3*X41046Y110744D3*X39776Y108204D3*X37236Y108204D3*X35966Y110744D3*X35966Y112649D3*X18186Y122174D3*X18186Y120269D3*X23266Y120269D3*X23266Y122174D3*X28346Y122174D3*X28346Y120269D3*X33426Y120269D3*X33426Y122174D3*X36601Y125349D3*X33426Y132334D3*X28346Y132334D3*X18186Y145669D3*X18186Y147574D3*X18186Y150749D3*X11201Y152019D3*X6121Y152019D3*X8026Y147574D3*X8026Y145669D3*X10566Y136144D3*X10566Y138049D3*X15646Y138049D3*X15646Y136144D3*X14376Y133604D3*X11836Y133604D3*X11836Y127889D3*X6756Y127889D3*X2946Y120269D3*X2946Y122174D3*X8026Y122174D3*X8026Y120269D3*X11836Y108204D3*X10566Y110744D3*X10566Y112649D3*X15646Y112649D3*X15646Y110744D3*X14376Y108204D3*X18186Y106934D3*X23266Y106934D3*X28346Y69469D3*X28346Y71374D3*X33426Y71374D3*X33426Y69469D3*X35966Y61849D3*X35966Y59944D3*X37236Y57404D3*X39776Y57404D3*X41046Y59944D3*X41046Y61849D3*X55651Y76454D3*X50571Y76454D3*X43586Y69469D3*X43586Y71374D3*X48666Y71374D3*X48666Y69469D3*X53746Y69469D3*X53746Y71374D3*X58826Y71374D3*X58826Y69469D3*X62636Y57404D3*X61366Y59944D3*X61366Y61849D3*X66446Y61849D3*X66446Y59944D3*X65176Y57404D3*X68986Y44069D3*X68986Y45974D3*X74066Y45974D3*X74066Y44069D3*X79146Y44069D3*X79146Y45974D3*X84226Y45974D3*X84226Y44069D3*X86766Y36449D3*X86766Y34544D3*X88036Y32004D3*X90576Y32004D3*X91846Y34544D3*X91846Y36449D3*X94386Y45974D3*X94386Y44069D3*X99466Y44069D3*X99466Y45974D3*X107086Y49784D3*X104546Y45974D3*X104546Y44069D3*X109626Y44069D3*X109626Y45974D3*X112166Y49784D3*X119786Y44069D3*X119786Y45974D3*X126771Y49149D3*X124866Y45974D3*X124866Y44069D3*X129946Y44069D3*X129946Y45974D3*X131851Y49149D3*X135026Y45974D3*X135026Y44069D3*X137566Y36449D3*X137566Y34544D3*X138836Y32004D3*X141376Y32004D3*X142646Y34544D3*X142646Y36449D3*X145186Y44069D3*X145186Y45974D3*X150266Y45974D3*X150266Y44069D3*X155346Y44069D3*X155346Y45974D3*X160426Y45974D3*X160426Y44069D3*X162966Y36449D3*X162966Y34544D3*X164236Y32004D3*X166776Y32004D3*X168046Y34544D3*X168046Y36449D3*X170586Y44069D3*X170586Y45974D3*X175666Y45974D3*X175666Y44069D3*X180746Y44069D3*X180746Y45974D3*X185826Y45974D3*X185826Y44069D3*X188366Y36449D3*X188366Y34544D3*X189636Y32004D3*X192176Y32004D3*X193446Y34544D3*X193446Y36449D3*X201066Y45974D3*X201066Y44069D3*X195986Y44069D3*X195986Y45974D3*X192176Y51689D3*X197256Y51689D3*X201066Y69469D3*X201066Y71374D3*X195986Y71374D3*X195986Y69469D3*X193446Y61849D3*X193446Y59944D3*X192176Y57404D3*X189636Y57404D3*X188366Y59944D3*X188366Y61849D3*X185826Y69469D3*X185826Y71374D3*X180746Y71374D3*X180746Y69469D3*X175666Y69469D3*X175666Y71374D3*X170586Y71374D3*X170586Y69469D3*X168046Y61849D3*X168046Y59944D3*X166776Y57404D3*X164236Y57404D3*X162966Y59944D3*X162966Y61849D3*X160426Y69469D3*X160426Y71374D3*X155346Y71374D3*X155346Y69469D3*X142646Y61849D3*X142646Y59944D3*X141376Y57404D3*X138836Y57404D3*X137566Y59944D3*X137566Y61849D3*X135026Y69469D3*X135026Y71374D3*X138201Y74549D3*X145186Y71374D3*X145186Y69469D3*X150266Y69469D3*X150266Y71374D3*X149631Y74549D3*X149631Y79629D3*X182016Y106299D3*X201066Y94869D3*X201066Y96774D3*X195986Y96774D3*X195986Y94869D3*X193446Y87249D3*X193446Y85344D3*X192176Y82804D3*X189636Y82804D3*X188366Y85344D3*X188366Y87249D3*X185826Y94869D3*X185826Y96774D3*X182016Y101219D3*X180746Y96774D3*X180746Y94869D3*X175666Y94869D3*X175666Y96774D3*X170586Y96774D3*X170586Y94869D3*X168046Y87249D3*X168046Y85344D3*X166776Y82804D3*X164236Y82804D3*X162966Y85344D3*X162966Y87249D3*X160426Y96774D3*X160426Y94869D3*X155346Y94869D3*X155346Y96774D3*X150266Y96774D3*X150266Y94869D3*X145186Y94869D3*X145186Y96774D3*X135026Y122174D3*X135026Y120269D3*X129946Y120269D3*X129946Y122174D3*X124866Y122174D3*X124866Y120269D3*X119786Y120269D3*X119786Y122174D3*X117246Y138049D3*X117246Y136144D3*X115976Y133604D3*X113436Y133604D3*X112166Y136144D3*X112166Y138049D3*X109626Y145669D3*X109626Y147574D3*X104546Y147574D3*X104546Y145669D3*X99466Y145669D3*X99466Y147574D3*X94386Y147574D3*X94386Y145669D3*X91846Y138049D3*X91846Y136144D3*X90576Y133604D3*X86766Y131699D3*X88036Y133604D3*X86766Y136144D3*X86766Y138049D3*X84226Y145669D3*X84226Y147574D3*X79146Y147574D3*X79146Y145669D3*X74066Y145669D3*X74066Y147574D3*X68986Y147574D3*X68986Y145669D3*X66446Y138049D3*X66446Y136144D3*X65176Y133604D3*X62636Y133604D3*X61366Y136144D3*X61366Y138049D3*X58826Y145669D3*X58826Y147574D3*X53746Y147574D3*X53746Y145669D3*X48666Y145669D3*X48666Y147574D3*X43586Y147574D3*X43586Y145669D3*X41046Y138049D3*X41046Y136144D3*X39776Y133604D3*X37236Y133604D3*X35966Y136144D3*X35966Y138049D3*X33426Y145669D3*X33426Y147574D3*X28346Y147574D3*X28346Y145669D3*X23266Y145669D3*X23266Y147574D3*X23266Y150749D3*X23266Y157734D3*X18186Y157734D3*X14376Y159004D3*X15646Y161544D3*X15646Y163449D3*X18186Y171069D3*X18186Y172974D3*X18186Y176149D3*X23266Y176149D3*X23266Y172974D3*X23266Y171069D3*X28346Y171069D3*X28346Y172974D3*X33426Y172974D3*X33426Y171069D3*X35966Y163449D3*X35966Y161544D3*X37236Y159004D3*X39776Y159004D3*X41046Y161544D3*X41046Y163449D3*X43586Y171069D3*X43586Y172974D3*X48666Y172974D3*X48666Y171069D3*X53746Y171069D3*X53746Y172974D3*X58826Y172974D3*X58826Y171069D3*X61366Y163449D3*X61366Y161544D3*X62636Y159004D3*X65176Y159004D3*X66446Y161544D3*X66446Y163449D3*X68986Y171069D3*X68986Y172974D3*X74066Y172974D3*X74066Y171069D3*X79146Y171069D3*X79146Y172974D3*X84226Y172974D3*X84226Y171069D3*X86766Y163449D3*X86766Y161544D3*X88036Y159004D3*X90576Y159004D3*X91846Y161544D3*X91846Y163449D3*X94386Y171069D3*X94386Y172974D3*X99466Y172974D3*X99466Y171069D3*X104546Y171069D3*X104546Y172974D3*X109626Y172974D3*X109626Y171069D3*X112166Y161544D3*X112166Y163449D3*X117246Y163449D3*X117246Y161544D3*X115976Y159004D3*X113436Y159004D3*X114071Y156464D3*X114071Y151384D3*X119786Y145669D3*X119786Y147574D3*X124866Y147574D3*X124866Y145669D3*X129946Y145669D3*X129946Y147574D3*X135026Y147574D3*X135026Y145669D3*X137566Y138049D3*X137566Y136144D3*X138836Y133604D3*X141376Y133604D3*X142646Y136144D3*X142646Y138049D3*X145186Y145669D3*X145186Y147574D3*X150266Y147574D3*X150266Y145669D3*X155346Y145669D3*X155346Y147574D3*X160426Y147574D3*X160426Y145669D3*X162966Y138049D3*X162966Y136144D3*X164236Y133604D3*X166776Y133604D3*X168046Y136144D3*X168046Y138049D3*X170586Y145669D3*X170586Y147574D3*X175666Y147574D3*X175666Y145669D3*X180746Y145669D3*X180746Y147574D3*X185826Y147574D3*X185826Y145669D3*X201066Y145669D3*X201066Y147574D3*X195986Y147574D3*X195986Y145669D3*X193446Y136144D3*X193446Y138049D3*X188366Y138049D3*X188366Y136144D3*X189636Y133604D3*X192176Y133604D3*X201066Y120269D3*X201066Y122174D3*X195986Y122174D3*X195986Y120269D3*X193446Y112649D3*X193446Y110744D3*X192176Y108204D3*X189636Y108204D3*X188366Y110744D3*X188366Y112649D3*X185826Y120269D3*X185826Y122174D3*X180746Y122174D3*X180746Y120269D3*X175666Y120269D3*X175666Y122174D3*X170586Y122174D3*X170586Y120269D3*X168046Y112649D3*X168046Y110744D3*X166776Y108204D3*X164236Y108204D3*X162966Y110744D3*X162966Y112649D3*X160426Y120269D3*X160426Y122174D3*X155346Y122174D3*X155346Y120269D3*X150266Y120269D3*X150266Y122174D3*X145186Y122174D3*X145186Y120269D3*X142646Y110744D3*X142646Y112649D3*X137566Y112649D3*X137566Y110744D3*X138836Y108204D3*X141376Y108204D3*X142646Y103759D3*X142646Y101854D3*X137566Y101854D3*X137566Y103759D3*X130581Y105029D3*X130581Y99949D3*X135026Y96774D3*X135026Y94869D3*X129946Y94869D3*X129946Y96774D3*X124866Y96774D3*X124866Y94869D3*X119786Y94869D3*X119786Y96774D3*X122326Y100584D3*X122326Y105664D3*X117246Y112649D3*X117246Y110744D3*X115976Y108204D3*X113436Y108204D3*X112166Y110744D3*X112166Y112649D3*X109626Y120269D3*X109626Y122174D3*X104546Y122174D3*X104546Y120269D3*X99466Y120269D3*X99466Y122174D3*X94386Y122174D3*X94386Y120269D3*X91846Y110744D3*X91846Y112649D3*X86766Y112649D3*X86766Y110744D3*X88036Y108204D3*X90576Y108204D3*X91846Y85344D3*X91846Y87249D3*X94386Y94869D3*X94386Y96774D3*X99466Y96774D3*X99466Y94869D3*X104546Y94869D3*X104546Y96774D3*X109626Y96774D3*X109626Y94869D3*X112166Y87249D3*X112166Y85344D3*X113436Y82804D3*X115976Y82804D3*X117246Y87249D3*X117246Y85344D3*X124231Y80264D3*X124231Y75184D3*X129946Y71374D3*X129946Y69469D3*X124866Y69469D3*X124866Y71374D3*X119786Y71374D3*X119786Y69469D3*X117246Y61849D3*X117246Y59944D3*X115976Y57404D3*X113436Y57404D3*X112166Y59944D3*X112166Y61849D3*X109626Y71374D3*X109626Y69469D3*X104546Y69469D3*X104546Y71374D3*X99466Y71374D3*X99466Y69469D3*X94386Y69469D3*X94386Y71374D3*X91846Y77089D3*X92481Y80899D3*X90576Y82804D3*X79146Y80772D3*X75336Y75184D3*X74701Y77724D3*X69621Y77724D3*X70256Y75184D3*X68986Y71374D3*X68986Y69469D3*X74066Y69469D3*X74066Y71374D3*X79146Y71374D3*X79146Y69469D3*X84226Y69469D3*X84226Y71374D3*X86766Y77089D3*X84226Y80772D3*X87401Y80899D3*X88036Y82804D3*X86766Y85344D3*X86766Y87249D3*X84226Y94869D3*X84226Y96774D3*X79146Y96774D3*X79146Y94869D3*X74066Y94869D3*X74066Y96774D3*X68986Y96774D3*X68986Y94869D3*X66446Y87249D3*X66446Y85344D3*X65176Y82804D3*X62636Y82804D3*X61366Y85344D3*X61366Y87249D3*X58826Y94869D3*X58826Y96774D3*X53746Y96774D3*X53746Y94869D3*X48666Y94869D3*X48666Y96774D3*X43586Y96774D3*X43586Y94869D3*X41046Y87249D3*X41046Y85344D3*X39776Y82804D3*X37236Y82804D3*X35966Y85344D3*X35966Y87249D3*X33426Y94869D3*X33426Y96774D3*X28346Y96774D3*X28346Y94869D3*X23266Y94869D3*X23266Y96774D3*X23266Y99949D3*X18186Y99949D3*X18186Y96774D3*X18186Y94869D3*X2946Y94869D3*X2946Y96774D3*X8026Y96774D3*X8026Y94869D3*X10566Y85344D3*X10566Y87249D3*X15646Y87249D3*X15646Y85344D3*X23266Y81534D3*X24536Y78359D3*X24536Y76454D3*X23266Y74549D3*X23266Y71374D3*X23266Y69469D3*X18186Y69469D3*X18186Y71374D3*X18186Y74549D3*X19456Y76454D3*X19456Y78359D3*X18186Y81534D3*X14376Y82804D3*X11836Y82804D3*X8026Y76454D3*X2946Y76454D3*X2946Y69469D3*X2946Y71374D3*X8026Y71374D3*X8026Y69469D3*X11836Y57404D3*X10566Y59944D3*X10566Y61849D3*X15646Y61849D3*X15646Y59944D3*X14376Y57404D3*X18186Y56134D3*X23266Y56134D3*X28346Y30099D3*X33426Y30099D3*X49936Y30734D3*X43586Y44069D3*X43586Y45974D3*X48666Y45974D3*X48666Y44069D3*X53746Y44069D3*X53746Y45974D3*X58826Y45974D3*X58826Y44069D3*X61366Y34544D3*X61366Y36449D3*X66446Y36449D3*X66446Y34544D3*X65176Y32004D3*X62636Y32004D3*X61366Y28194D3*X56286Y28194D3*X58826Y20574D3*X58826Y18669D3*X53746Y18669D3*X53746Y20574D3*X49936Y25654D3*X48666Y20574D3*X48666Y18669D3*X43586Y18669D3*X43586Y20574D3*X43586Y25654D3*X43586Y30734D3*X41046Y36449D3*X41046Y34544D3*X39776Y32004D3*X37236Y32004D3*X35966Y34544D3*X35966Y36449D3*X33426Y44069D3*X33426Y45974D3*X28346Y45974D3*X28346Y44069D3*X23266Y44069D3*X23266Y45974D3*X23266Y49149D3*X18186Y49149D3*X18186Y45974D3*X18186Y44069D3*X2946Y44069D3*X2946Y45974D3*X8026Y45974D3*X8026Y44069D3*X10566Y34544D3*X10566Y36449D3*X15646Y36449D3*X15646Y34544D3*X14376Y32004D3*X11836Y32004D3*X2946Y20574D3*X2946Y18669D3*X8026Y18669D3*X8026Y20574D3*X11836Y26289D3*X18186Y18669D3*X18186Y20574D3*X16916Y26289D3*X18186Y23749D3*X23266Y23749D3*X23266Y20574D3*X23266Y18669D3*X28346Y18669D3*X28346Y20574D3*X33426Y20574D3*X33426Y18669D3*X35966Y9144D3*X35966Y11049D3*X41046Y11049D3*X41046Y9144D3*X39776Y6604D3*X37236Y6604D3*X34696Y4699D3*X29616Y4699D3*X22631Y4699D3*X17551Y4699D3*X14376Y6604D3*X15646Y9144D3*X15646Y11049D3*X10566Y11049D3*X10566Y9144D3*X11836Y6604D3*D127*X156616Y193929D3*X155346Y192659D3*X156616Y191389D3*X159156Y179959D3*X159156Y177419D3*X160426Y178689D3*X163601Y177419D3*X163601Y179959D3*X164871Y178689D3*X182016Y193929D3*X180746Y192659D3*X182016Y191389D3*X189636Y192659D3*X190906Y191389D3*X192176Y192659D3*X196621Y188849D3*X195351Y187579D3*X196621Y186309D3*X200431Y186309D3*X199161Y187579D3*X200431Y188849D3*X200431Y191389D3*X200431Y193929D3*X199161Y192659D3*X196621Y191389D3*X195351Y192659D3*X196621Y193929D3*X192176Y197739D3*X193446Y196469D3*X192176Y195199D3*X189636Y195199D3*X189636Y197739D3*X188366Y196469D3*X185826Y193929D3*X184556Y192659D3*X185826Y191389D3*X185826Y188849D3*X185826Y186309D3*X184556Y187579D3*X182016Y188849D3*X180746Y187579D3*X182016Y186309D3*X176301Y179959D3*X177571Y178689D3*X176301Y177419D3*X171856Y177419D3*X170586Y178689D3*X171856Y179959D3*X171221Y188849D3*X169951Y187579D3*X171221Y186309D3*X175031Y186309D3*X173761Y187579D3*X175031Y188849D3*X175031Y191389D3*X175031Y193929D3*X173761Y192659D3*X171221Y191389D3*X171221Y193929D3*X169951Y192659D3*X164236Y192659D3*X165506Y191389D3*X166776Y192659D3*X166776Y195199D3*X168046Y196469D3*X166776Y197739D3*X164236Y197739D3*X164236Y195199D3*X162966Y196469D3*X160426Y193929D3*X159156Y192659D3*X160426Y191389D3*X160426Y186309D3*X160426Y188849D3*X159156Y187579D3*X156616Y186309D3*X156616Y188849D3*X155346Y187579D3*X8026Y186309D3*X8026Y188849D3*X6756Y187579D3*X4216Y186309D3*X2946Y187579D3*X4216Y188849D3*X4216Y191389D3*X2946Y192659D3*X4216Y193929D3*X8026Y193929D3*X6756Y192659D3*X8026Y191389D3*X14376Y192659D3*X13106Y191389D3*X11836Y192659D3*X11836Y195199D3*X10566Y196469D3*X11836Y197739D3*X14376Y197739D3*X14376Y195199D3*X15646Y196469D3*X18821Y193929D3*X17551Y192659D3*X18821Y191389D3*X18821Y188849D3*X17551Y187579D3*X18821Y186309D3*X22631Y186309D3*X21361Y187579D3*X22631Y188849D3*X22631Y191389D3*X21361Y192659D3*X22631Y193929D3*X29616Y193929D3*X28346Y192659D3*X29616Y191389D3*X29616Y188849D3*X28346Y187579D3*X29616Y186309D3*X33426Y186309D3*X32156Y187579D3*X33426Y188849D3*X33426Y191389D3*X32156Y192659D3*X33426Y193929D3*X37236Y195199D3*X35966Y196469D3*X37236Y197739D3*X39776Y197739D3*X41046Y196469D3*X39776Y195199D3*X39776Y192659D3*X37236Y192659D3*X38506Y191389D3*X44221Y186309D3*X42951Y187579D3*X44221Y188849D3*X44221Y191389D3*X42951Y192659D3*X44221Y193929D3*X48031Y193929D3*X46761Y192659D3*X48031Y191389D3*X48031Y188849D3*X46761Y187579D3*X48031Y186309D3*X58826Y186309D3*X58826Y188849D3*X57556Y187579D3*X55016Y186309D3*X53746Y187579D3*X55016Y188849D3*X55016Y191389D3*X53746Y192659D3*X55016Y193929D3*X58826Y193929D3*X57556Y192659D3*X58826Y191389D3*X65176Y192659D3*X63906Y191389D3*X62636Y192659D3*X62636Y195199D3*X61366Y196469D3*X62636Y197739D3*X65176Y197739D3*X65176Y195199D3*X66446Y196469D3*X69621Y193929D3*X68351Y192659D3*X69621Y191389D3*X69621Y188849D3*X68351Y187579D3*X69621Y186309D3*X73431Y186309D3*X72161Y187579D3*X73431Y188849D3*X73431Y191389D3*X72161Y192659D3*X73431Y193929D3*X80416Y193929D3*X79146Y192659D3*X80416Y191389D3*X80416Y188849D3*X79146Y187579D3*X80416Y186309D3*X84226Y186309D3*X82956Y187579D3*X84226Y188849D3*X84226Y191389D3*X82956Y192659D3*X84226Y193929D3*X88036Y195199D3*X86766Y196469D3*X88036Y197739D3*X90576Y197739D3*X91846Y196469D3*X90576Y195199D3*X90576Y192659D3*X88036Y192659D3*X89306Y191389D3*X95021Y186309D3*X93751Y187579D3*X95021Y188849D3*X95021Y191389D3*X93751Y192659D3*X95021Y193929D3*X98831Y193929D3*X97561Y192659D3*X98831Y191389D3*X98831Y188849D3*X97561Y187579D3*X98831Y186309D3*X109626Y186309D3*X109626Y188849D3*X108356Y187579D3*X105816Y186309D3*X104546Y187579D3*X105816Y188849D3*X105816Y191389D3*X104546Y192659D3*X105816Y193929D3*X109626Y193929D3*X108356Y192659D3*X109626Y191389D3*X113436Y192659D3*X114706Y191389D3*X115976Y192659D3*X115976Y195199D3*X113436Y195199D3*X112166Y196469D3*X113436Y197739D3*X115976Y197739D3*X117246Y196469D3*X120421Y193929D3*X119151Y192659D3*X120421Y191389D3*X120421Y188849D3*X119151Y187579D3*X120421Y186309D3*X124231Y186309D3*X122961Y187579D3*X124231Y188849D3*X124231Y191389D3*X122961Y192659D3*X124231Y193929D3*X131216Y193929D3*X129946Y192659D3*X131216Y191389D3*X131216Y188849D3*X129946Y187579D3*X131216Y186309D3*X135026Y186309D3*X133756Y187579D3*X135026Y188849D3*X135026Y191389D3*X133756Y192659D3*X135026Y193929D3*X141376Y195199D3*X142646Y196469D3*X141376Y197739D3*X138836Y197739D3*X137566Y196469D3*X138836Y195199D3*X138836Y192659D3*X140106Y191389D3*X141376Y192659D3*X145821Y191389D3*X144551Y192659D3*X145821Y193929D3*X149631Y193929D3*X148361Y192659D3*X149631Y191389D3*X149631Y188849D3*X149631Y186309D3*X148361Y187579D3*X145821Y188849D3*X144551Y187579D3*X145821Y186309D3*X144551Y181229D3*X145821Y179959D3*X144551Y178689D3*X131216Y66929D3*X115976Y49784D3*X114706Y51054D3*X115976Y52324D3*X120421Y52324D3*X119151Y51054D3*X120421Y49784D3*X131216Y16129D3*X182016Y16129D3*X196621Y16129D3*X200431Y16129D3*X199161Y14859D3*X200431Y13589D3*X200431Y8509D3*X200431Y11049D3*X199161Y9779D3*X196621Y8509D3*X195351Y9779D3*X196621Y11049D3*X196621Y13589D3*X195351Y14859D3*X189636Y19939D3*X192176Y19939D3*X193446Y18669D3*X192176Y17399D3*X192176Y14859D3*X190906Y13589D3*X189636Y14859D3*X189636Y17399D3*X188366Y18669D3*X185826Y16129D3*X184556Y14859D3*X185826Y13589D3*X185826Y8509D3*X185826Y11049D3*X184556Y9779D3*X182016Y8509D3*X180746Y9779D3*X182016Y11049D3*X182016Y13589D3*X180746Y14859D3*X171221Y16129D3*X175031Y16129D3*X173761Y14859D3*X175031Y13589D3*X175031Y8509D3*X175031Y11049D3*X173761Y9779D3*X171221Y8509D3*X169951Y9779D3*X171221Y11049D3*X171221Y13589D3*X169951Y14859D3*X166776Y19939D3*X168046Y18669D3*X166776Y17399D3*X166776Y14859D3*X165506Y13589D3*X164236Y14859D3*X164236Y17399D3*X164236Y19939D3*X162966Y18669D3*X160426Y16129D3*X159156Y14859D3*X160426Y13589D3*X160426Y11049D3*X160426Y8509D3*X159156Y9779D3*X156616Y8509D3*X155346Y9779D3*X156616Y11049D3*X156616Y13589D3*X156616Y16129D3*X155346Y14859D3*X149631Y16129D3*X148361Y14859D3*X149631Y13589D3*X149631Y8509D3*X149631Y11049D3*X148361Y9779D3*X145821Y8509D3*X144551Y9779D3*X145821Y11049D3*X145821Y13589D3*X144551Y14859D3*X145821Y16129D3*X145186Y27559D3*X143916Y26289D3*X145186Y25019D3*X148996Y25019D3*X150266Y26289D3*X148996Y27559D3*X174396Y51054D3*X173126Y52324D3*X174396Y53594D3*X176936Y53594D3*X178206Y52324D3*X176936Y51054D3*X182016Y41529D3*X180746Y40259D3*X182016Y38989D3*X189636Y40259D3*X190906Y38989D3*X192176Y40259D3*X196621Y36449D3*X195351Y35179D3*X196621Y33909D3*X200431Y33909D3*X199161Y35179D3*X200431Y36449D3*X200431Y38989D3*X200431Y41529D3*X199161Y40259D3*X196621Y38989D3*X195351Y40259D3*X196621Y41529D3*X192176Y45339D3*X193446Y44069D3*X192176Y42799D3*X189636Y42799D3*X189636Y45339D3*X188366Y44069D3*X185826Y41529D3*X184556Y40259D3*X185826Y38989D3*X185826Y36449D3*X185826Y33909D3*X184556Y35179D3*X182016Y36449D3*X182016Y33909D3*X180746Y35179D3*X171221Y33909D3*X169951Y35179D3*X171221Y36449D3*X171221Y38989D3*X169951Y40259D3*X171221Y41529D3*X175031Y41529D3*X173761Y40259D3*X175031Y38989D3*X175031Y36449D3*X173761Y35179D3*X175031Y33909D3*X176936Y25019D3*X178206Y26289D3*X176936Y27559D3*X174396Y27559D3*X174396Y25019D3*X173126Y26289D3*X169316Y25019D3*X170586Y26289D3*X169316Y27559D3*X165506Y27559D3*X166776Y26289D3*X165506Y25019D3*X159156Y25019D3*X157886Y26289D3*X159156Y27559D3*X160426Y33909D3*X160426Y36449D3*X159156Y35179D3*X156616Y33909D3*X155346Y35179D3*X156616Y36449D3*X156616Y38989D3*X155346Y40259D3*X156616Y41529D3*X160426Y41529D3*X159156Y40259D3*X160426Y38989D3*X164236Y40259D3*X165506Y38989D3*X166776Y40259D3*X166776Y45339D3*X168046Y44069D3*X166776Y42799D3*X164236Y42799D3*X162966Y44069D3*X164236Y45339D3*X163601Y51054D3*X164871Y52324D3*X163601Y53594D3*X159156Y53594D3*X160426Y52324D3*X159156Y51054D3*X156616Y51054D3*X155346Y52324D3*X156616Y53594D3*X145821Y66929D3*X144551Y65659D3*X145821Y64389D3*X145821Y61849D3*X144551Y60579D3*X145821Y59309D3*X149631Y59309D3*X148361Y60579D3*X149631Y61849D3*X149631Y64389D3*X148361Y65659D3*X149631Y66929D3*X156616Y66929D3*X155346Y65659D3*X156616Y64389D3*X156616Y61849D3*X155346Y60579D3*X156616Y59309D3*X160426Y59309D3*X159156Y60579D3*X160426Y61849D3*X160426Y64389D3*X159156Y65659D3*X160426Y66929D3*X182016Y92329D3*X180746Y91059D3*X182016Y89789D3*X189636Y91059D3*X190906Y89789D3*X192176Y91059D3*X196621Y87249D3*X195351Y85979D3*X196621Y84709D3*X200431Y84709D3*X199161Y85979D3*X200431Y87249D3*X200431Y89789D3*X200431Y92329D3*X199161Y91059D3*X196621Y89789D3*X195351Y91059D3*X196621Y92329D3*X192176Y96139D3*X193446Y94869D3*X192176Y93599D3*X189636Y93599D3*X189636Y96139D3*X188366Y94869D3*X185826Y92329D3*X184556Y91059D3*X185826Y89789D3*X185826Y87249D3*X185826Y84709D3*X184556Y85979D3*X182016Y87249D3*X182016Y84709D3*X180746Y85979D3*X171221Y84709D3*X169951Y85979D3*X171221Y87249D3*X171221Y89789D3*X169951Y91059D3*X171221Y92329D3*X175031Y92329D3*X173761Y91059D3*X175031Y89789D3*X175031Y87249D3*X173761Y85979D3*X175031Y84709D3*X176936Y77724D3*X178206Y76454D3*X176936Y75184D3*X182016Y66929D3*X196621Y66929D3*X200431Y66929D3*X199161Y65659D3*X200431Y64389D3*X200431Y59309D3*X200431Y61849D3*X199161Y60579D3*X196621Y59309D3*X195351Y60579D3*X196621Y61849D3*X196621Y64389D3*X195351Y65659D3*X189636Y70739D3*X192176Y70739D3*X193446Y69469D3*X192176Y68199D3*X192176Y65659D3*X190906Y64389D3*X189636Y65659D3*X189636Y68199D3*X188366Y69469D3*X185826Y66929D3*X184556Y65659D3*X185826Y64389D3*X185826Y59309D3*X185826Y61849D3*X184556Y60579D3*X182016Y59309D3*X180746Y60579D3*X182016Y61849D3*X182016Y64389D3*X180746Y65659D3*X171221Y66929D3*X175031Y66929D3*X173761Y65659D3*X175031Y64389D3*X175031Y59309D3*X175031Y61849D3*X173761Y60579D3*X171221Y59309D3*X169951Y60579D3*X171221Y61849D3*X171221Y64389D3*X169951Y65659D3*X166776Y65659D3*X165506Y64389D3*X164236Y65659D3*X164236Y70739D3*X162966Y69469D3*X164236Y68199D3*X166776Y68199D3*X168046Y69469D3*X166776Y70739D3*X169316Y75184D3*X169316Y77724D3*X168046Y76454D3*X163601Y78994D3*X164871Y77724D3*X163601Y76454D3*X155346Y76454D3*X155346Y78994D3*X156616Y77724D3*X159156Y76454D3*X160426Y77724D3*X159156Y78994D3*X160426Y84709D3*X160426Y87249D3*X159156Y85979D3*X156616Y84709D3*X155346Y85979D3*X156616Y87249D3*X156616Y89789D3*X155346Y91059D3*X156616Y92329D3*X160426Y92329D3*X159156Y91059D3*X160426Y89789D3*X164236Y91059D3*X165506Y89789D3*X166776Y91059D3*X166776Y93599D3*X164236Y93599D3*X162966Y94869D3*X164236Y96139D3*X166776Y96139D3*X168046Y94869D3*X175031Y101854D3*X176301Y103124D3*X175031Y104394D3*X170586Y104394D3*X170586Y101854D3*X169316Y103124D3*X166141Y103759D3*X164871Y105029D3*X163601Y103759D3*X159156Y104394D3*X160426Y103124D3*X159156Y101854D3*X150266Y101854D3*X151536Y103124D3*X150266Y104394D3*X145821Y138049D3*X144551Y136779D3*X145821Y135509D3*X149631Y135509D3*X148361Y136779D3*X149631Y138049D3*X149631Y140589D3*X149631Y143129D3*X148361Y141859D3*X145821Y143129D3*X145821Y140589D3*X144551Y141859D3*X138836Y144399D3*X137566Y145669D3*X138836Y146939D3*X141376Y146939D3*X142646Y145669D3*X141376Y144399D3*X141376Y141859D3*X140106Y140589D3*X138836Y141859D3*X131216Y138049D3*X129946Y136779D3*X131216Y135509D3*X135026Y135509D3*X133756Y136779D3*X135026Y138049D3*X135026Y140589D3*X135026Y143129D3*X133756Y141859D3*X131216Y140589D3*X131216Y143129D3*X129946Y141859D3*X105816Y143129D3*X104546Y141859D3*X105816Y140589D3*X105816Y138049D3*X104546Y136779D3*X105816Y135509D3*X109626Y135509D3*X108356Y136779D3*X109626Y138049D3*X109626Y140589D3*X108356Y141859D3*X109626Y143129D3*X113436Y144399D3*X112166Y145669D3*X113436Y146939D3*X115976Y146939D3*X117246Y145669D3*X115976Y144399D3*X115976Y141859D3*X113436Y141859D3*X114706Y140589D3*X120421Y135509D3*X119151Y136779D3*X120421Y138049D3*X120421Y140589D3*X119151Y141859D3*X120421Y143129D3*X124231Y143129D3*X122961Y141859D3*X124231Y140589D3*X124231Y138049D3*X122961Y136779D3*X124231Y135509D3*X124231Y117729D3*X115976Y121539D3*X117246Y120269D3*X115976Y118999D3*X115976Y116459D3*X114706Y115189D3*X113436Y116459D3*X113436Y118999D3*X113436Y121539D3*X112166Y120269D3*X109626Y117729D3*X108356Y116459D3*X109626Y115189D3*X109626Y112649D3*X109626Y110109D3*X108356Y111379D3*X105816Y110109D3*X104546Y111379D3*X105816Y112649D3*X105816Y115189D3*X105816Y117729D3*X104546Y116459D3*X98831Y117729D3*X97561Y116459D3*X98831Y115189D3*X98831Y110109D3*X98831Y112649D3*X97561Y111379D3*X95021Y110109D3*X93751Y111379D3*X95021Y112649D3*X95021Y115189D3*X95021Y117729D3*X93751Y116459D3*X80416Y117729D3*X82956Y126619D3*X84226Y127889D3*X82956Y129159D3*X79146Y129159D3*X80416Y127889D3*X79146Y126619D3*X75336Y126619D3*X75336Y129159D3*X74066Y127889D3*X4216Y110109D3*X2946Y111379D3*X4216Y112649D3*X4216Y115189D3*X2946Y116459D3*X4216Y117729D3*X8026Y117729D3*X6756Y116459D3*X8026Y115189D3*X8026Y112649D3*X6756Y111379D3*X8026Y110109D3*X33426Y66929D3*X18821Y66929D3*X22631Y66929D3*X21361Y65659D3*X22631Y64389D3*X22631Y59309D3*X22631Y61849D3*X21361Y60579D3*X18821Y59309D3*X17551Y60579D3*X18821Y61849D3*X18821Y64389D3*X17551Y65659D3*X4216Y66929D3*X2946Y65659D3*X4216Y64389D3*X4216Y61849D3*X2946Y60579D3*X4216Y59309D3*X8026Y59309D3*X6756Y60579D3*X8026Y61849D3*X8026Y64389D3*X6756Y65659D3*X8026Y66929D3*X11836Y70739D3*X10566Y69469D3*X11836Y68199D3*X11836Y65659D3*X13106Y64389D3*X14376Y65659D3*X14376Y68199D3*X15646Y69469D3*X14376Y70739D3*X15646Y78359D3*X16916Y77089D3*X15646Y75819D3*X13106Y75819D3*X11836Y77089D3*X13106Y78359D3*X8026Y84709D3*X8026Y87249D3*X6756Y85979D3*X4216Y84709D3*X2946Y85979D3*X4216Y87249D3*X4216Y92329D3*X2946Y91059D3*X4216Y89789D3*X8026Y89789D3*X6756Y91059D3*X8026Y92329D3*X14376Y93599D3*X15646Y94869D3*X14376Y96139D3*X11836Y96139D3*X10566Y94869D3*X11836Y93599D3*X11836Y91059D3*X13106Y89789D3*X14376Y91059D3*X22631Y89789D3*X22631Y92329D3*X21361Y91059D3*X18821Y92329D3*X17551Y91059D3*X18821Y89789D3*X18821Y87249D3*X17551Y85979D3*X18821Y84709D3*X22631Y84709D3*X21361Y85979D3*X22631Y87249D3*X33426Y87249D3*X33426Y84709D3*X32156Y85979D3*X29616Y84709D3*X28346Y85979D3*X29616Y87249D3*X29616Y89789D3*X28346Y91059D3*X29616Y92329D3*X33426Y92329D3*X32156Y91059D3*X33426Y89789D3*X37236Y91059D3*X38506Y89789D3*X39776Y91059D3*X44221Y87249D3*X42951Y85979D3*X44221Y84709D3*X48031Y84709D3*X46761Y85979D3*X48031Y87249D3*X48031Y89789D3*X48031Y92329D3*X46761Y91059D3*X44221Y89789D3*X42951Y91059D3*X44221Y92329D3*X39776Y96139D3*X41046Y94869D3*X39776Y93599D3*X37236Y93599D3*X35966Y94869D3*X37236Y96139D3*X29616Y117729D3*X29616Y143129D3*X28346Y141859D3*X29616Y140589D3*X29616Y138049D3*X28346Y136779D3*X29616Y135509D3*X33426Y135509D3*X32156Y136779D3*X33426Y138049D3*X33426Y140589D3*X32156Y141859D3*X33426Y143129D3*X37236Y144399D3*X35966Y145669D3*X37236Y146939D3*X39776Y146939D3*X41046Y145669D3*X39776Y144399D3*X39776Y141859D3*X37236Y141859D3*X38506Y140589D3*X44221Y135509D3*X42951Y136779D3*X44221Y138049D3*X44221Y140589D3*X42951Y141859D3*X44221Y143129D3*X48031Y143129D3*X46761Y141859D3*X48031Y140589D3*X48031Y138049D3*X46761Y136779D3*X48031Y135509D3*X58826Y135509D3*X58826Y138049D3*X57556Y136779D3*X55016Y135509D3*X53746Y136779D3*X55016Y138049D3*X55016Y140589D3*X53746Y141859D3*X55016Y143129D3*X58826Y143129D3*X57556Y141859D3*X58826Y140589D3*X65176Y141859D3*X63906Y140589D3*X62636Y141859D3*X62636Y144399D3*X61366Y145669D3*X62636Y146939D3*X65176Y146939D3*X65176Y144399D3*X66446Y145669D3*X69621Y143129D3*X68351Y141859D3*X69621Y140589D3*X69621Y138049D3*X68351Y136779D3*X69621Y135509D3*X73431Y135509D3*X72161Y136779D3*X73431Y138049D3*X73431Y140589D3*X72161Y141859D3*X73431Y143129D3*X80416Y143129D3*X79146Y141859D3*X80416Y140589D3*X80416Y138049D3*X79146Y136779D3*X80416Y135509D3*X84226Y135509D3*X82956Y136779D3*X84226Y138049D3*X84226Y140589D3*X82956Y141859D3*X84226Y143129D3*X90576Y144399D3*X91846Y145669D3*X90576Y146939D3*X88036Y146939D3*X86766Y145669D3*X88036Y144399D3*X88036Y141859D3*X89306Y140589D3*X90576Y141859D3*X95021Y140589D3*X93751Y141859D3*X95021Y143129D3*X98831Y143129D3*X97561Y141859D3*X98831Y140589D3*X98831Y138049D3*X98831Y135509D3*X97561Y136779D3*X95021Y138049D3*X93751Y136779D3*X95021Y135509D3*X91211Y129794D3*X92481Y128524D3*X91211Y127254D3*X88036Y121539D3*X90576Y121539D3*X91846Y120269D3*X90576Y118999D3*X90576Y116459D3*X89306Y115189D3*X88036Y116459D3*X88036Y118999D3*X86766Y120269D3*X84226Y117729D3*X82956Y116459D3*X84226Y115189D3*X84226Y110109D3*X84226Y112649D3*X82956Y111379D3*X80416Y110109D3*X79146Y111379D3*X80416Y112649D3*X80416Y115189D3*X79146Y116459D3*X73431Y117729D3*X72161Y116459D3*X73431Y115189D3*X73431Y110109D3*X73431Y112649D3*X72161Y111379D3*X69621Y110109D3*X68351Y111379D3*X69621Y112649D3*X69621Y115189D3*X68351Y116459D3*X69621Y117729D3*X65176Y121539D3*X66446Y120269D3*X65176Y118999D3*X65176Y116459D3*X63906Y115189D3*X62636Y116459D3*X62636Y118999D3*X62636Y121539D3*X61366Y120269D3*X55016Y117729D3*X58826Y117729D3*X57556Y116459D3*X58826Y115189D3*X58826Y112649D3*X58826Y110109D3*X57556Y111379D3*X55016Y110109D3*X53746Y111379D3*X55016Y112649D3*X55016Y115189D3*X53746Y116459D3*X48031Y117729D3*X46761Y116459D3*X48031Y115189D3*X48031Y110109D3*X48031Y112649D3*X46761Y111379D3*X44221Y110109D3*X42951Y111379D3*X44221Y112649D3*X44221Y115189D3*X44221Y117729D3*X42951Y116459D3*X37236Y121539D3*X39776Y121539D3*X41046Y120269D3*X39776Y118999D3*X39776Y116459D3*X38506Y115189D3*X37236Y116459D3*X37236Y118999D3*X35966Y120269D3*X33426Y117729D3*X32156Y116459D3*X33426Y115189D3*X33426Y110109D3*X33426Y112649D3*X32156Y111379D3*X29616Y110109D3*X28346Y111379D3*X29616Y112649D3*X29616Y115189D3*X28346Y116459D3*X22631Y117729D3*X21361Y116459D3*X22631Y115189D3*X22631Y110109D3*X22631Y112649D3*X21361Y111379D3*X18821Y110109D3*X17551Y111379D3*X18821Y112649D3*X18821Y115189D3*X17551Y116459D3*X18821Y117729D3*X14376Y121539D3*X15646Y120269D3*X14376Y118999D3*X14376Y116459D3*X13106Y115189D3*X11836Y116459D3*X11836Y118999D3*X10566Y120269D3*X11836Y121539D3*X8026Y135509D3*X8026Y138049D3*X6756Y136779D3*X4216Y135509D3*X2946Y136779D3*X4216Y138049D3*X4216Y143129D3*X2946Y141859D3*X4216Y140589D3*X8026Y140589D3*X6756Y141859D3*X8026Y143129D3*X14376Y146939D3*X15646Y145669D3*X14376Y144399D3*X18821Y138049D3*X17551Y136779D3*X18821Y135509D3*X22631Y135509D3*X21361Y136779D3*X22631Y138049D3*X22631Y140589D3*X22631Y143129D3*X21361Y141859D3*X18821Y140589D3*X18821Y143129D3*X17551Y141859D3*X14376Y141859D3*X13106Y140589D3*X11836Y141859D3*X11836Y144399D3*X10566Y145669D3*X11836Y146939D3*X8026Y163449D3*X8026Y160909D3*X6756Y162179D3*X4216Y160909D3*X2946Y162179D3*X4216Y163449D3*X4216Y165989D3*X2946Y167259D3*X4216Y168529D3*X8026Y168529D3*X6756Y167259D3*X8026Y165989D3*X14376Y167259D3*X14376Y169799D3*X15646Y171069D3*X14376Y172339D3*X11836Y172339D3*X10566Y171069D3*X11836Y169799D3*X11836Y167259D3*X13106Y165989D3*X18821Y160909D3*X17551Y162179D3*X18821Y163449D3*X18821Y165989D3*X17551Y167259D3*X18821Y168529D3*X22631Y168529D3*X21361Y167259D3*X22631Y165989D3*X22631Y163449D3*X21361Y162179D3*X22631Y160909D3*X33426Y160909D3*X33426Y163449D3*X32156Y162179D3*X29616Y160909D3*X28346Y162179D3*X29616Y163449D3*X29616Y165989D3*X28346Y167259D3*X29616Y168529D3*X33426Y168529D3*X32156Y167259D3*X33426Y165989D3*X37236Y167259D3*X38506Y165989D3*X39776Y167259D3*X39776Y172339D3*X37236Y172339D3*X35966Y171069D3*X37236Y169799D3*X39776Y169799D3*X41046Y171069D3*X48031Y168529D3*X48031Y165989D3*X46761Y167259D3*X44221Y168529D3*X42951Y167259D3*X44221Y165989D3*X44221Y163449D3*X42951Y162179D3*X44221Y160909D3*X48031Y160909D3*X46761Y162179D3*X48031Y163449D3*X58826Y163449D3*X58826Y160909D3*X57556Y162179D3*X55016Y160909D3*X53746Y162179D3*X55016Y163449D3*X55016Y165989D3*X53746Y167259D3*X55016Y168529D3*X58826Y168529D3*X57556Y167259D3*X58826Y165989D3*X65176Y167259D3*X65176Y169799D3*X66446Y171069D3*X65176Y172339D3*X62636Y172339D3*X61366Y171069D3*X62636Y169799D3*X62636Y167259D3*X63906Y165989D3*X69621Y160909D3*X68351Y162179D3*X69621Y163449D3*X69621Y165989D3*X68351Y167259D3*X69621Y168529D3*X73431Y168529D3*X72161Y167259D3*X73431Y165989D3*X73431Y163449D3*X72161Y162179D3*X73431Y160909D3*X84226Y160909D3*X84226Y163449D3*X82956Y162179D3*X80416Y160909D3*X79146Y162179D3*X80416Y163449D3*X80416Y165989D3*X79146Y167259D3*X80416Y168529D3*X84226Y168529D3*X82956Y167259D3*X84226Y165989D3*X88036Y167259D3*X89306Y165989D3*X90576Y167259D3*X90576Y172339D3*X88036Y172339D3*X86766Y171069D3*X88036Y169799D3*X90576Y169799D3*X91846Y171069D3*X98831Y168529D3*X98831Y165989D3*X97561Y167259D3*X95021Y168529D3*X93751Y167259D3*X95021Y165989D3*X95021Y163449D3*X93751Y162179D3*X95021Y160909D3*X98831Y160909D3*X97561Y162179D3*X98831Y163449D3*X109626Y163449D3*X109626Y160909D3*X108356Y162179D3*X105816Y160909D3*X104546Y162179D3*X105816Y163449D3*X105816Y165989D3*X104546Y167259D3*X105816Y168529D3*X109626Y168529D3*X108356Y167259D3*X109626Y165989D3*X115976Y167259D3*X115976Y169799D3*X117246Y171069D3*X115976Y172339D3*X113436Y172339D3*X112166Y171069D3*X113436Y169799D3*X113436Y167259D3*X114706Y165989D3*X120421Y160909D3*X119151Y162179D3*X120421Y163449D3*X120421Y165989D3*X119151Y167259D3*X120421Y168529D3*X124231Y168529D3*X122961Y167259D3*X124231Y165989D3*X124231Y163449D3*X122961Y162179D3*X124231Y160909D3*X135026Y160909D3*X135026Y163449D3*X133756Y162179D3*X131216Y160909D3*X129946Y162179D3*X131216Y163449D3*X131216Y165989D3*X129946Y167259D3*X131216Y168529D3*X135026Y168529D3*X133756Y167259D3*X135026Y165989D3*X138836Y167259D3*X140106Y165989D3*X141376Y167259D3*X141376Y172339D3*X138836Y172339D3*X137566Y171069D3*X138836Y169799D3*X141376Y169799D3*X142646Y171069D3*X149631Y168529D3*X149631Y160909D3*X148361Y162179D3*X149631Y163449D3*X149631Y165989D3*X148361Y167259D3*X145821Y168529D3*X144551Y167259D3*X145821Y165989D3*X145821Y163449D3*X144551Y162179D3*X145821Y160909D3*X146456Y154559D3*X146456Y152019D3*X147726Y153289D3*X150901Y154559D3*X150901Y152019D3*X152171Y153289D3*X157886Y152019D3*X159156Y153289D3*X157886Y154559D3*X160426Y163449D3*X160426Y160909D3*X159156Y162179D3*X156616Y160909D3*X155346Y162179D3*X156616Y163449D3*X156616Y165989D3*X155346Y167259D3*X156616Y168529D3*X160426Y168529D3*X159156Y167259D3*X160426Y165989D3*X164236Y167259D3*X165506Y165989D3*X166776Y167259D3*X166776Y172339D3*X164236Y172339D3*X162966Y171069D3*X164236Y169799D3*X166776Y169799D3*X168046Y171069D3*X175031Y168529D3*X182016Y165989D3*X180746Y167259D3*X182016Y168529D3*X196621Y168529D3*X200431Y168529D3*X199161Y167259D3*X200431Y165989D3*X200431Y160909D3*X200431Y163449D3*X199161Y162179D3*X196621Y160909D3*X195351Y162179D3*X196621Y163449D3*X196621Y165989D3*X195351Y167259D3*X189636Y172339D3*X192176Y172339D3*X193446Y171069D3*X192176Y169799D3*X192176Y167259D3*X190906Y165989D3*X189636Y167259D3*X189636Y169799D3*X188366Y171069D3*X185826Y168529D3*X184556Y167259D3*X185826Y165989D3*X185826Y160909D3*X185826Y163449D3*X184556Y162179D3*X182016Y160909D3*X182016Y163449D3*X180746Y162179D3*X175031Y160909D3*X173761Y162179D3*X175031Y163449D3*X175031Y165989D3*X173761Y167259D3*X171221Y168529D3*X169951Y167259D3*X171221Y165989D3*X171221Y163449D3*X169951Y162179D3*X171221Y160909D3*X170586Y154559D3*X169316Y153289D3*X170586Y152019D3*X176301Y152654D3*X176301Y155194D3*X177571Y153924D3*X189636Y144399D3*X188366Y145669D3*X189636Y146939D3*X192176Y146939D3*X193446Y145669D3*X192176Y144399D3*X196621Y138049D3*X195351Y136779D3*X196621Y135509D3*X200431Y135509D3*X199161Y136779D3*X200431Y138049D3*X200431Y140589D3*X200431Y143129D3*X199161Y141859D3*X196621Y140589D3*X196621Y143129D3*X195351Y141859D3*X192176Y141859D3*X190906Y140589D3*X189636Y141859D3*X182016Y138049D3*X180746Y136779D3*X182016Y135509D3*X185826Y135509D3*X184556Y136779D3*X185826Y138049D3*X185826Y140589D3*X185826Y143129D3*X184556Y141859D3*X182016Y140589D3*X182016Y143129D3*X180746Y141859D3*X171221Y140589D3*X169951Y141859D3*X171221Y143129D3*X175031Y143129D3*X173761Y141859D3*X175031Y140589D3*X175031Y138049D3*X175031Y135509D3*X173761Y136779D3*X171221Y138049D3*X171221Y135509D3*X169951Y136779D3*X160426Y135509D3*X159156Y136779D3*X160426Y138049D3*X164236Y141859D3*X165506Y140589D3*X166776Y141859D3*X166776Y144399D3*X168046Y145669D3*X166776Y146939D3*X164236Y146939D3*X164236Y144399D3*X162966Y145669D3*X160426Y143129D3*X160426Y140589D3*X159156Y141859D3*X156616Y143129D3*X155346Y141859D3*X156616Y140589D3*X156616Y138049D3*X155346Y136779D3*X156616Y135509D3*X155346Y127254D3*X155346Y129794D3*X156616Y128524D3*X159156Y127254D3*X159156Y129794D3*X160426Y128524D3*X163601Y129794D3*X163601Y127254D3*X164871Y128524D3*X171856Y127254D3*X170586Y128524D3*X171856Y129794D3*X176301Y129794D3*X177571Y128524D3*X176301Y127254D3*X182016Y117729D3*X196621Y117729D3*X200431Y117729D3*X199161Y116459D3*X200431Y115189D3*X200431Y110109D3*X200431Y112649D3*X199161Y111379D3*X196621Y110109D3*X195351Y111379D3*X196621Y112649D3*X196621Y115189D3*X195351Y116459D3*X189636Y121539D3*X192176Y121539D3*X193446Y120269D3*X192176Y118999D3*X192176Y116459D3*X190906Y115189D3*X189636Y116459D3*X189636Y118999D3*X188366Y120269D3*X185826Y117729D3*X184556Y116459D3*X185826Y115189D3*X185826Y110109D3*X185826Y112649D3*X184556Y111379D3*X182016Y110109D3*X180746Y111379D3*X182016Y112649D3*X182016Y115189D3*X180746Y116459D3*X171221Y117729D3*X175031Y117729D3*X173761Y116459D3*X175031Y115189D3*X175031Y110109D3*X175031Y112649D3*X173761Y111379D3*X171221Y110109D3*X169951Y111379D3*X171221Y112649D3*X171221Y115189D3*X169951Y116459D3*X166776Y121539D3*X168046Y120269D3*X166776Y118999D3*X166776Y116459D3*X165506Y115189D3*X164236Y116459D3*X164236Y118999D3*X164236Y121539D3*X162966Y120269D3*X160426Y117729D3*X159156Y116459D3*X160426Y115189D3*X160426Y112649D3*X160426Y110109D3*X159156Y111379D3*X156616Y110109D3*X155346Y111379D3*X156616Y112649D3*X156616Y115189D3*X156616Y117729D3*X155346Y116459D3*X149631Y117729D3*X148361Y116459D3*X149631Y115189D3*X149631Y110109D3*X149631Y112649D3*X148361Y111379D3*X145821Y110109D3*X144551Y111379D3*X145821Y112649D3*X145821Y115189D3*X145821Y117729D3*X144551Y116459D3*X138836Y121539D3*X141376Y121539D3*X142646Y120269D3*X141376Y118999D3*X141376Y116459D3*X140106Y115189D3*X138836Y116459D3*X138836Y118999D3*X137566Y120269D3*X135026Y117729D3*X135026Y115189D3*X133756Y116459D3*X131216Y117729D3*X129946Y116459D3*X131216Y115189D3*X126136Y101219D3*X124866Y102489D3*X126136Y103759D3*X135026Y103124D3*X133756Y104394D3*X135026Y105664D3*X135026Y110109D3*X135026Y112649D3*X133756Y111379D3*X131216Y110109D3*X131216Y112649D3*X129946Y111379D3*X124231Y110109D3*X122961Y111379D3*X124231Y112649D3*X124231Y115189D3*X122961Y116459D3*X120421Y117729D3*X119151Y116459D3*X120421Y115189D3*X120421Y112649D3*X119151Y111379D3*X120421Y110109D3*X119151Y104394D3*X120421Y103124D3*X119151Y101854D3*X98831Y79629D3*X95656Y79629D3*X94386Y78359D3*X95656Y77089D3*X98831Y77089D3*X100101Y78359D3*X109626Y84709D3*X109626Y87249D3*X108356Y85979D3*X105816Y84709D3*X104546Y85979D3*X105816Y87249D3*X105816Y89789D3*X104546Y91059D3*X105816Y92329D3*X109626Y92329D3*X108356Y91059D3*X109626Y89789D3*X113436Y91059D3*X114706Y89789D3*X115976Y91059D3*X115976Y93599D3*X113436Y93599D3*X112166Y94869D3*X113436Y96139D3*X115976Y96139D3*X117246Y94869D3*X120421Y92329D3*X119151Y91059D3*X120421Y89789D3*X120421Y87249D3*X119151Y85979D3*X120421Y84709D3*X124231Y84709D3*X122961Y85979D3*X124231Y87249D3*X124231Y89789D3*X122961Y91059D3*X124231Y92329D3*X131216Y92329D3*X129946Y91059D3*X131216Y89789D3*X131216Y87249D3*X129946Y85979D3*X131216Y84709D3*X135026Y84709D3*X133756Y85979D3*X135026Y87249D3*X135026Y89789D3*X133756Y91059D3*X135026Y92329D3*X141376Y93599D3*X142646Y94869D3*X141376Y96139D3*X138836Y96139D3*X137566Y94869D3*X138836Y93599D3*X138836Y91059D3*X140106Y89789D3*X141376Y91059D3*X145821Y89789D3*X144551Y91059D3*X145821Y92329D3*X149631Y92329D3*X148361Y91059D3*X149631Y89789D3*X149631Y87249D3*X149631Y84709D3*X148361Y85979D3*X145821Y87249D3*X144551Y85979D3*X145821Y84709D3*X145821Y76454D3*X147091Y77724D3*X145821Y78994D3*X142011Y78994D3*X140741Y77724D3*X142011Y76454D3*X138836Y70739D3*X141376Y70739D3*X142646Y69469D3*X141376Y68199D3*X141376Y65659D3*X140106Y64389D3*X138836Y65659D3*X138836Y68199D3*X137566Y69469D3*X135026Y66929D3*X133756Y65659D3*X135026Y64389D3*X135026Y59309D3*X135026Y61849D3*X133756Y60579D3*X131216Y59309D3*X129946Y60579D3*X131216Y61849D3*X131216Y64389D3*X129946Y65659D3*X120421Y66929D3*X124231Y66929D3*X122961Y65659D3*X124231Y64389D3*X124231Y59309D3*X124231Y61849D3*X122961Y60579D3*X120421Y59309D3*X119151Y60579D3*X120421Y61849D3*X120421Y64389D3*X119151Y65659D3*X115976Y70739D3*X117246Y69469D3*X115976Y68199D3*X115976Y65659D3*X114706Y64389D3*X113436Y65659D3*X113436Y68199D3*X113436Y70739D3*X112166Y69469D3*X109626Y66929D3*X108356Y65659D3*X109626Y64389D3*X109626Y61849D3*X109626Y59309D3*X108356Y60579D3*X105816Y59309D3*X104546Y60579D3*X105816Y61849D3*X105816Y64389D3*X105816Y66929D3*X104546Y65659D3*X98831Y66929D3*X97561Y65659D3*X98831Y64389D3*X98831Y59309D3*X98831Y61849D3*X97561Y60579D3*X95021Y59309D3*X93751Y60579D3*X95021Y61849D3*X95021Y64389D3*X95021Y66929D3*X93751Y65659D3*X80416Y66929D3*X65811Y78994D3*X67081Y77724D3*X65811Y76454D3*X63271Y76454D3*X62001Y77724D3*X63271Y78994D3*X58826Y84709D3*X58826Y87249D3*X57556Y85979D3*X55016Y84709D3*X53746Y85979D3*X55016Y87249D3*X55016Y89789D3*X53746Y91059D3*X55016Y92329D3*X58826Y92329D3*X57556Y91059D3*X58826Y89789D3*X65176Y91059D3*X63906Y89789D3*X62636Y91059D3*X62636Y93599D3*X61366Y94869D3*X62636Y96139D3*X65176Y96139D3*X65176Y93599D3*X66446Y94869D3*X69621Y92329D3*X68351Y91059D3*X69621Y89789D3*X69621Y87249D3*X68351Y85979D3*X69621Y84709D3*X73431Y84709D3*X72161Y85979D3*X73431Y87249D3*X73431Y89789D3*X72161Y91059D3*X73431Y92329D3*X80416Y92329D3*X79146Y91059D3*X80416Y89789D3*X88036Y91059D3*X89306Y89789D3*X90576Y91059D3*X95021Y87249D3*X93751Y85979D3*X95021Y84709D3*X98831Y84709D3*X97561Y85979D3*X98831Y87249D3*X98831Y89789D3*X98831Y92329D3*X97561Y91059D3*X95021Y89789D3*X93751Y91059D3*X95021Y92329D3*X90576Y96139D3*X91846Y94869D3*X90576Y93599D3*X88036Y93599D3*X88036Y96139D3*X86766Y94869D3*X84226Y92329D3*X82956Y91059D3*X84226Y89789D3*X84226Y87249D3*X84226Y84709D3*X82956Y85979D3*X80416Y87249D3*X79146Y85979D3*X80416Y84709D3*X80416Y75819D3*X79146Y77089D3*X80416Y78359D3*X82956Y78359D3*X84226Y77089D3*X82956Y75819D3*X88036Y70739D3*X90576Y70739D3*X91846Y69469D3*X90576Y68199D3*X90576Y65659D3*X89306Y64389D3*X88036Y65659D3*X88036Y68199D3*X86766Y69469D3*X84226Y66929D3*X82956Y65659D3*X84226Y64389D3*X84226Y59309D3*X84226Y61849D3*X82956Y60579D3*X80416Y59309D3*X79146Y60579D3*X80416Y61849D3*X80416Y64389D3*X79146Y65659D3*X73431Y66929D3*X72161Y65659D3*X73431Y64389D3*X73431Y59309D3*X73431Y61849D3*X72161Y60579D3*X69621Y59309D3*X68351Y60579D3*X69621Y61849D3*X69621Y64389D3*X68351Y65659D3*X69621Y66929D3*X65176Y70739D3*X66446Y69469D3*X65176Y68199D3*X65176Y65659D3*X63906Y64389D3*X62636Y65659D3*X62636Y68199D3*X62636Y70739D3*X61366Y69469D3*X55016Y66929D3*X58826Y66929D3*X57556Y65659D3*X58826Y64389D3*X58826Y61849D3*X58826Y59309D3*X57556Y60579D3*X55016Y59309D3*X53746Y60579D3*X55016Y61849D3*X55016Y64389D3*X53746Y65659D3*X48031Y66929D3*X46761Y65659D3*X48031Y64389D3*X48031Y59309D3*X48031Y61849D3*X46761Y60579D3*X44221Y59309D3*X42951Y60579D3*X44221Y61849D3*X44221Y64389D3*X44221Y66929D3*X42951Y65659D3*X39776Y65659D3*X39776Y68199D3*X41046Y69469D3*X39776Y70739D3*X37236Y70739D3*X35966Y69469D3*X37236Y68199D3*X37236Y65659D3*X38506Y64389D3*X33426Y59309D3*X32156Y60579D3*X33426Y61849D3*X33426Y64389D3*X32156Y65659D3*X29616Y66929D3*X28346Y65659D3*X29616Y64389D3*X29616Y61849D3*X28346Y60579D3*X29616Y59309D3*X29616Y16129D3*X8026Y33909D3*X8026Y36449D3*X6756Y35179D3*X4216Y33909D3*X2946Y35179D3*X4216Y36449D3*X4216Y38989D3*X2946Y40259D3*X4216Y41529D3*X8026Y41529D3*X6756Y40259D3*X8026Y38989D3*X14376Y40259D3*X13106Y38989D3*X11836Y40259D3*X11836Y42799D3*X10566Y44069D3*X11836Y45339D3*X14376Y45339D3*X14376Y42799D3*X15646Y44069D3*X18821Y41529D3*X17551Y40259D3*X18821Y38989D3*X18821Y36449D3*X17551Y35179D3*X18821Y33909D3*X22631Y33909D3*X21361Y35179D3*X22631Y36449D3*X22631Y38989D3*X21361Y40259D3*X22631Y41529D3*X29616Y41529D3*X28346Y40259D3*X29616Y38989D3*X29616Y36449D3*X28346Y35179D3*X29616Y33909D3*X33426Y33909D3*X32156Y35179D3*X33426Y36449D3*X33426Y38989D3*X32156Y40259D3*X33426Y41529D3*X39776Y42799D3*X41046Y44069D3*X39776Y45339D3*X37236Y45339D3*X35966Y44069D3*X37236Y42799D3*X37236Y40259D3*X38506Y38989D3*X39776Y40259D3*X44221Y38989D3*X42951Y40259D3*X44221Y41529D3*X48031Y41529D3*X46761Y40259D3*X48031Y38989D3*X48031Y36449D3*X48031Y33909D3*X46761Y35179D3*X44221Y36449D3*X42951Y35179D3*X44221Y33909D3*X41046Y29464D3*X39776Y28194D3*X41046Y26924D3*X46126Y26924D3*X46126Y29464D3*X47396Y28194D3*X80416Y16129D3*X68351Y28194D3*X69621Y26924D3*X68351Y25654D3*X63906Y25654D3*X65176Y26924D3*X63906Y28194D3*X58826Y33909D3*X58826Y36449D3*X57556Y35179D3*X55016Y33909D3*X53746Y35179D3*X55016Y36449D3*X55016Y41529D3*X53746Y40259D3*X55016Y38989D3*X58826Y38989D3*X57556Y40259D3*X58826Y41529D3*X65176Y42799D3*X66446Y44069D3*X65176Y45339D3*X62636Y45339D3*X61366Y44069D3*X62636Y42799D3*X62636Y40259D3*X63906Y38989D3*X65176Y40259D3*X73431Y38989D3*X73431Y41529D3*X72161Y40259D3*X69621Y41529D3*X68351Y40259D3*X69621Y38989D3*X69621Y36449D3*X68351Y35179D3*X69621Y33909D3*X73431Y33909D3*X72161Y35179D3*X73431Y36449D3*X84226Y36449D3*X84226Y33909D3*X82956Y35179D3*X80416Y33909D3*X79146Y35179D3*X80416Y36449D3*X80416Y38989D3*X79146Y40259D3*X80416Y41529D3*X84226Y41529D3*X82956Y40259D3*X84226Y38989D3*X88036Y40259D3*X89306Y38989D3*X90576Y40259D3*X90576Y42799D3*X88036Y42799D3*X86766Y44069D3*X88036Y45339D3*X90576Y45339D3*X91846Y44069D3*X95021Y41529D3*X93751Y40259D3*X95021Y38989D3*X95021Y36449D3*X93751Y35179D3*X95021Y33909D3*X98831Y33909D3*X97561Y35179D3*X98831Y36449D3*X98831Y38989D3*X97561Y40259D3*X98831Y41529D3*X105816Y41529D3*X104546Y40259D3*X105816Y38989D3*X105816Y36449D3*X104546Y35179D3*X105816Y33909D3*X109626Y33909D3*X108356Y35179D3*X109626Y36449D3*X109626Y38989D3*X108356Y40259D3*X109626Y41529D3*X113436Y42799D3*X112166Y44069D3*X113436Y45339D3*X115976Y45339D3*X117246Y44069D3*X115976Y42799D3*X115976Y40259D3*X113436Y40259D3*X114706Y38989D3*X120421Y33909D3*X119151Y35179D3*X120421Y36449D3*X120421Y38989D3*X119151Y40259D3*X120421Y41529D3*X124231Y41529D3*X122961Y40259D3*X124231Y38989D3*X124231Y36449D3*X122961Y35179D3*X124231Y33909D3*X131216Y33909D3*X129946Y35179D3*X131216Y36449D3*X131216Y41529D3*X129946Y40259D3*X131216Y38989D3*X138836Y40259D3*X140106Y38989D3*X141376Y40259D3*X145821Y36449D3*X144551Y35179D3*X145821Y33909D3*X149631Y33909D3*X148361Y35179D3*X149631Y36449D3*X149631Y38989D3*X149631Y41529D3*X148361Y40259D3*X145821Y38989D3*X144551Y40259D3*X145821Y41529D3*X141376Y45339D3*X142646Y44069D3*X141376Y42799D3*X138836Y42799D3*X138836Y45339D3*X137566Y44069D3*X135026Y41529D3*X133756Y40259D3*X135026Y38989D3*X135026Y36449D3*X133756Y35179D3*X135026Y33909D3*X133756Y25019D3*X131216Y25019D3*X129946Y26289D3*X131216Y27559D3*X133756Y27559D3*X135026Y26289D3*X138836Y27559D3*X140106Y26289D3*X138836Y25019D3*X138836Y19939D3*X141376Y19939D3*X142646Y18669D3*X141376Y17399D3*X141376Y14859D3*X140106Y13589D3*X138836Y14859D3*X138836Y17399D3*X137566Y18669D3*X135026Y16129D3*X133756Y14859D3*X135026Y13589D3*X135026Y8509D3*X135026Y11049D3*X133756Y9779D3*X131216Y8509D3*X129946Y9779D3*X131216Y11049D3*X131216Y13589D3*X129946Y14859D3*X120421Y16129D3*X124231Y16129D3*X122961Y14859D3*X124231Y13589D3*X124231Y8509D3*X124231Y11049D3*X122961Y9779D3*X120421Y8509D3*X119151Y9779D3*X120421Y11049D3*X120421Y13589D3*X119151Y14859D3*X115976Y19939D3*X117246Y18669D3*X115976Y17399D3*X115976Y14859D3*X114706Y13589D3*X113436Y14859D3*X113436Y17399D3*X113436Y19939D3*X112166Y18669D3*X109626Y16129D3*X108356Y14859D3*X109626Y13589D3*X109626Y11049D3*X109626Y8509D3*X108356Y9779D3*X105816Y8509D3*X104546Y9779D3*X105816Y11049D3*X105816Y13589D3*X105816Y16129D3*X104546Y14859D3*X98831Y16129D3*X97561Y14859D3*X98831Y13589D3*X98831Y8509D3*X98831Y11049D3*X97561Y9779D3*X95021Y8509D3*X93751Y9779D3*X95021Y11049D3*X95021Y13589D3*X95021Y16129D3*X93751Y14859D3*X88036Y19939D3*X90576Y19939D3*X91846Y18669D3*X90576Y17399D3*X90576Y14859D3*X89306Y13589D3*X88036Y14859D3*X88036Y17399D3*X86766Y18669D3*X84226Y16129D3*X82956Y14859D3*X84226Y13589D3*X84226Y8509D3*X84226Y11049D3*X82956Y9779D3*X80416Y8509D3*X79146Y9779D3*X80416Y11049D3*X80416Y13589D3*X79146Y14859D3*X73431Y16129D3*X72161Y14859D3*X73431Y13589D3*X73431Y8509D3*X73431Y11049D3*X72161Y9779D3*X69621Y8509D3*X68351Y9779D3*X69621Y11049D3*X69621Y13589D3*X68351Y14859D3*X69621Y16129D3*X65176Y19939D3*X66446Y18669D3*X65176Y17399D3*X65176Y14859D3*X63906Y13589D3*X62636Y14859D3*X62636Y17399D3*X62636Y19939D3*X61366Y18669D3*X55016Y16129D3*X58826Y16129D3*X57556Y14859D3*X58826Y13589D3*X58826Y11049D3*X58826Y8509D3*X57556Y9779D3*X55016Y8509D3*X53746Y9779D3*X55016Y11049D3*X55016Y13589D3*X53746Y14859D3*X48031Y16129D3*X46761Y14859D3*X48031Y13589D3*X48031Y8509D3*X48031Y11049D3*X46761Y9779D3*X44221Y8509D3*X42951Y9779D3*X44221Y11049D3*X44221Y13589D3*X44221Y16129D3*X42951Y14859D3*X37236Y19939D3*X39776Y19939D3*X41046Y18669D3*X39776Y17399D3*X39776Y14859D3*X38506Y13589D3*X37236Y14859D3*X37236Y17399D3*X35966Y18669D3*X33426Y16129D3*X32156Y14859D3*X33426Y13589D3*X33426Y8509D3*X33426Y11049D3*X32156Y9779D3*X29616Y8509D3*X28346Y9779D3*X29616Y11049D3*X29616Y13589D3*X28346Y14859D3*X18821Y16129D3*X22631Y16129D3*X21361Y14859D3*X22631Y13589D3*X22631Y8509D3*X22631Y11049D3*X21361Y9779D3*X18821Y8509D3*X17551Y9779D3*X18821Y11049D3*X18821Y13589D3*X17551Y14859D3*X14376Y14859D3*X14376Y17399D3*X15646Y18669D3*X14376Y19939D3*X11836Y19939D3*X10566Y18669D3*X11836Y17399D3*X11836Y14859D3*X13106Y13589D3*X8026Y8509D3*X6756Y9779D3*X8026Y11049D3*X8026Y13589D3*X8026Y16129D3*X6756Y14859D3*X4216Y16129D3*X2946Y14859D3*X4216Y13589D3*X4216Y11049D3*X2946Y9779D3*X4216Y8509D3*D128*X5486Y179324D3*X5486Y26924D3*X197891Y26924D3*X197891Y179324D3*D129*X61366Y53594D3*X112801Y129794D3*D130*X135661Y129794D3*X135661Y127254D3*X133121Y127254D3*X133121Y129794D3*X130581Y129794D3*X130581Y127254D3*X128041Y127254D3*X128041Y129794D3*X125501Y129794D3*X125501Y127254D3*X122961Y127254D3*X122961Y129794D3*X120421Y129794D3*X120421Y127254D3*X117881Y127254D3*X117881Y129794D3*X115341Y129794D3*X115341Y127254D3*X112801Y127254D3*X84226Y53594D3*X84226Y51054D3*X81686Y51054D3*X81686Y53594D3*X79146Y53594D3*X79146Y51054D3*X76606Y51054D3*X76606Y53594D3*X74066Y53594D3*X74066Y51054D3*X71526Y51054D3*X71526Y53594D3*X68986Y53594D3*X68986Y51054D3*X66446Y51054D3*X66446Y53594D3*X63906Y53594D3*X63906Y51054D3*X61366Y51054D3*D131*X107721Y153289D3*X119786Y153289D3*X0Y0D2*M02*