
M48
METRIC,TZ,000.000
T01C0.701
T02C0.8
T03C1.199
T04C3.2
%
M71
G90
T01
X025019Y015070
X026289Y016340
X025019Y017610
X021209Y017610
X019939Y016340
X018669Y017610
X015494Y015705
X012954Y015705
X014224Y014435
X021844Y009355
X020574Y010625
X019304Y009355
X015494Y009355
X014224Y010625
X012954Y009355
T02
X012954Y022055
X007874Y022055
X007239Y015070
X007239Y017610
X011049Y018245
X016129Y018245
X032639Y013800
X032639Y011260
X027178Y008720
X025019Y006815
X023114Y006815
X018034Y006815
X016129Y006815
X011049Y006815
X007239Y007450
X007239Y009990
X014859Y012530
X017399Y014435
X019939Y012530
X022479Y014435
X025019Y011895
X027178Y013800
T03
X004064Y016340
X004064Y008720
X033274Y008085
X033274Y016975
X024384Y022055
X021209Y022055
T04
X032639Y003640
X032639Y021420
X003429Y021420
X003429Y003640
M30
