G04 Output by ViewMate Deluxe V11.0.9  PentaLogix LLC*
G04 Sun May 11 19:15:31 2014*
%FSLAX33Y33*%
%MOMM*%
%IPPOS*%
%ADD10C,1.3081*%
%ADD11R,1.8009X1.8009*%
%ADD12C,1.209*%
%ADD13C,0.4064*%

%LPD*%
X0Y0D2*D13*G1X2009Y18984D2*X1524Y18984D1*X8717Y21400D2*X12057Y21400D1*X11869Y21803D2*X8918Y21803D1*X8933Y22205D2*X11852Y22205D1*X11989Y22609D2*X8793Y22609D1*X34544Y9322D2*X34412Y9322D1*X27523Y9726D2*X34544Y9726D1*X31628Y10932D2*X25466Y10932D1*X25936Y11336D2*X31580Y11336D1*X31689Y11737D2*X26078Y11737D1*X26065Y12141D2*X32019Y12141D1*X31895Y14557D2*X27922Y14557D1*X28179Y14153D2*X31638Y14153D1*X31580Y13752D2*X28237Y13752D1*X28138Y13348D2*X31679Y13348D1*X31994Y12946D2*X27823Y12946D1*X33284Y12946D2*X34544Y12946D1*X34544Y13348D2*X33599Y13348D1*X33698Y13752D2*X34544Y13752D1*X34544Y14153D2*X33640Y14153D1*X33383Y14557D2*X34544Y14557D1*X33238Y14699D2*X33538Y14402D1*X33698Y14011*X33698Y13589*X33538Y13200*X33238Y12901*X32850Y12741*X32428Y12741*X32040Y12901*X31740Y13200*X31580Y13589*X31580Y14011*X31740Y14402*X32040Y14699*X32428Y14862*X32850Y14862*X33238Y14699*X34437Y15763D2*X34544Y15763D1*X6126Y20594D2*X29942Y20594D1*X30094Y20193D2*X5974Y20193D1*X5743Y19789D2*X30325Y19789D1*X30686Y19388D2*X5382Y19388D1*X34544Y18984D2*X34059Y18984D1*X34544Y18179D2*X34445Y18179D1*X25314Y18583D2*X34544Y18583D1*X23053Y20998D2*X22515Y20998D1*X30302Y23010D2*X25740Y23010D1*X25740Y22609D2*X30069Y22609D1*X29931Y22205D2*X25740Y22205D1*X25740Y21803D2*X29822Y21803D1*X29820Y21400D2*X25740Y21400D1*X25715Y20998D2*X29835Y20998D1*X24287Y20998D2*X24481Y20998D1*X24481Y21400D2*X24287Y21400D1*X24287Y21803D2*X24481Y21803D1*X22515Y23010D2*X23028Y23010D1*X23028Y22609D2*X22515Y22609D1*X22515Y22205D2*X23028Y22205D1*X23028Y21803D2*X22515Y21803D1*X22515Y21400D2*X23028Y21400D1*X13851Y21400D2*X19903Y21400D1*X19903Y21803D2*X14039Y21803D1*X14056Y22205D2*X19903Y22205D1*X19903Y22609D2*X13919Y22609D1*X13528Y23010D2*X19903Y23010D1*X12954Y23167D2*X12954Y22055D1*X12954Y23167*X12372Y23005D2*X12527Y23086D1*X12695Y23139*X12868Y23167*X12954Y23167*X13040Y23167*X13213Y23139*X13381Y23086*X13536Y23005*X13678Y22903*X13802Y22779*X13904Y22639*X13983Y22482*X14039Y22316*X14064Y22144*X14064Y22055*X12954Y22055*X11844Y22055*X11844Y22144*X11869Y22316*X11925Y22482*X12004Y22639*X12106Y22779*X12230Y22903*X12372Y23005*X8339Y23010D2*X12380Y23010D1*X5766Y23010D2*X7409Y23010D1*X6955Y22609D2*X5999Y22609D1*X6137Y22205D2*X6815Y22205D1*X6830Y21803D2*X6246Y21803D1*X6248Y21400D2*X7031Y21400D1*X7658Y20998D2*X6233Y20998D1*X8085Y20996D2*X7663Y20996D1*X7275Y21156*X6975Y21455*X6815Y21844*X6815Y22266*X6975Y22657*X7275Y22954*X7663Y23117*X8085Y23117*X8473Y22954*X8773Y22657*X8933Y22266*X8933Y21844*X8773Y21455*X8473Y21156*X8085Y20996*X12614Y20998D2*X8090Y20998D1*X12954Y20945D2*X12868Y20945D1*X12695Y20973*X12527Y21026*X12372Y21105*X12230Y21209*X12106Y21331*X12004Y21473*X11925Y21628*X11869Y21796*X11844Y21968*X11844Y22055*X12954Y22055*X12954Y20945*X13213Y20973D2*X13040Y20945D1*X12954Y20945*X12954Y22055*X14064Y22055*X14064Y21968*X14039Y21796*X13983Y21628*X13904Y21473*X13802Y21331*X13678Y21209*X13536Y21105*X13381Y21026*X13213Y20973*X19903Y20998D2*X13294Y20998D1*X16497Y15362D2*X16863Y15362D1*X16467Y14958D2*X16248Y14958D1*X14968Y13752D2*X16584Y13752D1*X16368Y14153D2*X15202Y14153D1*X15235Y14557D2*X16340Y14557D1*X14432Y15763D2*X13965Y15763D1*X13856Y16167D2*X14539Y16167D1*X14877Y16568D2*X13510Y16568D1*X11676Y17374D2*X15502Y17374D1*X15176Y17777D2*X12002Y17777D1*X12108Y18179D2*X15070Y18179D1*X15121Y18583D2*X12057Y18583D1*X11808Y18984D2*X15370Y18984D1*X4849Y18984D2*X10290Y18984D1*X5370Y15362D2*X6213Y15362D1*X6434Y15763D2*X5370Y15763D1*X5370Y17374D2*X6190Y17374D1*X6378Y16972D2*X5370Y16972D1*X5370Y16568D2*X6982Y16568D1*X12052Y16167D2*X5370Y16167D1*X7496Y16568D2*X12398Y16568D1*X11943Y15763D2*X8044Y15763D1*X8265Y15362D2*X12004Y15362D1*X12271Y14958D2*X8298Y14958D1*X8174Y14557D2*X13213Y14557D1*X13259Y10932D2*X7734Y10932D1*X8164Y10531D2*X13213Y10531D1*X1524Y6101D2*X2055Y6101D1*X6751Y6505D2*X1524Y6505D1*X1524Y6906D2*X6317Y6906D1*X2758Y9726D2*X1524Y9726D1*X1524Y9322D2*X2758Y9322D1*X2758Y8920D2*X1524Y8920D1*X1524Y8517D2*X2758Y8517D1*X2758Y8115D2*X1524Y8115D1*X1524Y7711D2*X2758Y7711D1*X6180Y7310D2*X1524Y7310D1*X5370Y7711D2*X6200Y7711D1*X6403Y8115D2*X5370Y8115D1*X5370Y9322D2*X6408Y9322D1*X5370Y9789D2*X5370Y7653D1*X5133Y7414*X2995Y7414*X2758Y7653*X2758Y9789*X2995Y10028*X5133Y10028*X5370Y9789*X6200Y9726D2*X5370Y9726D1*X1524Y10127D2*X6180Y10127D1*X6314Y10531D2*X1524Y10531D1*X1524Y10932D2*X6744Y10932D1*X13505Y11336D2*X1524Y11336D1*X1524Y11737D2*X14153Y11737D1*X13873Y12141D2*X1524Y12141D1*X1524Y12543D2*X13800Y12543D1*X13884Y12946D2*X1524Y12946D1*X1524Y13348D2*X14178Y13348D1*X13480Y13752D2*X1524Y13752D1*X7795Y14153D2*X13246Y14153D1*X1524Y14153D2*X6683Y14153D1*X6304Y14557D2*X1524Y14557D1*X6180Y14859D2*X6180Y15281D1*X6340Y15672*X6640Y15969*X7028Y16132*X7450Y16132*X7838Y15969*X8138Y15672*X8298Y15281*X8298Y14859*X8138Y14470*X7838Y14171*X7450Y14011*X7028Y14011*X6640Y14171*X6340Y14470*X6180Y14859*X1524Y14958D2*X6180Y14958D1*X2758Y15362D2*X1524Y15362D1*X1524Y15763D2*X2758Y15763D1*X2758Y16167D2*X1524Y16167D1*X1524Y16568D2*X2758Y16568D1*X2758Y16972D2*X1524Y16972D1*X2758Y17409D2*X2995Y17648D1*X5133Y17648*X5370Y17409*X5370Y15273*X5133Y15034*X2995Y15034*X2758Y15273*X2758Y17409*X1524Y17374D2*X2758Y17374D1*X6180Y17777D2*X1524Y17777D1*X1524Y18179D2*X6327Y18179D1*X6815Y18583D2*X1524Y18583D1*X10041Y18583D2*X7663Y18583D1*X8151Y18179D2*X9990Y18179D1*X10096Y17777D2*X8298Y17777D1*X10450Y17346D2*X10150Y17645D1*X9990Y18034*X9990Y18456*X10150Y18847*X10450Y19144*X10838Y19307*X11260Y19307*X11648Y19144*X11948Y18847*X12108Y18456*X12108Y18034*X11948Y17645*X11648Y17346*X11260Y17186*X10838Y17186*X10450Y17346*X8288Y17374D2*X10422Y17374D1*X8138Y17010D2*X7838Y16711D1*X7450Y16551*X7028Y16551*X6640Y16711*X6340Y17010*X6180Y17399*X6180Y17821*X6340Y18212*X6640Y18509*X7028Y18672*X7450Y18672*X7838Y18509*X8138Y18212*X8298Y17821*X8298Y17399*X8138Y17010*X17879Y16972D2*X8100Y16972D1*X19665Y17374D2*X20173Y17374D1*X20160Y17777D2*X19680Y17777D1*X19528Y18179D2*X20310Y18179D1*X20777Y18583D2*X18964Y18583D1*X24724Y18583D2*X21641Y18583D1*X22108Y18179D2*X24160Y18179D1*X22245Y17859D2*X22271Y17694D1*X22271Y17610*X21209Y17610*X21209Y18672*X21125Y18672*X20960Y18646*X20803Y18595*X20653Y18519*X20518Y18420*X20399Y18303*X20302Y18166*X20226Y18019*X20173Y17859*X20147Y17694*X20147Y17610*X21209Y17610*X21209Y18672*X21293Y18672*X21458Y18646*X21615Y18595*X21765Y18519*X21900Y18420*X22019Y18303*X22116Y18166*X22192Y18019*X22245Y17859*X24008Y17777D2*X22258Y17777D1*X22245Y17374D2*X24023Y17374D1*X24229Y16972D2*X22057Y16972D1*X21417Y16568D2*X25291Y16568D1*X20937Y16568D2*X21001Y16568D1*X25278Y16167D2*X20950Y16167D1*X20792Y15763D2*X24282Y15763D1*X16556Y15763D2*X19086Y15763D1*X18928Y16167D2*X16449Y16167D1*X16111Y16568D2*X18941Y16568D1*X16050Y16614D2*X16185Y16515D1*X16304Y16398*X16401Y16261*X16477Y16114*X16530Y15954*X16556Y15789*X16556Y15705*X15494Y15705*X15494Y16767*X15410Y16767*X15245Y16741*X15088Y16690*X14938Y16614*X14803Y16515*X14684Y16398*X14587Y16261*X14511Y16114*X14458Y15954*X14432Y15789*X14432Y15705*X15494Y15705*X15494Y16767*X15578Y16767*X15743Y16741*X15900Y16690*X16050Y16614*X17673Y17374D2*X16756Y17374D1*X17082Y17777D2*X17658Y17777D1*X17810Y18179D2*X17188Y18179D1*X17137Y18583D2*X18374Y18583D1*X17028Y18847D2*X17188Y18456D1*X17188Y18034*X17028Y17645*X16728Y17346*X16340Y17186*X15918Y17186*X15530Y17346*X15230Y17645*X15070Y18034*X15070Y18456*X15230Y18847*X15530Y19144*X15918Y19307*X16340Y19307*X16728Y19144*X17028Y18847*X31219Y18984D2*X16888Y18984D1*X25878Y18179D2*X32103Y18179D1*X31968Y17777D2*X26030Y17777D1*X26015Y17374D2*X31968Y17374D1*X31968Y16972D2*X27087Y16972D1*X27287Y16568D2*X31968Y16568D1*X31968Y16167D2*X27300Y16167D1*X27142Y15763D2*X32111Y15763D1*X26012Y15362D2*X25992Y15362D1*X34544Y15362D2*X26566Y15362D1*X26030Y14958D2*X34544Y14958D1*X25900Y14557D2*X26434Y14557D1*X26177Y14153D2*X25446Y14153D1*X23294Y13752D2*X26119Y13752D1*X24592Y14153D2*X23510Y14153D1*X23538Y14557D2*X24138Y14557D1*X24008Y14958D2*X23411Y14958D1*X24008Y15270D2*X24163Y15644D1*X24448Y15928*X24818Y16081*X25220Y16081*X25321Y16040*X25278Y16139*X25278Y16540*X25321Y16642*X25220Y16601*X24818Y16601*X24448Y16754*X24163Y17038*X24008Y17409*X24008Y17810*X24163Y18184*X24448Y18468*X24818Y18621*X25220Y18621*X25590Y18468*X25875Y18184*X26030Y17810*X26030Y17409*X25987Y17310*X26088Y17351*X26490Y17351*X26860Y17198*X27145Y16914*X27300Y16540*X27300Y16139*X27145Y15768*X26860Y15484*X26490Y15331*X26088Y15331*X25987Y15372*X26030Y15270*X26030Y14869*X25875Y14498*X25590Y14214*X25220Y14061*X24818Y14061*X24448Y14214*X24163Y14498*X24008Y14869*X24008Y15270*X23015Y15362D2*X24046Y15362D1*X20216Y15362D2*X21943Y15362D1*X19738Y15331D2*X19368Y15484D1*X19083Y15768*X18928Y16139*X18928Y16540*X18971Y16642*X18870Y16601*X18468Y16601*X18098Y16754*X17813Y17038*X17658Y17409*X17658Y17810*X17813Y18184*X18098Y18468*X18468Y18621*X18870Y18621*X19240Y18468*X19525Y18184*X19680Y17810*X19680Y17409*X19637Y17310*X19738Y17351*X20140Y17351*X20183Y17333*X20173Y17361*X20147Y17526*X20147Y17610*X21209Y17610*X21209Y16551*X21209Y17610*X22271Y17610*X22271Y17526*X22245Y17361*X22192Y17203*X22116Y17054*X22019Y16919*X21900Y16802*X21765Y16703*X21615Y16627*X21458Y16576*X21293Y16551*X21209Y16551*X21125Y16551*X20960Y16576*X20932Y16586*X20950Y16540*X20950Y16139*X20795Y15768*X20510Y15484*X20140Y15331*X19738Y15331*X17935Y15362D2*X19662Y15362D1*X21547Y14958D2*X18331Y14958D1*X18458Y14557D2*X21420Y14557D1*X21448Y14153D2*X18430Y14153D1*X21580Y13835D2*X21420Y14224D1*X21420Y14646*X21580Y15037*X21880Y15334*X22268Y15497*X22690Y15497*X23078Y15334*X23378Y15037*X23538Y14646*X23538Y14224*X23378Y13835*X23078Y13536*X22690Y13376*X22268Y13376*X21880Y13536*X21580Y13835*X18214Y13752D2*X21664Y13752D1*X18298Y13835D2*X17998Y13536D1*X17610Y13376*X17188Y13376*X16800Y13536*X16500Y13835*X16340Y14224*X16340Y14646*X16500Y15037*X16800Y15334*X17188Y15497*X17610Y15497*X17998Y15334*X18298Y15037*X18458Y14646*X18458Y14224*X18298Y13835*X15540Y13348D2*X19258Y13348D1*X18964Y12946D2*X15834Y12946D1*X15918Y12543D2*X18880Y12543D1*X18953Y12141D2*X15845Y12141D1*X15565Y11737D2*X19233Y11737D1*X19855Y11336D2*X14943Y11336D1*X15189Y10932D2*X19609Y10932D1*X19563Y10531D2*X15235Y10531D1*X20366Y9322D2*X20833Y9322D1*X20930Y8920D2*X20274Y8920D1*X19957Y8517D2*X21252Y8517D1*X16152Y10127D2*X18575Y10127D1*X18308Y9726D2*X16434Y9726D1*X18242Y9355D2*X18242Y9439D1*X18268Y9604*X18321Y9764*X18397Y9911*X18494Y10048*X18613Y10165*X18748Y10264*X18898Y10340*X19055Y10391*X19220Y10417*X19304Y10417*X19304Y9355*X18242Y9355*X16505Y9322D2*X18242Y9322D1*X18334Y8920D2*X16408Y8920D1*X16086Y8517D2*X18651Y8517D1*X14016Y9322D2*X14483Y9322D1*X14580Y8920D2*X13924Y8920D1*X13607Y8517D2*X14902Y8517D1*X5370Y8920D2*X11984Y8920D1*X12301Y8517D2*X5370Y8517D1*X8298Y10127D2*X12225Y10127D1*X11958Y9726D2*X8278Y9726D1*X11892Y9355D2*X11892Y9439D1*X11918Y9604*X11971Y9764*X12047Y9911*X12144Y10048*X12263Y10165*X12398Y10264*X12548Y10340*X12705Y10391*X12870Y10417*X12954Y10417*X12954Y9355*X12954Y10417*X13038Y10417*X13203Y10391*X13231Y10381*X13213Y10424*X13213Y10825*X13368Y11199*X13652Y11483*X14023Y11636*X14254Y11636*X13960Y11930*X13800Y12319*X13800Y12741*X13960Y13132*X14254Y13426*X14023Y13426*X13652Y13579*X13368Y13863*X13213Y14234*X13213Y14635*X13256Y14737*X13155Y14696*X12753Y14696*X12382Y14849*X12098Y15133*X11943Y15504*X11943Y15905*X12098Y16279*X12382Y16563*X12753Y16716*X13155Y16716*X13526Y16563*X13810Y16279*X13965Y15905*X13965Y15504*X13922Y15405*X14023Y15446*X14425Y15446*X14468Y15428*X14458Y15456*X14432Y15621*X14432Y15705*X15494Y15705*X15494Y14646*X15494Y15705*X16556Y15705*X16556Y15621*X16530Y15456*X16477Y15298*X16401Y15149*X16304Y15014*X16185Y14897*X16050Y14798*X15900Y14722*X15743Y14671*X15578Y14646*X15494Y14646*X15410Y14646*X15245Y14671*X15217Y14681*X15235Y14635*X15235Y14234*X15080Y13863*X14808Y13592*X15070Y13592*X15458Y13429*X15758Y13132*X15918Y12741*X15918Y12319*X15758Y11930*X15458Y11631*X15070Y11471*X14808Y11471*X15080Y11199*X15235Y10825*X15235Y10424*X15192Y10325*X15293Y10366*X15695Y10366*X16066Y10213*X16350Y9929*X16505Y9555*X16505Y9154*X16350Y8783*X16066Y8499*X15695Y8346*X15293Y8346*X14922Y8499*X14638Y8783*X14483Y9154*X14483Y9555*X14526Y9657*X14425Y9616*X14023Y9616*X13980Y9634*X13990Y9604*X14016Y9439*X14016Y9355*X12954Y9355*X11892Y9355*X12954Y9355*X12954Y8296*X12954Y9355*X14016Y9355*X14016Y9271*X13990Y9106*X13937Y8948*X13861Y8799*X13764Y8664*X13645Y8547*X13510Y8448*X13360Y8372*X13203Y8321*X13038Y8296*X12954Y8296*X12870Y8296*X12705Y8321*X12548Y8372*X12398Y8448*X12263Y8547*X12144Y8664*X12047Y8799*X11971Y8948*X11918Y9106*X11892Y9271*X11892Y9355*X8070Y9322D2*X11892Y9322D1*X7838Y9091D2*X8138Y9390D1*X8298Y9779*X8298Y10201*X8138Y10592*X7838Y10889*X7450Y11052*X7028Y11052*X6640Y10889*X6340Y10592*X6180Y10201*X6180Y9779*X6340Y9390*X6640Y9091*X7028Y8931*X7450Y8931*X7838Y9091*X26284Y8115D2*X8075Y8115D1*X24077Y7310D2*X24056Y7310D1*X23716Y7711D2*X24417Y7711D1*X26119Y8517D2*X22436Y8517D1*X22758Y8920D2*X26119Y8920D1*X26281Y9322D2*X22855Y9322D1*X22784Y9726D2*X26833Y9726D1*X34544Y10127D2*X22502Y10127D1*X34544Y10531D2*X33409Y10531D1*X33650Y10932D2*X34544Y10932D1*X34544Y11336D2*X33698Y11336D1*X33589Y11737D2*X34544Y11737D1*X34544Y12141D2*X33259Y12141D1*X25870Y12543D2*X34544Y12543D1*X26533Y12946D2*X25255Y12946D1*X26279Y13200D2*X26119Y13589D1*X26119Y14011*X26279Y14402*X26579Y14699*X26967Y14862*X27389Y14862*X27777Y14699*X28077Y14402*X28237Y14011*X28237Y13589*X28077Y13200*X27777Y12901*X27389Y12741*X26967Y12741*X26579Y12901*X26279Y13200*X20620Y13348D2*X26218Y13348D1*X24783Y12946D2*X20914Y12946D1*X20998Y12543D2*X24168Y12543D1*X23973Y12141D2*X20925Y12141D1*X20645Y11737D2*X23960Y11737D1*X24102Y11336D2*X21293Y11336D1*X24420Y10996D2*X24120Y11295D1*X23960Y11684*X23960Y12106*X24120Y12497*X24420Y12794*X24808Y12957*X25230Y12957*X25618Y12794*X25918Y12497*X26078Y12106*X26078Y11684*X25918Y11295*X25618Y10996*X25230Y10836*X24808Y10836*X24420Y10996*X21539Y10932D2*X24572Y10932D1*X21585Y10424D2*X21542Y10325D1*X21643Y10366*X22045Y10366*X22416Y10213*X22700Y9929*X22855Y9555*X22855Y9154*X22700Y8783*X22416Y8499*X22045Y8346*X21643Y8346*X21272Y8499*X20988Y8783*X20833Y9154*X20833Y9555*X20876Y9657*X20775Y9616*X20373Y9616*X20330Y9634*X20340Y9604*X20366Y9439*X20366Y9355*X19304Y9355*X18242Y9355*X18242Y9271*X18268Y9106*X18321Y8948*X18397Y8799*X18494Y8664*X18613Y8547*X18748Y8448*X18898Y8372*X19055Y8321*X19220Y8296*X19304Y8296*X19304Y9355*X20366Y9355*X20366Y9271*X20340Y9106*X20287Y8948*X20211Y8799*X20114Y8664*X19995Y8547*X19860Y8448*X19710Y8372*X19553Y8321*X19388Y8296*X19304Y8296*X19304Y9355*X19304Y10417*X19388Y10417*X19553Y10391*X19581Y10381*X19563Y10424*X19563Y10825*X19718Y11199*X19990Y11471*X19728Y11471*X19340Y11631*X19040Y11930*X18880Y12319*X18880Y12741*X19040Y13132*X19340Y13429*X19728Y13592*X20150Y13592*X20538Y13429*X20838Y13132*X20998Y12741*X20998Y12319*X20838Y11930*X20544Y11636*X20775Y11636*X21146Y11483*X21430Y11199*X21585Y10825*X21585Y10424*X31869Y10531D2*X21585Y10531D1*X32428Y10201D2*X32850Y10201D1*X33238Y10361*X33538Y10660*X33698Y11049*X33698Y11471*X33538Y11862*X33238Y12159*X32850Y12322*X32428Y12322*X32040Y12159*X31740Y11862*X31580Y11471*X31580Y11049*X31740Y10660*X32040Y10361*X32428Y10201*X28075Y9322D2*X32136Y9322D1*X31968Y8920D2*X28237Y8920D1*X28237Y8517D2*X31968Y8517D1*X31968Y8115D2*X28072Y8115D1*X27513Y7711D2*X31968Y7711D1*X26967Y7661D2*X26579Y7821D1*X26279Y8120*X26119Y8509*X26119Y8931*X26279Y9322*X26579Y9619*X26967Y9782*X27389Y9782*X27777Y9619*X28077Y9322*X28237Y8931*X28237Y8509*X28077Y8120*X27777Y7821*X27389Y7661*X26967Y7661*X25621Y7711D2*X26843Y7711D1*X31968Y7310D2*X25961Y7310D1*X34544Y6101D2*X34013Y6101D1*X34544Y6906D2*X34470Y6906D1*X26038Y6505D2*X34544Y6505D1*X32078Y6906D2*X26078Y6906D1*X25804Y6101D2*X31265Y6101D1*X23899Y6101D2*X24234Y6101D1*X18819Y6101D2*X22329Y6101D1*X22095Y6505D2*X19053Y6505D1*X19093Y6906D2*X22055Y6906D1*X22172Y7310D2*X18976Y7310D1*X22515Y7714D2*X22903Y7877D1*X23325Y7877*X23713Y7714*X24013Y7417*X24066Y7287*X24120Y7417*X24420Y7714*X24808Y7877*X25230Y7877*X25618Y7714*X25918Y7417*X26078Y7026*X26078Y6604*X25918Y6215*X25618Y5916*X25230Y5756*X24808Y5756*X24420Y5916*X24120Y6215*X24066Y6345*X24013Y6215*X23713Y5916*X23325Y5756*X22903Y5756*X22515Y5916*X22215Y6215*X22055Y6604*X22055Y7026*X22215Y7417*X22515Y7714*X18636Y7711D2*X22512Y7711D1*X16731Y7711D2*X17432Y7711D1*X17092Y7310D2*X17071Y7310D1*X16914Y6101D2*X17249Y6101D1*X11834Y6101D2*X15344Y6101D1*X15110Y6505D2*X12068Y6505D1*X12108Y6906D2*X15070Y6906D1*X15187Y7310D2*X11991Y7310D1*X15530Y7714D2*X15918Y7877D1*X16340Y7877*X16728Y7714*X17028Y7417*X17082Y7287*X17135Y7417*X17435Y7714*X17823Y7877*X18245Y7877*X18633Y7714*X18933Y7417*X19093Y7026*X19093Y6604*X18933Y6215*X18633Y5916*X18245Y5756*X17823Y5756*X17435Y5916*X17135Y6215*X17082Y6345*X17028Y6215*X16728Y5916*X16340Y5756*X15918Y5756*X15530Y5916*X15230Y6215*X15070Y6604*X15070Y7026*X15230Y7417*X15530Y7714*X11651Y7711D2*X15527Y7711D1*X8278Y7711D2*X10447Y7711D1*X10107Y7310D2*X8298Y7310D1*X8161Y6906D2*X9990Y6906D1*X7838Y6551D2*X7450Y6391D1*X7028Y6391*X6640Y6551*X6340Y6850*X6180Y7239*X6180Y7661*X6340Y8052*X6640Y8349*X7028Y8512*X7450Y8512*X7838Y8349*X8138Y8052*X8298Y7661*X8298Y7239*X8138Y6850*X7838Y6551*X10030Y6505D2*X7727Y6505D1*X10150Y6215D2*X9990Y6604D1*X9990Y7026*X10150Y7417*X10450Y7714*X10838Y7877*X11260Y7877*X11648Y7714*X11948Y7417*X12108Y7026*X12108Y6604*X11948Y6215*X11648Y5916*X11260Y5756*X10838Y5756*X10450Y5916*X10150Y6215*X4803Y6101D2*X10264Y6101D1*X30711Y5700D2*X5357Y5700D1*X5728Y5296D2*X30340Y5296D1*X30107Y4895D2*X5961Y4895D1*X6119Y4491D2*X29949Y4491D1*X29840Y4089D2*X6228Y4089D1*X6248Y3686D2*X29820Y3686D1*X29820Y3284D2*X6248Y3284D1*X6144Y2880D2*X29924Y2880D1*X30056Y2479D2*X6012Y2479D1*X5781Y2075D2*X30287Y2075D1*X5685Y1910D2*X6055Y2553D1*X6248Y3269*X6248Y4011*X6055Y4729*X5685Y5372*X5161Y5895*X4516Y6269*X3800Y6459*X3058Y6459*X2342Y6269*X1697Y5895*X1524Y5723*X1524Y19340*X1697Y19164*X2342Y18793*X3058Y18600*X3800Y18600*X4516Y18793*X5161Y19164*X5685Y19690*X6055Y20333*X6248Y21049*X6248Y21791*X6055Y22509*X5685Y23152*X5512Y23325*X20104Y23325*X19903Y23124*X19903Y20988*X20140Y20749*X22278Y20749*X22515Y20988*X22515Y23124*X22314Y23325*X23211Y23325*X23203Y23322*X23119Y23236*X23058Y23132*X23028Y23015*X23028Y22151*X24287Y22151*X24287Y21958*X23028Y21958*X23028Y21095*X23058Y20980*X23119Y20874*X23203Y20790*X23307Y20729*X23424Y20698*X24287Y20698*X24287Y21958*X24481Y21958*X25740Y21958*X25740Y21095*X25710Y20980*X25649Y20874*X25565Y20790*X25461Y20729*X25344Y20698*X24481Y20698*X24481Y21958*X24481Y22151*X25740Y22151*X25740Y23015*X25710Y23132*X25649Y23236*X25565Y23322*X25557Y23325*X30556Y23325*X30383Y23152*X30013Y22509*X29820Y21791*X29820Y21049*X30013Y20333*X30383Y19690*X30907Y19164*X31552Y18793*X32268Y18600*X33010Y18600*X33726Y18793*X34371Y19164*X34544Y19340*X34544Y18080*X34343Y18283*X32205Y18283*X31968Y18044*X31968Y15908*X32205Y15669*X34343Y15669*X34544Y15870*X34544Y9190*X34343Y9393*X32205Y9393*X31968Y9154*X31968Y7018*X32205Y6779*X34343Y6779*X34544Y6980*X34544Y5723*X34371Y5895*X33726Y6269*X33010Y6459*X32268Y6459*X31552Y6269*X30907Y5895*X30383Y5372*X30013Y4729*X29820Y4011*X29820Y3269*X30013Y2553*X30383Y1910*X30607Y1684*X5461Y1684*X5685Y1910*D10*X7874Y22055D3*X12954Y22055D3*X16129Y6815D3*X18034Y6815D3*X23114Y6815D3*X25019Y6815D3*X27178Y8720D3*X32639Y11260D3*X32639Y13800D3*X27178Y13800D3*X25019Y11895D3*X22479Y14435D3*X19939Y12530D3*X14859Y12530D3*X17399Y14435D3*X16129Y18245D3*X11049Y18245D3*X7239Y17610D3*X7239Y15070D3*X7239Y9990D3*X11049Y6815D3*X7239Y7450D3*D11*X33274Y8085D3*X33274Y16975D3*X24384Y22055D3*X21209Y22055D3*X4064Y8720D3*X4064Y16340D3*D12*X21844Y9355D3*X20574Y10625D3*X19304Y9355D3*X15494Y9355D3*X12954Y9355D3*X14224Y10625D3*X12954Y15705D3*X14224Y14435D3*X15494Y15705D3*X18669Y17610D3*X19939Y16340D3*X21209Y17610D3*X25019Y17610D3*X26289Y16340D3*X25019Y15070D3*D13*X12954Y22609D3*X12954Y22205D3*X12954Y21803D3*X12954Y21400D3*X12954Y22055D3*X12954Y23010D3*X12954Y22055D3*X12954Y22055D3*X12954Y22055D3*X12954Y20998D3*X15494Y14958D3*X15494Y15362D3*X15494Y15705D3*X15494Y15763D3*X15494Y16167D3*X15494Y16568D3*X21209Y16972D3*X21209Y17777D3*X21209Y17610D3*X21209Y17374D3*X21209Y18179D3*X21209Y18583D3*X21209Y17610D3*X21209Y17610D3*X21209Y16568D3*X15494Y15705D3*X15494Y15705D3*X21209Y17610D3*X19304Y8517D3*X19304Y8920D3*X19304Y9322D3*X19304Y9355D3*X19304Y9726D3*X19304Y10127D3*X12954Y8517D3*X12954Y8920D3*X12954Y9322D3*X12954Y9355D3*X12954Y9726D3*X12954Y10127D3*X15494Y15705D3*X12954Y9355D3*X12954Y9355D3*X12954Y9355D3*X19304Y9355D3*X19304Y9355D3*X19304Y9355D3*X0Y0D2*M02*