G04 Output by ViewMate Deluxe V11.0.9  PentaLogix LLC*
G04 Sun May 11 19:15:31 2014*
%FSLAX33Y33*%
%MOMM*%
%IPPOS*%
%ADD10C,1.3081*%
%ADD11R,1.8009X1.8009*%
%ADD12C,1.209*%
%ADD13C,0.4064*%
%ADD14C,0.8128*%

%LPD*%
X0Y0D2*D13*G1X25019Y17610D2*X23114Y18880D1*X19939Y18880*X18669Y17610*X16129Y14435D2*X17399Y14435D1*X11049Y6815D2*X7874Y6815D1*X7239Y7450*X4064Y8720D2*X8509Y8720D1*X10414Y10625*X14224Y10625*X16129Y14435D2*X14859Y12530D1*X11049Y18245D2*X7874Y18245D1*X7239Y17610*X4064Y16340D2*X8509Y16340D1*X10414Y14435*X14224Y14435*X12954Y15705D2*X14859Y18245D1*X16129Y18245*X18034Y16340*X19939Y16340*X21844Y15070*X22479Y14435*X21844Y13165D2*X23114Y13165D1*X23749Y13800*X23749Y15705*X24384Y16340*X26289Y16340*X32639Y13800D2*X27178Y13800D1*X33274Y16975D2*X28829Y16975D1*X26924Y15070*X25019Y15070*X25019Y13800*X23114Y11895*X25019Y9355D2*X27559Y9355D1*X27178Y8720*X33274Y8085D2*X33909Y8720D1*X33909Y11895*X33274Y12530*X31369Y12530*X28829Y9990*X27178Y8720*X23749Y4910D2*X23749Y6815D1*X25019Y6815D2*X23749Y6815D1*X23114Y6815*X18034Y6815D2*X16129Y6815D1*X16129Y8720*X15494Y9355*X15494Y10625*X19304Y14435*X20574Y14435*X21844Y13165*X19939Y12530D2*X20574Y11895D1*X20574Y10625D2*X20574Y11895D1*X23114Y11895*X25019Y11895D2*X25019Y9355D1*X21844Y9355*D14*X7239Y4910D2*X23749Y4910D1*X26289Y4910*X32639Y11260*X21209Y22055D2*X19304Y20150D1*X7874Y20150*X7874Y22055D2*X7874Y20150D1*X7239Y20150*X5334Y18245*X2794Y18245*X2159Y17610*X2159Y12530*X7239Y9990D2*X7239Y12530D1*X14859Y12530D2*X7239Y12530D1*X7239Y15070D2*X7239Y12530D1*X2159Y12530*X2159Y7450*X2794Y6815*X5334Y6815*X7239Y4910*D10*X7874Y22055D3*X12954Y22055D3*X16129Y6815D3*X18034Y6815D3*X23114Y6815D3*X25019Y6815D3*X27178Y8720D3*X32639Y11260D3*X32639Y13800D3*X27178Y13800D3*X25019Y11895D3*X22479Y14435D3*X19939Y12530D3*X14859Y12530D3*X17399Y14435D3*X16129Y18245D3*X11049Y18245D3*X7239Y17610D3*X7239Y15070D3*X7239Y9990D3*X11049Y6815D3*X7239Y7450D3*D11*X33274Y8085D3*X33274Y16975D3*X24384Y22055D3*X21209Y22055D3*X4064Y8720D3*X4064Y16340D3*D12*X21844Y9355D3*X20574Y10625D3*X19304Y9355D3*X15494Y9355D3*X12954Y9355D3*X14224Y10625D3*X12954Y15705D3*X14224Y14435D3*X15494Y15705D3*X18669Y17610D3*X19939Y16340D3*X21209Y17610D3*X25019Y17610D3*X26289Y16340D3*X25019Y15070D3*X0Y0D2*M02*