G04 Output by ViewMate Deluxe V11.0.9  PentaLogix LLC*
G04 Sun May 11 19:15:31 2014*
%FSLAX33Y33*%
%MOMM*%
%IPPOS*%
%ADD15C,0.0762*%
%ADD16C,0.127*%
%ADD105C,1.397*%
%ADD106C,0.254*%
%ADD107C,0.4064*%
%ADD108C,0.1524*%
%ADD109C,0.1016*%

%LPD*%
X0Y0D2*D15*G1X25268Y9238D2*X24641Y9238D1*X26927Y12083D2*X27554Y12083D1*X27711Y11925*X27711Y11613*X27554Y11455*X26927Y12083*X26772Y11925*X26772Y11613*X26927Y11455*X27554Y11455*X27711Y10053D2*X26772Y10053D1*X27242Y9583*X27242Y10211*X27711Y10521D2*X27554Y10521D1*X26927Y11148*X26772Y11148*X26772Y10521*X24956Y10330D2*X25425Y10800D1*X25113Y10173D2*X24486Y10800D1*X24486Y10173D2*X25425Y10173D1*X24641Y9865D2*X25268Y9865D1*X25425Y9708*X25425Y9393*X25268Y9238*X24641Y9865*X24486Y9708*X24486Y9393*X24641Y9238*X24798Y8301D2*X24486Y8616D1*X25425Y8928D2*X25425Y8301D1*X24486Y8616D2*X25425Y8616D1*X20925Y6751D2*X21397Y6281D1*X20770Y6596D2*X21397Y7224D1*X20770Y7224D2*X20770Y6281D1*X20460Y7066D2*X20302Y7224D1*X19990Y7224*X19832Y7066*X19832Y6439*X19990Y6281*X20302Y6281*X20460Y6439*X20460Y7066*X19832Y6439*X18898Y6281D2*X19525Y6281D1*X19210Y6281D2*X19210Y7224D1*X18898Y6909*X14877Y7351D2*X15034Y7193D1*X14097Y7193D2*X14097Y7351D1*X13470Y7351*X13162Y6878D2*X12535Y6878D1*X13005Y7351*X13005Y6408*X13470Y6408D2*X13470Y6566D1*X14097Y7193*X14407Y6566D2*X14562Y6408D1*X14877Y6408*X15034Y6566*X15034Y7193*X14407Y6566*X14407Y7193*X14562Y7351*X14877Y7351*X16345Y12751D2*X16657Y13066D1*X16657Y12123*X16972Y12123D2*X16345Y12123D1*X17280Y12281D2*X17280Y12908D1*X17437Y13066*X17752Y13066*X17907Y12908*X17907Y12281*X17752Y12123*X17437Y12123*X17280Y12281*X17907Y12908*X18217Y12123D2*X18217Y13066D1*X18372Y12593D2*X18844Y12123D1*X18844Y13066D2*X18217Y12438D1*X20912Y14498D2*X21384Y14028D1*X20757Y14343D2*X21384Y14971D1*X20757Y14971D2*X20757Y14028D1*X20447Y14813D2*X20292Y14971D1*X19977Y14971*X19820Y14813*X19820Y14186*X19977Y14028*X20292Y14028*X20447Y14186*X20447Y14813*X19820Y14186*X18885Y14028D2*X19512Y14028D1*X19197Y14028D2*X19197Y14971D1*X18885Y14656*X15034Y18623D2*X14877Y18781D1*X14562Y18781*X14407Y18623*X14407Y17996*X14562Y17838*X14877Y17838*X15034Y17996*X15034Y18623*X14407Y17996*X13162Y18308D2*X12535Y18308D1*X13470Y18781D2*X14097Y18781D1*X14097Y18623*X13470Y17996*X13470Y17838*X13005Y17838D2*X13005Y18781D1*X12535Y18308*D16*X25273Y13800D2*X25428Y13835D1*X25578Y13881*X25728Y13934*X25872Y13998*X26012Y14069*X26149Y14150*X26281Y14239*X26406Y14336*X26525Y14437*X26637Y14549*X26744Y14666*X26843Y14790*X26932Y14920*X27015Y15055*X27089Y15194*X27155Y15339*X27211Y15486*X27259Y15636*X27297Y15791*X27325Y15946*X27346Y16104*X27356Y16261*X27356Y16419*X27346Y16576*X27325Y16734*X27297Y16888*X27259Y17043*X27211Y17193*X27155Y17341*X27089Y17485*X27015Y17625*X26932Y17760*X26843Y17889*X26744Y18014*X26637Y18131*X26525Y18242*X26406Y18344*X26281Y18440*X26149Y18529*X26012Y18611*X25872Y18682*X25728Y18745*X25578Y18799*X25428Y18844*X25273Y18880*X22479Y17356D2*X22443Y17201D1*X22398Y17051*X22344Y16901*X22281Y16756*X22210Y16617*X22128Y16480*X22040Y16347*X21943Y16223*X21841Y16104*X21730Y15992*X21613Y15885*X21488Y15786*X21359Y15697*X21224Y15613*X21085Y15540*X20940Y15474*X20792Y15418*X20643Y15370*X20488Y15331*X20333Y15304*X20175Y15283*X20018Y15273*X19860Y15273*X19703Y15283*X19545Y15304*X19390Y15331*X19235Y15370*X19086Y15418*X18938Y15474*X18793Y15540*X18654Y15613*X18519Y15697*X18390Y15786*X18265Y15885*X18148Y15992*X18037Y16104*X17935Y16223*X17838Y16347*X17750Y16480*X17668Y16617*X17597Y16756*X17534Y16901*X17480Y17051*X17435Y17201*X17399Y17356*X16764Y15451D2*X16728Y15296D1*X16683Y15146*X16629Y14996*X16566Y14851*X16495Y14712*X16413Y14575*X16325Y14442*X16228Y14318*X16126Y14199*X16015Y14087*X15898Y13980*X15773Y13881*X15644Y13792*X15509Y13708*X15370Y13635*X15225Y13569*X15077Y13513*X14928Y13465*X14773Y13426*X14618Y13398*X14460Y13378*X14303Y13368*X14145Y13368*X13988Y13378*X13830Y13398*X13675Y13426*X13520Y13465*X13371Y13513*X13223Y13569*X13078Y13635*X12939Y13708*X12804Y13792*X12675Y13881*X12550Y13980*X12433Y14087*X12322Y14199*X12220Y14318*X12123Y14442*X12035Y14575*X11953Y14712*X11882Y14851*X11819Y14996*X11765Y15146*X11720Y15296*X11684Y15451*X11684Y16975*X16764Y16975*X16764Y15451*X17399Y17356D2*X17399Y18880D1*X22479Y18880*X22479Y17356*X25273Y18880D2*X23749Y18880D1*X23749Y13800*X25273Y13800*X23114Y9609D2*X23078Y9764D1*X23033Y9914*X22979Y10063*X22916Y10208*X22845Y10348*X22763Y10485*X22675Y10617*X22578Y10742*X22476Y10861*X22365Y10973*X22248Y11079*X22123Y11179*X21994Y11267*X21859Y11351*X21720Y11425*X21575Y11491*X21427Y11547*X21278Y11595*X21123Y11633*X20968Y11661*X20810Y11681*X20653Y11692*X20495Y11692*X20338Y11681*X20180Y11661*X20025Y11633*X19870Y11595*X19721Y11547*X19573Y11491*X19428Y11425*X19289Y11351*X19154Y11267*X19025Y11179*X18900Y11079*X18783Y10973*X18672Y10861*X18570Y10742*X18473Y10617*X18385Y10485*X18303Y10348*X18232Y10208*X18169Y10063*X18115Y9914*X18070Y9764*X18034Y9609*X16764Y9609D2*X16728Y9764D1*X16683Y9914*X16629Y10063*X16566Y10208*X16495Y10348*X16413Y10485*X16325Y10617*X16228Y10742*X16126Y10861*X16015Y10973*X15898Y11079*X15773Y11179*X15644Y11267*X15509Y11351*X15370Y11425*X15225Y11491*X15077Y11547*X14928Y11595*X14773Y11633*X14618Y11661*X14460Y11681*X14303Y11692*X14145Y11692*X13988Y11681*X13830Y11661*X13675Y11633*X13520Y11595*X13371Y11547*X13223Y11491*X13078Y11425*X12939Y11351*X12804Y11267*X12675Y11179*X12550Y11079*X12433Y10973*X12322Y10861*X12220Y10742*X12123Y10617*X12035Y10485*X11953Y10348*X11882Y10208*X11819Y10063*X11765Y9914*X11720Y9764*X11684Y9609*X11684Y8085*X16764Y8085*X16764Y9609*X18034Y9609D2*X18034Y8085D1*X23114Y8085*X23114Y9609*D105*X6604Y4910D2*X6970Y5133D1*X7325Y5375*X7666Y5631*X7996Y5906*X8311Y6195*X8613Y6500*X8898Y6820*X9169Y7153*X9423Y7498*X9660Y7856*X9878Y8225*X10079Y8603*X10259Y8989*X10422Y9388*X10566Y9792*X10688Y10201*X10792Y10617*X10876Y11036*X10937Y11460*X10980Y11887*X11001Y12316*X11001Y12743*X10980Y13172*X10937Y13599*X10876Y14023*X10792Y14442*X10688Y14859*X10566Y15268*X10422Y15672*X10259Y16071*X10079Y16457*X9878Y16835*X9660Y17203*X9423Y17562*X9169Y17907*X8898Y18240*X8613Y18560*X8311Y18865*X7996Y19154*X7666Y19428*X7325Y19685*X6970Y19926*X6604Y20150*X25336Y20150*X25702Y19926*X26058Y19685*X26398Y19428*X26728Y19154*X27043Y18865*X27346Y18560*X27630Y18240*X27902Y17907*X28156Y17562*X28392Y17203*X28611Y16835*X28811Y16457*X28992Y16071*X29154Y15672*X29299Y15268*X29421Y14859*X29525Y14442*X29609Y14023*X29670Y13599*X29713Y13172*X29733Y12743*X29733Y12316*X29713Y11887*X29670Y11460*X29609Y11036*X29525Y10617*X29421Y10201*X29299Y9792*X29154Y9388*X28992Y8989*X28811Y8603*X28611Y8225*X28392Y7856*X28156Y7498*X27902Y7153*X27630Y6820*X27346Y6500*X27043Y6195*X26728Y5906*X26398Y5631*X26058Y5375*X25702Y5133*X25336Y4910*X6604Y4910*D106*X31623Y10942D2*X31623Y9799D1*X31052Y10371D2*X32194Y10371D1*X6794Y14181D2*X5652Y14181D1*X6223Y13609D2*X6223Y14752D1*X7684Y10879D2*X8826Y10879D1*X8255Y10307D2*X8255Y11450D1*X14077Y1991D2*X14839Y1227D1*X13315Y1991D2*X14458Y1991D1*X14839Y2372*X14839Y3134*X14458Y3515*X13315Y3515*X13315Y1227*X10975Y1608D2*X10975Y3134D1*X11356Y3515*X12118Y3515*X12499Y3134*X12499Y1608*X12118Y1227*X11356Y1227*X10975Y1608*X10163Y1227D2*X8636Y1227D1*X10163Y2753*X10163Y3134*X9779Y3515*X9017Y3515*X8636Y3134*D107*X29464Y17610D2*X32004Y17610D1*X30734Y16340D2*X30734Y18880D1*X32004Y7450D2*X29464Y7450D1*D108*X6304Y7516D2*X6215Y7592D1*X6132Y7671*X6055Y7760*X5987Y7851*X5926Y7948*X5870Y8049*X5824Y8156*X5784Y8265*X5753Y8377*X5733Y8489*X5720Y8606*X5715Y8720*X8153Y9939D2*X8245Y9865D1*X8331Y9784*X8410Y9695*X8481Y9604*X8545Y9505*X8603Y9401*X8651Y9294*X8692Y9185*X8722Y9070*X8745Y8954*X8758Y8837*X8763Y8720*X8125Y7480D2*X8219Y7554D1*X8308Y7635*X8392Y7724*X8468Y7818*X8534Y7917*X8593Y8021*X8646Y8133*X8687Y8245*X8720Y8362*X8743Y8479*X8758Y8600*X8763Y8720*X6304Y9924D2*X6215Y9848D1*X6132Y9769*X6055Y9680*X5987Y9588*X5926Y9492*X5870Y9390*X5824Y9284*X5784Y9174*X5753Y9063*X5733Y8951*X5720Y8834*X5715Y8720*X19017Y1176D2*X17932Y1176D1*X19568Y1176D2*X20112Y1720D1*X20112Y2261*X19568Y2804*X18745Y2804D2*X19017Y2532D1*X19017Y2261*X17932Y1176*X17384Y1176D2*X16840Y1720D1*X16840Y2261*X17384Y2804*X17932Y2532D2*X18202Y2804D1*X18745Y2804*X22416Y7704D2*X18732Y7704D1*X31725Y11311D2*X31633Y11384D1*X31547Y11466*X31468Y11554*X31397Y11646*X31333Y11745*X31275Y11849*X31227Y11956*X31186Y12065*X31156Y12179*X31133Y12296*X31120Y12413*X31115Y12530*X33574Y13734D2*X33663Y13658D1*X33746Y13579*X33823Y13490*X33891Y13398*X33952Y13302*X34008Y13200*X34054Y13094*X34094Y12984*X34125Y12873*X34145Y12761*X34158Y12644*X34163Y12530*X33574Y11326D2*X33663Y11402D1*X33746Y11481*X33823Y11570*X33891Y11661*X33952Y11758*X34008Y11859*X34054Y11966*X34094Y12075*X34125Y12187*X34145Y12299*X34158Y12416*X34163Y12530*X31753Y13769D2*X31659Y13696D1*X31570Y13614*X31486Y13526*X31410Y13432*X31344Y13332*X31285Y13228*X31232Y13117*X31191Y13005*X31158Y12888*X31135Y12771*X31120Y12649*X31115Y12530*X28067Y13101D2*X28067Y9418D1*X26289Y9418D2*X26289Y13101D1*X25908Y11196D2*X25908Y7513D1*X24130Y7513D2*X24130Y11196D1*X18732Y5926D2*X22416Y5926D1*X11748Y5926D2*X15430Y5926D1*X15430Y7704D2*X11748Y7704D1*X19240Y11641D2*X15558Y11641D1*X21780Y15324D2*X18098Y15324D1*X18098Y13546D2*X21780Y13546D1*X15558Y13419D2*X19240Y13419D1*X8174Y17544D2*X8263Y17468D1*X8346Y17389*X8423Y17300*X8491Y17208*X8552Y17112*X8608Y17010*X8654Y16904*X8694Y16794*X8725Y16683*X8745Y16571*X8758Y16454*X8763Y16340*X6325Y15121D2*X6233Y15194D1*X6147Y15276*X6068Y15364*X5997Y15456*X5933Y15555*X5875Y15659*X5827Y15766*X5786Y15875*X5756Y15989*X5733Y16106*X5720Y16223*X5715Y16340*X6353Y17579D2*X6259Y17506D1*X6170Y17424*X6086Y17336*X6010Y17242*X5944Y17142*X5885Y17038*X5832Y16927*X5791Y16815*X5758Y16698*X5735Y16581*X5720Y16459*X5715Y16340*X8174Y15136D2*X8263Y15212D1*X8346Y15291*X8423Y15380*X8491Y15471*X8552Y15568*X8608Y15669*X8654Y15776*X8694Y15885*X8725Y15997*X8745Y16109*X8758Y16226*X8763Y16340*X15430Y17356D2*X11748Y17356D1*X11748Y19134D2*X15430Y19134D1*X7493Y23198D2*X13335Y23198D1*X13335Y20912D2*X7493Y20912D1*X15479Y22852D2*X15479Y21768D1*X16020Y22311D2*X14935Y22311D1*X16574Y21768D2*X16843Y21496D1*X17386Y21496*X17658Y21768*X17658Y22311*X17386Y22581*X17115Y22581*X16574Y22311*X16574Y23124*X17658Y23124*X18209Y23124D2*X18209Y22040D1*X18753Y21496*X19294Y22040*X19294Y23124*X27450Y22852D2*X27178Y23124D1*X26637Y23124*X26365Y22852*X26365Y21768*X27450Y21768D2*X27450Y22852D1*X26365Y21768*X26637Y21496*X27178Y21496*X27450Y21768*X28545Y21496D2*X28004Y22040D1*X28004Y23124*X29088Y23124D2*X29088Y22040D1*X28545Y21496*D109*X8687Y22273D2*X8992Y22578D1*X8992Y21661*X9296Y21661D2*X8687Y21661D1*X9622Y21814D2*X9622Y22426D1*X9774Y22578*X10079Y22578*X10234Y22426*X10234Y21814*X10079Y21661*X9774Y21661*X9622Y21814*X10234Y22426*X11168Y22426D2*X11016Y22578D1*X10711Y22578*X10559Y22426*X10559Y21814*X11168Y21814D2*X11168Y22426D1*X10559Y21814*X10711Y21661*X11016Y21661*X11168Y21814*X11494Y21661D2*X11494Y22273D1*X11951Y22273*X12103Y22118*X12103Y21661*X22830Y3132D2*X23442Y3132D1*X22830Y2675D2*X22830Y3287D1*X21895Y1151D2*X21895Y2068D1*X22504Y1151*X22504Y2068*X23134Y1608D2*X22830Y1608D1*X23442Y1151D2*X22830Y1151D1*X22830Y2068*X23442Y2068*X23767Y2068D2*X23767Y1151D1*X24072Y1455*X24376Y1151*X24376Y2068*X24702Y1151D2*X24702Y2068D1*X26246Y1608D2*X25636Y1608D1*X27183Y2068D2*X27183Y1151D1*X26573Y2068*X26573Y1151*X26246Y1151D2*X26246Y1763D1*X25941Y2068*X25636Y1763*X25636Y1151*X25311Y1151D2*X25311Y2068D1*X25006Y1763*X24702Y2068*X24702Y3132D2*X25006Y3132D1*X24702Y2675D2*X24702Y3592D1*X25311Y3592*X26246Y3439D2*X26093Y3592D1*X25789Y3592*X25636Y3439*X25636Y3287*X25789Y3132*X26093Y3132*X26246Y2979*X26246Y2827*X26093Y2675*X25789Y2675*X25636Y2827*X24702Y2675D2*X25311Y2675D1*X24376Y2675D2*X24376Y3592D1*X24072Y3287*X23767Y3592*X23767Y2675*X23442Y2675D2*X23442Y3287D1*X23134Y3592*X22830Y3287*X22200Y3592D2*X22504Y3592D1*X22352Y3592D2*X22352Y2827D1*X22200Y2675*X22047Y2675*X21895Y2827*X0Y0D2*M02*