
M48
METRIC,TZ,000.000
T01C0.5
T02C1.1
T03C1.199
T04C2.946
T05C3.2
%
M71
G90
T01
X083502Y021209
X082232Y019939
X080962Y018669
X074612Y012319
X075882Y013589
X077152Y014859
X078422Y016129
X079692Y017399
X068262Y021209
X066992Y019939
X065722Y018669
X059372Y012319
X060642Y013589
X061912Y014859
X063182Y016129
X064452Y017399
X055562Y021209
X054292Y019939
X053022Y018669
X051752Y017399
X050482Y016129
X049212Y014859
X047942Y013589
X046672Y012319
X026988Y021209
X025718Y019939
X024448Y018669
X023178Y017399
X021908Y016129
X020638Y014859
X019368Y013589
X018098Y012319
T02
X074612Y010414
X077152Y010414
X079692Y010414
X082232Y010414
X084772Y010414
X087312Y010414
X089852Y010414
X092392Y010414
X094932Y010414
X097472Y010414
X097472Y007874
X094932Y007874
X092392Y007874
X089852Y007874
X087312Y007874
X084772Y007874
X082232Y007874
X079692Y007874
X077152Y007874
X074612Y007874
X040958Y007874
X038418Y007874
X035878Y007874
X033338Y007874
X030798Y007874
X028258Y007874
X025718Y007874
X023178Y007874
X020638Y007874
X018098Y007874
X018098Y010414
X020638Y010414
X023178Y010414
X025718Y010414
X028258Y010414
X030798Y010414
X033338Y010414
X035878Y010414
X038418Y010414
X040958Y010414
X040958Y025654
X038418Y025654
X035878Y025654
X033338Y025654
X030798Y025654
X028258Y025654
X025718Y025654
X023178Y025654
X020638Y025654
X018098Y025654
X018098Y028194
X020638Y028194
X023178Y028194
X025718Y028194
X028258Y028194
X030798Y028194
X033338Y028194
X035878Y028194
X038418Y028194
X040958Y028194
X068262Y038354
X065722Y038354
X063182Y038354
X060642Y038354
X058102Y038354
X055562Y038354
X053022Y038354
X050482Y038354
X047942Y038354
X045402Y038354
X045402Y035814
X047942Y035814
X050482Y035814
X053022Y035814
X055562Y035814
X058102Y035814
X060642Y035814
X063182Y035814
X065722Y035814
X068262Y035814
X079692Y025654
X077152Y025654
X074612Y025654
X074612Y028194
X077152Y028194
X079692Y028194
X082232Y028194
X084772Y028194
X087312Y028194
X089852Y028194
X092392Y028194
X094932Y028194
X097472Y028194
X097472Y025654
X094932Y025654
X092392Y025654
X089852Y025654
X087312Y025654
X084772Y025654
X082232Y025654
T03
X108902Y033909
T04
X039586Y037617
X074079Y037617
T05
X111442Y003429
X111442Y038989
X004762Y038354
X004762Y003429
M30
