G04 Output by ViewMate Deluxe V11.0.9  PentaLogix LLC*
G04 Tue Nov 11 14:29:24 2014*
%FSLAX33Y33*%
%MOMM*%
%IPPOS*%
%ADD10R,1.651X1.651*%
%ADD11C,1.651*%
%ADD12R,1.8009X1.8009*%
%ADD106C,1.016*%
%ADD107C,0.4064*%

%LPD*%
X0Y0D2*D107*G1X83502Y21209D2*X68262Y21209D1*X66992Y19939D2*X82232Y19939D1*X80962Y18669D2*X65722Y18669D1*X64452Y17399D2*X79692Y17399D1*X78422Y16129D2*X63182Y16129D1*X61912Y14859D2*X77152Y14859D1*X75882Y13589D2*X60642Y13589D1*X59372Y12319D2*X74612Y12319D1*X55562Y21209D2*X26988Y21209D1*X25718Y19939D2*X54292Y19939D1*X53022Y18669D2*X24448Y18669D1*X23178Y17399D2*X51752Y17399D1*X50482Y16129D2*X21908Y16129D1*X20638Y14859D2*X49212Y14859D1*X47942Y13589D2*X19368Y13589D1*X18098Y12319D2*X46672Y12319D1*D10*X74612Y7874D3*X74612Y25654D3*X45402Y35814D3*X18098Y25654D3*X18098Y7874D3*D11*X77152Y25654D3*X79692Y25654D3*X82232Y25654D3*X84772Y25654D3*X87312Y25654D3*X89852Y25654D3*X92392Y25654D3*X94932Y25654D3*X97472Y25654D3*X97472Y28194D3*X94932Y28194D3*X92392Y28194D3*X89852Y28194D3*X87312Y28194D3*X84772Y28194D3*X82232Y28194D3*X79692Y28194D3*X77152Y28194D3*X74612Y28194D3*X45402Y38354D3*X47942Y38354D3*X50482Y38354D3*X53022Y38354D3*X55562Y38354D3*X58102Y38354D3*X60642Y38354D3*X63182Y38354D3*X65722Y38354D3*X68262Y38354D3*X68262Y35814D3*X65722Y35814D3*X63182Y35814D3*X60642Y35814D3*X58102Y35814D3*X55562Y35814D3*X53022Y35814D3*X50482Y35814D3*X47942Y35814D3*X40958Y28194D3*X38418Y28194D3*X35878Y28194D3*X33338Y28194D3*X30798Y28194D3*X28258Y28194D3*X25718Y28194D3*X23178Y28194D3*X18098Y28194D3*X20638Y28194D3*X20638Y25654D3*X23178Y25654D3*X25718Y25654D3*X28258Y25654D3*X30798Y25654D3*X33338Y25654D3*X35878Y25654D3*X38418Y25654D3*X40958Y25654D3*X40958Y7874D3*X38418Y7874D3*X35878Y7874D3*X33338Y7874D3*X30798Y7874D3*X28258Y7874D3*X25718Y7874D3*X23178Y7874D3*X20638Y7874D3*X18098Y10414D3*X20638Y10414D3*X23178Y10414D3*X25718Y10414D3*X28258Y10414D3*X30798Y10414D3*X33338Y10414D3*X35878Y10414D3*X38418Y10414D3*X40958Y10414D3*X74612Y10414D3*X77152Y10414D3*X79692Y10414D3*X82232Y10414D3*X84772Y10414D3*X87312Y10414D3*X89852Y10414D3*X92392Y10414D3*X94932Y10414D3*X97472Y10414D3*X97472Y7874D3*X94932Y7874D3*X92392Y7874D3*X89852Y7874D3*X87312Y7874D3*X84772Y7874D3*X82232Y7874D3*X79692Y7874D3*X77152Y7874D3*D12*X108902Y33909D3*D106*X18098Y12319D3*X19368Y13589D3*X20638Y14859D3*X21908Y16129D3*X23178Y17399D3*X24448Y18669D3*X25718Y19939D3*X26988Y21209D3*X46672Y12319D3*X47942Y13589D3*X49212Y14859D3*X68262Y21209D3*X66992Y19939D3*X65722Y18669D3*X55562Y21209D3*X54292Y19939D3*X53022Y18669D3*X51752Y17399D3*X50482Y16129D3*X59372Y12319D3*X60642Y13589D3*X61912Y14859D3*X63182Y16129D3*X64452Y17399D3*X74612Y12319D3*X75882Y13589D3*X77152Y14859D3*X78422Y16129D3*X79692Y17399D3*X80962Y18669D3*X82232Y19939D3*X83502Y21209D3*X0Y0D2*M02*