
M48
METRIC,TZ,000.000
T01C1.1
T02C2.946
T03C3.2
%
M71
G90
T01
X042228Y065024
X042228Y067564
X039688Y067564
X039688Y065024
X037148Y065024
X037148Y067564
X034608Y067564
X034608Y065024
X032068Y065024
X032068Y067564
X029528Y067564
X029528Y065024
X026988Y065024
X026988Y067564
X024448Y067564
X024448Y065024
X021908Y065024
X021908Y067564
X019368Y067564
X019368Y065024
X019368Y053594
X019368Y056134
X021908Y056134
X021908Y053594
X024448Y053594
X024448Y056134
X026988Y056134
X026988Y053594
X029528Y053594
X029528Y056134
X032068Y056134
X032068Y053594
X034608Y053594
X034608Y056134
X037148Y056134
X037148Y053594
X039688Y053594
X039688Y056134
X042228Y056134
X042228Y053594
X042228Y038354
X042228Y040894
X039688Y040894
X039688Y038354
X037148Y038354
X037148Y040894
X034608Y040894
X034608Y038354
X032068Y038354
X032068Y040894
X029528Y040894
X029528Y038354
X026988Y038354
X026988Y040894
X024448Y040894
X024448Y038354
X021908Y038354
X021908Y040894
X019368Y040894
X019368Y038354
X019368Y021844
X019368Y024384
X021908Y024384
X021908Y021844
X024448Y021844
X024448Y024384
X026988Y024384
X026988Y021844
X029528Y021844
X029528Y024384
X032068Y024384
X032068Y021844
X034608Y021844
X034608Y024384
X037148Y024384
X037148Y021844
X039688Y021844
X039688Y024384
X042228Y024384
X042228Y021844
X042228Y006604
X042228Y009144
X039688Y009144
X039688Y006604
X037148Y006604
X037148Y009144
X034608Y009144
X034608Y006604
X032068Y006604
X032068Y009144
X029528Y009144
X029528Y006604
X026988Y006604
X026988Y009144
X024448Y009144
X024448Y006604
X021908Y006604
X021908Y009144
X019368Y009144
X019368Y006604
T02
X013551Y066827
X048044Y066827
T03
X056198Y004064
X056198Y067564
X005398Y067564
X005398Y004064
M30
