G04 Output by ViewMate Deluxe V11.0.9  PentaLogix LLC*
G04 Tue Dec 09 15:41:15 2014*
%FSLAX33Y33*%
%MOMM*%
%IPPOS*%
%ADD14C,0.13*%
%ADD104C,0.2032*%
%ADD106C,0.127*%

%LPD*%
X0Y0D2*D14*G1X57221Y42215D2*X57417Y42410D1*X57417Y45918D2*X57417Y46307D1*X14440Y2159D2*X15024Y2743D1*X15024Y1575*X14440Y2159D2*X15220Y2159D1*X13269Y1770D2*X13465Y1575D1*X13660Y1575*X13853Y1770*X13853Y2743*X13660Y2743D2*X14049Y2743D1*X13269Y17010D2*X13465Y16815D1*X13660Y16815*X13853Y17010*X14440Y17983D2*X15220Y17983D1*X13660Y17983D2*X14049Y17983D1*X13853Y17010D2*X13853Y17983D1*X14440Y17010D2*X14633Y16815D1*X15024Y16815*X15220Y17010*X15220Y17399*X15024Y17595*X14829Y17595*X14440Y17399*X14440Y17983*X14440Y34300D2*X14633Y34493D1*X15024Y34493*X15220Y34300*X15220Y34105*X15024Y33909*X14829Y33909D2*X15024Y33909D1*X15220Y33713*X15220Y33520*X15024Y33325*X14633Y33325*X14440Y33520*X13269Y33520D2*X13465Y33325D1*X13660Y33325*X13853Y33520*X13853Y34493*X13660Y34493D2*X14049Y34493D1*X9893Y62095D2*X10089Y61900D1*X10282Y61900*X10478Y62095*X10478Y63068*X10673Y63068D2*X10282Y63068D1*X11062Y62680D2*X11453Y63068D1*X11453Y61900*X11841Y61900D2*X11062Y61900D1*X15220Y48565D2*X14440Y48565D1*X15220Y49540D2*X15220Y49345D1*X14440Y48565*X13269Y48760D2*X13465Y48565D1*X13660Y48565*X13853Y48760*X13853Y49733*X14049Y49733D2*X13660Y49733D1*X14440Y49540D2*X14633Y49733D1*X15024Y49733*X15220Y49540*X57417Y55077D2*X56637Y55077D1*X57417Y55857D2*X56832Y55857D1*X56637Y55664*X56637Y55077*X56832Y54689D2*X56637Y54493D1*X56637Y54105*X57221Y53909D2*X57417Y54105D1*X57417Y54689*X56832Y54689*X57028Y54689D2*X57028Y54105D1*X57221Y53909*X56248Y49230D2*X57417Y49230D1*X57221Y51570D2*X56637Y51570D1*X56637Y52741D2*X57417Y52741D1*X57417Y53129D2*X56832Y53129D1*X57417Y53518D2*X56832Y53518D1*X56637Y53325*X56832Y53129*X56637Y52934*X56637Y52741*X56637Y52349D2*X57221Y52349D1*X57417Y52154*X57221Y51961*X57417Y51765*X57221Y51570*X57417Y50985D2*X57417Y50594D1*X57221Y50401*X56832Y50401*X57028Y50401D2*X57028Y51181D1*X56832Y51181*X56637Y50985*X56637Y50594*X56832Y50401*X56248Y50010D2*X57417Y50010D1*X56248Y49230*X56637Y47671D2*X56637Y47087D1*X56832Y46893*X57028Y47087*X57028Y47478*X57221Y47671*X57417Y47478*X57417Y46893*X57417Y45918D2*X57221Y45723D1*X56832Y45723*X57028Y45723D2*X57028Y46502D1*X56832Y46502*X56637Y46307*X56637Y45918*X56832Y45723*X57417Y44943D2*X56832Y44943D1*X57417Y45334D2*X56832Y45334D1*X56637Y45138*X56832Y44943*X56637Y44750*X56637Y44554*X57417Y44554*X57028Y44163D2*X57028Y43579D1*X57221Y43383*X57417Y43579*X57417Y44163*X56832Y44163*X56637Y43970*X56637Y43579*X56248Y42603D2*X56248Y42995D1*X56248Y42799D2*X57221Y42799D1*X57417Y42603*X57417Y42410*D104*X56198Y28158D2*X56198Y28936D1*X55027Y29715D2*X55027Y28158D1*X56198Y30495D2*X56198Y31275D1*X57366Y30495D2*X55027Y30495D1*X55027Y32055*X55806Y35174D2*X55027Y35954D1*X57366Y35954*X57366Y35174D2*X57366Y36733D1*X57755Y32835D2*X57755Y34394D1*X57366Y30495D2*X57366Y32055D1*X57366Y29715D2*X57366Y28158D1*X55027Y28158*X55027Y25819D2*X55027Y27379D1*X57366Y26599D2*X55027Y26599D1*X57755Y23480D2*X57755Y25039D1*X56198Y21140D2*X55027Y22311D1*X57366Y22311*X56198Y21140D2*X56198Y22700D1*X57755Y18801D2*X57755Y20361D1*X55418Y18021D2*X55027Y17633D1*X55027Y16853*X55418Y16464*X56977Y16464D2*X57366Y16853D1*X57366Y17633*X56977Y18021*X56586Y18021*X56198Y17633*X56198Y16853*X55806Y16464*X55418Y16464*X55027Y15684D2*X56977Y15684D1*X57366Y15293*X57366Y14514*X56977Y14125*X55027Y14125*X55027Y11786D2*X57366Y11786D1*X57366Y12954*X56977Y13345*X56586Y13345*X56198Y12954*X56198Y11786D2*X56198Y12954D1*X55806Y13345*X55418Y13345*X55027Y12954*X55027Y11786*D106*X60008Y37084D2*X60008Y42164D1*X52388Y42164D2*X56112Y42164D1*X60008Y42164D2*X57617Y42164D1*X52388Y52324D2*X56420Y52324D1*X60008Y52324D2*X57636Y52324D1*X9208Y57404D2*X9208Y59944D1*X19334Y2225D2*X18131Y2225D1*X18191Y2350D2*X19274Y2350D1*X19210Y2471D2*X18255Y2471D1*X18316Y2596D2*X19149Y2596D1*X19088Y2718D2*X18377Y2718D1*X18438Y2842D2*X19027Y2842D1*X18964Y2964D2*X18501Y2964D1*X18562Y3089D2*X18903Y3089D1*X18842Y3211D2*X18623Y3211D1*X18684Y3335D2*X18781Y3335D1*X18732Y3429D2*X18098Y2159D1*X19368Y2159*X18732Y3429*X19317Y17501D2*X18148Y17501D1*X18209Y17625D2*X19256Y17625D1*X19192Y17747D2*X18273Y17747D1*X18334Y17871D2*X19131Y17871D1*X19070Y17993D2*X18395Y17993D1*X18456Y18118D2*X19009Y18118D1*X18946Y18240D2*X18519Y18240D1*X18580Y18364D2*X18885Y18364D1*X18824Y18486D2*X18641Y18486D1*X18702Y18611D2*X18763Y18611D1*X18732Y18669D2*X18098Y17399D1*X19368Y17399*X18732Y18669*X19317Y34008D2*X18148Y34008D1*X18209Y34133D2*X19256Y34133D1*X19195Y34254D2*X18270Y34254D1*X18331Y34379D2*X19134Y34379D1*X19070Y34501D2*X18395Y34501D1*X18456Y34625D2*X19009Y34625D1*X18948Y34747D2*X18517Y34747D1*X18578Y34872D2*X18887Y34872D1*X18824Y34994D2*X18641Y34994D1*X18702Y35118D2*X18763Y35118D1*X18732Y35179D2*X18098Y33909D1*X19368Y33909*X18732Y35179*X18103Y49162D2*X19362Y49162D1*X19299Y49284D2*X18166Y49284D1*X18227Y49408D2*X19238Y49408D1*X19177Y49530D2*X18288Y49530D1*X18349Y49654D2*X19116Y49654D1*X19053Y49776D2*X18412Y49776D1*X18473Y49901D2*X18992Y49901D1*X18931Y50023D2*X18534Y50023D1*X18595Y50147D2*X18870Y50147D1*X18806Y50269D2*X18659Y50269D1*X18720Y50394D2*X18745Y50394D1*X18732Y50419D2*X18098Y49149D1*X19368Y49149*X18732Y50419*X19312Y63698D2*X19423Y63698D1*X19548Y63574D2*X19187Y63574D1*X19065Y63452D2*X19670Y63452D1*X19794Y63327D2*X18941Y63327D1*X18819Y63205D2*X19916Y63205D1*X20041Y63081D2*X18694Y63081D1*X18572Y62959D2*X20163Y62959D1*X20287Y62835D2*X18448Y62835D1*X18326Y62713D2*X20409Y62713D1*X20533Y62588D2*X18202Y62588D1*X20638Y62484D2*X18098Y62484D1*X19368Y63754*X20638Y62484*X28258Y59944D2*X33338Y59944D1*X33338Y51008D2*X28258Y51008D1*X28258Y50886D2*X33338Y50886D1*X33338Y50762D2*X28258Y50762D1*X28258Y50640D2*X33338Y50640D1*X33338Y50516D2*X28258Y50516D1*X28258Y50394D2*X33338Y50394D1*X33338Y50269D2*X28258Y50269D1*X28258Y50147D2*X33338Y50147D1*X33338Y50023D2*X28258Y50023D1*X28258Y49901D2*X33338Y49901D1*X28258Y49784D2*X28258Y51054D1*X33338Y51054*X33338Y49784*X28258Y49784*X33338Y44704D2*X28258Y44704D1*X28258Y35733D2*X33338Y35733D1*X33338Y35611D2*X28258Y35611D1*X28258Y35486D2*X33338Y35486D1*X33338Y35364D2*X28258Y35364D1*X28258Y35240D2*X33338Y35240D1*X33338Y35118D2*X28258Y35118D1*X28258Y34994D2*X33338Y34994D1*X33338Y34872D2*X28258Y34872D1*X28258Y34747D2*X33338Y34747D1*X33338Y34625D2*X28258Y34625D1*X33338Y34544D2*X33338Y35814D1*X28258Y35814*X28258Y34544*X33338Y34544*X28258Y28194D2*X33338Y28194D1*X33338Y19225D2*X28258Y19225D1*X28258Y19103D2*X33338Y19103D1*X33338Y18979D2*X28258Y18979D1*X28258Y18857D2*X33338Y18857D1*X33338Y18732D2*X28258Y18732D1*X28258Y18611D2*X33338Y18611D1*X33338Y18486D2*X28258Y18486D1*X28258Y18364D2*X33338Y18364D1*X33338Y18240D2*X28258Y18240D1*X28258Y18118D2*X33338Y18118D1*X28258Y18034D2*X28258Y19304D1*X33338Y19304*X33338Y18034*X28258Y18034*X33338Y12954D2*X28258Y12954D1*X28258Y3950D2*X33338Y3950D1*X33338Y3828D2*X28258Y3828D1*X28258Y3703D2*X33338Y3703D1*X33338Y3581D2*X28258Y3581D1*X28258Y3457D2*X33338Y3457D1*X33338Y3335D2*X28258Y3335D1*X28258Y3211D2*X33338Y3211D1*X33338Y3089D2*X28258Y3089D1*X28258Y2964D2*X33338Y2964D1*X33338Y2842D2*X28258Y2842D1*X33338Y2794D2*X33338Y4064D1*X28258Y4064*X28258Y2794*X33338Y2794*X52388Y5334D2*X52388Y2794D1*X52388Y10414D2*X60008Y10414D1*X60008Y5334*X52388Y5334*X52388Y10414*X52388Y12954*X52388Y20574D2*X52388Y18034D1*X52388Y25654D2*X60008Y25654D1*X60008Y20574*X52388Y20574*X52388Y25654*X52388Y28194*X52388Y34544D2*X52388Y37084D1*X60008Y37084D2*X52388Y37084D1*X52388Y42164*X52388Y44704*X52388Y52324D2*X52388Y49784D1*X52388Y57404D2*X60008Y57404D1*X60008Y52324*X52388Y52324D2*X52388Y57404D1*X52388Y59944*X53022Y71374D2*X53022Y63754D1*X8572Y63754*X8572Y71374*X9208Y52324D2*X9208Y57404D1*X1588Y57404*X1588Y52324*X9208Y52324*X9208Y49784*X9208Y44704D2*X9208Y42164D1*X9208Y37084D2*X9208Y42164D1*X1588Y42164*X1588Y37084*X9208Y37084*X9208Y34544*X9208Y28194D2*X9208Y25654D1*X9208Y20574D2*X9208Y25654D1*X1588Y25654*X1588Y20574*X9208Y20574*X9208Y18034*X9208Y10414D2*X9208Y12954D1*X9208Y2794D2*X9208Y5334D1*X1588Y5334D2*X9208Y5334D1*X9208Y10414*X1588Y10414*X1588Y5334*X0Y0D2*M02*