G04 Output by ViewMate Deluxe V11.0.9  PentaLogix LLC*
G04 Tue Dec 09 15:41:15 2014*
%FSLAX33Y33*%
%MOMM*%
%IPPOS*%
%ADD10R,1.651X1.651*%
%ADD11C,1.651*%
%ADD12C,0.4064*%

%LPD*%
X0Y0D2*D12*G1X20638Y7874D2*X19368Y6604D1*X25718Y7874D2*X24448Y6604D1*X30798Y7874D2*X29528Y6604D1*X35878Y7874D2*X34608Y6604D1*X39688Y6604D2*X40958Y7874D1*X40958Y21844*X43498Y21844D2*X43498Y38354D1*X42228Y38354D2*X43498Y38354D1*X43498Y53594*X42228Y53594D2*X43498Y53594D1*X43498Y63754*X42228Y65024*X39688Y65024D2*X40958Y63754D1*X40958Y53594*X39688Y53594D2*X40958Y53594D1*X40958Y38354*X39688Y38354D2*X40958Y38354D1*X40958Y21844*X35878Y7874D2*X35878Y21844D1*X37148Y6604D2*X38418Y7874D1*X38418Y21844*X38418Y38354*X37148Y38354D2*X38418Y38354D1*X38418Y53594*X37148Y53594D2*X38418Y53594D1*X38418Y63754*X37148Y65024*X34608Y65024D2*X35878Y63754D1*X35878Y53594*X34608Y53594D2*X35878Y53594D1*X35878Y38354*X34608Y38354D2*X35878Y38354D1*X35878Y21844*X30798Y7874D2*X30798Y21844D1*X32068Y6604D2*X33338Y7874D1*X33338Y21844*X33338Y38354*X32068Y38354D2*X33338Y38354D1*X33338Y53594*X32068Y53594D2*X33338Y53594D1*X33338Y63754*X32068Y65024*X29528Y65024D2*X30798Y63754D1*X30798Y53594*X29528Y53594D2*X30798Y53594D1*X30798Y38354*X29528Y38354D2*X30798Y38354D1*X30798Y21844*X25718Y7874D2*X25718Y21844D1*X26988Y6604D2*X28258Y7874D1*X28258Y21844*X28258Y38354*X26988Y38354D2*X28258Y38354D1*X28258Y53594*X26988Y53594D2*X28258Y53594D1*X28258Y63754*X26988Y65024*X24448Y65024D2*X25718Y63754D1*X25718Y53594*X24448Y53594D2*X25718Y53594D1*X25718Y38354*X24448Y38354D2*X25718Y38354D1*X25718Y21844*X20638Y7874D2*X20638Y21844D1*X21908Y6604D2*X23178Y7874D1*X23178Y21844*X23178Y38354*X21908Y38354D2*X23178Y38354D1*X23178Y53594*X21908Y53594D2*X23178Y53594D1*X23178Y63754*X21908Y65024*X19368Y65024D2*X20638Y63754D1*X20638Y53594*X19368Y53594D2*X20638Y53594D1*X20638Y38354*X19368Y38354D2*X20638Y38354D1*X20638Y21844*X19368Y21844*X23178Y21844D2*X21908Y21844D1*X25718Y21844D2*X24448Y21844D1*X28258Y21844D2*X26988Y21844D1*X30798Y21844D2*X29528Y21844D1*X33338Y21844D2*X32068Y21844D1*X35878Y21844D2*X34608Y21844D1*X38418Y21844D2*X37148Y21844D1*X40958Y21844D2*X39688Y21844D1*X42228Y21844D2*X43498Y21844D1*X43498Y7874*X42228Y6604*D10*X19368Y65024D3*X19368Y53594D3*X19368Y38354D3*X19368Y21844D3*X19368Y6604D3*D11*X42228Y6604D3*X42228Y9144D3*X39688Y9144D3*X39688Y6604D3*X37148Y6604D3*X37148Y9144D3*X34608Y9144D3*X34608Y6604D3*X32068Y6604D3*X32068Y9144D3*X29528Y9144D3*X29528Y6604D3*X26988Y6604D3*X26988Y9144D3*X24448Y9144D3*X24448Y6604D3*X21908Y6604D3*X21908Y9144D3*X19368Y9144D3*X19368Y24384D3*X21908Y21844D3*X21908Y24384D3*X24448Y24384D3*X24448Y21844D3*X26988Y21844D3*X26988Y24384D3*X29528Y24384D3*X29528Y21844D3*X32068Y21844D3*X32068Y24384D3*X34608Y24384D3*X34608Y21844D3*X37148Y21844D3*X37148Y24384D3*X39688Y24384D3*X39688Y21844D3*X42228Y21844D3*X42228Y24384D3*X42228Y38354D3*X42228Y40894D3*X39688Y40894D3*X39688Y38354D3*X37148Y38354D3*X37148Y40894D3*X34608Y40894D3*X34608Y38354D3*X32068Y38354D3*X32068Y40894D3*X29528Y40894D3*X29528Y38354D3*X26988Y38354D3*X26988Y40894D3*X24448Y40894D3*X24448Y38354D3*X21908Y38354D3*X21908Y40894D3*X19368Y40894D3*X19368Y56134D3*X21908Y53594D3*X21908Y56134D3*X24448Y56134D3*X24448Y53594D3*X26988Y53594D3*X26988Y56134D3*X29528Y56134D3*X29528Y53594D3*X32068Y53594D3*X32068Y56134D3*X34608Y56134D3*X34608Y53594D3*X37148Y53594D3*X37148Y56134D3*X39688Y56134D3*X39688Y53594D3*X42228Y53594D3*X42228Y56134D3*X42228Y65024D3*X42228Y67564D3*X39688Y67564D3*X39688Y65024D3*X37148Y65024D3*X37148Y67564D3*X34608Y67564D3*X34608Y65024D3*X32068Y65024D3*X32068Y67564D3*X29528Y67564D3*X29528Y65024D3*X26988Y65024D3*X26988Y67564D3*X24448Y67564D3*X24448Y65024D3*X21908Y65024D3*X21908Y67564D3*X19368Y67564D3*X0Y0D2*M02*