
M48
METRIC,TZ,000.000
T01C1.1
T02C1.199
T03C5.499
%
M71
G90
T01
X007874Y094298
X007874Y096838
X007874Y099378
X007874Y101918
X007874Y104458
X005334Y104458
X005334Y101918
X005334Y099378
X005334Y096838
X005334Y094298
X005334Y091758
X005334Y089218
X005334Y086678
X005334Y084138
X005334Y081598
X007874Y081598
X007874Y084138
X007874Y086678
X007874Y089218
X007874Y091758
X025654Y093028
X025654Y095568
X025654Y098108
X025654Y100648
X025654Y103188
X025654Y105728
X025654Y108268
X025654Y110808
X025654Y113348
X025654Y115888
X028194Y115888
X028194Y113348
X028194Y110808
X028194Y108268
X028194Y105728
X028194Y103188
X028194Y100648
X028194Y098108
X028194Y095568
X028194Y093028
X049784Y038418
X049784Y040958
X049784Y043498
X049784Y046038
X049784Y048578
X049784Y051118
X049784Y053658
X049784Y056198
X049784Y058738
X049784Y061278
X049784Y063818
X049784Y066358
X049784Y068898
X049784Y071438
X049784Y073978
X049784Y076518
X049784Y079058
X049784Y081598
X049784Y084138
X049784Y086678
X049784Y089218
X049784Y091758
X049784Y094298
X049784Y096838
X049784Y099378
X049784Y101918
X049784Y104458
X049784Y106998
X049784Y109538
X052324Y109538
X052324Y106998
X052324Y104458
X052324Y101918
X052324Y099378
X052324Y096838
X052324Y094298
X052324Y091758
X052324Y089218
X052324Y086678
X052324Y084138
X052324Y081598
X052324Y079058
X052324Y076518
X052324Y073978
X052324Y071438
X052324Y068898
X052324Y066358
X052324Y063818
X052324Y061278
X052324Y058738
X052324Y056198
X052324Y053658
X052324Y051118
X052324Y048578
X052324Y046038
X052324Y043498
X052324Y040958
X052324Y038418
X052324Y035878
X052324Y033338
X052324Y030798
X049784Y030798
X049784Y033338
X049784Y035878
X026924Y035878
X026924Y038418
X026924Y040958
X029464Y040958
X029464Y038418
X029464Y035878
X029464Y033338
X029464Y030798
X029464Y028258
X029464Y025718
X029464Y023178
X029464Y020638
X029464Y018098
X026924Y018098
X026924Y020638
X026924Y023178
X026924Y025718
X026924Y028258
X026924Y030798
X026924Y033338
X007874Y034608
X007874Y037148
X007874Y039688
X007874Y042228
X007874Y044768
X007874Y047308
X007874Y049848
X007874Y052388
X007874Y054928
X007874Y057468
X005334Y057468
X005334Y054928
X005334Y052388
X005334Y049848
X005334Y047308
X005334Y044768
X005334Y042228
X005334Y039688
X005334Y037148
X005334Y034608
T02
X020574Y015558
X038354Y070802
X038354Y065088
X038354Y059372
X038354Y053658
X032004Y053658
X032004Y059372
X032004Y065088
X032004Y070802
X025654Y070802
X025654Y065088
X025654Y059372
X025654Y053658
X019304Y053658
X019304Y059372
X019304Y065088
X019304Y070802
T03
X010254Y123508
X090254Y123508
X090254Y015558
X010254Y015558
M30
