G04 Output by ViewMate Deluxe V11.0.9  PentaLogix LLC*
G04 Mon Nov 10 18:18:37 2014*
%FSLAX33Y33*%
%MOMM*%
%IPPOS*%
%ADD100C,0.127*%

%LPD*%
X0Y0D2*D100*G1X45783Y25835D2*X45783Y26615D1*X44810Y25835D2*X44615Y26028D1*X44615Y26419*X44810Y26615*X45199Y26615*X45395Y26419*X45395Y26224*X45199Y25835*X45783Y25835*X45783Y25055D2*X45783Y25444D1*X45783Y25248D2*X44810Y25248D1*X44615Y25055*X44810Y24664D2*X44615Y24860D1*X44615Y25055*X45974Y72697D2*X47244Y72697D1*X47244Y72575D2*X45974Y72575D1*X45974Y72451D2*X47244Y72451D1*X47244Y72329D2*X45974Y72329D1*X45974Y72205D2*X47244Y72205D1*X47244Y72083D2*X45974Y72083D1*X45974Y71958D2*X47244Y71958D1*X47244Y71836D2*X45974Y71836D1*X45974Y71712D2*X47244Y71712D1*X47244Y71590D2*X45974Y71590D1*X45974Y71465D2*X47244Y71465D1*X47244Y71344D2*X45974Y71344D1*X45974Y71219D2*X47244Y71219D1*X47244Y71097D2*X45974Y71097D1*X45974Y70973D2*X47244Y70973D1*X47244Y70851D2*X45974Y70851D1*X45974Y70726D2*X47244Y70726D1*X47244Y70604D2*X45974Y70604D1*X45974Y70480D2*X47244Y70480D1*X47244Y70358D2*X45974Y70358D1*X45974Y70234D2*X47244Y70234D1*X47244Y70112D2*X45974Y70112D1*X45974Y69987D2*X47244Y69987D1*X47244Y69865D2*X45974Y69865D1*X45974Y69741D2*X47244Y69741D1*X47244Y69619D2*X45974Y69619D1*X45974Y69494D2*X47244Y69494D1*X47244Y69372D2*X45974Y69372D1*X45974Y69248D2*X47244Y69248D1*X47244Y69126D2*X45974Y69126D1*X45974Y69002D2*X47244Y69002D1*X47244Y68880D2*X45974Y68880D1*X45974Y68755D2*X47244Y68755D1*X47244Y68633D2*X45974Y68633D1*X45974Y68509D2*X47244Y68509D1*X47244Y68387D2*X45974Y68387D1*X45974Y68262D2*X47244Y68262D1*X47244Y68141D2*X45974Y68141D1*X45974Y68016D2*X47244Y68016D1*X47244Y67894D2*X45974Y67894D1*X45974Y67770D2*X47244Y67770D1*X47244Y67648D2*X45974Y67648D1*X47244Y67628D2*X47244Y72708D1*X45974Y72708*X45974Y67628*X47244Y67628*X53594Y20638D2*X48514Y20638D1*X45974Y20638D2*X48514Y20638D1*X48514Y13018*X53594Y13018*X53594Y20638*X56134Y20638*X56134Y118428*X53594Y118428*X48514Y118428D2*X48514Y126048D1*X53594Y126048*X53594Y118428*X48514Y118428*X45974Y118428*X45974Y20638*X45339Y30691D2*X45555Y30691D1*X45801Y30566D2*X45339Y30566D1*X45339Y30444D2*X46048Y30444D1*X46294Y30320D2*X45339Y30320D1*X45339Y30198D2*X46540Y30198D1*X46431Y30074D2*X45339Y30074D1*X45339Y29952D2*X46185Y29952D1*X45938Y29827D2*X45339Y29827D1*X45339Y29705D2*X45692Y29705D1*X45339Y29581D2*X45446Y29581D1*X45339Y29528D2*X46609Y30162D1*X45339Y30798*X45339Y29528*X0Y0D2*M02*