G75*
G70*
%OFA0B0*%
%FSLAX24Y24*%
%IPPOS*%
%LPD*%
%AMOC8*
5,1,8,0,0,1.08239X$1,22.5*
%
%ADD10R,0.1500X0.1500*%
%ADD11C,0.0515*%
%ADD12C,0.0476*%
%ADD13R,0.0650X0.0650*%
%ADD14C,0.0650*%
%ADD15C,0.0160*%
%ADD16C,0.0400*%
D10*
X145517Y004375D03*
X148767Y004375D03*
D11*
X142017Y004625D03*
X141017Y004625D03*
X140767Y006625D03*
X142767Y006625D03*
X147267Y007875D03*
X149267Y007875D03*
X150267Y007875D03*
X152267Y007875D03*
X153517Y007875D03*
X155517Y007875D03*
X156767Y007875D03*
X158767Y007875D03*
X160017Y007875D03*
X162017Y007875D03*
X163017Y007875D03*
X165017Y007875D03*
X166017Y007875D03*
X168017Y007875D03*
X169017Y007875D03*
X171017Y007875D03*
X171017Y008875D03*
X169017Y008875D03*
X168017Y008875D03*
X166017Y008875D03*
X165017Y008875D03*
X165017Y009875D03*
X166017Y009875D03*
X168017Y009875D03*
X169017Y009875D03*
X171017Y009875D03*
X163017Y009875D03*
X162017Y009875D03*
X160017Y009875D03*
X158767Y009875D03*
X156767Y009875D03*
X155517Y009875D03*
X153517Y009875D03*
X152267Y009875D03*
X150267Y009875D03*
X149267Y009875D03*
X149267Y008875D03*
X150267Y008875D03*
X152267Y008875D03*
X153517Y008875D03*
X155517Y008875D03*
X156767Y008875D03*
X158767Y008875D03*
X160017Y008875D03*
X162017Y008875D03*
X163017Y008875D03*
X147267Y008875D03*
X147267Y009875D03*
X113017Y008625D03*
X111017Y008625D03*
X109267Y008625D03*
X107267Y008625D03*
X105267Y008625D03*
X103267Y008625D03*
X101267Y008625D03*
X099267Y008625D03*
X097767Y008375D03*
X095767Y008375D03*
X092267Y009125D03*
X092267Y007125D03*
X092267Y006375D03*
X092267Y004375D03*
X057767Y005125D03*
X055767Y005125D03*
X055767Y007625D03*
X057767Y007625D03*
X018267Y016125D03*
X016267Y016125D03*
X014517Y016375D03*
X012517Y016375D03*
X011517Y016375D03*
X009517Y016375D03*
X008517Y016375D03*
X006517Y016375D03*
X005517Y016375D03*
X003517Y016375D03*
X003517Y015625D03*
X005517Y015625D03*
X006517Y015625D03*
X008517Y015625D03*
X009517Y015625D03*
X011517Y015625D03*
X012517Y015625D03*
X014517Y015625D03*
X014517Y012625D03*
X012517Y012625D03*
X011517Y012625D03*
X009517Y012625D03*
X008517Y012625D03*
X006517Y012625D03*
X005517Y012625D03*
X003517Y012625D03*
X003517Y011875D03*
X005517Y011875D03*
X006517Y011875D03*
X008517Y011875D03*
X009517Y011875D03*
X011517Y011875D03*
X012517Y011875D03*
X014517Y011875D03*
X014267Y011125D03*
X012767Y011125D03*
X011267Y011125D03*
X009767Y011125D03*
X008267Y011125D03*
X006767Y011125D03*
X005267Y011125D03*
X003767Y011125D03*
X003767Y010125D03*
X005267Y010125D03*
X006767Y010125D03*
X008267Y010125D03*
X009767Y010125D03*
X011267Y010125D03*
X012767Y010125D03*
X014267Y010125D03*
X013767Y019625D03*
X011267Y019625D03*
X008767Y019625D03*
X006267Y019625D03*
X003767Y019625D03*
X001267Y019625D03*
X001267Y021625D03*
X003767Y021625D03*
X006267Y021625D03*
X008767Y021625D03*
X011267Y021625D03*
X013767Y021625D03*
X016267Y021625D03*
X018767Y021625D03*
X021767Y020625D03*
X023767Y020625D03*
X024767Y020625D03*
X026767Y020625D03*
X028017Y021625D03*
X028017Y022625D03*
X018767Y022625D03*
X016267Y022625D03*
X013767Y022625D03*
X011267Y022625D03*
X008767Y022625D03*
X006267Y022625D03*
X003767Y022625D03*
X001267Y022625D03*
X001267Y024625D03*
X003767Y024625D03*
X006267Y024625D03*
X008767Y024625D03*
X011267Y024625D03*
X013767Y024625D03*
X016267Y024625D03*
X018767Y024625D03*
X018767Y025625D03*
X016267Y025625D03*
X013767Y025625D03*
X011267Y025625D03*
X008767Y025625D03*
X006267Y025625D03*
X003767Y025625D03*
X001267Y025625D03*
X002267Y027125D03*
X001267Y027625D03*
X002267Y028125D03*
X004767Y028125D03*
X003767Y027625D03*
X004767Y027125D03*
X006267Y027625D03*
X007267Y027125D03*
X008767Y027625D03*
X009767Y027125D03*
X011267Y027625D03*
X012267Y027125D03*
X013767Y027625D03*
X014767Y027125D03*
X016267Y027625D03*
X017267Y027125D03*
X018767Y027625D03*
X019767Y027125D03*
X021767Y026875D03*
X023767Y026875D03*
X024767Y026875D03*
X026767Y026875D03*
X029517Y027125D03*
X030517Y026875D03*
X032517Y026875D03*
X033517Y026875D03*
X035517Y026875D03*
X036517Y026875D03*
X038517Y026875D03*
X039517Y026875D03*
X041517Y026875D03*
X044267Y027625D03*
X045267Y027125D03*
X046767Y027625D03*
X047767Y027125D03*
X049267Y027625D03*
X050267Y027125D03*
X051767Y027625D03*
X052767Y027125D03*
X054267Y027625D03*
X055267Y027125D03*
X056767Y027625D03*
X057767Y027125D03*
X059267Y027625D03*
X060267Y027125D03*
X061767Y027625D03*
X062767Y027125D03*
X064767Y026875D03*
X066767Y026875D03*
X067767Y026875D03*
X069767Y026875D03*
X072517Y027125D03*
X073517Y026875D03*
X075517Y026875D03*
X076517Y026875D03*
X078517Y026875D03*
X079517Y026875D03*
X081517Y026875D03*
X082517Y026875D03*
X084517Y026875D03*
X085517Y026125D03*
X084517Y025875D03*
X082517Y025875D03*
X081517Y025875D03*
X079517Y025875D03*
X078517Y025875D03*
X076517Y025875D03*
X075517Y025875D03*
X073517Y025875D03*
X072517Y025125D03*
X071017Y024625D03*
X069767Y025875D03*
X067767Y025875D03*
X066767Y025875D03*
X064767Y025875D03*
X061767Y025625D03*
X059267Y025625D03*
X056767Y025625D03*
X054267Y025625D03*
X051767Y025625D03*
X049267Y025625D03*
X046767Y025625D03*
X044267Y025625D03*
X042517Y025625D03*
X041517Y025875D03*
X039517Y025875D03*
X038517Y025875D03*
X036517Y025875D03*
X035517Y025875D03*
X033517Y025875D03*
X032517Y025875D03*
X030517Y025875D03*
X029517Y025125D03*
X028017Y024625D03*
X026767Y025875D03*
X024767Y025875D03*
X023767Y025875D03*
X021767Y025875D03*
X019767Y028125D03*
X017267Y028125D03*
X014767Y028125D03*
X012267Y028125D03*
X009767Y028125D03*
X007267Y028125D03*
X042517Y023625D03*
X044267Y022625D03*
X046767Y022625D03*
X049267Y022625D03*
X051767Y022625D03*
X054267Y022625D03*
X056767Y022625D03*
X059267Y022625D03*
X061767Y022625D03*
X061767Y021625D03*
X059267Y021625D03*
X056767Y021625D03*
X054267Y021625D03*
X051767Y021625D03*
X049267Y021625D03*
X046767Y021625D03*
X044267Y021625D03*
X041517Y020375D03*
X039517Y020375D03*
X038517Y020375D03*
X036517Y020375D03*
X035517Y020375D03*
X033517Y020375D03*
X032517Y020375D03*
X030517Y020375D03*
X030517Y019625D03*
X032517Y019625D03*
X033517Y019625D03*
X035517Y019625D03*
X036517Y019625D03*
X038517Y019625D03*
X039517Y019625D03*
X041517Y019625D03*
X044267Y019625D03*
X046767Y019625D03*
X049267Y019625D03*
X051767Y019625D03*
X054267Y019625D03*
X056767Y019625D03*
X059267Y019625D03*
X061767Y019625D03*
X064767Y019875D03*
X066767Y019875D03*
X067767Y019875D03*
X069767Y019875D03*
X071017Y019625D03*
X073517Y019625D03*
X073517Y020375D03*
X075517Y020375D03*
X076517Y020375D03*
X078517Y020375D03*
X079517Y020375D03*
X081517Y020375D03*
X082517Y020375D03*
X084517Y020375D03*
X084517Y019625D03*
X082517Y019625D03*
X081517Y019625D03*
X079517Y019625D03*
X078517Y019625D03*
X076517Y019625D03*
X075517Y019625D03*
X069767Y020625D03*
X067767Y020625D03*
X066767Y020625D03*
X064767Y020625D03*
X071017Y021625D03*
X071017Y022625D03*
X061767Y024625D03*
X059267Y024625D03*
X056767Y024625D03*
X054267Y024625D03*
X051767Y024625D03*
X049267Y024625D03*
X046767Y024625D03*
X044267Y024625D03*
X045267Y028125D03*
X047767Y028125D03*
X050267Y028125D03*
X052767Y028125D03*
X055267Y028125D03*
X057767Y028125D03*
X060267Y028125D03*
X062767Y028125D03*
X085517Y024125D03*
X087267Y024625D03*
X089767Y024625D03*
X092267Y024625D03*
X094767Y024625D03*
X097267Y024625D03*
X099767Y024625D03*
X102267Y024625D03*
X104767Y024625D03*
X104767Y025625D03*
X102267Y025625D03*
X099767Y025625D03*
X097267Y025625D03*
X094767Y025625D03*
X092267Y025625D03*
X089767Y025625D03*
X087267Y025625D03*
X088267Y027125D03*
X087267Y027625D03*
X088267Y028125D03*
X090767Y028125D03*
X089767Y027625D03*
X090767Y027125D03*
X092267Y027625D03*
X093267Y027125D03*
X094767Y027625D03*
X095767Y027125D03*
X097267Y027625D03*
X098267Y027125D03*
X099767Y027625D03*
X100767Y027125D03*
X102267Y027625D03*
X103267Y027125D03*
X104767Y027625D03*
X105767Y027125D03*
X107767Y026875D03*
X109767Y026875D03*
X110767Y026875D03*
X112767Y026875D03*
X115517Y027125D03*
X116517Y026875D03*
X118517Y026875D03*
X119517Y026875D03*
X121517Y026875D03*
X122517Y026875D03*
X124517Y026875D03*
X125517Y026875D03*
X127517Y026875D03*
X130267Y027625D03*
X131267Y027125D03*
X132767Y027625D03*
X133767Y027125D03*
X135267Y027625D03*
X136267Y027125D03*
X137767Y027625D03*
X138767Y027125D03*
X140267Y027625D03*
X141267Y027125D03*
X142767Y027625D03*
X143767Y027125D03*
X145267Y027625D03*
X146267Y027125D03*
X147767Y027625D03*
X148767Y027125D03*
X150767Y026875D03*
X152767Y026875D03*
X153767Y026875D03*
X155767Y026875D03*
X158517Y027125D03*
X159517Y026875D03*
X161517Y026875D03*
X162517Y026875D03*
X164517Y026875D03*
X165517Y026875D03*
X167517Y026875D03*
X168517Y026875D03*
X170517Y026875D03*
X172517Y026375D03*
X170517Y025875D03*
X168517Y025875D03*
X167517Y025875D03*
X165517Y025875D03*
X164517Y025875D03*
X162517Y025875D03*
X161517Y025875D03*
X159517Y025875D03*
X158517Y025125D03*
X157017Y024625D03*
X155767Y025875D03*
X153767Y025875D03*
X152767Y025875D03*
X150767Y025875D03*
X147767Y025625D03*
X145267Y025625D03*
X142767Y025625D03*
X140267Y025625D03*
X137767Y025625D03*
X135267Y025625D03*
X132767Y025625D03*
X130267Y025625D03*
X128767Y025125D03*
X130267Y024625D03*
X132767Y024625D03*
X135267Y024625D03*
X137767Y024625D03*
X140267Y024625D03*
X142767Y024625D03*
X145267Y024625D03*
X147767Y024625D03*
X147767Y022625D03*
X147767Y021875D03*
X145267Y021875D03*
X142767Y021625D03*
X140267Y021625D03*
X137767Y021625D03*
X135267Y021625D03*
X132767Y021625D03*
X130267Y021625D03*
X130267Y022625D03*
X132767Y022625D03*
X135267Y022625D03*
X137767Y022625D03*
X140267Y022625D03*
X142767Y022625D03*
X145267Y022625D03*
X150767Y020375D03*
X150767Y019625D03*
X147767Y019875D03*
X145267Y019875D03*
X142767Y019625D03*
X140267Y019625D03*
X137767Y019625D03*
X135267Y019625D03*
X132767Y019625D03*
X130267Y019625D03*
X127517Y019625D03*
X125517Y019625D03*
X124517Y019625D03*
X122517Y019625D03*
X121517Y019625D03*
X119517Y019625D03*
X118517Y019625D03*
X116517Y019625D03*
X114017Y019625D03*
X112767Y019875D03*
X110767Y019875D03*
X109767Y019875D03*
X107767Y019875D03*
X104767Y019625D03*
X102267Y019625D03*
X099767Y019625D03*
X097267Y019625D03*
X094767Y019625D03*
X092267Y019625D03*
X089767Y019625D03*
X087267Y019625D03*
X087267Y021625D03*
X089767Y021625D03*
X092267Y021625D03*
X094767Y021625D03*
X097267Y021625D03*
X099767Y021625D03*
X102267Y021625D03*
X104767Y021625D03*
X107767Y020625D03*
X109767Y020625D03*
X110767Y020625D03*
X112767Y020625D03*
X114017Y021625D03*
X114017Y022625D03*
X114017Y024625D03*
X115517Y025125D03*
X116517Y025875D03*
X118517Y025875D03*
X119517Y025875D03*
X121517Y025875D03*
X122517Y025875D03*
X124517Y025875D03*
X125517Y025875D03*
X127517Y025875D03*
X128767Y023125D03*
X127517Y020375D03*
X125517Y020375D03*
X124517Y020375D03*
X122517Y020375D03*
X121517Y020375D03*
X119517Y020375D03*
X118517Y020375D03*
X116517Y020375D03*
X104767Y022625D03*
X102267Y022625D03*
X099767Y022625D03*
X097267Y022625D03*
X094767Y022625D03*
X092267Y022625D03*
X089767Y022625D03*
X087267Y022625D03*
X107767Y025875D03*
X109767Y025875D03*
X110767Y025875D03*
X112767Y025875D03*
X105767Y028125D03*
X103267Y028125D03*
X100767Y028125D03*
X098267Y028125D03*
X095767Y028125D03*
X093267Y028125D03*
X131267Y028125D03*
X133767Y028125D03*
X136267Y028125D03*
X138767Y028125D03*
X141267Y028125D03*
X143767Y028125D03*
X146267Y028125D03*
X148767Y028125D03*
X172517Y024375D03*
X157017Y022625D03*
X157017Y021625D03*
X155767Y020375D03*
X153767Y020375D03*
X152767Y020375D03*
X152767Y019625D03*
X153767Y019625D03*
X155767Y019625D03*
X157017Y019625D03*
X159517Y019625D03*
X159517Y020375D03*
X161517Y020375D03*
X162517Y020375D03*
X164517Y020375D03*
X165517Y020375D03*
X167517Y020375D03*
X168517Y020375D03*
X170517Y020375D03*
X170517Y019625D03*
X168517Y019625D03*
X167517Y019625D03*
X165517Y019625D03*
X164517Y019625D03*
X162517Y019625D03*
X161517Y019625D03*
X028017Y019625D03*
X026767Y019875D03*
X024767Y019875D03*
X023767Y019875D03*
X021767Y019875D03*
X018767Y019625D03*
X016267Y019625D03*
D12*
X015267Y020375D03*
X014767Y020875D03*
X012767Y020375D03*
X012267Y020875D03*
X010267Y020375D03*
X009767Y020875D03*
X007767Y020375D03*
X007267Y020875D03*
X005267Y020375D03*
X004767Y020875D03*
X002767Y020375D03*
X002267Y020875D03*
X002767Y021375D03*
X005267Y021375D03*
X007767Y021375D03*
X010267Y021375D03*
X012767Y021375D03*
X015267Y021375D03*
X017267Y020875D03*
X017767Y020375D03*
X019767Y020875D03*
X020267Y020375D03*
X020267Y021375D03*
X022267Y021625D03*
X023767Y021625D03*
X025267Y021625D03*
X026767Y021625D03*
X029517Y021375D03*
X031017Y021625D03*
X032517Y021625D03*
X034017Y021625D03*
X035517Y021625D03*
X037017Y021625D03*
X038517Y021625D03*
X040017Y021625D03*
X041517Y021625D03*
X042017Y022125D03*
X041517Y022625D03*
X040517Y022125D03*
X040017Y022625D03*
X039017Y022125D03*
X038517Y022625D03*
X037517Y022125D03*
X037017Y022625D03*
X036017Y022125D03*
X035517Y022625D03*
X034517Y022125D03*
X034017Y022625D03*
X033017Y022125D03*
X032517Y022625D03*
X031517Y022125D03*
X031017Y022625D03*
X029017Y023125D03*
X029517Y023625D03*
X029017Y024125D03*
X030517Y024125D03*
X031017Y023625D03*
X032017Y024125D03*
X032517Y023625D03*
X033517Y024125D03*
X034017Y023625D03*
X035017Y024125D03*
X035517Y023625D03*
X036517Y024125D03*
X037017Y023625D03*
X038017Y024125D03*
X038517Y023625D03*
X039517Y024125D03*
X040017Y023625D03*
X041017Y024125D03*
X041517Y023625D03*
X045267Y023625D03*
X045767Y023125D03*
X047767Y023625D03*
X048267Y023125D03*
X050267Y023625D03*
X050767Y023125D03*
X050267Y022625D03*
X047767Y022625D03*
X045267Y022625D03*
X045767Y021375D03*
X048267Y021375D03*
X050767Y021375D03*
X050267Y020875D03*
X050767Y020375D03*
X048267Y020375D03*
X047767Y020875D03*
X045767Y020375D03*
X045267Y020875D03*
X052767Y020875D03*
X053267Y020375D03*
X055267Y020875D03*
X055767Y020375D03*
X057767Y020875D03*
X058267Y020375D03*
X060267Y020875D03*
X060767Y020375D03*
X062767Y020875D03*
X063267Y020375D03*
X063267Y021375D03*
X065267Y021625D03*
X066767Y021625D03*
X068267Y021625D03*
X069767Y021625D03*
X070267Y022125D03*
X069767Y022625D03*
X068767Y022125D03*
X068267Y022625D03*
X067267Y022125D03*
X066767Y022625D03*
X065767Y022125D03*
X065267Y022625D03*
X063267Y023125D03*
X062767Y023625D03*
X064767Y024125D03*
X065267Y023625D03*
X066267Y024125D03*
X066767Y023625D03*
X067767Y024125D03*
X068267Y023625D03*
X069267Y024125D03*
X069767Y023625D03*
X072017Y023125D03*
X072517Y023625D03*
X072017Y024125D03*
X073517Y024125D03*
X074017Y023625D03*
X075017Y024125D03*
X075517Y023625D03*
X076517Y024125D03*
X077017Y023625D03*
X078017Y024125D03*
X078517Y023625D03*
X079517Y024125D03*
X080017Y023625D03*
X081017Y024125D03*
X081517Y023625D03*
X082517Y024125D03*
X083017Y023625D03*
X084017Y024125D03*
X084517Y023625D03*
X088267Y023625D03*
X088767Y023125D03*
X090767Y023625D03*
X091267Y023125D03*
X093267Y023625D03*
X093767Y023125D03*
X095767Y023625D03*
X096267Y023125D03*
X095767Y022625D03*
X093267Y022625D03*
X090767Y022625D03*
X088267Y022625D03*
X085017Y022125D03*
X084517Y022625D03*
X083517Y022125D03*
X083017Y022625D03*
X082017Y022125D03*
X081517Y022625D03*
X080517Y022125D03*
X080017Y022625D03*
X079017Y022125D03*
X078517Y022625D03*
X077517Y022125D03*
X077017Y022625D03*
X076017Y022125D03*
X075517Y022625D03*
X074517Y022125D03*
X074017Y022625D03*
X074017Y021625D03*
X075517Y021625D03*
X077017Y021625D03*
X078517Y021625D03*
X080017Y021625D03*
X081517Y021625D03*
X083017Y021625D03*
X084517Y021625D03*
X088267Y020875D03*
X088767Y020375D03*
X090767Y020875D03*
X091267Y020375D03*
X093267Y020875D03*
X093767Y020375D03*
X095767Y020875D03*
X096267Y020375D03*
X098267Y020875D03*
X098767Y020375D03*
X100767Y020875D03*
X101267Y020375D03*
X103267Y020875D03*
X103767Y020375D03*
X105767Y020625D03*
X106267Y021125D03*
X108267Y021625D03*
X109767Y021625D03*
X111267Y021625D03*
X112767Y021625D03*
X115517Y021375D03*
X117017Y021625D03*
X118517Y021625D03*
X120017Y021625D03*
X121517Y021625D03*
X123017Y021625D03*
X124517Y021625D03*
X126017Y021625D03*
X127517Y021625D03*
X128017Y022125D03*
X127517Y022625D03*
X126517Y022125D03*
X126017Y022625D03*
X125017Y022125D03*
X124517Y022625D03*
X123517Y022125D03*
X123017Y022625D03*
X122017Y022125D03*
X121517Y022625D03*
X120517Y022125D03*
X120017Y022625D03*
X119017Y022125D03*
X118517Y022625D03*
X117517Y022125D03*
X117017Y022625D03*
X115017Y023125D03*
X115517Y023625D03*
X115017Y024125D03*
X116517Y024125D03*
X117017Y023625D03*
X118017Y024125D03*
X118517Y023625D03*
X119517Y024125D03*
X120017Y023625D03*
X121017Y024125D03*
X121517Y023625D03*
X122517Y024125D03*
X123017Y023625D03*
X124017Y024125D03*
X124517Y023625D03*
X125517Y024125D03*
X126017Y023625D03*
X127017Y024125D03*
X127517Y023625D03*
X131267Y023625D03*
X131767Y023125D03*
X133767Y023625D03*
X134267Y023125D03*
X136267Y023625D03*
X136767Y023125D03*
X136267Y022625D03*
X133767Y022625D03*
X131267Y022625D03*
X131767Y021375D03*
X134267Y021375D03*
X136767Y021375D03*
X136267Y020875D03*
X136767Y020375D03*
X134267Y020375D03*
X133767Y020875D03*
X131767Y020375D03*
X131267Y020875D03*
X138767Y020875D03*
X139267Y020375D03*
X141267Y020875D03*
X141767Y020375D03*
X143767Y020875D03*
X144267Y020375D03*
X146267Y020875D03*
X146767Y020375D03*
X148767Y020875D03*
X149267Y020375D03*
X149267Y021375D03*
X151267Y021625D03*
X152767Y021625D03*
X154267Y021625D03*
X155767Y021625D03*
X156267Y022125D03*
X155767Y022625D03*
X154767Y022125D03*
X154267Y022625D03*
X153267Y022125D03*
X152767Y022625D03*
X151767Y022125D03*
X151267Y022625D03*
X149267Y023125D03*
X148767Y023625D03*
X150767Y024125D03*
X151267Y023625D03*
X152267Y024125D03*
X152767Y023625D03*
X153767Y024125D03*
X154267Y023625D03*
X155267Y024125D03*
X155767Y023625D03*
X158017Y023125D03*
X158517Y023625D03*
X158017Y024125D03*
X159517Y024125D03*
X160017Y023625D03*
X161017Y024125D03*
X161517Y023625D03*
X162517Y024125D03*
X163017Y023625D03*
X164017Y024125D03*
X164517Y023625D03*
X165517Y024125D03*
X166017Y023625D03*
X167017Y024125D03*
X167517Y023625D03*
X168517Y024125D03*
X169017Y023625D03*
X170017Y024125D03*
X170517Y023625D03*
X170517Y022625D03*
X171017Y022125D03*
X169517Y022125D03*
X169017Y022625D03*
X168017Y022125D03*
X167517Y022625D03*
X166517Y022125D03*
X166017Y022625D03*
X165017Y022125D03*
X164517Y022625D03*
X163517Y022125D03*
X163017Y022625D03*
X162017Y022125D03*
X161517Y022625D03*
X160517Y022125D03*
X160017Y022625D03*
X160017Y021625D03*
X161517Y021625D03*
X163017Y021625D03*
X164517Y021625D03*
X166017Y021625D03*
X167517Y021625D03*
X169017Y021625D03*
X170517Y021625D03*
X158517Y021375D03*
X158017Y020875D03*
X158517Y020375D03*
X148767Y022625D03*
X146267Y022625D03*
X146767Y023125D03*
X146267Y023625D03*
X144267Y023125D03*
X143767Y023625D03*
X141767Y023125D03*
X141267Y023625D03*
X139267Y023125D03*
X138767Y023625D03*
X138767Y022625D03*
X141267Y022625D03*
X143767Y022625D03*
X144267Y021375D03*
X146767Y021375D03*
X141767Y021375D03*
X139267Y021375D03*
X127517Y024625D03*
X126017Y024625D03*
X124517Y024625D03*
X123017Y024625D03*
X121517Y024625D03*
X120017Y024625D03*
X118517Y024625D03*
X117017Y024625D03*
X112767Y024625D03*
X111267Y024625D03*
X109767Y024625D03*
X108267Y024625D03*
X105767Y024875D03*
X106267Y025375D03*
X105767Y025875D03*
X103767Y025375D03*
X103267Y024875D03*
X101267Y025375D03*
X100767Y024875D03*
X098767Y025375D03*
X098267Y024875D03*
X098267Y025875D03*
X100767Y025875D03*
X103267Y025875D03*
X096267Y025375D03*
X095767Y024875D03*
X093767Y025375D03*
X093267Y024875D03*
X091267Y025375D03*
X090767Y024875D03*
X088767Y025375D03*
X088267Y024875D03*
X088267Y025875D03*
X090767Y025875D03*
X093267Y025875D03*
X095767Y025875D03*
X098267Y023625D03*
X098767Y023125D03*
X100767Y023625D03*
X101267Y023125D03*
X103267Y023625D03*
X103767Y023125D03*
X105767Y023625D03*
X106267Y023125D03*
X108267Y023625D03*
X107767Y024125D03*
X109267Y024125D03*
X109767Y023625D03*
X110767Y024125D03*
X111267Y023625D03*
X112267Y024125D03*
X112767Y023625D03*
X112767Y022625D03*
X113267Y022125D03*
X111767Y022125D03*
X111267Y022625D03*
X110267Y022125D03*
X109767Y022625D03*
X108767Y022125D03*
X108267Y022625D03*
X105767Y022625D03*
X103267Y022625D03*
X100767Y022625D03*
X098267Y022625D03*
X098767Y021375D03*
X101267Y021375D03*
X103767Y021375D03*
X106267Y020125D03*
X115017Y020875D03*
X115517Y020375D03*
X096267Y021375D03*
X093767Y021375D03*
X091267Y021375D03*
X088767Y021375D03*
X084517Y024625D03*
X083017Y024625D03*
X081517Y024625D03*
X080017Y024625D03*
X078517Y024625D03*
X077017Y024625D03*
X075517Y024625D03*
X074017Y024625D03*
X071517Y025625D03*
X071017Y026125D03*
X071517Y026625D03*
X063267Y025375D03*
X062767Y024875D03*
X060767Y025375D03*
X060267Y024875D03*
X058267Y025375D03*
X057767Y024875D03*
X055767Y025375D03*
X055267Y024875D03*
X053267Y025375D03*
X052767Y024875D03*
X052767Y025875D03*
X055267Y025875D03*
X057767Y025875D03*
X060267Y025875D03*
X062767Y025875D03*
X065267Y024625D03*
X066767Y024625D03*
X068267Y024625D03*
X069767Y024625D03*
X060767Y023125D03*
X060267Y023625D03*
X058267Y023125D03*
X057767Y023625D03*
X055767Y023125D03*
X055267Y023625D03*
X053267Y023125D03*
X052767Y023625D03*
X052767Y022625D03*
X055267Y022625D03*
X057767Y022625D03*
X060267Y022625D03*
X062767Y022625D03*
X060767Y021375D03*
X058267Y021375D03*
X055767Y021375D03*
X053267Y021375D03*
X041517Y024625D03*
X040017Y024625D03*
X038517Y024625D03*
X037017Y024625D03*
X035517Y024625D03*
X034017Y024625D03*
X032517Y024625D03*
X031017Y024625D03*
X026767Y024625D03*
X025267Y024625D03*
X023767Y024625D03*
X022267Y024625D03*
X019767Y024875D03*
X020267Y025375D03*
X019767Y025875D03*
X017767Y025375D03*
X017267Y024875D03*
X015267Y025375D03*
X014767Y024875D03*
X012767Y025375D03*
X012267Y024875D03*
X010267Y025375D03*
X009767Y024875D03*
X007767Y025375D03*
X007267Y024875D03*
X005267Y025375D03*
X004767Y024875D03*
X002767Y025375D03*
X002267Y024875D03*
X002267Y025875D03*
X004767Y025875D03*
X007267Y025875D03*
X009767Y025875D03*
X012267Y025875D03*
X014767Y025875D03*
X017267Y025875D03*
X021767Y024125D03*
X022267Y023625D03*
X023267Y024125D03*
X023767Y023625D03*
X024767Y024125D03*
X025267Y023625D03*
X026267Y024125D03*
X026767Y023625D03*
X026767Y022625D03*
X027267Y022125D03*
X025767Y022125D03*
X025267Y022625D03*
X024267Y022125D03*
X023767Y022625D03*
X022767Y022125D03*
X022267Y022625D03*
X019767Y022625D03*
X020267Y023125D03*
X019767Y023625D03*
X017767Y023125D03*
X017267Y023625D03*
X015267Y023125D03*
X014767Y023625D03*
X012767Y023125D03*
X012267Y023625D03*
X010267Y023125D03*
X009767Y023625D03*
X007767Y023125D03*
X007267Y023625D03*
X005267Y023125D03*
X004767Y023625D03*
X002767Y023125D03*
X002267Y023625D03*
X002267Y022625D03*
X004767Y022625D03*
X007267Y022625D03*
X009767Y022625D03*
X012267Y022625D03*
X014767Y022625D03*
X017267Y022625D03*
X017767Y021375D03*
X029017Y020875D03*
X029517Y020375D03*
X045267Y024875D03*
X045767Y025375D03*
X045267Y025875D03*
X047767Y025875D03*
X048267Y025375D03*
X047767Y024875D03*
X050267Y024875D03*
X050767Y025375D03*
X050267Y025875D03*
X028517Y025625D03*
X028017Y026125D03*
X028517Y026625D03*
X072017Y020875D03*
X072517Y020375D03*
X072517Y021375D03*
X114017Y026125D03*
X114517Y025625D03*
X114517Y026625D03*
X131267Y025875D03*
X131767Y025375D03*
X131267Y024875D03*
X133767Y024875D03*
X134267Y025375D03*
X133767Y025875D03*
X136267Y025875D03*
X136767Y025375D03*
X136267Y024875D03*
X138767Y024875D03*
X139267Y025375D03*
X138767Y025875D03*
X141267Y025875D03*
X141767Y025375D03*
X141267Y024875D03*
X143767Y024875D03*
X144267Y025375D03*
X143767Y025875D03*
X146267Y025875D03*
X146767Y025375D03*
X146267Y024875D03*
X148767Y024875D03*
X149267Y025375D03*
X148767Y025875D03*
X151267Y024625D03*
X152767Y024625D03*
X154267Y024625D03*
X155767Y024625D03*
X157517Y025625D03*
X157017Y026125D03*
X157517Y026625D03*
X160017Y024625D03*
X161517Y024625D03*
X163017Y024625D03*
X164517Y024625D03*
X166017Y024625D03*
X167517Y024625D03*
X169017Y024625D03*
X170517Y024625D03*
X093267Y008375D03*
X093767Y007875D03*
X093267Y007375D03*
X099267Y007625D03*
X099767Y007125D03*
X100267Y007625D03*
X103267Y007625D03*
X103767Y007125D03*
X104267Y007625D03*
X107267Y007625D03*
X107767Y007125D03*
X108267Y007625D03*
X111017Y007625D03*
X111517Y007125D03*
X112017Y007625D03*
X111517Y006125D03*
X112017Y005625D03*
X111017Y005625D03*
X111017Y004625D03*
X112017Y004625D03*
X111517Y004125D03*
X108267Y004625D03*
X107267Y004625D03*
X107767Y004125D03*
X104267Y004625D03*
X103267Y004625D03*
X100267Y004625D03*
X099267Y004625D03*
X099767Y004125D03*
X103767Y004125D03*
X104267Y005625D03*
X103267Y005625D03*
X100267Y005625D03*
X099267Y005625D03*
X099767Y006125D03*
X103767Y006125D03*
X107267Y005625D03*
X108267Y005625D03*
X107767Y006125D03*
X093767Y005375D03*
X093267Y005875D03*
X093267Y004875D03*
X054767Y005125D03*
X054267Y004625D03*
X054767Y004125D03*
X054767Y006625D03*
X054267Y007125D03*
X054767Y007625D03*
X049767Y007125D03*
X049267Y007625D03*
X049767Y008125D03*
X048267Y008125D03*
X047767Y007625D03*
X048267Y007125D03*
X046767Y007125D03*
X046267Y007625D03*
X046767Y008125D03*
X045267Y008125D03*
X044767Y007625D03*
X045267Y007125D03*
X043767Y007125D03*
X043267Y007625D03*
X043767Y008125D03*
X042267Y008125D03*
X041767Y007625D03*
X042267Y007125D03*
X040767Y007375D03*
X039267Y007375D03*
X037767Y007375D03*
X036267Y007375D03*
X034767Y007375D03*
X033267Y007375D03*
X031767Y007375D03*
X030267Y007375D03*
X028767Y007375D03*
X027267Y007375D03*
X026767Y007875D03*
X027267Y008375D03*
X028267Y007875D03*
X028767Y008375D03*
X029767Y007875D03*
X030267Y008375D03*
X031267Y007875D03*
X031767Y008375D03*
X032767Y007875D03*
X033267Y008375D03*
X034267Y007875D03*
X034767Y008375D03*
X035767Y007875D03*
X036267Y008375D03*
X037267Y007875D03*
X037767Y008375D03*
X038767Y007875D03*
X039267Y008375D03*
X040267Y007875D03*
X040767Y008375D03*
X027017Y011625D03*
X025517Y011625D03*
X024017Y011625D03*
X022517Y011625D03*
X021017Y011625D03*
X019517Y011625D03*
X018017Y011625D03*
X016517Y011625D03*
X016017Y012125D03*
X016517Y012625D03*
X017517Y012125D03*
X018017Y012625D03*
X019017Y012125D03*
X019517Y012625D03*
X020517Y012125D03*
X021017Y012625D03*
X022017Y012125D03*
X022517Y012625D03*
X023517Y012125D03*
X024017Y012625D03*
X025017Y012125D03*
X025517Y012625D03*
X026517Y012125D03*
X027017Y012625D03*
X014517Y013625D03*
X014017Y014125D03*
X013017Y013625D03*
X012517Y014125D03*
X011517Y013625D03*
X011017Y014125D03*
X010017Y013625D03*
X009517Y014125D03*
X008517Y013625D03*
X008017Y014125D03*
X007017Y013625D03*
X006517Y014125D03*
X005517Y013625D03*
X005017Y014125D03*
X004017Y013625D03*
X003517Y014125D03*
X004017Y014625D03*
X005517Y014625D03*
X007017Y014625D03*
X008517Y014625D03*
X010017Y014625D03*
X011517Y014625D03*
X013017Y014625D03*
X014517Y014625D03*
D13*
X016767Y005125D03*
X046767Y005125D03*
X071017Y007625D03*
X077517Y005125D03*
X072767Y030375D03*
X052267Y030375D03*
X029767Y030375D03*
X009267Y030375D03*
X095267Y030375D03*
X115767Y030375D03*
X138267Y030375D03*
X158767Y030375D03*
D14*
X007767Y004125D03*
X008767Y004125D03*
X009767Y004125D03*
X010767Y004125D03*
X011767Y004125D03*
X012767Y004125D03*
X013767Y004125D03*
X014767Y004125D03*
X015767Y004125D03*
X016767Y004125D03*
X015767Y005125D03*
X014767Y005125D03*
X013767Y005125D03*
X012767Y005125D03*
X011767Y005125D03*
X010767Y005125D03*
X009767Y005125D03*
X008767Y005125D03*
X007767Y005125D03*
X037767Y005125D03*
X038767Y005125D03*
X039767Y005125D03*
X040767Y005125D03*
X041767Y005125D03*
X042767Y005125D03*
X043767Y005125D03*
X044767Y005125D03*
X045767Y005125D03*
X045767Y004125D03*
X046767Y004125D03*
X044767Y004125D03*
X043767Y004125D03*
X042767Y004125D03*
X041767Y004125D03*
X040767Y004125D03*
X039767Y004125D03*
X038767Y004125D03*
X037767Y004125D03*
X072017Y007625D03*
X073017Y007625D03*
X074017Y007625D03*
X075017Y007625D03*
X076017Y007625D03*
X077017Y007625D03*
X078017Y007625D03*
X079017Y007625D03*
X080017Y007625D03*
X081017Y007625D03*
X082017Y007625D03*
X083017Y007625D03*
X084017Y007625D03*
X085017Y007625D03*
X086017Y007625D03*
X078517Y005125D03*
X078767Y030375D03*
X079767Y030375D03*
X080767Y030375D03*
X081767Y030375D03*
X077767Y030375D03*
X076767Y030375D03*
X075767Y030375D03*
X074767Y030375D03*
X073767Y030375D03*
X073767Y031375D03*
X074767Y031375D03*
X075767Y031375D03*
X076767Y031375D03*
X077767Y031375D03*
X078767Y031375D03*
X079767Y031375D03*
X080767Y031375D03*
X081767Y031375D03*
X072767Y031375D03*
X061267Y031375D03*
X060267Y031375D03*
X059267Y031375D03*
X058267Y031375D03*
X057267Y031375D03*
X056267Y031375D03*
X055267Y031375D03*
X054267Y031375D03*
X053267Y031375D03*
X052267Y031375D03*
X053267Y030375D03*
X054267Y030375D03*
X055267Y030375D03*
X056267Y030375D03*
X057267Y030375D03*
X058267Y030375D03*
X059267Y030375D03*
X060267Y030375D03*
X061267Y030375D03*
X038767Y030375D03*
X037767Y030375D03*
X036767Y030375D03*
X035767Y030375D03*
X034767Y030375D03*
X033767Y030375D03*
X032767Y030375D03*
X031767Y030375D03*
X030767Y030375D03*
X030767Y031375D03*
X031767Y031375D03*
X032767Y031375D03*
X033767Y031375D03*
X034767Y031375D03*
X035767Y031375D03*
X036767Y031375D03*
X037767Y031375D03*
X038767Y031375D03*
X029767Y031375D03*
X018267Y031375D03*
X017267Y031375D03*
X016267Y031375D03*
X015267Y031375D03*
X014267Y031375D03*
X013267Y031375D03*
X012267Y031375D03*
X011267Y031375D03*
X010267Y031375D03*
X009267Y031375D03*
X010267Y030375D03*
X011267Y030375D03*
X012267Y030375D03*
X013267Y030375D03*
X014267Y030375D03*
X015267Y030375D03*
X016267Y030375D03*
X017267Y030375D03*
X018267Y030375D03*
X095267Y031375D03*
X096267Y031375D03*
X097267Y031375D03*
X098267Y031375D03*
X099267Y031375D03*
X100267Y031375D03*
X101267Y031375D03*
X102267Y031375D03*
X103267Y031375D03*
X104267Y031375D03*
X104267Y030375D03*
X103267Y030375D03*
X102267Y030375D03*
X101267Y030375D03*
X100267Y030375D03*
X099267Y030375D03*
X098267Y030375D03*
X097267Y030375D03*
X096267Y030375D03*
X115767Y031375D03*
X116767Y031375D03*
X117767Y031375D03*
X118767Y031375D03*
X119767Y031375D03*
X120767Y031375D03*
X121767Y031375D03*
X122767Y031375D03*
X123767Y031375D03*
X124767Y031375D03*
X124767Y030375D03*
X123767Y030375D03*
X122767Y030375D03*
X121767Y030375D03*
X120767Y030375D03*
X119767Y030375D03*
X118767Y030375D03*
X117767Y030375D03*
X116767Y030375D03*
X138267Y031375D03*
X139267Y031375D03*
X140267Y031375D03*
X141267Y031375D03*
X142267Y031375D03*
X143267Y031375D03*
X144267Y031375D03*
X145267Y031375D03*
X146267Y031375D03*
X147267Y031375D03*
X147267Y030375D03*
X146267Y030375D03*
X145267Y030375D03*
X144267Y030375D03*
X143267Y030375D03*
X142267Y030375D03*
X141267Y030375D03*
X140267Y030375D03*
X139267Y030375D03*
X158767Y031375D03*
X159767Y031375D03*
X160767Y031375D03*
X161767Y031375D03*
X162767Y031375D03*
X163767Y031375D03*
X164767Y031375D03*
X165767Y031375D03*
X166767Y031375D03*
X167767Y031375D03*
X167767Y030375D03*
X166767Y030375D03*
X165767Y030375D03*
X164767Y030375D03*
X163767Y030375D03*
X162767Y030375D03*
X161767Y030375D03*
X160767Y030375D03*
X159767Y030375D03*
D15*
X159767Y028375D01*
X158517Y027125D01*
X158017Y026625D01*
X157517Y026625D01*
X155767Y025875D02*
X155267Y026375D01*
X155267Y029375D01*
X154767Y029875D01*
X147767Y029875D01*
X147267Y030375D01*
X147017Y029625D02*
X146267Y030375D01*
X145267Y030375D02*
X146267Y029375D01*
X151517Y029375D01*
X152017Y028875D01*
X152017Y026625D01*
X152767Y025875D01*
X152767Y024625D01*
X154267Y024625D02*
X154267Y026375D01*
X153767Y026875D01*
X153767Y029125D01*
X153267Y029625D01*
X147017Y029625D01*
X145267Y029125D02*
X150267Y029125D01*
X150767Y028625D01*
X150767Y026875D01*
X151267Y026375D01*
X151267Y024625D01*
X149267Y024375D02*
X148767Y024875D01*
X149267Y025375D02*
X149267Y026125D01*
X149017Y026375D01*
X148767Y026375D01*
X148267Y026875D01*
X148267Y028375D01*
X147767Y028875D01*
X143517Y028875D01*
X142267Y030125D01*
X142267Y030375D01*
X141767Y030125D02*
X142517Y029375D01*
X142517Y028875D01*
X142767Y028625D01*
X144517Y028625D01*
X144767Y028375D01*
X144767Y027125D01*
X145267Y026625D01*
X146517Y026625D01*
X146767Y026375D01*
X146767Y025375D01*
X146267Y024875D02*
X146767Y024375D01*
X146767Y023125D01*
X144267Y023125D02*
X144267Y024375D01*
X143767Y024875D01*
X144267Y025375D02*
X144267Y026375D01*
X144017Y026625D01*
X142517Y026625D01*
X142017Y027125D01*
X142017Y029375D01*
X141267Y030125D01*
X141267Y030375D01*
X141767Y030125D02*
X141767Y030875D01*
X141267Y031375D01*
X140767Y030875D02*
X140267Y031375D01*
X139767Y030875D02*
X139267Y031375D01*
X138267Y031375D02*
X137517Y030625D01*
X137517Y030375D01*
X137017Y029875D01*
X132267Y029875D01*
X131767Y029375D01*
X131767Y025375D01*
X131267Y024875D02*
X131767Y024375D01*
X131767Y023125D01*
X134267Y023125D02*
X134267Y024375D01*
X133767Y024875D01*
X134267Y025375D02*
X134267Y028875D01*
X134767Y029375D01*
X139017Y029375D01*
X139267Y029625D01*
X139267Y030375D01*
X139767Y030875D02*
X139767Y029625D01*
X139267Y029125D01*
X137267Y029125D01*
X136767Y028625D01*
X136767Y025375D01*
X136267Y024875D02*
X136767Y024375D01*
X136767Y023125D01*
X136267Y022625D02*
X136267Y021625D01*
X135267Y021625D01*
X134767Y021375D02*
X134267Y021375D01*
X134767Y021375D02*
X134767Y017375D01*
X132267Y017125D02*
X132267Y021125D01*
X132017Y021375D01*
X131767Y021375D01*
X131267Y021625D02*
X130267Y021625D01*
X131267Y021625D02*
X131267Y022625D01*
X133767Y022625D02*
X133767Y021625D01*
X132767Y021625D01*
X133767Y021625D02*
X133767Y020875D01*
X136267Y020875D02*
X136267Y021625D01*
X136767Y021375D02*
X137017Y021375D01*
X137267Y021125D01*
X137267Y017625D01*
X139767Y017875D02*
X139767Y021125D01*
X139517Y021375D01*
X139267Y021375D01*
X138767Y021625D02*
X137767Y021625D01*
X138767Y021625D02*
X138767Y022625D01*
X141267Y022625D02*
X141267Y021625D01*
X140267Y021625D01*
X141267Y021625D02*
X141267Y020875D01*
X142017Y021375D02*
X142267Y021125D01*
X142267Y018125D01*
X144767Y018375D02*
X144767Y021125D01*
X144517Y021375D01*
X144267Y021375D01*
X143767Y021625D02*
X142767Y021625D01*
X142017Y021375D02*
X141767Y021375D01*
X143767Y021625D02*
X143767Y022625D01*
X145267Y021875D02*
X146267Y021875D01*
X146267Y022625D01*
X148767Y022625D02*
X148767Y021875D01*
X147767Y021875D01*
X147267Y021125D02*
X147017Y021375D01*
X146767Y021375D01*
X147267Y021125D02*
X147267Y018625D01*
X149767Y018875D02*
X149767Y021125D01*
X149517Y021375D01*
X149267Y021375D01*
X148767Y020875D02*
X148767Y021875D01*
X146267Y021875D02*
X146267Y020875D01*
X143767Y020875D02*
X143767Y021625D01*
X138767Y021625D02*
X138767Y020875D01*
X131267Y020875D02*
X131267Y021625D01*
X128017Y022125D02*
X128017Y010125D01*
X127017Y010625D02*
X127017Y024125D01*
X125517Y024125D02*
X125517Y021125D01*
X126017Y020625D01*
X126017Y011125D01*
X126517Y010875D02*
X126517Y022125D01*
X125017Y022125D02*
X125017Y011375D01*
X124017Y011625D02*
X124017Y024125D01*
X122517Y024125D02*
X122517Y021125D01*
X123017Y020625D01*
X123017Y012125D01*
X123517Y011875D02*
X123517Y022125D01*
X122017Y022125D02*
X122017Y012375D01*
X121017Y012625D02*
X121017Y024125D01*
X119517Y024125D02*
X119517Y021125D01*
X120017Y020625D01*
X120017Y013125D01*
X120517Y012875D02*
X120517Y022125D01*
X119017Y022125D02*
X119017Y013375D01*
X118017Y013625D02*
X118017Y024125D01*
X116517Y024125D02*
X116017Y023625D01*
X116017Y014125D01*
X117517Y013875D02*
X117517Y022125D01*
X118517Y021625D02*
X118517Y020375D01*
X121517Y020375D02*
X121517Y021625D01*
X124517Y021625D02*
X124517Y020375D01*
X127517Y020375D02*
X127517Y021625D01*
X139267Y023125D02*
X139267Y024375D01*
X138767Y024875D01*
X139267Y025375D02*
X139267Y028625D01*
X140267Y029625D01*
X140267Y030375D01*
X140767Y030875D02*
X140767Y025625D01*
X141017Y025375D01*
X141767Y025375D01*
X141267Y024875D02*
X141767Y024375D01*
X141767Y023125D01*
X142767Y024625D02*
X142767Y025625D01*
X145267Y025625D02*
X145267Y024625D01*
X147767Y024625D02*
X147767Y025625D01*
X149267Y024375D02*
X149267Y023125D01*
X150267Y023625D02*
X150767Y024125D01*
X150267Y023625D02*
X150267Y016625D01*
X147267Y013625D01*
X147267Y009875D01*
X148267Y009375D02*
X148267Y012625D01*
X151767Y016375D01*
X151767Y022125D01*
X153267Y022125D02*
X153267Y015875D01*
X152767Y015375D01*
X150267Y012625D01*
X150267Y009875D01*
X150267Y008875D02*
X151267Y009625D01*
X151267Y012375D01*
X154267Y015625D01*
X154267Y020625D01*
X153767Y021125D01*
X153767Y024125D01*
X155267Y024125D02*
X155267Y015125D01*
X153517Y012875D01*
X153517Y009875D01*
X154267Y009625D02*
X154267Y012625D01*
X156267Y014875D01*
X156267Y022125D01*
X154767Y022125D02*
X154767Y015375D01*
X152767Y012875D01*
X152767Y008375D01*
X152267Y007875D01*
X149767Y008375D02*
X149767Y013125D01*
X152267Y016125D01*
X152267Y024125D01*
X155767Y024625D02*
X155767Y025875D01*
X157017Y026125D02*
X157017Y025375D01*
X157517Y024875D01*
X157517Y017375D01*
X158017Y015125D02*
X154767Y011875D01*
X154767Y008125D01*
X154017Y007375D01*
X113017Y007375D01*
X112267Y008125D01*
X111017Y008125D01*
X111017Y007625D01*
X111017Y008125D02*
X111017Y008625D01*
X108017Y009375D02*
X107267Y008625D01*
X107267Y007625D01*
X108267Y007625D02*
X108267Y005625D01*
X107267Y005625D02*
X107267Y004625D01*
X107767Y004125D02*
X103767Y004125D01*
X099767Y004125D01*
X099267Y003625D01*
X092267Y003625D01*
X090267Y005625D01*
X080767Y005625D01*
X079267Y004125D01*
X070017Y004125D01*
X067767Y006375D01*
X057017Y006375D01*
X055767Y007625D01*
X054267Y007125D02*
X053017Y005875D01*
X048017Y005875D01*
X047267Y005125D01*
X046767Y005125D01*
X047017Y005625D02*
X045267Y005625D01*
X044767Y005125D01*
X045767Y005125D02*
X046267Y004625D01*
X047267Y004625D01*
X048267Y005625D01*
X053267Y005625D01*
X054267Y004625D01*
X054767Y005125D02*
X055267Y005125D01*
X055767Y005125D01*
X055267Y005125D02*
X055267Y016375D01*
X053017Y013375D02*
X050767Y015625D01*
X045017Y015625D01*
X043767Y016875D01*
X043517Y016875D01*
X044767Y017125D02*
X044767Y021125D01*
X045017Y021375D01*
X045767Y021375D01*
X047267Y021125D02*
X047517Y021375D01*
X048267Y021375D01*
X047267Y021125D02*
X047267Y017375D01*
X048267Y017375D02*
X048267Y020375D01*
X050767Y020375D02*
X050767Y017625D01*
X049767Y017625D02*
X049767Y021125D01*
X050017Y021375D01*
X050767Y021375D01*
X052267Y021125D02*
X052517Y021375D01*
X053267Y021375D01*
X052267Y021125D02*
X052267Y017875D01*
X053267Y017875D02*
X053267Y020375D01*
X055767Y020375D02*
X055767Y018125D01*
X054767Y018125D02*
X054767Y021125D01*
X055017Y021375D01*
X055767Y021375D01*
X057267Y021125D02*
X057517Y021375D01*
X058267Y021375D01*
X057267Y021125D02*
X057267Y018375D01*
X058267Y018375D02*
X058267Y020375D01*
X060767Y020375D02*
X060767Y018625D01*
X059767Y018625D02*
X059767Y021125D01*
X060017Y021375D01*
X060767Y021375D01*
X062267Y021125D02*
X062267Y019125D01*
X063267Y019375D02*
X063267Y020375D01*
X064767Y019875D02*
X065267Y020125D01*
X065267Y021625D01*
X066767Y021625D02*
X066767Y020625D01*
X067767Y021375D02*
X068267Y020875D01*
X068267Y015125D01*
X068767Y014875D02*
X068767Y022125D01*
X070267Y022125D02*
X070267Y014875D01*
X070017Y014375D01*
X069267Y014625D02*
X069267Y024125D01*
X067767Y024125D02*
X067767Y021375D01*
X069767Y021625D02*
X069767Y020625D01*
X072017Y020875D02*
X072017Y011625D01*
X069767Y009375D01*
X072517Y008875D02*
X075017Y011375D01*
X075017Y013625D01*
X075017Y024125D01*
X076517Y024125D02*
X076517Y021125D01*
X077017Y020625D01*
X077017Y013125D01*
X077017Y011125D01*
X074517Y008625D01*
X074517Y007125D01*
X074767Y006875D01*
X075517Y006875D01*
X076017Y007375D01*
X076017Y007625D01*
X076517Y007875D02*
X076517Y007125D01*
X077767Y007125D01*
X078017Y007375D01*
X078017Y007625D01*
X078517Y007125D02*
X078517Y008125D01*
X080017Y009625D01*
X080017Y012125D01*
X080017Y020625D01*
X079517Y021125D01*
X079517Y024125D01*
X081017Y024125D02*
X081017Y011625D01*
X081017Y008875D01*
X080517Y008375D01*
X080517Y007125D01*
X080767Y006875D01*
X081517Y006875D01*
X082017Y007375D01*
X082017Y007625D01*
X082517Y007125D02*
X082517Y008625D01*
X083017Y009125D01*
X083017Y011125D01*
X083017Y020625D01*
X082517Y021125D01*
X082517Y024125D01*
X084017Y024125D02*
X084017Y010625D01*
X084017Y009875D01*
X084517Y009375D01*
X084517Y007125D01*
X084767Y006875D01*
X085517Y006875D01*
X086017Y007375D01*
X086017Y007625D01*
X085017Y007625D02*
X085017Y010125D01*
X085017Y022125D01*
X083517Y022125D02*
X083517Y010875D01*
X083517Y008375D01*
X083017Y007875D01*
X083017Y007625D01*
X082517Y007125D02*
X082767Y006875D01*
X083267Y006875D01*
X084017Y007625D01*
X082017Y009125D02*
X081017Y008125D01*
X081017Y007625D01*
X080017Y007625D02*
X080017Y007375D01*
X079517Y006875D01*
X078767Y006875D01*
X078517Y007125D01*
X079017Y007625D02*
X079017Y007875D01*
X080517Y009375D01*
X080517Y011875D01*
X080517Y022125D01*
X082017Y022125D02*
X082017Y011375D01*
X082017Y009125D01*
X079017Y009625D02*
X079017Y012375D01*
X079017Y022125D01*
X077517Y022125D02*
X077517Y012875D01*
X077517Y010625D01*
X075017Y008125D01*
X075017Y007625D01*
X074017Y007625D02*
X074017Y007375D01*
X073517Y006875D01*
X073017Y006875D01*
X072517Y007375D01*
X072517Y008875D01*
X071017Y008375D02*
X074517Y011875D01*
X074517Y013875D01*
X074517Y022125D01*
X074017Y021625D02*
X073517Y022125D01*
X073517Y022875D01*
X073767Y023125D01*
X074267Y023125D01*
X074517Y023375D01*
X074517Y028125D01*
X074767Y028375D01*
X074767Y030375D01*
X075267Y030875D02*
X075267Y028125D01*
X075017Y027875D01*
X075017Y026375D01*
X075517Y025875D01*
X075517Y024625D01*
X077017Y024625D02*
X077017Y026375D01*
X076517Y026875D01*
X076267Y027125D01*
X076267Y030875D01*
X076767Y031375D01*
X077767Y031375D02*
X078267Y030875D01*
X078267Y027875D01*
X077767Y027375D01*
X077767Y026625D01*
X078517Y025875D01*
X078517Y024625D01*
X080017Y024625D02*
X080017Y026375D01*
X079517Y026875D01*
X079267Y027125D01*
X079267Y030875D01*
X078767Y031375D01*
X079767Y031375D02*
X080267Y030875D01*
X080267Y027125D01*
X081517Y025875D01*
X081517Y024625D01*
X083017Y024625D02*
X083017Y026375D01*
X082517Y026875D01*
X082517Y027875D01*
X081267Y029125D01*
X081267Y030875D01*
X080767Y031375D01*
X081767Y031375D02*
X082517Y030625D01*
X082517Y028625D01*
X083517Y027625D01*
X083517Y026875D01*
X084517Y025875D01*
X084517Y024625D01*
X087267Y024625D02*
X087267Y025625D01*
X088767Y025375D02*
X089017Y025625D01*
X089017Y028875D01*
X089517Y029375D01*
X094017Y029375D01*
X094517Y029875D01*
X094517Y030625D01*
X095267Y031375D01*
X096267Y031375D02*
X096767Y030875D01*
X096767Y029125D01*
X096267Y028625D01*
X095017Y028625D01*
X094267Y027875D01*
X094267Y025875D01*
X093767Y025375D01*
X093267Y024875D02*
X093767Y024375D01*
X093767Y023125D01*
X096267Y023125D02*
X096267Y024375D01*
X095767Y024875D01*
X096267Y025375D02*
X096767Y025875D01*
X096767Y028375D01*
X097267Y028875D01*
X097267Y030375D01*
X097767Y030875D02*
X097767Y025625D01*
X098017Y025375D01*
X098767Y025375D01*
X098267Y024875D02*
X098767Y024375D01*
X098767Y023125D01*
X101267Y023125D02*
X101267Y024375D01*
X100767Y024875D01*
X101267Y025375D02*
X101267Y026375D01*
X101017Y026625D01*
X099267Y026625D01*
X098767Y027125D01*
X098767Y028375D01*
X098267Y028875D01*
X098267Y030375D01*
X098767Y030875D02*
X098767Y029125D01*
X099267Y028625D01*
X101267Y028625D01*
X101767Y028125D01*
X101767Y027125D01*
X102267Y026625D01*
X103517Y026625D01*
X103767Y026375D01*
X103767Y025375D01*
X103267Y024875D02*
X103767Y024375D01*
X103767Y023125D01*
X106267Y023125D02*
X106267Y024375D01*
X105767Y024875D01*
X106267Y025375D02*
X106267Y026375D01*
X106017Y026625D01*
X104517Y026625D01*
X104267Y026875D01*
X104267Y028375D01*
X103767Y028875D01*
X099767Y028875D01*
X099267Y029375D01*
X099267Y030375D01*
X098767Y030875D02*
X098267Y031375D01*
X097767Y030875D02*
X097267Y031375D01*
X096267Y030375D02*
X096267Y029375D01*
X096017Y029125D01*
X092267Y029125D01*
X091767Y028625D01*
X091767Y025875D01*
X091267Y025375D01*
X090767Y024875D02*
X091267Y024375D01*
X091267Y023125D01*
X088767Y023125D02*
X088767Y024375D01*
X088267Y024875D01*
X089767Y024625D02*
X089767Y025625D01*
X092267Y025625D02*
X092267Y024625D01*
X094767Y024625D02*
X094767Y025625D01*
X097267Y025625D02*
X097267Y024625D01*
X099767Y024625D02*
X099767Y025625D01*
X102267Y025625D02*
X102267Y024625D01*
X104767Y024625D02*
X104767Y025625D01*
X107767Y026875D02*
X108267Y026375D01*
X108267Y024625D01*
X109767Y024625D02*
X109767Y025875D01*
X108767Y026875D01*
X108767Y028875D01*
X108267Y029375D01*
X102767Y029375D01*
X102267Y029875D01*
X102267Y030375D01*
X103267Y030375D02*
X103267Y030125D01*
X103767Y029625D01*
X110017Y029625D01*
X110767Y028875D01*
X110767Y026875D01*
X111267Y026375D01*
X111267Y024625D01*
X112767Y024625D02*
X112767Y025875D01*
X111767Y026875D01*
X111767Y028625D01*
X110517Y029875D01*
X104767Y029875D01*
X104267Y030375D01*
X101767Y029125D02*
X101267Y029625D01*
X101267Y030375D01*
X101767Y029125D02*
X107267Y029125D01*
X107767Y028625D01*
X107767Y026875D01*
X114017Y026125D02*
X114017Y025375D01*
X114517Y024875D01*
X114517Y016875D01*
X109517Y017125D02*
X109517Y015625D01*
X109017Y015875D02*
X109017Y017125D01*
X108767Y017375D01*
X108767Y022125D01*
X110267Y022125D02*
X110267Y015375D01*
X111267Y015125D02*
X111267Y020875D01*
X110767Y021375D01*
X110767Y024125D01*
X112267Y024125D02*
X112267Y014625D01*
X111767Y014875D02*
X111767Y022125D01*
X113267Y022125D02*
X113267Y014375D01*
X108267Y016125D02*
X108267Y020875D01*
X107767Y021375D01*
X107767Y024125D01*
X109267Y024125D02*
X109267Y017375D01*
X109517Y017125D01*
X103767Y018625D02*
X103767Y020375D01*
X105267Y020875D02*
X105517Y021125D01*
X106267Y021125D01*
X105267Y020875D02*
X105267Y019125D01*
X106267Y019125D02*
X106267Y020125D01*
X109767Y020625D02*
X109767Y021625D01*
X112767Y021625D02*
X112767Y020625D01*
X115017Y020875D02*
X115017Y009625D01*
X114767Y009375D01*
X108017Y009375D01*
X103267Y008625D02*
X103267Y007625D01*
X104267Y007625D02*
X104267Y005625D01*
X103267Y005625D02*
X103267Y004625D01*
X100267Y005625D02*
X100267Y007625D01*
X099767Y007125D02*
X096017Y007125D01*
X095267Y007875D01*
X093767Y007875D01*
X091267Y007875D01*
X089767Y006375D01*
X078767Y006375D01*
X077517Y005125D01*
X078517Y005125D02*
X079267Y005875D01*
X090767Y005875D01*
X091267Y005375D01*
X093767Y005375D01*
X096767Y005375D01*
X097517Y006125D01*
X099767Y006125D01*
X099267Y005625D02*
X099267Y004625D01*
X093267Y004875D02*
X092767Y004375D01*
X092267Y004375D01*
X092267Y007125D02*
X093017Y007125D01*
X093267Y007375D01*
X099267Y007625D02*
X099267Y008625D01*
X112017Y007625D02*
X112017Y005625D01*
X111017Y005625D02*
X111017Y004625D01*
X111517Y004125D02*
X107767Y004125D01*
X079017Y009625D02*
X077017Y007625D01*
X076517Y007875D02*
X078017Y009375D01*
X078017Y012625D01*
X078017Y024125D01*
X074017Y024625D02*
X074017Y026375D01*
X073517Y026875D01*
X073517Y028375D01*
X074267Y029125D01*
X074267Y030875D01*
X074767Y031375D01*
X075267Y030875D02*
X075767Y031375D01*
X073767Y030375D02*
X073767Y029125D01*
X072517Y027875D01*
X072517Y027125D01*
X072017Y026625D01*
X071517Y026625D01*
X069767Y025875D02*
X068767Y026875D01*
X068767Y029375D01*
X068267Y029875D01*
X061767Y029875D01*
X061267Y030375D01*
X061017Y029625D02*
X060267Y030375D01*
X059267Y030375D02*
X060517Y029125D01*
X065267Y029125D01*
X065767Y028625D01*
X065767Y026875D01*
X066767Y025875D01*
X066767Y024625D01*
X068267Y024625D02*
X068267Y026375D01*
X067767Y026875D01*
X067767Y029125D01*
X067267Y029625D01*
X061017Y029625D01*
X060017Y028875D02*
X058517Y030375D01*
X058267Y030375D01*
X056267Y030375D02*
X056267Y029375D01*
X056767Y028875D01*
X058767Y028875D01*
X059017Y028625D01*
X060517Y028625D01*
X061017Y028125D01*
X061017Y027125D01*
X061517Y026625D01*
X063017Y026625D01*
X063267Y026375D01*
X063267Y025375D01*
X062767Y024875D02*
X063267Y024375D01*
X063267Y023125D01*
X064267Y023625D02*
X064267Y017375D01*
X065267Y016125D01*
X065767Y015875D02*
X065767Y022125D01*
X067267Y022125D02*
X067267Y015375D01*
X066267Y015625D02*
X066267Y024125D01*
X064767Y024125D02*
X064267Y023625D01*
X060767Y023125D02*
X060767Y024375D01*
X060267Y024875D01*
X060767Y025375D02*
X060767Y026375D01*
X060517Y026625D01*
X059267Y026625D01*
X058517Y027375D01*
X058517Y028375D01*
X058267Y028625D01*
X056517Y028625D01*
X055767Y029375D01*
X055767Y030625D01*
X055267Y031125D01*
X055267Y031375D01*
X054767Y030875D02*
X054267Y031375D01*
X053767Y030875D02*
X053267Y031375D01*
X052267Y031375D02*
X052017Y031375D01*
X051517Y030875D01*
X051517Y030125D01*
X051267Y029875D01*
X046517Y029875D01*
X045767Y029125D01*
X045767Y025375D01*
X045267Y024875D02*
X045767Y024375D01*
X045767Y023125D01*
X048267Y023125D02*
X048267Y024375D01*
X047767Y024875D01*
X048267Y025375D02*
X048267Y029125D01*
X048767Y029625D01*
X052767Y029625D01*
X053267Y030125D01*
X053267Y030375D01*
X053767Y029875D02*
X053267Y029375D01*
X051017Y029375D01*
X050767Y029125D01*
X050767Y025375D01*
X050267Y024875D02*
X050767Y024375D01*
X050767Y023125D01*
X053267Y023125D02*
X053267Y024375D01*
X052767Y024875D01*
X053267Y025375D02*
X053267Y028875D01*
X054267Y029875D01*
X054267Y030375D01*
X054767Y030875D02*
X054767Y025625D01*
X055017Y025375D01*
X055767Y025375D01*
X055267Y024875D02*
X055767Y024375D01*
X055767Y023125D01*
X058267Y023125D02*
X058267Y024375D01*
X057767Y024875D01*
X058267Y025375D02*
X058267Y026375D01*
X058017Y026625D01*
X056767Y026625D01*
X056017Y027375D01*
X056017Y028375D01*
X055267Y029125D01*
X055267Y030375D01*
X053767Y030875D02*
X053767Y029875D01*
X060017Y028875D02*
X064517Y028875D01*
X064767Y028625D01*
X064767Y026875D01*
X065267Y026375D01*
X065267Y024625D01*
X061767Y024625D02*
X061767Y025625D01*
X059267Y025625D02*
X059267Y024625D01*
X056767Y024625D02*
X056767Y025625D01*
X054267Y025625D02*
X054267Y024625D01*
X051767Y024625D02*
X051767Y025625D01*
X049267Y025625D02*
X049267Y024625D01*
X046767Y024625D02*
X046767Y025625D01*
X044267Y025625D02*
X044267Y024625D01*
X041517Y024625D02*
X041517Y025875D01*
X039767Y027625D01*
X039767Y030375D01*
X038767Y031375D01*
X038267Y030875D02*
X037767Y031375D01*
X037267Y030875D02*
X036767Y031375D01*
X036267Y030875D02*
X035767Y031375D01*
X035267Y030875D02*
X034767Y031375D01*
X034267Y030875D02*
X033767Y031375D01*
X033267Y030875D02*
X032767Y031375D01*
X031767Y031375D02*
X031267Y030875D01*
X031267Y027625D01*
X030517Y026875D01*
X031017Y026375D01*
X031017Y024625D01*
X032517Y024625D02*
X032517Y025875D01*
X033017Y026375D01*
X033017Y027625D01*
X033267Y027875D01*
X033267Y030875D01*
X034267Y030875D02*
X034267Y027625D01*
X033517Y026875D01*
X034017Y026375D01*
X034017Y024625D01*
X035517Y024625D02*
X035517Y025875D01*
X036017Y026375D01*
X036017Y028625D01*
X035267Y029375D01*
X035267Y030875D01*
X036267Y030875D02*
X036267Y027125D01*
X036517Y026875D01*
X037017Y026375D01*
X037017Y024625D01*
X038517Y024625D02*
X038517Y025875D01*
X037267Y027125D01*
X037267Y030875D01*
X038267Y030875D02*
X038267Y028125D01*
X039517Y026875D01*
X040017Y026375D01*
X040017Y024625D01*
X039517Y024125D02*
X039517Y021125D01*
X040017Y020625D01*
X040017Y012125D01*
X038767Y010875D01*
X039267Y010625D02*
X040517Y011875D01*
X040517Y022125D01*
X042017Y022125D02*
X042017Y011875D01*
X040267Y010125D01*
X039767Y010375D02*
X041017Y011625D01*
X041017Y024125D01*
X038017Y024125D02*
X038017Y011625D01*
X037767Y011375D01*
X038267Y011125D02*
X039017Y011875D01*
X039017Y022125D01*
X037517Y022125D02*
X037517Y011875D01*
X037267Y011625D01*
X037017Y012125D02*
X036767Y011875D01*
X037017Y012125D02*
X037017Y020625D01*
X036517Y021125D01*
X036517Y024125D01*
X035017Y024125D02*
X035017Y012625D01*
X034767Y012375D01*
X034767Y012125D01*
X035767Y011125D01*
X036517Y011125D01*
X039267Y008375D01*
X038767Y007875D02*
X038767Y006625D01*
X039267Y006125D01*
X041017Y006125D01*
X041267Y005875D01*
X041267Y004625D01*
X041767Y004125D01*
X042267Y004625D02*
X042767Y004125D01*
X042267Y004625D02*
X042267Y006125D01*
X041767Y006625D01*
X041767Y007625D01*
X042267Y008125D02*
X042267Y011625D01*
X043517Y012875D01*
X045267Y013375D02*
X045267Y008125D01*
X046267Y007625D02*
X046267Y006625D01*
X046017Y006375D01*
X045017Y006375D01*
X043767Y005125D01*
X042767Y005125D02*
X042767Y005625D01*
X043267Y006125D01*
X043267Y007625D01*
X043767Y008125D02*
X043767Y012125D01*
X046767Y013125D02*
X046767Y008125D01*
X048267Y008125D02*
X048267Y013875D01*
X049767Y013625D02*
X049767Y008125D01*
X049267Y007625D02*
X049267Y006625D01*
X049017Y006375D01*
X047767Y006375D01*
X047017Y005625D01*
X041767Y005875D02*
X041767Y005125D01*
X038767Y005125D02*
X038767Y006125D01*
X038517Y006375D01*
X031517Y006375D01*
X031267Y006625D01*
X031267Y007875D01*
X031767Y008375D02*
X031767Y009625D01*
X030267Y009625D02*
X030267Y008375D01*
X029767Y007875D02*
X029767Y006375D01*
X030017Y006125D01*
X038017Y006125D01*
X038267Y005875D01*
X038267Y004625D01*
X038767Y004125D01*
X037767Y004125D02*
X037017Y004875D01*
X037017Y005375D01*
X036767Y005625D01*
X027267Y005625D01*
X026767Y006125D01*
X026767Y007875D01*
X028267Y007875D02*
X028267Y006125D01*
X028517Y005875D01*
X037517Y005875D01*
X037767Y005625D01*
X037767Y005125D01*
X041267Y006375D02*
X041767Y005875D01*
X041267Y006375D02*
X040517Y006375D01*
X040267Y006625D01*
X040267Y007875D01*
X040517Y008375D02*
X039767Y009125D01*
X039017Y009125D01*
X036767Y011375D01*
X036017Y011375D01*
X035767Y011625D01*
X035767Y012125D01*
X036017Y012375D01*
X036017Y022125D01*
X034517Y022125D02*
X034517Y012875D01*
X034267Y012625D01*
X034017Y013125D02*
X033767Y012875D01*
X034017Y013125D02*
X034017Y020625D01*
X033517Y021125D01*
X033517Y024125D01*
X032017Y024125D02*
X032017Y013625D01*
X031767Y013375D01*
X031517Y013875D02*
X031267Y013625D01*
X031517Y013875D02*
X031517Y022125D01*
X033017Y022125D02*
X033017Y013375D01*
X032767Y013125D01*
X030017Y013875D02*
X030017Y023625D01*
X030517Y024125D01*
X029517Y023625D02*
X029517Y021375D01*
X026767Y021625D02*
X026767Y020625D01*
X025267Y020875D02*
X025267Y015375D01*
X024767Y014875D01*
X022517Y012625D01*
X022017Y012125D02*
X022017Y009875D01*
X023517Y009375D02*
X023517Y012125D01*
X024017Y012625D02*
X024017Y013125D01*
X025517Y014625D01*
X025767Y014875D01*
X025767Y022125D01*
X027267Y022125D02*
X027267Y014375D01*
X027017Y014125D01*
X027017Y012625D01*
X026267Y013625D02*
X025517Y012875D01*
X025517Y012625D01*
X026267Y013625D02*
X026267Y014375D01*
X026267Y024125D01*
X024767Y024125D02*
X024767Y021375D01*
X025267Y020875D01*
X023767Y020625D02*
X023767Y021625D01*
X024267Y022125D02*
X024267Y015375D01*
X024017Y015125D01*
X022517Y013625D01*
X022017Y013625D01*
X021017Y012625D01*
X020517Y012125D02*
X020517Y008375D01*
X019017Y008875D02*
X019017Y012125D01*
X019517Y012625D02*
X021017Y014125D01*
X022017Y014125D01*
X023267Y015375D01*
X023267Y024125D01*
X021767Y024125D02*
X021267Y023625D01*
X021267Y016125D01*
X020017Y016125D01*
X016517Y012625D01*
X016017Y012125D02*
X016017Y008875D01*
X017017Y007875D01*
X016267Y007125D02*
X015017Y008375D01*
X015017Y014125D01*
X014517Y014625D01*
X014017Y015125D02*
X014517Y015625D01*
X014017Y015125D02*
X014017Y014125D01*
X013517Y014125D02*
X013517Y007875D01*
X014017Y007375D01*
X015517Y007375D01*
X015767Y007125D01*
X015767Y005125D01*
X016267Y004625D02*
X016767Y004125D01*
X015767Y004125D02*
X015267Y004625D01*
X015267Y006875D01*
X015017Y007125D01*
X012517Y007125D01*
X012017Y007625D01*
X012017Y014125D01*
X011517Y014625D01*
X011017Y014125D02*
X011017Y015125D01*
X011517Y015625D01*
X010767Y016375D01*
X010767Y016625D01*
X011267Y017125D01*
X011267Y018125D01*
X010267Y018375D02*
X010267Y020375D01*
X010767Y020875D02*
X010767Y017625D01*
X009517Y017125D01*
X009517Y016375D01*
X009017Y015875D01*
X009017Y015375D01*
X009517Y014875D01*
X009517Y014125D01*
X009017Y014125D02*
X009017Y007125D01*
X009517Y006625D01*
X014017Y006625D01*
X014267Y006375D01*
X014267Y004625D01*
X014767Y004125D01*
X013767Y004125D02*
X013267Y004625D01*
X013267Y005875D01*
X013017Y006125D01*
X006517Y006125D01*
X006017Y006625D01*
X006017Y014125D01*
X005517Y014625D01*
X005017Y015125D02*
X005517Y015625D01*
X006017Y016125D01*
X006017Y016875D01*
X005767Y017125D01*
X005767Y020875D01*
X005267Y020375D02*
X005267Y017875D01*
X007767Y018125D02*
X007767Y020375D01*
X008267Y020875D02*
X008767Y020875D01*
X009267Y020375D01*
X009267Y018125D01*
X012267Y018625D02*
X012267Y017625D01*
X012517Y017375D01*
X012517Y016375D01*
X012017Y015875D01*
X012017Y015375D01*
X012517Y014875D01*
X012517Y014125D01*
X013017Y014625D02*
X013517Y014125D01*
X010517Y014125D02*
X010017Y014625D01*
X009017Y014125D02*
X008517Y014625D01*
X008017Y015125D02*
X008517Y015625D01*
X007767Y016375D01*
X007767Y017125D01*
X008267Y017625D01*
X008267Y019125D01*
X007017Y019625D02*
X006517Y019125D01*
X006517Y016375D01*
X006767Y016375D01*
X007267Y015875D01*
X007267Y015625D01*
X006517Y014875D01*
X006517Y014125D01*
X007017Y014625D02*
X007517Y014125D01*
X007517Y006875D01*
X008017Y006375D01*
X013517Y006375D01*
X013767Y006125D01*
X013767Y005125D01*
X014767Y005125D02*
X014767Y006625D01*
X014517Y006875D01*
X011017Y006875D01*
X010517Y007375D01*
X010517Y014125D01*
X008017Y014125D02*
X008017Y015125D01*
X005017Y015125D02*
X005017Y014125D01*
X004517Y014125D02*
X004017Y014625D01*
X003517Y014125D02*
X003017Y014625D01*
X003017Y015875D01*
X003517Y016375D01*
X003517Y018625D01*
X003267Y018875D01*
X003267Y021375D01*
X003017Y021875D01*
X003017Y022125D01*
X002267Y021875D02*
X002017Y021625D01*
X001267Y021625D01*
X002267Y021875D02*
X002267Y020875D01*
X002767Y020375D02*
X002767Y017625D01*
X003017Y017375D01*
X004517Y018875D02*
X004517Y019875D01*
X004017Y020375D01*
X004017Y020875D01*
X004767Y020875D02*
X004767Y021625D01*
X003767Y021625D01*
X004767Y021625D02*
X004767Y022625D01*
X002267Y022625D02*
X002267Y021875D01*
X006267Y021625D02*
X007267Y021625D01*
X007267Y020875D01*
X007767Y021375D02*
X008267Y020875D01*
X009767Y020875D02*
X009767Y021625D01*
X008767Y021625D01*
X009767Y021625D02*
X009767Y022625D01*
X012267Y022625D02*
X012267Y021625D01*
X011267Y021625D01*
X010767Y020875D02*
X010267Y021375D01*
X012267Y021625D02*
X012267Y020875D01*
X012767Y020375D02*
X012767Y018625D01*
X013267Y019125D02*
X013267Y020875D01*
X012767Y021375D01*
X013767Y021625D02*
X014767Y021625D01*
X014767Y020875D01*
X015267Y020375D02*
X015267Y018875D01*
X017767Y019125D02*
X017767Y020375D01*
X017267Y020875D02*
X017267Y021625D01*
X016267Y021625D01*
X017267Y021625D02*
X017267Y022625D01*
X014767Y022625D02*
X014767Y021625D01*
X018767Y021625D02*
X019767Y021625D01*
X019767Y020875D01*
X020267Y020375D02*
X020267Y019375D01*
X029017Y020875D02*
X029017Y016875D01*
X028517Y016625D02*
X028517Y024625D01*
X029017Y025125D01*
X029017Y026125D01*
X028017Y026125D01*
X026767Y025875D02*
X026767Y024625D01*
X027517Y025375D02*
X028017Y024875D01*
X028017Y024625D01*
X025267Y024625D02*
X025267Y026375D01*
X024767Y026875D01*
X024767Y029125D01*
X024517Y029375D01*
X017767Y029375D01*
X017267Y029875D01*
X017267Y030375D01*
X018267Y030375D02*
X019017Y029625D01*
X025767Y029625D01*
X026267Y029125D01*
X026267Y026125D01*
X026517Y025875D01*
X026767Y025875D01*
X027517Y025375D02*
X027517Y027375D01*
X029767Y029625D01*
X029767Y030375D01*
X030767Y030375D02*
X030767Y028875D01*
X029517Y027625D01*
X029517Y027125D01*
X029017Y026625D01*
X028517Y026625D01*
X023767Y025875D02*
X023767Y024625D01*
X022267Y024625D02*
X022267Y026375D01*
X021767Y026875D01*
X021767Y028625D01*
X021517Y028875D01*
X015767Y028875D01*
X015267Y029375D01*
X015267Y030375D01*
X016267Y030375D02*
X016267Y029625D01*
X016767Y029125D01*
X023017Y029125D01*
X023267Y028875D01*
X023267Y026375D01*
X023767Y025875D01*
X020267Y026375D02*
X020267Y025375D01*
X019767Y024875D02*
X020267Y024375D01*
X020267Y023125D01*
X017767Y023125D02*
X017767Y024375D01*
X017267Y024875D01*
X016267Y024625D02*
X016267Y025625D01*
X015267Y025375D02*
X015267Y026125D01*
X014767Y026625D01*
X013517Y026625D01*
X013017Y027125D01*
X013017Y028625D01*
X012267Y029375D01*
X012267Y030375D01*
X011767Y030875D02*
X011267Y031375D01*
X010767Y030875D02*
X010267Y031375D01*
X009267Y031375D02*
X008517Y030625D01*
X008517Y029375D01*
X008267Y029125D01*
X004517Y029125D01*
X002767Y027375D01*
X002767Y025375D01*
X002267Y024875D02*
X002767Y024375D01*
X002767Y023125D01*
X005267Y023125D02*
X005267Y024375D01*
X004767Y024875D01*
X005267Y025375D02*
X005267Y026375D01*
X005517Y026625D01*
X005517Y028375D01*
X006017Y028875D01*
X009267Y028875D01*
X010267Y029875D01*
X010267Y030375D01*
X010767Y030875D02*
X010767Y029625D01*
X009267Y028375D01*
X009267Y027125D01*
X007767Y025625D01*
X007767Y025375D01*
X007267Y024875D02*
X007767Y024375D01*
X007767Y023125D01*
X010267Y023125D02*
X010267Y024375D01*
X009767Y024875D01*
X010267Y025375D02*
X010267Y027375D01*
X011267Y028375D01*
X011267Y030375D01*
X011767Y030875D02*
X011767Y026875D01*
X012017Y026625D01*
X012517Y026625D01*
X012767Y026375D01*
X012767Y025375D01*
X012267Y024875D02*
X012767Y024375D01*
X012767Y023125D01*
X015267Y023125D02*
X015267Y024375D01*
X014767Y024875D01*
X013767Y024625D02*
X013767Y025625D01*
X011267Y025625D02*
X011267Y024625D01*
X008767Y024625D02*
X008767Y025625D01*
X006267Y025625D02*
X006267Y024625D01*
X003767Y024625D02*
X003767Y025625D01*
X001267Y025625D02*
X001267Y024625D01*
X007267Y022625D02*
X007267Y021625D01*
X019767Y021625D02*
X019767Y022625D01*
X022767Y022125D02*
X022767Y016125D01*
X022267Y015625D01*
X021517Y014875D01*
X020267Y014875D01*
X018017Y012625D01*
X017517Y012125D02*
X017517Y007125D01*
X016267Y007125D02*
X016267Y004625D01*
X012767Y005125D02*
X012767Y005375D01*
X012267Y005875D01*
X005017Y005875D01*
X004517Y006375D01*
X004517Y014125D01*
X005517Y012625D02*
X005017Y012125D01*
X005017Y011375D01*
X005267Y011125D01*
X006517Y011375D02*
X006767Y011125D01*
X006517Y011375D02*
X006517Y011875D01*
X008017Y012125D02*
X008017Y011375D01*
X008267Y011125D01*
X009517Y011375D02*
X009767Y011125D01*
X009517Y011375D02*
X009517Y011875D01*
X008517Y012625D02*
X008017Y012125D01*
X011017Y012125D02*
X011017Y011375D01*
X011267Y011125D01*
X012517Y011375D02*
X012767Y011125D01*
X012517Y011375D02*
X012517Y011875D01*
X011517Y012625D02*
X011017Y012125D01*
X014017Y012125D02*
X014017Y011375D01*
X014267Y011125D01*
X014017Y012125D02*
X014517Y012625D01*
X003767Y011125D02*
X003517Y011375D01*
X003517Y011875D01*
X033267Y010125D02*
X033267Y008375D01*
X034767Y008375D02*
X034767Y009875D01*
X034517Y010125D01*
X035267Y010875D02*
X037767Y008375D01*
X036267Y008375D02*
X036267Y009125D01*
X034017Y011375D01*
X040517Y008375D02*
X040767Y008375D01*
X053017Y008625D02*
X053017Y013375D01*
X071517Y016875D02*
X071517Y024625D01*
X072017Y025125D01*
X072017Y026125D01*
X071017Y026125D01*
X069767Y025875D02*
X069767Y024625D01*
X070267Y025375D02*
X071017Y024625D01*
X070267Y025375D02*
X070267Y027875D01*
X072767Y030375D01*
X073267Y024125D02*
X073017Y023875D01*
X073017Y014125D01*
X073017Y011375D01*
X070017Y008375D01*
X070017Y007125D01*
X070267Y006875D01*
X071517Y006875D01*
X072017Y007375D01*
X072017Y007625D01*
X073017Y007625D02*
X073017Y008125D01*
X076017Y011125D01*
X076017Y013375D01*
X076017Y022125D01*
X075517Y021625D02*
X075517Y020375D01*
X074017Y020125D02*
X073517Y019625D01*
X074017Y020125D02*
X074017Y021625D01*
X072517Y021375D02*
X072517Y023625D01*
X073267Y024125D02*
X073517Y024125D01*
X078517Y021625D02*
X078517Y020375D01*
X081517Y020375D02*
X081517Y021625D01*
X084517Y021625D02*
X084517Y020375D01*
X087767Y021125D02*
X088017Y021375D01*
X088767Y021375D01*
X087767Y021125D02*
X087767Y017125D01*
X088767Y017125D02*
X088767Y020375D01*
X090267Y021125D02*
X090517Y021375D01*
X091267Y021375D01*
X090267Y021125D02*
X090267Y017375D01*
X091267Y017375D02*
X091267Y020375D01*
X093767Y020375D02*
X093767Y017625D01*
X092767Y017625D02*
X092767Y021125D01*
X093017Y021375D01*
X093767Y021375D01*
X095267Y021125D02*
X095517Y021375D01*
X096267Y021375D01*
X095267Y021125D02*
X095267Y017875D01*
X096267Y017875D02*
X096267Y020375D01*
X097767Y021125D02*
X098017Y021375D01*
X098767Y021375D01*
X097767Y021125D02*
X097767Y018125D01*
X098767Y018125D02*
X098767Y020375D01*
X101267Y020375D02*
X101267Y018375D01*
X100267Y018375D02*
X100267Y021125D01*
X100517Y021375D01*
X101267Y021375D01*
X102767Y021125D02*
X103017Y021375D01*
X103767Y021375D01*
X102767Y021125D02*
X102767Y018625D01*
X115517Y021375D02*
X115517Y023625D01*
X117017Y024625D02*
X117017Y026375D01*
X116517Y026875D01*
X118267Y028625D01*
X118267Y030875D01*
X117767Y031375D01*
X118767Y031375D02*
X119267Y030875D01*
X119267Y027875D01*
X119017Y027625D01*
X119017Y026375D01*
X118517Y025875D01*
X118517Y024625D01*
X120017Y024625D02*
X120017Y026375D01*
X119517Y026875D01*
X120267Y027625D01*
X120267Y030875D01*
X119767Y031375D01*
X120767Y031375D02*
X121267Y030875D01*
X121267Y027875D01*
X120767Y027375D01*
X120767Y026625D01*
X121517Y025875D01*
X121517Y024625D01*
X123017Y024625D02*
X123017Y026375D01*
X122517Y026875D01*
X122517Y029125D01*
X122267Y029375D01*
X122267Y030875D01*
X121767Y031375D01*
X122767Y031375D02*
X123267Y030875D01*
X123267Y027125D01*
X124517Y025875D01*
X124517Y024625D01*
X126017Y024625D02*
X126017Y026375D01*
X125517Y026875D01*
X125517Y028375D01*
X124267Y029625D01*
X124267Y030875D01*
X123767Y031375D01*
X124767Y031375D02*
X125517Y030625D01*
X125517Y029125D01*
X126767Y027875D01*
X126767Y026625D01*
X127517Y025875D01*
X127517Y024625D01*
X130267Y024625D02*
X130267Y025625D01*
X132767Y025625D02*
X132767Y024625D01*
X135267Y024625D02*
X135267Y025625D01*
X137767Y025625D02*
X137767Y024625D01*
X140267Y024625D02*
X140267Y025625D01*
X144267Y030125D02*
X145267Y029125D01*
X144267Y030125D02*
X144267Y030375D01*
X159517Y026875D02*
X160267Y027625D01*
X160267Y030875D01*
X160767Y031375D01*
X161267Y030875D02*
X161767Y031375D01*
X162267Y030875D02*
X162767Y031375D01*
X163267Y030875D02*
X163767Y031375D01*
X164267Y030875D02*
X164767Y031375D01*
X165267Y030875D02*
X165767Y031375D01*
X166267Y030875D02*
X166767Y031375D01*
X167767Y031375D02*
X167767Y031125D01*
X168267Y030625D01*
X168267Y028375D01*
X169517Y027125D01*
X169517Y026875D01*
X170517Y025875D01*
X170517Y024625D01*
X169017Y024625D02*
X169017Y026375D01*
X168517Y026875D01*
X166267Y029125D01*
X166267Y030875D01*
X165267Y030875D02*
X165267Y029125D01*
X166517Y027875D01*
X166517Y026875D01*
X167517Y025875D01*
X167517Y024625D01*
X166017Y024625D02*
X166017Y026375D01*
X165517Y026875D01*
X164267Y028125D01*
X164267Y030875D01*
X163267Y030875D02*
X163267Y027125D01*
X164517Y025875D01*
X164517Y024625D01*
X163017Y024625D02*
X163017Y026375D01*
X162517Y026875D01*
X162267Y027125D01*
X162267Y030875D01*
X161267Y030875D02*
X161267Y029375D01*
X161017Y029125D01*
X161017Y026375D01*
X161517Y025875D01*
X161517Y024625D01*
X160017Y024625D02*
X160017Y026375D01*
X159517Y026875D01*
X159517Y024125D02*
X159017Y023625D01*
X159017Y014625D01*
X156017Y011625D01*
X156017Y008375D01*
X155517Y007875D01*
X158767Y007875D02*
X159267Y008375D01*
X159267Y011375D01*
X162017Y013875D01*
X162017Y022125D01*
X163517Y022125D02*
X163517Y013375D01*
X160767Y010625D01*
X160767Y009375D01*
X160017Y008875D01*
X163017Y008875D02*
X163767Y009625D01*
X163767Y009875D01*
X163767Y010375D01*
X165517Y012125D01*
X166017Y012625D01*
X166017Y020625D01*
X165517Y021125D01*
X165517Y024125D01*
X167017Y024125D02*
X167017Y012125D01*
X166017Y011125D01*
X166017Y009875D01*
X167267Y009625D02*
X167267Y011125D01*
X168017Y011875D01*
X168017Y022125D01*
X169517Y022125D02*
X169517Y011375D01*
X169517Y008375D01*
X169017Y007875D01*
X168517Y008625D02*
X168017Y007875D01*
X165517Y008125D02*
X165517Y011375D01*
X166517Y012375D01*
X166517Y022125D01*
X165017Y022125D02*
X165017Y012875D01*
X163017Y010875D01*
X163017Y009875D01*
X160017Y009875D02*
X160017Y010875D01*
X162517Y013125D01*
X163017Y013625D01*
X163017Y020625D01*
X162517Y021125D01*
X162517Y024125D01*
X164017Y024125D02*
X164017Y013125D01*
X162517Y011625D01*
X162517Y008375D01*
X162017Y007875D01*
X165017Y007875D02*
X165517Y008125D01*
X168517Y008625D02*
X168517Y011125D01*
X169017Y011625D01*
X169017Y020625D01*
X168517Y021125D01*
X168517Y024125D01*
X170017Y024125D02*
X170017Y011125D01*
X170017Y009875D01*
X171017Y008875D01*
X171017Y009875D02*
X171017Y010875D01*
X171017Y022125D01*
X170517Y021625D02*
X170517Y020375D01*
X167517Y020375D02*
X167517Y021625D01*
X164517Y021625D02*
X164517Y020375D01*
X161517Y020375D02*
X161517Y021625D01*
X160017Y021625D02*
X160017Y020125D01*
X159517Y019625D01*
X155767Y020375D02*
X155767Y021625D01*
X152767Y021625D02*
X152767Y020375D01*
X151267Y020125D02*
X150767Y019625D01*
X151267Y020125D02*
X151267Y021625D01*
X158017Y020875D02*
X158017Y015125D01*
X160517Y014375D02*
X156767Y011125D01*
X156767Y009875D01*
X156767Y008875D02*
X157767Y009375D01*
X157767Y011125D01*
X161017Y014125D01*
X161017Y024125D01*
X158517Y023625D02*
X158517Y021375D01*
X160517Y022125D02*
X160517Y014375D01*
X154267Y009625D02*
X153517Y008875D01*
X149767Y008375D02*
X149267Y007875D01*
X149267Y008875D02*
X148267Y009375D01*
X167267Y009625D02*
X168017Y008875D01*
X115017Y027125D02*
X114517Y026625D01*
X115017Y027125D02*
X115517Y027125D01*
X116767Y028375D01*
X116767Y030375D01*
X063267Y021375D02*
X062517Y021375D01*
X062267Y021125D01*
X045767Y020375D02*
X045767Y017125D01*
X018767Y024625D02*
X018767Y025625D01*
X020017Y026625D02*
X020267Y026375D01*
X020017Y026625D02*
X018767Y026625D01*
X018267Y027125D01*
X018267Y028125D01*
X017767Y028625D01*
X013767Y028625D01*
X013267Y029125D01*
X013267Y030375D01*
X071017Y008375D02*
X071017Y007625D01*
D16*
X069767Y009375D03*
X080517Y011875D03*
X081017Y011625D03*
X082017Y011375D03*
X083017Y011125D03*
X083517Y010875D03*
X084017Y010625D03*
X085017Y010125D03*
X080017Y012125D03*
X079017Y012375D03*
X078017Y012625D03*
X077517Y012875D03*
X077017Y013125D03*
X076017Y013375D03*
X075017Y013625D03*
X074517Y013875D03*
X073017Y014125D03*
X070017Y014375D03*
X069267Y014625D03*
X068767Y014875D03*
X068267Y015125D03*
X067267Y015375D03*
X066267Y015625D03*
X065767Y015875D03*
X065267Y016125D03*
X071517Y016875D03*
X062267Y019125D03*
X063267Y019375D03*
X060767Y018625D03*
X059767Y018625D03*
X058267Y018375D03*
X057267Y018375D03*
X055767Y018125D03*
X054767Y018125D03*
X053267Y017875D03*
X052267Y017875D03*
X050767Y017625D03*
X049767Y017625D03*
X048267Y017375D03*
X047267Y017375D03*
X045767Y017125D03*
X044767Y017125D03*
X043517Y016875D03*
X055267Y016375D03*
X048267Y013875D03*
X049767Y013625D03*
X046767Y013125D03*
X045267Y013375D03*
X043517Y012875D03*
X043767Y012125D03*
X038267Y011125D03*
X038767Y010875D03*
X039267Y010625D03*
X039767Y010375D03*
X040267Y010125D03*
X035267Y010875D03*
X034517Y010125D03*
X033267Y010125D03*
X031767Y009625D03*
X030267Y009625D03*
X023517Y009375D03*
X022017Y009875D03*
X019017Y008875D03*
X020517Y008375D03*
X017017Y007875D03*
X017517Y007125D03*
X034017Y011375D03*
X036767Y011875D03*
X037267Y011625D03*
X037767Y011375D03*
X035767Y012125D03*
X034767Y012375D03*
X034267Y012625D03*
X033767Y012875D03*
X032767Y013125D03*
X031767Y013375D03*
X031267Y013625D03*
X030017Y013875D03*
X027017Y014125D03*
X026267Y014375D03*
X025517Y014625D03*
X024767Y014875D03*
X024017Y015125D03*
X023267Y015375D03*
X022267Y015625D03*
X021267Y016125D03*
X028517Y016625D03*
X029017Y016875D03*
X017767Y019125D03*
X020267Y019375D03*
X015267Y018875D03*
X013267Y019125D03*
X012767Y018625D03*
X012267Y018625D03*
X011267Y018125D03*
X010267Y018375D03*
X009267Y018125D03*
X007767Y018125D03*
X005267Y017875D03*
X003017Y017375D03*
X004517Y018875D03*
X007017Y019625D03*
X008267Y019125D03*
X005767Y020875D03*
X004017Y020875D03*
X003017Y022125D03*
X053017Y008625D03*
X087767Y017125D03*
X088767Y017125D03*
X090267Y017375D03*
X091267Y017375D03*
X092767Y017625D03*
X093767Y017625D03*
X095267Y017875D03*
X096267Y017875D03*
X097767Y018125D03*
X098767Y018125D03*
X100267Y018375D03*
X101267Y018375D03*
X102767Y018625D03*
X103767Y018625D03*
X105267Y019125D03*
X106267Y019125D03*
X114517Y016875D03*
X109517Y015625D03*
X109017Y015875D03*
X108267Y016125D03*
X110267Y015375D03*
X111267Y015125D03*
X111767Y014875D03*
X112267Y014625D03*
X113267Y014375D03*
X116017Y014125D03*
X117517Y013875D03*
X118017Y013625D03*
X119017Y013375D03*
X120017Y013125D03*
X120517Y012875D03*
X121017Y012625D03*
X122017Y012375D03*
X123017Y012125D03*
X123517Y011875D03*
X124017Y011625D03*
X125017Y011375D03*
X126017Y011125D03*
X126517Y010875D03*
X127017Y010625D03*
X128017Y010125D03*
X153267Y015875D03*
X154267Y015625D03*
X154767Y015375D03*
X155267Y015125D03*
X156267Y014875D03*
X159017Y014625D03*
X160517Y014375D03*
X161017Y014125D03*
X162017Y013875D03*
X163017Y013625D03*
X163517Y013375D03*
X164017Y013125D03*
X165017Y012875D03*
X166017Y012625D03*
X166517Y012375D03*
X167017Y012125D03*
X168017Y011875D03*
X169017Y011625D03*
X169517Y011375D03*
X170017Y011125D03*
X171017Y010875D03*
X152267Y016125D03*
X151767Y016375D03*
X150267Y016625D03*
X157517Y017375D03*
X149767Y018875D03*
X147267Y018625D03*
X144767Y018375D03*
X142267Y018125D03*
X139767Y017875D03*
X137267Y017625D03*
X134767Y017375D03*
X132267Y017125D03*
M02*
