G75*
G70*
%OFA0B0*%
%FSLAX24Y24*%
%IPPOS*%
%LPD*%
%AMOC8*
5,1,8,0,0,1.08239X$1,22.5*
%
%ADD10C,0.0000*%
D10*
X000267Y002625D02*
X000267Y032995D01*
X175259Y032995D01*
X175259Y002625D01*
X000267Y002625D01*
X001137Y004125D02*
X001139Y004175D01*
X001145Y004225D01*
X001155Y004274D01*
X001169Y004322D01*
X001186Y004369D01*
X001207Y004414D01*
X001232Y004458D01*
X001260Y004499D01*
X001292Y004538D01*
X001326Y004575D01*
X001363Y004609D01*
X001403Y004639D01*
X001445Y004666D01*
X001489Y004690D01*
X001535Y004711D01*
X001582Y004727D01*
X001630Y004740D01*
X001680Y004749D01*
X001729Y004754D01*
X001780Y004755D01*
X001830Y004752D01*
X001879Y004745D01*
X001928Y004734D01*
X001976Y004719D01*
X002022Y004701D01*
X002067Y004679D01*
X002110Y004653D01*
X002151Y004624D01*
X002190Y004592D01*
X002226Y004557D01*
X002258Y004519D01*
X002288Y004479D01*
X002315Y004436D01*
X002338Y004392D01*
X002357Y004346D01*
X002373Y004298D01*
X002385Y004249D01*
X002393Y004200D01*
X002397Y004150D01*
X002397Y004100D01*
X002393Y004050D01*
X002385Y004001D01*
X002373Y003952D01*
X002357Y003904D01*
X002338Y003858D01*
X002315Y003814D01*
X002288Y003771D01*
X002258Y003731D01*
X002226Y003693D01*
X002190Y003658D01*
X002151Y003626D01*
X002110Y003597D01*
X002067Y003571D01*
X002022Y003549D01*
X001976Y003531D01*
X001928Y003516D01*
X001879Y003505D01*
X001830Y003498D01*
X001780Y003495D01*
X001729Y003496D01*
X001680Y003501D01*
X001630Y003510D01*
X001582Y003523D01*
X001535Y003539D01*
X001489Y003560D01*
X001445Y003584D01*
X001403Y003611D01*
X001363Y003641D01*
X001326Y003675D01*
X001292Y003712D01*
X001260Y003751D01*
X001232Y003792D01*
X001207Y003836D01*
X001186Y003881D01*
X001169Y003928D01*
X001155Y003976D01*
X001145Y004025D01*
X001139Y004075D01*
X001137Y004125D01*
X004897Y004415D02*
X004899Y004463D01*
X004905Y004510D01*
X004915Y004557D01*
X004928Y004603D01*
X004946Y004648D01*
X004967Y004691D01*
X004991Y004732D01*
X005019Y004771D01*
X005050Y004808D01*
X005084Y004842D01*
X005121Y004873D01*
X005160Y004901D01*
X005201Y004925D01*
X005244Y004946D01*
X005289Y004964D01*
X005335Y004977D01*
X005382Y004987D01*
X005429Y004993D01*
X005477Y004995D01*
X005525Y004993D01*
X005572Y004987D01*
X005619Y004977D01*
X005665Y004964D01*
X005710Y004946D01*
X005753Y004925D01*
X005794Y004901D01*
X005833Y004873D01*
X005870Y004842D01*
X005904Y004808D01*
X005935Y004771D01*
X005963Y004732D01*
X005987Y004691D01*
X006008Y004648D01*
X006026Y004603D01*
X006039Y004557D01*
X006049Y004510D01*
X006055Y004463D01*
X006057Y004415D01*
X006055Y004367D01*
X006049Y004320D01*
X006039Y004273D01*
X006026Y004227D01*
X006008Y004182D01*
X005987Y004139D01*
X005963Y004098D01*
X005935Y004059D01*
X005904Y004022D01*
X005870Y003988D01*
X005833Y003957D01*
X005794Y003929D01*
X005753Y003905D01*
X005710Y003884D01*
X005665Y003866D01*
X005619Y003853D01*
X005572Y003843D01*
X005525Y003837D01*
X005477Y003835D01*
X005429Y003837D01*
X005382Y003843D01*
X005335Y003853D01*
X005289Y003866D01*
X005244Y003884D01*
X005201Y003905D01*
X005160Y003929D01*
X005121Y003957D01*
X005084Y003988D01*
X005050Y004022D01*
X005019Y004059D01*
X004991Y004098D01*
X004967Y004139D01*
X004946Y004182D01*
X004928Y004227D01*
X004915Y004273D01*
X004905Y004320D01*
X004899Y004367D01*
X004897Y004415D01*
X018477Y004415D02*
X018479Y004463D01*
X018485Y004510D01*
X018495Y004557D01*
X018508Y004603D01*
X018526Y004648D01*
X018547Y004691D01*
X018571Y004732D01*
X018599Y004771D01*
X018630Y004808D01*
X018664Y004842D01*
X018701Y004873D01*
X018740Y004901D01*
X018781Y004925D01*
X018824Y004946D01*
X018869Y004964D01*
X018915Y004977D01*
X018962Y004987D01*
X019009Y004993D01*
X019057Y004995D01*
X019105Y004993D01*
X019152Y004987D01*
X019199Y004977D01*
X019245Y004964D01*
X019290Y004946D01*
X019333Y004925D01*
X019374Y004901D01*
X019413Y004873D01*
X019450Y004842D01*
X019484Y004808D01*
X019515Y004771D01*
X019543Y004732D01*
X019567Y004691D01*
X019588Y004648D01*
X019606Y004603D01*
X019619Y004557D01*
X019629Y004510D01*
X019635Y004463D01*
X019637Y004415D01*
X019635Y004367D01*
X019629Y004320D01*
X019619Y004273D01*
X019606Y004227D01*
X019588Y004182D01*
X019567Y004139D01*
X019543Y004098D01*
X019515Y004059D01*
X019484Y004022D01*
X019450Y003988D01*
X019413Y003957D01*
X019374Y003929D01*
X019333Y003905D01*
X019290Y003884D01*
X019245Y003866D01*
X019199Y003853D01*
X019152Y003843D01*
X019105Y003837D01*
X019057Y003835D01*
X019009Y003837D01*
X018962Y003843D01*
X018915Y003853D01*
X018869Y003866D01*
X018824Y003884D01*
X018781Y003905D01*
X018740Y003929D01*
X018701Y003957D01*
X018664Y003988D01*
X018630Y004022D01*
X018599Y004059D01*
X018571Y004098D01*
X018547Y004139D01*
X018526Y004182D01*
X018508Y004227D01*
X018495Y004273D01*
X018485Y004320D01*
X018479Y004367D01*
X018477Y004415D01*
X034897Y004415D02*
X034899Y004463D01*
X034905Y004510D01*
X034915Y004557D01*
X034928Y004603D01*
X034946Y004648D01*
X034967Y004691D01*
X034991Y004732D01*
X035019Y004771D01*
X035050Y004808D01*
X035084Y004842D01*
X035121Y004873D01*
X035160Y004901D01*
X035201Y004925D01*
X035244Y004946D01*
X035289Y004964D01*
X035335Y004977D01*
X035382Y004987D01*
X035429Y004993D01*
X035477Y004995D01*
X035525Y004993D01*
X035572Y004987D01*
X035619Y004977D01*
X035665Y004964D01*
X035710Y004946D01*
X035753Y004925D01*
X035794Y004901D01*
X035833Y004873D01*
X035870Y004842D01*
X035904Y004808D01*
X035935Y004771D01*
X035963Y004732D01*
X035987Y004691D01*
X036008Y004648D01*
X036026Y004603D01*
X036039Y004557D01*
X036049Y004510D01*
X036055Y004463D01*
X036057Y004415D01*
X036055Y004367D01*
X036049Y004320D01*
X036039Y004273D01*
X036026Y004227D01*
X036008Y004182D01*
X035987Y004139D01*
X035963Y004098D01*
X035935Y004059D01*
X035904Y004022D01*
X035870Y003988D01*
X035833Y003957D01*
X035794Y003929D01*
X035753Y003905D01*
X035710Y003884D01*
X035665Y003866D01*
X035619Y003853D01*
X035572Y003843D01*
X035525Y003837D01*
X035477Y003835D01*
X035429Y003837D01*
X035382Y003843D01*
X035335Y003853D01*
X035289Y003866D01*
X035244Y003884D01*
X035201Y003905D01*
X035160Y003929D01*
X035121Y003957D01*
X035084Y003988D01*
X035050Y004022D01*
X035019Y004059D01*
X034991Y004098D01*
X034967Y004139D01*
X034946Y004182D01*
X034928Y004227D01*
X034915Y004273D01*
X034905Y004320D01*
X034899Y004367D01*
X034897Y004415D01*
X048477Y004415D02*
X048479Y004463D01*
X048485Y004510D01*
X048495Y004557D01*
X048508Y004603D01*
X048526Y004648D01*
X048547Y004691D01*
X048571Y004732D01*
X048599Y004771D01*
X048630Y004808D01*
X048664Y004842D01*
X048701Y004873D01*
X048740Y004901D01*
X048781Y004925D01*
X048824Y004946D01*
X048869Y004964D01*
X048915Y004977D01*
X048962Y004987D01*
X049009Y004993D01*
X049057Y004995D01*
X049105Y004993D01*
X049152Y004987D01*
X049199Y004977D01*
X049245Y004964D01*
X049290Y004946D01*
X049333Y004925D01*
X049374Y004901D01*
X049413Y004873D01*
X049450Y004842D01*
X049484Y004808D01*
X049515Y004771D01*
X049543Y004732D01*
X049567Y004691D01*
X049588Y004648D01*
X049606Y004603D01*
X049619Y004557D01*
X049629Y004510D01*
X049635Y004463D01*
X049637Y004415D01*
X049635Y004367D01*
X049629Y004320D01*
X049619Y004273D01*
X049606Y004227D01*
X049588Y004182D01*
X049567Y004139D01*
X049543Y004098D01*
X049515Y004059D01*
X049484Y004022D01*
X049450Y003988D01*
X049413Y003957D01*
X049374Y003929D01*
X049333Y003905D01*
X049290Y003884D01*
X049245Y003866D01*
X049199Y003853D01*
X049152Y003843D01*
X049105Y003837D01*
X049057Y003835D01*
X049009Y003837D01*
X048962Y003843D01*
X048915Y003853D01*
X048869Y003866D01*
X048824Y003884D01*
X048781Y003905D01*
X048740Y003929D01*
X048701Y003957D01*
X048664Y003988D01*
X048630Y004022D01*
X048599Y004059D01*
X048571Y004098D01*
X048547Y004139D01*
X048526Y004182D01*
X048508Y004227D01*
X048495Y004273D01*
X048485Y004320D01*
X048479Y004367D01*
X048477Y004415D01*
X060137Y004125D02*
X060139Y004175D01*
X060145Y004225D01*
X060155Y004274D01*
X060169Y004322D01*
X060186Y004369D01*
X060207Y004414D01*
X060232Y004458D01*
X060260Y004499D01*
X060292Y004538D01*
X060326Y004575D01*
X060363Y004609D01*
X060403Y004639D01*
X060445Y004666D01*
X060489Y004690D01*
X060535Y004711D01*
X060582Y004727D01*
X060630Y004740D01*
X060680Y004749D01*
X060729Y004754D01*
X060780Y004755D01*
X060830Y004752D01*
X060879Y004745D01*
X060928Y004734D01*
X060976Y004719D01*
X061022Y004701D01*
X061067Y004679D01*
X061110Y004653D01*
X061151Y004624D01*
X061190Y004592D01*
X061226Y004557D01*
X061258Y004519D01*
X061288Y004479D01*
X061315Y004436D01*
X061338Y004392D01*
X061357Y004346D01*
X061373Y004298D01*
X061385Y004249D01*
X061393Y004200D01*
X061397Y004150D01*
X061397Y004100D01*
X061393Y004050D01*
X061385Y004001D01*
X061373Y003952D01*
X061357Y003904D01*
X061338Y003858D01*
X061315Y003814D01*
X061288Y003771D01*
X061258Y003731D01*
X061226Y003693D01*
X061190Y003658D01*
X061151Y003626D01*
X061110Y003597D01*
X061067Y003571D01*
X061022Y003549D01*
X060976Y003531D01*
X060928Y003516D01*
X060879Y003505D01*
X060830Y003498D01*
X060780Y003495D01*
X060729Y003496D01*
X060680Y003501D01*
X060630Y003510D01*
X060582Y003523D01*
X060535Y003539D01*
X060489Y003560D01*
X060445Y003584D01*
X060403Y003611D01*
X060363Y003641D01*
X060326Y003675D01*
X060292Y003712D01*
X060260Y003751D01*
X060232Y003792D01*
X060207Y003836D01*
X060186Y003881D01*
X060169Y003928D01*
X060155Y003976D01*
X060145Y004025D01*
X060139Y004075D01*
X060137Y004125D01*
X087887Y004125D02*
X087889Y004175D01*
X087895Y004225D01*
X087905Y004274D01*
X087919Y004322D01*
X087936Y004369D01*
X087957Y004414D01*
X087982Y004458D01*
X088010Y004499D01*
X088042Y004538D01*
X088076Y004575D01*
X088113Y004609D01*
X088153Y004639D01*
X088195Y004666D01*
X088239Y004690D01*
X088285Y004711D01*
X088332Y004727D01*
X088380Y004740D01*
X088430Y004749D01*
X088479Y004754D01*
X088530Y004755D01*
X088580Y004752D01*
X088629Y004745D01*
X088678Y004734D01*
X088726Y004719D01*
X088772Y004701D01*
X088817Y004679D01*
X088860Y004653D01*
X088901Y004624D01*
X088940Y004592D01*
X088976Y004557D01*
X089008Y004519D01*
X089038Y004479D01*
X089065Y004436D01*
X089088Y004392D01*
X089107Y004346D01*
X089123Y004298D01*
X089135Y004249D01*
X089143Y004200D01*
X089147Y004150D01*
X089147Y004100D01*
X089143Y004050D01*
X089135Y004001D01*
X089123Y003952D01*
X089107Y003904D01*
X089088Y003858D01*
X089065Y003814D01*
X089038Y003771D01*
X089008Y003731D01*
X088976Y003693D01*
X088940Y003658D01*
X088901Y003626D01*
X088860Y003597D01*
X088817Y003571D01*
X088772Y003549D01*
X088726Y003531D01*
X088678Y003516D01*
X088629Y003505D01*
X088580Y003498D01*
X088530Y003495D01*
X088479Y003496D01*
X088430Y003501D01*
X088380Y003510D01*
X088332Y003523D01*
X088285Y003539D01*
X088239Y003560D01*
X088195Y003584D01*
X088153Y003611D01*
X088113Y003641D01*
X088076Y003675D01*
X088042Y003712D01*
X088010Y003751D01*
X087982Y003792D01*
X087957Y003836D01*
X087936Y003881D01*
X087919Y003928D01*
X087905Y003976D01*
X087895Y004025D01*
X087889Y004075D01*
X087887Y004125D01*
X131137Y004125D02*
X131139Y004175D01*
X131145Y004225D01*
X131155Y004274D01*
X131169Y004322D01*
X131186Y004369D01*
X131207Y004414D01*
X131232Y004458D01*
X131260Y004499D01*
X131292Y004538D01*
X131326Y004575D01*
X131363Y004609D01*
X131403Y004639D01*
X131445Y004666D01*
X131489Y004690D01*
X131535Y004711D01*
X131582Y004727D01*
X131630Y004740D01*
X131680Y004749D01*
X131729Y004754D01*
X131780Y004755D01*
X131830Y004752D01*
X131879Y004745D01*
X131928Y004734D01*
X131976Y004719D01*
X132022Y004701D01*
X132067Y004679D01*
X132110Y004653D01*
X132151Y004624D01*
X132190Y004592D01*
X132226Y004557D01*
X132258Y004519D01*
X132288Y004479D01*
X132315Y004436D01*
X132338Y004392D01*
X132357Y004346D01*
X132373Y004298D01*
X132385Y004249D01*
X132393Y004200D01*
X132397Y004150D01*
X132397Y004100D01*
X132393Y004050D01*
X132385Y004001D01*
X132373Y003952D01*
X132357Y003904D01*
X132338Y003858D01*
X132315Y003814D01*
X132288Y003771D01*
X132258Y003731D01*
X132226Y003693D01*
X132190Y003658D01*
X132151Y003626D01*
X132110Y003597D01*
X132067Y003571D01*
X132022Y003549D01*
X131976Y003531D01*
X131928Y003516D01*
X131879Y003505D01*
X131830Y003498D01*
X131780Y003495D01*
X131729Y003496D01*
X131680Y003501D01*
X131630Y003510D01*
X131582Y003523D01*
X131535Y003539D01*
X131489Y003560D01*
X131445Y003584D01*
X131403Y003611D01*
X131363Y003641D01*
X131326Y003675D01*
X131292Y003712D01*
X131260Y003751D01*
X131232Y003792D01*
X131207Y003836D01*
X131186Y003881D01*
X131169Y003928D01*
X131155Y003976D01*
X131145Y004025D01*
X131139Y004075D01*
X131137Y004125D01*
X173137Y004125D02*
X173139Y004175D01*
X173145Y004225D01*
X173155Y004274D01*
X173169Y004322D01*
X173186Y004369D01*
X173207Y004414D01*
X173232Y004458D01*
X173260Y004499D01*
X173292Y004538D01*
X173326Y004575D01*
X173363Y004609D01*
X173403Y004639D01*
X173445Y004666D01*
X173489Y004690D01*
X173535Y004711D01*
X173582Y004727D01*
X173630Y004740D01*
X173680Y004749D01*
X173729Y004754D01*
X173780Y004755D01*
X173830Y004752D01*
X173879Y004745D01*
X173928Y004734D01*
X173976Y004719D01*
X174022Y004701D01*
X174067Y004679D01*
X174110Y004653D01*
X174151Y004624D01*
X174190Y004592D01*
X174226Y004557D01*
X174258Y004519D01*
X174288Y004479D01*
X174315Y004436D01*
X174338Y004392D01*
X174357Y004346D01*
X174373Y004298D01*
X174385Y004249D01*
X174393Y004200D01*
X174397Y004150D01*
X174397Y004100D01*
X174393Y004050D01*
X174385Y004001D01*
X174373Y003952D01*
X174357Y003904D01*
X174338Y003858D01*
X174315Y003814D01*
X174288Y003771D01*
X174258Y003731D01*
X174226Y003693D01*
X174190Y003658D01*
X174151Y003626D01*
X174110Y003597D01*
X174067Y003571D01*
X174022Y003549D01*
X173976Y003531D01*
X173928Y003516D01*
X173879Y003505D01*
X173830Y003498D01*
X173780Y003495D01*
X173729Y003496D01*
X173680Y003501D01*
X173630Y003510D01*
X173582Y003523D01*
X173535Y003539D01*
X173489Y003560D01*
X173445Y003584D01*
X173403Y003611D01*
X173363Y003641D01*
X173326Y003675D01*
X173292Y003712D01*
X173260Y003751D01*
X173232Y003792D01*
X173207Y003836D01*
X173186Y003881D01*
X173169Y003928D01*
X173155Y003976D01*
X173145Y004025D01*
X173139Y004075D01*
X173137Y004125D01*
X169477Y031085D02*
X169479Y031133D01*
X169485Y031180D01*
X169495Y031227D01*
X169508Y031273D01*
X169526Y031318D01*
X169547Y031361D01*
X169571Y031402D01*
X169599Y031441D01*
X169630Y031478D01*
X169664Y031512D01*
X169701Y031543D01*
X169740Y031571D01*
X169781Y031595D01*
X169824Y031616D01*
X169869Y031634D01*
X169915Y031647D01*
X169962Y031657D01*
X170009Y031663D01*
X170057Y031665D01*
X170105Y031663D01*
X170152Y031657D01*
X170199Y031647D01*
X170245Y031634D01*
X170290Y031616D01*
X170333Y031595D01*
X170374Y031571D01*
X170413Y031543D01*
X170450Y031512D01*
X170484Y031478D01*
X170515Y031441D01*
X170543Y031402D01*
X170567Y031361D01*
X170588Y031318D01*
X170606Y031273D01*
X170619Y031227D01*
X170629Y031180D01*
X170635Y031133D01*
X170637Y031085D01*
X170635Y031037D01*
X170629Y030990D01*
X170619Y030943D01*
X170606Y030897D01*
X170588Y030852D01*
X170567Y030809D01*
X170543Y030768D01*
X170515Y030729D01*
X170484Y030692D01*
X170450Y030658D01*
X170413Y030627D01*
X170374Y030599D01*
X170333Y030575D01*
X170290Y030554D01*
X170245Y030536D01*
X170199Y030523D01*
X170152Y030513D01*
X170105Y030507D01*
X170057Y030505D01*
X170009Y030507D01*
X169962Y030513D01*
X169915Y030523D01*
X169869Y030536D01*
X169824Y030554D01*
X169781Y030575D01*
X169740Y030599D01*
X169701Y030627D01*
X169664Y030658D01*
X169630Y030692D01*
X169599Y030729D01*
X169571Y030768D01*
X169547Y030809D01*
X169526Y030852D01*
X169508Y030897D01*
X169495Y030943D01*
X169485Y030990D01*
X169479Y031037D01*
X169477Y031085D01*
X173137Y031625D02*
X173139Y031675D01*
X173145Y031725D01*
X173155Y031774D01*
X173169Y031822D01*
X173186Y031869D01*
X173207Y031914D01*
X173232Y031958D01*
X173260Y031999D01*
X173292Y032038D01*
X173326Y032075D01*
X173363Y032109D01*
X173403Y032139D01*
X173445Y032166D01*
X173489Y032190D01*
X173535Y032211D01*
X173582Y032227D01*
X173630Y032240D01*
X173680Y032249D01*
X173729Y032254D01*
X173780Y032255D01*
X173830Y032252D01*
X173879Y032245D01*
X173928Y032234D01*
X173976Y032219D01*
X174022Y032201D01*
X174067Y032179D01*
X174110Y032153D01*
X174151Y032124D01*
X174190Y032092D01*
X174226Y032057D01*
X174258Y032019D01*
X174288Y031979D01*
X174315Y031936D01*
X174338Y031892D01*
X174357Y031846D01*
X174373Y031798D01*
X174385Y031749D01*
X174393Y031700D01*
X174397Y031650D01*
X174397Y031600D01*
X174393Y031550D01*
X174385Y031501D01*
X174373Y031452D01*
X174357Y031404D01*
X174338Y031358D01*
X174315Y031314D01*
X174288Y031271D01*
X174258Y031231D01*
X174226Y031193D01*
X174190Y031158D01*
X174151Y031126D01*
X174110Y031097D01*
X174067Y031071D01*
X174022Y031049D01*
X173976Y031031D01*
X173928Y031016D01*
X173879Y031005D01*
X173830Y030998D01*
X173780Y030995D01*
X173729Y030996D01*
X173680Y031001D01*
X173630Y031010D01*
X173582Y031023D01*
X173535Y031039D01*
X173489Y031060D01*
X173445Y031084D01*
X173403Y031111D01*
X173363Y031141D01*
X173326Y031175D01*
X173292Y031212D01*
X173260Y031251D01*
X173232Y031292D01*
X173207Y031336D01*
X173186Y031381D01*
X173169Y031428D01*
X173155Y031476D01*
X173145Y031525D01*
X173139Y031575D01*
X173137Y031625D01*
X155897Y031085D02*
X155899Y031133D01*
X155905Y031180D01*
X155915Y031227D01*
X155928Y031273D01*
X155946Y031318D01*
X155967Y031361D01*
X155991Y031402D01*
X156019Y031441D01*
X156050Y031478D01*
X156084Y031512D01*
X156121Y031543D01*
X156160Y031571D01*
X156201Y031595D01*
X156244Y031616D01*
X156289Y031634D01*
X156335Y031647D01*
X156382Y031657D01*
X156429Y031663D01*
X156477Y031665D01*
X156525Y031663D01*
X156572Y031657D01*
X156619Y031647D01*
X156665Y031634D01*
X156710Y031616D01*
X156753Y031595D01*
X156794Y031571D01*
X156833Y031543D01*
X156870Y031512D01*
X156904Y031478D01*
X156935Y031441D01*
X156963Y031402D01*
X156987Y031361D01*
X157008Y031318D01*
X157026Y031273D01*
X157039Y031227D01*
X157049Y031180D01*
X157055Y031133D01*
X157057Y031085D01*
X157055Y031037D01*
X157049Y030990D01*
X157039Y030943D01*
X157026Y030897D01*
X157008Y030852D01*
X156987Y030809D01*
X156963Y030768D01*
X156935Y030729D01*
X156904Y030692D01*
X156870Y030658D01*
X156833Y030627D01*
X156794Y030599D01*
X156753Y030575D01*
X156710Y030554D01*
X156665Y030536D01*
X156619Y030523D01*
X156572Y030513D01*
X156525Y030507D01*
X156477Y030505D01*
X156429Y030507D01*
X156382Y030513D01*
X156335Y030523D01*
X156289Y030536D01*
X156244Y030554D01*
X156201Y030575D01*
X156160Y030599D01*
X156121Y030627D01*
X156084Y030658D01*
X156050Y030692D01*
X156019Y030729D01*
X155991Y030768D01*
X155967Y030809D01*
X155946Y030852D01*
X155928Y030897D01*
X155915Y030943D01*
X155905Y030990D01*
X155899Y031037D01*
X155897Y031085D01*
X148977Y031085D02*
X148979Y031133D01*
X148985Y031180D01*
X148995Y031227D01*
X149008Y031273D01*
X149026Y031318D01*
X149047Y031361D01*
X149071Y031402D01*
X149099Y031441D01*
X149130Y031478D01*
X149164Y031512D01*
X149201Y031543D01*
X149240Y031571D01*
X149281Y031595D01*
X149324Y031616D01*
X149369Y031634D01*
X149415Y031647D01*
X149462Y031657D01*
X149509Y031663D01*
X149557Y031665D01*
X149605Y031663D01*
X149652Y031657D01*
X149699Y031647D01*
X149745Y031634D01*
X149790Y031616D01*
X149833Y031595D01*
X149874Y031571D01*
X149913Y031543D01*
X149950Y031512D01*
X149984Y031478D01*
X150015Y031441D01*
X150043Y031402D01*
X150067Y031361D01*
X150088Y031318D01*
X150106Y031273D01*
X150119Y031227D01*
X150129Y031180D01*
X150135Y031133D01*
X150137Y031085D01*
X150135Y031037D01*
X150129Y030990D01*
X150119Y030943D01*
X150106Y030897D01*
X150088Y030852D01*
X150067Y030809D01*
X150043Y030768D01*
X150015Y030729D01*
X149984Y030692D01*
X149950Y030658D01*
X149913Y030627D01*
X149874Y030599D01*
X149833Y030575D01*
X149790Y030554D01*
X149745Y030536D01*
X149699Y030523D01*
X149652Y030513D01*
X149605Y030507D01*
X149557Y030505D01*
X149509Y030507D01*
X149462Y030513D01*
X149415Y030523D01*
X149369Y030536D01*
X149324Y030554D01*
X149281Y030575D01*
X149240Y030599D01*
X149201Y030627D01*
X149164Y030658D01*
X149130Y030692D01*
X149099Y030729D01*
X149071Y030768D01*
X149047Y030809D01*
X149026Y030852D01*
X149008Y030897D01*
X148995Y030943D01*
X148985Y030990D01*
X148979Y031037D01*
X148977Y031085D01*
X135397Y031085D02*
X135399Y031133D01*
X135405Y031180D01*
X135415Y031227D01*
X135428Y031273D01*
X135446Y031318D01*
X135467Y031361D01*
X135491Y031402D01*
X135519Y031441D01*
X135550Y031478D01*
X135584Y031512D01*
X135621Y031543D01*
X135660Y031571D01*
X135701Y031595D01*
X135744Y031616D01*
X135789Y031634D01*
X135835Y031647D01*
X135882Y031657D01*
X135929Y031663D01*
X135977Y031665D01*
X136025Y031663D01*
X136072Y031657D01*
X136119Y031647D01*
X136165Y031634D01*
X136210Y031616D01*
X136253Y031595D01*
X136294Y031571D01*
X136333Y031543D01*
X136370Y031512D01*
X136404Y031478D01*
X136435Y031441D01*
X136463Y031402D01*
X136487Y031361D01*
X136508Y031318D01*
X136526Y031273D01*
X136539Y031227D01*
X136549Y031180D01*
X136555Y031133D01*
X136557Y031085D01*
X136555Y031037D01*
X136549Y030990D01*
X136539Y030943D01*
X136526Y030897D01*
X136508Y030852D01*
X136487Y030809D01*
X136463Y030768D01*
X136435Y030729D01*
X136404Y030692D01*
X136370Y030658D01*
X136333Y030627D01*
X136294Y030599D01*
X136253Y030575D01*
X136210Y030554D01*
X136165Y030536D01*
X136119Y030523D01*
X136072Y030513D01*
X136025Y030507D01*
X135977Y030505D01*
X135929Y030507D01*
X135882Y030513D01*
X135835Y030523D01*
X135789Y030536D01*
X135744Y030554D01*
X135701Y030575D01*
X135660Y030599D01*
X135621Y030627D01*
X135584Y030658D01*
X135550Y030692D01*
X135519Y030729D01*
X135491Y030768D01*
X135467Y030809D01*
X135446Y030852D01*
X135428Y030897D01*
X135415Y030943D01*
X135405Y030990D01*
X135399Y031037D01*
X135397Y031085D01*
X131137Y031625D02*
X131139Y031675D01*
X131145Y031725D01*
X131155Y031774D01*
X131169Y031822D01*
X131186Y031869D01*
X131207Y031914D01*
X131232Y031958D01*
X131260Y031999D01*
X131292Y032038D01*
X131326Y032075D01*
X131363Y032109D01*
X131403Y032139D01*
X131445Y032166D01*
X131489Y032190D01*
X131535Y032211D01*
X131582Y032227D01*
X131630Y032240D01*
X131680Y032249D01*
X131729Y032254D01*
X131780Y032255D01*
X131830Y032252D01*
X131879Y032245D01*
X131928Y032234D01*
X131976Y032219D01*
X132022Y032201D01*
X132067Y032179D01*
X132110Y032153D01*
X132151Y032124D01*
X132190Y032092D01*
X132226Y032057D01*
X132258Y032019D01*
X132288Y031979D01*
X132315Y031936D01*
X132338Y031892D01*
X132357Y031846D01*
X132373Y031798D01*
X132385Y031749D01*
X132393Y031700D01*
X132397Y031650D01*
X132397Y031600D01*
X132393Y031550D01*
X132385Y031501D01*
X132373Y031452D01*
X132357Y031404D01*
X132338Y031358D01*
X132315Y031314D01*
X132288Y031271D01*
X132258Y031231D01*
X132226Y031193D01*
X132190Y031158D01*
X132151Y031126D01*
X132110Y031097D01*
X132067Y031071D01*
X132022Y031049D01*
X131976Y031031D01*
X131928Y031016D01*
X131879Y031005D01*
X131830Y030998D01*
X131780Y030995D01*
X131729Y030996D01*
X131680Y031001D01*
X131630Y031010D01*
X131582Y031023D01*
X131535Y031039D01*
X131489Y031060D01*
X131445Y031084D01*
X131403Y031111D01*
X131363Y031141D01*
X131326Y031175D01*
X131292Y031212D01*
X131260Y031251D01*
X131232Y031292D01*
X131207Y031336D01*
X131186Y031381D01*
X131169Y031428D01*
X131155Y031476D01*
X131145Y031525D01*
X131139Y031575D01*
X131137Y031625D01*
X126477Y031085D02*
X126479Y031133D01*
X126485Y031180D01*
X126495Y031227D01*
X126508Y031273D01*
X126526Y031318D01*
X126547Y031361D01*
X126571Y031402D01*
X126599Y031441D01*
X126630Y031478D01*
X126664Y031512D01*
X126701Y031543D01*
X126740Y031571D01*
X126781Y031595D01*
X126824Y031616D01*
X126869Y031634D01*
X126915Y031647D01*
X126962Y031657D01*
X127009Y031663D01*
X127057Y031665D01*
X127105Y031663D01*
X127152Y031657D01*
X127199Y031647D01*
X127245Y031634D01*
X127290Y031616D01*
X127333Y031595D01*
X127374Y031571D01*
X127413Y031543D01*
X127450Y031512D01*
X127484Y031478D01*
X127515Y031441D01*
X127543Y031402D01*
X127567Y031361D01*
X127588Y031318D01*
X127606Y031273D01*
X127619Y031227D01*
X127629Y031180D01*
X127635Y031133D01*
X127637Y031085D01*
X127635Y031037D01*
X127629Y030990D01*
X127619Y030943D01*
X127606Y030897D01*
X127588Y030852D01*
X127567Y030809D01*
X127543Y030768D01*
X127515Y030729D01*
X127484Y030692D01*
X127450Y030658D01*
X127413Y030627D01*
X127374Y030599D01*
X127333Y030575D01*
X127290Y030554D01*
X127245Y030536D01*
X127199Y030523D01*
X127152Y030513D01*
X127105Y030507D01*
X127057Y030505D01*
X127009Y030507D01*
X126962Y030513D01*
X126915Y030523D01*
X126869Y030536D01*
X126824Y030554D01*
X126781Y030575D01*
X126740Y030599D01*
X126701Y030627D01*
X126664Y030658D01*
X126630Y030692D01*
X126599Y030729D01*
X126571Y030768D01*
X126547Y030809D01*
X126526Y030852D01*
X126508Y030897D01*
X126495Y030943D01*
X126485Y030990D01*
X126479Y031037D01*
X126477Y031085D01*
X112897Y031085D02*
X112899Y031133D01*
X112905Y031180D01*
X112915Y031227D01*
X112928Y031273D01*
X112946Y031318D01*
X112967Y031361D01*
X112991Y031402D01*
X113019Y031441D01*
X113050Y031478D01*
X113084Y031512D01*
X113121Y031543D01*
X113160Y031571D01*
X113201Y031595D01*
X113244Y031616D01*
X113289Y031634D01*
X113335Y031647D01*
X113382Y031657D01*
X113429Y031663D01*
X113477Y031665D01*
X113525Y031663D01*
X113572Y031657D01*
X113619Y031647D01*
X113665Y031634D01*
X113710Y031616D01*
X113753Y031595D01*
X113794Y031571D01*
X113833Y031543D01*
X113870Y031512D01*
X113904Y031478D01*
X113935Y031441D01*
X113963Y031402D01*
X113987Y031361D01*
X114008Y031318D01*
X114026Y031273D01*
X114039Y031227D01*
X114049Y031180D01*
X114055Y031133D01*
X114057Y031085D01*
X114055Y031037D01*
X114049Y030990D01*
X114039Y030943D01*
X114026Y030897D01*
X114008Y030852D01*
X113987Y030809D01*
X113963Y030768D01*
X113935Y030729D01*
X113904Y030692D01*
X113870Y030658D01*
X113833Y030627D01*
X113794Y030599D01*
X113753Y030575D01*
X113710Y030554D01*
X113665Y030536D01*
X113619Y030523D01*
X113572Y030513D01*
X113525Y030507D01*
X113477Y030505D01*
X113429Y030507D01*
X113382Y030513D01*
X113335Y030523D01*
X113289Y030536D01*
X113244Y030554D01*
X113201Y030575D01*
X113160Y030599D01*
X113121Y030627D01*
X113084Y030658D01*
X113050Y030692D01*
X113019Y030729D01*
X112991Y030768D01*
X112967Y030809D01*
X112946Y030852D01*
X112928Y030897D01*
X112915Y030943D01*
X112905Y030990D01*
X112899Y031037D01*
X112897Y031085D01*
X105977Y031085D02*
X105979Y031133D01*
X105985Y031180D01*
X105995Y031227D01*
X106008Y031273D01*
X106026Y031318D01*
X106047Y031361D01*
X106071Y031402D01*
X106099Y031441D01*
X106130Y031478D01*
X106164Y031512D01*
X106201Y031543D01*
X106240Y031571D01*
X106281Y031595D01*
X106324Y031616D01*
X106369Y031634D01*
X106415Y031647D01*
X106462Y031657D01*
X106509Y031663D01*
X106557Y031665D01*
X106605Y031663D01*
X106652Y031657D01*
X106699Y031647D01*
X106745Y031634D01*
X106790Y031616D01*
X106833Y031595D01*
X106874Y031571D01*
X106913Y031543D01*
X106950Y031512D01*
X106984Y031478D01*
X107015Y031441D01*
X107043Y031402D01*
X107067Y031361D01*
X107088Y031318D01*
X107106Y031273D01*
X107119Y031227D01*
X107129Y031180D01*
X107135Y031133D01*
X107137Y031085D01*
X107135Y031037D01*
X107129Y030990D01*
X107119Y030943D01*
X107106Y030897D01*
X107088Y030852D01*
X107067Y030809D01*
X107043Y030768D01*
X107015Y030729D01*
X106984Y030692D01*
X106950Y030658D01*
X106913Y030627D01*
X106874Y030599D01*
X106833Y030575D01*
X106790Y030554D01*
X106745Y030536D01*
X106699Y030523D01*
X106652Y030513D01*
X106605Y030507D01*
X106557Y030505D01*
X106509Y030507D01*
X106462Y030513D01*
X106415Y030523D01*
X106369Y030536D01*
X106324Y030554D01*
X106281Y030575D01*
X106240Y030599D01*
X106201Y030627D01*
X106164Y030658D01*
X106130Y030692D01*
X106099Y030729D01*
X106071Y030768D01*
X106047Y030809D01*
X106026Y030852D01*
X106008Y030897D01*
X105995Y030943D01*
X105985Y030990D01*
X105979Y031037D01*
X105977Y031085D01*
X092397Y031085D02*
X092399Y031133D01*
X092405Y031180D01*
X092415Y031227D01*
X092428Y031273D01*
X092446Y031318D01*
X092467Y031361D01*
X092491Y031402D01*
X092519Y031441D01*
X092550Y031478D01*
X092584Y031512D01*
X092621Y031543D01*
X092660Y031571D01*
X092701Y031595D01*
X092744Y031616D01*
X092789Y031634D01*
X092835Y031647D01*
X092882Y031657D01*
X092929Y031663D01*
X092977Y031665D01*
X093025Y031663D01*
X093072Y031657D01*
X093119Y031647D01*
X093165Y031634D01*
X093210Y031616D01*
X093253Y031595D01*
X093294Y031571D01*
X093333Y031543D01*
X093370Y031512D01*
X093404Y031478D01*
X093435Y031441D01*
X093463Y031402D01*
X093487Y031361D01*
X093508Y031318D01*
X093526Y031273D01*
X093539Y031227D01*
X093549Y031180D01*
X093555Y031133D01*
X093557Y031085D01*
X093555Y031037D01*
X093549Y030990D01*
X093539Y030943D01*
X093526Y030897D01*
X093508Y030852D01*
X093487Y030809D01*
X093463Y030768D01*
X093435Y030729D01*
X093404Y030692D01*
X093370Y030658D01*
X093333Y030627D01*
X093294Y030599D01*
X093253Y030575D01*
X093210Y030554D01*
X093165Y030536D01*
X093119Y030523D01*
X093072Y030513D01*
X093025Y030507D01*
X092977Y030505D01*
X092929Y030507D01*
X092882Y030513D01*
X092835Y030523D01*
X092789Y030536D01*
X092744Y030554D01*
X092701Y030575D01*
X092660Y030599D01*
X092621Y030627D01*
X092584Y030658D01*
X092550Y030692D01*
X092519Y030729D01*
X092491Y030768D01*
X092467Y030809D01*
X092446Y030852D01*
X092428Y030897D01*
X092415Y030943D01*
X092405Y030990D01*
X092399Y031037D01*
X092397Y031085D01*
X087887Y031625D02*
X087889Y031675D01*
X087895Y031725D01*
X087905Y031774D01*
X087919Y031822D01*
X087936Y031869D01*
X087957Y031914D01*
X087982Y031958D01*
X088010Y031999D01*
X088042Y032038D01*
X088076Y032075D01*
X088113Y032109D01*
X088153Y032139D01*
X088195Y032166D01*
X088239Y032190D01*
X088285Y032211D01*
X088332Y032227D01*
X088380Y032240D01*
X088430Y032249D01*
X088479Y032254D01*
X088530Y032255D01*
X088580Y032252D01*
X088629Y032245D01*
X088678Y032234D01*
X088726Y032219D01*
X088772Y032201D01*
X088817Y032179D01*
X088860Y032153D01*
X088901Y032124D01*
X088940Y032092D01*
X088976Y032057D01*
X089008Y032019D01*
X089038Y031979D01*
X089065Y031936D01*
X089088Y031892D01*
X089107Y031846D01*
X089123Y031798D01*
X089135Y031749D01*
X089143Y031700D01*
X089147Y031650D01*
X089147Y031600D01*
X089143Y031550D01*
X089135Y031501D01*
X089123Y031452D01*
X089107Y031404D01*
X089088Y031358D01*
X089065Y031314D01*
X089038Y031271D01*
X089008Y031231D01*
X088976Y031193D01*
X088940Y031158D01*
X088901Y031126D01*
X088860Y031097D01*
X088817Y031071D01*
X088772Y031049D01*
X088726Y031031D01*
X088678Y031016D01*
X088629Y031005D01*
X088580Y030998D01*
X088530Y030995D01*
X088479Y030996D01*
X088430Y031001D01*
X088380Y031010D01*
X088332Y031023D01*
X088285Y031039D01*
X088239Y031060D01*
X088195Y031084D01*
X088153Y031111D01*
X088113Y031141D01*
X088076Y031175D01*
X088042Y031212D01*
X088010Y031251D01*
X087982Y031292D01*
X087957Y031336D01*
X087936Y031381D01*
X087919Y031428D01*
X087905Y031476D01*
X087895Y031525D01*
X087889Y031575D01*
X087887Y031625D01*
X083477Y031085D02*
X083479Y031133D01*
X083485Y031180D01*
X083495Y031227D01*
X083508Y031273D01*
X083526Y031318D01*
X083547Y031361D01*
X083571Y031402D01*
X083599Y031441D01*
X083630Y031478D01*
X083664Y031512D01*
X083701Y031543D01*
X083740Y031571D01*
X083781Y031595D01*
X083824Y031616D01*
X083869Y031634D01*
X083915Y031647D01*
X083962Y031657D01*
X084009Y031663D01*
X084057Y031665D01*
X084105Y031663D01*
X084152Y031657D01*
X084199Y031647D01*
X084245Y031634D01*
X084290Y031616D01*
X084333Y031595D01*
X084374Y031571D01*
X084413Y031543D01*
X084450Y031512D01*
X084484Y031478D01*
X084515Y031441D01*
X084543Y031402D01*
X084567Y031361D01*
X084588Y031318D01*
X084606Y031273D01*
X084619Y031227D01*
X084629Y031180D01*
X084635Y031133D01*
X084637Y031085D01*
X084635Y031037D01*
X084629Y030990D01*
X084619Y030943D01*
X084606Y030897D01*
X084588Y030852D01*
X084567Y030809D01*
X084543Y030768D01*
X084515Y030729D01*
X084484Y030692D01*
X084450Y030658D01*
X084413Y030627D01*
X084374Y030599D01*
X084333Y030575D01*
X084290Y030554D01*
X084245Y030536D01*
X084199Y030523D01*
X084152Y030513D01*
X084105Y030507D01*
X084057Y030505D01*
X084009Y030507D01*
X083962Y030513D01*
X083915Y030523D01*
X083869Y030536D01*
X083824Y030554D01*
X083781Y030575D01*
X083740Y030599D01*
X083701Y030627D01*
X083664Y030658D01*
X083630Y030692D01*
X083599Y030729D01*
X083571Y030768D01*
X083547Y030809D01*
X083526Y030852D01*
X083508Y030897D01*
X083495Y030943D01*
X083485Y030990D01*
X083479Y031037D01*
X083477Y031085D01*
X069897Y031085D02*
X069899Y031133D01*
X069905Y031180D01*
X069915Y031227D01*
X069928Y031273D01*
X069946Y031318D01*
X069967Y031361D01*
X069991Y031402D01*
X070019Y031441D01*
X070050Y031478D01*
X070084Y031512D01*
X070121Y031543D01*
X070160Y031571D01*
X070201Y031595D01*
X070244Y031616D01*
X070289Y031634D01*
X070335Y031647D01*
X070382Y031657D01*
X070429Y031663D01*
X070477Y031665D01*
X070525Y031663D01*
X070572Y031657D01*
X070619Y031647D01*
X070665Y031634D01*
X070710Y031616D01*
X070753Y031595D01*
X070794Y031571D01*
X070833Y031543D01*
X070870Y031512D01*
X070904Y031478D01*
X070935Y031441D01*
X070963Y031402D01*
X070987Y031361D01*
X071008Y031318D01*
X071026Y031273D01*
X071039Y031227D01*
X071049Y031180D01*
X071055Y031133D01*
X071057Y031085D01*
X071055Y031037D01*
X071049Y030990D01*
X071039Y030943D01*
X071026Y030897D01*
X071008Y030852D01*
X070987Y030809D01*
X070963Y030768D01*
X070935Y030729D01*
X070904Y030692D01*
X070870Y030658D01*
X070833Y030627D01*
X070794Y030599D01*
X070753Y030575D01*
X070710Y030554D01*
X070665Y030536D01*
X070619Y030523D01*
X070572Y030513D01*
X070525Y030507D01*
X070477Y030505D01*
X070429Y030507D01*
X070382Y030513D01*
X070335Y030523D01*
X070289Y030536D01*
X070244Y030554D01*
X070201Y030575D01*
X070160Y030599D01*
X070121Y030627D01*
X070084Y030658D01*
X070050Y030692D01*
X070019Y030729D01*
X069991Y030768D01*
X069967Y030809D01*
X069946Y030852D01*
X069928Y030897D01*
X069915Y030943D01*
X069905Y030990D01*
X069899Y031037D01*
X069897Y031085D01*
X062977Y031085D02*
X062979Y031133D01*
X062985Y031180D01*
X062995Y031227D01*
X063008Y031273D01*
X063026Y031318D01*
X063047Y031361D01*
X063071Y031402D01*
X063099Y031441D01*
X063130Y031478D01*
X063164Y031512D01*
X063201Y031543D01*
X063240Y031571D01*
X063281Y031595D01*
X063324Y031616D01*
X063369Y031634D01*
X063415Y031647D01*
X063462Y031657D01*
X063509Y031663D01*
X063557Y031665D01*
X063605Y031663D01*
X063652Y031657D01*
X063699Y031647D01*
X063745Y031634D01*
X063790Y031616D01*
X063833Y031595D01*
X063874Y031571D01*
X063913Y031543D01*
X063950Y031512D01*
X063984Y031478D01*
X064015Y031441D01*
X064043Y031402D01*
X064067Y031361D01*
X064088Y031318D01*
X064106Y031273D01*
X064119Y031227D01*
X064129Y031180D01*
X064135Y031133D01*
X064137Y031085D01*
X064135Y031037D01*
X064129Y030990D01*
X064119Y030943D01*
X064106Y030897D01*
X064088Y030852D01*
X064067Y030809D01*
X064043Y030768D01*
X064015Y030729D01*
X063984Y030692D01*
X063950Y030658D01*
X063913Y030627D01*
X063874Y030599D01*
X063833Y030575D01*
X063790Y030554D01*
X063745Y030536D01*
X063699Y030523D01*
X063652Y030513D01*
X063605Y030507D01*
X063557Y030505D01*
X063509Y030507D01*
X063462Y030513D01*
X063415Y030523D01*
X063369Y030536D01*
X063324Y030554D01*
X063281Y030575D01*
X063240Y030599D01*
X063201Y030627D01*
X063164Y030658D01*
X063130Y030692D01*
X063099Y030729D01*
X063071Y030768D01*
X063047Y030809D01*
X063026Y030852D01*
X063008Y030897D01*
X062995Y030943D01*
X062985Y030990D01*
X062979Y031037D01*
X062977Y031085D01*
X049397Y031085D02*
X049399Y031133D01*
X049405Y031180D01*
X049415Y031227D01*
X049428Y031273D01*
X049446Y031318D01*
X049467Y031361D01*
X049491Y031402D01*
X049519Y031441D01*
X049550Y031478D01*
X049584Y031512D01*
X049621Y031543D01*
X049660Y031571D01*
X049701Y031595D01*
X049744Y031616D01*
X049789Y031634D01*
X049835Y031647D01*
X049882Y031657D01*
X049929Y031663D01*
X049977Y031665D01*
X050025Y031663D01*
X050072Y031657D01*
X050119Y031647D01*
X050165Y031634D01*
X050210Y031616D01*
X050253Y031595D01*
X050294Y031571D01*
X050333Y031543D01*
X050370Y031512D01*
X050404Y031478D01*
X050435Y031441D01*
X050463Y031402D01*
X050487Y031361D01*
X050508Y031318D01*
X050526Y031273D01*
X050539Y031227D01*
X050549Y031180D01*
X050555Y031133D01*
X050557Y031085D01*
X050555Y031037D01*
X050549Y030990D01*
X050539Y030943D01*
X050526Y030897D01*
X050508Y030852D01*
X050487Y030809D01*
X050463Y030768D01*
X050435Y030729D01*
X050404Y030692D01*
X050370Y030658D01*
X050333Y030627D01*
X050294Y030599D01*
X050253Y030575D01*
X050210Y030554D01*
X050165Y030536D01*
X050119Y030523D01*
X050072Y030513D01*
X050025Y030507D01*
X049977Y030505D01*
X049929Y030507D01*
X049882Y030513D01*
X049835Y030523D01*
X049789Y030536D01*
X049744Y030554D01*
X049701Y030575D01*
X049660Y030599D01*
X049621Y030627D01*
X049584Y030658D01*
X049550Y030692D01*
X049519Y030729D01*
X049491Y030768D01*
X049467Y030809D01*
X049446Y030852D01*
X049428Y030897D01*
X049415Y030943D01*
X049405Y030990D01*
X049399Y031037D01*
X049397Y031085D01*
X044887Y031625D02*
X044889Y031675D01*
X044895Y031725D01*
X044905Y031774D01*
X044919Y031822D01*
X044936Y031869D01*
X044957Y031914D01*
X044982Y031958D01*
X045010Y031999D01*
X045042Y032038D01*
X045076Y032075D01*
X045113Y032109D01*
X045153Y032139D01*
X045195Y032166D01*
X045239Y032190D01*
X045285Y032211D01*
X045332Y032227D01*
X045380Y032240D01*
X045430Y032249D01*
X045479Y032254D01*
X045530Y032255D01*
X045580Y032252D01*
X045629Y032245D01*
X045678Y032234D01*
X045726Y032219D01*
X045772Y032201D01*
X045817Y032179D01*
X045860Y032153D01*
X045901Y032124D01*
X045940Y032092D01*
X045976Y032057D01*
X046008Y032019D01*
X046038Y031979D01*
X046065Y031936D01*
X046088Y031892D01*
X046107Y031846D01*
X046123Y031798D01*
X046135Y031749D01*
X046143Y031700D01*
X046147Y031650D01*
X046147Y031600D01*
X046143Y031550D01*
X046135Y031501D01*
X046123Y031452D01*
X046107Y031404D01*
X046088Y031358D01*
X046065Y031314D01*
X046038Y031271D01*
X046008Y031231D01*
X045976Y031193D01*
X045940Y031158D01*
X045901Y031126D01*
X045860Y031097D01*
X045817Y031071D01*
X045772Y031049D01*
X045726Y031031D01*
X045678Y031016D01*
X045629Y031005D01*
X045580Y030998D01*
X045530Y030995D01*
X045479Y030996D01*
X045430Y031001D01*
X045380Y031010D01*
X045332Y031023D01*
X045285Y031039D01*
X045239Y031060D01*
X045195Y031084D01*
X045153Y031111D01*
X045113Y031141D01*
X045076Y031175D01*
X045042Y031212D01*
X045010Y031251D01*
X044982Y031292D01*
X044957Y031336D01*
X044936Y031381D01*
X044919Y031428D01*
X044905Y031476D01*
X044895Y031525D01*
X044889Y031575D01*
X044887Y031625D01*
X040477Y031085D02*
X040479Y031133D01*
X040485Y031180D01*
X040495Y031227D01*
X040508Y031273D01*
X040526Y031318D01*
X040547Y031361D01*
X040571Y031402D01*
X040599Y031441D01*
X040630Y031478D01*
X040664Y031512D01*
X040701Y031543D01*
X040740Y031571D01*
X040781Y031595D01*
X040824Y031616D01*
X040869Y031634D01*
X040915Y031647D01*
X040962Y031657D01*
X041009Y031663D01*
X041057Y031665D01*
X041105Y031663D01*
X041152Y031657D01*
X041199Y031647D01*
X041245Y031634D01*
X041290Y031616D01*
X041333Y031595D01*
X041374Y031571D01*
X041413Y031543D01*
X041450Y031512D01*
X041484Y031478D01*
X041515Y031441D01*
X041543Y031402D01*
X041567Y031361D01*
X041588Y031318D01*
X041606Y031273D01*
X041619Y031227D01*
X041629Y031180D01*
X041635Y031133D01*
X041637Y031085D01*
X041635Y031037D01*
X041629Y030990D01*
X041619Y030943D01*
X041606Y030897D01*
X041588Y030852D01*
X041567Y030809D01*
X041543Y030768D01*
X041515Y030729D01*
X041484Y030692D01*
X041450Y030658D01*
X041413Y030627D01*
X041374Y030599D01*
X041333Y030575D01*
X041290Y030554D01*
X041245Y030536D01*
X041199Y030523D01*
X041152Y030513D01*
X041105Y030507D01*
X041057Y030505D01*
X041009Y030507D01*
X040962Y030513D01*
X040915Y030523D01*
X040869Y030536D01*
X040824Y030554D01*
X040781Y030575D01*
X040740Y030599D01*
X040701Y030627D01*
X040664Y030658D01*
X040630Y030692D01*
X040599Y030729D01*
X040571Y030768D01*
X040547Y030809D01*
X040526Y030852D01*
X040508Y030897D01*
X040495Y030943D01*
X040485Y030990D01*
X040479Y031037D01*
X040477Y031085D01*
X026897Y031085D02*
X026899Y031133D01*
X026905Y031180D01*
X026915Y031227D01*
X026928Y031273D01*
X026946Y031318D01*
X026967Y031361D01*
X026991Y031402D01*
X027019Y031441D01*
X027050Y031478D01*
X027084Y031512D01*
X027121Y031543D01*
X027160Y031571D01*
X027201Y031595D01*
X027244Y031616D01*
X027289Y031634D01*
X027335Y031647D01*
X027382Y031657D01*
X027429Y031663D01*
X027477Y031665D01*
X027525Y031663D01*
X027572Y031657D01*
X027619Y031647D01*
X027665Y031634D01*
X027710Y031616D01*
X027753Y031595D01*
X027794Y031571D01*
X027833Y031543D01*
X027870Y031512D01*
X027904Y031478D01*
X027935Y031441D01*
X027963Y031402D01*
X027987Y031361D01*
X028008Y031318D01*
X028026Y031273D01*
X028039Y031227D01*
X028049Y031180D01*
X028055Y031133D01*
X028057Y031085D01*
X028055Y031037D01*
X028049Y030990D01*
X028039Y030943D01*
X028026Y030897D01*
X028008Y030852D01*
X027987Y030809D01*
X027963Y030768D01*
X027935Y030729D01*
X027904Y030692D01*
X027870Y030658D01*
X027833Y030627D01*
X027794Y030599D01*
X027753Y030575D01*
X027710Y030554D01*
X027665Y030536D01*
X027619Y030523D01*
X027572Y030513D01*
X027525Y030507D01*
X027477Y030505D01*
X027429Y030507D01*
X027382Y030513D01*
X027335Y030523D01*
X027289Y030536D01*
X027244Y030554D01*
X027201Y030575D01*
X027160Y030599D01*
X027121Y030627D01*
X027084Y030658D01*
X027050Y030692D01*
X027019Y030729D01*
X026991Y030768D01*
X026967Y030809D01*
X026946Y030852D01*
X026928Y030897D01*
X026915Y030943D01*
X026905Y030990D01*
X026899Y031037D01*
X026897Y031085D01*
X019977Y031085D02*
X019979Y031133D01*
X019985Y031180D01*
X019995Y031227D01*
X020008Y031273D01*
X020026Y031318D01*
X020047Y031361D01*
X020071Y031402D01*
X020099Y031441D01*
X020130Y031478D01*
X020164Y031512D01*
X020201Y031543D01*
X020240Y031571D01*
X020281Y031595D01*
X020324Y031616D01*
X020369Y031634D01*
X020415Y031647D01*
X020462Y031657D01*
X020509Y031663D01*
X020557Y031665D01*
X020605Y031663D01*
X020652Y031657D01*
X020699Y031647D01*
X020745Y031634D01*
X020790Y031616D01*
X020833Y031595D01*
X020874Y031571D01*
X020913Y031543D01*
X020950Y031512D01*
X020984Y031478D01*
X021015Y031441D01*
X021043Y031402D01*
X021067Y031361D01*
X021088Y031318D01*
X021106Y031273D01*
X021119Y031227D01*
X021129Y031180D01*
X021135Y031133D01*
X021137Y031085D01*
X021135Y031037D01*
X021129Y030990D01*
X021119Y030943D01*
X021106Y030897D01*
X021088Y030852D01*
X021067Y030809D01*
X021043Y030768D01*
X021015Y030729D01*
X020984Y030692D01*
X020950Y030658D01*
X020913Y030627D01*
X020874Y030599D01*
X020833Y030575D01*
X020790Y030554D01*
X020745Y030536D01*
X020699Y030523D01*
X020652Y030513D01*
X020605Y030507D01*
X020557Y030505D01*
X020509Y030507D01*
X020462Y030513D01*
X020415Y030523D01*
X020369Y030536D01*
X020324Y030554D01*
X020281Y030575D01*
X020240Y030599D01*
X020201Y030627D01*
X020164Y030658D01*
X020130Y030692D01*
X020099Y030729D01*
X020071Y030768D01*
X020047Y030809D01*
X020026Y030852D01*
X020008Y030897D01*
X019995Y030943D01*
X019985Y030990D01*
X019979Y031037D01*
X019977Y031085D01*
X006397Y031085D02*
X006399Y031133D01*
X006405Y031180D01*
X006415Y031227D01*
X006428Y031273D01*
X006446Y031318D01*
X006467Y031361D01*
X006491Y031402D01*
X006519Y031441D01*
X006550Y031478D01*
X006584Y031512D01*
X006621Y031543D01*
X006660Y031571D01*
X006701Y031595D01*
X006744Y031616D01*
X006789Y031634D01*
X006835Y031647D01*
X006882Y031657D01*
X006929Y031663D01*
X006977Y031665D01*
X007025Y031663D01*
X007072Y031657D01*
X007119Y031647D01*
X007165Y031634D01*
X007210Y031616D01*
X007253Y031595D01*
X007294Y031571D01*
X007333Y031543D01*
X007370Y031512D01*
X007404Y031478D01*
X007435Y031441D01*
X007463Y031402D01*
X007487Y031361D01*
X007508Y031318D01*
X007526Y031273D01*
X007539Y031227D01*
X007549Y031180D01*
X007555Y031133D01*
X007557Y031085D01*
X007555Y031037D01*
X007549Y030990D01*
X007539Y030943D01*
X007526Y030897D01*
X007508Y030852D01*
X007487Y030809D01*
X007463Y030768D01*
X007435Y030729D01*
X007404Y030692D01*
X007370Y030658D01*
X007333Y030627D01*
X007294Y030599D01*
X007253Y030575D01*
X007210Y030554D01*
X007165Y030536D01*
X007119Y030523D01*
X007072Y030513D01*
X007025Y030507D01*
X006977Y030505D01*
X006929Y030507D01*
X006882Y030513D01*
X006835Y030523D01*
X006789Y030536D01*
X006744Y030554D01*
X006701Y030575D01*
X006660Y030599D01*
X006621Y030627D01*
X006584Y030658D01*
X006550Y030692D01*
X006519Y030729D01*
X006491Y030768D01*
X006467Y030809D01*
X006446Y030852D01*
X006428Y030897D01*
X006415Y030943D01*
X006405Y030990D01*
X006399Y031037D01*
X006397Y031085D01*
X001137Y031625D02*
X001139Y031675D01*
X001145Y031725D01*
X001155Y031774D01*
X001169Y031822D01*
X001186Y031869D01*
X001207Y031914D01*
X001232Y031958D01*
X001260Y031999D01*
X001292Y032038D01*
X001326Y032075D01*
X001363Y032109D01*
X001403Y032139D01*
X001445Y032166D01*
X001489Y032190D01*
X001535Y032211D01*
X001582Y032227D01*
X001630Y032240D01*
X001680Y032249D01*
X001729Y032254D01*
X001780Y032255D01*
X001830Y032252D01*
X001879Y032245D01*
X001928Y032234D01*
X001976Y032219D01*
X002022Y032201D01*
X002067Y032179D01*
X002110Y032153D01*
X002151Y032124D01*
X002190Y032092D01*
X002226Y032057D01*
X002258Y032019D01*
X002288Y031979D01*
X002315Y031936D01*
X002338Y031892D01*
X002357Y031846D01*
X002373Y031798D01*
X002385Y031749D01*
X002393Y031700D01*
X002397Y031650D01*
X002397Y031600D01*
X002393Y031550D01*
X002385Y031501D01*
X002373Y031452D01*
X002357Y031404D01*
X002338Y031358D01*
X002315Y031314D01*
X002288Y031271D01*
X002258Y031231D01*
X002226Y031193D01*
X002190Y031158D01*
X002151Y031126D01*
X002110Y031097D01*
X002067Y031071D01*
X002022Y031049D01*
X001976Y031031D01*
X001928Y031016D01*
X001879Y031005D01*
X001830Y030998D01*
X001780Y030995D01*
X001729Y030996D01*
X001680Y031001D01*
X001630Y031010D01*
X001582Y031023D01*
X001535Y031039D01*
X001489Y031060D01*
X001445Y031084D01*
X001403Y031111D01*
X001363Y031141D01*
X001326Y031175D01*
X001292Y031212D01*
X001260Y031251D01*
X001232Y031292D01*
X001207Y031336D01*
X001186Y031381D01*
X001169Y031428D01*
X001155Y031476D01*
X001145Y031525D01*
X001139Y031575D01*
X001137Y031625D01*
M02*
