%
M48
M72
T01C0.0197
T02C0.0276
T03C0.0315
T04C0.0433
T05C0.0591
T06C0.1160
T07C0.1260
%
T01
X17517Y7125
X17017Y7875
X20517Y8375
X19017Y8875
X22017Y9875
X23517Y9375
X30267Y9625
X31767Y9625
X33267Y10125
X34517Y10125
X35267Y10875
X38267Y11125
X38767Y10875
X39267Y10625
X39767Y10375
X40267Y10125
X37767Y11375
X37267Y11625
X36767Y11875
X35767Y12125
X34767Y12375
X34267Y12625
X33767Y12875
X32767Y13125
X31767Y13375
X31267Y13625
X30017Y13875
X27017Y14125
X26267Y14375
X25517Y14625
X24767Y14875
X24017Y15125
X23267Y15375
X22267Y15625
X21267Y16125
X28517Y16625
X29017Y16875
X17767Y19125
X20267Y19375
X15267Y18875
X13267Y19125
X12767Y18625
X12267Y18625
X11267Y18125
X10267Y18375
X9267Y18125
X7767Y18125
X5267Y17875
X3017Y17375
X4517Y18875
X7017Y19625
X8267Y19125
X5767Y20875
X4017Y20875
X3017Y22125
X43517Y16875
X44767Y17125
X45767Y17125
X47267Y17375
X48267Y17375
X49767Y17625
X50767Y17625
X52267Y17875
X53267Y17875
X54767Y18125
X55767Y18125
X57267Y18375
X58267Y18375
X59767Y18625
X60767Y18625
X62267Y19125
X63267Y19375
X71517Y16875
X66267Y15625
X65767Y15875
X65267Y16125
X67267Y15375
X68267Y15125
X68767Y14875
X69267Y14625
X70017Y14375
X73017Y14125
X74517Y13875
X75017Y13625
X76017Y13375
X77017Y13125
X77517Y12875
X78017Y12625
X79017Y12375
X80017Y12125
X80517Y11875
X81017Y11625
X82017Y11375
X83017Y11125
X83517Y10875
X84017Y10625
X85017Y10125
X69767Y9375
X53017Y8625
X43767Y12125
X43517Y12875
X45267Y13375
X46767Y13125
X49767Y13625
X48267Y13875
X55267Y16375
X34017Y11375
X87767Y17125
X88767Y17125
X90267Y17375
X91267Y17375
X92767Y17625
X93767Y17625
X95267Y17875
X96267Y17875
X97767Y18125
X98767Y18125
X100267Y18375
X101267Y18375
X102767Y18625
X103767Y18625
X105267Y19125
X106267Y19125
X114517Y16875
X109517Y15625
X109017Y15875
X108267Y16125
X110267Y15375
X111267Y15125
X111767Y14875
X112267Y14625
X113267Y14375
X116017Y14125
X117517Y13875
X118017Y13625
X119017Y13375
X120017Y13125
X120517Y12875
X121017Y12625
X122017Y12375
X123017Y12125
X123517Y11875
X124017Y11625
X125017Y11375
X126017Y11125
X126517Y10875
X127017Y10625
X128017Y10125
X153267Y15875
X154267Y15625
X154767Y15375
X155267Y15125
X156267Y14875
X159017Y14625
X160517Y14375
X161017Y14125
X162017Y13875
X163017Y13625
X163517Y13375
X164017Y13125
X165017Y12875
X166017Y12625
X166517Y12375
X167017Y12125
X168017Y11875
X169017Y11625
X169517Y11375
X170017Y11125
X171017Y10875
X152267Y16125
X151767Y16375
X150267Y16625
X157517Y17375
X149767Y18875
X147267Y18625
X144767Y18375
X142267Y18125
X139767Y17875
X137267Y17625
X134767Y17375
X132267Y17125
T02
X131767Y20375
X131267Y20875
X131767Y21375
X134267Y21375
X136767Y21375
X136267Y20875
X136767Y20375
X134267Y20375
X133767Y20875
X138767Y20875
X139267Y20375
X141267Y20875
X141767Y20375
X143767Y20875
X144267Y20375
X146267Y20875
X146767Y20375
X148767Y20875
X149267Y20375
X149267Y21375
X151267Y21625
X152767Y21625
X154267Y21625
X155767Y21625
X156267Y22125
X155767Y22625
X154767Y22125
X154267Y22625
X153267Y22125
X152767Y22625
X151767Y22125
X151267Y22625
X149267Y23125
X148767Y23625
X150767Y24125
X151267Y23625
X152267Y24125
X152767Y23625
X153767Y24125
X154267Y23625
X155267Y24125
X155767Y23625
X158017Y23125
X158517Y23625
X158017Y24125
X159517Y24125
X160017Y23625
X161017Y24125
X161517Y23625
X162517Y24125
X163017Y23625
X164017Y24125
X164517Y23625
X165517Y24125
X166017Y23625
X167017Y24125
X167517Y23625
X168517Y24125
X169017Y23625
X170017Y24125
X170517Y23625
X170517Y22625
X171017Y22125
X169517Y22125
X169017Y22625
X168017Y22125
X167517Y22625
X166517Y22125
X166017Y22625
X165017Y22125
X164517Y22625
X163517Y22125
X163017Y22625
X162017Y22125
X161517Y22625
X160517Y22125
X160017Y22625
X160017Y21625
X161517Y21625
X163017Y21625
X164517Y21625
X166017Y21625
X167517Y21625
X169017Y21625
X170517Y21625
X158517Y21375
X158017Y20875
X158517Y20375
X148767Y22625
X146267Y22625
X146767Y23125
X146267Y23625
X144267Y23125
X143767Y23625
X141767Y23125
X141267Y23625
X139267Y23125
X138767Y23625
X136767Y23125
X136267Y23625
X134267Y23125
X133767Y23625
X131767Y23125
X131267Y23625
X127517Y23625
X127017Y24125
X126017Y23625
X125517Y24125
X124517Y23625
X124017Y24125
X123017Y23625
X122517Y24125
X121517Y23625
X121017Y24125
X120017Y23625
X119517Y24125
X118517Y23625
X118017Y24125
X117017Y23625
X116517Y24125
X115517Y23625
X115017Y23125
X112767Y23625
X112267Y24125
X111267Y23625
X110767Y24125
X109767Y23625
X109267Y24125
X108267Y23625
X107767Y24125
X105767Y23625
X106267Y23125
X103767Y23125
X103267Y23625
X101267Y23125
X100767Y23625
X98767Y23125
X98267Y23625
X96267Y23125
X95767Y23625
X93767Y23125
X93267Y23625
X91267Y23125
X90767Y23625
X88767Y23125
X88267Y23625
X84517Y23625
X84017Y24125
X83017Y23625
X82517Y24125
X81517Y23625
X81017Y24125
X80017Y23625
X79517Y24125
X78517Y23625
X78017Y24125
X77017Y23625
X76517Y24125
X75517Y23625
X75017Y24125
X74017Y23625
X73517Y24125
X72517Y23625
X72017Y23125
X72017Y24125
X74017Y24625
X75517Y24625
X77017Y24625
X78517Y24625
X80017Y24625
X81517Y24625
X83017Y24625
X84517Y24625
X88267Y24875
X88767Y25375
X88267Y25875
X90767Y25875
X91267Y25375
X90767Y24875
X93267Y24875
X93767Y25375
X93267Y25875
X95767Y25875
X96267Y25375
X95767Y24875
X98267Y24875
X98767Y25375
X98267Y25875
X100767Y25875
X101267Y25375
X100767Y24875
X103267Y24875
X103767Y25375
X103267Y25875
X105767Y25875
X106267Y25375
X105767Y24875
X108267Y24625
X109767Y24625
X111267Y24625
X112767Y24625
X115017Y24125
X117017Y24625
X118517Y24625
X120017Y24625
X121517Y24625
X123017Y24625
X124517Y24625
X126017Y24625
X127517Y24625
X131267Y24875
X131767Y25375
X131267Y25875
X133767Y25875
X134267Y25375
X133767Y24875
X136267Y24875
X136767Y25375
X136267Y25875
X138767Y25875
X139267Y25375
X138767Y24875
X141267Y24875
X141767Y25375
X141267Y25875
X143767Y25875
X144267Y25375
X143767Y24875
X146267Y24875
X146767Y25375
X146267Y25875
X148767Y25875
X149267Y25375
X148767Y24875
X151267Y24625
X152767Y24625
X154267Y24625
X155767Y24625
X157517Y25625
X157017Y26125
X157517Y26625
X160017Y24625
X161517Y24625
X163017Y24625
X164517Y24625
X166017Y24625
X167517Y24625
X169017Y24625
X170517Y24625
X146767Y21375
X144267Y21375
X141767Y21375
X139267Y21375
X138767Y22625
X141267Y22625
X143767Y22625
X136267Y22625
X133767Y22625
X131267Y22625
X128017Y22125
X127517Y22625
X126517Y22125
X126017Y22625
X125017Y22125
X124517Y22625
X123517Y22125
X123017Y22625
X122017Y22125
X121517Y22625
X120517Y22125
X120017Y22625
X119017Y22125
X118517Y22625
X117517Y22125
X117017Y22625
X113267Y22125
X112767Y22625
X111767Y22125
X111267Y22625
X110267Y22125
X109767Y22625
X108767Y22125
X108267Y22625
X105767Y22625
X103267Y22625
X100767Y22625
X98267Y22625
X95767Y22625
X93267Y22625
X90767Y22625
X88267Y22625
X85017Y22125
X84517Y22625
X83517Y22125
X83017Y22625
X82017Y22125
X81517Y22625
X80517Y22125
X80017Y22625
X79017Y22125
X78517Y22625
X77517Y22125
X77017Y22625
X76017Y22125
X75517Y22625
X74517Y22125
X74017Y22625
X70267Y22125
X69767Y22625
X68767Y22125
X68267Y22625
X67267Y22125
X66767Y22625
X65767Y22125
X65267Y22625
X63267Y23125
X62767Y23625
X64767Y24125
X65267Y23625
X66267Y24125
X66767Y23625
X67767Y24125
X68267Y23625
X69267Y24125
X69767Y23625
X69767Y24625
X68267Y24625
X66767Y24625
X65267Y24625
X63267Y25375
X62767Y24875
X60767Y25375
X60267Y24875
X58267Y25375
X57767Y24875
X55767Y25375
X55267Y24875
X53267Y25375
X52767Y24875
X52767Y25875
X55267Y25875
X57767Y25875
X60267Y25875
X62767Y25875
X71017Y26125
X71517Y25625
X71517Y26625
X60267Y23625
X60767Y23125
X58267Y23125
X57767Y23625
X55767Y23125
X55267Y23625
X53267Y23125
X52767Y23625
X50767Y23125
X50267Y23625
X48267Y23125
X47767Y23625
X45767Y23125
X45267Y23625
X41517Y23625
X41017Y24125
X40017Y23625
X39517Y24125
X38517Y23625
X38017Y24125
X37017Y23625
X36517Y24125
X35517Y23625
X35017Y24125
X34017Y23625
X33517Y24125
X32517Y23625
X32017Y24125
X31017Y23625
X30517Y24125
X29517Y23625
X29017Y23125
X26767Y23625
X26267Y24125
X25267Y23625
X24767Y24125
X23767Y23625
X23267Y24125
X22267Y23625
X21767Y24125
X19767Y23625
X20267Y23125
X17767Y23125
X17267Y23625
X15267Y23125
X14767Y23625
X12767Y23125
X12267Y23625
X10267Y23125
X9767Y23625
X7767Y23125
X7267Y23625
X5267Y23125
X4767Y23625
X2767Y23125
X2267Y23625
X2267Y22625
X4767Y22625
X7267Y22625
X9767Y22625
X12267Y22625
X14767Y22625
X17267Y22625
X19767Y22625
X22267Y22625
X22767Y22125
X23767Y22625
X24267Y22125
X25267Y22625
X25767Y22125
X26767Y22625
X27267Y22125
X26767Y21625
X25267Y21625
X23767Y21625
X22267Y21625
X20267Y21375
X17767Y21375
X17267Y20875
X17767Y20375
X19767Y20875
X20267Y20375
X15267Y20375
X14767Y20875
X12767Y20375
X12267Y20875
X10267Y20375
X9767Y20875
X7767Y20375
X7267Y20875
X5267Y20375
X4767Y20875
X2767Y20375
X2267Y20875
X2767Y21375
X5267Y21375
X7767Y21375
X10267Y21375
X12767Y21375
X15267Y21375
X29017Y20875
X29517Y20375
X29517Y21375
X31017Y21625
X32517Y21625
X34017Y21625
X35517Y21625
X37017Y21625
X38517Y21625
X40017Y21625
X41517Y21625
X42017Y22125
X41517Y22625
X40517Y22125
X40017Y22625
X39017Y22125
X38517Y22625
X37517Y22125
X37017Y22625
X36017Y22125
X35517Y22625
X34517Y22125
X34017Y22625
X33017Y22125
X32517Y22625
X31517Y22125
X31017Y22625
X29017Y24125
X31017Y24625
X32517Y24625
X34017Y24625
X35517Y24625
X37017Y24625
X38517Y24625
X40017Y24625
X41517Y24625
X45267Y24875
X45767Y25375
X45267Y25875
X47767Y25875
X48267Y25375
X47767Y24875
X50267Y24875
X50767Y25375
X50267Y25875
X50267Y22625
X47767Y22625
X45267Y22625
X45767Y21375
X48267Y21375
X50767Y21375
X50267Y20875
X50767Y20375
X48267Y20375
X47767Y20875
X45767Y20375
X45267Y20875
X52767Y20875
X53267Y20375
X55267Y20875
X55767Y20375
X57767Y20875
X58267Y20375
X60267Y20875
X60767Y20375
X62767Y20875
X63267Y20375
X63267Y21375
X65267Y21625
X66767Y21625
X68267Y21625
X69767Y21625
X72017Y20875
X72517Y20375
X72517Y21375
X74017Y21625
X75517Y21625
X77017Y21625
X78517Y21625
X80017Y21625
X81517Y21625
X83017Y21625
X84517Y21625
X88267Y20875
X88767Y20375
X90767Y20875
X91267Y20375
X93267Y20875
X93767Y20375
X95767Y20875
X96267Y20375
X98267Y20875
X98767Y20375
X100767Y20875
X101267Y20375
X103267Y20875
X103767Y20375
X105767Y20625
X106267Y21125
X108267Y21625
X109767Y21625
X111267Y21625
X112767Y21625
X115517Y21375
X117017Y21625
X118517Y21625
X120017Y21625
X121517Y21625
X123017Y21625
X124517Y21625
X126017Y21625
X127517Y21625
X115517Y20375
X115017Y20875
X106267Y20125
X103767Y21375
X101267Y21375
X98767Y21375
X96267Y21375
X93767Y21375
X91267Y21375
X88767Y21375
X114017Y26125
X114517Y25625
X114517Y26625
X62767Y22625
X60267Y22625
X57767Y22625
X55267Y22625
X52767Y22625
X53267Y21375
X55767Y21375
X58267Y21375
X60767Y21375
X28517Y25625
X28017Y26125
X28517Y26625
X20267Y25375
X19767Y24875
X17767Y25375
X17267Y24875
X15267Y25375
X14767Y24875
X12767Y25375
X12267Y24875
X10267Y25375
X9767Y24875
X7767Y25375
X7267Y24875
X5267Y25375
X4767Y24875
X2767Y25375
X2267Y24875
X2267Y25875
X4767Y25875
X7267Y25875
X9767Y25875
X12267Y25875
X14767Y25875
X17267Y25875
X19767Y25875
X22267Y24625
X23767Y24625
X25267Y24625
X26767Y24625
X14517Y14625
X13017Y14625
X11517Y14625
X10017Y14625
X8517Y14625
X7017Y14625
X5517Y14625
X4017Y14625
X3517Y14125
X4017Y13625
X5017Y14125
X5517Y13625
X6517Y14125
X7017Y13625
X8017Y14125
X8517Y13625
X9517Y14125
X10017Y13625
X11017Y14125
X11517Y13625
X12517Y14125
X13017Y13625
X14017Y14125
X14517Y13625
X16517Y12625
X16017Y12125
X17517Y12125
X18017Y12625
X19017Y12125
X19517Y12625
X20517Y12125
X21017Y12625
X22017Y12125
X22517Y12625
X23517Y12125
X24017Y12625
X25017Y12125
X25517Y12625
X26517Y12125
X27017Y12625
X27017Y11625
X25517Y11625
X24017Y11625
X22517Y11625
X21017Y11625
X19517Y11625
X18017Y11625
X16517Y11625
X27267Y8375
X26767Y7875
X28267Y7875
X28767Y8375
X29767Y7875
X30267Y8375
X31267Y7875
X31767Y8375
X32767Y7875
X33267Y8375
X34267Y7875
X34767Y8375
X35767Y7875
X36267Y8375
X37267Y7875
X37767Y8375
X38767Y7875
X39267Y8375
X40267Y7875
X40767Y8375
X42267Y8125
X41767Y7625
X42267Y7125
X43267Y7625
X43767Y7125
X44767Y7625
X45267Y7125
X46267Y7625
X46767Y7125
X47767Y7625
X48267Y7125
X49267Y7625
X49767Y7125
X49767Y8125
X48267Y8125
X46767Y8125
X45267Y8125
X43767Y8125
X40767Y7375
X39267Y7375
X37767Y7375
X36267Y7375
X34767Y7375
X33267Y7375
X31767Y7375
X30267Y7375
X28767Y7375
X27267Y7375
X54267Y7125
X54767Y7625
X54767Y6625
X54767Y5125
X54267Y4625
X54767Y4125
X93267Y4875
X93767Y5375
X93267Y5875
X99267Y5625
X100267Y5625
X103267Y5625
X104267Y5625
X103767Y6125
X107267Y5625
X108267Y5625
X107767Y6125
X111017Y5625
X112017Y5625
X111517Y6125
X111517Y7125
X112017Y7625
X111017Y7625
X108267Y7625
X107767Y7125
X107267Y7625
X104267Y7625
X103767Y7125
X103267Y7625
X100267Y7625
X99767Y7125
X99267Y7625
X93767Y7875
X93267Y8375
X93267Y7375
X99767Y6125
X100267Y4625
X99267Y4625
X99767Y4125
X103267Y4625
X104267Y4625
X103767Y4125
X107267Y4625
X108267Y4625
X107767Y4125
X111017Y4625
X112017Y4625
X111517Y4125
T03
X92267Y4375
X92267Y6375
X92267Y7125
X95767Y8375
X97767Y8375
X99267Y8625
X101267Y8625
X103267Y8625
X105267Y8625
X107267Y8625
X109267Y8625
X111017Y8625
X113017Y8625
X92267Y9125
X57767Y7625
X55767Y7625
X55767Y5125
X57767Y5125
X14517Y11875
X12517Y11875
X11517Y11875
X9517Y11875
X8517Y11875
X6517Y11875
X5517Y11875
X3517Y11875
X3517Y12625
X5517Y12625
X6517Y12625
X8517Y12625
X9517Y12625
X11517Y12625
X12517Y12625
X14517Y12625
X14267Y11125
X12767Y11125
X11267Y11125
X9767Y11125
X8267Y11125
X6767Y11125
X5267Y11125
X3767Y11125
X3767Y10125
X5267Y10125
X6767Y10125
X8267Y10125
X9767Y10125
X11267Y10125
X12767Y10125
X14267Y10125
X14517Y15625
X16267Y16125
X14517Y16375
X12517Y16375
X11517Y16375
X9517Y16375
X8517Y16375
X6517Y16375
X5517Y16375
X3517Y16375
X3517Y15625
X5517Y15625
X6517Y15625
X8517Y15625
X9517Y15625
X11517Y15625
X12517Y15625
X18267Y16125
X18767Y19625
X16267Y19625
X13767Y19625
X11267Y19625
X8767Y19625
X6267Y19625
X3767Y19625
X1267Y19625
X1267Y21625
X3767Y21625
X6267Y21625
X8767Y21625
X11267Y21625
X13767Y21625
X16267Y21625
X18767Y21625
X21767Y20625
X23767Y20625
X24767Y20625
X26767Y20625
X28017Y21625
X28017Y22625
X18767Y22625
X16267Y22625
X13767Y22625
X11267Y22625
X8767Y22625
X6267Y22625
X3767Y22625
X1267Y22625
X1267Y24625
X3767Y24625
X6267Y24625
X8767Y24625
X11267Y24625
X13767Y24625
X16267Y24625
X18767Y24625
X18767Y25625
X16267Y25625
X13767Y25625
X11267Y25625
X8767Y25625
X6267Y25625
X3767Y25625
X1267Y25625
X2267Y27125
X1267Y27625
X2267Y28125
X4767Y28125
X3767Y27625
X4767Y27125
X6267Y27625
X7267Y27125
X8767Y27625
X9767Y27125
X11267Y27625
X12267Y27125
X13767Y27625
X14767Y27125
X16267Y27625
X17267Y27125
X18767Y27625
X19767Y27125
X21767Y26875
X23767Y26875
X24767Y26875
X26767Y26875
X29517Y27125
X30517Y26875
X32517Y26875
X33517Y26875
X35517Y26875
X36517Y26875
X38517Y26875
X39517Y26875
X41517Y26875
X44267Y27625
X45267Y27125
X46767Y27625
X47767Y27125
X49267Y27625
X50267Y27125
X51767Y27625
X52767Y27125
X54267Y27625
X55267Y27125
X56767Y27625
X57767Y27125
X59267Y27625
X60267Y27125
X61767Y27625
X62767Y27125
X64767Y26875
X66767Y26875
X67767Y26875
X69767Y26875
X72517Y27125
X73517Y26875
X75517Y26875
X76517Y26875
X78517Y26875
X79517Y26875
X81517Y26875
X82517Y26875
X84517Y26875
X85517Y26125
X84517Y25875
X82517Y25875
X81517Y25875
X79517Y25875
X78517Y25875
X76517Y25875
X75517Y25875
X73517Y25875
X72517Y25125
X71017Y24625
X69767Y25875
X67767Y25875
X66767Y25875
X64767Y25875
X61767Y25625
X59267Y25625
X56767Y25625
X54267Y25625
X51767Y25625
X49267Y25625
X46767Y25625
X44267Y25625
X42517Y25625
X41517Y25875
X39517Y25875
X38517Y25875
X36517Y25875
X35517Y25875
X33517Y25875
X32517Y25875
X30517Y25875
X29517Y25125
X28017Y24625
X26767Y25875
X24767Y25875
X23767Y25875
X21767Y25875
X19767Y28125
X17267Y28125
X14767Y28125
X12267Y28125
X9767Y28125
X7267Y28125
X42517Y23625
X44267Y22625
X46767Y22625
X49267Y22625
X51767Y22625
X54267Y22625
X56767Y22625
X59267Y22625
X61767Y22625
X61767Y21625
X59267Y21625
X56767Y21625
X54267Y21625
X51767Y21625
X49267Y21625
X46767Y21625
X44267Y21625
X41517Y20375
X39517Y20375
X38517Y20375
X36517Y20375
X35517Y20375
X33517Y20375
X32517Y20375
X30517Y20375
X30517Y19625
X32517Y19625
X33517Y19625
X35517Y19625
X36517Y19625
X38517Y19625
X39517Y19625
X41517Y19625
X44267Y19625
X46767Y19625
X49267Y19625
X51767Y19625
X54267Y19625
X56767Y19625
X59267Y19625
X61767Y19625
X64767Y19875
X66767Y19875
X67767Y19875
X69767Y19875
X71017Y19625
X73517Y19625
X73517Y20375
X75517Y20375
X76517Y20375
X78517Y20375
X79517Y20375
X81517Y20375
X82517Y20375
X84517Y20375
X84517Y19625
X82517Y19625
X81517Y19625
X79517Y19625
X78517Y19625
X76517Y19625
X75517Y19625
X69767Y20625
X67767Y20625
X66767Y20625
X64767Y20625
X71017Y21625
X71017Y22625
X61767Y24625
X59267Y24625
X56767Y24625
X54267Y24625
X51767Y24625
X49267Y24625
X46767Y24625
X44267Y24625
X45267Y28125
X47767Y28125
X50267Y28125
X52767Y28125
X55267Y28125
X57767Y28125
X60267Y28125
X62767Y28125
X85517Y24125
X87267Y24625
X89767Y24625
X92267Y24625
X94767Y24625
X97267Y24625
X99767Y24625
X102267Y24625
X104767Y24625
X104767Y25625
X102267Y25625
X99767Y25625
X97267Y25625
X94767Y25625
X92267Y25625
X89767Y25625
X87267Y25625
X88267Y27125
X87267Y27625
X88267Y28125
X90767Y28125
X89767Y27625
X90767Y27125
X92267Y27625
X93267Y27125
X94767Y27625
X95767Y27125
X97267Y27625
X98267Y27125
X99767Y27625
X100767Y27125
X102267Y27625
X103267Y27125
X104767Y27625
X105767Y27125
X107767Y26875
X109767Y26875
X110767Y26875
X112767Y26875
X115517Y27125
X116517Y26875
X118517Y26875
X119517Y26875
X121517Y26875
X122517Y26875
X124517Y26875
X125517Y26875
X127517Y26875
X130267Y27625
X131267Y27125
X132767Y27625
X133767Y27125
X135267Y27625
X136267Y27125
X137767Y27625
X138767Y27125
X140267Y27625
X141267Y27125
X142767Y27625
X143767Y27125
X145267Y27625
X146267Y27125
X147767Y27625
X148767Y27125
X150767Y26875
X152767Y26875
X153767Y26875
X155767Y26875
X158517Y27125
X159517Y26875
X161517Y26875
X162517Y26875
X164517Y26875
X165517Y26875
X167517Y26875
X168517Y26875
X170517Y26875
X172517Y26375
X170517Y25875
X168517Y25875
X167517Y25875
X165517Y25875
X164517Y25875
X162517Y25875
X161517Y25875
X159517Y25875
X158517Y25125
X157017Y24625
X155767Y25875
X153767Y25875
X152767Y25875
X150767Y25875
X147767Y25625
X145267Y25625
X142767Y25625
X140267Y25625
X137767Y25625
X135267Y25625
X132767Y25625
X130267Y25625
X128767Y25125
X130267Y24625
X132767Y24625
X135267Y24625
X137767Y24625
X140267Y24625
X142767Y24625
X145267Y24625
X147767Y24625
X147767Y22625
X147767Y21875
X145267Y21875
X142767Y21625
X140267Y21625
X137767Y21625
X135267Y21625
X132767Y21625
X130267Y21625
X130267Y22625
X132767Y22625
X135267Y22625
X137767Y22625
X140267Y22625
X142767Y22625
X145267Y22625
X150767Y20375
X150767Y19625
X147767Y19875
X145267Y19875
X142767Y19625
X140267Y19625
X137767Y19625
X135267Y19625
X132767Y19625
X130267Y19625
X127517Y19625
X125517Y19625
X124517Y19625
X122517Y19625
X121517Y19625
X119517Y19625
X118517Y19625
X116517Y19625
X114017Y19625
X112767Y19875
X110767Y19875
X109767Y19875
X107767Y19875
X104767Y19625
X102267Y19625
X99767Y19625
X97267Y19625
X94767Y19625
X92267Y19625
X89767Y19625
X87267Y19625
X87267Y21625
X89767Y21625
X92267Y21625
X94767Y21625
X97267Y21625
X99767Y21625
X102267Y21625
X104767Y21625
X107767Y20625
X109767Y20625
X110767Y20625
X112767Y20625
X114017Y21625
X114017Y22625
X114017Y24625
X115517Y25125
X116517Y25875
X118517Y25875
X119517Y25875
X121517Y25875
X122517Y25875
X124517Y25875
X125517Y25875
X127517Y25875
X128767Y23125
X127517Y20375
X125517Y20375
X124517Y20375
X122517Y20375
X121517Y20375
X119517Y20375
X118517Y20375
X116517Y20375
X104767Y22625
X102267Y22625
X99767Y22625
X97267Y22625
X94767Y22625
X92267Y22625
X89767Y22625
X87267Y22625
X107767Y25875
X109767Y25875
X110767Y25875
X112767Y25875
X105767Y28125
X103267Y28125
X100767Y28125
X98267Y28125
X95767Y28125
X93267Y28125
X131267Y28125
X133767Y28125
X136267Y28125
X138767Y28125
X141267Y28125
X143767Y28125
X146267Y28125
X148767Y28125
X172517Y24375
X157017Y22625
X157017Y21625
X155767Y20375
X153767Y20375
X152767Y20375
X152767Y19625
X153767Y19625
X155767Y19625
X157017Y19625
X159517Y19625
X159517Y20375
X161517Y20375
X162517Y20375
X164517Y20375
X165517Y20375
X167517Y20375
X168517Y20375
X170517Y20375
X170517Y19625
X168517Y19625
X167517Y19625
X165517Y19625
X164517Y19625
X162517Y19625
X161517Y19625
X162017Y9875
X163017Y9875
X160017Y9875
X158767Y9875
X156767Y9875
X155517Y9875
X153517Y9875
X152267Y9875
X150267Y9875
X149267Y9875
X149267Y8875
X150267Y8875
X152267Y8875
X153517Y8875
X155517Y8875
X156767Y8875
X158767Y8875
X160017Y8875
X162017Y8875
X163017Y8875
X165017Y8875
X166017Y8875
X168017Y8875
X169017Y8875
X171017Y8875
X171017Y9875
X169017Y9875
X168017Y9875
X166017Y9875
X165017Y9875
X165017Y7875
X166017Y7875
X168017Y7875
X169017Y7875
X171017Y7875
X163017Y7875
X162017Y7875
X160017Y7875
X158767Y7875
X156767Y7875
X155517Y7875
X153517Y7875
X152267Y7875
X150267Y7875
X149267Y7875
X147267Y7875
X147267Y8875
X147267Y9875
X142767Y6625
X140767Y6625
X141017Y4625
X142017Y4625
X28017Y19625
X26767Y19875
X24767Y19875
X23767Y19875
X21767Y19875
T04
X18267Y30375
X17267Y30375
X16267Y30375
X15267Y30375
X14267Y30375
X13267Y30375
X12267Y30375
X11267Y30375
X10267Y30375
X9267Y30375
X9267Y31375
X10267Y31375
X11267Y31375
X12267Y31375
X13267Y31375
X14267Y31375
X15267Y31375
X16267Y31375
X17267Y31375
X18267Y31375
X29767Y31375
X30767Y31375
X31767Y31375
X32767Y31375
X33767Y31375
X34767Y31375
X35767Y31375
X36767Y31375
X37767Y31375
X38767Y31375
X38767Y30375
X37767Y30375
X36767Y30375
X35767Y30375
X34767Y30375
X33767Y30375
X32767Y30375
X31767Y30375
X30767Y30375
X29767Y30375
X52267Y30375
X53267Y30375
X54267Y30375
X55267Y30375
X56267Y30375
X57267Y30375
X58267Y30375
X59267Y30375
X60267Y30375
X61267Y30375
X61267Y31375
X60267Y31375
X59267Y31375
X58267Y31375
X57267Y31375
X56267Y31375
X55267Y31375
X54267Y31375
X53267Y31375
X52267Y31375
X72767Y31375
X73767Y31375
X74767Y31375
X75767Y31375
X76767Y31375
X77767Y31375
X78767Y31375
X79767Y31375
X80767Y31375
X81767Y31375
X81767Y30375
X80767Y30375
X79767Y30375
X78767Y30375
X77767Y30375
X76767Y30375
X75767Y30375
X74767Y30375
X73767Y30375
X72767Y30375
X95267Y30375
X96267Y30375
X97267Y30375
X98267Y30375
X99267Y30375
X100267Y30375
X101267Y30375
X102267Y30375
X103267Y30375
X104267Y30375
X104267Y31375
X103267Y31375
X102267Y31375
X101267Y31375
X100267Y31375
X99267Y31375
X98267Y31375
X97267Y31375
X96267Y31375
X95267Y31375
X115767Y31375
X116767Y31375
X117767Y31375
X118767Y31375
X119767Y31375
X120767Y31375
X121767Y31375
X122767Y31375
X123767Y31375
X124767Y31375
X124767Y30375
X123767Y30375
X122767Y30375
X121767Y30375
X120767Y30375
X119767Y30375
X118767Y30375
X117767Y30375
X116767Y30375
X115767Y30375
X138267Y30375
X139267Y30375
X140267Y30375
X141267Y30375
X142267Y30375
X143267Y30375
X144267Y30375
X145267Y30375
X146267Y30375
X147267Y30375
X147267Y31375
X146267Y31375
X145267Y31375
X144267Y31375
X143267Y31375
X142267Y31375
X141267Y31375
X140267Y31375
X139267Y31375
X138267Y31375
X158767Y31375
X159767Y31375
X160767Y31375
X161767Y31375
X162767Y31375
X163767Y31375
X164767Y31375
X165767Y31375
X166767Y31375
X167767Y31375
X167767Y30375
X166767Y30375
X165767Y30375
X164767Y30375
X163767Y30375
X162767Y30375
X161767Y30375
X160767Y30375
X159767Y30375
X158767Y30375
X86017Y7625
X85017Y7625
X84017Y7625
X83017Y7625
X82017Y7625
X81017Y7625
X80017Y7625
X79017Y7625
X78017Y7625
X77017Y7625
X76017Y7625
X75017Y7625
X74017Y7625
X73017Y7625
X72017Y7625
X71017Y7625
X77517Y5125
X78517Y5125
X46767Y5125
X45767Y5125
X44767Y5125
X43767Y5125
X42767Y5125
X41767Y5125
X40767Y5125
X39767Y5125
X38767Y5125
X37767Y5125
X37767Y4125
X38767Y4125
X39767Y4125
X40767Y4125
X41767Y4125
X42767Y4125
X43767Y4125
X44767Y4125
X45767Y4125
X46767Y4125
X16767Y4125
X15767Y4125
X14767Y4125
X13767Y4125
X12767Y4125
X11767Y4125
X10767Y4125
X9767Y4125
X8767Y4125
X7767Y4125
X7767Y5125
X8767Y5125
X9767Y5125
X10767Y5125
X11767Y5125
X12767Y5125
X13767Y5125
X14767Y5125
X15767Y5125
X16767Y5125
T05
X145517Y4375
X148767Y4375
T06
X49057Y4415
X35477Y4415
X19057Y4415
X5477Y4415
X6977Y31085
X20557Y31085
X27477Y31085
X41057Y31085
X49977Y31085
X63557Y31085
X70477Y31085
X84057Y31085
X92977Y31085
X106557Y31085
X113477Y31085
X127057Y31085
X135977Y31085
X149557Y31085
X156477Y31085
X170057Y31085
T07
X1767Y4125
X60767Y4125
X88517Y4125
X131767Y4125
X173767Y4125
X173767Y31625
X131767Y31625
X88517Y31625
X45517Y31625
X1767Y31625
M30
