G75*
G70*
%OFA0B0*%
%FSLAX24Y24*%
%IPPOS*%
%LPD*%
%AMOC8*
5,1,8,0,0,1.08239X$1,22.5*
%
%ADD10C,0.1340*%
%ADD11R,0.1580X0.1580*%
%ADD12C,0.0595*%
%ADD13C,0.0556*%
%ADD14R,0.0730X0.0730*%
%ADD15C,0.0730*%
%ADD16C,0.1240*%
D10*
X001767Y004125D03*
X060767Y004125D03*
X088517Y004125D03*
X131767Y004125D03*
X173767Y004125D03*
X173767Y031625D03*
X131767Y031625D03*
X088517Y031625D03*
X045517Y031625D03*
X001767Y031625D03*
D11*
X145517Y004375D03*
X148767Y004375D03*
D12*
X142017Y004625D03*
X141017Y004625D03*
X140767Y006625D03*
X142767Y006625D03*
X147267Y007875D03*
X149267Y007875D03*
X150267Y007875D03*
X152267Y007875D03*
X153517Y007875D03*
X155517Y007875D03*
X156767Y007875D03*
X158767Y007875D03*
X160017Y007875D03*
X162017Y007875D03*
X163017Y007875D03*
X165017Y007875D03*
X166017Y007875D03*
X168017Y007875D03*
X169017Y007875D03*
X171017Y007875D03*
X171017Y008875D03*
X169017Y008875D03*
X168017Y008875D03*
X166017Y008875D03*
X165017Y008875D03*
X165017Y009875D03*
X166017Y009875D03*
X168017Y009875D03*
X169017Y009875D03*
X171017Y009875D03*
X163017Y009875D03*
X162017Y009875D03*
X160017Y009875D03*
X158767Y009875D03*
X156767Y009875D03*
X155517Y009875D03*
X153517Y009875D03*
X152267Y009875D03*
X150267Y009875D03*
X149267Y009875D03*
X149267Y008875D03*
X150267Y008875D03*
X152267Y008875D03*
X153517Y008875D03*
X155517Y008875D03*
X156767Y008875D03*
X158767Y008875D03*
X160017Y008875D03*
X162017Y008875D03*
X163017Y008875D03*
X147267Y008875D03*
X147267Y009875D03*
X113017Y008625D03*
X111017Y008625D03*
X109267Y008625D03*
X107267Y008625D03*
X105267Y008625D03*
X103267Y008625D03*
X101267Y008625D03*
X099267Y008625D03*
X097767Y008375D03*
X095767Y008375D03*
X092267Y009125D03*
X092267Y007125D03*
X092267Y006375D03*
X092267Y004375D03*
X057767Y005125D03*
X055767Y005125D03*
X055767Y007625D03*
X057767Y007625D03*
X018267Y016125D03*
X016267Y016125D03*
X014517Y016375D03*
X012517Y016375D03*
X011517Y016375D03*
X009517Y016375D03*
X008517Y016375D03*
X006517Y016375D03*
X005517Y016375D03*
X003517Y016375D03*
X003517Y015625D03*
X005517Y015625D03*
X006517Y015625D03*
X008517Y015625D03*
X009517Y015625D03*
X011517Y015625D03*
X012517Y015625D03*
X014517Y015625D03*
X014517Y012625D03*
X012517Y012625D03*
X011517Y012625D03*
X009517Y012625D03*
X008517Y012625D03*
X006517Y012625D03*
X005517Y012625D03*
X003517Y012625D03*
X003517Y011875D03*
X005517Y011875D03*
X006517Y011875D03*
X008517Y011875D03*
X009517Y011875D03*
X011517Y011875D03*
X012517Y011875D03*
X014517Y011875D03*
X014267Y011125D03*
X012767Y011125D03*
X011267Y011125D03*
X009767Y011125D03*
X008267Y011125D03*
X006767Y011125D03*
X005267Y011125D03*
X003767Y011125D03*
X003767Y010125D03*
X005267Y010125D03*
X006767Y010125D03*
X008267Y010125D03*
X009767Y010125D03*
X011267Y010125D03*
X012767Y010125D03*
X014267Y010125D03*
X013767Y019625D03*
X011267Y019625D03*
X008767Y019625D03*
X006267Y019625D03*
X003767Y019625D03*
X001267Y019625D03*
X001267Y021625D03*
X003767Y021625D03*
X006267Y021625D03*
X008767Y021625D03*
X011267Y021625D03*
X013767Y021625D03*
X016267Y021625D03*
X018767Y021625D03*
X021767Y020625D03*
X023767Y020625D03*
X024767Y020625D03*
X026767Y020625D03*
X028017Y021625D03*
X028017Y022625D03*
X018767Y022625D03*
X016267Y022625D03*
X013767Y022625D03*
X011267Y022625D03*
X008767Y022625D03*
X006267Y022625D03*
X003767Y022625D03*
X001267Y022625D03*
X001267Y024625D03*
X003767Y024625D03*
X006267Y024625D03*
X008767Y024625D03*
X011267Y024625D03*
X013767Y024625D03*
X016267Y024625D03*
X018767Y024625D03*
X018767Y025625D03*
X016267Y025625D03*
X013767Y025625D03*
X011267Y025625D03*
X008767Y025625D03*
X006267Y025625D03*
X003767Y025625D03*
X001267Y025625D03*
X002267Y027125D03*
X001267Y027625D03*
X002267Y028125D03*
X004767Y028125D03*
X003767Y027625D03*
X004767Y027125D03*
X006267Y027625D03*
X007267Y027125D03*
X008767Y027625D03*
X009767Y027125D03*
X011267Y027625D03*
X012267Y027125D03*
X013767Y027625D03*
X014767Y027125D03*
X016267Y027625D03*
X017267Y027125D03*
X018767Y027625D03*
X019767Y027125D03*
X021767Y026875D03*
X023767Y026875D03*
X024767Y026875D03*
X026767Y026875D03*
X029517Y027125D03*
X030517Y026875D03*
X032517Y026875D03*
X033517Y026875D03*
X035517Y026875D03*
X036517Y026875D03*
X038517Y026875D03*
X039517Y026875D03*
X041517Y026875D03*
X044267Y027625D03*
X045267Y027125D03*
X046767Y027625D03*
X047767Y027125D03*
X049267Y027625D03*
X050267Y027125D03*
X051767Y027625D03*
X052767Y027125D03*
X054267Y027625D03*
X055267Y027125D03*
X056767Y027625D03*
X057767Y027125D03*
X059267Y027625D03*
X060267Y027125D03*
X061767Y027625D03*
X062767Y027125D03*
X064767Y026875D03*
X066767Y026875D03*
X067767Y026875D03*
X069767Y026875D03*
X072517Y027125D03*
X073517Y026875D03*
X075517Y026875D03*
X076517Y026875D03*
X078517Y026875D03*
X079517Y026875D03*
X081517Y026875D03*
X082517Y026875D03*
X084517Y026875D03*
X085517Y026125D03*
X084517Y025875D03*
X082517Y025875D03*
X081517Y025875D03*
X079517Y025875D03*
X078517Y025875D03*
X076517Y025875D03*
X075517Y025875D03*
X073517Y025875D03*
X072517Y025125D03*
X071017Y024625D03*
X069767Y025875D03*
X067767Y025875D03*
X066767Y025875D03*
X064767Y025875D03*
X061767Y025625D03*
X059267Y025625D03*
X056767Y025625D03*
X054267Y025625D03*
X051767Y025625D03*
X049267Y025625D03*
X046767Y025625D03*
X044267Y025625D03*
X042517Y025625D03*
X041517Y025875D03*
X039517Y025875D03*
X038517Y025875D03*
X036517Y025875D03*
X035517Y025875D03*
X033517Y025875D03*
X032517Y025875D03*
X030517Y025875D03*
X029517Y025125D03*
X028017Y024625D03*
X026767Y025875D03*
X024767Y025875D03*
X023767Y025875D03*
X021767Y025875D03*
X019767Y028125D03*
X017267Y028125D03*
X014767Y028125D03*
X012267Y028125D03*
X009767Y028125D03*
X007267Y028125D03*
X042517Y023625D03*
X044267Y022625D03*
X046767Y022625D03*
X049267Y022625D03*
X051767Y022625D03*
X054267Y022625D03*
X056767Y022625D03*
X059267Y022625D03*
X061767Y022625D03*
X061767Y021625D03*
X059267Y021625D03*
X056767Y021625D03*
X054267Y021625D03*
X051767Y021625D03*
X049267Y021625D03*
X046767Y021625D03*
X044267Y021625D03*
X041517Y020375D03*
X039517Y020375D03*
X038517Y020375D03*
X036517Y020375D03*
X035517Y020375D03*
X033517Y020375D03*
X032517Y020375D03*
X030517Y020375D03*
X030517Y019625D03*
X032517Y019625D03*
X033517Y019625D03*
X035517Y019625D03*
X036517Y019625D03*
X038517Y019625D03*
X039517Y019625D03*
X041517Y019625D03*
X044267Y019625D03*
X046767Y019625D03*
X049267Y019625D03*
X051767Y019625D03*
X054267Y019625D03*
X056767Y019625D03*
X059267Y019625D03*
X061767Y019625D03*
X064767Y019875D03*
X066767Y019875D03*
X067767Y019875D03*
X069767Y019875D03*
X071017Y019625D03*
X073517Y019625D03*
X073517Y020375D03*
X075517Y020375D03*
X076517Y020375D03*
X078517Y020375D03*
X079517Y020375D03*
X081517Y020375D03*
X082517Y020375D03*
X084517Y020375D03*
X084517Y019625D03*
X082517Y019625D03*
X081517Y019625D03*
X079517Y019625D03*
X078517Y019625D03*
X076517Y019625D03*
X075517Y019625D03*
X069767Y020625D03*
X067767Y020625D03*
X066767Y020625D03*
X064767Y020625D03*
X071017Y021625D03*
X071017Y022625D03*
X061767Y024625D03*
X059267Y024625D03*
X056767Y024625D03*
X054267Y024625D03*
X051767Y024625D03*
X049267Y024625D03*
X046767Y024625D03*
X044267Y024625D03*
X045267Y028125D03*
X047767Y028125D03*
X050267Y028125D03*
X052767Y028125D03*
X055267Y028125D03*
X057767Y028125D03*
X060267Y028125D03*
X062767Y028125D03*
X085517Y024125D03*
X087267Y024625D03*
X089767Y024625D03*
X092267Y024625D03*
X094767Y024625D03*
X097267Y024625D03*
X099767Y024625D03*
X102267Y024625D03*
X104767Y024625D03*
X104767Y025625D03*
X102267Y025625D03*
X099767Y025625D03*
X097267Y025625D03*
X094767Y025625D03*
X092267Y025625D03*
X089767Y025625D03*
X087267Y025625D03*
X088267Y027125D03*
X087267Y027625D03*
X088267Y028125D03*
X090767Y028125D03*
X089767Y027625D03*
X090767Y027125D03*
X092267Y027625D03*
X093267Y027125D03*
X094767Y027625D03*
X095767Y027125D03*
X097267Y027625D03*
X098267Y027125D03*
X099767Y027625D03*
X100767Y027125D03*
X102267Y027625D03*
X103267Y027125D03*
X104767Y027625D03*
X105767Y027125D03*
X107767Y026875D03*
X109767Y026875D03*
X110767Y026875D03*
X112767Y026875D03*
X115517Y027125D03*
X116517Y026875D03*
X118517Y026875D03*
X119517Y026875D03*
X121517Y026875D03*
X122517Y026875D03*
X124517Y026875D03*
X125517Y026875D03*
X127517Y026875D03*
X130267Y027625D03*
X131267Y027125D03*
X132767Y027625D03*
X133767Y027125D03*
X135267Y027625D03*
X136267Y027125D03*
X137767Y027625D03*
X138767Y027125D03*
X140267Y027625D03*
X141267Y027125D03*
X142767Y027625D03*
X143767Y027125D03*
X145267Y027625D03*
X146267Y027125D03*
X147767Y027625D03*
X148767Y027125D03*
X150767Y026875D03*
X152767Y026875D03*
X153767Y026875D03*
X155767Y026875D03*
X158517Y027125D03*
X159517Y026875D03*
X161517Y026875D03*
X162517Y026875D03*
X164517Y026875D03*
X165517Y026875D03*
X167517Y026875D03*
X168517Y026875D03*
X170517Y026875D03*
X172517Y026375D03*
X170517Y025875D03*
X168517Y025875D03*
X167517Y025875D03*
X165517Y025875D03*
X164517Y025875D03*
X162517Y025875D03*
X161517Y025875D03*
X159517Y025875D03*
X158517Y025125D03*
X157017Y024625D03*
X155767Y025875D03*
X153767Y025875D03*
X152767Y025875D03*
X150767Y025875D03*
X147767Y025625D03*
X145267Y025625D03*
X142767Y025625D03*
X140267Y025625D03*
X137767Y025625D03*
X135267Y025625D03*
X132767Y025625D03*
X130267Y025625D03*
X128767Y025125D03*
X130267Y024625D03*
X132767Y024625D03*
X135267Y024625D03*
X137767Y024625D03*
X140267Y024625D03*
X142767Y024625D03*
X145267Y024625D03*
X147767Y024625D03*
X147767Y022625D03*
X147767Y021875D03*
X145267Y021875D03*
X142767Y021625D03*
X140267Y021625D03*
X137767Y021625D03*
X135267Y021625D03*
X132767Y021625D03*
X130267Y021625D03*
X130267Y022625D03*
X132767Y022625D03*
X135267Y022625D03*
X137767Y022625D03*
X140267Y022625D03*
X142767Y022625D03*
X145267Y022625D03*
X150767Y020375D03*
X150767Y019625D03*
X147767Y019875D03*
X145267Y019875D03*
X142767Y019625D03*
X140267Y019625D03*
X137767Y019625D03*
X135267Y019625D03*
X132767Y019625D03*
X130267Y019625D03*
X127517Y019625D03*
X125517Y019625D03*
X124517Y019625D03*
X122517Y019625D03*
X121517Y019625D03*
X119517Y019625D03*
X118517Y019625D03*
X116517Y019625D03*
X114017Y019625D03*
X112767Y019875D03*
X110767Y019875D03*
X109767Y019875D03*
X107767Y019875D03*
X104767Y019625D03*
X102267Y019625D03*
X099767Y019625D03*
X097267Y019625D03*
X094767Y019625D03*
X092267Y019625D03*
X089767Y019625D03*
X087267Y019625D03*
X087267Y021625D03*
X089767Y021625D03*
X092267Y021625D03*
X094767Y021625D03*
X097267Y021625D03*
X099767Y021625D03*
X102267Y021625D03*
X104767Y021625D03*
X107767Y020625D03*
X109767Y020625D03*
X110767Y020625D03*
X112767Y020625D03*
X114017Y021625D03*
X114017Y022625D03*
X114017Y024625D03*
X115517Y025125D03*
X116517Y025875D03*
X118517Y025875D03*
X119517Y025875D03*
X121517Y025875D03*
X122517Y025875D03*
X124517Y025875D03*
X125517Y025875D03*
X127517Y025875D03*
X128767Y023125D03*
X127517Y020375D03*
X125517Y020375D03*
X124517Y020375D03*
X122517Y020375D03*
X121517Y020375D03*
X119517Y020375D03*
X118517Y020375D03*
X116517Y020375D03*
X104767Y022625D03*
X102267Y022625D03*
X099767Y022625D03*
X097267Y022625D03*
X094767Y022625D03*
X092267Y022625D03*
X089767Y022625D03*
X087267Y022625D03*
X107767Y025875D03*
X109767Y025875D03*
X110767Y025875D03*
X112767Y025875D03*
X105767Y028125D03*
X103267Y028125D03*
X100767Y028125D03*
X098267Y028125D03*
X095767Y028125D03*
X093267Y028125D03*
X131267Y028125D03*
X133767Y028125D03*
X136267Y028125D03*
X138767Y028125D03*
X141267Y028125D03*
X143767Y028125D03*
X146267Y028125D03*
X148767Y028125D03*
X172517Y024375D03*
X157017Y022625D03*
X157017Y021625D03*
X155767Y020375D03*
X153767Y020375D03*
X152767Y020375D03*
X152767Y019625D03*
X153767Y019625D03*
X155767Y019625D03*
X157017Y019625D03*
X159517Y019625D03*
X159517Y020375D03*
X161517Y020375D03*
X162517Y020375D03*
X164517Y020375D03*
X165517Y020375D03*
X167517Y020375D03*
X168517Y020375D03*
X170517Y020375D03*
X170517Y019625D03*
X168517Y019625D03*
X167517Y019625D03*
X165517Y019625D03*
X164517Y019625D03*
X162517Y019625D03*
X161517Y019625D03*
X028017Y019625D03*
X026767Y019875D03*
X024767Y019875D03*
X023767Y019875D03*
X021767Y019875D03*
X018767Y019625D03*
X016267Y019625D03*
D13*
X015267Y020375D03*
X014767Y020875D03*
X012767Y020375D03*
X012267Y020875D03*
X010267Y020375D03*
X009767Y020875D03*
X007767Y020375D03*
X007267Y020875D03*
X005267Y020375D03*
X004767Y020875D03*
X002767Y020375D03*
X002267Y020875D03*
X002767Y021375D03*
X005267Y021375D03*
X007767Y021375D03*
X010267Y021375D03*
X012767Y021375D03*
X015267Y021375D03*
X017267Y020875D03*
X017767Y020375D03*
X019767Y020875D03*
X020267Y020375D03*
X020267Y021375D03*
X022267Y021625D03*
X023767Y021625D03*
X025267Y021625D03*
X026767Y021625D03*
X029517Y021375D03*
X031017Y021625D03*
X032517Y021625D03*
X034017Y021625D03*
X035517Y021625D03*
X037017Y021625D03*
X038517Y021625D03*
X040017Y021625D03*
X041517Y021625D03*
X042017Y022125D03*
X041517Y022625D03*
X040517Y022125D03*
X040017Y022625D03*
X039017Y022125D03*
X038517Y022625D03*
X037517Y022125D03*
X037017Y022625D03*
X036017Y022125D03*
X035517Y022625D03*
X034517Y022125D03*
X034017Y022625D03*
X033017Y022125D03*
X032517Y022625D03*
X031517Y022125D03*
X031017Y022625D03*
X029017Y023125D03*
X029517Y023625D03*
X029017Y024125D03*
X030517Y024125D03*
X031017Y023625D03*
X032017Y024125D03*
X032517Y023625D03*
X033517Y024125D03*
X034017Y023625D03*
X035017Y024125D03*
X035517Y023625D03*
X036517Y024125D03*
X037017Y023625D03*
X038017Y024125D03*
X038517Y023625D03*
X039517Y024125D03*
X040017Y023625D03*
X041017Y024125D03*
X041517Y023625D03*
X045267Y023625D03*
X045767Y023125D03*
X047767Y023625D03*
X048267Y023125D03*
X050267Y023625D03*
X050767Y023125D03*
X050267Y022625D03*
X047767Y022625D03*
X045267Y022625D03*
X045767Y021375D03*
X048267Y021375D03*
X050767Y021375D03*
X050267Y020875D03*
X050767Y020375D03*
X048267Y020375D03*
X047767Y020875D03*
X045767Y020375D03*
X045267Y020875D03*
X052767Y020875D03*
X053267Y020375D03*
X055267Y020875D03*
X055767Y020375D03*
X057767Y020875D03*
X058267Y020375D03*
X060267Y020875D03*
X060767Y020375D03*
X062767Y020875D03*
X063267Y020375D03*
X063267Y021375D03*
X065267Y021625D03*
X066767Y021625D03*
X068267Y021625D03*
X069767Y021625D03*
X070267Y022125D03*
X069767Y022625D03*
X068767Y022125D03*
X068267Y022625D03*
X067267Y022125D03*
X066767Y022625D03*
X065767Y022125D03*
X065267Y022625D03*
X063267Y023125D03*
X062767Y023625D03*
X064767Y024125D03*
X065267Y023625D03*
X066267Y024125D03*
X066767Y023625D03*
X067767Y024125D03*
X068267Y023625D03*
X069267Y024125D03*
X069767Y023625D03*
X072017Y023125D03*
X072517Y023625D03*
X072017Y024125D03*
X073517Y024125D03*
X074017Y023625D03*
X075017Y024125D03*
X075517Y023625D03*
X076517Y024125D03*
X077017Y023625D03*
X078017Y024125D03*
X078517Y023625D03*
X079517Y024125D03*
X080017Y023625D03*
X081017Y024125D03*
X081517Y023625D03*
X082517Y024125D03*
X083017Y023625D03*
X084017Y024125D03*
X084517Y023625D03*
X088267Y023625D03*
X088767Y023125D03*
X090767Y023625D03*
X091267Y023125D03*
X093267Y023625D03*
X093767Y023125D03*
X095767Y023625D03*
X096267Y023125D03*
X095767Y022625D03*
X093267Y022625D03*
X090767Y022625D03*
X088267Y022625D03*
X085017Y022125D03*
X084517Y022625D03*
X083517Y022125D03*
X083017Y022625D03*
X082017Y022125D03*
X081517Y022625D03*
X080517Y022125D03*
X080017Y022625D03*
X079017Y022125D03*
X078517Y022625D03*
X077517Y022125D03*
X077017Y022625D03*
X076017Y022125D03*
X075517Y022625D03*
X074517Y022125D03*
X074017Y022625D03*
X074017Y021625D03*
X075517Y021625D03*
X077017Y021625D03*
X078517Y021625D03*
X080017Y021625D03*
X081517Y021625D03*
X083017Y021625D03*
X084517Y021625D03*
X088267Y020875D03*
X088767Y020375D03*
X090767Y020875D03*
X091267Y020375D03*
X093267Y020875D03*
X093767Y020375D03*
X095767Y020875D03*
X096267Y020375D03*
X098267Y020875D03*
X098767Y020375D03*
X100767Y020875D03*
X101267Y020375D03*
X103267Y020875D03*
X103767Y020375D03*
X105767Y020625D03*
X106267Y021125D03*
X108267Y021625D03*
X109767Y021625D03*
X111267Y021625D03*
X112767Y021625D03*
X115517Y021375D03*
X117017Y021625D03*
X118517Y021625D03*
X120017Y021625D03*
X121517Y021625D03*
X123017Y021625D03*
X124517Y021625D03*
X126017Y021625D03*
X127517Y021625D03*
X128017Y022125D03*
X127517Y022625D03*
X126517Y022125D03*
X126017Y022625D03*
X125017Y022125D03*
X124517Y022625D03*
X123517Y022125D03*
X123017Y022625D03*
X122017Y022125D03*
X121517Y022625D03*
X120517Y022125D03*
X120017Y022625D03*
X119017Y022125D03*
X118517Y022625D03*
X117517Y022125D03*
X117017Y022625D03*
X115017Y023125D03*
X115517Y023625D03*
X115017Y024125D03*
X116517Y024125D03*
X117017Y023625D03*
X118017Y024125D03*
X118517Y023625D03*
X119517Y024125D03*
X120017Y023625D03*
X121017Y024125D03*
X121517Y023625D03*
X122517Y024125D03*
X123017Y023625D03*
X124017Y024125D03*
X124517Y023625D03*
X125517Y024125D03*
X126017Y023625D03*
X127017Y024125D03*
X127517Y023625D03*
X131267Y023625D03*
X131767Y023125D03*
X133767Y023625D03*
X134267Y023125D03*
X136267Y023625D03*
X136767Y023125D03*
X136267Y022625D03*
X133767Y022625D03*
X131267Y022625D03*
X131767Y021375D03*
X134267Y021375D03*
X136767Y021375D03*
X136267Y020875D03*
X136767Y020375D03*
X134267Y020375D03*
X133767Y020875D03*
X131767Y020375D03*
X131267Y020875D03*
X138767Y020875D03*
X139267Y020375D03*
X141267Y020875D03*
X141767Y020375D03*
X143767Y020875D03*
X144267Y020375D03*
X146267Y020875D03*
X146767Y020375D03*
X148767Y020875D03*
X149267Y020375D03*
X149267Y021375D03*
X151267Y021625D03*
X152767Y021625D03*
X154267Y021625D03*
X155767Y021625D03*
X156267Y022125D03*
X155767Y022625D03*
X154767Y022125D03*
X154267Y022625D03*
X153267Y022125D03*
X152767Y022625D03*
X151767Y022125D03*
X151267Y022625D03*
X149267Y023125D03*
X148767Y023625D03*
X150767Y024125D03*
X151267Y023625D03*
X152267Y024125D03*
X152767Y023625D03*
X153767Y024125D03*
X154267Y023625D03*
X155267Y024125D03*
X155767Y023625D03*
X158017Y023125D03*
X158517Y023625D03*
X158017Y024125D03*
X159517Y024125D03*
X160017Y023625D03*
X161017Y024125D03*
X161517Y023625D03*
X162517Y024125D03*
X163017Y023625D03*
X164017Y024125D03*
X164517Y023625D03*
X165517Y024125D03*
X166017Y023625D03*
X167017Y024125D03*
X167517Y023625D03*
X168517Y024125D03*
X169017Y023625D03*
X170017Y024125D03*
X170517Y023625D03*
X170517Y022625D03*
X171017Y022125D03*
X169517Y022125D03*
X169017Y022625D03*
X168017Y022125D03*
X167517Y022625D03*
X166517Y022125D03*
X166017Y022625D03*
X165017Y022125D03*
X164517Y022625D03*
X163517Y022125D03*
X163017Y022625D03*
X162017Y022125D03*
X161517Y022625D03*
X160517Y022125D03*
X160017Y022625D03*
X160017Y021625D03*
X161517Y021625D03*
X163017Y021625D03*
X164517Y021625D03*
X166017Y021625D03*
X167517Y021625D03*
X169017Y021625D03*
X170517Y021625D03*
X158517Y021375D03*
X158017Y020875D03*
X158517Y020375D03*
X148767Y022625D03*
X146267Y022625D03*
X146767Y023125D03*
X146267Y023625D03*
X144267Y023125D03*
X143767Y023625D03*
X141767Y023125D03*
X141267Y023625D03*
X139267Y023125D03*
X138767Y023625D03*
X138767Y022625D03*
X141267Y022625D03*
X143767Y022625D03*
X144267Y021375D03*
X146767Y021375D03*
X141767Y021375D03*
X139267Y021375D03*
X127517Y024625D03*
X126017Y024625D03*
X124517Y024625D03*
X123017Y024625D03*
X121517Y024625D03*
X120017Y024625D03*
X118517Y024625D03*
X117017Y024625D03*
X112767Y024625D03*
X111267Y024625D03*
X109767Y024625D03*
X108267Y024625D03*
X105767Y024875D03*
X106267Y025375D03*
X105767Y025875D03*
X103767Y025375D03*
X103267Y024875D03*
X101267Y025375D03*
X100767Y024875D03*
X098767Y025375D03*
X098267Y024875D03*
X098267Y025875D03*
X100767Y025875D03*
X103267Y025875D03*
X096267Y025375D03*
X095767Y024875D03*
X093767Y025375D03*
X093267Y024875D03*
X091267Y025375D03*
X090767Y024875D03*
X088767Y025375D03*
X088267Y024875D03*
X088267Y025875D03*
X090767Y025875D03*
X093267Y025875D03*
X095767Y025875D03*
X098267Y023625D03*
X098767Y023125D03*
X100767Y023625D03*
X101267Y023125D03*
X103267Y023625D03*
X103767Y023125D03*
X105767Y023625D03*
X106267Y023125D03*
X108267Y023625D03*
X107767Y024125D03*
X109267Y024125D03*
X109767Y023625D03*
X110767Y024125D03*
X111267Y023625D03*
X112267Y024125D03*
X112767Y023625D03*
X112767Y022625D03*
X113267Y022125D03*
X111767Y022125D03*
X111267Y022625D03*
X110267Y022125D03*
X109767Y022625D03*
X108767Y022125D03*
X108267Y022625D03*
X105767Y022625D03*
X103267Y022625D03*
X100767Y022625D03*
X098267Y022625D03*
X098767Y021375D03*
X101267Y021375D03*
X103767Y021375D03*
X106267Y020125D03*
X115017Y020875D03*
X115517Y020375D03*
X096267Y021375D03*
X093767Y021375D03*
X091267Y021375D03*
X088767Y021375D03*
X084517Y024625D03*
X083017Y024625D03*
X081517Y024625D03*
X080017Y024625D03*
X078517Y024625D03*
X077017Y024625D03*
X075517Y024625D03*
X074017Y024625D03*
X071517Y025625D03*
X071017Y026125D03*
X071517Y026625D03*
X063267Y025375D03*
X062767Y024875D03*
X060767Y025375D03*
X060267Y024875D03*
X058267Y025375D03*
X057767Y024875D03*
X055767Y025375D03*
X055267Y024875D03*
X053267Y025375D03*
X052767Y024875D03*
X052767Y025875D03*
X055267Y025875D03*
X057767Y025875D03*
X060267Y025875D03*
X062767Y025875D03*
X065267Y024625D03*
X066767Y024625D03*
X068267Y024625D03*
X069767Y024625D03*
X060767Y023125D03*
X060267Y023625D03*
X058267Y023125D03*
X057767Y023625D03*
X055767Y023125D03*
X055267Y023625D03*
X053267Y023125D03*
X052767Y023625D03*
X052767Y022625D03*
X055267Y022625D03*
X057767Y022625D03*
X060267Y022625D03*
X062767Y022625D03*
X060767Y021375D03*
X058267Y021375D03*
X055767Y021375D03*
X053267Y021375D03*
X041517Y024625D03*
X040017Y024625D03*
X038517Y024625D03*
X037017Y024625D03*
X035517Y024625D03*
X034017Y024625D03*
X032517Y024625D03*
X031017Y024625D03*
X026767Y024625D03*
X025267Y024625D03*
X023767Y024625D03*
X022267Y024625D03*
X019767Y024875D03*
X020267Y025375D03*
X019767Y025875D03*
X017767Y025375D03*
X017267Y024875D03*
X015267Y025375D03*
X014767Y024875D03*
X012767Y025375D03*
X012267Y024875D03*
X010267Y025375D03*
X009767Y024875D03*
X007767Y025375D03*
X007267Y024875D03*
X005267Y025375D03*
X004767Y024875D03*
X002767Y025375D03*
X002267Y024875D03*
X002267Y025875D03*
X004767Y025875D03*
X007267Y025875D03*
X009767Y025875D03*
X012267Y025875D03*
X014767Y025875D03*
X017267Y025875D03*
X021767Y024125D03*
X022267Y023625D03*
X023267Y024125D03*
X023767Y023625D03*
X024767Y024125D03*
X025267Y023625D03*
X026267Y024125D03*
X026767Y023625D03*
X026767Y022625D03*
X027267Y022125D03*
X025767Y022125D03*
X025267Y022625D03*
X024267Y022125D03*
X023767Y022625D03*
X022767Y022125D03*
X022267Y022625D03*
X019767Y022625D03*
X020267Y023125D03*
X019767Y023625D03*
X017767Y023125D03*
X017267Y023625D03*
X015267Y023125D03*
X014767Y023625D03*
X012767Y023125D03*
X012267Y023625D03*
X010267Y023125D03*
X009767Y023625D03*
X007767Y023125D03*
X007267Y023625D03*
X005267Y023125D03*
X004767Y023625D03*
X002767Y023125D03*
X002267Y023625D03*
X002267Y022625D03*
X004767Y022625D03*
X007267Y022625D03*
X009767Y022625D03*
X012267Y022625D03*
X014767Y022625D03*
X017267Y022625D03*
X017767Y021375D03*
X029017Y020875D03*
X029517Y020375D03*
X045267Y024875D03*
X045767Y025375D03*
X045267Y025875D03*
X047767Y025875D03*
X048267Y025375D03*
X047767Y024875D03*
X050267Y024875D03*
X050767Y025375D03*
X050267Y025875D03*
X028517Y025625D03*
X028017Y026125D03*
X028517Y026625D03*
X072017Y020875D03*
X072517Y020375D03*
X072517Y021375D03*
X114017Y026125D03*
X114517Y025625D03*
X114517Y026625D03*
X131267Y025875D03*
X131767Y025375D03*
X131267Y024875D03*
X133767Y024875D03*
X134267Y025375D03*
X133767Y025875D03*
X136267Y025875D03*
X136767Y025375D03*
X136267Y024875D03*
X138767Y024875D03*
X139267Y025375D03*
X138767Y025875D03*
X141267Y025875D03*
X141767Y025375D03*
X141267Y024875D03*
X143767Y024875D03*
X144267Y025375D03*
X143767Y025875D03*
X146267Y025875D03*
X146767Y025375D03*
X146267Y024875D03*
X148767Y024875D03*
X149267Y025375D03*
X148767Y025875D03*
X151267Y024625D03*
X152767Y024625D03*
X154267Y024625D03*
X155767Y024625D03*
X157517Y025625D03*
X157017Y026125D03*
X157517Y026625D03*
X160017Y024625D03*
X161517Y024625D03*
X163017Y024625D03*
X164517Y024625D03*
X166017Y024625D03*
X167517Y024625D03*
X169017Y024625D03*
X170517Y024625D03*
X093267Y008375D03*
X093767Y007875D03*
X093267Y007375D03*
X099267Y007625D03*
X099767Y007125D03*
X100267Y007625D03*
X103267Y007625D03*
X103767Y007125D03*
X104267Y007625D03*
X107267Y007625D03*
X107767Y007125D03*
X108267Y007625D03*
X111017Y007625D03*
X111517Y007125D03*
X112017Y007625D03*
X111517Y006125D03*
X112017Y005625D03*
X111017Y005625D03*
X111017Y004625D03*
X112017Y004625D03*
X111517Y004125D03*
X108267Y004625D03*
X107267Y004625D03*
X107767Y004125D03*
X104267Y004625D03*
X103267Y004625D03*
X100267Y004625D03*
X099267Y004625D03*
X099767Y004125D03*
X103767Y004125D03*
X104267Y005625D03*
X103267Y005625D03*
X100267Y005625D03*
X099267Y005625D03*
X099767Y006125D03*
X103767Y006125D03*
X107267Y005625D03*
X108267Y005625D03*
X107767Y006125D03*
X093767Y005375D03*
X093267Y005875D03*
X093267Y004875D03*
X054767Y005125D03*
X054267Y004625D03*
X054767Y004125D03*
X054767Y006625D03*
X054267Y007125D03*
X054767Y007625D03*
X049767Y007125D03*
X049267Y007625D03*
X049767Y008125D03*
X048267Y008125D03*
X047767Y007625D03*
X048267Y007125D03*
X046767Y007125D03*
X046267Y007625D03*
X046767Y008125D03*
X045267Y008125D03*
X044767Y007625D03*
X045267Y007125D03*
X043767Y007125D03*
X043267Y007625D03*
X043767Y008125D03*
X042267Y008125D03*
X041767Y007625D03*
X042267Y007125D03*
X040767Y007375D03*
X039267Y007375D03*
X037767Y007375D03*
X036267Y007375D03*
X034767Y007375D03*
X033267Y007375D03*
X031767Y007375D03*
X030267Y007375D03*
X028767Y007375D03*
X027267Y007375D03*
X026767Y007875D03*
X027267Y008375D03*
X028267Y007875D03*
X028767Y008375D03*
X029767Y007875D03*
X030267Y008375D03*
X031267Y007875D03*
X031767Y008375D03*
X032767Y007875D03*
X033267Y008375D03*
X034267Y007875D03*
X034767Y008375D03*
X035767Y007875D03*
X036267Y008375D03*
X037267Y007875D03*
X037767Y008375D03*
X038767Y007875D03*
X039267Y008375D03*
X040267Y007875D03*
X040767Y008375D03*
X027017Y011625D03*
X025517Y011625D03*
X024017Y011625D03*
X022517Y011625D03*
X021017Y011625D03*
X019517Y011625D03*
X018017Y011625D03*
X016517Y011625D03*
X016017Y012125D03*
X016517Y012625D03*
X017517Y012125D03*
X018017Y012625D03*
X019017Y012125D03*
X019517Y012625D03*
X020517Y012125D03*
X021017Y012625D03*
X022017Y012125D03*
X022517Y012625D03*
X023517Y012125D03*
X024017Y012625D03*
X025017Y012125D03*
X025517Y012625D03*
X026517Y012125D03*
X027017Y012625D03*
X014517Y013625D03*
X014017Y014125D03*
X013017Y013625D03*
X012517Y014125D03*
X011517Y013625D03*
X011017Y014125D03*
X010017Y013625D03*
X009517Y014125D03*
X008517Y013625D03*
X008017Y014125D03*
X007017Y013625D03*
X006517Y014125D03*
X005517Y013625D03*
X005017Y014125D03*
X004017Y013625D03*
X003517Y014125D03*
X004017Y014625D03*
X005517Y014625D03*
X007017Y014625D03*
X008517Y014625D03*
X010017Y014625D03*
X011517Y014625D03*
X013017Y014625D03*
X014517Y014625D03*
D14*
X016767Y005125D03*
X046767Y005125D03*
X071017Y007625D03*
X077517Y005125D03*
X072767Y030375D03*
X052267Y030375D03*
X029767Y030375D03*
X009267Y030375D03*
X095267Y030375D03*
X115767Y030375D03*
X138267Y030375D03*
X158767Y030375D03*
D15*
X159767Y030375D03*
X160767Y030375D03*
X161767Y030375D03*
X162767Y030375D03*
X163767Y030375D03*
X164767Y030375D03*
X165767Y030375D03*
X166767Y030375D03*
X167767Y030375D03*
X167767Y031375D03*
X166767Y031375D03*
X165767Y031375D03*
X164767Y031375D03*
X163767Y031375D03*
X162767Y031375D03*
X161767Y031375D03*
X160767Y031375D03*
X159767Y031375D03*
X158767Y031375D03*
X147267Y031375D03*
X146267Y031375D03*
X145267Y031375D03*
X144267Y031375D03*
X143267Y031375D03*
X142267Y031375D03*
X141267Y031375D03*
X140267Y031375D03*
X139267Y031375D03*
X138267Y031375D03*
X139267Y030375D03*
X140267Y030375D03*
X141267Y030375D03*
X142267Y030375D03*
X143267Y030375D03*
X144267Y030375D03*
X145267Y030375D03*
X146267Y030375D03*
X147267Y030375D03*
X124767Y030375D03*
X123767Y030375D03*
X122767Y030375D03*
X121767Y030375D03*
X120767Y030375D03*
X119767Y030375D03*
X118767Y030375D03*
X117767Y030375D03*
X116767Y030375D03*
X116767Y031375D03*
X117767Y031375D03*
X118767Y031375D03*
X119767Y031375D03*
X120767Y031375D03*
X121767Y031375D03*
X122767Y031375D03*
X123767Y031375D03*
X124767Y031375D03*
X115767Y031375D03*
X104267Y031375D03*
X103267Y031375D03*
X102267Y031375D03*
X101267Y031375D03*
X100267Y031375D03*
X099267Y031375D03*
X098267Y031375D03*
X097267Y031375D03*
X096267Y031375D03*
X095267Y031375D03*
X096267Y030375D03*
X097267Y030375D03*
X098267Y030375D03*
X099267Y030375D03*
X100267Y030375D03*
X101267Y030375D03*
X102267Y030375D03*
X103267Y030375D03*
X104267Y030375D03*
X081767Y030375D03*
X080767Y030375D03*
X079767Y030375D03*
X078767Y030375D03*
X077767Y030375D03*
X076767Y030375D03*
X075767Y030375D03*
X074767Y030375D03*
X073767Y030375D03*
X073767Y031375D03*
X074767Y031375D03*
X075767Y031375D03*
X076767Y031375D03*
X077767Y031375D03*
X078767Y031375D03*
X079767Y031375D03*
X080767Y031375D03*
X081767Y031375D03*
X072767Y031375D03*
X061267Y031375D03*
X060267Y031375D03*
X059267Y031375D03*
X058267Y031375D03*
X057267Y031375D03*
X056267Y031375D03*
X055267Y031375D03*
X054267Y031375D03*
X053267Y031375D03*
X052267Y031375D03*
X053267Y030375D03*
X054267Y030375D03*
X055267Y030375D03*
X056267Y030375D03*
X057267Y030375D03*
X058267Y030375D03*
X059267Y030375D03*
X060267Y030375D03*
X061267Y030375D03*
X038767Y030375D03*
X037767Y030375D03*
X036767Y030375D03*
X035767Y030375D03*
X034767Y030375D03*
X033767Y030375D03*
X032767Y030375D03*
X031767Y030375D03*
X030767Y030375D03*
X030767Y031375D03*
X031767Y031375D03*
X032767Y031375D03*
X033767Y031375D03*
X034767Y031375D03*
X035767Y031375D03*
X036767Y031375D03*
X037767Y031375D03*
X038767Y031375D03*
X029767Y031375D03*
X018267Y031375D03*
X017267Y031375D03*
X016267Y031375D03*
X015267Y031375D03*
X014267Y031375D03*
X013267Y031375D03*
X012267Y031375D03*
X011267Y031375D03*
X010267Y031375D03*
X009267Y031375D03*
X010267Y030375D03*
X011267Y030375D03*
X012267Y030375D03*
X013267Y030375D03*
X014267Y030375D03*
X015267Y030375D03*
X016267Y030375D03*
X017267Y030375D03*
X018267Y030375D03*
X072017Y007625D03*
X073017Y007625D03*
X074017Y007625D03*
X075017Y007625D03*
X076017Y007625D03*
X077017Y007625D03*
X078017Y007625D03*
X079017Y007625D03*
X080017Y007625D03*
X081017Y007625D03*
X082017Y007625D03*
X083017Y007625D03*
X084017Y007625D03*
X085017Y007625D03*
X086017Y007625D03*
X078517Y005125D03*
X046767Y004125D03*
X045767Y004125D03*
X044767Y004125D03*
X043767Y004125D03*
X042767Y004125D03*
X041767Y004125D03*
X040767Y004125D03*
X039767Y004125D03*
X038767Y004125D03*
X037767Y004125D03*
X037767Y005125D03*
X038767Y005125D03*
X039767Y005125D03*
X040767Y005125D03*
X041767Y005125D03*
X042767Y005125D03*
X043767Y005125D03*
X044767Y005125D03*
X045767Y005125D03*
X016767Y004125D03*
X015767Y004125D03*
X014767Y004125D03*
X013767Y004125D03*
X012767Y004125D03*
X011767Y004125D03*
X010767Y004125D03*
X009767Y004125D03*
X008767Y004125D03*
X007767Y004125D03*
X007767Y005125D03*
X008767Y005125D03*
X009767Y005125D03*
X010767Y005125D03*
X011767Y005125D03*
X012767Y005125D03*
X013767Y005125D03*
X014767Y005125D03*
X015767Y005125D03*
D16*
X019057Y004415D03*
X005477Y004415D03*
X035477Y004415D03*
X049057Y004415D03*
X049977Y031085D03*
X041057Y031085D03*
X027477Y031085D03*
X020557Y031085D03*
X006977Y031085D03*
X063557Y031085D03*
X070477Y031085D03*
X084057Y031085D03*
X092977Y031085D03*
X106557Y031085D03*
X113477Y031085D03*
X127057Y031085D03*
X135977Y031085D03*
X149557Y031085D03*
X156477Y031085D03*
X170057Y031085D03*
M02*
