G75*
G70*
%OFA0B0*%
%FSLAX24Y24*%
%IPPOS*%
%LPD*%
%AMOC8*
5,1,8,0,0,1.08239X$1,22.5*
%
%ADD10R,0.1500X0.1500*%
%ADD11C,0.0515*%
%ADD12C,0.0476*%
%ADD13R,0.0650X0.0650*%
%ADD14C,0.0650*%
%ADD15C,0.0160*%
%ADD16C,0.0400*%
D10*
X145517Y004375D03*
X148767Y004375D03*
D11*
X142017Y004625D03*
X141017Y004625D03*
X140767Y006625D03*
X142767Y006625D03*
X147267Y007875D03*
X149267Y007875D03*
X150267Y007875D03*
X152267Y007875D03*
X153517Y007875D03*
X155517Y007875D03*
X156767Y007875D03*
X158767Y007875D03*
X160017Y007875D03*
X162017Y007875D03*
X163017Y007875D03*
X165017Y007875D03*
X166017Y007875D03*
X168017Y007875D03*
X169017Y007875D03*
X171017Y007875D03*
X171017Y008875D03*
X169017Y008875D03*
X168017Y008875D03*
X166017Y008875D03*
X165017Y008875D03*
X165017Y009875D03*
X166017Y009875D03*
X168017Y009875D03*
X169017Y009875D03*
X171017Y009875D03*
X163017Y009875D03*
X162017Y009875D03*
X160017Y009875D03*
X158767Y009875D03*
X156767Y009875D03*
X155517Y009875D03*
X153517Y009875D03*
X152267Y009875D03*
X150267Y009875D03*
X149267Y009875D03*
X149267Y008875D03*
X150267Y008875D03*
X152267Y008875D03*
X153517Y008875D03*
X155517Y008875D03*
X156767Y008875D03*
X158767Y008875D03*
X160017Y008875D03*
X162017Y008875D03*
X163017Y008875D03*
X147267Y008875D03*
X147267Y009875D03*
X113017Y008625D03*
X111017Y008625D03*
X109267Y008625D03*
X107267Y008625D03*
X105267Y008625D03*
X103267Y008625D03*
X101267Y008625D03*
X099267Y008625D03*
X097767Y008375D03*
X095767Y008375D03*
X092267Y009125D03*
X092267Y007125D03*
X092267Y006375D03*
X092267Y004375D03*
X057767Y005125D03*
X055767Y005125D03*
X055767Y007625D03*
X057767Y007625D03*
X018267Y016125D03*
X016267Y016125D03*
X014517Y016375D03*
X012517Y016375D03*
X011517Y016375D03*
X009517Y016375D03*
X008517Y016375D03*
X006517Y016375D03*
X005517Y016375D03*
X003517Y016375D03*
X003517Y015625D03*
X005517Y015625D03*
X006517Y015625D03*
X008517Y015625D03*
X009517Y015625D03*
X011517Y015625D03*
X012517Y015625D03*
X014517Y015625D03*
X014517Y012625D03*
X012517Y012625D03*
X011517Y012625D03*
X009517Y012625D03*
X008517Y012625D03*
X006517Y012625D03*
X005517Y012625D03*
X003517Y012625D03*
X003517Y011875D03*
X005517Y011875D03*
X006517Y011875D03*
X008517Y011875D03*
X009517Y011875D03*
X011517Y011875D03*
X012517Y011875D03*
X014517Y011875D03*
X014267Y011125D03*
X012767Y011125D03*
X011267Y011125D03*
X009767Y011125D03*
X008267Y011125D03*
X006767Y011125D03*
X005267Y011125D03*
X003767Y011125D03*
X003767Y010125D03*
X005267Y010125D03*
X006767Y010125D03*
X008267Y010125D03*
X009767Y010125D03*
X011267Y010125D03*
X012767Y010125D03*
X014267Y010125D03*
X013767Y019625D03*
X011267Y019625D03*
X008767Y019625D03*
X006267Y019625D03*
X003767Y019625D03*
X001267Y019625D03*
X001267Y021625D03*
X003767Y021625D03*
X006267Y021625D03*
X008767Y021625D03*
X011267Y021625D03*
X013767Y021625D03*
X016267Y021625D03*
X018767Y021625D03*
X021767Y020625D03*
X023767Y020625D03*
X024767Y020625D03*
X026767Y020625D03*
X028017Y021625D03*
X028017Y022625D03*
X018767Y022625D03*
X016267Y022625D03*
X013767Y022625D03*
X011267Y022625D03*
X008767Y022625D03*
X006267Y022625D03*
X003767Y022625D03*
X001267Y022625D03*
X001267Y024625D03*
X003767Y024625D03*
X006267Y024625D03*
X008767Y024625D03*
X011267Y024625D03*
X013767Y024625D03*
X016267Y024625D03*
X018767Y024625D03*
X018767Y025625D03*
X016267Y025625D03*
X013767Y025625D03*
X011267Y025625D03*
X008767Y025625D03*
X006267Y025625D03*
X003767Y025625D03*
X001267Y025625D03*
X002267Y027125D03*
X001267Y027625D03*
X002267Y028125D03*
X004767Y028125D03*
X003767Y027625D03*
X004767Y027125D03*
X006267Y027625D03*
X007267Y027125D03*
X008767Y027625D03*
X009767Y027125D03*
X011267Y027625D03*
X012267Y027125D03*
X013767Y027625D03*
X014767Y027125D03*
X016267Y027625D03*
X017267Y027125D03*
X018767Y027625D03*
X019767Y027125D03*
X021767Y026875D03*
X023767Y026875D03*
X024767Y026875D03*
X026767Y026875D03*
X029517Y027125D03*
X030517Y026875D03*
X032517Y026875D03*
X033517Y026875D03*
X035517Y026875D03*
X036517Y026875D03*
X038517Y026875D03*
X039517Y026875D03*
X041517Y026875D03*
X044267Y027625D03*
X045267Y027125D03*
X046767Y027625D03*
X047767Y027125D03*
X049267Y027625D03*
X050267Y027125D03*
X051767Y027625D03*
X052767Y027125D03*
X054267Y027625D03*
X055267Y027125D03*
X056767Y027625D03*
X057767Y027125D03*
X059267Y027625D03*
X060267Y027125D03*
X061767Y027625D03*
X062767Y027125D03*
X064767Y026875D03*
X066767Y026875D03*
X067767Y026875D03*
X069767Y026875D03*
X072517Y027125D03*
X073517Y026875D03*
X075517Y026875D03*
X076517Y026875D03*
X078517Y026875D03*
X079517Y026875D03*
X081517Y026875D03*
X082517Y026875D03*
X084517Y026875D03*
X085517Y026125D03*
X084517Y025875D03*
X082517Y025875D03*
X081517Y025875D03*
X079517Y025875D03*
X078517Y025875D03*
X076517Y025875D03*
X075517Y025875D03*
X073517Y025875D03*
X072517Y025125D03*
X071017Y024625D03*
X069767Y025875D03*
X067767Y025875D03*
X066767Y025875D03*
X064767Y025875D03*
X061767Y025625D03*
X059267Y025625D03*
X056767Y025625D03*
X054267Y025625D03*
X051767Y025625D03*
X049267Y025625D03*
X046767Y025625D03*
X044267Y025625D03*
X042517Y025625D03*
X041517Y025875D03*
X039517Y025875D03*
X038517Y025875D03*
X036517Y025875D03*
X035517Y025875D03*
X033517Y025875D03*
X032517Y025875D03*
X030517Y025875D03*
X029517Y025125D03*
X028017Y024625D03*
X026767Y025875D03*
X024767Y025875D03*
X023767Y025875D03*
X021767Y025875D03*
X019767Y028125D03*
X017267Y028125D03*
X014767Y028125D03*
X012267Y028125D03*
X009767Y028125D03*
X007267Y028125D03*
X042517Y023625D03*
X044267Y022625D03*
X046767Y022625D03*
X049267Y022625D03*
X051767Y022625D03*
X054267Y022625D03*
X056767Y022625D03*
X059267Y022625D03*
X061767Y022625D03*
X061767Y021625D03*
X059267Y021625D03*
X056767Y021625D03*
X054267Y021625D03*
X051767Y021625D03*
X049267Y021625D03*
X046767Y021625D03*
X044267Y021625D03*
X041517Y020375D03*
X039517Y020375D03*
X038517Y020375D03*
X036517Y020375D03*
X035517Y020375D03*
X033517Y020375D03*
X032517Y020375D03*
X030517Y020375D03*
X030517Y019625D03*
X032517Y019625D03*
X033517Y019625D03*
X035517Y019625D03*
X036517Y019625D03*
X038517Y019625D03*
X039517Y019625D03*
X041517Y019625D03*
X044267Y019625D03*
X046767Y019625D03*
X049267Y019625D03*
X051767Y019625D03*
X054267Y019625D03*
X056767Y019625D03*
X059267Y019625D03*
X061767Y019625D03*
X064767Y019875D03*
X066767Y019875D03*
X067767Y019875D03*
X069767Y019875D03*
X071017Y019625D03*
X073517Y019625D03*
X073517Y020375D03*
X075517Y020375D03*
X076517Y020375D03*
X078517Y020375D03*
X079517Y020375D03*
X081517Y020375D03*
X082517Y020375D03*
X084517Y020375D03*
X084517Y019625D03*
X082517Y019625D03*
X081517Y019625D03*
X079517Y019625D03*
X078517Y019625D03*
X076517Y019625D03*
X075517Y019625D03*
X069767Y020625D03*
X067767Y020625D03*
X066767Y020625D03*
X064767Y020625D03*
X071017Y021625D03*
X071017Y022625D03*
X061767Y024625D03*
X059267Y024625D03*
X056767Y024625D03*
X054267Y024625D03*
X051767Y024625D03*
X049267Y024625D03*
X046767Y024625D03*
X044267Y024625D03*
X045267Y028125D03*
X047767Y028125D03*
X050267Y028125D03*
X052767Y028125D03*
X055267Y028125D03*
X057767Y028125D03*
X060267Y028125D03*
X062767Y028125D03*
X085517Y024125D03*
X087267Y024625D03*
X089767Y024625D03*
X092267Y024625D03*
X094767Y024625D03*
X097267Y024625D03*
X099767Y024625D03*
X102267Y024625D03*
X104767Y024625D03*
X104767Y025625D03*
X102267Y025625D03*
X099767Y025625D03*
X097267Y025625D03*
X094767Y025625D03*
X092267Y025625D03*
X089767Y025625D03*
X087267Y025625D03*
X088267Y027125D03*
X087267Y027625D03*
X088267Y028125D03*
X090767Y028125D03*
X089767Y027625D03*
X090767Y027125D03*
X092267Y027625D03*
X093267Y027125D03*
X094767Y027625D03*
X095767Y027125D03*
X097267Y027625D03*
X098267Y027125D03*
X099767Y027625D03*
X100767Y027125D03*
X102267Y027625D03*
X103267Y027125D03*
X104767Y027625D03*
X105767Y027125D03*
X107767Y026875D03*
X109767Y026875D03*
X110767Y026875D03*
X112767Y026875D03*
X115517Y027125D03*
X116517Y026875D03*
X118517Y026875D03*
X119517Y026875D03*
X121517Y026875D03*
X122517Y026875D03*
X124517Y026875D03*
X125517Y026875D03*
X127517Y026875D03*
X130267Y027625D03*
X131267Y027125D03*
X132767Y027625D03*
X133767Y027125D03*
X135267Y027625D03*
X136267Y027125D03*
X137767Y027625D03*
X138767Y027125D03*
X140267Y027625D03*
X141267Y027125D03*
X142767Y027625D03*
X143767Y027125D03*
X145267Y027625D03*
X146267Y027125D03*
X147767Y027625D03*
X148767Y027125D03*
X150767Y026875D03*
X152767Y026875D03*
X153767Y026875D03*
X155767Y026875D03*
X158517Y027125D03*
X159517Y026875D03*
X161517Y026875D03*
X162517Y026875D03*
X164517Y026875D03*
X165517Y026875D03*
X167517Y026875D03*
X168517Y026875D03*
X170517Y026875D03*
X172517Y026375D03*
X170517Y025875D03*
X168517Y025875D03*
X167517Y025875D03*
X165517Y025875D03*
X164517Y025875D03*
X162517Y025875D03*
X161517Y025875D03*
X159517Y025875D03*
X158517Y025125D03*
X157017Y024625D03*
X155767Y025875D03*
X153767Y025875D03*
X152767Y025875D03*
X150767Y025875D03*
X147767Y025625D03*
X145267Y025625D03*
X142767Y025625D03*
X140267Y025625D03*
X137767Y025625D03*
X135267Y025625D03*
X132767Y025625D03*
X130267Y025625D03*
X128767Y025125D03*
X130267Y024625D03*
X132767Y024625D03*
X135267Y024625D03*
X137767Y024625D03*
X140267Y024625D03*
X142767Y024625D03*
X145267Y024625D03*
X147767Y024625D03*
X147767Y022625D03*
X147767Y021875D03*
X145267Y021875D03*
X142767Y021625D03*
X140267Y021625D03*
X137767Y021625D03*
X135267Y021625D03*
X132767Y021625D03*
X130267Y021625D03*
X130267Y022625D03*
X132767Y022625D03*
X135267Y022625D03*
X137767Y022625D03*
X140267Y022625D03*
X142767Y022625D03*
X145267Y022625D03*
X150767Y020375D03*
X150767Y019625D03*
X147767Y019875D03*
X145267Y019875D03*
X142767Y019625D03*
X140267Y019625D03*
X137767Y019625D03*
X135267Y019625D03*
X132767Y019625D03*
X130267Y019625D03*
X127517Y019625D03*
X125517Y019625D03*
X124517Y019625D03*
X122517Y019625D03*
X121517Y019625D03*
X119517Y019625D03*
X118517Y019625D03*
X116517Y019625D03*
X114017Y019625D03*
X112767Y019875D03*
X110767Y019875D03*
X109767Y019875D03*
X107767Y019875D03*
X104767Y019625D03*
X102267Y019625D03*
X099767Y019625D03*
X097267Y019625D03*
X094767Y019625D03*
X092267Y019625D03*
X089767Y019625D03*
X087267Y019625D03*
X087267Y021625D03*
X089767Y021625D03*
X092267Y021625D03*
X094767Y021625D03*
X097267Y021625D03*
X099767Y021625D03*
X102267Y021625D03*
X104767Y021625D03*
X107767Y020625D03*
X109767Y020625D03*
X110767Y020625D03*
X112767Y020625D03*
X114017Y021625D03*
X114017Y022625D03*
X114017Y024625D03*
X115517Y025125D03*
X116517Y025875D03*
X118517Y025875D03*
X119517Y025875D03*
X121517Y025875D03*
X122517Y025875D03*
X124517Y025875D03*
X125517Y025875D03*
X127517Y025875D03*
X128767Y023125D03*
X127517Y020375D03*
X125517Y020375D03*
X124517Y020375D03*
X122517Y020375D03*
X121517Y020375D03*
X119517Y020375D03*
X118517Y020375D03*
X116517Y020375D03*
X104767Y022625D03*
X102267Y022625D03*
X099767Y022625D03*
X097267Y022625D03*
X094767Y022625D03*
X092267Y022625D03*
X089767Y022625D03*
X087267Y022625D03*
X107767Y025875D03*
X109767Y025875D03*
X110767Y025875D03*
X112767Y025875D03*
X105767Y028125D03*
X103267Y028125D03*
X100767Y028125D03*
X098267Y028125D03*
X095767Y028125D03*
X093267Y028125D03*
X131267Y028125D03*
X133767Y028125D03*
X136267Y028125D03*
X138767Y028125D03*
X141267Y028125D03*
X143767Y028125D03*
X146267Y028125D03*
X148767Y028125D03*
X172517Y024375D03*
X157017Y022625D03*
X157017Y021625D03*
X155767Y020375D03*
X153767Y020375D03*
X152767Y020375D03*
X152767Y019625D03*
X153767Y019625D03*
X155767Y019625D03*
X157017Y019625D03*
X159517Y019625D03*
X159517Y020375D03*
X161517Y020375D03*
X162517Y020375D03*
X164517Y020375D03*
X165517Y020375D03*
X167517Y020375D03*
X168517Y020375D03*
X170517Y020375D03*
X170517Y019625D03*
X168517Y019625D03*
X167517Y019625D03*
X165517Y019625D03*
X164517Y019625D03*
X162517Y019625D03*
X161517Y019625D03*
X028017Y019625D03*
X026767Y019875D03*
X024767Y019875D03*
X023767Y019875D03*
X021767Y019875D03*
X018767Y019625D03*
X016267Y019625D03*
D12*
X015267Y020375D03*
X014767Y020875D03*
X012767Y020375D03*
X012267Y020875D03*
X010267Y020375D03*
X009767Y020875D03*
X007767Y020375D03*
X007267Y020875D03*
X005267Y020375D03*
X004767Y020875D03*
X002767Y020375D03*
X002267Y020875D03*
X002767Y021375D03*
X005267Y021375D03*
X007767Y021375D03*
X010267Y021375D03*
X012767Y021375D03*
X015267Y021375D03*
X017267Y020875D03*
X017767Y020375D03*
X019767Y020875D03*
X020267Y020375D03*
X020267Y021375D03*
X022267Y021625D03*
X023767Y021625D03*
X025267Y021625D03*
X026767Y021625D03*
X029517Y021375D03*
X031017Y021625D03*
X032517Y021625D03*
X034017Y021625D03*
X035517Y021625D03*
X037017Y021625D03*
X038517Y021625D03*
X040017Y021625D03*
X041517Y021625D03*
X042017Y022125D03*
X041517Y022625D03*
X040517Y022125D03*
X040017Y022625D03*
X039017Y022125D03*
X038517Y022625D03*
X037517Y022125D03*
X037017Y022625D03*
X036017Y022125D03*
X035517Y022625D03*
X034517Y022125D03*
X034017Y022625D03*
X033017Y022125D03*
X032517Y022625D03*
X031517Y022125D03*
X031017Y022625D03*
X029017Y023125D03*
X029517Y023625D03*
X029017Y024125D03*
X030517Y024125D03*
X031017Y023625D03*
X032017Y024125D03*
X032517Y023625D03*
X033517Y024125D03*
X034017Y023625D03*
X035017Y024125D03*
X035517Y023625D03*
X036517Y024125D03*
X037017Y023625D03*
X038017Y024125D03*
X038517Y023625D03*
X039517Y024125D03*
X040017Y023625D03*
X041017Y024125D03*
X041517Y023625D03*
X045267Y023625D03*
X045767Y023125D03*
X047767Y023625D03*
X048267Y023125D03*
X050267Y023625D03*
X050767Y023125D03*
X050267Y022625D03*
X047767Y022625D03*
X045267Y022625D03*
X045767Y021375D03*
X048267Y021375D03*
X050767Y021375D03*
X050267Y020875D03*
X050767Y020375D03*
X048267Y020375D03*
X047767Y020875D03*
X045767Y020375D03*
X045267Y020875D03*
X052767Y020875D03*
X053267Y020375D03*
X055267Y020875D03*
X055767Y020375D03*
X057767Y020875D03*
X058267Y020375D03*
X060267Y020875D03*
X060767Y020375D03*
X062767Y020875D03*
X063267Y020375D03*
X063267Y021375D03*
X065267Y021625D03*
X066767Y021625D03*
X068267Y021625D03*
X069767Y021625D03*
X070267Y022125D03*
X069767Y022625D03*
X068767Y022125D03*
X068267Y022625D03*
X067267Y022125D03*
X066767Y022625D03*
X065767Y022125D03*
X065267Y022625D03*
X063267Y023125D03*
X062767Y023625D03*
X064767Y024125D03*
X065267Y023625D03*
X066267Y024125D03*
X066767Y023625D03*
X067767Y024125D03*
X068267Y023625D03*
X069267Y024125D03*
X069767Y023625D03*
X072017Y023125D03*
X072517Y023625D03*
X072017Y024125D03*
X073517Y024125D03*
X074017Y023625D03*
X075017Y024125D03*
X075517Y023625D03*
X076517Y024125D03*
X077017Y023625D03*
X078017Y024125D03*
X078517Y023625D03*
X079517Y024125D03*
X080017Y023625D03*
X081017Y024125D03*
X081517Y023625D03*
X082517Y024125D03*
X083017Y023625D03*
X084017Y024125D03*
X084517Y023625D03*
X088267Y023625D03*
X088767Y023125D03*
X090767Y023625D03*
X091267Y023125D03*
X093267Y023625D03*
X093767Y023125D03*
X095767Y023625D03*
X096267Y023125D03*
X095767Y022625D03*
X093267Y022625D03*
X090767Y022625D03*
X088267Y022625D03*
X085017Y022125D03*
X084517Y022625D03*
X083517Y022125D03*
X083017Y022625D03*
X082017Y022125D03*
X081517Y022625D03*
X080517Y022125D03*
X080017Y022625D03*
X079017Y022125D03*
X078517Y022625D03*
X077517Y022125D03*
X077017Y022625D03*
X076017Y022125D03*
X075517Y022625D03*
X074517Y022125D03*
X074017Y022625D03*
X074017Y021625D03*
X075517Y021625D03*
X077017Y021625D03*
X078517Y021625D03*
X080017Y021625D03*
X081517Y021625D03*
X083017Y021625D03*
X084517Y021625D03*
X088267Y020875D03*
X088767Y020375D03*
X090767Y020875D03*
X091267Y020375D03*
X093267Y020875D03*
X093767Y020375D03*
X095767Y020875D03*
X096267Y020375D03*
X098267Y020875D03*
X098767Y020375D03*
X100767Y020875D03*
X101267Y020375D03*
X103267Y020875D03*
X103767Y020375D03*
X105767Y020625D03*
X106267Y021125D03*
X108267Y021625D03*
X109767Y021625D03*
X111267Y021625D03*
X112767Y021625D03*
X115517Y021375D03*
X117017Y021625D03*
X118517Y021625D03*
X120017Y021625D03*
X121517Y021625D03*
X123017Y021625D03*
X124517Y021625D03*
X126017Y021625D03*
X127517Y021625D03*
X128017Y022125D03*
X127517Y022625D03*
X126517Y022125D03*
X126017Y022625D03*
X125017Y022125D03*
X124517Y022625D03*
X123517Y022125D03*
X123017Y022625D03*
X122017Y022125D03*
X121517Y022625D03*
X120517Y022125D03*
X120017Y022625D03*
X119017Y022125D03*
X118517Y022625D03*
X117517Y022125D03*
X117017Y022625D03*
X115017Y023125D03*
X115517Y023625D03*
X115017Y024125D03*
X116517Y024125D03*
X117017Y023625D03*
X118017Y024125D03*
X118517Y023625D03*
X119517Y024125D03*
X120017Y023625D03*
X121017Y024125D03*
X121517Y023625D03*
X122517Y024125D03*
X123017Y023625D03*
X124017Y024125D03*
X124517Y023625D03*
X125517Y024125D03*
X126017Y023625D03*
X127017Y024125D03*
X127517Y023625D03*
X131267Y023625D03*
X131767Y023125D03*
X133767Y023625D03*
X134267Y023125D03*
X136267Y023625D03*
X136767Y023125D03*
X136267Y022625D03*
X133767Y022625D03*
X131267Y022625D03*
X131767Y021375D03*
X134267Y021375D03*
X136767Y021375D03*
X136267Y020875D03*
X136767Y020375D03*
X134267Y020375D03*
X133767Y020875D03*
X131767Y020375D03*
X131267Y020875D03*
X138767Y020875D03*
X139267Y020375D03*
X141267Y020875D03*
X141767Y020375D03*
X143767Y020875D03*
X144267Y020375D03*
X146267Y020875D03*
X146767Y020375D03*
X148767Y020875D03*
X149267Y020375D03*
X149267Y021375D03*
X151267Y021625D03*
X152767Y021625D03*
X154267Y021625D03*
X155767Y021625D03*
X156267Y022125D03*
X155767Y022625D03*
X154767Y022125D03*
X154267Y022625D03*
X153267Y022125D03*
X152767Y022625D03*
X151767Y022125D03*
X151267Y022625D03*
X149267Y023125D03*
X148767Y023625D03*
X150767Y024125D03*
X151267Y023625D03*
X152267Y024125D03*
X152767Y023625D03*
X153767Y024125D03*
X154267Y023625D03*
X155267Y024125D03*
X155767Y023625D03*
X158017Y023125D03*
X158517Y023625D03*
X158017Y024125D03*
X159517Y024125D03*
X160017Y023625D03*
X161017Y024125D03*
X161517Y023625D03*
X162517Y024125D03*
X163017Y023625D03*
X164017Y024125D03*
X164517Y023625D03*
X165517Y024125D03*
X166017Y023625D03*
X167017Y024125D03*
X167517Y023625D03*
X168517Y024125D03*
X169017Y023625D03*
X170017Y024125D03*
X170517Y023625D03*
X170517Y022625D03*
X171017Y022125D03*
X169517Y022125D03*
X169017Y022625D03*
X168017Y022125D03*
X167517Y022625D03*
X166517Y022125D03*
X166017Y022625D03*
X165017Y022125D03*
X164517Y022625D03*
X163517Y022125D03*
X163017Y022625D03*
X162017Y022125D03*
X161517Y022625D03*
X160517Y022125D03*
X160017Y022625D03*
X160017Y021625D03*
X161517Y021625D03*
X163017Y021625D03*
X164517Y021625D03*
X166017Y021625D03*
X167517Y021625D03*
X169017Y021625D03*
X170517Y021625D03*
X158517Y021375D03*
X158017Y020875D03*
X158517Y020375D03*
X148767Y022625D03*
X146267Y022625D03*
X146767Y023125D03*
X146267Y023625D03*
X144267Y023125D03*
X143767Y023625D03*
X141767Y023125D03*
X141267Y023625D03*
X139267Y023125D03*
X138767Y023625D03*
X138767Y022625D03*
X141267Y022625D03*
X143767Y022625D03*
X144267Y021375D03*
X146767Y021375D03*
X141767Y021375D03*
X139267Y021375D03*
X127517Y024625D03*
X126017Y024625D03*
X124517Y024625D03*
X123017Y024625D03*
X121517Y024625D03*
X120017Y024625D03*
X118517Y024625D03*
X117017Y024625D03*
X112767Y024625D03*
X111267Y024625D03*
X109767Y024625D03*
X108267Y024625D03*
X105767Y024875D03*
X106267Y025375D03*
X105767Y025875D03*
X103767Y025375D03*
X103267Y024875D03*
X101267Y025375D03*
X100767Y024875D03*
X098767Y025375D03*
X098267Y024875D03*
X098267Y025875D03*
X100767Y025875D03*
X103267Y025875D03*
X096267Y025375D03*
X095767Y024875D03*
X093767Y025375D03*
X093267Y024875D03*
X091267Y025375D03*
X090767Y024875D03*
X088767Y025375D03*
X088267Y024875D03*
X088267Y025875D03*
X090767Y025875D03*
X093267Y025875D03*
X095767Y025875D03*
X098267Y023625D03*
X098767Y023125D03*
X100767Y023625D03*
X101267Y023125D03*
X103267Y023625D03*
X103767Y023125D03*
X105767Y023625D03*
X106267Y023125D03*
X108267Y023625D03*
X107767Y024125D03*
X109267Y024125D03*
X109767Y023625D03*
X110767Y024125D03*
X111267Y023625D03*
X112267Y024125D03*
X112767Y023625D03*
X112767Y022625D03*
X113267Y022125D03*
X111767Y022125D03*
X111267Y022625D03*
X110267Y022125D03*
X109767Y022625D03*
X108767Y022125D03*
X108267Y022625D03*
X105767Y022625D03*
X103267Y022625D03*
X100767Y022625D03*
X098267Y022625D03*
X098767Y021375D03*
X101267Y021375D03*
X103767Y021375D03*
X106267Y020125D03*
X115017Y020875D03*
X115517Y020375D03*
X096267Y021375D03*
X093767Y021375D03*
X091267Y021375D03*
X088767Y021375D03*
X084517Y024625D03*
X083017Y024625D03*
X081517Y024625D03*
X080017Y024625D03*
X078517Y024625D03*
X077017Y024625D03*
X075517Y024625D03*
X074017Y024625D03*
X071517Y025625D03*
X071017Y026125D03*
X071517Y026625D03*
X063267Y025375D03*
X062767Y024875D03*
X060767Y025375D03*
X060267Y024875D03*
X058267Y025375D03*
X057767Y024875D03*
X055767Y025375D03*
X055267Y024875D03*
X053267Y025375D03*
X052767Y024875D03*
X052767Y025875D03*
X055267Y025875D03*
X057767Y025875D03*
X060267Y025875D03*
X062767Y025875D03*
X065267Y024625D03*
X066767Y024625D03*
X068267Y024625D03*
X069767Y024625D03*
X060767Y023125D03*
X060267Y023625D03*
X058267Y023125D03*
X057767Y023625D03*
X055767Y023125D03*
X055267Y023625D03*
X053267Y023125D03*
X052767Y023625D03*
X052767Y022625D03*
X055267Y022625D03*
X057767Y022625D03*
X060267Y022625D03*
X062767Y022625D03*
X060767Y021375D03*
X058267Y021375D03*
X055767Y021375D03*
X053267Y021375D03*
X041517Y024625D03*
X040017Y024625D03*
X038517Y024625D03*
X037017Y024625D03*
X035517Y024625D03*
X034017Y024625D03*
X032517Y024625D03*
X031017Y024625D03*
X026767Y024625D03*
X025267Y024625D03*
X023767Y024625D03*
X022267Y024625D03*
X019767Y024875D03*
X020267Y025375D03*
X019767Y025875D03*
X017767Y025375D03*
X017267Y024875D03*
X015267Y025375D03*
X014767Y024875D03*
X012767Y025375D03*
X012267Y024875D03*
X010267Y025375D03*
X009767Y024875D03*
X007767Y025375D03*
X007267Y024875D03*
X005267Y025375D03*
X004767Y024875D03*
X002767Y025375D03*
X002267Y024875D03*
X002267Y025875D03*
X004767Y025875D03*
X007267Y025875D03*
X009767Y025875D03*
X012267Y025875D03*
X014767Y025875D03*
X017267Y025875D03*
X021767Y024125D03*
X022267Y023625D03*
X023267Y024125D03*
X023767Y023625D03*
X024767Y024125D03*
X025267Y023625D03*
X026267Y024125D03*
X026767Y023625D03*
X026767Y022625D03*
X027267Y022125D03*
X025767Y022125D03*
X025267Y022625D03*
X024267Y022125D03*
X023767Y022625D03*
X022767Y022125D03*
X022267Y022625D03*
X019767Y022625D03*
X020267Y023125D03*
X019767Y023625D03*
X017767Y023125D03*
X017267Y023625D03*
X015267Y023125D03*
X014767Y023625D03*
X012767Y023125D03*
X012267Y023625D03*
X010267Y023125D03*
X009767Y023625D03*
X007767Y023125D03*
X007267Y023625D03*
X005267Y023125D03*
X004767Y023625D03*
X002767Y023125D03*
X002267Y023625D03*
X002267Y022625D03*
X004767Y022625D03*
X007267Y022625D03*
X009767Y022625D03*
X012267Y022625D03*
X014767Y022625D03*
X017267Y022625D03*
X017767Y021375D03*
X029017Y020875D03*
X029517Y020375D03*
X045267Y024875D03*
X045767Y025375D03*
X045267Y025875D03*
X047767Y025875D03*
X048267Y025375D03*
X047767Y024875D03*
X050267Y024875D03*
X050767Y025375D03*
X050267Y025875D03*
X028517Y025625D03*
X028017Y026125D03*
X028517Y026625D03*
X072017Y020875D03*
X072517Y020375D03*
X072517Y021375D03*
X114017Y026125D03*
X114517Y025625D03*
X114517Y026625D03*
X131267Y025875D03*
X131767Y025375D03*
X131267Y024875D03*
X133767Y024875D03*
X134267Y025375D03*
X133767Y025875D03*
X136267Y025875D03*
X136767Y025375D03*
X136267Y024875D03*
X138767Y024875D03*
X139267Y025375D03*
X138767Y025875D03*
X141267Y025875D03*
X141767Y025375D03*
X141267Y024875D03*
X143767Y024875D03*
X144267Y025375D03*
X143767Y025875D03*
X146267Y025875D03*
X146767Y025375D03*
X146267Y024875D03*
X148767Y024875D03*
X149267Y025375D03*
X148767Y025875D03*
X151267Y024625D03*
X152767Y024625D03*
X154267Y024625D03*
X155767Y024625D03*
X157517Y025625D03*
X157017Y026125D03*
X157517Y026625D03*
X160017Y024625D03*
X161517Y024625D03*
X163017Y024625D03*
X164517Y024625D03*
X166017Y024625D03*
X167517Y024625D03*
X169017Y024625D03*
X170517Y024625D03*
X093267Y008375D03*
X093767Y007875D03*
X093267Y007375D03*
X099267Y007625D03*
X099767Y007125D03*
X100267Y007625D03*
X103267Y007625D03*
X103767Y007125D03*
X104267Y007625D03*
X107267Y007625D03*
X107767Y007125D03*
X108267Y007625D03*
X111017Y007625D03*
X111517Y007125D03*
X112017Y007625D03*
X111517Y006125D03*
X112017Y005625D03*
X111017Y005625D03*
X111017Y004625D03*
X112017Y004625D03*
X111517Y004125D03*
X108267Y004625D03*
X107267Y004625D03*
X107767Y004125D03*
X104267Y004625D03*
X103267Y004625D03*
X100267Y004625D03*
X099267Y004625D03*
X099767Y004125D03*
X103767Y004125D03*
X104267Y005625D03*
X103267Y005625D03*
X100267Y005625D03*
X099267Y005625D03*
X099767Y006125D03*
X103767Y006125D03*
X107267Y005625D03*
X108267Y005625D03*
X107767Y006125D03*
X093767Y005375D03*
X093267Y005875D03*
X093267Y004875D03*
X054767Y005125D03*
X054267Y004625D03*
X054767Y004125D03*
X054767Y006625D03*
X054267Y007125D03*
X054767Y007625D03*
X049767Y007125D03*
X049267Y007625D03*
X049767Y008125D03*
X048267Y008125D03*
X047767Y007625D03*
X048267Y007125D03*
X046767Y007125D03*
X046267Y007625D03*
X046767Y008125D03*
X045267Y008125D03*
X044767Y007625D03*
X045267Y007125D03*
X043767Y007125D03*
X043267Y007625D03*
X043767Y008125D03*
X042267Y008125D03*
X041767Y007625D03*
X042267Y007125D03*
X040767Y007375D03*
X039267Y007375D03*
X037767Y007375D03*
X036267Y007375D03*
X034767Y007375D03*
X033267Y007375D03*
X031767Y007375D03*
X030267Y007375D03*
X028767Y007375D03*
X027267Y007375D03*
X026767Y007875D03*
X027267Y008375D03*
X028267Y007875D03*
X028767Y008375D03*
X029767Y007875D03*
X030267Y008375D03*
X031267Y007875D03*
X031767Y008375D03*
X032767Y007875D03*
X033267Y008375D03*
X034267Y007875D03*
X034767Y008375D03*
X035767Y007875D03*
X036267Y008375D03*
X037267Y007875D03*
X037767Y008375D03*
X038767Y007875D03*
X039267Y008375D03*
X040267Y007875D03*
X040767Y008375D03*
X027017Y011625D03*
X025517Y011625D03*
X024017Y011625D03*
X022517Y011625D03*
X021017Y011625D03*
X019517Y011625D03*
X018017Y011625D03*
X016517Y011625D03*
X016017Y012125D03*
X016517Y012625D03*
X017517Y012125D03*
X018017Y012625D03*
X019017Y012125D03*
X019517Y012625D03*
X020517Y012125D03*
X021017Y012625D03*
X022017Y012125D03*
X022517Y012625D03*
X023517Y012125D03*
X024017Y012625D03*
X025017Y012125D03*
X025517Y012625D03*
X026517Y012125D03*
X027017Y012625D03*
X014517Y013625D03*
X014017Y014125D03*
X013017Y013625D03*
X012517Y014125D03*
X011517Y013625D03*
X011017Y014125D03*
X010017Y013625D03*
X009517Y014125D03*
X008517Y013625D03*
X008017Y014125D03*
X007017Y013625D03*
X006517Y014125D03*
X005517Y013625D03*
X005017Y014125D03*
X004017Y013625D03*
X003517Y014125D03*
X004017Y014625D03*
X005517Y014625D03*
X007017Y014625D03*
X008517Y014625D03*
X010017Y014625D03*
X011517Y014625D03*
X013017Y014625D03*
X014517Y014625D03*
D13*
X016767Y005125D03*
X046767Y005125D03*
X071017Y007625D03*
X077517Y005125D03*
X072767Y030375D03*
X052267Y030375D03*
X029767Y030375D03*
X009267Y030375D03*
X095267Y030375D03*
X115767Y030375D03*
X138267Y030375D03*
X158767Y030375D03*
D14*
X007767Y004125D03*
X008767Y004125D03*
X009767Y004125D03*
X010767Y004125D03*
X011767Y004125D03*
X012767Y004125D03*
X013767Y004125D03*
X014767Y004125D03*
X015767Y004125D03*
X016767Y004125D03*
X015767Y005125D03*
X014767Y005125D03*
X013767Y005125D03*
X012767Y005125D03*
X011767Y005125D03*
X010767Y005125D03*
X009767Y005125D03*
X008767Y005125D03*
X007767Y005125D03*
X037767Y005125D03*
X038767Y005125D03*
X039767Y005125D03*
X040767Y005125D03*
X041767Y005125D03*
X042767Y005125D03*
X043767Y005125D03*
X044767Y005125D03*
X045767Y005125D03*
X045767Y004125D03*
X046767Y004125D03*
X044767Y004125D03*
X043767Y004125D03*
X042767Y004125D03*
X041767Y004125D03*
X040767Y004125D03*
X039767Y004125D03*
X038767Y004125D03*
X037767Y004125D03*
X072017Y007625D03*
X073017Y007625D03*
X074017Y007625D03*
X075017Y007625D03*
X076017Y007625D03*
X077017Y007625D03*
X078017Y007625D03*
X079017Y007625D03*
X080017Y007625D03*
X081017Y007625D03*
X082017Y007625D03*
X083017Y007625D03*
X084017Y007625D03*
X085017Y007625D03*
X086017Y007625D03*
X078517Y005125D03*
X078767Y030375D03*
X079767Y030375D03*
X080767Y030375D03*
X081767Y030375D03*
X077767Y030375D03*
X076767Y030375D03*
X075767Y030375D03*
X074767Y030375D03*
X073767Y030375D03*
X073767Y031375D03*
X074767Y031375D03*
X075767Y031375D03*
X076767Y031375D03*
X077767Y031375D03*
X078767Y031375D03*
X079767Y031375D03*
X080767Y031375D03*
X081767Y031375D03*
X072767Y031375D03*
X061267Y031375D03*
X060267Y031375D03*
X059267Y031375D03*
X058267Y031375D03*
X057267Y031375D03*
X056267Y031375D03*
X055267Y031375D03*
X054267Y031375D03*
X053267Y031375D03*
X052267Y031375D03*
X053267Y030375D03*
X054267Y030375D03*
X055267Y030375D03*
X056267Y030375D03*
X057267Y030375D03*
X058267Y030375D03*
X059267Y030375D03*
X060267Y030375D03*
X061267Y030375D03*
X038767Y030375D03*
X037767Y030375D03*
X036767Y030375D03*
X035767Y030375D03*
X034767Y030375D03*
X033767Y030375D03*
X032767Y030375D03*
X031767Y030375D03*
X030767Y030375D03*
X030767Y031375D03*
X031767Y031375D03*
X032767Y031375D03*
X033767Y031375D03*
X034767Y031375D03*
X035767Y031375D03*
X036767Y031375D03*
X037767Y031375D03*
X038767Y031375D03*
X029767Y031375D03*
X018267Y031375D03*
X017267Y031375D03*
X016267Y031375D03*
X015267Y031375D03*
X014267Y031375D03*
X013267Y031375D03*
X012267Y031375D03*
X011267Y031375D03*
X010267Y031375D03*
X009267Y031375D03*
X010267Y030375D03*
X011267Y030375D03*
X012267Y030375D03*
X013267Y030375D03*
X014267Y030375D03*
X015267Y030375D03*
X016267Y030375D03*
X017267Y030375D03*
X018267Y030375D03*
X095267Y031375D03*
X096267Y031375D03*
X097267Y031375D03*
X098267Y031375D03*
X099267Y031375D03*
X100267Y031375D03*
X101267Y031375D03*
X102267Y031375D03*
X103267Y031375D03*
X104267Y031375D03*
X104267Y030375D03*
X103267Y030375D03*
X102267Y030375D03*
X101267Y030375D03*
X100267Y030375D03*
X099267Y030375D03*
X098267Y030375D03*
X097267Y030375D03*
X096267Y030375D03*
X115767Y031375D03*
X116767Y031375D03*
X117767Y031375D03*
X118767Y031375D03*
X119767Y031375D03*
X120767Y031375D03*
X121767Y031375D03*
X122767Y031375D03*
X123767Y031375D03*
X124767Y031375D03*
X124767Y030375D03*
X123767Y030375D03*
X122767Y030375D03*
X121767Y030375D03*
X120767Y030375D03*
X119767Y030375D03*
X118767Y030375D03*
X117767Y030375D03*
X116767Y030375D03*
X138267Y031375D03*
X139267Y031375D03*
X140267Y031375D03*
X141267Y031375D03*
X142267Y031375D03*
X143267Y031375D03*
X144267Y031375D03*
X145267Y031375D03*
X146267Y031375D03*
X147267Y031375D03*
X147267Y030375D03*
X146267Y030375D03*
X145267Y030375D03*
X144267Y030375D03*
X143267Y030375D03*
X142267Y030375D03*
X141267Y030375D03*
X140267Y030375D03*
X139267Y030375D03*
X158767Y031375D03*
X159767Y031375D03*
X160767Y031375D03*
X161767Y031375D03*
X162767Y031375D03*
X163767Y031375D03*
X164767Y031375D03*
X165767Y031375D03*
X166767Y031375D03*
X167767Y031375D03*
X167767Y030375D03*
X166767Y030375D03*
X165767Y030375D03*
X164767Y030375D03*
X163767Y030375D03*
X162767Y030375D03*
X161767Y030375D03*
X160767Y030375D03*
X159767Y030375D03*
D15*
X160767Y030375D02*
X160767Y030125D01*
X159017Y028375D01*
X159017Y022875D01*
X160017Y021875D01*
X160017Y021625D01*
X160517Y022875D02*
X161517Y021875D01*
X161517Y021625D01*
X162017Y022875D02*
X163017Y021875D01*
X163017Y021625D01*
X163017Y020125D01*
X162517Y019625D01*
X165517Y019625D02*
X166017Y020125D01*
X166017Y021625D01*
X166017Y021875D01*
X165017Y022875D01*
X165017Y028125D01*
X164767Y028375D01*
X164767Y030375D01*
X165767Y030375D02*
X165767Y028875D01*
X166517Y028125D01*
X166517Y022875D01*
X167517Y021875D01*
X167517Y021625D01*
X168017Y022875D02*
X169017Y021875D01*
X169017Y021625D01*
X169017Y020125D01*
X168517Y019625D01*
X170517Y021625D02*
X170517Y021875D01*
X169517Y022875D01*
X169517Y027625D01*
X167767Y029375D01*
X167767Y030375D01*
X166767Y030375D02*
X166767Y029125D01*
X168017Y027875D01*
X168017Y022875D01*
X164517Y021875D02*
X163517Y022875D01*
X163517Y029375D01*
X163767Y029625D01*
X163767Y030375D01*
X162767Y030375D02*
X162767Y030125D01*
X162017Y029375D01*
X162017Y022875D01*
X160517Y022875D02*
X160517Y028875D01*
X161767Y030125D01*
X161767Y030375D01*
X158767Y030375D02*
X156517Y028125D01*
X156517Y023875D01*
X157267Y023125D01*
X158017Y023125D01*
X158017Y022625D01*
X157017Y021625D01*
X157767Y021375D02*
X158517Y021375D01*
X157767Y021375D02*
X156517Y020125D01*
X156517Y019625D01*
X155767Y018875D01*
X150517Y018875D01*
X150017Y019375D01*
X150017Y023375D01*
X149767Y023625D01*
X148767Y023625D01*
X146267Y023625D01*
X143767Y023625D01*
X141267Y023625D01*
X138767Y023625D01*
X136267Y023625D01*
X133767Y023625D01*
X131267Y023625D01*
X127517Y021875D02*
X126517Y022875D01*
X126517Y027625D01*
X124767Y029375D01*
X124767Y030375D01*
X123767Y030375D02*
X123767Y028875D01*
X125017Y027625D01*
X125017Y022875D01*
X126017Y021875D01*
X126017Y021625D01*
X126017Y020125D01*
X125517Y019625D01*
X123017Y020125D02*
X122517Y019625D01*
X123017Y020125D02*
X123017Y021625D01*
X123017Y021875D01*
X122017Y022875D01*
X122017Y027625D01*
X121767Y027875D01*
X121767Y030375D01*
X122767Y030375D02*
X122767Y028375D01*
X123517Y027625D01*
X123517Y022875D01*
X124517Y021875D01*
X124517Y021625D01*
X121517Y021625D02*
X121517Y021875D01*
X120517Y022875D01*
X120517Y027625D01*
X120767Y027875D01*
X120767Y030375D01*
X119767Y030375D02*
X119767Y028625D01*
X119017Y027875D01*
X119017Y022875D01*
X120017Y021875D01*
X120017Y021625D01*
X120017Y020125D01*
X119517Y019625D01*
X117017Y020125D02*
X116517Y019625D01*
X117017Y020125D02*
X117017Y021625D01*
X117017Y021875D01*
X116017Y022875D01*
X116017Y027625D01*
X117767Y029375D01*
X117767Y030375D01*
X118767Y030375D02*
X118767Y028625D01*
X117517Y027375D01*
X117517Y022875D01*
X118517Y021875D01*
X118517Y021625D01*
X115517Y021375D02*
X114767Y021375D01*
X114017Y020625D01*
X114017Y020375D01*
X113017Y019375D01*
X107517Y019375D01*
X107267Y019625D01*
X107267Y022125D01*
X106767Y022625D01*
X106767Y023375D01*
X106517Y023625D01*
X105767Y023625D01*
X103267Y023625D01*
X100767Y023625D01*
X098267Y023625D01*
X095767Y023625D01*
X093267Y023625D01*
X090767Y023625D01*
X088267Y023625D01*
X088267Y022625D02*
X088267Y021625D01*
X087267Y021625D01*
X088267Y021625D02*
X088267Y020875D01*
X090767Y020875D02*
X090767Y021625D01*
X089767Y021625D01*
X090767Y021625D02*
X090767Y022625D01*
X093267Y022625D02*
X093267Y021625D01*
X092267Y021625D01*
X093267Y021625D02*
X093267Y020875D01*
X095767Y020875D02*
X095767Y021625D01*
X094767Y021625D01*
X095767Y021625D02*
X095767Y022625D01*
X098267Y022625D02*
X098267Y021625D01*
X097267Y021625D01*
X098267Y021625D02*
X098267Y020875D01*
X100767Y020875D02*
X100767Y021625D01*
X099767Y021625D01*
X100767Y021625D02*
X100767Y022625D01*
X103267Y022625D02*
X103267Y021625D01*
X102267Y021625D01*
X103267Y021625D02*
X103267Y020875D01*
X104767Y021625D02*
X105767Y021625D01*
X105767Y022625D01*
X107017Y023125D02*
X108267Y021875D01*
X108267Y021625D01*
X108267Y020375D01*
X107767Y019875D01*
X106767Y018875D02*
X147017Y018875D01*
X147267Y018625D01*
X144767Y018375D02*
X144267Y018625D01*
X107017Y018625D01*
X106517Y018125D01*
X101517Y018125D01*
X101267Y018375D01*
X100267Y018375D02*
X100017Y018625D01*
X063017Y018625D01*
X062517Y018125D01*
X058517Y018125D01*
X058267Y018375D01*
X057267Y018375D02*
X057017Y018625D01*
X015517Y018625D01*
X015267Y018875D01*
X013267Y019125D02*
X008267Y019125D01*
X007767Y018875D02*
X008017Y018625D01*
X009517Y018625D01*
X009767Y018875D01*
X012017Y018875D01*
X012267Y018625D01*
X012767Y018625D02*
X013017Y018375D01*
X054517Y018375D01*
X054767Y018125D01*
X055767Y018125D02*
X056017Y017875D01*
X062767Y017875D01*
X063267Y018375D01*
X097517Y018375D01*
X097767Y018125D01*
X098767Y018125D02*
X099017Y017875D01*
X106767Y017875D01*
X107267Y018375D01*
X141767Y018375D01*
X142267Y018125D01*
X139767Y017875D02*
X139517Y018125D01*
X107517Y018125D01*
X107017Y017625D01*
X096517Y017625D01*
X096267Y017875D01*
X095267Y017875D02*
X095017Y018125D01*
X063517Y018125D01*
X063017Y017625D01*
X053517Y017625D01*
X053267Y017875D01*
X052267Y017875D02*
X052017Y018125D01*
X027267Y018125D01*
X027017Y017875D01*
X012267Y017875D01*
X011517Y018625D01*
X010517Y018625D01*
X010267Y018375D01*
X009767Y017875D02*
X009517Y018125D01*
X009267Y018125D01*
X009767Y017875D02*
X011017Y017875D01*
X011267Y018125D01*
X008267Y017625D02*
X027267Y017625D01*
X027517Y017875D01*
X049517Y017875D01*
X049767Y017625D01*
X050767Y017625D02*
X051017Y017375D01*
X063267Y017375D01*
X063767Y017875D01*
X092517Y017875D01*
X092767Y017625D01*
X093767Y017625D02*
X094017Y017375D01*
X107267Y017375D01*
X107767Y017875D01*
X137017Y017875D01*
X137267Y017625D01*
X134767Y017375D02*
X134517Y017625D01*
X108017Y017625D01*
X107517Y017125D01*
X091517Y017125D01*
X091267Y017375D01*
X090267Y017375D02*
X090017Y017625D01*
X064017Y017625D01*
X063517Y017125D01*
X048517Y017125D01*
X048267Y017375D01*
X047267Y017375D02*
X047017Y017625D01*
X027767Y017625D01*
X027517Y017375D01*
X005767Y017375D01*
X005267Y017875D01*
X007767Y018125D02*
X008267Y017625D01*
X003267Y017125D02*
X027767Y017125D01*
X028017Y017375D01*
X044517Y017375D01*
X044767Y017125D01*
X045767Y017125D02*
X046017Y016875D01*
X063767Y016875D01*
X064267Y017375D01*
X087517Y017375D01*
X087767Y017125D01*
X088767Y017125D02*
X089017Y016875D01*
X107767Y016875D01*
X108267Y017375D01*
X132017Y017375D01*
X132267Y017125D01*
X118267Y013875D02*
X160767Y013875D01*
X161017Y014125D01*
X160517Y014375D02*
X160267Y014125D01*
X117767Y014125D01*
X117517Y013875D01*
X117267Y013625D01*
X089267Y013625D01*
X088767Y014125D01*
X074767Y014125D01*
X074517Y013875D01*
X074267Y013625D01*
X049767Y013625D01*
X049517Y013375D01*
X048017Y013375D01*
X047517Y013875D01*
X031517Y013875D01*
X031267Y013625D01*
X031767Y013375D02*
X032017Y013625D01*
X045017Y013625D01*
X045267Y013375D01*
X045517Y013625D01*
X047267Y013625D01*
X047767Y013125D01*
X064767Y013125D01*
X065017Y013375D01*
X074517Y013375D01*
X075017Y013625D01*
X075267Y013875D01*
X088517Y013875D01*
X089017Y013375D01*
X117767Y013375D01*
X118017Y013625D01*
X118267Y013875D01*
X119017Y013375D02*
X119267Y013625D01*
X161767Y013625D01*
X162017Y013875D01*
X162767Y013375D02*
X163017Y013625D01*
X162767Y013375D02*
X120267Y013375D01*
X120017Y013125D01*
X119767Y012875D01*
X088517Y012875D01*
X088017Y013375D01*
X077267Y013375D01*
X077017Y013125D01*
X076517Y012875D01*
X065517Y012875D01*
X065267Y012625D01*
X043767Y012625D01*
X043517Y012875D01*
X043267Y013125D01*
X034017Y013125D01*
X033767Y012875D01*
X034267Y012625D02*
X034517Y012875D01*
X042767Y012875D01*
X043517Y012125D01*
X043767Y012125D01*
X065267Y012125D01*
X065767Y012625D01*
X077017Y012625D01*
X077517Y012875D01*
X077767Y013125D01*
X087767Y013125D01*
X088267Y012625D01*
X120267Y012625D01*
X120517Y012875D01*
X120767Y013125D01*
X163267Y013125D01*
X163517Y013375D01*
X163767Y012875D02*
X164017Y013125D01*
X163767Y012875D02*
X121267Y012875D01*
X121017Y012625D01*
X120767Y012375D01*
X088017Y012375D01*
X087517Y012875D01*
X078267Y012875D01*
X078017Y012625D01*
X077517Y012375D01*
X066017Y012375D01*
X065267Y011625D01*
X043517Y011625D01*
X042517Y012625D01*
X035017Y012625D01*
X034767Y012375D01*
X035767Y012125D02*
X036017Y012375D01*
X042267Y012375D01*
X043267Y011375D01*
X065517Y011375D01*
X066267Y012125D01*
X078517Y012125D01*
X079017Y012375D01*
X079267Y012625D01*
X087267Y012625D01*
X087767Y012125D01*
X121767Y012125D01*
X122017Y012375D01*
X122267Y012625D01*
X164767Y012625D01*
X165017Y012875D01*
X165767Y012375D02*
X166017Y012625D01*
X165767Y012375D02*
X123267Y012375D01*
X123017Y012125D01*
X122767Y011875D01*
X087517Y011875D01*
X087017Y012375D01*
X080267Y012375D01*
X080017Y012125D01*
X079517Y011875D01*
X066517Y011875D01*
X065767Y011125D01*
X043017Y011125D01*
X042017Y012125D01*
X037017Y012125D01*
X036767Y011875D01*
X036267Y011375D01*
X034017Y011375D01*
X035267Y010875D02*
X036767Y010875D01*
X037267Y011375D01*
X037267Y011625D01*
X037517Y011875D01*
X041767Y011875D01*
X042767Y010875D01*
X066017Y010875D01*
X066767Y011625D01*
X080017Y011625D01*
X080517Y011875D01*
X080767Y012125D01*
X086767Y012125D01*
X087267Y011625D01*
X123267Y011625D01*
X123517Y011875D01*
X123767Y012125D01*
X166267Y012125D01*
X166517Y012375D01*
X166767Y011875D02*
X167017Y012125D01*
X166767Y011875D02*
X124267Y011875D01*
X124017Y011625D01*
X123767Y011375D01*
X087017Y011375D01*
X086517Y011875D01*
X081267Y011875D01*
X081017Y011625D01*
X080517Y011375D01*
X067017Y011375D01*
X066267Y010625D01*
X042517Y010625D01*
X041517Y011625D01*
X038017Y011625D01*
X037767Y011375D01*
X036767Y010375D01*
X035017Y010375D01*
X034767Y010625D01*
X033517Y010625D01*
X033267Y010125D01*
X032767Y009625D02*
X032267Y010125D01*
X030767Y010125D01*
X030267Y009625D01*
X031767Y009625D02*
X032017Y009375D01*
X038017Y009375D01*
X039267Y010625D01*
X039517Y010875D01*
X040767Y010875D01*
X041767Y009875D01*
X067017Y009875D01*
X067767Y010625D01*
X083267Y010625D01*
X083517Y010875D01*
X083767Y011125D01*
X085767Y011125D01*
X086267Y010625D01*
X126267Y010625D01*
X126517Y010875D01*
X126767Y011125D01*
X169267Y011125D01*
X169517Y011375D01*
X169767Y010875D02*
X170017Y011125D01*
X169767Y010875D02*
X127267Y010875D01*
X127017Y010625D01*
X126767Y010375D01*
X085767Y010375D01*
X085517Y010625D01*
X084017Y010625D01*
X083767Y010375D01*
X068017Y010375D01*
X067267Y009625D01*
X041517Y009625D01*
X040517Y010625D01*
X040017Y010625D01*
X039767Y010375D01*
X038517Y009125D01*
X027517Y009125D01*
X027267Y008875D01*
X027267Y008375D01*
X028767Y008375D02*
X028767Y008625D01*
X029017Y008875D01*
X039017Y008875D01*
X040267Y010125D01*
X041017Y009375D01*
X067517Y009375D01*
X068267Y010125D01*
X085017Y010125D01*
X128017Y010125D01*
X128517Y010625D01*
X170767Y010625D01*
X171017Y010875D01*
X169017Y011625D02*
X168767Y011375D01*
X126267Y011375D01*
X126017Y011125D01*
X125767Y010875D01*
X086517Y010875D01*
X086017Y011375D01*
X083267Y011375D01*
X083017Y011125D01*
X082767Y010875D01*
X067517Y010875D01*
X066767Y010125D01*
X042017Y010125D01*
X041017Y011125D01*
X039017Y011125D01*
X038767Y010875D01*
X037517Y009625D01*
X032767Y009625D01*
X034517Y010125D02*
X034767Y009875D01*
X037017Y009875D01*
X038267Y011125D01*
X038517Y011375D01*
X041267Y011375D01*
X042267Y010375D01*
X066517Y010375D01*
X067267Y011125D01*
X081767Y011125D01*
X082017Y011375D01*
X082267Y011625D01*
X086267Y011625D01*
X086767Y011125D01*
X124767Y011125D01*
X125017Y011375D01*
X125267Y011625D01*
X167767Y011625D01*
X168017Y011875D01*
X159017Y014625D02*
X158767Y014375D01*
X116267Y014375D01*
X116017Y014125D01*
X115767Y013875D01*
X089517Y013875D01*
X089017Y014375D01*
X073267Y014375D01*
X073017Y014125D01*
X072767Y013875D01*
X050517Y013875D01*
X050267Y014125D01*
X049017Y014125D01*
X048767Y013875D01*
X048267Y013875D01*
X048017Y014125D01*
X030267Y014125D01*
X030017Y013875D01*
X027267Y014375D02*
X027017Y014125D01*
X027267Y014375D02*
X050517Y014375D01*
X050767Y014125D01*
X069767Y014125D01*
X070017Y014375D01*
X070267Y014625D01*
X089267Y014625D01*
X089767Y014125D01*
X113017Y014125D01*
X113267Y014375D01*
X113517Y014625D01*
X156017Y014625D01*
X156267Y014875D01*
X155267Y015125D02*
X155017Y014875D01*
X112517Y014875D01*
X112267Y014625D01*
X112017Y014375D01*
X090017Y014375D01*
X089517Y014875D01*
X069517Y014875D01*
X069267Y014625D01*
X069017Y014375D01*
X051017Y014375D01*
X050767Y014625D01*
X026517Y014625D01*
X026267Y014375D01*
X025767Y014875D02*
X051017Y014875D01*
X051267Y014625D01*
X068517Y014625D01*
X068767Y014875D01*
X069017Y015125D01*
X089767Y015125D01*
X090267Y014625D01*
X111517Y014625D01*
X111767Y014875D01*
X112017Y015125D01*
X154517Y015125D01*
X154767Y015375D01*
X154267Y015625D02*
X154017Y015375D01*
X111517Y015375D01*
X111267Y015125D01*
X111017Y014875D01*
X090517Y014875D01*
X090017Y015375D01*
X068517Y015375D01*
X068267Y015125D01*
X068017Y014875D01*
X051517Y014875D01*
X051267Y015125D01*
X025017Y015125D01*
X024767Y014875D01*
X024267Y015375D02*
X024017Y015125D01*
X024267Y015375D02*
X051517Y015375D01*
X051767Y015125D01*
X067017Y015125D01*
X067267Y015375D01*
X067517Y015625D01*
X090267Y015625D01*
X090767Y015125D01*
X110017Y015125D01*
X110267Y015375D01*
X110517Y015625D01*
X153017Y015625D01*
X153267Y015875D01*
X152267Y016125D02*
X152017Y015875D01*
X109767Y015875D01*
X109517Y015625D01*
X109267Y015375D01*
X091017Y015375D01*
X090517Y015875D01*
X066517Y015875D01*
X066267Y015625D01*
X066017Y015375D01*
X052017Y015375D01*
X051767Y015625D01*
X023517Y015625D01*
X023267Y015375D01*
X022517Y015875D02*
X052017Y015875D01*
X052267Y015625D01*
X065517Y015625D01*
X065767Y015875D01*
X066017Y016125D01*
X090767Y016125D01*
X091267Y015625D01*
X108767Y015625D01*
X109017Y015875D01*
X109267Y016125D01*
X151517Y016125D01*
X151767Y016375D01*
X150267Y016625D02*
X150017Y016375D01*
X108517Y016375D01*
X108267Y016125D01*
X108017Y015875D01*
X091517Y015875D01*
X091017Y016375D01*
X065517Y016375D01*
X065267Y016125D01*
X065017Y015875D01*
X052517Y015875D01*
X052267Y016125D01*
X021267Y016125D01*
X022267Y015625D02*
X022517Y015875D01*
X025517Y014625D02*
X025767Y014875D01*
X032767Y013125D02*
X033017Y013375D01*
X044017Y013375D01*
X044517Y012875D01*
X046517Y012875D01*
X046767Y013125D01*
X047017Y013125D01*
X047267Y012875D01*
X065017Y012875D01*
X065267Y013125D01*
X075517Y013125D01*
X076017Y013375D01*
X076267Y013625D01*
X088267Y013625D01*
X088767Y013125D01*
X118767Y013125D01*
X119017Y013375D01*
X114767Y016625D02*
X148267Y016625D01*
X149017Y017375D01*
X157517Y017375D01*
X149767Y018875D02*
X149517Y019125D01*
X106267Y019125D01*
X106517Y018625D02*
X106767Y018875D01*
X106517Y018625D02*
X103767Y018625D01*
X102767Y018625D02*
X102517Y018875D01*
X062767Y018875D01*
X062517Y018625D01*
X060767Y018625D01*
X059767Y018625D02*
X059517Y018875D01*
X018017Y018875D01*
X017767Y019125D01*
X020267Y019375D02*
X020517Y019125D01*
X062267Y019125D01*
X063267Y019375D02*
X063517Y019125D01*
X105267Y019125D01*
X110767Y019875D02*
X111267Y020125D01*
X111267Y021625D01*
X111267Y021875D01*
X110267Y022875D01*
X110267Y029125D01*
X109767Y029625D01*
X103017Y029625D01*
X102767Y029875D01*
X102767Y030875D01*
X102267Y031375D01*
X101767Y030875D02*
X101267Y031375D01*
X100767Y030875D02*
X100267Y031375D01*
X103267Y031375D02*
X103767Y030875D01*
X103767Y030125D01*
X104017Y029875D01*
X111267Y029875D01*
X111767Y029375D01*
X111767Y022875D01*
X112767Y021875D01*
X112767Y021625D01*
X114017Y021625D02*
X115017Y022625D01*
X115017Y023125D01*
X114517Y023125D01*
X113517Y024125D01*
X113517Y028125D01*
X115767Y030375D01*
X108767Y028875D02*
X108767Y022875D01*
X109767Y021875D01*
X109767Y021625D01*
X105767Y021625D02*
X105767Y020625D01*
X107017Y023125D02*
X107017Y028625D01*
X106517Y029125D01*
X101017Y029125D01*
X100767Y029375D01*
X100767Y030875D01*
X101767Y030875D02*
X101767Y029625D01*
X102017Y029375D01*
X108267Y029375D01*
X108767Y028875D01*
X105767Y027125D02*
X105267Y027625D01*
X104767Y027625D01*
X103267Y027125D02*
X102767Y027625D01*
X102267Y027625D01*
X100767Y027125D02*
X100267Y027625D01*
X099767Y027625D01*
X098267Y027125D02*
X097767Y027625D01*
X097267Y027625D01*
X095767Y027125D02*
X095267Y027625D01*
X094767Y027625D01*
X093267Y027125D02*
X092767Y027625D01*
X092267Y027625D01*
X090767Y027125D02*
X090267Y027625D01*
X089767Y027625D01*
X088267Y027125D02*
X087767Y027625D01*
X087267Y027625D01*
X083517Y027375D02*
X083517Y022875D01*
X084517Y021875D01*
X084517Y021625D01*
X083017Y021625D02*
X083017Y021875D01*
X082017Y022875D01*
X082017Y027625D01*
X080767Y028875D01*
X080767Y030375D01*
X081767Y030375D02*
X081767Y029125D01*
X083517Y027375D01*
X080517Y028125D02*
X080517Y022875D01*
X081517Y021875D01*
X081517Y021625D01*
X083017Y021625D02*
X083017Y020125D01*
X082517Y019625D01*
X080017Y020125D02*
X079517Y019625D01*
X080017Y020125D02*
X080017Y021625D01*
X080017Y021875D01*
X079017Y022875D01*
X079017Y027375D01*
X078767Y027625D01*
X078767Y030375D01*
X079767Y030375D02*
X079767Y028875D01*
X080517Y028125D01*
X077767Y029625D02*
X077517Y029375D01*
X077517Y022875D01*
X078517Y021875D01*
X078517Y021625D01*
X077017Y021625D02*
X077017Y021875D01*
X076017Y022875D01*
X076017Y029375D01*
X076767Y030125D01*
X076767Y030375D01*
X077767Y030375D02*
X077767Y029625D01*
X075767Y030375D02*
X074517Y029125D01*
X074517Y022875D01*
X075517Y021875D01*
X075517Y021625D01*
X077017Y021625D02*
X077017Y020125D01*
X076517Y019625D01*
X070517Y019625D02*
X070267Y019375D01*
X064517Y019375D01*
X064017Y019875D01*
X064017Y023375D01*
X063767Y023625D01*
X062767Y023625D01*
X060267Y023625D01*
X057767Y023625D01*
X055267Y023625D01*
X052767Y023625D01*
X050267Y023625D01*
X047767Y023625D01*
X045267Y023625D01*
X041517Y021875D02*
X040517Y022875D01*
X040517Y027125D01*
X038767Y028875D01*
X038767Y030375D01*
X037767Y030375D02*
X037767Y028625D01*
X039017Y027375D01*
X039017Y022875D01*
X040017Y021875D01*
X040017Y021625D01*
X040017Y020125D01*
X039517Y019625D01*
X037017Y020125D02*
X036517Y019625D01*
X037017Y020125D02*
X037017Y021625D01*
X037017Y021875D01*
X036017Y022875D01*
X036017Y028625D01*
X035767Y028875D01*
X035767Y030375D01*
X036767Y030375D02*
X036767Y028875D01*
X037517Y028125D01*
X037517Y022875D01*
X038517Y021875D01*
X038517Y021625D01*
X038517Y020375D01*
X035517Y020375D02*
X035517Y021625D01*
X035517Y021875D01*
X034517Y022875D01*
X034517Y025125D01*
X034767Y025375D01*
X034767Y030375D01*
X033767Y030375D02*
X033767Y028125D01*
X033017Y027375D01*
X033017Y022875D01*
X034017Y021875D01*
X034017Y021625D01*
X034017Y020125D01*
X033517Y019625D01*
X032517Y020375D02*
X032517Y021625D01*
X032517Y021875D01*
X031517Y022875D01*
X031517Y027625D01*
X032767Y028875D01*
X032767Y030375D01*
X031767Y030375D02*
X031767Y029125D01*
X030017Y027375D01*
X030017Y022875D01*
X031017Y021875D01*
X031017Y021625D01*
X031017Y020125D01*
X030517Y019625D01*
X028017Y019625D02*
X027767Y019375D01*
X021267Y019375D01*
X021017Y019625D01*
X021017Y023375D01*
X020767Y023625D01*
X019767Y023625D01*
X017267Y023625D01*
X014767Y023625D01*
X012267Y023625D01*
X009767Y023625D01*
X007267Y023625D01*
X004767Y023625D01*
X002267Y023625D01*
X002017Y024625D02*
X001267Y024625D01*
X002017Y024625D02*
X002267Y024875D01*
X003767Y024625D02*
X004517Y024625D01*
X004767Y024875D01*
X006267Y024625D02*
X007017Y024625D01*
X007267Y024875D01*
X008767Y024625D02*
X009517Y024625D01*
X009767Y024875D01*
X011267Y024625D02*
X012017Y024625D01*
X012267Y024875D01*
X013767Y024625D02*
X014517Y024625D01*
X014767Y024875D01*
X016267Y024625D02*
X017017Y024625D01*
X017267Y024875D01*
X017767Y025375D02*
X017767Y028375D01*
X017517Y028625D01*
X013767Y028625D01*
X012767Y029625D01*
X012767Y030875D01*
X012267Y031375D01*
X014267Y031375D02*
X014767Y030875D01*
X014767Y029375D01*
X015267Y028875D01*
X020767Y028875D01*
X021267Y028375D01*
X021267Y022875D01*
X022267Y021875D01*
X022267Y021625D01*
X022267Y020375D01*
X021767Y019875D01*
X024767Y019875D02*
X025267Y020375D01*
X025267Y021625D01*
X025267Y021875D01*
X024267Y022875D01*
X024267Y028875D01*
X023767Y029375D01*
X017267Y029375D01*
X016767Y029875D01*
X016767Y030875D01*
X016267Y031375D01*
X015767Y030875D02*
X015267Y031375D01*
X017267Y031375D02*
X017767Y030875D01*
X017767Y030125D01*
X018267Y029625D01*
X025267Y029625D01*
X025767Y029125D01*
X025767Y022875D01*
X026767Y021875D01*
X026767Y021625D01*
X028017Y020875D02*
X028517Y021375D01*
X029517Y021375D01*
X028017Y020875D02*
X028017Y019625D01*
X023767Y021625D02*
X023767Y021875D01*
X022767Y022875D01*
X022767Y028625D01*
X022267Y029125D01*
X016267Y029125D01*
X015767Y029625D01*
X015767Y030875D01*
X016267Y027625D02*
X016767Y027625D01*
X017267Y027125D01*
X018767Y027625D02*
X019267Y027625D01*
X019767Y027125D01*
X014767Y027125D02*
X014267Y027625D01*
X013767Y027625D01*
X012267Y027125D02*
X011767Y027625D01*
X011267Y027625D01*
X009767Y027125D02*
X009267Y027625D01*
X008767Y027625D01*
X007267Y027125D02*
X006767Y027625D01*
X006267Y027625D01*
X004767Y027125D02*
X004267Y027625D01*
X003767Y027625D01*
X002267Y027125D02*
X001767Y027625D01*
X001267Y027625D01*
X018767Y024625D02*
X019517Y024625D01*
X019767Y024875D01*
X028017Y024625D02*
X028017Y024125D01*
X029017Y023125D01*
X020267Y021625D02*
X019767Y022125D01*
X003017Y022125D01*
X002767Y021375D02*
X003267Y020875D01*
X003267Y018375D01*
X002517Y017625D01*
X002517Y017125D01*
X002767Y016875D01*
X013517Y016875D01*
X013767Y016625D01*
X013767Y016375D01*
X014517Y015625D01*
X014017Y014625D02*
X013517Y015125D01*
X012767Y015125D01*
X012017Y014375D01*
X012017Y013125D01*
X012517Y012625D01*
X012517Y013375D02*
X014017Y011875D01*
X014517Y011875D01*
X011517Y011875D02*
X011017Y011875D01*
X009517Y013375D01*
X009517Y014125D01*
X009017Y014375D02*
X009017Y013125D01*
X009517Y012625D01*
X008517Y011875D02*
X008017Y011875D01*
X006517Y013375D01*
X006517Y014125D01*
X006017Y014375D02*
X006017Y013125D01*
X006517Y012625D01*
X003517Y012625D02*
X003017Y013125D01*
X003017Y014375D01*
X003767Y015125D01*
X004517Y015125D01*
X005017Y014625D01*
X005017Y014125D01*
X006017Y014375D02*
X006767Y015125D01*
X007517Y015125D01*
X008017Y014625D01*
X008017Y014125D01*
X009017Y014375D02*
X009767Y015125D01*
X010517Y015125D01*
X011017Y014625D01*
X011017Y014125D01*
X012517Y014125D02*
X012517Y013375D01*
X014017Y014125D02*
X014017Y014625D01*
X005017Y011875D02*
X003517Y013375D01*
X003517Y014125D01*
X005017Y011875D02*
X005517Y011875D01*
X013517Y007625D02*
X016767Y010875D01*
X024767Y010875D01*
X025017Y011125D01*
X025017Y012125D01*
X026517Y012125D02*
X026517Y010625D01*
X026267Y010375D01*
X016767Y010375D01*
X013767Y007375D01*
X010017Y007375D01*
X008267Y005625D01*
X008267Y004625D01*
X008767Y004125D01*
X009267Y004625D02*
X009767Y004125D01*
X010267Y004625D02*
X010767Y004125D01*
X011767Y004125D02*
X012267Y004625D01*
X012267Y005625D01*
X012517Y005875D01*
X015267Y005875D01*
X016017Y006625D01*
X017017Y006625D01*
X017517Y007125D01*
X016767Y009375D02*
X014267Y006875D01*
X010517Y006875D01*
X009267Y005625D01*
X009267Y004625D01*
X009767Y005125D02*
X009767Y005375D01*
X011017Y006625D01*
X014517Y006625D01*
X016767Y008875D01*
X019017Y008875D01*
X016767Y009375D02*
X023517Y009375D01*
X022017Y009875D02*
X016767Y009875D01*
X014017Y007125D01*
X010267Y007125D01*
X008767Y005625D01*
X008767Y005125D01*
X007767Y005125D02*
X007767Y005625D01*
X009767Y007625D01*
X013517Y007625D01*
X014767Y006375D02*
X016767Y008375D01*
X020517Y008375D01*
X017017Y007875D02*
X016767Y007875D01*
X015017Y006125D01*
X011517Y006125D01*
X010767Y005375D01*
X010767Y005125D01*
X010267Y005375D02*
X010267Y004625D01*
X010267Y005375D02*
X011267Y006375D01*
X014767Y006375D01*
X032767Y006125D02*
X033017Y005875D01*
X039017Y005875D01*
X039267Y005625D01*
X039267Y004625D01*
X039767Y004125D01*
X040267Y004625D02*
X040767Y004125D01*
X043767Y004125D02*
X044267Y004625D01*
X044267Y006375D01*
X044767Y006875D01*
X044767Y007625D01*
X047767Y007625D02*
X047767Y006125D01*
X047517Y005875D01*
X045517Y005875D01*
X045267Y005625D01*
X045267Y004625D01*
X044767Y004125D01*
X040767Y005125D02*
X040767Y006375D01*
X040517Y006625D01*
X037517Y006625D01*
X037267Y006875D01*
X037267Y007875D01*
X035767Y007875D02*
X035767Y006625D01*
X036017Y006375D01*
X040017Y006375D01*
X040267Y006125D01*
X040267Y004625D01*
X039767Y005125D02*
X039767Y005875D01*
X039517Y006125D01*
X034517Y006125D01*
X034267Y006375D01*
X034267Y007875D01*
X032767Y007875D02*
X032767Y006125D01*
X053017Y008625D02*
X085017Y008625D01*
X086017Y009625D01*
X098267Y009625D01*
X099267Y008625D01*
X101517Y007125D02*
X102517Y008125D01*
X104767Y008125D01*
X105767Y007125D01*
X107767Y007125D01*
X110017Y006625D02*
X104267Y006625D01*
X103767Y007125D01*
X103267Y006625D01*
X094517Y006625D01*
X093767Y007375D01*
X093267Y007375D01*
X099767Y007125D02*
X101517Y007125D01*
X099767Y006125D02*
X103767Y006125D01*
X105267Y005125D02*
X106267Y006125D01*
X107767Y006125D01*
X111517Y006125D01*
X110517Y007125D02*
X110017Y006625D01*
X110517Y007125D02*
X111517Y007125D01*
X103267Y008625D02*
X102017Y009875D01*
X085767Y009875D01*
X085267Y009375D01*
X069767Y009375D01*
X055767Y007625D02*
X054767Y007625D01*
X093267Y004875D02*
X097017Y004875D01*
X097267Y005125D01*
X105267Y005125D01*
X108017Y016625D02*
X072017Y016625D01*
X071767Y016875D01*
X071517Y016875D01*
X064767Y016875D01*
X064267Y016375D01*
X055267Y016375D01*
X028767Y016375D01*
X028517Y016625D01*
X029017Y016875D02*
X043517Y016875D01*
X041517Y020375D02*
X041517Y021625D01*
X041517Y021875D01*
X044267Y021625D02*
X045267Y021625D01*
X045267Y022625D01*
X047767Y022625D02*
X047767Y021625D01*
X046767Y021625D01*
X047767Y021625D02*
X047767Y020875D01*
X050267Y020875D02*
X050267Y021625D01*
X049267Y021625D01*
X050267Y021625D02*
X050267Y022625D01*
X052767Y022625D02*
X052767Y021625D01*
X051767Y021625D01*
X052767Y021625D02*
X052767Y020875D01*
X055267Y020875D02*
X055267Y021625D01*
X054267Y021625D01*
X055267Y021625D02*
X055267Y022625D01*
X057767Y022625D02*
X057767Y021625D01*
X056767Y021625D01*
X057767Y021625D02*
X057767Y020875D01*
X059267Y021625D02*
X060267Y021625D01*
X060267Y022625D01*
X062767Y022625D02*
X062767Y021625D01*
X061767Y021625D01*
X062767Y021625D02*
X062767Y020875D01*
X060267Y020875D02*
X060267Y021625D01*
X064267Y022625D02*
X065267Y021625D01*
X065767Y022875D02*
X066767Y021875D01*
X066767Y021625D01*
X067267Y022875D02*
X068267Y021875D01*
X068267Y021625D01*
X068267Y020125D01*
X067767Y019875D01*
X070517Y019625D02*
X070517Y021125D01*
X071017Y021625D01*
X072267Y021625D01*
X072517Y021375D01*
X069767Y021625D02*
X069767Y021875D01*
X068767Y022875D01*
X068767Y029375D01*
X068267Y029875D01*
X062517Y029875D01*
X061517Y030875D01*
X060767Y030875D01*
X060267Y031375D01*
X059767Y030875D02*
X059267Y031375D01*
X058767Y030875D02*
X058267Y031375D01*
X057767Y030875D02*
X057267Y031375D01*
X057767Y030875D02*
X057767Y029625D01*
X058267Y029125D01*
X063767Y029125D01*
X064267Y028625D01*
X064267Y022625D01*
X065767Y022875D02*
X065767Y028875D01*
X065267Y029375D01*
X059017Y029375D01*
X058767Y029625D01*
X058767Y030875D01*
X059767Y030875D02*
X059767Y030125D01*
X060267Y029625D01*
X066767Y029625D01*
X067267Y029125D01*
X067267Y022875D01*
X071017Y024125D02*
X072017Y023125D01*
X071017Y024125D02*
X071017Y024625D01*
X062767Y024875D02*
X062517Y024625D01*
X061767Y024625D01*
X060267Y024875D02*
X060017Y024625D01*
X059267Y024625D01*
X057767Y024875D02*
X057517Y024625D01*
X056767Y024625D01*
X055267Y024875D02*
X055017Y024625D01*
X054267Y024625D01*
X052767Y024875D02*
X052517Y024625D01*
X051767Y024625D01*
X050267Y024875D02*
X050017Y024625D01*
X049267Y024625D01*
X047767Y024875D02*
X047517Y024625D01*
X046767Y024625D01*
X045267Y024875D02*
X045017Y024625D01*
X044267Y024625D01*
X045267Y027125D02*
X044767Y027625D01*
X044267Y027625D01*
X046767Y027625D02*
X047267Y027625D01*
X047767Y027125D01*
X049267Y027625D02*
X049767Y027625D01*
X050267Y027125D01*
X051767Y027625D02*
X052267Y027625D01*
X052767Y027125D01*
X054267Y027625D02*
X054767Y027625D01*
X055267Y027125D01*
X056767Y027625D02*
X057267Y027625D01*
X057767Y027125D01*
X059267Y027625D02*
X059767Y027625D01*
X060267Y027125D01*
X061767Y027625D02*
X062267Y027625D01*
X062767Y027125D01*
X087267Y024625D02*
X088017Y024625D01*
X088267Y024875D01*
X089767Y024625D02*
X090517Y024625D01*
X090767Y024875D01*
X092267Y024625D02*
X093017Y024625D01*
X093267Y024875D01*
X094767Y024625D02*
X095517Y024625D01*
X095767Y024875D01*
X097267Y024625D02*
X098017Y024625D01*
X098267Y024875D01*
X099767Y024625D02*
X100517Y024625D01*
X100767Y024875D01*
X102267Y024625D02*
X103017Y024625D01*
X103267Y024875D01*
X104767Y024625D02*
X105517Y024625D01*
X105767Y024875D01*
X114017Y024625D02*
X115267Y024625D01*
X115517Y024375D01*
X115517Y023625D01*
X127517Y021875D02*
X127517Y021625D01*
X130267Y024625D02*
X131017Y024625D01*
X131267Y024875D01*
X132767Y024625D02*
X133517Y024625D01*
X133767Y024875D01*
X135267Y024625D02*
X136017Y024625D01*
X136267Y024875D01*
X137767Y024625D02*
X138517Y024625D01*
X138767Y024875D01*
X140267Y024625D02*
X141017Y024625D01*
X141267Y024875D01*
X142767Y024625D02*
X143517Y024625D01*
X143767Y024875D01*
X145267Y024625D02*
X146017Y024625D01*
X146267Y024875D01*
X147767Y024625D02*
X148517Y024625D01*
X148767Y024875D01*
X157017Y024625D02*
X157767Y023625D01*
X158517Y023625D01*
X155767Y021875D02*
X154767Y022875D01*
X154767Y029125D01*
X154267Y029625D01*
X147267Y029625D01*
X146767Y030125D01*
X146767Y030875D01*
X146267Y031375D01*
X145767Y030875D02*
X145267Y031375D01*
X144767Y030875D02*
X144267Y031375D01*
X143767Y030875D02*
X143267Y031375D01*
X143767Y030875D02*
X143767Y029375D01*
X144267Y028875D01*
X149767Y028875D01*
X150267Y028375D01*
X150267Y022875D01*
X151267Y021875D01*
X151267Y021625D01*
X151767Y022875D02*
X152767Y021875D01*
X152767Y021625D01*
X153267Y022875D02*
X154267Y021875D01*
X154267Y021625D01*
X154267Y020125D01*
X153767Y019625D01*
X155767Y021625D02*
X155767Y021875D01*
X153267Y022875D02*
X153267Y028875D01*
X152767Y029375D01*
X146267Y029375D01*
X145767Y029875D01*
X145767Y030875D01*
X144767Y030875D02*
X144767Y029625D01*
X145267Y029125D01*
X151267Y029125D01*
X151767Y028625D01*
X151767Y022875D01*
X164517Y021875D02*
X164517Y021625D01*
X148767Y027125D02*
X148267Y027625D01*
X147767Y027625D01*
X146267Y027125D02*
X145767Y027625D01*
X145267Y027625D01*
X143767Y027125D02*
X143267Y027625D01*
X142767Y027625D01*
X141267Y027125D02*
X140767Y027625D01*
X140267Y027625D01*
X138767Y027125D02*
X138267Y027625D01*
X137767Y027625D01*
X136267Y027125D02*
X135767Y027625D01*
X135267Y027625D01*
X133767Y027125D02*
X133267Y027625D01*
X132767Y027625D01*
X131267Y027125D02*
X130767Y027625D01*
X130267Y027625D01*
X114767Y016625D02*
X114517Y016875D01*
X108267Y016875D01*
X108017Y016625D01*
X045267Y020875D02*
X045267Y021625D01*
X020267Y021625D02*
X020267Y021375D01*
X017767Y021375D02*
X017017Y021375D01*
X016767Y021125D01*
X016017Y021125D01*
X015767Y021375D01*
X015767Y021625D01*
X015517Y021875D01*
X014767Y021875D01*
X014017Y021125D01*
X013517Y021125D01*
X013267Y021375D01*
X013267Y021625D01*
X013017Y021875D01*
X012267Y021875D01*
X011517Y021125D01*
X011017Y021125D01*
X010767Y021375D01*
X010767Y021625D01*
X010517Y021875D01*
X009767Y021875D01*
X009017Y021125D01*
X008517Y021125D01*
X008267Y021375D01*
X008267Y021625D01*
X008017Y021875D01*
X007267Y021875D01*
X006517Y021125D01*
X006017Y021125D01*
X005767Y020875D01*
X004517Y021375D02*
X004017Y020875D01*
X004517Y021375D02*
X005267Y021375D01*
X008017Y019875D02*
X008267Y020125D01*
X009267Y020125D01*
X009517Y019875D01*
X010767Y019875D01*
X011017Y020125D01*
X012017Y020125D01*
X012267Y019875D01*
X013017Y019875D01*
X013517Y020375D01*
X014267Y020375D01*
X014767Y019875D01*
X015517Y019875D01*
X015767Y020125D01*
X015767Y020625D01*
X015267Y021125D01*
X015267Y021375D01*
X008017Y019875D02*
X007267Y019875D01*
X007017Y019625D01*
X007767Y018875D02*
X004517Y018875D01*
X003017Y017375D02*
X003267Y017125D01*
D16*
X003017Y017375D03*
X005267Y017875D03*
X007767Y018125D03*
X009267Y018125D03*
X010267Y018375D03*
X011267Y018125D03*
X012267Y018625D03*
X012767Y018625D03*
X013267Y019125D03*
X015267Y018875D03*
X017767Y019125D03*
X020267Y019375D03*
X029017Y016875D03*
X028517Y016625D03*
X023267Y015375D03*
X024017Y015125D03*
X024767Y014875D03*
X025517Y014625D03*
X026267Y014375D03*
X027017Y014125D03*
X030017Y013875D03*
X031267Y013625D03*
X031767Y013375D03*
X032767Y013125D03*
X033767Y012875D03*
X034267Y012625D03*
X034767Y012375D03*
X035767Y012125D03*
X036767Y011875D03*
X037267Y011625D03*
X037767Y011375D03*
X038267Y011125D03*
X038767Y010875D03*
X039267Y010625D03*
X039767Y010375D03*
X040267Y010125D03*
X035267Y010875D03*
X034517Y010125D03*
X033267Y010125D03*
X031767Y009625D03*
X030267Y009625D03*
X023517Y009375D03*
X022017Y009875D03*
X019017Y008875D03*
X020517Y008375D03*
X017017Y007875D03*
X017517Y007125D03*
X034017Y011375D03*
X043517Y012875D03*
X045267Y013375D03*
X046767Y013125D03*
X049767Y013625D03*
X048267Y013875D03*
X043767Y012125D03*
X053017Y008625D03*
X069767Y009375D03*
X080517Y011875D03*
X081017Y011625D03*
X082017Y011375D03*
X083017Y011125D03*
X083517Y010875D03*
X084017Y010625D03*
X085017Y010125D03*
X080017Y012125D03*
X079017Y012375D03*
X078017Y012625D03*
X077517Y012875D03*
X077017Y013125D03*
X076017Y013375D03*
X075017Y013625D03*
X074517Y013875D03*
X073017Y014125D03*
X070017Y014375D03*
X069267Y014625D03*
X068767Y014875D03*
X068267Y015125D03*
X067267Y015375D03*
X066267Y015625D03*
X065767Y015875D03*
X065267Y016125D03*
X071517Y016875D03*
X062267Y019125D03*
X063267Y019375D03*
X060767Y018625D03*
X059767Y018625D03*
X058267Y018375D03*
X057267Y018375D03*
X055767Y018125D03*
X054767Y018125D03*
X053267Y017875D03*
X052267Y017875D03*
X050767Y017625D03*
X049767Y017625D03*
X048267Y017375D03*
X047267Y017375D03*
X045767Y017125D03*
X044767Y017125D03*
X043517Y016875D03*
X055267Y016375D03*
X087767Y017125D03*
X088767Y017125D03*
X090267Y017375D03*
X091267Y017375D03*
X092767Y017625D03*
X093767Y017625D03*
X095267Y017875D03*
X096267Y017875D03*
X097767Y018125D03*
X098767Y018125D03*
X100267Y018375D03*
X101267Y018375D03*
X102767Y018625D03*
X103767Y018625D03*
X105267Y019125D03*
X106267Y019125D03*
X114517Y016875D03*
X109517Y015625D03*
X109017Y015875D03*
X108267Y016125D03*
X110267Y015375D03*
X111267Y015125D03*
X111767Y014875D03*
X112267Y014625D03*
X113267Y014375D03*
X116017Y014125D03*
X117517Y013875D03*
X118017Y013625D03*
X119017Y013375D03*
X120017Y013125D03*
X120517Y012875D03*
X121017Y012625D03*
X122017Y012375D03*
X123017Y012125D03*
X123517Y011875D03*
X124017Y011625D03*
X125017Y011375D03*
X126017Y011125D03*
X126517Y010875D03*
X127017Y010625D03*
X128017Y010125D03*
X153267Y015875D03*
X154267Y015625D03*
X154767Y015375D03*
X155267Y015125D03*
X156267Y014875D03*
X159017Y014625D03*
X160517Y014375D03*
X161017Y014125D03*
X162017Y013875D03*
X163017Y013625D03*
X163517Y013375D03*
X164017Y013125D03*
X165017Y012875D03*
X166017Y012625D03*
X166517Y012375D03*
X167017Y012125D03*
X168017Y011875D03*
X169017Y011625D03*
X169517Y011375D03*
X170017Y011125D03*
X171017Y010875D03*
X152267Y016125D03*
X151767Y016375D03*
X150267Y016625D03*
X157517Y017375D03*
X149767Y018875D03*
X147267Y018625D03*
X144767Y018375D03*
X142267Y018125D03*
X139767Y017875D03*
X137267Y017625D03*
X134767Y017375D03*
X132267Y017125D03*
X022267Y015625D03*
X021267Y016125D03*
X008267Y019125D03*
X007017Y019625D03*
X004517Y018875D03*
X004017Y020875D03*
X005767Y020875D03*
X003017Y022125D03*
M02*
