G04 Output by ViewMate Deluxe V11.0.9  PentaLogix LLC*
G04 Mon Mar 30 14:28:05 2015*
%FSLAX33Y33*%
%MOMM*%
%IPPOS*%
%ADD125C,1.4122*%
%ADD126C,1.5113*%
%ADD127R,1.8542X1.8542*%
%ADD128C,1.8542*%
%ADD129C,3.1496*%
%ADD130R,2.0041X2.0041*%
%ADD131C,3.4036*%

%LPD*%
X0Y0D2*D125*G1X9296Y86360D3*X9296Y99060D3*X10566Y97790D3*X9296Y96520D3*X9296Y93980D3*X10566Y92710D3*X9296Y91440D3*X9296Y88900D3*X10566Y87630D3*X169951Y28575D3*X171221Y29845D3*X172491Y28575D3*X172491Y26035D3*X171221Y24765D3*X169951Y26035D3*X162966Y26035D3*X164236Y24765D3*X165506Y26035D3*X165506Y28575D3*X164236Y29845D3*X162966Y28575D3*X155981Y28575D3*X157251Y29845D3*X158521Y28575D3*X158521Y26035D3*X157251Y24765D3*X155981Y26035D3*X148996Y26035D3*X150266Y24765D3*X151536Y26035D3*X151536Y28575D3*X150266Y29845D3*X148996Y28575D3*X142011Y28575D3*X143281Y29845D3*X144551Y28575D3*X144551Y26035D3*X143281Y24765D3*X142011Y26035D3*X135026Y26035D3*X136296Y24765D3*X137566Y26035D3*X137566Y28575D3*X136296Y29845D3*X135026Y28575D3*X128041Y28575D3*X129311Y29845D3*X130581Y28575D3*X130581Y26035D3*X129311Y24765D3*X128041Y26035D3*X121056Y26035D3*X122326Y24765D3*X123596Y26035D3*X123596Y28575D3*X122326Y29845D3*X121056Y28575D3*X33109Y28258D3*X34379Y26988D3*X35649Y28258D3*X39459Y27622D3*X40729Y26352D3*X38189Y26352D3*X35649Y13018D3*X33109Y13018D3*X34379Y14288D3*X37871Y14922D3*X39141Y13652D3*X40411Y14922D3*X43586Y19685D3*X42316Y18415D3*X41046Y19685D3*X41046Y22225D3*X42316Y23495D3*X43586Y22225D3*X67399Y26035D3*X66129Y24765D3*X64859Y26035D3*X64859Y28575D3*X66129Y29845D3*X67399Y28575D3*X74384Y28575D3*X73114Y29845D3*X71844Y28575D3*X71844Y26035D3*X73114Y24765D3*X74384Y26035D3*X81369Y26035D3*X80099Y24765D3*X78829Y26035D3*X78829Y28575D3*X80099Y29845D3*X81369Y28575D3*X88354Y28575D3*X87084Y29845D3*X85814Y28575D3*X85814Y26035D3*X87084Y24765D3*X88354Y26035D3*X102324Y26035D3*X101054Y24765D3*X99784Y26035D3*X95339Y26035D3*X94069Y24765D3*X92799Y26035D3*X92799Y28575D3*X94069Y29845D3*X95339Y28575D3*X99784Y28575D3*X101054Y29845D3*X102324Y28575D3*X109309Y28575D3*X108039Y29845D3*X106769Y28575D3*X106769Y26035D3*X108039Y24765D3*X109309Y26035D3*X113754Y26035D3*X115024Y24765D3*X116294Y26035D3*X116294Y28575D3*X113754Y28575D3*X115024Y29845D3*X115341Y62230D3*X103911Y62230D3*X92481Y62230D3*X81051Y62230D3*X75336Y62230D3*X76606Y60960D3*X75336Y59690D3*X75336Y57150D3*X76606Y55880D3*X75336Y54610D3*X75336Y52070D3*X75336Y49530D3*X76606Y50800D3*X81051Y49530D3*X82321Y50800D3*X81051Y52070D3*X81051Y54610D3*X82321Y55880D3*X81051Y57150D3*X81051Y59690D3*X82321Y60960D3*X86766Y62230D3*X88036Y60960D3*X86766Y59690D3*X86766Y57150D3*X88036Y55880D3*X86766Y54610D3*X86766Y52070D3*X86766Y49530D3*X88036Y50800D3*X92481Y49530D3*X93751Y50800D3*X92481Y52070D3*X92481Y54610D3*X93751Y55880D3*X92481Y57150D3*X92481Y59690D3*X93751Y60960D3*X98196Y62230D3*X99466Y60960D3*X98196Y59690D3*X98196Y57150D3*X99466Y55880D3*X98196Y54610D3*X98196Y52070D3*X98196Y49530D3*X99466Y50800D3*X103911Y49530D3*X105181Y50800D3*X103911Y52070D3*X103911Y54610D3*X105181Y55880D3*X103911Y57150D3*X103911Y59690D3*X105181Y60960D3*X109626Y62230D3*X110896Y60960D3*X109626Y59690D3*X109626Y57150D3*X110896Y55880D3*X109626Y54610D3*X109626Y52070D3*X109626Y49530D3*X110896Y50800D3*X115341Y49530D3*X116611Y50800D3*X115341Y52070D3*X115341Y54610D3*X116611Y55880D3*X115341Y57150D3*X115341Y59690D3*X116611Y60960D3*X166141Y62230D3*X154711Y62230D3*X143281Y62230D3*X131851Y62230D3*X126136Y62230D3*X127406Y60960D3*X126136Y59690D3*X126136Y57150D3*X127406Y55880D3*X126136Y54610D3*X126136Y52070D3*X126136Y49530D3*X127406Y50800D3*X131851Y49530D3*X133121Y50800D3*X131851Y52070D3*X131851Y54610D3*X133121Y55880D3*X131851Y57150D3*X131851Y59690D3*X133121Y60960D3*X137566Y62230D3*X138836Y60960D3*X137566Y59690D3*X137566Y57150D3*X138836Y55880D3*X137566Y54610D3*X137566Y52070D3*X137566Y49530D3*X138836Y50800D3*X143281Y49530D3*X144551Y50800D3*X143281Y52070D3*X143281Y54610D3*X144551Y55880D3*X143281Y57150D3*X143281Y59690D3*X144551Y60960D3*X148996Y62230D3*X150266Y60960D3*X148996Y59690D3*X148996Y57150D3*X150266Y55880D3*X148996Y54610D3*X148996Y52070D3*X148996Y49530D3*X150266Y50800D3*X154711Y49530D3*X155981Y50800D3*X154711Y52070D3*X154711Y54610D3*X155981Y55880D3*X154711Y57150D3*X154711Y59690D3*X155981Y60960D3*X160426Y62230D3*X161696Y60960D3*X160426Y59690D3*X160426Y57150D3*X161696Y55880D3*X160426Y54610D3*X160426Y52070D3*X160426Y49530D3*X161696Y50800D3*X166141Y49530D3*X167411Y50800D3*X166141Y52070D3*X166141Y54610D3*X167411Y55880D3*X166141Y57150D3*X166141Y59690D3*X167411Y60960D3*X205511Y62230D3*X194081Y62230D3*X182651Y62230D3*X176936Y62230D3*X178206Y60960D3*X176936Y59690D3*X176936Y57150D3*X178206Y55880D3*X176936Y54610D3*X176936Y52070D3*X176936Y49530D3*X178206Y50800D3*X182651Y49530D3*X183921Y50800D3*X182651Y52070D3*X182651Y54610D3*X183921Y55880D3*X182651Y57150D3*X182651Y59690D3*X183921Y60960D3*X188366Y62230D3*X189636Y60960D3*X188366Y59690D3*X188366Y57150D3*X189636Y55880D3*X188366Y54610D3*X188366Y52070D3*X188366Y49530D3*X189636Y50800D3*X194081Y49530D3*X195351Y50800D3*X194081Y52070D3*X194081Y54610D3*X195351Y55880D3*X194081Y57150D3*X194081Y59690D3*X195351Y60960D3*X199796Y62230D3*X201066Y60960D3*X199796Y59690D3*X199796Y57150D3*X201066Y55880D3*X199796Y54610D3*X199796Y52070D3*X199796Y49530D3*X201066Y50800D3*X205511Y49530D3*X206781Y50800D3*X205511Y52070D3*X205511Y54610D3*X206781Y55880D3*X205511Y57150D3*X205511Y59690D3*X206781Y60960D3*X211226Y62230D3*X212496Y60960D3*X211226Y59690D3*X211226Y57150D3*X212496Y55880D3*X211226Y54610D3*X211226Y52070D3*X211226Y49530D3*X212496Y50800D3*X216941Y49530D3*X218211Y50800D3*X216941Y52070D3*X216941Y54610D3*X218211Y55880D3*X216941Y57150D3*X216941Y59690D3*X218211Y60960D3*X216941Y62230D3*X216941Y76835D3*X218211Y78105D3*X216941Y79375D3*X216941Y81915D3*X218211Y83185D3*X216941Y84455D3*X216941Y86995D3*X218211Y88265D3*X216941Y89535D3*X211226Y89535D3*X212496Y88265D3*X211226Y86995D3*X211226Y84455D3*X212496Y83185D3*X211226Y81915D3*X211226Y79375D3*X212496Y78105D3*X211226Y76835D3*X205511Y76835D3*X206781Y78105D3*X205511Y79375D3*X205511Y81915D3*X206781Y83185D3*X205511Y84455D3*X205511Y86995D3*X206781Y88265D3*X205511Y89535D3*X199796Y89535D3*X201066Y88265D3*X199796Y86995D3*X199796Y84455D3*X201066Y83185D3*X199796Y81915D3*X199796Y79375D3*X201066Y78105D3*X199796Y76835D3*X194081Y76835D3*X195351Y78105D3*X194081Y79375D3*X194081Y81915D3*X195351Y83185D3*X194081Y84455D3*X194081Y86995D3*X195351Y88265D3*X194081Y89535D3*X188366Y89535D3*X189636Y88265D3*X188366Y86995D3*X188366Y84455D3*X189636Y83185D3*X188366Y81915D3*X188366Y79375D3*X189636Y78105D3*X188366Y76835D3*X182651Y76835D3*X183921Y78105D3*X182651Y79375D3*X182651Y81915D3*X183921Y83185D3*X182651Y84455D3*X182651Y86995D3*X183921Y88265D3*X182651Y89535D3*X176936Y89535D3*X178206Y88265D3*X176936Y86995D3*X176936Y84455D3*X178206Y83185D3*X176936Y81915D3*X176936Y79375D3*X178206Y78105D3*X176936Y76835D3*X166141Y76835D3*X167411Y78105D3*X166141Y79375D3*X166141Y81915D3*X167411Y83185D3*X166141Y84455D3*X166141Y86995D3*X167411Y88265D3*X166141Y89535D3*X160426Y89535D3*X161696Y88265D3*X160426Y86995D3*X160426Y84455D3*X161696Y83185D3*X160426Y81915D3*X160426Y79375D3*X161696Y78105D3*X160426Y76835D3*X154711Y76835D3*X155981Y78105D3*X154711Y79375D3*X154711Y81915D3*X155981Y83185D3*X154711Y84455D3*X154711Y86995D3*X155981Y88265D3*X154711Y89535D3*X148996Y89535D3*X150266Y88265D3*X148996Y86995D3*X148996Y84455D3*X150266Y83185D3*X148996Y81915D3*X148996Y79375D3*X150266Y78105D3*X148996Y76835D3*X143281Y76835D3*X144551Y78105D3*X143281Y79375D3*X143281Y81915D3*X144551Y83185D3*X143281Y84455D3*X143281Y86995D3*X144551Y88265D3*X143281Y89535D3*X137566Y89535D3*X138836Y88265D3*X137566Y86995D3*X137566Y84455D3*X138836Y83185D3*X137566Y81915D3*X137566Y79375D3*X138836Y78105D3*X137566Y76835D3*X131851Y76835D3*X133121Y78105D3*X131851Y79375D3*X131851Y81915D3*X133121Y83185D3*X131851Y84455D3*X131851Y86995D3*X133121Y88265D3*X131851Y89535D3*X126136Y89535D3*X127406Y88265D3*X126136Y86995D3*X126136Y84455D3*X127406Y83185D3*X126136Y81915D3*X126136Y79375D3*X127406Y78105D3*X126136Y76835D3*X115341Y76835D3*X116611Y78105D3*X115341Y79375D3*X115341Y81915D3*X116611Y83185D3*X115341Y84455D3*X115341Y86995D3*X116611Y88265D3*X115341Y89535D3*X109626Y89535D3*X110896Y88265D3*X109626Y86995D3*X109626Y84455D3*X110896Y83185D3*X109626Y81915D3*X109626Y79375D3*X110896Y78105D3*X109626Y76835D3*X103911Y76835D3*X105181Y78105D3*X103911Y79375D3*X103911Y81915D3*X105181Y83185D3*X103911Y84455D3*X103911Y86995D3*X105181Y88265D3*X103911Y89535D3*X98196Y89535D3*X99466Y88265D3*X98196Y86995D3*X98196Y84455D3*X99466Y83185D3*X98196Y81915D3*X98196Y79375D3*X99466Y78105D3*X98196Y76835D3*X92481Y76835D3*X93751Y78105D3*X92481Y79375D3*X92481Y81915D3*X93751Y83185D3*X92481Y84455D3*X92481Y86995D3*X93751Y88265D3*X92481Y89535D3*X86766Y89535D3*X88036Y88265D3*X86766Y86995D3*X86766Y84455D3*X88036Y83185D3*X86766Y81915D3*X86766Y79375D3*X88036Y78105D3*X86766Y76835D3*X81051Y76835D3*X82321Y78105D3*X81051Y79375D3*X81051Y81915D3*X82321Y83185D3*X81051Y84455D3*X81051Y86995D3*X82321Y88265D3*X81051Y89535D3*X75336Y89535D3*X76606Y88265D3*X75336Y86995D3*X75336Y84455D3*X76606Y83185D3*X75336Y81915D3*X75336Y79375D3*X76606Y78105D3*X75336Y76835D3*X64541Y76835D3*X65811Y78105D3*X64541Y79375D3*X64541Y81915D3*X65811Y83185D3*X64541Y84455D3*X64541Y86995D3*X65811Y88265D3*X64541Y89535D3*X58826Y89535D3*X60096Y88265D3*X58826Y86995D3*X58826Y84455D3*X60096Y83185D3*X58826Y81915D3*X58826Y79375D3*X60096Y78105D3*X58826Y76835D3*X53111Y76835D3*X54381Y78105D3*X53111Y79375D3*X53111Y81915D3*X54381Y83185D3*X53111Y84455D3*X53111Y86995D3*X54381Y88265D3*X53111Y89535D3*X47396Y89535D3*X48666Y88265D3*X47396Y86995D3*X47396Y84455D3*X48666Y83185D3*X47396Y81915D3*X47396Y79375D3*X48666Y78105D3*X47396Y76835D3*X41681Y76835D3*X42951Y78105D3*X41681Y79375D3*X41681Y81915D3*X42951Y83185D3*X41681Y84455D3*X41681Y86995D3*X42951Y88265D3*X41681Y89535D3*X35966Y89535D3*X37236Y88265D3*X35966Y86995D3*X35966Y84455D3*X37236Y83185D3*X35966Y81915D3*X35966Y79375D3*X37236Y78105D3*X35966Y76835D3*X30251Y76835D3*X31521Y78105D3*X30251Y79375D3*X30251Y81915D3*X31521Y83185D3*X30251Y84455D3*X30251Y86995D3*X31521Y88265D3*X30251Y89535D3*X24536Y89535D3*X25806Y88265D3*X24536Y86995D3*X24536Y84455D3*X25806Y83185D3*X24536Y81915D3*X24536Y79375D3*X25806Y78105D3*X24536Y76835D3*X9296Y75882D3*X10566Y74612D3*X9296Y73342D3*X9296Y70802D3*X10566Y69532D3*X9296Y68262D3*X9296Y65722D3*X9296Y63182D3*X10566Y64452D3*X24536Y62230D3*X47396Y62230D3*X58826Y52070D3*X58826Y49530D3*X60096Y50800D3*X64541Y49530D3*X65811Y50800D3*X64541Y52070D3*X64541Y54610D3*X65811Y55880D3*X64541Y57150D3*X64541Y59690D3*X65811Y60960D3*X64541Y62230D3*X58826Y62230D3*X60096Y60960D3*X58826Y59690D3*X58826Y57150D3*X60096Y55880D3*X58826Y54610D3*X47396Y54610D3*X48666Y55880D3*X47396Y57150D3*X47396Y59690D3*X48666Y60960D3*X53111Y62230D3*X54381Y60960D3*X53111Y59690D3*X53111Y57150D3*X54381Y55880D3*X53111Y54610D3*X53111Y52070D3*X54381Y50800D3*X53111Y49530D3*X47396Y49530D3*X48666Y50800D3*X47396Y52070D3*X35966Y52070D3*X35966Y49530D3*X37236Y50800D3*X41681Y49530D3*X42951Y50800D3*X41681Y52070D3*X41681Y54610D3*X42951Y55880D3*X41681Y57150D3*X41681Y59690D3*X42951Y60960D3*X41681Y62230D3*X35966Y62230D3*X37236Y60960D3*X35966Y59690D3*X35966Y57150D3*X37236Y55880D3*X35966Y54610D3*X24536Y54610D3*X25806Y55880D3*X24536Y57150D3*X24536Y59690D3*X25806Y60960D3*X30251Y62230D3*X31521Y60960D3*X30251Y59690D3*X30251Y57150D3*X31521Y55880D3*X30251Y54610D3*X30251Y52070D3*X31521Y50800D3*X30251Y49530D3*X24536Y49530D3*X25806Y50800D3*X24536Y52070D3*X9296Y53022D3*X10566Y51752D3*X9296Y50482D3*X9296Y47942D3*X10566Y46672D3*X9296Y45402D3*X9296Y42862D3*X10566Y41592D3*X9296Y40322D3*X9296Y30162D3*X10566Y28892D3*X9296Y27622D3*X9296Y25082D3*X10566Y23812D3*X9296Y22542D3*X9296Y20002D3*X10566Y18732D3*X9296Y17462D3*D126*X31521Y99378D3*X26441Y99378D3*X24536Y99378D3*X21996Y99378D3*X14376Y101600D3*X11836Y101600D3*X12471Y98425D3*X14376Y98425D3*X14376Y91440D3*X14376Y93345D3*X12471Y93345D3*X12471Y91440D3*X12471Y70168D3*X14376Y70168D3*X14376Y68262D3*X12471Y68262D3*X12471Y63182D3*X14376Y63182D3*X14376Y52388D3*X12471Y52388D3*X11836Y55562D3*X14376Y55562D3*X21996Y55562D3*X21996Y53975D3*X27711Y53975D3*X27711Y55562D3*X33426Y55562D3*X33426Y53975D3*X62001Y53975D3*X62001Y55562D3*X56286Y55562D3*X56286Y53975D3*X50571Y53975D3*X50571Y55562D3*X44856Y55562D3*X44856Y53975D3*X39141Y53975D3*X39141Y55562D3*X41681Y64452D3*X53111Y64452D3*X64541Y64452D3*X62001Y60642D3*X62001Y62230D3*X58826Y64452D3*X56286Y62230D3*X56286Y60642D3*X50571Y60642D3*X50571Y62230D3*X47396Y64452D3*X44856Y62230D3*X44856Y60642D3*X39141Y60642D3*X39141Y62230D3*X35966Y64452D3*X33426Y60642D3*X33426Y62230D3*X30251Y64452D3*X27711Y62230D3*X27711Y60642D3*X21996Y60642D3*X21996Y62230D3*X24536Y64452D3*X21996Y67310D3*X24536Y66992D3*X27711Y67310D3*X30251Y66992D3*X33426Y67310D3*X35966Y66992D3*X39141Y67310D3*X41681Y66992D3*X44856Y67310D3*X47396Y66992D3*X50571Y67310D3*X53111Y66992D3*X56286Y67310D3*X58826Y66992D3*X62001Y67310D3*X64541Y66992D3*X123596Y99378D3*X126136Y99378D3*X128359Y99378D3*X133439Y99378D3*X208686Y60642D3*X208686Y62230D3*X211226Y64452D3*X208686Y67310D3*X211226Y66992D3*X214401Y67310D3*X216941Y66992D3*X216941Y64452D3*X214401Y62230D3*X214401Y60642D3*X219799Y22860D3*X217259Y22860D3*X215671Y33338D3*X215671Y28258D3*X174714Y24765D3*X174714Y29845D3*X174714Y32068D3*X174714Y33972D3*X173126Y36830D3*X170586Y36830D3*X143281Y64452D3*X154711Y64452D3*X174396Y53975D3*X174396Y55562D3*X180111Y55562D3*X180111Y53975D3*X185826Y53975D3*X185826Y55562D3*X191541Y55562D3*X191541Y53975D3*X197256Y53975D3*X197256Y55562D3*X202971Y55562D3*X202971Y53975D3*X208686Y53975D3*X208686Y55562D3*X214401Y55562D3*X214401Y53975D3*X214401Y48895D3*X208686Y48895D3*X202971Y48895D3*X197256Y48895D3*X191541Y48895D3*X185826Y48895D3*X180111Y48895D3*X174396Y48895D3*X163601Y48895D3*X157886Y48895D3*X152171Y48895D3*X146456Y48895D3*X140741Y48895D3*X135026Y48895D3*X129311Y48895D3*X123596Y48895D3*X97561Y24765D3*X104546Y24765D3*X111531Y24765D3*X118516Y24765D3*X125819Y24765D3*X132804Y24765D3*X139789Y24765D3*X146774Y24765D3*X153759Y24765D3*X160744Y24765D3*X167729Y24765D3*X167729Y29845D3*X167729Y32068D3*X169634Y32068D3*X169634Y33972D3*X167729Y33972D3*X166141Y36830D3*X163601Y36830D3*X156934Y36830D3*X159474Y36830D3*X160744Y33972D3*X162649Y33972D3*X162649Y32068D3*X160744Y32068D3*X160744Y29845D3*X153759Y29845D3*X153759Y32068D3*X155664Y32068D3*X155664Y33972D3*X153759Y33972D3*X152489Y36830D3*X149949Y36830D3*X142964Y36830D3*X145504Y36830D3*X146774Y33972D3*X148679Y33972D3*X148679Y32068D3*X146774Y32068D3*X146774Y29845D3*X139789Y29845D3*X139789Y32068D3*X141694Y32068D3*X141694Y33972D3*X139789Y33972D3*X138519Y36830D3*X135979Y36830D3*X128994Y36830D3*X131534Y36830D3*X132804Y33972D3*X134709Y33972D3*X134709Y32068D3*X132804Y32068D3*X132804Y29845D3*X125819Y29845D3*X125501Y32068D3*X127724Y32068D3*X127724Y33972D3*X125501Y33972D3*X124231Y36830D3*X121691Y36830D3*X114706Y36830D3*X117246Y36830D3*X118516Y33972D3*X120421Y33972D3*X120421Y32068D3*X118516Y32068D3*X118516Y29845D3*X111531Y29845D3*X111531Y32068D3*X113436Y32068D3*X113436Y33972D3*X111531Y33972D3*X110261Y36830D3*X107721Y36830D3*X100736Y36830D3*X103276Y36830D3*X104546Y33972D3*X106451Y33972D3*X106451Y32068D3*X104546Y32068D3*X104546Y29845D3*X97561Y29845D3*X97561Y32068D3*X99466Y32068D3*X99466Y33972D3*X97561Y33972D3*X96291Y36830D3*X93751Y36830D3*X76606Y29845D3*X68034Y36830D3*X65494Y36830D3*X64541Y33972D3*X64541Y32068D3*X69621Y29845D3*X71526Y32068D3*X69621Y32068D3*X69621Y33972D3*X71526Y33972D3*X72479Y36830D3*X75019Y36830D3*X82321Y36830D3*X79781Y36830D3*X78511Y33972D3*X76606Y33972D3*X76606Y32068D3*X78511Y32068D3*X83591Y29845D3*X85496Y32068D3*X83591Y32068D3*X83591Y33972D3*X85496Y33972D3*X86766Y36830D3*X89306Y36830D3*X90576Y33972D3*X92481Y33972D3*X92481Y32068D3*X90576Y32068D3*X90576Y29845D3*X90576Y24765D3*X83591Y24765D3*X76606Y24765D3*X69621Y24765D3*X66764Y15240D3*X61684Y15240D3*X50254Y20002D3*X50254Y22542D3*X26759Y26988D3*X29299Y26988D3*X37871Y24130D3*X35649Y24130D3*X29299Y22542D3*X26759Y22542D3*X27076Y14605D3*X29616Y14605D3*X40094Y17145D3*X37871Y19050D3*X35649Y19050D3*X35014Y17145D3*X29616Y18415D3*X27076Y18415D3*X12471Y17462D3*X14376Y17462D3*X14376Y22542D3*X12471Y22542D3*X12471Y24448D3*X14376Y24448D3*X14376Y29528D3*X12471Y29528D3*X11836Y32702D3*X14376Y32702D3*X18186Y31432D3*X23266Y32702D3*X25806Y32702D3*X28346Y32702D3*X30886Y32702D3*X33426Y32702D3*X33426Y37782D3*X30886Y37782D3*X28346Y37782D3*X25806Y37782D3*X23266Y37782D3*X18186Y36512D3*X12471Y40322D3*X14376Y40322D3*X14376Y45402D3*X12471Y45402D3*X12471Y47308D3*X14376Y47308D3*X21996Y48895D3*X27711Y48895D3*X33426Y48895D3*X39141Y48895D3*X44856Y48895D3*X50571Y48895D3*X56286Y48895D3*X62001Y48895D3*X72796Y48895D3*X78511Y48895D3*X84226Y48895D3*X89941Y48895D3*X95656Y48895D3*X101371Y48895D3*X107086Y48895D3*X112801Y48895D3*X112801Y60642D3*X112801Y62230D3*X115341Y64452D3*X115341Y66992D3*X112801Y67310D3*X107086Y67310D3*X109626Y66992D3*X109626Y64452D3*X107086Y62230D3*X107086Y60642D3*X101371Y60642D3*X101371Y62230D3*X103911Y64452D3*X103911Y66992D3*X101371Y67310D3*X95656Y67310D3*X98196Y66992D3*X98196Y64452D3*X95656Y62230D3*X95656Y60642D3*X89941Y60642D3*X89941Y62230D3*X92481Y64452D3*X92481Y66992D3*X89941Y67310D3*X84226Y67310D3*X86766Y66992D3*X86766Y64452D3*X84226Y62230D3*X84226Y60642D3*X78511Y60642D3*X78511Y62230D3*X81051Y64452D3*X81051Y66992D3*X78511Y67310D3*X72796Y67310D3*X75336Y66992D3*X75336Y64452D3*X72796Y62230D3*X72796Y60642D3*X72796Y55562D3*X72796Y53975D3*X78511Y53975D3*X78511Y55562D3*X84226Y55562D3*X84226Y53975D3*X89941Y53975D3*X89941Y55562D3*X95656Y55562D3*X95656Y53975D3*X101371Y53975D3*X101371Y55562D3*X107086Y55562D3*X107086Y53975D3*X112801Y53975D3*X112801Y55562D3*X123596Y55562D3*X123596Y53975D3*X129311Y53975D3*X129311Y55562D3*X135026Y55562D3*X135026Y53975D3*X140741Y53975D3*X140741Y55562D3*X146456Y55562D3*X146456Y53975D3*X152171Y53975D3*X152171Y55562D3*X157886Y55562D3*X157886Y53975D3*X163601Y53975D3*X163601Y55562D3*X163601Y60642D3*X163601Y62230D3*X160426Y64452D3*X157886Y62230D3*X157886Y60642D3*X152171Y60642D3*X152171Y62230D3*X148996Y64452D3*X146456Y62230D3*X146456Y60642D3*X140741Y60642D3*X140741Y62230D3*X137566Y64452D3*X135026Y60642D3*X135026Y62230D3*X131851Y64452D3*X129311Y62230D3*X129311Y60642D3*X123596Y60642D3*X123596Y62230D3*X126136Y64452D3*X123596Y67310D3*X126136Y66992D3*X129311Y67310D3*X131851Y66992D3*X135026Y67310D3*X137566Y66992D3*X140741Y67310D3*X143281Y66992D3*X146456Y67310D3*X148996Y66992D3*X152171Y67310D3*X154711Y66992D3*X157886Y67310D3*X160426Y66992D3*X163601Y67310D3*X166141Y66992D3*X166141Y64452D3*X174396Y60642D3*X174396Y62230D3*X176936Y64452D3*X182651Y64452D3*X180111Y62230D3*X180111Y60642D3*X185826Y60642D3*X185826Y62230D3*X188366Y64452D3*X194081Y64452D3*X191541Y62230D3*X191541Y60642D3*X197256Y60642D3*X197256Y62230D3*X199796Y64452D3*X202971Y60642D3*X202971Y62230D3*X205511Y64452D3*X205511Y66992D3*X202971Y67310D3*X199796Y66992D3*X197256Y67310D3*X194081Y66992D3*X191541Y67310D3*X188366Y66992D3*X185826Y67310D3*X182651Y66992D3*X180111Y67310D3*X176936Y66992D3*X174396Y67310D3*X174396Y76200D3*X180111Y76200D3*X185826Y76200D3*X191541Y76200D3*X197256Y76200D3*X202971Y76200D3*X208686Y76200D3*X214401Y76200D3*X217259Y100648D3*X212179Y100648D3*X211226Y91758D3*X208686Y87948D3*X208686Y89535D3*X205511Y91758D3*X202971Y87948D3*X202971Y89535D3*X197256Y94615D3*X185826Y94615D3*X184239Y99378D3*X179159Y99378D3*X176936Y99378D3*X174396Y99378D3*X174396Y94615D3*X176936Y91758D3*X176936Y94298D3*X180111Y94615D3*X182651Y94298D3*X182651Y91758D3*X180111Y89535D3*X180111Y87948D3*X185826Y87948D3*X185826Y89535D3*X188366Y91758D3*X188366Y94298D3*X191541Y94615D3*X194081Y94298D3*X194081Y91758D3*X191541Y89535D3*X191541Y87948D3*X197256Y87948D3*X197256Y89535D3*X199796Y91758D3*X199796Y94298D3*X202971Y94615D3*X205511Y94298D3*X208686Y94615D3*X211226Y94298D3*X214401Y94615D3*X216941Y94298D3*X216941Y91758D3*X214401Y89535D3*X214401Y87948D3*X214401Y82868D3*X214401Y81280D3*X208686Y81280D3*X208686Y82868D3*X202971Y82868D3*X202971Y81280D3*X197256Y81280D3*X197256Y82868D3*X191541Y82868D3*X191541Y81280D3*X185826Y81280D3*X185826Y82868D3*X180111Y82868D3*X180111Y81280D3*X174396Y81280D3*X174396Y82868D3*X171221Y85725D3*X174396Y87948D3*X174396Y89535D3*X171221Y90805D3*X163601Y94615D3*X166141Y94298D3*X166141Y91758D3*X163601Y89535D3*X163601Y87948D3*X157886Y87948D3*X157886Y89535D3*X160426Y91758D3*X160426Y94298D3*X157886Y94615D3*X152171Y94615D3*X154711Y94298D3*X154711Y91758D3*X152171Y89535D3*X152171Y87948D3*X146456Y87948D3*X146456Y89535D3*X148996Y91758D3*X148996Y94298D3*X146456Y94615D3*X140741Y94615D3*X143281Y94298D3*X143281Y91758D3*X140741Y89535D3*X140741Y87948D3*X135026Y87948D3*X135026Y89535D3*X137566Y91758D3*X137566Y94298D3*X135026Y94615D3*X129311Y94615D3*X131851Y94298D3*X131851Y91758D3*X129311Y89535D3*X129311Y87948D3*X123596Y81280D3*X123596Y82868D3*X129311Y82868D3*X129311Y81280D3*X135026Y81280D3*X135026Y82868D3*X140741Y82868D3*X140741Y81280D3*X146456Y81280D3*X146456Y82868D3*X152171Y82868D3*X152171Y81280D3*X157886Y81280D3*X157886Y82868D3*X163601Y82868D3*X163601Y81280D3*X163601Y76200D3*X157886Y76200D3*X152171Y76200D3*X146456Y76200D3*X140741Y76200D3*X135026Y76200D3*X129311Y76200D3*X123596Y76200D3*X112801Y76200D3*X107086Y76200D3*X101371Y76200D3*X95656Y76200D3*X89941Y76200D3*X84226Y76200D3*X78511Y76200D3*X72796Y76200D3*X62001Y76200D3*X56286Y76200D3*X50571Y76200D3*X44856Y76200D3*X39141Y76200D3*X33426Y76200D3*X27711Y76200D3*X21996Y76200D3*X14376Y75248D3*X12471Y75248D3*X11836Y78422D3*X14376Y78422D3*X21996Y82868D3*X21996Y81280D3*X27711Y81280D3*X27711Y82868D3*X33426Y82868D3*X33426Y81280D3*X39141Y81280D3*X39141Y82868D3*X44856Y82868D3*X44856Y81280D3*X50571Y81280D3*X50571Y82868D3*X56286Y82868D3*X56286Y81280D3*X62001Y81280D3*X62001Y82868D3*X72796Y99378D3*X75336Y99378D3*X77241Y99378D3*X82321Y99378D3*X86766Y91758D3*X98196Y91758D3*X109626Y91758D3*X112801Y89535D3*X112801Y87948D3*X107086Y87948D3*X107086Y89535D3*X103911Y91758D3*X101371Y89535D3*X101371Y87948D3*X95656Y87948D3*X95656Y89535D3*X92481Y91758D3*X89941Y89535D3*X89941Y87948D3*X84226Y87948D3*X84226Y89535D3*X81051Y91758D3*X78511Y87948D3*X78511Y89535D3*X75336Y91758D3*X72796Y94615D3*X75336Y94298D3*X78511Y94615D3*X81051Y94298D3*X84226Y94615D3*X86766Y94298D3*X89941Y94615D3*X92481Y94298D3*X95656Y94615D3*X98196Y94298D3*X101371Y94615D3*X103911Y94298D3*X107086Y94615D3*X109626Y94298D3*X112801Y94615D3*X115341Y94298D3*X115341Y91758D3*X120104Y90805D3*X123596Y94615D3*X126136Y94298D3*X126136Y91758D3*X123596Y89535D3*X123596Y87948D3*X120104Y85725D3*X112801Y82868D3*X112801Y81280D3*X107086Y81280D3*X107086Y82868D3*X101371Y82868D3*X101371Y81280D3*X95656Y81280D3*X95656Y82868D3*X89941Y82868D3*X89941Y81280D3*X84226Y81280D3*X84226Y82868D3*X78511Y82868D3*X78511Y81280D3*X72796Y81280D3*X72796Y82868D3*X68986Y85725D3*X72796Y87948D3*X72796Y89535D3*X68986Y90805D3*X62001Y94615D3*X64541Y94298D3*X64541Y91758D3*X62001Y87948D3*X62001Y89535D3*X53111Y91758D3*X50571Y94615D3*X53111Y94298D3*X56286Y94615D3*X58826Y94298D3*X58826Y91758D3*X56286Y89535D3*X56286Y87948D3*X50571Y87948D3*X50571Y89535D3*X41681Y91758D3*X39141Y94615D3*X41681Y94298D3*X44856Y94615D3*X47396Y94298D3*X47396Y91758D3*X44856Y89535D3*X44856Y87948D3*X39141Y87948D3*X39141Y89535D3*X30251Y91758D3*X27711Y89535D3*X27711Y87948D3*X33426Y87948D3*X33426Y89535D3*X35966Y91758D3*X35966Y94298D3*X33426Y94615D3*X30251Y94298D3*X27711Y94615D3*X21996Y94615D3*X24536Y94298D3*X24536Y91758D3*X21996Y89535D3*X21996Y87948D3*X14376Y86360D3*X12471Y86360D3*D127*X130899Y13018D3*X184556Y106998D3*X133756Y106998D3*X82956Y106998D3*X32156Y106934D3*D128*X55016Y109474D3*X52476Y109474D3*X49936Y109474D3*X47396Y109474D3*X44856Y109474D3*X42316Y109474D3*X39776Y109474D3*X37236Y109474D3*X32156Y109474D3*X34696Y109474D3*X34696Y106934D3*X37236Y106934D3*X39776Y106934D3*X42316Y106934D3*X44856Y106934D3*X47396Y106934D3*X49936Y106934D3*X52476Y106934D3*X55016Y106934D3*X105816Y106998D3*X103276Y106998D3*X100736Y106998D3*X98196Y106998D3*X95656Y106998D3*X93116Y106998D3*X90576Y106998D3*X88036Y106998D3*X85496Y106998D3*X82956Y109538D3*X85496Y109538D3*X88036Y109538D3*X90576Y109538D3*X93116Y109538D3*X95656Y109538D3*X98196Y109538D3*X100736Y109538D3*X103276Y109538D3*X105816Y109538D3*X199796Y109538D3*X202336Y109538D3*X204876Y109538D3*X207416Y109538D3*X207416Y106998D3*X204876Y106998D3*X202336Y106998D3*X199796Y106998D3*X187096Y106998D3*X189636Y106998D3*X192176Y106998D3*X194716Y106998D3*X197256Y106998D3*X197256Y109538D3*X194716Y109538D3*X192176Y109538D3*X189636Y109538D3*X187096Y109538D3*X184556Y109538D3*X156616Y106998D3*X156616Y109538D3*X133756Y109538D3*X136296Y109538D3*X138836Y109538D3*X141376Y109538D3*X143916Y109538D3*X146456Y109538D3*X148996Y109538D3*X151536Y109538D3*X154076Y109538D3*X154076Y106998D3*X151536Y106998D3*X148996Y106998D3*X146456Y106998D3*X143916Y106998D3*X141376Y106998D3*X138836Y106998D3*X136296Y106998D3*X130899Y10478D3*X128359Y10478D3*X125819Y10478D3*X123279Y10478D3*X120739Y10478D3*X118199Y10478D3*X115659Y10478D3*X113119Y10478D3*X110579Y10478D3*X108039Y10478D3*X108039Y13018D3*X110579Y13018D3*X113119Y13018D3*X115659Y13018D3*X118199Y13018D3*X120739Y13018D3*X123279Y13018D3*X125819Y13018D3*X128359Y13018D3*D129*X26340Y108737D3*X102222Y11214D3*X136716Y11214D3*X213233Y108801D3*X178740Y108801D3*X162433Y108801D3*X127940Y108801D3*X111633Y108801D3*X77140Y108801D3*X60833Y108737D3*D130*X222021Y30162D3*X222021Y34290D3*X9614Y33655D3*X9614Y56832D3*X9614Y80010D3*X9614Y103188D3*D131*X9931Y110490D3*X68986Y110490D3*X170586Y110490D3*X222021Y110490D3*X222021Y9842D3*X170586Y9842D3*X68986Y9842D3*X9931Y9842D3*X0Y0D2*M02*