G04 Output by ViewMate Deluxe V11.0.9  PentaLogix LLC*
G04 Mon Mar 30 14:28:06 2015*
%FSLAX33Y33*%
%MOMM*%
%IPPOS*%
%ADD113C,0.0*%

%LPD*%
X0Y0D2*D113*G1X8331Y110490D2*X8336Y110363D1*X8352Y110236*X8377Y110112*X8412Y109990*X8456Y109870*X8509Y109756*X8572Y109644*X8644Y109540*X8725Y109441*X8811Y109347*X8905Y109261*X9007Y109184*X9114Y109116*X9225Y109055*X9342Y109002*X9462Y108961*X9583Y108928*X9710Y108905*X9835Y108892*X9964Y108890*X10091Y108897*X10216Y108915*X10340Y108943*X10462Y108981*X10579Y109027*X10693Y109083*X10803Y109149*X10907Y109223*X11006Y109304*X11097Y109393*X11179Y109489*X11255Y109591*X11323Y109700*X11382Y109812*X11430Y109929*X11471Y110051*X11501Y110175*X11521Y110300*X11532Y110426*X11532Y110554*X11521Y110680*X11501Y110805*X11471Y110929*X11430Y111051*X11382Y111168*X11323Y111280*X11255Y111389*X11179Y111491*X11097Y111587*X11006Y111676*X10907Y111757*X10803Y111831*X10693Y111897*X10579Y111953*X10462Y111999*X10340Y112037*X10216Y112065*X10091Y112083*X9964Y112090*X9835Y112088*X9710Y112075*X9583Y112052*X9462Y112019*X9342Y111978*X9225Y111925*X9114Y111864*X9007Y111796*X8905Y111719*X8811Y111633*X8725Y111539*X8644Y111440*X8572Y111336*X8509Y111224*X8456Y111110*X8412Y110990*X8377Y110868*X8352Y110744*X8336Y110617*X8331Y110490*X24867Y108737D2*X24872Y108615D1*X24887Y108496*X24912Y108377*X24945Y108260*X24991Y108146*X25044Y108036*X25105Y107932*X25176Y107833*X25255Y107739*X25342Y107653*X25436Y107574*X25535Y107503*X25639Y107442*X25748Y107389*X25862Y107343*X25979Y107310*X26098Y107285*X26218Y107269*X26340Y107264*X26462Y107269*X26581Y107285*X26700Y107310*X26817Y107343*X26932Y107389*X27041Y107442*X27145Y107503*X27244Y107574*X27338Y107653*X27424Y107739*X27503Y107833*X27574Y107932*X27635Y108036*X27689Y108146*X27734Y108260*X27767Y108377*X27793Y108496*X27808Y108615*X27813Y108737*X27808Y108859*X27793Y108979*X27767Y109098*X27734Y109215*X27689Y109329*X27635Y109438*X27574Y109543*X27503Y109642*X27424Y109736*X27338Y109822*X27244Y109901*X27145Y109972*X27041Y110033*X26932Y110086*X26817Y110132*X26700Y110165*X26581Y110190*X26462Y110206*X26340Y110211*X26218Y110206*X26098Y110190*X25979Y110165*X25862Y110132*X25748Y110086*X25639Y110033*X25535Y109972*X25436Y109901*X25342Y109822*X25255Y109736*X25176Y109642*X25105Y109543*X25044Y109438*X24991Y109329*X24945Y109215*X24912Y109098*X24887Y108979*X24872Y108859*X24867Y108737*X59360Y108737D2*X59365Y108615D1*X59380Y108496*X59406Y108377*X59439Y108260*X59484Y108146*X59538Y108036*X59599Y107932*X59670Y107833*X59748Y107739*X59835Y107653*X59929Y107574*X60028Y107503*X60132Y107442*X60241Y107389*X60355Y107343*X60472Y107310*X60592Y107285*X60711Y107269*X60833Y107264*X60955Y107269*X61074Y107285*X61194Y107310*X61311Y107343*X61425Y107389*X61534Y107442*X61638Y107503*X61737Y107574*X61831Y107653*X61918Y107739*X61996Y107833*X62067Y107932*X62128Y108036*X62182Y108146*X62227Y108260*X62260Y108377*X62286Y108496*X62301Y108615*X62306Y108737*X62301Y108859*X62286Y108979*X62260Y109098*X62227Y109215*X62182Y109329*X62128Y109438*X62067Y109543*X61996Y109642*X61918Y109736*X61831Y109822*X61737Y109901*X61638Y109972*X61534Y110033*X61425Y110086*X61311Y110132*X61194Y110165*X61074Y110190*X60955Y110206*X60833Y110211*X60711Y110206*X60592Y110190*X60472Y110165*X60355Y110132*X60241Y110086*X60132Y110033*X60028Y109972*X59929Y109901*X59835Y109822*X59748Y109736*X59670Y109642*X59599Y109543*X59538Y109438*X59484Y109329*X59439Y109215*X59406Y109098*X59380Y108979*X59365Y108859*X59360Y108737*X67386Y110490D2*X67391Y110363D1*X67407Y110236*X67432Y110112*X67467Y109990*X67511Y109870*X67564Y109756*X67628Y109644*X67699Y109540*X67780Y109441*X67866Y109347*X67960Y109261*X68062Y109184*X68169Y109116*X68280Y109055*X68397Y109002*X68516Y108961*X68638Y108928*X68765Y108905*X68890Y108892*X69019Y108890*X69146Y108897*X69271Y108915*X69395Y108943*X69517Y108981*X69634Y109027*X69748Y109083*X69858Y109149*X69962Y109223*X70061Y109304*X70152Y109393*X70234Y109489*X70310Y109591*X70378Y109700*X70437Y109812*X70485Y109929*X70526Y110051*X70556Y110175*X70576Y110300*X70587Y110426*X70587Y110554*X70576Y110680*X70556Y110805*X70526Y110929*X70485Y111051*X70437Y111168*X70378Y111280*X70310Y111389*X70234Y111491*X70152Y111587*X70061Y111676*X69962Y111757*X69858Y111831*X69748Y111897*X69634Y111953*X69517Y111999*X69395Y112037*X69271Y112065*X69146Y112083*X69019Y112090*X68890Y112088*X68765Y112075*X68638Y112052*X68516Y112019*X68397Y111978*X68280Y111925*X68169Y111864*X68062Y111796*X67960Y111719*X67866Y111633*X67780Y111539*X67699Y111440*X67628Y111336*X67564Y111224*X67511Y111110*X67467Y110990*X67432Y110868*X67407Y110744*X67391Y110617*X67386Y110490*X75667Y108801D2*X75672Y108679D1*X75687Y108560*X75712Y108440*X75745Y108323*X75791Y108209*X75844Y108100*X75905Y107996*X75976Y107897*X76055Y107803*X76142Y107716*X76236Y107638*X76335Y107566*X76439Y107506*X76548Y107452*X76662Y107406*X76779Y107373*X76898Y107348*X77018Y107333*X77140Y107328*X77262Y107333*X77381Y107348*X77500Y107373*X77617Y107406*X77732Y107452*X77841Y107506*X77945Y107566*X78044Y107638*X78138Y107716*X78224Y107803*X78303Y107897*X78374Y107996*X78435Y108100*X78489Y108209*X78534Y108323*X78567Y108440*X78593Y108560*X78608Y108679*X78613Y108801*X78608Y108923*X78593Y109042*X78567Y109162*X78534Y109278*X78489Y109393*X78435Y109502*X78374Y109606*X78303Y109705*X78224Y109799*X78138Y109885*X78044Y109964*X77945Y110035*X77841Y110096*X77732Y110150*X77617Y110195*X77500Y110228*X77381Y110254*X77262Y110269*X77140Y110274*X77018Y110269*X76898Y110254*X76779Y110228*X76662Y110195*X76548Y110150*X76439Y110096*X76335Y110035*X76236Y109964*X76142Y109885*X76055Y109799*X75976Y109705*X75905Y109606*X75844Y109502*X75791Y109393*X75745Y109278*X75712Y109162*X75687Y109042*X75672Y108923*X75667Y108801*X110160Y108801D2*X110165Y108679D1*X110180Y108560*X110206Y108440*X110239Y108323*X110284Y108209*X110338Y108100*X110399Y107996*X110470Y107897*X110548Y107803*X110635Y107716*X110729Y107638*X110828Y107566*X110932Y107506*X111041Y107452*X111155Y107406*X111272Y107373*X111392Y107348*X111511Y107333*X111633Y107328*X111755Y107333*X111874Y107348*X111994Y107373*X112111Y107406*X112225Y107452*X112334Y107506*X112438Y107566*X112537Y107638*X112631Y107716*X112718Y107803*X112796Y107897*X112867Y107996*X112928Y108100*X112982Y108209*X113027Y108323*X113060Y108440*X113086Y108560*X113101Y108679*X113106Y108801*X113101Y108923*X113086Y109042*X113060Y109162*X113027Y109278*X112982Y109393*X112928Y109502*X112867Y109606*X112796Y109705*X112718Y109799*X112631Y109885*X112537Y109964*X112438Y110035*X112334Y110096*X112225Y110150*X112111Y110195*X111994Y110228*X111874Y110254*X111755Y110269*X111633Y110274*X111511Y110269*X111392Y110254*X111272Y110228*X111155Y110195*X111041Y110150*X110932Y110096*X110828Y110035*X110729Y109964*X110635Y109885*X110548Y109799*X110470Y109705*X110399Y109606*X110338Y109502*X110284Y109393*X110239Y109278*X110206Y109162*X110180Y109042*X110165Y108923*X110160Y108801*X126467Y108801D2*X126472Y108679D1*X126487Y108560*X126512Y108440*X126545Y108323*X126591Y108209*X126644Y108100*X126705Y107996*X126776Y107897*X126855Y107803*X126942Y107716*X127036Y107638*X127135Y107566*X127239Y107506*X127348Y107452*X127462Y107406*X127579Y107373*X127698Y107348*X127818Y107333*X127940Y107328*X128062Y107333*X128181Y107348*X128300Y107373*X128417Y107406*X128532Y107452*X128641Y107506*X128745Y107566*X128844Y107638*X128938Y107716*X129024Y107803*X129103Y107897*X129174Y107996*X129235Y108100*X129289Y108209*X129334Y108323*X129367Y108440*X129393Y108560*X129408Y108679*X129413Y108801*X129408Y108923*X129393Y109042*X129367Y109162*X129334Y109278*X129289Y109393*X129235Y109502*X129174Y109606*X129103Y109705*X129024Y109799*X128938Y109885*X128844Y109964*X128745Y110035*X128641Y110096*X128532Y110150*X128417Y110195*X128300Y110228*X128181Y110254*X128062Y110269*X127940Y110274*X127818Y110269*X127698Y110254*X127579Y110228*X127462Y110195*X127348Y110150*X127239Y110096*X127135Y110035*X127036Y109964*X126942Y109885*X126855Y109799*X126776Y109705*X126705Y109606*X126644Y109502*X126591Y109393*X126545Y109278*X126512Y109162*X126487Y109042*X126472Y108923*X126467Y108801*X160960Y108801D2*X160965Y108679D1*X160980Y108560*X161006Y108440*X161039Y108323*X161084Y108209*X161138Y108100*X161199Y107996*X161270Y107897*X161348Y107803*X161435Y107716*X161529Y107638*X161628Y107566*X161732Y107506*X161841Y107452*X161955Y107406*X162072Y107373*X162192Y107348*X162311Y107333*X162433Y107328*X162555Y107333*X162674Y107348*X162794Y107373*X162911Y107406*X163025Y107452*X163134Y107506*X163238Y107566*X163337Y107638*X163431Y107716*X163518Y107803*X163596Y107897*X163667Y107996*X163728Y108100*X163782Y108209*X163827Y108323*X163860Y108440*X163886Y108560*X163901Y108679*X163906Y108801*X163901Y108923*X163886Y109042*X163860Y109162*X163827Y109278*X163782Y109393*X163728Y109502*X163667Y109606*X163596Y109705*X163518Y109799*X163431Y109885*X163337Y109964*X163238Y110035*X163134Y110096*X163025Y110150*X162911Y110195*X162794Y110228*X162674Y110254*X162555Y110269*X162433Y110274*X162311Y110269*X162192Y110254*X162072Y110228*X161955Y110195*X161841Y110150*X161732Y110096*X161628Y110035*X161529Y109964*X161435Y109885*X161348Y109799*X161270Y109705*X161199Y109606*X161138Y109502*X161084Y109393*X161039Y109278*X161006Y109162*X160980Y109042*X160965Y108923*X160960Y108801*X168986Y110490D2*X168991Y110363D1*X169007Y110236*X169032Y110112*X169067Y109990*X169111Y109870*X169164Y109756*X169228Y109644*X169299Y109540*X169380Y109441*X169466Y109347*X169560Y109261*X169662Y109184*X169769Y109116*X169880Y109055*X169997Y109002*X170116Y108961*X170238Y108928*X170365Y108905*X170490Y108892*X170619Y108890*X170746Y108897*X170871Y108915*X170995Y108943*X171117Y108981*X171234Y109027*X171348Y109083*X171458Y109149*X171562Y109223*X171661Y109304*X171752Y109393*X171834Y109489*X171910Y109591*X171978Y109700*X172037Y109812*X172085Y109929*X172126Y110051*X172156Y110175*X172176Y110300*X172187Y110426*X172187Y110554*X172176Y110680*X172156Y110805*X172126Y110929*X172085Y111051*X172037Y111168*X171978Y111280*X171910Y111389*X171834Y111491*X171752Y111587*X171661Y111676*X171562Y111757*X171458Y111831*X171348Y111897*X171234Y111953*X171117Y111999*X170995Y112037*X170871Y112065*X170746Y112083*X170619Y112090*X170490Y112088*X170365Y112075*X170238Y112052*X170116Y112019*X169997Y111978*X169880Y111925*X169769Y111864*X169662Y111796*X169560Y111719*X169466Y111633*X169380Y111539*X169299Y111440*X169228Y111336*X169164Y111224*X169111Y111110*X169067Y110990*X169032Y110868*X169007Y110744*X168991Y110617*X168986Y110490*X177267Y108801D2*X177272Y108679D1*X177287Y108560*X177312Y108440*X177345Y108323*X177391Y108209*X177444Y108100*X177505Y107996*X177576Y107897*X177655Y107803*X177742Y107716*X177836Y107638*X177935Y107566*X178039Y107506*X178148Y107452*X178262Y107406*X178379Y107373*X178498Y107348*X178618Y107333*X178740Y107328*X178862Y107333*X178981Y107348*X179100Y107373*X179217Y107406*X179332Y107452*X179441Y107506*X179545Y107566*X179644Y107638*X179738Y107716*X179824Y107803*X179903Y107897*X179974Y107996*X180035Y108100*X180089Y108209*X180134Y108323*X180167Y108440*X180193Y108560*X180208Y108679*X180213Y108801*X180208Y108923*X180193Y109042*X180167Y109162*X180134Y109278*X180089Y109393*X180035Y109502*X179974Y109606*X179903Y109705*X179824Y109799*X179738Y109885*X179644Y109964*X179545Y110035*X179441Y110096*X179332Y110150*X179217Y110195*X179100Y110228*X178981Y110254*X178862Y110269*X178740Y110274*X178618Y110269*X178498Y110254*X178379Y110228*X178262Y110195*X178148Y110150*X178039Y110096*X177935Y110035*X177836Y109964*X177742Y109885*X177655Y109799*X177576Y109705*X177505Y109606*X177444Y109502*X177391Y109393*X177345Y109278*X177312Y109162*X177287Y109042*X177272Y108923*X177267Y108801*X220421Y110490D2*X220426Y110363D1*X220442Y110236*X220467Y110112*X220502Y109990*X220546Y109870*X220599Y109756*X220662Y109644*X220734Y109540*X220815Y109441*X220901Y109347*X220995Y109261*X221097Y109184*X221204Y109116*X221315Y109055*X221432Y109002*X221552Y108961*X221673Y108928*X221800Y108905*X221925Y108892*X222054Y108890*X222181Y108897*X222306Y108915*X222430Y108943*X222552Y108981*X222669Y109027*X222783Y109083*X222893Y109149*X222997Y109223*X223096Y109304*X223187Y109393*X223269Y109489*X223345Y109591*X223413Y109700*X223472Y109812*X223520Y109929*X223561Y110051*X223591Y110175*X223611Y110300*X223622Y110426*X223622Y110554*X223611Y110680*X223591Y110805*X223561Y110929*X223520Y111051*X223472Y111168*X223413Y111280*X223345Y111389*X223269Y111491*X223187Y111587*X223096Y111676*X222997Y111757*X222893Y111831*X222783Y111897*X222669Y111953*X222552Y111999*X222430Y112037*X222306Y112065*X222181Y112083*X222054Y112090*X221925Y112088*X221800Y112075*X221673Y112052*X221552Y112019*X221432Y111978*X221315Y111925*X221204Y111864*X221097Y111796*X220995Y111719*X220901Y111633*X220815Y111539*X220734Y111440*X220662Y111336*X220599Y111224*X220546Y111110*X220502Y110990*X220467Y110868*X220442Y110744*X220426Y110617*X220421Y110490*X211760Y108801D2*X211765Y108679D1*X211780Y108560*X211806Y108440*X211839Y108323*X211884Y108209*X211938Y108100*X211999Y107996*X212070Y107897*X212148Y107803*X212235Y107716*X212329Y107638*X212428Y107566*X212532Y107506*X212641Y107452*X212755Y107406*X212872Y107373*X212992Y107348*X213111Y107333*X213233Y107328*X213355Y107333*X213474Y107348*X213594Y107373*X213711Y107406*X213825Y107452*X213934Y107506*X214038Y107566*X214137Y107638*X214231Y107716*X214318Y107803*X214396Y107897*X214467Y107996*X214528Y108100*X214582Y108209*X214627Y108323*X214660Y108440*X214686Y108560*X214701Y108679*X214706Y108801*X214701Y108923*X214686Y109042*X214660Y109162*X214627Y109278*X214582Y109393*X214528Y109502*X214467Y109606*X214396Y109705*X214318Y109799*X214231Y109885*X214137Y109964*X214038Y110035*X213934Y110096*X213825Y110150*X213711Y110195*X213594Y110228*X213474Y110254*X213355Y110269*X213233Y110274*X213111Y110269*X212992Y110254*X212872Y110228*X212755Y110195*X212641Y110150*X212532Y110096*X212428Y110035*X212329Y109964*X212235Y109885*X212148Y109799*X212070Y109705*X211999Y109606*X211938Y109502*X211884Y109393*X211839Y109278*X211806Y109162*X211780Y109042*X211765Y108923*X211760Y108801*X220421Y9842D2*X220426Y9716D1*X220442Y9588*X220467Y9464*X220502Y9342*X220546Y9223*X220599Y9108*X220662Y8997*X220734Y8893*X220815Y8793*X220901Y8700*X220995Y8613*X221097Y8537*X221204Y8468*X221315Y8407*X221432Y8354*X221552Y8313*X221673Y8280*X221800Y8258*X221925Y8245*X222054Y8242*X222181Y8250*X222306Y8268*X222430Y8296*X222552Y8334*X222669Y8379*X222783Y8435*X222893Y8501*X222997Y8575*X223096Y8656*X223187Y8745*X223269Y8842*X223345Y8943*X223413Y9053*X223472Y9164*X223520Y9281*X223561Y9403*X223591Y9528*X223611Y9652*X223622Y9779*X223622Y9906*X223611Y10033*X223591Y10157*X223561Y10282*X223520Y10404*X223472Y10521*X223413Y10632*X223345Y10742*X223269Y10843*X223187Y10940*X223096Y11029*X222997Y11110*X222893Y11184*X222783Y11250*X222669Y11306*X222552Y11351*X222430Y11389*X222306Y11417*X222181Y11435*X222054Y11443*X221925Y11440*X221800Y11427*X221673Y11405*X221552Y11372*X221432Y11331*X221315Y11278*X221204Y11217*X221097Y11148*X220995Y11072*X220901Y10986*X220815Y10892*X220734Y10792*X220662Y10688*X220599Y10577*X220546Y10462*X220502Y10343*X220467Y10221*X220442Y10096*X220426Y9970*X220421Y9842*X168986Y9842D2*X168991Y9716D1*X169007Y9588*X169032Y9464*X169067Y9342*X169111Y9223*X169164Y9108*X169228Y8997*X169299Y8893*X169380Y8793*X169466Y8700*X169560Y8613*X169662Y8537*X169769Y8468*X169880Y8407*X169997Y8354*X170116Y8313*X170238Y8280*X170365Y8258*X170490Y8245*X170619Y8242*X170746Y8250*X170871Y8268*X170995Y8296*X171117Y8334*X171234Y8379*X171348Y8435*X171458Y8501*X171562Y8575*X171661Y8656*X171752Y8745*X171834Y8842*X171910Y8943*X171978Y9053*X172037Y9164*X172085Y9281*X172126Y9403*X172156Y9528*X172176Y9652*X172187Y9779*X172187Y9906*X172176Y10033*X172156Y10157*X172126Y10282*X172085Y10404*X172037Y10521*X171978Y10632*X171910Y10742*X171834Y10843*X171752Y10940*X171661Y11029*X171562Y11110*X171458Y11184*X171348Y11250*X171234Y11306*X171117Y11351*X170995Y11389*X170871Y11417*X170746Y11435*X170619Y11443*X170490Y11440*X170365Y11427*X170238Y11405*X170116Y11372*X169997Y11331*X169880Y11278*X169769Y11217*X169662Y11148*X169560Y11072*X169466Y10986*X169380Y10892*X169299Y10792*X169228Y10688*X169164Y10577*X169111Y10462*X169067Y10343*X169032Y10221*X169007Y10096*X168991Y9970*X168986Y9842*X135242Y11214D2*X135247Y11092D1*X135263Y10973*X135288Y10853*X135321Y10737*X135367Y10622*X135420Y10513*X135481Y10409*X135552Y10310*X135631Y10216*X135717Y10130*X135811Y10051*X135910Y9980*X136014Y9919*X136124Y9865*X136238Y9820*X136355Y9787*X136474Y9761*X136594Y9746*X136716Y9741*X136837Y9746*X136957Y9761*X137076Y9787*X137193Y9820*X137307Y9865*X137417Y9919*X137521Y9980*X137620Y10051*X137714Y10130*X137800Y10216*X137879Y10310*X137950Y10409*X138011Y10513*X138064Y10622*X138110Y10737*X138143Y10853*X138168Y10973*X138184Y11092*X138189Y11214*X138184Y11336*X138168Y11455*X138143Y11575*X138110Y11692*X138064Y11806*X138011Y11915*X137950Y12019*X137879Y12118*X137800Y12212*X137714Y12299*X137620Y12377*X137521Y12449*X137417Y12510*X137307Y12563*X137193Y12609*X137076Y12642*X136957Y12667*X136837Y12682*X136716Y12687*X136594Y12682*X136474Y12667*X136355Y12642*X136238Y12609*X136124Y12563*X136014Y12510*X135910Y12449*X135811Y12377*X135717Y12299*X135631Y12212*X135552Y12118*X135481Y12019*X135420Y11915*X135367Y11806*X135321Y11692*X135288Y11575*X135263Y11455*X135247Y11336*X135242Y11214*X100749Y11214D2*X100754Y11092D1*X100769Y10973*X100795Y10853*X100828Y10737*X100874Y10622*X100927Y10513*X100988Y10409*X101059Y10310*X101138Y10216*X101224Y10130*X101318Y10051*X101417Y9980*X101521Y9919*X101630Y9865*X101745Y9820*X101862Y9787*X101981Y9761*X102100Y9746*X102222Y9741*X102344Y9746*X102464Y9761*X102583Y9787*X102700Y9820*X102814Y9865*X102923Y9919*X103027Y9980*X103127Y10051*X103221Y10130*X103307Y10216*X103386Y10310*X103457Y10409*X103518Y10513*X103571Y10622*X103617Y10737*X103650Y10853*X103675Y10973*X103690Y11092*X103696Y11214*X103690Y11336*X103675Y11455*X103650Y11575*X103617Y11692*X103571Y11806*X103518Y11915*X103457Y12019*X103386Y12118*X103307Y12212*X103221Y12299*X103127Y12377*X103027Y12449*X102923Y12510*X102814Y12563*X102700Y12609*X102583Y12642*X102464Y12667*X102344Y12682*X102222Y12687*X102100Y12682*X101981Y12667*X101862Y12642*X101745Y12609*X101630Y12563*X101521Y12510*X101417Y12449*X101318Y12377*X101224Y12299*X101138Y12212*X101059Y12118*X100988Y12019*X100927Y11915*X100874Y11806*X100828Y11692*X100795Y11575*X100769Y11455*X100754Y11336*X100749Y11214*X67386Y9842D2*X67391Y9716D1*X67407Y9588*X67432Y9464*X67467Y9342*X67511Y9223*X67564Y9108*X67628Y8997*X67699Y8893*X67780Y8793*X67866Y8700*X67960Y8613*X68062Y8537*X68169Y8468*X68280Y8407*X68397Y8354*X68516Y8313*X68638Y8280*X68765Y8258*X68890Y8245*X69019Y8242*X69146Y8250*X69271Y8268*X69395Y8296*X69517Y8334*X69634Y8379*X69748Y8435*X69858Y8501*X69962Y8575*X70061Y8656*X70152Y8745*X70234Y8842*X70310Y8943*X70378Y9053*X70437Y9164*X70485Y9281*X70526Y9403*X70556Y9528*X70576Y9652*X70587Y9779*X70587Y9906*X70576Y10033*X70556Y10157*X70526Y10282*X70485Y10404*X70437Y10521*X70378Y10632*X70310Y10742*X70234Y10843*X70152Y10940*X70061Y11029*X69962Y11110*X69858Y11184*X69748Y11250*X69634Y11306*X69517Y11351*X69395Y11389*X69271Y11417*X69146Y11435*X69019Y11443*X68890Y11440*X68765Y11427*X68638Y11405*X68516Y11372*X68397Y11331*X68280Y11278*X68169Y11217*X68062Y11148*X67960Y11072*X67866Y10986*X67780Y10892*X67699Y10792*X67628Y10688*X67564Y10577*X67511Y10462*X67467Y10343*X67432Y10221*X67407Y10096*X67391Y9970*X67386Y9842*X8331Y9842D2*X8336Y9716D1*X8352Y9588*X8377Y9464*X8412Y9342*X8456Y9223*X8509Y9108*X8572Y8997*X8644Y8893*X8725Y8793*X8811Y8700*X8905Y8613*X9007Y8537*X9114Y8468*X9225Y8407*X9342Y8354*X9462Y8313*X9583Y8280*X9710Y8258*X9835Y8245*X9964Y8242*X10091Y8250*X10216Y8268*X10340Y8296*X10462Y8334*X10579Y8379*X10693Y8435*X10803Y8501*X10907Y8575*X11006Y8656*X11097Y8745*X11179Y8842*X11255Y8943*X11323Y9053*X11382Y9164*X11430Y9281*X11471Y9403*X11501Y9528*X11521Y9652*X11532Y9779*X11532Y9906*X11521Y10033*X11501Y10157*X11471Y10282*X11430Y10404*X11382Y10521*X11323Y10632*X11255Y10742*X11179Y10843*X11097Y10940*X11006Y11029*X10907Y11110*X10803Y11184*X10693Y11250*X10579Y11306*X10462Y11351*X10340Y11389*X10216Y11417*X10091Y11435*X9964Y11443*X9835Y11440*X9710Y11427*X9583Y11405*X9462Y11372*X9342Y11331*X9225Y11278*X9114Y11217*X9007Y11148*X8905Y11072*X8811Y10986*X8725Y10892*X8644Y10792*X8572Y10688*X8509Y10577*X8456Y10462*X8412Y10343*X8377Y10221*X8352Y10096*X8336Y9970*X8331Y9842*X6756Y6668D2*X225176Y6668D1*X225176Y113652*X6756Y113652*X6756Y6668*X0Y0D2*M02*