
M48
METRIC,TZ,000.000
T01C0.5
T02C0.701
T03C0.8
T04C1.1
T05C1.199
T06C2.946
T07C3.2
%
M71
G90
T01
X126136Y074930
X124866Y074930
X048666Y102235
X047396Y102870
X046126Y103505
X043904Y103505
X042316Y102552
X041046Y101600
X038506Y103505
X025806Y096838
X023266Y097790
X028981Y100965
X033109Y099695
X034696Y101600
X037236Y100648
X035966Y098108
X038506Y097472
X043904Y097155
X050254Y097155
X051841Y097790
X053746Y100648
X052476Y101600
X055969Y102235
X057239Y100648
X057556Y099060
X060096Y100330
X063271Y103188
X067081Y098425
X065811Y097472
X070256Y097155
X071526Y098108
X076606Y097155
X079781Y100965
X099466Y102552
X098196Y103188
X096926Y103822
X095339Y103822
X093116Y102870
X091846Y102235
X089306Y103822
X088036Y101282
X085814Y101918
X084226Y100330
X086766Y098425
X089306Y098108
X093751Y097472
X101054Y097472
X102641Y098108
X103911Y100648
X103276Y101918
X105816Y102552
X106769Y100965
X108356Y098742
X110896Y100648
X116611Y100330
X114071Y103822
X117881Y102552
X127406Y096520
X130581Y100648
X153441Y098108
X151536Y097472
X145504Y097472
X140106Y097472
X137566Y098108
X135026Y100648
X136296Y101600
X138836Y101282
X140106Y103822
X142646Y102235
X143916Y102552
X146139Y103822
X147726Y103822
X148996Y103188
X150266Y102552
X154076Y101918
X155346Y101600
X156616Y102552
X157886Y101918
X159156Y099060
X161696Y099060
X164871Y103188
X167411Y099695
X168999Y101918
X181381Y100648
X215671Y102552
X202654Y097472
X204241Y098108
X209956Y099695
X209004Y101918
X207416Y102552
X206146Y101918
X204876Y101918
X201066Y102552
X199796Y103188
X198526Y103822
X196621Y103822
X194716Y103188
X193446Y102552
X190906Y103822
X189636Y100965
X187096Y101918
X186144Y100012
X188366Y097790
X190906Y096838
X218846Y074930
X172809Y069215
X166141Y070168
X164871Y070168
X160426Y070802
X159156Y070802
X154711Y071438
X153441Y071438
X148996Y072072
X147726Y072072
X143281Y072708
X142011Y072708
X137566Y073342
X136296Y073342
X131851Y073978
X130581Y073978
X121691Y067628
X115341Y070168
X114071Y070168
X109626Y070802
X108356Y070802
X103911Y071438
X102641Y071438
X098196Y072072
X096926Y072072
X092481Y072708
X091211Y072708
X086766Y073342
X085496Y073342
X081051Y073978
X079781Y073978
X075336Y074930
X074066Y074930
X068034Y084455
X034696Y069532
X030251Y073978
X035966Y073342
X040411Y071438
X041681Y072708
X047396Y072072
X053111Y071438
X058826Y070802
X064541Y070168
X068669Y067628
X070891Y057150
X067716Y057150
X025806Y046038
X033109Y046672
X035966Y046038
X041681Y045402
X047396Y044768
X053111Y044132
X058826Y043498
X071209Y022542
X078511Y022542
X085179Y022542
X092164Y022542
X099149Y022542
X106451Y022542
X113119Y022542
X116929Y022542
X123596Y022225
X127406Y020955
X130581Y021590
X134391Y020955
X137566Y020955
X141376Y020320
X144551Y020320
X148361Y019685
X151536Y019685
X155346Y019050
X158521Y019050
X162331Y018098
X166141Y016828
X173126Y018415
X176936Y026670
X177889Y027622
X178841Y028575
X179794Y029528
X180746Y030480
X181699Y031432
X182651Y033338
X183604Y032385
X207734Y045085
X203924Y045085
X198526Y043815
X192811Y043815
X187096Y041910
X181381Y041910
X175666Y042228
X166141Y042862
X164871Y042862
X160426Y043498
X159156Y043498
X154711Y044132
X153441Y044132
X148996Y044768
X147726Y044768
X143281Y045402
X142011Y045402
X137566Y046038
X136296Y046038
X131851Y046672
X130581Y046672
X126136Y047625
X124866Y047625
X115341Y042862
X114071Y042862
X109626Y043498
X108356Y043498
X103911Y044132
X102641Y044132
X098196Y044768
X096926Y044768
X092481Y045402
X091211Y045402
X086766Y046038
X085496Y046038
X081051Y046672
X079781Y046672
X075336Y047625
X074066Y047625
X068986Y041910
X067081Y041592
X064541Y042862
X060414Y039052
X031204Y020320
T02
X075336Y089535
X086766Y089535
X098196Y089535
X109626Y089535
X169951Y026035
X171221Y024765
X172491Y026035
X172491Y028575
X171221Y029845
X169951Y028575
X162966Y028575
X164236Y029845
X165506Y028575
X165506Y026035
X164236Y024765
X162966Y026035
X155981Y026035
X157251Y024765
X158521Y026035
X158521Y028575
X157251Y029845
X155981Y028575
X148996Y028575
X150266Y029845
X151536Y028575
X151536Y026035
X150266Y024765
X148996Y026035
X142011Y026035
X143281Y024765
X144551Y026035
X144551Y028575
X143281Y029845
X142011Y028575
X135026Y028575
X136296Y029845
X137566Y028575
X137566Y026035
X136296Y024765
X135026Y026035
X128041Y026035
X129311Y024765
X130581Y026035
X130581Y028575
X129311Y029845
X128041Y028575
X121056Y028575
X122326Y029845
X123596Y028575
X123596Y026035
X122326Y024765
X121056Y026035
X113754Y026035
X115024Y024765
X116294Y026035
X116294Y028575
X115024Y029845
X113754Y028575
X106769Y028575
X108039Y029845
X109309Y028575
X109309Y026035
X108039Y024765
X106769Y026035
X092799Y026035
X094069Y024765
X095339Y026035
X099784Y026035
X101054Y024765
X102324Y026035
X102324Y028575
X101054Y029845
X099784Y028575
X095339Y028575
X094069Y029845
X092799Y028575
X085814Y028575
X087084Y029845
X088354Y028575
X088354Y026035
X087084Y024765
X085814Y026035
X078829Y026035
X080099Y024765
X081369Y026035
X081369Y028575
X080099Y029845
X078829Y028575
X071844Y028575
X073114Y029845
X074384Y028575
X074384Y026035
X073114Y024765
X071844Y026035
X064859Y026035
X066129Y024765
X067399Y026035
X067399Y028575
X066129Y029845
X064859Y028575
X039459Y027622
X035649Y028258
X033109Y028258
X034379Y026988
X038189Y026352
X040729Y026352
X041046Y022225
X042316Y023495
X043586Y022225
X043586Y019685
X041046Y019685
X042316Y018415
X040411Y014922
X039141Y013652
X037871Y014922
X035649Y013018
X034379Y014288
X033109Y013018
X009296Y017462
X010566Y018732
X009296Y020002
X009296Y022542
X010566Y023812
X009296Y025082
X009296Y027622
X010566Y028892
X009296Y030162
X009296Y040322
X010566Y041592
X009296Y042862
X009296Y045402
X010566Y046672
X009296Y047942
X009296Y050482
X010566Y051752
X009296Y053022
X009296Y086360
X009296Y099060
X010566Y097790
X009296Y096520
X009296Y093980
X010566Y092710
X009296Y091440
X009296Y088900
X010566Y087630
X024536Y089535
X035966Y089535
X047396Y089535
X058826Y089535
X064541Y062230
X065811Y060960
X064541Y059690
X064541Y057150
X065811Y055880
X064541Y054610
X064541Y052070
X065811Y050800
X064541Y049530
X058826Y049530
X060096Y050800
X058826Y052070
X058826Y054610
X060096Y055880
X058826Y057150
X058826Y059690
X060096Y060960
X058826Y062230
X053111Y062230
X054381Y060960
X053111Y059690
X053111Y057150
X054381Y055880
X053111Y054610
X053111Y052070
X054381Y050800
X053111Y049530
X047396Y049530
X048666Y050800
X047396Y052070
X047396Y054610
X048666Y055880
X047396Y057150
X047396Y059690
X048666Y060960
X047396Y062230
X041681Y062230
X042951Y060960
X041681Y059690
X041681Y057150
X042951Y055880
X041681Y054610
X041681Y052070
X042951Y050800
X041681Y049530
X035966Y049530
X037236Y050800
X035966Y052070
X035966Y054610
X037236Y055880
X035966Y057150
X035966Y059690
X037236Y060960
X035966Y062230
X030251Y062230
X031521Y060960
X030251Y059690
X030251Y057150
X031521Y055880
X030251Y054610
X030251Y052070
X031521Y050800
X030251Y049530
X024536Y049530
X025806Y050800
X024536Y052070
X024536Y054610
X025806Y055880
X024536Y057150
X024536Y059690
X025806Y060960
X024536Y062230
X009296Y063182
X010566Y064452
X009296Y065722
X009296Y068262
X010566Y069532
X009296Y070802
X009296Y075882
X009296Y073342
X010566Y074612
X024536Y076835
X025806Y078105
X024536Y079375
X024536Y081915
X025806Y083185
X024536Y084455
X024536Y086995
X025806Y088265
X030251Y089535
X031521Y088265
X030251Y086995
X030251Y084455
X031521Y083185
X030251Y081915
X030251Y079375
X030251Y076835
X031521Y078105
X035966Y076835
X037236Y078105
X035966Y079375
X035966Y081915
X037236Y083185
X035966Y084455
X035966Y086995
X037236Y088265
X041681Y089535
X042951Y088265
X041681Y086995
X041681Y084455
X042951Y083185
X041681Y081915
X041681Y079375
X041681Y076835
X042951Y078105
X047396Y076835
X048666Y078105
X047396Y079375
X047396Y081915
X048666Y083185
X047396Y084455
X047396Y086995
X048666Y088265
X053111Y089535
X054381Y088265
X053111Y086995
X053111Y084455
X054381Y083185
X053111Y081915
X053111Y079375
X053111Y076835
X054381Y078105
X058826Y076835
X060096Y078105
X058826Y079375
X058826Y081915
X060096Y083185
X058826Y084455
X058826Y086995
X060096Y088265
X064541Y089535
X065811Y088265
X064541Y086995
X064541Y084455
X065811Y083185
X064541Y081915
X064541Y079375
X064541Y076835
X065811Y078105
X075336Y076835
X076606Y078105
X075336Y079375
X075336Y081915
X076606Y083185
X075336Y084455
X075336Y086995
X076606Y088265
X081051Y089535
X082321Y088265
X081051Y086995
X081051Y084455
X082321Y083185
X081051Y081915
X081051Y079375
X081051Y076835
X082321Y078105
X086766Y076835
X088036Y078105
X086766Y079375
X086766Y081915
X088036Y083185
X086766Y084455
X086766Y086995
X088036Y088265
X092481Y089535
X093751Y088265
X092481Y086995
X092481Y084455
X093751Y083185
X092481Y081915
X092481Y079375
X092481Y076835
X093751Y078105
X098196Y076835
X099466Y078105
X098196Y079375
X098196Y081915
X099466Y083185
X098196Y084455
X098196Y086995
X099466Y088265
X103911Y089535
X105181Y088265
X103911Y086995
X103911Y084455
X105181Y083185
X103911Y081915
X103911Y079375
X103911Y076835
X105181Y078105
X109626Y076835
X110896Y078105
X109626Y079375
X109626Y081915
X110896Y083185
X109626Y084455
X109626Y086995
X110896Y088265
X115341Y089535
X116611Y088265
X115341Y086995
X115341Y084455
X116611Y083185
X115341Y081915
X115341Y079375
X116611Y078105
X115341Y076835
X115341Y062230
X103911Y062230
X092481Y062230
X081051Y062230
X075336Y062230
X076606Y060960
X075336Y059690
X075336Y057150
X076606Y055880
X075336Y054610
X075336Y052070
X075336Y049530
X076606Y050800
X081051Y049530
X082321Y050800
X081051Y052070
X081051Y054610
X082321Y055880
X081051Y057150
X081051Y059690
X082321Y060960
X086766Y062230
X088036Y060960
X086766Y059690
X086766Y057150
X088036Y055880
X086766Y054610
X086766Y052070
X086766Y049530
X088036Y050800
X092481Y049530
X093751Y050800
X092481Y052070
X092481Y054610
X093751Y055880
X092481Y057150
X092481Y059690
X093751Y060960
X098196Y062230
X099466Y060960
X098196Y059690
X098196Y057150
X099466Y055880
X098196Y054610
X098196Y052070
X098196Y049530
X099466Y050800
X103911Y049530
X105181Y050800
X103911Y052070
X103911Y054610
X105181Y055880
X103911Y057150
X103911Y059690
X105181Y060960
X109626Y062230
X110896Y060960
X109626Y059690
X109626Y057150
X110896Y055880
X109626Y054610
X109626Y052070
X109626Y049530
X110896Y050800
X115341Y049530
X116611Y050800
X115341Y052070
X115341Y054610
X116611Y055880
X115341Y057150
X115341Y059690
X116611Y060960
X166141Y062230
X154711Y062230
X143281Y062230
X131851Y062230
X126136Y062230
X127406Y060960
X126136Y059690
X126136Y057150
X127406Y055880
X126136Y054610
X126136Y052070
X126136Y049530
X127406Y050800
X131851Y049530
X133121Y050800
X131851Y052070
X131851Y054610
X133121Y055880
X131851Y057150
X131851Y059690
X133121Y060960
X137566Y062230
X138836Y060960
X137566Y059690
X137566Y057150
X138836Y055880
X137566Y054610
X137566Y052070
X137566Y049530
X138836Y050800
X143281Y049530
X144551Y050800
X143281Y052070
X143281Y054610
X144551Y055880
X143281Y057150
X143281Y059690
X144551Y060960
X148996Y062230
X150266Y060960
X148996Y059690
X148996Y057150
X150266Y055880
X148996Y054610
X148996Y052070
X148996Y049530
X150266Y050800
X154711Y049530
X155981Y050800
X154711Y052070
X154711Y054610
X155981Y055880
X154711Y057150
X154711Y059690
X155981Y060960
X160426Y062230
X161696Y060960
X160426Y059690
X160426Y057150
X161696Y055880
X160426Y054610
X160426Y052070
X160426Y049530
X161696Y050800
X166141Y049530
X167411Y050800
X166141Y052070
X166141Y054610
X167411Y055880
X166141Y057150
X166141Y059690
X167411Y060960
X205511Y062230
X194081Y062230
X182651Y062230
X176936Y062230
X178206Y060960
X176936Y059690
X176936Y057150
X178206Y055880
X176936Y054610
X176936Y052070
X176936Y049530
X178206Y050800
X182651Y049530
X183921Y050800
X182651Y052070
X182651Y054610
X183921Y055880
X182651Y057150
X182651Y059690
X183921Y060960
X188366Y062230
X189636Y060960
X188366Y059690
X188366Y057150
X189636Y055880
X188366Y054610
X188366Y052070
X188366Y049530
X189636Y050800
X194081Y049530
X195351Y050800
X194081Y052070
X194081Y054610
X195351Y055880
X194081Y057150
X194081Y059690
X195351Y060960
X199796Y062230
X201066Y060960
X199796Y059690
X199796Y057150
X201066Y055880
X199796Y054610
X199796Y052070
X199796Y049530
X201066Y050800
X205511Y049530
X206781Y050800
X205511Y052070
X205511Y054610
X206781Y055880
X205511Y057150
X205511Y059690
X206781Y060960
X211226Y062230
X212496Y060960
X211226Y059690
X211226Y057150
X212496Y055880
X211226Y054610
X211226Y052070
X211226Y049530
X212496Y050800
X216941Y049530
X218211Y050800
X216941Y052070
X216941Y054610
X218211Y055880
X216941Y057150
X216941Y059690
X218211Y060960
X216941Y062230
X216941Y076835
X218211Y078105
X216941Y079375
X216941Y081915
X218211Y083185
X216941Y084455
X216941Y086995
X218211Y088265
X216941Y089535
X211226Y089535
X212496Y088265
X211226Y086995
X211226Y084455
X212496Y083185
X211226Y081915
X211226Y079375
X212496Y078105
X211226Y076835
X205511Y076835
X206781Y078105
X205511Y079375
X205511Y081915
X206781Y083185
X205511Y084455
X205511Y086995
X206781Y088265
X205511Y089535
X199796Y089535
X201066Y088265
X199796Y086995
X199796Y084455
X201066Y083185
X199796Y081915
X199796Y079375
X201066Y078105
X199796Y076835
X194081Y076835
X195351Y078105
X194081Y079375
X194081Y081915
X195351Y083185
X194081Y084455
X194081Y086995
X195351Y088265
X194081Y089535
X188366Y089535
X189636Y088265
X188366Y086995
X188366Y084455
X189636Y083185
X188366Y081915
X188366Y079375
X189636Y078105
X188366Y076835
X182651Y076835
X183921Y078105
X182651Y079375
X182651Y081915
X183921Y083185
X182651Y084455
X182651Y086995
X183921Y088265
X182651Y089535
X176936Y089535
X178206Y088265
X176936Y086995
X176936Y084455
X178206Y083185
X176936Y081915
X176936Y079375
X178206Y078105
X176936Y076835
X166141Y076835
X167411Y078105
X166141Y079375
X166141Y081915
X167411Y083185
X166141Y084455
X166141Y086995
X167411Y088265
X166141Y089535
X160426Y089535
X161696Y088265
X160426Y086995
X160426Y084455
X161696Y083185
X160426Y081915
X160426Y079375
X161696Y078105
X160426Y076835
X154711Y076835
X155981Y078105
X154711Y079375
X154711Y081915
X155981Y083185
X154711Y084455
X154711Y086995
X155981Y088265
X154711Y089535
X148996Y089535
X150266Y088265
X148996Y086995
X148996Y084455
X150266Y083185
X148996Y081915
X148996Y079375
X150266Y078105
X148996Y076835
X143281Y076835
X144551Y078105
X143281Y079375
X143281Y081915
X144551Y083185
X143281Y084455
X143281Y086995
X144551Y088265
X143281Y089535
X137566Y089535
X138836Y088265
X137566Y086995
X137566Y084455
X138836Y083185
X137566Y081915
X137566Y079375
X138836Y078105
X137566Y076835
X131851Y076835
X133121Y078105
X131851Y079375
X131851Y081915
X133121Y083185
X131851Y084455
X131851Y086995
X133121Y088265
X131851Y089535
X126136Y089535
X127406Y088265
X126136Y086995
X126136Y084455
X127406Y083185
X126136Y081915
X126136Y079375
X127406Y078105
X126136Y076835
T03
X044856Y076200
X039141Y076200
X033426Y076200
X027711Y076200
X021996Y076200
X011836Y078422
X014376Y078422
X014376Y075248
X012471Y075248
X012471Y070168
X014376Y070168
X014376Y068262
X012471Y068262
X012471Y063182
X014376Y063182
X014376Y052388
X012471Y052388
X011836Y055562
X014376Y055562
X021996Y055562
X021996Y053975
X027711Y053975
X027711Y055562
X033426Y055562
X033426Y053975
X062001Y053975
X062001Y055562
X056286Y055562
X056286Y053975
X050571Y053975
X050571Y055562
X044856Y055562
X044856Y053975
X039141Y053975
X039141Y055562
X041681Y064452
X053111Y064452
X064541Y064452
X062001Y060642
X062001Y062230
X058826Y064452
X056286Y062230
X056286Y060642
X050571Y060642
X050571Y062230
X047396Y064452
X044856Y062230
X044856Y060642
X039141Y060642
X039141Y062230
X035966Y064452
X033426Y060642
X033426Y062230
X030251Y064452
X027711Y062230
X027711Y060642
X021996Y060642
X021996Y062230
X024536Y064452
X021996Y067310
X024536Y066992
X027711Y067310
X030251Y066992
X033426Y067310
X035966Y066992
X039141Y067310
X041681Y066992
X044856Y067310
X047396Y066992
X050571Y067310
X053111Y066992
X056286Y067310
X058826Y066992
X062001Y067310
X064541Y066992
X123596Y099378
X126136Y099378
X128359Y099378
X133439Y099378
X208686Y060642
X208686Y062230
X211226Y064452
X208686Y067310
X211226Y066992
X214401Y067310
X216941Y066992
X216941Y064452
X214401Y062230
X214401Y060642
X219799Y022860
X217259Y022860
X215671Y033338
X215671Y028258
X174714Y024765
X174714Y029845
X174714Y032068
X174714Y033972
X173126Y036830
X170586Y036830
X143281Y064452
X154711Y064452
X174396Y053975
X174396Y055562
X180111Y055562
X180111Y053975
X185826Y053975
X185826Y055562
X191541Y055562
X191541Y053975
X197256Y053975
X197256Y055562
X202971Y055562
X202971Y053975
X208686Y053975
X208686Y055562
X214401Y055562
X214401Y053975
X214401Y048895
X208686Y048895
X202971Y048895
X197256Y048895
X191541Y048895
X185826Y048895
X180111Y048895
X174396Y048895
X163601Y048895
X157886Y048895
X152171Y048895
X146456Y048895
X140741Y048895
X135026Y048895
X129311Y048895
X123596Y048895
X097561Y024765
X104546Y024765
X111531Y024765
X118516Y024765
X125819Y024765
X132804Y024765
X139789Y024765
X146774Y024765
X153759Y024765
X160744Y024765
X167729Y024765
X167729Y029845
X167729Y032068
X169634Y032068
X169634Y033972
X167729Y033972
X166141Y036830
X163601Y036830
X156934Y036830
X159474Y036830
X160744Y033972
X162649Y033972
X162649Y032068
X160744Y032068
X160744Y029845
X153759Y029845
X153759Y032068
X155664Y032068
X155664Y033972
X153759Y033972
X152489Y036830
X149949Y036830
X142964Y036830
X145504Y036830
X146774Y033972
X148679Y033972
X148679Y032068
X146774Y032068
X146774Y029845
X139789Y029845
X139789Y032068
X141694Y032068
X141694Y033972
X139789Y033972
X138519Y036830
X135979Y036830
X128994Y036830
X131534Y036830
X132804Y033972
X134709Y033972
X134709Y032068
X132804Y032068
X132804Y029845
X125819Y029845
X125501Y032068
X127724Y032068
X127724Y033972
X125501Y033972
X124231Y036830
X121691Y036830
X114706Y036830
X117246Y036830
X118516Y033972
X120421Y033972
X120421Y032068
X118516Y032068
X118516Y029845
X111531Y029845
X111531Y032068
X113436Y032068
X113436Y033972
X111531Y033972
X110261Y036830
X107721Y036830
X100736Y036830
X103276Y036830
X104546Y033972
X106451Y033972
X106451Y032068
X104546Y032068
X104546Y029845
X097561Y029845
X097561Y032068
X099466Y032068
X099466Y033972
X097561Y033972
X096291Y036830
X093751Y036830
X076606Y029845
X068034Y036830
X065494Y036830
X064541Y033972
X064541Y032068
X069621Y029845
X071526Y032068
X069621Y032068
X069621Y033972
X071526Y033972
X072479Y036830
X075019Y036830
X082321Y036830
X079781Y036830
X078511Y033972
X076606Y033972
X076606Y032068
X078511Y032068
X083591Y029845
X085496Y032068
X083591Y032068
X083591Y033972
X085496Y033972
X086766Y036830
X089306Y036830
X090576Y033972
X092481Y033972
X092481Y032068
X090576Y032068
X090576Y029845
X090576Y024765
X083591Y024765
X076606Y024765
X069621Y024765
X066764Y015240
X061684Y015240
X050254Y020002
X050254Y022542
X026759Y026988
X029299Y026988
X037871Y024130
X035649Y024130
X029299Y022542
X026759Y022542
X027076Y014605
X029616Y014605
X040094Y017145
X037871Y019050
X035649Y019050
X035014Y017145
X029616Y018415
X027076Y018415
X012471Y017462
X014376Y017462
X014376Y022542
X012471Y022542
X012471Y024448
X014376Y024448
X014376Y029528
X012471Y029528
X011836Y032702
X014376Y032702
X018186Y031432
X023266Y032702
X025806Y032702
X028346Y032702
X030886Y032702
X033426Y032702
X033426Y037782
X030886Y037782
X028346Y037782
X025806Y037782
X023266Y037782
X018186Y036512
X012471Y040322
X014376Y040322
X014376Y045402
X012471Y045402
X012471Y047308
X014376Y047308
X021996Y048895
X027711Y048895
X033426Y048895
X039141Y048895
X044856Y048895
X050571Y048895
X056286Y048895
X062001Y048895
X072796Y048895
X078511Y048895
X084226Y048895
X089941Y048895
X095656Y048895
X101371Y048895
X107086Y048895
X112801Y048895
X112801Y060642
X112801Y062230
X115341Y064452
X115341Y066992
X112801Y067310
X107086Y067310
X109626Y066992
X109626Y064452
X107086Y062230
X107086Y060642
X101371Y060642
X101371Y062230
X103911Y064452
X103911Y066992
X101371Y067310
X095656Y067310
X098196Y066992
X098196Y064452
X095656Y062230
X095656Y060642
X089941Y060642
X089941Y062230
X092481Y064452
X092481Y066992
X089941Y067310
X084226Y067310
X086766Y066992
X086766Y064452
X084226Y062230
X084226Y060642
X078511Y060642
X078511Y062230
X081051Y064452
X081051Y066992
X078511Y067310
X072796Y067310
X075336Y066992
X075336Y064452
X072796Y062230
X072796Y060642
X072796Y055562
X072796Y053975
X078511Y053975
X078511Y055562
X084226Y055562
X084226Y053975
X089941Y053975
X089941Y055562
X095656Y055562
X095656Y053975
X101371Y053975
X101371Y055562
X107086Y055562
X107086Y053975
X112801Y053975
X112801Y055562
X123596Y055562
X123596Y053975
X129311Y053975
X129311Y055562
X135026Y055562
X135026Y053975
X140741Y053975
X140741Y055562
X146456Y055562
X146456Y053975
X152171Y053975
X152171Y055562
X157886Y055562
X157886Y053975
X163601Y053975
X163601Y055562
X163601Y060642
X163601Y062230
X160426Y064452
X157886Y062230
X157886Y060642
X152171Y060642
X152171Y062230
X148996Y064452
X146456Y062230
X146456Y060642
X140741Y060642
X140741Y062230
X137566Y064452
X135026Y060642
X135026Y062230
X131851Y064452
X129311Y062230
X129311Y060642
X123596Y060642
X123596Y062230
X126136Y064452
X123596Y067310
X126136Y066992
X129311Y067310
X131851Y066992
X135026Y067310
X137566Y066992
X140741Y067310
X143281Y066992
X146456Y067310
X148996Y066992
X152171Y067310
X154711Y066992
X157886Y067310
X160426Y066992
X163601Y067310
X166141Y066992
X166141Y064452
X174396Y060642
X174396Y062230
X176936Y064452
X182651Y064452
X180111Y062230
X180111Y060642
X185826Y060642
X185826Y062230
X188366Y064452
X194081Y064452
X191541Y062230
X191541Y060642
X197256Y060642
X197256Y062230
X199796Y064452
X202971Y060642
X202971Y062230
X205511Y064452
X205511Y066992
X202971Y067310
X199796Y066992
X197256Y067310
X194081Y066992
X191541Y067310
X188366Y066992
X185826Y067310
X182651Y066992
X180111Y067310
X176936Y066992
X174396Y067310
X174396Y076200
X180111Y076200
X185826Y076200
X191541Y076200
X197256Y076200
X202971Y076200
X208686Y076200
X214401Y076200
X217259Y100648
X212179Y100648
X211226Y091758
X208686Y087948
X208686Y089535
X205511Y091758
X202971Y087948
X202971Y089535
X197256Y094615
X185826Y094615
X184239Y099378
X179159Y099378
X176936Y099378
X174396Y099378
X174396Y094615
X176936Y091758
X176936Y094298
X180111Y094615
X182651Y094298
X182651Y091758
X180111Y089535
X180111Y087948
X185826Y087948
X185826Y089535
X188366Y091758
X188366Y094298
X191541Y094615
X194081Y094298
X194081Y091758
X191541Y089535
X191541Y087948
X197256Y087948
X197256Y089535
X199796Y091758
X199796Y094298
X202971Y094615
X205511Y094298
X208686Y094615
X211226Y094298
X214401Y094615
X216941Y094298
X216941Y091758
X214401Y089535
X214401Y087948
X214401Y082868
X214401Y081280
X208686Y081280
X208686Y082868
X202971Y082868
X202971Y081280
X197256Y081280
X197256Y082868
X191541Y082868
X191541Y081280
X185826Y081280
X185826Y082868
X180111Y082868
X180111Y081280
X174396Y081280
X174396Y082868
X171221Y085725
X174396Y087948
X174396Y089535
X171221Y090805
X163601Y094615
X166141Y094298
X166141Y091758
X163601Y089535
X163601Y087948
X157886Y087948
X157886Y089535
X160426Y091758
X160426Y094298
X157886Y094615
X152171Y094615
X154711Y094298
X154711Y091758
X152171Y089535
X152171Y087948
X146456Y087948
X146456Y089535
X148996Y091758
X148996Y094298
X146456Y094615
X140741Y094615
X143281Y094298
X143281Y091758
X140741Y089535
X140741Y087948
X135026Y087948
X135026Y089535
X137566Y091758
X137566Y094298
X135026Y094615
X129311Y094615
X131851Y094298
X131851Y091758
X129311Y089535
X129311Y087948
X123596Y081280
X123596Y082868
X129311Y082868
X129311Y081280
X135026Y081280
X135026Y082868
X140741Y082868
X140741Y081280
X146456Y081280
X146456Y082868
X152171Y082868
X152171Y081280
X157886Y081280
X157886Y082868
X163601Y082868
X163601Y081280
X163601Y076200
X157886Y076200
X152171Y076200
X146456Y076200
X140741Y076200
X135026Y076200
X129311Y076200
X123596Y076200
X112801Y076200
X107086Y076200
X101371Y076200
X095656Y076200
X089941Y076200
X084226Y076200
X078511Y076200
X072796Y076200
X062001Y076200
X056286Y076200
X050571Y076200
X053111Y091758
X041681Y091758
X031521Y099378
X026441Y099378
X024536Y099378
X021996Y099378
X014376Y101600
X011836Y101600
X012471Y098425
X014376Y098425
X014376Y091440
X014376Y093345
X012471Y093345
X012471Y091440
X012471Y086360
X014376Y086360
X021996Y082868
X021996Y081280
X027711Y081280
X027711Y082868
X033426Y082868
X033426Y081280
X039141Y081280
X039141Y082868
X044856Y082868
X044856Y081280
X050571Y081280
X050571Y082868
X056286Y082868
X056286Y081280
X062001Y081280
X062001Y082868
X068986Y090805
X064541Y091758
X062001Y087948
X062001Y089535
X058826Y091758
X056286Y089535
X056286Y087948
X050571Y087948
X050571Y089535
X047396Y091758
X044856Y089535
X044856Y087948
X039141Y087948
X039141Y089535
X035966Y091758
X033426Y087948
X033426Y089535
X030251Y091758
X027711Y089535
X027711Y087948
X021996Y087948
X021996Y089535
X024536Y091758
X021996Y094615
X024536Y094298
X027711Y094615
X030251Y094298
X033426Y094615
X035966Y094298
X039141Y094615
X041681Y094298
X044856Y094615
X047396Y094298
X050571Y094615
X053111Y094298
X056286Y094615
X058826Y094298
X062001Y094615
X064541Y094298
X072796Y099378
X075336Y099378
X077241Y099378
X082321Y099378
X086766Y091758
X098196Y091758
X109626Y091758
X112801Y089535
X112801Y087948
X107086Y087948
X107086Y089535
X103911Y091758
X101371Y089535
X101371Y087948
X095656Y087948
X095656Y089535
X092481Y091758
X089941Y089535
X089941Y087948
X084226Y087948
X084226Y089535
X081051Y091758
X078511Y087948
X078511Y089535
X075336Y091758
X072796Y094615
X075336Y094298
X078511Y094615
X081051Y094298
X084226Y094615
X086766Y094298
X089941Y094615
X092481Y094298
X095656Y094615
X098196Y094298
X101371Y094615
X103911Y094298
X107086Y094615
X109626Y094298
X112801Y094615
X115341Y094298
X115341Y091758
X120104Y090805
X123596Y094615
X126136Y094298
X126136Y091758
X123596Y089535
X123596Y087948
X120104Y085725
X112801Y082868
X112801Y081280
X107086Y081280
X107086Y082868
X101371Y082868
X101371Y081280
X095656Y081280
X095656Y082868
X089941Y082868
X089941Y081280
X084226Y081280
X084226Y082868
X078511Y082868
X078511Y081280
X072796Y081280
X072796Y082868
X068986Y085725
X072796Y087948
X072796Y089535
T04
X130899Y010478
X128359Y010478
X125819Y010478
X123279Y010478
X120739Y010478
X118199Y010478
X115659Y010478
X113119Y010478
X110579Y010478
X108039Y010478
X108039Y013018
X110579Y013018
X113119Y013018
X115659Y013018
X118199Y013018
X120739Y013018
X123279Y013018
X125819Y013018
X128359Y013018
X130899Y013018
X199796Y106998
X202336Y106998
X204876Y106998
X207416Y106998
X207416Y109538
X204876Y109538
X202336Y109538
X199796Y109538
X184556Y109538
X187096Y109538
X189636Y109538
X192176Y109538
X194716Y109538
X197256Y109538
X197256Y106998
X194716Y106998
X192176Y106998
X189636Y106998
X187096Y106998
X184556Y106998
X156616Y106998
X156616Y109538
X136296Y109538
X138836Y109538
X141376Y109538
X143916Y109538
X146456Y109538
X148996Y109538
X151536Y109538
X154076Y109538
X154076Y106998
X151536Y106998
X148996Y106998
X146456Y106998
X143916Y106998
X141376Y106998
X138836Y106998
X136296Y106998
X133756Y106998
X133756Y109538
X093116Y109538
X095656Y109538
X098196Y109538
X100736Y109538
X103276Y109538
X105816Y109538
X105816Y106998
X103276Y106998
X100736Y106998
X098196Y106998
X095656Y106998
X093116Y106998
X082956Y106998
X085496Y106998
X088036Y106998
X090576Y106998
X090576Y109538
X088036Y109538
X085496Y109538
X082956Y109538
X049936Y109474
X052476Y109474
X055016Y109474
X055016Y106934
X052476Y106934
X049936Y106934
X047396Y106934
X047396Y109474
X044856Y109474
X042316Y109474
X039776Y109474
X037236Y109474
X034696Y109474
X032156Y109474
X032156Y106934
X034696Y106934
X037236Y106934
X039776Y106934
X042316Y106934
X044856Y106934
T05
X009614Y103188
X009614Y080010
X009614Y056832
X009614Y033655
X222021Y034290
X222021Y030162
T06
X102222Y011214
X136716Y011214
X213233Y108801
X178740Y108801
X162433Y108801
X127940Y108801
X111633Y108801
X077140Y108801
X060833Y108737
X026340Y108737
T07
X009931Y110490
X068986Y110490
X170586Y110490
X222021Y110490
X222021Y009842
X170586Y009842
X068986Y009842
X009931Y009842
M30
