G04 Output by ViewMate Deluxe V11.0.9  PentaLogix LLC*
G04 Thu Nov 20 16:07:24 2014*
%FSLAX33Y33*%
%MOMM*%
%IPPOS*%
%ADD10R,1.651X1.651*%
%ADD11C,1.651*%
%ADD12C,1.3081*%
%ADD13C,1.209*%
%ADD14R,1.8009X1.8009*%
%ADD15C,0.4064*%
%ADD16C,0.6096*%

%LPD*%
X0Y0D2*D15*G1X64389Y12954D2*X64389Y11049D1*X2159Y17399D2*X2159Y14859D1*X4699Y17399D2*X3429Y18669D1*X3429Y23114*X4699Y24384*X20574Y24384*X21844Y25654*X21844Y26924*X23114Y28194*X24384Y28194*X28194Y26924D2*X26924Y28194D1*X30734Y26924D2*X29464Y28194D1*X30734Y22479D2*X31369Y22479D1*X32004Y23114*X32004Y25654*X47244Y25654D2*X48514Y24384D1*X59309Y24384*X60579Y23114*X60579Y18669*X62484Y16764*X60579Y11049D2*X60579Y14859D1*X56769Y12954D2*X56769Y11049D1*X59309Y17399D2*X59309Y12954D1*X55499Y14859D2*X55499Y17399D1*X52959Y11049D2*X52959Y14859D1*X49149Y12954D2*X49149Y11049D1*X51689Y17399D2*X51689Y12954D1*X47879Y14859D2*X47879Y17399D1*X45339Y11049D2*X45339Y14859D1*X41529Y12954D2*X41529Y11049D1*X44069Y17399D2*X44069Y12954D1*X40259Y14859D2*X40259Y17399D1*X37719Y11049D2*X37719Y14859D1*X33909Y12954D2*X33909Y11049D1*X36449Y17399D2*X36449Y12954D1*X32639Y14859D2*X32639Y17399D1*X30099Y11049D2*X30099Y14859D1*X18669Y12954D2*X18669Y11049D1*X11049Y11049D2*X11049Y12954D1*X7239Y2794D2*X7239Y5334D1*X4699Y7874*X4699Y17399*X5969Y12954D2*X5969Y17399D1*X7239Y14859D2*X7239Y11049D1*X9779Y17399D2*X9779Y14859D1*X13589Y12954D2*X13589Y17399D1*X14859Y14859D2*X14859Y11049D1*X17399Y17399D2*X17399Y14859D1*X21209Y12954D2*X21209Y17399D1*X22479Y14859D2*X22479Y11049D1*X25019Y17399D2*X25019Y14859D1*X28829Y12954D2*X28829Y17399D1*X26289Y11049D2*X26289Y12954D1*X26289Y2794D2*X23749Y5334D1*X23749Y17399*X22479Y18669*X22479Y19304*X25019Y21844*X30099Y21844*X30734Y22479*X28194Y26924D2*X28194Y24384D1*X26924Y25654D2*X25654Y26924D1*X23114Y26924*X22479Y26289*X22479Y24384*X21844Y23749*X9144Y23749*X7239Y21844*X7239Y18669*X8509Y17399*X8509Y5334*X11049Y2794*X14859Y2794D2*X12319Y5334D1*X12319Y17399*X11049Y18669*X11049Y21844*X12319Y23114*X22479Y23114*X23114Y23749*X27559Y23749*X28194Y24384*X29464Y25654D2*X29464Y23749D1*X28829Y23114*X23749Y23114*X23114Y22479*X16129Y22479*X14859Y21209*X14859Y18669*X16129Y17399*X16129Y5334*X18669Y2794*X22479Y2794D2*X19939Y5334D1*X19939Y17399*X18669Y18669*X18669Y20574*X19939Y21844*X23749Y21844*X24384Y22479*X29464Y22479*X30734Y23749*X30734Y26924*X33274Y26924D2*X32004Y28194D1*X34544Y25654D2*X34544Y21844D1*X33909Y21209*X32004Y21209*X30099Y19304*X30099Y18669*X31369Y17399*X31369Y5334*X33909Y2794*X30099Y2794D2*X27559Y5334D1*X27559Y17399*X26289Y18669*X26924Y19304*X26924Y20574*X27559Y21209*X30734Y21209*X31369Y21844*X32639Y21844*X33274Y22479*X33274Y26924*X38354Y26924D2*X37084Y28194D1*X39624Y25654D2*X39624Y21844D1*X37719Y19939*X37719Y18669*X38989Y17399*X38989Y5334*X41529Y2794*X37719Y2794D2*X35179Y5334D1*X35179Y17399*X33909Y18669*X33909Y19939*X38354Y24384*X38354Y26924*X40894Y26924D2*X39624Y28194D1*X42164Y25654D2*X42164Y23114D1*X43434Y21844*X44704Y21844*X45339Y21209*X45339Y18669*X46609Y17399*X46609Y5334*X49149Y2794*X45339Y2794D2*X42799Y5334D1*X42799Y17399*X41529Y18669*X41529Y22479*X40894Y23114*X40894Y26924*X43434Y26924D2*X42164Y28194D1*X44704Y25654D2*X44704Y23749D1*X45339Y23114*X51689Y23114*X52959Y21844*X52959Y18669*X54229Y17399*X54229Y5334*X56769Y2794*X52959Y2794D2*X50419Y5334D1*X50419Y17399*X49149Y18669*X49149Y21209*X47879Y22479*X44704Y22479*X43434Y23749*X43434Y26924*X44704Y28194D2*X45974Y26924D1*X45974Y24384*X47244Y23749*X55499Y23749*X56769Y22479*X56769Y18669*X58039Y17399*X58039Y5334*X60579Y2794*X64389Y2794D2*X62484Y4699D1*X62484Y16764*D16*X64389Y20574D2*X68834Y20574D1*X64389Y15494D2*X68834Y15494D1*X68834Y11684*X65659Y8509*X64389Y8509*D10*X24384Y25654D3*D11*X24384Y28194D3*X26924Y28194D3*X29464Y28194D3*X32004Y28194D3*X34544Y28194D3*X37084Y28194D3*X39624Y28194D3*X42164Y28194D3*X44704Y28194D3*X47244Y28194D3*X47244Y25654D3*X44704Y25654D3*X42164Y25654D3*X39624Y25654D3*X37084Y25654D3*X34544Y25654D3*X32004Y25654D3*X29464Y25654D3*X26924Y25654D3*D12*X2159Y14859D3*X7239Y8509D3*X7239Y11049D3*X5969Y12954D3*X7239Y14859D3*X9779Y14859D3*X14859Y14859D3*X17399Y14859D3*X64389Y20574D3*X64389Y8509D3*X60579Y8509D3*X56769Y8509D3*X52959Y8509D3*X49149Y8509D3*X45339Y8509D3*X41529Y8509D3*X37719Y8509D3*X33909Y8509D3*X26289Y8509D3*X30099Y8509D3*X30099Y14859D3*X32639Y14859D3*X37719Y14859D3*X40259Y14859D3*X45339Y14859D3*X47879Y14859D3*X52959Y14859D3*X55499Y14859D3*X64389Y15494D3*X60579Y14859D3*X64389Y12954D3*X64389Y11049D3*X60579Y11049D3*X59309Y12954D3*X56769Y12954D3*X56769Y11049D3*X52959Y11049D3*X51689Y12954D3*X49149Y12954D3*X49149Y11049D3*X45339Y11049D3*X44069Y12954D3*X41529Y12954D3*X41529Y11049D3*X37719Y11049D3*X36449Y12954D3*X33909Y12954D3*X33909Y11049D3*X30099Y11049D3*X28829Y12954D3*X26289Y12954D3*X26289Y11049D3*X22479Y11049D3*X22479Y8509D3*X18669Y8509D3*X14859Y8509D3*X11049Y8509D3*X11049Y11049D3*X11049Y12954D3*X13589Y12954D3*X14859Y11049D3*X18669Y11049D3*X18669Y12954D3*X21209Y12954D3*X22479Y14859D3*X25019Y14859D3*D13*X59309Y17399D3*X60579Y18669D3*X59309Y19939D3*X55499Y19939D3*X56769Y18669D3*X55499Y17399D3*X44069Y17399D3*X47879Y17399D3*X51689Y17399D3*X52959Y18669D3*X51689Y19939D3*X49149Y18669D3*X47879Y19939D3*X45339Y18669D3*X44069Y19939D3*X40259Y19939D3*X41529Y18669D3*X40259Y17399D3*X25019Y17399D3*X28829Y17399D3*X32639Y17399D3*X36449Y17399D3*X37719Y18669D3*X36449Y19939D3*X33909Y18669D3*X32639Y19939D3*X30099Y18669D3*X28829Y19939D3*X26289Y18669D3*X25019Y19939D3*X21209Y19939D3*X22479Y18669D3*X21209Y17399D3*X13589Y17399D3*X17399Y17399D3*X18669Y18669D3*X17399Y19939D3*X14859Y18669D3*X13589Y19939D3*X9779Y19939D3*X11049Y18669D3*X9779Y17399D3*X5969Y17399D3*X7239Y18669D3*X5969Y19939D3*X2159Y19939D3*X3429Y18669D3*X2159Y17399D3*D14*X68834Y20574D3*X68834Y15494D3*X64389Y2794D3*X60579Y2794D3*X56769Y2794D3*X52959Y2794D3*X49149Y2794D3*X45339Y2794D3*X41529Y2794D3*X37719Y2794D3*X33909Y2794D3*X30099Y2794D3*X26289Y2794D3*X22479Y2794D3*X18669Y2794D3*X14859Y2794D3*X11049Y2794D3*X7239Y2794D3*X0Y0D2*M02*