
M48
METRIC,TZ,000.000
T01C0.701
T02C0.8
T03C1.1
T04C1.199
T05C2.946
T06C3.2
%
M71
G90
T01
X059309Y017399
X060579Y018669
X059309Y019939
X055499Y019939
X056769Y018669
X055499Y017399
X044069Y017399
X047879Y017399
X051689Y017399
X052959Y018669
X051689Y019939
X049149Y018669
X047879Y019939
X045339Y018669
X044069Y019939
X040259Y019939
X041529Y018669
X040259Y017399
X025019Y017399
X028829Y017399
X032639Y017399
X036449Y017399
X037719Y018669
X036449Y019939
X033909Y018669
X032639Y019939
X030099Y018669
X028829Y019939
X026289Y018669
X025019Y019939
X021209Y019939
X022479Y018669
X021209Y017399
X013589Y017399
X017399Y017399
X018669Y018669
X017399Y019939
X014859Y018669
X013589Y019939
X009779Y019939
X011049Y018669
X009779Y017399
X005969Y017399
X007239Y018669
X005969Y019939
X002159Y019939
X003429Y018669
X002159Y017399
T02
X064389Y020574
X064389Y015494
X002159Y014859
X007239Y008509
X007239Y011049
X005969Y012954
X007239Y014859
X009779Y014859
X014859Y014859
X017399Y014859
X022479Y011049
X022479Y008509
X018669Y008509
X014859Y008509
X011049Y008509
X011049Y011049
X011049Y012954
X013589Y012954
X014859Y011049
X018669Y011049
X018669Y012954
X021209Y012954
X022479Y014859
X025019Y014859
X030099Y014859
X032639Y014859
X037719Y014859
X040259Y014859
X045339Y014859
X047879Y014859
X052959Y014859
X055499Y014859
X060579Y011049
X064389Y012954
X064389Y011049
X064389Y008509
X060579Y008509
X056769Y008509
X052959Y008509
X049149Y008509
X045339Y008509
X041529Y008509
X037719Y008509
X033909Y008509
X030099Y008509
X026289Y008509
X026289Y011049
X026289Y012954
X028829Y012954
X030099Y011049
X033909Y011049
X033909Y012954
X036449Y012954
X037719Y011049
X041529Y011049
X041529Y012954
X044069Y012954
X045339Y011049
X049149Y011049
X049149Y012954
X051689Y012954
X052959Y011049
X056769Y011049
X056769Y012954
X059309Y012954
X060579Y014859
T03
X047244Y028194
X044704Y028194
X042164Y028194
X039624Y028194
X037084Y028194
X034544Y028194
X032004Y028194
X029464Y028194
X026924Y028194
X024384Y028194
X024384Y025654
X026924Y025654
X029464Y025654
X032004Y025654
X034544Y025654
X037084Y025654
X039624Y025654
X042164Y025654
X044704Y025654
X047244Y025654
T04
X007239Y002794
X011049Y002794
X014859Y002794
X018669Y002794
X022479Y002794
X026289Y002794
X030099Y002794
X033909Y002794
X037719Y002794
X041529Y002794
X045339Y002794
X049149Y002794
X052959Y002794
X056769Y002794
X060579Y002794
X064389Y002794
X068834Y015494
X068834Y020574
T05
X053061Y027457
X018567Y027457
T06
X068199Y003429
X068199Y028829
X003429Y028829
X003429Y003429
M30
