G04 Output by ViewMate Deluxe V11.0.9  PentaLogix LLC*
G04 Thu Nov 20 16:07:24 2014*
%FSLAX33Y33*%
%MOMM*%
%IPPOS*%
%ADD17C,0.13*%
%ADD109C,0.254*%
%ADD110C,0.1524*%
%ADD113C,0.127*%

%LPD*%
X0Y0D2*D17*G1X64783Y17394D2*X64783Y17699D1*X48463Y23698D2*X48463Y22725D1*X49634Y23505D2*X49830Y23698D1*X50218Y23698*X50414Y23505*X64173Y16307D2*X63868Y16612D1*X64783Y16612*X64783Y16916D2*X64783Y16307D1*X64630Y17242D2*X64021Y17242D1*X63868Y17394*X63868Y17699*X64021Y17854*X64783Y17699D2*X64630Y17854D1*X64783Y17394D2*X64630Y17242D1*X64021Y17854*X64630Y17854*X64630Y18179D2*X64021Y18179D1*X63868Y18331*X63868Y18636*X64021Y18788*X64630Y18788D2*X64783Y18636D1*X64783Y18331*X64630Y18179*X64021Y18788*X64630Y18788*X64783Y19114D2*X64173Y19114D1*X64173Y19571*X64326Y19723*X64783Y19723*X64056Y23310D2*X64445Y23698D1*X64445Y22530*X64056Y22530D2*X64836Y22530D1*X62888Y22334D2*X63665Y22334D1*X60549Y23505D2*X60744Y23698D1*X61133Y23698*X61328Y23505*X61717Y22530D2*X61717Y23698D1*X62301Y23698*X62497Y23505*X62497Y23114*X62301Y22918*X61717Y22918*X60549Y22725D2*X60744Y22530D1*X61133Y22530*X61328Y22725*X61328Y22918*X61133Y23114*X60744Y23114*X60549Y23310*X60549Y23505*X60157Y23698D2*X59769Y23698D1*X59964Y22530D2*X59964Y23698D1*X59769Y22530D2*X60157Y22530D1*X58598Y22530D2*X58598Y23698D1*X59185Y23698*X59378Y23505*X59378Y22725*X59185Y22530*X58598Y22530*X57429Y22334D2*X58209Y22334D1*X56650Y23698D2*X56650Y22530D1*X56261Y23698D2*X57041Y23698D1*X55481Y23698D2*X55870Y23698D1*X55674Y22530D2*X55674Y23698D1*X55481Y22530D2*X55870Y22530D1*X55090Y22530D2*X54310Y22530D1*X54310Y23698*X53142Y22530D2*X53142Y23698D1*X53142Y22918D2*X53726Y22918D1*X53922Y23114*X53922Y23505*X53726Y23698*X53142Y23698*X52751Y23505D2*X52558Y23698D1*X52167Y23698*X51973Y23505*X51973Y23310*X52167Y23114*X52558Y23114*X52751Y22918*X52751Y22725*X52558Y22530*X52167Y22530*X51973Y22725*X50803Y22334D2*X51582Y22334D1*X49634Y22725D2*X49830Y22530D1*X50218Y22530*X50414Y22725*X50414Y22918*X50218Y23114*X49830Y23114*X49634Y23310*X49634Y23505*X49243Y23698D2*X49243Y22725D1*X49050Y22530*X48659Y22530*X48463Y22725*X47879Y23114D2*X48075Y23310D1*X48075Y23505*X47879Y23698*X47295Y23698*X47295Y22530*X47295Y23114D2*X47879Y23114D1*X48075Y22918*X48075Y22725*X47879Y22530*X47295Y22530*X15105Y22530D2*X14910Y22725D1*X16858Y22530D2*X16078Y22530D1*X16469Y22530D2*X16469Y23698D1*X16078Y23310*X15298Y23698D2*X15690Y23698D1*X15494Y23698D2*X15494Y22725D1*X15298Y22530*X15105Y22530*D17*X24572Y12578D2*X24572Y13205D1*X4585Y15110D2*X4585Y15265D1*X3957Y15265*X3650Y14796D2*X3023Y14796D1*X3492Y15265*X3492Y14326*X3957Y14326D2*X3957Y14483D1*X4585Y15110*X5522Y15110D2*X5364Y15265D1*X5050Y15265*X4895Y15110*X4895Y14483*X5522Y14483D2*X5522Y15110D1*X4895Y14483*X5050Y14326*X5364Y14326*X5522Y14483*X8395Y13205D2*X8395Y13360D1*X7767Y13360*X7460Y12890D2*X6833Y12890D1*X7302Y13360*X7302Y12421*X7767Y12421D2*X7767Y12578D1*X8395Y13205*X8705Y12578D2*X8705Y13205D1*X8860Y13360*X9174Y13360*X9332Y13205*X9332Y12578*X9174Y12421*X8860Y12421*X8705Y12578*X9332Y13205*X12205Y15110D2*X12205Y15265D1*X11577Y15265*X11270Y14796D2*X10643Y14796D1*X11112Y15265*X11112Y14326*X11577Y14326D2*X11577Y14483D1*X12205Y15110*X13142Y15110D2*X12984Y15265D1*X12670Y15265*X12515Y15110*X12515Y14483*X13142Y14483D2*X13142Y15110D1*X12515Y14483*X12670Y14326*X12984Y14326*X13142Y14483*X16015Y13205D2*X16015Y13360D1*X15387Y13360*X15080Y12890D2*X14453Y12890D1*X14922Y13360*X14922Y12421*X15387Y12421D2*X15387Y12578D1*X16015Y13205*X16325Y12578D2*X16325Y13205D1*X16480Y13360*X16794Y13360*X16952Y13205*X16952Y12578*X16794Y12421*X16480Y12421*X16325Y12578*X16952Y13205*X19825Y15110D2*X19825Y15265D1*X19197Y15265*X18890Y14796D2*X18263Y14796D1*X18732Y15265*X18732Y14326*X19197Y14326D2*X19197Y14483D1*X19825Y15110*X20762Y15110D2*X20604Y15265D1*X20290Y15265*X20135Y15110*X20135Y14483*X20762Y14483D2*X20762Y15110D1*X20135Y14483*X20290Y14326*X20604Y14326*X20762Y14483*X23635Y13205D2*X23635Y13360D1*X23007Y13360*X22700Y12890D2*X22073Y12890D1*X22542Y13360*X22542Y12421*X23007Y12421D2*X23007Y12578D1*X23635Y13205*X23945Y12578D2*X23945Y13205D1*X24100Y13360*X24414Y13360*X24572Y13205*X24572Y12578D2*X24414Y12421D1*X24100Y12421*X23945Y12578*X24572Y13205*X27445Y15110D2*X27445Y15265D1*X26817Y15265*X26510Y14796D2*X25883Y14796D1*X26352Y15265*X26352Y14326*X26817Y14326D2*X26817Y14483D1*X27445Y15110*X28382Y15110D2*X28224Y15265D1*X27910Y15265*X27755Y15110*X27755Y14483*X28382Y14483D2*X28382Y15110D1*X27755Y14483*X27910Y14326*X28224Y14326*X28382Y14483*X31255Y13205D2*X31255Y13360D1*X30627Y13360*X30320Y12890D2*X29693Y12890D1*X30162Y13360*X30162Y12421*X30627Y12421D2*X30627Y12578D1*X31255Y13205*X31565Y12578D2*X31720Y12421D1*X32034Y12421*X32192Y12578*X32192Y13205*X31565Y12578*X31565Y13205*X31720Y13360*X32034Y13360*X32192Y13205*X35065Y15110D2*X35065Y15265D1*X34437Y15265*X34130Y14796D2*X33503Y14796D1*X33972Y15265*X33972Y14326*X34437Y14326D2*X34437Y14483D1*X35065Y15110*X36002Y15110D2*X35844Y15265D1*X35530Y15265*X35375Y15110*X35375Y14483*X36002Y14483D2*X36002Y15110D1*X35375Y14483*X35530Y14326*X35844Y14326*X36002Y14483*X38875Y13205D2*X38875Y13360D1*X38247Y13360*X37940Y12890D2*X37313Y12890D1*X37782Y13360*X37782Y12421*X38247Y12421D2*X38247Y12578D1*X38875Y13205*X39185Y12578D2*X39185Y13205D1*X39340Y13360*X39654Y13360*X39812Y13205*X39812Y12578*X39654Y12421*X39340Y12421*X39185Y12578*X39812Y13205*X42685Y15110D2*X42685Y15265D1*X42057Y15265*X41750Y14796D2*X41123Y14796D1*X41592Y15265*X41592Y14326*X42057Y14326D2*X42057Y14483D1*X42685Y15110*X43622Y15110D2*X43464Y15265D1*X43150Y15265*X42995Y15110*X42995Y14483*X43622Y14483D2*X43622Y15110D1*X42995Y14483*X43150Y14326*X43464Y14326*X43622Y14483*X46495Y13205D2*X46495Y13360D1*X45867Y13360*X45560Y12890D2*X44933Y12890D1*X45402Y13360*X45402Y12421*X45867Y12421D2*X45867Y12578D1*X46495Y13205*X46805Y12578D2*X46805Y13205D1*X46960Y13360*X47274Y13360*X47432Y13205*X46805Y12578*X46960Y12421*X47274Y12421*X47432Y12578*X47432Y13205*X62672Y13205D2*X62514Y13360D1*X62200Y13360*X62045Y13205*X62045Y12578D2*X62200Y12421D1*X62514Y12421*X62672Y12578*X62672Y13205*X62045Y12578*X62045Y13205*X60642Y12421D2*X60642Y13360D1*X60173Y12890*X61107Y13360D2*X61735Y13360D1*X61735Y13205*X61107Y12578*X61107Y12421*X60173Y12890D2*X60800Y12890D1*X58235Y15110D2*X58235Y14483D1*X58862Y15110D2*X58862Y14483D1*X58704Y14326*X58390Y14326*X58235Y14483*X58862Y15110*X58704Y15265*X58390Y15265*X58235Y15110*X57297Y15265D2*X57925Y15265D1*X57925Y15110*X57297Y14483*X57297Y14326*X56990Y14796D2*X56363Y14796D1*X56832Y15265*X56832Y14326*X55052Y13205D2*X55052Y12578D1*X54894Y12421*X54580Y12421*X54425Y12578*X55052Y13205*X54894Y13360*X54580Y13360*X54425Y13205*X54425Y12578*X53022Y13360D2*X53022Y12421D1*X53487Y13360D2*X54115Y13360D1*X54115Y13205*X53487Y12578*X53487Y12421*X53180Y12890D2*X52553Y12890D1*X53022Y13360*X51084Y15265D2*X51242Y15110D1*X50305Y15110D2*X50305Y15265D1*X49677Y15265*X49370Y14796D2*X48743Y14796D1*X49212Y15265*X49212Y14326*X49677Y14326D2*X49677Y14483D1*X50305Y15110*X50615Y14483D2*X50770Y14326D1*X51084Y14326*X51242Y14483*X51242Y15110*X50615Y14483*X50615Y15110*X50770Y15265*X51084Y15265*X51773Y22111D2*X51773Y21374D1*X54018Y21864D2*X54140Y21864D1*X54265Y21742*X56007Y21374D2*X56007Y21742D1*X55883Y21864*X55514Y21864*X55514Y21374*X55258Y21742D2*X55136Y21864D1*X54889Y21864*X54767Y21496D2*X54889Y21374D1*X55258Y21374*X55258Y21742*X55258Y21620D2*X54889Y21620D1*X54767Y21496*X54508Y21374D2*X54508Y21742D1*X54386Y21864*X54265Y21742*X54265Y21374*X54018Y21864D2*X54018Y21374D1*X53762Y21864D2*X53762Y21496D1*X53637Y21374*X53515Y21496*X53393Y21374*X53269Y21496*X53269Y21864*X52890Y21374D2*X52644Y21374D1*X52522Y21496*X52522Y21742*X52522Y21620D2*X53012Y21620D1*X53012Y21742*X52890Y21864*X52644Y21864*X52522Y21742*X52263Y22111D2*X52263Y21374D1*X51773Y22111*X50767Y21864D2*X50399Y21864D1*X50277Y21742*X50399Y21620*X50645Y21620*X50767Y21496*X50645Y21374*X50277Y21374*X49896Y21374D2*X49649Y21374D1*X49527Y21496*X49527Y21620D2*X50018Y21620D1*X50018Y21742*X49896Y21864*X49649Y21864*X49527Y21742*X49527Y21496*X48778Y21864D2*X48778Y21374D1*X49025Y21374D2*X49025Y21742D1*X49271Y21374D2*X49271Y21742D1*X49146Y21864*X49025Y21742*X48903Y21864*X48778Y21864*X48522Y21742D2*X48400Y21864D1*X48153Y21864*X48031Y21496D2*X48153Y21374D1*X48522Y21374*X48522Y21742*X48522Y21620D2*X48153Y21620D1*X48031Y21496*X47282Y21496D2*X47404Y21374D1*X47528Y21374*X47650Y21496*X47650Y22111*X47772Y22111D2*X47528Y22111D1*D109*X6223Y8192D2*X6223Y7048D1*X6794Y7620D2*X5652Y7620D1*X15878Y4826D2*X14351Y4826D1*X25273Y7048D2*X25273Y8192D1*X38738Y5207D2*X38738Y5588D1*X38354Y5969*X37592Y5969D2*X37211Y5588D1*X37211Y5207*X37592Y4826*X38354Y4826*X38738Y5207*X41021Y5207D2*X41402Y4826D1*X42164Y4826*X42548Y5207*X59563Y8192D2*X59563Y7048D1*X63373Y7048D2*X63373Y8192D1*X63881Y5969D2*X64643Y5969D1*X63881Y4826D2*X63881Y7115D1*X65408Y7115*X62802Y7620D2*X63944Y7620D1*X60071Y7115D2*X61598Y7115D1*X60833Y5969D2*X60071Y5969D1*X61598Y4826D2*X60071Y4826D1*X60071Y7115*X58992Y7620D2*X60134Y7620D1*X55753Y8192D2*X55753Y7048D1*X55182Y7620D2*X56324Y7620D1*X51943Y7048D2*X51943Y8192D1*X52832Y7115D2*X53594Y7115D1*X53978Y6734*X56261Y4826D2*X56261Y7115D1*X57404Y7115*X57788Y6734*X57788Y5207*X57404Y4826*X56261Y4826*X53978Y5207D2*X53594Y4826D1*X52832Y4826*X52451Y5207*X52451Y6734*X52832Y7115*X51372Y7620D2*X52514Y7620D1*X48641Y7115D2*X48641Y4826D1*X49784Y4826*X50168Y5207*X50168Y5588*X49784Y5969*X48641Y5969D2*X49784Y5969D1*X50168Y6353*X50168Y6734*X49784Y7115*X48641Y7115*X48704Y7620D2*X47562Y7620D1*X48133Y7048D2*X48133Y8192D1*X44831Y5969D2*X46358Y5969D1*X44831Y4826D2*X44831Y6353D1*X46358Y4826D2*X46358Y6353D1*X45593Y7115*X44831Y6353*X44323Y8192D2*X44323Y7048D1*X43752Y7620D2*X44894Y7620D1*X40513Y7048D2*X40513Y8192D1*X41402Y7115D2*X42164Y7115D1*X42548Y6734*X42548Y5207*X42548Y5969D2*X41402Y5969D1*X41021Y6353*X41021Y6734*X41402Y7115*X39942Y7620D2*X41084Y7620D1*X36703Y7048D2*X36703Y8192D1*X37592Y7115D2*X37211Y6734D1*X37211Y6353*X37592Y5969*X38354Y5969*X38738Y6353*X38738Y6734*X38354Y7115*X37592Y7115*X36132Y7620D2*X37274Y7620D1*X32893Y7048D2*X32893Y8192D1*X31118Y5207D2*X31118Y5588D1*X30734Y5969*X29591Y5969*X29591Y5207*X29972Y4826*X30734Y4826*X31118Y5207*X33401Y4826D2*X33401Y5207D1*X34928Y6734*X34928Y7115*X33401Y7115*X32322Y7620D2*X33464Y7620D1*X31118Y7115D2*X30353Y6734D1*X29591Y5969*X29083Y8192D2*X29083Y7048D1*X28512Y7620D2*X29654Y7620D1*X25781Y7115D2*X27308Y7115D1*X25781Y5207D2*X26162Y4826D1*X26924Y4826*X27308Y5207*X27308Y5969*X26924Y6353*X26543Y6353*X25781Y5969*X25781Y7115*X24702Y7620D2*X25844Y7620D1*X23498Y5969D2*X21971Y5969D1*X23114Y4826D2*X23114Y7115D1*X21971Y5969*X21463Y8192D2*X21463Y7048D1*X20892Y7620D2*X22034Y7620D1*X17653Y7048D2*X17653Y8192D1*X18161Y6734D2*X18542Y7115D1*X18923Y5969D2*X19304Y5969D1*X18161Y5207D2*X18542Y4826D1*X19304Y4826*X19688Y5207*X19688Y5588*X19304Y5969*X19688Y6353*X19688Y6734*X19304Y7115*X18542Y7115*X17082Y7620D2*X18224Y7620D1*X14414Y7620D2*X13272Y7620D1*X13843Y7048D2*X13843Y8192D1*X14351Y6734D2*X14732Y7115D1*X15494Y7115*X15878Y6734*X15878Y6353*X14351Y4826*X10541Y4826D2*X12068Y4826D1*X11303Y4826D2*X11303Y7115D1*X10541Y6353*X10033Y8192D2*X10033Y7048D1*X9462Y7620D2*X10604Y7620D1*X8258Y6734D2*X7874Y7115D1*X7112Y7115*X6731Y6734*X6731Y5207*X7112Y4826D2*X7874Y4826D1*X8258Y5207*X8258Y6734*X6731Y5207*X7112Y4826*D110*X8174Y10983D2*X8263Y10907D1*X8346Y10828*X8423Y10739*X8491Y10648*X8552Y10551*X8608Y10450*X8654Y10343*X8694Y10234*X8725Y10122*X8745Y10010*X8758Y9893*X8763Y9779*X8758Y9665*X8745Y9548*X8725Y9436*X8694Y9324*X8654Y9215*X8608Y9108*X8552Y9007*X8491Y8910*X8423Y8819*X8346Y8730*X8263Y8651*X8174Y8575*X5715Y9779D2*X5720Y9662D1*X5733Y9545*X5756Y9428*X5786Y9314*X5827Y9205*X5875Y9098*X5933Y8994*X5997Y8895*X6068Y8804*X6147Y8715*X6233Y8633*X6325Y8560*X12573Y9779D2*X12568Y9893D1*X12555Y10010*X12535Y10122*X12504Y10234*X12464Y10343*X12418Y10450*X12362Y10551*X12301Y10648*X12233Y10739*X12156Y10828*X12073Y10907*X11984Y10983*X9525Y9779D2*X9530Y9898D1*X9545Y10020*X9568Y10137*X9601Y10254*X9642Y10366*X9695Y10478*X9754Y10582*X9820Y10681*X9896Y10775*X9980Y10864*X10069Y10945*X10163Y11019*X12573Y9779D2*X12568Y9665D1*X12555Y9548*X12535Y9436*X12504Y9324*X12464Y9215*X12418Y9108*X12362Y9007*X12301Y8910*X12233Y8819*X12156Y8730*X12073Y8651*X11984Y8575*X9525Y9779D2*X9530Y9662D1*X9543Y9545*X9566Y9428*X9596Y9314*X9637Y9205*X9685Y9098*X9743Y8994*X9807Y8895*X9878Y8804*X9957Y8715*X10043Y8633*X10135Y8560*X24003Y9779D2*X23998Y9893D1*X23985Y10010*X23965Y10122*X23934Y10234*X23894Y10343*X23848Y10450*X23792Y10551*X23731Y10648*X23663Y10739*X23586Y10828*X23503Y10907*X23414Y10983*X20955Y9779D2*X20960Y9898D1*X20975Y10020*X20998Y10137*X21031Y10254*X21072Y10366*X21125Y10478*X21184Y10582*X21250Y10681*X21326Y10775*X21410Y10864*X21499Y10945*X21593Y11019*X24003Y9779D2*X23998Y9665D1*X23985Y9548*X23965Y9436*X23934Y9324*X23894Y9215*X23848Y9108*X23792Y9007*X23731Y8910*X23663Y8819*X23586Y8730*X23503Y8651*X23414Y8575*X20955Y9779D2*X20960Y9662D1*X20973Y9545*X20996Y9428*X21026Y9314*X21067Y9205*X21115Y9098*X21173Y8994*X21237Y8895*X21308Y8804*X21387Y8715*X21473Y8633*X21565Y8560*X27813Y9779D2*X27808Y9893D1*X27795Y10010*X27775Y10122*X27744Y10234*X27704Y10343*X27658Y10450*X27602Y10551*X27541Y10648*X27473Y10739*X27396Y10828*X27313Y10907*X27224Y10983*X24765Y9779D2*X24770Y9898D1*X24785Y10020*X24808Y10137*X24841Y10254*X24882Y10366*X24935Y10478*X24994Y10582*X25060Y10681*X25136Y10775*X25220Y10864*X25309Y10945*X25403Y11019*X27813Y9779D2*X27808Y9665D1*X27795Y9548*X27775Y9436*X27744Y9324*X27704Y9215*X27658Y9108*X27602Y9007*X27541Y8910*X27473Y8819*X27396Y8730*X27313Y8651*X27224Y8575*X24765Y9779D2*X24770Y9662D1*X24783Y9545*X24806Y9428*X24836Y9314*X24877Y9205*X24925Y9098*X24983Y8994*X25047Y8895*X25118Y8804*X25197Y8715*X25283Y8633*X25375Y8560*X31623Y9779D2*X31618Y9893D1*X31605Y10010*X31585Y10122*X31554Y10234*X31514Y10343*X31468Y10450*X31412Y10551*X31351Y10648*X31283Y10739*X31206Y10828*X31123Y10907*X31034Y10983*X28575Y9779D2*X28580Y9898D1*X28595Y10020*X28618Y10137*X28651Y10254*X28692Y10366*X28745Y10478*X28804Y10582*X28870Y10681*X28946Y10775*X29030Y10864*X29119Y10945*X29213Y11019*X31623Y9779D2*X31618Y9665D1*X31605Y9548*X31585Y9436*X31554Y9324*X31514Y9215*X31468Y9108*X31412Y9007*X31351Y8910*X31283Y8819*X31206Y8730*X31123Y8651*X31034Y8575*X28575Y9779D2*X28580Y9662D1*X28593Y9545*X28616Y9428*X28646Y9314*X28687Y9205*X28735Y9098*X28793Y8994*X28857Y8895*X28928Y8804*X29007Y8715*X29093Y8633*X29185Y8560*X35433Y9779D2*X35428Y9893D1*X35415Y10010*X35395Y10122*X35364Y10234*X35324Y10343*X35278Y10450*X35222Y10551*X35161Y10648*X35093Y10739*X35016Y10828*X34933Y10907*X34844Y10983*X32385Y9779D2*X32390Y9898D1*X32405Y10020*X32428Y10137*X32461Y10254*X32502Y10366*X32555Y10478*X32614Y10582*X32680Y10681*X32756Y10775*X32840Y10864*X32929Y10945*X33023Y11019*X35433Y9779D2*X35428Y9665D1*X35415Y9548*X35395Y9436*X35364Y9324*X35324Y9215*X35278Y9108*X35222Y9007*X35161Y8910*X35093Y8819*X35016Y8730*X34933Y8651*X34844Y8575*X32385Y9779D2*X32390Y9662D1*X32403Y9545*X32426Y9428*X32456Y9314*X32497Y9205*X32545Y9098*X32603Y8994*X32667Y8895*X32738Y8804*X32817Y8715*X32903Y8633*X32995Y8560*X39243Y9779D2*X39238Y9893D1*X39225Y10010*X39205Y10122*X39174Y10234*X39134Y10343*X39088Y10450*X39032Y10551*X38971Y10648*X38903Y10739*X38826Y10828*X38743Y10907*X38654Y10983*X36195Y9779D2*X36200Y9898D1*X36215Y10020*X36238Y10137*X36271Y10254*X36312Y10366*X36365Y10478*X36424Y10582*X36490Y10681*X36566Y10775*X36650Y10864*X36739Y10945*X36833Y11019*X39243Y9779D2*X39238Y9665D1*X39225Y9548*X39205Y9436*X39174Y9324*X39134Y9215*X39088Y9108*X39032Y9007*X38971Y8910*X38903Y8819*X38826Y8730*X38743Y8651*X38654Y8575*X36195Y9779D2*X36200Y9662D1*X36213Y9545*X36236Y9428*X36266Y9314*X36307Y9205*X36355Y9098*X36413Y8994*X36477Y8895*X36548Y8804*X36627Y8715*X36713Y8633*X36805Y8560*X46863Y9779D2*X46858Y9893D1*X46845Y10010*X46825Y10122*X46794Y10234*X46754Y10343*X46708Y10450*X46652Y10551*X46591Y10648*X46523Y10739*X46446Y10828*X46363Y10907*X46274Y10983*X43815Y9779D2*X43820Y9898D1*X43835Y10020*X43858Y10137*X43891Y10254*X43932Y10366*X43985Y10478*X44044Y10582*X44110Y10681*X44186Y10775*X44270Y10864*X44359Y10945*X44453Y11019*X46863Y9779D2*X46858Y9665D1*X46845Y9548*X46825Y9436*X46794Y9324*X46754Y9215*X46708Y9108*X46652Y9007*X46591Y8910*X46523Y8819*X46446Y8730*X46363Y8651*X46274Y8575*X43815Y9779D2*X43820Y9662D1*X43833Y9545*X43856Y9428*X43886Y9314*X43927Y9205*X43975Y9098*X44033Y8994*X44097Y8895*X44168Y8804*X44247Y8715*X44333Y8633*X44425Y8560*X50673Y9779D2*X50668Y9893D1*X50655Y10010*X50635Y10122*X50604Y10234*X50564Y10343*X50518Y10450*X50462Y10551*X50401Y10648*X50333Y10739*X50256Y10828*X50173Y10907*X50084Y10983*X47625Y9779D2*X47630Y9898D1*X47645Y10020*X47668Y10137*X47701Y10254*X47742Y10366*X47795Y10478*X47854Y10582*X47920Y10681*X47996Y10775*X48080Y10864*X48169Y10945*X48263Y11019*X50673Y9779D2*X50668Y9665D1*X50655Y9548*X50635Y9436*X50604Y9324*X50564Y9215*X50518Y9108*X50462Y9007*X50401Y8910*X50333Y8819*X50256Y8730*X50173Y8651*X50084Y8575*X47625Y9779D2*X47630Y9662D1*X47643Y9545*X47666Y9428*X47696Y9314*X47737Y9205*X47785Y9098*X47843Y8994*X47907Y8895*X47978Y8804*X48057Y8715*X48143Y8633*X48235Y8560*X54483Y9779D2*X54478Y9893D1*X54465Y10010*X54445Y10122*X54414Y10234*X54374Y10343*X54328Y10450*X54272Y10551*X54211Y10648*X54143Y10739*X54066Y10828*X53983Y10907*X53894Y10983*X51435Y9779D2*X51440Y9898D1*X51455Y10020*X51478Y10137*X51511Y10254*X51552Y10366*X51605Y10478*X51664Y10582*X51730Y10681*X51806Y10775*X51890Y10864*X51979Y10945*X52073Y11019*X54483Y9779D2*X54478Y9665D1*X54465Y9548*X54445Y9436*X54414Y9324*X54374Y9215*X54328Y9108*X54272Y9007*X54211Y8910*X54143Y8819*X54066Y8730*X53983Y8651*X53894Y8575*X51435Y9779D2*X51440Y9662D1*X51453Y9545*X51476Y9428*X51506Y9314*X51547Y9205*X51595Y9098*X51653Y8994*X51717Y8895*X51788Y8804*X51867Y8715*X51953Y8633*X52045Y8560*X62103Y9779D2*X62098Y9893D1*X62085Y10010*X62065Y10122*X62034Y10234*X61994Y10343*X61948Y10450*X61892Y10551*X61831Y10648*X61763Y10739*X61686Y10828*X61603Y10907*X61514Y10983*X59055Y9779D2*X59060Y9898D1*X59075Y10020*X59098Y10137*X59131Y10254*X59172Y10366*X59225Y10478*X59284Y10582*X59350Y10681*X59426Y10775*X59510Y10864*X59599Y10945*X59693Y11019*X62103Y9779D2*X62098Y9665D1*X62085Y9548*X62065Y9436*X62034Y9324*X61994Y9215*X61948Y9108*X61892Y9007*X61831Y8910*X61763Y8819*X61686Y8730*X61603Y8651*X61514Y8575*X59055Y9779D2*X59060Y9662D1*X59073Y9545*X59096Y9428*X59126Y9314*X59167Y9205*X59215Y9098*X59273Y8994*X59337Y8895*X59408Y8804*X59487Y8715*X59573Y8633*X59665Y8560*X65324Y10983D2*X65413Y10907D1*X65496Y10828*X65573Y10739*X65641Y10648*X65702Y10551*X65758Y10450*X65804Y10343*X65844Y10234*X65875Y10122*X65895Y10010*X65908Y9893*X65913Y9779*X63475Y8560D2*X63383Y8633D1*X63297Y8715*X63218Y8804*X63147Y8895*X63083Y8994*X63025Y9098*X62977Y9205*X62936Y9314*X62906Y9428*X62883Y9545*X62870Y9662*X62865Y9779*X63503Y11019D2*X63409Y10945D1*X63320Y10864*X63236Y10775*X63160Y10681*X63094Y10582*X63035Y10478*X62982Y10366*X62941Y10254*X62908Y10137*X62885Y10020*X62870Y9898*X62865Y9779*X65324Y8575D2*X65413Y8651D1*X65496Y8730*X65573Y8819*X65641Y8910*X65702Y9007*X65758Y9108*X65804Y9215*X65844Y9324*X65875Y9436*X65895Y9548*X65908Y9665*X65913Y9779*X60008Y12065D2*X63690Y12065D1*X57704Y10983D2*X57793Y10907D1*X57876Y10828*X57953Y10739*X58021Y10648*X58082Y10551*X58138Y10450*X58184Y10343*X58224Y10234*X58255Y10122*X58275Y10010*X58288Y9893*X58293Y9779*X55855Y8560D2*X55763Y8633D1*X55677Y8715*X55598Y8804*X55527Y8895*X55463Y8994*X55405Y9098*X55357Y9205*X55316Y9314*X55286Y9428*X55263Y9545*X55250Y9662*X55245Y9779*X55883Y11019D2*X55789Y10945D1*X55700Y10864*X55616Y10775*X55540Y10681*X55474Y10582*X55415Y10478*X55362Y10366*X55321Y10254*X55288Y10137*X55265Y10020*X55250Y9898*X55245Y9779*X57704Y8575D2*X57793Y8651D1*X57876Y8730*X57953Y8819*X58021Y8910*X58082Y9007*X58138Y9108*X58184Y9215*X58224Y9324*X58255Y9436*X58275Y9548*X58288Y9665*X58293Y9779*X52388Y12065D2*X56070Y12065D1*X44768Y12065D2*X48450Y12065D1*X42464Y10983D2*X42553Y10907D1*X42636Y10828*X42713Y10739*X42781Y10648*X42842Y10551*X42898Y10450*X42944Y10343*X42984Y10234*X43015Y10122*X43035Y10010*X43048Y9893*X43053Y9779*X40615Y8560D2*X40523Y8633D1*X40437Y8715*X40358Y8804*X40287Y8895*X40223Y8994*X40165Y9098*X40117Y9205*X40076Y9314*X40046Y9428*X40023Y9545*X40010Y9662*X40005Y9779*X40643Y11019D2*X40549Y10945D1*X40460Y10864*X40376Y10775*X40300Y10681*X40234Y10582*X40175Y10478*X40122Y10366*X40081Y10254*X40048Y10137*X40025Y10020*X40010Y9898*X40005Y9779*X42464Y8575D2*X42553Y8651D1*X42636Y8730*X42713Y8819*X42781Y8910*X42842Y9007*X42898Y9108*X42944Y9215*X42984Y9324*X43015Y9436*X43035Y9548*X43048Y9665*X43053Y9779*X37148Y12065D2*X40830Y12065D1*X29528Y12065D2*X33210Y12065D1*X21908Y12065D2*X25590Y12065D1*X17145Y9779D2*X17150Y9898D1*X17165Y10020*X17188Y10137*X17221Y10254*X17262Y10366*X17315Y10478*X17374Y10582*X17440Y10681*X17516Y10775*X17600Y10864*X17689Y10945*X17783Y11019*X20193Y9779D2*X20188Y9893D1*X20175Y10010*X20155Y10122*X20124Y10234*X20084Y10343*X20038Y10450*X19982Y10551*X19921Y10648*X19853Y10739*X19776Y10828*X19693Y10907*X19604Y10983*X17145Y9779D2*X17150Y9662D1*X17163Y9545*X17186Y9428*X17216Y9314*X17257Y9205*X17305Y9098*X17363Y8994*X17427Y8895*X17498Y8804*X17577Y8715*X17663Y8633*X17755Y8560*X20193Y9779D2*X20188Y9665D1*X20175Y9548*X20155Y9436*X20124Y9324*X20084Y9215*X20038Y9108*X19982Y9007*X19921Y8910*X19853Y8819*X19776Y8730*X19693Y8651*X19604Y8575*X15794Y10983D2*X15883Y10907D1*X15966Y10828*X16043Y10739*X16111Y10648*X16172Y10551*X16228Y10450*X16274Y10343*X16314Y10234*X16345Y10122*X16365Y10010*X16378Y9893*X16383Y9779*X13945Y8560D2*X13853Y8633D1*X13767Y8715*X13688Y8804*X13617Y8895*X13553Y8994*X13495Y9098*X13447Y9205*X13406Y9314*X13376Y9428*X13353Y9545*X13340Y9662*X13335Y9779*X13973Y11019D2*X13879Y10945D1*X13790Y10864*X13706Y10775*X13630Y10681*X13564Y10582*X13505Y10478*X13452Y10366*X13411Y10254*X13378Y10137*X13355Y10020*X13340Y9898*X13335Y9779*X15794Y8575D2*X15883Y8651D1*X15966Y8730*X16043Y8819*X16111Y8910*X16172Y9007*X16228Y9108*X16274Y9215*X16314Y9324*X16345Y9436*X16365Y9548*X16378Y9665*X16383Y9779*X17970Y12065D2*X14288Y12065D1*X21780Y15748D2*X18098Y15748D1*X29400Y15748D2*X25718Y15748D1*X37020Y15748D2*X33338Y15748D1*X44640Y15748D2*X40958Y15748D1*X52260Y15748D2*X48578Y15748D1*X59880Y15748D2*X56198Y15748D1*X66131Y19380D2*X67216Y19380D1*X66131Y20465D2*X67216Y20465D1*X67488Y20193*X67488Y19652*X67216Y19380*X66131Y20465*X65860Y20193*X65860Y19652*X66131Y19380*X65860Y16754D2*X66944Y16754D1*X67488Y16213*X66944Y15669*X65860Y15669*X63246Y20955D2*X63246Y15113D1*X65860Y22103D2*X66944Y22103D1*X67488Y21560*X66944Y21018*X65860Y21018*X65532Y15113D2*X65532Y20955D1*X65860Y14034D2*X65860Y15118D1*X67216Y12939D2*X66131Y12939D1*X66675Y13480D2*X66675Y12395D1*X67216Y14034D2*X67488Y14303D1*X67488Y14846*X67216Y15118*X66675Y15118*X66403Y14846*X66403Y14575*X66675Y14034*X65860Y14034*X60008Y13843D2*X63690Y13843D1*X56198Y13970D2*X59880Y13970D1*X52388Y13843D2*X56070Y13843D1*X48578Y13970D2*X52260Y13970D1*X44768Y13843D2*X48450Y13843D1*X40958Y13970D2*X44640Y13970D1*X37148Y13843D2*X40830Y13843D1*X33338Y13970D2*X37020Y13970D1*X29528Y13843D2*X33210Y13843D1*X25718Y13970D2*X29400Y13970D1*X21908Y13843D2*X25590Y13843D1*X18098Y13970D2*X21780Y13970D1*X14288Y13843D2*X17970Y13843D1*X14160Y13970D2*X10478Y13970D1*X10478Y15748D2*X14160Y15748D1*X2858Y15748D2*X6540Y15748D1*X6540Y13970D2*X2858Y13970D1*X10350Y13843D2*X6668Y13843D1*X6668Y12065D2*X10350Y12065D1*X6353Y11019D2*X6259Y10945D1*X6170Y10864*X6086Y10775*X6010Y10681*X5944Y10582*X5885Y10478*X5832Y10366*X5791Y10254*X5758Y10137*X5735Y10020*X5720Y9898*X5715Y9779*D113*X58039Y32004D2*X58039Y24384D1*X13589Y24384*X13589Y32004*X2413Y16129D2*X2568Y16165D1*X2718Y16210*X2868Y16264*X3012Y16327*X3152Y16398*X3289Y16480*X3421Y16568*X3546Y16665*X3665Y16767*X3777Y16878*X3884Y16995*X3983Y17120*X4072Y17249*X4155Y17384*X4229Y17523*X4295Y17668*X4351Y17816*X4399Y17965*X4437Y18120*X4465Y18275*X4486Y18433*X4496Y18590*X4496Y18748*X4486Y18905*X4465Y19063*X4437Y19218*X4399Y19373*X4351Y19522*X4295Y19670*X4229Y19815*X4155Y19954*X4072Y20089*X3983Y20218*X3884Y20343*X3777Y20460*X3665Y20571*X3546Y20673*X3421Y20770*X3289Y20858*X3152Y20940*X3012Y21011*X2868Y21074*X2718Y21128*X2568Y21173*X2413Y21209*X889Y21209*X889Y16129*X2413Y16129*X6223Y16129D2*X6378Y16165D1*X6528Y16210*X6678Y16264*X6822Y16327*X6962Y16398*X7099Y16480*X7231Y16568*X7356Y16665*X7475Y16767*X7587Y16878*X7694Y16995*X7793Y17120*X7882Y17249*X7965Y17384*X8039Y17523*X8105Y17668*X8161Y17816*X8209Y17965*X8247Y18120*X8275Y18275*X8296Y18433*X8306Y18590*X8306Y18748*X8296Y18905*X8275Y19063*X8247Y19218*X8209Y19373*X8161Y19522*X8105Y19670*X8039Y19815*X7965Y19954*X7882Y20089*X7793Y20218*X7694Y20343*X7587Y20460*X7475Y20571*X7356Y20673*X7231Y20770*X7099Y20858*X6962Y20940*X6822Y21011*X6678Y21074*X6528Y21128*X6378Y21173*X6223Y21209*X10033Y21209D2*X10188Y21173D1*X10338Y21128*X10488Y21074*X10632Y21011*X10772Y20940*X10909Y20858*X11041Y20770*X11166Y20673*X11285Y20571*X11397Y20460*X11504Y20343*X11603Y20218*X11692Y20089*X11775Y19954*X11849Y19815*X11915Y19670*X11971Y19522*X12019Y19373*X12057Y19218*X12085Y19063*X12106Y18905*X12116Y18748*X12116Y18590*X12106Y18433*X12085Y18275*X12057Y18120*X12019Y17965*X11971Y17816*X11915Y17668*X11849Y17523*X11775Y17384*X11692Y17249*X11603Y17120*X11504Y16995*X11397Y16878*X11285Y16767*X11166Y16665*X11041Y16568*X10909Y16480*X10772Y16398*X10632Y16327*X10488Y16264*X10338Y16210*X10188Y16165*X10033Y16129*X13843Y16129D2*X13998Y16165D1*X14148Y16210*X14298Y16264*X14442Y16327*X14582Y16398*X14719Y16480*X14851Y16568*X14976Y16665*X15095Y16767*X15207Y16878*X15314Y16995*X15413Y17120*X15502Y17249*X15585Y17384*X15659Y17523*X15725Y17668*X15781Y17816*X15829Y17965*X15867Y18120*X15895Y18275*X15916Y18433*X15926Y18590*X15926Y18748*X15916Y18905*X15895Y19063*X15867Y19218*X15829Y19373*X15781Y19522*X15725Y19670*X15659Y19815*X15585Y19954*X15502Y20089*X15413Y20218*X15314Y20343*X15207Y20460*X15095Y20571*X14976Y20673*X14851Y20770*X14719Y20858*X14582Y20940*X14442Y21011*X14298Y21074*X14148Y21128*X13998Y21173*X13843Y21209*X17653Y21209D2*X17808Y21173D1*X17958Y21128*X18108Y21074*X18252Y21011*X18392Y20940*X18529Y20858*X18661Y20770*X18786Y20673*X18905Y20571*X19017Y20460*X19124Y20343*X19223Y20218*X19312Y20089*X19395Y19954*X19469Y19815*X19535Y19670*X19591Y19522*X19639Y19373*X19677Y19218*X19705Y19063*X19726Y18905*X19736Y18748*X19736Y18590*X19726Y18433*X19705Y18275*X19677Y18120*X19639Y17965*X19591Y17816*X19535Y17668*X19469Y17523*X19395Y17384*X19312Y17249*X19223Y17120*X19124Y16995*X19017Y16878*X18905Y16767*X18786Y16665*X18661Y16568*X18529Y16480*X18392Y16398*X18252Y16327*X18108Y16264*X17958Y16210*X17808Y16165*X17653Y16129*X21463Y16129D2*X21618Y16165D1*X21768Y16210*X21918Y16264*X22062Y16327*X22202Y16398*X22339Y16480*X22471Y16568*X22596Y16665*X22715Y16767*X22827Y16878*X22934Y16995*X23033Y17120*X23122Y17249*X23205Y17384*X23279Y17523*X23345Y17668*X23401Y17816*X23449Y17965*X23487Y18120*X23515Y18275*X23536Y18433*X23546Y18590*X23546Y18748*X23536Y18905*X23515Y19063*X23487Y19218*X23449Y19373*X23401Y19522*X23345Y19670*X23279Y19815*X23205Y19954*X23122Y20089*X23033Y20218*X22934Y20343*X22827Y20460*X22715Y20571*X22596Y20673*X22471Y20770*X22339Y20858*X22202Y20940*X22062Y21011*X21918Y21074*X21768Y21128*X21618Y21173*X21463Y21209*X24277Y24277D2*X24491Y24277D1*X24615Y24153D2*X24153Y24153D1*X24031Y24031D2*X24737Y24031D1*X24862Y23906D2*X23906Y23906D1*X23785Y23785D2*X24983Y23785D1*X25108Y23660D2*X23660Y23660D1*X23538Y23538D2*X25230Y23538D1*X25354Y23414D2*X23414Y23414D1*X23292Y23292D2*X25476Y23292D1*X25601Y23167D2*X23167Y23167D1*X25654Y23114D2*X24384Y24384D1*X23114Y23114*X25654Y23114*X25273Y21209D2*X25428Y21173D1*X25578Y21128*X25728Y21074*X25872Y21011*X26012Y20940*X26149Y20858*X26281Y20770*X26406Y20673*X26525Y20571*X26637Y20460*X26744Y20343*X26843Y20218*X26932Y20089*X27015Y19954*X27089Y19815*X27155Y19670*X27211Y19522*X27259Y19373*X27297Y19218*X27325Y19063*X27346Y18905*X27356Y18748*X27356Y18590*X27346Y18433*X27325Y18275*X27297Y18120*X27259Y17965*X27211Y17816*X27155Y17668*X27089Y17523*X27015Y17384*X26932Y17249*X26843Y17120*X26744Y16995*X26637Y16878*X26525Y16767*X26406Y16665*X26281Y16568*X26149Y16480*X26012Y16398*X25872Y16327*X25728Y16264*X25578Y16210*X25428Y16165*X25273Y16129*X29083Y16129D2*X29238Y16165D1*X29388Y16210*X29538Y16264*X29682Y16327*X29822Y16398*X29959Y16480*X30091Y16568*X30216Y16665*X30335Y16767*X30447Y16878*X30554Y16995*X30653Y17120*X30742Y17249*X30825Y17384*X30899Y17523*X30965Y17668*X31021Y17816*X31069Y17965*X31107Y18120*X31135Y18275*X31156Y18433*X31166Y18590*X31166Y18748*X31156Y18905*X31135Y19063*X31107Y19218*X31069Y19373*X31021Y19522*X30965Y19670*X30899Y19815*X30825Y19954*X30742Y20089*X30653Y20218*X30554Y20343*X30447Y20460*X30335Y20571*X30216Y20673*X30091Y20770*X29959Y20858*X29822Y20940*X29682Y21011*X29538Y21074*X29388Y21128*X29238Y21173*X29083Y21209*X32893Y21209D2*X33048Y21173D1*X33198Y21128*X33348Y21074*X33492Y21011*X33632Y20940*X33769Y20858*X33901Y20770*X34026Y20673*X34145Y20571*X34257Y20460*X34364Y20343*X34463Y20218*X34552Y20089*X34635Y19954*X34709Y19815*X34775Y19670*X34831Y19522*X34879Y19373*X34917Y19218*X34945Y19063*X34966Y18905*X34976Y18748*X34976Y18590*X34966Y18433*X34945Y18275*X34917Y18120*X34879Y17965*X34831Y17816*X34775Y17668*X34709Y17523*X34635Y17384*X34552Y17249*X34463Y17120*X34364Y16995*X34257Y16878*X34145Y16767*X34026Y16665*X33901Y16568*X33769Y16480*X33632Y16398*X33492Y16327*X33348Y16264*X33198Y16210*X33048Y16165*X32893Y16129*X36703Y16129D2*X36858Y16165D1*X37008Y16210*X37158Y16264*X37302Y16327*X37442Y16398*X37579Y16480*X37711Y16568*X37836Y16665*X37955Y16767*X38067Y16878*X38174Y16995*X38273Y17120*X38362Y17249*X38445Y17384*X38519Y17523*X38585Y17668*X38641Y17816*X38689Y17965*X38727Y18120*X38755Y18275*X38776Y18433*X38786Y18590*X38786Y18748*X38776Y18905*X38755Y19063*X38727Y19218*X38689Y19373*X38641Y19522*X38585Y19670*X38519Y19815*X38445Y19954*X38362Y20089*X38273Y20218*X38174Y20343*X38067Y20460*X37955Y20571*X37836Y20673*X37711Y20770*X37579Y20858*X37442Y20940*X37302Y21011*X37158Y21074*X37008Y21128*X36858Y21173*X36703Y21209*X40513Y21209D2*X40668Y21173D1*X40818Y21128*X40968Y21074*X41112Y21011*X41252Y20940*X41389Y20858*X41521Y20770*X41646Y20673*X41765Y20571*X41877Y20460*X41984Y20343*X42083Y20218*X42172Y20089*X42255Y19954*X42329Y19815*X42395Y19670*X42451Y19522*X42499Y19373*X42537Y19218*X42565Y19063*X42586Y18905*X42596Y18748*X42596Y18590*X42586Y18433*X42565Y18275*X42537Y18120*X42499Y17965*X42451Y17816*X42395Y17668*X42329Y17523*X42255Y17384*X42172Y17249*X42083Y17120*X41984Y16995*X41877Y16878*X41765Y16767*X41646Y16665*X41521Y16568*X41389Y16480*X41252Y16398*X41112Y16327*X40968Y16264*X40818Y16210*X40668Y16165*X40513Y16129*X44323Y16129D2*X44478Y16165D1*X44628Y16210*X44778Y16264*X44922Y16327*X45062Y16398*X45199Y16480*X45331Y16568*X45456Y16665*X45575Y16767*X45687Y16878*X45794Y16995*X45893Y17120*X45982Y17249*X46065Y17384*X46139Y17523*X46205Y17668*X46261Y17816*X46309Y17965*X46347Y18120*X46375Y18275*X46396Y18433*X46406Y18590*X46406Y18748*X46396Y18905*X46375Y19063*X46347Y19218*X46309Y19373*X46261Y19522*X46205Y19670*X46139Y19815*X46065Y19954*X45982Y20089*X45893Y20218*X45794Y20343*X45687Y20460*X45575Y20571*X45456Y20673*X45331Y20770*X45199Y20858*X45062Y20940*X44922Y21011*X44778Y21074*X44628Y21128*X44478Y21173*X44323Y21209*X48133Y21209D2*X48288Y21173D1*X48438Y21128*X48588Y21074*X48732Y21011*X48872Y20940*X49009Y20858*X49141Y20770*X49266Y20673*X49385Y20571*X49497Y20460*X49604Y20343*X49703Y20218*X49792Y20089*X49875Y19954*X49949Y19815*X50015Y19670*X50071Y19522*X50119Y19373*X50157Y19218*X50185Y19063*X50206Y18905*X50216Y18748*X50216Y18590*X50206Y18433*X50185Y18275*X50157Y18120*X50119Y17965*X50071Y17816*X50015Y17668*X49949Y17523*X49875Y17384*X49792Y17249*X49703Y17120*X49604Y16995*X49497Y16878*X49385Y16767*X49266Y16665*X49141Y16568*X49009Y16480*X48872Y16398*X48732Y16327*X48588Y16264*X48438Y16210*X48288Y16165*X48133Y16129*X51943Y16129D2*X52098Y16165D1*X52248Y16210*X52398Y16264*X52542Y16327*X52682Y16398*X52819Y16480*X52951Y16568*X53076Y16665*X53195Y16767*X53307Y16878*X53414Y16995*X53513Y17120*X53602Y17249*X53685Y17384*X53759Y17523*X53825Y17668*X53881Y17816*X53929Y17965*X53967Y18120*X53995Y18275*X54016Y18433*X54026Y18590*X54026Y18748*X54016Y18905*X53995Y19063*X53967Y19218*X53929Y19373*X53881Y19522*X53825Y19670*X53759Y19815*X53685Y19954*X53602Y20089*X53513Y20218*X53414Y20343*X53307Y20460*X53195Y20571*X53076Y20673*X52951Y20770*X52819Y20858*X52682Y20940*X52542Y21011*X52398Y21074*X52248Y21128*X52098Y21173*X51943Y21209*X55753Y21209D2*X55908Y21173D1*X56058Y21128*X56208Y21074*X56352Y21011*X56492Y20940*X56629Y20858*X56761Y20770*X56886Y20673*X57005Y20571*X57117Y20460*X57224Y20343*X57323Y20218*X57412Y20089*X57495Y19954*X57569Y19815*X57635Y19670*X57691Y19522*X57739Y19373*X57777Y19218*X57805Y19063*X57826Y18905*X57836Y18748*X57836Y18590*X57826Y18433*X57805Y18275*X57777Y18120*X57739Y17965*X57691Y17816*X57635Y17668*X57569Y17523*X57495Y17384*X57412Y17249*X57323Y17120*X57224Y16995*X57117Y16878*X57005Y16767*X56886Y16665*X56761Y16568*X56629Y16480*X56492Y16398*X56352Y16327*X56208Y16264*X56058Y16210*X55908Y16165*X55753Y16129*X59563Y16129D2*X59718Y16165D1*X59868Y16210*X60018Y16264*X60162Y16327*X60302Y16398*X60439Y16480*X60571Y16568*X60696Y16665*X60815Y16767*X60927Y16878*X61034Y16995*X61133Y17120*X61222Y17249*X61305Y17384*X61379Y17523*X61445Y17668*X61501Y17816*X61549Y17965*X61587Y18120*X61615Y18275*X61636Y18433*X61646Y18590*X61646Y18748*X61636Y18905*X61615Y19063*X61587Y19218*X61549Y19373*X61501Y19522*X61445Y19670*X61379Y19815*X61305Y19954*X61222Y20089*X61133Y20218*X61034Y20343*X60927Y20460*X60815Y20571*X60696Y20673*X60571Y20770*X60439Y20858*X60302Y20940*X60162Y21011*X60018Y21074*X59868Y21128*X59718Y21173*X59563Y21209*X58039Y21209*X58039Y16129*X59563Y16129*X55753Y16129D2*X54229Y16129D1*X54229Y21209*X55753Y21209*X51943Y21209D2*X50419Y21209D1*X50419Y16129*X51943Y16129*X48133Y16129D2*X46609Y16129D1*X46609Y21209*X48133Y21209*X44323Y21209D2*X42799Y21209D1*X42799Y16129*X44323Y16129*X40513Y16129D2*X38989Y16129D1*X38989Y21209*X40513Y21209*X36703Y21209D2*X35179Y21209D1*X35179Y16129*X36703Y16129*X32893Y16129D2*X31369Y16129D1*X31369Y21209*X32893Y21209*X29083Y21209D2*X27559Y21209D1*X27559Y16129*X29083Y16129*X25273Y16129D2*X23749Y16129D1*X23749Y21209*X25273Y21209*X21463Y21209D2*X19939Y21209D1*X19939Y16129*X21463Y16129*X17653Y16129D2*X16129Y16129D1*X16129Y21209*X17653Y21209*X13843Y21209D2*X12319Y21209D1*X12319Y16129*X13843Y16129*X10033Y16129D2*X8509Y16129D1*X8509Y21209*X10033Y21209*X6223Y21209D2*X4699Y21209D1*X4699Y16129*X6223Y16129*X0Y0D2*M02*