G04 Output by ViewMate Deluxe V11.0.9  PentaLogix LLC*
G04 Thu Nov 20 16:07:25 2014*
%FSLAX33Y33*%
%MOMM*%
%IPPOS*%
%ADD10R,1.651X1.651*%
%ADD11C,1.651*%
%ADD12C,1.3081*%
%ADD13C,1.209*%
%ADD14R,1.8009X1.8009*%
%ADD108C,0.6096*%

%LPD*%
X0Y0D2*D108*G1X64389Y8509D2*X60579Y8509D1*X56769Y8509*X52959Y8509*X49149Y8509*X45339Y8509*X41529Y8509*X37719Y8509*X33909Y8509*X30099Y8509*X26289Y8509*X22479Y8509*X18669Y8509*X14859Y8509*X11049Y8509*X7239Y8509*X2159Y19939D2*X5969Y19939D1*X9779Y19939*X13589Y19939*X17399Y19939*X21209Y19939*X24384Y19939*X34544Y28194D2*X37084Y25654D1*X24384Y25654D2*X24384Y19939D1*X25019Y19939*X28829Y19939*X32639Y19939*X36449Y19939*X37084Y19939*X49149Y19939D2*X47879Y19939D1*X44069Y19939*X40259Y19939*X37084Y19939*X37084Y25654*X47244Y28194D2*X49149Y26289D1*X49149Y19939*X51689Y19939*X55499Y19939*X59309Y19939*X63754Y19939*X64389Y20574*D10*X24384Y25654D3*D11*X24384Y28194D3*X26924Y28194D3*X29464Y28194D3*X32004Y28194D3*X34544Y28194D3*X37084Y28194D3*X39624Y28194D3*X42164Y28194D3*X44704Y28194D3*X47244Y28194D3*X47244Y25654D3*X44704Y25654D3*X42164Y25654D3*X39624Y25654D3*X37084Y25654D3*X34544Y25654D3*X32004Y25654D3*X29464Y25654D3*X26924Y25654D3*D12*X2159Y14859D3*X7239Y8509D3*X7239Y11049D3*X5969Y12954D3*X7239Y14859D3*X9779Y14859D3*X14859Y14859D3*X17399Y14859D3*X64389Y20574D3*X64389Y8509D3*X60579Y8509D3*X56769Y8509D3*X52959Y8509D3*X49149Y8509D3*X45339Y8509D3*X41529Y8509D3*X37719Y8509D3*X33909Y8509D3*X26289Y8509D3*X30099Y8509D3*X30099Y14859D3*X32639Y14859D3*X37719Y14859D3*X40259Y14859D3*X45339Y14859D3*X47879Y14859D3*X52959Y14859D3*X55499Y14859D3*X64389Y15494D3*X60579Y14859D3*X64389Y12954D3*X64389Y11049D3*X60579Y11049D3*X59309Y12954D3*X56769Y12954D3*X56769Y11049D3*X52959Y11049D3*X51689Y12954D3*X49149Y12954D3*X49149Y11049D3*X45339Y11049D3*X44069Y12954D3*X41529Y12954D3*X41529Y11049D3*X37719Y11049D3*X36449Y12954D3*X33909Y12954D3*X33909Y11049D3*X30099Y11049D3*X28829Y12954D3*X26289Y12954D3*X26289Y11049D3*X22479Y11049D3*X22479Y8509D3*X18669Y8509D3*X14859Y8509D3*X11049Y8509D3*X11049Y11049D3*X11049Y12954D3*X13589Y12954D3*X14859Y11049D3*X18669Y11049D3*X18669Y12954D3*X21209Y12954D3*X22479Y14859D3*X25019Y14859D3*D13*X59309Y17399D3*X60579Y18669D3*X59309Y19939D3*X55499Y19939D3*X56769Y18669D3*X55499Y17399D3*X44069Y17399D3*X47879Y17399D3*X51689Y17399D3*X52959Y18669D3*X51689Y19939D3*X49149Y18669D3*X47879Y19939D3*X45339Y18669D3*X44069Y19939D3*X40259Y19939D3*X41529Y18669D3*X40259Y17399D3*X25019Y17399D3*X28829Y17399D3*X32639Y17399D3*X36449Y17399D3*X37719Y18669D3*X36449Y19939D3*X33909Y18669D3*X32639Y19939D3*X30099Y18669D3*X28829Y19939D3*X26289Y18669D3*X25019Y19939D3*X21209Y19939D3*X22479Y18669D3*X21209Y17399D3*X13589Y17399D3*X17399Y17399D3*X18669Y18669D3*X17399Y19939D3*X14859Y18669D3*X13589Y19939D3*X9779Y19939D3*X11049Y18669D3*X9779Y17399D3*X5969Y17399D3*X7239Y18669D3*X5969Y19939D3*X2159Y19939D3*X3429Y18669D3*X2159Y17399D3*D14*X68834Y20574D3*X68834Y15494D3*X64389Y2794D3*X60579Y2794D3*X56769Y2794D3*X52959Y2794D3*X49149Y2794D3*X45339Y2794D3*X41529Y2794D3*X37719Y2794D3*X33909Y2794D3*X30099Y2794D3*X26289Y2794D3*X22479Y2794D3*X18669Y2794D3*X14859Y2794D3*X11049Y2794D3*X7239Y2794D3*X0Y0D2*M02*